<?xml version="1.0" encoding="iso-8859-1"?>
<!-- Generator: Adobe Illustrator 15.1.0, SVG Export Plug-In . SVG Version: 6.00 Build 0)  -->
<!DOCTYPE svg PUBLIC "-//W3C//DTD SVG 1.1//EN" "http://www.w3.org/Graphics/SVG/1.1/DTD/svg11.dtd">
<svg version="1.1" id="Layer_3" xmlns="http://www.w3.org/2000/svg" xmlns:xlink="http://www.w3.org/1999/xlink" x="0px" y="0px"
	 width="203.55px" height="256.6px" viewBox="0 0 203.55 256.6" style="enable-background:new 0 0 203.55 256.6;"
	 xml:space="preserve">
<symbol  id="flash0.ai_x2F_Layer_3_x2F__x3C_Compound_Path_x3E_" viewBox="0.06 -256.6 203.54 256.6">
	<g id="Layer_1_2_">
		<path style="fill-rule:evenodd;clip-rule:evenodd;fill:#CFE5DB;" d="M129.2-65.05c0.1-2.267,0.733-4.184,1.9-5.75
			c1.133-1.567,2.467-2.3,4-2.2c1.533,0.067,2.8,0.95,3.8,2.65c1.033,1.667,1.5,3.65,1.4,5.95c-0.1,2.3-0.716,4.233-1.85,5.8
			c-1.167,1.533-2.517,2.267-4.05,2.2c-1.533-0.1-2.8-1-3.8-2.7C129.6-60.767,129.133-62.75,129.2-65.05z M111.05-73.6
			c1.967,0,3.633,0.833,5,2.5c1.367,1.7,2.05,3.733,2.05,6.1s-0.684,4.4-2.05,6.1c-1.367,1.667-3.033,2.5-5,2.5
			c-1.933,0-3.6-0.833-5-2.5c-1.367-1.7-2.05-3.733-2.05-6.1s0.683-4.4,2.05-6.1C107.45-72.767,109.117-73.6,111.05-73.6z
			 M170.6-137.15c4.066-16.267,8.85-33.2,14.35-50.8c6.667-21.167,11-35.316,13-42.45c3.2-11.367,5.083-20.1,5.65-26.2H0.95
			c-3.1,17.434,1.9,42.133,15,74.1c3.733,9.133,9.683,22.417,17.85,39.85c8,17.066,13.483,29.283,16.45,36.65
			C57.45-87.533,62.7-74.117,66-65.75c5.767,14.567,10.733,25.833,14.9,33.8c5.467,10.434,11,18.2,16.6,23.3
			C103.867-2.883,110.817,0,118.35,0c6.6,0,12.167-2.583,16.7-7.75c3.9-4.433,7.3-11.133,10.2-20.1
			c2.033-6.333,4.283-15.583,6.75-27.75c3.333-16.5,5.483-26.767,6.45-30.8C161.75-100.067,165.8-116.983,170.6-137.15z"/>
	</g>
</symbol>
<use xlink:href="#flash0.ai_x2F_Layer_3_x2F__x3C_Compound_Path_x3E_"  width="203.54" height="256.6" x="0.06" y="-256.6" transform="matrix(1 0 0 -1 -0.0498 0)" style="overflow:visible;opacity:0.5508;enable-background:new    ;"/>
</svg>
