<?xml version="1.0" encoding="iso-8859-1"?>
<!-- Generator: Adobe Illustrator 15.1.0, SVG Export Plug-In . SVG Version: 6.00 Build 0)  -->
<!DOCTYPE svg PUBLIC "-//W3C//DTD SVG 1.1//EN" "http://www.w3.org/Graphics/SVG/1.1/DTD/svg11.dtd">
<svg version="1.1" id="Layer_3" xmlns="http://www.w3.org/2000/svg" xmlns:xlink="http://www.w3.org/1999/xlink" x="0px" y="0px"
	 width="168.8px" height="248.9px" viewBox="0 0 168.8 248.9" style="enable-background:new 0 0 168.8 248.9;" xml:space="preserve"
	>
<symbol  id="flash0.ai_x2F_Layer_3_x2F__x3C_Compound_Path_x3E_" viewBox="0 -248.9 168.776 248.914">
	<g id="Layer_1_2_">
		<path style="fill-rule:evenodd;clip-rule:evenodd;fill:#CFE5DB;" d="M104.05-39.5c1.967-6,5.717-19.117,11.25-39.35
			c4.733-17.267,8.85-30.45,12.35-39.55c2.434-6.4,6.934-17,13.5-31.8c6.7-15.133,11.583-26.633,14.65-34.5
			c10.767-27.733,14.833-49.133,12.2-64.2L0-248.3c0.5,5.3,2.1,12.85,4.8,22.65c1.733,6.433,5.367,18.683,10.9,36.75
			c4.633,15.2,8.667,29.816,12.1,43.85c4.034,17.466,7.434,32.1,10.2,43.9c1.433,6.133,3.25,16.233,5.45,30.3
			C45.783-55.817,47.633-45.033,49-38.5C54.2-14.2,61.567-1.417,71.1-0.15c7.233,0.967,13.683-2.333,19.35-9.9
			C95.083-16.25,99.617-26.067,104.05-39.5z M82.7-75.75c-0.633,1.933-1.434,3.45-2.4,4.55c-0.867,1.034-1.917,1.617-3.15,1.75
			c-1.367,0.2-2.6-0.25-3.7-1.35c0.367,0.033,0.917,0.15,1.65,0.35c0.6,0.1,1.05-0.05,1.35-0.45c0.066-0.367-0.434-1.9-1.5-4.6
			c-0.567-2.433-0.8-4.583-0.7-6.45c0.133-2.1,0.3-3.633,0.5-4.6c0.467-1.934,1.233-3.25,2.3-3.95c-0.433-0.367-0.933-0.5-1.5-0.4
			c-0.333,0.066-0.867,0.3-1.6,0.7c0.767-1.033,1.716-1.633,2.85-1.8c0.934-0.133,1.833,0.017,2.7,0.45
			c1.433,0.7,2.55,2.267,3.35,4.7c0.7,2.067,0.983,4.117,0.85,6.15C83.633-79.133,83.3-77.483,82.7-75.75z M55.15-71.55
			c0.633-0.034,1.067-0.1,1.3-0.2c0.433-0.167,0.667-0.483,0.7-0.95c0.033-0.2-0.2-0.716-0.7-1.55c-0.5-0.9-0.784-1.45-0.85-1.65
			c-0.4-1.233-0.65-2.717-0.75-4.45c-0.2-4.167,0.367-6.833,1.7-8c-0.333-0.967-1.167-0.933-2.5,0.1
			c0.534-0.933,1.233-1.517,2.1-1.75c0.733-0.2,1.45-0.15,2.15,0.15c1.167,0.467,2.15,1.7,2.95,3.7
			c0.667,1.733,1.05,3.483,1.15,5.25c0.133,3.633-0.383,6.217-1.55,7.75c-0.667,0.833-1.517,1.417-2.55,1.75
			C57.2-71.033,56.15-71.083,55.15-71.55z M64.25-97.05c-1.2-0.034-1.7-0.55-1.5-1.55c0.2-0.9,0.767-1.65,1.7-2.25
			c0.7-0.467,1.566-0.75,2.6-0.85c1.167-0.133,2.117,0.05,2.85,0.55c0.467,0.333,0,1.083-1.4,2.25
			C67.033-97.633,65.617-97.017,64.25-97.05z"/>
	</g>
</symbol>
<use xlink:href="#flash0.ai_x2F_Layer_3_x2F__x3C_Compound_Path_x3E_"  width="168.776" height="248.914" y="-248.9" transform="matrix(1 0 0 -1 0 0)" style="overflow:visible;opacity:0.7109;enable-background:new    ;"/>
</svg>
