<?xml version="1.0" encoding="iso-8859-1"?>
<!-- Generator: Adobe Illustrator 15.1.0, SVG Export Plug-In . SVG Version: 6.00 Build 0)  -->
<!DOCTYPE svg PUBLIC "-//W3C//DTD SVG 1.1//EN" "http://www.w3.org/Graphics/SVG/1.1/DTD/svg11.dtd">
<svg version="1.1" id="Layer_3" xmlns="http://www.w3.org/2000/svg" xmlns:xlink="http://www.w3.org/1999/xlink" x="0px" y="0px"
	 width="160px" height="181.6px" viewBox="0 0 160 181.6" style="enable-background:new 0 0 160 181.6;" xml:space="preserve">
<linearGradient id="SVGID_1_" gradientUnits="userSpaceOnUse" x1="19.3701" y1="-80.001" x2="187.3701" y2="-80.001" gradientTransform="matrix(5.952381e-006 1 -1 -0.001 4.341550e-004 7.383397e-005)">
	<stop  offset="0" style="stop-color:#99BAA0"/>
	<stop  offset="0.6118" style="stop-color:#81AA8E"/>
	<stop  offset="1" style="stop-color:#78A487"/>
</linearGradient>
<path style="fill-rule:evenodd;clip-rule:evenodd;fill:url(#SVGID_1_);" d="M70.1,96c-0.333-0.5-1.15-0.616-2.45-0.35
	c-1.467,0.366-2.467,0.583-3,0.649c-0.2,0.033-0.483,0.05-0.85,0.05c0.767,3.334,1.9,6.684,3.4,10.051
	c0.4,0.833,1.466,3.333,3.2,7.5c1.867,3.767,3.667,5.666,5.4,5.699c0.633,0,1.233-0.216,1.8-0.649c1.033-0.733,1.933-1.967,2.7-3.7
	c0.101-0.2,0.65-1.7,1.65-4.5c0.899-2.3,1.75-5.684,2.55-10.15c-0.9,0.733-1.667,1.184-2.3,1.351
	c-0.867,0.233-1.617,0.033-2.25-0.601c-0.3-0.3-0.45-0.816-0.45-1.55c-0.033-0.733-0.183-1.217-0.45-1.45
	C78.55,97.95,77.9,97.9,77.1,98.2c-0.867,0.5-1.483,0.8-1.85,0.899c-1.467,0.5-2.667,0.267-3.6-0.699
	C70.883,97.167,70.367,96.366,70.1,96z M46.15,65.55c-1.167,0.7-2.183,1.217-3.05,1.55c1.066,2.1,2.6,4.433,4.6,7
	c1.566,2.033,2.867,2.533,3.9,1.5c0.967-0.967,1.316-2.817,1.05-5.55c-0.333-4.033-0.533-6.75-0.6-8.15l-3,1.9
	C48.45,64.167,47.483,64.75,46.15,65.55z M59.8,58c-1.1,0.133-2.65,0.767-4.65,1.9c0.333,3.167,1.35,5.267,3.05,6.3
	c0.9,0.4,1.483-2.333,1.75-8.2H59.8z M87.4,98.45L87.35,98.5c-0.166,1.934-0.366,3.75-0.6,5.45c-0.366,2.467-1.05,5.967-2.05,10.5
	c-1.2,5.666-1.934,9.166-2.2,10.5c-0.333,1.934-0.25,3.566,0.25,4.899c0.4,1,1.233,2.233,2.5,3.7c1.566-2.5,3.95-5.3,7.15-8.399
	c3.666-3.601,6.017-6.067,7.05-7.4c2.033-2.6,3.483-4.85,4.35-6.75c0.767-1.967,1.351-3.483,1.75-4.55
	c0.467-1.233,0.917-2.55,1.351-3.95c-0.134,0-1.101-0.583-2.9-1.75c-1.434-0.9-2.517-0.95-3.25-0.15
	c-0.233,0.267-0.4,0.801-0.5,1.601c-0.134,0.7-0.417,1.2-0.85,1.5c-1.067,0.7-2.2,0.783-3.4,0.25c-0.5-0.233-1.816-1.517-3.95-3.851
	C90.483,98.366,88.934,97.816,87.4,98.45z M114.65,71.55c0.533-0.6,1.033-1.983,1.5-4.15c0.333-1.566,0.583-3.633,0.75-6.2
	c-2.2-0.934-4.134-1.034-5.801-0.3c-0.066,3.533,0.4,6.55,1.4,9.05C113.233,71.717,113.95,72.25,114.65,71.55z M110,71.5
	c-0.833-2.967-1.217-6.117-1.15-9.45l-1.199,0.7c-0.601,0.333-1.367,0.667-2.301,1c-1.066,0.367-1.883,0.533-2.449,0.5
	c-0.9-0.033-1.601-0.483-2.101-1.35c-0.45-0.803-0.434-1.237,0.05-1.3c-0.816,0.092-1.6,0.692-2.35,1.8
	c-0.934,1.4-1.616,2.233-2.05,2.5c-1.533,0.967-3.5,1.2-5.9,0.7c-1.899-0.4-3.816-1.184-5.75-2.35c-1.666-1.3-3.05-2.317-4.149-3.05
	c-2.101-1.367-3.617-1.733-4.55-1.1c-0.367,0.233-0.75,0.917-1.15,2.05c-0.333,0.9-1.067,1.383-2.2,1.45
	c-0.867,0.033-2-0.35-3.4-1.15c-1.533-0.967-2.617-1.617-3.25-1.95c-0.434-0.2-1.033-0.533-1.8-1c-0.133,1.933-0.267,3.417-0.4,4.45
	c-0.066,1.5-0.283,4.033-0.65,7.6c-0.367,3.7-0.583,6.2-0.65,7.5c-0.2,5.367-0.017,10.017,0.55,13.95l1.05-0.65l0.3-0.149
	c0.6-0.3,1.1-0.601,1.5-0.9c2.133-1.5,3.733-2.633,4.8-3.4c1.867-1.367,3.4-2.55,4.6-3.55c3.1-2.667,5.85-4.4,8.25-5.2
	c3.666-1.267,7.267-0.683,10.8,1.75c1.133,0.767,2.35,1.833,3.649,3.2c0.733,0.8,1.817,2,3.25,3.6c1.233,1.333,3.7,3.767,7.4,7.3
	c0.566-2.6,1.15-6.317,1.75-11.15C111.1,78.85,110.934,74.733,110,71.5z M132.2,23c3.566,1.533,6.833,4.033,9.8,7.5
	c1.7,2,4.233,5.25,7.6,9.75c1.067,1.267,3.017,3.35,5.851,6.25c1.767,1.833,2.7,3.05,2.8,3.65c0.533,0.633,0.9,1.184,1.1,1.65
	c0.767,1.5,0.867,2.383,0.301,2.65c-0.634,0.6-2.184,0.55-4.65-0.15c-2.467-0.733-3.783-1.017-3.95-0.85
	c-0.233,0.233-0.3,0.583-0.2,1.05c0.134,0.667,0.101,1.35-0.1,2.05c-0.267,1.034-0.667,1.667-1.2,1.9
	c-0.467,0.233-1.399,0.316-2.8,0.25c-2.3-0.467-4.083-0.784-5.35-0.95c-2.301-0.333-3.9,0.05-4.801,1.15
	c-0.5,0.633-0.933,2.267-1.3,4.9c-0.233,1.534-1.6,2.25-4.1,2.15c-3.134-0.133-6.566-1.083-10.3-2.85
	c-0.101,4.133-0.667,8.017-1.7,11.65c-0.934,3.333-1.483,6.55-1.65,9.65c-0.1,2-0.166,5.767-0.2,11.3
	c-0.199,8.267-0.716,15.684-1.55,22.25c-1,7.767-2.533,15.066-4.6,21.899c-1.667,5.467-3.8,10.884-6.4,16.25
	c-0.467,1.034-1.366,2.9-2.7,5.601c-1.166,2.5-1.949,4.45-2.35,5.85c0.4,0.101,1.2,0.017,2.4-0.25c1.1-0.2,2.183-0.133,3.25,0.2
	c0.3,0.1,1.35,0.616,3.149,1.55c1.167,0.601,2.15,0.8,2.95,0.601c-0.233,0.267-0.5,0.449-0.8,0.55c1.866,0.434,3.366,0.416,4.5-0.05
	c-1.167,1.066-2.7,1.85-4.601,2.35c-1.333,0.2-2.25,0.366-2.75,0.5l0.25,0.05c0.867,0.434,1.7,0.967,2.5,1.601l1.65,1.199
	c1.267,0.767,2.8,0.95,4.6,0.551c-0.3,0.267-0.683,0.483-1.149,0.649c1.1,0.167,2.166,0.101,3.2-0.2
	c-0.667,0.767-1.5,1.417-2.5,1.95c-1.2,0.601-2.384,0.884-3.551,0.851c-0.966,0-2.183-0.25-3.649-0.75
	c-0.967-0.4-1.684-0.684-2.15-0.851c-0.866-0.333-1.633-0.533-2.3-0.6c-2.066-0.267-3.434-0.217-4.1,0.149
	c-0.634,0.367-0.667,0.917-0.101,1.65c0.334,0.4,0.934,0.983,1.8,1.75c-1.699,0.066-3.066,0.15-4.1,0.25
	c-3.467,0.467-6.467,0.467-9,0c-1-0.233-1.75-0.384-2.25-0.45c-0.866-0.166-1.634-0.233-2.3-0.2c-0.367,0.034-1.634,0.267-3.8,0.7
	c-1.601,0.3-2.867,0.351-3.8,0.15c0.6-0.3,1.017-0.584,1.25-0.851c0.333-0.433,0.517-0.666,0.55-0.699
	c-1,0.566-2.45,0.783-4.35,0.649c-0.566-0.033-2.05-0.25-4.45-0.649c-1.833-0.233-4.267-0.117-7.3,0.35
	c1.1-1.333,1.817-2.167,2.15-2.5c0.3-0.3,0.75-0.634,1.35-1c0.833-0.5,1.317-0.783,1.45-0.85c-0.3-0.101-0.717-0.117-1.25-0.051
	c-0.8,0.067-1.233,0.101-1.3,0.101c-3.534,0-6.167-0.4-7.9-1.2c-1.6-0.733-3.183-1.033-4.75-0.9c0.8-0.566,1.784-0.883,2.95-0.949
	c0.4-0.067,0.933-0.117,1.6-0.15c0.333,0,0.816-0.017,1.45-0.05c0.867-0.066,1.817-0.45,2.85-1.15c1.167-0.767,2.1-1.25,2.8-1.45
	c1.633-0.433,3.017-0.6,4.15-0.5c1.267,0.101,2.066,0.117,2.4,0.051c0.667-0.134,0.983-0.601,0.95-1.4
	c-0.067-0.733-0.383-1.55-0.95-2.45c-0.433-0.633-1.267-1.767-2.5-3.399c-1.1-1.434-1.917-2.601-2.45-3.5
	c-2.7-4.334-5.133-9.65-7.3-15.95c-2.2-6.267-3.933-13.367-5.2-21.3c-0.867-5.601-1.7-13.101-2.5-22.5
	c-0.433-6.034-1.283-10.384-2.55-13.05c-0.1-0.2-1.667-2.783-4.7-7.75c-2.367-3.9-4.033-7.45-5-10.65c-0.9-0.2-1.667-0.817-2.3-1.85
	c-1.167-2.033-1.8-3.117-1.9-3.25c-0.9-1.2-2.45-1.667-4.65-1.4c-0.167,0.033-1.833,0.433-5,1.2c-2.467,0.633-3.934,0.983-4.4,1.05
	c-1.833,0.233-3.25-0.05-4.25-0.85c-1.1-0.934-1.5-2.55-1.2-4.85c0.3-2.533,0.25-4.083-0.15-4.65c-0.434-0.667-2.25-0.417-5.45,0.75
	c-3.567,1.267-5.867,1.767-6.9,1.5c-2.434,0.066-2.983-1.483-1.65-4.65c0.3-0.767,0.816-1.784,1.55-3.05
	c0.7-1.3,1.117-2.117,1.25-2.45c-0.667-0.167-1.15-0.317-1.45-0.45c-0.533-0.2-0.917-0.433-1.15-0.7l-0.2-0.3
	c-0.167-0.233-0.167-0.567,0-1l1.9-2.5c0.433-1,1.767-2.583,4-4.75c3.233-3.2,5.183-5.167,5.85-5.9c3.433-4.4,6.55-8.117,9.35-11.15
	c5.2-5.633,10.733-10.1,16.6-13.4c6.8-3.833,13.45-5.483,19.95-4.95c5.566,0.433,11.717,2.617,18.45,6.55
	c1.733,1.033,4.75,3.533,9.05,7.5c5.934,5.434,9.167,8.383,9.7,8.85c2.566,2.133,4.75,3.367,6.55,3.7
	c1.634,0.267,3.417-0.117,5.351-1.15c3.767-2.1,6.816-3.433,9.149-4C121.767,20.283,126.967,20.767,132.2,23z"/>
</svg>
