<?xml version="1.0" encoding="iso-8859-1"?>
<!-- Generator: Adobe Illustrator 15.1.0, SVG Export Plug-In . SVG Version: 6.00 Build 0)  -->
<!DOCTYPE svg PUBLIC "-//W3C//DTD SVG 1.1//EN" "http://www.w3.org/Graphics/SVG/1.1/DTD/svg11.dtd">
<svg version="1.1" id="Layer_1" xmlns="http://www.w3.org/2000/svg" xmlns:xlink="http://www.w3.org/1999/xlink" x="0px" y="0px"
	 width="470.3px" height="296.6px" viewBox="0 0 470.3 296.6" style="enable-background:new 0 0 470.3 296.6;" xml:space="preserve"
	>
<g>
	<path style="fill-rule:evenodd;clip-rule:evenodd;fill:#D4E6D3;" d="M470.3,296.05c-42.133-0.333-113.883-0.316-215.25,0.05
		c-91.767,0.334-163.5,0.15-215.2-0.55c-10.867-0.2-24.15-0.033-39.85,0.5c7.367-1.733,13.283-3.217,17.75-4.45
		c8.133-2.199,15.35-4.866,21.65-8c18.267-9.133,33.017-24.1,44.25-44.899c5.567-10.3,11.5-23.25,17.8-38.851
		c6.933-17.8,12.017-30.8,15.25-39c5.667-14.333,10.533-25.233,14.6-32.7c5.333-9.767,10.633-16.367,15.9-19.8
		c9.767-6.4,18.4-8.983,25.9-7.75c2.566,0.4,5.783,1.417,9.65,3.05c5.233,2.133,8.65,3.467,10.25,4c6.833,2.2,12.95-0.333,18.35-7.6
		c4.066-5.466,8.183-14.483,12.35-27.05c8.066-24.333,13.8-40.083,17.2-47.25C248.4,9.883,256.533,1.367,265.3,0.2
		c7.934-1.067,15.25,2.083,21.95,9.45c5.634,6.167,11.434,16.033,17.4,29.6c2.966,6.767,8.333,20.533,16.1,41.3
		c7.134,19.133,13.2,34.034,18.2,44.7c15.934,34.134,31.783,61.483,47.55,82.05c13.167,17.2,31.616,36.117,55.35,56.75
		c8.067,7,13.733,12.283,17,15.851C463.217,284.634,467.033,290.017,470.3,296.05z"/>
	<path style="fill-rule:evenodd;clip-rule:evenodd;fill:#C0D7BF;" d="M462.7,296.05c-73.667,0.334-150.601,0.517-230.8,0.55
		c-22.633,0-84.483-0.017-185.55-0.05c-3.233,0-8.7-0.083-16.4-0.25c-7.233-0.166-13.1-0.25-17.6-0.25
		c15.566-3.767,28.517-8.366,38.85-13.8c17.867-9.467,32.533-22.833,44-40.1c5.767-8.667,11.216-19.834,16.35-33.5
		c2.367-6.2,6.383-18.184,12.05-35.95c4.5-14.167,8.267-24.434,11.3-30.8c4.4-9.3,9.167-15.35,14.3-18.15
		c5.233-2.833,9.933-4.067,14.1-3.7c3.3,0.267,6.65,1.633,10.05,4.1c1.967,1.434,4.8,3.817,8.5,7.15c3.433,2.8,6.633,4.583,9.6,5.35
		c13,3.3,23.55-4.833,31.65-24.4c8.2-19.767,14-32.567,17.4-38.4c7.5-12.9,15.566-19.867,24.2-20.9c7.8-0.934,14.95,1.533,21.45,7.4
		c5.466,4.933,11.05,12.85,16.75,23.75c2.833,5.4,7.949,16.467,15.35,33.2c6.8,15.367,12.6,27.35,17.4,35.95
		c14.366,25.767,29.633,47.55,45.8,65.35c6.6,7.301,14.483,15.2,23.649,23.7c2.267,2.101,11.134,10.117,26.601,24.05
		c3.434,3.067,9.033,7.867,16.8,14.4C455.167,286.65,459.9,291.75,462.7,296.05z"/>
	<path style="fill-rule:evenodd;clip-rule:evenodd;fill:#B0CDC2;" d="M361.95,241.2c17.967,17.366,30.383,29.517,37.25,36.45
		c9,9.1,14.55,15.233,16.649,18.399c-9.233,0.033-66.149,0.017-170.75-0.05c-98.966-0.1-154.716-0.083-167.25,0.05
		c3.667-1.2,8.083-4.416,13.25-9.649c5.5-6.034,9.367-10.117,11.6-12.25c6-5.567,10.45-9.784,13.35-12.65
		c5.034-4.934,9.15-9.5,12.35-13.7c5.8-7.566,10.7-15.616,14.7-24.149c2.467-5.267,5.3-12.483,8.5-21.65
		c3.2-9.233,5.75-15.9,7.65-20c3.333-7.1,7.417-13.417,12.25-18.95c2.7-3.1,5.217-4.7,7.55-4.8c1.934-0.1,3.9,0.884,5.9,2.95
		c1.066,1.066,2.816,3.333,5.25,6.8c2.233,3.2,4.066,5.434,5.5,6.7c6.733,5.934,12.867,3,18.4-8.8c1.7-3.733,3.483-8.65,5.35-14.75
		c2.066-6.867,3.15-10.417,3.25-10.65c3.233-10.167,6.233-18,9-23.5c5.066-10.033,11.3-15.5,18.7-16.4
		c5.199-0.633,9.983,1,14.35,4.9c3.634,3.233,7.35,8.45,11.15,15.65c1.899,3.533,5.333,10.833,10.3,21.9
		c4.533,10.101,8.399,17.983,11.6,23.65c9.233,16.366,19.55,30.583,30.95,42.649C335.616,216.616,346.684,227.233,361.95,241.2z"/>
</g>
</svg>
