<?xml version="1.0" encoding="iso-8859-1"?>
<!-- Generator: Adobe Illustrator 15.1.0, SVG Export Plug-In . SVG Version: 6.00 Build 0)  -->
<!DOCTYPE svg PUBLIC "-//W3C//DTD SVG 1.1//EN" "http://www.w3.org/Graphics/SVG/1.1/DTD/svg11.dtd">
<svg version="1.1" id="Layer_1" xmlns="http://www.w3.org/2000/svg" xmlns:xlink="http://www.w3.org/1999/xlink" x="0px" y="0px"
	 width="474px" height="306.9px" viewBox="0 0 474 306.9" style="enable-background:new 0 0 474 306.9;" xml:space="preserve">
<linearGradient id="SVGID_1_" gradientUnits="userSpaceOnUse" x1="249.584" y1="-41.6758" x2="237.834" y2="283.3492">
	<stop  offset="0" style="stop-color:#B5E3B5"/>
	<stop  offset="0.5137" style="stop-color:#91C4C4"/>
	<stop  offset="0.9882" style="stop-color:#759EA1"/>
</linearGradient>
<path style="fill-rule:evenodd;clip-rule:evenodd;fill:url(#SVGID_1_);" d="M332,111.4c4.833,2.833,12.134,14.3,21.9,34.4
	c0.566,1.133,5.416,11.384,14.55,30.75c6.633,14.033,12.483,25.983,17.55,35.851c4.333,8.5,10.366,18.5,18.1,30
	c9.167,13.633,16.467,22.633,21.9,27c9.066,7.3,19.816,14.85,32.25,22.649c3.967,2.467,6.9,4.533,8.8,6.2
	c2.566,2.2,4.884,4.917,6.95,8.15c-13.333-0.667-92.45-0.667-237.35,0C91.883,307.066,13,307.066,0,306.4
	c1.533-6.867,6.633-16.317,15.3-28.351c9.833-12.8,16.267-21.533,19.3-26.2c11.833-18.1,22.367-39.066,31.6-62.899
	c3.433-8.9,7.283-19.767,11.55-32.601c4.9-14.899,8.65-26.216,11.25-33.95c2.933-9.066,5.283-16.133,7.05-21.2
	c3.133-8.9,6.167-16.367,9.1-22.4c8.133-16.7,17.083-25.5,26.85-26.4c4.467-0.4,9.767,2.9,15.9,9.9
	c0.633,0.733,3.45,4.133,8.45,10.2c3.667,4.5,6.883,8.133,9.65,10.9c4.467,4.467,9.483,4.867,15.05,1.2
	c6.233-4.133,11.217-12.533,14.95-25.2c5.233-17.667,11.367-31.75,18.4-42.25c8.4-12.566,17.117-18.233,26.15-17
	C247.65,1.117,253.9,9.167,259.3,24.3c3.167,8.767,7.4,23.467,12.7,44.1c5.533,18.934,9.483,31.35,11.85,37.25
	c5.967,14.867,11.617,21.333,16.95,19.4c2.566-0.933,5.134-2.733,7.7-5.4c1.434-1.533,3.467-3.816,6.1-6.85
	c2.367-2.367,4.717-3.733,7.051-4.1C324.583,108.2,328.033,109.1,332,111.4z"/>
</svg>
