<?xml version="1.0" encoding="iso-8859-1"?>
<!-- Generator: Adobe Illustrator 15.1.0, SVG Export Plug-In . SVG Version: 6.00 Build 0)  -->
<!DOCTYPE svg PUBLIC "-//W3C//DTD SVG 1.1//EN" "http://www.w3.org/Graphics/SVG/1.1/DTD/svg11.dtd">
<svg version="1.1" id="Layer_1" xmlns="http://www.w3.org/2000/svg" xmlns:xlink="http://www.w3.org/1999/xlink" x="0px" y="0px"
	 width="171.35px" height="219.45px" viewBox="0 0 171.35 219.45" style="enable-background:new 0 0 171.35 219.45;"
	 xml:space="preserve">
<g>
	
		<linearGradient id="SVGID_1_" gradientUnits="userSpaceOnUse" x1="-176.7026" y1="107.2412" x2="167.6653" y2="107.2412" gradientTransform="matrix(0.1012 -0.9949 0.9949 0.1012 1.482293e-004 2.363324e-004)">
		<stop  offset="0" style="stop-color:#B5D6BA"/>
		<stop  offset="1" style="stop-color:#CEE3D1"/>
	</linearGradient>
	<path style="fill-rule:evenodd;clip-rule:evenodd;fill:url(#SVGID_1_);" d="M164.5,173.15c0.467,2.3,1.866,10.399,4.2,24.3
		c0.666,3.934,1.283,8.283,1.85,13.05c0.533,4.566,0.8,7.55,0.8,8.95c-10.267-1.134-38.466-2-84.6-2.601
		C34.317,216.15,5.4,215.684,0,215.45c5.233-12.5,10.95-24.783,17.15-36.851c5.267-10.233,11.8-22.066,19.6-35.5
		c5.233-9.066,10.017-19.383,14.35-30.949c3.433-9.2,6.883-20.067,10.35-32.601c5.333-23,9.8-39.383,13.4-49.15
		c6.2-16.667,14.667-26.4,25.4-29.2c11.733-3.067,21.05-0.167,27.95,8.7c5.866,7.6,9.717,19.117,11.55,34.55
		c2.434,20.633,4.816,37.816,7.15,51.55c3.199,18.967,6.966,35.833,11.3,50.6C160.6,154.8,162.7,163.65,164.5,173.15z"/>
	<path style="fill-rule:evenodd;clip-rule:evenodd;fill:#AFCFB5;" d="M100.05,40.55c8.233-5.733,14.601-4.433,19.101,3.9
		c3.933,7.267,5.616,17.65,5.05,31.15c-0.367,8.767,0.833,20.3,3.6,34.6c1.566,8.133,4.084,20.316,7.55,36.55
		c4.767,25.833,8.767,49.616,12,71.35l-73.899-0.75l-58.75-2.6c7.633-17.5,13.05-28.85,16.25-34.05
		c7.433-11.267,13.1-19.967,17-26.101C54.917,143.7,61,132.55,66.2,121.15c2.633-5.767,5.367-13.3,8.2-22.601
		c3.033-10.633,5.317-18.466,6.85-23.5C86.85,56.883,93.116,45.383,100.05,40.55z"/>
	<path style="fill-rule:evenodd;clip-rule:evenodd;fill:#CBECD2;" d="M93.2,83.7c2.866-4.867,6.033-7.4,9.5-7.6
		c5.7-0.3,8.75,5.183,9.149,16.45c0.233,6.434-0.149,16.95-1.149,31.55c-0.167,11-0.05,20.467,0.35,28.4
		c0.434,7.767,1.2,15.184,2.3,22.25c1.667,10.7,4.067,20.9,7.2,30.6c1.533,4.867,2.917,8.667,4.15,11.4
		c-14.467,0.3-34.25,0.167-59.35-0.4c-12.567-0.267-23.684-0.566-33.35-0.899c3.9-6.834,7.9-14.167,12-22
		c2.767-5.3,6.917-12.667,12.45-22.101c5.367-9.133,9-15.55,10.9-19.25c3.5-6.866,6.983-15.383,10.45-25.55
		c3.6-11.333,6.217-19.466,7.851-24.4C88.45,93.65,90.967,87.5,93.2,83.7z"/>
	
		<linearGradient id="SVGID_2_" gradientUnits="userSpaceOnUse" x1="-161.9629" y1="108.4033" x2="-75.1164" y2="108.4033" gradientTransform="matrix(0.133 -0.9911 0.9911 0.133 -1.424551e-004 -2.909899e-004)">
		<stop  offset="0" style="stop-color:#B5D6BA"/>
		<stop  offset="1" style="stop-color:#CEE3D1"/>
	</linearGradient>
	<path style="fill-rule:evenodd;clip-rule:evenodd;fill:url(#SVGID_2_);" d="M71.05,195.6c1.767-4.399,4.733-12.649,8.9-24.75
		c3.333-9.666,5.899-16.3,7.7-19.899c2.633-5.267,4.983-7.467,7.05-6.601c3.333,1.434,5.467,7.284,6.399,17.551
		c0.801,8.533,0.684,18.449-0.35,29.75c-0.767,8.566-1,17.149-0.7,25.75c-5.166-0.801-11.316-1.15-18.45-1.051
		c-8.667,0.267-15.717,0.384-21.15,0.351C63.85,211.9,67.383,204.866,71.05,195.6z"/>
</g>
</svg>
