<?xml version="1.0" encoding="iso-8859-1"?>
<!-- Generator: Adobe Illustrator 15.1.0, SVG Export Plug-In . SVG Version: 6.00 Build 0)  -->
<!DOCTYPE svg PUBLIC "-//W3C//DTD SVG 1.1//EN" "http://www.w3.org/Graphics/SVG/1.1/DTD/svg11.dtd">
<svg version="1.1" id="Layer_1" xmlns="http://www.w3.org/2000/svg" xmlns:xlink="http://www.w3.org/1999/xlink" x="0px" y="0px"
	 width="165.8px" height="229.1px" viewBox="0 0 165.8 229.1" style="enable-background:new 0 0 165.8 229.1;" xml:space="preserve"
	>
<symbol  id="flash0.ai_x2F_Layer_1_x2F__x3C_Path_x3E_" viewBox="0 -153.698 94.7 153.698">
	<g id="Layer_1_2_">
		<path style="fill-rule:evenodd;clip-rule:evenodd;fill:#CBECD2;" d="M50-39c4.5,12.533,8.133,21.667,10.9,27.4
			C64.6-3.867,67.7,0,70.2,0c5.5,0,8.683-7.183,9.55-21.55c0.233-4.067,0.35-10.383,0.35-18.95c-0.033-8.4,0.066-14.2,0.3-17.4
			c1.8-26.867,4.733-50.783,8.8-71.75c2-10.5,3.833-18.3,5.5-23.4c-12.767-0.6-32.383-0.784-58.85-0.55
			c-13.233,0.133-25.184,0.317-35.85,0.55c2.167,4.966,4.933,11.017,8.3,18.15c6.7,14.233,13.017,26.733,18.95,37.5
			c3.033,5.533,6.767,14.25,11.2,26.15C43.617-56.783,47.467-46.033,50-39z"/>
	</g>
</symbol>
<g>
	<path style="fill-rule:evenodd;clip-rule:evenodd;fill:#AFDDCA;" d="M128.25,9.75c5.7,7.6,9.316,19.267,10.85,35
		c1.134,11.833,5.934,45.783,14.4,101.85c4.2,28.034,8.3,54.884,12.3,80.551H69.85c-5.367,0.767-17.833,1.366-37.4,1.8
		C10.817,229.45,0,228.85,0,227.15C-0.033,214.55,4.033,201,12.2,186.5c2.3-4.066,6.083-10.15,11.35-18.25
		c5.2-7.967,8.967-14.05,11.3-18.25c3.533-6.4,7.383-14.767,11.55-25.1C51.9,111.3,56.8,96.933,61.1,81.8
		c5.667-23.5,10.367-40.25,14.1-50.25c6.433-17.1,14.983-27.167,25.649-30.2C112.483-1.983,121.616,0.817,128.25,9.75z"/>
	<path style="fill-rule:evenodd;clip-rule:evenodd;fill:#A7D6BF;" d="M99.95,41.4c7.967-5.767,14.017-3.733,18.149,6.1
		c3.134,7.433,5.034,18.8,5.7,34.1c1.134,25.867,5,57.883,11.601,96.05c3.3,19.1,6.483,35.6,9.55,49.5H12.8
		c2-5.567,4.184-11.5,6.55-17.801c4.7-12.533,7.983-20.517,9.85-23.949c7.767-13.767,13.683-24.267,17.75-31.5
		c7.4-13.134,13.716-25.434,18.95-36.9c2.667-5.833,5.45-13.183,8.35-22.05c3.067-9.833,5.383-17.034,6.95-21.6
		C86.7,57.15,92.95,46.5,99.95,41.4z"/>
	
		<use xlink:href="#flash0.ai_x2F_Layer_1_x2F__x3C_Path_x3E_"  width="94.7" height="153.698" y="-153.698" transform="matrix(1 0 0 -1 29.7998 74.1001)" style="overflow:visible;opacity:0.6602;enable-background:new    ;"/>
</g>
</svg>
