<?xml version="1.0" encoding="iso-8859-1"?>
<!-- Generator: Adobe Illustrator 15.1.0, SVG Export Plug-In . SVG Version: 6.00 Build 0)  -->
<!DOCTYPE svg PUBLIC "-//W3C//DTD SVG 1.1//EN" "http://www.w3.org/Graphics/SVG/1.1/DTD/svg11.dtd">
<svg version="1.1" id="Layer_1" xmlns="http://www.w3.org/2000/svg" xmlns:xlink="http://www.w3.org/1999/xlink" x="0px" y="0px"
	 width="271.1px" height="399.85px" viewBox="0 0 271.1 399.85" style="enable-background:new 0 0 271.1 399.85;"
	 xml:space="preserve">
<path style="fill-rule:evenodd;clip-rule:evenodd;fill:#CFE5DB;" d="M205,190.25c3.934,10.233,11.184,27.25,21.75,51.05
	c10.767,24.267,18.616,42.75,23.55,55.45c17.267,44.5,23.783,78.866,19.55,103.1L0,398.85c0.8-8.5,3.35-20.633,7.65-36.399
	c2.733-9.967,8.583-29.634,17.55-59c7.466-24.434,13.933-47.934,19.4-70.5c6.5-28.033,11.967-51.534,16.4-70.5
	c2.3-9.867,5.217-26.083,8.75-48.65c3.767-24.167,6.767-41.483,9-51.95c3.933-18.4,8.4-32.45,13.4-42.15
	C98.25,7.9,105.6,1.417,114.2,0.25c11.633-1.533,22,3.767,31.1,15.9c7.467,10,14.75,25.767,21.851,47.3
	c3.199,9.8,9.233,30.883,18.1,63.25C192.816,154.467,199.4,175.65,205,190.25z M123.9,111.55c-2.2-0.267-4.183,0.483-5.95,2.25
	c0.6-0.033,1.483-0.233,2.65-0.6c1-0.167,1.733,0.083,2.2,0.75c0.067,0.333-0.283,1.517-1.05,3.55
	c-0.833,2.267-1.283,3.533-1.35,3.8c-0.333,1.434-0.617,3.167-0.85,5.2c-0.233,2.1-0.333,3.833-0.3,5.2
	c0.167,3.267,0.45,5.733,0.85,7.4c0.7,3.066,1.917,5.167,3.65,6.3c-0.733,0.6-1.533,0.8-2.4,0.6c-0.533-0.1-1.4-0.467-2.6-1.1
	c1.267,1.633,2.817,2.583,4.65,2.85c1.5,0.233,2.934,0.017,4.3-0.65c2.3-1.133,4.083-3.65,5.35-7.55
	c1.067-3.333,1.534-6.65,1.4-9.95c-0.1-2.467-0.633-5.1-1.6-7.9c-1.033-3.067-2.317-5.5-3.85-7.3
	C127.6,112.733,125.9,111.783,123.9,111.55z M93.7,114.7c-1.8-0.567-3.517-0.467-5.15,0.3c0.967,0,1.667,0.083,2.1,0.25
	c0.7,0.267,1.083,0.8,1.15,1.6c0.034,0.267-0.333,1.066-1.1,2.4c-0.833,1.5-1.3,2.4-1.4,2.7c-0.667,2-1.05,4.4-1.15,7.2
	c-0.267,6.733,0.633,11.017,2.7,12.85c-0.533,1.467-1.883,1.383-4.05-0.25c0.867,1.533,2.017,2.483,3.45,2.85
	c1.133,0.333,2.267,0.267,3.4-0.2c1.867-0.767,3.45-2.783,4.75-6.05c1.1-2.733,1.717-5.533,1.85-8.4c0.233-5.867-0.617-10-2.55-12.4
	C96.667,116.183,95.333,115.233,93.7,114.7z M103.55,162.05c1.1,0.733,2.467,1.184,4.1,1.35c1.9,0.233,3.434-0.066,4.6-0.9
	c0.733-0.5-0.017-1.717-2.25-3.65c-2.333-2-4.6-2.983-6.8-2.95c-1.934,0.033-2.733,0.85-2.4,2.45
	C101.1,159.817,102.017,161.05,103.55,162.05z"/>
</svg>
