<?xml version="1.0" encoding="iso-8859-1"?>
<!-- Generator: Adobe Illustrator 15.1.0, SVG Export Plug-In . SVG Version: 6.00 Build 0)  -->
<!DOCTYPE svg PUBLIC "-//W3C//DTD SVG 1.1//EN" "http://www.w3.org/Graphics/SVG/1.1/DTD/svg11.dtd">
<svg version="1.1" id="Layer_1" xmlns="http://www.w3.org/2000/svg" xmlns:xlink="http://www.w3.org/1999/xlink" x="0px" y="0px"
	 width="206px" height="184.2px" viewBox="0 0 206 184.2" style="enable-background:new 0 0 206 184.2;" xml:space="preserve">
<symbol  id="flash0.ai_x2F_Layer_1_x2F__x3C_Path_x3E_" viewBox="0 -143.45 141.5 143.455">
	<g id="Layer_1_2_">
		<path style="fill-rule:evenodd;clip-rule:evenodd;fill:#E7EEE1;" d="M119.55-67.3c3.233-11.3,7.217-25.9,11.95-43.8
			c4-14.333,7.333-25.117,10-32.35H0c2.333,4.633,5.383,10.383,9.15,17.25c7.5,13.7,14.783,26.067,21.85,37.1
			c9.567,14.9,16.883,27.133,21.95,36.7c6.333,12,11.017,23.1,14.05,33.3c1.633,5.467,3.917,9.9,6.85,13.3
			c2.9,3.367,6.083,5.267,9.55,5.7c7.934,1,14.633-5.167,20.1-18.5C108.333-30.333,113.683-46.567,119.55-67.3z"/>
	</g>
</symbol>
<g>
	<path style="fill-rule:evenodd;clip-rule:evenodd;fill:#CFE5D4;" d="M206,183.5L0,184.2c2.067-3.467,4.867-7.884,8.4-13.25
		c7.067-10.7,14.267-20.733,21.6-30.101c13.1-16.666,23.017-30.35,29.75-41.05C69.117,84.9,76.533,69.7,82,54.2
		c7-19.9,13.2-33.8,18.6-41.7c6.433-9.467,13.567-13.567,21.4-12.3c8.033,1.267,16.316,9.983,24.85,26.15
		c7.834,14.9,15.784,35.95,23.851,63.15c3.6,12.134,9.566,28.05,17.899,47.75C196.9,156.884,202.7,172.3,206,183.5z"/>
	
		<use xlink:href="#flash0.ai_x2F_Layer_1_x2F__x3C_Path_x3E_"  width="141.5" height="143.455" y="-143.45" transform="matrix(1 0 0 -1 37.7002 40.75)" style="overflow:visible;opacity:0.4219;enable-background:new    ;"/>
</g>
</svg>
