<?xml version="1.0" encoding="iso-8859-1"?>
<!-- Generator: Adobe Illustrator 15.1.0, SVG Export Plug-In . SVG Version: 6.00 Build 0)  -->
<!DOCTYPE svg PUBLIC "-//W3C//DTD SVG 1.1//EN" "http://www.w3.org/Graphics/SVG/1.1/DTD/svg11.dtd">
<svg version="1.1" id="Layer_1" xmlns="http://www.w3.org/2000/svg" xmlns:xlink="http://www.w3.org/1999/xlink" x="0px" y="0px"
	 width="371.6px" height="372.75px" viewBox="0 0 371.6 372.75" style="enable-background:new 0 0 371.6 372.75;"
	 xml:space="preserve">
<symbol  id="flash0.ai_x2F_Layer_1_x2F__x3C_Clip_Group_0_x3E_" viewBox="0.057 -178.82 330.893 178.79">
	<g id="Layer_1_6_">
	</g>
	<g>
		<defs>
			<path id="SVGID_1_" d="M323.5-35.55c-4.767,0.667-7.517,1.1-8.25,1.3c-4.767,1.233-13.033,3.867-24.8,7.9
				c-10.434,3.567-18.75,6.017-24.95,7.35c-5,1.067-14.283,2.083-27.85,3.05c-11.8,0.8-21.017,2.284-27.65,4.45l-1.05,0.35
				c-7.467,3.033-12.983,5.267-16.55,6.7c-6.367,2.567-12.1,3.983-17.2,4.25c-14.667,0.767-27.667-1.05-39-5.45
				c-4.767-1.867-10.633-2.767-17.6-2.7c-8.033,0.434-14.067,0.684-18.1,0.75C97.267-7.567,92.85-8,87.25-8.9
				c-6.167-0.967-10.6-1.5-13.3-1.6c-4.3-0.2-9.55-0.2-15.75,0c-7,0.233-12.267,0.4-15.8,0.5c-8.767,0.733-16,1.067-21.7,1
				C10.067-9.133,3.483-10.983,0.95-14.55c-1.667-2.4-1-6.8,2-13.2c1.633-3.433,3.95-7.767,6.95-13
				c1.467-3.267,2.517-5.433,3.15-6.5c1.434-2.333,3.083-4.017,4.95-5.05c1.133-0.6,2.783-0.983,4.95-1.15
				c2.333-0.167,3.983-0.45,4.95-0.85c1.767-0.767,3.417-2.2,4.95-4.3c0.867-1.2,2.133-3.05,3.8-5.55c2.7-3.533,6.1-6.55,10.2-9.05
				c2.433-1.466,6.4-3.55,11.9-6.25c4.2-2.267,8.883-6.183,14.05-11.75c2.867-3.133,6.95-7.767,12.25-13.9
				c3.9-4.167,6.434-5.85,7.6-5.05c0.434,0.3,1.117,1.233,2.05,2.8c1.133,1.9,2.233,3.45,3.3,4.65c0.967-2.466,2.2-4.483,3.7-6.05
				c0.966-0.967,2.8-2.417,5.5-4.35c2.367-1.667,4.633-4,6.8-7c1.233-1.7,3.117-4.383,5.65-8.05c1.233-1.633,3.167-3.15,5.8-4.55
				c2.867-1.533,4.8-2.833,5.8-3.9c2.467-2.633,4.417-7.566,5.85-14.8c1.9-9.7,3.05-15.083,3.45-16.15
				c3.7-10.034,7.633-9.9,11.8,0.4c1.133,2.767,2.633,7.35,4.5,13.75c1.667,5.633,2.816,9.017,3.45,10.15
				c1.333,2.467,3.284,3.95,5.85,4.45c4.6,0.867,7.184,1.433,7.75,1.7c3.233,1.434,6.467,4.233,9.7,8.4
				c1.833,2.333,4.35,5.883,7.55,10.65c1.367,1.867,3,4.65,4.9,8.35c1.967,3.867,3.517,6.617,4.65,8.25c1.466,2.1,3.55,4.3,6.25,6.6
				c2.566,2.167,5.05,3.867,7.45,5.1c1.867,0.967,3.517,1.467,4.95,1.5c0.1,0,1.867-0.183,5.3-0.55
				c4.1-0.434,8.083-0.517,11.95-0.25c4.833,0.333,8.683,1.2,11.55,2.6c2.833,1.367,8.7,4.5,17.6,9.4
				c7.1,3.933,12.967,6.833,17.6,8.7c2.233,0.9,4.617,2.383,7.15,4.45c0.4,0.333,2.483,2.233,6.25,5.7c3.333,2.967,6.8,4.967,10.4,6
				c0.667,0.2,1.117,0.317,1.35,0.35c0.267,0.033,0.583-0.05,0.95-0.25c-0.133-0.9-0.65-1.833-1.55-2.8
				c-0.933-1-1.633-1.867-2.1-2.6c-0.267-0.4-0.533-0.933-0.8-1.6c-0.433-1-0.667-1.533-0.7-1.6c-0.033-0.133-0.2-0.466-0.5-1
				c-0.267-0.5-0.367-0.833-0.3-1c0.1-0.267,0.4-0.3,0.9-0.1c0.3,0.133,0.667,0.316,1.1,0.55c0.567,0.233,1.767,0.933,3.6,2.1
				c4.2,2.2,7.917,4.983,11.15,8.35c3.033,3.2,5.05,5.4,6.05,6.6c2.2,2.7,3.75,5.2,4.65,7.5
				C329.517-36.8,327.033-36.083,323.5-35.55z"/>
		</defs>
		<clipPath id="SVGID_2_">
			<use xlink:href="#SVGID_1_"  style="overflow:visible;"/>
		</clipPath>
		<g id="Layer_3_1_" style="clip-path:url(#SVGID_2_);">
			<g>
				
					<use xlink:href="#flash0.ai_x2F_Layer_1_x2F__x3C_Group_x3E__x5F_1"  width="322.725" height="166.528" x="0.037" y="-166.505" transform="matrix(1 0 0 1 6.0498 -5.75)" style="overflow:visible;opacity:0.2891;enable-background:new    ;"/>
				
					<use xlink:href="#flash0.ai_x2F_Layer_1_x2F__x3C_Group_x3E_"  width="322.835" height="144.52" y="-144.52" transform="matrix(1 0 0 1 3.5 -34.2998)" style="overflow:visible;enable-background:new    ;"/>
			</g>
		</g>
	</g>
	<g id="Layer_4_1_">
	</g>
</symbol>
<symbol  id="flash0.ai_x2F_Layer_1_x2F__x3C_Group_x3E_" viewBox="0 -144.52 322.835 144.52">
	<g id="Layer_1_5_">
		<g>
			
				<use xlink:href="#flash0.ai_x2F_Layer_1_x2F__x3C_Path_x3E__x5F_0"  width="322.835" height="144.52" y="-144.52" style="overflow:visible;opacity:0.7305;enable-background:new    ;"/>
		</g>
	</g>
</symbol>
<symbol  id="flash0.ai_x2F_Layer_1_x2F__x3C_Group_x3E__x5F_1" viewBox="0.037 -166.505 322.725 166.528">
	<g id="Layer_1_4_">
		<g>
			
				<use xlink:href="#flash0.ai_x2F_Layer_1_x2F__x3C_Path_x3E_"  width="322.725" height="166.528" x="0.037" y="-166.505" style="overflow:visible;opacity:0.3398;enable-background:new    ;"/>
		</g>
	</g>
</symbol>
<symbol  id="flash0.ai_x2F_Layer_1_x2F__x3C_Path_x3E_" viewBox="0.037 -166.505 322.725 166.528">
	<g id="Layer_1_2_">
		
			<linearGradient id="SVGID_3_" gradientUnits="userSpaceOnUse" x1="-24.1162" y1="-15794.2695" x2="36.2603" y2="-15794.2695" gradientTransform="matrix(0.007 -1 1 0.007 15955.4385 58.1509)">
			<stop  offset="0" style="stop-color:#8FB5B0"/>
			<stop  offset="1" style="stop-color:#BDDAC2"/>
		</linearGradient>
		<path style="fill-rule:evenodd;clip-rule:evenodd;fill:url(#SVGID_3_);" d="M294.1-47.9c-3-1.567-5.633-3.133-7.9-4.7
			c-7.9-5.467-13.9-11.75-18-18.85c-2.333-0.5-4.083-0.883-5.25-1.15c-2.067-0.5-3.767-1.066-5.1-1.7
			c0.467,1.066,1.283,2.3,2.45,3.7c0.667,0.833,1.65,1.983,2.95,3.45c1.067,1.233,2.833,2.983,5.3,5.25c2.4,2.2,4.15,3.967,5.25,5.3
			c0.567,0.667,3.034,2.684,7.4,6.05c3.833,3.3,5.233,5.583,4.2,6.85c-1.433-1.367-3.617-2.883-6.55-4.55
			c-4.467-2.567-6.767-3.9-6.9-4c0.466,1.033,0.833,1.717,1.1,2.05c-2.667-1.466-6.183-3.683-10.55-6.65
			c-4.9-3.333-8.35-5.6-10.35-6.8c0.434,0.633,1.15,1.467,2.15,2.5c1.034,1.066,1.75,1.883,2.15,2.45
			c0.367,0.534,0.783,1.317,1.25,2.35c0.466,1.033,0.867,1.817,1.2,2.35c-1.433-0.233-3.1-0.867-5-1.9
			c-0.633-0.333-2.15-1.25-4.55-2.75c-1.1-0.633-2.333-1.5-3.7-2.6c-1.5-1.267-2.633-2.2-3.4-2.8c-0.633-0.5-1.5-1.017-2.6-1.55
			c-1.167-0.533-2-0.983-2.5-1.35c-0.533-0.4-1.35-1.283-2.45-2.65c-0.867-1.033-1.8-1.733-2.8-2.1c-2.833-2-5.267-3.6-7.3-4.8
			c-3.934-2.333-5.467-2.167-4.6,0.5c0.467,1.033,1.183,2.033,2.15,3c0.6,0.533,1.533,1.333,2.8,2.4
			c0.733,0.633,1.65,1.684,2.75,3.15c1.07,1.448,1.945,2.481,2.625,3.1c-1.133-0.978-3.309-2.078-6.525-3.3
			c-3.3-1.267-5.617-2.517-6.95-3.75c-3.1-3.2-5.467-5.567-7.1-7.1c-3-2.833-4.4-3.4-4.2-1.7c0.833,2.733,2.567,5.5,5.2,8.3
			c1.467,1.566,4.15,3.967,8.05,7.2c3.667,3.034,6.284,5.45,7.85,7.25c2.5,2.8,4.05,5.633,4.65,8.5
			c-5.833,1.067-10.716,1.2-14.65,0.4c-2.2-0.467-5.967-2.883-11.3-7.25c-4.967-4.067-10.1-8.85-15.4-14.35
			c-5.5-5.733-9.7-10.684-12.6-14.85c-3.233-4.733-4.167-7.633-2.8-8.7c-0.2-0.966-0.683-2.283-1.45-3.95
			c-0.867-1.8-1.417-3.117-1.65-3.95c1.6-0.033,3.816,0.934,6.65,2.9c2.667,1.867,4.783,2.65,6.35,2.35
			c-3.1-4.7-6.217-8.417-9.35-11.15c-0.667-0.567-2.917-1.917-6.75-4.05c-4.033-2.267-6.05-3.2-6.05-2.8c0,0.333-0.083,0.8-0.25,1.4
			c-0.167,0.633-0.25,1.017-0.25,1.15c-4.566-5.167-8.283-11.017-11.15-17.55c-2.8-6.333-4.667-13.033-5.6-20.1
			c-0.167-1.333-0.483-4.716-0.95-10.15c-0.8-4.733-2.367-7.033-4.7-6.9c-1.833,7.867-2.783,11.983-2.85,12.35
			c-0.8,4.467-1,8.65-0.6,12.55c0.533,5.2,0.633,9.417,0.3,12.65c-0.433,4.3-1.65,8.267-3.65,11.9c-1.367,2.233-2.367,3.933-3,5.1
			c-1.067,2-1.583,3.817-1.55,5.45c0.034,1.2,0.633,3.017,1.8,5.45c1.167,2.4,1.733,4.233,1.7,5.5c-0.033,1.667-0.566,3.25-1.6,4.75
			c-1.4,1.733-2.5,3.167-3.3,4.3c-1.833,2.567-3.2,5.05-4.1,7.45c-0.966,2.633-1.483,5.45-1.55,8.45c0,0.367,0.167,1.783,0.5,4.25
			c0.233,1.833,0.15,3.2-0.25,4.1c-0.433,0.9-1,1.5-1.7,1.8c-0.833,0.4-1.417,0.817-1.75,1.25c-1.367,1.733-2.183,3.617-2.45,5.65
			c-0.167,2.533-0.467,4.7-0.9,6.5c-4.934-1.367-7.534-6.117-7.8-14.25c0-0.2,0.05-3.55,0.15-10.05
			c0.067-3.867-0.183-6.733-0.75-8.6c-0.733,0.633-1.3,1.15-1.7,1.55c-0.767,0.7-1.317,1.333-1.65,1.9
			c-0.133-1.767,0.167-3.8,0.9-6.1c0.433-1.3,1.117-3.25,2.05-5.85c1.333-8.733,1.217-12.283-0.35-10.65c-3.367,3.5-5.9,6.7-7.6,9.6
			c-0.8,1.4-2.1,3.333-3.9,5.8c-1.867,2.6-3.183,4.534-3.95,5.8c-0.9,1.533-1.817,3.8-2.75,6.8c-1.033,3.233-1.883,5.517-2.55,6.85
			c-0.533,1.033-1.65,2.55-3.35,4.55c-1.6,1.867-2.65,3.4-3.15,4.6c-0.533,1.233-0.667,3.017-0.4,5.35
			c0.267,2.4,0.217,4.133-0.15,5.2c-0.933,2.733-3.817,5.483-8.65,8.25c-5.6,3.233-9,5.633-10.2,7.2
			c-0.7-0.733-1.117-1.816-1.25-3.25c-0.066-0.833-0.15-2.066-0.25-3.7c-0.133-0.934-0.75-2.684-1.85-5.25
			c-1-2.3-1.483-3.983-1.45-5.05c0.066-2.533,1.283-5.65,3.65-9.35c3.033-4.8,4.767-7.767,5.2-8.9c0.867-2.2,2.417-5.933,4.65-11.2
			c1.033-3.333-0.617-2.6-4.95,2.2c-2.633,2.9-6.517,7.25-11.65,13.05c-5.167,5.833-9.033,10.167-11.6,13
			c-1.367,1.5-2.9,3.75-4.6,6.75c-1.833,3.3-3.233,5.55-4.2,6.75c-1.133,1.367-2.7,2.05-4.7,2.05c-2.433-0.233-4.316-0.3-5.65-0.2
			c-1.967,0.133-3.367,0.667-4.2,1.6c-0.867,1.333-1.816,2.417-2.85,3.25c-0.7,0.567-1.934,0.917-3.7,1.05
			C7.15-26.2,5.6-26.1,4.6-26c-3.7,0.433-5.15,2.3-4.35,5.6c0.367,1.566,2.217,3.283,5.55,5.15c1.767,1.033,4.15,2.4,7.15,4.1
			c2.133,1.633,3.9,2.767,5.3,3.4c1.9,0.833,3.95,1.167,6.15,1c3.767-0.3,7.967-0.233,12.6,0.2C37.9-6.483,42.1-5.967,49.6-5
			c16.733,2.167,34.7,3.633,53.9,4.4c16.233,0.633,34.25,0.783,54.05,0.45c20.8-0.333,38.583-1.283,53.35-2.85
			c19.367-2.033,36.833-5.367,52.4-10c10-3,21.284-7.5,33.85-13.5c0.467-0.233,3.117-1.683,7.95-4.35
			c3.267-1.8,5.983-3.033,8.15-3.7l0.25-0.1c0.8-0.233,2.583-0.4,5.35-0.5c2.4-0.3,3.7-1.184,3.9-2.65
			c0.067-0.434-0.15-0.867-0.65-1.3c-0.667-0.5-1.133-0.883-1.4-1.15l-0.65,0.6c-0.066-0.133-0.283-0.383-0.65-0.75
			c-0.333-0.333-0.533-0.583-0.6-0.75c-0.2,0.633-0.3,1.1-0.3,1.4c-1.067-0.4-1.817-0.75-2.25-1.05c-0.033,0.066-0.033,0.15,0,0.25
			c0.01,0.029,0.018,0.054,0.025,0.075c-0.719-0.306-1.627-0.797-2.725-1.475c0.4,0.733,0.95,1.483,1.65,2.25
			c-0.4-0.2-1.117-0.7-2.15-1.5c-0.9-0.633-1.65-1.066-2.25-1.3c0.067,0.067,0.25,0.45,0.55,1.15c-1.733,0.2-3.3,0.067-4.7-0.4
			c-0.566-0.167-2.017-0.833-4.35-2C298.6-45.583,295.867-46.967,294.1-47.9z"/>
	</g>
</symbol>
<symbol  id="flash0.ai_x2F_Layer_1_x2F__x3C_Path_x3E__x5F_0" viewBox="0 -144.52 322.835 144.52">
	<g id="Layer_1_3_">
		<path style="fill-rule:evenodd;clip-rule:evenodd;fill:#474D40;" d="M304.2-22.65c-1.034-1.4-1.65-2.667-1.85-3.8
			c1.2,0.1,2.8,0.85,4.8,2.25c1.033,0.733,2.483,1.9,4.35,3.5c0.767,0.633,1.933,1.75,3.5,3.35c1.5,1.434,2.667,2.5,3.5,3.2
			c0.533,0.433,1.217,0.8,2.05,1.1c0.467,0.167,1.2,0.433,2.2,0.8c0.4-1.3-0.617-3.333-3.05-6.1c-2.833-2.867-4.583-4.633-5.25-5.3
			c-2.067-2.067-4.717-4.117-7.95-6.15c-0.933-0.567-3.867-2.217-8.8-4.95c-2.9-1.6-7.067-2.867-12.5-3.8
			c-6.767-1.2-11.083-2.1-12.95-2.7c-1.367-0.467-3.017-1.217-4.95-2.25c-2.433-1.333-4.017-2.167-4.75-2.5
			c-1.7-0.733-3.917-1.95-6.65-3.65c-3.033-1.867-5.2-3.117-6.5-3.75c-4.3-2.233-9.533-4.2-15.7-5.9
			c-6.333-1.034-11.267-1.917-14.8-2.65c-6.467-1.367-10.867-3.5-13.2-6.4l-0.55-0.7c-0.967-1.5-2.033-3.883-3.2-7.15
			c-1.167-3.367-2.2-5.767-3.1-7.2c-1.767-2.867-4.117-5.7-7.05-8.5c-2.1-2.033-4.917-4.4-8.45-7.1
			c-9.533-7.267-16.684-13.933-21.45-20c-2.167-2.733-3.617-4.633-4.35-5.7c-1.5-2.3-2.517-4.45-3.05-6.45
			c-0.133-0.5-0.35-1.95-0.65-4.35c-0.233-1.8-0.633-3.2-1.2-4.2c-2.133-3.9-5.133-5.433-9-4.6c-3.566,0.767-6.267,2.966-8.1,6.6
			c-1.833,3.7-4.483,8.184-7.95,13.45c-5.4,8.133-8.267,12.483-8.6,13.05c-2.2,3.567-5.267,6.667-9.2,9.3
			c-1.2,0.8-5.033,2.95-11.5,6.45c-3.867,2.1-7.167,4.9-9.9,8.4c-1.5,1.966-3.783,5.65-6.85,11.05c-1.333,2.367-3.55,4.933-6.65,7.7
			c-4,3.566-6.467,5.9-7.4,7c-2.267,2.9-3.967,5.033-5.1,6.4c-2.033,2.433-4.05,4.233-6.05,5.4c-1.934,1.1-4.267,2.75-7,4.95
			c-3.867,3.066-6.15,4.85-6.85,5.35c-0.933,0.667-2.117,1.267-3.55,1.8c-1.633,0.566-2.883,1.033-3.75,1.4
			c-1.934,0.8-3.6,2.05-5,3.75c-1.5,2.067-2.75,3.667-3.75,4.8s-2.4,2.184-4.2,3.15c-2.133,1.066-3.717,1.883-4.75,2.45
			c-1.1,0.567-2.583,1.6-4.45,3.1c-1.933,1.567-3.4,2.633-4.4,3.2C6.417-14.317,4.5-12.067,2.9-8.8C1.667-6.3,0.7-3.367,0,0
			c1.533-0.8,3.017-2.683,4.45-5.65c1.767-3.633,3-5.833,3.7-6.6c1.434-1.6,3.367-2.8,5.8-3.6c3.033-1,5.483-1.6,7.35-1.8
			c0.767-0.067,2.067-0.083,3.9-0.05c1.633-0.1,2.85-0.517,3.65-1.25c0.733-0.667,1.6-1.966,2.6-3.9
			c1.066-2.033,1.95-3.417,2.65-4.15c0.566-0.633,1.7-1.733,3.4-3.3c1.5-1.4,2.6-2.534,3.3-3.4c0.667-0.867,1.5-1.95,2.5-3.25
			c0.867-1,1.983-1.783,3.35-2.35c3.333-1.4,6-2.767,8-4.1c3.3-2.133,5.667-3.917,7.1-5.35c0.9-0.9,2.4-1.95,4.5-3.15
			c2.167-1.233,3.65-2.25,4.45-3.05c0.566-0.533,1.566-1.816,3-3.85c1.066-1.467,2.283-2.583,3.65-3.35
			c2.133-1.167,3.883-2.283,5.25-3.35c1.167-0.9,2.117-1.967,2.85-3.2c0.433-0.7,1.133-1.867,2.1-3.5c1.2,0.667,2.034,1.833,2.5,3.5
			c0.434,1.567,0.417,3.034-0.05,4.4c-0.933,1.7-1.567,2.983-1.9,3.85c-0.633,1.567,0.017,1.767,1.95,0.6
			c0.434-0.233,0.9-0.75,1.4-1.55c0.6-0.934,1.017-1.517,1.25-1.75c0.333-0.333,0.9-0.733,1.7-1.2c0.8-0.5,1.367-0.9,1.7-1.2
			c0.7-0.667,1.417-1.684,2.15-3.05c0.9-1.733,1.5-2.816,1.8-3.25c0.934-1.333,2.8-2.867,5.6-4.6c2.633-1.633,4.383-3.25,5.25-4.85
			c0.434-0.767,0.833-1.85,1.2-3.25c0.433-1.567,0.783-2.65,1.05-3.25c0.434-1.034,1.167-2.017,2.2-2.95
			c0.633-0.533,1.667-1.25,3.1-2.15c0.2-0.133,1.167-0.9,2.9-2.3c1.566-1.267,2.433-1.917,2.6-1.95c0.6-0.067,0.933,0.683,1,2.25
			c0,1.833,0.017,3.033,0.05,3.6c1.267-1.733,2.533-3.833,3.8-6.3c0.733-1.367,1.8-3.566,3.2-6.6
			c1.467-3.167,2.483-7.316,3.05-12.45c0.9-8.067,1.4-12.35,1.5-12.85c0.4-2.3,1.017-4.217,1.85-5.75
			c1.233-2.333,2.75-3.267,4.55-2.8c2.2,0.6,3.883,3.083,5.05,7.45c0.967,4.9,1.683,8.017,2.15,9.35c0.367,1.067,1.15,2.7,2.35,4.9
			c1.1,2.1,1.833,3.75,2.2,4.95c0.5,2.233,0.883,3.867,1.15,4.9c0.433,1.867,1.05,3.467,1.85,4.8c1.433,2.367,2.55,4.05,3.35,5.05
			c1.833,2.333,3.317,3.367,4.45,3.1c-0.1-0.567-0.483-1.85-1.15-3.85c-0.4-1.867-0.233-3.05,0.5-3.55
			c0.533-0.367,1.583-0.267,3.15,0.3c0.033,0,1.1,0.45,3.2,1.35c1.633,0.667,3.15,1.833,4.55,3.5c0.767,0.966,1.967,2.517,3.6,4.65
			c2.867,3.233,5.167,6.933,6.9,11.1c0.7,1.767,1.783,4.083,3.25,6.95c1.733,3.434,2.867,5.75,3.4,6.95
			c1.467,3.267,4.283,6.15,8.45,8.65l10.5,6.25c0.8,0.6,2.066,1.6,3.8,3c1.533,1.167,2.883,2.067,4.05,2.7
			c-0.167-0.567-0.8-1.434-1.9-2.6c-0.933-1.033-1.4-1.95-1.4-2.75c0.167-0.067,0.983-0.5,2.45-1.3c0.8-0.466,1.75-0.617,2.85-0.45
			c0.733,0.1,1.833,0.433,3.3,1c1.4,0.533,2.483,0.833,3.25,0.9c-0.233-0.633-0.417-1.05-0.55-1.25c2.167-0.833,4.716-0.8,7.65,0.1
			c0.933,0.267,3.316,1.25,7.15,2.95c0.933,0.434,2.267,0.867,4,1.3c1.933,0.5,3.283,0.9,4.05,1.2c1,0.4,1.967,1.017,2.9,1.85
			c0.566,0.5,1.417,1.317,2.55,2.45c2.467,2.233,3.767,3.4,3.9,3.5c1.504,1.308,2.863,2.375,4.075,3.2
			c-0.719-0.524-1.627-1.674-2.725-3.45c-1.167-1.8-1.833-3.15-2-4.05c1,0.133,2.083,0.583,3.25,1.35c0.667,0.4,1.633,1.067,2.9,2
			c0.6,0.367,1.517,0.8,2.75,1.3c1.267,0.5,2.184,0.933,2.75,1.3c0.733,0.467,1.717,1.133,2.95,2c1.133,0.733,2.217,1.283,3.25,1.65
			c1.5,0.533,2.417,0.883,2.75,1.05c0.967,0.4,1.816,0.9,2.55,1.5c0.4,0.333,1.1,1.15,2.1,2.45c0.967,1.033,1.733,1.283,2.3,0.75
			c1.3,0.833,3.217,2.367,5.75,4.6c2.367,2.1,4.317,3.6,5.85,4.5c3.567,2.033,6.317,3.333,8.25,3.9c2.1,0.667,2.917,0.4,2.45-0.8
			c-0.267-0.7-1.05-1.967-2.35-3.8C305.617-20.7,304.767-21.85,304.2-22.65z"/>
	</g>
</symbol>
<g>
	
		<linearGradient id="SVGID_4_" gradientUnits="userSpaceOnUse" x1="-264.3926" y1="90.7705" x2="-119.7236" y2="90.7705" gradientTransform="matrix(-0.1141 -0.9935 0.9935 -0.1141 1.788288e-004 -9.683892e-004)">
		<stop  offset="0.0078" style="stop-color:#27545B"/>
		<stop  offset="0.3333" style="stop-color:#8DBCA6"/>
		<stop  offset="1" style="stop-color:#B6DCCC"/>
	</linearGradient>
	<path style="fill-rule:evenodd;clip-rule:evenodd;fill:url(#SVGID_4_);" d="M166.95,166.2c-3.567,0.2-9.1,0.867-16.6,2
		c-7.133,1.033-12.633,1.633-16.5,1.8c-1.9,0.067-8.6,0.733-20.1,2c-8.233,0.867-14.933,0.983-20.1,0.35
		c-8.233-1.067-17.066-0.117-26.5,2.85c-3.133,1.066-5.767,2.05-7.9,2.95c-4.267,2.033-7.517,3.55-9.75,4.55
		c-4,1.8-7.367,2.95-10.1,3.45c0.967-1.6,2.417-3.267,4.35-5c0.733-0.667,2.467-2.083,5.2-4.25c1.333-1.033,2.75-2.417,4.25-4.15
		c2.1-2.467,3.383-3.933,3.85-4.4c1.6-1.633,2.867-2.483,3.8-2.55c0.667-0.066,2.183,0.05,4.55,0.35
		c5.867,0.133,11.967-4.183,18.3-12.95c3.3-4.8,5.8-8.267,7.5-10.4c2.9-3.7,5.633-6.233,8.2-7.6c3.4-1.8,6.783-1.55,10.15,0.75
		c2.067,1.433,4.9,4.433,8.5,9c3.667,4.633,6.45,7.633,8.35,9c3.233,2.367,6.45,2.683,9.65,0.95c1.5-0.8,3.15-1.717,4.95-2.75
		c1.433-0.433,3.3-0.05,5.6,1.15c0.8,0.434,2.833,2.1,6.1,5c2.566,2.267,4.767,3.467,6.6,3.6c0.867,0.067,1.75-0.2,2.65-0.8
		c1-0.7,1.767-1.083,2.3-1.15c1.133-0.133,2-0.133,2.6,0c0.4,0.1,1.233,0.333,2.5,0.7c1.467,0.3,3.917,0.783,7.35,1.45
		c3,0.7,5.3,1.533,6.9,2.5c-1.867,0.867-4.567,1.367-8.1,1.5C171.5,166.1,168.65,166.133,166.95,166.2z"/>
	<g>
		
			<linearGradient id="SVGID_5_" gradientUnits="userSpaceOnUse" x1="-585.9668" y1="171.6797" x2="101.9681" y2="171.6797" gradientTransform="matrix(-0.114 -0.9935 0.9935 -0.114 1.447797e-004 1.658425e-004)">
			<stop  offset="0.0078" style="stop-color:#27545B"/>
			<stop  offset="0.3333" style="stop-color:#8DBCA6"/>
			<stop  offset="1" style="stop-color:#B6DCCC"/>
		</linearGradient>
		<path style="fill-rule:evenodd;clip-rule:evenodd;fill:url(#SVGID_5_);" d="M155.8,51.75l-0.35,2.4l1-0.85L155.8,51.75z
			 M146.5,48.35l-0.35-1l-0.3,0.5c-0.167,0.833-0.25,1.333-0.25,1.5l-0.4-0.5c-0.8,1.133-1.8,2.417-3,3.85
			c-1.067,1.267-1.684,1.983-1.85,2.15c-2.8,3.3-4.6,6.066-5.4,8.3c-1.3,3.567-0.617,6.467,2.05,8.7
			c-0.167-1.8,1.117-4.117,3.85-6.95c1.633-1.667,3.867-3.467,6.7-5.4c1.567-1.033,3.767-2.5,6.6-4.4l-0.55-5.65
			c-0.1,0.367-0.417,1.083-0.95,2.15c-0.433-1.133-0.533-2.233-0.3-3.3c-0.2,0.733-0.4,1.95-0.6,3.65c0.067-1.7-0.167-3.233-0.7-4.6
			c-0.5,2.3-0.833,4.183-1,5.65c-0.367-1.667-0.683-2.933-0.95-3.8c-0.434-1.6-1.017-2.75-1.75-3.45
			c-0.033,0.233-0.184,0.65-0.45,1.25C146.667,47.567,146.533,48.017,146.5,48.35z M141.225,41.425
			c0.023,0.727-0.235,1.585-0.775,2.575c-0.534,0.967-1.117,1.75-1.75,2.35c-0.034-1.067,0-1.867,0.1-2.4
			c-0.2,0.566-0.6,1.367-1.2,2.4c0.167-0.833,0.25-1.833,0.25-3c-1.434,0.6-2.867,1.933-4.3,4c-0.933,1.733-2.1,3.65-3.5,5.75
			c-1.8,2.667-2.783,5.3-2.95,7.9c-0.167,2.2,0.233,4.25,1.2,6.15c0.067-1.433,0.317-2.733,0.75-3.9
			c0.967-2.6,3.317-5.383,7.05-8.35c4.467-3.533,7.217-6.017,8.25-7.45c-0.633-1.233-1-2.45-1.1-3.65
			c-0.233,1.1-0.75,2.75-1.55,4.95c0.066-0.967,0.017-2.233-0.15-3.8C141.378,43.178,141.27,42.003,141.225,41.425z M198.75,60
			c-0.333,1.467-0.616,2.55-0.85,3.25c0.133-1.633-0.051-3.633-0.551-6l-0.5,0.65c0.134,4.8-0.033,8.7-0.5,11.7
			c-0.361,2.302-1.245,5.835-2.649,10.6c0.17-0.413,0.652-1.046,1.45-1.9c1.199-1.367,1.816-2.066,1.85-2.1
			c0.434-0.6,1.366-1.767,2.8-3.5c1.267-1.5,2.167-2.684,2.7-3.55c2-3.333,3.417-6.967,4.25-10.9l-0.55,1.05
			c-0.284-1.074-0.276-2.182,0.024-3.325c-0.346,1.193-0.805,2.201-1.375,3.025c-0.3-1.7-0.383-3.167-0.25-4.4
			c-0.3,1.033-0.85,2.233-1.649,3.6c-0.934,1.533-1.617,2.667-2.05,3.4c-0.267-1.1-0.233-2.25,0.1-3.45
			c-0.066,0.133-0.233,0.434-0.5,0.9c-0.233,0.4-0.4,0.75-0.5,1.05c-0.4-1-0.533-2.1-0.4-3.3
			C199.333,57.467,199.05,58.533,198.75,60z M193.45,58.75c0.233,0.667,0.316,1.667,0.25,3c-0.467-1.467-0.9-2.567-1.3-3.3
			c-0.534,1.566-0.851,2.85-0.95,3.85c-0.2-0.6-0.334-1.083-0.4-1.45l-0.8,3.55c0.1-1.033,0.1-2.083,0-3.15
			c-0.1-0.667-0.184-1.05-0.25-1.15c-0.467,1.367-0.934,3.25-1.4,5.65c-0.533,3.033-0.899,4.933-1.1,5.7
			c0.566-2.7,0.717-5.784,0.45-9.25c-0.434,0.6-0.7,1.216-0.8,1.85l0.05-1.45c-0.8,0.767-1.434,1.8-1.9,3.1
			c-0.133-0.833-0.184-1.45-0.149-1.85c-0.734,1.2-1.317,2.6-1.75,4.2l-0.2-1.45c-0.1-0.567-0.133-1.083-0.1-1.55
			c-0.667,0.833-1.267,1.85-1.8,3.05c-0.533,1.167-0.85,2.167-0.95,3c-0.267-1.033-0.434-2.434-0.5-4.2
			c-0.833,3.2-1.267,5.817-1.3,7.85c-0.678-3.068-0.995-5.334-0.95-6.8c-0.108,1.826-0.325,4.542-0.65,8.15
			c-0.267,3.333-0.333,6.1-0.2,8.3c-0.367-1.867-0.7-4.75-1-8.65c-0.267-3.833-0.6-6.717-1-8.65c0.167,0.933,0.2,2.15,0.1,3.65
			c-0.033,0.867-0.117,2.117-0.25,3.75c-1.3-5.102-1.917-8.776-1.85-11.025l-0.3,5.325c-1.067-2.5-1.7-5.2-1.9-8.1l-0.35,0.5
			c-0.133-0.867-0.184-1.534-0.15-2c-1,1.633-1.617,3.3-1.85,5c-0.367-1.1-0.6-2.2-0.7-3.3c-0.767,1.533-1.25,3.517-1.45,5.95
			c-0.133,1.367-0.233,3.433-0.3,6.2c-0.367-1.8-0.633-4.117-0.8-6.95c-0.233-3.267-0.267-6.4-0.1-9.4c-0.4,0.066-0.8,1.75-1.2,5.05
			c-0.333,2.767-0.5,4.817-0.5,6.15c-0.3-2.333-0.533-4.1-0.7-5.3c-0.267-2.1-0.6-3.833-1-5.2c0,0.7-0.067,1.733-0.2,3.1
			c-0.591-2.168-1.3-3.868-2.125-5.1c0.328,0.523,0.187,1.573-0.425,3.15c-0.667-0.8-1.217-1.933-1.65-3.4
			c-0.5,0.633-1.2,1.367-2.1,2.2l-0.25,0.95l-0.1-0.65c-1.133,1-2.15,1.817-3.05,2.45c-4.5,3.2-7.283,5.717-8.35,7.55
			c-1.667,2.9-0.55,5.533,3.35,7.9c5.034,1.034,8.383,1.934,10.05,2.7c3.333,1.6,5.4,4.167,6.2,7.7
			c0.567,2.466,0.667,6.517,0.3,12.15c-0.333,5.333-0.117,9.316,0.65,11.95c1.5,5.167,5.517,6.833,12.05,5
			c2.2-0.6,4.833-1.667,7.9-3.2c1.666-0.8,3.767-1.867,6.3-3.2c3.733-1.8,6.616-3.133,8.65-4c-2.7-0.333-4.983-1.267-6.851-2.8
			c-2.066-1.633-3.333-3.767-3.8-6.4c-0.667-3.833,0.066-8.583,2.2-14.25c2.633-7,4.083-11.633,4.35-13.9
			c0.367-3.433,0.4-6.2,0.101-8.3l-0.551,1.15L193.45,58.75z M249.95,61.3c-0.521-0.717-0.88-1.259-1.075-1.625
			c0.134,0.268,0.459,1.176,0.975,2.725l-0.85-1c0.267,0.7,0.384,1.55,0.35,2.55c0,0.6-0.05,1.483-0.149,2.65
			c-0.467-1-0.717-2-0.75-3c-0.167,1.5-0.667,3.433-1.5,5.8c-0.967,2.733-1.566,4.633-1.8,5.7c0-0.9,0.25-2.45,0.75-4.65
			c0.433-1.934,0.583-3.517,0.449-4.75c-0.233,1.333-0.75,2.683-1.55,4.05l-0.05-3.9c-0.366,1.4-1.2,2.65-2.5,3.75
			c-0.323-0.382-0.373-0.798-0.15-1.25c-1.372,2.483-2.172,4.049-2.399,4.7c-0.066-1.633,0.25-3.083,0.95-4.35
			c-1.134,1.4-1.95,2.517-2.45,3.35c-0.834,1.4-1.367,2.733-1.601,4c-0.699-1.933-0.949-3.55-0.75-4.85
			c-0.733,3.5-1.149,5.433-1.25,5.8c0.034-0.7-0.066-1.583-0.3-2.65c-0.333-1.533-0.517-2.4-0.55-2.6c0,1.067-0.384,2.683-1.15,4.85
			c-0.8,2.267-1.233,4.867-1.3,7.8c-0.3-4.333-0.133-7.717,0.5-10.15c-0.3,0.667-0.816,2.167-1.55,4.5
			c0.066-1.667,0.116-2.917,0.15-3.75c0.1-1.467,0.267-2.683,0.5-3.65c-0.233,0.533-0.65,1.283-1.25,2.25
			c0.033-1.167,0.083-2.033,0.149-2.6c-0.434,1.2-1.383,3.5-2.85,6.9c0.066-1.033,0.083-2.383,0.05-4.05
			c-0.066-2.033-0.1-3.383-0.1-4.05c-0.7,1.067-1.117,2.133-1.25,3.2c-0.301-0.567-0.551-1.017-0.75-1.35
			c-0.301-0.566-0.5-1.017-0.601-1.35c-0.233,0.6-0.434,1.35-0.6,2.25c-0.101,0.534-0.233,1.317-0.4,2.35
			c-0.2-0.633-0.45-1.8-0.75-3.5c-0.267-1.566-0.55-2.783-0.85-3.65c-0.066,0.567-0.334,1.467-0.8,2.7
			c-0.301-0.8-0.617-2.1-0.95-3.9c-0.101,0.467-0.334,1.233-0.7,2.3c-0.1-0.434-0.316-0.967-0.65-1.6
			c-0.399-0.833-0.633-1.333-0.699-1.5c-1.536,3.871-2.336,7.446-2.4,10.725c-0.026-4.244-0.442-7.819-1.25-10.725
			c-0.2,0.667-0.366,1.617-0.5,2.85c-0.134,1.333-0.283,2.283-0.45,2.85c-0.533-4.067-0.899-7.1-1.1-9.1
			c-0.367,1.667-0.566,2.733-0.601,3.2c-0.1-0.433-0.267-1.417-0.5-2.95c-0.166-1.233-0.399-2.184-0.699-2.85
			c-0.067,1.433-0.134,2.4-0.2,2.9c-0.134,1.067-0.384,1.934-0.75,2.6c-0.033-1.067-0.184-2.3-0.45-3.7
			c-0.366-1.633-0.634-2.867-0.8-3.7c-0.601,3.833-1.7,7.45-3.3,10.85c-1.634,3.5-4.567,8.65-8.801,15.45
			c-2.866,5.567-2.966,9.5-0.3,11.8c2.566,2.233,7.517,3.716,14.851,4.45c12.666-3.667,24.383-3.683,35.149-0.05
			c9.4,3.167,17.65,10.05,24.75,20.65c6.334,9.5,10.367,19.667,12.101,30.5c0.966,6.033,1.483,13.85,1.55,23.45
			c0.1,12.267,0.267,20.066,0.5,23.399c-11.834-4.233-25.55-6.616-41.15-7.149c-4.166-0.134-18.1,0.133-41.8,0.8
			c1.533-2.8,3.767-6.367,6.7-10.7c4.666-6.9,7.116-10.55,7.35-10.95c5.8-8.934,9.351-16.633,10.65-23.1
			c2.633-13.267-1-20.567-10.9-21.9c-5.3-0.7-14.783,0.8-28.45,4.5c-9,2.433-15.466,3.483-19.399,3.15
			c-6.667-0.467-11.617-3.083-14.85-7.85c-3.2-4.767-4.217-10.933-3.05-18.5c0.9-4.066,1.5-7.267,1.8-9.6
			c0.533-4.233,0.183-7.3-1.05-9.2c-0.9-1.434-2.35-2.633-4.35-3.6c-0.967-0.467-2.883-1.183-5.75-2.15
			c-4.367-1.267-8.083-3.383-11.15-6.35c-3.3-3.167-5.066-6.683-5.3-10.55c-0.233-4.333,1.517-8.833,5.25-13.5
			c1.933-2.467,3.4-4.617,4.4-6.45l0.15-0.8c-1.3,1.6-2.3,2.783-3,3.55l0.9-1.95c-1.1,1.434-1.95,2.467-2.55,3.1
			c0.1-1.066,0.2-1.833,0.3-2.3c-1.967,2.4-3.684,5.533-5.15,9.4c0-0.8,0.1-1.967,0.3-3.5c0.233-1.567,0.333-2.7,0.3-3.4
			c-1.2,1.9-1.883,4.767-2.05,8.6c-0.267,4.867-0.65,8.233-1.15,10.1c0.267-2.167,0.333-4.917,0.2-8.25
			c-0.233-3.767-0.4-6.517-0.5-8.25c-0.733,1.333-1.267,3.45-1.6,6.35c-0.175,1.4-0.35,3.309-0.525,5.725
			c0.109-2.755,0.134-4.947,0.075-6.575c-0.167-3.066-0.684-5.483-1.55-7.25c-0.433,0.9-0.933,2.617-1.5,5.15
			c-0.066-1.1-0.133-1.8-0.2-2.1c-0.133-0.733-0.4-1.383-0.8-1.95c0.034,0.033-0.066,0.2-0.3,0.5c-0.2,0.233-0.35,0.383-0.45,0.45
			c-0.4-0.8-0.783-1.133-1.15-1c-0.467,0.3-0.883,0.433-1.25,0.4c-0.167,0.633-0.533,1.55-1.1,2.75c-0.1-1.5-0.133-2.383-0.1-2.65
			c-0.167,0.633-0.467,1.6-0.9,2.9c-0.333,1.133-0.483,2.15-0.45,3.05c-0.133-1.667-0.233-2.9-0.3-3.7
			c-0.4,0.566-0.75,1.367-1.05,2.4c-0.167,0.533-0.4,1.317-0.7,2.35c0-1.6,0.034-2.783,0.1-3.55c-1,2.233-1.6,4.233-1.8,6
			c0-3.233,0.017-5.033,0.05-5.4c-0.867,2.833-1.367,6.684-1.5,11.55c-0.233,7.133-0.383,11.083-0.45,11.85
			c-0.267-2.233-0.4-5.966-0.4-11.2c0-4.9-0.2-8.633-0.6-11.2c-0.6,1.167-1.017,2.583-1.25,4.25c-0.133,0.967-0.233,2.45-0.3,4.45
			c-0.367-1.467-0.55-3.167-0.55-5.1c-0.032-0.614,0.009-2.247,0.125-4.9c-0.071,0.981-0.379,3.048-0.925,6.2
			c-0.466,2.833-0.6,5.1-0.4,6.8c-1.133-6.6-1.467-11.617-1-15.05c-0.167,0.5-0.333,1.25-0.5,2.25
			c-0.167,1.067-0.316,1.817-0.45,2.25c-0.233-1.2-0.417-3.05-0.55-5.55l-0.3,1.1c-0.467-0.8-0.733-1.467-0.8-2l-0.9,0.85
			c-0.4-0.633-0.65-1.133-0.75-1.5v2.05c-0.7-0.633-1.283-1.483-1.75-2.55c-0.467-1.067-0.733-2.083-0.8-3.05l-0.15,1.7
			c-0.767-1.1-1.383-2.733-1.85-4.9c0,0.466-0.05,1.233-0.15,2.3c-0.333-0.5-0.583-1.15-0.75-1.95c0-0.033-0.133-0.733-0.4-2.1
			L88,43.45c-0.3-1.2-0.45-2.467-0.45-3.8c-0.033,0.633-0.066,1.583-0.1,2.85c-0.067,1.1-0.2,2-0.4,2.7
			c-0.8-1.333-1.167-3.117-1.1-5.35c0.233-2.533,0.4-4.367,0.5-5.5c-0.333,0.833-0.6,1.967-0.8,3.4c-0.3,1.7-0.517,2.833-0.65,3.4
			c-0.467-3.066-0.367-6.25,0.3-9.55c0.267-1.267,0.567-2.367,0.9-3.3c1.4-3.767,4.283-7.517,8.65-11.25
			c3.8-3.233,7.816-5.783,12.05-7.65c8.267-3.633,18.35-6,30.25-7.1c6.4-0.566,12.817-0.3,19.25,0.8
			c5.733,1,11.184,2.617,16.35,4.85c5.467,2.367,10.183,5.533,14.15,9.5c2.533,2.533,4.517,5.083,5.949,7.65
			c1.934-0.9,3.801-1.533,5.601-1.9c4.366-0.833,9.316-0.733,14.85,0.3c4.8,0.9,9.55,2.367,14.25,4.4
			c5.367,2.367,9.851,5.617,13.45,9.75c1.833,2.067,3.116,3.9,3.85,5.5C248.816,49.483,250.517,55.533,249.95,61.3z"/>
	</g>
	
		<linearGradient id="SVGID_6_" gradientUnits="userSpaceOnUse" x1="38.8755" y1="269.2207" x2="370.3525" y2="269.2207" gradientTransform="matrix(0.9973 0.0737 -0.0737 0.9973 -7.832795e-005 -7.466972e-005)">
		<stop  offset="0" style="stop-color:#BBD6C0"/>
		<stop  offset="0.2157" style="stop-color:#B1CDBC"/>
		<stop  offset="0.502" style="stop-color:#A9C5B8"/>
		<stop  offset="1" style="stop-color:#C2DAC6"/>
	</linearGradient>
	<path style="fill-rule:evenodd;clip-rule:evenodd;fill:url(#SVGID_6_);" d="M330.3,248.15c-3.6,1.033-7.066,3.033-10.399,6
		c-3.767,3.466-5.851,5.366-6.25,5.699c-2.534,2.067-4.917,3.551-7.15,4.45c-4.634,1.867-10.5,4.767-17.6,8.7
		c-8.9,4.9-14.767,8.033-17.601,9.4c-2.866,1.399-6.717,2.267-11.55,2.6c-3.866,0.267-7.85,0.184-11.95-0.25
		c-3.434-0.366-5.2-0.55-5.3-0.55c-1.434,0.033-3.083,0.533-4.95,1.5c-2.399,1.233-4.883,2.934-7.45,5.1
		c-2.699,2.3-4.783,4.5-6.25,6.601c-1.133,1.633-2.683,4.383-4.649,8.25c-1.9,3.699-3.533,6.483-4.9,8.35
		c-1.633,2.167-4.149,5.717-7.55,10.65c-3.233,4.166-6.467,6.966-9.7,8.399c-0.566,0.267-3.149,0.834-7.75,1.7
		c-2.566,0.5-4.517,1.983-5.85,4.45c-0.633,1.133-1.784,4.517-3.45,10.149c-1.867,6.4-3.367,10.983-4.5,13.75
		c-4.167,10.301-8.1,10.434-11.8,0.4c-0.4-1.066-1.55-6.45-3.45-16.15c-1.433-7.233-3.383-12.166-5.85-14.8
		c-1-1.066-2.933-2.366-5.8-3.899c-2.633-1.4-4.567-2.917-5.8-4.551c-2.533-3.666-4.417-6.35-5.65-8.05c-2.167-3-4.433-5.333-6.8-7
		c-2.7-1.934-4.533-3.383-5.5-4.35c-1.5-1.566-2.733-3.584-3.7-6.05c-1.066,1.199-2.167,2.75-3.3,4.649
		c-0.934,1.566-1.617,2.5-2.05,2.8c-1.167,0.801-3.7-0.883-7.6-5.05c-5.3-6.133-9.383-10.767-12.25-13.899
		c-5.167-5.567-9.85-9.483-14.05-11.75c-5.5-2.7-9.467-4.784-11.9-6.25c-4.1-2.5-7.5-5.517-10.2-9.051
		c-1.667-2.5-2.933-4.35-3.8-5.55c-1.533-2.1-3.183-3.533-4.95-4.3c-0.966-0.4-2.617-0.684-4.95-0.85
		c-2.167-0.167-3.817-0.551-4.95-1.15c-1.867-1.033-3.517-2.717-4.95-5.05c-0.633-1.066-1.684-3.233-3.15-6.5
		c-3-5.233-5.316-9.566-6.95-13c-3-6.4-3.667-10.8-2-13.2c2.533-3.566,9.117-5.417,19.75-5.55c5.7-0.066,12.933,0.267,21.7,1
		c3.534,0.1,8.8,0.267,15.8,0.5c6.2,0.2,11.45,0.2,15.75,0c2.7-0.101,7.133-0.634,13.3-1.601c5.6-0.899,10.017-1.333,13.25-1.3
		c4.033,0.066,10.067,0.316,18.1,0.75c6.967,0.066,12.833-0.833,17.6-2.7c11.333-4.399,24.333-6.216,39-5.449
		c5.101,0.267,10.834,1.683,17.2,4.25c3.566,1.433,9.084,3.666,16.55,6.699l1.051,0.351c6.633,2.166,15.85,3.649,27.649,4.45
		c13.566,0.966,22.851,1.983,27.851,3.05c6.199,1.333,14.517,3.783,24.949,7.35c11.767,4.033,20.034,6.667,24.801,7.9
		c0.733,0.2,3.483,0.633,8.25,1.3c3.533,0.533,6.017,1.25,7.449,2.15c-0.899,2.3-2.449,4.8-4.649,7.5c-1,1.199-3.017,3.399-6.05,6.6
		c-3.233,3.366-6.95,6.15-11.15,8.35c-1.833,1.167-3.033,1.867-3.6,2.101c-0.434,0.233-0.801,0.416-1.101,0.55
		c-0.5,0.2-0.8,0.167-0.899-0.1c-0.067-0.167,0.033-0.5,0.3-1c0.3-0.534,0.467-0.867,0.5-1c0.033-0.067,0.267-0.601,0.7-1.601
		c0.267-0.666,0.533-1.2,0.8-1.6c0.467-0.733,1.166-1.601,2.1-2.601c0.9-0.966,1.417-1.899,1.55-2.8
		c-0.366-0.2-0.683-0.283-0.949-0.25C331.417,247.833,330.967,247.95,330.3,248.15z"/>
	
		<use xlink:href="#flash0.ai_x2F_Layer_1_x2F__x3C_Clip_Group_0_x3E_"  width="330.893" height="178.79" x="0.057" y="-178.82" transform="matrix(1 0 0 -1 23.1499 195.9502)" style="overflow:visible;"/>
	
		<linearGradient id="SVGID_7_" gradientUnits="userSpaceOnUse" x1="159.4482" y1="-190.1753" x2="298.4509" y2="-190.1753" gradientTransform="matrix(-0.02 0.9998 -0.9998 -0.02 3.364272e-004 1.561102e-004)">
		<stop  offset="0" style="stop-color:#C3EAD6"/>
		<stop  offset="1" style="stop-color:#BDDAC2"/>
	</linearGradient>
	<path style="fill-rule:evenodd;clip-rule:evenodd;fill:url(#SVGID_7_);" d="M113.2,219.75c-0.367-0.434-0.883-1.15-1.55-2.15
		c0.233,0.434,0.533,1.301,0.9,2.601L113.2,219.75z M371.6,224.45v0.95c-0.066,0.767-0.267,1.916-0.6,3.449
		c-0.366,1.634-0.583,2.801-0.65,3.5c-0.066,0.767-0.116,2.017-0.149,3.75c-0.134,1.5-0.467,2.667-1,3.5l-0.05-0.85
		c-1.167,3.4-2.817,6.733-4.95,10c-2.233,3.467-4.634,6.283-7.2,8.45c1.767-3.767,3-6.55,3.7-8.351c1.166-3.1,1.934-6.05,2.3-8.85
		c-1.467,0.566-2.667,2.05-3.6,4.45c-0.534,1.3-1.267,3.2-2.2,5.7c0-2.2,0.017-3.851,0.05-4.95c0.066-1.867,0.25-3.483,0.55-4.851
		c-1.399,0.601-2.899,0.45-4.5-0.449c-1.733-1.2-3.066-1.967-4-2.301c-1.767-0.666-3.166-1.183-4.2-1.55
		c-1.899-0.666-3.283-1.066-4.149-1.2c-0.033,0-1.233,0.217-3.601,0.65c-2.066,0.366-3.066,0.35-3-0.05
		c-0.399,2.866-0.533,4.916-0.399,6.149c-1.733-3-3.117-5.25-4.15-6.75c-1.8-2.767-3.85-4.066-6.149-3.899
		c0.166,0.1,0.5,0.383,1,0.85c0.466,0.4,0.85,0.684,1.149,0.851c-4.633-2.467-10.55-4.817-17.75-7.051c0.233,1.167,0.9,2.301,2,3.4
		c0.934,0.9,2.033,1.667,3.3,2.3c-0.699-0.333-2.6-1.1-5.699-2.3c-2.334-0.934-4.233-1.833-5.7-2.7
		c-3.934-2.366-6.767-4.467-8.5-6.3c-0.967-1.1-1.667-1.85-2.101-2.25c-0.767-0.7-1.683-1.184-2.75-1.45h0.625
		c-0.592-0.014-2.184-0.147-4.774-0.399c-2-0.167-3.584-0.101-4.75,0.199c1.566,2.034,2.967,3.317,4.2,3.851
		c-0.934-0.167-2.684-0.7-5.25-1.601c-2.134-0.733-3.967-1.149-5.5-1.25c-1.634-0.1-6.317-0.583-14.051-1.449
		c-5.699-0.634-10.383-0.867-14.05-0.7c0.3,0.333,1.2,1.066,2.7,2.2c-1.667,0.066-3.616-0.167-5.85-0.7
		c-2.967-0.667-4.851-1.05-5.65-1.15c0.3,1.101,0.816,2.15,1.55,3.15c0.834,1.133,1.733,1.883,2.7,2.25
		c-1.95-0.041-3.9-0.474-5.85-1.3c-1.9-0.767-3.601-1.851-5.101-3.25c0,0.8,0.033,1.966,0.101,3.5c-0.767-0.4-1.601-1.367-2.5-2.9
		c-0.301,0.767-2.634,2.184-7,4.25c-4.267,2.033-6.75,2.983-7.45,2.85l0.3-0.3c-5.7,2.434-9.65,5.101-11.85,8
		c0.433-2.066,0.75-4.066,0.949-6c-0.666,0.601-2.25,2.316-4.75,5.15c-1.933,2.133-3.649,3.684-5.149,4.649
		c1.566-1.433,2.883-3.833,3.95-7.199c1.044-3.275,1.969-5.608,2.774-7c-1.271,1.856-3.13,3.589-5.575,5.199
		c-1.399,0.9-3.883,2.233-7.449,4c-3.5,1.4-6.25,2.517-8.25,3.351c-3.667,1.5-6.117,3-7.35,4.5c0.684-1.026,1.251-1.793,1.7-2.3
		c-5.919,3.403-10.636,5.47-14.15,6.199c2.066-1.466,3.667-2.883,4.8-4.25c1.434-1.699,2.417-3.616,2.95-5.75
		c-0.9,2.267-3.667,3.967-8.3,5.101c-4.966,1.233-8.066,2.767-9.3,4.6c-0.033-0.265,0-1.415,0.1-3.45
		c-0.026,0.304-0.326,0.854-0.9,1.65c-0.767,1-1.184,1.55-1.25,1.65c-0.267-1.801-0.517-2.95-0.75-3.45
		c-0.367-0.7-1.284-0.851-2.75-0.45c-1.267,0.333-2.75,1.167-4.45,2.5c-1.367,1.066-2.633,2.233-3.8,3.5
		c0.367-0.934,0.6-1.9,0.7-2.9c-1.267,0.667-3.133,1.634-5.6,2.9c-2,1.167-3.483,2.517-4.45,4.05c0.066-1.434,0.117-2.517,0.15-3.25
		c-1.5,1-2.717,2.95-3.65,5.851c-0.8,2.566-1.15,4.883-1.05,6.949c-0.433-1.767-1.517-4.066-3.25-6.899
		c-2.433-3.934-3.8-6.184-4.1-6.75c-0.067,0.566-0.067,1.233,0,2c0.033,0.467,0.117,1.133,0.25,2
		c-0.133-0.233-1.583-2.217-4.35-5.95c-1.934-2.566-3-4.684-3.2-6.35c-0.233-2.101,0.434-4.567,2-7.4c2-3.066,3.35-5.316,4.05-6.75
		c-0.8,0.106-1.617,0.44-2.45,1c0.101-0.105,0.201-0.206,0.3-0.3c1.367-1.267,1.983-2.101,1.85-2.5c-0.066-0.3-0.583-0.601-1.55-0.9
		c-1.067-0.267-1.717-0.45-1.95-0.55c-2.233-0.866-4.183-1.467-5.85-1.8c-1.966-0.4-4.017-0.533-6.15-0.4
		c-1.1,0.101-3.183,0.717-6.25,1.851c-3.333,1.267-5.117,2.233-5.35,2.899c0.633-1.666,0.934-2.616,0.9-2.85
		c-0.1-0.467-0.9-0.733-2.4-0.8c-1.133-0.067-2.517,0.267-4.15,1c-1.833,0.966-3.133,1.633-3.9,2c-3.033,1.5-5.583,2.983-7.65,4.449
		c-2.367,1.7-4.517,3.667-6.45,5.9c0-0.167,0.05-1.116,0.15-2.85c0.067-1.167,0-2.101-0.2-2.801c-0.7,0.167-1.35,0.684-1.95,1.551
		c-0.233,0.333-0.7,1.149-1.4,2.449c0.233-1.3,0.05-2.399-0.55-3.3l-0.55,0.9c0-0.033-1.033,0.2-3.1,0.7c-2.1,0.5-3.3,0.833-3.6,1
		c-0.333,0.199-2.35,0.966-6.05,2.3c-3.4,1.233-5.133,1.983-5.2,2.25c0.033-1.101,0.167-1.9,0.4-2.4
		c-1.533-0.066-2.95,0.684-4.25,2.25c-1.133,1.4-1.833,2.917-2.1,4.55c-1.467-2.5-2.333-5.199-2.6-8.1
		c-0.467,0.134-1.267,0.5-2.4,1.1c-1,0.5-1.8,0.784-2.4,0.851c0.3-0.7,0.533-1.184,0.7-1.45c-1.033,0.134-2.05,0.6-3.05,1.4
		c-1.1,0.866-1.7,1.8-1.8,2.8c-1.034-1.2-1.45-3.033-1.25-5.5c-2.667,1.2-3.85,3.6-3.55,7.2c0.133,2,0.9,4.85,2.3,8.55
		c-0.934-0.9-1.967-2.267-3.1-4.101c-1.567-2.533-2.5-4-2.8-4.399c-1.533-1.934-2.667-3.4-3.4-4.4c-1.267-1.767-2.033-3.434-2.3-5
		c-0.2,3.2,0.433,6.367,1.9,9.5c-1.2-1-2.317-2.366-3.35-4.1c-0.5-0.867-1.316-2.434-2.45-4.7c-1.333-2.767-2.15-4.917-2.45-6.45
		c-0.467-2.2-0.317-4.467,0.45-6.8c1.133-3.4,3.683-7.184,7.65-11.35c2.3-2.4,5.75-5.5,10.35-9.301c8.1-6.766,17.433-11.466,28-14.1
		c4-0.967,8.716-1.883,14.15-2.75c3.167-0.467,7.917-1.133,14.25-2c18.6-5.867,36.566-8.55,53.9-8.05
		c8,0.233,20.817-0.934,38.45-3.5c16.6-2.467,29.517-3.35,38.75-2.65c12.666,0.934,26.866,3.684,42.6,8.25
		c7.434,2.167,21.233,6.8,41.4,13.9l4.7,1.05l-1.101,0.2l7.65,2.65c4.366,1.466,10.983,3.466,19.85,6
		c9.2,2.733,20.634,7.2,34.3,13.4c4.5,2.033,8.134,4.517,10.9,7.45C369.934,216.116,371.634,220.116,371.6,224.45z"/>
</g>
</svg>
