<?xml version="1.0" encoding="iso-8859-1"?>
<!-- Generator: Adobe Illustrator 15.1.0, SVG Export Plug-In . SVG Version: 6.00 Build 0)  -->
<!DOCTYPE svg PUBLIC "-//W3C//DTD SVG 1.1//EN" "http://www.w3.org/Graphics/SVG/1.1/DTD/svg11.dtd">
<svg version="1.1" id="Layer_3" xmlns="http://www.w3.org/2000/svg" xmlns:xlink="http://www.w3.org/1999/xlink" x="0px" y="0px"
	 width="74.5px" height="95.6px" viewBox="0 0 74.5 95.6" style="enable-background:new 0 0 74.5 95.6;" xml:space="preserve">
<linearGradient id="SVGID_1_" gradientUnits="userSpaceOnUse" x1="-9.561" y1="-34.9814" x2="68.0804" y2="-34.9814" gradientTransform="matrix(0.0547 0.9985 -0.9985 0.0547 7.747486e-005 3.570318e-005)">
	<stop  offset="0" style="stop-color:#99BA89"/>
	<stop  offset="0.4235" style="stop-color:#8FB38D"/>
	<stop  offset="1" style="stop-color:#85AD91"/>
</linearGradient>
<path style="fill-rule:evenodd;clip-rule:evenodd;fill:url(#SVGID_1_);" d="M39.85,46.75L39.8,47c0.767,2.967,1.851,5.75,3.25,8.35
	c0.467,0.834,1.283,2.284,2.45,4.351c1.066,2,1.967,3.899,2.7,5.7c0.399-3.5,0.399-6.367,0-8.601
	c-0.233-1.267-0.767-3.616-1.601-7.05c-0.267,0.033-0.616-0.066-1.05-0.3c-0.866,2.866-1.783,3.017-2.75,0.45
	c-0.3-0.733-0.967-2.717-2-5.95L39.85,46.75z M33.35,44.15L32.7,46.5c0.633,1.233,1.267,2.233,1.9,3
	c1.233,1.533,2.466,2.783,3.7,3.75c-0.633-1.833-1.116-3.434-1.45-4.8c-0.733-0.567-1.617-1.567-2.65-3L33.35,44.15z M66.85,21.6
	c0.334,1.333-0.666,1.383-3,0.15c2.233,1.5,4.117,3.083,5.65,4.75c1.733,1.833,3.066,4.367,4,7.6c0.833,2.833,1.134,5.3,0.9,7.4
	c-0.167,1.767-1.867,0.933-5.101-2.5c-1.2-1.667-2.133-2.917-2.8-3.75c-1.167-1.567-2.384-2.433-3.65-2.6
	c0.034,0.2,0.467,1.017,1.301,2.45c0.633,1.3,0.5,1.867-0.4,1.7c-0.5-0.1-1.2-0.816-2.1-2.15c-0.834-1.233-1.617-1.767-2.351-1.6
	c-0.1,0.034,0.117,1.333,0.65,3.9c0.6,2.833,0.899,4.35,0.899,4.55c0.134,3.067-0.35,6.5-1.449,10.3c-0.367,1.267-0.7,2.134-1,2.601
	c-0.601,1-1.334,1.3-2.2,0.899c-0.601-0.267-1.217-1.149-1.851-2.649c-0.566-1.634-0.949-2.667-1.149-3.101
	c-0.7-1.633-1.184-2.683-1.45-3.15c-0.833-1.433-1.684-2.1-2.55-2c-1.101,0.133-1.45,1.383-1.05,3.75
	c0.033,0.199,0.433,1.699,1.199,4.5c0.767,3.1,1.267,5.449,1.5,7.05c0.334,2.333,0.351,4.467,0.051,6.399
	c-0.267,1.534-0.584,3.117-0.95,4.75c0.8,3.233,1.149,6.417,1.05,9.551c-0.066,1.733-0.333,4.533-0.8,8.399
	c-0.066,0.834-0.05,2,0.05,3.5c0.133,1.959,0.383,2.959,0.75,3c-1.236-0.1-3.086-0.066-5.55,0.101c-2.5,0.166-4.334,0.216-5.5,0.149
	c-0.101-1.8,0.05-3.733,0.45-5.8c0.6-2.1,0.983-3.667,1.149-4.7c0.334-1.767,0.167-3.35-0.5-4.75c-0.3-0.7-0.916-1.816-1.85-3.35
	c-0.834-1.434-1.417-2.584-1.75-3.45c-0.733-1.866-0.967-3.316-0.7-4.35c0.2,0.399,0.5,1.267,0.9,2.6
	c0.333,1.1,0.733,1.967,1.199,2.6c0.4,0.567,1.2,1.4,2.4,2.5c1.066,1,1.816,1.867,2.25,2.601c0.733-0.9,1.15-2.316,1.25-4.25
	c0.066-0.967,0.017-2.483-0.15-4.55c-0.333-3.801-1.333-7.134-3-10c-0.8-1.367-2.233-3.2-4.3-5.5
	c-2.167-2.434-3.65-4.284-4.45-5.551l-0.7-1.149L31.7,49.8c-0.767,2.3-1.6,3.434-2.5,3.4c-0.867-0.033-1.617-1.101-2.25-3.2
	c-0.6-2.033-1.067-4.267-1.4-6.7c-3.867,3.867-6.383,6.917-7.55,9.15c-1.233,2.399-2.417,3.217-3.55,2.45
	c-1.133-0.733-1.617-2.434-1.45-5.101c0.2-2.966,1.2-8,3-15.1c-0.833,0.233-1.617,0.767-2.35,1.6c-0.433,0.5-1,1.317-1.7,2.45
	c-0.767,1.233-1.184,1.883-1.25,1.95c-0.534,0.7-0.967,0.733-1.3,0.1c-0.6-1.167-0.7-2.833-0.3-5c0.333-1.6,0.867-3.233,1.6-4.9
	l0.4-0.85c-2.167,2.133-4.233,4.717-6.2,7.75c-1.667,2.6-2.783,4.083-3.35,4.45c-1,0.633-1.517,0.1-1.55-1.6
	c0-1.066,0.283-3.433,0.85-7.1c1.566-10.066,5.3-17.833,11.2-23.3c2.967-2.733,6.034-4.183,9.2-4.35c-0.2-0.233-0.4-0.383-0.6-0.45
	c-1.533-0.233-2.717-0.417-3.55-0.55c-1.5-0.267-1.983-0.883-1.45-1.85c0.5-0.966,1.434-1.683,2.8-2.15
	c1.133-0.433,2.316-0.6,3.55-0.5c1.8,0.1,3.5,0.8,5.1,2.1c0.933,0.733,2.367,1.9,4.3,3.5c-0.066-1.333-0.066-2.15,0-2.45
	c0.2-1,0.75-1.333,1.65-1c0.7,0.233,0.967,0.917,0.8,2.05c-0.1,0.6-0.283,1.433-0.55,2.5c-0.133,1.133,0.083,1.983,0.65,2.55
	c-0.067-0.066,0.1-0.633,0.5-1.7c0.2-0.633,0.417-1.217,0.65-1.75c0.633-1.333,1.533-2.567,2.7-3.7c0.7-0.667,1.667-1.3,2.9-1.9
	c1.666-0.8,2.633-0.8,2.899,0C43.7,0.9,43.5,1.367,43,2c-0.6,0.8-0.917,1.267-0.95,1.4c0.101-0.333,0.8-0.633,2.101-0.9
	c0.899-0.167,1.699-0.283,2.399-0.35c1.967-0.1,3.667-0.05,5.101,0.15C54.616,2.8,57.6,4.25,60.6,6.65
	c2.634,2.167,4.067,3.5,4.301,4c0.166,0.5-0.601,0.684-2.301,0.55c-1.833-0.133-3.883-0.083-6.149,0.15
	C53.583,11.683,51.3,12.233,49.6,13c1.7-0.167,3.4-0.017,5.101,0.45c2.8,0.767,5.434,1.966,7.899,3.6
	C65.1,18.717,66.517,20.233,66.85,21.6z"/>
</svg>
