<?xml version="1.0" encoding="iso-8859-1"?>
<!-- Generator: Adobe Illustrator 15.1.0, SVG Export Plug-In . SVG Version: 6.00 Build 0)  -->
<!DOCTYPE svg PUBLIC "-//W3C//DTD SVG 1.1//EN" "http://www.w3.org/Graphics/SVG/1.1/DTD/svg11.dtd">
<svg version="1.1" id="Layer_1" xmlns="http://www.w3.org/2000/svg" xmlns:xlink="http://www.w3.org/1999/xlink" x="0px" y="0px"
	 width="214.15px" height="235.9px" viewBox="0 0 214.15 235.9" style="enable-background:new 0 0 214.15 235.9;"
	 xml:space="preserve">
<g>
	<path style="fill-rule:evenodd;clip-rule:evenodd;fill:#AFCFB5;" d="M174.5,151.75c3.333,7.4,8.583,18.8,15.75,34.2
		c3.566,7.633,8.767,17.166,15.6,28.6c4.9,8.233,7.667,14.05,8.301,17.45c-14.7,1.3-45.301,2.15-91.801,2.55
		c-54.033,0.233-91.883,0.483-113.55,0.75c-0.167-3.633,0.35-8.916,1.55-15.85c1.533-8.467,2.417-14.417,2.65-17.851
		c1.133-15.366-3.2-29.283-13-41.75c0.033,0.034,1.183,0.75,3.45,2.15c2.9,2,5.85,4.417,8.85,7.25c3.034,2.866,5.85,6.634,8.45,11.3
		c1.333,2.334,2.35,4.384,3.05,6.15c0.233-2.167,0.383-5.033,0.45-8.601c0.133-7.133-0.2-14.133-1-21
		c-0.8-6.866-4.467-14.55-11-23.05c-2.033-2.633-4.233-5.2-6.6-7.7L2.7,123.4l6.75,3.35c5.3,3.1,9.95,6.75,13.95,10.95
		c4,4.233,7.067,10.45,9.2,18.649c1.066,4.101,1.733,7.784,2,11.051c0.467-1.834,0.917-4.551,1.35-8.15
		c0.867-7.233,1.2-15.316,1-24.25c-0.233-8.967-2.534-18.85-6.9-29.65c-1.367-3.367-2.867-6.633-4.5-9.8l-2-3.7l7.1,7.7
		C36.017,106.383,40.3,114,43.5,122.4c3.2,8.399,4.917,19.666,5.15,33.8c0.1,7.066-0.117,13.283-0.65,18.649
		c0.933-2.1,1.95-5.017,3.05-8.75c2.233-7.433,3.75-15.149,4.55-23.149c0.8-7.967,0.4-15.867-1.2-23.7l-2.6-9.3l3,6.4
		c2.3,5.333,4.1,10.617,5.4,15.85c1.3,5.233,1.6,13.6,0.9,25.1c-0.333,5.733-0.817,10.95-1.45,15.65c0.533-0.8,1.133-2.017,1.8-3.65
		c1.367-3.267,2.45-6.983,3.25-11.149c1.2-6.5,2.066-14.784,2.6-24.851c0.667-13.267,0.517-27-0.45-41.2
		c-1.3-19.4-0.617-36.434,2.05-51.1c3.434-18.767,9.85-31.15,19.25-37.15c9.267-5.9,17.167-5,23.7,2.7
		c4.101,4.8,9.184,15.25,15.25,31.35c3.801,10.1,9.267,23.45,16.4,40.05c7.467,17.3,12.983,30.617,16.55,39.95
		C163.15,126.066,167.967,137.35,174.5,151.75z"/>
	<path style="fill-rule:evenodd;clip-rule:evenodd;fill:#BAD9BF;" d="M89.75,47.55c5.767-7.667,12.233-8.483,19.4-2.45
		c6.666,5.633,11.199,14.333,13.6,26.1c2.366,11.667,5.483,22.983,9.35,33.95c4.134,11.8,9.9,25.383,17.301,40.75
		c8.466,17.699,19.816,37.6,34.05,59.699c7.1,11.067,13.35,20.351,18.75,27.851L52.4,235.9c10.1-24.4,16.283-39.2,18.55-44.4
		c2.066-4.667,4.383-12.6,6.95-23.8c3-13.2,5.15-26.233,6.45-39.101c0.566-5.833,0.667-13.283,0.3-22.35
		c-0.566-10.267-0.933-17.85-1.1-22.75C82.917,65.833,84.983,53.85,89.75,47.55z"/>
	<path style="fill-rule:evenodd;clip-rule:evenodd;fill:#C4DFD1;" d="M93.95,90.35c-0.167-9.233,0.033-15.417,0.6-18.55
		c0.8-4.333,2.583-6.367,5.35-6.1c5.6,0.566,10.05,5.183,13.35,13.85c1.2,3.133,2.45,7.317,3.75,12.55
		c0.733,2.967,1.816,7.45,3.25,13.45c2.3,8.934,6.45,19.55,12.45,31.851c3.467,7.066,8.866,17.616,16.2,31.649
		c11.199,22.434,22.399,44.017,33.6,64.75c-21.1,0.9-60.483,1.533-118.15,1.9c3.767-8.967,7.7-19.033,11.8-30.2
		c8.167-22.3,13.1-38.967,14.8-50c1.733-11.467,2.767-23.634,3.1-36.5C94.183,113.2,94.15,103.65,93.95,90.35z"/>
</g>
</svg>
