<?xml version="1.0" encoding="iso-8859-1"?>
<!-- Generator: Adobe Illustrator 15.1.0, SVG Export Plug-In . SVG Version: 6.00 Build 0)  -->
<!DOCTYPE svg PUBLIC "-//W3C//DTD SVG 1.1//EN" "http://www.w3.org/Graphics/SVG/1.1/DTD/svg11.dtd">
<svg version="1.1" id="Layer_1" xmlns="http://www.w3.org/2000/svg" xmlns:xlink="http://www.w3.org/1999/xlink" x="0px" y="0px"
	 width="157.95px" height="369.6px" viewBox="0 0 157.95 369.6" style="enable-background:new 0 0 157.95 369.6;"
	 xml:space="preserve">
<symbol  id="flash0.ai_x2F_Layer_1_x2F__x3C_Compound_Path_x3E_" viewBox="0.046 -169.751 113.43 169.712">
	<g id="Layer_1_6_">
		<path style="fill-rule:evenodd;clip-rule:evenodd;fill:#8FB5B0;" d="M58.8-46.75c-0.533,12.8-3.633,20.467-9.3,23
			c-0.1-0.333-0.35-0.883-0.75-1.65c-0.333-0.733-0.55-1.283-0.65-1.65c-0.033,3.667-1.367,3.983-4,0.95
			c-1.434-1.633-3.017-3.917-4.75-6.85c-2,3.967-4.15,6.733-6.45,8.3c-1.467,0.967-2.633,1.433-3.5,1.4
			c-0.533-0.033-1.417-0.4-2.65-1.1c0.2-1.367,0.45-2.717,0.75-4.05c0.9-3.967,1.667-8.934,2.3-14.9
			c0.434-4.2,1.017-11.167,1.75-20.9c0.967-12.966,1.467-20.133,1.5-21.5c0.2-6.6-0.367-12.117-1.7-16.55
			c-0.934-3.033-1.167-6.467-0.7-10.3c0.233-2.233,0.833-5.65,1.8-10.25c0.367-2,0.85-5.167,1.45-9.5c0.7-3.8,1.767-6.784,3.2-8.95
			c0.7,0.2,1.45,0.867,2.25,2c0.9,1.3,1.617,2.117,2.15,2.45c0.867-2.467,1.4-3.9,1.6-4.3c1.767,0.567,3.6,2.184,5.5,4.85
			c0.933,1.333,2.217,3.533,3.85,6.6c0.033-0.3,0.133-0.783,0.3-1.45c0.167-0.6,0.267-1.1,0.3-1.5c1.233,1.533,2.65,3.65,4.25,6.35
			c-0.066,4.633,0.184,8.733,0.75,12.3c0.8,4.967,1.2,7.883,1.2,8.75c0.033,1.3-0.35,4.217-1.15,8.75
			c-0.8,4.633-1.267,8.617-1.4,11.95c-0.1,3.233,0.083,6.9,0.55,11C58.55-62.1,59.067-53.183,58.8-46.75z M82.2-37.35l-0.55,0.6
			c-1.533,2.333-2.816,4.2-3.85,5.6c-1.966,2.633-3.683,3.816-5.15,3.55c-2.333-0.433-3.25-2.35-2.75-5.75
			c0.267-1.833,0.85-4.267,1.75-7.3c0.733-5.333,1.1-8.35,1.1-9.05c0.1-3.566-0.583-8.117-2.05-13.65
			c-0.667-2.6-1.567-5.233-2.7-7.9c-0.6-1.467-1.417-3.433-2.45-5.9c-1.566-4.067-1.933-8.55-1.1-13.45
			c0.867-4.933,1.316-7.566,1.35-7.9c0.467-3.1,0.667-5.783,0.6-8.05c0-0.434-0.483-2.733-1.45-6.9c-0.667-2.966-0.6-5.216,0.2-6.75
			c0.267-0.533,0.983-1.167,2.15-1.9c1.133-0.767,1.883-1.467,2.25-2.1c0.3-0.533,0.684-1.517,1.15-2.95
			c0.333-1.133,0.816-2.05,1.45-2.75c0.267-0.3,1.1-1.05,2.5-2.25c0.967-0.833,1.7-1.733,2.2-2.7c3.533,11.133,5.05,21.7,4.55,31.7
			c-0.2,4.633,0.017,8.917,0.65,12.85c1.3,8.1,2.034,12.833,2.2,14.2c0.733,6.267,1,10.283,0.8,12.05
			c-0.6,2.233-1.183,4.75-1.75,7.55c-0.733,3.5-1.167,6.75-1.3,9.75C81.867-44.15,81.933-41.017,82.2-37.35z M108.8-14.4
			c4-2.333,5.434-4.85,4.3-7.55c-0.333-0.833-1.317-2.5-2.95-5c-1.267-1.933-2.017-3.733-2.25-5.4c-0.133-0.9-0.267-2.566-0.4-5
			c-0.133-2.066-0.333-3.717-0.6-4.95c-1.967,3.2-3.35,5.216-4.15,6.05c-1.2,1.233-3.133,0.833-5.8-1.2c-0.2,0.8-0.867,1.367-2,1.7
			c-1,0.267-2.117,0.333-3.35,0.2c-0.3-2.133-0.533-4.934-0.7-8.4c-0.1-2.066-0.283-5.95-0.55-11.65c-0.2-3.933-0.2-8.816,0-14.65
			c0.167-3.967-0.067-7.417-0.7-10.35c-0.8-3.7-1.4-7.316-1.8-10.85c-0.267-2.433-0.6-6.633-1-12.6
			c-0.267-4.067-0.783-8.667-1.55-13.8c-0.9-6.1-1.4-9.65-1.5-10.65c-0.267-2.667-0.283-5.733-0.05-9.2c0.067-1,0.35-4.066,0.85-9.2
			c0.2-2.133,0.083-4.967-0.35-8.5c-0.5-4.3-0.767-7.133-0.8-8.5c0,2.367-0.083,4.066-0.25,5.1c-2.067,0.566-4.333,2.533-6.8,5.9
			c-2.566,3.533-4.85,5.7-6.85,6.5c-2.466,0.533-4.117,0.933-4.95,1.2c-1.367,0.467-2.15,1.633-2.35,3.5
			c-0.167,1.133,0.033,2.284,0.6,3.45l-5-0.45v0.15c-0.533-2.333-1.167-4.8-1.9-7.4c-1.733-0.7-3.3-2.466-4.7-5.3
			c-1.7-3.4-2.95-5.483-3.75-6.25c-0.4-0.4-1.167-0.95-2.3-1.65c-0.967-0.6-1.717-1.25-2.25-1.95c0-0.033-0.767-1.7-2.3-5
			c-1.1-2.4-2.217-3.617-3.35-3.65c-1.267-0.033-2.033,0.8-2.3,2.5c-0.067,2.067-0.183,3.433-0.35,4.1
			c-1.2,4.5-2.066,7.867-2.6,10.1c-1,3.966-1.466,7.433-1.4,10.4c0.033,3.133-0.566,7.75-1.8,13.85
			c-0.667,3.2-2.217,9.833-4.65,19.9c-1.434,6.1-1.95,10.167-1.55,12.2c0.9,2.2,1.467,5,1.7,8.4c0.267,3.733,0.066,6.417-0.6,8.05
			c-1.267,3.033-2.183,6.2-2.75,9.5c-0.833,4.667-1.6,8.317-2.3,10.95c-0.934,3.533-1.534,5.9-1.8,7.1
			c-0.467,2.233-0.267,5.25,0.6,9.05c0.833,3.566,0.917,6.283,0.25,8.15c-0.633,1.633-1.15,4.05-1.55,7.25l-0.3-0.3
			c-0.8-0.833-1.217-2.034-1.25-3.6c0-1.967-0.167-3.333-0.5-4.1c-0.767,2-2.017,3.717-3.75,5.15c-2.1,1.733-3.45,1.15-4.05-1.75
			c-2.067,3.934-3.6,7.033-4.6,9.3c-1.867,4.1-2.2,7.2-1,9.3c1.733,3,5.5,5.517,11.3,7.55c2.2,0.767,6.684,1.934,13.45,3.5
			c9.8,2.233,19.767,3.284,29.9,3.15c10.767-0.133,18.333-0.534,22.7-1.2c8.633-1.233,15.583-3.867,20.85-7.9
			C100.517-10.35,103.8-12.1,108.8-14.4z"/>
	</g>
</symbol>
<symbol  id="flash0.ai_x2F_Layer_1_x2F__x3C_Path_x3E_">
	<g id="Layer_1_5_">
	</g>
</symbol>
<symbol  id="flash0.ai_x2F_Layer_1_x2F__x3C_Path_x3E__x5F_2" viewBox="-0.012 -62.575 49.294 62.579">
	<g id="Layer_1_7_">
		<path style="fill-rule:evenodd;clip-rule:evenodd;fill:#8FB5B0;" d="M47.6-15.2c1.933-3.733,2.2-7.283,0.8-10.65
			c-0.7-1.7-1.75-3.917-3.15-6.65c-1.167-2.633-2.083-5.667-2.75-9.1c-0.1-0.667-0.217-2.417-0.35-5.25
			c-0.524-3.87-1.825-9.112-3.9-15.725c0.972,3.401,1.539,7.959,1.7,13.675c0.133,5.3-0.067,8.816-0.6,10.55
			c-0.167,0.567-0.55,1.4-1.15,2.5c-0.6,1.033-0.983,1.867-1.15,2.5c-0.466-1.5-1.333-1.533-2.6-0.1c-1.3,1.934-2.083,3.1-2.35,3.5
			c0.033-3.033-0.15-6.316-0.55-9.85c-0.333,0.767-1.2,2.183-2.6,4.25c-1.148,1.739-1.865,3.206-2.15,4.4
			c0.5-2.411,0.699-4.311,0.6-5.7c-0.967,0.667-1.867,1.75-2.7,3.25c-0.944,1.563-1.361,2.871-1.25,3.925
			c-0.197-1.501-1.197-2.776-3-3.825c-2.233-1.267-3.6-2.3-4.1-3.1c0.333,1.833,0.417,3.25,0.25,4.25
			c-2.434-2.667-3.983-5.617-4.65-8.85c-0.2-0.966-0.667-2.867-1.4-5.7c-0.667-2.867-1.1-5.5-1.3-7.9
			c-1.1,6.6-2.383,11.583-3.85,14.95c-1.333,3.1-2.283,5.417-2.85,6.95c-0.5,1.433-1.1,3.35-1.8,5.75
			c-1.2,4.3-0.983,8.783,0.65,13.45C2.767-9.9,5.3-6.733,9-4.2c3.5,2.333,7.367,3.7,11.6,4.1c3.433,0.333,6.95-0.133,10.55-1.4
			c3.367-1.2,6.467-2.967,9.3-5.3C43.683-9.433,46.067-12.233,47.6-15.2z"/>
	</g>
</symbol>
<symbol  id="flash0.ai_x2F_Layer_1_x2F__x3C_Path_x3E__x5F_6" viewBox="0.075 -163.4 35.375 163.4">
	<g id="Layer_1_4_">
		<path style="fill-rule:evenodd;clip-rule:evenodd;fill:#8FB5B0;" d="M7.95,0C8.283-0.833,8.567-2.117,8.8-3.85
			c0.5-3.467,0.55-7.483,0.15-12.05c-0.333-3.6,0.167-7.8,1.5-12.6c2-7.233,3.083-11.317,3.25-12.25
			c0.466-2.6,1.517-6.783,3.15-12.55c1.3-5.267,1.75-9.483,1.35-12.65c-0.6-4.7-0.767-8.733-0.5-12.1
			c0.333-4.034,1.316-7.75,2.95-11.15c0.633-1.333,1.3-3.45,2-6.35c0.733-2.867,1.4-4.95,2-6.25c0.033,9.4,0.917,18.933,2.65,28.6
			c0.034-2.233-0.033-6.367-0.2-12.4c-0.167-5.2-0.184-9.316-0.05-12.35c0.133-2.6,0.75-6.267,1.85-11
			c1.133-4.833,1.767-8.433,1.9-10.8c0.367-7.133,1.917-21.683,4.65-43.65l-6.75,1.95l-2.35,13.35
			c-1.267,6.934-2.567,16.867-3.9,29.8c-0.6,6.066-1.383,11.066-2.35,15c-0.767,3.066-1.917,6.517-3.45,10.35
			c-1.167,2.934-1.933,6.934-2.3,12c-0.1,1.333-0.233,5.184-0.4,11.55c-0.1,4.6-0.633,8.667-1.6,12.2
			c-0.133,0.5-0.783,1.934-1.95,4.3c-0.937,1.873-1.42,3.273-1.45,4.2c0.005-1.768,0.155-4.668,0.45-8.7
			c0.167-3.7,0.017-6.517-0.45-8.45c-0.833,2.533-2.117,6.733-3.85,12.6c-1.6,5.4-2.917,9.567-3.95,12.5
			C-0.55-35.983-0.233-29.2,2.1-20.4C3.367-15.533,5.317-8.733,7.95,0z"/>
	</g>
</symbol>
<symbol  id="flash0.ai_x2F_Layer_1_x2F__x3C_Path_x3E__x5F_7" viewBox="-0.003 -51.05 9.838 51.016">
	<g id="Layer_1_3_">
		<path style="fill-rule:evenodd;clip-rule:evenodd;fill:#8FB5B0;" d="M5.7-6.4c1.867-1.067,3.066-2.583,3.6-4.55
			c0.567-2.066,0.684-5.483,0.35-10.25c-0.133-0.033-0.6,0.534-1.4,1.7c-0.833,1.167-1.5,1.65-2,1.45
			c-0.767-0.867-1.15-2.5-1.15-4.9C5.067-24.817,4.883-27.167,4.55-30c-0.4-3.133-0.633-5.5-0.7-7.1
			C3.55-43.667,2.933-48.317,2-51.05c0.1,5.433,0.15,8.167,0.15,8.2c0.1,3,0,6.783-0.3,11.35c-0.533,7.3-0.8,11.083-0.8,11.35
			C1.017-19.117,0.9-17.667,0.7-15.8c-0.233,1.9-0.367,3.367-0.4,4.4C0.1-8.5,0-6.45,0-5.25C-0.033-3.283,0.233-1.567,0.8-0.1
			c0.267,0.333,0.5-0.6,0.7-2.8c0.233-2.333,0.417-3.517,0.55-3.55c0.2-0.066,0.45,0,0.75,0.2c0.367,0.2,0.6,0.317,0.7,0.35
			C4.167-5.8,4.9-5.967,5.7-6.4z"/>
	</g>
</symbol>
<symbol  id="flash0.ai_x2F_Layer_1_x2F__x3C_Path_x3E__x5F_8" viewBox="-0.041 -108.105 20.432 108.105">
	<g id="Layer_1_2_">
		<path style="fill-rule:evenodd;clip-rule:evenodd;fill:#8FB5B0;" d="M14.25,0c-0.333-4.1-0.517-7-0.55-8.7
			c0-1.7,0.066-5.75,0.2-12.15c0.1-5.967-0.367-11.6-1.4-16.9c-0.267-1.433-1.017-4.3-2.25-8.6C9.217-49.95,8.6-52.8,8.4-54.9
			c-0.133-1.5,0-3.317,0.4-5.45c0.233-1.233,0.633-3.033,1.2-5.4c0.533-2.567,0.95-5.583,1.25-9.05c0.133-2,0.333-5.034,0.6-9.1
			c0.3-3,0.683-5.55,1.15-7.65c0.267,0,0.433-0.083,0.5-0.25c0.6,0.9,0.95,2.267,1.05,4.1c0.034,2.034,0.1,3.467,0.2,4.3
			c0.767,4.533,1.267,7.933,1.5,10.2c0.233,2.4,1.067,6.25,2.5,11.55c0.033,0.066,0.25,1.017,0.65,2.85
			c0.233,1.2,0.533,2.066,0.9,2.6c0.267-3.966-0.05-9.033-0.95-15.2c-1.4-9.3-2.133-14.367-2.2-15.2c-0.1-1.4-0.2-3.483-0.3-6.25
			c-0.067-2.8-0.167-4.883-0.3-6.25c-0.033-0.333,0.15-1.717,0.55-4.15c0.267-1.767,0.066-2.983-0.6-3.65
			c-0.7-0.733-3.333-1.133-7.9-1.2c-3.934-0.033-6.783,0.117-8.55,0.45c-0.233,7.133-0.017,14.167,0.65,21.1
			c0.2,2.3,0.633,5.433,1.3,9.4c0.367,2.066,0.467,4.75,0.3,8.05C2-61.467,2.433-52.017,3.6-40.75
			c1.133,10.733,1.35,17.767,0.65,21.1c-0.3,1.5,0.917,4.717,3.65,9.65C10.133-5.967,12.25-2.633,14.25,0z"/>
	</g>
</symbol>
<g>
	
		<linearGradient id="SVGID_1_" gradientUnits="userSpaceOnUse" x1="18.9912" y1="162.7251" x2="82.4266" y2="162.7251" gradientTransform="matrix(0.9998 0.0181 -0.0181 0.9998 6.486103e-005 3.170595e-005)">
		<stop  offset="0" style="stop-color:#ABD8BF"/>
		<stop  offset="0.2275" style="stop-color:#A0D3C0"/>
		<stop  offset="0.502" style="stop-color:#98CFC0"/>
		<stop  offset="1" style="stop-color:#ABD8CC"/>
	</linearGradient>
	<path style="fill-rule:evenodd;clip-rule:evenodd;fill:url(#SVGID_1_);" d="M40.45,120.3c1.033,14.434,1.833,23.55,2.4,27.35
		c0.6,3.8,0.883,18.2,0.85,43.2c0,12.467-0.067,24.567-0.2,36.301c-0.367-1.301-1.267-3.217-2.7-5.75
		c-1.433-2.534-2.966-4.917-4.6-7.15c-1.167-1.566-3.284-3.833-6.35-6.8c-3.267-3.167-5.5-5.5-6.7-7
		c-1.767-2.167-2.95-4.517-3.55-7.05c-0.4-1.534-0.85-4.851-1.35-9.95c-1.733-16.633-3.033-26.567-3.9-29.8
		c-0.367-1.367-1.15-2.783-2.35-4.25c-1.067-1.3-1.717-2.783-1.95-4.45c-0.333-2.267-0.233-4.05,0.3-5.35
		c0.5-1.2,1.233-1.65,2.2-1.35c2,0.6,2.817-1.383,2.45-5.95c-0.133-1.5-0.583-3.633-1.35-6.4c-0.633-2.3-0.9-4.1-0.8-5.4
		c0.133-1.467,0.066-2.7-0.2-3.7c-0.467-1.367-0.867-2.75-1.2-4.15c-0.467-2,0.55-4.167,3.05-6.5c2.4-2.233,5.1-3.733,8.1-4.5
		c3.833-0.967,9.316-1.566,16.45-1.8L40.45,120.3z"/>
	<path style="fill-rule:evenodd;clip-rule:evenodd;fill:#ABD8BF;" d="M47.8,291.9c-0.767-1.4,0.583-4.167,4.05-8.301
		c14.566,50.334,22.333,77.417,23.3,81.25c0.6,2.4-0.75,3.483-4.05,3.25c-3.667-0.733-5.717-1.1-6.15-1.1
		c-0.534,0-0.883-0.733-1.05-2.2c-0.1-2.267-0.217-4.233-0.35-5.899c-0.233-2.601-0.716-5.284-1.45-8.051
		c-0.833-3.066-2.15-6.933-3.95-11.6c-1.6-4.167-2.483-7.4-2.65-9.7c0.033-3.3,0-6.6-0.1-9.899c-0.133-3.733-0.583-6.551-1.35-8.45
		c-0.966-2.367-1.566-4.351-1.8-5.95C51.617,300.517,50.133,296.066,47.8,291.9z"/>
	
		<linearGradient id="SVGID_2_" gradientUnits="userSpaceOnUse" x1="-144.8813" y1="-200.6719" x2="-28.0757" y2="-200.6719" gradientTransform="matrix(-1 0.0098 -0.0098 -1 3.921501e-004 -2.003945e-004)">
		<stop  offset="0" style="stop-color:#ABD8BF"/>
		<stop  offset="0.2275" style="stop-color:#A0D3C0"/>
		<stop  offset="0.502" style="stop-color:#98CFC0"/>
		<stop  offset="1" style="stop-color:#ABD8CC"/>
	</linearGradient>
	<path style="fill-rule:evenodd;clip-rule:evenodd;fill:url(#SVGID_2_);" d="M81.5,30c8.3,0.433,20.167,2.583,35.6,6.45
		c15.267,3.867,22.95,6.583,23.051,8.15c0.1,1.667-0.334,3.9-1.301,6.7c-1.033,2.934-2.25,5.2-3.649,6.8
		c-1.533,1.733-2.684,4.267-3.45,7.6c-0.833,3.6-1.1,7.633-0.8,12.1c0.267,4.034,0.217,7.167-0.15,9.4
		c-0.2,1.4-0.684,3.483-1.45,6.25c-0.533,2.5-0.666,4.066-0.399,4.7c0.2,0.467,1.25,1.35,3.149,2.65
		c1.834,1.233,3.45,3.133,4.851,5.7c1.399,2.633,1.967,4.85,1.7,6.65c-0.2,1.2-1.117,2.733-2.75,4.6
		c-1.567,1.8-2.367,3.283-2.4,4.45c-0.033,1.667-0.233,4.017-0.6,7.05c-0.367,3.067-0.767,5.567-1.2,7.5
		c-0.4,1.9-0.367,3.15,0.1,3.75c0.434,0.567,1.334,0.717,2.7,0.45c1.333-0.233,2.25,0.816,2.75,3.15
		c0.533,2.533,0.8,7.417,0.8,14.65c0,6.8-0.566,13.9-1.7,21.3c-0.966,6.367-2,11.05-3.1,14.05c-0.634,1.7-2.634,4.417-6,8.15
		s-5.384,6.517-6.05,8.35c-0.867,2.5-1.617,9.567-2.25,21.2c-0.601,11.334-0.684,17.45-0.25,18.351
		c0.233,0.5,1.533,1.416,3.899,2.75c2.334,1.366,3.684,2.416,4.051,3.149c0.666,1.434,0.55,8.2-0.351,20.3
		c-0.133,1.834,0.134,2.967,0.8,3.4c1.267,0.767,2,1.3,2.2,1.6c0.601,0.934,0.483,4.15-0.35,9.65c-1.5,9.7-2.316,15.167-2.45,16.4
		c-3.366,30.699-5.634,49.949-6.8,57.75c-0.601,4.133-8.75,5.366-24.45,3.699c-5.033-0.533-10.616-1.333-16.75-2.399
		c-5.4-1.033-8.333-1.601-8.8-1.7c-1.167-0.233-2.217-2.934-3.15-8.1c-1-6.467-1.816-11.101-2.45-13.9
		c-1.6-6.066-2.783-10.833-3.55-14.3c-1.433-6.167-2.167-11.434-2.2-15.8c-0.033-4.101-0.767-8.101-2.2-12
		c-2.2-5.867-3.417-9.284-3.65-10.25c-0.633-2.7-0.983-6.617-1.05-11.75c-0.1-5.567-0.467-10.084-1.1-13.551
		c-0.8-4.5-1.983-7.716-3.55-9.649c-1.9-1.566-3.316-2.75-4.25-3.55c-1.167-0.967-1.8-4.334-1.9-10.101
		c0.033-7.2-0.05-12.45-0.25-15.75c-0.433-7.366,0.333-16.467,2.3-27.3c0.4-2.033-0.133-4.833-1.6-8.4
		c-0.667-1.566-2.2-4.633-4.6-9.2c-1.367-2.6-2.2-5.183-2.5-7.75c-0.133-1.1-0.317-4.783-0.55-11.05
		c-0.133-4.167,0.6-8.267,2.2-12.3c1.733-3.466,2.684-5.6,2.85-6.4c0.233-0.933-0.717-3.083-2.85-6.45
		c-3.033-4.8-4.683-7.483-4.95-8.05c-1-1.967-1.05-5.167-0.15-9.6c0.434-2.267,1.567-6.417,3.4-12.45
		c1.033-3.434,1.216-7.717,0.55-12.85c-1.033-6.133-1.75-10.9-2.15-14.3c-0.5-4.6-1.767-9.967-3.8-16.1
		c-1.667-4.934-3.35-9.1-5.05-12.5c-2.433-4.833,4.45-9.817,20.65-14.95c6.533-2.066,13.333-3.7,20.4-4.9
		C71.617,30.3,77.267,29.8,81.5,30z"/>
	
		<linearGradient id="SVGID_3_" gradientUnits="userSpaceOnUse" x1="65.5171" y1="250.0674" x2="115.1003" y2="250.0674" gradientTransform="matrix(0.9998 0.0182 -0.0182 0.9998 1.082569e-004 9.012595e-005)">
		<stop  offset="0" style="stop-color:#ABD8BF"/>
		<stop  offset="0.0353" style="stop-color:#A8D7BE"/>
		<stop  offset="0.3216" style="stop-color:#91CCB9"/>
		<stop  offset="0.502" style="stop-color:#89C8B7"/>
		<stop  offset="1" style="stop-color:#ABD8CC"/>
	</linearGradient>
	<path style="fill-rule:evenodd;clip-rule:evenodd;fill:url(#SVGID_3_);" d="M83.85,185.6c3.867,0,7.784,0.417,11.75,1.25
		c3.367,0.7,5.184,1.284,5.45,1.75c0.7,1.2,1.3,3.2,1.8,6c0.7,3.967,0.684,7.801-0.05,11.5c-0.733,3.667-1.166,6.967-1.3,9.9
		c-0.066,1.833-0.1,4.95-0.1,9.35c-0.067,3.467-0.517,6.684-1.351,9.65c-0.3,1.066-1.533,4.684-3.7,10.85
		c-1.6,4.5-2.966,10.617-4.1,18.351c-1.1,7.333-1.717,14.116-1.85,20.35c-0.067,4.101,0.433,10.767,1.5,20
		c0.899,7.767,1.166,12.066,0.8,12.9c-0.467,1.1-1.25-0.217-2.351-3.95c-1.399-5.5-2.517-9.783-3.35-12.85
		c-0.866-3.2-1.467-7-1.8-11.4c-0.367-4.4-0.851-7.733-1.45-10c-2.467-9.3-5.8-17.184-10-23.65c-2.367-3.6-3.683-6.5-3.95-8.699
		c-0.066-0.367,0.05-2.784,0.35-7.25c0.133-2.4,0.017-4.867-0.35-7.4c-0.466-3.2-0.716-5.267-0.75-6.2
		c-0.066-2.533-0.267-4.583-0.6-6.149c-0.4-1.867-1.083-3.733-2.05-5.601c-1.433-2.8-2.566-5.633-3.4-8.5
		c-1.167-3.934-1.4-6.866-0.7-8.8C65.1,189.467,72.283,185.667,83.85,185.6z"/>
	
		<use xlink:href="#flash0.ai_x2F_Layer_1_x2F__x3C_Path_x3E__x5F_8"  width="20.432" height="108.105" x="-0.041" y="-108.105" transform="matrix(1 0 0 -1 97.7002 261.5)" style="overflow:visible;opacity:0.1484;enable-background:new    ;"/>
	
		<use xlink:href="#flash0.ai_x2F_Layer_1_x2F__x3C_Path_x3E__x5F_7"  width="9.838" height="51.016" x="-0.003" y="-51.05" transform="matrix(1 0 0 -1 117.4502 242.2998)" style="overflow:visible;opacity:0.1484;enable-background:new    ;"/>
	
		<use xlink:href="#flash0.ai_x2F_Layer_1_x2F__x3C_Path_x3E__x5F_6"  width="35.375" height="163.4" x="0.075" y="-163.4" transform="matrix(1 0 0 -1 46 203.6504)" style="overflow:visible;opacity:0.1484;enable-background:new    ;"/>
	<path style="fill-rule:evenodd;clip-rule:evenodd;fill:#CEEDE0;" d="M33.5,88.05c0.5,3.7,0.817,6.1,0.95,7.2
		c0.3,2.733,0.45,5.15,0.45,7.25s-1.033,4.783-3.1,8.05c-2.028,3.292-3.062,5.9-3.1,7.825c-0.004-0.308-0.121-1.233-0.35-2.775
		c-0.167-1.167-0.15-2.117,0.05-2.85c-1.066,1.8-1.933,4.05-2.6,6.75c-0.499,1.899-0.798,3.641-0.9,5.225
		c-0.031-1.842-0.248-3.567-0.65-5.175c-0.467-1.333-0.817-2.35-1.05-3.05c-0.434-1.233-0.617-2.283-0.55-3.15
		c-0.066,0.367-0.133,1.1-0.2,2.2c-0.034,0.934-0.133,1.667-0.3,2.2c-0.633-1.3-1.15-2.667-1.55-4.1
		c-0.295-1.179-0.453-2.229-0.475-3.15c-0.193,0.676-0.651,1.376-1.375,2.1c-0.633,0.667-1.6,1.517-2.9,2.55
		c-1.434,1.4-2.467,2.517-3.1,3.35c-0.927,1.255-1.477,2.514-1.65,3.775c0.143-1.362,0.259-2.42,0.35-3.175
		c0.167-1.467,0.45-2.633,0.85-3.5c-2.167,2.3-3.833,5.667-5,10.1c-1.1,4.167-1.433,7.883-1,11.15c-0.8-4-1.333-6.85-1.6-8.55
		c-0.5-3.233-0.717-6.133-0.65-8.7c-1.133,2.833-1.583,6.533-1.35,11.1c0.1,1.767,0.55,5.55,1.35,11.35
		c-0.233-1.133-0.716-2.767-1.45-4.9c-0.767-2.2-1.267-3.833-1.5-4.9c-0.633-2.7-1-5.667-1.1-8.9c-0.033-1.767,0.033-4.767,0.2-9
		c0.3-6.8,4.316-12.883,12.05-18.25C19.117,91.333,26.2,88.65,33.5,88.05z"/>
	<g>
		
			<use xlink:href="#flash0.ai_x2F_Layer_1_x2F__x3C_Path_x3E_"  width="-32766" height="-32766" x="16383" y="16383" transform="matrix(1 0 0 -1 106.9004 196.75)" style="overflow:visible;opacity:0.1484;enable-background:new    ;"/>
		
			<use xlink:href="#flash0.ai_x2F_Layer_1_x2F__x3C_Compound_Path_x3E_"  width="113.43" height="169.712" x="0.046" y="-169.751" transform="matrix(1 0 0 -1 23.4502 32.8501)" style="overflow:visible;opacity:0.1484;enable-background:new    ;"/>
	</g>
	<path style="fill-rule:evenodd;clip-rule:evenodd;fill:#CEEDE0;" d="M122.55,245.25c0.634,0.366,1.334,0.917,2.101,1.65
		c0.433,0.399,1.05,1.017,1.85,1.85c0.4,0.333,1.066,0.7,2,1.1c0.366,0.134,0.75,0.184,1.15,0.15c0.267,0,0.683-0.05,1.25-0.15
		c0.6-0.033,1.216,0.084,1.85,0.351c-0.934,0.233-1.5,0.467-1.7,0.7c0.934-0.367,1.75-0.2,2.45,0.5
		c-0.351,0-0.626-0.009-0.825-0.025c0.383,0.069,0.725,0.345,1.025,0.825c0.066,0.066,0.3,0.5,0.7,1.3c0.466,1,0.733,2.25,0.8,3.75
		c0.233,4.167-0.533,8.684-2.3,13.55c-0.834,2.434-1.5,4.117-2,5.05c0.8-2.3,1.267-5.283,1.399-8.949
		c0.033-1.834,0.05-2.95,0.05-3.351c-0.066-1.3-0.283-2.366-0.649-3.2c-0.101,0.5-0.167,1.367-0.2,2.601
		c-0.033,1.166-0.116,2.033-0.25,2.6c-0.134,0.601-0.267,1.434-0.4,2.5c-0.199,0.9-0.533,1.767-1,2.601
		c0.334-1.601,0.301-3.534-0.1-5.801c-0.4,1.301-0.6,2.517-0.6,3.65c-0.101-0.733-0.284-1.533-0.551-2.4
		c-0.233-0.866-0.383-1.55-0.449-2.05c-0.067-0.399-0.317-1.184-0.75-2.35c-0.4-1-0.584-1.783-0.551-2.351
		c-0.5,1.167-0.666,2.134-0.5,2.9c-0.399-1.1-0.683-2.467-0.85-4.1c-0.033-0.567-0.384-1.417-1.05-2.551
		c-0.585-1.039-0.885-1.839-0.9-2.399c0.002,0.462,0.035,1.146,0.101,2.05c0.066,0.934,0.083,1.634,0.05,2.1
		c-0.3-1.066-0.566-1.866-0.8-2.399c-0.134,0.566-0.267,1.434-0.4,2.6c-0.033,0.267-0.15,0.767-0.35,1.5
		c-0.167,0.601-0.267,1.084-0.301,1.45c0.034-0.866,0.067-1.533,0.101-2c0-0.833-0.033-1.517-0.101-2.05
		c-0.066-0.467-0.3-1.134-0.699-2c-0.434-0.934-0.817-1.483-1.15-1.65c-0.7,2.066-0.833,3.566-0.4,4.5
		c-0.767-1.566-1.166-3.083-1.199-4.55c0.133-1.167,0.216-2.033,0.25-2.6c0.066-0.4,0.066-0.801,0-1.2c-0.034-0.2-0.2-0.834-0.5-1.9
		c-0.2-0.767-0.25-1.399-0.15-1.899c0.1-0.367,0.2-1.051,0.3-2.051c0.134-1.133,0.217-1.833,0.25-2.1
		c0.101,0.533,0.283,1.783,0.55,3.75c0.167-0.5,0.334-0.866,0.5-1.1c-0.033,0.433,0.367,0.783,1.2,1.05
		C121.233,244.866,121.816,245.05,122.55,245.25z"/>
	<path style="fill-rule:evenodd;clip-rule:evenodd;fill:#CEEDE0;" d="M130.3,139.15c-0.133-1.167,0.45-1.9,1.75-2.2
		c1.467-0.367,2.934-0.35,4.4,0.05c1.967,0.567,3.166,1.517,3.6,2.85c0.3,0.867,0.45,1.833,0.45,2.9c0,0.667-0.033,1.883-0.1,3.65
		c0.033,1.967-0.217,4.3-0.75,7c0-1.7-0.034-2.983-0.101-3.85c0-0.167-0.133-0.733-0.399-1.7c-0.248-0.836-0.348-1.353-0.301-1.55
		c-0.113,0.363-0.347,0.93-0.699,1.7c-0.267,0.733-0.334,1.333-0.2,1.8c-0.066-0.167-0.367-1.533-0.9-4.1
		c-0.333-1.8-0.934-3-1.8-3.6c-0.033,0.367-0.134,1.267-0.3,2.7c-0.101,1.3-0.033,2.167,0.2,2.6c-1.767-2.833-2.834-5.133-3.2-6.9
		c0.033,0.533-0.101,1.283-0.4,2.25c-0.166,0.533-0.416,1.283-0.75,2.25c0.033-1.367,0.05-2.4,0.05-3.1
		c-0.033-0.367-0.116-0.833-0.25-1.4C130.434,139.833,130.333,139.383,130.3,139.15z"/>
	
		<use xlink:href="#flash0.ai_x2F_Layer_1_x2F__x3C_Path_x3E__x5F_2"  width="49.294" height="62.579" x="-0.012" y="-62.575" transform="matrix(1 0 0 -1 60.3501 172.8999)" style="overflow:visible;opacity:0.1484;enable-background:new    ;"/>
	
		<linearGradient id="SVGID_4_" gradientUnits="userSpaceOnUse" x1="175.5674" y1="-69.626" x2="213.2554" y2="-69.626" gradientTransform="matrix(0.0683 0.9977 -0.9977 0.0683 1.552701e-005 2.134591e-004)">
		<stop  offset="0" style="stop-color:#CEEDE0"/>
		<stop  offset="1" style="stop-color:#BDDAC9"/>
	</linearGradient>
	<path style="fill-rule:evenodd;clip-rule:evenodd;fill:url(#SVGID_4_);" d="M56.3,197.8c0.434-6.934,2.983-13.167,7.65-18.7
		c4.867-5.767,10.65-8.983,17.35-9.65c4.7-0.434,9.533,0.617,14.5,3.15c5.167,2.633,8.851,6.083,11.05,10.35
		c2.233,4.233,3.467,9.767,3.7,16.6c0.066,2.634-0.017,5.05-0.25,7.25c-0.3,2.634-0.899,5.634-1.8,9
		c-0.066-3.566-0.566-6.816-1.5-9.75c-1-3.066-2.517-6.05-4.55-8.95c-0.367,2.2-0.65,3.617-0.851,4.25
		c-0.466,1.601-1.199,2.817-2.199,3.65c-0.733-1.333-1.25-2.25-1.551-2.75c-0.233,1.866-0.449,3.1-0.649,3.7
		c-0.601-1.101-2.066-3.316-4.4-6.65c0.033,3.033-0.149,6.316-0.55,9.851c-0.3-0.7-1.167-2.117-2.6-4.25
		c-1.131-1.68-1.839-3.121-2.125-4.325c0.481,2.372,0.673,4.247,0.574,5.625c-1.033-0.733-2.05-2.434-3.05-5.101
		c-0.967-2.566-1.983-4.149-3.05-4.75c0.066,1.601-1.35,3.617-4.25,6.051c-3.4,2.833-5.333,4.733-5.8,5.699
		c0-0.933,0.066-2.267,0.2-4c0.167-1.8,0.25-3.116,0.25-3.949c-1.633,1.733-2.517,3.583-2.65,5.55c-0.7-2.601-1.183-4.517-1.45-5.75
		c-0.033,1.5-0.233,4.1-0.6,7.8c-0.347,3.089-0.497,5.563-0.45,7.425c-0.286-1.325-1.136-3.617-2.55-6.875
		c-1.333-3.066-1.967-5.55-1.9-7.45c-0.433,1.4-0.65,2.95-0.65,4.65c-0.967-1.833-1.583-3.4-1.85-4.7c-0.3-1.566-0.216-3.233,0.25-5
		c-0.933,1.101-1.667,2.634-2.2,4.601c-0.267,1-0.6,2.683-1,5.05c-0.333-1.7-0.583-2.967-0.75-3.8
		C56.333,200.184,56.233,198.9,56.3,197.8z"/>
	
		<linearGradient id="SVGID_5_" gradientUnits="userSpaceOnUse" x1="6.4321" y1="-84.2549" x2="110.4034" y2="-84.2549" gradientTransform="matrix(-0.0298 0.9996 -0.9996 -0.0298 1.109280e-004 2.291482e-004)">
		<stop  offset="0" style="stop-color:#CEEDE0"/>
		<stop  offset="1" style="stop-color:#BDDAC2"/>
	</linearGradient>
	<path style="fill-rule:evenodd;clip-rule:evenodd;fill:url(#SVGID_5_);" d="M156.1,46.15c1.5,2.867,2.084,6.3,1.75,10.3
		c-0.199,2.233-0.716,4.117-1.55,5.65c-0.833,1.5-2.116,2.933-3.85,4.3c-0.9,0.7-2.101,1.9-3.601,3.6c0-1.267-0.25-2.683-0.75-4.25
		c-0.433,1.3-1.616,3.3-3.55,6c-1.767,2.467-2.8,4.5-3.1,6.1c0.166-1.167,0.133-2.633-0.101-4.4c-0.333-2.467-0.517-3.917-0.55-4.35
		c-0.033,2.533-0.916,5.4-2.649,8.6c-2.369,4.381-3.728,7.056-4.075,8.025c0.61-1.834,0.702-4.576,0.274-8.225
		c-0.066-0.567-0.416-2-1.05-4.3c-0.533-1.767-0.7-3.184-0.5-4.25c-0.7,1.233-0.899,2.55-0.6,3.95c-0.533-1.1-0.834-2.55-0.9-4.35
		c-0.133-2.566-0.233-4.05-0.3-4.45c-0.2-1.167-0.767-2.367-1.7-3.6c-1-1.267-2.033-2.1-3.1-2.5c0.333,0.333,0.533,1.05,0.6,2.15
		c0.066,1.025,0.233,1.642,0.5,1.85c-1.901-1.402-3.435-3.036-4.6-4.9c0.1,0.333,0.166,0.85,0.2,1.55c0,0.767,0.05,1.317,0.149,1.65
		c0.233,0.8,0.834,1.934,1.8,3.4c-1.733-0.1-3.533-1.867-5.399-5.3c-2.967-5.4-5.467-7.95-7.5-7.65c0.1,0.767,0.5,2.45,1.2,5.05
		c-0.4-0.733-0.934-1.383-1.601-1.95c-0.333-0.267-1.033-0.783-2.1-1.55c-0.533-0.4-1.017-0.983-1.45-1.75
		c-0.6-1.066-0.983-1.7-1.15-1.9c-0.3,0.3-0.6,0.934-0.899,1.9c-0.3,1-0.351,1.684-0.15,2.05c-0.733-1.133-1.25-2-1.55-2.6
		c-0.394-0.787-0.594-1.562-0.6-2.325c-0.252,1.396-1.618,2.371-4.101,2.925c-3.267,0.367-5.333,0.6-6.2,0.7
		c0.567-0.9,0.934-1.45,1.101-1.65c-0.867,0.067-1.917,0.184-3.15,0.35c-1.7,0.233-2.649,0.467-2.85,0.7
		c1.033-1.367,1.833-2.85,2.399-4.45c-1.466,1.567-3.416,2.717-5.85,3.45c2.134-2.233,3.616-4.534,4.45-6.9
		c-1.233,1.434-4.217,2.3-8.95,2.6c-4.533,0.267-7.383,1.317-8.55,3.15c-0.167-1.1-0.284-2.35-0.35-3.75
		c-2.033,1.967-3.017,3.8-2.95,5.5c-0.167-0.767-0.967-1.617-2.4-2.55c-1.567-0.9-2.583-1.55-3.05-1.95c0,3,0.283,4.6,0.85,4.8
		c-2.9-0.967-4.75-1.617-5.55-1.95c-2.267-1-3.817-2.133-4.65-3.4c-0.1,1.867,0.033,3.717,0.4,5.55c-0.7-0.6-1.333-1.383-1.9-2.35
		c-0.2-0.3-0.667-1.2-1.4-2.7c-0.4,0.667-0.784,1.783-1.15,3.35c-0.1-3.4-0.133-5.317-0.1-5.75c-0.967,1.066-3.467,2.45-7.5,4.15
		c-3.4,1.433-5.534,3.267-6.4,5.5c-0.333-2.233-0.4-3.85-0.2-4.85c-0.367,0.733-0.967,1.867-1.8,3.4
		c-0.633,1.367-0.917,2.6-0.85,3.7c-0.034-0.133-0.434-1.167-1.2-3.1c-0.41-1.012-0.677-1.92-0.8-2.725
		c0.082,1.953-1.234,4.928-3.95,8.925c-2.724,4.004-3.607,7.121-2.65,9.35c-0.999-2.163-1.449-4.163-1.35-6
		c-1.067,1.9-1.683,4.216-1.85,6.95c-0.2,2.8,0.167,5.167,1.1,7.1c-1.433-2.733-2.517-4.8-3.25-6.2c-1.256-2.512-1.79-4.745-1.6-6.7
		c-0.9,2.3-0.917,5.35-0.05,9.15c0.3,1.333,1.25,4.333,2.85,9c-4.167-7.2-7.083-13.65-8.75-19.35c-1.2-4.033-1.95-7.267-2.25-9.7
		c-0.473-4.065-0.006-7.057,1.4-8.975c-0.866,1.101-1.466,2.259-1.8,3.475c-1.133-3.5-0.917-7.217,0.65-11.15
		c1.533-3.9,3.867-6.7,7-8.4c-1.967,0.3-3.517,0.684-4.65,1.15c-1.469,0.563-2.702,1.404-3.7,2.525
		c1.754-2.094,3.371-3.735,4.85-4.925c1.8-1.5,3.867-2.733,6.2-3.7c0.833-0.333,2.05-0.784,3.65-1.35c1.4-0.533,2.55-1.1,3.45-1.7
		c1.767-1.133,4-3.017,6.7-5.65c2.867-2.8,5.033-4.733,6.5-5.8c7.466-5.333,16.566-7.8,27.3-7.4c8.567,0.333,17.9,2.467,28,6.4
		c6.566,2.6,12.884,4.767,18.95,6.5c1.733,0.5,4.184,0.85,7.35,1.05c3.566,0.2,6.066,0.45,7.5,0.75c7.634,1.467,13.5,3.9,17.601,7.3
		c2.699,2.233,4.666,4.6,5.899,7.1c0.3,0.633,0.867,2.267,1.7,4.9c0.634,2.034,1.366,3.6,2.2,4.7c-0.834-0.933-1.467-1.633-1.9-2.1
		c0.334,2.067,1.117,3.733,2.351,5c-0.601-0.467-1.351-1.117-2.25-1.95c-1.2-1.1-1.95-1.784-2.25-2.05
		c0.699,0.967,1.449,2.367,2.25,4.2C155.15,44.183,155.8,45.617,156.1,46.15z"/>
</g>
</svg>
