<?xml version="1.0" encoding="iso-8859-1"?>
<!-- Generator: Adobe Illustrator 15.1.0, SVG Export Plug-In . SVG Version: 6.00 Build 0)  -->
<!DOCTYPE svg PUBLIC "-//W3C//DTD SVG 1.1//EN" "http://www.w3.org/Graphics/SVG/1.1/DTD/svg11.dtd">
<svg version="1.1" id="Layer_1" xmlns="http://www.w3.org/2000/svg" xmlns:xlink="http://www.w3.org/1999/xlink" x="0px" y="0px"
	 width="155.2px" height="302px" viewBox="0 0 155.2 302" style="enable-background:new 0 0 155.2 302;" xml:space="preserve">
<symbol  id="flash0.ai_x5F_1_x2F_Layer_1_x2F__x3C_Path_x3E__x5F_2" viewBox="-0.062 -45.25 48.535 45.228">
	<g id="Layer_1_5_">
		<path style="fill-rule:evenodd;clip-rule:evenodd;fill:#8FB5B0;" d="M41.25-27.9c-1.253-1.053-2.22-2.312-2.9-3.775
			c0.163,0.643,0.28,1.384,0.35,2.225c-2.267-2.367-3.367-5.25-3.3-8.65c-0.566,2.833-0.833,4.95-0.8,6.35
			c0.033,1.233-0.3,2.467-1,3.7c-0.178,0.27-0.344,0.528-0.5,0.775c0.491-0.551,0.975-0.893,1.45-1.025
			c0.8-0.233,1.667-0.067,2.6,0.5c1.3,0.833,2.167,1.3,2.6,1.4c0.4,0.1,1.05,0.117,1.95,0.05c0.867-0.033,1.533,0.017,2,0.15
			c0.07,0.022,0.136,0.047,0.2,0.075C42.792-26.759,41.909-27.351,41.25-27.9z M46.425-24.525L47.1-24.5
			c-0.489-0.229-0.956-0.454-1.4-0.675C45.957-24.981,46.199-24.765,46.425-24.525l-14.6-0.775c0.339-0.541,0.764-1.199,1.275-1.975
			c-0.135,0.143-0.269,0.302-0.4,0.475c-0.436,0.513-0.761,1.013-0.975,1.5H31.55c0.034-2.367-0.15-4.934-0.55-7.7
			c-0.3,0.633-1.15,1.817-2.55,3.55c-1.167,1.434-1.867,2.65-2.1,3.65c0.267-1.267,0.433-2.05,0.5-2.35
			c0.133-0.867,0.15-1.667,0.05-2.4c-0.933,0.566-1.833,1.466-2.7,2.7c-0.893,1.323-1.293,2.415-1.2,3.275
			c-0.176-1.254-1.16-2.296-2.95-3.125c-2.167-1.033-3.5-1.9-4-2.6c0.333,1.566,0.4,2.75,0.2,3.55c-2.333-2.167-3.867-4.6-4.6-7.3
			c-0.2-0.8-0.65-2.367-1.35-4.7c-0.667-2.4-1.1-4.567-1.3-6.5c-0.233,3.233-0.45,5.667-0.65,7.3c-0.3,2.934-0.8,5.067-1.5,6.4
			c-0.867,1.733-2.067,3.433-3.6,5.1c-1.267,1.4-2.117,2.767-2.55,4.1c-1.2,3.533-0.983,7.25,0.65,11.15
			c1.333,3.133,3.833,5.717,7.5,7.75C12.283-1.517,16.1-0.4,20.3-0.1c3.367,0.267,6.833-0.15,10.4-1.25c3.3-1,6.35-2.467,9.15-4.4
			c4.767-3.333,7.55-6.783,8.35-10.35c0.433-2.033,0.35-3.967-0.25-5.8C47.598-22.955,47.09-23.83,46.425-24.525z"/>
	</g>
</symbol>
<symbol  id="flash0.ai_x5F_1_x2F_Layer_1_x2F__x3C_Path_x3E__x5F_4" viewBox="0.038 -277.995 111.695 277.975">
	<g id="Layer_1_4_">
		<path style="fill-rule:evenodd;clip-rule:evenodd;fill:#8FB5B0;" d="M107.2-12.2c3.9-1.966,5.283-4.066,4.15-6.3
			c-0.267-0.5-1.233-1.95-2.9-4.35c-1.167-1.7-1.883-3.25-2.15-4.65c-0.167-0.767-0.316-2.067-0.45-3.9
			c-0.167-1.6-0.383-2.9-0.65-3.9c-1.934,2.466-3.317,4-4.15,4.6c-1.267,0.934-3.267,0.767-6-0.5c-0.566,1.267-1.95,1.917-4.15,1.95
			c-1.967,0.067-3.6-0.317-4.9-1.15c-1.233-0.767-1.967-1.767-2.2-3c-0.133-0.733-0.25-1.967-0.35-3.7
			c-0.1-0.566-0.684-2.2-1.75-4.9c-0.7-1.867-0.9-3.583-0.6-5.15c-2.567-3.9-2.267-7.983,0.9-12.25c1.3-1.733,2.45-2.684,3.45-2.85
			c1.2-0.233,2,0.733,2.4,2.9c0.133,0.733-0.217,3.133-1.05,7.2c-0.633,3.066-0.15,5.333,1.45,6.8c0.133-0.433,0.383-2.4,0.75-5.9
			c0.3-2.767,0.9-4.55,1.8-5.35c1.4-1.233,2.633-1.183,3.7,0.15c0.6,0.733,1.3,2.05,2.1,3.95c0.967-0.3,2.25-1.567,3.85-3.8
			c2-2.733,3.216-4.3,3.65-4.7c-0.6-0.967-2.467-1.633-5.6-2c-4.467-0.5-6.75-0.767-6.85-0.8c-3.033-0.867-5.75-3.017-8.15-6.45
			c-2.067-2.933-3.383-5.933-3.95-9c-0.333-1.767-0.25-3.933,0.25-6.5c0.567-3.067,0.833-5.217,0.8-6.45
			c-0.067-2.2-0.65-5.55-1.75-10.05c-1.033-4.3-1.55-7.667-1.55-10.1c0.034-2.533,1.534-11.15,4.5-25.85
			c2.667-13.3,3.633-21.883,2.9-25.75c-0.567,0.133-1.367,1.483-2.4,4.05c0.167-2.8,0.3-7,0.4-12.6c0.3-4.867,1.1-9.033,2.4-12.5
			c0.5-1.367,0.883-2.85,1.15-4.45c0.333-2.2,0.433-5.05,0.3-8.55c-0.233-4.667-0.333-7.55-0.3-8.65c0.1-4.934-0.367-9.6-1.4-14
			c-0.267-1.2-1.017-3.55-2.25-7.05c-1.033-2.966-1.65-5.316-1.85-7.05c-0.133-1.233,0-2.75,0.4-4.55
			c0.233-1.034,0.617-2.534,1.15-4.5c0.534-2.1,0.934-4.6,1.2-7.5c0.133-1.633,0.333-4.133,0.6-7.5c0.3-2.4,0.667-4.517,1.1-6.35
			l0.5-0.15c0.6,0.7,0.95,1.816,1.05,3.35c0.033,1.667,0.1,2.85,0.2,3.55c0.767,3.767,1.267,6.583,1.5,8.45
			c0.167,1.434,0.5,3.034,1,4.8c0.2,0.7,0.7,2.283,1.5,4.75c0.267,1.033,0.466,1.816,0.6,2.35c0.267,1,0.567,1.716,0.9,2.15
			c0.267-3.3-0.05-7.5-0.95-12.6c-1.333-7.5-2.05-11.683-2.15-12.55c-0.133-1.2-0.25-2.934-0.35-5.2c-0.1-2.367-0.2-4.083-0.3-5.15
			c-0.034-0.367,0.117-1.35,0.45-2.95c0.233-1.133,0.033-1.967-0.6-2.5c-0.7-0.633-3.3-1-7.8-1.1c-3.967-0.1-6.783-0.033-8.45,0.2
			c-0.133,5.467,0.133,11.067,0.8,16.8c0.2,1.833,0.65,4.417,1.35,7.75c0.333,1.733,0.433,3.967,0.3,6.7
			c-0.3,6.367,0.15,14.183,1.35,23.45c0.4,2.733,0.683,4.8,0.85,6.2c0.3,2.467,0.383,4.55,0.25,6.25c-0.1,1.233-0.567,3.367-1.4,6.4
			c-0.733,2.733-1.083,4.883-1.05,6.45c0.033,1.2,0.433,2.967,1.2,5.3c0.867,2.567,1.367,4.367,1.5,5.4
			c0.933,7,1.65,15.316,2.15,24.95c0.033,0.667,0,2.267-0.1,4.8c-0.067,2.133-0.017,3.8,0.15,5c0.167,0.966-0.15,2.5-0.95,4.6
			c-0.967,2.5-1.5,4.083-1.6,4.75c-0.167,1.7-0.283,2.983-0.35,3.85c-0.167,1.5-0.483,2.75-0.95,3.75
			c-3.733-2.467-6.017-5.066-6.85-7.8c-0.7-2.233-0.917-5.05-0.65-8.45c0.133-1.9,0.367-4.733,0.7-8.5
			c0.033-2.933-0.3-6.417-1-10.45c-0.4-2.267-1.067-5.684-2-10.25c-0.467-2.667-0.417-6.417,0.15-11.25
			c0.6-5.333,0.817-9.117,0.65-11.35c-0.667,1.167-1.183,2.733-1.55,4.7c-0.333,2.2-0.633,3.817-0.9,4.85
			c-0.167,0.633-0.667,2.033-1.5,4.2c-0.7,1.8-1.1,3.217-1.2,4.25c-0.267,2.2-0.117,5.35,0.45,9.45c0.7,4.8,1.05,8,1.05,9.6
			c-0.033,2.333-0.45,5.3-1.25,8.9c-1,4.467-1.583,7.35-1.75,8.65c-0.3,2.4,0.417,5.5,2.15,9.3c2.667,5.767,4.034,8.783,4.1,9.05
			c1.133,3.467,1.383,7.784,0.75,12.95c-0.333,2.6-1.2,6.9-2.6,12.9c-1.133,3-1.933,5.3-2.4,6.9c-0.8,2.8-0.55,5.117,0.75,6.95
			c-2.5-1.2-4.283-2.267-5.35-3.2c-0.1,0.934-0.033,2.067,0.2,3.4c0.333,1.466,0.55,2.566,0.65,3.3c-1.3-1.167-2.333-2.933-3.1-5.3
			c-1.433,2.933-2,6.483-1.7,10.65c0.3,4.167,1.367,7.65,3.2,10.45c0.867,1.333,2.167,2.983,3.9,4.95c2.033,2.367,3.367,3.967,4,4.8
			c2.667,3.534,3.9,8,3.7,13.4c-0.167,4.933-1.417,9.45-3.75,13.55c-0.667,1.2-1.2,3.05-1.6,5.55c-0.367,2.534-0.867,4.367-1.5,5.5
			c-2.7,4.934-5,6-6.9,3.2c-0.566-0.867-0.867-2.333-0.9-4.4c-0.033-1.1-0.05-2.6-0.05-4.5c-0.267-3.333-0.367-7.2-0.3-11.6
			c0.033-0.7-0.083-2.883-0.35-6.55c-0.367,0.4-0.85,2.033-1.45,4.9c-1.033,5-1.65,7.867-1.85,8.6c-1.9,7.767-4.133,11.25-6.7,10.45
			c-0.9-0.3-1.566-1.117-2-2.45c-0.233-0.733-0.483-1.75-0.75-3.05c-0.066-0.133-1.017,1.233-2.85,4.1
			c-0.4,0.733-0.717,1.25-0.95,1.55c-0.333,0.434-0.783,0.883-1.35,1.35c-1.533,1.267-2.9,2.083-4.1,2.45
			c-1.566,0.5-3.133,0.383-4.7-0.35l0.7-3.35c0.867-3.267,1.6-7.367,2.2-12.3c0.433-3.434,1-9.217,1.7-17.35
			c0.233-2.667,0.633-6.683,1.2-12.05c0.367-4.667,0.3-8.667-0.2-12c-0.434-3.067-1.333-7.534-2.7-13.4
			c-0.9-5.167-0.75-9.683,0.45-13.55c1.7-5.433,3-9.917,3.9-13.45c1.3-5.167,2.133-9.716,2.5-13.65
			c-2.767,1.767-5.067,5.833-6.9,12.2c-1.534,5.233-2.284,9.833-2.25,13.8c0.033,2.133-0.733,5.217-2.3,9.25
			c-1.6,4.133-2.417,7.267-2.45,9.4c-0.067,1.567-0.133,2.733-0.2,3.5c-0.067,1.434,0.017,2.617,0.25,3.55
			c0.9,2.8,1.417,4.967,1.55,6.5c0.267,3.1,0.083,5.316-0.55,6.65c-1.233,2.567-2.133,5.183-2.7,7.85
			c-0.8,3.867-1.55,6.917-2.25,9.15c-0.9,2.9-1.483,4.85-1.75,5.85c-0.466,1.867-0.25,4.367,0.65,7.5
			c0.8,2.933,0.883,5.167,0.25,6.7c-0.6,1.4-1.1,3.4-1.5,6l-0.3-0.2c-0.767-0.7-1.167-1.7-1.2-3c-0.034-1.633-0.2-2.767-0.5-3.4
			c-0.767,1.667-2,3.1-3.7,4.3c-2.1,1.467-3.45,0.983-4.05-1.45c-2,3.3-3.5,5.883-4.5,7.75c-1.833,3.4-2.15,5.967-0.95,7.7
			C2.483-9.033,6.2-6.983,11.9-5.35C14-4.717,18.417-3.767,25.15-2.5c9.867,1.833,19.684,2.65,29.45,2.45
			c10.6-0.2,18.05-0.567,22.35-1.1c8.466-1.067,15.3-3.283,20.5-6.65C99.017-8.8,102.267-10.267,107.2-12.2z"/>
	</g>
</symbol>
<symbol  id="flash0.ai_x5F_1_x2F_Layer_1_x2F__x3C_Path_x3E__x5F_6">
	<g id="Layer_1_3_">
	</g>
</symbol>
<symbol  id="flash0.ai_x5F_1_x2F_Layer_1_x2F__x3C_Path_x3E__x5F_7" viewBox="0.058 -135.35 34.542 135.35">
	<g id="Layer_1_2_">
		<path style="fill-rule:evenodd;clip-rule:evenodd;fill:#8FB5B0;" d="M7.85,0C8.183-0.7,8.467-1.767,8.7-3.2
			c0.5-2.867,0.55-6.183,0.15-9.95C8.517-16.117,9-19.6,10.3-23.6c1.934-6,2.983-9.383,3.15-10.15c0.433-2.167,1.45-5.633,3.05-10.4
			c1.267-4.367,1.7-7.867,1.3-10.5c-0.566-3.9-0.716-7.233-0.45-10c0.3-3.333,1.233-6.417,2.8-9.25c0.633-1.1,1.3-2.85,2-5.25
			c0.7-2.367,1.35-4.1,1.95-5.2c0.033,7.633,0.933,15.533,2.7,23.7c0-1.833-0.083-5.25-0.25-10.25c-0.167-4.3-0.2-7.717-0.1-10.25
			c0.133-2.133,0.733-5.167,1.8-9.1c1.1-4,1.717-7,1.85-9c0.367-5.9,1.867-17.933,4.5-36.1l-6.65,1.65l-2.3,11.05
			c-1.233,6.033-2.483,14.25-3.75,24.65c-0.566,5.033-1.333,9.183-2.3,12.45c-0.733,2.566-1.85,5.433-3.35,8.6
			c-1.167,2.4-1.917,5.7-2.25,9.9c-0.067,0.8-0.183,3.983-0.35,9.55c-0.133,3.967-0.65,7.35-1.55,10.15
			c-0.133,0.4-0.783,1.583-1.95,3.55c-0.868,1.487-1.317,2.612-1.35,3.375C8.809-41.9,8.925-44.259,9.15-47.5
			c0.167-3.067,0.017-5.4-0.45-7c-0.767,2-2.017,5.483-3.75,10.45c-1.534,4.466-2.817,7.933-3.85,10.4
			c-1.667,3.967-1.333,9.583,1,16.85C3.367-12.8,5.283-7.2,7.85,0z"/>
	</g>
</symbol>
<g>
	<path style="fill-rule:evenodd;clip-rule:evenodd;fill:#AFCFB5;" d="M116.9,244.8c0.899,0.733,2.916,1.867,6.05,3.4
		c2.533,1.533,3.533,3.017,3,4.45c-0.4,1.033-1.45,3.216-3.15,6.55c-1.434,2.767-2.35,4.983-2.75,6.649
		c-0.133,0.567-0.217,1.551-0.25,2.95c-0.066,1.2-0.217,2.167-0.45,2.9c-0.3,0.934-0.6,2.467-0.899,4.6
		c-0.3,1.934-0.667,3.45-1.101,4.55c-1.233,3.233-2.083,5.867-2.55,7.9c-0.399,1.866-0.566,3.634-0.5,5.3
		c0.066,1.066,0.2,2.334,0.4,3.8c0.033,0.934-0.233,1.434-0.8,1.5c-2.367,0.767-4.417,1.317-6.15,1.65
		c-3.333,0.634-4.85,0.15-4.55-1.45c0.233-1.166,0.85-3.767,1.85-7.8l6.95-28c0.934-4.167,1.634-7.3,2.1-9.4
		c0.867-3.767,1.784-6.899,2.75-9.399L116.9,244.8z"/>
	
		<linearGradient id="SVGID_1_" gradientUnits="userSpaceOnUse" x1="24.3433" y1="157.9424" x2="149.0226" y2="157.9424" gradientTransform="matrix(0.9992 0.0409 -0.0409 0.9992 -4.686788e-005 5.081296e-006)">
		<stop  offset="0" style="stop-color:#AFCFB5"/>
		<stop  offset="0.2275" style="stop-color:#A8C4B0"/>
		<stop  offset="0.502" style="stop-color:#A3BCAD"/>
		<stop  offset="1" style="stop-color:#AFCFB5"/>
	</linearGradient>
	<path style="fill-rule:evenodd;clip-rule:evenodd;fill:url(#SVGID_1_);" d="M135.4,33.8c0.1,1.367-0.334,3.2-1.301,5.5
		c-1,2.434-2.199,4.3-3.6,5.6c-1.5,1.434-2.634,3.533-3.4,6.3c-0.833,2.933-1.116,6.267-0.85,10c0.267,3.333,0.217,5.917-0.15,7.75
		c-0.199,1.167-0.683,2.883-1.449,5.15c-0.534,2.133-0.367,4.267,0.5,6.4c0.866,2.1,2.199,3.667,4,4.7
		c2.399,1.367,3.683,2.117,3.85,2.25c0.767,0.667,1.017,1.683,0.75,3.05c-0.167,0.967-1.066,2.233-2.7,3.8
		c-1.533,1.434-2.316,2.633-2.35,3.6c-0.066,2.5-0.617,5.9-1.65,10.2c-1.2,4.833-1.899,8.233-2.1,10.2
		c-0.334,3.633-0.55,8.45-0.65,14.45c-0.1,7-0.233,11.817-0.399,14.45c-0.034,0.6,0,2.35,0.1,5.25c0.066,2.233-0.05,3.983-0.35,5.25
		c-0.301,1.434-1.051,2.8-2.25,4.1c-1.9,2.134-2.95,3.351-3.15,3.65c-1.833,2.666-3.083,5.934-3.75,9.8
		c-0.333,1.967-0.634,5.417-0.9,10.35c-0.1,1.801-0.466,4.867-1.1,9.2c-0.3,3.867,0.134,6.851,1.3,8.95
		c0.233,0.4,1.517,1.167,3.851,2.3c2.3,1.101,3.633,1.967,4,2.601c1,1.767,1.3,4.6,0.899,8.5c-0.233,2.166-0.633,5.1-1.2,8.8
		c-0.533,6.5-2.383,18.517-5.55,36.05c-2.733,15.066-4.116,27.116-4.149,36.15c-0.034,3.466-7.417,4.583-22.15,3.35
		c-4.733-0.4-10-1.017-15.8-1.85c-1.167-0.2-3.967-0.65-8.4-1.351c-1.133-0.2-2.167-2.434-3.1-6.7
		c-0.934-5.366-1.717-9.216-2.35-11.55c-1.533-5.033-2.684-8.983-3.45-11.85c-1.367-5.101-2.066-9.45-2.1-13.05
		c-0.033-3.4-0.75-6.717-2.15-9.95c-2.1-4.767-3.283-7.617-3.55-8.55c-0.6-6.534-1.167-12.017-1.7-16.45
		c-1.066-8.467-2.7-11.867-4.9-10.2c-0.433,0.733-0.45,2.583-0.05,5.55c0.3,2.167-0.117,2.917-1.25,2.25
		c-3.133-4.733-5.55-11.816-7.25-21.25c-0.167-1-0.284-3.017-0.35-6.05c-0.067-2.566-0.333-4.55-0.8-5.95
		c-0.633-2-1.883-4.55-3.75-7.649c-2.066-3.434-3.333-5.75-3.8-6.95c-2.133-5.167-0.467-9.7,5-13.601
		c1.533-1.133,4.15-2.649,7.85-4.55c3.566-1.867,6.167-3.4,7.8-4.6c-0.333-1.3-0.633-3.567-0.9-6.8
		c-0.233-2.967-0.633-5.267-1.2-6.9c-0.267-0.833-0.85-2.033-1.75-3.6c-0.9-1.533-1.483-2.733-1.75-3.6
		c-0.167-0.533-0.433-1.783-0.8-3.75c-0.3-1.533-0.683-2.783-1.15-3.75c-0.833-1.8-2.1-3.883-3.8-6.25c-1.966-2.667-3.4-4.667-4.3-6
		c-3.233-4.767-4.7-9.15-4.4-13.15c0-0.167-0.367-2.617-1.1-7.35c-0.5-3.267-0.033-5.483,1.4-6.65c0.6-0.5,1.517,0.533,2.75,3.1
		c1.067,2.233,2.033,2.317,2.9,0.25c1-2.4,1.067-5.783,0.2-10.15c-1.233-4.8-1.983-8.2-2.25-10.2c-0.5-3.8-1.75-8.233-3.75-13.3
		c-1.633-4.133-3.283-7.583-4.95-10.35c-2.367-4,4.434-8.083,20.4-12.25c14.8-3.867,27.05-5.583,36.75-5.15
		c8.2,0.4,19.866,2.25,35,5.55C127.733,30.167,135.3,32.467,135.4,33.8z"/>
	
		<use xlink:href="#flash0.ai_x5F_1_x2F_Layer_1_x2F__x3C_Path_x3E__x5F_7"  width="34.542" height="135.35" x="0.058" y="-135.35" transform="matrix(1 0 0 -1 42.2998 164.9004)" style="overflow:visible;opacity:0.1484;enable-background:new    ;"/>
	
		<use xlink:href="#flash0.ai_x5F_1_x2F_Layer_1_x2F__x3C_Path_x3E__x5F_6"  width="-32766" height="-32766" x="16383" y="16383" transform="matrix(1 0 0 -1 102.2998 159.5)" style="overflow:visible;opacity:0.1484;enable-background:new    ;"/>
	<path style="fill-rule:evenodd;clip-rule:evenodd;fill:#D7F1DA;" d="M45.8,147.7c0.233,0.533,0.2,1.216-0.1,2.05
		c-0.467,1.2-0.717,1.884-0.75,2.05c-0.067,0.5-0.05,0.934,0.05,1.3c0.033,0.2,0.15,0.667,0.35,1.4c0.133,0.566,0.2,1.033,0.2,1.4
		c0.033,1.592-0.542,3.233-1.725,4.925c0.706-1.066,0.398-2.658-0.925-4.775c-0.533,0.2-1.133,0.816-1.8,1.851
		c-0.567,0.899-0.917,1.633-1.05,2.199c-0.066,0.601-0.066,1.334,0,2.2c0.067,0.5,0.15,1.217,0.25,2.15
		c-0.066-0.4-0.25-0.917-0.55-1.55c-0.367-0.767-0.6-1.301-0.7-1.601c-0.267-1.233-0.517-2.149-0.75-2.75
		c-0.167,0.3-0.55,1.167-1.15,2.601c-0.1-0.534-0.117-1.284-0.05-2.25c0.031-1.002,0.031-1.727,0-2.176
		c0.024,0.604-0.409,1.479-1.3,2.625c-1.033,1.267-1.583,2.2-1.65,2.801c-0.167,1.699-0.55,3.199-1.15,4.5
		c0.2-0.9-0.117-1.934-0.95-3.101c0.034,0.566-0.233,1.417-0.8,2.55c-0.667,1.233-1.033,2.084-1.1,2.551
		c-0.1,0.533-0.333,1.283-0.7,2.25c-0.367,0.933-0.617,1.8-0.75,2.6c-0.034-1.1-0.417-2.384-1.15-3.85
		c-0.566,2.533-0.533,4.616,0.1,6.25c-0.8-0.867-1.383-1.801-1.75-2.801c-0.267-1.133-0.517-2.017-0.75-2.649
		c-0.233-0.601-0.417-1.533-0.55-2.8c-0.167-1.267-0.35-2.184-0.55-2.75c-0.533,0.933-0.816,2.1-0.85,3.5
		c0,0.466,0.083,1.666,0.25,3.6c0.367,3.934,1.283,7.116,2.75,9.55c-0.733-0.833-1.434-1.783-2.1-2.85
		c-0.667-1.134-1.15-1.95-1.45-2.45c-3.1-5.1-4.583-9.934-4.45-14.5c0.066-1.667,0.45-3.033,1.15-4.1
		c0.533-0.767,0.883-1.25,1.05-1.45c0.501-0.564,1.076-0.881,1.725-0.95l-1.425,0.1c1.133-0.833,2.466-1.066,4-0.699
		c-0.434-0.301-1.367-0.517-2.8-0.65c1.033-0.333,2.033-0.483,3-0.45c0.5,0,1.167,0.017,2,0.05c0.7,0,1.35-0.083,1.95-0.25
		c1.467-0.433,2.533-0.866,3.2-1.3c1.333-0.934,2.333-1.633,3-2.1c1.2-0.833,2.317-1.467,3.35-1.9c0.367-0.133,1.333-0.367,2.9-0.7
		c1.333-0.333,1.95-0.733,1.85-1.2c0.267,0.233,0.55,0.633,0.85,1.2c0.1-0.333,0.233-1.017,0.4-2.05
		c0.167-1.1,0.283-1.783,0.35-2.05c0.133,0.333,0.3,1.083,0.5,2.25C45.45,146.6,45.633,147.333,45.8,147.7z"/>
	<path style="fill-rule:evenodd;clip-rule:evenodd;fill:#D7F1DA;" d="M126.7,209.75c-0.101,0.667-0.3,1.866-0.601,3.6
		c-0.233,2-0.899,4.267-2,6.801c0.167-1.934,0.267-3.217,0.301-3.851c0-0.133-0.134-0.717-0.4-1.75c-0.233-0.899-0.3-1.434-0.2-1.6
		c-0.233,0.333-0.649,0.866-1.25,1.6c-0.5,0.7-0.684,1.283-0.55,1.75c-0.1-0.2-0.366-1.6-0.8-4.2c-0.334-1.8-1.101-3.083-2.3-3.85
		c-0.101,0.366-0.367,1.25-0.801,2.65c-0.33,1.289-0.347,2.156-0.05,2.6c-1.101-1.535-1.884-2.719-2.35-3.55
		c-0.8-1.334-1.316-2.584-1.55-3.75c-0.034,0.533-0.317,1.25-0.851,2.149c-0.133,0.167-0.616,0.867-1.45,2.101
		c0.233-1.334,0.384-2.351,0.45-3.05c0.033-0.334-0.017-0.801-0.149-1.4c-0.167-0.667-0.25-1.134-0.25-1.4
		c-0.101-1.199,0.866-1.833,2.899-1.899c2.434-0.101,4.617,0.149,6.55,0.75c2.834,0.833,4.517,1.95,5.051,3.35
		C126.733,207.7,126.833,208.684,126.7,209.75z"/>
	<g>
		
			<use xlink:href="#flash0.ai_x5F_1_x2F_Layer_1_x2F__x3C_Path_x3E__x5F_4"  width="111.695" height="277.975" x="0.038" y="-277.995" transform="matrix(1 0 0 -1 20.5 23.7002)" style="overflow:visible;opacity:0.1484;enable-background:new    ;"/>
	</g>
	
		<linearGradient id="SVGID_2_" gradientUnits="userSpaceOnUse" x1="98.1592" y1="131.208" x2="177.1282" y2="131.208" gradientTransform="matrix(0.9839 0.1786 -0.1786 0.9839 -1.685619e-004 -5.806983e-005)">
		<stop  offset="0" style="stop-color:#AFCFB5"/>
		<stop  offset="0.2471" style="stop-color:#A7C2AF"/>
		<stop  offset="0.502" style="stop-color:#A1BAAB"/>
		<stop  offset="1" style="stop-color:#AFCFB5"/>
	</linearGradient>
	<path style="fill-rule:evenodd;clip-rule:evenodd;fill:url(#SVGID_2_);" d="M128.55,101.6c3.167,1.033,4.834,1.75,5,2.15
		c0.5,1.067,0.783,2.783,0.851,5.15c0.066,3.333-0.551,6.45-1.851,9.35s-2.233,5.55-2.8,7.95c-0.366,1.5-0.884,4.033-1.55,7.6
		c-0.601,2.833-1.533,5.417-2.8,7.75c-0.5,0.867-2.284,3.633-5.351,8.3c-2.267,3.5-4.55,8.317-6.85,14.45
		c-2.2,5.867-3.851,11.334-4.95,16.4c-0.7,3.333-1.25,8.833-1.65,16.5c-0.366,6.467-0.783,10.017-1.25,10.649
		c-0.633,0.834-1.183-0.35-1.649-3.55c-0.533-4.666-0.95-8.316-1.25-10.95c-0.334-2.733-0.334-5.916,0-9.55
		c0.333-3.633,0.383-6.416,0.149-8.35c-0.966-8.033-2.966-14.917-6-20.65c-1.733-3.267-2.566-5.816-2.5-7.65
		c0-0.367,0.483-2.333,1.45-5.9c0.533-1.933,0.816-3.95,0.851-6.05c0.066-2.667,0.149-4.383,0.25-5.15
		c0.3-2.1,0.416-3.816,0.35-5.15c-0.1-1.566-0.467-3.183-1.1-4.85c-0.967-2.466-1.634-4.917-2-7.35
		c-0.534-3.367-0.301-5.8,0.699-7.3c3.9-5.8,11.483-7.933,22.75-6.4C121.116,99.5,124.85,100.367,128.55,101.6z"/>
	
		<use xlink:href="#flash0.ai_x5F_1_x2F_Layer_1_x2F__x3C_Path_x3E__x5F_2"  width="48.535" height="45.228" x="-0.062" y="-45.25" transform="matrix(1 0 0 -1 91.0996 85.6499)" style="overflow:visible;opacity:0.1484;enable-background:new    ;"/>
	
		<linearGradient id="SVGID_3_" gradientUnits="userSpaceOnUse" x1="-44.9028" y1="-154.1182" x2="2.4965" y2="-154.1182" gradientTransform="matrix(-0.7178 0.6962 -0.6962 -0.7178 5.109906e-004 -1.636147e-004)">
		<stop  offset="0" style="stop-color:#D7F1DA"/>
		<stop  offset="1" style="stop-color:#BDDAC2"/>
	</linearGradient>
	<path style="fill-rule:evenodd;clip-rule:evenodd;fill:url(#SVGID_3_);" d="M111.9,79.9c2.699-0.4,5.699-0.683,9-0.85
		c0.699-0.033,2.133-0.583,4.3-1.65c1.8-0.833,3.783-1.033,5.95-0.6c-1.067,0-2.25,0.267-3.551,0.8
		c-1.199,0.533-2.183,1.15-2.949,1.85c2.233-0.467,4.666-0.434,7.3,0.1c2.767,0.534,4.967,1.45,6.6,2.75
		c-1.6-0.367-2.85-0.566-3.75-0.6c-1.399-0.067-2.649,0.133-3.75,0.6c2.967-0.066,6.167,1.45,9.601,4.55
		c3.066,2.8,5.017,5.517,5.85,8.15c0.833,2.7,0.6,5.8-0.7,9.3c-0.7,1.9-2.184,4.8-4.45,8.7c-0.733,1.3-1.933,3.217-3.6,5.75
		c-1.667,2.5-2.884,4.4-3.65,5.7c0.267-1.2,0.834-3.3,1.7-6.3c0.7-2.5,1.167-4.4,1.4-5.7c-0.601,1.2-1.434,3-2.5,5.4
		c-1,2.2-2,4.05-3,5.55c-1.134,1.467-2.066,2.767-2.8,3.9c-1.4,2.133-2.284,4.184-2.65,6.15c-0.267-3.034,0.384-6.617,1.95-10.75
		c1.5-4.034,2.133-7.034,1.899-9c-0.5,0.667-1.683,2.65-3.55,5.95c0.267-1.533,0.45-2.683,0.55-3.45
		c0.167-1.367-0.083-2.483-0.75-3.35c-0.366-0.467-1.166-1.333-2.399-2.6c-0.982-1.046-1.707-1.938-2.175-2.675
		c0.344,0.591,0.469,1.449,0.375,2.575c-0.067,1.5-0.067,2.434,0,2.8c-0.434-1.167-1.384-2.517-2.851-4.05
		c-1.7-1.667-2.899-2.9-3.6-3.7c-0.3,0.367-0.5,0.716-0.601,1.05c-0.3-0.733-0.5-1.25-0.6-1.55c-1.9,1.367-2.866,2.65-2.9,3.85
		c-0.3-0.633-0.483-1.367-0.55-2.2c-0.033-0.3-0.05-1.05-0.05-2.25c-0.066,1.4-1.967,2.8-5.7,4.2
		c-3.512,1.321-5.245,2.596-5.2,3.825c-0.05-0.653,0.05-1.261,0.301-1.825c-1.301,0.9-2.051,1.434-2.25,1.6
		c-0.834,0.667-1.367,1.35-1.601,2.05c-0.3-1.6-0.05-3.184,0.75-4.75c-2.2,2.267-3.267,5.216-3.2,8.85
		c-0.566-2.233-2.166-4.767-4.8-7.6c-1.1-1.133-1.833-2.067-2.2-2.8c-0.433-0.9-0.633-1.983-0.6-3.25c-0.467,1.2-0.7,2.667-0.7,4.4
		c-1.3-0.733-2.033-2.1-2.2-4.1c-0.1-1.167,0-2.75,0.301-4.75c-1.134,1.466-1.817,3.483-2.051,6.05c-0.833-2.4-0.933-5.05-0.3-7.95
		c1.167-5.267,4.9-9.5,11.2-12.7C97.717,82.817,104.1,81,111.9,79.9z"/>
	<linearGradient id="SVGID_4_" gradientUnits="userSpaceOnUse" x1="75.0566" y1="104.5068" x2="78.3817" y2="7.0568">
		<stop  offset="0" style="stop-color:#BDDACF"/>
		<stop  offset="1" style="stop-color:#D7F1DA"/>
	</linearGradient>
	<path style="fill-rule:evenodd;clip-rule:evenodd;fill:url(#SVGID_4_);" d="M147.3,21.5l0.65,0.55
		c0.866,0.733,2.149,1.833,3.85,3.3c1.467,1.267,2.601,2.467,3.4,3.6c-0.3-0.2-0.75-0.417-1.351-0.65
		c-0.8-0.267-1.267-0.433-1.399-0.5c0.8,1,1.149,2.167,1.05,3.5c-0.366-0.4-0.634-0.683-0.8-0.85c-0.367-0.367-0.7-0.617-1-0.75
		c0.733,1.9,0.583,4.15-0.45,6.75c-0.934,2.367-2.267,4.333-4,5.9c-0.167,0.167-1.25,1.033-3.25,2.6
		c-1.415,1.119-2.374,2.027-2.875,2.725c0.386-0.563,0.644-1.271,0.775-2.125c0.133-1.033,0.25-1.8,0.35-2.3
		c-0.934,1.133-1.467,1.8-1.6,2c-0.525,0.788-0.825,1.529-0.9,2.225c0.063-0.83-0.071-1.755-0.4-2.775
		c-0.166-0.434-0.533-1.333-1.1-2.7c0.1,1.4,0.15,2.2,0.15,2.4c0,0.967-0.101,1.8-0.301,2.5c-0.199,0.633-0.699,1.55-1.5,2.75
		c-0.615,0.937-1.04,1.711-1.274,2.325c0.487-1.673,0.563-3.798,0.225-6.375c-0.434-3.2-1.383-5.217-2.85-6.05
		c-0.267,1.233-0.45,2.017-0.55,2.35c-0.267,0.867-0.601,1.633-1,2.3c-0.4-0.367-0.817-0.883-1.25-1.55
		c-0.667-0.967-1.034-1.5-1.101-1.6c-0.1,0.267-0.149,0.617-0.149,1.05c0,0.233,0.017,0.583,0.05,1.05
		c-1.418-1.227-2.376-2.21-2.875-2.95c0.859,1.569,1.168,3.219,0.925,4.95c-0.667-1.467-2.316-3.117-4.95-4.95
		c-2.767-1.934-4.517-3.534-5.25-4.8c0.267,1.3,1.134,3.033,2.601,5.2c-1.367-0.7-2.851-1.883-4.45-3.55
		c-0.233-0.267-1-0.917-2.3-1.95c-0.967-0.767-1.601-1.467-1.9-2.1c0,0.167-0.083,0.75-0.25,1.75c-0.132,0.926-0.132,1.459,0,1.6
		c-0.5-0.501-0.783-0.951-0.85-1.35c-0.367,0.567-0.601,1.233-0.7,2c-0.066,0.467-0.117,1.183-0.15,2.15
		c-0.566-0.833-1-1.45-1.3-1.85c-0.566-0.767-1.167-1.3-1.8-1.6c0.033,0.933-0.367,1.867-1.2,2.8c-0.467,0.533-1.333,1.267-2.6,2.2
		c-1.2,0.633-2.117,1.133-2.75,1.5c-1.147,0.623-1.848,1.264-2.101,1.925c0.136-0.373,0.235-0.932,0.3-1.675
		c-0.166,0.133-0.666,0.7-1.5,1.7c-0.066-0.6-0.1-1.533-0.1-2.8c-0.6,0.467-1.017,1.217-1.25,2.25c-0.134,0.566-0.283,1.4-0.45,2.5
		c-1.434-3.1-3.816-5.9-7.149-8.4c0.066,0.667,0.166,1.15,0.3,1.45c0.2,0.533,0.55,0.883,1.05,1.05
		c-2.934-0.867-5.767-2.883-8.5-6.05c0.1,0.267,0.3,0.717,0.6,1.35c0.267,0.567,0.434,1.017,0.5,1.35
		c-2.333-1.1-4.167-2.283-5.5-3.55c-0.533,0.9-1.6,1.7-3.2,2.4c-0.767,0.3-2.15,0.75-4.15,1.35c-0.8,0.233-2.1,0.434-3.9,0.6
		c-1.733,0.133-3.033,0.333-3.9,0.6s-1.784,0.65-2.75,1.15c-1.287,0.628-1.979,1.153-2.075,1.575
		c0.151-0.964,0.243-1.706,0.275-2.225c-1.2,0.433-2.267,1.2-3.2,2.3c-0.833,0.967-1.45,2.05-1.85,3.25
		c0.1-0.4,0.083-1.566-0.05-3.5c-0.066-1.333,0.333-2.433,1.2-3.3c-2.133,0.467-4.117,1.683-5.95,3.65
		c0.467-1.5,1.567-2.967,3.3-4.4c-4.1,0.667-7.6,2.1-10.5,4.3c-3.3,2.5-4.95,5.4-4.95,8.7c-0.562-1.19-0.795-2.282-0.7-3.275
		c-0.076,0.604-0.442,1.712-1.1,3.325c-0.633,1.5-0.95,2.65-0.95,3.45c-0.3-1.433-0.517-2.517-0.65-3.25
		c-0.233-1.333-0.317-2.45-0.25-3.35c-2.933,4-4.7,6.7-5.3,8.1c-1.333,3.033-1.317,6.017,0.05,8.95c-0.1-0.133-1.05-1.233-2.85-3.3
		c-1.167-1.3-1.95-2.5-2.35-3.6c-0.433,1.567-0.2,3.317,0.7,5.25c0.767,1.6,1.9,3.133,3.4,4.6c-1.9-1.566-3.383-2.933-4.45-4.1
		c-1.534-1.6-2.633-3.183-3.3-4.75c-1.133-2.667-2.117-4.533-2.95-5.6c-0.333-0.434-1.15-1.3-2.45-2.6c-1-0.967-1.7-1.917-2.1-2.85
		c-0.1,1.967-0.1,3.6,0,4.9c-1.233-1.9-2-3.117-2.3-3.65c-0.779-1.428-1.195-2.728-1.25-3.9c0.008,0.3,0.042,1.15,0.1,2.55
		c0.033,1.1,0.133,2,0.3,2.7c-4.167-6.8-5.183-13.184-3.05-19.15c-0.633,0.667-1.117,1.55-1.45,2.65
		C0.365,33.335,0.199,34.019,0,34.9c0.107-0.713,0.124-1.664,0.05-2.85c-0.066-1.633-0.017-2.816,0.15-3.55
		c0.267-1,0.716-2.05,1.35-3.15c0.034-0.033,0.684-0.983,1.95-2.85c1.2-1.833,2.583-3.533,4.15-5.1c1.333-1.333,3.05-2.833,5.15-4.5
		c5.267-4.133,10.684-7.333,16.25-9.6c6.8-2.7,15.184-3.617,25.15-2.75c2.367,0.2,6.033,0.684,11,1.45
		c4.333,0.333,7.85-0.233,10.55-1.7c-0.867,0.833-1.7,2.217-2.5,4.15c0.9-0.767,2.167-1.567,3.8-2.4
		c-0.767,0.6-1.216,1.284-1.35,2.05c3.033-0.7,5.45-1.167,7.25-1.4c2.666-0.367,5.149-0.434,7.45-0.2
		c-1.267,0.133-2.417,0.817-3.45,2.05c2.2-0.9,5.116-1.233,8.75-1c2.033,0.133,5.017,0.383,8.95,0.75
		c4.399,0.133,7.85,0.333,10.35,0.6c3.8,0.367,7.167,1,10.1,1.9c6.467,1.967,12.134,5.034,17,9.2c0.733,0.633,1.617,1.55,2.65,2.75
		C145.917,20.083,146.767,21,147.3,21.5z"/>
</g>
</svg>
