<?xml version="1.0" encoding="iso-8859-1"?>
<!-- Generator: Adobe Illustrator 15.1.0, SVG Export Plug-In . SVG Version: 6.00 Build 0)  -->
<!DOCTYPE svg PUBLIC "-//W3C//DTD SVG 1.1//EN" "http://www.w3.org/Graphics/SVG/1.1/DTD/svg11.dtd">
<svg version="1.1" id="Layer_1" xmlns="http://www.w3.org/2000/svg" xmlns:xlink="http://www.w3.org/1999/xlink" x="0px" y="0px"
	 width="554.7px" height="371.3px" viewBox="0 0 554.7 371.3" style="enable-background:new 0 0 554.7 371.3;" xml:space="preserve"
	>
<symbol  id="flash0.ai_x2F_Layer_1_x2F__x3C_Path_x3E_" viewBox="0 -311.906 380.05 311.954">
	<g id="Layer_1_2_">
		<path style="fill-rule:evenodd;clip-rule:evenodd;fill:#E7EEE1;" d="M364.15-307.85c-9.5-0.833-14.9-1.217-16.2-1.15
			c-25.667,1.433-54.667,1.967-87,1.6c-18.567-0.233-47.567-1-87-2.3c-38-1.267-67-1.983-87-2.15
			c-32.133-0.267-61.117,0.417-86.95,2.05c1.7,11.2,6.067,24.017,13.1,38.45c6.033,12.367,11.25,20.883,15.65,25.55
			c19.867,21.033,35.633,39.5,47.3,55.4c15.067,20.6,30.267,45.783,45.6,75.55c2.967,5.8,7.467,15.7,13.5,29.7
			c6.4,14.9,11.35,25.883,14.85,32.95c12.767,25.934,25.75,42.15,38.95,48.65C203.083,3.417,216.8,0.267,230.1-13
			c8.367-8.333,16.517-20.767,24.45-37.3c0.867-1.8,9.934-23.35,27.2-64.65c15.9-37.966,26.35-61.35,31.35-70.15
			c9.6-16.833,23.316-38.5,41.15-65c13.833-22.167,22.433-41.783,25.8-58.85C376.683-307.617,371.383-307.25,364.15-307.85z"/>
	</g>
</symbol>
<g>
	<path style="fill-rule:evenodd;clip-rule:evenodd;fill:#CFE5DB;" d="M341.2,4.95c18.066-7.534,33.066-6.434,45,3.3
		c9.7,7.933,19.25,23.667,28.649,47.2c11.467,28.6,23.117,55.867,34.95,81.8c6.134,13.467,13.367,29.317,21.7,47.55
		c5.7,13.334,14.15,29.25,25.35,47.75c6.301,10.4,15.717,25.75,28.25,46.05c10.233,17.4,17.634,32.4,22.2,45
		c5.8,16.034,8.184,30.934,7.15,44.7c-1.066,0.3-5.3,0.4-12.7,0.3c-13.066-0.166-23.35-0.233-30.85-0.199
		c-4,0-37.884-0.267-101.65-0.801c-41-0.333-75.5,0.084-103.5,1.25c-25.566,1.067-59.867,1.284-102.9,0.65
		c-47.8-0.733-84.7-0.783-110.7-0.15c-3.133,0.067-15.483-0.183-37.05-0.75c-18.2-0.466-36.517-0.149-54.95,0.95
		c-1.167-17.934,4.65-40.083,17.45-66.45c9.433-19.466,20.85-38.066,34.25-55.8c8.433-11.133,17.267-27.55,26.5-49.25
		c5.333-12.5,9-20.883,11-25.15c4.4-9.3,8.9-17.4,13.5-24.3c9.867-14.833,19.183-23.233,27.95-25.2c7.067-1.6,14.517,1.067,22.35,8
		c2.867,2.5,6.283,6.033,10.25,10.6c2.267,2.6,5.684,6.567,10.25,11.9c8.5,9.6,15.95,15.7,22.35,18.3c14,5.7,28,1.45,42-12.75
		c10.267-10.4,22.233-28.417,35.9-54.05c0.367-0.733,5.933-11.483,16.7-32.25c6.634-12.767,12.134-22.833,16.5-30.2
		C319.634,21.85,331,9.183,341.2,4.95z"/>
	
		<use xlink:href="#flash0.ai_x2F_Layer_1_x2F__x3C_Path_x3E_"  width="380.05" height="311.954" y="-311.906" transform="matrix(1 0 0 -1 153.75 59.3999)" style="overflow:visible;opacity:0.4219;enable-background:new    ;"/>
</g>
</svg>
