<?xml version="1.0" encoding="iso-8859-1"?>
<!-- Generator: Adobe Illustrator 15.1.0, SVG Export Plug-In . SVG Version: 6.00 Build 0)  -->
<!DOCTYPE svg PUBLIC "-//W3C//DTD SVG 1.1//EN" "http://www.w3.org/Graphics/SVG/1.1/DTD/svg11.dtd">
<svg version="1.1" id="Layer_1" xmlns="http://www.w3.org/2000/svg" xmlns:xlink="http://www.w3.org/1999/xlink" x="0px" y="0px"
	 width="168.05px" height="238.85px" viewBox="0 0 168.05 238.85" style="enable-background:new 0 0 168.05 238.85;"
	 xml:space="preserve">
<g>
	<path style="fill-rule:evenodd;clip-rule:evenodd;fill:#A8D9C9;" d="M107.25,31.75c2.833,9.533,6.116,25.383,9.85,47.55
		c2.967,14.367,6.551,28.034,10.75,41c3.2,9.934,6.233,17.95,9.101,24.05c5.633,12.134,11.616,27.601,17.95,46.4
		c6.399,19.066,10.783,34.566,13.149,46.5c-4.7,0-18.8,0.333-42.3,1c-17.8,0.5-27.833,0.483-30.1-0.05H0
		c0.233-3.533,0.683-7.967,1.35-13.3c1.267-10.7,2.917-20.601,4.95-29.7c2.534-11.334,10-39.316,22.4-83.95
		C40.267,69.683,46.567,45.767,47.6,39.5C50,25.033,54.05,14.467,59.75,7.8c6.7-7.8,15.3-9.75,25.8-5.85
		C95.184,5.517,102.417,15.45,107.25,31.75z"/>
	<path style="fill-rule:evenodd;clip-rule:evenodd;fill:#99CFB5;" d="M105.9,90.85c2.333,10.566,4.55,19.433,6.649,26.6
		c3.367,11.6,8.267,25.3,14.7,41.1c3.3,8.167,6.934,16.851,10.9,26.05c5.1,13.2,9.199,25.851,12.3,37.95
		c1.566,6.066,2.616,10.8,3.149,14.2L93.2,238.2H19.35c2.1-7.834,4.833-17.45,8.2-28.851c6.667-22.833,13.1-43.149,19.3-60.949
		c3.8-10.9,6.833-23.634,9.1-38.2c1.833-11.567,3.25-24.883,4.25-39.95c0.867-12.667,3.5-22.717,7.9-30.15
		c4.967-8.3,10.6-9.867,16.9-4.7c6.4,5.233,11.616,15.9,15.65,32C101.217,69.733,102.967,77.55,105.9,90.85z"/>
	<path style="fill-rule:evenodd;clip-rule:evenodd;fill:#BAECD2;" d="M77,73.4c6.233-2.3,13.167,9.45,20.8,35.25
		c1.8,6.167,4.467,16.183,8,30.05c2.8,10.967,4.717,17.733,5.75,20.3c6.934,16.967,17.4,43.2,31.4,78.7
		c-55.367,0.666-89.333,1-101.9,1c0.833-4.634,2.867-11.517,6.1-20.65c5.167-14.633,8.25-23.533,9.25-26.7
		c8.133-25.533,12.417-50.116,12.85-73.75c-0.5-12.8-0.583-21.934-0.25-27.4C69.533,80.8,72.2,75.2,77,73.4z"/>
	<path style="fill-rule:evenodd;clip-rule:evenodd;fill:#99CFB5;" d="M78.95,148.05c-0.2-12.6,0.7-19.25,2.7-19.95
		c4.333-1.5,10.683,12.334,19.05,41.5c1.533,5.367,4.566,16.517,9.1,33.45c3.134,11.767,5.25,19.017,6.351,21.75
		c0.6,1.467,1.466,3.667,2.6,6.601c1.033,2.566,2.017,4.666,2.95,6.3c-8.134,0.3-16.867,0.517-26.2,0.649
		c-10.4,0.134-18.85,0.301-25.35,0.5c1.133-4.767,2.383-12.1,3.75-22c0.567-4.133,2.017-15.366,4.35-33.699
		C79.017,177.15,79.25,165.45,78.95,148.05z"/>
</g>
</svg>
