<?xml version="1.0" encoding="iso-8859-1"?>
<!-- Generator: Adobe Illustrator 15.1.0, SVG Export Plug-In . SVG Version: 6.00 Build 0)  -->
<!DOCTYPE svg PUBLIC "-//W3C//DTD SVG 1.1//EN" "http://www.w3.org/Graphics/SVG/1.1/DTD/svg11.dtd">
<svg version="1.1" id="Layer_1" xmlns="http://www.w3.org/2000/svg" xmlns:xlink="http://www.w3.org/1999/xlink" x="0px" y="0px"
	 width="474px" height="307.15px" viewBox="0 0 474 307.15" style="enable-background:new 0 0 474 307.15;" xml:space="preserve">
<symbol  id="flash0.ai_x2F_Layer_1_x2F__x3C_Path_x3E_" viewBox="0 -150.9 90.7 150.825">
	<g id="Layer_1_6_">
		<path style="fill-rule:evenodd;clip-rule:evenodd;fill:#C7ECDC;" d="M80-42.8c-0.367-12.767,0.667-32.367,3.1-58.8
			c2.566-27.867,5.1-44.3,7.6-49.3H0c5,2.566,10.667,6.583,17,12.05c12.667,10.934,22.333,23.617,29,38.05
			C51.8-88.267,56.883-70.667,61.25-48c2.433,12.567,4,20.4,4.7,23.5C67.783-16.633,69.8-10.517,72-6.15
			c4.367,8.733,7.033,8.05,8-2.05C80.533-13.633,80.533-25.167,80-42.8z"/>
	</g>
</symbol>
<symbol  id="flash0.ai_x2F_Layer_1_x2F__x3C_Path_x3E__x5F_1" viewBox="0 -129.35 57.35 129.378">
	<g id="Layer_1_5_">
		<path style="fill-rule:evenodd;clip-rule:evenodd;fill:#C7ECDC;" d="M52.7-19.25c1.367-9.733,2.55-31,3.55-63.8
			c0.5-16.4,0.867-31.833,1.1-46.3H0c3,5.733,6.4,13.583,10.2,23.55c7.566,19.867,13.283,40.267,17.15,61.2
			c5.133,27.733,10.367,42.55,15.7,44.45c2.133,0.733,4.083-0.8,5.85-4.6C50.533-8.217,51.8-13.05,52.7-19.25z"/>
	</g>
</symbol>
<symbol  id="flash0.ai_x2F_Layer_1_x2F__x3C_Path_x3E__x5F_2" viewBox="0 -272.65 96.65 272.647">
	<g id="Layer_1_4_">
		<path style="fill-rule:evenodd;clip-rule:evenodd;fill:#C7ECD1;" d="M50-0.55c8.133,3.2,16.1-7.65,23.9-32.55
			c6.167-19.633,11.3-44.283,15.4-73.95c2.8-20.034,4.867-53.65,6.2-100.85c0.667-23.6,1.05-45.184,1.15-64.75h-9.3
			c1.267,20.633-0.483,53.933-5.25,99.9c-4.767,46.1-9.467,74.617-14.1,85.55c-4.7,11.067-9.1,12.284-13.2,3.65
			c-4.133-8.767-8.183-28.217-12.15-58.35C39.317-167.167,33.433-196.533,25-230c-4.233-16.767-8.133-30.983-11.7-42.65H0
			c2.667,12.1,5.7,26.95,9.1,44.55c6.767,35.2,11.95,66.567,15.55,94.1c1.6,12.1,3.3,28.017,5.1,47.75
			c1.867,20.6,3.217,34.3,4.05,41.1c1.667,13.267,3.617,23.283,5.85,30.05C42.317-7.067,45.767-2.217,50-0.55z"/>
	</g>
</symbol>
<symbol  id="flash0.ai_x2F_Layer_1_x2F__x3C_Path_x3E__x5F_3" viewBox="0 -189.05 121.35 189.044">
	<g id="Layer_1_3_">
		<path style="fill-rule:evenodd;clip-rule:evenodd;fill:#C7ECDC;" d="M113.95-30.95c0.333-6.2,0.483-16.433,0.45-30.7
			c0-17.033,0.1-29.717,0.3-38.05c0.367-15.2,1.583-32.917,3.65-53.15c1.967-19.4,2.967-31.267,3-35.6
			c-9.333-0.8-49.783-0.8-121.35,0c6.367,5.367,13.2,12.333,20.5,20.9c14.633,17.133,24.3,33.667,29,49.6
			c11.633,39.3,20.9,67.4,27.8,84.3C87.133-9.517,95.55,1.633,102.55-0.2c3.7-0.966,6.45-4.15,8.25-9.55
			C112.4-14.483,113.45-21.55,113.95-30.95z"/>
	</g>
</symbol>
<symbol  id="flash0.ai_x2F_Layer_1_x2F__x3C_Path_x3E__x5F_4" viewBox="0 -216.75 143.9 216.769">
	<g id="Layer_1_2_">
		<path style="fill-rule:evenodd;clip-rule:evenodd;fill:#C7ECDC;" d="M23-114.75c2.433,37.667,6.783,66.733,13.05,87.2
			C42.517-6.417,50.133,2.567,58.9-0.6c7.7-2.8,16.283-18.967,25.75-48.5c6.3-19.633,11.733-40.467,16.3-62.5
			c2.3-11.233,5.1-21.967,8.4-32.2c2.467-7.7,4.833-13.983,7.1-18.85c2.933-6.267,7.2-15.6,12.8-28c5-10.5,9.883-19.117,14.65-25.85
			c-10.467-0.333-58.433-0.333-143.9,0c3.3,8.633,6.733,19.333,10.3,32.1C17.433-158.8,21.667-135.583,23-114.75z"/>
	</g>
</symbol>
<g>
	
		<linearGradient id="SVGID_1_" gradientUnits="userSpaceOnUse" x1="-274.2261" y1="247.9141" x2="51.1861" y2="247.9141" gradientTransform="matrix(0.0361 -0.9993 0.9993 0.0361 1.838133e-004 -1.212955e-004)">
		<stop  offset="0.0118" style="stop-color:#759EA1"/>
		<stop  offset="0.4863" style="stop-color:#91C4C4"/>
		<stop  offset="1" style="stop-color:#B5E3B5"/>
	</linearGradient>
	<path style="fill-rule:evenodd;clip-rule:evenodd;fill:url(#SVGID_1_);" d="M336.5,50c3.7-2.467,7.75-3.717,12.15-3.75
		c9.733-0.1,18.366,8.083,25.899,24.55c2.601,5.7,5.384,13.117,8.351,22.25c1.666,5.034,3.916,12.1,6.75,21.2
		c2.933,8.8,6.433,20.55,10.5,35.25c4.966,18,8.3,29.783,10,35.35c8.366,27.634,18.1,49.967,29.199,67
		c3.034,4.634,9.467,13.384,19.301,26.25c8.699,12.101,13.816,21.584,15.35,28.45c-13,0.667-91.866,0.667-236.6,0
		c-144.934-0.666-224.067-0.666-237.4,0c2.1-3.233,4.417-5.967,6.95-8.2c1.9-1.666,4.833-3.75,8.8-6.25
		C28.283,284.2,39.033,276.634,48,269.4c5.5-4.434,12.25-12.601,20.25-24.5c6.833-10.167,12.25-19.367,16.25-27.601
		c4.567-9.399,9.417-21.2,14.55-35.399c5.6-16.267,9.717-28.134,12.35-35.601c4.633-13.1,8.6-23.05,11.9-29.85
		c4.367-8.9,8.717-14.917,13.05-18.05c8.033-5.767,15.15-8.066,21.35-6.9c2.1,0.4,4.767,1.333,8,2.8c4.3,2,7.133,3.25,8.5,3.75
		c5.667,2.067,10.7-0.2,15.1-6.8c3.333-5,6.7-13.233,10.1-24.7c6.5-22.167,11.15-36.566,13.95-43.2
		c6.133-14.467,12.833-22.2,20.1-23.2c4.6-0.633,8.616,0.6,12.05,3.7c2.967,2.667,5.783,7.017,8.45,13.05
		C255.616,20.633,258,27,261.1,36c3.334,9.767,6.017,17.1,8.051,22c4.933,11.833,9.566,19.833,13.899,24
		c5.566,5.367,11.717,5.883,18.45,1.55c5.134-3.3,10.033-7.383,14.7-12.25c0.899-0.933,4.434-4.966,10.6-12.1
		C330.566,54.867,333.8,51.8,336.5,50z"/>
	
		<use xlink:href="#flash0.ai_x2F_Layer_1_x2F__x3C_Path_x3E__x5F_4"  width="143.9" height="216.769" y="-216.75" transform="matrix(1 0 0 -1 289.0996 90.0498)" style="overflow:visible;opacity:0.3594;enable-background:new    ;"/>
	
		<use xlink:href="#flash0.ai_x2F_Layer_1_x2F__x3C_Path_x3E__x5F_3"  width="121.35" height="189.044" y="-189.05" transform="matrix(1 0 0 -1 53 118.1001)" style="overflow:visible;opacity:0.3594;enable-background:new    ;"/>
	
		<use xlink:href="#flash0.ai_x2F_Layer_1_x2F__x3C_Path_x3E__x5F_2"  width="96.65" height="272.647" y="-272.65" transform="matrix(1 0 0 -1 181.7002 33.8999)" style="overflow:visible;opacity:0.3594;enable-background:new    ;"/>
	
		<use xlink:href="#flash0.ai_x2F_Layer_1_x2F__x3C_Path_x3E__x5F_1"  width="57.35" height="129.378" y="-129.35" transform="matrix(1 0 0 -1 203 177.2002)" style="overflow:visible;opacity:0.3594;enable-background:new    ;"/>
	
		<use xlink:href="#flash0.ai_x2F_Layer_1_x2F__x3C_Path_x3E_"  width="90.7" height="150.825" y="-150.9" transform="matrix(1 0 0 -1 73 155.6504)" style="overflow:visible;opacity:0.3594;enable-background:new    ;"/>
</g>
</svg>
