<?xml version="1.0" encoding="iso-8859-1"?>
<!-- Generator: Adobe Illustrator 15.1.0, SVG Export Plug-In . SVG Version: 6.00 Build 0)  -->
<!DOCTYPE svg PUBLIC "-//W3C//DTD SVG 1.1//EN" "http://www.w3.org/Graphics/SVG/1.1/DTD/svg11.dtd">
<svg version="1.1" id="Layer_1" xmlns="http://www.w3.org/2000/svg" xmlns:xlink="http://www.w3.org/1999/xlink" x="0px" y="0px"
	 width="176.7px" height="151.4px" viewBox="0 0 176.7 151.4" style="enable-background:new 0 0 176.7 151.4;" xml:space="preserve"
	>
<g>
	
		<linearGradient id="SVGID_1_" gradientUnits="userSpaceOnUse" x1="-66.9678" y1="-67.6699" x2="116.0228" y2="-67.6699" gradientTransform="matrix(0.1316 0.9913 -0.9798 0.2179 -3.845692e-004 3.286600e-004)">
		<stop  offset="0" style="stop-color:#87D6C9"/>
		<stop  offset="1" style="stop-color:#96E3D1"/>
	</linearGradient>
	<path style="fill-rule:evenodd;clip-rule:evenodd;fill:url(#SVGID_1_);" d="M93.05,39.35c4.667,6.566,10.267,15.2,16.8,25.9
		c8,13.066,12.784,20.783,14.351,23.15c11.2,16.966,18.934,28.199,23.2,33.699c9.633,12.534,19.399,22.284,29.3,29.25
		c-23.167-0.1-59-0.1-107.5,0c-41.767,0.101-64.833,0.101-69.2,0c3.867-9.333,6.567-15.949,8.1-19.85
		c2.633-6.6,4.383-12.983,5.25-19.15c1.033-7.199,1.583-19.633,1.65-37.3c0.033-18.7,0.483-31.983,1.35-39.85
		c1.5-13.667,4.617-23.267,9.35-28.8C31.467-0.333,40-1.767,51.3,2.1C64.633,6.7,78.55,19.117,93.05,39.35z"/>
</g>
</svg>
