<?xml version="1.0" encoding="iso-8859-1"?>
<!-- Generator: Adobe Illustrator 15.1.0, SVG Export Plug-In . SVG Version: 6.00 Build 0)  -->
<!DOCTYPE svg PUBLIC "-//W3C//DTD SVG 1.1//EN" "http://www.w3.org/Graphics/SVG/1.1/DTD/svg11.dtd">
<svg version="1.1" id="Layer_3" xmlns="http://www.w3.org/2000/svg" xmlns:xlink="http://www.w3.org/1999/xlink" x="0px" y="0px"
	 width="38.8px" height="41.45px" viewBox="0 0 38.8 41.45" style="enable-background:new 0 0 38.8 41.45;" xml:space="preserve">
<symbol  id="flash0.ai_x2F_Layer_3_x2F__x3C_Path_x3E_" viewBox="-0.003 -3.518 5.36 3.557">
	<g id="Layer_1_6_">
		<path style="fill-rule:evenodd;clip-rule:evenodd;fill:#D9C57C;" d="M2.05-2.9C0.783-2.367,0.1-1.767,0-1.1
			c-0.033,0.367,0.217,0.667,0.75,0.9C1.283,0.1,1.867,0.117,2.5-0.15C3.4-0.483,4.133-0.967,4.7-1.6
			c0.566-0.633,0.767-1.15,0.6-1.55C5.167-3.45,4.767-3.567,4.1-3.5C3.467-3.433,2.783-3.233,2.05-2.9z"/>
	</g>
</symbol>
<symbol  id="flash0.ai_x2F_Layer_3_x2F__x3C_Path_x3E__x5F_0" viewBox="0.018 -2.533 4.892 2.55">
	<g id="Layer_1_11_">
		<path style="fill-rule:evenodd;clip-rule:evenodd;fill:#D9C57C;" d="M2.1-2.4C0.9-2.167,0.217-1.8,0.05-1.3
			c-0.1,0.3,0.034,0.6,0.4,0.9c0.4,0.333,0.9,0.467,1.5,0.4c0.8-0.133,1.517-0.417,2.15-0.85C4.7-1.25,4.967-1.633,4.9-2
			C4.867-2.267,4.55-2.433,3.95-2.5C3.417-2.567,2.8-2.533,2.1-2.4z"/>
	</g>
</symbol>
<symbol  id="flash0.ai_x2F_Layer_3_x2F__x3C_Path_x3E__x5F_1" viewBox="-0.006 -2.156 2.344 2.209">
	<g id="Layer_1_5_">
		<path style="fill-rule:evenodd;clip-rule:evenodd;fill:#D9C57C;" d="M1.5-0.25c0.3-0.2,0.533-0.433,0.7-0.7
			c0.167-0.267,0.183-0.5,0.05-0.7c-0.167-0.267-0.433-0.434-0.8-0.5c-0.4-0.033-0.767,0.066-1.1,0.3
			C0.083-1.683-0.033-1.383,0-0.95c0,0.367,0.083,0.633,0.25,0.8C0.583,0.15,1,0.117,1.5-0.25z"/>
	</g>
</symbol>
<symbol  id="flash0.ai_x2F_Layer_3_x2F__x3C_Path_x3E__x5F_1_x5F_0" viewBox="-0.012 -1.764 2.107 1.777">
	<g id="Layer_1_10_">
		<path style="fill-rule:evenodd;clip-rule:evenodd;fill:#D9C57C;" d="M1.15-0.1c0.767-0.267,1.067-0.617,0.9-1.05
			C2.017-1.417,1.833-1.6,1.5-1.7c-0.333-0.1-0.667-0.083-1,0.05C0.233-1.55,0.067-1.333,0-1c-0.033,0.3,0,0.533,0.1,0.7
			C0.3,0.033,0.65,0.1,1.15-0.1z"/>
	</g>
</symbol>
<symbol  id="flash0.ai_x2F_Layer_3_x2F__x3C_Path_x3E__x5F_1_x5F_1" viewBox="0.01 -1.26 1.202 1.255">
	<g id="Layer_1_15_">
		<path style="fill-rule:evenodd;clip-rule:evenodd;fill:#D9C57C;" d="M0.9-0.25C1.233-0.583,1.3-0.867,1.1-1.1
			C0.967-1.233,0.8-1.283,0.6-1.25C0.4-1.183,0.233-1.067,0.1-0.9C0-0.8-0.017-0.633,0.05-0.4C0.117-0.233,0.2-0.117,0.3-0.05
			C0.533,0.05,0.733-0.017,0.9-0.25z"/>
	</g>
</symbol>
<symbol  id="flash0.ai_x2F_Layer_3_x2F__x3C_Path_x3E__x5F_1_x5F_2" viewBox="-0.01 -1.6 1.577 1.596">
	<g id="Layer_1_20_">
		<path style="fill-rule:evenodd;clip-rule:evenodd;fill:#D9C57C;" d="M1.1-0.25c0.467-0.4,0.583-0.767,0.35-1.1
			C1.317-1.517,1.117-1.6,0.85-1.6c-0.267,0.033-0.5,0.15-0.7,0.35C0.017-1.117-0.033-0.9,0-0.6c0.067,0.233,0.15,0.4,0.25,0.5
			C0.483,0.067,0.767,0.017,1.1-0.25z"/>
	</g>
</symbol>
<symbol  id="flash0.ai_x2F_Layer_3_x2F__x3C_Path_x3E__x5F_1_x5F_3" viewBox="-0.017 -1.286 1.475 1.309">
	<g id="Layer_1_25_">
		<path style="fill-rule:evenodd;clip-rule:evenodd;fill:#D9C57C;" d="M0.75-0.05c0.2-0.067,0.367-0.167,0.5-0.3
			c0.167-0.133,0.233-0.267,0.2-0.4c-0.133-0.5-0.5-0.65-1.1-0.45C0.183-1.133,0.067-0.983,0-0.75
			C-0.033-0.517-0.017-0.333,0.05-0.2C0.15,0.033,0.383,0.083,0.75-0.05z"/>
	</g>
</symbol>
<symbol  id="flash0.ai_x2F_Layer_3_x2F__x3C_Path_x3E__x5F_1_x5F_4" viewBox="-0.017 -0.9 1.081 0.93">
	<g id="Layer_1_30_">
		<path style="fill-rule:evenodd;clip-rule:evenodd;fill:#D9C57C;" d="M0.55-0.05c0.4-0.067,0.567-0.233,0.5-0.5
			c-0.033-0.167-0.133-0.267-0.3-0.3c-0.167-0.066-0.333-0.066-0.5,0C0.15-0.817,0.067-0.7,0-0.5c-0.033,0.133-0.017,0.25,0.05,0.35
			C0.117,0.05,0.283,0.083,0.55-0.05z"/>
	</g>
</symbol>
<symbol  id="flash0.ai_x2F_Layer_3_x2F__x3C_Path_x3E__x5F_1_x5F_5" viewBox="0 -1.09 0.964 1.081">
	<g id="Layer_1_35_">
		<path style="fill-rule:evenodd;clip-rule:evenodd;fill:#D9C57C;" d="M0.8-0.3C1-0.667,1.017-0.9,0.85-1
			C0.717-1.1,0.567-1.117,0.4-1.05c-0.167,0.033-0.283,0.133-0.35,0.3c-0.066,0.1-0.066,0.233,0,0.4c0.1,0.167,0.2,0.267,0.3,0.3
			C0.517,0.05,0.667-0.033,0.8-0.3z"/>
	</g>
</symbol>
<symbol  id="flash0.ai_x2F_Layer_3_x2F__x3C_Path_x3E__x5F_2" viewBox="0.009 -3.217 4.591 3.19">
	<g id="Layer_1_4_">
		<path style="fill-rule:evenodd;clip-rule:evenodd;fill:#D9C57C;" d="M2.65-0.65c0.6-0.333,1.1-0.717,1.5-1.15
			c0.4-0.434,0.533-0.767,0.4-1c-0.2-0.333-0.667-0.467-1.4-0.4c-0.767,0.067-1.5,0.317-2.2,0.75c-0.5,0.333-0.8,0.767-0.9,1.3
			c-0.1,0.5-0.017,0.833,0.25,1C0.767,0.117,1.55-0.05,2.65-0.65z"/>
	</g>
</symbol>
<symbol  id="flash0.ai_x2F_Layer_3_x2F__x3C_Path_x3E__x5F_2_x5F_0" viewBox="0 -2.295 4.263 2.308">
	<g id="Layer_1_9_">
		<path style="fill-rule:evenodd;clip-rule:evenodd;fill:#D9C57C;" d="M2.25-0.2C2.817-0.367,3.3-0.583,3.7-0.85
			c0.433-0.3,0.617-0.566,0.55-0.8c-0.1-0.333-0.467-0.533-1.1-0.6c-0.667-0.1-1.333-0.033-2,0.2c-0.5,0.167-0.833,0.466-1,0.9
			c-0.2,0.4-0.2,0.7,0,0.9C0.517,0.083,1.217,0.1,2.25-0.2z"/>
	</g>
</symbol>
<symbol  id="flash0.ai_x2F_Layer_3_x2F__x3C_Path_x3E__x5F_2_x5F_1" viewBox="-0.006 -2.089 2.194 2.065">
	<g id="Layer_1_14_">
		<path style="fill-rule:evenodd;clip-rule:evenodd;fill:#D9C57C;" d="M1.4-0.6c0.7-0.7,0.934-1.15,0.7-1.35
			C1.933-2.117,1.667-2.133,1.3-2s-0.7,0.367-1,0.7C0.067-1.067-0.033-0.8,0-0.5c0.033,0.267,0.133,0.417,0.3,0.45
			C0.633,0.05,1-0.133,1.4-0.6z"/>
	</g>
</symbol>
<symbol  id="flash0.ai_x2F_Layer_3_x2F__x3C_Path_x3E__x5F_2_x5F_2" viewBox="-0.007 -2.523 2.944 2.515">
	<g id="Layer_1_19_">
		<path style="fill-rule:evenodd;clip-rule:evenodd;fill:#D9C57C;" d="M1.8-0.6C2.767-1.433,3.117-2,2.85-2.3
			C2.717-2.533,2.4-2.583,1.9-2.45S0.933-2.067,0.5-1.7C0.167-1.433,0-1.1,0-0.7c-0.033,0.333,0.05,0.55,0.25,0.65
			C0.617,0.083,1.133-0.1,1.8-0.6z"/>
	</g>
</symbol>
<symbol  id="flash0.ai_x2F_Layer_3_x2F__x3C_Path_x3E__x5F_2_x5F_3" viewBox="-0.014 -1.533 2.977 1.562">
	<g id="Layer_1_24_">
		<path style="fill-rule:evenodd;clip-rule:evenodd;fill:#D9C57C;" d="M1.5-0.1c1.067-0.267,1.55-0.583,1.45-0.95
			C2.917-1.283,2.667-1.433,2.2-1.5C1.767-1.567,1.317-1.533,0.85-1.4C0.517-1.3,0.267-1.1,0.1-0.8
			c-0.133,0.267-0.15,0.466-0.05,0.6C0.25,0.067,0.733,0.1,1.5-0.1z"/>
	</g>
</symbol>
<symbol  id="flash0.ai_x2F_Layer_3_x2F__x3C_Path_x3E__x5F_2_x5F_4" viewBox="0.01 -1.19 2.198 1.179">
	<g id="Layer_1_29_">
		<path style="fill-rule:evenodd;clip-rule:evenodd;fill:#D9C57C;" d="M1.15-0.1C1.917-0.3,2.267-0.533,2.2-0.8
			C2.167-0.967,1.983-1.083,1.65-1.15c-0.333-0.067-0.667-0.05-1,0.05C0.383-1,0.2-0.85,0.1-0.65C0-0.417-0.017-0.25,0.05-0.15
			C0.217,0.017,0.583,0.033,1.15-0.1z"/>
	</g>
</symbol>
<symbol  id="flash0.ai_x2F_Layer_3_x2F__x3C_Path_x3E__x5F_2_x5F_5" viewBox="-0.01 -1.906 1.627 1.918">
	<g id="Layer_1_34_">
		<path style="fill-rule:evenodd;clip-rule:evenodd;fill:#D9C57C;" d="M1.15-0.65c0.467-0.633,0.583-1.033,0.35-1.2
			c-0.167-0.1-0.383-0.066-0.65,0.1c-0.267,0.133-0.5,0.367-0.7,0.7C0.017-0.817-0.033-0.583,0-0.35C0.067-0.117,0.167,0,0.3,0
			C0.567,0.067,0.85-0.15,1.15-0.65z"/>
	</g>
</symbol>
<symbol  id="flash0.ai_x2F_Layer_3_x2F__x3C_Path_x3E__x5F_3" viewBox="0 -3.073 4.124 3.061">
	<g id="Layer_1_3_">
		<path style="fill-rule:evenodd;clip-rule:evenodd;fill:#D9C57C;" d="M1.5-2.4C0.5-1.9,0-1.367,0-0.8
			c0,0.267,0.217,0.483,0.65,0.65C1.117,0.05,1.6,0.033,2.1-0.2c0.667-0.367,1.2-0.816,1.6-1.35c0.4-0.534,0.517-0.967,0.35-1.3
			C3.917-3.083,3.6-3.133,3.1-3C2.567-2.9,2.033-2.7,1.5-2.4z"/>
	</g>
</symbol>
<symbol  id="flash0.ai_x2F_Layer_3_x2F__x3C_Path_x3E__x5F_3_x5F_0" viewBox="-0.017 -2.208 3.845 2.203">
	<g id="Layer_1_8_">
		<path style="fill-rule:evenodd;clip-rule:evenodd;fill:#D9C57C;" d="M1.55-2C0.617-1.767,0.1-1.417,0-0.95
			c-0.067,0.267,0.067,0.5,0.4,0.7c0.367,0.233,0.783,0.3,1.25,0.2c0.633-0.167,1.184-0.434,1.65-0.8c0.434-0.367,0.6-0.7,0.5-1
			C3.767-2.083,3.5-2.2,3-2.2C2.567-2.233,2.083-2.167,1.55-2z"/>
	</g>
</symbol>
<symbol  id="flash0.ai_x2F_Layer_3_x2F__x3C_Path_x3E__x5F_3_x5F_1" viewBox="-0.026 -1.994 1.926 2.001">
	<g id="Layer_1_13_">
		<path style="fill-rule:evenodd;clip-rule:evenodd;fill:#D9C57C;" d="M0.55-1.3C0.083-0.833-0.1-0.5,0-0.3
			C0.033-0.133,0.183-0.033,0.45,0c0.267,0.033,0.5-0.05,0.7-0.25c0.3-0.267,0.517-0.567,0.65-0.9c0.133-0.333,0.133-0.583,0-0.75
			C1.6-2.133,1.183-1.933,0.55-1.3z"/>
	</g>
</symbol>
<symbol  id="flash0.ai_x2F_Layer_3_x2F__x3C_Path_x3E__x5F_3_x5F_2" viewBox="-0.003 -2.364 2.607 2.339">
	<g id="Layer_1_18_">
		<path style="fill-rule:evenodd;clip-rule:evenodd;fill:#D9C57C;" d="M0.85-1.7C0.25-1.267-0.033-0.85,0-0.45
			c0.033,0.2,0.2,0.333,0.5,0.4c0.333,0.066,0.65,0,0.95-0.2c0.433-0.3,0.75-0.667,0.95-1.1c0.233-0.4,0.267-0.7,0.1-0.9
			C2.4-2.383,2.183-2.4,1.85-2.3C1.517-2.167,1.183-1.967,0.85-1.7z"/>
	</g>
</symbol>
<symbol  id="flash0.ai_x2F_Layer_3_x2F__x3C_Path_x3E__x5F_3_x5F_3" viewBox="-0.022 -1.563 2.689 1.541">
	<g id="Layer_1_23_">
		<path style="fill-rule:evenodd;clip-rule:evenodd;fill:#D9C57C;" d="M1.15-1.45C0.483-1.283,0.1-1.05,0-0.75
			c-0.067,0.2,0.017,0.383,0.25,0.55C0.483-0.033,0.767,0.017,1.1-0.05c0.433-0.1,0.816-0.284,1.15-0.55
			c0.333-0.233,0.467-0.45,0.4-0.65C2.617-1.583,2.117-1.65,1.15-1.45z"/>
	</g>
</symbol>
<symbol  id="flash0.ai_x2F_Layer_3_x2F__x3C_Path_x3E__x5F_3_x5F_4" viewBox="-0.008 -1.15 2.014 1.113">
	<g id="Layer_1_28_">
		<path style="fill-rule:evenodd;clip-rule:evenodd;fill:#D9C57C;" d="M0.85-1.05C0.383-0.917,0.1-0.75,0-0.55
			c-0.033,0.133,0.033,0.267,0.2,0.4c0.167,0.1,0.367,0.133,0.6,0.1c0.333-0.034,0.633-0.167,0.9-0.4
			C1.933-0.617,2.033-0.783,2-0.95c-0.033-0.1-0.167-0.167-0.4-0.2C1.367-1.15,1.117-1.117,0.85-1.05z"/>
	</g>
</symbol>
<symbol  id="flash0.ai_x2F_Layer_3_x2F__x3C_Path_x3E__x5F_3_x5F_5" viewBox="0.009 -1.804 1.374 1.804">
	<g id="Layer_1_33_">
		<path style="fill-rule:evenodd;clip-rule:evenodd;fill:#D9C57C;" d="M0.3-1.1C0.033-0.7-0.05-0.4,0.05-0.2
			C0.117-0.067,0.25,0,0.45,0c0.2-0.033,0.367-0.15,0.5-0.35c0.233-0.233,0.367-0.517,0.4-0.85c0.066-0.3,0.033-0.483-0.1-0.55
			C1.017-1.917,0.7-1.7,0.3-1.1z"/>
	</g>
</symbol>
<symbol  id="flash0.ai_x2F_Layer_3_x2F__x3C_Path_x3E__x5F_4" viewBox="-0.01 -2.3 2.514 2.272">
	<g id="Layer_1_16_">
		<path style="fill-rule:evenodd;clip-rule:evenodd;fill:#D9C57C;" d="M0.8-1.6C0.2-1.2-0.067-0.8,0-0.4
			c0.033,0.2,0.2,0.316,0.5,0.35C0.833,0.017,1.133-0.067,1.4-0.3c0.4-0.3,0.7-0.65,0.9-1.05c0.233-0.4,0.267-0.683,0.1-0.85
			c-0.1-0.133-0.316-0.133-0.65,0S1.1-1.867,0.8-1.6z"/>
	</g>
</symbol>
<symbol  id="flash0.ai_x2F_Layer_3_x2F__x3C_Path_x3E__x5F_5" viewBox="0 -2.785 3.433 2.808">
	<g id="Layer_1_21_">
		<path style="fill-rule:evenodd;clip-rule:evenodd;fill:#D9C57C;" d="M1.2-2.05C0.4-1.483,0-1,0-0.6c0,0.267,0.183,0.45,0.55,0.55
			c0.4,0.133,0.8,0.083,1.2-0.15C2.317-0.533,2.767-0.95,3.1-1.45c0.333-0.466,0.417-0.833,0.25-1.1
			C3.083-2.983,2.367-2.817,1.2-2.05z"/>
	</g>
</symbol>
<symbol  id="flash0.ai_x2F_Layer_3_x2F__x3C_Path_x3E__x5F_6" viewBox="-0.004 -17.042 14.162 17.068">
	<g id="Layer_1_2_">
		
			<linearGradient id="SVGID_1_" gradientUnits="userSpaceOnUse" x1="-3371.0098" y1="-8575.0537" x2="-3356.0281" y2="-8575.0537" gradientTransform="matrix(0.6821 -0.7313 0.7313 0.6821 8573.3008 3379.0176)">
			<stop  offset="0" style="stop-color:#171517"/>
			<stop  offset="0.298" style="stop-color:#1D181D;stop-opacity:0.8667"/>
			<stop  offset="0.7059" style="stop-color:#2D212F;stop-opacity:0.4902"/>
			<stop  offset="1" style="stop-color:#3D2940;stop-opacity:0.1294"/>
		</linearGradient>
		<path style="fill-rule:evenodd;clip-rule:evenodd;fill:url(#SVGID_1_);" d="M11.3-0.3c1.333-0.434,2.2-1.233,2.6-2.4
			c0.4-1.2,0.333-2.716-0.2-4.55c-0.567-1.9-1.467-3.583-2.7-5.05c-3.067-3.6-6.05-5.15-8.95-4.65
			c-1.433,0.267-2.117,1.633-2.05,4.1c0.033,2.133,0.517,4.267,1.45,6.4C2.617-3.783,4.7-1.767,7.7-0.4C8.8,0.133,10,0.167,11.3-0.3
			z"/>
	</g>
</symbol>
<symbol  id="flash0.ai_x2F_Layer_3_x2F__x3C_Path_x3E__x5F_6_x5F_0" viewBox="-0.025 -15.803 10.748 15.788">
	<g id="Layer_1_7_">
		
			<linearGradient id="SVGID_2_" gradientUnits="userSpaceOnUse" x1="-3172.3936" y1="-5996.3506" x2="-3159.5034" y2="-5996.3506" gradientTransform="matrix(0.8278 -0.5611 0.5611 0.8278 5991.9092 3178.2734)">
			<stop  offset="0" style="stop-color:#171517"/>
			<stop  offset="0.298" style="stop-color:#1D181D;stop-opacity:0.8667"/>
			<stop  offset="0.7059" style="stop-color:#2D212F;stop-opacity:0.4902"/>
			<stop  offset="1" style="stop-color:#3D2940;stop-opacity:0.1294"/>
		</linearGradient>
		<path style="fill-rule:evenodd;clip-rule:evenodd;fill:url(#SVGID_2_);" d="M4.35-0.8c0.833,0.633,1.833,0.883,3,0.75
			c1.2-0.133,2.083-0.633,2.65-1.5c0.567-0.934,0.8-2.233,0.7-3.9c-0.1-1.7-0.534-3.283-1.3-4.75c-0.833-1.633-1.783-2.933-2.85-3.9
			c-1.233-1.1-2.483-1.667-3.75-1.7c-1.267-0.067-2.117,0.933-2.55,3c-0.367,1.767-0.367,3.667,0,5.7C0.683-4.8,2.05-2.7,4.35-0.8z"
			/>
	</g>
</symbol>
<symbol  id="flash0.ai_x2F_Layer_3_x2F__x3C_Path_x3E__x5F_6_x5F_1" viewBox="0.011 -8.045 8.7 8.025">
	<g id="Layer_1_12_">
		
			<linearGradient id="SVGID_3_" gradientUnits="userSpaceOnUse" x1="-2853.75" y1="-11620.0762" x2="-2845.844" y2="-11620.0762" gradientTransform="matrix(0.4638 -0.8859 0.8859 0.4638 11621.2324 2859.542)">
			<stop  offset="0" style="stop-color:#171517"/>
			<stop  offset="0.298" style="stop-color:#1D181D;stop-opacity:0.8667"/>
			<stop  offset="0.7059" style="stop-color:#2D212F;stop-opacity:0.4902"/>
			<stop  offset="1" style="stop-color:#3D2940;stop-opacity:0.1294"/>
		</linearGradient>
		<path style="fill-rule:evenodd;clip-rule:evenodd;fill:url(#SVGID_3_);" d="M5.85-0.05C6.483,0.05,7.1-0.1,7.7-0.5
			c0.633-0.433,0.966-0.967,1-1.6C8.767-2.767,8.533-3.533,8-4.4C7.433-5.267,6.733-6,5.9-6.6C3.8-8.033,2.067-8.4,0.7-7.7
			C0-7.367-0.167-6.583,0.2-5.35c0.3,1.1,0.85,2.117,1.65,3.05C2.817-1.1,4.15-0.35,5.85-0.05z"/>
	</g>
</symbol>
<symbol  id="flash0.ai_x2F_Layer_3_x2F__x3C_Path_x3E__x5F_6_x5F_2" viewBox="0.009 -11.135 10.348 11.158">
	<g id="Layer_1_17_">
		
			<linearGradient id="SVGID_4_" gradientUnits="userSpaceOnUse" x1="-3192.7754" y1="-10241.5391" x2="-3182.408" y2="-10241.5391" gradientTransform="matrix(0.569 -0.8223 0.8223 0.569 10241.6328 3199.3086)">
			<stop  offset="0" style="stop-color:#171517"/>
			<stop  offset="0.298" style="stop-color:#1D181D;stop-opacity:0.8667"/>
			<stop  offset="0.7059" style="stop-color:#2D212F;stop-opacity:0.4902"/>
			<stop  offset="1" style="stop-color:#3D2940;stop-opacity:0.1294"/>
		</linearGradient>
		<path style="fill-rule:evenodd;clip-rule:evenodd;fill:url(#SVGID_4_);" d="M8.8-0.4c0.833-0.467,1.333-1.117,1.5-1.95
			c0.167-0.867-0.033-1.9-0.6-3.1c-0.534-1.233-1.284-2.3-2.25-3.2c-2.333-2.167-4.467-2.917-6.4-2.25
			c-0.9,0.333-1.216,1.333-0.95,3c0.2,1.467,0.717,2.883,1.55,4.25c1,1.667,2.583,2.85,4.75,3.55C7.167,0.133,7.967,0.033,8.8-0.4z"
			/>
	</g>
</symbol>
<symbol  id="flash0.ai_x2F_Layer_3_x2F__x3C_Path_x3E__x5F_6_x5F_3" viewBox="0.017 -11.205 7.184 11.216">
	<g id="Layer_1_22_">
		
			<linearGradient id="SVGID_5_" gradientUnits="userSpaceOnUse" x1="-3043.1172" y1="-5399.2461" x2="-3034.0105" y2="-5399.2461" gradientTransform="matrix(0.8563 -0.5165 0.5165 0.8563 5395.5156 3047.2324)">
			<stop  offset="0" style="stop-color:#171517"/>
			<stop  offset="0.298" style="stop-color:#1D181D;stop-opacity:0.8667"/>
			<stop  offset="0.7059" style="stop-color:#2D212F;stop-opacity:0.4902"/>
			<stop  offset="1" style="stop-color:#3D2940;stop-opacity:0.1294"/>
		</linearGradient>
		<path style="fill-rule:evenodd;clip-rule:evenodd;fill:url(#SVGID_5_);" d="M4.65,0C5.483-0.067,6.1-0.4,6.5-1
			c0.467-0.633,0.7-1.533,0.7-2.7c0-1.167-0.233-2.3-0.7-3.4C5.433-9.633,4.017-11,2.25-11.2c-0.867-0.066-1.5,0.617-1.9,2.05
			c-0.333,1.267-0.417,2.6-0.25,4c0.167,1.7,1,3.2,2.5,4.5C3.133-0.15,3.817,0.067,4.65,0z"/>
	</g>
</symbol>
<symbol  id="flash0.ai_x2F_Layer_3_x2F__x3C_Path_x3E__x5F_6_x5F_4" viewBox="-0.017 -8.256 5.317 8.221">
	<g id="Layer_1_27_">
		
			<linearGradient id="SVGID_6_" gradientUnits="userSpaceOnUse" x1="-3040.7646" y1="-5386.1182" x2="-3034.0806" y2="-5386.1182" gradientTransform="matrix(0.8568 -0.5156 0.5156 0.8568 5383.1396 3044.1611)">
			<stop  offset="0" style="stop-color:#171517"/>
			<stop  offset="0.298" style="stop-color:#1D181D;stop-opacity:0.8667"/>
			<stop  offset="0.7059" style="stop-color:#2D212F;stop-opacity:0.4902"/>
			<stop  offset="1" style="stop-color:#3D2940;stop-opacity:0.1294"/>
		</linearGradient>
		<path style="fill-rule:evenodd;clip-rule:evenodd;fill:url(#SVGID_6_);" d="M1.9-0.5c0.4,0.367,0.9,0.517,1.5,0.45
			C4-0.083,4.467-0.317,4.8-0.75c0.333-0.467,0.5-1.133,0.5-2s-0.167-1.7-0.5-2.5c-0.867-1.9-1.933-2.9-3.2-3
			C1-8.317,0.55-7.817,0.25-6.75c-0.267,0.933-0.333,1.917-0.2,2.95C0.183-2.6,0.8-1.5,1.9-0.5z"/>
	</g>
</symbol>
<symbol  id="flash0.ai_x2F_Layer_3_x2F__x3C_Path_x3E__x5F_6_x5F_5" viewBox="0.025 -6.229 7.729 6.229">
	<g id="Layer_1_32_">
		
			<linearGradient id="SVGID_7_" gradientUnits="userSpaceOnUse" x1="-2098.5029" y1="-13461.6328" x2="-2091.8064" y2="-13461.6328" gradientTransform="matrix(0.3048 -0.9524 0.9524 0.3048 13463.7861 2103.7627)">
			<stop  offset="0" style="stop-color:#171517"/>
			<stop  offset="0.298" style="stop-color:#1D181D;stop-opacity:0.8667"/>
			<stop  offset="0.7059" style="stop-color:#2D212F;stop-opacity:0.4902"/>
			<stop  offset="1" style="stop-color:#3D2940;stop-opacity:0.1294"/>
		</linearGradient>
		<path style="fill-rule:evenodd;clip-rule:evenodd;fill:url(#SVGID_7_);" d="M5.75,0c0.533,0,1-0.217,1.4-0.65
			c0.434-0.434,0.633-0.917,0.6-1.45C7.683-2.7,7.367-3.317,6.8-3.95c-0.566-0.667-1.233-1.183-2-1.55C2.967-6.4,1.5-6.467,0.4-5.7
			c-0.5,0.4-0.5,1.083,0,2.05C0.8-2.783,1.383-2,2.15-1.3C3.083-0.433,4.283,0,5.75,0z"/>
	</g>
</symbol>
<symbol  id="flash0.ai_x2F_Layer_3_x2F__x3C_Path_x3E__x5F_7" viewBox="-0.041 -1.75 3.444 1.756">
	<g id="Layer_1_26_">
		<path style="fill-rule:evenodd;clip-rule:evenodd;fill:#D9C57C;" d="M1.5-1.7C0.633-1.567,0.133-1.317,0-0.95
			c-0.1,0.2-0.017,0.417,0.25,0.65c0.267,0.233,0.6,0.333,1,0.3C1.817-0.067,2.333-0.25,2.8-0.55c0.434-0.267,0.633-0.534,0.6-0.8
			C3.367-1.517,3.15-1.633,2.75-1.7C2.383-1.767,1.967-1.767,1.5-1.7z"/>
	</g>
</symbol>
<symbol  id="flash0.ai_x2F_Layer_3_x2F__x3C_Path_x3E__x5F_8" viewBox="-0.025 -1.262 2.53 1.27">
	<g id="Layer_1_31_">
		<path style="fill-rule:evenodd;clip-rule:evenodd;fill:#D9C57C;" d="M1.1-1.2C0.467-1.133,0.1-0.95,0-0.65
			C-0.067-0.517,0-0.367,0.2-0.2C0.4-0.033,0.65,0.033,0.95,0c0.4-0.067,0.767-0.183,1.1-0.35c0.333-0.2,0.483-0.4,0.45-0.6
			C2.467-1.25,2-1.333,1.1-1.2z"/>
	</g>
</symbol>
<symbol  id="flash0.ai_x2F_Layer_3_x2F__x3C_Path_x3E__x5F_9" viewBox="-0.03 -2.188 1.844 2.188">
	<g id="Layer_1_36_">
		<path style="fill-rule:evenodd;clip-rule:evenodd;fill:#D9C57C;" d="M0.45-1.4C0.05-0.9-0.1-0.517,0-0.25
			C0.067-0.083,0.217,0,0.45,0c0.267,0,0.5-0.117,0.7-0.35c0.3-0.3,0.5-0.633,0.6-1S1.833-1.967,1.7-2.1
			C1.5-2.333,1.083-2.1,0.45-1.4z"/>
	</g>
</symbol>
<g>
	<g>
		
			<use xlink:href="#flash0.ai_x2F_Layer_3_x2F__x3C_Path_x3E__x5F_6"  width="14.162" height="17.068" x="-0.004" y="-17.042" transform="matrix(1 0 0 -1 7.6001 24.4004)" style="overflow:visible;opacity:0.3516;enable-background:new    ;"/>
		<g>
			<path style="fill-rule:evenodd;clip-rule:evenodd;fill:#281C23;" d="M18.95,29.4l1.1-0.2c0.7-0.101,1.066-0.084,1.101,0.05
				c0.033,0.4-0.717,0.816-2.25,1.25c-1.066,0.066-1.383-0.1-0.95-0.5L18.95,29.4z"/>
			<path style="fill-rule:evenodd;clip-rule:evenodd;fill:#281C23;" d="M14.1,26.55l-0.2,1.101c-0.2,0.533-0.45,0.283-0.75-0.75
				c-0.033-0.4-0.05-0.801-0.05-1.2c0.033-0.8,0.167-1.233,0.4-1.3c0.133-0.034,0.267,0.316,0.4,1.05
				C14,25.816,14.067,26.184,14.1,26.55z"/>
			<path style="fill-rule:evenodd;clip-rule:evenodd;fill:#281C23;" d="M12.2,28L12,29.1c-0.233,0.534-0.5,0.284-0.8-0.75
				c-0.034-0.399-0.034-0.8,0-1.199c0.033-0.801,0.167-1.233,0.4-1.301c0.1-0.033,0.233,0.317,0.4,1.051
				C12.067,27.267,12.133,27.634,12.2,28z"/>
			<path style="fill-rule:evenodd;clip-rule:evenodd;fill:#281C23;" d="M11.3,30.5l0.15,0.9c0,0.466-0.3,0.399-0.9-0.2
				c-0.133-0.267-0.267-0.55-0.4-0.851c-0.233-0.6-0.25-0.966-0.05-1.1c0.1-0.066,0.333,0.116,0.7,0.55
				C10.967,30.033,11.133,30.267,11.3,30.5z"/>
			<path style="fill-rule:evenodd;clip-rule:evenodd;fill:#281C23;" d="M19.05,31.4l1-0.15c0.667-0.1,1-0.1,1,0
				c0.033,0.366-0.649,0.733-2.05,1.1c-0.967,0.067-1.25-0.066-0.85-0.399L19.05,31.4z"/>
			<path style="fill-rule:evenodd;clip-rule:evenodd;fill:#281C23;" d="M17.6,33.3l0.8,0.101c0.533,0.1,0.8,0.183,0.8,0.25
				c-0.066,0.366-0.684,0.566-1.85,0.6c-0.767-0.2-0.95-0.417-0.55-0.65L17.6,33.3z"/>
			<path style="fill-rule:evenodd;clip-rule:evenodd;fill:#657B9C;" d="M19.8,26.45c0.3,1.033,0.316,2.2,0.05,3.5
				c-0.699,3.267-2.533,5.8-5.5,7.6c-1.467,0.9-2.567,1.334-3.3,1.3c-0.533,0-1-0.283-1.4-0.85c-0.433-0.9-0.583-2.15-0.45-3.75
				c0.167-1.767,0.667-3.417,1.5-4.95c1.033-1.833,2.133-3.184,3.3-4.05c1.3-1,2.55-1.3,3.75-0.9
				C18.75,24.55,19.434,25.25,19.8,26.45z"/>
			<path style="fill-rule:evenodd;clip-rule:evenodd;fill:#9AA8BE;" d="M19.65,26.55c0.3,1.033,0.3,2.167,0,3.4
				c-0.7,3.166-2.467,5.633-5.3,7.399c-1.434,0.867-2.5,1.301-3.2,1.301c-0.5,0-0.95-0.267-1.35-0.801
				c-0.367-0.866-0.466-2.083-0.3-3.649c0.167-1.7,0.65-3.283,1.45-4.75c0.966-1.8,2.017-3.134,3.15-4
				c1.233-0.967,2.433-1.267,3.6-0.9C18.667,24.717,19.316,25.384,19.65,26.55z"/>
			<path style="fill-rule:evenodd;clip-rule:evenodd;fill:#657B9C;" d="M16.5,24.15l1.75,0.35c0.733,0.366,1.267,1.066,1.6,2.1
				c0.4,1.2,0.4,2.45,0,3.75c-0.866,2.9-2.399,5.134-4.6,6.7c-1.067,0.8-2.083,1.351-3.05,1.65c-1.067,0.366-1.817,0.316-2.25-0.15
				L9.65,38c0.667,0.967,1.934,0.684,3.8-0.85c1.966-1.7,3.433-3.801,4.4-6.301C18.683,28.517,18.233,26.283,16.5,24.15z"/>
			<path style="fill-rule:evenodd;clip-rule:evenodd;fill:#657B9C;" d="M14.75,24.7l1.2-0.45c0.867-0.233,1.55-0.15,2.05,0.25
				c0.733,0.533,1.217,1.233,1.45,2.1c0.133,0.434,0.184,0.801,0.149,1.101c-1.667,0.066-2.966-0.417-3.899-1.45L14.75,24.7z"/>
			<path style="fill-rule:evenodd;clip-rule:evenodd;fill:#281C23;" d="M16.4,24.35c0.1-0.366,0.217-0.716,0.35-1.05
				c0.267-0.666,0.467-0.934,0.6-0.8c0.1,0.167,0.033,0.783-0.2,1.85C16.383,25.75,16.133,25.75,16.4,24.35z"/>
			<path style="fill-rule:evenodd;clip-rule:evenodd;fill:#281C23;" d="M19.1,25.6c0.267-0.233,0.517-0.466,0.75-0.699
				c0.534-0.434,0.817-0.617,0.851-0.551c0.2,0.233-0.2,0.9-1.2,2C18.267,27.283,18.133,27.033,19.1,25.6z"/>
		</g>
		<path style="fill-rule:evenodd;clip-rule:evenodd;fill:#281C23;" d="M19.25,25.15c0.434,0.5,0.684,1.1,0.75,1.8
			c-0.033,0.3-0.366,0.399-1,0.3c-0.6-0.1-1.2-0.316-1.8-0.65c-0.633-0.333-1.133-0.733-1.5-1.199c-0.4-0.467-0.467-0.801-0.2-1
			c0.533-0.4,1.217-0.467,2.05-0.2C18.317,24.4,18.883,24.717,19.25,25.15z"/>
		<path style="fill-rule:evenodd;clip-rule:evenodd;fill:#564C52;" d="M17.45,24.95c0.2,0.2,0.316,0.45,0.35,0.75
			c0,0.133-0.133,0.166-0.4,0.1c-0.267-0.033-0.533-0.116-0.8-0.25c-0.733-0.434-1-0.767-0.8-1c0.233-0.166,0.534-0.184,0.9-0.05
			C17.033,24.6,17.283,24.75,17.45,24.95z"/>
		
			<use xlink:href="#flash0.ai_x2F_Layer_3_x2F__x3C_Path_x3E__x5F_3"  width="4.124" height="3.061" y="-3.073" transform="matrix(1 0 0 -1 12.8999 26.1504)" style="overflow:visible;opacity:0.5;enable-background:new    ;"/>
		
			<use xlink:href="#flash0.ai_x2F_Layer_3_x2F__x3C_Path_x3E__x5F_2"  width="4.591" height="3.19" x="0.009" y="-3.217" transform="matrix(1 0 0 -1 10.1499 31.9004)" style="overflow:visible;opacity:0.5;enable-background:new    ;"/>
		
			<use xlink:href="#flash0.ai_x2F_Layer_3_x2F__x3C_Path_x3E__x5F_1"  width="2.344" height="2.209" x="-0.006" y="-2.156" transform="matrix(1 0 0 -1 9.8501 35.3496)" style="overflow:visible;opacity:0.5;enable-background:new    ;"/>
		
			<use xlink:href="#flash0.ai_x2F_Layer_3_x2F__x3C_Path_x3E_"  width="5.36" height="3.557" x="-0.003" y="-3.518" transform="matrix(1 0 0 -1 11.1001 28.9502)" style="overflow:visible;opacity:0.5;enable-background:new    ;"/>
	</g>
	<g>
		
			<use xlink:href="#flash0.ai_x2F_Layer_3_x2F__x3C_Path_x3E__x5F_6_x5F_0"  width="10.748" height="15.788" x="-0.025" y="-15.803" transform="matrix(1 0 0 -1 23.4502 13.8999)" style="overflow:visible;opacity:0.3516;enable-background:new    ;"/>
		<g>
			<path style="fill-rule:evenodd;clip-rule:evenodd;fill:#281C23;" d="M31.75,17.9l0.9-0.35c0.566-0.233,0.866-0.3,0.899-0.2
				c0.134,0.333-0.399,0.816-1.6,1.45c-0.9,0.267-1.2,0.2-0.9-0.2C31.184,18.4,31.417,18.167,31.75,17.9z"/>
			<path style="fill-rule:evenodd;clip-rule:evenodd;fill:#281C23;" d="M27.15,16.4c0.233,1.633-0.017,1.8-0.75,0.5
				c-0.101-0.3-0.184-0.633-0.25-1c-0.134-0.667-0.101-1.05,0.1-1.15c0.1-0.033,0.283,0.233,0.55,0.8
				C26.934,15.817,27.05,16.1,27.15,16.4z"/>
			<path style="fill-rule:evenodd;clip-rule:evenodd;fill:#281C23;" d="M25.8,18c0.233,1.633-0.017,1.8-0.75,0.5
				c-0.1-0.333-0.184-0.667-0.25-1c-0.133-0.667-0.1-1.05,0.101-1.15c0.1-0.067,0.283,0.183,0.55,0.75
				C25.583,17.4,25.7,17.7,25.8,18z"/>
			<path style="fill-rule:evenodd;clip-rule:evenodd;fill:#281C23;" d="M25.55,20.25c0.634,1.134,0.467,1.384-0.5,0.75
				c-0.166-0.2-0.333-0.4-0.5-0.6c-0.3-0.467-0.383-0.783-0.25-0.95c0.066-0.067,0.3,0.05,0.7,0.35
				C25.2,19.933,25.384,20.083,25.55,20.25z"/>
			<path style="fill-rule:evenodd;clip-rule:evenodd;fill:#281C23;" d="M32.2,19.55l0.8-0.3c0.566-0.2,0.866-0.267,0.9-0.2
				c0.1,0.3-0.417,0.733-1.551,1.3c-0.8,0.267-1.066,0.217-0.8-0.15C31.684,20,31.9,19.783,32.2,19.55z"/>
			<path style="fill-rule:evenodd;clip-rule:evenodd;fill:#281C23;" d="M31.35,21.45c0.934-0.167,1.4-0.167,1.4,0
				c0.033,0.3-0.434,0.566-1.4,0.8c-0.699,0-0.899-0.134-0.6-0.4C30.884,21.717,31.083,21.583,31.35,21.45z"/>
			<path style="fill-rule:evenodd;clip-rule:evenodd;fill:#657B9C;" d="M29.8,13.85c0.867-0.033,1.566,0.433,2.101,1.4
				c0.433,0.8,0.666,1.767,0.699,2.9c0.067,2.9-0.983,5.383-3.149,7.45c-1.066,1.034-1.917,1.617-2.55,1.75
				c-0.434,0.101-0.884-0.05-1.351-0.449c-0.5-0.667-0.833-1.684-1-3.051c-0.2-1.533-0.1-3.016,0.3-4.45
				c0.467-1.733,1.117-3.083,1.95-4.05C27.667,14.25,28.667,13.75,29.8,13.85z"/>
			<path style="fill-rule:evenodd;clip-rule:evenodd;fill:#9AA8BE;" d="M29.8,14.05c0.834-0.033,1.5,0.4,2,1.3
				c0.4,0.8,0.617,1.75,0.65,2.85c0.066,2.8-0.95,5.217-3.05,7.25c-1.034,1.033-1.851,1.6-2.45,1.7c-0.4,0.1-0.816-0.051-1.25-0.45
				c-0.5-0.667-0.834-1.65-1-2.95c-0.167-1.467-0.05-2.9,0.35-4.3c0.467-1.7,1.101-3.017,1.9-3.95
				C27.816,14.433,28.767,13.95,29.8,14.05z"/>
			<path style="fill-rule:evenodd;clip-rule:evenodd;fill:#657B9C;" d="M28.7,13.95h1.5c0.7,0.133,1.3,0.617,1.8,1.45
				c0.533,0.9,0.767,1.95,0.7,3.15c-0.2,2.601-1.066,4.767-2.601,6.5c-0.733,0.867-1.466,1.517-2.199,1.95
				c-0.867,0.5-1.517,0.6-1.95,0.3l-0.4-0.399c0.767,0.666,1.8,0.183,3.101-1.45c1.333-1.8,2.149-3.851,2.449-6.15
				C31.333,17.267,30.533,15.483,28.7,13.95z"/>
			<path style="fill-rule:evenodd;clip-rule:evenodd;fill:#657B9C;" d="M27.35,14.75l0.9-0.6c0.667-0.367,1.267-0.433,1.8-0.2
				c1.101,0.5,1.733,1.3,1.9,2.4c-1.367,0.367-2.55,0.2-3.55-0.5L27.35,14.75z"/>
			<path style="fill-rule:evenodd;clip-rule:evenodd;fill:#281C23;" d="M28.65,14.15c0.033-0.333,0.066-0.65,0.1-0.95
				c0.1-0.633,0.217-0.9,0.35-0.8c0.101,0.133,0.15,0.667,0.15,1.6C28.917,15.3,28.717,15.35,28.65,14.15z"/>
			<path style="fill-rule:evenodd;clip-rule:evenodd;fill:#281C23;" d="M31.15,14.65l0.5-0.7c0.366-0.467,0.566-0.684,0.6-0.65
				c0.2,0.167,0,0.8-0.6,1.9C30.783,16.233,30.616,16.05,31.15,14.65z"/>
		</g>
		<path style="fill-rule:evenodd;clip-rule:evenodd;fill:#281C23;" d="M31.2,14.3c0.467,0.333,0.783,0.767,0.95,1.3
			c0.033,0.267-0.217,0.417-0.75,0.45c-0.5,0.067-1.051,0.017-1.65-0.15c-0.6-0.2-1.1-0.45-1.5-0.75c-0.434-0.333-0.55-0.6-0.35-0.8
			c0.366-0.434,0.933-0.633,1.699-0.6C30.267,13.783,30.8,13.967,31.2,14.3z"/>
		<path style="fill-rule:evenodd;clip-rule:evenodd;fill:#564C52;" d="M29.65,14.4C29.85,14.567,30,14.767,30.1,15
			c0.034,0.133-0.083,0.2-0.35,0.2c-0.233,0-0.467-0.034-0.7-0.1c-0.267-0.067-0.483-0.167-0.649-0.3
			c-0.2-0.167-0.267-0.283-0.2-0.35c0.166-0.167,0.416-0.25,0.75-0.25C29.25,14.2,29.483,14.267,29.65,14.4z"/>
		
			<use xlink:href="#flash0.ai_x2F_Layer_3_x2F__x3C_Path_x3E__x5F_3_x5F_0"  width="3.845" height="2.203" x="-0.017" y="-2.208" transform="matrix(1 0 0 -1 26.2002 16.0498)" style="overflow:visible;opacity:0.5;enable-background:new    ;"/>
		
			<use xlink:href="#flash0.ai_x2F_Layer_3_x2F__x3C_Path_x3E__x5F_2_x5F_0"  width="4.263" height="2.308" x="0" y="-2.295" transform="matrix(1 0 0 -1 24.9502 21.5)" style="overflow:visible;opacity:0.5;enable-background:new    ;"/>
		
			<use xlink:href="#flash0.ai_x2F_Layer_3_x2F__x3C_Path_x3E__x5F_1_x5F_0"  width="2.107" height="1.777" x="-0.012" y="-1.764" transform="matrix(1 0 0 -1 25.4004 24.4502)" style="overflow:visible;opacity:0.5;enable-background:new    ;"/>
		
			<use xlink:href="#flash0.ai_x2F_Layer_3_x2F__x3C_Path_x3E__x5F_0"  width="4.892" height="2.55" x="0.018" y="-2.533" transform="matrix(1 0 0 -1 25.25 18.6499)" style="overflow:visible;opacity:0.5;enable-background:new    ;"/>
	</g>
	<g>
		
			<use xlink:href="#flash0.ai_x2F_Layer_3_x2F__x3C_Path_x3E__x5F_6_x5F_1"  width="8.7" height="8.025" x="0.011" y="-8.045" transform="matrix(1 0 0 -1 12.3501 13.2998)" style="overflow:visible;opacity:0.3516;enable-background:new    ;"/>
		<g>
			<path style="fill-rule:evenodd;clip-rule:evenodd;fill:#281C23;" d="M19.45,16.2c0.767,0.066,1.133,0.15,1.1,0.25
				c-0.033,0.233-0.467,0.35-1.3,0.35c-0.533-0.133-0.667-0.267-0.4-0.4C19.017,16.333,19.217,16.267,19.45,16.2z"/>
			<path style="fill-rule:evenodd;clip-rule:evenodd;fill:#281C23;" d="M17.4,14.1c-0.367,0.933-0.55,0.95-0.55,0.05
				c0.033-0.2,0.083-0.4,0.15-0.6c0.1-0.433,0.217-0.65,0.35-0.65C17.45,12.9,17.467,13.3,17.4,14.1z"/>
			<path style="fill-rule:evenodd;clip-rule:evenodd;fill:#281C23;" d="M16.2,14.55c-0.367,0.934-0.55,0.95-0.55,0.05
				c0.033-0.2,0.083-0.4,0.15-0.6c0.133-0.4,0.267-0.6,0.4-0.6C16.267,13.4,16.267,13.783,16.2,14.55z"/>
			<path style="fill-rule:evenodd;clip-rule:evenodd;fill:#281C23;" d="M15.4,15.7c0.033,0.8-0.133,0.883-0.5,0.25
				c-0.033-0.133-0.066-0.284-0.1-0.45c-0.033-0.333,0.017-0.533,0.15-0.6C15.05,14.867,15.2,15.133,15.4,15.7z"/>
			<path style="fill-rule:evenodd;clip-rule:evenodd;fill:#281C23;" d="M19.2,17.25c0.733,0.033,1.083,0.1,1.05,0.2
				c-0.033,0.2-0.434,0.3-1.2,0.3c-0.533-0.1-0.667-0.217-0.4-0.35C18.783,17.333,18.967,17.283,19.2,17.25z"/>
			<path style="fill-rule:evenodd;clip-rule:evenodd;fill:#281C23;" d="M18.2,18c0.533,0.2,0.783,0.333,0.75,0.4
				c-0.067,0.2-0.4,0.217-1,0.05c-0.367-0.2-0.434-0.333-0.2-0.4C17.85,18.017,18,18,18.2,18z"/>
			<path style="fill-rule:evenodd;clip-rule:evenodd;fill:#657B9C;" d="M15.95,19.75c-0.867,0.233-1.5,0.3-1.9,0.2
				c-0.233-0.1-0.417-0.317-0.55-0.65c-0.067-0.533,0.033-1.183,0.3-1.95c0.333-0.867,0.817-1.633,1.45-2.3
				c1.733-1.767,3.167-2.3,4.3-1.6c0.5,0.267,0.75,0.716,0.75,1.35c0,0.6-0.166,1.2-0.5,1.8C19.033,18.167,17.75,19.217,15.95,19.75
				z"/>
			<path style="fill-rule:evenodd;clip-rule:evenodd;fill:#9AA8BE;" d="M16,19.6c-0.867,0.267-1.483,0.35-1.85,0.25
				c-0.233-0.067-0.417-0.267-0.55-0.6c-0.067-0.5,0.05-1.133,0.35-1.9c0.333-0.833,0.8-1.583,1.4-2.25c1.7-1.7,3.083-2.2,4.15-1.5
				c0.467,0.2,0.7,0.633,0.7,1.3c-0.033,0.533-0.2,1.1-0.5,1.7C19,18.1,17.767,19.1,16,19.6z"/>
			<path style="fill-rule:evenodd;clip-rule:evenodd;fill:#657B9C;" d="M15.55,19.4c1.233-0.566,2.267-1.433,3.1-2.6
				c0.767-1.066,0.85-2.267,0.25-3.6c0.567,0.267,0.85,0.417,0.85,0.45c0.333,0.267,0.517,0.7,0.55,1.3
				c0.033,0.667-0.149,1.3-0.55,1.9c-0.8,1.333-1.883,2.25-3.25,2.75c-1.633,0.633-2.6,0.633-2.9,0l-0.1-0.25
				C13.732,19.902,14.416,19.918,15.55,19.4z"/>
			<path style="fill-rule:evenodd;clip-rule:evenodd;fill:#657B9C;" d="M17.95,13.25l0.65-0.05c0.5,0,0.85,0.133,1.05,0.4
				c0.466,0.6,0.583,1.217,0.35,1.85c-0.866-0.2-1.467-0.633-1.8-1.3L17.95,13.25z"/>
			<path style="fill-rule:evenodd;clip-rule:evenodd;fill:#281C23;" d="M18.85,13.3l0.35-0.5c0.2-0.3,0.316-0.4,0.35-0.3
				s-0.083,0.4-0.35,0.9C18.633,14,18.517,13.967,18.85,13.3z"/>
			<path style="fill-rule:evenodd;clip-rule:evenodd;fill:#281C23;" d="M20.05,14.3l1-0.4c0.066,0.133-0.233,0.417-0.899,0.85
				c-0.467,0.2-0.634,0.183-0.5-0.05C19.75,14.6,19.884,14.467,20.05,14.3z"/>
		</g>
		<path style="fill-rule:evenodd;clip-rule:evenodd;fill:#281C23;" d="M20.2,14.1c0.133,0.333,0.166,0.667,0.1,1
			c-0.033,0.167-0.217,0.183-0.55,0.05c-0.3-0.133-0.566-0.333-0.8-0.6c-0.267-0.267-0.467-0.533-0.6-0.8
			c-0.133-0.333-0.133-0.517,0-0.55c0.333-0.133,0.7-0.083,1.1,0.15C19.816,13.55,20.066,13.8,20.2,14.1z"/>
		<path style="fill-rule:evenodd;clip-rule:evenodd;fill:#564C52;" d="M19.3,13.75c0.066,0.133,0.084,0.267,0.05,0.4
			c0,0.233-0.199,0.15-0.6-0.25c-0.333-0.333-0.417-0.533-0.25-0.6c0.133-0.033,0.3,0,0.5,0.1C19.134,13.5,19.233,13.617,19.3,13.75
			z"/>
		
			<use xlink:href="#flash0.ai_x2F_Layer_3_x2F__x3C_Path_x3E__x5F_3_x5F_1"  width="1.926" height="2.001" x="-0.026" y="-1.994" transform="matrix(1 0 0 -1 16.7002 13.8501)" style="overflow:visible;opacity:0.5;enable-background:new    ;"/>
		
			<use xlink:href="#flash0.ai_x2F_Layer_3_x2F__x3C_Path_x3E__x5F_2_x5F_1"  width="2.194" height="2.065" x="-0.006" y="-2.089" transform="matrix(1 0 0 -1 14.4502 16.3501)" style="overflow:visible;opacity:0.5;enable-background:new    ;"/>
		
			<use xlink:href="#flash0.ai_x2F_Layer_3_x2F__x3C_Path_x3E__x5F_1_x5F_1"  width="1.202" height="1.255" x="0.01" y="-1.26" transform="matrix(1 0 0 -1 13.7998 18.0498)" style="overflow:visible;opacity:0.5;enable-background:new    ;"/>
		
			<use xlink:href="#flash0.ai_x2F_Layer_3_x2F__x3C_Path_x3E__x5F_4"  width="2.514" height="2.272" x="-0.01" y="-2.3" transform="matrix(1 0 0 -1 15.3501 15.0498)" style="overflow:visible;opacity:0.5;enable-background:new    ;"/>
	</g>
	<g>
		
			<use xlink:href="#flash0.ai_x2F_Layer_3_x2F__x3C_Path_x3E__x5F_6_x5F_2"  width="10.348" height="11.158" x="0.009" y="-11.135" transform="matrix(1 0 0 -1 23.0498 1.2998)" style="overflow:visible;opacity:0.3516;enable-background:new    ;"/>
		<g>
			<path style="fill-rule:evenodd;clip-rule:evenodd;fill:#281C23;" d="M31.4,4.95c1-0.034,1.5,0,1.5,0.1
				c0,0.3-0.534,0.517-1.601,0.65c-0.7-0.067-0.899-0.217-0.6-0.45C30.866,5.15,31.1,5.05,31.4,4.95z"/>
			<path style="fill-rule:evenodd;clip-rule:evenodd;fill:#281C23;" d="M28.5,2.5c-0.3,1.267-0.533,1.317-0.7,0.15
				C27.833,2.383,27.866,2.1,27.9,1.8C28,1.267,28.134,0.983,28.3,0.95C28.4,0.95,28.467,1.467,28.5,2.5z"/>
			<path style="fill-rule:evenodd;clip-rule:evenodd;fill:#281C23;" d="M27.05,3.3c-0.267,1.267-0.483,1.317-0.649,0.15
				c0-0.267,0.033-0.55,0.1-0.85c0.066-0.533,0.184-0.817,0.35-0.85C26.983,1.75,27.05,2.267,27.05,3.3z"/>
			<path style="fill-rule:evenodd;clip-rule:evenodd;fill:#281C23;" d="M26.25,4.9c0.167,1.033-0.017,1.167-0.55,0.4
				c-0.066-0.2-0.134-0.4-0.2-0.6c-0.1-0.4-0.083-0.65,0.05-0.75c0.066-0.034,0.2,0.117,0.4,0.45C26.05,4.567,26.15,4.733,26.25,4.9
				z"/>
			<path style="fill-rule:evenodd;clip-rule:evenodd;fill:#281C23;" d="M31.3,6.35c0.9-0.067,1.351-0.033,1.351,0.1
				c0,0.233-0.483,0.417-1.45,0.55c-0.667-0.067-0.851-0.2-0.55-0.4C30.816,6.533,31.033,6.45,31.3,6.35z"/>
			<path style="fill-rule:evenodd;clip-rule:evenodd;fill:#281C23;" d="M30.15,7.5c0.733,0.167,1.083,0.3,1.05,0.4
				c-0.066,0.267-0.5,0.333-1.3,0.2c-0.467-0.2-0.567-0.367-0.301-0.5C29.733,7.567,29.917,7.533,30.15,7.5z"/>
			<path style="fill-rule:evenodd;clip-rule:evenodd;fill:#657B9C;" d="M31.1,1.35c0.634,0.233,1.017,0.783,1.15,1.65
				C32.384,3.767,32.3,4.583,32,5.45c-0.8,2.167-2.267,3.716-4.4,4.65c-1.066,0.467-1.85,0.65-2.35,0.55
				c-0.366-0.066-0.65-0.316-0.85-0.75c-0.2-0.667-0.167-1.533,0.1-2.6c0.3-1.2,0.783-2.283,1.45-3.25
				c0.866-1.167,1.733-1.983,2.6-2.45C29.483,1.033,30.333,0.95,31.1,1.35z"/>
			<path style="fill-rule:evenodd;clip-rule:evenodd;fill:#9AA8BE;" d="M27.6,9.95c-1,0.466-1.75,0.65-2.25,0.55
				c-0.3-0.067-0.566-0.3-0.8-0.7c-0.166-0.633-0.133-1.466,0.101-2.5c0.3-1.167,0.783-2.216,1.449-3.15
				c1.867-2.5,3.534-3.383,5-2.65c0.601,0.2,0.95,0.733,1.051,1.6c0.1,0.7,0,1.467-0.301,2.3C31.116,7.5,29.7,9.017,27.6,9.95z"/>
			<path style="fill-rule:evenodd;clip-rule:evenodd;fill:#657B9C;" d="M31.4,1.55c0.466,0.3,0.767,0.833,0.899,1.6
				c0.134,0.833,0.017,1.684-0.35,2.55c-0.867,1.9-2.101,3.283-3.7,4.15c-0.8,0.433-1.533,0.717-2.2,0.85
				c-0.733,0.1-1.217-0.034-1.45-0.4L24.4,9.9c0.399,0.733,1.283,0.667,2.649-0.2c1.467-0.934,2.634-2.217,3.5-3.85
				c0.8-1.5,0.717-3.083-0.25-4.75C30.366,1.133,30.733,1.283,31.4,1.55z"/>
			<path style="fill-rule:evenodd;clip-rule:evenodd;fill:#657B9C;" d="M29.1,1.3L29.9,1.1C30.533,1.033,31,1.167,31.3,1.5
				c0.667,0.7,0.9,1.483,0.7,2.35c-1.1-0.133-1.917-0.6-2.45-1.4L29.1,1.3z"/>
			<path style="fill-rule:evenodd;clip-rule:evenodd;fill:#281C23;" d="M30.2,1.2l0.35-0.65c0.233-0.433,0.384-0.6,0.45-0.5
				c0.066,0.133-0.033,0.55-0.3,1.25C30.3,1.867,30.1,2.017,30.1,1.75L30.2,1.2z"/>
			<path style="fill-rule:evenodd;clip-rule:evenodd;fill:#281C23;" d="M31.9,2.35l0.55-0.4c0.399-0.233,0.616-0.333,0.649-0.3
				c0.101,0.2-0.233,0.617-1,1.25c-0.566,0.333-0.767,0.35-0.6,0.05L31.9,2.35z"/>
		</g>
		<path style="fill-rule:evenodd;clip-rule:evenodd;fill:#281C23;" d="M32.05,2.1c0.233,0.367,0.334,0.783,0.3,1.25
			C32.316,3.583,32.1,3.633,31.7,3.5c-0.4-0.133-0.8-0.35-1.2-0.65c-0.366-0.3-0.65-0.617-0.85-0.95
			C29.417,1.533,29.4,1.283,29.6,1.15c0.4-0.2,0.867-0.167,1.4,0.1C31.467,1.45,31.816,1.733,32.05,2.1z"/>
		<path style="fill-rule:evenodd;clip-rule:evenodd;fill:#564C52;" d="M30.85,1.75C30.983,1.917,31.033,2.1,31,2.3
			c0,0.2-0.267,0.117-0.8-0.25C29.733,1.683,29.6,1.433,29.8,1.3c0.167-0.1,0.367-0.083,0.601,0.05
			C30.6,1.45,30.75,1.583,30.85,1.75z"/>
		
			<use xlink:href="#flash0.ai_x2F_Layer_3_x2F__x3C_Path_x3E__x5F_3_x5F_2"  width="2.607" height="2.339" x="-0.003" y="-2.364" transform="matrix(1 0 0 -1 27.6504 2.2002)" style="overflow:visible;opacity:0.5;enable-background:new    ;"/>
		
			<use xlink:href="#flash0.ai_x2F_Layer_3_x2F__x3C_Path_x3E__x5F_2_x5F_2"  width="2.944" height="2.515" x="-0.007" y="-2.523" transform="matrix(1 0 0 -1 25.25 5.8501)" style="overflow:visible;opacity:0.5;enable-background:new    ;"/>
		
			<use xlink:href="#flash0.ai_x2F_Layer_3_x2F__x3C_Path_x3E__x5F_1_x5F_2"  width="1.577" height="1.596" x="-0.01" y="-1.6" transform="matrix(1 0 0 -1 24.7002 8.1499)" style="overflow:visible;opacity:0.5;enable-background:new    ;"/>
		
			<use xlink:href="#flash0.ai_x2F_Layer_3_x2F__x3C_Path_x3E__x5F_5"  width="3.433" height="2.808" y="-2.785" transform="matrix(1 0 0 -1 26.1504 4)" style="overflow:visible;opacity:0.5;enable-background:new    ;"/>
	</g>
	<g>
		
			<use xlink:href="#flash0.ai_x2F_Layer_3_x2F__x3C_Path_x3E__x5F_6_x5F_3"  width="7.184" height="11.216" x="0.017" y="-11.205" transform="matrix(1 0 0 -1 0 29.0996)" style="overflow:visible;opacity:0.3516;enable-background:new    ;"/>
		<g>
			<path style="fill-rule:evenodd;clip-rule:evenodd;fill:#281C23;" d="M5.45,31.85l0.6-0.3c0.4-0.166,0.617-0.217,0.65-0.149
				c0.1,0.267-0.25,0.633-1.05,1.1C4.683,32.833,4.617,32.616,5.45,31.85z"/>
			<path style="fill-rule:evenodd;clip-rule:evenodd;fill:#281C23;" d="M2.2,30.95c0.267,1.133,0.117,1.25-0.45,0.35
				c-0.1-0.233-0.183-0.467-0.25-0.7c-0.133-0.466-0.133-0.733,0-0.8c0.067-0.033,0.2,0.15,0.4,0.55C2,30.55,2.1,30.75,2.2,30.95z"
				/>
			<path style="fill-rule:evenodd;clip-rule:evenodd;fill:#281C23;" d="M1.35,32.1c0.233,1.134,0.083,1.25-0.45,0.351
				c-0.367-0.9-0.45-1.4-0.25-1.5c0.067-0.033,0.2,0.149,0.4,0.55C1.15,31.7,1.25,31.9,1.35,32.1z"/>
			<path style="fill-rule:evenodd;clip-rule:evenodd;fill:#281C23;" d="M1.3,33.7C1.8,34.434,1.7,34.6,1,34.2
				c-0.533-0.5-0.733-0.851-0.6-1.05c0.033-0.067,0.2,0,0.5,0.199C1.033,33.483,1.167,33.6,1.3,33.7z"/>
			<path style="fill-rule:evenodd;clip-rule:evenodd;fill:#281C23;" d="M5.85,33l0.55-0.25c0.367-0.167,0.567-0.217,0.6-0.15
				c0.067,0.2-0.267,0.517-1,0.95C5.133,33.884,5.083,33.7,5.85,33z"/>
			<path style="fill-rule:evenodd;clip-rule:evenodd;fill:#281C23;" d="M5.35,34.35l0.5-0.1c0.3-0.033,0.467-0.017,0.5,0.05
				c0.033,0.233-0.283,0.434-0.95,0.601C4.633,34.934,4.617,34.75,5.35,34.35z"/>
			<path style="fill-rule:evenodd;clip-rule:evenodd;fill:#657B9C;" d="M4.25,37.35C3.583,38.083,3.033,38.5,2.6,38.6
				c-0.333,0.101-0.65,0.017-0.95-0.25c-0.4-0.466-0.7-1.183-0.9-2.149c-0.2-1.033-0.2-2.066,0-3.101c0.6-2.767,1.65-4.1,3.15-4
				c0.6-0.033,1.117,0.267,1.55,0.9c0.333,0.566,0.533,1.25,0.6,2.05C6.283,34.017,5.683,35.783,4.25,37.35z"/>
			<path style="fill-rule:evenodd;clip-rule:evenodd;fill:#9AA8BE;" d="M4.2,37.2C3.533,37.934,3,38.35,2.6,38.45
				c-0.3,0.1-0.6,0.017-0.9-0.25c-0.367-0.434-0.633-1.117-0.8-2.05c-0.2-1-0.2-2,0-3c0.6-2.667,1.617-3.983,3.05-3.95
				c0.566-0.033,1.033,0.267,1.4,0.899c0.333,0.534,0.533,1.184,0.6,1.95C6.117,33.983,5.533,35.7,4.2,37.2z"/>
			<path style="fill-rule:evenodd;clip-rule:evenodd;fill:#657B9C;" d="M3.15,29.15c0.067,0.033,0.417,0.017,1.05-0.051
				c0.5,0.101,0.933,0.434,1.3,1c0.433,0.634,0.65,1.367,0.65,2.2c0,1.767-0.483,3.3-1.45,4.601c-1.2,1.566-2.133,2.133-2.8,1.699
				l-0.25-0.25c0.6,0.467,1.267,0.084,2-1.149c0.833-1.167,1.317-2.617,1.45-4.351C5.167,31.35,4.517,30.116,3.15,29.15z"/>
			<path style="fill-rule:evenodd;clip-rule:evenodd;fill:#657B9C;" d="M2.3,29.75c0.167-0.167,0.367-0.316,0.6-0.45
				c0.434-0.233,0.833-0.283,1.2-0.149c0.8,0.3,1.283,0.833,1.45,1.6c-0.933,0.3-1.75,0.217-2.45-0.25L2.3,29.75z"/>
			<path style="fill-rule:evenodd;clip-rule:evenodd;fill:#281C23;" d="M3.15,29.3c0-0.233,0.017-0.45,0.05-0.649
				c0.033-0.434,0.083-0.617,0.15-0.551c0.1,0.067,0.167,0.434,0.2,1.101C3.383,30.134,3.25,30.167,3.15,29.3z"/>
			<path style="fill-rule:evenodd;clip-rule:evenodd;fill:#281C23;" d="M4.9,29.6c0.1-0.166,0.2-0.333,0.3-0.5
				c0.233-0.333,0.367-0.483,0.4-0.449c0.133,0.1,0.017,0.533-0.35,1.3C4.717,30.717,4.6,30.6,4.9,29.6z"/>
		</g>
		<path style="fill-rule:evenodd;clip-rule:evenodd;fill:#281C23;" d="M4.9,29.35c0.333,0.233,0.583,0.534,0.75,0.9
			c0.033,0.2-0.133,0.316-0.5,0.35c-0.367,0.034-0.75,0-1.15-0.1c-0.433-0.1-0.783-0.25-1.05-0.45
			c-0.333-0.233-0.434-0.416-0.3-0.55c0.233-0.333,0.617-0.483,1.15-0.45C4.233,29.05,4.6,29.15,4.9,29.35z"/>
		<path style="fill-rule:evenodd;clip-rule:evenodd;fill:#564C52;" d="M3.85,29.5l0.35,0.35c0,0.2-0.25,0.233-0.75,0.101
			C3.283,29.917,3.133,29.85,3,29.75c-0.133-0.066-0.183-0.134-0.15-0.2c0.1-0.133,0.267-0.2,0.5-0.2
			C3.55,29.35,3.717,29.4,3.85,29.5z"/>
		
			<use xlink:href="#flash0.ai_x2F_Layer_3_x2F__x3C_Path_x3E__x5F_3_x5F_3"  width="2.689" height="1.541" x="-0.022" y="-1.563" transform="matrix(1 0 0 -1 1.6001 30.6504)" style="overflow:visible;opacity:0.5;enable-background:new    ;"/>
		
			<use xlink:href="#flash0.ai_x2F_Layer_3_x2F__x3C_Path_x3E__x5F_2_x5F_3"  width="2.977" height="1.562" x="-0.014" y="-1.533" transform="matrix(1 0 0 -1 1 34.5498)" style="overflow:visible;opacity:0.5;enable-background:new    ;"/>
		
			<use xlink:href="#flash0.ai_x2F_Layer_3_x2F__x3C_Path_x3E__x5F_1_x5F_3"  width="1.475" height="1.309" x="-0.017" y="-1.286" transform="matrix(1 0 0 -1 1.4502 36.5996)" style="overflow:visible;opacity:0.5;enable-background:new    ;"/>
		
			<use xlink:href="#flash0.ai_x2F_Layer_3_x2F__x3C_Path_x3E__x5F_7"  width="3.444" height="1.756" x="-0.041" y="-1.75" transform="matrix(1 0 0 -1 1.1001 32.5)" style="overflow:visible;opacity:0.5;enable-background:new    ;"/>
	</g>
	<g>
		
			<use xlink:href="#flash0.ai_x2F_Layer_3_x2F__x3C_Path_x3E__x5F_6_x5F_4"  width="5.317" height="8.221" x="-0.017" y="-8.256" transform="matrix(1 0 0 -1 33.5 6.5)" style="overflow:visible;opacity:0.3516;enable-background:new    ;"/>
		<g>
			<path style="fill-rule:evenodd;clip-rule:evenodd;fill:#281C23;" d="M37.5,8.55l0.9-0.35c0.066,0.2-0.184,0.466-0.75,0.8
				c-0.467,0.133-0.634,0.1-0.5-0.1C37.217,8.8,37.333,8.683,37.5,8.55z"/>
			<path style="fill-rule:evenodd;clip-rule:evenodd;fill:#281C23;" d="M35.1,7.85c0.2,0.833,0.084,0.933-0.35,0.3
				c-0.066-0.167-0.116-0.333-0.15-0.5c-0.066-0.367-0.066-0.583,0-0.65L35.1,7.85z"/>
			<path style="fill-rule:evenodd;clip-rule:evenodd;fill:#281C23;" d="M34.5,8.7c0.167,0.833,0.05,0.933-0.35,0.3
				C34.083,8.833,34.033,8.667,34,8.5c-0.1-0.367-0.116-0.583-0.05-0.65L34.5,8.7z"/>
			<path style="fill-rule:evenodd;clip-rule:evenodd;fill:#281C23;" d="M34.45,9.9c0.366,0.567,0.283,0.7-0.25,0.4
				c-0.101-0.1-0.184-0.2-0.25-0.3c-0.167-0.233-0.217-0.4-0.15-0.5L34.45,9.9z"/>
			<path style="fill-rule:evenodd;clip-rule:evenodd;fill:#281C23;" d="M37.8,9.4l0.851-0.3c0.033,0.133-0.217,0.367-0.75,0.7
				c-0.4,0.133-0.534,0.117-0.4-0.05C37.566,9.65,37.667,9.533,37.8,9.4z"/>
			<path style="fill-rule:evenodd;clip-rule:evenodd;fill:#281C23;" d="M37.45,10.4c0.467-0.1,0.7-0.117,0.7-0.05
				c0.033,0.167-0.2,0.316-0.7,0.45c-0.367,0.034-0.467-0.033-0.3-0.2C37.217,10.533,37.316,10.467,37.45,10.4z"/>
			<path style="fill-rule:evenodd;clip-rule:evenodd;fill:#657B9C;" d="M36.6,12.6c-0.5,0.533-0.899,0.85-1.199,0.95
				c-0.233,0.034-0.467-0.05-0.7-0.25c-0.3-0.333-0.517-0.85-0.65-1.55c-0.166-0.767-0.166-1.533,0-2.3c0.4-2,1.167-2.983,2.3-2.95
				c0.467-0.033,0.851,0.183,1.15,0.65c0.233,0.4,0.384,0.9,0.45,1.5C38.116,10.117,37.667,11.433,36.6,12.6z"/>
			<path style="fill-rule:evenodd;clip-rule:evenodd;fill:#9AA8BE;" d="M36.6,12.5c-0.5,0.533-0.899,0.85-1.199,0.95
				c-0.233,0.066-0.45,0-0.65-0.2c-0.267-0.367-0.467-0.883-0.6-1.55c-0.134-0.733-0.134-1.467,0-2.2
				c0.433-1.967,1.183-2.933,2.25-2.9c0.399-0.033,0.75,0.183,1.05,0.65c0.233,0.4,0.383,0.883,0.45,1.45
				C38,10.1,37.566,11.367,36.6,12.5z"/>
			<path style="fill-rule:evenodd;clip-rule:evenodd;fill:#657B9C;" d="M35.8,6.55h0.8c0.367,0.067,0.684,0.3,0.95,0.7
				c0.3,0.467,0.45,1,0.45,1.6c0,1.267-0.35,2.4-1.05,3.4c-0.9,1.167-1.584,1.583-2.05,1.25l-0.2-0.2c0.399,0.367,0.899,0.1,1.5-0.8
				c0.633-1,0.983-2.067,1.05-3.2C37.283,8.267,36.8,7.35,35.8,6.55z"/>
			<path style="fill-rule:evenodd;clip-rule:evenodd;fill:#657B9C;" d="M35.15,7L35.6,6.65c0.334-0.2,0.634-0.233,0.9-0.1
				c0.6,0.233,0.95,0.633,1.05,1.2c-0.7,0.2-1.3,0.133-1.8-0.2L35.15,7z"/>
			<path style="fill-rule:evenodd;clip-rule:evenodd;fill:#281C23;" d="M35.8,6.65c0-0.167,0-0.333,0-0.5
				c0.033-0.3,0.084-0.433,0.15-0.4c0.066,0.067,0.116,0.333,0.149,0.8C35.967,7.25,35.866,7.283,35.8,6.65z"/>
			<path style="fill-rule:evenodd;clip-rule:evenodd;fill:#281C23;" d="M37.1,6.9l0.5-0.75c0.134,0.1,0.051,0.434-0.25,1
				C37.116,7.517,37,7.583,37,7.35L37.1,6.9z"/>
		</g>
		<path style="fill-rule:evenodd;clip-rule:evenodd;fill:#281C23;" d="M37.1,6.7c0.233,0.167,0.417,0.383,0.551,0.65
			c0.033,0.133-0.101,0.217-0.4,0.25c-0.233,0.033-0.517,0.017-0.85-0.05C36.1,7.483,35.85,7.367,35.65,7.2
			c-0.233-0.167-0.301-0.3-0.2-0.4c0.166-0.233,0.45-0.35,0.85-0.35C36.634,6.483,36.9,6.567,37.1,6.7z"/>
		<path style="fill-rule:evenodd;clip-rule:evenodd;fill:#564C52;" d="M36.3,6.8c0.134,0.067,0.217,0.167,0.25,0.3
			c0.066,0.1-0.1,0.117-0.5,0.05c-0.434-0.1-0.583-0.217-0.45-0.35C35.767,6.6,36,6.6,36.3,6.8z"/>
		
			<use xlink:href="#flash0.ai_x2F_Layer_3_x2F__x3C_Path_x3E__x5F_3_x5F_4"  width="2.014" height="1.113" x="-0.008" y="-1.15" transform="matrix(1 0 0 -1 34.6504 7.6499)" style="overflow:visible;opacity:0.5;enable-background:new    ;"/>
		
			<use xlink:href="#flash0.ai_x2F_Layer_3_x2F__x3C_Path_x3E__x5F_2_x5F_4"  width="2.198" height="1.179" x="0.01" y="-1.19" transform="matrix(1 0 0 -1 34.2002 10.5)" style="overflow:visible;opacity:0.5;enable-background:new    ;"/>
		
			<use xlink:href="#flash0.ai_x2F_Layer_3_x2F__x3C_Path_x3E__x5F_1_x5F_4"  width="1.081" height="0.93" x="-0.017" y="-0.9" transform="matrix(1 0 0 -1 34.5498 12.0498)" style="overflow:visible;opacity:0.5;enable-background:new    ;"/>
		
			<use xlink:href="#flash0.ai_x2F_Layer_3_x2F__x3C_Path_x3E__x5F_8"  width="2.53" height="1.27" x="-0.025" y="-1.262" transform="matrix(1 0 0 -1 34.2998 9.0498)" style="overflow:visible;opacity:0.5;enable-background:new    ;"/>
	</g>
	<g>
		
			<use xlink:href="#flash0.ai_x2F_Layer_3_x2F__x3C_Path_x3E__x5F_6_x5F_5"  width="7.729" height="6.229" x="0.025" y="-6.229" transform="matrix(1 0 0 -1 18.5498 33.0498)" style="overflow:visible;opacity:0.3516;enable-background:new    ;"/>
		<g>
			<path style="fill-rule:evenodd;clip-rule:evenodd;fill:#281C23;" d="M24.85,35.6c0.634,0.167,0.934,0.284,0.9,0.351
				c-0.066,0.2-0.434,0.233-1.1,0.1c-0.434-0.166-0.534-0.283-0.301-0.35C24.483,35.634,24.65,35.6,24.85,35.6z"/>
			<path style="fill-rule:evenodd;clip-rule:evenodd;fill:#281C23;" d="M23.5,33.55c-0.434,0.733-0.583,0.717-0.45-0.05
				c0.066-0.167,0.134-0.333,0.2-0.5c0.167-0.333,0.3-0.483,0.4-0.45C23.75,32.583,23.7,32.917,23.5,33.55z"/>
			<path style="fill-rule:evenodd;clip-rule:evenodd;fill:#281C23;" d="M22.45,33.75c-0.4,0.767-0.55,0.767-0.45,0
				c0.066-0.167,0.134-0.333,0.2-0.5c0.166-0.333,0.316-0.483,0.45-0.45L22.45,33.75z"/>
			<path style="fill-rule:evenodd;clip-rule:evenodd;fill:#281C23;" d="M21.65,34.6c-0.101,0.667-0.25,0.717-0.45,0.15
				c0-0.134,0-0.267,0-0.4c0.033-0.267,0.1-0.416,0.2-0.449c0.066-0.034,0.133,0.083,0.199,0.35
				C21.634,34.35,21.65,34.467,21.65,34.6z"/>
			<path style="fill-rule:evenodd;clip-rule:evenodd;fill:#281C23;" d="M24.5,36.45l0.85,0.3c-0.066,0.167-0.416,0.2-1.05,0.1
				c-0.399-0.166-0.483-0.283-0.25-0.35C24.15,36.467,24.3,36.45,24.5,36.45z"/>
			<path style="fill-rule:evenodd;clip-rule:evenodd;fill:#281C23;" d="M23.6,36.95l0.551,0.45c-0.101,0.133-0.384,0.1-0.851-0.101
				c-0.233-0.233-0.25-0.366-0.05-0.399C23.35,36.9,23.467,36.917,23.6,36.95z"/>
			<path style="fill-rule:evenodd;clip-rule:evenodd;fill:#657B9C;" d="M21.5,38.05c-0.733,0.101-1.25,0.066-1.55-0.1
				c-0.2-0.101-0.316-0.3-0.351-0.601c0-0.433,0.184-0.966,0.551-1.6c0.399-0.7,0.899-1.267,1.5-1.7
				c1.666-1.267,2.899-1.5,3.699-0.7c0.334,0.267,0.467,0.667,0.4,1.2c-0.1,0.5-0.316,0.983-0.65,1.45
				C24.233,37.233,23.033,37.917,21.5,38.05z"/>
			<path style="fill-rule:evenodd;clip-rule:evenodd;fill:#9AA8BE;" d="M21.55,38c-1.166,0.134-1.783-0.1-1.85-0.7
				c0-0.399,0.184-0.899,0.55-1.5c0.366-0.7,0.85-1.267,1.45-1.7c1.6-1.166,2.8-1.399,3.6-0.699c0.334,0.267,0.45,0.666,0.351,1.199
				c-0.067,0.467-0.284,0.917-0.65,1.351C24.167,37.116,23.017,37.8,21.55,38z"/>
			<path style="fill-rule:evenodd;clip-rule:evenodd;fill:#657B9C;" d="M19.6,37.65V37.35c0.101,0.534,0.65,0.667,1.65,0.4
				c1.033-0.267,2-0.85,2.9-1.75c0.699-0.7,0.949-1.7,0.75-3l0.6,0.5c0.233,0.267,0.316,0.65,0.25,1.15
				c-0.066,0.566-0.316,1.083-0.75,1.55c-0.9,1.033-1.917,1.649-3.05,1.85C20.517,38.316,19.733,38.184,19.6,37.65z"/>
			<path style="fill-rule:evenodd;clip-rule:evenodd;fill:#657B9C;" d="M24.1,32.9l0.551,0.05c0.366,0.1,0.616,0.267,0.75,0.5
				c0.3,0.566,0.3,1.1,0,1.6c-0.634-0.3-1.051-0.75-1.25-1.35L24.1,32.9z"/>
			<path style="fill-rule:evenodd;clip-rule:evenodd;fill:#281C23;" d="M24.8,33.1c0.134-0.133,0.25-0.25,0.351-0.35
				c0.233-0.233,0.35-0.316,0.35-0.25c0.033,0.1-0.1,0.333-0.4,0.7C24.533,33.634,24.434,33.6,24.8,33.1z"/>
			<path style="fill-rule:evenodd;clip-rule:evenodd;fill:#281C23;" d="M25.65,34.1L26.5,33.9c0.033,0.133-0.25,0.333-0.85,0.6
				c-0.4,0.1-0.517,0.066-0.351-0.1L25.65,34.1z"/>
		</g>
		<path style="fill-rule:evenodd;clip-rule:evenodd;fill:#281C23;" d="M25.75,33.95c0.066,0.3,0.05,0.583-0.05,0.85
			c-0.033,0.134-0.167,0.117-0.4-0.05c-0.233-0.134-0.434-0.333-0.6-0.6c-0.2-0.267-0.316-0.517-0.351-0.75
			c-0.066-0.267-0.033-0.417,0.101-0.45c0.267-0.066,0.55,0.033,0.85,0.3C25.533,33.45,25.684,33.684,25.75,33.95z"/>
		<path style="fill-rule:evenodd;clip-rule:evenodd;fill:#564C52;" d="M25.1,33.5c0.034,0.134,0.034,0.267,0,0.4
			c-0.066,0.133-0.216,0.033-0.449-0.301c-0.233-0.3-0.267-0.483-0.101-0.55C24.816,33.017,25,33.167,25.1,33.5z"/>
		
			<use xlink:href="#flash0.ai_x2F_Layer_3_x2F__x3C_Path_x3E__x5F_3_x5F_5"  width="1.374" height="1.804" x="0.009" y="-1.804" transform="matrix(1 0 0 -1 22.9004 33.2998)" style="overflow:visible;opacity:0.5;enable-background:new    ;"/>
		
			<use xlink:href="#flash0.ai_x2F_Layer_3_x2F__x3C_Path_x3E__x5F_2_x5F_5"  width="1.627" height="1.918" x="-0.01" y="-1.906" transform="matrix(1 0 0 -1 20.7002 35.0996)" style="overflow:visible;opacity:0.5;enable-background:new    ;"/>
		
			<use xlink:href="#flash0.ai_x2F_Layer_3_x2F__x3C_Path_x3E__x5F_1_x5F_5"  width="0.964" height="1.081" y="-1.09" transform="matrix(1 0 0 -1 19.9004 36.4004)" style="overflow:visible;opacity:0.5;enable-background:new    ;"/>
		
			<use xlink:href="#flash0.ai_x2F_Layer_3_x2F__x3C_Path_x3E__x5F_9"  width="1.844" height="2.188" x="-0.03" y="-2.188" transform="matrix(1 0 0 -1 21.6504 34.1504)" style="overflow:visible;opacity:0.5;enable-background:new    ;"/>
	</g>
</g>
</svg>
