<?xml version="1.0" encoding="iso-8859-1"?>
<!-- Generator: Adobe Illustrator 15.1.0, SVG Export Plug-In . SVG Version: 6.00 Build 0)  -->
<!DOCTYPE svg PUBLIC "-//W3C//DTD SVG 1.1//EN" "http://www.w3.org/Graphics/SVG/1.1/DTD/svg11.dtd">
<svg version="1.1" id="Layer_1" xmlns="http://www.w3.org/2000/svg" xmlns:xlink="http://www.w3.org/1999/xlink" x="0px" y="0px"
	 width="56.95px" height="70.25px" viewBox="0 0 56.95 70.25" style="enable-background:new 0 0 56.95 70.25;" xml:space="preserve"
	>
<g>
	
		<radialGradient id="SVGID_1_" cx="-24.7393" cy="20.2754" r="19.6978" gradientTransform="matrix(-0.0324 -0.9995 -2.1265 0.2818 63.3149 -8.3892)" gradientUnits="userSpaceOnUse">
		<stop  offset="0.3725" style="stop-color:#202326"/>
		<stop  offset="0.3843" style="stop-color:#212327"/>
		<stop  offset="0.7725" style="stop-color:#362945"/>
		<stop  offset="0.8392" style="stop-color:#495A55"/>
		<stop  offset="0.9098" style="stop-color:#5A8764"/>
		<stop  offset="0.9647" style="stop-color:#65A36D"/>
		<stop  offset="0.9961" style="stop-color:#69AD70"/>
	</radialGradient>
	<path style="fill-rule:evenodd;clip-rule:evenodd;fill:url(#SVGID_1_);" d="M44.25,4.3c4.1,2.3,4.85,4.65,2.25,7.05
		c-2.267,2.133-6.533,3.85-12.8,5.15c-6.233,1.3-12.284,1.75-18.15,1.35c-6.533-0.467-11.066-1.934-13.6-4.4
		c-2.5-2.434-2.583-4.8-0.25-7.1c2.133-2.133,5.783-3.8,10.95-5c5.233-1.2,10.633-1.6,16.2-1.2C34.983,0.583,40.116,1.967,44.25,4.3
		z"/>
	
		<radialGradient id="SVGID_2_" cx="-68.1377" cy="18.2183" r="9.7881" gradientTransform="matrix(0.0881 -0.9961 -1.5887 -0.2848 46.9465 8.4158)" gradientUnits="userSpaceOnUse">
		<stop  offset="0.3725" style="stop-color:#202326"/>
		<stop  offset="0.3843" style="stop-color:#212327"/>
		<stop  offset="0.6706" style="stop-color:#362945"/>
		<stop  offset="0.7647" style="stop-color:#495A55"/>
		<stop  offset="0.8706" style="stop-color:#5A8764"/>
		<stop  offset="0.949" style="stop-color:#65A36D"/>
		<stop  offset="0.9961" style="stop-color:#69AD70"/>
	</radialGradient>
	<path style="fill-rule:evenodd;clip-rule:evenodd;fill:url(#SVGID_2_);" d="M3.35,67.85c-1.133-1.199-1.333-2.3-0.6-3.3
		c0.633-0.934,1.917-1.633,3.85-2.1c4.533-1.066,8.816-0.55,12.85,1.55c1.733,0.9,2.367,1.95,1.9,3.15
		c-0.434,1.133-1.633,1.966-3.6,2.5c-2.333,0.633-5.067,0.767-8.2,0.399C6.417,69.65,4.35,68.917,3.35,67.85z"/>
	
		<radialGradient id="SVGID_3_" cx="-26.4014" cy="49.252" r="7.4375" gradientTransform="matrix(6.722689e-005 -1 -2.2924 6.722689e-005 162.159 -0.0047)" gradientUnits="userSpaceOnUse">
		<stop  offset="0.4627" style="stop-color:#0D110F"/>
		<stop  offset="0.4706" style="stop-color:#101314"/>
		<stop  offset="0.5137" style="stop-color:#211D29"/>
		<stop  offset="0.5608" style="stop-color:#2D2439"/>
		<stop  offset="0.6157" style="stop-color:#342842"/>
		<stop  offset="0.6941" style="stop-color:#362945"/>
		<stop  offset="0.7137" style="stop-color:#44364A"/>
		<stop  offset="0.7725" style="stop-color:#6B5958"/>
		<stop  offset="0.8314" style="stop-color:#897562"/>
		<stop  offset="0.8863" style="stop-color:#9F896A"/>
		<stop  offset="0.9451" style="stop-color:#AC956E"/>
		<stop  offset="0.9961" style="stop-color:#B09970"/>
	</radialGradient>
	<path style="fill-rule:evenodd;clip-rule:evenodd;fill:url(#SVGID_3_);" d="M41.25,21.8c-0.6-1.5,1.15-2.483,5.25-2.95
		s7.3,0.017,9.6,1.45c1.101,0.7,1.117,1.534,0.051,2.5c-1,0.9-2.551,1.6-4.65,2.1C46,26.167,42.583,25.133,41.25,21.8z"/>
</g>
</svg>
