<?xml version="1.0" encoding="iso-8859-1"?>
<!-- Generator: Adobe Illustrator 15.1.0, SVG Export Plug-In . SVG Version: 6.00 Build 0)  -->
<!DOCTYPE svg PUBLIC "-//W3C//DTD SVG 1.1//EN" "http://www.w3.org/Graphics/SVG/1.1/DTD/svg11.dtd">
<svg version="1.1" id="Layer_1" xmlns="http://www.w3.org/2000/svg" xmlns:xlink="http://www.w3.org/1999/xlink" x="0px" y="0px"
	 width="215.9px" height="217.05px" viewBox="0 0 215.9 217.05" style="enable-background:new 0 0 215.9 217.05;"
	 xml:space="preserve">
<g>
	<path style="fill-rule:evenodd;clip-rule:evenodd;fill:#1F2433;" d="M168.95,205.15c0.066-1.334,1.2-2.467,3.399-3.4
		c2.267-0.967,4.084-1.05,5.45-0.25c1.134,0.667,1.134,1.5,0,2.5c-0.633,0.566-1.8,1.517-3.5,2.85c-1.033,1.067-2.2,1.417-3.5,1.051
		C169.5,207.566,168.884,206.65,168.95,205.15z"/>
	<path style="fill-rule:evenodd;clip-rule:evenodd;fill:#1F2433;" d="M148,48.95c0.066-1.333,1.2-2.467,3.4-3.4
		c2.233-0.966,4.033-1.05,5.399-0.25c1.134,0.667,1.15,1.5,0.05,2.5c-1.666,1.2-2.833,2.15-3.5,2.85
		c-1.033,1.067-2.199,1.417-3.5,1.05C148.55,51.367,147.934,50.45,148,48.95z"/>
	<path style="fill-rule:evenodd;clip-rule:evenodd;fill:#1F2433;" d="M139.95,119.55c0.366-2,1.3-3.866,2.8-5.6
		c1.566-1.767,3.1-2.65,4.6-2.65c1.334,0.033,2.467,0.5,3.4,1.4c0.1,0.1,1.083,1.35,2.95,3.75c2.1,2.6,1.35,4.833-2.25,6.7
		c-1.267,0.666-4.283,1.966-9.05,3.899c-2.167,0.9-3.301,0.467-3.4-1.3C139,125.417,139.316,123.35,139.95,119.55z"/>
	<path style="fill-rule:evenodd;clip-rule:evenodd;fill:#1F2433;" d="M185.25,60.1c0.533-1.4,2.066-2.167,4.6-2.3
		c2.467-0.1,4.334,0.45,5.601,1.65c1.133,1.066,1.583,2.033,1.35,2.9c-0.133,0.6-0.684,1.3-1.649,2.1c-0.9,0.867-1.634,1.533-2.2,2
		c-1.033,0.833-2.3,1.6-3.8,2.3c-1.4,0.633-2.084,0.6-2.051-0.1c0-1.633,0-2.467,0-2.5c-0.666-1.133-1.166-2.033-1.5-2.7
		C185,62.217,184.884,61.1,185.25,60.1z"/>
	<path style="fill-rule:evenodd;clip-rule:evenodd;fill:#1F2433;" d="M169,64.85c1.134-1.6,2.917-2.633,5.35-3.1
		c1.567-0.3,2.851-0.35,3.851-0.15c0.267,0.066,0.7,0.65,1.3,1.75c1.033,1.9,1.717,3.117,2.05,3.65c1.3,2.1,0.983,5.45-0.95,10.05
		c-1.233,3-3,6.034-5.3,9.1c-0.8,1.067-1.633,0.883-2.5-0.55c-1.1-2.233-2.033-3.95-2.8-5.15c-0.5-0.833-1.333-2.034-2.5-3.6
		c-0.733-1-1.384-2.117-1.95-3.35c-0.633-1.333-0.5-2.8,0.4-4.4C166.45,68.167,167.467,66.75,169,64.85z"/>
	<path style="fill-rule:evenodd;clip-rule:evenodd;fill:#1F2433;" d="M81.4,27c0.667-1.9,1.55-3.733,2.65-5.5
		c1.333-2.067,2.217-2.55,2.65-1.45c1.833,4.467,3.1,8.367,3.8,11.7c0.4,1.7-0.25,3.35-1.95,4.95c-0.633,0.6-2.066,1.617-4.3,3.05
		c-0.833,0.567-1.483,0.483-1.95-0.25c-0.767-1.167-1.5-1.9-2.2-2.2c-1.1-0.433-1.333-1.917-0.7-4.45
		C79.5,32.417,80.167,30.467,81.4,27z"/>
	<path style="fill-rule:evenodd;clip-rule:evenodd;fill:#1F2433;" d="M69.4,35c0.967-1.967,2.383-2.35,4.25-1.15
		c1.5,0.967,2.467,2,2.9,3.1c0.2,0.5,0.133,1.233-0.2,2.2c-0.333,0.967-0.75,1.717-1.25,2.25c-0.767,0.867-1.4,1.45-1.9,1.75
		c-0.9,0.567-1.684,0.617-2.35,0.15c-0.867-0.6-1.483-1.75-1.85-3.45C68.6,37.983,68.733,36.367,69.4,35z"/>
	<path style="fill-rule:evenodd;clip-rule:evenodd;fill:#1F2433;" d="M163.85,29.95c0.167,0.5,0.084,1.233-0.25,2.2
		c-0.3,0.967-0.699,1.717-1.199,2.25c-0.767,0.867-1.4,1.45-1.9,1.75c-0.9,0.567-1.684,0.617-2.35,0.15
		c-0.867-0.6-1.483-1.75-1.851-3.45c-0.399-1.833-0.267-3.45,0.4-4.85c0.967-1.967,2.383-2.35,4.25-1.15
		C162.45,27.817,163.417,28.85,163.85,29.95z"/>
	<path style="fill-rule:evenodd;clip-rule:evenodd;fill:#1F2433;" d="M100,180.3c1.067-0.934,2.533-1.633,4.4-2.1
		c1.967-0.5,3.35-0.4,4.15,0.3c1.233,1.1,2.483,4.767,3.75,11c0.367,1.866-0.55,4.533-2.75,8c-1.666,2.634-3.783,5.333-6.35,8.1
		c-1.767,1.9-3.267,2.717-4.5,2.45c-0.7-0.166-1.483-0.816-2.35-1.95c-0.434-0.566-0.95-1.633-1.55-3.199
		c-0.867-2.4-1.5-4.034-1.9-4.9c-0.7-1.533-0.85-2.8-0.45-3.8c0.767-1.334,1.4-2.65,1.9-3.95c1.133-2.833,1.9-4.667,2.3-5.5
		C97.583,182.917,98.7,181.434,100,180.3z"/>
	<path style="fill-rule:evenodd;clip-rule:evenodd;fill:#1F2433;" d="M101.95,63.8c0.5,1.4,0.816,3,0.95,4.8
		c0.067,1.066,0.1,3.066,0.1,6c0,3.3-0.817,6.483-2.45,9.55c-0.9,1.733-1.733,2.983-2.5,3.75c-1.867,1.8-4.85,2.483-8.95,2.05
		l-5.55-1.15c-0.533,0-1,0.05-1.4,0.15c-1.833,0.3-3.633-0.6-5.4-2.7c-1.667-2.467-2.817-4.017-3.45-4.65v-0.1l-0.4-0.3
		c-0.733-0.434-1.533-1.367-2.4-2.8c-1.1-1.767-1.75-2.767-1.95-3c-0.566-0.633-0.917-1.467-1.05-2.5
		c-0.067-0.533-0.1-1.65-0.1-3.35c0.033-1.066-0.316-2.283-1.05-3.65c-0.967-1.6-1.7-2.833-2.2-3.7c-0.267-0.534-0.5-1.167-0.7-1.9
		c-0.133-0.8-0.067-1.767,0.2-2.9c0.067-0.3,0.434-1.5,1.1-3.6c0.533-1.7,1.417-3.283,2.65-4.75l0.35-0.4c1.867-2,4.2-3.566,7-4.7
		c2.5-1,4.433-1.35,5.8-1.05l0.55,0.15c2.4,0.667,5.983,2.934,10.75,6.8l1.5,1.35c1.8,1.733,4.1,4.767,6.9,9.1
		c0.733,1.1,1.317,2.25,1.75,3.45L101.95,63.8z"/>
	<path style="fill-rule:evenodd;clip-rule:evenodd;fill:#1F2433;" d="M69.5,85.15c0.3-1.6,1.017-2.267,2.15-2
		c0.9,0.2,1.6,0.7,2.1,1.5c1.067,1.733,1.7,2.783,1.9,3.15c0.934,1.767,1.367,3.117,1.3,4.05c-0.034,0.9-0.667,0.983-1.9,0.25
		c-1.633-1.133-2.833-1.867-3.6-2.2c-1-0.4-1.65-1.133-1.95-2.2C69.3,86.9,69.3,86.05,69.5,85.15z"/>
	<path style="fill-rule:evenodd;clip-rule:evenodd;fill:#1F2433;" d="M103,143.65c0.6-0.367,2.3-0.4,5.1-0.101
		c3.067,0.3,5.233,0.9,6.5,1.8c1.334,0.967,2.351,2.617,3.051,4.95c0.666,2.167,0.899,4.25,0.699,6.25
		c-0.333,3.7-1.55,6.367-3.649,8c-0.733,0.533-1.601,0.15-2.601-1.149c-1.233-1.567-2.199-2.4-2.899-2.5
		c-0.967-0.167-1.75-0.534-2.35-1.101c-0.633-0.8-1.2-1.45-1.7-1.95c-1.367-1.166-2.45-2.183-3.25-3.05
		c-1.433-1.633-2.217-3.316-2.35-5.05c-0.133-1.467,0.017-2.6,0.45-3.4C100.5,145.384,101.5,144.483,103,143.65z"/>
	<path style="fill-rule:evenodd;clip-rule:evenodd;fill:#1F2433;" d="M93.75,147.15c0.367-0.967,1.15-0.884,2.35,0.25
		c0.4,0.333,0.7,0.8,0.9,1.399c0.1,0.233,0.383,1.351,0.85,3.351c0.4,1.6,0.4,2.583,0,2.949c-0.4,0.334-1.017,0.051-1.85-0.85
		c-0.967-1.033-1.667-2.116-2.1-3.25C93.367,149.634,93.317,148.35,93.75,147.15z"/>
	<path style="fill-rule:evenodd;clip-rule:evenodd;fill:#1F2433;" d="M137.55,0.9c0.4,0.333,0.7,0.8,0.9,1.4
		c0.066,0.2,0.366,1.317,0.899,3.35c0.4,1.6,0.384,2.583-0.05,2.95c-0.399,0.333-1.017,0.05-1.85-0.85
		c-0.967-1.033-1.667-2.117-2.101-3.25c-0.533-1.367-0.583-2.65-0.149-3.85C135.566-0.317,136.35-0.233,137.55,0.9z"/>
	<path style="fill-rule:evenodd;clip-rule:evenodd;fill:#1F2433;" d="M143.3,64.35c0.233-0.4,0.867-0.05,1.9,1.05
		c1,1.1,1.566,2.033,1.7,2.8c0.133,0.867,0.05,1.6-0.25,2.2c-0.4,0.7-0.95,0.883-1.65,0.55c-0.767-0.367-1.35-1.35-1.75-2.95
		S142.866,65.183,143.3,64.35z"/>
	<path style="fill-rule:evenodd;clip-rule:evenodd;fill:#1F2433;" d="M62.9,66.45c0.233-0.633,0.633-0.733,1.2-0.3
		c0.6,0.4,0.85,1.083,0.75,2.05c-0.133,1-0.567,1.167-1.3,0.5C62.817,68,62.6,67.25,62.9,66.45z"/>
	<path style="fill-rule:evenodd;clip-rule:evenodd;fill:#1F2433;" d="M188.35,98.85c1.301,1.533,2.233,2.883,2.801,4.05
		c0.899,1.733,1.316,3.783,1.25,6.15c-0.034,1.334-0.101,3.417-0.2,6.25c0.767,9.033-0.517,13.834-3.851,14.4
		c-1.767,0.267-3.866-0.117-6.3-1.15c-2.1-0.899-3.934-2.033-5.5-3.399c-2.5-2.167-5.05-5.167-7.649-9
		c-1-1.567-1.367-3.267-1.101-5.101c0.101-0.833,0.334-1.866,0.7-3.1c0.467-1.367,0.8-2.383,1-3.05c0.066-0.233,0.434-1.85,1.1-4.85
		c0.434-1.966,0.983-3.517,1.65-4.65c0.366-0.667,0.866-1.233,1.5-1.7c0.366-0.3,0.967-0.733,1.8-1.3
		c0.5-0.367,1.25-1.083,2.25-2.15c0.934-0.833,1.834-1.2,2.7-1.1c1.033,0.133,2,0.934,2.9,2.4c0.466,0.833,1.083,2,1.85,3.5
		C185.583,95.517,186.616,96.783,188.35,98.85z"/>
	<path style="fill-rule:evenodd;clip-rule:evenodd;fill:#1F2433;" d="M105.95,66.7c0.566-0.867,1.399-0.65,2.5,0.65
		c1.1,1.267,1,2.467-0.3,3.6c-1.333,1.133-2.234,1-2.7-0.4C104.983,69.15,105.15,67.867,105.95,66.7z"/>
	<path style="fill-rule:evenodd;clip-rule:evenodd;fill:#1F2433;" d="M182.8,163.9c1.066,0.6,1.467,2.3,1.2,5.1
		c-0.233,2.5-0.783,4.533-1.65,6.1c-0.733,1.334-1.866,2.684-3.399,4.051c-1.733,1.466-3.084,2.1-4.05,1.899
		c-1.101-0.267-2.267-1.6-3.5-4c-1.301-2.566-1.917-4.983-1.851-7.25c0.033-2,1.217-4.267,3.55-6.8
		c1.267-1.366,3.051-3.15,5.351-5.35c0.934-1.067,1.684-0.551,2.25,1.55C181.434,161.967,182.134,163.533,182.8,163.9z"/>
	<path style="fill-rule:evenodd;clip-rule:evenodd;fill:#1F2433;" d="M200.9,85.75c-1.267,0.267-2.384-0.033-3.351-0.9
		c-1.399-1.267-1.05-3.95,1.05-8.05c0.801-1.633,2.7-1.85,5.7-0.65c0.9,0.367,1.3,1.4,1.2,3.1c-0.1,1.633-0.616,3.117-1.55,4.45
		C203.15,84.833,202.134,85.517,200.9,85.75z"/>
	<path style="fill-rule:evenodd;clip-rule:evenodd;fill:#1F2433;" d="M36.2,163.6c-0.267,1.367-0.917,2.4-1.95,3.101
		c-1.067,0.767-2.217,0.934-3.45,0.5c-1.8-0.566-2.55-3.15-2.25-7.75c0.133-1.867,1.8-2.834,5-2.9c0.967-0.033,1.733,0.75,2.3,2.351
		C36.417,160.467,36.533,162.033,36.2,163.6z"/>
	<path style="fill-rule:evenodd;clip-rule:evenodd;fill:#1F2433;" d="M75.95,114.35c0.466-1.6,1.733-3.433,3.8-5.5
		c1.767-1.767,2.933-2.717,3.5-2.85c0.367-0.067,1.967,1.317,4.8,4.15c3.1,3.066,5.45,5.75,7.05,8.05
		c1.6,2.267,2.383,4.816,2.35,7.649c0,1.5-0.417,4.601-1.25,9.301c-0.633,3.5-2.067,6.566-4.3,9.199
		c-2.066,2.434-4.55,4.134-7.45,5.101c-2.133,0.7-3.4-0.334-3.8-3.101c-0.7-5-1.267-7.966-1.7-8.899
		c-0.667-1.5-1.517-3.584-2.55-6.25c-0.667-1.733-1.45-3.367-2.35-4.9c-1-1.666-1.167-3.5-0.5-5.5
		C74.65,118.3,75.45,116.15,75.95,114.35z"/>
	<path style="fill-rule:evenodd;clip-rule:evenodd;fill:#1F2433;" d="M147.4,17.3c0.233,1.1,0.566,3.117,1,6.05
		c0.366,1.4,0.283,3.483-0.25,6.25c-0.467,2.267-0.851,3.633-1.15,4.1c-0.2,0.267-1.8,0.283-4.8,0.05
		c-3.267-0.233-5.884-0.667-7.851-1.3c-1.966-0.633-3.517-1.95-4.649-3.95c-0.566-1-1.517-3.433-2.851-7.3
		c-1-2.867-1.3-5.9-0.899-9.1c0.399-3.033,1.35-5.767,2.85-8.2c1.101-1.8,2.334-1.85,3.7-0.15c2.467,3.067,4.033,4.8,4.7,5.2
		c0.967,0.6,2.35,1.55,4.149,2.85c1.134,0.8,2.301,1.45,3.5,1.95C146.184,14.317,147.033,15.5,147.4,17.3z"/>
	<path style="fill-rule:evenodd;clip-rule:evenodd;fill:#1F2433;" d="M148.9,146.7c-0.733-0.3-0.817-1.084-0.25-2.351
		c0.533-1.366,1.483-2.267,2.85-2.699c1.3-0.434,2.233-0.45,2.8-0.051c0.4,0.334,0.65,1.017,0.75,2.051
		c0.066,0.899-0.666,1.75-2.2,2.55C151.283,147,149.967,147.167,148.9,146.7z"/>
	<path style="fill-rule:evenodd;clip-rule:evenodd;fill:#1F2433;" d="M178.65,144.1c-0.667-2.333-0.7-4.399-0.101-6.199
		c0.601-1.9,1.684-2.367,3.25-1.4c1.2,0.767,2.15,2.134,2.851,4.1c0.6,1.733,1.133,2.65,1.6,2.75c0.667,0.134,1.434,0.784,2.3,1.95
		c0.533,0.7,1.533,2.117,3,4.25c1.434,1.867,2.184,3.467,2.25,4.8c0.066,1.534-0.666,3.25-2.2,5.15
		c-0.6,0.733-1.899,0.517-3.899-0.65c-2.267-1.5-3.767-2.433-4.5-2.8c-0.9-0.467-1.783-2.05-2.65-4.75
		C179.684,147.934,179.05,145.533,178.65,144.1z"/>
	<path style="fill-rule:evenodd;clip-rule:evenodd;fill:#1F2433;" d="M174.05,186.65c0.233-1.101,1.017-2.034,2.351-2.801
		c0.433-0.267,1.933-0.933,4.5-2c1.466-0.633,2.383-0.583,2.75,0.15c0.233,0.5,0.683,1.8,1.35,3.9c0.767,1.6,0.4,3.566-1.1,5.899
		c-1.301,2-2.917,3.601-4.851,4.8c-1.7,1.134-2.783,0.967-3.25-0.5c-0.833-2.933-1.25-4.416-1.25-4.449
		C173.983,189.384,173.816,187.717,174.05,186.65z"/>
	<path style="fill-rule:evenodd;clip-rule:evenodd;fill:#1F2433;" d="M135.35,176.25c-0.6,0.434-1.116-0.167-1.55-1.8
		c-0.399-1.634-0.166-2.617,0.7-2.95c1-0.4,1.684,0.066,2.05,1.4C136.917,174.267,136.517,175.384,135.35,176.25z"/>
	<path style="fill-rule:evenodd;clip-rule:evenodd;fill:#1F2433;" d="M129.25,195.3c-0.366-4.133,0.483-7.8,2.55-11
		c1.733-2.666,3.483-4.133,5.25-4.399c1.033-0.134,2.334,1.433,3.9,4.699c2,4.134,3.416,6.634,4.25,7.5c1.3,1.4,2.033,3.301,2.2,5.7
		c0.1,1.334,0.183,3.25,0.25,5.75c1,6.066,0.366,10.134-1.9,12.2c-1.934,1.733-4.333,1.75-7.2,0.05
		c-2.399-1.366-4.45-3.983-6.149-7.85C130.7,204.184,129.65,199.967,129.25,195.3z"/>
	<path style="fill-rule:evenodd;clip-rule:evenodd;fill:#1F2433;" d="M200.05,188.65c-1.5-1.434-2.983-1.917-4.45-1.45
		c-2.1,0.633-3.383-3.5-3.85-12.4c-0.1-1.733,0.616-4.566,2.15-8.5c1.699-4.399,3.583-7.6,5.649-9.6c1.867-1.834,3.334-1.834,4.4,0
		c0.6,1.1,1.434,3.1,2.5,6c0.7,1.233,1.783,3.566,3.25,7c1.399,3.267,2.3,5.233,2.7,5.899c0.5,0.867,0.199,2.801-0.9,5.801
		c-0.6,1.699-1.616,4.366-3.05,8c-1.134,3.6-2.267,5.733-3.4,6.399c-1.033,0.601-1.767-0.116-2.2-2.149
		C202.417,191.65,201.483,189.983,200.05,188.65z"/>
	<path style="fill-rule:evenodd;clip-rule:evenodd;fill:#1F2433;" d="M169.1,164.85c-0.3,1.167-1.149,2.467-2.55,3.9
		c-1.5,1.5-2.5,1.816-3,0.95c-1.066-1.667-1.85-3.017-2.35-4.05c-0.967-1.967-1.2-3.483-0.7-4.551c0.5-1.133,1.267-1.933,2.3-2.399
		c0.566-0.3,1.5-0.55,2.8-0.75c1-0.2,1.934,0.383,2.801,1.75C169.3,161.2,169.533,162.917,169.1,164.85z"/>
	<path style="fill-rule:evenodd;clip-rule:evenodd;fill:#1F2433;" d="M29.55,112.3c-0.3,1.2-1.15,2.517-2.55,3.95
		c-1.5,1.467-2.5,1.767-3,0.9c-1.067-1.634-1.85-2.983-2.35-4.051c-0.967-1.966-1.2-3.483-0.7-4.55c0.5-1.1,1.267-1.9,2.3-2.4
		c0.5-0.233,1.433-0.483,2.8-0.75c1.034-0.167,1.967,0.434,2.8,1.8C29.783,108.667,30.017,110.366,29.55,112.3z"/>
	<path style="fill-rule:evenodd;clip-rule:evenodd;fill:#1F2433;" d="M197.7,98.3c0.399-2.367,1.217-4.533,2.45-6.5
		c1.267-2,2.833-4.066,4.699-6.2c2.267-2.567,3.983-3.983,5.15-4.25c1-0.233,1.85,0.816,2.55,3.15
		c1.066,3.567,1.767,5.65,2.101,6.25c0.933,1.667,1.35,3.683,1.25,6.05c-0.101,1.833-0.551,4.15-1.351,6.95
		c-1.267,4.433-3.934,6.783-8,7.05c-3.866,0.233-6.5-1.184-7.899-4.25C197.517,104.017,197.2,101.267,197.7,98.3z"/>
	<path style="fill-rule:evenodd;clip-rule:evenodd;fill:#1F2433;" d="M54.75,96.3c0.033-2,1.217-4.267,3.55-6.8
		c2.733-2.567,4.517-4.35,5.35-5.35c0.934-1.066,1.684-0.55,2.25,1.55c0.733,2.767,1.434,4.333,2.1,4.7
		c1.067,0.6,1.483,2.3,1.25,5.1c-0.233,2.5-0.8,4.533-1.7,6.1c-0.733,1.333-1.867,2.683-3.4,4.05c-1.733,1.467-3.066,2.1-4,1.9
		c-1.1-0.267-2.267-1.6-3.5-4C55.35,101.017,54.717,98.6,54.75,96.3z"/>
	<path style="fill-rule:evenodd;clip-rule:evenodd;fill:#1F2433;" d="M47.8,140.8c0.8-1.633,2.7-1.85,5.7-0.649
		c0.9,0.366,1.3,1.399,1.2,3.1c-0.1,1.634-0.6,3.116-1.5,4.45c-0.8,1.133-1.817,1.816-3.05,2.05c-1.3,0.267-2.433-0.033-3.4-0.9
		C45.35,147.583,45.7,144.9,47.8,140.8z"/>
	<path style="fill-rule:evenodd;clip-rule:evenodd;fill:#1F2433;" d="M165.5,80.6c0.934,2.167,2.033,4.167,3.3,6
		c1.4,2.033,1.684,4.417,0.851,7.15c-0.5,1.633-1.534,4.583-3.101,8.85c-0.566,2.167-2.233,4.767-5,7.8
		c-2.366,2.566-3.916,3.966-4.649,4.199c-0.5,0.167-2.733-1.383-6.7-4.649c-4.233-3.534-7.483-6.7-9.75-9.5
		c-2.2-2.733-3.334-5.967-3.4-9.7c-0.033-1.867,0.467-5.967,1.5-12.3c0.767-4.7,2.617-8.934,5.55-12.7
		c2.801-3.533,6.134-6.133,10-7.8c2.9-1.233,4.65-0.067,5.25,3.5c0.167,1.066,0.417,2.9,0.75,5.5c0.367,2.4,0.95,4.35,1.75,5.85
		C162.783,74.567,164,77.167,165.5,80.6z"/>
	<path style="fill-rule:evenodd;clip-rule:evenodd;fill:#1F2433;" d="M38.25,76.2c-1.2-1.167-1.833-2.517-1.9-4.05
		c-0.033-1.533,0.233-2.467,0.8-2.8c0.467-0.267,1.233-0.217,2.3,0.15c0.933,0.333,1.583,1.45,1.95,3.35c0.333,1.9,0.1,3.3-0.7,4.2
		C40.2,77.617,39.383,77.333,38.25,76.2z"/>
	<path style="fill-rule:evenodd;clip-rule:evenodd;fill:#1F2433;" d="M125.65,33.55c-0.5,0.567-1.317,0.284-2.45-0.85
		c-1.2-1.167-1.816-2.517-1.851-4.05c-0.066-1.533,0.2-2.467,0.801-2.8c0.433-0.267,1.183-0.217,2.25,0.15
		c0.933,0.333,1.583,1.45,1.949,3.35C126.684,31.25,126.45,32.65,125.65,33.55z"/>
	<path style="fill-rule:evenodd;clip-rule:evenodd;fill:#1F2433;" d="M90.5,209.45c0.133,0.666-1.1,1.116-3.7,1.35
		c-3.066,0.101-5.05,0.2-5.95,0.3c-1.133,0.134-3.2-0.433-6.2-1.699c-3.566-1.601-6.133-2.75-7.7-3.45
		c-2.5-1.101-4.267-2.316-5.3-3.65c-1.133-1.399-0.667-2.149,1.4-2.25c1.633-0.066,3.55,0.316,5.75,1.15
		c2,0.767,3.217,1.083,3.65,0.95c0.667-0.2,1.833-0.15,3.5,0.149c1.033,0.167,3.05,0.566,6.05,1.2c2.7,0.467,4.65,1.083,5.85,1.85
		C89.25,206.25,90.133,207.616,90.5,209.45z"/>
	<path style="fill-rule:evenodd;clip-rule:evenodd;fill:#1F2433;" d="M126.2,97.65c2.267-2.133,3.983-2.633,5.149-1.5
		c0.834,0.833,2.617,3.017,5.351,6.55c2.633,2.5,3.366,6.467,2.2,11.899c-1,4.667-2.884,8.801-5.65,12.4
		c-2.4,3.2-4.517,3.583-6.35,1.15c-2.801-3.7-4.667-6.217-5.601-7.551c-2.633-3.966-4.116-7.033-4.45-9.199
		c-0.333-2.267,0.45-4.567,2.351-6.9C119.9,103.667,122.233,101.383,126.2,97.65z"/>
	<path style="fill-rule:evenodd;clip-rule:evenodd;fill:#1F2433;" d="M80.4,164.75c-0.6,0.434-1.117-0.167-1.55-1.8
		c-0.4-1.634-0.167-2.617,0.7-2.95c1-0.4,1.684,0.066,2.05,1.4C81.967,162.767,81.567,163.884,80.4,164.75z"/>
	<path style="fill-rule:evenodd;clip-rule:evenodd;fill:#1F2433;" d="M19.35,134.6c-0.467,0.834-1.333,0.4-2.6-1.3
		c-1.233-1.7-1.433-2.967-0.6-3.8c0.967-1,1.983-0.816,3.05,0.55C20.233,131.45,20.283,132.967,19.35,134.6z"/>
	<path style="fill-rule:evenodd;clip-rule:evenodd;fill:#1F2433;" d="M144.85,11.25c-0.6,0.433-1.116-0.167-1.55-1.8
		c-0.399-1.633-0.166-2.617,0.7-2.95c1-0.4,1.684,0.067,2.05,1.4C146.417,9.267,146.017,10.383,144.85,11.25z"/>
	<path style="fill-rule:evenodd;clip-rule:evenodd;fill:#1F2433;" d="M0.4,134.4c0.733-3.467,1.917-5.767,3.55-6.9
		c0.933-0.634,2.75,0.283,5.45,2.75c3.4,3.1,5.667,4.884,6.8,5.35c1.767,0.7,3.167,2.217,4.2,4.551
		c0.567,1.267,1.317,3.116,2.25,5.55c3.133,5.5,3.95,9.816,2.45,12.95c-1.233,2.666-3.55,3.866-6.95,3.6
		c-2.8-0.233-5.717-1.833-8.75-4.8c-2.967-2.9-5.483-6.55-7.55-10.95C0.017,142.6-0.467,138.566,0.4,134.4z"/>
	<path style="fill-rule:evenodd;clip-rule:evenodd;fill:#1F2433;" d="M20.3,88.8c-0.1-1.733,0.617-4.566,2.15-8.5
		c1.7-4.4,3.583-7.6,5.65-9.6c1.867-1.833,3.333-1.833,4.4,0c0.6,1.1,1.433,3.1,2.5,6c0.7,1.233,1.783,3.566,3.25,7
		c1.4,3.267,2.3,5.233,2.7,5.9c0.5,0.867,0.2,2.8-0.9,5.8c-0.6,1.7-1.617,4.367-3.05,8c-1.133,3.6-2.267,5.734-3.4,6.4
		c-1.033,0.601-1.783-0.116-2.25-2.15c-0.434-2-1.35-3.667-2.75-5c-1.5-1.433-2.983-1.917-4.45-1.45
		C22.05,101.833,20.767,97.7,20.3,88.8z"/>
	<path style="fill-rule:evenodd;clip-rule:evenodd;fill:#1F2433;" d="M70.85,122.3c-0.267,1.2-1.1,2.517-2.5,3.95
		c-1.5,1.467-2.5,1.767-3,0.9c-1.067-1.634-1.85-2.983-2.35-4.051c-0.967-1.966-1.2-3.483-0.7-4.55c0.5-1.1,1.267-1.899,2.3-2.399
		c0.5-0.233,1.433-0.483,2.8-0.75c1.033-0.167,1.967,0.433,2.8,1.8C71.1,118.667,71.317,120.366,70.85,122.3z"/>
	<path style="fill-rule:evenodd;clip-rule:evenodd;fill:#1F2433;" d="M171.35,192.2c0.567,4.066,0.7,6.233,0.4,6.5
		c-1.2,0.899-2.684,2.399-4.45,4.5c-1.6,1.399-3.517,1.55-5.75,0.45c-2.566-1.301-5.1-3.15-7.6-5.551
		c-2.233-2.133-4.217-4.483-5.95-7.05c-1.2-1.8-2.616-4.517-4.25-8.149c-1.7-3.801-2.75-6.034-3.15-6.7
		c-0.899-1.4-1.35-3.351-1.35-5.851c0.033-2.533,0.533-4.583,1.5-6.149c0.866-1.367,2.9-1.217,6.1,0.45
		c1.867,0.966,4.801,2.75,8.801,5.35c1.866,1.1,4.333,2.434,7.399,4c2.4,1.533,4.2,3.783,5.4,6.75
		C169.717,183.816,170.684,187.634,171.35,192.2z"/>
	<path style="fill-rule:evenodd;clip-rule:evenodd;fill:#1F2433;" d="M106,91.5c-0.433,1.5-1.333,2.3-2.7,2.4
		c-1.3,0.067-2.183-0.417-2.65-1.45c-0.7-1.567-0.533-3.217,0.5-4.95c0.434-0.667,0.967-1.367,1.6-2.1
		c0.767-0.833,1.333-1.3,1.7-1.4c0.333-0.067,0.633,0.283,0.9,1.05c0.333,1.2,0.566,1.9,0.7,2.1
		C106.55,88.117,106.533,89.567,106,91.5z"/>
	<path style="fill-rule:evenodd;clip-rule:evenodd;fill:#1F2433;" d="M58.45,141.55c1.1-4.434,2.05-7.083,2.85-7.95
		c0.633-0.666,1.817-0.85,3.55-0.55c1,0.167,2.667,0.517,5,1.05c1.6,0.301,2.9,1.534,3.9,3.7c0.733,1.634,1.267,3.667,1.6,6.101
		c0.566,3.833,0.233,7.683-1,11.55c-0.5,1.5-1.583,2.116-3.25,1.85c-3.833-0.533-5.983-0.8-6.45-0.8c-2.433,0.1-4.1-0.366-5-1.4
		c-0.4-0.466-1.117-2.083-2.15-4.85C57,149.017,57.317,146.116,58.45,141.55z"/>
	<path style="fill-rule:evenodd;clip-rule:evenodd;fill:#1F2433;" d="M49,192.1c-1.233-0.433-1.983-1.85-2.25-4.25
		c-0.3-2.399,0.133-4.149,1.3-5.25c0.967-0.899,1.767-0.666,2.4,0.7c0.4,0.8,0.983,2.2,1.75,4.2c0.733,1.3,0.733,2.517,0,3.65
		C51.467,192.283,50.4,192.6,49,192.1z"/>
	<path style="fill-rule:evenodd;clip-rule:evenodd;fill:#1F2433;" d="M41.3,163.3c-0.466-1.967-0.35-4.05,0.35-6.25
		c0.733-2.233,1.8-3.633,3.2-4.2c1.233-0.533,2.45-0.566,3.65-0.1c0.133,0.066,1.533,0.833,4.2,2.3c2.966,1.601,3.15,3.95,0.55,7.05
		c-1.1,1.334-3.35,3.717-6.75,7.15c-1.633,1.667-2.85,1.7-3.65,0.1C42.717,169.05,42.2,167.033,41.3,163.3z"/>
	<path style="fill-rule:evenodd;clip-rule:evenodd;fill:#1F2433;" d="M122.95,38.7c0.6-3.633,3.517-4.9,8.75-3.8
		c1.866,0.367,3.616,0.767,5.25,1.2c0.467,0.133,2.883,0.8,7.25,2c2.934,0.833,3.566,2,1.899,3.5c-0.3,0.3-2.633,1.75-7,4.35
		c-2.3,1.367-5.033,2.216-8.199,2.55c-3.233,0.333-5.551-0.033-6.95-1.1c-1.233-0.967-1.851-2.133-1.851-3.5
		C122.1,43.767,122.384,42.033,122.95,38.7z"/>
	<path style="fill-rule:evenodd;clip-rule:evenodd;fill:#1F2433;" d="M83.05,167.2c0.867-2.367,3.417-3.65,7.65-3.851
		c4.167-0.199,7.316,0.7,9.45,2.7c1.867,1.767,2.617,3.4,2.25,4.9c-0.233,1-1.15,2.184-2.75,3.55c-0.8,0.733-2.033,1.866-3.7,3.4
		c-1.7,1.366-3.817,2.616-6.35,3.75c-2.367,1.066-3.533,1.017-3.5-0.15c0.1-0.833,0.183-1.5,0.25-2c0.1-0.9,0.033-1.616-0.2-2.15
		c-1.133-1.866-1.983-3.383-2.55-4.55C82.6,170.733,82.417,168.866,83.05,167.2z"/>
	<path style="fill-rule:evenodd;clip-rule:evenodd;fill:#1F2433;" d="M52.6,165.9c2.433-6.767,6.95-9.034,13.55-6.801
		c5.467,1.834,9.783,5.184,12.95,10.051c2.1,3.199,3.45,6.933,4.05,11.199c0.467,3.334,0.45,6.017-0.05,8.051
		c-0.133,0.566-0.233,2.55-0.3,5.949c-0.033,2.634-0.433,4.233-1.2,4.801c-0.8,0.6-2.367,0.716-4.7,0.35
		c-3.1-0.634-5.617-1.083-7.55-1.35c-3.5-0.467-6.4-1.317-8.7-2.551c-3.033-1.633-4.883-3.866-5.55-6.699
		c-0.633-2.601-1.35-4.684-2.15-6.25c-1.133-1.9-2.167-3.733-3.1-5.5c-1.1-2.134-1.184-4.117-0.25-5.95
		C51.1,169.134,52.1,167.366,52.6,165.9z"/>
</g>
</svg>
