<?xml version="1.0" encoding="iso-8859-1"?>
<!-- Generator: Adobe Illustrator 15.1.0, SVG Export Plug-In . SVG Version: 6.00 Build 0)  -->
<!DOCTYPE svg PUBLIC "-//W3C//DTD SVG 1.1//EN" "http://www.w3.org/Graphics/SVG/1.1/DTD/svg11.dtd">
<svg version="1.1" xmlns="http://www.w3.org/2000/svg" xmlns:xlink="http://www.w3.org/1999/xlink" x="0px" y="0px"
	 width="341.15px" height="552.7px" viewBox="0 0 341.15 552.7" style="enable-background:new 0 0 341.15 552.7;"
	 xml:space="preserve">
<g id="Layer_1">
</g>
<g id="Layer_1_1_">
	<g>
		<g>
			
				<linearGradient id="SVGID_1_" gradientUnits="userSpaceOnUse" x1="26.8472" y1="160.667" x2="76.415" y2="160.667" gradientTransform="matrix(0.5178 -0.8555 0.8555 0.5178 -8.207560e-005 1.876950e-004)">
				<stop  offset="0.0118" style="stop-color:#182541"/>
				<stop  offset="0.6471" style="stop-color:#265768"/>
				<stop  offset="1" style="stop-color:#2E747F"/>
			</linearGradient>
			<path style="fill-rule:evenodd;clip-rule:evenodd;fill:url(#SVGID_1_);" d="M181.85,22.6c0.4,12.2-1.466,24.816-5.6,37.85
				c-3.934,12.333-8.783,21.716-14.55,28.15l-20.8-49.25c1.567-7.167,4-14.033,7.3-20.6c3.733-7.333,7.716-12.45,11.95-15.35
				c5.4-3.667,10.034-4.383,13.9-2.15C178.85,4.017,181.45,11.133,181.85,22.6z"/>
			
				<linearGradient id="SVGID_2_" gradientUnits="userSpaceOnUse" x1="28.8359" y1="160.8389" x2="82.3396" y2="160.8389" gradientTransform="matrix(0.5178 -0.8555 0.8555 0.5178 -3.904700e-004 4.317164e-004)">
				<stop  offset="0" style="stop-color:#0F1D3A"/>
				<stop  offset="0.0118" style="stop-color:#0F1D3A"/>
				<stop  offset="0.2039" style="stop-color:#0E223E"/>
				<stop  offset="0.4314" style="stop-color:#0D314A"/>
				<stop  offset="0.6824" style="stop-color:#0C495D"/>
				<stop  offset="0.949" style="stop-color:#0C6B79"/>
				<stop  offset="1" style="stop-color:#0C737F"/>
			</linearGradient>
			<path style="fill-rule:evenodd;clip-rule:evenodd;fill:url(#SVGID_2_);" d="M178.95,41.25c-0.634,6.033-1.684,11.667-3.15,16.9
				c-1.733,6.2-3.899,11.967-6.5,17.3c-2.533,5.167-5.167,9.283-7.9,12.35c-1.8-4.233-3.65-8.55-5.55-12.95
				c-3.767-8.833-5.883-13.667-6.35-14.5c-0.433-0.833-2.033-4.434-4.8-10.8l-4-9.35c0.466-2.967,1.55-6.4,3.25-10.3
				c0.833-1.9,2.483-5.283,4.95-10.15c3.533-6.867,7.483-11.617,11.85-14.25c4.867-2.933,9.033-3.267,12.5-1
				c4.267,2.8,6.417,9.333,6.45,19.6C179.7,30.567,179.45,36.283,178.95,41.25z"/>
			
				<linearGradient id="SVGID_3_" gradientUnits="userSpaceOnUse" x1="30.583" y1="161.0283" x2="87.418" y2="161.0283" gradientTransform="matrix(0.5178 -0.8555 0.8555 0.5178 8.696318e-005 -6.735325e-006)">
				<stop  offset="0" style="stop-color:#01102F"/>
				<stop  offset="0.1843" style="stop-color:#041533"/>
				<stop  offset="0.4118" style="stop-color:#0B2440"/>
				<stop  offset="0.6588" style="stop-color:#173C56"/>
				<stop  offset="0.9176" style="stop-color:#285E74"/>
				<stop  offset="1" style="stop-color:#2E6B7F"/>
			</linearGradient>
			<path style="fill-rule:evenodd;clip-rule:evenodd;fill:url(#SVGID_3_);" d="M177,42.05c-0.333,6.067-1.116,11.5-2.35,16.3
				c-1.567,5.967-3.617,11.6-6.15,16.9c-2.433,5-4.9,8.917-7.4,11.75c-6.434-15-10.35-23.833-11.75-26.5
				c-0.9-1.7-2.633-5.45-5.2-11.25l-3.6-8.25c0.3-2.833,1.45-6.167,3.45-10c1.133-2.167,2.917-5.417,5.35-9.75
				c1.633-3.3,3.517-6.15,5.65-8.55c2-2.267,4.1-3.967,6.3-5.1c4.367-2.233,8.067-2.184,11.101,0.15
				c3.733,2.833,5.433,8.767,5.1,17.8C177.366,29.417,177.2,34.917,177,42.05z"/>
			
				<linearGradient id="SVGID_4_" gradientUnits="userSpaceOnUse" x1="32.2002" y1="161.1943" x2="91.8179" y2="161.1943" gradientTransform="matrix(0.5179 -0.8555 0.8555 0.5179 3.563166e-004 9.369850e-005)">
				<stop  offset="0" style="stop-color:#01182F"/>
				<stop  offset="0.2039" style="stop-color:#011D34"/>
				<stop  offset="0.4549" style="stop-color:#022C43"/>
				<stop  offset="0.7255" style="stop-color:#05445B"/>
				<stop  offset="1" style="stop-color:#0A657B"/>
			</linearGradient>
			<path style="fill-rule:evenodd;clip-rule:evenodd;fill:url(#SVGID_4_);" d="M175.1,42.85c-0.033,6.033-0.583,11.267-1.649,15.7
				c-1.367,5.733-3.3,11.217-5.8,16.45c-2.233,4.8-4.517,8.533-6.85,11.2c-5.633-13.067-9.517-21.6-11.65-25.6
				c-1.333-2.533-3.2-6.417-5.6-11.65l-3.2-7.1c0.133-2.767,1.35-6.017,3.65-9.75c3.7-5.934,5.617-9.05,5.75-9.35
				c1.633-3.367,3.55-6.2,5.75-8.5c2.033-2.1,4.167-3.617,6.4-4.55c3.767-1.567,6.95-1.15,9.55,1.25c3.166,2.933,4.45,8.3,3.85,16.1
				C175.167,28.65,175.1,33.917,175.1,42.85z"/>
			
				<linearGradient id="SVGID_5_" gradientUnits="userSpaceOnUse" x1="33.5703" y1="161.1035" x2="95.4989" y2="161.1035" gradientTransform="matrix(0.5178 -0.8555 0.8555 0.5178 -5.358458e-005 -2.577305e-004)">
				<stop  offset="0" style="stop-color:#01182F"/>
				<stop  offset="0.2039" style="stop-color:#011D34"/>
				<stop  offset="0.4549" style="stop-color:#022C43"/>
				<stop  offset="0.7255" style="stop-color:#05445B"/>
				<stop  offset="1" style="stop-color:#0A657B"/>
			</linearGradient>
			<path style="fill-rule:evenodd;clip-rule:evenodd;fill:url(#SVGID_5_);" d="M173.1,43.6c0.367,5.933,0.084,10.983-0.85,15.15
				c-1.233,5.533-3.033,10.883-5.4,16.05c-2.133,4.633-4.25,8.15-6.35,10.55c-4.833-11.067-8.683-19.283-11.55-24.65
				c-1.8-3.367-3.8-7.383-6-12.05l-2.8-6c0-2.767,1.3-5.917,3.9-9.45c3.667-5,5.717-7.967,6.15-8.9c1.633-3.466,3.583-6.3,5.85-8.5
				c2.034-2,4.184-3.333,6.45-4c3.133-0.966,5.783-0.183,7.95,2.35c2.6,3,3.483,7.783,2.649,14.35
				C172.7,31.767,172.7,36.8,173.1,43.6z"/>
			
				<linearGradient id="SVGID_6_" gradientUnits="userSpaceOnUse" x1="44.0054" y1="162.0288" x2="107.0659" y2="162.0288" gradientTransform="matrix(0.5178 -0.8555 0.8555 0.5178 5.361438e-004 -2.273321e-004)">
				<stop  offset="0" style="stop-color:#01182F"/>
				<stop  offset="0.2039" style="stop-color:#011D34"/>
				<stop  offset="0.4549" style="stop-color:#022C43"/>
				<stop  offset="0.7255" style="stop-color:#05445B"/>
				<stop  offset="1" style="stop-color:#0A657B"/>
			</linearGradient>
			<path style="fill-rule:evenodd;clip-rule:evenodd;fill:url(#SVGID_6_);" d="M165.95,40.1c-0.667,3.667-0.067,7.617,1.8,11.85
				c1.833,4.133,2.35,8.15,1.55,12.05c-1.1,5.333-2.783,10.567-5.05,15.7c-2.033,4.466-3.983,7.783-5.85,9.95
				c-4.033-9.133-7.833-17.05-11.4-23.75c-2.233-4.2-4.367-8.35-6.4-12.45l-2.4-4.9c-0.133-2.733,1.233-5.783,4.1-9.15
				c3.8-4.467,5.983-7.316,6.55-8.55c1.667-3.533,3.65-6.35,5.95-8.45c2.1-1.933,4.267-3.083,6.5-3.45
				c2.167-0.367,3.75,1.583,4.75,5.85C167.05,29.2,167.017,34.3,165.95,40.1z"/>
		</g>
		<g>
			<linearGradient id="SVGID_7_" gradientUnits="userSpaceOnUse" x1="72.0479" y1="0.4189" x2="151.2111" y2="204.4985">
				<stop  offset="0.0118" style="stop-color:#182541"/>
				<stop  offset="0.6471" style="stop-color:#265768"/>
				<stop  offset="1" style="stop-color:#2E747F"/>
			</linearGradient>
			<path style="fill-rule:evenodd;clip-rule:evenodd;fill:url(#SVGID_7_);" d="M168.45,65.9c2.133,6.633,4.983,15.383,8.55,26.25
				c2.667,9.6,4.55,20.6,5.65,33c1.066,12.067-0.517,25.667-4.75,40.8c-2.2,7.867-4.934,16.083-8.2,24.65
				c-1,3.5-2.583,6.617-4.75,9.35c-1.633,2.066-3.067,3.383-4.3,3.95c-29.667,8.967-47.7,13.3-54.1,13
				c-6-0.267-10.983-2.083-14.95-5.45c-6-5.1-12.867-15.2-20.6-30.3c-7.167-13.967-10.517-28.566-10.05-43.8
				C61.317,123.983,64.667,109.533,71,94c4.367-10.7,8.783-19.817,13.25-27.35c4.767-8.033,8.167-14.417,10.2-19.15
				c5.233-12.2,10.85-21.533,16.85-28c7.267-7.833,14.767-11.083,22.5-9.75c7.3,1.3,14.434,8.717,21.4,22.25
				C159.5,40.367,163.917,51.667,168.45,65.9z"/>
			<linearGradient id="SVGID_8_" gradientUnits="userSpaceOnUse" x1="66.5664" y1="-11.3325" x2="148.7851" y2="200.6199">
				<stop  offset="0" style="stop-color:#13213D"/>
				<stop  offset="0.0118" style="stop-color:#13213D"/>
				<stop  offset="0.2196" style="stop-color:#142641"/>
				<stop  offset="0.4706" style="stop-color:#16354C"/>
				<stop  offset="0.7451" style="stop-color:#194D5F"/>
				<stop  offset="1" style="stop-color:#1E6A76"/>
			</linearGradient>
			<path style="fill-rule:evenodd;clip-rule:evenodd;fill:url(#SVGID_8_);" d="M165.2,64.85c2.066,5.467,3.417,9.117,4.05,10.95
				c4.366,12.9,6.866,20.583,7.5,23.05c2,7.533,3.533,17.15,4.6,28.85c1.134,11.633-0.466,25.05-4.8,40.25
				c-1.399,4.9-3.116,10.1-5.149,15.6c-1.067,2.9-2.284,6.067-3.65,9.5c-1.1,3.034-2.7,5.717-4.8,8.05
				c-1.733,1.933-3.333,3.167-4.8,3.7c-3.8,1.367-12.117,3.667-24.95,6.9c-14.833,3.733-23.917,5.483-27.25,5.25
				c-5.333-0.367-9.934-2.25-13.8-5.65c-5.433-4.8-11.533-13.75-18.3-26.85c-6.367-12.3-9.583-25.35-9.65-39.15
				c-0.067-12,2.267-25.15,7-39.45c3.633-11,7.9-20.9,12.8-29.7c5.8-10.4,9.483-17.55,11.05-21.45
				c4.833-11.934,10.3-21.367,16.4-28.3c7.367-8.4,14.7-11.8,22-10.2c5.733,1.267,11.1,5.7,16.1,13.3
				c3.833,5.8,7.6,13.767,11.3,23.9C161.517,55.133,162.967,58.95,165.2,64.85z"/>
			<linearGradient id="SVGID_9_" gradientUnits="userSpaceOnUse" x1="58.8149" y1="-21.0718" x2="143.7303" y2="197.8569">
				<stop  offset="0.0118" style="stop-color:#061433"/>
				<stop  offset="0.1686" style="stop-color:#071B39"/>
				<stop  offset="0.4" style="stop-color:#0B2F4B"/>
				<stop  offset="0.6745" style="stop-color:#124F68"/>
				<stop  offset="0.9843" style="stop-color:#1B7C91"/>
				<stop  offset="1" style="stop-color:#1C7F93"/>
			</linearGradient>
			<path style="fill-rule:evenodd;clip-rule:evenodd;fill:url(#SVGID_9_);" d="M173,102.05c4.533,10.067,7.017,19.934,7.45,29.6
				c0.7,15.467-0.65,29.434-4.05,41.9c-1.334,4.867-3.934,11.633-7.8,20.3c-1.133,2.467-3.2,4.983-6.2,7.55
				c-2.633,2.233-4.883,3.667-6.75,4.3c-4.833,1.633-13.45,3.917-25.85,6.85c-13.667,3.2-21.8,4.684-24.4,4.45
				c-5.467-0.533-10.083-2.167-13.85-4.9c-5.8-4.167-11.5-11.617-17.1-22.35c-5.4-10.333-8.117-22.167-8.15-35.5
				c-0.033-10.433,1.667-22.617,5.1-36.55c2.767-11.233,6.867-21.934,12.3-32.1c2.9-5.167,5.017-9.033,6.35-11.6
				c2.333-4.367,4.2-8.4,5.6-12.1c4.4-11.6,9.717-21.117,15.95-28.55c7.5-8.934,14.65-12.5,21.45-10.7
				c5.4,1.434,10.15,6.567,14.25,15.4c1.434,3.1,3.05,7.217,4.85,12.35c1,2.867,2.45,7.067,4.35,12.6l5.15,14.3
				C163.75,83.133,167.533,91.383,173,102.05z"/>
			<linearGradient id="SVGID_10_" gradientUnits="userSpaceOnUse" x1="54.6079" y1="-30.6582" x2="141.8738" y2="194.3203">
				<stop  offset="0" style="stop-color:#0A1836"/>
				<stop  offset="0.0118" style="stop-color:#0A1836"/>
				<stop  offset="0.1922" style="stop-color:#0C1D3A"/>
				<stop  offset="0.4078" style="stop-color:#122C45"/>
				<stop  offset="0.6431" style="stop-color:#1B4458"/>
				<stop  offset="0.8902" style="stop-color:#286672"/>
				<stop  offset="1" style="stop-color:#2E777F"/>
			</linearGradient>
			<path style="fill-rule:evenodd;clip-rule:evenodd;fill:url(#SVGID_10_);" d="M169.1,106.35c4.466,9.566,7.284,18.6,8.45,27.1
				c2,14.233,0.834,28.216-3.5,41.95c-2.133,6.767-5.517,14.283-10.15,22.55c-1.133,2.033-2.717,3.833-4.75,5.4
				c-1.9,1.5-3.9,2.583-6,3.25c-5.566,1.8-14.5,4.05-26.8,6.75c-12.5,2.7-19.684,3.933-21.55,3.7c-4.1-0.5-7.983-2.533-11.65-6.1
				c-4.233-4.133-8.783-10.784-13.65-19.95c-8.967-16.933-11.6-37.417-7.9-61.45c1.8-11.433,5.717-22.933,11.75-34.5
				c3.233-5.933,5.6-10.316,7.1-13.15c2.633-4.9,4.583-9.167,5.85-12.8c3.9-11.2,9.067-20.817,15.5-28.85
				c7.534-9.433,14.5-13.15,20.9-11.15c5.2,1.6,9.483,6.883,12.85,15.85c1.934,5.133,4.467,13.233,7.6,24.3l5.1,13.8
				c1.233,3.267,2.95,7.184,5.15,11.75C164.667,97.333,166.567,101.183,169.1,106.35z"/>
			<linearGradient id="SVGID_11_" gradientUnits="userSpaceOnUse" x1="49.7495" y1="-39.6646" x2="138.9911" y2="190.4137">
				<stop  offset="0.0118" style="stop-color:#061433"/>
				<stop  offset="0.1882" style="stop-color:#081B39"/>
				<stop  offset="0.4471" style="stop-color:#0E2F49"/>
				<stop  offset="0.7529" style="stop-color:#184F65"/>
				<stop  offset="1" style="stop-color:#216E7F"/>
			</linearGradient>
			<path style="fill-rule:evenodd;clip-rule:evenodd;fill:url(#SVGID_11_);" d="M164.05,112.75
				c3.267,9.667,5.383,18.617,6.351,26.85c1.3,11,0.899,23.15-1.2,36.45c-1.934,12.133-4.333,20.233-7.2,24.3
				c-1.067,1.5-2.633,2.883-4.7,4.15c-1.966,1.233-4.183,2.233-6.65,3c-6.233,1.967-15.467,4.15-27.7,6.55
				c-11.3,2.233-17.534,3.25-18.7,3.05c-3.533-0.567-7.067-2.684-10.6-6.35c-3.6-3.733-7.367-9.233-11.3-16.5
				c-4.1-7.567-7.033-15.983-8.8-25.25c-1.667-8.733-2.25-17.933-1.75-27.6c0.633-11.6,4.317-23.917,11.05-36.95
				c3.667-6.667,6.316-11.55,7.95-14.65c2.934-5.4,4.967-9.9,6.1-13.5c3.5-10.8,8.517-20.483,15.05-29.05
				c7.633-9.967,14.433-13.867,20.4-11.7c5.033,1.833,8.867,7.284,11.5,16.35c0.6,2.067,1.566,6.067,2.9,12
				c1.133,5.133,2.15,9,3.05,11.6c0.7,2.067,2.383,6.483,5.05,13.25C159.65,100.783,162.717,108.783,164.05,112.75z"/>
			
				<linearGradient id="SVGID_12_" gradientUnits="userSpaceOnUse" x1="-185.5239" y1="143.5825" x2="-16.7594" y2="143.5825" gradientTransform="matrix(0.1569 -0.9876 0.9876 0.1569 -1.906455e-004 -7.718801e-006)">
				<stop  offset="0" style="stop-color:#01182F"/>
				<stop  offset="0.2039" style="stop-color:#011D34"/>
				<stop  offset="0.4549" style="stop-color:#022C43"/>
				<stop  offset="0.7255" style="stop-color:#05445B"/>
				<stop  offset="1" style="stop-color:#0A657B"/>
			</linearGradient>
			<path style="fill-rule:evenodd;clip-rule:evenodd;fill:url(#SVGID_12_);" d="M167.35,143.25c1.433,11.133,1.4,22.967-0.1,35.5
				c-1.533,12.633-3.933,20.65-7.2,24.05c-3.2,3.367-13.55,6.767-31.05,10.2l-25.3,4.15c-7.034-2.667-13.767-10.267-20.2-22.8
				c-6.733-13.067-10.567-26.767-11.5-41.1c-0.767-11.733,2.6-24.85,10.1-39.35c4.133-7.433,7.117-12.833,8.95-16.2
				c3.267-5.934,5.417-10.667,6.45-14.2c3.033-10.333,7.9-20.1,14.6-29.3c7.7-10.467,14.316-14.534,19.85-12.2
				c4.9,2.067,8.283,7.683,10.15,16.85c0.2,1,0.833,4.95,1.9,11.85c0.767,4.767,1.583,8.45,2.45,11.05
				c1.5,4.4,5.183,13.533,11.05,27.4C162.9,122.883,166.183,134.25,167.35,143.25z"/>
			
				<linearGradient id="SVGID_13_" gradientUnits="userSpaceOnUse" x1="-164.8687" y1="139.8818" x2="25.7306" y2="139.8818" gradientTransform="matrix(0.1557 -0.9878 0.9878 0.1557 -2.017915e-004 3.611147e-004)">
				<stop  offset="0" style="stop-color:#01182F"/>
				<stop  offset="0.2039" style="stop-color:#011D34"/>
				<stop  offset="0.4549" style="stop-color:#022C43"/>
				<stop  offset="0.7255" style="stop-color:#05445B"/>
				<stop  offset="1" style="stop-color:#0A657B"/>
			</linearGradient>
			<path style="fill-rule:evenodd;clip-rule:evenodd;fill:url(#SVGID_13_);" d="M102.95,94.6c4.233-10.434,7.45-17.833,9.65-22.2
				c3.8-7.566,7.383-10.717,10.75-9.45c3.3,1.233,6.633,7.3,10,18.2c1.8,5.8,3.833,13.15,6.1,22.05c0.267,0.733,3.55,7.1,9.85,19.1
				c5.333,10.167,8.317,17.917,8.95,23.25c0.667,5.7-1.75,11.7-7.25,18c-2.967,3.367-6.9,7.05-11.8,11.05
				c-2.167,2.1-9.067,4.3-20.7,6.6l-16.85,2.85c-3.267-0.966-5.833-1.733-7.7-2.3c-3.367-1.067-6.117-2.233-8.25-3.5
				c-6.167-3.7-9.184-9.4-9.05-17.1c0.233-12.233,4.1-25.717,11.6-40.45c2.1-4.2,4.983-9.367,8.65-15.5
				C100.233,99.667,102.25,96.133,102.95,94.6z"/>
		</g>
		<g>
			
				<linearGradient id="SVGID_14_" gradientUnits="userSpaceOnUse" x1="-347.522" y1="234.8301" x2="-26.3282" y2="234.8301" gradientTransform="matrix(0.0914 -0.9958 0.9958 0.0914 1.406074e-004 5.292892e-005)">
				<stop  offset="0.0118" style="stop-color:#182541"/>
				<stop  offset="0.6471" style="stop-color:#265768"/>
				<stop  offset="1" style="stop-color:#2E747F"/>
			</linearGradient>
			<path style="fill-rule:evenodd;clip-rule:evenodd;fill:url(#SVGID_14_);" d="M229.3,92.85c8.667,9.433,16.75,23,24.25,40.7
				c2.867,6.767,7.75,16,14.65,27.7c6.434,10.967,12.767,24.2,19,39.7c9.033,22.5,13.733,43.35,14.1,62.55
				c0.4,21.866-4.75,42.733-15.45,62.6c-11.566,21.434-21.783,35.7-30.649,42.801c-3.667,2.966-7.467,5-11.4,6.1
				c-2.7,0.767-6.217,1.2-10.55,1.3c-5.967,0.134-20.6-3.066-43.9-9.6c-20.399-5.733-32.116-9.3-35.149-10.7
				c-1.8-0.866-3.883-2.783-6.25-5.75c-3.167-4-5.434-8.533-6.8-13.6c-4.667-12.4-8.566-24.267-11.7-35.601
				c-5.934-21.833-8.034-41.4-6.3-58.7c1.767-17.8,4.7-33.55,8.8-47.25c1.433-4.833,3.433-10.85,6-18.05
				c3.667-10.2,5.95-16.65,6.85-19.35c6.9-20.333,13.55-36.417,19.95-48.25c10.4-19.233,20.967-29.65,31.7-31.25
				C207.816,76.5,218.767,81.383,229.3,92.85z"/>
			
				<linearGradient id="SVGID_15_" gradientUnits="userSpaceOnUse" x1="-340.335" y1="233.7529" x2="-6.7151" y2="233.7529" gradientTransform="matrix(0.0913 -0.9958 0.9958 0.0913 -2.048612e-004 1.557916e-005)">
				<stop  offset="0" style="stop-color:#13213D"/>
				<stop  offset="0.0118" style="stop-color:#13213D"/>
				<stop  offset="0.2196" style="stop-color:#142641"/>
				<stop  offset="0.4706" style="stop-color:#16354C"/>
				<stop  offset="0.7451" style="stop-color:#194D5F"/>
				<stop  offset="1" style="stop-color:#1E6A76"/>
			</linearGradient>
			<path style="fill-rule:evenodd;clip-rule:evenodd;fill:url(#SVGID_15_);" d="M268.4,174.95c7.1,12.8,13.216,27.133,18.35,43
				c6.7,20.733,9.917,39.7,9.65,56.9c-0.334,19.766-5.25,38.383-14.75,55.85c-10.101,18.6-19.167,31.25-27.2,37.95
				c-5.733,4.8-12.517,7.383-20.351,7.75c-4.899,0.233-18.149-2.551-39.75-8.351c-18.866-5.066-31.033-8.633-36.5-10.7
				c-2.167-0.8-4.517-2.616-7.05-5.449c-3.033-3.367-5.333-7.25-6.9-11.65c-1.9-5-3.617-9.583-5.15-13.75
				c-2.9-7.934-5.35-15.467-7.35-22.6c-6.1-21.934-8.25-41.217-6.45-57.851c1.767-16.767,4.167-30.533,7.2-41.3
				c0.934-3.333,4.717-14.267,11.35-32.8c0.9-2.5,2.933-7.717,6.1-15.65c3.767-9.4,5.933-14.833,6.5-16.3
				c5.633-14.467,11.283-25.8,16.95-34c7.467-10.767,15.417-16.95,23.851-18.55c10.699-2.034,21.383,3.066,32.05,15.3
				c8.8,10.1,16.666,23.8,23.6,41.1c2.167,5.467,4.75,11,7.75,16.6C262.066,163.717,264.767,168.55,268.4,174.95z"/>
			
				<linearGradient id="SVGID_16_" gradientUnits="userSpaceOnUse" x1="-333.6406" y1="233.6602" x2="10.9747" y2="233.6602" gradientTransform="matrix(0.0913 -0.9958 0.9958 0.0913 -5.406141e-005 4.679635e-004)">
				<stop  offset="0.0118" style="stop-color:#182541"/>
				<stop  offset="0.6471" style="stop-color:#265768"/>
				<stop  offset="1" style="stop-color:#2E747F"/>
			</linearGradient>
			<path style="fill-rule:evenodd;clip-rule:evenodd;fill:url(#SVGID_16_);" d="M176.25,118.4c6.167-12.6,13.2-19.833,21.1-21.7
				c10.034-2.367,20.45,2.966,31.25,16c9.067,10.867,16.717,24.683,22.95,41.45c2,5.333,4.684,11.2,8.05,17.6
				c1.934,3.667,4.983,9.267,9.15,16.8c7.767,14.733,13.6,30.2,17.5,46.4c4.833,20.1,7.15,37.65,6.95,52.649
				c-0.233,19.101-4.384,36-12.45,50.7c-8.333,15.233-16.783,25.767-25.35,31.601c-5.601,3.8-12.417,6-20.45,6.6
				c-3.834,0.267-15.717-2.116-35.65-7.15c-18.233-4.6-30.833-8.133-37.8-10.6c-2.767-1-6.05-3.134-9.85-6.4
				c-4.367-3.733-7.35-7.399-8.95-11c-5.5-12.3-9.217-22.083-11.15-29.35c-4.8-17.967-6.566-38.05-5.3-60.25
				c0.8-13.867,4.6-27.967,11.4-42.3c8.167-15.133,13.817-26.85,16.95-35.15l7.8-20.4c2.867-7.9,5.05-13.883,6.55-17.95
				C171.616,128.683,174.05,122.833,176.25,118.4z"/>
			
				<linearGradient id="SVGID_17_" gradientUnits="userSpaceOnUse" x1="-327.354" y1="232.9131" x2="26.7518" y2="232.9131" gradientTransform="matrix(0.0914 -0.9958 0.9958 0.0914 2.823472e-004 1.525804e-004)">
				<stop  offset="0" style="stop-color:#0A1836"/>
				<stop  offset="0.0118" style="stop-color:#0A1836"/>
				<stop  offset="0.1922" style="stop-color:#0C1D3A"/>
				<stop  offset="0.4078" style="stop-color:#122C45"/>
				<stop  offset="0.6431" style="stop-color:#1B4458"/>
				<stop  offset="0.8902" style="stop-color:#286672"/>
				<stop  offset="1" style="stop-color:#2E777F"/>
			</linearGradient>
			<path style="fill-rule:evenodd;clip-rule:evenodd;fill:url(#SVGID_17_);" d="M197.8,105.95c9.4-2.667,19.566,2.9,30.5,16.7
				c9.233,11.667,16.65,25.6,22.25,41.8c1.8,5.267,4.584,11.466,8.351,18.6c2.166,4.067,5.583,10.417,10.25,19.05
				c8.666,16.8,14.216,33.433,16.649,49.9s2.8,31.583,1.101,45.35c-1.9,15.534-6.45,29.733-13.65,42.601
				c-7.233,13.033-13.983,22.45-20.25,28.25c-5.434,4.967-11.167,7.767-17.2,8.399c-2.733,0.267-13.233-1.75-31.5-6.05
				c-18.033-4.233-31.083-7.717-39.15-10.45c-3.066-1-5.983-2.6-8.75-4.8c-2.967-2.333-5.267-4.983-6.9-7.95
				c-6.633-11.933-11.483-22.816-14.55-32.649c-6.1-19.834-7.6-39.95-4.5-60.35c1.867-12.167,6.15-25.05,12.85-38.65
				c3.767-7.333,6.583-12.8,8.45-16.4c3.333-6.466,5.917-12.033,7.75-16.7c4.933-12.567,7.5-19.117,7.7-19.65
				c1.233-3.267,3.1-9,5.6-17.2c2.367-7.7,4.334-13.5,5.9-17.4C183.767,115.583,190.134,108.117,197.8,105.95z"/>
			
				<linearGradient id="SVGID_18_" gradientUnits="userSpaceOnUse" x1="-321.5356" y1="237.2539" x2="40.6029" y2="237.2539" gradientTransform="matrix(0.0913 -0.9958 0.9958 0.0913 3.749132e-004 1.494884e-004)">
				<stop  offset="0" style="stop-color:#01182F"/>
				<stop  offset="0.2039" style="stop-color:#011D34"/>
				<stop  offset="0.4549" style="stop-color:#022C43"/>
				<stop  offset="0.7255" style="stop-color:#05445B"/>
				<stop  offset="1" style="stop-color:#0A657B"/>
			</linearGradient>
			<path style="fill-rule:evenodd;clip-rule:evenodd;fill:url(#SVGID_18_);" d="M198.2,115.25c8.767-2.933,18.666,2.867,29.7,17.4
				c9.466,12.467,16.683,26.517,21.649,42.15c1.634,5.2,4.533,11.717,8.7,19.55c2.4,4.5,6.233,11.6,11.5,21.3
				c9.634,18.9,14.816,36.684,15.55,53.35c0.634,13.9-0.35,27.1-2.95,39.6c-2.699,13.233-7.133,25.217-13.3,35.95
				c-5.866,10.334-11.467,18.117-16.8,23.351c-5.233,5.133-10.45,8.066-15.65,8.8c-1.699,0.233-10.816-1.417-27.35-4.95
				c-17.866-3.833-31.366-7.25-40.5-10.25c-3.6-1.167-6.833-2.667-9.7-4.5c-3-1.9-5.267-3.934-6.8-6.1
				c-4.133-5.9-7.533-17.601-10.2-35.101c-2.867-19.1-3.267-36.55-1.2-52.35c1.533-11.767,4.767-24.55,9.7-38.35
				c1.967-5.467,6.583-16.867,13.85-34.2c3.8-9.1,6.333-15.383,7.6-18.85c1.366-3.733,2.934-9.25,4.7-16.55
				c2-8.433,3.467-14.15,4.399-17.15C185.1,125.417,190.8,117.717,198.2,115.25z"/>
			
				<linearGradient id="SVGID_19_" gradientUnits="userSpaceOnUse" x1="-238.0684" y1="280.8057" x2="192.941" y2="280.8057" gradientTransform="matrix(0.261 -0.9654 0.9654 0.261 3.973842e-004 -3.067255e-004)">
				<stop  offset="0" style="stop-color:#01182F"/>
				<stop  offset="0.2039" style="stop-color:#011D34"/>
				<stop  offset="0.4549" style="stop-color:#022C43"/>
				<stop  offset="0.7255" style="stop-color:#05445B"/>
				<stop  offset="1" style="stop-color:#0A657B"/>
			</linearGradient>
			<path style="fill-rule:evenodd;clip-rule:evenodd;fill:url(#SVGID_19_);" d="M198.65,124.5c8.166-3.167,17.8,2.883,28.899,18.15
				c9.7,13.367,16.7,27.517,21,42.45c1.467,5.133,4.533,11.983,9.2,20.55c2.667,4.9,6.967,12.767,12.9,23.6
				c10.767,21.033,15.5,39.95,14.199,56.75c-1.6,20.533-7.416,40.083-17.449,58.65c-9.634,17.8-19.617,28.517-29.95,32.149
				c-11.867-1.767-24.217-4.017-37.05-6.75c-25.601-5.5-40.717-10.684-45.351-15.55c-4.7-5-8.083-16.583-10.15-34.75
				c-2-18-1.883-35,0.35-51c1.833-12.867,6.817-29.083,14.95-48.65c8.833-19.7,14.366-32.7,16.6-39c1.334-3.7,2.584-8.967,3.75-15.8
				c1.7-9.933,2.7-15.583,3-16.95C186.417,135.25,191.45,127.3,198.65,124.5z"/>
		</g>
		<g>
			<linearGradient id="SVGID_20_" gradientUnits="userSpaceOnUse" x1="259.0498" y1="234.9028" x2="222.2128" y2="537.5264">
				<stop  offset="0.0118" style="stop-color:#182541"/>
				<stop  offset="0.2431" style="stop-color:#1A2946"/>
				<stop  offset="0.5216" style="stop-color:#1F3754"/>
				<stop  offset="0.8235" style="stop-color:#274D6D"/>
				<stop  offset="1" style="stop-color:#2D5D7E"/>
			</linearGradient>
			<path style="fill-rule:evenodd;clip-rule:evenodd;fill:url(#SVGID_20_);" d="M341.1,326c-0.333,13.566-2.466,30.816-6.399,51.75
				c-0.5,2.634-1.667,9.366-3.5,20.2c-1.3,7.533-2.5,13.767-3.601,18.7c-3.133,13.933-8.166,29.133-15.1,45.6
				c-6.733,16-17.733,32.167-33,48.5c-7.967,8.5-16.816,17.083-26.55,25.75c-3.533,3.8-7.55,6.7-12.05,8.7c-3.367,1.5-6,2.2-7.9,2.1
				c-42.333-8.366-67.333-14.866-75-19.5c-3.5-2.133-6.2-4.167-8.1-6.1c-2.7-2.834-4.867-6.417-6.5-10.75
				c-3.967-10.434-5.65-27.783-5.05-52.05c0.566-22.5,6.2-43.25,16.9-62.25c9.4-16.7,23.15-32.767,41.25-48.2
				c12.5-10.7,24.017-19.316,34.55-25.851c11.267-7.033,19.684-12.833,25.25-17.399c14.566-11.967,27.684-20.066,39.351-24.3
				c14.1-5.101,25.449-4.2,34.05,2.699C337.8,290.1,341.6,304.233,341.1,326z"/>
			<linearGradient id="SVGID_21_" gradientUnits="userSpaceOnUse" x1="260.0674" y1="216.4424" x2="221.806" y2="530.741">
				<stop  offset="0" style="stop-color:#13213D"/>
				<stop  offset="0.0118" style="stop-color:#13213D"/>
				<stop  offset="0.2353" style="stop-color:#152542"/>
				<stop  offset="0.502" style="stop-color:#1B3350"/>
				<stop  offset="0.7961" style="stop-color:#254969"/>
				<stop  offset="1" style="stop-color:#2D5D7E"/>
			</linearGradient>
			<path style="fill-rule:evenodd;clip-rule:evenodd;fill:url(#SVGID_21_);" d="M333.75,356.85c-0.267,1.733-1.05,7.534-2.35,17.4
				c-1.134,8.5-1.917,14.033-2.351,16.6c-3.3,19.434-5.35,30.817-6.149,34.15c-2.601,10.934-7.134,24.15-13.601,39.65
				c-6.434,15.466-17.366,31.366-32.8,47.699c-5,5.334-10.583,10.801-16.75,16.4c-3.233,2.9-6.833,6.083-10.8,9.55
				c-3.367,3.134-7.101,5.483-11.2,7.05c-3.434,1.267-6.233,1.75-8.4,1.45c-5.533-0.767-17.267-3.383-35.199-7.85
				c-20.634-5.134-32.917-8.967-36.851-11.5c-6.3-4-10.683-9.467-13.15-16.4c-3.467-9.666-4.967-25.05-4.5-46.149
				c0.4-19.801,5.15-38.45,14.25-55.95c7.934-15.233,19.583-30.351,34.95-45.351c11.767-11.533,23.617-21.233,35.551-29.1
				c6.033-3.9,10.55-6.866,13.55-8.9c5.166-3.5,9.934-7.133,14.3-10.899c13.9-11.9,26.9-20.2,39-24.9
				c14.6-5.733,25.833-5.166,33.7,1.7c6.2,5.4,9.833,14.583,10.899,27.55C336.65,328.917,335.95,341.517,333.75,356.85z"/>
			<linearGradient id="SVGID_22_" gradientUnits="userSpaceOnUse" x1="256.7314" y1="199.0483" x2="217.2049" y2="523.6732">
				<stop  offset="0.0118" style="stop-color:#061433"/>
				<stop  offset="0.1804" style="stop-color:#09183A"/>
				<stop  offset="0.4235" style="stop-color:#11234D"/>
				<stop  offset="0.7176" style="stop-color:#1E346D"/>
				<stop  offset="1" style="stop-color:#2D4992"/>
			</linearGradient>
			<path style="fill-rule:evenodd;clip-rule:evenodd;fill:url(#SVGID_22_);" d="M327.4,328.4c-0.301,4.899-1.067,11.183-2.301,18.85
				c-0.699,4.267-1.733,10.55-3.1,18.85c-0.733,4.767-1.816,11.967-3.25,21.601c-1.333,8.767-2.217,21.7-2.65,38.8
				c-1.133,15.8-4.666,29.967-10.6,42.5c-9.467,20.066-20.434,36.866-32.9,50.4c-5,5.399-12.716,12.232-23.149,20.5
				c-3.033,2.399-7.233,4.216-12.601,5.449c-4.733,1.067-8.466,1.367-11.199,0.9c-6.9-1.1-18.983-3.934-36.25-8.5
				c-18.9-5-29.851-8.533-32.851-10.6c-6.333-4.301-10.917-9.434-13.75-15.4c-4.333-9.2-6.333-22.45-6-39.75
				c0.267-16.7,4.833-33.483,13.7-50.35c6.933-13.233,17.15-27.534,30.65-42.9c10.899-12.366,23.066-23.184,36.5-32.45
				c7-4.666,12.183-8.149,15.55-10.45c5.8-4,10.783-7.883,14.95-11.649c13.133-11.767,26-20.283,38.6-25.55
				c15.134-6.301,26.283-6.051,33.45,0.75C325.833,304.767,328.233,314.434,327.4,328.4z"/>
			<linearGradient id="SVGID_23_" gradientUnits="userSpaceOnUse" x1="258.1143" y1="184.269" x2="217.5159" y2="517.8442">
				<stop  offset="0" style="stop-color:#0A1836"/>
				<stop  offset="0.0118" style="stop-color:#0A1836"/>
				<stop  offset="0.2196" style="stop-color:#0D1D3B"/>
				<stop  offset="0.4745" style="stop-color:#142B4A"/>
				<stop  offset="0.749" style="stop-color:#1F4262"/>
				<stop  offset="1" style="stop-color:#2D5D7E"/>
			</linearGradient>
			<path style="fill-rule:evenodd;clip-rule:evenodd;fill:url(#SVGID_23_);" d="M173.5,393.9c9.833-13.301,22.3-25.267,37.4-35.9
				c7.966-5.366,13.8-9.333,17.5-11.9c6.466-4.5,11.699-8.616,15.699-12.35c12.301-11.6,25.051-20.333,38.25-26.2
				c15.567-6.899,26.601-6.967,33.101-0.2c5.3,5.534,7.033,15.084,5.2,28.65c-0.567,4.167-1.7,10.167-3.4,18
				c-1.833,8.5-3.017,14.434-3.55,17.8c-0.634,4.134-1.601,11.084-2.9,20.851c-0.666,4.933-1.166,11.033-1.5,18.3
				c-0.2,4.066-0.467,10.2-0.8,18.399c-0.934,15.101-3.517,28.434-7.75,40c-7.066,19.334-17.833,36.267-32.3,50.801
				c-7.033,7.066-16.184,14.333-27.45,21.8c-2.733,1.8-5.884,3.033-9.45,3.7c-3.333,0.6-6.517,0.633-9.55,0.1
				c-7.967-1.4-20.4-4.5-37.3-9.3c-17.133-4.867-26.767-8.067-28.9-9.601c-4.7-3.399-8.1-8.566-10.2-15.5
				c-2.467-8.033-3.6-19.483-3.4-34.35c0.133-14.7,3.1-29.316,8.9-43.85C156.233,420.25,163.7,407.167,173.5,393.9z"/>
			<linearGradient id="SVGID_24_" gradientUnits="userSpaceOnUse" x1="258.0889" y1="169.6538" x2="216.565" y2="510.804">
				<stop  offset="0.0118" style="stop-color:#061433"/>
				<stop  offset="0.2078" style="stop-color:#0A183A"/>
				<stop  offset="0.498" style="stop-color:#14234D"/>
				<stop  offset="0.8471" style="stop-color:#24356D"/>
				<stop  offset="1" style="stop-color:#2D3F7D"/>
			</linearGradient>
			<path style="fill-rule:evenodd;clip-rule:evenodd;fill:url(#SVGID_24_);" d="M204,369.6c8.967-6.033,15.5-10.466,19.6-13.3
				c7.167-4.899,12.65-9.25,16.45-13.05c11.533-11.366,24.167-20.283,37.9-26.75c16-7.566,26.916-7.983,32.75-1.25
				c4.967,5.7,6.033,15.15,3.2,28.35c-0.667,3.101-2.167,8.817-4.5,17.15c-2,7.267-3.317,12.833-3.95,16.7
				c-0.5,3.166-1.384,9.899-2.65,20.2c-2.233,18.833-3.816,31-4.75,36.5c-2.467,14.5-5.866,27.25-10.2,38.25
				c-5.767,14.833-14.366,29.949-25.8,45.35c-10.467,14.1-18.816,22.767-25.05,26c-2.3,1.2-5.134,1.917-8.5,2.15
				c-3.2,0.232-6.583,0.017-10.15-0.65c-9-1.7-21.767-5.083-38.3-10.15c-15.333-4.699-23.667-7.55-25-8.55
				c-3.933-3.1-6.85-8.133-8.75-15.1c-1.9-7.134-2.833-16.617-2.8-28.45c0-12.333,2-24.95,6-37.85
				c3.8-12.2,9.25-24.233,16.35-36.101C174.35,394.783,187.066,381.634,204,369.6z"/>
			<linearGradient id="SVGID_25_" gradientUnits="userSpaceOnUse" x1="333.3223" y1="72.958" x2="214.9013" y2="464.4842">
				<stop  offset="0" style="stop-color:#01102F"/>
				<stop  offset="0.2" style="stop-color:#041534"/>
				<stop  offset="0.4431" style="stop-color:#0C2343"/>
				<stop  offset="0.7098" style="stop-color:#1A3B5B"/>
				<stop  offset="0.9882" style="stop-color:#2C5B7D"/>
				<stop  offset="1" style="stop-color:#2D5D7E"/>
			</linearGradient>
			<path style="fill-rule:evenodd;clip-rule:evenodd;fill:url(#SVGID_25_);" d="M218.65,366.5c7.933-5.333,13.716-9.9,17.35-13.7
				c10.566-11.066,23.05-20.184,37.45-27.35c16.434-8.167,27.267-8.934,32.5-2.3c4.633,5.866,5.017,15.216,1.149,28.05
				c-0.433,1.434-2.283,6.866-5.55,16.3c-2.267,6.566-3.733,11.783-4.399,15.65c-1.101,6.566-2.667,20.583-4.7,42.05
				c-2.566,21-6.15,37.583-10.75,49.75c-5.667,15.1-13.617,30.083-23.851,44.95c-10.3,14.966-18.583,23.517-24.85,25.649
				c-6.134,2.134-21.083-0.45-44.85-7.75c-7.434-2.267-15.301-4.866-23.601-7.8l-10.2-3.75c-6.833-8.066-10.017-22.2-9.55-42.4
				c0.5-21,4.95-40.883,13.35-59.649c6.9-15.367,19.784-29.733,38.65-43.101C206.833,374.4,214.116,369.533,218.65,366.5z"/>
		</g>
		<g>
			
				<linearGradient id="SVGID_26_" gradientUnits="userSpaceOnUse" x1="-163.834" y1="347.6328" x2="-38.4951" y2="347.6328" gradientTransform="matrix(0.5474 -0.8368 0.8368 0.5474 2.537966e-004 2.600551e-004)">
				<stop  offset="0.0118" style="stop-color:#182541"/>
				<stop  offset="1" style="stop-color:#2E6D73"/>
			</linearGradient>
			<path style="fill-rule:evenodd;clip-rule:evenodd;fill:url(#SVGID_26_);" d="M273.95,254.6c4.366,21.367,3.467,42.483-2.7,63.35
				c-5.9,19.767-14.767,34.017-26.6,42.75L181.6,266.3c1.634-11.767,5.483-22.65,11.551-32.65c6.767-11.2,14.767-18.4,24-21.6
				c11.767-4.066,22.55-3.35,32.35,2.15C261.667,221.033,269.816,234.5,273.95,254.6z"/>
			
				<linearGradient id="SVGID_27_" gradientUnits="userSpaceOnUse" x1="-162.4492" y1="347.8945" x2="-27.1804" y2="347.8945" gradientTransform="matrix(0.5475 -0.8368 0.8368 0.5475 -9.101629e-005 3.948808e-004)">
				<stop  offset="0" style="stop-color:#0F1D3A"/>
				<stop  offset="0.0118" style="stop-color:#0F1D3A"/>
				<stop  offset="0.2039" style="stop-color:#0E223E"/>
				<stop  offset="0.4314" style="stop-color:#0D314A"/>
				<stop  offset="0.6824" style="stop-color:#0C495D"/>
				<stop  offset="0.949" style="stop-color:#0C6B79"/>
				<stop  offset="1" style="stop-color:#0C737F"/>
			</linearGradient>
			<path style="fill-rule:evenodd;clip-rule:evenodd;fill:url(#SVGID_27_);" d="M272.2,285.8c0.233,10.167-0.65,19.5-2.65,28
				c-2.333,10-5.85,19.066-10.55,27.2c-4.566,7.9-9.667,13.95-15.3,18.15c-5.434-8.134-11.017-16.417-16.75-24.851
				c-11.4-16.934-17.75-26.217-19.05-27.85c-1.301-1.634-6.101-8.601-14.4-20.9l-12.1-17.9c0.3-4.967,1.899-10.45,4.8-16.45
				c1.333-2.733,4.3-7.917,8.899-15.55c3-5.033,6.567-9.233,10.7-12.6c4.134-3.4,8.566-5.767,13.3-7.1
				c10.733-3.034,20.517-1.85,29.351,3.55c10.899,6.7,17.8,18.95,20.7,36.75C270.983,267.45,272,277.3,272.2,285.8z"/>
			
				<linearGradient id="SVGID_28_" gradientUnits="userSpaceOnUse" x1="-161.1426" y1="348.1309" x2="-17.4421" y2="348.1309" gradientTransform="matrix(0.5475 -0.8368 0.8368 0.5475 -2.782941e-004 3.579259e-004)">
				<stop  offset="0" style="stop-color:#01102F"/>
				<stop  offset="0.1843" style="stop-color:#041533"/>
				<stop  offset="0.4118" style="stop-color:#0B2440"/>
				<stop  offset="0.6588" style="stop-color:#173C56"/>
				<stop  offset="0.9176" style="stop-color:#285E74"/>
				<stop  offset="1" style="stop-color:#2E6B7F"/>
			</linearGradient>
			<path style="fill-rule:evenodd;clip-rule:evenodd;fill:url(#SVGID_28_);" d="M267.9,286.3c0.899,10.4,0.55,19.517-1.051,27.351
				c-2.033,9.733-5.316,18.633-9.85,26.699c-4.3,7.667-9.05,13.434-14.25,17.301c-19.366-28.801-31.116-45.817-35.25-51.051
				c-2.566-3.3-7.733-10.55-15.5-21.75L181.15,269c-0.067-4.767,1.733-10.067,5.399-15.9c4.7-6.434,8.017-11.317,9.95-14.65
				c2.967-5.067,6.634-9.217,11-12.45c4.167-3.1,8.684-5.167,13.55-6.2c9.667-2,18.417-0.35,26.25,4.95
				c9.634,6.533,15.334,17.583,17.101,33.15C265.167,264.533,266.333,274,267.9,286.3z"/>
			
				<linearGradient id="SVGID_29_" gradientUnits="userSpaceOnUse" x1="-159.9224" y1="347.7324" x2="-9.1978" y2="347.7324" gradientTransform="matrix(0.5475 -0.8368 0.8368 0.5475 -2.217293e-004 1.844168e-004)">
				<stop  offset="0" style="stop-color:#01182F"/>
				<stop  offset="0.2039" style="stop-color:#011D34"/>
				<stop  offset="0.4549" style="stop-color:#022C43"/>
				<stop  offset="0.7255" style="stop-color:#05445B"/>
				<stop  offset="1" style="stop-color:#0A657B"/>
			</linearGradient>
			<path style="fill-rule:evenodd;clip-rule:evenodd;fill:url(#SVGID_29_);" d="M263.55,286.85c1.634,10.5,1.816,19.384,0.55,26.65
				c-1.699,9.4-4.733,18.116-9.1,26.15c-4.033,7.399-8.417,12.883-13.15,16.449c-17-25.033-28.6-41.5-34.8-49.399
				c-3.866-4.934-9.383-12.467-16.55-22.601l-9.55-13.75c-0.434-4.733,1.566-9.833,6-15.3c2.6-3,4.55-5.25,5.85-6.75
				c2.3-2.7,4.017-5.05,5.15-7.05c2.899-5.133,6.633-9.233,11.2-12.3c4.233-2.8,8.866-4.55,13.899-5.25
				c8.434-1.133,16.084,0.933,22.95,6.2c8.333,6.434,12.884,16.3,13.65,29.6C259.816,262.433,261.116,271.55,263.55,286.85z"/>
			
				<linearGradient id="SVGID_30_" gradientUnits="userSpaceOnUse" x1="-158.791" y1="347.1631" x2="-2.2696" y2="347.1631" gradientTransform="matrix(0.5475 -0.8368 0.8368 0.5475 3.905296e-004 -2.428293e-004)">
				<stop  offset="0" style="stop-color:#011727"/>
				<stop  offset="0.2314" style="stop-color:#051C2C"/>
				<stop  offset="0.5137" style="stop-color:#0F283B"/>
				<stop  offset="0.8235" style="stop-color:#203B53"/>
				<stop  offset="1" style="stop-color:#2C4A65"/>
			</linearGradient>
			<path style="fill-rule:evenodd;clip-rule:evenodd;fill:url(#SVGID_30_);" d="M259.1,287.35c2.5,10.5,3.25,19.15,2.25,25.95
				c-1.399,9.134-4.183,17.684-8.35,25.65c-3.767,7.133-7.8,12.333-12.1,15.6c-14.567-21.3-25.983-37.217-34.25-47.75
				c-5.167-6.566-11.034-14.383-17.601-23.45l-8.3-11.6c-0.767-4.8,1.434-9.733,6.6-14.8c2.967-2.7,5.167-4.75,6.601-6.15
				c2.533-2.466,4.35-4.7,5.45-6.7c2.899-5.3,6.716-9.383,11.449-12.25c4.301-2.633,9.017-4.05,14.15-4.25
				c7.167-0.333,13.684,2.133,19.55,7.4c7,6.333,10.45,15.05,10.351,26.15C254.833,266.683,256.233,275.417,259.1,287.35z"/>
			
				<linearGradient id="SVGID_31_" gradientUnits="userSpaceOnUse" x1="-142.647" y1="348.6172" x2="16.8006" y2="348.6172" gradientTransform="matrix(0.5475 -0.8368 0.8368 0.5475 3.189445e-004 -2.419353e-004)">
				<stop  offset="0" style="stop-color:#011727"/>
				<stop  offset="0.2314" style="stop-color:#051C2C"/>
				<stop  offset="0.5137" style="stop-color:#0F283B"/>
				<stop  offset="0.8235" style="stop-color:#203B53"/>
				<stop  offset="1" style="stop-color:#2C4A65"/>
			</linearGradient>
			<path style="fill-rule:evenodd;clip-rule:evenodd;fill:url(#SVGID_31_);" d="M224.15,239.5c5.066,0.333,9.383,4.417,12.949,12.25
				c3.667,8.033,5.034,16.85,4.101,26.45c-0.4,4.133,0.217,8.1,1.85,11.899c0.934,2.2,2.816,5.351,5.65,9.45
				c2.733,3.967,4.583,7.15,5.55,9.55c1.566,3.834,2.083,7.867,1.55,12.101c-1.066,8.8-3.6,17.149-7.6,25.05
				c-3.5,6.934-7.184,11.884-11.05,14.85c-12.134-17.6-23.367-32.966-33.7-46.1c-6.467-8.233-12.684-16.35-18.65-24.35l-7-9.5
				c-1.1-4.8,1.283-9.534,7.15-14.2c3.333-2.467,5.8-4.333,7.399-5.6c2.733-2.233,4.634-4.367,5.7-6.4
				c2.9-5.5,6.767-9.583,11.601-12.25C214.083,240.267,218.917,239.2,224.15,239.5z"/>
		</g>
		<g>
			
				<linearGradient id="SVGID_32_" gradientUnits="userSpaceOnUse" x1="-193.2231" y1="218.1592" x2="-121.3686" y2="218.1592" gradientTransform="matrix(0.2101 -0.9777 0.9777 0.2101 -3.582835e-004 -2.022535e-004)">
				<stop  offset="0.0118" style="stop-color:#182541"/>
				<stop  offset="1" style="stop-color:#2E6D73"/>
			</linearGradient>
			<path style="fill-rule:evenodd;clip-rule:evenodd;fill:url(#SVGID_32_);" d="M196.65,168.8c6.333,16.5,9.733,34.65,10.199,54.45
				c0.467,18.767-1.716,33.933-6.55,45.5l-51.8-57.65c-1.267-10.467-1.183-21.017,0.25-31.65c1.633-11.833,4.667-20.733,9.1-26.7
				c5.667-7.567,11.683-10.733,18.05-9.5C183.8,144.75,190.717,153.267,196.65,168.8z"/>
			
				<linearGradient id="SVGID_33_" gradientUnits="userSpaceOnUse" x1="-190.3247" y1="218.4121" x2="-112.7919" y2="218.4121" gradientTransform="matrix(0.2102 -0.9777 0.9777 0.2102 4.065633e-004 -3.091395e-004)">
				<stop  offset="0" style="stop-color:#0F1D3A"/>
				<stop  offset="0.0118" style="stop-color:#0F1D3A"/>
				<stop  offset="0.2039" style="stop-color:#0E223E"/>
				<stop  offset="0.4314" style="stop-color:#0D314A"/>
				<stop  offset="0.6824" style="stop-color:#0C495D"/>
				<stop  offset="0.949" style="stop-color:#0C6B79"/>
				<stop  offset="1" style="stop-color:#0C737F"/>
			</linearGradient>
			<path style="fill-rule:evenodd;clip-rule:evenodd;fill:url(#SVGID_33_);" d="M201.45,195.75c2,8.5,3.25,16.7,3.75,24.6
				c0.566,9.3,0.316,18.2-0.75,26.7c-1,8.267-2.65,15.167-4.95,20.7c-4.467-4.934-9.033-9.983-13.7-15.15
				c-9.366-10.267-14.55-15.867-15.55-16.8c-1-0.933-4.9-5.133-11.7-12.6l-9.9-10.9c-0.767-4.267-0.9-9.466-0.4-15.6
				c0.2-2.733,0.85-8.15,1.95-16.25c0.733-5.3,1.9-10.1,3.5-14.4c1.633-4.367,3.617-7.933,5.95-10.7
				c5.3-6.333,10.867-8.767,16.7-7.3c7.167,1.833,13.184,9.767,18.051,23.8C197.467,180.717,199.816,188.683,201.45,195.75z"/>
			
				<linearGradient id="SVGID_34_" gradientUnits="userSpaceOnUse" x1="-187.8193" y1="218.6558" x2="-105.4325" y2="218.6558" gradientTransform="matrix(0.21 -0.9777 0.9777 0.21 1.409650e-004 -6.447732e-005)">
				<stop  offset="0" style="stop-color:#01102F"/>
				<stop  offset="0.1843" style="stop-color:#041533"/>
				<stop  offset="0.4118" style="stop-color:#0B2440"/>
				<stop  offset="0.6588" style="stop-color:#173C56"/>
				<stop  offset="0.9176" style="stop-color:#285E74"/>
				<stop  offset="1" style="stop-color:#2E6B7F"/>
			</linearGradient>
			<path style="fill-rule:evenodd;clip-rule:evenodd;fill:url(#SVGID_34_);" d="M199.25,197.7c2.4,8.466,3.884,16.3,4.45,23.5
				c0.666,8.9,0.517,17.566-0.45,26c-0.934,7.966-2.45,14.5-4.55,19.6c-15.867-17.5-25.417-27.75-28.65-30.75
				c-2.033-1.867-6.183-6.183-12.45-12.95l-8.85-9.55c-0.933-4-0.917-9.117,0.05-15.35c1.367-7.1,2.267-12.4,2.7-15.9
				c0.667-5.267,1.9-10.05,3.7-14.35c1.7-4.067,3.783-7.4,6.25-10c4.867-5.1,9.934-6.784,15.2-5.05
				c6.466,2.167,11.616,9.5,15.449,22C193.733,180.233,196.116,187.833,199.25,197.7z"/>
			
				<linearGradient id="SVGID_35_" gradientUnits="userSpaceOnUse" x1="-185.4805" y1="218.9492" x2="-99.0776" y2="218.9492" gradientTransform="matrix(0.2101 -0.9777 0.9777 0.2101 -2.845228e-004 -4.629791e-004)">
				<stop  offset="0" style="stop-color:#01182F"/>
				<stop  offset="0.2039" style="stop-color:#011D34"/>
				<stop  offset="0.4549" style="stop-color:#022C43"/>
				<stop  offset="0.7255" style="stop-color:#05445B"/>
				<stop  offset="1" style="stop-color:#0A657B"/>
			</linearGradient>
			<path style="fill-rule:evenodd;clip-rule:evenodd;fill:url(#SVGID_35_);" d="M189.8,177.95c0.634,2.466,3.017,9.716,7.15,21.75
				c2.833,8.3,4.566,15.733,5.2,22.3c0.8,8.533,0.767,16.967-0.101,25.3c-0.833,7.667-2.217,13.85-4.149,18.55
				c-13.867-15.2-23.217-25.05-28.05-29.55c-3.033-2.8-7.434-7.233-13.2-13.3l-7.75-8.25c-1.1-3.867-0.95-8.883,0.45-15.05
				c2.267-9.967,3.417-15.133,3.45-15.5c0.633-5.367,1.917-10.15,3.85-14.35c1.767-3.867,3.967-6.967,6.6-9.3
				c4.367-3.933,8.917-4.867,13.65-2.8C182.6,160.25,186.9,166.983,189.8,177.95z"/>
			
				<linearGradient id="SVGID_36_" gradientUnits="userSpaceOnUse" x1="-183.46" y1="218.79" x2="-93.7326" y2="218.79" gradientTransform="matrix(0.2101 -0.9777 0.9777 0.2101 3.914535e-004 -2.297759e-005)">
				<stop  offset="0" style="stop-color:#011727"/>
				<stop  offset="0.2314" style="stop-color:#051C2C"/>
				<stop  offset="0.5137" style="stop-color:#0F283B"/>
				<stop  offset="0.8235" style="stop-color:#203B53"/>
				<stop  offset="1" style="stop-color:#2C4A65"/>
			</linearGradient>
			<path style="fill-rule:evenodd;clip-rule:evenodd;fill:url(#SVGID_36_);" d="M187.5,181c1,4.667,3.384,11.55,7.15,20.65
				c3.3,8,5.3,15.05,6,21.15c0.933,8.2,0.983,16.4,0.149,24.6c-0.733,7.367-1.967,13.184-3.7,17.45
				c-11.866-12.9-21.033-22.333-27.5-28.3c-4.033-3.733-8.667-8.283-13.9-13.65l-6.65-6.95c-1.3-3.733-1.017-8.65,0.85-14.75
				c2.633-8.534,4.033-13.583,4.2-15.15c0.6-5.466,1.917-10.25,3.95-14.35c1.867-3.7,4.184-6.55,6.95-8.55
				c3.867-2.8,7.884-3,12.05-0.6C182.05,165.417,185.533,171.567,187.5,181z"/>
			
				<linearGradient id="SVGID_37_" gradientUnits="userSpaceOnUse" x1="-168.3599" y1="220.126" x2="-76.9702" y2="220.126" gradientTransform="matrix(0.2101 -0.9777 0.9777 0.2101 -1.479089e-004 1.195073e-005)">
				<stop  offset="0" style="stop-color:#011727"/>
				<stop  offset="0.2314" style="stop-color:#051C2C"/>
				<stop  offset="0.5137" style="stop-color:#0F283B"/>
				<stop  offset="0.8235" style="stop-color:#203B53"/>
				<stop  offset="1" style="stop-color:#2C4A65"/>
			</linearGradient>
			<path style="fill-rule:evenodd;clip-rule:evenodd;fill:url(#SVGID_37_);" d="M176.1,179.3c3.467,5.5,5.834,12.483,7.101,20.95
				c0.533,3.633,1.6,6.767,3.2,9.4c0.899,1.533,2.5,3.533,4.8,6c2.233,2.4,3.833,4.434,4.8,6.1c1.566,2.7,2.6,5.933,3.1,9.7
				c1.034,7.833,1.184,15.783,0.45,23.85c-0.666,7.034-1.767,12.5-3.3,16.4c-9.866-10.6-18.816-19.65-26.85-27.15
				c-5.033-4.667-9.917-9.333-14.65-14l-5.6-5.6c-1.467-3.667-1.033-8.483,1.3-14.45c1.367-3.267,2.35-5.717,2.95-7.35
				c1.1-2.867,1.75-5.35,1.95-7.45c0.566-5.633,1.933-10.434,4.1-14.4c1.966-3.633,4.4-6.233,7.3-7.8
				C169.583,172,172.7,173.933,176.1,179.3z"/>
		</g>
		<g>
			
				<linearGradient id="SVGID_38_" gradientUnits="userSpaceOnUse" x1="-565.397" y1="72.3887" x2="-141.2192" y2="72.3887" gradientTransform="matrix(-0.1465 -0.9892 0.9892 -0.1465 1.511574e-004 -7.897764e-004)">
				<stop  offset="0.0118" style="stop-color:#182541"/>
				<stop  offset="0.2196" style="stop-color:#162A45"/>
				<stop  offset="0.4745" style="stop-color:#133952"/>
				<stop  offset="0.749" style="stop-color:#0F5166"/>
				<stop  offset="1" style="stop-color:#0B6E7F"/>
			</linearGradient>
			<path style="fill-rule:evenodd;clip-rule:evenodd;fill:url(#SVGID_38_);" d="M110.4,172.5c19.967,2.733,38.5,14.217,55.6,34.45
				c17.3,20.433,29.55,36.083,36.75,46.95c7.5,11.3,13.35,23.067,17.55,35.3c7.634,8.967,14.4,19.899,20.3,32.8
				c11.367,25,17.551,53.4,18.551,85.2c1.033,33.866-4.684,66.467-17.15,97.8c-4.5,11.233-9.384,21.066-14.65,29.5
				c-4.466,7.133-7.85,11.283-10.149,12.45c-1.967,0.967-7.584,1.767-16.851,2.399c-9.399,0.634-20.149,0.917-32.25,0.851
				c-30.467-0.134-54.017-2.134-70.65-6c-18.267-12.267-35.067-28.184-50.4-47.75c-17.267-22.033-29.117-44.533-35.55-67.5
				c-7.367-26.334-10.417-50.434-9.15-72.3c0.566-9.367,1.933-19.667,4.1-30.9c1.333-6.934,3.783-17.816,7.35-32.65
				c11.434-47.433,28-82.366,49.7-104.8c6.067-6.267,13.117-10.767,21.15-13.5C92.783,172.033,101.367,171.267,110.4,172.5z"/>
			
				<linearGradient id="SVGID_39_" gradientUnits="userSpaceOnUse" x1="-530.2949" y1="70.48" x2="-94.345" y2="70.48" gradientTransform="matrix(-0.1514 -0.9885 0.9885 -0.1514 1.635253e-004 -4.132539e-004)">
				<stop  offset="0" style="stop-color:#13213D"/>
				<stop  offset="0.0118" style="stop-color:#13213D"/>
				<stop  offset="0.2157" style="stop-color:#142542"/>
				<stop  offset="0.4588" style="stop-color:#183350"/>
				<stop  offset="0.7294" style="stop-color:#1E4969"/>
				<stop  offset="1" style="stop-color:#276689"/>
			</linearGradient>
			<path style="fill-rule:evenodd;clip-rule:evenodd;fill:url(#SVGID_39_);" d="M112.85,182.35c17.833,3.433,34.5,14.033,50,31.8
				c13.8,15.934,25.016,31.15,33.65,45.65c6.934,11.567,12.85,23.851,17.75,36.851c1.3,1.8,4.1,5.366,8.4,10.699
				c4.366,5.733,8.166,11.634,11.399,17.7c9.733,18.467,15.767,41.2,18.101,68.2c1.399,16.233,1.116,33-0.851,50.3
				c-1.967,17.533-5.434,33.634-10.399,48.3c-5.2,15.267-10.684,28.4-16.45,39.4c-4.934,9.4-8.584,14.684-10.95,15.85
				c-1.767,0.9-6.95,1.7-15.55,2.4c-9,0.767-19.05,1.2-30.15,1.3c-28.933,0.2-51.216-1.833-66.85-6.1
				c-14.867-11.733-29.233-26-43.1-42.8c-18.233-22.134-30.583-43.351-37.05-63.65c-3.667-11.5-6.55-22.833-8.65-34
				c-2-10.9-3.133-20.967-3.4-30.2c-0.333-11.7,0.417-24.1,2.25-37.2c1.367-9.633,3.767-22.133,7.2-37.5
				c2.7-11.899,5.6-22.483,8.7-31.75c5.5-16.767,11.684-31.15,18.55-43.15c7.2-12.6,15.4-23,24.6-31.2
				C81.817,182.783,96.083,179.15,112.85,182.35z"/>
			
				<linearGradient id="SVGID_40_" gradientUnits="userSpaceOnUse" x1="-621.8823" y1="66.3687" x2="-174.1345" y2="66.3687" gradientTransform="matrix(-0.1562 -0.9877 0.9877 -0.1562 2.639294e-004 1.641065e-004)">
				<stop  offset="0" style="stop-color:#0F1D3A"/>
				<stop  offset="0.0118" style="stop-color:#0F1D3A"/>
				<stop  offset="0.2275" style="stop-color:#0E223F"/>
				<stop  offset="0.4902" style="stop-color:#0D2F4D"/>
				<stop  offset="0.7765" style="stop-color:#0B4666"/>
				<stop  offset="1" style="stop-color:#0A5D7E"/>
			</linearGradient>
			<path style="fill-rule:evenodd;clip-rule:evenodd;fill:url(#SVGID_40_);" d="M76.55,198.25c10.833-8.133,23.617-10.567,38.35-7.3
				c15.633,3.5,30.317,12.883,44.05,28.15c11.899,13.233,21.833,26.167,29.8,38.8c6.533,10.333,12.25,21.333,17.15,33
				c1.767,2.699,4.649,7.066,8.649,13.1c3.566,5.667,6.65,11.3,9.25,16.9c7.134,15.399,12.5,34.433,16.101,57.1
				c7,44.566,6.083,80.5-2.75,107.8c-5.767,17.634-11.417,32.4-16.95,44.3c-4.8,10.367-8.283,16.084-10.45,17.15
				c-1.634,0.8-6.467,1.7-14.5,2.7c-8.866,1.066-18.417,1.8-28.65,2.2c-27.967,1.1-49.283-0.684-63.95-5.351
				c-11.8-8.733-24.467-21.816-38-39.25c-15.967-20.6-27.467-40.583-34.5-59.95c-3.933-10.8-7.233-22.133-9.9-34
				c-2.633-11.666-4.233-22.083-4.8-31.25c-0.8-12.366-0.483-25.3,0.95-38.8c1.133-10.767,3.2-23.416,6.2-37.95
				c2.467-11.899,5.333-22.767,8.6-32.6c6-18.3,12.566-33.4,19.7-45.3C58.3,215.333,66.85,205.517,76.55,198.25z"/>
			
				<linearGradient id="SVGID_41_" gradientUnits="userSpaceOnUse" x1="-529.7148" y1="66.3276" x2="-70.8993" y2="66.3276" gradientTransform="matrix(-0.1611 -0.9869 0.9869 -0.1611 -1.400411e-004 2.948791e-004)">
				<stop  offset="0" style="stop-color:#0A1836"/>
				<stop  offset="0.2118" style="stop-color:#0D1D3B"/>
				<stop  offset="0.4667" style="stop-color:#142B4A"/>
				<stop  offset="0.7451" style="stop-color:#1F4262"/>
				<stop  offset="1" style="stop-color:#2D5D7E"/>
			</linearGradient>
			<path style="fill-rule:evenodd;clip-rule:evenodd;fill:url(#SVGID_41_);" d="M155,224c10.067,10.667,18.717,21.333,25.95,32
				c6.267,9.233,11.783,18.967,16.55,29.2c9.434,14.866,16.017,26.066,19.75,33.6c6.9,13.967,12.667,29.983,17.3,48.05
				c12.334,48.101,13.884,86.917,4.65,116.45c-5.834,18.566-12.601,34.384-20.3,47.45c-5.7,9.7-9.983,15.25-12.851,16.65
				c-1.467,0.732-5.833,1.583-13.1,2.55c-8.3,1.1-17.084,1.85-26.35,2.25c-26.033,1.166-46.017-0.8-59.95-5.9
				c-9.9-6.7-21.267-18.167-34.1-34.399c-14.566-18.5-25.6-36.834-33.1-55c-4.133-9.934-7.833-21.25-11.1-33.95
				c-3.233-12.367-5.3-23.134-6.2-32.3c-1.3-13.034-1.433-26.534-0.4-40.5c0.867-11.7,2.617-24.467,5.25-38.301
				c2.4-12.333,5.233-23.483,8.5-33.449c6.5-19.967,13.4-35.817,20.7-47.55c7.6-12.167,16.55-21.383,26.85-27.65
				c9.7-5.9,20.934-7.15,33.7-3.75C130.183,203.05,142.933,211.233,155,224z"/>
			
				<linearGradient id="SVGID_42_" gradientUnits="userSpaceOnUse" x1="-489.3447" y1="63.1211" x2="-122.9688" y2="63.1211" gradientTransform="matrix(-0.1659 -0.9861 0.9861 -0.1659 1.735091e-004 -8.900613e-004)">
				<stop  offset="0.0118" style="stop-color:#061433"/>
				<stop  offset="0.2078" style="stop-color:#0A183A"/>
				<stop  offset="0.498" style="stop-color:#14234D"/>
				<stop  offset="0.8471" style="stop-color:#24356D"/>
				<stop  offset="1" style="stop-color:#2D3F7D"/>
			</linearGradient>
			<path style="fill-rule:evenodd;clip-rule:evenodd;fill:url(#SVGID_42_);" d="M118.55,207.85c11.2,3.7,22.05,10.717,32.55,21.05
				c15.633,15.434,28.3,32.283,38,50.55c7.067,11.434,12.934,22.7,17.601,33.8c2.866,6.866,7.517,18.733,13.95,35.6
				c6.199,15.4,10.583,33.233,13.149,53.5c3.434,27.101,2.017,50.917-4.25,71.45c-7.1,23.2-13.033,41.2-17.8,54
				c-4.6,12.333-7.75,18.917-9.45,19.75c-1.267,0.634-5.166,1.434-11.7,2.4c-7.699,1.166-15.716,1.95-24.05,2.35
				c-24.033,1.2-42.65-0.95-55.85-6.45c-8.133-4.8-18.184-14.666-30.15-29.6c-13.133-16.333-23.733-33.017-31.8-50.05
				c-4.3-9.066-8.417-20.351-12.35-33.851c-3.8-12.966-6.316-24.1-7.55-33.399c-3.333-25.4-2.483-52.334,2.55-80.8
				c2.2-12.434,5-23.884,8.4-34.351c7.067-21.833,14.284-38.466,21.65-49.9c7.8-12.133,17.183-20.717,28.15-25.75
				C97.933,204.35,107.583,204.25,118.55,207.85z"/>
			
				<linearGradient id="SVGID_43_" gradientUnits="userSpaceOnUse" x1="-479.7051" y1="60.8721" x2="-6.3289" y2="60.8721" gradientTransform="matrix(-0.1707 -0.9853 0.9853 -0.1707 1.040697e-004 3.352761e-005)">
				<stop  offset="0" style="stop-color:#01102F"/>
				<stop  offset="0.2" style="stop-color:#041534"/>
				<stop  offset="0.4431" style="stop-color:#0C2343"/>
				<stop  offset="0.7098" style="stop-color:#1A3B5B"/>
				<stop  offset="0.9882" style="stop-color:#2C5B7D"/>
				<stop  offset="1" style="stop-color:#2D5D7E"/>
			</linearGradient>
			<path style="fill-rule:evenodd;clip-rule:evenodd;fill:url(#SVGID_43_);" d="M110,219.8c7.5,2.367,15.4,6.4,23.7,12.1
				c17.566,12.067,31.7,27.067,42.399,45c6.767,11.367,12.534,23.034,17.301,35c4.366,10.966,8.383,19.25,12.05,24.85
				c3.267,5.033,6.967,13.2,11.1,24.5c4.566,12.6,8.4,25.85,11.5,39.75c8.2,36.634,8.983,66.3,2.351,89
				c-6.334,21.667-14,37.533-23,47.6c-2.934,3.301-5.95,5.884-9.051,7.75c-1.633,0.967-3.283,1.783-4.949,2.45
				c-1.067,0.533-4.384,1.267-9.95,2.2c-6.834,1.167-13.85,1.967-21.05,2.4c-21.367,1.232-38.117-1.067-50.25-6.9
				c-6.2-3.033-14.667-11.217-25.4-24.55c-11.233-13.9-21.067-28.75-29.5-44.55c-4.3-8.067-8.7-19.217-13.2-33.45
				c-4.233-13.334-7.1-24.684-8.6-34.05c-3.434-21.367-4.017-43.4-1.75-66.101c1.767-18.2,5.117-35.05,10.05-50.55
				C51.683,267.017,58.2,249.933,63.3,241c6.667-11.733,15.434-19.217,26.3-22.45C95.267,216.883,102.067,217.3,110,219.8z"/>
			
				<linearGradient id="SVGID_44_" gradientUnits="userSpaceOnUse" x1="-437.1211" y1="57.8184" x2="-3.5015" y2="57.8184" gradientTransform="matrix(-0.1708 -0.9853 0.9853 -0.1708 -1.581311e-004 -5.319715e-004)">
				<stop  offset="0" style="stop-color:#01102F"/>
				<stop  offset="0.2627" style="stop-color:#031332"/>
				<stop  offset="0.4706" style="stop-color:#091D3C"/>
				<stop  offset="0.6667" style="stop-color:#122D4D"/>
				<stop  offset="0.8471" style="stop-color:#1F4464"/>
				<stop  offset="1" style="stop-color:#2D5D7E"/>
			</linearGradient>
			<path style="fill-rule:evenodd;clip-rule:evenodd;fill:url(#SVGID_44_);" d="M130.95,249.35
				c15.9,11.033,28.683,24.767,38.35,41.2c6.134,10.434,11.367,21.134,15.7,32.101c3.934,10.066,7.55,17.666,10.85,22.8
				c2.967,4.6,6.301,12.083,10,22.45c4.167,11.533,7.65,23.683,10.45,36.449c7.4,33.601,8.101,60.801,2.101,81.601
				c-5.733,19.833-12.667,34.366-20.801,43.6c-2.666,3-5.399,5.351-8.199,7.05c-1.467,0.9-2.95,1.65-4.45,2.25
				c-0.934,0.5-3.934,1.184-9,2.051c-6.167,1.066-12.517,1.8-19.05,2.199c-19.3,1.134-34.433-0.983-45.4-6.35
				c-5.6-2.733-13.267-10.217-23-22.45c-10.1-12.733-18.983-26.35-26.65-40.85c-3.9-7.367-7.883-17.584-11.95-30.65
				c-3.8-12.233-6.383-22.649-7.75-31.25c-3.1-19.566-3.633-39.75-1.6-60.55c1.6-16.634,4.633-32.083,9.1-46.35
				c7.2-23.101,13.083-38.75,17.65-46.95c6.067-10.767,14-17.633,23.8-20.6C101.5,234,114.783,238.083,130.95,249.35z"/>
		</g>
		<g>
			<linearGradient id="SVGID_45_" gradientUnits="userSpaceOnUse" x1="-8.1875" y1="374.8584" x2="155.0592" y2="492.5379">
				<stop  offset="0" style="stop-color:#2F7590"/>
				<stop  offset="0.1373" style="stop-color:#255E7A"/>
				<stop  offset="0.3804" style="stop-color:#153C5A"/>
				<stop  offset="0.6118" style="stop-color:#0A2442"/>
				<stop  offset="0.8235" style="stop-color:#031534"/>
				<stop  offset="1" style="stop-color:#01102F"/>
			</linearGradient>
			<path style="fill-rule:evenodd;clip-rule:evenodd;fill:url(#SVGID_45_);" d="M3.6,381.25c2.867-7.667,7.383-13.75,13.55-18.25
				c5.934-4.333,13.033-6.934,21.3-7.8c19.2-2,36.383-0.7,51.55,3.899c15.067,4.567,27.567,12.217,37.5,22.95l1.45,161.65
				c-9.633,0.733-20.15-1.05-31.55-5.351c-11.333-4.267-22.5-10.616-33.5-19.05c-24.433-18.733-42.25-42.25-53.45-70.55
				C-0.583,420.983-2.867,398.483,3.6,381.25z"/>
			<linearGradient id="SVGID_46_" gradientUnits="userSpaceOnUse" x1="-21.1318" y1="365.0205" x2="155.9478" y2="492.6642">
				<stop  offset="0" style="stop-color:#276689"/>
				<stop  offset="0.2706" style="stop-color:#1E4969"/>
				<stop  offset="0.5412" style="stop-color:#183350"/>
				<stop  offset="0.7843" style="stop-color:#142542"/>
				<stop  offset="0.9882" style="stop-color:#13213D"/>
				<stop  offset="1" style="stop-color:#13213D"/>
			</linearGradient>
			<path style="fill-rule:evenodd;clip-rule:evenodd;fill:url(#SVGID_46_);" d="M7.7,393.75c1.867-14.634,9.117-24.983,21.75-31.05
				c6.5-3.101,16.2-4.917,29.1-5.45c13.1-0.566,23.2,0.5,30.3,3.2c10.967,4.133,18.267,7.116,21.9,8.95c7.9,4,13.9,8.649,18,13.949
				l-0.15,31.9c-0.133,21.9-0.317,34.4-0.55,37.5c-0.233,3.1-0.417,19.7-0.55,49.8c-0.067,15.033-0.117,29.767-0.15,44.2
				c-9.033,0.667-19.434-1.884-31.2-7.65c-10.8-5.3-21.7-12.767-32.7-22.399c-8.867-7.834-16.817-17.117-23.85-27.851
				c-6.2-9.366-12.417-21.017-18.65-34.949C10.117,429.634,5.7,409.583,7.7,393.75z"/>
			<linearGradient id="SVGID_47_" gradientUnits="userSpaceOnUse" x1="-27.6841" y1="359.9414" x2="155.7526" y2="492.1502">
				<stop  offset="0" style="stop-color:#2D5D7E"/>
				<stop  offset="0.2549" style="stop-color:#1F4262"/>
				<stop  offset="0.5333" style="stop-color:#142B4A"/>
				<stop  offset="0.7882" style="stop-color:#0D1D3B"/>
				<stop  offset="1" style="stop-color:#0A1836"/>
			</linearGradient>
			<path style="fill-rule:evenodd;clip-rule:evenodd;fill:url(#SVGID_47_);" d="M37.45,367.2c6.167-3.467,14.517-5.434,25.05-5.9
				c10.567-0.434,19.517,0.8,26.85,3.7c4.733,1.866,12.217,4.184,22.45,6.95c8.6,3,14.667,7.25,18.2,12.75l-0.3,28.3
				c-0.3,20.1-0.667,33.25-1.1,39.45c-0.7,9.934-1.15,40.483-1.35,91.649c-8.867,0.634-18.633-1.3-29.3-5.8
				c-11.3-4.733-21.784-11.6-31.45-20.6c-7.367-6.9-14.017-17.134-19.95-30.7c-6.233-16-11.433-28.1-15.6-36.3
				c-10.3-20.233-14.517-38-12.65-53.3C20,383.467,26.383,373.4,37.45,367.2z"/>
			<linearGradient id="SVGID_48_" gradientUnits="userSpaceOnUse" x1="-33.8701" y1="353.3496" x2="156.0815" y2="490.2723">
				<stop  offset="0" style="stop-color:#2D5D7E"/>
				<stop  offset="0.0118" style="stop-color:#2C5B7D"/>
				<stop  offset="0.2902" style="stop-color:#1A3B5B"/>
				<stop  offset="0.5569" style="stop-color:#0C2343"/>
				<stop  offset="0.8" style="stop-color:#041534"/>
				<stop  offset="1" style="stop-color:#01102F"/>
			</linearGradient>
			<path style="fill-rule:evenodd;clip-rule:evenodd;fill:url(#SVGID_48_);" d="M40.95,375.7c6.333-4.167,14.083-6.95,23.25-8.351
				c9.966-1.5,18.517-0.75,25.65,2.25c2.8,1.134,6.533,2.101,11.2,2.9c2.633,0.467,6.567,1.134,11.8,2
				c9.167,1.9,15.3,5.75,18.4,11.55l-0.45,24.7c-0.433,18.333-0.966,32.15-1.6,41.45c-0.667,9.3-1.2,26.967-1.6,53
				c-0.233,13-0.383,25.083-0.45,36.25c-8.1,0.566-17.25-1.384-27.45-5.851c-11.067-4.833-21.133-11.733-30.2-20.699
				c-6.767-6.767-12.567-16.817-17.4-30.15c-2.567-7.4-4.567-13-6-16.8c-2.533-6.601-5.25-12.351-8.15-17.25
				c-9.667-16.5-13.883-31.9-12.65-46.2C26.4,391.434,31.617,381.833,40.95,375.7z"/>
			<linearGradient id="SVGID_49_" gradientUnits="userSpaceOnUse" x1="-38.561" y1="347.7061" x2="156.3928" y2="488.2257">
				<stop  offset="0" style="stop-color:#2D3F7D"/>
				<stop  offset="0.1529" style="stop-color:#24356D"/>
				<stop  offset="0.502" style="stop-color:#14234D"/>
				<stop  offset="0.7922" style="stop-color:#0A183A"/>
				<stop  offset="0.9882" style="stop-color:#061433"/>
			</linearGradient>
			<path style="fill-rule:evenodd;clip-rule:evenodd;fill:url(#SVGID_49_);" d="M43.45,381.7c4.333-4.8,12.3-7.467,23.9-8
				c11.033-0.5,20.566,1,28.6,4.5c2.867,1.233,6.35,1.783,10.45,1.649c2.333-0.066,5.767-0.333,10.3-0.8
				c3.833-0.233,6.867,0.117,9.1,1.05c2.9,1.233,5.15,3.65,6.75,7.25l-0.6,21.101c-0.6,16.566-1.333,31.05-2.2,43.45
				c-0.867,12.433-1.583,30.649-2.15,54.649c-0.267,12-0.45,22.767-0.55,32.3c-7.367,0.434-15.9-1.566-25.6-6
				c-10.833-4.933-20.5-11.866-29-20.8c-3.934-4.166-7.1-9.1-9.5-14.8c-1.633-3.833-3.317-9.184-5.05-16.05
				c-2.033-8.2-3.533-13.733-4.5-16.601c-2.066-6.267-4.717-11.733-7.95-16.399c-8.767-12.7-12.95-25.533-12.55-38.5
				C33.267,398.434,36.783,389.1,43.45,381.7z"/>
			<linearGradient id="SVGID_50_" gradientUnits="userSpaceOnUse" x1="-99.7554" y1="309.1846" x2="154.2435" y2="492.2611">
				<stop  offset="0" style="stop-color:#2F7590"/>
				<stop  offset="0.1373" style="stop-color:#255E7A"/>
				<stop  offset="0.3804" style="stop-color:#153C5A"/>
				<stop  offset="0.6118" style="stop-color:#0A2442"/>
				<stop  offset="0.8235" style="stop-color:#031534"/>
				<stop  offset="1" style="stop-color:#01102F"/>
			</linearGradient>
			<path style="fill-rule:evenodd;clip-rule:evenodd;fill:url(#SVGID_50_);" d="M48.45,389.2c5.267-5,13.283-7.851,24.05-8.55
				c10.4-0.667,19.617,0.816,27.65,4.449c2.767,1.233,6.55,1.801,11.35,1.7c2.767-0.1,7-0.366,12.7-0.8
				c4.867-0.233,8.65,0.184,11.35,1.25c3.567,1.366,6.067,3.983,7.5,7.85l-0.75,17.5c-0.7,14.767-1.6,29.917-2.7,45.45
				c-1.1,15.5,1.8,35.851,8.7,61.05c3.434,12.567,6.983,23.601,10.65,33.101c-14.4,0.733-26.2,0.416-35.4-0.95
				c-19.066-2.867-32.433-9.717-40.1-20.55c-5.267-7.467-10.767-20.3-16.5-38.5c-3.267-10.367-5.517-17.267-6.75-20.7
				c-2.7-7.467-5.45-13.566-8.25-18.3c-8.967-15.2-13.333-28.717-13.1-40.55C39.05,402.917,42.25,395.1,48.45,389.2z"/>
		</g>
		<g>
			<linearGradient id="SVGID_51_" gradientUnits="userSpaceOnUse" x1="130.541" y1="303.5801" x2="141.585" y2="393.1808">
				<stop  offset="0" style="stop-color:#2F7590"/>
				<stop  offset="0.1373" style="stop-color:#255E7A"/>
				<stop  offset="0.3804" style="stop-color:#153C5A"/>
				<stop  offset="0.6118" style="stop-color:#0A2442"/>
				<stop  offset="0.8235" style="stop-color:#031534"/>
				<stop  offset="1" style="stop-color:#01102F"/>
			</linearGradient>
			<path style="fill-rule:evenodd;clip-rule:evenodd;fill:url(#SVGID_51_);" d="M124.85,284.8c7.566-2.967,15.633-0.916,24.2,6.15
				c6.733,5.533,12.367,14.75,16.9,27.649c4.066,11.467,6.434,23.267,7.1,35.4l-51.45,77.65c-8.4-11.767-14.333-28.233-17.8-49.4
				c-3.633-22.333-3.316-43.533,0.95-63.6C108.783,299.75,115.483,288.467,124.85,284.8z"/>
			<linearGradient id="SVGID_52_" gradientUnits="userSpaceOnUse" x1="130.2964" y1="293.6855" x2="142.2163" y2="390.3612">
				<stop  offset="0" style="stop-color:#0D6695"/>
				<stop  offset="0.0706" style="stop-color:#0D5E8A"/>
				<stop  offset="0.3294" style="stop-color:#0E4369"/>
				<stop  offset="0.5765" style="stop-color:#103050"/>
				<stop  offset="0.8" style="stop-color:#122542"/>
				<stop  offset="0.9882" style="stop-color:#13213D"/>
				<stop  offset="1" style="stop-color:#13213D"/>
			</linearGradient>
			<path style="fill-rule:evenodd;clip-rule:evenodd;fill:url(#SVGID_52_);" d="M125.35,290.3c6.833-3.1,14.2-1.767,22.1,4
				c3.466,2.533,6.667,6.033,9.6,10.5c2.9,4.434,5.35,9.517,7.35,15.25c3.033,8.533,5,14.45,5.9,17.75
				c1.9,6.7,2.834,12.566,2.8,17.601c-12.7,19.1-19.883,29.683-21.55,31.75c-1.033,1.3-6.216,8.899-15.55,22.8
				c-4.633,6.934-9.183,13.733-13.65,20.399c-4-5.6-7.5-12.916-10.5-21.949c-3.133-9.301-5.35-19.233-6.65-29.801
				c-1.067-8.966-1.284-18.483-0.65-28.55c0.567-8.366,1.784-17.883,3.65-28.55C111.2,304.533,116.917,294.134,125.35,290.3z"/>
			<linearGradient id="SVGID_53_" gradientUnits="userSpaceOnUse" x1="130.2319" y1="285.1318" x2="142.8963" y2="387.8582">
				<stop  offset="0" style="stop-color:#2D5D7E"/>
				<stop  offset="0.2549" style="stop-color:#1F4262"/>
				<stop  offset="0.5333" style="stop-color:#142B4A"/>
				<stop  offset="0.7882" style="stop-color:#0D1D3B"/>
				<stop  offset="1" style="stop-color:#0A1836"/>
			</linearGradient>
			<path style="fill-rule:evenodd;clip-rule:evenodd;fill:url(#SVGID_53_);" d="M145.8,297.65c3.567,2.3,6.833,5.517,9.8,9.649
				c3.133,4.367,5.667,9.434,7.6,15.2c1.3,3.8,3.55,9.5,6.75,17.1c2.467,6.733,3.55,12.467,3.25,17.2l-8.8,12.95
				c-6.267,9.134-10.45,15.017-12.55,17.65c-3.333,4.166-12.9,18.05-28.7,41.649c-3.667-5.2-6.933-12.149-9.8-20.85
				c-3-9.2-5.033-18.884-6.1-29.05c-0.8-8.2-0.633-17.351,0.5-27.45c1.767-11.834,3.083-20.95,3.95-27.351
				c2.033-15,6.8-24.517,14.3-28.55C132.1,292.533,138.7,293.15,145.8,297.65z"/>
			<linearGradient id="SVGID_54_" gradientUnits="userSpaceOnUse" x1="130.2959" y1="277.7354" x2="143.5702" y2="385.4604">
				<stop  offset="0" style="stop-color:#2D5D7E"/>
				<stop  offset="0.0118" style="stop-color:#2C5B7D"/>
				<stop  offset="0.2902" style="stop-color:#1A3B5B"/>
				<stop  offset="0.5569" style="stop-color:#0C2343"/>
				<stop  offset="0.8" style="stop-color:#041534"/>
				<stop  offset="1" style="stop-color:#01102F"/>
			</linearGradient>
			<path style="fill-rule:evenodd;clip-rule:evenodd;fill:url(#SVGID_54_);" d="M144.15,301c3.7,1.967,7.05,4.9,10.05,8.8
				c3.267,4.2,5.867,9.233,7.8,15.101c0.733,2.267,1.9,5.05,3.5,8.35c0.9,1.8,2.25,4.533,4.05,8.2
				c3.066,6.566,4.316,12.149,3.75,16.75l-7.75,11.2c-5.8,8.233-10.267,14.3-13.4,18.199c-5,6.267-14.417,19.65-28.25,40.15
				c-3.367-4.767-6.367-11.35-9-19.75c-2.9-9.066-4.767-18.5-5.6-28.3c-0.6-7.566-0.033-16.351,1.7-26.351
				c2.5-14.5,3.883-23.216,4.15-26.149c1.2-13.033,5.067-21.667,11.6-25.9C132.083,297.8,137.883,297.7,144.15,301z"/>
			<linearGradient id="SVGID_55_" gradientUnits="userSpaceOnUse" x1="130.4756" y1="271.4067" x2="144.2718" y2="383.2822">
				<stop  offset="0" style="stop-color:#214377"/>
				<stop  offset="0.098" style="stop-color:#1D3D6D"/>
				<stop  offset="0.4667" style="stop-color:#11264D"/>
				<stop  offset="0.7765" style="stop-color:#09193A"/>
				<stop  offset="0.9882" style="stop-color:#061433"/>
			</linearGradient>
			<path style="fill-rule:evenodd;clip-rule:evenodd;fill:url(#SVGID_55_);" d="M142.5,304.35c3.833,1.567,7.283,4.2,10.35,7.9
				c3.4,4.066,6.05,9.1,7.95,15.1c0.733,2.301,1.983,4.983,3.75,8.051c1,1.767,2.55,4.383,4.65,7.85c3.6,6.366,5,11.816,4.2,16.35
				l-6.7,9.4c-5.333,7.333-10.083,13.6-14.25,18.8c-6.667,8.334-15.917,21.233-27.75,38.7c-3.067-4.4-5.833-10.616-8.3-18.65
				c-2.733-9-4.4-18.199-5-27.6c-0.467-7.033,0.483-15.45,2.85-25.25c2.7-11.167,4.167-19.483,4.4-24.95
				c0.434-11.066,3.417-18.833,8.95-23.3C132.2,303.017,137.167,302.217,142.5,304.35z"/>
			<linearGradient id="SVGID_56_" gradientUnits="userSpaceOnUse" x1="129.4868" y1="250.8608" x2="143.7145" y2="366.2605">
				<stop  offset="0" style="stop-color:#2F7590"/>
				<stop  offset="0.1373" style="stop-color:#255E7A"/>
				<stop  offset="0.3804" style="stop-color:#153C5A"/>
				<stop  offset="0.6118" style="stop-color:#0A2442"/>
				<stop  offset="0.8235" style="stop-color:#031534"/>
				<stop  offset="1" style="stop-color:#01102F"/>
			</linearGradient>
			<path style="fill-rule:evenodd;clip-rule:evenodd;fill:url(#SVGID_56_);" d="M123.8,341.65c-0.233-9.134,1.9-16.084,6.4-20.851
				c3.867-4.066,7.983-5.517,12.35-4.35c3.9,1,7.45,3.3,10.65,6.899c3.466,3.9,6.167,8.95,8.1,15.15c0.7,2.267,2.017,4.866,3.95,7.8
				c1.133,1.7,2.883,4.2,5.25,7.5c4.167,6.101,5.717,11.4,4.65,15.9l-5.65,7.7c-4.833,6.399-9.85,12.85-15.05,19.35
				c-8.3,10.434-17.4,22.816-27.3,37.15c-2.733-3.934-5.233-9.784-7.5-17.551c-2.633-8.866-4.133-17.816-4.5-26.85
				c-0.3-6.6,1.1-14.634,4.2-24.1C122.45,355.733,123.933,347.816,123.8,341.65z"/>
		</g>
		<g>
			<linearGradient id="SVGID_57_" gradientUnits="userSpaceOnUse" x1="177.5693" y1="301.6807" x2="213.58" y2="536.4578">
				<stop  offset="0" style="stop-color:#2E6D73"/>
				<stop  offset="0.9882" style="stop-color:#182541"/>
			</linearGradient>
			<path style="fill-rule:evenodd;clip-rule:evenodd;fill:url(#SVGID_57_);" d="M141.4,386.85c2.7-7.633,6.5-14.983,11.4-22.05
				c4.667-6.733,12.667-16.517,24-29.35c11.167-12.634,23.3-19.851,36.4-21.65c12.2-1.633,22.467,1.601,30.8,9.7
				c14.333,13.866,25.316,35.55,32.95,65.05c4.566,17.7,7.149,30.884,7.75,39.55c0.899,13.601-1.033,28.617-5.8,45.051
				c-3.967,13.699-12.034,28.233-24.2,43.6c-9.7,12.267-19.684,22.467-29.95,30.6c-10.7,2.434-26.467,3.4-47.3,2.9
				c-18.867-0.467-29.934-1.467-33.2-3c-1.5-0.7-3.733-3.267-6.7-7.7c-3.5-5.2-6.733-11.3-9.7-18.3
				c-8.3-19.434-12.167-39.7-11.6-60.8c0.567-19.8,4.533-37.5,11.9-53.101C132.017,399.217,136.433,392.384,141.4,386.85z"/>
			<linearGradient id="SVGID_58_" gradientUnits="userSpaceOnUse" x1="172.4238" y1="274.1323" x2="210.6144" y2="515.2838">
				<stop  offset="0" style="stop-color:#277389"/>
				<stop  offset="0.0275" style="stop-color:#266F86"/>
				<stop  offset="0.298" style="stop-color:#1E4D66"/>
				<stop  offset="0.5569" style="stop-color:#18354F"/>
				<stop  offset="0.7922" style="stop-color:#142642"/>
				<stop  offset="0.9882" style="stop-color:#13213D"/>
				<stop  offset="1" style="stop-color:#13213D"/>
			</linearGradient>
			<path style="fill-rule:evenodd;clip-rule:evenodd;fill:url(#SVGID_58_);" d="M145.4,391.45c3.133-8.066,6.967-15.733,11.5-23
				c5.633-9.033,12.95-18.533,21.95-28.5c10.134-11.134,21.034-17.8,32.7-20c11.033-2.066,20.434,0.149,28.2,6.649
				c6.033,5.067,11.45,11.517,16.25,19.351c4.533,7.434,8.634,16.366,12.3,26.8c2.101,5.833,4.033,12.417,5.8,19.75
				c2.301,9.533,3.917,17.3,4.851,23.3c1.267,8.134,1.8,15.851,1.6,23.15c-0.2,7.934-0.666,14.85-1.399,20.75
				c-0.801,6.7-2.034,13.066-3.7,19.1c-4.767,17.367-13.2,32.4-25.3,45.101c-4.267,4.466-9.284,8.949-15.051,13.449
				c-3.199,2.533-7.533,5.767-13,9.7c-10.133,2.7-25.017,3.783-44.649,3.25c-17.333-0.5-27.583-1.483-30.75-2.95
				c-1.567-0.733-3.983-4-7.25-9.8c-3.833-6.833-7.483-15-10.95-24.5c-3.3-9.1-5.633-19.116-7-30.05
				c-1.333-10.767-1.567-21.2-0.7-31.3c1.434-16.8,5.333-30.967,11.7-42.5c2.067-3.8,4.533-7.483,7.4-11.05
				C142.733,394.816,144.567,392.583,145.4,391.45z"/>
			<linearGradient id="SVGID_59_" gradientUnits="userSpaceOnUse" x1="179.3545" y1="321.9678" x2="219.7972" y2="569.4189">
				<stop  offset="0" style="stop-color:#0C737F"/>
				<stop  offset="0.051" style="stop-color:#0C6B79"/>
				<stop  offset="0.3176" style="stop-color:#0C495D"/>
				<stop  offset="0.5686" style="stop-color:#0D314A"/>
				<stop  offset="0.7961" style="stop-color:#0E223E"/>
				<stop  offset="0.9882" style="stop-color:#0F1D3A"/>
				<stop  offset="1" style="stop-color:#0F1D3A"/>
			</linearGradient>
			<path style="fill-rule:evenodd;clip-rule:evenodd;fill:url(#SVGID_59_);" d="M150.85,387.85c3.167-7.3,6.883-14.166,11.15-20.6
				c5.167-7.9,11.65-15.983,19.45-24.25c8.967-9.566,18.566-15.45,28.8-17.65c9.667-2.1,18.066-0.633,25.2,4.4
				c6.399,4.5,12.066,10.583,17,18.25c4.7,7.366,9.05,16.733,13.05,28.1c2.233,6.334,4.134,13.101,5.7,20.301
				c2,8.866,3.399,16.716,4.2,23.55c1,8.366,1.25,16.434,0.75,24.2c-0.5,8.199-1.101,14.85-1.801,19.949
				c-1.199,8.5-2.916,15.733-5.149,21.7c-4.434,11.8-12.334,24.117-23.7,36.95c-8.866,10-17.55,18.017-26.05,24.05
				c-9.634,2.934-23.634,4.117-42,3.55c-6.7-0.233-12.967-0.666-18.8-1.3c-5.267-0.566-8.433-1.1-9.5-1.6
				c-1.433-0.667-3.733-4.217-6.9-10.65c-3.7-7.399-7.467-16.566-11.3-27.5c-5.867-17.033-6.583-39.399-2.15-67.1
				c2.3-14.134,5.767-26,10.4-35.601C141.1,402.667,144.983,396.417,150.85,387.85z"/>
			<linearGradient id="SVGID_60_" gradientUnits="userSpaceOnUse" x1="166.1494" y1="261.2549" x2="208.8201" y2="514.5306">
				<stop  offset="0" style="stop-color:#25707F"/>
				<stop  offset="0.0667" style="stop-color:#226677"/>
				<stop  offset="0.3294" style="stop-color:#18445B"/>
				<stop  offset="0.5804" style="stop-color:#102C46"/>
				<stop  offset="0.8118" style="stop-color:#0C1D3A"/>
				<stop  offset="1" style="stop-color:#0A1836"/>
			</linearGradient>
			<path style="fill-rule:evenodd;clip-rule:evenodd;fill:url(#SVGID_60_);" d="M209.1,330.6c8.367-2.133,15.733-1.383,22.101,2.25
				c6.8,3.867,12.717,9.567,17.75,17.101c4.833,7.3,9.416,17.149,13.75,29.55c2.2,6.366,4.083,13.3,5.649,20.8
				c1.767,8.566,2.95,16.5,3.551,23.8c0.733,8.7,0.699,17.101-0.101,25.2c-1.1,11.334-1.916,18.867-2.45,22.601
				c-1.5,10.333-3.399,18.199-5.699,23.6c-5.034,11.667-11.167,22.267-18.4,31.8c-6.634,8.733-13,15.066-19.1,19
				c-9.134,3.233-23.801,4.566-44,4c-7.233-0.233-14.067-0.667-20.5-1.3c-5.767-0.566-9.117-1.066-10.05-1.5
				c-1.9-0.9-4.733-4.35-8.5-10.35c-5.1-8.101-9.6-17.917-13.5-29.45c-6.133-18.3-5.233-42.467,2.7-72.5
				c2.967-11.233,6.7-21.217,11.2-29.95c2.4-4.634,6.683-11.634,12.85-21c3.133-6.434,6.733-12.5,10.8-18.2
				c4.7-6.7,10.333-13.383,16.9-20.05C191.917,338,200.267,332.866,209.1,330.6z"/>
			<linearGradient id="SVGID_61_" gradientUnits="userSpaceOnUse" x1="172.0654" y1="290.1729" x2="207.1329" y2="492.3242">
				<stop  offset="0" style="stop-color:#0C737F"/>
				<stop  offset="0.2706" style="stop-color:#084F62"/>
				<stop  offset="0.5686" style="stop-color:#062F48"/>
				<stop  offset="0.8196" style="stop-color:#061B38"/>
				<stop  offset="0.9882" style="stop-color:#061433"/>
			</linearGradient>
			<path style="fill-rule:evenodd;clip-rule:evenodd;fill:url(#SVGID_61_);" d="M207.95,335.85c7.2-2.3,13.533-2.267,19,0.101
				c7.2,3.1,13.383,8.416,18.55,15.95c4.866,7.066,9.667,17.383,14.4,30.949c2.3,6.801,4.166,13.917,5.6,21.351
				c3.4,17.8,4.033,34.566,1.9,50.3c-0.767,5.767-2.384,12.7-4.851,20.8c-2.533,8.434-5.2,15.483-8,21.15
				c-5.233,10.6-12.133,21.017-20.7,31.25c-7.8,9.333-14.366,15.517-19.699,18.55c-8.667,3.467-20.884,4.866-36.65,4.2
				c-5.467-0.233-10.733-0.7-15.8-1.4c-4.267-0.566-6.833-1.05-7.7-1.45c-1.1-0.5-3.167-4.583-6.2-12.25
				c-3.2-8-7.167-19.199-11.9-33.6c-4.167-12.733-5.167-27.55-3-44.45c1.6-12.566,4.417-23.684,8.45-33.35
				c4.167-10.533,7.183-17.934,9.05-22.2c3.033-6.934,6.85-13.967,11.45-21.1c6.3-11.434,14.55-21.967,24.75-31.601
				C193.467,342.583,200.583,338.184,207.95,335.85z"/>
			<linearGradient id="SVGID_62_" gradientUnits="userSpaceOnUse" x1="161.1729" y1="249.9629" x2="207.7822" y2="510.9657">
				<stop  offset="0" style="stop-color:#2E6B7F"/>
				<stop  offset="0.0824" style="stop-color:#285E74"/>
				<stop  offset="0.3412" style="stop-color:#173C56"/>
				<stop  offset="0.5882" style="stop-color:#0B2440"/>
				<stop  offset="0.8157" style="stop-color:#041533"/>
				<stop  offset="1" style="stop-color:#01102F"/>
			</linearGradient>
			<path style="fill-rule:evenodd;clip-rule:evenodd;fill:url(#SVGID_62_);" d="M170.35,379c7-11.2,16.233-20.566,27.7-28.1
				c11.733-7.733,21.367-10.567,28.9-8.5c7.166,1.966,12.95,6.6,17.35,13.899c3.367,5.566,7.7,16.184,13,31.851
				c3.3,9.633,5.566,20.116,6.8,31.449c1.534,14.101,1.2,27.801-1,41.101c-0.966,5.866-2.8,12.95-5.5,21.25
				c-2.899,8.866-5.767,15.816-8.6,20.85c-5.467,9.867-11.866,19.15-19.2,27.851c-7,8.333-12.533,13.449-16.6,15.35
				c-7.934,3.7-18.917,5.184-32.95,4.45c-4.733-0.233-9.35-0.7-13.85-1.4c-3.667-0.566-5.85-1.017-6.55-1.35
				c-4-1.934-7.067-4.033-9.2-6.3c-5.933-6.233-11.017-16.084-15.25-29.551c-4.433-14.1-4.017-32.566,1.25-55.399
				c2-8.667,4.483-16.934,7.45-24.8c2.667-7.034,5.066-12.117,7.2-15.25c2.367-3.5,4.967-8.684,7.8-15.551
				C162.167,393.384,165.917,386.1,170.35,379z"/>
			<linearGradient id="SVGID_63_" gradientUnits="userSpaceOnUse" x1="165.9795" y1="263.9116" x2="208.6742" y2="502.9626">
				<stop  offset="0" style="stop-color:#2D5D7E"/>
				<stop  offset="0.1529" style="stop-color:#1F4664"/>
				<stop  offset="0.3333" style="stop-color:#12324D"/>
				<stop  offset="0.5294" style="stop-color:#09233C"/>
				<stop  offset="0.7373" style="stop-color:#031A32"/>
				<stop  offset="1" style="stop-color:#01182F"/>
			</linearGradient>
			<path style="fill-rule:evenodd;clip-rule:evenodd;fill:url(#SVGID_63_);" d="M175.4,385.85c6.3-10.3,14.649-18.916,25.05-25.85
				c10.6-7.066,19.316-9.634,26.149-7.7c6.467,1.8,11.7,6.033,15.7,12.7c3,5.066,6.917,14.8,11.75,29.2
				c2.934,8.866,4.967,18.483,6.101,28.85c1.399,12.934,1.116,25.483-0.851,37.65c-0.866,5.366-2.533,11.866-5,19.5
				c-2.633,8.1-5.217,14.467-7.75,19.1c-5,9.033-10.8,17.533-17.399,25.5c-6.334,7.667-11.334,12.367-15,14.101
				c-7.167,3.366-17.084,4.732-29.75,4.1c-9.801-0.533-15.95-1.384-18.45-2.55c-3.5-1.667-6.284-3.584-8.35-5.75
				c-5.367-5.733-9.967-14.767-13.8-27.101c-4-12.933-3.617-29.866,1.15-50.8c1.8-7.967,4.05-15.55,6.75-22.75
				c2.4-6.467,4.566-11.133,6.5-14c2.133-3.2,4.483-7.934,7.05-14.2C168.05,399.017,171.434,392.35,175.4,385.85z"/>
			<linearGradient id="SVGID_64_" gradientUnits="userSpaceOnUse" x1="165.5713" y1="270.7656" x2="199.2595" y2="459.4178">
				<stop  offset="0" style="stop-color:#2D5D7E"/>
				<stop  offset="0.1529" style="stop-color:#1F4764"/>
				<stop  offset="0.3333" style="stop-color:#12334D"/>
				<stop  offset="0.5294" style="stop-color:#09253C"/>
				<stop  offset="0.7373" style="stop-color:#031C32"/>
				<stop  offset="1" style="stop-color:#011A2F"/>
			</linearGradient>
			<path style="fill-rule:evenodd;clip-rule:evenodd;fill:url(#SVGID_64_);" d="M222.35,375.2c5.801,1.434,10.5,4.75,14.101,9.95
				c2.7,4,6.2,11.616,10.5,22.85c2.666,6.934,4.5,14.45,5.5,22.55c1.233,10.167,0.967,20-0.8,29.5c-0.801,4.2-2.301,9.283-4.5,15.25
				c-2.367,6.367-4.7,11.367-7,15c-4.434,7.066-9.617,13.717-15.551,19.95c-5.699,6-10.199,9.667-13.5,11
				c-6.433,2.667-15.35,3.75-26.75,3.25c-8.899-0.4-14.417-1.066-16.55-2c-3.133-1.267-5.617-2.767-7.45-4.5
				c-4.833-4.467-8.967-11.533-12.4-21.2c-3.567-10.1-3.217-23.35,1.05-39.75c1.633-6.233,3.65-12.166,6.05-17.8
				c2.167-5.033,4.117-8.684,5.85-10.95c1.967-2.533,4.083-6.233,6.35-11.1c2.533-5.4,5.583-10.634,9.15-15.7
				c5.666-8.033,13.166-14.767,22.5-20.2C208.4,375.767,216.217,373.733,222.35,375.2z"/>
		</g>
		<path style="fill-rule:evenodd;clip-rule:evenodd;fill:#276689;" d="M63.1,199.55L57.05,209c-4.867,7.967-9.316,16.067-13.35,24.3
			c-4.034,8.267-9.65,22.133-16.85,41.6c-3.567,9.734-6.75,18.65-9.55,26.75c0.6-3.034,1.55-7.134,2.85-12.301
			c2.667-10.366,5.867-20.883,9.6-31.55c4.033-11.6,10.167-24.216,18.4-37.85C55.517,207.783,60.5,200.983,63.1,199.55z"/>
		<path style="fill-rule:evenodd;clip-rule:evenodd;fill:#276689;" d="M181.1,225.95c-1.566-2.534-4.55-6.417-8.949-11.65
			c-4.234-4.9-6.55-7.617-6.95-8.15c5.6,6.133,9.983,11.1,13.149,14.9c4.967,5.967,10.483,13.083,16.551,21.35
			c7.333,9.967,12.933,18.5,16.8,25.6c3.366,6.2,6,12.45,7.899,18.75c0.967,3.134,3.767,7.9,8.4,14.3
			c4.634,6.367,7.4,11.066,8.3,14.101c-4.899-5.667-8.5-9.834-10.8-12.5c-4.1-4.733-6.55-8.601-7.35-11.601
			c-1.334-5.066-3.051-9.783-5.15-14.15c-2.934-5.6-5.5-10.667-7.7-15.2c-2.633-5.4-6.983-12.233-13.05-20.5
			C184.95,231.233,181.233,226.15,181.1,225.95z"/>
		<path style="fill-rule:evenodd;clip-rule:evenodd;fill:#276689;" d="M47.35,246.4c3.566-7.1,7.25-13.717,11.05-19.85
			c5.4-8.733,6.583-10.483,3.55-5.25C53.217,236.167,44.9,254.983,37,277.75c-3.933,11.4-7,21.3-9.2,29.7
			C29.267,289.75,35.783,269.4,47.35,246.4z"/>
		<path style="fill-rule:evenodd;clip-rule:evenodd;fill:#276689;" d="M54.25,250.75c-2.133,6.4-4.1,12.1-5.9,17.1
			c-1.4,4.033-4.2,12.667-8.4,25.9c-3.167,9.634-4.117,10.717-2.85,3.25c1.3-7.6,4.983-18.934,11.05-34l8.75-20.35L54.25,250.75z"/>
		<path style="fill-rule:evenodd;clip-rule:evenodd;fill:#276689;" d="M14.6,310.2l-0.15,5.95c-0.2,4.6-0.534,8.433-1,11.5
			c-0.4,2.466-1.2,8.166-2.4,17.1c-1,6.634-1.5,7.4-1.5,2.3c0-5.434,0.65-12.3,1.95-20.6C12.433,320.35,13.467,314.934,14.6,310.2z"
			/>
	</g>
</g>
</svg>
