<?xml version="1.0" encoding="iso-8859-1"?>
<!-- Generator: Adobe Illustrator 15.1.0, SVG Export Plug-In . SVG Version: 6.00 Build 0)  -->
<!DOCTYPE svg PUBLIC "-//W3C//DTD SVG 1.1//EN" "http://www.w3.org/Graphics/SVG/1.1/DTD/svg11.dtd">
<svg version="1.1" id="Layer_1" xmlns="http://www.w3.org/2000/svg" xmlns:xlink="http://www.w3.org/1999/xlink" x="0px" y="0px"
	 width="292.4px" height="85.3px" viewBox="0 0 292.4 85.3" style="enable-background:new 0 0 292.4 85.3;" xml:space="preserve">
<g>
	<g>
		<path style="fill-rule:evenodd;clip-rule:evenodd;fill:#86ABAE;" d="M95.15,48.3c-0.066,0.934-0.883,1.75-2.45,2.45
			c-1.534,0.634-3.367,1.033-5.5,1.2c-4.833,0.467-7.5-0.117-8-1.75c-0.3-0.867,0.35-1.834,1.95-2.9c1.667-1.133,3.65-1.8,5.95-2
			c2.267-0.2,4.217,0.033,5.85,0.7C94.483,46.6,95.217,47.366,95.15,48.3z"/>
	</g>
	<g>
		<path style="fill-rule:evenodd;clip-rule:evenodd;fill:#86ABAE;" d="M106.65,43.2c0.067,0.233-0.083,0.467-0.45,0.7
			s-0.833,0.416-1.4,0.55c-1.3,0.233-2,0.1-2.1-0.4c-0.034-0.233,0.133-0.467,0.5-0.7s0.833-0.417,1.4-0.55
			C105.9,42.567,106.583,42.7,106.65,43.2z"/>
	</g>
	<g>
		<path style="fill-rule:evenodd;clip-rule:evenodd;fill:#97B3AB;" d="M108.85,33.2c-0.533,1-1.667,1.833-3.4,2.5
			c-0.7,0.267-2.733,0.883-6.1,1.85c-2.7,0.733-4.967,1.083-6.8,1.05c-2.167,0-3.433-0.533-3.8-1.6c-0.4-1.133,0.25-2.483,1.95-4.05
			c1.833-1.7,4.267-2.967,7.3-3.8c3.067-0.867,5.867-0.7,8.4,0.5C108.767,30.783,109.583,31.967,108.85,33.2z"/>
	</g>
	<g>
		<path style="fill-rule:evenodd;clip-rule:evenodd;fill:#809DA1;" d="M120.15,54.1c5.533,0.267,8.333,1.301,8.4,3.101
			c0.1,1.066-0.733,2.066-2.5,3c-1.933,1.033-4.25,1.5-6.95,1.399c-2.733-0.267-4.9-1.116-6.5-2.55
			c-1.467-1.267-1.934-2.416-1.4-3.45c0.433-0.866,1.55-1.383,3.35-1.55C115.683,53.917,117.55,53.934,120.15,54.1z"/>
	</g>
	<g>
		<path style="fill-rule:evenodd;clip-rule:evenodd;fill:#86ABAE;" d="M141.05,60.1c0.067,0.367-0.233,0.733-0.9,1.101
			c-0.733,0.399-1.583,0.583-2.55,0.55s-1.783-0.316-2.45-0.85c-0.6-0.467-0.783-0.867-0.55-1.2c0.267-0.533,1.367-0.767,3.3-0.7
			C139.867,59.066,140.917,59.434,141.05,60.1z"/>
	</g>
	<g>
		<path style="fill-rule:evenodd;clip-rule:evenodd;fill:#809DA1;" d="M179.4,34.1c-0.134,1.3-1.351,2.417-3.65,3.35
			c-2.2,0.867-4.816,1.367-7.85,1.5c-6.9,0.3-10.634-0.667-11.2-2.9c-0.367-1.3,0.6-2.667,2.899-4.1c2.4-1.534,5.25-2.367,8.551-2.5
			c3.233-0.133,5.966,0.283,8.199,1.25C178.483,31.633,179.5,32.767,179.4,34.1z"/>
	</g>
	<g>
		<path style="fill-rule:evenodd;clip-rule:evenodd;fill:#86ABAE;" d="M194.15,42.35c-0.233,0.9-1.534,1.25-3.9,1.05
			c-2.366-0.2-3.55-0.717-3.55-1.55c-0.033-0.434,0.35-0.833,1.149-1.2c0.834-0.367,1.784-0.517,2.851-0.45
			c1.066,0.1,1.95,0.383,2.649,0.85C194.017,41.483,194.283,41.917,194.15,42.35z"/>
	</g>
	<g>
		<path style="fill-rule:evenodd;clip-rule:evenodd;fill:#86ABAE;" d="M217.75,33.75c-0.134,1.133-1.1,2.133-2.9,3
			c-1.767,0.867-4,1.467-6.699,1.8c-2.7,0.333-5.084,0.1-7.15-0.7c-2-0.767-2.884-1.717-2.65-2.85c0.233-1.1,1.233-2.05,3-2.85
			c1.7-0.767,3.9-1.316,6.601-1.65c2.666-0.333,5.017-0.15,7.05,0.55C217,31.717,217.917,32.617,217.75,33.75z"/>
	</g>
	<g>
		<path style="fill-rule:evenodd;clip-rule:evenodd;fill:#809DA1;" d="M253.2,42.9c0.2,1.3-0.851,2.484-3.15,3.55
			c-2.5,1.166-5.3,1.55-8.399,1.149c-3.067-0.466-5.534-1.383-7.4-2.75c-1.733-1.267-2.45-2.533-2.15-3.8c0.301-1.2,1.601-2,3.9-2.4
			c2.1-0.4,4.55-0.4,7.35,0c2.967,0.4,5.217,0.883,6.75,1.45C252.033,40.833,253.066,41.767,253.2,42.9z"/>
	</g>
	<g>
		<path style="fill-rule:evenodd;clip-rule:evenodd;fill:#86ABAE;" d="M260.1,35.65c-0.166,0.4-0.816,0.6-1.949,0.6
			c-0.5,0-0.934-0.083-1.301-0.25c-0.366-0.167-0.533-0.367-0.5-0.6c0.101-0.433,0.75-0.683,1.95-0.75c0.533,0,1,0.117,1.4,0.35
			C260.066,35.233,260.2,35.45,260.1,35.65z"/>
	</g>
	<g>
		<path style="fill-rule:evenodd;clip-rule:evenodd;fill:#86ABAE;" d="M247.15,31.85c-0.467,0.667-1.434,1.033-2.9,1.1
			c-1.066,0.033-2.65-0.117-4.75-0.45c-4.4-0.7-6.667-1.75-6.8-3.15c-0.066-0.934,0.7-1.75,2.3-2.45
			c1.767-0.767,3.75-0.983,5.95-0.65c2.2,0.367,3.95,1.217,5.25,2.55C247.4,30.033,247.717,31.05,247.15,31.85z"/>
	</g>
	<g>
		<path style="fill-rule:evenodd;clip-rule:evenodd;fill:#86ABAE;" d="M192.75,21.8c-0.033,0.333-0.333,0.633-0.9,0.9
			c-0.566,0.233-1.233,0.367-2,0.4c-0.8,0.033-1.483-0.067-2.05-0.3c-0.566-0.233-0.833-0.517-0.8-0.85
			c0.066-0.333,0.366-0.617,0.9-0.85c0.566-0.233,1.25-0.367,2.05-0.4c0.767-0.034,1.434,0.066,2,0.3
			C192.517,21.2,192.783,21.467,192.75,21.8z"/>
	</g>
	<g>
		<path style="fill-rule:evenodd;clip-rule:evenodd;fill:#86ABAE;" d="M233.95,22.95c0.033,0.5-0.4,0.983-1.3,1.45
			c-0.934,0.467-2.034,0.717-3.301,0.75c-1.3,0.033-2.416-0.167-3.35-0.6c-0.866-0.433-1.233-0.917-1.1-1.45
			c0.233-1.033,1.767-1.617,4.6-1.75c1.233-0.067,2.283,0.05,3.15,0.35C233.517,22,233.95,22.417,233.95,22.95z"/>
	</g>
	<g>
		<path style="fill-rule:evenodd;clip-rule:evenodd;fill:#86ABAE;" d="M137.3,45.8c-0.066-1,0.817-1.85,2.65-2.55
			c1.9-0.767,3.983-1.033,6.25-0.8c4.934,0.5,7.583,1.616,7.95,3.35c0.233,1-0.601,1.917-2.5,2.75c-2,0.9-4.15,1.217-6.45,0.95
			c-2.333-0.233-4.2-0.667-5.6-1.3C138.133,47.566,137.367,46.767,137.3,45.8z"/>
	</g>
	<g>
		<path style="fill-rule:evenodd;clip-rule:evenodd;fill:#86ABAE;" d="M125.5,37.9c-5.233,1.333-8.25,1.184-9.05-0.45
			c-0.467-0.867,0.066-2.017,1.6-3.45c1.667-1.533,3.767-2.633,6.3-3.3c2.533-0.567,4.75-0.6,6.65-0.1
			c1.833,0.5,2.75,1.267,2.75,2.3c0,1-0.817,1.967-2.45,2.9C129.767,36.667,127.833,37.367,125.5,37.9z"/>
	</g>
	<g>
		<path style="fill-rule:evenodd;clip-rule:evenodd;fill:#86ABAE;" d="M113.85,27.05c-0.067-0.2,0.117-0.417,0.55-0.65
			c0.434-0.233,0.934-0.367,1.5-0.4c0.567-0.033,1.05,0.05,1.45,0.25s0.566,0.433,0.5,0.7c-0.1,0.433-0.783,0.683-2.05,0.75
			C114.567,27.767,113.917,27.55,113.85,27.05z"/>
	</g>
	<g>
		<path style="fill-rule:evenodd;clip-rule:evenodd;fill:#809DA1;" d="M70.3,43.95c-0.3-0.667,0.167-1.417,1.4-2.25
			c1.233-0.9,2.65-1.467,4.25-1.7c1.667-0.267,2.983-0.35,3.95-0.25c0.8,0.1,1.5,0.35,2.1,0.75c0.667,0.533,0.317,1.383-1.05,2.55
			c-1.367,1.134-2.85,1.767-4.45,1.9C72.933,45.517,70.867,45.184,70.3,43.95z"/>
	</g>
	<g>
		<path style="fill-rule:evenodd;clip-rule:evenodd;fill:#97B3AB;" d="M60.95,49.1c1.3,0.601,2.083,1.317,2.35,2.15
			c0.367,1.033-0.466,1.967-2.5,2.8c-2.133,0.867-4.367,1-6.7,0.4c-2.267-0.566-4.05-1.3-5.35-2.2
			c-1.233-0.866-1.833-1.783-1.8-2.75c0.066-1.033,1.05-1.75,2.95-2.15c1.934-0.399,3.967-0.316,6.1,0.25
			C58.367,48.2,60.017,48.7,60.95,49.1z"/>
	</g>
	<g>
		<path style="fill-rule:evenodd;clip-rule:evenodd;fill:#86ABAE;" d="M67.75,54.45c-0.033-0.267,0.183-0.483,0.65-0.65
			c0.434-0.2,0.934-0.283,1.5-0.25c0.567,0,1.05,0.134,1.45,0.4c0.4,0.233,0.55,0.467,0.45,0.7c-0.167,0.466-0.867,0.666-2.1,0.6
			C68.467,55.184,67.817,54.917,67.75,54.45z"/>
	</g>
	<g>
		<path style="fill-rule:evenodd;clip-rule:evenodd;fill:#809DA1;" d="M33.5,47.1c-0.267,1.134-2.017,2.117-5.25,2.95
			c-1.467,0.367-2.783,0.467-3.95,0.3c-1.2-0.166-1.833-0.566-1.9-1.199c-0.066-0.634,0.383-1.301,1.35-2
			c0.967-0.733,2.25-1.301,3.85-1.7c1.566-0.4,3-0.4,4.3,0C33.167,45.85,33.7,46.4,33.5,47.1z"/>
	</g>
	<g>
		<path style="fill-rule:evenodd;clip-rule:evenodd;fill:#809DA1;" d="M42.6,38.6c-0.333,0.867-1.567,1.4-3.7,1.6
			c-1,0.1-1.883,0.05-2.65-0.15c-0.833-0.2-1.05-0.55-0.65-1.05c-0.367-0.333-0.167-0.717,0.6-1.15c0.767-0.4,1.667-0.65,2.7-0.75
			c1-0.133,1.917-0.017,2.75,0.35C42.45,37.783,42.767,38.167,42.6,38.6z"/>
	</g>
	<g>
		<path style="fill-rule:evenodd;clip-rule:evenodd;fill:#86ABAE;" d="M52.95,36.45c-0.3-0.6,0.117-1.333,1.25-2.2
			s2.5-1.45,4.1-1.75c1.6-0.367,3.05-0.35,4.35,0.05c1.233,0.367,1.783,0.9,1.65,1.6c-0.2,1.3-2.017,2.317-5.45,3.05
			C55.517,37.833,53.55,37.583,52.95,36.45z"/>
	</g>
	<g>
		<path style="fill-rule:evenodd;clip-rule:evenodd;fill:#86ABAE;" d="M101.2,21.45c-0.1,1-1.534,1.8-4.3,2.4
			c-2.1,0.433-3.6,0.417-4.5-0.05c-0.566-0.333-0.367-1,0.6-2c1-1,2.15-1.566,3.45-1.7c1.3-0.267,2.45-0.233,3.45,0.1
			C100.833,20.5,101.267,20.917,101.2,21.45z"/>
	</g>
	<g>
		<path style="fill-rule:evenodd;clip-rule:evenodd;fill:#86ABAE;" d="M76.75,26.2c-0.033-0.267,0.183-0.517,0.65-0.75
			c0.467-0.233,1-0.383,1.6-0.45c0.633-0.033,1.167,0.033,1.6,0.2c0.467,0.133,0.683,0.333,0.65,0.6
			c-0.067,0.567-0.817,0.934-2.25,1.1c-0.6,0.067-1.117,0.033-1.55-0.1C77.017,26.633,76.783,26.433,76.75,26.2z"/>
	</g>
	<g>
		<path style="fill-rule:evenodd;clip-rule:evenodd;fill:#97B3AB;" d="M53.15,27.45c-0.133-0.967,0.55-1.983,2.05-3.05
			c1.6-1.1,3.617-1.9,6.05-2.4c2.433-0.467,4.6-0.333,6.5,0.4c1.8,0.733,2.567,1.617,2.3,2.65C69.683,26.683,66.967,28,61.9,29
			c-2.233,0.433-4.183,0.533-5.85,0.3C54.25,29,53.283,28.383,53.15,27.45z"/>
	</g>
	<g>
		<path style="fill-rule:evenodd;clip-rule:evenodd;fill:#86ABAE;" d="M0.2,45.5c-0.5-0.634-0.05-1.467,1.35-2.5
			c1.5-1.067,3.184-1.55,5.05-1.45c3.566,0.233,5.583,1.034,6.05,2.4c0.267,0.767-0.35,1.483-1.85,2.149
			c-1.466,0.667-3.017,0.917-4.65,0.75c-2.167-0.133-3.433-0.233-3.8-0.3C1.283,46.384,0.567,46.033,0.2,45.5z"/>
	</g>
	<g>
		<path style="fill-rule:evenodd;clip-rule:evenodd;fill:#809DA1;" d="M23.95,38.85c0.133,0.4-0.184,0.85-0.95,1.35
			c-0.767,0.466-1.683,0.767-2.75,0.9c-1.067,0.1-1.967,0.017-2.7-0.25c-0.7-0.233-1.066-0.567-1.1-1c0-0.434,0.383-0.833,1.15-1.2
			c0.733-0.367,1.6-0.583,2.6-0.65C22.467,37.767,23.717,38.05,23.95,38.85z"/>
	</g>
	<g>
		<path style="fill-rule:evenodd;clip-rule:evenodd;fill:#86ABAE;" d="M135.6,6.95c-0.033,0.966-0.917,1.8-2.65,2.5
			c-1.6,0.667-3.55,1.05-5.85,1.15c-4.8,0.1-7.533-0.567-8.2-2c-0.467-0.934,0.2-1.983,2-3.15c1.9-1.233,4.033-1.867,6.4-1.9
			c2.4-0.1,4.417,0.2,6.05,0.9C134.917,5.15,135.667,5.983,135.6,6.95z"/>
	</g>
	<g>
		<path style="fill-rule:evenodd;clip-rule:evenodd;fill:#809DA1;" d="M151.3,17.85c0.134,0.566-0.233,1.167-1.1,1.8
			c-0.934,0.667-2.117,1.133-3.55,1.4c-1.4,0.3-2.667,0.184-3.8-0.35c-1.067-0.5-1.483-1.05-1.25-1.65c0.2-0.5,0.733-0.917,1.6-1.25
			c0.633-0.233,1.667-0.5,3.1-0.8c1.3-0.233,2.417-0.283,3.351-0.15C150.65,16.983,151.2,17.317,151.3,17.85z"/>
	</g>
	<g>
		<path style="fill-rule:evenodd;clip-rule:evenodd;fill:#86ABAE;" d="M162.15,10.85c-0.667,0.833-1.567,1.483-2.7,1.95
			c-1.101,0.434-2.084,0.65-2.95,0.65c-0.833-0.034-1.333-0.267-1.5-0.7c-0.134-0.433,0.134-0.967,0.8-1.6
			c0.7-0.633,1.566-1.15,2.601-1.55c2.3-0.9,3.716-1.067,4.25-0.5C162.983,9.433,162.816,10.017,162.15,10.85z"/>
	</g>
	<g>
		<path style="fill-rule:evenodd;clip-rule:evenodd;fill:#86ABAE;" d="M178.2,12.1c0.7,0.9,0.333,2.25-1.101,4.05
			c-1.6,2.033-3.916,3.5-6.949,4.4c-2.967,0.667-5.483,0.617-7.551-0.15c-1.866-0.667-2.767-1.583-2.699-2.75
			c0.033-1.8,2.983-3.417,8.85-4.85c3.366-0.867,5.267-1.333,5.7-1.4C176.384,11.1,177.634,11.333,178.2,12.1z"/>
	</g>
	<g>
		<path style="fill-rule:evenodd;clip-rule:evenodd;fill:#97B3AB;" d="M188.45,4.85c-0.033,0.6-0.55,1.133-1.55,1.6
			c-0.934,0.466-2.084,0.783-3.45,0.95c-3,0.467-4.717,0.233-5.15-0.7c-0.267-0.534,0.101-1.184,1.101-1.95
			c1.033-0.833,2.283-1.35,3.75-1.55c1.466-0.2,2.733-0.117,3.8,0.25C187.983,3.783,188.483,4.25,188.45,4.85z"/>
	</g>
	<g>
		<path style="fill-rule:evenodd;clip-rule:evenodd;fill:#86ABAE;" d="M209.5,3.6c-0.134,0.6-0.75,1-1.85,1.2
			c-1.134,0.2-2.417,0.133-3.851-0.2c-1.366-0.3-2.467-0.767-3.3-1.4c-0.866-0.633-1.233-1.25-1.1-1.85c0.133-0.6,0.75-1,1.85-1.2
			c1.134-0.233,2.417-0.183,3.85,0.15c1.367,0.333,2.483,0.817,3.351,1.45C209.283,2.383,209.634,3,209.5,3.6z"/>
	</g>
	<g>
		<path style="fill-rule:evenodd;clip-rule:evenodd;fill:#97B3AB;" d="M209,11.9c-0.2,0.6-0.884,0.983-2.05,1.15
			c-1.134,0.133-2.4,0-3.8-0.4c-3.167-0.867-4.684-1.933-4.551-3.2c0.067-0.633,0.7-1.1,1.9-1.4c1.233-0.3,2.583-0.25,4.05,0.15
			c1.467,0.433,2.634,1,3.5,1.7C208.884,10.633,209.2,11.3,209,11.9z"/>
	</g>
	<g>
		<path style="fill-rule:evenodd;clip-rule:evenodd;fill:#97B3AB;" d="M231.65,11.35c-0.267,1.1-1.4,1.85-3.4,2.25
			c-1.934,0.433-4.167,0.433-6.7,0c-2.566-0.467-4.616-1.167-6.149-2.1c-1.534-0.933-2.284-1.933-2.25-3
			c0.033-1.133,1.1-2,3.199-2.6c2.167-0.6,4.517-0.65,7.051-0.15c2.566,0.433,4.649,1.217,6.25,2.35
			C231.25,9.2,231.917,10.283,231.65,11.35z"/>
	</g>
	<g>
		<path style="fill-rule:evenodd;clip-rule:evenodd;fill:#86ABAE;" d="M271.95,27.2c-0.167,0.466-0.684,0.716-1.55,0.75
			c-0.9,0.033-1.884-0.15-2.95-0.55c-1.033-0.467-1.851-1.033-2.45-1.7c-0.566-0.633-0.733-1.167-0.5-1.6
			c0.267-0.434,0.833-0.65,1.7-0.65c0.866,0.033,1.767,0.267,2.7,0.7c1.033,0.367,1.85,0.85,2.449,1.45
			C271.917,26.2,272.116,26.733,271.95,27.2z"/>
	</g>
	<g>
		<path style="fill-rule:evenodd;clip-rule:evenodd;fill:#86ABAE;" d="M229.1,53.4c0.267,0.533-0.116,1.166-1.149,1.899
			c-1.101,0.834-2.4,1.316-3.9,1.45c-1.5,0.1-2.75-0.066-3.75-0.5s-1.467-0.95-1.399-1.55c0.033-0.566,0.566-1.066,1.6-1.5
			c0.967-0.4,2.134-0.65,3.5-0.75C226.967,52.15,228.667,52.467,229.1,53.4z"/>
	</g>
	<g>
		<path style="fill-rule:evenodd;clip-rule:evenodd;fill:#86ABAE;" d="M90.7,11.6c-0.167,0.5-0.65,0.983-1.45,1.45
			c-1.1,0.567-2.017,1.034-2.75,1.4c-1.333,0.633-2.483,1-3.45,1.1l-0.4,0.05c-0.1,0.2-0.417,0.217-0.95,0.05
			c-0.5-0.167-0.733-0.4-0.7-0.7c-0.2-0.3-0.133-0.684,0.2-1.15l0.3-0.4l0.25-0.1c0.267-0.033,0.5-0.033,0.7,0
			c0.433,0.1,0.65,0.3,0.65,0.6c0.033,0.2,0.017,0.483-0.05,0.85l-0.15,0.5v0.1c0.6-0.533,0.75-1.033,0.45-1.5
			c0.033-0.267-0.2-0.483-0.7-0.65c-0.5-0.2-0.783-0.2-0.85,0c-0.033-0.034,0.034-0.133,0.2-0.3c0.867-0.933,1.883-1.667,3.05-2.2
			c1.4-0.733,2.784-0.934,4.15-0.6C90.467,10.433,90.967,10.933,90.7,11.6z"/>
	</g>
	<g>
		<path style="fill-rule:evenodd;clip-rule:evenodd;fill:#86ABAE;" d="M165.25,80.25c-1.033,0.434-2.283,0.667-3.75,0.7
			c-1.5-0.033-2.767-0.384-3.8-1.05c-0.967-0.667-1.316-1.284-1.05-1.851c0.466-0.967,2.216-1.45,5.25-1.45
			c1.366,0,2.55,0.2,3.55,0.601c1,0.399,1.467,0.899,1.399,1.5C166.783,79.3,166.25,79.816,165.25,80.25z"/>
	</g>
	<g>
		<path style="fill-rule:evenodd;clip-rule:evenodd;fill:#86ABAE;" d="M135.1,80.75c-0.2-0.934,0.617-1.684,2.45-2.25
			c1.934-0.566,3.883-0.517,5.85,0.15c4.034,1.333,6.083,2.866,6.15,4.6c-0.033,0.934-0.95,1.566-2.75,1.9
			c-1.8,0.333-3.617,0.183-5.45-0.45c-2-0.634-3.467-1.217-4.4-1.75C135.85,82.316,135.233,81.583,135.1,80.75z"/>
	</g>
	<g>
		<path style="fill-rule:evenodd;clip-rule:evenodd;fill:#86ABAE;" d="M45.95,11.6c-0.267,1.2-1.917,2.167-4.95,2.9
			c-1.267,0.333-2.433,0.467-3.5,0.4c-0.5-0.033-0.783-0.167-0.85-0.4c-0.033-0.733-0.2-0.8-0.5-0.2
			c-0.667,0.767-0.917,0.5-0.75-0.8c0.233-0.567,0.633-1.067,1.2-1.5c1.033-0.867,2.3-1.467,3.8-1.8c1.434-0.367,2.767-0.4,4-0.1
			C45.6,10.433,46.117,10.933,45.95,11.6z"/>
	</g>
	<g>
		<path style="fill-rule:evenodd;clip-rule:evenodd;fill:#809DA1;" d="M208.7,40.35c0.3-0.333,0.6-0.55,0.899-0.65
			c1.101-0.4,2.317-0.8,3.65-1.2c3.267-0.867,5.066-0.8,5.4,0.2c0.233,0.566-0.084,1.267-0.95,2.1
			c-0.934,0.867-2.167,1.517-3.7,1.95c-0.6,0.267-1.4,0.366-2.4,0.3c-0.966-0.066-1.416-0.183-1.35-0.35
			c-0.026,0.053-0.052-0.039-0.075-0.275l-0.425,0.225h-0.5c-0.066,0.233-0.35,0-0.85-0.7c-0.101-0.567-0.084-0.983,0.05-1.25
			C208.616,40.533,208.7,40.417,208.7,40.35z"/>
	</g>
	<g>
		<path style="fill-rule:evenodd;clip-rule:evenodd;fill:#86ABAE;" d="M259.9,17.25c-0.5,0.867-1.667,1.233-3.5,1.1
			c-1.567-0.1-3.434-0.533-5.601-1.3c-2.6-0.966-4.2-1.617-4.8-1.95c-1.333-0.667-2.15-1.45-2.45-2.35
			c-0.434-1.1,0.483-2.05,2.75-2.85c2.4-0.867,4.816-0.833,7.25,0.1c2.434,0.9,4.267,2.133,5.5,3.7
			C260.217,15.167,260.5,16.35,259.9,17.25z"/>
	</g>
	<g>
		<path style="fill-rule:evenodd;clip-rule:evenodd;fill:#86ABAE;" d="M292.4,29.75c0.066,0.7-0.417,1.417-1.45,2.15
			c-1.101,0.8-2.483,1.417-4.15,1.85c-1.666,0.467-3.184,0.567-4.55,0.3c-1.333-0.267-2-0.767-2-1.5
			c0.033-0.7,0.583-1.383,1.65-2.05c1-0.667,2.333-1.233,4-1.7c1.666-0.466,3.149-0.6,4.449-0.4
			C291.65,28.567,292.333,29.017,292.4,29.75z"/>
	</g>
	<g>
		<path style="fill-rule:evenodd;clip-rule:evenodd;fill:#86ABAE;" d="M283.2,26.15c0.066,0.367-0.217,0.733-0.851,1.1
			c-0.666,0.4-1.449,0.617-2.35,0.65s-1.684-0.117-2.35-0.45c-0.601-0.3-0.867-0.633-0.801-1c0.167-0.767,1.233-1.184,3.2-1.25
			c0.867-0.067,1.584-0.017,2.15,0.15C282.833,25.517,283.167,25.783,283.2,26.15z"/>
	</g>
</g>
</svg>
