<?xml version="1.0" encoding="iso-8859-1"?>
<!-- Generator: Adobe Illustrator 15.1.0, SVG Export Plug-In . SVG Version: 6.00 Build 0)  -->
<!DOCTYPE svg PUBLIC "-//W3C//DTD SVG 1.1//EN" "http://www.w3.org/Graphics/SVG/1.1/DTD/svg11.dtd">
<svg version="1.1" id="Layer_1" xmlns="http://www.w3.org/2000/svg" xmlns:xlink="http://www.w3.org/1999/xlink" x="0px" y="0px"
	 width="144.75px" height="25.2px" viewBox="0 0 144.75 25.2" style="enable-background:new 0 0 144.75 25.2;" xml:space="preserve"
	>
<g>
	
		<linearGradient id="SVGID_1_" gradientUnits="userSpaceOnUse" x1="-20.6191" y1="103.0957" x2="-15.6281" y2="103.0957" gradientTransform="matrix(-0.2404 -2.9904 2.9903 -0.2404 -241.65 -21.3002)">
		<stop  offset="0" style="stop-color:#202326"/>
		<stop  offset="0.2" style="stop-color:#232629"/>
		<stop  offset="0.3686" style="stop-color:#2D3132"/>
		<stop  offset="0.5216" style="stop-color:#3E4241"/>
		<stop  offset="0.6706" style="stop-color:#565A56"/>
		<stop  offset="0.8118" style="stop-color:#747A72"/>
		<stop  offset="0.949" style="stop-color:#99A093"/>
		<stop  offset="0.9961" style="stop-color:#A7AEA0"/>
	</linearGradient>
	<path style="fill-rule:evenodd;clip-rule:evenodd;fill:url(#SVGID_1_);" d="M54.451,9.301L0,25.2
		C33.5,11.3,51.401,4.15,53.701,3.75c1.6-0.3,7.6,0.1,18,1.2c10.198,1,16.749,1.85,19.649,2.55c3.801,0.899,21.602,6.8,53.4,17.7
		L85.648,11.25L54.451,9.301z"/>
	<path style="fill-rule:evenodd;clip-rule:evenodd;fill:#C0C5BC;" d="M52.201,0l35.698,1.8l36.902,16.198L90.75,5.85
		c-7.699-0.8-12.051-1.399-13.049-1.799C77,3.75,73.4,3.45,66.899,3.15c-6-0.4-9.999-0.599-12-0.599
		c-1.298,0-5.897,1.6-13.799,4.799l-11.399,4.8L52.201,0z"/>
</g>
</svg>
