<?xml version="1.0" encoding="iso-8859-1"?>
<!-- Generator: Adobe Illustrator 15.1.0, SVG Export Plug-In . SVG Version: 6.00 Build 0)  -->
<!DOCTYPE svg PUBLIC "-//W3C//DTD SVG 1.1//EN" "http://www.w3.org/Graphics/SVG/1.1/DTD/svg11.dtd">
<svg version="1.1" xmlns="http://www.w3.org/2000/svg" xmlns:xlink="http://www.w3.org/1999/xlink" x="0px" y="0px" width="321.5px"
	 height="135.95px" viewBox="0 0 321.5 135.95" style="enable-background:new 0 0 321.5 135.95;" xml:space="preserve">
<g id="Layer_1">
</g>
<g id="Layer_1_1_">
	<g>
		<path style="fill-rule:evenodd;clip-rule:evenodd;fill:#1F2433;" d="M246,50.7c0.6,0.933,1.033,1.75,1.3,2.45l-0.05,0.05
			c0.366,1,0.634,2.15,0.8,3.45c0.066,0.7,0.15,2.15,0.25,4.35c0.134,2.367-0.316,4.7-1.35,7c-0.533,1.233-1.066,2.167-1.601,2.8
			c-0.399,0.533-1.75,0.834-4.05,0.9c-3.566,0.133-5.517,0.217-5.85,0.25l0.75-2.3l-0.8,2.3l-0.95,0.2
			c-1.233,0.267-2.483-0.334-3.75-1.801c-1.233-1.733-2.084-2.816-2.55-3.25v-0.05l-0.301-0.25c-0.533-0.267-1.116-0.9-1.75-1.9
			c-0.8-1.267-1.283-1.983-1.449-2.15c-0.4-0.433-0.667-1.033-0.801-1.8c-0.066-0.4-0.116-1.2-0.149-2.4
			c-0.033-0.767-0.316-1.633-0.851-2.6c-0.699-1.133-1.233-2.017-1.6-2.65c-0.233-0.367-0.417-0.816-0.55-1.35
			c-0.167-0.833,0.05-2.417,0.649-4.75c0.267-1.233,0.834-2.417,1.7-3.55l0.2-0.3c1.233-1.533,2.8-2.75,4.7-3.65
			c1.666-0.8,2.983-1.117,3.95-0.95l0.35,0.05c1.7,0.467,4.233,2,7.6,4.6l1.101,0.9C242.35,45.633,244.033,47.767,246,50.7z"/>
		<path style="fill-rule:evenodd;clip-rule:evenodd;fill:#1F2433;" d="M285.9,39.4c2.433,5.9,2.267,9.05-0.5,9.45
			c-5.267,1.167-9.517,1.883-12.75,2.15c-5.967,0.467-10.117-0.583-12.45-3.15c-2.4-2.633-3.733-5.684-4-9.15
			c-0.134-1.8,0.133-4.717,0.8-8.75c0.467-3.067,2.884-5.017,7.25-5.85c4.733-0.934,9.384,0.333,13.95,3.8
			C281,30,283.566,33.833,285.9,39.4z"/>
		<path style="fill-rule:evenodd;clip-rule:evenodd;fill:#1F2433;" d="M275.9,98.2c-1.034-2.4-0.584-5.3,1.35-8.7
			c1.866-3.267,4.217-5.517,7.05-6.75c4.4-1.9,8.017-2.967,10.851-3.2c5.1-0.467,9.566,1.017,13.399,4.45
			c4.867,4.366,8.316,10.517,10.351,18.45c2.233,8.6,1.383,15.066-2.551,19.399c-5.6,6.2-13.716,4.684-24.35-4.55
			c-3.667-3.166-7.233-6.934-10.7-11.3C278.4,102.4,276.6,99.8,275.9,98.2z"/>
		<path style="fill-rule:evenodd;clip-rule:evenodd;fill:#1F2433;" d="M275.9,68c1.466,0.267,2.616,2.2,3.449,5.8
			c0.867,3.8,0.567,6.733-0.899,8.8c-1.434,2.067-2.851,2.767-4.25,2.101c-1.066-0.533-2.316-2.05-3.75-4.55
			c-1.3-2.233-1.283-4.9,0.05-8C271.833,69.017,273.634,67.633,275.9,68z"/>
		<path style="fill-rule:evenodd;clip-rule:evenodd;fill:#1F2433;" d="M110.95,19.5c0.9,2.4-1.483,6.033-7.15,10.9
			c-5.933,5.1-11.45,7.633-16.55,7.6c-5-0.033-7.533-1.4-7.6-4.1c-0.033-2.066,1.533-5.433,4.7-10.1c2.767-4.133,7.517-6.8,14.25-8
			C105.4,14.6,109.517,15.833,110.95,19.5z"/>
		<path style="fill-rule:evenodd;clip-rule:evenodd;fill:#1F2433;" d="M209.8,68.65c-0.833-0.7-0.967-2.417-0.399-5.15
			c0.566-2.833,1.483-4.167,2.75-4c1.133,0.133,1.85,0.817,2.149,2.05c0.2,0.733,0.417,1.967,0.65,3.7
			c0.333,1.167-0.233,2.2-1.7,3.1C211.783,69.217,210.634,69.316,209.8,68.65z"/>
		<path style="fill-rule:evenodd;clip-rule:evenodd;fill:#1F2433;" d="M211.5,1.45c5.1-0.567,7.55-0.167,7.35,1.2
			c-0.199,1.2-1.449,2.217-3.75,3.05c-2.966,0.9-5.183,1.633-6.649,2.2c-2.134,0.833-4.033,0.667-5.7-0.5
			c-1.6-1.133-1.8-2.267-0.6-3.4C203.35,2.867,206.467,2.017,211.5,1.45z"/>
		<path style="fill-rule:evenodd;clip-rule:evenodd;fill:#1F2433;" d="M115.35,23.85c-0.833-0.667-0.967-2.383-0.4-5.15
			c0.6-2.8,1.517-4.133,2.75-4c1.133,0.133,1.85,0.833,2.15,2.1c0.2,0.733,0.417,1.967,0.65,3.7c0.333,1.167-0.233,2.2-1.7,3.1
			C117.333,24.433,116.183,24.517,115.35,23.85z"/>
		<path style="fill-rule:evenodd;clip-rule:evenodd;fill:#1F2433;" d="M175,47.45c-0.033-1.7,2.05-2.534,6.25-2.5
			c4.167,0.066,6.634,0.883,7.4,2.45c1.233,2.633-0.884,4.633-6.351,6c-3.333,0.767-5.566-0.133-6.7-2.7
			C175.2,49.733,175,48.65,175,47.45z"/>
		<path style="fill-rule:evenodd;clip-rule:evenodd;fill:#1F2433;" d="M224.65,69.75c1.866,2.033,2.916,3.134,3.149,3.3
			c0.867,0.566,2.816,1.434,5.851,2.601c2.166,0.833,3.25,1.616,3.25,2.35c0,0.967-0.834,2.417-2.5,4.35
			c-1.634,1.867-3.167,3.167-4.601,3.9c-1.934,1-6.05,1.25-12.35,0.75c-1.967-0.167-3.717-1.217-5.25-3.15
			c-1.601-2.033-2.566-4.533-2.9-7.5c-0.267-2.433,0.117-3.866,1.15-4.3c0.6-0.267,1.6-0.633,3-1.1c0.7-0.634,1.616-1.033,2.75-1.2
			c2.1-0.233,3.616-0.483,4.55-0.75C222.483,68.566,223.783,68.816,224.65,69.75z"/>
		<path style="fill-rule:evenodd;clip-rule:evenodd;fill:#1F2433;" d="M185.65,98.35c2.433-1.166,6.199-3.066,11.3-5.699
			c4.233-1.934,7.2-2.617,8.899-2.051c0.834,0.301,1.717,1.301,2.65,3c1.033,1.801,1.767,3.801,2.2,6c1.2,5.834,0.033,10.167-3.5,13
			c-3.367,2.7-7.033,3.617-11,2.75c-4.967-1.767-9.084-3.066-12.351-3.899c-4.566-1.134-6.399-3.184-5.5-6.15
			C179.15,102.6,181.583,100.283,185.65,98.35z"/>
		<path style="fill-rule:evenodd;clip-rule:evenodd;fill:#1F2433;" d="M200.15,56.9c3.899,1.1,6.166,3.317,6.8,6.65
			c0.533,2.9-0.167,6.367-2.101,10.4c-1.699,3.633-4.033,7.017-7,10.149c-2.899,3.134-5.566,5.117-8,5.95
			c-0.733,0.267-2.25,0.667-4.55,1.2c-1.866,0.434-3.35,0.917-4.45,1.45l-1.05,0.55c-1.5,0.833-2.45,1.316-2.85,1.45
			c-1.066,0.399-2.15,0.467-3.25,0.2c-3.4-0.767-6.667-2.601-9.8-5.5c-3.733-3.5-5.05-6.967-3.95-10.4c1.767-5.4,3-8.767,3.7-10.1
			c1.566-3,3.966-5.55,7.199-7.65c3.967-2.567,8.733-4.25,14.301-5.05C190.65,55.4,195.65,55.633,200.15,56.9z"/>
		<path style="fill-rule:evenodd;clip-rule:evenodd;fill:#1F2433;" d="M27.25,111.35c2.8,2.801,4.417,5.45,4.85,7.95
			c0.367,2.066-0.65,3.351-3.05,3.851c-3.3,0.666-5.283,1.35-5.95,2.05c-1.267,1.333-3.45,0.983-6.55-1.05
			c-2.2-1.434-4.1-3.051-5.7-4.851c-2.434-2.833-2.017-5.899,1.25-9.2c1.267-1.3,2.7-2.3,4.3-3c1.6-0.699,2.883-0.899,3.85-0.6
			C22.383,107.2,24.717,108.816,27.25,111.35z"/>
		<path style="fill-rule:evenodd;clip-rule:evenodd;fill:#1F2433;" d="M2.15,113.05c1.767-1.7,3.4-2.583,4.9-2.649
			c1.267-0.067,1.717,0.6,1.35,2c-0.167,0.767-0.533,1.916-1.1,3.449c-0.167,1.034-1.233,1.817-3.2,2.351
			c-2.033,0.533-3.367,0.1-4-1.3C-0.267,116,0.417,114.717,2.15,113.05z"/>
		<path style="fill-rule:evenodd;clip-rule:evenodd;fill:#1F2433;" d="M22.05,88c1.434-7.434,3.3-12.5,5.6-15.2
			c1.934-2.233,4.4-3.95,7.4-5.15c3.333-1.333,6.95-1.833,10.85-1.5c4.333,0.333,7.6,1.017,9.8,2.05
			c2.466,1.133,4.333,2.967,5.6,5.5c1.5,3,2.7,6.7,3.6,11.1c1,5.033,1.184,9.233,0.55,12.601c-0.567,2.899-2.633,5.149-6.2,6.75
			c-2.067,0.8-3.617,1.416-4.65,1.85c-1.9,0.733-3.383,1.5-4.45,2.3c-1.967,1.434-4.133,2.2-6.5,2.3
			c-2.733,0.134-4.75,0.534-6.05,1.2c-1.967,1-4.467,0.351-7.5-1.95c-3.133-2.933-5.2-4.833-6.2-5.699
			C21.033,101.684,20.417,96.3,22.05,88z"/>
		<path style="fill-rule:evenodd;clip-rule:evenodd;fill:#1F2433;" d="M44.9,117.55c0.5-0.133,3.467-1.066,8.9-2.8
			c4.667-1.5,8.133-2.45,10.4-2.85c2.466-0.434,3.483,0.916,3.05,4.05c-0.233,1.8-0.95,4.767-2.15,8.899
			c-0.467,2.4-2.1,3.817-4.9,4.25c-0.567,0.067-3.55,0.084-8.95,0.051c-3.8,0-6.583-0.233-8.35-0.7c-2.367-0.667-3.883-1.9-4.55-3.7
			c-0.367-1.1,0.167-2.45,1.6-4.05C41.417,119.033,43.067,117.983,44.9,117.55z"/>
		<path style="fill-rule:evenodd;clip-rule:evenodd;fill:#1F2433;" d="M242.65,34c-0.867,1.267-2.733,1.783-5.601,1.55
			c-2.934-0.267-5.35-1.2-7.25-2.8c-0.666-0.567-3.95-2.967-9.85-7.2c-5.233-3.8-8.917-6.733-11.05-8.8
			c-2.334-2.233-1.634-4.383,2.1-6.45c2.134-1.167,5.917-2.767,11.35-4.8c2.934-1.333,5.717-0.7,8.351,1.9
			c0.533,0.533,2.85,3.684,6.95,9.45c2.866,4.066,4.716,7.2,5.55,9.4C244.3,29.283,244.116,31.867,242.65,34z"/>
		<path style="fill-rule:evenodd;clip-rule:evenodd;fill:#1F2433;" d="M42.75,44.05c2.533-5.367,6.417-8.883,11.65-10.55
			c4.133-1.3,6.717-0.383,7.75,2.75c0.533,1.633,0.65,4.933,0.35,9.9c-0.133,2.267-0.483,4.833-1.05,7.7
			c-0.567,3-0.917,5.417-1.05,7.25c-0.167,2.333-0.816,3.3-1.95,2.9c-1.733-1.067-3.233-1.7-4.5-1.9
			c-2.6-0.067-4.483-0.117-5.65-0.15c-2-0.1-3.35-0.617-4.05-1.55C40.517,55.333,40.017,49.883,42.75,44.05z"/>
		<path style="fill-rule:evenodd;clip-rule:evenodd;fill:#1F2433;" d="M33.45,63.5c-0.8-0.767-0.767-2.483,0.1-5.15
			c0.867-2.733,1.95-3.967,3.25-3.7c1.167,0.233,1.85,0.983,2.05,2.25c0.133,0.767,0.233,2.017,0.3,3.75
			c0.233,1.233-0.467,2.217-2.1,2.95C35.45,64.3,34.25,64.267,33.45,63.5z"/>
		<path style="fill-rule:evenodd;clip-rule:evenodd;fill:#1F2433;" d="M82.45,95c2.733-4.733,5.816-7.35,9.25-7.85
			c3.9-0.601,7.933-0.184,12.1,1.25c4.6,1.566,7.767,3.933,9.5,7.1c1.5,2.667,1.133,5.417-1.1,8.25c-1.434,1.6-2.517,2.8-3.25,3.6
			c-1.333,1.534-2.284,2.884-2.85,4.051c-1.267,2.699-2.517,4.616-3.75,5.75c-0.833,0.733-1.983,1.35-3.45,1.85
			c-0.933,0.333-2.617,0.366-5.05,0.1c-5.033-0.6-7.583-0.899-7.65-0.899c-2.567-0.2-4.2-1.217-4.9-3.05
			c-0.633-3.134-1.233-6-1.8-8.601C78.8,103.35,79.783,99.5,82.45,95z"/>
		<path style="fill-rule:evenodd;clip-rule:evenodd;fill:#1F2433;" d="M63.45,68.15c-0.4-1.234-0.317-2.767,0.25-4.601
			c0.6-1.833,1.316-2.867,2.15-3.1c1.3-0.333,4.8,1.066,10.5,4.2c1.733,0.967,1.717,2.583-0.05,4.85
			c-0.966,1.267-2.517,2.983-4.65,5.15c-0.967,1.333-2.35,1.3-4.15-0.101C65.733,73.15,64.383,71.017,63.45,68.15z"/>
		<path style="fill-rule:evenodd;clip-rule:evenodd;fill:#1F2433;" d="M77,131.1c0.067-1.933,0.983-3.583,2.75-4.949
			c1.7-1.334,3.433-1.867,5.2-1.601c2.033,0.367,3.533,0.767,4.5,1.2c1.367,0.667,2.55,1.717,3.55,3.15
			c0.9,1.267,0.4,2.25-1.5,2.949c-2.733,0.733-4.783,1.434-6.15,2.101c-2.133,1.1-4.05,1.434-5.75,1
			C77.767,134.45,76.9,133.167,77,131.1z"/>
		<path style="fill-rule:evenodd;clip-rule:evenodd;fill:#1F2433;" d="M141.35,6.6c0.1-1.934,1.017-3.6,2.75-5
			c1.7-1.3,3.433-1.817,5.2-1.55c2.034,0.333,3.534,0.733,4.5,1.2c1.4,0.633,2.583,1.667,3.55,3.1c0.9,1.267,0.4,2.267-1.5,3
			c-2.733,0.733-4.783,1.433-6.15,2.1c-2.133,1.066-4.05,1.383-5.75,0.95C142.15,9.933,141.283,8.667,141.35,6.6z"/>
		<path style="fill-rule:evenodd;clip-rule:evenodd;fill:#1F2433;" d="M103.45,128.95c-0.434-0.3-0.6-1.417-0.5-3.351l0.25-2.8
			l2.7,0.05c2,0.134,3.517,0.483,4.55,1.051c0.966,0.5,1.1,1.25,0.4,2.25c-1.2,1.666-1.833,2.633-1.9,2.899
			c-0.267,0.967-1.05,1.351-2.35,1.15C105.567,130.033,104.517,129.616,103.45,128.95z"/>
		<path style="fill-rule:evenodd;clip-rule:evenodd;fill:#1F2433;" d="M16.1,98.55c0.767-1.166,1.65-1.983,2.65-2.45
			c0.767-0.366,1.133-0.05,1.1,0.95c0,0.767-0.2,1.767-0.6,3s-0.9,2.134-1.5,2.7c-0.8,0.733-1.517,0.5-2.15-0.7
			C15.067,101.083,15.233,99.917,16.1,98.55z"/>
		<path style="fill-rule:evenodd;clip-rule:evenodd;fill:#1F2433;" d="M108.6,73.55c-2.567,0.7-4.517,0.5-5.85-0.6
			c-2.933-2.434-4.6-3.75-5-3.95c-1.333-0.667-4.3-1.6-8.9-2.8c-3.3-0.833-4.983-1.717-5.05-2.65c-0.033-1.233,1.15-3.133,3.55-5.7
			c2.333-2.5,4.533-4.267,6.6-5.3c2.867-1.4,9.017-2.066,18.45-2c2.967,0.067,5.667,1.267,8.1,3.6c2.533,2.434,4.133,5.5,4.8,9.2
			c0.534,3.033,0.05,4.883-1.45,5.55c-2.067,0.3-3.533,0.833-4.4,1.6c-1.034,0.9-2.367,1.483-4,1.75
			C112.15,72.783,109.867,73.217,108.6,73.55z"/>
		<path style="fill-rule:evenodd;clip-rule:evenodd;fill:#1F2433;" d="M102.8,47.8c-1-0.9-1.267-3-0.8-6.3
			c0.5-3.6,1.95-5.783,4.35-6.55c2.267-0.7,4.35-0.333,6.25,1.1c1.167,0.9,3.05,2.633,5.65,5.2c2.167,1.733,2.733,3.35,1.7,4.85
			c-0.967,1.367-2.684,2.1-5.15,2.2c-3.167,0.267-5.5,0.434-7,0.5C105.233,48.867,103.567,48.533,102.8,47.8z"/>
		<path style="fill-rule:evenodd;clip-rule:evenodd;fill:#1F2433;" d="M69.15,34.2c-0.066-1.633,0.817-2.667,2.65-3.1
			c1.867-0.467,2.917,0.117,3.15,1.75c0.233,1.733-0.65,2.95-2.65,3.65S69.25,36.433,69.15,34.2z"/>
		<path style="fill-rule:evenodd;clip-rule:evenodd;fill:#1F2433;" d="M108.9,112.4c0.267-0.733,0.6-1.5,1-2.301
			c0.767-1.533,1.5-2.399,2.2-2.6c0.767-0.2,1.15,0.217,1.15,1.25c0,0.566-0.183,1.833-0.55,3.8c-0.233,1.334-0.883,1.851-1.95,1.55
			C109.75,113.833,109.133,113.267,108.9,112.4z"/>
		<path style="fill-rule:evenodd;clip-rule:evenodd;fill:#1F2433;" d="M122.85,94.5c1.2-0.8,3.467-1.583,6.8-2.35
			c3.967-0.934,6.833-0.983,8.6-0.15c2.867,1.366,3.883,7.233,3.05,17.6c-0.2,3.034-1.367,5.733-3.5,8.101
			c-2.267,2.566-4.667,3.416-7.2,2.55c-1.333-0.467-3.35-1.55-6.05-3.25c-1.9-1.167-3.583-1.65-5.05-1.45
			c-1.6,0.233-2.317-0.833-2.15-3.2c0.433-3.033,0.566-5.183,0.4-6.449c-0.233-1.767,0.267-3.934,1.5-6.5
			C120.417,97,121.617,95.366,122.85,94.5z"/>
		<path style="fill-rule:evenodd;clip-rule:evenodd;fill:#1F2433;" d="M162.95,99.5c1.133,0.4,2.434,0.783,3.899,1.15
			c0.733,0.533,0.5,1.949-0.699,4.25c-1.101,2.1-2.834,3.716-5.2,4.85c-3.767,1.733-5.867,2.75-6.3,3.05
			c-1.8,1.3-3.533,1.55-5.2,0.75c-0.934-0.467-1.983-1.399-3.15-2.8c-0.7-0.833-0.816-2.634-0.35-5.4
			c0.5-2.767,1.233-4.483,2.2-5.149c1.133-0.733,3.467-1.184,7-1.351C158.683,98.65,161.283,98.866,162.95,99.5z"/>
		<path style="fill-rule:evenodd;clip-rule:evenodd;fill:#1F2433;" d="M144.25,93.45c1.633-0.8,3.017-1.134,4.15-1
			c1.167,0.133,1.767,0.717,1.8,1.75c0.033,0.934-0.483,1.85-1.55,2.75c-0.767,0.633-1.933,1.316-3.5,2.05
			c-1.2,0.533-1.867-0.15-2-2.05C143.05,95.05,143.417,93.884,144.25,93.45z"/>
		<path style="fill-rule:evenodd;clip-rule:evenodd;fill:#1F2433;" d="M143.55,115.4c0.6-0.5,2.434,0,5.5,1.5
			c2.967,1.433,4.833,2.616,5.6,3.55c0.767,0.899,1.017,1.983,0.75,3.25c-0.267,1.399-1.083,2.55-2.45,3.45
			c-1.4,0.933-2.983,1.449-4.75,1.55c-1.767,0.066-3.25-0.3-4.45-1.101c-1.233-0.833-2.283-1.783-3.15-2.85
			c-0.934-1.134-1.5-2.2-1.7-3.2c-0.2-0.866,0.367-2,1.7-3.399C140.633,118.083,141.617,117.167,143.55,115.4z"/>
		<path style="fill-rule:evenodd;clip-rule:evenodd;fill:#1F2433;" d="M204.7,14.15c0.767,0.9,1.017,1.983,0.75,3.25
			c-0.233,1.4-1.033,2.55-2.4,3.45c-1.467,0.933-3.066,1.433-4.8,1.5c-1.767,0.1-3.233-0.25-4.4-1.05
			c-1.267-0.867-2.333-1.816-3.199-2.85c-0.9-1.133-1.467-2.2-1.7-3.2c-0.167-0.867,0.399-2.017,1.7-3.45
			c0.566-0.566,1.566-1.466,3-2.7c0.6-0.5,2.433,0,5.5,1.5C202.116,12.033,203.967,13.217,204.7,14.15z"/>
		<path style="fill-rule:evenodd;clip-rule:evenodd;fill:#1F2433;" d="M162.7,115.4c1.1,0.633,1.116,1.366,0.05,2.199
			c-0.866,0.967-1.616,1.684-2.25,2.15c-1.133,0.866-2,0.816-2.6-0.15c-0.667-1.133-0.85-2.149-0.55-3.05
			c0.233-0.8,0.783-1.316,1.65-1.55C160.4,114.634,161.634,114.767,162.7,115.4z"/>
		<path style="fill-rule:evenodd;clip-rule:evenodd;fill:#1F2433;" d="M291.4,121.25c0.433-0.434,1.333-0.267,2.699,0.5
			c1.367,0.8,2.233,1.684,2.601,2.65c0.333,0.833,0.066,1.283-0.8,1.35c-1.134-0.066-1.9-0.066-2.301,0
			c-0.633,0.134-1.316-0.384-2.05-1.55C290.75,122.934,290.7,121.95,291.4,121.25z"/>
		<path style="fill-rule:evenodd;clip-rule:evenodd;fill:#1F2433;" d="M249,33.55c0.233-0.4,1.15-0.566,2.75-0.5
			c0.8,0.034,1.566,0.117,2.3,0.25c0.134,2.934-0.166,5.15-0.899,6.65c-0.434,0.867-1.051,0.983-1.851,0.35
			c-1.333-1.066-2.133-1.633-2.399-1.7c-0.801-0.233-1.117-0.967-0.95-2.2C248.083,35.467,248.434,34.517,249,33.55z"/>
		<path style="fill-rule:evenodd;clip-rule:evenodd;fill:#1F2433;" d="M244.85,121.45c0.301-0.467,1.483-0.667,3.551-0.601
			c1.066,0.034,2.083,0.117,3.05,0.25c0.166,3.301-0.233,5.801-1.2,7.5c-0.566,1-1.384,1.15-2.45,0.45
			c-1.767-1.233-2.8-1.883-3.1-1.95c-1.066-0.267-1.483-1.083-1.25-2.449C243.65,123.583,244.116,122.517,244.85,121.45z"/>
		<path style="fill-rule:evenodd;clip-rule:evenodd;fill:#1F2433;" d="M289.85,40.75c0.667,1.433,0.717,2.583,0.15,3.45
			c-0.467,0.733-0.8,0.483-1-0.75C288.8,42.283,289.083,41.383,289.85,40.75z"/>
		<path style="fill-rule:evenodd;clip-rule:evenodd;fill:#1F2433;" d="M317.85,83.7c-0.566,0.866-1.816,0.783-3.75-0.25
			c-0.1-0.066-1.566-1.033-4.399-2.9c-1.467-0.967-2.8-2.1-4-3.399c-1.434-1.567-1.667-2.434-0.7-2.601
			c4.233-0.666,7.667-0.983,10.3-0.95c1.467,0.034,2.684,0.934,3.65,2.7c0.399,0.7,0.967,2.15,1.7,4.351
			c0.267,0.833,0.066,1.366-0.601,1.6C318.95,82.65,318.217,83.134,317.85,83.7z"/>
		<path style="fill-rule:evenodd;clip-rule:evenodd;fill:#1F2433;" d="M286,115.3c1.233,0.767,2.083,1.634,2.55,2.601
			c0.167,0.399,0.134,1.05-0.1,1.949c-0.233,0.834-0.55,1.517-0.95,2.051c-0.6,0.767-1.1,1.3-1.5,1.6c-0.733,0.566-1.4,0.65-2,0.25
			c-0.733-0.5-1.283-1.483-1.65-2.95c-0.399-1.633-0.35-3.083,0.15-4.35C283.233,114.65,284.4,114.267,286,115.3z"/>
		<path style="fill-rule:evenodd;clip-rule:evenodd;fill:#1F2433;" d="M206.95,27.85c1.133,0.8,2.05,2.217,2.75,4.25
			c0.633,1.867,0.916,3.7,0.85,5.5c-0.2,3.4-1.133,5.8-2.8,7.2c-0.566,0.534-1.3,0.25-2.2-0.85c-1.1-1.367-1.934-2.083-2.5-2.15
			c-0.833-0.066-1.517-0.35-2.05-0.85c-0.566-0.667-1.066-1.217-1.5-1.65c-1.2-0.966-2.15-1.816-2.85-2.55
			c-1.267-1.367-2-2.817-2.2-4.35c-0.167-1.3-0.084-2.333,0.25-3.1c0.366-0.867,1.166-1.7,2.399-2.5
			c0.534-0.333,1.967-0.433,4.301-0.3C204,26.633,205.85,27.083,206.95,27.85z"/>
		<path style="fill-rule:evenodd;clip-rule:evenodd;fill:#1F2433;" d="M252.55,45.85c0.233-0.833,0.884-0.8,1.95,0.1
			c0.366,0.3,0.65,0.716,0.85,1.25c0.034,0.133,0.301,1.1,0.801,2.9c0.399,1.4,0.433,2.283,0.1,2.65c-0.333,0.333-0.866,0.1-1.6-0.7
			C252.65,49.917,251.95,47.85,252.55,45.85z"/>
		<path style="fill-rule:evenodd;clip-rule:evenodd;fill:#1F2433;" d="M317.5,88.85c0.3-0.899,0.967-0.866,2,0.101
			c0.333,0.3,0.6,0.717,0.8,1.25c0,0.033,0.283,0.983,0.851,2.85c0.399,1.4,0.433,2.283,0.1,2.65c-0.333,0.333-0.866,0.1-1.6-0.7
			c-0.834-0.866-1.45-1.783-1.851-2.75C317.267,91.05,317.167,89.917,317.5,88.85z"/>
		<path style="fill-rule:evenodd;clip-rule:evenodd;fill:#1F2433;" d="M204.2,45.2c0.366,0.3,0.649,0.716,0.85,1.25
			c0.033,0.133,0.3,1.1,0.8,2.9c0.4,1.4,0.434,2.267,0.101,2.6c-0.334,0.333-0.867,0.117-1.601-0.65c-2-2.133-2.699-4.2-2.1-6.2
			C202.483,44.233,203.134,44.267,204.2,45.2z"/>
		<path style="fill-rule:evenodd;clip-rule:evenodd;fill:#1F2433;" d="M249.9,83.4c0.399-0.667,1.883-1.617,4.449-2.851
			c2.834-1.333,5-1.899,6.5-1.7c1.601,0.2,3.233,1.233,4.9,3.101c1.566,1.7,2.717,3.566,3.45,5.6c1.399,3.767,1.55,6.95,0.45,9.55
			c-0.367,0.934-1.284,1.051-2.75,0.351c-1.834-0.867-3.067-1.167-3.7-0.9c-0.934,0.367-1.783,0.434-2.55,0.2
			c-0.934-0.4-1.733-0.717-2.4-0.95c-1.7-0.333-3.1-0.717-4.2-1.149c-1.967-0.767-3.416-1.95-4.35-3.551
			c-0.767-1.333-1.15-2.5-1.15-3.5C248.55,86.434,249,85.033,249.9,83.4z"/>
		<path style="fill-rule:evenodd;clip-rule:evenodd;fill:#1F2433;" d="M275.85,115.15c1.467,2.399,2.767,5.1,3.9,8.1
			c1.533,4.1,1.967,7,1.3,8.7c-0.866,2.333-3.083,3.633-6.649,3.899c-3.034,0.267-5.733-0.149-8.101-1.25
			c-2.033-0.966-4.467-3.083-7.3-6.35c-2.3-2.667-4.15-5.316-5.55-7.95c-1.566-2.967-2.233-5.383-2-7.25
			c0.666-5.566,4.416-7.566,11.25-6c2.7,0.601,5.316,1.684,7.85,3.25C273.05,111.866,274.816,113.483,275.85,115.15z"/>
		<path style="fill-rule:evenodd;clip-rule:evenodd;fill:#1F2433;" d="M209.15,46.8c0.466-0.767,1.183-0.6,2.149,0.5
			c0.967,1.067,0.934,2.117-0.1,3.15c-1.101,1.1-1.867,1.017-2.3-0.25C208.434,49,208.517,47.867,209.15,46.8z"/>
		<path style="fill-rule:evenodd;clip-rule:evenodd;fill:#1F2433;" d="M173.25,27.25c-0.6,1.033-1.417,1.7-2.45,2
			c-1.066,0.267-2.017,0.033-2.85-0.7c-1.233-1.066-1.05-3.45,0.55-7.15c0.6-1.5,2.184-1.767,4.75-0.8
			c0.767,0.3,1.15,1.183,1.15,2.65C174.366,24.717,173.983,26.05,173.25,27.25z"/>
		<g>
			<path style="fill-rule:evenodd;clip-rule:evenodd;fill:#1F2433;" d="M148.35,28.65c1.833,0.133,4.217,1.833,7.15,5.1
				c2.8,3.167,4.233,5.533,4.3,7.1c0.034,1.733-0.716,3.8-2.25,6.2c-1.767,2.767-3.833,4.6-6.2,5.5c-2.633,1-6.917,1.417-12.85,1.25
				c-6.033-0.167-10.35-0.85-12.95-2.05c-2.033-0.933-2.316-2.8-0.85-5.6c2.566-4.8,4-8,4.3-9.6c0.7-3.466,3.283-5.816,7.75-7.05
				C139.917,28.633,143.783,28.35,148.35,28.65z"/>
			<path style="fill-rule:evenodd;clip-rule:evenodd;fill:#1F2433;" d="M145.2,56.4c2.5,0.1,4.283,2.1,5.35,6
				c1.067,3.833,0.784,6.45-0.85,7.85c-2.7,2.333-7.8,2.967-15.3,1.9c-2.7-0.367-3.917-1.5-3.65-3.4c0.833-2.467,1.167-4.383,1-5.75
				c-0.2-1.967,1.15-3.617,4.05-4.95C138.6,56.783,141.733,56.233,145.2,56.4z"/>
			<path style="fill-rule:evenodd;clip-rule:evenodd;fill:#1F2433;" d="M162.5,50.75c1.333,0.567,1.517,2.5,0.55,5.8
				c-1,3.434-2.717,5.967-5.15,7.6c-2.066,1.4-3.15,1.45-3.25,0.15c0.167-1.9,0.067-3.15-0.3-3.75c-0.667-1.1,0.017-3.183,2.05-6.25
				C158.5,51.133,160.533,49.95,162.5,50.75z"/>
		</g>
		<path style="fill-rule:evenodd;clip-rule:evenodd;fill:#1F2433;" d="M206.15,122.4c0.899,0.699,0.833,1.433-0.2,2.199
			c-1.533,0.9-2.617,1.617-3.25,2.15c-0.967,0.866-1.967,1.066-3,0.6c-1.066-0.433-1.5-1.316-1.3-2.649
			c0.166-1.134,1.233-2.017,3.199-2.65C203.566,121.45,205.083,121.566,206.15,122.4z"/>
		<path style="fill-rule:evenodd;clip-rule:evenodd;fill:#1F2433;" d="M211.6,127.85c0.5-1.699,1.467-3.25,2.9-4.649
			c1.467-1.4,2.816-2.017,4.05-1.851c1.101,0.167,2,0.684,2.7,1.551l2.1,3.6c1.5,2.533,0.65,4.434-2.55,5.7
			c-1.666,0.633-4.316,1.467-7.95,2.5c-1.866,0.533-2.75,0.017-2.649-1.55C210.233,132.95,210.7,131.184,211.6,127.85z"/>
		<path style="fill-rule:evenodd;clip-rule:evenodd;fill:#1F2433;" d="M225,115.45c0.967-2,3.217-2.867,6.75-2.601
			c3.467,0.267,5.983,1.4,7.55,3.4c1.4,1.733,1.867,3.25,1.4,4.55c-0.3,0.834-1.167,1.783-2.601,2.851
			c-1.399,1.1-2.55,1.949-3.449,2.55c-1.567,1.033-3.45,1.916-5.65,2.649c-2.066,0.7-3.033,0.534-2.9-0.5
			c0.301-2.366,0.45-3.566,0.45-3.6c-0.767-1.8-1.316-3.233-1.649-4.3C224.3,118.517,224.333,116.85,225,115.45z"/>
	</g>
</g>
</svg>
