<?xml version="1.0" encoding="iso-8859-1"?>
<!-- Generator: Adobe Illustrator 15.1.0, SVG Export Plug-In . SVG Version: 6.00 Build 0)  -->
<!DOCTYPE svg PUBLIC "-//W3C//DTD SVG 1.1//EN" "http://www.w3.org/Graphics/SVG/1.1/DTD/svg11.dtd">
<svg version="1.1" id="Layer_1" xmlns="http://www.w3.org/2000/svg" xmlns:xlink="http://www.w3.org/1999/xlink" x="0px" y="0px"
	 width="24.55px" height="25.75px" viewBox="0 0 24.55 25.75" style="enable-background:new 0 0 24.55 25.75;" xml:space="preserve"
	>
<g>
	<path style="fill-rule:evenodd;clip-rule:evenodd;fill:#1F2433;" d="M22.5,7.7c-0.033,1-0.55,2.183-1.55,3.55
		c-1.167,1.533-2.5,2.533-4,3c-1.667,0.5-4.334,0.634-8,0.4C5.217,14.384,2.567,13.85,1,13.05c-1.233-0.6-1.35-1.7-0.35-3.3
		c1.7-2.733,2.667-4.567,2.9-5.5c0.534-2,2.2-3.3,5-3.9c2-0.4,4.4-0.45,7.2-0.15c1.134,0.133,2.566,1.2,4.3,3.2
		C21.717,5.333,22.533,6.767,22.5,7.7z"/>
	<path style="fill-rule:evenodd;clip-rule:evenodd;fill:#1F2433;" d="M13.05,16.35c1.533,0.134,2.584,1.351,3.15,3.65
		c0.533,2.267,0.283,3.8-0.75,4.6c-1.767,1.267-4.934,1.483-9.5,0.65c-1.667-0.3-2.4-1-2.2-2.1c0.6-1.434,0.867-2.551,0.8-3.351
		c-0.1-1.133,0.784-2.05,2.65-2.75C8.967,16.384,10.917,16.15,13.05,16.35z"/>
	<path style="fill-rule:evenodd;clip-rule:evenodd;fill:#1F2433;" d="M23.9,13.55c0.8,0.367,0.866,1.5,0.199,3.4
		c-0.733,1.967-1.866,3.399-3.399,4.3c-1.334,0.733-2.017,0.733-2.05,0c0.166-1.1,0.149-1.833-0.051-2.2
		c-0.399-0.666,0.067-1.866,1.4-3.6C21.4,13.65,22.7,13.017,23.9,13.55z"/>
</g>
</svg>
