<?xml version="1.0" encoding="iso-8859-1"?>
<!-- Generator: Adobe Illustrator 15.1.0, SVG Export Plug-In . SVG Version: 6.00 Build 0)  -->
<!DOCTYPE svg PUBLIC "-//W3C//DTD SVG 1.1//EN" "http://www.w3.org/Graphics/SVG/1.1/DTD/svg11.dtd">
<svg version="1.1" id="Layer_1" xmlns="http://www.w3.org/2000/svg" xmlns:xlink="http://www.w3.org/1999/xlink" x="0px" y="0px"
	 width="125.9px" height="25.45px" viewBox="0 0 125.9 25.45" style="enable-background:new 0 0 125.9 25.45;" xml:space="preserve"
	>
<g>
	<g>
		<path style="fill-rule:evenodd;clip-rule:evenodd;fill:#97B3AB;" d="M125.528,17.417c-0.629,0.677-1.637,1.114-3.024,1.312
			c-1.25,0.204-3.072,0.232-5.469,0.082c-2.291-0.153-4.195-0.535-5.716-1.147c-1.647-0.65-2.497-1.455-2.549-2.413
			c-0.041-0.99,0.779-1.835,2.462-2.533c1.798-0.733,3.927-1.014,6.386-0.844c2.403,0.013,4.548,0.749,6.434,2.207
			C125.82,15.466,126.313,16.578,125.528,17.417z"/>
	</g>
	<g>
		<path style="fill-rule:evenodd;clip-rule:evenodd;fill:#86ABAE;" d="M88.274,3.547c-0.147,1.036-1.088,1.983-2.818,2.841
			c-1.315,0.639-3.33,1.339-6.045,2.101c-2.693,0.699-4.82,1.085-6.379,1.16c-1.979,0.083-3.274-0.301-3.882-1.153
			c-0.706-0.987-0.275-2.318,1.292-3.995c1.681-1.816,3.952-3.118,6.813-3.904c2.903-0.809,5.555-0.806,7.953,0.009
			C87.459,1.339,88.481,2.32,88.274,3.547z"/>
	</g>
	<g>
		<path style="fill-rule:evenodd;clip-rule:evenodd;fill:#86ABAE;" d="M103.31,5.023c0.009,0.421-0.401,0.73-1.229,0.927
			c-0.86,0.186-1.773,0.146-2.738-0.118c-2.182-0.502-3.303-1.165-3.361-1.985c-0.041-0.432,0.337-0.75,1.134-0.956
			c0.881-0.25,1.824-0.254,2.831-0.012C102.127,3.382,103.248,4.096,103.31,5.023z"/>
	</g>
	<g>
		<path style="fill-rule:evenodd;clip-rule:evenodd;fill:#86ABAE;" d="M114.062,5.796c0.213,0.101,0.133,0.303-0.24,0.605
			c-0.383,0.335-0.823,0.46-1.32,0.375c-0.476-0.042-0.858-0.214-1.149-0.514s-0.363-0.515-0.219-0.644
			c0.081-0.149,0.275-0.212,0.581-0.187c0.18-0.014,0.49-0.004,0.934,0.028C113.441,5.604,113.912,5.715,114.062,5.796z"/>
	</g>
	<g>
		<path style="fill-rule:evenodd;clip-rule:evenodd;fill:#809DA1;" d="M104.435,13.537c-0.575,0.729-2.088,0.713-4.539-0.048
			c-1.104-0.378-2.004-0.85-2.701-1.415c-0.729-0.576-1.023-1.086-0.886-1.531c0.148-0.478,0.675-0.768,1.579-0.871
			c0.905-0.104,1.94,0.044,3.108,0.442c1.178,0.365,2.138,0.925,2.881,1.679C104.556,12.528,104.741,13.109,104.435,13.537z"/>
	</g>
	<g>
		<path style="fill-rule:evenodd;clip-rule:evenodd;fill:#86ABAE;" d="M112.772,22.931c-0.097,0.424-0.594,0.618-1.49,0.584
			c-0.961-0.054-1.905-0.382-2.835-0.985c-0.919-0.634-1.572-1.343-1.957-2.125c-0.405-0.72-0.452-1.24-0.144-1.563
			c0.568-0.591,1.851-0.228,3.849,1.09C112.055,21.138,112.913,22.137,112.772,22.931z"/>
	</g>
	<g>
		<path style="fill-rule:evenodd;clip-rule:evenodd;fill:#97B3AB;" d="M54.428,6.857c-0.054,0.96-0.923,1.737-2.608,2.331
			c-1.579,0.591-3.528,0.91-5.846,0.958c-2.328,0.08-4.288-0.127-5.879-0.621c-1.687-0.523-2.597-1.243-2.732-2.157
			c-0.157-0.957,0.599-1.873,2.267-2.75c1.71-0.9,3.777-1.375,6.2-1.425c2.424-0.05,4.492,0.313,6.205,1.089
			C53.694,5.006,54.491,5.865,54.428,6.857z"/>
	</g>
	<g>
		<path style="fill-rule:evenodd;clip-rule:evenodd;fill:#86ABAE;" d="M65.733,3.825c0.069,0.336-0.177,0.625-0.741,0.869
			c-0.584,0.307-1.271,0.442-2.063,0.406c-0.759-0.026-1.437-0.202-2.034-0.527c-0.523-0.336-0.741-0.648-0.652-0.936
			c0.178-0.572,1.1-0.844,2.766-0.815C64.719,2.933,65.627,3.269,65.733,3.825z"/>
	</g>
	<g>
		<path style="fill-rule:evenodd;clip-rule:evenodd;fill:#97B3AB;" d="M68.841,11.856c0.477,0.148,0.561,0.61,0.249,1.386
			c-0.33,0.839-0.918,1.441-1.765,1.808c-1.46,0.768-3.439,1.13-5.938,1.087c-4.393-0.352-6.879-1.333-7.46-2.945
			c-0.314-0.899,0.375-1.715,2.067-2.445c1.724-0.721,3.605-0.992,5.644-0.813c1.931,0.076,3.522,0.343,4.776,0.802
			C67.104,10.984,67.913,11.358,68.841,11.856z"/>
	</g>
	<g>
		<path style="fill-rule:evenodd;clip-rule:evenodd;fill:#86ABAE;" d="M88.925,15.107c-0.123,1.184-1.716,2.154-4.777,2.914
			c-1.405,0.366-2.723,0.394-3.951,0.081c-1.197-0.302-1.771-0.759-1.722-1.371c0.07-1.235,1.647-2.211,4.731-2.929
			c1.437-0.356,2.785-0.374,4.046-0.052C88.449,14.053,89.007,14.505,88.925,15.107z"/>
	</g>
	<g>
		<path style="fill-rule:evenodd;clip-rule:evenodd;fill:#97B3AB;" d="M17.278,20.972c0.118,1.083-0.675,2.006-2.377,2.769
			c-1.817,0.797-4.041,1.101-6.669,0.912c-2.516-0.326-4.607-1.063-6.275-2.21c-1.614-1.094-2.242-2.108-1.881-3.044
			c0.287-0.923,1.296-1.533,3.029-1.834c1.586-0.275,3.541-0.278,5.866-0.011c2.217,0.165,4.105,0.543,5.668,1.133
			C16.349,19.357,17.229,20.118,17.278,20.972z"/>
	</g>
	<g>
		<path style="fill-rule:evenodd;clip-rule:evenodd;fill:#86ABAE;" d="M24.875,15.218c0.08,0.304-0.162,0.577-0.726,0.821
			c-0.532,0.253-1.162,0.371-1.89,0.354c-0.769,0.006-1.404-0.086-1.903-0.277c-0.49-0.222-0.758-0.479-0.807-0.773
			s0.209-0.563,0.774-0.807c0.522-0.222,1.152-0.34,1.89-0.354C23.816,14.19,24.704,14.535,24.875,15.218z"/>
	</g>
	<g>
		<path style="fill-rule:evenodd;clip-rule:evenodd;fill:#86ABAE;" d="M22.95,20.743c-0.02,0.063-0.066,0.102-0.14,0.114
			l-0.158,0.003c-0.022-0.042,0.009-0.085,0.092-0.129C22.86,20.698,22.928,20.702,22.95,20.743z"/>
	</g>
	<g>
		<path style="fill-rule:evenodd;clip-rule:evenodd;fill:#809DA1;" d="M39.984,21.007c-0.054,0.961-0.847,1.831-2.381,2.611
			c-1.492,0.758-3.425,1.31-5.8,1.653c-2.375,0.345-4.49,0.246-6.346-0.296c-1.888-0.551-2.815-1.327-2.784-2.329
			c0.022-0.971,0.805-1.861,2.348-2.673c1.501-0.79,3.456-1.354,5.863-1.688c2.375-0.344,4.501-0.225,6.379,0.358
			C39.119,19.186,40.026,19.974,39.984,21.007z"/>
	</g>
	<g>
		<path style="fill-rule:evenodd;clip-rule:evenodd;fill:#86ABAE;" d="M41.197,15.416c-0.025,0.307-0.294,0.554-0.807,0.744
			c-0.512,0.19-1.132,0.276-1.86,0.26c-1.666-0.028-2.552-0.32-2.659-0.877c-0.089-0.272,0.136-0.551,0.679-0.837
			c0.552-0.316,1.212-0.478,1.982-0.483c0.728,0.017,1.368,0.146,1.921,0.387C40.974,14.841,41.222,15.11,41.197,15.416z"/>
	</g>
</g>
</svg>
