<?xml version="1.0" encoding="iso-8859-1"?>
<!-- Generator: Adobe Illustrator 15.1.0, SVG Export Plug-In . SVG Version: 6.00 Build 0)  -->
<!DOCTYPE svg PUBLIC "-//W3C//DTD SVG 1.1//EN" "http://www.w3.org/Graphics/SVG/1.1/DTD/svg11.dtd">
<svg version="1.1" id="Layer_1" xmlns="http://www.w3.org/2000/svg" xmlns:xlink="http://www.w3.org/1999/xlink" x="0px" y="0px"
	 width="86.35px" height="32.15px" viewBox="0 0 86.35 32.15" style="enable-background:new 0 0 86.35 32.15;" xml:space="preserve"
	>
<g>
	<g>
		<path style="fill-rule:evenodd;clip-rule:evenodd;fill:#809DA1;" d="M73.35,24.4c0.601,0.899,0.134,2.083-1.399,3.55
			c-1.601,1.533-3.634,2.633-6.101,3.3c-2.5,0.7-4.649,0.983-6.449,0.85c-1.834-0.133-2.967-0.666-3.4-1.6
			c-0.467-0.967,0.1-2.116,1.7-3.45c1.566-1.333,3.566-2.333,6-3C69.066,22.55,72.283,22.667,73.35,24.4z"/>
	</g>
	<g>
		<path style="fill-rule:evenodd;clip-rule:evenodd;fill:#97B3AB;" d="M47.6,29.85c-1.033,0.534-2.433,0.801-4.199,0.801
			c-0.534-0.034-2.75-0.184-6.65-0.45c-3-0.3-5.55-0.934-7.65-1.9c-2.267-1.066-3.317-2.233-3.15-3.5
			c0.167-1.3,1.333-2.316,3.5-3.05c2.267-0.833,5.066-1.1,8.4-0.8c1.733,0.166,3.383,0.6,4.95,1.3c1.634,0.7,2.917,1.583,3.851,2.65
			c0.899,1,1.416,2,1.55,3C48.333,28.8,48.134,29.45,47.6,29.85z"/>
	</g>
	<g>
		<path style="fill-rule:evenodd;clip-rule:evenodd;fill:#809DA1;" d="M1.3,12.85c1.067-0.867,2.434-1.517,4.1-1.95
			c1.7-0.433,3.2-0.55,4.5-0.35c1.3,0.2,2.033,0.633,2.2,1.3c0.167,0.667-0.283,1.383-1.35,2.15c-1.033,0.767-2.383,1.367-4.05,1.8
			c-1.667,0.434-3.117,0.6-4.35,0.5c-1.267-0.133-2.017-0.533-2.25-1.2C-0.167,14.433,0.233,13.683,1.3,12.85z"/>
	</g>
	<g>
		<path style="fill-rule:evenodd;clip-rule:evenodd;fill:#86ABAE;" d="M29.95,15.3c0.2,0.567-0.233,1.133-1.3,1.7
			c-1.1,0.566-2.383,0.833-3.85,0.8c-1.466-0.033-2.716-0.3-3.75-0.8c-1-0.467-1.466-1-1.4-1.6c0.033-0.566,0.567-1.033,1.6-1.4
			c1-0.333,2.2-0.467,3.6-0.4C27.917,13.667,29.617,14.233,29.95,15.3z"/>
	</g>
	<g>
		<path style="fill-rule:evenodd;clip-rule:evenodd;fill:#86ABAE;" d="M56.45,18.8c0.066,0.2-0.084,0.417-0.45,0.65
			c-0.366,0.267-0.816,0.416-1.35,0.45c-1.233,0.133-1.9-0.017-2-0.45c-0.067-0.2,0.083-0.417,0.449-0.65
			c0.367-0.267,0.817-0.416,1.351-0.45C55.616,18.25,56.283,18.4,56.45,18.8z"/>
	</g>
	<g>
		<path style="fill-rule:evenodd;clip-rule:evenodd;fill:#86ABAE;" d="M26,3c-0.233,1.333-2.167,2.05-5.8,2.15
			c-1.6,0.067-2.967-0.117-4.1-0.55c-1.167-0.4-1.767-0.934-1.8-1.6c-0.033-0.667,0.517-1.25,1.65-1.75
			c1.133-0.533,2.517-0.833,4.15-0.9c1.633-0.033,3.083,0.233,4.35,0.8C25.65,1.75,26.167,2.367,26,3z"/>
	</g>
	<g>
		<path style="fill-rule:evenodd;clip-rule:evenodd;fill:#809DA1;" d="M47.9,2.65c-0.034,0.333-0.351,0.567-0.95,0.7
			c-0.634,0.167-1.384,0.183-2.25,0.05c-0.834-0.233-1.5-0.533-2-0.9S42,1.783,42.1,1.45c0.133-0.3,0.5-0.483,1.1-0.55
			c0.6-0.1,1.267-0.05,2,0.15c0.767,0.1,1.399,0.3,1.899,0.6C47.634,1.983,47.9,2.317,47.9,2.65z"/>
	</g>
	<g>
		<path style="fill-rule:evenodd;clip-rule:evenodd;fill:#86ABAE;" d="M70.8,0.95c0.566,0.767,0.2,1.833-1.1,3.2
			c-1.367,1.467-3.184,2.517-5.45,3.15S59.9,8,58,7.5c-1.8-0.467-2.667-1.183-2.6-2.15c0.1-1.6,2.449-3.067,7.05-4.4
			C67.083-0.317,69.866-0.317,70.8,0.95z"/>
	</g>
	<g>
		<path style="fill-rule:evenodd;clip-rule:evenodd;fill:#86ABAE;" d="M86.35,5.95C86.417,6.25,86.2,6.567,85.7,6.9
			c-0.533,0.3-1.167,0.517-1.9,0.65c-0.7,0.2-1.333,0.267-1.899,0.2c-0.601-0.1-0.95-0.3-1.051-0.6c-0.1-0.3,0.101-0.633,0.601-1
			c0.467-0.367,1.1-0.65,1.899-0.85c0.801-0.133,1.483-0.133,2.051,0C86,5.4,86.316,5.617,86.35,5.95z"/>
	</g>
	<g>
		<path style="fill-rule:evenodd;clip-rule:evenodd;fill:#86ABAE;" d="M49.8,11c-0.033,1.033-1.05,1.8-3.05,2.3
			c-2.033,0.5-4.3,0.5-6.8,0c-2.534-0.5-4.55-1.167-6.05-2c-1.6-0.9-2.417-1.883-2.45-2.95c0-1.067,1-1.867,3-2.4
			c2.066-0.534,4.367-0.55,6.9-0.05c2.5,0.467,4.534,1.167,6.1,2.1C49.05,8.967,49.833,9.967,49.8,11z"/>
	</g>
	<g>
		<path style="fill-rule:evenodd;clip-rule:evenodd;fill:#809DA1;" d="M24.7,28.5c-0.067,0.533-0.617,0.9-1.65,1.1
			c-1.066,0.167-2.25,0.067-3.55-0.3c-1.3-0.366-2.35-0.916-3.15-1.649c-0.8-0.7-1.083-1.301-0.85-1.801s0.833-0.767,1.8-0.8
			c0.934-0.033,2.017,0.134,3.25,0.5c1.267,0.367,2.284,0.816,3.05,1.351C24.4,27.434,24.767,27.967,24.7,28.5z"/>
	</g>
	<g>
		<path style="fill-rule:evenodd;clip-rule:evenodd;fill:#86ABAE;" d="M13.75,30.4c-0.033,0.267-0.267,0.5-0.7,0.699
			c-0.4,0.167-0.9,0.25-1.5,0.25c-1.367,0.167-2.133-0.033-2.3-0.6c-0.067-0.233,0.117-0.467,0.55-0.7
			c0.434-0.267,0.967-0.45,1.6-0.55c0.667,0,1.233,0.083,1.7,0.25C13.567,29.95,13.783,30.167,13.75,30.4z"/>
	</g>
	<g>
		<path style="fill-rule:evenodd;clip-rule:evenodd;fill:#86ABAE;" d="M77.15,18.1c-0.301,1.134-2.25,1.817-5.851,2.051
			c-1.7,0.1-2.967,0.083-3.8-0.051c-1.1-0.133-1.816-0.483-2.15-1.05c-0.399-0.633-0.017-1.383,1.15-2.25
			c1.233-0.933,2.733-1.45,4.5-1.55s3.3,0.2,4.6,0.9C76.833,16.783,77.35,17.434,77.15,18.1z"/>
	</g>
</g>
</svg>
