<?xml version="1.0" encoding="iso-8859-1"?>
<!-- Generator: Adobe Illustrator 15.1.0, SVG Export Plug-In . SVG Version: 6.00 Build 0)  -->
<!DOCTYPE svg PUBLIC "-//W3C//DTD SVG 1.1//EN" "http://www.w3.org/Graphics/SVG/1.1/DTD/svg11.dtd">
<svg version="1.1" id="Layer_1" xmlns="http://www.w3.org/2000/svg" xmlns:xlink="http://www.w3.org/1999/xlink" x="0px" y="0px"
	 width="57.7px" height="17.25px" viewBox="0 0 57.7 17.25" style="enable-background:new 0 0 57.7 17.25;" xml:space="preserve">
<g>
	<g>
		<path style="fill-rule:evenodd;clip-rule:evenodd;fill:#86ABAE;" d="M15.75,12.65c0.167,0.433-0.117,0.899-0.85,1.399
			c-0.8,0.5-1.767,0.8-2.9,0.9c-1.133,0.066-2.117-0.101-2.95-0.5C8.217,14.05,7.867,13.634,8,13.2c0.2-0.8,1.467-1.283,3.8-1.45
			C14.167,11.583,15.483,11.884,15.75,12.65z"/>
	</g>
	<g>
		<path style="fill-rule:evenodd;clip-rule:evenodd;fill:#86ABAE;" d="M35.818,13.325c0.026,0.806-0.562,1.556-1.763,2.248
			c-1.202,0.693-2.771,1.202-4.709,1.526c-1.901,0.295-3.617,0.204-5.146-0.271c-1.466-0.436-2.198-1.039-2.195-1.809
			c0.004-0.77,0.622-1.483,1.854-2.14c1.196-0.627,2.745-1.087,4.646-1.382c1.871-0.33,3.558-0.292,5.061,0.113
			C35.038,11.982,35.788,12.553,35.818,13.325z"/>
	</g>
	<g>
		<path style="fill-rule:evenodd;clip-rule:evenodd;fill:#86ABAE;" d="M15.899,7.507c-2.071,1.228-4.369,1.749-6.893,1.56
			c-2.564-0.011-4.783-0.516-6.655-1.51C0.517,6.59-0.245,5.577,0.064,4.518C0.33,3.602,1.316,2.893,3.027,2.396
			C4.64,1.913,6.663,1.688,9.096,1.72c4.711,0.157,7.635,0.974,8.771,2.452C18.599,5.207,17.943,6.318,15.899,7.507z"/>
	</g>
	<g>
		<path style="fill-rule:evenodd;clip-rule:evenodd;fill:#86ABAE;" d="M29.95,7.9C30.35,8.3,30.1,8.8,29.2,9.4
			c-0.934,0.666-1.967,0.949-3.1,0.85c-1.133-0.066-2.067-0.283-2.8-0.65c-0.7-0.333-1.083-0.716-1.15-1.149
			c-0.033-0.434,0.383-0.8,1.25-1.1c0.8-0.3,1.717-0.417,2.75-0.35c1.267,0.1,2.083,0.183,2.45,0.25
			C29.233,7.383,29.684,7.6,29.95,7.9z"/>
	</g>
	<g>
		<path style="fill-rule:evenodd;clip-rule:evenodd;fill:#809DA1;" d="M50.1,6.3c2.101-0.1,3.884,0.117,5.351,0.65
			c1.434,0.5,2.184,1.167,2.25,2c0.066,0.833-0.634,1.583-2.101,2.25c-1.399,0.633-3.1,1.017-5.1,1.149
			c-4.366,0.233-6.85-0.35-7.45-1.75c-0.366-0.833,0.167-1.716,1.601-2.649C46.184,6.95,48,6.4,50.1,6.3z"/>
	</g>
	<g>
		<path style="fill-rule:evenodd;clip-rule:evenodd;fill:#809DA1;" d="M36.2,1.75c-0.033,0.3-0.351,0.5-0.95,0.6
			c-0.566,0.133-1.233,0.133-2,0c-0.733-0.1-1.35-0.3-1.85-0.6c-0.534-0.3-0.784-0.6-0.75-0.9c0.033-0.333,0.333-0.567,0.899-0.7
			c0.601-0.167,1.3-0.2,2.101-0.1c0.767,0.133,1.399,0.383,1.899,0.75C36.05,1.133,36.267,1.45,36.2,1.75z"/>
	</g>
</g>
</svg>
