<?xml version="1.0" encoding="iso-8859-1"?>
<!-- Generator: Adobe Illustrator 15.1.0, SVG Export Plug-In . SVG Version: 6.00 Build 0)  -->
<!DOCTYPE svg PUBLIC "-//W3C//DTD SVG 1.1//EN" "http://www.w3.org/Graphics/SVG/1.1/DTD/svg11.dtd">
<svg version="1.1" id="Layer_1" xmlns="http://www.w3.org/2000/svg" xmlns:xlink="http://www.w3.org/1999/xlink" x="0px" y="0px"
	 width="141.1px" height="58.55px" viewBox="0 0 141.1 58.55" style="enable-background:new 0 0 141.1 58.55;" xml:space="preserve"
	>
<symbol  id="flash2.ai_x2F_Layer_1_x2F__x3C_Path_x3E_" viewBox="0 -2.95 3.75 2.95">
	<g id="Layer_1_24_">
		<polygon style="fill-rule:evenodd;clip-rule:evenodd;fill:#00B6C9;" points="3.75,-2.1 0,-2.95 0.75,0 		"/>
	</g>
</symbol>
<symbol  id="flash2.ai_x2F_Layer_1_x2F__x3C_Path_x3E__x5F_1" viewBox="0 -1.95 2.45 1.95">
	<g id="Layer_1_23_">
		<polygon style="fill-rule:evenodd;clip-rule:evenodd;fill:#00B6C9;" points="0,-1.75 1.75,0 2.2,-0.75 2.45,-1.95 		"/>
	</g>
</symbol>
<symbol  id="flash2.ai_x2F_Layer_1_x2F__x3C_Path_x3E__x5F_10" viewBox="-0.002 -2.55 3.002 2.55">
	<g id="Layer_1_14_">
		<path style="fill-rule:evenodd;clip-rule:evenodd;fill:#00B6C9;" d="M1.45,0l-0.3-1.5L3-1.6L2-2.1L0.75-2.55
			C0.283-2.15,0.033-1.8,0-1.5C-0.033-1.233,0.45-0.733,1.45,0z"/>
	</g>
</symbol>
<symbol  id="flash2.ai_x2F_Layer_1_x2F__x3C_Path_x3E__x5F_11" viewBox="0.01 -4.15 4.206 4.15">
	<g id="Layer_1_13_">
		<path style="fill-rule:evenodd;clip-rule:evenodd;fill:#00B6C9;" d="M3-1.55L3.45-1.6c0.333-0.033,0.566-0.1,0.7-0.2
			C4.317-2,4.167-2.367,3.7-2.9L2.2-3.7C1.367-4.1,0.85-4.233,0.65-4.1C0.45-3.967,0.267-3.533,0.1-2.8
			C0-2.467-0.017-2.017,0.05-1.45L1.9,0L3-1.55z"/>
	</g>
</symbol>
<symbol  id="flash2.ai_x2F_Layer_1_x2F__x3C_Path_x3E__x5F_12" viewBox="-0.031 -1.65 2.581 1.65">
	<g id="Layer_1_12_">
		<path style="fill-rule:evenodd;clip-rule:evenodd;fill:#00B6C9;" d="M1.65,0l0.9-1.05L0.7-1.65L0.1-1.1
			C-0.3-0.733,0.217-0.367,1.65,0z"/>
	</g>
</symbol>
<symbol  id="flash2.ai_x2F_Layer_1_x2F__x3C_Path_x3E__x5F_13" viewBox="0 -3.85 6.35 3.85">
	<g id="Layer_1_11_">
		<path style="fill-rule:evenodd;clip-rule:evenodd;fill:#00B6C9;" d="M2.75-0.4C3.317-0.267,3.867-0.133,4.4,0l1.95-2l-2.1-1.85
			C4.183-2.783,4.1-2.083,4-1.75C3.933-1.55,3.683-1.733,3.25-2.3c-0.2-0.3-0.4-0.6-0.6-0.9l-2.6,0.45c-0.133,0.033,0,0.25,0.4,0.65
			C0.917-1.633,1.133-1.317,1.1-1.15C1.1-0.95,1.65-0.7,2.75-0.4z"/>
	</g>
</symbol>
<symbol  id="flash2.ai_x2F_Layer_1_x2F__x3C_Path_x3E__x5F_14" viewBox="-0.007 -1.938 2.057 1.938">
	<g id="Layer_1_10_">
		<path style="fill-rule:evenodd;clip-rule:evenodd;fill:#00B6C9;" d="M1.5,0l0.55-1.1L1.8-1.5L1.3-1.75L0.8-1.8
			C0.267-2,0.017-1.983,0.05-1.75L0-1.2c-0.033,0.167,0.05,0.45,0.25,0.85C0.283-0.25,0.7-0.133,1.5,0z"/>
	</g>
</symbol>
<symbol  id="flash2.ai_x2F_Layer_1_x2F__x3C_Path_x3E__x5F_15" viewBox="-0.017 -1.407 1.311 1.407">
	<g id="Layer_1_9_">
		<path style="fill-rule:evenodd;clip-rule:evenodd;fill:#00B6C9;" d="M1,0c0.333-0.633,0.383-0.983,0.15-1.05
			C0.717-1.383,0.433-1.483,0.3-1.35c-0.167,0-0.267,0.1-0.3,0.3C-0.033-0.817-0.017-0.6,0.05-0.4C0.083-0.3,0.4-0.167,1,0z"/>
	</g>
</symbol>
<symbol  id="flash2.ai_x2F_Layer_1_x2F__x3C_Path_x3E__x5F_16" viewBox="-0.017 -1.407 1.311 1.407">
	<g id="Layer_1_8_">
		<path style="fill-rule:evenodd;clip-rule:evenodd;fill:#00B6C9;" d="M1,0c0.333-0.633,0.383-0.983,0.15-1.05
			C0.717-1.383,0.433-1.483,0.3-1.35c-0.167,0-0.267,0.1-0.3,0.3C-0.033-0.883-0.017-0.667,0.05-0.4C0.083-0.133,0.4,0,1,0z"/>
	</g>
</symbol>
<symbol  id="flash2.ai_x2F_Layer_1_x2F__x3C_Path_x3E__x5F_17" viewBox="0.025 -1.378 1.269 1.378">
	<g id="Layer_1_7_">
		<path style="fill-rule:evenodd;clip-rule:evenodd;fill:#00B6C9;" d="M1,0c0.333-0.633,0.383-0.967,0.15-1
			C0.717-1.367,0.433-1.467,0.3-1.3C0.167-1.3,0.083-1.2,0.05-1c-0.033,0.2-0.033,0.417,0,0.65C0.083-0.117,0.4,0,1,0z"/>
	</g>
</symbol>
<symbol  id="flash2.ai_x2F_Layer_1_x2F__x3C_Path_x3E__x5F_18" viewBox="0.025 -1.378 1.303 1.378">
	<g id="Layer_1_6_">
		<path style="fill-rule:evenodd;clip-rule:evenodd;fill:#00B6C9;" d="M1.05,0c0.333-0.633,0.367-0.967,0.1-1
			c-0.4-0.367-0.667-0.467-0.8-0.3c-0.033,0.033-0.1,0.066-0.2,0.1C0.117-1.167,0.083-1.1,0.05-1c-0.033,0.2-0.033,0.417,0,0.65
			C0.15-0.117,0.483,0,1.05,0z"/>
	</g>
</symbol>
<symbol  id="flash2.ai_x2F_Layer_1_x2F__x3C_Path_x3E__x5F_19" viewBox="0.01 -3.347 3.167 3.347">
	<g id="Layer_1_5_">
		<path style="fill-rule:evenodd;clip-rule:evenodd;fill:#00B6C9;" d="M2.45,0C3.283-1.5,3.4-2.333,2.8-2.5
			C1.733-3.3,1.05-3.533,0.75-3.2C0.617-3.033,0.467-2.933,0.3-2.9C0.2-2.867,0.117-2.717,0.05-2.45C-0.017-1.917,0-1.4,0.1-0.9
			c0.066,0.3,0.433,0.533,1.1,0.7C1.667-0.067,2.083,0,2.45,0z"/>
	</g>
</symbol>
<symbol  id="flash2.ai_x2F_Layer_1_x2F__x3C_Path_x3E__x5F_2" viewBox="0 -4.5 4.5 4.5">
	<g id="Layer_1_22_">
		<polygon style="fill-rule:evenodd;clip-rule:evenodd;fill:#00B6C9;" points="0,0 4.5,-1.7 3.5,-3.05 1.6,-4.5 		"/>
	</g>
</symbol>
<symbol  id="flash2.ai_x2F_Layer_1_x2F__x3C_Path_x3E__x5F_20" viewBox="-0.032 -2.909 3.732 2.909">
	<g id="Layer_1_4_">
		<path style="fill-rule:evenodd;clip-rule:evenodd;fill:#00B6C9;" d="M2.15,0L3.7-1.1C3.233-2.033,2.933-2.45,2.8-2.35
			C2.433-2.417,2.167-2.433,2-2.4C0.933-2.7,0.283-2.867,0.05-2.9c-0.2-0.067-0.033,0.217,0.5,0.85c0.133,0.566,0.167,1.033,0.1,1.4
			C0.583-0.45,1.083-0.233,2.15,0z"/>
	</g>
</symbol>
<symbol  id="flash2.ai_x2F_Layer_1_x2F__x3C_Path_x3E__x5F_21" viewBox="0 -32.491 96.8 32.46">
	<g id="Layer_1_3_">
		
			<linearGradient id="SVGID_1_" gradientUnits="userSpaceOnUse" x1="-442.2627" y1="-15801.6797" x2="-412.948" y2="-15801.6797" gradientTransform="matrix(0.052 -0.9986 0.9986 0.052 15850.4277 373.6035)">
			<stop  offset="0" style="stop-color:#0F8080"/>
			<stop  offset="1" style="stop-color:#112E33"/>
		</linearGradient>
		<path style="fill-rule:evenodd;clip-rule:evenodd;fill:url(#SVGID_1_);" d="M79.55-16c6.767-4.767,12.517-9.417,17.25-13.95
			c-8.533-0.633-18.966-1.2-31.3-1.7c-24.633-0.967-46.467-1.1-65.5-0.4c4.6,5.633,9.9,11.183,15.9,16.65
			C27.9-4.467,37.35,0.633,44.25-0.1C54.283-1.2,66.05-6.5,79.55-16z"/>
	</g>
</symbol>
<symbol  id="flash2.ai_x2F_Layer_1_x2F__x3C_Path_x3E__x5F_22" viewBox="0 -52.553 130.5 52.59">
	<g id="Layer_1_2_">
		
			<linearGradient id="SVGID_2_" gradientUnits="userSpaceOnUse" x1="-438.3818" y1="-15784.8311" x2="-390.9173" y2="-15784.8311" gradientTransform="matrix(0.0521 -0.9986 0.9986 0.0521 15849.3789 374.5527)">
			<stop  offset="0" style="stop-color:#0F8080"/>
			<stop  offset="1" style="stop-color:#112E33"/>
		</linearGradient>
		<path style="fill-rule:evenodd;clip-rule:evenodd;fill:url(#SVGID_2_);" d="M82.4-51.35c-35.9-1.267-63.367-1.533-82.4-0.8
			c4.7,9.5,10.6,18.783,17.7,27.85C31.9-6.167,44.95,1.833,56.85-0.3c11.933-2.133,27.783-10.934,47.55-26.4
			c9.9-7.7,18.6-15.2,26.1-22.5C116.367-50,100.333-50.717,82.4-51.35z"/>
	</g>
</symbol>
<symbol  id="flash2.ai_x2F_Layer_1_x2F__x3C_Path_x3E__x5F_3" viewBox="0 -2.85 3.1 2.85">
	<g id="Layer_1_21_">
		<polygon style="fill-rule:evenodd;clip-rule:evenodd;fill:#00B6C9;" points="0,-0.45 0.4,0 3.1,-0.6 2.2,-1.5 0.35,-2.85 		"/>
	</g>
</symbol>
<symbol  id="flash2.ai_x2F_Layer_1_x2F__x3C_Path_x3E__x5F_4" viewBox="0 -2.85 3.1 2.85">
	<g id="Layer_1_20_">
		<polygon style="fill-rule:evenodd;clip-rule:evenodd;fill:#00B6C9;" points="0,-0.5 0.4,0 3.1,-0.6 2.2,-1.55 0.3,-2.85 		"/>
	</g>
</symbol>
<symbol  id="flash2.ai_x2F_Layer_1_x2F__x3C_Path_x3E__x5F_5" viewBox="0 -2.85 3.1 2.85">
	<g id="Layer_1_19_">
		<polygon style="fill-rule:evenodd;clip-rule:evenodd;fill:#00B6C9;" points="0,-0.45 0.4,0 3.1,-0.6 2.2,-1.5 0.35,-2.85 		"/>
	</g>
</symbol>
<symbol  id="flash2.ai_x2F_Layer_1_x2F__x3C_Path_x3E__x5F_6" viewBox="-0.019 -3.25 3.169 3.25">
	<g id="Layer_1_18_">
		<path style="fill-rule:evenodd;clip-rule:evenodd;fill:#00B6C9;" d="M0.9-0.7L2.05,0L2.4-1.05L1.5-1.9l1.65-0.15l-1.3-0.8
			L0.5-3.25c-0.2,0.6-0.367,0.933-0.5,1C-0.1-2.15,0.2-1.633,0.9-0.7z"/>
	</g>
</symbol>
<symbol  id="flash2.ai_x2F_Layer_1_x2F__x3C_Path_x3E__x5F_7" viewBox="0 -2.3 2.55 2.3">
	<g id="Layer_1_17_">
		<polygon style="fill-rule:evenodd;clip-rule:evenodd;fill:#00B6C9;" points="2.55,-0.55 1.85,-2.3 1.1,-2.05 0,0 		"/>
	</g>
</symbol>
<symbol  id="flash2.ai_x2F_Layer_1_x2F__x3C_Path_x3E__x5F_8" viewBox="0 -2.8 3.45 2.8">
	<g id="Layer_1_16_">
		<polygon style="fill-rule:evenodd;clip-rule:evenodd;fill:#00B6C9;" points="1.65,0 3.45,-1.55 2.85,-2.25 0,-2.8 		"/>
	</g>
</symbol>
<symbol  id="flash2.ai_x2F_Layer_1_x2F__x3C_Path_x3E__x5F_9" viewBox="-0.002 -2.6 2.952 2.6">
	<g id="Layer_1_15_">
		<path style="fill-rule:evenodd;clip-rule:evenodd;fill:#00B6C9;" d="M1.45,0l-0.3-1.5l1.8-0.15L2-2.15L0.75-2.6
			C0.283-2.2,0.033-1.85,0-1.55C-0.033-1.25,0.45-0.733,1.45,0z"/>
	</g>
</symbol>
<g>
	
		<linearGradient id="SVGID_3_" gradientUnits="userSpaceOnUse" x1="15.5107" y1="-67.5186" x2="68.3324" y2="-67.5186" gradientTransform="matrix(0.0521 0.9986 -0.9986 0.0521 -4.837289e-004 -2.594292e-004)">
		<stop  offset="0" style="stop-color:#0F80D0"/>
		<stop  offset="1" style="stop-color:#112E33"/>
	</linearGradient>
	<path style="fill-rule:evenodd;clip-rule:evenodd;fill:url(#SVGID_3_);" d="M87.65,57.05c-39.4,1.3-68.617,1.601-87.65,0.9
		C5.1,47.483,11.4,37.233,18.9,27.2C33.9,7.133,47.35-1.833,59.25,0.3C71.184,2.433,88.4,12.167,110.9,29.5
		c11.267,8.667,21.333,17.116,30.199,25.35C125.2,55.65,107.384,56.384,87.65,57.05z"/>
	
		<use xlink:href="#flash2.ai_x2F_Layer_1_x2F__x3C_Path_x3E__x5F_22"  width="130.5" height="52.59" y="-52.553" transform="matrix(1 0 0 -1 5.1499 5.75)" style="overflow:visible;opacity:0.1719;enable-background:new    ;"/>
	
		<use xlink:href="#flash2.ai_x2F_Layer_1_x2F__x3C_Path_x3E__x5F_21"  width="96.8" height="32.46" y="-32.491" transform="matrix(1 0 0 -1 12.7998 26.0498)" style="overflow:visible;opacity:0.1719;enable-background:new    ;"/>
	
		<use xlink:href="#flash2.ai_x2F_Layer_1_x2F__x3C_Path_x3E__x5F_20"  width="3.732" height="2.909" x="-0.032" y="-2.909" transform="matrix(1 0 0 -1 76.1504 13)" style="overflow:visible;opacity:0.4883;enable-background:new    ;"/>
	
		<use xlink:href="#flash2.ai_x2F_Layer_1_x2F__x3C_Path_x3E__x5F_19"  width="3.167" height="3.347" x="0.01" y="-3.347" transform="matrix(1 0 0 -1 66.1499 14.3999)" style="overflow:visible;opacity:0.4883;enable-background:new    ;"/>
	
		<use xlink:href="#flash2.ai_x2F_Layer_1_x2F__x3C_Path_x3E__x5F_18"  width="1.303" height="1.378" x="0.025" y="-1.378" transform="matrix(1 0 0 -1 46.4502 13.8999)" style="overflow:visible;opacity:0.4883;enable-background:new    ;"/>
	
		<use xlink:href="#flash2.ai_x2F_Layer_1_x2F__x3C_Path_x3E__x5F_17"  width="1.269" height="1.378" x="0.025" y="-1.378" transform="matrix(1 0 0 -1 62.0498 5.4502)" style="overflow:visible;opacity:0.4883;enable-background:new    ;"/>
	
		<use xlink:href="#flash2.ai_x2F_Layer_1_x2F__x3C_Path_x3E__x5F_16"  width="1.311" height="1.407" x="-0.017" y="-1.407" transform="matrix(1 0 0 -1 28.5 18.9502)" style="overflow:visible;opacity:0.4883;enable-background:new    ;"/>
	
		<use xlink:href="#flash2.ai_x2F_Layer_1_x2F__x3C_Path_x3E__x5F_15"  width="1.311" height="1.407" x="-0.017" y="-1.407" transform="matrix(1 0 0 -1 70.5498 15.25)" style="overflow:visible;opacity:0.4883;enable-background:new    ;"/>
	
		<use xlink:href="#flash2.ai_x2F_Layer_1_x2F__x3C_Path_x3E__x5F_14"  width="2.057" height="1.938" x="-0.007" y="-1.938" transform="matrix(1 0 0 -1 72.0996 10.6499)" style="overflow:visible;opacity:0.4883;enable-background:new    ;"/>
	
		<use xlink:href="#flash2.ai_x2F_Layer_1_x2F__x3C_Path_x3E__x5F_13"  width="6.35" height="3.85" x="0" y="-3.85" transform="matrix(1 0 0 -1 64.6499 9.8999)" style="overflow:visible;opacity:0.4883;enable-background:new    ;"/>
	
		<use xlink:href="#flash2.ai_x2F_Layer_1_x2F__x3C_Path_x3E__x5F_12"  width="2.581" height="1.65" x="-0.031" y="-1.65" transform="matrix(1 0 0 -1 72.6504 15.8999)" style="overflow:visible;opacity:0.4883;enable-background:new    ;"/>
	
		<use xlink:href="#flash2.ai_x2F_Layer_1_x2F__x3C_Path_x3E__x5F_11"  width="4.206" height="4.15" x="0.01" y="-4.15" transform="matrix(1 0 0 -1 32.4502 19.2002)" style="overflow:visible;opacity:0.4883;enable-background:new    ;"/>
	
		<use xlink:href="#flash2.ai_x2F_Layer_1_x2F__x3C_Path_x3E__x5F_10"  width="3.002" height="2.55" x="-0.002" y="-2.55" transform="matrix(1 0 0 -1 46.6001 9.6001)" style="overflow:visible;opacity:0.4883;enable-background:new    ;"/>
	
		<use xlink:href="#flash2.ai_x2F_Layer_1_x2F__x3C_Path_x3E__x5F_9"  width="2.952" height="2.6" x="-0.002" y="-2.6" transform="matrix(1 0 0 -1 32.8999 16)" style="overflow:visible;opacity:0.4883;enable-background:new    ;"/>
	
		<use xlink:href="#flash2.ai_x2F_Layer_1_x2F__x3C_Path_x3E__x5F_8"  width="3.45" height="2.8" y="-2.8" transform="matrix(1 0 0 -1 45.75 4.2998)" style="overflow:visible;opacity:0.4883;enable-background:new    ;"/>
	
		<use xlink:href="#flash2.ai_x2F_Layer_1_x2F__x3C_Path_x3E__x5F_7"  width="2.55" height="2.3" y="-2.3" transform="matrix(1 0 0 -1 37.8999 7.5498)" style="overflow:visible;opacity:0.4883;enable-background:new    ;"/>
	
		<use xlink:href="#flash2.ai_x2F_Layer_1_x2F__x3C_Path_x3E__x5F_6"  width="3.169" height="3.25" x="-0.019" y="-3.25" transform="matrix(1 0 0 -1 31.7998 25.8999)" style="overflow:visible;opacity:0.4883;enable-background:new    ;"/>
	
		<use xlink:href="#flash2.ai_x2F_Layer_1_x2F__x3C_Path_x3E__x5F_5"  width="3.1" height="2.85" y="-2.85" transform="matrix(1 0 0 -1 17.3501 32.5498)" style="overflow:visible;opacity:0.4883;enable-background:new    ;"/>
	
		<use xlink:href="#flash2.ai_x2F_Layer_1_x2F__x3C_Path_x3E__x5F_4"  width="3.1" height="2.85" y="-2.85" transform="matrix(1 0 0 -1 35.6499 24.1001)" style="overflow:visible;opacity:0.4883;enable-background:new    ;"/>
	
		<use xlink:href="#flash2.ai_x2F_Layer_1_x2F__x3C_Path_x3E__x5F_3"  width="3.1" height="2.85" y="-2.85" transform="matrix(1 0 0 -1 76.3496 17.75)" style="overflow:visible;opacity:0.4883;enable-background:new    ;"/>
	
		<use xlink:href="#flash2.ai_x2F_Layer_1_x2F__x3C_Path_x3E__x5F_2"  width="4.5" height="4.5" y="-4.5" transform="matrix(1 0 0 -1 84.4004 14.1001)" style="overflow:visible;opacity:0.4883;enable-background:new    ;"/>
	
		<use xlink:href="#flash2.ai_x2F_Layer_1_x2F__x3C_Path_x3E__x5F_1"  width="2.45" height="1.95" y="-1.95" transform="matrix(1 0 0 -1 28.5 20.3501)" style="overflow:visible;opacity:0.4883;enable-background:new    ;"/>
	
		<use xlink:href="#flash2.ai_x2F_Layer_1_x2F__x3C_Path_x3E_"  width="3.75" height="2.95" y="-2.95" transform="matrix(1 0 0 -1 52.5 4.1499)" style="overflow:visible;opacity:0.4883;enable-background:new    ;"/>
</g>
</svg>
