<?xml version="1.0" encoding="iso-8859-1"?>
<!-- Generator: Adobe Illustrator 15.1.0, SVG Export Plug-In . SVG Version: 6.00 Build 0)  -->
<!DOCTYPE svg PUBLIC "-//W3C//DTD SVG 1.1//EN" "http://www.w3.org/Graphics/SVG/1.1/DTD/svg11.dtd">
<svg version="1.1" id="Layer_1" xmlns="http://www.w3.org/2000/svg" xmlns:xlink="http://www.w3.org/1999/xlink" x="0px" y="0px"
	 width="417.15px" height="130.2px" viewBox="0 0 417.15 130.2" style="enable-background:new 0 0 417.15 130.2;"
	 xml:space="preserve">
<g>
	<path style="fill-rule:evenodd;clip-rule:evenodd;fill:#1F2433;" d="M135.9,2c0.767-0.3,1.8,0.333,3.1,1.9c1.333,1.6,2,3.067,2,4.4
		c0,1.1-0.567,1.483-1.7,1.15c-1.367-0.667-2.3-1.05-2.8-1.15c-0.867-0.167-1.467-1.133-1.8-2.9C134.333,3.6,134.733,2.467,135.9,2z
		"/>
	<path style="fill-rule:evenodd;clip-rule:evenodd;fill:#1F2433;" d="M372.9,19.3c-2.534-1.966-4.784-4.2-6.75-6.7
		c-2.434-3-2.733-4.55-0.9-4.65c7.866-0.367,14.25-0.284,19.15,0.25c2.699,0.3,4.816,2.1,6.35,5.4c0.566,1.167,1.366,3.8,2.4,7.9
		c0.366,1.5-0.117,2.417-1.45,2.75c-2.066,0.533-3.5,1.25-4.3,2.15c-1.2,1.367-3.483,0.967-6.851-1.2
		C380.316,25.033,377.767,23.067,372.9,19.3z"/>
	<path style="fill-rule:evenodd;clip-rule:evenodd;fill:#1F2433;" d="M365.1,33c1.5-3.1,3.733-3.683,6.7-1.75
		c2.3,1.5,3.783,3.1,4.45,4.8c0.3,0.733,0.184,1.867-0.35,3.4c-0.5,1.466-1.134,2.633-1.9,3.5c-1.2,1.333-2.184,2.25-2.95,2.75
		c-1.399,0.867-2.633,0.933-3.7,0.2c-1.333-0.933-2.283-2.717-2.85-5.35C363.833,37.683,364.033,35.167,365.1,33z"/>
	<path style="fill-rule:evenodd;clip-rule:evenodd;fill:#1F2433;" d="M290.9,39.9c-1.233,1.767-2.817,2.85-4.75,3.25
		c-1.967,0.4-3.7-0.066-5.2-1.4c-2.167-1.9-1.634-6.083,1.6-12.55c0.733-1.434,2.05-2.15,3.95-2.15c1.434,0,3.083,0.383,4.95,1.15
		c1.399,0.566,2.017,2.167,1.85,4.8C293.134,35.533,292.333,37.833,290.9,39.9z"/>
	<path style="fill-rule:evenodd;clip-rule:evenodd;fill:#1F2433;" d="M133.5,11.3c2.433-2.033,4.967-1.55,7.6,1.45
		c2.467,2.833,3.333,5.25,2.6,7.25c-0.667,1.867-2.1,3.85-4.3,5.95c-2.433,2.367-4.7,3.683-6.8,3.95c-1.7,0.233-2.717-0.7-3.05-2.8
		c-0.433-2.934-0.917-4.7-1.45-5.3c-1.033-1.167-0.65-3.066,1.15-5.7C130.517,14.2,131.933,12.6,133.5,11.3z"/>
	<path style="fill-rule:evenodd;clip-rule:evenodd;fill:#1F2433;" d="M171.3,27.8c1.767,1.767,3.1,3.983,4,6.65
		c0.967,2.966,1.233,6.15,0.8,9.55c-0.467,3.8-1.167,6.633-2.1,8.5c-1.033,2.133-2.633,3.7-4.8,4.7c-2.567,1.2-5.684,2.1-9.35,2.7
		c-4.2,0.7-7.684,0.7-10.45,0c-2.4-0.6-4.167-2.483-5.3-5.65c-1.9-5.2-2.934-7.917-3.1-8.15c-1.1-1.767-1.65-3.684-1.65-5.75
		c0-2.4-0.25-4.184-0.75-5.35c-0.767-1.767-0.117-3.917,1.95-6.45c1.1-1.4,2.75-3.15,4.95-5.25c2.133-2.4,6.617-2.733,13.45-1
		C165.083,23.867,169.2,25.7,171.3,27.8z"/>
	<path style="fill-rule:evenodd;clip-rule:evenodd;fill:#1F2433;" d="M129.8,36.1c0.8-0.267,1.767,0.183,2.9,1.35
		c1.167,1.167,1.867,2.466,2.1,3.9c0.1,0.467,0.684,2.783,1.75,6.95c0.934,3.633,1.5,6.333,1.7,8.1c0.2,1.9-0.833,2.65-3.1,2.25
		c-2.933-0.933-5.066-1.583-6.4-1.95c-1.733-0.467-2.7-1.784-2.9-3.95c-0.033-0.333,0.05-2.633,0.25-6.9
		c0.133-2.934,0.417-5.067,0.85-6.4C127.517,37.65,128.467,36.533,129.8,36.1z"/>
	<path style="fill-rule:evenodd;clip-rule:evenodd;fill:#1F2433;" d="M147.6,16.1c0.833-0.4,1.783-0.2,2.85,0.6
		c0.933,0.7,1.583,1.5,1.95,2.4c0.267,0.667-0.017,0.983-0.85,0.95c-0.667-0.033-1.483-0.25-2.45-0.65c-1-0.4-1.717-0.883-2.15-1.45
		C146.35,17.217,146.567,16.6,147.6,16.1z"/>
	<path style="fill-rule:evenodd;clip-rule:evenodd;fill:#1F2433;" d="M202.55,32.2c0.733,0.4,1,1.633,0.8,3.7
		c-0.167,2.1-0.767,3.167-1.8,3.2c-0.9,0.033-1.533-0.383-1.9-1.25c-0.3-1.167-0.583-2.033-0.85-2.6c-0.4-0.833-0.05-1.65,1.05-2.45
		C200.917,32,201.817,31.8,202.55,32.2z"/>
	<path style="fill-rule:evenodd;clip-rule:evenodd;fill:#1F2433;" d="M350.3,32c0.7,3.467-0.483,7.6-3.55,12.4
		c-3.2,5-6.75,7.733-10.65,8.2c-4.433,0.533-9-0.017-13.699-1.65c-5.167-1.8-8.717-4.4-10.65-7.8c-1.634-2.9-1.15-5.85,1.45-8.85
		c0.733-0.833,1.983-2.1,3.75-3.8c1.533-1.6,2.633-3.033,3.3-4.3c1.5-2.833,2.967-4.85,4.4-6.05c0.899-0.767,2.199-1.417,3.899-1.95
		c1.066-0.333,2.983-0.317,5.75,0.05c5.533,0.7,8.417,1.067,8.65,1.1c2.899,0.267,4.75,1.4,5.55,3.4
		C349.033,24.117,349.634,27.2,350.3,32z"/>
	<path style="fill-rule:evenodd;clip-rule:evenodd;fill:#1F2433;" d="M231.5,41.15c0.434,0.633,0.717,1.417,0.85,2.35
		c0.167,1.2-1.416,2.033-4.75,2.5c-3.333,0.433-5.383,0.133-6.149-0.9c-1.233-1.767,0.267-3.467,4.5-5.1
		C228.583,39.067,230.434,39.45,231.5,41.15z"/>
	<path style="fill-rule:evenodd;clip-rule:evenodd;fill:#1F2433;" d="M264.75,33.15c0.267,0.867-0.267,2.434-1.6,4.7
		c-1.334,2.2-2.684,3.85-4.051,4.95c-1.866,1.5-6.35,3.1-13.449,4.8c-2.233,0.5-4.467,0.15-6.7-1.05c-2.3-1.267-4.033-3.15-5.2-5.65
		c-0.967-2.066-0.934-3.467,0.1-4.2c0.601-0.434,1.617-1.083,3.051-1.95c0.6-0.833,1.483-1.5,2.649-2c2.434-1,4.066-1.717,4.9-2.15
		c1.8-0.967,3.3-1.184,4.5-0.65c2.633,1.167,4.1,1.783,4.399,1.85c1.134,0.233,3.517,0.367,7.15,0.4
		C263.134,32.2,264.55,32.517,264.75,33.15z"/>
	<path style="fill-rule:evenodd;clip-rule:evenodd;fill:#1F2433;" d="M251.25,48.95c1.1-0.3,2.816-0.833,5.15-1.6
		c1.933-0.533,3.25-0.617,3.949-0.25c0.9,0.467,1.467,1.9,1.7,4.3c0.267,2.667-0.434,4.483-2.1,5.45
		c-1.601,0.933-3.233,1.066-4.9,0.4c-2.066-1.167-3.783-2.05-5.149-2.65c-1.9-0.867-2.601-1.917-2.101-3.15
		C248.267,50.317,249.417,49.483,251.25,48.95z"/>
	<path style="fill-rule:evenodd;clip-rule:evenodd;fill:#1F2433;" d="M243.45,17.65c-0.967,2.367-2.634,4.5-5,6.4
		c-2.9,2.3-6.533,4.067-10.9,5.3c-4.3,1.2-8.3,1.617-12,1.25c-6.2-0.667-8-4.6-5.399-11.8c1.033-2.833,2.566-5.55,4.6-8.15
		s3.967-4.35,5.8-5.25c0.533-0.267,1.7-0.733,3.5-1.4c1.467-0.533,2.601-1.05,3.4-1.55l0.8-0.55c1.233-0.833,1.95-1.3,2.15-1.4
		c0.8-0.4,1.649-0.567,2.55-0.5c2.767,0.167,5.55,1.117,8.35,2.85c3.3,2.066,4.667,4.417,4.101,7.05
		C244.533,14,243.884,16.583,243.45,17.65z"/>
	<path style="fill-rule:evenodd;clip-rule:evenodd;fill:#1F2433;" d="M317.1,25.1c-0.3,0.8-0.683,1.617-1.149,2.45
		c-0.934,1.633-1.8,2.534-2.601,2.7c-0.866,0.2-1.283-0.25-1.25-1.35c0-0.633,0.233-1.983,0.7-4.05
		c0.334-1.434,1.084-1.983,2.25-1.65C316.15,23.533,316.833,24.167,317.1,25.1z"/>
	<path style="fill-rule:evenodd;clip-rule:evenodd;fill:#1F2433;" d="M53.55,28.5c0.233-1.2,0.6-2.383,1.1-3.55
		c0.567-1.333,1.75-2.083,3.55-2.25c1.066-0.1,2.85-0.067,5.35,0.1c2.034,0.034,4.067,0.95,6.1,2.75c1.434,1.233,2.35,2.3,2.75,3.2
		c0.167,0.267,0.05,0.967-0.35,2.1c-0.733,2.167-1.167,3.45-1.3,3.85c-0.667,2.333-3.4,4.033-8.2,5.1
		c-3.267,0.667-6.783,0.917-10.55,0.75c-1.367-0.033-1.817-0.85-1.35-2.45c0.9-2.233,1.533-4.017,1.9-5.35
		C52.817,31.783,53.15,30.367,53.55,28.5z"/>
	<path style="fill-rule:evenodd;clip-rule:evenodd;fill:#1F2433;" d="M248.45,17.1c0.434-1.033,1.95-1.05,4.55-0.05
		c0.267,0.1,2.267,1.05,6,2.85c2,1,3.884,2.184,5.65,3.55c2.133,1.667,2.649,2.633,1.55,2.9c-4.467,1.167-8.45,1.9-11.95,2.2
		c-1.767,0.133-3.467-0.767-5.1-2.7c-0.634-0.767-1.7-2.383-3.2-4.85c-0.566-0.933-0.467-1.6,0.3-2
		C247.417,18.4,248.15,17.767,248.45,17.1z"/>
	<path style="fill-rule:evenodd;clip-rule:evenodd;fill:#1F2433;" d="M6.95,75.05c-1.333,2-2.867,2.334-4.6,1
		c-1.333-1.033-2.117-2.1-2.35-3.2c-0.1-0.5,0.1-1.25,0.6-2.25c0.5-0.966,1.05-1.716,1.65-2.25c2.2-2,3.767-2.616,4.7-1.85
		c0.767,0.634,1.183,1.833,1.25,3.6C8.3,72,7.883,73.65,6.95,75.05z"/>
	<path style="fill-rule:evenodd;clip-rule:evenodd;fill:#1F2433;" d="M41.95,44.8l-1.35,1.35c-1.767,1.567-4.867,3.467-9.3,5.7
		c-1.1,0.6-2.283,1.033-3.55,1.3L27.7,53.1c-1.4,0.3-3.034,0.383-4.9,0.25c-1.066-0.1-3.117-0.367-6.15-0.8
		c-3.3-0.466-6.566-1.75-9.8-3.85C5.317,47.667,4.033,46.633,3,45.6c-0.7-0.767-1.033-2.833-1-6.2c0.033-5.367,0.033-8.25,0-8.65
		c8.4,4.467,8.4,4.45,0-0.05H1.95L1.8,29.2c-0.3-1.9,0.617-3.583,2.75-5.05c2.5-1.333,4.067-2.283,4.7-2.85h0.1l0.35-0.4
		c0.4-0.7,1.333-1.383,2.8-2.05c1.867-0.867,2.9-1.367,3.1-1.5c0.633-0.467,1.483-0.7,2.55-0.7c0.6,0,1.733,0.133,3.4,0.4
		c1.1,0.167,2.333-0.017,3.7-0.55c0.833-0.3,2.1-0.867,3.8-1.7c0.567-0.233,1.233-0.383,2-0.45c0.833,0,1.817,0.217,2.95,0.65
		c0.267,0.1,1.5,0.633,3.7,1.6c1.767,0.767,3.4,1.9,4.9,3.4l0.4,0.4c2.067,2.2,3.7,4.817,4.9,7.85c1.033,2.7,1.4,4.717,1.1,6.05
		l-0.15,0.55C48.183,37.183,45.883,40.5,41.95,44.8z"/>
	<path style="fill-rule:evenodd;clip-rule:evenodd;fill:#1F2433;" d="M13.65,78.9c-0.5,0.966-1.283,0.883-2.35-0.25
		c-0.367-0.367-0.6-0.867-0.7-1.5c0-0.134-0.083-1.267-0.25-3.4c-0.133-1.634,0.05-2.634,0.55-3s1.083-0.066,1.75,0.9
		c0.767,1.066,1.267,2.183,1.5,3.35C14.45,76.4,14.283,77.7,13.65,78.9z"/>
	<path style="fill-rule:evenodd;clip-rule:evenodd;fill:#1F2433;" d="M362.4,26.4c0.433,0.3,0.083,0.883-1.051,1.75
		c-1.133,0.867-2.083,1.3-2.85,1.3c-0.9,0.033-1.667-0.15-2.3-0.55c-0.733-0.467-0.934-1.05-0.601-1.75
		c0.4-0.7,1.417-1.15,3.051-1.35C360.283,25.633,361.533,25.833,362.4,26.4z"/>
	<path style="fill-rule:evenodd;clip-rule:evenodd;fill:#1F2433;" d="M326.8,78.95c1.167-0.967,2.75-1.684,4.75-2.15
		c2.134-0.5,3.617-0.366,4.45,0.4c1.3,1.166,2.583,5.1,3.85,11.8c0.367,2-0.649,4.85-3.05,8.55c-1.833,2.8-4.166,5.667-7,8.601
		c-1.899,2-3.517,2.85-4.85,2.55c-0.733-0.2-1.566-0.917-2.5-2.15c-0.467-0.633-1-1.8-1.601-3.5c-0.899-2.566-1.55-4.316-1.949-5.25
		c-0.7-1.666-0.834-3.017-0.4-4.05c0.833-1.4,1.533-2.8,2.1-4.2c1.2-3,2.051-4.95,2.551-5.85
		C324.184,81.733,325.4,80.15,326.8,78.95z"/>
	<path style="fill-rule:evenodd;clip-rule:evenodd;fill:#1F2433;" d="M320.35,111.5c1,4.267-0.033,6.833-3.1,7.7
		c-1.566,0.434-4.767,0.366-9.6-0.2c-2.167-0.267-4.634-0.767-7.4-1.5c-2.833-0.767-5.134-1.267-6.9-1.5
		c-2.267-0.333-3.166-1.05-2.699-2.15c1.166-1.699,1.866-3.183,2.1-4.449c0.233-2.601,0.4-4.483,0.5-5.65
		c0.2-2.066,0.767-3.417,1.7-4.05c5.133-3.5,10.45-3.684,15.95-0.55C315.934,102.017,319.083,106.134,320.35,111.5z"/>
	<path style="fill-rule:evenodd;clip-rule:evenodd;fill:#1F2433;" d="M290.7,84.55c0.767-0.767,2.416-0.633,4.95,0.4
		c2.6,1.033,3.716,2.2,3.35,3.5c-0.3,1.166-1.066,1.816-2.3,1.95c-1.601-0.034-2.816,0-3.65,0.1c-1.166,0.134-2.05-0.634-2.649-2.3
		C289.833,86.533,289.934,85.316,290.7,84.55z"/>
	<path style="fill-rule:evenodd;clip-rule:evenodd;fill:#1F2433;" d="M169.2,100.8c2.333-1.899,4.716-1.416,7.15,1.45
		c2.333,2.733,3.133,5.05,2.4,6.95c-0.667,1.767-2.067,3.633-4.2,5.6c-2.333,2.2-4.483,3.417-6.45,3.65
		c-1.633,0.2-2.583-0.7-2.85-2.7c-0.4-2.767-0.85-4.45-1.35-5.05c-0.967-1.134-0.583-2.934,1.15-5.4
		C166.317,103.5,167.7,102,169.2,100.8z"/>
	<path style="fill-rule:evenodd;clip-rule:evenodd;fill:#1F2433;" d="M168.6,82c0.733-0.267,1.7,0.35,2.9,1.85
		c1.267,1.567,1.883,2.967,1.85,4.2c-0.033,1.033-0.567,1.384-1.6,1.05c-1.3-0.633-2.2-1-2.7-1.1c-0.8-0.167-1.35-1.083-1.65-2.75
		C167.067,83.517,167.467,82.434,168.6,82z"/>
	<path style="fill-rule:evenodd;clip-rule:evenodd;fill:#1F2433;" d="M227.75,110.3c0.8-0.399,1.7-0.2,2.7,0.601
		c0.866,0.666,1.467,1.433,1.8,2.3c0.233,0.633-0.033,0.934-0.8,0.899c-0.634-0.033-1.4-0.25-2.3-0.649
		c-0.967-0.4-1.65-0.867-2.051-1.4C226.566,111.35,226.783,110.767,227.75,110.3z"/>
	<path style="fill-rule:evenodd;clip-rule:evenodd;fill:#1F2433;" d="M189.85,105.65c1.3,0,2.083,0.783,2.35,2.35
		c0.233,1.533-0.284,2.366-1.55,2.5c-1.367,0.134-2.283-0.65-2.75-2.35C187.433,106.45,188.083,105.616,189.85,105.65z"/>
	<path style="fill-rule:evenodd;clip-rule:evenodd;fill:#1F2433;" d="M383.55,113.4c1.267,0,2.033,0.783,2.3,2.35
		c0.267,1.533-0.233,2.366-1.5,2.5c-1.366,0.134-2.283-0.65-2.75-2.35C381.134,114.2,381.783,113.366,383.55,113.4z"/>
	<path style="fill-rule:evenodd;clip-rule:evenodd;fill:#1F2433;" d="M62.6,96.8c1.566-0.533,2.783-0.616,3.65-0.25
		c1.933,0.834,4,2.5,6.2,5c2.433,2.8,3.75,5.367,3.95,7.7c0.2,1.934-0.833,3.033-3.1,3.3c-3.133,0.367-5.033,0.851-5.7,1.45
		c-1.3,1.134-3.317,0.65-6.05-1.45c-1.966-1.467-3.633-3.1-5-4.899c-2.1-2.801-1.5-5.601,1.8-8.4
		C59.65,98.15,61.067,97.333,62.6,96.8z"/>
	<path style="fill-rule:evenodd;clip-rule:evenodd;fill:#1F2433;" d="M46.7,104.65c-0.267-0.867,0.466-2,2.2-3.4
		c1.733-1.434,3.317-2.134,4.75-2.1c1.167,0.033,1.533,0.683,1.1,1.949c-0.233,0.667-0.667,1.7-1.3,3.101
		c-0.2,0.967-1.25,1.616-3.15,1.95C48.367,106.483,47.167,105.983,46.7,104.65z"/>
	<path style="fill-rule:evenodd;clip-rule:evenodd;fill:#1F2433;" d="M82.8,61.85c3.2-1,6.617-1.2,10.25-0.6
		c4.034,0.667,7.034,1.55,9,2.65c2.233,1.233,3.85,3.067,4.85,5.5c1.167,2.933,2.017,6.433,2.55,10.5
		c0.6,4.699,0.466,8.583-0.4,11.649c-0.7,2.634-2.783,4.55-6.25,5.75c-1.966,0.601-3.466,1.05-4.5,1.351
		c-1.8,0.566-3.233,1.166-4.3,1.8c-1.9,1.166-3.967,1.717-6.2,1.649c-2.566-0.066-4.483,0.15-5.75,0.65
		c-1.9,0.767-4.183-0.033-6.85-2.4c-2.7-2.933-4.5-4.833-5.4-5.699c-2.5-2.5-2.7-7.517-0.6-15.051
		c1.9-6.767,4.017-11.283,6.35-13.55C77.517,64.117,79.933,62.717,82.8,61.85z"/>
	<path style="fill-rule:evenodd;clip-rule:evenodd;fill:#1F2433;" d="M82.6,107.1c1.5-1.399,3.117-2.233,4.85-2.5
		c0.633-0.1,3.466-0.733,8.5-1.899c4.5-1.033,7.816-1.65,9.95-1.851c2.3-0.199,3.15,1.117,2.55,3.95
		c-0.367,1.634-1.25,4.334-2.65,8.101c-0.633,2.133-2.267,3.3-4.9,3.5c-0.566,0.066-3.35-0.134-8.35-0.601
		c-3.533-0.3-6.1-0.733-7.7-1.3c-2.2-0.767-3.533-2.017-4-3.75C80.583,109.717,81.167,108.5,82.6,107.1z"/>
	<path style="fill-rule:evenodd;clip-rule:evenodd;fill:#1F2433;" d="M113.4,86c-0.4-3.033,0.783-6.517,3.55-10.45
		c2.9-4.166,5.966-6.35,9.2-6.55c3.667-0.233,7.4,0.467,11.2,2.1c4.2,1.801,7,4.217,8.4,7.25c1.2,2.567,0.65,5.067-1.65,7.5
		c-1.434,1.367-2.517,2.4-3.25,3.101c-1.367,1.3-2.35,2.483-2.95,3.55c-1.367,2.366-2.667,4.017-3.9,4.95
		c-0.8,0.633-1.917,1.133-3.35,1.5c-0.9,0.233-2.467,0.116-4.7-0.351c-4.4-0.866-6.767-1.333-7.1-1.399
		c-2.367-0.334-3.833-1.384-4.4-3.15C114.083,91.116,113.733,88.434,113.4,86z"/>
	<path style="fill-rule:evenodd;clip-rule:evenodd;fill:#1F2433;" d="M123.5,102c1.233,0.7,2.267,1.767,3.1,3.2
		c0.767,1.233,0.233,2.1-1.6,2.6c-2.633,0.5-4.6,1-5.9,1.5c-2.1,0.834-3.917,0.983-5.45,0.45c-1.667-0.6-2.383-1.833-2.15-3.7
		c0.233-1.8,1.2-3.267,2.9-4.399c1.667-1.101,3.317-1.45,4.95-1.051C121.183,101.033,122.567,101.5,123.5,102z"/>
	<path style="fill-rule:evenodd;clip-rule:evenodd;fill:#1F2433;" d="M134.2,108.45c-0.4-0.3-0.483-1.334-0.25-3.101l0.45-2.6
		l2.5,0.25c1.867,0.3,3.25,0.733,4.15,1.3c0.867,0.566,0.934,1.267,0.2,2.101c-1.2,1.433-1.85,2.283-1.95,2.55
		c-0.3,0.866-1.066,1.166-2.3,0.899C136.067,109.616,135.133,109.15,134.2,108.45z"/>
	<path style="fill-rule:evenodd;clip-rule:evenodd;fill:#1F2433;" d="M109.3,113.65l1.3-0.301c0.967-0.133,1.717,0.017,2.25,0.45
		c0.733,0.566,0.45,0.917-0.85,1.05C110.767,114.983,109.867,114.583,109.3,113.65z"/>
	<path style="fill-rule:evenodd;clip-rule:evenodd;fill:#1F2433;" d="M62.2,92.05c-0.4-0.899-0.15-1.95,0.75-3.149
		c0.767-1,1.633-1.7,2.6-2.101c0.733-0.267,1.067,0.066,1,1c-0.066,0.7-0.316,1.601-0.75,2.7c-0.466,1.134-1.017,1.934-1.65,2.4
		C63.35,93.5,62.7,93.217,62.2,92.05z"/>
	<path style="fill-rule:evenodd;clip-rule:evenodd;fill:#1F2433;" d="M153.6,93.4l1-1.851c0.833-1.233,1.566-1.899,2.2-2
		c0.667-0.1,0.967,0.283,0.9,1.15c-0.034,0.5-0.284,1.533-0.75,3.1c-0.3,1.101-0.9,1.5-1.8,1.2
		C154.317,94.7,153.8,94.167,153.6,93.4z"/>
	<path style="fill-rule:evenodd;clip-rule:evenodd;fill:#1F2433;" d="M285.5,100.55c0.9,0.434,1.316,1.184,1.25,2.25
		c-0.066,0.634-0.233,1.65-0.5,3.05c-0.033,1-0.816,1.617-2.35,1.851c-1.467,0.233-2.45-0.033-2.95-0.8s-0.134-2.117,1.1-4.051
		C283.316,100.85,284.467,100.083,285.5,100.55z"/>
	<path style="fill-rule:evenodd;clip-rule:evenodd;fill:#1F2433;" d="M202.55,92.65c0.067-2.667,1.633-5.517,4.7-8.551
		c3.2-3.166,6.283-4.6,9.25-4.3c3.366,0.334,6.667,1.483,9.9,3.45c3.533,2.2,5.733,4.733,6.6,7.6c0.733,2.4-0.116,4.5-2.55,6.301
		c-1.5,0.966-2.634,1.699-3.4,2.199c-1.434,0.934-2.5,1.817-3.2,2.65c-1.566,1.833-2.983,3.083-4.25,3.75
		c-0.833,0.4-1.916,0.65-3.25,0.75c-0.866,0.066-2.283-0.25-4.25-0.95c-3.933-1.467-6-2.233-6.2-2.3
		c-2.133-0.667-3.316-1.816-3.55-3.45C202.45,97.2,202.517,94.816,202.55,92.65z"/>
	<path style="fill-rule:evenodd;clip-rule:evenodd;fill:#1F2433;" d="M256.9,83c-0.101-0.7,0.033-1.6,0.399-2.7
		c0.434-1.267,2.417-1.267,5.95,0s5.4,2.617,5.6,4.05c0.367,2.4-1.983,3.301-7.05,2.7C258.733,86.684,257.1,85.333,256.9,83z"/>
	<path style="fill-rule:evenodd;clip-rule:evenodd;fill:#1F2433;" d="M246.2,69.4c2.5,0.633,4.55,2.133,6.149,4.5
		c1.601,2.433,2.334,5.183,2.2,8.25c-0.133,2.533-0.899,3.899-2.3,4.1c-1.767-0.167-3.1-0.05-4,0.35
		c-1.033,0.5-2.267,0.684-3.7,0.551c-2.934-0.233-4.916-0.351-5.95-0.351c-2.267,0.033-3.866-0.517-4.8-1.649
		c-2.033-2.567-3.166-3.95-3.399-4.15c-1-0.8-3.301-2.15-6.9-4.05c-2.6-1.367-3.833-2.417-3.7-3.15c0.2-0.967,1.55-2.217,4.05-3.75
		c2.467-1.5,4.65-2.45,6.551-2.85C233.233,66.6,238.5,67.333,246.2,69.4z"/>
	<path style="fill-rule:evenodd;clip-rule:evenodd;fill:#1F2433;" d="M245.6,60.25c1.467,1.833,1.617,3.217,0.45,4.15
		c-1.033,0.9-2.6,1.133-4.7,0.7c-2.699-0.434-4.683-0.783-5.949-1.05c-2.167-0.466-3.5-1.066-4-1.8
		c-0.634-0.933-0.45-2.65,0.55-5.15c1.133-2.767,2.767-4.2,4.899-4.3c2.034-0.1,3.7,0.617,5,2.15
		C242.65,55.883,243.9,57.65,245.6,60.25z"/>
	<path style="fill-rule:evenodd;clip-rule:evenodd;fill:#1F2433;" d="M239.35,106.2c2.167-1.867,4.917-3.117,8.25-3.75
		c4.067-0.767,8.584-0.634,13.551,0.399c4.899,1.034,9.083,2.7,12.55,5c3,2,4.3,4.367,3.899,7.101
		c-0.366,2.399-1.916,4.85-4.649,7.35c-2.467,2.267-5.4,4.167-8.8,5.7c-3.334,1.533-6.15,2.267-8.45,2.2
		c-0.667-0.033-2.066-0.184-4.2-0.45c-1.7-0.2-3.1-0.267-4.2-0.2l-1,0.101c-1.633,0.199-2.583,0.3-2.85,0.3
		c-1.033,0-1.967-0.267-2.8-0.8c-2.667-1.601-4.934-3.983-6.801-7.15c-2.233-3.767-2.383-6.816-0.449-9.15
		C236.4,109.25,238.384,107.033,239.35,106.2z"/>
	<path style="fill-rule:evenodd;clip-rule:evenodd;fill:#1F2433;" d="M226,103.3l1.25-1.6c0.967-1.066,1.767-1.601,2.4-1.601
		c0.666,0,0.899,0.417,0.699,1.25c-0.1,0.467-0.5,1.417-1.199,2.851c-0.467,1-1.117,1.283-1.95,0.85
		C226.467,104.616,226.066,104.033,226,103.3z"/>
	<path style="fill-rule:evenodd;clip-rule:evenodd;fill:#1F2433;" d="M66.55,60.8c-2.333,1.333-4.133,2.45-5.4,3.35
		c-0.9,0.633-2.167,1.617-3.8,2.95c-1.033,0.867-2.2,1.634-3.5,2.301c-1.434,0.767-3.033,0.716-4.8-0.15
		c-2.066-1.366-3.667-2.4-4.8-3.1c-1.833-1.134-3.067-3-3.7-5.601c-0.4-1.633-0.533-3.017-0.4-4.15c0.067-0.3,0.684-0.816,1.85-1.55
		c2-1.267,3.267-2.083,3.8-2.45c2.167-1.533,5.833-1.4,11,0.4c3.167,1.133,6.55,2.883,10.15,5.25
		C68.15,58.85,68.017,59.767,66.55,60.8z"/>
	<path style="fill-rule:evenodd;clip-rule:evenodd;fill:#1F2433;" d="M38.9,72.2c-0.833-2.533-0.633-3.601,0.6-3.2
		c4.9,1.533,9.05,3.15,12.45,4.85c1.7,0.867,2.633,2.551,2.8,5.051c0.067,0.966-0.067,2.883-0.4,5.75
		c-0.1,1.1-0.617,1.583-1.55,1.449c-1.5-0.166-2.617-0.05-3.35,0.351c-1.133,0.633-2.534-0.184-4.2-2.45
		c-0.3-0.4-1.483-2.316-3.55-5.75C40.533,76.35,39.6,74.333,38.9,72.2z"/>
	<path style="fill-rule:evenodd;clip-rule:evenodd;fill:#1F2433;" d="M29.15,60.95c-1-2.2-0.333-3.667,2-4.4
		c1.833-0.566,3.367-0.65,4.6-0.25c0.533,0.167,1.1,0.733,1.7,1.7c0.566,0.933,0.9,1.783,1,2.55c0.466,2.9,0.033,4.534-1.3,4.9
		c-1.1,0.3-2.5,0.033-4.2-0.8C31.117,63.717,29.85,62.483,29.15,60.95z"/>
	<path style="fill-rule:evenodd;clip-rule:evenodd;fill:#1F2433;" d="M21.1,64.5c-0.567-0.967,0.033-1.583,1.8-1.85
		c0.567-0.1,1.184-0.017,1.85,0.25c0.467,0.2,1.6,0.717,3.4,1.55c1.633,0.767,2.45,1.466,2.45,2.1c0.033,0.566-0.633,0.884-2,0.95
		C24.933,67.7,22.433,66.7,21.1,64.5z"/>
	<path style="fill-rule:evenodd;clip-rule:evenodd;fill:#1F2433;" d="M63.35,51.55c-0.2-0.5,0.517-0.783,2.15-0.85
		c1.633-0.067,2.817,0.1,3.55,0.5c0.833,0.5,1.4,1.083,1.7,1.75c0.333,0.8,0.117,1.383-0.65,1.75c-0.833,0.367-2.067,0.167-3.7-0.6
		S63.75,52.483,63.35,51.55z"/>
	<path style="fill-rule:evenodd;clip-rule:evenodd;fill:#1F2433;" d="M177.4,90.9c0.233-2.2,1.133-4.217,2.7-6.051
		c1.267-1.466,2.717-2.633,4.35-3.5c1.7-0.866,3.617-1.649,5.75-2.35c2.6-0.866,4.367-1.15,5.3-0.85
		c0.8,0.267,0.967,1.333,0.5,3.199c-0.733,2.867-1.1,4.601-1.1,5.2c-0.033,1.533-0.583,3.084-1.65,4.65
		c-0.8,1.267-2.05,2.7-3.75,4.3c-2.7,2.566-5.5,3.1-8.4,1.6C178.333,95.667,177.1,93.6,177.4,90.9z"/>
	<path style="fill-rule:evenodd;clip-rule:evenodd;fill:#1F2433;" d="M208.95,64.2c0.1-1.4,1.333-2.6,3.7-3.6
		c2.433-0.967,4.366-1.017,5.8-0.15c1.233,0.733,1.25,1.617,0.05,2.65c-1.833,1.267-3.116,2.267-3.85,3
		c-1.101,1.134-2.334,1.5-3.7,1.101C209.55,66.8,208.884,65.8,208.95,64.2z"/>
	<path style="fill-rule:evenodd;clip-rule:evenodd;fill:#1F2433;" d="M180.05,58c0.4-2.133,1.417-4.117,3.05-5.95
		c1.667-1.867,3.316-2.783,4.95-2.75c1.434,0.034,2.633,0.534,3.6,1.5c0.133,0.167,1.167,1.517,3.1,4.05
		c1.233,1.6,1.533,3.033,0.9,4.3c-0.5,1-1.633,1.95-3.4,2.85c-1.367,0.667-2.7,1.267-4,1.8c-0.4,0.167-2.317,0.917-5.75,2.25
		c-2.333,0.9-3.533,0.417-3.6-1.45C178.9,64.233,179.283,62.033,180.05,58z"/>
	<path style="fill-rule:evenodd;clip-rule:evenodd;fill:#1F2433;" d="M160.65,75.55c-0.867,1.2-1.967,1.917-3.3,2.15
		c-1.367,0.267-2.55-0.066-3.55-1c-1.5-1.334-1.1-4.2,1.2-8.601c0.5-0.966,1.417-1.449,2.75-1.449c0.967,0.033,2.1,0.316,3.4,0.85
		c0.967,0.4,1.367,1.5,1.2,3.3C162.217,72.566,161.65,74.15,160.65,75.55z"/>
	<path style="fill-rule:evenodd;clip-rule:evenodd;fill:#1F2433;" d="M10.3,110c-0.833,1.2-1.917,1.917-3.25,2.15
		c-1.4,0.267-2.6-0.067-3.6-1c-1.434-1.334-1.034-4.2,1.2-8.601c0.9-1.733,2.95-1.95,6.15-0.649c0.967,0.433,1.383,1.55,1.25,3.35
		C11.917,107.017,11.333,108.6,10.3,110z"/>
	<path style="fill-rule:evenodd;clip-rule:evenodd;fill:#1F2433;" d="M408.55,98.4c-1.434-1.301-1.033-4.167,1.2-8.601
		c0.5-0.967,1.417-1.45,2.75-1.45c0.967,0.034,2.1,0.317,3.4,0.851c0.966,0.399,1.366,1.5,1.199,3.3
		c-0.133,1.767-0.699,3.35-1.699,4.75c-0.834,1.2-1.917,1.917-3.25,2.15C410.75,99.667,409.55,99.333,408.55,98.4z"/>
	<path style="fill-rule:evenodd;clip-rule:evenodd;fill:#1F2433;" d="M119.75,59.75c-0.567,0.6-1.45,0.3-2.65-0.9
		c-1.267-1.267-1.917-2.733-1.95-4.4c-0.033-1.633,0.283-2.633,0.95-3c0.467-0.267,1.283-0.2,2.45,0.2c1,0.4,1.667,1.6,2,3.6
		C120.883,57.317,120.617,58.817,119.75,59.75z"/>
	<path style="fill-rule:evenodd;clip-rule:evenodd;fill:#1F2433;" d="M18.4,96.4c0.7-0.867,3.233-3.301,7.6-7.301
		c2.467-2.233,4.317-2.733,5.55-1.5c0.3,0.301,1.017,1.267,2.15,2.9c1.167,1.634,2.316,3.033,3.45,4.2
		c2.767,2.733,3.483,7,2.15,12.8c-1.133,4.934-3.2,9.316-6.2,13.15c-2.633,3.366-4.917,3.75-6.85,1.149
		c-3.033-4.133-4.983-6.866-5.85-8.2c-2.767-4.267-4.3-7.566-4.6-9.899C15.467,101.3,16.333,98.866,18.4,96.4z"/>
	<path style="fill-rule:evenodd;clip-rule:evenodd;fill:#1F2433;" d="M400,103.6c1.533,1.334,2.15,2.684,1.85,4.051
		c-0.199,0.899-0.933,2.033-2.199,3.399c-1.267,1.467-2.301,2.601-3.101,3.4c-1.434,1.399-3.184,2.75-5.25,4.05
		c-1.967,1.233-2.934,1.333-2.899,0.3c0.033-2.399,0.05-3.616,0.05-3.649c-0.967-1.5-1.684-2.717-2.15-3.65
		c-0.833-1.7-1-3.333-0.5-4.9c0.733-2.166,2.851-3.583,6.351-4.25C395.583,101.684,398.2,102.1,400,103.6z"/>
	<path style="fill-rule:evenodd;clip-rule:evenodd;fill:#1F2433;" d="M404.55,73.45c-1.434,1.233-2.399,1.083-2.899-0.45
		c-0.467-1.5-0.267-2.866,0.6-4.1c0.634-0.9,1.533-0.65,2.7,0.75C406.116,71.017,405.983,72.283,404.55,73.45z"/>
	<path style="fill-rule:evenodd;clip-rule:evenodd;fill:#1F2433;" d="M389.8,63.9c-0.566,0.6-1.45,0.3-2.649-0.9
		c-1.267-1.267-1.917-2.717-1.95-4.35s0.283-2.633,0.95-3c0.466-0.3,1.267-0.25,2.399,0.15c1,0.4,1.667,1.6,2,3.6
		C390.917,61.467,390.667,62.967,389.8,63.9z"/>
	<path style="fill-rule:evenodd;clip-rule:evenodd;fill:#1F2433;" d="M279.2,70.8c-3.033-1.7-5.467-3.75-7.3-6.15
		c-2-2.667-2.167-4.483-0.5-5.45c2.033-1.2,4.683-2.2,7.949-3c3.733-0.967,7.084-1.317,10.051-1.05c2.666,0.2,5.983-0.25,9.949-1.35
		c2.2-0.6,5.45-1.583,9.75-2.95c2.834-0.767,6.017,0.483,9.551,3.75c3.166,2.933,5.1,5.783,5.8,8.55
		c1.733,6.8,0.2,12.034-4.601,15.7c-4.5,3.467-10.366,4.601-17.6,3.4c-5.634-0.934-10.5-2.733-14.6-5.4
		C283.85,73.85,281.033,71.833,279.2,70.8z"/>
	<path style="fill-rule:evenodd;clip-rule:evenodd;fill:#1F2433;" d="M355.8,78.05c1.867-0.666,3.15-0.75,3.851-0.25
		c0.833,0.601,1.383,2.101,1.649,4.5c0.3,2.566,0.084,4.816-0.649,6.75c-0.634,1.667-2.284,3.167-4.95,4.5c-3,1.233-5,2.117-6,2.65
		c-1.066,0.6-1.517-0.084-1.351-2.05c0.233-2.567,0.134-4.117-0.3-4.65c-0.7-0.833-0.517-2.384,0.55-4.65
		c0.967-2.033,2.034-3.55,3.2-4.55C352.8,79.434,354.134,78.684,355.8,78.05z"/>
	<path style="fill-rule:evenodd;clip-rule:evenodd;fill:#1F2433;" d="M355.9,66.95c1-0.7,2.033-0.934,3.1-0.7
		c1.134,0.2,1.95,0.833,2.45,1.9c0.767,1.433-0.316,3.566-3.25,6.399c-0.634,0.601-1.467,0.7-2.5,0.3
		c-0.767-0.333-1.55-0.899-2.351-1.699c-0.633-0.601-0.649-1.584-0.05-2.95C353.866,68.866,354.733,67.783,355.9,66.95z"/>
	<path style="fill-rule:evenodd;clip-rule:evenodd;fill:#1F2433;" d="M363.8,97.4c0.4-2.134,0.517-3.983,0.351-5.551
		c-0.233-1.866-0.434-4.449-0.601-7.75c-0.133-2.1-0.434-4.133-0.899-6.1c-0.5-2.167,0-4.25,1.5-6.25
		c0.899-1.233,2.633-3.366,5.199-6.4c1.101-1.633,3.25-3.25,6.45-4.85c2.7-1.367,4.384-2.033,5.05-2c0.434,0.033,1.767,2.083,4,6.15
		c2.4,4.367,4.084,8.1,5.051,11.2c0.966,3.034,0.916,6.117-0.15,9.25c-0.533,1.567-2.184,4.851-4.95,9.851
		c-2.033,3.7-4.816,6.633-8.35,8.8c-3.334,2.033-6.834,3.1-10.5,3.2c-2.733,0.066-3.8-1.5-3.2-4.7
		C363.217,100.184,363.566,98.566,363.8,97.4z"/>
	<path style="fill-rule:evenodd;clip-rule:evenodd;fill:#1F2433;" d="M376.05,109c0.601,0.2,0.417,0.9-0.55,2.1
		c-0.967,1.167-1.783,1.517-2.45,1.051c-0.767-0.5-0.75-1.25,0.05-2.25C373.866,108.934,374.85,108.634,376.05,109z"/>
	<path style="fill-rule:evenodd;clip-rule:evenodd;fill:#1F2433;" d="M389.6,90.25c0.567-0.9,1.65-1.7,3.25-2.4
		c1.667-0.767,2.584-0.699,2.75,0.2c0.101,0.667,0.334,2.066,0.7,4.2c0.167,1.934-0.116,3.267-0.85,4
		c-0.733,0.8-1.601,1.233-2.601,1.3c-0.533,0.033-1.366-0.083-2.5-0.35c-0.866-0.167-1.433-0.967-1.699-2.4
		C388.35,93.267,388.667,91.75,389.6,90.25z"/>
	<path style="fill-rule:evenodd;clip-rule:evenodd;fill:#1F2433;" d="M354.05,97.5c1.066-0.333,2.351-0.134,3.851,0.6
		c1.5,0.7,2.316,1.483,2.449,2.351c0.233,1.333-1.116,4.883-4.05,10.649c-0.899,1.733-2.267,1.617-4.1-0.35
		c-1.967-2.667-3.3-4.366-4-5.1c-1.066-1.101-0.967-2.534,0.3-4.301S351.616,98.3,354.05,97.5z"/>
	<path style="fill-rule:evenodd;clip-rule:evenodd;fill:#1F2433;" d="M350.2,63.15c-2.2,1.067-4.084,2-5.65,2.8
		c-2.5,1.267-4.467,1.934-5.899,2c-1.7,0.1-3.301-0.533-4.801-1.9c-0.566-0.533,0.117-1.716,2.051-3.55
		c1.066-0.967,2.6-2.317,4.6-4.05c0.833-0.833,2.866-1.633,6.1-2.4c1.834-0.466,4.634-1.066,8.4-1.8c2.733-0.6,4.967-0.633,6.7-0.1
		c1.833,0.533,1.95,1.5,0.35,2.9c-1.233,1.1-3.033,1.967-5.399,2.6c-2.101,0.567-3.284,1.05-3.551,1.45
		C352.7,61.7,351.733,62.383,350.2,63.15z"/>
	<g>
		<path style="fill-rule:evenodd;clip-rule:evenodd;fill:#1F2433;" d="M108.2,2.6c1.633,0.167,3.667,1.683,6.1,4.55
			c2.4,2.767,3.583,4.817,3.55,6.15c-0.033,1.434-0.767,3.133-2.2,5.1c-1.667,2.2-3.566,3.633-5.7,4.3
			c-2.367,0.733-6.2,0.917-11.5,0.55c-5.333-0.4-9.117-1.15-11.35-2.25c-1.767-0.867-1.95-2.433-0.55-4.7
			c2.467-4,3.867-6.633,4.2-7.9c0.767-2.867,3.15-4.733,7.15-5.6C100.8,2.2,104.233,2.133,108.2,2.6z"/>
		<path style="fill-rule:evenodd;clip-rule:evenodd;fill:#1F2433;" d="M99.8,37.5c2.2,0.2,3.7,1.967,4.5,5.3
			c0.8,3.267,0.45,5.45-1.05,6.55c-2.433,1.833-6.967,2.15-13.6,0.95c-2.4-0.433-3.45-1.433-3.15-3c0.833-2.066,1.2-3.667,1.1-4.8
			c-0.1-1.633,1.183-2.95,3.85-3.95C93.95,37.583,96.733,37.233,99.8,37.5z"/>
		<path style="fill-rule:evenodd;clip-rule:evenodd;fill:#1F2433;" d="M115.35,33.5c1.167,0.533,1.267,2.167,0.3,4.9
			c-1,2.833-2.617,4.883-4.85,6.15c-1.9,1.1-2.883,1.1-2.95,0c0.233-1.566,0.2-2.617-0.1-3.15c-0.567-0.967,0.117-2.7,2.05-5.2
			C111.8,33.633,113.65,32.733,115.35,33.5z"/>
	</g>
</g>
</svg>
