<?xml version="1.0" encoding="iso-8859-1"?>
<!-- Generator: Adobe Illustrator 15.1.0, SVG Export Plug-In . SVG Version: 6.00 Build 0)  -->
<!DOCTYPE svg PUBLIC "-//W3C//DTD SVG 1.1//EN" "http://www.w3.org/Graphics/SVG/1.1/DTD/svg11.dtd">
<svg version="1.1" xmlns="http://www.w3.org/2000/svg" xmlns:xlink="http://www.w3.org/1999/xlink" x="0px" y="0px"
	 width="197.15px" height="117.55px" viewBox="0 0 197.15 117.55" style="enable-background:new 0 0 197.15 117.55;"
	 xml:space="preserve">
<symbol  id="FlashAICB_x5F_1_x2F_Layer_1_x2F__x3C_Clip_Group_0_x3E_" viewBox="0.016 -89.35 180.034 89.357">
	<g id="Layer_1_35_">
	</g>
	<g>
		<defs>
			<path id="SVGID_1_" d="M173.85-2.85c-11.5,0.033-25.184,0.333-41.05,0.9c-9.2,0.367-22.867,0.983-41,1.85
				c-5.133,0.267-13.283,0.033-24.45-0.7c-12.167-0.8-20.3-1.184-24.4-1.15c-4.8,0.067-11.767-0.667-20.9-2.2
				c-8.8-1.5-15.667-3.067-20.6-4.7c0.066-9.767,4-19,11.8-27.7c2.433-2.7,6.383-6.417,11.85-11.15c5.5-4.733,9.45-8.45,11.85-11.15
				c4.3-4.833,7.867-8.5,10.7-11c4.067-3.566,8.333-6.45,12.8-8.65c1.2-0.6,2.983-1.6,5.35-3c2.133-1.2,4-1.933,5.6-2.2
				c1.467-0.267,3.45-0.1,5.95,0.5c2.733,0.6,4.7,0.867,5.9,0.8c2.133-0.133,5.45-1.167,9.95-3.1c4.267-1.833,7.65-2.717,10.15-2.65
				l1.9,0.15c3,0.5,6.633,2.633,10.9,6.4c6.2,5.5,9.467,8.367,9.8,8.6c0.633,0.433,3.483,2.25,8.55,5.45
				c3.467,2.2,6.217,4.15,8.25,5.85c2.333,1.934,4.733,4.6,7.2,8c1.433,1.9,3.533,4.833,6.3,8.8
				c6.167,8.1,10.483,14.617,12.95,19.55C173.2-17.283,174.75-9.783,173.85-2.85z"/>
		</defs>
		<clipPath id="SVGID_2_">
			<use xlink:href="#SVGID_1_"  style="overflow:visible;"/>
		</clipPath>
		<g id="Layer_3_1_" style="clip-path:url(#SVGID_2_);">
			<g>
				<g>
					<g>
						
							<use xlink:href="#FlashAICB_x5F_1_x2F_Layer_1_x2F__x3C_Group_x3E_"  width="180.034" height="74.876" x="0.016" y="-74.9" transform="matrix(1 0 0 1 0 -14.4502)" style="overflow:visible;opacity:0.25;enable-background:new    ;"/>
					</g>
				</g>
			</g>
		</g>
	</g>
	<g id="Layer_4_1_">
	</g>
</symbol>
<symbol  id="FlashAICB_x5F_1_x2F_Layer_1_x2F__x3C_Group_x3E_" viewBox="0.016 -74.9 180.034 74.876">
	<g id="Layer_1_32_">
		<g>
			
				<use xlink:href="#FlashAICB_x5F_1_x2F_Layer_1_x2F__x3C_Path_x3E__x5F_1"  width="180.034" height="52.105" x="0.016" y="-52.129" style="overflow:visible;opacity:0.2188;enable-background:new    ;"/>
			<path style="fill-rule:evenodd;clip-rule:evenodd;fill:#011C28;" d="M84.65-60.5c8.167,0.833,16.967,1.967,26.4,3.4
				c1.9,0.3,5.1,0.467,9.6,0.5c3.934,0.067,7.067,0.367,9.4,0.9c1.633,0.4,3.65,1.15,6.05,2.25l3.95,1.85
				c-0.367-0.6-1.033-1.217-2-1.85c-1.133-0.667-1.983-1.167-2.55-1.5c-1-0.633-2.483-1.733-4.45-3.3
				c-2.033-1.567-3.583-2.7-4.65-3.4c-5.267-4-9.233-6.867-11.9-8.6c-4.633-3.067-9.183-4.617-13.65-4.65
				c-1.7,0-4.25,0.167-7.65,0.5c-3.367,0.333-5.934,0.5-7.7,0.5c-3.967-0.1-6.933-0.15-8.9-0.15c-3.5,0.066-6.434,0.433-8.8,1.1
				c-3.233,0.867-6.9,2.467-11,4.8c-1.367,0.767-2.917,1.9-4.65,3.4c-1.9,1.733-3.316,3-4.25,3.8c-0.733,0.633-2.233,2.067-4.5,4.3
				c-2.667,2.6-3.867,3.95-3.6,4.05c1.767,0.567,4.3,0.434,7.6-0.4c1.1-0.267,3.6-1.033,7.5-2.3c2-0.7,3.467-1.133,4.4-1.3
				c2.934-0.533,7.117-1.5,12.55-2.9C76.683-60.567,80.95-60.9,84.65-60.5z"/>
		</g>
	</g>
</symbol>
<symbol  id="FlashAICB_x5F_1_x2F_Layer_1_x2F__x3C_Group_x3E__x5F_1" viewBox="-0.05 -41.808 36.606 41.811">
	<g id="Layer_1_34_">
		<g>
			
				<use xlink:href="#FlashAICB_x5F_1_x2F_Layer_1_x2F__x3C_Path_x3E__x5F_7_x5F_0"  width="5.634" height="5.193" x="-0.121" y="-5.169" transform="matrix(1 0 0 1 9.25 -32.3999)" style="overflow:visible;opacity:0.4805;enable-background:new    ;"/>
			
				<use xlink:href="#FlashAICB_x5F_1_x2F_Layer_1_x2F__x3C_Path_x3E__x5F_6_x5F_0"  width="2.067" height="2.953" x="-0.023" y="-2.935" transform="matrix(1 0 0 1 5.6499 -35.5498)" style="overflow:visible;opacity:0.4805;enable-background:new    ;"/>
			
				<use xlink:href="#FlashAICB_x5F_1_x2F_Layer_1_x2F__x3C_Path_x3E__x5F_5_x5F_0"  width="1.511" height="1.464" x="-0.05" y="-1.461" transform="matrix(1 0 0 1 29 0)" style="overflow:visible;opacity:0.4805;enable-background:new    ;"/>
			
				<use xlink:href="#FlashAICB_x5F_1_x2F_Layer_1_x2F__x3C_Path_x3E__x5F_4_x5F_0"  width="2.593" height="2.483" x="-0.063" y="-2.457" transform="matrix(1 0 0 1 26.6499 -2.5)" style="overflow:visible;opacity:0.4805;enable-background:new    ;"/>
			
				<use xlink:href="#FlashAICB_x5F_1_x2F_Layer_1_x2F__x3C_Path_x3E__x5F_3_x5F_0"  width="2.619" height="2.483" x="-0.063" y="-2.457" transform="matrix(1 0 0 1 34 -15.2002)" style="overflow:visible;opacity:0.4805;enable-background:new    ;"/>
			
				<use xlink:href="#FlashAICB_x5F_1_x2F_Layer_1_x2F__x3C_Path_x3E__x5F_2_x5F_0"  width="2.001" height="2.026" x="0" y="-2.008" transform="matrix(1 0 0 1 18.7998 -23.5498)" style="overflow:visible;opacity:0.4805;enable-background:new    ;"/>
			
				<use xlink:href="#FlashAICB_x5F_1_x2F_Layer_1_x2F__x3C_Path_x3E__x5F_1_x5F_1"  width="1.413" height="1.024" x="-0.063" y="-1.02" transform="matrix(1 0 0 1 25 -15.2998)" style="overflow:visible;opacity:0.4805;enable-background:new    ;"/>
			
				<use xlink:href="#FlashAICB_x5F_1_x2F_Layer_1_x2F__x3C_Path_x3E__x5F_0"  width="2.051" height="2.026" x="-0.05" y="-2.008" transform="matrix(1 0 0 1 0 -39.7998)" style="overflow:visible;opacity:0.4805;enable-background:new    ;"/>
		</g>
	</g>
</symbol>
<symbol  id="FlashAICB_x5F_1_x2F_Layer_1_x2F__x3C_Group_x3E__x5F_2" viewBox="-0.053 -45.805 32.247 45.866">
	<g id="Layer_1_33_">
		<g>
			
				<use xlink:href="#FlashAICB_x5F_1_x2F_Layer_1_x2F__x3C_Path_x3E__x5F_8"  width="4.862" height="7.528" x="-0.101" y="-7.323" transform="matrix(1 0 0 1 19.8999 -26.8501)" style="overflow:visible;opacity:0.4805;enable-background:new    ;"/>
			
				<use xlink:href="#FlashAICB_x5F_1_x2F_Layer_1_x2F__x3C_Path_x3E__x5F_7"  width="5.02" height="9.353" y="-9.215" transform="matrix(1 0 0 1 0 -11.1499)" style="overflow:visible;opacity:0.4805;enable-background:new    ;"/>
			
				<use xlink:href="#FlashAICB_x5F_1_x2F_Layer_1_x2F__x3C_Path_x3E__x5F_6"  width="2.914" height="2.914" x="-0.001" y="-2.876" transform="matrix(1 0 0 1 21.6499 -22.6499)" style="overflow:visible;opacity:0.4805;enable-background:new    ;"/>
			
				<use xlink:href="#FlashAICB_x5F_1_x2F_Layer_1_x2F__x3C_Path_x3E__x5F_5"  width="3.577" height="6.004" x="-0.033" y="-5.882" transform="matrix(1 0 0 1 28.6499 -33.0498)" style="overflow:visible;opacity:0.4805;enable-background:new    ;"/>
			
				<use xlink:href="#FlashAICB_x5F_1_x2F_Layer_1_x2F__x3C_Path_x3E__x5F_4"  width="2.519" height="3.172" x="-0.009" y="-3.093" transform="matrix(1 0 0 1 6.0498 -5.4502)" style="overflow:visible;opacity:0.4805;enable-background:new    ;"/>
			
				<use xlink:href="#FlashAICB_x5F_1_x2F_Layer_1_x2F__x3C_Path_x3E__x5F_3"  width="4.064" height="5.663" x="0.027" y="-5.503" transform="matrix(1 0 0 1 5.4502 -23.3501)" style="overflow:visible;opacity:0.4805;enable-background:new    ;"/>
			
				<use xlink:href="#FlashAICB_x5F_1_x2F_Layer_1_x2F__x3C_Path_x3E__x5F_2"  width="7.837" height="13.353" x="-0.083" y="-13.312" transform="matrix(1 0 0 1 8.1001 -12.75)" style="overflow:visible;opacity:0.4805;enable-background:new    ;"/>
			
				<use xlink:href="#FlashAICB_x5F_1_x2F_Layer_1_x2F__x3C_Path_x3E__x5F_1_x5F_0"  width="1.768" height="2.784" x="-0.044" y="-2.755" transform="matrix(1 0 0 1 27 -43.0498)" style="overflow:visible;opacity:0.4805;enable-background:new    ;"/>
			
				<use xlink:href="#FlashAICB_x5F_1_x2F_Layer_1_x2F__x3C_Path_x3E_"  width="1.76" height="2.817" x="-0.053" y="-2.755" style="overflow:visible;opacity:0.4805;enable-background:new    ;"/>
		</g>
	</g>
</symbol>
<symbol  id="FlashAICB_x5F_1_x2F_Layer_1_x2F__x3C_Path_x3E_" viewBox="-0.053 -2.755 1.76 2.817">
	<g id="Layer_1_12_">
		<path style="fill-rule:evenodd;clip-rule:evenodd;fill:#7AA2A6;" d="M1.45-2.4C0.95-2.933,0.533-2.867,0.2-2.2
			c-0.3,0.667-0.333,1.3-0.1,1.9c0.233,0.566,0.617,0.466,1.15-0.3C1.783-1.4,1.85-2,1.45-2.4z"/>
	</g>
</symbol>
<symbol  id="FlashAICB_x5F_1_x2F_Layer_1_x2F__x3C_Path_x3E__x5F_0" viewBox="-0.05 -2.008 2.051 2.026">
	<g id="Layer_1_25_">
		<path style="fill-rule:evenodd;clip-rule:evenodd;fill:#7AA2A6;" d="M1.4,0c0.633-0.133,0.767-0.483,0.4-1.05
			C1.433-1.617,0.967-1.933,0.4-2c-0.5-0.067-0.583,0.267-0.25,1C0.483-0.233,0.9,0.1,1.4,0z"/>
	</g>
</symbol>
<symbol  id="FlashAICB_x5F_1_x2F_Layer_1_x2F__x3C_Path_x3E__x5F_1" viewBox="0.016 -52.129 180.034 52.105">
	<g id="Layer_1_3_">
		
			<linearGradient id="SVGID_3_" gradientUnits="userSpaceOnUse" x1="16007.9502" y1="-16239.9238" x2="16187.9844" y2="-16239.9238" gradientTransform="matrix(-1 0 0 -1 16188 -16266)">
			<stop  offset="0" style="stop-color:#83A7AA"/>
			<stop  offset="0.2667" style="stop-color:#75A7A9"/>
			<stop  offset="0.498" style="stop-color:#70A7A9"/>
			<stop  offset="0.7216" style="stop-color:#74A7A9"/>
			<stop  offset="0.9922" style="stop-color:#82A7AA"/>
			<stop  offset="1" style="stop-color:#83A7AA"/>
		</linearGradient>
		<path style="fill-rule:evenodd;clip-rule:evenodd;fill:url(#SVGID_3_);" d="M165.75-17.2c6.6,1.934,11.367,3.267,14.3,4
			c-0.2-0.066-0.767-1.1-1.7-3.1c-1-2.167-1.65-3.4-1.95-3.7c-0.5-0.5-1.3-1.117-2.4-1.85c-1.3-0.833-2.15-1.417-2.55-1.75
			c-5.267-4.2-10.367-7.75-15.3-10.65c-2-1.2-4.25-2.067-6.75-2.6c-1.867-0.433-4.267-0.733-7.2-0.9
			c-0.333-0.033-0.983-0.017-1.95,0.05c-0.833,0.067-1.4,0.067-1.7,0c-0.167-0.033-0.466-0.183-0.9-0.45
			c-0.467-0.233-0.5-0.3-0.1-0.2c1.767,0.6,0.2-0.05-4.7-1.95c-5.6-2.633-9.867-4.65-12.8-6.05c-5.3-2.5-9.683-4.117-13.15-4.85
			c-3.767-0.8-8.4-1.083-13.9-0.85c-3.6,0.167-8.25,0.617-13.95,1.35c-4.333,0.567-7.933,1.184-10.8,1.85
			c-3.567,0.8-7.067,1.917-10.5,3.35c-7.167,2.933-15.1,6.617-23.8,11.05c-1.367,0.7-2.983,1.15-4.85,1.35
			c-2.167,0.133-3.867,0.283-5.1,0.45c-4.3,0.533-8.5,1.983-12.6,4.35c-1.4,0.767-2.683,1.733-3.85,2.9
			C3.783-21.533,1.333-15.95,0.2-8.65C-0.3-5.183,0.217-2.867,1.75-1.7c1.167,0.9,3.633,1.434,7.4,1.6
			c4.4,0.233,7.533-0.066,9.4-0.9c1.034-0.467,3.434-2.267,7.2-5.4c4.567-3.833,11.8-8.783,21.7-14.85
			c6.3-3.867,14.333-6.45,24.1-7.75c7.2-0.933,15.767-1.183,25.7-0.75c8.3,0.4,17.367,1.433,27.2,3.1
			c7.267,1.233,16.216,3.083,26.85,5.55C154.733-20.3,159.55-19,165.75-17.2z"/>
	</g>
</symbol>
<symbol  id="FlashAICB_x5F_1_x2F_Layer_1_x2F__x3C_Path_x3E__x5F_10" viewBox="-0.168 -9.441 7.334 9.442">
	<g id="Layer_1_16_">
		<path style="fill-rule:evenodd;clip-rule:evenodd;fill:#7AA2A6;" d="M5.15,0c2.2-0.1,2.6-1.5,1.2-4.2
			C5.017-6.8,3.367-8.483,1.4-9.25C-0.4-9.983-0.65-8.6,0.65-5.1C1.983-1.633,3.483,0.067,5.15,0z"/>
	</g>
</symbol>
<symbol  id="FlashAICB_x5F_1_x2F_Layer_1_x2F__x3C_Path_x3E__x5F_11" viewBox="0.043 -10.099 8.817 10.119">
	<g id="Layer_1_15_">
		<path style="fill-rule:evenodd;clip-rule:evenodd;fill:#7AA2A6;" d="M7,0c2.3-0.367,2.467-1.983,0.5-4.85
			C5.633-7.617,3.583-9.333,1.35-10c-0.934-0.3-1.367,0.083-1.3,1.15c0.034,0.9,0.45,2.1,1.25,3.6C3.333-1.517,5.233,0.233,7,0z"/>
	</g>
</symbol>
<symbol  id="FlashAICB_x5F_1_x2F_Layer_1_x2F__x3C_Path_x3E__x5F_12" viewBox="-0.062 -4.761 3.612 4.761">
	<g id="Layer_1_14_">
		<path style="fill-rule:evenodd;clip-rule:evenodd;fill:#7AA2A6;" d="M2.35,0c1.2-0.033,1.5-0.717,0.9-2.05
			c-0.567-1.3-1.367-2.167-2.4-2.6C-0.083-5.05-0.3-4.367,0.2-2.6C0.7-0.867,1.417,0,2.35,0z"/>
	</g>
</symbol>
<symbol  id="FlashAICB_x5F_1_x2F_Layer_1_x2F__x3C_Path_x3E__x5F_13" viewBox="-0.108 -5.103 5.78 5.109">
	<g id="Layer_1_13_">
		<path style="fill-rule:evenodd;clip-rule:evenodd;fill:#7AA2A6;" d="M4-0.1c1.767-0.5,2.133-1.45,1.1-2.85
			C4.067-4.317,2.767-5.033,1.2-5.1c-1.467-0.066-1.7,0.867-0.7,2.8C1.467-0.433,2.633,0.3,4-0.1z"/>
	</g>
</symbol>
<symbol  id="FlashAICB_x5F_1_x2F_Layer_1_x2F__x3C_Path_x3E__x5F_14" viewBox="0.025 -87.475 70.723 87.5">
	<g id="Layer_1_2_">
		<path style="fill-rule:evenodd;clip-rule:evenodd;fill:#22777F;" d="M42.1-8c0,0.1-0.167,1.25-0.5,3.45
			c-0.2,1.4-0.117,2.517,0.25,3.35c2.767,0.633,5.083,1.017,6.95,1.15c2.534,0.2,4.833,0,6.9-0.6c0.933-0.233,3.583-0.567,7.95-1
			c4.6-0.467,6.883-0.55,6.85-0.25c0.9-6.934-0.65-14.434-4.65-22.5c-2.467-4.934-6.783-11.45-12.95-19.55
			c-1.467-1.933-3.566-4.867-6.3-8.8c-2.467-3.4-4.867-6.067-7.2-8c-2.033-1.7-4.783-3.65-8.25-5.85
			c-5.066-3.2-7.917-5.017-8.55-5.45c-1.633-1.1-3.6-2.717-5.9-4.85c-3.167-2.934-5.034-4.65-5.6-5.15
			c-1.3-1.1-1.983-1.684-2.05-1.75c-0.767-0.6-1.5-1.067-2.2-1.4c-0.434-0.2-1.617-0.517-3.55-0.95
			c-1.638-0.36-2.729-0.802-3.275-1.325L0.15-87.35c1.2,1.067,2.117,1.867,2.75,2.4c1.1,0.967,1.934,1.817,2.5,2.55
			c0.9,1.133,1.783,3.267,2.65,6.4c0.7,2.7,1.867,4.667,3.5,5.9c2.333,1.733,4.617,3.7,6.85,5.9c1.533,1.5,3.583,3.667,6.15,6.5
			c-0.7-0.133-1.816-0.683-3.35-1.65c-1.4-0.933-2.583-1.383-3.55-1.35c2.833,3.333,5.167,8.267,7,14.8c0.2,0.633,0.3,1.7,0.3,3.2
			c0,1.434,0.083,2.4,0.25,2.9c0.233,0.733,0.8,1.483,1.7,2.25c1.1,0.767,1.867,1.333,2.3,1.7c0.033,0.033,1.716,1.117,5.05,3.25
			c2.133,1.367,3.433,2.667,3.9,3.9c0.467,1.167,0.883,3.017,1.25,5.55c0.4,2.833,0.75,4.767,1.05,5.8
			C41.55-13.75,42.1-10.633,42.1-8z"/>
	</g>
</symbol>
<symbol  id="FlashAICB_x5F_1_x2F_Layer_1_x2F__x3C_Path_x3E__x5F_1_x5F_0" viewBox="-0.044 -2.755 1.768 2.784">
	<g id="Layer_1_11_">
		<path style="fill-rule:evenodd;clip-rule:evenodd;fill:#7AA2A6;" d="M1.5-2.4C1-2.933,0.583-2.867,0.25-2.2
			C-0.083-1.533-0.133-0.9,0.1-0.3c0.233,0.533,0.617,0.417,1.15-0.35S1.867-2,1.5-2.4z"/>
	</g>
</symbol>
<symbol  id="FlashAICB_x5F_1_x2F_Layer_1_x2F__x3C_Path_x3E__x5F_1_x5F_1" viewBox="-0.063 -1.02 1.413 1.024">
	<g id="Layer_1_24_">
		<path style="fill-rule:evenodd;clip-rule:evenodd;fill:#7AA2A6;" d="M1.1-0.05c0.333-0.2,0.333-0.417,0-0.65
			C0.8-0.967,0.483-1.067,0.15-1c-0.3,0.067-0.283,0.267,0.05,0.6C0.533-0.033,0.833,0.083,1.1-0.05z"/>
	</g>
</symbol>
<symbol  id="FlashAICB_x5F_1_x2F_Layer_1_x2F__x3C_Path_x3E__x5F_2" viewBox="-0.083 -13.312 7.837 13.353">
	<g id="Layer_1_10_">
		<path style="fill-rule:evenodd;clip-rule:evenodd;fill:#7AA2A6;" d="M7.2-12.1c-1.567-2.133-3.3-1.45-5.2,2.05
			c-1.8,3.367-2.433,6.367-1.9,9C0.333,0.083,0.95,0.333,1.95-0.3c0.9-0.534,1.9-1.6,3-3.2C7.65-7.567,8.4-10.433,7.2-12.1z"/>
	</g>
</symbol>
<symbol  id="FlashAICB_x5F_1_x2F_Layer_1_x2F__x3C_Path_x3E__x5F_2_x5F_0" viewBox="0 -2.008 2.001 2.026">
	<g id="Layer_1_23_">
		<path style="fill-rule:evenodd;clip-rule:evenodd;fill:#7AA2A6;" d="M1.4,0c0.633-0.133,0.767-0.483,0.4-1.05
			C1.433-1.583,0.983-1.9,0.45-2c-0.5-0.067-0.583,0.283-0.25,1.05C0.533-0.217,0.933,0.1,1.4,0z"/>
	</g>
</symbol>
<symbol  id="FlashAICB_x5F_1_x2F_Layer_1_x2F__x3C_Path_x3E__x5F_3" viewBox="0.027 -5.503 4.064 5.663">
	<g id="Layer_1_9_">
		<path style="fill-rule:evenodd;clip-rule:evenodd;fill:#7AA2A6;" d="M3.9-4.65c-0.633-1.2-1.467-1.133-2.5,0.2
			c-1.033,1.267-1.483,2.534-1.35,3.8c0.1,1.2,0.9,1.066,2.4-0.4C3.917-2.517,4.4-3.717,3.9-4.65z"/>
	</g>
</symbol>
<symbol  id="FlashAICB_x5F_1_x2F_Layer_1_x2F__x3C_Path_x3E__x5F_3_x5F_0" viewBox="-0.063 -2.457 2.619 2.483">
	<g id="Layer_1_22_">
		<path style="fill-rule:evenodd;clip-rule:evenodd;fill:#7AA2A6;" d="M2,0c0.667-0.2,0.733-0.633,0.2-1.3
			C1.667-2,1.067-2.383,0.4-2.45c-0.6-0.066-0.617,0.367-0.05,1.3C0.917-0.25,1.467,0.133,2,0z"/>
	</g>
</symbol>
<symbol  id="FlashAICB_x5F_1_x2F_Layer_1_x2F__x3C_Path_x3E__x5F_3_x5F_1" viewBox="-0.012 -60.4 175.865 60.389">
	<g id="Layer_1_31_">
		<path style="fill-rule:evenodd;clip-rule:evenodd;fill:#1F2432;" d="M172.3-19.85c3.167-2,4.217-4.267,3.15-6.8
			c-0.367-0.9-1.017-1.9-1.95-3c-1.367-1.633-2.117-2.533-2.25-2.7c-0.5-0.7-1.067-1.633-1.7-2.8c-0.9-1.667-1.433-2.633-1.6-2.9
			c-0.633-1.1-1.1-1.917-1.4-2.45c-0.533-0.9-1.083-1.667-1.65-2.3c0,0.633,0.033,1.1,0.1,1.4c-1.8-1.167-3.067-2.267-3.8-3.3
			c0.066,0.3,0.033,0.667-0.1,1.1c-0.1,0.533-0.15,0.917-0.15,1.15c-0.267-0.2-0.767-0.733-1.5-1.6c0.1,0.433,0.15,0.75,0.15,0.95
			c0.066,0.333,0.017,0.6-0.15,0.8c-0.733-0.5-1.25-1.284-1.55-2.35c-0.167-0.6-0.417-1.467-0.75-2.6c0.067,1.167,0.1,2.067,0.1,2.7
			c0,1.1-0.117,1.966-0.35,2.6c-0.1-0.2-0.35-0.45-0.75-0.75c-0.233,0.6-0.367,1.05-0.4,1.35c-4.767-1.1-7.25-1.083-7.45,0.05
			c-0.566,0-0.983,0.017-1.25,0.05c-0.433,0.033-0.816,0.15-1.15,0.35c-0.933-1.5-2.15-2.533-3.65-3.1
			c-1.7-0.633-3.117-0.317-4.25,0.95c-0.233-0.133-0.483-0.4-0.75-0.8c-0.367-0.433-0.617-0.717-0.75-0.85
			c-0.3,0.534-0.483,0.95-0.55,1.25c-1-0.367-1.667-1.25-2-2.65c-0.2-0.767-0.35-1.9-0.45-3.4c-0.033,0.833-0.083,1.5-0.15,2
			c-0.067,0.9-0.233,1.517-0.5,1.85c-0.7-0.567-1.167-0.883-1.4-0.95c-0.6-0.3-0.967-0.1-1.1,0.6c-0.6-0.767-1.6-1.05-3-0.85
			c-1.567,0.333-2.65,0.55-3.25,0.65c-0.967,0.133-2.15-0.05-3.55-0.55c-2-0.667-3.183-1.033-3.55-1.1c-0.567-0.2-1-0.333-1.3-0.4
			c-0.567-0.133-0.934-0.05-1.1,0.25c-0.733-0.233-1.167-0.8-1.3-1.7c-0.066-0.533-0.15-1.3-0.25-2.3
			c-0.433,1.167-0.633,2.367-0.6,3.6c-0.367-0.467-0.733-0.583-1.1-0.35c-0.367,0.2-0.517,0.567-0.45,1.1
			c-1.7,0.367-2.583,0.566-2.65,0.6c-0.267,0.1-0.683,0.333-1.25,0.7c-0.533,0.367-0.95,0.567-1.25,0.6c0-0.3-0.017-0.783-0.05-1.45
			c-2.367-0.066-3.934,0.333-4.7,1.2c-0.733-0.267-1.2-0.417-1.4-0.45c-0.6-0.1-0.817,0.15-0.65,0.75c-1.167-1.5-2.7-2.25-4.6-2.25
			c-0.633,0.067-1.083,0.117-1.35,0.15c-0.467,0.033-0.817-0.083-1.05-0.35l-0.5-2.6c-0.233,0.1-0.517,0.55-0.85,1.35
			c-0.434,0.933-0.717,1.483-0.85,1.65c0.067-0.533,0-1.017-0.2-1.45c-0.3,0.4-0.45,0.917-0.45,1.55
			c-0.833-0.033-1.267-0.05-1.3-0.05c-0.433,0.034-0.816,0.184-1.15,0.45c-0.066,0.067-0.117,0.267-0.15,0.6
			c0,0.333-0.05,0.55-0.15,0.65c-0.1,0.067-0.333,0.083-0.7,0.05c-0.367-0.033-0.6-0.033-0.7,0c-1.367,0.2-2.317,0.567-2.85,1.1
			c-0.133,0.133-0.2,0.333-0.2,0.6s-0.1,0.45-0.3,0.55c-0.1,0.067-0.35,0.1-0.75,0.1c-0.5-0.033-0.783-0.05-0.85-0.05
			c0.167,0.133,0.367,0.383,0.6,0.75c-4.367-0.167-7.35,0.717-8.95,2.65c-0.576-1.825-0.801-4.466-0.675-7.925
			c-0.091,1.429-0.333,3.17-0.725,5.225c-0.467,2.567-0.817,4.467-1.05,5.7c-0.534-0.633-0.85-1.633-0.95-3
			c-0.133-1.933-0.233-3.017-0.3-3.25c-0.4,2.833-0.483,5.417-0.25,7.75c-0.4-0.667-0.733-1.117-1-1.35v2.25
			c-0.567-0.733-1.417-1.383-2.55-1.95c-1.333-0.7-2.15-0.6-2.45,0.3c-0.233-0.033-0.733-0.2-1.5-0.5l0.15,0.75
			c-1.1-0.6-1.917-1.05-2.45-1.35c-0.967-0.533-1.75-1.033-2.35-1.5c-0.367-0.267-0.933-0.816-1.7-1.65
			c-0.7-0.733-1.317-1.267-1.85-1.6c-0.3-0.167-0.7-0.3-1.2-0.4c-0.633-0.133-1.05-0.233-1.25-0.3c-0.6-0.3-1.05-0.5-1.35-0.6
			c-0.534-0.233-1.117-0.333-1.75-0.3c0.633-0.633-0.034-1.466-2-2.5c-1.934-1-3.1-1.017-3.5-0.05c-0.667-0.533-1.2-0.85-1.6-0.95
			c-0.067,0.333-0.083,0.567-0.05,0.7c-1.233-0.833-2.3-1.933-3.2-3.3c-0.858-1.348-1.35-2.682-1.475-4
			c0.02,0.564-0.038,1.297-0.175,2.2c-0.207,1.125-0.324,1.866-0.35,2.225c0.02-0.65-0.081-1.508-0.3-2.575
			c-0.267-1.367-0.417-2.267-0.45-2.7c-0.067-0.7-0.05-1.633,0.05-2.8c0.133-1.333,0.2-2.233,0.2-2.7
			c-0.567,1.066-0.934,2.433-1.1,4.1c-0.067,1.966-0.133,3.417-0.2,4.35c-0.4-0.966-0.733-1.667-1-2.1
			c-0.267,0.333-0.433,0.783-0.5,1.35c-0.3-0.3-0.55-0.7-0.75-1.2c-0.1-0.3-0.25-0.75-0.45-1.35c-0.833,0.5-1.883,1.633-3.15,3.4
			c-0.4,0.667-0.733,1.167-1,1.5c-0.434,0.633-0.867,0.917-1.3,0.85c-0.066,0.433-0.267,0.7-0.6,0.8c-0.4,0-0.716,0.067-0.95,0.2
			c-0.333,0.167-0.9,0.65-1.7,1.45c-0.333,0.3-0.85,0.65-1.55,1.05c-0.733,0.467-1.25,0.817-1.55,1.05
			c-0.4-0.6-0.917-1.133-1.55-1.6c-0.4-0.267-0.733-0.417-1-0.45c-0.3,0.033-0.6,0.05-0.9,0.05c-0.667-0.033-1.267,0.083-1.8,0.35
			c-0.133,0.033-0.7,0.367-1.7,1c0.133-0.733,0.517-1.6,1.15-2.6c0.833-1.367,1.317-2.183,1.45-2.45c-0.767,0.733-1.35,1.3-1.75,1.7
			c-0.7,0.7-1.233,1.317-1.6,1.85c-0.867,1.567-1.6,2.684-2.2,3.35c-0.3,0.3-0.816,0.667-1.55,1.1c-0.667,0.433-1.133,0.8-1.4,1.1
			C3.85-40.283,2.8-37.7,1.8-33.8c-0.033,0.1-0.466,1.1-1.3,3c-0.533,1.167-0.65,2.183-0.35,3.05l0.25,0.6
			C0.833-26.417,1.6-25.7,2.7-25c1.267,0.733,2.15,1.267,2.65,1.6c2.767,1.833,5.233,3.183,7.4,4.05c3.8,1.5,9.017,3.267,15.65,5.3
			c1.033,0.3,3.7,0.783,8,1.45c3.934,0.767,6.2,1.767,6.8,3c0.2,0.767-1.333,0.983-4.6,0.65c-3.533-0.4-5.45,0.034-5.75,1.3
			c1.3,3.167,5.3,5.316,12,6.45c2.367,0.4,7.233,0.767,14.6,1.1C63.517,0.067,68.033,0,73-0.3c5.133-0.3,9.617-0.767,13.45-1.4
			c6.767-1.133,12.517-1.883,17.25-2.25c6.066-0.466,11.867-0.45,17.4,0.05c7.6,0.7,13.283,0.15,17.05-1.65l1-1.7
			c0.733-1.233,1.25-1.95,1.55-2.15c1.633-1.233,4.1-2.267,7.4-3.1c1.833-0.467,4.467-1.083,7.9-1.85
			c0.833-0.233,2.217-0.583,4.15-1.05c1.8-0.4,3.184-0.75,4.15-1.05C167.867-17.55,170.533-18.683,172.3-19.85z"/>
	</g>
</symbol>
<symbol  id="FlashAICB_x5F_1_x2F_Layer_1_x2F__x3C_Path_x3E__x5F_4" viewBox="-0.009 -3.093 2.519 3.172">
	<g id="Layer_1_8_">
		<path style="fill-rule:evenodd;clip-rule:evenodd;fill:#7AA2A6;" d="M2.4-2.3C2.067-3.2,1.567-3.333,0.9-2.7
			C0.233-2.1-0.067-1.383,0-0.55c0.067,0.767,0.55,0.833,1.45,0.2C2.383-0.95,2.7-1.6,2.4-2.3z"/>
	</g>
</symbol>
<symbol  id="FlashAICB_x5F_1_x2F_Layer_1_x2F__x3C_Path_x3E__x5F_4_x5F_0" viewBox="-0.063 -2.457 2.593 2.483">
	<g id="Layer_1_21_">
		<path style="fill-rule:evenodd;clip-rule:evenodd;fill:#7AA2A6;" d="M1.95,0c0.7-0.2,0.767-0.633,0.2-1.3
			C1.617-1.967,1.033-2.35,0.4-2.45c-0.6-0.066-0.617,0.367-0.05,1.3C0.917-0.25,1.45,0.133,1.95,0z"/>
	</g>
</symbol>
<symbol  id="FlashAICB_x5F_1_x2F_Layer_1_x2F__x3C_Path_x3E__x5F_4_x5F_1" viewBox="-0.026 -2.393 1.429 2.412">
	<g id="Layer_1_30_">
		<path style="fill-rule:evenodd;clip-rule:evenodd;fill:#7AA2A6;" d="M1.4-0.75c-0.033-0.633-0.267-1.133-0.7-1.5
			C0.3-2.583,0.067-2.333,0-1.5c-0.1,0.833,0.083,1.317,0.55,1.45C1.15,0.15,1.433-0.083,1.4-0.75z"/>
	</g>
</symbol>
<symbol  id="FlashAICB_x5F_1_x2F_Layer_1_x2F__x3C_Path_x3E__x5F_5" viewBox="-0.033 -5.882 3.577 6.004">
	<g id="Layer_1_7_">
		<path style="fill-rule:evenodd;clip-rule:evenodd;fill:#7AA2A6;" d="M3.15-5.25c-0.867-1.033-1.683-0.8-2.45,0.7
			c-0.733,1.433-0.917,2.767-0.55,4c0.367,1.133,1.133,0.833,2.3-0.9C3.617-3.183,3.85-4.45,3.15-5.25z"/>
	</g>
</symbol>
<symbol  id="FlashAICB_x5F_1_x2F_Layer_1_x2F__x3C_Path_x3E__x5F_5_x5F_0" viewBox="-0.05 -1.461 1.511 1.464">
	<g id="Layer_1_20_">
		<path style="fill-rule:evenodd;clip-rule:evenodd;fill:#7AA2A6;" d="M0.95,0c0.5-0.1,0.633-0.35,0.4-0.75
			c-0.233-0.367-0.567-0.6-1-0.7c-0.4-0.066-0.5,0.167-0.3,0.7C0.25-0.217,0.55,0.033,0.95,0z"/>
	</g>
</symbol>
<symbol  id="FlashAICB_x5F_1_x2F_Layer_1_x2F__x3C_Path_x3E__x5F_5_x5F_1" viewBox="0.023 -2.393 1.429 2.412">
	<g id="Layer_1_29_">
		<path style="fill-rule:evenodd;clip-rule:evenodd;fill:#7AA2A6;" d="M1.45-0.75c-0.034-0.633-0.267-1.133-0.7-1.5
			c-0.4-0.333-0.633-0.083-0.7,0.75c-0.1,0.833,0.083,1.317,0.55,1.45C1.2,0.15,1.483-0.083,1.45-0.75z"/>
	</g>
</symbol>
<symbol  id="FlashAICB_x5F_1_x2F_Layer_1_x2F__x3C_Path_x3E__x5F_6" viewBox="-0.001 -2.876 2.914 2.914">
	<g id="Layer_1_6_">
		<path style="fill-rule:evenodd;clip-rule:evenodd;fill:#7AA2A6;" d="M1.3-0.1c0.8-0.333,1.317-0.933,1.55-1.8
			C3.083-2.733,2.667-3.033,1.6-2.8C0.5-2.567-0.033-2.033,0-1.2C0.033-0.1,0.467,0.267,1.3-0.1z"/>
	</g>
</symbol>
<symbol  id="FlashAICB_x5F_1_x2F_Layer_1_x2F__x3C_Path_x3E__x5F_6_x5F_0" viewBox="-0.023 -2.935 2.067 2.953">
	<g id="Layer_1_19_">
		<path style="fill-rule:evenodd;clip-rule:evenodd;fill:#7AA2A6;" d="M1.4-2.7C0.6-3.133,0.133-2.967,0-2.2
			c-0.1,0.733,0.133,1.383,0.7,1.95c0.5,0.5,0.9,0.3,1.2-0.6C2.2-1.75,2.033-2.367,1.4-2.7z"/>
	</g>
</symbol>
<symbol  id="FlashAICB_x5F_1_x2F_Layer_1_x2F__x3C_Path_x3E__x5F_6_x5F_1" viewBox="-0.046 -5.356 2.644 5.418">
	<g id="Layer_1_28_">
		<path style="fill-rule:evenodd;clip-rule:evenodd;fill:#7AA2A6;" d="M2.5-1.45c0.233-1.4,0.05-2.566-0.55-3.5
			c-0.6-0.833-1.167-0.383-1.7,1.35c-0.5,1.733-0.367,2.85,0.4,3.35C1.617,0.417,2.233,0.017,2.5-1.45z"/>
	</g>
</symbol>
<symbol  id="FlashAICB_x5F_1_x2F_Layer_1_x2F__x3C_Path_x3E__x5F_7" viewBox="0 -9.215 5.02 9.353">
	<g id="Layer_1_5_">
		<path style="fill-rule:evenodd;clip-rule:evenodd;fill:#7AA2A6;" d="M2.4-9.05C0.833-8.583,0.033-6.733,0-3.5
			c0,3.267,0.7,4.333,2.1,3.2c1.566-1.233,2.517-3.117,2.85-5.65C5.283-8.617,4.433-9.65,2.4-9.05z"/>
	</g>
</symbol>
<symbol  id="FlashAICB_x5F_1_x2F_Layer_1_x2F__x3C_Path_x3E__x5F_7_x5F_0" viewBox="-0.121 -5.169 5.634 5.193">
	<g id="Layer_1_18_">
		<path style="fill-rule:evenodd;clip-rule:evenodd;fill:#7AA2A6;" d="M3.8-0.05C5.567-0.483,5.967-1.417,5-2.85
			c-0.967-1.4-2.233-2.167-3.8-2.3c-1.434-0.167-1.7,0.733-0.8,2.7C1.267-0.517,2.4,0.283,3.8-0.05z"/>
	</g>
</symbol>
<symbol  id="FlashAICB_x5F_1_x2F_Layer_1_x2F__x3C_Path_x3E__x5F_7_x5F_1" viewBox="-0.028 -5.378 2.672 5.44">
	<g id="Layer_1_27_">
		<path style="fill-rule:evenodd;clip-rule:evenodd;fill:#7AA2A6;" d="M2.55-1.45c0.233-1.433,0.034-2.6-0.6-3.5
			C1.383-5.817,0.833-5.367,0.3-3.6c-0.533,1.733-0.417,2.85,0.35,3.35C1.65,0.417,2.283,0.017,2.55-1.45z"/>
	</g>
</symbol>
<symbol  id="FlashAICB_x5F_1_x2F_Layer_1_x2F__x3C_Path_x3E__x5F_8" viewBox="-0.101 -7.323 4.862 7.528">
	<g id="Layer_1_4_">
		<path style="fill-rule:evenodd;clip-rule:evenodd;fill:#7AA2A6;" d="M4-6.3C2.533-7.8,1.383-7.65,0.55-5.85
			c-0.833,1.733-0.867,3.434-0.1,5.1c0.733,1.5,1.783,1.233,3.15-0.8C5-3.55,5.133-5.133,4-6.3z"/>
	</g>
</symbol>
<symbol  id="FlashAICB_x5F_1_x2F_Layer_1_x2F__x3C_Path_x3E__x5F_8_x5F_0" viewBox="-0.036 -2.92 2.169 2.985">
	<g id="Layer_1_26_">
		<path style="fill-rule:evenodd;clip-rule:evenodd;fill:#7AA2A6;" d="M1.95-2.25C1.45-3.05,0.967-3.133,0.5-2.5
			C0-1.933-0.15-1.267,0.05-0.5C0.217,0.2,0.667,0.25,1.4-0.35C2.133-0.983,2.317-1.617,1.95-2.25z"/>
	</g>
</symbol>
<symbol  id="FlashAICB_x5F_1_x2F_Layer_1_x2F__x3C_Path_x3E__x5F_9" viewBox="-0.033 -1.908 2.065 1.939">
	<g id="Layer_1_17_">
		<path style="fill-rule:evenodd;clip-rule:evenodd;fill:#7AA2A6;" d="M1.45,0C2.083-0.167,2.2-0.517,1.8-1.05
			C1.433-1.55,0.967-1.833,0.4-1.9c-0.5-0.067-0.566,0.267-0.2,1S0.983,0.133,1.45,0z"/>
	</g>
</symbol>
<g id="Layer_1">
</g>
<g id="Layer_1_1_">
	<g>
		
			<linearGradient id="SVGID_4_" gradientUnits="userSpaceOnUse" x1="-163.0303" y1="-74.7334" x2="-34.3411" y2="-74.7334" gradientTransform="matrix(-0.9997 0.0247 -0.0247 -0.9997 5.126931e-005 2.512261e-004)">
			<stop  offset="0" style="stop-color:#0D777F"/>
			<stop  offset="0.0627" style="stop-color:#106C76"/>
			<stop  offset="0.2392" style="stop-color:#185261"/>
			<stop  offset="0.3961" style="stop-color:#1F4154"/>
			<stop  offset="0.5137" style="stop-color:#223B4F"/>
			<stop  offset="0.6784" style="stop-color:#1D3F51"/>
			<stop  offset="0.8745" style="stop-color:#114858"/>
			<stop  offset="1" style="stop-color:#06515F"/>
		</linearGradient>
		<path style="fill-rule:evenodd;clip-rule:evenodd;fill:url(#SVGID_4_);" d="M175.7,53.55c-2.467,4.934-6.783,11.45-12.95,19.55
			c-2.767,3.967-4.866,6.9-6.3,8.801c-2.467,3.399-4.867,6.066-7.2,8c-2.033,1.699-4.783,3.649-8.25,5.85
			c-5.066,3.2-7.917,5.017-8.55,5.45c-0.334,0.233-3.601,3.1-9.8,8.6c-4.267,3.767-7.9,5.9-10.9,6.4l-1.9,0.149
			c-2.5,0.067-5.883-0.816-10.149-2.649c-4.5-1.934-7.817-2.967-9.95-3.101c-1.2-0.066-3.167,0.2-5.9,0.801
			c-2.5,0.6-4.483,0.767-5.95,0.5c-1.6-0.267-3.467-1-5.6-2.2c-2.367-1.4-4.15-2.4-5.35-3c-4.467-2.2-8.733-5.084-12.8-8.65
			c-2.833-2.5-6.4-6.166-10.7-11c-2.4-2.7-6.35-6.416-11.85-11.149c-5.467-4.733-9.417-8.45-11.85-11.15
			c-7.8-8.7-11.733-17.933-11.8-27.7c4.933-1.633,11.8-3.2,20.6-4.7c9.133-1.533,16.1-2.267,20.9-2.2
			c4.1,0.033,12.233-0.35,24.4-1.15c11.167-0.733,19.316-0.967,24.45-0.7c18.134,0.867,31.8,1.483,41,1.85
			c15.867,0.567,29.55,0.867,41.05,0.9C181.25,37.983,179.7,45.483,175.7,53.55z"/>
		
			<use xlink:href="#FlashAICB_x5F_1_x2F_Layer_1_x2F__x3C_Path_x3E__x5F_14"  width="70.723" height="87.5" x="0.025" y="-87.475" transform="matrix(1 0 0 -1 109.8496 29.1499)" style="overflow:visible;opacity:0.1914;enable-background:new    ;"/>
		
			<use xlink:href="#FlashAICB_x5F_1_x2F_Layer_1_x2F__x3C_Clip_Group_0_x3E_"  width="180.034" height="89.357" x="0.016" y="-89.35" transform="matrix(1 0 0 -1 6.5 28.2002)" style="overflow:visible;"/>
		
			<use xlink:href="#FlashAICB_x5F_1_x2F_Layer_1_x2F__x3C_Group_x3E__x5F_2"  width="32.247" height="45.866" x="-0.053" y="-45.805" transform="matrix(1 0 0 -1 18.9502 40.0498)" style="overflow:visible;opacity:0.4883;enable-background:new    ;"/>
		
			<use xlink:href="#FlashAICB_x5F_1_x2F_Layer_1_x2F__x3C_Path_x3E__x5F_13"  width="5.78" height="5.109" x="-0.108" y="-5.103" transform="matrix(1 0 0 -1 156 63.9004)" style="overflow:visible;opacity:0.1914;enable-background:new    ;"/>
		
			<use xlink:href="#FlashAICB_x5F_1_x2F_Layer_1_x2F__x3C_Path_x3E__x5F_12"  width="3.612" height="4.761" x="-0.062" y="-4.761" transform="matrix(1 0 0 -1 135.0498 65)" style="overflow:visible;opacity:0.1914;enable-background:new    ;"/>
		
			<use xlink:href="#FlashAICB_x5F_1_x2F_Layer_1_x2F__x3C_Path_x3E__x5F_11"  width="8.817" height="10.119" x="0.043" y="-10.099" transform="matrix(1 0 0 -1 158.4004 51.25)" style="overflow:visible;opacity:0.1914;enable-background:new    ;"/>
		
			<use xlink:href="#FlashAICB_x5F_1_x2F_Layer_1_x2F__x3C_Path_x3E__x5F_10"  width="7.334" height="9.442" x="-0.168" y="-9.441" transform="matrix(1 0 0 -1 133.0996 55.2998)" style="overflow:visible;opacity:0.1914;enable-background:new    ;"/>
		
			<use xlink:href="#FlashAICB_x5F_1_x2F_Layer_1_x2F__x3C_Path_x3E__x5F_9"  width="2.065" height="1.939" x="-0.033" y="-1.908" transform="matrix(1 0 0 -1 129.7002 81.4502)" style="overflow:visible;opacity:0.1914;enable-background:new    ;"/>
		
			<use xlink:href="#FlashAICB_x5F_1_x2F_Layer_1_x2F__x3C_Group_x3E__x5F_1"  width="36.606" height="41.811" x="-0.05" y="-41.808" transform="matrix(1 0 0 -1 108.4004 72.6504)" style="overflow:visible;opacity:0.4883;enable-background:new    ;"/>
		
			<use xlink:href="#FlashAICB_x5F_1_x2F_Layer_1_x2F__x3C_Path_x3E__x5F_8_x5F_0"  width="2.169" height="2.985" x="-0.036" y="-2.92" transform="matrix(1 0 0 -1 72.6499 74.1504)" style="overflow:visible;opacity:0.1914;enable-background:new    ;"/>
		
			<use xlink:href="#FlashAICB_x5F_1_x2F_Layer_1_x2F__x3C_Path_x3E__x5F_7_x5F_1"  width="2.672" height="5.44" x="-0.028" y="-5.378" transform="matrix(1 0 0 -1 72.5498 90.4502)" style="overflow:visible;opacity:0.1914;enable-background:new    ;"/>
		
			<use xlink:href="#FlashAICB_x5F_1_x2F_Layer_1_x2F__x3C_Path_x3E__x5F_6_x5F_1"  width="2.644" height="5.418" x="-0.046" y="-5.356" transform="matrix(1 0 0 -1 54.3501 61.9502)" style="overflow:visible;opacity:0.1914;enable-background:new    ;"/>
		
			<use xlink:href="#FlashAICB_x5F_1_x2F_Layer_1_x2F__x3C_Path_x3E__x5F_5_x5F_1"  width="1.429" height="2.412" x="0.023" y="-2.393" transform="matrix(1 0 0 -1 87.2998 101.7002)" style="overflow:visible;opacity:0.1914;enable-background:new    ;"/>
		
			<use xlink:href="#FlashAICB_x5F_1_x2F_Layer_1_x2F__x3C_Path_x3E__x5F_4_x5F_1"  width="1.429" height="2.412" x="-0.026" y="-2.393" transform="matrix(1 0 0 -1 95.2998 79.75)" style="overflow:visible;opacity:0.1914;enable-background:new    ;"/>
		
			<use xlink:href="#FlashAICB_x5F_1_x2F_Layer_1_x2F__x3C_Path_x3E__x5F_3_x5F_1"  width="175.865" height="60.389" x="-0.012" y="-60.4" transform="matrix(1 0 0 -1 8.1001 14.2002)" style="overflow:visible;opacity:0.6406;enable-background:new    ;"/>
		<path style="fill-rule:evenodd;clip-rule:evenodd;fill:#667278;" d="M167.95,26.1c3.8,0.333,6.633,0.667,8.5,1
			c2.467,0.467,4.899,1.283,7.3,2.45c1.866,0.934,4.05,2.284,6.55,4.05c2.7,1.867,4.351,3.117,4.95,3.75
			c1.866,1.933,2.167,3.717,0.9,5.35c-0.167,0.2-0.483,0.5-0.95,0.9c-0.4,0.367-0.7,0.7-0.9,1c-0.3,0.767-0.55,1.367-0.75,1.8
			c-0.333,0.8-0.75,1.217-1.25,1.25c-0.633-0.967-1.116-1.433-1.45-1.4c-0.267,0-0.699,0.433-1.3,1.3
			c-0.633,0.967-1.233,1.784-1.8,2.45c-0.9,0.767-1.517,1.383-1.85,1.85c-0.134,0.233-0.284,0.65-0.45,1.25
			c-0.167,0.733-0.283,1.183-0.351,1.35c-0.399,1.066-0.816,1.917-1.25,2.55c-0.767,1.1-1.466,1.267-2.1,0.5
			c-0.167-0.233-0.167-0.7,0-1.4c0.167-0.767,0.2-1.25,0.1-1.45c-0.267-0.6-0.533-0.783-0.8-0.55c-0.366,0.433-0.7,0.717-1,0.85
			c-1.233,0.633-2.517,0.033-3.85-1.8c-1.5-2.033-2.717-3.017-3.65-2.95c-0.467,0.033-1.116,0.267-1.95,0.7
			c-0.733,0.367-1.399,0.517-2,0.45c-0.866-0.167-1.517-0.283-1.949-0.35c-0.733-0.1-1.4-0.117-2-0.05c-1.167,0.133-2,0.167-2.5,0.1
			c-0.801-0.133-1.784-0.417-2.95-0.85c-1.834-0.7-2.783-1.067-2.851-1.1c-0.833-0.3-1.416-0.417-1.75-0.35
			c-0.433,0.067-0.883,0.4-1.35,1c-0.833,1-1.35,1.583-1.55,1.75c-0.566,0.533-1.233,0.917-2,1.15c-0.467,0.133-1.066,0.434-1.8,0.9
			c-0.801,0.5-1.417,0.817-1.851,0.95c-0.399,0.133-1.25,0.35-2.55,0.65c-1.1,0.233-1.967,0.483-2.6,0.75
			c-1.067,0.467-1.7,0.8-1.9,1c-0.3,0.4-0.533,0.7-0.7,0.9c-0.267,0.333-0.566,0.517-0.899,0.55c-0.2-0.633-0.551-1.167-1.051-1.6
			c-0.3,0.533-1.083,0.633-2.35,0.3c-1.366-0.433-2.25-0.7-2.65-0.8c-1.267-0.267-2.517-0.083-3.75,0.55
			c-1.399,0.967-2.5,1.684-3.3,2.15c-1.399,0.866-2.967,1.017-4.7,0.45c-0.666-0.233-2.183-1.017-4.55-2.351
			c-1.467-0.833-2.783-1.35-3.95-1.55c-1.399-0.3-2.816-0.233-4.25,0.2c-0.566,0.167-1.449,0.066-2.649-0.3
			c-0.867-0.267-1.584,0.017-2.15,0.85c-0.5,1.033-0.916,1.833-1.25,2.4c-0.633,1-1.333,1.35-2.1,1.05
			c-0.434-0.167-0.85-0.717-1.25-1.65c-0.333-0.767-0.867-1.167-1.6-1.2c-0.133,0-0.533,0.133-1.2,0.4c-0.5,0.2-0.9,0.183-1.2-0.05
			c-0.2-0.167-0.35-0.534-0.45-1.1c-0.133-0.6-0.283-1-0.45-1.2c-0.533-0.566-1.35-0.833-2.45-0.8c-1.233,0.133-2.133,0.167-2.7,0.1
			c-1-0.133-1.75-0.517-2.25-1.15c-0.467-0.867-0.933-1.566-1.4-2.1c-0.867-0.867-1.467-1.517-1.8-1.95
			c-0.467-0.667-0.717-1.517-0.75-2.55c0.1-0.934,0.133-1.55,0.1-1.85c-0.066-0.4-0.45-0.767-1.15-1.1
			c-1.633-0.8-3.25-1.083-4.85-0.85c-1.3,0.2-2.283,0.4-2.95,0.6c-1.067,0.367-1.883,0.867-2.45,1.5c-0.433,0.5-0.767,0.833-1,1
			c-0.167,0.1-0.583,0.267-1.25,0.5c-0.9,0.367-1.6,0.867-2.1,1.5c-0.8,1.333-1.433,2.317-1.9,2.95c-0.8,1.133-1.733,1.633-2.8,1.5
			c-1.133-0.3-1.9-0.467-2.3-0.5c-0.633-0.1-1.333,0.167-2.1,0.8c-0.3,0.467-0.567,0.767-0.8,0.9c-0.167,0.1-0.367,0.083-0.6-0.05
			c-0.267-0.133-0.466-0.167-0.6-0.1c-0.233,0.133-0.517,0.467-0.85,1c-0.333,0.5-0.667,0.833-1,1c-0.3,0.167-0.75,0.25-1.35,0.25
			c-0.667,0.033-1.133,0.117-1.4,0.25c-0.4,0.167-0.767,0.45-1.1,0.85c-0.533,0.633-0.817,0.967-0.85,1c-0.6,0.6-1.5,0.9-2.7,0.9
			c-1.434-0.033-2.4,0.067-2.9,0.3c-0.733,0.334-1.35,1.084-1.85,2.25c-0.267,0.667-0.6,1.65-1,2.95c-0.1,0.233-0.3,0.684-0.6,1.35
			c-0.267,0.567-0.55,0.934-0.85,1.101c-0.933,0.533-1.8,0.217-2.6-0.95c-0.733-1.5-1.267-2.467-1.6-2.9
			c-0.566-0.733-1.566-1.5-3-2.3c-1.5-0.833-2.517-1.566-3.05-2.2c-0.033-0.067-0.567-1.467-1.6-4.2
			c-0.767-1.967-1.767-2.783-3-2.45c-1.1,0.3-1.566,1.4-1.4,3.3c0.167,2.1-0.033,3.383-0.6,3.85c-0.367,0.333-0.816,0.133-1.35-0.6
			c-0.6-1-1.05-1.75-1.35-2.25c-1.233-1.867-2.35-1.517-3.35,1.05c-0.434,1.034-0.684,1.583-0.75,1.65
			c-0.333,0.6-0.783,0.934-1.35,1c-0.667,0.066-1.283-0.283-1.85-1.05c-0.566-0.933-1.033-1.566-1.4-1.9
			C9.383,57.233,8.967,57.4,8.5,57c-0.533-0.6-0.933-0.983-1.2-1.15c-0.367-0.267-1.066-0.583-2.1-0.95
			c-0.867-0.3-1.534-0.683-2-1.15c-0.567-0.567-0.95-1.2-1.15-1.9c-0.2-0.867-0.383-1.583-0.55-2.15
			c-0.1-0.333-0.333-0.817-0.7-1.45c-0.367-0.6-0.583-1.1-0.65-1.5c-0.233-1.233,0.017-2.617,0.75-4.15
			c0.333-0.7,1.083-1.917,2.25-3.65c0.967-1.4,2.067-2.534,3.3-3.4c1.1-0.767,2.433-1.417,4-1.95c0.933-0.3,2.466-0.717,4.6-1.25
			c1.034-0.233,2.184-0.583,3.45-1.05c0.733-0.3,1.85-0.767,3.35-1.4c3.1-1.233,8.017-2.833,14.75-4.8
			c1.767-0.567,3.167-0.85,4.2-0.85c0.167,0,0.567,0.05,1.2,0.15c0.467,0.067,0.85,0.067,1.15,0c0.867-0.2,1.367-0.683,1.5-1.45
			c0.133-0.8-0.25-1.317-1.15-1.55c-1.3-0.167-2.133-0.316-2.5-0.45c-0.567-0.2-0.8-0.934-0.7-2.2c-1.233-0.033-1.95-0.267-2.15-0.7
			c-0.167-0.4,0.033-1.15,0.6-2.25c1.033-2,2.833-3.417,5.4-4.25c1.8-0.6,4.167-0.933,7.1-1c1.733,0,4.483,0.184,8.25,0.55
			c3.533,0.367,6.267,0.517,8.2,0.45c4-0.167,8.533-0.1,13.6,0.2c5.067,0.267,9.55,0.717,13.45,1.35
			c6.866,1.1,12.65,1.833,17.35,2.2c6.101,0.467,11.917,0.45,17.45-0.05l4.8-0.3c0.667-0.034,1.367-0.184,2.101-0.45
			c0.434-0.167,1.1-0.433,2-0.8c3.8-1.5,6.767-1.483,8.899,0.05c1.134,0.8,1.817,1.367,2.051,1.7c0.1,0.133,0.283,0.466,0.55,1
			c0.2,0.433,0.434,0.75,0.7,0.95c0.233,0.167,0.966,0.6,2.199,1.3c0.934,0.533,1.601,1.117,2,1.75c0.7,1.1,1.334,1.933,1.9,2.5
			c0.767,0.767,1.634,1.283,2.6,1.55c0.434,0.133,1.067,0.233,1.9,0.3c0.866,0.1,1.517,0.2,1.95,0.3
			C165.467,25.7,167.05,26.033,167.95,26.1z"/>
		<path style="fill-rule:evenodd;clip-rule:evenodd;fill:#2C2C31;" d="M163.4,45.95c-1.434-0.333-2.567-0.583-3.4-0.75
			c-1.503-0.294-2.561-0.127-3.175,0.5c0.768-0.834,1.709-1.285,2.825-1.35c-2.534,0-4.917,0.55-7.15,1.65
			c1.167-0.9,1.767-1.367,1.8-1.4c0.733-0.5,1.417-0.8,2.05-0.9c-1.5-0.133-3.383,0.267-5.649,1.2c-2,0.867-3.684,1.85-5.05,2.95
			c0.533,0,1.316-0.083,2.35-0.25c-0.233,0.1-1.384,0.45-3.45,1.05c-1.434,0.4-2.533,0.867-3.3,1.4c-1.9,1.3-3.917,2.217-6.05,2.75
			c-1.834,0.434-4.084,0.65-6.75,0.65c-1.033,0-2.3-0.067-3.8-0.2c-1.7-0.2-2.967-0.333-3.801-0.4
			c-0.399-0.033-1.3-0.283-2.699-0.75c-1.134-0.367-2.017-0.467-2.65-0.3l0.1,0.25c-0.733,0.1-1.767,0.017-3.1-0.25
			c-1.467-0.3-2.517-0.5-3.15-0.6c-1.066-0.167-2.316-0.233-3.75-0.2c-1.6,0.1-2.816,0.15-3.649,0.15c0.434-0.333,1-0.533,1.7-0.6
			c-1.267-0.3-3.217-0.35-5.851-0.15c-0.7,0.033-2.533,0.217-5.5,0.55c-1.133,0.233-2,0.4-2.6,0.5c-1.034,0.167-1.9,0.133-2.6-0.1
			c-1.333-0.467-2.167-1.467-2.5-3c0.033-0.867,0.033-1.517,0-1.95c-0.067-0.767-0.467-1.05-1.2-0.85c0.067-0.466,0.3-1,0.7-1.6
			c0.566-0.833,0.9-1.333,1-1.5c0.167-0.333,0.267-0.567,0.3-0.7c0-0.167,0-0.35,0-0.55c-0.1-0.167-0.183-0.317-0.25-0.45
			c-0.133-0.233-0.083-0.517,0.15-0.85c-0.233-0.066-0.6-0.083-1.1-0.05s-0.883,0-1.15-0.1c0.2-0.133,0.434-0.383,0.7-0.75
			c-0.9,0.067-1.883,0.333-2.95,0.8c-1.233,0.633-2.167,1.083-2.8,1.35c0.487-0.487,1.229-1.212,2.225-2.175
			c-0.279,0.233-0.854,0.425-1.725,0.575c-1,0.167-1.65,0.284-1.95,0.35c-1.533,0.5-2.7,0.833-3.5,1
			c-1.066,0.233-2.133,0.617-3.2,1.15c-1.3,0.6-2.233,1.25-2.8,1.95c0.24-0.529,0.549-0.937,0.925-1.225
			c-1.129,0.657-2.104,1.132-2.925,1.425c-1.966,0.7-3.35,1.35-4.15,1.95c1.3,0,2.017,0.017,2.15,0.05
			c-0.533,0.233-1.816,0.6-3.85,1.1c-1.5,0.367-2.7,0.883-3.6,1.55c-1.467,1.133-3.417,2.183-5.85,3.15
			c-1.433,0.467-2.55,0.867-3.35,1.2c-1.433,0.633-2.367,1.283-2.8,1.95c0.433-0.7,1.05-1.25,1.85-1.65
			c-0.967,0.3-1.733,0.55-2.3,0.75c-1.066,0.3-1.8,0.283-2.2-0.05c-0.733,0.1-1.867,0.383-3.4,0.85c-1.5,0.434-2.65,0.7-3.45,0.8
			c-1,0.1-1.934,0.083-2.8-0.05c-1.333-0.133-2.117-0.5-2.35-1.1c-0.667,0.2-1-0.083-1-0.85c-0.1,0.133-0.267,0.3-0.5,0.5
			c-0.8-0.8-1.083-1.9-0.85-3.3c0.033-0.233,0.2-0.8,0.5-1.7c0.267-0.733,0.367-1.283,0.3-1.65l-0.7-0.05
			c-0.1-0.367,0.1-0.65,0.6-0.85c-0.733-0.233-1.383-0.2-1.95,0.1c0.7-0.467,1.3-0.6,1.8-0.4c-0.867-0.433-1.833-0.533-2.9-0.3
			c-0.633,0.133-1.567,0.5-2.8,1.1c-0.6,0.3-1.684,0.817-3.25,1.55c-1.367,0.7-2.267,1.45-2.7,2.25
			c0.067-0.267,0.417-0.717,1.05-1.35c-1.466,0.867-3.617,2.383-6.45,4.55c0.733-0.767,1.267-1.333,1.6-1.7
			c-0.7,0.133-1.534,0.367-2.5,0.7c-2.434,0.733-4.333,0.534-5.7-0.6c-0.6-0.467-1.133-1.4-1.6-2.8c-0.529-1.553-0.47-2.553,0.175-3
			c-0.354,0.235-0.663,0.402-0.925,0.5c0.3-0.533,0.5-0.95,0.6-1.25c-0.567-0.133-0.917-0.233-1.05-0.3
			C0.5,45.717,0.567,45.433,0.9,45c0.467-0.733,0.917-1.8,1.35-3.2c0.533-1.667,0.933-2.8,1.2-3.4c0.933-1.933,2.2-3.683,3.8-5.25
			c1.167-1.066,2.4-2.05,3.7-2.95c4.966-3.3,11.6-5.883,19.9-7.75c4.767-1.067,11.833-2.383,21.2-3.95
			c9.8-2.033,17.934-3.3,24.4-3.8c9-0.667,17.183-0.15,24.55,1.55c4.967,1.167,12.6,1.817,22.9,1.95
			c10.166,0.167,17.75,0.85,22.75,2.05c1.5,0.367,7.149,1.133,16.949,2.3c7.134,0.833,12.551,2.284,16.25,4.35
			c1.134,0.633,2.45,1.767,3.95,3.4c1.7,1.867,2.95,3.1,3.75,3.7c2.167,1.633,3.5,2.683,4,3.15c1.434,1.333,2.384,2.7,2.851,4.1
			c-1.967-0.067-3.317-0.217-4.051-0.45c-0.233-0.066-0.899-0.35-2-0.85c-0.833-0.367-1.517-0.55-2.05-0.55
			c0.066,0.333,0.184,0.867,0.351,1.6c-0.301-0.133-0.667-0.45-1.101-0.95c-0.467-0.5-0.85-0.8-1.149-0.9
			c0.5,1.934,0.75,3.35,0.75,4.25c-0.334-0.467-0.817-1.283-1.45-2.45c-0.566-1.133-1.05-1.95-1.45-2.45
			c-0.066,1.667,0.167,3.067,0.7,4.2c1.133,2.7,1.533,4.083,1.2,4.15c0.267-0.067,0.683-0.1,1.25-0.1
			c-0.567,0.833-1.834,1.5-3.801,2c-1.3,0.3-2.783,0.267-4.449-0.1c-1.9-0.566-3.334-1-4.301-1.3
			C171.116,46.85,167.967,46.383,163.4,45.95z"/>
		
			<linearGradient id="SVGID_5_" gradientUnits="userSpaceOnUse" x1="-61.6733" y1="98.5635" x2="1.9767" y2="98.5635" gradientTransform="matrix(1.571092e-005 -1 1 -0.001 2.180858e-004 2.955005e-004)">
			<stop  offset="0" style="stop-color:#B0C6C8"/>
			<stop  offset="0.6431" style="stop-color:#78A9B4"/>
			<stop  offset="1" style="stop-color:#5E9CAB"/>
		</linearGradient>
		<path style="fill-rule:evenodd;clip-rule:evenodd;fill:url(#SVGID_5_);" d="M177.55,20.45c3.3,1.867,6.184,3.883,8.65,6.05
			c4.333,3.933,6.783,6.217,7.35,6.85c3.667,4.066,4.517,6.75,2.55,8.05c-0.633,0.4-1.85,0.15-3.649-0.75
			c-1.867-1.066-3.033-1.717-3.5-1.95c-1.934-0.867-3.217-1.4-3.851-1.6c-1.533-0.5-2.866-0.633-4-0.4
			c-0.333,1.267-0.116,2.7,0.65,4.3c1.1,2.2,1.7,3.55,1.8,4.05c0.4,1.967-0.149,3.133-1.649,3.5c-0.534,0.133-2.15,0.117-4.851-0.05
			c-2.566-0.167-5.8-0.883-9.7-2.15c-5.199-1.733-8.383-2.733-9.55-3c-2.3-0.533-4.649-0.233-7.05,0.9
			c-2.733,1.633-4.833,2.85-6.3,3.65c-8.9,4.9-17.15,6.367-24.75,4.4c-4.7-1.233-7.867-2.017-9.5-2.35
			c-3.634-0.733-6.884-1.017-9.75-0.85c-3.4,0.767-6.05,1.3-7.95,1.6c-3.433,0.566-5.85-0.067-7.25-1.9
			c-1.1-1.466-0.967-3.2,0.4-5.2c1.633-2.4,2.417-4,2.35-4.8c-0.233-2.8-5.1-2.333-14.6,1.4c-9.7,4.4-14.833,6.733-15.4,7
			c-3.567,1.767-6.25,3.066-8.05,3.9c-3.167,1.433-5.967,2.467-8.4,3.1c-2.767,0.7-4.95,1.117-6.55,1.25
			c-2.767,0.233-4.9-0.167-6.4-1.2c-1.333-0.9-1.733-2.067-1.2-3.5c0.733-2.1,1.067-3.383,1-3.85c-0.3-2.167-2.683-2.217-7.15-0.15
			c-2.433,1.133-5.067,2.683-7.9,4.65c-1.767,1.167-3.817,1.883-6.15,2.15c-2.934,0.333-4.733-0.466-5.4-2.4
			c-0.267-0.867-0.133-1.9,0.4-3.1c0.667-1.5,1.017-2.5,1.05-3c-0.333,0.233-0.833,0.65-1.5,1.25c-0.6,0.367-1.117,0.217-1.55-0.45
			c-0.233-0.367-0.267-1.117-0.1-2.25c0.3-1.233,0.467-2.017,0.5-2.35C0.833,39.617,1.433,38,2.4,36.4
			c0.633-1.1,1.65-2.483,3.05-4.15l0.4-0.45c5.167-6.133,12.05-11.5,20.65-16.1c4.467-2.4,8.233-4.184,11.3-5.35
			c1.567-0.633,3.684-1.167,6.35-1.6c3.333-0.567,5.5-0.983,6.5-1.25c0.9-0.267,2.333-0.833,4.3-1.7c1.8-0.767,3.267-1.283,4.4-1.55
			c7.7-1.7,12.717-2.75,15.05-3.15c5.8-0.967,10.883-1.3,15.25-1c1.767,0.133,5.367,0.667,10.8,1.6c4.467,0.767,8.05,1.1,10.75,1
			c5.666-0.233,12.717,0.25,21.149,1.45c4.167,0.6,8.601,1.55,13.301,2.85c7.433,2.1,14.949,4.983,22.55,8.65
			C172.667,17.85,175.783,19.45,177.55,20.45z"/>
		<g>
			<g>
				<path style="fill-rule:evenodd;clip-rule:evenodd;fill:#83A7AA;" d="M82,20.6c-0.1,0.667-1.033,1-2.8,1
					c-1.667,0-2.55-0.283-2.65-0.85c-0.066-0.3,0.184-0.617,0.75-0.95c0.567-0.333,1.25-0.5,2.05-0.5c0.8,0.034,1.467,0.184,2,0.45
					C81.85,20.017,82.067,20.3,82,20.6z"/>
			</g>
			<g>
				<path style="fill-rule:evenodd;clip-rule:evenodd;fill:#83A7AA;" d="M43.25,32.35c0,0.167-0.233,0.283-0.7,0.35
					c-0.466,0.066-0.7,0-0.7-0.2c0-0.167,0.233-0.283,0.7-0.35C43.017,32.083,43.25,32.15,43.25,32.35z"/>
			</g>
			<g>
				<path style="fill-rule:evenodd;clip-rule:evenodd;fill:#94AFA7;" d="M87.15,15.9c-0.2,0.333-0.6,0.583-1.2,0.75
					c-0.167,0.033-0.883,0.167-2.15,0.4c-2.233,0.4-3.433,0.233-3.6-0.5c-0.1-0.4,0.167-0.85,0.8-1.35
					c0.667-0.5,1.533-0.85,2.6-1.05c1.1-0.2,2.05-0.05,2.85,0.45C87.217,15.067,87.45,15.5,87.15,15.9z"/>
			</g>
			<g>
				<path style="fill-rule:evenodd;clip-rule:evenodd;fill:#94AFA7;" d="M191.55,35.85c-0.6,0.333-1.467,0.383-2.6,0.15
					c-0.467-0.1-1.717-0.467-3.75-1.1c-1.634-0.533-2.934-1.117-3.9-1.75c-1.1-0.733-1.566-1.433-1.399-2.1
					c0.166-0.733,0.949-1.216,2.35-1.45c1.533-0.267,3.217-0.1,5.05,0.5c1.9,0.6,3.3,1.633,4.2,3.1
					C192.333,34.567,192.35,35.45,191.55,35.85z"/>
			</g>
			<g>
				<path style="fill-rule:evenodd;clip-rule:evenodd;fill:#81999D;" d="M93.1,24.7c-0.033,0.367-0.35,0.683-0.95,0.95
					c-0.7,0.3-1.5,0.383-2.4,0.25c-0.933-0.2-1.65-0.566-2.15-1.1c-0.467-0.5-0.583-0.9-0.35-1.2c0.267-0.434,1.3-0.517,3.1-0.25
					C92.183,23.683,93.1,24.133,93.1,24.7z"/>
			</g>
			<g>
				<path style="fill-rule:evenodd;clip-rule:evenodd;fill:#83A7AA;" d="M97.25,26.1c0,0.133-0.117,0.25-0.35,0.35
					c-0.267,0.1-0.566,0.133-0.9,0.1c-0.333-0.033-0.6-0.15-0.8-0.35c-0.167-0.2-0.217-0.35-0.15-0.45
					c0.1-0.167,0.483-0.217,1.15-0.15C96.867,25.667,97.217,25.833,97.25,26.1z"/>
			</g>
			<g>
				<path style="fill-rule:evenodd;clip-rule:evenodd;fill:#81999D;" d="M143.9,24.2c-0.134,0.6-0.75,1.066-1.851,1.4
					c-1.066,0.3-2.316,0.417-3.75,0.35c-3.233-0.167-4.934-0.784-5.1-1.85c-0.101-0.633,0.416-1.233,1.55-1.8
					c1.167-0.6,2.533-0.867,4.1-0.8c1.534,0.1,2.801,0.433,3.801,1C143.583,23,144,23.567,143.9,24.2z"/>
			</g>
			<g>
				<path style="fill-rule:evenodd;clip-rule:evenodd;fill:#81999D;" d="M141.05,44.75c-0.033,0.767-0.717,1.417-2.05,1.95
					c-1.267,0.5-2.783,0.783-4.55,0.85c-4,0.167-6.15-0.383-6.45-1.65c-0.2-0.733,0.35-1.517,1.65-2.35
					c1.399-0.867,3.05-1.35,4.949-1.45c1.867-0.1,3.45,0.133,4.75,0.7C140.55,43.333,141.116,43.983,141.05,44.75z"/>
			</g>
			<g>
				<path style="fill-rule:evenodd;clip-rule:evenodd;fill:#83A7AA;" d="M115.9,21.75c-0.134,0.3-0.601,0.383-1.4,0.25
					c-0.767-0.133-1.15-0.35-1.15-0.65c0-0.167,0.134-0.283,0.4-0.35c0.3-0.1,0.634-0.117,1-0.05c0.366,0.033,0.667,0.15,0.9,0.35
					C115.884,21.467,115.967,21.617,115.9,21.75z"/>
			</g>
			<g>
				<path style="fill-rule:evenodd;clip-rule:evenodd;fill:#83A7AA;" d="M124.15,19.6c-0.167,0.833-1.301,1.283-3.4,1.35
					c-0.934,0.033-1.733-0.117-2.4-0.45c-0.666-0.333-0.933-0.7-0.8-1.1c0.2-0.733,1.334-1.133,3.4-1.2
					c0.899-0.034,1.684,0.1,2.35,0.4C123.967,18.9,124.25,19.233,124.15,19.6z"/>
			</g>
			<g>
				<path style="fill-rule:evenodd;clip-rule:evenodd;fill:#81999D;" d="M122.1,33.1c-1.466,0.5-3.05,0.55-4.75,0.15
					c-1.666-0.4-3-1.033-4-1.9c-0.899-0.8-1.233-1.55-1-2.25c0.233-0.633,1.017-1.017,2.351-1.15c1.2-0.1,2.566,0.033,4.1,0.4
					c3.5,0.8,5.267,1.767,5.3,2.9C124.134,31.983,123.467,32.6,122.1,33.1z"/>
			</g>
			<g>
				<path style="fill-rule:evenodd;clip-rule:evenodd;fill:#83A7AA;" d="M138.5,21.65c-0.033,0.133-0.25,0.167-0.65,0.1
					c-0.166,0-0.316-0.033-0.449-0.1c-0.134-0.1-0.184-0.183-0.15-0.25c0.066-0.133,0.3-0.183,0.7-0.15
					c0.166,0,0.316,0.05,0.45,0.15C138.533,21.5,138.566,21.583,138.5,21.65z"/>
			</g>
			<g>
				<path style="fill-rule:evenodd;clip-rule:evenodd;fill:#83A7AA;" d="M134.25,19.9c-0.3,0.367-1.184,0.367-2.65,0
					c-1.466-0.367-2.199-0.8-2.199-1.3c0-0.333,0.283-0.583,0.85-0.75c0.6-0.233,1.283-0.25,2.05-0.05
					c0.767,0.2,1.351,0.55,1.75,1.05C134.417,19.317,134.483,19.667,134.25,19.9z"/>
			</g>
			<g>
				<path style="fill-rule:evenodd;clip-rule:evenodd;fill:#83A7AA;" d="M116.05,14.75c-0.066,0.233-0.416,0.35-1.05,0.35
					c-0.667-0.067-0.967-0.233-0.9-0.5c0.067-0.233,0.417-0.35,1.051-0.35C115.816,14.317,116.116,14.483,116.05,14.75z"/>
			</g>
			<g>
				<path style="fill-rule:evenodd;clip-rule:evenodd;fill:#83A7AA;" d="M130.05,16.45c-0.033,0.167-0.2,0.316-0.5,0.45
					c-0.333,0.133-0.717,0.184-1.149,0.15c-0.467-0.033-0.834-0.133-1.101-0.3c-0.3-0.167-0.416-0.35-0.35-0.55
					c0.1-0.367,0.633-0.517,1.6-0.45C129.55,15.817,130.05,16.05,130.05,16.45z"/>
			</g>
			<g>
				<path style="fill-rule:evenodd;clip-rule:evenodd;fill:#83A7AA;" d="M96.45,21.1c0-0.333,0.316-0.6,0.95-0.8
					c0.667-0.167,1.383-0.183,2.15-0.05c1.634,0.333,2.5,0.8,2.601,1.4c0.066,0.333-0.25,0.617-0.95,0.85s-1.434,0.267-2.2,0.1
					C97.233,22.333,96.383,21.833,96.45,21.1z"/>
			</g>
			<g>
				<path style="fill-rule:evenodd;clip-rule:evenodd;fill:#83A7AA;" d="M66.25,30.8c0-0.367,0.333-0.633,1-0.8
					c0.633-0.167,1.35-0.183,2.15-0.05c1.667,0.333,2.517,0.783,2.55,1.35c0.066,0.367-0.25,0.667-0.95,0.9
					c-0.7,0.233-1.433,0.267-2.2,0.1C67.1,31.967,66.25,31.467,66.25,30.8z"/>
			</g>
			<g>
				<path style="fill-rule:evenodd;clip-rule:evenodd;fill:#83A7AA;" d="M89.6,17.6c-0.133-0.333,0.083-0.717,0.65-1.15
					c0.633-0.467,1.383-0.767,2.25-0.9s1.633-0.066,2.3,0.2c0.6,0.233,0.883,0.517,0.85,0.85c-0.1,0.733-1.1,1.217-3,1.45
					C90.85,18.35,89.833,18.2,89.6,17.6z"/>
			</g>
			<g>
				<path style="fill-rule:evenodd;clip-rule:evenodd;fill:#83A7AA;" d="M89.05,14c0-0.267,0.25-0.367,0.75-0.3
					c0.5,0,0.717,0.117,0.65,0.35c-0.067,0.2-0.317,0.267-0.75,0.2C89.267,14.25,89.05,14.167,89.05,14z"/>
			</g>
			<g>
				<path style="fill-rule:evenodd;clip-rule:evenodd;fill:#81999D;" d="M73.7,18.3c-0.067-0.233,0.117-0.466,0.55-0.7
					c0.467-0.267,0.967-0.417,1.5-0.45c0.933-0.066,1.617,0.05,2.05,0.35c0.2,0.2,0.05,0.483-0.45,0.85
					c-0.5,0.333-1.017,0.5-1.55,0.5C74.567,18.95,73.867,18.767,73.7,18.3z"/>
			</g>
			<g>
				<path style="fill-rule:evenodd;clip-rule:evenodd;fill:#94AFA7;" d="M62.9,19c0.067-0.5,0.6-0.8,1.6-0.9
					c0.967-0.1,1.967,0.033,3,0.4c1.1,0.367,1.883,0.683,2.35,0.95c0.633,0.367,1,0.767,1.1,1.2c0.1,0.533-0.367,0.95-1.4,1.25
					c-1.1,0.333-2.2,0.3-3.3-0.1C63.917,20.967,62.8,20.033,62.9,19z"/>
			</g>
			<g>
				<path style="fill-rule:evenodd;clip-rule:evenodd;fill:#83A7AA;" d="M72.5,21.8c0-0.233,0.25-0.316,0.75-0.25
					c0.2,0.034,0.367,0.1,0.5,0.2s0.183,0.183,0.15,0.25c-0.1,0.167-0.35,0.217-0.75,0.15C72.717,22.083,72.5,21.967,72.5,21.8z"/>
			</g>
			<g>
				<path style="fill-rule:evenodd;clip-rule:evenodd;fill:#81999D;" d="M57.25,18.55c0-0.5,0.633-0.867,1.9-1.1
					c0.567-0.1,1.05-0.05,1.45,0.15c0.4,0.167,0.566,0.367,0.5,0.6c-0.133,0.367-0.767,0.633-1.9,0.8c-0.5,0.1-0.95,0.1-1.35,0
					C57.45,18.933,57.25,18.783,57.25,18.55z"/>
			</g>
			<g>
				<path style="fill-rule:evenodd;clip-rule:evenodd;fill:#81999D;" d="M86.05,33.65c0-0.2,0.167-0.4,0.5-0.6
					c0.367-0.233,0.833-0.383,1.4-0.45c0.566-0.1,1.05-0.05,1.45,0.15c0.4,0.167,0.567,0.367,0.5,0.6
					c-0.133,0.367-0.75,0.633-1.85,0.8c-0.533,0.067-1,0.067-1.4,0C86.25,34.05,86.05,33.883,86.05,33.65z"/>
			</g>
			<g>
				<path style="fill-rule:evenodd;clip-rule:evenodd;fill:#81999D;" d="M62.05,15.5c-0.1-0.133-0.017-0.25,0.25-0.35
					c0.267-0.133,0.583-0.2,0.95-0.2s0.667,0.066,0.9,0.2c0.267,0.167,0.367,0.317,0.3,0.45c-0.1,0.233-0.534,0.383-1.3,0.45
					c-0.333,0-0.633-0.05-0.9-0.15S61.917,15.667,62.05,15.5z"/>
			</g>
			<g>
				<path style="fill-rule:evenodd;clip-rule:evenodd;fill:#83A7AA;" d="M68.05,15.2c-0.066-0.2,0.1-0.434,0.5-0.7
					c0.434-0.267,0.917-0.417,1.45-0.45c0.567-0.066,1.05-0.017,1.45,0.15c0.433,0.167,0.617,0.367,0.55,0.6
					c-0.133,0.4-0.783,0.684-1.95,0.85C68.883,15.75,68.217,15.6,68.05,15.2z"/>
			</g>
			<g>
				<path style="fill-rule:evenodd;clip-rule:evenodd;fill:#83A7AA;" d="M84.95,11.65c-0.1,0.367-0.617,0.6-1.55,0.7
					c-0.767,0.033-1.283-0.033-1.55-0.2c-0.2-0.133-0.1-0.35,0.3-0.65c0.367-0.3,0.767-0.45,1.2-0.45
					c0.467-0.033,0.867,0.017,1.2,0.15C84.85,11.3,84.983,11.45,84.95,11.65z"/>
			</g>
			<g>
				<path style="fill-rule:evenodd;clip-rule:evenodd;fill:#83A7AA;" d="M76.5,12.5c-0.067-0.233,0.2-0.35,0.8-0.35
					c0.534,0,0.767,0.117,0.7,0.35c0,0.2-0.267,0.3-0.8,0.3C76.733,12.8,76.5,12.7,76.5,12.5z"/>
			</g>
			<g>
				<path style="fill-rule:evenodd;clip-rule:evenodd;fill:#94AFA7;" d="M43.3,16.35c-1.5,0.167-2.8,0.117-3.9-0.15
					c-1.167-0.3-1.767-0.767-1.8-1.4c-0.033-0.667,0.483-1.3,1.55-1.9c1.133-0.667,2.517-1.066,4.15-1.2
					c1.667-0.167,3.1,0.066,4.3,0.7c1.133,0.567,1.6,1.184,1.4,1.85C48.633,15.35,46.733,16.05,43.3,16.35z"/>
			</g>
			<g>
				<path style="fill-rule:evenodd;clip-rule:evenodd;fill:#94AFA7;" d="M65.85,27.15c0-0.333,0.267-0.667,0.8-1
					c0.6-0.333,1.317-0.533,2.15-0.6c0.867-0.1,1.6,0.017,2.2,0.35c0.567,0.267,0.8,0.583,0.7,0.95
					c-0.167,0.566-1.133,0.933-2.9,1.1c-0.767,0.066-1.433,0.033-2-0.1C66.2,27.717,65.883,27.483,65.85,27.15z"/>
			</g>
			<g>
				<path style="fill-rule:evenodd;clip-rule:evenodd;fill:#83A7AA;" d="M49.85,16.55c-0.167-0.233,0.017-0.5,0.55-0.8
					s1.117-0.4,1.75-0.3c1.2,0.2,1.85,0.533,1.95,1c0.066,0.267-0.167,0.5-0.7,0.7c-0.5,0.167-1.033,0.2-1.6,0.1
					c-0.8-0.133-1.233-0.217-1.3-0.25C50.167,16.9,49.95,16.75,49.85,16.55z"/>
			</g>
			<g>
				<path style="fill-rule:evenodd;clip-rule:evenodd;fill:#81999D;" d="M58.1,15.1c0.033,0.133-0.083,0.267-0.35,0.4
					s-0.583,0.217-0.95,0.25c-0.9-0.067-1.316-0.25-1.25-0.55c0-0.367,0.434-0.55,1.3-0.55C57.65,14.65,58.067,14.8,58.1,15.1z"/>
			</g>
			<g>
				<path style="fill-rule:evenodd;clip-rule:evenodd;fill:#81999D;" d="M45.1,30.95c0.033,0.167-0.083,0.316-0.35,0.45
					c-0.3,0.133-0.633,0.2-1,0.2c-0.833,0-1.25-0.184-1.25-0.55c0.067-0.333,0.5-0.5,1.3-0.5C44.567,30.55,45,30.683,45.1,30.95z"/>
			</g>
			<g>
				<path style="fill-rule:evenodd;clip-rule:evenodd;fill:#83A7AA;" d="M97.1,7.85c-0.033,0.333-0.35,0.583-0.95,0.75
					c-0.6,0.2-1.283,0.267-2.05,0.2c-1.6-0.1-2.517-0.417-2.75-0.95c-0.1-0.333,0.167-0.667,0.8-1c0.7-0.333,1.45-0.483,2.25-0.45
					c0.833,0.033,1.517,0.2,2.05,0.5C96.95,7.2,97.167,7.517,97.1,7.85z"/>
			</g>
			<g>
				<path style="fill-rule:evenodd;clip-rule:evenodd;fill:#81999D;" d="M102.1,12.05c0.034,0.2-0.116,0.383-0.449,0.55
					c-0.367,0.233-0.784,0.367-1.25,0.4c-0.5,0.033-0.934-0.05-1.301-0.25c-0.333-0.2-0.449-0.4-0.35-0.6
					c0.134-0.233,0.684-0.417,1.65-0.55C101.5,11.533,102.066,11.683,102.1,12.05z"/>
			</g>
			<g>
				<path style="fill-rule:evenodd;clip-rule:evenodd;fill:#83A7AA;" d="M106.25,9.45c0.066,0.133-0.017,0.333-0.25,0.6
					c-0.267,0.233-0.583,0.417-0.95,0.55c-0.934,0.233-1.45,0.183-1.55-0.15c-0.033-0.167,0.083-0.333,0.35-0.5
					c0.267-0.2,0.584-0.35,0.95-0.45C105.566,9.233,106.05,9.217,106.25,9.45z"/>
			</g>
			<g>
				<path style="fill-rule:evenodd;clip-rule:evenodd;fill:#83A7AA;" d="M111.4,10.95c0.199,0.333,0.033,0.783-0.5,1.35
					c-0.601,0.667-1.434,1.1-2.5,1.3c-1.034,0.133-1.884,0.033-2.551-0.3c-0.633-0.3-0.916-0.65-0.85-1.05
					c0.066-0.6,1.134-1.05,3.2-1.35c0.467-0.066,1.133-0.167,2-0.3C110.866,10.567,111.267,10.683,111.4,10.95z"/>
			</g>
			<g>
				<path style="fill-rule:evenodd;clip-rule:evenodd;fill:#94AFA7;" d="M115.15,8.85c-0.034,0.4-0.634,0.633-1.801,0.7
					c-1.033,0.067-1.6-0.066-1.699-0.4c-0.067-0.2,0.083-0.417,0.449-0.65c0.367-0.233,0.801-0.367,1.301-0.4s0.933,0.033,1.3,0.2
					C115.033,8.467,115.184,8.65,115.15,8.85z"/>
			</g>
			<g>
				<path style="fill-rule:evenodd;clip-rule:evenodd;fill:#83A7AA;" d="M122.35,9.1c-0.166,0.467-0.833,0.517-2,0.15
					c-0.433-0.133-0.783-0.333-1.05-0.6c-0.267-0.233-0.383-0.45-0.35-0.65c0.066-0.2,0.3-0.317,0.7-0.35
					c0.399-0.033,0.833,0.033,1.3,0.2c0.467,0.167,0.833,0.367,1.1,0.6C122.316,8.683,122.417,8.9,122.35,9.1z"/>
			</g>
			<g>
				<path style="fill-rule:evenodd;clip-rule:evenodd;fill:#83A7AA;" d="M156.05,32.9c-0.033,0.2-0.25,0.317-0.649,0.35
					c-0.4,0.033-0.834-0.033-1.301-0.2c-0.466-0.167-0.833-0.367-1.1-0.6c-0.267-0.233-0.366-0.45-0.3-0.65
					c0.066-0.2,0.283-0.316,0.649-0.35c0.4-0.034,0.834,0.017,1.301,0.15c0.466,0.167,0.833,0.367,1.1,0.6
					C156.017,32.467,156.116,32.7,156.05,32.9z"/>
			</g>
			<g>
				<path style="fill-rule:evenodd;clip-rule:evenodd;fill:#94AFA7;" d="M121.9,11.9c-0.233,0.467-0.9,0.483-2,0.05
					c-1.067-0.4-1.551-0.817-1.45-1.25c0.033-0.2,0.25-0.333,0.649-0.4c0.434-0.033,0.9,0.034,1.4,0.2s0.884,0.4,1.15,0.7
					C121.884,11.467,121.967,11.7,121.9,11.9z"/>
			</g>
			<g>
				<path style="fill-rule:evenodd;clip-rule:evenodd;fill:#94AFA7;" d="M129.6,12.45c-0.133,0.367-0.533,0.583-1.199,0.65
					c-0.7,0.066-1.467-0.017-2.301-0.25c-0.866-0.233-1.533-0.533-2-0.9c-0.5-0.367-0.733-0.733-0.699-1.1
					c0.066-0.367,0.466-0.617,1.199-0.75c0.767-0.133,1.567-0.083,2.4,0.15c0.866,0.267,1.55,0.617,2.05,1.05
					C129.583,11.733,129.767,12.117,129.6,12.45z"/>
			</g>
			<g>
				<path style="fill-rule:evenodd;clip-rule:evenodd;fill:#83A7AA;" d="M142.8,19.1c-0.166,0.367-0.684,0.35-1.55-0.05
					c-0.8-0.5-1.083-0.9-0.85-1.2c0.233-0.333,0.716-0.283,1.449,0.15c0.334,0.133,0.601,0.317,0.801,0.55
					C142.816,18.75,142.866,18.933,142.8,19.1z"/>
			</g>
			<g>
				<path style="fill-rule:evenodd;clip-rule:evenodd;fill:#83A7AA;" d="M127.4,26.65c0.066,0.2-0.084,0.417-0.45,0.65
					c-0.4,0.233-0.867,0.35-1.4,0.35c-0.5-0.033-0.916-0.133-1.25-0.3c-0.333-0.2-0.467-0.4-0.399-0.6c0.066-0.4,0.666-0.6,1.8-0.6
					C126.7,26.15,127.267,26.317,127.4,26.65z"/>
			</g>
			<g>
				<path style="fill-rule:evenodd;clip-rule:evenodd;fill:#83A7AA;" d="M81.7,7.95c-0.1,0.233-0.617,0.517-1.55,0.85
					c-0.433,0.167-0.833,0.25-1.2,0.25h-0.1c-0.033,0.067-0.15,0.067-0.35,0c-0.167-0.066-0.25-0.15-0.25-0.25
					c-0.033-0.1,0.017-0.233,0.15-0.4l0.1-0.1l0.1-0.05l0.25,0.05c0.133,0,0.2,0.067,0.2,0.2L79,8.8l-0.1,0.15V9
					c0.233-0.167,0.3-0.333,0.2-0.5c0.033-0.133-0.133-0.233-0.5-0.3l0.1-0.05c0.2-0.267,0.566-0.5,1.1-0.7
					c0.5-0.167,0.967-0.184,1.4-0.05C81.633,7.567,81.8,7.75,81.7,7.95z"/>
			</g>
			<g>
				<path style="fill-rule:evenodd;clip-rule:evenodd;fill:#83A7AA;" d="M101.95,32.7c0.2-0.3,0.816-0.4,1.85-0.3
					c0.467,0.033,0.867,0.133,1.2,0.3c0.333,0.167,0.467,0.35,0.4,0.55c-0.067,0.467-0.7,0.667-1.9,0.6
					c-0.5-0.067-0.917-0.233-1.25-0.5C101.95,33.117,101.85,32.9,101.95,32.7z"/>
			</g>
			<g>
				<path style="fill-rule:evenodd;clip-rule:evenodd;fill:#83A7AA;" d="M94.55,32.9c-0.033-0.333,0.284-0.55,0.95-0.65
					c0.667-0.167,1.317-0.1,1.95,0.2c1.3,0.6,1.95,1.2,1.95,1.8c-0.034,0.3-0.367,0.483-1,0.55c-0.634,0.034-1.25-0.083-1.851-0.35
					C95.25,33.917,94.583,33.4,94.55,32.9z"/>
			</g>
			<g>
				<path style="fill-rule:evenodd;clip-rule:evenodd;fill:#83A7AA;" d="M63.5,7.35c-0.133,0-0.233-0.05-0.3-0.15
					C63.233,7,63.217,6.933,63.15,7c-0.066,0.033-0.1,0.083-0.1,0.15c-0.233,0.233-0.316,0.133-0.25-0.3
					c0.133-0.233,0.3-0.4,0.5-0.5c0.267-0.2,0.7-0.367,1.3-0.5c0.533-0.067,1-0.033,1.4,0.1c0.367,0.167,0.517,0.367,0.45,0.6
					c-0.1,0.367-0.684,0.633-1.75,0.8C64.2,7.417,63.8,7.417,63.5,7.35z"/>
			</g>
			<g>
				<path style="fill-rule:evenodd;clip-rule:evenodd;fill:#81999D;" d="M121.8,22.55c-0.333-0.033-0.483-0.083-0.45-0.15
					c0-0.036,0-0.069,0-0.1l-0.199,0.05c0,0.066-0.051,0.066-0.15,0c-0.033,0.066-0.116-0.017-0.25-0.25
					c0.066-0.333,0.1-0.517,0.1-0.55c0.134-0.1,0.25-0.167,0.351-0.2l1.3-0.3c1.134-0.133,1.733-0.05,1.8,0.25
					c0.066,0.2-0.05,0.434-0.35,0.7c-0.334,0.267-0.783,0.45-1.351,0.55C122.4,22.617,122.134,22.617,121.8,22.55z"/>
			</g>
			<g>
				<path style="fill-rule:evenodd;clip-rule:evenodd;fill:#83A7AA;" d="M139.05,15.35c-0.434,0.566-1.467,0.45-3.1-0.35
					c-0.967-0.5-1.483-0.783-1.55-0.85c-0.434-0.267-0.7-0.55-0.801-0.85c-0.1-0.4,0.25-0.7,1.051-0.9
					c0.833-0.2,1.649-0.1,2.449,0.3c0.801,0.367,1.384,0.833,1.75,1.4C139.217,14.633,139.283,15.05,139.05,15.35z"/>
			</g>
			<g>
				<path style="fill-rule:evenodd;clip-rule:evenodd;fill:#83A7AA;" d="M149.7,20.65c0,0.233-0.184,0.467-0.55,0.7
					c-0.4,0.233-0.9,0.4-1.5,0.5c-0.601,0.1-1.117,0.083-1.551-0.05c-0.466-0.133-0.683-0.333-0.649-0.6
					c0.066-0.5,0.75-0.867,2.05-1.1c0.566-0.1,1.083-0.1,1.55,0C149.483,20.233,149.7,20.417,149.7,20.65z"/>
			</g>
			<g>
				<path style="fill-rule:evenodd;clip-rule:evenodd;fill:#83A7AA;" d="M178.7,28.95c0,0.233-0.184,0.466-0.55,0.7
					c-0.4,0.233-0.884,0.4-1.45,0.5c-0.601,0.1-1.117,0.083-1.55-0.05c-0.467-0.133-0.684-0.333-0.65-0.6
					c0.066-0.5,0.75-0.867,2.05-1.1c0.566-0.1,1.066-0.1,1.5,0C178.483,28.533,178.7,28.717,178.7,28.95z"/>
			</g>
			<g>
				<path style="fill-rule:evenodd;clip-rule:evenodd;fill:#83A7AA;" d="M146.65,19.15c0.033,0.133-0.067,0.25-0.301,0.35
					s-0.517,0.133-0.85,0.1c-0.3,0-0.566-0.067-0.8-0.2c-0.2-0.133-0.267-0.25-0.2-0.35c0.1-0.233,0.483-0.35,1.15-0.35
					C146.316,18.767,146.65,18.917,146.65,19.15z"/>
			</g>
			<g>
				<path style="fill-rule:evenodd;clip-rule:evenodd;fill:#83A7AA;" d="M25.8,40.7c0,0.433-0.316,0.85-0.95,1.25
					c-0.6,0.4-1.4,0.733-2.4,1c-1,0.267-1.9,0.3-2.7,0.1c-0.8-0.2-1.183-0.517-1.15-0.95c0.066-0.867,1.183-1.583,3.35-2.15
					c1-0.233,1.9-0.284,2.7-0.15C25.417,39.967,25.8,40.267,25.8,40.7z"/>
			</g>
			<g>
				<path style="fill-rule:evenodd;clip-rule:evenodd;fill:#81999D;" d="M35.95,49c2.4,0,3.7,0.367,3.9,1.1
					c0.1,0.467-0.25,0.967-1.05,1.5c-0.867,0.533-1.883,0.816-3.05,0.85c-1.167-0.034-2.133-0.25-2.9-0.65
					c-0.733-0.4-1.067-0.85-1-1.35c0.033-0.434,0.483-0.8,1.35-1.1C33.967,49.117,34.883,49,35.95,49z"/>
			</g>
			<g>
				<path style="fill-rule:evenodd;clip-rule:evenodd;fill:#83A7AA;" d="M40.05,19.35c0.934,0.267,1.35,0.583,1.25,0.95
					c-0.066,0.434-0.617,0.55-1.65,0.35c-1-0.367-1.417-0.733-1.25-1.1c0.067-0.167,0.267-0.267,0.6-0.3
					C39.3,19.183,39.65,19.217,40.05,19.35z"/>
			</g>
			<g>
				<path style="fill-rule:evenodd;clip-rule:evenodd;fill:#83A7AA;" d="M26.6,32.25c0.133,0.2,0.033,0.467-0.3,0.8
					c-0.4,0.333-0.867,0.567-1.4,0.7c-0.566,0.133-1.05,0.133-1.45,0c-0.367-0.1-0.567-0.267-0.6-0.5c0-0.467,0.6-0.833,1.8-1.1
					C25.75,31.917,26.4,31.95,26.6,32.25z"/>
			</g>
			<g>
				<path style="fill-rule:evenodd;clip-rule:evenodd;fill:#81999D;" d="M19.05,29.2c-0.019,0.037-0.044,0.003-0.075-0.1l-0.125,0.1
					l-0.2,0.05c0,0.067-0.117-0.017-0.35-0.25c-0.1-0.267-0.083-0.467,0.05-0.6c0.233-0.2,0.333-0.3,0.3-0.3l1.3-0.65
					c1.167-0.467,1.85-0.517,2.05-0.15c0.1,0.2,0.017,0.467-0.25,0.8c-0.333,0.367-0.767,0.683-1.3,0.95
					c-0.233,0.1-0.534,0.167-0.9,0.2C19.185,29.283,19.018,29.267,19.05,29.2z"/>
			</g>
			<g>
				<path style="fill-rule:evenodd;clip-rule:evenodd;fill:#83A7AA;" d="M49.1,20.25c0.066,0.267-0.083,0.567-0.45,0.9
					c-0.367,0.367-0.85,0.667-1.45,0.9c-0.633,0.233-1.2,0.333-1.7,0.3s-0.767-0.184-0.8-0.45c-0.067-0.533,0.566-1.083,1.9-1.65
					c0.6-0.233,1.15-0.35,1.65-0.35S49.033,20.017,49.1,20.25z"/>
			</g>
			<g>
				<path style="fill-rule:evenodd;clip-rule:evenodd;fill:#83A7AA;" d="M45.45,19.4c0.066,0.133-0.017,0.283-0.25,0.45
					c-0.233,0.167-0.517,0.283-0.85,0.35c-0.833,0.133-1.25,0-1.25-0.4c0.033-0.267,0.417-0.466,1.15-0.6
					C44.983,19,45.383,19.067,45.45,19.4z"/>
			</g>
		</g>
	</g>
</g>
</svg>
