<?xml version="1.0" encoding="iso-8859-1"?>
<!-- Generator: Adobe Illustrator 15.1.0, SVG Export Plug-In . SVG Version: 6.00 Build 0)  -->
<!DOCTYPE svg PUBLIC "-//W3C//DTD SVG 1.1//EN" "http://www.w3.org/Graphics/SVG/1.1/DTD/svg11.dtd">
<svg version="1.1" id="Layer_1" xmlns="http://www.w3.org/2000/svg" xmlns:xlink="http://www.w3.org/1999/xlink" x="0px" y="0px"
	 width="486.85px" height="319.4px" viewBox="0 0 486.85 319.4" style="enable-background:new 0 0 486.85 319.4;"
	 xml:space="preserve">
<g>
	<path style="fill-rule:evenodd;clip-rule:evenodd;fill:#1F2433;" d="M98.9,56.25c0.6-1.467,1.9-1.333,3.9,0.4
		c0.667,0.533,1.15,1.267,1.45,2.2c0.1,0.267,0.55,1.933,1.35,5c0.633,2.4,0.583,3.883-0.15,4.45c-0.7,0.5-1.733,0.05-3.1-1.35
		c-1.533-1.6-2.65-3.233-3.35-4.9C98.167,59.95,98.133,58.017,98.9,56.25z"/>
	<path style="fill-rule:evenodd;clip-rule:evenodd;fill:#1F2433;" d="M101.9,68.8c1.7,0.967,4,2.417,6.9,4.35
		c1.833,1.233,3.75,2.25,5.75,3.05c2.167,0.867,3.517,2.683,4.05,5.45c0.367,1.667,0.867,4.7,1.5,9.1
		c0.566,2.133,0.35,5.25-0.65,9.35c-0.833,3.5-1.517,5.566-2.05,6.2c-0.367,0.4-3.05,0.383-8.05-0.05
		c-5.367-0.467-9.7-1.217-13-2.25c-3.2-0.967-5.717-2.983-7.55-6.05c-0.9-1.534-2.417-5.217-4.55-11.05
		c-1.567-4.333-1.95-8.9-1.15-13.7c0.733-4.567,2.4-8.65,5-12.25c1.933-2.7,4-2.75,6.2-0.15c0.667,0.8,1.75,2.184,3.25,4.15
		C99.05,66.717,100.5,68,101.9,68.8z"/>
	<path style="fill-rule:evenodd;clip-rule:evenodd;fill:#1F2433;" d="M114.6,72.45c-1,0.667-1.833-0.25-2.5-2.75
		c-0.667-2.5-0.267-3.983,1.2-4.45c1.667-0.533,2.784,0.217,3.35,2.25C117.217,69.533,116.533,71.183,114.6,72.45z"/>
	<path style="fill-rule:evenodd;clip-rule:evenodd;fill:#1F2433;" d="M100.6,185.45c1.533-1.134,3.583-1.967,6.15-2.5
		c2.733-0.533,4.65-0.367,5.75,0.5c1.7,1.399,3.333,6,4.9,13.8c0.434,2.333-0.917,5.634-4.05,9.9c-2.4,3.3-5.417,6.633-9.05,10
		c-2.5,2.3-4.6,3.267-6.3,2.899c-0.933-0.2-1.983-1.033-3.15-2.5c-0.6-0.733-1.283-2.083-2.05-4.05c-1.2-3.1-2.033-5.15-2.5-6.15
		c-0.9-1.933-1.066-3.517-0.5-4.75c1.1-1.633,2.017-3.267,2.75-4.899c1.534-3.367,2.633-5.634,3.3-6.8
		C97.217,188.634,98.8,186.816,100.6,185.45z"/>
	<path style="fill-rule:evenodd;clip-rule:evenodd;fill:#1F2433;" d="M122.9,136.85c1.8,1.233,3.167,3.3,4.1,6.2
		c0.867,2.7,1.133,5.317,0.8,7.85c-0.633,4.7-2.4,7.983-5.3,9.85c-1,0.667-2.183,0.184-3.55-1.45c-1.667-2-2.967-3.083-3.9-3.25
		c-1.367-0.2-2.45-0.667-3.25-1.4c-0.867-1-1.65-1.833-2.35-2.5c-1.867-1.467-3.317-2.767-4.35-3.9
		c-1.967-2.033-3.017-4.133-3.15-6.3c-0.133-1.8,0.117-3.217,0.75-4.25c0.667-1.167,2.05-2.267,4.15-3.3
		c0.867-0.433,3.233-0.433,7.1,0C118.217,134.867,121.2,135.683,122.9,136.85z"/>
	<path style="fill-rule:evenodd;clip-rule:evenodd;fill:#1F2433;" d="M448.15,34.95c7.699,1.1,13.116,2.75,16.25,4.95
		c3.333,2.333,5.933,6.15,7.8,11.45c1.767,4.9,2.416,9.6,1.95,14.1c-0.834,8.333-3.817,14.117-8.95,17.35
		c-1.8,1.133-3.967,0.2-6.5-2.8c-3.101-3.7-5.517-5.717-7.25-6.05c-2.467-0.467-4.45-1.383-5.95-2.75
		c-1.634-1.867-3.083-3.4-4.35-4.6c-3.467-2.767-6.184-5.184-8.15-7.25c-3.634-3.8-5.667-7.65-6.1-11.55
		c-0.334-3.267,0.017-5.8,1.05-7.6c1.2-2.067,3.649-3.967,7.35-5.7C436.833,33.8,441.116,33.95,448.15,34.95z"/>
	<path style="fill-rule:evenodd;clip-rule:evenodd;fill:#1F2433;" d="M91.95,139.75c0.466-1.2,1.55-1.1,3.25,0.3
		c0.533,0.467,0.917,1.083,1.15,1.85c0.1,0.233,0.483,1.617,1.15,4.15c0.5,2,0.45,3.233-0.15,3.7c-0.567,0.433-1.417,0.067-2.55-1.1
		c-1.267-1.333-2.183-2.7-2.75-4.1C91.35,142.817,91.317,141.217,91.95,139.75z"/>
	<path style="fill-rule:evenodd;clip-rule:evenodd;fill:#1F2433;" d="M40.1,135.9c-0.233,0.9-0.733,1.583-1.5,2.05
		c-0.8,0.466-1.65,0.55-2.55,0.25c-1.233-0.367-1.75-2.1-1.55-5.2c0.133-1.233,1.383-1.85,3.75-1.85c0.7,0,1.25,0.533,1.65,1.6
		C40.3,133.783,40.367,134.833,40.1,135.9z"/>
	<path style="fill-rule:evenodd;clip-rule:evenodd;fill:#1F2433;" d="M45.55,145.45c0.667-1.233,2.25-1.367,4.75-0.4
		c0.733,0.267,1.05,1.034,0.95,2.3c-0.133,1.233-0.583,2.333-1.35,3.3c-0.7,0.833-1.566,1.35-2.6,1.55
		c-1.033,0.167-1.95-0.083-2.75-0.75C43.417,150.483,43.75,148.483,45.55,145.45z"/>
	<path style="fill-rule:evenodd;clip-rule:evenodd;fill:#1F2433;" d="M86.65,221.6c0.2,0.834-1.517,1.351-5.15,1.551
		c-4.267,0.066-7.017,0.149-8.25,0.25c-1.567,0.133-4.4-0.617-8.5-2.25c-4.867-2.101-8.367-3.601-10.5-4.5
		c-3.467-1.467-5.9-3.034-7.3-4.7c-1.5-1.8-0.817-2.733,2.05-2.8c2.233-0.067,4.867,0.466,7.9,1.6c2.767,1.033,4.45,1.467,5.05,1.3
		c0.933-0.267,2.533-0.184,4.8,0.25c1.4,0.267,4.183,0.816,8.35,1.65c3.733,0.666,6.4,1.5,8,2.5
		C85,217.583,86.183,219.3,86.65,221.6z"/>
	<path style="fill-rule:evenodd;clip-rule:evenodd;fill:#1F2433;" d="M73.95,165.6c-0.833,0.567-1.517-0.199-2.05-2.3
		c-0.566-2.066-0.233-3.3,1-3.7c1.367-0.434,2.283,0.2,2.75,1.9S75.55,164.566,73.95,165.6z"/>
	<path style="fill-rule:evenodd;clip-rule:evenodd;fill:#1F2433;" d="M55.3,144.85c1-3.4,1.85-5.417,2.55-6.05
		c0.566-0.5,1.566-0.633,3-0.4c0.867,0.167,2.3,0.467,4.3,0.9c2.4,0.434,3.883,2.967,4.45,7.6c0.4,3,0.05,5.934-1.05,8.8
		c-0.433,1.133-1.367,1.6-2.8,1.4c-3.167-0.467-4.967-0.7-5.4-0.7c-2.067,0.033-3.483-0.35-4.25-1.15
		c-0.3-0.367-0.883-1.617-1.75-3.75C53.983,150.533,54.3,148.317,55.3,144.85z"/>
	<path style="fill-rule:evenodd;clip-rule:evenodd;fill:#1F2433;" d="M26.85,193.6c-0.333-3.033,0.316-5.216,1.95-6.55
		c1.367-1.1,2.467-0.783,3.3,0.95c0.5,1,1.25,2.75,2.25,5.25c0.967,1.634,0.933,3.134-0.1,4.5c-1.033,1.434-2.517,1.833-4.45,1.2
		C28.133,198.35,27.15,196.566,26.85,193.6z"/>
	<path style="fill-rule:evenodd;clip-rule:evenodd;fill:#1F2433;" d="M22.8,162.3c-0.466-1.866-0.3-3.816,0.5-5.85
		c0.8-2.1,1.934-3.417,3.4-3.95c1.3-0.467,2.583-0.467,3.85,0c0.067,0.033,1.517,0.767,4.35,2.2c3.033,1.566,3.184,3.8,0.45,6.7
		c-1.3,1.333-3.717,3.55-7.25,6.649c-1.767,1.533-3.033,1.533-3.8,0C24.167,167.783,23.667,165.866,22.8,162.3z"/>
	<path style="fill-rule:evenodd;clip-rule:evenodd;fill:#1F2433;" d="M78.15,175.75c-1.3-2.634-1.5-4.983-0.6-7.05
		c1.267-2.934,4.833-4.467,10.7-4.601c5.733-0.133,10.05,1.084,12.95,3.65c2.5,2.233,3.483,4.283,2.95,6.15
		c-0.367,1.233-1.65,2.683-3.85,4.35c-1.133,0.9-2.883,2.267-5.25,4.1c-2.4,1.667-5.35,3.184-8.85,4.551
		c-3.333,1.267-4.95,1.166-4.85-0.301c0.167-1.033,0.3-1.85,0.4-2.449c0.167-1.134,0.1-2.034-0.2-2.7
		C80.017,179.083,78.883,177.184,78.15,175.75z"/>
	<path style="fill-rule:evenodd;clip-rule:evenodd;fill:#1F2433;" d="M38.35,195.05c-0.767-3.267-1.684-5.866-2.75-7.8
		c-1.533-2.434-2.917-4.75-4.15-6.95c-1.467-2.7-1.534-5.166-0.2-7.399c2.1-2.534,3.533-4.717,4.3-6.551
		c3.567-8.399,9.867-11.116,18.9-8.149c3.466,1.133,6.917,3,10.35,5.6c3.133,2.367,5.55,4.783,7.25,7.25
		c2.833,4.066,4.617,8.767,5.35,14.101c0.533,4.133,0.417,7.466-0.35,10c-0.2,0.666-0.383,3.133-0.55,7.399
		c-0.1,3.267-0.7,5.25-1.8,5.95c-1.133,0.767-3.317,0.884-6.55,0.35c-4.267-0.899-7.717-1.533-10.35-1.899
		c-4.8-0.634-8.783-1.767-11.95-3.4C41.717,201.45,39.217,198.616,38.35,195.05z"/>
	<path style="fill-rule:evenodd;clip-rule:evenodd;fill:#1F2433;" d="M268.8,273.15c0.101-1.5,1.584-2.784,4.45-3.851
		c2.934-1.066,5.267-1.116,7-0.149c1.467,0.767,1.467,1.733,0,2.899c-2.2,1.367-3.733,2.434-4.6,3.2
		c-1.334,1.233-2.834,1.634-4.5,1.2C269.45,275.983,268.667,274.884,268.8,273.15z"/>
	<path style="fill-rule:evenodd;clip-rule:evenodd;fill:#1F2433;" d="M332.7,111.2c-0.367-1.067,0.316-2.284,2.05-3.65
		c1.767-1.4,3.417-1.966,4.95-1.7c1.267,0.233,1.55,0.917,0.85,2.05c-1.2,1.467-2,2.567-2.399,3.3
		c-0.601,1.167-1.551,1.767-2.851,1.8C333.967,113.033,333.1,112.433,332.7,111.2z"/>
	<path style="fill-rule:evenodd;clip-rule:evenodd;fill:#1F2433;" d="M370.35,145.95c0.101-0.133,1.717-1.267,4.851-3.4
		c3.399-2.367,6.25-1.45,8.55,2.75c0.833,1.5,1.55,2.95,2.15,4.35c0.333,0.7,1.233,2.783,2.699,6.25
		c1.101,2.533,0.517,3.833-1.75,3.9c-0.333,0-2.983-0.417-7.949-1.25c-2.534-0.433-4.917-1.55-7.15-3.35
		c-2.233-1.833-3.333-3.617-3.3-5.35C368.517,148.283,369.15,146.983,370.35,145.95z"/>
	<path style="fill-rule:evenodd;clip-rule:evenodd;fill:#1F2433;" d="M340.6,98.3c0.7-1.6,2.684-2.45,5.95-2.55
		c3.2-0.067,5.601,0.617,7.2,2.05c1.4,1.233,1.95,2.367,1.65,3.4c-0.233,0.667-0.95,1.466-2.15,2.4c-1.2,1-2.184,1.767-2.95,2.3
		c-1.3,0.934-2.934,1.767-4.899,2.5c-1.834,0.733-2.733,0.684-2.7-0.15c0.133-1.867,0.184-2.817,0.149-2.85
		c-0.866-1.3-1.5-2.35-1.899-3.15C340.217,100.783,340.1,99.467,340.6,98.3z"/>
	<path style="fill-rule:evenodd;clip-rule:evenodd;fill:#1F2433;" d="M345.7,63.65c1.866-0.3,3.35-0.316,4.45-0.05
		c0.333,0.066,0.833,0.683,1.5,1.85c1.267,2.167,2.033,3.466,2.3,3.9c1.467,2.2,1.017,5.717-1.351,10.55
		c-1.466,2.967-3.6,6.1-6.399,9.4c-0.934,1.1-1.9,0.9-2.9-0.6c-1.233-2.367-2.267-4.184-3.1-5.45c-0.601-0.9-1.55-2.2-2.851-3.9
		c-0.833-1.067-1.566-2.233-2.199-3.5c-0.7-1.467-0.517-3.017,0.55-4.65c0.633-0.967,1.866-2.417,3.7-4.35
		C340.767,65.15,342.866,64.083,345.7,63.65z"/>
	<path style="fill-rule:evenodd;clip-rule:evenodd;fill:#1F2433;" d="M284.85,238.95c1.567,2.233,1.684,4.8,0.351,7.7
		c-2.167,3.5-3.8,6.166-4.9,8c-1.833,3.066-5,5.25-9.5,6.55c-3.033,0.899-5.483,1.25-7.35,1.05c-0.566-0.033-1.55-0.934-2.95-2.7
		c-2.533-3.166-4.134-5.116-4.8-5.85c-3-3.334-3.2-9.217-0.601-17.65c1.733-5.467,4.417-11.066,8.051-16.8
		c1.267-2.033,2.916-1.917,4.949,0.35c1.233,1.4,3.417,4.167,6.551,8.301c1.233,1.366,3.133,3.283,5.699,5.75
		C281.983,235.217,283.483,236.983,284.85,238.95z"/>
	<path style="fill-rule:evenodd;clip-rule:evenodd;fill:#1F2433;" d="M328.8,266.9c1.7-0.4,2.867-0.95,3.5-1.65
		c0.967-1.033,2.884-0.75,5.75,0.85c0.634,0.334,2.75,1.767,6.351,4.301c2.1,1.433,4,3.083,5.699,4.949c2,2.2,2.25,3.334,0.75,3.4
		c-6.5,0.366-11.783,0.384-15.85,0.05c-2.233-0.2-4-1.517-5.3-3.95c-0.467-0.866-1.15-2.816-2.05-5.85
		C327.316,267.866,327.7,267.167,328.8,266.9z"/>
	<path style="fill-rule:evenodd;clip-rule:evenodd;fill:#1F2433;" d="M258.85,81.45c-3.833-0.167-6.966-2.284-9.399-6.35
		c-0.9-1.5-2.25-4.8-4.05-9.9c-0.634-1.9-0.034-3.117,1.8-3.65c2.866-0.833,4.816-1.85,5.85-3.05c1.566-1.867,4.851-1.533,9.851,1
		c0.8,0.4,4.566,2.7,11.3,6.9c3.733,2.367,7.116,5.05,10.149,8.05c3.634,3.667,4.167,5.617,1.601,5.85
		C274.684,81.367,265.65,81.75,258.85,81.45z"/>
	<path style="fill-rule:evenodd;clip-rule:evenodd;fill:#1F2433;" d="M280.8,173.6c-1.399-0.533-1.666-2.25-0.8-5.149
		c0.134-0.467,1.05-2.717,2.75-6.75c0.9-2.2,2.1-4.317,3.6-6.35c1.767-2.4,2.9-2.95,3.4-1.65c2.3,5.533,3.833,10.083,4.6,13.649
		c0.467,2-0.399,3.917-2.6,5.75c-0.833,0.667-2.717,1.817-5.65,3.45c-1.1,0.601-1.949,0.483-2.55-0.35
		C282.616,174.833,281.7,173.967,280.8,173.6z"/>
	<path style="fill-rule:evenodd;clip-rule:evenodd;fill:#1F2433;" d="M384.95,233.35c1.566-2.733,3.783-3.216,6.649-1.449
		c2.267,1.399,3.717,2.866,4.351,4.399c0.3,0.667,0.166,1.7-0.4,3.101c-0.533,1.3-1.184,2.333-1.95,3.1
		c-1.199,1.167-2.199,1.967-3,2.4c-1.399,0.767-2.616,0.816-3.649,0.149c-1.334-0.866-2.267-2.5-2.8-4.899
		C383.583,237.55,383.85,235.283,384.95,233.35z"/>
	<path style="fill-rule:evenodd;clip-rule:evenodd;fill:#1F2433;" d="M372.2,59.2c3.633-3.7,7.5-1.833,11.6,5.6
		c1.4,2.6,2.684,5.583,3.851,8.95c0.966,2.8,1.517,4.783,1.649,5.95c0.2,1.767-0.416,3.733-1.85,5.9
		c-1.4,2.066-2.884,3.367-4.45,3.9c-2.434,0.867-4.4,1.25-5.9,1.15c-2.6-0.2-4.633-1.7-6.1-4.5c-1.866-3.467-2.767-8.05-2.7-13.75
		C368.333,66.2,369.634,61.8,372.2,59.2z"/>
	<path style="fill-rule:evenodd;clip-rule:evenodd;fill:#1F2433;" d="M213.25,271.65c1.533-1.167,3.6-2.017,6.2-2.551
		c2.767-0.566,4.7-0.399,5.8,0.5c1.733,1.4,3.383,6.051,4.95,13.95c0.433,2.367-0.917,5.7-4.05,10
		c-2.467,3.334-5.517,6.684-9.15,10.05c-2.5,2.334-4.617,3.317-6.35,2.95c-0.967-0.2-2.05-1.033-3.25-2.5
		c-0.6-0.733-1.283-2.1-2.05-4.1c-1.2-3.134-2.033-5.2-2.5-6.2c-0.9-1.967-1.083-3.566-0.55-4.8c1.133-1.634,2.067-3.283,2.8-4.95
		c1.5-3.366,2.617-5.65,3.35-6.85C209.783,274.884,211.383,273.05,213.25,271.65z"/>
	<path style="fill-rule:evenodd;clip-rule:evenodd;fill:#1F2433;" d="M286.1,230.8c0.434-1.833,1.367-2.583,2.801-2.25
		c1.166,0.233,2.05,0.834,2.649,1.8c0.267,0.434,1.066,1.667,2.4,3.7c1.166,2.066,1.7,3.65,1.6,4.75c-0.1,1.066-0.95,1.15-2.55,0.25
		c-2.033-1.366-3.533-2.233-4.5-2.6c-1.3-0.5-2.116-1.384-2.45-2.65C285.816,232.9,285.833,231.9,286.1,230.8z"/>
	<path style="fill-rule:evenodd;clip-rule:evenodd;fill:#1F2433;" d="M330.1,237.95c3.634,1.533,6.017,3.033,7.15,4.5
		c1.2,1.533,1.767,3.717,1.7,6.55c-0.101,2.634-0.7,5.017-1.8,7.15c-2.034,3.933-4.634,6.399-7.801,7.399
		c-1.133,0.334-2.033-0.399-2.699-2.2c-0.867-2.233-1.684-3.533-2.45-3.899c-1.134-0.533-1.95-1.233-2.45-2.101
		c-0.434-1.1-0.85-2.033-1.25-2.8c-1.2-1.8-2.1-3.333-2.7-4.6c-1.066-2.3-1.316-4.434-0.75-6.4c0.434-1.633,1.101-2.833,2-3.6
		c1-0.834,2.584-1.45,4.75-1.851C324.7,235.967,326.8,236.583,330.1,237.95z"/>
	<path style="fill-rule:evenodd;clip-rule:evenodd;fill:#1F2433;" d="M174.45,221.7c0.867-1.101,1.917-0.05,3.15,3.149
		c0.4,1.034,0.617,2.15,0.65,3.351c0.033,0.399,0,2.517-0.1,6.35c-0.033,3-0.433,4.55-1.2,4.65c-0.7,0.1-1.45-1.084-2.25-3.55
		c-0.9-2.801-1.417-5.334-1.55-7.601C172.95,225.184,173.383,223.066,174.45,221.7z"/>
	<path style="fill-rule:evenodd;clip-rule:evenodd;fill:#1F2433;" d="M374.85,222.9c0.567-1.301,1.784-1.184,3.65,0.35
		c0.6,0.5,1.05,1.184,1.35,2.05c0,0.033,0.417,1.601,1.25,4.7c0.567,2.233,0.517,3.616-0.149,4.15c-0.667,0.466-1.634,0.05-2.9-1.25
		c-1.434-1.5-2.467-3.034-3.1-4.601C374.184,226.333,374.15,224.533,374.85,222.9z"/>
	<path style="fill-rule:evenodd;clip-rule:evenodd;fill:#1F2433;" d="M300.75,160.7c0.767-0.934,1.733-0.617,2.9,0.95
		c0.366,0.533,0.566,1.166,0.6,1.899c0,0.066-0.017,1.4-0.05,4c-0.033,1.9-0.384,3-1.05,3.3c-0.634,0.267-1.317-0.233-2.051-1.5
		c-0.833-1.466-1.316-2.899-1.449-4.3C299.45,163.35,299.816,161.9,300.75,160.7z"/>
	<path style="fill-rule:evenodd;clip-rule:evenodd;fill:#1F2433;" d="M168.3,92.9c0.467-1.033,1.483-0.933,3.05,0.3
		c0.5,0.433,0.867,1,1.1,1.7c0,0.033,0.333,1.333,1,3.9c0.5,1.867,0.466,3.017-0.1,3.45c-0.533,0.4-1.333,0.05-2.4-1.05
		c-1.2-1.2-2.05-2.467-2.55-3.8C167.733,95.767,167.7,94.267,168.3,92.9z"/>
	<path style="fill-rule:evenodd;clip-rule:evenodd;fill:#1F2433;" d="M206.25,269.65c0.333-0.733,0.85-0.867,1.55-0.4
		c0.733,0.5,1.034,1.316,0.9,2.45c-0.167,1.166-0.717,1.35-1.65,0.55C206.117,271.45,205.85,270.583,206.25,269.65z"/>
	<path style="fill-rule:evenodd;clip-rule:evenodd;fill:#1F2433;" d="M175.7,105.05c0.333-0.733,0.867-0.85,1.6-0.35
		c0.733,0.5,1.017,1.3,0.85,2.4c-0.167,1.167-0.717,1.35-1.65,0.55C175.567,106.85,175.3,105.983,175.7,105.05z"/>
	<path style="fill-rule:evenodd;clip-rule:evenodd;fill:#1F2433;" d="M156,202.4c0.767-0.967,1.85-0.684,3.25,0.85
		c1.4,1.467,1.233,2.85-0.5,4.15c-1.733,1.3-2.883,1.116-3.45-0.551C154.733,205.25,154.967,203.767,156,202.4z"/>
	<path style="fill-rule:evenodd;clip-rule:evenodd;fill:#1F2433;" d="M375.7,132.25c0.733-1,1.816-0.733,3.25,0.8
		c1.366,1.467,1.2,2.85-0.5,4.15c-1.733,1.333-2.884,1.167-3.45-0.5C374.434,135.067,374.667,133.583,375.7,132.25z"/>
	<path style="fill-rule:evenodd;clip-rule:evenodd;fill:#1F2433;" d="M233,228.75c0.767-0.967,1.85-0.684,3.25,0.85
		c1.4,1.467,1.233,2.851-0.5,4.15s-2.883,1.116-3.45-0.55C231.733,231.6,231.967,230.116,233,228.75z"/>
	<path style="fill-rule:evenodd;clip-rule:evenodd;fill:#1F2433;" d="M326.6,52.9c0.767-0.967,1.867-0.683,3.301,0.85
		c1.366,1.467,1.199,2.833-0.5,4.1c-1.767,1.333-2.934,1.167-3.5-0.5C325.333,55.75,325.566,54.267,326.6,52.9z"/>
	<path style="fill-rule:evenodd;clip-rule:evenodd;fill:#1F2433;" d="M204.8,200.4c1.4,1.466,1.233,2.85-0.5,4.149
		c-1.733,1.334-2.883,1.167-3.45-0.5c-0.567-1.6-0.333-3.083,0.7-4.45C202.317,198.634,203.4,198.9,204.8,200.4z"/>
	<path style="fill-rule:evenodd;clip-rule:evenodd;fill:#1F2433;" d="M209.7,142.95c0.1-2.333,1.667-4.934,4.7-7.8
		c1.667-1.566,4.017-3.6,7.05-6.1c1.233-1.233,2.183-0.617,2.85,1.85c0.9,3.267,1.767,5.117,2.6,5.55c1.367,0.7,1.85,2.667,1.45,5.9
		c-0.367,2.9-1.133,5.25-2.3,7.05c-1,1.533-2.517,3.067-4.55,4.6c-2.233,1.7-3.95,2.417-5.15,2.15
		c-1.434-0.333-2.917-1.917-4.45-4.75C210.3,148.433,209.567,145.617,209.7,142.95z"/>
	<path style="fill-rule:evenodd;clip-rule:evenodd;fill:#1F2433;" d="M327.6,295.85c0.167-2.133,2.334-3.199,6.5-3.199
		c1.233,0,2.2,0.933,2.9,2.8c0.667,1.8,0.783,3.616,0.35,5.45c-0.366,1.566-1.25,2.767-2.649,3.6c-1.4,0.833-2.884,0.983-4.45,0.45
		C327.983,304.217,327.1,301.184,327.6,295.85z"/>
	<path style="fill-rule:evenodd;clip-rule:evenodd;fill:#1F2433;" d="M342,228.25c-0.5,2-1.616,3.517-3.35,4.55
		c-1.767,1.066-3.65,1.283-5.65,0.65c-2.866-0.934-4-4.8-3.4-11.601c0.134-1.533,1.134-2.633,3-3.3c1.4-0.533,3.15-0.8,5.25-0.8
		c1.601,0,2.851,1.184,3.75,3.55C342.434,223.6,342.566,225.917,342,228.25z"/>
	<path style="fill-rule:evenodd;clip-rule:evenodd;fill:#1F2433;" d="M282.5,268.4c-1.233-1.967-1.4-4.101-0.5-6.4
		c1.5-2.9,2.583-5.384,3.25-7.45c0.634-1.866,2.316-3.967,5.05-6.3c2.3-2,3.816-3.066,4.55-3.2c0.467-0.1,2.517,1.533,6.15,4.9
		c3.866,3.6,6.8,6.783,8.8,9.55c2,2.7,2.95,5.684,2.851,8.95c-0.034,1.767-0.667,5.333-1.9,10.7c-0.9,4.066-2.816,7.6-5.75,10.6
		c-2.767,2.8-6,4.717-9.7,5.75c-2.8,0.767-4.399-0.467-4.8-3.7c-0.2-2.133-0.384-3.8-0.55-5c-0.267-2.166-0.75-3.967-1.45-5.399
		c-0.833-1.733-1.884-4.167-3.15-7.301C284.55,272.066,283.6,270.167,282.5,268.4z"/>
	<path style="fill-rule:evenodd;clip-rule:evenodd;fill:#1F2433;" d="M304.85,74.4c-1.133-0.467-1.25-1.633-0.35-3.5
		c0.967-1.967,2.55-3.267,4.75-3.9c2.167-0.6,3.7-0.583,4.6,0.05c0.667,0.5,1.051,1.5,1.15,3c0.1,1.333-1.116,2.567-3.65,3.7
		C308.783,74.883,306.616,75.1,304.85,74.4z"/>
	<path style="fill-rule:evenodd;clip-rule:evenodd;fill:#1F2433;" d="M216.45,197.45c0.367-3.7,0.517-6.117,0.45-7.25
		c-0.066-1.4,1.417-3.517,4.45-6.351c1.733-1.6,4.483-3.966,8.25-7.1c2.633-2.333,5.367-3.733,8.2-4.2
		c3.034-0.533,4.45,0.467,4.25,3c-0.133,1.934-1.25,3.967-3.35,6.101c-1.9,1.933-2.75,3.199-2.55,3.8c0.3,0.934,0,2.3-0.9,4.1
		c-0.567,1.101-1.733,3.25-3.5,6.45c-1.433,2.934-3.017,4.884-4.75,5.85c-2,1.134-4.85,1.4-8.55,0.801
		C217.05,202.417,216.383,200.684,216.45,197.45z"/>
	<path style="fill-rule:evenodd;clip-rule:evenodd;fill:#1F2433;" d="M285.75,210.45c1.9-0.667,3.066-0.584,3.5,0.25
		c0.3,0.6,0.85,2.133,1.65,4.6c0.966,1.867,0.449,4.134-1.551,6.8c-1.733,2.301-3.866,4.134-6.399,5.5
		c-2.233,1.233-3.601,1-4.101-0.699c-0.767-2.367-1.283-4.084-1.55-5.15c-0.666-2.667-0.833-4.616-0.5-5.85
		c0.367-1.267,1.4-2.334,3.101-3.2C280.4,212.434,282.35,211.684,285.75,210.45z"/>
	<path style="fill-rule:evenodd;clip-rule:evenodd;fill:#1F2433;" d="M216,204c2.1,0.833,3.383,2.833,3.85,6
		c0.433,2.733,0.217,5.384-0.65,7.95c-0.733,2.267-1.917,2.934-3.55,2c-2.733-1.566-4.4-2.55-5-2.95
		c-2.433-1.566-3.983-2.917-4.65-4.05c-0.7-1.134-0.733-2.533-0.1-4.2c0.2-0.566,1.1-2.316,2.7-5.25c0.9-1.634,1.816-2.267,2.75-1.9
		C212.017,201.866,213.567,202.667,216,204z"/>
	<path style="fill-rule:evenodd;clip-rule:evenodd;fill:#1F2433;" d="M330.65,290.95c-0.801,0.5-1.45-0.217-1.95-2.15
		s-0.184-3.083,0.95-3.45c1.3-0.399,2.166,0.184,2.6,1.75C332.684,288.7,332.15,289.983,330.65,290.95z"/>
	<path style="fill-rule:evenodd;clip-rule:evenodd;fill:#1F2433;" d="M293.95,143.05c-0.101-2.033,0.899-5.316,3-9.85
		c2.333-5.067,4.85-8.733,7.55-11c2.467-2.067,4.35-2.017,5.65,0.15c0.733,1.233,1.75,3.566,3.05,7c0.899,1.5,2.233,4.233,4,8.2
		c1.733,3.867,2.833,6.167,3.3,6.9c0.634,1.033,0.217,3.267-1.25,6.7c-0.833,1.967-2.2,5.05-4.1,9.25
		c-1.601,4.166-3.134,6.616-4.601,7.35c-1.366,0.7-2.3-0.15-2.8-2.55c-0.5-2.334-1.65-4.3-3.45-5.9c-1.899-1.667-3.8-2.267-5.7-1.8
		C295.967,158.167,294.417,153.35,293.95,143.05z"/>
	<path style="fill-rule:evenodd;clip-rule:evenodd;fill:#1F2433;" d="M273.75,97.3c-1.366-1.4-2.05-2.966-2.05-4.7
		c0-0.867,0.283-2.3,0.85-4.3c0.434-1.533,1.983-2.433,4.65-2.7c2.899-0.333,5.666,0.433,8.3,2.3c1.6,1.167,2.983,3.167,4.15,6
		c1.199,3,0.966,4.567-0.7,4.7c-3.233,0.433-5.834,0.65-7.8,0.65C277.517,99.317,275.05,98.667,273.75,97.3z"/>
	<path style="fill-rule:evenodd;clip-rule:evenodd;fill:#1F2433;" d="M356.7,183.65c-1.434-3.267-1.033-7.75,1.2-13.45
		c2.933-6.066,4.783-10.2,5.55-12.4c0.533-1.466,1.267-2.033,2.2-1.7c0.699,0.233,1.699,1.117,3,2.65
		c3.433,3.967,5.866,6.017,7.3,6.15c2.399,0.199,4.416,2.649,6.05,7.35c1.467,4.2,2.017,7.884,1.65,11.05
		c-0.301,2.7-1.334,5.667-3.101,8.9c-1.934,3.6-3.833,5.55-5.7,5.85c-2.166,0.367-5.267-0.967-9.3-4
		C361.283,190.85,358.333,187.384,356.7,183.65z"/>
	<path style="fill-rule:evenodd;clip-rule:evenodd;fill:#1F2433;" d="M267.45,290.15c0.1-2.334,1.666-4.917,4.7-7.75
		c1.666-1.567,4.033-3.601,7.1-6.101c1.233-1.233,2.184-0.616,2.85,1.851c0.9,3.233,1.75,5.066,2.551,5.5
		c1.366,0.699,1.866,2.666,1.5,5.899c-0.367,2.934-1.134,5.3-2.301,7.101c-1,1.533-2.517,3.066-4.55,4.6
		c-2.233,1.667-3.967,2.366-5.2,2.1c-1.433-0.333-2.899-1.899-4.399-4.699C268.066,295.684,267.316,292.85,267.45,290.15z"/>
	<path style="fill-rule:evenodd;clip-rule:evenodd;fill:#1F2433;" d="M286.45,192.3c0.6-1.066,1.7-1.583,3.3-1.55
		c1.2,0.033,2.55,0.35,4.05,0.95c1.167,0.434,1.667,1.633,1.5,3.6c-0.2,1.9-0.899,3.617-2.1,5.15c-1.033,1.3-2.367,2.083-4,2.35
		c-1.634,0.233-3.066-0.149-4.3-1.149C283.167,200.15,283.684,197.033,286.45,192.3z"/>
	<path style="fill-rule:evenodd;clip-rule:evenodd;fill:#1F2433;" d="M367.45,215.85c0.899,0.767,1.583,2.284,2.05,4.551
		c0.267,1.333,0.667,3.633,1.2,6.899c0.633,3,1.5,5.483,2.6,7.45c1.367,2.366,3.101,5.7,5.2,10c1.333,2.733,2.884,5.316,4.65,7.75
		c1.933,2.634,2.399,5.616,1.399,8.95c-0.633,2-1.916,5.566-3.85,10.7c-0.634,2.666-2.75,5.767-6.351,9.3
		c-3.033,2.934-5.05,4.55-6.05,4.85c-0.666,0.134-3.7-2-9.1-6.399c-5.8-4.733-10.267-8.934-13.4-12.601
		c-3.066-3.6-4.7-7.7-4.899-12.3c-0.101-2.366,0.399-7.434,1.5-15.2c0.833-5.767,3.149-10.866,6.949-15.3
		c3.567-4.167,7.9-7.134,13-8.9C364.616,214.833,366.316,214.917,367.45,215.85z"/>
	<path style="fill-rule:evenodd;clip-rule:evenodd;fill:#1F2433;" d="M378.1,95.55c-0.033-1.767,0.334-2.85,1.101-3.25
		c0.566-0.3,1.55-0.216,2.95,0.25c1.199,0.4,2,1.7,2.399,3.9c0.4,2.233,0.066,3.867-1,4.9c-0.666,0.633-1.717,0.3-3.149-1
		C378.9,98.95,378.134,97.35,378.1,95.55z"/>
	<path style="fill-rule:evenodd;clip-rule:evenodd;fill:#1F2433;" d="M256.8,194.85c2.033-0.466,4.101-0.149,6.2,0.95
		c0.767,0.4,0.1,1.8-2,4.2c-2.566,2.733-4.184,4.517-4.85,5.35c-0.867,1.101-3.2,2.45-7,4.051c-4.634,1.8-7.95,3.083-9.95,3.85
		c-3.233,1.267-5.934,1.833-8.1,1.7c-2.333-0.134-2.633-1.134-0.9-3c1.333-1.434,3.367-2.767,6.1-4c2.434-1.101,3.784-1.9,4.05-2.4
		c0.4-0.733,1.45-1.684,3.15-2.85c1.1-0.733,3.25-2.167,6.45-4.3C252.783,196.467,255.066,195.283,256.8,194.85z"/>
	<path style="fill-rule:evenodd;clip-rule:evenodd;fill:#1F2433;" d="M327.05,75.45c1.767,2.233,3.517,4.15,5.25,5.75
		c4.167,3.8,5.2,9.667,3.101,17.6c-1.767,6.8-4.95,12.817-9.551,18.05c-4.066,4.6-7.533,5.1-10.399,1.5
		c-4.533-5.6-7.483-9.367-8.851-11.3c-4.199-5.9-6.517-10.45-6.949-13.65c-0.467-3.3,0.883-6.65,4.05-10.05
		c1.133-1.2,5.017-4.5,11.649-9.9c2.2-1.767,3.934-2.784,5.2-3.05c1.134-0.233,2.217,0.117,3.25,1.05
		C324.233,71.85,325.316,73.183,327.05,75.45z"/>
	<path style="fill-rule:evenodd;clip-rule:evenodd;fill:#1F2433;" d="M175.45,216.5c-0.767,0.5-1.4-0.217-1.9-2.15
		c-0.533-1.899-0.233-3.033,0.9-3.399c1.3-0.434,2.167,0.133,2.6,1.7C177.517,214.25,176.983,215.533,175.45,216.5z"/>
	<path style="fill-rule:evenodd;clip-rule:evenodd;fill:#1F2433;" d="M280.95,182.05c-0.634,1-1.733,0.483-3.3-1.55
		c-1.567-1.967-1.801-3.45-0.7-4.45c1.3-1.1,2.6-0.85,3.899,0.75C282.184,178.434,282.217,180.184,280.95,182.05z"/>
	<path style="fill-rule:evenodd;clip-rule:evenodd;fill:#1F2433;" d="M478.3,195.4c1.267-1.101,2.55-0.851,3.851,0.75
		c1.333,1.633,1.383,3.383,0.149,5.25c-0.666,0.966-1.783,0.449-3.35-1.551C477.384,197.884,477.167,196.4,478.3,195.4z"/>
	<path style="fill-rule:evenodd;clip-rule:evenodd;fill:#1F2433;" d="M384.55,229.45c-0.934,0.6-1.7-0.267-2.3-2.601
		c-0.634-2.333-0.267-3.716,1.1-4.149c1.567-0.467,2.617,0.233,3.15,2.1C387.033,226.7,386.384,228.25,384.55,229.45z"/>
	<path style="fill-rule:evenodd;clip-rule:evenodd;fill:#1F2433;" d="M130.1,288.9c2.1,0.533,4.25,1.416,6.45,2.649
		c1.833,1,3.034,1.834,3.6,2.5c0.833,1,1.1,2.783,0.8,5.351c-0.3,2.5-0.967,4.583-2,6.25c-1.534,2.566-2.917,4.433-4.15,5.6
		c-2.133,2.033-4.316,2.75-6.55,2.15c-2.8-0.767-5.267-3.017-7.4-6.75c-2.367-4.067-3.05-8-2.05-11.801
		C120.233,289.417,124,287.434,130.1,288.9z"/>
	<path style="fill-rule:evenodd;clip-rule:evenodd;fill:#1F2433;" d="M95.4,282.5c0.367-2.533,2.617-2.967,6.75-1.3
		c1.333,0.533,2.483,1.45,3.45,2.75c0.1,0.166,1.633,2.583,4.6,7.25c2.167,3.467,2.767,5.816,1.8,7.05
		c-0.9,1.134-2.817,0.934-5.75-0.6c-3.333-1.733-5.967-3.767-7.9-6.101C95.917,288.65,94.933,285.634,95.4,282.5z"/>
	<path style="fill-rule:evenodd;clip-rule:evenodd;fill:#1F2433;" d="M116.15,288.45c-0.6,0.666-1.467,0.633-2.6-0.101
		c-1.033-0.633-1.983-1.649-2.85-3.05c-2.267-3.566-2.3-6.083-0.1-7.55c1.133-0.733,2.35-0.9,3.65-0.5c1.233,0.4,2.25,1.2,3.05,2.4
		C119.233,282.583,118.85,285.517,116.15,288.45z"/>
	<path style="fill-rule:evenodd;clip-rule:evenodd;fill:#1F2433;" d="M320.5,113.8c-0.767,0.534-1.4-0.167-1.9-2.1
		c-0.5-1.934-0.199-3.083,0.9-3.45c1.3-0.433,2.167,0.133,2.6,1.7C322.566,111.55,322.033,112.833,320.5,113.8z"/>
	<path style="fill-rule:evenodd;clip-rule:evenodd;fill:#1F2433;" d="M369.15,115.4c2.899,3.567,3.716,8.55,2.449,14.95
		c-1.233,6.267-4.199,12.7-8.899,19.3c-4.167,5.833-10.066,10.15-17.7,12.95c-6.366,2.367-11.384,3.084-15.05,2.15
		c-2.101-0.566-2.717-3.616-1.851-9.15c1.101-6.967,1.367-11.35,0.801-13.15c-0.867-2.767-0.051-5.833,2.449-9.2
		c1.4-1.867,3.5-4.5,6.301-7.9c5.233-8.867,11.183-13.867,17.85-15C361.167,109.383,365.717,111.067,369.15,115.4z"/>
	<path style="fill-rule:evenodd;clip-rule:evenodd;fill:#1F2433;" d="M165.65,143.7c-2.433-4.934-2.983-9.983-1.65-15.15
		c1.1-4.333,2.8-7.167,5.1-8.5c1.333-0.767,3.833,0.417,7.5,3.55c4.6,3.967,7.683,6.25,9.25,6.85c2.4,0.933,4.283,2.85,5.65,5.75
		c0.733,1.6,1.717,3.933,2.95,7c4.167,6.966,5.183,12.383,3.05,16.25c-1.767,3.267-5,4.7-9.7,4.3c-3.867-0.333-7.867-2.4-12-6.2
		C171.767,153.883,168.383,149.267,165.65,143.7z"/>
	<path style="fill-rule:evenodd;clip-rule:evenodd;fill:#1F2433;" d="M128.1,22.45c3.267,4.633,4.983,8.533,5.15,11.7
		c0.1,1.833-2.017,3.067-6.35,3.7c-5.467,0.767-8.8,1.583-10,2.45c-1.867,1.367-4.35,1.434-7.45,0.2
		c-3.434-1.767-5.883-2.85-7.35-3.25c-7.867-2.167-13.017-5.85-15.45-11.05c-2.066-4.367-1.9-8.467,0.5-12.3
		c1.967-3.167,5.483-5,10.55-5.5c4.966-0.467,10.466,0.434,16.5,2.7C119.533,13.1,124.167,16.883,128.1,22.45z"/>
	<path style="fill-rule:evenodd;clip-rule:evenodd;fill:#1F2433;" d="M229.4,243.55c0.333-2.5,1.15-4.133,2.45-4.899
		c1.3-0.767,2.683-1.067,4.15-0.9c0.767,0.1,1.95,0.45,3.55,1.05c1.233,0.467,1.833,1.617,1.8,3.45
		c-0.033,2.033-0.967,3.866-2.8,5.5c-1.133,0.967-2.966,1.7-5.5,2.2c-2.667,0.533-3.966,0.217-3.9-0.95
		C229.15,246.733,229.233,244.917,229.4,243.55z"/>
	<path style="fill-rule:evenodd;clip-rule:evenodd;fill:#1F2433;" d="M219.9,236.65c0.367,4.833-0.117,10.583-1.45,17.25
		c-1.167,5.899-2.05,8.949-2.65,9.149c-1.3,0.4-2.917,1.117-4.85,2.15c-2.1,1.133-3.534,1.833-4.3,2.1
		c-3.2,1.2-6.233,0.517-9.1-2.05c-3.3-2.967-6.267-6.7-8.9-11.2c-2.3-4-4.133-8.184-5.5-12.55c-0.967-3.033-1.767-7.45-2.4-13.25
		c-0.667-6.033-1.15-9.616-1.45-10.75c-0.633-2.4-0.316-5.316,0.95-8.75c1.3-3.533,3.117-6.15,5.45-7.85
		c2-1.5,5.05-0.351,9.15,3.449c2.367,2.167,5.967,5.983,10.8,11.45c2.3,2.4,5.434,5.384,9.4,8.95
		C217.917,228.017,219.533,231.983,219.9,236.65z"/>
	<path style="fill-rule:evenodd;clip-rule:evenodd;fill:#1F2433;" d="M353.75,163.8c0.533,0.134,0.384,1.217-0.45,3.25
		c-1.033,2.467-1.533,4.017-1.5,4.65c0.101,1.8-1.05,3.866-3.45,6.2c-1.833,1.833-3.833,2.3-6,1.399
		c-2.066-0.833-3.066-2.184-3-4.05c0.101-1.5,0.667-2.917,1.7-4.25c0.834-1,1.816-1.833,2.95-2.5c0.634-0.333,2.3-1.283,5-2.85
		C351.533,164.283,353.116,163.667,353.75,163.8z"/>
	<path style="fill-rule:evenodd;clip-rule:evenodd;fill:#1F2433;" d="M304.5,196.35c0.833-0.767,2.35-0.966,4.55-0.6
		c1.3,0.2,3.45,0.65,6.45,1.35c3.6,0.634,5.884,4.483,6.85,11.551c0.567,4.633,0.017,9.083-1.649,13.35
		c-0.667,1.733-2.084,2.434-4.25,2.1c-4.9-0.733-7.634-1.1-8.2-1.1c-3.134,0.033-5.267-0.55-6.4-1.75
		c-0.5-0.533-1.399-2.417-2.699-5.65c-0.601-1.466-0.117-4.833,1.449-10.1C302.134,200.366,303.434,197.316,304.5,196.35z"/>
	<path style="fill-rule:evenodd;clip-rule:evenodd;fill:#1F2433;" d="M261,291.4c1.267-1.034,2.3-0.733,3.1,0.899
		c0.467,0.934,1.167,2.566,2.101,4.9c0.899,1.5,0.866,2.916-0.101,4.25c-0.966,1.3-2.35,1.649-4.149,1.05
		c-1.566-0.533-2.5-2.2-2.8-5C258.884,294.667,259.5,292.634,261,291.4z"/>
	<path style="fill-rule:evenodd;clip-rule:evenodd;fill:#1F2433;" d="M194.35,281.6c-0.767-1.333-0.2-3.116,1.7-5.35
		c1.867-2.267,3.817-3.4,5.85-3.4c1.7,0.034,2.25,0.884,1.65,2.551c-0.367,0.966-1.083,2.6-2.15,4.899
		c-0.433,1.667-1.5,2.684-3.2,3.05C196.5,283.75,195.217,283.167,194.35,281.6z"/>
	<path style="fill-rule:evenodd;clip-rule:evenodd;fill:#1F2433;" d="M341,286.7c1.2-2.733,4.517-4.167,9.95-4.3
		c5.333-0.134,9.366,1,12.1,3.399c2.367,2.066,3.283,3.983,2.75,5.75c-0.333,1.134-1.533,2.483-3.6,4.05
		c-2,1.667-3.634,2.934-4.9,3.801c-2.233,1.566-4.983,2.983-8.25,4.25c-3.066,1.199-4.566,1.116-4.5-0.25
		c0.167-0.967,0.283-1.733,0.351-2.301c0.166-1.033,0.1-1.866-0.2-2.5c-1.434-2.233-2.483-4.017-3.15-5.35
		C340.35,290.816,340.167,288.634,341,286.7z"/>
	<path style="fill-rule:evenodd;clip-rule:evenodd;fill:#1F2433;" d="M175.25,92.1c0.333-4.133,0.417-7.667,0.25-10.6
		c-0.2-3.8,2.8-8.667,9-14.6c4.567-4.4,9.05-7.917,13.45-10.55c3.9-2.333,7.383-3.05,10.45-2.15c2.6,0.767,4.25,2.35,4.95,4.75
		c0.433,1.5,1.033,4.4,1.8,8.7c1,5.533,1.75,9.434,2.25,11.7c1.167,5.367,1.7,8.917,1.6,10.65c-0.167,3.5-1.717,7.3-4.65,11.4
		c-3.9,5.4-7.65,9.617-11.25,12.65c-4.434,3.733-8.117,5.184-11.05,4.35c-2.367-0.7-4.65-3.3-6.85-7.8
		c-2.667-5.533-4.75-9.017-6.25-10.45C176.583,97.95,175.35,95.267,175.25,92.1z"/>
	<path style="fill-rule:evenodd;clip-rule:evenodd;fill:#1F2433;" d="M225.95,65.25c2.8-2.433,5.283-3.3,7.45-2.6
		c2,0.633,3.15,2.35,3.45,5.15c0.267,2.733,0.15,5.184-0.35,7.35c-0.5,2.367-1.567,4.934-3.2,7.7c-1.566,3.066-2.566,4.833-3,5.3
		c-0.533,0.567-1.5,0.317-2.9-0.75c-1.733-1.333-2.9-4.85-3.5-10.55C223.267,70.883,223.95,67.017,225.95,65.25z"/>
	<path style="fill-rule:evenodd;clip-rule:evenodd;fill:#1F2433;" d="M318.2,173.7c1.399-1.2,3-1.267,4.8-0.2
		c1.833,1.1,2.566,2.767,2.2,5c-0.334,2.066-1.15,3.7-2.45,4.9c-0.634,0.566-2.233,1.6-4.8,3.1c-1.934,1.1-2.8-0.384-2.601-4.45
		C315.517,178.017,316.467,175.233,318.2,173.7z"/>
	<path style="fill-rule:evenodd;clip-rule:evenodd;fill:#1F2433;" d="M285.85,106c4.9,4.267,7.25,10.383,7.051,18.35
		c-0.134,6.2-1.434,11.717-3.9,16.55c-1.333,2.633-3.233,5.967-5.7,10c-1.5,3.533-3.517,6.483-6.05,8.85
		c-2.8,2.6-4.934,3.066-6.4,1.4c-1.767-2-3.416-4.7-4.949-8.101c-1.767-3.833-2.767-7.383-3-10.65c-0.2-2.9-1.301-6.383-3.301-10.45
		c-2.466-4.534-4.216-7.883-5.25-10.05c-1.399-2.933-0.449-6.55,2.851-10.85c2.934-3.833,5.983-6.35,9.149-7.55
		C274.15,100.567,280.65,101.4,285.85,106z"/>
	<path style="fill-rule:evenodd;clip-rule:evenodd;fill:#1F2433;" d="M230.3,117.7c1.333-0.534,2.8,0.183,4.4,2.15
		c1.3,1.667,2.55,4,3.75,7c0.933,2.3,1.433,4.467,1.5,6.5c0,0.767-0.15,2.483-0.45,5.15c-0.167,1.533-1.067,2.1-2.7,1.7
		c-1.033-0.267-2.7-1.083-5-2.45c-1.5-0.9-2.833-2.917-4-6.05c-0.5-1.333-1.117-3.417-1.85-6.25c-0.367-1.434-0.284-2.8,0.25-4.1
		C226.9,119.683,228.267,118.467,230.3,117.7z"/>
	<path style="fill-rule:evenodd;clip-rule:evenodd;fill:#1F2433;" d="M249.5,138.1c0.667-0.367,1.35-0.317,2.05,0.15
		c0.334,0.2,0.601,0.45,0.8,0.75l0.45,1.35c0.101,1.033-0.399,1.833-1.5,2.4c-1.233,0.667-2.1,0.2-2.6-1.4
		C248.167,139.717,248.434,138.633,249.5,138.1z"/>
	<path style="fill-rule:evenodd;clip-rule:evenodd;fill:#1F2433;" d="M238.55,192.35c0.5-2.633,0.917-4.466,1.25-5.5
		c0.5-1.733,1.567-3.316,3.2-4.75c1.767-1.533,2.917-3.233,3.45-5.1c0.333-1.134,0.533-3.083,0.6-5.85s0.667-5.301,1.8-7.601
		c1.434-2.934,3.483-4.833,6.15-5.7c2.434-0.8,4.7,0.133,6.8,2.8c2.033,2.6,3.101,5.75,3.2,9.449c0.2,5.434-3.517,12.25-11.15,20.45
		c-1.866,2.033-4.366,3.884-7.5,5.55c-3.433,1.834-5.183,2.784-5.25,2.851c-1.667,1.467-2.7,1.316-3.1-0.45
		C237.633,196.967,237.817,194.917,238.55,192.35z"/>
	<path style="fill-rule:evenodd;clip-rule:evenodd;fill:#1F2433;" d="M211,114.4c1.467-0.1,2.383,1.533,2.75,4.9
		c0.3,2.967,0.133,6.184-0.5,9.65c-0.467,2.633-1.9,5.6-4.3,8.9c-1.034,1.433-2.95,3.733-5.75,6.9c-1.267,1.5-2.517,0.85-3.75-1.95
		c-0.6-1.367-1.417-4.033-2.45-8c-0.633-2.5-0.85-4.85-0.65-7.05c0.233-2.4,0.967-4.217,2.2-5.45c1.633-1.566,3.667-3.183,6.1-4.85
		C207.517,115.517,209.633,114.5,211,114.4z"/>
	<path style="fill-rule:evenodd;clip-rule:evenodd;fill:#1F2433;" d="M244.9,81.4c1.133,0.167,2.699,1.033,4.699,2.6
		c1.9,1.5,3.267,3.017,4.101,4.55c1.267,2.333,1.816,5.284,1.649,8.85c-0.199,3.667-0.816,6.55-1.85,8.65
		c-0.7,1.5-1.884,3.017-3.55,4.55c-1.2,1.133-2.717,1.683-4.55,1.65c-1.034,0-2.9-0.317-5.601-0.95c-2.1-0.5-3.816-1.3-5.15-2.4
		c-1.4-1.133-1.967-2.333-1.7-3.6c0.267-1.2,0.233-2.633-0.1-4.3c-0.233-1.4-0.617-2.733-1.15-4c-0.4-0.933,0.433-2.983,2.5-6.15
		c1.3-2,2.883-4.133,4.75-6.4C240.95,82.083,242.933,81.067,244.9,81.4z"/>
	<path style="fill-rule:evenodd;clip-rule:evenodd;fill:#1F2433;" d="M226.55,99.3c1.133-0.233,2.117,0.083,2.95,0.95
		c0.967,1,1.317,2.45,1.05,4.35c-0.233,1.767-1.2,3.7-2.9,5.8c-1.133,1.367-2.417,2.65-3.85,3.85c-0.8,0.733-1.466-0.017-2-2.25
		c-0.5-2.133-0.65-4.517-0.45-7.15c0.167-2.167,0.833-3.667,2-4.5C223.883,99.983,224.95,99.633,226.55,99.3z"/>
	<path style="fill-rule:evenodd;clip-rule:evenodd;fill:#1F2433;" d="M14.95,170.35c3.2-0.633,6,0.25,8.4,2.65
		c2.733,2.8,3.733,6.833,3,12.1c-1.167,8.034-7.567,16.983-19.2,26.851c-2.333,1.967-4.233-0.134-5.7-6.3
		C0.083,199.816-0.333,193.2,0.2,185.8c0.433-6,2.333-10.166,5.7-12.5C7.433,172.233,10.45,171.25,14.95,170.35z"/>
	<path style="fill-rule:evenodd;clip-rule:evenodd;fill:#1F2433;" d="M223.65,88.75c0.7-0.4,1.333-0.467,1.9-0.2
		c0.534,0.233,0.867,0.617,1,1.15c0.1,0.433-0.117,1.033-0.65,1.8c-0.533,0.8-1.15,1.35-1.85,1.65
		c-0.767,0.333-1.25-0.183-1.45-1.55C222.4,90.233,222.75,89.283,223.65,88.75z"/>
	<path style="fill-rule:evenodd;clip-rule:evenodd;fill:#1F2433;" d="M138.25,54.55c0.867-0.3,2.033,0.383,3.5,2.05
		c1.5,1.667,2.233,3.183,2.2,4.55c-0.034,1.133-0.684,1.5-1.95,1.1c-1.567-0.667-2.633-1.067-3.2-1.2c-0.966-0.2-1.633-1.2-2-3
		C136.4,56.183,136.883,55.017,138.25,54.55z"/>
	<path style="fill-rule:evenodd;clip-rule:evenodd;fill:#1F2433;" d="M449.65,137.95c-1.134-1.233-0.65-3.184,1.449-5.85
		c1.5-1.9,3.15-3.517,4.95-4.85c2.867-2.067,5.75-1.533,8.65,1.6c1.1,1.233,1.934,2.583,2.5,4.05c0.566,1.5,0.666,2.667,0.3,3.5
		c-0.8,1.9-2.483,3.917-5.05,6.05c-2.834,2.367-5.45,3.683-7.851,3.95c-1.966,0.2-3.1-0.8-3.399-3
		C450.8,140.4,450.283,138.583,449.65,137.95z"/>
	<path style="fill-rule:evenodd;clip-rule:evenodd;fill:#1F2433;" d="M459.05,117.7c0.867-0.3,2.033,0.383,3.5,2.05
		s2.184,3.183,2.15,4.55c-0.033,1.133-0.684,1.5-1.95,1.1c-1.566-0.667-2.634-1.066-3.2-1.2c-1-0.2-1.666-1.2-2-3
		C457.184,119.333,457.684,118.167,459.05,117.7z"/>
	<path style="fill-rule:evenodd;clip-rule:evenodd;fill:#1F2433;" d="M203.3,11.8c1.467,1.434,2.35,2.983,2.65,4.65
		c0.1,0.5,0.783,3.216,2.05,8.15c1.133,4.3,1.817,7.483,2.05,9.55c0.233,2.233-1.117,3.083-4.05,2.55
		c-3.833-1.167-6.6-1.983-8.3-2.45c-2.2-0.6-3.417-2.167-3.65-4.7c-0.066-0.6,0.1-3.283,0.5-8.05c0.267-3.433,0.684-5.917,1.25-7.45
		c0.767-2.133,2.034-3.433,3.8-3.9C200.633,9.85,201.867,10.4,203.3,11.8z"/>
	<path style="fill-rule:evenodd;clip-rule:evenodd;fill:#1F2433;" d="M145.55,210.65c5.067-3.101,10.284-3.233,15.65-0.4
		c4.9,2.566,7.95,6.25,9.15,11.05c0.967,3.8-0.067,6.084-3.1,6.851c-1.567,0.366-4.7,0.283-9.4-0.25
		c-2.133-0.267-4.55-0.733-7.25-1.4c-2.733-0.667-4.983-1.116-6.75-1.35c-2.2-0.267-3.067-0.917-2.6-1.95
		c1.133-1.5,1.817-2.816,2.05-3.95c0.267-2.333,0.467-4.017,0.6-5.05C144.1,212.4,144.65,211.217,145.55,210.65z"/>
	<path style="fill-rule:evenodd;clip-rule:evenodd;fill:#1F2433;" d="M368.65,198.7c2.533,0.967,3.616,2.017,3.25,3.149
		c-0.301,1.034-1.067,1.601-2.301,1.7c-1.566-0.033-2.767-0.017-3.6,0.05c-1.167,0.134-2.033-0.55-2.6-2.05
		c-0.534-1.5-0.417-2.583,0.35-3.25C364.517,197.634,366.15,197.767,368.65,198.7z"/>
	<path style="fill-rule:evenodd;clip-rule:evenodd;fill:#1F2433;" d="M127.55,277.25c0.767-0.667,2.383-0.533,4.85,0.4
		c2.533,0.966,3.617,2.033,3.25,3.199c-0.3,1-1.066,1.567-2.3,1.7c-1.567-0.066-2.75-0.05-3.55,0.05
		c-1.167,0.134-2.033-0.566-2.6-2.1C126.667,279,126.783,277.917,127.55,277.25z"/>
	<path style="fill-rule:evenodd;clip-rule:evenodd;fill:#1F2433;" d="M390.3,301.55c0.767-0.666,2.4-0.533,4.9,0.4
		c2.533,0.967,3.616,2.017,3.25,3.149c-0.3,1-1.066,1.567-2.3,1.7c-1.567-0.066-2.75-0.05-3.551,0.05
		c-1.166,0.134-2.05-0.566-2.649-2.1C389.384,303.283,389.5,302.217,390.3,301.55z"/>
	<path style="fill-rule:evenodd;clip-rule:evenodd;fill:#1F2433;" d="M125.95,222.55c0.767-0.666,2.4-0.533,4.9,0.4
		c2.533,0.967,3.617,2.017,3.25,3.149c-0.3,1.034-1.067,1.601-2.3,1.7c-1.566-0.033-2.75-0.017-3.55,0.05
		c-1.167,0.134-2.033-0.55-2.6-2.05C125.083,224.3,125.183,223.217,125.95,222.55z"/>
	<path style="fill-rule:evenodd;clip-rule:evenodd;fill:#1F2433;" d="M365.95,19.5c4.267,2.767,6.533,5.7,6.8,8.8
		c0.3,3.534-0.366,7.15-2,10.85c-1.8,4.033-4.25,6.75-7.35,8.15c-2.601,1.2-5.167,0.7-7.7-1.5c-1.4-1.333-2.467-2.367-3.2-3.1
		c-1.333-1.267-2.55-2.184-3.65-2.75c-2.433-1.3-4.149-2.55-5.149-3.75c-0.634-0.767-1.15-1.833-1.55-3.2
		c-0.267-0.867-0.184-2.383,0.25-4.55c0.866-4.333,1.316-6.617,1.35-6.85c0.366-2.3,1.45-3.717,3.25-4.25
		c1.233-0.367,3.967-0.733,8.2-1.1C358.3,15.817,361.884,16.9,365.95,19.5z"/>
	<path style="fill-rule:evenodd;clip-rule:evenodd;fill:#1F2433;" d="M377.25,11.1c1.2-0.3,2.65-0.133,4.35,0.5
		c1.733,0.633,2.667,1.333,2.801,2.1c0.233,1.133-1.317,4.2-4.65,9.2c-1.033,1.5-2.583,1.383-4.65-0.35
		c-2.199-2.367-3.699-3.867-4.5-4.5c-1.166-0.966-1.05-2.2,0.351-3.7C372.384,12.817,374.483,11.733,377.25,11.1z"/>
	<path style="fill-rule:evenodd;clip-rule:evenodd;fill:#1F2433;" d="M19.25,210.35c1.2-0.3,2.65-0.133,4.35,0.5
		c1.733,0.634,2.667,1.334,2.8,2.101c0.233,1.133-1.316,4.2-4.65,9.2c-1.033,1.533-2.583,1.433-4.65-0.301
		c-2.2-2.366-3.7-3.866-4.5-4.5c-1.2-0.966-1.083-2.199,0.35-3.699C14.383,212.083,16.483,210.983,19.25,210.35z"/>
	<path style="fill-rule:evenodd;clip-rule:evenodd;fill:#1F2433;" d="M133.35,208.25c1.2-0.267,2.65-0.1,4.35,0.5
		c1.733,0.634,2.667,1.333,2.8,2.1c0.233,1.2-1.317,4.267-4.65,9.2c-1.033,1.533-2.583,1.434-4.65-0.3c-2.2-2.366-3.7-3.866-4.5-4.5
		c-1.167-0.967-1.05-2.2,0.35-3.7C128.483,210.017,130.583,208.917,133.35,208.25z"/>
	<path style="fill-rule:evenodd;clip-rule:evenodd;fill:#1F2433;" d="M112.75,44.95c2.533,0.233,4.617,1.267,6.25,3.1
		c1.567,1.8,2.083,3.583,1.55,5.35c-0.6,2.033-1.233,3.533-1.9,4.5c-0.967,1.367-2.433,2.5-4.4,3.4c-1.733,0.8-2.967,0.233-3.7-1.7
		c-0.733-2.867-1.483-5-2.25-6.4c-1.2-2.267-1.45-4.233-0.75-5.9C108.35,45.5,110.083,44.717,112.75,44.95z"/>
	<path style="fill-rule:evenodd;clip-rule:evenodd;fill:#1F2433;" d="M335.15,13.4c1.833,0.2,3.333,1.117,4.5,2.75
		c1.166,1.6,1.55,3.2,1.149,4.8c-0.434,1.767-0.899,3.083-1.399,3.95c-0.733,1.2-1.817,2.217-3.25,3.05
		c-1.267,0.733-2.167,0.233-2.7-1.5c-0.5-2.534-1.017-4.434-1.55-5.7c-0.867-2-1.051-3.75-0.551-5.25
		C331.95,13.9,333.217,13.2,335.15,13.4z"/>
	<path style="fill-rule:evenodd;clip-rule:evenodd;fill:#1F2433;" d="M338.55,30.25c0.667,1.467,0.65,2.6-0.05,3.4
		c-0.634,0.7-1.017,0.434-1.15-0.8C337.184,31.683,337.583,30.817,338.55,30.25z"/>
	<path style="fill-rule:evenodd;clip-rule:evenodd;fill:#1F2433;" d="M73.1,87.8c0.933-0.4,2.017-0.183,3.25,0.65
		c1.033,0.733,1.75,1.566,2.15,2.5c0.3,0.7-0.033,1.017-1,0.95c-0.733-0.033-1.667-0.267-2.8-0.7c-1.133-0.434-1.95-0.95-2.45-1.55
		C71.617,88.917,71.9,88.3,73.1,87.8z"/>
	<path style="fill-rule:evenodd;clip-rule:evenodd;fill:#1F2433;" d="M245.95,25.7c1.8,1.966,3.149,4.133,4.05,6.5
		c0.9,2.4,1.05,4.267,0.45,5.6c-1.3,3.034-4,6.267-8.1,9.7c-4.533,3.8-8.717,5.9-12.55,6.3c-3.133,0.333-4.95-1.25-5.45-4.75
		c-0.2-2.066-0.4-3.617-0.6-4.65c-0.367-1.8-1-3.183-1.9-4.15c-1.867-1.967-1.1-5.1,2.3-9.4c2.434-3.1,5.1-5.684,8-7.75
		C236.717,19.8,241.317,20.667,245.95,25.7z"/>
	<path style="fill-rule:evenodd;clip-rule:evenodd;fill:#1F2433;" d="M236.85,7.8c1.433-0.466,3.316,0.633,5.65,3.3
		c2.366,2.667,3.517,5.1,3.45,7.3c-0.033,1.833-1.066,2.434-3.1,1.8c-2.5-1.1-4.2-1.75-5.1-1.95c-1.6-0.3-2.683-1.917-3.25-4.85
		C233.867,10.4,234.65,8.533,236.85,7.8z"/>
	<path style="fill-rule:evenodd;clip-rule:evenodd;fill:#1F2433;" d="M257.75,31.5c1.533-0.667,3.267-0.317,5.2,1.05
		c1.7,1.2,2.866,2.55,3.5,4.05c0.434,1.133-0.117,1.65-1.65,1.55c-1.2-0.1-2.666-0.483-4.399-1.15c-1.867-0.7-3.184-1.517-3.95-2.45
		C255.417,33.35,255.85,32.333,257.75,31.5z"/>
	<path style="fill-rule:evenodd;clip-rule:evenodd;fill:#1F2433;" d="M165.9,35.85c1.167,0.033,2.883,1.2,5.15,3.5
		c2.2,2.233,3.717,4.316,4.55,6.25c1.167,2.633,1.383,8.217,0.65,16.75c-0.233,2.667-1.533,5.033-3.9,7.1
		c-2.467,2.133-5.467,3.4-9,3.8c-2.934,0.3-4.65-0.25-5.15-1.65c-0.167-1.867-0.583-3.217-1.25-4.05c-0.767-0.966-1.233-2.2-1.4-3.7
		c-0.3-3-0.566-5.083-0.8-6.25c-0.467-2.333-0.133-4.083,1-5.25c2.5-2.5,3.85-3.917,4.05-4.25c0.733-1.2,1.817-3.817,3.25-7.85
		C164.083,37.283,165.033,35.817,165.9,35.85z"/>
	<path style="fill-rule:evenodd;clip-rule:evenodd;fill:#1F2433;" d="M181.45,45.7c0.966-0.833,2.966-0.95,6-0.35
		c3.367,0.667,5.333,2.1,5.9,4.3c0.533,2.067,0.05,3.934-1.45,5.6c-2.233,1.9-4,3.5-5.3,4.8c-1.8,1.833-3.367,2.25-4.7,1.25
		c-1.233-0.933-1.816-2.533-1.75-4.8c-0.033-2.867-0.033-4.967,0-6.3C180.25,47.867,180.683,46.367,181.45,45.7z"/>
	<path style="fill-rule:evenodd;clip-rule:evenodd;fill:#1F2433;" d="M250.25,274.05c1.533,0.033,2.45,0.884,2.75,2.55
		c0.3,1.667-0.316,2.567-1.85,2.7c-1.667,0.134-2.767-0.717-3.301-2.55C247.316,274.917,248.116,274.017,250.25,274.05z"/>
	<path style="fill-rule:evenodd;clip-rule:evenodd;fill:#1F2433;" d="M416.8,44.5c1.367,2.467,1.934,5.15,1.7,8.05
		c-0.267,3.5-1.634,7.017-4.1,10.55c-2.434,3.467-5.351,6.133-8.75,8c-5.667,3.066-10.717,0.933-15.15-6.4
		c-1.733-2.867-2.967-5.95-3.7-9.25c-0.7-3.267-0.7-5.8,0-7.6c0.2-0.533,0.733-1.583,1.601-3.15c0.699-1.267,1.149-2.35,1.35-3.25
		l0.2-0.85c0.2-1.267,0.35-2.05,0.45-2.35c0.267-0.833,0.8-1.483,1.6-1.95c2.5-1.466,5.667-2.3,9.5-2.5
		c4.6-0.267,7.866,0.833,9.8,3.3C414.366,40.933,416.2,43.4,416.8,44.5z"/>
	<path style="fill-rule:evenodd;clip-rule:evenodd;fill:#1F2433;" d="M126.15,89.1c-0.566-1.467-0.867-2.333-0.9-2.6
		c-0.2-0.933-0.1-1.85,0.3-2.75c1.367-2.767,3.7-5.25,7-7.45c3.967-2.7,7.517-3.333,10.65-1.9c4.867,2.2,7.9,3.684,9.1,4.45
		c2.633,1.733,4.667,4.1,6.1,7.1c1.767,3.667,2.567,7.9,2.4,12.7c-0.167,4.7-1.233,8.867-3.2,12.5c-3.3,6.033-9.033,6.567-17.2,1.6
		c-3.167-1.933-6.017-4.35-8.55-7.25c-2.5-2.9-3.95-5.417-4.35-7.55c-0.133-0.667-0.25-1.983-0.35-3.95
		c-0.1-1.633-0.316-2.95-0.65-3.95L126.15,89.1z"/>
	<path style="fill-rule:evenodd;clip-rule:evenodd;fill:#1F2433;" d="M158.5,256.7c-0.933,0.5-2.483,0.033-4.65-1.4
		c-2.2-1.467-2.983-2.717-2.35-3.75c0.567-0.934,1.467-1.333,2.7-1.2c0.7,0.101,1.85,0.334,3.45,0.7c1.167,0.134,1.833,0.983,2,2.55
		C159.817,255.167,159.433,256.2,158.5,256.7z"/>
	<path style="fill-rule:evenodd;clip-rule:evenodd;fill:#1F2433;" d="M466.15,96.85c0.566-0.934,1.466-1.317,2.699-1.15
		c0.7,0.1,1.851,0.333,3.45,0.7c1.167,0.133,1.834,0.983,2,2.55c0.167,1.566-0.217,2.6-1.149,3.1
		c-0.934,0.467-2.483-0.017-4.65-1.45C466.3,99.167,465.517,97.917,466.15,96.85z"/>
	<path style="fill-rule:evenodd;clip-rule:evenodd;fill:#1F2433;" d="M132.25,273.95c-0.9,0.066-1.933-0.134-3.1-0.601
		c-1.467-0.533-1.333-2.616,0.4-6.25c1.733-3.6,3.434-5.466,5.1-5.6c2.833-0.167,3.717,2.366,2.65,7.6
		c-0.3,1.5-0.883,2.667-1.75,3.5C134.683,273.467,133.583,273.917,132.25,273.95z"/>
	<path style="fill-rule:evenodd;clip-rule:evenodd;fill:#1F2433;" d="M159.75,260.9c3.133,2.1,5.933,4.733,8.4,7.899
		c2.467,3.167,3.917,5.934,4.35,8.3c0.133,0.7,0.267,2.167,0.4,4.4c0.1,1.8,0.317,3.25,0.65,4.35l0.35,1.051
		c0.567,1.566,0.883,2.533,0.95,2.899c0.2,1.033,0.1,2.033-0.3,3c-1.3,3.066-3.533,5.867-6.7,8.4
		c-3.833,3.033-7.267,3.783-10.3,2.25c-4.867-2.434-7.833-4.05-8.9-4.851c-2.6-1.866-4.617-4.466-6.05-7.8
		c-1.767-4.033-2.583-8.7-2.45-14c0.1-5.233,1.083-9.866,2.95-13.899c1.633-3.467,4.066-5.267,7.3-5.4
		C153.167,257.4,156.283,258.533,159.75,260.9z"/>
	<path style="fill-rule:evenodd;clip-rule:evenodd;fill:#1F2433;" d="M63.2,100.7c1.2-0.4,3.933-0.784,8.2-1.15
		c3.1-0.433,6.684,0.667,10.75,3.3c4.267,2.767,6.533,5.7,6.8,8.8c0.3,3.533-0.367,7.15-2,10.85c-1.8,4.033-4.25,6.75-7.35,8.15
		c-2.6,1.2-5.167,0.7-7.7-1.5c-1.4-1.333-2.467-2.367-3.2-3.1c-1.333-1.267-2.55-2.183-3.65-2.75c-2.433-1.3-4.15-2.55-5.15-3.75
		c-0.633-0.733-1.15-1.8-1.55-3.2c-0.267-0.867-0.184-2.383,0.25-4.55c0.867-4.333,1.316-6.617,1.35-6.85
		C60.317,102.65,61.4,101.233,63.2,100.7z"/>
	<path style="fill-rule:evenodd;clip-rule:evenodd;fill:#1F2433;" d="M51.15,95.8c1.833,0.2,3.333,1.117,4.5,2.75
		c1.167,1.6,1.55,3.2,1.15,4.8c-0.433,1.833-0.9,3.167-1.4,4c-0.7,1.2-1.767,2.217-3.2,3.05c-1.267,0.733-2.167,0.233-2.7-1.5
		c-0.5-2.533-1.033-4.433-1.6-5.7c-0.867-2.034-1.033-3.784-0.5-5.25C47.967,96.317,49.217,95.6,51.15,95.8z"/>
	<path style="fill-rule:evenodd;clip-rule:evenodd;fill:#1F2433;" d="M480.7,214.85c1.967,0.267,3.583,1.634,4.85,4.101
		c1.2,2.399,1.584,4.8,1.15,7.2c-0.5,2.699-1.017,4.699-1.55,6c-0.767,1.8-1.917,3.333-3.45,4.6c-1.367,1.1-2.334,0.35-2.9-2.25
		c-0.533-3.8-1.1-6.65-1.7-8.55c-0.899-3-1.066-5.617-0.5-7.851C477.233,215.667,478.6,214.583,480.7,214.85z"/>
	<path style="fill-rule:evenodd;clip-rule:evenodd;fill:#1F2433;" d="M48.65,119.9c0.3-0.4,1.367-0.5,3.2-0.3
		c0.9,0.1,1.783,0.233,2.65,0.4l-0.2,2.4c-0.267,1.8-0.7,3.15-1.3,4.05c-0.567,0.833-1.283,0.917-2.15,0.25
		c-1.5-1.167-2.383-1.784-2.65-1.85c-0.9-0.3-1.217-1.033-0.95-2.2C47.483,121.717,47.95,120.8,48.65,119.9z"/>
	<path style="fill-rule:evenodd;clip-rule:evenodd;fill:#1F2433;" d="M63.95,125.75l2.1,1c1.4,0.8,2.167,1.517,2.3,2.15
		c0.133,0.7-0.283,1.017-1.25,0.95c-0.567-0.033-1.75-0.267-3.55-0.7c-1.233-0.3-1.683-0.917-1.35-1.85
		C62.533,126.433,63.117,125.917,63.95,125.75z"/>
	<path style="fill-rule:evenodd;clip-rule:evenodd;fill:#1F2433;" d="M313.55,0l2.101,1c1.399,0.833,2.166,1.567,2.3,2.2
		c0.133,0.7-0.283,1.017-1.25,0.95c-0.5-0.033-1.684-0.283-3.55-0.75c-1.233-0.3-1.684-0.917-1.351-1.85
		C312.134,0.717,312.717,0.2,313.55,0z"/>
	<path style="fill-rule:evenodd;clip-rule:evenodd;fill:#1F2433;" d="M292.55,308l2.05,1c1.434,0.8,2.217,1.517,2.351,2.15
		c0.133,0.699-0.3,1.017-1.3,0.949c-0.5-0.033-1.684-0.267-3.551-0.699c-1.233-0.301-1.666-0.917-1.3-1.851
		C291.134,308.684,291.717,308.167,292.55,308z"/>
	<path style="fill-rule:evenodd;clip-rule:evenodd;fill:#1F2433;" d="M348.7,44.1l2.05,1c1.434,0.833,2.217,1.566,2.35,2.2
		c0.134,0.7-0.3,1.017-1.3,0.95c-0.566-0.033-1.75-0.283-3.55-0.75c-1.233-0.3-1.667-0.917-1.3-1.85
		C347.283,44.783,347.866,44.267,348.7,44.1z"/>
	<path style="fill-rule:evenodd;clip-rule:evenodd;fill:#1F2433;" d="M257.95,265.2c0.833,1.3,0.717,2.85-0.351,4.649
		c-0.366,0.601-1.383,1.834-3.05,3.7c-0.6,0.667-1.233,0.767-1.899,0.3c-1.034-0.767-1.917-1.183-2.65-1.25
		c-1.134-0.066-1.783-1.233-1.95-3.5c-0.033-0.533,0-2.333,0.101-5.399c0.066-1.834,0.35-3.584,0.85-5.25
		c0.6-2.101,1.267-2.75,2-1.95C254.167,260.066,256.483,262.967,257.95,265.2z"/>
	<path style="fill-rule:evenodd;clip-rule:evenodd;fill:#1F2433;" d="M395.05,130.85c0.334-1.367,1.033-1.934,2.101-1.7
		c0.866,0.2,1.533,0.65,2,1.35c0.199,0.333,0.8,1.267,1.8,2.8c0.866,1.534,1.267,2.717,1.2,3.55c-0.067,0.767-0.7,0.816-1.9,0.15
		c-1.533-1-2.667-1.65-3.4-1.95c-0.966-0.367-1.566-1.017-1.8-1.95C394.85,132.4,394.85,131.65,395.05,130.85z"/>
	<path style="fill-rule:evenodd;clip-rule:evenodd;fill:#1F2433;" d="M61.9,263.6c-2.566-0.466-4.95-1.6-7.15-3.399
		c-2.233-1.834-3.333-3.617-3.3-5.351c0.066-1.566,0.7-2.866,1.9-3.899c0.1-0.134,1.717-1.267,4.85-3.4
		c3.433-2.366,6.283-1.434,8.55,2.8c0.833,1.5,1.55,2.934,2.15,4.301c0.3,0.666,1.2,2.75,2.7,6.25c1.1,2.566,0.517,3.866-1.75,3.899
		C69.483,264.833,66.833,264.434,61.9,263.6z"/>
	<path style="fill-rule:evenodd;clip-rule:evenodd;fill:#1F2433;" d="M58.7,237.25c0.733-1,1.816-0.717,3.25,0.85
		c1.367,1.467,1.2,2.851-0.5,4.15c-1.733,1.3-2.883,1.116-3.45-0.55C57.433,240.1,57.667,238.616,58.7,237.25z"/>
	<path style="fill-rule:evenodd;clip-rule:evenodd;fill:#1F2433;" d="M40.9,275.25c2.934-6.066,4.783-10.2,5.55-12.4
		c0.533-1.5,1.267-2.066,2.2-1.699c0.7,0.233,1.7,1.1,3,2.6c3.434,3.967,5.867,6.017,7.3,6.15c2.4,0.233,4.417,2.683,6.05,7.35
		c1.467,4.233,2.017,7.917,1.65,11.05c-0.3,2.7-1.333,5.667-3.1,8.9c-1.933,3.633-3.833,5.6-5.7,5.899c-2.167,0.334-5.267-1-9.3-4
		c-4.267-3.199-7.216-6.683-8.85-10.449C38.267,285.384,38.667,280.917,40.9,275.25z"/>
	<path style="fill-rule:evenodd;clip-rule:evenodd;fill:#1F2433;" d="M52.15,220.4c2.9,3.566,3.717,8.566,2.45,15
		c-1.233,6.267-4.2,12.699-8.9,19.3c-4.167,5.833-10.067,10.149-17.7,12.95c-6.4,2.366-11.417,3.066-15.05,2.1
		c-2.1-0.533-2.717-3.566-1.85-9.1c1.1-7,1.367-11.384,0.8-13.15c-0.867-2.8-0.05-5.884,2.45-9.25c3.2-3.566,5.3-6.184,6.3-7.85
		c5.233-8.9,11.184-13.917,17.85-15.051C44.167,214.417,48.717,216.1,52.15,220.4z"/>
	<path style="fill-rule:evenodd;clip-rule:evenodd;fill:#1F2433;" d="M32,270.65c2.533-1.367,4.117-1.983,4.75-1.851
		c0.533,0.134,0.383,1.217-0.45,3.25c-1.033,2.467-1.533,4.017-1.5,4.65c0.067,1.8-1.083,3.883-3.45,6.25
		c-1.833,1.833-3.833,2.283-6,1.35c-2.067-0.866-3.067-2.217-3-4.05c0.1-1.5,0.667-2.9,1.7-4.2c0.833-1,1.817-1.833,2.95-2.5
		C29,272.35,30.667,271.384,32,270.65z"/>
	<path style="fill-rule:evenodd;clip-rule:evenodd;fill:#1F2433;" d="M83.05,260.4c0.333-1.367,1.034-1.934,2.1-1.7
		c0.867,0.2,1.533,0.666,2,1.399c0.967,1.467,1.567,2.384,1.8,2.75c0.867,1.534,1.267,2.717,1.2,3.551
		c-0.066,0.8-0.7,0.866-1.9,0.199c-1.533-1-2.667-1.649-3.4-1.949c-0.967-0.367-1.567-1.017-1.8-1.95
		C82.85,262,82.85,261.233,83.05,260.4z"/>
	<path style="fill-rule:evenodd;clip-rule:evenodd;fill:#1F2433;" d="M433.95,95.4c0.733-2.066,2.3-3.617,4.7-4.65
		c1.633-0.667,3-0.967,4.1-0.9c0.3,0,0.95,0.566,1.95,1.7c1.7,1.934,2.8,3.167,3.3,3.7c2.033,2.133,2.733,6.017,2.1,11.65
		c-0.399,3.633-1.333,7.417-2.8,11.35c-0.533,1.367-1.483,1.333-2.85-0.1c-1.867-2.3-3.4-4.05-4.601-5.25
		c-0.733-0.767-2-1.967-3.8-3.6c-1.066-1-2.1-2.133-3.1-3.4c-1.101-1.4-1.417-3.1-0.95-5.1
		C432.866,98.467,433.517,96.667,433.95,95.4z"/>
	<path style="fill-rule:evenodd;clip-rule:evenodd;fill:#1F2433;" d="M435.7,78.8c1.934-1.333,3.533-0.816,4.8,1.55
		c0.967,1.867,1.4,3.467,1.3,4.8c-0.033,0.567-0.467,1.233-1.3,2c-0.767,0.7-1.533,1.167-2.3,1.4
		c-2.767,0.867-4.483,0.617-5.15-0.75c-0.566-1.133-0.616-2.633-0.149-4.5C433.4,81.233,434.333,79.733,435.7,78.8z"/>
	<path style="fill-rule:evenodd;clip-rule:evenodd;fill:#1F2433;" d="M430.25,70.8c0.866-0.767,1.616-0.216,2.25,1.65
		c0.233,0.6,0.3,1.25,0.2,1.95c-0.033,0.2-0.3,1.45-0.8,3.75c-0.367,1.8-0.851,2.75-1.45,2.85c-0.566,0.1-1.05-0.55-1.45-1.95
		c-0.434-1.6-0.6-3.066-0.5-4.4C428.667,72.95,429.25,71.667,430.25,70.8z"/>
	<path style="fill-rule:evenodd;clip-rule:evenodd;fill:#1F2433;" d="M122.15,235.9c1.233,1,2.367,4.216,3.4,9.649
		c0.333,1.634-0.6,3.95-2.8,6.95c-1.667,2.267-3.783,4.583-6.35,6.95c-1.733,1.633-3.183,2.316-4.35,2.05
		c-0.667-0.134-1.417-0.717-2.25-1.75c-0.4-0.5-0.883-1.45-1.45-2.85c-0.767-2.034-1.35-3.467-1.75-4.301
		c-0.633-1.366-0.75-2.466-0.35-3.3c0.8-1.166,1.45-2.316,1.95-3.45c1.1-2.399,1.867-3.983,2.3-4.75c0.967-1.6,2.083-2.866,3.35-3.8
		c1.066-0.8,2.5-1.383,4.3-1.75C120.05,235.184,121.383,235.3,122.15,235.9z"/>
	<path style="fill-rule:evenodd;clip-rule:evenodd;fill:#1F2433;" d="M110.35,231.05c0.566-0.733,1.4-0.533,2.5,0.601
		c1.033,1.133,0.9,2.183-0.4,3.149c-1.333,0.967-2.2,0.834-2.6-0.399C109.417,233.2,109.583,232.083,110.35,231.05z"/>
	<path style="fill-rule:evenodd;clip-rule:evenodd;fill:#1F2433;" d="M154.2,23.65c1.9-0.4,3.233-0.283,4,0.35
		c1.233,1,2.367,4.2,3.4,9.6c0.333,1.633-0.6,3.95-2.8,6.95c-1.667,2.267-3.783,4.583-6.35,6.95c-1.733,1.633-3.184,2.317-4.35,2.05
		c-0.667-0.133-1.417-0.716-2.25-1.75c-0.434-0.5-0.9-1.433-1.4-2.8c-0.833-2.167-1.417-3.6-1.75-4.3
		c-0.633-1.367-0.767-2.483-0.4-3.35c0.8-1.133,1.45-2.267,1.95-3.4c1.1-2.4,1.867-3.983,2.3-4.75c0.967-1.6,2.083-2.867,3.35-3.8
		C150.967,24.6,152.4,24.017,154.2,23.65z"/>
	<path style="fill-rule:evenodd;clip-rule:evenodd;fill:#1F2433;" d="M146.4,19.15c0.567-0.733,1.4-0.533,2.5,0.6
		c1.033,1.133,0.9,2.167-0.4,3.1c-1.333,1-2.2,0.883-2.6-0.35C145.467,21.3,145.633,20.183,146.4,19.15z"/>
	<path style="fill-rule:evenodd;clip-rule:evenodd;fill:#1F2433;" d="M137.25,137.35c-0.2-1.733,0.433-3.45,1.9-5.15
		c1-1.167,1.9-1.934,2.7-2.3c0.267-0.1,0.967,0.033,2.1,0.4c2.066,0.667,3.316,1.067,3.75,1.2c2.333,0.6,4.25,2.967,5.75,7.1
		c1,2.633,1.65,5.633,1.95,9c0.133,1.133-0.583,1.5-2.15,1.1c-2.2-0.8-3.967-1.383-5.3-1.75c-0.934-0.267-2.3-0.567-4.1-0.9
		c-1.2-0.233-2.383-0.583-3.55-1.05c-1.333-0.533-2.183-1.583-2.55-3.15C137.55,139.883,137.383,138.383,137.25,137.35z"/>
	<path style="fill-rule:evenodd;clip-rule:evenodd;fill:#1F2433;" d="M132.6,125.2c0.967-1.7,2.35-2,4.15-0.9
		c1.367,0.833,2.283,1.75,2.75,2.75c0.167,0.4,0.083,1.034-0.25,1.9c-0.333,0.833-0.75,1.483-1.25,1.95
		c-0.767,0.733-1.383,1.233-1.85,1.5c-0.867,0.467-1.633,0.483-2.3,0.05c-0.833-0.534-1.417-1.534-1.75-3
		C131.767,127.817,131.933,126.4,132.6,125.2z"/>
	<path style="fill-rule:evenodd;clip-rule:evenodd;fill:#1F2433;" d="M452.45,18.45c2.566,1.2,5.149,2.883,7.75,5.05
		c0.934,0.767,0.7,1.517-0.7,2.25c-2.167,0.967-3.85,1.767-5.05,2.4c-0.834,0.467-2.033,1.2-3.601,2.2
		c-1.033,0.633-2.133,1.2-3.3,1.7c-1.333,0.534-2.666,0.367-4-0.5c-1.566-1.267-2.767-2.233-3.6-2.9c-1.367-1.1-2.134-2.75-2.3-4.95
		c-0.134-1.4-0.051-2.567,0.25-3.5c0.1-0.267,0.699-0.65,1.8-1.15c1.866-0.9,3.05-1.483,3.55-1.75
		C445.35,16.167,448.417,16.55,452.45,18.45z"/>
	<path style="fill-rule:evenodd;clip-rule:evenodd;fill:#1F2433;" d="M428,23.2c-0.533-1.9,0.233-3.067,2.3-3.5
		c1.667-0.367,2.967-0.333,3.9,0.1c0.399,0.167,0.783,0.667,1.149,1.5c0.367,0.833,0.551,1.583,0.551,2.25
		c-0.034,1.067-0.134,1.85-0.301,2.35c-0.267,0.934-0.783,1.467-1.55,1.6c-0.967,0.2-2.1-0.117-3.399-0.95
		C429.25,25.617,428.366,24.5,428,23.2z"/>
	<path style="fill-rule:evenodd;clip-rule:evenodd;fill:#1F2433;" d="M167.15,184.9c1.1-2.4,1.867-3.983,2.3-4.75
		c0.966-1.601,2.083-2.867,3.35-3.801c1.067-0.8,2.5-1.383,4.3-1.75c1.9-0.399,3.233-0.283,4,0.351c1.233,1,2.367,4.2,3.4,9.6
		c0.333,1.634-0.6,3.95-2.8,6.95c-1.633,2.233-3.733,4.55-6.3,6.95c-1.733,1.633-3.2,2.316-4.4,2.05
		c-0.667-0.134-1.417-0.717-2.25-1.75c-0.433-0.5-0.9-1.434-1.4-2.8c-0.867-2.2-1.45-3.65-1.75-4.351
		c-0.633-1.366-0.767-2.466-0.4-3.3C166,187.167,166.65,186.033,167.15,184.9z"/>
	<path style="fill-rule:evenodd;clip-rule:evenodd;fill:#1F2433;" d="M163.95,164.4c0.7,1,1.233,2.017,1.6,3.05v0.05
		c0.434,1.2,0.7,2.6,0.8,4.2c0.033,0.8,0.017,2.533-0.05,5.2c-0.033,2.8-0.883,5.566-2.55,8.3h0.05c-0.767,1.233-1.6,2.3-2.5,3.2
		c-0.633,0.6-2.55,0.85-5.75,0.75c-5.233-0.167-7.983-0.25-8.25-0.25l-0.05,0.05l-1.35,0.1c-1.767,0.233-3.483-0.583-5.15-2.45
		c-1.533-2.166-2.6-3.533-3.2-4.1h-0.05l0.05-0.05l-0.4-0.3c-0.733-0.4-1.5-1.233-2.3-2.5c-1-1.567-1.6-2.45-1.8-2.65
		c-0.5-0.566-0.816-1.3-0.95-2.2c-0.067-0.5-0.083-1.467-0.05-2.899c0.034-0.9-0.283-1.95-0.95-3.15c-0.867-1.434-1.533-2.533-2-3.3
		c-0.333-0.566-0.55-1.134-0.65-1.7c-0.1-0.7-0.017-1.533,0.25-2.5c0.066-0.267,0.433-1.3,1.1-3.1c0.5-1.467,1.383-2.833,2.65-4.1
		l0.35-0.35c1.833-1.733,4.117-3.05,6.85-3.95c2.4-0.833,4.283-1.117,5.65-0.85l0.5,0.15c2.3,0.633,5.7,2.667,10.2,6.1l1.45,1.2
		C159.15,157.85,161.317,160.533,163.95,164.4z"/>
	<path style="fill-rule:evenodd;clip-rule:evenodd;fill:#1F2433;" d="M133.8,185.5c0.333-1.366,1.034-1.934,2.1-1.7
		c0.867,0.2,1.533,0.65,2,1.351c0.2,0.333,0.8,1.267,1.8,2.8c0.867,1.533,1.25,2.717,1.15,3.55c-0.067,0.767-0.684,0.816-1.85,0.15
		c-1.533-1-2.667-1.65-3.4-1.95c-0.967-0.367-1.583-1.017-1.85-1.95C133.583,187.083,133.6,186.333,133.8,185.5z"/>
	<path style="fill-rule:evenodd;clip-rule:evenodd;fill:#1F2433;" d="M157.95,142.1c0.233-0.367,0.833-0.05,1.8,0.95
		c0.933,0.967,1.467,1.784,1.6,2.45c0.133,0.767,0.033,1.417-0.3,1.95c-0.367,0.633-0.9,0.783-1.6,0.45
		c-0.733-0.333-1.267-1.217-1.6-2.65C157.483,143.85,157.517,142.8,157.95,142.1z"/>
	<path style="fill-rule:evenodd;clip-rule:evenodd;fill:#1F2433;" d="M169.35,170.1c0.566-0.733,1.383-0.533,2.45,0.601
		c1.034,1.133,0.9,2.166-0.4,3.1c-1.3,1-2.167,0.884-2.6-0.35C168.367,172.217,168.55,171.1,169.35,170.1z"/>
	<path style="fill-rule:evenodd;clip-rule:evenodd;fill:#1F2433;" d="M450.25,271.25c-0.233-1.6-0.033-3.45,0.6-5.55
		c0.667-2.267,1.534-3.634,2.601-4.101c1.733-0.699,5.7-0.017,11.899,2.051c1.867,0.633,3.75,2.983,5.65,7.05
		c1.434,3.1,2.684,6.7,3.75,10.8c0.7,2.8,0.583,4.75-0.35,5.85c-0.534,0.634-1.551,1.084-3.051,1.351
		c-0.767,0.166-2.017,0.116-3.75-0.15c-2.6-0.399-4.416-0.633-5.449-0.7c-1.767-0.133-2.983-0.649-3.65-1.55
		c-0.733-1.467-1.55-2.816-2.45-4.05c-1.899-2.566-3.116-4.316-3.649-5.25C451.267,275.1,450.55,273.184,450.25,271.25z"/>
	<path style="fill-rule:evenodd;clip-rule:evenodd;fill:#1F2433;" d="M418.9,276.55l2.05-0.85c1.633-0.566,3.483-1.017,5.55-1.351
		c1.434-0.233,3.583-0.483,6.45-0.75c1.333-0.133,2.7-0.116,4.1,0.051v0.1c1.5,0.233,3.101,0.767,4.8,1.6
		c0.967,0.467,2.767,1.5,5.4,3.101c2.866,1.7,5.267,4.217,7.2,7.55h0.05c0.866,1.533,1.5,3.05,1.9,4.55c0.267,1-0.534,3.167-2.4,6.5
		c-3.1,5.434-4.717,8.283-4.85,8.55c-1.188-1.651-1.872-2.593-2.051-2.824c0.151,0.248,0.835,1.207,2.051,2.875h0.05
		c-0.367,0.8-0.584,1.316-0.65,1.55c-0.767,2-2.566,3.333-5.399,4c-3.134,0.366-5.15,0.7-6.051,1h-0.05l-0.05-0.05
		c-0.167,0.033-0.35,0.116-0.55,0.25c-0.767,0.533-2.033,0.85-3.8,0.949c-2.267,0.167-3.534,0.284-3.801,0.351
		c-0.899,0.233-1.85,0.149-2.85-0.25c-0.566-0.233-1.566-0.8-3-1.7c-0.934-0.566-2.217-0.85-3.85-0.85
		c-1.967,0.1-3.483,0.166-4.551,0.199c-0.767,0.034-1.466-0.066-2.1-0.3c-0.8-0.3-1.616-0.883-2.45-1.75
		c-0.366-0.366-1.25-1.366-2.649-3c-1.2-1.399-2.134-3.133-2.801-5.2l-0.149-0.55c-0.767-2.967-0.867-6.184-0.3-9.649
		c0.5-3.034,1.267-5.167,2.3-6.4l0.399-0.45C408.717,281.8,412.733,279.384,418.9,276.55z"/>
	<path style="fill-rule:evenodd;clip-rule:evenodd;fill:#1F2433;" d="M448.25,313.95c0.8,0.533,0.517,1.233-0.85,2.1
		c-1.9,1.033-3.2,1.851-3.9,2.45c-0.934,0.8-1.95,1.066-3.05,0.8c-0.8-0.2-1.584-0.649-2.351-1.35c-1.233-1.167-1.433-2.25-0.6-3.25
		c0.7-0.8,1.55-1.233,2.55-1.3c2.3-0.167,3.584-0.25,3.851-0.25C445.967,313.116,447.417,313.384,448.25,313.95z"/>
	<path style="fill-rule:evenodd;clip-rule:evenodd;fill:#1F2433;" d="M441.85,271.2c-0.466-1,0.2-1.733,2-2.2
		c1.733-0.467,2.733,0.267,3,2.2c0.301,1.967-0.316,2.816-1.85,2.55C443.533,273.483,442.483,272.634,441.85,271.2z"/>
	<path style="fill-rule:evenodd;clip-rule:evenodd;fill:#1F2433;" d="M81.75,238.8c1.467-1.2,2.567-1.467,3.3-0.8
		c0.5,0.467,1.6,1.733,3.3,3.8c1.633,1.467,2.033,3.75,1.2,6.851c-0.7,2.633-1.933,4.983-3.7,7.05c-1.6,1.8-2.95,2-4.05,0.6
		c-1.833-2.3-2.983-3.767-3.45-4.399c-1.633-2.301-2.533-4.084-2.7-5.351c-0.167-1.3,0.35-2.6,1.55-3.899
		C77.7,242.116,79.217,240.833,81.75,238.8z"/>
	<path style="fill-rule:evenodd;clip-rule:evenodd;fill:#1F2433;" d="M396.9,256.95c0.5,0.467,1.6,1.717,3.3,3.75
		c1.633,1.467,2.033,3.75,1.2,6.85c-0.7,2.634-1.934,4.983-3.7,7.05c-1.601,1.801-2.95,2-4.05,0.601
		c-1.834-2.3-2.983-3.767-3.45-4.4c-1.634-2.3-2.533-4.083-2.7-5.35c-0.167-1.3,0.35-2.601,1.55-3.9
		c0.434-0.434,1.95-1.717,4.55-3.85C395.066,256.5,396.167,256.25,396.9,256.95z"/>
	<path style="fill-rule:evenodd;clip-rule:evenodd;fill:#1F2433;" d="M388.45,197.2c0.434-0.434,1.95-1.717,4.55-3.851
		c1.467-1.199,2.566-1.449,3.3-0.75c0.5,0.467,1.601,1.717,3.3,3.75c1.634,1.5,2.051,3.784,1.25,6.851
		c-0.699,2.633-1.949,4.983-3.75,7.05c-1.6,1.8-2.949,2-4.05,0.6c-1.833-2.3-2.983-3.767-3.45-4.399
		c-1.633-2.3-2.533-4.084-2.699-5.351C386.733,199.8,387.25,198.5,388.45,197.2z"/>
	<path style="fill-rule:evenodd;clip-rule:evenodd;fill:#1F2433;" d="M391.55,281.85c-0.566,0.4-1.05-0.133-1.45-1.6
		c-0.366-1.434-0.133-2.283,0.7-2.55c0.967-0.334,1.617,0.083,1.95,1.25C393.083,280.15,392.684,281.116,391.55,281.85z"/>
	<path style="fill-rule:evenodd;clip-rule:evenodd;fill:#1F2433;" d="M81.6,28.75c2.3,1.4,3.75,2.867,4.35,4.4
		c0.3,0.667,0.167,1.684-0.4,3.05c-0.5,1.3-1.15,2.333-1.95,3.1c-1.2,1.167-2.2,1.967-3,2.4c-1.4,0.8-2.617,0.85-3.65,0.15
		c-1.333-0.867-2.267-2.483-2.8-4.85c-0.566-2.6-0.3-4.867,0.8-6.8C76.517,27.433,78.733,26.95,81.6,28.75z"/>
	<path style="fill-rule:evenodd;clip-rule:evenodd;fill:#1F2433;" d="M24.25,71.4c-0.833,0.967-1.717,1.583-2.65,1.85
		c-1.2,0.167-2.217,0.35-3.05,0.55c-2.066,0.733-3.783,1.25-5.15,1.55c-2.566,0.5-4.75,0.25-6.55-0.75
		c-1.533-0.833-2.567-1.75-3.1-2.75C3.117,70.717,2.867,69.067,3,66.9c0.067-0.9,1.15-2.767,3.25-5.6
		c2.333-3.133,4.367-5.066,6.1-5.8c1.833-0.8,4.133-0.833,6.9-0.1c2.567,0.667,4.8,1.767,6.7,3.3c3.466,2.867,5.3,5.933,5.5,9.2
		c0.066,1.133-0.867,1.817-2.8,2.05C26.25,70.25,24.783,70.733,24.25,71.4z"/>
	<path style="fill-rule:evenodd;clip-rule:evenodd;fill:#1F2433;" d="M64.85,19.7c0.566-1.333,1.783-1.2,3.65,0.4
		c0.6,0.5,1.05,1.167,1.35,2c0,0.066,0.417,1.633,1.25,4.7c0.566,2.233,0.517,3.617-0.15,4.15c-0.667,0.5-1.633,0.083-2.9-1.25
		c-1.433-1.5-2.466-3.017-3.1-4.55C64.183,23.183,64.15,21.367,64.85,19.7z"/>
	<path style="fill-rule:evenodd;clip-rule:evenodd;fill:#1F2433;" d="M10.35,110.5c-0.367,1.567-1.25,2.75-2.65,3.55
		c-1.4,0.833-2.883,1-4.45,0.5c-2.267-0.767-3.15-3.8-2.65-9.1c0.1-1.2,0.883-2.083,2.35-2.65c1.1-0.4,2.483-0.6,4.15-0.6
		c1.233,0,2.2,0.933,2.9,2.8C10.667,106.8,10.783,108.633,10.35,110.5z"/>
	<path style="fill-rule:evenodd;clip-rule:evenodd;fill:#1F2433;" d="M26.9,40.9c-0.3,1.5-1.133,2.617-2.5,3.35
		c-1.433,0.733-2.967,0.817-4.6,0.25c-2.367-0.8-3.45-3.817-3.25-9.05c0.034-1.167,0.8-1.983,2.3-2.45
		c1.133-0.333,2.55-0.45,4.25-0.35c1.3,0.067,2.35,1.033,3.15,2.9C27.05,37.35,27.267,39.133,26.9,40.9z"/>
	<path style="fill-rule:evenodd;clip-rule:evenodd;fill:#1F2433;" d="M1.7,98.4c-0.5-1.933-0.184-3.083,0.95-3.45
		c1.3-0.434,2.167,0.133,2.6,1.7c0.433,1.6-0.1,2.883-1.6,3.85C2.85,101.033,2.2,100.333,1.7,98.4z"/>
	<path style="fill-rule:evenodd;clip-rule:evenodd;fill:#1F2433;" d="M52.35,12.45c2.267-0.8,3.967-0.717,5.1,0.25
		c0.9,0.733,1.583,2.233,2.05,4.5c0.267,1.333,0.667,3.65,1.2,6.95c0.633,3,1.5,5.483,2.6,7.45c1.367,2.367,3.1,5.7,5.2,10
		c1.333,2.733,2.883,5.3,4.65,7.7c1.934,2.667,2.4,5.65,1.4,8.95c-0.633,2-1.917,5.567-3.85,10.7c-0.633,2.667-2.75,5.767-6.35,9.3
		c-3.033,2.933-5.05,4.55-6.05,4.85c-0.667,0.133-3.7-2-9.1-6.4c-5.8-4.733-10.267-8.934-13.4-12.6c-3.066-3.6-4.7-7.7-4.9-12.3
		c-0.1-2.333,0.4-7.4,1.5-15.2c0.833-5.767,3.15-10.867,6.95-15.3C42.95,17.133,47.283,14.183,52.35,12.45z"/>
	<path style="fill-rule:evenodd;clip-rule:evenodd;fill:#1F2433;" d="M74.55,26.25c-0.933,0.633-1.7-0.233-2.3-2.6
		c-0.633-2.3-0.267-3.667,1.1-4.1c1.566-0.5,2.617,0.184,3.15,2.05C77.033,23.5,76.383,25.05,74.55,26.25z"/>
	<path style="fill-rule:evenodd;clip-rule:evenodd;fill:#1F2433;" d="M13,83.5c1.2-2.733,4.517-4.167,9.95-4.3
		c5.333-0.133,9.367,1,12.1,3.4c2.367,2.066,3.284,3.983,2.75,5.75c-0.333,1.133-1.533,2.483-3.6,4.05
		c-1.067,0.833-2.7,2.117-4.9,3.85c-2.233,1.567-4.983,2.967-8.25,4.2c-3.066,1.2-4.566,1.117-4.5-0.25
		c0.167-0.967,0.284-1.733,0.35-2.3c0.167-1.033,0.1-1.867-0.2-2.5c-1.434-2.2-2.483-3.983-3.15-5.35
		C12.35,87.617,12.167,85.433,13,83.5z"/>
	<path style="fill-rule:evenodd;clip-rule:evenodd;fill:#1F2433;" d="M14.2,134.35c-1.633-2.3-2.534-4.067-2.7-5.3
		c-0.167-1.3,0.35-2.6,1.55-3.9c0.467-0.5,1.983-1.8,4.55-3.9c1.467-1.2,2.566-1.45,3.3-0.75c0.5,0.467,1.6,1.733,3.3,3.8
		c1.633,1.467,2.033,3.75,1.2,6.85c-0.7,2.633-1.933,4.967-3.7,7c-1.6,1.8-2.95,2-4.05,0.6
		C15.817,136.45,14.667,134.983,14.2,134.35z"/>
	<path style="fill-rule:evenodd;clip-rule:evenodd;fill:#1F2433;" d="M69.55,80.65c-0.566,0.4-1.05-0.133-1.45-1.6
		c-0.367-1.466-0.133-2.333,0.7-2.6c0.967-0.333,1.617,0.1,1.95,1.3S70.683,79.917,69.55,80.65z"/>
	<path style="fill-rule:evenodd;clip-rule:evenodd;fill:#1F2433;" d="M433.65,115.05c0.767,0.934,2.199,2.8,4.3,5.6
		c1.967,2.467,3.133,4.467,3.5,6c0.399,1.8-0.084,3.633-1.45,5.5c-0.5,0.667-2.017,0.117-4.55-1.65
		c-2.867-2.233-4.75-3.65-5.65-4.25c-1.133-0.767-2.467-2.817-4-6.15c-1.666-4.067-2.883-6.983-3.649-8.75
		c-1.233-2.833-1.7-5.217-1.4-7.15c0.333-2.067,1.467-2.35,3.4-0.85c1.533,1.167,2.899,2.95,4.1,5.35
		c1.066,2.167,1.866,3.35,2.4,3.55C431.45,112.583,432.45,113.517,433.65,115.05z"/>
	<path style="fill-rule:evenodd;clip-rule:evenodd;fill:#1F2433;" d="M407.95,85.85c1-0.1,2.233,1.3,3.7,4.2
		c1.833,3.6,3.149,5.8,3.949,6.6c1.233,1.233,1.917,2.9,2.051,5c0.066,1.167,0.1,2.833,0.1,5c0.833,5.3,0.134,8.833-2.1,10.6
		c-1.9,1.467-4.217,1.45-6.95-0.05c-2.267-1.267-4.2-3.583-5.8-6.95c-1.534-3.3-2.467-7-2.801-11.1
		c-0.267-3.633,0.634-6.816,2.7-9.55C404.533,87.3,406.25,86.05,407.95,85.85z"/>
	<path style="fill-rule:evenodd;clip-rule:evenodd;fill:#1F2433;" d="M422.3,185.7c-0.133-1.867,0.684-4.867,2.45-9
		c1.934-4.634,4.083-7.967,6.45-10c2.166-1.867,3.866-1.783,5.1,0.25c0.733,1.2,1.733,3.399,3,6.6c0.834,1.4,2.134,3.95,3.9,7.65
		c1.666,3.6,2.733,5.75,3.2,6.45c0.6,0.966,0.283,3.033-0.95,6.199c-0.7,1.767-1.851,4.567-3.45,8.4c-1.3,3.833-2.6,6.066-3.9,6.7
		c-1.233,0.6-2.1-0.217-2.6-2.45c-0.533-2.134-1.634-3.967-3.3-5.5c-1.8-1.6-3.55-2.2-5.25-1.8
		C424.616,199.767,423.066,195.267,422.3,185.7z"/>
	<path style="fill-rule:evenodd;clip-rule:evenodd;fill:#1F2433;" d="M435.4,154.75c-0.034-2.733,0.517-4.917,1.649-6.55
		c0.967-1.434,3.351-1.15,7.15,0.85c2.166,1.133,5.6,3.2,10.3,6.2c2.167,1.3,5.066,2.867,8.7,4.7c2.8,1.767,4.916,4.267,6.35,7.5
		c1.533,3.366,2.717,7.533,3.55,12.5c0.7,4.366,0.867,6.666,0.5,6.899c-2.3,2.267-4,3.817-5.1,4.65
		c-1.866,1.434-4.116,1.483-6.75,0.15c-3-1.5-5.967-3.617-8.9-6.351c-2.6-2.399-4.933-5.033-7-7.899
		c-1.433-1.967-3.116-4.95-5.05-8.95c-2-4.134-3.267-6.584-3.8-7.351C435.967,159.5,435.434,157.383,435.4,154.75z"/>
	<path style="fill-rule:evenodd;clip-rule:evenodd;fill:#1F2433;" d="M412.7,148.25c1.467-2.1,3.25-4.217,5.35-6.35
		c2.601-2.633,4.584-4.066,5.95-4.3c1.2-0.2,2.217,0.967,3.05,3.5c1.3,3.9,2.15,6.183,2.55,6.85c1.101,1.833,1.584,4,1.45,6.5
		c-0.066,1.966-0.55,4.433-1.45,7.399c-1.433,4.7-4.517,7.084-9.25,7.15c-4.5,0.033-7.583-1.634-9.25-5
		c-1.366-2.8-1.767-5.767-1.199-8.9C410.333,152.567,411.267,150.283,412.7,148.25z"/>
	<path style="fill-rule:evenodd;clip-rule:evenodd;fill:#1F2433;" d="M449.9,223.9c3.033,3.267,4.517,5.683,4.449,7.25
		c-0.1,1.699-1.116,3.683-3.05,5.949c-2.2,2.567-4.7,4.2-7.5,4.9c-3.1,0.8-8.05,0.917-14.85,0.35
		c-6.9-0.566-11.816-1.533-14.75-2.899c-2.267-1.066-2.45-2.917-0.55-5.55c3.267-4.567,5.133-7.601,5.6-9.101
		c1.033-3.333,4.184-5.467,9.45-6.399c3.767-0.634,8.217-0.634,13.35,0C444.15,218.634,446.767,220.467,449.9,223.9z"/>
	<path style="fill-rule:evenodd;clip-rule:evenodd;fill:#1F2433;" d="M425.55,246.4c3.267-1.067,6.884-1.417,10.851-1.051
		c2.866,0.301,4.783,2.4,5.75,6.301c0.933,3.833,0.416,6.383-1.551,7.649c-3.199,2.066-9.1,2.334-17.699,0.8
		c-3.067-0.566-4.384-1.767-3.95-3.6c1.1-2.366,1.616-4.217,1.55-5.55C420.4,249.017,422.083,247.5,425.55,246.4z"/>
	<path style="fill-rule:evenodd;clip-rule:evenodd;fill:#1F2433;" d="M456.7,241.05c1.5,0.667,1.583,2.584,0.25,5.75
		c-1.4,3.3-3.55,5.65-6.45,7.05c-2.5,1.233-3.783,1.217-3.85-0.05c0.366-1.833,0.366-3.066,0-3.7c-0.7-1.133,0.233-3.133,2.8-6
		C452.083,241.134,454.5,240.116,456.7,241.05z"/>
	<path style="fill-rule:evenodd;clip-rule:evenodd;fill:#1F2433;" d="M299,16.9c2.1,0.233,4.717,2.067,7.85,5.5
		c3.034,3.3,4.517,5.733,4.45,7.3c-0.1,1.7-1.116,3.667-3.05,5.9c-2.2,2.566-4.7,4.217-7.5,4.95c-3.1,0.8-8.05,0.917-14.85,0.35
		c-6.934-0.566-11.851-1.533-14.75-2.9c-2.267-1.067-2.45-2.917-0.551-5.55c3.267-4.567,5.134-7.617,5.601-9.15
		c1.033-3.333,4.184-5.45,9.45-6.35C289.35,16.283,293.8,16.267,299,16.9z"/>
	<path style="fill-rule:evenodd;clip-rule:evenodd;fill:#1F2433;" d="M277.45,49.45c-0.134-1.934,1.533-3.45,5-4.55
		c3.3-1.066,6.934-1.4,10.899-1c2.867,0.267,4.784,2.35,5.75,6.25c0.934,3.833,0.417,6.383-1.55,7.65c-3.3,2.1-9.2,2.367-17.7,0.8
		c-3.066-0.533-4.383-1.733-3.949-3.6C277,52.633,277.517,50.783,277.45,49.45z"/>
	<path style="fill-rule:evenodd;clip-rule:evenodd;fill:#1F2433;" d="M313.65,39.55c1.5,0.667,1.583,2.583,0.25,5.75
		c-1.4,3.3-3.551,5.667-6.45,7.1c-2.5,1.2-3.783,1.167-3.851-0.1c0.367-1.833,0.367-3.066,0-3.7c-0.699-1.133,0.233-3.133,2.801-6
		C309.033,39.633,311.45,38.617,313.65,39.55z"/>
</g>
</svg>
