<?xml version="1.0" encoding="iso-8859-1"?>
<!-- Generator: Adobe Illustrator 15.1.0, SVG Export Plug-In . SVG Version: 6.00 Build 0)  -->
<!DOCTYPE svg PUBLIC "-//W3C//DTD SVG 1.1//EN" "http://www.w3.org/Graphics/SVG/1.1/DTD/svg11.dtd">
<svg version="1.1" id="Layer_1" xmlns="http://www.w3.org/2000/svg" xmlns:xlink="http://www.w3.org/1999/xlink" x="0px" y="0px"
	 width="242.6px" height="210.05px" viewBox="0 0 242.6 210.05" style="enable-background:new 0 0 242.6 210.05;"
	 xml:space="preserve">
<g>
	<g>
		<path style="fill-rule:evenodd;clip-rule:evenodd;fill:#809DA1;" d="M242.2,197c0.399,0.634,0.483,1.116,0.25,1.45
			c-0.233,0.333-0.717,0.416-1.45,0.25c-0.733-0.167-1.5-0.533-2.3-1.101c-0.834-0.533-1.45-1.133-1.851-1.8
			c-0.433-0.633-0.517-1.116-0.25-1.45c0.233-0.333,0.717-0.416,1.45-0.25c0.733,0.167,1.5,0.534,2.3,1.101
			C241.184,195.767,241.8,196.366,242.2,197z"/>
	</g>
	<g>
		<g>
			<path style="fill-rule:evenodd;clip-rule:evenodd;fill:#86ABAE;" d="M37.5,98.3c1.333,2.133,2.25,4.083,2.75,5.85
				c0.2,0.833,0.25,1.483,0.15,1.95c-0.1-0.1-0.2,0.084-0.3,0.551L40,107.1c-0.133,0-0.033,0.117,0.3,0.351
				c0.434,0.1,0.434,0.383,0,0.85c-0.4,0.434-0.9,0.566-1.5,0.4c-0.9-0.033-1.833-0.351-2.8-0.95c-1.9-1.1-3.617-2.85-5.15-5.25
				c-1.434-2.3-2.267-4.567-2.5-6.8c-0.233-2.167,0.2-3.434,1.3-3.8c0.967-0.333,2.184,0.117,3.65,1.35
				C34.7,94.383,36.1,96.067,37.5,98.3z"/>
		</g>
		<g>
			<path style="fill-rule:evenodd;clip-rule:evenodd;fill:#86ABAE;" d="M49.5,106.55c0.9,0.5,1.767,1.283,2.6,2.351
				c0.833,0.966,1.417,1.933,1.75,2.899c0.033,0.2,0.083,0.367,0.15,0.5c0.032,0.158-0.06,0.434-0.275,0.825
				c0.128-0.041,0.253-0.017,0.375,0.075c-0.033,0,0.05,0.083,0.25,0.25c0.1,0.233-0.217,0.483-0.95,0.75
				c-0.433-0.066-0.95-0.217-1.55-0.45c-0.967-0.467-1.9-1.25-2.8-2.35c-0.867-1.034-1.45-2.034-1.75-3
				c-0.3-0.967-0.25-1.634,0.15-2C47.883,106,48.567,106.05,49.5,106.55z"/>
		</g>
		<g>
			<path style="fill-rule:evenodd;clip-rule:evenodd;fill:#809DA1;" d="M40,84.5c2.033,4.067,2.517,6.667,1.45,7.8
				c-0.6,0.7-1.667,0.55-3.2-0.45c-1.567-1.033-2.833-2.533-3.8-4.5c-0.967-1.967-1.5-3.75-1.6-5.35c-0.1-1.533,0.233-2.517,1-2.95
				c0.733-0.433,1.733-0.1,3,1C38.05,81.183,39.1,82.667,40,84.5z"/>
		</g>
		<g>
			<path style="fill-rule:evenodd;clip-rule:evenodd;fill:#809DA1;" d="M49.2,98.9c0.1,0.434,0.05,0.7-0.15,0.8
				c-0.433,0.2-1-0.167-1.7-1.1c-0.333-0.4-0.55-0.817-0.65-1.25c-0.1-0.434-0.05-0.7,0.15-0.8c0.367-0.2,0.933,0.167,1.7,1.1
				C48.883,98.05,49.1,98.467,49.2,98.9z"/>
		</g>
		<g>
			<path style="fill-rule:evenodd;clip-rule:evenodd;fill:#809DA1;" d="M27.2,83.25c-1.034,0.833-2.417,0.333-4.15-1.5
				c-1.8-1.9-3.017-4.267-3.65-7.1c-0.767-2.867-0.95-5.417-0.55-7.65c0.4-2.2,1.183-3.417,2.35-3.65
				c1.133-0.233,2.316,0.55,3.55,2.35c1.2,1.767,2.15,4.017,2.85,6.75C29.033,78.283,28.9,81.883,27.2,83.25z"/>
		</g>
		<g>
			<path style="fill-rule:evenodd;clip-rule:evenodd;fill:#86ABAE;" d="M28.15,48.05c0.434,1.167,0.733,2.667,0.9,4.5
				c0.367,4.067-0.1,6.367-1.4,6.9C26.917,59.783,26.1,59.3,25.2,58c-0.967-1.367-1.517-3.033-1.65-5
				c-0.2-1.933,0.034-3.633,0.7-5.1c0.6-1.4,1.3-2.05,2.1-1.95C27.05,46.083,27.65,46.783,28.15,48.05z"/>
		</g>
		<g>
			<path style="fill-rule:evenodd;clip-rule:evenodd;fill:#809DA1;" d="M34.3,74.7c-0.3,0.1-0.633-0.05-1-0.45
				c-0.4-0.433-0.75-1-1.05-1.7c-0.333-0.7-0.483-1.35-0.45-1.95c0-0.6,0.15-0.95,0.45-1.05c0.3-0.1,0.65,0.067,1.05,0.5
				c0.367,0.4,0.7,0.95,1,1.65c0.3,0.7,0.45,1.35,0.45,1.95S34.6,74.6,34.3,74.7z"/>
		</g>
		<g>
			<path style="fill-rule:evenodd;clip-rule:evenodd;fill:#97B3AB;" d="M20.8,43.7c-0.733,0.133-1.417-0.434-2.05-1.7
				c-0.633-1.233-1.033-2.717-1.2-4.45c-0.3-2.733-0.083-4.833,0.65-6.3c0.6-0.867,1.5-0.583,2.7,0.85
				c1.233,1.467,1.867,3.083,1.9,4.85c0.167,1.833,0.05,3.383-0.35,4.65C22.083,42.833,21.533,43.533,20.8,43.7z"/>
		</g>
		<g>
			<path style="fill-rule:evenodd;clip-rule:evenodd;fill:#809DA1;" d="M24.65,29.85c-1.133-0.267-2.267-1.15-3.4-2.65
				c-0.667-0.9-1.117-1.817-1.35-2.75c-0.2-0.967-0.083-1.55,0.35-1.75c0.433-0.167,1-0.034,1.7,0.4c0.7,0.433,1.4,1.133,2.1,2.1
				c0.7,0.833,1.133,1.816,1.3,2.95C25.483,29.317,25.25,29.883,24.65,29.85z"/>
		</g>
		<g>
			<path style="fill-rule:evenodd;clip-rule:evenodd;fill:#809DA1;" d="M26.95,41.3c-0.3,0.067-0.617-0.167-0.95-0.7
				s-0.55-1.2-0.65-2c-0.1-0.8-0.017-1.517,0.25-2.15c0.233-0.6,0.5-0.867,0.8-0.8c0.6,0.033,1.017,0.934,1.25,2.7
				c0.1,0.767,0.083,1.433-0.05,2C27.467,40.95,27.25,41.267,26.95,41.3z"/>
		</g>
		<g>
			<path style="fill-rule:evenodd;clip-rule:evenodd;fill:#86ABAE;" d="M51.7,68.7c-0.767,0.566-1.9,0.35-3.4-0.65
				c-1.533-1.066-2.917-2.583-4.15-4.55s-2.017-3.783-2.35-5.45c-0.333-1.7-0.133-2.833,0.6-3.4c0.767-0.566,1.9-0.35,3.4,0.65
				c1.534,1.034,2.917,2.534,4.15,4.5c1.233,2,2.033,3.833,2.4,5.5C52.683,67,52.467,68.133,51.7,68.7z"/>
		</g>
		<g>
			<path style="fill-rule:evenodd;clip-rule:evenodd;fill:#86ABAE;" d="M75.15,80.95c-0.467,0.267-1.1,0.2-1.9-0.2
				c-0.867-0.433-1.767-1.133-2.7-2.1c-0.933-0.967-1.583-1.95-1.95-2.95c-0.333-1-0.283-1.667,0.15-2c0.433-0.333,1.1-0.284,2,0.15
				c0.867,0.433,1.767,1.133,2.7,2.1c0.9,0.933,1.533,1.917,1.9,2.95C75.717,79.967,75.65,80.65,75.15,80.95z"/>
		</g>
		<g>
			<path style="fill-rule:evenodd;clip-rule:evenodd;fill:#86ABAE;" d="M78.55,95.75c1.067,1.533,1.784,2.983,2.15,4.35
				c0.3,1.167,0.3,2.033,0,2.6c0.3,0.133,0.267,0.316-0.1,0.55c-0.4,0.267-0.75,0.333-1.05,0.2c-0.566-0.034-1.233-0.25-2-0.65
				c-1.4-0.867-2.667-2.117-3.8-3.75s-1.85-3.2-2.15-4.7c-0.3-1.434-0.133-2.4,0.5-2.9c0.667-0.467,1.633-0.267,2.9,0.6
				C76.267,92.883,77.45,94.117,78.55,95.75z"/>
		</g>
		<g>
			<path style="fill-rule:evenodd;clip-rule:evenodd;fill:#86ABAE;" d="M86.5,96.8c-0.367,0.367-0.983,0.434-1.85,0.2
				c-0.9-0.267-1.85-0.783-2.85-1.55c-1.066-0.867-1.816-1.7-2.25-2.5c-0.2-0.333-0.35-0.75-0.45-1.25c-0.1,0.033-0.1-0.15,0-0.55
				s0.233-0.533,0.4-0.4c0.267,0,0.35,0.1,0.25,0.3c0.2-0.267,0.7-0.3,1.5-0.1c0.933,0.267,1.867,0.783,2.8,1.55
				c1,0.733,1.75,1.55,2.25,2.45C86.8,95.817,86.867,96.433,86.5,96.8z"/>
		</g>
		<g>
			<path style="fill-rule:evenodd;clip-rule:evenodd;fill:#809DA1;" d="M101,113c-1.033,0.467-2.417,0.4-4.15-0.2
				c-1.367-0.5-3.4-1.517-6.1-3.05c-2.533-1.4-4.467-3.267-5.8-5.6c-1.3-2.267-1.383-3.767-0.25-4.5
				c1.833-1.133,5.383-0.2,10.65,2.8c2.6,1.433,4.517,3.433,5.75,6C102.3,110.917,102.267,112.434,101,113z"/>
		</g>
		<g>
			<path style="fill-rule:evenodd;clip-rule:evenodd;fill:#86ABAE;" d="M97.35,98.35c0.367,0.433,0.483,0.767,0.35,1
				c-0.167,0.267-0.517,0.383-1.05,0.35c-0.566-0.034-1.167-0.233-1.8-0.6c-0.667-0.367-1.167-0.8-1.5-1.3
				c-0.3-0.466-0.367-0.816-0.2-1.05c0.367-0.467,1.267-0.3,2.7,0.5C96.483,97.583,96.983,97.95,97.35,98.35z"/>
		</g>
		<g>
			<path style="fill-rule:evenodd;clip-rule:evenodd;fill:#86ABAE;" d="M61.9,86.05c-0.233,0.1-0.617-0.183-1.15-0.85
				c-0.533-0.667-0.767-1.083-0.7-1.25c0.067-0.167,0.267-0.217,0.6-0.15c0.367,0.067,0.7,0.267,1,0.6
				c0.267,0.367,0.417,0.733,0.45,1.1C62.133,85.833,62.067,86.017,61.9,86.05z"/>
		</g>
		<g>
			<path style="fill-rule:evenodd;clip-rule:evenodd;fill:#86ABAE;" d="M75.75,138.4c-0.367,0.5-1.133,0.6-2.3,0.3
				c-1.2-0.334-2.434-1-3.7-2c-1.233-0.967-2.133-2.017-2.7-3.15c-0.566-1.1-0.633-1.899-0.2-2.399
				c0.433-0.467,1.217-0.5,2.35-0.101c1.1,0.367,2.267,1.033,3.5,2c1.233,1,2.15,2,2.75,3C76.05,137.116,76.15,137.9,75.75,138.4z"
				/>
		</g>
		<g>
			<path style="fill-rule:evenodd;clip-rule:evenodd;fill:#97B3AB;" d="M47.35,146.5c0.267,0.2,0.217,0.45-0.15,0.75
				c-0.367,0.333-0.75,0.483-1.15,0.45c-0.9,0.033-1.833-0.2-2.8-0.7c-1.9-0.9-3.667-2.533-5.3-4.9c-1.567-2.1-2.4-4.383-2.5-6.85
				c-0.133-2.434,0.45-3.634,1.75-3.6c1.9,0.1,4.25,2.183,7.05,6.25c1.333,1.966,2.267,3.75,2.8,5.35c0.3,0.5,0.367,1.116,0.2,1.85
				C47.117,145.767,47.15,146.233,47.35,146.5z"/>
		</g>
		<g>
			<path style="fill-rule:evenodd;clip-rule:evenodd;fill:#86ABAE;" d="M33.85,128.35c-0.367,0.101-0.817-0.083-1.35-0.55
				s-1.033-1.133-1.5-2c-0.467-0.866-0.717-1.717-0.75-2.55c-0.033-0.8,0.15-1.25,0.55-1.35c0.8-0.267,1.733,0.583,2.8,2.55
				c0.467,0.866,0.717,1.7,0.75,2.5C34.417,127.75,34.25,128.217,33.85,128.35z"/>
		</g>
		<g>
			<path style="fill-rule:evenodd;clip-rule:evenodd;fill:#86ABAE;" d="M78.65,159.7c-0.3,0.5-0.983,0.633-2.05,0.399
				c-1.133-0.233-2.267-0.783-3.4-1.649c-1.133-0.867-1.967-1.783-2.5-2.75c-0.567-0.934-0.667-1.634-0.3-2.101
				c0.367-0.433,1.067-0.5,2.1-0.199c1.033,0.267,2.1,0.833,3.2,1.699c1.133,0.834,1.983,1.684,2.55,2.551
				C78.817,158.517,78.95,159.2,78.65,159.7z"/>
		</g>
		<g>
			<path style="fill-rule:evenodd;clip-rule:evenodd;fill:#97B3AB;" d="M77.9,149.35c1.1-0.733,2.783-0.767,5.05-0.1
				c1.933,0.566,4.466,1.7,7.6,3.4c6.7,3.833,9.8,7,9.3,9.5c-0.3,1.533-1.917,2.316-4.85,2.35c-3.133,0.033-6.317-0.866-9.55-2.7
				c-3.3-1.767-5.75-4.083-7.35-6.95C76.6,152.083,76.533,150.25,77.9,149.35z"/>
		</g>
		<g>
			<path style="fill-rule:evenodd;clip-rule:evenodd;fill:#809DA1;" d="M109.45,143.2c0,0.833-0.833,1.25-2.5,1.25
				c-1.733-0.033-3.35-0.584-4.85-1.65c-1.533-1.033-2.684-2.066-3.45-3.1s-1.017-1.884-0.75-2.55c0.3-0.7,1.184-0.934,2.65-0.7
				c1.467,0.267,2.934,0.883,4.4,1.85c1.533,1.033,2.65,1.9,3.35,2.601C109.067,141.733,109.45,142.5,109.45,143.2z"/>
		</g>
		<g>
			<path style="fill-rule:evenodd;clip-rule:evenodd;fill:#86ABAE;" d="M99.35,132.5c-0.1,0.2-0.367,0.233-0.8,0.1
				c-0.433-0.166-0.833-0.433-1.2-0.8c-0.4-0.366-0.684-0.75-0.85-1.149c-0.167-0.367-0.167-0.634,0-0.801
				c0.167-0.133,0.433-0.133,0.8,0c0.367,0.167,0.75,0.434,1.15,0.801C99.317,131.45,99.617,132.066,99.35,132.5z"/>
		</g>
		<g>
			<path style="fill-rule:evenodd;clip-rule:evenodd;fill:#86ABAE;" d="M139.5,147.9c-0.167,0.8-1.05,1.199-2.65,1.199
				c-1.699,0-3.433-0.449-5.199-1.35c-1.767-0.934-3.134-2.017-4.101-3.25c-0.934-1.167-1.2-2.1-0.8-2.8
				c0.4-0.667,1.35-0.917,2.85-0.75c1.4,0.2,2.95,0.75,4.65,1.649c1.733,0.9,3.066,1.801,4,2.7
				C139.283,146.267,139.7,147.134,139.5,147.9z"/>
		</g>
		<g>
			<path style="fill-rule:evenodd;clip-rule:evenodd;fill:#809DA1;" d="M155.2,168.4c0.333,0.933-0.467,1.583-2.4,1.949
				c-2,0.4-3.899,0.15-5.7-0.75c-1.899-0.833-3.35-1.75-4.35-2.75c-1-0.966-1.417-1.85-1.25-2.649c0.134-0.8,1.033-1.2,2.7-1.2
				c1.666,0,3.366,0.384,5.1,1.15c1.834,0.8,3.2,1.517,4.101,2.149C154.3,166.934,154.9,167.634,155.2,168.4z"/>
		</g>
		<g>
			<path style="fill-rule:evenodd;clip-rule:evenodd;fill:#86ABAE;" d="M148.6,175.15c0.067,1.3-1.166,2.033-3.699,2.199
				c-2.7,0.2-5.317-0.483-7.851-2.05c-2.533-1.5-4.416-3.217-5.649-5.149c-1.167-1.834-1.4-3.217-0.7-4.15
				c0.633-0.9,2-1.116,4.1-0.65c1.9,0.434,4.017,1.351,6.351,2.75c2.5,1.467,4.283,2.667,5.35,3.601
				C147.866,172.9,148.566,174.05,148.6,175.15z"/>
		</g>
		<g>
			<path style="fill-rule:evenodd;clip-rule:evenodd;fill:#86ABAE;" d="M161.5,176.15c0.6,0.533,0.866,1.033,0.8,1.5
				c-0.1,0.466-0.616,0.733-1.55,0.8c-0.9,0.033-1.884-0.15-2.95-0.55c-1.1-0.4-1.95-0.867-2.55-1.4
				c-0.566-0.5-0.833-0.983-0.8-1.45c0.033-0.5,0.533-0.767,1.5-0.8c0.967-0.066,1.967,0.1,3,0.5
				C160.017,175.15,160.866,175.616,161.5,176.15z"/>
		</g>
		<g>
			<path style="fill-rule:evenodd;clip-rule:evenodd;fill:#86ABAE;" d="M173.5,164.85c-0.1,0.801-0.934,1.267-2.5,1.4
				c-1.6,0.1-3.267-0.25-5-1.05s-3.066-1.684-4-2.65s-1.283-1.816-1.05-2.55s1.1-1.066,2.6-1c1.467,0.033,3.017,0.434,4.65,1.2
				C171.866,161.9,173.634,163.45,173.5,164.85z"/>
		</g>
		<g>
			<path style="fill-rule:evenodd;clip-rule:evenodd;fill:#97B3AB;" d="M197.65,182.45c-0.4,1.233-1.817,2-4.25,2.3
				c-2.267,0.3-4.983,0.134-8.15-0.5c-3.167-0.667-5.7-1.5-7.6-2.5c-2.101-1.1-3.167-2.283-3.2-3.55
				c-0.066-1.4,1.184-2.467,3.75-3.2c2.666-0.8,5.633-0.866,8.899-0.2c3.301,0.667,6.017,1.8,8.15,3.4
				C197.25,179.733,198.05,181.15,197.65,182.45z"/>
		</g>
		<g>
			<path style="fill-rule:evenodd;clip-rule:evenodd;fill:#97B3AB;" d="M202.2,186.3c2.1,0.601,3.767,1.417,5,2.45
				c1.1,1,1.55,1.917,1.35,2.75c-0.2,0.8-1.116,1.25-2.75,1.35c-1.5,0.101-3.2-0.116-5.1-0.649c-2.3-0.667-3.75-1.117-4.351-1.351
				c-1.233-0.533-2-1.149-2.3-1.85c-0.434-0.9,0.25-1.717,2.05-2.45C198.033,185.75,200.066,185.667,202.2,186.3z"/>
		</g>
		<g>
			<path style="fill-rule:evenodd;clip-rule:evenodd;fill:#809DA1;" d="M201.35,172.25c-0.166,0.5-0.733,0.783-1.699,0.85
				c-0.967,0.101-2.084-0.066-3.351-0.5c-1.267-0.433-2.283-1.066-3.05-1.899c-0.7-0.8-0.884-1.417-0.55-1.851
				c0.6-0.833,2.217-0.783,4.85,0.15c1.2,0.366,2.184,0.884,2.95,1.55C201.267,171.184,201.55,171.75,201.35,172.25z"/>
		</g>
		<g>
			<path style="fill-rule:evenodd;clip-rule:evenodd;fill:#86ABAE;" d="M210.3,179.5c-0.033,0.2-0.267,0.333-0.7,0.4
				c-0.433,0.066-0.899,0.017-1.399-0.15c-1.066-0.4-1.601-0.816-1.601-1.25c0-0.2,0.217-0.333,0.65-0.4
				c0.467-0.066,0.95-0.017,1.45,0.15C209.767,178.65,210.3,179.066,210.3,179.5z"/>
		</g>
		<g>
			<path style="fill-rule:evenodd;clip-rule:evenodd;fill:#809DA1;" d="M230.7,191.1c-0.334,0.733-1.267,1.067-2.8,1
				c-1.467-0.1-3.117-0.533-4.95-1.3c-1.834-0.767-3.267-1.583-4.3-2.45c-1.134-0.933-1.634-1.8-1.5-2.6
				c0.166-0.833,1.05-1.316,2.649-1.45c1.7-0.133,3.517,0.2,5.45,1c1.866,0.8,3.35,1.8,4.45,3
				C230.733,189.434,231.066,190.366,230.7,191.1z"/>
		</g>
		<g>
			<path style="fill-rule:evenodd;clip-rule:evenodd;fill:#86ABAE;" d="M220.3,180.2c-0.166,0.333-0.633,0.333-1.399,0
				c-0.733-0.267-1.117-0.533-1.15-0.8c0-0.167,0.15-0.284,0.45-0.351c0.333-0.066,0.684-0.033,1.05,0.101
				c0.366,0.133,0.65,0.316,0.85,0.55C220.3,179.9,220.366,180.066,220.3,180.2z"/>
		</g>
		<g>
			<path style="fill-rule:evenodd;clip-rule:evenodd;fill:#86ABAE;" d="M215.7,174.25c-0.101,0.467-0.584,0.75-1.45,0.85
				c-0.9,0.067-1.9-0.066-3-0.399c-1.1-0.334-1.983-0.816-2.65-1.45c-0.699-0.6-0.949-1.116-0.75-1.55
				c0.233-0.434,0.75-0.667,1.551-0.7c0.8-0.033,1.75,0.134,2.85,0.5c1.1,0.333,1.983,0.767,2.65,1.3
				C215.566,173.333,215.833,173.816,215.7,174.25z"/>
		</g>
		<g>
			<path style="fill-rule:evenodd;clip-rule:evenodd;fill:#86ABAE;" d="M218.9,193.2c0,0.366-0.4,0.517-1.2,0.45
				c-0.367-0.034-0.667-0.134-0.9-0.301c-0.2-0.166-0.267-0.316-0.2-0.449c0.101-0.2,0.483-0.267,1.15-0.2
				C218.517,192.767,218.9,192.934,218.9,193.2z"/>
		</g>
		<g>
			<path style="fill-rule:evenodd;clip-rule:evenodd;fill:#86ABAE;" d="M187.05,190.55c-0.233,0.5-1.083,0.533-2.55,0.101
				c-0.634-0.167-1.15-0.4-1.55-0.7c-0.4-0.3-0.584-0.584-0.55-0.851c0.066-0.267,0.35-0.449,0.85-0.55c0.533-0.066,1.134,0,1.8,0.2
				c0.667,0.2,1.217,0.5,1.65,0.9C187.1,190.017,187.217,190.316,187.05,190.55z"/>
		</g>
		<g>
			<path style="fill-rule:evenodd;clip-rule:evenodd;fill:#97B3AB;" d="M160.75,200.8c1.9,0.601,3.434,1.334,4.6,2.2
				c1.2,0.934,1.717,1.8,1.551,2.6c-0.167,0.801-1.034,1.301-2.601,1.5c-1.633,0.2-3.434-0.017-5.399-0.649
				c-1.967-0.667-3.534-1.584-4.7-2.75c-1.167-1.101-1.55-2.033-1.15-2.8c0.367-0.733,1.3-1.084,2.8-1.051
				C157.217,199.85,158.85,200.167,160.75,200.8z"/>
		</g>
		<g>
			<path style="fill-rule:evenodd;clip-rule:evenodd;fill:#86ABAE;" d="M173.45,209.2c0.1,0.2-0.05,0.399-0.45,0.6
				c-0.434,0.2-0.917,0.283-1.45,0.25s-0.967-0.166-1.3-0.399c-0.333-0.2-0.5-0.4-0.5-0.601c0.033-0.2,0.233-0.35,0.6-0.45
				c0.367-0.1,0.801-0.116,1.301-0.05C172.684,208.65,173.283,208.866,173.45,209.2z"/>
		</g>
		<g>
			<path style="fill-rule:evenodd;clip-rule:evenodd;fill:#97B3AB;" d="M185.05,204.05c-0.566,1-2.533,1.184-5.899,0.55
				c-1.5-0.267-2.784-0.75-3.851-1.449c-1.033-0.667-1.467-1.317-1.3-1.95c0.2-0.634,0.866-1.05,2-1.25c1.134-0.233,2.5-0.2,4.1,0.1
				c1.601,0.3,2.934,0.9,4,1.8C185.066,202.717,185.384,203.45,185.05,204.05z"/>
		</g>
		<g>
			<path style="fill-rule:evenodd;clip-rule:evenodd;fill:#86ABAE;" d="M189.25,208.2c-0.033,0.366-0.384,0.649-1.05,0.85
				c-0.7,0.2-1.517,0.233-2.45,0.101c-0.934-0.134-1.7-0.351-2.3-0.65c-0.601-0.333-0.884-0.7-0.851-1.1
				c0-0.367,0.351-0.65,1.051-0.851c0.699-0.2,1.517-0.233,2.449-0.1c0.934,0.133,1.7,0.366,2.301,0.7
				C189,207.483,189.283,207.833,189.25,208.2z"/>
		</g>
		<g>
			<path style="fill-rule:evenodd;clip-rule:evenodd;fill:#86ABAE;" d="M200.25,206.9c0,0.633-0.6,1.133-1.8,1.5
				c-1.267,0.366-2.684,0.399-4.25,0.1c-1.533-0.3-2.8-0.767-3.8-1.4c-0.967-0.633-1.417-1.267-1.351-1.899
				c0.101-0.634,0.75-1.066,1.95-1.3c1.2-0.267,2.55-0.25,4.05,0.05c1.533,0.3,2.767,0.7,3.7,1.2
				C199.717,205.684,200.217,206.267,200.25,206.9z"/>
		</g>
		<g>
			<path style="fill-rule:evenodd;clip-rule:evenodd;fill:#86ABAE;" d="M213.4,208.75c-0.134,0.5-0.967,0.75-2.5,0.75
				c-1.467,0-2.301-0.233-2.5-0.7c-0.101-0.267,0.1-0.55,0.6-0.85c0.533-0.334,1.167-0.5,1.9-0.5s1.366,0.149,1.899,0.45
				C213.3,208.2,213.5,208.483,213.4,208.75z"/>
		</g>
		<g>
			<path style="fill-rule:evenodd;clip-rule:evenodd;fill:#809DA1;" d="M80.45,140.7c0.566-0.367,1.8,0.017,3.7,1.149
				c0.867,0.534,1.533,1.084,2,1.65c0.533,0.6,0.7,1.083,0.5,1.45c-0.167,0.399-0.65,0.566-1.45,0.5
				c-0.867-0.066-1.767-0.384-2.7-0.95c-0.967-0.6-1.65-1.35-2.05-2.25C80.05,141.45,80.05,140.934,80.45,140.7z"/>
		</g>
		<g>
			<path style="fill-rule:evenodd;clip-rule:evenodd;fill:#86ABAE;" d="M120.95,127.25c-0.267,0.4-0.817,0.533-1.65,0.4
				c-0.8-0.134-1.683-0.467-2.65-1c-1-0.5-1.783-1.067-2.35-1.7c-0.566-0.634-0.75-1.167-0.55-1.601c0.2-0.399,0.733-0.566,1.6-0.5
				c0.9,0.067,1.85,0.351,2.85,0.851c1.033,0.533,1.816,1.184,2.35,1.95C121.116,126.35,121.25,126.884,120.95,127.25z"/>
		</g>
		<g>
			<path style="fill-rule:evenodd;clip-rule:evenodd;fill:#86ABAE;" d="M127.45,128.35c-0.066,0.2-0.3,0.284-0.7,0.25
				c-0.4,0-0.833-0.116-1.3-0.35c-0.434-0.233-0.783-0.5-1.05-0.8s-0.367-0.533-0.301-0.7c0.101-0.2,0.351-0.283,0.75-0.25
				c0.367,0,0.784,0.116,1.25,0.35C127.233,127.45,127.684,127.95,127.45,128.35z"/>
		</g>
		<g>
			<path style="fill-rule:evenodd;clip-rule:evenodd;fill:#97B3AB;" d="M16.7,13.9c-0.833,0.233-1.784-0.15-2.85-1.15
				c-1.067-1-2.083-2.45-3.05-4.35C9.833,6.5,9.4,4.633,9.5,2.8C9.6,1,10.117,0.067,11.05,0c1.567-0.1,3.333,1.817,5.3,5.75
				c0.933,1.8,1.433,3.55,1.5,5.25C17.917,12.7,17.533,13.667,16.7,13.9z"/>
		</g>
		<g>
			<path style="fill-rule:evenodd;clip-rule:evenodd;fill:#86ABAE;" d="M5.65,41.7C5.317,41.767,4.967,41.533,4.6,41
				s-0.633-1.217-0.8-2.05c-0.167-0.8-0.183-1.534-0.05-2.2c0.1-0.633,0.317-0.983,0.65-1.05c0.367-0.034,0.717,0.2,1.05,0.7
				c0.367,0.533,0.633,1.217,0.8,2.05c0.167,0.833,0.2,1.566,0.1,2.2C6.217,41.283,5.983,41.633,5.65,41.7z"/>
		</g>
		<g>
			<path style="fill-rule:evenodd;clip-rule:evenodd;fill:#97B3AB;" d="M11.5,46.85c0.367,1.233,0.5,2.316,0.4,3.25
				c-0.066,0.967-0.35,1.533-0.85,1.7c-0.466,0.167-1.017-0.133-1.65-0.9c-0.667-0.767-1.167-1.767-1.5-3
				c-0.367-1.2-0.5-2.267-0.4-3.2c0.067-0.967,0.333-1.534,0.8-1.7c0.5-0.167,1.067,0.133,1.7,0.9
				C10.633,44.633,11.133,45.617,11.5,46.85z"/>
		</g>
		<g>
			<path style="fill-rule:evenodd;clip-rule:evenodd;fill:#86ABAE;" d="M6.05,49.4c0.5,1.867,0.684,3.5,0.55,4.9
				c-0.133,1.434-0.567,2.284-1.3,2.55c-0.733,0.267-1.583-0.184-2.55-1.35c-0.967-1.2-1.7-2.733-2.2-4.6s-0.65-3.533-0.45-5
				c0.167-1.433,0.633-2.267,1.4-2.5c0.733-0.233,1.55,0.25,2.45,1.45C4.85,46.017,5.55,47.533,6.05,49.4z"/>
		</g>
		<g>
			<path style="fill-rule:evenodd;clip-rule:evenodd;fill:#86ABAE;" d="M50.8,43.4c-0.466,0.233-1.066,0.083-1.8-0.45
				c-0.7-0.534-1.417-1.3-2.15-2.3c-0.733-0.967-1.217-1.917-1.45-2.85c-0.233-0.966-0.133-1.583,0.3-1.85
				c0.433-0.267,1.05-0.167,1.85,0.3c0.767,0.5,1.534,1.25,2.3,2.25c0.733,1.033,1.2,2.05,1.4,3.05
				C51.417,42.55,51.267,43.167,50.8,43.4z"/>
		</g>
		<g>
			<path style="fill-rule:evenodd;clip-rule:evenodd;fill:#86ABAE;" d="M57.9,67.95c-0.267,0.233-0.683,0.2-1.25-0.1
				c-0.633-0.333-1.183-0.867-1.65-1.6c-0.467-0.7-0.75-1.383-0.85-2.05c-0.066-0.633,0.05-1.034,0.35-1.2
				c0.3-0.133,0.7-0.017,1.2,0.35c0.466,0.367,0.917,0.883,1.35,1.55C58.15,66.467,58.433,67.483,57.9,67.95z"/>
		</g>
		<g>
			<path style="fill-rule:evenodd;clip-rule:evenodd;fill:#86ABAE;" d="M75.25,70.6c-0.3,0.3-0.817,0.316-1.55,0.05
				c-0.7-0.3-1.434-0.8-2.2-1.5c-0.733-0.7-1.267-1.4-1.6-2.1c-0.333-0.733-0.35-1.25-0.05-1.55c0.3-0.3,0.8-0.3,1.5,0
				c0.7,0.267,1.433,0.75,2.2,1.45c0.733,0.7,1.267,1.417,1.6,2.15C75.483,69.833,75.517,70.333,75.25,70.6z"/>
		</g>
		<g>
			<path style="fill-rule:evenodd;clip-rule:evenodd;fill:#86ABAE;" d="M86.35,85.15c-0.2,0.633-0.934,0.8-2.2,0.5
				c-1.333-0.333-2.517-1.1-3.55-2.3c-1-1.167-1.667-2.3-2-3.4c-0.3-1.034-0.233-1.767,0.2-2.2c0.434-0.4,1.167-0.317,2.2,0.25
				c0.967,0.533,1.9,1.333,2.8,2.4c1,1.167,1.7,2.067,2.1,2.7C86.4,83.933,86.55,84.617,86.35,85.15z"/>
		</g>
	</g>
</g>
</svg>
