<?xml version="1.0" encoding="iso-8859-1"?>
<!-- Generator: Adobe Illustrator 15.1.0, SVG Export Plug-In . SVG Version: 6.00 Build 0)  -->
<!DOCTYPE svg PUBLIC "-//W3C//DTD SVG 1.1//EN" "http://www.w3.org/Graphics/SVG/1.1/DTD/svg11.dtd">
<svg version="1.1" id="Layer_1" xmlns="http://www.w3.org/2000/svg" xmlns:xlink="http://www.w3.org/1999/xlink" x="0px" y="0px"
	 width="69.9px" height="82.6px" viewBox="0 0 69.9 82.6" style="enable-background:new 0 0 69.9 82.6;" xml:space="preserve">
<symbol  id="flash2.ai_x2F_Layer_1_x2F__x3C_Path_x3E_" viewBox="-0.045 -2.68 7.43 2.697">
	<g id="Layer_1_5_">
		<path style="fill-rule:evenodd;clip-rule:evenodd;fill:#B2E4CF;" d="M3.3-2.65C0.467-2.817-0.567-2.3,0.2-1.1
			c0.333,0.533,1.117,0.883,2.35,1.05c1.167,0.133,2.2,0.066,3.1-0.2c0.934-0.267,1.5-0.617,1.7-1.05
			c0.167-0.467-0.267-0.85-1.3-1.15C5.583-2.583,4.667-2.65,3.3-2.65z"/>
	</g>
</symbol>
<symbol  id="flash2.ai_x2F_Layer_1_x2F__x3C_Path_x3E__x5F_1" viewBox="0.016 -5.5 12.463 5.519">
	<g id="Layer_1_4_">
		<path style="fill-rule:evenodd;clip-rule:evenodd;fill:#B2E4CF;" d="M0.4-2.25c0.567,1.067,1.9,1.767,4,2.1
			c1.934,0.3,3.667,0.2,5.2-0.3c1.6-0.6,2.533-1.316,2.8-2.15c0.333-0.933-0.383-1.717-2.15-2.35C9.617-5.183,8.833-5.333,7.9-5.4
			C7.8-5.433,7.017-5.467,5.55-5.5c-1.9,0-3.167,0.083-3.8,0.25C0.05-4.783-0.4-3.783,0.4-2.25z"/>
	</g>
</symbol>
<symbol  id="flash2.ai_x2F_Layer_1_x2F__x3C_Path_x3E__x5F_2" viewBox="0.02 -2.88 8.19 2.884">
	<g id="Layer_1_3_">
		<path style="fill-rule:evenodd;clip-rule:evenodd;fill:#B2E4CF;" d="M0.25-1.25C0.617-0.683,1.483-0.3,2.85-0.1
			c1.267,0.167,2.4,0.133,3.4-0.1c1.067-0.267,1.7-0.617,1.9-1.05C8.383-1.75,7.933-2.167,6.8-2.5C6.333-2.667,5.3-2.783,3.7-2.85
			C0.633-3.017-0.517-2.483,0.25-1.25z"/>
	</g>
</symbol>
<symbol  id="flash2.ai_x2F_Layer_1_x2F__x3C_Path_x3E__x5F_3" viewBox="-0.01 -72.65 54.599 72.636">
	<g id="Layer_1_2_">
		<path style="fill-rule:evenodd;clip-rule:evenodd;fill:#B2E4CF;" d="M47.45-14.55c-3.5,0.033-6.133,0.033-7.9,0
			c-6.633-0.133-9.483-1.784-8.55-4.95c0.2-0.567,0.517-1.3,0.95-2.2c0.367-0.8,0.483-1.55,0.35-2.25
			c-0.167-1.066-1.083-2.466-2.75-4.2c-1.033-1.067-2.9-2.883-5.6-5.45c-2.267-2.433-3.583-4.617-3.95-6.55
			c-0.467-2.3,0.4-4.017,2.6-5.15c1.033-0.534,3.083-1.083,6.15-1.65c0.467-0.1,1.3-0.216,2.5-0.35
			c1.033-0.267,1.617-0.784,1.75-1.55c0.167-0.833-0.1-1.383-0.8-1.65c-1.167-0.467-1.784-0.733-1.85-0.8
			c-0.633-0.567-0.883-1.517-0.75-2.85c0.066-0.733,0.2-1.767,0.4-3.1c0.033-2.1-0.25-4.233-0.85-6.4c-0.566-2-1.083-3.55-1.55-4.65
			c-0.767-1.733-1.733-3.184-2.9-4.35v0.05c0.466,0.733,0.883,1.517,1.25,2.35c0.667,1.533,1.066,3.233,1.2,5.1
			c0.233,2.7,0.1,4.967-0.4,6.8c-0.633,2.267-1.867,4.083-3.7,5.45c-2.6,1.733-4.517,3.133-5.75,4.2
			c-2.133,1.833-3.367,3.784-3.7,5.85c-0.067,1.467-0.15,2.55-0.25,3.25c-0.167,1.267-0.667,2.217-1.5,2.85
			c-0.767,0.567-1.8,0.817-3.1,0.75c-1.467-0.2-2.55-0.317-3.25-0.35c-1.367-0.1-2.533-0.017-3.5,0.25c-1.433,0.434-2.1,1.233-2,2.4
			c0.2,1.967,2.133,2.8,5.8,2.5c0.733-0.066,2.167-0.25,4.3-0.55c1.933-0.133,3.3,0.15,4.1,0.85c0.6,0.5,0.45,1.017-0.45,1.55
			c-1.467,0.9-2.3,1.467-2.5,1.7c-0.867,1.133-0.583,2.033,0.85,2.7c1.133,0.567,2.383,0.833,3.75,0.8
			c0.833-0.067,2.467-0.184,4.9-0.35c2.1,0.1,3.3,0.867,3.6,2.3c0.267,1.333-0.35,2.733-1.85,4.2c-1.867,1.467-3.133,2.483-3.8,3.05
			c-2,1.8-3.317,3.233-3.95,4.3c-0.967,1.667-1.033,3.3-0.2,4.9c0.934,1.733,2.8,2.967,5.6,3.7C20.683-1.917,22.967-1.567,27-1
			c1,0.1,3,0.4,6,0.9c2.6,0.267,4.233-0.083,4.9-1.05c0.7-1-0.033-1.684-2.2-2.05c-2.534-0.267-4.05-0.517-4.55-0.75
			c-2.033-1.033-1.883-1.883,0.45-2.55c1.933-0.567,3.717-0.8,5.35-0.7c1.5,0.067,3.716,0.217,6.65,0.45
			c2.566,0.133,4.767,0,6.6-0.4c1.867-0.4,3.183-1.2,3.95-2.4c0.867-1.367,0.45-2.684-1.25-3.95
			C52.067-14.133,50.25-14.483,47.45-14.55z"/>
	</g>
</symbol>
<g>
	
		<use xlink:href="#flash2.ai_x2F_Layer_1_x2F__x3C_Path_x3E__x5F_3"  width="54.599" height="72.636" x="-0.01" y="-72.65" transform="matrix(1 0 0 -1 7.3501 9.9502)" style="overflow:visible;opacity:0.2891;enable-background:new    ;"/>
	
		<use xlink:href="#flash2.ai_x2F_Layer_1_x2F__x3C_Path_x3E__x5F_2"  width="8.19" height="2.884" x="0.02" y="-2.88" transform="matrix(1 0 0 -1 49.0996 11.7998)" style="overflow:visible;opacity:0.2891;enable-background:new    ;"/>
	
		<use xlink:href="#flash2.ai_x2F_Layer_1_x2F__x3C_Path_x3E__x5F_1"  width="12.463" height="5.519" x="0.016" y="-5.5" transform="matrix(1 0 0 -1 57.4004 0)" style="overflow:visible;opacity:0.2891;enable-background:new    ;"/>
	
		<use xlink:href="#flash2.ai_x2F_Layer_1_x2F__x3C_Path_x3E_"  width="7.43" height="2.697" x="-0.045" y="-2.68" transform="matrix(1 0 0 -1 0.0498 37.2002)" style="overflow:visible;opacity:0.2891;enable-background:new    ;"/>
</g>
</svg>
