<?xml version="1.0" encoding="iso-8859-1"?>
<!-- Generator: Adobe Illustrator 15.1.0, SVG Export Plug-In . SVG Version: 6.00 Build 0)  -->
<!DOCTYPE svg PUBLIC "-//W3C//DTD SVG 1.1//EN" "http://www.w3.org/Graphics/SVG/1.1/DTD/svg11.dtd">
<svg version="1.1" id="Layer_1" xmlns="http://www.w3.org/2000/svg" xmlns:xlink="http://www.w3.org/1999/xlink" x="0px" y="0px"
	 width="61.6px" height="54.25px" viewBox="0 0 61.6 54.25" style="enable-background:new 0 0 61.6 54.25;" xml:space="preserve">
<symbol  id="flash2.ai_x2F_Layer_1_x2F__x3C_Path_x3E_" viewBox="0 -4.1 5.75 4.108">
	<g id="Layer_1_9_">
		
			<linearGradient id="SVGID_1_" gradientUnits="userSpaceOnUse" x1="18676.4492" y1="-3410.124" x2="18679.4961" y2="-3410.124" gradientTransform="matrix(-0.3529 0.9357 -0.9357 -0.3529 3403.8774 -18682.0508)">
			<stop  offset="0" style="stop-color:#87D6D4"/>
			<stop  offset="1" style="stop-color:#87D6D4;stop-opacity:0"/>
		</linearGradient>
		<path style="fill-rule:evenodd;clip-rule:evenodd;fill:url(#SVGID_1_);" d="M0-4.1c0.5,0.8,1.067,1.567,1.7,2.3
			c1.267,1.5,2.25,2.066,2.95,1.7c0.733-0.367,1.1-1.15,1.1-2.35c0-0.6-0.067-1.15-0.2-1.65H0z"/>
	</g>
</symbol>
<symbol  id="flash2.ai_x2F_Layer_1_x2F__x3C_Path_x3E__x5F_1" viewBox="-0.002 -10.75 6.152 10.75">
	<g id="Layer_1_8_">
		
			<linearGradient id="SVGID_2_" gradientUnits="userSpaceOnUse" x1="18661.043" y1="-3384.8232" x2="18669.4531" y2="-3384.8232" gradientTransform="matrix(-0.3508 0.9365 -0.9365 -0.3508 3380.0225 -18671.2266)">
			<stop  offset="0" style="stop-color:#87D6D4"/>
			<stop  offset="1" style="stop-color:#87D6D4;stop-opacity:0"/>
		</linearGradient>
		<path style="fill-rule:evenodd;clip-rule:evenodd;fill:url(#SVGID_2_);" d="M0.6,0c1.267-2.067,3.117-5.65,5.55-10.75
			c-0.7,0.333-1.45,0.8-2.25,1.4C2.3-8.183,1.2-7.033,0.6-5.9c-0.567,1.167-0.733,2.5-0.5,4C0.2-1.167,0.367-0.533,0.6,0z"/>
	</g>
</symbol>
<symbol  id="flash2.ai_x2F_Layer_1_x2F__x3C_Path_x3E__x5F_2" viewBox="0 -13.65 7.084 13.65">
	<g id="Layer_1_7_">
		
			<linearGradient id="SVGID_3_" gradientUnits="userSpaceOnUse" x1="18660.1797" y1="-3384.4038" x2="18668.1621" y2="-3384.4038" gradientTransform="matrix(-0.3508 0.9365 -0.9365 -0.3508 3379.8262 -18671.1387)">
			<stop  offset="0" style="stop-color:#87D6D4"/>
			<stop  offset="1" style="stop-color:#87D6D4;stop-opacity:0"/>
		</linearGradient>
		<path style="fill-rule:evenodd;clip-rule:evenodd;fill:url(#SVGID_3_);" d="M4.15,0C4.783-0.767,5.367-1.617,5.9-2.55
			c1.1-1.934,1.434-3.434,1-4.5c-0.433-1.1-1.717-2.534-3.85-4.3c-1.066-0.867-2.083-1.633-3.05-2.3L4.15,0z"/>
	</g>
</symbol>
<symbol  id="flash2.ai_x2F_Layer_1_x2F__x3C_Path_x3E__x5F_3" viewBox="0 -18 17.8 18.011">
	<g id="Layer_1_6_">
		
			<linearGradient id="SVGID_4_" gradientUnits="userSpaceOnUse" x1="18652.0469" y1="-3387.6553" x2="18662.457" y2="-3387.6553" gradientTransform="matrix(-0.3506 0.9365 -0.9365 -0.3506 3377.7725 -18670.2031)">
			<stop  offset="0" style="stop-color:#87D6D4"/>
			<stop  offset="1" style="stop-color:#87D6D4;stop-opacity:0"/>
		</linearGradient>
		<path style="fill-rule:evenodd;clip-rule:evenodd;fill:url(#SVGID_4_);" d="M0-17C5.3-9.933,8.983-5.533,11.05-3.8
			c1.633,1.333,3.15,2.383,4.55,3.15c1.467,0.767,2.2,0.867,2.2,0.3c0-0.8-2.183-6.683-6.55-17.65C4.883-18,1.133-17.667,0-17z"/>
	</g>
</symbol>
<symbol  id="flash2.ai_x2F_Layer_1_x2F__x3C_Path_x3E__x5F_4" viewBox="-0.032 -12.289 9.279 12.291">
	<g id="Layer_1_5_">
		
			<linearGradient id="SVGID_5_" gradientUnits="userSpaceOnUse" x1="18641.707" y1="-3375.521" x2="18670.7148" y2="-3375.521" gradientTransform="matrix(-0.3499 0.9368 -0.9368 -0.3499 3369.9023 -18666.6152)">
			<stop  offset="0" style="stop-color:#87D6D4"/>
			<stop  offset="1" style="stop-color:#87D6D4;stop-opacity:0"/>
		</linearGradient>
		<path style="fill-rule:evenodd;clip-rule:evenodd;fill:url(#SVGID_5_);" d="M4.95,0C5.717-0.1,6.733-1.8,8-5.1
			c1.3-3.333,1.583-5.267,0.85-5.8c-1.633-1.267-3.633-1.667-6-1.2C0.517-11.6-0.4-10.683,0.1-9.35c1.3,3.2,2.083,5.1,2.35,5.7
			C3.583-1.15,4.417,0.067,4.95,0z"/>
	</g>
</symbol>
<symbol  id="flash2.ai_x2F_Layer_1_x2F__x3C_Path_x3E__x5F_5" viewBox="0 -18.35 12.511 18.35">
	<g id="Layer_1_4_">
		
			<linearGradient id="SVGID_6_" gradientUnits="userSpaceOnUse" x1="18655.0938" y1="-3387.6421" x2="18665.6387" y2="-3387.6421" gradientTransform="matrix(-0.3509 0.9364 -0.9364 -0.3509 3380.7627 -18671.5645)">
			<stop  offset="0" style="stop-color:#87D6D4"/>
			<stop  offset="1" style="stop-color:#87D6D4;stop-opacity:0"/>
		</linearGradient>
		<path style="fill-rule:evenodd;clip-rule:evenodd;fill:url(#SVGID_6_);" d="M11.8,0c0.534-2.833,0.767-5.717,0.7-8.65
			c-0.1-2.934-0.683-5.533-1.75-7.8l-4.3-1.2L0-18.35c1.333,4.267,2.617,7.617,3.85,10.05c1.233,2.466,2.933,4.583,5.1,6.35
			C10.017-1.05,10.967-0.4,11.8,0z"/>
	</g>
</symbol>
<symbol  id="flash2.ai_x2F_Layer_1_x2F__x3C_Path_x3E__x5F_6" viewBox="0.037 -23 5.608 23">
	<g id="Layer_1_3_">
		
			<linearGradient id="SVGID_7_" gradientUnits="userSpaceOnUse" x1="18648.1973" y1="-3376.2188" x2="18663.1953" y2="-3376.2188" gradientTransform="matrix(-0.35 0.9367 -0.9367 -0.35 3371.3818 -18667.2891)">
			<stop  offset="0" style="stop-color:#87D6D4"/>
			<stop  offset="1" style="stop-color:#87D6D4;stop-opacity:0"/>
		</linearGradient>
		<path style="fill-rule:evenodd;clip-rule:evenodd;fill:url(#SVGID_7_);" d="M5.6,0c0.1-1.367,0.033-3.617-0.2-6.75
			C5.167-9.85,5.05-15.267,5.05-23c-0.767,0.933-1.55,2.083-2.35,3.45c-1.633,2.733-2.517,5.216-2.65,7.45S0.8-7.183,2.7-4.05
			C3.667-2.483,4.633-1.133,5.6,0z"/>
	</g>
</symbol>
<symbol  id="flash2.ai_x2F_Layer_1_x2F__x3C_Path_x3E__x5F_7" viewBox="0 -23.35 15.3 23.35">
	<g id="Layer_1_2_">
		
			<linearGradient id="SVGID_8_" gradientUnits="userSpaceOnUse" x1="18648.9414" y1="-3381.0879" x2="18661.0059" y2="-3381.0879" gradientTransform="matrix(-0.3502 0.9367 -0.9367 -0.3502 3373.4863 -18668.25)">
			<stop  offset="0" style="stop-color:#87D6D4"/>
			<stop  offset="1" style="stop-color:#87D6D4;stop-opacity:0"/>
		</linearGradient>
		<path style="fill-rule:evenodd;clip-rule:evenodd;fill:url(#SVGID_8_);" d="M0-23.35c3.433,6.1,5.9,10.25,7.4,12.45
			C8.9-8.7,11.5-5.067,15.2,0c0.133-0.8,0.133-1.983,0-3.55c-0.267-3.133-1.017-6.567-2.25-10.3c-1.233-3.767-3.767-6.483-7.6-8.15
			C3.45-22.833,1.667-23.283,0-23.35z"/>
	</g>
</symbol>
<g>
	
		<linearGradient id="SVGID_9_" gradientUnits="userSpaceOnUse" x1="-60.8398" y1="-1.7856" x2="-15.717" y2="-1.7856" gradientTransform="matrix(-0.2039 -0.979 0.979 -0.2039 8.758903e-005 -2.899766e-004)">
		<stop  offset="0" style="stop-color:#004274"/>
		<stop  offset="0.1098" style="stop-color:#01385A"/>
		<stop  offset="0.251" style="stop-color:#022D3F"/>
		<stop  offset="0.3765" style="stop-color:#03262F"/>
		<stop  offset="0.4745" style="stop-color:#032429"/>
		<stop  offset="1" style="stop-color:#001C21"/>
	</linearGradient>
	<path style="fill-rule:evenodd;clip-rule:evenodd;fill:url(#SVGID_9_);" d="M7.6,28.7c0.667-0.967,2.583,2.267,5.75,9.7
		C16.45,45.767,18,50.384,18,52.25c-0.9,0.9-3.65,1.25-8.25,1.05C6.483,53.134,3.233,52.783,0,52.25L7.6,28.7z"/>
	
		<linearGradient id="SVGID_10_" gradientUnits="userSpaceOnUse" x1="-74.2402" y1="35.6387" x2="15.0836" y2="35.6387" gradientTransform="matrix(-0.2038 -0.979 0.979 -0.2038 1.794100e-005 -9.067059e-004)">
		<stop  offset="0" style="stop-color:#004274"/>
		<stop  offset="0.1098" style="stop-color:#01385A"/>
		<stop  offset="0.251" style="stop-color:#022D3F"/>
		<stop  offset="0.3765" style="stop-color:#03262F"/>
		<stop  offset="0.4745" style="stop-color:#032429"/>
		<stop  offset="1" style="stop-color:#001C21"/>
	</linearGradient>
	<path style="fill-rule:evenodd;clip-rule:evenodd;fill:url(#SVGID_10_);" d="M54.25,5.55c2.2-2.4,3.85-3.917,4.95-4.55l1.7-1
		c-0.334,3-0.584,6.667-0.75,11c-0.367,8.633-0.117,16.267,0.75,22.9c0.866,6.633,0.899,11.633,0.1,15
		c-0.4,1.666-0.884,2.666-1.45,3c-6.366,2.033-14.383,2.75-24.05,2.149c-4.866-0.267-9.083-0.75-12.65-1.45l16.6-26.649
		C44.917,17.15,49.85,10.35,54.25,5.55z"/>
	
		<use xlink:href="#flash2.ai_x2F_Layer_1_x2F__x3C_Path_x3E__x5F_7"  width="15.3" height="23.35" y="-23.35" transform="matrix(1 0 0 -1 36.7002 9)" style="overflow:visible;opacity:0.3008;enable-background:new    ;"/>
	
		<use xlink:href="#flash2.ai_x2F_Layer_1_x2F__x3C_Path_x3E__x5F_6"  width="5.608" height="23" x="0.037" y="-23" transform="matrix(1 0 0 -1 54.2998 1.8999)" style="overflow:visible;opacity:0.3008;enable-background:new    ;"/>
	
		<use xlink:href="#flash2.ai_x2F_Layer_1_x2F__x3C_Path_x3E__x5F_5"  width="12.511" height="18.35" y="-18.35" transform="matrix(1 0 0 -1 48.5996 35.2998)" style="overflow:visible;opacity:0.3008;enable-background:new    ;"/>
	
		<use xlink:href="#flash2.ai_x2F_Layer_1_x2F__x3C_Path_x3E__x5F_4"  width="9.279" height="12.291" x="-0.032" y="-12.289" transform="matrix(1 0 0 -1 48.8496 20.3999)" style="overflow:visible;opacity:0.3008;enable-background:new    ;"/>
	
		<use xlink:href="#flash2.ai_x2F_Layer_1_x2F__x3C_Path_x3E__x5F_3"  width="17.8" height="18.011" y="-18" transform="matrix(1 0 0 -1 23.2002 35.7998)" style="overflow:visible;opacity:0.3008;enable-background:new    ;"/>
	
		<use xlink:href="#flash2.ai_x2F_Layer_1_x2F__x3C_Path_x3E__x5F_2"  width="7.084" height="13.65" y="-13.65" transform="matrix(1 0 0 -1 2.25 34.7998)" style="overflow:visible;opacity:0.3008;enable-background:new    ;"/>
	
		<use xlink:href="#flash2.ai_x2F_Layer_1_x2F__x3C_Path_x3E__x5F_1"  width="6.152" height="10.75" x="-0.002" y="-10.75" transform="matrix(1 0 0 -1 7.7002 30.0996)" style="overflow:visible;opacity:0.3008;enable-background:new    ;"/>
	
		<use xlink:href="#flash2.ai_x2F_Layer_1_x2F__x3C_Path_x3E_"  width="5.75" height="4.108" y="-4.1" transform="matrix(1 0 0 -1 8.2998 48.5)" style="overflow:visible;opacity:0.3008;enable-background:new    ;"/>
</g>
</svg>
