<?xml version="1.0" encoding="iso-8859-1"?>
<!-- Generator: Adobe Illustrator 15.1.0, SVG Export Plug-In . SVG Version: 6.00 Build 0)  -->
<!DOCTYPE svg PUBLIC "-//W3C//DTD SVG 1.1//EN" "http://www.w3.org/Graphics/SVG/1.1/DTD/svg11.dtd">
<svg version="1.1" id="Layer_1" xmlns="http://www.w3.org/2000/svg" xmlns:xlink="http://www.w3.org/1999/xlink" x="0px" y="0px"
	 width="19.75px" height="39.95px" viewBox="0 0 19.75 39.95" style="enable-background:new 0 0 19.75 39.95;" xml:space="preserve"
	>
<g>
	<linearGradient id="SVGID_1_" gradientUnits="userSpaceOnUse" x1="9.875" y1="4.375" x2="9.875" y2="29.025">
		<stop  offset="0" style="stop-color:#292C40"/>
		<stop  offset="0.2824" style="stop-color:#323668"/>
		<stop  offset="1" style="stop-color:#474FCE"/>
	</linearGradient>
	<path style="fill-rule:evenodd;clip-rule:evenodd;fill:url(#SVGID_1_);" d="M15.15,2.7c0.6,1.033,2.133,1.55,4.6,1.55
		c-0.167,0.7-0.333,1.533-0.5,2.5c-0.3,1.767-0.816,2.917-1.55,3.45c-0.834,0.566-1.566,1.75-2.2,3.55
		c-0.3,0.967-0.684,2.567-1.15,4.8c-0.267,1.2-0.483,2.9-0.649,5.101c-0.233,2.1-0.467,3.616-0.7,4.55c-0.167,0.666-0.5,3.033-1,7.1
		c-0.4,3.434-0.733,4.967-1,4.601c-0.267-0.334-0.6-3.067-1-8.2c-0.2-4.066-0.417-7.566-0.65-10.5L8.95,17.25
		c-0.167,0.433-0.417,0.767-0.75,1c-0.733,0.6-1.233,1.483-1.5,2.65c-0.067,0.199-0.233,1.316-0.5,3.35C6,25.483,5.6,27.217,5,29.45
		L4.5,30.8c-0.233,0.634-0.367,1.084-0.4,1.351L3.85,33.4c-0.1,0.433-0.233,0.833-0.4,1.199c-0.1-0.399-0.133-1.25-0.1-2.55
		l-0.1-6.399c-0.1-1.4-0.35-2.417-0.75-3.051c-0.433-0.767-0.65-1.733-0.65-2.899l-0.8-3.6c0.067-0.2,0.117-0.4,0.15-0.6
		c0.033-0.233,0.05-1.217,0.05-2.95c0-1.7-0.1-2.867-0.3-3.5C0.617,7.85,0.3,6.117,0,3.85c1.033,0.066,1.933-0.2,2.7-0.8
		C3.467,2.417,3.9,2.1,4,2.1c0.233,0,0.733,0.117,1.5,0.35c0.8,0.2,1.3,0.3,1.5,0.3c1.033,0,2.017-0.4,2.95-1.2
		c1.033-0.933,1.8-1.45,2.3-1.55h1.65C14.434,0.5,14.85,1.4,15.15,2.7z"/>
</g>
</svg>
