<?xml version="1.0" encoding="iso-8859-1"?>
<!-- Generator: Adobe Illustrator 15.1.0, SVG Export Plug-In . SVG Version: 6.00 Build 0)  -->
<!DOCTYPE svg PUBLIC "-//W3C//DTD SVG 1.1//EN" "http://www.w3.org/Graphics/SVG/1.1/DTD/svg11.dtd">
<svg version="1.1" xmlns="http://www.w3.org/2000/svg" xmlns:xlink="http://www.w3.org/1999/xlink" x="0px" y="0px"
	 width="1057.45px" height="272.2px" viewBox="0 0 1057.45 272.2" style="enable-background:new 0 0 1057.45 272.2;"
	 xml:space="preserve">
<symbol  id="FlashAICB_x5F_0_x2F_Layer_1_x2F__x3C_Path_x3E_" viewBox="0 -20.3 260.35 20.292">
	<g id="Layer_1_6_">
		<path style="fill-rule:evenodd;clip-rule:evenodd;fill:#04295B;" d="M163.8-4c-21.3-0.233-41.667-0.983-61.1-2.25
			c-21.3-1.4-39.367-3.3-54.2-5.7C27.8-15.283,11.633-18.067,0-20.3c6.167,2.7,18.517,5.917,37.05,9.65
			C64.717-5.083,93.567-1.767,123.6-0.7c29.467,1.067,61.1,0.9,94.9-0.5c16.9-0.7,30.85-1.5,41.85-2.4
			C222.783-3.6,190.6-3.733,163.8-4z"/>
	</g>
</symbol>
<symbol  id="FlashAICB_x5F_0_x2F_Layer_1_x2F__x3C_Path_x3E__x5F_1" viewBox="0 -13.6 287.85 13.64">
	<g id="Layer_1_5_">
		<path style="fill-rule:evenodd;clip-rule:evenodd;fill:#04295B;" d="M249.2-2.55C222.1-2.817,205.267-3.3,198.7-4
			c-4.767-0.5-15.383-0.5-31.85,0c-18.967,0.6-35.283,0.6-48.95,0c-31.667-1.4-60.816-3.417-87.45-6.05
			C17.15-11.383,7-12.567,0-13.6c4.433,1.767,17.1,3.95,38,6.55c23.833,2.933,46.983,4.783,69.45,5.55
			c17.667,0.6,37.133,0.783,58.4,0.55c19.467-0.167,33.05-0.066,40.75,0.3c13.6,0.667,28.717,0.85,45.35,0.55
			c17.667-0.3,29.633-1.05,35.9-2.25C275.617-2.35,262.733-2.417,249.2-2.55z"/>
	</g>
</symbol>
<symbol  id="FlashAICB_x5F_0_x2F_Layer_1_x2F__x3C_Path_x3E__x5F_2" viewBox="0 -12.405 175.6 12.331">
	<g id="Layer_1_4_">
		<path style="fill-rule:evenodd;clip-rule:evenodd;fill:#04295B;" d="M166.4-10.7c-3.233,1.967-7.217,3.333-11.95,4.1
			c-7.5,1.267-18.8,1.717-33.9,1.35c-2.133-0.067-15.5-0.7-40.1-1.9C68.683-7.717,58.9-7.5,51.1-6.5C38-4.833,20.967-2.75,0-0.25
			c3.167,0.4,11.033,0.117,23.6-0.85c16.233-1.233,29.767-1.933,40.6-2.1c4.966-0.066,14.966,0.15,30,0.65
			c15.233,0.5,26.9,0.7,35,0.6c27.833-0.233,43.3-3.566,46.4-10c-0.733-0.267-1.667-0.417-2.8-0.45
			C170.533-12.467,168.4-11.9,166.4-10.7z"/>
	</g>
</symbol>
<symbol  id="FlashAICB_x5F_0_x2F_Layer_1_x2F__x3C_Path_x3E__x5F_3" viewBox="0 -13.956 358.977 13.953">
	<g id="Layer_1_3_">
		<path style="fill-rule:evenodd;clip-rule:evenodd;fill:#04295B;" d="M339.85-9.25c-4.467,0.6-13.617,0.767-27.45,0.5
			c-13.467-0.3-25.566-0.883-36.3-1.75c-21.167-1.667-34.65-2.583-40.45-2.75c-19.7-0.533-39.283,0.533-58.75,3.2
			c-24.2,3.333-46.566,5.433-67.1,6.3C87.2-2.817,69.967-3.533,58.1-5.9c-17.9-3.6-27.35-5.5-28.35-5.7
			c-6.867-1.3-11.833-2.033-14.9-2.2C10.217-14.1,5.267-13.967,0-13.4c4.2,2,15.717,4.65,34.55,7.95
			c22.767,3.967,42.117,5.767,58.05,5.4c13.767-0.333,33.933-1.717,60.5-4.15c31.133-2.833,51.3-4.517,60.5-5.05
			c11.167-0.633,34.833,0.117,71,2.25c32.767,1.933,53.8,2.167,63.1,0.7c10.933-1.767,13.917-3.417,8.95-4.95
			c-1.533-0.467-3.783-0.9-6.75-1.3L345.95-13c0.5,0.4,0.633,0.867,0.4,1.4C345.817-10.567,343.65-9.783,339.85-9.25z"/>
	</g>
</symbol>
<symbol  id="FlashAICB_x5F_0_x2F_Layer_1_x2F__x3C_Path_x3E__x5F_7" viewBox="0 -34.25 514.8 34.234">
	<g id="Layer_1_2_">
		<path style="fill-rule:evenodd;clip-rule:evenodd;fill:#04295B;" d="M489.8-24.2c-28.733,4.233-43.15,6.35-43.25,6.35
			c-21,2.733-35.566,3.617-43.7,2.65c-3.3-0.367-8.517-1.283-15.65-2.75c-8.067-1.667-14.267-2.833-18.6-3.5
			c-16.767-2.5-33.3-2.5-49.6,0c-5.9,0.9-16.833,3-32.8,6.3c-15.767,3.267-28.517,5.633-38.25,7.1
			c-32.833,4.966-62.483,5.133-88.95,0.5c-21.067-3.667-39.617-7.667-55.65-12c-10.8-2.934-21.767-4.867-32.9-5.8
			c-13.833-1.133-29.717-2.967-47.65-5.5c-9-1.233-16.6-2.367-22.8-3.4c4.967,3.067,16.9,6.5,35.8,10.3
			c18.934,3.8,38.45,6.684,58.55,8.65c12.633,1.2,27.117,3.667,43.45,7.4c15.434,3.533,30.65,5.883,45.65,7.05
			c19,1.467,41.35,1,67.05-1.4c15.567-1.433,36.317-4.117,62.25-8.05c20.167-3.067,32.783-4.717,37.85-4.95
			c8.133-0.4,21.483,0.45,40.05,2.55c16.5,1.867,42.15,0.217,76.95-4.95c17.367-2.567,33.1-5.317,47.2-8.25
			c-1.066-0.2-2.9-0.267-5.5-0.2C504.067-26,497.567-25.367,489.8-24.2z"/>
	</g>
</symbol>
<g id="Layer_1">
</g>
<g id="Layer_1_1_">
	<g>
		<g>
			
				<radialGradient id="SVGID_1_" cx="528.7305" cy="136.0986" r="387.2137" gradientTransform="matrix(1 0 0 -0.9552 0 266.1032)" gradientUnits="userSpaceOnUse">
				<stop  offset="0" style="stop-color:#0A1F3C"/>
				<stop  offset="0.8902" style="stop-color:#142E45"/>
				<stop  offset="1" style="stop-color:#153146"/>
			</radialGradient>
			<path style="fill-rule:evenodd;clip-rule:evenodd;fill:url(#SVGID_1_);" d="M472,18.2c9.367-3.6,19.583-6.633,30.65-9.1
				c31.4-7,71.3-9.967,119.7-8.9c37.567,0.867,74.367,1.3,110.4,1.3c28.333,0,53.566,0.417,75.7,1.25
				c35.066,1.333,65.717,4.917,91.95,10.75c28.267,6.267,44.5,13.8,48.699,22.6l12.601-0.25c10.166,0.033,19.684,0.633,28.55,1.8
				c28.4,3.767,44.967,12.434,49.7,26c3.133,8.934,5.2,19.817,6.2,32.65c0.566,7.333,1.199,18.4,1.899,33.2
				c0.434,5.667,2.333,16.667,5.7,33c2.8,13.634,4.017,24.65,3.65,33.05c-0.467,12.033-8.25,20.283-23.351,24.75
				c-4.7,1.4-11.3,2.717-19.8,3.95c-9.467,1.366-15.467,2.35-18,2.95c-1.134,0.267-7.533,1.684-19.2,4.25
				c-7.733,1.733-14.083,3.283-19.05,4.649c-29.667,8.334-63.2,13.334-100.6,15c-5.733,0.267-13.15,0.317-22.25,0.15
				c-13.4-0.267-20.95-0.4-22.65-0.4c-18.134-0.033-32.9,1.567-44.3,4.801c-16.134,4.6-27.417,7.633-33.851,9.1
				c-12.133,2.733-23.783,4.417-34.949,5.05c-31.4,1.7-67.184,2.5-107.351,2.4c-20.233-0.033-42.517-0.384-66.85-1.05
				c-62.2-1.801-128.167-5.634-197.9-11.5c-20.267-1.301-35.533-2.334-45.8-3.101c-18.3-1.333-33.45-3.233-45.45-5.7
				c-8-1.8-13.95-3.133-17.85-4c-6.934-1.5-13.017-2.55-18.25-3.149c-8.633-0.967-16.133-2.334-22.5-4.101
				c-7.967-2.233-14.883-5.25-20.75-9.05c-2.133-1.399-5.5-3.783-10.1-7.149c-4.3-3.167-7.684-5.517-10.15-7.051
				c-4.567-2.8-9.017-4.916-13.35-6.35c-4.367-1.4-9.25-2.333-14.65-2.8c-9.6-0.8-21.184-2.084-34.75-3.851
				c-15.4-2.066-26.934-3.6-34.6-4.6c-10-1.267-17.733-3.25-23.2-5.95c-7.967-3.899-12.566-9.684-13.8-17.35
				c-2.267-14.101-2.7-35.033-1.3-62.8c1.133-23.066,2.434-37.733,3.9-44c2.167-9.4,8.45-17.167,18.85-23.3
				c20-11.8,54.2-18.783,102.6-20.95c66.9-2.933,118.184-4.7,153.85-5.3c47.567-0.767,80.733,0.167,99.5,2.8
				c7.067,1,15.85,2.434,26.35,4.3c9.3,1.633,15.733,2.683,19.3,3.15c11.3,1.367,20.833,0.283,28.6-3.25
				C462.383,22.167,468.467,19.533,472,18.2z"/>
			<g>
				
					<radialGradient id="SVGID_2_" cx="499.6001" cy="157.5498" r="523.875" gradientTransform="matrix(1 0 0 -0.2625 0 198.9052)" gradientUnits="userSpaceOnUse">
					<stop  offset="0" style="stop-color:#6171B7"/>
					<stop  offset="0" style="stop-color:#18B4BC"/>
					<stop  offset="0.2275" style="stop-color:#108798"/>
					<stop  offset="0.4549" style="stop-color:#0A6279"/>
					<stop  offset="0.6667" style="stop-color:#064763"/>
					<stop  offset="0.8549" style="stop-color:#043756"/>
					<stop  offset="1" style="stop-color:#033151"/>
				</radialGradient>
				<path style="fill-rule:evenodd;clip-rule:evenodd;fill:url(#SVGID_2_);" d="M822.85,84.95c5.667,0.966,10.551,2.25,14.65,3.85
					c5.467,2.133,8.033,4.517,7.7,7.15c-0.3,2.133-2.45,4.25-6.45,6.35l-0.4-0.15c-4.1-1.6-8.983-2.867-14.649-3.8
					c-3.4-0.6-8.434-1.233-15.101-1.9c-8.5-0.867-22.649-3.017-42.449-6.45c-18.167-3.1-32.384-5.05-42.65-5.85
					c-5.5-0.433-15.983-2.183-31.45-5.25c-13.166-2.6-23.816-3.8-31.95-3.6c-9.5,0.2-18.8,0.767-27.899,1.7
					c-7.334,0.867-12.834,1.483-16.5,1.85c-15.434,1.566-31.834,1.35-49.2-0.65c-14.333-1.633-30.45-4.65-48.35-9.05
					c-22.066-5.367-50.033-7.583-83.9-6.65c-7.033,0.2-14.8,1.05-23.3,2.55c-5.7,1-13.333,2.617-22.9,4.85
					c-5.466,1.267-10.6,2.633-15.4,4.1c-3.633,1.1-7.233,2.3-10.8,3.6c-6.8,2.533-15.583,4.417-26.35,5.65
					c-15.9,1.8-24.85,2.883-26.85,3.25c-8.533,1.567-18.333,2.983-29.4,4.25c-5.533,0.633-15.417,1.633-29.65,3
					c-21.133,2-42.117,6.05-62.95,12.15c-9.6,2.833-16.483,5.7-20.65,8.6c-1.467-0.8-2.65-1.667-3.55-2.6
					c-6.2-6.5,1.583-12.95,23.35-19.35c20.6-6.066,41.567-10.117,62.9-12.15c14.3-1.367,24.2-2.367,29.7-3
					c11.067-1.267,20.85-2.683,29.35-4.25c2.233-0.4,11.183-1.5,26.85-3.3c10.8-1.233,19.583-3.1,26.35-5.6
					c3.6-1.3,7.2-2.5,10.8-3.6c4.567-1.4,9.717-2.783,15.45-4.15c9.667-2.233,17.3-3.833,22.9-4.8c8.5-1.5,16.25-2.35,23.25-2.55
					c33.9-0.933,61.867,1.283,83.9,6.65c17.934,4.4,34.05,7.417,48.35,9.05c17.367,2,33.784,2.217,49.25,0.65
					c3.667-0.367,9.167-0.983,16.5-1.85c9.101-0.933,18.4-1.5,27.9-1.7c8.134-0.2,18.767,1,31.9,3.6
					c15.466,3.067,25.949,4.817,31.449,5.25c10.301,0.8,24.534,2.75,42.7,5.85c19.8,3.434,33.95,5.583,42.45,6.45
					C814.517,83.8,819.55,84.417,822.85,84.95z"/>
				
					<radialGradient id="SVGID_3_" cx="499.6001" cy="157.5498" r="523.8749" gradientTransform="matrix(1 0 0 -0.2625 0 198.9052)" gradientUnits="userSpaceOnUse">
					<stop  offset="0" style="stop-color:#6171B7"/>
					<stop  offset="0" style="stop-color:#18B4BC"/>
					<stop  offset="0.1294" style="stop-color:#149EAB"/>
					<stop  offset="0.3882" style="stop-color:#0E798E"/>
					<stop  offset="0.6275" style="stop-color:#095E79"/>
					<stop  offset="0.8392" style="stop-color:#074E6D"/>
					<stop  offset="1" style="stop-color:#064868"/>
				</radialGradient>
				<path style="fill-rule:evenodd;clip-rule:evenodd;fill:url(#SVGID_3_);" d="M838.35,102.15l0.4,0.15
					c-3.767,2-7.833,3.434-12.2,4.3c-5.267,1.066-14.399,2.316-27.399,3.75c-11.667,1.267-20.7,2.7-27.101,4.3
					c-7.767,1.934-17.649,3.667-29.649,5.2c-13.434,1.5-23.434,2.717-30,3.65c-15.601,2.567-27.351,4.483-35.25,5.75
					c-14.233,2.3-26.034,3.75-35.4,4.35c-18.5,1.2-33.5,2.133-45,2.8c-16.533,0.933-31.566,1.667-45.1,2.2
					c-17.034,0.601-35.084-0.183-54.15-2.35c-6.733-0.767-14.733-1.35-24-1.75c-10.7-0.367-18.717-0.65-24.05-0.85
					c-11.667-0.2-20.45-0.35-26.35-0.45c-10.633-0.2-19.383-0.75-26.25-1.65c-13.9-1.767-29.45-2.85-46.65-3.25
					c-12.2-0.267-27.867-0.2-47,0.2c-40.167,0.767-77.15-1.85-110.95-7.85c-5.333-0.733-9.617-1.4-12.85-2
					c-5.9-1.1-10.367-2.483-13.4-4.15c4.167-2.9,11.05-5.767,20.65-8.6c20.833-6.1,41.817-10.15,62.95-12.15
					c14.233-1.367,24.117-2.367,29.65-3c11.067-1.267,20.867-2.683,29.4-4.25c2-0.367,10.95-1.45,26.85-3.25
					c10.767-1.233,19.55-3.117,26.35-5.65c3.566-1.3,7.167-2.5,10.8-3.6c4.8-1.467,9.934-2.833,15.4-4.1
					c9.567-2.233,17.2-3.85,22.9-4.85c8.5-1.5,16.267-2.35,23.3-2.55c33.867-0.933,61.833,1.283,83.9,6.65
					c17.9,4.4,34.017,7.417,48.35,9.05c17.366,2,33.767,2.216,49.2,0.65c3.666-0.367,9.166-0.983,16.5-1.85
					c9.1-0.933,18.399-1.5,27.899-1.7c8.134-0.2,18.784,1,31.95,3.6c15.467,3.067,25.95,4.817,31.45,5.25
					c10.267,0.8,24.483,2.75,42.65,5.85c19.8,3.433,33.949,5.583,42.449,6.45c6.667,0.667,11.7,1.3,15.101,1.9
					C829.366,99.283,834.25,100.55,838.35,102.15z"/>
				
					<radialGradient id="SVGID_4_" cx="500.4502" cy="170.9004" r="523.875" gradientTransform="matrix(1 0 0 -0.2625 0 215.7602)" gradientUnits="userSpaceOnUse">
					<stop  offset="0" style="stop-color:#6171B7"/>
					<stop  offset="0" style="stop-color:#18B4BC"/>
					<stop  offset="0.1294" style="stop-color:#149EAB"/>
					<stop  offset="0.3882" style="stop-color:#0E798E"/>
					<stop  offset="0.6275" style="stop-color:#095E79"/>
					<stop  offset="0.8392" style="stop-color:#074E6D"/>
					<stop  offset="1" style="stop-color:#064868"/>
				</radialGradient>
				<path style="fill-rule:evenodd;clip-rule:evenodd;fill:url(#SVGID_4_);" d="M838.35,102.15l0.4,0.15
					c-3.767,2-7.833,3.434-12.2,4.3c-5.267,1.066-14.399,2.316-27.399,3.75c-11.667,1.267-20.7,2.7-27.101,4.3
					c-7.767,1.934-17.649,3.667-29.649,5.2c-13.434,1.5-23.434,2.717-30,3.65c-15.601,2.567-27.351,4.483-35.25,5.75
					c-14.233,2.3-26.034,3.75-35.4,4.35c-18.5,1.2-33.5,2.133-45,2.8c-16.533,0.933-31.566,1.667-45.1,2.2
					c-17.034,0.601-35.084-0.183-54.15-2.35c-6.733-0.767-14.733-1.35-24-1.75c-10.7-0.367-18.717-0.65-24.05-0.85
					c-11.667-0.2-20.45-0.35-26.35-0.45c-10.633-0.2-19.383-0.75-26.25-1.65c-13.9-1.767-29.45-2.85-46.65-3.25
					c-12.2-0.267-27.867-0.2-47,0.2c-40.167,0.767-77.15-1.85-110.95-7.85c-5.333-0.733-9.617-1.4-12.85-2
					c-5.9-1.1-10.367-2.483-13.4-4.15c4.167-2.9,11.05-5.767,20.65-8.6c20.833-6.1,41.817-10.15,62.95-12.15
					c14.233-1.367,24.117-2.367,29.65-3c11.067-1.267,20.867-2.683,29.4-4.25c2-0.367,10.95-1.45,26.85-3.25
					c10.767-1.233,19.55-3.117,26.35-5.65c3.566-1.3,7.167-2.5,10.8-3.6c4.8-1.467,9.934-2.833,15.4-4.1
					c9.567-2.233,17.2-3.85,22.9-4.85c8.5-1.5,16.267-2.35,23.3-2.55c33.867-0.933,61.833,1.283,83.9,6.65
					c17.9,4.4,34.017,7.417,48.35,9.05c17.366,2,33.767,2.216,49.2,0.65c3.666-0.367,9.166-0.983,16.5-1.85
					c9.1-0.933,18.399-1.5,27.899-1.7c8.134-0.2,18.784,1,31.95,3.6c15.467,3.067,25.95,4.817,31.45,5.25
					c10.267,0.8,24.483,2.75,42.65,5.85c19.8,3.433,33.949,5.583,42.449,6.45c6.667,0.667,11.7,1.3,15.101,1.9
					C829.366,99.283,834.25,100.55,838.35,102.15z"/>
			</g>
			<g>
				
					<radialGradient id="SVGID_5_" cx="213.3999" cy="90.6499" r="245.15" gradientTransform="matrix(1 0 0 -0.3612 0 123.3933)" gradientUnits="userSpaceOnUse">
					<stop  offset="0" style="stop-color:#6171B7"/>
					<stop  offset="0" style="stop-color:#18B4BC"/>
					<stop  offset="0.2275" style="stop-color:#108798"/>
					<stop  offset="0.4549" style="stop-color:#0A6279"/>
					<stop  offset="0.6667" style="stop-color:#064763"/>
					<stop  offset="0.8549" style="stop-color:#043756"/>
					<stop  offset="1" style="stop-color:#033151"/>
				</radialGradient>
				<path style="fill-rule:evenodd;clip-rule:evenodd;fill:url(#SVGID_5_);" d="M408,43.2c0.967,0.6,0.633,1.017-1,1.25
					c-2.8,0.367-7.483,1.2-14.05,2.5c-6.1,1.2-11.117,2.267-15.05,3.2c-7.933-0.8-15.417-1.45-22.45-1.95
					c-32.967-2.367-60.7-3.917-83.2-4.65c-35.5-1.133-65.85-0.7-91.05,1.3c-19.133,1.4-33.4,2.483-42.8,3.25
					c-16.4,1.367-30.15,2.833-41.25,4.4c-30,4.233-53.533,11.15-70.6,20.75c-1.433,0.8-2.533,1.483-3.3,2.05
					c-9.033-3.733-8.217-8.6,2.45-14.6c17.066-9.6,40.6-16.517,70.6-20.75c11.1-1.567,24.85-3.017,41.25-4.35
					c9.4-0.767,23.65-1.85,42.75-3.25c25.2-2.033,55.567-2.467,91.1-1.3c22.233,0.733,49.967,2.284,83.2,4.65
					c20.8,1.5,36.15,3.267,46.05,5.3C404.45,41.8,406.9,42.533,408,43.2z"/>
				
					<radialGradient id="SVGID_6_" cx="213.3999" cy="90.6499" r="245.15" gradientTransform="matrix(1 0 0 -0.3612 0 123.3933)" gradientUnits="userSpaceOnUse">
					<stop  offset="0" style="stop-color:#6171B7"/>
					<stop  offset="0" style="stop-color:#18B4BC"/>
					<stop  offset="0.1294" style="stop-color:#149EAB"/>
					<stop  offset="0.3882" style="stop-color:#0E798E"/>
					<stop  offset="0.6275" style="stop-color:#095E79"/>
					<stop  offset="0.8392" style="stop-color:#074E6D"/>
					<stop  offset="1" style="stop-color:#064868"/>
				</radialGradient>
				<path style="fill-rule:evenodd;clip-rule:evenodd;fill:url(#SVGID_6_);" d="M362.6,56c-6.767,2.8-15.117,4.933-25.05,6.4
					c-6.733,1-20.9,2.467-42.5,4.4c-19.6,1.733-34.983,3.6-46.15,5.6c-1.967,0.367-14.033,2.317-36.2,5.85
					c-10.867,1.733-19.767,3.683-26.7,5.85c-0.133,0.333-2.25,0.617-6.35,0.85c-8.167,0.5-22.066,0.483-41.7-0.05
					c-31.367-0.8-52.184-1.5-62.45-2.1c-26.367-1.533-43.783-4.033-52.25-7.5c0.767-0.566,1.867-1.25,3.3-2.05
					c17.067-9.6,40.6-16.517,70.6-20.75c11.1-1.567,24.85-3.033,41.25-4.4c9.4-0.767,23.667-1.85,42.8-3.25
					c25.2-2,55.55-2.434,91.05-1.3c22.5,0.733,50.233,2.284,83.2,4.65c7.033,0.5,14.517,1.15,22.45,1.95l-0.6,0.15
					c-2.4,0.567-4.917,1.4-7.55,2.5C366.75,54.167,364.367,55.233,362.6,56z"/>
				
					<radialGradient id="SVGID_7_" cx="214.25" cy="103.1499" r="245.15" gradientTransform="matrix(1 0 0 -0.3612 0 140.4084)" gradientUnits="userSpaceOnUse">
					<stop  offset="0" style="stop-color:#6171B7"/>
					<stop  offset="0" style="stop-color:#18B4BC"/>
					<stop  offset="0.1294" style="stop-color:#149EAB"/>
					<stop  offset="0.3882" style="stop-color:#0E798E"/>
					<stop  offset="0.6275" style="stop-color:#095E79"/>
					<stop  offset="0.8392" style="stop-color:#074E6D"/>
					<stop  offset="1" style="stop-color:#064868"/>
				</radialGradient>
				<path style="fill-rule:evenodd;clip-rule:evenodd;fill:url(#SVGID_7_);" d="M362.6,56c-6.767,2.8-15.117,4.933-25.05,6.4
					c-6.733,1-20.9,2.467-42.5,4.4c-19.6,1.733-34.983,3.6-46.15,5.6c-1.967,0.367-14.033,2.317-36.2,5.85
					c-10.867,1.733-19.767,3.683-26.7,5.85c-0.133,0.333-2.25,0.617-6.35,0.85c-8.167,0.5-22.066,0.483-41.7-0.05
					c-31.367-0.8-52.184-1.5-62.45-2.1c-26.367-1.533-43.783-4.033-52.25-7.5c0.767-0.566,1.867-1.25,3.3-2.05
					c17.067-9.6,40.6-16.517,70.6-20.75c11.1-1.567,24.85-3.033,41.25-4.4c9.4-0.767,23.667-1.85,42.8-3.25
					c25.2-2,55.55-2.434,91.05-1.3c22.5,0.733,50.233,2.284,83.2,4.65c7.033,0.5,14.517,1.15,22.45,1.95l-0.6,0.15
					c-2.4,0.567-4.917,1.4-7.55,2.5C366.75,54.167,364.367,55.233,362.6,56z"/>
			</g>
			<g>
				
					<radialGradient id="SVGID_8_" cx="702.4502" cy="85" r="288.4625" gradientTransform="matrix(1 0 0 -0.3612 0 115.7042)" gradientUnits="userSpaceOnUse">
					<stop  offset="0" style="stop-color:#6171B7"/>
					<stop  offset="0" style="stop-color:#18B4BC"/>
					<stop  offset="0.2275" style="stop-color:#108798"/>
					<stop  offset="0.4549" style="stop-color:#0A6279"/>
					<stop  offset="0.6667" style="stop-color:#064763"/>
					<stop  offset="0.8549" style="stop-color:#043756"/>
					<stop  offset="1" style="stop-color:#033151"/>
				</radialGradient>
				<path style="fill-rule:evenodd;clip-rule:evenodd;fill:url(#SVGID_8_);" d="M901.35,23.8c11.9,2.367,20.217,4.617,24.95,6.75
					c5.066,2.3,5.384,4.15,0.95,5.55c-2.134,0.7-4.733,1.383-7.8,2.05c-10.233-3.066-25.167-6.033-44.8-8.9
					c-20.534-3-41.434-5.167-62.7-6.5c-32.4-2.033-74.184-3.283-125.351-3.75c-49.6-0.467-88.783-0.05-117.55,1.25
					c-15.333,0.7-32.533,2.883-51.6,6.55c-19.367,3.767-33.184,7.65-41.45,11.65c-6.9-2-8.25-4.567-4.05-7.7
					c3.767-2.767,11.433-5.7,23-8.8c10.833-2.934,23.083-5.483,36.75-7.65c13.967-2.233,26.416-3.583,37.35-4.05
					c28.9-1.3,68.084-1.717,117.55-1.25c51.267,0.467,93.051,1.717,125.351,3.75C845.35,14.85,875.15,18.533,901.35,23.8z"/>
				
					<radialGradient id="SVGID_9_" cx="700.7002" cy="62.4502" r="288.4625" gradientTransform="matrix(1 0 0 -0.3612 0 85.0088)" gradientUnits="userSpaceOnUse">
					<stop  offset="0" style="stop-color:#6171B7"/>
					<stop  offset="0" style="stop-color:#18B4BC"/>
					<stop  offset="0.1294" style="stop-color:#149EAB"/>
					<stop  offset="0.3882" style="stop-color:#0E798E"/>
					<stop  offset="0.6275" style="stop-color:#095E79"/>
					<stop  offset="0.8392" style="stop-color:#074E6D"/>
					<stop  offset="1" style="stop-color:#064868"/>
				</radialGradient>
				<path style="fill-rule:evenodd;clip-rule:evenodd;fill:url(#SVGID_9_);" d="M811.95,22.75c21.267,1.333,42.166,3.5,62.7,6.5
					c19.633,2.867,34.566,5.833,44.8,8.9c-8.566,1.8-20.2,2.7-34.9,2.7c-13.133,0.033-33.55-0.717-61.25-2.25
					c-25.333-1.4-47.533-1.333-66.6,0.2c-17.9,2.1-30.934,3.434-39.101,4c-8.166,0.567-20.483,2.434-36.949,5.6
					c-17.9,3.5-32.384,5.8-43.45,6.9c-14.7,1.5-29.283,2.3-43.75,2.4c-9.634,0.066-20.084-0.184-31.351-0.75
					c-7.666-0.367-20.183-2.483-37.55-6.35c-14.6-3.233-30.633-7.233-48.1-12L476,38.45c8.267-4,22.083-7.883,41.45-11.65
					c19.066-3.667,36.267-5.85,51.6-6.55C597.816,18.95,637,18.533,686.6,19C737.767,19.467,779.55,20.717,811.95,22.75z"/>
				
					<radialGradient id="SVGID_10_" cx="700.7002" cy="72.4502" r="288.4625" gradientTransform="matrix(1 0 0 -0.3612 0 98.621)" gradientUnits="userSpaceOnUse">
					<stop  offset="0" style="stop-color:#6171B7"/>
					<stop  offset="0" style="stop-color:#18B4BC"/>
					<stop  offset="0.1294" style="stop-color:#149EAB"/>
					<stop  offset="0.3882" style="stop-color:#0E798E"/>
					<stop  offset="0.6275" style="stop-color:#095E79"/>
					<stop  offset="0.8392" style="stop-color:#074E6D"/>
					<stop  offset="1" style="stop-color:#064868"/>
				</radialGradient>
				<path style="fill-rule:evenodd;clip-rule:evenodd;fill:url(#SVGID_10_);" d="M811.95,22.75c21.267,1.333,42.166,3.5,62.7,6.5
					c19.633,2.867,34.566,5.833,44.8,8.9c-8.566,1.8-20.2,2.7-34.9,2.7c-13.133,0.033-33.55-0.717-61.25-2.25
					c-25.333-1.4-47.533-1.333-66.6,0.2c-17.9,2.1-30.934,3.434-39.101,4c-8.166,0.567-20.483,2.434-36.949,5.6
					c-17.9,3.5-32.384,5.8-43.45,6.9c-14.7,1.5-29.283,2.3-43.75,2.4c-9.634,0.066-20.084-0.184-31.351-0.75
					c-7.666-0.367-20.183-2.483-37.55-6.35c-14.6-3.233-30.633-7.233-48.1-12L476,38.45c8.267-4,22.083-7.883,41.45-11.65
					c19.066-3.667,36.267-5.85,51.6-6.55C597.816,18.95,637,18.533,686.6,19C737.767,19.467,779.55,20.717,811.95,22.75z"/>
			</g>
			<g>
				
					<radialGradient id="SVGID_11_" cx="869.2998" cy="95.0498" r="248.375" gradientTransform="matrix(1 0 0 -0.2742 0 121.1156)" gradientUnits="userSpaceOnUse">
					<stop  offset="0" style="stop-color:#6171B7"/>
					<stop  offset="0" style="stop-color:#18B4BC"/>
					<stop  offset="0.2275" style="stop-color:#108798"/>
					<stop  offset="0.4549" style="stop-color:#0A6279"/>
					<stop  offset="0.6667" style="stop-color:#064763"/>
					<stop  offset="0.8549" style="stop-color:#043756"/>
					<stop  offset="1" style="stop-color:#033151"/>
				</radialGradient>
				<path style="fill-rule:evenodd;clip-rule:evenodd;fill:url(#SVGID_11_);" d="M1017.7,58.65c3.3,3.167,4.017,6.633,2.149,10.4
					c-3.233-3.367-8.483-5.733-15.75-7.1c-17.966-3.3-33.1-5.3-45.399-6c-15.634-0.9-29.9,0-42.8,2.7
					c-10.534,2.2-30.184,2.133-58.95-0.2c-15.667-1.367-27.3-2.317-34.9-2.85c-13.066-0.934-23.717-1.317-31.95-1.15
					c-14.8,0.333-29.716,1.267-44.75,2.8c-12.8,1.3-23.75,2.833-32.85,4.6c-6.566-1.167-12.783-2.333-18.65-3.5l-6.85-1.4l15.75-3.3
					c7.033-1.933,18.017-3.783,32.95-5.55c17.399-2.033,34.95-3.25,52.649-3.65c8.233-0.167,18.884,0.2,31.95,1.1
					c7.601,0.534,19.233,1.483,34.9,2.85c28.8,2.333,48.45,2.4,58.95,0.2c12.933-2.667,27.199-3.567,42.8-2.7
					c12.399,0.7,27.533,2.717,45.399,6.05C1009.316,53.25,1014.434,55.483,1017.7,58.65z"/>
				
					<radialGradient id="SVGID_12_" cx="869.2998" cy="95.0498" r="248.375" gradientTransform="matrix(1 0 0 -0.2742 0 121.1156)" gradientUnits="userSpaceOnUse">
					<stop  offset="0" style="stop-color:#6171B7"/>
					<stop  offset="0" style="stop-color:#18B4BC"/>
					<stop  offset="0.1294" style="stop-color:#149EAB"/>
					<stop  offset="0.3882" style="stop-color:#0E798E"/>
					<stop  offset="0.6275" style="stop-color:#095E79"/>
					<stop  offset="0.8392" style="stop-color:#074E6D"/>
					<stop  offset="1" style="stop-color:#064868"/>
				</radialGradient>
				<path style="fill-rule:evenodd;clip-rule:evenodd;fill:url(#SVGID_12_);" d="M1004.1,61.95c7.267,1.367,12.517,3.733,15.75,7.1
					c-2.666,5.4-10,10.184-22,14.35c-14.033,4.9-32.916,8.333-56.649,10.3c-37.867,3.133-63.05,5.05-75.55,5.75l-7.4,0.1
					c1.6-2.233,1.384-4.75-0.65-7.55c-4.1-5.567-15.25-9.733-33.449-12.5c-12.834-1.967-25.934-4.133-39.301-6.5
					c-9.5-1.667-20.85-3.4-34.05-5.2c-13.267-1.8-26.033-3.783-38.3-5.95c9.1-1.767,20.05-3.3,32.85-4.6
					c15.034-1.533,29.95-2.467,44.75-2.8c8.233-0.167,18.884,0.216,31.95,1.15c7.601,0.533,19.233,1.483,34.9,2.85
					c28.767,2.333,48.416,2.4,58.95,0.2c12.899-2.7,27.166-3.6,42.8-2.7C971,56.65,986.134,58.65,1004.1,61.95z"/>
				
					<radialGradient id="SVGID_13_" cx="871.0498" cy="105.0498" r="248.375" gradientTransform="matrix(1 0 0 -0.2742 0 133.8579)" gradientUnits="userSpaceOnUse">
					<stop  offset="0" style="stop-color:#6171B7"/>
					<stop  offset="0" style="stop-color:#18B4BC"/>
					<stop  offset="0.1294" style="stop-color:#149EAB"/>
					<stop  offset="0.3882" style="stop-color:#0E798E"/>
					<stop  offset="0.6275" style="stop-color:#095E79"/>
					<stop  offset="0.8392" style="stop-color:#074E6D"/>
					<stop  offset="1" style="stop-color:#064868"/>
				</radialGradient>
				<path style="fill-rule:evenodd;clip-rule:evenodd;fill:url(#SVGID_13_);" d="M1004.1,61.95c7.267,1.367,12.517,3.733,15.75,7.1
					c-2.666,5.4-10,10.184-22,14.35c-14.033,4.9-32.916,8.333-56.649,10.3c-37.867,3.133-63.05,5.05-75.55,5.75l-7.4,0.1
					c1.6-2.233,1.384-4.75-0.65-7.55c-4.1-5.567-15.25-9.733-33.449-12.5c-12.834-1.967-25.934-4.133-39.301-6.5
					c-9.5-1.667-20.85-3.4-34.05-5.2c-13.267-1.8-26.033-3.783-38.3-5.95c9.1-1.767,20.05-3.3,32.85-4.6
					c15.034-1.533,29.95-2.467,44.75-2.8c8.233-0.167,18.884,0.216,31.95,1.15c7.601,0.533,19.233,1.483,34.9,2.85
					c28.767,2.333,48.416,2.4,58.95,0.2c12.899-2.7,27.166-3.6,42.8-2.7C971,56.65,986.134,58.65,1004.1,61.95z"/>
			</g>
			
				<use xlink:href="#FlashAICB_x5F_0_x2F_Layer_1_x2F__x3C_Path_x3E__x5F_7"  width="514.8" height="34.234" y="-34.25" transform="matrix(1 0 0 -1 247.6001 90.6001)" style="overflow:visible;opacity:0.1719;enable-background:new    ;"/>
			<linearGradient id="SVGID_14_" gradientUnits="userSpaceOnUse" x1="373.0625" y1="68.0938" x2="532.9375" y2="68.0938">
				<stop  offset="0" style="stop-color:#3FA8A9"/>
				<stop  offset="0.1647" style="stop-color:#3AA1A7"/>
				<stop  offset="0.6196" style="stop-color:#2F93A2"/>
				<stop  offset="1" style="stop-color:#2C8EA1"/>
			</linearGradient>
			<path style="fill-rule:evenodd;clip-rule:evenodd;fill:url(#SVGID_14_);" d="M516.05,68.55c-9.006-1.694-19.256-3.044-30.75-4.05
				c-38.867-3.433-76.083-0.283-111.65,9.45c-6.167,1.667-4.717,1.183,4.35-1.45c5.767-1.7,12.117-3.3,19.05-4.8
				c22.534-4.9,42.8-7,60.8-6.3c17.633,0.733,34.367,2.567,50.2,5.5C510.249,67.305,512.916,67.854,516.05,68.55
				c6.228,1.169,11.861,2.502,16.9,4C526.303,70.903,520.669,69.57,516.05,68.55z"/>
			<linearGradient id="SVGID_15_" gradientUnits="userSpaceOnUse" x1="583.3877" y1="84.5034" x2="788.9127" y2="84.5034">
				<stop  offset="0" style="stop-color:#3FA8A9"/>
				<stop  offset="0.1647" style="stop-color:#3AA1A7"/>
				<stop  offset="0.6196" style="stop-color:#2F93A2"/>
				<stop  offset="1" style="stop-color:#2C8EA1"/>
			</linearGradient>
			<path style="fill-rule:evenodd;clip-rule:evenodd;fill:url(#SVGID_15_);" d="M788.9,93.7c-22.7-3.534-39.967-6.05-51.801-7.55
				c-6-0.733-16.166-2.4-30.5-5C693.2,78.75,684.634,77.367,680.9,77c-2.334-0.233-7.067-0.1-14.2,0.4
				c-9.566,0.733-17.3,1.317-23.2,1.75c-23.667,1.633-43.333,1.85-59,0.65c-2.4-0.167,2.083-0.417,13.45-0.75
				c16.1-0.4,28.017-0.9,35.75-1.5c17.533-1.333,28.467-2.05,32.8-2.15c12.2-0.367,22.533,0.35,31,2.15
				c7.3,1.567,14.717,2.784,22.25,3.65c10.033,1.167,17.65,2.183,22.85,3.05c8.534,1.367,18.15,3.217,28.851,5.55
				C777.05,91,782.866,92.3,788.9,93.7z"/>
			<linearGradient id="SVGID_16_" gradientUnits="userSpaceOnUse" x1="222.4502" y1="90.4502" x2="322.2358" y2="90.4502">
				<stop  offset="0" style="stop-color:#3FA8A9"/>
				<stop  offset="0.1647" style="stop-color:#3AA1A7"/>
				<stop  offset="0.6196" style="stop-color:#2F93A2"/>
				<stop  offset="1" style="stop-color:#2C8EA1"/>
			</linearGradient>
			<path style="fill-rule:evenodd;clip-rule:evenodd;fill:url(#SVGID_16_);" d="M274,90.75c15.533-1.933,24.783-3.117,27.75-3.55
				c7.7-1.1,14.1-2.2,19.2-3.3c1,0,1.417,0.117,1.25,0.35c-0.333,0.433-3.367,1.217-9.1,2.35c-6.5,1.267-15.483,2.633-26.95,4.1
				c-10.5,1.367-20.15,2.433-28.95,3.2L222.45,97c2.633-0.5,10.783-1.533,24.45-3.1C254.133,93.067,263.167,92.017,274,90.75z"/>
			<linearGradient id="SVGID_17_" gradientUnits="userSpaceOnUse" x1="110.6499" y1="46.4688" x2="296.0498" y2="46.4688">
				<stop  offset="0" style="stop-color:#3FA8A9"/>
				<stop  offset="0.1647" style="stop-color:#3AA1A7"/>
				<stop  offset="0.6196" style="stop-color:#2F93A2"/>
				<stop  offset="1" style="stop-color:#2C8EA1"/>
			</linearGradient>
			<path style="fill-rule:evenodd;clip-rule:evenodd;fill:url(#SVGID_17_);" d="M241.9,41.95c17.167,0.4,35.217,1.1,54.15,2.1
				c-41.5-0.7-71.267-0.85-89.3-0.45c-11.3,0.267-30.7,1.6-58.2,4l-37.9,3.55c3.767-0.6,13.934-1.733,30.5-3.4
				c15.2-1.5,27.667-2.667,37.4-3.5c11.1-0.933,20.6-1.583,28.5-1.95C218.783,41.767,230.4,41.65,241.9,41.95z"/>
			<linearGradient id="SVGID_18_" gradientUnits="userSpaceOnUse" x1="535.7246" y1="19.998" x2="714.0746" y2="19.998">
				<stop  offset="0" style="stop-color:#3FA8A9"/>
				<stop  offset="0.1647" style="stop-color:#3AA1A7"/>
				<stop  offset="0.6196" style="stop-color:#2F93A2"/>
				<stop  offset="1" style="stop-color:#2C8EA1"/>
			</linearGradient>
			<path style="fill-rule:evenodd;clip-rule:evenodd;fill:url(#SVGID_18_);" d="M683.3,18.35c13.233,0.433,23.5,0.85,30.8,1.25
				c-10.699-0.3-22.333-0.567-34.899-0.8c-25.066-0.5-42.2-0.566-51.4-0.2c-12.866,0.467-28.25,1.15-46.149,2.05
				c-15.798,0.817-28.364,1.525-37.7,2.125l22.95-2.025c25.866-2.1,42.899-3.233,51.1-3.4c8.566-0.2,19.417-0.167,32.55,0.1
				C656.884,17.583,667.8,17.883,683.3,18.35z"/>
			<linearGradient id="SVGID_19_" gradientUnits="userSpaceOnUse" x1="782.8252" y1="26.0254" x2="885.0752" y2="26.0254">
				<stop  offset="0" style="stop-color:#3FA8A9"/>
				<stop  offset="0.1647" style="stop-color:#3AA1A7"/>
				<stop  offset="0.6196" style="stop-color:#2F93A2"/>
				<stop  offset="1" style="stop-color:#2C8EA1"/>
			</linearGradient>
			<path style="fill-rule:evenodd;clip-rule:evenodd;fill:url(#SVGID_19_);" d="M885.1,30.7c-47.732-5.099-79.133-8.215-94.199-9.35
				c6.229,0.357,16.13,0.907,29.699,1.65C850.934,25.1,872.434,27.667,885.1,30.7z"/>
			<linearGradient id="SVGID_20_" gradientUnits="userSpaceOnUse" x1="828.9746" y1="58.0171" x2="980.5246" y2="58.0171">
				<stop  offset="0" style="stop-color:#3FA8A9"/>
				<stop  offset="0.1647" style="stop-color:#3AA1A7"/>
				<stop  offset="0.6196" style="stop-color:#2F93A2"/>
				<stop  offset="1" style="stop-color:#2C8EA1"/>
			</linearGradient>
			<path style="fill-rule:evenodd;clip-rule:evenodd;fill:url(#SVGID_20_);" d="M902.75,60.65c-8.6,0.2-19.366-0.05-32.3-0.75
				c-9.533-0.533-19.316-1.35-29.351-2.45l-10.5-1.35c3.709,0.375,10.56,0.875,20.551,1.5c11.166,0.667,21.683,1.217,31.55,1.65
				c9.934,0.467,17.8,0.567,23.6,0.3c6.634-0.333,13.184-1.2,19.65-2.6c6.267-1.333,15.816-1.85,28.649-1.55
				c11.767,0.3,20.417,1.033,25.95,2.2c-5.934-0.567-12.517-0.983-19.75-1.25c-14.434-0.5-24.883-0.017-31.35,1.45
				C922.25,59.433,913.35,60.383,902.75,60.65z"/>
		</g>
		
			<use xlink:href="#FlashAICB_x5F_0_x2F_Layer_1_x2F__x3C_Path_x3E__x5F_3"  width="358.977" height="13.953" y="-13.956" transform="matrix(1 0 0 -1 342.5 114.5)" style="overflow:visible;opacity:0.1719;enable-background:new    ;"/>
		
			<use xlink:href="#FlashAICB_x5F_0_x2F_Layer_1_x2F__x3C_Path_x3E__x5F_2"  width="175.6" height="12.331" y="-12.405" transform="matrix(1 0 0 -1 813.4004 74.6499)" style="overflow:visible;opacity:0.1719;enable-background:new    ;"/>
		
			<use xlink:href="#FlashAICB_x5F_0_x2F_Layer_1_x2F__x3C_Path_x3E__x5F_1"  width="287.85" height="13.64" y="-13.6" transform="matrix(1 0 0 -1 524.25 32.9502)" style="overflow:visible;opacity:0.1719;enable-background:new    ;"/>
		
			<use xlink:href="#FlashAICB_x5F_0_x2F_Layer_1_x2F__x3C_Path_x3E_"  width="260.35" height="20.292" y="-20.3" transform="matrix(1 0 0 -1 62.1001 58.7998)" style="overflow:visible;opacity:0.1719;enable-background:new    ;"/>
	</g>
</g>
</svg>
