<?xml version="1.0" encoding="iso-8859-1"?>
<!-- Generator: Adobe Illustrator 15.1.0, SVG Export Plug-In . SVG Version: 6.00 Build 0)  -->
<!DOCTYPE svg PUBLIC "-//W3C//DTD SVG 1.1//EN" "http://www.w3.org/Graphics/SVG/1.1/DTD/svg11.dtd">
<svg version="1.1" id="Layer_1" xmlns="http://www.w3.org/2000/svg" xmlns:xlink="http://www.w3.org/1999/xlink" x="0px" y="0px"
	 width="126.85px" height="242.5px" viewBox="0 0 126.85 242.5" style="enable-background:new 0 0 126.85 242.5;"
	 xml:space="preserve">
<g>
	<path style="fill-rule:evenodd;clip-rule:evenodd;fill:#646D80;" d="M51.25,44.35c1.8-3.067,6.317-11.817,13.55-26.25
		C70.866,6,74.066,0.083,74.4,0.35c0.866,0.667,1.133,2.617,0.8,5.85c-0.7,6.367-1.084,11.2-1.15,14.5
		c-0.033,2.3-0.566,8.05-1.6,17.25c-0.7,6.5-0.684,12.633,0.05,18.4c1.833,14.4,3.05,23.066,3.65,26
		c2.1,10.033,5.316,18.017,9.649,23.95c0.233,0.3,0.967,1.117,2.2,2.45c0.9,0.967,1.517,1.833,1.85,2.6
		c0.4,0.867,0.934,2.816,1.601,5.85c0.533,2.333,1.366,4.183,2.5,5.55c2.133,2.533,3.833,6.3,5.1,11.3
		c0.8,3.233,1.5,7.434,2.101,12.601c0.333,3.033,1.05,6.083,2.149,9.149c1.267,3.533,2.167,6.834,2.7,9.9
		c3.2,18.166,6.533,32.75,10,43.75c0.833,2.633,2.434,7.467,4.8,14.5c2.101,6.133,3.667,10.983,4.7,14.55
		c0.4,1.066,0.634,1.884,0.7,2.45c-8.934-0.434-19.45-0.601-31.55-0.5c-14.034,0.2-24.551,0.333-31.551,0.399
		c-16.533,0.2-33.016,0.551-49.45,1.051c-0.267,0-3.283,0.083-9.05,0.25c0-3.467,0.117-7.334,0.35-11.601
		c0.466-8.5,1.25-14.767,2.35-18.8c0.9-3.5,1.883-8.134,2.95-13.9c0.8-4.5,1.2-6.767,1.2-6.8c0.533-2.533,1.233-4.717,2.1-6.55
		c0.333-0.733,1.083-2.217,2.25-4.45c0.967-1.833,1.684-3.316,2.15-4.45c1.233-2.866,2.25-5.449,3.05-7.75
		c2.167-5.833,3.55-10.783,4.15-14.85c0.333-2.1,0.417-4.583,0.25-7.45c-0.233-3.267-0.383-5.7-0.45-7.3
		c-0.267-5.866,0.733-10.65,3-14.35c5.367-8.634,9.333-17.55,11.9-26.75c2.7-9.733,3.733-19.45,3.1-29.15
		c-0.3-2.867-0.5-5.017-0.6-6.45c-0.133-2.466,0.117-4.566,0.75-6.3c1.2-0.933,2.333-2.1,3.4-3.5
		C47.733,50.183,49.317,47.717,51.25,44.35z"/>
	
		<radialGradient id="SVGID_1_" cx="97.5996" cy="122.9502" r="25.9114" gradientTransform="matrix(-0.9957 -0.0925 0.1073 -1.1554 181.5904 274.0264)" gradientUnits="userSpaceOnUse">
		<stop  offset="0" style="stop-color:#859698"/>
		<stop  offset="0.2824" style="stop-color:#6C7988"/>
		<stop  offset="0.549" style="stop-color:#5A657D"/>
		<stop  offset="0.7255" style="stop-color:#545E79"/>
		<stop  offset="0.7882" style="stop-color:#4F5872"/>
		<stop  offset="0.8745" style="stop-color:#42465E"/>
		<stop  offset="0.9765" style="stop-color:#2C283E"/>
		<stop  offset="1" style="stop-color:#262136"/>
	</radialGradient>
	<path style="fill-rule:evenodd;clip-rule:evenodd;fill:url(#SVGID_1_);" d="M77.875,99.175L77.7,99.1
		c0.767-1.833,1.333-3.184,1.7-4.05C80.145,93.368,79.636,94.743,77.875,99.175l8.575,4.575l9.45,20.15L94,135
		c-1.833,7.434-4.217,11.333-7.15,11.7c-3.066,0.399-6.433-2.75-10.1-9.45c-2.9-5.233-4.866-10.033-5.9-14.4
		c0.4-1.966,0.967-4.417,1.7-7.35c1.533-5.833,3.25-11.133,5.15-15.9C77.756,99.459,77.814,99.318,77.875,99.175z"/>
	
		<radialGradient id="SVGID_2_" cx="95.7002" cy="65.5498" r="28.0582" gradientTransform="matrix(-0.9957 -0.0925 0.1147 -1.2345 183.4722 155.3219)" gradientUnits="userSpaceOnUse">
		<stop  offset="0" style="stop-color:#859698"/>
		<stop  offset="0.2824" style="stop-color:#6C7988"/>
		<stop  offset="0.549" style="stop-color:#5A657D"/>
		<stop  offset="0.7255" style="stop-color:#545E79"/>
		<stop  offset="0.7882" style="stop-color:#4F5872"/>
		<stop  offset="0.8745" style="stop-color:#42465E"/>
		<stop  offset="0.9765" style="stop-color:#2C283E"/>
		<stop  offset="1" style="stop-color:#262136"/>
	</radialGradient>
	<path style="fill-rule:evenodd;clip-rule:evenodd;fill:url(#SVGID_2_);" d="M76.55,75.75c1.167,7.333,2.267,13.883,3.3,19.65
		c-1.433-1.533-2.949-3.65-4.55-6.35c-3.2-5.4-5.217-10.95-6.05-16.65c-0.833-5.733-0.6-12.566,0.7-20.5L72.1,41.7
		C72.733,49.667,74.217,61.017,76.55,75.75z"/>
	
		<radialGradient id="SVGID_3_" cx="81.0996" cy="45.1499" r="26.0495" gradientTransform="matrix(-0.9957 -0.0926 0.1147 -1.2342 156.6705 108.3806)" gradientUnits="userSpaceOnUse">
		<stop  offset="0" style="stop-color:#859698"/>
		<stop  offset="0.2" style="stop-color:#6C7988"/>
		<stop  offset="0.3882" style="stop-color:#5A657D"/>
		<stop  offset="0.5176" style="stop-color:#545E79"/>
		<stop  offset="0.6196" style="stop-color:#4F5872"/>
		<stop  offset="0.7765" style="stop-color:#42465E"/>
		<stop  offset="0.9608" style="stop-color:#2C283E"/>
		<stop  offset="1" style="stop-color:#262136"/>
	</radialGradient>
	<path style="fill-rule:evenodd;clip-rule:evenodd;fill:url(#SVGID_3_);" d="M72.1,41.7L70.85,48c-0.899,4.567-1.483,7.8-1.75,9.7
		C68.4,56.5,67.7,54.95,67,53.05c-1.467-3.833-2.283-7.533-2.45-11.1c-0.2-3.9,0.351-8,1.65-12.3c1.066-3.533,2.35-6.417,3.85-8.65
		l2.55-3.7l-0.35,4.25c-0.2,3.067-0.2,5.25,0,6.55c0.267,1.9,0.417,4.05,0.45,6.45C72.733,37.483,72.533,39.867,72.1,41.7z"/>
	
		<radialGradient id="SVGID_4_" cx="82.5" cy="22.8501" r="13.2069" gradientTransform="matrix(-0.9957 -0.0926 0.1147 -1.2342 162.0237 58.6886)" gradientUnits="userSpaceOnUse">
		<stop  offset="0" style="stop-color:#859698"/>
		<stop  offset="0.2" style="stop-color:#6C7988"/>
		<stop  offset="0.3882" style="stop-color:#5A657D"/>
		<stop  offset="0.5176" style="stop-color:#545E79"/>
		<stop  offset="0.6196" style="stop-color:#4F5872"/>
		<stop  offset="0.7765" style="stop-color:#42465E"/>
		<stop  offset="0.9608" style="stop-color:#2C283E"/>
		<stop  offset="1" style="stop-color:#262136"/>
	</radialGradient>
	<path style="fill-rule:evenodd;clip-rule:evenodd;fill:url(#SVGID_4_);" d="M74.35,15.35L74.3,18.6
		c-0.033,2.267-0.017,3.667,0.05,4.2c0.101,0.567-0.1,2.767-0.6,6.6c-0.4,3.1-0.733,5.434-1,7c-0.167-3.833-0.366-6.2-0.6-7.1
		c-0.134-0.633-0.217-1.716-0.25-3.25c-0.067-1.4-0.067-2.5,0-3.3c0.1-2.567,0.466-5.367,1.1-8.4c0.434-2.167,1.1-4.267,2-6.3
		C74.667,11.217,74.45,13.65,74.35,15.35z"/>
	
		<radialGradient id="SVGID_5_" cx="49.3999" cy="70.8501" r="28.4973" gradientTransform="matrix(-0.9957 -0.0924 0.0966 -1.0413 91.7411 149.1924)" gradientUnits="userSpaceOnUse">
		<stop  offset="0" style="stop-color:#859698"/>
		<stop  offset="0.2824" style="stop-color:#6C7988"/>
		<stop  offset="0.549" style="stop-color:#5A657D"/>
		<stop  offset="0.7255" style="stop-color:#545E79"/>
		<stop  offset="0.7882" style="stop-color:#4F5872"/>
		<stop  offset="0.8745" style="stop-color:#42465E"/>
		<stop  offset="0.9765" style="stop-color:#2C283E"/>
		<stop  offset="1" style="stop-color:#262136"/>
	</radialGradient>
	<path style="fill-rule:evenodd;clip-rule:evenodd;fill:url(#SVGID_5_);" d="M61.65,41.35L69.1,57.7l-0.149,4.25
		c-0.066,3.033-0.084,5.017-0.05,5.95c0.066,1.6,0.233,3.317,0.5,5.15c0.066,0.333-0.351,1.767-1.25,4.3
		c-0.934,2.5-1.684,4.283-2.25,5.35c-0.4,0.7-1.217,1.95-2.45,3.75c-1.2,1.8-2.083,3.417-2.65,4.85
		c-0.466,1.167-0.816,2.25-1.05,3.25c-0.067,0.367-0.183,0.45-0.35,0.25c-0.066-0.1-0.816-1.816-2.25-5.15
		c-1.5-3.433-2.566-5.617-3.2-6.55c-0.7-1-1.434-2.117-2.2-3.35l-0.9-1.55c0.066-3.633,0.033-6.383-0.1-8.25
		c-0.1-1.3-0.1-2.617,0-3.95c0.067-1.233,0.167-1.9,0.3-2c0.167-0.167,1-1.667,2.5-4.5c1.7-3.167,3.034-5.833,4-8
		c0.934-2.033,1.9-4.333,2.9-6.9L61.65,41.35z"/>
	
		<radialGradient id="SVGID_6_" cx="30.6001" cy="62.2002" r="44.0514" gradientTransform="matrix(-0.9957 -0.0924 0.0937 -1.0099 55.2391 127.8436)" gradientUnits="userSpaceOnUse">
		<stop  offset="0" style="stop-color:#859698"/>
		<stop  offset="0.2824" style="stop-color:#6C7988"/>
		<stop  offset="0.549" style="stop-color:#5A657D"/>
		<stop  offset="0.7255" style="stop-color:#545E79"/>
		<stop  offset="0.7882" style="stop-color:#4F5872"/>
		<stop  offset="0.8745" style="stop-color:#42465E"/>
		<stop  offset="0.9765" style="stop-color:#2C283E"/>
		<stop  offset="1" style="stop-color:#262136"/>
	</radialGradient>
	<path style="fill-rule:evenodd;clip-rule:evenodd;fill:url(#SVGID_6_);" d="M44,97.2c-2.033,2.333-4.05,4.167-6.05,5.5
		c0.667-2.1,1.383-4.9,2.15-8.4c1.467-7.033,2.383-14.05,2.75-21.05c0.066-1.167-0.05-3.617-0.35-7.35
		c-0.267-3.566-0.367-5.733-0.3-6.5l1.5,0.8c1.167,0.833,2.233,1.95,3.2,3.35c3,4.434,4.25,10.85,3.75,19.25
		C50.35,87.733,48.133,92.533,44,97.2z"/>
	<path style="fill-rule:evenodd;clip-rule:evenodd;fill:#859698;" d="M43.6,53.85l0.6,2.2c0.867,1.867,2.417,3.85,4.65,5.95
		c1.033,1,1.767,1.667,2.2,2L50.8,78.3c0-2.466-0.367-5.117-1.1-7.95c-1.434-5.6-3.934-9.25-7.5-10.95
		C42.5,57.333,42.967,55.483,43.6,53.85z"/>
	
		<radialGradient id="SVGID_7_" cx="46.7002" cy="60.1499" r="20.1612" gradientTransform="matrix(-0.9957 -0.0924 0.1848 -1.9927 82.084 184.3224)" gradientUnits="userSpaceOnUse">
		<stop  offset="0" style="stop-color:#859698"/>
		<stop  offset="0.2824" style="stop-color:#6C7988"/>
		<stop  offset="0.549" style="stop-color:#5A657D"/>
		<stop  offset="0.7255" style="stop-color:#545E79"/>
		<stop  offset="0.7882" style="stop-color:#4F5872"/>
		<stop  offset="0.8745" style="stop-color:#42465E"/>
		<stop  offset="0.9765" style="stop-color:#2C283E"/>
		<stop  offset="1" style="stop-color:#262136"/>
	</radialGradient>
	<path style="fill-rule:evenodd;clip-rule:evenodd;fill:url(#SVGID_7_);" d="M60.2,24.75l1.6,6.95c0.7,5.533,0.167,10.533-1.6,15
		c-1.733,4.466-3.784,8.7-6.15,12.7c-1.167,1.967-2.167,3.5-3,4.6c-1.1-0.767-2.233-1.767-3.4-3c-2.333-2.467-3.683-4.85-4.05-7.15
		c1.8-2.2,3.85-5.067,6.15-8.6C54.317,38.183,57.8,31.35,60.2,24.75z"/>
	
		<radialGradient id="SVGID_8_" cx="61.9502" cy="40.8501" r="41.7416" gradientTransform="matrix(-0.9957 -0.0925 0.065 -0.6992 120.98 75.1468)" gradientUnits="userSpaceOnUse">
		<stop  offset="0" style="stop-color:#859698"/>
		<stop  offset="0.2824" style="stop-color:#6C7988"/>
		<stop  offset="0.549" style="stop-color:#5A657D"/>
		<stop  offset="0.7255" style="stop-color:#545E79"/>
		<stop  offset="0.7882" style="stop-color:#4F5872"/>
		<stop  offset="0.8745" style="stop-color:#42465E"/>
		<stop  offset="0.9765" style="stop-color:#2C283E"/>
		<stop  offset="1" style="stop-color:#262136"/>
	</radialGradient>
	<path style="fill-rule:evenodd;clip-rule:evenodd;fill:url(#SVGID_8_);" d="M65.55,16.15l1.8,10.3l-1.25,3.7
		c-0.833,2.833-1.316,5.233-1.449,7.2c-0.2,3.333,0.116,6.883,0.949,10.65c0.434,1.9,0.867,3.45,1.301,4.65l-5.25-11.3
		c0.2-1.333,0.283-3.017,0.25-5.05c-0.033-4.1-0.65-7.9-1.85-11.4l1.05-1.05c0.8-0.9,1.467-1.783,2-2.65
		C64.3,19.067,65.116,17.383,65.55,16.15z"/>
	<path style="fill-rule:evenodd;clip-rule:evenodd;fill:#859698;" d="M75.5,5.5C75.167,7.4,75,8.25,75,8.05
		c-0.4,0.9-0.8,1.967-1.2,3.2c-0.8,2.533-1.25,4.7-1.35,6.5c-0.634,0.8-1.316,1.767-2.05,2.9c-1.5,2.233-2.517,4.167-3.051,5.8
		l-1.8-10.3c1.134-2.767,2.351-5.517,3.65-8.25c2.6-5.467,4.3-8.1,5.1-7.9c0.467,0.133,0.834,0.733,1.101,1.8
		C75.667,2.933,75.7,4.167,75.5,5.5z"/>
	
		<radialGradient id="SVGID_9_" cx="27.3999" cy="119.6499" r="34.2208" gradientTransform="matrix(-0.9442 -0.3293 0.4115 -1.1796 4.0399 269.8141)" gradientUnits="userSpaceOnUse">
		<stop  offset="0" style="stop-color:#859698"/>
		<stop  offset="0.1765" style="stop-color:#74838D"/>
		<stop  offset="0.5529" style="stop-color:#545E79"/>
		<stop  offset="0.6157" style="stop-color:#4C546E"/>
		<stop  offset="0.8667" style="stop-color:#312F46"/>
		<stop  offset="1" style="stop-color:#262136"/>
	</radialGradient>
	<path style="fill-rule:evenodd;clip-rule:evenodd;fill:url(#SVGID_9_);" d="M44.85,130.7c-3.5,2.666-7.233,5.116-11.2,7.35
		c-4.367,2.367-7.117,3.95-8.25,4.75c0.1-0.066-0.017-1.616-0.35-4.649c-0.333-3.267-0.5-4.983-0.5-5.15
		c0.233-4.4,1.233-7.934,3-10.6c1.2-1.8,3.3-5.617,6.3-11.45l4.1-8.25l1.3-0.65c4-1.966,8.017-2.367,12.05-1.2
		c4.467,1.3,6.767,4.2,6.9,8.7c0.1,3.767-1.35,7.767-4.35,12C51.483,124.884,48.483,127.934,44.85,130.7z"/>
	<path style="fill-rule:evenodd;clip-rule:evenodd;fill:#859698;" d="M52.15,80l3.4,6.9c2.367,4.733,3.784,7.434,4.25,8.1
		c0.633,0.9,1.034,1.65,1.2,2.25c0.167,0.633,0.017,0.933-0.45,0.9c-0.6-0.066-1.367,0.633-2.3,2.1c-1,1.6-1.467,3.217-1.4,4.85
		c-0.333,0.033-1.283-0.617-2.85-1.95c-3.633-3.167-8.983-3.316-16.05-0.45c2.167-1.3,4.333-3.284,6.5-5.95
		c4.333-5.367,6.45-11.517,6.35-18.45L52.15,80z"/>
	<path style="fill-rule:evenodd;clip-rule:evenodd;fill:#859698;" d="M24.75,151.45l0.9-4.3c0.9,11.833,1.383,17.883,1.45,18.149
		c0.066,0.2-0.417,0.884-1.45,2.05c-1.066,1.233-2.233,2.4-3.5,3.5c-1.733,1.534-4.066,5.067-7,10.601
		c-0.066,0.1,0.517-1.983,1.75-6.25c1.133-4,1.967-6.9,2.5-8.7c0.267-0.866,0.817-1.983,1.65-3.35
		c0.767-1.301,1.383-2.717,1.85-4.25C23.433,157.167,24.05,154.684,24.75,151.45z"/>
	<path style="fill-rule:evenodd;clip-rule:evenodd;fill:#859698;" d="M85.9,101.9l0.6,0.35c0.566,0.5,1.283,1.317,2.15,2.45l1.3,3
		c0.866,2.066,1.35,3.3,1.45,3.7c0.199,0.667,0.517,2.35,0.949,5.05l-5.449-7.3l-0.851-3.9L85.9,101.9z"/>
	
		<radialGradient id="SVGID_10_" cx="89.2998" cy="91.8999" r="16.2693" gradientTransform="matrix(-0.9957 -0.0921 0.0899 -0.9719 169.9539 189.4479)" gradientUnits="userSpaceOnUse">
		<stop  offset="0" style="stop-color:#545E79"/>
		<stop  offset="0.2157" style="stop-color:#4F5872"/>
		<stop  offset="0.5373" style="stop-color:#42465E"/>
		<stop  offset="0.9176" style="stop-color:#2C283E"/>
		<stop  offset="1" style="stop-color:#262136"/>
	</radialGradient>
	<path style="fill-rule:evenodd;clip-rule:evenodd;fill:url(#SVGID_10_);" d="M80.5,97.1c0.667,1.267,1.65,2.183,2.95,2.75
		l2.45,2.05l0.149,3.35c-0.733,0.1-1.583,0.05-2.55-0.15c-1.934-0.367-3.417-1.267-4.45-2.7c-1.066-1.4-1.899-3.917-2.5-7.55l-0.6-5
		l3.899,5.55L80.5,97.1z"/>
	
		<radialGradient id="SVGID_11_" cx="76.7998" cy="103.1499" r="21.6924" gradientTransform="matrix(-0.9957 -0.0923 0.1071 -1.1548 142.2291 229.356)" gradientUnits="userSpaceOnUse">
		<stop  offset="0" style="stop-color:#859698"/>
		<stop  offset="0.2824" style="stop-color:#6C7988"/>
		<stop  offset="0.549" style="stop-color:#5A657D"/>
		<stop  offset="0.7255" style="stop-color:#545E79"/>
		<stop  offset="0.7882" style="stop-color:#4F5872"/>
		<stop  offset="0.8745" style="stop-color:#42465E"/>
		<stop  offset="0.9765" style="stop-color:#2C283E"/>
		<stop  offset="1" style="stop-color:#262136"/>
	</radialGradient>
	<path style="fill-rule:evenodd;clip-rule:evenodd;fill:url(#SVGID_11_);" d="M76,90.35l0.55,3.8c0.467,2.733,0.851,4.55,1.15,5.45
		l-2.65,8.05c-1.833,6.2-2.916,11.467-3.25,15.8l-2.85-5.15c-0.967-2.767-2-5.683-3.101-8.75c-2.199-6.1-3.833-9.966-4.899-11.6
		c0.133-0.034,0.183-0.2,0.15-0.5c-0.067-0.534-0.5-1.35-1.3-2.45c-0.033-0.567,0.067-1.333,0.3-2.3c0.5-2,1.45-4.083,2.85-6.25
		c3.233-4.967,5.434-9.267,6.6-12.9l1.601,5.3C72.583,83.05,74.2,86.883,76,90.35z"/>
	
		<radialGradient id="SVGID_12_" cx="51.0498" cy="177.4502" r="69.561" gradientTransform="matrix(-0.9957 -0.0925 0.103 -1.108 83.6076 378.7924)" gradientUnits="userSpaceOnUse">
		<stop  offset="0" style="stop-color:#859698"/>
		<stop  offset="0.2118" style="stop-color:#6C7988"/>
		<stop  offset="0.4157" style="stop-color:#5A657D"/>
		<stop  offset="0.5529" style="stop-color:#545E79"/>
		<stop  offset="0.6667" style="stop-color:#515B75"/>
		<stop  offset="0.7725" style="stop-color:#4A506A"/>
		<stop  offset="0.8784" style="stop-color:#3C3F57"/>
		<stop  offset="0.9804" style="stop-color:#2A263C"/>
		<stop  offset="1" style="stop-color:#262136"/>
	</radialGradient>
	<path style="fill-rule:evenodd;clip-rule:evenodd;fill:url(#SVGID_12_);" d="M70.2,118c0.267,0.7,0.934,2.683,2,5.95
		c0.8,2.399,1.517,4.35,2.149,5.85c1.034,2.434,1.717,4.267,2.051,5.5c0.6,2.267,0.666,4.184,0.199,5.75
		c-0.399,1.4-1.783,6.134-4.149,14.2c-1.7,5.8-3.017,10.583-3.95,14.35c-0.267,1.2-0.6,3.051-1,5.551
		c-0.434,2.267-0.983,4.066-1.65,5.399c-0.966-0.533-2.133-0.283-3.5,0.75c-0.767,0.566-1.817,1.434-3.15,2.601
		c0.267-4.267,0.45-7.467,0.55-9.601c0.2-3.733,0.167-6.916-0.1-9.55c-0.2-2.267-0.683-4.866-1.45-7.8
		c-0.967-3.367-1.684-5.9-2.15-7.601c-0.633-2.333-0.65-5.166-0.05-8.5c0.933-3.767,1.567-6.566,1.9-8.399
		c0.733-3.834,1.184-6.783,1.35-8.851c0.3-3.333,0.183-6.3-0.35-8.899c-1.066-5.167-1.8-8.3-2.2-9.4
		c-0.117-0.32-0.191-0.461-0.225-0.425c0.256-1.076,0.614-2.15,1.075-3.225c1.034-2.367,2.167-3.6,3.4-3.7c0.433-0.034,2,3,4.7,9.1
		C67.917,112.25,69.434,115.9,70.2,118z"/>
	
		<radialGradient id="SVGID_13_" cx="94.7002" cy="198.9502" r="65.9203" gradientTransform="matrix(-0.9957 -0.0925 0.0721 -0.7754 174.6582 361.9728)" gradientUnits="userSpaceOnUse">
		<stop  offset="0" style="stop-color:#859698"/>
		<stop  offset="0.2118" style="stop-color:#6C7988"/>
		<stop  offset="0.4157" style="stop-color:#5A657D"/>
		<stop  offset="0.5529" style="stop-color:#545E79"/>
		<stop  offset="0.6667" style="stop-color:#515B75"/>
		<stop  offset="0.7725" style="stop-color:#4A506A"/>
		<stop  offset="0.8784" style="stop-color:#3C3F57"/>
		<stop  offset="0.9804" style="stop-color:#2A263C"/>
		<stop  offset="1" style="stop-color:#262136"/>
	</radialGradient>
	<path style="fill-rule:evenodd;clip-rule:evenodd;fill:url(#SVGID_13_);" d="M58.05,156.15L65.8,181l-0.7,14.2
		c-0.533,10-1,16.316-1.399,18.95c-0.267,1.933-0.617,6.25-1.05,12.949c-0.367,5.334-0.65,7.851-0.85,7.551
		c-3.167-3.134-6.367-6.867-9.6-11.2c-6.4-8.566-10.367-16.601-11.9-24.101c-1.533-7.466,0.967-16.916,7.5-28.35
		c2.034-3.566,4.35-7.1,6.95-10.6L58.05,156.15z"/>
	
		<radialGradient id="SVGID_14_" cx="39.4502" cy="142.5" r="29.4513" gradientTransform="matrix(-0.9957 -0.0925 0.1205 -1.2966 61.558 330.9211)" gradientUnits="userSpaceOnUse">
		<stop  offset="0" style="stop-color:#859698"/>
		<stop  offset="0.2118" style="stop-color:#6C7988"/>
		<stop  offset="0.4157" style="stop-color:#5A657D"/>
		<stop  offset="0.5529" style="stop-color:#545E79"/>
		<stop  offset="0.6667" style="stop-color:#515B75"/>
		<stop  offset="0.7725" style="stop-color:#4A506A"/>
		<stop  offset="0.8784" style="stop-color:#3C3F57"/>
		<stop  offset="0.9804" style="stop-color:#2A263C"/>
		<stop  offset="1" style="stop-color:#262136"/>
	</radialGradient>
	<path style="fill-rule:evenodd;clip-rule:evenodd;fill:url(#SVGID_14_);" d="M57.65,108.85c1.667,7.333,2.467,11.45,2.4,12.35
		c-0.066,0.733-0.5,3.383-1.3,7.95c-0.833,4.666-1.4,7.716-1.7,9.149c-0.433,2-0.9,4.816-1.4,8.45c-1.733,4-2.917,5.884-3.55,5.65
		c-0.5-0.167-0.883-2-1.15-5.5c-0.267-3.4-0.333-7.101-0.2-11.101c0.1-3.233,0.5-6.783,1.2-10.649l1-4.851L57.65,108.85z"/>
	
		<radialGradient id="SVGID_15_" cx="24" cy="161.0996" r="35.9552" gradientTransform="matrix(-0.949 -0.3153 0.3939 -1.1857 -16.6876 359.6872)" gradientUnits="userSpaceOnUse">
		<stop  offset="0" style="stop-color:#859698"/>
		<stop  offset="0.1765" style="stop-color:#74838D"/>
		<stop  offset="0.5529" style="stop-color:#545E79"/>
		<stop  offset="0.6157" style="stop-color:#4C546E"/>
		<stop  offset="0.8667" style="stop-color:#312F46"/>
		<stop  offset="1" style="stop-color:#262136"/>
	</radialGradient>
	<path style="fill-rule:evenodd;clip-rule:evenodd;fill:url(#SVGID_15_);" d="M51.6,136.1c-0.3,8.567-0.133,14,0.5,16.301
		l-3.5,6.699c-2.2,5.334-2.95,10.233-2.25,14.7L43.6,180c-1.833,4.566-2.817,8-2.95,10.3c-6.467-13.233-10.983-21.566-13.55-25
		l-1.7-22.5c2.667-1.399,5.783-3.233,9.35-5.5c7.133-4.533,12.983-8.983,17.55-13.35L51.6,136.1z"/>
	<path style="fill-rule:evenodd;clip-rule:evenodd;fill:#859698;" d="M52.1,152.4l3.55-5.65l2.4,9.4l-5.25,7.5
		c-3.667,5.3-5.816,8.683-6.45,10.149c-0.3-0.467-0.5-1.283-0.6-2.45c-0.167-2.333,0.233-5.183,1.2-8.55
		c1-3.366,2.167-6.116,3.5-8.25L52.1,152.4z"/>
	
		<radialGradient id="SVGID_16_" cx="-5.0498" cy="214.4502" r="54.1065" gradientTransform="matrix(-0.9957 -0.0924 0.1028 -1.108 -32.1274 451.5941)" gradientUnits="userSpaceOnUse">
		<stop  offset="0" style="stop-color:#859698"/>
		<stop  offset="0.2118" style="stop-color:#6C7988"/>
		<stop  offset="0.4157" style="stop-color:#5A657D"/>
		<stop  offset="0.5529" style="stop-color:#545E79"/>
		<stop  offset="0.6667" style="stop-color:#515B75"/>
		<stop  offset="0.7725" style="stop-color:#4A506A"/>
		<stop  offset="0.8784" style="stop-color:#3C3F57"/>
		<stop  offset="0.9804" style="stop-color:#2A263C"/>
		<stop  offset="1" style="stop-color:#262136"/>
	</radialGradient>
	<path style="fill-rule:evenodd;clip-rule:evenodd;fill:url(#SVGID_16_);" d="M32.15,172.65c3.767,6.066,6.6,11.949,8.5,17.649
		l-0.15,6.351c0.367,5.166,1.7,9.983,4,14.449l-0.4,10.45c-0.467,7.967-1.25,14.517-2.35,19.65L0,242.5
		c1.633-6.533,3.3-13.733,5-21.6c3.433-15.7,5.4-26.817,5.9-33.351c1.5-2.8,3.283-5.833,5.35-9.1c4.2-6.5,7.817-10.884,10.85-13.15
		L32.15,172.65z"/>
	
		<radialGradient id="SVGID_17_" cx="83" cy="259.0996" r="49.2866" gradientTransform="matrix(-0.9957 -0.0925 0.103 -1.1081 138.9585 553.8784)" gradientUnits="userSpaceOnUse">
		<stop  offset="0" style="stop-color:#859698"/>
		<stop  offset="0.2118" style="stop-color:#6C7988"/>
		<stop  offset="0.4157" style="stop-color:#5A657D"/>
		<stop  offset="0.5529" style="stop-color:#545E79"/>
		<stop  offset="0.6667" style="stop-color:#515B75"/>
		<stop  offset="0.7725" style="stop-color:#4A506A"/>
		<stop  offset="0.8784" style="stop-color:#3C3F57"/>
		<stop  offset="0.9804" style="stop-color:#2A263C"/>
		<stop  offset="1" style="stop-color:#262136"/>
	</radialGradient>
	<path style="fill-rule:evenodd;clip-rule:evenodd;fill:url(#SVGID_17_);" d="M66.75,240.85l-25.3,0.101
		c0.733-3.2,1.466-9.134,2.2-17.8L44.5,211.1c1.467,3.134,4.8,8,10,14.601c2.567,3.3,5,6.283,7.3,8.95L66.75,240.85z"/>
	<path style="fill-rule:evenodd;clip-rule:evenodd;fill:#859698;" d="M39.85,187.45c0.4,0.5,0.733,0.816,1,0.95l-0.4,3.5l-1.1-5.2
		L39.85,187.45z"/>
	
		<radialGradient id="SVGID_18_" cx="67.7998" cy="156.0996" r="35.4018" gradientTransform="matrix(-0.9957 -0.0924 0.124 -1.3361 115.9479 370.9284)" gradientUnits="userSpaceOnUse">
		<stop  offset="0" style="stop-color:#859698"/>
		<stop  offset="0.2824" style="stop-color:#6C7988"/>
		<stop  offset="0.549" style="stop-color:#5A657D"/>
		<stop  offset="0.7255" style="stop-color:#545E79"/>
		<stop  offset="0.7882" style="stop-color:#4F5872"/>
		<stop  offset="0.8745" style="stop-color:#42465E"/>
		<stop  offset="0.9765" style="stop-color:#2C283E"/>
		<stop  offset="1" style="stop-color:#262136"/>
	</radialGradient>
	<path style="fill-rule:evenodd;clip-rule:evenodd;fill:url(#SVGID_18_);" d="M79.4,141.55c2.133,2.934,4.383,4.634,6.75,5.101
		c2.366,0.466,4.699-3.15,7-10.851l2.75-11.7l0.85,0.851c0.866,3.233,1.55,8.383,2.05,15.45c0.4,5.533,0.601,10.55,0.601,15.05
		c0,6.366,0.083,10.533,0.25,12.5L92.85,175c-4.899,5.333-8.25,9.533-10.05,12.6c-2.866,4.934-4.399,7.967-4.6,9.101l-11.15-21.2
		l9.851-38.15L79.4,141.55z"/>
	
		<radialGradient id="SVGID_19_" cx="62.0498" cy="221.6504" r="31.1455" gradientTransform="matrix(-0.9957 -0.0923 0.128 -1.3798 95.4694 533.2183)" gradientUnits="userSpaceOnUse">
		<stop  offset="0" style="stop-color:#859698"/>
		<stop  offset="0.2824" style="stop-color:#6C7988"/>
		<stop  offset="0.549" style="stop-color:#5A657D"/>
		<stop  offset="0.7255" style="stop-color:#545E79"/>
		<stop  offset="0.7882" style="stop-color:#4F5872"/>
		<stop  offset="0.8745" style="stop-color:#42465E"/>
		<stop  offset="0.9765" style="stop-color:#2C283E"/>
		<stop  offset="1" style="stop-color:#262136"/>
	</radialGradient>
	<path style="fill-rule:evenodd;clip-rule:evenodd;fill:url(#SVGID_19_);" d="M67.05,175.5l11.15,21.2l3.899,16.7
		c3.367,12.3,6.95,21.3,10.75,27l-26.1,0.449c-0.066-2.899-0.217-5.966-0.45-9.199c-0.434-6.434-1.017-10.4-1.75-11.9
		c1.101-22.167,1.533-35.233,1.3-39.2L67.05,175.5z"/>
	
		<radialGradient id="SVGID_20_" cx="72.5996" cy="232.7002" r="9.9431" gradientTransform="matrix(-0.9957 -0.0928 0.1286 -1.3803 114.9614 560.6349)" gradientUnits="userSpaceOnUse">
		<stop  offset="0" style="stop-color:#859698"/>
		<stop  offset="0.2824" style="stop-color:#6C7988"/>
		<stop  offset="0.549" style="stop-color:#5A657D"/>
		<stop  offset="0.7255" style="stop-color:#545E79"/>
		<stop  offset="0.7882" style="stop-color:#4F5872"/>
		<stop  offset="0.8745" style="stop-color:#42465E"/>
		<stop  offset="0.9765" style="stop-color:#2C283E"/>
		<stop  offset="1" style="stop-color:#262136"/>
	</radialGradient>
	<path style="fill-rule:evenodd;clip-rule:evenodd;fill:url(#SVGID_20_);" d="M64.55,219.75l1.4,8.05
		c0.866,5.934,1.133,10.283,0.8,13.05l-4.95-6.199l1.15-14.101L64.55,219.75z"/>
	
		<radialGradient id="SVGID_21_" cx="101.5" cy="151.5498" r="11.8761" gradientTransform="matrix(-0.9957 -0.0925 0.1717 -1.8482 176.5365 441.0416)" gradientUnits="userSpaceOnUse">
		<stop  offset="0" style="stop-color:#859698"/>
		<stop  offset="0.2824" style="stop-color:#6C7988"/>
		<stop  offset="0.549" style="stop-color:#5A657D"/>
		<stop  offset="0.7255" style="stop-color:#545E79"/>
		<stop  offset="0.7882" style="stop-color:#4F5872"/>
		<stop  offset="0.8745" style="stop-color:#42465E"/>
		<stop  offset="0.9765" style="stop-color:#2C283E"/>
		<stop  offset="1" style="stop-color:#262136"/>
	</radialGradient>
	<path style="fill-rule:evenodd;clip-rule:evenodd;fill:url(#SVGID_21_);" d="M99.35,135.6l2.2,12.45
		c1.566,8.667,2.55,13.867,2.95,15.601l-4.85,4.3L98.9,134.7L99.35,135.6z"/>
	
		<radialGradient id="SVGID_22_" cx="77.2998" cy="213.75" r="47.8426" gradientTransform="matrix(-0.9957 -0.0925 0.1212 -1.3048 128.3581 499.8017)" gradientUnits="userSpaceOnUse">
		<stop  offset="0" style="stop-color:#859698"/>
		<stop  offset="0.2824" style="stop-color:#6C7988"/>
		<stop  offset="0.549" style="stop-color:#5A657D"/>
		<stop  offset="0.7255" style="stop-color:#545E79"/>
		<stop  offset="0.7882" style="stop-color:#4F5872"/>
		<stop  offset="0.8745" style="stop-color:#42465E"/>
		<stop  offset="0.9765" style="stop-color:#2C283E"/>
		<stop  offset="1" style="stop-color:#262136"/>
	</radialGradient>
	<path style="fill-rule:evenodd;clip-rule:evenodd;fill:url(#SVGID_22_);" d="M95.2,171.05c2.366-2.333,4.8-4.45,7.3-6.35
		l3.05-2.101c1.367,7.367,5.316,22.65,11.851,45.851c3.3,11.6,6.449,22.45,9.449,32.55l-34-0.6c-4.399-6.9-8.166-16.25-11.3-28.051
		L78.2,196.7C81.866,187.167,87.533,178.616,95.2,171.05z"/>
</g>
</svg>
