<?xml version="1.0" encoding="iso-8859-1"?>
<!-- Generator: Adobe Illustrator 15.1.0, SVG Export Plug-In . SVG Version: 6.00 Build 0)  -->
<!DOCTYPE svg PUBLIC "-//W3C//DTD SVG 1.1//EN" "http://www.w3.org/Graphics/SVG/1.1/DTD/svg11.dtd">
<svg version="1.1" xmlns="http://www.w3.org/2000/svg" xmlns:xlink="http://www.w3.org/1999/xlink" x="0px" y="0px" width="456.4px"
	 height="377.45px" viewBox="0 0 456.4 377.45" style="enable-background:new 0 0 456.4 377.45;" xml:space="preserve">
<g id="Layer_1">
</g>
<g id="Layer_1_1_">
	<g>
		<path style="fill-rule:evenodd;clip-rule:evenodd;fill:#1F2433;" d="M74.25,137.95c1.633,0.4,3.367,1.216,5.2,2.45
			c0.933,0.633,2.867,2.117,5.8,4.45c3.067,2.433,5.567,5.933,7.5,10.5h0.05c1.034,2.5,1.65,4.566,1.85,6.2
			c0.467,3.867-0.883,8.3-4.05,13.3c-1.567,2.533-3.2,4.667-4.9,6.4c-0.434,1.033-0.7,1.7-0.8,2c-0.967,2.633-3.05,4.3-6.25,5
			c-3.467,0.3-5.717,0.617-6.75,0.95l-0.05,0.05l-0.05-0.1l-0.6,0.3c-0.9,0.666-2.317,1.033-4.25,1.1
			c-2.6,0.033-4.017,0.084-4.25,0.15c-1,0.233-2.034,0.066-3.1-0.5c-0.6-0.334-1.684-1.134-3.25-2.4c-1-0.833-2.4-1.316-4.2-1.45
			c-2.2,0.066-3.883,0.083-5.05,0.05c-0.867,0-1.633-0.183-2.3-0.55c-0.867-0.434-1.75-1.25-2.65-2.45
			c-0.167-0.233-1.083-1.617-2.75-4.15c-1.267-1.967-2.167-4.35-2.7-7.15l-0.15-0.75c-0.667-3.967-0.583-8.233,0.25-12.8
			c0.733-4.033,1.7-6.85,2.9-8.45l0.5-0.6c2.233-2.567,6.833-5.533,13.8-8.9c0.4-0.2,1.167-0.533,2.3-1
			c1.833-0.667,3.9-1.167,6.2-1.5c1.7-0.233,4.1-0.434,7.2-0.6c1.533-0.1,3.033,0.017,4.5,0.35L74.25,137.95z"/>
		<path style="fill-rule:evenodd;clip-rule:evenodd;fill:#1F2433;" d="M87.8,121.55c1.867-0.933,3.934-1.183,6.2-0.75
			c2.3,0.434,3.833,1.434,4.6,3c0.7,1.4,0.917,2.883,0.65,4.45l-1.55,5.55c-1.1,3.9-3.367,4.583-6.8,2.05
			c-1.267-0.9-2.417-1.8-3.45-2.7c-0.534-0.467-2.083-1.85-4.65-4.15c-1.867-1.7-2.083-3.167-0.65-4.4
			C82.417,124.367,84.3,123.35,87.8,121.55z"/>
		<path style="fill-rule:evenodd;clip-rule:evenodd;fill:#1F2433;" d="M151,118.85c1.967,0.133,3.783,1.316,5.45,3.55
			c1.1,1.5,1.816,2.817,2.15,3.95c0.1,0.333-0.15,1.167-0.75,2.5c-1.067,2.3-1.733,3.8-2,4.5c-1.033,2.767-4.017,4.65-8.95,5.65
			c-3.066,0.633-6.533,0.767-10.4,0.4c-1.3-0.133-1.6-1.117-0.9-2.95c1.3-2.633,2.25-4.733,2.85-6.3c0.433-1.1,1.017-2.767,1.75-5
			c0.433-1.433,1.017-2.833,1.75-4.2c0.8-1.567,2.1-2.4,3.9-2.5C146.917,118.383,148.633,118.517,151,118.85z"/>
		<path style="fill-rule:evenodd;clip-rule:evenodd;fill:#1F2433;" d="M136.75,145.85c0.467,1.167,0.3,2.7-0.5,4.6
			c-0.433,1.033-1.083,2.45-1.95,4.25c-0.267,0.733-0.783,2.65-1.55,5.75c-0.6,2.333-1.25,4.2-1.95,5.6
			c-0.966,2.034-2.466,3.8-4.5,5.3c-1.133,0.833-2.9,2.133-5.3,3.9c-2.833,2.6-5.133,4.417-6.9,5.45c-3.4,1.966-5.8,1.966-7.2,0
			c-1.167-1.633-1.967-4.083-2.4-7.35c-0.333-2.767-0.35-5.417-0.05-7.95c0.466-3.9,1.633-8.533,3.5-13.9
			c0.767-2.033,2-3.55,3.7-4.55c0.767-0.434,1.75-0.85,2.95-1.25c0.7-0.233,1.733-0.55,3.1-0.95c0.167-0.067,1.716-0.75,4.65-2.05
			c1.9-0.833,3.5-1.284,4.8-1.35c0.733-0.033,1.467,0.117,2.2,0.45c0.433,0.167,1.117,0.5,2.05,1c0.567,0.267,1.567,0.583,3,0.95
			C135.6,144.183,136.383,144.883,136.75,145.85z"/>
		<path style="fill-rule:evenodd;clip-rule:evenodd;fill:#1F2433;" d="M153.7,166.75c-1.367-0.067-2.483-0.683-3.35-1.85
			c-0.9-1.167-1.233-2.533-1-4.1c0.3-2.3,2.717-3.7,7.25-4.2c1.833-0.233,3.033,1.617,3.6,5.55c0.167,1.167-0.483,2.25-1.95,3.25
			C156.817,166.367,155.3,166.817,153.7,166.75z"/>
		<path style="fill-rule:evenodd;clip-rule:evenodd;fill:#1F2433;" d="M312.1,358.25c-1.366-0.066-2.483-0.684-3.35-1.85
			c-0.9-1.167-1.233-2.534-1-4.101c0.267-2.2,2.684-3.6,7.25-4.2c1.833-0.233,3.033,1.617,3.6,5.551
			c0.167,1.166-0.483,2.25-1.949,3.25C315.217,357.866,313.7,358.316,312.1,358.25z"/>
		<path style="fill-rule:evenodd;clip-rule:evenodd;fill:#1F2433;" d="M20.65,116.35c-1.367-0.067-2.483-0.667-3.35-1.8
			c-0.9-1.167-1.233-2.533-1-4.1c0.3-2.233,2.733-3.65,7.3-4.25c1.8-0.2,2.983,1.65,3.55,5.55c0.167,1.2-0.483,2.3-1.95,3.3
			C23.767,116.017,22.25,116.45,20.65,116.35z"/>
		<path style="fill-rule:evenodd;clip-rule:evenodd;fill:#1F2433;" d="M152.55,168.9c3.333,0.667,5.434,1.533,6.3,2.6
			c0.733,0.9,0.3,2.467-1.3,4.7c-2.4,3.433-3.767,5.55-4.1,6.35c-0.9,2.067-2.367,3.817-4.4,5.25c-1.6,1.133-3.783,2.2-6.55,3.2
			c-4.4,1.6-7.783,0.35-10.15-3.75c-2.233-3.9-2.434-7.583-0.6-11.05c1.5-2.833,3.65-4.967,6.45-6.4c2.167-1.133,4.4-1.7,6.7-1.7
			C147.3,168.1,149.85,168.367,152.55,168.9z"/>
		<path style="fill-rule:evenodd;clip-rule:evenodd;fill:#1F2433;" d="M122.55,96c4.333-2.267,8.85-3.1,13.55-2.5
			c4.467,0.567,8.417,2.317,11.85,5.25c2.566,2.2,2.517,4.783-0.15,7.75c-1.833,1.867-3.25,3.35-4.25,4.45
			c-1.8,1.966-3.133,3.867-4,5.7c-1.066,2.267-2.6,5.25-4.6,8.95c-1.3,2.4-2.4,4.867-3.3,7.4c-0.967,2.767-2.816,4.617-5.55,5.55
			c-3.667,0.767-6.667,1.617-9,2.55c-2.133,0.867-5.2,0.833-9.2-0.1c-3.4-0.767-5.4-1.45-6-2.05c-0.4-0.4-0.267-3.75,0.4-10.05
			c0.733-6.733,1.667-12.2,2.8-16.4c1.133-4.1,3.25-7.4,6.35-9.9C113.017,101.3,116.717,99.1,122.55,96z"/>
		<path style="fill-rule:evenodd;clip-rule:evenodd;fill:#1F2433;" d="M84.45,86.05c1.7-1.833,4.033-2.517,7-2.05
			c1.033,0.133,4.183,1.05,9.45,2.75c3,0.967,4.333,2.45,4,4.45c-0.267,1.367-1.15,4.65-2.65,9.85c-0.767,4.4-3.717,7.767-8.85,10.1
			c-4.433,2-8.883,2.767-13.35,2.3c-4-0.467-5.45-2.434-4.35-5.9c1.667-5.566,2.8-9.167,3.4-10.8
			C81,91.383,82.783,87.817,84.45,86.05z"/>
		<path style="fill-rule:evenodd;clip-rule:evenodd;fill:#1F2433;" d="M26.55,159.55c-0.533,0.6-1.35,1.5-2.45,2.7
			c-1.1,1.1-2.467,2.117-4.1,3.05c-1.5,0.867-2.25,0.817-2.25-0.15c0.067-2.133,0.083-3.233,0.05-3.3
			c-0.733-1.533-1.283-2.75-1.65-3.65c-0.633-1.7-0.75-3.233-0.35-4.6c0.567-1.9,2.217-2.934,4.95-3.1c2.667-0.133,4.7,0.6,6.1,2.2
			c1.2,1.433,1.683,2.75,1.45,3.95C28.167,157.483,27.583,158.45,26.55,159.55z"/>
		<path style="fill-rule:evenodd;clip-rule:evenodd;fill:#1F2433;" d="M307.25,218.1c2.7-0.133,4.733,0.601,6.1,2.2
			c1.2,1.434,1.684,2.75,1.45,3.95c-0.133,0.833-0.717,1.8-1.75,2.9c-0.967,1.199-1.767,2.116-2.399,2.75
			c-1.101,1.1-2.467,2.1-4.101,3c-1.533,0.866-2.3,0.816-2.3-0.15c0.033-2.167,0.05-3.267,0.05-3.3
			c-0.733-1.533-1.283-2.75-1.649-3.65c-0.634-1.7-0.75-3.233-0.351-4.6C302.866,219.3,304.517,218.267,307.25,218.1z"/>
		<path style="fill-rule:evenodd;clip-rule:evenodd;fill:#1F2433;" d="M406.25,68.75c0.767,1.567,0.684,2.317-0.25,2.25
			c-2.2-0.133-3.316-0.2-3.35-0.2c-1.534,0.667-2.767,1.167-3.7,1.5c-1.7,0.534-3.233,0.567-4.601,0.1
			c-1.866-0.667-2.816-2.367-2.85-5.1c0-2.7,0.833-4.7,2.5-6c1.5-1.133,2.85-1.55,4.05-1.25c0.8,0.2,1.717,0.833,2.75,1.9
			c0.566,0.566,1.434,1.417,2.601,2.55C404.467,65.667,405.417,67.083,406.25,68.75z"/>
		<path style="fill-rule:evenodd;clip-rule:evenodd;fill:#1F2433;" d="M124.6,324.6c1.2,1.434,1.683,2.75,1.45,3.95
			c-0.133,0.834-0.716,1.8-1.75,2.9c-0.533,0.566-1.35,1.467-2.45,2.7c-1.1,1.1-2.467,2.116-4.1,3.05
			c-1.533,0.866-2.3,0.816-2.3-0.15c0.033-2.166,0.05-3.267,0.05-3.3c-0.733-1.533-1.283-2.767-1.65-3.7
			c-0.633-1.666-0.75-3.184-0.35-4.55c0.6-1.9,2.267-2.934,5-3.1C121.167,322.267,123.2,323,124.6,324.6z"/>
		<path style="fill-rule:evenodd;clip-rule:evenodd;fill:#1F2433;" d="M359.4,260.6c-1.101-2.3-0.301-3.733,2.399-4.3
			c1.634-0.366,4.783-0.8,9.45-1.3c1.6-0.333,3.934-0.983,7-1.95c2-0.6,4.083-0.967,6.25-1.1c2.467-0.134,4.616,1.233,6.45,4.1
			c1.1,1.7,2.6,4.7,4.5,9c1.733,3.434,2.217,7.584,1.45,12.45c-0.534,3.233-1.267,5.684-2.2,7.35c-0.267,0.5-1.417,0.884-3.45,1.15
			c-3.634,0.533-5.884,0.884-6.75,1.05c-4.066,0.867-8.95-2.3-14.65-9.5C366.184,273.017,362.7,267.366,359.4,260.6z"/>
		<path style="fill-rule:evenodd;clip-rule:evenodd;fill:#1F2433;" d="M44.4,111.05c2.167,0.733,3.684,1.817,4.55,3.25
			c1.367,2.2,2.167,4.067,2.4,5.6c0.433,2.7-0.434,5.233-2.6,7.6c-2.733,3-6.667,5.383-11.8,7.15c-5.567,1.9-9.817,1.967-12.75,0.2
			c-4.167-2.533-3.367-7.05,2.4-13.55c1.967-2.233,4.333-4.466,7.1-6.7c2.3-1.867,3.966-3.05,5-3.55
			C40.267,110.283,42.167,110.283,44.4,111.05z"/>
		<path style="fill-rule:evenodd;clip-rule:evenodd;fill:#1F2433;" d="M292.1,290.45c0.634-1.134,1.45-0.783,2.45,1.05
			c0.3,0.6,0.483,1.333,0.55,2.2c0,0.1,0.017,1.649,0.051,4.649c0,2.233-0.284,3.517-0.851,3.851c-0.5,0.366-1.083-0.2-1.75-1.7
			C290.816,296.4,290.667,293.05,292.1,290.45z"/>
		<path style="fill-rule:evenodd;clip-rule:evenodd;fill:#1F2433;" d="M5.15,280.95c0.233-0.467,0.65-0.601,1.25-0.4
			c0.567,0.2,1.083,0.634,1.55,1.3c1.2,1.7,1.083,3.317-0.35,4.851c-1.467,1.566-2.45,1.383-2.95-0.55
			C4.15,284.283,4.317,282.55,5.15,280.95z"/>
		<path style="fill-rule:evenodd;clip-rule:evenodd;fill:#1F2433;" d="M272.95,304.75c0.233-0.467,0.649-0.6,1.25-0.4
			c0.566,0.2,1.066,0.634,1.5,1.301c1.2,1.699,1.083,3.3-0.351,4.8c-1.433,1.566-2.416,1.399-2.949-0.5
			C271.9,308.05,272.083,306.316,272.95,304.75z"/>
		<path style="fill-rule:evenodd;clip-rule:evenodd;fill:#1F2433;" d="M299.55,192.7c0.233-0.434,0.65-0.55,1.25-0.351
			c0.566,0.2,1.066,0.617,1.5,1.25c1.2,1.7,1.084,3.317-0.35,4.851c-1.434,1.566-2.417,1.383-2.95-0.55
			C298.5,196.033,298.684,194.3,299.55,192.7z"/>
		<path style="fill-rule:evenodd;clip-rule:evenodd;fill:#1F2433;" d="M111.1,76.3c0.233-0.466,0.65-0.6,1.25-0.4
			c0.566,0.2,1.066,0.633,1.5,1.3c1.2,1.7,1.083,3.316-0.35,4.85c-1.433,1.567-2.417,1.383-2.95-0.55
			C110.05,79.6,110.233,77.867,111.1,76.3z"/>
		<path style="fill-rule:evenodd;clip-rule:evenodd;fill:#1F2433;" d="M364.8,339.4c0.733,1.566,0.967,3.199,0.7,4.899
			c-0.033,0.134-0.583,2.167-1.65,6.101c-1.166,4.267-3.55,5-7.149,2.199c-1.601-1.233-4.417-3.733-8.45-7.5
			c-1.967-1.833-2.2-3.433-0.7-4.8c0.3-0.267,2.283-1.383,5.95-3.35c1.934-1.033,4.083-1.316,6.45-0.851
			C362.384,336.6,364,337.7,364.8,339.4z"/>
		<path style="fill-rule:evenodd;clip-rule:evenodd;fill:#1F2433;" d="M402.45,353.25c-1.367-0.134-1.667-1.217-0.9-3.25
			c1.334-2.866,2.316-5.167,2.95-6.9c0.4-1.1,1-2.933,1.8-5.5c0.467-1.533,1.084-3.066,1.851-4.6c0.833-1.7,2.199-2.616,4.1-2.75
			c1.1-0.066,2.9,0.083,5.4,0.45c2.066,0.133,3.966,1.434,5.699,3.899c1.167,1.634,1.917,3.067,2.25,4.301
			c0.101,0.366-0.166,1.283-0.8,2.75c-1.166,2.666-1.866,4.316-2.1,4.949c-1.066,2.967-4.184,5.034-9.351,6.2
			C410.15,353.467,406.517,353.616,402.45,353.25z"/>
		<path style="fill-rule:evenodd;clip-rule:evenodd;fill:#1F2433;" d="M367.65,341.7c0.767-7.4,1.75-13.4,2.949-18
			c1.167-4.467,3.367-8.084,6.601-10.851c1.666-1.399,5.55-3.8,11.649-7.199c4.534-2.5,9.267-3.417,14.2-2.75
			c4.667,0.633,8.8,2.55,12.4,5.75c1.6,1.433,2.333,2.883,2.2,4.35c-0.134,1.134-0.917,2.533-2.351,4.2
			c-1.899,2-3.366,3.6-4.399,4.8c-1.9,2.167-3.301,4.25-4.2,6.25c-1,2.233-2.617,5.5-4.851,9.8c-1.333,2.601-2.466,5.316-3.399,8.15
			c-1.033,3.033-2.983,5.05-5.851,6.05c-3.833,0.866-6.983,1.816-9.449,2.85c-2.233,0.934-5.45,0.9-9.65-0.1
			c-3.6-0.866-5.684-1.634-6.25-2.3C366.85,352.267,366.983,348.6,367.65,341.7z"/>
		<path style="fill-rule:evenodd;clip-rule:evenodd;fill:#1F2433;" d="M365.15,305.4c3.133,1.066,4.517,2.683,4.149,4.85
			c-0.066,0.467-0.467,1.884-1.2,4.25c-0.699,2.366-1.216,4.55-1.55,6.55c-0.767,4.8-3.866,8.483-9.3,11.05
			c-4.634,2.2-9.3,3.034-14,2.5c-4.167-0.466-5.684-2.616-4.55-6.449c2.066-6.9,3.267-10.851,3.6-11.851
			c2-5.866,3.867-9.767,5.601-11.7c1.8-2,4.25-2.75,7.35-2.25C356.316,302.517,359.616,303.533,365.15,305.4z"/>
		<path style="fill-rule:evenodd;clip-rule:evenodd;fill:#1F2433;" d="M375.8,293.9c0.267-0.5,0.7-0.634,1.3-0.4
			c0.601,0.233,1.134,0.7,1.601,1.4c1.267,1.866,1.149,3.633-0.351,5.3c-1.533,1.7-2.566,1.5-3.1-0.601
			C374.717,297.566,374.9,295.667,375.8,293.9z"/>
		<path style="fill-rule:evenodd;clip-rule:evenodd;fill:#1F2433;" d="M270,61.3c0.267-0.466,0.684-0.6,1.25-0.4
			c0.566,0.2,1.083,0.633,1.55,1.3c1.2,1.7,1.084,3.316-0.35,4.85c-1.467,1.567-2.45,1.383-2.95-0.55
			C269,64.633,269.167,62.9,270,61.3z"/>
		<path style="fill-rule:evenodd;clip-rule:evenodd;fill:#1F2433;" d="M305.45,308.9c-0.967-0.5-1.084-1.851-0.351-4.051
			c0.767-2.3,2.067-3.833,3.9-4.6s3.134-0.783,3.9-0.05c0.566,0.533,0.899,1.684,1,3.45c0.133,1.566-0.867,3.017-3,4.35
			C308.767,309.4,306.95,309.7,305.45,308.9z"/>
		<path style="fill-rule:evenodd;clip-rule:evenodd;fill:#1F2433;" d="M274.7,178.2c-0.967-0.534-1.084-1.9-0.351-4.1
			c0.801-2.3,2.117-3.833,3.95-4.6c1.8-0.767,3.084-0.783,3.851-0.05c0.566,0.566,0.916,1.733,1.05,3.5c0.1,1.566-0.9,3.017-3,4.35
			C278.066,178.7,276.233,179,274.7,178.2z"/>
		<path style="fill-rule:evenodd;clip-rule:evenodd;fill:#1F2433;" d="M60.4,81.15c-0.967-0.5-1.083-1.85-0.35-4.05
			c0.8-2.333,2.117-3.883,3.95-4.65c1.833-0.767,3.117-0.784,3.85-0.05c0.6,0.567,0.95,1.733,1.05,3.5c0.1,1.567-0.9,3.017-3,4.35
			C63.767,81.65,61.933,81.95,60.4,81.15z"/>
		<path style="fill-rule:evenodd;clip-rule:evenodd;fill:#1F2433;" d="M176.5,75.15c1.367,1.3,2.567,3.583,3.6,6.85
			c1.1,3.467,0.933,5.3-0.5,5.5c-4.333,0.633-6.517,0.95-6.55,0.95c-3.066,0.133-5.167-0.567-6.3-2.1
			c-1.167-1.6-1.767-3.417-1.8-5.45c-0.034-1.066,0.167-2.75,0.6-5.05c0.333-1.767,1.633-2.85,3.9-3.25
			C171.917,72.167,174.267,73.017,176.5,75.15z"/>
		<path style="fill-rule:evenodd;clip-rule:evenodd;fill:#1F2433;" d="M222.5,359.3c1.367,1.3,2.567,3.601,3.6,6.9
			c1.1,3.5,0.933,5.333-0.5,5.5c-2.7,0.533-4.883,0.833-6.55,0.899c-3.066,0.134-5.167-0.566-6.3-2.1
			c-1.167-1.6-1.767-3.417-1.8-5.45c-0.034-1.066,0.167-2.75,0.6-5.05c0.333-1.767,1.633-2.833,3.9-3.2
			C217.917,356.366,220.267,357.2,222.5,359.3z"/>
		<path style="fill-rule:evenodd;clip-rule:evenodd;fill:#1F2433;" d="M11.05,164.45c-0.867,1.533-1.966,2.466-3.3,2.8
			c-1.4,0.333-2.617-0.083-3.65-1.25c-1.567-1.7-1.2-5.333,1.1-10.9c0.5-1.233,1.417-1.85,2.75-1.85c1.033,0,2.183,0.333,3.45,1
			c1,0.5,1.45,1.883,1.35,4.15C12.617,160.633,12.05,162.65,11.05,164.45z"/>
		<path style="fill-rule:evenodd;clip-rule:evenodd;fill:#1F2433;" d="M404.45,266.45c-0.566,0.767-1.483,0.399-2.75-1.101
			c-1.3-1.566-1.967-3.399-2-5.5c-0.066-2.066,0.217-3.333,0.85-3.8c0.5-0.399,1.334-0.333,2.5,0.2
			c1.033,0.434,1.733,1.934,2.101,4.5C405.55,263.35,405.316,265.25,404.45,266.45z"/>
		<path style="fill-rule:evenodd;clip-rule:evenodd;fill:#1F2433;" d="M146.4,244.1c1.8-1.666,3.5-2.35,5.1-2.05
			c1.333,0.233,1.633,1.017,0.9,2.351c-0.4,0.767-1.2,2.066-2.4,3.899c-0.6,1.334-1.567,2.05-2.9,2.15
			c-1.4,0.066-2.333-0.617-2.8-2.05C143.933,247.134,144.633,245.7,146.4,244.1z"/>
		<path style="fill-rule:evenodd;clip-rule:evenodd;fill:#1F2433;" d="M152,233.3c0.767-1.866,2.833-2.816,6.2-2.85
			c3.333-0.033,5.816,0.8,7.45,2.5c1.434,1.467,1.983,2.8,1.65,4c-0.233,0.833-1,1.767-2.3,2.8c-0.667,0.566-1.7,1.434-3.1,2.6
			c-1.4,1.034-3.117,1.967-5.15,2.801c-1.933,0.8-2.867,0.733-2.8-0.2c0.1-2.2,0.15-3.316,0.15-3.351
			c-0.867-1.566-1.483-2.816-1.85-3.75C151.517,236.15,151.433,234.634,152,233.3z"/>
		<path style="fill-rule:evenodd;clip-rule:evenodd;fill:#1F2433;" d="M414.75,275.8c0.566-1.899,2.217-2.934,4.95-3.1
			c2.666-0.134,4.7,0.6,6.1,2.2c1.2,1.433,1.684,2.75,1.45,3.949c-0.134,0.834-0.717,1.801-1.75,2.9
			c-0.967,1.167-1.767,2.066-2.4,2.7c-1.133,1.1-2.5,2.116-4.1,3.05c-1.533,0.866-2.3,0.816-2.3-0.15
			c0.033-2.166,0.05-3.267,0.05-3.3c-0.733-1.533-1.283-2.75-1.65-3.649C414.467,278.7,414.35,277.167,414.75,275.8z"/>
		<path style="fill-rule:evenodd;clip-rule:evenodd;fill:#1F2433;" d="M151.3,196.05c1.9-0.366,3.45-0.416,4.65-0.149
			c0.367,0.066,0.9,0.783,1.6,2.149c1.367,2.533,2.184,4.017,2.45,4.45c1.6,2.6,1.217,6.7-1.15,12.3
			c-1.434,3.533-3.583,7.233-6.45,11.101c-0.967,1.3-1.983,1.083-3.05-0.65c-1.3-2.733-2.417-4.833-3.35-6.3
			c-0.667-1.066-1.683-2.55-3.05-4.45c-0.9-1.233-1.684-2.583-2.35-4.05c-0.767-1.667-0.617-3.467,0.45-5.4
			c1.667-2.267,2.917-4,3.75-5.2C146.2,197.884,148.367,196.616,151.3,196.05z"/>
		<path style="fill-rule:evenodd;clip-rule:evenodd;fill:#1F2433;" d="M126.05,183.9c0.233-0.467,0.65-0.6,1.25-0.4
			c0.567,0.2,1.067,0.633,1.5,1.3c1.2,1.7,1.1,3.317-0.3,4.851c-1.467,1.566-2.467,1.383-3-0.551
			C125,187.233,125.183,185.5,126.05,183.9z"/>
		<path style="fill-rule:evenodd;clip-rule:evenodd;fill:#1F2433;" d="M108.1,209.4c-0.967-0.5-1.083-1.851-0.35-4.051
			c0.767-2.333,2.067-3.866,3.9-4.6c1.833-0.767,3.117-0.783,3.85-0.05c0.6,0.533,0.95,1.684,1.05,3.45c0.1,1.566-0.9,3.017-3,4.35
			C111.417,209.9,109.6,210.2,108.1,209.4z"/>
		<path style="fill-rule:evenodd;clip-rule:evenodd;fill:#1F2433;" d="M437.1,244.4c-0.966-0.5-1.083-1.851-0.35-4.051
			c0.767-2.333,2.066-3.866,3.9-4.6c1.833-0.767,3.116-0.783,3.85-0.05c0.6,0.533,0.95,1.684,1.05,3.45
			c0.101,1.566-0.899,3.017-3,4.35C440.417,244.9,438.6,245.2,437.1,244.4z"/>
		<path style="fill-rule:evenodd;clip-rule:evenodd;fill:#1F2433;" d="M123.6,210.95c2.3-2.066,4.1-3.25,5.4-3.55
			c1.2-0.267,2.333,0.149,3.4,1.25c0.434,0.466,1.567,2.033,3.4,4.699c1.8,2.601,3.6,4.834,5.4,6.7
			c4.3,4.467,5.333,11.316,3.1,20.55c-1.9,7.9-5.267,14.9-10.1,21c-4.233,5.4-7.85,5.967-10.85,1.7
			c-4.934-7.033-7.967-11.45-9.1-13.25c-4.3-6.899-6.667-12.217-7.1-15.95c-0.467-3.866,0.95-7.767,4.25-11.699
			C112.6,221,116.667,217.184,123.6,210.95z"/>
		<path style="fill-rule:evenodd;clip-rule:evenodd;fill:#1F2433;" d="M415.6,21.95c2.301-2.067,4.101-3.25,5.4-3.55
			c1.2-0.267,2.333,0.15,3.4,1.25c0.433,0.467,1.566,2.033,3.399,4.7c1.8,2.6,3.601,4.833,5.4,6.7c4.3,4.467,5.333,11.317,3.1,20.55
			c-1.899,7.9-5.267,14.9-10.1,21c-4.233,5.4-7.851,5.967-10.851,1.7c-4.933-7.033-7.966-11.45-9.1-13.25
			c-4.3-6.9-6.667-12.216-7.1-15.95c-0.467-3.867,0.949-7.767,4.25-11.7C404.6,32,408.667,28.183,415.6,21.95z"/>
		<path style="fill-rule:evenodd;clip-rule:evenodd;fill:#1F2433;" d="M37.05,75.25c-3.233,0.833-6.383,0.217-9.45-1.85
			c-1.1-0.733-4.067-3.417-8.9-8.05c-1.6-1.533-2.5-2.783-2.7-3.75c-0.167-0.9,0.25-1.833,1.25-2.8
			c3.767-2.667,7.083-5.433,9.95-8.3c3.933-3.933,9.683-5.617,17.25-5.05c6.466,0.5,12.117,2.233,16.95,5.2
			c4.233,2.633,4.517,5.367,0.85,8.2c-5.833,4.533-9.683,7.467-11.55,8.8C44.733,71.883,40.183,74.417,37.05,75.25z"/>
		<path style="fill-rule:evenodd;clip-rule:evenodd;fill:#1F2433;" d="M345.6,240c-0.633,0.6-1.183-0.217-1.649-2.45
			s-0.233-3.583,0.7-4.05c1.066-0.5,1.8,0.15,2.199,1.95C347.283,237.283,346.866,238.8,345.6,240z"/>
		<path style="fill-rule:evenodd;clip-rule:evenodd;fill:#1F2433;" d="M19.45,215.9c0.7-1.334,1.6-0.15,2.7,3.55
			c0.367,1.2,0.583,2.517,0.65,3.95c0,0.3,0.017,2.75,0.05,7.35c0,3.533-0.317,5.35-0.95,5.45c-0.6,0.133-1.25-1.233-1.95-4.101
			c-0.833-3.233-1.333-6.183-1.5-8.85C18.217,219.95,18.55,217.5,19.45,215.9z"/>
		<path style="fill-rule:evenodd;clip-rule:evenodd;fill:#1F2433;" d="M29.85,165.5c0.233-0.467,0.65-0.6,1.25-0.4
			c0.566,0.2,1.066,0.633,1.5,1.3c1.2,1.7,1.083,3.317-0.35,4.85c-1.433,1.567-2.417,1.383-2.95-0.55
			C28.8,168.8,28.983,167.067,29.85,165.5z"/>
		<path style="fill-rule:evenodd;clip-rule:evenodd;fill:#1F2433;" d="M47.95,193.95c0.733-1.934,1.5-2.7,2.3-2.3
			c0.567,0.3,1.883,1.199,3.95,2.699c1.8,0.9,2.933,3.217,3.4,6.95c0.4,3.167,0.267,6.25-0.4,9.25c-0.6,2.634-1.6,3.417-3,2.351
			c-2.034-1.5-3.45-2.584-4.25-3.25c-2.1-1.801-3.45-3.351-4.05-4.65s-0.65-2.934-0.15-4.9C45.95,199.4,46.683,197.35,47.95,193.95z
			"/>
		<path style="fill-rule:evenodd;clip-rule:evenodd;fill:#1F2433;" d="M91.2,19.55c-0.6,2.633-1.6,3.417-3,2.35
			c-2.034-1.5-3.45-2.583-4.25-3.25c-2.1-1.8-3.45-3.35-4.05-4.65s-0.65-2.933-0.15-4.9c0.2-0.7,0.933-2.75,2.2-6.15
			c0.733-1.934,1.5-2.7,2.3-2.3c0.567,0.3,1.883,1.2,3.95,2.7c1.8,0.9,2.933,3.217,3.4,6.95C92,13.467,91.867,16.55,91.2,19.55z"/>
		<path style="fill-rule:evenodd;clip-rule:evenodd;fill:#1F2433;" d="M20.2,209.8c-0.633,0.601-1.184-0.233-1.65-2.5
			c-0.466-2.233-0.233-3.566,0.7-4c1.067-0.5,1.8,0.15,2.2,1.95C21.883,207.083,21.467,208.6,20.2,209.8z"/>
		<path style="fill-rule:evenodd;clip-rule:evenodd;fill:#1F2433;" d="M57.65,232.15c0.167,4.833-0.383,10.616-1.65,17.35
			c-1.133,6-1.967,9.116-2.5,9.35c-3.567,2.434-6.133,4.067-7.7,4.9c-2.7,1.434-5.216,0.967-7.55-1.4
			c-2.633-2.733-4.983-6.267-7.05-10.6c-1.8-3.8-3.2-7.85-4.2-12.15c-0.733-3-1.267-7.366-1.6-13.1c-0.4-6.066-0.7-9.616-0.9-10.65
			c-0.5-2.333-0.167-5.267,1-8.8c1.2-3.633,2.783-6.399,4.75-8.3c1.7-1.634,4.2-0.7,7.5,2.8c1.9,2.033,4.783,5.617,8.65,10.75
			c1.833,2.233,4.35,5,7.55,8.3C56.25,223.667,57.483,227.517,57.65,232.15z"/>
		<path style="fill-rule:evenodd;clip-rule:evenodd;fill:#1F2433;" d="M346.5,33.05c1.467,0.133,0.75,1.467-2.15,4
			c-0.933,0.8-2.033,1.517-3.3,2.15c-0.333,0.167-2.566,1.183-6.7,3.05c-3.199,1.467-4.983,1.95-5.35,1.45
			c-0.333-0.5,0.65-1.667,2.95-3.5c2.633-2.067,5.116-3.733,7.45-5C342.3,33.633,344.667,32.917,346.5,33.05z"/>
		<path style="fill-rule:evenodd;clip-rule:evenodd;fill:#1F2433;" d="M364.8,58.25c0.767-2.633,1.601-4.483,2.5-5.55
			c0.967-1.1,2.45-1.817,4.45-2.15c0.733-0.133,2.9-0.316,6.5-0.55c2.066-0.133,3.083,0.25,3.05,1.15
			c-0.033,0.633-0.316,2.2-0.85,4.7c-0.101,2.033-1.733,4.033-4.9,6c-2.733,1.633-5.6,2.767-8.6,3.4c-2.667,0.533-3.8-0.05-3.4-1.75
			C364.116,60.9,364.533,59.15,364.8,58.25z"/>
		<path style="fill-rule:evenodd;clip-rule:evenodd;fill:#1F2433;" d="M352.35,31.25c-0.8-0.333-0.267-1.167,1.601-2.5
			c1.833-1.367,3.149-1.717,3.95-1.05c0.899,0.767,0.6,1.716-0.9,2.85S353.95,31.917,352.35,31.25z"/>
		<path style="fill-rule:evenodd;clip-rule:evenodd;fill:#1F2433;" d="M367.1,43.9c-1.066,2.567-3.133,6.65-6.199,12.25
			c-1.867,4.833-3.351,8.267-4.45,10.3c-1.867,3.367-4.867,6.083-9,8.15c-4.334,2.133-9.851,4.017-16.55,5.65
			c-5.934,1.4-9.117,1.917-9.551,1.55c-3.666-2.233-6.199-3.9-7.6-5c-2.4-1.867-3-4.35-1.8-7.45c1.399-3.533,3.649-7.133,6.75-10.8
			c2.7-3.2,5.8-6.15,9.3-8.85c2.434-1.867,6.2-4.15,11.3-6.85c5.334-2.833,8.434-4.567,9.3-5.2c1.934-1.367,4.75-2.267,8.45-2.7
			c3.8-0.4,6.967-0.1,9.5,0.9C368.75,36.75,368.934,39.433,367.1,43.9z"/>
		<path style="fill-rule:evenodd;clip-rule:evenodd;fill:#1F2433;" d="M65.65,113.85c-1.5,2.167-3.183,2.75-5.05,1.75
			c-1.767-0.967-2.633-2.533-2.6-4.7c0.033-1.733,0.483-3.367,1.35-4.9c0.667-1.233,1.483-2.233,2.45-3
			c1.667-1.433,3.067-2.6,4.2-3.5c2.1-1.633,3.417-2.367,3.95-2.2c0.466,0.133,0.367,1.4-0.3,3.8c-0.833,2.867-1.233,4.667-1.2,5.4
			C68.583,108.567,67.65,111.017,65.65,113.85z"/>
		<path style="fill-rule:evenodd;clip-rule:evenodd;fill:#1F2433;" d="M402.6,366.55c-1.699,0.467-3.416,0.5-5.149,0.101
			c-1.367-0.301-2.55-0.817-3.55-1.551c-1.834-1.199-3.334-2.199-4.5-3c-2.167-1.566-3.233-2.633-3.2-3.199
			c0-0.5,1.233-0.75,3.7-0.75c3-0.034,4.85-0.167,5.55-0.4c1.899-0.667,4.517-0.45,7.85,0.65c2.5,0.833,3.517,2.3,3.05,4.399
			C405.917,364.733,404.667,365.983,402.6,366.55z"/>
		<path style="fill-rule:evenodd;clip-rule:evenodd;fill:#1F2433;" d="M16.4,292.15c3.267-5.233,5.267-8.367,6-9.4
			c3.167-4.6,5.767-7.5,7.8-8.7c2.1-1.233,4.517-1.2,7.25,0.101c1,0.466,3.8,2.283,8.4,5.449c2.633,1.834,3.55,3.65,2.75,5.45
			c-0.567,1.267-2.233,4.167-5,8.7c-1.8,4-5.483,6.366-11.05,7.1c-4.767,0.634-9.25,0.051-13.45-1.75
			C15.4,297.467,14.5,295.15,16.4,292.15z"/>
		<path style="fill-rule:evenodd;clip-rule:evenodd;fill:#1F2433;" d="M2.4,270.35c-0.967-0.533-1.083-1.899-0.35-4.1
			c0.8-2.3,2.117-3.833,3.95-4.6s3.117-0.784,3.85-0.051c0.6,0.567,0.95,1.733,1.05,3.5c0.1,1.567-0.9,3.017-3,4.351
			C5.767,270.85,3.933,271.15,2.4,270.35z"/>
		<path style="fill-rule:evenodd;clip-rule:evenodd;fill:#1F2433;" d="M430.6,342.6c1.834-0.767,3.117-0.783,3.851-0.05
			c0.6,0.566,0.95,1.733,1.05,3.5c0.1,1.566-0.9,3.017-3,4.351c-2.134,1.399-3.967,1.699-5.5,0.899c-0.934-0.5-1.033-1.85-0.3-4.05
			C427.467,344.917,428.767,343.366,430.6,342.6z"/>
		<path style="fill-rule:evenodd;clip-rule:evenodd;fill:#1F2433;" d="M53.4,13.35c-0.967-0.533-1.083-1.9-0.35-4.1
			c0.8-2.3,2.117-3.833,3.95-4.6s3.117-0.783,3.85-0.05c0.6,0.566,0.95,1.733,1.05,3.5c0.1,1.566-0.9,3.017-3,4.35
			C56.767,13.85,54.933,14.15,53.4,13.35z"/>
		<path style="fill-rule:evenodd;clip-rule:evenodd;fill:#1F2433;" d="M1.35,295.15c0.667-1.2,1.483-2.2,2.45-3
			c1.667-1.434,3.067-2.584,4.2-3.45c2.1-1.634,3.417-2.384,3.95-2.25c0.466,0.133,0.367,1.399-0.3,3.8
			c-0.833,2.9-1.233,4.717-1.2,5.45c0.133,2.033-0.8,4.483-2.8,7.35c-1.5,2.167-3.183,2.75-5.05,1.75
			c-1.767-0.967-2.633-2.533-2.6-4.7C0.033,298.366,0.483,296.717,1.35,295.15z"/>
		<path style="fill-rule:evenodd;clip-rule:evenodd;fill:#1F2433;" d="M246.25,223.9c3.066,2.5,3.05,5.683-0.05,9.55
			c-1.101,1.399-2.167,2.666-3.2,3.8c-0.533,0.6-2.134,2.3-4.8,5.1c-1.934,2.067-3.25,1.983-3.95-0.25
			c-0.134-0.466-0.5-3.25-1.1-8.35c-0.334-2.733,0-5.533,1-8.4c1-2.966,2.267-4.75,3.8-5.35c1.366-0.533,2.684-0.417,3.95,0.35
			C241.967,220.384,243.417,221.566,246.25,223.9z"/>
		<path style="fill-rule:evenodd;clip-rule:evenodd;fill:#1F2433;" d="M331.95,12c1.366-0.533,2.684-0.417,3.95,0.35
			c0.066,0.033,1.517,1.217,4.35,3.55c3.066,2.5,3.05,5.684-0.05,9.55c-1.101,1.4-2.167,2.667-3.2,3.8c-0.533,0.6-2.134,2.3-4.8,5.1
			c-1.934,2.066-3.25,1.983-3.95-0.25c-0.134-0.467-0.5-3.25-1.1-8.35c-0.334-2.733,0-5.533,1-8.4
			C329.15,14.383,330.417,12.6,331.95,12z"/>
		<path style="fill-rule:evenodd;clip-rule:evenodd;fill:#1F2433;" d="M255.5,220.4c1.066,0.399,1.134,1.6,0.2,3.6
			c-0.934,1.934-2.2,2.3-3.8,1.1c-1.634-1.233-1.801-2.466-0.5-3.699C252.667,220.233,254.033,219.9,255.5,220.4z"/>
		<path style="fill-rule:evenodd;clip-rule:evenodd;fill:#1F2433;" d="M401,22.3c1.1,0.367,1.167,1.55,0.2,3.55
			c-0.934,1.933-2.2,2.3-3.8,1.1c-1.634-1.233-1.801-2.45-0.5-3.65C398.167,22.1,399.533,21.767,401,22.3z"/>
		<path style="fill-rule:evenodd;clip-rule:evenodd;fill:#1F2433;" d="M246.5,11.4c1.066,0.4,1.134,1.6,0.2,3.6
			c-0.934,1.933-2.2,2.3-3.8,1.1c-1.634-1.233-1.801-2.467-0.5-3.7C243.667,11.233,245.033,10.9,246.5,11.4z"/>
		<path style="fill-rule:evenodd;clip-rule:evenodd;fill:#1F2433;" d="M42,22.3c1.1,0.367,1.167,1.55,0.2,3.55
			c-0.934,1.933-2.2,2.3-3.8,1.1c-1.633-1.233-1.8-2.45-0.5-3.65C39.167,22.1,40.533,21.767,42,22.3z"/>
		<path style="fill-rule:evenodd;clip-rule:evenodd;fill:#1F2433;" d="M204.8,221.3c2.5-2.7,6.567-4.033,12.2-4
			c3.067,0.033,7.233,0.3,12.5,0.8c2.366-0.066,2.583,1.767,0.65,5.5c-2.567,4.934-3.717,8.134-3.45,9.601
			c0.466,2.467-1.133,5.416-4.8,8.85c-3.3,3.101-6.4,5.066-9.3,5.9c-2.467,0.733-5.367,0.85-8.7,0.35c-3.733-0.533-6-1.684-6.8-3.45
			c-0.9-2.033-0.583-5.633,0.95-10.8C199.683,228.616,201.933,224.366,204.8,221.3z"/>
		<path style="fill-rule:evenodd;clip-rule:evenodd;fill:#1F2433;" d="M214.05,187.5c-0.1-2.3,2.417-4.083,7.55-5.35
			c6.466-1.6,10.417-3.017,11.85-4.25c2.233-1.933,5.184-2.3,8.85-1.1c2.033,0.633,4.934,1.7,8.7,3.2
			c9.3,1.767,15.384,5.767,18.25,12c2.434,5.267,2.217,10.434-0.65,15.5c-2.366,4.233-6.566,6.95-12.6,8.15
			c-5.866,1.166-12.366,0.683-19.5-1.45c-6.3-1.867-11.767-6.066-16.4-12.601C216.267,196.2,214.25,191.5,214.05,187.5z"/>
		<path style="fill-rule:evenodd;clip-rule:evenodd;fill:#1F2433;" d="M284.2,25c4.833-5.567,11.649-9.2,20.45-10.9
			c7.3-1.434,13-1.317,17.1,0.35c2.4,1,3.066,4.417,2,10.25c-1.366,7.4-1.75,12.117-1.15,14.15c0.934,3.167-0.066,6.35-3,9.55
			c-3.699,3.333-6.133,5.817-7.3,7.45c-6.1,8.7-12.983,13.066-20.649,13.1c-6.467,0.033-11.617-2.6-15.45-7.9
			c-3.2-4.4-4.033-9.966-2.5-16.7C275.233,37.75,278.733,31.3,284.2,25z"/>
		<path style="fill-rule:evenodd;clip-rule:evenodd;fill:#1F2433;" d="M214.65,202.9c0.5,0.5,1.817,1.783,3.95,3.85
			c1.9,1.967,2.867,3.3,2.9,4c0.033,0.6-0.967,0.866-3,0.8c-2.433-0.066-3.933,0.033-4.5,0.3c-0.9,0.434-1.933,0.534-3.1,0.301
			c-0.933-0.2-2.066-0.65-3.4-1.351c-2.1-1.1-3.05-2.916-2.85-5.45c0.167-2.399,1.083-3.899,2.75-4.5
			c1.367-0.5,2.767-0.483,4.2,0.051C212.767,201.333,213.783,202,214.65,202.9z"/>
		<path style="fill-rule:evenodd;clip-rule:evenodd;fill:#1F2433;" d="M217,10.3c-2.1-1.133-3.05-2.95-2.85-5.45
			c0.167-2.4,1.083-3.9,2.75-4.5c1.367-0.5,2.767-0.483,4.2,0.05c1.167,0.434,2.183,1.1,3.05,2c0.5,0.5,1.817,1.783,3.95,3.85
			c1.9,1.933,2.867,3.25,2.9,3.95c0.033,0.6-0.967,0.883-3,0.85c-2.467-0.066-3.967,0.034-4.5,0.3
			C222,12.083,219.833,11.733,217,10.3z"/>
		<path style="fill-rule:evenodd;clip-rule:evenodd;fill:#1F2433;" d="M46.15,341.5c2.6-1.533,4.717-1.983,6.35-1.35
			c1.433,0.566,2.417,1.6,2.95,3.1c0.033,0.066,0.45,1.983,1.25,5.75c0.9,4.066-1.1,6.483-6,7.25c-2.1,0.333-6.05,0.7-11.85,1.1
			c-2.833,0.2-3.833-0.8-3-3c0.167-0.366,1.6-2.75,4.3-7.149C41.583,344.9,43.583,343,46.15,341.5z"/>
		<path style="fill-rule:evenodd;clip-rule:evenodd;fill:#1F2433;" d="M66.25,352.9c0.6,1.033-0.083,1.966-2.05,2.8
			c-1.967,0.833-3.217,0.217-3.75-1.851c-0.567-2.1,0.05-3.149,1.85-3.149C64.067,350.7,65.383,351.434,66.25,352.9z"/>
		<path style="fill-rule:evenodd;clip-rule:evenodd;fill:#1F2433;" d="M46.95,332.7c1.2,1,1.45,1.899,0.75,2.7
			c-0.534,0.566-1.767,1.216-3.7,1.949c-5.1,1.967-7.983,3.617-8.65,4.95c-1.133,2.167-4.233,3.267-9.3,3.3
			c-4.6,0.034-8.3-0.649-11.1-2.05c-2.4-1.2-4.784-3.166-7.15-5.899c-2.667-3.067-3.767-5.551-3.3-7.45
			c0.533-2.2,3.017-4.7,7.45-7.5c4.7-3,9.133-4.667,13.3-5c3.633-0.3,7.7,1.566,12.2,5.6C39.883,325.5,43.05,328.634,46.95,332.7z"
			/>
		<path style="fill-rule:evenodd;clip-rule:evenodd;fill:#1F2433;" d="M85.15,46.2c1.434-2.3,3.434-4.2,6-5.7
			c2.6-1.533,4.717-1.983,6.35-1.35c1.433,0.567,2.417,1.6,2.95,3.1c0.033,0.067,0.45,1.983,1.25,5.75c0.9,4.067-1.1,6.483-6,7.25
			c-2.1,0.333-6.05,0.7-11.85,1.1c-2.833,0.2-3.833-0.8-3-3C81.017,52.983,82.45,50.6,85.15,46.2z"/>
		<path style="fill-rule:evenodd;clip-rule:evenodd;fill:#1F2433;" d="M82.45,22.3c2.433,2.2,5.6,5.333,9.5,9.4
			c1.2,1,1.45,1.9,0.75,2.7c-0.534,0.567-1.767,1.217-3.7,1.95c-5.1,1.967-7.983,3.617-8.65,4.95c-1.133,2.167-4.233,3.267-9.3,3.3
			c-4.6,0.033-8.3-0.65-11.1-2.05c-2.4-1.2-4.784-3.167-7.15-5.9c-2.667-3.066-3.767-5.55-3.3-7.45c0.533-2.2,3.017-4.7,7.45-7.5
			c4.667-3,9.1-4.667,13.3-5C73.883,16.4,77.95,18.267,82.45,22.3z"/>
		<path style="fill-rule:evenodd;clip-rule:evenodd;fill:#1F2433;" d="M54.95,334.7c-3.867-5.867-5.617-12.934-5.25-21.2
			c0.3-6.833,1.6-11.833,3.9-15c1.367-1.833,4.5-1.417,9.4,1.25c6.133,3.333,10.15,5.033,12.05,5.1c2.967,0.134,5.534,1.95,7.7,5.45
			c1.233,1.934,2.883,4.783,4.95,8.55c6.3,7.934,8.667,15.284,7.1,22.051c-1.333,5.733-4.7,9.517-10.1,11.35
			c-4.5,1.566-9.534,0.684-15.1-2.65C64.2,346.333,59.317,341.366,54.95,334.7z"/>
		<path style="fill-rule:evenodd;clip-rule:evenodd;fill:#1F2433;" d="M43.35,307c0.633,1.134,1.017,2.35,1.15,3.65
			c0.1,0.733,0.35,2.633,0.75,5.699c0.3,2.867,0.267,4.567-0.1,5.101c-0.333,0.5-1.3,0.017-2.9-1.45c-1.933-1.833-3.2-2.833-3.8-3
			c-1-0.267-1.883-0.917-2.65-1.95c-0.6-0.767-1.216-1.899-1.85-3.399c-1-2.367-0.633-4.434,1.1-6.2c1.6-1.7,3.25-2.2,4.95-1.5
			C41.4,304.55,42.517,305.566,43.35,307z"/>
		<path style="fill-rule:evenodd;clip-rule:evenodd;fill:#1F2433;" d="M259.55,222.8c0.066-1.767,1.316-3.283,3.75-4.55
			c2.434-1.333,4.384-1.467,5.851-0.4c1.267,0.9,1.283,2.034,0.05,3.4c-1.834,1.634-3.117,2.917-3.851,3.85
			c-1.066,1.467-2.316,1.95-3.75,1.45C260.167,226.05,259.483,224.8,259.55,222.8z"/>
		<path style="fill-rule:evenodd;clip-rule:evenodd;fill:#1F2433;" d="M277.25,193.3c1.934-2.366,3.2-3.649,3.8-3.85
			c0.4-0.101,2.15,1.783,5.25,5.649c3.367,4.134,5.917,7.767,7.65,10.9c1.733,3.066,2.583,6.517,2.55,10.35
			c0,2-0.45,6.184-1.35,12.551c-0.7,4.767-2.267,8.916-4.7,12.449c-2.3,3.334-5,5.634-8.101,6.9c-2.333,0.967-3.716-0.434-4.149-4.2
			c-0.733-6.767-1.334-10.783-1.8-12.05c-0.767-2.066-1.7-4.884-2.801-8.45c-0.733-2.333-1.583-4.533-2.55-6.6
			c-1.1-2.267-1.283-4.75-0.55-7.45c1.2-3.4,2.066-6.316,2.6-8.75C273.6,198.583,274.983,196.1,277.25,193.3z"/>
		<path style="fill-rule:evenodd;clip-rule:evenodd;fill:#1F2433;" d="M258.75,242.65c0.033-2.7,1.316-5.767,3.85-9.2
			c1.367-1.834,3.317-4.25,5.851-7.25c1-1.434,1.816-0.733,2.45,2.1c0.8,3.767,1.55,5.9,2.25,6.4c1.166,0.8,1.616,3.083,1.35,6.85
			c-0.233,3.4-0.833,6.167-1.8,8.3c-0.8,1.801-2.05,3.617-3.75,5.45c-1.867,2.033-3.316,2.884-4.351,2.55
			c-1.199-0.333-2.466-2.133-3.8-5.399C259.4,249.05,258.717,245.783,258.75,242.65z"/>
		<path style="fill-rule:evenodd;clip-rule:evenodd;fill:#1F2433;" d="M253.35,244.25c1.034-1.233,1.9-0.934,2.601,0.9
			c0.399,1.1,1.017,3,1.85,5.699c0.8,1.767,0.8,3.417,0,4.95c-0.8,1.566-1.967,2-3.5,1.3c-1.333-0.6-2.133-2.517-2.399-5.75
			C251.6,248.05,252.083,245.684,253.35,244.25z"/>
		<path style="fill-rule:evenodd;clip-rule:evenodd;fill:#1F2433;" d="M447.95,40.1c0.8,1.233,0.434,3.283-1.101,6.15
			c-1.566,2.9-3.283,4.617-5.149,5.15c-1.533,0.467-2.084-0.267-1.65-2.2c0.867-2.633,1.384-4.567,1.55-5.8
			c0.301-1.867,1.2-3.233,2.7-4.1C445.833,38.433,447.05,38.7,447.95,40.1z"/>
		<path style="fill-rule:evenodd;clip-rule:evenodd;fill:#1F2433;" d="M11.1,169.65c1.133-1.433,2.467-1.55,4-0.35
			c1.566,1.267,2.217,3.2,1.95,5.8c-0.233,2.4-0.883,4.316-1.95,5.75c-0.533,0.7-1.867,1.933-4,3.7c-1.6,1.333-2.367-0.367-2.3-5.1
			C8.9,174.717,9.667,171.45,11.1,169.65z"/>
		<path style="fill-rule:evenodd;clip-rule:evenodd;fill:#1F2433;" d="M316.5,231.3c1.167-1.434,2.517-1.55,4.05-0.35
			c1.566,1.267,2.217,3.2,1.95,5.8c-0.233,2.4-0.884,4.316-1.95,5.75c-0.566,0.7-1.916,1.934-4.05,3.7
			c-1.566,1.333-2.316-0.367-2.25-5.101S315.066,233.1,316.5,231.3z"/>
		<path style="fill-rule:evenodd;clip-rule:evenodd;fill:#1F2433;" d="M296.05,86.25c1.134-1.433,2.467-1.55,4-0.35
			c1.566,1.267,2.233,3.2,2,5.8c-0.233,2.4-0.899,4.316-2,5.75c-0.5,0.667-1.833,1.9-4,3.7c-1.6,1.333-2.35-0.383-2.25-5.15
			C293.866,91.267,294.616,88.017,296.05,86.25z"/>
		<path style="fill-rule:evenodd;clip-rule:evenodd;fill:#1F2433;" d="M84.4,278.55c1.934-1.166,4.7-1.149,8.3,0.05
			c1.966,0.667,4.583,1.717,7.85,3.15c1.5,0.467,1.383,1.684-0.35,3.65c-2.3,2.633-3.467,4.449-3.5,5.449
			c-0.034,1.667-1.467,3.217-4.3,4.65c-2.566,1.3-4.816,1.9-6.75,1.8c-1.667-0.066-3.533-0.616-5.6-1.649
			c-2.3-1.134-3.583-2.334-3.85-3.601c-0.3-1.5,0.4-3.733,2.1-6.7C80.1,282.184,82.133,279.917,84.4,278.55z"/>
		<path style="fill-rule:evenodd;clip-rule:evenodd;fill:#1F2433;" d="M370.65,21.3c-1.667-0.066-3.534-0.617-5.601-1.65
			c-2.3-1.133-3.583-2.333-3.85-3.6c-0.3-1.5,0.399-3.733,2.1-6.7c1.8-3.167,3.834-5.434,6.101-6.8c1.933-1.167,4.699-1.15,8.3,0.05
			c1.967,0.667,4.583,1.717,7.85,3.15c1.5,0.467,1.384,1.683-0.35,3.65c-2.3,2.633-3.467,4.45-3.5,5.45
			c-0.033,1.667-1.467,3.217-4.3,4.65C374.833,20.8,372.583,21.4,370.65,21.3z"/>
		<path style="fill-rule:evenodd;clip-rule:evenodd;fill:#1F2433;" d="M113.5,283.6c0.967,0.967,0.95,2.733-0.05,5.301
			c-0.8,2.066-2.2,4.517-4.2,7.35c-1.533,2.134-3.117,3.783-4.75,4.95c-0.667,0.467-2.15,1.283-4.45,2.45
			c-1.333,0.699-2.167,0.183-2.5-1.551c-0.2-1.1-0.2-3.1,0-6c0.233-2.866,2.833-6.933,7.8-12.199c1.033-1.134,2.2-1.817,3.5-2.051
			C110.483,281.55,112.033,282.134,113.5,283.6z"/>
		<path style="fill-rule:evenodd;clip-rule:evenodd;fill:#1F2433;" d="M412.4,82.15c1.733,0.5,1.6,1.867-0.4,4.1
			c-2.667,2.967-4.017,5.017-4.05,6.15c-0.066,1.867-1.733,3.6-5,5.2c-2.934,1.467-5.533,2.15-7.8,2.05
			c-1.934-0.1-4.101-0.717-6.5-1.85c-2.667-1.3-4.15-2.667-4.45-4.1c-0.334-1.667,0.483-4.167,2.45-7.5
			c2.1-3.567,4.449-6.117,7.05-7.65c2.267-1.333,5.467-1.3,9.6,0.1C405.566,79.383,408.6,80.55,412.4,82.15z"/>
		<path style="fill-rule:evenodd;clip-rule:evenodd;fill:#1F2433;" d="M427.4,84.2c1.1,1.1,1.083,3.083-0.051,5.95
			c-0.966,2.367-2.6,5.133-4.899,8.3c-1.733,2.4-3.566,4.25-5.5,5.55c-0.667,0.467-2.367,1.383-5.101,2.75
			c-1.566,0.8-2.533,0.233-2.899-1.7c-0.267-1.267-0.267-3.517,0-6.75c0.166-2.1,1.467-4.75,3.899-7.95
			c1.134-1.467,2.834-3.4,5.101-5.8c1.2-1.3,2.55-2.066,4.05-2.3C423.9,81.917,425.7,82.567,427.4,84.2z"/>
		<path style="fill-rule:evenodd;clip-rule:evenodd;fill:#1F2433;" d="M360.75,374.3c-1.5,2.233-4.7,3.167-9.6,2.8
			c-4.101-0.267-8.967-1.383-14.601-3.35c-4.3-1.467-7.733-3.333-10.3-5.6c-0.934-0.801-2.833-2.934-5.7-6.4
			c-1.633-1.967-0.934-3.717,2.101-5.25c2-1,5.649-2.1,10.949-3.3c3.434-0.8,8.034-0.117,13.801,2.05
			c2.433,0.9,5.983,2.533,10.649,4.9c2.367,1.166,3.917,2.833,4.65,5C363.667,367.884,363.017,370.934,360.75,374.3z"/>
		<path style="fill-rule:evenodd;clip-rule:evenodd;fill:#1F2433;" d="M293.5,258.9c0.566-0.4,1.15-0.351,1.75,0.149
			c0.3,0.267,0.533,0.566,0.7,0.9l0.399,1.55c0.101,1.2-0.3,2.15-1.199,2.85c-1.067,0.801-1.817,0.267-2.25-1.6
			C292.434,260.85,292.634,259.566,293.5,258.9z"/>
		<path style="fill-rule:evenodd;clip-rule:evenodd;fill:#1F2433;" d="M109.95,332.3c0.566-0.399,1.15-0.35,1.75,0.15
			c0.3,0.233,0.533,0.517,0.7,0.85l0.4,1.55c0.1,1.2-0.3,2.15-1.2,2.851c-1.067,0.8-1.817,0.267-2.25-1.601
			C108.883,334.233,109.083,332.967,109.95,332.3z"/>
		<path style="fill-rule:evenodd;clip-rule:evenodd;fill:#1F2433;" d="M197,169.65c0.6-0.4,1.183-0.35,1.75,0.15
			c0.3,0.233,0.533,0.517,0.7,0.85l0.45,1.55c0.1,1.2-0.316,2.15-1.25,2.85c-1.033,0.833-1.783,0.3-2.25-1.6
			C195.933,171.583,196.133,170.317,197,169.65z"/>
		<path style="fill-rule:evenodd;clip-rule:evenodd;fill:#1F2433;" d="M326.25,259.3c2.533-0.666,3.75,0.467,3.65,3.4
			c-0.101,2.267-1.017,4.666-2.75,7.2c-1.534,2.267-2.217,3.767-2.051,4.5c0.267,1.066,0.034,2.649-0.699,4.75
			c-0.434,1.3-1.367,3.833-2.801,7.6c-1.166,3.434-2.466,5.733-3.899,6.9c-1.7,1.366-4.117,1.733-7.25,1.1
			c-1.167-0.233-1.75-2.233-1.75-6c0.233-4.333,0.316-7.15,0.25-8.45c-0.066-1.633,1.149-4.133,3.649-7.5
			c1.4-1.899,3.667-4.717,6.801-8.45C321.6,261.583,323.884,259.9,326.25,259.3z"/>
		<path style="fill-rule:evenodd;clip-rule:evenodd;fill:#1F2433;" d="M347.95,285.85c0.666,0.467,0.149,2.117-1.55,4.95
			c-2.134,3.233-3.483,5.351-4.051,6.351c-0.699,1.267-2.633,2.866-5.8,4.8c-3.899,2.2-6.684,3.767-8.35,4.7
			c-2.7,1.566-4.967,2.3-6.8,2.199c-1.967-0.1-2.25-1.25-0.851-3.449c1.101-1.7,2.8-3.301,5.101-4.801
			c2.066-1.333,3.199-2.3,3.399-2.899c0.3-0.867,1.167-2.017,2.601-3.45c0.899-0.866,2.683-2.566,5.35-5.1
			c2.366-2.334,4.267-3.75,5.7-4.25C344.434,284.267,346.184,284.583,347.95,285.85z"/>
		<path style="fill-rule:evenodd;clip-rule:evenodd;fill:#1F2433;" d="M340.5,241.8c2.066-0.967,4,0.066,5.8,3.101
			c1.767,2.966,2.733,6.616,2.9,10.949c0.233,6.367-2.783,14.4-9.05,24.101c-1.534,2.399-3.601,4.6-6.2,6.6
			c-2.9,2.2-4.384,3.351-4.45,3.45c-1.366,1.7-2.233,1.55-2.6-0.45c-0.301-1.767-0.184-4.166,0.35-7.2
			c0.4-3.066,0.717-5.216,0.95-6.449c0.399-2.067,1.267-3.934,2.6-5.601c1.467-1.8,2.417-3.783,2.851-5.95
			c0.267-1.366,0.399-3.666,0.399-6.899c0-3.2,0.45-6.167,1.351-8.9C336.566,245.116,338.267,242.866,340.5,241.8z"/>
		<path style="fill-rule:evenodd;clip-rule:evenodd;fill:#1F2433;" d="M61.15,253.35c1.6-2.8,3.25-4.033,4.95-3.699
			c0.967,0.166,2.3,1.149,4,2.949c1.633,1.7,2.816,3.434,3.55,5.2c1.133,2.7,1.65,6.134,1.55,10.3c-0.1,4.233-0.567,7.617-1.4,10.15
			c-0.566,1.7-1.533,3.483-2.9,5.35c-0.967,1.367-2.233,2.034-3.8,2c-0.833,0-2.417-0.333-4.75-1c-1.8-0.533-3.267-1.416-4.4-2.649
			c-1.2-1.334-1.7-2.733-1.5-4.2c0.2-1.4,0.15-3.066-0.15-5c-0.233-1.634-0.6-3.184-1.1-4.65c-0.333-1.1,0.35-3.5,2.05-7.199
			C58.35,258.5,59.65,255.983,61.15,253.35z"/>
		<path style="fill-rule:evenodd;clip-rule:evenodd;fill:#1F2433;" d="M173.85,174.7c1.6-2.8,3.25-4.034,4.95-3.7
			c0.967,0.167,2.3,1.15,4,2.95c1.633,1.7,2.817,3.433,3.55,5.2c1.133,2.7,1.65,6.133,1.55,10.3c-0.1,4.233-0.55,7.616-1.35,10.149
			c-0.566,1.667-1.533,3.45-2.9,5.351c-1,1.366-2.283,2.033-3.85,2c-0.8,0-2.383-0.334-4.75-1c-1.8-0.533-3.267-1.417-4.4-2.65
			c-1.2-1.333-1.7-2.733-1.5-4.2c0.2-1.399,0.15-3.066-0.15-5c-0.233-1.633-0.6-3.183-1.1-4.649c-0.333-1.1,0.35-3.5,2.05-7.2
			C171.05,179.85,172.35,177.333,173.85,174.7z"/>
		<path style="fill-rule:evenodd;clip-rule:evenodd;fill:#1F2433;" d="M358.05,271.95c0.967-0.3,1.8,0.05,2.5,1.05
			c0.867,1.134,1.2,2.816,1,5.05c-0.267,3.367-2.1,7.167-5.5,11.4c-0.7,0.866-1.283,0-1.75-2.601c-0.434-2.399-0.6-5.166-0.5-8.3
			c0.101-2.533,0.634-4.3,1.601-5.3C355.833,272.783,356.717,272.35,358.05,271.95z"/>
		<path style="fill-rule:evenodd;clip-rule:evenodd;fill:#1F2433;" d="M275.25,271.95c0.967-0.3,1.8,0.05,2.5,1.05
			c0.833,1.134,1.15,2.816,0.95,5.05c-0.3,3.533-2.134,7.334-5.5,11.4c-0.667,0.866-1.233,0-1.7-2.601
			c-0.467-2.433-0.65-5.199-0.55-8.3c0.1-2.533,0.633-4.3,1.6-5.3C273.017,272.783,273.917,272.35,275.25,271.95z"/>
		<path style="fill-rule:evenodd;clip-rule:evenodd;fill:#1F2433;" d="M284.35,113.55c0.967-1.933,2.15-2.383,3.551-1.35
			c2.199,1.7,4,2.5,5.399,2.4c2.2-0.167,3.783,2.7,4.75,8.6c0.167,1.033,0.601,5.783,1.3,14.25c0.4,4.767,0.367,9.5-0.1,14.2
			c-0.6,5.667-1.7,7.567-3.3,5.7c-6.934-8.1-12.184-15-15.75-20.7c-2-3.2-2.217-7.316-0.65-12.35
			C280.116,122.467,281.717,118.883,284.35,113.55z"/>
		<path style="fill-rule:evenodd;clip-rule:evenodd;fill:#1F2433;" d="M222.15,73.2c1.033-0.467,1.517,0.4,1.45,2.6
			c-0.033,0.733-0.233,1.467-0.6,2.2c-0.1,0.233-0.833,1.483-2.2,3.75c-1.033,1.8-1.867,2.65-2.5,2.55
			c-0.566-0.133-0.75-1.033-0.55-2.7c0.2-1.9,0.617-3.55,1.25-4.95C219.8,74.883,220.85,73.733,222.15,73.2z"/>
		<path style="fill-rule:evenodd;clip-rule:evenodd;fill:#1F2433;" d="M217.6,88.3c0.7-0.3,1.083,0.034,1.15,1
			c0.033,0.967-0.383,1.8-1.25,2.5c-0.933,0.767-1.367,0.467-1.3-0.9C216.267,89.533,216.733,88.667,217.6,88.3z"/>
		<path style="fill-rule:evenodd;clip-rule:evenodd;fill:#1F2433;" d="M184.5,96.85c3.667-2.4,6.617-3.2,8.85-2.4
			c1.267,0.466,1.8,3.367,1.6,8.7c-0.267,6.667-0.184,10.85,0.25,12.55c0.667,2.633,0.333,5.6-1,8.9c-0.7,1.8-1.8,4.35-3.3,7.65
			c-2.633,8.633-5.917,13.567-9.85,14.8c-3.3,1.067-6.1-0.417-8.4-4.45c-1.9-3.367-2.65-8.117-2.25-14.25
			c0.4-6.033,1.817-12.25,4.25-18.65C176.783,104.033,180.067,99.75,184.5,96.85z"/>
		<path style="fill-rule:evenodd;clip-rule:evenodd;fill:#1F2433;" d="M260.15,79.05c3.1,1,5.05,2.767,5.85,5.3
			c0.667,2.167,0.434,4.233-0.7,6.2c-0.733,1.267-2.217,3.5-4.45,6.7c-2.966,4.267-5.017,7.25-6.149,8.95
			c-2.767,4.2-4.684,6.816-5.75,7.85c-2.2,2.133-5.184,3.567-8.95,4.3c-5,0.933-9.184,1.233-12.55,0.9
			c-4.233-0.4-6.733-1.817-7.5-4.25c-0.6-1.933,0-5.05,1.8-9.35c2.167-5.233,3.35-8.8,3.55-10.7c0.3-2.934,1.383-5.434,3.25-7.5
			c1.167-1.267,3.351-3.483,6.55-6.65c2.233-2.533,6.5-3.733,12.801-3.6C252.533,77.3,256.616,77.917,260.15,79.05z"/>
		<path style="fill-rule:evenodd;clip-rule:evenodd;fill:#1F2433;" d="M279.55,102.05c0.634,2.1,0.033,4.317-1.8,6.65
			c-1.767,2.267-3.55,4.033-5.35,5.3c-1.967,1.367-4.384,2.467-7.25,3.3c-3.067,1.1-4.884,1.65-5.45,1.65
			c-0.667,0.033-1.017-0.934-1.05-2.9c-0.034-2.367,1.816-5.966,5.55-10.8c3.899-5.033,7.017-7.417,9.35-7.15
			C276.85,98.5,278.85,99.817,279.55,102.05z"/>
		<path style="fill-rule:evenodd;clip-rule:evenodd;fill:#1F2433;" d="M436.4,76.65c-3.867,1.9-6.167,2.917-6.9,3.05
			c-0.8,0.167-1.066-0.867-0.8-3.1c0.333-2.767,3.149-7.333,8.45-13.7c5.533-6.667,9.699-10.083,12.5-10.25
			c3.933-0.267,6.149,0.833,6.649,3.3c0.434,2.267-0.633,4.95-3.2,8.05c-2.533,3-4.983,5.433-7.35,7.3
			C443.15,73.3,440.033,75.083,436.4,76.65z"/>
		<path style="fill-rule:evenodd;clip-rule:evenodd;fill:#1F2433;" d="M212.9,130.05c1.833-1.667,3.533-2.466,5.1-2.4
			c1.967,0.1,4.217,0.5,6.75,1.2c3,0.8,4.9,1.7,5.7,2.7c0.899,1.067,0.233,3.034-2,5.9c-1.9,2.466-4.267,4.783-7.1,6.95
			c-2.133,1.6-5.033,2.717-8.7,3.35c-1.367,0.233-4.05,0.467-8.05,0.7c-1.767,0.1-2-1.4-0.7-4.5c0.667-1.567,2.117-4.25,4.35-8.05
			C209.717,133.467,211.267,131.517,212.9,130.05z"/>
		<path style="fill-rule:evenodd;clip-rule:evenodd;fill:#1F2433;" d="M267.1,131.1c2.767-0.233,4.584,0.55,5.45,2.35
			c0.5,1.066,0.75,2.983,0.75,5.75c0,2.633-0.316,4.867-0.95,6.7c-0.966,2.8-2.767,5.483-5.399,8.05
			c-2.7,2.633-5.084,4.35-7.15,5.15c-1.399,0.566-3.116,0.783-5.149,0.65c-1.5-0.1-2.733-0.9-3.7-2.4
			c-0.533-0.8-1.334-2.533-2.4-5.2c-0.833-2.066-1.233-4.033-1.2-5.9c0.067-2,0.617-3.383,1.65-4.15c1-0.7,2-1.817,3-3.35
			c0.866-1.233,1.6-2.55,2.2-3.95c0.467-1.033,2.383-1.917,5.75-2.65C262.316,131.617,264.7,131.267,267.1,131.1z"/>
		<path style="fill-rule:evenodd;clip-rule:evenodd;fill:#1F2433;" d="M114.1,343.95c2.767-0.233,4.583,0.55,5.45,2.35
			c0.5,1.066,0.75,2.983,0.75,5.75c0,2.634-0.316,4.867-0.95,6.7c-0.967,2.8-2.767,5.483-5.4,8.05c-2.7,2.634-5.083,4.351-7.15,5.15
			c-1.4,0.566-3.117,0.783-5.15,0.649c-1.5-0.1-2.733-0.899-3.7-2.399c-0.534-0.8-1.333-2.533-2.4-5.2
			c-0.833-2.066-1.233-4.033-1.2-5.9c0.066-2,0.617-3.383,1.65-4.149c1-0.7,2-1.816,3-3.351c0.867-1.233,1.6-2.55,2.2-3.949
			c0.466-1.034,2.383-1.917,5.75-2.65C109.317,344.467,111.7,344.116,114.1,343.95z"/>
		<path style="fill-rule:evenodd;clip-rule:evenodd;fill:#1F2433;" d="M237.6,141.65c-0.966-0.1-0.8-1.2,0.5-3.3
			c1.233-1.967,2.851-3.9,4.851-5.8c1.633-1.533,3.066-2.15,4.3-1.85c0.566,0.167,1.4,0.75,2.5,1.75c0.8,0.733,1.116,1.767,0.95,3.1
			c-0.167,1.534-1,2.9-2.5,4.1C245.866,141.583,242.333,142.25,237.6,141.65z"/>
		<path style="fill-rule:evenodd;clip-rule:evenodd;fill:#1F2433;" d="M255.6,114.15c0.634,0.267,1.034,0.733,1.2,1.4
			c0.134,0.567,0.05,1.1-0.25,1.6c-0.267,0.434-0.8,0.733-1.6,0.9c-0.867,0.167-1.601,0.083-2.2-0.25
			c-0.667-0.367-0.583-1.15,0.25-2.35C253.833,114.25,254.7,113.817,255.6,114.15z"/>
		<path style="fill-rule:evenodd;clip-rule:evenodd;fill:#1F2433;" d="M407.35,217.8c2.367-2.434,4.801-1.866,7.301,1.7
			c2.399,3.434,3.25,6.35,2.55,8.75c-0.634,2.233-2.017,4.634-4.15,7.2c-2.333,2.8-4.517,4.366-6.55,4.7
			c-1.667,0.3-2.65-0.817-2.95-3.351c-0.434-3.533-0.899-5.649-1.399-6.35c-1-1.4-0.634-3.684,1.1-6.851
			C404.483,221.267,405.85,219.333,407.35,217.8z"/>
		<path style="fill-rule:evenodd;clip-rule:evenodd;fill:#1F2433;" d="M172.7,155.8c0.733-0.367,1.733,0.4,3,2.3
			c1.267,1.933,1.9,3.683,1.9,5.25c0,1.333-0.533,1.783-1.6,1.35c-1.3-0.767-2.2-1.217-2.7-1.35c-0.833-0.2-1.433-1.35-1.8-3.45
			C171.167,157.733,171.567,156.367,172.7,155.8z"/>
		<path style="fill-rule:evenodd;clip-rule:evenodd;fill:#1F2433;" d="M376.35,83.05c0.733-0.367,1.733,0.4,3,2.3s1.9,3.65,1.9,5.25
			c0,1.333-0.55,1.783-1.65,1.35c-1.3-0.767-2.199-1.217-2.699-1.35c-0.834-0.2-1.417-1.35-1.75-3.45
			C374.816,84.983,375.217,83.617,376.35,83.05z"/>
		<path style="fill-rule:evenodd;clip-rule:evenodd;fill:#1F2433;" d="M410.35,280.95c0.733-0.367,1.733,0.399,3,2.3
			c1.267,1.934,1.9,3.7,1.9,5.3c0,1.334-0.55,1.783-1.65,1.351c-1.3-0.767-2.199-1.217-2.699-1.351c-0.834-0.2-1.417-1.35-1.75-3.45
			C408.816,282.9,409.217,281.517,410.35,280.95z"/>
		<path style="fill-rule:evenodd;clip-rule:evenodd;fill:#1F2433;" d="M119.55,266.45c1.534,1.934,1.2,3.566-1,4.899
			c-1.267,0.767-3.55,1.75-6.85,2.95c-1.767,0.834-3.517,0.15-5.25-2.05c-0.367-0.467-1.934-3.066-4.7-7.8
			c-1.967-3.4-3.25-5.983-3.85-7.75c-0.833-2.4-0.833-4.384,0-5.95c0.467-0.934,1.6-1.2,3.4-0.8c1.8,0.399,3.333,1.283,4.6,2.649
			c0.533,0.567,2.667,2.667,6.4,6.301C115.733,262.2,118.15,264.717,119.55,266.45z"/>
		<path style="fill-rule:evenodd;clip-rule:evenodd;fill:#1F2433;" d="M399.5,136.4c0.634-0.8,2-0.683,4.1,0.35
			c2.167,1.067,3.117,2.267,2.851,3.6c-0.233,1.2-0.884,1.883-1.95,2.05c-1.3-0.033-2.3,0.017-3,0.15
			c-0.967,0.167-1.7-0.617-2.2-2.35C398.8,138.467,398.866,137.2,399.5,136.4z"/>
		<path style="fill-rule:evenodd;clip-rule:evenodd;fill:#1F2433;" d="M85.2,248.9c1.033-0.334,2.267-0.167,3.7,0.5
			c1.467,0.699,2.267,1.5,2.4,2.399c0.233,1.334-1.017,4.934-3.75,10.8c-0.833,1.801-2.133,1.717-3.9-0.25
			c-1.933-2.699-3.25-4.416-3.95-5.149c-1-1.066-0.917-2.517,0.25-4.351C81.15,251.05,82.9,249.733,85.2,248.9z"/>
		<path style="fill-rule:evenodd;clip-rule:evenodd;fill:#1F2433;" d="M263.2,40.9c1.033-0.333,2.267-0.167,3.7,0.5
			c1.466,0.7,2.267,1.5,2.399,2.4c0.233,1.333-1.017,4.934-3.75,10.8c-0.833,1.8-2.133,1.717-3.899-0.25
			c-1.934-2.7-3.25-4.417-3.95-5.15c-1-1.067-0.917-2.517,0.25-4.35C259.15,43.05,260.9,41.733,263.2,40.9z"/>
		<path style="fill-rule:evenodd;clip-rule:evenodd;fill:#1F2433;" d="M120.2,62.4c-2.3,2.633-3.467,4.45-3.5,5.45
			c-0.034,1.667-1.467,3.217-4.3,4.65c-2.566,1.3-4.816,1.9-6.75,1.8c-1.667-0.066-3.533-0.617-5.6-1.65
			c-2.3-1.133-3.583-2.333-3.85-3.6c-0.3-1.5,0.4-3.733,2.1-6.7c1.8-3.167,3.833-5.434,6.1-6.8c1.934-1.167,4.7-1.15,8.3,0.05
			c1.966,0.667,4.583,1.717,7.85,3.15C122.05,59.217,121.933,60.433,120.2,62.4z"/>
		<path style="fill-rule:evenodd;clip-rule:evenodd;fill:#1F2433;" d="M120.05,80.65c-1.333,0.7-2.167,0.184-2.5-1.55
			c-0.2-1.1-0.2-3.1,0-6c0.233-2.867,2.833-6.934,7.8-12.2c1.033-1.133,2.2-1.816,3.5-2.05c1.633-0.3,3.183,0.283,4.65,1.75
			c0.967,0.967,0.95,2.733-0.05,5.3c-0.8,2.067-2.2,4.517-4.2,7.35c-1.533,2.133-3.117,3.783-4.75,4.95
			C123.833,78.667,122.35,79.483,120.05,80.65z"/>
		<path style="fill-rule:evenodd;clip-rule:evenodd;fill:#1F2433;" d="M134.15,42.85c0.5-0.9,1.633-1.167,3.4-0.8
			c1.833,0.4,3.367,1.284,4.6,2.65c0.434,0.466,2.583,2.566,6.45,6.3c3.4,3.3,5.816,5.833,7.25,7.6c1.533,1.9,1.2,3.517-1,4.85
			c-3.2,1.333-5.483,2.316-6.85,2.95c-1.767,0.833-3.517,0.15-5.25-2.05c-0.333-0.4-1.917-3-4.75-7.8
			c-1.967-3.367-3.25-5.95-3.85-7.75C133.35,46.4,133.35,44.417,134.15,42.85z"/>
		<path style="fill-rule:evenodd;clip-rule:evenodd;fill:#1F2433;" d="M431.9,186.75c0.466-0.933,1.6-1.2,3.399-0.8
			c1.8,0.4,3.334,1.283,4.601,2.65c0.533,0.567,2.666,2.667,6.399,6.3c3.434,3.3,5.851,5.816,7.25,7.55
			c1.533,1.934,1.2,3.566-1,4.899c-3.2,1.301-5.483,2.284-6.85,2.95c-1.767,0.834-3.517,0.15-5.25-2.05
			c-0.367-0.467-1.934-3.066-4.7-7.8c-1.967-3.4-3.25-5.983-3.85-7.75C431.066,190.3,431.066,188.317,431.9,186.75z"/>
		<path style="fill-rule:evenodd;clip-rule:evenodd;fill:#1F2433;" d="M105.2,25.9c1.033-0.333,2.267-0.167,3.7,0.5
			c1.467,0.7,2.267,1.5,2.4,2.4c0.233,1.333-1.017,4.934-3.75,10.8c-0.833,1.8-2.133,1.717-3.9-0.25
			c-1.933-2.7-3.25-4.417-3.95-5.15c-1-1.067-0.917-2.517,0.25-4.35C101.15,28.05,102.9,26.733,105.2,25.9z"/>
		<path style="fill-rule:evenodd;clip-rule:evenodd;fill:#1F2433;" d="M410.85,120.4c1.034-0.367,2.267-0.217,3.7,0.45
			c1.467,0.7,2.267,1.5,2.4,2.4c0.233,1.4-1.033,5-3.8,10.8c-0.834,1.8-2.134,1.717-3.9-0.25c-1.9-2.7-3.2-4.417-3.9-5.15
			c-1-1.066-0.916-2.5,0.25-4.3C406.8,122.55,408.55,121.233,410.85,120.4z"/>
		<path style="fill-rule:evenodd;clip-rule:evenodd;fill:#1F2433;" d="M177,224.55c0.233-0.434,1.117-0.566,2.65-0.399
			c0.767,0.1,1.517,0.233,2.25,0.399l-0.15,2.851c-0.2,2.1-0.533,3.683-1,4.75c-0.433,0.966-1.033,1.066-1.8,0.3
			c-1.267-1.3-2.017-2-2.25-2.101c-0.767-0.333-1.05-1.183-0.85-2.55C176.017,226.733,176.4,225.65,177,224.55z"/>
		<path style="fill-rule:evenodd;clip-rule:evenodd;fill:#1F2433;" d="M69.25,4.7c0.4-0.7,2.05-0.7,4.95,0c0,3.367-0.4,5.9-1.2,7.6
			c-0.433,0.967-1.033,1.067-1.8,0.3c-1.267-1.3-2.017-2-2.25-2.1c-0.767-0.333-1.034-1.183-0.8-2.55
			C68.317,6.883,68.683,5.8,69.25,4.7z"/>
		<path style="fill-rule:evenodd;clip-rule:evenodd;fill:#1F2433;" d="M202.05,181.45c-0.767-0.333-1.033-1.184-0.8-2.55
			c0.167-1.066,0.533-2.15,1.1-3.25c0.267-0.433,1.167-0.566,2.7-0.4c0.767,0.1,1.517,0.233,2.25,0.4c0,3.367-0.4,5.9-1.2,7.6
			c-0.434,0.967-1.033,1.067-1.8,0.3C203.033,182.25,202.283,181.55,202.05,181.45z"/>
		<path style="fill-rule:evenodd;clip-rule:evenodd;fill:#1F2433;" d="M1.65,88.75c0.267-0.433,1.167-0.567,2.7-0.4
			c0.767,0.1,1.517,0.233,2.25,0.4L6.45,91.6c-0.2,2.1-0.534,3.683-1,4.75c-0.467,1-1.067,1.1-1.8,0.3
			C2.35,95.317,1.6,94.6,1.4,94.5c-0.767-0.3-1.05-1.15-0.85-2.55C0.717,90.883,1.083,89.817,1.65,88.75z"/>
		<path style="fill-rule:evenodd;clip-rule:evenodd;fill:#1F2433;" d="M292,343.6c1.5-0.6,3.033-0.833,4.6-0.699
			c0.867,0.066,3.184,0.149,6.95,0.25c3.434,0.233,5.434,0.666,6,1.3c0.5,0.533-0.3,1.649-2.399,3.35
			c-2.534,2.066-3.967,3.467-4.301,4.2c-0.566,1.2-1.533,2.2-2.899,3c-1.101,0.6-2.584,1.15-4.45,1.65c-3,0.767-5.366-0.15-7.1-2.75
			c-1.667-2.434-1.9-4.667-0.7-6.7C288.7,345.533,290.134,344.333,292,343.6z"/>
		<path style="fill-rule:evenodd;clip-rule:evenodd;fill:#1F2433;" d="M253.25,326.3c0.267-0.899,0.9-1.366,1.9-1.399
			c0.5,0,0.966,0.083,1.399,0.25l1.601,1.149c1,1.033,1.316,2.283,0.949,3.75c-0.433,1.667-1.6,1.8-3.5,0.4
			C253.667,329.05,252.884,327.667,253.25,326.3z"/>
		<path style="fill-rule:evenodd;clip-rule:evenodd;fill:#1F2433;" d="M243.85,342.6c-0.5-4.1,0.217-6.716,2.15-7.85
			c1.134-0.667,3.25-0.9,6.35-0.7c2.967,0.233,5.483,0.867,7.551,1.9c3.199,1.633,6.35,4.483,9.449,8.55
			c3.167,4.134,5.301,7.767,6.4,10.9c0.733,2.1,1.134,4.649,1.2,7.649c0.033,2.167-0.733,3.917-2.3,5.25
			c-0.867,0.733-2.733,1.783-5.601,3.15c-2.233,1.066-4.399,1.5-6.5,1.3c-2.233-0.233-3.816-1.15-4.75-2.75
			c-0.866-1.5-2.2-3.05-4-4.65c-1.467-1.366-3.017-2.55-4.649-3.55c-1.2-0.733-2.367-3.616-3.5-8.649
			C244.884,349.684,244.283,346.167,243.85,342.6z"/>
		<path style="fill-rule:evenodd;clip-rule:evenodd;fill:#1F2433;" d="M228.15,325.45c0.5-1,2.1-1.134,4.8-0.4
			c2.767,0.7,4.767,1.816,6,3.351c1.033,1.3,0.833,2.216-0.601,2.75c-1.933,0.399-3.199,0.75-3.8,1.05
			c-1,0.533-2.467-0.066-4.399-1.8C228.116,328.634,227.45,326.983,228.15,325.45z"/>
		<path style="fill-rule:evenodd;clip-rule:evenodd;fill:#1F2433;" d="M263.3,327.45c-0.1-0.634,0.7-1.55,2.4-2.75l2.55-1.55
			l2.05,2.85c1.434,2.2,2.3,4.017,2.601,5.45c0.3,1.333-0.233,1.95-1.601,1.85c-2.3-0.166-3.6-0.2-3.899-0.1
			c-1.034,0.366-1.967-0.2-2.801-1.7C263.967,330.333,263.533,328.983,263.3,327.45z"/>
		<path style="fill-rule:evenodd;clip-rule:evenodd;fill:#1F2433;" d="M166.45,191.3l0.3,1.45c0.167,1.066,0.067,1.9-0.3,2.5
			c-0.5,0.833-0.817,0.533-0.95-0.9C165.333,192.983,165.65,191.967,166.45,191.3z"/>
		<path style="fill-rule:evenodd;clip-rule:evenodd;fill:#1F2433;" d="M404.9,196.8c-0.101-3.366-0.15-5.833-0.15-7.399
			c0.033-2.734,0.366-4.484,1-5.25c0.8-0.967,2.483-1.133,5.05-0.5c2.867,0.7,4.566,2.317,5.101,4.85
			c0.466,2.4,0.083,4.566-1.15,6.5c-1.833,2.267-3.283,4.184-4.35,5.75c-1.5,2.2-2.817,2.717-3.95,1.55
			C405.417,201.233,404.9,199.4,404.9,196.8z"/>
		<path style="fill-rule:evenodd;clip-rule:evenodd;fill:#1F2433;" d="M424.9,216.5c1.333,0,2.133,0.983,2.399,2.95
			c0.3,1.967-0.2,3.033-1.5,3.2c-1.399,0.199-2.35-0.784-2.85-2.95C422.45,217.566,423.1,216.5,424.9,216.5z"/>
		<path style="fill-rule:evenodd;clip-rule:evenodd;fill:#1F2433;" d="M218.6,266.2c0.233,1.267-0.684,2.95-2.75,5.05
			c-2.133,2.167-3.65,2.684-4.55,1.55c-0.8-1-0.95-2.2-0.45-3.6c0.8-1.667,1.35-2.967,1.65-3.9c0.433-1.333,1.5-1.833,3.2-1.5
			C217.367,264.134,218.333,264.934,218.6,266.2z"/>
		<path style="fill-rule:evenodd;clip-rule:evenodd;fill:#1F2433;" d="M235.15,309.45c-0.233,1.2-0.717,2.366-1.45,3.5
			c-0.967,1.566-3.084,0.7-6.35-2.601c-3.3-3.3-4.783-5.983-4.45-8.05c0.567-3.467,3.417-3.649,8.55-0.55
			c1.467,0.9,2.517,2,3.149,3.3C235.3,306.384,235.483,307.85,235.15,309.45z"/>
		<path style="fill-rule:evenodd;clip-rule:evenodd;fill:#1F2433;" d="M248.15,28.45c-0.233,1.2-0.717,2.367-1.45,3.5
			c-0.967,1.566-3.084,0.7-6.351-2.6c-3.3-3.3-4.783-5.983-4.449-8.05c0.566-3.466,3.416-3.65,8.55-0.55
			c1.467,0.9,2.517,2,3.149,3.3C248.3,25.383,248.483,26.85,248.15,28.45z"/>
		<path style="fill-rule:evenodd;clip-rule:evenodd;fill:#1F2433;" d="M76.35,370.35c-3.3-3.3-4.783-5.983-4.45-8.05
			c0.567-3.467,3.417-3.649,8.55-0.55c1.466,0.9,2.517,2,3.15,3.3c0.7,1.334,0.883,2.8,0.55,4.4c-0.233,1.2-0.717,2.366-1.45,3.5
			C81.733,374.517,79.617,373.65,76.35,370.35z"/>
		<path style="fill-rule:evenodd;clip-rule:evenodd;fill:#1F2433;" d="M256.9,267c1.733,0.4,2.783,0.684,3.149,0.85
			c1.066,0.467,1.967,1.25,2.7,2.351c2.267,3.399,3.783,7.666,4.55,12.8c0.934,6.134-0.066,10.35-3,12.65
			c-4.633,3.6-7.6,5.733-8.899,6.399c-3.034,1.566-6.45,2.033-10.25,1.4c-4.667-0.733-9.434-2.9-14.301-6.5
			c-4.833-3.566-8.667-7.7-11.5-12.4c-2.467-4.033-2.95-7.833-1.45-11.399c1.267-3.101,3.85-5.75,7.75-7.95
			c3.5-2,7.35-3.3,11.55-3.9c4.133-0.566,7.416-0.3,9.85,0.8c0.767,0.367,2.217,1.184,4.351,2.45c1.733,1.066,3.183,1.783,4.35,2.15
			L256.9,267z"/>
		<path style="fill-rule:evenodd;clip-rule:evenodd;fill:#1F2433;" d="M171.85,208.3l1.8,1.15c1.2,0.899,1.867,1.717,2,2.45
			c0.1,0.8-0.25,1.183-1.05,1.149c-0.5-0.033-1.517-0.3-3.05-0.8c-1.033-0.3-1.417-1-1.15-2.1
			C170.667,209.116,171.15,208.5,171.85,208.3z"/>
		<path style="fill-rule:evenodd;clip-rule:evenodd;fill:#1F2433;" d="M385.2,121.85c-0.667-0.733-0.634-2.45,0.1-5.15
			c0.767-2.7,1.7-3.917,2.8-3.65c0.967,0.233,1.534,1,1.7,2.3c0.101,0.733,0.184,1.983,0.25,3.75c0.167,1.2-0.434,2.167-1.8,2.9
			C386.884,122.667,385.866,122.617,385.2,121.85z"/>
		<path style="fill-rule:evenodd;clip-rule:evenodd;fill:#1F2433;" d="M327.7,109.65c3.899,1.567,6.583,3.917,8.05,7.05
			c1.267,2.667,0.95,5.417-0.95,8.25c-1.2,1.566-2.116,2.767-2.75,3.6c-1.133,1.5-1.934,2.833-2.399,4
			c-1.067,2.667-2.134,4.567-3.2,5.7c-0.667,0.733-1.634,1.367-2.9,1.9c-0.8,0.333-2.217,0.35-4.25,0.05
			c-4.066-0.567-6.233-0.867-6.5-0.9c-2.166-0.2-3.55-1.216-4.149-3.05c-0.534-3.1-1.034-5.95-1.5-8.55
			c-0.567-3.2,0.267-7.05,2.5-11.55c2.333-4.7,4.949-7.3,7.85-7.8C320.8,107.783,324.2,108.217,327.7,109.65z"/>
		<path style="fill-rule:evenodd;clip-rule:evenodd;fill:#1F2433;" d="M302,104.9c-0.333-1.233-0.267-2.767,0.2-4.6
			c0.5-1.833,1.116-2.867,1.85-3.1c1.066-0.333,4.017,1.066,8.851,4.2c1.466,0.967,1.449,2.6-0.051,4.9
			c-2.066,2.5-3.383,4.184-3.949,5.05c-0.834,1.333-2,1.316-3.5-0.05C303.9,109.9,302.767,107.767,302,104.9z"/>
		<path style="fill-rule:evenodd;clip-rule:evenodd;fill:#1F2433;" d="M306.8,157.35c0.066-1.934,0.834-3.583,2.3-4.95
			c1.434-1.3,2.9-1.816,4.4-1.55c1.733,0.333,3.017,0.733,3.85,1.2c1.167,0.633,2.167,1.667,3,3.1c0.767,1.267,0.334,2.25-1.3,2.95
			c-2.333,0.733-4.066,1.433-5.2,2.1c-1.833,1.066-3.449,1.383-4.85,0.95C307.467,160.683,306.733,159.417,306.8,157.35z"/>
		<path style="fill-rule:evenodd;clip-rule:evenodd;fill:#1F2433;" d="M356.5,97.2c0.1-1.667,1.983-2.267,5.65-1.8
			c3.666,0.467,5.767,1.533,6.3,3.2c0.899,2.767-1.134,4.533-6.101,5.3c-3,0.367-4.866-0.767-5.6-3.4
			C356.483,99.567,356.4,98.467,356.5,97.2z"/>
		<path style="fill-rule:evenodd;clip-rule:evenodd;fill:#1F2433;" d="M327.4,158c-0.367-0.267-0.517-1.367-0.45-3.3l0.25-2.8
			l2.3,0.05c1.667,0.133,2.934,0.483,3.8,1.05c0.834,0.5,0.95,1.233,0.351,2.2c-1,1.633-1.534,2.6-1.601,2.9
			c-0.233,0.967-0.899,1.35-2,1.15C329.184,159.083,328.3,158.667,327.4,158z"/>
		<path style="fill-rule:evenodd;clip-rule:evenodd;fill:#1F2433;" d="M327.8,89.35c2.4-1.367,7.601-2.017,15.601-1.95
			c2.5,0.067,4.783,1.267,6.85,3.6c2.134,2.433,3.483,5.483,4.05,9.15c0.467,3.033,0.066,4.883-1.2,5.55
			c-1.767,0.3-3.017,0.833-3.75,1.6c-0.866,0.9-2,1.483-3.399,1.75c-2.8,0.534-4.733,0.967-5.8,1.3c-2.167,0.7-3.817,0.5-4.95-0.6
			c-2.5-2.433-3.9-3.75-4.2-3.95c-1.134-0.667-3.65-1.6-7.55-2.8c-2.8-0.9-4.217-1.8-4.25-2.7c-0.033-1.233,0.967-3.117,3-5.65
			C324.2,92.15,326.066,90.383,327.8,89.35z"/>
		<path style="fill-rule:evenodd;clip-rule:evenodd;fill:#1F2433;" d="M304.6,92.25c-0.833-0.933-1.05-3.017-0.649-6.25
			c0.399-3.6,1.616-5.783,3.649-6.55c1.9-0.7,3.667-0.333,5.301,1.1c0.966,0.9,2.566,2.633,4.8,5.2c1.833,1.733,2.3,3.35,1.399,4.85
			c-0.8,1.333-2.25,2.05-4.35,2.15c-2.667,0.3-4.634,0.467-5.9,0.5C306.684,93.317,305.267,92.983,304.6,92.25z"/>
		<path style="fill-rule:evenodd;clip-rule:evenodd;fill:#1F2433;" d="M365.8,140.95c-0.7,0.2-2.066,0.433-4.1,0.7
			c-1.7,0.267-3.05,0.6-4.05,1l-0.95,0.4c-1.4,0.7-2.283,1.1-2.65,1.2c-0.967,0.267-1.916,0.217-2.85-0.15
			c-2.934-1.133-5.65-3.3-8.15-6.5c-3-3.833-3.85-7.4-2.55-10.7c2.066-5.233,3.45-8.45,4.15-9.65c1.633-2.833,3.966-5.1,7-6.8
			c3.699-2.1,8.033-3.267,13-3.5c4.899-0.2,9.267,0.566,13.1,2.3c6.434,2.867,7.316,8.65,2.65,17.35c-1.834,3.4-4.184,6.5-7.051,9.3
			C370.517,138.7,368,140.383,365.8,140.95z"/>
		<path style="fill-rule:evenodd;clip-rule:evenodd;fill:#1F2433;" d="M332,141.5c0.233-0.733,0.517-1.483,0.85-2.25
			c0.667-1.533,1.301-2.4,1.9-2.6c0.634-0.167,0.95,0.267,0.95,1.3c0,0.6-0.167,1.85-0.5,3.75c-0.2,1.3-0.75,1.816-1.65,1.55
			C332.717,142.95,332.2,142.367,332,141.5z"/>
		<path style="fill-rule:evenodd;clip-rule:evenodd;fill:#1F2433;" d="M204.6,319.6c4.066,2.367,6.25,3.634,6.55,3.801
			c2.2,1.166,3.3,2.8,3.3,4.899c0,1.4-0.483,4.417-1.45,9.05c-0.567,3.434-2.817,6.884-6.75,10.351
			c-4.133,3.566-7.833,4.95-11.1,4.149c-3.7-0.899-7.167-2.833-10.4-5.8c-3.6-3.3-5.617-6.85-6.05-10.649
			c-0.367-3.2,0.966-5.75,4-7.65c1.833-1.033,3.216-1.816,4.15-2.35c1.733-0.967,3.066-1.934,4-2.9c2.1-2.167,3.9-3.566,5.4-4.2
			c1-0.434,2.25-0.616,3.75-0.55C200.967,317.783,202.5,318.4,204.6,319.6z"/>
		<path style="fill-rule:evenodd;clip-rule:evenodd;fill:#1F2433;" d="M140.65,336.05c-0.033,1.033-0.333,2.167-0.9,3.4
			c-0.7,1.6-2.917,1.333-6.65-0.8c-3.733-2.134-5.583-4.134-5.55-6c0.034-3.2,2.817-4.017,8.35-2.45
			c1.567,0.434,2.767,1.133,3.6,2.1C140.367,333.333,140.75,334.583,140.65,336.05z"/>
		<path style="fill-rule:evenodd;clip-rule:evenodd;fill:#1F2433;" d="M143.15,337.5c0.6-3.2,1.684-4.833,3.25-4.9
			c0.167-0.033,0.9,0.051,2.2,0.25c0.933,0.134,1.717,0.067,2.35-0.199c1.233-0.467,2.633-0.534,4.2-0.2
			c3.1,0.733,5.3,1.166,6.6,1.3c2.533,0.267,4.217,1.217,5.05,2.85c1.8,3.567,2.817,5.483,3.05,5.75c0.967,1.167,3.3,3.217,7,6.15
			c2.667,2.134,3.85,3.65,3.55,4.55c-0.4,1.233-2.117,2.65-5.15,4.25c-3,1.566-5.617,2.467-7.85,2.7
			c-3.167,0.333-8.917-1.35-17.25-5.05c-2.667-1.134-4.667-3.334-6-6.601C142.75,345.017,142.417,341.4,143.15,337.5z"/>
		<path style="fill-rule:evenodd;clip-rule:evenodd;fill:#1F2433;" d="M157.7,377.45c-2.3-0.134-4.05-1.283-5.25-3.45
			c-1.2-3-2.284-5.417-3.25-7.25c-1.3-2.533-1.217-4.333,0.25-5.4c1.333-0.966,3.133-1.05,5.4-0.25c1.367,0.5,3.517,1.233,6.45,2.2
			c2.333,0.9,3.717,1.851,4.15,2.851c0.533,1.3,0.017,3.466-1.55,6.5C162.167,376.017,160.1,377.616,157.7,377.45z"/>
		<path style="fill-rule:evenodd;clip-rule:evenodd;fill:#1F2433;" d="M155.9,294c1.8-0.033,2.867-0.033,3.2,0
			c1.133,0.167,2.133,0.634,3,1.4c2.7,2.466,4.8,5.833,6.3,10.1c1.8,5.167,1.434,9.083-1.1,11.75c-4.066,4.267-6.667,6.816-7.8,7.65
			c-2.767,2.066-6.067,3.267-9.9,3.6c-4.7,0.434-9.717-0.366-15.05-2.4c-5.267-1.966-9.633-4.666-13.1-8.1
			c-3-2.967-4.034-6.184-3.1-9.65c0.833-3,3-5.916,6.5-8.75c3.167-2.533,6.767-4.55,10.8-6.05c4.033-1.467,7.317-2,9.85-1.6
			c0.7,0.133,2.217,0.517,4.55,1.149c1.867,0.5,3.417,0.784,4.65,0.851L155.9,294z"/>
		<path style="fill-rule:evenodd;clip-rule:evenodd;fill:#1F2433;" d="M178.7,314.5l-1.7,1.85c-1.267,1.233-2.25,1.801-2.95,1.7
			c-0.733-0.1-0.917-0.649-0.55-1.649c0.2-0.567,0.817-1.75,1.85-3.551c0.7-1.199,1.467-1.449,2.3-0.75
			C178.417,312.733,178.767,313.533,178.7,314.5z"/>
		<path style="fill-rule:evenodd;clip-rule:evenodd;fill:#1F2433;" d="M244.45,38.3c0,1.4-0.483,4.417-1.45,9.05
			c-0.566,3.433-2.816,6.883-6.75,10.35c-4.134,3.566-7.833,4.95-11.1,4.15c-3.7-0.9-7.167-2.833-10.4-5.8
			c-3.6-3.3-5.617-6.85-6.05-10.65c-0.367-3.2,0.966-5.75,4-7.65c0.833-0.567,2.216-1.35,4.15-2.35c1.733-0.967,3.066-1.933,4-2.9
			c2.1-2.167,3.9-3.567,5.4-4.2c1-0.433,2.25-0.617,3.75-0.55c0.967,0.033,2.5,0.65,4.6,1.85c4.067,2.367,6.25,3.633,6.551,3.8
			C243.35,34.567,244.45,36.2,244.45,38.3z"/>
		<path style="fill-rule:evenodd;clip-rule:evenodd;fill:#1F2433;" d="M176.4,48.6c0.167-0.033,0.9,0.05,2.2,0.25
			c0.933,0.133,1.717,0.066,2.35-0.2c1.233-0.467,2.633-0.533,4.2-0.2c3.1,0.733,5.3,1.167,6.6,1.3
			c2.533,0.267,4.217,1.217,5.05,2.85c1.8,3.566,2.817,5.483,3.05,5.75c0.967,1.167,3.3,3.217,7,6.15
			c2.667,2.133,3.85,3.65,3.55,4.55c-0.4,1.233-2.117,2.65-5.15,4.25c-3,1.567-5.617,2.467-7.85,2.7
			c-3.167,0.333-8.917-1.35-17.25-5.05c-2.667-1.133-4.667-3.333-6-6.6c-1.4-3.333-1.733-6.95-1-10.85
			C173.75,50.3,174.833,48.667,176.4,48.6z"/>
		<path style="fill-rule:evenodd;clip-rule:evenodd;fill:#1F2433;" d="M185.9,10c1.8-0.033,2.867-0.033,3.2,0
			c1.133,0.167,2.133,0.633,3,1.4c2.7,2.467,4.8,5.833,6.3,10.1c1.8,5.167,1.434,9.083-1.1,11.75c-4.066,4.267-6.667,6.817-7.8,7.65
			c-2.767,2.067-6.067,3.267-9.9,3.6c-4.7,0.433-9.717-0.367-15.05-2.4c-5.267-1.967-9.633-4.667-13.1-8.1
			c-3-2.967-4.034-6.183-3.1-9.65c0.833-3,3-5.917,6.5-8.75c3.167-2.533,6.767-4.55,10.8-6.05c4.033-1.466,7.317-2,9.85-1.6
			c0.7,0.133,2.217,0.517,4.55,1.15c1.867,0.5,3.417,0.783,4.65,0.85L185.9,10z"/>
		<path style="fill-rule:evenodd;clip-rule:evenodd;fill:#1F2433;" d="M218.7,30.5c-0.5,0.633-1.067,1.25-1.7,1.85
			c-1.267,1.233-2.25,1.8-2.95,1.7c-0.733-0.1-0.917-0.65-0.55-1.65c0.2-0.566,0.817-1.75,1.85-3.55c0.7-1.2,1.467-1.45,2.3-0.75
			C218.417,28.733,218.767,29.533,218.7,30.5z"/>
		<path style="fill-rule:evenodd;clip-rule:evenodd;fill:#1F2433;" d="M369.2,239.25c-1.033-1.5-1.917-3.5-2.65-6
			c-0.833-2.767-0.967-4.684-0.399-5.75c0.666-1.2,2.399-2,5.199-2.4c2.934-0.433,5.517-0.1,7.75,1c1.934,0.967,3.7,3.434,5.301,7.4
			c0.866,2.167,1.949,5.15,3.25,8.95c0.699,1.633-0.084,2.316-2.351,2.05c-2.967-0.366-4.75-0.25-5.35,0.35
			c-0.967,1.034-2.75,0.767-5.351-0.8C372.233,242.616,370.434,241.017,369.2,239.25z"/>
		<path style="fill-rule:evenodd;clip-rule:evenodd;fill:#1F2433;" d="M353.75,233.05c-0.8-1.467-1.1-3.017-0.9-4.649
			c0.233-1.634,0.934-2.851,2.101-3.65c1.7-1.1,4.184,0.533,7.45,4.9c1.3,1.733,0.816,4.149-1.45,7.25
			c-0.667,0.933-1.816,0.949-3.45,0.05C355.967,236.083,354.717,234.783,353.75,233.05z"/>
		<path style="fill-rule:evenodd;clip-rule:evenodd;fill:#1F2433;" d="M343.4,195.8c0.033-0.666,2.366-2.633,7-5.899
			c5.033-3.534,9.316-6.034,12.85-7.5c3.467-1.433,7.033-1.333,10.7,0.3c1.866,0.833,5.684,3.3,11.45,7.399
			c4.3,3.067,7.733,7.25,10.3,12.551c2.434,5,3.75,10.216,3.95,15.649c0.1,2.434-0.351,3.983-1.351,4.65
			c-0.767,0.533-2.083,0.566-3.95,0.1c-2.399-0.733-4.3-1.267-5.699-1.6c-2.467-0.634-4.584-0.816-6.351-0.55
			c-2.166,0.333-5.149,0.633-8.95,0.899c-2.433,0.167-4.783,0.584-7.05,1.25c-2.467,0.767-4.883,0.017-7.25-2.25
			c-2.833-3.333-5.316-5.934-7.45-7.8c-1.899-1.667-3.816-4.866-5.75-9.6C344.217,199.4,343.4,196.866,343.4,195.8z"/>
		<path style="fill-rule:evenodd;clip-rule:evenodd;fill:#1F2433;" d="M386.8,228.8c-0.366-0.866,0.2-1.733,1.7-2.6
			c1.6-0.934,3.15-1.066,4.65-0.4c1.5,0.634,2.316,1.384,2.449,2.25c0.101,0.667-0.233,1.566-1,2.7c-0.666,1-1.983,1.267-3.949,0.8
			C388.65,231.083,387.366,230.167,386.8,228.8z"/>
		<path style="fill-rule:evenodd;clip-rule:evenodd;fill:#1F2433;" d="M329.35,181.05c2.434-0.133,6.15-0.233,11.15-0.3
			c3.634-0.133,6.483,0.467,8.55,1.8c2.2,1.4,2.117,2.967-0.25,4.7c-1.866,1.367-4.366,2.2-7.5,2.5
			c-2.833,0.3-4.467,0.733-4.899,1.3c-0.634,0.834-2.017,1.634-4.15,2.4c-3.1,1-5.733,1.899-7.9,2.7
			c-3.5,1.267-6.183,1.733-8.05,1.399c-2.166-0.366-4.05-1.866-5.649-4.5c-0.601-1,0.583-2.649,3.55-4.95
			c1.6-1.233,3.866-2.917,6.8-5.05C322.233,181.983,325.017,181.317,329.35,181.05z"/>
		<path style="fill-rule:evenodd;clip-rule:evenodd;fill:#1F2433;" d="M46.6,35.85c1.833,1.833,1.4,3.333-1.3,4.5
			c-2.1,0.933-4.716,1.2-7.85,0.8c-2.8-0.367-4.483-0.316-5.05,0.15c-0.8,0.7-2.333,1.184-4.6,1.45c-3.2,0.3-5.95,0.6-8.25,0.9
			c-3.7,0.467-6.417,0.333-8.15-0.4c-2.066-0.833-3.583-2.717-4.55-5.65c-0.333-1.1,1.183-2.45,4.55-4.05
			c1.833-0.867,4.417-2,7.75-3.4c1.434-0.767,4.283-0.816,8.55-0.15c2.433,0.4,6.083,1.133,10.95,2.2
			C42.25,32.867,44.9,34.083,46.6,35.85z"/>
		<path style="fill-rule:evenodd;clip-rule:evenodd;fill:#1F2433;" d="M325.65,200.45c3.166-1.167,5.233-1.884,6.199-2.15
			c3.167-0.934,5.483-1.2,6.95-0.8c1.533,0.434,2.816,1.733,3.851,3.9c0.399,0.899,1.3,3.449,2.699,7.649
			c0.801,2.467,0.7,3.983-0.3,4.55c-2,0.567-3.816,1.334-5.45,2.301c-2.267,1.333-4.983,0.716-8.149-1.851
			c-2.7-2.166-4.9-4.899-6.601-8.2C323.384,202.95,323.65,201.15,325.65,200.45z"/>
		<path style="fill-rule:evenodd;clip-rule:evenodd;fill:#1F2433;" d="M316,203.2c-0.233-0.934,0.55-1.283,2.35-1.05
			c1.733,0.233,2.601,0.966,2.601,2.199c0.033,1.367-0.667,1.967-2.101,1.801C317.384,205.983,316.434,205,316,203.2z"/>
		<path style="fill-rule:evenodd;clip-rule:evenodd;fill:#1F2433;" d="M347.4,177.5c-6.301-1.533-10.034-4.167-11.2-7.9
			c-0.967-3.133-0.117-6.05,2.55-8.75c2.233-2.267,5.533-3.567,9.9-3.9c4.3-0.3,8.8,0.367,13.5,2c4.166,1.433,7.433,4.133,9.8,8.1
			c1.967,3.333,2.75,6.133,2.35,8.4c-0.233,1.3-2.233,2.167-6,2.6c-4.767,0.534-7.733,1.1-8.899,1.7c-1.801,0.967-3.917,1-6.351,0.1
			C350.483,178.583,348.6,177.8,347.4,177.5z"/>
		<path style="fill-rule:evenodd;clip-rule:evenodd;fill:#1F2433;" d="M31.35,95.75c-0.4-1.233-0.017-2.6,1.15-4.1
			c1.467-1.6,2.433-2.783,2.9-3.55c2.4-3.967,5.167-6.2,8.3-6.7c2.667-0.433,4.833,0.333,6.5,2.3c1.367,1.6,1.783,3.833,1.25,6.7
			c-0.534,2.833-1.883,5.717-4.05,8.65c-1.933,2.6-4.7,4.517-8.3,5.75c-3,1.067-5.35,1.383-7.05,0.95c-1-0.267-1.316-1.633-0.95-4.1
			C31.533,98.517,31.617,96.55,31.35,95.75z"/>
		<path style="fill-rule:evenodd;clip-rule:evenodd;fill:#1F2433;" d="M446.85,115.55c4.801-0.8,7.217,0.317,7.25,3.35
			c0,0.833-0.216,2.317-0.649,4.45c-0.434,2.1-0.65,3.65-0.65,4.65c0.033,2.067-0.3,5.7-1,10.9c-0.666,5-0.983,8.033-0.95,9.1
			c0.034,1.433-2.216,3.55-6.75,6.35c-5.8,3.267-9.933,5.717-12.399,7.35c-5.233,3.5-9.084,5.216-11.55,5.15
			c-2.301-0.033-2.867-1.45-1.7-4.25c1.133-2.7,1.116-5.417-0.05-8.15c-1.167-2.833-3.184-4.534-6.051-5.1
			c-2.533-0.5-2.75-3.15-0.649-7.95c1.166-2.733,3.033-6.033,5.6-9.9c1.434-2.167,5.217-5.033,11.351-8.6
			C435.517,118.9,441.583,116.45,446.85,115.55z"/>
		<path style="fill-rule:evenodd;clip-rule:evenodd;fill:#1F2433;" d="M404,157.05c-0.9-2.5-0.833-3.85,0.2-4.05
			c0.767-0.133,2.366-0.467,4.8-1c2.233-0.233,3.783,0.183,4.65,1.25c0.933,1.133,1.433,2.433,1.5,3.9
			c0.066,0.767-0.034,2-0.301,3.7c-0.166,1.333-1.066,2.2-2.699,2.6c-1.801,0.433-3.567-0.067-5.301-1.5
			C405.816,161.05,404.866,159.417,404,157.05z"/>
		<path style="fill-rule:evenodd;clip-rule:evenodd;fill:#1F2433;" d="M178.1,296.45c-1.067-1.167-2.333-3.684-3.8-7.55
			c-1.667-4.334-2.517-7.95-2.55-10.851c-0.033-2.666,0.783-3.733,2.45-3.2c1,0.301,2.667,1.067,5,2.301
			c1.167,0.366,3.15,1.183,5.95,2.449c2.767,1.233,4.434,1.934,5,2.101c0.8,0.233,1.783,1.8,2.95,4.7
			c0.667,1.633,1.683,4.233,3.05,7.8c1.5,3.366,2.133,5.7,1.9,7c-0.2,1.2-1.033,1.25-2.5,0.149c-1.433-1.066-2.95-1.55-4.55-1.449
			c-1.667,0.133-2.783,0.899-3.35,2.3C186.883,304.134,183.7,302.217,178.1,296.45z"/>
		<path style="fill-rule:evenodd;clip-rule:evenodd;fill:#1F2433;" d="M202.05,263.1c-0.133,1.534-0.066,3.667,0.2,6.4
			c-0.067,2.167-1.05,3.7-2.95,4.6c-2.167,1-4.683,1.584-7.55,1.75c-2.467,0.167-4.967,0-7.5-0.5c-1.733-0.333-4.133-1.166-7.2-2.5
			c-3.233-1.433-5.15-2.216-5.75-2.35c-1.333-0.333-2.733-1.366-4.2-3.1c-1.5-1.767-2.45-3.567-2.85-5.4
			c-0.333-1.566,0.9-2.967,3.7-4.2c1.6-0.7,4.3-1.616,8.1-2.75c1.7-0.6,3.867-1.5,6.5-2.7c2.267-0.699,4.617-0.466,7.05,0.7
			c2.533,1.2,5.333,3.15,8.4,5.851C200.733,261.3,202.083,262.7,202.05,263.1z"/>
		<path style="fill-rule:evenodd;clip-rule:evenodd;fill:#1F2433;" d="M161.1,289.6c-2.133-0.899-3.934-2.566-5.4-5
			c-1.167-1.933-2-4.05-2.5-6.35s-0.85-4.9-1.05-7.8c-0.267-3.434-0.15-5.684,0.35-6.75c0.433-0.9,1.533-0.8,3.3,0.3
			c2.7,1.7,4.333,2.634,4.9,2.8c1.5,0.467,2.917,1.566,4.25,3.3c1.066,1.334,2.2,3.267,3.4,5.801c1.933,4.033,1.833,7.649-0.3,10.85
			C166.05,289.783,163.733,290.733,161.1,289.6z"/>
		<path style="fill-rule:evenodd;clip-rule:evenodd;fill:#1F2433;" d="M430.75,304.5c1.7-1.033,3.4-1.517,5.1-1.45
			c1.767,0.033,3.15,0.65,4.15,1.851c1.833,2.166,2.9,5.033,3.2,8.6c0.2,2.8-0.05,5.616-0.75,8.45
			c-0.767,2.934-1.816,6.066-3.15,9.399c-1.6,4.067-2.967,6.567-4.1,7.5c-1,0.834-2.167,0.15-3.5-2.05
			c-2.101-3.366-3.384-5.283-3.851-5.75c-1.399-1.3-2.366-3.3-2.899-6c-0.4-2.066-0.566-4.866-0.5-8.399
			C424.55,311.05,426.65,307,430.75,304.5z"/>
		<path style="fill-rule:evenodd;clip-rule:evenodd;fill:#1F2433;" d="M82.7,211.9c1.333,0.033,3.583,0.216,6.75,0.55
			c2.133,0.1,3.9,1.517,5.3,4.25c1.033,2,1.817,4.583,2.35,7.75c0.8,5.033,0.483,10.149-0.95,15.35c-0.6,2.066-2.033,3.066-4.3,3
			c-5.133-0.1-7.983-0.1-8.55,0c-3.233,0.5-5.45,0.15-6.65-1.05c-0.533-0.5-1.566-2.5-3.1-6c-0.7-1.566-0.383-5.434,0.95-11.6
			c1.3-6,2.483-9.634,3.55-10.9C78.85,212.283,80.4,211.833,82.7,211.9z"/>
		<path style="fill-rule:evenodd;clip-rule:evenodd;fill:#1F2433;" d="M124.45,2.35c1.333,0.033,3.583,0.217,6.75,0.55
			c2.133,0.1,3.9,1.517,5.3,4.25c1.033,2,1.817,4.583,2.35,7.75c0.867,5.067,0.55,10.184-0.95,15.35c-0.6,2.067-2.017,3.067-4.25,3
			c-5.1-0.1-7.95-0.1-8.55,0c-3.233,0.533-5.467,0.2-6.7-1c-0.533-0.533-1.566-2.533-3.1-6c-0.7-1.567-0.383-5.45,0.95-11.65
			c1.3-6,2.483-9.633,3.55-10.9C120.6,2.733,122.15,2.283,124.45,2.35z"/>
		<path style="fill-rule:evenodd;clip-rule:evenodd;fill:#1F2433;" d="M67,238.95c-0.767-0.9-0.833-2.517-0.2-4.851
			c0.633-2.333,1.567-3.767,2.8-4.3c1-0.399,1.5,0.167,1.5,1.7c0.033,0.9-0.017,2.434-0.15,4.6c0.1,1.5-0.317,2.617-1.25,3.351
			C68.767,240.184,67.867,240.017,67,238.95z"/>
		<path style="fill-rule:evenodd;clip-rule:evenodd;fill:#1F2433;" d="M13.55,49c2.333-0.667,4.034-0.6,5.1,0.2
			c0.867,0.667,0.65,1.4-0.65,2.2c-0.767,0.434-2.133,1.15-4.1,2.15c-1.233,0.867-2.4,1.083-3.5,0.65
			c-1.133-0.434-1.45-1.3-0.95-2.6C9.85,50.467,11.217,49.6,13.55,49z"/>
		<path style="fill-rule:evenodd;clip-rule:evenodd;fill:#1F2433;" d="M66.4,221.45c-1.033-1.601-1.667-3.566-1.9-5.9
			c-0.233-2.399,0.067-4.149,0.9-5.25c0.733-1,1.633-1.55,2.7-1.649c0.033,0,1.316,0.1,3.85,0.3c2.733,0.166,3.683,2.25,2.85,6.25
			c-0.333,1.6-1.183,4.767-2.55,9.5c-0.633,2.233-1.5,2.783-2.6,1.649C69.383,226.116,68.3,224.483,66.4,221.45z"/>
		<path style="fill-rule:evenodd;clip-rule:evenodd;fill:#1F2433;" d="M87.4,195.15c2.133-3.267,4.4-5.034,6.8-5.301
			c2.1-0.233,3.5,0.301,4.2,1.601c0.467,0.866,0.684,2.366,0.65,4.5c0,1.1,0.017,2.8,0.05,5.1c-0.133,2.2-0.533,4.65-1.2,7.351
			c-0.633,2.533-1.3,3.383-2,2.55c-0.433-0.634-0.783-1.15-1.05-1.55c-0.5-0.667-0.967-1.101-1.4-1.301
			c-1.8-0.399-3.184-0.783-4.15-1.149c-1.8-0.667-3.05-1.8-3.75-3.4C84.583,201.283,85.2,198.483,87.4,195.15z"/>
	</g>
</g>
</svg>
