<?xml version="1.0" encoding="iso-8859-1"?>
<!-- Generator: Adobe Illustrator 15.1.0, SVG Export Plug-In . SVG Version: 6.00 Build 0)  -->
<!DOCTYPE svg PUBLIC "-//W3C//DTD SVG 1.1//EN" "http://www.w3.org/Graphics/SVG/1.1/DTD/svg11.dtd">
<svg version="1.1" id="Layer_1" xmlns="http://www.w3.org/2000/svg" xmlns:xlink="http://www.w3.org/1999/xlink" x="0px" y="0px"
	 width="60.45px" height="47.55px" viewBox="0 0 60.45 47.55" style="enable-background:new 0 0 60.45 47.55;" xml:space="preserve"
	>
<g>
	<path style="fill-rule:evenodd;clip-rule:evenodd;fill:#1F2433;" d="M28.7,14.7c1.366,0.3,2.767,1.65,4.2,4.05
		c0.833,1.433,2.149,3.867,3.949,7.3c1.334,2.267,1.334,4.851,0,7.75c-1,2.134-2.633,4.3-4.899,6.5c-3.6,3.566-8.067,5.95-13.4,7.15
		c-2.1,0.467-3.867-0.483-5.3-2.851c-3.233-5.3-5.1-8.25-5.6-8.85C5.083,32.684,3.9,30.2,4.1,28.3c0.1-0.833,1.083-2.95,2.95-6.35
		c0.867-1.534,4.3-3.25,10.3-5.15C23.15,14.967,26.933,14.267,28.7,14.7z"/>
	<path style="fill-rule:evenodd;clip-rule:evenodd;fill:#1F2433;" d="M0.1,16.85c0.267-1.267,1.566-2.2,3.9-2.8
		c2.367-0.566,4.167-0.35,5.4,0.65c1.033,0.833,0.917,1.667-0.35,2.5C8.317,17.667,7,18.4,5.1,19.4c-1.167,0.9-2.367,1.067-3.6,0.5
		C0.267,19.333-0.2,18.317,0.1,16.85z"/>
	<path style="fill-rule:evenodd;clip-rule:evenodd;fill:#1F2433;" d="M14.25,7c0.667-1.933,1.883-3.633,3.65-5.1
		c1.833-1.5,3.483-2.117,4.95-1.85c1.3,0.233,2.333,0.883,3.1,1.95c0.1,0.133,0.883,1.517,2.35,4.15c1.633,2.9,0.534,4.983-3.3,6.25
		c-1.767,0.567-4.967,1.367-9.6,2.4c-2.267,0.5-3.3-0.117-3.1-1.85C12.333,12.683,12.983,10.7,14.25,7z"/>
	<path style="fill-rule:evenodd;clip-rule:evenodd;fill:#1F2433;" d="M41.75,17.35c1.233-2.2,3.95-3.05,8.15-2.55
		c4.133,0.5,7.1,1.917,8.899,4.25c1.533,2.034,2,3.767,1.4,5.2c-0.4,0.934-1.483,1.95-3.25,3.05C55.217,28.5,53.8,29.4,52.7,30
		c-1.9,1.066-4.184,1.967-6.851,2.7c-2.5,0.666-3.649,0.416-3.449-0.75c0.233-0.8,0.416-1.434,0.55-1.9
		c0.267-0.866,0.316-1.583,0.149-2.149c-0.8-2.034-1.383-3.667-1.75-4.9C40.717,20.8,40.85,18.917,41.75,17.35z"/>
</g>
</svg>
