<?xml version="1.0" encoding="iso-8859-1"?>
<!-- Generator: Adobe Illustrator 15.1.0, SVG Export Plug-In . SVG Version: 6.00 Build 0)  -->
<!DOCTYPE svg PUBLIC "-//W3C//DTD SVG 1.1//EN" "http://www.w3.org/Graphics/SVG/1.1/DTD/svg11.dtd">
<svg version="1.1" id="Layer_1" xmlns="http://www.w3.org/2000/svg" xmlns:xlink="http://www.w3.org/1999/xlink" x="0px" y="0px"
	 width="101px" height="123.85px" viewBox="0 0 101 123.85" style="enable-background:new 0 0 101 123.85;" xml:space="preserve">
<symbol  id="flash2.ai_x2F_Layer_1_x2F__x3C_Path_x3E__x5F_13" viewBox="-0.016 -32.114 85.027 32.139">
	<g id="Layer_1_3_">
		
			<linearGradient id="SVGID_1_" gradientUnits="userSpaceOnUse" x1="15458.8496" y1="682.958" x2="15479.4375" y2="682.958" gradientTransform="matrix(0.0923 0.9957 -0.9957 0.0923 -704.709 -15486.957)">
			<stop  offset="0" style="stop-color:#B3CACC"/>
			<stop  offset="1" style="stop-color:#B3CACC;stop-opacity:0"/>
		</linearGradient>
		<path style="fill-rule:evenodd;clip-rule:evenodd;fill:url(#SVGID_1_);" d="M81.6-13.1c0.7-2.066,1.5-4.533,2.4-7.4
			c0.4-0.833,0.7-2.133,0.9-3.9c0.233-2.033,0.1-3.233-0.4-3.6c-0.6-0.467-2.25-0.867-4.95-1.2c-4.767-0.566-7.7-0.95-8.8-1.15
			c-5.033-0.9-9.233-1.45-12.6-1.65c-2.967-0.167-6.617-0.15-10.95,0.05c-3.4,0.167-6.45,0.567-9.15,1.2
			c-1.4,0.333-3.066,0.85-5,1.55c-1.833,0.7-4.2,1.217-7.1,1.55c-4.434,0.4-8.483,0.8-12.15,1.2c-5.767,0.633-9.417,1.133-10.95,1.5
			c-2.2,0.534-3.133,1.35-2.8,2.45c1.633,4.933,4.6,9.917,8.9,14.95c4.833,5.7,8.95,8.183,12.35,7.45c1.733-0.367,3.733-1.6,6-3.7
			c2.133-2,4.184-3.133,6.15-3.4c3.767-0.5,9.383-1.55,16.85-3.15c6.633-1.133,12.284-1.267,16.95-0.4
			c0.967,0.2,2.783,1.067,5.45,2.6c2.1,1.233,3.95,1.683,5.55,1.35C79.15-7,80.267-9.1,81.6-13.1z"/>
	</g>
</symbol>
<symbol  id="flash2.ai_x2F_Layer_1_x2F__x3C_Path_x3E__x5F_15" viewBox="-0.01 -10.67 101.01 10.622">
	<g id="Layer_1_2_">
		<path style="fill-rule:evenodd;clip-rule:evenodd;fill:#757D7D;" d="M86.75-3.35C93.017-3.15,97.767-3.733,101-5.1
			c-0.267-1.1-2.283-1.917-6.05-2.45c-4.5-0.4-7.534-0.717-9.1-0.95c-6.567-1-11.267-1.633-14.1-1.9
			c-3.667-0.3-7.717-0.35-12.15-0.15c-4.5,0.167-7.883,0.417-10.15,0.75c-2.267,0.333-5.117,0.966-8.55,1.9
			c-2.633,0.7-4.467,1.133-5.5,1.3C34-6.367,30.283-5.967,24.25-5.4c-0.533,0.033-2.417,0.1-5.65,0.2
			c-2.5,0.034-4.883,0.25-7.15,0.65C7.883-4.017,5.333-3.617,3.8-3.35C1.133-2.85-0.133-2.367,0-1.9c0.167,0.566,1.8,0.917,4.9,1.05
			c2.934,0.133,6.017,0.033,9.25-0.3c2.434-0.267,5.967-0.1,10.6,0.5c4.7,0.566,8.283,0.733,10.75,0.5
			c3.267-0.3,7.65-0.983,13.15-2.05C55.117-3.467,59.5-4.25,61.8-4.55C65.033-5.017,69.2-5,74.3-4.5
			C81.9-3.767,86.05-3.383,86.75-3.35z"/>
	</g>
</symbol>
<g>
	
		<use xlink:href="#flash2.ai_x2F_Layer_1_x2F__x3C_Path_x3E__x5F_15"  width="101.01" height="10.622" x="-0.01" y="-10.67" transform="matrix(1 0 0 -1 0 113.2002)" style="overflow:visible;opacity:0.4688;enable-background:new    ;"/>
	
		<linearGradient id="SVGID_2_" gradientUnits="userSpaceOnUse" x1="25.1519" y1="50.8057" x2="109.7002" y2="50.8057" gradientTransform="matrix(0.9884 0.1517 -0.1517 0.9884 2.188683e-004 2.091825e-004)">
		<stop  offset="0" style="stop-color:#12C4C4"/>
		<stop  offset="0.0902" style="stop-color:#12BEC3"/>
		<stop  offset="0.2157" style="stop-color:#12ACC0"/>
		<stop  offset="0.3608" style="stop-color:#1290BC"/>
		<stop  offset="0.5137" style="stop-color:#1269B6"/>
		<stop  offset="0.6471" style="stop-color:#1241B0"/>
		<stop  offset="0.7333" style="stop-color:#134AAD"/>
		<stop  offset="0.8706" style="stop-color:#1661A4"/>
		<stop  offset="1" style="stop-color:#1A7D99"/>
	</linearGradient>
	<path style="fill-rule:evenodd;clip-rule:evenodd;fill:url(#SVGID_2_);" d="M84.2,47.25c1.233-4.833,2.55-8.767,3.95-11.8
		c0.699,2.433,0.949,5.783,0.75,10.05c-0.301,6.2-0.434,9.667-0.4,10.4c0.066,1.833,0.217,4.567,0.45,8.2
		c0.166,3.301,0.217,6.034,0.149,8.2c-0.033,1.601-0.35,4.134-0.949,7.601c-0.534,3.267-0.801,5.8-0.801,7.6
		c0,2.2,0.301,4.583,0.9,7.15c0.767,3.3,1.25,5.767,1.45,7.399c0.133,1.101,0.899,4.617,2.3,10.55c0.934,4.034,1.083,6.267,0.45,6.7
		c-0.601,0.467-2.25,0.867-4.95,1.2c-4.767,0.566-7.7,0.95-8.8,1.15c-5.033,0.899-9.233,1.449-12.601,1.649
		c-2.966,0.167-6.616,0.15-10.949-0.05c-3.4-0.167-6.45-0.566-9.15-1.2c-1.4-0.333-3.067-0.85-5-1.55c-1.833-0.7-4.2-1.217-7.1-1.55
		c-4.433-0.4-8.483-0.8-12.15-1.2c-5.767-0.634-9.417-1.134-10.95-1.5c-2.2-0.533-3.133-1.35-2.8-2.45c1.2-3.6,2.633-7.533,4.3-11.8
		c3.333-8.5,6.233-14.384,8.7-17.65c1.067-1.3,2-2.517,2.8-3.649c1.5-2.033,2.917-4.2,4.25-6.5c3.9-7.066,6.867-12.434,8.9-16.1
		c3.7-6.6,7.15-12.233,10.35-16.9c2.767-4,6.967-8.9,12.601-14.7c5.166-5.267,8.3-8.883,9.399-10.85c1.7-3,3.767-6.233,6.2-9.7
		c2.333-3.3,3.917-5.284,4.75-5.95c-1.066,4.7-1.75,7.433-2.05,8.2c-1.434,3.6-3.334,7.267-5.7,11c-1.3,2.167-2.4,5.017-3.3,8.55
		c-0.2,0.933-0.8,3.967-1.8,9.1c-0.101,0.467-0.65,3.217-1.65,8.25c-0.7,3.4-1.167,6.15-1.4,8.25c-0.133,1.5-0.116,4.15,0.051,7.95
		c0.133,3.233-0.017,5.884-0.45,7.95C63.583,70.983,63,74.967,62.2,81.2C61.533,86.167,60.75,90.1,59.85,93
		c-1,3.233-0.517,4.15,1.45,2.75c1.8-1.267,3.184-2.816,4.15-4.65c0.833-1.566,2.416-5.3,4.75-11.199
		c1.866-4.634,3.75-8.233,5.649-10.801c2.101-2.833,3.867-6.35,5.301-10.55C81.884,56.35,82.9,52.583,84.2,47.25z"/>
	
		<use xlink:href="#flash2.ai_x2F_Layer_1_x2F__x3C_Path_x3E__x5F_13"  width="85.027" height="32.139" x="-0.016" y="-32.114" transform="matrix(1 0 0 -1 7.9502 91.2998)" style="overflow:visible;opacity:0.3984;enable-background:new    ;"/>
	
		<linearGradient id="SVGID_3_" gradientUnits="userSpaceOnUse" x1="-129.2231" y1="7.7202" x2="-109.7384" y2="7.7202" gradientTransform="matrix(-0.204 -0.979 0.979 -0.204 1.254380e-004 -7.047355e-004)">
		<stop  offset="0" style="stop-color:#87D6D4"/>
		<stop  offset="1" style="stop-color:#87D6D4;stop-opacity:0"/>
	</linearGradient>
	<path style="fill-rule:evenodd;clip-rule:evenodd;fill:url(#SVGID_3_);" d="M42.85,120.4c-1.833-0.534-3.3-0.95-4.4-1.25
		c-1.934-0.467-3.9-0.784-5.9-0.95c-4.633-0.367-8.117-0.667-10.45-0.9c-4.267-0.434-5.833-0.783-4.7-1.05
		c2.533-1.967,5.367-3.866,8.5-5.7c6.3-3.666,10.983-5.2,14.05-4.6c3.066,0.6,5.316,3.35,6.75,8.25c0.7,2.467,1.1,4.866,1.2,7.2
		C46.6,121.267,44.917,120.934,42.85,120.4z"/>
	
		<linearGradient id="SVGID_4_" gradientUnits="userSpaceOnUse" x1="-91.8052" y1="10.2939" x2="-70.0749" y2="10.2939" gradientTransform="matrix(-0.2036 -0.979 0.979 -0.2036 -1.392663e-004 4.439354e-004)">
		<stop  offset="0" style="stop-color:#87D6D4"/>
		<stop  offset="1" style="stop-color:#87D6D4;stop-opacity:0"/>
	</linearGradient>
	<path style="fill-rule:evenodd;clip-rule:evenodd;fill:url(#SVGID_4_);" d="M19,89.15c0.133-0.767,1.483-3.067,4.05-6.9
		c1.934-2.934,3.934-5.816,6-8.65l5.3-7.35l-0.7,2.5c-0.633,2.434-1.383,5.6-2.25,9.5c-0.867,3.934-3.2,6.934-7,9
		C22.533,88.283,20.733,88.917,19,89.15z"/>
	
		<linearGradient id="SVGID_5_" gradientUnits="userSpaceOnUse" x1="-140.4824" y1="55.7852" x2="-106.7249" y2="55.7852" gradientTransform="matrix(-0.2037 -0.979 0.979 -0.2037 2.712309e-004 -4.165769e-004)">
		<stop  offset="0" style="stop-color:#87D6D4"/>
		<stop  offset="1" style="stop-color:#87D6D4;stop-opacity:0"/>
	</linearGradient>
	<path style="fill-rule:evenodd;clip-rule:evenodd;fill:url(#SVGID_5_);" d="M73.9,112.25C75.767,105.35,77.8,100.6,80,98
		c2.533-2.934,4.316-4.25,5.35-3.95c0.9,0.267,1.667,1.983,2.301,5.15c0.8,3.899,2.267,10.083,4.399,18.55l-0.55,0.7
		c-0.934,0.533-2.8,0.983-5.6,1.35l-14.15,2.05C72.25,118.917,72.967,115.717,73.9,112.25z"/>
	
		<linearGradient id="SVGID_6_" gradientUnits="userSpaceOnUse" x1="-134.4902" y1="34.8921" x2="-123.9927" y2="34.8921" gradientTransform="matrix(-0.2048 -0.9788 0.9788 -0.2048 -1.177192e-005 -3.573895e-004)">
		<stop  offset="0" style="stop-color:#87D6D4"/>
		<stop  offset="1" style="stop-color:#87D6D4;stop-opacity:0"/>
	</linearGradient>
	<path style="fill-rule:evenodd;clip-rule:evenodd;fill:url(#SVGID_6_);" d="M57.5,122.65c0.3-1.067,0.75-2.101,1.35-3.101
		c1.134-1.967,2.384-2.767,3.75-2.399c1.367,0.366,1.967,1.416,1.801,3.149c-0.067,0.867-0.267,1.684-0.601,2.45L57.5,122.65z"/>
	
		<linearGradient id="SVGID_7_" gradientUnits="userSpaceOnUse" x1="-86.1167" y1="30.5732" x2="-47.3532" y2="30.5732" gradientTransform="matrix(-0.2038 -0.979 0.979 -0.2038 -1.240671e-004 8.882582e-004)">
		<stop  offset="0" style="stop-color:#87D6D4"/>
		<stop  offset="1" style="stop-color:#87D6D4;stop-opacity:0"/>
	</linearGradient>
	<path style="fill-rule:evenodd;clip-rule:evenodd;fill:url(#SVGID_7_);" d="M49.35,41.2c1.867,0,3.133,2.133,3.8,6.4
		c0.733,4.767,0.149,10-1.75,15.7c-1.767,5.267-4.601,9.45-8.5,12.55c-2.767,2.2-4.933,3.301-6.5,3.301
		c-0.867,0-1.333-1.717-1.4-5.15c-0.1-3.767,0.467-7.833,1.7-12.2c1.1-3.9,3.533-8.5,7.3-13.8C45.9,45.333,47.683,43.067,49.35,41.2
		z"/>
	
		<linearGradient id="SVGID_8_" gradientUnits="userSpaceOnUse" x1="-93.0918" y1="12.3242" x2="-87.6248" y2="12.3242" gradientTransform="matrix(-0.2058 -0.9786 0.9786 -0.2058 -1.788437e-004 -4.459023e-004)">
		<stop  offset="0" style="stop-color:#87D6D4"/>
		<stop  offset="1" style="stop-color:#87D6D4;stop-opacity:0"/>
	</linearGradient>
	<path style="fill-rule:evenodd;clip-rule:evenodd;fill:url(#SVGID_8_);" d="M27.85,86.5c0.533-0.767,1.15-1.467,1.85-2.1
		c1.367-1.233,2.417-1.417,3.15-0.551c1.033,1.167,0.6,2.534-1.3,4.101C29.75,89.417,28.517,88.934,27.85,86.5z"/>
	
		<linearGradient id="SVGID_9_" gradientUnits="userSpaceOnUse" x1="-68.9751" y1="54.9365" x2="-34.3743" y2="54.9365" gradientTransform="matrix(-0.2038 -0.979 0.979 -0.2038 6.255507e-005 3.885329e-004)">
		<stop  offset="0" style="stop-color:#87D6D4"/>
		<stop  offset="1" style="stop-color:#87D6D4;stop-opacity:0"/>
	</linearGradient>
	<path style="fill-rule:evenodd;clip-rule:evenodd;fill:url(#SVGID_9_);" d="M69.1,23.5c-0.8,2.767-1.583,6.4-2.35,10.9
		c-0.3,1.8-0.9,4.533-1.8,8.2c-0.733,3.033-1.217,5.517-1.45,7.45c-0.134,1.167-0.25,2.934-0.35,5.3
		c-0.034,0.8-0.217,1.083-0.551,0.85c-0.933-0.6-2-2.167-3.199-4.7c-1.667-3.5-2.367-7.133-2.101-10.9
		c0.267-3.7,2.316-7.65,6.15-11.85C65.35,26.617,67.233,24.867,69.1,23.5z"/>
	
		<linearGradient id="SVGID_10_" gradientUnits="userSpaceOnUse" x1="-33.9312" y1="68.0947" x2="-20.8302" y2="68.0947" gradientTransform="matrix(-0.2042 -0.9789 0.9789 -0.2042 5.534291e-005 -9.561777e-004)">
		<stop  offset="0" style="stop-color:#87D6D4"/>
		<stop  offset="1" style="stop-color:#87D6D4;stop-opacity:0"/>
	</linearGradient>
	<path style="fill-rule:evenodd;clip-rule:evenodd;fill:url(#SVGID_10_);" d="M76.15,6.45c-0.2,1.767-0.667,3.65-1.4,5.65
		c-1.467,4.033-3.55,6.667-6.25,7.9c-0.1-0.233-0.083-0.667,0.05-1.3c0.3-1.233,1.066-2.767,2.3-4.6
		C72.816,11.167,74.583,8.617,76.15,6.45z"/>
	
		<linearGradient id="SVGID_11_" gradientUnits="userSpaceOnUse" x1="-97.1621" y1="70.1816" x2="-73.2842" y2="70.1816" gradientTransform="matrix(-0.2042 -0.9789 0.9789 -0.2042 4.574656e-005 2.297759e-004)">
		<stop  offset="0" style="stop-color:#87D6D4"/>
		<stop  offset="1" style="stop-color:#87D6D4;stop-opacity:0"/>
	</linearGradient>
	<path style="fill-rule:evenodd;clip-rule:evenodd;fill:url(#SVGID_11_);" d="M87.35,58.6L87.6,63c0.2,3.2,0.417,5.45,0.65,6.75
		c0.366,2.134,0.017,4.983-1.05,8.55s-2,3.267-2.8-0.899c-0.733-3.9-0.467-8.2,0.8-12.9L87.35,58.6z"/>
	
		<linearGradient id="SVGID_12_" gradientUnits="userSpaceOnUse" x1="-107.7568" y1="59.0957" x2="-79.6428" y2="59.0957" gradientTransform="matrix(-0.2036 -0.979 0.979 -0.2036 -1.333952e-004 6.728470e-004)">
		<stop  offset="0" style="stop-color:#87D6D4"/>
		<stop  offset="1" style="stop-color:#87D6D4;stop-opacity:0"/>
	</linearGradient>
	<path style="fill-rule:evenodd;clip-rule:evenodd;fill:url(#SVGID_12_);" d="M81.05,70.85c1.033,3.233,1.367,6.684,1,10.351
		C81.616,85.6,80.566,89,78.9,91.4c-1.634,2.399-3.034,2.633-4.2,0.699c-3.101-5.033-3.7-10.033-1.8-15
		c1.733-4.433,3.899-7.767,6.5-10L81.05,70.85z"/>
	
		<linearGradient id="SVGID_13_" gradientUnits="userSpaceOnUse" x1="-103.7153" y1="22.2051" x2="-89.9547" y2="22.2051" gradientTransform="matrix(-0.7485 -0.6631 0.6631 -0.7485 4.205704e-004 3.228188e-004)">
		<stop  offset="0" style="stop-color:#87D6D4"/>
		<stop  offset="1" style="stop-color:#87D6D4;stop-opacity:0"/>
	</linearGradient>
	<path style="fill-rule:evenodd;clip-rule:evenodd;fill:url(#SVGID_13_);" d="M87.65,38.85l0.25,4.6c0.1,3.5,0.017,6.283-0.25,8.35
		c-0.434,1.034-0.983,1.833-1.65,2.4c-0.866,0.733-1.5,0.517-1.9-0.65c-0.366-1.1,0.117-3.883,1.45-8.35L87.65,38.85z"/>
	
		<linearGradient id="SVGID_14_" gradientUnits="userSpaceOnUse" x1="-123.4502" y1="38.5488" x2="-70.3354" y2="38.5488" gradientTransform="matrix(-0.2038 -0.979 0.979 -0.2038 -1.019537e-004 8.502901e-004)">
		<stop  offset="0" style="stop-color:#87D6D4"/>
		<stop  offset="1" style="stop-color:#87D6D4;stop-opacity:0"/>
	</linearGradient>
	<path style="fill-rule:evenodd;clip-rule:evenodd;fill:url(#SVGID_14_);" d="M62.4,63.4c1-0.5,1.533-0.601,1.6-0.301
		c0.066,0.301,0.066,1.25,0,2.851c0.1,1.233-0.083,2.8-0.55,4.7C63.184,71.783,62.7,73.6,62,76.1c-0.2,0.9-0.517,3.051-0.95,6.45
		c-0.366,3.101-0.899,5.8-1.6,8.101c0,0.033-1.15,4.416-3.45,13.149c-1.533,5.867-2.533,9.066-3,9.601
		c-0.8,0.933-1.934-2.101-3.4-9.101c-1.633-7.533-2.133-14.45-1.5-20.75c0.566-6.033,2.733-10.967,6.5-14.8
		C56.467,66.85,59.066,65.066,62.4,63.4z"/>
	
		<linearGradient id="SVGID_15_" gradientUnits="userSpaceOnUse" x1="-114.8438" y1="22.3042" x2="-95.4865" y2="22.3042" gradientTransform="matrix(-0.2041 -0.979 0.979 -0.2041 -1.677871e-005 6.219745e-004)">
		<stop  offset="0" style="stop-color:#87D6D4"/>
		<stop  offset="1" style="stop-color:#87D6D4;stop-opacity:0"/>
	</linearGradient>
	<path style="fill-rule:evenodd;clip-rule:evenodd;fill:url(#SVGID_15_);" d="M42.8,92.8c0.233-0.8,0.467-1.5,0.7-2.1
		c0.5-1.134,0.783-1.084,0.85,0.149c0.133,1.967,1.05,7.267,2.75,15.9c-0.1,0.233-0.333,0.3-0.7,0.2
		c-0.767-0.167-1.85-1.017-3.25-2.55c-1.6-1.801-2.4-3.934-2.4-6.4C40.75,95.667,41.433,93.934,42.8,92.8z"/>
</g>
</svg>
