<?xml version="1.0" encoding="iso-8859-1"?>
<!-- Generator: Adobe Illustrator 15.1.0, SVG Export Plug-In . SVG Version: 6.00 Build 0)  -->
<!DOCTYPE svg PUBLIC "-//W3C//DTD SVG 1.1//EN" "http://www.w3.org/Graphics/SVG/1.1/DTD/svg11.dtd">
<svg version="1.1" id="Layer_1" xmlns="http://www.w3.org/2000/svg" xmlns:xlink="http://www.w3.org/1999/xlink" x="0px" y="0px"
	 width="43.9px" height="36.55px" viewBox="0 0 43.9 36.55" style="enable-background:new 0 0 43.9 36.55;" xml:space="preserve">
<g>
	
		<linearGradient id="SVGID_1_" gradientUnits="userSpaceOnUse" x1="-30.314" y1="22.4785" x2="-6.8522" y2="22.4785" gradientTransform="matrix(0.1417 -0.9899 0.9899 0.1417 -5.283505e-004 -3.348589e-004)">
		<stop  offset="0" style="stop-color:#585745"/>
		<stop  offset="1" style="stop-color:#292C40"/>
	</linearGradient>
	<path style="fill-rule:evenodd;clip-rule:evenodd;fill:url(#SVGID_1_);" d="M42.8,10.3c-0.7,1.4-1.083,2.867-1.149,4.4
		c-1.334,0.767-2.301,1.216-2.9,1.35c-0.8,0.2-1.816,1.867-3.05,5c-0.233,0.601-0.767,1.101-1.601,1.5
		c-0.767,0.367-1.25,1.033-1.449,2c-0.334,1.434-0.634,3.4-0.9,5.9c-0.2,1.333-0.417,1.95-0.65,1.85
		c-0.133-0.033-0.3-0.816-0.5-2.35l-0.75-4.65c-0.066-0.2-0.149-1.05-0.25-2.55c-0.066-0.767-0.233-1.25-0.5-1.45
		c-0.566-0.366-0.75-1.333-0.55-2.9c0.167-1.7,0.066-2.783-0.3-3.25L27.7,14.8c-0.2-0.1-0.25-0.3-0.15-0.6
		c-0.767,0.267-1.333,0.7-1.7,1.3c-0.199,0.233-0.517,0.867-0.949,1.9c-0.101,0.267-0.384,0.8-0.851,1.6
		c-0.366,0.6-0.6,1.134-0.7,1.6c-0.1,0.5-0.133,1.2-0.1,2.101c0,1.066-0.033,1.75-0.1,2.05l-0.75,2.1
		c-0.4,0.767-0.567,1.467-0.5,2.101l-0.75,6.399c-0.101,0.801-0.267,1.2-0.5,1.2c-0.1-0.033-0.2-0.733-0.3-2.1
		c-0.133-1.733-0.283-3.033-0.45-3.9c-0.867-2.899-1.35-5.149-1.45-6.75v-2.2c0-0.833-0.15-1.55-0.45-2.149
		c-0.4-0.867-0.533-1.617-0.4-2.25l0.35-1c0.033-0.333-0.017-0.667-0.15-1c-0.566-0.467-0.9-0.95-1-1.45l-0.3-2.15l-0.35-1.35
		c-0.233-0.567-0.533-0.883-0.9-0.95c-0.367-0.033-0.75,0.184-1.15,0.65c-0.3,0.4-0.5,0.816-0.6,1.25
		c-0.1,0.2-0.083,0.517,0.05,0.95l0.2,0.95c0,0.5-0.183,1.217-0.55,2.15l-0.4,0.85c-0.133,0.233-0.2,0.533-0.2,0.9
		c0,1.167-0.1,2.35-0.3,3.55c-0.367,1.367-0.55,1.95-0.55,1.75c-0.567-2.733-1.083-4.566-1.55-5.5c-0.3-0.533-0.55-1.566-0.75-3.1
		c-0.2-1.367-0.517-2.383-0.95-3.05C7.767,9.75,7.25,9.033,6.95,8.5C6.683,8.133,6.467,7.733,6.3,7.3c0-0.733-0.033-1.183-0.1-1.35
		c-0.367-0.6-1.333-1.133-2.9-1.6C1.467,3.883,0.367,3.567,0,3.4c0.1,0,0.233,0.017,0.4,0.05l0.65,0.1C1.25,3.517,1.467,3.5,1.7,3.5
		c0.533,0,1.2,0,2,0c0.133,0,0.383,0.1,0.75,0.3C4.783,3.967,5.133,4.05,5.5,4.05c0.4,0,1.183-0.333,2.35-1
		c1.167-0.667,2.717-1,4.65-1c0.9,0,1.6,0.2,2.1,0.6c0.5,0.367,1.066,0.55,1.7,0.55c0.8,0,1.333-0.167,1.6-0.5
		c0.267-0.467,0.517-0.833,0.75-1.1c0.934-1.067,3.667-1.6,8.2-1.6c1,0,1.784,0.317,2.351,0.95c0.3,0.3,0.649,0.7,1.05,1.2
		c0.467,0.267,1.6,0.617,3.4,1.05c1.8,0.4,3.033,0.6,3.699,0.6c0.5,0,0.817-0.033,0.95-0.1c0.101-0.067,0.25-0.217,0.45-0.45h1.1
		c1.067-0.1,2.051,0.4,2.95,1.5c0.733,0.9,1.101,1.667,1.101,2.3C43.9,7.65,43.533,8.733,42.8,10.3z"/>
</g>
</svg>
