<?xml version="1.0" encoding="iso-8859-1"?>
<!-- Generator: Adobe Illustrator 15.1.0, SVG Export Plug-In . SVG Version: 6.00 Build 0)  -->
<!DOCTYPE svg PUBLIC "-//W3C//DTD SVG 1.1//EN" "http://www.w3.org/Graphics/SVG/1.1/DTD/svg11.dtd">
<svg version="1.1" id="Layer_1" xmlns="http://www.w3.org/2000/svg" xmlns:xlink="http://www.w3.org/1999/xlink" x="0px" y="0px"
	 width="65.25px" height="37.65px" viewBox="0 0 65.25 37.65" style="enable-background:new 0 0 65.25 37.65;" xml:space="preserve"
	>
<symbol  id="flash2.ai_x2F_Layer_1_x2F__x3C_Path_x3E_" viewBox="0 -16.195 13.29 16.173">
	<g id="Layer_1_12_">
		
			<linearGradient id="SVGID_1_" gradientUnits="userSpaceOnUse" x1="10646.3789" y1="3090.3428" x2="10675.5273" y2="3090.3428" gradientTransform="matrix(0.5378 0.8431 -0.8431 0.5378 -3118.7705 -10657.5244)">
			<stop  offset="0" style="stop-color:#87D6D4"/>
			<stop  offset="1" style="stop-color:#87D6D4;stop-opacity:0"/>
		</linearGradient>
		<path style="fill-rule:evenodd;clip-rule:evenodd;fill:url(#SVGID_1_);" d="M0-15.25c0.2,0.6,2.233,3.2,6.1,7.8
			c3.933,4.633,6.25,7.1,6.95,7.4c0.967,0.466-0.983-4.9-5.85-16.1C2.833-16.317,0.433-16.017,0-15.25z"/>
	</g>
</symbol>
<symbol  id="flash2.ai_x2F_Layer_1_x2F__x3C_Path_x3E__x5F_1" viewBox="0 -11.567 10.8 11.567">
	<g id="Layer_1_11_">
		
			<linearGradient id="SVGID_2_" gradientUnits="userSpaceOnUse" x1="16678.5703" y1="-398.7344" x2="16696.6895" y2="-398.7344" gradientTransform="matrix(-0.0455 0.999 -0.999 -0.0455 367.0259 -16696.6758)">
			<stop  offset="0" style="stop-color:#87D6D4"/>
			<stop  offset="1" style="stop-color:#87D6D4;stop-opacity:0"/>
		</linearGradient>
		<path style="fill-rule:evenodd;clip-rule:evenodd;fill:url(#SVGID_2_);" d="M10.8,0c-0.233-2.9-0.333-4.95-0.3-6.15
			c0.1-1.8-1.433-3.3-4.6-4.5c-1.233-0.5-2.583-0.8-4.05-0.9C1.117-11.583,0.5-11.567,0-11.5C5.067-5.633,8.667-1.8,10.8,0z"/>
	</g>
</symbol>
<symbol  id="flash2.ai_x2F_Layer_1_x2F__x3C_Path_x3E__x5F_10" viewBox="0 -8.75 2.725 8.7">
	<g id="Layer_1_2_">
		
			<linearGradient id="SVGID_3_" gradientUnits="userSpaceOnUse" x1="18659.3164" y1="-3374.4448" x2="18665.0508" y2="-3374.4448" gradientTransform="matrix(-0.3487 0.9372 -0.9372 -0.3487 3345.7539 -18670.9297)">
			<stop  offset="0" style="stop-color:#87D6D4"/>
			<stop  offset="1" style="stop-color:#87D6D4;stop-opacity:0"/>
		</linearGradient>
		<path style="fill-rule:evenodd;clip-rule:evenodd;fill:url(#SVGID_3_);" d="M0-0.05C0.5-0.583,1-1.2,1.5-1.9
			c0.933-1.434,1.333-2.6,1.2-3.5S2.067-7.133,1.2-7.9C0.8-8.267,0.4-8.55,0-8.75C0.233-6.317,0.35-4.8,0.35-4.2
			C0.35-3.6,0.233-2.217,0-0.05z"/>
	</g>
</symbol>
<symbol  id="flash2.ai_x2F_Layer_1_x2F__x3C_Path_x3E__x5F_2" viewBox="0.003 -11 3.197 11">
	<g id="Layer_1_10_">
		
			<linearGradient id="SVGID_4_" gradientUnits="userSpaceOnUse" x1="10337.5654" y1="3161.7949" x2="10353.208" y2="3161.7949" gradientTransform="matrix(0.561 0.8278 -0.8278 0.561 -3183.3789 -10343.5518)">
			<stop  offset="0" style="stop-color:#87D6D4"/>
			<stop  offset="1" style="stop-color:#87D6D4;stop-opacity:0"/>
		</linearGradient>
		<path style="fill-rule:evenodd;clip-rule:evenodd;fill:url(#SVGID_4_);" d="M1.7,0c0.233-0.433,0.316-1.767,0.25-4
			C1.883-6.233,2.3-8.567,3.2-11c-1.133,0.967-2.1,2.117-2.9,3.45c-0.466,0.833-0.383,2.333,0.25,4.5C0.883-1.95,1.267-0.933,1.7,0z
			"/>
	</g>
</symbol>
<symbol  id="flash2.ai_x2F_Layer_1_x2F__x3C_Path_x3E__x5F_3" viewBox="-0.008 -7.45 5.122 7.45">
	<g id="Layer_1_9_">
		
			<linearGradient id="SVGID_5_" gradientUnits="userSpaceOnUse" x1="18656.4922" y1="-3382.2363" x2="18668.0176" y2="-3382.2363" gradientTransform="matrix(-0.3492 0.937 -0.937 -0.3492 3351.2129 -18673.4316)">
			<stop  offset="0" style="stop-color:#87D6D4"/>
			<stop  offset="1" style="stop-color:#87D6D4;stop-opacity:0"/>
		</linearGradient>
		<path style="fill-rule:evenodd;clip-rule:evenodd;fill:url(#SVGID_5_);" d="M3.25,0C4.183-1,4.767-1.75,5-2.25
			c0.167-0.3,0.15-0.583-0.05-0.85c-0.067-0.066-0.4-0.35-1-0.85c-0.6-0.5-1.15-1.667-1.65-3.5c-1.2,1.4-1.9,2.467-2.1,3.2
			C0.033-3.617-0.033-3.217,0-3.05C0.033-2.817,0.3-2.567,0.8-2.3C1.5-1.933,2.317-1.167,3.25,0z"/>
	</g>
</symbol>
<symbol  id="flash2.ai_x2F_Layer_1_x2F__x3C_Path_x3E__x5F_4" viewBox="-0.05 -7.1 3.75 7.1">
	<g id="Layer_1_8_">
		
			<linearGradient id="SVGID_6_" gradientUnits="userSpaceOnUse" x1="18664.0039" y1="-3392.9824" x2="18673.4258" y2="-3392.9824" gradientTransform="matrix(-0.3503 0.9367 -0.9367 -0.3503 3362.7598 -18678.7129)">
			<stop  offset="0" style="stop-color:#87D6D4"/>
			<stop  offset="1" style="stop-color:#87D6D4;stop-opacity:0"/>
		</linearGradient>
		<path style="fill-rule:evenodd;clip-rule:evenodd;fill:url(#SVGID_6_);" d="M0.1,0c0.5-0.133,1.017-0.367,1.55-0.7
			c1.067-0.667,1.7-1.466,1.9-2.4c0.3-1.5,0.15-2.833-0.45-4C2-6.733,1.15-6.033,0.55-5C-0.05-3.967-0.2-2.3,0.1,0z"/>
	</g>
</symbol>
<symbol  id="flash2.ai_x2F_Layer_1_x2F__x3C_Path_x3E__x5F_5" viewBox="0 -14.05 9.75 14.052">
	<g id="Layer_1_7_">
		
			<linearGradient id="SVGID_7_" gradientUnits="userSpaceOnUse" x1="18661.5391" y1="-3395.7676" x2="18674.8066" y2="-3395.7676" gradientTransform="matrix(-0.3505 0.9366 -0.9366 -0.3505 3365.5957 -18680.0078)">
			<stop  offset="0" style="stop-color:#87D6D4"/>
			<stop  offset="1" style="stop-color:#87D6D4;stop-opacity:0"/>
		</linearGradient>
		<path style="fill-rule:evenodd;clip-rule:evenodd;fill:url(#SVGID_7_);" d="M0-13.6c1.067,4.667,1.933,7.9,2.6,9.7
			c0.667,1.8,1.3,2.983,1.9,3.55C5.367,0.417,6.1-0.067,6.7-1.8c0.9-2.6,1.917-6.684,3.05-12.25c-3,0.6-5.083,0.85-6.25,0.75L0-13.6
			z"/>
	</g>
</symbol>
<symbol  id="flash2.ai_x2F_Layer_1_x2F__x3C_Path_x3E__x5F_6" viewBox="0.013 -6.75 2.387 6.75">
	<g id="Layer_1_6_">
		
			<linearGradient id="SVGID_8_" gradientUnits="userSpaceOnUse" x1="18656.7383" y1="-3378.5977" x2="18666.9824" y2="-3378.5977" gradientTransform="matrix(-0.349 0.9371 -0.9371 -0.349 3348.5459 -18672.2109)">
			<stop  offset="0" style="stop-color:#87D6D4"/>
			<stop  offset="1" style="stop-color:#87D6D4;stop-opacity:0"/>
		</linearGradient>
		<path style="fill-rule:evenodd;clip-rule:evenodd;fill:url(#SVGID_8_);" d="M2.4,0C1.933-2.067,1.55-4.317,1.25-6.75
			c-0.967,1.233-1.367,2.167-1.2,2.8L2.4,0z"/>
	</g>
</symbol>
<symbol  id="flash2.ai_x2F_Layer_1_x2F__x3C_Path_x3E__x5F_7" viewBox="0 -11.95 8.762 11.95">
	<g id="Layer_1_5_">
		
			<linearGradient id="SVGID_9_" gradientUnits="userSpaceOnUse" x1="18659.0078" y1="-3383.0703" x2="18664.877" y2="-3383.0703" gradientTransform="matrix(-0.3493 0.937 -0.937 -0.3493 3351.6011 -18673.6113)">
			<stop  offset="0" style="stop-color:#87D6D4"/>
			<stop  offset="1" style="stop-color:#87D6D4;stop-opacity:0"/>
		</linearGradient>
		<path style="fill-rule:evenodd;clip-rule:evenodd;fill:url(#SVGID_9_);" d="M8.15,0C8.417-0.5,8.6-1.15,8.7-1.95
			C8.9-3.55,8.617-5.1,7.85-6.6c-0.733-1.533-2.267-2.883-4.6-4.05C2.083-11.25,1-11.683,0-11.95L8.15,0z"/>
	</g>
</symbol>
<symbol  id="flash2.ai_x2F_Layer_1_x2F__x3C_Path_x3E__x5F_8" viewBox="0.034 -18.3 5.566 18.3">
	<g id="Layer_1_4_">
		
			<linearGradient id="SVGID_10_" gradientUnits="userSpaceOnUse" x1="18654.4688" y1="-3382.084" x2="18667.4902" y2="-3382.084" gradientTransform="matrix(-0.3494 0.937 -0.937 -0.3494 3353.6621 -18674.5547)">
			<stop  offset="0" style="stop-color:#87D6D4"/>
			<stop  offset="1" style="stop-color:#87D6D4;stop-opacity:0"/>
		</linearGradient>
		<path style="fill-rule:evenodd;clip-rule:evenodd;fill:url(#SVGID_10_);" d="M1.5,0l2.3-11.15c0.4-2.233,1-4.617,1.8-7.15
			c-0.733,0.466-1.517,1.083-2.35,1.85c-1.633,1.5-2.633,2.967-3,4.4c-0.367,1.433-0.267,3.833,0.3,7.2
			C0.817-3.15,1.133-1.533,1.5,0z"/>
	</g>
</symbol>
<symbol  id="flash2.ai_x2F_Layer_1_x2F__x3C_Path_x3E__x5F_9" viewBox="-0.025 -5.91 4.625 5.914">
	<g id="Layer_1_3_">
		
			<linearGradient id="SVGID_11_" gradientUnits="userSpaceOnUse" x1="18660.0938" y1="-3374.564" x2="18664.4688" y2="-3374.564" gradientTransform="matrix(-0.3486 0.9373 -0.9373 -0.3486 3344.4463 -18670.332)">
			<stop  offset="0" style="stop-color:#87D6D4"/>
			<stop  offset="1" style="stop-color:#87D6D4;stop-opacity:0"/>
		</linearGradient>
		<path style="fill-rule:evenodd;clip-rule:evenodd;fill:url(#SVGID_11_);" d="M0.35-5.9c-0.5,3.8-0.5,5.767,0,5.9
			C0.817,0.1,2.233-1.6,4.6-5.1C2.6-5.7,1.183-5.967,0.35-5.9z"/>
	</g>
</symbol>
<g>
	
		<linearGradient id="SVGID_12_" gradientUnits="userSpaceOnUse" x1="-51.4551" y1="19.8047" x2="14.533" y2="19.8047" gradientTransform="matrix(-0.1466 -0.9892 0.9892 -0.1466 2.326369e-004 -5.186796e-004)">
		<stop  offset="0" style="stop-color:#004274"/>
		<stop  offset="0.1098" style="stop-color:#01385A"/>
		<stop  offset="0.251" style="stop-color:#022D3F"/>
		<stop  offset="0.3765" style="stop-color:#03262F"/>
		<stop  offset="0.4745" style="stop-color:#032429"/>
		<stop  offset="1" style="stop-color:#001C21"/>
	</linearGradient>
	<path style="fill-rule:evenodd;clip-rule:evenodd;fill:url(#SVGID_12_);" d="M42.6,15.45c0.334,1.466,1.733,5.1,4.2,10.899
		c2.233,5.167,3.334,8.45,3.3,9.851c-3,0.633-6.25,0.767-9.75,0.399c-3.966-0.399-8.366-0.25-13.2,0.45
		C20.65,38.017,14.167,37.667,7.7,36c-6.133-1.6-8.6-3.217-7.4-4.85c2.3-3.2,5.967-7.467,11-12.8c2.5-2.667,4.784-5.017,6.85-7.05
		l0.35,6.45c0.467,4.333,1.3,6.533,2.5,6.6c1.2,0.101,4.583-3.933,10.15-12.1C33.917,8.183,36.566,4.1,39.1,0L42.6,15.45z"/>
	
		<linearGradient id="SVGID_13_" gradientUnits="userSpaceOnUse" x1="-52.4058" y1="51.457" x2="-26.4883" y2="51.457" gradientTransform="matrix(-0.2035 -0.9791 0.9791 -0.2035 2.932549e-005 1.299530e-004)">
		<stop  offset="0" style="stop-color:#004274"/>
		<stop  offset="0.1098" style="stop-color:#01385A"/>
		<stop  offset="0.251" style="stop-color:#022D3F"/>
		<stop  offset="0.3765" style="stop-color:#03262F"/>
		<stop  offset="0.4745" style="stop-color:#032429"/>
		<stop  offset="1" style="stop-color:#001C21"/>
	</linearGradient>
	<path style="fill-rule:evenodd;clip-rule:evenodd;fill:url(#SVGID_13_);" d="M55.05,36.65L55.8,29.3c0.066-0.5,0.05-1.8-0.05-3.899
		c-0.1-1.467,0.017-2.034,0.35-1.7c2.7,2.7,5.75,6.934,9.15,12.7c-0.967,0.433-2.116,0.767-3.45,1
		C59.1,37.866,56.85,37.616,55.05,36.65z"/>
	
		<use xlink:href="#flash2.ai_x2F_Layer_1_x2F__x3C_Path_x3E__x5F_10"  width="2.725" height="8.7" y="-8.75" transform="matrix(1 0 0 -1 55.9004 24.1504)" style="overflow:visible;opacity:0.3008;enable-background:new    ;"/>
	
		<use xlink:href="#flash2.ai_x2F_Layer_1_x2F__x3C_Path_x3E__x5F_9"  width="4.625" height="5.914" x="-0.025" y="-5.91" transform="matrix(1 0 0 -1 59.7998 31.5996)" style="overflow:visible;opacity:0.3008;enable-background:new    ;"/>
	
		<use xlink:href="#flash2.ai_x2F_Layer_1_x2F__x3C_Path_x3E__x5F_8"  width="5.566" height="18.3" x="0.034" y="-18.3" transform="matrix(1 0 0 -1 37.5996 1)" style="overflow:visible;opacity:0.3008;enable-background:new    ;"/>
	
		<use xlink:href="#flash2.ai_x2F_Layer_1_x2F__x3C_Path_x3E__x5F_7"  width="8.762" height="11.95" y="-11.95" transform="matrix(1 0 0 -1 27.25 6.7002)" style="overflow:visible;opacity:0.3008;enable-background:new    ;"/>
	
		<use xlink:href="#flash2.ai_x2F_Layer_1_x2F__x3C_Path_x3E__x5F_6"  width="2.387" height="6.75" x="0.013" y="-6.75" transform="matrix(1 0 0 -1 35.7998 1.8999)" style="overflow:visible;opacity:0.3008;enable-background:new    ;"/>
	
		<use xlink:href="#flash2.ai_x2F_Layer_1_x2F__x3C_Path_x3E__x5F_5"  width="9.75" height="14.052" y="-14.05" transform="matrix(1 0 0 -1 32.5996 21.75)" style="overflow:visible;opacity:0.3008;enable-background:new    ;"/>
	
		<use xlink:href="#flash2.ai_x2F_Layer_1_x2F__x3C_Path_x3E__x5F_4"  width="3.75" height="7.1" x="-0.05" y="-7.1" transform="matrix(1 0 0 -1 41.4502 22.5498)" style="overflow:visible;opacity:0.3008;enable-background:new    ;"/>
	
		<use xlink:href="#flash2.ai_x2F_Layer_1_x2F__x3C_Path_x3E__x5F_3"  width="5.122" height="7.45" x="-0.008" y="-7.45" transform="matrix(1 0 0 -1 32.75 13.9502)" style="overflow:visible;opacity:0.3008;enable-background:new    ;"/>
	
		<use xlink:href="#flash2.ai_x2F_Layer_1_x2F__x3C_Path_x3E__x5F_2"  width="3.197" height="11" x="0.003" y="-11" transform="matrix(1 0 0 -1 15.9502 12.2998)" style="overflow:visible;opacity:0.3008;enable-background:new    ;"/>
	
		<use xlink:href="#flash2.ai_x2F_Layer_1_x2F__x3C_Path_x3E__x5F_1"  width="10.8" height="11.567" y="-11.567" transform="matrix(1 0 0 -1 4.75 14.7002)" style="overflow:visible;opacity:0.3008;enable-background:new    ;"/>
	
		<use xlink:href="#flash2.ai_x2F_Layer_1_x2F__x3C_Path_x3E_"  width="13.29" height="16.173" y="-16.195" transform="matrix(1 0 0 -1 14 20.9004)" style="overflow:visible;opacity:0.3008;enable-background:new    ;"/>
</g>
</svg>
