<?xml version="1.0" encoding="iso-8859-1"?>
<!-- Generator: Adobe Illustrator 15.1.0, SVG Export Plug-In . SVG Version: 6.00 Build 0)  -->
<!DOCTYPE svg PUBLIC "-//W3C//DTD SVG 1.1//EN" "http://www.w3.org/Graphics/SVG/1.1/DTD/svg11.dtd">
<svg version="1.1" xmlns="http://www.w3.org/2000/svg" xmlns:xlink="http://www.w3.org/1999/xlink" x="0px" y="0px" width="187px"
	 height="322.45px" viewBox="0 0 187 322.45" style="enable-background:new 0 0 187 322.45;" xml:space="preserve">
<g id="Layer_1">
</g>
<g id="Layer_1_1_">
	<g>
		<path style="fill-rule:evenodd;clip-rule:evenodd;fill:#1F2433;" d="M117.95,65.05c0-1.133,1.017-2.183,3.05-3.15
			c2.066-0.967,3.767-1.133,5.1-0.5c1.101,0.533,1.15,1.283,0.15,2.25c-1.533,1.167-2.6,2.067-3.2,2.7c-0.899,1-1.967,1.367-3.2,1.1
			C118.583,67.183,117.95,66.383,117.95,65.05z"/>
		<path style="fill-rule:evenodd;clip-rule:evenodd;fill:#1F2433;" d="M90.3,267.55c-2,0.9-3.083,0.55-3.25-1.05
			c-0.033-0.267,0.167-2.116,0.6-5.55c0.233-1.8,1.033-3.5,2.4-5.101c1.367-1.666,2.75-2.533,4.15-2.6
			c1.267-0.033,2.35,0.333,3.25,1.1c0.6,0.467,1.6,1.517,3,3.15c2.066,2.233,1.45,4.267-1.851,6.1
			c-1.1,0.634-2.233,1.217-3.399,1.75C93.467,266.116,91.833,266.85,90.3,267.55z"/>
		<path style="fill-rule:evenodd;clip-rule:evenodd;fill:#1F2433;" d="M82.1,204.35c1.1,0.9,1.566,1.75,1.4,2.551
			c-0.133,0.533-0.617,1.199-1.45,2c-0.433,0.399-1.1,1.033-2,1.899c-0.933,0.767-2.083,1.483-3.45,2.15c-1.3,0.633-1.967,0.633-2,0
			c0.2-1,0.183-1.733-0.05-2.2c-0.7-0.967-1.216-1.75-1.55-2.35c-0.6-1.067-0.75-2.051-0.45-2.95c0.4-1.3,1.8-2.05,4.2-2.25
			C79.05,202.967,80.833,203.35,82.1,204.35z"/>
		<path style="fill-rule:evenodd;clip-rule:evenodd;fill:#1F2433;" d="M142.9,15.1c0.433-1.267,1.833-2.017,4.199-2.25
			c2.367-0.233,4.167,0.167,5.4,1.2c1.066,0.867,1.517,1.717,1.35,2.55c-0.1,0.533-0.566,1.183-1.399,1.95
			c-0.8,0.8-1.467,1.434-2,1.9c-0.934,0.767-2.084,1.483-3.45,2.15c-1.3,0.633-1.967,0.65-2,0.05c0.2-1,0.184-1.733-0.05-2.2
			c-0.7-0.967-1.217-1.75-1.55-2.35C142.767,17,142.6,16,142.9,15.1z"/>
		<path style="fill-rule:evenodd;clip-rule:evenodd;fill:#1F2433;" d="M40.6,194.95c1.367,0.767,2.316,1.633,2.85,2.6
			c0.2,0.4,0.167,1.05-0.1,1.95c-0.267,0.866-0.617,1.566-1.05,2.1c-0.733,0.801-1.3,1.351-1.7,1.65
			c-0.833,0.566-1.583,0.65-2.25,0.25c-0.833-0.5-1.467-1.5-1.9-3c-0.467-1.634-0.417-3.083,0.15-4.35
			C37.433,194.35,38.767,193.95,40.6,194.95z"/>
		<path style="fill-rule:evenodd;clip-rule:evenodd;fill:#1F2433;" d="M26.7,102.15c1-0.867,2.35-1.55,4.05-2.05
			c1.833-0.533,3.15-0.5,3.95,0.1c1.267,0.9,2.6,4.1,4,9.6c0.433,1.667-0.3,4.1-2.2,7.3c-1.467,2.433-3.35,4.933-5.65,7.5
			c-1.567,1.767-2.934,2.566-4.1,2.4c-0.633-0.1-1.4-0.633-2.3-1.6c-0.434-0.5-0.967-1.45-1.6-2.85
			c-0.934-2.033-1.617-3.45-2.05-4.25c-0.7-1.333-0.9-2.45-0.6-3.35c0.7-1.233,1.25-2.45,1.65-3.65c0.9-2.533,1.533-4.2,1.9-5
			C24.55,104.6,25.533,103.217,26.7,102.15z"/>
		<path style="fill-rule:evenodd;clip-rule:evenodd;fill:#1F2433;" d="M122.4,228.2c0.166-0.066,1.199-0.566,3.1-1.5
			c1.467-0.7,3.116-1.084,4.95-1.15h0.5c2.6,0.033,5.217,0.667,7.85,1.9c2.334,1.1,3.867,2.217,4.601,3.35l0.25,0.45
			c1.066,1.9,1.949,5.767,2.649,11.6l0.101,1.9c0.033,2.533-0.467,6.017-1.5,10.45c-0.301,1.366-0.684,2.5-1.15,3.399h-0.05
			c-0.601,1.167-1.467,2.367-2.601,3.601c-0.533,0.566-1.85,1.85-3.949,3.85c-2.233,2.066-4.917,3.5-8.051,4.3
			c-1.699,0.467-3.1,0.667-4.199,0.601c-2.467-0.134-4.917-1.75-7.351-4.851c-1.934-3.033-2.916-4.55-2.95-4.55l-1.05-0.899
			c-1.399-1.067-1.983-2.867-1.75-5.4c0.533-2.667,0.8-4.417,0.8-5.25l0.051-0.05l-0.051-0.5c-0.199-0.8-0.116-1.934,0.25-3.4
			c0.5-1.934,0.75-3,0.75-3.2c0.034-0.8,0.351-1.566,0.95-2.3c0.334-0.434,1.05-1.149,2.15-2.149c0.733-0.667,1.316-1.667,1.75-3
			c0.434-1.667,0.767-2.934,1-3.801c0.2-0.633,0.483-1.199,0.85-1.699C120.767,229.3,121.467,228.733,122.4,228.2z"/>
		<path style="fill-rule:evenodd;clip-rule:evenodd;fill:#1F2433;" d="M93,220.3c0.233-1.434,0.866-2.05,1.9-1.85
			c0.866,0.133,1.55,0.55,2.05,1.25c2.267,2.899,3.399,4.983,3.399,6.25c0,0.833-0.6,0.934-1.8,0.3
			c-1.566-0.934-2.717-1.517-3.45-1.75c-0.966-0.3-1.616-0.934-1.949-1.9C92.917,221.9,92.867,221.134,93,220.3z"/>
		<path style="fill-rule:evenodd;clip-rule:evenodd;fill:#1F2433;" d="M66.65,97.7c0.233-1.434,0.883-2.067,1.95-1.9
			c0.867,0.133,1.55,0.55,2.05,1.25c0.233,0.333,0.883,1.25,1.95,2.75c0.967,1.5,1.433,2.684,1.4,3.55c0,0.8-0.6,0.9-1.8,0.3
			c-1.567-0.933-2.717-1.517-3.45-1.75c-0.967-0.333-1.617-0.967-1.95-1.9C66.567,99.3,66.517,98.533,66.65,97.7z"/>
		<path style="fill-rule:evenodd;clip-rule:evenodd;fill:#1F2433;" d="M148.5,244.7c0.167-1.5,0.25-2.783,0.25-3.851
			c-0.233-2.699-0.316-4.916-0.25-6.649c0.167-3.2,1.116-5.767,2.85-7.7c1.4-1.6,2.784-2.6,4.15-3c1.533-0.434,3.566-0.267,6.1,0.5
			c1.034,0.333,2.917,2.15,5.65,5.45c2.967,3.666,4.634,6.633,5,8.899c0.4,2.434-0.25,5.217-1.95,8.351
			c-1.6,2.934-3.583,5.316-5.95,7.149c-4.433,3.434-8.6,4.817-12.5,4.15c-1.366-0.233-1.899-1.55-1.6-3.95
			c0.366-2.967,0.25-4.866-0.35-5.7C149,247.15,148.533,245.934,148.5,244.7z"/>
		<path style="fill-rule:evenodd;clip-rule:evenodd;fill:#1F2433;" d="M138.3,11.7c1.434,1.667,0.717,3.783-2.149,6.35
			c-3.534,3.167-5.367,5.567-5.5,7.2c-0.2,2.4-0.917,4.333-2.15,5.8c-1.767,1.7-3.2,3.184-4.3,4.45c-2.5,3.467-4.7,6.183-6.601,8.15
			c-3.533,3.667-7.333,5.817-11.399,6.45c-3.4,0.5-6.117,0.3-8.15-0.6c-2.267-1-4.533-3.2-6.8-6.6c-0.933-1.433-1.3-5.5-1.1-12.2
			c0.2-7.4,1.267-12.65,3.2-15.75c2.067-3.3,5.767-6,11.101-8.1c4.934-1.934,9.783-2.817,14.55-2.65
			C127.866,4.533,134.3,7.033,138.3,11.7z"/>
		<path style="fill-rule:evenodd;clip-rule:evenodd;fill:#1F2433;" d="M9.9,139.25c0.8-0.767,1.583-0.167,2.35,1.8
			c0.233,0.667,0.317,1.383,0.25,2.15c-0.033,0.133-0.267,1.517-0.7,4.15c-0.3,1.967-0.767,3-1.4,3.1
			c-0.6,0.1-1.117-0.617-1.55-2.15C7.717,144.067,8.067,141.05,9.9,139.25z"/>
		<path style="fill-rule:evenodd;clip-rule:evenodd;fill:#1F2433;" d="M48.7,289.95c-0.434-1.066,0.483-1.533,2.75-1.4
			c0.733,0.066,1.466,0.3,2.2,0.7c0.233,0.134,1.5,0.934,3.8,2.4c1.833,1.166,2.667,2.05,2.5,2.649
			c-0.133,0.601-1.05,0.767-2.75,0.5c-1.934-0.3-3.6-0.8-5-1.5C50.4,292.4,49.233,291.283,48.7,289.95z"/>
		<path style="fill-rule:evenodd;clip-rule:evenodd;fill:#1F2433;" d="M64.5,200.8c0.267-0.866,1-0.85,2.2,0.05
			c0.4,0.301,0.7,0.717,0.9,1.25c0.1,0.233,0.433,1.217,1,2.95c0.467,1.4,0.5,2.283,0.1,2.65c-0.367,0.333-0.967,0.1-1.8-0.7
			C64.633,204.866,63.833,202.8,64.5,200.8z"/>
		<path style="fill-rule:evenodd;clip-rule:evenodd;fill:#1F2433;" d="M154.45,67.65c0.3-0.9,1.033-0.867,2.2,0.1
			c0.399,0.3,0.716,0.717,0.949,1.25c0.034,0.1,0.351,1.067,0.95,2.9c0.467,1.4,0.5,2.283,0.101,2.65
			c-0.367,0.333-0.967,0.117-1.801-0.65c-0.933-0.9-1.633-1.833-2.1-2.8C154.184,69.867,154.083,68.717,154.45,67.65z"/>
		<path style="fill-rule:evenodd;clip-rule:evenodd;fill:#1F2433;" d="M138.4,3.95c0.267-0.867,1-0.85,2.199,0.05
			c0.4,0.333,0.717,0.75,0.95,1.25c0.066,0.167,0.384,1.15,0.95,2.95c0.467,1.4,0.5,2.283,0.1,2.65c-0.366,0.333-0.966,0.1-1.8-0.7
			C138.533,7.95,137.733,5.883,138.4,3.95z"/>
		<path style="fill-rule:evenodd;clip-rule:evenodd;fill:#1F2433;" d="M70.7,24.4c0.2-0.566,0.566-0.683,1.1-0.35
			c0.567,0.333,0.833,0.934,0.8,1.8c-0.067,0.9-0.467,1.066-1.2,0.5C70.667,25.783,70.433,25.133,70.7,24.4z"/>
		<path style="fill-rule:evenodd;clip-rule:evenodd;fill:#1F2433;" d="M97.75,166.25c0.5-0.8,1.316-0.65,2.45,0.45
			c1.066,1.066,1.017,2.133-0.15,3.2c-1.2,1.1-2.066,1.033-2.6-0.2C96.95,168.467,97.05,167.316,97.75,166.25z"/>
		<path style="fill-rule:evenodd;clip-rule:evenodd;fill:#1F2433;" d="M73.2,266.1c0.5-0.8,1.316-0.649,2.45,0.45
			c1.067,1.066,1.017,2.134-0.15,3.2c-1.2,1.1-2.067,1.017-2.6-0.25C72.4,268.3,72.5,267.167,73.2,266.1z"/>
		<path style="fill-rule:evenodd;clip-rule:evenodd;fill:#1F2433;" d="M35.5,222.1c0.5-0.8,1.317-0.649,2.45,0.45
			c1.066,1.101,1.017,2.184-0.15,3.25c-1.2,1.101-2.05,1.017-2.55-0.25C34.75,224.35,34.833,223.2,35.5,222.1z"/>
		<path style="fill-rule:evenodd;clip-rule:evenodd;fill:#1F2433;" d="M112.9,289.9c-0.667,1.233-1.684,2.483-3.051,3.75
			c-1.566,1.433-2.8,2.066-3.699,1.899c-1.034-0.2-2.184-1.333-3.45-3.399c-1.367-2.2-2.084-4.317-2.15-6.351
			c-0.033-1.8,0.983-3.866,3.05-6.2c2.434-2.433,4.034-4.116,4.801-5.05c0.833-1,1.566-0.583,2.199,1.25
			c0.801,2.434,1.517,3.8,2.15,4.101c1.033,0.466,1.5,1.966,1.4,4.5C114.05,286.634,113.634,288.467,112.9,289.9z"/>
		<path style="fill-rule:evenodd;clip-rule:evenodd;fill:#1F2433;" d="M76.6,115.9c0.4,1.233,0.417,3.083,0.05,5.55
			c-0.333,2.1-0.633,3.35-0.9,3.75c-0.167,0.267-1.683,0.367-4.55,0.3c-3.034-0.067-5.5-0.333-7.4-0.8
			c-1.867-0.467-3.383-1.567-4.55-3.3c-0.6-0.9-1.617-3.033-3.05-6.4c-1.067-2.5-1.483-5.183-1.25-8.05
			c0.233-2.733,1-5.217,2.3-7.45c0.967-1.667,2.133-1.783,3.5-0.35c2.467,2.667,4.017,4.15,4.65,4.45
			c0.967,0.5,2.317,1.283,4.05,2.35c1.066,0.633,2.183,1.15,3.35,1.55c1.267,0.433,2.133,1.45,2.6,3.05
			C75.667,111.517,76.067,113.3,76.6,115.9z"/>
		<path style="fill-rule:evenodd;clip-rule:evenodd;fill:#1F2433;" d="M93.7,69.6c1.399,1.6,2.166,2.983,2.3,4.15
			c0.167,1.367-0.434,2.95-1.8,4.75c-0.5,0.667-1.733,0.533-3.7-0.4c-2.2-1.233-3.65-2-4.35-2.3c-0.9-0.367-1.8-1.733-2.7-4.1
			c-1-2.967-1.717-5.083-2.15-6.35c-0.733-2.067-0.867-3.9-0.4-5.5c0.5-1.733,1.5-2.2,3-1.4c1.167,0.633,2.117,1.8,2.85,3.5
			c0.667,1.533,1.217,2.333,1.65,2.4c0.633,0.1,1.383,0.633,2.25,1.6C91.183,66.583,92.2,67.8,93.7,69.6z"/>
		<path style="fill-rule:evenodd;clip-rule:evenodd;fill:#1F2433;" d="M54.55,122.6c1.367-0.633,2.217-0.633,2.55,0
			c0.267,0.433,0.767,1.583,1.5,3.45c0.8,1.4,0.55,3.167-0.75,5.3c-1.167,1.833-2.633,3.333-4.4,4.5
			c-1.534,1.066-2.55,0.967-3.05-0.3c-0.6-1.533-1.066-2.833-1.4-3.9c-0.633-2.033-0.85-3.517-0.65-4.45
			c0.167-1,0.85-1.867,2.05-2.6C50.867,124.3,52.25,123.633,54.55,122.6z"/>
		<path style="fill-rule:evenodd;clip-rule:evenodd;fill:#1F2433;" d="M169.9,30.3c-2.9,1.767-4.7,1.7-5.4-0.2
			c-1.1-2.767-1.816-4.733-2.15-5.9c-0.899-3.034-1.149-5.3-0.75-6.8c0.4-1.533,1.717-2.933,3.95-4.2
			c0.667-0.367,3.2-1.534,7.601-3.5c2.466-1.067,3.983-1.15,4.55-0.25c0.399,0.667,1.149,2.383,2.25,5.15
			c1.333,2.066,0.717,4.833-1.851,8.3C175.9,25.833,173.167,28.3,169.9,30.3z"/>
		<path style="fill-rule:evenodd;clip-rule:evenodd;fill:#1F2433;" d="M181.5,108.75c-0.533,0.433-1.05-0.083-1.55-1.55
			c-0.467-1.434-0.3-2.317,0.5-2.65c0.899-0.367,1.566,0.034,2,1.2C182.85,106.95,182.533,107.95,181.5,108.75z"/>
		<path style="fill-rule:evenodd;clip-rule:evenodd;fill:#1F2433;" d="M169.6,39.85c-0.533,0.4-1.05-0.133-1.55-1.6
			c-0.467-1.433-0.3-2.317,0.5-2.65c0.9-0.367,1.566,0.033,2,1.2C170.95,38,170.634,39.017,169.6,39.85z"/>
		<path style="fill-rule:evenodd;clip-rule:evenodd;fill:#1F2433;" d="M121.75,137.2c1.9,0.433,2.767,1.117,2.6,2.05
			c-0.166,1.067-1.033,1.433-2.6,1.1c-1.6-0.367-2.5-1.267-2.7-2.7C118.95,136.883,119.85,136.733,121.75,137.2z"/>
		<path style="fill-rule:evenodd;clip-rule:evenodd;fill:#1F2433;" d="M66.2,66.45c-0.2,1.066-0.934,2.267-2.2,3.6
			c-1.367,1.4-2.3,1.733-2.8,1c-1.067-1.4-1.867-2.566-2.4-3.5c-0.966-1.7-1.25-3.05-0.85-4.05c0.4-1,1.083-1.75,2.05-2.25
			c0.467-0.233,1.333-0.5,2.6-0.8c0.933-0.2,1.833,0.283,2.7,1.45C66.233,63.167,66.533,64.683,66.2,66.45z"/>
		<path style="fill-rule:evenodd;clip-rule:evenodd;fill:#1F2433;" d="M42.25,237.45c0.933,1.434,1.417,3.2,1.45,5.3
			c0,1.7-0.317,3.8-0.95,6.3c-0.967,4.033-3.367,6.25-7.2,6.65c-3.633,0.399-6.183-0.75-7.65-3.45c-1.167-2.2-1.583-4.634-1.25-7.3
			c0.267-2.134,0.934-4.101,2-5.9c1.1-1.866,2.483-3.783,4.15-5.75c2-2.366,3.534-3.7,4.6-4c0.967-0.267,1.833,0.617,2.6,2.65
			C41.167,235.116,41.917,236.95,42.25,237.45z"/>
		<path style="fill-rule:evenodd;clip-rule:evenodd;fill:#1F2433;" d="M163.15,48.6c2-2.367,3.55-3.7,4.649-4
			c0.934-0.267,1.783,0.617,2.55,2.65c1.2,3.167,1.967,5,2.301,5.5c0.933,1.433,1.399,3.2,1.399,5.3c0,1.667-0.3,3.767-0.899,6.3
			c-0.967,4.033-3.384,6.25-7.25,6.65c-3.634,0.4-6.167-0.733-7.601-3.4c-1.2-2.2-1.616-4.65-1.25-7.35
			c0.267-2.067,0.934-4.033,2-5.9C160.116,52.517,161.483,50.6,163.15,48.6z"/>
		<path style="fill-rule:evenodd;clip-rule:evenodd;fill:#1F2433;" d="M21.85,146.75c-1.2-1.533-2.217-3.533-3.05-6
			c-0.966-2.733-1.1-4.6-0.4-5.6c0.8-1.133,2.867-1.816,6.2-2.05c3.5-0.2,6.55,0.3,9.15,1.5c2.267,1.066,4.317,3.583,6.15,7.55
			c1.033,2.133,2.283,5.1,3.75,8.9c0.8,1.633-0.133,2.25-2.8,1.85c-3.533-0.533-5.65-0.517-6.35,0.05
			c-1.167,0.933-3.283,0.55-6.35-1.15C25.383,150.267,23.283,148.583,21.85,146.75z"/>
		<path style="fill-rule:evenodd;clip-rule:evenodd;fill:#1F2433;" d="M96.35,233.3c-0.699,1.033-1.616,1.7-2.75,2
			c-1.2,0.267-2.266,0.033-3.2-0.7c-1.4-1.033-1.2-3.433,0.6-7.199c0.7-1.534,2.483-1.817,5.35-0.851
			c0.867,0.267,1.284,1.167,1.25,2.7C97.6,230.717,97.184,232.066,96.35,233.3z"/>
		<path style="fill-rule:evenodd;clip-rule:evenodd;fill:#1F2433;" d="M82.1,1.3C83.2,2.833,83.833,3.733,84,4
			c0.967,1.533,1.45,2.717,1.45,3.55c0,0.833-0.6,0.95-1.8,0.35c-1.566-0.933-2.717-1.533-3.45-1.8
			c-0.967-0.3-1.617-0.917-1.95-1.85c-0.233-0.7-0.283-1.467-0.15-2.3c0.233-1.434,0.883-2.067,1.95-1.9
			C80.883,0.183,81.567,0.6,82.1,1.3z"/>
		<path style="fill-rule:evenodd;clip-rule:evenodd;fill:#1F2433;" d="M81.45,8.15c0.867,0.3,1.283,1.2,1.25,2.7
			c0,1.467-0.417,2.816-1.25,4.05c-0.667,1.033-1.583,1.7-2.75,2c-1.2,0.267-2.267,0.05-3.2-0.65c-1.367-1.1-1.167-3.517,0.6-7.25
			C76.8,7.467,78.583,7.183,81.45,8.15z"/>
		<path style="fill-rule:evenodd;clip-rule:evenodd;fill:#1F2433;" d="M71.3,77c-0.433,0.533-1.216,0.317-2.35-0.65
			c-1.2-1-1.867-2.184-2-3.55c-0.1-1.367,0.117-2.216,0.65-2.55c0.433-0.267,1.15-0.25,2.15,0.05c0.933,0.267,1.6,1.233,2,2.9
			C72.15,74.9,72,76.167,71.3,77z"/>
		<path style="fill-rule:evenodd;clip-rule:evenodd;fill:#1F2433;" d="M62.55,259.5c0.833,0.733,2.717,2.7,5.65,5.9
			c2.733,2.3,3.667,6.033,2.8,11.199c-0.767,4.434-2.433,8.434-5,12c-2.267,3.134-4.367,3.601-6.3,1.4
			c-3.4-3.934-5.383-6.233-5.95-6.9c-2.833-3.633-4.467-6.466-4.9-8.5c-0.434-2.133,0.233-4.35,2-6.649
			c0.633-0.867,2.833-3.134,6.6-6.8C59.617,259.017,61.317,258.467,62.55,259.5z"/>
		<path style="fill-rule:evenodd;clip-rule:evenodd;fill:#1F2433;" d="M69.95,93.1c-0.534,0.433-1.05-0.083-1.55-1.55
			c-0.467-1.433-0.3-2.316,0.5-2.65c0.9-0.367,1.567,0.033,2,1.2C71.3,91.3,70.983,92.3,69.95,93.1z"/>
		<path style="fill-rule:evenodd;clip-rule:evenodd;fill:#1F2433;" d="M62.95,95.3c-0.4,0.8-1.233,0.467-2.5-1
			c-1.267-1.433-1.517-2.55-0.75-3.35c0.867-0.934,1.816-0.817,2.85,0.35C63.617,92.5,63.75,93.833,62.95,95.3z"/>
		<path style="fill-rule:evenodd;clip-rule:evenodd;fill:#1F2433;" d="M98.6,197.2c-0.466-1.434-0.3-2.316,0.5-2.65
			c0.9-0.399,1.567-0.017,2,1.15c0.4,1.2,0.084,2.217-0.949,3.05C99.616,199.184,99.1,198.667,98.6,197.2z"/>
		<path style="fill-rule:evenodd;clip-rule:evenodd;fill:#1F2433;" d="M71.45,203.1c-0.534,0.434-1.05-0.083-1.55-1.55
			c-0.467-1.434-0.3-2.316,0.5-2.649c0.9-0.367,1.567,0.033,2,1.199C72.8,201.3,72.483,202.3,71.45,203.1z"/>
		<path style="fill-rule:evenodd;clip-rule:evenodd;fill:#1F2433;" d="M36.8,179c-2.566-4.366-3.483-8.983-2.75-13.85
			c0.633-4,1.917-6.684,3.85-8.05c1.133-0.767,3.467,0.217,7,2.95c4.467,3.4,7.417,5.351,8.85,5.851
			c2.233,0.767,4.067,2.449,5.5,5.05c0.833,1.434,1.917,3.517,3.25,6.25c4.3,6.166,5.667,11.1,4.1,14.8
			c-1.333,3.066-4.1,4.533-8.3,4.4c-3.5-0.134-7.25-1.834-11.25-5.101C43.117,188.1,39.7,184,36.8,179z"/>
		<path style="fill-rule:evenodd;clip-rule:evenodd;fill:#1F2433;" d="M56.05,45.3c-0.2-1.767,0.434-4.716,1.9-8.85
			c1.6-4.6,3.466-7.983,5.6-10.15c1.934-2,3.517-2.083,4.75-0.25c0.733,1.067,1.75,3.083,3.05,6.05c0.833,1.267,2.133,3.6,3.9,7
			c1.7,3.3,2.767,5.267,3.2,5.9c0.6,0.867,0.4,2.867-0.6,6c-0.6,1.8-1.567,4.6-2.9,8.4c-1.034,3.767-2.15,6.017-3.35,6.75
			c-1.1,0.667-1.934-0.033-2.5-2.1c-0.567-2-1.667-3.667-3.3-5c-1.7-1.367-3.333-1.783-4.9-1.25
			C58.733,58.567,57.117,54.4,56.05,45.3z"/>
		<path style="fill-rule:evenodd;clip-rule:evenodd;fill:#1F2433;" d="M136.2,115.25c0-1.167,1.017-2.233,3.05-3.2
			c2.066-0.966,3.767-1.133,5.1-0.5c1.101,0.534,1.15,1.284,0.15,2.25c-1.533,1.167-2.6,2.067-3.2,2.7
			c-0.899,1-1.967,1.383-3.2,1.15C136.833,117.383,136.2,116.583,136.2,115.25z"/>
		<path style="fill-rule:evenodd;clip-rule:evenodd;fill:#1F2433;" d="M143.05,72.45c0.834-1,1.566-0.583,2.2,1.25
			c0.8,2.433,1.517,3.8,2.15,4.1c1.033,0.5,1.5,1.983,1.399,4.45c-0.1,2.267-0.533,4.117-1.3,5.55
			c-0.667,1.233-1.684,2.483-3.05,3.75c-1.566,1.434-2.8,2.067-3.7,1.9c-1.033-0.2-2.184-1.333-3.45-3.4
			c-1.366-2.2-2.066-4.316-2.1-6.35c-0.033-1.8,0.983-3.883,3.05-6.25C139.35,76.183,140.95,74.517,143.05,72.45z"/>
		<path style="fill-rule:evenodd;clip-rule:evenodd;fill:#1F2433;" d="M140.2,98.5c0.166-1,0.85-1.867,2.05-2.6
			c0.5-0.3,1.9-0.967,4.2-2c1.333-0.633,2.184-0.633,2.55,0c0.267,0.434,0.75,1.567,1.45,3.4c0.8,1.4,0.55,3.167-0.75,5.3
			c-1.167,1.867-2.634,3.383-4.4,4.55c-1.533,1.067-2.55,0.967-3.05-0.3l-1.4-3.9C140.25,100.95,140.033,99.467,140.2,98.5z"/>
		<path style="fill-rule:evenodd;clip-rule:evenodd;fill:#1F2433;" d="M103.3,91.1c-0.533,0.433-1.05-0.083-1.55-1.55
			c-0.467-1.433-0.283-2.316,0.55-2.65c0.9-0.4,1.55-0.017,1.95,1.15C104.65,89.25,104.333,90.267,103.3,91.1z"/>
		<path style="fill-rule:evenodd;clip-rule:evenodd;fill:#1F2433;" d="M100.3,98.45c1.5-2.467,3.084-3.85,4.75-4.15
			c0.967-0.2,2.267,1.133,3.9,4c2.066,3.6,3.517,5.767,4.35,6.5c1.267,1.167,2.033,2.817,2.3,4.95c0.167,1.2,0.334,2.9,0.5,5.1
			c1.2,5.367,0.767,9.033-1.3,11c-1.733,1.633-3.983,1.767-6.75,0.4c-2.333-1.1-4.383-3.333-6.149-6.7
			c-1.733-3.267-2.9-6.983-3.5-11.15C97.866,104.733,98.5,101.417,100.3,98.45z"/>
		<path style="fill-rule:evenodd;clip-rule:evenodd;fill:#1F2433;" d="M113.65,80.2c1.767,0.767,4.583,2.216,8.449,4.35
			c1.801,0.9,4.2,1.967,7.2,3.2c2.3,1.267,4.084,3.183,5.351,5.75c1.333,2.7,2.416,6.067,3.25,10.1
			c0.733,3.6,0.949,5.517,0.649,5.75c-1.8,2.066-3.116,3.5-3.95,4.3c-1.466,1.333-3.283,1.55-5.449,0.65
			c-2.467-1.033-4.934-2.566-7.4-4.6c-2.167-1.8-4.134-3.8-5.9-6c-1.233-1.534-2.683-3.883-4.35-7.05
			c-1.767-3.367-2.85-5.316-3.25-5.85c-0.9-1.2-1.4-2.9-1.5-5.1c-0.134-2.3,0.233-4.167,1.1-5.6
			C108.583,78.833,110.517,78.867,113.65,80.2z"/>
		<path style="fill-rule:evenodd;clip-rule:evenodd;fill:#1F2433;" d="M23.8,160.3c0.367-0.633,0.833-1.283,1.4-1.95
			c0.667-0.8,1.183-1.25,1.55-1.35c0.3-0.067,0.583,0.233,0.85,0.9c0.433,1.067,0.7,1.684,0.8,1.85
			c0.533,0.833,0.583,2.133,0.15,3.9c-0.333,1.366-1.133,2.116-2.4,2.25c-1.233,0.133-2.1-0.25-2.6-1.15
			c-0.4-0.733-0.55-1.55-0.45-2.45C23.2,161.567,23.433,160.9,23.8,160.3z"/>
		<path style="fill-rule:evenodd;clip-rule:evenodd;fill:#1F2433;" d="M30.55,38c0.534-1.767,1.284-3.45,2.25-5.05
			c1.167-1.934,1.983-2.417,2.45-1.45c2.033,4.367,3.4,7.783,4.1,10.25c0.433,1.533-0.1,3.05-1.6,4.55
			c-0.633,0.633-1.95,1.617-3.95,2.95c-0.767,0.5-1.383,0.45-1.85-0.15c-0.767-1-1.483-1.617-2.15-1.85
			c-1.033-0.333-1.316-1.65-0.85-3.95C29.05,42.767,29.583,41,30.55,38z"/>
		<path style="fill-rule:evenodd;clip-rule:evenodd;fill:#1F2433;" d="M19.65,45.7c0.8-1.8,2.117-2.2,3.95-1.2
			c1.467,0.8,2.417,1.667,2.85,2.6c0.2,0.4,0.167,1.05-0.1,1.95c-0.267,0.867-0.617,1.55-1.05,2.05c-1.6,1.867-2.9,2.5-3.9,1.9
			c-0.833-0.5-1.467-1.483-1.9-2.95C19,48.417,19.05,46.967,19.65,45.7z"/>
		<path style="fill-rule:evenodd;clip-rule:evenodd;fill:#1F2433;" d="M30.5,52.2l0.5,0.1c2.433,0.567,5.9,2.434,10.4,5.6
			c0.633,0.4,1.133,0.767,1.5,1.1c1.833,1.5,4.15,4.1,6.95,7.8c0.667,0.867,1.267,1.867,1.8,3l-0.05,0.05
			c0.533,1.2,0.9,2.617,1.1,4.25c0.1,0.833,0.216,2.617,0.35,5.35c0.167,2.867-0.45,5.733-1.85,8.6h0.05
			c-0.767,1.6-1.5,2.75-2.2,3.45c-1.7,1.733-4.466,2.5-8.3,2.3l-5.3-0.8l-1.35,0.2c-1.7,0.367-3.417-0.35-5.15-2.15
			c-1.7-2.1-2.85-3.417-3.45-3.95l-0.05-0.05V87l-0.4-0.3c-0.733-0.333-1.533-1.117-2.4-2.35c-1.1-1.533-1.75-2.4-1.95-2.6
			c-0.567-0.567-0.934-1.3-1.1-2.2c-0.1-0.5-0.184-1.483-0.25-2.95c-0.033-0.934-0.417-2-1.15-3.2
			c-0.967-1.367-1.717-2.433-2.25-3.2c-0.333-0.534-0.583-1.083-0.75-1.65c-0.167-0.733-0.133-1.617,0.1-2.65
			c0.034-0.233,0.3-1.316,0.8-3.25c0.433-1.533,1.2-2.983,2.3-4.35l0.3-0.35c1.667-1.867,3.8-3.367,6.4-4.5
			C27.367,52.45,29.167,52.033,30.5,52.2z"/>
		<path style="fill-rule:evenodd;clip-rule:evenodd;fill:#1F2433;" d="M22.05,90.4c0.233-1.433,0.867-2.066,1.9-1.9
			c0.867,0.167,1.55,0.6,2.05,1.3c1.3,1.767,1.95,2.667,1.95,2.7c0.966,1.5,1.45,2.683,1.45,3.55c-0.033,0.833-0.65,0.934-1.85,0.3
			L24.1,94.6c-0.967-0.333-1.6-0.967-1.9-1.9C21.967,92,21.917,91.233,22.05,90.4z"/>
		<path style="fill-rule:evenodd;clip-rule:evenodd;fill:#1F2433;" d="M14.95,74.05c0.2-0.6,0.583-0.716,1.15-0.35
			c0.566,0.333,0.816,0.933,0.75,1.8c-0.033,0.9-0.417,1.067-1.15,0.5C14.967,75.433,14.717,74.783,14.95,74.05z"/>
		<path style="fill-rule:evenodd;clip-rule:evenodd;fill:#1F2433;" d="M124.15,185.7c0.533-0.8,1.35-0.65,2.449,0.45
			c1.067,1.066,1.017,2.133-0.149,3.199c-1.2,1.101-2.05,1.034-2.55-0.199S123.483,186.767,124.15,185.7z"/>
		<path style="fill-rule:evenodd;clip-rule:evenodd;fill:#1F2433;" d="M7.8,94.5c0.833-1,1.567-0.583,2.2,1.25
			c0.867,2.433,1.6,3.8,2.2,4.1c1.033,0.467,1.5,1.95,1.4,4.45c-0.1,2.233-0.517,4.083-1.25,5.55
			c-0.667,1.233-1.684,2.483-3.05,3.75c-1.566,1.433-2.8,2.066-3.7,1.9c-1.033-0.2-2.184-1.333-3.45-3.4
			c-1.367-2.2-2.083-4.333-2.15-6.4c-0.033-1.767,0.967-3.833,3-6.2C5.467,97.067,7.067,95.4,7.8,94.5z"/>
		<path style="fill-rule:evenodd;clip-rule:evenodd;fill:#1F2433;" d="M116.85,226.4c0.4,1.066,0.65,1.683,0.75,1.85
			c0.534,0.767,0.584,2.066,0.15,3.9c-0.333,1.366-1.134,2.116-2.4,2.25c-1.233,0.1-2.1-0.301-2.6-1.2
			c-0.4-0.733-0.55-1.55-0.45-2.45c0.101-0.733,0.334-1.4,0.7-2c0.4-0.634,0.866-1.267,1.4-1.9c0.666-0.8,1.183-1.25,1.55-1.35
			C116.283,225.4,116.583,225.7,116.85,226.4z"/>
		<path style="fill-rule:evenodd;clip-rule:evenodd;fill:#1F2433;" d="M46.05,246.3c0.233-1.066,0.5-1.733,0.8-2
			c0.267-0.2,0.733-0.033,1.4,0.5c1.033,0.9,1.65,1.4,1.85,1.5c1.033,0.566,1.85,1.8,2.45,3.7c0.467,1.467,0.083,2.55-1.15,3.25
			c-1.133,0.667-2.217,0.65-3.25-0.05c-0.833-0.533-1.45-1.267-1.85-2.2c-0.333-0.733-0.5-1.467-0.5-2.2
			C45.8,248.033,45.883,247.2,46.05,246.3z"/>
		<path style="fill-rule:evenodd;clip-rule:evenodd;fill:#1F2433;" d="M93.8,127.7c0.167,1.433-0.983,2.867-3.45,4.3
			c-2.467,1.4-4.567,1.783-6.3,1.15c-1.466-0.566-1.617-1.5-0.45-2.8c1.8-1.6,3.017-2.85,3.65-3.75c1-1.333,2.3-1.9,3.9-1.7
			C92.75,125.1,93.634,126.033,93.8,127.7z"/>
		<path style="fill-rule:evenodd;clip-rule:evenodd;fill:#1F2433;" d="M58.4,159.8c-0.8,2.334-2.417,2.983-4.85,1.95
			c-1.9-0.867-3.183-1.867-3.85-3c-0.3-0.5-0.333-1.333-0.1-2.5c0.2-1.1,0.55-1.983,1.05-2.65c0.767-1.067,1.417-1.817,1.95-2.25
			c0.933-0.767,1.85-0.95,2.75-0.55c1.1,0.534,2.017,1.717,2.75,3.55C58.867,156.317,58.967,158.133,58.4,159.8z"/>
		<path style="fill-rule:evenodd;clip-rule:evenodd;fill:#1F2433;" d="M142.95,29.45c-0.8,2.333-2.417,2.983-4.851,1.95
			c-1.899-0.867-3.183-1.867-3.85-3c-0.3-0.5-0.333-1.316-0.1-2.45c0.199-1.1,0.55-2,1.05-2.7c0.8-1.1,1.45-1.85,1.95-2.25
			c0.933-0.767,1.85-0.95,2.75-0.55c1.1,0.533,2.017,1.716,2.75,3.55C143.417,26,143.517,27.817,142.95,29.45z"/>
		<path style="fill-rule:evenodd;clip-rule:evenodd;fill:#1F2433;" d="M79.15,191.85c-0.5-0.3-0.917-0.783-1.25-1.449
			c-0.1-0.134-0.633-1.317-1.6-3.551c-0.733-1.699-0.867-2.8-0.4-3.3c0.4-0.467,1.167-0.25,2.3,0.65c1.267,1,2.25,2.083,2.95,3.25
			c0.867,1.467,1.133,2.899,0.8,4.3C81.717,192.85,80.783,192.884,79.15,191.85z"/>
		<path style="fill-rule:evenodd;clip-rule:evenodd;fill:#1F2433;" d="M62.75,168.65c-0.633-1.5-0.867-3.817-0.7-6.95
			c0.167-2.667,0.4-4.267,0.7-4.8c0.167-0.333,2.05-0.6,5.65-0.8c3.833-0.267,6.967-0.2,9.4,0.2c2.367,0.367,4.383,1.583,6.05,3.65
			c0.9,1.1,2.417,3.649,4.55,7.649c1.633,3,2.483,6.317,2.55,9.95c0.033,3.434-0.633,6.617-2,9.55c-1,2.2-2.45,2.467-4.35,0.801
			c-3.367-3.067-5.467-4.767-6.3-5.101c-1.267-0.5-3.05-1.316-5.35-2.45c-1.467-0.699-2.95-1.233-4.45-1.6
			c-1.633-0.4-2.817-1.583-3.55-3.55C64.217,172.5,63.483,170.316,62.75,168.65z"/>
		<path style="fill-rule:evenodd;clip-rule:evenodd;fill:#1F2433;" d="M87.75,153.7c0.5-0.733,1.517-0.567,3.05,0.5
			c1.6,1.1,2.55,2.517,2.851,4.25c0.3,1.667,0.133,2.75-0.5,3.25c-0.467,0.366-1.367,0.434-2.7,0.2
			c-1.133-0.233-2.067-1.367-2.8-3.4C86.95,156.4,86.983,154.8,87.75,153.7z"/>
		<path style="fill-rule:evenodd;clip-rule:evenodd;fill:#1F2433;" d="M172.35,42.7c0.5-0.7,1.517-0.517,3.051,0.55
			c1.566,1.1,2.517,2.5,2.85,4.2c0.3,1.7,0.134,2.8-0.5,3.3c-0.5,0.367-1.4,0.417-2.7,0.15c-1.166-0.2-2.116-1.333-2.85-3.4
			C171.5,45.433,171.55,43.833,172.35,42.7z"/>
		<path style="fill-rule:evenodd;clip-rule:evenodd;fill:#1F2433;" d="M68.9,181.5c0.633-0.6,1.333-0.017,2.1,1.75
			s0.667,2.9-0.3,3.4c-1.1,0.6-1.967,0.183-2.6-1.25C67.433,183.934,67.7,182.634,68.9,181.5z"/>
		<path style="fill-rule:evenodd;clip-rule:evenodd;fill:#1F2433;" d="M70,142.05c2.467-1.9,5.517-3.283,9.15-4.15
			c3.767-0.9,6.55-0.867,8.35,0.1c1.633,0.867,2.55,2.083,2.75,3.65c0,0.133-0.05,2.083-0.15,5.85c-0.133,4.1-3.35,5.983-9.65,5.65
			c-2.233-0.1-4.35-0.267-6.35-0.5c-0.867-0.1-3.817-0.467-8.85-1.1c-3.567-0.466-4.5-1.65-2.8-3.55
			C62.783,147.6,65.3,145.617,70,142.05z"/>
		<path style="fill-rule:evenodd;clip-rule:evenodd;fill:#1F2433;" d="M89.75,87.95c1.833,1.466,2.6,2.883,2.3,4.25
			c-0.167,0.9-0.966,2-2.4,3.3c-0.733,0.7-1.85,1.767-3.35,3.2c-1.533,1.3-3.466,2.517-5.8,3.65c-2.167,1.066-3.267,1.083-3.3,0.05
			c0.066-0.767,0.117-1.367,0.15-1.8c0.066-0.8-0.033-1.434-0.3-1.9c-1.167-1.633-2.033-2.95-2.6-3.95c-1-1.8-1.25-3.467-0.75-5
			c0.7-2.133,3.05-3.4,7.05-3.8C84.65,85.583,87.65,86.25,89.75,87.95z"/>
		<path style="fill-rule:evenodd;clip-rule:evenodd;fill:#1F2433;" d="M68.2,210.15c3.133,1.933,4.95,4.399,5.45,7.399
			c0.467,2.767,1.083,4.983,1.85,6.65c0.5,1.066,1.483,3.05,2.95,5.95c1.033,2.3,0.966,4.366-0.2,6.199
			c-0.7,1.067-1.933,2.834-3.7,5.301c-3.167,6.899-8.233,8.949-15.2,6.149c-5.8-2.3-10.233-6.1-13.3-11.399
			c-2.033-3.467-3.216-7.45-3.55-11.95c-0.233-3.5,0-6.283,0.7-8.351c0.2-0.566,0.466-2.633,0.8-6.199
			c0.233-2.733,0.8-4.367,1.7-4.9c0.933-0.6,2.65-0.616,5.15-0.05c1.5,0.333,4.183,0.983,8.05,1.95
			C62.667,207.6,65.767,208.684,68.2,210.15z"/>
		<path style="fill-rule:evenodd;clip-rule:evenodd;fill:#1F2433;" d="M95.8,140.8c-1.333-3.066-0.35-4.583,2.95-4.55
			c2.566,0,5.3,0.683,8.2,2.05c1.066,0.5,3.333,1.333,6.8,2.5c3.3,1.1,6.116,2.233,8.45,3.4c2.7,1.3,4.8,3.8,6.3,7.5
			c0.1,0.267,1.134,3.75,3.1,10.45c0.867,3.033,1.101,6.55,0.7,10.55c-0.3,3.066-0.783,5.316-1.45,6.75
			c-0.866,1.866-1.35,2.866-1.449,3c-0.767,0.934-1.801,0.983-3.101,0.149c-1.267-0.8-3.1-1.666-5.5-2.6
			c-3-1.066-5.333-1.917-7-2.55c-3.066-0.934-5.133-1.634-6.2-2.101c-1.733-0.767-2.85-1.966-3.35-3.6c-0.566-2.667-1-4.75-1.3-6.25
			c-0.601-2.7-1.434-5.017-2.5-6.95c-1.7-2.6-2.816-4.316-3.351-5.15c-0.866-1.367-1.183-2.683-0.949-3.95
			c0.3-1.6,0.416-3.184,0.35-4.75C96.467,143.1,96.233,141.8,95.8,140.8z"/>
		<path style="fill-rule:evenodd;clip-rule:evenodd;fill:#1F2433;" d="M148.4,283.9c2.033-0.934,4.8-0.467,8.3,1.399
			c3.1,1.634,5.399,3.483,6.899,5.55c1.801,2.534,2.684,5.5,2.65,8.9c-0.066,3.267-0.934,6.233-2.6,8.9
			c-2.733,4.399-4.301,6.883-4.7,7.449c-2.3,3.2-4.334,5.167-6.101,5.9c-1.733,0.733-4.066,0.566-7-0.5
			c-3.3-1.434-5.666-2.4-7.1-2.9c-6.5-2.199-8.8-5.85-6.9-10.949c0.567-1.534,1.767-3.784,3.601-6.75
			c1.934-3.101,3.184-5.334,3.75-6.7c0.866-2.134,2.3-4.267,4.3-6.4C145.333,285.866,146.967,284.566,148.4,283.9z"/>
		<path style="fill-rule:evenodd;clip-rule:evenodd;fill:#1F2433;" d="M129.8,273.6c0.634-0.466,1.467,0.084,2.5,1.65
			c0.967,1.467,1.483,2.8,1.55,4c0.067,1.033-0.866,1.833-2.8,2.4c-1.833,0.533-3.517,0.6-5.05,0.199
			c-1.3-0.333-1.333-1.583-0.1-3.75C127.033,276.167,128.333,274.667,129.8,273.6z"/>
		<path style="fill-rule:evenodd;clip-rule:evenodd;fill:#1F2433;" d="M131.25,74.95c0.233,1.8,0.283,3.45,0.15,4.95
			c-3-3.833-5.2-6.267-6.601-7.3c-1.033-0.767-0.916-2.15,0.351-4.15s2.733-3.2,4.399-3.6c1.334-0.367,2.017,1.217,2.05,4.75
			C131.634,71.333,131.517,73.117,131.25,74.95z"/>
		<path style="fill-rule:evenodd;clip-rule:evenodd;fill:#1F2433;" d="M158.1,272.5c-3.267-0.333-5.833-0.366-7.699-0.1
			c-3.767,0.533-3.233-1.15,1.6-5.051c2.134-1.666,4.184-2.949,6.15-3.85c2.399-1.134,4.35-1.533,5.85-1.2l3.15,5.2
			c0.5,0.866,0.267,2-0.7,3.4c-0.9,1.366-1.834,2.083-2.8,2.149C163.483,273.05,161.634,272.866,158.1,272.5z"/>
		<path style="fill-rule:evenodd;clip-rule:evenodd;fill:#1F2433;" d="M119.3,295.7c0.101-0.434,0.8-2.017,2.101-4.75
			c0.5-1.033,2.166-1.25,5-0.65c2.833,0.601,3.899,1.434,3.199,2.5c-0.733,1.101-1.933,2.101-3.6,3c-1.7,0.967-3.366,1.517-5,1.65
			C119.566,297.583,119,297,119.3,295.7z"/>
		<path style="fill-rule:evenodd;clip-rule:evenodd;fill:#1F2433;" d="M132.95,286.55l2.2-0.5c1.166,0.066,0.949,1.033-0.65,2.9
			c-0.533,0.666-1.116,0.6-1.75-0.2C132.116,287.917,132.184,287.184,132.95,286.55z"/>
		<path style="fill-rule:evenodd;clip-rule:evenodd;fill:#1F2433;" d="M84.15,281.65c1.9-0.101,4.1,1.616,6.6,5.149
			c1.3,1.867,2.934,4.283,4.9,7.25c1.666,1.733,2.517,2.867,2.55,3.4c0.133,1.3-1.184,3.316-3.95,6.05
			c-2.767,2.667-7.367,3.816-13.8,3.45c-4.8-0.267-9.15-1.117-13.05-2.55c-2.367-0.9-3.316-1.817-2.85-2.75
			c0.2-0.467,1.35-1.5,3.45-3.101c2.667-1.767,4.683-3.233,6.05-4.399c2.434-2.067,3.7-4.051,3.8-5.95
			c0.133-2.4,0.566-4.017,1.3-4.851C80.017,282.35,81.683,281.783,84.15,281.65z"/>
		<path style="fill-rule:evenodd;clip-rule:evenodd;fill:#1F2433;" d="M99.7,300.1c1.467-0.566,1.717,0.067,0.75,1.9
			c-0.934,1.8-2.184,2.85-3.75,3.15c-1.5,0.267-1.65-0.417-0.45-2.051C97.45,301.533,98.6,300.533,99.7,300.1z"/>
		<path style="fill-rule:evenodd;clip-rule:evenodd;fill:#1F2433;" d="M104.05,302.1c2.066-0.533,3.467-0.433,4.2,0.301
			c0.7,0.767,0.134,1.517-1.7,2.25c-1.833,0.767-3.233,0.666-4.2-0.301C101.417,303.417,101.983,302.667,104.05,302.1z"/>
		<path style="fill-rule:evenodd;clip-rule:evenodd;fill:#1F2433;" d="M16.4,191.85c1.467-1.233,3.317-0.699,5.55,1.601
			c2.566,2.6,3.767,6.399,3.6,11.399c-0.167,5.101-2.083,8.717-5.75,10.851c-3.233,1.866-6.15,2.066-8.75,0.6
			c-1.8-1-2.066-2.6-0.8-4.8c2.1-2.866,3.567-5.217,4.4-7.05c0.867-1.867,1.15-4.367,0.85-7.5
			C15.267,194.283,15.567,192.583,16.4,191.85z"/>
		<path style="fill-rule:evenodd;clip-rule:evenodd;fill:#1F2433;" d="M7.4,195c0.467-1.2,1.35-1.6,2.65-1.2
			c1.367,0.434,2.35,1.517,2.95,3.25c0.567,1.667,0.533,3.134-0.1,4.4c-0.467,1.066-1.45,2.184-2.95,3.35
			c-1.2,0.934-2.067-0.166-2.6-3.3C6.85,198.533,6.867,196.366,7.4,195z"/>
		<path style="fill-rule:evenodd;clip-rule:evenodd;fill:#1F2433;" d="M7.95,282.55c-0.2-3.833,1.066-6.517,3.8-8.05
			c2.833-1.6,5.817-1.066,8.95,1.6c2.667,2.267,7.083,4.884,13.25,7.851c4.733,2.899,6.933,6.55,6.6,10.95
			c-0.267,3.6-2,6.767-5.2,9.5c-3.567,3.066-7.633,4.05-12.2,2.949c-5.167-1.199-9.117-4.75-11.85-10.649
			C9.333,292.467,8.217,287.75,7.95,282.55z"/>
		<path style="fill-rule:evenodd;clip-rule:evenodd;fill:#1F2433;" d="M26.1,272.85c-0.3-0.899,0.533-0.966,2.5-0.199
			c1.967,0.8,2.733,1.533,2.3,2.199c-0.433,0.7-1.267,0.784-2.5,0.25C27.167,274.566,26.4,273.816,26.1,272.85z"/>
		<path style="fill-rule:evenodd;clip-rule:evenodd;fill:#1F2433;" d="M115.4,197.55c-3.301-1.899-6.067-4.316-8.301-7.25
			c-2.033-2.733-3.149-5.217-3.35-7.45c0.167-2.133,0.2-3.683,0.1-4.649c-0.133-1.101,0.95-1.05,3.25,0.149
			c3.2,1.7,5.167,2.617,5.9,2.75c1.233,0.2,2.366,1.217,3.4,3.051c1.3,2.267,2.25,3.649,2.85,4.149
			c2.066,1.667,3.467,4.084,4.2,7.25c0.7,3.134,0.283,4.634-1.25,4.5C120.366,199.917,118.1,199.083,115.4,197.55z"/>
		<path style="fill-rule:evenodd;clip-rule:evenodd;fill:#1F2433;" d="M168.05,140.75c4.601,0.067,6.851,1.25,6.75,3.55
			c-0.033,0.767-0.366,1.833-1,3.2c-0.333,0.767-0.85,1.867-1.55,3.3c-0.667,1.633-1.434,3.75-2.3,6.35
			c-1.967,5.966-3.084,9.35-3.351,10.15c-1.233,3.733-2.949,7.117-5.149,10.15c-1.167,1.6-2.617,3.483-4.351,5.649
			c-1.5,2.367-2.616,3.884-3.35,4.551c-1.5,1.333-3.066,1.5-4.7,0.5c-1.166-0.7-2.1-2.034-2.8-4c-1-2.834-1.7-4.567-2.1-5.2
			c-2.267-3.634-3.517-5.7-3.75-6.2c-1.467-2.967-2.233-6.083-2.301-9.35c-0.033-2.333,0.801-5,2.5-8
			c1.567-2.767,3.267-4.883,5.101-6.35c3.3-2.566,7.1-4.633,11.399-6.2C161.167,141.383,164.816,140.683,168.05,140.75z"/>
		<path style="fill-rule:evenodd;clip-rule:evenodd;fill:#1F2433;" d="M183.7,149.9c0.934-0.767,1.583,0.567,1.95,4
			c0.333,3.233,0.283,6.317-0.15,9.25c-0.333,2.466-0.917,4.399-1.75,5.8c-0.767,1.333-1.2,1.434-1.3,0.3
			c-0.066-0.767-0.367-1.583-0.9-2.45c-1.033-1.566-1.7-2.666-2-3.3c-0.767-1.6-0.717-3.867,0.15-6.8
			C180.566,153.667,181.9,151.4,183.7,149.9z"/>
		<path style="fill-rule:evenodd;clip-rule:evenodd;fill:#1F2433;" d="M178.4,166.2c1.267,1.1,2.466,2.816,3.6,5.149
			c1.333,2.733,2.066,5.367,2.2,7.9c0.1,2.434-0.834,4.6-2.8,6.5c-1.101,1-3.5,2.6-7.2,4.8c-2.367,1.4-4.101,1.134-5.2-0.8
			c-0.066-0.066-0.866-2.417-2.4-7.05c-0.699-2.2-0.233-4.867,1.4-8c0.667-1.3,2.15-3.517,4.45-6.65c1.3-1.767,2.267-2.767,2.899-3
			C176.15,164.717,177.167,165.1,178.4,166.2z"/>
		<path style="fill-rule:evenodd;clip-rule:evenodd;fill:#1F2433;" d="M156.95,193.35c0.8-0.033,1.2,0.483,1.2,1.551
			c-0.034,0.6-0.134,1.533-0.301,2.8c0,1-0.233,1.783-0.699,2.35c-0.601,0.7-1.434,0.767-2.5,0.2c-1.233-0.667-1.567-1.95-1-3.85
			C154.25,194.467,155.35,193.45,156.95,193.35z"/>
		<path style="fill-rule:evenodd;clip-rule:evenodd;fill:#1F2433;" d="M125.2,46.25c-0.134-2.333,1.434-4.217,4.7-5.65
			c3.133-1.4,5.85-1.667,8.149-0.8c2.3,0.833,4.316,2.467,6.05,4.9c1.834,2.6,2.717,5.283,2.65,8.05
			c-0.066,2.9-0.816,5.983-2.25,9.25c-1.4,3.233-2.9,5.333-4.5,6.3c-1.267,0.767-2.25,0.284-2.95-1.45
			c-1.133-2.767-1.816-4.283-2.05-4.55c-1.033-1.8-1.917-3.2-2.65-4.2c-1.3-1.767-3.216-2.767-5.75-3c-2.533-0.233-3.533-1.5-3-3.8
			C124.7,48.7,125.233,47.017,125.2,46.25z"/>
		<path style="fill-rule:evenodd;clip-rule:evenodd;fill:#1F2433;" d="M42.35,0.45c2.233,0.333,3.517,0.8,3.85,1.4
			c0.6,1.066,0.683,3.017,0.25,5.85c-0.434,2.566-1.117,4.983-2.05,7.25c-0.566,1.4-2.05,3.233-4.45,5.5
			c-2.467,2.367-4.034,4.233-4.7,5.6c-1.067,2.233-3.067,4.7-6,7.4c-3.033,2.8-5.2,4.05-6.5,3.75c-1.067-0.233-2.017-1.267-2.85-3.1
			c-1.267-2.7-2-4.184-2.2-4.45c-0.534-0.7-1.167-2.083-1.9-4.15c-0.733-2-1.566-3.6-2.5-4.8c-1.233-1.6-1.517-3.817-0.85-6.65
			c0.633-2.667,1.8-4.8,3.5-6.4C20.45,3.45,26.6,1,34.4,0.3C37.333,0.033,39.983,0.083,42.35,0.45z"/>
		<path style="fill-rule:evenodd;clip-rule:evenodd;fill:#1F2433;" d="M40.65,23.8c1-0.066,1.533,1.267,1.6,4
			c0.067,2.767-0.45,4.717-1.55,5.85c-0.867,0.9-1.367,0.733-1.5-0.5c-0.233-2.2-0.434-3.483-0.6-3.85
			c-0.6-1.267-0.783-2.433-0.55-3.5C38.35,24.567,39.217,23.9,40.65,23.8z"/>
		<path style="fill-rule:evenodd;clip-rule:evenodd;fill:#1F2433;" d="M62.4,14.65c-0.066,1.233-0.433,3.434-1.1,6.6
			c-0.333,1.633-1.333,3.567-3,5.8c-1.367,1.867-2.85,3.483-4.45,4.85c-1,0.9-1.883,0.233-2.65-2c-1.034-3.033-1.85-4.816-2.45-5.35
			c-1.033-0.867-1.483-2.316-1.35-4.35l0.5-2.75c0.033-1.2,0.184-2.483,0.45-3.85c0.6-2.8,1.55-4.7,2.85-5.7
			c2.167-1.667,4-2.2,5.5-1.6c0.933,0.367,2.267,1.333,4,2.9C61.967,10.1,62.533,11.917,62.4,14.65z"/>
		<path style="fill-rule:evenodd;clip-rule:evenodd;fill:#1F2433;" d="M177.9,199.85c-0.867,1.601-2.284,3.117-4.25,4.551
			c-1.967,1.433-3.884,2.316-5.75,2.649c-1.834,0.3-2.817,0.283-2.95-0.05c-0.101-0.3,0.517-1.167,1.85-2.6
			c0.4-0.4,1.5-1.417,3.3-3.051c1-0.866,1.7-1.733,2.101-2.6c0.633-1.434,1.967-2,4-1.7C178.2,197.35,178.767,198.283,177.9,199.85z
			"/>
		<path style="fill-rule:evenodd;clip-rule:evenodd;fill:#1F2433;" d="M144.7,203.25c2.3,0.533,4.866,2.417,7.7,5.65
			c2.733,3.166,4.017,5.566,3.85,7.199c-0.167,1.367-1.283,2.334-3.35,2.9c-1.167,0.333-3.134,0.566-5.9,0.7
			c-1.1,0.033-3.066,0.55-5.9,1.55c-2.633,0.934-4.716,1.35-6.25,1.25c-2.233-0.1-4.233-0.833-6-2.2
			c-1.899-1.434-3.017-3.217-3.35-5.35c-0.566-3.601-0.85-5.584-0.85-5.95c0-1.866,0.733-3.184,2.199-3.95
			c1.5-0.8,4.233-1.416,8.2-1.85C139.217,202.7,142.434,202.717,144.7,203.25z"/>
		<path style="fill-rule:evenodd;clip-rule:evenodd;fill:#1F2433;" d="M121.55,212c0.4,1.9,0.384,3.316-0.05,4.25
			c-0.566,1.2-1.717,1.333-3.45,0.4c-1.733-0.9-2.633-2.067-2.7-3.5c-0.066-0.934,0.233-2.117,0.9-3.551
			c0.434-0.966,1.35-1.183,2.75-0.649S121.25,210.5,121.55,212z"/>
		<path style="fill-rule:evenodd;clip-rule:evenodd;fill:#1F2433;" d="M146.15,221.5c2.267-0.3,3.433,0.316,3.5,1.85
			c0.066,1.567-0.884,2.284-2.851,2.15c-1.833-0.134-2.816-0.767-2.95-1.9C143.75,222.434,144.517,221.733,146.15,221.5z"/>
		<path style="fill-rule:evenodd;clip-rule:evenodd;fill:#1F2433;" d="M154.6,220.65c0.967-0.301,1.434-0.017,1.4,0.85
			c-0.066,0.833-0.65,1.6-1.75,2.3c-1.134,0.733-1.667,0.483-1.6-0.75C152.75,221.783,153.4,220.983,154.6,220.65z"/>
		<path style="fill-rule:evenodd;clip-rule:evenodd;fill:#1F2433;" d="M52.8,305.55c2.534-0.333,4.233,0.2,5.1,1.601
			c0.867,1.366,0.367,2.566-1.5,3.6c-2,1.066-3.683,1.75-5.05,2.05c-1.5,0.334-2.167,0.066-2-0.8
			C50.25,307.866,51.4,305.717,52.8,305.55z"/>
		<path style="fill-rule:evenodd;clip-rule:evenodd;fill:#1F2433;" d="M179.95,269.6c1.3-1.066,2.866,0.134,4.7,3.601
			c1.933,3.733,2.683,7.783,2.25,12.149c-0.667,7.034-4.534,11.101-11.601,12.2c-1.633,0.267-2.566-0.467-2.8-2.2
			c-0.366-2.566-0.65-4-0.85-4.3c-0.601-0.833-0.25-2.399,1.05-4.7c1.899-3.3,2.934-5.233,3.1-5.8c0.7-2.666,1.233-4.684,1.601-6.05
			C178.1,272.1,178.95,270.467,179.95,269.6z"/>
		<path style="fill-rule:evenodd;clip-rule:evenodd;fill:#1F2433;" d="M166.9,102.8c2.899,0.6,5.5,1.684,7.8,3.25
			c5.733,3.934,7.017,8.617,3.85,14.05c-3.566,6.167-8.616,10.117-15.149,11.85c-2.967,0.767-5.5,0.7-7.601-0.2
			c-2.333-1-3.833-2.9-4.5-5.7c-1.467-6-1.517-11.017-0.149-15.05c1.399-4.2,4.199-6.933,8.399-8.2
			C161.583,102.2,164.033,102.2,166.9,102.8z"/>
	</g>
</g>
</svg>
