<?xml version="1.0" encoding="iso-8859-1"?>
<!-- Generator: Adobe Illustrator 15.1.0, SVG Export Plug-In . SVG Version: 6.00 Build 0)  -->
<!DOCTYPE svg PUBLIC "-//W3C//DTD SVG 1.1//EN" "http://www.w3.org/Graphics/SVG/1.1/DTD/svg11.dtd">
<svg version="1.1" id="Layer_1" xmlns="http://www.w3.org/2000/svg" xmlns:xlink="http://www.w3.org/1999/xlink" x="0px" y="0px"
	 width="58.95px" height="36.75px" viewBox="0 0 58.95 36.75" style="enable-background:new 0 0 58.95 36.75;" xml:space="preserve"
	>
<g>
	<linearGradient id="SVGID_1_" gradientUnits="userSpaceOnUse" x1="29.4746" y1="0.1001" x2="29.4746" y2="43.0001">
		<stop  offset="0" style="stop-color:#292C40"/>
		<stop  offset="1" style="stop-color:#585745"/>
	</linearGradient>
	<path style="fill-rule:evenodd;clip-rule:evenodd;fill:url(#SVGID_1_);" d="M56.6,4.6C56.2,4.9,55.95,5.383,55.85,6.05l-0.399,1.6
		l-1.101,1.8c-0.6,0.9-0.949,1.517-1.05,1.85c-0.3,0.8-0.616,2.35-0.95,4.65c-0.1,0.3-0.149,1.816-0.149,4.55
		c0,1.9-0.283,3.366-0.851,4.4c-0.233-0.5-0.399-1.101-0.5-1.801l-0.25-1.8c-0.3-2.133-0.449-3.25-0.449-3.35
		c-0.267-1.5-0.534-2.583-0.801-3.25L48.7,13.2c-0.233-0.733-0.483-1.2-0.75-1.4c-0.2-0.233-0.667-0.383-1.4-0.45
		c-0.666-0.1-1.133-0.3-1.399-0.6c0-0.033-0.017-0.067-0.051-0.1c-1.5,0.833-2.466,1.767-2.899,2.8
		c-0.367,1.066-0.384,2.383-0.05,3.95c0.066,0.733-0.051,1.483-0.351,2.25C41.533,20.35,41.4,21.066,41.4,21.8l0.05,2.25
		c-0.101,1.566-0.517,3.8-1.25,6.7c-0.167,1.4-0.283,2.7-0.351,3.9c-0.1,1.399-0.183,2.1-0.25,2.1c-0.1,0-0.183-0.134-0.25-0.4
		c-0.066-0.199-0.116-0.466-0.149-0.8l-0.5-4.05c-0.101-1.033-0.134-1.8-0.101-2.3c0-0.733-0.166-1.7-0.5-2.9
		c-0.366-1.233-0.55-2.217-0.55-2.95l-1-6.1c0-1.6-0.133-2.717-0.399-3.35c-0.4-0.833-0.983-1.283-1.75-1.35
		c-1.634-0.167-4.034,1.267-7.2,4.3c-0.733,0.733-1.167,1.7-1.3,2.9l-0.45,3.3c-0.4-0.133-0.733-0.866-1-2.2
		c-0.167-1.433-0.333-2.333-0.5-2.7c-0.3-0.6-1.467-1.9-3.5-3.9c-1.6-1.567-4.883-2.967-9.85-4.2c-0.6,0.534-1.033,1.1-1.3,1.7
		c-0.367,1.067-0.383,2.383-0.05,3.95c0.067,0.733-0.05,1.483-0.35,2.25c-0.267,0.7-0.4,1.416-0.4,2.149l0.05,2.25
		c-0.1,1.567-0.517,3.801-1.25,6.7c-0.167,1.4-0.283,2.7-0.35,3.9c-0.1,1.399-0.184,2.1-0.25,2.1c-0.1,0-0.184-0.133-0.25-0.399
		c-0.067-0.2-0.117-0.467-0.15-0.801L5.8,29.8c-0.1-1.033-0.133-1.8-0.1-2.3c0-0.733-0.167-1.7-0.5-2.9
		c-0.367-1.233-0.55-2.216-0.55-2.949l-1-6.101c0-1.6-0.133-2.716-0.4-3.35c-0.4-0.833-0.983-1.284-1.75-1.35
		C1.033,9.95,0.65,8.867,0.35,7.6C-0.217,5.233-0.1,3.133,0.7,1.3C2.567,1.767,3.917,2,4.75,2c2.067,0,3.867-0.283,5.4-0.85
		c0.133,0.167,0.267,0.35,0.4,0.55c2.067-0.633,4.85-0.35,8.35,0.85C20.567,0.85,22.35,0,24.25,0c0.067,0,1.917,0.617,5.55,1.85
		C31.233,2.317,32.5,2.7,33.6,3c1.867,0.467,3.217,0.7,4.051,0.7c2.066,0,3.866-0.284,5.399-0.85c0.634-0.233,1.233-0.517,1.8-0.85
		c1.934-1.167,3.034-1.75,3.301-1.75c0.233,0,0.583,0.333,1.05,1c0.967,0.633,2.7,0.95,5.2,0.95c1.699,0,3.216-0.217,4.55-0.65
		c-0.167,0.6-0.334,1.284-0.5,2.05c-0.434,2.2-0.816,3.816-1.15,4.85c-0.233-0.5-0.383-1.15-0.45-1.95L56.8,4.45L56.6,4.6z"/>
</g>
</svg>
