<?xml version="1.0" encoding="iso-8859-1"?>
<!-- Generator: Adobe Illustrator 15.1.0, SVG Export Plug-In . SVG Version: 6.00 Build 0)  -->
<!DOCTYPE svg PUBLIC "-//W3C//DTD SVG 1.1//EN" "http://www.w3.org/Graphics/SVG/1.1/DTD/svg11.dtd">
<svg version="1.1" id="Layer_1" xmlns="http://www.w3.org/2000/svg" xmlns:xlink="http://www.w3.org/1999/xlink" x="0px" y="0px"
	 width="565.95px" height="95.95px" viewBox="0 0 565.95 95.95" style="enable-background:new 0 0 565.95 95.95;"
	 xml:space="preserve">
<g>
	<g>
		<path style="fill-rule:evenodd;clip-rule:evenodd;fill:#87ABAE;" d="M565.35,70.75c-0.833,0.533-2.399,0.717-4.699,0.55
			c-3.067-0.3-5.5-0.517-7.301-0.649c-3.533-0.301-6.199-0.617-8-0.95c-2.6-0.5-4.116-1.184-4.55-2.05
			c-0.5-1.034,0.384-1.967,2.65-2.801c2.5-0.966,5.733-1.316,9.7-1.05c4.166,0.367,7.6,1.483,10.3,3.351
			C565.95,68.884,566.583,70.083,565.35,70.75z"/>
	</g>
	<g>
		<path style="fill-rule:evenodd;clip-rule:evenodd;fill:#819DA1;" d="M483.2,46.9c1.7,1,2.616,2.05,2.75,3.15
			c0.066,1.2-1.184,2.05-3.75,2.55c-2.467,0.467-5.134,0.45-8-0.05c-2.7-0.434-4.8-0.866-6.3-1.3c-0.967-0.3-2.184-0.767-3.65-1.4
			c-0.566-0.3-0.7-0.899-0.4-1.8c0.334-0.966,1.134-1.767,2.4-2.4c2.4-1.333,5.517-1.733,9.35-1.2
			C478.767,45.017,481.3,45.833,483.2,46.9z"/>
	</g>
	<g>
		<path style="fill-rule:evenodd;clip-rule:evenodd;fill:#87ABAE;" d="M406.9,24.8c0,0.467-0.4,0.883-1.2,1.25
			s-1.783,0.583-2.95,0.65c-1.167,0.133-2.184,0.083-3.05-0.15c-0.9-0.2-1.384-0.517-1.45-0.95c-0.066-0.434,0.3-0.85,1.1-1.25
			c0.801-0.4,1.801-0.684,3-0.85c1.233-0.067,2.301,0.033,3.2,0.3C406.417,24.033,406.866,24.367,406.9,24.8z"/>
	</g>
	<g>
		<path style="fill-rule:evenodd;clip-rule:evenodd;fill:#98B3AB;" d="M446.15,18.55c-0.634,0.333-1.4,0.517-2.301,0.55
			c-0.899,0-1.649-0.133-2.25-0.4c-0.6-0.267-0.883-0.55-0.85-0.85c0-0.3,0.316-0.55,0.95-0.75c0.566-0.167,1.267-0.25,2.1-0.25
			c1.867-0.067,2.9,0.183,3.101,0.75C447,17.933,446.75,18.25,446.15,18.55z"/>
	</g>
	<g>
		<path style="fill-rule:evenodd;clip-rule:evenodd;fill:#87ABAE;" d="M431.05,18.4c0.066,0.233-0.1,0.467-0.5,0.7
			c-0.434,0.267-0.95,0.45-1.55,0.55c-0.634,0.1-1.184,0.1-1.65,0c-0.466-0.1-0.699-0.267-0.699-0.5
			c-0.034-0.233,0.166-0.45,0.6-0.65c0.4-0.233,0.884-0.383,1.45-0.45c0.566-0.1,1.083-0.117,1.55-0.05S430.983,18.2,431.05,18.4z"
			/>
	</g>
	<g>
		<path style="fill-rule:evenodd;clip-rule:evenodd;fill:#98B3AB;" d="M413.95,31.15c0,0.5-0.684,0.783-2.05,0.85
			c-0.534,0.067-1,0.067-1.4,0c-0.4-0.1-0.634-0.25-0.7-0.45c-0.066-0.233,0.101-0.45,0.5-0.65c0.367-0.2,0.867-0.35,1.5-0.45
			c0.601,0,1.117,0.066,1.55,0.2C413.75,30.783,413.95,30.95,413.95,31.15z"/>
	</g>
	<g>
		<path style="fill-rule:evenodd;clip-rule:evenodd;fill:#87ABAE;" d="M427.5,39.55c0.066,1-0.767,1.917-2.5,2.75
			c-1.833,0.9-4.184,1.4-7.05,1.5c-2.934,0.267-5.517-0.5-7.75-2.3c-2.134-1.733-2.55-2.933-1.25-3.6
			c0.899-0.467,2.066-0.767,3.5-0.9c0.934-0.067,2.75-0.133,5.45-0.2c2.5-0.066,4.666,0.117,6.5,0.55
			C426.434,37.883,427.467,38.617,427.5,39.55z"/>
	</g>
	<g>
		<path style="fill-rule:evenodd;clip-rule:evenodd;fill:#87ABAE;" d="M529,90c-0.167-0.4,0.167-0.8,1-1.2
			c0.9-0.399,1.934-0.55,3.1-0.45c1.167,0.134,2.15,0.483,2.95,1.051c0.733,0.566,0.934,1.017,0.601,1.35
			c-0.434,0.533-1.733,0.684-3.9,0.45C530.517,91.033,529.267,90.634,529,90z"/>
	</g>
	<g>
		<path style="fill-rule:evenodd;clip-rule:evenodd;fill:#819DA1;" d="M508.75,88.1c-0.6-0.767-0.116-1.75,1.45-2.949
			c1.733-1.301,3.866-2.017,6.399-2.15c2.5-0.134,4.634,0.184,6.4,0.95c1.667,0.733,2.434,1.533,2.3,2.399
			c-0.233,1.534-2.967,2.467-8.2,2.801c-2.566,0.133-4.3,0.166-5.199,0.1C510.3,89.116,509.25,88.733,508.75,88.1z"/>
	</g>
	<g>
		<path style="fill-rule:evenodd;clip-rule:evenodd;fill:#98B3AB;" d="M499.9,8.6c-0.101,0.5-0.634,0.883-1.601,1.15
			s-2.133,0.367-3.5,0.3c-2.166-0.066-3.767-0.583-4.8-1.55c-0.434-0.533-0.017-1.05,1.25-1.55c1.233-0.534,2.5-0.717,3.8-0.55
			c1.367,0.033,2.55,0.3,3.55,0.8C499.566,7.633,500,8.1,499.9,8.6z"/>
	</g>
	<g>
		<path style="fill-rule:evenodd;clip-rule:evenodd;fill:#87ABAE;" d="M488.85,25.35c-1.767,0.433-3.399,0.4-4.899-0.1
			c-1.434-0.5-2.017-1.083-1.75-1.75c0.2-0.533,0.8-1,1.8-1.4c0.634-0.267,1.833-0.633,3.6-1.1c1.534-0.4,2.934-0.567,4.2-0.5
			c1.334,0.1,2.084,0.433,2.25,1c0.2,0.6-0.166,1.267-1.1,2C491.95,24.267,490.583,24.883,488.85,25.35z"/>
	</g>
	<g>
		<path style="fill-rule:evenodd;clip-rule:evenodd;fill:#87ABAE;" d="M524.9,47.5c1.199,0.3,1.783,0.733,1.75,1.3
			c0,0.566-0.483,1.101-1.45,1.601s-2.217,0.866-3.75,1.1c-1.601,0.2-3.017,0.05-4.25-0.45c-1.2-0.467-1.717-0.983-1.55-1.55
			c0.199-1.033,1.949-1.75,5.25-2.15C522.366,47.117,523.7,47.167,524.9,47.5z"/>
	</g>
	<g>
		<path style="fill-rule:evenodd;clip-rule:evenodd;fill:#98B3AB;" d="M13.15,87.65c1.2-0.301,2.217-0.5,3.05-0.601
			c1.1-0.166,2.683-0.267,4.75-0.3c4.966-0.066,7.8,0.533,8.5,1.8c0.5,0.834-0.1,1.767-1.8,2.8c-1.833,1.101-4.017,1.667-6.55,1.7
			c-3.133,0-5.5-0.666-7.1-2c-0.833-0.633-1.3-1.35-1.4-2.149C12.467,88.167,12.65,87.75,13.15,87.65z"/>
	</g>
	<g>
		<path style="fill-rule:evenodd;clip-rule:evenodd;fill:#87ABAE;" d="M464.1,30.2c0.434,0.466,0.101,1.083-1,1.85
			c-1.1,0.767-2.383,1.167-3.85,1.2c-1.5,0.1-2.65,0.1-3.45,0c-0.899-0.1-1.533-0.35-1.899-0.75c-0.434-0.467-0.101-1.067,1-1.8
			c1.1-0.8,2.383-1.217,3.85-1.25c1.533-0.1,2.684-0.1,3.45,0C463.1,29.55,463.733,29.8,464.1,30.2z"/>
	</g>
	<g>
		<path style="fill-rule:evenodd;clip-rule:evenodd;fill:#87ABAE;" d="M534.95,30.7c0.1,0.367-0.167,0.75-0.8,1.15
			c-0.634,0.4-1.45,0.683-2.45,0.85c-0.967,0.2-1.851,0.2-2.65,0c-0.767-0.167-1.149-0.434-1.149-0.8c0-0.767,1.083-1.35,3.25-1.75
			c0.966-0.167,1.816-0.2,2.55-0.1C534.434,30.15,534.85,30.367,534.95,30.7z"/>
	</g>
	<g>
		<path style="fill-rule:evenodd;clip-rule:evenodd;fill:#87ABAE;" d="M462.75,3.05c0,0.767-0.767,1.434-2.3,2
			c-1.566,0.534-3.434,0.784-5.601,0.75c-2.1,0.067-3.916-0.183-5.449-0.75c-1.534-0.533-2.334-1.183-2.4-1.95
			c-0.066-0.8,0.667-1.5,2.2-2.1c1.566-0.6,3.467-0.933,5.7-1c2.199,0.067,4.066,0.383,5.6,0.95
			C462.033,1.55,462.783,2.25,462.75,3.05z"/>
	</g>
	<g>
		<path style="fill-rule:evenodd;clip-rule:evenodd;fill:#98B3AB;" d="M557.65,22.95c-0.5,1-1.801,1.7-3.9,2.1
			c-1.733,0.3-4.2,0.434-7.4,0.4c-3-0.034-5.583-0.4-7.75-1.1c-2.267-0.733-3.416-1.667-3.449-2.8
			c-0.034-1.167,1.033-2.183,3.199-3.05c2.233-0.933,4.983-1.383,8.25-1.35c3.301,0.033,6.15,0.75,8.551,2.15
			C557.417,20.633,558.25,21.85,557.65,22.95z"/>
	</g>
	<g>
		<path style="fill-rule:evenodd;clip-rule:evenodd;fill:#98B3AB;" d="M469.55,76.3c-0.434-0.633-0.033-1.434,1.2-2.399
			c1.267-1.034,2.9-1.733,4.9-2.101c2-0.366,3.75-0.383,5.25-0.05c1.466,0.3,2.25,0.816,2.35,1.55c0.134,0.7-0.45,1.4-1.75,2.101
			c-1.2,0.633-2.75,1.116-4.65,1.449C472.717,77.684,470.283,77.5,469.55,76.3z"/>
	</g>
	<g>
		<path style="fill-rule:evenodd;clip-rule:evenodd;fill:#87ABAE;" d="M487.5,65.9c-1-0.167-1.833-0.434-2.5-0.801
			c-0.634-0.399-0.917-0.783-0.85-1.149c0.066-0.367,0.483-0.617,1.25-0.75c0.8-0.134,1.699-0.117,2.699,0.05
			c1.034,0.233,1.884,0.583,2.551,1.05c0.633,0.4,0.866,0.783,0.699,1.15c-0.133,0.366-0.583,0.583-1.35,0.649
			C489.233,66.2,488.4,66.134,487.5,65.9z"/>
	</g>
	<g>
		<path style="fill-rule:evenodd;clip-rule:evenodd;fill:#87ABAE;" d="M417.7,66.1c0.2-1.066,1.3-1.883,3.3-2.449
			c1.967-0.534,4.45-0.717,7.45-0.551c2.934,0.134,5.6,0.867,8,2.2c2.333,1.3,3.217,2.483,2.649,3.55
			c-0.966,1.867-4.533,2.65-10.699,2.351c-2.9-0.134-5.467-0.75-7.7-1.851C418.5,68.283,417.5,67.2,417.7,66.1z"/>
	</g>
	<g>
		<path style="fill-rule:evenodd;clip-rule:evenodd;fill:#98B3AB;" d="M432.95,58.6c0.066-0.433,0.533-0.767,1.399-1
			c0.867-0.267,1.867-0.35,3-0.25c1.233,0.067,2.267,0.284,3.101,0.65c0.8,0.366,1.166,0.767,1.1,1.2s-0.533,0.783-1.399,1.05
			c-0.867,0.233-1.867,0.316-3,0.25c-1.233-0.1-2.25-0.333-3.051-0.7C433.267,59.434,432.884,59.033,432.95,58.6z"/>
	</g>
	<g>
		<path style="fill-rule:evenodd;clip-rule:evenodd;fill:#98B3AB;" d="M510.5,29.5c0.5-0.467,1.366-0.767,2.6-0.9
			c0.767-0.067,2.15-0.117,4.15-0.15c1.866-0.067,3.467,0.05,4.8,0.35c1.467,0.333,2.25,0.85,2.351,1.55
			c0.066,0.733-0.534,1.433-1.801,2.1c-1.366,0.7-3.116,1.1-5.25,1.2c-2.233,0.1-4.133-0.433-5.699-1.6
			C510.15,30.95,509.767,30.1,510.5,29.5z"/>
	</g>
	<g>
		<path style="fill-rule:evenodd;clip-rule:evenodd;fill:#87ABAE;" d="M514.3,15.4c0.101-0.233,0.417-0.383,0.95-0.45
			c0.5-0.034,1.083,0.033,1.75,0.2c0.634,0.133,1.167,0.333,1.6,0.6c0.434,0.267,0.617,0.533,0.551,0.8
			c-0.067,0.233-0.351,0.383-0.851,0.45c-0.533,0.067-1.149,0.033-1.85-0.1c-0.667-0.167-1.217-0.4-1.65-0.7
			C514.4,15.9,514.233,15.633,514.3,15.4z"/>
	</g>
	<g>
		<path style="fill-rule:evenodd;clip-rule:evenodd;fill:#87ABAE;" d="M560.35,14.95c0.034,0.367-0.3,0.683-1,0.95
			c-0.699,0.267-1.533,0.417-2.5,0.45c-1,0.033-1.85-0.067-2.55-0.3c-0.7-0.233-1.066-0.533-1.1-0.9s0.3-0.683,1-0.95
			c0.7-0.267,1.55-0.417,2.55-0.45c0.967-0.033,1.816,0.067,2.55,0.3C560,14.283,560.35,14.583,560.35,14.95z"/>
	</g>
	<g>
		<path style="fill-rule:evenodd;clip-rule:evenodd;fill:#87ABAE;" d="M465.65,79.2c0.066,1-0.934,1.733-3,2.2
			c-2.067,0.466-4.317,0.449-6.75-0.051c-5.301-1-8.117-2.333-8.45-4c-0.167-1,0.767-1.8,2.8-2.399c2.167-0.601,4.5-0.65,7-0.15
			c2.533,0.467,4.533,1.101,6,1.9C464.783,77.467,465.583,78.3,465.65,79.2z"/>
	</g>
	<g>
		<path style="fill-rule:evenodd;clip-rule:evenodd;fill:#87ABAE;" d="M474.25,85.2c0.1,0.467-0.333,0.899-1.3,1.3
			c-1.033,0.467-2.25,0.634-3.65,0.5c-1.366-0.134-2.517-0.517-3.45-1.15c-0.866-0.6-1.183-1.116-0.949-1.55
			c0.433-0.8,2.033-1.05,4.8-0.75C472.566,83.816,474.083,84.366,474.25,85.2z"/>
	</g>
	<g>
		<path style="fill-rule:evenodd;clip-rule:evenodd;fill:#87ABAE;" d="M411.65,74.3c0.066,0.566-0.483,1-1.65,1.3
			c-1.2,0.334-2.55,0.367-4.05,0.101c-1.467-0.3-2.667-0.75-3.601-1.351c-0.899-0.6-1.267-1.149-1.1-1.649
			c0.134-0.5,0.767-0.834,1.9-1c1.066-0.134,2.283-0.066,3.649,0.2C410,72.434,411.616,73.233,411.65,74.3z"/>
	</g>
	<g>
		<path style="fill-rule:evenodd;clip-rule:evenodd;fill:#87ABAE;" d="M442.5,80.15c0.066,0.699-0.634,1.267-2.1,1.699
			c-1.567,0.467-3.301,0.551-5.2,0.25c-1.867-0.333-3.4-0.866-4.601-1.6c-1.166-0.7-1.683-1.384-1.55-2.05
			c0.101-0.667,0.867-1.117,2.3-1.351c1.434-0.267,3.051-0.233,4.851,0.101C440.267,77.833,442.366,78.816,442.5,80.15z"/>
	</g>
	<g>
		<path style="fill-rule:evenodd;clip-rule:evenodd;fill:#87ABAE;" d="M417.2,55.9c-0.467,1.6-3.467,2.75-9,3.449
			c-2.533,0.301-4.684,0.301-6.45,0c-1.934-0.3-3.05-0.899-3.35-1.8c-0.267-0.967,0.449-1.95,2.149-2.95c1.767-1.1,4-1.8,6.7-2.1
			c2.7-0.366,5.134-0.116,7.3,0.75C416.616,54.017,417.5,54.9,417.2,55.9z"/>
	</g>
	<g>
		<path style="fill-rule:evenodd;clip-rule:evenodd;fill:#819DA1;" d="M86.7,23.55c-0.1,1-1.184,1.833-3.25,2.5
			c-1.934,0.633-4.35,1-7.25,1.1c-5.867,0.1-9.417-0.583-10.65-2.05c-0.767-1-0.017-2.15,2.25-3.45c2.333-1.333,5-2,8-2
			c3.067-0.1,5.684,0.267,7.85,1.1C85.75,21.55,86.767,22.483,86.7,23.55z"/>
	</g>
	<g>
		<path style="fill-rule:evenodd;clip-rule:evenodd;fill:#87ABAE;" d="M33.6,9.9c-0.067,0.434-0.533,0.733-1.4,0.9
			c-0.867,0.2-1.883,0.217-3.05,0.05c-1.133-0.133-2.083-0.383-2.85-0.75c-0.767-0.4-1.133-0.817-1.1-1.25
			c0.066-0.4,0.533-0.684,1.4-0.85s1.883-0.183,3.05-0.05c1.133,0.133,2.1,0.383,2.9,0.75C33.317,9.1,33.667,9.5,33.6,9.9z"/>
	</g>
	<g>
		<path style="fill-rule:evenodd;clip-rule:evenodd;fill:#819DA1;" d="M390.45,80.75c0.6,0.934-0.017,2.066-1.851,3.4
			c-1.899,1.366-4.283,2.3-7.149,2.8c-2.834,0.533-5.283,0.666-7.351,0.399c-2.033-0.233-3.267-0.816-3.699-1.75
			c-0.434-0.966,0.283-2.05,2.149-3.25c1.9-1.199,4.233-2.05,7-2.55C385.783,78.733,389.417,79.05,390.45,80.75z"/>
	</g>
	<g>
		<path style="fill-rule:evenodd;clip-rule:evenodd;fill:#98B3AB;" d="M24.15,23.65c-1.2,0.467-2.8,0.633-4.8,0.5
			c-0.3,0-2.783-0.267-7.45-0.8c-3.333-0.434-6.167-1.2-8.5-2.3c-2.5-1.167-3.617-2.367-3.35-3.6C0.317,16.217,1.7,15.3,4.2,14.7
			c2.667-0.667,5.867-0.75,9.6-0.25c1.967,0.3,3.8,0.816,5.5,1.55c1.8,0.8,3.184,1.733,4.15,2.8c0.933,1.034,1.45,2.034,1.55,3
			C25.067,22.667,24.783,23.283,24.15,23.65z"/>
	</g>
	<g>
		<path style="fill-rule:evenodd;clip-rule:evenodd;fill:#87ABAE;" d="M385.85,37.7c0.233,0.533-0.216,0.933-1.35,1.2
			c-1.167,0.3-2.366,0.3-3.6,0c-1.267-0.267-2.284-0.7-3.051-1.3c-0.767-0.533-1.05-1.017-0.85-1.45c0.2-0.367,0.767-0.583,1.7-0.65
			c0.833-0.033,1.866,0.067,3.1,0.3C384,36.267,385.35,36.9,385.85,37.7z"/>
	</g>
	<g>
		<path style="fill-rule:evenodd;clip-rule:evenodd;fill:#819DA1;" d="M31.3,66.8c0.133,0.566-0.417,1.15-1.65,1.75
			c-1.233,0.601-2.8,1.033-4.7,1.3C23.05,70.116,21.4,70.167,20,70c-1.433-0.167-2.25-0.533-2.45-1.1
			c-0.233-0.567,0.267-1.184,1.5-1.851c1.267-0.666,2.867-1.133,4.8-1.399c1.9-0.301,3.583-0.334,5.05-0.101
			C30.333,65.783,31.133,66.2,31.3,66.8z"/>
	</g>
	<g>
		<path style="fill-rule:evenodd;clip-rule:evenodd;fill:#87ABAE;" d="M380.5,54.25c0.066,0.2-0.116,0.417-0.55,0.65
			c-0.467,0.199-0.983,0.3-1.55,0.3c-1.367,0.066-2.117-0.117-2.25-0.55c-0.067-0.2,0.116-0.4,0.55-0.601
			c0.467-0.2,1-0.316,1.6-0.35C379.667,53.634,380.4,53.816,380.5,54.25z"/>
	</g>
	<g>
		<path style="fill-rule:evenodd;clip-rule:evenodd;fill:#98B3AB;" d="M191,45.95c5.467,0.066,10,0.917,13.6,2.55
			c1.733,0.667,3.117,1.717,4.15,3.15c1.067,1.5,1,2.466-0.2,2.899c-0.533,0.167-1.367,0.684-2.5,1.55
			c-0.966,0.733-2.083,1.217-3.35,1.45c-3.5,0.9-7.6,1.334-12.3,1.3c-5-0.033-9.217-0.6-12.65-1.699
			c-3.567-1.167-5.383-2.617-5.45-4.351c-0.066-1.8,1.717-3.399,5.35-4.8C181.417,46.6,185.867,45.917,191,45.95z"/>
	</g>
	<g>
		<path style="fill-rule:evenodd;clip-rule:evenodd;fill:#87ABAE;" d="M124.95,9.15c-0.267,0.6-1.05,0.983-2.35,1.15
			c-1.2,0.167-2.7,0.117-4.5-0.15c-1.8-0.233-3.317-0.65-4.55-1.25c-1.233-0.6-1.8-1.217-1.7-1.85s0.816-1.1,2.15-1.4
			c1.367-0.3,2.967-0.333,4.8-0.1c1.833,0.267,3.4,0.8,4.7,1.6C124.733,7.883,125.217,8.55,124.95,9.15z"/>
	</g>
	<g>
		<path style="fill-rule:evenodd;clip-rule:evenodd;fill:#819DA1;" d="M151.45,17.45c-0.034,0.333-0.417,0.55-1.15,0.65
			c-0.7,0.1-1.533,0.066-2.5-0.1c-0.933-0.267-1.667-0.6-2.2-1s-0.733-0.75-0.6-1.05c0.167-0.3,0.583-0.467,1.25-0.5
			c0.667-0.034,1.417,0.066,2.25,0.3c0.867,0.167,1.583,0.4,2.15,0.7C151.217,16.783,151.483,17.117,151.45,17.45z"/>
	</g>
	<g>
		<path style="fill-rule:evenodd;clip-rule:evenodd;fill:#87ABAE;" d="M375.35,39.95c0.434,0.867-0.233,1.816-2,2.85
			c-1.866,1.067-4.133,1.65-6.8,1.75c-2.633,0.133-4.95-0.233-6.95-1.1c-1.866-0.833-2.649-1.7-2.35-2.6
			c0.467-1.5,3.434-2.4,8.9-2.7C371.583,37.983,374.65,38.583,375.35,39.95z"/>
	</g>
	<g>
		<path style="fill-rule:evenodd;clip-rule:evenodd;fill:#87ABAE;" d="M323.9,52.15c0.6,0.199,0.899,0.433,0.899,0.699
			c-0.033,0.267-0.316,0.517-0.85,0.75c-0.566,0.2-1.217,0.317-1.95,0.351c-0.8,0.066-1.5,0.033-2.1-0.101
			c-0.567-0.133-0.884-0.35-0.95-0.649c-0.033-0.267,0.233-0.533,0.8-0.8c0.533-0.267,1.2-0.434,2-0.5
			C322.583,51.866,323.3,51.95,323.9,52.15z"/>
	</g>
	<g>
		<path style="fill-rule:evenodd;clip-rule:evenodd;fill:#87ABAE;" d="M264.8,81.45c0.034,0.3-0.233,0.583-0.8,0.85
			c-0.6,0.3-1.333,0.483-2.2,0.55c-0.8,0.134-1.517,0.134-2.15,0c-0.667-0.1-1.05-0.3-1.15-0.6s0.15-0.6,0.75-0.9
			c0.567-0.3,1.3-0.533,2.2-0.699c0.9-0.101,1.683-0.067,2.35,0.1C264.433,80.884,264.767,81.116,264.8,81.45z"/>
	</g>
	<g>
		<path style="fill-rule:evenodd;clip-rule:evenodd;fill:#819DA1;" d="M301.6,7.65c-0.133,0.533-0.783,0.85-1.949,0.95
			c-1.233,0.1-2.567-0.067-4-0.5c-1.434-0.434-2.584-1.017-3.45-1.75c-0.834-0.733-1.101-1.333-0.8-1.8c0.3-0.466,1-0.683,2.1-0.65
			c1.033,0,2.233,0.217,3.6,0.65c1.4,0.4,2.517,0.883,3.351,1.45C301.316,6.6,301.7,7.15,301.6,7.65z"/>
	</g>
	<g>
		<path style="fill-rule:evenodd;clip-rule:evenodd;fill:#87ABAE;" d="M156.55,78.05c-0.033,0.267-0.3,0.467-0.8,0.601
			c-0.5,0.166-1.083,0.216-1.75,0.149c-0.633,0.066-1.2,0.033-1.7-0.1c-0.5-0.167-0.783-0.367-0.85-0.601
			c-0.034-0.233,0.2-0.449,0.7-0.649c0.5-0.233,1.117-0.384,1.85-0.45c0.767,0.066,1.4,0.2,1.9,0.4
			C156.4,77.6,156.617,77.816,156.55,78.05z"/>
	</g>
	<g>
		<path style="fill-rule:evenodd;clip-rule:evenodd;fill:#819DA1;" d="M281.85,43.85c0.733,1.066-0.133,2.033-2.6,2.9
			c-2.5,0.833-5.033,0.983-7.6,0.45c-2.7-0.434-4.917-1.133-6.65-2.1c-1.6-0.934-2.367-1.85-2.3-2.75c0.133-0.967,1.25-1.633,3.35-2
			c2-0.333,4.3-0.3,6.9,0.1C277.65,41.217,280.617,42.35,281.85,43.85z"/>
	</g>
	<g>
		<path style="fill-rule:evenodd;clip-rule:evenodd;fill:#87ABAE;" d="M301.3,40.8c0.101,0.667-0.416,1.333-1.55,2
			c-1.233,0.7-2.833,1.167-4.8,1.4c-2.101,0.267-3.967-0.083-5.601-1.05c-1.566-0.967-2-1.733-1.3-2.3
			c0.467-0.434,1.267-0.733,2.4-0.9c0.7-0.133,2-0.3,3.899-0.5c1.733-0.2,3.267-0.184,4.601,0.05
			C300.417,39.733,301.2,40.167,301.3,40.8z"/>
	</g>
	<g>
		<path style="fill-rule:evenodd;clip-rule:evenodd;fill:#87ABAE;" d="M390.1,7.9c-0.566,0.8-1.666,1.383-3.3,1.75
			c-1.3,0.3-3.416,0.567-6.35,0.8c-2.634,0.267-5.101-0.034-7.4-0.9c-2.267-0.867-3.166-1.8-2.7-2.8c0.867-1.7,4.101-2.783,9.7-3.25
			c2.8-0.267,5.367,0.183,7.7,1.35C389.95,5.95,390.733,6.967,390.1,7.9z"/>
	</g>
	<g>
		<path style="fill-rule:evenodd;clip-rule:evenodd;fill:#87ABAE;" d="M281.75,83.8c0.733-0.1,1.566-0.083,2.5,0.05
			c2.066,0.267,3.134,0.767,3.2,1.5c0.033,0.367-0.334,0.634-1.101,0.801c-0.767,0.166-1.616,0.183-2.55,0.05
			c-0.967-0.134-1.75-0.367-2.35-0.7c-0.6-0.333-0.883-0.667-0.85-1C280.667,84.167,281.05,83.934,281.75,83.8z"/>
	</g>
	<g>
		<path style="fill-rule:evenodd;clip-rule:evenodd;fill:#87ABAE;" d="M185.9,8.45c-0.1,0.7-0.833,1.283-2.2,1.75
			c-1.367,0.433-3.067,0.667-5.1,0.7c-2.033,0.067-3.8-0.2-5.3-0.8c-1.5-0.567-2.183-1.2-2.05-1.9c0.1-0.7,0.833-1.267,2.2-1.7
			s3.05-0.667,5.05-0.7c2.033-0.033,3.8,0.217,5.3,0.75C185.3,7.117,186,7.75,185.9,8.45z"/>
	</g>
	<g>
		<path style="fill-rule:evenodd;clip-rule:evenodd;fill:#87ABAE;" d="M274.05,20.45c0.167,0.767-0.383,1.566-1.65,2.4
			c-1.233,0.833-2.9,1.533-5,2.1c-2.1,0.566-4.033,0.733-5.8,0.5c-1.733-0.233-2.65-0.733-2.75-1.5
			c-0.133-0.767,0.45-1.55,1.75-2.35c1.233-0.767,2.883-1.417,4.95-1.95c2.067-0.533,3.967-0.717,5.7-0.55
			C272.95,19.267,273.883,19.717,274.05,20.45z"/>
	</g>
	<g>
		<path style="fill-rule:evenodd;clip-rule:evenodd;fill:#87ABAE;" d="M252.85,14.2c0.7,1.1-0.167,2.117-2.6,3.05
			c-2.5,0.967-5.167,1.233-8,0.8c-2.867-0.267-5.3-0.983-7.3-2.15c-1.934-1.133-2.65-2.183-2.15-3.15
			c0.4-0.833,1.567-1.417,3.5-1.75c1.867-0.3,4.184-0.317,6.95-0.05C248.517,11.583,251.717,12.667,252.85,14.2z"/>
	</g>
	<g>
		<path style="fill-rule:evenodd;clip-rule:evenodd;fill:#819DA1;" d="M270.8,12.65c-0.066,0.3-0.433,0.517-1.1,0.65
			c-0.633,0.133-1.383,0.15-2.25,0.05c-0.833-0.033-1.534-0.184-2.1-0.45c-0.6-0.267-0.9-0.55-0.9-0.85c0-0.333,0.333-0.583,1-0.75
			c0.633-0.167,1.417-0.216,2.35-0.15c0.867,0.1,1.6,0.3,2.2,0.6S270.867,12.35,270.8,12.65z"/>
	</g>
	<g>
		<path style="fill-rule:evenodd;clip-rule:evenodd;fill:#819DA1;" d="M363.65,4c0,0.6-0.584,1.167-1.75,1.7
			c-1.101,0.5-2.534,0.883-4.301,1.15c-4,0.467-6.267,0.133-6.8-1c-0.3-0.6,0.15-1.283,1.351-2.05c1.233-0.767,2.767-1.267,4.6-1.5
			c1.833-0.267,3.467-0.2,4.9,0.2C363.017,2.867,363.684,3.367,363.65,4z"/>
	</g>
	<g>
		<path style="fill-rule:evenodd;clip-rule:evenodd;fill:#87ABAE;" d="M372.75,2.6c-0.033,0.267-0.333,0.45-0.9,0.55
			c-0.6,0.133-1.267,0.167-2,0.1c-0.699-0.033-1.316-0.167-1.85-0.4c-0.533-0.2-0.8-0.434-0.8-0.7s0.283-0.483,0.85-0.65
			s1.25-0.233,2.05-0.2c0.767,0.067,1.417,0.233,1.95,0.5C372.55,2.067,372.783,2.333,372.75,2.6z"/>
	</g>
	<g>
		<path style="fill-rule:evenodd;clip-rule:evenodd;fill:#87ABAE;" d="M187.35,13.1c-0.033,0.267-0.317,0.467-0.85,0.6
			c-0.567,0.133-1.2,0.167-1.9,0.1c-0.767-0.133-1.4-0.333-1.9-0.6c-0.467-0.233-0.65-0.483-0.55-0.75
			c0.067-0.233,0.367-0.4,0.9-0.5c0.567-0.1,1.167-0.1,1.8,0c0.733,0.066,1.35,0.216,1.85,0.45S187.417,12.867,187.35,13.1z"/>
	</g>
	<g>
		<path style="fill-rule:evenodd;clip-rule:evenodd;fill:#87ABAE;" d="M74.6,86.55c0.5,0.9-0.25,1.65-2.25,2.25
			c-2.067,0.566-4.133,0.601-6.2,0.101c-2.167-0.4-3.95-1.051-5.35-1.95c-1.367-0.9-1.917-1.717-1.65-2.45
			c0.267-0.7,1.2-1.15,2.8-1.35c1.566-0.167,3.4-0.067,5.5,0.3C71.183,84.15,73.567,85.184,74.6,86.55z"/>
	</g>
	<g>
		<path style="fill-rule:evenodd;clip-rule:evenodd;fill:#87ABAE;" d="M88.15,77.9c0.033,0.399-0.367,0.733-1.2,1
			c-0.833,0.267-1.85,0.383-3.05,0.35c-1.2-0.134-2.183-0.384-2.95-0.75c-0.767-0.366-1.117-0.75-1.05-1.15
			c0.1-0.366,0.567-0.649,1.4-0.85c0.8-0.2,1.75-0.25,2.85-0.15c1.067,0.034,2,0.2,2.8,0.5C87.717,77.15,88.117,77.5,88.15,77.9z"/>
	</g>
	<g>
		<path style="fill-rule:evenodd;clip-rule:evenodd;fill:#87ABAE;" d="M228.25,79.15c0.1,0.966-0.833,1.783-2.8,2.449
			c-2.034,0.7-4.417,0.967-7.15,0.801c-2.7-0.167-5.017-0.75-6.95-1.75c-1.833-0.934-2.6-1.867-2.3-2.801
			c0.3-0.866,1.383-1.5,3.25-1.899c1.767-0.367,3.967-0.467,6.6-0.3c2.633,0.166,4.8,0.566,6.5,1.199
			C227.2,77.483,228.15,78.25,228.25,79.15z"/>
	</g>
	<g>
		<path style="fill-rule:evenodd;clip-rule:evenodd;fill:#819DA1;" d="M369.15,27.5c-0.067,0.4-0.517,0.667-1.351,0.8
			c-0.833,0.133-1.8,0.117-2.899-0.05c-1.101-0.167-2.017-0.45-2.75-0.85c-0.7-0.4-1.017-0.8-0.95-1.2
			c0.1-0.367,0.566-0.633,1.399-0.8c0.834-0.133,1.801-0.117,2.9,0.05c1.1,0.167,2.017,0.466,2.75,0.9
			C368.95,26.75,369.25,27.133,369.15,27.5z"/>
	</g>
	<g>
		<path style="fill-rule:evenodd;clip-rule:evenodd;fill:#87ABAE;" d="M221.6,28.9c0.367-0.3,0.633-0.167,0.8,0.4
			c0.133,0.6-0.05,1.083-0.55,1.45c-0.533,0.667-1.417,1.267-2.65,1.8c-2.233,0.967-4.95,1.417-8.15,1.35
			c-3.066-0.033-5.733-0.55-8-1.55c-2.2-1-3.117-2.033-2.75-3.1c0.3-0.967,1.467-1.733,3.5-2.3c1.967-0.5,4.434-0.733,7.4-0.7
			c2.867,0.067,5.283,0.367,7.25,0.9c0.867,0.233,1.5,0.533,1.9,0.9c-0.167,0.034-0.033,0.217,0.4,0.55
			c0.3,0.267,0.417,0.383,0.35,0.35C221,29.05,221.167,29.033,221.6,28.9z"/>
	</g>
	<g>
		<path style="fill-rule:evenodd;clip-rule:evenodd;fill:#819DA1;" d="M219.7,17.6c-0.034,0.467-0.733,0.75-2.1,0.85
			c-0.6,0.033-1.133-0.034-1.6-0.2c-0.467-0.133-0.683-0.3-0.65-0.5c0.066-0.433,0.767-0.717,2.1-0.85
			c0.633-0.033,1.167,0.033,1.6,0.2C219.517,17.233,219.733,17.4,219.7,17.6z"/>
	</g>
	<g>
		<path style="fill-rule:evenodd;clip-rule:evenodd;fill:#819DA1;" d="M178.7,71.65c0.5,1.233-0.55,2.366-3.15,3.399
			c-2.7,1.066-5.683,1.45-8.95,1.15c-3.333-0.233-6.133-0.884-8.4-1.95c-2.2-1.033-3.217-2.116-3.05-3.25
			c0.167-1.134,1.45-1.983,3.85-2.55c2.333-0.566,5.083-0.75,8.25-0.55C173.983,68.434,177.8,69.684,178.7,71.65z"/>
	</g>
	<g>
		<path style="fill-rule:evenodd;clip-rule:evenodd;fill:#819DA1;" d="M172.1,62.45c-0.067,0.733-1.083,1.149-3.05,1.25
			c-0.867,0.066-1.617,0-2.25-0.2c-0.667-0.2-0.983-0.45-0.95-0.75c0-0.3,0.283-0.566,0.85-0.8c0.6-0.233,1.333-0.384,2.2-0.45
			c0.833-0.033,1.583,0.033,2.25,0.2C171.783,61.9,172.1,62.15,172.1,62.45z"/>
	</g>
	<g>
		<path style="fill-rule:evenodd;clip-rule:evenodd;fill:#98B3AB;" d="M133.95,65.15c-0.1,0.699-0.95,1.166-2.55,1.399
			c-1.566,0.2-3.3,0.101-5.2-0.3c-3.067-0.6-5.25-1.467-6.55-2.6c-0.7-0.834-0.05-1.584,1.95-2.25c2-0.667,3.95-0.733,5.85-0.2
			c2.033,0.399,3.667,1,4.9,1.8C133.55,63.733,134.083,64.45,133.95,65.15z"/>
	</g>
	<g>
		<path style="fill-rule:evenodd;clip-rule:evenodd;fill:#819DA1;" d="M120.55,57.25c-0.7,1-2.066,1.767-4.1,2.3
			c-1.2,0.367-2.35,0.5-3.45,0.4c-1.067-0.101-1.633-0.384-1.7-0.851c-0.033-0.466,0.3-0.949,1-1.449
			c0.733-0.5,1.75-0.934,3.05-1.301c1.133-0.366,2.35-0.433,3.65-0.199C120.3,56.35,120.817,56.717,120.55,57.25z"/>
	</g>
	<g>
		<path style="fill-rule:evenodd;clip-rule:evenodd;fill:#87ABAE;" d="M172,44.55c0.367,0.867-0.283,1.833-1.95,2.9
			c-1.667,1.066-3.783,1.866-6.35,2.399c-2.567,0.534-4.8,0.7-6.7,0.5c-1.967-0.233-3.117-0.783-3.45-1.649
			c-0.333-0.9,0.333-1.883,2-2.95c1.667-1.067,3.784-1.867,6.35-2.4c2.567-0.5,4.8-0.65,6.7-0.45
			C170.533,43.1,171.667,43.65,172,44.55z"/>
	</g>
	<g>
		<path style="fill-rule:evenodd;clip-rule:evenodd;fill:#87ABAE;" d="M275.95,73.2c0.333-0.134,0.466,0.033,0.4,0.5
			c-0.033,0.434-0.217,0.733-0.55,0.899c-0.533,0.434-1.2,0.801-2,1.101c-1.566,0.533-3.566,0.75-6,0.649
			c-2.267-0.133-4.167-0.533-5.7-1.199c-1.5-0.634-2.233-1.334-2.2-2.101c0.067-0.8,0.917-1.434,2.55-1.899
			c1.6-0.434,3.517-0.584,5.75-0.45c2.133,0.1,3.933,0.416,5.4,0.95C274.8,72.116,275.583,72.634,275.95,73.2z"/>
	</g>
	<g>
		<path style="fill-rule:evenodd;clip-rule:evenodd;fill:#87ABAE;" d="M272.95,64.3c1.1,0.134,1.7,0.45,1.8,0.95
			c0.067,0.5-0.317,1.017-1.15,1.55c-0.833,0.5-1.95,0.917-3.35,1.25c-1.4,0.3-2.667,0.367-3.8,0.2c-0.567-0.1-1.05-0.25-1.45-0.45
			c0,0.134-0.167,0.017-0.5-0.35c-0.267-0.3-0.283-0.467-0.05-0.5c0.2-0.2,0.35-0.2,0.45,0c-0.1-0.3,0.25-0.7,1.05-1.2
			c0.867-0.566,1.95-0.983,3.25-1.25C270.567,64.2,271.817,64.134,272.95,64.3z"/>
	</g>
	<g>
		<path style="fill-rule:evenodd;clip-rule:evenodd;fill:#87ABAE;" d="M281.7,58.35c0.733-0.267,1.399-0.399,2-0.399
			c0.633-0.033,1.017,0.066,1.149,0.3c0.167,0.267,0.034,0.6-0.399,1S283.4,60,282.6,60.3c-0.766,0.267-1.483,0.384-2.149,0.351
			c-0.667-0.034-1.034-0.2-1.1-0.5C279.217,59.55,280,58.95,281.7,58.35z"/>
	</g>
	<g>
		<path style="fill-rule:evenodd;clip-rule:evenodd;fill:#87ABAE;" d="M245.45,76.1c-0.1,0.2-0.633,0.301-1.6,0.301
			c-0.934,0.066-1.467,0-1.6-0.2c-0.1-0.134,0-0.316,0.3-0.55c0.3-0.233,0.717-0.367,1.25-0.4c0.534,0,0.967,0.1,1.3,0.3
			C245.433,75.75,245.55,75.934,245.45,76.1z"/>
	</g>
	<g>
		<path style="fill-rule:evenodd;clip-rule:evenodd;fill:#87ABAE;" d="M86.15,36.05c-0.066,0.633-0.767,1.1-2.1,1.4
			c-1.333,0.333-2.9,0.4-4.7,0.2c-1.8-0.2-3.3-0.617-4.5-1.25c-1.2-0.667-1.717-1.3-1.55-1.9c0.133-0.6,0.867-1.033,2.2-1.3
			c1.267-0.233,2.783-0.25,4.55-0.05c1.733,0.167,3.2,0.533,4.4,1.1C85.65,34.817,86.217,35.417,86.15,36.05z"/>
	</g>
	<g>
		<path style="fill-rule:evenodd;clip-rule:evenodd;fill:#98B3AB;" d="M76.4,45.4c0.367-0.1,0.583,0.083,0.65,0.55
			c0.067,0.466-0.05,0.867-0.35,1.2c-0.5,0.667-1.3,1.3-2.4,1.9c-2.133,1.033-4.8,1.55-8,1.55c-2.933,0.134-5.6-0.433-8-1.699
			c-2.333-1.2-3.083-2.317-2.25-3.351c1.3-1.466,4.717-2.233,10.25-2.3c2.733,0,5.017,0.217,6.85,0.65
			c0.667,0.033,1.283,0.317,1.85,0.85C75.533,45.217,76,45.433,76.4,45.4z"/>
	</g>
	<g>
		<path style="fill-rule:evenodd;clip-rule:evenodd;fill:#87ABAE;" d="M37.1,52.5c-0.333,0.7-1.733,0.967-4.2,0.8
			c-1.1-0.066-2.05-0.283-2.85-0.649c-0.8-0.367-1.117-0.717-0.95-1.051c0.267-0.666,1.667-0.916,4.2-0.75
			c1.1,0.067,2.034,0.267,2.8,0.601C36.9,51.816,37.233,52.167,37.1,52.5z"/>
	</g>
	<g>
		<path style="fill-rule:evenodd;clip-rule:evenodd;fill:#87ABAE;" d="M101.4,52.3c0.033,0.566-0.55,1.017-1.75,1.351
			c-1.2,0.366-2.617,0.483-4.25,0.35c-1.6-0.134-2.933-0.467-4-1c-1.066-0.5-1.566-1.033-1.5-1.6c0.067-0.567,0.7-0.983,1.9-1.25
			c1.133-0.301,2.5-0.367,4.1-0.2c1.567,0.133,2.867,0.416,3.9,0.85C100.867,51.233,101.4,51.733,101.4,52.3z"/>
	</g>
	<g>
		<path style="fill-rule:evenodd;clip-rule:evenodd;fill:#98B3AB;" d="M108.8,40.4c8.733-0.167,13.583,0.917,14.55,3.25
			c0.6,1.4-0.5,2.867-3.3,4.4c-3,1.601-6.617,2.45-10.85,2.55c-4.2,0.2-7.917-0.483-11.15-2.05c-3.066-1.533-4.216-3.017-3.45-4.45
			c0.633-1.167,2.25-2.05,4.85-2.65C101.617,40.95,104.733,40.6,108.8,40.4z"/>
	</g>
	<g>
		<path style="fill-rule:evenodd;clip-rule:evenodd;fill:#819DA1;" d="M119.1,15.2c0.433,0.733-0.217,1.417-1.95,2.05
			c-1.767,0.667-3.667,0.833-5.7,0.5c-2.1-0.267-3.784-0.717-5.05-1.35c-1.267-0.6-1.933-1.267-2-2
			c-0.033-0.733,0.75-1.283,2.35-1.65c1.567-0.367,3.333-0.417,5.3-0.15C116.117,13.167,118.467,14.033,119.1,15.2z"/>
	</g>
	<g>
		<path style="fill-rule:evenodd;clip-rule:evenodd;fill:#87ABAE;" d="M103.55,9.7c-0.033,0.233-0.3,0.367-0.8,0.4
			c-0.5,0-1.033-0.083-1.6-0.25c-0.6-0.167-1.066-0.383-1.4-0.65c-0.367-0.267-0.5-0.5-0.4-0.7c0.066-0.2,0.333-0.317,0.8-0.35
			c0.467,0,0.983,0.083,1.55,0.25C102.933,8.767,103.55,9.2,103.55,9.7z"/>
	</g>
	<g>
		<path style="fill-rule:evenodd;clip-rule:evenodd;fill:#87ABAE;" d="M90.65,69.55c0.3,0.767-0.333,1.55-1.9,2.351
			c-1.6,0.866-3.533,1.366-5.8,1.5c-2.233,0.133-4.184-0.067-5.85-0.601c-1.567-0.533-2.367-1.184-2.4-1.95
			c-0.034-0.767,0.733-1.449,2.3-2.05c1.5-0.566,3.333-0.899,5.5-1c2.2-0.133,4.017-0.066,5.45,0.2
			C89.483,68.3,90.383,68.816,90.65,69.55z"/>
	</g>
	<g>
		<path style="fill-rule:evenodd;clip-rule:evenodd;fill:#819DA1;" d="M328.35,75.35c0.867,0.601,0.483,1.551-1.149,2.851
			c-1.733,1.333-3.733,2.083-6,2.25c-2.3,0.233-4.233,0.2-5.8-0.101c-1.534-0.333-2.467-0.866-2.801-1.6
			c-0.333-0.767,0.317-1.566,1.95-2.4c1.566-0.8,3.434-1.333,5.601-1.6c2.233-0.267,3.949-0.35,5.149-0.25
			C326.6,74.566,327.616,74.85,328.35,75.35z"/>
	</g>
	<g>
		<path style="fill-rule:evenodd;clip-rule:evenodd;fill:#87ABAE;" d="M326.3,93.25c0.2,0.434-0.133,0.9-1,1.4
			c-0.866,0.533-1.934,0.899-3.2,1.1c-1.3,0.2-2.383,0.233-3.25,0.1c-0.833-0.133-1.383-0.399-1.649-0.8
			c-0.267-0.399,0.05-0.883,0.95-1.45c0.899-0.533,1.966-0.899,3.199-1.1c1.301-0.2,2.4-0.233,3.301-0.1
			C325.583,92.533,326.134,92.816,326.3,93.25z"/>
	</g>
	<g>
		<path style="fill-rule:evenodd;clip-rule:evenodd;fill:#87ABAE;" d="M343.95,63.2c0.399,0.7-0.134,1.5-1.601,2.399
			c-1.5,0.9-3.3,1.45-5.399,1.65c-2.134,0.233-3.95,0.167-5.45-0.2c-1.5-0.333-2.35-0.866-2.55-1.6
			c-0.167-0.733,0.483-1.45,1.95-2.15c1.433-0.7,3.166-1.149,5.199-1.35C340.667,61.483,343.283,61.9,343.95,63.2z"/>
	</g>
	<g>
		<path style="fill-rule:evenodd;clip-rule:evenodd;fill:#98B3AB;" d="M401.15,61.3c3.366,1.167,5.083,2.417,5.149,3.75
			c0.033,1.267-1.467,2.283-4.5,3.05c-2.866,0.7-6.5,1.034-10.899,1c-4.467-0.066-8.167-0.433-11.101-1.1
			c-3.267-0.7-5.217-1.667-5.85-2.9c-0.7-1.366,0.434-2.649,3.399-3.85c3.101-1.233,6.967-1.833,11.601-1.8
			C393.583,59.483,397.65,60.1,401.15,61.3z"/>
	</g>
	<g>
		<path style="fill-rule:evenodd;clip-rule:evenodd;fill:#98B3AB;" d="M330.95,34.85c0.2,0.8-0.533,1.566-2.2,2.3
			c-1.533,0.7-3.4,1.184-5.6,1.45c-2.567,0.333-4.267,0.5-5.101,0.5c-1.467,0.033-2.533-0.2-3.2-0.7c-0.866-0.6-0.55-1.6,0.95-3
			c1.634-1.467,3.7-2.35,6.2-2.65c2.434-0.3,4.517-0.217,6.25,0.25C329.85,33.433,330.75,34.05,330.95,34.85z"/>
	</g>
	<g>
		<path style="fill-rule:evenodd;clip-rule:evenodd;fill:#819DA1;" d="M314.55,12.8c0.033,0.5-0.434,0.983-1.399,1.45
			c-0.967,0.467-2.2,0.767-3.7,0.9c-1.467,0.133-2.8-0.033-4-0.5c-1.134-0.433-1.617-0.9-1.45-1.4c0.233-0.967,1.934-1.567,5.1-1.8
			c1.434-0.133,2.684-0.067,3.75,0.2C313.95,11.917,314.517,12.3,314.55,12.8z"/>
	</g>
	<g>
		<path style="fill-rule:evenodd;clip-rule:evenodd;fill:#87ABAE;" d="M327.15,23.5c0.1,0.167-0.051,0.367-0.45,0.6
			c-0.467,0.267-0.983,0.417-1.55,0.45c-1.301,0.1-2.034-0.05-2.2-0.45c-0.101-0.2,0.066-0.417,0.5-0.65
			c0.399-0.2,0.899-0.333,1.5-0.4C326.25,22.95,326.983,23.1,327.15,23.5z"/>
	</g>
	<g>
		<path style="fill-rule:evenodd;clip-rule:evenodd;fill:#87ABAE;" d="M337.8,20.15c0,0.3-0.483,0.483-1.45,0.55
			c-0.833,0.066-1.333-0.017-1.5-0.25c-0.066-0.133,0.034-0.284,0.301-0.45c0.333-0.2,0.716-0.317,1.149-0.35s0.8,0,1.101,0.1
			C337.7,19.85,337.833,19.983,337.8,20.15z"/>
	</g>
	<g>
		<path style="fill-rule:evenodd;clip-rule:evenodd;fill:#87ABAE;" d="M330.35,16.7c0.101,0.466-0.283,0.9-1.149,1.3
			c-0.867,0.433-1.95,0.717-3.25,0.85c-1.267,0.133-2.417,0.066-3.45-0.2c-1-0.267-1.483-0.633-1.45-1.1
			c0.033-0.433,0.467-0.833,1.3-1.2c0.834-0.367,1.884-0.617,3.15-0.75c1.3-0.133,2.417-0.1,3.35,0.1
			C329.783,15.933,330.283,16.267,330.35,16.7z"/>
	</g>
	<g>
		<path style="fill-rule:evenodd;clip-rule:evenodd;fill:#87ABAE;" d="M342.45,32.25c0.066,0.1,0,0.25-0.2,0.45
			c-0.2,0.167-0.483,0.316-0.85,0.45c-0.367,0.1-0.717,0.117-1.051,0.05c-0.333-0.067-0.483-0.167-0.449-0.3
			c0.033-0.2,0.416-0.417,1.149-0.65C341.816,31.983,342.283,31.983,342.45,32.25z"/>
	</g>
	<g>
		<path style="fill-rule:evenodd;clip-rule:evenodd;fill:#87ABAE;" d="M217.15,61.45c0,0.533-0.816,1-2.45,1.399
			c-0.733,0.167-1.367,0.233-1.9,0.2c-0.566-0.066-0.917-0.217-1.05-0.45c-0.1-0.267,0.083-0.566,0.55-0.899
			c0.467-0.334,1.083-0.584,1.85-0.75c0.767-0.167,1.45-0.2,2.05-0.101C216.8,60.983,217.117,61.184,217.15,61.45z"/>
	</g>
	<g>
		<path style="fill-rule:evenodd;clip-rule:evenodd;fill:#98B3AB;" d="M236.25,90.7c0.1,0.8-0.65,1.533-2.25,2.2
			c-1.633,0.733-3.633,1.116-6,1.149c-2.333,0.033-4.367-0.3-6.1-1c-1.633-0.7-2.367-1.45-2.2-2.25c0.133-0.767,1-1.383,2.6-1.85
			c1.5-0.434,3.367-0.667,5.6-0.7c2.233-0.066,4.133,0.134,5.7,0.6C235.233,89.316,236.117,89.934,236.25,90.7z"/>
	</g>
	<g>
		<path style="fill-rule:evenodd;clip-rule:evenodd;fill:#87ABAE;" d="M310.95,64.4c0.2,0.1,0.166,0.35-0.101,0.75
			c-0.3,0.399-0.716,0.716-1.25,0.949c-0.533,0.2-1.033,0.301-1.5,0.301c-0.433,0-0.699-0.084-0.8-0.25
			c-0.2-0.4,0.316-0.867,1.55-1.4C309.884,64.316,310.583,64.2,310.95,64.4z"/>
	</g>
	<g>
		<path style="fill-rule:evenodd;clip-rule:evenodd;fill:#98B3AB;" d="M348.55,55.9c-0.133,1.1-2.083,2.033-5.85,2.8
			c-1.7,0.333-3.25,0.399-4.65,0.2c-1.434-0.233-2.184-0.667-2.25-1.301c-0.066-0.6,0.434-1.216,1.5-1.85
			c1.101-0.667,2.533-1.167,4.3-1.5c1.801-0.366,3.45-0.333,4.95,0.1C347.983,54.717,348.65,55.233,348.55,55.9z"/>
	</g>
	<g>
		<path style="fill-rule:evenodd;clip-rule:evenodd;fill:#87ABAE;" d="M354.8,57.95c0.167,0.366-0.083,0.767-0.75,1.2
			c-0.633,0.466-1.467,0.816-2.5,1.05c-1,0.267-1.883,0.366-2.649,0.3s-1.233-0.283-1.4-0.65c-0.167-0.333,0.083-0.716,0.75-1.149
			c0.667-0.467,1.483-0.816,2.45-1.05c1.033-0.267,1.934-0.367,2.7-0.301C354.167,57.417,354.634,57.616,354.8,57.95z"/>
	</g>
	<g>
		<path style="fill-rule:evenodd;clip-rule:evenodd;fill:#87ABAE;" d="M236.65,30.5c0.133,0.433-0.533,1.05-2,1.85
			c-1.433,0.767-2.383,1-2.85,0.7c-0.267-0.167-0.233-0.5,0.1-1c0.333-0.566,0.85-1.033,1.55-1.4c0.667-0.367,1.367-0.55,2.1-0.55
			C236.217,30.1,236.583,30.233,236.65,30.5z"/>
	</g>
	<g>
		<path style="fill-rule:evenodd;clip-rule:evenodd;fill:#819DA1;" d="M100.5,36c0.067,0.433-0.317,0.817-1.15,1.15
			c-0.867,0.367-1.917,0.55-3.15,0.55c-1.267-0.034-2.35-0.3-3.25-0.8c-0.833-0.5-1.15-0.95-0.95-1.35
			c0.367-0.633,1.783-0.917,4.25-0.85c1.133,0,2.1,0.117,2.9,0.35C100.017,35.283,100.467,35.6,100.5,36z"/>
	</g>
	<g>
		<path style="fill-rule:evenodd;clip-rule:evenodd;fill:#87ABAE;" d="M37.4,85c1.3-0.066,2.434,0.066,3.4,0.4
			c0.967,0.333,1.417,0.733,1.35,1.199c-0.033,0.434-0.483,0.817-1.35,1.15c-0.833,0.267-1.883,0.434-3.15,0.5S35.3,88.233,34.4,88
			c-0.933-0.267-1.433-0.616-1.5-1.05c-0.033-0.467,0.383-0.884,1.25-1.25C35.017,85.3,36.1,85.066,37.4,85z"/>
	</g>
	<g>
		<path style="fill-rule:evenodd;clip-rule:evenodd;fill:#87ABAE;" d="M61.85,74c0.033,0.2-0.15,0.384-0.55,0.55
			c-0.4,0.2-0.883,0.316-1.45,0.351c-0.567,0.066-1.067,0.033-1.5-0.101c-0.434-0.1-0.667-0.25-0.7-0.45
			c-0.033-0.199,0.15-0.383,0.55-0.55c0.4-0.166,0.9-0.283,1.5-0.35c0.566-0.033,1.066,0,1.5,0.1C61.6,73.65,61.817,73.8,61.85,74z"
			/>
	</g>
	<g>
		<path style="fill-rule:evenodd;clip-rule:evenodd;fill:#87ABAE;" d="M127.6,84.5c-0.067,0.333-0.45,0.583-1.15,0.75
			c-0.667,0.167-1.483,0.2-2.45,0.1c-0.967-0.1-1.767-0.3-2.4-0.6c-0.633-0.333-0.917-0.667-0.85-1s0.45-0.566,1.15-0.7
			c0.667-0.166,1.483-0.2,2.45-0.1c0.933,0.1,1.717,0.3,2.35,0.6C127.367,83.85,127.667,84.167,127.6,84.5z"/>
	</g>
	<g>
		<path style="fill-rule:evenodd;clip-rule:evenodd;fill:#98B3AB;" d="M140.4,82.7c0,0.5-0.517,0.916-1.55,1.25
			c-1.067,0.366-2.317,0.517-3.75,0.45c-1.434-0.034-2.633-0.233-3.6-0.601c-1-0.366-1.517-0.816-1.55-1.35
			c0-0.5,0.517-0.917,1.55-1.25c1.067-0.334,2.317-0.483,3.75-0.45c1.433,0.066,2.65,0.267,3.65,0.6
			C139.867,81.717,140.367,82.167,140.4,82.7z"/>
	</g>
	<g>
		<path style="fill-rule:evenodd;clip-rule:evenodd;fill:#87ABAE;" d="M143.7,89.6c0.033,0.767-0.767,1.4-2.4,1.9
			c-1.633,0.533-3.533,0.733-5.7,0.6c-2.2-0.133-4.05-0.517-5.55-1.149c-1.466-0.634-2.183-1.334-2.15-2.101
			c0.067-0.767,0.883-1.366,2.45-1.8c1.6-0.467,3.483-0.633,5.65-0.5c2.167,0.134,3.983,0.483,5.45,1.05
			C142.917,88.167,143.667,88.833,143.7,89.6z"/>
	</g>
	<g>
		<path style="fill-rule:evenodd;clip-rule:evenodd;fill:#87ABAE;" d="M144.6,37.45c0.167,1-1.283,1.917-4.35,2.75
			c-1.333,0.367-2.55,0.517-3.65,0.45c-1.067-0.1-1.684-0.383-1.85-0.85c-0.133-0.5,0.2-1.033,1-1.6c0.8-0.567,1.883-1.034,3.25-1.4
			c1.4-0.367,2.667-0.466,3.8-0.3C143.933,36.633,144.533,36.95,144.6,37.45z"/>
	</g>
	<g>
		<path style="fill-rule:evenodd;clip-rule:evenodd;fill:#87ABAE;" d="M173.5,38.65c0.167,0.3-0.033,0.667-0.6,1.1
			c-0.6,0.467-1.35,0.8-2.25,1c-0.933,0.233-1.783,0.283-2.55,0.15c-0.733-0.133-1.117-0.367-1.15-0.7
			c-0.034-0.3,0.233-0.617,0.8-0.95c0.533-0.333,1.25-0.6,2.15-0.8C171.967,37.95,173.167,38.017,173.5,38.65z"/>
	</g>
	<g>
		<path style="fill-rule:evenodd;clip-rule:evenodd;fill:#87ABAE;" d="M241.05,56.6c0.067,0.4-0.283,0.784-1.05,1.15
			c-0.733,0.4-1.683,0.667-2.85,0.8c-1.133,0.167-2.133,0.15-3-0.05s-1.333-0.5-1.4-0.9c-0.033-0.399,0.317-0.783,1.05-1.149
			c0.767-0.367,1.717-0.634,2.85-0.8c1.133-0.134,2.15-0.117,3.05,0.05C240.567,55.9,241.017,56.2,241.05,56.6z"/>
	</g>
	<g>
		<path style="fill-rule:evenodd;clip-rule:evenodd;fill:#87ABAE;" d="M264.3,58.35c0.4,0.534,0.034,1.184-1.1,1.95
			c-1.233,0.834-2.75,1.283-4.55,1.351c-1.767,0.066-3.25-0.101-4.45-0.5c-1.133-0.4-1.733-0.9-1.8-1.5
			c-0.033-0.567,0.55-1.067,1.75-1.5c1.167-0.434,2.55-0.684,4.15-0.75c1.767-0.067,3.05-0.051,3.85,0.05
			C263.25,57.583,263.967,57.884,264.3,58.35z"/>
	</g>
</g>
</svg>
