<?xml version="1.0" encoding="iso-8859-1"?>
<!-- Generator: Adobe Illustrator 15.1.0, SVG Export Plug-In . SVG Version: 6.00 Build 0)  -->
<!DOCTYPE svg PUBLIC "-//W3C//DTD SVG 1.1//EN" "http://www.w3.org/Graphics/SVG/1.1/DTD/svg11.dtd">
<svg version="1.1" id="Layer_1" xmlns="http://www.w3.org/2000/svg" xmlns:xlink="http://www.w3.org/1999/xlink" x="0px" y="0px"
	 width="1263.1px" height="302.45px" viewBox="0 0 1263.1 302.45" style="enable-background:new 0 0 1263.1 302.45;"
	 xml:space="preserve">
<symbol  id="FlashAICB_x5F_1_x2F_Layer_1_x2F__x3C_Path_x3E_" viewBox="0 -15.65 136.75 15.65">
	<g id="Layer_1_9_">
		<path style="fill-rule:evenodd;clip-rule:evenodd;fill:#04295B;" d="M107.7-12.45C90.6-10.283,54.7-6.15,0-0.05
			C3.367,0.117,11.517-0.133,24.45-0.8c14.533-0.767,28.966-1.767,43.3-3c40.233-3.5,63.233-7.45,69-11.85
			C134.517-15.65,124.833-14.583,107.7-12.45z"/>
	</g>
</symbol>
<symbol  id="FlashAICB_x5F_1_x2F_Layer_1_x2F__x3C_Path_x3E__x5F_1" viewBox="0 -21.154 137.85 21.154">
	<g id="Layer_1_8_">
		<path style="fill-rule:evenodd;clip-rule:evenodd;fill:#04295B;" d="M41.3-15.65c-10.867-1.7-18.483-3.133-22.85-4.3
			c-4.2-1.133-8.534-1.466-13-1c-2.233,0.2-4.05,0.534-5.45,1c2.233,1.633,9.383,3.633,21.45,6c12,2.4,25.683,4.534,41.05,6.4
			c20.467,2.5,45.583,5.017,75.35,7.55c-32-5.767-54.317-9.533-66.95-11.3C56.567-13.333,46.7-14.783,41.3-15.65z"/>
	</g>
</symbol>
<symbol  id="FlashAICB_x5F_1_x2F_Layer_1_x2F__x3C_Path_x3E__x5F_2" viewBox="0 -19.1 178.55 19.095">
	<g id="Layer_1_7_">
		<path style="fill-rule:evenodd;clip-rule:evenodd;fill:#04295B;" d="M178.55-19.1c-24.533,2.167-41.833,3.434-51.9,3.8
			c-4.6,0.167-16.667,2.05-36.2,5.65C71.083-6.083,58.05-4.2,51.35-4c-7.9,0.233-18.833-0.233-32.8-1.4C11.583-6,5.4-6.617,0-7.25
			C4.333-4.883,12.767-2.967,25.3-1.5c12.1,1.4,22.633,1.817,31.6,1.25c4.667-0.3,17.617-2.317,38.85-6.05
			c19.867-3.5,33.517-5.25,40.95-5.25c8.367,0,17.85-1.267,28.45-3.8C170.45-16.583,174.917-17.833,178.55-19.1z"/>
	</g>
</symbol>
<symbol  id="FlashAICB_x5F_1_x2F_Layer_1_x2F__x3C_Path_x3E__x5F_3" viewBox="0 -4.02 126.1 4.035">
	<g id="Layer_1_6_">
		<path style="fill-rule:evenodd;clip-rule:evenodd;fill:#04295B;" d="M111.15-3.95C98.05-4.117,83.7-3.983,68.1-3.55
			C43.167-2.817,20.467-2.1,0-1.4c14.7,0.7,30.983,1.15,48.85,1.35c35.7,0.367,61.45-0.8,77.25-3.5
			C122.667-3.717,117.683-3.85,111.15-3.95z"/>
	</g>
</symbol>
<symbol  id="FlashAICB_x5F_1_x2F_Layer_1_x2F__x3C_Path_x3E__x5F_4" viewBox="0.337 -24.889 149.663 24.767">
	<g id="Layer_1_5_">
		<path style="fill-rule:evenodd;clip-rule:evenodd;fill:#04295B;" d="M138-12c-9.133,2.6-18.583,4.233-28.35,4.9
			c-11.367,0.767-18.3,0.934-20.8,0.5c-1.967-0.3-6.55-2.267-13.75-5.9c-7.767-3.9-17.283-6.9-28.55-9
			c-13.3-2.5-28.533-3.617-45.7-3.35c-1.4,0,0.066,0.233,4.4,0.7c7.567,0.8,13.967,1.566,19.2,2.3c21.5,2.967,35.4,6.633,41.7,11
			c5.867,4.033,9.033,6.2,9.5,6.5c2.733,1.733,5.2,2.9,7.4,3.5c4.167,1.2,11.733,0.917,22.7-0.85c13.5-2.2,24.5-4.533,33-7
			c10-2.933,13.333-5.267,10-7C146.15-14.533,142.567-13.3,138-12z"/>
	</g>
</symbol>
<symbol  id="FlashAICB_x5F_1_x2F_Layer_1_x2F__x3C_Path_x3E__x5F_5" viewBox="0.126 -49.6 355.224 49.604">
	<g id="Layer_1_4_">
		<path style="fill-rule:evenodd;clip-rule:evenodd;fill:#04295B;" d="M324.1-6.55c-22.6,1.566-39.383,2.183-50.35,1.85
			c-20.333-0.6-37.95-3.733-52.85-9.4c-6.7-2.566-14.25-5.7-22.65-9.4c-11.6-5.167-17.917-7.967-18.95-8.4
			c-13.767-5.8-27.066-9.567-39.9-11.3c-17.066-2.3-29.6-3.75-37.6-4.35c-10.3-0.767-26.033-1.284-47.2-1.55
			c-27.767-0.333-42.783-0.5-45.05-0.5C2.017-49.533-1-49.017,0.5-48.05c3.2,2.066,14.517,2.983,33.95,2.75
			c25.4-0.3,44.2,0.233,56.4,1.6c26.3,2.9,42.367,4.917,48.2,6.05c14.4,2.767,28.65,7.75,42.75,14.95
			c16.767,8.5,34.217,14.6,52.35,18.3c19.9,4.066,40.967,5.316,63.2,3.75c19.3-1.367,34.75-2.75,46.35-4.15
			c5.833-0.733,9.716-1.317,11.65-1.75c-0.1-0.367-1.467-0.633-4.1-0.8C345.95-7.717,336.9-7.45,324.1-6.55z"/>
	</g>
</symbol>
<symbol  id="FlashAICB_x5F_1_x2F_Layer_1_x2F__x3C_Path_x3E__x5F_6" viewBox="0 -21 418.5 20.986">
	<g id="Layer_1_3_">
		<path style="fill-rule:evenodd;clip-rule:evenodd;fill:#04295B;" d="M417.975-19.175c0.186-0.058,0.361-0.116,0.525-0.175h-0.6
			C417.931-19.291,417.956-19.232,417.975-19.175z M345.4-11.85c-3.433,0.1-32.5,0.75-87.2,1.95
			c-32.167,0.733-53.133,1.533-62.9,2.4c-9.066,0.8-20.55,0.217-34.45-1.75c-17.7-2.5-30.583-3.9-38.65-4.2
			C102.1-14.15,61.367-16.667,0-21c6.5,2.1,19.65,3.883,39.45,5.35c33.466,2.433,54.167,4.066,62.1,4.9
			c15.633,1.6,36.6,4.25,62.9,7.95c23.3,2.633,46.233,3.4,68.8,2.3c9.1-0.467,26.683-1.267,52.75-2.4
			c25.033-1.2,45.833-2.4,62.4-3.6c48.358-3.492,71.55-7.717,69.575-12.675c-2.802,0.919-7.694,1.911-14.675,2.975
			C388.4-13.967,369.1-12.517,345.4-11.85z"/>
	</g>
</symbol>
<symbol  id="FlashAICB_x5F_1_x2F_Layer_1_x2F__x3C_Path_x3E__x5F_7" viewBox="0 -42.5 603.152 42.518">
	<g id="Layer_1_2_">
		<path style="fill-rule:evenodd;clip-rule:evenodd;fill:#04295B;" d="M580.15-24.55c-15.633,1.133-26.183,1.617-31.65,1.45
			c-18.633-0.6-32.717-0.867-42.25-0.8c-23.267,0.167-44.9,1.517-64.9,4.05c-3.434,0.434-10.317,1.667-20.65,3.7
			c-13.233,2.6-23.284,4.483-30.15,5.65c-28.6,4.967-52.583,7.233-71.95,6.8c-28.967-0.667-49.1-2.983-60.4-6.95
			c-5.367-2.3-9.45-4-12.25-5.1c-4.967-2-10.684-3.55-17.15-4.65c-36.2-6.133-76.566-10.267-121.1-12.4
			c-27.767-1.3-47.917-2.45-60.45-3.45c-23.6-1.833-36.367-3.917-38.3-6.25L0-40.35c2.467,2.4,17,4.833,43.6,7.3
			c16.4,1.5,42.233,3.383,77.5,5.65c24,1.5,47.167,4.283,69.5,8.35c19.733,3.566,38.033,7.966,54.9,13.2
			c14.433,4.467,38.617,6.383,72.55,5.75c29.1-0.533,58.3-2.633,87.6-6.3c17.133-2.167,36.383-5.033,57.75-8.6
			c17.333-2.533,35.467-3.8,54.4-3.8c21.4,0,41.967-0.883,61.7-2.65c18.066-1.6,25.783-2.867,23.15-3.8
			C601.117-25.783,593.617-25.55,580.15-24.55z"/>
	</g>
</symbol>
<g>
	
		<radialGradient id="SVGID_1_" cx="631.5645" cy="151.2168" r="460.1329" gradientTransform="matrix(1 0 0 -0.965 0 297.1385)" gradientUnits="userSpaceOnUse">
		<stop  offset="0" style="stop-color:#0A263C"/>
		<stop  offset="0.0627" style="stop-color:#0D293F"/>
		<stop  offset="0.3098" style="stop-color:#142F44"/>
		<stop  offset="1" style="stop-color:#153146"/>
	</radialGradient>
	<path style="fill-rule:evenodd;clip-rule:evenodd;fill:url(#SVGID_1_);" d="M1153.6,103.75c6,0.433,13.467,0.967,22.4,1.6
		c16.867,2.5,29.983,4.983,39.35,7.45c11.867,3.133,21.617,7.117,29.25,11.95c6.167,3.9,9.317,10.75,9.45,20.55
		c0.033,2.934-0.217,7.217-0.75,12.851c-0.6,5.833-0.899,9.949-0.899,12.35c0,5.767,1.433,14.634,4.3,26.6
		c3.333,13.967,5.3,23.584,5.899,28.851c1.233,10.566,0.283,19.116-2.85,25.649c-3.833,7.967-11.184,13.65-22.05,17.051
		c-18.267,5.699-39.017,9.183-62.25,10.449c-17.733,1-38.833,0.733-63.3-0.8c-12.434-0.8-23.65-0.684-33.65,0.351
		c-10.333,1.033-21.3,3.233-32.9,6.6c-18,5.2-35.199,8.7-51.6,10.5c-17.267,1.9-34.866,2.05-52.8,0.45
		c-31.4-2.9-54.967-5.066-70.7-6.5c-28.167-2.601-51.767-4.5-70.8-5.7c-24.334-1.533-49.45-1.017-75.351,1.55
		c-10.666,1.066-29.366,3.867-56.1,8.4c-23.5,3.967-42.267,6.35-56.3,7.149c-20.1,1.134-41.784,1.551-65.05,1.25
		c-18.966-0.233-40.65-0.983-65.05-2.25c-5.967-0.3-31.3-2.033-76-5.199c-30.733-2.2-56.1-3.301-76.1-3.301
		c-9.467,0-21.1,0.15-34.9,0.45c-15.467,0.4-27.083,0.667-34.85,0.8c-21.033,0.4-38.267,0.384-51.7-0.05
		c-18.5-0.6-35.683-2.033-51.55-4.3c-12.2-1.733-31.6-6.033-58.2-12.9c-24.833-6.366-44.25-10.316-58.25-11.85
		c-13.966-1.5-23.4-3.4-28.3-5.7c-8.7-4.133-12.667-11.416-11.9-21.85c0.433-6.101,1.9-15.617,4.4-28.55
		c2.4-12.5,3.783-22.084,4.15-28.75c0.833-15.101,3.434-26.384,7.8-33.851c5.4-9.233,14.8-15.816,28.2-19.75
		c6.934-2.033,18.9-5.133,35.9-9.3c3.671-0.906,6.779-1.673,9.325-2.3c0.657-0.183,1.366-0.383,2.125-0.6
		c13.733-3.9,20.55-5.767,20.45-5.6c-0.467-17.733-0.583-29.217-0.35-34.45c0.333-7.767,1.566-15.667,3.7-23.7
		c0.867-3.233,2.133-5.767,3.8-7.6c1.7-1.833,4.617-3.867,8.75-6.1c12.367-6.7,29-11.816,49.9-15.35
		c12.667-2.133,30.067-4.017,52.2-5.65c41.133-3.1,82.667-4.217,124.6-3.35c23.1,0.467,51.034,1.583,83.8,3.35
		c9.267,0.333,17.867,0.117,25.8-0.65c1.967-0.2,8.783-1.133,20.45-2.8c18.833-2.667,41.367-3.4,67.6-2.2
		c20.433,0.933,48.783,3.05,85.05,6.35c22.767,2.066,36.267,2.367,40.5,0.9c12.366-4.267,29.934-7.933,52.7-11
		C767.884,0.283,808.9-1.167,854,0.9c49.6,2.267,94.6,6.55,135,12.85c36.3,5.633,59.934,11.317,70.9,17.05
		c8.366,4.367,13.949,10.65,16.75,18.85c1.399,4.1,1.967,7.767,1.699,11c13,3.1,24.518,7.117,34.551,12.05
		c4.732,2.367,7.949,4.15,9.649,5.35c3.467,2.434,5.667,5.167,6.601,8.2c0.732,2.367,1.883,5.35,3.449,8.95
		c1.367,3.167,2.2,4.933,2.5,5.3C1136.066,101.8,1142.233,102.883,1153.6,103.75z"/>
	<g>
		<g>
			
				<radialGradient id="SVGID_2_" cx="581.6499" cy="153.5498" r="524.15" gradientTransform="matrix(1 0 0 -0.3649 0 209.5765)" gradientUnits="userSpaceOnUse">
				<stop  offset="0" style="stop-color:#6171B7"/>
				<stop  offset="0" style="stop-color:#18B4BC"/>
				<stop  offset="0.0196" style="stop-color:#17AFB8"/>
				<stop  offset="0.2549" style="stop-color:#0F7F92"/>
				<stop  offset="0.4745" style="stop-color:#085A74"/>
				<stop  offset="0.6784" style="stop-color:#053F5E"/>
				<stop  offset="0.8627" style="stop-color:#032F51"/>
				<stop  offset="1" style="stop-color:#03294C"/>
			</radialGradient>
			<path style="fill-rule:evenodd;clip-rule:evenodd;fill:url(#SVGID_2_);" d="M919.3,61.5c-1.366,1.3-2.55,2.317-3.55,3.05
				c-9.1-6.1-34.767-11.8-77-17.1c-36.033-4.534-71.116-7.4-105.25-8.6c-24.934-0.867-52.8-2.483-83.6-4.85
				c-33.867-2.567-58.167-4.183-72.9-4.85c-19.3-0.867-39-0.733-59.1,0.4c-26.367,1.467-50.483,4.567-72.35,9.3
				c-26.066,6.2-44.433,10.483-55.1,12.85c-17.5,3.833-38.184,7.1-62.05,9.8c-18.467,2.067-34.867,4.917-49.2,8.55
				c-15.267,3.9-25.534,8.05-30.8,12.45c-5.767-6.2,0.233-12.417,18-18.65c16.033-5.6,37.25-9.883,63.65-12.85
				c23.9-2.7,44.583-5.967,62.05-9.8c10.667-2.367,29.05-6.65,55.15-12.85c21.867-4.733,45.967-7.833,72.3-9.3
				c20.134-1.133,39.833-1.267,59.1-0.4c14.733,0.667,39.034,2.283,72.9,4.85c30.8,2.367,58.667,3.983,83.601,4.85
				c42.8,1.533,84.066,5.233,123.8,11.1C906.717,46.517,926.833,53.867,919.3,61.5z"/>
			
				<radialGradient id="SVGID_3_" cx="582.0752" cy="153.5498" r="523.4608" gradientTransform="matrix(1 0 0 -0.3649 0 209.5764)" gradientUnits="userSpaceOnUse">
				<stop  offset="0" style="stop-color:#6171B7"/>
				<stop  offset="0" style="stop-color:#18B4BC"/>
				<stop  offset="0.1294" style="stop-color:#149EAB"/>
				<stop  offset="0.3882" style="stop-color:#0E798E"/>
				<stop  offset="0.6275" style="stop-color:#095E79"/>
				<stop  offset="0.8392" style="stop-color:#074E6D"/>
				<stop  offset="1" style="stop-color:#064868"/>
			</radialGradient>
			<path style="fill-rule:evenodd;clip-rule:evenodd;fill:url(#SVGID_3_);" d="M915.75,64.55c-4.233,3.2-10.083,6.117-17.55,8.75
				c-5.2,1.867-12.767,4.067-22.7,6.6c-12.566,3.233-20.866,5.434-24.9,6.6c-9.466,2.8-17.533,5.767-24.199,8.9
				c-13.4,6.3-35.267,10.333-65.601,12.1c-6,0.367-21.2,1.033-45.6,2c-21.334,0.833-39.5,1.783-54.5,2.85
				c-17.634,1.267-35.55,1.5-53.75,0.7c-12.167-0.566-27.55-1.8-46.15-3.7c-20.966-2.2-35.267-3.55-42.9-4.05
				c-15.8-1.033-30.417-1.1-43.85-0.2c-33.9,2.233-71.733,2.1-113.5-0.4c-46.533-2.8-79.566-7.784-99.1-14.95
				c-6.333-2.333-10.684-4.75-13.05-7.25c5.267-4.4,15.533-8.55,30.8-12.45c14.333-3.633,30.733-6.483,49.2-8.55
				c23.867-2.7,44.55-5.967,62.05-9.8c10.667-2.367,29.033-6.65,55.1-12.85c21.867-4.733,45.983-7.833,72.35-9.3
				c20.1-1.133,39.8-1.267,59.1-0.4c14.733,0.667,39.033,2.283,72.9,4.85c30.8,2.367,58.666,3.983,83.6,4.85
				c34.134,1.2,69.217,4.066,105.25,8.6C880.983,52.75,906.65,58.45,915.75,64.55z"/>
			
				<radialGradient id="SVGID_4_" cx="580.5498" cy="126.3501" r="458.775" gradientTransform="matrix(1 0 0 -0.329 0 167.916)" gradientUnits="userSpaceOnUse">
				<stop  offset="0" style="stop-color:#6171B7"/>
				<stop  offset="0" style="stop-color:#18B4BC"/>
				<stop  offset="0.1294" style="stop-color:#149EAB"/>
				<stop  offset="0.3882" style="stop-color:#0E798E"/>
				<stop  offset="0.6275" style="stop-color:#095E79"/>
				<stop  offset="0.8392" style="stop-color:#074E6D"/>
				<stop  offset="1" style="stop-color:#064868"/>
			</radialGradient>
			<path style="fill-rule:evenodd;clip-rule:evenodd;fill:url(#SVGID_4_);" d="M915.75,64.55c-4.233,3.2-10.083,6.117-17.55,8.75
				c-5.2,1.867-12.767,4.067-22.7,6.6c-12.566,3.233-20.866,5.434-24.9,6.6c-9.466,2.8-17.533,5.767-24.199,8.9
				c-13.4,6.3-35.267,10.333-65.601,12.1c-6,0.367-21.2,1.033-45.6,2c-21.334,0.833-39.5,1.783-54.5,2.85
				c-17.634,1.267-35.55,1.5-53.75,0.7c-12.167-0.566-27.55-1.8-46.15-3.7c-20.966-2.2-35.267-3.55-42.9-4.05
				c-15.8-1.033-30.417-1.1-43.85-0.2c-33.9,2.233-71.733,2.1-113.5-0.4c-46.533-2.8-79.566-7.784-99.1-14.95
				c-6.333-2.333-10.684-4.75-13.05-7.25c5.267-4.4,15.533-8.55,30.8-12.45c14.333-3.633,30.733-6.483,49.2-8.55
				c23.867-2.7,44.55-5.967,62.05-9.8c10.667-2.367,29.033-6.65,55.1-12.85c21.867-4.733,45.983-7.833,72.35-9.3
				c20.1-1.133,39.8-1.267,59.1-0.4c14.733,0.667,39.033,2.283,72.9,4.85c30.8,2.367,58.666,3.983,83.6,4.85
				c34.134,1.2,69.217,4.066,105.25,8.6C880.983,52.75,906.65,58.45,915.75,64.55z"/>
		</g>
		<g>
			
				<radialGradient id="SVGID_5_" cx="282.2354" cy="87.7998" r="239.8219" gradientTransform="matrix(1 0 0 -0.3649 0 119.8368)" gradientUnits="userSpaceOnUse">
				<stop  offset="0" style="stop-color:#6171B7"/>
				<stop  offset="0" style="stop-color:#18B4BC"/>
				<stop  offset="0.0196" style="stop-color:#17AFB8"/>
				<stop  offset="0.2549" style="stop-color:#0F7F92"/>
				<stop  offset="0.4745" style="stop-color:#085A74"/>
				<stop  offset="0.6784" style="stop-color:#053F5E"/>
				<stop  offset="0.8627" style="stop-color:#032F51"/>
				<stop  offset="1" style="stop-color:#03294C"/>
			</radialGradient>
			<path style="fill-rule:evenodd;clip-rule:evenodd;fill:url(#SVGID_5_);" d="M435.35,21.9c-4.567,0.434-12.033,1.783-22.4,4.05
				c-5.7,1.267-11.967,2.533-18.8,3.8c-22.033-0.867-44.417-1.183-67.15-0.95c-23.667,0.233-46.233,1.067-67.7,2.5
				c-36.3,2.4-63.283,4.95-80.95,7.65c-25.533,3.867-41.133,9.033-46.8,15.5c-2.566-2.367-3.1-5.017-1.6-7.95
				c3.767-7.233,18.733-12.983,44.9-17.25c18.066-2.933,46.217-5.667,84.45-8.2c28.667-1.9,58.833-2.75,90.5-2.55
				C380.333,18.7,408.85,19.833,435.35,21.9z"/>
			
				<radialGradient id="SVGID_6_" cx="282.25" cy="87.3501" r="239.5625" gradientTransform="matrix(1 0 0 -0.3649 0 119.2227)" gradientUnits="userSpaceOnUse">
				<stop  offset="0" style="stop-color:#6171B7"/>
				<stop  offset="0" style="stop-color:#18B4BC"/>
				<stop  offset="0.1294" style="stop-color:#149EAB"/>
				<stop  offset="0.3882" style="stop-color:#0E798E"/>
				<stop  offset="0.6275" style="stop-color:#095E79"/>
				<stop  offset="0.8392" style="stop-color:#074E6D"/>
				<stop  offset="1" style="stop-color:#064868"/>
			</radialGradient>
			<path style="fill-rule:evenodd;clip-rule:evenodd;fill:url(#SVGID_6_);" d="M435.35,21.9c1.3-0.133,1.883-0.15,1.75-0.05
				c-0.167,0.1-0.684,0.117-1.55,0.05H435.35z"/>
			
				<radialGradient id="SVGID_7_" cx="282.25" cy="98.4502" r="240.075" gradientTransform="matrix(1 0 0 -0.3649 0 134.3733)" gradientUnits="userSpaceOnUse">
				<stop  offset="0" style="stop-color:#6171B7"/>
				<stop  offset="0" style="stop-color:#18B4BC"/>
				<stop  offset="0.1294" style="stop-color:#149EAB"/>
				<stop  offset="0.3882" style="stop-color:#0E798E"/>
				<stop  offset="0.6275" style="stop-color:#095E79"/>
				<stop  offset="0.8392" style="stop-color:#074E6D"/>
				<stop  offset="1" style="stop-color:#064868"/>
			</radialGradient>
			<path style="fill-rule:evenodd;clip-rule:evenodd;fill:url(#SVGID_7_);" d="M435.35,32.1c1.3-0.1,1.883-0.1,1.75,0
				c-0.167,0.1-0.684,0.117-1.55,0.05L435.35,32.1z"/>
			
				<radialGradient id="SVGID_8_" cx="282.25" cy="87.7998" r="239.8125" gradientTransform="matrix(1 0 0 -0.3649 0 119.8352)" gradientUnits="userSpaceOnUse">
				<stop  offset="0" style="stop-color:#6171B7"/>
				<stop  offset="0" style="stop-color:#18B4BC"/>
				<stop  offset="0.1294" style="stop-color:#149EAB"/>
				<stop  offset="0.3882" style="stop-color:#0E798E"/>
				<stop  offset="0.6275" style="stop-color:#095E79"/>
				<stop  offset="0.8392" style="stop-color:#074E6D"/>
				<stop  offset="1" style="stop-color:#064868"/>
			</radialGradient>
			<path style="fill-rule:evenodd;clip-rule:evenodd;fill:url(#SVGID_8_);" d="M394.15,29.75c-8.367,1.567-18.083,3.133-29.15,4.7
				c-15,2.033-27.767,3.767-38.3,5.2C286.267,45.283,255.033,53.9,233,65.5c-1.7,0.9-7.2,1.467-16.5,1.7
				c-9.733,0.267-20.083,0.05-31.05-0.65c-29.333-1.833-47.3-5.867-53.9-12.1c5.667-6.467,21.267-11.633,46.8-15.5
				c17.667-2.7,44.65-5.25,80.95-7.65c21.467-1.433,44.034-2.267,67.7-2.5C349.733,28.567,372.117,28.883,394.15,29.75z"/>
			
				<radialGradient id="SVGID_9_" cx="282.25" cy="98" r="239.8125" gradientTransform="matrix(1 0 0 -0.3649 0 133.7571)" gradientUnits="userSpaceOnUse">
				<stop  offset="0" style="stop-color:#6171B7"/>
				<stop  offset="0" style="stop-color:#18B4BC"/>
				<stop  offset="0.1294" style="stop-color:#149EAB"/>
				<stop  offset="0.3882" style="stop-color:#0E798E"/>
				<stop  offset="0.6275" style="stop-color:#095E79"/>
				<stop  offset="0.8392" style="stop-color:#074E6D"/>
				<stop  offset="1" style="stop-color:#064868"/>
			</radialGradient>
			<path style="fill-rule:evenodd;clip-rule:evenodd;fill:url(#SVGID_9_);" d="M394.15,29.75c-8.367,1.567-18.083,3.133-29.15,4.7
				c-15,2.033-27.767,3.767-38.3,5.2C286.267,45.283,255.033,53.9,233,65.5c-1.7,0.9-7.2,1.467-16.5,1.7
				c-9.733,0.267-20.083,0.05-31.05-0.65c-29.333-1.833-47.3-5.867-53.9-12.1c5.667-6.467,21.267-11.633,46.8-15.5
				c17.667-2.7,44.65-5.25,80.95-7.65c21.467-1.433,44.034-2.267,67.7-2.5C349.733,28.567,372.117,28.883,394.15,29.75z"/>
		</g>
		<g>
			
				<radialGradient id="SVGID_10_" cx="573.0498" cy="213.4004" r="181.15" gradientTransform="matrix(1 0 0 -0.2514 0 267.0597)" gradientUnits="userSpaceOnUse">
				<stop  offset="0" style="stop-color:#6171B7"/>
				<stop  offset="0" style="stop-color:#18B4BC"/>
				<stop  offset="0.0196" style="stop-color:#17AFB8"/>
				<stop  offset="0.2549" style="stop-color:#0F7F92"/>
				<stop  offset="0.4745" style="stop-color:#085A74"/>
				<stop  offset="0.6784" style="stop-color:#053F5E"/>
				<stop  offset="0.8627" style="stop-color:#032F51"/>
				<stop  offset="1" style="stop-color:#03294C"/>
			</radialGradient>
			<path style="fill-rule:evenodd;clip-rule:evenodd;fill:url(#SVGID_10_);" d="M689.15,185.05c1.767,0.367,1.767,1.033,0,2
				c-1.834,0.967-5.217,2.084-10.15,3.351c-17.033-2.634-36.25-5.317-57.65-8.051c-10.067-1.267-18.4-2.066-25-2.399
				c-7.4-0.4-15.534-0.4-24.4,0c-28.167,1.2-58.3,1.467-90.4,0.8c-9.933-0.233-16.883,0.2-20.85,1.3c-3.8-2.467-4.733-4.399-2.8-5.8
				c2.633-1.934,10.517-2.767,23.65-2.5c32.1,0.667,62.233,0.4,90.4-0.8c8.866-0.4,17-0.4,24.4,0c6.6,0.333,14.933,1.133,25,2.399
				c10.3,1.301,22.95,3.017,37.95,5.15C675.2,182.767,685.15,184.283,689.15,185.05z"/>
			
				<radialGradient id="SVGID_11_" cx="573.0498" cy="213.4004" r="181.15" gradientTransform="matrix(1 0 0 -0.3493 0 287.9403)" gradientUnits="userSpaceOnUse">
				<stop  offset="0" style="stop-color:#6171B7"/>
				<stop  offset="0" style="stop-color:#18B4BC"/>
				<stop  offset="0.1294" style="stop-color:#149EAB"/>
				<stop  offset="0.3882" style="stop-color:#0E798E"/>
				<stop  offset="0.6275" style="stop-color:#095E79"/>
				<stop  offset="0.8392" style="stop-color:#074E6D"/>
				<stop  offset="1" style="stop-color:#064868"/>
			</radialGradient>
			<path style="fill-rule:evenodd;clip-rule:evenodd;fill:url(#SVGID_11_);" d="M679,190.4c-7.7,1.933-17.4,3.733-29.1,5.399
				c-13.834,1.967-28.934,3.5-45.3,4.601c-28.367,1.866-56.267,1.033-83.7-2.5c-23.867-3.101-42-7.384-54.4-12.851
				c-2.333-1.033-4.267-2.033-5.8-3c3.966-1.1,10.917-1.533,20.85-1.3c32.1,0.667,62.233,0.4,90.4-0.8c8.866-0.4,17-0.4,24.4,0
				c6.6,0.333,14.933,1.133,25,2.399C642.75,185.083,661.967,187.767,679,190.4z"/>
			
				<radialGradient id="SVGID_12_" cx="564.25" cy="211.9004" r="131.1625" gradientTransform="matrix(1 0 0 -0.3493 0 285.9131)" gradientUnits="userSpaceOnUse">
				<stop  offset="0" style="stop-color:#6171B7"/>
				<stop  offset="0" style="stop-color:#18B4BC"/>
				<stop  offset="0.1294" style="stop-color:#149EAB"/>
				<stop  offset="0.3882" style="stop-color:#0E798E"/>
				<stop  offset="0.6275" style="stop-color:#095E79"/>
				<stop  offset="0.8392" style="stop-color:#074E6D"/>
				<stop  offset="1" style="stop-color:#064868"/>
			</radialGradient>
			<path style="fill-rule:evenodd;clip-rule:evenodd;fill:url(#SVGID_12_);" d="M679,190.4c-7.7,1.933-17.4,3.733-29.1,5.399
				c-13.834,1.967-28.934,3.5-45.3,4.601c-28.367,1.866-56.267,1.033-83.7-2.5c-23.867-3.101-42-7.384-54.4-12.851
				c-2.333-1.033-4.267-2.033-5.8-3c3.966-1.1,10.917-1.533,20.85-1.3c32.1,0.667,62.233,0.4,90.4-0.8c8.866-0.4,17-0.4,24.4,0
				c6.6,0.333,14.933,1.133,25,2.399C642.75,185.083,661.967,187.767,679,190.4z"/>
		</g>
		<g>
			
				<radialGradient id="SVGID_13_" cx="913" cy="207.7998" r="417.4875" gradientTransform="matrix(1 0 0 -0.3649 0 283.6241)" gradientUnits="userSpaceOnUse">
				<stop  offset="0" style="stop-color:#6171B7"/>
				<stop  offset="0" style="stop-color:#18B4BC"/>
				<stop  offset="0.0196" style="stop-color:#17AFB8"/>
				<stop  offset="0.2549" style="stop-color:#0F7F92"/>
				<stop  offset="0.4745" style="stop-color:#085A74"/>
				<stop  offset="0.6784" style="stop-color:#053F5E"/>
				<stop  offset="0.8627" style="stop-color:#032F51"/>
				<stop  offset="1" style="stop-color:#03294C"/>
			</radialGradient>
			<path style="fill-rule:evenodd;clip-rule:evenodd;fill:url(#SVGID_13_);" d="M1103.75,78.4c10.6,5.467,12.55,10.9,5.85,16.3
				c-2.866-3.767-9.383-7.333-19.55-10.7c-10.2-3.367-23.217-6.25-39.05-8.65c-23.4-3.533-45.65-4.817-66.75-3.85
				c-13.767,0.633-26.4,2.183-37.9,4.65c-1.3,0.267-3.383,1.217-6.25,2.85c-3.833,2.267-7.066,4.117-9.699,5.55
				c-10.567,5.733-21.983,10.2-34.25,13.4c-11.934,3.133-24.034,6.867-36.301,11.2c-16,5.7-26.216,9.233-30.649,10.6
				c-9.967,3.1-22.25,5.167-36.851,6.2c-17.833,0.733-31.783,1.367-41.85,1.9c-1.8,0.1-14.55,0.55-38.25,1.35
				c-14.434,0.5-27.634,1.4-39.6,2.7c-10.167,1.067-20.467,3.017-30.9,5.85c-14.533,3.933-24.15,6.367-28.85,7.3
				c-14.533-0.867-23.716-1.133-27.55-0.8c-4.233,0.4-6.534,0.4-6.9,0c-0.333-0.367,0.983-1.033,3.95-2
				c6.534-2.067,16.45-4.35,29.75-6.85c6.4-1.2,16.667-3.733,30.8-7.6c10.967-3,21.616-5.05,31.95-6.15
				c11.899-1.267,25.083-2.15,39.55-2.65c22.733-0.767,35.5-1.233,38.3-1.4c10.033-0.533,23.983-1.167,41.85-1.9
				c14.601-1.034,26.867-3.083,36.801-6.15c4.133-1.3,14.35-4.833,30.649-10.6c12.2-4.333,24.316-8.067,36.351-11.2
				c12.267-3.2,23.683-7.667,34.25-13.4c2.6-1.434,5.816-3.283,9.649-5.55c2.867-1.633,4.967-2.6,6.3-2.9
				c11.534-2.433,24.15-3.967,37.851-4.6c21.133-0.966,43.383,0.3,66.75,3.8C1076.5,68.6,1093.35,73.033,1103.75,78.4z"/>
			
				<radialGradient id="SVGID_14_" cx="844.4004" cy="194.9004" r="417.4875" gradientTransform="matrix(1 0 0 -0.3649 0 266.0178)" gradientUnits="userSpaceOnUse">
				<stop  offset="0" style="stop-color:#6171B7"/>
				<stop  offset="0" style="stop-color:#18B4BC"/>
				<stop  offset="0.1294" style="stop-color:#149EAB"/>
				<stop  offset="0.3882" style="stop-color:#0E798E"/>
				<stop  offset="0.6275" style="stop-color:#095E79"/>
				<stop  offset="0.8392" style="stop-color:#074E6D"/>
				<stop  offset="1" style="stop-color:#064868"/>
			</radialGradient>
			<path style="fill-rule:evenodd;clip-rule:evenodd;fill:url(#SVGID_14_);" d="M1090.05,84c10.167,3.367,16.684,6.933,19.55,10.7
				c-2.133,1.733-5.3,3.45-9.5,5.15c-13,5.233-33.8,11-62.399,17.3c-33.134,7.3-58.934,13.917-77.4,19.85
				c-26.166,8.433-57.033,13.917-92.6,16.45c-25.867,1.866-58.601,2.3-98.2,1.3c-19.6-0.467-46.917-1.934-81.95-4.4
				c-36.733-2.733-61.616-4.5-74.65-5.3c4.7-0.933,14.317-3.367,28.85-7.3c10.434-2.833,20.733-4.783,30.9-5.85
				c11.966-1.3,25.166-2.2,39.6-2.7c23.7-0.8,36.45-1.25,38.25-1.35c10.066-0.533,24.017-1.167,41.85-1.9
				c14.601-1.034,26.884-3.1,36.851-6.2c4.434-1.367,14.649-4.9,30.649-10.6c12.267-4.333,24.367-8.066,36.301-11.2
				c12.267-3.2,23.683-7.667,34.25-13.4c2.633-1.433,5.866-3.283,9.699-5.55c2.867-1.633,4.95-2.583,6.25-2.85
				c11.5-2.467,24.134-4.017,37.9-4.65c21.1-0.967,43.35,0.317,66.75,3.85C1066.833,77.75,1079.85,80.633,1090.05,84z"/>
			
				<radialGradient id="SVGID_15_" cx="842.1504" cy="205.1504" r="417.4875" gradientTransform="matrix(1 0 0 -0.3649 0 280.0079)" gradientUnits="userSpaceOnUse">
				<stop  offset="0" style="stop-color:#6171B7"/>
				<stop  offset="0" style="stop-color:#18B4BC"/>
				<stop  offset="0.1294" style="stop-color:#149EAB"/>
				<stop  offset="0.3882" style="stop-color:#0E798E"/>
				<stop  offset="0.6275" style="stop-color:#095E79"/>
				<stop  offset="0.8392" style="stop-color:#074E6D"/>
				<stop  offset="1" style="stop-color:#064868"/>
			</radialGradient>
			<path style="fill-rule:evenodd;clip-rule:evenodd;fill:url(#SVGID_15_);" d="M1090.05,84c10.167,3.367,16.684,6.933,19.55,10.7
				c-2.133,1.733-5.3,3.45-9.5,5.15c-13,5.233-33.8,11-62.399,17.3c-33.134,7.3-58.934,13.917-77.4,19.85
				c-26.166,8.433-57.033,13.917-92.6,16.45c-25.867,1.866-58.601,2.3-98.2,1.3c-19.6-0.467-46.917-1.934-81.95-4.4
				c-36.733-2.733-61.616-4.5-74.65-5.3c4.7-0.933,14.317-3.367,28.85-7.3c10.434-2.833,20.733-4.783,30.9-5.85
				c11.966-1.3,25.166-2.2,39.6-2.7c23.7-0.8,36.45-1.25,38.25-1.35c10.066-0.533,24.017-1.167,41.85-1.9
				c14.601-1.034,26.884-3.1,36.851-6.2c4.434-1.367,14.649-4.9,30.649-10.6c12.267-4.333,24.367-8.066,36.301-11.2
				c12.267-3.2,23.683-7.667,34.25-13.4c2.633-1.433,5.866-3.283,9.699-5.55c2.867-1.633,4.95-2.583,6.25-2.85
				c11.5-2.467,24.134-4.017,37.9-4.65c21.1-0.967,43.35,0.317,66.75,3.85C1066.833,77.75,1079.85,80.633,1090.05,84z"/>
		</g>
		<g>
			
				<radialGradient id="SVGID_16_" cx="875.1504" cy="66.0498" r="278.2" gradientTransform="matrix(1 0 0 -0.3649 0 90.1507)" gradientUnits="userSpaceOnUse">
				<stop  offset="0" style="stop-color:#6171B7"/>
				<stop  offset="0" style="stop-color:#18B4BC"/>
				<stop  offset="0.0196" style="stop-color:#17AFB8"/>
				<stop  offset="0.2549" style="stop-color:#0F7F92"/>
				<stop  offset="0.4745" style="stop-color:#085A74"/>
				<stop  offset="0.6784" style="stop-color:#053F5E"/>
				<stop  offset="0.8627" style="stop-color:#032F51"/>
				<stop  offset="1" style="stop-color:#03294C"/>
			</radialGradient>
			<path style="fill-rule:evenodd;clip-rule:evenodd;fill:url(#SVGID_16_);" d="M1051.6,45.7c-1.232-0.934-2.833-1.867-4.8-2.8
				c-11.533-5.367-29.25-10-53.149-13.9c-28.534-4.7-68.851-8.95-120.95-12.75c-16.3-1.167-39.283-1.1-68.95,0.2
				c-23.8,1.033-48,2.65-72.6,4.85c-13.667-0.466-24.884-1.066-33.65-1.8c-3.167-0.267,1.667-1.117,14.5-2.55
				c13.267-1.467,29.283-2.883,48.05-4.25c51.5-3.767,89.8-4.733,114.9-2.9c52.033,3.767,92.35,8,120.95,12.7
				c23.833,3.933,41.55,8.583,53.149,13.95c4.101,1.9,6.283,3.667,6.55,5.3C1055.867,43.25,1054.533,44.567,1051.6,45.7z"/>
			
				<radialGradient id="SVGID_17_" cx="875.1504" cy="66.0693" r="278.2029" gradientTransform="matrix(1 0 0 -0.3649 0 90.1774)" gradientUnits="userSpaceOnUse">
				<stop  offset="0" style="stop-color:#6171B7"/>
				<stop  offset="0" style="stop-color:#18B4BC"/>
				<stop  offset="0.1294" style="stop-color:#149EAB"/>
				<stop  offset="0.3882" style="stop-color:#0E798E"/>
				<stop  offset="0.6275" style="stop-color:#095E79"/>
				<stop  offset="0.8392" style="stop-color:#074E6D"/>
				<stop  offset="1" style="stop-color:#064868"/>
			</radialGradient>
			<path style="fill-rule:evenodd;clip-rule:evenodd;fill:url(#SVGID_17_);" d="M1046.8,42.9c1.967,0.934,3.567,1.867,4.8,2.8
				c-4.033,1.6-10.383,2.65-19.05,3.15c-8.533,0.533-17.55,0.433-27.05-0.3c-9.333-0.7-23.934-0.9-43.8-0.6
				c-15.8,0.233-26.867-0.367-33.2-1.8c-15.9-3.9-29.983-7.167-42.25-9.8c-22.866-4.9-43.65-8.367-62.35-10.4
				c-13.467-1.467-29.233-2.55-47.301-3.25c-20.466-0.6-35.616-1.067-45.449-1.4c24.6-2.2,48.8-3.816,72.6-4.85
				c29.667-1.3,52.65-1.367,68.95-0.2c52.1,3.8,92.416,8.05,120.95,12.75C1017.55,32.9,1035.267,37.533,1046.8,42.9z"/>
			
				<radialGradient id="SVGID_18_" cx="872.9502" cy="72.5" r="278.2" gradientTransform="matrix(1 0 0 -0.3649 0 98.9546)" gradientUnits="userSpaceOnUse">
				<stop  offset="0" style="stop-color:#6171B7"/>
				<stop  offset="0" style="stop-color:#18B4BC"/>
				<stop  offset="0.1294" style="stop-color:#149EAB"/>
				<stop  offset="0.3882" style="stop-color:#0E798E"/>
				<stop  offset="0.6275" style="stop-color:#095E79"/>
				<stop  offset="0.8392" style="stop-color:#074E6D"/>
				<stop  offset="1" style="stop-color:#064868"/>
			</radialGradient>
			<path style="fill-rule:evenodd;clip-rule:evenodd;fill:url(#SVGID_18_);" d="M1046.8,42.9c1.967,0.934,3.567,1.867,4.8,2.8
				c-4.033,1.6-10.383,2.65-19.05,3.15c-8.533,0.533-17.55,0.433-27.05-0.3c-9.333-0.7-23.934-0.9-43.8-0.6
				c-15.8,0.233-26.867-0.367-33.2-1.8c-15.9-3.9-29.983-7.167-42.25-9.8c-22.866-4.9-43.65-8.367-62.35-10.4
				c-13.467-1.467-29.233-2.55-47.301-3.25c-20.466-0.6-35.616-1.067-45.449-1.4c24.6-2.2,48.8-3.816,72.6-4.85
				c29.667-1.3,52.65-1.367,68.95-0.2c52.1,3.8,92.416,8.05,120.95,12.75C1017.55,32.9,1035.267,37.533,1046.8,42.9z"/>
		</g>
	</g>
	<g>
		
			<radialGradient id="SVGID_19_" cx="1108.7998" cy="188.6504" r="204.1" gradientTransform="matrix(1 0 0 -0.3649 0 257.4879)" gradientUnits="userSpaceOnUse">
			<stop  offset="0" style="stop-color:#6171B7"/>
			<stop  offset="0" style="stop-color:#18B4BC"/>
			<stop  offset="0.0196" style="stop-color:#17AFB8"/>
			<stop  offset="0.2549" style="stop-color:#0F7F92"/>
			<stop  offset="0.4745" style="stop-color:#085A74"/>
			<stop  offset="0.6784" style="stop-color:#053F5E"/>
			<stop  offset="0.8627" style="stop-color:#032F51"/>
			<stop  offset="1" style="stop-color:#03294C"/>
		</radialGradient>
		<path style="fill-rule:evenodd;clip-rule:evenodd;fill:url(#SVGID_19_);" d="M1135.2,111.85c0.033-0.434-0.134-1.7-0.5-3.8
			l32.649,3.65c24.334,3.233,43.018,6.867,56.051,10.9c6.566,2.033,11.133,4.316,13.699,6.85c2.5,2.4,3.067,4.917,1.7,7.55
			c-2.399-2.733-7.167-5.2-14.3-7.4c-13-4.033-31.684-7.667-56.05-10.9l-32.65-3.65c0.367,2.133,0.55,3.4,0.55,3.8
			c-0.033,2.066-0.75,4.066-2.149,6c-4.101,5.633-13.983,10.633-29.65,15c-13.167,3.667-30.483,7.367-51.95,11.1
			c-20.633,3.566-34.183,6.316-40.649,8.25c-5.434,1.633-9.783,3-13.05,4.1L979.55,163l7.45-3c6.8-2.5,14.733-5.1,23.8-7.8
			c6.5-1.934,20.05-4.684,40.65-8.25c21.467-3.733,38.8-7.434,52-11.1c15.633-4.367,25.517-9.367,29.649-15
			C1134.467,115.917,1135.167,113.917,1135.2,111.85z"/>
		
			<radialGradient id="SVGID_20_" cx="1108.7998" cy="188.6504" r="204.1" gradientTransform="matrix(1 0 0 -0.3649 0 257.4879)" gradientUnits="userSpaceOnUse">
			<stop  offset="0" style="stop-color:#6171B7"/>
			<stop  offset="0" style="stop-color:#18B4BC"/>
			<stop  offset="0.1294" style="stop-color:#149EAB"/>
			<stop  offset="0.3882" style="stop-color:#0E798E"/>
			<stop  offset="0.6275" style="stop-color:#095E79"/>
			<stop  offset="0.8392" style="stop-color:#074E6D"/>
			<stop  offset="1" style="stop-color:#064868"/>
		</radialGradient>
		<path style="fill-rule:evenodd;clip-rule:evenodd;fill:url(#SVGID_20_);" d="M1134.2,124.85c1.399-1.934,2.116-3.934,2.149-6
			c0-0.4-0.183-1.667-0.55-3.8l32.65,3.65c24.366,3.233,43.05,6.867,56.05,10.9c7.133,2.2,11.9,4.667,14.3,7.4
			c-1.8,3.467-6.683,6.85-14.649,10.15c-8.134,3.333-18.7,6.267-31.7,8.8c-16.733,3.233-41.417,5.7-74.05,7.399
			c-28.533,1.467-51.184,1.884-67.95,1.25c-14.134-0.533-31.316-0.966-51.55-1.3c3.267-1.1,7.616-2.467,13.05-4.1
			c6.467-1.934,20.017-4.684,40.649-8.25c21.467-3.733,38.783-7.434,51.95-11.1C1120.217,135.483,1130.1,130.483,1134.2,124.85z"/>
		
			<radialGradient id="SVGID_21_" cx="1192.7998" cy="173.8496" r="204.1" gradientTransform="matrix(1 0 0 -0.3649 0 237.2864)" gradientUnits="userSpaceOnUse">
			<stop  offset="0" style="stop-color:#6171B7"/>
			<stop  offset="0" style="stop-color:#18B4BC"/>
			<stop  offset="0.1294" style="stop-color:#149EAB"/>
			<stop  offset="0.3882" style="stop-color:#0E798E"/>
			<stop  offset="0.6275" style="stop-color:#095E79"/>
			<stop  offset="0.8392" style="stop-color:#074E6D"/>
			<stop  offset="1" style="stop-color:#064868"/>
		</radialGradient>
		<path style="fill-rule:evenodd;clip-rule:evenodd;fill:url(#SVGID_21_);" d="M1134.2,124.85c1.399-1.934,2.116-3.934,2.149-6
			c0-0.4-0.183-1.667-0.55-3.8l32.65,3.65c24.366,3.233,43.05,6.867,56.05,10.9c7.133,2.2,11.9,4.667,14.3,7.4
			c-1.8,3.467-6.683,6.85-14.649,10.15c-8.134,3.333-18.7,6.267-31.7,8.8c-16.733,3.233-41.417,5.7-74.05,7.399
			c-28.533,1.467-51.184,1.884-67.95,1.25c-14.134-0.533-31.316-0.966-51.55-1.3c3.267-1.1,7.616-2.467,13.05-4.1
			c6.467-1.934,20.017-4.684,40.649-8.25c21.467-3.733,38.783-7.434,51.95-11.1C1120.217,135.483,1130.1,130.483,1134.2,124.85z"/>
	</g>
	<g>
		
			<radialGradient id="SVGID_22_" cx="161.4502" cy="195.9502" r="239.4" gradientTransform="matrix(1 0 0 -0.3649 0 267.4467)" gradientUnits="userSpaceOnUse">
			<stop  offset="0" style="stop-color:#6171B7"/>
			<stop  offset="0" style="stop-color:#18B4BC"/>
			<stop  offset="0.0196" style="stop-color:#17AFB8"/>
			<stop  offset="0.2549" style="stop-color:#0F7F92"/>
			<stop  offset="0.4745" style="stop-color:#085A74"/>
			<stop  offset="0.6784" style="stop-color:#053F5E"/>
			<stop  offset="0.8627" style="stop-color:#032F51"/>
			<stop  offset="1" style="stop-color:#03294C"/>
		</radialGradient>
		<path style="fill-rule:evenodd;clip-rule:evenodd;fill:url(#SVGID_22_);" d="M187.55,129.75c15.067,2.3,32.167,4.85,51.3,7.65
			c3.9,0.833,17.467,4.783,40.7,11.85c25.133,6.934,46.434,11.066,63.9,12.4c-7.667,0.733-19.583,1.5-35.75,2.3
			c-12.534-2.634-27.117-6.417-43.75-11.351c-16.367-4.866-25.117-7.417-26.25-7.649c-19.1-2.833-36.184-5.4-51.25-7.7
			c-29.267-4.433-45.934-7.8-50-10.1c-3.9-0.667-9.45-0.9-16.65-0.7c-14.367,0.433-29.75,2.833-46.15,7.2
			c-18.3,4.867-30.133,9.05-35.5,12.55c-3.933-2.6-2.816-5.55,3.35-8.85c5.867-3.133,16.967-6.883,33.3-11.25
			c16.367-4.367,31.733-6.75,46.1-7.15c7.2-0.2,12.75,0.033,16.65,0.7C141.617,121.95,158.283,125.317,187.55,129.75z"/>
		
			<radialGradient id="SVGID_23_" cx="188.75" cy="185.7002" r="239.4125" gradientTransform="matrix(1 0 0 -0.3649 0 253.4629)" gradientUnits="userSpaceOnUse">
			<stop  offset="0" style="stop-color:#6171B7"/>
			<stop  offset="0" style="stop-color:#18B4BC"/>
			<stop  offset="0.1294" style="stop-color:#149EAB"/>
			<stop  offset="0.3882" style="stop-color:#0E798E"/>
			<stop  offset="0.6275" style="stop-color:#095E79"/>
			<stop  offset="0.8392" style="stop-color:#074E6D"/>
			<stop  offset="1" style="stop-color:#064868"/>
		</radialGradient>
		<path style="fill-rule:evenodd;clip-rule:evenodd;fill:url(#SVGID_23_);" d="M186.45,137.25c15.066,2.3,32.15,4.867,51.25,7.7
			c1.133,0.233,9.883,2.783,26.25,7.649c16.633,4.934,31.216,8.717,43.75,11.351c-13.067,0.666-27.65,1.233-43.75,1.7
			c-26.733,0.8-59.684,0.033-98.85-2.301c-38.267-2.267-69.767-5.267-94.5-9c-17.267-2.533-28.083-5.25-32.45-8.149
			c5.367-3.5,17.2-7.684,35.5-12.55c16.4-4.367,31.783-6.767,46.15-7.2c7.2-0.2,12.75,0.033,16.65,0.7
			C140.517,129.45,157.183,132.817,186.45,137.25z"/>
		
			<radialGradient id="SVGID_24_" cx="173.8501" cy="165.3496" r="195.1125" gradientTransform="matrix(1 0 0 -0.3649 0 225.678)" gradientUnits="userSpaceOnUse">
			<stop  offset="0" style="stop-color:#6171B7"/>
			<stop  offset="0" style="stop-color:#18B4BC"/>
			<stop  offset="0.1294" style="stop-color:#149EAB"/>
			<stop  offset="0.3882" style="stop-color:#0E798E"/>
			<stop  offset="0.6275" style="stop-color:#095E79"/>
			<stop  offset="0.8392" style="stop-color:#074E6D"/>
			<stop  offset="1" style="stop-color:#064868"/>
		</radialGradient>
		<path style="fill-rule:evenodd;clip-rule:evenodd;fill:url(#SVGID_24_);" d="M186.45,137.25c15.066,2.3,32.15,4.867,51.25,7.7
			c1.133,0.233,9.883,2.783,26.25,7.649c16.633,4.934,31.216,8.717,43.75,11.351c-13.067,0.666-27.65,1.233-43.75,1.7
			c-26.733,0.8-59.684,0.033-98.85-2.301c-38.267-2.267-69.767-5.267-94.5-9c-17.267-2.533-28.083-5.25-32.45-8.149
			c5.367-3.5,17.2-7.684,35.5-12.55c16.4-4.367,31.783-6.767,46.15-7.2c7.2-0.2,12.75,0.033,16.65,0.7
			C140.517,129.45,157.183,132.817,186.45,137.25z"/>
	</g>
	<linearGradient id="SVGID_25_" gradientUnits="userSpaceOnUse" x1="527.7998" y1="181.5908" x2="634.9502" y2="181.5908">
		<stop  offset="0" style="stop-color:#3FA8A9"/>
		<stop  offset="0.1647" style="stop-color:#3AA1A7"/>
		<stop  offset="0.6196" style="stop-color:#2F93A2"/>
		<stop  offset="1" style="stop-color:#2C8EA1"/>
	</linearGradient>
	<path style="fill-rule:evenodd;clip-rule:evenodd;fill:url(#SVGID_25_);" d="M527.8,181.2c1.733-0.167,7.2-0.434,16.4-0.8
		c4.966-0.2,11.783-0.467,20.45-0.801c12.267-0.5,24.6-0.3,37,0.601c10.9,0.8,22,2.017,33.3,3.649
		c-6.134-0.666-12.75-1.316-19.85-1.949c-14.167-1.301-23.6-1.867-28.3-1.7c-4.7,0.166-15.95,0.383-33.75,0.649L527.8,181.2z"/>
	<linearGradient id="SVGID_26_" gradientUnits="userSpaceOnUse" x1="698.9873" y1="116.25" x2="878.5123" y2="116.25">
		<stop  offset="0" style="stop-color:#3FA8A9"/>
		<stop  offset="0.1647" style="stop-color:#3AA1A7"/>
		<stop  offset="0.6196" style="stop-color:#2F93A2"/>
		<stop  offset="1" style="stop-color:#2C8EA1"/>
	</linearGradient>
	<path style="fill-rule:evenodd;clip-rule:evenodd;fill:url(#SVGID_26_);" d="M810.7,125.1c-4.967,0.6-14.917,1.3-29.851,2.1
		c-14.733,0.8-26.816,1.3-36.25,1.5l-40.399,0.7c5.5-0.233,11.8-0.5,18.899-0.8c14.567-0.667,25.917-1.3,34.051-1.9
		c6.366-0.467,16.767-0.983,31.199-1.55c12.767-0.633,22.167-1.6,28.2-2.9c6.3-1.333,11.934-2.767,16.9-4.3
		c2.899-0.934,7.316-2.383,13.25-4.35c6.833-2.167,17.434-5.667,31.8-10.5c-14.366,5.233-25.033,9.2-32,11.9
		c-5.866,2.267-11.884,4.3-18.05,6.1C821.283,123.2,815.366,124.533,810.7,125.1z"/>
	<linearGradient id="SVGID_27_" gradientUnits="userSpaceOnUse" x1="987.8252" y1="75.7554" x2="1079.3752" y2="75.7554">
		<stop  offset="0" style="stop-color:#3FA8A9"/>
		<stop  offset="0.1647" style="stop-color:#3AA1A7"/>
		<stop  offset="0.6196" style="stop-color:#2F93A2"/>
		<stop  offset="1" style="stop-color:#2C8EA1"/>
	</linearGradient>
	<path style="fill-rule:evenodd;clip-rule:evenodd;fill:url(#SVGID_27_);" d="M1068.9,78.85c-5.967-1.267-16.384-2.684-31.25-4.25
		c-18.467-1.967-34.9-3.05-49.301-3.25c-4.133-0.033-2.333-0.167,5.4-0.4c6.6-0.167,13.767-0.1,21.5,0.2
		c24.867,0.967,46.25,4.133,64.15,9.5C1078.133,80.65,1074.633,80.05,1068.9,78.85z"/>
	<linearGradient id="SVGID_28_" gradientUnits="userSpaceOnUse" x1="1025.4922" y1="142.8594" x2="1127.2998" y2="142.8594">
		<stop  offset="0" style="stop-color:#3FA8A9"/>
		<stop  offset="0.1647" style="stop-color:#3AA1A7"/>
		<stop  offset="0.6196" style="stop-color:#2F93A2"/>
		<stop  offset="1" style="stop-color:#2C8EA1"/>
	</linearGradient>
	<path style="fill-rule:evenodd;clip-rule:evenodd;fill:url(#SVGID_28_);" d="M1030.125,154.55
		c-4.492,0.829-5.718,1.028-3.675,0.601C1027.127,155.013,1028.352,154.813,1030.125,154.55c5.996-1.1,17.805-3.316,35.425-6.65
		c13-2.3,23.05-4.316,30.15-6.05c14.399-3.5,24.933-7.333,31.6-11.5c-1.6,1.467-4.533,3.217-8.8,5.25
		c-8.566,4.033-19.517,7.4-32.85,10.1c-12.834,2.6-25.967,4.833-39.4,6.7C1038.884,153.34,1033.509,154.057,1030.125,154.55z"/>
	<linearGradient id="SVGID_29_" gradientUnits="userSpaceOnUse" x1="1156.7998" y1="122.75" x2="1221.4502" y2="122.75">
		<stop  offset="0" style="stop-color:#3FA8A9"/>
		<stop  offset="0.1647" style="stop-color:#3AA1A7"/>
		<stop  offset="0.6196" style="stop-color:#2F93A2"/>
		<stop  offset="1" style="stop-color:#2C8EA1"/>
	</linearGradient>
	<path style="fill-rule:evenodd;clip-rule:evenodd;fill:url(#SVGID_29_);" d="M1156.8,117l21.9,2.6
		c16.899,2.4,31.149,5.367,42.75,8.9c-17-3.367-30.5-5.883-40.5-7.55C1171.483,119.483,1163.434,118.167,1156.8,117z"/>
	<linearGradient id="SVGID_30_" gradientUnits="userSpaceOnUse" x1="309.3999" y1="46.9502" x2="511.9502" y2="46.9502">
		<stop  offset="0" style="stop-color:#3FA8A9"/>
		<stop  offset="0.1647" style="stop-color:#3AA1A7"/>
		<stop  offset="0.6196" style="stop-color:#2F93A2"/>
		<stop  offset="1" style="stop-color:#2C8EA1"/>
	</linearGradient>
	<path style="fill-rule:evenodd;clip-rule:evenodd;fill:url(#SVGID_30_);" d="M511.95,30c-8.7,0.767-18.1,1.717-28.2,2.85
		c-20.2,2.3-33.85,4.4-40.95,6.3c-10.767,3.267-19.4,5.8-25.9,7.6c-11.7,3.233-24.65,5.9-38.85,8c-14.3,2.133-30.033,4.3-47.2,6.5
		L309.4,63.9c1.6-0.267,10.967-1.683,28.1-4.25c18.8-2.9,33.617-5.333,44.45-7.3c8.033-1.467,21.4-4.567,40.1-9.3
		c17.1-4.333,30.05-7.167,38.85-8.5c10.367-1.566,21.983-2.8,34.85-3.7C502.183,30.417,507.583,30.133,511.95,30z"/>
	<linearGradient id="SVGID_31_" gradientUnits="userSpaceOnUse" x1="609.8999" y1="38.7251" x2="836.1504" y2="38.7251">
		<stop  offset="0" style="stop-color:#3FA8A9"/>
		<stop  offset="0.1647" style="stop-color:#3AA1A7"/>
		<stop  offset="0.6196" style="stop-color:#2F93A2"/>
		<stop  offset="1" style="stop-color:#2C8EA1"/>
	</linearGradient>
	<path style="fill-rule:evenodd;clip-rule:evenodd;fill:url(#SVGID_31_);" d="M653.65,34.1l-43.75-3.6h1.1
		c0.333,0,13.2,0.9,38.6,2.7c28.601,2.033,50.801,3.466,66.601,4.3c20.666,1.1,43.2,2.6,67.6,4.5c25.233,2,42.684,3.65,52.351,4.95
		c-55.034-3.967-93.25-6.567-114.65-7.8C708.134,38.35,685.517,36.667,653.65,34.1z"/>
	<linearGradient id="SVGID_32_" gradientUnits="userSpaceOnUse" x1="825.2998" y1="22.8501" x2="1000.4998" y2="22.8501">
		<stop  offset="0" style="stop-color:#3FA8A9"/>
		<stop  offset="0.1647" style="stop-color:#3AA1A7"/>
		<stop  offset="0.6196" style="stop-color:#2F93A2"/>
		<stop  offset="1" style="stop-color:#2C8EA1"/>
	</linearGradient>
	<path style="fill-rule:evenodd;clip-rule:evenodd;fill:url(#SVGID_32_);" d="M841.55,15.7c13.667,0.133,27.55,0.533,41.65,1.2
		c45.166,2.1,84.267,6.467,117.3,13.1c-14.4-2.333-32.517-4.683-54.35-7.05c-39.64-4.273-76.54-6.682-110.7-7.225L841.55,15.7z"/>
	<linearGradient id="SVGID_33_" gradientUnits="userSpaceOnUse" x1="175.25" y1="33.5625" x2="327.2998" y2="33.5625">
		<stop  offset="0" style="stop-color:#3FA8A9"/>
		<stop  offset="0.1647" style="stop-color:#3AA1A7"/>
		<stop  offset="0.6196" style="stop-color:#2F93A2"/>
		<stop  offset="1" style="stop-color:#2C8EA1"/>
	</linearGradient>
	<path style="fill-rule:evenodd;clip-rule:evenodd;fill:url(#SVGID_33_);" d="M230.15,31.65c34.5-3.233,66.883-4.333,97.15-3.3
		c-17.267,0.4-36.55,1.15-57.85,2.25c-42.6,2.233-74,5.083-94.2,8.55C185.517,36.617,203.817,34.117,230.15,31.65z"/>
	<linearGradient id="SVGID_34_" gradientUnits="userSpaceOnUse" x1="68.1626" y1="130.6729" x2="169.9376" y2="130.6729">
		<stop  offset="0" style="stop-color:#3FA8A9"/>
		<stop  offset="0.1647" style="stop-color:#3AA1A7"/>
		<stop  offset="0.6196" style="stop-color:#2F93A2"/>
		<stop  offset="1" style="stop-color:#2C8EA1"/>
	</linearGradient>
	<path style="fill-rule:evenodd;clip-rule:evenodd;fill:url(#SVGID_34_);" d="M136.7,128c-3.767-0.667-9.417-0.883-16.95-0.65
		c-15.1,0.5-32.133,3.05-51.1,7.65c3.6-1.067,9.05-2.383,16.35-3.95c15.067-3.233,26.35-4.8,33.85-4.7l18.15,0.3l8.85,2.9
		c7.566,2.2,15.6,3.917,24.1,5.15c-3.1-0.034-6.817-0.35-11.15-0.95C150.133,132.617,142.767,130.7,136.7,128z"/>
	<linearGradient id="SVGID_35_" gradientUnits="userSpaceOnUse" x1="223.5" y1="146.9502" x2="261.1499" y2="146.9502">
		<stop  offset="0" style="stop-color:#3FA8A9"/>
		<stop  offset="0.1647" style="stop-color:#3AA1A7"/>
		<stop  offset="0.6196" style="stop-color:#2F93A2"/>
		<stop  offset="1" style="stop-color:#2C8EA1"/>
	</linearGradient>
	<path style="fill-rule:evenodd;clip-rule:evenodd;fill:url(#SVGID_35_);" d="M235.2,143.95c9.4,1.767,18.05,4.333,25.95,7.7
		c-15.433-4.3-27.983-7.433-37.65-9.4L235.2,143.95z"/>
	
		<use xlink:href="#FlashAICB_x5F_1_x2F_Layer_1_x2F__x3C_Path_x3E__x5F_7"  width="603.152" height="42.518" y="-42.5" transform="matrix(1 0 0 -1 266.4502 49.5498)" style="overflow:visible;opacity:0.1719;enable-background:new    ;"/>
	
		<use xlink:href="#FlashAICB_x5F_1_x2F_Layer_1_x2F__x3C_Path_x3E__x5F_6"  width="418.5" height="20.986" y="-21" transform="matrix(1 0 0 -1 390.8999 81.1499)" style="overflow:visible;opacity:0.1719;enable-background:new    ;"/>
	
		<use xlink:href="#FlashAICB_x5F_1_x2F_Layer_1_x2F__x3C_Path_x3E__x5F_5"  width="355.224" height="49.604" x="0.126" y="-49.6" transform="matrix(1 0 0 -1 717.9502 100.9502)" style="overflow:visible;opacity:0.1719;enable-background:new    ;"/>
	
		<use xlink:href="#FlashAICB_x5F_1_x2F_Layer_1_x2F__x3C_Path_x3E__x5F_4"  width="149.663" height="24.767" x="0.337" y="-24.889" transform="matrix(1 0 0 -1 1062.4004 136.5)" style="overflow:visible;opacity:0.1719;enable-background:new    ;"/>
	
		<use xlink:href="#FlashAICB_x5F_1_x2F_Layer_1_x2F__x3C_Path_x3E__x5F_3"  width="126.1" height="4.035" y="-4.02" transform="matrix(1 0 0 -1 511.3999 193.9004)" style="overflow:visible;opacity:0.1719;enable-background:new    ;"/>
	
		<use xlink:href="#FlashAICB_x5F_1_x2F_Layer_1_x2F__x3C_Path_x3E__x5F_2"  width="178.55" height="19.095" y="-19.1" transform="matrix(1 0 0 -1 80.6499 146.6001)" style="overflow:visible;opacity:0.1719;enable-background:new    ;"/>
	
		<use xlink:href="#FlashAICB_x5F_1_x2F_Layer_1_x2F__x3C_Path_x3E__x5F_1"  width="137.85" height="21.154" y="-21.154" transform="matrix(1 0 0 -1 162.1001 42.3501)" style="overflow:visible;opacity:0.1719;enable-background:new    ;"/>
	
		<use xlink:href="#FlashAICB_x5F_1_x2F_Layer_1_x2F__x3C_Path_x3E_"  width="136.75" height="15.65" y="-15.65" transform="matrix(1 0 0 -1 875.2002 31.5498)" style="overflow:visible;opacity:0.1719;enable-background:new    ;"/>
</g>
</svg>
