<?xml version="1.0" encoding="iso-8859-1"?>
<!-- Generator: Adobe Illustrator 15.1.0, SVG Export Plug-In . SVG Version: 6.00 Build 0)  -->
<!DOCTYPE svg PUBLIC "-//W3C//DTD SVG 1.1//EN" "http://www.w3.org/Graphics/SVG/1.1/DTD/svg11.dtd">
<svg version="1.1" id="Layer_1" xmlns="http://www.w3.org/2000/svg" xmlns:xlink="http://www.w3.org/1999/xlink" x="0px" y="0px"
	 width="91.4px" height="175.05px" viewBox="0 0 91.4 175.05" style="enable-background:new 0 0 91.4 175.05;" xml:space="preserve"
	>
<g>
	<path style="fill-rule:evenodd;clip-rule:evenodd;fill:#1F2433;" d="M1.4,23.5c-1.233-1.4-0.783-3.65,1.35-6.75
		c1.533-2.267,3.217-4.15,5.05-5.65c2.867-2.434,5.85-1.867,8.95,1.7c1.2,1.367,2.1,2.9,2.7,4.6c0.633,1.7,0.767,3.033,0.4,4
		c-0.8,2.2-2.5,4.55-5.1,7.05c-2.867,2.767-5.55,4.316-8.05,4.65c-2,0.267-3.184-0.85-3.55-3.35C2.617,26.317,2.033,24.233,1.4,23.5
		z"/>
	<path style="fill-rule:evenodd;clip-rule:evenodd;fill:#1F2433;" d="M10.6,0.1c0.933-0.367,2.167,0.383,3.7,2.25
		c1.567,1.9,2.35,3.633,2.35,5.2c0,1.3-0.667,1.75-2,1.35c-1.6-0.767-2.7-1.217-3.3-1.35c-1.033-0.2-1.75-1.333-2.15-3.4
		C8.767,2.017,9.233,0.667,10.6,0.1z"/>
	<path style="fill-rule:evenodd;clip-rule:evenodd;fill:#1F2433;" d="M52.5,30.6c2.1,2.1,3.667,4.717,4.7,7.85
		c1.166,3.5,1.5,7.267,1,11.3c-0.566,4.5-1.4,7.867-2.5,10.1c-1.233,2.5-3.134,4.35-5.7,5.55c-3.033,1.4-6.7,2.467-11,3.2
		c-5,0.8-9.133,0.8-12.4,0c-2.833-0.7-4.934-2.934-6.3-6.7c-0.7-2.2-1.233-3.85-1.6-4.95c-0.633-1.967-1.317-3.534-2.05-4.7
		c-1.3-2.067-1.95-4.333-1.95-6.8c0-2.833-0.3-4.934-0.9-6.3c-0.867-2.1-0.1-4.65,2.3-7.65c3.033-3.133,5-5.2,5.9-6.2
		c2.533-2.867,7.833-3.267,15.9-1.2C45.134,25.933,50,28.1,52.5,30.6z"/>
	<path style="fill-rule:evenodd;clip-rule:evenodd;fill:#1F2433;" d="M5.3,38.05c1.1-0.367,2.4,0.25,3.9,1.85
		c1.566,1.567,2.517,3.317,2.85,5.25c0.133,0.7,0.9,3.8,2.3,9.3c1.267,4.966,2.033,8.617,2.3,10.95c0.3,2.533-1.066,3.517-4.1,2.95
		c-4-1.267-6.883-2.133-8.65-2.6c-2.3-0.633-3.6-2.4-3.9-5.3c-0.067-0.5,0.05-3.583,0.35-9.25c0.2-3.967,0.583-6.833,1.15-8.6
		C2.233,40.2,3.5,38.683,5.3,38.05z"/>
	<path style="fill-rule:evenodd;clip-rule:evenodd;fill:#1F2433;" d="M89.75,60.05c1.1,4.367,0.083,7-3.05,7.9
		c-1.667,0.5-4.9,0.466-9.7-0.1c-2.233-0.233-4.75-0.7-7.55-1.4c-2.9-0.7-5.233-1.167-7-1.4c-2.3-0.3-3.217-1.033-2.75-2.2
		c1.133-1.733,1.816-3.25,2.05-4.55c0.2-2.667,0.35-4.6,0.45-5.8c0.166-2.1,0.717-3.483,1.649-4.15
		c5.134-3.633,10.517-3.9,16.15-0.8C85.134,50.417,88.384,54.583,89.75,60.05z"/>
	<path style="fill-rule:evenodd;clip-rule:evenodd;fill:#1F2433;" d="M61.35,37c0.801-0.767,2.5-0.65,5.101,0.35
		c2.633,1.033,3.783,2.217,3.45,3.55c-0.301,1.2-1.084,1.867-2.351,2c-1.633,0-2.866,0.05-3.7,0.15
		c-1.199,0.167-2.116-0.617-2.75-2.35C60.467,39.033,60.55,37.8,61.35,37z"/>
	<path style="fill-rule:evenodd;clip-rule:evenodd;fill:#1F2433;" d="M34.05,169c0.767-0.767,2.45-0.65,5.05,0.35
		c2.633,1.034,3.783,2.217,3.45,3.551c-0.3,1.199-1.083,1.866-2.35,2c-1.633,0-2.867,0.05-3.7,0.149
		c-1.167,0.167-2.067-0.616-2.7-2.35C33.2,171.033,33.283,169.8,34.05,169z"/>
	<path style="fill-rule:evenodd;clip-rule:evenodd;fill:#1F2433;" d="M21.2,96.35c-0.7-0.866-1.267-2.083-1.7-3.649
		c-0.267-0.967-0.2-2.7,0.2-5.2c0.767-4.967,1.167-7.6,1.2-7.9c0.3-2.633,1.383-4.283,3.25-4.95c1.267-0.467,4.083-0.95,8.45-1.45
		c3.2-0.567,6.95,0.617,11.25,3.55c4.466,3.067,6.883,6.383,7.25,9.95c0.367,4.066-0.25,8.217-1.85,12.45
		c-1.767,4.699-4.233,7.883-7.4,9.55c-2.7,1.434-5.383,0.916-8.05-1.55c-1.466-1.534-2.6-2.7-3.4-3.5
		c-1.4-1.467-2.667-2.517-3.8-3.15C24.033,99.066,22.233,97.684,21.2,96.35z"/>
	<path style="fill-rule:evenodd;clip-rule:evenodd;fill:#1F2433;" d="M55.35,67.85c1.233-0.333,2.733-0.167,4.5,0.5
		c1.801,0.7,2.784,1.483,2.95,2.35c0.267,1.333-1.267,4.883-4.6,10.65c-1.033,1.767-2.634,1.683-4.8-0.25
		c-2.367-2.667-3.967-4.35-4.801-5.05c-1.267-1.066-1.166-2.5,0.301-4.3C50.333,69.983,52.483,68.683,55.35,67.85z"/>
	<path style="fill-rule:evenodd;clip-rule:evenodd;fill:#1F2433;" d="M11.35,71.8c1.9,0.167,3.483,1.184,4.75,3.05
		c1.233,1.8,1.65,3.617,1.25,5.45c-0.4,2.067-0.85,3.6-1.35,4.6c-0.7,1.4-1.783,2.583-3.25,3.55c-1.3,0.866-2.25,0.316-2.85-1.65
		c-0.566-2.9-1.15-5.066-1.75-6.5c-0.967-2.267-1.183-4.267-0.65-6C8.033,72.433,9.317,71.6,11.35,71.8z"/>
	<path style="fill-rule:evenodd;clip-rule:evenodd;fill:#1F2433;" d="M56.6,135.1c0.9-0.3,2-0.366,3.301-0.199
		c1.633,0.233,2.116,2.583,1.449,7.05c-0.666,4.467-1.833,6.983-3.5,7.55c-2.733,0.967-4.35-1.6-4.85-7.7
		c-0.134-1.733,0.1-3.166,0.7-4.3C54.3,136.3,55.267,135.5,56.6,135.1z"/>
	<path style="fill-rule:evenodd;clip-rule:evenodd;fill:#1F2433;" d="M9.55,96.95c0.3-0.434,1.4-0.566,3.3-0.4
		c0.933,0.101,1.85,0.233,2.75,0.4l-0.2,2.8c-0.233,2.066-0.65,3.616-1.25,4.65c-0.533,0.966-1.267,1.083-2.2,0.35
		c-1.534-1.3-2.45-2-2.75-2.1c-0.934-0.301-1.267-1.134-1-2.5C8.4,99.083,8.85,98.017,9.55,96.95z"/>
	<path style="fill-rule:evenodd;clip-rule:evenodd;fill:#1F2433;" d="M3.15,69.65l0.4,1.45c0.2,1.066,0.067,1.883-0.4,2.45
		c-0.6,0.8-1,0.5-1.2-0.9C1.783,71.283,2.183,70.283,3.15,69.65z"/>
	<path style="fill-rule:evenodd;clip-rule:evenodd;fill:#1F2433;" d="M24.45,16.75c0.966-0.467,2.1-0.217,3.4,0.75
		c1.1,0.833,1.867,1.767,2.3,2.8c0.3,0.8-0.05,1.184-1.05,1.15c-0.767-0.067-1.717-0.333-2.85-0.8c-1.2-0.467-2.067-1.033-2.6-1.7
		C22.983,18.117,23.25,17.383,24.45,16.75z"/>
	<path style="fill-rule:evenodd;clip-rule:evenodd;fill:#1F2433;" d="M58.9,89.15c1.199,0,3,1.3,5.399,3.899
		c2.334,2.566,3.967,4.934,4.9,7.101c1.267,3.066,1.616,9.466,1.05,19.199c-0.167,3.067-1.467,5.817-3.9,8.25
		c-2.5,2.5-5.583,4-9.25,4.5c-3,0.434-4.783-0.149-5.35-1.75c-0.2-2.133-0.667-3.683-1.4-4.649c-0.8-1.066-1.3-2.467-1.5-4.2
		c-0.366-3.434-0.683-5.816-0.949-7.15c-0.567-2.666-0.284-4.666,0.85-6c2.533-2.966,3.9-4.633,4.1-5
		c0.733-1.366,1.801-4.399,3.2-9.1C57.05,90.85,58,89.15,58.9,89.15z"/>
	<path style="fill-rule:evenodd;clip-rule:evenodd;fill:#1F2433;" d="M76.05,118c-1.267-1.033-1.899-2.833-1.899-5.4
		c-0.134-3.333-0.184-5.767-0.15-7.3c0.033-2.666,0.434-4.383,1.2-5.149c1-0.967,3.083-1.134,6.25-0.5
		c3.5,0.666,5.566,2.25,6.2,4.75c0.6,2.399,0.133,4.55-1.4,6.449c-0.9,1.167-2.684,3.051-5.35,5.65
		C79.1,118.634,77.483,119.134,76.05,118z"/>
	<path style="fill-rule:evenodd;clip-rule:evenodd;fill:#1F2433;" d="M88.35,75.3c1.601,0,2.584,0.967,2.95,2.9
		c0.334,1.933-0.3,2.983-1.899,3.15c-1.7,0.2-2.851-0.767-3.45-2.9C85.35,76.35,86.15,75.3,88.35,75.3z"/>
	<path style="fill-rule:evenodd;clip-rule:evenodd;fill:#1F2433;" d="M49.85,144.5c-0.1,6-1.1,11.316-3,15.95
		c-1.633,4-4.116,6.083-7.45,6.25c-2.9,0.133-6.15-1.134-9.75-3.8c-3.233-2.4-6.15-5.417-8.75-9.051
		c-2.566-3.6-4.083-6.75-4.55-9.449c-0.167-0.9-0.333-2.584-0.5-5.051c-0.133-2.1-0.367-3.767-0.7-5l-0.4-1.199
		c-0.6-1.801-0.933-2.884-1-3.25c-0.2-1.2-0.1-2.367,0.3-3.5c1.3-3.534,3.583-6.767,6.85-9.7c3.934-3.5,7.483-4.384,10.65-2.65
		c5.034,2.733,8.117,4.55,9.25,5.45c2.7,2.134,4.816,5.1,6.351,8.9C49.017,133.033,49.917,138.4,49.85,144.5z"/>
	<path style="fill-rule:evenodd;clip-rule:evenodd;fill:#1F2433;" d="M25.55,103.35l2.15,1.101c1.5,0.899,2.316,1.717,2.45,2.45
		c0.167,0.8-0.267,1.166-1.3,1.1c-0.5-0.033-1.733-0.283-3.7-0.75c-1.267-0.3-1.733-1-1.4-2.1
		C24.083,104.15,24.683,103.55,25.55,103.35z"/>
</g>
</svg>
