<?xml version="1.0" encoding="iso-8859-1"?>
<!-- Generator: Adobe Illustrator 15.1.0, SVG Export Plug-In . SVG Version: 6.00 Build 0)  -->
<!DOCTYPE svg PUBLIC "-//W3C//DTD SVG 1.1//EN" "http://www.w3.org/Graphics/SVG/1.1/DTD/svg11.dtd">
<svg version="1.1" id="Layer_1" xmlns="http://www.w3.org/2000/svg" xmlns:xlink="http://www.w3.org/1999/xlink" x="0px" y="0px"
	 width="164.25px" height="30.5px" viewBox="0 0 164.25 30.5" style="enable-background:new 0 0 164.25 30.5;" xml:space="preserve"
	>
<g>
	
		<linearGradient id="SVGID_1_" gradientUnits="userSpaceOnUse" x1="-20.6108" y1="102.9961" x2="-15.6198" y2="102.9961" gradientTransform="matrix(-0.0801 -0.9968 0.9968 -0.0801 1.791716e-004 9.480715e-004)">
		<stop  offset="0" style="stop-color:#202326"/>
		<stop  offset="0.2" style="stop-color:#232629"/>
		<stop  offset="0.3686" style="stop-color:#2D3132"/>
		<stop  offset="0.5216" style="stop-color:#3E4241"/>
		<stop  offset="0.6706" style="stop-color:#565A56"/>
		<stop  offset="0.8118" style="stop-color:#747A72"/>
		<stop  offset="0.949" style="stop-color:#99A093"/>
		<stop  offset="0.9961" style="stop-color:#A7AEA0"/>
	</linearGradient>
	<path style="fill-rule:evenodd;clip-rule:evenodd;fill:url(#SVGID_1_);" d="M98.6,10.2L80.45,15.5
		c11.166-4.633,17.133-7.017,17.899-7.15c0.534-0.1,2.534,0.033,6,0.4c3.4,0.333,5.584,0.617,6.551,0.85
		c1.267,0.3,7.199,2.267,17.8,5.9L109,10.85L98.6,10.2z"/>
	
		<linearGradient id="SVGID_2_" gradientUnits="userSpaceOnUse" x1="40.7788" y1="151.8965" x2="45.8351" y2="151.8965" gradientTransform="matrix(0.356 -0.9345 0.9345 0.356 -3.541708e-004 -6.711483e-005)">
		<stop  offset="0" style="stop-color:#202326"/>
		<stop  offset="0.2" style="stop-color:#232629"/>
		<stop  offset="0.3686" style="stop-color:#2D3132"/>
		<stop  offset="0.5216" style="stop-color:#3E4241"/>
		<stop  offset="0.6706" style="stop-color:#565A56"/>
		<stop  offset="0.8118" style="stop-color:#747A72"/>
		<stop  offset="0.949" style="stop-color:#99A093"/>
		<stop  offset="0.9961" style="stop-color:#A7AEA0"/>
	</linearGradient>
	<polygon style="fill-rule:evenodd;clip-rule:evenodd;fill:url(#SVGID_2_);" points="149.45,15.4 156.55,13.25 164.25,14.5 	"/>
	<path style="fill-rule:evenodd;clip-rule:evenodd;fill:#C0C5BC;" d="M97.85,7.1l11.9,0.6l12.3,5.4L110.7,9.05
		c-2.566-0.267-4.017-0.466-4.351-0.6c-0.233-0.1-1.433-0.2-3.6-0.3c-2-0.133-3.333-0.2-4-0.2c-0.434,0-1.967,0.533-4.6,1.6
		l-3.801,1.6L97.85,7.1z"/>
	<g>
		
			<linearGradient id="SVGID_3_" gradientUnits="userSpaceOnUse" x1="-23.4561" y1="126.7559" x2="-16.881" y2="126.7559" gradientTransform="matrix(0.0038 -1 1 0.0038 -4.641120e-004 2.637208e-004)">
			<stop  offset="0" style="stop-color:#202326"/>
			<stop  offset="0.2" style="stop-color:#232629"/>
			<stop  offset="0.3686" style="stop-color:#2D3132"/>
			<stop  offset="0.5216" style="stop-color:#3E4241"/>
			<stop  offset="0.6706" style="stop-color:#565A56"/>
			<stop  offset="0.8118" style="stop-color:#747A72"/>
			<stop  offset="0.949" style="stop-color:#99A093"/>
			<stop  offset="0.9961" style="stop-color:#A7AEA0"/>
		</linearGradient>
		<path style="fill-rule:evenodd;clip-rule:evenodd;fill:url(#SVGID_3_);" d="M132.4,20.5c0.466,0.2,2.466,0.233,6,0.1
			c3.767-0.133,5.699-0.199,5.8-0.199l-7.8,2.85l1.899,2.9L136.4,30.5l0.199-3.7l-2.3-3.399l-8.25-2.5l-5.399-0.25l-11.5,1.949
			l7.75-2.85l8.149-1.35l3.25,0.85C130.566,19.884,131.934,20.3,132.4,20.5z"/>
		<path style="fill-rule:evenodd;clip-rule:evenodd;fill:#C0C5BC;" d="M135.2,19.3l5.95,0.5c-3.9,0.267-6.134,0.4-6.7,0.4
			c-0.667,0.033-1.217,0.033-1.65,0c-0.8-0.033-1.517-0.184-2.149-0.45L125,17.7l4.25,0.6c0.167,0.033,1.083,0.217,2.75,0.55
			C133.7,19.184,134.767,19.333,135.2,19.3z"/>
	</g>
	<g>
		
			<linearGradient id="SVGID_4_" gradientUnits="userSpaceOnUse" x1="-3.1118" y1="30.7588" x2="8.1045" y2="30.7588" gradientTransform="matrix(0.1583 -0.9874 0.9874 0.1583 4.034042e-004 -2.456903e-004)">
			<stop  offset="0" style="stop-color:#202326"/>
			<stop  offset="0.2" style="stop-color:#232629"/>
			<stop  offset="0.3686" style="stop-color:#2D3132"/>
			<stop  offset="0.5216" style="stop-color:#3E4241"/>
			<stop  offset="0.6706" style="stop-color:#565A56"/>
			<stop  offset="0.8118" style="stop-color:#747A72"/>
			<stop  offset="0.949" style="stop-color:#99A093"/>
			<stop  offset="0.9961" style="stop-color:#A7AEA0"/>
		</linearGradient>
		<path style="fill-rule:evenodd;clip-rule:evenodd;fill:url(#SVGID_4_);" d="M54.35,3.3l6.35,2.05l-8.5,0.5l-11.15,2.8l-8.5,2.9
			l-10.9,2.9l8.45-3.6l8.45-2.95L27.7,4.3L15,2.65L-0.025,4.8C0.192,4.754,2.583,4.104,7.15,2.85c4.633-1.267,7.35-1.867,8.15-1.8
			L27.45,2.5L39.4,5.2L54.35,3.3z"/>
		<path style="fill-rule:evenodd;clip-rule:evenodd;fill:#C0C5BC;" d="M54.05,1.8L60.5,5l-5.85-1.7
			c-1.867-0.267-2.983-0.35-3.35-0.25c-0.7,0.233-1.316,0.434-1.85,0.6c-1.067,0.3-1.75,0.434-2.05,0.4
			c-0.3-0.066-1.617-0.066-3.95,0l-3.35,0.1l0.85-0.35c0.6-0.2,1.033-0.316,1.3-0.35c0.467-0.067,2.233-0.15,5.3-0.25l2.65-0.4
			C52.133,2.433,53.417,2.1,54.05,1.8z"/>
		<path style="fill-rule:evenodd;clip-rule:evenodd;fill:#C0C5BC;" d="M33.05,6.15c1.467,0.6,2.934,1.184,4.4,1.75
			c-3.167,0.934-5.483,1.667-6.95,2.2c-0.9,0.333-2.45,1.017-4.65,2.05l-3,1.45l5.65-3.9c0.467-0.3,1.067-0.583,1.8-0.85
			c0.4-0.167,0.934-0.367,1.6-0.6c0.533-0.2,1.15-0.5,1.85-0.9L29.9,5.6c-0.267-0.133-0.7-0.25-1.3-0.35
			c-0.633-0.1-1.05-0.2-1.25-0.3c-0.267-0.133-0.867-0.267-1.8-0.4c-0.966-0.2-1.466-0.3-1.5-0.3c2.6,0.2,4.034,0.267,4.3,0.2
			C28.483,4.417,30.05,4.983,33.05,6.15z"/>
		<path style="fill-rule:evenodd;clip-rule:evenodd;fill:#C0C5BC;" d="M23.45,1.45c3.267,0.733,4,0.966,2.2,0.7
			c-3.566-0.6-5.816-0.9-6.75-0.9C17.033,1.117,15.5,1.033,14.3,1c-0.733-0.033-2.45,0.233-5.15,0.8c-1.333,0.267-2.6,0.55-3.8,0.85
			l2.5-1.1c0.267-0.066,0.933-0.2,2-0.4c1.066-0.233,1.967-0.5,2.7-0.8c0.733-0.3,1.434-0.417,2.1-0.35
			c0.333,0.033,0.717,0.117,1.15,0.25C17.933,0.417,20.483,0.817,23.45,1.45z"/>
	</g>
</g>
</svg>
