<?xml version="1.0" encoding="iso-8859-1"?>
<!-- Generator: Adobe Illustrator 15.1.0, SVG Export Plug-In . SVG Version: 6.00 Build 0)  -->
<!DOCTYPE svg PUBLIC "-//W3C//DTD SVG 1.1//EN" "http://www.w3.org/Graphics/SVG/1.1/DTD/svg11.dtd">
<svg version="1.1" id="Layer_1" xmlns="http://www.w3.org/2000/svg" xmlns:xlink="http://www.w3.org/1999/xlink" x="0px" y="0px"
	 width="182.1px" height="43.4px" viewBox="0 0 182.1 43.4" style="enable-background:new 0 0 182.1 43.4;" xml:space="preserve">
<g>
	<g>
		
			<linearGradient id="SVGID_1_" gradientUnits="userSpaceOnUse" x1="-3.0957" y1="30.8564" x2="8.1206" y2="30.8564" gradientTransform="matrix(0.4748 -2.9622 2.9622 0.4748 -0.3006 0.0494)">
			<stop  offset="0" style="stop-color:#202326"/>
			<stop  offset="0.2" style="stop-color:#232629"/>
			<stop  offset="0.3686" style="stop-color:#2D3132"/>
			<stop  offset="0.5216" style="stop-color:#3E4241"/>
			<stop  offset="0.6706" style="stop-color:#565A56"/>
			<stop  offset="0.8118" style="stop-color:#747A72"/>
			<stop  offset="0.949" style="stop-color:#99A093"/>
			<stop  offset="0.9961" style="stop-color:#A7AEA0"/>
		</linearGradient>
		<path style="fill-rule:evenodd;clip-rule:evenodd;fill:url(#SVGID_1_);" d="M163.051,9.949L182.1,16.1l-25.5,1.5L123.15,26
			l-25.5,8.699L64.95,43.4L90.301,32.6l25.35-8.85L83.1,12.949L45,8l-45.075,6.45c0.65-0.136,7.825-2.087,21.524-5.849
			C35.35,4.8,43.5,3,45.9,3.199L82.35,7.55L118.2,15.65L163.051,9.949z"/>
		<path style="fill-rule:evenodd;clip-rule:evenodd;fill:#C0C5BC;" d="M162.15,5.449l19.35,9.601l-17.55-5.101
			c-5.601-0.8-8.95-1.049-10.05-0.75c-2.1,0.7-3.949,1.301-5.551,1.8c-3.199,0.901-5.25,1.301-6.149,1.2
			c-0.899-0.199-4.851-0.199-11.851,0l-10.049,0.3l2.549-1.05c1.801-0.599,3.102-0.949,3.9-1.049c1.4-0.201,6.701-0.451,15.9-0.75
			l7.949-1.201C156.4,7.349,160.25,6.35,162.15,5.449z"/>
		<path style="fill-rule:evenodd;clip-rule:evenodd;fill:#C0C5BC;" d="M95.7,24.8c1.6-0.601,3.45-1.5,5.55-2.7L89.7,16.85
			c-0.8-0.4-2.101-0.75-3.899-1.05c-1.9-0.3-3.151-0.601-3.75-0.899c-0.801-0.4-2.6-0.801-5.401-1.201
			c-2.9-0.599-4.4-0.899-4.5-0.899c7.8,0.601,12.1,0.8,12.901,0.601c0.4-0.101,5.099,1.6,14.1,5.099
			c4.4,1.8,8.801,3.551,13.199,5.25c-9.5,2.801-16.449,5-20.85,6.6c-2.699,1-7.35,3.051-13.949,6.15l-9,4.35L85.5,29.15
			c1.4-0.9,3.199-1.75,5.399-2.551C92.1,26.1,93.701,25.5,95.7,24.8z"/>
		<path style="fill-rule:evenodd;clip-rule:evenodd;fill:#C0C5BC;" d="M70.35,4.4c9.801,2.199,12,2.899,6.601,2.099
			C66.25,4.699,59.5,3.8,56.7,3.8c-5.6-0.4-10.2-0.65-13.8-0.75c-2.2-0.1-7.349,0.7-15.45,2.399C23.45,6.25,19.65,7.1,16.051,8
			l7.5-3.3c0.8-0.199,2.799-0.599,6-1.2C32.75,2.799,35.45,2,37.65,1.1c2.2-0.901,4.301-1.251,6.3-1.05c1,0.1,2.15,0.35,3.45,0.75
			C53.8,1.299,61.451,2.5,70.35,4.4z"/>
	</g>
</g>
</svg>
