<?xml version="1.0" encoding="iso-8859-1"?>
<!-- Generator: Adobe Illustrator 15.1.0, SVG Export Plug-In . SVG Version: 6.00 Build 0)  -->
<!DOCTYPE svg PUBLIC "-//W3C//DTD SVG 1.1//EN" "http://www.w3.org/Graphics/SVG/1.1/DTD/svg11.dtd">
<svg version="1.1" id="Layer_1" xmlns="http://www.w3.org/2000/svg" xmlns:xlink="http://www.w3.org/1999/xlink" x="0px" y="0px"
	 width="67.55px" height="139.85px" viewBox="0 0 67.55 139.85" style="enable-background:new 0 0 67.55 139.85;"
	 xml:space="preserve">
<g>
	<path style="fill-rule:evenodd;clip-rule:evenodd;fill:#1F2433;" d="M65.7,63.1c1.066,0.6,1.467,2.3,1.2,5.1
		c-0.233,2.5-0.784,4.533-1.65,6.1c-0.733,1.334-1.866,2.684-3.4,4.05c-1.733,1.467-3.083,2.101-4.05,1.9
		c-1.1-0.267-2.267-1.6-3.5-4c-1.3-2.566-1.916-4.983-1.85-7.25c0.033-2,1.217-4.267,3.55-6.8c2.733-2.567,4.517-4.35,5.35-5.35
		c0.934-1.067,1.684-0.55,2.25,1.55C64.333,61.167,65.033,62.733,65.7,63.1z"/>
	<path style="fill-rule:evenodd;clip-rule:evenodd;fill:#1F2433;" d="M66.05,89.9c-0.8,1.133-1.816,1.816-3.05,2.05
		c-1.3,0.267-2.434-0.033-3.4-0.9C58.2,89.783,58.55,87.1,60.65,83c0.8-1.634,2.699-1.85,5.699-0.65c0.9,0.367,1.301,1.4,1.2,3.101
		C67.45,87.083,66.95,88.566,66.05,89.9z"/>
	<path style="fill-rule:evenodd;clip-rule:evenodd;fill:#1F2433;" d="M26.2,95.15c-2.2-2.733-3.333-5.967-3.4-9.7
		c-0.033-1.967,0.467-6.066,1.5-12.3c0.767-4.7,2.617-8.934,5.55-12.7c2.767-3.534,6.083-6.133,9.95-7.8
		c2.9-1.233,4.65-0.066,5.25,3.5c0.2,1.067,0.467,2.9,0.8,5.5c0.367,2.4,0.95,4.35,1.75,5.85c0.934,1.767,2.15,4.366,3.65,7.8
		c0.934,2.167,2.033,4.167,3.3,6c1.4,2.033,1.684,4.417,0.851,7.15c-0.5,1.633-1.534,4.583-3.101,8.85
		c-0.566,2.167-2.233,4.767-5,7.8c-2.399,2.601-3.967,4-4.7,4.2c-0.466,0.167-2.683-1.383-6.649-4.649
		C31.717,101.116,28.467,97.95,26.2,95.15z"/>
	<path style="fill-rule:evenodd;clip-rule:evenodd;fill:#1F2433;" d="M51.75,61.35c-0.5,0.566-1.316,0.283-2.45-0.85
		c-1.2-1.167-1.833-2.517-1.899-4.05c-0.034-1.534,0.233-2.483,0.8-2.85c0.467-0.267,1.233-0.217,2.3,0.15
		c0.934,0.333,1.583,1.45,1.95,3.35C52.783,59.033,52.55,60.45,51.75,61.35z"/>
	<path style="fill-rule:evenodd;clip-rule:evenodd;fill:#1F2433;" d="M51.7,139.5c-0.5,0.8-2.084,0.2-4.75-1.8
		c-3-2.5-4.983-4.084-5.95-4.75c-1.2-0.834-2.616-3.15-4.25-6.95c-1.833-4.634-3.167-7.95-4-9.95c-1.333-3.233-1.867-5.95-1.6-8.149
		c0.267-2.4,1.434-2.767,3.5-1.101c1.6,1.3,3.05,3.316,4.35,6.05c1.134,2.467,1.983,3.817,2.55,4.051
		c0.834,0.366,1.884,1.399,3.15,3.1c0.8,1.066,2.333,3.184,4.6,6.35c2.101,2.801,3.351,5.084,3.75,6.851
		C53.517,135.267,53.066,137.366,51.7,139.5z"/>
	<path style="fill-rule:evenodd;clip-rule:evenodd;fill:#1F2433;" d="M58.45,107.3c1.7,1.667,2.166,4.283,1.399,7.851
		c-0.666,3-1.899,5.699-3.699,8.1c-1.601,2.134-2.983,2.4-4.15,0.8c-1.967-2.6-3.184-4.267-3.65-5c-1.767-2.6-2.75-4.616-2.949-6.05
		c-0.233-1.467,0.283-2.967,1.55-4.5c0.467-0.566,2-2.066,4.6-4.5c1.467-1.4,2.601-1.733,3.4-1
		C55.483,103.533,56.65,104.967,58.45,107.3z"/>
	<path style="fill-rule:evenodd;clip-rule:evenodd;fill:#1F2433;" d="M57.25,131.95c-0.6,0.434-1.116-0.167-1.55-1.8
		c-0.4-1.634-0.167-2.617,0.7-2.95c1-0.4,1.683,0.066,2.05,1.399C58.816,129.967,58.417,131.083,57.25,131.95z"/>
	<path style="fill-rule:evenodd;clip-rule:evenodd;fill:#1F2433;" d="M12.2,91.5c1.733-2.667,3.483-4.134,5.25-4.4
		c1.033-0.133,2.333,1.434,3.9,4.7c2,4.134,3.417,6.634,4.25,7.5c1.3,1.4,2.033,3.3,2.2,5.7c0.1,1.333,0.184,3.25,0.25,5.75
		c1,6.066,0.367,10.134-1.9,12.2c-1.933,1.733-4.333,1.75-7.2,0.05c-2.4-1.366-4.45-3.983-6.15-7.85
		c-1.7-3.767-2.75-7.983-3.15-12.65C9.283,98.366,10.133,94.7,12.2,91.5z"/>
	<path style="fill-rule:evenodd;clip-rule:evenodd;fill:#1F2433;" d="M10.65,45c-0.1-1.733,0.617-4.567,2.15-8.5
		c1.7-4.4,3.583-7.6,5.65-9.6c1.867-1.833,3.333-1.833,4.4,0c0.6,1.1,1.433,3.1,2.5,6c0.7,1.233,1.783,3.567,3.25,7
		c1.4,3.267,2.3,5.233,2.7,5.9c0.5,0.867,0.2,2.8-0.9,5.8c-0.6,1.7-1.617,4.367-3.05,8c-1.133,3.6-2.267,5.733-3.4,6.4
		c-1.034,0.6-1.784-0.117-2.25-2.15c-0.434-2-1.35-3.667-2.75-5c-1.5-1.434-2.983-1.917-4.45-1.45C12.4,58.033,11.117,53.9,10.65,45
		z"/>
	<path style="fill-rule:evenodd;clip-rule:evenodd;fill:#1F2433;" d="M20.95,80.05c-0.267,1.167-1.1,2.467-2.5,3.9
		c-1.5,1.5-2.5,1.816-3,0.95c-1.067-1.667-1.85-3.017-2.35-4.051c-0.967-1.966-1.2-3.483-0.7-4.55c0.5-1.133,1.267-1.934,2.3-2.399
		c0.566-0.301,1.5-0.551,2.8-0.75c1.033-0.2,1.967,0.383,2.8,1.75C21.2,76.4,21.417,78.116,20.95,80.05z"/>
	<path style="fill-rule:evenodd;clip-rule:evenodd;fill:#1F2433;" d="M54.65,43.9c-2,2.167-3.483,3.667-4.45,4.5
		c-1.601,1.4-3.517,1.55-5.75,0.45c-2.566-1.3-5.101-3.15-7.601-5.55c-2.233-2.133-4.216-4.483-5.95-7.05
		c-1.2-1.8-2.617-4.517-4.25-8.15c-1.7-3.8-2.75-6.033-3.15-6.7c-0.9-1.4-1.35-3.35-1.35-5.85c0.033-2.533,0.533-4.583,1.5-6.15
		c0.867-1.367,2.9-1.217,6.1,0.45c1.867,0.967,4.8,2.75,8.8,5.35c1.867,1.1,4.334,2.433,7.4,4c2.399,1.533,4.2,3.783,5.399,6.75
		c1.267,3.066,2.233,6.883,2.9,11.45C54.816,41.467,54.95,43.633,54.65,43.9z"/>
	<path style="fill-rule:evenodd;clip-rule:evenodd;fill:#1F2433;" d="M17.25,9.45c0.933,1.667,1.333,3.683,1.2,6.05
		c-0.1,1.833-0.534,4.15-1.3,6.95c-1.3,4.433-3.983,6.783-8.05,7.05c-3.867,0.233-6.5-1.183-7.9-4.25
		C0.067,22.717-0.25,19.967,0.25,17c0.433-2.4,1.267-4.567,2.5-6.5c1.267-2.033,2.833-4.1,4.7-6.2c2.233-2.566,3.933-3.983,5.1-4.25
		c1-0.233,1.85,0.817,2.55,3.15C16.167,6.733,16.883,8.817,17.25,9.45z"/>
</g>
</svg>
