<?xml version="1.0" encoding="iso-8859-1"?>
<!-- Generator: Adobe Illustrator 15.1.0, SVG Export Plug-In . SVG Version: 6.00 Build 0)  -->
<!DOCTYPE svg PUBLIC "-//W3C//DTD SVG 1.1//EN" "http://www.w3.org/Graphics/SVG/1.1/DTD/svg11.dtd">
<svg version="1.1" id="Layer_1" xmlns="http://www.w3.org/2000/svg" xmlns:xlink="http://www.w3.org/1999/xlink" x="0px" y="0px"
	 width="171.95px" height="101.9px" viewBox="0 0 171.95 101.9" style="enable-background:new 0 0 171.95 101.9;"
	 xml:space="preserve">
<symbol  id="flash2.ai_x2F_Layer_1_x2F__x3C_Path_x3E__x5F_11" viewBox="-0.033 -10.533 171.936 10.551">
	<g id="Layer_1_2_">
		<path style="fill-rule:evenodd;clip-rule:evenodd;fill:#757D7D;" d="M163.8-3.2c4.233-0.667,6.883-1.333,7.95-2
			c0.633-0.533-0.7-0.966-4-1.3c-4.633-0.467-6.967-0.7-7-0.7c-2.2-0.466-5-0.75-8.4-0.85c-3.167-0.1-5.934-0.05-8.3,0.15
			c-1.233,0.1-3.75,0.15-7.55,0.15c-1.067,0-3.233,0.15-6.5,0.45c-2.633,0.233-4.833,0.267-6.6,0.1
			c-1.867-0.167-4.333-0.45-7.4-0.85c-3.733-0.5-6.217-0.817-7.45-0.95c-7.433-0.8-11.583-1.233-12.45-1.3
			c-5.1-0.367-9.25-0.3-12.45,0.2C78.483-9.267,73.067-8.767,67.4-8.6c-1.467,0.033-6.983,0.033-16.55,0
			c-0.567,0-1.434,0.267-2.6,0.8c-1.067,0.533-1.883,0.75-2.45,0.65C39.6-8.083,35.733-8.633,34.2-8.8
			c-3.867-0.434-7.534-0.55-11-0.35c-5.467,0.267-9.083,0.483-10.85,0.65c-5.6,0.567-9.467,1.45-11.6,2.65
			C-0.817-5.183-0.033-4.767,3.1-4.6c2.867,0.133,5.3,0.05,7.3-0.25c12.8-1.9,21.983-2.167,27.55-0.8c2.7,0.667,5.55,0.8,8.55,0.4
			c3.3-0.4,6.75-0.267,10.35,0.4c3.5,0.633,8.283,1,14.35,1.1c6.833,0.133,11.6,0.367,14.3,0.7c1.5,0.167,3.65,0.216,6.45,0.15
			c2.933-0.1,5.083-0.083,6.45,0.05c1.567,0.133,4.783,0.7,9.65,1.7c3.934,0.8,7.184,1.133,9.75,1c0.667-0.033,2.6-0.217,5.8-0.55
			c2.367-0.233,4.283-0.316,5.75-0.25c0.967,0.034,3.25,0.233,6.85,0.6c2.8,0.3,5.083,0.417,6.85,0.35c3.3-0.2,5.784-0.433,7.45-0.7
			c1.8-0.267,3.5-0.633,5.1-1.1C156.067-1.933,158.8-2.4,163.8-3.2z"/>
	</g>
</symbol>
<g>
	<g>
		
			<use xlink:href="#flash2.ai_x2F_Layer_1_x2F__x3C_Path_x3E__x5F_11"  width="171.936" height="10.551" x="-0.033" y="-10.533" transform="matrix(1 0 0 -1 0.0498 91.3496)" style="overflow:visible;opacity:0.4688;enable-background:new    ;"/>
		
			<linearGradient id="SVGID_1_" gradientUnits="userSpaceOnUse" x1="45.3726" y1="60.4004" x2="159.5557" y2="60.4004" gradientTransform="matrix(0.9996 -0.0289 0.0289 0.9996 -2.295841e-004 -3.512949e-005)">
			<stop  offset="0" style="stop-color:#12C4C4"/>
			<stop  offset="0.0902" style="stop-color:#12BEC3"/>
			<stop  offset="0.2157" style="stop-color:#12ACC0"/>
			<stop  offset="0.3608" style="stop-color:#1290BC"/>
			<stop  offset="0.5137" style="stop-color:#1269B6"/>
			<stop  offset="0.6471" style="stop-color:#1241B0"/>
			<stop  offset="0.7333" style="stop-color:#134AAD"/>
			<stop  offset="0.8706" style="stop-color:#1661A4"/>
			<stop  offset="1" style="stop-color:#1A7D99"/>
		</linearGradient>
		<path style="fill-rule:evenodd;clip-rule:evenodd;fill:url(#SVGID_1_);" d="M139.15,44.45c0.3-4.767,0.633-7.15,1-7.15
			c0.466-0.033,1.449,2.3,2.949,7c0.9,2.833,2.584,8.3,5.051,16.4c1.366,4.2,2.85,8.816,4.449,13.85
			c1.134,3.367,2.417,6.566,3.851,9.601c0.899,1.933,2.25,4.433,4.05,7.5c1.1,1.899,1.733,3.383,1.9,4.449
			c-1.233,1.233-3,1.983-5.301,2.25c-0.866,0.101-2.633,0.101-5.3,0c-1.2-0.033-3.184-0.116-5.95-0.25
			c-2.533-0.133-4.517-0.216-5.949-0.25c-0.967,0-2.634-0.116-5-0.35c-2.067-0.167-3.767-0.233-5.101-0.2
			c-3.533,0.101-9.883,0.667-19.05,1.7c-8.3,0.9-15.967,1.35-23,1.35c-1.866,0-4.783-0.383-8.75-1.149
			c-3.633-0.667-6.6-0.917-8.9-0.75c-1.3,0.1-3.267,0.05-5.9-0.15c-2.5-0.2-4.483-0.217-5.95-0.05
			c-7.033,0.667-10.367,0.517-10-0.45c0.3-0.733,1.2-1.967,2.7-3.7c2.3-2.699,4.917-4.933,7.85-6.699
			c2.333-1.434,3.883-2.467,4.65-3.101c1.066-0.866,1.85-1.833,2.35-2.899c1-2.334,1.983-4.483,2.95-6.45
			c1.833-3.733,3.833-7.117,6-10.15c2.667-3.7,4.15-5.783,4.45-6.25c0.4-0.566,0.983-1.55,1.75-2.95c1.3-2.1,2.383-3.949,3.25-5.55
			c1.6-2.933,3-6.133,4.2-9.6c1.566-5.167,2.733-8.833,3.5-11c1.333-3.667,3.083-6.65,5.25-8.95c1.733-1.833,3.216-3.5,4.449-5
			c0.4-0.5,0.65-0.667,0.75-0.5c0.101,0.2-0.05,1.7-0.449,4.5c-0.2,3.133,0.25,5.667,1.35,7.6c0.9,1.566,1.934,3.183,3.1,4.85
			c0.834,1.367,1.4,3.267,1.7,5.7c0.4,3.133,1.617,6.617,3.65,10.45c2.233,4.167,4.883,7.7,7.95,10.6c1.366,1.3,2.866,2.633,4.5,4
			c1,0.899,1.533,1.767,1.6,2.6c0.3,4.267,1.417,9.634,3.35,16.101c0.334-0.267,0.567-0.884,0.7-1.851c0.5-2.6,0.917-4.434,1.25-5.5
			c0.267-0.934,0.884-2.5,1.851-4.7c0.233-0.566,1.05-1.583,2.449-3.05c0.9-0.934,1.684-3.35,2.351-7.25
			C138.233,55.816,138.717,50.95,139.15,44.45z"/>
		
			<linearGradient id="SVGID_2_" gradientUnits="userSpaceOnUse" x1="-152.082" y1="69.0703" x2="-115.2115" y2="69.0703" gradientTransform="matrix(-0.377 -0.9262 0.9262 -0.377 -2.238452e-004 -5.101562e-004)">
			<stop  offset="0" style="stop-color:#87D6D4"/>
			<stop  offset="1" style="stop-color:#87D6D4;stop-opacity:0"/>
		</linearGradient>
		<path style="fill-rule:evenodd;clip-rule:evenodd;fill:url(#SVGID_2_);" d="M116.1,75.25c2.067-0.767,4.267-0.05,6.601,2.15
			c1.467,1.366,3.467,4.966,6,10.8c1.3,2.899,2.434,5.666,3.399,8.3c-3.767-0.033-7.833,0.333-12.199,1.1
			c-2.7,0.467-7.367,0.917-14,1.351l-9.15,0.55c2.033-0.5,4.467-3.066,7.3-7.7c3-5.5,5.117-9.184,6.351-11.05
			C112.5,77.717,114.4,75.884,116.1,75.25z"/>
		
			<linearGradient id="SVGID_3_" gradientUnits="userSpaceOnUse" x1="-112.9131" y1="31.9873" x2="-87.5966" y2="31.9873" gradientTransform="matrix(-0.2666 -0.9638 0.9638 -0.2666 -2.088845e-004 8.873343e-004)">
			<stop  offset="0" style="stop-color:#87D6D4"/>
			<stop  offset="1" style="stop-color:#87D6D4;stop-opacity:0"/>
		</linearGradient>
		<path style="fill-rule:evenodd;clip-rule:evenodd;fill:url(#SVGID_3_);" d="M49.3,97c0.833-1.033,1.833-2.134,3-3.3
			c2.333-2.4,4.383-4.017,6.15-4.851c1.433-0.666,2.8-1.366,4.1-2.1c0.7-0.3,1.25-0.217,1.65,0.25c0.333,0.366,1.25,1.917,2.75,4.65
			c1.6,2.699,2.966,4.333,4.1,4.899c2.133,1.066-0.117,1.316-6.75,0.75c-1.667-0.133-5.6,0.117-11.8,0.75
			c-1.933,0.167-3.1,0.217-3.5,0.15C48.267,98.1,48.367,97.7,49.3,97z"/>
		
			<linearGradient id="SVGID_4_" gradientUnits="userSpaceOnUse" x1="-82.4443" y1="69.0332" x2="-58.3952" y2="69.0332" gradientTransform="matrix(-0.2672 -0.9637 0.9637 -0.2672 -2.926588e-005 -4.999638e-004)">
			<stop  offset="0" style="stop-color:#87D6D4"/>
			<stop  offset="1" style="stop-color:#87D6D4;stop-opacity:0"/>
		</linearGradient>
		<path style="fill-rule:evenodd;clip-rule:evenodd;fill:url(#SVGID_4_);" d="M87.25,45.95c2.3-6.1,3.884-9.383,4.75-9.85
			c0.8-0.434,1.55,1.333,2.25,5.3c0.634,3.7,0.85,6.517,0.65,8.45c-0.2,1.6-0.95,4-2.25,7.2C91.017,61.116,86.3,62.7,78.5,61.8
			c-0.667-0.066-1.033-0.133-1.1-0.2c-0.033-0.033,0.117-0.183,0.45-0.449C79.183,60.184,80.3,59,81.2,57.6
			C83.9,53.4,85.917,49.517,87.25,45.95z"/>
		
			<linearGradient id="SVGID_5_" gradientUnits="userSpaceOnUse" x1="-98.7861" y1="80.5918" x2="-75.4949" y2="80.5918" gradientTransform="matrix(-0.3768 -0.9263 0.9263 -0.3768 -1.561940e-004 6.006658e-004)">
			<stop  offset="0" style="stop-color:#87D6D4"/>
			<stop  offset="1" style="stop-color:#87D6D4;stop-opacity:0"/>
		</linearGradient>
		<path style="fill-rule:evenodd;clip-rule:evenodd;fill:url(#SVGID_5_);" d="M105.35,34.3c0.434-0.566,0.851-0.017,1.25,1.65
			c1.067,4.333,1.884,7.383,2.45,9.15c1.134,3.566,4,8,8.601,13.3c2.333,2.666,4.533,4.966,6.6,6.899
			c-3.1,1.467-7.417,1.75-12.95,0.851c-6.666-1.067-10.434-3.867-11.3-8.4c-0.833-4.366-0.333-9.35,1.5-14.95
			C102.733,39.133,104.017,36.3,105.35,34.3z"/>
		
			<linearGradient id="SVGID_6_" gradientUnits="userSpaceOnUse" x1="-110.7246" y1="18.5596" x2="-95.8013" y2="18.5596" gradientTransform="matrix(-0.9163 -0.4004 0.4004 -0.9163 -9.474158e-005 -7.806718e-004)">
			<stop  offset="0" style="stop-color:#87D6D4"/>
			<stop  offset="1" style="stop-color:#87D6D4;stop-opacity:0"/>
		</linearGradient>
		<path style="fill-rule:evenodd;clip-rule:evenodd;fill:url(#SVGID_6_);" d="M101.7,16.05c-0.434,1.7-0.55,4.233-0.351,7.6
			c0.134,2,1.051,4.1,2.75,6.3c1.467,1.833,2.15,2.783,2.051,2.85c-0.634,0.534-1.851,0.483-3.65-0.15
			c-2.2-0.833-3.667-2.483-4.4-4.95c-0.699-2.4-0.316-5.067,1.15-8C100.017,18.267,100.833,17.05,101.7,16.05z"/>
		
			<linearGradient id="SVGID_7_" gradientUnits="userSpaceOnUse" x1="-116.9878" y1="68.8945" x2="-107.2432" y2="68.8945" gradientTransform="matrix(-0.3771 -0.9262 0.9262 -0.3771 2.690256e-004 2.815723e-004)">
			<stop  offset="0" style="stop-color:#87D6D4"/>
			<stop  offset="1" style="stop-color:#87D6D4;stop-opacity:0"/>
		</linearGradient>
		<path style="fill-rule:evenodd;clip-rule:evenodd;fill:url(#SVGID_7_);" d="M104.5,76.65c1.167-1.334,2.583-1.817,4.25-1.45
			c1.667,0.399,2.316,1.316,1.95,2.75c-0.634,2.8-2.367,5.35-5.2,7.649c-1.134,0.934-1.816-0.083-2.05-3.05
			C103.25,79.616,103.6,77.65,104.5,76.65z"/>
		
			<linearGradient id="SVGID_8_" gradientUnits="userSpaceOnUse" x1="-138.5762" y1="108.6787" x2="-105.2248" y2="108.6787" gradientTransform="matrix(-0.3763 -0.9265 0.9265 -0.3763 1.076162e-004 4.478991e-004)">
			<stop  offset="0" style="stop-color:#87D6D4"/>
			<stop  offset="1" style="stop-color:#87D6D4;stop-opacity:0"/>
		</linearGradient>
		<path style="fill-rule:evenodd;clip-rule:evenodd;fill:url(#SVGID_8_);" d="M146.6,58.5l0.551,2.35
			c0.466,2.067,1.05,4.334,1.75,6.801c1.133,3.966,3.767,10.649,7.899,20.05c-1.399-0.4-3.083-1.283-5.05-2.65
			c-3.9-2.7-7.167-6.434-9.8-11.2c-2.767-5-3.101-9.116-1-12.35c0.767-1.2,1.767-2.083,3-2.65C145.017,58.316,145.9,58.2,146.6,58.5
			z"/>
		
			<linearGradient id="SVGID_9_" gradientUnits="userSpaceOnUse" x1="-124.5635" y1="38.5703" x2="-89.6429" y2="38.5703" gradientTransform="matrix(-0.3766 -0.9264 0.9264 -0.3766 1.085699e-004 -9.327829e-004)">
			<stop  offset="0" style="stop-color:#87D6D4"/>
			<stop  offset="1" style="stop-color:#87D6D4;stop-opacity:0"/>
		</linearGradient>
		<path style="fill-rule:evenodd;clip-rule:evenodd;fill:url(#SVGID_9_);" d="M83.7,78.15c1.1,3.966,2.533,10.433,4.3,19.399
			c-2.634,0.134-5.383,0.05-8.25-0.25c-5.8-0.666-9.35-2.149-10.65-4.45c-2.833-4.966-2.517-10.6,0.95-16.899
			c1.3-2.3,2.767-4.233,4.4-5.8c1.566-1.467,2.667-2.051,3.3-1.75l2.35,2.649C81.8,73.316,83,75.684,83.7,78.15z"/>
		
			<linearGradient id="SVGID_10_" gradientUnits="userSpaceOnUse" x1="-104.563" y1="109.6289" x2="-90.826" y2="109.6289" gradientTransform="matrix(-0.3767 -0.9263 0.9263 -0.3767 6.228685e-005 3.082752e-004)">
			<stop  offset="0" style="stop-color:#87D6D4"/>
			<stop  offset="1" style="stop-color:#87D6D4;stop-opacity:0"/>
		</linearGradient>
		<path style="fill-rule:evenodd;clip-rule:evenodd;fill:url(#SVGID_10_);" d="M140.05,39.75l1.15,2.65
			c0.833,2.2,1.483,4.467,1.95,6.8c0.566,2.899,0.833,4.55,0.8,4.95c-0.033,0.533-0.5,1.083-1.4,1.649
			c-0.767,0.5-1.783,1.65-3.05,3.45l-1.65,2.5c0.334-1.634,0.717-3.767,1.15-6.4c0.267-1.633,0.517-4.733,0.75-9.3L140.05,39.75z"/>
		
			<linearGradient id="SVGID_11_" gradientUnits="userSpaceOnUse" x1="-142.5996" y1="97.0869" x2="-125.376" y2="97.0869" gradientTransform="matrix(-0.3774 -0.9261 0.9261 -0.3774 -8.198619e-005 8.088648e-004)">
			<stop  offset="0" style="stop-color:#87D6D4"/>
			<stop  offset="1" style="stop-color:#87D6D4;stop-opacity:0"/>
		</linearGradient>
		<path style="fill-rule:evenodd;clip-rule:evenodd;fill:url(#SVGID_11_);" d="M135.6,96.6c-0.199-3.033-0.25-6.1-0.149-9.199
			c0.233-6.233,1.166-9.567,2.8-10c1.9-0.534,4.45,1.466,7.65,6c3.033,4.3,5.466,9.1,7.3,14.399c-0.8-0.166-2.9-0.316-6.3-0.45
			c-2.101-0.1-4.617-0.25-7.551-0.449L135.6,96.6z"/>
	</g>
	<g>
		
			<linearGradient id="SVGID_12_" gradientUnits="userSpaceOnUse" x1="-10.8135" y1="56.8623" x2="53.3595" y2="56.8623" gradientTransform="matrix(0.9837 -0.18 0.18 0.9837 9.985268e-005 2.372563e-004)">
			<stop  offset="0" style="stop-color:#12C4C4"/>
			<stop  offset="0.0902" style="stop-color:#12BEC3"/>
			<stop  offset="0.2157" style="stop-color:#12ACC0"/>
			<stop  offset="0.3608" style="stop-color:#1290BC"/>
			<stop  offset="0.5137" style="stop-color:#1269B6"/>
			<stop  offset="0.6471" style="stop-color:#1241B0"/>
			<stop  offset="0.7333" style="stop-color:#134AAD"/>
			<stop  offset="0.8706" style="stop-color:#1661A4"/>
			<stop  offset="1" style="stop-color:#1A7D99"/>
		</linearGradient>
		<path style="fill-rule:evenodd;clip-rule:evenodd;fill:url(#SVGID_12_);" d="M41.5,24.9c0.767-1.4,2.75-5.566,5.95-12.5
			c2.833-6.133,4.75-9.95,5.75-11.45c1.133-1.667,1.383-1.083,0.75,1.75c-1.1,4.267-1.9,7.533-2.4,9.8c-0.433,2-1.5,7.483-3.2,16.45
			c-0.3,1.667-0.833,3.816-1.6,6.45c-0.333,1.2-0.517,3.2-0.55,6c-0.034,3.6-0.184,6.417-0.45,8.45
			c-0.267,1.933-0.733,3.833-1.4,5.7c-0.434,1.233-0.383,2.334,0.15,3.3c0.867,1.434,1.367,3.217,1.5,5.351
			c0.3,4.333-0.783,15.55-3.25,33.649l-7,1.301c-3.067,0.6-7.017,0.833-11.85,0.699c-3.967-0.133-6.6-0.366-7.9-0.699
			c-1.733-0.434-3.533-0.684-5.4-0.75c-1.467-0.101-2.583-0.317-3.35-0.65c-0.767-0.366-0.133-2.066,1.9-5.1
			c2.8-4.267,4.633-7.9,5.5-10.9c1.167-3.967,2.684-8.667,4.55-14.1c1.667-4.867,2.667-7.667,3-8.4
			c0.367-0.767,3.35-4.983,8.95-12.65c0.7-0.967,1.083-1.667,1.15-2.1c0.167-1,1.284-3.617,3.35-7.85c1.867-3.8,3.167-6.5,3.9-8.1
			C39.617,28.383,40.267,27.167,41.5,24.9z"/>
		
			<linearGradient id="SVGID_13_" gradientUnits="userSpaceOnUse" x1="-97.3408" y1="-2.1875" x2="-56.1451" y2="-2.1875" gradientTransform="matrix(-0.267 -0.9637 0.9637 -0.267 -3.351271e-004 1.945198e-004)">
			<stop  offset="0" style="stop-color:#87D6D4"/>
			<stop  offset="1" style="stop-color:#87D6D4;stop-opacity:0"/>
		</linearGradient>
		<path style="fill-rule:evenodd;clip-rule:evenodd;fill:url(#SVGID_13_);" d="M23.3,59.25c0.9,0.3,1.883,2.083,2.95,5.35
			c1.267,3.767,1.967,7.934,2.1,12.5c0.033,0.567,0.167,1.717,0.4,3.45c0.133,0.9,0.05,1.634-0.25,2.2
			c-4.4,1.2-8.133,3.967-11.2,8.3c-1.533,2.2-2.633,4.267-3.3,6.2c0.167-2.533,0.467-5.483,0.9-8.85
			c0.9-6.667,2.05-12.017,3.45-16.051c1.433-4.033,2.683-7.433,3.75-10.199L23.3,59.25z"/>
		
			<linearGradient id="SVGID_14_" gradientUnits="userSpaceOnUse" x1="-97.3232" y1="-14.6621" x2="-86.6121" y2="-14.6621" gradientTransform="matrix(-0.2661 -0.964 0.964 -0.2661 -1.603067e-004 -2.372563e-004)">
			<stop  offset="0" style="stop-color:#87D6D4"/>
			<stop  offset="1" style="stop-color:#87D6D4;stop-opacity:0"/>
		</linearGradient>
		<path style="fill-rule:evenodd;clip-rule:evenodd;fill:url(#SVGID_14_);" d="M7.6,96.5c0.933-1.667,1.85-3.267,2.75-4.8
			c1.833-3.033,2.767-4.117,2.8-3.25c0.067,1.366-0.083,4.383-0.45,9.05c-0.934,0.2-1.85,0.316-2.75,0.35
			C8.183,97.884,7.4,97.434,7.6,96.5z"/>
		
			<linearGradient id="SVGID_15_" gradientUnits="userSpaceOnUse" x1="-100.6553" y1="21.4678" x2="-62.5468" y2="21.4678" gradientTransform="matrix(-0.267 -0.9637 0.9637 -0.267 -5.289912e-005 -2.288818e-005)">
			<stop  offset="0" style="stop-color:#87D6D4"/>
			<stop  offset="1" style="stop-color:#87D6D4;stop-opacity:0"/>
		</linearGradient>
		<path style="fill-rule:evenodd;clip-rule:evenodd;fill:url(#SVGID_15_);" d="M39.1,76.45c-0.2-4,0.117-7.684,0.95-11.05
			c0.8-3.134,1.717-4.934,2.75-5.4c1.034-0.467,1.733,0.316,2.1,2.35c0.333,1.834,0.35,4.467,0.05,7.9l-2,22.4
			c-0.567-1.301-1.15-2.95-1.75-4.95C40,83.733,39.3,79.983,39.1,76.45z"/>
		
			<linearGradient id="SVGID_16_" gradientUnits="userSpaceOnUse" x1="-105.0723" y1="10.4551" x2="-98.3517" y2="10.4551" gradientTransform="matrix(-0.2678 -0.9635 0.9635 -0.2678 -4.637241e-005 -5.704165e-004)">
			<stop  offset="0" style="stop-color:#87D6D4"/>
			<stop  offset="1" style="stop-color:#87D6D4;stop-opacity:0"/>
		</linearGradient>
		<path style="fill-rule:evenodd;clip-rule:evenodd;fill:url(#SVGID_16_);" d="M38.2,92.7c0.933-0.033,1.783,0.767,2.55,2.399
			c0.367,0.801,0.65,1.601,0.85,2.4c-2.667,0.566-5,0.917-7,1.05c0.233-0.967,0.566-1.934,1-2.899
			C36.433,93.717,37.3,92.733,38.2,92.7z"/>
		
			<linearGradient id="SVGID_17_" gradientUnits="userSpaceOnUse" x1="-102.2803" y1="-3.9131" x2="-86.2738" y2="-3.9131" gradientTransform="matrix(-0.2671 -0.9637 0.9637 -0.2671 -3.680587e-005 -7.841587e-004)">
			<stop  offset="0" style="stop-color:#87D6D4"/>
			<stop  offset="1" style="stop-color:#87D6D4;stop-opacity:0"/>
		</linearGradient>
		<path style="fill-rule:evenodd;clip-rule:evenodd;fill:url(#SVGID_17_);" d="M13.75,98.6c1.167-2.133,2.633-4.316,4.4-6.55
			c3.533-4.434,6.817-6.866,9.85-7.3c1.533-0.233,1.733,2.05,0.6,6.85c-0.567,2.4-1.283,4.817-2.15,7.25
			C21.35,98.45,17.117,98.366,13.75,98.6z"/>
		
			<linearGradient id="SVGID_18_" gradientUnits="userSpaceOnUse" x1="-65.7314" y1="32.3765" x2="-33.0454" y2="32.3765" gradientTransform="matrix(-0.2669 -0.9637 0.9637 -0.2669 3.603101e-004 -6.438196e-004)">
			<stop  offset="0" style="stop-color:#87D6D4"/>
			<stop  offset="1" style="stop-color:#87D6D4;stop-opacity:0"/>
		</linearGradient>
		<path style="fill-rule:evenodd;clip-rule:evenodd;fill:url(#SVGID_18_);" d="M45.25,47.15c-0.433,3.267-1.233,6.35-2.4,9.25
			c-0.9-1.434-1.717-3.217-2.45-5.351c-1.433-4.233-1.65-8.05-0.65-11.45s2.75-6.55,5.25-9.45c1.233-1.467,2.367-2.583,3.4-3.35
			c-0.566,2.5-1.233,5.267-2,8.3c-0.467,1.733-0.733,3.7-0.8,5.9C45.5,44.033,45.383,46.083,45.25,47.15z"/>
		
			<linearGradient id="SVGID_19_" gradientUnits="userSpaceOnUse" x1="-72.5972" y1="14.6558" x2="-49.537" y2="14.6558" gradientTransform="matrix(-0.2667 -0.9638 0.9638 -0.2667 -4.869699e-005 -4.144609e-004)">
			<stop  offset="0" style="stop-color:#87D6D4"/>
			<stop  offset="1" style="stop-color:#87D6D4;stop-opacity:0"/>
		</linearGradient>
		<path style="fill-rule:evenodd;clip-rule:evenodd;fill:url(#SVGID_19_);" d="M33.95,47.3c0.433,1.667,0.2,4.767-0.7,9.3
			c-0.6,2.934-1.267,5.617-2,8.051c-0.2,0.767-0.417,1.533-0.65,2.3c-0.233,0.133-0.833-0.733-1.8-2.601
			c-1.533-2.433-2.483-4.149-2.85-5.149c-0.6-1.634-0.25-3.351,1.05-5.15c1-1.767,2.033-3.383,3.1-4.85
			C32.233,46.3,33.517,45.667,33.95,47.3z"/>
		
			<linearGradient id="SVGID_20_" gradientUnits="userSpaceOnUse" x1="-42.3623" y1="36.0166" x2="-19.6661" y2="36.0166" gradientTransform="matrix(-0.2666 -0.9638 0.9638 -0.2666 3.544092e-004 -7.744431e-004)">
			<stop  offset="0" style="stop-color:#87D6D4"/>
			<stop  offset="1" style="stop-color:#87D6D4;stop-opacity:0"/>
		</linearGradient>
		<path style="fill-rule:evenodd;clip-rule:evenodd;fill:url(#SVGID_20_);" d="M44.1,21.1c1.533-2.934,3.133-6.3,4.8-10.1l0.2,2.3
			c0,2.133-0.35,4.684-1.05,7.65c-0.7,3-2.55,5.983-5.55,8.95c-1.467,1.5-2.883,2.684-4.25,3.55c-0.467,0.033,0.083-1.467,1.65-4.5
			C41.933,25.183,43.333,22.567,44.1,21.1z"/>
	</g>
</g>
</svg>
