<?xml version="1.0" encoding="iso-8859-1"?>
<!-- Generator: Adobe Illustrator 15.1.0, SVG Export Plug-In . SVG Version: 6.00 Build 0)  -->
<!DOCTYPE svg PUBLIC "-//W3C//DTD SVG 1.1//EN" "http://www.w3.org/Graphics/SVG/1.1/DTD/svg11.dtd">
<svg version="1.1" id="Layer_1" xmlns="http://www.w3.org/2000/svg" xmlns:xlink="http://www.w3.org/1999/xlink" x="0px" y="0px"
	 width="138.5px" height="122.75px" viewBox="0 0 138.5 122.75" style="enable-background:new 0 0 138.5 122.75;"
	 xml:space="preserve">
<symbol  id="flash2.ai_x2F_Layer_1_x2F__x3C_Path_x3E_" viewBox="0 -1.85 2.2 1.85">
	<g id="Layer_1_37_">
		<polygon style="fill-rule:evenodd;clip-rule:evenodd;fill:#00B699;" points="2.2,-1.85 0,-1.35 1.15,0 		"/>
	</g>
</symbol>
<symbol  id="flash2.ai_x2F_Layer_1_x2F__x3C_Path_x3E__x5F_0" viewBox="0 -1.7 1.85 1.7">
	<g id="Layer_1_72_">
		<path style="fill-rule:evenodd;clip-rule:evenodd;fill:#00B699;" d="M1.85-1.7L0-1.1C0.633-0.533,1-0.167,1.1,0L1.85-1.7z"/>
	</g>
</symbol>
<symbol  id="flash2.ai_x2F_Layer_1_x2F__x3C_Path_x3E__x5F_1" viewBox="0 -1.15 1.4 1.15">
	<g id="Layer_1_36_">
		<polygon style="fill-rule:evenodd;clip-rule:evenodd;fill:#00B699;" points="0,-0.45 1.35,0 1.4,-0.5 1.25,-1.15 		"/>
	</g>
</symbol>
<symbol  id="flash2.ai_x2F_Layer_1_x2F__x3C_Path_x3E__x5F_10" viewBox="0 -1.45 2.1 1.45">
	<g id="Layer_1_27_">
		<polygon style="fill-rule:evenodd;clip-rule:evenodd;fill:#00B699;" points="1.55,0 2.1,-1.25 1.6,-1.45 0,-1.05 		"/>
	</g>
</symbol>
<symbol  id="flash2.ai_x2F_Layer_1_x2F__x3C_Path_x3E__x5F_10_x5F_0" viewBox="0 -1.3 1.8 1.3">
	<g id="Layer_1_62_">
		<polygon style="fill-rule:evenodd;clip-rule:evenodd;fill:#00B699;" points="1.45,0 1.8,-1.15 1.35,-1.3 0,-0.8 		"/>
	</g>
</symbol>
<symbol  id="flash2.ai_x2F_Layer_1_x2F__x3C_Path_x3E__x5F_11" viewBox="0 -1.5 2.1 1.5">
	<g id="Layer_1_26_">
		<polygon style="fill-rule:evenodd;clip-rule:evenodd;fill:#00B699;" points="1.55,0 2.1,-1.25 1.6,-1.5 0,-1.05 		"/>
	</g>
</symbol>
<symbol  id="flash2.ai_x2F_Layer_1_x2F__x3C_Path_x3E__x5F_11_x5F_0" viewBox="0 -1.3 1.8 1.3">
	<g id="Layer_1_61_">
		<polygon style="fill-rule:evenodd;clip-rule:evenodd;fill:#00B699;" points="1.4,0 1.8,-1.15 1.35,-1.3 0,-0.8 		"/>
	</g>
</symbol>
<symbol  id="flash2.ai_x2F_Layer_1_x2F__x3C_Path_x3E__x5F_12" viewBox="-0.01 -1.2 1.56 1.2">
	<g id="Layer_1_25_">
		<path style="fill-rule:evenodd;clip-rule:evenodd;fill:#00B699;" d="M1.55-1.2l-1.4,0.05C0.017-0.817-0.033-0.567,0-0.4
			C0.067-0.267,0.45-0.133,1.15,0L0.6-0.7L1.55-1.2z"/>
	</g>
</symbol>
<symbol  id="flash2.ai_x2F_Layer_1_x2F__x3C_Path_x3E__x5F_12_x5F_0" viewBox="0.01 -1.05 1.29 1.05">
	<g id="Layer_1_60_">
		<path style="fill-rule:evenodd;clip-rule:evenodd;fill:#00B699;" d="M1.05,0l-0.5-0.55l0.75-0.5H0.75L0.1-0.9
			C0-0.6-0.017-0.383,0.05-0.25C0.117-0.117,0.45-0.033,1.05,0z"/>
	</g>
</symbol>
<symbol  id="flash2.ai_x2F_Layer_1_x2F__x3C_Path_x3E__x5F_13" viewBox="-0.029 -1.2 1.529 1.2">
	<g id="Layer_1_24_">
		<path style="fill-rule:evenodd;clip-rule:evenodd;fill:#00B699;" d="M1.15,0L0.6-0.65L1.5-1.2H0.9L0.15-1.1
			C-0.017-0.8-0.067-0.567,0-0.4C0.067-0.233,0.45-0.1,1.15,0z"/>
	</g>
</symbol>
<symbol  id="flash2.ai_x2F_Layer_1_x2F__x3C_Path_x3E__x5F_13_x5F_0" viewBox="0.01 -1.1 1.29 1.1">
	<g id="Layer_1_59_">
		<path style="fill-rule:evenodd;clip-rule:evenodd;fill:#00B699;" d="M1.3-1.1L0.1-0.95C0-0.65-0.017-0.433,0.05-0.3
			c0.034,0.133,0.367,0.233,1,0.3l-0.5-0.6L1.3-1.1z"/>
	</g>
</symbol>
<symbol  id="flash2.ai_x2F_Layer_1_x2F__x3C_Path_x3E__x5F_14" viewBox="0.017 -1.25 1.533 1.25">
	<g id="Layer_1_23_">
		<path style="fill-rule:evenodd;clip-rule:evenodd;fill:#00B699;" d="M1.2,0L0.65-0.7l0.9-0.5l-0.6-0.05l-0.8,0.1
			c-0.133,0.333-0.167,0.566-0.1,0.7C0.083-0.283,0.467-0.133,1.2,0z"/>
	</g>
</symbol>
<symbol  id="flash2.ai_x2F_Layer_1_x2F__x3C_Path_x3E__x5F_14_x5F_0" viewBox="0.01 -1.1 1.29 1.1">
	<g id="Layer_1_58_">
		<path style="fill-rule:evenodd;clip-rule:evenodd;fill:#00B699;" d="M1.1,0L0.55-0.55L1.3-1.1L0.75-1.05L0.1-0.9
			C0-0.6-0.017-0.383,0.05-0.25C0.117-0.117,0.467-0.033,1.1,0z"/>
	</g>
</symbol>
<symbol  id="flash2.ai_x2F_Layer_1_x2F__x3C_Path_x3E__x5F_15" viewBox="0.033 -1.95 2.421 1.95">
	<g id="Layer_1_22_">
		<path style="fill-rule:evenodd;clip-rule:evenodd;fill:#00B699;" d="M1.75,0L1.9-1.05l0.55-0.4C2.483-1.617,2.3-1.783,1.9-1.95
			H0.95c-0.534,0-0.833,0.05-0.9,0.15C0.017-1.733,0.033-1.45,0.1-0.95c0.033,0.167,0.133,0.4,0.3,0.7L1.75,0z"/>
	</g>
</symbol>
<symbol  id="flash2.ai_x2F_Layer_1_x2F__x3C_Path_x3E__x5F_15_x5F_0" viewBox="-0.006 -1.75 2.16 1.75">
	<g id="Layer_1_57_">
		<path style="fill-rule:evenodd;clip-rule:evenodd;fill:#00B699;" d="M1.65,0L1.7-0.95l0.45-0.4c0.033-0.133-0.133-0.267-0.5-0.4
			L0.8-1.7C0.367-1.667,0.117-1.583,0.05-1.45c-0.1,0.133-0.066,0.367,0.1,0.7c0.033,0.167,0.133,0.367,0.3,0.6L1.65,0z"/>
	</g>
</symbol>
<symbol  id="flash2.ai_x2F_Layer_1_x2F__x3C_Path_x3E__x5F_16" viewBox="0 -1.95 2.404 1.95">
	<g id="Layer_1_21_">
		<path style="fill-rule:evenodd;clip-rule:evenodd;fill:#00B699;" d="M1.85-1.05L2.1-1.2c0.167-0.1,0.267-0.183,0.3-0.25
			c0.033-0.167-0.133-0.333-0.5-0.5H0.95c-0.534,0-0.833,0.05-0.9,0.15c-0.066,0.1-0.066,0.383,0,0.85
			c0.034,0.167,0.15,0.4,0.35,0.7L1.7,0L1.85-1.05z"/>
	</g>
</symbol>
<symbol  id="flash2.ai_x2F_Layer_1_x2F__x3C_Path_x3E__x5F_16_x5F_0" viewBox="0.037 -1.75 2.117 1.75">
	<g id="Layer_1_56_">
		<path style="fill-rule:evenodd;clip-rule:evenodd;fill:#00B699;" d="M1.65,0L1.7-0.95l0.45-0.4c0.033-0.133-0.133-0.267-0.5-0.4
			L0.8-1.7C0.367-1.667,0.117-1.6,0.05-1.5c-0.033,0.033,0,0.283,0.1,0.75c0.033,0.167,0.133,0.367,0.3,0.6L1.65,0z"/>
	</g>
</symbol>
<symbol  id="flash2.ai_x2F_Layer_1_x2F__x3C_Path_x3E__x5F_17" viewBox="0.022 -0.85 1.278 0.889">
	<g id="Layer_1_20_">
		<path style="fill-rule:evenodd;clip-rule:evenodd;fill:#00B699;" d="M1.1-0.05l0.2-0.8L0.2-0.7L0.05-0.25
			C-0.083,0.05,0.267,0.117,1.1-0.05z"/>
	</g>
</symbol>
<symbol  id="flash2.ai_x2F_Layer_1_x2F__x3C_Path_x3E__x5F_17_x5F_0" viewBox="0.031 -0.85 1.069 0.864">
	<g id="Layer_1_55_">
		<path style="fill-rule:evenodd;clip-rule:evenodd;fill:#00B699;" d="M0.95-0.15l0.15-0.7L0.15-0.6l-0.1,0.4
			C-0.05,0.067,0.25,0.083,0.95-0.15z"/>
	</g>
</symbol>
<symbol  id="flash2.ai_x2F_Layer_1_x2F__x3C_Path_x3E__x5F_18" viewBox="-0.017 -0.8 1.267 0.839">
	<g id="Layer_1_19_">
		<path style="fill-rule:evenodd;clip-rule:evenodd;fill:#00B699;" d="M1.05-0.05l0.2-0.75l-1.1,0.15L0-0.25
			C-0.1,0.05,0.25,0.117,1.05-0.05z"/>
	</g>
</symbol>
<symbol  id="flash2.ai_x2F_Layer_1_x2F__x3C_Path_x3E__x5F_18_x5F_0" viewBox="-0.009 -0.8 1.059 0.828">
	<g id="Layer_1_54_">
		<path style="fill-rule:evenodd;clip-rule:evenodd;fill:#00B699;" d="M0.95-0.1l0.1-0.7L0.1-0.6L0-0.2
			C-0.067,0.067,0.25,0.1,0.95-0.1z"/>
	</g>
</symbol>
<symbol  id="flash2.ai_x2F_Layer_1_x2F__x3C_Path_x3E__x5F_19" viewBox="-0.017 -0.85 1.267 0.87">
	<g id="Layer_1_18_">
		<path style="fill-rule:evenodd;clip-rule:evenodd;fill:#00B699;" d="M1.05-0.1l0.2-0.75L0.15-0.7L0-0.25
			C-0.1,0.05,0.25,0.1,1.05-0.1z"/>
	</g>
</symbol>
<symbol  id="flash2.ai_x2F_Layer_1_x2F__x3C_Path_x3E__x5F_19_x5F_0" viewBox="-0.009 -0.8 1.059 0.828">
	<g id="Layer_1_53_">
		<path style="fill-rule:evenodd;clip-rule:evenodd;fill:#00B699;" d="M0.95-0.1l0.1-0.7L0.1-0.6L0-0.2
			C-0.067,0.067,0.25,0.1,0.95-0.1z"/>
	</g>
</symbol>
<symbol  id="flash2.ai_x2F_Layer_1_x2F__x3C_Path_x3E__x5F_1_x5F_0" viewBox="0 -1.05 1.2 1.05">
	<g id="Layer_1_71_">
		<polygon style="fill-rule:evenodd;clip-rule:evenodd;fill:#00B699;" points="0,-0.3 1.2,0 1.2,-0.45 1,-1.05 		"/>
	</g>
</symbol>
<symbol  id="flash2.ai_x2F_Layer_1_x2F__x3C_Path_x3E__x5F_2" viewBox="0 -2.7 2.2 2.7">
	<g id="Layer_1_35_">
		<polygon style="fill-rule:evenodd;clip-rule:evenodd;fill:#00B699;" points="0.3,0 2.2,-2 1.35,-2.45 0,-2.7 		"/>
	</g>
</symbol>
<symbol  id="flash2.ai_x2F_Layer_1_x2F__x3C_Path_x3E__x5F_20" viewBox="-0.017 -0.85 1.267 0.87">
	<g id="Layer_1_17_">
		<path style="fill-rule:evenodd;clip-rule:evenodd;fill:#00B699;" d="M1.05-0.1l0.2-0.75L0.15-0.7L0-0.25
			C-0.1,0.05,0.25,0.1,1.05-0.1z"/>
	</g>
</symbol>
<symbol  id="flash2.ai_x2F_Layer_1_x2F__x3C_Path_x3E__x5F_20_x5F_0" viewBox="-0.009 -0.8 1.059 0.828">
	<g id="Layer_1_52_">
		<path style="fill-rule:evenodd;clip-rule:evenodd;fill:#00B699;" d="M0.95-0.1l0.1-0.7L0.1-0.6L0-0.2
			C-0.067,0.067,0.25,0.1,0.95-0.1z"/>
	</g>
</symbol>
<symbol  id="flash2.ai_x2F_Layer_1_x2F__x3C_Path_x3E__x5F_21" viewBox="0.032 -2.25 3.418 2.239">
	<g id="Layer_1_16_">
		<path style="fill-rule:evenodd;clip-rule:evenodd;fill:#00B699;" d="M2.95-0.3l0.5-1.55L1.9-2.25c0.267,0.567,0.4,0.933,0.4,1.1
			c0.034,0.2-0.316,0.066-1.05-0.4l-1.2,0.9C-0.017-0.617,0.1-0.533,0.4-0.4C0.767-0.3,0.967-0.2,1-0.1
			C1.033,0.067,1.683,0,2.95-0.3z"/>
	</g>
</symbol>
<symbol  id="flash2.ai_x2F_Layer_1_x2F__x3C_Path_x3E__x5F_21_x5F_0" viewBox="-0.006 -2 2.905 1.983">
	<g id="Layer_1_51_">
		<path style="fill-rule:evenodd;clip-rule:evenodd;fill:#00B699;" d="M2.6-0.4l0.3-1.35L1.55-2c0.233,0.467,0.367,0.783,0.4,0.95
			C1.983-0.883,1.667-0.983,1-1.35l-1,0.9C-0.033-0.417,0.083-0.367,0.35-0.3C0.683-0.2,0.867-0.117,0.9-0.05
			c0.033,0.066,0.317,0.033,0.85-0.1C2.05-0.217,2.333-0.3,2.6-0.4z"/>
	</g>
</symbol>
<symbol  id="flash2.ai_x2F_Layer_1_x2F__x3C_Path_x3E__x5F_22" viewBox="0.022 -1.35 1.628 1.395">
	<g id="Layer_1_15_">
		<path style="fill-rule:evenodd;clip-rule:evenodd;fill:#00B699;" d="M1.65-0.2v-0.95l-0.3-0.2H0.9L0.55-1.2
			c-0.433,0.034-0.6,0.133-0.5,0.3C0.117-0.8,0.167-0.667,0.2-0.5C0.233-0.333,0.383-0.167,0.65,0C0.75,0.1,1.083,0.033,1.65-0.2z"
			/>
	</g>
</symbol>
<symbol  id="flash2.ai_x2F_Layer_1_x2F__x3C_Path_x3E__x5F_22_x5F_0" viewBox="0.018 -1.2 1.482 1.223">
	<g id="Layer_1_50_">
		<path style="fill-rule:evenodd;clip-rule:evenodd;fill:#00B699;" d="M1.5-0.25l-0.05-0.8L1.15-1.2h-0.4l-0.3,0.15
			c-0.367,0.066-0.5,0.167-0.4,0.3C0.117-0.683,0.167-0.567,0.2-0.4C0.267-0.2,0.417-0.067,0.65,0C0.717,0.067,1-0.017,1.5-0.25z"/>
	</g>
</symbol>
<symbol  id="flash2.ai_x2F_Layer_1_x2F__x3C_Path_x3E__x5F_23" viewBox="-0.013 -1.35 1.663 1.395">
	<g id="Layer_1_14_">
		<path style="fill-rule:evenodd;clip-rule:evenodd;fill:#00B699;" d="M1.6-0.2l0.05-0.95l-0.3-0.2H0.9L0.55-1.2
			C0.117-1.167-0.067-1.067,0-0.9c0.067,0.1,0.117,0.233,0.15,0.4C0.183-0.433,0.333-0.267,0.6,0C0.767,0.1,1.1,0.033,1.6-0.2z"/>
	</g>
</symbol>
<symbol  id="flash2.ai_x2F_Layer_1_x2F__x3C_Path_x3E__x5F_23_x5F_0" viewBox="0.018 -1.25 1.482 1.272">
	<g id="Layer_1_49_">
		<path style="fill-rule:evenodd;clip-rule:evenodd;fill:#00B699;" d="M1.5-0.25l-0.05-0.8l-0.3-0.2L0.75-1.2l-0.3,0.15
			c-0.367,0.066-0.5,0.167-0.4,0.3L0.2-0.4L0.6,0C0.767,0.067,1.067-0.017,1.5-0.25z"/>
	</g>
</symbol>
<symbol  id="flash2.ai_x2F_Layer_1_x2F__x3C_Path_x3E__x5F_24" viewBox="0.05 -0.69 0.758 0.68">
	<g id="Layer_1_13_">
		<path style="fill-rule:evenodd;clip-rule:evenodd;fill:#00B699;" d="M0.8-0.1c0.034-0.4-0.033-0.583-0.2-0.55
			C0.3-0.717,0.133-0.7,0.1-0.6S0.05-0.433,0.05-0.4L0.2-0.05C0.267,0.017,0.467,0,0.8-0.1z"/>
	</g>
</symbol>
<symbol  id="flash2.ai_x2F_Layer_1_x2F__x3C_Path_x3E__x5F_24_x5F_0" viewBox="0.05 -0.613 0.7 0.603">
	<g id="Layer_1_48_">
		<path style="fill-rule:evenodd;clip-rule:evenodd;fill:#00B699;" d="M0.75-0.1C0.717-0.467,0.633-0.633,0.5-0.6
			c-0.267-0.033-0.4,0-0.4,0.1C0.067-0.4,0.05-0.333,0.05-0.3L0.2-0.05C0.267,0.017,0.45,0,0.75-0.1z"/>
	</g>
</symbol>
<symbol  id="flash2.ai_x2F_Layer_1_x2F__x3C_Path_x3E__x5F_25" viewBox="0.05 -0.733 0.75 0.723">
	<g id="Layer_1_12_">
		<path style="fill-rule:evenodd;clip-rule:evenodd;fill:#00B699;" d="M0.8-0.1c0-0.433-0.066-0.633-0.2-0.6
			C0.3-0.767,0.133-0.733,0.1-0.6C0.067-0.5,0.05-0.433,0.05-0.4L0.2-0.05C0.267,0.017,0.467,0,0.8-0.1z"/>
	</g>
</symbol>
<symbol  id="flash2.ai_x2F_Layer_1_x2F__x3C_Path_x3E__x5F_25_x5F_0" viewBox="0 -0.613 0.7 0.629">
	<g id="Layer_1_47_">
		<path style="fill-rule:evenodd;clip-rule:evenodd;fill:#00B699;" d="M0-0.4l0.2,0.35C0.233,0.017,0.317,0.033,0.45,0
			S0.667-0.067,0.7-0.1c0-0.367-0.067-0.533-0.2-0.5c-0.267-0.033-0.4,0-0.4,0.1C0.1-0.467,0.067-0.433,0-0.4z"/>
	</g>
</symbol>
<symbol  id="flash2.ai_x2F_Layer_1_x2F__x3C_Path_x3E__x5F_26" viewBox="-0.012 -0.69 0.772 0.704">
	<g id="Layer_1_11_">
		<path style="fill-rule:evenodd;clip-rule:evenodd;fill:#00B699;" d="M0.75-0.1C0.783-0.5,0.733-0.683,0.6-0.65
			C0.267-0.717,0.1-0.7,0.1-0.6C0-0.567-0.033-0.5,0-0.4l0.15,0.35C0.283,0.05,0.483,0.033,0.75-0.1z"/>
	</g>
</symbol>
<symbol  id="flash2.ai_x2F_Layer_1_x2F__x3C_Path_x3E__x5F_26_x5F_0" viewBox="-0.017 -0.613 0.717 0.637">
	<g id="Layer_1_46_">
		<path style="fill-rule:evenodd;clip-rule:evenodd;fill:#00B699;" d="M0.7-0.1c0-0.367-0.067-0.533-0.2-0.5
			c-0.267-0.033-0.417,0-0.45,0.1C-0.017-0.467-0.033-0.4,0-0.3L0.2,0c0.033,0.033,0.117,0.033,0.25,0S0.667-0.067,0.7-0.1z"/>
	</g>
</symbol>
<symbol  id="flash2.ai_x2F_Layer_1_x2F__x3C_Path_x3E__x5F_27" viewBox="-0.012 -0.69 0.772 0.704">
	<g id="Layer_1_10_">
		<path style="fill-rule:evenodd;clip-rule:evenodd;fill:#00B699;" d="M0.75-0.1C0.783-0.5,0.733-0.683,0.6-0.65
			C0.267-0.717,0.1-0.7,0.1-0.6C0-0.567-0.033-0.483,0-0.35l0.2,0.3C0.267,0.05,0.45,0.033,0.75-0.1z"/>
	</g>
</symbol>
<symbol  id="flash2.ai_x2F_Layer_1_x2F__x3C_Path_x3E__x5F_27_x5F_0" viewBox="0.05 -0.613 0.7 0.646">
	<g id="Layer_1_45_">
		<path style="fill-rule:evenodd;clip-rule:evenodd;fill:#00B699;" d="M0.75-0.1C0.717-0.467,0.633-0.633,0.5-0.6
			c-0.267-0.033-0.4,0-0.4,0.1C0.067-0.4,0.05-0.333,0.05-0.3L0.2,0C0.267,0.067,0.45,0.033,0.75-0.1z"/>
	</g>
</symbol>
<symbol  id="flash2.ai_x2F_Layer_1_x2F__x3C_Path_x3E__x5F_28" viewBox="0.05 -0.733 0.75 0.723">
	<g id="Layer_1_9_">
		<path style="fill-rule:evenodd;clip-rule:evenodd;fill:#00B699;" d="M0.8-0.1c0-0.433-0.066-0.633-0.2-0.6
			C0.3-0.767,0.133-0.733,0.1-0.6C0.067-0.5,0.05-0.433,0.05-0.4L0.2-0.05C0.267,0.017,0.467,0,0.8-0.1z"/>
	</g>
</symbol>
<symbol  id="flash2.ai_x2F_Layer_1_x2F__x3C_Path_x3E__x5F_28_x5F_0" viewBox="0.05 -0.613 0.7 0.596">
	<g id="Layer_1_44_">
		<path style="fill-rule:evenodd;clip-rule:evenodd;fill:#00B699;" d="M0.75-0.15C0.717-0.483,0.633-0.633,0.5-0.6
			c-0.267-0.033-0.4,0-0.4,0.1C0.067-0.4,0.05-0.333,0.05-0.3L0.2-0.05C0.267,0.017,0.45-0.017,0.75-0.15z"/>
	</g>
</symbol>
<symbol  id="flash2.ai_x2F_Layer_1_x2F__x3C_Path_x3E__x5F_29" viewBox="0.05 -0.69 0.75 0.729">
	<g id="Layer_1_8_">
		<path style="fill-rule:evenodd;clip-rule:evenodd;fill:#00B699;" d="M0.8-0.1c0-0.4-0.066-0.583-0.2-0.55
			C0.3-0.717,0.133-0.7,0.1-0.6C0.067-0.467,0.05-0.383,0.05-0.35l0.15,0.3C0.3,0.083,0.5,0.067,0.8-0.1z"/>
	</g>
</symbol>
<symbol  id="flash2.ai_x2F_Layer_1_x2F__x3C_Path_x3E__x5F_29_x5F_0" viewBox="-0.017 -0.613 0.717 0.627">
	<g id="Layer_1_43_">
		<path style="fill-rule:evenodd;clip-rule:evenodd;fill:#00B699;" d="M0.7-0.1c0-0.367-0.067-0.533-0.2-0.5
			c-0.267-0.033-0.417,0-0.45,0.1C-0.017-0.467-0.033-0.4,0-0.3l0.2,0.25C0.267,0.05,0.433,0.033,0.7-0.1z"/>
	</g>
</symbol>
<symbol  id="flash2.ai_x2F_Layer_1_x2F__x3C_Path_x3E__x5F_2_x5F_0" viewBox="0 -2.35 1.95 2.35">
	<g id="Layer_1_70_">
		<polygon style="fill-rule:evenodd;clip-rule:evenodd;fill:#00B699;" points="0.45,0 1.95,-1.9 1.15,-2.2 0,-2.35 		"/>
	</g>
</symbol>
<symbol  id="flash2.ai_x2F_Layer_1_x2F__x3C_Path_x3E__x5F_3" viewBox="0 -1.45 2 1.45">
	<g id="Layer_1_34_">
		<polygon style="fill-rule:evenodd;clip-rule:evenodd;fill:#00B699;" points="0.45,-0.15 0.75,0 2,-0.95 1.3,-1.25 0,-1.45 		"/>
	</g>
</symbol>
<symbol  id="flash2.ai_x2F_Layer_1_x2F__x3C_Path_x3E__x5F_30" viewBox="0 -0.733 0.8 0.723">
	<g id="Layer_1_7_">
		<path style="fill-rule:evenodd;clip-rule:evenodd;fill:#00B699;" d="M0.8-0.1c0-0.4-0.066-0.6-0.2-0.6
			C0.3-0.767,0.133-0.733,0.1-0.6C0.033-0.567,0-0.5,0-0.4l0.2,0.35C0.267,0.017,0.467,0,0.8-0.1z"/>
	</g>
</symbol>
<symbol  id="flash2.ai_x2F_Layer_1_x2F__x3C_Path_x3E__x5F_30_x5F_0" viewBox="-0.017 -0.613 0.717 0.596">
	<g id="Layer_1_42_">
		<path style="fill-rule:evenodd;clip-rule:evenodd;fill:#00B699;" d="M0.7-0.15c0-0.333-0.067-0.483-0.2-0.45
			c-0.267-0.033-0.417,0-0.45,0.1C-0.017-0.467-0.033-0.4,0-0.3c0.033,0.033,0.1,0.117,0.2,0.25C0.267,0.017,0.433-0.017,0.7-0.15z"
			/>
	</g>
</symbol>
<symbol  id="flash2.ai_x2F_Layer_1_x2F__x3C_Path_x3E__x5F_31" viewBox="0.05 -0.69 0.758 0.729">
	<g id="Layer_1_6_">
		<path style="fill-rule:evenodd;clip-rule:evenodd;fill:#00B699;" d="M0.8-0.1c0.034-0.4-0.033-0.583-0.2-0.55
			C0.3-0.717,0.133-0.7,0.1-0.6C0.067-0.467,0.05-0.383,0.05-0.35l0.15,0.3C0.3,0.083,0.5,0.067,0.8-0.1z"/>
	</g>
</symbol>
<symbol  id="flash2.ai_x2F_Layer_1_x2F__x3C_Path_x3E__x5F_31_x5F_0" viewBox="0.05 -0.613 0.65 0.637">
	<g id="Layer_1_41_">
		<path style="fill-rule:evenodd;clip-rule:evenodd;fill:#00B699;" d="M0.7-0.1c0-0.367-0.067-0.533-0.2-0.5
			c-0.267-0.033-0.4,0-0.4,0.1C0.067-0.4,0.05-0.333,0.05-0.3L0.2,0c0.033,0.033,0.117,0.033,0.25,0S0.667-0.067,0.7-0.1z"/>
	</g>
</symbol>
<symbol  id="flash2.ai_x2F_Layer_1_x2F__x3C_Path_x3E__x5F_32" viewBox="0.025 -1.696 1.88 1.68">
	<g id="Layer_1_5_">
		<path style="fill-rule:evenodd;clip-rule:evenodd;fill:#00B699;" d="M1.9-0.25C1.933-1.217,1.783-1.667,1.45-1.6
			c-0.733-0.167-1.133-0.117-1.2,0.15C0.05-1.383-0.017-1.2,0.05-0.9C0.15-0.633,0.3-0.383,0.5-0.15c0.1,0.133,0.333,0.167,0.7,0.1
			C1.467-0.083,1.7-0.15,1.9-0.25z"/>
	</g>
</symbol>
<symbol  id="flash2.ai_x2F_Layer_1_x2F__x3C_Path_x3E__x5F_32_x5F_0" viewBox="-0.029 -1.475 1.729 1.508">
	<g id="Layer_1_40_">
		<path style="fill-rule:evenodd;clip-rule:evenodd;fill:#00B699;" d="M1.7-0.3C1.667-1.167,1.5-1.55,1.2-1.45
			c-0.667-0.066-1.017,0-1.05,0.2C-0.017-1.15-0.067-0.983,0-0.75c0.1,0.233,0.25,0.467,0.45,0.7C0.617,0.117,1.033,0.033,1.7-0.3z"
			/>
	</g>
</symbol>
<symbol  id="flash2.ai_x2F_Layer_1_x2F__x3C_Path_x3E__x5F_33" viewBox="0.025 -1.746 1.88 1.676">
	<g id="Layer_1_4_">
		<path style="fill-rule:evenodd;clip-rule:evenodd;fill:#00B699;" d="M1.9-0.25c0.033-1-0.117-1.467-0.45-1.4
			C0.717-1.817,0.317-1.767,0.25-1.5c-0.2,0.1-0.267,0.283-0.2,0.55c0.133,0.3,0.284,0.567,0.45,0.8C0.6-0.017,1.067-0.05,1.9-0.25z
			"/>
	</g>
</symbol>
<symbol  id="flash2.ai_x2F_Layer_1_x2F__x3C_Path_x3E__x5F_33_x5F_0" viewBox="-0.03 -1.37 2.08 1.376">
	<g id="Layer_1_39_">
		<path style="fill-rule:evenodd;clip-rule:evenodd;fill:#00B699;" d="M1.65-0.15l0.4-0.9c-0.433-0.267-0.667-0.367-0.7-0.3
			C1.15-1.283,1.033-1.233,1-1.2C0.433-1.033,0.1-0.933,0-0.9s0.05,0.117,0.45,0.25l0.4,0.6C0.883,0.05,1.15,0.017,1.65-0.15z"/>
	</g>
</symbol>
<symbol  id="flash2.ai_x2F_Layer_1_x2F__x3C_Path_x3E__x5F_34" viewBox="0.003 -1.515 2.347 1.53">
	<g id="Layer_1_3_">
		<path style="fill-rule:evenodd;clip-rule:evenodd;fill:#00B699;" d="M1.85-0.1l0.5-0.95C1.883-1.417,1.633-1.567,1.6-1.5
			C1.367-1.433,1.217-1.367,1.15-1.3l-1.1,0.2C-0.083-1.067,0.067-0.95,0.5-0.75c0.2,0.2,0.333,0.433,0.4,0.7
			C0.933,0.05,1.25,0.033,1.85-0.1z"/>
	</g>
</symbol>
<symbol  id="flash2.ai_x2F_Layer_1_x2F__x3C_Path_x3E__x5F_34_x5F_0" viewBox="-0.03 -1.337 2.08 1.367">
	<g id="Layer_1_38_">
		<path style="fill-rule:evenodd;clip-rule:evenodd;fill:#00B699;" d="M1.65-0.15L2.05-1c-0.433-0.3-0.667-0.4-0.7-0.3
			C1.15-1.267,1.033-1.217,1-1.15c-0.033,0.033-0.367,0.133-1,0.3C-0.1-0.817,0.05-0.733,0.45-0.6l0.4,0.55
			C0.883,0.083,1.15,0.05,1.65-0.15z"/>
	</g>
</symbol>
<symbol  id="flash2.ai_x2F_Layer_1_x2F__x3C_Path_x3E__x5F_35" viewBox="0.003 -1.532 2.347 1.521">
	<g id="Layer_1_2_">
		<path style="fill-rule:evenodd;clip-rule:evenodd;fill:#00B699;" d="M1.85-0.15l0.5-0.95C1.883-1.467,1.633-1.6,1.6-1.5
			C1.367-1.467,1.217-1.417,1.15-1.35c-0.6,0.133-0.967,0.217-1.1,0.25S0.067-0.967,0.5-0.8c0.2,0.2,0.333,0.433,0.4,0.7
			C0.933,0.033,1.25,0.017,1.85-0.15z"/>
	</g>
</symbol>
<symbol  id="flash2.ai_x2F_Layer_1_x2F__x3C_Path_x3E__x5F_3_x5F_0" viewBox="0 -1.2 1.75 1.2">
	<g id="Layer_1_69_">
		<polygon style="fill-rule:evenodd;clip-rule:evenodd;fill:#00B699;" points="0.45,-0.1 0.75,0 1.75,-0.95 1.1,-1.1 0,-1.2 		"/>
	</g>
</symbol>
<symbol  id="flash2.ai_x2F_Layer_1_x2F__x3C_Path_x3E__x5F_4" viewBox="0 -1.3 1.15 1.3">
	<g id="Layer_1_33_">
		<polygon style="fill-rule:evenodd;clip-rule:evenodd;fill:#00B699;" points="0,-0.4 0.1,-0.15 1.15,0 0.95,-0.5 0.45,-1.3 		"/>
	</g>
</symbol>
<symbol  id="flash2.ai_x2F_Layer_1_x2F__x3C_Path_x3E__x5F_4_x5F_0" viewBox="0 -1.05 1 1.05">
	<g id="Layer_1_68_">
		<polygon style="fill-rule:evenodd;clip-rule:evenodd;fill:#00B699;" points="0,-0.25 0.1,0 1,0 0.8,-0.4 0.35,-1.05 		"/>
	</g>
</symbol>
<symbol  id="flash2.ai_x2F_Layer_1_x2F__x3C_Path_x3E__x5F_5" viewBox="0 -1.45 2 1.45">
	<g id="Layer_1_32_">
		<polygon style="fill-rule:evenodd;clip-rule:evenodd;fill:#00B699;" points="0.4,-0.15 0.75,0 2,-0.95 1.3,-1.2 0,-1.45 		"/>
	</g>
</symbol>
<symbol  id="flash2.ai_x2F_Layer_1_x2F__x3C_Path_x3E__x5F_5_x5F_0" viewBox="0 -1.25 1.8 1.25">
	<g id="Layer_1_67_">
		<polygon style="fill-rule:evenodd;clip-rule:evenodd;fill:#00B699;" points="0.45,-0.15 0.75,0 1.8,-1 1.15,-1.15 0,-1.25 		"/>
	</g>
</symbol>
<symbol  id="flash2.ai_x2F_Layer_1_x2F__x3C_Path_x3E__x5F_6" viewBox="0 -1.45 2 1.45">
	<g id="Layer_1_31_">
		<polygon style="fill-rule:evenodd;clip-rule:evenodd;fill:#00B699;" points="0.45,-0.15 0.75,0 2,-1 1.3,-1.25 0,-1.45 		"/>
	</g>
</symbol>
<symbol  id="flash2.ai_x2F_Layer_1_x2F__x3C_Path_x3E__x5F_6_x5F_0" viewBox="0 -1.2 1.8 1.2">
	<g id="Layer_1_66_">
		<polygon style="fill-rule:evenodd;clip-rule:evenodd;fill:#00B699;" points="0.45,-0.1 0.75,0 1.8,-0.95 1.15,-1.15 0,-1.2 		"/>
	</g>
</symbol>
<symbol  id="flash2.ai_x2F_Layer_1_x2F__x3C_Path_x3E__x5F_7" viewBox="0 -1.4 1.65 1.4">
	<g id="Layer_1_30_">
		<path style="fill-rule:evenodd;clip-rule:evenodd;fill:#00B699;" d="M0.85-0.05L1.6,0L1.5-0.65l-0.65-0.2l0.8-0.5L0.8-1.4L0-1.3
			c0.067,0.367,0.067,0.583,0,0.65L0.85-0.05z"/>
	</g>
</symbol>
<symbol  id="flash2.ai_x2F_Layer_1_x2F__x3C_Path_x3E__x5F_7_x5F_0" viewBox="0 -1.15 1.5 1.15">
	<g id="Layer_1_65_">
		<path style="fill-rule:evenodd;clip-rule:evenodd;fill:#00B699;" d="M0.85,0H1.5L1.35-0.55L0.75-0.7l0.7-0.45H0.7L0-1
			c0.067,0.3,0.083,0.483,0.05,0.55L0.85,0z"/>
	</g>
</symbol>
<symbol  id="flash2.ai_x2F_Layer_1_x2F__x3C_Path_x3E__x5F_8" viewBox="0 -1.65 1.2 1.65">
	<g id="Layer_1_29_">
		<polygon style="fill-rule:evenodd;clip-rule:evenodd;fill:#00B699;" points="1.2,-0.9 0.35,-1.65 0.05,-1.35 0,0 		"/>
	</g>
</symbol>
<symbol  id="flash2.ai_x2F_Layer_1_x2F__x3C_Path_x3E__x5F_8_x5F_0" viewBox="0 -1.5 1 1.5">
	<g id="Layer_1_64_">
		<polygon style="fill-rule:evenodd;clip-rule:evenodd;fill:#00B699;" points="1,-0.9 0.25,-1.5 0,-1.2 0.05,0 		"/>
	</g>
</symbol>
<symbol  id="flash2.ai_x2F_Layer_1_x2F__x3C_Path_x3E__x5F_9" viewBox="0 -1.65 1.2 1.65">
	<g id="Layer_1_28_">
		<polygon style="fill-rule:evenodd;clip-rule:evenodd;fill:#00B699;" points="1.2,-0.95 0.35,-1.65 0.05,-1.35 0,0 		"/>
	</g>
</symbol>
<symbol  id="flash2.ai_x2F_Layer_1_x2F__x3C_Path_x3E__x5F_9_x5F_0" viewBox="0 -1.5 1 1.5">
	<g id="Layer_1_63_">
		<polygon style="fill-rule:evenodd;clip-rule:evenodd;fill:#00B699;" points="1,-0.9 0.2,-1.5 0,-1.2 0,0 		"/>
	</g>
</symbol>
<g>
	
		<linearGradient id="SVGID_1_" gradientUnits="userSpaceOnUse" x1="19.5005" y1="-72.6538" x2="79.508" y2="-72.6538" gradientTransform="matrix(-0.0329 0.9995 -0.9995 -0.0329 3.981180e-004 -1.322627e-004)">
		<stop  offset="0" style="stop-color:#1C9191"/>
		<stop  offset="0.2706" style="stop-color:#107175"/>
		<stop  offset="0.5412" style="stop-color:#07595F"/>
		<stop  offset="0.7922" style="stop-color:#024A52"/>
		<stop  offset="1" style="stop-color:#00454D"/>
	</linearGradient>
	<path style="fill-rule:evenodd;clip-rule:evenodd;fill:url(#SVGID_1_);" d="M127.35,76.75l11.15,24
		c-7.134,3.333-15.184,6.65-24.15,9.95c-17.899,6.633-31.399,9.883-40.5,9.75c-23.899-0.367-43.3-4.95-58.2-13.75
		C8.217,102.3,3.167,97.934,0.5,93.6C10.667,67.9,17.083,52.117,19.75,46.25c7.367-16.167,14.733-28.333,22.1-36.5
		c7.8-8.667,15.683-11.567,23.65-8.7c6.066,2.2,14.083,8.967,24.05,20.3c7.3,8.267,15.783,19.983,25.45,35.15
		C119.866,64.066,123.983,70.816,127.35,76.75z"/>
	
		<linearGradient id="SVGID_2_" gradientUnits="userSpaceOnUse" x1="6.4048" y1="-68.1396" x2="79.4942" y2="-68.1396" gradientTransform="matrix(-0.0329 0.9995 -0.9995 -0.0329 -9.281151e-004 -1.870841e-005)">
		<stop  offset="0" style="stop-color:#008080"/>
		<stop  offset="0.1529" style="stop-color:#007173"/>
		<stop  offset="0.4706" style="stop-color:#00595E"/>
		<stop  offset="0.7608" style="stop-color:#004A51"/>
		<stop  offset="1" style="stop-color:#00454D"/>
	</linearGradient>
	<path style="fill-rule:evenodd;clip-rule:evenodd;fill:url(#SVGID_2_);" d="M119.75,76.55l10.35,18.4
		c-6.633,2.399-14.1,4.816-22.399,7.25C91.1,107.1,78.6,109.7,70.2,110c-8.4,0.3-22.617-2.083-42.65-7.15
		C17.517,100.283,8.333,97.7,0,95.1C7.867,78.9,14.067,66.45,18.6,57.75c8.133-15.8,15.433-26.667,21.9-32.6
		c7.233-6.6,14.533-8.8,21.9-6.6c5.667,1.7,13.1,6.883,22.3,15.55c6.767,6.333,14.633,15.316,23.6,26.95
		C112.8,66.85,116.616,72.017,119.75,76.55z"/>
	
		<linearGradient id="SVGID_3_" gradientUnits="userSpaceOnUse" x1="22.1367" y1="-76.332" x2="92.3494" y2="-76.332" gradientTransform="matrix(-0.0328 0.9995 -0.9995 -0.0328 -2.407171e-004 -1.128465e-004)">
		<stop  offset="0" style="stop-color:#1C9191"/>
		<stop  offset="0.2706" style="stop-color:#107175"/>
		<stop  offset="0.5412" style="stop-color:#07595F"/>
		<stop  offset="0.7922" style="stop-color:#024A52"/>
		<stop  offset="1" style="stop-color:#00454D"/>
	</linearGradient>
	<path style="fill-rule:evenodd;clip-rule:evenodd;fill:url(#SVGID_3_);" d="M118.1,76.7c4.5,5.8,8.317,10.967,11.45,15.5
		l4.95,10.399c-7.467,3.034-15.783,6.101-24.95,9.2c-18.3,6.233-31.649,9.5-40.05,9.8c-8.4,0.301-20.583-2.683-36.55-8.949
		c-8-3.167-15.15-6.351-21.45-9.551c1.933-2.366,4.5-6.5,7.7-12.399c3.933-7.566,7-13.4,9.2-17.5
		c8.567-16.067,15.85-26.85,21.85-32.35c7.233-6.633,14.533-8.85,21.9-6.65c5.633,1.7,13.083,6.883,22.35,15.55
		C101.267,56.117,109.134,65.1,118.1,76.7z"/>
	
		<linearGradient id="SVGID_4_" gradientUnits="userSpaceOnUse" x1="19.7817" y1="-67.9775" x2="74.1607" y2="-67.9775" gradientTransform="matrix(-0.0327 0.9995 -0.9995 -0.0327 -2.855994e-004 4.152954e-005)">
		<stop  offset="0" style="stop-color:#008080"/>
		<stop  offset="0.1529" style="stop-color:#007173"/>
		<stop  offset="0.4706" style="stop-color:#00595E"/>
		<stop  offset="0.7608" style="stop-color:#004A51"/>
		<stop  offset="1" style="stop-color:#00454D"/>
	</linearGradient>
	<path style="fill-rule:evenodd;clip-rule:evenodd;fill:url(#SVGID_4_);" d="M106.4,95.55c3.866,5.167,7.066,9.684,9.6,13.55v0.5
		c-4.733,1.934-10.3,3.934-16.7,6c-12.833,4.101-23.434,6.434-31.8,7c-12.3,0.834-25.067-1.833-38.3-8
		c-4.133-1.933-8.083-4.1-11.85-6.5l-4.35-3c4.467-9.166,8.017-16.233,10.65-21.199C28.383,75,33.967,67.6,40.4,61.7
		c7.233-6.633,14.533-8.85,21.9-6.65c5.633,1.7,13.066,6.883,22.3,15.55C91.366,76.967,98.634,85.283,106.4,95.55z"/>
	<g>
		
			<use xlink:href="#flash2.ai_x2F_Layer_1_x2F__x3C_Path_x3E__x5F_35"  width="2.347" height="1.521" x="0.003" y="-1.532" transform="matrix(1 0 0 -1 86.7002 50.6001)" style="overflow:visible;opacity:0.4883;enable-background:new    ;"/>
		
			<use xlink:href="#flash2.ai_x2F_Layer_1_x2F__x3C_Path_x3E__x5F_34"  width="2.347" height="1.53" x="0.003" y="-1.515" transform="matrix(1 0 0 -1 41.7002 54.5)" style="overflow:visible;opacity:0.4883;enable-background:new    ;"/>
		
			<use xlink:href="#flash2.ai_x2F_Layer_1_x2F__x3C_Path_x3E__x5F_33"  width="1.88" height="1.676" x="0.025" y="-1.746" transform="matrix(1 0 0 -1 81.2998 48.75)" style="overflow:visible;opacity:0.4883;enable-background:new    ;"/>
		
			<use xlink:href="#flash2.ai_x2F_Layer_1_x2F__x3C_Path_x3E__x5F_32"  width="1.88" height="1.68" x="0.025" y="-1.696" transform="matrix(1 0 0 -1 99.5498 67.9004)" style="overflow:visible;opacity:0.4883;enable-background:new    ;"/>
		
			<use xlink:href="#flash2.ai_x2F_Layer_1_x2F__x3C_Path_x3E__x5F_31"  width="0.758" height="0.729" x="0.05" y="-0.69" transform="matrix(1 0 0 -1 71.6504 43.3999)" style="overflow:visible;opacity:0.4883;enable-background:new    ;"/>
		
			<use xlink:href="#flash2.ai_x2F_Layer_1_x2F__x3C_Path_x3E__x5F_30"  width="0.8" height="0.723" y="-0.733" transform="matrix(1 0 0 -1 101.75 61.6001)" style="overflow:visible;opacity:0.4883;enable-background:new    ;"/>
		
			<use xlink:href="#flash2.ai_x2F_Layer_1_x2F__x3C_Path_x3E__x5F_29"  width="0.75" height="0.729" x="0.05" y="-0.69" transform="matrix(1 0 0 -1 81.7998 42.9502)" style="overflow:visible;opacity:0.4883;enable-background:new    ;"/>
		
			<use xlink:href="#flash2.ai_x2F_Layer_1_x2F__x3C_Path_x3E__x5F_28"  width="0.75" height="0.723" x="0.05" y="-0.733" transform="matrix(1 0 0 -1 57.0498 38.1001)" style="overflow:visible;opacity:0.4883;enable-background:new    ;"/>
		
			<use xlink:href="#flash2.ai_x2F_Layer_1_x2F__x3C_Path_x3E__x5F_27"  width="0.772" height="0.704" x="-0.012" y="-0.69" transform="matrix(1 0 0 -1 61.1499 41.5)" style="overflow:visible;opacity:0.4883;enable-background:new    ;"/>
		
			<use xlink:href="#flash2.ai_x2F_Layer_1_x2F__x3C_Path_x3E__x5F_26"  width="0.772" height="0.704" x="-0.012" y="-0.69" transform="matrix(1 0 0 -1 44.3999 49.2998)" style="overflow:visible;opacity:0.4883;enable-background:new    ;"/>
		
			<use xlink:href="#flash2.ai_x2F_Layer_1_x2F__x3C_Path_x3E__x5F_25"  width="0.75" height="0.723" x="0.05" y="-0.733" transform="matrix(1 0 0 -1 115.2998 78.0996)" style="overflow:visible;opacity:0.4883;enable-background:new    ;"/>
		
			<use xlink:href="#flash2.ai_x2F_Layer_1_x2F__x3C_Path_x3E__x5F_24"  width="0.758" height="0.68" x="0.05" y="-0.69" transform="matrix(1 0 0 -1 83.7002 50.1001)" style="overflow:visible;opacity:0.4883;enable-background:new    ;"/>
		
			<use xlink:href="#flash2.ai_x2F_Layer_1_x2F__x3C_Path_x3E__x5F_23"  width="1.663" height="1.395" x="-0.013" y="-1.35" transform="matrix(1 0 0 -1 86.5996 46.6499)" style="overflow:visible;opacity:0.4883;enable-background:new    ;"/>
		
			<use xlink:href="#flash2.ai_x2F_Layer_1_x2F__x3C_Path_x3E__x5F_22"  width="1.628" height="1.395" x="0.022" y="-1.35" transform="matrix(1 0 0 -1 109.4502 69.1504)" style="overflow:visible;opacity:0.4883;enable-background:new    ;"/>
		
			<use xlink:href="#flash2.ai_x2F_Layer_1_x2F__x3C_Path_x3E__x5F_21"  width="3.418" height="2.239" x="0.032" y="-2.25" transform="matrix(1 0 0 -1 81.5996 46.5)" style="overflow:visible;opacity:0.4883;enable-background:new    ;"/>
		
			<use xlink:href="#flash2.ai_x2F_Layer_1_x2F__x3C_Path_x3E__x5F_20"  width="1.267" height="0.87" x="-0.017" y="-0.85" transform="matrix(1 0 0 -1 84.7002 51.1499)" style="overflow:visible;opacity:0.4883;enable-background:new    ;"/>
		
			<use xlink:href="#flash2.ai_x2F_Layer_1_x2F__x3C_Path_x3E__x5F_19"  width="1.267" height="0.87" x="-0.017" y="-0.85" transform="matrix(1 0 0 -1 120.9502 84.4004)" style="overflow:visible;opacity:0.4883;enable-background:new    ;"/>
		
			<use xlink:href="#flash2.ai_x2F_Layer_1_x2F__x3C_Path_x3E__x5F_18"  width="1.267" height="0.839" x="-0.017" y="-0.8" transform="matrix(1 0 0 -1 102.7002 68.5498)" style="overflow:visible;opacity:0.4883;enable-background:new    ;"/>
		
			<use xlink:href="#flash2.ai_x2F_Layer_1_x2F__x3C_Path_x3E__x5F_17"  width="1.278" height="0.889" x="0.022" y="-0.85" transform="matrix(1 0 0 -1 99.25 58.6499)" style="overflow:visible;opacity:0.4883;enable-background:new    ;"/>
		
			<use xlink:href="#flash2.ai_x2F_Layer_1_x2F__x3C_Path_x3E__x5F_16"  width="2.404" height="1.95" y="-1.95" transform="matrix(1 0 0 -1 62.6499 42.9502)" style="overflow:visible;opacity:0.4883;enable-background:new    ;"/>
		
			<use xlink:href="#flash2.ai_x2F_Layer_1_x2F__x3C_Path_x3E__x5F_15"  width="2.421" height="1.95" x="0.033" y="-1.95" transform="matrix(1 0 0 -1 117 79.2002)" style="overflow:visible;opacity:0.4883;enable-background:new    ;"/>
		
			<use xlink:href="#flash2.ai_x2F_Layer_1_x2F__x3C_Path_x3E__x5F_14"  width="1.533" height="1.25" x="0.017" y="-1.25" transform="matrix(1 0 0 -1 72.6504 41.3999)" style="overflow:visible;opacity:0.4883;enable-background:new    ;"/>
		
			<use xlink:href="#flash2.ai_x2F_Layer_1_x2F__x3C_Path_x3E__x5F_13"  width="1.529" height="1.2" x="-0.029" y="-1.2" transform="matrix(1 0 0 -1 104.75 65.2998)" style="overflow:visible;opacity:0.4883;enable-background:new    ;"/>
		
			<use xlink:href="#flash2.ai_x2F_Layer_1_x2F__x3C_Path_x3E__x5F_12"  width="1.56" height="1.2" x="-0.01" y="-1.2" transform="matrix(1 0 0 -1 64 41.2998)" style="overflow:visible;opacity:0.4883;enable-background:new    ;"/>
		
			<use xlink:href="#flash2.ai_x2F_Layer_1_x2F__x3C_Path_x3E__x5F_11"  width="2.1" height="1.5" y="-1.5" transform="matrix(1 0 0 -1 73.25 38.5)" style="overflow:visible;opacity:0.4883;enable-background:new    ;"/>
		
			<use xlink:href="#flash2.ai_x2F_Layer_1_x2F__x3C_Path_x3E__x5F_10"  width="2.1" height="1.45" y="-1.45" transform="matrix(1 0 0 -1 98.6504 60.6001)" style="overflow:visible;opacity:0.4883;enable-background:new    ;"/>
		
			<use xlink:href="#flash2.ai_x2F_Layer_1_x2F__x3C_Path_x3E__x5F_9"  width="1.2" height="1.65" y="-1.65" transform="matrix(1 0 0 -1 69.0996 37.7998)" style="overflow:visible;opacity:0.4883;enable-background:new    ;"/>
		
			<use xlink:href="#flash2.ai_x2F_Layer_1_x2F__x3C_Path_x3E__x5F_8"  width="1.2" height="1.65" y="-1.65" transform="matrix(1 0 0 -1 55.8501 38.2002)" style="overflow:visible;opacity:0.4883;enable-background:new    ;"/>
		
			<use xlink:href="#flash2.ai_x2F_Layer_1_x2F__x3C_Path_x3E__x5F_7"  width="1.65" height="1.4" y="-1.4" transform="matrix(1 0 0 -1 60.7998 46.25)" style="overflow:visible;opacity:0.4883;enable-background:new    ;"/>
		
			<use xlink:href="#flash2.ai_x2F_Layer_1_x2F__x3C_Path_x3E__x5F_6"  width="2" height="1.45" y="-1.45" transform="matrix(1 0 0 -1 51.7002 45.6499)" style="overflow:visible;opacity:0.4883;enable-background:new    ;"/>
		
			<use xlink:href="#flash2.ai_x2F_Layer_1_x2F__x3C_Path_x3E__x5F_5"  width="2" height="1.45" y="-1.45" transform="matrix(1 0 0 -1 63.25 45.8999)" style="overflow:visible;opacity:0.4883;enable-background:new    ;"/>
		
			<use xlink:href="#flash2.ai_x2F_Layer_1_x2F__x3C_Path_x3E__x5F_4"  width="1.15" height="1.3" y="-1.3" transform="matrix(1 0 0 -1 46.2998 47)" style="overflow:visible;opacity:0.4883;enable-background:new    ;"/>
		
			<use xlink:href="#flash2.ai_x2F_Layer_1_x2F__x3C_Path_x3E__x5F_3"  width="2" height="1.45" y="-1.45" transform="matrix(1 0 0 -1 85.7998 52.7998)" style="overflow:visible;opacity:0.4883;enable-background:new    ;"/>
		
			<use xlink:href="#flash2.ai_x2F_Layer_1_x2F__x3C_Path_x3E__x5F_2"  width="2.2" height="2.7" y="-2.7" transform="matrix(1 0 0 -1 91.0996 52.8501)" style="overflow:visible;opacity:0.4883;enable-background:new    ;"/>
		
			<use xlink:href="#flash2.ai_x2F_Layer_1_x2F__x3C_Path_x3E__x5F_1"  width="1.4" height="1.15" y="-1.15" transform="matrix(1 0 0 -1 60.6001 42.5)" style="overflow:visible;opacity:0.4883;enable-background:new    ;"/>
		
			<use xlink:href="#flash2.ai_x2F_Layer_1_x2F__x3C_Path_x3E_"  width="2.2" height="1.85" y="-1.85" transform="matrix(1 0 0 -1 76.7002 39.8999)" style="overflow:visible;opacity:0.4883;enable-background:new    ;"/>
	</g>
	<g>
		
			<use xlink:href="#flash2.ai_x2F_Layer_1_x2F__x3C_Path_x3E__x5F_34_x5F_0"  width="2.08" height="1.367" x="-0.03" y="-1.337" transform="matrix(1 0 0 -1 78.2998 16.7998)" style="overflow:visible;opacity:0.4883;enable-background:new    ;"/>
		
			<use xlink:href="#flash2.ai_x2F_Layer_1_x2F__x3C_Path_x3E__x5F_33_x5F_0"  width="2.08" height="1.376" x="-0.03" y="-1.37" transform="matrix(1 0 0 -1 38.75 16.7998)" style="overflow:visible;opacity:0.4883;enable-background:new    ;"/>
		
			<use xlink:href="#flash2.ai_x2F_Layer_1_x2F__x3C_Path_x3E__x5F_32_x5F_0"  width="1.729" height="1.508" x="-0.029" y="-1.475" transform="matrix(1 0 0 -1 73.75 14.75)" style="overflow:visible;opacity:0.4883;enable-background:new    ;"/>
		
			<use xlink:href="#flash2.ai_x2F_Layer_1_x2F__x3C_Path_x3E__x5F_31_x5F_0"  width="0.65" height="0.637" x="0.05" y="-0.613" transform="matrix(1 0 0 -1 65.75 9.25)" style="overflow:visible;opacity:0.4883;enable-background:new    ;"/>
		
			<use xlink:href="#flash2.ai_x2F_Layer_1_x2F__x3C_Path_x3E__x5F_30_x5F_0"  width="0.717" height="0.596" x="-0.017" y="-0.613" transform="matrix(1 0 0 -1 90.6504 27.5)" style="overflow:visible;opacity:0.4883;enable-background:new    ;"/>
		
			<use xlink:href="#flash2.ai_x2F_Layer_1_x2F__x3C_Path_x3E__x5F_29_x5F_0"  width="0.717" height="0.627" x="-0.017" y="-0.613" transform="matrix(1 0 0 -1 74.6504 9.6001)" style="overflow:visible;opacity:0.4883;enable-background:new    ;"/>
		
			<use xlink:href="#flash2.ai_x2F_Layer_1_x2F__x3C_Path_x3E__x5F_28_x5F_0"  width="0.7" height="0.596" x="0.05" y="-0.613" transform="matrix(1 0 0 -1 53.3999 3.5)" style="overflow:visible;opacity:0.4883;enable-background:new    ;"/>
		
			<use xlink:href="#flash2.ai_x2F_Layer_1_x2F__x3C_Path_x3E__x5F_27_x5F_0"  width="0.7" height="0.646" x="0.05" y="-0.613" transform="matrix(1 0 0 -1 56.7002 6.7998)" style="overflow:visible;opacity:0.4883;enable-background:new    ;"/>
		
			<use xlink:href="#flash2.ai_x2F_Layer_1_x2F__x3C_Path_x3E__x5F_26_x5F_0"  width="0.717" height="0.637" x="-0.017" y="-0.613" transform="matrix(1 0 0 -1 41.5 12.3999)" style="overflow:visible;opacity:0.4883;enable-background:new    ;"/>
		
			<use xlink:href="#flash2.ai_x2F_Layer_1_x2F__x3C_Path_x3E__x5F_25_x5F_0"  width="0.7" height="0.629" y="-0.613" transform="matrix(1 0 0 -1 62.3501 9.0498)" style="overflow:visible;opacity:0.4883;enable-background:new    ;"/>
		
			<use xlink:href="#flash2.ai_x2F_Layer_1_x2F__x3C_Path_x3E__x5F_24_x5F_0"  width="0.7" height="0.603" x="0.05" y="-0.613" transform="matrix(1 0 0 -1 75.75 16.0498)" style="overflow:visible;opacity:0.4883;enable-background:new    ;"/>
		
			<use xlink:href="#flash2.ai_x2F_Layer_1_x2F__x3C_Path_x3E__x5F_23_x5F_0"  width="1.482" height="1.272" x="0.018" y="-1.25" transform="matrix(1 0 0 -1 78.5 13.25)" style="overflow:visible;opacity:0.4883;enable-background:new    ;"/>
		
			<use xlink:href="#flash2.ai_x2F_Layer_1_x2F__x3C_Path_x3E__x5F_22_x5F_0"  width="1.482" height="1.223" x="0.018" y="-1.2" transform="matrix(1 0 0 -1 96.75 34.75)" style="overflow:visible;opacity:0.4883;enable-background:new    ;"/>
		
			<use xlink:href="#flash2.ai_x2F_Layer_1_x2F__x3C_Path_x3E__x5F_21_x5F_0"  width="2.905" height="1.983" x="-0.006" y="-2" transform="matrix(1 0 0 -1 74.2002 12.7998)" style="overflow:visible;opacity:0.4883;enable-background:new    ;"/>
		
			<use xlink:href="#flash2.ai_x2F_Layer_1_x2F__x3C_Path_x3E__x5F_20_x5F_0"  width="1.059" height="0.828" x="-0.009" y="-0.8" transform="matrix(1 0 0 -1 76.5498 17.0498)" style="overflow:visible;opacity:0.4883;enable-background:new    ;"/>
		
			<use xlink:href="#flash2.ai_x2F_Layer_1_x2F__x3C_Path_x3E__x5F_19_x5F_0"  width="1.059" height="0.828" x="-0.009" y="-0.8" transform="matrix(1 0 0 -1 66.7998 15)" style="overflow:visible;opacity:0.4883;enable-background:new    ;"/>
		
			<use xlink:href="#flash2.ai_x2F_Layer_1_x2F__x3C_Path_x3E__x5F_18_x5F_0"  width="1.059" height="0.828" x="-0.009" y="-0.8" transform="matrix(1 0 0 -1 90.9502 33.6499)" style="overflow:visible;opacity:0.4883;enable-background:new    ;"/>
		
			<use xlink:href="#flash2.ai_x2F_Layer_1_x2F__x3C_Path_x3E__x5F_17_x5F_0"  width="1.069" height="0.864" x="0.031" y="-0.85" transform="matrix(1 0 0 -1 88.7002 24.7002)" style="overflow:visible;opacity:0.4883;enable-background:new    ;"/>
		
			<use xlink:href="#flash2.ai_x2F_Layer_1_x2F__x3C_Path_x3E__x5F_16_x5F_0"  width="2.117" height="1.75" x="0.037" y="-1.75" transform="matrix(1 0 0 -1 57.7998 8.25)" style="overflow:visible;opacity:0.4883;enable-background:new    ;"/>
		
			<use xlink:href="#flash2.ai_x2F_Layer_1_x2F__x3C_Path_x3E__x5F_15_x5F_0"  width="2.16" height="1.75" x="-0.006" y="-1.75" transform="matrix(1 0 0 -1 63.6499 10.2002)" style="overflow:visible;opacity:0.4883;enable-background:new    ;"/>
		
			<use xlink:href="#flash2.ai_x2F_Layer_1_x2F__x3C_Path_x3E__x5F_14_x5F_0"  width="1.29" height="1.1" x="0.01" y="-1.1" transform="matrix(1 0 0 -1 66.75 7.6499)" style="overflow:visible;opacity:0.4883;enable-background:new    ;"/>
		
			<use xlink:href="#flash2.ai_x2F_Layer_1_x2F__x3C_Path_x3E__x5F_13_x5F_0"  width="1.29" height="1.1" x="0.01" y="-1.1" transform="matrix(1 0 0 -1 92.9502 31)" style="overflow:visible;opacity:0.4883;enable-background:new    ;"/>
		
			<use xlink:href="#flash2.ai_x2F_Layer_1_x2F__x3C_Path_x3E__x5F_12_x5F_0"  width="1.29" height="1.05" x="0.01" y="-1.05" transform="matrix(1 0 0 -1 59.2002 6.8999)" style="overflow:visible;opacity:0.4883;enable-background:new    ;"/>
		
			<use xlink:href="#flash2.ai_x2F_Layer_1_x2F__x3C_Path_x3E__x5F_11_x5F_0"  width="1.8" height="1.3" y="-1.3" transform="matrix(1 0 0 -1 67.5 5.1499)" style="overflow:visible;opacity:0.4883;enable-background:new    ;"/>
		
			<use xlink:href="#flash2.ai_x2F_Layer_1_x2F__x3C_Path_x3E__x5F_10_x5F_0"  width="1.8" height="1.3" y="-1.3" transform="matrix(1 0 0 -1 87.9502 26.4502)" style="overflow:visible;opacity:0.4883;enable-background:new    ;"/>
		
			<use xlink:href="#flash2.ai_x2F_Layer_1_x2F__x3C_Path_x3E__x5F_9_x5F_0"  width="1" height="1.5" y="-1.5" transform="matrix(1 0 0 -1 63.9502 4.1001)" style="overflow:visible;opacity:0.4883;enable-background:new    ;"/>
		
			<use xlink:href="#flash2.ai_x2F_Layer_1_x2F__x3C_Path_x3E__x5F_8_x5F_0"  width="1" height="1.5" y="-1.5" transform="matrix(1 0 0 -1 52.3501 3.4502)" style="overflow:visible;opacity:0.4883;enable-background:new    ;"/>
		
			<use xlink:href="#flash2.ai_x2F_Layer_1_x2F__x3C_Path_x3E__x5F_7_x5F_0"  width="1.5" height="1.15" y="-1.15" transform="matrix(1 0 0 -1 56 11.0498)" style="overflow:visible;opacity:0.4883;enable-background:new    ;"/>
		
			<use xlink:href="#flash2.ai_x2F_Layer_1_x2F__x3C_Path_x3E__x5F_6_x5F_0"  width="1.8" height="1.2" y="-1.2" transform="matrix(1 0 0 -1 48.1001 9.75)" style="overflow:visible;opacity:0.4883;enable-background:new    ;"/>
		
			<use xlink:href="#flash2.ai_x2F_Layer_1_x2F__x3C_Path_x3E__x5F_5_x5F_0"  width="1.8" height="1.25" y="-1.25" transform="matrix(1 0 0 -1 58.1499 10.7998)" style="overflow:visible;opacity:0.4883;enable-background:new    ;"/>
		
			<use xlink:href="#flash2.ai_x2F_Layer_1_x2F__x3C_Path_x3E__x5F_4_x5F_0"  width="1" height="1.05" y="-1.05" transform="matrix(1 0 0 -1 43.3501 10.6001)" style="overflow:visible;opacity:0.4883;enable-background:new    ;"/>
		
			<use xlink:href="#flash2.ai_x2F_Layer_1_x2F__x3C_Path_x3E__x5F_3_x5F_0"  width="1.75" height="1.2" y="-1.2" transform="matrix(1 0 0 -1 77.3496 18.6001)" style="overflow:visible;opacity:0.4883;enable-background:new    ;"/>
		
			<use xlink:href="#flash2.ai_x2F_Layer_1_x2F__x3C_Path_x3E__x5F_2_x5F_0"  width="1.95" height="2.35" y="-2.35" transform="matrix(1 0 0 -1 81.8496 19)" style="overflow:visible;opacity:0.4883;enable-background:new    ;"/>
		
			<use xlink:href="#flash2.ai_x2F_Layer_1_x2F__x3C_Path_x3E__x5F_1_x5F_0"  width="1.2" height="1.05" y="-1.05" transform="matrix(1 0 0 -1 56.2002 7.7002)" style="overflow:visible;opacity:0.4883;enable-background:new    ;"/>
		
			<use xlink:href="#flash2.ai_x2F_Layer_1_x2F__x3C_Path_x3E__x5F_0"  width="1.85" height="1.7" y="-1.7" transform="matrix(1 0 0 -1 70.3496 6.6001)" style="overflow:visible;opacity:0.4883;enable-background:new    ;"/>
	</g>
</g>
</svg>
