<?xml version="1.0" encoding="iso-8859-1"?>
<!-- Generator: Adobe Illustrator 15.1.0, SVG Export Plug-In . SVG Version: 6.00 Build 0)  -->
<!DOCTYPE svg PUBLIC "-//W3C//DTD SVG 1.1//EN" "http://www.w3.org/Graphics/SVG/1.1/DTD/svg11.dtd">
<svg version="1.1" id="Layer_1" xmlns="http://www.w3.org/2000/svg" xmlns:xlink="http://www.w3.org/1999/xlink" x="0px" y="0px"
	 width="53.8px" height="27.85px" viewBox="0 0 53.8 27.85" style="enable-background:new 0 0 53.8 27.85;" xml:space="preserve">
<g>
	<g>
		<g>
			<path style="fill-rule:evenodd;clip-rule:evenodd;fill:#97B3AB;" d="M47.6,27.05c-1.033,0.533-2.433,0.8-4.199,0.8
				c-0.534-0.033-2.75-0.183-6.65-0.449c-3-0.301-5.55-0.934-7.65-1.9c-2.267-1.066-3.316-2.233-3.149-3.5
				c0.166-1.3,1.333-2.316,3.5-3.05c2.267-0.834,5.066-1.101,8.399-0.8c1.733,0.166,3.384,0.6,4.95,1.3
				c1.634,0.7,2.917,1.583,3.851,2.649c0.899,1,1.416,2,1.55,3C48.333,26,48.134,26.65,47.6,27.05z"/>
		</g>
		<g>
			<path style="fill-rule:evenodd;clip-rule:evenodd;fill:#809DA1;" d="M1.3,20.05c1.067-0.866,2.434-1.517,4.1-1.95
				c1.7-0.433,3.2-0.55,4.5-0.35c1.3,0.2,2.033,0.634,2.2,1.3c0.167,0.667-0.283,1.384-1.35,2.15C9.717,21.967,8.367,22.566,6.7,23
				c-1.667,0.434-3.117,0.6-4.35,0.5c-1.267-0.134-2.017-0.533-2.25-1.2C-0.167,21.634,0.233,20.884,1.3,20.05z"/>
		</g>
		<g>
			<path style="fill-rule:evenodd;clip-rule:evenodd;fill:#86ABAE;" d="M29.95,12.5c0.2,0.567-0.233,1.133-1.3,1.7
				c-1.101,0.566-2.384,0.833-3.851,0.8c-1.466-0.033-2.716-0.3-3.75-0.8c-1-0.467-1.466-1-1.4-1.6c0.033-0.567,0.567-1.033,1.6-1.4
				c1-0.333,2.2-0.467,3.6-0.4C27.917,10.867,29.616,11.433,29.95,12.5z"/>
		</g>
		<g>
			<path style="fill-rule:evenodd;clip-rule:evenodd;fill:#86ABAE;" d="M12.1,8.7c-0.233,1.333-2.167,2.05-5.8,2.15
				c-1.6,0.066-2.966-0.117-4.1-0.55C1.033,9.9,0.433,9.367,0.4,8.7C0.367,8.033,0.917,7.45,2.05,6.95
				c1.133-0.534,2.517-0.833,4.15-0.9c1.633-0.033,3.083,0.233,4.35,0.8C11.75,7.45,12.267,8.067,12.1,8.7z"/>
		</g>
		<g>
			<path style="fill-rule:evenodd;clip-rule:evenodd;fill:#86ABAE;" d="M53.8,10.2c-0.033,1.033-1.05,1.8-3.05,2.3
				c-2.033,0.5-4.3,0.5-6.8,0c-2.533-0.5-4.55-1.167-6.05-2c-1.601-0.9-2.417-1.883-2.45-2.95c0-1.066,1-1.867,3-2.4
				c2.066-0.533,4.366-0.55,6.899-0.05c2.5,0.467,4.534,1.167,6.101,2.1C53.05,8.167,53.833,9.167,53.8,10.2z"/>
		</g>
		<g>
			<path style="fill-rule:evenodd;clip-rule:evenodd;fill:#809DA1;" d="M24.717,1.777c0.073,0.533-0.363,1.029-1.31,1.489
				c-0.987,0.437-2.156,0.647-3.506,0.629c-1.35-0.017-2.507-0.276-3.47-0.778c-0.954-0.469-1.382-0.976-1.287-1.52
				c0.096-0.543,0.606-0.956,1.531-1.238c0.893-0.274,1.982-0.393,3.269-0.358c1.318,0.027,2.417,0.198,3.295,0.516
				C24.15,0.825,24.643,1.245,24.717,1.777z"/>
		</g>
	</g>
</g>
</svg>
