<?xml version="1.0" encoding="iso-8859-1"?>
<!-- Generator: Adobe Illustrator 15.1.0, SVG Export Plug-In . SVG Version: 6.00 Build 0)  -->
<!DOCTYPE svg PUBLIC "-//W3C//DTD SVG 1.1//EN" "http://www.w3.org/Graphics/SVG/1.1/DTD/svg11.dtd">
<svg version="1.1" id="Layer_1" xmlns="http://www.w3.org/2000/svg" xmlns:xlink="http://www.w3.org/1999/xlink" x="0px" y="0px"
	 width="180.55px" height="33.25px" viewBox="0 0 180.55 33.25" style="enable-background:new 0 0 180.55 33.25;"
	 xml:space="preserve">
<symbol  id="flash0.ai_x2F_Layer_1_x2F__x3C_Compound_Path_x3E_" viewBox="0 -33.271 180.55 33.276">
	<g id="Layer_1_2_">
		<path style="fill-rule:evenodd;clip-rule:evenodd;fill:#E4EBEB;" d="M174.45-20.6c-4.867-0.5-9.35-0.433-13.45,0.2
			c-3.933,0.633-7.05,0.367-9.35-0.8c-1.6-0.9-2.967-1.667-4.1-2.3c-2.1-1.167-4.367-2.217-6.8-3.15c-5.067-2-10.583-2.5-16.55-1.5
			c-3.367,0.566-6.483,1.5-9.35,2.8c-1.467-0.933-3.2-1.967-5.2-3.1c-4.033-2.367-8.017-3.767-11.95-4.2
			c-6.633-0.733-11.85-0.817-15.65-0.25c-4.8,0.9-8.233,1.5-10.3,1.8c-3.4,0.434-7.017,0.383-10.85-0.15
			c-4.667-0.667-8.85-0.783-12.55-0.35c-4.2,0.5-8.267,1.75-12.2,3.75c-5.167,3.267-8.85,5.6-11.05,7
			c-3.833,2.434-7.45,3.6-10.85,3.5c-3.5-0.133-5.983-0.333-7.45-0.6c-2.433-0.433-4.7-1.3-6.8-2.6
			c0.833,1.133,2.017,2.183,3.55,3.15c1.333,0.833,2.75,1.5,4.25,2c4.633,1.6,8.983,2.333,13.05,2.2c2.267-0.1,5.65-0.25,10.15-0.45
			c2.333,0.133,4.917,0.767,7.75,1.9c1.633,0.633,4.067,1.733,7.3,3.3c5.4,2.467,10,4.067,13.8,4.8c5.833,1.133,10.5,0.483,14-1.95
			c1.4-1,1.883-1.883,1.45-2.65c-0.267-0.5-1.117-1.1-2.55-1.8c-1.633-0.8-2.65-1.383-3.05-1.75c-0.733-0.7-0.65-1.483,0.25-2.35
			c2.667-2.567,7.133-2.367,13.4,0.6c3.267,1.566,7.033,3.8,11.3,6.7c6.733,3.633,14.267,5.85,22.6,6.65
			c10.467,1,16.533-1.65,18.2-7.95c4.133,0.533,8.8-0.45,14-2.95c1.433-0.7,3.566-1.8,6.4-3.3c2.5-1.3,4.617-2.233,6.35-2.8
			c3.367-1.1,7.433-1.85,12.2-2.25c2.4-0.2,4.45-0.283,6.15-0.25C178.95-20.067,176.917-20.367,174.45-20.6z"/>
	</g>
</symbol>
<use xlink:href="#flash0.ai_x2F_Layer_1_x2F__x3C_Compound_Path_x3E_"  width="180.55" height="33.276" y="-33.271" transform="matrix(1 0 0 -1 0 0)" style="overflow:visible;opacity:0.4492;enable-background:new    ;"/>
</svg>
