<?xml version="1.0" encoding="iso-8859-1"?>
<!-- Generator: Adobe Illustrator 15.1.0, SVG Export Plug-In . SVG Version: 6.00 Build 0)  -->
<!DOCTYPE svg PUBLIC "-//W3C//DTD SVG 1.1//EN" "http://www.w3.org/Graphics/SVG/1.1/DTD/svg11.dtd">
<svg version="1.1" id="Layer_1" xmlns="http://www.w3.org/2000/svg" xmlns:xlink="http://www.w3.org/1999/xlink" x="0px" y="0px"
	 width="190.7px" height="67.25px" viewBox="0 0 190.7 67.25" style="enable-background:new 0 0 190.7 67.25;" xml:space="preserve"
	>
<symbol  id="flash0.ai_x2F_Layer_1_x2F__x3C_Path_x3E_" viewBox="0 -67.265 190.7 67.262">
	<g id="Layer_1_2_">
		<path style="fill-rule:evenodd;clip-rule:evenodd;fill:#E4EBEB;" d="M162.1-45.55c-1.233-2.767-3.867-4.883-7.9-6.35
			c-4.2-1.533-8.684-1.883-13.45-1.05c-0.6,0.1-2.8,0.7-6.6,1.8c-2.566,0.767-4.767,1.017-6.6,0.75c-1.033-0.167-3.066-0.8-6.1-1.9
			c-2.467-0.867-4.55-1.267-6.25-1.2c-1.667,0.067-4.333,0.45-8,1.15c-3.467,0.667-6.133,1-8,1c-2.633,0-4.617-0.5-5.95-1.5
			c-1.567-1.167-1.217-2.633,1.05-4.4c0.3-0.233,1.567-0.633,3.8-1.2c1.833-0.466,2.867-1.1,3.1-1.9c0.333-1.1-0.233-2.117-1.7-3.05
			c-0.7-0.434-1.933-0.983-3.7-1.65c-4.233-1.6-9.25-2.333-15.05-2.2c-5.3,0.1-10.35,0.883-15.15,2.35
			c-2.533,0.767-5.934,2.283-10.2,4.55c-4.533,2.434-7.883,4.033-10.05,4.8c-2.767,1-5.7,1.683-8.8,2.05
			c-0.966,0.1-1.483,0.167-1.55,0.2c-0.1,0.066,0.217,0.233,0.95,0.5c1.5,0.533,4.216,0.566,8.15,0.1
			c2.233-0.3,5.816-0.783,10.75-1.45c8.9-0.767,13.433,1.65,13.6,7.25c-4.967,0.167-8.934,1.867-11.9,5.1
			c-0.3,0.333-0.617,0.917-0.95,1.75c-0.233,0.533-0.75,0.983-1.55,1.35c-1.233,0.567-3.316,0.633-6.25,0.2
			c-1.466-0.2-3.433-0.867-5.9-2c-2.566-1.2-4.5-1.917-5.8-2.15c-2.4-0.4-5.15,0.316-8.25,2.15c-3.7,2.2-6.317,3.4-7.85,3.6
			c-1.1,0.133-2.567,0.017-4.4-0.35c-2.067-0.4-3.533-0.6-4.4-0.6c-2,0-3.983,0.333-5.95,1C3.25-36.183,1.5-35.233,0-34
			c1.967-0.6,4.15-0.917,6.55-0.95c4.8-0.1,8.25,1.167,10.35,3.8c2.2,2.8,3.967,4.767,5.3,5.9c2.7,2.267,5.566,3.517,8.6,3.75
			c2.467,0.2,4.7-0.017,6.7-0.65c1.033-0.3,1.633-0.167,1.8,0.4c0,1.933,0.317,3.6,0.95,5c1.167,2.6,3.867,4.633,8.1,6.1
			c2.333,0.833,4.967,1.35,7.9,1.55c1.933,0.167,4.6,0.2,8,0.1c2.8-0.1,4.617-0.1,5.45,0c2.667,0.267,3.6,1.083,2.8,2.45
			c-0.467,0.767-1.6,1-3.4,0.7c-2-0.467-3.3-0.717-3.9-0.75c1.033,1.233,2.683,2.1,4.95,2.6c1.267,0.3,3.2,0.6,5.8,0.9
			c0.9,0.133,1.917,0.367,3.05,0.7c0.633,0.2,1.617,0.533,2.95,1c3.5,1.1,7.433,1.55,11.8,1.35c4.333-0.167,8.067-0.934,11.2-2.3
			c6.033-2.633,9.633-5.917,10.8-9.85c0.3-1.066,0.467-2.383,0.5-3.95c0-1.3,0.1-2.067,0.3-2.3c0.2-0.267,1.633-0.617,4.3-1.05
			c2.4-0.4,4.017-1.533,4.85-3.4l4.95,2.3c3.833,1.267,7.067,1.167,9.7-0.3c2.4-1.3,4.25-2.85,5.55-4.65
			c0.867-1.233,1.45-1.8,1.75-1.7c0.434,0.133,2.35,1.1,5.75,2.9c3.733,1.3,7.083,0.917,10.05-1.15
			c3.566-2.533,6.383-4.133,8.45-4.8c2.167-0.7,4.533-0.733,7.1-0.1c2.2,0.533,4.8,0.283,7.8-0.75c1.534-0.533,2.833-1.1,3.9-1.7
			c-1.667,0.033-3.5,0-5.5-0.1c-4-0.167-6.883-0.6-8.65-1.3C168.983-37.217,164.167-40.983,162.1-45.55z"/>
	</g>
</symbol>
<use xlink:href="#flash0.ai_x2F_Layer_1_x2F__x3C_Path_x3E_"  width="190.7" height="67.262" y="-67.265" transform="matrix(1 0 0 -1 0 0)" style="overflow:visible;opacity:0.6484;enable-background:new    ;"/>
</svg>
