<?xml version="1.0" encoding="iso-8859-1"?>
<!-- Generator: Adobe Illustrator 15.1.0, SVG Export Plug-In . SVG Version: 6.00 Build 0)  -->
<!DOCTYPE svg PUBLIC "-//W3C//DTD SVG 1.1//EN" "http://www.w3.org/Graphics/SVG/1.1/DTD/svg11.dtd">
<svg version="1.1" id="Layer_1" xmlns="http://www.w3.org/2000/svg" xmlns:xlink="http://www.w3.org/1999/xlink" x="0px" y="0px"
	 width="182.1px" height="198.15px" viewBox="0 0 182.1 198.15" style="enable-background:new 0 0 182.1 198.15;"
	 xml:space="preserve">
<symbol  id="flash0.ai_x2F_Layer_1_x2F__x3C_Clip_Group_0_x3E_" viewBox="-0.023 -186.903 143.711 186.916">
	<g id="Layer_1_12_">
	</g>
	<g>
		<defs>
			<path id="SVGID_1_" d="M143.05-173.9c-0.767,1.533-2.083,3.4-3.95,5.6c-2.333,2.6-4.133,4.667-5.4,6.2
				c-4.867,5.934-8.35,12.35-10.45,19.25c-2.733,8.867-5.333,22.233-7.8,40.1c-2.534,18.333-4,34.75-4.4,49.25
				c-0.2,7.433-1.333,14.75-3.4,21.95c-2.133,7.333-4.967,13.6-8.5,18.8c-3.767,5.567-7.967,9.333-12.6,11.3
				c-5.1,2.133-10.383,1.934-15.85-0.6C58.533-7.683,51.183-22.067,48.65-45.2C45.983-69.1,43.767-86.45,42-97.25
				c-3.667-22.2-7.8-36.9-12.4-44.1c-4.3-6.733-8.9-12.767-13.8-18.1c-2.733-2.966-6.767-7.283-12.1-12.95
				c-3.934-4.633-4.75-7.467-2.45-8.5c2.033-0.934,6.15-0.367,12.35,1.7c5.867,1.934,11.767,3.133,17.7,3.6
				c6,0.467,7.717-0.233,5.15-2.1c-1.3-0.933-1.65-1.983-1.05-3.15c0.567-1.133,1.934-2.183,4.1-3.15
				c5.033-2.3,11.383-3.233,19.05-2.8c9.633,0.533,21.267,3.25,34.9,8.15c7.466,2.667,12.133,4.283,14,4.85
				c4.767,1.433,8.767,2.15,12,2.15c4.433,0,10.65-1.333,18.65-4c2.6-0.833,4.233-1.2,4.9-1.1
				C143.9-176.617,143.917-175.667,143.05-173.9z"/>
		</defs>
		<clipPath id="SVGID_2_">
			<use xlink:href="#SVGID_1_"  style="overflow:visible;"/>
		</clipPath>
		<g id="Layer_3_1_" style="clip-path:url(#SVGID_2_);">
			
				<use xlink:href="#flash0.ai_x2F_Layer_1_x2F__x3C_Path_x3E__x5F_5"  width="37.3" height="6.305" y="-6.305" transform="matrix(1 0 0 1 60.4502 -3.8999)" style="overflow:visible;opacity:0.4414;enable-background:new    ;"/>
			
				<use xlink:href="#flash0.ai_x2F_Layer_1_x2F__x3C_Path_x3E__x5F_4"  width="50.25" height="9.628" y="-9.628" transform="matrix(1 0 0 1 53.9502 -13.3999)" style="overflow:visible;opacity:0.4414;enable-background:new    ;"/>
			
				<use xlink:href="#flash0.ai_x2F_Layer_1_x2F__x3C_Path_x3E__x5F_3"  width="79.564" height="20.223" x="-0.014" y="-20.223" transform="matrix(1 0 0 1 39.5 -93.6499)" style="overflow:visible;opacity:0.4414;enable-background:new    ;"/>
			
				<use xlink:href="#flash0.ai_x2F_Layer_1_x2F__x3C_Path_x3E__x5F_2"  width="79.55" height="11.453" y="-11.453" transform="matrix(1 0 0 1 40.6499 -88.3501)" style="overflow:visible;opacity:0.4414;enable-background:new    ;"/>
			
				<use xlink:href="#flash0.ai_x2F_Layer_1_x2F__x3C_Path_x3E__x5F_1"  width="81.129" height="30.789" x="-0.009" y="-30.789" transform="matrix(1 0 0 1 41.3999 -64.1001)" style="overflow:visible;opacity:0.4414;enable-background:new    ;"/>
			
				<use xlink:href="#flash0.ai_x2F_Layer_1_x2F__x3C_Path_x3E_"  width="58.25" height="8.081" y="-8.081" transform="matrix(1 0 0 1 50.1499 -24.75)" style="overflow:visible;opacity:0.4414;enable-background:new    ;"/>
		</g>
	</g>
	<g id="Layer_4_1_">
	</g>
</symbol>
<symbol  id="flash0.ai_x2F_Layer_1_x2F__x3C_Path_x3E_" viewBox="0 -8.081 58.25 8.081">
	<g id="Layer_1_9_">
		<path style="fill-rule:evenodd;clip-rule:evenodd;fill:#8566C7;" d="M57.85-3.8C53.083-5.433,47.1-6.65,39.9-7.45
			C25.5-9.017,12.2-7.667,0-3.4l1.15,2.65c4.367-1.9,10.033-3.283,17-4.15C32.017-6.667,45.383-5.033,58.25,0L57.85-3.8z"/>
	</g>
</symbol>
<symbol  id="flash0.ai_x2F_Layer_1_x2F__x3C_Path_x3E__x5F_1" viewBox="-0.009 -30.789 81.129 30.789">
	<g id="Layer_1_8_">
		<path style="fill-rule:evenodd;clip-rule:evenodd;fill:#8566C7;" d="M67.25-11.45c-2.8-1.1-6.25-2.083-10.35-2.95
			c-2.2-0.267-3.95-0.483-5.25-0.65c-2.4-0.367-3.983-0.95-4.75-1.75c-0.233-0.2-0.433-0.633-0.6-1.3
			c-0.167-0.633-0.383-1.05-0.65-1.25c-0.8-0.633-1.583-0.566-2.35,0.2c-0.933,0.933-1.667,1.367-2.2,1.3
			c-1.434-0.2-2.267-2.167-2.5-5.9c-0.233-4-0.767-6.25-1.6-6.75c-1.467-0.867-2.267,0.217-2.4,3.25
			c0.167,3.467,0.183,5.417,0.05,5.85c-0.3,1.2-0.717,1.75-1.25,1.65c-0.5-0.1-0.9-0.717-1.2-1.85c-0.067-0.367-0.25-1.233-0.55-2.6
			c-0.433-1-1.033-1-1.8,0c-0.434,0.534-0.483,1.483-0.15,2.85c0.333,1.467,0.367,2.483,0.1,3.05c-0.5,1.066-1.55,1.816-3.15,2.25
			c-0.233,0.066-1.566,0.283-4,0.65c-3.533,0.533-6.816,1.267-9.85,2.2C9.767-12.233,7.167-11.117,5-9.85
			C3.4-8.783,2.45-8.133,2.15-7.9C0.617-6.767-0.1-5.95,0-5.45l1.15,4.9C3.85-4.183,9-6.917,16.6-8.75
			c6.833-1.667,14.667-2.367,23.5-2.1c8.6,0.233,16.316,1.283,23.15,3.15C70.517-5.7,75.3-3.133,77.6,0l3.5-1.65
			c0.233-0.1-1.6-1.934-5.5-5.5C73.3-8.75,70.517-10.183,67.25-11.45z"/>
	</g>
</symbol>
<symbol  id="flash0.ai_x2F_Layer_1_x2F__x3C_Path_x3E__x5F_2" viewBox="0 -11.453 79.55 11.453">
	<g id="Layer_1_7_">
		<path style="fill-rule:evenodd;clip-rule:evenodd;fill:#8566C7;" d="M63.85-8.55c-7.067-1.667-15.133-2.617-24.2-2.85
			c-8.967-0.233-17.017,0.3-24.15,1.6C7.833-8.433,2.667-6.433,0-3.8l1.15,3.4C2.683-3.167,7.233-5.283,14.8-6.75
			c6.8-1.333,14.833-1.933,24.1-1.8c9.133,0.1,17.133,0.883,24,2.35C70.367-4.6,74.783-2.533,76.15,0l3.4-1.15
			C76.817-4.217,71.583-6.683,63.85-8.55z"/>
	</g>
</symbol>
<symbol  id="flash0.ai_x2F_Layer_1_x2F__x3C_Path_x3E__x5F_3" viewBox="-0.014 -20.223 79.564 20.223">
	<g id="Layer_1_6_">
		<path style="fill-rule:evenodd;clip-rule:evenodd;fill:#8566C7;" d="M43.1-11.25c-3.767-0.2-8.783-0.2-15.05,0
			c-2.933,0.433-5.216,0.733-6.85,0.9c-2.967,0.367-5.167,0.067-6.6-0.9c-0.1-0.067-0.333-0.6-0.7-1.6c-0.2-0.6-0.6-0.583-1.2,0.05
			c-0.133,0.133-0.184,0.65-0.15,1.55c0.034,0.733-0.083,1.05-0.35,0.95c-0.7-1.133-1.05-2.817-1.05-5.05c0-0.367,0-1.2,0-2.5
			c-0.066-1.2-0.333-1.933-0.8-2.2c-0.633-0.367-1.033-0.15-1.2,0.65c-0.066,0.3-0.1,0.983-0.1,2.05C9.25-15.45,9.4-14,9.5-13
			c0.133,1.833-0.15,3.2-0.85,4.1C8.483-8.7,6.9-7.883,3.9-6.45C1.133-5.15-0.167-4.267,0-3.8l1.15,3.4
			C2.683-3.167,7.233-5.283,14.8-6.75c6.8-1.333,14.85-1.933,24.15-1.8c9.133,0.1,17.133,0.883,24,2.35
			c7.433,1.6,11.833,3.667,13.2,6.2l3.4-1.15c-1.8-2.033-4.867-3.867-9.2-5.5C63.45-9.15,54.367-10.683,43.1-11.25z"/>
	</g>
</symbol>
<symbol  id="flash0.ai_x2F_Layer_1_x2F__x3C_Path_x3E__x5F_4" viewBox="0 -9.628 50.25 9.628">
	<g id="Layer_1_5_">
		<path style="fill-rule:evenodd;clip-rule:evenodd;fill:#8566C7;" d="M50.25-4.55c-3.033-1.767-7.4-3.133-13.1-4.1
			C25.717-10.617,13.333-9.617,0-5.65l3.05,4.9c4.4-1.333,9.517-2.3,15.35-2.9C30.067-4.85,39.55-3.633,46.85,0L50.25-4.55z"/>
	</g>
</symbol>
<symbol  id="flash0.ai_x2F_Layer_1_x2F__x3C_Path_x3E__x5F_4_x5F_0" viewBox="0 -17.6 14.65 17.6">
	<g id="Layer_1_11_">
		<path style="fill-rule:evenodd;clip-rule:evenodd;fill:#C3A331;" d="M14.65-8.8c0-2.434-0.717-4.5-2.15-6.2
			c-1.4-1.733-3.117-2.6-5.15-2.6s-3.767,0.867-5.2,2.6C0.717-13.3,0-11.233,0-8.8c0,2.433,0.717,4.5,2.15,6.2
			C3.583-0.867,5.317,0,7.35,0s3.75-0.867,5.15-2.6C13.933-4.3,14.65-6.367,14.65-8.8z"/>
	</g>
</symbol>
<symbol  id="flash0.ai_x2F_Layer_1_x2F__x3C_Path_x3E__x5F_5" viewBox="0 -6.305 37.3 6.305">
	<g id="Layer_1_4_">
		<path style="fill-rule:evenodd;clip-rule:evenodd;fill:#8566C7;" d="M4.55-0.4c2.367-0.633,5.284-1.1,8.75-1.4
			c7-0.567,13.35,0.033,19.05,1.8l4.95-3.8C34-4.8,29.967-5.533,25.2-6C15.7-6.867,7.3-5.883,0-3.05L4.55-0.4z"/>
	</g>
</symbol>
<symbol  id="flash0.ai_x2F_Layer_1_x2F__x3C_Path_x3E__x5F_5_x5F_0" viewBox="0 -17.6 14.65 17.6">
	<g id="Layer_1_10_">
		<path style="fill-rule:evenodd;clip-rule:evenodd;fill:#C3A331;" d="M14.65-8.8c0-2.434-0.717-4.517-2.15-6.25
			c-1.433-1.7-3.167-2.55-5.2-2.55c-2.033,0-3.75,0.85-5.15,2.55C0.717-13.317,0-11.233,0-8.8c0,2.433,0.717,4.5,2.15,6.2
			C3.55-0.867,5.267,0,7.3,0c2.034,0,3.767-0.867,5.2-2.6C13.933-4.3,14.65-6.367,14.65-8.8z"/>
	</g>
</symbol>
<symbol  id="flash0.ai_x2F_Layer_1_x2F__x3C_Path_x3E__x5F_7" viewBox="-0.025 -45.044 165.019 45.05">
	<g id="Layer_1_3_">
		<path style="fill-rule:evenodd;clip-rule:evenodd;fill:#40454D;" d="M124.4-10.25c6.667-2.833,10.733-4.567,12.2-5.2
			c4.6-2.033,8.6-3.933,12-5.7c15.6-9.5,20.066-13.483,13.4-11.95c-1.5,0.333-5.45,1.317-11.85,2.95
			c-5.533,1.433-9.483,2.367-11.85,2.8c-4.433,0.833-9.533,0.667-15.3-0.5c-2.067-0.4-7.017-1.717-14.85-3.95
			c-1.033-0.3-6.5-2.067-16.4-5.3c-6.6-2.167-12.15-3.667-16.65-4.5c-9.767-1.9-15.817-2.95-18.15-3.15
			c-9.1-0.9-14.617,0.267-16.55,3.5c-0.767,1.267-0.483,3.133,0.85,5.6c1.367,2.533,1.967,4,1.8,4.4c-0.433,1-3.2,1.1-8.3,0.3
			c-3.933-0.633-7.65-1.466-11.15-2.5c-6.533-1.933-9.9-2.917-10.1-2.95c-4.067-0.967-7.55-1.15-10.45-0.55
			C1.217-36.55,0.2-35.733,0-34.5c-0.2,1.367,0.817,2.783,3.05,4.25c10.467,6.833,19.8,11.933,28,15.3
			c10.434,4.267,22.383,7.333,35.85,9.2c1.434,0.2,3.783,1.233,7.05,3.1C77.017-0.917,79.4-0.033,81.1,0
			C93.7,0.167,108.133-3.25,124.4-10.25z"/>
	</g>
</symbol>
<symbol  id="flash0.ai_x2F_Layer_1_x2F__x3C_Path_x3E__x5F_8" viewBox="-0.014 -56.913 182.114 56.917">
	<g id="Layer_1_2_">
		<path style="fill-rule:evenodd;clip-rule:evenodd;fill:#717773;" d="M163.45-28.65c10.8-6.467,16.933-12.133,18.4-17
			c0.6-1.967,0.117-3.017-1.45-3.15c-1.167-0.067-3.617,0.45-7.35,1.55c-12.3,3.733-21.583,5.933-27.85,6.6
			c-6.3,0.667-16.217-0.983-29.75-4.95c-17.9-5.233-31.767-8.583-41.6-10.05C62.783-57.317,54.5-57.333,49-55.7
			c-6.6,2-7.083,6.117-1.45,12.35c2.133,2.367-0.05,2.8-6.55,1.3c-0.3-0.067-7.117-1.934-20.45-5.6
			c-8.533-2.367-14.7-2.467-18.5-0.3c-1.7,0.967-2.35,2.233-1.95,3.8c0.433,1.7,2.017,3.533,4.75,5.5
			c8.933,6.333,21.2,11.283,36.8,14.85c5.5,1.267,20.567,3.867,45.2,7.8c1.7,0.267,2.367,3.017,2,8.25
			C88.517-2.617,89.233-0.033,91,0c7.133,0.1,15.133-1.517,24-4.85c4.567-1.7,11.967-5.083,22.2-10.15
			C150.467-21.567,159.217-26.117,163.45-28.65z"/>
	</g>
</symbol>
<g>
	
		<use xlink:href="#flash0.ai_x2F_Layer_1_x2F__x3C_Path_x3E__x5F_8"  width="182.114" height="56.917" x="-0.014" y="-56.913" transform="matrix(1 0 0 -1 0 141.25)" style="overflow:visible;opacity:0.25;enable-background:new    ;"/>
	
		<use xlink:href="#flash0.ai_x2F_Layer_1_x2F__x3C_Path_x3E__x5F_7"  width="165.019" height="45.05" x="-0.025" y="-45.044" transform="matrix(1 0 0 -1 9.1499 148.6504)" style="overflow:visible;opacity:0.2305;enable-background:new    ;"/>
	
		<radialGradient id="SVGID_3_" cx="106.2002" cy="7.5" r="151.5" gradientTransform="matrix(1 0 0 -1.0002 0 15.0019)" gradientUnits="userSpaceOnUse">
		<stop  offset="0" style="stop-color:#5CDAE3"/>
		<stop  offset="0.1451" style="stop-color:#3EC7DD"/>
		<stop  offset="0.3412" style="stop-color:#1CB1D5"/>
		<stop  offset="0.5059" style="stop-color:#08A3D1"/>
		<stop  offset="0.6118" style="stop-color:#009ECF"/>
		<stop  offset="1" style="stop-color:#00577D"/>
	</radialGradient>
	<path style="fill-rule:evenodd;clip-rule:evenodd;fill:url(#SVGID_3_);" d="M105.45,1.45c4.633,1.966,8.833,5.733,12.6,11.3
		c3.533,5.2,6.367,11.467,8.5,18.8c2.066,7.2,3.2,14.517,3.4,21.95c0.399,14.5,1.866,30.917,4.399,49.25
		c2.467,17.866,5.067,31.233,7.801,40.1c2.1,6.9,5.583,13.317,10.449,19.25c1.267,1.534,3.067,3.601,5.4,6.2
		c1.866,2.2,3.184,4.066,3.95,5.601c0.866,1.767,0.85,2.716-0.05,2.85c-0.667,0.1-2.301-0.267-4.9-1.1c-8-2.667-14.217-4-18.65-4
		c-3.233,0-7.233,0.716-12,2.149c-1.866,0.566-6.533,2.184-14,4.851c-13.633,4.899-25.266,7.616-34.899,8.149
		c-7.667,0.434-14.017-0.5-19.05-2.8c-2.167-0.967-3.533-2.017-4.1-3.15c-0.6-1.166-0.25-2.216,1.05-3.149
		c2.566-1.867,0.85-2.566-5.15-2.101c-5.934,0.467-11.833,1.667-17.7,3.601c-6.2,2.066-10.317,2.633-12.35,1.7
		c-2.3-1.034-1.483-3.867,2.45-8.5c5.333-5.667,9.367-9.983,12.1-12.95c4.9-5.334,9.5-11.367,13.8-18.101
		c4.6-7.199,8.733-21.899,12.4-44.1c1.767-10.8,3.983-28.15,6.65-52.05c1.4-12.6,4.25-22.633,8.55-30.1
		c3.566-6.167,8.066-10.517,13.5-13.05C95.066-0.483,100.35-0.683,105.45,1.45z"/>
	
		<use xlink:href="#flash0.ai_x2F_Layer_1_x2F__x3C_Clip_Group_0_x3E_"  width="143.711" height="186.916" x="-0.023" y="-186.903" transform="matrix(1 0 0 -1 18.8999 0)" style="overflow:visible;"/>
	
		<use xlink:href="#flash0.ai_x2F_Layer_1_x2F__x3C_Path_x3E__x5F_5_x5F_0"  width="14.65" height="17.6" y="-17.6" transform="matrix(1 0 0 -1 80.1001 42.8999)" style="overflow:visible;opacity:0.4688;enable-background:new    ;"/>
	
		<use xlink:href="#flash0.ai_x2F_Layer_1_x2F__x3C_Path_x3E__x5F_4_x5F_0"  width="14.65" height="17.6" y="-17.6" transform="matrix(1 0 0 -1 101.4004 43.1001)" style="overflow:visible;opacity:0.4688;enable-background:new    ;"/>
	
		<linearGradient id="SVGID_4_" gradientUnits="userSpaceOnUse" x1="-53.0127" y1="90.6948" x2="-38.781" y2="90.6948" gradientTransform="matrix(0.0668 -0.9978 0.9978 0.0668 1.048669e-004 1.657903e-004)">
		<stop  offset="0" style="stop-color:#CCE4E4"/>
		<stop  offset="1" style="stop-color:#B8D9BD"/>
	</linearGradient>
	<path style="fill-rule:evenodd;clip-rule:evenodd;fill:url(#SVGID_4_);" d="M91.95,46.5c1.233,1.5,1.85,3.3,1.85,5.4
		c0,2.133-0.616,3.95-1.85,5.45c-1.267,1.5-2.784,2.25-4.55,2.25c-1.733,0-3.233-0.75-4.5-2.25c-1.233-1.5-1.85-3.317-1.85-5.45
		c0-2.1,0.617-3.9,1.85-5.4c1.267-1.5,2.767-2.25,4.5-2.25C89.167,44.25,90.683,45,91.95,46.5z"/>
	
		<linearGradient id="SVGID_5_" gradientUnits="userSpaceOnUse" x1="-49.5229" y1="112.0566" x2="-36.4384" y2="112.0566" gradientTransform="matrix(0.0726 -0.9974 0.9974 0.0726 -1.805276e-005 2.130866e-005)">
		<stop  offset="0" style="stop-color:#CCE4E4"/>
		<stop  offset="1" style="stop-color:#B8D9BD"/>
	</linearGradient>
	<path style="fill-rule:evenodd;clip-rule:evenodd;fill:url(#SVGID_5_);" d="M113.05,46.5c1.267,1.5,1.9,3.3,1.9,5.4
		c0,2.133-0.634,3.95-1.9,5.45c-1.233,1.5-2.733,2.25-4.5,2.25c-1.733,0-3.233-0.75-4.5-2.25c-1.233-1.5-1.85-3.317-1.85-5.45
		c0-2.1,0.616-3.9,1.85-5.4c1.267-1.5,2.767-2.25,4.5-2.25C110.316,44.25,111.816,45,113.05,46.5z"/>
	<linearGradient id="SVGID_6_" gradientUnits="userSpaceOnUse" x1="85.2627" y1="51.8999" x2="89.8377" y2="51.8999">
		<stop  offset="0" style="stop-color:#242224"/>
		<stop  offset="0.2392" style="stop-color:#27252E"/>
		<stop  offset="0.6392" style="stop-color:#302E49"/>
		<stop  offset="1" style="stop-color:#3A3866"/>
	</linearGradient>
	<path style="fill-rule:evenodd;clip-rule:evenodd;fill:url(#SVGID_6_);" d="M89.8,51.9c0,0.934-0.216,1.733-0.65,2.4
		c-0.433,0.667-0.967,1-1.6,1s-1.183-0.333-1.65-1c-0.433-0.633-0.65-1.433-0.65-2.4c0-0.933,0.217-1.733,0.65-2.4
		c0.467-0.667,1.017-1,1.65-1s1.167,0.333,1.6,1C89.583,50.167,89.8,50.967,89.8,51.9z"/>
	<linearGradient id="SVGID_7_" gradientUnits="userSpaceOnUse" x1="106.5752" y1="51.5752" x2="111.126" y2="51.5752">
		<stop  offset="0" style="stop-color:#242224"/>
		<stop  offset="0.2392" style="stop-color:#27252E"/>
		<stop  offset="0.6392" style="stop-color:#302E49"/>
		<stop  offset="1" style="stop-color:#3A3866"/>
	</linearGradient>
	<path style="fill-rule:evenodd;clip-rule:evenodd;fill:url(#SVGID_7_);" d="M110.5,49.15c0.434,0.667,0.65,1.483,0.65,2.45
		c0,0.933-0.217,1.733-0.65,2.4c-0.467,0.667-1.017,1-1.65,1c-0.633,0-1.166-0.333-1.6-1s-0.65-1.467-0.65-2.4
		c0-0.967,0.217-1.783,0.65-2.45c0.434-0.667,0.967-1,1.6-1C109.483,48.15,110.033,48.483,110.5,49.15z"/>
</g>
</svg>
