<?xml version="1.0" encoding="iso-8859-1"?>
<!-- Generator: Adobe Illustrator 15.1.0, SVG Export Plug-In . SVG Version: 6.00 Build 0)  -->
<!DOCTYPE svg PUBLIC "-//W3C//DTD SVG 1.1//EN" "http://www.w3.org/Graphics/SVG/1.1/DTD/svg11.dtd">
<svg version="1.1" id="Layer_1" xmlns="http://www.w3.org/2000/svg" xmlns:xlink="http://www.w3.org/1999/xlink" x="0px" y="0px"
	 width="142.45px" height="158.55px" viewBox="0 0 142.45 158.55" style="enable-background:new 0 0 142.45 158.55;"
	 xml:space="preserve">
<symbol  id="flash0.ai_x2F_Layer_1_x2F__x3C_Clip_Group_0_x3E_" viewBox="-0.008 -150.99 115.458 151.058">
	<g id="Layer_1_12_">
	</g>
	<g>
		<defs>
			<path id="SVGID_1_" d="M114.9-140.5c-0.333,0.667-2.833,3.85-7.5,9.55c-3.9,4.8-6.7,9.967-8.4,15.5
				c-2.167,7.233-4.25,18.05-6.25,32.45c-2.033,14.867-3.2,28.117-3.5,39.75c-0.367,13.033-3.567,24.017-9.6,32.95
				C73.05-0.533,65.433,2.333,56.8-1.7c-9.733-4.533-15.633-16.15-17.7-34.85c-2.133-19.3-3.917-33.317-5.35-42.05
				c-2.933-17.933-6.25-29.8-9.95-35.6c-3.466-5.433-7.167-10.3-11.1-14.6c-2.2-2.4-5.434-5.9-9.7-10.5
				c-3.167-3.733-3.833-6.034-2-6.9c1.633-0.733,4.95-0.267,9.95,1.4c4.7,1.566,9.433,2.533,14.2,2.9c4.867,0.4,6.25-0.15,4.15-1.65
				c-2.267-1.633-1.45-3.333,2.45-5.1c4.033-1.867,9.133-2.617,15.3-2.25c7.733,0.433,17.083,2.617,28.05,6.55
				c10.467,3.767,17.417,5.65,20.85,5.65c3.566,0,8.566-1.066,15-3.2c2.1-0.7,3.417-1,3.95-0.9
				C115.633-142.7,115.633-141.933,114.9-140.5z"/>
		</defs>
		<clipPath id="SVGID_2_">
			<use xlink:href="#SVGID_1_"  style="overflow:visible;"/>
		</clipPath>
		<g id="Layer_3_1_" style="clip-path:url(#SVGID_2_);">
			
				<use xlink:href="#flash0.ai_x2F_Layer_1_x2F__x3C_Path_x3E__x5F_5"  width="30" height="5.066" y="-5.066" transform="matrix(1 0 0 1 48.5498 -3.2002)" style="overflow:visible;opacity:0.4414;enable-background:new    ;"/>
			
				<use xlink:href="#flash0.ai_x2F_Layer_1_x2F__x3C_Path_x3E__x5F_4"  width="40.4" height="7.8" y="-7.8" transform="matrix(1 0 0 1 43.3501 -10.8501)" style="overflow:visible;opacity:0.4414;enable-background:new    ;"/>
			
				<use xlink:href="#flash0.ai_x2F_Layer_1_x2F__x3C_Path_x3E__x5F_3"  width="63.9" height="9.235" y="-9.235" transform="matrix(1 0 0 1 31.75 -75.7002)" style="overflow:visible;opacity:0.4414;enable-background:new    ;"/>
			
				<use xlink:href="#flash0.ai_x2F_Layer_1_x2F__x3C_Path_x3E__x5F_2"  width="63.9" height="9.249" y="-9.249" transform="matrix(1 0 0 1 32.6499 -71.3999)" style="overflow:visible;opacity:0.4414;enable-background:new    ;"/>
			
				<use xlink:href="#flash0.ai_x2F_Layer_1_x2F__x3C_Path_x3E__x5F_1"  width="65.15" height="13.21" y="-13.21" transform="matrix(1 0 0 1 33.25 -51.8501)" style="overflow:visible;opacity:0.4414;enable-background:new    ;"/>
			
				<use xlink:href="#flash0.ai_x2F_Layer_1_x2F__x3C_Path_x3E_"  width="46.8" height="6.562" y="-6.562" transform="matrix(1 0 0 1 40.2998 -20)" style="overflow:visible;opacity:0.4414;enable-background:new    ;"/>
		</g>
	</g>
	<g id="Layer_4_1_">
	</g>
</symbol>
<symbol  id="flash0.ai_x2F_Layer_1_x2F__x3C_Path_x3E_" viewBox="0 -6.562 46.8 6.562">
	<g id="Layer_1_9_">
		<path style="fill-rule:evenodd;clip-rule:evenodd;fill:#C3A331;" d="M46.5-3.1c-3.833-1.333-8.633-2.316-14.4-2.95
			C20.5-7.317,9.8-6.233,0-2.8l0.9,2.15C4.433-2.183,8.983-3.3,14.55-4C25.717-5.433,36.467-4.1,46.8,0L46.5-3.1z"/>
	</g>
</symbol>
<symbol  id="flash0.ai_x2F_Layer_1_x2F__x3C_Path_x3E__x5F_1" viewBox="0 -13.21 65.15 13.21">
	<g id="Layer_1_8_">
		<path style="fill-rule:evenodd;clip-rule:evenodd;fill:#C3A331;" d="M52.3-9.85c-5.8-1.933-12.417-3.033-19.85-3.3
			c-7.333-0.267-13.917,0.35-19.75,1.85C6.4-9.733,2.167-7.417,0-4.35L0.95-0.4c2.167-2.934,6.3-5.15,12.4-6.65
			c5.5-1.333,11.8-1.9,18.9-1.7c6.9,0.167,13.1,1.017,18.6,2.55c5.833,1.633,9.667,3.7,11.5,6.2l2.8-1.3
			C62.917-4.833,58.633-7.683,52.3-9.85z"/>
	</g>
</symbol>
<symbol  id="flash0.ai_x2F_Layer_1_x2F__x3C_Path_x3E__x5F_2" viewBox="0 -9.249 63.9 9.249">
	<g id="Layer_1_7_">
		<path style="fill-rule:evenodd;clip-rule:evenodd;fill:#C3A331;" d="M51.3-6.9c-5.667-1.367-12.15-2.133-19.45-2.3
			c-7.2-0.2-13.667,0.217-19.4,1.25C6.283-6.817,2.133-5.183,0-3.05L0.95-0.3C2.183-2.567,5.833-4.283,11.9-5.45
			c5.5-1.1,11.967-1.583,19.4-1.45C38.633-6.8,45.05-6.167,50.55-5c5.967,1.3,9.5,2.967,10.6,5l2.75-0.9
			C61.733-3.367,57.533-5.367,51.3-6.9z"/>
	</g>
</symbol>
<symbol  id="flash0.ai_x2F_Layer_1_x2F__x3C_Path_x3E__x5F_3" viewBox="0 -9.235 63.9 9.235">
	<g id="Layer_1_6_">
		<path style="fill-rule:evenodd;clip-rule:evenodd;fill:#C3A331;" d="M51.3-6.85C45.633-8.217,39.15-9,31.85-9.2
			c-7.2-0.167-13.667,0.267-19.4,1.3C6.283-6.8,2.133-5.183,0-3.05L0.9-0.3c1.233-2.233,4.883-3.95,10.95-5.15
			C17.35-6.517,23.817-7,31.25-6.9c7.333,0.1,13.767,0.733,19.3,1.9c5.967,1.3,9.5,2.967,10.6,5l2.75-0.9
			C61.733-3.367,57.533-5.35,51.3-6.85z"/>
	</g>
</symbol>
<symbol  id="flash0.ai_x2F_Layer_1_x2F__x3C_Path_x3E__x5F_4" viewBox="0 -7.8 40.4 7.8">
	<g id="Layer_1_5_">
		<path style="fill-rule:evenodd;clip-rule:evenodd;fill:#C3A331;" d="M2.45-0.6c3.533-1.066,7.633-1.85,12.3-2.35
			c9.4-0.966,17.033,0.017,22.9,2.95l2.75-3.65C37.967-5.083,34.45-6.2,29.85-7C20.65-8.6,10.7-7.8,0-4.6L2.45-0.6z"/>
	</g>
</symbol>
<symbol  id="flash0.ai_x2F_Layer_1_x2F__x3C_Path_x3E__x5F_4_x5F_0" viewBox="0 -14.25 11.75 14.25">
	<g id="Layer_1_11_">
		<path style="fill-rule:evenodd;clip-rule:evenodd;fill:#C3A331;" d="M11.75-7.1c0-1.967-0.567-3.65-1.7-5.05s-2.517-2.1-4.15-2.1
			s-3.017,0.7-4.15,2.1C0.583-10.75,0-9.067,0-7.1s0.583,3.633,1.75,5C2.883-0.7,4.267,0,5.9,0s3.017-0.7,4.15-2.1
			C11.183-3.467,11.75-5.133,11.75-7.1z"/>
	</g>
</symbol>
<symbol  id="flash0.ai_x2F_Layer_1_x2F__x3C_Path_x3E__x5F_5" viewBox="0 -5.066 30 5.066">
	<g id="Layer_1_4_">
		<path style="fill-rule:evenodd;clip-rule:evenodd;fill:#C3A331;" d="M3.7-0.3c1.9-0.5,4.25-0.867,7.05-1.1
			C16.35-1.867,21.433-1.4,26,0l4-3.05c-2.633-0.833-5.867-1.417-9.7-1.75C12.633-5.533,5.867-4.75,0-2.45L3.7-0.3z"/>
	</g>
</symbol>
<symbol  id="flash0.ai_x2F_Layer_1_x2F__x3C_Path_x3E__x5F_5_x5F_0" viewBox="0 -14.2 11.8 14.2">
	<g id="Layer_1_10_">
		<path style="fill-rule:evenodd;clip-rule:evenodd;fill:#C3A331;" d="M11.8-7.1c0-1.967-0.583-3.65-1.75-5.05
			C8.917-13.517,7.533-14.2,5.9-14.2s-3.017,0.684-4.15,2.05C0.583-10.75,0-9.067,0-7.1s0.583,3.633,1.75,5C2.883-0.7,4.267,0,5.9,0
			s3.017-0.7,4.15-2.1C11.217-3.467,11.8-5.133,11.8-7.1z"/>
	</g>
</symbol>
<symbol  id="flash0.ai_x2F_Layer_1_x2F__x3C_Path_x3E__x5F_7" viewBox="0.007 -34.9 132.185 34.904">
	<g id="Layer_1_3_">
		<path style="fill-rule:evenodd;clip-rule:evenodd;fill:#40454D;" d="M99.55-8.3c2.2-0.934,5.483-2.267,9.85-4
			c3.9-1.567,7.117-3.017,9.65-4.35c12.5-7.967,16.083-11.333,10.75-10.1c-1,0.233-4.167,1.033-9.5,2.4
			c-4.433,1.167-7.617,1.917-9.55,2.25c-3.567,0.667-7.667,0.533-12.3-0.4c-1.8-0.333-5.784-1.4-11.95-3.2
			c-1.167-0.333-5.55-1.767-13.15-4.3c-5.333-1.733-9.8-2.95-13.4-3.65c-4.5-0.833-9.284-1.25-14.35-1.25
			c-7.067,0-11.25,1.083-12.55,3.25c-0.733,1.233-0.7,2.533,0.1,3.9c0.867,1.467,1.25,2.333,1.15,2.6
			c-0.333,0.867-2.55,0.95-6.65,0.25c-3.1-0.533-6.117-1.25-9.05-2.15c-3.533-1.2-6.25-2.034-8.15-2.5c-3.3-0.8-6.083-0.9-8.35-0.3
			c-2,0.5-2.567,1.483-1.7,2.95c0.7,1.2,2.184,2.533,4.45,4c8.133,5.367,15.167,9.233,21.1,11.6c7.333,2.933,16.483,5.15,27.45,6.65
			c1.133,0.167,3,1,5.6,2.5c2.467,1.4,4.383,2.117,5.75,2.15C74.883,0.133,86.483-2.633,99.55-8.3z"/>
	</g>
</symbol>
<symbol  id="flash0.ai_x2F_Layer_1_x2F__x3C_Path_x3E__x5F_8" viewBox="-0.114 -44.328 142.481 44.336">
	<g id="Layer_1_2_">
		<path style="fill-rule:evenodd;clip-rule:evenodd;fill:#717773;" d="M127.9-22.15c8.3-5.6,13.05-10.417,14.25-14.45
			c0.467-1.566,0.184-2.35-0.85-2.35c-0.733,0-2.483,0.55-5.25,1.65c-8.4,3.3-15.55,5.267-21.45,5.9
			c-5.167,0.566-13.483-0.783-24.95-4.05c-15.333-4.367-26.433-7.1-33.3-8.2c-7.733-1.233-14.233-0.783-19.5,1.35
			c-2.367,0.966-3.8,2.1-4.3,3.4c-0.533,1.433,0.1,2.867,1.9,4.3c2.1,1.667,0.45,1.967-4.95,0.9c-4.5-0.9-10-2.367-16.5-4.4
			c-6.567-2.066-10.717-1.917-12.45,0.45c-1.7,2.3-0.133,5.066,4.7,8.3C23.15-17.417,40.35-9.6,56.85-5.9
			c1.133,0.267,3.183,1.367,6.15,3.3c2.667,1.7,4.767,2.567,6.3,2.6c10.967,0.2,23.633-3.283,38-10.45
			C115.433-14.517,122.3-18.417,127.9-22.15z"/>
	</g>
</symbol>
<g>
	
		<use xlink:href="#flash0.ai_x2F_Layer_1_x2F__x3C_Path_x3E__x5F_8"  width="142.481" height="44.336" x="-0.114" y="-44.328" transform="matrix(1 0 0 -1 0.1001 114.2002)" style="overflow:visible;opacity:0.25;enable-background:new    ;"/>
	
		<use xlink:href="#flash0.ai_x2F_Layer_1_x2F__x3C_Path_x3E__x5F_7"  width="132.185" height="34.904" x="0.007" y="-34.9" transform="matrix(1 0 0 -1 4 120.1504)" style="overflow:visible;opacity:0.2305;enable-background:new    ;"/>
	
		<linearGradient id="SVGID_3_" gradientUnits="userSpaceOnUse" x1="-137.7222" y1="82.5244" x2="-7.605" y2="82.5244" gradientTransform="matrix(0.0953 -0.9954 0.9954 0.0953 2.436042e-004 1.711249e-004)">
		<stop  offset="0" style="stop-color:#6E1A23"/>
		<stop  offset="0.3765" style="stop-color:#F35952"/>
		<stop  offset="1" style="stop-color:#E6946F"/>
	</linearGradient>
	<path style="fill-rule:evenodd;clip-rule:evenodd;fill:url(#SVGID_3_);" d="M91.1,10.35c6.034,8.933,9.233,19.917,9.601,32.95
		c0.3,11.633,1.467,24.883,3.5,39.75c2,14.4,4.083,25.217,6.25,32.45c1.7,5.533,4.5,10.7,8.399,15.5c4.667,5.7,7.167,8.884,7.5,9.55
		c0.733,1.434,0.733,2.2,0,2.3c-0.533,0.101-1.85-0.199-3.949-0.899c-6.434-2.134-11.434-3.2-15-3.2
		c-3.434,0-10.384,1.884-20.851,5.65c-10.967,3.933-20.316,6.116-28.05,6.55c-6.733,0.399-11.917-0.084-15.55-1.45
		c-3.867-1.434-4.6-3.4-2.2-5.9c1.7-1.767,0.233-2.416-4.4-1.949c-4.233,0.433-8.883,1.5-13.95,3.199c-5,1.667-8.316,2.134-9.95,1.4
		c-1.833-0.866-1.167-3.167,2-6.9c4.267-4.6,7.5-8.1,9.7-10.5c3.934-4.3,7.633-9.166,11.1-14.6c3.7-5.8,7.017-17.667,9.95-35.6
		c1.433-8.733,3.216-22.75,5.35-42.05c2.067-18.7,7.967-30.317,17.7-34.85C76.884-2.283,84.5,0.583,91.1,10.35z"/>
	
		<use xlink:href="#flash0.ai_x2F_Layer_1_x2F__x3C_Clip_Group_0_x3E_"  width="115.458" height="151.058" x="-0.008" y="-150.99" transform="matrix(1 0 0 -1 11.4502 0.0498)" style="overflow:visible;"/>
	
		<use xlink:href="#flash0.ai_x2F_Layer_1_x2F__x3C_Path_x3E__x5F_5_x5F_0"  width="11.8" height="14.2" y="-14.2" transform="matrix(1 0 0 -1 60.6001 34.75)" style="overflow:visible;opacity:0.4688;enable-background:new    ;"/>
	
		<use xlink:href="#flash0.ai_x2F_Layer_1_x2F__x3C_Path_x3E__x5F_4_x5F_0"  width="11.75" height="14.25" y="-14.25" transform="matrix(1 0 0 -1 77.75 34.8999)" style="overflow:visible;opacity:0.4688;enable-background:new    ;"/>
	
		<linearGradient id="SVGID_4_" gradientUnits="userSpaceOnUse" x1="-43.1016" y1="69.21" x2="-31.6254" y2="69.21" gradientTransform="matrix(0.0675 -0.9977 0.9977 0.0675 5.260855e-005 -3.602505e-004)">
		<stop  offset="0" style="stop-color:#CCE4E4"/>
		<stop  offset="1" style="stop-color:#B8D9BD"/>
	</linearGradient>
	<path style="fill-rule:evenodd;clip-rule:evenodd;fill:url(#SVGID_4_);" d="M71.65,42c0,1.733-0.5,3.2-1.5,4.4
		c-1,1.2-2.217,1.8-3.65,1.8c-1.4,0-2.6-0.6-3.6-1.8c-1-1.2-1.5-2.667-1.5-4.4c0-1.7,0.5-3.15,1.5-4.35c1-1.233,2.2-1.85,3.6-1.85
		c1.433,0,2.65,0.617,3.65,1.85C71.15,38.85,71.65,40.3,71.65,42z"/>
	
		<linearGradient id="SVGID_5_" gradientUnits="userSpaceOnUse" x1="-40.3071" y1="86.3281" x2="-29.7287" y2="86.3281" gradientTransform="matrix(0.0733 -0.9973 0.9973 0.0733 -8.784235e-006 2.210736e-004)">
		<stop  offset="0" style="stop-color:#CCE4E4"/>
		<stop  offset="1" style="stop-color:#B8D9BD"/>
	</linearGradient>
	<path style="fill-rule:evenodd;clip-rule:evenodd;fill:url(#SVGID_5_);" d="M88.6,42c0,1.733-0.5,3.2-1.5,4.4
		c-1,1.2-2.199,1.8-3.6,1.8c-1.434,0-2.65-0.6-3.65-1.8c-1-1.2-1.5-2.667-1.5-4.4c0-1.7,0.5-3.15,1.5-4.35
		c1-1.233,2.217-1.85,3.65-1.85c1.4,0,2.6,0.617,3.6,1.85C88.1,38.85,88.6,40.3,88.6,42z"/>
	<linearGradient id="SVGID_6_" gradientUnits="userSpaceOnUse" x1="65.1748" y1="44.8999" x2="68.8248" y2="44.8999">
		<stop  offset="0" style="stop-color:#242224"/>
		<stop  offset="0.2392" style="stop-color:#27252E"/>
		<stop  offset="0.6392" style="stop-color:#302E49"/>
		<stop  offset="1" style="stop-color:#3A3866"/>
	</linearGradient>
	<path style="fill-rule:evenodd;clip-rule:evenodd;fill:url(#SVGID_6_);" d="M68.85,44.9c0,0.733-0.184,1.383-0.55,1.95
		c-0.367,0.533-0.8,0.8-1.3,0.8s-0.933-0.267-1.3-0.8c-0.367-0.567-0.55-1.217-0.55-1.95c0-0.767,0.184-1.417,0.55-1.95
		c0.367-0.534,0.8-0.8,1.3-0.8s0.933,0.267,1.3,0.8C68.667,43.483,68.85,44.133,68.85,44.9z"/>
	<linearGradient id="SVGID_7_" gradientUnits="userSpaceOnUse" x1="81.8252" y1="45.25" x2="85.4752" y2="45.25">
		<stop  offset="0" style="stop-color:#242224"/>
		<stop  offset="0.2392" style="stop-color:#27252E"/>
		<stop  offset="0.6392" style="stop-color:#302E49"/>
		<stop  offset="1" style="stop-color:#3A3866"/>
	</linearGradient>
	<path style="fill-rule:evenodd;clip-rule:evenodd;fill:url(#SVGID_7_);" d="M85.5,45.25c0,0.733-0.184,1.383-0.55,1.95
		c-0.367,0.533-0.8,0.8-1.3,0.8s-0.934-0.267-1.301-0.8c-0.366-0.567-0.55-1.217-0.55-1.95c0-0.767,0.184-1.417,0.55-1.95
		c0.367-0.533,0.801-0.8,1.301-0.8s0.933,0.267,1.3,0.8C85.316,43.833,85.5,44.483,85.5,45.25z"/>
</g>
</svg>
