<?xml version="1.0" encoding="iso-8859-1"?>
<!-- Generator: Adobe Illustrator 15.1.0, SVG Export Plug-In . SVG Version: 6.00 Build 0)  -->
<!DOCTYPE svg PUBLIC "-//W3C//DTD SVG 1.1//EN" "http://www.w3.org/Graphics/SVG/1.1/DTD/svg11.dtd">
<svg version="1.1" id="Layer_3" xmlns="http://www.w3.org/2000/svg" xmlns:xlink="http://www.w3.org/1999/xlink" x="0px" y="0px"
	 width="167.55px" height="125.55px" viewBox="0 0 167.55 125.55" style="enable-background:new 0 0 167.55 125.55;"
	 xml:space="preserve">
<symbol  id="flash0.ai_x2F_Layer_3_x2F__x3C_Clip_Group_0_x3E_" viewBox="0 -92.1 153.953 92.102">
	<g id="Layer_1_5_">
	</g>
	<g>
		<defs>
			<path id="SVGID_1_" d="M152.15-5.15c-1.7,2.133-5.5,3.65-11.4,4.55c-3.8,0.567-8.433,0.733-13.9,0.5
				c-6.233-0.433-10.867-0.717-13.9-0.85c-4.167-0.2-11.083-0.733-20.75-1.6C83.267-3.35,76.333-3.833,71.4-4
				c-1.566-0.067-3.783-0.05-6.65,0.05c-3.033,0.067-5.233,0.083-6.6,0.05c-2.167-0.133-3.783-0.217-4.85-0.25
				c-1.833-0.033-3.4,0.05-4.7,0.25c-1.167,0.2-2.35,0.55-3.55,1.05c-1.7,0.767-3.133,1.267-4.3,1.5
				c-1.233,0.233-2.783,0.333-4.65,0.3c-7.533,0.3-13.633,0.283-18.3-0.05C9.1-1.733,3.85-3.85,2.05-7.45
				C1.417-8.717,1.233-10.233,1.5-12c0.167-1.1,0.567-2.55,1.2-4.35c0.233-0.633,0.966-3,2.2-7.1c0.934-3.133,2.117-6.183,3.55-9.15
				c2.1-4.333,4.9-8.667,8.4-13c3.667-4.467,6.65-7.133,8.95-8c0.8,0.233,0.583,1.75-0.65,4.55c-1.5,3.433-2.167,5.783-2,7.05
				c1.067-0.167,2.133-1.067,3.2-2.7c0.6-0.9,1.35-2.216,2.25-3.95c0.967-1.533,2.483-4.333,4.55-8.4
				c2.033-3.633,3.95-6.083,5.75-7.35c0.567-0.4,1.7-0.917,3.4-1.55c1.567-0.633,2.717-1.25,3.45-1.85c2-1.7,4-4.733,6-9.1
				c2.3-5,4.067-8.25,5.3-9.75c1.467-1.833,3.55-2.017,6.25-0.55c1.534,0.8,3.617,2.133,6.25,4c1.1,0.534,2.067,0.8,2.9,0.8
				c0.533-0.033,1.433-0.067,2.7-0.1c1.733,0.133,3.467,0.6,5.2,1.4c0.066,0.033,1.65,0.883,4.75,2.55c1.333,0.7,2.467,1.033,3.4,1
				c0.633-0.034,1.8-0.167,3.5-0.4c1.1-0.066,2.35,0.233,3.75,0.9c0.8,0.4,1.967,1.033,3.5,1.9c4.933,2.5,9,5.533,12.2,9.1
				c0.767,0.867,2.367,3.017,4.8,6.45c1.933,2.7,3.683,4.717,5.25,6.05c1.033,0.867,2.5,1.55,4.4,2.05
				c2.1,0.567,3.583,1.133,4.45,1.7c1.1,0.7,2.267,1.833,3.5,3.4c0.7,0.9,1.7,2.267,3,4.1c4.8,6.167,7.783,10.083,8.95,11.75
				c3.2,4.7,5.417,9.066,6.65,13.1C154.183-11.683,154.083-7.583,152.15-5.15z"/>
		</defs>
		<clipPath id="SVGID_2_">
			<use xlink:href="#SVGID_1_"  style="overflow:visible;"/>
		</clipPath>
		<g id="Layer_3_1_" style="clip-path:url(#SVGID_2_);">
			<g>
				
					<use xlink:href="#flash0.ai_x2F_Layer_3_x2F__x3C_Path_x3E__x5F_1"  width="153.953" height="82.402" y="-82.4" transform="matrix(1 0 0 1 0 -9.7002)" style="overflow:visible;opacity:0.1094;enable-background:new    ;"/>
				
					<use xlink:href="#flash0.ai_x2F_Layer_3_x2F__x3C_Path_x3E_"  width="149.5" height="76.51" y="-76.51" transform="matrix(1 0 0 1 0.8999 -12.9502)" style="overflow:visible;opacity:0.1797;enable-background:new    ;"/>
			</g>
		</g>
	</g>
	<g id="Layer_4_1_">
	</g>
</symbol>
<symbol  id="flash0.ai_x2F_Layer_3_x2F__x3C_Group_x3E_" viewBox="-0.025 -29.252 150.625 29.235">
	<g id="Layer_1_4_">
		<g>
			<path style="fill-rule:evenodd;clip-rule:evenodd;fill:#5C5A98;" d="M52.05-5.4c-0.066-0.333-0.316-0.567-0.75-0.7
				c-0.4-0.167-0.85-0.183-1.35-0.05s-0.9,0.35-1.2,0.65s-0.417,0.617-0.35,0.95c0.1,0.333,0.35,0.566,0.75,0.7
				C49.55-3.683,50-3.667,50.5-3.8s0.9-0.35,1.2-0.65C52-4.75,52.117-5.067,52.05-5.4z"/>
			<path style="fill-rule:evenodd;clip-rule:evenodd;fill:#5C5A98;" d="M36-19.2c0.033-0.3-0.133-0.566-0.5-0.8
				c-0.333-0.233-0.75-0.367-1.25-0.4c-0.533-0.033-0.983,0.05-1.35,0.25c-0.367,0.2-0.55,0.467-0.55,0.8
				c-0.033,0.3,0.133,0.567,0.5,0.8c0.333,0.233,0.767,0.367,1.3,0.4c0.5,0.033,0.934-0.05,1.3-0.25C35.817-18.6,36-18.867,36-19.2z
				"/>
			<path style="fill-rule:evenodd;clip-rule:evenodd;fill:#5C5A98;" d="M108.2-19.6c0-0.3-0.167-0.566-0.5-0.8
				c-0.367-0.233-0.8-0.367-1.3-0.4c-0.5-0.034-0.933,0.05-1.3,0.25c-0.367,0.2-0.567,0.466-0.6,0.8c0,0.3,0.183,0.567,0.55,0.8
				c0.333,0.233,0.75,0.367,1.25,0.4c0.5,0.033,0.934-0.05,1.3-0.25C107.967-19,108.167-19.267,108.2-19.6z"/>
			<path style="fill-rule:evenodd;clip-rule:evenodd;fill:#5C5A98;" d="M137.1-10.6c0-0.333-0.167-0.617-0.5-0.85
				c-0.367-0.233-0.8-0.367-1.3-0.4c-0.5,0-0.933,0.1-1.3,0.3c-0.367,0.2-0.567,0.45-0.6,0.75c-0.033,0.333,0.133,0.617,0.5,0.85
				c0.333,0.233,0.767,0.367,1.3,0.4c0.5,0.033,0.933-0.067,1.3-0.3C136.867-10.05,137.067-10.3,137.1-10.6z"/>
			<path style="fill-rule:evenodd;clip-rule:evenodd;fill:#5C5A98;" d="M61-12.8c0.067-0.4-0.233-0.667-0.9-0.8
				c-0.6-0.066-0.934,0.117-1,0.55c-0.067,0.466,0.217,0.733,0.85,0.8S60.933-12.367,61-12.8z"/>
			<path style="fill-rule:evenodd;clip-rule:evenodd;fill:#5C5A98;" d="M10.65-9.6c0.067-0.4-0.233-0.667-0.9-0.8
				c-0.267-0.033-0.5,0-0.7,0.1c-0.2,0.133-0.316,0.283-0.35,0.45c0,0.467,0.3,0.733,0.9,0.8C10.233-8.983,10.583-9.167,10.65-9.6z"
				/>
			<path style="fill-rule:evenodd;clip-rule:evenodd;fill:#5C5A98;" d="M29.9-12.65c0.067-0.467-0.217-0.733-0.85-0.8
				c-0.633-0.066-0.983,0.117-1.05,0.55c-0.067,0.4,0.233,0.667,0.9,0.8C29.5-12.033,29.833-12.217,29.9-12.65z"/>
			<path style="fill-rule:evenodd;clip-rule:evenodd;fill:#5C5A98;" d="M9.7-6.55c0.066-0.4-0.217-0.667-0.85-0.8
				C8.217-7.417,7.867-7.233,7.8-6.8C7.733-6.333,8.033-6.067,8.7-6C9.3-5.933,9.633-6.117,9.7-6.55z"/>
			<path style="fill-rule:evenodd;clip-rule:evenodd;fill:#5C5A98;" d="M97.7-21.7c0.033-0.167-0.034-0.333-0.2-0.5
				c-0.167-0.133-0.383-0.216-0.65-0.25c-0.633-0.133-0.983,0.05-1.05,0.55c-0.033,0.167,0.05,0.333,0.25,0.5
				c0.167,0.133,0.383,0.217,0.65,0.25C97.3-21.083,97.633-21.267,97.7-21.7z"/>
			<path style="fill-rule:evenodd;clip-rule:evenodd;fill:#5C5A98;" d="M42.9-5c0.067-0.467-0.217-0.733-0.85-0.8
				C41.417-5.867,41.067-5.683,41-5.25c-0.067,0.4,0.233,0.667,0.9,0.8C42.5-4.383,42.833-4.567,42.9-5z"/>
			<path style="fill-rule:evenodd;clip-rule:evenodd;fill:#5C5A98;" d="M25.6-10.05c0.066-0.367-0.167-0.583-0.7-0.65
				c-0.533-0.066-0.833,0.1-0.9,0.5c-0.067,0.333,0.183,0.534,0.75,0.6c0.233,0.033,0.433,0,0.6-0.1
				C25.517-9.767,25.6-9.883,25.6-10.05z"/>
			<path style="fill-rule:evenodd;clip-rule:evenodd;fill:#5C5A98;" d="M84.35-9.85c0.066-0.467-0.233-0.733-0.9-0.8
				c-0.6-0.067-0.934,0.117-1,0.55c-0.067,0.4,0.216,0.667,0.85,0.8C83.933-9.233,84.283-9.417,84.35-9.85z"/>
			<path style="fill-rule:evenodd;clip-rule:evenodd;fill:#5C5A98;" d="M39.55-19.5c0.034-0.167-0.033-0.333-0.2-0.5
				c-0.167-0.133-0.383-0.217-0.65-0.25c-0.633-0.067-0.983,0.117-1.05,0.55c-0.033,0.167,0.033,0.333,0.2,0.5
				c0.2,0.133,0.417,0.217,0.65,0.25C39.133-18.85,39.483-19.033,39.55-19.5z"/>
			<path style="fill-rule:evenodd;clip-rule:evenodd;fill:#5C5A98;" d="M130.4-23.45c0.067-0.433-0.233-0.683-0.9-0.75
				c-0.233-0.066-0.45-0.033-0.65,0.1c-0.2,0.1-0.317,0.233-0.35,0.4c-0.067,0.467,0.217,0.733,0.85,0.8
				C129.983-22.833,130.333-23.017,130.4-23.45z"/>
			<path style="fill-rule:evenodd;clip-rule:evenodd;fill:#5C5A98;" d="M113-19.85c0.033-0.167-0.033-0.333-0.2-0.5
				c-0.2-0.133-0.433-0.217-0.7-0.25c-0.6-0.066-0.934,0.117-1,0.55c-0.033,0.167,0.033,0.333,0.2,0.5
				c0.2,0.133,0.417,0.216,0.65,0.25C112.583-19.2,112.933-19.383,113-19.85z"/>
			<path style="fill-rule:evenodd;clip-rule:evenodd;fill:#5C5A98;" d="M150.6-12.6c0-0.433-0.3-0.7-0.9-0.8
				c-0.267-0.033-0.5,0-0.7,0.1c-0.2,0.133-0.317,0.283-0.35,0.45c0,0.467,0.3,0.733,0.9,0.8
				C150.183-11.983,150.533-12.167,150.6-12.6z"/>
			<path style="fill-rule:evenodd;clip-rule:evenodd;fill:#5C5A98;" d="M46.45-10.7c-0.067-0.433-0.434-0.75-1.1-0.95
				c-0.633-0.2-1.383-0.217-2.25-0.05c-0.867,0.133-1.583,0.383-2.15,0.75c-0.534,0.4-0.784,0.8-0.75,1.2
				C40.267-9.317,40.633-9,41.3-8.8c0.667,0.167,1.417,0.183,2.25,0.05c0.867-0.133,1.583-0.383,2.15-0.75
				C46.267-9.9,46.517-10.3,46.45-10.7z"/>
			<path style="fill-rule:evenodd;clip-rule:evenodd;fill:#5C5A98;" d="M137.45-14.55c-0.034-0.434-0.367-0.767-1-1
				c-0.6-0.267-1.333-0.367-2.2-0.3c-0.867,0.033-1.6,0.217-2.2,0.55c-0.633,0.333-0.933,0.716-0.9,1.15
				c0.067,0.4,0.417,0.733,1.05,1c0.633,0.233,1.367,0.333,2.2,0.3c0.867-0.066,1.6-0.25,2.2-0.55
				C137.2-13.733,137.483-14.117,137.45-14.55z"/>
			<path style="fill-rule:evenodd;clip-rule:evenodd;fill:#5C5A98;" d="M6.05-8.9C6.183-9.3,6-9.717,5.5-10.15
				C5-10.617,4.317-10.967,3.45-11.2c-0.833-0.267-1.583-0.333-2.25-0.2c-0.667,0.1-1.067,0.35-1.2,0.75
				c-0.1,0.4,0.1,0.816,0.6,1.25c0.5,0.433,1.167,0.783,2,1.05c0.867,0.233,1.633,0.3,2.3,0.2C5.567-8.25,5.95-8.5,6.05-8.9z"/>
			<path style="fill-rule:evenodd;clip-rule:evenodd;fill:#5C5A98;" d="M118.4-16.5c-0.066-0.433-0.433-0.75-1.1-0.95
				c-0.633-0.2-1.383-0.216-2.25-0.05c-0.833,0.133-1.533,0.383-2.1,0.75c-0.567,0.4-0.833,0.8-0.8,1.2
				c0.067,0.433,0.434,0.75,1.1,0.95c0.667,0.167,1.417,0.184,2.25,0.05c0.867-0.133,1.583-0.383,2.15-0.75
				C118.217-15.7,118.467-16.1,118.4-16.5z"/>
			<path style="fill-rule:evenodd;clip-rule:evenodd;fill:#5C5A98;" d="M50.65-17c-0.033-0.267-0.217-0.467-0.55-0.6
				c-0.333-0.167-0.717-0.217-1.15-0.15c-0.434,0.067-0.784,0.217-1.05,0.45c-0.233,0.267-0.333,0.533-0.3,0.8
				s0.217,0.483,0.55,0.65c0.3,0.133,0.667,0.167,1.1,0.1s0.783-0.233,1.05-0.5C50.567-16.483,50.683-16.733,50.65-17z"/>
			<path style="fill-rule:evenodd;clip-rule:evenodd;fill:#5C5A98;" d="M94.1-23.4c-0.033-0.267-0.2-0.483-0.5-0.65
				c-0.333-0.133-0.717-0.167-1.15-0.1c-0.434,0.066-0.784,0.217-1.05,0.45c-0.233,0.267-0.333,0.534-0.3,0.8s0.217,0.467,0.55,0.6
				c0.3,0.133,0.667,0.183,1.1,0.15c0.433-0.067,0.783-0.233,1.05-0.5C94.067-22.883,94.167-23.133,94.1-23.4z"/>
			<path style="fill-rule:evenodd;clip-rule:evenodd;fill:#5C5A98;" d="M124.4-6.4c-0.033-0.267-0.217-0.483-0.55-0.65
				c-0.333-0.167-0.717-0.217-1.15-0.15c-0.4,0.067-0.733,0.217-1,0.45c-0.267,0.267-0.383,0.533-0.35,0.8
				c0.066,0.267,0.25,0.483,0.55,0.65c0.333,0.133,0.717,0.167,1.15,0.1c0.4-0.066,0.733-0.216,1-0.45
				C124.35-5.883,124.467-6.133,124.4-6.4z"/>
			<path style="fill-rule:evenodd;clip-rule:evenodd;fill:#5C5A98;" d="M143.15-8.8c-0.033-0.267-0.2-0.483-0.5-0.65
				c-0.333-0.133-0.717-0.167-1.15-0.1c-0.433,0.066-0.783,0.216-1.05,0.45c-0.233,0.267-0.333,0.533-0.3,0.8
				c0.033,0.267,0.217,0.466,0.55,0.6c0.3,0.133,0.667,0.184,1.1,0.15c0.434-0.067,0.784-0.233,1.05-0.5
				C143.117-8.283,143.217-8.533,143.15-8.8z"/>
			<path style="fill-rule:evenodd;clip-rule:evenodd;fill:#5C5A98;" d="M63.05-20.05c-0.066-0.367-0.316-0.633-0.75-0.8
				c-0.4-0.167-0.85-0.183-1.35-0.05c-0.5,0.1-0.9,0.316-1.2,0.65c-0.3,0.3-0.417,0.633-0.35,1c0.067,0.333,0.317,0.6,0.75,0.8
				c0.4,0.167,0.85,0.2,1.35,0.1c0.5-0.133,0.9-0.367,1.2-0.7C63-19.383,63.117-19.717,63.05-20.05z"/>
			<g>
				<path style="fill-rule:evenodd;clip-rule:evenodd;fill:#5C5A98;" d="M52.75-10.25c-0.033,0.433,0.1,0.8,0.4,1.1
					c0.333,0.3,0.817,0.367,1.45,0.2c0.667-0.133,1.1-0.417,1.3-0.85c0.267-0.5-0.017-1.017-0.85-1.55
					c1.767-0.133,2.383-0.733,1.85-1.8c-0.5-1.033-1.5-1.083-3-0.15c1.167-1.3,1-1.967-0.5-2c-1.566-0.034-2.15,0.533-1.75,1.7
					c-1.3-0.933-2.316-0.767-3.05,0.5c-0.7,1.233,0.117,1.733,2.45,1.5c-1.933,1.167-2.267,1.983-1,2.45
					C51.35-8.617,52.25-8.983,52.75-10.25z M52.85-11.1c-0.367-0.033-0.55,0.05-0.55,0.25l-0.05-0.25c-0.467,0.4-0.833,0.7-1.1,0.9
					c0.1-0.2,0.3-0.5,0.6-0.9c0.067-0.167,0.067-0.4,0-0.7c-0.1-0.333-0.217-0.567-0.35-0.7c-0.1-0.067-0.316-0.15-0.65-0.25
					c-0.185-0.067-0.335-0.117-0.45-0.15c0.208,0.023,0.541,0.056,1,0.1c0.6,0.066,1.034-0.083,1.3-0.45
					c0.133-0.233,0.35-0.583,0.65-1.05c-0.067,0.267-0.133,0.466-0.2,0.6c-0.066,0.3-0.05,0.517,0.05,0.65
					c0.267,0.333,0.65,0.483,1.15,0.45c0.833-0.033,1.283-0.05,1.35-0.05c-0.733,0.133-1.233,0.283-1.5,0.45h0.4
					c-0.633,0.067-0.85,0.4-0.65,1c0.333,0.667,0.517,1.083,0.55,1.25c-0.3-0.466-0.583-0.783-0.85-0.95
					C53.417-11,53.183-11.067,52.85-11.1z"/>
				<path style="fill-rule:evenodd;clip-rule:evenodd;fill:#5C5A98;" d="M52.85-11.55c0.4-0.067,0.566-0.25,0.5-0.55
					c-0.067-0.3-0.283-0.417-0.65-0.35c-0.4,0.067-0.567,0.25-0.5,0.55C52.267-11.6,52.483-11.483,52.85-11.55z"/>
			</g>
			<g>
				<path style="fill-rule:evenodd;clip-rule:evenodd;fill:#5C5A98;" d="M144.7-8.65h0.4c-0.7,0.066-0.934,0.467-0.7,1.2
					c0.4,0.767,0.617,1.233,0.65,1.4c-0.367-0.534-0.683-0.883-0.95-1.05c-0.2-0.133-0.467-0.217-0.8-0.25
					c-0.433-0.033-0.65,0.067-0.65,0.3l-0.1-0.35l-1.2,1.05c0.133-0.2,0.367-0.533,0.7-1c0.067-0.2,0.05-0.5-0.05-0.9
					c-0.1-0.367-0.233-0.617-0.4-0.75l-1.45-0.5c0.333-0.033,0.783,0.017,1.35,0.15c0.633,0.067,1.117-0.117,1.45-0.55
					c0.167-0.267,0.417-0.667,0.75-1.2c-0.1,0.3-0.167,0.533-0.2,0.7c-0.1,0.333-0.083,0.583,0.05,0.75
					c0.3,0.4,0.717,0.583,1.25,0.55c1.034-0.066,1.567-0.1,1.6-0.1C145.567-9.033,145-8.85,144.7-8.65z M143.6-5.1
					c0.4,0.367,0.95,0.467,1.65,0.3c0.733-0.2,1.217-0.534,1.45-1c0.3-0.6-0.017-1.217-0.95-1.85c1.967-0.167,2.65-0.85,2.05-2.05
					c-0.566-1.233-1.683-1.316-3.35-0.25c1.3-1.5,1.1-2.267-0.6-2.3c-1.767-0.033-2.417,0.633-1.95,2
					c-0.633-0.5-1.316-0.65-2.05-0.45c-0.633,0.133-1.083,0.467-1.35,1c-0.833,1.434,0.067,2.017,2.7,1.75
					c-2.167,1.333-2.534,2.3-1.1,2.9c1.5,0.6,2.517,0.167,3.05-1.3C143.117-5.85,143.267-5.433,143.6-5.1z"/>
				<path style="fill-rule:evenodd;clip-rule:evenodd;fill:#5C5A98;" d="M143.25-7.9c0.433-0.067,0.617-0.267,0.55-0.6
					c0-0.367-0.233-0.517-0.7-0.45c-0.4,0.067-0.6,0.284-0.6,0.65C142.567-7.967,142.817-7.833,143.25-7.9z"/>
			</g>
			<g>
				<path style="fill-rule:evenodd;clip-rule:evenodd;fill:#5C5A98;" d="M105.35-26.55h0.3c-0.467,0.066-0.617,0.367-0.45,0.9
					c0.267,0.566,0.417,0.917,0.45,1.05c-0.267-0.4-0.5-0.667-0.7-0.8c-0.1-0.1-0.267-0.167-0.5-0.2c-0.3-0.033-0.434,0.033-0.4,0.2
					l-0.1-0.25l-0.75,0.8c0.066-0.167,0.2-0.433,0.4-0.8c0.066-0.133,0.066-0.333,0-0.6c-0.067-0.3-0.167-0.5-0.3-0.6
					c-0.033-0.033-0.183-0.117-0.45-0.25c-0.267-0.1-0.434-0.15-0.5-0.15c0.2-0.033,0.5,0.017,0.9,0.15
					c0.433,0.067,0.75-0.066,0.95-0.4c0.1-0.2,0.25-0.5,0.45-0.9c-0.167,0.533-0.183,0.9-0.05,1.1c0.2,0.3,0.483,0.433,0.85,0.4
					c0.633,0,0.966,0,1,0C105.783-26.7,105.417-26.583,105.35-26.55z M104.7-23.95c0.267,0.3,0.633,0.383,1.1,0.25
					c0.467-0.133,0.784-0.383,0.95-0.75c0.167-0.433-0.067-0.883-0.7-1.35c1.333-0.067,1.784-0.567,1.35-1.5
					c-0.4-0.934-1.15-1-2.25-0.2c0.833-1.1,0.7-1.683-0.4-1.75c-1.167-0.033-1.583,0.45-1.25,1.45c-0.967-0.833-1.717-0.7-2.25,0.4
					c-0.533,1.033,0.067,1.483,1.8,1.35c-1.4,0.966-1.633,1.667-0.7,2.1c1,0.467,1.667,0.167,2-0.9
					C104.35-24.483,104.467-24.183,104.7-23.95z"/>
				<path style="fill-rule:evenodd;clip-rule:evenodd;fill:#5C5A98;" d="M104.4-26c0.267-0.067,0.4-0.217,0.4-0.45
					c-0.066-0.233-0.233-0.35-0.5-0.35c-0.267,0.066-0.4,0.216-0.4,0.45C103.967-26.05,104.133-25.933,104.4-26z"/>
			</g>
			<g>
				<path style="fill-rule:evenodd;clip-rule:evenodd;fill:#5C5A98;" d="M94-8.55c-0.033,0.433,0.083,0.8,0.35,1.1
					c0.333,0.367,0.8,0.467,1.4,0.3c0.567-0.167,0.95-0.467,1.15-0.9c0.2-0.5-0.083-1.034-0.85-1.6c1.6-0.1,2.15-0.7,1.65-1.8
					c-0.467-1.1-1.367-1.183-2.7-0.25c1.033-1.333,0.867-2.033-0.5-2.1c-1.433-0.067-1.95,0.517-1.55,1.75
					c-1.167-1.034-2.083-0.883-2.75,0.45c-0.633,1.267,0.1,1.8,2.2,1.6c-1.733,1.167-2.017,2.017-0.85,2.55
					C92.783-6.883,93.6-7.25,94-8.55z M95.55-8.25c-0.3-0.467-0.566-0.783-0.8-0.95c-0.133-0.1-0.35-0.183-0.65-0.25
					c-0.367-0.033-0.533,0.05-0.5,0.25l-0.1-0.3l-0.95,0.95c0.1-0.2,0.284-0.5,0.55-0.9c0.033-0.2,0.017-0.466-0.05-0.8
					c-0.1-0.333-0.216-0.55-0.35-0.65c-0.034-0.067-0.233-0.167-0.6-0.3c-0.333-0.133-0.533-0.2-0.6-0.2
					c0.167-0.033,0.55,0.033,1.15,0.2c0.533,0.067,0.917-0.1,1.15-0.5c0.133-0.233,0.333-0.583,0.6-1.05
					c-0.066,0.267-0.117,0.483-0.15,0.65c-0.067,0.267-0.067,0.467,0,0.6c0.267,0.367,0.617,0.533,1.05,0.5
					c0.767-0.033,1.184-0.033,1.25,0c-0.667,0.133-1.117,0.283-1.35,0.45h0.35C94.983-10.483,94.8-10.133,95-9.5
					C95.333-8.833,95.517-8.417,95.55-8.25z"/>
				<path style="fill-rule:evenodd;clip-rule:evenodd;fill:#5C5A98;" d="M94.05-9.9c0.367-0.067,0.517-0.25,0.45-0.55
					c0-0.133-0.067-0.233-0.2-0.3c-0.1-0.1-0.233-0.133-0.4-0.1c-0.3,0.067-0.45,0.25-0.45,0.55
					C93.517-9.967,93.717-9.833,94.05-9.9z"/>
			</g>
			<g>
				<path style="fill-rule:evenodd;clip-rule:evenodd;fill:#5C5A98;" d="M17.95-0.35c0.333,0.333,0.783,0.417,1.35,0.25
					c0.567-0.133,0.95-0.417,1.15-0.85c0.233-0.533-0.034-1.083-0.8-1.65c1.567-0.1,2.117-0.7,1.65-1.8
					c-0.466-1.1-1.383-1.184-2.75-0.25c1.034-1.333,0.867-2.033-0.5-2.1c-1.433-0.033-1.95,0.567-1.55,1.8
					c-1.167-1.066-2.083-0.933-2.75,0.4C13.15-3.25,13.9-2.7,16-2.9c-1.733,1.167-2.033,2-0.9,2.5c1.233,0.566,2.05,0.2,2.45-1.1
					C17.55-1.033,17.683-0.65,17.95-0.35z M18.55-2.45c0.1,0.333,0.284,0.767,0.55,1.3c-0.3-0.5-0.567-0.833-0.8-1
					c-0.2-0.1-0.417-0.167-0.65-0.2c-0.333-0.033-0.5,0.05-0.5,0.25L17.1-2.4c-0.434,0.4-0.767,0.7-1,0.9
					c0.1-0.167,0.283-0.467,0.55-0.9c0.067-0.167,0.05-0.417-0.05-0.75c-0.067-0.333-0.167-0.567-0.3-0.7L15.1-4.3
					c0.267-0.034,0.633,0.017,1.1,0.15c0.533,0.066,0.917-0.1,1.15-0.5c0.133-0.233,0.333-0.583,0.6-1.05
					c-0.067,0.267-0.117,0.483-0.15,0.65c-0.066,0.3-0.05,0.517,0.05,0.65c0.233,0.367,0.566,0.533,1,0.5
					c0.833-0.033,1.267-0.05,1.3-0.05c-0.667,0.133-1.133,0.284-1.4,0.45h0.35C18.533-3.433,18.35-3.083,18.55-2.45z"/>
				<path style="fill-rule:evenodd;clip-rule:evenodd;fill:#5C5A98;" d="M17.6-2.85c0.333-0.066,0.5-0.25,0.5-0.55
					c-0.067-0.3-0.267-0.417-0.6-0.35c-0.367,0-0.517,0.167-0.45,0.5C17.05-2.917,17.233-2.783,17.6-2.85z"/>
			</g>
			<g>
				<path style="fill-rule:evenodd;clip-rule:evenodd;fill:#5C5A98;" d="M22.25-14.55c-0.133,0-0.267,0.05-0.4,0.15
					c-0.167,0.1-0.167,0.2,0,0.3l-0.25-0.1l0.25,0.8c-0.2-0.367-0.333-0.583-0.4-0.65c-0.067-0.1-0.233-0.233-0.5-0.4
					c-0.267-0.133-0.467-0.2-0.6-0.2l-0.7,0.2c0.067-0.133,0.233-0.25,0.5-0.35c0.233-0.133,0.267-0.35,0.1-0.65l-0.5-0.75
					c0.167,0.133,0.433,0.367,0.8,0.7c0.333,0.067,0.583,0.017,0.75-0.15c0.233-0.3,0.367-0.45,0.4-0.45
					c-0.133,0.3-0.2,0.55-0.2,0.75l0.15-0.15c-0.167,0.233,0,0.467,0.5,0.7c0.267,0.133,0.617,0.283,1.05,0.45
					C22.767-14.483,22.45-14.55,22.25-14.55z M23.95-13.85c0.133-0.3,0.083-0.583-0.15-0.85c-0.267-0.367-0.716-0.55-1.35-0.55
					c0.5-0.6,0.3-1.1-0.6-1.5c-0.9-0.367-1.3-0.083-1.2,0.85c-0.5-1.033-1.017-1.317-1.55-0.85c-0.567,0.5-0.367,0.983,0.6,1.45
					c-1.1-0.067-1.333,0.333-0.7,1.2c0.6,0.867,1.233,0.867,1.9,0c0.133,1.2,0.583,1.733,1.35,1.6c0.8-0.167,0.85-0.65,0.15-1.45
					c0.3,0.233,0.583,0.367,0.85,0.4C23.617-13.483,23.85-13.583,23.95-13.85z"/>
				<path style="fill-rule:evenodd;clip-rule:evenodd;fill:#5C5A98;" d="M21.55-14.65c0.067-0.133,0-0.267-0.2-0.4
					c-0.233-0.167-0.4-0.167-0.5,0c-0.067,0.133,0,0.283,0.2,0.45C21.283-14.5,21.45-14.517,21.55-14.65z"/>
			</g>
			<g>
				<path style="fill-rule:evenodd;clip-rule:evenodd;fill:#5C5A98;" d="M68.9-14.8c0.067,0.333,0.217,0.583,0.45,0.75
					c0.333,0.2,0.733,0.2,1.2,0c0.467-0.2,0.75-0.483,0.85-0.85c0.133-0.434-0.167-0.8-0.9-1.1c1.367-0.333,1.767-0.883,1.2-1.65
					c-0.534-0.733-1.317-0.633-2.35,0.3c0.7-1.2,0.483-1.7-0.65-1.5c-1.2,0.2-1.567,0.733-1.1,1.6c-1.1-0.6-1.85-0.35-2.25,0.75
					c-0.367,1.067,0.316,1.35,2.05,0.85c-1.333,1.167-1.483,1.85-0.45,2.05C68.05-13.367,68.7-13.767,68.9-14.8z M70.25-14.8
					c-0.3-0.333-0.567-0.55-0.8-0.65c-0.133-0.033-0.317-0.05-0.55-0.05c-0.3,0.033-0.433,0.133-0.4,0.3l-0.1-0.25l-0.7,0.85
					c0.233-0.433,0.35-0.683,0.35-0.75c0.034-0.133-0.017-0.316-0.15-0.55c-0.1-0.267-0.217-0.434-0.35-0.5
					c-0.066-0.033-0.233-0.067-0.5-0.1c-0.215-0.043-0.365-0.068-0.45-0.075c0.158-0.017,0.441-0.025,0.85-0.025
					c0.433-0.033,0.733-0.217,0.9-0.55l0.4-0.9c-0.033,0.233-0.05,0.4-0.05,0.5c-0.034,0.233,0,0.4,0.1,0.5
					c0.267,0.233,0.583,0.3,0.95,0.2c0.667-0.167,1.017-0.25,1.05-0.25c-0.566,0.2-0.933,0.4-1.1,0.6l0.2-0.075
					c-0.382,0.152-0.466,0.443-0.25,0.875C70.017-15.233,70.217-14.933,70.25-14.8z"/>
				<path style="fill-rule:evenodd;clip-rule:evenodd;fill:#5C5A98;" d="M68.8-15.85c0.3-0.133,0.4-0.3,0.3-0.5
					c-0.067-0.2-0.233-0.267-0.5-0.2c-0.3,0.1-0.417,0.267-0.35,0.5C68.317-15.783,68.5-15.717,68.8-15.85z"/>
			</g>
		</g>
	</g>
</symbol>
<symbol  id="flash0.ai_x2F_Layer_3_x2F__x3C_Path_x3E_" viewBox="0 -76.51 149.5 76.51">
	<g id="Layer_1_3_">
		<path style="fill-rule:evenodd;clip-rule:evenodd;fill:#8A8382;" d="M143.35-23.7c-0.867-1.667-2.05-3.283-3.55-4.85
			c-0.066-0.1-1.5-1.5-4.3-4.2c-1.867-1.933-3.267-3.367-4.2-4.3c-1.633-1.633-3.216-2.817-4.75-3.55c-2-0.967-3.517-2.55-4.55-4.75
			c-0.967-2.7-1.85-4.75-2.65-6.15c-1-1.767-3.033-3.55-6.1-5.35c-0.3-0.2-2.767-1.483-7.4-3.85
			c-5.533-2.833-10.967-5.216-16.3-7.15c-2.133-0.733-4.733-1.433-7.8-2.1c-3.533-0.7-6.2-1.233-8-1.6
			c-0.667-0.133-3.383-1.233-8.15-3.3c-3.5-1.5-6.283-1.983-8.35-1.45c-3.267,0.833-5.483,3.283-6.65,7.35
			c-0.533,2.333-0.95,4.067-1.25,5.2c-0.533,2.033-1.184,3.617-1.95,4.75c-0.667,1-1.633,1.883-2.9,2.65
			c-0.667,0.367-1.85,0.917-3.55,1.65c-0.133,0.067-1.133,0.367-3,0.9c-1.333,0.4-2.25,0.833-2.75,1.3c-1.467,1.3-3.133,4.15-5,8.55
			c-1.733,4.1-3.6,6.8-5.6,8.1c-0.033-0.8,0.2-1.867,0.7-3.2c0.534-1.534,0.833-2.583,0.9-3.15l-0.15-0.15c-3.6,2.3-6.15,4-7.65,5.1
			c-2.933,2.2-5.167,4.267-6.7,6.2C7.667-25.983,4.25-18.917,1.45-9.85C0.55-6.817,0.067-3.533,0,0
			c3.567-12,9.717-22.933,18.45-32.8c1.9-2.167,3.566-3.583,5-4.25c-0.133,0.833-0.383,1.966-0.75,3.4
			c-0.4,1.533-0.667,2.633-0.8,3.3c-0.133,0.6-0.233,1.733-0.3,3.4c-0.067,1.434-0.233,2.534-0.5,3.3
			c0.667-0.333,1.267-1.033,1.8-2.1c0.333-0.6,0.767-1.483,1.3-2.65c0.466-0.767,1.083-1.65,1.85-2.65c0.434-0.567,1.1-1.417,2-2.55
			c0.9-1.133,1.817-2.733,2.75-4.8c1.367-3.033,2.133-4.717,2.3-5.05c0.8-1.533,1.867-2.75,3.2-3.65
			c0.333-0.233,1.767-0.983,4.3-2.25c0.767-0.4,1.933-1.133,3.5-2.2c-0.067,0.966-0.6,2.367-1.6,4.2c-1.267,2.267-2,3.65-2.2,4.15
			c1.067-0.566,2.15-1.716,3.25-3.45c0.6-1,1.417-2.434,2.45-4.3c0.5-0.8,1.65-2.3,3.45-4.5c1.533-1.867,2.6-3.45,3.2-4.75
			c0.133-0.3,0.517-1.966,1.15-5c0.434-2.167,1.217-3.566,2.35-4.2c-0.1,1.8-0.167,3.167-0.2,4.1c-0.066,1.693,0.2,2.96,0.8,3.8
			c-0.331-0.485-0.314-2.051,0.05-4.7c0.333-2.667,0.733-4.216,1.2-4.65c1.1-1.033,3.083-0.617,5.95,1.25
			c3.466,2.3,5.55,3.483,6.25,3.55c0.433-1.333,1.55-1.967,3.35-1.9c1.5,0.034,2.867,0.45,4.1,1.25c0.4,0.267,0.9,0.767,1.5,1.5
			c0.6,0.767,1.083,1.284,1.45,1.55c0.566,0.4,1.117,0.583,1.65,0.55c0.767,0,1.317,0.05,1.65,0.15c1.233,0.367,2.067,0.65,2.5,0.85
			c0.934,0.4,1.6,0.833,2,1.3c0.434,0.466,0.917,1.483,1.45,3.05c0.467,1.367,1.083,2.317,1.85,2.85c0-0.633-0.417-2.017-1.25-4.15
			c-0.567-1.934-0.3-3.034,0.8-3.3c0.933-0.233,2.167,0.45,3.7,2.05c1.833,1.9,3.017,2.933,3.55,3.1c0.333,0.1,0.883,0.167,1.65,0.2
			c0.667,0,1.217,0.117,1.65,0.35c0.534,0.267,1.483,1,2.85,2.2c1.033,0.833,1.95,1.8,2.75,2.9c0.7,0.933,1.567,2.35,2.6,4.25
			c1,1.867,1.883,3.133,2.65,3.8c-0.133-1.533-1.15-3.95-3.05-7.25c0.767,0.267,1.55,0.967,2.35,2.1
			c0.433,0.633,1.05,1.533,1.85,2.7c0.833,1.034,2.217,2.617,4.15,4.75c0.6,0.7,1.583,1.617,2.95,2.75
			c1.333,1.133,2.3,2.067,2.9,2.8c0.067,0.1,0.85,1.3,2.35,3.6c1.1,1.7,2,2.633,2.7,2.8c-1.067-1.467-1.9-2.633-2.5-3.5
			c-1.133-1.633-1.633-2.9-1.5-3.8c0.467-0.133,1-0.067,1.6,0.2c0.3,0.133,0.783,0.417,1.45,0.85c2,1.267,3.567,2.567,4.7,3.9
			c0.433,0.5,0.917,1.35,1.45,2.55c0.534,1.2,1.034,2.05,1.5,2.55c-0.466-1.133-0.75-1.967-0.85-2.5c0.466,0.367,0.983,1.033,1.55,2
			c0.7,1.167,1.15,1.883,1.35,2.15l6.4,8c2.567,3.1,4.4,5.65,5.5,7.65c-0.067-2.267-0.817-4.783-2.25-7.55
			C145.45-19.817,144.15-22.133,143.35-23.7z"/>
	</g>
</symbol>
<symbol  id="flash0.ai_x2F_Layer_3_x2F__x3C_Path_x3E__x5F_1" viewBox="0 -82.4 153.953 82.402">
	<g id="Layer_1_2_">
		<path style="fill-rule:evenodd;clip-rule:evenodd;fill:#201312;" d="M153.05-6.8c-1.7-2.967-2.583-4.567-2.65-4.8
			c-0.566-0.367-1.3-1.15-2.2-2.35c-0.867-1.1-1.617-1.8-2.25-2.1c0.2,0.867,0.383,1.5,0.55,1.9c-0.8-1.033-1.267-1.633-1.4-1.8
			c-0.458-0.686-0.799-1.336-1.025-1.95c0.084,0.252,0.143,0.569,0.175,0.95l0.1,1c-1.633-1.7-2.817-3.183-3.55-4.45
			c0.833,1.867,1.133,3.55,0.9,5.05c-0.367-0.667-1.117-2.333-2.25-5c0.133,0.467,0.1,1.25-0.1,2.35c-0.067-0.133-0.233-0.467-0.5-1
			c-0.2-0.433-0.317-0.75-0.35-0.95c-0.133,0.6-0.2,1.034-0.2,1.3c-0.466-1.033-1.15-2.733-2.05-5.1c0,0.333-0.033,0.567-0.1,0.7
			c-0.133-0.3-0.35-0.633-0.65-1c-0.367-0.367-0.633-0.633-0.8-0.8c0.033,0.2,0.033,0.517,0,0.95c-0.067,0.433-0.083,0.733-0.05,0.9
			c-0.4-0.2-0.816-0.683-1.25-1.45c-0.533-0.966-0.917-1.583-1.15-1.85c-1.3-1.4-2.217-2.4-2.75-3c-0.867-1-1.65-2.1-2.35-3.3
			c-0.967-1.7-1.816-2.983-2.55-3.85c-1.167-1.433-2.383-2.3-3.65-2.6c0.2,1.233,0.733,2.983,1.6,5.25
			c0.567,1.1,0.983,2.017,1.25,2.75c0.5,1.367,0.45,2.167-0.15,2.4c-0.8,0.3-1.8-0.417-3-2.15c-1.167-2-1.9-3.184-2.2-3.55
			c-0.434-0.6-1.767-2.183-4-4.75c-1.667-1.933-2.817-3.65-3.45-5.15c-0.467-1.2-0.95-2.817-1.45-4.85
			c-0.533-1.733-1.35-3.183-2.45-4.35c-0.567-0.6-1.917-1.75-4.05-3.45c-1.767-1.4-3-2.617-3.7-3.65c-1.867-3-3.15-5.684-3.85-8.05
			c-0.7-2.566-1.283-4.533-1.75-5.9c-0.733-2.167-1.55-4.033-2.45-5.6c-0.6,0.567-1.316,1.633-2.15,3.2
			c-0.8,1.566-1.233,2.733-1.3,3.5c-0.067,0.9,0.3,2.267,1.1,4.1c0.966,2,1.566,3.367,1.8,4.1c0.367,1.067,1.117,2.333,2.25,3.8
			c1.2,1.566,1.967,2.75,2.3,3.55c0.3,0.733,0.617,1.767,0.95,3.1c0.367,1.5,0.633,2.583,0.8,3.25c0.467,1.567,0.833,2.833,1.1,3.8
			c0.37,1.537,0.495,2.662,0.375,3.375c0.2-1.476-1.508-3.867-5.125-7.175c-4.4-4.067-6.75-6.5-7.05-7.3
			c-0.133-0.333-0.3-1.083-0.5-2.25c-0.133-0.633-0.467-1.267-1-1.9c-0.4-0.5-1.2-1.1-2.4-1.8c-1.267-0.733-2.1-1.317-2.5-1.75
			c-0.133,2.767,0.3,5.55,1.3,8.35c0.5,1.333,1.683,3.917,3.55,7.75c1.267,2.233,2.117,3.883,2.55,4.95c0.767,1.733,1.1,3.534,1,5.4
			c-2.333-1.867-4.1-3.3-5.3-4.3c-2.167-1.8-3.6-3.5-4.3-5.1c-0.633-1.433-1.317-3.383-2.05-5.85c-1.034-3.633-1.617-5.633-1.75-6
			c-0.6-1.8-1.467-3.967-2.6-6.5c-0.633-1.4-1.6-3.5-2.9-6.3c-0.5-1.167-1.2-2.867-2.1-5.1c-0.967-1.733-2.333-2.8-4.1-3.2
			c0.2,1.033,0.567,2.167,1.1,3.4c0.633,1.433,1.1,2.533,1.4,3.3c0.667,1.534,1.833,4.633,3.5,9.3c0.3,0.833,0.617,1.983,0.95,3.45
			c0.367,1.667,0.65,2.833,0.85,3.5c0.733,2.1,1.267,3.717,1.6,4.85c0.6,2,0.833,3.667,0.7,5c-0.867-0.566-1.617-1.85-2.25-3.85
			c-0.367-1.1-0.8-2.617-1.3-4.55c-0.267-0.867-0.9-3.15-1.9-6.85c-1.066-3.367-2.133-5.25-3.2-5.65c0.2,2.6,0.333,4.55,0.4,5.85
			c0.1,2.267,0.017,4.217-0.25,5.85c-0.267,1.6-0.184,3.7,0.25,6.3c0.6,3.767,0.917,5.867,0.95,6.3c0.133,1.6-0.133,3.45-0.8,5.55
			c-1.033,3.133-1.6,4.9-1.7,5.3c-0.3,1.9-0.617,3.45-0.95,4.65c-0.567,2.233-1.333,3.5-2.3,3.8c-0.833,0.3-1.783-0.233-2.85-1.6
			c-0.133-0.167-0.75-1.167-1.85-3c-1.3-2.133-2.067-3.883-2.3-5.25c-0.233-1.3-0.117-3.25,0.35-5.85
			c0.2-1.267,0.65-3.217,1.35-5.85c0.667-2.5,1.1-4.433,1.3-5.8c0.233-1.467,0.7-3.767,1.4-6.9c0.566-2.833,0.683-5.15,0.35-6.95
			c-0.3-1.833-0.466-2.783-0.5-2.85c-0.133-1-0.15-1.966-0.05-2.9c0.067-0.6,0.233-1.6,0.5-3c0.1-1.233-0.15-2.167-0.75-2.8
			c-0.1,0.533-0.333,1.233-0.7,2.1c-0.433,0.933-0.7,1.617-0.8,2.05c-0.733,2.667-1.167,4.15-1.3,4.45
			c-0.267,0.733-0.4,1.517-0.4,2.35c0,1.367-0.017,2.167-0.05,2.4c-0.167,1.933-0.967,4.183-2.4,6.75
			c-1.733,2.8-2.983,4.85-3.75,6.15c-0.7,1.233-2.317,5.066-4.85,11.5c-1.867,4.833-3.983,8.333-6.35,10.5
			c-0.066-1.067,0.033-2.317,0.3-3.75c0.233-1.434,0.566-2.567,1-3.4c-0.934,0.933-2.4,2.917-4.4,5.95
			c-1.7,2.6-3.283,4.434-4.75,5.5l-0.15-1.2c-0.5,0.267-1.1,0.65-1.8,1.15c-1,0.767-1.55,1.183-1.65,1.25
			c-0.067-0.233-0.1-0.6-0.1-1.1c-0.967,0.033-2,0.433-3.1,1.2c-1.233,1-2.15,1.733-2.75,2.2c0-0.867,0.217-2.283,0.65-4.25
			c0.367-1.8,0.517-3.25,0.45-4.35c-5.7,6.5-8.617,9.817-8.75,9.95c-1.2-0.433-2.417,0.217-3.65,1.95
			c-1.233,2.133-2.1,3.517-2.6,4.15c-0.3,0.4-1.25,1.433-2.85,3.1c-1.167,1.233-2,2.367-2.5,3.4l7.65-0.7
			c5.3-0.467,8.25-0.767,8.85-0.9c1.933-0.433,4.833-1.117,8.7-2.05c3.4-0.8,6.316-1.333,8.75-1.6c3.733-0.4,9.183,0,16.35,1.2
			c7.3,1.2,12.784,1.65,16.45,1.35c1.9-0.133,4.383-0.717,7.45-1.75c3.4-1.133,5.85-1.816,7.35-2.05c2.667-0.4,6.2,0,10.6,1.2
			c6.467,1.767,9.983,2.7,10.55,2.8c6.733,1.167,10.583,1.85,11.55,2.05c4.4,0.8,8.233,1.617,11.5,2.45l1.4,0.4
			c1.267,0.4,3.083,1.133,5.45,2.2c2.467,1.066,4.283,1.8,5.45,2.2c5.034,1.633,7.633,2.467,7.8,2.5c3.633,0.767,6.1,0.283,7.4-1.45
			C154.25-3.133,154.183-4.8,153.05-6.8z"/>
	</g>
</symbol>
<g>
	
		<linearGradient id="SVGID_3_" gradientUnits="userSpaceOnUse" x1="-168.6113" y1="-69.0767" x2="-18.336" y2="-69.0767" gradientTransform="matrix(-0.997 -0.0774 0.0774 -0.997 3.449395e-004 9.098873e-004)">
		<stop  offset="0" style="stop-color:#674D4B"/>
		<stop  offset="0.1882" style="stop-color:#523E3B"/>
		<stop  offset="0.4392" style="stop-color:#3B2D29"/>
		<stop  offset="0.6" style="stop-color:#332723"/>
		<stop  offset="0.7961" style="stop-color:#46322F"/>
		<stop  offset="1" style="stop-color:#5E413F"/>
	</linearGradient>
	<path style="fill-rule:evenodd;clip-rule:evenodd;fill:url(#SVGID_3_);" d="M161.3,38.6c1.934,2.433,2.033,6.533,0.3,12.3
		c-1.233,4.033-3.449,8.4-6.649,13.1c-1.167,1.667-4.15,5.583-8.95,11.75c-1.3,1.833-2.3,3.2-3,4.1c-1.233,1.567-2.4,2.7-3.5,3.4
		c-0.866,0.566-2.35,1.134-4.45,1.7c-1.899,0.5-3.366,1.184-4.399,2.05c-1.567,1.333-3.317,3.35-5.25,6.05
		c-2.434,3.434-4.034,5.584-4.801,6.45c-3.199,3.566-7.267,6.6-12.199,9.1c-1.534,0.867-2.7,1.5-3.5,1.9
		c-1.4,0.667-2.65,0.967-3.75,0.9c-1.7-0.233-2.867-0.367-3.5-0.4c-0.934-0.033-2.067,0.3-3.4,1c-3.1,1.667-4.684,2.517-4.75,2.55
		c-1.733,0.8-3.467,1.267-5.2,1.4c-1.267-0.033-2.167-0.066-2.7-0.101c-0.833,0-1.8,0.267-2.9,0.801
		c-2.633,1.866-4.717,3.199-6.25,4c-2.7,1.466-4.784,1.283-6.25-0.551c-1.233-1.5-3-4.75-5.3-9.75c-2-4.366-4-7.399-6-9.1
		c-0.733-0.6-1.883-1.217-3.45-1.85c-1.7-0.634-2.833-1.15-3.4-1.551c-1.8-1.267-3.716-3.716-5.75-7.35
		c-2.066-4.066-3.583-6.866-4.55-8.4c-0.9-1.733-1.65-3.05-2.25-3.949c-1.067-1.634-2.133-2.534-3.2-2.7
		c-0.167,1.267,0.5,3.616,2,7.05c1.233,2.8,1.45,4.316,0.65,4.55c-2.3-0.866-5.284-3.533-8.95-8c-3.5-4.333-6.3-8.666-8.4-13
		c-1.434-2.967-2.617-6.017-3.55-9.15c-1.233-4.1-1.966-6.467-2.2-7.1c-0.633-1.8-1.033-3.25-1.2-4.35
		c-0.267-1.767-0.083-3.284,0.55-4.55c1.8-3.6,7.05-5.717,15.75-6.35c4.667-0.333,10.767-0.35,18.3-0.05
		c1.867-0.033,3.417,0.067,4.65,0.3c1.167,0.233,2.6,0.733,4.3,1.5c1.2,0.5,2.383,0.85,3.55,1.05c1.3,0.2,2.867,0.283,4.7,0.25
		c1.066-0.033,2.683-0.117,4.85-0.25c1.367-0.033,3.567-0.017,6.6,0.05c2.867,0.1,5.083,0.117,6.65,0.05
		c4.934-0.167,11.867-0.65,20.8-1.45c9.667-0.867,16.584-1.4,20.75-1.6c3.034-0.133,7.667-0.417,13.9-0.85
		c5.467-0.233,10.1-0.066,13.9,0.5C155.8,34.95,159.6,36.467,161.3,38.6z"/>
	
		<use xlink:href="#flash0.ai_x2F_Layer_3_x2F__x3C_Clip_Group_0_x3E_"  width="153.953" height="92.102" y="-92.1" transform="matrix(1 0 0 -1 9.1499 33.4502)" style="overflow:visible;"/>
	<g>
		
			<linearGradient id="SVGID_4_" gradientUnits="userSpaceOnUse" x1="-70.481" y1="84.4619" x2="10.5283" y2="84.4619" gradientTransform="matrix(0.0151 -0.9999 0.9999 0.0151 3.671460e-004 4.461063e-004)">
			<stop  offset="0" style="stop-color:#7573A8"/>
			<stop  offset="1" style="stop-color:#A6DFC9"/>
		</linearGradient>
		<path style="fill-rule:evenodd;clip-rule:evenodd;fill:url(#SVGID_4_);" d="M165.6,41.65c1.801,3.434,2.351,7.05,1.65,10.85
			c-0.134,0.7-1.267,4.283-3.4,10.75c-0.267,0.8-0.733,1.783-1.399,2.95c-0.732,1.281-1.225,2.215-1.476,2.8
			c0.753-1.862,1.178-3.929,1.275-6.2c0.063-0.986,0.021-2.835-0.125-5.55c0.05,1.882-0.625,4.099-2.025,6.65
			c0.067-1.7-0.283-4-1.05-6.9l-1.25,5.1c-0.533-2.167-0.866-3.467-1-3.9c-0.434-1.5-0.967-2.684-1.6-3.55
			c-0.867,1.367-1.617,3.033-2.25,5c-0.867-0.033-1.601-0.583-2.2-1.65c-0.3,1.133-0.884,2.8-1.75,5c-0.9,2.3-1.483,3.9-1.75,4.8
			c0.2-3.066-0.6-5.883-2.4-8.45c0.2,0.6,0.317,1.517,0.351,2.75c-0.267-0.3-0.7-0.684-1.3-1.15
			c-0.634-0.467-1.067-0.817-1.301-1.05c0.601,1.733,0.817,3.8,0.65,6.2c-0.767-1.833-2-3.417-3.7-4.75c0.2,0.7,0.4,1.75,0.601,3.15
			c-0.134-0.3-0.384-0.783-0.75-1.45c-0.434-0.733-0.717-1.25-0.851-1.55c-0.267,2.1-1.666,4.634-4.2,7.6
			c-3.666,4.334-5.583,6.634-5.75,6.9c0.367-1.667,1-3.517,1.9-5.55c-1.015,0.786-2.282,2.377-3.8,4.774
			c0.8-1.334,1.2-3.275,1.2-5.824c-2.101,0.966-4.25,3.166-6.45,6.6c-0.601-1.8-0.566-3.4,0.1-4.8
			c-1.7,1.633-2.816,3.017-3.35,4.149c-0.634,1.334-1.066,3.317-1.3,5.95c-0.367-1.166-0.584-2.583-0.65-4.25
			c-0.066-3.233,0-5.416,0.2-6.55c-1.267,1.4-2.334,2.15-3.2,2.25c0.033-0.467,0.083-0.8,0.15-1c-0.7,0.667-1.634,1.184-2.801,1.55
			c-0.233,0.066-1.267,0.3-3.1,0.7l0.8-3.5c-0.767,0.533-1.983,1.15-3.649,1.85c-1.767,0.767-3.017,1.384-3.75,1.851
			c0.533-0.834,1.017-1.884,1.449-3.15c0.467-1.5,0.817-2.616,1.051-3.35c-1,0.967-1.634,1.566-1.9,1.8
			c-0.733,0.6-1.5,1.066-2.3,1.4c-0.834,0.366-1.517,0.533-2.05,0.5c-0.728-0.033-0.911-0.492-0.551-1.375
			c-0.446,1.029-1.646,2.487-3.6,4.375c0.693-1.256,0.927-2.939,0.7-5.051c0.05,0.599-0.184,1.382-0.7,2.351
			c-0.733,1.267-1.134,2.05-1.2,2.35c-0.587,2.102-0.704,3.902-0.35,5.4c-0.144-0.54-0.311-1.257-0.5-2.15
			c-0.134-0.767-0.4-1.566-0.8-2.399c-0.233-0.5-0.967-1.45-2.2-2.851c-0.897-1.071-1.489-2.013-1.775-2.825
			c0.117,0.48,0.175,1.089,0.175,1.825c-1-0.033-2.05-0.633-3.149-1.8c-1-1.033-1.684-2.083-2.05-3.15
			c0.1,2.134,0.167,3.384,0.2,3.75c-2.434-3.233-4.167-5.767-5.2-7.6c0.133,0.633,0.133,1.434,0,2.4
			c-0.066,0.533-0.217,1.316-0.45,2.35c-1.5-2.366-2.184-3.65-2.05-3.85c-1.7,2.633-3.45,3.283-5.25,1.949
			c0,0.167-0.066,0.634-0.2,1.4c-0.097,0.678-0.089,1.103,0.025,1.275c-1.354-1.753-2.629-3.045-3.825-3.875
			c0,1.8-0.25,3.517-0.75,5.149c-0.1-0.3-0.316-0.717-0.65-1.25c-0.367-0.533-0.6-0.916-0.7-1.149c-0.167,0.267-0.6,0.783-1.3,1.55
			c-0.6,0.666-1,1.2-1.2,1.6c0.1-0.333,0.184-0.916,0.25-1.75c0.067-0.767,0.167-1.35,0.3-1.75C55.983,69.4,53.033,72.767,51.5,76.4
			c-0.233-1.567-0.4-2.75-0.5-3.551c-0.167-1.366-0.233-2.55-0.2-3.55c-0.667,1.434-1.233,3.834-1.7,7.2
			c-0.533-2-0.95-4.533-1.25-7.6c-0.867,2.199-1.367,4.583-1.5,7.149c-0.133,2.601,0.133,5.017,0.8,7.25
			c-2.233-5.533-3.783-11.033-4.65-16.5c-1.033,3.134-1.283,6.566-0.75,10.3c-1.033-1.666-1.933-3.666-2.7-6
			c-0.833-2.633-1.233-4.85-1.2-6.649c-0.167,0.7-0.267,1.649-0.3,2.85c0,1.163,0.075,2.188,0.225,3.075
			c-0.437-2.135-1.429-3.876-2.975-5.225c-1-0.867-2.75-1.867-5.25-3c0.133,0.633,0.284,1.617,0.45,2.95
			c-1.2-1.466-3.617-3.149-7.25-5.05c0.733,0.733,1.217,1.184,1.45,1.35c-1.467-0.633-3.133-1.467-5-2.5
			c0.819,0.885,1.527,2.109,2.125,3.675c-0.303-0.736-1.161-1.361-2.575-1.875c-1.581-0.569-2.581-1.044-3-1.425
			c0.82,4.261,1.237,7.627,1.25,10.1c-0.246-0.593-0.463-1.451-0.65-2.575c-0.233-1.267-0.467-2.184-0.7-2.75
			c-0.267-0.6-0.783-1.35-1.55-2.25c-0.8-0.933-1.317-1.667-1.55-2.2c0.133,1.9,0.784,3.733,1.95,5.5
			c-1.1-0.899-2.033-2.033-2.8-3.399c-0.567-0.934-1.2-2.267-1.9-4c-0.833-1.8-1.533-3-2.1-3.6c-1.067-0.934-1.817-1.617-2.25-2.05
			c-0.71-0.71-1.202-1.594-1.475-2.65c0.28,1.23,0.372,2.38,0.275,3.45c-0.733-0.934-1.233-2.283-1.5-4.05
			c-0.167,1.233,0.033,2.8,0.6,4.7c-1.133-1.9-1.867-3.817-2.2-5.75c-0.4-2.367-0.1-4.35,0.9-5.95C1.183,42.4,0.5,43.15,0,44.05
			c-0.167-3.333,1.967-6.316,6.4-8.95c3.5-2.1,7.184-3.434,11.05-4c-1.133,0.133-2.017,0.167-2.65,0.1
			c0.367-0.133,1.517-0.333,3.45-0.6l-0.7-0.6c0.7,0.033,1.767,0.067,3.2,0.1c1.267,0,2.317-0.083,3.15-0.25
			c-0.933,0.066-1.717-0.283-2.35-1.05c0.534,0.6,1.6,0.7,3.2,0.3c0.867-0.2,1.967-0.55,3.3-1.05c1.833-0.533,4.8-1.15,8.9-1.85
			c0.167-0.034,2.583-0.35,7.25-0.95c2.867-0.367,5.283-0.917,7.25-1.65c-0.733,0.533-1.3,1.133-1.7,1.8c0.4-0.633,1.85-1,4.35-1.1
			c1.333-0.033,2.967,0,4.9,0.1c2.833,0,6.967-0.617,12.4-1.85c5.4-1.233,9.5-1.85,12.3-1.85c-0.967,0.033-1.95,0.25-2.95,0.65
			c-1.1,0.433-1.95,0.983-2.55,1.65c1.767-0.5,3.733-0.55,5.899-0.15c3.467,0.633,5.367,0.967,5.7,1c2.566,0.133,6.4,0.55,11.5,1.25
			c-0.666-0.7-1.45-1.45-2.35-2.25c2.3,1.233,3.7,1.967,4.2,2.2c1.6,0.733,3.116,1.167,4.55,1.3
			c-0.326-1.009-0.584-1.651-0.775-1.925c0.86,1.152,2.235,1.894,4.125,2.225c1.167,0.167,2.816,0.2,4.95,0.1
			c5-0.2,8.917-0.033,11.75,0.5c1.667,0.333,2.816,0.417,3.45,0.25c1.1-0.233,2-1.067,2.7-2.5c-0.334,0.8-0.75,2.033-1.25,3.7
			c0.366-0.4,0.966-0.917,1.8-1.55c0.899-0.733,1.517-1.267,1.85-1.6c-0.233,0.267-0.517,0.733-0.85,1.4
			c-0.4,0.733-0.667,1.2-0.8,1.4c2.267-0.6,3.916-0.983,4.949-1.15c1.867-0.367,3.584-0.517,5.15-0.45
			c-1.634,1.133-2.884,1.917-3.75,2.35c2.418-0.795,5.102-1.145,8.05-1.05c-0.555-0.003-1.347,0.413-2.375,1.25
			c1.057-0.809,3.049-0.725,5.976,0.25c2.3,0.733,4.216,1.6,5.75,2.6c1.866,1.167,3.517,2.717,4.949,4.65
			c0.834,1.1,2.117,2.817,3.851,5.15C166.5,41.883,165.967,41.783,165.6,41.65z"/>
	</g>
	<g>
		<path style="fill-rule:evenodd;clip-rule:evenodd;fill:#5C5A98;" d="M43.7,17c-0.034-0.567,0.1-1.083,0.4-1.55
			c0.333-0.467,0.767-0.733,1.3-0.8c0.533-0.066,1,0.067,1.4,0.4c0.434,0.333,0.684,0.784,0.75,1.35
			c0.067,0.567-0.066,1.083-0.4,1.55c-0.333,0.466-0.767,0.733-1.3,0.8s-1.017-0.067-1.45-0.4C44,17.983,43.767,17.533,43.7,17z"/>
		
			<linearGradient id="SVGID_5_" gradientUnits="userSpaceOnUse" x1="-41.5898" y1="43.0264" x2="-26.3077" y2="43.0264" gradientTransform="matrix(-0.2846 -0.9586 0.9586 -0.2846 2.468824e-004 3.997386e-004)">
			<stop  offset="0" style="stop-color:#7573A8"/>
			<stop  offset="1" style="stop-color:#A6DFC9"/>
		</linearGradient>
		<path style="fill-rule:evenodd;clip-rule:evenodd;fill:url(#SVGID_5_);" d="M49.75,24.05l0.2,0.3c-0.233-1.233-0.5-2.217-0.8-2.95
			c-0.5-1.267-1.25-2.283-2.25-3.05l0.15-0.45c0.967,0.467,1.817,1.3,2.55,2.5c0.566,0.967,0.967,2,1.2,3.1
			c0.867-2.033,2.133-3.017,3.8-2.95c0.867,0.034,1.633,0.267,2.3,0.7c-2.267-0.9-3.767-0.233-4.5,2c-0.367,1.1-0.5,2.3-0.4,3.6
			c-0.733,0.333-1.25,0.517-1.55,0.55c-0.2,0.033-0.5,0.017-0.9-0.05l-0.5-0.1c-0.033-2.467-0.55-3.883-1.55-4.25l-1.45,0.15
			c0.8-0.767,1.667-0.85,2.6-0.25C49.083,23.2,49.45,23.583,49.75,24.05z"/>
		<path style="fill-rule:evenodd;clip-rule:evenodd;fill:#8483B2;" d="M45.25,14.85l1.5-1.55c1.267-0.9,2.583-1.083,3.95-0.55
			c-0.333,0.067-0.7,0.183-1.1,0.35c-0.767,0.367-1.233,0.867-1.4,1.5c-0.3,1.233-0.55,2.017-0.75,2.35c-0.2,0.4-0.5,0.533-0.9,0.4
			c-0.3-0.1-0.617-0.55-0.95-1.35L45.25,14.85z"/>
		<path style="fill-rule:evenodd;clip-rule:evenodd;fill:#8483B2;" d="M45.5,16.65c-0.367,0.467-0.783,0.633-1.25,0.5
			c-0.433-0.133-0.733-0.517-0.9-1.15c-0.2-0.733-0.1-1.5,0.3-2.3l0.65-1c-0.033,0.767,0.1,1.233,0.4,1.4
			c0.4,0.267,0.633,0.483,0.7,0.65C45.633,15.35,45.667,15.983,45.5,16.65z"/>
		<path style="fill-rule:evenodd;clip-rule:evenodd;fill:#8483B2;" d="M45.35,16.15l0.2,0.45c0.1,0.367,0.083,0.783-0.05,1.25
			c-0.233,1.1-1.383,1.65-3.45,1.65c-0.433-0.033-0.883,0.15-1.35,0.55l-0.6,0.55c0.3-0.8,0.75-1.517,1.35-2.15
			c0.3-0.333,0.617-0.65,0.95-0.95c0.467-0.767,0.967-1.217,1.5-1.35C44.033,16.117,44.517,16.117,45.35,16.15z"/>
		<path style="fill-rule:evenodd;clip-rule:evenodd;fill:#8483B2;" d="M46.6,15.35c0.867,0,1.9,0.25,3.1,0.75
			c0.767,0.367,1.3,0.85,1.6,1.45c-0.267-0.167-0.583-0.3-0.95-0.4c-0.733-0.2-1.367-0.083-1.9,0.35
			c-0.767,0.633-1.367,1.033-1.8,1.2c-0.6,0.267-1.1,0.2-1.5-0.2c-0.433-0.4-0.433-1.033,0-1.9
			C45.583,15.733,46.067,15.317,46.6,15.35z"/>
		<path style="fill-rule:evenodd;clip-rule:evenodd;fill:#8483B2;" d="M44.55,17.45l0.95-0.1c0.633,0.066,1,0.383,1.1,0.95
			c0.1,0.567-0.1,1.067-0.6,1.5c-0.667,0.467-1.15,0.817-1.45,1.05c-0.367,0.3-0.583,0.833-0.65,1.6c-0.033,0.367-0.033,0.7,0,1
			c-0.133-0.434-0.3-1.217-0.5-2.35C43.2,19.467,43.583,18.25,44.55,17.45z"/>
		<path style="fill-rule:evenodd;clip-rule:evenodd;fill:#ABAACC;" d="M44.65,15.7c0.434-0.5,0.85-0.633,1.25-0.4
			c0.4,0.267,0.25,0.784-0.45,1.55c-0.767,0.833-1.267,1.066-1.5,0.7C43.683,17.217,43.917,16.6,44.65,15.7z"/>
	</g>
	<g>
		<path style="fill-rule:evenodd;clip-rule:evenodd;fill:#5C5A98;" d="M120.35,15.7c-0.066,0.767-0.333,1.367-0.8,1.8
			c-0.467,0.467-1,0.65-1.6,0.55c-0.601-0.1-1.084-0.45-1.45-1.05c-0.333-0.6-0.483-1.283-0.45-2.05
			c0.066-0.767,0.334-1.367,0.8-1.8c0.467-0.467,1-0.65,1.601-0.55c0.566,0.1,1.033,0.45,1.399,1.05
			C120.25,14.25,120.417,14.933,120.35,15.7z"/>
		
			<linearGradient id="SVGID_6_" gradientUnits="userSpaceOnUse" x1="12.5972" y1="112.8252" x2="37.0707" y2="112.8252" gradientTransform="matrix(0.3555 -0.9347 0.9347 0.3555 -1.189113e-004 -9.483099e-005)">
			<stop  offset="0" style="stop-color:#7573A8"/>
			<stop  offset="1" style="stop-color:#A6DFC9"/>
		</linearGradient>
		<path style="fill-rule:evenodd;clip-rule:evenodd;fill:url(#SVGID_6_);" d="M110.65,23.95c-0.685-2.536-2.001-3.552-3.95-3.05
			l1.5-0.55c1.866-0.067,3.283,1.25,4.25,3.95c0.267-1.433,0.717-2.783,1.35-4.05c0.8-1.6,1.733-2.717,2.8-3.35l0.15,0.6
			c-1.066,1-1.9,2.333-2.5,4c-0.333,1-0.634,2.317-0.9,3.95L113.6,25l1.25-1.45c1-0.8,1.95-0.7,2.851,0.3
			c-0.533-0.4-1.066-0.467-1.601-0.2c-1.1,0.5-1.666,2.383-1.699,5.65c-0.7,0.167-1.217,0.217-1.551,0.15
			c-0.233-0.034-0.6-0.167-1.1-0.4l-0.65-0.35C111.2,27,111.05,25.417,110.65,23.95z"/>
		<path style="fill-rule:evenodd;clip-rule:evenodd;fill:#8583B0;" d="M118.6,12.85c-0.433,2-0.916,3.1-1.449,3.3
			c-0.4,0.167-0.733,0.017-1-0.45c-0.2-0.467-0.483-1.534-0.851-3.2c-0.2-0.833-0.717-1.483-1.55-1.95l-1.2-0.45
			c1.533-0.7,3-0.45,4.4,0.75C117.65,11.45,118.2,12.117,118.6,12.85z"/>
		<path style="fill-rule:evenodd;clip-rule:evenodd;fill:#8583B0;" d="M118.3,15.2c-0.166-0.867-0.116-1.7,0.15-2.5
			c0.066-0.233,0.333-0.5,0.8-0.8c0.333-0.233,0.467-0.85,0.4-1.85l0.699,1.3c0.434,1.033,0.551,2.033,0.351,3
			c-0.134,0.867-0.467,1.383-1,1.55C119.2,16.1,118.733,15.867,118.3,15.2z"/>
		<path style="fill-rule:evenodd;clip-rule:evenodd;fill:#8583B0;" d="M122.15,19c-1,0.033-1.834-0.15-2.5-0.55
			c-0.733-0.367-1.184-0.9-1.351-1.6c-0.133-0.6-0.133-1.167,0-1.7l0.2-0.6c0.934-0.033,1.467-0.033,1.6,0
			c0.601,0.2,1.167,0.817,1.7,1.85c0.066,0.167,0.417,0.583,1.05,1.25c0.634,0.833,1.117,1.767,1.45,2.8
			C123.667,19.45,122.95,18.967,122.15,19z"/>
		<path style="fill-rule:evenodd;clip-rule:evenodd;fill:#8583B0;" d="M118.75,15.2c0.467,1.133,0.45,1.966-0.05,2.5
			c-0.467,0.5-1.017,0.6-1.65,0.3c-0.5-0.233-1.166-0.767-2-1.6c-0.566-0.566-1.267-0.733-2.1-0.5l-1.101,0.5l0.4-0.7
			c0.4-0.5,0.866-0.883,1.4-1.15c1.267-0.667,2.416-1.017,3.449-1.05C117.733,13.5,118.283,14.067,118.75,15.2z"/>
		<path style="fill-rule:evenodd;clip-rule:evenodd;fill:#8583B0;" d="M119.35,16.3c1.101,1.1,1.534,2.717,1.301,4.85
			c-0.2,1.5-0.384,2.533-0.551,3.1c0.2-1.633-0.033-2.783-0.699-3.45c-0.767-0.566-1.301-1.033-1.601-1.4
			c-0.566-0.566-0.8-1.233-0.7-2c0.101-0.733,0.5-1.133,1.2-1.2C118.667,16.167,119.017,16.2,119.35,16.3z"/>
		<path style="fill-rule:evenodd;clip-rule:evenodd;fill:#ABAACA;" d="M119.3,14c0.834,1.167,1.101,1.983,0.8,2.45
			c-0.3,0.466-0.866,0.15-1.699-0.95c-0.767-1-0.934-1.667-0.5-2C118.333,13.167,118.8,13.333,119.3,14z"/>
	</g>
	
		<use xlink:href="#flash0.ai_x2F_Layer_3_x2F__x3C_Group_x3E_"  width="150.625" height="29.235" x="-0.025" y="-29.252" transform="matrix(1 0 0 -1 10.0498 32.4502)" style="overflow:visible;opacity:0.5703;enable-background:new    ;"/>
	
		<linearGradient id="SVGID_7_" gradientUnits="userSpaceOnUse" x1="-34.8838" y1="58.4082" x2="-3.9619" y2="58.4082" gradientTransform="matrix(-0.1261 -0.992 0.992 -0.1261 7.526577e-005 -6.683469e-004)">
		<stop  offset="0" style="stop-color:#7573A8"/>
		<stop  offset="1" style="stop-color:#A6DFC9"/>
	</linearGradient>
	<path style="fill-rule:evenodd;clip-rule:evenodd;fill:url(#SVGID_7_);" d="M67,0c-3.9,3.633-5.783,8.983-5.65,16.05
		c0.066,3.5,0.517,6.65,1.35,9.45c-2.367,0.633-4.184,0.917-5.45,0.85l-1.15-0.3c0.233-2.867-0.217-5.133-1.35-6.8L53,17.65
		c2.2,0.733,3.633,2.317,4.3,4.75c0.333,1.233,0.45,2.383,0.35,3.45c0.367-2.633-0.083-6-1.35-10.1l-2-5.35
		c1.934,2.3,3.467,5.517,4.6,9.65c0.507,1.775,0.857,3.375,1.05,4.8c-0.88-7.67,0.003-14.087,2.65-19.25
		C63.967,2.933,65.433,1.067,67,0z"/>
</g>
</svg>
