<?xml version="1.0" encoding="iso-8859-1"?>
<!-- Generator: Adobe Illustrator 15.1.0, SVG Export Plug-In . SVG Version: 6.00 Build 0)  -->
<!DOCTYPE svg PUBLIC "-//W3C//DTD SVG 1.1//EN" "http://www.w3.org/Graphics/SVG/1.1/DTD/svg11.dtd">
<svg version="1.1" id="FlashAICB" xmlns="http://www.w3.org/2000/svg" xmlns:xlink="http://www.w3.org/1999/xlink" x="0px" y="0px"
	 width="50.4px" height="57.9px" viewBox="0 0 50.4 57.9" style="enable-background:new 0 0 50.4 57.9;" xml:space="preserve">
<g>
	<path style="fill-rule:evenodd;clip-rule:evenodd;fill:#968251;" d="M50.4,3l-3.2,0.45c-5.233-0.3-8.867-0.567-10.9-0.8
		C27.134,2.017,21.333,1.6,18.9,1.4l-16-1.15L6.65,0l18.9,1.15c1.533,0.067,4.617,0.233,9.25,0.5c4.767,0.3,7.65,0.517,8.65,0.65
		c2.133,0.267,3.866,0.434,5.2,0.5L50.4,3z"/>
	<path style="fill-rule:evenodd;clip-rule:evenodd;fill:#E2CD9A;" d="M3.15,2.45L2.75,3.3L2.6,3.75H2.55l0.35-3.5l16,1.15
		c2.434,0.2,8.234,0.617,17.4,1.25c2.033,0.233,5.667,0.5,10.9,0.8c0.3,0,0.6,0.017,0.899,0.05l-0.05,0.45L48,4.35L43.55,4.2
		c-2.633-0.233-4.6-0.35-5.899-0.35c-2.5-0.033-4.367-0.083-5.601-0.15c-0.366-0.034-1.833-0.217-4.399-0.55
		c-2.067-0.267-4.05-0.4-5.95-0.4c-2.367,0-4.55-0.117-6.55-0.35C10.45,1.9,7.1,1.683,5.1,1.75c-0.6,0-1.017,0.033-1.25,0.1
		C3.617,1.883,3.383,2.083,3.15,2.45z M45.7,6h-3.65c0.033,0,0.3-0.05,0.8-0.15l0.7-0.1l2.75,0.1L46.65,5.9L47,5.95L45.7,6z
		 M41.85,19.05l-0.1-0.15h4.8l-0.05,0.2l-3.35-0.05l0.6,0.1l1.8,0.3C44.017,19.283,42.783,19.15,41.85,19.05z M6.4,24.95l1.65,0.35
		v0.05L8.1,25.3l0.2,0.05l0.2,0.4v0.1L6.55,25.8l-3.7-0.85c0.167,0.033,0.383,0.017,0.65-0.05l1.35-0.05h0.2h0.3L5.7,24.8l0.15,0.05
		L6.4,24.95z M3.9,8c0.082-0.017,0.166-0.033,0.25-0.05L5.1,7.7L4.9,7.8L4.2,8.15C3.9,8.283,3.683,8.5,3.55,8.8
		c-0.2,0.367-0.283,0.784-0.25,1.25c0.034,0,0.217,0,0.55,0c0.233,0,0.383,0.034,0.45,0.1C4.167,10.217,4.067,10.3,4,10.4
		c-0.067,0.067-0.117,0.15-0.15,0.25L3.7,12l-0.25,1.65v0.65c0,0.034-0.017,0.083-0.05,0.15H3.35c-0.3,0.066-0.5,0.133-0.6,0.2
		l0.05-0.2L3,12.1l0.1-1.5l0.2-2.35h0.05L3.9,8z M2.75,19.4l-0.1,0.25L2.3,20.2l-0.1,0.05l0.1-0.75l0.2-2.35
		c0.5,0,1.233-0.033,2.2-0.1c0.962-0.066,1.679-0.1,2.15-0.1c-0.144,0.004-0.544,0.154-1.2,0.45l-1.5,0.45
		c-0.566,0.267-0.933,0.5-1.1,0.7C3.017,18.617,2.967,18.8,2.9,19.1L2.75,19.4z"/>
	<path style="fill-rule:evenodd;clip-rule:evenodd;fill:#C5AA6B;" d="M30.45,32.15c-1.2-0.101-2.316-0.2-3.351-0.301h-0.05
		c-3.9-0.333-6.867-0.566-8.9-0.699H18.1c-1.533-0.534-3.45-1.301-5.75-2.3l-3.05-1.3c-2.667,0-5.25,0.1-7.75,0.3L1.4,29.6
		l12.75,1.25c-2.167-0.166-4.767-0.383-7.8-0.649L0,29.6l0.4-3.95l5.45,0.15L2.8,25.2l-1.75-0.35l0.55,0.1l3.15-0.15l0.1,0.05
		L3.5,24.9c-0.267,0.067-0.483,0.083-0.65,0.05l3.7,0.85l1.95,0.05V26c-0.033,0.1-0.1,0.283-0.2,0.55c0.2-0.1,0.35-0.25,0.45-0.45
		c0.4,0.533,0.917,1,1.55,1.4c0.534,0.333,0.967,0.533,1.3,0.6c0.4,0.066,0.883-0.117,1.45-0.55c0.567-0.433,0.983-0.9,1.25-1.4
		c0.767,0.167,1.65,0.417,2.65,0.75c-0.034,0.2-0.05,0.417-0.05,0.65l0.4,0.7c0.367,0.167,0.883,0.15,1.55-0.05
		c0.167-0.034,0.417-0.15,0.75-0.35c0.467,0.167,0.933,0.35,1.4,0.55c1.133,0.467,2.95,0.583,5.45,0.35
		c0.267-0.033,0.583-0.067,0.95-0.1v0.25l0.649,0.4l0.15-0.1c0.233,0.333,0.467,0.6,0.7,0.8l0.25,0.25
		c0.199,0.2,0.416,0.35,0.649,0.45c0.767,0.333,1.584,0.399,2.45,0.2l0.7-0.051c-0.4-0.199-0.684-0.35-0.851-0.449L31.3,29l2.05-0.1
		c0.801,0.133,1.634,0.033,2.5-0.3c0.834-0.233,1.483-0.65,1.95-1.25c2.9-0.333,5.533-0.4,7.9-0.2l-0.4,4l0.05-0.65v-0.05
		c-4,0.533-7.1,0.967-9.3,1.3L32.5,32.3l1,0.101C32.434,32.333,31.417,32.25,30.45,32.15z M3,12.1l-0.2,2.35c-0.233,0-0.45,0-0.65,0
		l-0.65,0.2L1.45,15c0.859-0.024,1.626-0.041,2.3-0.05C3.41,14.964,3.06,14.981,2.7,15l-0.1,0.95H1.35L1.45,15l0.7-6.75
		C2.45,8.117,2.667,8.033,2.8,8c0.034-0.033,0.467-0.133,1.3-0.3L3.2,8.1C3.424,8.075,3.657,8.042,3.9,8L3.35,8.25H3.3L3.1,10.6
		c-0.1,0-0.217,0.017-0.35,0.05l-0.3,1.55C2.617,12.167,2.8,12.133,3,12.1z M2.3,19.5c-0.3,0.033-0.6,0.083-0.9,0.15L1,20.2
		l-0.05,0.05L1.25,17c4-0.433,7.133-0.567,9.4-0.4c-0.033,0.233-0.017,0.45,0.05,0.65c0.267,0.533,0.5,0.817,0.7,0.85
		c0.2,0.066,0.467-0.017,0.8-0.25c0.267-0.3,0.333-0.633,0.2-1c0.1,0,0.25,0.017,0.45,0.05l0.3,0.55l-0.3-0.05
		c0.1,0.167,0.217,0.233,0.35,0.2l0.2,0.35l-0.5-0.3c0.167,0.2,0.333,0.35,0.5,0.45l0.15,0.1L14,18.85
		c-0.133-0.133-0.233-0.2-0.3-0.2l0.4,0.5c0.066,0.033,0.15,0.083,0.25,0.15l0.05,0.05l0.25,0.3l-0.25-0.1
		c-0.233-0.133-0.4-0.183-0.5-0.15c0,0.133,0.1,0.25,0.3,0.35c0.167,0.133,0.383,0.2,0.65,0.2l0.2,0.35
		c-0.367-0.133-0.667-0.183-0.9-0.15c0.033,0.067,0.083,0.1,0.15,0.1l0.35,0.15l0.5,0.05l0.1,0.1H15.2l-0.1-0.05h-0.05l-1.3-0.25
		c-0.033,0.033-0.017,0.083,0.05,0.15h-0.15l-0.3-0.35l-0.15-0.3l0.1,0.45l0.05,0.1l-0.75-0.35l-0.05-0.05l-0.4-0.25L11.9,19.4
		l0.1,0.4h-0.1c-0.133-0.133-0.25-0.2-0.35-0.2c-0.2-0.067-0.316-0.117-0.35-0.15c-0.133-0.067-0.217-0.133-0.25-0.2l0.05,0.2
		c0,0.1,0.067,0.216,0.2,0.35c-0.4,0-0.867,0.117-1.4,0.35l-0.4,0.1L8.85,20.3c0.2,0.133,0.35,0.2,0.45,0.2l-0.5,0.45L8.3,21.2
		l-0.05,0.05c-1.233-1.033-2.1-1.6-2.6-1.7c-0.867-0.2-1.833-0.25-2.9-0.15l0.15-0.3c0.067-0.3,0.117-0.483,0.15-0.55
		c0.167-0.2,0.534-0.433,1.1-0.7l1.5-0.45c0.656-0.295,1.056-0.445,1.2-0.45c-0.471,0-1.188,0.033-2.15,0.1
		c-0.967,0.067-1.7,0.1-2.2,0.1L2.3,19.5z M0.75,22.2l0.45-0.1c1.2-0.133,2.05-0.2,2.55-0.2c0.233,0,0.467,0,0.7,0
		C3.983,21.933,3.333,22,2.5,22.1l-0.45,0.1l-0.1,1.25h-1.3L0.75,22.2z M4.9,7.8C6,7.567,7.317,7.25,8.85,6.85H8.9h0.05L8.7,7.15
		l-0.3,0.2C8.467,7.417,8.55,7.4,8.65,7.3v0.05c-0.033,0.1-0.033,0.2,0,0.3s0.033,0.233,0,0.4L8.7,7.9l0.1,0.2l0.15,0.15l0.2,0.3
		L9.05,8.3L9.4,8.35h0.4l-0.15-0.1V8.2l0.2-0.4l-0.1,0.05c0-0.167-0.05-0.283-0.15-0.35H9.5L9.45,7.35v0.2L9.3,7.65
		c0,0.067,0.034,0.1,0.1,0.1c0.033,0,0.067-0.017,0.1-0.05C9.6,7.8,9.633,7.9,9.6,8L9.35,8.1L9.4,8.05H9.15l-0.1-0.1
		C9.017,7.717,8.967,7.583,8.9,7.55V7.5l0.05-0.2L9,7.4C8.967,7.3,9,7.2,9.1,7.1H9.05L9.2,6.95l0.3-0.1
		c-0.1,0.1-0.15,0.167-0.15,0.2L9.7,6.9L9.95,7l0.8,0.55L10.6,7.5c0,0.067,0.117,0.183,0.35,0.35H11l0.4,0.75l-0.1-0.05l0.1,0.1
		L11.55,9L11.4,8.95l0.25,0.25l0.15,0.25v0.1C9.5,9.583,6.9,9.867,4,10.4c0.067-0.1,0.167-0.183,0.3-0.25
		c-0.066-0.066-0.216-0.1-0.45-0.1c-0.333,0-0.517,0-0.55,0C3.267,9.583,3.35,9.167,3.55,8.8C3.683,8.5,3.9,8.283,4.2,8.15L4.9,7.8z
		 M8.95,2.35c-1.8-0.067-3.733-0.033-5.8,0.1c0.233-0.367,0.467-0.567,0.7-0.6c0.233-0.067,0.65-0.1,1.25-0.1
		c2-0.067,5.35,0.15,10.05,0.65c2,0.233,4.184,0.35,6.55,0.35c1.9,0,3.883,0.133,5.95,0.4c2.566,0.333,4.033,0.517,4.399,0.55
		c1.233,0.066,3.101,0.117,5.601,0.15c1.3,0,3.267,0.117,5.899,0.35L48,4.35l0.05-0.4L47.95,5C40.384,4.833,34.5,4.833,30.3,5
		c-3.066,0.1-5.716-0.067-7.95-0.5c-2.767-0.633-5.317-1.167-7.65-1.6C13,2.6,11.133,2.417,9.1,2.35
		C9.033,2.35,8.983,2.35,8.95,2.35z M2.3,6.65c1.133-0.3,2.417-0.433,3.85-0.4c-1,0.033-1.9,0.167-2.7,0.4V7.1
		C3.317,7.133,3.2,7.167,3.1,7.2L2.2,7.5L2.3,6.65z M7.4,5.3C5.867,5.4,4.183,5.567,2.35,5.8l0.2-2.05L2.5,4.6l2.35-0.55
		c0.533-0.133,1.2-0.216,2-0.25C6.717,4.067,6.667,4.25,6.7,4.35l0.2-0.4c-0.033,0.2-0.017,0.466,0.05,0.8
		c0,0.3,0.066,0.483,0.2,0.55V5.05l0.2,0.2C7.35,5.283,7.367,5.3,7.4,5.3z M12.05,6.35c0.9-0.1,1.75-0.133,2.55-0.1
		c2.2,0.1,4.517,0.65,6.95,1.65c0.934,0.367,2.067,0.833,3.4,1.4c0.333,0.233,0.7,0.417,1.1,0.55c0.134,0.066,0.3,0.117,0.5,0.15
		c1.066,0.3,2.584,0.533,4.55,0.7v0.2L31.15,11l0.1,0.5l0.25,0.7l0.25,0.5l0.45,0.6c-2.267-0.2-4.717-0.683-7.35-1.45
		c-2.967-0.867-5.434-1.483-7.4-1.85c-0.067-0.067-0.133-0.117-0.2-0.15h0.3c-0.133-0.1-0.3-0.15-0.5-0.15
		c-0.433-0.2-0.95-0.2-1.55,0l0.3-0.35l-0.55,0.3c-0.833-0.1-1.717-0.133-2.65-0.1c0.033-0.066,0.05-0.117,0.05-0.15
		c0.1-0.2,0.117-0.417,0.05-0.65l-0.15,0.3l-0.1,0.15L12.4,8.65c0.133-0.133,0.15-0.417,0.05-0.85c0,0.133-0.05,0.25-0.15,0.35
		C12.3,8.017,12.217,7.417,12.05,6.35z M30.9,9.45l0.05,0.15L26.3,9.05C26.167,9.083,25.95,9,25.65,8.8l-0.7-0.4
		c-0.434-0.233-0.8-0.383-1.1-0.45c0.033-0.067,0.15-0.1,0.35-0.1c-3.467-1.167-6.117-1.934-7.95-2.3
		c-1.167-0.233-2.633-0.367-4.4-0.4c-0.033,0-0.083,0-0.15,0l-0.2-0.5c-0.067-0.2-0.117-0.316-0.15-0.35l-0.3-0.45V3.9L11,3.8
		c0.533,0.034,1.1,0.067,1.7,0.1c2.566,0.2,5.117,0.5,7.65,0.9l0.05,0.05c0.2,0.167,1.033,0.367,2.5,0.6c2.167,0.367,4.5,0.5,7,0.4
		c1.3-0.033,3.183-0.184,5.649-0.45l-11.5-0.15C22.683,5.017,21.6,4.867,20.8,4.8l-0.1-0.05c0.933,0.067,2.3,0.233,4.1,0.5L37.4,5.4
		c-2.667,0.267-4.717,0.417-6.15,0.45C33.184,5.917,35,5.9,36.7,5.8c2.033-0.066,4.083-0.05,6.149,0.05C42.35,5.95,42.083,6,42.05,6
		h3.65l2.149,0.1v0.25L47.6,8.6l-0.449,4.45c-1.634,0.133-3.067,0.233-4.301,0.3c0.067-0.2,0.15-0.383,0.25-0.55
		c0.233-0.367,0.434-0.65,0.601-0.85l-0.15-0.05l-3.25-0.1c-1.267,0.067-2.133,0.25-2.6,0.55h-0.05l-0.101,0.1
		c-0.133-0.5-0.366-0.934-0.7-1.3l-0.199-0.2C37.917,10.983,39.3,11,40.8,11c0.967,0,3.15-0.083,6.55-0.25l0.101-0.9L46.8,10
		c-2.533,0.4-6.75,0.317-12.649-0.25L30.9,8v1.4C30,9.3,29.066,9.183,28.1,9.05C27.767,9.017,27,8.8,25.8,8.4l0.75,0.4
		c0.367,0.2,0.617,0.284,0.75,0.25L30.9,9.45z M47,5.95L46.65,5.9l1.199,0.15L47.2,6L47,5.95z M46.7,17.25l-0.15,1.65h-4.8
		l-1.15-1.7l0.301-0.15l-0.15,0.05c0.833-0.333,1.333-0.934,1.5-1.8c0.033-0.3,0.1-0.6,0.2-0.9c1.5,0,3.017-0.033,4.55-0.1
		L46.7,17.25z M41.85,19.05c0.934,0.1,2.167,0.233,3.7,0.4l0.9,0.15v0.2l-0.15,1.55l-0.399-0.1h-1.4l0.25-0.1
		c-0.233-0.133-0.533-0.25-0.9-0.35h-0.1l-0.5-0.15L43.2,20.6L43.1,20.55l-0.05-0.05L42.9,20.4l-0.351-0.35V20l-0.2-0.2L41.85,19.05
		z M34.5,20.75c0.5-0.133,1.033-0.3,1.6-0.5l0.45-0.2l0.101,0.15c0.233,0.3,0.649,0.566,1.25,0.8L34.5,20.75z M35.75,26.55
		c-0.2-0.066-0.434-0.167-0.7-0.3c-0.8-0.367-1.55-0.55-2.25-0.55l-1.05,0.1l-0.2-0.05c0.601-1.567,1.334-3.033,2.2-4.4h0.05
		c4.667,0.667,8.783,1.1,12.351,1.3l-0.051,0.4l-0.149,1.8L45.8,26.2L44.15,26C40.316,26.167,37.517,26.35,35.75,26.55z M35.5,10.4
		l-0.4-0.15c0.233-0.033,0.467-0.067,0.7-0.1L34.6,10L34.2,9.8l3.5,0.35C36.967,10.25,36.233,10.333,35.5,10.4z M29.4,19.75
		c-1.334-0.3-2.601-0.6-3.801-0.9l-0.149-1c0.066-0.3,0.083-0.483,0.05-0.55l-0.15,0.15L25.3,17.2l-0.05-0.05l-0.2-0.5l0.2,0.05
		c-0.066-0.133-0.184-0.233-0.35-0.3L24.65,16h0.1l-0.1-0.15h-0.1L24.3,15.6l0.15-0.05l-0.3-0.05l-0.3-0.2l0.05-0.05h-0.1l-0.5-0.1
		l0.1-0.3l-0.25,0.2l-0.1,0.1H22.9l0.05-0.35l-0.2,0.25l-0.05,0.1l-1.05,0.45l-0.35,0.25v-0.1l-0.15-0.3
		c-0.033,0.066-0.017,0.216,0.05,0.45L21,16.05l-0.15-0.2c0,0.033,0.033,0.133,0.1,0.3l-0.1,0.1l-0.35-0.3l0.15,0.5l-0.35,0.4
		l-0.1-0.15c-0.034,0-0.067-0.017-0.1-0.05L20.2,17l-0.1,0.25v0.1c-2.633-0.867-4.383-1.434-5.25-1.7
		c-0.267-0.066-0.55-0.133-0.85-0.2c0.033-0.067,0.05-0.133,0.05-0.2c0.034-0.167,0.167-0.467,0.4-0.9l0.05-0.05v-0.05l0.05-0.05
		l0.05-0.1v-0.15l0.05-0.05l-0.05-0.1v-0.05l-0.2,0.2l0.2-0.85l-0.05,0.1V13l0.1-0.7l0.1-0.3l-0.05,0.05l0.15-0.5
		c0.382,0.032,0.749,0.065,1.1,0.1L15.55,12v-0.2l-0.25,0.5l0.05,0.1c-0.1,0.2-0.1,0.483,0,0.85l0.05,0.25l-0.05-0.05l0.15,0.35
		l0.5,0.5c-0.1,0.067-0.217,0.034-0.35-0.1c0,0.066,0.117,0.15,0.35,0.25c0.067,0.133,0.183,0.167,0.35,0.1l0.35,0.2h0.2v0.05
		c0.067,0.067,0.167,0.067,0.3,0l0.2-0.1c0.333-0.167,0.55-0.333,0.65-0.5l0.1,0.3c0.067-0.033,0.1-0.167,0.1-0.4l0.05-0.15
		l-0.05-0.15l0.1-0.55l0.05,0.15v-0.35l-0.1-1.15c0-0.033,0.017-0.033,0.05,0l0.15,0.2c0.033-0.033,0.017-0.1-0.05-0.2
		c0.833,0.1,1.617,0.217,2.35,0.35c1.233,0.267,2.784,0.55,4.65,0.85l0.675,0.2L25.5,13.1c0.5,0.066,1.033,0.133,1.6,0.2l-2.35-0.7
		c-0.933-0.267-1.9-0.5-2.9-0.7l-4-1.35c-0.033-0.033-0.05-0.066-0.05-0.1l9.55,2.9c0.534,0.066,1.067,0.133,1.601,0.2l-1.2,0.05
		l-2.1-0.25l1.699,1.55c1.4,1.167,2.717,2.033,3.95,2.6C30.6,18.167,29.967,18.917,29.4,19.75z M21.05,17.65l0.05-0.25h0.2
		l-0.15-0.1l0.4-0.45L22,16.5l0.05,0.05c0,0.034,0.05,0.05,0.15,0.05l0.1,0.15c-0.033-0.167-0.083-0.283-0.15-0.35l0.25-0.1
		l0.1,0.15c0.033,0.033,0.083,0.117,0.15,0.25l-0.1-0.45c0.167-0.1,0.317-0.15,0.45-0.15l0.05,0.3c0.133,0,0.2-0.1,0.2-0.3
		l0.25,0.15c-0.033,0.067-0.033,0.117,0,0.15l0.05-0.1l0.25,0.2c0,0.2-0.033,0.35-0.1,0.45c0.1,0,0.183-0.083,0.25-0.25l0.35,0.45
		l-0.15,0.25c0.133-0.066,0.184-0.133,0.15-0.2l0.2,0.3l-0.1-0.1c0,0.133-0.1,0.25-0.3,0.35c0.267-0.1,0.4-0.167,0.4-0.2l0.15,0.3
		l0.05,0.6c-0.1,0.033-0.184,0.066-0.25,0.1c-0.233-0.066-0.45-0.117-0.65-0.15l0.05-0.05c-0.067-0.067-0.133-0.067-0.2,0H23.6
		c-0.033-0.067-0.117-0.1-0.25-0.1L23.4,18l-0.15,0.25c-0.134-0.035-0.267-0.068-0.4-0.1C22.228,17.981,21.627,17.815,21.05,17.65z
		 M23.65,19.45l0.05,0.05v0.05l0.05-0.05c0.233,0.033,0.483,0.083,0.75,0.15l-0.05,0.1c-0.1,0-0.167-0.033-0.2-0.1l0.1,0.25h-0.1
		L24.3,20h-0.05L24,20.2l-0.1-0.05l0.05,0.05l-0.25,0.05l-0.15-0.15v0.1l-0.25-0.25l-0.1-0.2c-0.067-0.133-0.1-0.267-0.1-0.4
		c0.167,0.033,0.316,0.066,0.45,0.1c-0.033,0.066-0.033,0.133,0,0.2L23.65,19.45z M19.9,26.45l-0.3-0.8L20,25.8
		c0.1-0.033,0.183-0.233,0.25-0.6c0.167-0.534,0.267-1,0.3-1.4c0.167-0.466,0.267-0.816,0.3-1.05v-0.5l0.1-0.4l0.1,0.2l-0.1-0.3
		l0.1-0.45l0.15,0.1l-0.1-0.25V21.1l0.05-0.5c0.067,0.066,0.15,0.1,0.25,0.1l-0.25-0.35L21.1,19.6l0.1,0.05
		c0.033,0,0.033-0.017,0-0.05l-0.1-0.2V19l0.25-0.05c0.333,0.066,0.667,0.15,1,0.25l0.05,0.1l-0.15-0.05l0.4,1h0.05l0.2,0.3
		l-0.3,0.05c0.066,0.066,0.183,0.066,0.35,0l0.15,0.2L23,20.85h0.15c0.367,0.3,0.717,0.383,1.05,0.25
		c0.167-0.033,0.367-0.167,0.6-0.4v-0.05l0.3-0.4l0.101,0.2V20.1h-0.05c0.066-0.1,0.116-0.184,0.149-0.25
		c1.2,0.233,2.4,0.467,3.601,0.7l-0.25,0.35l2.1,0.05C31.083,20.983,31.4,21,31.7,21c0.133,0.033,0.283,0.067,0.45,0.1
		c-1.101,1.4-2.084,2.85-2.95,4.35c-0.5-0.9-1.184-1.367-2.05-1.4c-1.9-0.233-2.817-0.683-2.75-1.35l0.15-1.3
		c-0.367,0.2-0.683,0.5-0.95,0.9c-0.567,0.767-0.6,1.617-0.1,2.55c0.3,0.667,0.65,1.2,1.05,1.6c0.233,0.433,0.483,0.8,0.75,1.1
		C23.733,27.35,21.933,26.983,19.9,26.45z M20.4,27.25c0.133-0.067,0.35-0.05,0.65,0.05c0.167,0.034,0.383,0.083,0.65,0.15l1.8,0.35
		c0.767,0.133,1.433,0.217,2,0.25h-0.55c-0.633,0-1.333-0.083-2.1-0.25l-1.65-0.35c-0.233-0.067-0.434-0.117-0.6-0.15
		C20.533,27.267,20.467,27.25,20.4,27.25z M25.6,18.85h-0.05V18.8L25.6,18.85z M12.45,9.95V9.9c0.2-0.066,0.383-0.1,0.55-0.1h0.25
		C13.017,9.833,12.75,9.883,12.45,9.95z M10.05,3.75l0.1,0.1c0.067,0.066,0.184,0.1,0.35,0.1c0.233,0.233,0.45,0.633,0.65,1.2
		c-0.066-0.066-0.117-0.1-0.15-0.1L10.7,4.8c0.033,0.1,0.117,0.217,0.25,0.35c-0.767,0-1.583,0.033-2.45,0.1
		c0.133-0.033,0.2-0.1,0.2-0.2l-0.35,0.1C8.45,5.05,8.5,4.933,8.5,4.8l0.05-0.05c0.1-0.3,0.1-0.517,0-0.65l-0.1,0.15L8.4,4
		L8.35,3.85c0-0.033-0.017-0.067-0.05-0.1C8.833,3.75,9.417,3.75,10.05,3.75z M11.5,6.4l0.2,1.2l-0.2-0.3
		c-0.024-0.048-0.041-0.09-0.05-0.125L11.5,7.55l0.3,0.65l-0.05,0.05h0.05v0.4l-0.1-0.1l-0.6-0.8l-0.3-0.5l-0.1-0.1h-0.05L10.5,7
		c-0.033-0.1-0.1-0.15-0.2-0.15l0.05,0.05l-0.3-0.15c-0.066,0-0.117-0.033-0.15-0.1C10.433,6.55,10.967,6.467,11.5,6.4z M10.15,10.5
		c-0.127,0-0.252,0-0.375,0c0.094-0.002,0.219-0.019,0.375-0.05V10.5z M16.95,25.65c-0.5-0.167-1.017-0.333-1.55-0.5
		c-0.3-0.1-0.583-0.2-0.85-0.3c-0.033-0.167-0.066-0.317-0.1-0.45c-0.1-0.5-0.35-0.883-0.75-1.15l-0.25-0.15l-0.15-0.15
		c-0.133-0.067-0.267-0.1-0.4-0.1l0.35,0.2c-0.267-0.033-0.5,0.017-0.7,0.15c-0.133-0.034-0.283-0.034-0.45,0l0.35,0.05L12.2,23.6
		c-0.034,0.033-0.067,0.1-0.1,0.2c-0.7-0.333-1.35-0.7-1.95-1.1c0-0.133,0.067-0.284,0.2-0.45l-0.1,0.05
		c0.033-0.066,0.183-0.233,0.45-0.5l-0.1,0.35l0.55-0.55l0.1-0.05l0.4-0.1h0.05l-0.25,0.25c-0.23,0.229-0.38,0.446-0.45,0.65
		c0.075-0.204,0.375-0.438,0.9-0.7l0.3-0.15h0.2l0.6,0.15c-0.233,0.233-0.383,0.417-0.45,0.55c0.067,0,0.167-0.067,0.3-0.2l0.65-0.2
		l0.5,0.15l-0.55,0.15l0.6,0.2h0.6l0.2,0.05h0.05l0.35,0.15l0.25,0.2l1.3,1.25h-0.2l-0.55,0.1l0.3,0.1l0.3,0.15h0.1l0.15,0.05v0.05
		C16.933,24.7,16.95,25.117,16.95,25.65z M10.5,25.55l2.1,0.25c0.167,0.034,0.333,0.067,0.5,0.1c-0.367,0.7-0.85,0.867-1.45,0.5
		c-0.267-0.167-0.5-0.333-0.7-0.5C10.783,25.767,10.633,25.65,10.5,25.55z M11.6,10.15c-0.167,0.067-0.317,0.117-0.45,0.15
		c-0.033-0.033-0.066-0.066-0.1-0.1c0.1-0.034,0.217-0.067,0.35-0.1c0.067-0.033,0.133-0.05,0.2-0.05
		C11.6,10.083,11.6,10.117,11.6,10.15z M10.9,10.35c-0.133,0.033-0.25,0.066-0.35,0.1c0-0.067,0.034-0.1,0.1-0.1
		c0-0.033,0.017-0.05,0.05-0.05C10.767,10.3,10.833,10.317,10.9,10.35z M11.4,11.45l0.05,0.2l0.2,0.25l-0.05,0.35l-0.15-0.3
		c-0.034,0.1,0,0.283,0.1,0.55l0.05,0.15L11.65,13l-0.3-0.4c-0.033,0.066-0.017,0.167,0.05,0.3l0.05,0.15
		c0.1,0.1,0.15,0.167,0.15,0.2l0.05,0.15l0.1,0.55l-0.1-0.1l-0.15-0.3l0.05,0.35c-0.2,0.067-0.383,0.067-0.55,0l-0.15-0.05
		c-0.033,0-0.15-0.1-0.35-0.3l0.05,0.2L10.1,13.5l-0.3-0.35v0.15c-0.167-0.1-0.367-0.117-0.6-0.05L8.85,13.2
		c0,0.033,0.033,0.083,0.1,0.15c-0.167,0.066-0.3,0.167-0.4,0.3l-0.2,0.1l-0.3,0.1c0.067,0.066,0.184,0.05,0.35-0.05
		c-0.1,0.133-0.183,0.35-0.25,0.65L8,14.6c-1.6-0.133-3.133-0.184-4.6-0.15c0.033-0.067,0.05-0.117,0.05-0.15v-0.65L3.7,12
		C6,11.6,8.567,11.417,11.4,11.45z M10.4,14.85l-0.05-0.2v0.15l-0.25-0.3l-0.2-0.1l0.05,0.05l-0.75,0.2h0.25c0,0.033,0,0.067,0,0.1
		c-0.3-0.033-0.583-0.067-0.85-0.1c0-0.066,0.017-0.133,0.05-0.2L8.7,14.6l0.05-0.35c0.133-0.133,0.2-0.267,0.2-0.4L8.9,13.9
		c0.099-0.165,0.266-0.248,0.5-0.25c-0.102,0.003-0.186,0.053-0.25,0.15l0.45-0.15c0.267,0.1,0.517,0.233,0.75,0.4L9.9,14.1
		c0.067,0,0.184,0.017,0.35,0.05c0.133,0.067,0.233,0.083,0.3,0.05l-0.1-0.1l0.65,0.4l0.05,0.05l-0.2,0.1
		C10.917,14.717,11,14.8,11.2,14.9l0.05,0.05C10.95,14.883,10.667,14.85,10.4,14.85z M11.65,16.7c0.133,0.033,0.283,0.066,0.45,0.1
		c0.066,0.1,0.1,0.267,0.1,0.5c-0.034,0.267-0.167,0.417-0.4,0.45c-0.233,0-0.4-0.117-0.5-0.35c-0.167-0.267-0.233-0.517-0.2-0.75
		c0.133,0,0.267,0.017,0.4,0.05l0.05,0.05C11.583,16.75,11.617,16.733,11.65,16.7z M10.7,15.9h0.1v0.05
		C10.768,15.917,10.734,15.901,10.7,15.9z M12.2,23.85h-0.05l0.05-0.05V23.85z M13.45,24.45c-0.067-0.034-0.15-0.067-0.25-0.1v-0.3
		l-0.05-0.15C13.317,24,13.417,24.183,13.45,24.45z M15.25,17.5c1.2,0.267,2.75,0.633,4.65,1.1c0.033,0,0.067,0.017,0.1,0.05v0.3
		l-0.35-0.1L20,19.2h0.05L20,19.95c-0.133-0.133-0.25-0.167-0.35-0.1c0.033,0.133,0.15,0.267,0.35,0.4L19.7,21l-0.05,0.05v0.05H19.6
		l-0.1-0.2c-0.1,0.033-0.217,0.15-0.35,0.35l-0.1,0.1v0.05l-0.1,0.1H18.9l-0.15,0.05l-0.3,1.35l-0.15-0.3l-0.05-0.25v0.15
		l-0.55-1.05l-0.05-0.5l-0.15-0.4c-0.167-0.233-0.267-0.417-0.3-0.55l0.1,0.7v0.05L16.8,20l-0.05-0.1l-0.3-0.45
		c-0.1-0.2-0.184-0.317-0.25-0.35l0.05,0.15L15.9,18.8l-0.15-0.25c0-0.066-0.1-0.333-0.3-0.8c-0.034,0.1,0,0.283,0.1,0.55l0.05,0.15
		L15.2,18v-0.05l-0.1-0.25C15.2,17.667,15.25,17.6,15.25,17.5z M7.75,23.6c-0.567-0.1-1.317-0.167-2.25-0.2h0.4
		c0.733,0,1.35,0.033,1.85,0.1V23.6z M8.5,21.45c-0.067-0.034-0.117-0.067-0.15-0.1c0.033-0.033,0.066-0.05,0.1-0.05l0.15-0.05
		C8.567,21.317,8.533,21.383,8.5,21.45z M6.4,24.95l1.7,0.25l-0.05,0.1L6.4,24.95z M8.3,25.35L8.1,25.3l0.1-0.1L8.3,25.35z
		 M13.9,11.5L13.8,12c0-0.167-0.066-0.283-0.2-0.35l0.15,0.55v0.15l-0.05,0.5v0.1l-0.2-0.4c0,0.034,0.017,0.167,0.05,0.4
		c0.034,0.233,0,0.35-0.1,0.35l0.15,0.05l-0.15,0.45l-0.05-0.75c-0.066,0.067-0.1,0.217-0.1,0.45l-0.05,0.05L13.1,14l-0.3,0.5
		L12.65,14v-0.05l-0.1-0.8L12.5,13.5l-0.1-0.75c0.033-0.233,0.033-0.483,0-0.75v-0.55c0.1,0,0.2,0,0.3,0
		C13.1,11.45,13.5,11.467,13.9,11.5z M16.25,11.65c0.367,0.033,0.733,0.067,1.1,0.1c0,0.033,0,0.067,0,0.1l-0.05,0.1
		c-0.1,0.1-0.15,0.167-0.15,0.2c0.067,0,0.15-0.05,0.25-0.15l0.05,0.85c-0.1,0.233-0.267,0.4-0.5,0.5
		c0.1,0.033,0.25,0.017,0.45-0.05l-0.3,0.5l-0.35,0.15c0.033-0.034,0.017-0.083-0.05-0.15l-0.6-0.4v0.2
		c-0.167-0.167-0.283-0.483-0.35-0.95c-0.033-0.3,0.083-0.483,0.35-0.55c0.066-0.033,0.2,0.1,0.4,0.4c0.067,0.133,0.067,0.333,0,0.6
		h0.05l-0.1,0.2c0.133-0.033,0.216-0.1,0.25-0.2c0.1-0.2,0.15-0.367,0.15-0.5c0-0.167-0.067-0.35-0.2-0.55
		C16.517,11.817,16.383,11.683,16.25,11.65z M8.2,3.75V3.8L8.05,3.9l-0.1-0.1L8.05,4v0.1c0.133,0.233,0.2,0.4,0.2,0.5L8.1,4.35
		L8.2,4.8h0.05C8.217,5.133,8.017,5.2,7.65,5l0.3-0.15L7.6,4.9L7.5,4.7L7.4,4.25L7.45,4.3l0.1,0.15L7.4,4l0.1-0.25
		c0.033,0,0.083,0,0.15,0C7.817,3.75,8,3.75,8.2,3.75z M3.9,3.4L2.6,3.75L2.75,3.3C3.75,3.133,4.5,3.05,5,3.05L4.5,3.2
		C4.3,3.233,4.1,3.267,3.9,3.3V3.4z M5.05,24.85L5.2,24.8l0.15,0.05H5.05z"/>
	<path style="fill-rule:evenodd;clip-rule:evenodd;fill:#B59C60;" d="M45.2,32.15l-0.15,1.35L33.5,32.4l-1-0.101l3.55-0.55
		c2.2-0.333,5.3-0.767,9.3-1.3v0.05l-1.75,0.4c-0.366,0.066-0.833,0.216-1.399,0.449c-0.667,0.301-1.117,0.483-1.351,0.551
		c-1.366,0.433-2.183,0.683-2.449,0.75C40.467,32.316,42.733,32.15,45.2,32.15z M14.15,30.85L1.4,29.6l0.15-1.75
		c2.5-0.2,5.083-0.3,7.75-0.3l3.05,1.3c2.3,1,4.217,1.766,5.75,2.3c-0.033,0-0.067,0-0.1,0L17.5,31.1
		c-0.467-0.033-0.983-0.066-1.55-0.1l-0.4-0.35c-0.367,0.033-0.833-0.117-1.4-0.45c-0.8-0.467-1.233-0.717-1.3-0.75
		c-0.333-0.134-0.9-0.267-1.7-0.4c-1.767-0.233-3.217-0.183-4.35,0.15c0.267,0.033,0.833,0.05,1.7,0.05
		c0.667,0.033,1.217,0.083,1.65,0.15c0.567,0.1,1.2,0.3,1.9,0.6c0.4,0.167,1,0.417,1.8,0.75L14.15,30.85z M7.75,23.6l-0.1,0.2
		c-0.066,0.133-0.2,0.333-0.4,0.6l0.45-0.35l0.1-0.15l0.05-0.1c0,0.333,0.083,0.7,0.25,1.1v0.3l-1.7-0.25l-0.55-0.1L5.7,24.8
		l-0.35,0.05L5.2,24.8l-0.15,0.05h-0.2l-0.1-0.05L1.6,24.95l-0.55-0.1l-0.55-0.1l0.1-1.3h0.05h1.3l3-0.05c0.033,0,0.083,0,0.15,0
		h0.4C6.433,23.433,7.183,23.5,7.75,23.6z M0.75,22.2l0.15-1.95h0.05L1,20.2l0.4-0.55c0.3-0.066,0.6-0.117,0.9-0.15l-0.1,0.75
		l0.1-0.05l0.35-0.55l0.1-0.25c1.067-0.1,2.033-0.05,2.9,0.15c0.5,0.1,1.367,0.667,2.6,1.7l-0.5,0.1c0.067,0.066,0.267,0.066,0.6,0
		c0.033,0.033,0.083,0.066,0.15,0.1c-0.2,0.233-0.333,0.45-0.4,0.65l-0.3,0.3c-0.033,0-0.066,0.017-0.1,0.05
		c-0.367-0.167-0.667-0.284-0.9-0.35c-0.333-0.133-1-0.2-2-0.2c-0.1,0-0.216,0-0.35,0c-0.233,0-0.467,0-0.7,0
		c-0.5,0-1.35,0.067-2.55,0.2L0.75,22.2z M1.25,17l0.1-1.05H2.6l6.05-0.05c0,0.067,0.033,0.133,0.1,0.2
		c0.1,0.133,0.183,0.217,0.25,0.25L8.9,16l0.25,0.1l0.15,0.15c0.3,0,0.467-0.017,0.5-0.05l-0.15-0.05l0.2-0.1L9.9,16.1l0.3-0.05
		l-0.1-0.1c0.033,0,0.066-0.017,0.1-0.05h0.5c0.034,0.001,0.067,0.018,0.1,0.05c-0.033,0.133-0.066,0.283-0.1,0.45
		c-0.034,0.067-0.05,0.133-0.05,0.2C8.383,16.433,5.25,16.567,1.25,17z M2.3,6.65L2.35,5.8C4.183,5.567,5.867,5.4,7.4,5.3
		c0.067,0.067,0.184,0.133,0.35,0.2l-0.1-0.15L8,5.3c0.067,0.067,0.2,0.05,0.4-0.05c0.033,0,0.067,0,0.1,0
		c0.867-0.067,1.683-0.1,2.45-0.1L11,5.2l0.25,0.4l0.05,0.15h0.05L11.5,6.4c-0.533,0.067-1.067,0.15-1.6,0.25
		C9.8,6.583,9.717,6.5,9.65,6.4l0.1,0.25c-0.1-0.066-0.217-0.066-0.35,0l-0.5,0.1c-0.033,0.033-0.033,0.067,0,0.1H8.85
		C7.317,7.25,6,7.567,4.9,7.8l0.2-0.1L4.15,7.95C4.065,7.967,3.982,7.983,3.9,8C3.657,8.042,3.424,8.075,3.2,8.1l0.9-0.4
		C3.267,7.867,2.833,7.967,2.8,8C2.667,8.033,2.45,8.117,2.15,8.25H2.1L2.2,7.5l0.9-0.3c0.1-0.034,0.217-0.067,0.35-0.1L3.4,7.5
		l0.8-0.3c1.2-0.333,2.4-0.633,3.6-0.9C7.2,6.267,6.65,6.25,6.15,6.25C4.717,6.217,3.433,6.35,2.3,6.65z M3.15,2.45
		c2.067-0.133,4-0.167,5.8-0.1l0.15,0.1c-0.3-0.034-0.567-0.034-0.8,0L8.1,2.4l0.05,0.1l-0.6,0.25C7.317,2.85,7.183,2.9,7.15,2.9
		h0.2L7.2,3.15v-0.1C7.033,3.15,6.817,3.333,6.55,3.6l0.5-0.2l-0.1,0.25l-0.1,0.1V3.8c-0.8,0.034-1.467,0.117-2,0.25L2.5,4.6
		l0.05-0.85H2.6L3.9,3.4L3.75,3.75l2.2-0.7C5.583,3.05,5.1,3.1,4.5,3.2L5,3.05c-0.5,0-1.25,0.083-2.25,0.25L3.15,2.45z M3,12.1
		c-0.2,0.033-0.383,0.066-0.55,0.1l0.3-1.55C2.883,10.617,3,10.6,3.1,10.6L3,12.1z M46.3,5.85l-2.75-0.1l-0.7,0.1
		c-2.066-0.1-4.116-0.117-6.149-0.05c-1.7,0.1-3.517,0.117-5.45,0.05c1.434-0.033,3.483-0.184,6.15-0.45L24.8,5.25
		c-1.8-0.267-3.167-0.433-4.1-0.5l0.1,0.05c-0.2-0.033-0.367-0.05-0.5-0.05l0.05,0.05c-2.533-0.4-5.083-0.7-7.65-0.9
		c-0.6-0.033-1.167-0.066-1.7-0.1l-0.9-1.15v0.2L9.85,2.7l-0.4-0.15C9.317,2.45,9.2,2.383,9.1,2.35C11.133,2.417,13,2.6,14.7,2.9
		c2.333,0.434,4.883,0.967,7.65,1.6c2.233,0.433,4.883,0.6,7.95,0.5c4.2-0.167,10.084-0.167,17.65,0L47.9,5.5L44.55,5.55l1.2,0.2
		L46.3,5.85z M47.85,6.1L45.7,6L47,5.95L47.2,6l0.649,0.05V6.1z M42.45,14.4c0.1-0.367,0.233-0.717,0.399-1.05
		c1.233-0.067,2.667-0.167,4.301-0.3L47,14.3C45.467,14.367,43.95,14.4,42.45,14.4z M36.65,10.95L35.85,10.5l-0.35-0.1
		c0.733-0.066,1.467-0.15,2.2-0.25L34.2,9.8l-0.05-0.05C40.05,10.317,44.267,10.4,46.8,10l0.65-0.15l-0.101,0.9
		C43.95,10.917,41.767,11,40.8,11C39.3,11,37.917,10.983,36.65,10.95z M46.2,22.25l-0.05,0.4c-3.567-0.2-7.684-0.633-12.351-1.3
		l0.3-0.55c0.134-0.033,0.267-0.05,0.4-0.05L37.9,21c0.833,0.3,1.983,0.55,3.449,0.75h0.601C43.05,21.917,44.467,22.083,46.2,22.25z
		 M45.7,27.15c-2.367-0.2-5-0.133-7.9,0.2c0.167-0.233,0.3-0.483,0.4-0.75h-0.05l0.05-0.05c-0.334,0.167-0.851,0.25-1.55,0.25
		c-0.2,0-0.5-0.083-0.9-0.25c1.767-0.2,4.566-0.383,8.4-0.55l1.649,0.2L45.7,27.15z M20.4,27.25c-0.066,0-0.117,0-0.15,0
		c-0.033-0.1-0.1-0.183-0.2-0.25l-0.15-0.55c2.033,0.533,3.833,0.9,5.4,1.1c0.101,0.1,0.2,0.2,0.3,0.3l0.25,0.2H25.8
		c-0.1,0-0.2,0-0.3,0c-0.567-0.033-1.233-0.117-2-0.25l-1.8-0.35c-0.267-0.067-0.483-0.117-0.65-0.15
		C20.75,27.2,20.533,27.183,20.4,27.25z M12.05,6.35C12.017,6.317,12,6.283,12,6.25c0.1-0.1,0.117-0.233,0.05-0.4l-0.2-0.7
		l-0.05,0.3l-0.1-0.3c0.066,0,0.117,0,0.15,0c1.767,0.033,3.233,0.167,4.4,0.4c1.833,0.367,4.483,1.133,7.95,2.3
		c-0.2,0-0.317,0.033-0.35,0.1c-0.167-0.067-0.3-0.1-0.4-0.1c-0.2,0-0.317,0.033-0.35,0.1c0.6,0.533,1.217,0.983,1.85,1.35
		c-1.333-0.566-2.467-1.033-3.4-1.4c-2.433-1-4.75-1.55-6.95-1.65C13.8,6.217,12.95,6.25,12.05,6.35z M31.1,10.7
		c-1.966-0.167-3.483-0.4-4.55-0.7c0.733,0.167,1.783,0.283,3.15,0.35c0.434,0.033,0.883,0.066,1.35,0.1v0.05L31.1,10.7z M30.9,9.45
		L27.3,9.05C27.167,9.083,26.917,9,26.55,8.8L25.8,8.4c1.2,0.4,1.967,0.617,2.3,0.65C29.066,9.183,30,9.3,30.9,9.4V9.45z
		 M17.8,10.45c-0.1-0.167-0.216-0.317-0.35-0.45c1.966,0.367,4.433,0.983,7.4,1.85c2.633,0.767,5.083,1.25,7.35,1.45l0.05,0.1H31.8
		c-0.166,0.033-0.434,0.05-0.8,0.05l-0.4,0.05l-1.649,0.05c-0.533-0.066-1.066-0.133-1.601-0.2L17.8,10.45z M18.45,11.9
		c0-0.066-0.017-0.117-0.05-0.15c-0.066-0.233-0.15-0.383-0.25-0.45c0-0.033-0.017-0.066-0.05-0.1c0.133,0,0.267,0.017,0.4,0.05
		c1.82,0.351,3.578,0.776,5.275,1.275L21.85,11.9c1,0.2,1.967,0.434,2.9,0.7l2.35,0.7c-0.566-0.066-1.1-0.133-1.6-0.2l-0.775-0.25
		l0.725,0.25c-1.867-0.3-3.417-0.583-4.65-0.85C20.067,12.117,19.283,12,18.45,11.9z M18.35,11.9c-0.033-0.033-0.05-0.033-0.05,0
		l-0.05-0.15l0.1,0.1V11.9z M17.35,11.75c-0.367-0.033-0.733-0.067-1.1-0.1l0.05-0.1c-0.033-0.033-0.117-0.017-0.25,0.05L16,11.65
		h-0.05c-0.352-0.035-0.718-0.068-1.1-0.1v-0.1l0.05-0.05c0.067-0.133,0.217-0.3,0.45-0.5l-0.2,0.15l-0.2,0.1l0.15-0.3
		c0.033-0.033,0.083-0.067,0.15-0.1c0.167,0,0.317,0.017,0.45,0.05l0.7,0.1c0.1,0,0.217,0.017,0.35,0.05V11L17,11.5l-0.1-0.55h0.05
		C17.117,11.183,17.25,11.45,17.35,11.75z M15.25,17.5c0-0.167-0.067-0.417-0.2-0.75c0.1-0.133,0.267-0.2,0.5-0.2
		c0.267-0.033,0.4,0.083,0.4,0.35c0,0.067-0.034,0.2-0.1,0.4c-0.033,0.167,0,0.267,0.1,0.3c0.1,0.033,0.216-0.017,0.35-0.15
		s0.133-0.284,0-0.45c-0.133-0.6-0.3-0.933-0.5-1c-0.066-0.033-0.233,0-0.5,0.1c-0.3,0.1-0.483,0.183-0.55,0.25l-0.15,0.3
		c0,0.133-0.05,0.267-0.15,0.4l-0.25-0.3l-0.1-0.3l-0.05-0.55l-0.1,0.45L13.9,16.3v-0.15c0-0.2,0.033-0.433,0.1-0.7
		c0.3,0.066,0.583,0.133,0.85,0.2c0.867,0.267,2.617,0.833,5.25,1.7l-0.05,0.2c-0.133-0.133-0.267-0.133-0.4,0l0.3,0.2L20,17.8v0.15
		L19.85,18c0.066,0.067,0.117,0.067,0.15,0v0.2h-0.25L20,18.3v0.35c-0.033-0.033-0.067-0.05-0.1-0.05
		C18,18.133,16.45,17.767,15.25,17.5z M29.4,19.75L29.35,19.8L28.9,20.55c-1.2-0.233-2.4-0.466-3.601-0.7
		c0.134-0.3,0.217-0.633,0.25-1h0.05C26.8,19.15,28.066,19.45,29.4,19.75z M24.45,18.55c-0.067,0.034-0.117,0.05-0.15,0.05l0.4,0.1
		l-0.05,0.65l-0.2-0.1l0.15,0.2l-0.1,0.2c-0.267-0.066-0.517-0.117-0.75-0.15l0.15-0.4c0.067-0.167,0.05-0.35-0.05-0.55L23.7,18.4
		h0.1C24,18.433,24.217,18.483,24.45,18.55z M23.55,19.45c-0.133-0.034-0.283-0.067-0.45-0.1c0-0.067,0-0.117,0-0.15
		c0.033,0,0.05-0.017,0.05-0.05c0.033-0.033,0.033-0.066,0-0.1H23.1c0.066-0.133,0.133-0.2,0.2-0.2c0.067-0.067,0.1-0.05,0.1,0.05
		v0.15L23.45,19l0.1,0.2v0.15h0.05C23.567,19.383,23.55,19.417,23.55,19.45z M23.7,19.5l-0.05-0.05V19.4h0.05V19.5z M21.05,17.65
		c0.578,0.165,1.178,0.332,1.8,0.5c0.133,0.032,0.266,0.065,0.4,0.1l-0.35,0.1l-0.05-0.2l-0.1,0.25l-0.2,0.25v-0.1l-0.1-0.2v0.4
		l-0.1,0.4v0.05c-0.333-0.1-0.667-0.184-1-0.25l0.05-0.05h-0.3l-0.05-0.35l0.3-0.2L21.1,18.4h-0.05v-0.35l0.1-0.2l-0.1,0.05v-0.15
		h0.05L21.05,17.65z M31.7,21c0.2,0,0.383-0.017,0.55-0.05c-0.033,0.033-0.066,0.083-0.1,0.15C31.983,21.067,31.833,21.033,31.7,21z
		 M13.45,24.45c0.033,0.167,0.017,0.367-0.05,0.6c-0.1,0.333-0.2,0.617-0.3,0.85c-0.167-0.033-0.333-0.066-0.5-0.1l-2.1-0.25
		c-0.3-0.333-0.5-0.65-0.6-0.95c0.167,0.167,0.283,0.25,0.35,0.25L10,24l0.4,0.1c-0.167-0.233-0.367-0.45-0.6-0.65l0.1-0.5l0.05,0.2
		c0,0.133,0.05,0.217,0.15,0.25c-0.033-0.133-0.017-0.367,0.05-0.7c0.6,0.4,1.25,0.767,1.95,1.1c-0.067,0.034-0.117,0.083-0.15,0.15
		l0.2-0.1h0.05l0.05,0.3v0.5l0.1-0.3l0.2,0.2l0.15,0.4l0.05-0.3l0.2-0.05l0.1-0.25c0.1,0.066,0.15,0.066,0.15,0
		C13.3,24.383,13.383,24.417,13.45,24.45z M14.55,24.85c0.267,0.1,0.55,0.2,0.85,0.3c0.533,0.167,1.05,0.333,1.55,0.5
		c0,0.333,0,0.75,0,1.25c-1-0.333-1.883-0.583-2.65-0.75c0-0.033,0-0.066,0-0.1C14.467,25.65,14.55,25.25,14.55,24.85z M10.15,10.45
		c-0.156,0.031-0.281,0.048-0.375,0.05c0.123,0,0.248,0,0.375,0c0,0.133,0.033,0.25,0.1,0.35c0.1,0.2,0.317,0.233,0.65,0.1
		c0-0.2-0.033-0.317-0.1-0.35l0.05,0.15c-0.2,0.167-0.3,0.083-0.3-0.25c0.133,0,0.284,0,0.45,0l0.3,0.6l0.1,0.35
		C8.567,11.417,6,11.6,3.7,12l0.15-1.35c0.033-0.1,0.083-0.183,0.15-0.25c2.9-0.533,5.5-0.816,7.8-0.85l-0.05,0.5
		c-0.033-0.2-0.083-0.333-0.15-0.4c-0.033,0.1-0.033,0.233,0,0.4c-0.067,0-0.133,0.017-0.2,0.05c-0.133,0.033-0.25,0.066-0.35,0.1
		c-0.133-0.133-0.283-0.2-0.45-0.2c-0.2-0.033-0.333,0.033-0.4,0.2C10.167,10.267,10.15,10.35,10.15,10.45z M11.7,10.5v0.05
		l-0.05,0.75l-0.1-0.3l0.1,0.35l-0.3-0.4c-0.033-0.2-0.067-0.35-0.1-0.45c0.033,0,0.067,0,0.1,0H11.7z M8,14.6l-0.2,0.2
		c0.034,0,0.15-0.05,0.35-0.15l0.1,0.55C7.55,15.1,7,15.033,6.6,15c-0.533-0.033-1.233-0.05-2.1-0.05H3.75
		c-0.674,0.009-1.44,0.026-2.3,0.05l0.05-0.35l0.65-0.2c0.2,0,0.417,0,0.65,0l-0.05,0.2c0.1-0.066,0.3-0.133,0.6-0.2H3.4
		C4.867,14.417,6.4,14.467,8,14.6z M11.65,16.7c0.033-0.034,0.067-0.067,0.1-0.1s0.1-0.017,0.2,0.05
		c0.033,0.033,0.083,0.083,0.15,0.15C11.933,16.767,11.783,16.733,11.65,16.7z M10.4,14.85c0.267,0,0.55,0.033,0.85,0.1l0.3,0.25
		c-0.167,0.033-0.35,0.15-0.55,0.35c-0.033,0.034-0.067,0.083-0.1,0.15c-0.133-0.034-0.267-0.05-0.4-0.05
		c0.033-0.033,0.05-0.066,0.05-0.1V15.5c0.1-0.1,0.117-0.233,0.05-0.4l-0.1,0.15L10.4,14.85z M9.4,15.4
		c-0.233-0.033-0.45-0.066-0.65-0.1L8.7,15.25v0.05l-0.1-0.4c-0.033-0.066-0.033-0.15,0-0.25c0.267,0.033,0.55,0.067,0.85,0.1
		c-0.067,0.033-0.117,0.083-0.15,0.15l-0.05-0.05l-0.1,0.3L9.3,15L9.4,15.4z M10.1,15.55c-0.2-0.033-0.367-0.066-0.5-0.1
		c-0.033,0-0.067,0-0.1,0V15.4c0.1-0.133,0.133-0.316,0.1-0.55l0.2-0.05l-0.05,0.15l0.2-0.1c0.1,0,0.183,0.066,0.25,0.2
		C10.267,15.25,10.233,15.417,10.1,15.55z M12.85,16.9c-0.2-0.033-0.35-0.05-0.45-0.05V16.8c-0.066-0.333-0.2-0.5-0.4-0.5
		c-0.167,0-0.3,0.05-0.4,0.15c-0.1,0.066-0.133,0.15-0.1,0.25c-0.133-0.034-0.267-0.05-0.4-0.05c0-0.2,0.083-0.4,0.25-0.6
		c0.066-0.033,0.117-0.066,0.15-0.1c0.067,0,0.15-0.017,0.25-0.05c0.167-0.066,0.333-0.066,0.5,0l0.15,0.45
		c0.067,0.167,0.15,0.25,0.25,0.25L12.85,16.9z M7.95,22.6L7.9,22.55c0.033-0.033,0.067-0.066,0.1-0.1
		C8,22.483,7.983,22.533,7.95,22.6z M20.15,27.5c0.167,0.133,0.434,0.233,0.8,0.3c0.466,0.167,1.183,0.317,2.15,0.45
		c0.767,0.133,1.667,0.183,2.7,0.15c0.2,0,0.4,0,0.601,0c0.032,0,0.065,0,0.1,0c0.366,0.167,0.634,0.217,0.8,0.15V28.5H27.4v0.15
		c-0.367,0.033-0.684,0.067-0.95,0.1c-2.5,0.233-4.317,0.117-5.45-0.35c-0.467-0.2-0.933-0.383-1.4-0.55
		c0.167-0.1,0.333-0.2,0.5-0.3C20.133,27.55,20.15,27.533,20.15,27.5z M13.25,9.8H13c-0.167,0-0.35,0.034-0.55,0.1V9.65
		c0.066-0.033,0.117-0.066,0.15-0.1c0.933-0.033,1.816,0,2.65,0.1l-0.2,0.1V9.8H13.25z M13.35,10.55c0.233,0,0.467,0.017,0.7,0.05
		l-0.1,0.15l0.05,0.3l-0.1,0.45c-0.4-0.033-0.8-0.05-1.2-0.05c-0.1,0-0.2,0-0.3,0V11.4c0.033,0,0.083-0.083,0.15-0.25
		c0.034-0.1,0.017-0.267-0.05-0.5l-0.05,0.3v-0.3l0.2-0.15c0.1,0,0.217,0.017,0.35,0.05c0.133,0.067,0.217,0.233,0.25,0.5
		c-0.1,0.1-0.183,0.034-0.25-0.2l-0.15,0.05l0.05,0.4l0.3-0.05c0.1,0,0.15-0.067,0.15-0.2C13.35,10.85,13.35,10.683,13.35,10.55z
		 M14.25,10.65L14.1,10.8l-0.05-0.2C14.117,10.6,14.183,10.617,14.25,10.65z M8.3,3.75c-0.033-0.1-0.083-0.167-0.15-0.2
		C8.117,3.617,8.133,3.683,8.2,3.75c-0.2,0-0.383,0-0.55,0c-0.066,0-0.117,0-0.15,0L7.6,3.5l0.05,0.25l0.05-0.3l0.1-0.2
		c0.034-0.033,0.133-0.1,0.3-0.2l-0.15,0.3L8.35,3L8.5,2.95C8.633,2.917,8.833,2.933,9.1,3L8.85,3.05
		C9.083,3.183,9.3,3.217,9.5,3.15c0.267,0.133,0.533,0.333,0.8,0.6c-0.233-0.067-0.367-0.1-0.4-0.1l0.15,0.1
		C9.417,3.75,8.833,3.75,8.3,3.75z"/>
	<path style="fill-rule:evenodd;clip-rule:evenodd;fill:#594C30;" d="M45.75,5.75c0.467,0,0.9-0.033,1.3-0.1l2.45-0.4L49.35,5.3
		L49.9,5.5L49.85,6.15c-0.433,0.133-0.966,0.2-1.6,0.2c-0.134,0-0.267,0-0.4,0V6.1V6.05L46.65,5.9L46.3,5.85L45.75,5.75z M46.2,28.3
		c0-0.1,0-0.2,0-0.3v-0.3c0-1.4-0.084-2.35-0.25-2.85l0.149-1.8c0.034,0.133,0.067,0.284,0.101,0.45l0.05,0.7l0.2,0.2
		c0.1,0.367,0.066,0.967-0.101,1.8v0.95C46.35,27.417,46.3,27.8,46.2,28.3z M46.3,21.4c0.3,0,0.717,0.083,1.25,0.25
		c-0.1,0.067-0.366,0.1-0.8,0.1c-0.233,0-0.4,0.05-0.5,0.15L46.3,21.4z M48.65,19.5L48.6,19.85c-0.366,0-0.633-0.017-0.8-0.05
		c-0.467,0-0.916,0-1.35,0v-0.2l-0.9-0.15l-1.8-0.3h4.8L48.3,19.3L48.65,19.5z M46.6,32.8L46.1,33L46,32.5
		c-0.233-0.566-0.267-1.2-0.1-1.9c0.133-0.566,0.216-1.133,0.25-1.7c0,0.2,0.017,0.383,0.05,0.55l1.05-0.15
		c0.233,0,0.366-0.017,0.4-0.05v0.5c0,0.6-0.134,1.517-0.4,2.75L46.6,32.8z M46.7,17.25L47,14.3l0.15-1.25L47.6,8.6l0.051,2.45
		c0,0.2,0.017,0.55,0.05,1.05c0,0.467-0.033,0.816-0.101,1.05l-0.149,0.5c0,0.033,0.033,0.6,0.1,1.7c0.033,0.7-0.133,1.217-0.5,1.55
		L46.7,17.25z"/>
	<path style="fill-rule:evenodd;clip-rule:evenodd;fill:#796942;" d="M47.2,3.45L50.4,3l-0.2,2l-0.7,0.25l-2.45,0.4
		c-0.399,0.067-0.833,0.1-1.3,0.1l-1.2-0.2L47.9,5.5L47.95,5l0.1-1.05L48.1,3.5C47.8,3.467,47.5,3.45,47.2,3.45z M48.55,19.15h-4.8
		l-0.6-0.1l3.35,0.05l0.05-0.2l0.15-1.65l0.35-0.35c0.367-0.333,0.533-0.85,0.5-1.55c-0.066-1.1-0.1-1.667-0.1-1.7l0.149-0.5
		c0.067-0.233,0.101-0.583,0.101-1.05c-0.033-0.5-0.05-0.85-0.05-1.05L47.6,8.6l0.25-2.25c0.134,0,0.267,0,0.4,0
		c0.634,0,1.167-0.067,1.6-0.2L48.8,19L48.55,19.15z M48.65,19.5l-1,10.25v-0.5c-0.034,0.033-0.167,0.05-0.4,0.05l-1.05,0.15
		c-0.033-0.167-0.05-0.351-0.05-0.55c0.021-0.2,0.038-0.4,0.05-0.6c0.1-0.5,0.149-0.883,0.149-1.15V26.2
		c0.167-0.833,0.2-1.434,0.101-1.8l-0.2-0.2l-0.05-0.7c-0.033-0.167-0.066-0.317-0.101-0.45l0.051-0.4l0.05-0.4l0.05-0.35
		c0.1-0.1,0.267-0.15,0.5-0.15c0.434,0,0.7-0.033,0.8-0.1c-0.533-0.167-0.95-0.25-1.25-0.25v-0.05l0.15-1.55c0.434,0,0.883,0,1.35,0
		c0.167,0.034,0.434,0.05,0.8,0.05L48.65,19.5z M45.6,33.25L46.1,33l0.5-0.2L45.6,33.25z M2.8,25.2l3.05,0.6L0.4,25.65L2.8,25.2z"/>
	<path style="fill-rule:evenodd;clip-rule:evenodd;fill:#625027;" d="M8.95,2.35c0.033,0,0.083,0,0.15,0
		c0.1,0.033,0.217,0.1,0.35,0.2l0.4,0.15l0.25,0.15v-0.2L11,3.8l0.05,0.1V3.85l0.3,0.45c0.033,0.034,0.083,0.15,0.15,0.35l0.2,0.5
		l0.1,0.3l0.05-0.3l0.2,0.7c0.067,0.167,0.05,0.3-0.05,0.4c0,0.033,0.017,0.067,0.05,0.1c0.167,1.066,0.25,1.667,0.25,1.8
		c0.1-0.1,0.15-0.217,0.15-0.35c0.1,0.434,0.083,0.717-0.05,0.85l0.05,0.55l0.1-0.15l0.15-0.3c0.066,0.233,0.05,0.45-0.05,0.65
		c0,0.033-0.017,0.083-0.05,0.15c-0.033,0.034-0.083,0.067-0.15,0.1V9.9v0.05v0.4l0.15-0.05c0.333-0.066,0.55-0.05,0.65,0.05
		c0.033,0.033,0.067,0.1,0.1,0.2c0,0.133,0,0.3,0,0.5c0,0.133-0.05,0.2-0.15,0.2l-0.3,0.05l-0.05-0.4L13,10.85
		c0.067,0.233,0.15,0.3,0.25,0.2c-0.033-0.267-0.117-0.433-0.25-0.5c-0.133-0.033-0.25-0.05-0.35-0.05l-0.2,0.15v0.3l0.05-0.3
		c0.067,0.233,0.083,0.4,0.05,0.5c-0.066,0.167-0.117,0.25-0.15,0.25v0.05V12c0.033,0.267,0.033,0.517,0,0.75l0.1,0.75l0.05-0.35
		l0.1,0.8V14l0.15,0.5l0.3-0.5l0.15-0.45l0.05-0.05c0-0.233,0.034-0.383,0.1-0.45l0.05,0.75l0.15-0.45l-0.15-0.05
		c0.1,0,0.133-0.117,0.1-0.35c-0.033-0.233-0.05-0.367-0.05-0.4l0.2,0.4v-0.1l0.05-0.5V12.2l-0.15-0.55
		c0.133,0.067,0.2,0.184,0.2,0.35l0.1-0.5l0.1-0.45l-0.05-0.3l0.1-0.15l0.05,0.2l0.15-0.15l0.15-0.3l0.05-0.15l0.2-0.2v0.15
		l0.25-0.2l0.15-0.15V9.75l0.2-0.1l0.55-0.3L15.5,9.7c0.6-0.2,1.117-0.2,1.55,0c0.2,0,0.367,0.05,0.5,0.15h-0.3
		c0.067,0.033,0.133,0.083,0.2,0.15c0.133,0.133,0.25,0.283,0.35,0.45c0,0.033,0.017,0.066,0.05,0.1
		c0.1,0.167,0.183,0.383,0.25,0.65c0.033,0.033,0.05,0.066,0.05,0.1c0.1,0.067,0.184,0.217,0.25,0.45
		c0.033,0.033,0.05,0.083,0.05,0.15c0.066,0.1,0.083,0.167,0.05,0.2l-0.15-0.2v-0.05l-0.1-0.1l0.05,0.15l0.1,1.15v0.35l-0.05-0.15
		l-0.1,0.55l0.05,0.15l-0.05,0.15c0,0.233-0.033,0.367-0.1,0.4l-0.1-0.3c-0.1,0.167-0.316,0.333-0.65,0.5l-0.2,0.1
		c-0.133,0.067-0.233,0.067-0.3,0v-0.05h-0.2l-0.35-0.2c-0.167,0.067-0.283,0.034-0.35-0.1c-0.233-0.1-0.35-0.184-0.35-0.25
		c0.133,0.133,0.25,0.167,0.35,0.1l-0.5-0.5l-0.15-0.35l0.05,0.05l-0.05-0.25c-0.1-0.367-0.1-0.65,0-0.85l-0.05-0.1l0.25-0.5V12
		l0.4-0.35H16l0.05-0.05c0.133-0.067,0.217-0.083,0.25-0.05l-0.05,0.1c0.133,0.033,0.267,0.167,0.4,0.4
		c0.133,0.2,0.2,0.383,0.2,0.55c0,0.133-0.05,0.3-0.15,0.5c-0.034,0.1-0.117,0.167-0.25,0.2l0.1-0.2H16.5
		c0.067-0.267,0.067-0.467,0-0.6c-0.2-0.3-0.333-0.433-0.4-0.4c-0.267,0.066-0.383,0.25-0.35,0.55
		c0.067,0.467,0.183,0.783,0.35,0.95v-0.2l0.6,0.4c0.066,0.067,0.083,0.117,0.05,0.15l0.35-0.15l0.3-0.5
		c-0.2,0.067-0.35,0.083-0.45,0.05c0.233-0.1,0.4-0.267,0.5-0.5L17.4,12c-0.1,0.1-0.183,0.15-0.25,0.15c0-0.033,0.05-0.1,0.15-0.2
		l0.05-0.1c0-0.033,0-0.067,0-0.1c-0.1-0.3-0.233-0.567-0.4-0.8c-0.033-0.001-0.049-0.018-0.05-0.05v0.05L17,11.5L16.75,11v-0.05
		L16.7,10.7c-0.1-0.1-0.184-0.15-0.25-0.15L16.4,10.5l0.1,0.15c-0.267-0.066-0.483-0.083-0.65-0.05v-0.1
		c-0.233,0.033-0.434,0.117-0.6,0.25c-0.067,0.033-0.117,0.067-0.15,0.1l-0.15,0.3l0.2-0.1l0.2-0.15
		c-0.233,0.2-0.383,0.367-0.45,0.5l-0.05,0.05v0.1l-0.15,0.5L14.75,12l-0.1,0.3l-0.1,0.7v0.2l0.05-0.1l-0.2,0.85l0.2-0.2v0.05
		l0.05,0.1l-0.05,0.05v0.15l-0.05,0.1l-0.05,0.05v0.05l-0.05,0.05c-0.233,0.433-0.367,0.733-0.4,0.9c0,0.067-0.017,0.133-0.05,0.2
		c-0.067,0.267-0.1,0.5-0.1,0.7v0.15l0.05,0.05l0.1-0.45l0.05,0.55l0.1,0.3l0.25,0.3c0.1-0.133,0.15-0.267,0.15-0.4l0.15-0.3
		c0.067-0.067,0.25-0.15,0.55-0.25c0.267-0.1,0.434-0.133,0.5-0.1c0.2,0.067,0.367,0.4,0.5,1c0.133,0.167,0.133,0.317,0,0.45
		s-0.25,0.183-0.35,0.15c-0.1-0.033-0.133-0.133-0.1-0.3c0.066-0.2,0.1-0.333,0.1-0.4c0-0.267-0.133-0.383-0.4-0.35
		c-0.233,0-0.4,0.067-0.5,0.2c0.133,0.333,0.2,0.583,0.2,0.75c0,0.1-0.05,0.167-0.15,0.2l0.1,0.25V18l0.4,0.45l-0.05-0.15
		c-0.1-0.267-0.133-0.45-0.1-0.55c0.2,0.467,0.3,0.733,0.3,0.8l0.15,0.25l0.35,0.45L16.2,19.1c0.066,0.033,0.15,0.15,0.25,0.35
		l0.3,0.45L16.8,20l0.5,0.75V20.7L17.2,20c0.033,0.133,0.133,0.317,0.3,0.55l0.15,0.4l0.05,0.5l0.55,1.05v-0.15l0.05,0.25l0.15,0.3
		l0.3-1.35l0.15-0.05h0.05l0.1-0.1v-0.05l0.1-0.1c0.133-0.2,0.25-0.317,0.35-0.35l0.1,0.2h0.05v-0.05L19.7,21l0.3-0.75
		c-0.2-0.133-0.317-0.267-0.35-0.4c0.1-0.067,0.217-0.033,0.35,0.1l0.05-0.75H20l-0.35-0.35l0.35,0.1v-0.3V18.3l-0.25-0.1H20V18
		c-0.033,0.067-0.083,0.067-0.15,0L20,17.95V17.8l-0.05-0.05l-0.3-0.2c0.133-0.133,0.267-0.133,0.4,0l0.05-0.2v-0.1L20.2,17
		l-0.1-0.35c0.033,0.033,0.066,0.05,0.1,0.05l0.1,0.15l0.35-0.4l-0.15-0.5l0.35,0.3l0.1-0.1c-0.067-0.167-0.1-0.267-0.1-0.3
		l0.15,0.2l0.2-0.15c-0.067-0.233-0.083-0.383-0.05-0.45l0.15,0.3v0.1l0.35-0.25l1.05-0.45l0.05-0.1l0.2-0.25l-0.05,0.35h0.15
		l0.1-0.1l0.25-0.2l-0.1,0.3l0.5,0.1h0.1l-0.05,0.05l0.3,0.2l0.3,0.05L24.3,15.6l0.25,0.25h0.1l0.1,0.15h-0.1l0.25,0.4
		c0.167,0.067,0.284,0.167,0.35,0.3l-0.2-0.05l0.2,0.5l0.05,0.05l0.05,0.25l0.15-0.15c0.033,0.067,0.017,0.25-0.05,0.55l0.149,1
		l-0.05-0.05v0.05c-0.033,0.367-0.116,0.7-0.25,1c-0.033,0.066-0.083,0.15-0.149,0.25h0.05v0.35l-0.101-0.2l-0.3,0.4v0.05
		c-0.233,0.233-0.433,0.367-0.6,0.4c-0.333,0.133-0.684,0.05-1.05-0.25H23l0.1-0.05l-0.15-0.2c-0.167,0.066-0.284,0.066-0.35,0
		l0.3-0.05l-0.2-0.3h-0.05l-0.4-1l0.15,0.05l-0.05-0.1v-0.05l0.1-0.4v-0.4l0.1,0.2v0.1l0.2-0.25l0.1-0.25l0.05,0.2l0.35-0.1L23.4,18
		l-0.05,0.25c0.133,0,0.217,0.033,0.25,0.1h0.05c0.067-0.067,0.133-0.067,0.2,0L23.8,18.4h-0.1l0.15,0.15
		c0.1,0.2,0.117,0.383,0.05,0.55l-0.15,0.4l-0.05,0.05V19.5v-0.1h-0.05v0.05l-0.1,0.2c-0.033-0.066-0.033-0.133,0-0.2
		c0-0.034,0.017-0.067,0.05-0.1h-0.05V19.2l-0.1-0.2l-0.05,0.05V18.9c0-0.1-0.033-0.117-0.1-0.05c-0.066,0-0.133,0.066-0.2,0.2h0.05
		c0.033,0.034,0.033,0.067,0,0.1c0,0.033-0.017,0.05-0.05,0.05c0,0.033,0,0.083,0,0.15c0,0.133,0.033,0.267,0.1,0.4l0.1,0.2
		l0.25,0.25v-0.1l0.15,0.15l0.25-0.05l-0.05-0.05L24,20.2l0.25-0.2h0.05l-0.05-0.1h0.1l-0.1-0.25c0.033,0.067,0.1,0.1,0.2,0.1
		l0.05-0.1l0.1-0.2l-0.15-0.2l0.2,0.1l0.05-0.65l-0.4-0.1c0.034,0,0.083-0.017,0.15-0.05c0.066-0.033,0.15-0.066,0.25-0.1l-0.05-0.6
		l-0.15-0.3c0,0.034-0.133,0.1-0.4,0.2c0.2-0.1,0.3-0.217,0.3-0.35l0.1,0.1l-0.2-0.3c0.034,0.066-0.017,0.133-0.15,0.2l0.15-0.25
		l-0.35-0.45c-0.067,0.167-0.15,0.25-0.25,0.25c0.066-0.1,0.1-0.25,0.1-0.45l-0.25-0.2l-0.05,0.1c-0.033-0.033-0.033-0.083,0-0.15
		l-0.25-0.15c0,0.2-0.067,0.3-0.2,0.3L23,16.1c-0.133,0-0.283,0.05-0.45,0.15l0.1,0.45c-0.066-0.133-0.117-0.217-0.15-0.25
		l-0.1-0.15l-0.25,0.1c0.067,0.067,0.117,0.184,0.15,0.35l-0.1-0.15c-0.1,0-0.15-0.017-0.15-0.05L22,16.5l-0.45,0.35l-0.4,0.45
		l0.15,0.1h-0.2l-0.05,0.25l0.05,0.1h-0.05v0.15l0.1-0.05l-0.1,0.2v0.35h0.05l0.25-0.05l-0.3,0.2l0.05,0.35h0.3l-0.05,0.05L21.1,19
		v0.4l0.1,0.2c0.033,0.033,0.033,0.05,0,0.05l-0.1-0.05l0.05,0.75l0.25,0.35c-0.1,0-0.183-0.034-0.25-0.1l-0.05,0.5v0.05l0.1,0.25
		l-0.15-0.1l-0.1,0.45l0.1,0.3l-0.1-0.2l-0.1,0.4v0.5c-0.033,0.233-0.133,0.583-0.3,1.05c-0.033,0.4-0.133,0.867-0.3,1.4
		c-0.067,0.367-0.15,0.566-0.25,0.6l-0.4-0.15l0.3,0.8L20.05,27c0.1,0.067,0.167,0.15,0.2,0.25c0.033,0.067,0,0.15-0.1,0.25
		c0,0.033-0.017,0.05-0.05,0.05c-0.167,0.1-0.333,0.2-0.5,0.3c-0.333,0.2-0.583,0.316-0.75,0.35c-0.667,0.2-1.184,0.216-1.55,0.05
		l-0.4-0.7c0-0.233,0.017-0.45,0.05-0.65c0-0.5,0-0.917,0-1.25c0-0.533-0.017-0.95-0.05-1.25v-0.05l-0.15-0.05h-0.1l-0.3-0.15
		l-0.3-0.1l0.55-0.1h0.2l-1.3-1.25l-0.25-0.2l-0.35-0.15h-0.05l-0.2-0.05h-0.6l-0.6-0.2L14,21.95l-0.5-0.15L12.85,22
		c-0.133,0.133-0.233,0.2-0.3,0.2c0.067-0.133,0.217-0.317,0.45-0.55l-0.6-0.15h-0.2l-0.3,0.15c-0.525,0.263-0.825,0.496-0.9,0.7
		c0.07-0.204,0.22-0.42,0.45-0.65l0.25-0.25h-0.05l-0.4,0.1l-0.1,0.05l-0.55,0.55l0.1-0.35c-0.267,0.267-0.417,0.434-0.45,0.5
		l0.1-0.05c-0.133,0.167-0.2,0.317-0.2,0.45c-0.066,0.333-0.083,0.566-0.05,0.7c-0.1-0.033-0.15-0.117-0.15-0.25l-0.05-0.2l-0.1,0.5
		l-0.05,0.1h0.1c0.066,0.034,0.1,0.15,0.1,0.35L10,24l0.25,0.85c-0.067,0-0.183-0.083-0.35-0.25c0.1,0.3,0.3,0.617,0.6,0.95
		c0.133,0.1,0.283,0.217,0.45,0.35c0.2,0.167,0.433,0.333,0.7,0.5c0.6,0.367,1.083,0.2,1.45-0.5c0.1-0.233,0.2-0.517,0.3-0.85
		c0.067-0.233,0.083-0.433,0.05-0.6c-0.034-0.267-0.133-0.45-0.3-0.55l0.05,0.15v0.3c0,0.066-0.05,0.066-0.15,0l-0.1,0.25l-0.2,0.05
		l-0.05,0.3l-0.15-0.4l-0.2-0.2l-0.1,0.3v-0.5l-0.05-0.3V23.8l-0.05,0.05l-0.2,0.1c0.033-0.067,0.083-0.117,0.15-0.15
		c0.033-0.1,0.066-0.167,0.1-0.2l0.25-0.35L12.1,23.2c0.167-0.034,0.316-0.034,0.45,0c0.2-0.133,0.434-0.184,0.7-0.15l-0.35-0.2
		c0.133,0,0.267,0.033,0.4,0.1l0.15,0.15l0.25,0.15c0.4,0.267,0.65,0.65,0.75,1.15c0.033,0.133,0.066,0.283,0.1,0.45
		c0,0.4-0.083,0.8-0.25,1.2c0,0.034,0,0.067,0,0.1c-0.267,0.5-0.683,0.967-1.25,1.4c-0.566,0.434-1.05,0.617-1.45,0.55
		c-0.333-0.067-0.767-0.267-1.3-0.6c-0.633-0.4-1.15-0.867-1.55-1.4c-0.1,0.2-0.25,0.35-0.45,0.45C8.4,26.283,8.467,26.1,8.5,26
		v-0.15v-0.1l-0.2-0.4L8.2,25.2l-0.1,0.1l-0.05,0.05V25.3l0.05-0.1v-0.3c-0.167-0.4-0.25-0.767-0.25-1.1L7.8,23.9l-0.1,0.15
		L7.25,24.4c0.2-0.267,0.333-0.467,0.4-0.6l0.1-0.2v-0.1l0.1-0.3c0-0.2,0.033-0.4,0.1-0.6C7.983,22.533,8,22.483,8,22.45
		c-0.033,0.033-0.067,0.066-0.1,0.1c-0.2,0.1-0.35,0.117-0.45,0.05c0-0.033,0.083-0.083,0.25-0.15c0.033-0.034,0.066-0.05,0.1-0.05
		l0.3-0.3c0.066-0.2,0.2-0.417,0.4-0.65c0.033-0.067,0.067-0.133,0.1-0.2L8.45,21.3c-0.034,0-0.067,0.017-0.1,0.05
		c-0.333,0.066-0.533,0.066-0.6,0l0.5-0.1L8.3,21.2l0.5-0.25l0.5-0.45c-0.1,0-0.25-0.067-0.45-0.2l0.55-0.05l0.4-0.1
		c0.534-0.233,1-0.35,1.4-0.35c-0.133-0.133-0.2-0.25-0.2-0.35l-0.05-0.2c0.033,0.067,0.117,0.133,0.25,0.2
		c0.033,0.033,0.15,0.083,0.35,0.15c0.1,0,0.217,0.066,0.35,0.2H12l-0.1-0.4l0.25,0.25l0.4,0.25l0.05,0.05l0.75,0.35l-0.05-0.1
		l-0.1-0.45l0.15,0.3l0.3,0.35h0.15c-0.066-0.066-0.083-0.117-0.05-0.15l1.3,0.25h0.05l0.1,0.05h0.05l-0.1-0.1l-0.5-0.05l-0.35-0.15
		c-0.066,0-0.117-0.033-0.15-0.1c0.233-0.033,0.533,0.017,0.9,0.15l-0.2-0.35c-0.267,0-0.483-0.067-0.65-0.2
		c-0.2-0.1-0.3-0.217-0.3-0.35c0.1-0.033,0.267,0.017,0.5,0.15l0.25,0.1l-0.25-0.3l-0.05-0.05c-0.1-0.066-0.184-0.117-0.25-0.15
		l-0.4-0.5c0.066,0,0.167,0.067,0.3,0.2l-0.45-0.65l-0.15-0.1c-0.167-0.1-0.333-0.25-0.5-0.45l0.5,0.3l-0.2-0.35
		c-0.133,0.033-0.25-0.033-0.35-0.2l0.3,0.05l-0.3-0.55l-0.2-0.3c-0.1,0-0.183-0.083-0.25-0.25l-0.15-0.45
		c-0.167-0.066-0.333-0.066-0.5,0c-0.1,0.033-0.183,0.05-0.25,0.05c-0.033,0.033-0.083,0.066-0.15,0.1c-0.167,0.2-0.25,0.4-0.25,0.6
		c-0.033,0.233,0.033,0.483,0.2,0.75c0.1,0.233,0.267,0.35,0.5,0.35c0.233-0.033,0.367-0.183,0.4-0.45c0-0.233-0.034-0.4-0.1-0.5
		c-0.067-0.066-0.117-0.117-0.15-0.15c-0.1-0.066-0.167-0.083-0.2-0.05s-0.067,0.066-0.1,0.1c-0.033,0.033-0.066,0.05-0.1,0.05
		L11.5,16.7c-0.033-0.1,0-0.184,0.1-0.25c0.1-0.1,0.233-0.15,0.4-0.15c0.2,0,0.333,0.167,0.4,0.5v0.05c0.133,0.367,0.067,0.7-0.2,1
		c-0.333,0.233-0.6,0.316-0.8,0.25c-0.2-0.033-0.433-0.317-0.7-0.85c-0.067-0.2-0.083-0.417-0.05-0.65c0-0.067,0.017-0.133,0.05-0.2
		c0.033-0.167,0.066-0.316,0.1-0.45V15.9c0.034-0.1,0.067-0.167,0.1-0.2c0.033-0.067,0.067-0.117,0.1-0.15
		c0.2-0.2,0.383-0.316,0.55-0.35l-0.3-0.25L11.2,14.9c-0.2-0.1-0.284-0.183-0.25-0.25l0.2-0.1L11.1,14.5l-0.65-0.4l0.1,0.1
		c-0.066,0.033-0.167,0.017-0.3-0.05c-0.167-0.033-0.283-0.05-0.35-0.05l0.45-0.05c-0.233-0.167-0.483-0.3-0.75-0.4L9.15,13.8
		c0.064-0.097,0.148-0.146,0.25-0.15c-0.234,0.002-0.401,0.085-0.5,0.25l0.05-0.05c0,0.133-0.067,0.267-0.2,0.4L8.7,14.6l-0.05-0.15
		c-0.033,0.066-0.05,0.133-0.05,0.2c-0.033,0.1-0.033,0.184,0,0.25l0.1,0.4v-0.05l0.05,0.05c0.167,0.167,0.267,0.25,0.3,0.25H9
		c0.2,0.1,0.4,0.15,0.6,0.15c0.2,0.033,0.367-0.017,0.5-0.15s0.167-0.3,0.1-0.5c-0.067-0.133-0.15-0.2-0.25-0.2l-0.2,0.1L9.8,14.8
		l-0.2,0.05c0.033,0.233,0,0.417-0.1,0.55v0.05v0.15l-0.1-0.2L9.3,15l-0.15,0.15l0.1-0.3L9.3,14.9
		c0.034-0.066,0.083-0.117,0.15-0.15c0-0.033,0-0.067,0-0.1H9.2l0.75-0.2L9.9,14.4l0.2,0.1l0.25,0.3v-0.15l0.05,0.2l0.1,0.4
		l0.1-0.15c0.066,0.167,0.05,0.3-0.05,0.4v0.05c0,0.034-0.017,0.067-0.05,0.1c-0.067,0.1-0.167,0.184-0.3,0.25
		c-0.034,0.033-0.067,0.05-0.1,0.05l0.1,0.1L9.9,16.1l-0.05-0.05l-0.2,0.1L9.8,16.2c-0.033,0.033-0.2,0.05-0.5,0.05L9.15,16.1
		L8.9,16L9,16.35c-0.067-0.033-0.15-0.117-0.25-0.25c-0.067-0.067-0.1-0.133-0.1-0.2c0-0.033,0.017-0.05,0.05-0.05L8.4,15.5
		l-0.1,0.35c-0.033-0.167-0.05-0.283-0.05-0.35v-0.3l-0.1-0.55c-0.2,0.1-0.316,0.15-0.35,0.15L8,14.6l0.15-0.15
		c0.067-0.3,0.15-0.517,0.25-0.65c-0.167,0.1-0.283,0.117-0.35,0.05l0.3-0.1l0.2-0.1c0.1-0.133,0.233-0.233,0.4-0.3
		c-0.067-0.067-0.1-0.117-0.1-0.15l0.35,0.05c0.233-0.067,0.433-0.05,0.6,0.05v-0.15l0.3,0.35l0.45,0.25l-0.05-0.2
		c0.2,0.2,0.317,0.3,0.35,0.3L11,13.9c0.167,0.067,0.35,0.067,0.55,0l-0.05-0.35l0.15,0.3l0.1,0.1l-0.1-0.55l-0.05-0.15
		c0-0.033-0.05-0.1-0.15-0.2L11.4,12.9c-0.066-0.133-0.083-0.233-0.05-0.3l0.3,0.4l-0.05-0.35l-0.05-0.15
		c-0.1-0.267-0.133-0.45-0.1-0.55l0.15,0.3l0.05-0.35l-0.2-0.25l-0.05-0.2l-0.1-0.35L11,10.5l-0.05-0.1l-0.05-0.05
		c-0.066-0.033-0.133-0.05-0.2-0.05c-0.034,0-0.05,0.017-0.05,0.05c-0.066,0-0.1,0.033-0.1,0.1v0.05c0,0.333,0.1,0.417,0.3,0.25
		L10.8,10.6c0.067,0.033,0.1,0.15,0.1,0.35c-0.333,0.133-0.55,0.1-0.65-0.1c-0.067-0.1-0.1-0.217-0.1-0.35v-0.05
		c0-0.1,0.017-0.184,0.05-0.25c0.066-0.167,0.2-0.233,0.4-0.2c0.167,0,0.316,0.067,0.45,0.2c0.034,0.033,0.067,0.066,0.1,0.1
		c0.033,0.034,0.067,0.1,0.1,0.2s0.067,0.25,0.1,0.45l0.3,0.4L11.55,11l0.1,0.3l0.05-0.75V10.5l-0.05-0.1
		c-0.033-0.1-0.05-0.183-0.05-0.25c0-0.033,0-0.066,0-0.1c-0.033-0.167-0.033-0.3,0-0.4c0.066,0.067,0.117,0.2,0.15,0.4l0.05-0.5
		v-0.1L11.65,9.2L11.4,8.95L11.55,9L11.4,8.65l-0.1-0.1l0.1,0.05L11,7.85h-0.05C10.717,7.683,10.6,7.567,10.6,7.5l0.15,0.05L9.95,7
		L9.7,6.9L9.35,7.05c0-0.033,0.05-0.1,0.15-0.2l-0.3,0.1L9.05,7.1H9.1C9,7.2,8.967,7.3,9,7.4L8.95,7.3L8.9,7.5v0.05
		c0.067,0.034,0.117,0.167,0.15,0.4l0.1,0.1H9.4L9.35,8.1L9.6,8c0.033-0.1,0-0.2-0.1-0.3C9.467,7.733,9.433,7.75,9.4,7.75
		c-0.066,0-0.1-0.033-0.1-0.1l0.15-0.1v-0.2L9.5,7.5h0.1c0.1,0.067,0.15,0.183,0.15,0.35l0.1-0.05l-0.2,0.4v0.05l0.15,0.1H9.4
		L9.05,8.3l0.1,0.25l-0.2-0.3L8.8,8.1L8.7,7.9L8.65,8.05c0.033-0.167,0.033-0.3,0-0.4s-0.033-0.2,0-0.3V7.3
		C8.55,7.4,8.467,7.417,8.4,7.35l0.3-0.2l0.25-0.3H8.9c-0.033-0.033-0.033-0.067,0-0.1l0.5-0.1c0.133-0.066,0.25-0.066,0.35,0
		L9.65,6.4C9.717,6.5,9.8,6.583,9.9,6.65c0.033,0.067,0.083,0.1,0.15,0.1l0.3,0.15L10.3,6.85c0.1,0,0.167,0.05,0.2,0.15l0.15,0.15
		h0.05l0.1,0.1l0.3,0.5l0.6,0.8l0.1,0.1v-0.4h-0.05L11.8,8.2l-0.3-0.65l-0.05-0.375C11.459,7.21,11.476,7.251,11.5,7.3l0.2,0.3
		l-0.2-1.2l-0.15-0.65H11.3L11.25,5.6L11,5.2l-0.05-0.05C10.817,5.017,10.733,4.9,10.7,4.8L11,5.05c0.033,0,0.083,0.034,0.15,0.1
		c-0.2-0.566-0.417-0.967-0.65-1.2c-0.167,0-0.283-0.034-0.35-0.1l-0.1-0.1L9.9,3.65c0.033,0,0.167,0.033,0.4,0.1
		c-0.267-0.267-0.533-0.467-0.8-0.6c-0.2,0.067-0.417,0.033-0.65-0.1L9.1,3C8.833,2.933,8.633,2.917,8.5,2.95L8.35,3l-0.4,0.35
		l0.15-0.3c-0.167,0.1-0.267,0.167-0.3,0.2l-0.1,0.2l-0.05,0.3L7.6,3.5L7.5,3.75L7.4,4l0.15,0.45L7.45,4.3L7.4,4.25L7.5,4.7l0.1,0.2
		l0.35-0.05L7.65,5c0.367,0.2,0.567,0.133,0.6-0.2H8.2L8.1,4.35L8.25,4.6c0-0.1-0.067-0.267-0.2-0.5V4l-0.1-0.2l0.1,0.1L8.2,3.8
		V3.75c-0.067-0.067-0.083-0.133-0.05-0.2c0.067,0.034,0.117,0.1,0.15,0.2c0.034,0.033,0.05,0.067,0.05,0.1L8.4,4l0.05,0.25
		l0.1-0.15c0.1,0.133,0.1,0.35,0,0.65L8.5,4.8c0,0.133-0.05,0.25-0.15,0.35l0.35-0.1c0,0.1-0.067,0.167-0.2,0.2
		c-0.033,0-0.067,0-0.1,0C8.2,5.35,8.067,5.367,8,5.3L7.65,5.35l0.1,0.15C7.583,5.433,7.467,5.367,7.4,5.3
		c-0.033,0-0.05-0.017-0.05-0.05l-0.2-0.2V5.3c-0.133-0.066-0.2-0.25-0.2-0.55c-0.067-0.333-0.083-0.6-0.05-0.8l-0.2,0.4
		C6.667,4.25,6.717,4.067,6.85,3.8V3.75l0.1-0.1l0.1-0.25l-0.5,0.2C6.817,3.333,7.033,3.15,7.2,3.05v0.1L7.35,2.9h-0.2
		c0.033,0,0.167-0.05,0.4-0.15l0.6-0.25L8.1,2.4l0.2,0.05c0.233-0.034,0.5-0.034,0.8,0L8.95,2.35z M34.15,9.75L34.2,9.8L34.6,10
		l0.351,0.2l0.149,0.05l0.4,0.15l0.35,0.1l0.801,0.45l0.199,0.2c0.334,0.367,0.567,0.8,0.7,1.3l0.101-0.1h0.05
		c0.467-0.3,1.333-0.483,2.6-0.55l3.25,0.1l0.15,0.05c-0.167,0.2-0.367,0.483-0.601,0.85c-0.1,0.167-0.183,0.35-0.25,0.55
		c-0.166,0.333-0.3,0.683-0.399,1.05c-0.101,0.3-0.167,0.6-0.2,0.9c-0.167,0.867-0.667,1.467-1.5,1.8l0.15-0.05L40.6,17.2l1.15,1.7
		l0.1,0.15l0.5,0.75l0.2,0.2v0.05L42.9,20.4l0.149,0.1l0.05,0.05L43.2,20.6l0.05,0.05l0.5,0.15h0.1c0.367,0.1,0.667,0.217,0.9,0.35
		l-0.25,0.1l-0.25,0.1L44.2,21.4l-0.25,0.05l-0.3,0.1H43.55l-0.3,0.1H43.2L42.85,21.7l-0.1,0.05h-0.8H41.35
		c-1.466-0.2-2.616-0.45-3.449-0.75c-0.601-0.233-1.017-0.5-1.25-0.8l-0.101-0.15l-0.45,0.2c-0.566,0.2-1.1,0.367-1.6,0.5
		c-0.134,0-0.267,0.017-0.4,0.05l-0.3,0.55h-0.05c-0.866,1.367-1.6,2.833-2.2,4.4l0.2,0.05l1.05-0.1c0.7,0,1.45,0.183,2.25,0.55
		c0.267,0.133,0.5,0.233,0.7,0.3c0.4,0.167,0.7,0.25,0.9,0.25c0.699,0,1.216-0.083,1.55-0.25l-0.05,0.05h0.05
		c-0.101,0.267-0.233,0.517-0.4,0.75c-0.467,0.6-1.116,1.017-1.95,1.25c-0.866,0.333-1.699,0.433-2.5,0.3L31.3,29l0.8,1.4
		c0.167,0.1,0.45,0.25,0.851,0.449l-0.7,0.051c-0.866,0.199-1.684,0.133-2.45-0.2c-0.233-0.101-0.45-0.25-0.649-0.45L28.9,30
		c-0.233-0.2-0.467-0.467-0.7-0.8l-0.15,0.1L27.4,28.9v-0.25V28.5H27.3v0.05c-0.166,0.067-0.434,0.017-0.8-0.15
		c-0.034,0-0.067,0-0.1,0c-0.101-0.066-0.2-0.117-0.301-0.15l-0.25-0.2l-0.25-0.2c-0.1-0.1-0.199-0.2-0.3-0.3
		c-0.267-0.3-0.517-0.667-0.75-1.1c-0.4-0.4-0.75-0.934-1.05-1.6c-0.5-0.934-0.467-1.783,0.1-2.55c0.267-0.4,0.583-0.7,0.95-0.9
		l-0.15,1.3c-0.066,0.667,0.85,1.117,2.75,1.35c0.866,0.034,1.55,0.5,2.05,1.4c0.866-1.5,1.85-2.95,2.95-4.35
		c0.033-0.067,0.066-0.117,0.1-0.15C32.083,20.983,31.9,21,31.7,21c-0.3,0-0.617-0.017-0.95-0.05l-2.1-0.05l0.25-0.35l0.449-0.75
		l0.051-0.05c0.566-0.833,1.199-1.583,1.899-2.25c-1.233-0.567-2.55-1.433-3.95-2.6l-1.699-1.55l2.1,0.25l1.2-0.05L30.6,13.5
		l0.4-0.05c0.366,0,0.634-0.017,0.8-0.05h0.45l-0.05-0.1l-0.45-0.6l-0.25-0.5l-0.25-0.7l-0.1-0.5L31.1,10.9v-0.2l-0.05-0.2v-0.05
		L31,10.35L30.95,9.9V9.6L30.9,9.45V9.4V8L34.15,9.75z"/>
	<path style="fill-rule:evenodd;clip-rule:evenodd;fill:#96814F;" d="M14.15,30.85l-0.3-0.1c-0.8-0.333-1.4-0.583-1.8-0.75
		c-0.7-0.3-1.333-0.5-1.9-0.6c-0.433-0.067-0.983-0.117-1.65-0.15c-0.867,0-1.433-0.017-1.7-0.05c1.133-0.333,2.583-0.383,4.35-0.15
		c0.8,0.134,1.367,0.267,1.7,0.4c0.066,0.033,0.5,0.283,1.3,0.75c0.567,0.333,1.033,0.483,1.4,0.45l0.4,0.35L14.15,30.85z M20.8,4.8
		c0.8,0.067,1.883,0.217,3.25,0.45l11.5,0.15C33.083,5.667,31.2,5.817,29.9,5.85c-2.5,0.1-4.834-0.033-7-0.4
		c-1.467-0.233-2.3-0.434-2.5-0.6L20.35,4.8L20.3,4.75C20.433,4.75,20.6,4.767,20.8,4.8z M46.3,21.35v0.05l-0.05,0.5l-0.05,0.35
		c-1.733-0.167-3.15-0.333-4.25-0.5h0.8l0.1-0.05l0.351-0.05h0.05l0.3-0.1h0.101l0.3-0.1l0.25-0.05l0.05-0.05l0.25-0.1h1.4
		L46.3,21.35z M45.35,30.5l-0.05,0.65l-0.1,1c-2.467,0-4.733,0.166-6.8,0.5c0.267-0.067,1.083-0.317,2.449-0.75
		c0.233-0.067,0.684-0.25,1.351-0.551c0.566-0.233,1.033-0.383,1.399-0.449L45.35,30.5z M31.05,10.45
		c-0.467-0.034-0.916-0.067-1.35-0.1c-1.367-0.067-2.417-0.184-3.15-0.35c-0.2-0.033-0.366-0.083-0.5-0.15
		c-0.399-0.133-0.767-0.317-1.1-0.55c-0.633-0.367-1.25-0.816-1.85-1.35c0.033-0.067,0.15-0.1,0.35-0.1c0.1,0,0.233,0.033,0.4,0.1
		c0.3,0.066,0.667,0.216,1.1,0.45l0.7,0.4c0.3,0.2,0.517,0.284,0.649,0.25l4.65,0.55v0.3L31,10.35L31.05,10.45z M34.6,10l1.2,0.15
		c-0.233,0.033-0.467,0.067-0.7,0.1L34.95,10.2L34.6,10z M18.1,11.2c-0.067-0.267-0.15-0.483-0.25-0.65l4,1.35l1.925,0.625
		c-1.697-0.499-3.455-0.924-5.275-1.275C18.367,11.217,18.233,11.2,18.1,11.2z M25.45,13.1l-0.725-0.25L25.5,13.1l0.625,0.2
		L25.45,13.1z M10.55,10.5v-0.05c0.1-0.034,0.217-0.067,0.35-0.1l0.05,0.05L11,10.5C10.833,10.5,10.683,10.5,10.55,10.5z M11.7,10.5
		h-0.35c-0.033,0-0.067,0-0.1,0c-0.033-0.1-0.067-0.167-0.1-0.2c0.133-0.033,0.283-0.083,0.45-0.15c0,0.067,0.017,0.15,0.05,0.25
		L11.7,10.5z M8.65,15.9L2.6,15.95L2.7,15c0.36-0.019,0.709-0.036,1.05-0.05H4.5c0.867,0,1.567,0.017,2.1,0.05
		c0.4,0.033,0.95,0.1,1.65,0.2v0.3c0,0.067,0.017,0.183,0.05,0.35l0.1-0.35l0.3,0.35C8.667,15.85,8.65,15.867,8.65,15.9z M10.8,15.9
		h-0.1h-0.5c0.133-0.066,0.233-0.15,0.3-0.25c0.133,0,0.267,0.017,0.4,0.05C10.867,15.733,10.833,15.8,10.8,15.9z M8.75,15.3
		c0.2,0.034,0.417,0.067,0.65,0.1l0.1,0.2v-0.15c0.033,0,0.067,0,0.1,0c0.133,0.033,0.3,0.066,0.5,0.1
		c-0.133,0.133-0.3,0.184-0.5,0.15c-0.2,0-0.4-0.05-0.6-0.15h0.05C9.017,15.55,8.917,15.467,8.75,15.3z M7.9,22.55l0.05,0.05
		c-0.067,0.2-0.1,0.4-0.1,0.6l-0.1,0.3c-0.5-0.067-1.117-0.1-1.85-0.1H5.5H5.1c-0.067,0-0.117,0-0.15,0l-3,0.05l0.1-1.25l0.45-0.1
		c0.833-0.1,1.483-0.167,1.95-0.2c0.133,0,0.25,0,0.35,0c1,0,1.667,0.067,2,0.2c0.233,0.066,0.534,0.183,0.9,0.35
		c-0.167,0.066-0.25,0.117-0.25,0.15C7.55,22.667,7.7,22.65,7.9,22.55z M9.8,23.45c0.233,0.2,0.434,0.417,0.6,0.65L10,24l-0.05-0.1
		c0-0.2-0.034-0.316-0.1-0.35h-0.1L9.8,23.45z M20.25,27.25c0.033,0,0.083,0,0.15,0c0.067,0,0.133,0.017,0.2,0.05
		c0.167,0.034,0.367,0.083,0.6,0.15l1.65,0.35c0.767,0.167,1.467,0.25,2.1,0.25h0.55c0.1,0,0.2,0,0.3,0h0.05l0.25,0.2
		c0.101,0.033,0.2,0.083,0.301,0.15c-0.2,0-0.4,0-0.601,0c-1.033,0.033-1.933-0.017-2.7-0.15c-0.967-0.133-1.684-0.283-2.15-0.45
		c-0.367-0.066-0.633-0.167-0.8-0.3C20.25,27.4,20.283,27.317,20.25,27.25z M14.25,10.65c-0.067-0.033-0.133-0.05-0.2-0.05
		c-0.233-0.033-0.466-0.05-0.7-0.05c-0.033-0.1-0.067-0.167-0.1-0.2c-0.1-0.1-0.317-0.117-0.65-0.05l-0.15,0.05v-0.4
		c0.3-0.067,0.566-0.117,0.8-0.15h1.8L14.9,9.95l-0.25,0.2V10l-0.2,0.2l-0.05,0.15L14.25,10.65z M16.9,10.95V10.9
		c0.001,0.033,0.018,0.049,0.05,0.05H16.9z M16.75,10.95c-0.133-0.034-0.25-0.05-0.35-0.05l-0.7-0.1
		c-0.133-0.033-0.284-0.05-0.45-0.05c0.167-0.133,0.367-0.217,0.6-0.25v0.1c0.167-0.033,0.383-0.017,0.65,0.05l-0.1-0.15l0.05,0.05
		c0.066,0,0.15,0.05,0.25,0.15L16.75,10.95z M3.9,3.4V3.3c0.2-0.033,0.4-0.066,0.6-0.1c0.6-0.1,1.083-0.15,1.45-0.15l-2.2,0.7
		L3.9,3.4z M6.15,6.25c0.5,0,1.05,0.017,1.65,0.05C6.6,6.567,5.4,6.867,4.2,7.2L3.4,7.5l0.05-0.4V6.65
		C4.25,6.417,5.15,6.283,6.15,6.25z"/>
	<path style="fill-rule:evenodd;clip-rule:evenodd;fill:#493E27;" d="M45.3,31.15l0.4-4l0.1-0.95l0.15-1.35
		c0.166,0.5,0.25,1.45,0.25,2.85V28c0,0.1,0,0.2,0,0.3c-0.012,0.2-0.028,0.4-0.05,0.6c-0.034,0.567-0.117,1.133-0.25,1.7
		c-0.167,0.7-0.134,1.334,0.1,1.9l0.1,0.5l-0.5,0.25l-0.55,0.25l0.15-1.35L45.3,31.15z"/>
	<path style="fill-rule:evenodd;clip-rule:evenodd;fill:#645335;" d="M18.15,31.15c2.033,0.133,5,0.366,8.9,0.699L26.9,33.5
		c-0.5-0.167-1.167-0.333-2-0.5l-3.4-0.75c-1.3-0.233-2.45-0.366-3.45-0.4L18.15,31.15z"/>
	<path style="fill-rule:evenodd;clip-rule:evenodd;fill:#957C50;" d="M16.65,55.95c-0.133-1.134-0.183-1.967-0.15-2.5
		c-0.3,0.733-0.517,1.383-0.65,1.95c-0.238-0.104-0.488-0.171-0.75-0.2h-0.05c0.1-1.467,0.317-3.316,0.65-5.55
		c0.267-1.534,0.767-5.233,1.5-11.101l0.9-7.399h0.05l-0.1,0.699l-0.1,0.7c1.1,0.101,2.233,0.334,3.4,0.7
		c-0.567,0.533-0.983,0.95-1.25,1.25c-0.5,0.566-1,1.333-1.5,2.3c-0.333,0.8-0.5,1.566-0.5,2.3c0,0.233-0.167,1.934-0.5,5.101
		c-0.333,3.066-0.483,4.767-0.45,5.1c0.1-0.133,0.533-3.05,1.3-8.75l0.4-1.7c0.167-0.633,0.5-1.216,1-1.75
		c0.267-0.267,0.717-0.633,1.35-1.1c0.4-0.333,0.75-0.95,1.05-1.85l0.15-0.5l1.15,0.449c0,0.434-0.066,0.801-0.2,1.101
		c-0.133,0.399-0.383,0.883-0.75,1.45c-0.434,0.6-0.75,1.05-0.95,1.35c-0.733,1.167-1.167,1.884-1.3,2.15
		c-0.167,0.466-0.517,2.316-1.05,5.55c-0.5,2.8-0.8,4.666-0.9,5.6c-0.267,1.533,0.1,2.983,1.1,4.351l0.45,0.8
		c-0.034,0-0.067,0-0.1,0L16.7,56L16.65,55.95z M23.5,56.55c-0.6-0.066-1.233-0.1-1.9-0.1l0.45-0.05l0.1-1
		c0.133-0.867,0.2-1.517,0.2-1.95c0.1-0.9,0.066-1.5-0.1-1.8c-0.1-0.134-0.4-0.417-0.9-0.851c0,0.134,0.05,0.684,0.15,1.65
		c0.067,0.7-0.017,1.233-0.25,1.6c-0.133,0.233-0.333,0.4-0.6,0.5c-0.3,0.134-0.517,0.084-0.65-0.149
		c-0.1-0.167-0.15-0.801-0.15-1.9c0-1.134,0.117-2.167,0.35-3.1c0.133-0.467,0.55-2.184,1.25-5.15c0.633-2.833,1.017-4.55,1.15-5.15
		c0.467-1.666,0.75-2.733,0.85-3.199c0.1-0.767,0.183-1.351,0.25-1.75c0.733,0.399,1.183,0.666,1.35,0.8v0.8l0.101-0.8L25.8,35.4
		c0.334,0.267,0.617,0.449,0.851,0.55l-2.101,20.8c-0.066-0.033-0.133-0.05-0.2-0.05c0.033-0.767,0-1.934-0.1-3.5
		c-0.087-1.021-0.138-1.879-0.15-2.575c-0.006,1.576-0.056,2.585-0.15,3.025c-0.167,1.267-0.434,2.216-0.8,2.85L23.5,56.55z"/>
	<path style="fill-rule:evenodd;clip-rule:evenodd;fill:#7D6742;" d="M21.6,56.45h-1.35h-0.3l-0.45-0.8
		c-1-1.367-1.367-2.817-1.1-4.351c0.1-0.934,0.4-2.8,0.9-5.6c0.534-3.233,0.883-5.084,1.05-5.55c0.133-0.267,0.566-0.983,1.3-2.15
		c0.2-0.3,0.517-0.75,0.95-1.35c0.367-0.567,0.617-1.051,0.75-1.45c0.133-0.3,0.2-0.667,0.2-1.101L22.4,33.65l-0.15,0.5
		c-0.3,0.899-0.65,1.517-1.05,1.85c-0.633,0.467-1.083,0.833-1.35,1.1c-0.5,0.534-0.833,1.117-1,1.75l-0.4,1.7
		c-0.767,5.7-1.2,8.617-1.3,8.75c-0.033-0.333,0.117-2.033,0.45-5.1c0.333-3.167,0.5-4.867,0.5-5.101c0-0.733,0.167-1.5,0.5-2.3
		c0.5-0.967,1-1.733,1.5-2.3c0.267-0.3,0.683-0.717,1.25-1.25c-1.167-0.366-2.3-0.6-3.4-0.7l0.1-0.7c1,0.034,2.15,0.167,3.45,0.4
		L24.9,33c0.833,0.167,1.5,0.333,2,0.5l-0.25,2.45c-0.233-0.101-0.517-0.283-0.851-0.55l-0.649-0.45l-0.101,0.8v-0.8
		c-0.167-0.134-0.617-0.4-1.35-0.8c-0.067,0.399-0.15,0.983-0.25,1.75c-0.1,0.466-0.383,1.533-0.85,3.199
		c-0.133,0.601-0.517,2.317-1.15,5.15c-0.7,2.967-1.117,4.684-1.25,5.15c-0.233,0.933-0.35,1.966-0.35,3.1
		c0,1.1,0.05,1.733,0.15,1.9c0.133,0.233,0.35,0.283,0.65,0.149c0.267-0.1,0.467-0.267,0.6-0.5c0.233-0.366,0.317-0.899,0.25-1.6
		c-0.1-0.967-0.15-1.517-0.15-1.65c0.5,0.434,0.8,0.717,0.9,0.851c0.167,0.3,0.2,0.899,0.1,1.8c0,0.434-0.067,1.083-0.2,1.95l-0.1,1
		L21.6,56.45z M15.85,55.4c0.133-0.567,0.35-1.217,0.65-1.95c-0.033,0.533,0.017,1.366,0.15,2.5c-0.233-0.2-0.467-0.367-0.7-0.5
		C15.917,55.434,15.883,55.417,15.85,55.4z M24.35,56.7c-0.267-0.066-0.533-0.117-0.8-0.15H23.5l-0.35-0.05
		c0.367-0.634,0.633-1.583,0.8-2.85c0.094-0.44,0.144-1.449,0.15-3.025c0.012,0.696,0.063,1.554,0.15,2.575
		C24.35,54.767,24.383,55.934,24.35,56.7z"/>
	<path style="fill-rule:evenodd;clip-rule:evenodd;fill:#4A3E29;" d="M30.25,34.45c-1.333-0.733-2.434-1.101-3.3-1.101l0.149-1.5
		c1.034,0.101,2.15,0.2,3.351,0.301l-0.05,0.8c0,0.1-0.017,0.316-0.051,0.649L30.25,34.45z"/>
	<path style="fill-rule:evenodd;clip-rule:evenodd;fill:#6E5A3C;" d="M28.45,54.3c-0.033,0.101-0.05,0.184-0.05,0.25
		c-0.434,0.2-0.767,0.434-1,0.7c-0.233,0.1-0.483,0.217-0.75,0.35l-0.301-2.1c-0.066-0.533,0.101-2.517,0.5-5.95
		c0.4-3.533,0.617-5.533,0.65-6c0.066-0.434,0.217-1.033,0.45-1.8c0.233-0.8,0.383-1.384,0.45-1.75l0.3-1.85H29.1L30,36.9
		c-0.167,1.566-0.366,3.6-0.6,6.1c-0.267,3-0.483,5.45-0.65,7.35c0,0.034,0,0.084,0,0.15c-0.033,0.267-0.05,0.55-0.05,0.85
		c-0.066,0.634-0.117,1.2-0.15,1.7L28.45,54.3z M25.9,56c-0.4,0.2-0.817,0.45-1.25,0.75h-0.1l2.101-20.8l0.25-2.45l0.149-1.65h0.05
		l-0.149,1.5l-0.2,2.75h0.45c-0.033,0.367-0.15,1.167-0.351,2.4c-0.166,0.967-0.25,1.75-0.25,2.35c0.034,0.767-0.083,3.101-0.35,7
		c-0.267,4-0.4,6.334-0.4,7L25.9,56z"/>
	<path style="fill-rule:evenodd;clip-rule:evenodd;fill:#584930;" d="M30,36.9l-0.9-0.75H28.7L28.4,38
		c-0.067,0.366-0.217,0.95-0.45,1.75c-0.233,0.767-0.384,1.366-0.45,1.8c-0.033,0.467-0.25,2.467-0.65,6
		c-0.399,3.434-0.566,5.417-0.5,5.95l0.301,2.1c-0.034,0-0.067,0.017-0.101,0.051c-0.066,0.033-0.133,0.066-0.2,0.1l-0.1,0.05
		C26.116,55.866,26,55.934,25.9,56l-0.051-1.15c0-0.666,0.134-3,0.4-7c0.267-3.899,0.384-6.233,0.35-7c0-0.6,0.084-1.383,0.25-2.35
		c0.2-1.233,0.317-2.033,0.351-2.4h-0.45l0.2-2.75c0.866,0,1.967,0.367,3.3,1.101L30.1,37L30,36.9z"/>
	<linearGradient id="SVGID_1_" gradientUnits="userSpaceOnUse" x1="16.7124" y1="54.127" x2="35.7874" y2="54.127">
		<stop  offset="0" style="stop-color:#000000;stop-opacity:0.149"/>
		<stop  offset="0.8588" style="stop-color:#000000;stop-opacity:0.149"/>
		<stop  offset="1" style="stop-color:#000000;stop-opacity:0.149"/>
	</linearGradient>
	<path style="fill-rule:evenodd;clip-rule:evenodd;fill:url(#SVGID_1_);" d="M28.75,50.35c0.467,0,0.95,0.034,1.45,0.101
		c1.2,0.133,1.85,0.217,1.95,0.25c0.933,0.2,1.416,0.517,1.449,0.95c0.167,0,0.5,0,1,0c0.434,0.033,0.733,0.116,0.9,0.25
		c0.3,0.199,0.4,0.55,0.3,1.05c-0.1,0.467-0.3,0.8-0.6,1c-0.3,0.166-0.767,0.333-1.4,0.5c-0.7,0.166-1.2,0.283-1.5,0.35
		c-0.467,0.101-0.85,0.2-1.149,0.3c0.066-0.1,0.116-0.199,0.149-0.3c0.033-0.066,0.05-0.35,0.05-0.85c0.4-0.033,0.733-0.167,1-0.4
		c0.301-0.267,0.384-0.6,0.25-1c-0.233-0.666-0.966-1.233-2.199-1.7c-0.634-0.233-1.184-0.35-1.65-0.35
		C28.75,50.434,28.75,50.384,28.75,50.35z M28.45,54.3l0.1-1.25c0.033-0.5,0.084-1.066,0.15-1.7h0.05
		c0.467,0.2,0.767,0.467,0.9,0.801c0.133,0.433,0.149,0.8,0.05,1.1C29.533,53.75,29.116,54.1,28.45,54.3z M26.55,55.65
		c0.3,0.033,0.717,0.116,1.25,0.25c0.533,0.166,1,0.233,1.4,0.199c-0.2,0.167-0.367,0.301-0.5,0.4
		c-0.334,0.267-0.816,0.384-1.45,0.35c-0.733,0-1.233,0.067-1.5,0.2c-0.267,0.2-0.467,0.334-0.6,0.4c-0.167,0.133-0.4,0.2-0.7,0.2
		h-1.2c0-0.233,0-0.4,0-0.5C23.217,57.017,23.133,56.9,23,56.8c-0.233-0.2-0.75-0.283-1.55-0.25c-0.567,0.033-1.017,0.101-1.35,0.2
		c0.133-0.066,0.183-0.167,0.15-0.3h1.35c0.667,0,1.3,0.033,1.9,0.1h0.05c0.267,0.033,0.534,0.084,0.8,0.15
		c0.066,0,0.133,0.017,0.2,0.05h0.1c0.067,0,0.133,0.017,0.2,0.05c0.033,0,0.284,0,0.75,0c0.434,0,0.667-0.017,0.7-0.05
		c0.066-0.066,0.101-0.233,0.101-0.5c-0.034-0.233-0.051-0.4-0.051-0.5C26.417,55.717,26.483,55.684,26.55,55.65z M19.85,56.8
		c-0.167,0.066-0.517,0.283-1.05,0.65c-0.4,0.333-0.767,0.483-1.1,0.45c-0.3-0.101-0.534-0.15-0.7-0.15
		c-0.1-0.333,0.117-0.566,0.65-0.7l1.15-0.1C18.933,56.95,19.283,56.9,19.85,56.8z"/>
	<linearGradient id="SVGID_2_" gradientUnits="userSpaceOnUse" x1="24.4751" y1="53.6504" x2="32.6251" y2="53.6504">
		<stop  offset="0" style="stop-color:#000000;stop-opacity:0.149"/>
		<stop  offset="0.8588" style="stop-color:#000000;stop-opacity:0.149"/>
		<stop  offset="1" style="stop-color:#000000;stop-opacity:0.149"/>
	</linearGradient>
	<path style="fill-rule:evenodd;clip-rule:evenodd;fill:url(#SVGID_2_);" d="M29.2,56.1c-0.4,0.034-0.867-0.033-1.4-0.199
		c-0.533-0.134-0.95-0.217-1.25-0.25c0.033-0.034,0.066-0.051,0.101-0.051c0.267-0.133,0.517-0.25,0.75-0.35
		c0.233-0.267,0.566-0.5,1-0.7c0-0.066,0.017-0.149,0.05-0.25c0.666-0.2,1.083-0.55,1.25-1.05c0.1-0.3,0.083-0.667-0.05-1.1
		c-0.134-0.334-0.434-0.601-0.9-0.801H28.7c0-0.3,0.017-0.583,0.05-0.85c0.467,0,1.017,0.116,1.65,0.35
		c1.233,0.467,1.966,1.034,2.199,1.7c0.134,0.4,0.051,0.733-0.25,1c-0.267,0.233-0.6,0.367-1,0.4c0,0.5-0.017,0.783-0.05,0.85
		c-0.033,0.101-0.083,0.2-0.149,0.3c-0.167,0.167-0.4,0.334-0.7,0.5c-0.434,0.233-0.816,0.384-1.15,0.45
		C29.267,56.05,29.233,56.066,29.2,56.1z M24.65,56.75c0.433-0.3,0.85-0.55,1.25-0.75c0.1-0.066,0.216-0.134,0.35-0.2l0.1-0.05
		c0,0.1,0.017,0.267,0.051,0.5c0,0.267-0.034,0.434-0.101,0.5c-0.033,0.033-0.267,0.05-0.7,0.05c-0.466,0-0.716,0-0.75,0
		C24.783,56.767,24.717,56.75,24.65,56.75z"/>
</g>
</svg>
