<?xml version="1.0" encoding="iso-8859-1"?>
<!-- Generator: Adobe Illustrator 15.1.0, SVG Export Plug-In . SVG Version: 6.00 Build 0)  -->
<!DOCTYPE svg PUBLIC "-//W3C//DTD SVG 1.1//EN" "http://www.w3.org/Graphics/SVG/1.1/DTD/svg11.dtd">
<svg version="1.1" id="Layer_3" xmlns="http://www.w3.org/2000/svg" xmlns:xlink="http://www.w3.org/1999/xlink" x="0px" y="0px"
	 width="375.4px" height="55.3px" viewBox="0 0 375.4 55.3" style="enable-background:new 0 0 375.4 55.3;" xml:space="preserve">
<symbol  id="flash0.ai_x2F_Layer_3_x2F__x3C_Clip_Group_0_x3E_" viewBox="0 -5.05 11.75 5.05">
	<g id="Layer_1_3_">
	</g>
	<g>
		<defs>
			<path id="SVGID_1_" d="M10.05-0.55C8.883-0.183,7.483,0,5.85,0C4.25,0,2.867-0.183,1.7-0.55C0.567-0.917,0-1.35,0-1.85
				C0-2.383,0.567-2.833,1.7-3.2s2.517-0.55,4.15-0.55s3.033,0.183,4.2,0.55c1.133,0.367,1.7,0.817,1.7,1.35
				C11.75-1.35,11.183-0.917,10.05-0.55z"/>
		</defs>
		<clipPath id="SVGID_2_">
			<use xlink:href="#SVGID_1_"  style="overflow:visible;"/>
		</clipPath>
		<g id="Layer_3_1_" style="clip-path:url(#SVGID_2_);">
			
				<radialGradient id="SVGID_3_" cx="5.7998" cy="4" r="12.0125" gradientTransform="matrix(1 0 0 -0.7055 0 6.8228)" gradientUnits="userSpaceOnUse">
				<stop  offset="0" style="stop-color:#81C48F"/>
				<stop  offset="0.2078" style="stop-color:#4BABA7"/>
				<stop  offset="0.5922" style="stop-color:#215C80"/>
				<stop  offset="1" style="stop-color:#00140C"/>
			</radialGradient>
			<path style="fill-rule:evenodd;clip-rule:evenodd;fill:url(#SVGID_3_);" d="M10.8-3.2c0-0.5-0.483-0.933-1.45-1.3
				c-1-0.367-2.184-0.55-3.55-0.55S3.25-4.867,2.25-4.5C1.283-4.133,0.8-3.7,0.8-3.2c0,0.534,0.483,0.983,1.45,1.35
				c1,0.367,2.183,0.55,3.55,0.55s2.55-0.184,3.55-0.55C10.317-2.217,10.8-2.667,10.8-3.2z"/>
		</g>
	</g>
	<g id="Layer_4_1_">
	</g>
</symbol>
<symbol  id="flash0.ai_x2F_Layer_3_x2F__x3C_Clip_Group_0_x3E__x5F_0" viewBox="0 -6.65 15.5 6.65">
	<g id="Layer_1_5_">
	</g>
	<g>
		<defs>
			<path id="SVGID_4_" d="M13.2-0.7C11.7-0.233,9.883,0,7.75,0s-3.967-0.233-5.5-0.7C0.75-1.2,0-1.783,0-2.45
				C0-3.117,0.75-3.7,2.25-4.2c1.533-0.466,3.367-0.7,5.5-0.7s3.95,0.233,5.45,0.7c1.533,0.5,2.3,1.083,2.3,1.75
				C15.5-1.783,14.733-1.2,13.2-0.7z"/>
		</defs>
		<clipPath id="SVGID_5_">
			<use xlink:href="#SVGID_4_"  style="overflow:visible;"/>
		</clipPath>
		<g id="Layer_3_2_" style="clip-path:url(#SVGID_5_);">
			
				<radialGradient id="SVGID_6_" cx="7.7002" cy="5.25" r="15.775" gradientTransform="matrix(1 0 0 -0.7052 0 8.9526)" gradientUnits="userSpaceOnUse">
				<stop  offset="0" style="stop-color:#81C48F"/>
				<stop  offset="0.2078" style="stop-color:#4BABA7"/>
				<stop  offset="0.5922" style="stop-color:#215C80"/>
				<stop  offset="1" style="stop-color:#00140C"/>
			</radialGradient>
			<path style="fill-rule:evenodd;clip-rule:evenodd;fill:url(#SVGID_6_);" d="M14.2-4.15c0-0.7-0.633-1.3-1.9-1.8
				c-1.267-0.466-2.816-0.7-4.65-0.7c-1.833,0-3.383,0.233-4.65,0.7c-1.267,0.5-1.9,1.1-1.9,1.8C1.1-3.483,1.733-2.9,3-2.4
				c1.267,0.467,2.817,0.7,4.65,0.7c1.833,0,3.383-0.233,4.65-0.7C13.567-2.9,14.2-3.483,14.2-4.15z"/>
		</g>
	</g>
	<g id="Layer_4_2_">
	</g>
</symbol>
<symbol  id="flash0.ai_x2F_Layer_3_x2F__x3C_Clip_Group_0_x3E__x5F_1" viewBox="0 -5.15 12.1 5.15">
	<g id="Layer_1_7_">
	</g>
	<g>
		<defs>
			<path id="SVGID_7_" d="M10.35-0.55C9.15-0.183,7.717,0,6.05,0c-1.667,0-3.1-0.183-4.3-0.55C0.583-0.917,0-1.367,0-1.9
				s0.583-0.983,1.75-1.35c1.2-0.4,2.633-0.6,4.3-0.6c1.667,0,3.1,0.2,4.3,0.6c1.167,0.367,1.75,0.817,1.75,1.35
				S11.517-0.917,10.35-0.55z"/>
		</defs>
		<clipPath id="SVGID_8_">
			<use xlink:href="#SVGID_7_"  style="overflow:visible;"/>
		</clipPath>
		<g id="Layer_3_3_" style="clip-path:url(#SVGID_8_);">
			
				<radialGradient id="SVGID_9_" cx="6" cy="4.1001" r="12.3375" gradientTransform="matrix(1 0 0 -0.7052 0 6.9912)" gradientUnits="userSpaceOnUse">
				<stop  offset="0" style="stop-color:#81C48F"/>
				<stop  offset="0.2078" style="stop-color:#4BABA7"/>
				<stop  offset="0.5922" style="stop-color:#215C80"/>
				<stop  offset="1" style="stop-color:#00140C"/>
			</radialGradient>
			<path style="fill-rule:evenodd;clip-rule:evenodd;fill:url(#SVGID_9_);" d="M11.1-3.25c0-0.533-0.5-0.983-1.5-1.35
				S7.4-5.15,6-5.15c-1.433,0-2.65,0.183-3.65,0.55s-1.5,0.817-1.5,1.35s0.5,0.983,1.5,1.35C3.383-1.5,4.6-1.3,6-1.3
				s2.6-0.2,3.6-0.6C10.6-2.267,11.1-2.717,11.1-3.25z"/>
		</g>
	</g>
	<g id="Layer_4_3_">
	</g>
</symbol>
<symbol  id="flash0.ai_x2F_Layer_3_x2F__x3C_Clip_Group_0_x3E__x5F_2" viewBox="0 -2.7 5.1 2.7">
	<g id="Layer_1_9_">
	</g>
	<g>
		<defs>
			<path id="SVGID_10_" d="M4.35-0.3C3.85-0.1,3.25,0,2.55,0c-0.7,0-1.3-0.1-1.8-0.3C0.25-0.5,0-0.733,0-1s0.25-0.5,0.75-0.7
				C1.25-1.9,1.85-2,2.55-2c0.7,0,1.3,0.1,1.8,0.3C4.85-1.5,5.1-1.267,5.1-1S4.85-0.5,4.35-0.3z"/>
		</defs>
		<clipPath id="SVGID_11_">
			<use xlink:href="#SVGID_10_"  style="overflow:visible;"/>
		</clipPath>
		<g id="Layer_3_4_" style="clip-path:url(#SVGID_11_);">
			
				<radialGradient id="SVGID_12_" cx="2.5" cy="2.1499" r="5.2" gradientTransform="matrix(1 0 0 -0.8654 0 4.0107)" gradientUnits="userSpaceOnUse">
				<stop  offset="0" style="stop-color:#81C48F"/>
				<stop  offset="0.2078" style="stop-color:#4BABA7"/>
				<stop  offset="0.5922" style="stop-color:#215C80"/>
				<stop  offset="1" style="stop-color:#00140C"/>
			</radialGradient>
			<path style="fill-rule:evenodd;clip-rule:evenodd;fill:url(#SVGID_12_);" d="M4.65-1.7c0-0.267-0.2-0.5-0.6-0.7
				C3.617-2.6,3.1-2.7,2.5-2.7S1.4-2.6,1-2.4C0.567-2.2,0.35-1.967,0.35-1.7C0.35-1.433,0.567-1.2,1-1c0.4,0.2,0.9,0.3,1.5,0.3
				S3.617-0.8,4.05-1C4.45-1.2,4.65-1.433,4.65-1.7z"/>
		</g>
	</g>
	<g id="Layer_4_4_">
	</g>
</symbol>
<symbol  id="flash0.ai_x2F_Layer_3_x2F__x3C_Path_x3E__x5F_1" viewBox="0 -5.1 15.2 5.1">
	<g id="Layer_1_2_">
		<path style="fill-rule:evenodd;clip-rule:evenodd;fill:#A89676;" d="M15.2-2.55c0-0.7-0.733-1.3-2.2-1.8
			C11.5-4.85,9.7-5.1,7.6-5.1S3.717-4.85,2.25-4.35C0.75-3.85,0-3.25,0-2.55c0,0.7,0.75,1.3,2.25,1.8C3.717-0.25,5.5,0,7.6,0
			s3.9-0.25,5.4-0.75C14.467-1.25,15.2-1.85,15.2-2.55z"/>
	</g>
</symbol>
<symbol  id="flash0.ai_x2F_Layer_3_x2F__x3C_Path_x3E__x5F_1_x5F_0" viewBox="0 -6.65 19.9 6.65">
	<g id="Layer_1_4_">
		<path style="fill-rule:evenodd;clip-rule:evenodd;fill:#A89676;" d="M19.9-3.35c0-0.9-0.967-1.683-2.9-2.35
			c-1.967-0.633-4.317-0.95-7.05-0.95c-2.733,0-5.083,0.316-7.05,0.95C0.967-5.033,0-4.25,0-3.35C0-2.417,0.967-1.633,2.9-1
			c1.967,0.667,4.317,1,7.05,1c2.767,0,5.117-0.333,7.05-1C18.933-1.633,19.9-2.417,19.9-3.35z"/>
	</g>
</symbol>
<symbol  id="flash0.ai_x2F_Layer_3_x2F__x3C_Path_x3E__x5F_1_x5F_1" viewBox="0 -5.2 15.6 5.2">
	<g id="Layer_1_6_">
		<path style="fill-rule:evenodd;clip-rule:evenodd;fill:#A89676;" d="M15.6-2.6c0-0.7-0.767-1.316-2.3-1.85
			C11.767-4.95,9.933-5.2,7.8-5.2S3.833-4.95,2.3-4.45C0.767-3.917,0-3.3,0-2.6c0,0.733,0.767,1.35,2.3,1.85C3.8-0.25,5.633,0,7.8,0
			c2.167,0,4-0.25,5.5-0.75C14.833-1.25,15.6-1.867,15.6-2.6z"/>
	</g>
</symbol>
<symbol  id="flash0.ai_x2F_Layer_3_x2F__x3C_Path_x3E__x5F_1_x5F_2" viewBox="0 -2.9 7.95 2.9">
	<g id="Layer_1_8_">
		<path style="fill-rule:evenodd;clip-rule:evenodd;fill:#A89676;" d="M7.95-1.45c0-0.4-0.383-0.75-1.15-1.05
			C6-2.767,5.067-2.9,4-2.9c-1.1,0-2.033,0.133-2.8,0.4C0.4-2.2,0-1.85,0-1.45c0,0.4,0.4,0.733,1.2,1C1.967-0.15,2.9,0,4,0
			c1.067,0,2-0.15,2.8-0.45C7.567-0.717,7.95-1.05,7.95-1.45z"/>
	</g>
</symbol>
<g>
	<path style="fill-rule:evenodd;clip-rule:evenodd;fill:#158488;" d="M253.8,26.2c0.634,0,1.167,0.15,1.601,0.45
		c0.466,0.3,0.699,0.667,0.699,1.1c0,0.434-0.233,0.8-0.699,1.1c-0.434,0.301-0.967,0.45-1.601,0.45
		c-0.633,0-1.184-0.149-1.649-0.45c-0.434-0.3-0.65-0.666-0.65-1.1c0-0.433,0.217-0.8,0.65-1.1
		C252.616,26.35,253.167,26.2,253.8,26.2z M253.8,28.55c0.3,0,0.566-0.066,0.8-0.2c0.2-0.166,0.301-0.35,0.301-0.55
		c0-0.2-0.101-0.367-0.301-0.5c-0.233-0.167-0.5-0.25-0.8-0.25s-0.55,0.083-0.75,0.25c-0.233,0.133-0.35,0.3-0.35,0.5
		c0,0.2,0.116,0.384,0.35,0.55C253.25,28.483,253.5,28.55,253.8,28.55z"/>
	<path style="fill-rule:evenodd;clip-rule:evenodd;fill:#158488;" d="M163.25,27.45c0.633,0,1.167,0.15,1.6,0.45
		c0.467,0.3,0.7,0.667,0.7,1.1s-0.233,0.783-0.7,1.05c-0.434,0.3-0.967,0.45-1.6,0.45s-1.183-0.15-1.65-0.45
		c-0.434-0.267-0.65-0.616-0.65-1.05s0.216-0.8,0.65-1.1C162.067,27.6,162.617,27.45,163.25,27.45z M163.25,29.75
		c0.733,0,1.1-0.233,1.1-0.7c0-0.5-0.367-0.75-1.1-0.75s-1.1,0.25-1.1,0.75C162.15,29.517,162.517,29.75,163.25,29.75z"/>
	<path style="fill-rule:evenodd;clip-rule:evenodd;fill:#158488;" d="M89.85,14.05c0.733,0,1.1-0.233,1.1-0.7
		c0-0.5-0.367-0.75-1.1-0.75s-1.1,0.25-1.1,0.75C88.75,13.817,89.117,14.05,89.85,14.05z M88.2,12.2c0.433-0.3,0.966-0.45,1.6-0.45
		s1.184,0.15,1.65,0.45c0.433,0.3,0.65,0.667,0.65,1.1c0,0.434-0.217,0.8-0.65,1.1c-0.467,0.3-1.017,0.45-1.65,0.45
		s-1.167-0.15-1.6-0.45c-0.467-0.3-0.7-0.667-0.7-1.1C87.5,12.867,87.733,12.5,88.2,12.2z"/>
	<path style="fill-rule:evenodd;clip-rule:evenodd;fill:#158488;" d="M50.75,28.55c0.667,0,1.217,0.15,1.65,0.45
		c0.434,0.3,0.65,0.667,0.65,1.1c0,0.434-0.216,0.784-0.65,1.051c-0.433,0.3-0.983,0.449-1.65,0.449c-0.633,0-1.167-0.149-1.6-0.449
		c-0.467-0.267-0.7-0.617-0.7-1.051c0-0.433,0.233-0.8,0.7-1.1C49.583,28.7,50.117,28.55,50.75,28.55z M50.8,30.85
		c0.733,0,1.1-0.25,1.1-0.75c0-0.466-0.367-0.699-1.1-0.699c-0.3,0-0.55,0.066-0.75,0.199c-0.233,0.134-0.35,0.301-0.35,0.5
		C49.7,30.6,50.067,30.85,50.8,30.85z"/>
	<path style="fill-rule:evenodd;clip-rule:evenodd;fill:#158488;" d="M225.25,8.95c-0.333,0.4-0.8,0.7-1.4,0.9
		c-0.6,0.2-1.166,0.233-1.699,0.1c-0.5-0.133-0.817-0.417-0.95-0.85c-0.134-0.4-0.05-0.8,0.25-1.2c0.333-0.433,0.8-0.75,1.399-0.95
		c0.601-0.2,1.167-0.217,1.7-0.05c0.533,0.133,0.867,0.4,1,0.8C225.684,8.1,225.583,8.517,225.25,8.95z M224.45,8.1
		c-0.167-0.467-0.601-0.583-1.3-0.35c-0.634,0.233-0.9,0.583-0.801,1.05c0.2,0.467,0.634,0.583,1.301,0.35
		C224.35,8.883,224.616,8.533,224.45,8.1z"/>
	<path style="fill-rule:evenodd;clip-rule:evenodd;fill:#158488;" d="M255.25,45.05c-0.267-0.066-0.533-0.05-0.8,0.05
		c-0.3,0.067-0.533,0.217-0.7,0.45c-0.167,0.2-0.217,0.384-0.15,0.55c0.167,0.434,0.601,0.567,1.301,0.4
		c0.699-0.233,0.966-0.583,0.8-1.05C255.667,45.25,255.517,45.116,255.25,45.05z M252.45,46.45c-0.134-0.4-0.05-0.8,0.25-1.2
		c0.333-0.434,0.8-0.75,1.399-0.95c0.634-0.2,1.2-0.217,1.7-0.05c0.5,0.134,0.834,0.4,1,0.8c0.134,0.4,0.033,0.816-0.3,1.25
		c-0.333,0.4-0.8,0.7-1.4,0.9c-0.6,0.2-1.166,0.233-1.699,0.1C252.9,47.134,252.583,46.85,252.45,46.45z"/>
	<g>
		<path style="fill-rule:evenodd;clip-rule:evenodd;fill:#158488;" d="M189.3,7.1c-0.233-0.8-0.666-1.45-1.3-1.95
			c-0.767-0.633-1.317-1.3-1.65-2c-0.533-1.133-0.317-2.017,0.65-2.65c0.934-0.633,1.833-0.517,2.7,0.35
			c0.666,0.7,1.033,1.55,1.1,2.55c0.033,0.6,0.066,1.6,0.101,3c0.133,0.967,0.199,2.083,0.199,3.35c0,0.733-0.017,1.933-0.05,3.6
			c0,3.8-0.25,5.7-0.75,5.7c-0.267,0-0.399-1.583-0.399-4.75C189.767,11.4,189.566,9,189.3,7.1z"/>
		<path style="fill-rule:evenodd;clip-rule:evenodd;fill:#158488;" d="M194.05,7c-0.267,1.9-0.483,4.3-0.649,7.2
			c0,3.167-0.134,4.75-0.4,4.75s-0.434-0.633-0.5-1.9c-0.033-0.4-0.05-1.683-0.05-3.85c-0.033-1.6-0.05-2.75-0.05-3.45
			c-0.034-1.2,0.033-2.267,0.199-3.2c0.067-0.233,0.084-1.267,0.051-3.1c0-1.1,0.333-2,1-2.7c0.833-0.867,1.733-0.983,2.699-0.35
			c0.967,0.633,1.184,1.517,0.65,2.65c-0.333,0.7-0.866,1.367-1.6,2C194.733,5.55,194.283,6.2,194.05,7z"/>
		<path style="fill-rule:evenodd;clip-rule:evenodd;fill:#158488;" d="M197.5,10.25c-1.1,1.333-1.75,3.683-1.95,7.05
			c-0.033,0.767-0.149,1.267-0.35,1.5c-0.2,0.267-0.334,0.034-0.4-0.7c-0.033-0.833,0.066-2.167,0.3-4c0.267-2.3,0.667-3.9,1.2-4.8
			c1.033-1.733,1.65-2.733,1.851-3c0.866-1,1.933-1.533,3.199-1.6c1.267-0.034,1.9,0.55,1.9,1.75c0,1.2-0.583,1.833-1.75,1.9
			c-1.066,0.1-1.8,0.233-2.2,0.4C198.733,8.983,198.134,9.483,197.5,10.25z"/>
		<path style="fill-rule:evenodd;clip-rule:evenodd;fill:#158488;" d="M188.3,18.1c-0.066,0.733-0.2,0.967-0.399,0.7
			c-0.167-0.233-0.267-0.733-0.301-1.5c-0.199-3.367-0.85-5.716-1.95-7.05c-0.633-0.767-1.233-1.267-1.8-1.5
			c-0.4-0.167-1.133-0.3-2.2-0.4c-1.167-0.067-1.75-0.7-1.75-1.9c0-1.2,0.633-1.784,1.9-1.75c1.267,0.066,2.333,0.6,3.2,1.6
			c0.2,0.267,0.817,1.267,1.85,3c0.5,0.9,0.9,2.5,1.2,4.8C188.283,16.067,188.366,17.4,188.3,18.1z"/>
	</g>
	<g>
		<path style="fill-rule:evenodd;clip-rule:evenodd;fill:#158488;" d="M322.65,36.55c-0.267,0.533-0.7,1.05-1.301,1.55
			c-0.5,0.4-0.833,0.9-1,1.5c-0.233,1.467-0.399,3.334-0.5,5.601c0,2.434-0.1,3.649-0.3,3.649c-0.3,0-0.45-1.483-0.45-4.449
			c-0.033-1.233-0.05-2.134-0.05-2.7c0-0.9,0.066-1.717,0.2-2.45c0.033-0.134,0.033-0.934,0-2.4c0-0.866,0.25-1.566,0.75-2.1
			c0.667-0.667,1.366-0.75,2.1-0.25C322.866,34.967,323.05,35.65,322.65,36.55z"/>
		<path style="fill-rule:evenodd;clip-rule:evenodd;fill:#158488;" d="M324.4,40.95c-0.434,0.166-0.9,0.55-1.4,1.149
			c-0.8,0.967-1.3,2.784-1.5,5.45c-0.033,0.601-0.116,1-0.25,1.2c-0.167,0.2-0.267,0.017-0.3-0.55c-0.066-0.533,0-1.566,0.2-3.101
			c0.233-1.8,0.55-3.05,0.949-3.75c0.767-1.333,1.25-2.1,1.45-2.3c0.634-0.8,1.45-1.217,2.45-1.25
			c0.967-0.033,1.45,0.417,1.45,1.351c0,0.933-0.45,1.433-1.351,1.5C325.3,40.717,324.733,40.816,324.4,40.95z"/>
	</g>
	<g>
		<path style="fill-rule:evenodd;clip-rule:evenodd;fill:#158488;" d="M71.85,22.1c-0.2-0.733-0.6-1.35-1.2-1.85
			c-0.7-0.567-1.217-1.183-1.55-1.85c-0.467-1.033-0.267-1.85,0.6-2.45c0.9-0.567,1.733-0.45,2.5,0.35
			c0.667,0.667,1.017,1.467,1.05,2.4c0.033,0.533,0.067,1.45,0.1,2.75c0.133,0.9,0.2,1.933,0.2,3.1c0,0.7-0.017,1.817-0.05,3.35
			c0,3.534-0.233,5.3-0.7,5.3c-0.267,0-0.4-1.467-0.4-4.4C72.267,26.1,72.083,23.867,71.85,22.1z"/>
		<path style="fill-rule:evenodd;clip-rule:evenodd;fill:#158488;" d="M76.25,22c-0.267,1.767-0.45,4-0.55,6.7
			c0,2.934-0.133,4.399-0.4,4.399c-0.267,0-0.417-0.583-0.45-1.75c-0.033-0.333-0.05-1.517-0.05-3.55
			c-0.033-1.5-0.05-2.583-0.05-3.25c-0.033-1.1,0.033-2.083,0.2-2.95c0.033-0.267,0.033-1.233,0-2.9c0-1.034,0.3-1.867,0.9-2.5
			c0.8-0.8,1.65-0.9,2.55-0.3c0.9,0.567,1.1,1.383,0.6,2.45c-0.3,0.667-0.8,1.283-1.5,1.85C76.867,20.667,76.45,21.267,76.25,22z"/>
		<path style="fill-rule:evenodd;clip-rule:evenodd;fill:#158488;" d="M81.1,23.6c-0.5,0.233-1.05,0.7-1.65,1.4
			c-1,1.3-1.6,3.483-1.8,6.55c-0.033,0.733-0.133,1.217-0.3,1.45c-0.2,0.233-0.317,0-0.35-0.7c-0.067-0.633,0.017-1.866,0.25-3.7
			c0.267-2.133,0.633-3.616,1.1-4.45c0.933-1.6,1.517-2.533,1.75-2.8c0.767-0.934,1.75-1.434,2.95-1.5
			c1.167-0.033,1.75,0.5,1.75,1.6c0,1.133-0.533,1.733-1.6,1.8C82.2,23.35,81.5,23.467,81.1,23.6z"/>
		<path style="fill-rule:evenodd;clip-rule:evenodd;fill:#158488;" d="M67.8,21.35c0.233,0.267,0.817,1.2,1.75,2.8
			c0.467,0.833,0.85,2.317,1.15,4.45c0.233,1.834,0.316,3.067,0.25,3.7c-0.067,0.667-0.2,0.9-0.4,0.7
			c-0.167-0.233-0.267-0.717-0.3-1.45c-0.2-3.1-0.8-5.283-1.8-6.55c-0.6-0.7-1.15-1.167-1.65-1.4c-0.4-0.133-1.1-0.25-2.1-0.35
			c-1.067-0.067-1.6-0.667-1.6-1.8c0-1.1,0.583-1.633,1.75-1.6C66.05,19.917,67.033,20.417,67.8,21.35z"/>
	</g>
	<g>
		<g>
			<path style="fill-rule:evenodd;clip-rule:evenodd;fill:#158488;" d="M338.1,37.95c0.034-1.334,0.667-2.45,1.9-3.351
				c1.233-0.933,2.733-1.399,4.5-1.399c1.733,0,3.217,0.467,4.45,1.399c1.233,0.9,1.866,2.017,1.899,3.351H348.9
				c-0.167-0.9-0.65-1.65-1.45-2.25c-0.834-0.634-1.816-0.95-2.95-0.95c-1.1,0-2.083,0.316-2.95,0.95c-0.8,0.6-1.283,1.35-1.45,2.25
				H338.1z"/>
			<path style="fill-rule:evenodd;clip-rule:evenodd;fill:#158488;" d="M341.4,37.95c0.233-0.601,0.616-1.101,1.149-1.5
				c0.601-0.4,1.233-0.601,1.9-0.601c0.666,0,1.267,0.2,1.8,0.601c0.5,0.399,0.85,0.899,1.05,1.5H341.4z"/>
		</g>
		<path style="fill-rule:evenodd;clip-rule:evenodd;fill:#158488;" d="M343.1,32.45l0.25-0.7c0.267-0.467,0.65-0.7,1.15-0.7
			c0.767,0,1.184,0.467,1.25,1.4H343.1z"/>
		<path style="fill-rule:evenodd;clip-rule:evenodd;fill:#158488;" d="M346.1,32.5l0.45-0.55c0.4-0.367,0.834-0.467,1.3-0.3
			c0.733,0.233,0.967,0.816,0.7,1.75L346.1,32.5z"/>
		<path style="fill-rule:evenodd;clip-rule:evenodd;fill:#158488;" d="M348.8,33.55l0.601-0.399c0.5-0.2,0.933-0.15,1.3,0.149
			c0.633,0.5,0.684,1.134,0.149,1.9L348.8,33.55z"/>
		<path style="fill-rule:evenodd;clip-rule:evenodd;fill:#158488;" d="M350.95,35.35l0.75,0.051c0.533,0.1,0.866,0.383,1,0.85
			c0.233,0.733-0.084,1.283-0.95,1.65L350.95,35.35z"/>
		<path style="fill-rule:evenodd;clip-rule:evenodd;fill:#158488;" d="M342.75,32.45l-2.45,0.899
			c-0.066-0.233-0.083-0.483-0.05-0.75c0.033-0.533,0.283-0.866,0.75-1C341.733,31.333,342.316,31.616,342.75,32.45z"/>
		<path style="fill-rule:evenodd;clip-rule:evenodd;fill:#158488;" d="M340.1,33.5l-2.05,1.65c-0.133-0.2-0.233-0.417-0.3-0.65
			c-0.1-0.533,0.033-0.95,0.4-1.25C338.75,32.783,339.4,32.866,340.1,33.5z"/>
		<path style="fill-rule:evenodd;clip-rule:evenodd;fill:#158488;" d="M337.9,35.3l-0.801,2.55
			c-0.866-0.366-1.183-0.916-0.949-1.649c0.133-0.467,0.466-0.75,1-0.851C337.417,35.283,337.667,35.267,337.9,35.3z"/>
	</g>
	<g>
		<g>
			<path style="fill-rule:evenodd;clip-rule:evenodd;fill:#158488;" d="M162.35,36.4c1.367,1.033,2.066,2.283,2.1,3.75h-2.2
				c-0.133-1-0.667-1.834-1.6-2.5c-0.933-0.7-2.017-1.051-3.25-1.051s-2.316,0.351-3.25,1.051c-0.933,0.666-1.483,1.5-1.65,2.5
				h-2.25c0.033-1.467,0.733-2.717,2.1-3.75c1.4-1.034,3.066-1.551,5-1.551C159.317,34.85,160.983,35.366,162.35,36.4z"/>
			<path style="fill-rule:evenodd;clip-rule:evenodd;fill:#158488;" d="M153.95,40.15c0.233-0.634,0.65-1.184,1.25-1.65
				c0.667-0.467,1.367-0.7,2.1-0.7c0.733,0,1.4,0.233,2,0.7c0.567,0.434,0.967,0.983,1.2,1.65H153.95z"/>
		</g>
		<path style="fill-rule:evenodd;clip-rule:evenodd;fill:#158488;" d="M155.85,34.05l0.25-0.8c0.3-0.533,0.717-0.8,1.25-0.8
			c0.867,0,1.333,0.533,1.4,1.6H155.85z"/>
		<path style="fill-rule:evenodd;clip-rule:evenodd;fill:#158488;" d="M159.15,34.1l0.55-0.649c0.433-0.4,0.9-0.517,1.4-0.351
			c0.833,0.301,1.1,0.967,0.8,2L159.15,34.1z"/>
		<path style="fill-rule:evenodd;clip-rule:evenodd;fill:#158488;" d="M162.15,35.3l0.7-0.45c0.566-0.233,1.05-0.183,1.45,0.15
			c0.667,0.533,0.7,1.233,0.1,2.1L162.15,35.3z"/>
		<path style="fill-rule:evenodd;clip-rule:evenodd;fill:#158488;" d="M164.6,37.3l0.85,0.05c0.566,0.101,0.933,0.4,1.1,0.9
			c0.233,0.833-0.133,1.45-1.1,1.85L164.6,37.3z"/>
		<path style="fill-rule:evenodd;clip-rule:evenodd;fill:#158488;" d="M155.45,34.05L152.7,35c-0.067-0.233-0.083-0.5-0.05-0.8
			c0.033-0.566,0.317-0.95,0.85-1.15C154.3,32.783,154.95,33.116,155.45,34.05z"/>
		<path style="fill-rule:evenodd;clip-rule:evenodd;fill:#158488;" d="M152.45,35.25l-2.25,1.8c-0.133-0.2-0.233-0.45-0.3-0.75
			c-0.133-0.566,0-1.017,0.4-1.35C150.967,34.417,151.683,34.517,152.45,35.25z"/>
		<path style="fill-rule:evenodd;clip-rule:evenodd;fill:#158488;" d="M150,37.25l-0.85,2.8c-0.967-0.399-1.333-1.017-1.1-1.85
			c0.167-0.533,0.55-0.851,1.15-0.95C149.467,37.217,149.733,37.217,150,37.25z"/>
	</g>
	<g>
		<path style="fill-rule:evenodd;clip-rule:evenodd;fill:#158488;" d="M263.75,21.4c0.767,0.067,1.65,0,2.65-0.2
			c1-0.233,1.833-0.534,2.5-0.9c0.666-0.367,0.966-0.7,0.899-1c-0.066-0.333-0.483-0.533-1.25-0.6c-0.767-0.067-1.649,0-2.649,0.2
			c-1,0.2-1.834,0.483-2.5,0.85c-0.667,0.367-0.967,0.717-0.9,1.05C262.566,21.1,262.983,21.3,263.75,21.4z M269.05,16.55
			c0.367,0.2,0.584,0.467,0.65,0.8c0.066,0.167,0.066,0.316,0,0.45c1.3,0.167,2,0.517,2.1,1.05c0.134,0.6-0.35,1.2-1.45,1.8
			l0.15,0.45c0.066,0.367-0.017,0.7-0.25,1c-0.233,0.333-0.566,0.533-1,0.6c-0.467,0.1-0.9,0.017-1.3-0.25
			c-0.101,0.6-0.5,0.983-1.2,1.15c-0.7,0.1-1.233-0.083-1.6-0.55c-0.2,0.333-0.534,0.55-1,0.65c-0.434,0.066-0.817,0-1.15-0.2
			c-0.366-0.167-0.583-0.433-0.65-0.8c-0.066-0.167-0.066-0.3,0-0.4c-1.233-0.167-1.899-0.517-2-1.05
			c-0.133-0.533,0.351-1.133,1.45-1.8c-0.1-0.067-0.184-0.233-0.25-0.5c-0.066-0.367,0.017-0.7,0.25-1
			c0.233-0.333,0.566-0.534,1-0.6c0.5-0.1,0.934-0.017,1.3,0.25c0.101-0.6,0.5-0.983,1.2-1.15c0.7-0.1,1.233,0.083,1.601,0.55
			c0.267-0.333,0.6-0.55,1-0.65C268.333,16.283,268.717,16.35,269.05,16.55z"/>
		<path style="fill-rule:evenodd;clip-rule:evenodd;fill:#158488;" d="M267.4,19.8c0.066,0.3,0,0.567-0.2,0.8
			c-0.2,0.267-0.467,0.417-0.8,0.45c-0.334,0.067-0.634,0.034-0.9-0.1c-0.267-0.167-0.434-0.383-0.5-0.65
			c-0.1-0.7,0.233-1.133,1-1.3c0.333-0.067,0.634-0.033,0.9,0.1C267.167,19.267,267.333,19.5,267.4,19.8z"/>
	</g>
	<g>
		<path style="fill-rule:evenodd;clip-rule:evenodd;fill:#158488;" d="M202.65,22.95c0.566-0.133,0.866-0.333,0.899-0.6
			s-0.233-0.517-0.8-0.75s-1.267-0.383-2.1-0.45c-0.834-0.066-1.551-0.033-2.15,0.1s-0.9,0.333-0.9,0.6
			c-0.033,0.267,0.233,0.517,0.801,0.75c0.566,0.233,1.267,0.383,2.1,0.45C201.3,23.117,202.017,23.083,202.65,22.95z M202.8,19.6
			c0.334,0.033,0.617,0.167,0.851,0.4s0.333,0.5,0.3,0.8l-0.101,0.35c0.934,0.434,1.384,0.883,1.351,1.35
			c0,0.467-0.517,0.817-1.55,1.05l0.05,0.4c-0.033,0.3-0.184,0.55-0.45,0.75c-0.233,0.2-0.533,0.283-0.9,0.25
			c-0.399-0.034-0.716-0.2-0.949-0.5c-0.233,0.466-0.634,0.667-1.2,0.6c-0.566-0.033-0.934-0.3-1.101-0.8
			c-0.267,0.233-0.583,0.317-0.949,0.25c-0.334-0.033-0.617-0.167-0.851-0.4s-0.333-0.5-0.3-0.8l0.1-0.35
			c-0.899-0.367-1.333-0.784-1.3-1.25c0.033-0.467,0.55-0.833,1.55-1.1c-0.066-0.167-0.083-0.317-0.05-0.45
			c0.033-0.3,0.184-0.55,0.45-0.75c0.233-0.2,0.517-0.283,0.85-0.25c0.4,0.067,0.717,0.233,0.95,0.5
			c0.267-0.433,0.684-0.633,1.25-0.6c0.566,0.067,0.934,0.333,1.101,0.8C202.134,19.617,202.434,19.533,202.8,19.6z"/>
		<path style="fill-rule:evenodd;clip-rule:evenodd;fill:#158488;" d="M201.6,22.2c-0.033,0.233-0.149,0.417-0.35,0.55
			c-0.2,0.167-0.434,0.233-0.7,0.2c-0.666-0.067-0.967-0.383-0.899-0.95c0.033-0.233,0.149-0.433,0.35-0.6
			c0.2-0.167,0.434-0.233,0.7-0.2c0.267,0.033,0.5,0.15,0.7,0.35C201.566,21.75,201.634,21.967,201.6,22.2z"/>
	</g>
	<path style="fill-rule:evenodd;clip-rule:evenodd;fill:#158488;" d="M311.35,14.35c0.301,0,0.567,0.1,0.801,0.3
		c0.199,0.2,0.3,0.45,0.3,0.75c0,0.2-0.101,0.434-0.3,0.7l0.35,0.45c0.366-0.2,0.783-0.333,1.25-0.4V15.7
		c-0.566-0.1-0.85-0.434-0.85-1c0-0.267,0.116-0.5,0.35-0.7c0.2-0.2,0.45-0.3,0.75-0.3s0.566,0.1,0.8,0.3c0.2,0.2,0.3,0.433,0.3,0.7
		c0,0.533-0.283,0.867-0.85,1v0.45c0.467,0.033,0.95,0.167,1.45,0.4l0.25-0.35c-0.2-0.267-0.3-0.5-0.3-0.7
		c0-0.267,0.116-0.5,0.35-0.7c0.2-0.2,0.45-0.3,0.75-0.3s0.566,0.1,0.8,0.3c0.2,0.2,0.3,0.434,0.3,0.7s-0.1,0.517-0.3,0.75
		c-0.233,0.2-0.5,0.3-0.8,0.3l-0.4-0.1l-0.25,0.35c0.434,0.4,0.75,0.833,0.95,1.3l0.5-0.15l-0.05-0.15c0-0.3,0.116-0.55,0.35-0.75
		c0.2-0.2,0.45-0.3,0.75-0.3c0.301,0,0.567,0.1,0.801,0.3c0.199,0.2,0.3,0.45,0.3,0.75c0,0.267-0.101,0.5-0.3,0.7
		c-0.233,0.2-0.5,0.3-0.801,0.3c-0.399,0-0.683-0.15-0.85-0.45l-0.6,0.15l0.1,0.6l-0.1,0.75h-1.75c0-0.333-0.134-0.633-0.4-0.9
		c-0.233-0.233-0.533-0.35-0.9-0.35c-0.333,0-0.633,0.117-0.899,0.35c-0.233,0.267-0.351,0.566-0.351,0.9H311l-0.1-0.75l0.05-0.55
		l-0.55-0.15c-0.233,0.233-0.5,0.35-0.801,0.35c-0.3,0-0.55-0.1-0.75-0.3c-0.233-0.2-0.35-0.45-0.35-0.75
		c0-0.267,0.116-0.5,0.35-0.7c0.2-0.2,0.45-0.3,0.75-0.3c0.301,0,0.567,0.1,0.801,0.3c0.199,0.2,0.3,0.433,0.3,0.7l-0.05,0.3
		l0.449,0.1c0.2-0.5,0.534-0.934,1-1.3l-0.35-0.45l-0.4,0.05c-0.3,0-0.55-0.1-0.75-0.3c-0.233-0.2-0.35-0.434-0.35-0.7
		c0-0.3,0.116-0.55,0.35-0.75C310.8,14.45,311.05,14.35,311.35,14.35z"/>
	<path style="fill-rule:evenodd;clip-rule:evenodd;fill:#158488;" d="M42.55,22.55c0.2,0.2,0.3,0.434,0.3,0.7
		c0,0.333-0.1,0.567-0.3,0.7l0.35,0.5c0.333-0.2,0.767-0.333,1.3-0.4V23.6c-0.567-0.1-0.85-0.434-0.85-1c0-0.3,0.1-0.55,0.3-0.75
		c0.2-0.2,0.45-0.3,0.75-0.3c0.3,0,0.567,0.1,0.8,0.3c0.2,0.2,0.3,0.45,0.3,0.75c0,0.566-0.283,0.9-0.85,1v0.45
		c0.533,0,1.017,0.133,1.45,0.4l0.3-0.4c-0.2-0.133-0.3-0.35-0.3-0.65c0-0.3,0.117-0.55,0.35-0.75c0.2-0.2,0.45-0.3,0.75-0.3
		c0.3,0,0.566,0.1,0.8,0.3c0.2,0.2,0.3,0.45,0.3,0.75c0,0.267-0.1,0.5-0.3,0.7c-0.233,0.2-0.5,0.3-0.8,0.3l-0.45-0.05L46.5,24.7
		c0.433,0.333,0.75,0.75,0.95,1.25l0.5-0.1v-0.2c0-0.267,0.117-0.5,0.35-0.7c0.2-0.2,0.45-0.3,0.75-0.3c0.3,0,0.567,0.1,0.8,0.3
		c0.2,0.2,0.3,0.433,0.3,0.7s-0.1,0.517-0.3,0.75c-0.233,0.2-0.5,0.3-0.8,0.3c-0.367,0-0.667-0.15-0.9-0.45L47.6,26.4l0.05,0.6
		l-0.1,0.7H45.8c0-0.333-0.117-0.633-0.35-0.9c-0.233-0.233-0.534-0.35-0.9-0.35s-0.667,0.117-0.9,0.35
		c-0.267,0.267-0.4,0.567-0.4,0.9h-1.8c-0.067-0.133-0.1-0.367-0.1-0.7l0.05-0.55l-0.55-0.15c-0.233,0.233-0.5,0.35-0.8,0.35
		c-0.3,0-0.55-0.1-0.75-0.3c-0.233-0.233-0.35-0.483-0.35-0.75s0.117-0.5,0.35-0.7c0.2-0.2,0.45-0.3,0.75-0.3
		c0.3,0,0.55,0.1,0.75,0.3c0.2,0.2,0.3,0.434,0.3,0.7v0.3l0.4,0.1c0.2-0.567,0.533-1,1-1.3l-0.35-0.5l-0.4,0.1
		c-0.3,0-0.55-0.1-0.75-0.3c-0.233-0.2-0.35-0.45-0.35-0.75c0-0.267,0.117-0.5,0.35-0.7c0.2-0.2,0.45-0.3,0.75-0.3
		S42.317,22.35,42.55,22.55z"/>
	<path style="fill-rule:evenodd;clip-rule:evenodd;fill:#158488;" d="M144.05,18.2c0.2-0.2,0.434-0.3,0.7-0.3s0.5,0.1,0.7,0.3
		c0.2,0.167,0.3,0.383,0.3,0.65c0,0.467-0.267,0.767-0.8,0.9v0.4c0.566,0.067,1.017,0.2,1.35,0.4l0.25-0.35
		c-0.2-0.133-0.3-0.35-0.3-0.65c0-0.233,0.1-0.45,0.3-0.65c0.2-0.167,0.434-0.25,0.7-0.25s0.5,0.083,0.7,0.25
		c0.2,0.2,0.3,0.417,0.3,0.65c0,0.267-0.1,0.5-0.3,0.7c-0.2,0.167-0.434,0.25-0.7,0.25l-0.35-0.1l-0.25,0.35
		c0.367,0.3,0.65,0.683,0.85,1.15l0.45-0.1v-0.2c0-0.233,0.1-0.45,0.3-0.65c0.2-0.167,0.433-0.25,0.7-0.25
		c0.267,0,0.483,0.083,0.65,0.25c0.2,0.2,0.3,0.417,0.3,0.65c0,0.267-0.1,0.5-0.3,0.7c-0.167,0.167-0.383,0.25-0.65,0.25
		c-0.367,0-0.633-0.133-0.8-0.4l-0.55,0.15l0.1,0.5l-0.1,0.7H146c0-0.333-0.117-0.6-0.35-0.8c-0.2-0.233-0.467-0.35-0.8-0.35
		c-0.3,0-0.567,0.117-0.8,0.35c-0.233,0.2-0.35,0.466-0.35,0.8h-1.65L142,22.8l0.05-0.5l-0.55-0.1c-0.133,0.2-0.367,0.3-0.7,0.3
		c-0.267,0-0.5-0.083-0.7-0.25c-0.2-0.2-0.3-0.433-0.3-0.7c0-0.233,0.1-0.45,0.3-0.65c0.2-0.167,0.433-0.25,0.7-0.25
		c0.267,0,0.5,0.083,0.7,0.25c0.2,0.2,0.3,0.417,0.3,0.65l-0.05,0.25l0.4,0.15c0.133-0.467,0.434-0.867,0.9-1.2l-0.3-0.45l-0.4,0.1
		c-0.267,0-0.5-0.1-0.7-0.3c-0.2-0.167-0.3-0.383-0.3-0.65c0-0.233,0.1-0.45,0.3-0.65c0.2-0.167,0.434-0.25,0.7-0.25
		s0.5,0.083,0.7,0.25c0.2,0.2,0.3,0.417,0.3,0.65c0,0.267-0.083,0.483-0.25,0.65l0.3,0.4c0.467-0.2,0.85-0.317,1.15-0.35v-0.4
		c-0.533-0.133-0.8-0.433-0.8-0.9C143.75,18.583,143.85,18.367,144.05,18.2z"/>
	<g>
		<path style="fill-rule:evenodd;clip-rule:evenodd;fill:#158488;" d="M186.05,35.4c-0.033,0.3-0.533,0.666-1.5,1.1
			c-0.966,0.4-1.683,0.583-2.15,0.55c-0.533-0.033-1.233-0.233-2.1-0.6c-1-0.367-1.5-0.717-1.5-1.05c0-0.267,0.5-0.617,1.5-1.051
			c0.967-0.433,1.667-0.633,2.1-0.6c0.533,0.066,1.283,0.3,2.25,0.7C185.617,34.884,186.083,35.2,186.05,35.4z"/>
		<path style="fill-rule:evenodd;clip-rule:evenodd;fill:#158488;" d="M191.5,33.25c-0.033,0.267-0.5,0.566-1.4,0.9
			c-0.866,0.333-1.533,0.483-2,0.449c-0.466,0-1.116-0.149-1.95-0.449c-0.933-0.334-1.4-0.634-1.4-0.9c0-0.2,0.467-0.483,1.4-0.85
			c0.9-0.367,1.55-0.534,1.95-0.5c0.5,0.033,1.2,0.233,2.101,0.6C191.1,32.833,191.533,33.083,191.5,33.25z"/>
		<path style="fill-rule:evenodd;clip-rule:evenodd;fill:#158488;" d="M192.1,37.85c-0.033,0.334-0.566,0.717-1.6,1.15
			c-1,0.434-1.767,0.634-2.3,0.6c-0.566-0.033-1.35-0.233-2.35-0.6c-1.067-0.434-1.6-0.816-1.6-1.15c0-0.3,0.533-0.666,1.6-1.1
			c1.066-0.467,1.85-0.684,2.35-0.65c0.6,0.067,1.399,0.317,2.399,0.75C191.667,37.316,192.167,37.65,192.1,37.85z"/>
		<path style="fill-rule:evenodd;clip-rule:evenodd;fill:#158488;" d="M197.95,35.55c-0.033,0.3-0.55,0.65-1.55,1.05
			c-0.967,0.4-1.7,0.584-2.2,0.551c-0.566-0.034-1.3-0.217-2.2-0.551c-1.033-0.399-1.55-0.75-1.55-1.05c0-0.233,0.517-0.566,1.55-1
			c1-0.399,1.733-0.583,2.2-0.55c0.533,0.033,1.3,0.25,2.3,0.65C197.5,35.083,197.983,35.384,197.95,35.55z"/>
	</g>
	<g>
		<path style="fill-rule:evenodd;clip-rule:evenodd;fill:#158488;" d="M105.5,17.3c-0.033,0.3-0.533,0.667-1.5,1.1
			c-0.967,0.4-1.683,0.583-2.15,0.55c-0.533-0.034-1.233-0.217-2.1-0.55c-1-0.4-1.5-0.767-1.5-1.1c0-0.267,0.5-0.617,1.5-1.05
			c0.967-0.433,1.667-0.617,2.1-0.55c0.533,0.033,1.283,0.267,2.25,0.7C105.067,16.833,105.533,17.133,105.5,17.3z"/>
		<path style="fill-rule:evenodd;clip-rule:evenodd;fill:#158488;" d="M110.95,15.2c-0.034,0.233-0.5,0.533-1.4,0.9
			c-0.867,0.333-1.517,0.483-1.95,0.45c-0.5-0.033-1.167-0.2-2-0.5c-0.934-0.333-1.4-0.617-1.4-0.85c0-0.2,0.466-0.483,1.4-0.85
			c0.933-0.367,1.6-0.533,2-0.5c0.5,0.033,1.183,0.217,2.05,0.55C110.55,14.767,110.983,15.033,110.95,15.2z"/>
		<path style="fill-rule:evenodd;clip-rule:evenodd;fill:#158488;" d="M111.6,19.75c-0.033,0.333-0.583,0.717-1.65,1.15
			c-1.034,0.434-1.8,0.633-2.3,0.6c-0.566-0.033-1.35-0.233-2.35-0.6c-1.066-0.433-1.6-0.816-1.6-1.15c0-0.267,0.533-0.617,1.6-1.05
			c1.067-0.467,1.85-0.684,2.35-0.65c0.567,0.034,1.383,0.267,2.45,0.7C111.133,19.217,111.633,19.55,111.6,19.75z"/>
		<path style="fill-rule:evenodd;clip-rule:evenodd;fill:#158488;" d="M117.4,17.5c-0.033,0.3-0.55,0.65-1.55,1.05
			c-1,0.4-1.733,0.583-2.2,0.55c-0.566-0.033-1.3-0.217-2.2-0.55c-1.034-0.4-1.55-0.75-1.55-1.05c0-0.267,0.517-0.6,1.55-1
			c1-0.433,1.733-0.633,2.2-0.6c0.567,0.033,1.333,0.25,2.3,0.65C116.95,16.983,117.433,17.3,117.4,17.5z"/>
	</g>
	<g>
		<path style="fill-rule:evenodd;clip-rule:evenodd;fill:#158488;" d="M60.35,34.85c-0.167,0.101-0.617,0.084-1.35-0.05
			c-0.733-0.133-1.233-0.283-1.5-0.45c-0.267-0.1-0.6-0.333-1-0.699c-0.433-0.4-0.583-0.65-0.45-0.75
			c0.133-0.067,0.583-0.034,1.35,0.1s1.283,0.267,1.55,0.4c0.3,0.166,0.633,0.433,1,0.8C60.317,34.6,60.45,34.816,60.35,34.85z"/>
		<path style="fill-rule:evenodd;clip-rule:evenodd;fill:#158488;" d="M64.65,32.8c0.1,0.066,0.083,0.3-0.05,0.7
			c-0.1,0.434-0.25,0.7-0.45,0.8c-0.233,0.167-0.65,0.334-1.25,0.5c-0.667,0.2-1.1,0.25-1.3,0.15
			c-0.167-0.066-0.184-0.316-0.05-0.75c0.167-0.4,0.35-0.667,0.55-0.8c0.233-0.134,0.683-0.284,1.35-0.45
			C64.117,32.783,64.517,32.733,64.65,32.8z"/>
		<path style="fill-rule:evenodd;clip-rule:evenodd;fill:#158488;" d="M56.95,37.9c-0.167-0.101-0.117-0.367,0.15-0.801
			c0.233-0.433,0.467-0.716,0.7-0.85c0.3-0.167,0.784-0.35,1.45-0.55c0.733-0.233,1.2-0.3,1.4-0.2c0.133,0.066,0.083,0.333-0.15,0.8
			c-0.267,0.434-0.517,0.717-0.75,0.851c-0.3,0.166-0.817,0.35-1.55,0.55C57.467,37.9,57.05,37.967,56.95,37.9z"/>
		<path style="fill-rule:evenodd;clip-rule:evenodd;fill:#158488;" d="M66.05,37.45c-0.167,0.066-0.633,0.033-1.4-0.101
			c-0.733-0.133-1.233-0.267-1.5-0.399c-0.3-0.167-0.65-0.417-1.05-0.75c-0.434-0.4-0.583-0.65-0.45-0.75
			c0.133-0.066,0.583-0.033,1.35,0.1c0.767,0.134,1.283,0.267,1.55,0.4c0.3,0.166,0.65,0.45,1.05,0.85
			C66,37.2,66.15,37.417,66.05,37.45z"/>
	</g>
	<g>
		<path style="fill-rule:evenodd;clip-rule:evenodd;fill:#158488;" d="M299.4,29.65c-0.167,0.066-0.617,0.033-1.351-0.101
			c-0.767-0.133-1.267-0.267-1.5-0.399c-0.267-0.134-0.6-0.367-1-0.7c-0.399-0.4-0.533-0.65-0.399-0.75
			c0.133-0.067,0.583-0.034,1.35,0.1s1.267,0.25,1.5,0.351c0.3,0.166,0.634,0.449,1,0.85S299.5,29.616,299.4,29.65z"/>
		<path style="fill-rule:evenodd;clip-rule:evenodd;fill:#158488;" d="M303.7,27.6c0.1,0.066,0.1,0.3,0,0.7
			c-0.134,0.434-0.3,0.7-0.5,0.8c-0.2,0.134-0.601,0.301-1.2,0.5c-0.667,0.167-1.1,0.217-1.3,0.15
			c-0.167-0.066-0.184-0.316-0.05-0.75c0.166-0.4,0.35-0.667,0.55-0.8c0.233-0.134,0.684-0.284,1.35-0.45
			C303.217,27.583,303.6,27.533,303.7,27.6z"/>
		<path style="fill-rule:evenodd;clip-rule:evenodd;fill:#158488;" d="M296,32.7c-0.134-0.101-0.083-0.367,0.15-0.8
			c0.233-0.434,0.483-0.733,0.75-0.9c0.3-0.167,0.767-0.333,1.399-0.5c0.767-0.233,1.233-0.3,1.4-0.2
			c0.166,0.066,0.133,0.334-0.101,0.8c-0.267,0.434-0.517,0.717-0.75,0.851c-0.3,0.166-0.816,0.35-1.55,0.55
			C296.533,32.7,296.1,32.767,296,32.7z"/>
		<path style="fill-rule:evenodd;clip-rule:evenodd;fill:#158488;" d="M305.15,32.25c-0.167,0.066-0.634,0.033-1.4-0.1
			c-0.733-0.134-1.233-0.267-1.5-0.4c-0.3-0.167-0.65-0.417-1.05-0.75c-0.434-0.4-0.584-0.65-0.45-0.75
			c0.1-0.066,0.55-0.033,1.35,0.1c0.767,0.134,1.284,0.267,1.551,0.4c0.3,0.167,0.649,0.45,1.05,0.85
			C305.066,32,305.217,32.217,305.15,32.25z"/>
	</g>
	<path style="fill-rule:evenodd;clip-rule:evenodd;fill:#158488;" d="M159.6,23.1c0.6,0,0.9-0.217,0.9-0.65
		c0-0.434-0.3-0.65-0.9-0.65s-0.9,0.217-0.9,0.65C158.7,22.883,159,23.1,159.6,23.1z M163.3,20.8c0.667,0.733,0.25,1.267-1.25,1.6
		l0.05,0.15c1.533,0.167,2.033,0.667,1.5,1.5c-0.533,0.8-1.367,0.817-2.5,0.05l-0.2,0.1c0.567,1.066,0.233,1.617-1,1.65
		c-1.267,0.066-1.7-0.467-1.3-1.6l-0.2-0.05c-1,0.966-1.85,1.05-2.55,0.25c-0.7-0.8-0.233-1.35,1.4-1.65v-0.1
		c-1.667-0.133-2.25-0.617-1.75-1.45c0.533-0.867,1.4-0.9,2.6-0.1l0.15-0.1c-0.567-1.033-0.25-1.6,0.95-1.7
		c1.233-0.067,1.7,0.433,1.4,1.5l0.25,0.1C161.817,20.083,162.633,20.033,163.3,20.8z"/>
	<path style="fill-rule:evenodd;clip-rule:evenodd;fill:#158488;" d="M65.85,42.3c-0.067,0.367-0.333,0.65-0.8,0.851
		c-0.466,0.199-1,0.233-1.6,0.1c-0.567-0.1-1.034-0.316-1.4-0.65c-0.367-0.366-0.517-0.733-0.45-1.1
		c0.066-0.366,0.35-0.65,0.85-0.85c0.466-0.167,0.983-0.2,1.55-0.101c0.6,0.134,1.067,0.367,1.4,0.7
		C65.767,41.583,65.917,41.934,65.85,42.3z"/>
	<path style="fill-rule:evenodd;clip-rule:evenodd;fill:#158488;" d="M38.2,36.35c0.033,0.367-0.15,0.684-0.55,0.95
		c-0.4,0.3-0.883,0.467-1.45,0.5c-0.6,0.066-1.117-0.017-1.55-0.25c-0.433-0.2-0.667-0.483-0.7-0.85
		c-0.034-0.367,0.15-0.684,0.55-0.95c0.4-0.3,0.883-0.483,1.45-0.55c0.6-0.033,1.117,0.05,1.55,0.25
		C37.933,35.684,38.167,35.983,38.2,36.35z"/>
	<path style="fill-rule:evenodd;clip-rule:evenodd;fill:#158488;" d="M44.15,32.7c0,0.467-0.367,0.733-1.1,0.8
		c-0.3,0-0.566-0.066-0.8-0.2c-0.2-0.166-0.317-0.35-0.35-0.55c0-0.533,0.383-0.8,1.15-0.8C43.783,31.95,44.15,32.2,44.15,32.7z"/>
	<path style="fill-rule:evenodd;clip-rule:evenodd;fill:#158488;" d="M47.65,45.25c0,0.233-0.117,0.417-0.35,0.55
		c-0.233,0.134-0.5,0.167-0.8,0.101c-0.333-0.034-0.6-0.134-0.8-0.301c-0.2-0.166-0.284-0.35-0.25-0.55
		c0.033-0.233,0.167-0.416,0.4-0.55c0.233-0.1,0.5-0.134,0.8-0.1c0.3,0.033,0.55,0.133,0.75,0.3
		C47.6,44.866,47.683,45.05,47.65,45.25z"/>
	<path style="fill-rule:evenodd;clip-rule:evenodd;fill:#158488;" d="M9.6,44.8c0.066,0.2,0,0.384-0.2,0.55
		c-0.2,0.2-0.45,0.317-0.75,0.351c-0.7,0.133-1.117-0.05-1.25-0.55c-0.066-0.5,0.267-0.817,1-0.95c0.3-0.033,0.567,0,0.8,0.1
		C9.433,44.4,9.567,44.566,9.6,44.8z"/>
	<path style="fill-rule:evenodd;clip-rule:evenodd;fill:#158488;" d="M36.95,32.8c0.066,0.434-0.217,0.7-0.85,0.8
		c-0.567,0.101-0.917-0.066-1.05-0.5c-0.033-0.166,0.034-0.333,0.2-0.5c0.2-0.133,0.417-0.216,0.65-0.25
		c0.267-0.033,0.5-0.017,0.7,0.051C36.8,32.5,36.917,32.634,36.95,32.8z"/>
	<path style="fill-rule:evenodd;clip-rule:evenodd;fill:#158488;" d="M55.6,35.5c0,0.2-0.117,0.366-0.35,0.5
		c-0.233,0.167-0.517,0.233-0.85,0.2c-0.333,0-0.617-0.084-0.85-0.25c-0.233-0.167-0.35-0.351-0.35-0.55
		c0.033-0.2,0.167-0.367,0.4-0.5c0.267-0.167,0.55-0.233,0.85-0.2c0.333,0,0.617,0.083,0.85,0.25
		C55.533,35.083,55.633,35.267,55.6,35.5z"/>
	<path style="fill-rule:evenodd;clip-rule:evenodd;fill:#158488;" d="M35.9,42.1c0.067,0.534-0.25,0.851-0.95,0.95
		c-0.767,0.134-1.184-0.066-1.25-0.6c-0.067-0.5,0.267-0.8,1-0.9c0.3-0.033,0.566,0,0.8,0.101C35.733,41.75,35.867,41.9,35.9,42.1z"
		/>
	<path style="fill-rule:evenodd;clip-rule:evenodd;fill:#158488;" d="M244.4,8.45c0,0.167-0.101,0.316-0.301,0.45
		c-0.199,0.133-0.416,0.184-0.649,0.15c-0.267,0-0.483-0.066-0.65-0.2c-0.2-0.133-0.283-0.3-0.25-0.5c0-0.167,0.101-0.3,0.3-0.4
		c0.167-0.133,0.384-0.184,0.65-0.15c0.267,0,0.483,0.067,0.65,0.2C244.35,8.133,244.434,8.283,244.4,8.45z"/>
	<path style="fill-rule:evenodd;clip-rule:evenodd;fill:#158488;" d="M227.05,11.5c0.066,0.433-0.217,0.683-0.85,0.75
		c-0.233,0.067-0.45,0.033-0.65-0.1c-0.2-0.1-0.316-0.233-0.35-0.4c-0.066-0.367,0.2-0.617,0.8-0.75c0.233-0.033,0.467,0,0.7,0.1
		C226.9,11.2,227.017,11.333,227.05,11.5z"/>
	<path style="fill-rule:evenodd;clip-rule:evenodd;fill:#158488;" d="M115.75,34.95c0.067,0.434-0.217,0.7-0.85,0.8
		c-0.6,0.066-0.933-0.1-1-0.5c-0.066-0.4,0.2-0.667,0.8-0.8C115.333,34.384,115.683,34.55,115.75,34.95z"/>
	<path style="fill-rule:evenodd;clip-rule:evenodd;fill:#158488;" d="M89.1,36.3c0.033,0.167-0.033,0.334-0.2,0.5
		c-0.167,0.134-0.383,0.217-0.65,0.25c-0.6,0.134-0.933-0.017-1-0.45c-0.1-0.399,0.167-0.666,0.8-0.8
		C88.65,35.733,89,35.9,89.1,36.3z"/>
	<path style="fill-rule:evenodd;clip-rule:evenodd;fill:#158488;" d="M64.55,29.05c-0.033,0.467-0.433,0.834-1.2,1.101
		c-0.733,0.267-1.6,0.35-2.6,0.25c-1.033-0.134-1.883-0.4-2.55-0.801c-0.667-0.433-0.967-0.883-0.9-1.35
		c0.067-0.467,0.467-0.833,1.2-1.1c0.733-0.233,1.6-0.3,2.6-0.2c1.033,0.133,1.883,0.4,2.55,0.8
		C64.317,28.15,64.617,28.583,64.55,29.05z"/>
	<path style="fill-rule:evenodd;clip-rule:evenodd;fill:#158488;" d="M280.05,23.7c-0.033,0.4-0.366,0.716-1,0.95
		c-0.633,0.2-1.366,0.25-2.2,0.15c-0.833-0.1-1.533-0.316-2.1-0.65c-0.566-0.367-0.833-0.733-0.8-1.1c0.066-0.4,0.399-0.7,1-0.9
		c0.633-0.233,1.366-0.3,2.2-0.2c0.833,0.066,1.55,0.283,2.149,0.65C279.866,22.933,280.116,23.3,280.05,23.7z"/>
	<path style="fill-rule:evenodd;clip-rule:evenodd;fill:#158488;" d="M255.05,49.5c0.566,0.366,0.816,0.733,0.75,1.1
		c-0.033,0.4-0.366,0.717-1,0.95c-0.633,0.2-1.366,0.25-2.2,0.15c-0.833-0.066-1.533-0.283-2.1-0.65c-0.566-0.333-0.833-0.7-0.8-1.1
		c0.066-0.4,0.399-0.7,1-0.9c0.633-0.233,1.366-0.3,2.2-0.2C253.733,48.95,254.45,49.167,255.05,49.5z"/>
	<path style="fill-rule:evenodd;clip-rule:evenodd;fill:#158488;" d="M204.3,16.5c-0.033,0.4-0.366,0.717-1,0.95
		c-0.633,0.2-1.366,0.25-2.2,0.15c-0.833-0.067-1.533-0.283-2.1-0.65c-0.566-0.333-0.833-0.7-0.8-1.1c0.066-0.4,0.399-0.7,1-0.9
		c0.633-0.233,1.366-0.3,2.2-0.2c0.833,0.1,1.55,0.317,2.149,0.65C204.116,15.767,204.366,16.133,204.3,16.5z"/>
	<path style="fill-rule:evenodd;clip-rule:evenodd;fill:#158488;" d="M4.15,43c0.133,0.333,0.033,0.7-0.3,1.1
		C3.517,44.467,3.067,44.733,2.5,44.9c-0.567,0.166-1.1,0.183-1.6,0.05c-0.467-0.101-0.75-0.334-0.85-0.7
		c-0.133-0.366-0.033-0.733,0.3-1.1c0.333-0.367,0.783-0.634,1.35-0.801c0.566-0.166,1.1-0.183,1.6-0.05
		C3.767,42.434,4.05,42.667,4.15,43z"/>
	<path style="fill-rule:evenodd;clip-rule:evenodd;fill:#158488;" d="M90.1,43.3c-0.133,0.467-0.483,0.783-1.05,0.95
		c-0.566,0.2-1.183,0.2-1.85,0c-0.667-0.2-1.184-0.533-1.55-1c-0.4-0.434-0.533-0.884-0.4-1.35c0.133-0.467,0.5-0.801,1.1-1
		c0.566-0.167,1.183-0.167,1.85,0c0.667,0.199,1.183,0.533,1.55,1C90.117,42.366,90.233,42.833,90.1,43.3z"/>
	<g>
		<path style="fill-rule:evenodd;clip-rule:evenodd;fill:#158488;" d="M18.2,40.55c-0.067-0.5,0.066-0.916,0.4-1.25
			c0.367-0.399,0.933-0.533,1.7-0.399c0.767,0.133,1.284,0.433,1.55,0.899c0.333,0.566,0.033,1.167-0.9,1.8
			c2.066,0.034,2.833,0.667,2.3,1.9c-0.5,1.233-1.65,1.384-3.45,0.45c1.467,1.399,1.317,2.184-0.45,2.35
			c-1.8,0.134-2.517-0.483-2.15-1.85c-0.633,0.533-1.317,0.733-2.05,0.6c-0.667-0.133-1.167-0.434-1.5-0.899
			c-0.9-1.367,0-2.017,2.7-1.95c-2.367-1.167-2.833-2.066-1.4-2.7C16.483,38.8,17.567,39.15,18.2,40.55z M17.15,42.45
			c-0.066,0.399-0.183,0.666-0.35,0.8c-0.066,0.066-0.3,0.167-0.7,0.3c-0.434,0.167-0.684,0.25-0.75,0.25
			c0.066,0,0.533-0.083,1.4-0.25c0.667-0.133,1.167,0.017,1.5,0.45c0.2,0.267,0.483,0.65,0.85,1.15
			c-0.367-0.667-0.45-1.134-0.25-1.4c0.267-0.4,0.683-0.6,1.25-0.6c1.033,0,1.583-0.017,1.65-0.051L20.8,42.95
			c-0.367-0.066-0.65-0.167-0.85-0.3h0.45c-0.733-0.034-1-0.4-0.8-1.101c0.333-0.8,0.517-1.283,0.55-1.45
			c-0.066,0.067-0.217,0.25-0.45,0.551c-0.167,0.267-0.333,0.449-0.5,0.55c-0.167,0.133-0.434,0.233-0.8,0.3
			c-0.429,0.066-0.646-0.018-0.65-0.25c-0.001,0.072-0.018,0.188-0.05,0.35c-0.133-0.066-0.583-0.399-1.35-1
			c0.133,0.233,0.4,0.567,0.8,1C17.217,41.8,17.217,42.083,17.15,42.45z"/>
		<path style="fill-rule:evenodd;clip-rule:evenodd;fill:#158488;" d="M18.4,42.05c0.5,0,0.717,0.184,0.65,0.55
			c0,0.367-0.233,0.517-0.7,0.45c-0.434,0-0.65-0.184-0.65-0.55c0-0.134,0.066-0.25,0.2-0.35C18.067,42.05,18.233,42.017,18.4,42.05
			z"/>
	</g>
	<g>
		<path style="fill-rule:evenodd;clip-rule:evenodd;fill:#158488;" d="M76.7,38.05c0.3-0.333,0.716-0.434,1.25-0.3
			c0.566,0.134,0.95,0.4,1.15,0.8c0.233,0.467,0,0.983-0.7,1.55c1.533,0.067,2.083,0.634,1.65,1.7c-0.433,1.033-1.3,1.15-2.6,0.351
			c1.033,1.199,0.9,1.866-0.4,2c-1.367,0.133-1.883-0.4-1.55-1.601c-1.1,1.033-1.983,0.934-2.65-0.3
			c-0.667-1.2,0.017-1.75,2.05-1.65c-1.7-1.033-2-1.833-0.9-2.399c1.133-0.601,1.917-0.283,2.35,0.95
			C76.317,38.717,76.433,38.35,76.7,38.05z M77.35,40.05c0.3-0.666,0.45-1.083,0.45-1.25c-0.233,0.467-0.466,0.783-0.7,0.95
			c-0.1,0.1-0.3,0.184-0.6,0.25c-0.333,0.033-0.5-0.05-0.5-0.25l-0.05,0.3c-0.167-0.1-0.483-0.383-0.95-0.85
			c0.1,0.166,0.283,0.45,0.55,0.85c0.067,0.167,0.067,0.4,0,0.7c-0.066,0.333-0.167,0.566-0.3,0.7c-0.067,0.066-0.25,0.166-0.55,0.3
			c-0.333,0.134-0.534,0.2-0.6,0.2c0.167,0.033,0.517-0.033,1.05-0.2c0.5-0.1,0.883,0.033,1.15,0.4c0.133,0.233,0.333,0.566,0.6,1
			c-0.066-0.267-0.133-0.467-0.2-0.601c-0.067-0.267-0.05-0.467,0.05-0.6c0.233-0.367,0.55-0.55,0.95-0.55c0.767,0,1.167,0,1.2,0
			c-0.633-0.101-1.066-0.233-1.3-0.4h0.35C77.383,40.967,77.183,40.65,77.35,40.05z"/>
		<path style="fill-rule:evenodd;clip-rule:evenodd;fill:#158488;" d="M76.5,40.45c0.3,0,0.45,0.166,0.45,0.5
			c-0.067,0.267-0.25,0.399-0.55,0.399c-0.367-0.066-0.517-0.233-0.45-0.5C75.95,40.517,76.133,40.384,76.5,40.45z"/>
	</g>
	<g>
		<path style="fill-rule:evenodd;clip-rule:evenodd;fill:#158488;" d="M232,8.5h0.25c-0.467-0.033-0.634-0.317-0.5-0.85
			c0.267-0.566,0.4-0.917,0.4-1.05c-0.2,0.4-0.4,0.683-0.601,0.85c-0.133,0.066-0.3,0.117-0.5,0.15
			c-0.267,0.066-0.399,0.017-0.399-0.15L230.6,7.7c-0.1-0.067-0.366-0.317-0.8-0.75c0.066,0.167,0.217,0.417,0.45,0.75
			c0.066,0.133,0.066,0.333,0,0.6c-0.066,0.267-0.15,0.45-0.25,0.55c-0.066,0.066-0.217,0.15-0.45,0.25
			c-0.109,0.048-0.201,0.09-0.274,0.125L229.95,9.1c0.434-0.067,0.75,0.05,0.95,0.35c0.1,0.2,0.267,0.483,0.5,0.85
			c-0.067-0.233-0.117-0.4-0.15-0.5c-0.066-0.233-0.066-0.417,0-0.55c0.2-0.3,0.483-0.45,0.85-0.45c0.567,0.034,0.9,0.034,1,0
			C232.566,8.733,232.2,8.633,232,8.5z M231.2,6c0.267-0.267,0.633-0.35,1.1-0.25s0.783,0.317,0.95,0.65c0.2,0.434,0,0.883-0.6,1.35
			c1.267,0.033,1.733,0.5,1.399,1.4c-0.366,0.9-1.1,1-2.2,0.3c0.867,1.033,0.75,1.583-0.35,1.65c-1.134,0.1-1.566-0.35-1.3-1.35
			c-0.9,0.867-1.634,0.783-2.2-0.25c-0.533-1,0.05-1.467,1.75-1.4c-1.434-0.867-1.7-1.517-0.8-1.95c0.967-0.5,1.633-0.233,2,0.8
			C230.917,6.583,231,6.267,231.2,6z"/>
		<path style="fill-rule:evenodd;clip-rule:evenodd;fill:#158488;" d="M231.05,8c0.267,0.067,0.4,0.217,0.4,0.45
			c-0.066,0.267-0.233,0.367-0.5,0.3c-0.3,0-0.417-0.133-0.351-0.4C230.6,8.117,230.75,8,231.05,8z"/>
	</g>
	<g>
		<path style="fill-rule:evenodd;clip-rule:evenodd;fill:#158488;" d="M29.25,37.05c-0.191-0.096-0.216-0.195-0.075-0.3L28.95,36.9
			l0.25-0.95l-0.4,0.75c-0.433,0.434-0.85,0.684-1.25,0.75l-0.9-0.2c0.033,0.066,0.233,0.184,0.6,0.35
			c0.3,0.167,0.35,0.417,0.15,0.75c-0.1,0.2-0.267,0.483-0.5,0.851c0.033,0,0.167-0.15,0.4-0.45c0.2-0.2,0.367-0.316,0.5-0.35
			c0.367-0.134,0.65-0.101,0.85,0.1c0.3,0.366,0.467,0.55,0.5,0.55c-0.2-0.366-0.283-0.649-0.25-0.85l0.15,0.149
			c-0.2-0.267-0.017-0.55,0.55-0.85c0.667-0.267,1.066-0.45,1.2-0.55c-0.5,0.166-0.867,0.25-1.1,0.25
			C29.567,37.2,29.417,37.15,29.25,37.05z M30.85,36c0.4-0.1,0.667,0.017,0.8,0.35c0.167,0.334,0.133,0.667-0.1,1
			c-0.3,0.4-0.833,0.617-1.6,0.65c0.633,0.7,0.433,1.3-0.6,1.8c-1.033,0.467-1.5,0.15-1.4-0.95c-0.534,1.233-1.117,1.584-1.75,1.051
			c-0.667-0.534-0.467-1.101,0.6-1.7c-1.3,0.166-1.6-0.283-0.9-1.351c0.667-1,1.4-1.033,2.2-0.1c0.1-1.4,0.6-2.033,1.5-1.9
			c0.967,0.167,1.05,0.717,0.25,1.65C30.183,36.233,30.517,36.066,30.85,36z"/>
		<path style="fill-rule:evenodd;clip-rule:evenodd;fill:#158488;" d="M28.9,37.35c0.067,0.2,0,0.384-0.2,0.551
			c-0.3,0.1-0.5,0.1-0.6,0c-0.067-0.2,0-0.384,0.2-0.551C28.6,37.25,28.8,37.25,28.9,37.35z"/>
	</g>
	<g>
		<path style="fill-rule:evenodd;clip-rule:evenodd;fill:#158488;" d="M241.15,27.65l-0.25,0.1l0.25-0.75l-0.4,0.6
			c-0.066,0.1-0.233,0.233-0.5,0.4c-0.233,0.134-0.417,0.217-0.55,0.25L239,28.1l0.5,0.25c0.233,0.134,0.283,0.351,0.15,0.65
			c-0.101,0.167-0.25,0.417-0.45,0.75c0.467-0.434,0.717-0.667,0.75-0.7c0.333-0.1,0.566-0.066,0.7,0.101
			c0.267,0.267,0.416,0.399,0.449,0.399c-0.166-0.267-0.25-0.483-0.25-0.649L241,29c-0.167-0.233-0.017-0.483,0.45-0.75
			c0.204-0.117,0.487-0.25,0.85-0.4c-0.354,0.133-0.604,0.2-0.75,0.2c-0.133,0-0.267-0.033-0.399-0.1
			C240.983,27.85,240.983,27.75,241.15,27.65z M243.2,27.35c0.1,0.267,0.066,0.533-0.101,0.8c-0.267,0.333-0.716,0.517-1.35,0.55
			c0.533,0.6,0.366,1.1-0.5,1.5c-0.866,0.366-1.267,0.1-1.2-0.8c-0.434,1.033-0.916,1.333-1.45,0.899
			c-0.566-0.434-0.399-0.899,0.5-1.399c-1.066,0.133-1.316-0.25-0.75-1.15c0.567-0.867,1.184-0.9,1.851-0.1
			c0.066-1.167,0.483-1.683,1.25-1.55c0.8,0.1,0.866,0.55,0.2,1.35C242.417,26.85,242.934,26.817,243.2,27.35z"/>
		<path style="fill-rule:evenodd;clip-rule:evenodd;fill:#158488;" d="M240.85,28.15c0.101,0.166,0.051,0.316-0.149,0.449
			c-0.233,0.101-0.4,0.101-0.5,0c-0.066-0.166,0-0.3,0.2-0.399C240.566,28.033,240.717,28.017,240.85,28.15z"/>
	</g>
	<g>
		<path style="fill-rule:evenodd;clip-rule:evenodd;fill:#158488;" d="M138.3,49.4c-1-0.434-1.017-0.884-0.05-1.351
			c0.933-0.434,1.467-0.133,1.6,0.9c0.7-0.934,1.333-1.167,1.9-0.7c0.6,0.5,0.417,0.934-0.55,1.3c0.367-0.066,0.683-0.05,0.95,0.05
			c0.333,0.101,0.483,0.301,0.45,0.601c-0.067,0.3-0.25,0.517-0.55,0.649c-0.4,0.167-0.883,0.101-1.45-0.199
			c0.167,0.767-0.233,1.1-1.2,1c-0.933-0.134-1.133-0.567-0.6-1.301c-0.9,0.634-1.466,0.634-1.7,0
			C136.833,49.65,137.233,49.333,138.3,49.4z M139.15,49.2l-0.55-0.5c0,0.1,0.1,0.267,0.3,0.5c0.133,0.233,0.05,0.434-0.25,0.6
			l-0.75,0.4c0.033,0,0.2-0.05,0.5-0.15c0.2-0.066,0.367-0.083,0.5-0.05c0.333,0.066,0.517,0.217,0.55,0.45
			c0.033,0.1,0.083,0.3,0.15,0.6c0.1-0.399,0.167-0.633,0.2-0.7v0.075c0.029-0.213,0.295-0.305,0.8-0.274
			c0.267,0,0.633,0.033,1.1,0.1l-0.9-0.3c-0.1-0.033-0.2-0.117-0.3-0.25c-0.067-0.167-0.017-0.267,0.15-0.3h-0.25l0.6-0.551
			c-0.267,0.2-0.483,0.317-0.65,0.351c-0.133,0.066-0.333,0.1-0.6,0.1C139.45,49.3,139.25,49.267,139.15,49.2z"/>
		<path style="fill-rule:evenodd;clip-rule:evenodd;fill:#158488;" d="M140.05,49.55c0.067,0.033,0.1,0.084,0.1,0.15
			c0,0.2-0.133,0.3-0.4,0.3c-0.2,0-0.333-0.083-0.4-0.25c0-0.167,0.133-0.25,0.4-0.25C139.85,49.467,139.95,49.483,140.05,49.55z"/>
	</g>
	<g>
		<path style="fill-rule:evenodd;clip-rule:evenodd;fill:#158488;" d="M187.15,23.25c-0.667,0.9-1.217,1.083-1.65,0.55
			c-0.433-0.566-0.15-0.983,0.85-1.25c-1.1-0.133-1.267-0.566-0.5-1.3c0.733-0.7,1.333-0.583,1.8,0.35
			c0.366-1.1,0.899-1.517,1.6-1.25c0.733,0.3,0.7,0.767-0.1,1.4c0.3-0.167,0.6-0.25,0.899-0.25c0.367,0.033,0.566,0.183,0.601,0.45
			c0.066,0.3-0.034,0.566-0.301,0.8c-0.3,0.267-0.767,0.35-1.399,0.25c0.399,0.7,0.116,1.133-0.851,1.3
			C187.167,24.5,186.85,24.15,187.15,23.25z M186.65,23.1c0.2-0.133,0.35-0.2,0.45-0.2c0.334-0.033,0.551,0.05,0.65,0.25
			c0.2,0.3,0.316,0.467,0.35,0.5c-0.1-0.3-0.116-0.533-0.05-0.7l0.101,0.15c-0.134-0.267,0.066-0.467,0.6-0.6
			c0.267-0.067,0.616-0.15,1.05-0.25c-0.434,0.067-0.733,0.083-0.899,0.05c-0.134-0.033-0.25-0.1-0.351-0.2
			c-0.133-0.133-0.116-0.233,0.05-0.3l-0.25,0.05l0.4-0.7l-0.5,0.55c-0.467,0.3-0.866,0.417-1.2,0.35l-0.65-0.3
			c0.033,0.067,0.184,0.183,0.45,0.35c0.2,0.2,0.183,0.417-0.05,0.65c-0.3,0.267-0.5,0.467-0.6,0.6
			C186.233,23.35,186.383,23.267,186.65,23.1z"/>
		<path style="fill-rule:evenodd;clip-rule:evenodd;fill:#158488;" d="M188.2,22.25c0.066,0.167-0.033,0.283-0.3,0.35
			c-0.167,0.133-0.317,0.1-0.45-0.1c-0.066-0.167,0.033-0.283,0.3-0.35C187.983,22.017,188.134,22.05,188.2,22.25z"/>
	</g>
	<path style="fill-rule:evenodd;clip-rule:evenodd;fill:#158488;" d="M286.3,45.65c0.066-0.434,0.351-0.75,0.851-0.95
		s1.083-0.233,1.75-0.101c0.633,0.167,1.149,0.434,1.55,0.801c0.366,0.366,0.517,0.75,0.45,1.149c-0.101,0.434-0.4,0.75-0.9,0.95
		s-1.066,0.233-1.7,0.1c-0.666-0.133-1.184-0.399-1.55-0.8C286.35,46.434,286.2,46.05,286.3,45.65z"/>
	<path style="fill-rule:evenodd;clip-rule:evenodd;fill:#158488;" d="M224.9,33.05c0.033-0.399,0.283-0.733,0.75-1
		c0.466-0.3,1.017-0.434,1.649-0.399c0.667,0.033,1.217,0.199,1.65,0.5c0.467,0.3,0.684,0.666,0.649,1.1
		c-0.033,0.434-0.283,0.783-0.75,1.05c-0.433,0.267-0.983,0.384-1.649,0.351c-0.667-0.034-1.217-0.2-1.65-0.5
		C225.083,33.85,224.866,33.483,224.9,33.05z"/>
	<path style="fill-rule:evenodd;clip-rule:evenodd;fill:#158488;" d="M140.65,38.55c0.033-0.399,0.283-0.733,0.75-1
		c0.5-0.3,1.067-0.434,1.7-0.399c0.667,0.033,1.217,0.199,1.65,0.5c0.433,0.3,0.65,0.666,0.65,1.1
		c-0.033,0.434-0.283,0.783-0.75,1.05s-1.033,0.384-1.7,0.351c-0.633-0.034-1.184-0.2-1.65-0.5
		C140.867,39.35,140.65,38.983,140.65,38.55z"/>
	<path style="fill-rule:evenodd;clip-rule:evenodd;fill:#158488;" d="M98.35,27.85c0.033-0.4,0.283-0.733,0.75-1
		c0.467-0.3,1.017-0.434,1.65-0.4c0.667,0.033,1.217,0.2,1.65,0.5c0.467,0.3,0.684,0.667,0.65,1.1c0,0.434-0.233,0.783-0.7,1.05
		s-1.033,0.384-1.7,0.351c-0.667-0.033-1.217-0.2-1.65-0.5C98.533,28.65,98.317,28.283,98.35,27.85z"/>
	<path style="fill-rule:evenodd;clip-rule:evenodd;fill:#158488;" d="M306,27.75c-0.033-0.367,0.167-0.717,0.6-1.05
		c0.467-0.3,1.017-0.483,1.65-0.55c0.634-0.033,1.184,0.067,1.65,0.3c0.466,0.267,0.716,0.583,0.75,0.95
		c0.066,0.4-0.117,0.75-0.551,1.05c-0.433,0.333-0.983,0.517-1.649,0.55c-0.634,0.066-1.184-0.033-1.65-0.3
		C306.333,28.467,306.066,28.15,306,27.75z"/>
	<path style="fill-rule:evenodd;clip-rule:evenodd;fill:#158488;" d="M168.5,33.35c-0.033-0.399,0.167-0.75,0.6-1.05
		c0.433-0.3,0.967-0.483,1.6-0.55c0.667-0.033,1.233,0.066,1.7,0.3s0.717,0.55,0.75,0.95c0.033,0.366-0.167,0.717-0.6,1.05
		c-0.433,0.334-0.966,0.517-1.6,0.55c-0.633,0.067-1.2-0.033-1.7-0.3C168.783,34.033,168.533,33.717,168.5,33.35z"/>
	<path style="fill-rule:evenodd;clip-rule:evenodd;fill:#158488;" d="M81.3,37.1c-0.466-0.3-0.683-0.649-0.65-1.05
		c0.033-0.399,0.283-0.717,0.75-0.95c0.434-0.267,0.983-0.383,1.65-0.35c0.633,0.033,1.184,0.2,1.65,0.5
		c0.433,0.3,0.633,0.65,0.6,1.05c0,0.367-0.233,0.684-0.7,0.95s-1.033,0.384-1.7,0.35C82.267,37.533,81.733,37.366,81.3,37.1z"/>
	<path style="fill-rule:evenodd;clip-rule:evenodd;fill:#158488;" d="M325.3,25.3c-0.033-0.367,0.167-0.716,0.601-1.05
		c0.433-0.3,0.966-0.483,1.6-0.55c0.634-0.034,1.2,0.066,1.7,0.3c0.434,0.267,0.684,0.583,0.75,0.95
		c0.033,0.4-0.167,0.75-0.601,1.05c-0.433,0.333-0.983,0.517-1.649,0.55c-0.634,0.067-1.184-0.033-1.65-0.3
		C325.583,26.017,325.333,25.7,325.3,25.3z"/>
	<path style="fill-rule:evenodd;clip-rule:evenodd;fill:#158488;" d="M274.65,36.75c-0.034-0.233,0.05-0.45,0.25-0.65
		c0.199-0.199,0.466-0.333,0.8-0.399c0.333-0.033,0.633,0,0.899,0.1c0.267,0.134,0.417,0.316,0.45,0.55
		c0.033,0.267-0.05,0.483-0.25,0.65c-0.233,0.2-0.517,0.316-0.85,0.35c-0.334,0.067-0.617,0.034-0.851-0.1
		C274.833,37.15,274.684,36.983,274.65,36.75z"/>
	<path style="fill-rule:evenodd;clip-rule:evenodd;fill:#158488;" d="M310.7,37.9c-0.066-0.467,0.2-0.733,0.8-0.801
		c0.566-0.066,0.884,0.117,0.95,0.551c0.033,0.166-0.033,0.333-0.2,0.5c-0.134,0.133-0.316,0.216-0.55,0.25
		C311.167,38.5,310.833,38.333,310.7,37.9z"/>
	<path style="fill-rule:evenodd;clip-rule:evenodd;fill:#158488;" d="M298.6,35.8c-0.066-0.467,0.184-0.733,0.75-0.8
		c0.601-0.066,0.934,0.1,1,0.5c0.067,0.467-0.199,0.733-0.8,0.8C298.983,36.366,298.667,36.2,298.6,35.8z"/>
	<path style="fill-rule:evenodd;clip-rule:evenodd;fill:#158488;" d="M263.95,33.15c-0.066-0.4,0.184-0.667,0.75-0.801
		c0.566-0.066,0.899,0.117,1,0.551c0.066,0.433-0.2,0.683-0.8,0.75c-0.233,0.066-0.434,0.033-0.601-0.101
		C264.1,33.45,263.983,33.316,263.95,33.15z"/>
	<path style="fill-rule:evenodd;clip-rule:evenodd;fill:#158488;" d="M259,48.8c0.066,0.467-0.184,0.733-0.75,0.8
		c-0.566,0.067-0.884-0.116-0.95-0.55s0.184-0.684,0.75-0.75c0.233-0.033,0.45,0,0.65,0.101C258.866,48.5,258.967,48.634,259,48.8z"
		/>
	<path style="fill-rule:evenodd;clip-rule:evenodd;fill:#158488;" d="M256,37.05c-0.033-0.166,0.033-0.333,0.2-0.5
		c0.133-0.133,0.316-0.217,0.55-0.25c0.566-0.1,0.884,0.066,0.95,0.5c0.133,0.4-0.117,0.667-0.75,0.8
		C256.384,37.667,256.066,37.483,256,37.05z"/>
	<path style="fill-rule:evenodd;clip-rule:evenodd;fill:#158488;" d="M228.55,37.55c-0.033-0.166,0.033-0.333,0.2-0.5
		c0.134-0.133,0.316-0.217,0.55-0.25c0.533-0.1,0.867,0.066,1,0.5c0.066,0.434-0.2,0.7-0.8,0.8
		C228.934,38.167,228.616,37.983,228.55,37.55z"/>
	<path style="fill-rule:evenodd;clip-rule:evenodd;fill:#158488;" d="M235.75,15.65c-0.033-0.167,0.033-0.333,0.2-0.5
		c0.133-0.133,0.316-0.217,0.55-0.25c0.566-0.1,0.884,0.067,0.95,0.5c0.066,0.434-0.184,0.7-0.75,0.8
		C236.134,16.267,235.816,16.083,235.75,15.65z"/>
	<path style="fill-rule:evenodd;clip-rule:evenodd;fill:#158488;" d="M163.35,7.5c-0.033-0.167,0.033-0.333,0.2-0.5
		c0.167-0.133,0.367-0.217,0.6-0.25s0.45,0,0.65,0.1c0.167,0.1,0.267,0.233,0.3,0.4c0.066,0.467-0.184,0.733-0.75,0.8
		C163.783,8.117,163.45,7.933,163.35,7.5z"/>
	<path style="fill-rule:evenodd;clip-rule:evenodd;fill:#158488;" d="M99,43.2c-0.067-0.434,0.183-0.7,0.75-0.8
		c0.567-0.067,0.883,0.116,0.95,0.55c0.033,0.166-0.034,0.333-0.2,0.5c-0.133,0.133-0.317,0.217-0.55,0.25
		C99.383,43.8,99.067,43.634,99,43.2z"/>
	<path style="fill-rule:evenodd;clip-rule:evenodd;fill:#158488;" d="M122.4,16.9c-0.566,0.067-0.883-0.117-0.95-0.55
		c-0.034-0.167,0.033-0.333,0.2-0.5c0.133-0.133,0.317-0.217,0.55-0.25c0.566-0.1,0.883,0.066,0.95,0.5
		c0.067,0.2,0.017,0.383-0.15,0.55C122.867,16.783,122.667,16.867,122.4,16.9z"/>
	<path style="fill-rule:evenodd;clip-rule:evenodd;fill:#158488;" d="M203.05,34.4c-0.2,0.199-0.45,0.316-0.75,0.35
		c-0.3,0.066-0.566,0.033-0.8-0.1c-0.233-0.134-0.384-0.317-0.45-0.551c-0.033-0.233,0.05-0.449,0.25-0.649
		c0.2-0.167,0.45-0.283,0.75-0.351c0.3-0.033,0.566,0,0.8,0.101c0.233,0.133,0.367,0.316,0.4,0.55
		C203.316,33.983,203.25,34.2,203.05,34.4z"/>
	<path style="fill-rule:evenodd;clip-rule:evenodd;fill:#158488;" d="M136.85,40.4c-0.067-0.567,0.267-0.9,1-1
		c0.3-0.034,0.566,0.017,0.8,0.149c0.233,0.134,0.367,0.316,0.4,0.55c0.034,0.233-0.05,0.45-0.25,0.65
		c-0.167,0.2-0.4,0.316-0.7,0.35C137.4,41.167,136.983,40.934,136.85,40.4z"/>
	<path style="fill-rule:evenodd;clip-rule:evenodd;fill:#158488;" d="M90.95,40.25c-0.034-0.233,0.033-0.45,0.2-0.65
		c0.2-0.166,0.45-0.283,0.75-0.35c0.3-0.033,0.567,0,0.8,0.1c0.233,0.134,0.367,0.317,0.4,0.551c0.066,0.233,0,0.449-0.2,0.649
		c-0.2,0.2-0.45,0.316-0.75,0.351c-0.3,0.066-0.566,0.033-0.8-0.101C91.117,40.667,90.983,40.483,90.95,40.25z"/>
	<path style="fill-rule:evenodd;clip-rule:evenodd;fill:#158488;" d="M267.55,25.7c-0.066-0.434,0.184-0.684,0.75-0.75
		c0.233-0.034,0.45,0,0.65,0.1c0.166,0.1,0.267,0.233,0.3,0.4c0.066,0.4-0.184,0.667-0.75,0.8
		C267.934,26.317,267.616,26.133,267.55,25.7z"/>
	<path style="fill-rule:evenodd;clip-rule:evenodd;fill:#158488;" d="M175.4,31.15c-0.066-0.434,0.184-0.7,0.75-0.801
		c0.567-0.066,0.883,0.117,0.95,0.551c0.066,0.433-0.184,0.683-0.75,0.75C175.783,31.75,175.467,31.583,175.4,31.15z"/>
	<path style="fill-rule:evenodd;clip-rule:evenodd;fill:#158488;" d="M104.8,29.55c-0.033-0.166,0.034-0.333,0.2-0.5
		c0.167-0.133,0.367-0.217,0.6-0.25s0.45,0,0.65,0.101c0.167,0.1,0.267,0.233,0.3,0.399c0.067,0.467-0.2,0.733-0.8,0.8
		C105.183,30.167,104.867,29.983,104.8,29.55z"/>
	<path style="fill-rule:evenodd;clip-rule:evenodd;fill:#158488;" d="M198.2,31.2c-0.033-0.167,0.033-0.334,0.2-0.5
		c0.166-0.134,0.366-0.217,0.6-0.25s0.45,0,0.65,0.1c0.166,0.101,0.267,0.233,0.3,0.4c0.066,0.399-0.184,0.666-0.75,0.8
		C198.634,31.816,198.3,31.634,198.2,31.2z"/>
	<path style="fill-rule:evenodd;clip-rule:evenodd;fill:#158488;" d="M305.05,20.15c-0.033-0.167,0.017-0.333,0.15-0.5
		c0.166-0.133,0.366-0.217,0.6-0.25c0.566-0.066,0.884,0.1,0.95,0.5c0.066,0.467-0.184,0.733-0.75,0.8
		C305.434,20.767,305.116,20.583,305.05,20.15z"/>
	<path style="fill-rule:evenodd;clip-rule:evenodd;fill:#158488;" d="M297.85,45.75c-0.033-0.233,0.051-0.45,0.25-0.65
		c0.233-0.166,0.517-0.283,0.851-0.35c0.333-0.033,0.633,0,0.899,0.1c0.233,0.134,0.367,0.317,0.4,0.551
		c0.066,0.233-0.017,0.449-0.25,0.649c-0.2,0.2-0.467,0.316-0.8,0.351C298.434,46.5,297.983,46.283,297.85,45.75z"/>
	<path style="fill-rule:evenodd;clip-rule:evenodd;fill:#158488;" d="M171.35,44c-0.033-0.233,0.066-0.45,0.3-0.65
		c0.2-0.166,0.467-0.283,0.8-0.35c0.333-0.033,0.633,0,0.9,0.1c0.233,0.134,0.367,0.317,0.4,0.551
		c0.067,0.233-0.017,0.449-0.25,0.649c-0.2,0.2-0.467,0.316-0.8,0.351c-0.333,0.066-0.633,0.033-0.9-0.101
		C171.567,44.417,171.417,44.233,171.35,44z"/>
	<path style="fill-rule:evenodd;clip-rule:evenodd;fill:#158488;" d="M237.45,42.45c-0.033-0.233,0.05-0.45,0.25-0.65
		c0.2-0.166,0.467-0.283,0.8-0.35c0.8-0.101,1.25,0.116,1.35,0.649c0.034,0.233-0.05,0.45-0.25,0.65
		c-0.233,0.2-0.517,0.316-0.85,0.35c-0.333,0.067-0.616,0.034-0.85-0.1C237.634,42.866,237.483,42.684,237.45,42.45z"/>
	<path style="fill-rule:evenodd;clip-rule:evenodd;fill:#158488;" d="M146.05,51.55c-0.033-0.233,0.05-0.45,0.25-0.649
		c0.2-0.167,0.467-0.284,0.8-0.351c0.767-0.1,1.217,0.117,1.35,0.65c0.033,0.233-0.05,0.45-0.25,0.649
		c-0.233,0.2-0.517,0.317-0.85,0.351C146.55,52.333,146.117,52.116,146.05,51.55z"/>
	<path style="fill-rule:evenodd;clip-rule:evenodd;fill:#158488;" d="M67.3,36c-0.033-0.233,0.067-0.45,0.3-0.65
		c0.2-0.166,0.467-0.283,0.8-0.35c0.8-0.134,1.233,0.083,1.3,0.65c0.066,0.233-0.017,0.449-0.25,0.649
		c-0.2,0.2-0.467,0.316-0.8,0.351c-0.333,0.066-0.633,0.033-0.9-0.101C67.517,36.417,67.367,36.233,67.3,36z"/>
	<path style="fill-rule:evenodd;clip-rule:evenodd;fill:#158488;" d="M294.45,24.55c-0.033-0.233,0.05-0.45,0.25-0.65
		c0.233-0.167,0.517-0.283,0.85-0.35c0.334-0.033,0.634,0,0.9,0.1c0.233,0.133,0.366,0.317,0.399,0.55
		c0.067,0.233-0.017,0.45-0.25,0.65c-0.199,0.2-0.466,0.316-0.8,0.35C295,25.3,294.55,25.083,294.45,24.55z"/>
	<path style="fill-rule:evenodd;clip-rule:evenodd;fill:#158488;" d="M247.75,26.4c-0.033-0.233,0.05-0.45,0.25-0.65
		c0.2-0.167,0.467-0.283,0.8-0.35c0.834-0.133,1.283,0.083,1.351,0.65c0.033,0.233-0.051,0.45-0.25,0.65
		c-0.233,0.2-0.517,0.316-0.851,0.35c-0.333,0.067-0.616,0.034-0.85-0.1C247.934,26.817,247.783,26.633,247.75,26.4z"/>
	<path style="fill-rule:evenodd;clip-rule:evenodd;fill:#158488;" d="M181.95,41c-0.067-0.533,0.3-0.884,1.1-1.05
		c0.8-0.066,1.25,0.149,1.35,0.649c0.033,0.267-0.066,0.483-0.3,0.65c-0.2,0.2-0.467,0.316-0.8,0.35
		c-0.333,0.067-0.633,0.051-0.9-0.05C182.167,41.417,182.017,41.233,181.95,41z"/>
	<path style="fill-rule:evenodd;clip-rule:evenodd;fill:#158488;" d="M100.95,31.35c-0.034-0.233,0.05-0.449,0.25-0.649
		c0.233-0.167,0.517-0.283,0.85-0.351c0.333-0.033,0.633,0,0.9,0.101c0.233,0.133,0.367,0.316,0.4,0.55
		c0.066,0.233-0.017,0.45-0.25,0.65c-0.2,0.199-0.467,0.316-0.8,0.35c-0.333,0.066-0.633,0.033-0.9-0.1
		C101.133,31.767,100.983,31.583,100.95,31.35z"/>
	<path style="fill-rule:evenodd;clip-rule:evenodd;fill:#158488;" d="M180.9,17.8c-0.033-0.233,0.05-0.45,0.25-0.65
		c0.2-0.167,0.467-0.283,0.8-0.35c0.767-0.1,1.216,0.117,1.35,0.65c0.034,0.233-0.05,0.45-0.25,0.65
		c-0.233,0.2-0.517,0.316-0.85,0.35c-0.333,0.066-0.617,0.033-0.85-0.1C181.083,18.217,180.933,18.033,180.9,17.8z"/>
	<path style="fill-rule:evenodd;clip-rule:evenodd;fill:#158488;" d="M218.3,11.65c-0.033-0.233,0.066-0.45,0.3-0.65
		c0.2-0.167,0.467-0.283,0.801-0.35c0.333-0.033,0.633,0,0.899,0.1c0.267,0.133,0.417,0.317,0.45,0.55
		c0.033,0.233-0.066,0.45-0.3,0.65c-0.2,0.2-0.467,0.316-0.8,0.35c-0.334,0.067-0.634,0.034-0.9-0.1
		C218.517,12.067,218.366,11.883,218.3,11.65z"/>
	<path style="fill-rule:evenodd;clip-rule:evenodd;fill:#158488;" d="M171.15,29.25c-0.033-0.233,0.05-0.45,0.25-0.65
		c0.2-0.166,0.467-0.283,0.8-0.35c0.333-0.033,0.633,0,0.9,0.1c0.267,0.134,0.417,0.317,0.45,0.551
		c0.034,0.233-0.066,0.449-0.3,0.649c-0.2,0.2-0.467,0.316-0.8,0.351c-0.333,0.066-0.617,0.033-0.85-0.101
		C171.333,29.667,171.183,29.483,171.15,29.25z"/>
	<g>
		<path style="fill-rule:evenodd;clip-rule:evenodd;fill:#158488;" d="M20.5,33.4c0,0.533-0.367,0.8-1.1,0.8s-1.1-0.25-1.1-0.75
			c-0.033-0.2,0.067-0.384,0.3-0.55c0.2-0.134,0.467-0.217,0.8-0.25c0.3,0,0.567,0.083,0.8,0.25C20.4,33.033,20.5,33.2,20.5,33.4z"
			/>
		<path style="fill-rule:evenodd;clip-rule:evenodd;fill:#158488;" d="M16.8,30.2c0,0.233-0.1,0.416-0.3,0.55
			C16.267,30.917,16,31,15.7,31c-0.767,0-1.15-0.25-1.15-0.75c0-0.467,0.367-0.733,1.1-0.8c0.3,0,0.567,0.083,0.8,0.25
			C16.683,29.833,16.8,30,16.8,30.2z"/>
		<path style="fill-rule:evenodd;clip-rule:evenodd;fill:#158488;" d="M12.35,33.25c-0.033-0.366,0.167-0.717,0.6-1.05
			c0.466-0.3,1.017-0.483,1.65-0.55c0.633-0.034,1.183,0.066,1.65,0.3S16.967,32.5,17,32.9c0.067,0.399-0.117,0.75-0.55,1.05
			c-0.434,0.333-0.983,0.517-1.65,0.55c-0.633,0.066-1.183-0.033-1.65-0.3C12.683,33.967,12.417,33.65,12.35,33.25z"/>
		<path style="fill-rule:evenodd;clip-rule:evenodd;fill:#158488;" d="M17.5,31.35c-0.067-0.433,0.2-0.683,0.8-0.75
			c0.233-0.033,0.467,0,0.7,0.101c0.2,0.1,0.317,0.233,0.35,0.399c0.033,0.167-0.033,0.334-0.2,0.5
			c-0.167,0.134-0.383,0.217-0.65,0.25c-0.233,0.067-0.45,0.034-0.65-0.1C17.65,31.65,17.533,31.517,17.5,31.35z"/>
	</g>
	<g>
		<path style="fill-rule:evenodd;clip-rule:evenodd;fill:#158488;" d="M114.35,51.5c0.033,0.2-0.067,0.384-0.3,0.55
			c-0.2,0.167-0.466,0.25-0.8,0.25c-0.3,0-0.55-0.066-0.75-0.2c-0.233-0.166-0.35-0.35-0.35-0.55c0-0.533,0.367-0.8,1.1-0.8
			c0.3,0,0.567,0.083,0.8,0.25C114.25,51.134,114.35,51.3,114.35,51.5z"/>
		<path style="fill-rule:evenodd;clip-rule:evenodd;fill:#158488;" d="M110.65,48.3c0,0.2-0.1,0.384-0.3,0.55
			c-0.233,0.167-0.5,0.25-0.8,0.25c-0.333,0-0.6-0.066-0.8-0.199c-0.233-0.167-0.35-0.351-0.35-0.551c0-0.199,0.117-0.383,0.35-0.55
			c0.2-0.166,0.45-0.25,0.75-0.25s0.567,0.084,0.8,0.25C110.533,47.934,110.65,48.1,110.65,48.3z"/>
		<path style="fill-rule:evenodd;clip-rule:evenodd;fill:#158488;" d="M106.25,51.35c-0.033-0.399,0.167-0.75,0.6-1.05
			c0.4-0.3,0.933-0.483,1.6-0.55c0.633-0.033,1.183,0.066,1.65,0.3s0.717,0.55,0.75,0.95c0.066,0.366-0.117,0.717-0.55,1.05
			c-0.466,0.334-1.017,0.517-1.65,0.55c-0.633,0.067-1.183-0.033-1.65-0.3C106.533,52.066,106.283,51.75,106.25,51.35z"/>
		<path style="fill-rule:evenodd;clip-rule:evenodd;fill:#158488;" d="M113.2,49.15c0.066,0.399-0.217,0.666-0.85,0.8
			c-0.6,0.066-0.934-0.101-1-0.5c-0.067-0.4,0.2-0.667,0.8-0.8C112.783,48.583,113.133,48.75,113.2,49.15z"/>
	</g>
	<g>
		<path style="fill-rule:evenodd;clip-rule:evenodd;fill:#158488;" d="M129.35,47.55c0.033,0.2-0.067,0.384-0.3,0.55
			c-0.2,0.134-0.466,0.2-0.8,0.2c-0.3,0.033-0.55-0.033-0.75-0.2c-0.233-0.133-0.35-0.316-0.35-0.55c0-0.2,0.117-0.366,0.35-0.5
			c0.2-0.166,0.45-0.25,0.75-0.25c0.3-0.033,0.567,0.033,0.8,0.2C129.25,47.134,129.35,47.316,129.35,47.55z"/>
		<path style="fill-rule:evenodd;clip-rule:evenodd;fill:#158488;" d="M125.65,44.35c0,0.2-0.1,0.384-0.3,0.551
			c-0.233,0.133-0.5,0.199-0.8,0.199c-0.3,0.034-0.566-0.033-0.8-0.199c-0.233-0.134-0.35-0.317-0.35-0.551
			c0-0.199,0.117-0.366,0.35-0.5c0.2-0.166,0.45-0.25,0.75-0.25c0.333-0.033,0.6,0.034,0.8,0.2
			C125.533,43.934,125.65,44.116,125.65,44.35z"/>
		<path style="fill-rule:evenodd;clip-rule:evenodd;fill:#158488;" d="M122,48.3c-0.467-0.233-0.717-0.55-0.75-0.95
			c-0.033-0.366,0.167-0.716,0.6-1.05c0.433-0.3,0.967-0.467,1.6-0.5s1.2,0.066,1.7,0.3c0.467,0.233,0.717,0.534,0.75,0.9
			c0.033,0.4-0.167,0.75-0.6,1.05c-0.433,0.334-0.983,0.517-1.65,0.55C123.017,48.667,122.467,48.566,122,48.3z"/>
		<path style="fill-rule:evenodd;clip-rule:evenodd;fill:#158488;" d="M126.35,45.45c-0.033-0.167,0.033-0.334,0.2-0.5
			c0.167-0.134,0.367-0.217,0.6-0.25c0.633-0.101,0.983,0.066,1.05,0.5c0.066,0.434-0.217,0.684-0.85,0.75
			c-0.233,0.066-0.45,0.033-0.65-0.101C126.5,45.75,126.383,45.616,126.35,45.45z"/>
	</g>
	<g>
		<path style="fill-rule:evenodd;clip-rule:evenodd;fill:#158488;" d="M232.5,48.1c0,0.467-0.366,0.733-1.1,0.801
			c-0.301,0-0.551-0.067-0.75-0.2c-0.233-0.167-0.351-0.351-0.351-0.55c-0.033-0.233,0.066-0.417,0.3-0.551
			c0.2-0.166,0.467-0.25,0.801-0.25C232.134,47.35,232.5,47.6,232.5,48.1z"/>
		<path style="fill-rule:evenodd;clip-rule:evenodd;fill:#158488;" d="M228.8,44.9c0,0.466-0.366,0.733-1.1,0.8
			c-0.334,0-0.601-0.066-0.8-0.2c-0.233-0.167-0.351-0.35-0.351-0.55c0-0.233,0.117-0.417,0.351-0.55
			c0.199-0.167,0.449-0.25,0.75-0.25C228.35,44.15,228.733,44.4,228.8,44.9z"/>
		<path style="fill-rule:evenodd;clip-rule:evenodd;fill:#158488;" d="M224.35,47.95c-0.033-0.4,0.167-0.75,0.601-1.05
			c0.434-0.301,0.983-0.483,1.649-0.551c0.634-0.033,1.184,0.067,1.65,0.301s0.717,0.55,0.75,0.949
			c0.066,0.367-0.116,0.717-0.55,1.051c-0.467,0.333-1.017,0.517-1.65,0.55c-0.633,0.066-1.184-0.033-1.649-0.3
			C224.684,48.667,224.417,48.35,224.35,47.95z"/>
		<path style="fill-rule:evenodd;clip-rule:evenodd;fill:#158488;" d="M229.5,46.05c-0.1-0.399,0.167-0.666,0.8-0.8
			c0.634-0.066,0.983,0.1,1.05,0.5c0.067,0.4-0.216,0.667-0.85,0.8C229.9,46.616,229.566,46.45,229.5,46.05z"/>
	</g>
	<g>
		<path style="fill-rule:evenodd;clip-rule:evenodd;fill:#158488;" d="M291,6.4c0,0.467-0.366,0.733-1.1,0.8
			c-0.301,0-0.567-0.067-0.801-0.2c-0.199-0.167-0.316-0.35-0.35-0.55c0-0.233,0.116-0.417,0.35-0.55c0.2-0.167,0.45-0.25,0.75-0.25
			C290.616,5.65,291,5.9,291,6.4z"/>
		<path style="fill-rule:evenodd;clip-rule:evenodd;fill:#158488;" d="M287.25,3.2c0.066,0.466-0.3,0.733-1.1,0.8
			c-0.301,0-0.551-0.067-0.75-0.2c-0.233-0.167-0.351-0.35-0.351-0.55c0-0.233,0.117-0.417,0.351-0.55
			c0.199-0.167,0.449-0.25,0.75-0.25C286.884,2.45,287.25,2.7,287.25,3.2z"/>
		<path style="fill-rule:evenodd;clip-rule:evenodd;fill:#158488;" d="M283.6,7.2c-0.466-0.267-0.716-0.583-0.75-0.95
			c-0.033-0.4,0.167-0.75,0.601-1.05c0.434-0.3,0.967-0.483,1.6-0.55c0.667-0.033,1.233,0.067,1.7,0.3
			c0.467,0.233,0.717,0.55,0.75,0.95c0.033,0.367-0.167,0.717-0.6,1.05c-0.434,0.333-0.967,0.517-1.601,0.55
			C284.667,7.567,284.1,7.467,283.6,7.2z"/>
		<path style="fill-rule:evenodd;clip-rule:evenodd;fill:#158488;" d="M287.95,4.35c-0.066-0.4,0.217-0.667,0.85-0.8
			c0.601-0.066,0.95,0.1,1.05,0.5c0.067,0.4-0.216,0.667-0.85,0.8C288.366,4.917,288.017,4.75,287.95,4.35z"/>
	</g>
	<g>
		<path style="fill-rule:evenodd;clip-rule:evenodd;fill:#158488;" d="M356.3,26.25c0,0.233-0.1,0.417-0.3,0.55
			c-0.233,0.167-0.5,0.25-0.8,0.25c-0.767,0-1.15-0.25-1.15-0.75c0-0.466,0.367-0.733,1.101-0.8c0.333,0,0.6,0.083,0.8,0.25
			C356.184,25.883,356.3,26.05,356.3,26.25z"/>
		<path style="fill-rule:evenodd;clip-rule:evenodd;fill:#158488;" d="M352.55,23.05c0.033,0.233-0.066,0.417-0.3,0.55
			c-0.2,0.167-0.467,0.25-0.8,0.25c-0.733,0-1.101-0.25-1.101-0.75c0-0.467,0.367-0.733,1.101-0.8c0.3,0,0.566,0.083,0.8,0.25
			C352.45,22.683,352.55,22.85,352.55,23.05z"/>
		<path style="fill-rule:evenodd;clip-rule:evenodd;fill:#158488;" d="M348.15,26.1c-0.034-0.4,0.166-0.75,0.6-1.05
			c0.434-0.3,0.967-0.483,1.6-0.55c0.667-0.033,1.233,0.067,1.7,0.3c0.467,0.233,0.717,0.55,0.75,0.95s-0.166,0.75-0.6,1.05
			c-0.434,0.333-0.967,0.517-1.601,0.55c-0.666,0.066-1.233-0.033-1.699-0.3C348.434,26.817,348.184,26.5,348.15,26.1z"/>
		<path style="fill-rule:evenodd;clip-rule:evenodd;fill:#158488;" d="M353.25,24.2c-0.033-0.167,0.033-0.333,0.2-0.5
			c0.2-0.133,0.416-0.217,0.649-0.25c0.233-0.034,0.45,0,0.65,0.1c0.2,0.1,0.316,0.233,0.35,0.4c0.067,0.167,0.017,0.333-0.149,0.5
			c-0.167,0.133-0.384,0.216-0.65,0.25c-0.233,0.066-0.467,0.033-0.7-0.1C353.4,24.5,353.283,24.367,353.25,24.2z"/>
	</g>
	<g>
		<path style="fill-rule:evenodd;clip-rule:evenodd;fill:#158488;" d="M375.4,43.5c0,0.2-0.101,0.384-0.301,0.55
			c-0.233,0.134-0.5,0.2-0.8,0.2c-0.3,0.033-0.566-0.033-0.8-0.2c-0.233-0.133-0.35-0.3-0.35-0.5c0-0.233,0.116-0.416,0.35-0.55
			c0.2-0.167,0.45-0.25,0.75-0.25C374.95,42.75,375.333,43,375.4,43.5z"/>
		<path style="fill-rule:evenodd;clip-rule:evenodd;fill:#158488;" d="M371.65,40.3c0,0.2-0.101,0.384-0.301,0.55
			c-0.233,0.134-0.5,0.2-0.8,0.2c-0.3,0.033-0.566-0.033-0.8-0.2c-0.2-0.133-0.316-0.3-0.35-0.5c0-0.233,0.116-0.416,0.35-0.55
			c0.2-0.166,0.45-0.25,0.75-0.25C371.267,39.55,371.65,39.8,371.65,40.3z"/>
		<path style="fill-rule:evenodd;clip-rule:evenodd;fill:#158488;" d="M367.25,43.35c-0.033-0.399,0.167-0.75,0.6-1.05
			c0.434-0.3,0.967-0.483,1.601-0.55c0.633-0.033,1.2,0.066,1.7,0.3c0.466,0.233,0.716,0.533,0.75,0.9
			c0.033,0.399-0.167,0.75-0.601,1.05c-0.434,0.333-0.967,0.517-1.6,0.55c-0.634,0.066-1.2-0.033-1.7-0.3
			C367.533,44.017,367.283,43.717,367.25,43.35z"/>
		<path style="fill-rule:evenodd;clip-rule:evenodd;fill:#158488;" d="M372.35,41.45c-0.066-0.434,0.217-0.7,0.851-0.8
			c0.6-0.067,0.934,0.1,1,0.5c0.066,0.433-0.217,0.699-0.851,0.8C372.75,42.017,372.417,41.85,372.35,41.45z"/>
	</g>
	<path style="fill-rule:evenodd;clip-rule:evenodd;fill:#158488;" d="M114.95,20.9c-0.034-0.233,0.05-0.45,0.25-0.65
		c0.2-0.167,0.466-0.283,0.8-0.35c0.767-0.1,1.217,0.117,1.35,0.65c0.033,0.233-0.05,0.45-0.25,0.65
		c-0.233,0.2-0.517,0.316-0.85,0.35c-0.333,0.067-0.617,0.034-0.85-0.1C115.133,21.317,114.983,21.133,114.95,20.9z"/>
	<path style="fill-rule:evenodd;clip-rule:evenodd;fill:#158488;" d="M150.75,16.55c-0.033-0.233,0.05-0.45,0.25-0.65
		c0.233-0.167,0.517-0.283,0.85-0.35c0.333-0.033,0.633,0,0.9,0.1c0.233,0.133,0.367,0.317,0.4,0.55
		c0.033,0.233-0.05,0.45-0.25,0.65c-0.2,0.2-0.467,0.316-0.8,0.35c-0.333,0.066-0.633,0.033-0.9-0.1
		C150.933,16.967,150.783,16.783,150.75,16.55z"/>
	<path style="fill-rule:evenodd;clip-rule:evenodd;fill:#158488;" d="M339,29.4c-0.033-0.233,0.05-0.45,0.25-0.65
		c0.233-0.167,0.517-0.283,0.85-0.35c0.334-0.034,0.634,0,0.9,0.1c0.233,0.134,0.366,0.316,0.4,0.55
		c0.066,0.233-0.017,0.45-0.25,0.65c-0.2,0.2-0.467,0.316-0.801,0.35C339.583,30.15,339.134,29.934,339,29.4z"/>
	<path style="fill-rule:evenodd;clip-rule:evenodd;fill:#158488;" d="M292.7,39.2c0.066-0.5,0.5-0.9,1.3-1.2s1.75-0.4,2.85-0.3
		c1.101,0.1,2.017,0.366,2.75,0.8c0.767,0.434,1.117,0.917,1.051,1.45c-0.034,0.533-0.467,0.934-1.301,1.2
		c-0.8,0.3-1.75,0.399-2.85,0.3c-1.1-0.101-2.017-0.367-2.75-0.8C293.017,40.217,292.667,39.733,292.7,39.2z"/>
	<path style="fill-rule:evenodd;clip-rule:evenodd;fill:#158488;" d="M217.85,37.65c-0.033-0.601,0.334-1.117,1.101-1.551
		c0.733-0.433,1.649-0.683,2.75-0.75c1.1-0.066,2.05,0.084,2.85,0.45c0.8,0.4,1.217,0.884,1.25,1.45c0.033,0.6-0.333,1.116-1.1,1.55
		c-0.767,0.467-1.7,0.717-2.8,0.75c-1.067,0.066-2-0.1-2.801-0.5C218.3,38.684,217.884,38.217,217.85,37.65z"/>
	<path style="fill-rule:evenodd;clip-rule:evenodd;fill:#158488;" d="M328.5,29.7c0-0.533,0.384-0.983,1.15-1.351
		c0.767-0.366,1.716-0.55,2.85-0.55c1.1,0,2.05,0.184,2.85,0.55c0.767,0.334,1.15,0.767,1.15,1.301c0,0.533-0.384,0.983-1.15,1.35
		c-0.8,0.366-1.75,0.55-2.85,0.55s-2.033-0.184-2.8-0.55C328.9,30.634,328.5,30.2,328.5,29.7z"/>
	<path style="fill-rule:evenodd;clip-rule:evenodd;fill:#158488;" d="M287.6,31.1c0.067-0.366,0.301-0.633,0.7-0.8
		c0.4-0.2,0.867-0.267,1.4-0.2c0.533,0.067,0.967,0.233,1.3,0.5c0.366,0.301,0.517,0.617,0.45,0.95
		c-0.033,0.334-0.25,0.617-0.65,0.851c-0.399,0.199-0.866,0.267-1.399,0.199c-0.567-0.066-1.017-0.25-1.351-0.55
		C287.717,31.75,287.566,31.434,287.6,31.1z"/>
	<path style="fill-rule:evenodd;clip-rule:evenodd;fill:#158488;" d="M271.7,27.75c0.1-0.433,0.399-0.767,0.899-1
		c0.534-0.233,1.117-0.283,1.75-0.15c0.634,0.1,1.15,0.35,1.551,0.75c0.399,0.367,0.566,0.784,0.5,1.25
		c-0.067,0.434-0.367,0.767-0.9,1c-0.5,0.233-1.083,0.301-1.75,0.2c-0.634-0.133-1.15-0.399-1.55-0.8
		C271.8,28.6,271.634,28.184,271.7,27.75z"/>
	<path style="fill-rule:evenodd;clip-rule:evenodd;fill:#158488;" d="M257.85,33.6c0.067-0.366,0.317-0.633,0.75-0.8
		c0.434-0.166,0.917-0.2,1.45-0.1c0.533,0.1,0.967,0.3,1.3,0.6c0.334,0.334,0.467,0.667,0.4,1c-0.033,0.334-0.267,0.584-0.7,0.75
		c-0.434,0.167-0.916,0.2-1.45,0.101c-0.533-0.067-0.966-0.267-1.3-0.601C257.934,34.25,257.783,33.934,257.85,33.6z"/>
	<path style="fill-rule:evenodd;clip-rule:evenodd;fill:#158488;" d="M121.7,39.45c-0.434,0.166-0.917,0.2-1.45,0.1
		c-0.533-0.1-0.967-0.3-1.3-0.6c-0.333-0.3-0.467-0.634-0.4-1c0.067-0.334,0.3-0.584,0.7-0.75c0.433-0.167,0.917-0.2,1.45-0.101
		c0.533,0.067,0.966,0.267,1.3,0.601c0.333,0.3,0.467,0.616,0.4,0.95C122.367,38.983,122.133,39.25,121.7,39.45z"/>
	<path style="fill-rule:evenodd;clip-rule:evenodd;fill:#158488;" d="M233.55,5c0.066-0.267,0.267-0.483,0.601-0.65
		c0.366-0.133,0.783-0.167,1.25-0.1c0.466,0.067,0.833,0.233,1.1,0.5c0.3,0.267,0.417,0.55,0.35,0.85
		c-0.033,0.3-0.233,0.517-0.6,0.65s-0.783,0.167-1.25,0.1c-0.434-0.067-0.8-0.233-1.1-0.5C233.634,5.583,233.517,5.3,233.55,5z"/>
	<path style="fill-rule:evenodd;clip-rule:evenodd;fill:#158488;" d="M235.85,9.45c0.067-0.333,0.301-0.583,0.7-0.75
		c0.434-0.167,0.917-0.217,1.45-0.15c0.566,0.1,1,0.3,1.3,0.6c0.334,0.333,0.467,0.667,0.4,1c-0.033,0.367-0.267,0.633-0.7,0.8
		c-0.4,0.167-0.884,0.2-1.45,0.1c-0.533-0.1-0.967-0.3-1.3-0.6C235.917,10.117,235.783,9.783,235.85,9.45z"/>
	<path style="fill-rule:evenodd;clip-rule:evenodd;fill:#158488;" d="M218.7,32.05c-0.033-0.366,0.116-0.7,0.45-1
		c0.333-0.3,0.767-0.5,1.3-0.6c0.533-0.101,1.017-0.066,1.45,0.1c0.433,0.2,0.666,0.467,0.699,0.8
		c0.067,0.334-0.066,0.65-0.399,0.95c-0.334,0.334-0.767,0.533-1.3,0.601c-0.534,0.1-1.017,0.066-1.45-0.101
		C219.017,32.634,218.767,32.384,218.7,32.05z"/>
	<path style="fill-rule:evenodd;clip-rule:evenodd;fill:#158488;" d="M143.4,30.85c-0.066-0.333,0.067-0.666,0.4-1
		c0.333-0.3,0.767-0.5,1.3-0.6s1.017-0.066,1.45,0.1c0.434,0.2,0.667,0.467,0.7,0.801c0.067,0.333-0.067,0.649-0.4,0.949
		c-0.333,0.334-0.767,0.534-1.3,0.601c-0.533,0.1-1.017,0.066-1.45-0.101C143.7,31.434,143.467,31.184,143.4,30.85z"/>
	<g>
		<path style="fill-rule:evenodd;clip-rule:evenodd;fill:#158488;" d="M284.65,35.35c0.1,0.334,0.083,0.584-0.051,0.75
			c-0.3,0.434-0.767,0.634-1.399,0.601c-1.033-0.033-1.617-0.033-1.75,0c0.133,0.033,0.467,0.1,1,0.2c0.434,0.1,0.75,0.199,0.95,0.3
			h-0.5c0.8,0.066,1.083,0.483,0.85,1.25c-0.134,0.434-0.366,0.967-0.7,1.6c0.101-0.1,0.267-0.316,0.5-0.649
			c0.2-0.267,0.384-0.45,0.55-0.551c0.2-0.133,0.5-0.216,0.9-0.25c0.467-0.066,0.7,0.017,0.7,0.25l0.1-0.35
			c0.367,0.2,0.834,0.566,1.4,1.1c-0.434-0.5-0.7-0.866-0.8-1.1c-0.067-0.2-0.067-0.5,0-0.9c0.1-0.433,0.233-0.716,0.399-0.85
			c0.101-0.066,0.384-0.184,0.851-0.35c0.323-0.125,0.557-0.2,0.699-0.226c-0.619,0.085-1.103,0.144-1.449,0.175
			c-0.733,0.134-1.267-0.05-1.601-0.55c-0.333-0.6-0.633-1.017-0.899-1.25C284.434,34.717,284.517,34.983,284.65,35.35z M284.2,33.3
			c0.7-0.033,1.283,0.134,1.75,0.5c0.533,0.4,0.7,0.934,0.5,1.601c0.7-0.567,1.45-0.75,2.25-0.551
			c0.733,0.134,1.267,0.483,1.6,1.051c0.367,0.533,0.334,1-0.1,1.399c-0.533,0.467-1.5,0.65-2.9,0.55
			c2.5,1.367,2.967,2.384,1.4,3.051c-0.601,0.233-1.233,0.25-1.9,0.05c-0.8-0.233-1.333-0.684-1.6-1.351
			c0.066,0.567-0.084,1.017-0.45,1.351c-0.434,0.434-1.066,0.566-1.9,0.399c-0.833-0.199-1.383-0.55-1.649-1.05
			c-0.334-0.633,0.017-1.3,1.05-2c-2.233-0.066-3.05-0.783-2.45-2.149c0.601-1.301,1.867-1.417,3.8-0.351
			c-0.733-0.733-0.983-1.35-0.75-1.85C283.017,33.55,283.467,33.333,284.2,33.3z"/>
		<path style="fill-rule:evenodd;clip-rule:evenodd;fill:#158488;" d="M285,38c-0.5-0.066-0.717-0.283-0.65-0.65
			c0.067-0.399,0.334-0.566,0.801-0.5c0.5,0.067,0.716,0.284,0.649,0.65c0,0.167-0.083,0.3-0.25,0.4C285.384,38,285.2,38.033,285,38
			z"/>
	</g>
	<g>
		<path style="fill-rule:evenodd;clip-rule:evenodd;fill:#158488;" d="M243.95,30.8c0.6-1,1.583-0.983,2.95,0.05
			c-1.034-1.366-0.801-2.017,0.699-1.949c1.534,0.1,2.051,0.716,1.551,1.85c1.333-0.866,2.316-0.634,2.949,0.7
			c0.567,1.267-0.283,1.7-2.55,1.3c1.8,1.3,2.066,2.134,0.8,2.5c-1.333,0.4-2.183-0.033-2.55-1.3c-0.033,0.434-0.2,0.783-0.5,1.05
			c-0.366,0.267-0.866,0.3-1.5,0.1c-0.6-0.199-0.983-0.517-1.149-0.949c-0.233-0.534,0.083-1.017,0.949-1.45
			C243.9,32.434,243.35,31.8,243.95,30.8z M247.65,29.9c0,0.133,0.033,0.35,0.1,0.649c0.066,0.267,0.033,0.467-0.1,0.601
			c-0.267,0.3-0.634,0.416-1.101,0.35c-0.8-0.1-1.267-0.15-1.399-0.15c0.866,0.301,1.35,0.483,1.449,0.551l-0.35-0.051
			c0.6,0.134,0.783,0.483,0.55,1.051c-0.133,0.333-0.366,0.733-0.7,1.199c0.101-0.066,0.25-0.216,0.45-0.449
			c0.167-0.2,0.316-0.334,0.45-0.4c0.167-0.066,0.4-0.116,0.7-0.15c0.399,0,0.583,0.101,0.55,0.301l0.1-0.301
			c0.267,0.2,0.601,0.534,1,1L248.8,33.2c-0.033-0.2,0-0.45,0.101-0.75c0.133-0.334,0.267-0.533,0.399-0.601
			c0.066-0.033,0.283-0.1,0.65-0.199c0.366-0.101,0.583-0.15,0.649-0.15c-0.166-0.033-0.366-0.033-0.6,0
			c-0.3,0.033-0.5,0.05-0.6,0.05c-0.567,0.033-0.967-0.166-1.2-0.6C248.033,30.45,247.85,30.1,247.65,29.9z"/>
		<path style="fill-rule:evenodd;clip-rule:evenodd;fill:#158488;" d="M247.8,32.65c-0.133-0.034-0.25-0.101-0.35-0.2
			c-0.101-0.134-0.134-0.25-0.101-0.351c0.067-0.3,0.284-0.416,0.65-0.35c0.366,0.134,0.517,0.333,0.45,0.6
			S248.167,32.717,247.8,32.65z"/>
	</g>
	<g>
		<path style="fill-rule:evenodd;clip-rule:evenodd;fill:#158488;" d="M319.3,26.45c0.566-1,1.283-1.184,2.15-0.55
			c0.833,0.567,0.45,1.117-1.15,1.65c1.601,0.2,2.066,0.634,1.4,1.3c-0.733,0.7-1.434,0.717-2.101,0.051
			c0.134,0.267,0.15,0.533,0.051,0.8c-0.134,0.3-0.434,0.5-0.9,0.6c-0.467,0.066-0.833,0-1.1-0.2c-0.334-0.267-0.301-0.683,0.1-1.25
			c-1.167,0.4-1.733,0.184-1.7-0.649c0.033-0.8,0.667-1.117,1.9-0.95c-1.134-0.5-1.217-0.983-0.25-1.45
			C318.7,25.367,319.233,25.583,319.3,26.45z M319.8,27.05l0.75-0.65l-0.75,0.45c-0.366,0.2-0.7,0.217-1,0.05
			c-0.3-0.267-0.55-0.433-0.75-0.5c0.066,0.1,0.167,0.233,0.3,0.4c0.134,0.133,0.184,0.267,0.15,0.4
			c-0.066,0.3-0.267,0.517-0.6,0.65c-0.4,0.1-0.7,0.2-0.9,0.3c0.233,0,0.6-0.034,1.1-0.101l-0.25,0.101
			c0.434-0.134,0.684,0.017,0.75,0.449c0,0.233-0.017,0.551-0.05,0.95c0.101-0.166,0.2-0.434,0.3-0.8c0.067-0.1,0.2-0.217,0.4-0.35
			c0.233-0.134,0.384-0.134,0.45,0l-0.05-0.2l0.949,0.25c-0.333-0.134-0.55-0.267-0.649-0.4c-0.066-0.066-0.134-0.216-0.2-0.45
			C319.717,27.367,319.733,27.183,319.8,27.05z"/>
		<path style="fill-rule:evenodd;clip-rule:evenodd;fill:#158488;" d="M319.15,28.1c-0.267,0.067-0.434,0-0.5-0.2
			c-0.034-0.167,0.066-0.316,0.3-0.45c0.267-0.067,0.434,0,0.5,0.2C319.517,27.883,319.417,28.033,319.15,28.1z"/>
	</g>
	<g>
		<path style="fill-rule:evenodd;clip-rule:evenodd;fill:#158488;" d="M202.6,42.75c0.233,0.066,0.601,0.15,1.101,0.25h-0.226
			c0.448,0.01,0.623,0.227,0.525,0.65c-0.066,0.267-0.167,0.583-0.3,0.949c0.133-0.166,0.3-0.416,0.5-0.75
			c0.133-0.1,0.3-0.166,0.5-0.199c0.267-0.067,0.399-0.017,0.399,0.149l0.051-0.2L206,44.15c-0.3-0.267-0.467-0.467-0.5-0.601
			c-0.066-0.1-0.083-0.267-0.05-0.5s0.1-0.399,0.2-0.5c0.033-0.033,0.166-0.1,0.399-0.2c0.162-0.08,0.287-0.139,0.375-0.175
			c-0.334,0.087-0.576,0.146-0.725,0.175c-0.434,0.101-0.767,0.017-1-0.25c-0.2-0.333-0.384-0.55-0.55-0.649l0.199,0.45
			c0.067,0.166,0.067,0.3,0,0.399c-0.166,0.267-0.416,0.4-0.75,0.4C203.2,42.7,202.866,42.717,202.6,42.75z M203.8,42.2
			c-0.934-0.834-0.866-1.316,0.2-1.45c1.1-0.167,1.55,0.184,1.35,1.05c0.834-0.767,1.567-0.733,2.2,0.101
			c0.601,0.8,0.066,1.216-1.6,1.25c1.467,0.666,1.767,1.216,0.899,1.649c-0.899,0.467-1.566,0.283-2-0.55
			c0.067,0.3,0,0.55-0.199,0.75c-0.233,0.267-0.584,0.366-1.051,0.3c-0.466-0.033-0.783-0.184-0.949-0.45
			c-0.233-0.366-0.067-0.767,0.5-1.199c-1.267,0.066-1.75-0.301-1.45-1.101C201.967,41.783,202.667,41.667,203.8,42.2z"/>
		<path style="fill-rule:evenodd;clip-rule:evenodd;fill:#158488;" d="M204.7,43.35c-0.3,0-0.45-0.116-0.45-0.35
			c0.066-0.2,0.217-0.3,0.45-0.3c0.267,0,0.399,0.116,0.399,0.35C205.1,43.25,204.967,43.35,204.7,43.35z"/>
	</g>
	<g>
		<path style="fill-rule:evenodd;clip-rule:evenodd;fill:#158488;" d="M210.55,24.8c-0.833-0.933-0.7-1.4,0.4-1.4
			c1.1,0,1.5,0.417,1.2,1.25c0.933-0.667,1.666-0.55,2.199,0.35c0.5,0.9-0.1,1.25-1.8,1.05c1.367,0.833,1.601,1.417,0.7,1.75
			c-0.934,0.367-1.566,0.1-1.9-0.8c0,0.3-0.1,0.55-0.3,0.75c-0.233,0.2-0.583,0.25-1.05,0.15c-0.467-0.133-0.767-0.333-0.9-0.6
			c-0.199-0.367,0-0.733,0.601-1.1c-1.233-0.133-1.667-0.567-1.3-1.3C208.767,24.167,209.483,24.133,210.55,24.8z M211.05,24.1
			l0.101,0.45c0.033,0.2,0.017,0.35-0.051,0.45c-0.199,0.233-0.466,0.333-0.8,0.3c-0.6-0.033-0.934-0.05-1-0.05
			c0.667,0.2,1.033,0.317,1.101,0.35H210.1c0.467,0.033,0.617,0.267,0.45,0.7c-0.066,0.233-0.2,0.517-0.399,0.85
			c0.133-0.1,0.333-0.3,0.6-0.6c0.1-0.066,0.283-0.117,0.55-0.15s0.384,0.033,0.351,0.2l0.05-0.2c0.133,0.067,0.383,0.283,0.75,0.65
			c-0.233-0.3-0.367-0.517-0.4-0.65s-0.017-0.316,0.05-0.55c0.067-0.233,0.15-0.383,0.25-0.45c0.203-0.101,0.378-0.176,0.525-0.225
			c-0.193,0.017-0.353,0.025-0.475,0.025c-0.434,0.033-0.733-0.083-0.9-0.35C211.333,24.483,211.184,24.233,211.05,24.1z"/>
		<path style="fill-rule:evenodd;clip-rule:evenodd;fill:#158488;" d="M211.3,26.05c-0.3,0-0.416-0.117-0.35-0.35
			c0-0.233,0.149-0.317,0.45-0.25c0.1,0,0.183,0.033,0.25,0.1c0.1,0.1,0.133,0.184,0.1,0.25
			C211.684,26.033,211.533,26.117,211.3,26.05z"/>
	</g>
	<g>
		<g>
			<path style="fill-rule:evenodd;clip-rule:evenodd;fill:#158488;" d="M131.45,31.4c-0.534,0-1,0.1-1.4,0.3
				c-0.7-0.9-0.883-1.667-0.55-2.3c0.267-0.534,0.783-0.817,1.55-0.851c0.767-0.066,1.35,0.167,1.75,0.7
				c0.434,0.566,0.4,1.35-0.1,2.35C132.233,31.434,131.817,31.366,131.45,31.4z"/>
			<path style="fill-rule:evenodd;clip-rule:evenodd;fill:#158488;" d="M128.75,33.55c-1.333,0-2.267-0.25-2.8-0.75
				c-0.467-0.467-0.534-0.95-0.2-1.45c0.333-0.533,0.883-0.8,1.65-0.8c0.867-0.033,1.733,0.351,2.6,1.15
				c-0.867,0.467-1.283,1.066-1.25,1.8V33.55z"/>
			<path style="fill-rule:evenodd;clip-rule:evenodd;fill:#158488;" d="M134.15,33.2c-0.1-0.733-0.583-1.267-1.45-1.601
				c0.7-0.933,1.483-1.466,2.35-1.6c0.767-0.1,1.383,0.083,1.85,0.55c0.434,0.5,0.45,1,0.05,1.5
				C136.517,32.65,135.583,33.033,134.15,33.2z"/>
			<path style="fill-rule:evenodd;clip-rule:evenodd;fill:#158488;" d="M131.5,35.5c0.533,0,1.067-0.15,1.6-0.45
				c0.7,0.9,0.9,1.667,0.6,2.3c-0.267,0.534-0.784,0.834-1.55,0.9s-1.35-0.15-1.75-0.65c-0.467-0.533-0.467-1.283,0-2.25L131.5,35.5
				z"/>
			<path style="fill-rule:evenodd;clip-rule:evenodd;fill:#158488;" d="M128.75,33.6c0.1,0.801,0.633,1.367,1.6,1.7
				c-0.667,0.9-1.434,1.4-2.3,1.5c-0.733,0.066-1.316-0.133-1.75-0.6c-0.433-0.467-0.483-0.95-0.15-1.45
				C126.55,34.184,127.417,33.8,128.75,33.6z"/>
			<path style="fill-rule:evenodd;clip-rule:evenodd;fill:#158488;" d="M134.15,33.2c1.434-0.033,2.434,0.217,3,0.75
				c0.5,0.434,0.6,0.916,0.3,1.45c-0.333,0.533-0.883,0.816-1.65,0.85c-0.867,0-1.75-0.4-2.65-1.2c0.7-0.434,1.05-0.983,1.05-1.649
				L134.15,33.2z"/>
		</g>
		<path style="fill-rule:evenodd;clip-rule:evenodd;fill:#158488;" d="M131.7,34.6c0,0.367-0.25,0.551-0.75,0.551
			s-0.75-0.184-0.75-0.551c0-0.333,0.25-0.533,0.75-0.6C131.45,34,131.7,34.2,131.7,34.6z"/>
		<path style="fill-rule:evenodd;clip-rule:evenodd;fill:#158488;" d="M133.6,34.2c0,0.366-0.25,0.55-0.75,0.55
			s-0.75-0.184-0.75-0.55c0-0.334,0.25-0.533,0.75-0.601C133.35,33.6,133.6,33.8,133.6,34.2z"/>
		<path style="fill-rule:evenodd;clip-rule:evenodd;fill:#158488;" d="M133.65,32.7c0,0.366-0.25,0.55-0.75,0.55
			c-0.533,0-0.8-0.184-0.8-0.55c0-0.167,0.083-0.3,0.25-0.4c0.133-0.133,0.3-0.2,0.5-0.2C133.317,32.1,133.583,32.3,133.65,32.7z"/>
		<path style="fill-rule:evenodd;clip-rule:evenodd;fill:#158488;" d="M131.8,32.25c0,0.167-0.066,0.3-0.2,0.4
			c-0.167,0.133-0.35,0.199-0.55,0.199c-0.533,0-0.8-0.183-0.8-0.55c0-0.399,0.25-0.6,0.75-0.6
			C131.467,31.7,131.733,31.884,131.8,32.25z"/>
		<path style="fill-rule:evenodd;clip-rule:evenodd;fill:#158488;" d="M130.55,33.4c0,0.366-0.25,0.55-0.75,0.55
			s-0.75-0.184-0.75-0.55c0-0.334,0.25-0.534,0.75-0.601C130.3,32.8,130.55,33,130.55,33.4z"/>
		<path style="fill-rule:evenodd;clip-rule:evenodd;fill:#158488;" d="M129.25,38.2c-0.2,0.267-0.45,0.316-0.75,0.149
			c-0.333-0.133-0.417-0.3-0.25-0.5l1.4-1.199C129.45,37.583,129.317,38.1,129.25,38.2z"/>
		<path style="fill-rule:evenodd;clip-rule:evenodd;fill:#158488;" d="M138.15,32.45c0.333,0,0.533,0.133,0.6,0.399
			c0.067,0.233-0.067,0.384-0.4,0.45l-2.1-0.2L138.15,32.45z"/>
		<path style="fill-rule:evenodd;clip-rule:evenodd;fill:#158488;" d="M127.25,29.55c-0.233-0.166-0.2-0.35,0.1-0.55
			c0.267-0.167,0.517-0.167,0.75,0c0.133,0.1,0.433,0.583,0.9,1.45L127.25,29.55z"/>
	</g>
	<g>
		
			<use xlink:href="#flash0.ai_x2F_Layer_3_x2F__x3C_Path_x3E__x5F_1"  width="15.2" height="5.1" y="-5.1" transform="matrix(1 0 0 -1 37.1001 38.2998)" style="overflow:visible;opacity:0.4414;enable-background:new    ;"/>
		
			<radialGradient id="SVGID_13_" cx="44.5" cy="36.7002" r="11.8125" gradientTransform="matrix(1 0 0 -0.5989 0 58.6815)" gradientUnits="userSpaceOnUse">
			<stop  offset="0" style="stop-color:#81C48F"/>
			<stop  offset="0.2078" style="stop-color:#4BABA7"/>
			<stop  offset="0.5922" style="stop-color:#217387"/>
			<stop  offset="1" style="stop-color:#00140C"/>
		</radialGradient>
		<path style="fill-rule:evenodd;clip-rule:evenodd;fill:url(#SVGID_13_);" d="M50.3,40.65c0,0.533-0.566,0.983-1.7,1.35
			c-1.167,0.366-2.567,0.55-4.2,0.55s-3.017-0.184-4.15-0.55s-1.7-0.816-1.7-1.35c0-0.5,0.567-0.934,1.7-1.301
			c1.167-0.366,2.55-0.55,4.15-0.55c1.633,0,3.033,0.184,4.2,0.55C49.733,39.717,50.3,40.15,50.3,40.65z"/>
		
			<use xlink:href="#flash0.ai_x2F_Layer_3_x2F__x3C_Clip_Group_0_x3E_"  width="11.75" height="5.05" y="-5.05" transform="matrix(1 0 0 -1 38.5498 38.7998)" style="overflow:visible;"/>
	</g>
	<g>
		
			<use xlink:href="#flash0.ai_x2F_Layer_3_x2F__x3C_Path_x3E__x5F_1_x5F_0"  width="19.9" height="6.65" y="-6.65" transform="matrix(1 0 0 -1 178.0498 48)" style="overflow:visible;opacity:0.4414;enable-background:new    ;"/>
		
			<radialGradient id="SVGID_14_" cx="187.75" cy="45.9004" r="15.5" gradientTransform="matrix(1 0 0 -0.5992 0 73.4036)" gradientUnits="userSpaceOnUse">
			<stop  offset="0" style="stop-color:#81C48F"/>
			<stop  offset="0.2078" style="stop-color:#4BABA7"/>
			<stop  offset="0.5922" style="stop-color:#217387"/>
			<stop  offset="1" style="stop-color:#00140C"/>
		</radialGradient>
		<path style="fill-rule:evenodd;clip-rule:evenodd;fill:url(#SVGID_14_);" d="M193.1,49.35c1.534,0.5,2.301,1.084,2.301,1.75
			c0,0.667-0.767,1.25-2.301,1.75c-1.5,0.467-3.316,0.7-5.449,0.7c-2.134,0-3.967-0.233-5.5-0.7c-1.5-0.5-2.25-1.083-2.25-1.75
			c0-0.666,0.75-1.25,2.25-1.75c1.533-0.466,3.367-0.699,5.5-0.699C189.783,48.65,191.6,48.884,193.1,49.35z"/>
		
			<use xlink:href="#flash0.ai_x2F_Layer_3_x2F__x3C_Clip_Group_0_x3E__x5F_0"  width="15.5" height="6.65" y="-6.65" transform="matrix(1 0 0 -1 179.8999 48.6504)" style="overflow:visible;"/>
	</g>
	<g>
		
			<use xlink:href="#flash0.ai_x2F_Layer_3_x2F__x3C_Path_x3E__x5F_1_x5F_1"  width="15.6" height="5.2" y="-5.2" transform="matrix(1 0 0 -1 262.5996 42.5)" style="overflow:visible;opacity:0.4414;enable-background:new    ;"/>
		
			<radialGradient id="SVGID_15_" cx="270.2002" cy="40.7998" r="12.125" gradientTransform="matrix(1 0 0 -0.599 0 65.2376)" gradientUnits="userSpaceOnUse">
			<stop  offset="0" style="stop-color:#81C48F"/>
			<stop  offset="0.2078" style="stop-color:#4BABA7"/>
			<stop  offset="0.5922" style="stop-color:#217387"/>
			<stop  offset="1" style="stop-color:#00140C"/>
		</radialGradient>
		<path style="fill-rule:evenodd;clip-rule:evenodd;fill:url(#SVGID_15_);" d="M276.15,44.9c0,0.533-0.584,0.983-1.75,1.35
			c-1.2,0.4-2.634,0.6-4.301,0.6c-1.666,0-3.1-0.199-4.3-0.6c-1.166-0.366-1.75-0.816-1.75-1.35c0-0.534,0.584-0.983,1.75-1.351
			c1.2-0.366,2.634-0.55,4.3-0.55c1.667,0,3.101,0.184,4.301,0.55C275.566,43.917,276.15,44.366,276.15,44.9z"/>
		
			<use xlink:href="#flash0.ai_x2F_Layer_3_x2F__x3C_Clip_Group_0_x3E__x5F_1"  width="12.1" height="5.15" y="-5.15" transform="matrix(1 0 0 -1 264.0498 43)" style="overflow:visible;"/>
	</g>
	<g>
		
			<use xlink:href="#flash0.ai_x2F_Layer_3_x2F__x3C_Path_x3E__x5F_1_x5F_2"  width="7.95" height="2.9" y="-2.9" transform="matrix(1 0 0 -1 50.3999 43.4004)" style="overflow:visible;opacity:0.4414;enable-background:new    ;"/>
		
			<radialGradient id="SVGID_16_" cx="54.2002" cy="42.5498" r="5.1125" gradientTransform="matrix(1 0 0 -0.7359 0 73.864)" gradientUnits="userSpaceOnUse">
			<stop  offset="0" style="stop-color:#81C48F"/>
			<stop  offset="0.2078" style="stop-color:#4BABA7"/>
			<stop  offset="0.5922" style="stop-color:#217387"/>
			<stop  offset="1" style="stop-color:#00140C"/>
		</radialGradient>
		<path style="fill-rule:evenodd;clip-rule:evenodd;fill:url(#SVGID_16_);" d="M56.75,44.7c0,0.267-0.25,0.5-0.75,0.7
			c-0.5,0.199-1.1,0.3-1.8,0.3c-0.7,0-1.3-0.101-1.8-0.3c-0.5-0.2-0.75-0.434-0.75-0.7s0.25-0.5,0.75-0.7s1.1-0.3,1.8-0.3
			c0.7,0,1.3,0.1,1.8,0.3S56.75,44.434,56.75,44.7z"/>
		
			<use xlink:href="#flash0.ai_x2F_Layer_3_x2F__x3C_Clip_Group_0_x3E__x5F_2"  width="5.1" height="2.7" y="-2.7" transform="matrix(1 0 0 -1 51.6499 43.7002)" style="overflow:visible;"/>
	</g>
</g>
</svg>
