<?xml version="1.0" encoding="iso-8859-1"?>
<!-- Generator: Adobe Illustrator 15.1.0, SVG Export Plug-In . SVG Version: 6.00 Build 0)  -->
<!DOCTYPE svg PUBLIC "-//W3C//DTD SVG 1.1//EN" "http://www.w3.org/Graphics/SVG/1.1/DTD/svg11.dtd">
<svg version="1.1" id="Layer_3" xmlns="http://www.w3.org/2000/svg" xmlns:xlink="http://www.w3.org/1999/xlink" x="0px" y="0px"
	 width="121px" height="47.3px" viewBox="0 0 121 47.3" style="enable-background:new 0 0 121 47.3;" xml:space="preserve">
<symbol  id="flash0.ai_x5F_0_x2F_Layer_3_x2F__x3C_Path_x3E__x5F_1" viewBox="0 -3.55 11.15 3.586">
	<g id="Layer_1_7_">
		<path style="fill-rule:evenodd;clip-rule:evenodd;fill:#C7D8D5;" d="M0-3.55C1.233-2.683,2.617-1.9,4.15-1.2
			c3.067,1.367,5.367,1.6,6.9,0.7c0.133-0.167,0.133-0.3,0-0.4c-0.2-0.233-0.867-0.25-2-0.05C7.017-0.583,4-1.45,0-3.55z"/>
	</g>
</symbol>
<symbol  id="flash0.ai_x5F_0_x2F_Layer_3_x2F__x3C_Path_x3E__x5F_10" viewBox="-0.01 -11.109 97.599 11.103">
	<g id="Layer_1_4_">
		<path style="fill-rule:evenodd;clip-rule:evenodd;fill:#A89676;" d="M94.3-8.85c1.633-0.733,2.667-1.3,3.1-1.7
			c0.367-0.333,0.2-0.434-0.5-0.3c-3.633,0.633-7.683,1.117-12.15,1.45C79.683-9,75.1-8.883,71-9.05c-2.5-0.1-5.433-0.434-8.8-1
			c-3.5-0.6-6.567-0.95-9.2-1.05c-1.967-0.066-4.767,0.233-8.4,0.9c-4.333,0.8-6.95,1.233-7.85,1.3
			c-1.067,0.066-3.583-0.083-7.55-0.45c-3.833-0.333-7.3-0.367-10.4-0.1c-2.367,0.2-6.367,0-12-0.6c-4.466-0.467-6.733-0.467-6.8,0
			C-0.1-9.15,0.583-8.133,2.05-7c2.434,1.9,6.7,3.75,12.8,5.55c4.267,1.267,9.1,1.7,14.5,1.3C35.617-0.583,39.433-0.7,40.8-0.5
			c1.7,0.233,3.917-0.283,6.65-1.55c2.867-1.3,5.083-1.917,6.65-1.85c1.967,0.066,4.05,0.25,6.25,0.55
			c1.967,0.3,3.717,0.45,5.25,0.45c5.467,0,10.017-0.4,13.65-1.2C85.383-5.5,90.4-7.083,94.3-8.85z"/>
	</g>
</symbol>
<symbol  id="flash0.ai_x5F_0_x2F_Layer_3_x2F__x3C_Path_x3E__x5F_11" viewBox="0 -2.25 22.996 2.276">
	<g id="Layer_1_3_">
		<path style="fill-rule:evenodd;clip-rule:evenodd;fill:#A89676;" d="M19.55-0.6c3.367-0.867,4.267-1.333,2.7-1.4
			c-0.667-0.033-2.633,0.067-5.9,0.3C13.083-1.467,10.967-1.35,10-1.35C8.167-1.417,4.833-1.717,0-2.25c2.033,0.433,4.467,1,7.3,1.7
			C9.167-0.083,11.483,0.1,14.25,0C16.45-0.067,18.217-0.267,19.55-0.6z"/>
	</g>
</symbol>
<symbol  id="flash0.ai_x5F_0_x2F_Layer_3_x2F__x3C_Path_x3E__x5F_12" viewBox="0 -1.322 16.75 1.317">
	<g id="Layer_1_2_">
		<path style="fill-rule:evenodd;clip-rule:evenodd;fill:#A89676;" d="M0-0.55c1.067,0.267,2.45,0.433,4.15,0.5
			c1.934,0.1,3.767,0.033,5.5-0.2c2.467-0.333,4.833-0.55,7.1-0.65c-3.1-0.434-6-0.533-8.7-0.3L0-0.55z"/>
	</g>
</symbol>
<symbol  id="flash0.ai_x5F_0_x2F_Layer_3_x2F__x3C_Path_x3E__x5F_2" viewBox="0 -1.703 1.373 1.706">
	<g id="Layer_1_6_">
		<path style="fill-rule:evenodd;clip-rule:evenodd;fill:#C7D8D5;" d="M1.25-0.7c0.233-0.6,0.133-0.933-0.3-1
			c-0.434-0.033-0.733,0.233-0.9,0.8c-0.133,0.533,0,0.833,0.4,0.9C0.817,0.033,1.083-0.2,1.25-0.7z"/>
	</g>
</symbol>
<symbol  id="flash0.ai_x5F_0_x2F_Layer_3_x2F__x3C_Path_x3E__x5F_3" viewBox="0 -11.95 24.944 11.936">
	<g id="Layer_1_5_">
		<path style="fill-rule:evenodd;clip-rule:evenodd;fill:#C7D8D5;" d="M9.85-3.7c5.033,2.833,9.617,4.034,13.75,3.6
			c1.133-0.1,1.55-0.4,1.25-0.9C24.583-1.533,23.633-1.733,22-1.6c-2.9,0.233-5.867-0.267-8.9-1.5C9.1-4.733,4.733-7.683,0-11.95
			c0.8,0.9,1.817,1.917,3.05,3.05C5.483-6.633,7.75-4.9,9.85-3.7z"/>
	</g>
</symbol>
<g>
	
		<linearGradient id="SVGID_1_" gradientUnits="userSpaceOnUse" x1="-39.1514" y1="61.2139" x2="-20.823" y2="61.2139" gradientTransform="matrix(0.0191 -0.9998 0.9998 0.0191 -1.644343e-005 -2.370328e-004)">
		<stop  offset="0.0078" style="stop-color:#3E9A9D"/>
		<stop  offset="0.2549" style="stop-color:#439DA0"/>
		<stop  offset="0.5608" style="stop-color:#53A4A7"/>
		<stop  offset="0.8941" style="stop-color:#6CB1B4"/>
		<stop  offset="1" style="stop-color:#75B6B9"/>
	</linearGradient>
	<path style="fill-rule:evenodd;clip-rule:evenodd;fill:url(#SVGID_1_);" d="M92.7,24.55c4.1,0.767,8.133,1.8,12.1,3.101
		c4.4,1.466,8.2,3.083,11.4,4.85c1.333,0.733,2.3,1.333,2.899,1.8c1.134,0.934,1.767,1.884,1.9,2.851
		c0.033,0.466-0.083,0.916-0.35,1.35c-0.5,0.833-1.584,1.6-3.25,2.3c-1.9,0.7-3.15,1.15-3.75,1.351
		c-2.5,0.933-5.584,1.683-9.25,2.25c-4.2,0.566-7.351,1.017-9.45,1.35c-6.467,1.033-13.867,1.55-22.2,1.55
		c-4.467,0-11.917-0.25-22.35-0.75c-18.1-0.866-33.467-2.833-46.1-5.899c-2.033-0.5-3.333-1-3.9-1.5
		c-0.833-0.801-0.367-1.767,1.4-2.9c1.967-1.267,4.317-2.55,7.05-3.85c3.2-1.467,5.633-2.584,7.3-3.351
		c4.033-1.833,6.817-3.066,8.35-3.7c2.467-0.966,4.933-1.716,7.4-2.25c4.3-0.934,8.45-1.333,12.45-1.2c2.8,0.1,4.533,0.15,5.2,0.15
		c1.7-0.066,3.417-0.333,5.15-0.8c3.9-0.967,8.283-1.217,13.149-0.75c2.667,0.267,7,1,13,2.2c1.334,0.267,3.317,0.583,5.95,0.95
		C89.4,23.983,91.366,24.283,92.7,24.55z"/>
	<g>
		
			<linearGradient id="SVGID_2_" gradientUnits="userSpaceOnUse" x1="27.2422" y1="71.8164" x2="84.9812" y2="71.8164" gradientTransform="matrix(0.7261 -0.6876 0.6876 0.7261 2.918243e-004 -2.269745e-004)">
			<stop  offset="0.0235" style="stop-color:#2B1736"/>
			<stop  offset="0.2431" style="stop-color:#2B1A38"/>
			<stop  offset="0.4078" style="stop-color:#2B2440"/>
			<stop  offset="0.5529" style="stop-color:#2C344D"/>
			<stop  offset="0.6902" style="stop-color:#2D4B60"/>
			<stop  offset="0.8157" style="stop-color:#2E6877"/>
			<stop  offset="0.8314" style="stop-color:#2E6B7A"/>
			<stop  offset="1" style="stop-color:#61BAD6"/>
		</linearGradient>
		<path style="fill-rule:evenodd;clip-rule:evenodd;fill:url(#SVGID_2_);" d="M90.4,8.4c-4.101,3.367-8.684,8.05-13.75,14.05
			c-2.534,3-4.667,5.649-6.4,7.95L68.7,26l8.45-8.05C83.35,12.25,87.9,8.467,90.8,6.6c8.137-5.187,15.378-7.303,21.726-6.35
			c-1.632-0.216-3.69-0.099-6.176,0.35C100.85,1.6,95.533,4.2,90.4,8.4z"/>
		
			<linearGradient id="SVGID_3_" gradientUnits="userSpaceOnUse" x1="41.5005" y1="66.2383" x2="75.9398" y2="66.2383" gradientTransform="matrix(0.8095 -0.5871 0.5871 0.8095 -3.070831e-004 7.891655e-005)">
			<stop  offset="0.0235" style="stop-color:#2B1736"/>
			<stop  offset="0.2431" style="stop-color:#2B1A38"/>
			<stop  offset="0.4078" style="stop-color:#2B2440"/>
			<stop  offset="0.5529" style="stop-color:#2C344D"/>
			<stop  offset="0.6902" style="stop-color:#2D4B60"/>
			<stop  offset="0.8157" style="stop-color:#2E6877"/>
			<stop  offset="0.8314" style="stop-color:#2E6B7A"/>
			<stop  offset="1" style="stop-color:#61BAD6"/>
		</linearGradient>
		<path style="fill-rule:evenodd;clip-rule:evenodd;fill:url(#SVGID_3_);" d="M97.975,15.825c-0.891-0.291-2.016-0.466-3.375-0.525
			c-3.066-0.167-6.083,0.517-9.05,2.05c-2.366,1.233-5.017,3.066-7.95,5.5l-3.699,3.3l-0.801-2.4l4.351-3
			c3.2-2.133,5.633-3.517,7.3-4.15c3.1-1.2,5.866-1.783,8.3-1.75C94.617,14.881,96.259,15.207,97.975,15.825z"/>
		
			<use xlink:href="#flash0.ai_x5F_0_x2F_Layer_3_x2F__x3C_Path_x3E__x5F_12"  width="16.75" height="1.317" y="-1.322" transform="matrix(1 0 0 -1 84.0996 32.9004)" style="overflow:visible;opacity:0.4414;enable-background:new    ;"/>
		
			<use xlink:href="#flash0.ai_x5F_0_x2F_Layer_3_x2F__x3C_Path_x3E__x5F_11"  width="22.996" height="2.276" y="-2.25" transform="matrix(1 0 0 -1 38.75 33)" style="overflow:visible;opacity:0.4414;enable-background:new    ;"/>
		
			<use xlink:href="#flash0.ai_x5F_0_x2F_Layer_3_x2F__x3C_Path_x3E__x5F_10"  width="97.599" height="11.103" x="-0.01" y="-11.109" transform="matrix(1 0 0 -1 16.9502 23.2998)" style="overflow:visible;opacity:0.3203;enable-background:new    ;"/>
		<g>
			
				<radialGradient id="SVGID_4_" cx="-61.4663" cy="-9.1055" r="72.9024" gradientTransform="matrix(-0.9996 -0.0268 -0.0098 0.3666 -0.3333 12.4406)" gradientUnits="userSpaceOnUse">
				<stop  offset="0" style="stop-color:#81C48F"/>
				<stop  offset="0.2078" style="stop-color:#45ABB5"/>
				<stop  offset="0.5922" style="stop-color:#217387"/>
				<stop  offset="1" style="stop-color:#00140C"/>
			</radialGradient>
			<path style="fill-rule:evenodd;clip-rule:evenodd;fill:url(#SVGID_4_);" d="M81.05,26.9c2.934,0,6.533,0.3,10.8,0.899
				c1.9,0.267,3.967,0.684,6.2,1.25c2.267,0.601,3.983,1.15,5.15,1.65c0.866,0.366,0.649,0.517-0.65,0.45
				c-0.934,0-2.283-0.067-4.05-0.2c-2.533-0.2-4.134-0.316-4.8-0.351c-5.3-0.5-8.584-0.75-9.851-0.75c-0.833,0-3.166,0.167-7,0.5
				c-3.233,0.267-5.616,0.317-7.149,0.15c-0.434-0.033-2.934-0.483-7.5-1.35c-3.434-0.667-5.95-0.917-7.55-0.75
				c-1.433,0.166-3.417,0.083-5.95-0.25c-2.667-0.334-4.55-0.467-5.65-0.4c-5.167,0.4-9.75,1.4-13.75,3
				c-3.1,0.167-5.25,0.35-6.45,0.55c-1.033,0.167-1.333-0.033-0.9-0.6c0.433-0.601,1.517-1.334,3.25-2.2
				c4.8-2.434,10.25-3.85,16.35-4.25c3.6-0.233,6.2-0.3,7.8-0.2c0.767,0.066,2.367,0.351,4.8,0.851
				c1.133,0.233,3.417,0.916,6.85,2.05c3.1,1.033,5.384,1.633,6.85,1.8c1.467,0.167,3.7-0.083,6.7-0.75
				C77.816,27.267,79.983,26.9,81.05,26.9z"/>
			
				<radialGradient id="SVGID_5_" cx="-61.4521" cy="-14.3228" r="68.6506" gradientTransform="matrix(-0.9996 -0.0266 -0.0097 0.3667 -0.5199 19.5701)" gradientUnits="userSpaceOnUse">
				<stop  offset="0" style="stop-color:#81C48F"/>
				<stop  offset="0.2078" style="stop-color:#45ABB5"/>
				<stop  offset="0.5922" style="stop-color:#217387"/>
				<stop  offset="1" style="stop-color:#00140C"/>
			</radialGradient>
			<path style="fill-rule:evenodd;clip-rule:evenodd;fill:url(#SVGID_5_);" d="M83.85,29.85c1.267,0,4.551,0.25,9.851,0.75
				c-3.134-0.133-5.684-0.166-7.65-0.1c-2.033,0.066-4.899,0.417-8.6,1.05c-3.767,0.667-6.75,1.033-8.95,1.101
				c-1.667,0.066-4.15-0.101-7.45-0.5c-3.966-0.5-6.283-0.767-6.95-0.801c-0.5-0.033-3.133-0.05-7.9-0.05
				c-4.167,0-7.45-0.133-9.85-0.399c-2.233-0.233-4.583-0.284-7.05-0.15c4-1.6,8.583-2.6,13.75-3c1.1-0.066,2.983,0.066,5.65,0.4
				c2.533,0.333,4.517,0.416,5.95,0.25c1.6-0.167,4.117,0.083,7.55,0.75c4.566,0.866,7.066,1.316,7.5,1.35
				c1.533,0.167,3.916,0.116,7.149-0.15C80.684,30.017,83.017,29.85,83.85,29.85z"/>
			
				<radialGradient id="SVGID_6_" cx="-63.543" cy="-6.4146" r="71.3641" gradientTransform="matrix(-0.9996 -0.0266 -0.0097 0.3666 -0.2325 8.7637)" gradientUnits="userSpaceOnUse">
				<stop  offset="0" style="stop-color:#81C48F"/>
				<stop  offset="0.2078" style="stop-color:#45ABB5"/>
				<stop  offset="0.5922" style="stop-color:#2173A3"/>
				<stop  offset="1" style="stop-color:#00140C"/>
			</radialGradient>
			<path style="fill-rule:evenodd;clip-rule:evenodd;fill:url(#SVGID_6_);" d="M84.5,28.95c1.934,0,3.917,0.166,5.95,0.5
				c2.233,0.333,3.6,0.75,4.1,1.25c-3.267-0.233-6.1-0.3-8.5-0.2c-2.033,0.066-4.899,0.417-8.6,1.05
				c-3.767,0.667-6.75,1.033-8.95,1.101c-1.667,0.066-4.15-0.101-7.45-0.5c-3.966-0.5-6.283-0.767-6.95-0.801
				c-0.5-0.033-3.133-0.05-7.9-0.05c-4.167,0-7.45-0.133-9.85-0.399c-2.233-0.233-4.583-0.284-7.05-0.15
				c2.534-1.033,4.383-1.717,5.55-2.05c2.533-0.8,5.117-1.283,7.75-1.45c1.1-0.066,3.066,0.15,5.9,0.65c2.7,0.5,4.75,0.666,6.15,0.5
				c1.6-0.167,4.117,0.083,7.55,0.75c4.566,0.866,7.066,1.316,7.5,1.35c1.467,0.134,3.967-0.066,7.5-0.6
				C81.033,29.267,83.467,28.95,84.5,28.95z"/>
		</g>
		
			<linearGradient id="SVGID_7_" gradientUnits="userSpaceOnUse" x1="-30.667" y1="63.1172" x2="13.3929" y2="63.1172" gradientTransform="matrix(0.1402 -0.9901 0.9901 0.1402 -3.841519e-004 -4.718304e-004)">
			<stop  offset="0" style="stop-color:#2B1736"/>
			<stop  offset="0.1451" style="stop-color:#2B1739"/>
			<stop  offset="0.2549" style="stop-color:#2B1743"/>
			<stop  offset="0.3333" style="stop-color:#2B174F"/>
			<stop  offset="0.8314" style="stop-color:#546BA6"/>
			<stop  offset="1" style="stop-color:#9CBA8F"/>
		</linearGradient>
		<path style="fill-rule:evenodd;clip-rule:evenodd;fill:url(#SVGID_7_);" d="M83.95,9.45c-0.533,4.4-1.667,8.367-3.4,11.9
			c-1.566,3.266-3.35,6.016-5.35,8.25L72.7,32c-0.8,0.267-1.934,0.467-3.4,0.6c-2.967,0.267-6.166,0.034-9.6-0.699
			c-2.067-0.434-4.55-0.684-7.45-0.75c-3.233,0.066-5.533,0.1-6.9,0.1l-7.55-0.2c1.6-0.733,3.233-2.033,4.9-3.899
			c0.9-1,2.267-2.784,4.1-5.351c4.467-6.133,9.267-11.017,14.4-14.65c8.267-5.833,14.883-8.083,19.85-6.75
			C83.616,1.1,84.583,4.117,83.95,9.45z"/>
		
			<linearGradient id="SVGID_8_" gradientUnits="userSpaceOnUse" x1="-39.396" y1="63.252" x2="5.1526" y2="63.252" gradientTransform="matrix(0.1055 -0.9944 0.9944 0.1055 -1.693964e-004 -4.345179e-005)">
			<stop  offset="0.0235" style="stop-color:#2B1736"/>
			<stop  offset="0.2275" style="stop-color:#2C1939"/>
			<stop  offset="0.3804" style="stop-color:#302143"/>
			<stop  offset="0.5137" style="stop-color:#372F53"/>
			<stop  offset="0.6431" style="stop-color:#40416A"/>
			<stop  offset="0.7608" style="stop-color:#4B5987"/>
			<stop  offset="0.8314" style="stop-color:#546B9C"/>
			<stop  offset="1" style="stop-color:#9CBAB5"/>
		</linearGradient>
		<path style="fill-rule:evenodd;clip-rule:evenodd;fill:url(#SVGID_8_);" d="M48.2,31.25c0.733-1.066,1.733-2.783,3-5.15
			c0.933-1.733,1.95-3.233,3.05-4.5c4.433-5.133,9.134-8.967,14.1-11.5c2.4-1.2,4.101-1.3,5.101-0.3c0.967,1,1.116,2.967,0.45,5.9
			C73.366,18.167,72.1,21.133,70.1,24.6c-2.1,3.667-4.1,6.284-6,7.851C57.3,31.583,52,31.184,48.2,31.25z"/>
		
			<linearGradient id="SVGID_9_" gradientUnits="userSpaceOnUse" x1="-37.3569" y1="62.8496" x2="0.8059" y2="62.8496" gradientTransform="matrix(0.1055 -0.9944 0.9944 0.1055 -2.547801e-004 4.323721e-004)">
			<stop  offset="0.0235" style="stop-color:#2B1736"/>
			<stop  offset="0.1922" style="stop-color:#2C1A38"/>
			<stop  offset="0.3176" style="stop-color:#312440"/>
			<stop  offset="0.4275" style="stop-color:#39344D"/>
			<stop  offset="0.5294" style="stop-color:#444B60"/>
			<stop  offset="0.6275" style="stop-color:#526877"/>
			<stop  offset="0.6392" style="stop-color:#546B7A"/>
			<stop  offset="1" style="stop-color:#9CBAB5"/>
		</linearGradient>
		<path style="fill-rule:evenodd;clip-rule:evenodd;fill:url(#SVGID_9_);" d="M49.3,31.3c0.567-0.8,1.534-2.217,2.9-4.25
			c0.867-1.333,1.8-2.6,2.8-3.8c3.933-4.7,7.866-7.983,11.8-9.85c4.4-2.133,6.084-0.8,5.05,4c-0.433,2.133-1.683,4.8-3.75,8
			c-2.066,3.233-4.033,5.566-5.899,7C57.2,31.6,52.9,31.233,49.3,31.3z"/>
		<linearGradient id="SVGID_10_" gradientUnits="userSpaceOnUse" x1="45.7046" y1="11.5254" x2="31.604" y2="28.9">
			<stop  offset="0" style="stop-color:#61BAD6"/>
			<stop  offset="0.1686" style="stop-color:#2E6B7A"/>
			<stop  offset="0.1804" style="stop-color:#2E6877"/>
			<stop  offset="0.3098" style="stop-color:#2D4B60"/>
			<stop  offset="0.4471" style="stop-color:#2C344D"/>
			<stop  offset="0.5922" style="stop-color:#2B2440"/>
			<stop  offset="0.7569" style="stop-color:#2B1A38"/>
			<stop  offset="0.9765" style="stop-color:#2B1736"/>
		</linearGradient>
		<path style="fill-rule:evenodd;clip-rule:evenodd;fill:url(#SVGID_10_);" d="M43.1,30.2L41,30.55c0.2-0.733,0.333-1.75,0.4-3.05
			c0.1-2.6-0.183-5.333-0.85-8.2c-0.6-2.6-1.816-4.917-3.65-6.95l-2.55-2.3c1.433,0.934,2.617,1.95,3.55,3.05
			c1.3,1.5,2.383,3.333,3.25,5.5c0.8,2.033,1.367,4.566,1.7,7.6C43.017,27.733,43.1,29.066,43.1,30.2z"/>
		<linearGradient id="SVGID_11_" gradientUnits="userSpaceOnUse" x1="39.3154" y1="18.4229" x2="33.8114" y2="31.2461">
			<stop  offset="0" style="stop-color:#61BAD6"/>
			<stop  offset="0.1686" style="stop-color:#2E6B7A"/>
			<stop  offset="0.1804" style="stop-color:#2E6877"/>
			<stop  offset="0.3098" style="stop-color:#2D4B60"/>
			<stop  offset="0.4471" style="stop-color:#2C344D"/>
			<stop  offset="0.5922" style="stop-color:#2B2440"/>
			<stop  offset="0.7569" style="stop-color:#2B1A38"/>
			<stop  offset="0.9765" style="stop-color:#2B1736"/>
		</linearGradient>
		<path style="fill-rule:evenodd;clip-rule:evenodd;fill:url(#SVGID_11_);" d="M39.7,31c-0.034-2-0.75-4.366-2.15-7.1
			c-0.8-1.533-1.917-2.783-3.35-3.75l-1.9-1c2.2,0.7,4.034,2.1,5.5,4.2c1.3,1.833,2.333,4.167,3.1,7L39.7,31z"/>
		<g>
			
				<radialGradient id="SVGID_12_" cx="67.8975" cy="-22.4053" r="4.3846" gradientTransform="matrix(0.7811 0.6243 0.707 -1.1518 27.6528 -45.0477)" gradientUnits="userSpaceOnUse">
				<stop  offset="0" style="stop-color:#214787"/>
				<stop  offset="1" style="stop-color:#20141B"/>
			</radialGradient>
			<path style="fill-rule:evenodd;clip-rule:evenodd;fill:url(#SVGID_12_);" d="M65.2,16.75c1,0.033,0.684,1.233-0.95,3.6
				c-1.634,2.4-2.816,3.417-3.55,3.05c-0.7-0.367-0.316-1.566,1.149-3.6C63.283,17.733,64.4,16.717,65.2,16.75z"/>
		</g>
		<g>
			
				<radialGradient id="SVGID_13_" cx="73.4053" cy="-13.6484" r="3.861" gradientTransform="matrix(0.8612 0.5083 0.573 -1.3177 13.3057 -30.5956)" gradientUnits="userSpaceOnUse">
				<stop  offset="0" style="stop-color:#214787"/>
				<stop  offset="1" style="stop-color:#20141B"/>
			</radialGradient>
			<path style="fill-rule:evenodd;clip-rule:evenodd;fill:url(#SVGID_13_);" d="M68.3,18.8c0.9-0.133,0.75,1.017-0.45,3.45
				c-1.199,2.434-2.149,3.533-2.85,3.3c-0.634-0.2-0.417-1.35,0.65-3.45C66.717,20.033,67.6,18.933,68.3,18.8z"/>
		</g>
		
			<linearGradient id="SVGID_14_" gradientUnits="userSpaceOnUse" x1="-25.4478" y1="75.9922" x2="-5.7018" y2="75.9922" gradientTransform="matrix(0.1405 -0.9901 0.9901 0.1405 -1.938939e-004 3.257990e-004)">
			<stop  offset="0" style="stop-color:#230F36"/>
			<stop  offset="0.1882" style="stop-color:#231239"/>
			<stop  offset="0.3294" style="stop-color:#251C41"/>
			<stop  offset="0.4549" style="stop-color:#282C4F"/>
			<stop  offset="0.5725" style="stop-color:#2B4363"/>
			<stop  offset="0.6824" style="stop-color:#30607D"/>
			<stop  offset="0.7882" style="stop-color:#35849D"/>
			<stop  offset="0.8314" style="stop-color:#3894AB"/>
			<stop  offset="1" style="stop-color:#9CBAB5"/>
		</linearGradient>
		<path style="fill-rule:evenodd;clip-rule:evenodd;fill:url(#SVGID_14_);" d="M87.4,30.35c-5.567,0.467-9.9,1.017-13,1.65
			c-2.4,0.5-4.983,0.733-7.75,0.7c-2.367,0-5.483-0.334-9.351-1c2.467-0.233,5.851-1.434,10.15-3.601c1.566-0.8,4.133-2.333,7.7-4.6
			c3.233-1.833,5.85-2.683,7.85-2.55c2.333,0.133,3.767,1.733,4.3,4.8C87.566,27.316,87.6,28.85,87.4,30.35z"/>
		
			<use xlink:href="#flash0.ai_x5F_0_x2F_Layer_3_x2F__x3C_Path_x3E__x5F_3"  width="24.944" height="11.936" y="-11.95" transform="matrix(1 0 0 -1 55.6499 1.3999)" style="overflow:visible;opacity:0.2813;enable-background:new    ;"/>
		
			<use xlink:href="#flash0.ai_x5F_0_x2F_Layer_3_x2F__x3C_Path_x3E__x5F_2"  width="1.373" height="1.706" x="0" y="-1.703" transform="matrix(1 0 0 -1 81.5996 2.7998)" style="overflow:visible;opacity:0.2813;enable-background:new    ;"/>
		
			<use xlink:href="#flash0.ai_x5F_0_x2F_Layer_3_x2F__x3C_Path_x3E__x5F_1"  width="11.15" height="3.586" y="-3.55" transform="matrix(1 0 0 -1 73.7002 21.5)" style="overflow:visible;opacity:0.2813;enable-background:new    ;"/>
		
			<linearGradient id="SVGID_15_" gradientUnits="userSpaceOnUse" x1="-25.207" y1="78.9609" x2="-3.184" y2="78.9609" gradientTransform="matrix(0.1056 -0.9944 0.9944 0.1056 2.292097e-004 3.229976e-004)">
			<stop  offset="0" style="stop-color:#230F36"/>
			<stop  offset="0.1882" style="stop-color:#231239"/>
			<stop  offset="0.3294" style="stop-color:#251C41"/>
			<stop  offset="0.4549" style="stop-color:#282C4F"/>
			<stop  offset="0.5725" style="stop-color:#2B4363"/>
			<stop  offset="0.6824" style="stop-color:#30607D"/>
			<stop  offset="0.7882" style="stop-color:#35849D"/>
			<stop  offset="0.8314" style="stop-color:#3894AB"/>
			<stop  offset="1" style="stop-color:#9CBAB5"/>
		</linearGradient>
		<path style="fill-rule:evenodd;clip-rule:evenodd;fill:url(#SVGID_15_);" d="M84.3,30.55c-4.866,0.533-8.399,1.05-10.6,1.55
			c-1.367,0.301-2.767,0.467-4.2,0.5h-1.7l2.601-1c2-0.833,3.716-1.683,5.149-2.55c1.9-1.133,3.667-1.783,5.3-1.95
			c1.801-0.166,2.867,0.4,3.2,1.7C84.283,29.733,84.366,30.316,84.3,30.55z"/>
	</g>
</g>
</svg>
