<?xml version="1.0" encoding="iso-8859-1"?>
<!-- Generator: Adobe Illustrator 15.1.0, SVG Export Plug-In . SVG Version: 6.00 Build 0)  -->
<!DOCTYPE svg PUBLIC "-//W3C//DTD SVG 1.1//EN" "http://www.w3.org/Graphics/SVG/1.1/DTD/svg11.dtd">
<svg version="1.1" id="Layer_3" xmlns="http://www.w3.org/2000/svg" xmlns:xlink="http://www.w3.org/1999/xlink" x="0px" y="0px"
	 width="143.5px" height="27.9px" viewBox="0 0 143.5 27.9" style="enable-background:new 0 0 143.5 27.9;" xml:space="preserve">
<g>
	<path style="fill-rule:evenodd;clip-rule:evenodd;fill:#158488;" d="M88.25,25.8c0.066-0.399,0.366-0.7,0.9-0.899
		c0.5-0.2,1.066-0.233,1.699-0.101c0.634,0.134,1.15,0.384,1.551,0.75c0.399,0.4,0.55,0.8,0.449,1.2
		c-0.066,0.434-0.366,0.75-0.899,0.95c-0.5,0.2-1.066,0.233-1.7,0.1c-0.667-0.166-1.184-0.434-1.55-0.8
		C88.3,26.634,88.15,26.233,88.25,25.8z"/>
	<path style="fill-rule:evenodd;clip-rule:evenodd;fill:#158488;" d="M108.05,7.65c-0.033-0.4,0.167-0.75,0.601-1.05
		c0.399-0.3,0.933-0.483,1.6-0.55c0.634-0.033,1.2,0.067,1.7,0.3c0.467,0.233,0.717,0.55,0.75,0.95c0.033,0.4-0.167,0.75-0.601,1.05
		c-0.433,0.333-0.983,0.517-1.649,0.55c-0.634,0.067-1.184-0.033-1.65-0.3C108.333,8.367,108.083,8.05,108.05,7.65z"/>
	<path style="fill-rule:evenodd;clip-rule:evenodd;fill:#158488;" d="M124.85,15.35c-0.033-0.366,0.167-0.716,0.601-1.05
		c0.434-0.3,0.967-0.483,1.6-0.55c0.667-0.033,1.233,0.067,1.7,0.3c0.467,0.233,0.717,0.55,0.75,0.95s-0.167,0.767-0.6,1.1
		c-0.467,0.334-1.017,0.517-1.65,0.551c-0.634,0.066-1.184-0.034-1.65-0.301C125.134,16.083,124.884,15.75,124.85,15.35z"/>
	<path style="fill-rule:evenodd;clip-rule:evenodd;fill:#158488;" d="M76.55,16.75c-0.033-0.233,0.066-0.45,0.3-0.65
		c0.2-0.166,0.467-0.283,0.801-0.35c0.333-0.033,0.633,0,0.899,0.1c0.267,0.134,0.417,0.317,0.45,0.551s-0.066,0.449-0.3,0.649
		c-0.2,0.2-0.467,0.316-0.8,0.351C77.1,17.533,76.65,17.316,76.55,16.75z"/>
	<path style="fill-rule:evenodd;clip-rule:evenodd;fill:#158488;" d="M112.75,17.95c-0.066-0.467,0.184-0.733,0.75-0.8
		c0.566-0.067,0.884,0.116,0.95,0.55c0.033,0.166-0.033,0.333-0.2,0.5c-0.134,0.133-0.316,0.217-0.55,0.25
		C113.134,18.55,112.816,18.384,112.75,17.95z"/>
	<path style="fill-rule:evenodd;clip-rule:evenodd;fill:#158488;" d="M100.6,15.8c-0.066-0.399,0.184-0.666,0.75-0.8
		c0.567-0.066,0.884,0.116,0.95,0.55s-0.184,0.7-0.75,0.8C100.983,16.417,100.667,16.233,100.6,15.8z"/>
	<path style="fill-rule:evenodd;clip-rule:evenodd;fill:#158488;" d="M66.15,14.5c-0.066-0.4,0.2-0.667,0.8-0.8
		c0.566-0.067,0.883,0.117,0.95,0.55c0.067,0.4-0.183,0.667-0.75,0.8C66.617,15.116,66.283,14.934,66.15,14.5z"/>
	<path style="fill-rule:evenodd;clip-rule:evenodd;fill:#158488;" d="M56.8,18.65c-0.066-0.4,0.184-0.667,0.75-0.801
		c0.567-0.066,0.883,0.117,0.95,0.551c0.133,0.399-0.117,0.666-0.75,0.8C57.183,19.267,56.867,19.083,56.8,18.65z"/>
	<path style="fill-rule:evenodd;clip-rule:evenodd;fill:#158488;" d="M58,0.8c-0.067-0.433,0.183-0.7,0.75-0.8
		c0.567-0.067,0.883,0.117,0.95,0.55c0.066,0.434-0.184,0.7-0.75,0.8C58.383,1.417,58.067,1.233,58,0.8z"/>
	<path style="fill-rule:evenodd;clip-rule:evenodd;fill:#158488;" d="M32.85,9.75c-0.067-0.467,0.183-0.733,0.75-0.8
		c0.566-0.067,0.883,0.117,0.95,0.55c0.067,0.167,0.017,0.333-0.15,0.5c-0.133,0.133-0.333,0.217-0.6,0.25
		c-0.233,0.067-0.433,0.033-0.6-0.1C33,10.05,32.883,9.917,32.85,9.75z"/>
	<path style="fill-rule:evenodd;clip-rule:evenodd;fill:#158488;" d="M0,11.15c-0.033-0.167,0.033-0.333,0.2-0.5
		c0.133-0.133,0.316-0.217,0.55-0.25c0.567-0.1,0.883,0.067,0.95,0.5c0.066,0.167,0.017,0.333-0.15,0.5
		c-0.167,0.167-0.367,0.267-0.6,0.3C0.383,11.767,0.067,11.583,0,11.15z"/>
	<path style="fill-rule:evenodd;clip-rule:evenodd;fill:#158488;" d="M96.85,1.4c-0.066-0.4,0.2-0.667,0.801-0.8
		c0.566-0.067,0.883,0.117,0.949,0.55c0.067,0.4-0.183,0.667-0.75,0.8C97.283,2.017,96.95,1.833,96.85,1.4z"/>
	<path style="fill-rule:evenodd;clip-rule:evenodd;fill:#158488;" d="M99.85,25.95c-0.033-0.233,0.051-0.45,0.25-0.65
		c0.2-0.2,0.467-0.333,0.801-0.399c0.333-0.034,0.633,0,0.899,0.1c0.267,0.134,0.417,0.316,0.45,0.55c0.066,0.601-0.3,0.95-1.1,1.05
		c-0.334,0.067-0.617,0.034-0.851-0.1C100.033,26.366,99.884,26.184,99.85,25.95z"/>
	<path style="fill-rule:evenodd;clip-rule:evenodd;fill:#158488;" d="M103.55,7.45C103.517,7.217,103.6,7,103.8,6.8
		c0.2-0.2,0.467-0.333,0.8-0.4c0.334-0.033,0.634,0,0.9,0.1c0.267,0.133,0.417,0.317,0.45,0.55c0.033,0.233-0.066,0.467-0.3,0.7
		c-0.2,0.2-0.467,0.317-0.801,0.35c-0.333,0.066-0.616,0.033-0.85-0.1C103.733,7.867,103.583,7.683,103.55,7.45z"/>
	<path style="fill-rule:evenodd;clip-rule:evenodd;fill:#158488;" d="M13.85,7.5c-0.033-0.233,0.05-0.45,0.25-0.65
		c0.233-0.167,0.517-0.283,0.85-0.35c0.333-0.033,0.633,0,0.9,0.1c0.233,0.133,0.367,0.316,0.4,0.55C16.317,7.383,16.233,7.6,16,7.8
		c-0.2,0.233-0.467,0.367-0.8,0.4c-0.367,0.066-0.667,0.033-0.9-0.1C14.033,7.933,13.883,7.733,13.85,7.5z"/>
	<path style="fill-rule:evenodd;clip-rule:evenodd;fill:#158488;" d="M141.1,9.3c-0.033-0.233,0.051-0.45,0.25-0.65
		c0.2-0.167,0.467-0.283,0.801-0.35c0.333-0.033,0.633,0,0.899,0.1c0.267,0.133,0.417,0.317,0.45,0.55
		c0.033,0.233-0.05,0.45-0.25,0.65c-0.233,0.2-0.517,0.316-0.85,0.35c-0.334,0.066-0.617,0.033-0.851-0.1
		C141.283,9.717,141.134,9.533,141.1,9.3z"/>
	<path style="fill-rule:evenodd;clip-rule:evenodd;fill:#158488;" d="M95.15,18.85c0.066-0.533,0.5-0.933,1.3-1.199
		c0.833-0.267,1.8-0.334,2.899-0.2c1.101,0.133,2.017,0.434,2.75,0.899c0.733,0.434,1.067,0.917,1,1.45
		c-0.066,0.533-0.517,0.934-1.35,1.2c-0.833,0.3-1.8,0.384-2.9,0.25c-1.1-0.167-2-0.467-2.699-0.9
		C95.417,19.884,95.083,19.384,95.15,18.85z"/>
	<path style="fill-rule:evenodd;clip-rule:evenodd;fill:#158488;" d="M127.6,11.6c-0.133-0.5,0.134-1.033,0.801-1.6
		c0.666-0.567,1.517-1,2.55-1.3c1.1-0.3,2.066-0.383,2.899-0.25c0.867,0.133,1.367,0.466,1.5,1c0.167,0.5-0.083,1.033-0.75,1.6
		c-0.666,0.567-1.533,1-2.6,1.3c-1.066,0.3-2.033,0.383-2.9,0.25C128.233,12.467,127.733,12.133,127.6,11.6z"/>
	<path style="fill-rule:evenodd;clip-rule:evenodd;fill:#158488;" d="M89.55,11.05c0.066-0.333,0.3-0.6,0.7-0.8
		s0.866-0.283,1.4-0.25c0.533,0.067,0.966,0.25,1.3,0.55c0.366,0.3,0.533,0.633,0.5,1s-0.267,0.633-0.7,0.8
		c-0.4,0.2-0.866,0.267-1.4,0.2c-0.533-0.033-0.983-0.2-1.35-0.5C89.667,11.75,89.517,11.417,89.55,11.05z"/>
	<path style="fill-rule:evenodd;clip-rule:evenodd;fill:#158488;" d="M73.65,7.65c0.066-0.433,0.366-0.767,0.899-1
		c0.5-0.233,1.084-0.3,1.75-0.2c0.667,0.133,1.184,0.4,1.55,0.8c0.4,0.4,0.567,0.817,0.5,1.25c-0.066,0.467-0.366,0.817-0.899,1.05
		c-0.533,0.233-1.117,0.284-1.75,0.15c-0.634-0.1-1.15-0.35-1.55-0.75C73.75,8.55,73.583,8.117,73.65,7.65z"/>
	<path style="fill-rule:evenodd;clip-rule:evenodd;fill:#158488;" d="M59.75,13.55c0.067-0.333,0.317-0.583,0.75-0.75
		c0.433-0.167,0.917-0.216,1.45-0.15c0.533,0.1,0.966,0.317,1.3,0.65c0.333,0.333,0.467,0.667,0.4,1
		c-0.033,0.334-0.267,0.584-0.7,0.75c-0.434,0.167-0.917,0.217-1.45,0.15c-0.533-0.101-0.967-0.316-1.3-0.65
		C59.867,14.25,59.717,13.917,59.75,13.55z"/>
	<path style="fill-rule:evenodd;clip-rule:evenodd;fill:#158488;" d="M11.2,10.95c-0.034-0.367,0.117-0.7,0.45-1
		c0.333-0.3,0.767-0.5,1.3-0.6c0.533-0.1,1.017-0.067,1.45,0.1c0.434,0.2,0.667,0.466,0.7,0.8c0.066,0.333-0.067,0.667-0.4,1
		c-0.333,0.3-0.767,0.5-1.3,0.6s-1.017,0.066-1.45-0.1C11.517,11.583,11.267,11.317,11.2,10.95z"/>
	<g>
		<path style="fill-rule:evenodd;clip-rule:evenodd;fill:#158488;" d="M87.9,13.8c0.533,0.4,0.699,0.934,0.5,1.601
			c0.699-0.567,1.449-0.767,2.25-0.601c0.733,0.167,1.267,0.533,1.6,1.101c0.366,0.566,0.333,1.05-0.1,1.449
			c-0.534,0.467-1.5,0.65-2.9,0.551c2.5,1.399,2.967,2.433,1.4,3.1c-0.601,0.233-1.233,0.25-1.9,0.05
			c-0.8-0.233-1.333-0.684-1.6-1.35c0.066,0.566-0.084,1.033-0.45,1.399c-0.434,0.434-1.066,0.551-1.9,0.351
			c-0.833-0.2-1.383-0.55-1.649-1.05c-0.334-0.634,0.017-1.301,1.05-2c-2.233-0.101-3.05-0.834-2.45-2.2
			c0.6-1.334,1.866-1.45,3.8-0.351c-0.733-0.767-0.983-1.383-0.75-1.85c0.167-0.433,0.617-0.667,1.351-0.7
			C86.816,13.267,87.4,13.433,87.9,13.8z M86.35,14.55c0,0.033,0.084,0.3,0.25,0.8c0.134,0.334,0.134,0.584,0,0.75
			c-0.333,0.467-0.816,0.684-1.449,0.65c-1.067,0-1.65,0-1.75,0c0.199,0.066,0.533,0.134,1,0.2c0.399,0.066,0.716,0.166,0.949,0.3
			h-0.5c0.801,0.066,1.084,0.5,0.851,1.3c-0.134,0.4-0.367,0.917-0.7,1.55c0.1-0.1,0.267-0.3,0.5-0.6c0.2-0.3,0.384-0.5,0.55-0.6
			c0.2-0.134,0.5-0.217,0.9-0.25c0.5-0.067,0.733,0.033,0.7,0.3l0.1-0.4c0.366,0.233,0.833,0.601,1.4,1.101
			c-0.434-0.467-0.7-0.834-0.801-1.101c-0.066-0.2-0.066-0.5,0-0.899c0.101-0.434,0.25-0.717,0.45-0.851
			c0.066-0.066,0.334-0.184,0.8-0.35c0.324-0.125,0.558-0.199,0.7-0.226c-0.618,0.086-1.085,0.144-1.399,0.176
			c-0.733,0.1-1.284-0.084-1.65-0.551C86.917,15.217,86.616,14.783,86.35,14.55z"/>
		<path style="fill-rule:evenodd;clip-rule:evenodd;fill:#158488;" d="M86.95,18.05c-0.5-0.066-0.717-0.283-0.65-0.649
			c0.066-0.4,0.334-0.567,0.8-0.5c0.5,0.066,0.717,0.283,0.65,0.649C87.75,17.95,87.483,18.116,86.95,18.05z"/>
	</g>
	<g>
		<path style="fill-rule:evenodd;clip-rule:evenodd;fill:#158488;" d="M51.25,10.9c1.467-0.633,2.4-0.233,2.8,1.2
			c0.4,1.367-0.5,1.667-2.7,0.9c1.566,1.566,1.7,2.45,0.4,2.65c-1.433,0.199-2.217-0.384-2.35-1.75c-0.1,0.433-0.316,0.75-0.65,0.95
			c-0.433,0.267-0.933,0.233-1.5-0.1c-0.567-0.3-0.9-0.684-1-1.15c-0.133-0.567,0.267-1,1.2-1.3c-1.667-0.566-2.117-1.3-1.35-2.2
			c0.733-0.9,1.717-0.717,2.95,0.55C48.25,9.083,48.567,8.467,50,8.8C51.5,9.133,51.917,9.833,51.25,10.9z M51.25,12.05
			c0.067-0.066,0.3-0.1,0.7-0.1c0.288-0.026,0.48-0.035,0.575-0.025c-0.152-0.031-0.527-0.089-1.125-0.175
			c-0.566-0.067-0.933-0.317-1.1-0.75c-0.1-0.567-0.233-0.967-0.4-1.2c0.1,0.667,0.05,1.083-0.15,1.25
			c-0.333,0.267-0.733,0.333-1.2,0.2c-0.833-0.267-1.283-0.4-1.35-0.4c0.3,0.2,0.75,0.467,1.35,0.8l-0.35-0.1
			c0.566,0.233,0.683,0.617,0.35,1.15c-0.5,0.6-0.783,0.966-0.85,1.1c0.1-0.033,0.267-0.167,0.5-0.4c0.2-0.167,0.383-0.267,0.55-0.3
			c0.133-0.067,0.383-0.083,0.75-0.05c0.367,0.067,0.517,0.2,0.45,0.4l0.15-0.3c0.233,0.267,0.5,0.65,0.8,1.15
			c-0.233-0.466-0.35-0.8-0.35-1c-0.033-0.167,0.034-0.4,0.2-0.7C50.917,12.267,51.083,12.083,51.25,12.05z"/>
		<path style="fill-rule:evenodd;clip-rule:evenodd;fill:#158488;" d="M49.6,12.6c-0.367-0.133-0.483-0.35-0.35-0.65
			c0.133-0.233,0.367-0.3,0.7-0.2c0.333,0.167,0.45,0.383,0.35,0.65c-0.033,0.133-0.117,0.217-0.25,0.25S49.767,12.667,49.6,12.6z"
			/>
	</g>
	<g>
		<path style="fill-rule:evenodd;clip-rule:evenodd;fill:#158488;" d="M122.35,7.45c1.601,0.2,2.051,0.633,1.351,1.3
			c-0.733,0.733-1.434,0.75-2.101,0.05c0.134,0.3,0.15,0.583,0.051,0.85c-0.134,0.3-0.434,0.5-0.9,0.6
			c-0.467,0.067-0.816,0-1.05-0.2c-0.334-0.267-0.3-0.7,0.1-1.3c-1.2,0.433-1.783,0.233-1.75-0.6c0-0.833,0.634-1.167,1.9-1
			c-1.134-0.5-1.217-0.983-0.25-1.45c1.033-0.467,1.583-0.267,1.649,0.6c0.567-1,1.284-1.183,2.15-0.55
			C124.333,6.35,123.95,6.917,122.35,7.45z M122.2,6.6c0.178-0.178,0.286-0.278,0.325-0.3c-0.13,0.042-0.371,0.175-0.726,0.4
			c-0.366,0.233-0.7,0.267-1,0.1c-0.267-0.267-0.5-0.433-0.7-0.5l0.301,0.35c0.133,0.167,0.183,0.3,0.149,0.4
			c-0.066,0.3-0.267,0.517-0.6,0.65c-0.601,0.2-0.917,0.316-0.95,0.35c0.233,0,0.616-0.033,1.15-0.1l-0.25,0.1
			c0.433-0.133,0.666,0.017,0.699,0.45c0.034,0.267,0.034,0.6,0,1c0.067-0.4,0.15-0.683,0.25-0.85c0.067-0.1,0.217-0.217,0.45-0.35
			s0.367-0.133,0.4,0V8.1c0.233,0.033,0.55,0.133,0.95,0.3c-0.334-0.167-0.551-0.316-0.65-0.45c-0.066-0.067-0.134-0.217-0.2-0.45
			c-0.033-0.233-0.017-0.417,0.05-0.55C121.884,6.883,122,6.767,122.2,6.6z"/>
		<path style="fill-rule:evenodd;clip-rule:evenodd;fill:#158488;" d="M121.15,8c-0.267,0.067-0.434,0-0.5-0.2
			c-0.067-0.233,0.05-0.383,0.35-0.45c0.233-0.067,0.384,0,0.45,0.2C121.517,7.75,121.417,7.9,121.15,8z"/>
	</g>
	<g>
		<path style="fill-rule:evenodd;clip-rule:evenodd;fill:#158488;" d="M20.5,6.25c1.1,0,1.5,0.417,1.2,1.25
			c0.933-0.7,1.65-0.567,2.15,0.4c0.5,0.9-0.083,1.25-1.75,1.05c1.4,0.867,1.65,1.466,0.75,1.8c-0.967,0.367-1.617,0.083-1.95-0.85
			c0,0.333-0.1,0.6-0.3,0.8c-0.267,0.2-0.633,0.25-1.1,0.15c-0.433-0.133-0.717-0.35-0.85-0.65c-0.2-0.367,0-0.733,0.6-1.1
			c-1.233-0.133-1.667-0.567-1.3-1.3c0.367-0.767,1.083-0.8,2.15-0.1C19.267,6.733,19.4,6.25,20.5,6.25z M21.95,8.1
			c-0.434,0.033-0.733-0.083-0.9-0.35c-0.167-0.367-0.333-0.633-0.5-0.8c0.034,0.1,0.083,0.267,0.15,0.5
			c0.033,0.2,0.017,0.333-0.05,0.4c-0.2,0.233-0.467,0.35-0.8,0.35c-0.633-0.034-0.967-0.05-1-0.05c0.667,0.2,1.033,0.317,1.1,0.35
			l-0.175-0.05C20.141,8.562,20.25,8.812,20.1,9.2c-0.067,0.233-0.217,0.533-0.45,0.9c0.167-0.133,0.383-0.35,0.65-0.65
			c0.1-0.067,0.267-0.117,0.5-0.15c0.267-0.033,0.4,0.034,0.4,0.2l0.05-0.2c0.2,0.1,0.45,0.317,0.75,0.65
			c-0.233-0.3-0.367-0.517-0.4-0.65s-0.017-0.316,0.05-0.55c0.067-0.233,0.15-0.383,0.25-0.45L22.8,8
			C22.733,8,22.45,8.033,21.95,8.1z"/>
		<path style="fill-rule:evenodd;clip-rule:evenodd;fill:#158488;" d="M20.85,8.95c-0.267-0.067-0.4-0.184-0.4-0.35
			c0.066-0.2,0.233-0.3,0.5-0.3c0.233,0.067,0.35,0.2,0.35,0.4C21.233,8.933,21.083,9.017,20.85,8.95z"/>
	</g>
</g>
</svg>
