<?xml version="1.0" encoding="iso-8859-1"?>
<!-- Generator: Adobe Illustrator 15.1.0, SVG Export Plug-In . SVG Version: 6.00 Build 0)  -->
<!DOCTYPE svg PUBLIC "-//W3C//DTD SVG 1.1//EN" "http://www.w3.org/Graphics/SVG/1.1/DTD/svg11.dtd">
<svg version="1.1" id="Layer_3" xmlns="http://www.w3.org/2000/svg" xmlns:xlink="http://www.w3.org/1999/xlink" x="0px" y="0px"
	 width="158.1px" height="78.4px" viewBox="0 0 158.1 78.4" style="enable-background:new 0 0 158.1 78.4;" xml:space="preserve">
<symbol  id="flash0.ai_x5F_0_x2F_Layer_3_x2F__x3C_Path_x3E_" viewBox="-0.005 -3.855 0.955 3.874">
	<g id="Layer_1_7_">
		
			<linearGradient id="SVGID_1_" gradientUnits="userSpaceOnUse" x1="17308.7012" y1="-1251.8613" x2="17313.1953" y2="-1251.8613" gradientTransform="matrix(-0.1391 0.9903 -0.9903 -0.1391 1168.625 -17319.9609)">
			<stop  offset="0" style="stop-color:#217387"/>
			<stop  offset="0.5216" style="stop-color:#4BABA7"/>
			<stop  offset="1" style="stop-color:#BFDEBF"/>
		</linearGradient>
		<path style="fill-rule:evenodd;clip-rule:evenodd;fill:url(#SVGID_1_);" d="M0.95-1.75c0-1.3-0.15-2-0.45-2.1
			C0.167-3.917,0-3.333,0-2.1C-0.033-0.833,0.1-0.133,0.4,0C0.733,0.133,0.917-0.45,0.95-1.75z"/>
	</g>
</symbol>
<symbol  id="flash0.ai_x5F_0_x2F_Layer_3_x2F__x3C_Path_x3E__x5F_0" viewBox="0.032 -3.855 0.973 3.824">
	<g id="Layer_1_8_">
		
			<linearGradient id="SVGID_2_" gradientUnits="userSpaceOnUse" x1="16949.4453" y1="-797.3286" x2="16953.9375" y2="-797.3286" gradientTransform="matrix(-0.089 0.996 -0.996 -0.089 715.6772 -16958.5586)">
			<stop  offset="0" style="stop-color:#217387"/>
			<stop  offset="0.5216" style="stop-color:#4BABA7"/>
			<stop  offset="1" style="stop-color:#BFDEBF"/>
		</linearGradient>
		<path style="fill-rule:evenodd;clip-rule:evenodd;fill:url(#SVGID_2_);" d="M0.55-0.05C0.883,0.083,1.033-0.5,1-1.8
			C0.933-3.1,0.733-3.783,0.4-3.85C0.1-3.917-0.017-3.333,0.05-2.1C0.083-0.833,0.25-0.15,0.55-0.05z"/>
	</g>
</symbol>
<symbol  id="flash0.ai_x5F_0_x2F_Layer_3_x2F__x3C_Path_x3E__x5F_1" viewBox="-0.006 -2.252 0.776 2.26">
	<g id="Layer_1_9_">
		
			<linearGradient id="SVGID_3_" gradientUnits="userSpaceOnUse" x1="16918.9336" y1="-758.0449" x2="16921.5938" y2="-758.0449" gradientTransform="matrix(-0.0846 0.9964 -0.9964 -0.0846 676.5967 -16925.582)">
			<stop  offset="0" style="stop-color:#217387"/>
			<stop  offset="0.5216" style="stop-color:#4BABA7"/>
			<stop  offset="1" style="stop-color:#BFDEBF"/>
		</linearGradient>
		<path style="fill-rule:evenodd;clip-rule:evenodd;fill:url(#SVGID_3_);" d="M0.75-1.05C0.717-1.817,0.567-2.217,0.3-2.25
			C0.067-2.283-0.033-1.933,0-1.2C0.067-0.467,0.217-0.067,0.45,0C0.717,0.067,0.817-0.283,0.75-1.05z"/>
	</g>
</symbol>
<symbol  id="flash0.ai_x5F_0_x2F_Layer_3_x2F__x3C_Path_x3E__x5F_10" viewBox="-0.012 -18.4 12.312 18.428">
	<g id="Layer_1_12_">
		<path style="fill-rule:evenodd;clip-rule:evenodd;fill:#C7D8D5;" d="M8.7-7.05c1.7-3.434,2.9-7.217,3.6-11.35
			c-1.2,4.967-2.883,8.917-5.05,11.85c-1.767,2.333-3.667,3.833-5.7,4.5C0.417-1.65-0.1-1.167,0-0.6c0.1,0.567,0.55,0.75,1.35,0.55
			c1.733-0.4,3.233-1.284,4.5-2.65C6.817-3.7,7.767-5.15,8.7-7.05z"/>
	</g>
</symbol>
<symbol  id="flash0.ai_x5F_0_x2F_Layer_3_x2F__x3C_Path_x3E__x5F_11" viewBox="0.028 -7.575 11.845 7.55">
	<g id="Layer_1_11_">
		
			<radialGradient id="SVGID_4_" cx="-895.2949" cy="-1012.8091" r="5.9535" gradientTransform="matrix(0.9931 -0.1175 -0.0735 -0.6214 820.5728 -738.4038)" gradientUnits="userSpaceOnUse">
			<stop  offset="0" style="stop-color:#827885"/>
			<stop  offset="0.9255" style="stop-color:#827885;stop-opacity:0"/>
		</radialGradient>
		<path style="fill-rule:evenodd;clip-rule:evenodd;fill:url(#SVGID_4_);" d="M11.85-4.5c-0.133-1.033-0.817-1.833-2.05-2.4
			C8.567-7.5,7.133-7.7,5.5-7.5S2.517-6.767,1.45-5.9c-1.067,0.833-1.534,1.767-1.4,2.8S0.867-1.267,2.1-0.7
			c1.233,0.6,2.667,0.8,4.3,0.6c1.633-0.2,2.983-0.733,4.05-1.6C11.517-2.533,11.983-3.467,11.85-4.5z"/>
	</g>
</symbol>
<symbol  id="flash0.ai_x5F_0_x2F_Layer_3_x2F__x3C_Path_x3E__x5F_12" viewBox="0 -2.15 8.977 2.15">
	<g id="Layer_1_22_">
		<path style="fill-rule:evenodd;clip-rule:evenodd;fill:#A89676;" d="M7.75,0c1.3,0,1.567-0.117,0.8-0.35
			C8.383-0.383,7.283-0.633,5.25-1.1C3.617-1.467,1.867-1.817,0-2.15C0.6-1.783,1.367-1.433,2.3-1.1C4.2-0.367,6.017,0,7.75,0z"/>
	</g>
</symbol>
<symbol  id="flash0.ai_x5F_0_x2F_Layer_3_x2F__x3C_Path_x3E__x5F_15" viewBox="0 -28.908 28 28.898">
	<g id="Layer_1_6_">
		
			<linearGradient id="SVGID_5_" gradientUnits="userSpaceOnUse" x1="17560.4824" y1="-1660.6318" x2="17601.4355" y2="-1660.6318" gradientTransform="matrix(-0.1813 0.9834 -0.9834 -0.1813 1567.0059 -17608.5215)">
			<stop  offset="0.0235" style="stop-color:#2B173D"/>
			<stop  offset="0.2196" style="stop-color:#2B1A40"/>
			<stop  offset="0.3647" style="stop-color:#2A2449"/>
			<stop  offset="0.498" style="stop-color:#2A3459"/>
			<stop  offset="0.6196" style="stop-color:#294B70"/>
			<stop  offset="0.7333" style="stop-color:#27688C"/>
			<stop  offset="0.8314" style="stop-color:#2687AB"/>
			<stop  offset="1" style="stop-color:#9CBAB5"/>
		</linearGradient>
		<path style="fill-rule:evenodd;clip-rule:evenodd;fill:url(#SVGID_5_);" d="M0-25.7c0.033,4.367,0.383,8.05,1.05,11.05
			c0.833,3.566,2.284,7.033,4.35,10.4c1.9,3.1,4.317,4.5,7.25,4.2c2.9-0.267,5.6-2.15,8.1-5.65C25.583-12.433,28-20.033,28-28.5
			c-3.333-0.667-7.417-0.517-12.25,0.45c-4.667,1.167-7.633,1.8-8.9,1.9L0-25.7z"/>
	</g>
</symbol>
<symbol  id="flash0.ai_x5F_0_x2F_Layer_3_x2F__x3C_Path_x3E__x5F_16" viewBox="-0.001 -7.458 11.953 7.461">
	<g id="Layer_1_5_">
		
			<radialGradient id="SVGID_6_" cx="-190.001" cy="-203.4629" r="5.9519" gradientTransform="matrix(0.9997 -0.0243 -0.0152 -0.6258 192.7935 -135.6611)" gradientUnits="userSpaceOnUse">
			<stop  offset="0" style="stop-color:#827885"/>
			<stop  offset="0.9255" style="stop-color:#827885;stop-opacity:0"/>
		</radialGradient>
		<path style="fill-rule:evenodd;clip-rule:evenodd;fill:url(#SVGID_6_);" d="M11.95-3.85c-0.034-1.033-0.633-1.9-1.8-2.6
			c-1.2-0.733-2.617-1.066-4.25-1c-1.667,0.034-3.066,0.434-4.2,1.2C0.533-5.483-0.033-4.583,0-3.55c0.033,1.033,0.633,1.9,1.8,2.6
			C3-0.283,4.417,0.033,6.05,0s3.034-0.433,4.2-1.2C11.417-1.933,11.983-2.817,11.95-3.85z"/>
	</g>
</symbol>
<symbol  id="flash0.ai_x5F_0_x2F_Layer_3_x2F__x3C_Path_x3E__x5F_1_x5F_0" viewBox="0 -1.6 9.657 1.581">
	<g id="Layer_1_21_">
		<path style="fill-rule:evenodd;clip-rule:evenodd;fill:#A89676;" d="M8.45-0.35C9.75-0.717,10-0.933,9.2-1
			C7.767-1.067,6.617-1.117,5.75-1.15L0-1.6c0.667,0.4,1.533,0.75,2.6,1.05C4.667,0.083,6.617,0.15,8.45-0.35z"/>
	</g>
</symbol>
<symbol  id="flash0.ai_x5F_0_x2F_Layer_3_x2F__x3C_Path_x3E__x5F_2" viewBox="-0.022 -2.308 0.745 2.325">
	<g id="Layer_1_10_">
		
			<linearGradient id="SVGID_7_" gradientUnits="userSpaceOnUse" x1="17821.3203" y1="-1990.8174" x2="17823.9824" y2="-1990.8174" gradientTransform="matrix(-0.2159 0.9764 -0.9764 -0.2159 1905.2178 -17833.9063)">
			<stop  offset="0" style="stop-color:#217387"/>
			<stop  offset="0.5216" style="stop-color:#4BABA7"/>
			<stop  offset="1" style="stop-color:#BFDEBF"/>
		</linearGradient>
		<path style="fill-rule:evenodd;clip-rule:evenodd;fill:url(#SVGID_7_);" d="M0.7-1c0.066-0.8-0.017-1.233-0.25-1.3
			C0.217-2.367,0.067-2.017,0-1.25C-0.067-0.517,0.017-0.1,0.25,0S0.633-0.233,0.7-1z"/>
	</g>
</symbol>
<symbol  id="flash0.ai_x5F_0_x2F_Layer_3_x2F__x3C_Path_x3E__x5F_20" viewBox="0.064 -29.5 12.836 29.5">
	<g id="Layer_1_4_">
		
			<linearGradient id="SVGID_8_" gradientUnits="userSpaceOnUse" x1="15016.082" y1="1017.2354" x2="15047.0391" y2="1017.2354" gradientTransform="matrix(0.1405 0.9901 -0.9901 0.1405 -1098.1318 -15039.0127)">
			<stop  offset="0.0235" style="stop-color:#2B173D"/>
			<stop  offset="0.2196" style="stop-color:#2B1A40"/>
			<stop  offset="0.3647" style="stop-color:#2A2449"/>
			<stop  offset="0.498" style="stop-color:#2A3459"/>
			<stop  offset="0.6196" style="stop-color:#294B70"/>
			<stop  offset="0.7333" style="stop-color:#27688C"/>
			<stop  offset="0.8314" style="stop-color:#2687AB"/>
			<stop  offset="1" style="stop-color:#9CBAB5"/>
		</linearGradient>
		<path style="fill-rule:evenodd;clip-rule:evenodd;fill:url(#SVGID_8_);" d="M0.75-24.5c0.967,2.4,1.667,4.217,2.1,5.45
			c0.333,0.966,0.883,2.9,1.65,5.8c0.667,2.467,1.283,4.367,1.85,5.7c1,2.367,3.1,4.883,6.3,7.55c0.167-0.233,0.25-1,0.25-2.3
			l-0.2-3.65C11.833-16.483,9.333-24.333,5.2-29.5c-1.167,0.133-2.05,0.25-2.65,0.35c-1.066,0.1-1.867,0.117-2.4,0.05
			c-0.2,0.8-0.05,2.15,0.45,4.05L0.75-24.5z"/>
	</g>
</symbol>
<symbol  id="flash0.ai_x5F_0_x2F_Layer_3_x2F__x3C_Path_x3E__x5F_24" viewBox="-0.036 -22.877 18.312 22.848">
	<g id="Layer_1_3_">
		
			<linearGradient id="SVGID_9_" gradientUnits="userSpaceOnUse" x1="14228.0586" y1="1565.3809" x2="14258.709" y2="1565.3809" gradientTransform="matrix(0.2235 0.9747 -0.9747 0.2235 -1645.9736 -14237.9102)">
			<stop  offset="0.0235" style="stop-color:#2B173D"/>
			<stop  offset="0.2196" style="stop-color:#2B1A40"/>
			<stop  offset="0.3647" style="stop-color:#2A2449"/>
			<stop  offset="0.498" style="stop-color:#2A3459"/>
			<stop  offset="0.6196" style="stop-color:#294B70"/>
			<stop  offset="0.7333" style="stop-color:#27688C"/>
			<stop  offset="0.8314" style="stop-color:#2687AB"/>
			<stop  offset="1" style="stop-color:#9CBAB5"/>
		</linearGradient>
		<path style="fill-rule:evenodd;clip-rule:evenodd;fill:url(#SVGID_9_);" d="M1.1-17.15c1,2.367,2.017,4.35,3.05,5.95
			c3.467,5.1,5.883,8.267,7.25,9.5c2.867,2.6,4.967,2.167,6.3-1.3c0.733-1.833,0.767-4.7,0.1-8.6c-0.7-4.033-1.867-7.4-3.5-10.1
			c-1.433-0.2-2.716-0.316-3.85-0.35c-0.733-0.034-1.717-0.2-2.95-0.5c-2.133-0.467-4.4-0.434-6.8,0.1
			C-0.4-22.183-0.267-20.417,1.1-17.15z"/>
	</g>
</symbol>
<symbol  id="flash0.ai_x5F_0_x2F_Layer_3_x2F__x3C_Path_x3E__x5F_26" viewBox="-0.019 -15.626 127.839 15.57">
	<g id="Layer_1_2_">
		<path style="fill-rule:evenodd;clip-rule:evenodd;fill:#A89676;" d="M123.55-10.05c1.767-0.934,3.083-1.85,3.95-2.75
			c0.8-0.833,0.1-1.2-2.1-1.1c-2.633,0.233-4.267,0.367-4.9,0.4l-7.7,0.45c-6.9,0.333-13.233,0.133-19-0.6
			c-3.466-0.6-6-1.017-7.6-1.25c-2.733-0.4-5.3-0.434-7.7-0.1c-7.367,1.033-13.2,0.967-17.5-0.2c-2.433-0.667-5.833-0.55-10.2,0.35
			c-6.433,1.333-9.85,2.017-10.25,2.05c-5.1,0.533-10.933,0.566-17.5,0.1c-1.7-0.133-7.5-0.7-17.4-1.7
			c-1.833-0.167-2.867-0.25-3.1-0.25C0.983-14.583,0.133-14.167,0-13.4c-0.2,0.967,1.167,2.267,4.1,3.9
			c2.133,1.167,4,2.017,5.6,2.55c11.667,4.267,22.667,6.217,33,5.85c1.333-0.033,3.95-1.167,7.85-3.4
			c3.434-1.933,6.534-2.55,9.3-1.85C64.383-5.217,70.1-3.6,77-1.5c5.733,1.433,11.3,1.8,16.7,1.1
			c8.633-1.067,17.117-3.567,25.45-7.5C121.383-8.967,122.85-9.683,123.55-10.05z"/>
	</g>
</symbol>
<symbol  id="flash0.ai_x5F_0_x2F_Layer_3_x2F__x3C_Path_x3E__x5F_2_x5F_0" viewBox="0 -2.9 25.062 2.867">
	<g id="Layer_1_20_">
		<path style="fill-rule:evenodd;clip-rule:evenodd;fill:#A89676;" d="M21.35-1.1c3.667-1.2,4.617-1.8,2.85-1.8
			c-0.7,0-2.817,0.217-6.35,0.65s-5.833,0.65-6.9,0.65C8.95-1.567,5.3-1.767,0-2.2c2.267,0.434,4.95,1,8.05,1.7
			c2.067,0.467,4.583,0.583,7.55,0.35C18.033-0.35,19.95-0.667,21.35-1.1z"/>
	</g>
</symbol>
<symbol  id="flash0.ai_x5F_0_x2F_Layer_3_x2F__x3C_Path_x3E__x5F_3" viewBox="0 -1.467 18.25 1.458">
	<g id="Layer_1_19_">
		<path style="fill-rule:evenodd;clip-rule:evenodd;fill:#A89676;" d="M0-0.65c1.167,0.3,2.683,0.5,4.55,0.6
			c2.1,0.1,4.1,0.017,6-0.25c2.667-0.333,5.233-0.567,7.7-0.7c-3.4-0.467-6.55-0.583-9.45-0.35L0-0.65z"/>
	</g>
</symbol>
<symbol  id="flash0.ai_x5F_0_x2F_Layer_3_x2F__x3C_Path_x3E__x5F_4" viewBox="-0.006 -1.857 2.817 1.901">
	<g id="Layer_1_18_">
		<path style="fill-rule:evenodd;clip-rule:evenodd;fill:#C7D8D5;" d="M2.6-0.65C2.167-1.25,1.55-1.633,0.75-1.8
			C-0.017-1.967-0.2-1.767,0.2-1.2c0.4,0.6,0.966,0.983,1.7,1.15C2.8,0.183,3.033-0.017,2.6-0.65z"/>
	</g>
</symbol>
<symbol  id="flash0.ai_x5F_0_x2F_Layer_3_x2F__x3C_Path_x3E__x5F_5" viewBox="0 -16.45 9.506 16.479">
	<g id="Layer_1_17_">
		<path style="fill-rule:evenodd;clip-rule:evenodd;fill:#C7D8D5;" d="M4.4-0.15C5.7-0.483,6.683-1.233,7.35-2.4
			c1.4-2.4,2.117-5.467,2.15-9.2c0.033-1.867-0.083-3.483-0.35-4.85C9.283-10.483,8.433-6.2,6.6-3.6C5.8-2.467,4.783-1.767,3.55-1.5
			C3.117-1.4,2.2-1.35,0.8-1.35c-0.4,0-0.65,0.083-0.75,0.25c-0.133,0.2,0,0.383,0.4,0.55C1.817,0.05,3.133,0.183,4.4-0.15z"/>
	</g>
</symbol>
<symbol  id="flash0.ai_x5F_0_x2F_Layer_3_x2F__x3C_Path_x3E__x5F_6" viewBox="-0.02 -6.319 4.434 6.363">
	<g id="Layer_1_16_">
		<path style="fill-rule:evenodd;clip-rule:evenodd;fill:#B0D8D5;" d="M4.4-0.25c0.067-0.367-0.1-0.833-0.5-1.4
			c-0.833-1.333-1.767-2.633-2.8-3.9c-0.533-0.667-0.883-0.9-1.05-0.7c-0.167,0.2-0.033,0.75,0.4,1.65C0.917-3.7,1.5-2.783,2.2-1.85
			C2.867-0.917,3.383-0.333,3.75-0.1C4.15,0.133,4.367,0.083,4.4-0.25z"/>
	</g>
</symbol>
<symbol  id="flash0.ai_x5F_0_x2F_Layer_3_x2F__x3C_Path_x3E__x5F_7" viewBox="-0.033 -1.65 2.428 1.611">
	<g id="Layer_1_15_">
		<path style="fill-rule:evenodd;clip-rule:evenodd;fill:#C7D8D5;" d="M1.75-0.05C2.517,0.017,2.6-0.233,2-0.8
			C1.433-1.367,0.833-1.65,0.2-1.65c-0.367,0-0.3,0.267,0.2,0.8C0.9-0.35,1.35-0.083,1.75-0.05z"/>
	</g>
</symbol>
<symbol  id="flash0.ai_x5F_0_x2F_Layer_3_x2F__x3C_Path_x3E__x5F_8" viewBox="-0.003 -13.45 11.453 13.445">
	<g id="Layer_1_14_">
		<path style="fill-rule:evenodd;clip-rule:evenodd;fill:#C7D8D5;" d="M1.05-0.05c1.8-0.3,3.817-2,6.05-5.1
			c1.467-1.967,2.917-4.733,4.35-8.3c-1.6,2.867-2.9,4.934-3.9,6.2c-2,2.667-4.267,4.55-6.8,5.65C0.217-1.367-0.033-1.017,0-0.55
			C0.033-0.083,0.383,0.083,1.05-0.05z"/>
	</g>
</symbol>
<symbol  id="flash0.ai_x5F_0_x2F_Layer_3_x2F__x3C_Path_x3E__x5F_9" viewBox="-0.03 -2.356 4.288 2.384">
	<g id="Layer_1_13_">
		<path style="fill-rule:evenodd;clip-rule:evenodd;fill:#C7D8D5;" d="M4.25-0.5c-0.033-0.4-0.333-0.667-0.9-0.8
			c-0.533-0.3-1-0.534-1.4-0.7c-0.733-0.367-1.3-0.45-1.7-0.25C-0.217-1.983-0.1-1.583,0.6-1.05C1.3-0.483,2.133-0.133,3.1,0
			C3.933,0.1,4.317-0.067,4.25-0.5z"/>
	</g>
</symbol>
<g>
	
		<linearGradient id="SVGID_10_" gradientUnits="userSpaceOnUse" x1="-70.7764" y1="81.0664" x2="-40.89" y2="81.0664" gradientTransform="matrix(0.0276 -0.9996 0.9996 0.0276 -2.596118e-004 1.860708e-004)">
		<stop  offset="0.0078" style="stop-color:#3E9A9D"/>
		<stop  offset="0.2549" style="stop-color:#439DA0"/>
		<stop  offset="0.5608" style="stop-color:#53A4A7"/>
		<stop  offset="0.8941" style="stop-color:#6CB1B4"/>
		<stop  offset="1" style="stop-color:#75B6B9"/>
	</linearGradient>
	<path style="fill-rule:evenodd;clip-rule:evenodd;fill:url(#SVGID_10_);" d="M93.15,76.75c-8.167,0.2-21.034,0.417-38.601,0.65
		c-17,0.199-30,0.416-39,0.649c-3.966,0.267-7.017,0.367-9.15,0.3c-3.867-0.066-5.95-0.716-6.25-1.949c-0.6-2.667,0.633-5.5,3.7-8.5
		c0.733-0.733,3.35-2.784,7.85-6.15c2.566-1.934,5.6-3.6,9.1-5c2.167-0.9,5.483-2.033,9.95-3.4c3.433-1.1,6.95-1.933,10.55-2.5
		c2.467-0.399,5.867-0.8,10.2-1.199c10.433-1,19.517-1.517,27.25-1.551c10.066-0.033,19.1,0.717,27.1,2.25
		c6.934,1.301,12.617,2.584,17.051,3.851c6,1.666,11.416,3.7,16.25,6.1c4.199,2,7.466,3.667,9.8,5c5.1,2.934,8.1,5.4,9,7.4
		c0.166,0.366,0.184,0.95,0.05,1.75s-0.35,1.316-0.65,1.55c-1.466,1.1-4.916,1.833-10.35,2.2c-4.3,0.267-9.333,0.283-15.1,0.05
		c-8.567-0.467-15.017-0.816-19.351-1.05C104.783,76.767,98.316,76.616,93.15,76.75z"/>
	<g>
		
			<linearGradient id="SVGID_11_" gradientUnits="userSpaceOnUse" x1="-20.6528" y1="105.4961" x2="41.5335" y2="105.4961" gradientTransform="matrix(0.3184 -0.948 0.948 0.3184 6.800890e-005 3.613234e-004)">
			<stop  offset="0.0235" style="stop-color:#2B1736"/>
			<stop  offset="0.2431" style="stop-color:#2B1A38"/>
			<stop  offset="0.4078" style="stop-color:#2B2440"/>
			<stop  offset="0.5529" style="stop-color:#2C344D"/>
			<stop  offset="0.6902" style="stop-color:#2D4B60"/>
			<stop  offset="0.8157" style="stop-color:#2E6877"/>
			<stop  offset="0.8314" style="stop-color:#2E6B7A"/>
			<stop  offset="1" style="stop-color:#61BAD6"/>
		</linearGradient>
		<path style="fill-rule:evenodd;clip-rule:evenodd;fill:url(#SVGID_11_);" d="M118.025,0c-1.605,0.643-3.431,1.759-5.476,3.35
			c-4.767,3.733-8.583,8.883-11.45,15.45c-2.267,5.267-4.35,11.983-6.25,20.15c-0.933,4.1-1.649,7.666-2.149,10.7L89,46.3
			c1.2-3.6,2.566-7.533,4.1-11.8c3.134-8.5,5.634-14.383,7.5-17.65C105.75,7.958,111.558,2.341,118.025,0z"/>
		
			<linearGradient id="SVGID_12_" gradientUnits="userSpaceOnUse" x1="-18.5903" y1="107.665" x2="28.4803" y2="107.665" gradientTransform="matrix(0.3181 -0.948 0.948 0.3181 1.751482e-004 -8.821487e-006)">
			<stop  offset="0.0235" style="stop-color:#2B1736"/>
			<stop  offset="0.2431" style="stop-color:#2B1A38"/>
			<stop  offset="0.4078" style="stop-color:#2B2440"/>
			<stop  offset="0.5529" style="stop-color:#2C344D"/>
			<stop  offset="0.6902" style="stop-color:#2D4B60"/>
			<stop  offset="0.8157" style="stop-color:#2E6877"/>
			<stop  offset="0.8314" style="stop-color:#2E6B7A"/>
			<stop  offset="1" style="stop-color:#61BAD6"/>
		</linearGradient>
		<path style="fill-rule:evenodd;clip-rule:evenodd;fill:url(#SVGID_12_);" d="M110.95,14.35c-3.9,2.8-7,6.65-9.3,11.55
			c-1.867,3.934-3.567,8.95-5.101,15.05c-0.767,3.066-1.35,5.733-1.75,8l-2.95-2.5c0.967-2.7,2.067-5.634,3.301-8.8
			c2.5-6.367,4.517-10.767,6.05-13.2c4.325-6.849,9.184-11.107,14.575-12.775C114.371,12.146,112.763,13.038,110.95,14.35z"/>
		<linearGradient id="SVGID_13_" gradientUnits="userSpaceOnUse" x1="43.8755" y1="17.354" x2="28.6786" y2="62.63">
			<stop  offset="0" style="stop-color:#61BAD6"/>
			<stop  offset="0.1686" style="stop-color:#2E6B7A"/>
			<stop  offset="0.1804" style="stop-color:#2E6877"/>
			<stop  offset="0.3098" style="stop-color:#2D4B60"/>
			<stop  offset="0.4471" style="stop-color:#2C344D"/>
			<stop  offset="0.5922" style="stop-color:#2B2440"/>
			<stop  offset="0.7569" style="stop-color:#2B1A38"/>
			<stop  offset="0.9765" style="stop-color:#2B1736"/>
		</linearGradient>
		<path style="fill-rule:evenodd;clip-rule:evenodd;fill:url(#SVGID_13_);" d="M38.7,36.4c-2.333-4.9-5.45-8.75-9.35-11.55
			l-5.2-2.75c5.6,1.7,10.6,5.983,15,12.85c1.567,2.433,3.633,6.833,6.2,13.2C46.617,51.35,47.733,54.3,48.7,57l-3.05,2.5
			c-0.4-2.267-0.983-4.934-1.75-8C42.333,45.366,40.6,40.333,38.7,36.4z"/>
		<linearGradient id="SVGID_14_" gradientUnits="userSpaceOnUse" x1="56.894" y1="14.1611" x2="38.3171" y2="46.76">
			<stop  offset="0" style="stop-color:#61BAD6"/>
			<stop  offset="0.1686" style="stop-color:#2E6B7A"/>
			<stop  offset="0.1804" style="stop-color:#2E6877"/>
			<stop  offset="0.3098" style="stop-color:#2D4B60"/>
			<stop  offset="0.4471" style="stop-color:#2C344D"/>
			<stop  offset="0.5922" style="stop-color:#2B2440"/>
			<stop  offset="0.7569" style="stop-color:#2B1A38"/>
			<stop  offset="0.9765" style="stop-color:#2B1736"/>
		</linearGradient>
		<path style="fill-rule:evenodd;clip-rule:evenodd;fill:url(#SVGID_14_);" d="M52.2,48.95c0.133-9.2-0.217-16.85-1.05-22.95
			c-1.033-7.633-3.2-13.883-6.5-18.75c-1.033-1.5-2.1-2.783-3.2-3.85l-1.4-1.15C45.35,5.717,49.333,12.967,52,24
			c0.933,3.833,1.817,10.633,2.65,20.4c0.4,4.899,0.717,9.399,0.95,13.5l-3.85,3C51.983,57.533,52.133,53.55,52.2,48.95z"/>
		<linearGradient id="SVGID_15_" gradientUnits="userSpaceOnUse" x1="53.2773" y1="28.8853" x2="37.4534" y2="56.6609">
			<stop  offset="0" style="stop-color:#61BAD6"/>
			<stop  offset="0.1686" style="stop-color:#2E6B7A"/>
			<stop  offset="0.1804" style="stop-color:#2E6877"/>
			<stop  offset="0.3098" style="stop-color:#2D4B60"/>
			<stop  offset="0.4471" style="stop-color:#2C344D"/>
			<stop  offset="0.5922" style="stop-color:#2B2440"/>
			<stop  offset="0.7569" style="stop-color:#2B1A38"/>
			<stop  offset="0.9765" style="stop-color:#2B1736"/>
		</linearGradient>
		<path style="fill-rule:evenodd;clip-rule:evenodd;fill:url(#SVGID_15_);" d="M47.9,41.05c-1.467-3.533-3.767-6.517-6.9-8.95
			l-4.25-2.6c4.7,2,8.6,5.567,11.7,10.7c1.733,2.899,3.633,8.083,5.7,15.55L51.2,56.8c-0.067-1.5-0.267-3.283-0.6-5.35
			C49.967,47.316,49.067,43.85,47.9,41.05z"/>
		
			<linearGradient id="SVGID_16_" gradientUnits="userSpaceOnUse" x1="4.0942" y1="135.4648" x2="29.9369" y2="135.4648" gradientTransform="matrix(0.4953 -0.8687 0.8687 0.4953 4.845858e-004 1.420975e-004)">
			<stop  offset="0.0235" style="stop-color:#2B1736"/>
			<stop  offset="0.2431" style="stop-color:#2B1A38"/>
			<stop  offset="0.4078" style="stop-color:#2B2440"/>
			<stop  offset="0.5529" style="stop-color:#2C344D"/>
			<stop  offset="0.6902" style="stop-color:#2D4B60"/>
			<stop  offset="0.8157" style="stop-color:#2E6877"/>
			<stop  offset="0.8314" style="stop-color:#2E6B7A"/>
			<stop  offset="1" style="stop-color:#61BAD6"/>
		</linearGradient>
		<path style="fill-rule:evenodd;clip-rule:evenodd;fill:url(#SVGID_16_);" d="M133.1,45.9c-3.1,0.866-5.733,2.366-7.899,4.5
			c-1.733,1.733-3.45,4.033-5.15,6.899L118,61.05l-1.95-1.649l3.3-3.95c2.434-2.867,4.334-4.8,5.7-5.8
			c3.549-2.654,7.24-4.104,11.075-4.351C135.231,45.383,134.224,45.582,133.1,45.9z"/>
		
			<use xlink:href="#flash0.ai_x5F_0_x2F_Layer_3_x2F__x3C_Path_x3E__x5F_26"  width="127.839" height="15.57" x="-0.019" y="-15.626" transform="matrix(1 0 0 -1 13.8999 51.2002)" style="overflow:visible;opacity:0.4414;enable-background:new    ;"/>
		<g>
			
				<radialGradient id="SVGID_17_" cx="-74.9814" cy="-47.7671" r="112.54" gradientTransform="matrix(-0.9996 -0.0267 0.0113 -0.174 -2.5637 39.3877)" gradientUnits="userSpaceOnUse">
				<stop  offset="0" style="stop-color:#81C48F"/>
				<stop  offset="0.2078" style="stop-color:#4BABA7"/>
				<stop  offset="0.5922" style="stop-color:#217387"/>
				<stop  offset="1" style="stop-color:#00140C"/>
			</radialGradient>
			<path style="fill-rule:evenodd;clip-rule:evenodd;fill:url(#SVGID_17_);" d="M90.9,51.45c3.366,0.033,9,0.55,16.899,1.55
				c4.733,0.566,7.533,0.934,8.4,1.1c1.8,0.367,4.533,1.184,8.2,2.45c4.233,1.467,7.333,2.767,9.3,3.9
				c1.866,1.033,2.017,1.467,0.45,1.3c-2.567-0.233-4.551-0.35-5.95-0.35l-2-0.7c-4.334-1.533-7.351-2.584-9.05-3.15
				c-2.7-0.866-5.767-1.517-9.2-1.95c-7.9-0.966-13.517-1.466-16.851-1.5c-5.433-0.033-11.216,0.7-17.35,2.2
				c-3.1,0.8-6.85,1.167-11.25,1.101c-4.7-0.2-7.967-0.334-9.8-0.4c-5.267-0.167-10.233,0.35-14.9,1.55
				c-3.3,0.867-6.633,2.15-10,3.851c-3.233,0.333-5.466,0.533-6.7,0.6c-1.5-0.033-1.617-0.566-0.35-1.6
				c1.267-1,3.417-2.084,6.45-3.25c8.066-3.134,16.133-4.567,24.2-4.301c1.8,0.067,5.25,0.301,10.35,0.7
				c4.833,0.2,8.783-0.083,11.85-0.85C79.733,52.167,85.5,51.417,90.9,51.45z"/>
			
				<radialGradient id="SVGID_18_" cx="-75.6304" cy="-44.7437" r="110.5519" gradientTransform="matrix(-0.9996 -0.0267 0.0113 -0.174 -2.3973 36.8962)" gradientUnits="userSpaceOnUse">
				<stop  offset="0" style="stop-color:#81C48F"/>
				<stop  offset="0.2078" style="stop-color:#4BABA7"/>
				<stop  offset="0.5922" style="stop-color:#217387"/>
				<stop  offset="1" style="stop-color:#00140C"/>
			</radialGradient>
			<path style="fill-rule:evenodd;clip-rule:evenodd;fill:url(#SVGID_18_);" d="M91.1,54.1c3.334,0.034,8.95,0.534,16.851,1.5
				c3.434,0.434,6.5,1.084,9.2,1.95c1.699,0.566,4.716,1.617,9.05,3.15l2,0.7c-3.834,0-8.066,0.216-12.7,0.649
				c-3.9,0.334-6.4,0.634-7.5,0.9c-3.967,0.967-6.417,1.517-7.35,1.649c-2.434,0.367-4.934,0.367-7.5,0
				c-7.267-1.066-13.284-1.233-18.05-0.5c-2.5,0.4-5.717,0.301-9.65-0.3c-4.367-0.8-7.6-1.3-9.7-1.5
				c-6.067-0.6-11.633-0.833-16.7-0.7c-3.167,0.067-6.917,0.334-11.25,0.801c3.367-1.7,6.7-2.983,10-3.851
				c4.667-1.2,9.633-1.717,14.9-1.55c1.833,0.066,5.1,0.2,9.8,0.4c4.4,0.066,8.15-0.301,11.25-1.101
				C79.884,54.8,85.667,54.066,91.1,54.1z"/>
			
				<radialGradient id="SVGID_19_" cx="-73.1738" cy="-44.6587" r="110.5519" gradientTransform="matrix(-0.9996 -0.0267 0.0113 -0.174 -2.3927 36.8261)" gradientUnits="userSpaceOnUse">
				<stop  offset="0" style="stop-color:#81C48F"/>
				<stop  offset="0.2078" style="stop-color:#4BABA7"/>
				<stop  offset="0.5922" style="stop-color:#217387"/>
				<stop  offset="1" style="stop-color:#00140C"/>
			</radialGradient>
			<path style="fill-rule:evenodd;clip-rule:evenodd;fill:url(#SVGID_19_);" d="M91.1,54.1c3.334,0.034,8.95,0.534,16.851,1.5
				c3.434,0.434,6.5,1.084,9.2,1.95c1.699,0.566,4.716,1.617,9.05,3.15l2,0.7c-3.834,0-8.066,0.216-12.7,0.649
				c-3.9,0.334-6.4,0.634-7.5,0.9c-3.967,0.967-6.417,1.517-7.35,1.649c-2.434,0.367-4.934,0.367-7.5,0
				c-7.267-1.066-13.284-1.233-18.05-0.5c-2.5,0.4-5.717,0.301-9.65-0.3c-4.367-0.8-7.6-1.3-9.7-1.5
				c-6.067-0.6-11.633-0.833-16.7-0.7c-3.167,0.067-6.917,0.334-11.25,0.801c0.233-1.034,2.967-2.2,8.2-3.5
				c5.733-1.434,11.3-2.067,16.7-1.9c1.833,0.066,5.1,0.2,9.8,0.4c4.4,0.066,8.15-0.301,11.25-1.101
				C79.884,54.8,85.667,54.066,91.1,54.1z"/>
		</g>
		
			<linearGradient id="SVGID_20_" gradientUnits="userSpaceOnUse" x1="-33.9531" y1="123.4443" x2="-6.8144" y2="123.4443" gradientTransform="matrix(0.2239 -0.9746 0.9746 0.2239 -2.901107e-004 3.571510e-004)">
			<stop  offset="0.0235" style="stop-color:#2B1736"/>
			<stop  offset="0.2431" style="stop-color:#2D1A37"/>
			<stop  offset="0.4078" style="stop-color:#34243C"/>
			<stop  offset="0.5529" style="stop-color:#3F3443"/>
			<stop  offset="0.6902" style="stop-color:#4F4B4D"/>
			<stop  offset="0.8157" style="stop-color:#64685A"/>
			<stop  offset="0.8314" style="stop-color:#666B5C"/>
			<stop  offset="1" style="stop-color:#9CBAB5"/>
		</linearGradient>
		<path style="fill-rule:evenodd;clip-rule:evenodd;fill:url(#SVGID_20_);" d="M114.75,43.5c2.8-1.566,4.9-0.55,6.3,3.05
			c0.7,1.767,1.134,4.434,1.3,8c0.167,3.566-0.033,5.9-0.6,7c-1.434,0.2-3.4,0.367-5.9,0.5c-2.1,0.101-3.767,0.283-5,0.55
			c-2.233,0.534-4.483,0.5-6.75-0.1c-1.1-0.267-0.966-2.033,0.4-5.3c1-2.5,2.017-4.483,3.05-5.95
			C110.25,47.283,112.65,44.7,114.75,43.5z"/>
		
			<use xlink:href="#flash0.ai_x5F_0_x2F_Layer_3_x2F__x3C_Path_x3E__x5F_24"  width="18.312" height="22.848" x="-0.036" y="-22.877" transform="matrix(1 0 0 -1 99.2002 40.5)" style="overflow:visible;opacity:0.25;enable-background:new    ;"/>
		
			<linearGradient id="SVGID_21_" gradientUnits="userSpaceOnUse" x1="-48.9609" y1="59.5566" x2="-31.2101" y2="59.5566" gradientTransform="matrix(0.2239 -0.9746 0.9746 0.2239 0 -3.429651e-004)">
			<stop  offset="0.0235" style="stop-color:#2B173D"/>
			<stop  offset="0.2118" style="stop-color:#2B1A40"/>
			<stop  offset="0.3529" style="stop-color:#2C2448"/>
			<stop  offset="0.4784" style="stop-color:#2E3456"/>
			<stop  offset="0.5922" style="stop-color:#304B6A"/>
			<stop  offset="0.7059" style="stop-color:#336884"/>
			<stop  offset="0.8078" style="stop-color:#378CA4"/>
			<stop  offset="0.8314" style="stop-color:#3894AB"/>
			<stop  offset="1" style="stop-color:#9CBAB5"/>
		</linearGradient>
		<path style="fill-rule:evenodd;clip-rule:evenodd;fill:url(#SVGID_21_);" d="M38.2,61.45c0-1.101,0.7-2.733,2.1-4.9
			c1.133-1.8,2.05-3.033,2.75-3.7c2.833-2.767,5.233-3.933,7.2-3.5c1.3,0.267,2.9,1.601,4.8,4c0.7,0.867,1.133,2.167,1.3,3.9
			c0.167,1.733-0.033,2.866-0.6,3.4c-1.533,0.1-2.817,0.333-3.85,0.699c-0.8,0.301-1.8,0.417-3,0.351
			C44.2,61.467,40.633,61.384,38.2,61.45z"/>
		
			<linearGradient id="SVGID_22_" gradientUnits="userSpaceOnUse" x1="-76.2061" y1="96.5879" x2="-25.1789" y2="96.5879" gradientTransform="matrix(-0.0706 -0.9975 0.9975 -0.0706 -1.000091e-004 -7.433295e-004)">
			<stop  offset="0" style="stop-color:#230F36"/>
			<stop  offset="0.1882" style="stop-color:#231238"/>
			<stop  offset="0.3294" style="stop-color:#231C3D"/>
			<stop  offset="0.4549" style="stop-color:#242C46"/>
			<stop  offset="0.5725" style="stop-color:#244353"/>
			<stop  offset="0.6824" style="stop-color:#256064"/>
			<stop  offset="0.7882" style="stop-color:#268479"/>
			<stop  offset="0.8314" style="stop-color:#269482"/>
			<stop  offset="1" style="stop-color:#9CBAB5"/>
		</linearGradient>
		<path style="fill-rule:evenodd;clip-rule:evenodd;fill:url(#SVGID_22_);" d="M87.35,46.15C88.816,43.217,90.7,40.4,93,37.7
			c2.333-2.7,4.85-4.983,7.55-6.85c2.566-1.733,5-2.867,7.3-3.4c2.834-0.633,5.017-0.184,6.551,1.35c1.533,1.534,2.55,4.2,3.05,8
			c0.467,3.233,0.483,6.033,0.05,8.4c-0.667,3.899-1.667,7.434-3,10.6c-1.3,3.033-2.667,5.267-4.1,6.7
			c-4.934,1.2-7.801,1.866-8.601,2c-2.7,0.5-5.184,0.6-7.45,0.3c-0.466-0.066-2.25-0.25-5.35-0.55c-2.2-0.233-3.983-0.517-5.35-0.85
			c-0.934-0.233-0.667-3,0.8-8.301C85.684,50.566,86.65,47.583,87.35,46.15z"/>
		
			<linearGradient id="SVGID_23_" gradientUnits="userSpaceOnUse" x1="-21.2446" y1="112.8447" x2="17.5615" y2="112.8447" gradientTransform="matrix(0.4265 -0.9045 0.9045 0.4265 7.250905e-005 -1.333356e-004)">
			<stop  offset="0.0235" style="stop-color:#2B1736"/>
			<stop  offset="0.0588" style="stop-color:#2D203D"/>
			<stop  offset="0.3451" style="stop-color:#405F71"/>
			<stop  offset="0.4784" style="stop-color:#477885"/>
			<stop  offset="1" style="stop-color:#AAC4CF"/>
		</linearGradient>
		<path style="fill-rule:evenodd;clip-rule:evenodd;fill:url(#SVGID_23_);" d="M100.95,37.65c4.7-2.6,7.934-2.983,9.7-1.15
			c1.466,1.5,2.267,3.934,2.399,7.3c0.101,2.5-0.133,4.95-0.7,7.351c-0.566,2.433-1.333,4.8-2.3,7.1s-1.883,3.9-2.75,4.8
			c-2.733,0.834-5.033,1.351-6.899,1.55c-1.934,0.233-3.983,0.217-6.15-0.05c-4.833-0.566-8.15-1.066-9.95-1.5
			c-0.8-0.2-0.383-2.383,1.25-6.55c1.4-3.5,2.467-5.85,3.2-7.05C91.917,44.283,95.983,40.35,100.95,37.65z"/>
		
			<use xlink:href="#flash0.ai_x5F_0_x2F_Layer_3_x2F__x3C_Path_x3E__x5F_20"  width="12.836" height="29.5" x="0.064" y="-29.5" transform="matrix(1 0 0 -1 83.2998 34.6499)" style="overflow:visible;opacity:0.25;enable-background:new    ;"/>
		
			<linearGradient id="SVGID_24_" gradientUnits="userSpaceOnUse" x1="-52.5342" y1="81.5127" x2="6.5764" y2="81.5127" gradientTransform="matrix(0.1404 -0.9901 0.9901 0.1404 6.529689e-005 3.936887e-004)">
			<stop  offset="0.0235" style="stop-color:#2B173D"/>
			<stop  offset="0.2196" style="stop-color:#2B1A40"/>
			<stop  offset="0.3647" style="stop-color:#2A2449"/>
			<stop  offset="0.498" style="stop-color:#2A3459"/>
			<stop  offset="0.6196" style="stop-color:#294B70"/>
			<stop  offset="0.7333" style="stop-color:#27688C"/>
			<stop  offset="0.8314" style="stop-color:#2687AB"/>
			<stop  offset="1" style="stop-color:#9CBAB5"/>
		</linearGradient>
		<path style="fill-rule:evenodd;clip-rule:evenodd;fill:url(#SVGID_24_);" d="M88.7,12.15c1.967,2.8,3.5,6.45,4.6,10.95
			c1,4.033,1.434,7.85,1.3,11.45c-0.166,4.667-0.616,8.7-1.35,12.101c-1.434,6.899-3.967,12.6-7.6,17.1
			c-2.767-0.233-5.467-0.25-8.101-0.05c-3.1,0.3-5.7,0.517-7.8,0.649c-1,0.067-2.767-0.916-5.3-2.949c-2.534-2-3.867-3.483-4-4.45
			l-0.8-7.5c-0.2-1.566-0.333-2.717-0.4-3.45c-0.167-1.233-0.233-2.4-0.2-3.5C59.483,29.633,63,19.8,69.6,13
			C77.233,5.133,83.6,4.85,88.7,12.15z"/>
		
			<linearGradient id="SVGID_25_" gradientUnits="userSpaceOnUse" x1="-55.6509" y1="81.4277" x2="12.0752" y2="81.4277" gradientTransform="matrix(0.1244 -0.9922 0.9922 0.1244 -2.841651e-005 3.965497e-004)">
			<stop  offset="0.0235" style="stop-color:#2B173D"/>
			<stop  offset="0.2118" style="stop-color:#2B1A40"/>
			<stop  offset="0.3529" style="stop-color:#2C2448"/>
			<stop  offset="0.4784" style="stop-color:#2E3456"/>
			<stop  offset="0.5922" style="stop-color:#304B6A"/>
			<stop  offset="0.7059" style="stop-color:#336884"/>
			<stop  offset="0.8078" style="stop-color:#378CA4"/>
			<stop  offset="0.8314" style="stop-color:#3894AB"/>
			<stop  offset="1" style="stop-color:#9CBAB5"/>
		</linearGradient>
		<path style="fill-rule:evenodd;clip-rule:evenodd;fill:url(#SVGID_25_);" d="M86.4,19.45c3.666,5.133,5.316,11.5,4.949,19.1
			c-0.233,4.867-1.216,9.717-2.949,14.55C86.767,57.7,84.967,60.967,83,62.9c-1.833,0.033-4.1,0.149-6.8,0.35
			c-2.733,0.2-4.983,0.316-6.75,0.35c-1.067,0.034-2.3-1.866-3.7-5.699c-1.667-4.5-2.583-9.75-2.75-15.75
			c-0.133-4.267,0.417-8.4,1.65-12.4c1.4-4.567,3.5-8.167,6.3-10.8C77.017,13.317,82.167,13.483,86.4,19.45z"/>
		
			<linearGradient id="SVGID_26_" gradientUnits="userSpaceOnUse" x1="-56.2983" y1="81.2549" x2="-18.353" y2="81.2549" gradientTransform="matrix(0.1245 -0.9922 0.9922 0.1245 -3.612787e-005 3.023148e-004)">
			<stop  offset="0.0235" style="stop-color:#2B1736"/>
			<stop  offset="0.0588" style="stop-color:#2D203D"/>
			<stop  offset="0.3451" style="stop-color:#405F71"/>
			<stop  offset="0.4784" style="stop-color:#477885"/>
			<stop  offset="1" style="stop-color:#9CBAB5"/>
		</linearGradient>
		<path style="fill-rule:evenodd;clip-rule:evenodd;fill:url(#SVGID_26_);" d="M85.45,22.2c3.233,4.733,4.684,10.75,4.35,18.05
			c-0.233,4.7-1.133,9.366-2.7,14c-1.533,4.434-3.199,7.566-5,9.4C80.4,63.684,78.3,63.8,75.8,64c-2.5,0.167-4.566,0.267-6.2,0.3
			c-0.967,0.033-2.1-1.783-3.4-5.45c-1.5-4.333-2.333-9.366-2.5-15.1c-0.1-4,0.466-7.883,1.7-11.65
			c1.4-4.133,3.417-7.483,6.05-10.05C77.017,16.617,81.684,16.667,85.45,22.2z"/>
		
			<use xlink:href="#flash0.ai_x5F_0_x2F_Layer_3_x2F__x3C_Path_x3E__x5F_16"  width="11.953" height="7.461" x="-0.001" y="-7.458" transform="matrix(1 0 0 -1 61.9502 39.5498)" style="overflow:visible;opacity:0.5508;enable-background:new    ;"/>
		
			<use xlink:href="#flash0.ai_x5F_0_x2F_Layer_3_x2F__x3C_Path_x3E__x5F_15"  width="28" height="28.898" y="-28.908" transform="matrix(1 0 0 -1 47.1001 35.5498)" style="overflow:visible;opacity:0.1484;enable-background:new    ;"/>
		
			<linearGradient id="SVGID_27_" gradientUnits="userSpaceOnUse" x1="-83.5723" y1="47.9922" x2="-42.2899" y2="47.9922" gradientTransform="matrix(-0.1811 -0.9835 0.9835 -0.1811 2.254546e-005 3.021359e-004)">
			<stop  offset="0" style="stop-color:#2B1736"/>
			<stop  offset="0.1451" style="stop-color:#2B1739"/>
			<stop  offset="0.2549" style="stop-color:#2B1743"/>
			<stop  offset="0.3333" style="stop-color:#2B174F"/>
			<stop  offset="0.8314" style="stop-color:#546BA6"/>
			<stop  offset="1" style="stop-color:#9CBA8F"/>
		</linearGradient>
		<path style="fill-rule:evenodd;clip-rule:evenodd;fill:url(#SVGID_27_);" d="M51.65,40c2.6-3.533,5.1-5.167,7.5-4.9
			c2.2,0.267,4.6,2.2,7.2,5.8c4.933,6.933,7.4,14.649,7.4,23.149c-2.567,0.533-6.333,0.384-11.3-0.45
			c-4.967-1.033-8.083-1.6-9.35-1.699l-6.85-0.45c0.033-4.9,0.317-8.634,0.85-11.2C47.867,46.483,49.383,43.066,51.65,40z"/>
		
			<linearGradient id="SVGID_28_" gradientUnits="userSpaceOnUse" x1="-78.0806" y1="47.8223" x2="-38.0391" y2="47.8223" gradientTransform="matrix(-0.1817 -0.9834 0.9834 -0.1817 -4.094839e-005 7.241368e-004)">
			<stop  offset="0.0235" style="stop-color:#2B1736"/>
			<stop  offset="0.2275" style="stop-color:#2C1939"/>
			<stop  offset="0.3804" style="stop-color:#302143"/>
			<stop  offset="0.5137" style="stop-color:#372F53"/>
			<stop  offset="0.6431" style="stop-color:#40416A"/>
			<stop  offset="0.7608" style="stop-color:#4B5987"/>
			<stop  offset="0.8314" style="stop-color:#546B9C"/>
			<stop  offset="1" style="stop-color:#9CBAB5"/>
		</linearGradient>
		<path style="fill-rule:evenodd;clip-rule:evenodd;fill:url(#SVGID_28_);" d="M53.05,43.7c1.867-2.9,3.9-4.233,6.1-4
			c2,0.267,4,1.833,6,4.7c1.867,2.666,3.167,5.783,3.9,9.35c0.667,3.333,0.784,6.767,0.35,10.3c-1.367,0.267-3.816,0.033-7.35-0.7
			c-4.367-0.899-6.917-1.383-7.65-1.449c-0.9-0.067-1.75-0.101-2.55-0.101c-1.033,0-1.8-0.017-2.3-0.05
			C48.95,54.25,50.117,48.233,53.05,43.7z"/>
		
			<linearGradient id="SVGID_29_" gradientUnits="userSpaceOnUse" x1="-77.9336" y1="47.3271" x2="-44.9627" y2="47.3271" gradientTransform="matrix(-0.1812 -0.9834 0.9834 -0.1812 -1.721829e-004 -7.549524e-004)">
			<stop  offset="0.0235" style="stop-color:#2B1736"/>
			<stop  offset="0.0588" style="stop-color:#2D203D"/>
			<stop  offset="0.3451" style="stop-color:#405F71"/>
			<stop  offset="0.4784" style="stop-color:#477885"/>
			<stop  offset="1" style="stop-color:#A7C6CF"/>
		</linearGradient>
		<path style="fill-rule:evenodd;clip-rule:evenodd;fill:url(#SVGID_29_);" d="M54.65,45.7c1.3-2.066,2.95-3.017,4.95-2.851
			c1.967,0.134,3.566,1.267,4.8,3.4c2.8,5,4.417,10.983,4.85,17.95c-1.8,0.1-4.433-0.184-7.9-0.851
			c-4.033-0.767-6.2-1.166-6.5-1.199c-2.167-0.267-3.85-0.417-5.05-0.45c0.733-4.334,1.3-7.217,1.7-8.65
			C52.2,50.417,53.25,47.967,54.65,45.7z"/>
		<g>
			
				<radialGradient id="SVGID_30_" cx="86.8496" cy="39" r="8" gradientTransform="matrix(1 0 0 -1 0 78)" gradientUnits="userSpaceOnUse">
				<stop  offset="0" style="stop-color:#217387"/>
				<stop  offset="1" style="stop-color:#20141B"/>
			</radialGradient>
			<path style="fill-rule:evenodd;clip-rule:evenodd;fill:url(#SVGID_30_);" d="M81.2,31.9c1.6-0.833,2.267,0.717,2,4.65
				c-0.3,3.9-1.2,5.983-2.7,6.25c-1.434,0.233-1.983-1.366-1.65-4.8C79.15,34.6,79.934,32.567,81.2,31.9z"/>
			
				<radialGradient id="SVGID_31_" cx="84.6504" cy="38.75" r="6.0125" gradientTransform="matrix(1 0 0 -1 0 77.5)" gradientUnits="userSpaceOnUse">
				<stop  offset="0" style="stop-color:#217387"/>
				<stop  offset="1" style="stop-color:#20141B"/>
			</radialGradient>
			<path style="fill-rule:evenodd;clip-rule:evenodd;fill:url(#SVGID_31_);" d="M81.05,33.4c1.2-0.633,1.7,0.533,1.5,3.5
				c-0.233,2.967-0.899,4.534-2,4.7c-1.066,0.167-1.483-1.033-1.25-3.6C79.533,35.433,80.116,33.9,81.05,33.4z"/>
			
				<use xlink:href="#flash0.ai_x5F_0_x2F_Layer_3_x2F__x3C_Path_x3E_"  width="0.955" height="3.874" x="-0.005" y="-3.855" transform="matrix(1 0 0 -1 81.4502 33.1499)" style="overflow:visible;opacity:0.2305;enable-background:new    ;"/>
		</g>
		<g>
			
				<radialGradient id="SVGID_32_" cx="74.6016" cy="45.2344" r="8.0026" gradientTransform="matrix(0.995 -0.1 -0.1 -0.995 9.0443 90.0154)" gradientUnits="userSpaceOnUse">
				<stop  offset="0" style="stop-color:#217387"/>
				<stop  offset="1" style="stop-color:#20141B"/>
			</radialGradient>
			<path style="fill-rule:evenodd;clip-rule:evenodd;fill:url(#SVGID_32_);" d="M72.45,31.05c1.5-1,2.316,0.467,2.45,4.4
				c0.133,3.966-0.55,6.133-2.05,6.5c-1.4,0.366-2.117-1.167-2.15-4.6C70.7,33.95,71.283,31.85,72.45,31.05z"/>
			
				<radialGradient id="SVGID_33_" cx="72.4292" cy="44.9463" r="6.0175" gradientTransform="matrix(0.995 -0.0997 -0.0997 -0.995 8.9632 89.4447)" gradientUnits="userSpaceOnUse">
				<stop  offset="0" style="stop-color:#217387"/>
				<stop  offset="1" style="stop-color:#20141B"/>
			</radialGradient>
			<path style="fill-rule:evenodd;clip-rule:evenodd;fill:url(#SVGID_33_);" d="M72.45,32.55c1.133-0.733,1.75,0.383,1.85,3.35
				c0.067,2.967-0.45,4.583-1.55,4.85c-1.067,0.267-1.6-0.9-1.6-3.5C71.117,34.683,71.55,33.117,72.45,32.55z"/>
			
				<use xlink:href="#flash0.ai_x5F_0_x2F_Layer_3_x2F__x3C_Path_x3E__x5F_0"  width="0.973" height="3.824" x="0.032" y="-3.855" transform="matrix(1 0 0 -1 72.8999 32.4502)" style="overflow:visible;opacity:0.2305;enable-background:new    ;"/>
		</g>
		<g>
			
				<radialGradient id="SVGID_34_" cx="114.9883" cy="10.6357" r="6.4227" gradientTransform="matrix(0.9283 0.3717 0.2822 -0.9653 -6 20.5233)" gradientUnits="userSpaceOnUse">
				<stop  offset="0" style="stop-color:#217387"/>
				<stop  offset="1" style="stop-color:#20141B"/>
			</radialGradient>
			<path style="fill-rule:evenodd;clip-rule:evenodd;fill:url(#SVGID_34_);" d="M101.55,50c-1.1,2.967-2.233,4.316-3.399,4.05
				C97.05,53.783,97,52.384,98,49.85c1-2.533,2.05-3.883,3.15-4.05C102.517,45.667,102.65,47.066,101.55,50z"/>
			
				<radialGradient id="SVGID_35_" cx="113.2217" cy="10.2627" r="4.8234" gradientTransform="matrix(0.9278 0.3732 0.2825 -0.9666 -5.7917 19.8188)" gradientUnits="userSpaceOnUse">
				<stop  offset="0" style="stop-color:#217387"/>
				<stop  offset="1" style="stop-color:#20141B"/>
			</radialGradient>
			<path style="fill-rule:evenodd;clip-rule:evenodd;fill:url(#SVGID_35_);" d="M101,50.1c-0.833,2.233-1.684,3.25-2.55,3.051
				c-0.834-0.2-0.884-1.25-0.15-3.15c0.767-1.934,1.566-2.95,2.4-3.05C101.733,46.816,101.833,47.866,101,50.1z"/>
		</g>
		<g>
			
				<radialGradient id="SVGID_36_" cx="121.8291" cy="-7.042" r="6.4184" gradientTransform="matrix(0.8589 0.5122 0.4285 -0.9095 6.0324 -12.8052)" gradientUnits="userSpaceOnUse">
				<stop  offset="0" style="stop-color:#217387"/>
				<stop  offset="1" style="stop-color:#20141B"/>
			</radialGradient>
			<path style="fill-rule:evenodd;clip-rule:evenodd;fill:url(#SVGID_36_);" d="M106,52.7c-1.566,2.767-2.9,3.916-4,3.45
				c-1.066-0.434-0.9-1.834,0.5-4.2c1.4-2.367,2.634-3.517,3.7-3.45C107.6,48.566,107.533,49.967,106,52.7z"/>
			
				<radialGradient id="SVGID_37_" cx="120.0742" cy="-7.271" r="4.832" gradientTransform="matrix(0.8589 0.5122 0.4294 -0.908 6.2453 -13.205)" gradientUnits="userSpaceOnUse">
				<stop  offset="0" style="stop-color:#217387"/>
				<stop  offset="1" style="stop-color:#20141B"/>
			</radialGradient>
			<path style="fill-rule:evenodd;clip-rule:evenodd;fill:url(#SVGID_37_);" d="M105.6,49.55c1.034,0.033,0.983,1.084-0.149,3.15
				c-1.167,2.066-2.167,2.934-3,2.6c-0.8-0.3-0.684-1.35,0.35-3.149C103.866,50.384,104.8,49.517,105.6,49.55z"/>
		</g>
		<g>
			
				<radialGradient id="SVGID_38_" cx="55.061" cy="57.3799" r="6.015" gradientTransform="matrix(0.9975 -0.0707 -0.0935 -0.7814 12.1923 101.8751)" gradientUnits="userSpaceOnUse">
				<stop  offset="0" style="stop-color:#217387"/>
				<stop  offset="1" style="stop-color:#20141B"/>
			</radialGradient>
			<path style="fill-rule:evenodd;clip-rule:evenodd;fill:url(#SVGID_38_);" d="M58.85,51.9c0.066,2.333-0.45,3.6-1.55,3.8
				c-1.066,0.233-1.6-0.667-1.6-2.7s0.45-3.267,1.35-3.7C58.183,48.7,58.783,49.566,58.85,51.9z"/>
			
				<use xlink:href="#flash0.ai_x5F_0_x2F_Layer_3_x2F__x3C_Path_x3E__x5F_1"  width="0.776" height="2.26" x="-0.006" y="-2.252" transform="matrix(1 0 0 -1 57.3501 50.1504)" style="overflow:visible;opacity:0.2305;enable-background:new    ;"/>
		</g>
		<g>
			
				<radialGradient id="SVGID_39_" cx="50.7305" cy="64.7354" r="6.0136" gradientTransform="matrix(0.979 -0.2037 -0.1975 -0.7608 29.0663 111.9829)" gradientUnits="userSpaceOnUse">
				<stop  offset="0" style="stop-color:#217387"/>
				<stop  offset="1" style="stop-color:#20141B"/>
			</radialGradient>
			<path style="fill-rule:evenodd;clip-rule:evenodd;fill:url(#SVGID_39_);" d="M62.9,51.6c0.367,2.267,0.017,3.584-1.05,3.95
				c-1,0.367-1.65-0.45-1.95-2.45c-0.267-2.033,0.017-3.316,0.85-3.85C61.783,48.517,62.5,49.3,62.9,51.6z"/>
			
				<use xlink:href="#flash0.ai_x5F_0_x2F_Layer_3_x2F__x3C_Path_x3E__x5F_2"  width="0.745" height="2.325" x="-0.022" y="-2.308" transform="matrix(1 0 0 -1 61.3501 49.9502)" style="overflow:visible;opacity:0.2305;enable-background:new    ;"/>
		</g>
		
			<use xlink:href="#flash0.ai_x5F_0_x2F_Layer_3_x2F__x3C_Path_x3E__x5F_11"  width="11.845" height="7.55" x="0.028" y="-7.575" transform="matrix(1 0 0 -1 78.2998 40.8496)" style="overflow:visible;opacity:0.5508;enable-background:new    ;"/>
		
			<use xlink:href="#flash0.ai_x5F_0_x2F_Layer_3_x2F__x3C_Path_x3E__x5F_10"  width="12.312" height="18.428" x="-0.012" y="-18.4" transform="matrix(1 0 0 -1 81.0498 8.5498)" style="overflow:visible;opacity:0.2813;enable-background:new    ;"/>
		
			<use xlink:href="#flash0.ai_x5F_0_x2F_Layer_3_x2F__x3C_Path_x3E__x5F_9"  width="4.288" height="2.384" x="-0.03" y="-2.356" transform="matrix(1 0 0 -1 75.2998 8.5)" style="overflow:visible;opacity:0.2813;enable-background:new    ;"/>
		
			<use xlink:href="#flash0.ai_x5F_0_x2F_Layer_3_x2F__x3C_Path_x3E__x5F_8"  width="11.453" height="13.445" x="-0.003" y="-13.45" transform="matrix(1 0 0 -1 58.5498 35.75)" style="overflow:visible;opacity:0.2813;enable-background:new    ;"/>
		
			<use xlink:href="#flash0.ai_x5F_0_x2F_Layer_3_x2F__x3C_Path_x3E__x5F_7"  width="2.428" height="1.611" x="-0.033" y="-1.65" transform="matrix(1 0 0 -1 54.7998 36.0498)" style="overflow:visible;opacity:0.2813;enable-background:new    ;"/>
		
			<use xlink:href="#flash0.ai_x5F_0_x2F_Layer_3_x2F__x3C_Path_x3E__x5F_6"  width="4.434" height="6.363" x="-0.02" y="-6.319" transform="matrix(1 0 0 -1 40.1001 52.75)" style="overflow:visible;opacity:0.2109;enable-background:new    ;"/>
		
			<use xlink:href="#flash0.ai_x5F_0_x2F_Layer_3_x2F__x3C_Path_x3E__x5F_5"  width="9.506" height="16.479" x="0" y="-16.45" transform="matrix(1 0 0 -1 107.5498 28.1499)" style="overflow:visible;opacity:0.2813;enable-background:new    ;"/>
		
			<use xlink:href="#flash0.ai_x5F_0_x2F_Layer_3_x2F__x3C_Path_x3E__x5F_4"  width="2.817" height="1.901" x="-0.006" y="-1.857" transform="matrix(1 0 0 -1 102.4502 29.6499)" style="overflow:visible;opacity:0.2813;enable-background:new    ;"/>
		
			<use xlink:href="#flash0.ai_x5F_0_x2F_Layer_3_x2F__x3C_Path_x3E__x5F_3"  width="18.25" height="1.458" y="-1.467" transform="matrix(1 0 0 -1 112.5996 64.9004)" style="overflow:visible;opacity:0.4414;enable-background:new    ;"/>
		
			<use xlink:href="#flash0.ai_x5F_0_x2F_Layer_3_x2F__x3C_Path_x3E__x5F_2_x5F_0"  width="25.062" height="2.867" y="-2.9" transform="matrix(1 0 0 -1 36.6499 64.3496)" style="overflow:visible;opacity:0.4414;enable-background:new    ;"/>
		
			<use xlink:href="#flash0.ai_x5F_0_x2F_Layer_3_x2F__x3C_Path_x3E__x5F_1_x5F_0"  width="9.657" height="1.581" y="-1.6" transform="matrix(1 0 0 -1 76.5498 65.9502)" style="overflow:visible;opacity:0.4414;enable-background:new    ;"/>
		
			<use xlink:href="#flash0.ai_x5F_0_x2F_Layer_3_x2F__x3C_Path_x3E__x5F_12"  width="8.977" height="2.15" y="-2.15" transform="matrix(1 0 0 -1 31.1001 53)" style="overflow:visible;opacity:0.4414;enable-background:new    ;"/>
	</g>
</g>
</svg>
