<?xml version="1.0" encoding="iso-8859-1"?>
<!-- Generator: Adobe Illustrator 15.1.0, SVG Export Plug-In . SVG Version: 6.00 Build 0)  -->
<!DOCTYPE svg PUBLIC "-//W3C//DTD SVG 1.1//EN" "http://www.w3.org/Graphics/SVG/1.1/DTD/svg11.dtd">
<svg version="1.1" id="Layer_3" xmlns="http://www.w3.org/2000/svg" xmlns:xlink="http://www.w3.org/1999/xlink" x="0px" y="0px"
	 width="78.8px" height="19.5px" viewBox="0 0 78.8 19.5" style="enable-background:new 0 0 78.8 19.5;" xml:space="preserve">
<symbol  id="flash0.ai_x2F_Layer_3_x2F__x3C_Path_x3E_" viewBox="0.015 -17.972 67.763 17.972">
	<g id="Layer_1_3_">
		<path style="fill-rule:evenodd;clip-rule:evenodd;fill:#0D5069;" d="M62.15-9.85c-2.133-0.333-5.083-0.083-8.85,0.75
			c-4.133,0.9-7.083,1.317-8.85,1.25c-1.867-0.033-3.717-0.483-5.55-1.35c-2.133-1.033-1.867-1.966,0.8-2.8
			c0.667-0.2,3.017-0.333,7.05-0.4c3.667-0.333,5.35-1.3,5.05-2.9c-0.466-2.4-5.017-3.184-13.65-2.35
			c-8.3,0.833-13.467,2.117-15.5,3.85c-0.367,0.3-1.033,1-2,2.1c-0.833,0.934-1.55,1.583-2.15,1.95c-1.567,1-4.6,1.467-9.1,1.4
			c-4.1-0.066-6.883,0.667-8.35,2.2c-2.533,2.633-0.417,4.233,6.35,4.8c3.434,0.3,7.467,0.333,12.1,0.1c2.933,0,7.317,0.2,13.15,0.6
			C38.517-0.217,42.9,0,45.8,0c5.133,0,9.25-0.133,12.35-0.4c2.5-0.233,4.35-0.517,5.55-0.85c2.333-0.7,3.667-1.817,4-3.35L67.75-5
			c0.167-1.367-0.417-2.5-1.75-3.4C64.967-9.133,63.683-9.617,62.15-9.85z"/>
	</g>
</symbol>
<symbol  id="flash0.ai_x2F_Layer_3_x2F__x3C_Path_x3E__x5F_1" viewBox="0 -5.1 14.15 5.1">
	<g id="Layer_1_2_">
		<path style="fill-rule:evenodd;clip-rule:evenodd;fill:#0D5069;" d="M14.15-2.55c0-0.7-0.7-1.3-2.1-1.8
			c-1.367-0.5-3.033-0.75-5-0.75c-1.933,0-3.6,0.25-5,0.75C0.683-3.85,0-3.25,0-2.55c0,0.7,0.683,1.3,2.05,1.8
			C3.45-0.25,5.117,0,7.05,0c1.967,0,3.633-0.25,5-0.75C13.45-1.25,14.15-1.85,14.15-2.55z"/>
	</g>
</symbol>
<g>
	
		<use xlink:href="#flash0.ai_x2F_Layer_3_x2F__x3C_Path_x3E__x5F_1"  width="14.15" height="5.1" y="-5.1" transform="matrix(1 0 0 -1 64.6504 14.4004)" style="overflow:visible;opacity:0.3086;enable-background:new    ;"/>
	
		<use xlink:href="#flash0.ai_x2F_Layer_3_x2F__x3C_Path_x3E_"  width="67.763" height="17.972" x="0.015" y="-17.972" transform="matrix(1 0 0 -1 0 0)" style="overflow:visible;opacity:0.3086;enable-background:new    ;"/>
</g>
</svg>
