<?xml version="1.0" encoding="iso-8859-1"?>
<!-- Generator: Adobe Illustrator 15.1.0, SVG Export Plug-In . SVG Version: 6.00 Build 0)  -->
<!DOCTYPE svg PUBLIC "-//W3C//DTD SVG 1.1//EN" "http://www.w3.org/Graphics/SVG/1.1/DTD/svg11.dtd">
<svg version="1.1" id="Layer_3" xmlns="http://www.w3.org/2000/svg" xmlns:xlink="http://www.w3.org/1999/xlink" x="0px" y="0px"
	 width="94.9px" height="31.95px" viewBox="0 0 94.9 31.95" style="enable-background:new 0 0 94.9 31.95;" xml:space="preserve">
<symbol  id="flash0.ai_x2F_Layer_3_x2F__x3C_Path_x3E_" viewBox="0.013 -19.153 80.823 19.153">
	<g id="Layer_1_2_">
		<path style="fill-rule:evenodd;clip-rule:evenodd;fill:#0D5069;" d="M73.5-9.35c1.067-0.3,2.55-0.883,4.45-1.75
			c1-0.433,1.7-0.8,2.1-1.1c0.867-0.633,1.017-1.433,0.45-2.4c-0.367-0.6-1-1.05-1.9-1.35c-1.067-0.233-1.85-0.433-2.35-0.6
			c-2.633-0.867-4.75-1.483-6.35-1.85c-2.333-0.533-4.533-0.783-6.6-0.75c-1.933,0-3.767,0.117-5.5,0.35
			c-0.733,0.1-1.933,0.216-3.6,0.35c-1.6,0.133-2.817,0.267-3.65,0.4c-0.433,0.066-1.1,0.3-2,0.7c-0.833,0.367-1.5,0.583-2,0.65
			c-1.667,0.2-2.75,0.6-3.25,1.2c-1.533-0.7-3.383-1.05-5.55-1.05c-2.633,0.133-4.733,0.233-6.3,0.3c-0.467,0-2.05-0.033-4.75-0.1
			c-2.034-0.066-3.667-0.033-4.9,0.1c-2.667,0.267-4.983,0.7-6.95,1.3c-2.167,0.633-3.45,0.983-3.85,1.05
			c-1.767,0.3-3.033,0.783-3.8,1.45c-0.833,0.7-0.817,1.434,0.05,2.2C6.383-9.817,5.233-9.517,3.8-9.35
			c-1.466,0.167-2.633,0.467-3.5,0.9c-0.633,0.333-0.216,0.867,1.25,1.6C2.35-6.417,3.533-5.867,5.1-5.2
			C4.167-3.967,5.283-2.933,8.45-2.1c0.733,0.2,2.633,0.55,5.7,1.05C19.25-0.35,24.733,0,30.6,0c4.8,0,9.083-0.2,12.85-0.6
			c1.033-0.1,2.517-0.683,4.45-1.75c2.1-1.167,3.567-1.833,4.4-2c0.434-0.1,2.617-0.233,6.55-0.4c3.6-0.267,5.117-0.733,4.55-1.4
			L63.05-6.4c-0.4-0.434-0.966-0.85-1.7-1.25c-0.767-0.434-1.3-0.733-1.6-0.9c0.5,0,2-0.067,4.5-0.2c1.833-0.1,3.333-0.117,4.5-0.05
			C70.317-8.7,71.9-8.883,73.5-9.35z"/>
	</g>
</symbol>
<symbol  id="flash0.ai_x2F_Layer_3_x2F__x3C_Path_x3E__x5F_0" viewBox="0.037 -10.39 27.561 10.395">
	<g id="Layer_1_4_">
		
			<linearGradient id="SVGID_1_" gradientUnits="userSpaceOnUse" x1="15959.1582" y1="291.7305" x2="15979.9512" y2="291.7305" gradientTransform="matrix(0.0421 0.9991 -0.9991 0.0421 -366.5039 -15969.7334)">
			<stop  offset="0" style="stop-color:#2E7A8A"/>
			<stop  offset="1" style="stop-color:#99E1A6"/>
		</linearGradient>
		<path style="fill-rule:evenodd;clip-rule:evenodd;fill:url(#SVGID_1_);" d="M24.5-6.1c-0.3,0.4-0.567,0.583-0.8,0.55
			c-0.2-0.034-0.284-0.15-0.25-0.35c0.033-0.1,0.1-0.267,0.2-0.5c0.133-0.367,0.15-0.733,0.05-1.1c-0.1-0.367-0.333-0.617-0.7-0.75
			c-0.3-0.1-0.617-0.1-0.95,0c-0.033,0-0.267,0.167-0.7,0.5c-0.767-0.433-1.367-0.383-1.8,0.15c-0.633,0.934-1,1.35-1.1,1.25
			L18.4-6.4c0.3-1.333,0.083-1.684-0.65-1.05c-1.1,0.9-1.817,1.2-2.15,0.9c-0.167-0.2-0.233-0.567-0.2-1.1
			c0-0.567-0.083-0.95-0.25-1.15C14.85-9.167,14-9.55,12.6-9.95c-1.29-0.331-1.823-0.264-1.6,0.2c-0.274-0.532-0.974-0.732-2.1-0.6
			c-1.1,0.1-1.717,0.434-1.85,1C6.517-9.517,5.833-9.433,5-9.1C4.933-9.067,4.417-8.983,3.45-8.85c-0.767,0.1-1.233,0.283-1.4,0.55
			C1.917-8.1,1.983-7.667,2.25-7c0.229,0.624,0.43,0.957,0.6,1C2.674-6.042,2.291-6.325,1.7-6.85c-0.5-0.467-0.917-0.6-1.25-0.4
			C-0.117-6.917-0.1-6.2,0.5-5.1c0.767,1.2,2.217,2.35,4.35,3.45C7.017-0.483,9.6,0.067,12.6,0c1.367-0.067,2.683-0.317,3.95-0.75
			c2.233-0.7,4.65-1.75,7.25-3.15c1.034-0.533,2.017-1.367,2.95-2.5c0.7-0.833,0.967-1.383,0.8-1.65c-0.167-0.3-0.45-0.3-0.85,0
			c-0.4,0.367-0.667,0.583-0.8,0.65l-0.45,0.2c-0.133,0.067-0.267,0.167-0.4,0.3C24.85-6.567,24.667-6.3,24.5-6.1z"/>
	</g>
</symbol>
<symbol  id="flash0.ai_x2F_Layer_3_x2F__x3C_Path_x3E__x5F_1" viewBox="0 -5.363 18.182 5.37">
	<g id="Layer_1_5_">
		<path style="fill-rule:evenodd;clip-rule:evenodd;fill:#0D5069;" d="M17.9-4c-0.2-0.2-0.533-0.317-1-0.35c-0.533,0-0.883,0-1.05,0
			c-1.267-0.367-2.2-0.6-2.8-0.7c-1.933-0.333-3.783-0.4-5.55-0.2C5.967-5.217,4.817-5.167,4.05-5.1
			C2.683-4.967,1.567-4.65,0.7-4.15C0.267-3.883,0.033-3.5,0-3c0,0.467,0.217,0.833,0.65,1.1c0.3,0.2,0.7,0.35,1.2,0.45
			c0.3,0.034,0.717,0.1,1.25,0.2C3.633-1.117,4.4-0.867,5.4-0.5C6.267-0.233,7.033-0.067,7.7,0c0.767,0.033,1.633-0.05,2.6-0.25
			c0.567-0.1,1.417-0.3,2.55-0.6c0.233-0.066,0.7-0.133,1.4-0.2c0.567-0.067,1.033-0.15,1.4-0.25l0.4-0.15
			c0.733-0.3,1.284-0.633,1.65-1C18.267-2.983,18.333-3.5,17.9-4z"/>
	</g>
</symbol>
<symbol  id="flash0.ai_x2F_Layer_3_x2F__x3C_Path_x3E__x5F_2" viewBox="-0.024 -6.385 13.215 6.393">
	<g id="Layer_1_6_">
		
			<linearGradient id="SVGID_2_" gradientUnits="userSpaceOnUse" x1="15968.9736" y1="294.2832" x2="15981.6348" y2="294.2832" gradientTransform="matrix(0.0415 0.9991 -0.9991 0.0415 -361.71 -15974.9658)">
			<stop  offset="0" style="stop-color:#2E7A8A"/>
			<stop  offset="1" style="stop-color:#99E1A6"/>
		</linearGradient>
		<path style="fill-rule:evenodd;clip-rule:evenodd;fill:url(#SVGID_2_);" d="M11.45-2.3c0.566-0.367,1.05-0.883,1.45-1.55
			c0.267-0.4,0.35-0.7,0.25-0.9c-0.1-0.133-0.4-0.283-0.9-0.45c-0.667-0.2-1.35-0.15-2.05,0.15C9.7-4.817,9.233-4.833,8.8-5.1
			C8.333-5.533,7.917-5.817,7.55-5.95c-1.6-0.667-3.4-0.566-5.4,0.3C1.717-5.483,1.333-5.133,1-4.6C0.5-4.233,0.2-3.933,0.1-3.7
			C-0.333-2.967,0.367-2.067,2.2-1C3.233-0.267,4.5,0.067,6,0c0.5,0,1.15-0.133,1.95-0.4C8.85-0.8,10.017-1.433,11.45-2.3z"/>
	</g>
</symbol>
<symbol  id="flash0.ai_x2F_Layer_3_x2F__x3C_Path_x3E__x5F_4" viewBox="0 -23.05 50.989 23.014">
	<g id="Layer_1_3_">
		
			<linearGradient id="SVGID_3_" gradientUnits="userSpaceOnUse" x1="15950.3203" y1="274.9248" x2="15995.5342" y2="274.9248" gradientTransform="matrix(0.0415 0.9991 -0.9991 0.0415 -361.7354 -15974.9385)">
			<stop  offset="0" style="stop-color:#2E7A8A"/>
			<stop  offset="1" style="stop-color:#99E1B8"/>
		</linearGradient>
		<path style="fill-rule:evenodd;clip-rule:evenodd;fill:url(#SVGID_3_);" d="M44.05-7.05c0.367-0.233,1.15-0.684,2.35-1.35
			c0.934-0.667,1.217-1.15,0.85-1.45c-0.3-0.267-1,0.017-2.1,0.85C43.983-8.067,43.267-7.617,43-7.65
			c0.1-0.333,0.467-0.817,1.1-1.45c0.4-0.367,1.45-1.117,3.15-2.25c1.367-0.867,2.3-1.717,2.8-2.55c0.867-1.333,1.133-2.55,0.8-3.65
			c-0.367-1.2-1.4-1.75-3.1-1.65c-0.9,0.167-1.467,0.233-1.7,0.2c-0.3-0.033-0.667-0.45-1.1-1.25c-0.7-1.267-1.667-1.717-2.9-1.35
			c-0.233,0.067-0.5,0.233-0.8,0.5c-0.367,0.3-0.65,0.5-0.85,0.6c-0.133,0.067-0.433,0.117-0.9,0.15
			c-0.433,0.067-0.75,0.167-0.95,0.3c-0.733,0.5-1.316,1.583-1.75,3.25c-0.2,0.566-0.383,1.083-0.55,1.55
			c-0.367,0.933-0.6,1.283-0.7,1.05c-0.066-0.233-0.066-0.583,0-1.05c0.067-0.467,0.083-0.817,0.05-1.05
			c-0.867,0.267-1.5,1.383-1.9,3.35c-0.4,1.967-1,3.05-1.8,3.25c-0.1-0.333-0.117-0.85-0.05-1.55c0.066-0.733,0.083-1.25,0.05-1.55
			c0-0.067-0.05-0.217-0.15-0.45S31.6-13.7,31.6-13.9c0-0.267,0.2-1.5,0.6-3.7c0.267-2.066,0.117-3.066-0.45-3
			c-0.333,0.033-0.633,0.4-0.9,1.1c-0.3,0.833-0.5,1.3-0.6,1.4c-0.233-0.4-0.25-1.066-0.05-2c0.2-0.867,0.167-1.517-0.1-1.95
			c-0.434-0.667-1.233-1-2.4-1c-0.867,0.033-1.784,0.216-2.75,0.55c-0.567,0.233-0.95,0.567-1.15,1
			c-0.133,0.233-0.283,0.733-0.45,1.5c0.033,0.267,0.033,0.467,0,0.6c-0.033,0.233-0.184,0.233-0.45,0c-0.233-0.2-0.3-0.6-0.2-1.2
			c0.066-0.6-0.05-1-0.35-1.2c-0.367-0.267-0.867-0.267-1.5,0c-0.9,0.333-1.417,0.5-1.55,0.5c-1.667-0.4-3.1-0.684-4.3-0.85
			c-2.333-0.333-3.433,0.133-3.3,1.4c0.233,0.767,0.383,1.3,0.45,1.6c0.1,0.3,0.4,0.8,0.9,1.5c0.467,0.633,0.717,1.15,0.75,1.55
			c-0.667-0.367-1.2-0.833-1.6-1.4c-0.133-0.167-0.5-0.75-1.1-1.75c-0.4-0.7-1.017-1.183-1.85-1.45C8.35-21,7.933-20.617,8-19.55
			c0,0.1,0.217,0.65,0.65,1.65c-0.367-0.033-0.816-0.267-1.35-0.7c-0.533-0.467-0.966-0.7-1.3-0.7c-0.233,0-0.583,0.117-1.05,0.35
			c-0.567,0.3-0.917,0.467-1.05,0.5c-1.233,0.267-2.1,0.517-2.6,0.75c-0.5,0.233-0.867,0.733-1.1,1.5c-0.2,0.7-0.25,1.35-0.15,1.95
			c0.133,0.6,0.6,1.167,1.4,1.7c0.333,0.2,1.033,0.566,2.1,1.1c0.9,0.367,1.583,0.684,2.05,0.95C6.467-10,6.9-9.45,6.9-8.85
			C6.567-8.95,6.15-9.2,5.65-9.6c-0.566-0.4-1-0.667-1.3-0.8c-0.567-0.2-1.117-0.317-1.65-0.35c0.267,0.6,0.633,1.233,1.1,1.9
			c1.133,1.667,3.883,3.733,8.25,6.2c2.467,1.4,4.9,2.233,7.3,2.5C20.283-0.017,22.1,0,24.8-0.1c2.333-0.066,4.617-0.483,6.85-1.25
			C36.317-2.883,40.45-4.783,44.05-7.05z"/>
	</g>
</symbol>
<g>
	
		<use xlink:href="#flash0.ai_x2F_Layer_3_x2F__x3C_Path_x3E_"  width="80.823" height="19.153" x="0.013" y="-19.153" transform="matrix(1 0 0 -1 0 12.7998)" style="overflow:visible;opacity:0.3086;enable-background:new    ;"/>
	<g>
		
			<linearGradient id="SVGID_4_" gradientUnits="userSpaceOnUse" x1="-22.2544" y1="31.8213" x2="24.5113" y2="31.8213" gradientTransform="matrix(0.0417 -0.9991 0.9991 0.0417 2.800636e-004 3.120899e-004)">
			<stop  offset="0" style="stop-color:#294A70"/>
			<stop  offset="1" style="stop-color:#C6E1B5"/>
		</linearGradient>
		<path style="fill-rule:evenodd;clip-rule:evenodd;fill:url(#SVGID_4_);" d="M46.2,5.2c6.8,3.4,9.666,5.833,8.6,7.3
			c0.334-0.4,1.066,0.133,2.2,1.6c1.167,1.533,1.6,2.883,1.3,4.05c-0.366,1.433-1.517,2.75-3.45,3.949
			c-1.566,1-3.133,1.65-4.699,1.95c-0.733,0.134-1.733,0.184-3,0.15c-1.434-0.066-2.417-0.066-2.95,0
			c-1.034,0.1-2.9,0.483-5.6,1.149c-2.3,0.567-4.233,0.834-5.8,0.801c-1.267,0-3.3-0.084-6.1-0.25c-2.633-0.167-4.667-0.25-6.1-0.25
			c-2.133,0-4.633-0.667-7.5-2c-2.833-1.434-4.684-2.301-5.55-2.601c-1.767-0.6-2.9-1.616-3.4-3.05c-0.467-1.333-0.3-2.667,0.5-4
			c0.5-0.833,1.25-1.567,2.25-2.2c0.934-0.6,1.417-0.95,1.45-1.05C8.95,9.45,9.933,8.2,11.3,7c1.1-0.933,2.717-2.067,4.85-3.4
			c2.667-1.667,5.383-2.75,8.15-3.25c1.6-0.3,3.633-0.417,6.1-0.35C34.2,0.1,39.467,1.833,46.2,5.2z"/>
		
			<use xlink:href="#flash0.ai_x2F_Layer_3_x2F__x3C_Path_x3E__x5F_4"  width="50.989" height="23.014" x="0" y="-23.05" transform="matrix(1 0 0 -1 5.75 0.1499)" style="overflow:visible;opacity:0.5703;enable-background:new    ;"/>
		
			<linearGradient id="SVGID_5_" gradientUnits="userSpaceOnUse" x1="-24.5322" y1="28.6279" x2="16.902" y2="28.6279" gradientTransform="matrix(0.3427 -0.9394 0.9394 0.3427 1.691580e-004 -9.328127e-005)">
			<stop  offset="0" style="stop-color:#386969"/>
			<stop  offset="1" style="stop-color:#B0E1CC"/>
		</linearGradient>
		<path style="fill-rule:evenodd;clip-rule:evenodd;fill:url(#SVGID_5_);" d="M31.8,3.9c1.6,0.567,2.184,1.2,1.75,1.9
			c-0.333,0.567-1.283,1.067-2.85,1.5c-4.133,1.1-6.567,0.934-7.3-0.5c-0.667-1.3,0.117-2.283,2.35-2.95
			C27.95,3.183,29.967,3.2,31.8,3.9z"/>
		
			<linearGradient id="SVGID_6_" gradientUnits="userSpaceOnUse" x1="-9.1348" y1="34.75" x2="17.0662" y2="34.75" gradientTransform="matrix(0.4053 -0.9142 0.9142 0.4053 8.872151e-005 -1.010895e-004)">
			<stop  offset="0" style="stop-color:#386969"/>
			<stop  offset="1" style="stop-color:#B0E1CC"/>
		</linearGradient>
		<path style="fill-rule:evenodd;clip-rule:evenodd;fill:url(#SVGID_6_);" d="M39.1,3.05c1.467,1.633,0.833,2.267-1.9,1.9
			c-2.833-0.367-4.217-1.117-4.15-2.25c0.1-1,0.934-1.417,2.5-1.25C37.083,1.583,38.267,2.117,39.1,3.05z"/>
		
			<linearGradient id="SVGID_7_" gradientUnits="userSpaceOnUse" x1="-15.6772" y1="20.9639" x2="-4.6612" y2="20.9639" gradientTransform="matrix(-0.0867 -0.9962 0.9962 -0.0867 1.129583e-004 -9.158254e-004)">
			<stop  offset="0" style="stop-color:#386969"/>
			<stop  offset="1" style="stop-color:#B0E1CC"/>
		</linearGradient>
		<path style="fill-rule:evenodd;clip-rule:evenodd;fill:url(#SVGID_7_);" d="M22.35,3.7C23.217,4,23.1,4.433,22,5
			c-1.167,0.567-1.833,0.6-2,0.1c-0.167-0.434,0.067-0.817,0.7-1.15C21.333,3.617,21.883,3.533,22.35,3.7z"/>
		
			<linearGradient id="SVGID_8_" gradientUnits="userSpaceOnUse" x1="-22.5571" y1="23.3682" x2="-5.17" y2="23.3682" gradientTransform="matrix(-0.2834 -0.959 0.959 -0.2834 7.200241e-005 9.530783e-004)">
			<stop  offset="0" style="stop-color:#386969"/>
			<stop  offset="1" style="stop-color:#B0E1CC"/>
		</linearGradient>
		<path style="fill-rule:evenodd;clip-rule:evenodd;fill:url(#SVGID_8_);" d="M26.35,0.9c1.733,0.3,1.667,0.833-0.2,1.6
			C24.217,3.3,23,3.417,22.5,2.85c-0.467-0.533-0.167-1.033,0.9-1.5C24.4,0.883,25.383,0.733,26.35,0.9z"/>
	</g>
	<g>
		
			<linearGradient id="SVGID_9_" gradientUnits="userSpaceOnUse" x1="-26.0913" y1="63.7139" x2="0.2816" y2="63.7139" gradientTransform="matrix(0.0417 -0.9991 0.9991 0.0417 1.466610e-004 5.906820e-005)">
			<stop  offset="0" style="stop-color:#294A70"/>
			<stop  offset="0.1216" style="stop-color:#325374"/>
			<stop  offset="0.3176" style="stop-color:#4A6A7F"/>
			<stop  offset="0.5686" style="stop-color:#729090"/>
			<stop  offset="0.8588" style="stop-color:#A9C5A8"/>
			<stop  offset="1" style="stop-color:#C6E1B5"/>
		</linearGradient>
		<path style="fill-rule:evenodd;clip-rule:evenodd;fill:url(#SVGID_9_);" d="M62.1,15.4c2,0.067,4.834,0.95,8.5,2.65
			c1.601,0.767,2.517,1.217,2.75,1.351c1.067,0.566,1.884,1.183,2.45,1.85c0.9,1.1,1.517,1.95,1.851,2.55
			c0.666,1.233,0.699,2.15,0.1,2.75c-0.267,0.267-0.95,0.65-2.05,1.15c-0.667,0.333-1.667,0.6-3,0.8
			c-1.634,0.267-2.684,0.467-3.15,0.6c-2.267,0.733-4.3,1.101-6.1,1.101c-3.134-0.2-5.483-0.3-7.05-0.3
			c-0.934,0-1.95-0.2-3.051-0.601c-1.233-0.566-2.183-0.983-2.85-1.25c-0.967-0.3-1.65-0.566-2.05-0.8
			c-0.767-0.4-1.167-0.967-1.2-1.7c-0.066-1.767,0.634-3.383,2.1-4.85c0.9-0.934,2.4-2.017,4.5-3.25
			c1.534-0.934,3.101-1.55,4.7-1.85C59.517,15.433,60.7,15.367,62.1,15.4z"/>
		
			<use xlink:href="#flash0.ai_x2F_Layer_3_x2F__x3C_Path_x3E__x5F_0"  width="27.561" height="10.395" x="0.037" y="-10.39" transform="matrix(1 0 0 -1 49.5996 15.4502)" style="overflow:visible;opacity:0.5703;enable-background:new    ;"/>
	</g>
	<g>
		
			<use xlink:href="#flash0.ai_x2F_Layer_3_x2F__x3C_Path_x3E__x5F_1"  width="18.182" height="5.37" y="-5.363" transform="matrix(1 0 0 -1 76.7002 10.7998)" style="overflow:visible;opacity:0.3086;enable-background:new    ;"/>
		<g>
			
				<linearGradient id="SVGID_10_" gradientUnits="userSpaceOnUse" x1="-10.7666" y1="85.9648" x2="5.2227" y2="85.9648" gradientTransform="matrix(0.0422 -0.9991 0.9991 0.0422 -4.270412e-004 1.139045e-004)">
				<stop  offset="0" style="stop-color:#294A70"/>
				<stop  offset="0.1216" style="stop-color:#325374"/>
				<stop  offset="0.3176" style="stop-color:#4A6A7F"/>
				<stop  offset="0.5686" style="stop-color:#729090"/>
				<stop  offset="0.8588" style="stop-color:#A9C5A8"/>
				<stop  offset="1" style="stop-color:#C6E1B5"/>
			</linearGradient>
			<path style="fill-rule:evenodd;clip-rule:evenodd;fill:url(#SVGID_10_);" d="M85.25,6.3c0.934,0.034,2.316,0.567,4.15,1.6
				c1.333,0.767,2.183,1.434,2.55,2c1.033,1.567,1.333,2.617,0.899,3.15c-0.066,0.1-0.399,0.35-1,0.75
				c-0.333,0.2-0.816,0.367-1.449,0.5c-0.767,0.133-1.267,0.233-1.5,0.3c-1.101,0.467-2.101,0.7-3,0.7
				c-1.534-0.133-2.684-0.2-3.45-0.2c-0.434,0-0.934-0.133-1.5-0.4c-0.601-0.3-1.066-0.534-1.4-0.7c-0.434-0.2-0.767-0.367-1-0.5
				c-0.333-0.233-0.517-0.567-0.55-1c-0.033-1.1,0.3-2.1,1-3c0.434-0.533,1.167-1.183,2.2-1.95c0.733-0.566,1.5-0.933,2.3-1.1
				C83.9,6.35,84.483,6.3,85.25,6.3z"/>
			
				<use xlink:href="#flash0.ai_x2F_Layer_3_x2F__x3C_Path_x3E__x5F_2"  width="13.215" height="6.393" x="-0.024" y="-6.385" transform="matrix(1 0 0 -1 79.25 6.3501)" style="overflow:visible;opacity:0.5703;enable-background:new    ;"/>
		</g>
	</g>
</g>
</svg>
