<?xml version="1.0" encoding="iso-8859-1"?>
<!-- Generator: Adobe Illustrator 15.1.0, SVG Export Plug-In . SVG Version: 6.00 Build 0)  -->
<!DOCTYPE svg PUBLIC "-//W3C//DTD SVG 1.1//EN" "http://www.w3.org/Graphics/SVG/1.1/DTD/svg11.dtd">
<svg version="1.1" id="Layer_3" xmlns="http://www.w3.org/2000/svg" xmlns:xlink="http://www.w3.org/1999/xlink" x="0px" y="0px"
	 width="84.75px" height="21.9px" viewBox="0 0 84.75 21.9" style="enable-background:new 0 0 84.75 21.9;" xml:space="preserve">
<symbol  id="flash0.ai_x2F_Layer_3_x2F__x3C_Path_x3E_" viewBox="0 -6.7 25.2 6.7">
	<g id="Layer_1_5_">
		<path style="fill-rule:evenodd;clip-rule:evenodd;fill:#0D5069;" d="M25.2-3.35c0-0.933-1.233-1.717-3.7-2.35
			c-2.467-0.667-5.433-1-8.9-1s-6.434,0.333-8.9,1C1.233-5.067,0-4.283,0-3.35C0-2.417,1.233-1.633,3.7-1c2.466,0.667,5.433,1,8.9,1
			s6.433-0.333,8.9-1C23.967-1.633,25.2-2.417,25.2-3.35z"/>
	</g>
</symbol>
<symbol  id="flash0.ai_x2F_Layer_3_x2F__x3C_Path_x3E__x5F_1" viewBox="0 -3.35 9.35 3.35">
	<g id="Layer_1_4_">
		<path style="fill-rule:evenodd;clip-rule:evenodd;fill:#459691;" d="M9.35-1.65c0-0.467-0.45-0.867-1.35-1.2
			c-0.933-0.333-2.033-0.5-3.3-0.5c-1.3,0-2.4,0.167-3.3,0.5C0.467-2.517,0-2.117,0-1.65S0.467-0.8,1.4-0.5C2.3-0.167,3.4,0,4.7,0
			C5.967,0,7.067-0.167,8-0.5C8.9-0.833,9.35-1.217,9.35-1.65z"/>
	</g>
</symbol>
<symbol  id="flash0.ai_x2F_Layer_3_x2F__x3C_Path_x3E__x5F_2" viewBox="0 -5.55 20.75 5.55">
	<g id="Layer_1_3_">
		<path style="fill-rule:evenodd;clip-rule:evenodd;fill:#459691;" d="M20.75-2.8c0-0.767-1.017-1.417-3.05-1.95
			c-2.034-0.533-4.483-0.8-7.35-0.8c-2.833,0-5.267,0.267-7.3,0.8C1.017-4.217,0-3.567,0-2.8c0,0.767,1.017,1.433,3.05,2
			c2,0.533,4.434,0.8,7.3,0.8s5.316-0.267,7.35-0.8C19.733-1.367,20.75-2.033,20.75-2.8z"/>
	</g>
</symbol>
<symbol  id="flash0.ai_x2F_Layer_3_x2F__x3C_Path_x3E__x5F_3" viewBox="0.047 -19.4 75.576 19.419">
	<g id="Layer_1_2_">
		<path style="fill-rule:evenodd;clip-rule:evenodd;fill:#0D5069;" d="M66.1-6.3c4.733-0.1,7.6-0.483,8.6-1.15
			c1.367-0.966,1.216-1.7-0.45-2.2c-1.433-0.434-3.733-0.617-6.9-0.55c-3.333,0.034-5.567-0.3-6.7-1c-0.433-0.267-0.6-0.533-0.5-0.8
			c0.133-0.233,0.45-0.367,0.95-0.4c3-0.267,5.15-0.917,6.45-1.95c1.3-1,1.35-2,0.15-3c-1.1-0.933-3.05-1.533-5.85-1.8
			c-1.934-0.167-6.1-0.25-12.5-0.25c-7.733,0-12.333,0.033-13.8,0.1c-3.833,0.233-6.683,0.883-8.55,1.95c-1.6,0.9-1.15,1.7,1.35,2.4
			c3.2,0.9,4.883,1.567,5.05,2c0.267,0.6-0.3,0.967-1.7,1.1c-1.034,0.1-3.883,0.15-8.55,0.15c-6.767-0.167-11.717-0.183-14.85-0.05
			c-5.6,0.167-8.35,0.917-8.25,2.25c0.067,1.333,2.667,2.35,7.8,3.05C11.25-6.017,14.633-5.8,18-5.8c2.033,0,3.267,0.2,3.7,0.6
			c0.4,0.367,0.15,0.767-0.75,1.2c-0.4,0.2-1.55,0.4-3.45,0.6c-1.633,0.2-2.567,0.5-2.8,0.9c-0.5,0.867,2.583,1.55,9.25,2.05
			c6.333,0.5,12.117,0.6,17.35,0.3c4.567-0.267,7.9-0.883,10-1.85c1.967-0.933,2-1.65,0.1-2.15c-1.867-0.5-2.583-0.934-2.15-1.3
			c0.433-0.4,2.183-0.65,5.25-0.75C56.667-6.267,60.533-6.3,66.1-6.3z"/>
	</g>
</symbol>
<g>
	
		<use xlink:href="#flash0.ai_x2F_Layer_3_x2F__x3C_Path_x3E__x5F_3"  width="75.576" height="19.419" x="0.047" y="-19.4" transform="matrix(1 0 0 -1 9.1499 0)" style="overflow:visible;opacity:0.3086;enable-background:new    ;"/>
	
		<use xlink:href="#flash0.ai_x2F_Layer_3_x2F__x3C_Path_x3E__x5F_2"  width="20.75" height="5.55" y="-5.55" transform="matrix(1 0 0 -1 45.7998 9.8501)" style="overflow:visible;opacity:0.4414;enable-background:new    ;"/>
	
		<use xlink:href="#flash0.ai_x2F_Layer_3_x2F__x3C_Path_x3E__x5F_1"  width="9.35" height="3.35" y="-3.35" transform="matrix(1 0 0 -1 35.2002 3.7002)" style="overflow:visible;opacity:0.4414;enable-background:new    ;"/>
	
		<use xlink:href="#flash0.ai_x2F_Layer_3_x2F__x3C_Path_x3E_"  width="25.2" height="6.7" y="-6.7" transform="matrix(1 0 0 -1 0 15.2002)" style="overflow:visible;opacity:0.3086;enable-background:new    ;"/>
</g>
</svg>
