<?xml version="1.0" encoding="iso-8859-1"?>
<!-- Generator: Adobe Illustrator 15.1.0, SVG Export Plug-In . SVG Version: 6.00 Build 0)  -->
<!DOCTYPE svg PUBLIC "-//W3C//DTD SVG 1.1//EN" "http://www.w3.org/Graphics/SVG/1.1/DTD/svg11.dtd">
<svg version="1.1" id="Layer_3" xmlns="http://www.w3.org/2000/svg" xmlns:xlink="http://www.w3.org/1999/xlink" x="0px" y="0px"
	 width="118px" height="28.85px" viewBox="0 0 118 28.85" style="enable-background:new 0 0 118 28.85;" xml:space="preserve">
<g>
	<g>
		
			<linearGradient id="SVGID_1_" gradientUnits="userSpaceOnUse" x1="-88.6011" y1="-49.9116" x2="163.4433" y2="-49.9116" gradientTransform="matrix(0.0124 0.9999 -0.9999 0.0124 -2.115648e-004 2.726559e-004)">
			<stop  offset="0" style="stop-color:#00140C"/>
			<stop  offset="0.4078" style="stop-color:#217387"/>
			<stop  offset="0.7922" style="stop-color:#4BABA7"/>
			<stop  offset="1" style="stop-color:#52C482"/>
		</linearGradient>
		<path style="fill-rule:evenodd;clip-rule:evenodd;fill:url(#SVGID_1_);" d="M97.35,15.95c-4.033,0.833-8.383,1.45-13.05,1.85
			c-8.733-2.2-16.133-4.867-22.2-8C57.233,7.267,52.017,6.183,46.45,6.55c-4.1,0.233-9.567,1.45-16.4,3.65
			c-6.5,2.066-12.383,4.433-17.65,7.1c-0.5-0.066-1.4-0.233-2.7-0.5c-1.034-0.267-1.784-0.383-2.25-0.35
			c-7.267,0.066-9.2-0.517-5.8-1.75c3-1.067,7.533-2.767,13.6-5.1c5.7-2.133,10.783-3.917,15.25-5.35
			c7.067-2.233,13.083-3.583,18.05-4.05c6.7-0.6,12.584,0.183,17.65,2.35C74.033,5.95,79,8.067,81.1,8.9
			c4.634,1.8,8.967,3.15,13,4.05c4.767,1.033,6.733,1.85,5.9,2.45L97.35,15.95z"/>
		
			<linearGradient id="SVGID_2_" gradientUnits="userSpaceOnUse" x1="-91.8989" y1="-48.1309" x2="167.7958" y2="-48.1309" gradientTransform="matrix(0.0123 0.9999 -0.9999 0.0123 -3.073877e-004 4.670499e-004)">
			<stop  offset="0" style="stop-color:#52C482"/>
			<stop  offset="0.2078" style="stop-color:#4BABA7"/>
			<stop  offset="0.5922" style="stop-color:#217387"/>
			<stop  offset="1" style="stop-color:#00140C"/>
		</linearGradient>
		<path style="fill-rule:evenodd;clip-rule:evenodd;fill:url(#SVGID_2_);" d="M46.45,6.55C52.017,6.183,57.233,7.267,62.1,9.8
			c6.067,3.133,13.467,5.8,22.2,8c-4.7,0.434-8.184,0.983-10.45,1.65C67.75,21.316,62.4,22.6,57.8,23.3
			c-7.8,1.134-14.7,0.917-20.7-0.649C26,19.75,17.767,17.967,12.4,17.3c5.267-2.667,11.15-5.033,17.65-7.1
			C36.883,8,42.35,6.783,46.45,6.55z"/>
		
			<linearGradient id="SVGID_3_" gradientUnits="userSpaceOnUse" x1="-80.6758" y1="-48.1289" x2="68.2607" y2="-48.1289" gradientTransform="matrix(0.0124 0.9999 -0.9999 0.0124 0 4.471736e-004)">
			<stop  offset="0" style="stop-color:#00140C"/>
			<stop  offset="0.4078" style="stop-color:#217387"/>
			<stop  offset="0.7922" style="stop-color:#4BABA7"/>
			<stop  offset="1" style="stop-color:#52C482"/>
		</linearGradient>
		<path style="fill-rule:evenodd;clip-rule:evenodd;fill:url(#SVGID_3_);" d="M46.45,6.55C52.017,6.183,57.233,7.267,62.1,9.8
			c6.067,3.133,13.467,5.8,22.2,8c-1.566,0.134-3.434,0.4-5.6,0.8c-2.267,0.434-3.884,0.717-4.851,0.851
			c-9.333,2.1-15.8,3.434-19.399,4c-5.8,0.967-11.583,0.7-17.35-0.8C26,19.75,17.767,17.967,12.4,17.3
			c5.267-2.667,11.15-5.033,17.65-7.1C36.883,8,42.35,6.783,46.45,6.55z"/>
	</g>
	
		<linearGradient id="SVGID_4_" gradientUnits="userSpaceOnUse" x1="-81.4487" y1="99.7715" x2="52.0338" y2="99.7715" gradientTransform="matrix(0.1028 -0.9947 0.993 0.119 4.552007e-004 4.084557e-004)">
		<stop  offset="0" style="stop-color:#00140C"/>
		<stop  offset="0.4078" style="stop-color:#217387"/>
		<stop  offset="0.7922" style="stop-color:#4BABA7"/>
		<stop  offset="1" style="stop-color:#52C482"/>
	</linearGradient>
	<path style="fill-rule:evenodd;clip-rule:evenodd;fill:url(#SVGID_4_);" d="M116.5,26.25c0.934,0.366,1.434,0.65,1.5,0.85
		c0.066,0.233-0.417,0.334-1.45,0.301c-2.133-0.101-6.283,0.3-12.45,1.199c-4.1,0.567-9.316,0.117-15.649-1.35
		c-1.367-0.3-3.5-0.533-6.4-0.7l-4-0.2c-0.5-0.1-0.8-0.216-0.899-0.35c-0.233-0.267,0.666-0.517,2.699-0.75
		c6.067-0.7,10.534-1.5,13.4-2.4c2.066-0.633,4.283-0.866,6.65-0.699c1.733,0.133,4.05,0.533,6.949,1.199
		C110.083,24.116,113.3,25.083,116.5,26.25z"/>
</g>
</svg>
