<?xml version="1.0" encoding="iso-8859-1"?>
<!-- Generator: Adobe Illustrator 15.1.0, SVG Export Plug-In . SVG Version: 6.00 Build 0)  -->
<!DOCTYPE svg PUBLIC "-//W3C//DTD SVG 1.1//EN" "http://www.w3.org/Graphics/SVG/1.1/DTD/svg11.dtd">
<svg version="1.1" id="Layer_3" xmlns="http://www.w3.org/2000/svg" xmlns:xlink="http://www.w3.org/1999/xlink" x="0px" y="0px"
	 width="190.85px" height="30.1px" viewBox="0 0 190.85 30.1" style="enable-background:new 0 0 190.85 30.1;" xml:space="preserve"
	>
<g>
	<linearGradient id="SVGID_1_" gradientUnits="userSpaceOnUse" x1="22.4595" y1="126.2002" x2="42.8761" y2="-57.8528">
		<stop  offset="0" style="stop-color:#00140C"/>
		<stop  offset="0.4078" style="stop-color:#217387"/>
		<stop  offset="0.7922" style="stop-color:#4BABA7"/>
		<stop  offset="1" style="stop-color:#52C482"/>
	</linearGradient>
	<path style="fill-rule:evenodd;clip-rule:evenodd;fill:url(#SVGID_1_);" d="M66,18.95c1.533,0.8,2.35,1.45,2.45,1.95
		c0.133,0.533-0.684,0.783-2.45,0.75c-3.333-0.134-10.283,0.933-20.85,3.199c-4.3,0.934-9.2,0.95-14.7,0.051
		c-3.3-0.5-7.117-1.434-11.45-2.801c-2.267-0.699-5.85-1.216-10.75-1.55c-2.433-0.2-4.65-0.316-6.65-0.35
		C0.733,20,0.217,19.717,0.05,19.35c-0.367-0.666,1.15-1.3,4.55-1.899c4.467-0.8,8.083-1.55,10.85-2.25
		c4.433-1.1,8.316-2.417,11.65-3.95c3.467-1.567,7.183-2.2,11.15-1.9c2.933,0.267,6.833,1.183,11.7,2.75c3.5,1.133,6.6,2.3,9.3,3.5
		C60.85,16.333,63.1,17.45,66,18.95z"/>
	<linearGradient id="SVGID_2_" gradientUnits="userSpaceOnUse" x1="125.6699" y1="171.4697" x2="154.6829" y2="-90.7736">
		<stop  offset="0" style="stop-color:#00140C"/>
		<stop  offset="0.4078" style="stop-color:#217387"/>
		<stop  offset="0.7922" style="stop-color:#4BABA7"/>
		<stop  offset="1" style="stop-color:#52C482"/>
	</linearGradient>
	<path style="fill-rule:evenodd;clip-rule:evenodd;fill:url(#SVGID_2_);" d="M187.25,22.35c2.2,0.967,3.4,1.75,3.6,2.351
		c0.167,0.666-1,0.95-3.5,0.85c-5.033-0.133-14.949,1.117-29.75,3.75c-6.066,1.066-13.05,1.033-20.949-0.1
		c-4.601-0.634-10.051-1.783-16.351-3.45c-3.233-0.866-8.333-1.533-15.3-2l-9.45-0.45c-1.233-0.267-1.983-0.6-2.25-1
		c-0.5-0.8,1.65-1.55,6.45-2.25c6.533-0.967,11.684-1.833,15.45-2.6c6.333-1.3,11.866-2.85,16.6-4.65
		c4.934-1.867,10.233-2.583,15.9-2.15c4.2,0.3,9.75,1.417,16.649,3.35c5.067,1.4,9.5,2.816,13.301,4.25
		C180.15,19.217,183.35,20.583,187.25,22.35z"/>
	<g>
		
			<linearGradient id="SVGID_3_" gradientUnits="userSpaceOnUse" x1="-102.7729" y1="99.2656" x2="92.21" y2="99.2656" gradientTransform="matrix(0.1015 -0.9948 0.9928 0.121 -3.875643e-004 -2.216101e-004)">
			<stop  offset="0" style="stop-color:#00140C"/>
			<stop  offset="0.4078" style="stop-color:#217387"/>
			<stop  offset="0.7922" style="stop-color:#4BABA7"/>
			<stop  offset="1" style="stop-color:#52C482"/>
		</linearGradient>
		<path style="fill-rule:evenodd;clip-rule:evenodd;fill:url(#SVGID_3_);" d="M121.65,7.8c1.133,0.633,1.75,1.15,1.85,1.55
			c0.066,0.4-0.533,0.566-1.8,0.5c-1.167-0.033-2.884,0.05-5.15,0.25c-1.833-0.9-4.166-1.85-7-2.85
			C106.017,5.983,103.167,5.233,101,5c-2.9-0.3-5.616,0.117-8.15,1.25c-2.4,1.1-5.184,2.05-8.35,2.85
			c-1.333-0.367-2.767-0.684-4.3-0.95L78.3,7.8c-1.233-0.167-2.233-0.367-3-0.6c-1.533-0.5-1.066-0.967,1.4-1.4
			c3.3-0.566,5.95-1.083,7.95-1.55c3.233-0.8,6.067-1.75,8.5-2.85c2.5-1.167,5.216-1.6,8.15-1.3c2.101,0.233,4.95,0.983,8.55,2.25
			c2.567,0.9,4.851,1.833,6.851,2.8C117.833,5.683,119.483,6.567,121.65,7.8z"/>
		
			<linearGradient id="SVGID_4_" gradientUnits="userSpaceOnUse" x1="-104.5073" y1="100.9805" x2="93.6175" y2="100.9805" gradientTransform="matrix(0.1016 -0.9948 0.9929 0.1209 1.512766e-004 -1.494884e-004)">
			<stop  offset="0" style="stop-color:#52C482"/>
			<stop  offset="0.2078" style="stop-color:#4BABA7"/>
			<stop  offset="0.5922" style="stop-color:#217387"/>
			<stop  offset="1" style="stop-color:#00140C"/>
		</linearGradient>
		<path style="fill-rule:evenodd;clip-rule:evenodd;fill:url(#SVGID_4_);" d="M92.85,6.25C95.384,5.117,98.1,4.7,101,5
			c2.167,0.233,5.017,0.983,8.55,2.25c2.834,1,5.167,1.95,7,2.85L109,10.95c-4.167,0.5-8.3,0.633-12.4,0.4
			c-3.866-0.2-6.85-0.65-8.95-1.35c-1-0.333-2.05-0.633-3.15-0.9C87.667,8.3,90.45,7.35,92.85,6.25z"/>
		
			<linearGradient id="SVGID_5_" gradientUnits="userSpaceOnUse" x1="-47.5117" y1="100.9619" x2="81.896" y2="100.9619" gradientTransform="matrix(0.1149 -0.9934 0.9911 0.1344 -4.473776e-004 6.705523e-005)">
			<stop  offset="0" style="stop-color:#00140C"/>
			<stop  offset="0.4078" style="stop-color:#217387"/>
			<stop  offset="0.7922" style="stop-color:#4BABA7"/>
			<stop  offset="1" style="stop-color:#52C482"/>
		</linearGradient>
		<path style="fill-rule:evenodd;clip-rule:evenodd;fill:url(#SVGID_5_);" d="M92.85,6.25C95.384,5.117,98.1,4.7,101,5
			c2.167,0.233,5.017,0.983,8.55,2.25c2.834,1,5.167,1.95,7,2.85L109,10.95c-4.167,0.5-8.3,0.633-12.4,0.4
			c-3.866-0.2-6.85-0.65-8.95-1.35c-1-0.333-2.05-0.633-3.15-0.9C87.667,8.3,90.45,7.35,92.85,6.25z"/>
	</g>
</g>
</svg>
