<?xml version="1.0" encoding="iso-8859-1"?>
<!-- Generator: Adobe Illustrator 15.1.0, SVG Export Plug-In . SVG Version: 6.00 Build 0)  -->
<!DOCTYPE svg PUBLIC "-//W3C//DTD SVG 1.1//EN" "http://www.w3.org/Graphics/SVG/1.1/DTD/svg11.dtd">
<svg version="1.1" id="Layer_3" xmlns="http://www.w3.org/2000/svg" xmlns:xlink="http://www.w3.org/1999/xlink" x="0px" y="0px"
	 width="715px" height="83.5px" viewBox="0 0 715 83.5" style="enable-background:new 0 0 715 83.5;" xml:space="preserve">
<path style="fill-rule:evenodd;clip-rule:evenodd;fill:#3E9A9D;" d="M701.35,2.05c3.334,1.867,6.2,5.667,8.601,11.4
	c2.233,5.267,3.733,11.3,4.5,18.1c0.8,6.8,0.7,12.934-0.3,18.4c-1.067,5.899-3.018,9.934-5.851,12.1
	c-10.934,8.467-27.434,13.267-49.5,14.4c-3.467,0.2-8.467,0.133-15-0.2c-6.8-0.333-11.8-0.434-15-0.3c-2.066,0.1-6.3,0.6-12.7,1.5
	c-5.166,0.733-9.416,0.967-12.75,0.7c-16.533-1.334-31.416-1.2-44.649,0.399c-9.434,1.167-17.25,1.8-23.45,1.9
	c-8.167,0.133-15.967-0.5-23.4-1.9c-8.133-1.533-17.833-1.75-29.1-0.649c-6.2,0.699-10.9,1.216-14.1,1.55
	c-5.567,0.566-10.483,0.866-14.75,0.899c-5.267,0.034-12.301-0.316-21.101-1.05c-10.366-0.899-17.399-1.416-21.1-1.55
	c-4.9-0.167-11.134,0.184-18.7,1.05c-9.667,1.101-15.884,1.717-18.65,1.851c-5.899,0.3-12.583,0.216-20.05-0.25
	c-2.9-0.167-9.566-0.7-20-1.601c-4.667-0.399-10.033-0.333-16.1,0.2c-7.1,0.8-12.467,1.384-16.1,1.75c-5.833,0.6-12.55,0.6-20.15,0
	c-8.833-0.934-15.517-1.616-20.05-2.05c-6.1-0.601-12.783-0.5-20.05,0.3c-8.434,1.2-14.934,2.083-19.5,2.65
	c-13.633,1.699-30.45,2.233-50.45,1.6c-22.5-1.134-39.333-1.8-50.5-2c-5.333-0.134-12.367,0.05-21.1,0.55
	c-21.3,1.033-35.35,1.467-42.15,1.3c-17.433-0.5-31.033-3.133-40.8-7.899c-4.033-1.967-7.583-6-10.65-12.101
	C3.833,57.333,1.867,50.767,0.8,43.4C-0.3,35.867-0.233,29.017,1,22.85C2.367,16.083,4.95,11.167,8.75,8.1
	c4-3.2,10.917-3.783,20.75-1.75c5.367,1.1,12.4,3.033,21.1,5.8c3.667,0.934,12.85,3.383,27.55,7.35c11.3,3.067,20.517,5.4,27.65,7
	c9.633,2.167,23.784,4.067,42.45,5.7c19.267,1.667,33.433,3.45,42.5,5.35c12.567,2.633,27.35,4.517,44.35,5.65
	c9.867,0.633,24.8,1.383,44.8,2.25c23.467,1.366,56.2,0.684,98.2-2.05c24.9-1.634,41.284-2.634,49.15-3
	c18.5-0.9,34.934-1.2,49.3-0.9c21.667,0.5,46.101-0.45,73.3-2.85c10.167-0.9,22.017-3.05,35.551-6.45
	c7.666-1.934,19.316-4.934,34.949-9c5.233-1.2,13-2.95,23.301-5.25c8.767-2.167,16.333-4.55,22.699-7.15
	c0.434-0.167,3.134-1.367,8.101-3.6c3.6-1.6,6.616-2.784,9.05-3.55C690.833-0.683,696.783-0.55,701.35,2.05z"/>
</svg>
