<?xml version="1.0" encoding="iso-8859-1"?>
<!-- Generator: Adobe Illustrator 15.1.0, SVG Export Plug-In . SVG Version: 6.00 Build 0)  -->
<!DOCTYPE svg PUBLIC "-//W3C//DTD SVG 1.1//EN" "http://www.w3.org/Graphics/SVG/1.1/DTD/svg11.dtd">
<svg version="1.1" id="Layer_3" xmlns="http://www.w3.org/2000/svg" xmlns:xlink="http://www.w3.org/1999/xlink" x="0px" y="0px"
	 width="79.8px" height="19.75px" viewBox="0 0 79.8 19.75" style="enable-background:new 0 0 79.8 19.75;" xml:space="preserve">
<linearGradient id="SVGID_1_" gradientUnits="userSpaceOnUse" x1="-84.0244" y1="40.9443" x2="106.678" y2="40.9443" gradientTransform="matrix(0.1167 -0.9932 0.9946 0.1042 1.375899e-004 4.576296e-004)">
	<stop  offset="0" style="stop-color:#00140C"/>
	<stop  offset="0.4078" style="stop-color:#217387"/>
	<stop  offset="0.7922" style="stop-color:#4BABA7"/>
	<stop  offset="1" style="stop-color:#52C482"/>
</linearGradient>
<path style="fill-rule:evenodd;clip-rule:evenodd;fill:url(#SVGID_1_);" d="M75.3,9.15c1.733,0.367,2.717,0.6,2.95,0.7
	c1.066,0.3,1.583,0.667,1.55,1.1c-0.033,0.566-1.166,1.017-3.399,1.35c-3.667,0.566-6.4,1.117-8.2,1.65c-9,2.633-15,4.3-18,5
	C45.4,20.017,39.85,20.033,33.55,19c-1.933-0.3-6.733-1.417-14.4-3.35c-5-1.233-9.983-2.067-14.95-2.5
	C1.467,12.917,0.067,12.467,0,11.8c-0.1-1.033,1.45-1.917,4.65-2.65C12.283,7.383,17,6.233,18.8,5.7c1.3-0.4,3.6-1.2,6.9-2.4
	c3.066-1.167,5.35-1.95,6.85-2.35C37.25-0.35,42.533-0.333,48.4,1C49.1,1.167,54.167,2.75,63.6,5.75
	c2.134,0.667,4.384,1.367,6.75,2.1C71.884,8.317,73.533,8.75,75.3,9.15z"/>
</svg>
