<?xml version="1.0" encoding="iso-8859-1"?>
<!-- Generator: Adobe Illustrator 15.1.0, SVG Export Plug-In . SVG Version: 6.00 Build 0)  -->
<!DOCTYPE svg PUBLIC "-//W3C//DTD SVG 1.1//EN" "http://www.w3.org/Graphics/SVG/1.1/DTD/svg11.dtd">
<svg version="1.1" id="Layer_3" xmlns="http://www.w3.org/2000/svg" xmlns:xlink="http://www.w3.org/1999/xlink" x="0px" y="0px"
	 width="100.95px" height="114.45px" viewBox="0 0 100.95 114.45" style="enable-background:new 0 0 100.95 114.45;"
	 xml:space="preserve">
<symbol  id="flash0.ai_x2F_Layer_3_x2F__x3C_Path_x3E_" viewBox="-0.001 -14.432 14.305 14.465">
	<g id="Layer_1_22_">
		<path style="fill-rule:evenodd;clip-rule:evenodd;fill:#1F1A1C;" d="M9.35-0.5c2.1-0.567,3.417-1.117,3.95-1.65
			c0.267-0.233,0.534-1.733,0.8-4.5c0.233-2.733,0.267-4.317,0.1-4.75c-0.267-0.667-1.633-1.383-4.1-2.15
			c-2.333-0.7-3.917-0.983-4.75-0.85c-0.667,0.133-1.717,1.217-3.15,3.25c-1.4,2-2.133,3.433-2.2,4.3
			c-0.033,0.7,0.733,1.934,2.3,3.7C3.7-1.583,4.783-0.567,5.55-0.1C6.017,0.167,7.283,0.033,9.35-0.5z"/>
	</g>
</symbol>
<symbol  id="flash0.ai_x2F_Layer_3_x2F__x3C_Path_x3E__x5F_0" viewBox="-0.045 -2.756 2.995 2.756">
	<g id="Layer_1_28_">
		
			<radialGradient id="SVGID_1_" cx="-3296.9922" cy="-9382.207" r="1.201" gradientTransform="matrix(0.6266 -0.7793 -1.0328 -0.8304 -7622.4492 -10361.7422)" gradientUnits="userSpaceOnUse">
			<stop  offset="0" style="stop-color:#FFFFFF"/>
			<stop  offset="0.0745" style="stop-color:#F8F8F8;stop-opacity:0.9686"/>
			<stop  offset="0.1843" style="stop-color:#E4E4E4;stop-opacity:0.8824"/>
			<stop  offset="0.3137" style="stop-color:#C4C3C4;stop-opacity:0.7412"/>
			<stop  offset="0.4588" style="stop-color:#979697;stop-opacity:0.549"/>
			<stop  offset="0.6196" style="stop-color:#5D5C5D;stop-opacity:0.298"/>
			<stop  offset="0.7922" style="stop-color:#181618;stop-opacity:0"/>
			<stop  offset="0.7922" style="stop-color:#171517;stop-opacity:0"/>
		</radialGradient>
		<path style="fill-rule:evenodd;clip-rule:evenodd;fill:url(#SVGID_1_);" d="M2.2-2.3C1.867-2.567,1.5-2.717,1.1-2.75
			S0.4-2.667,0.2-2.4C-0.033-2.167-0.1-1.85,0-1.45c0.1,0.367,0.333,0.7,0.7,1C1.067-0.183,1.433-0.033,1.8,0
			c0.4,0,0.717-0.117,0.95-0.35C2.95-0.583,3-0.9,2.9-1.3C2.8-1.667,2.567-2,2.2-2.3z"/>
	</g>
</symbol>
<symbol  id="flash0.ai_x2F_Layer_3_x2F__x3C_Path_x3E__x5F_1" viewBox="0 -16.566 11.502 16.582">
	<g id="Layer_1_2_">
		
			<radialGradient id="SVGID_2_" cx="-632.4082" cy="-715.2466" r="11.0876" gradientTransform="matrix(0.9966 -0.0825 -0.1136 -1.3732 558.2788 -1051.2119)" gradientUnits="userSpaceOnUse">
			<stop  offset="0" style="stop-color:#43485A"/>
			<stop  offset="0.4314" style="stop-color:#3D2940"/>
			<stop  offset="0.6" style="stop-color:#2D212F"/>
			<stop  offset="0.8314" style="stop-color:#1D181D"/>
			<stop  offset="1" style="stop-color:#171517"/>
		</radialGradient>
		<path style="fill-rule:evenodd;clip-rule:evenodd;fill:url(#SVGID_2_);" d="M11.45-8.75c-0.167-2.267-0.867-4.167-2.1-5.7
			c-1.267-1.533-2.684-2.233-4.25-2.1c-1.6,0.133-2.883,1.05-3.85,2.75c-1,1.733-1.4,3.733-1.2,6c0.2,2.267,0.917,4.167,2.15,5.7
			C3.467-0.567,4.883,0.133,6.45,0C8.017-0.133,9.3-1.05,10.3-2.75C11.267-4.45,11.65-6.45,11.45-8.75z"/>
	</g>
</symbol>
<symbol  id="flash0.ai_x2F_Layer_3_x2F__x3C_Path_x3E__x5F_10" viewBox="-0.006 -2.65 2.756 2.667">
	<g id="Layer_1_12_">
		<path style="fill-rule:evenodd;clip-rule:evenodd;fill:#1F1A1C;" d="M1.5,0c0.4-0.033,0.65-0.083,0.75-0.15
			c0.067-0.033,0.167-0.3,0.3-0.8c0.133-0.466,0.2-0.75,0.2-0.85c-0.033-0.133-0.267-0.317-0.7-0.55c-0.433-0.2-0.716-0.3-0.85-0.3
			s-0.35,0.167-0.65,0.5C0.217-1.85,0.033-1.617,0-1.45C-0.033-1.317,0.067-1.067,0.3-0.7c0.2,0.333,0.367,0.55,0.5,0.65
			C0.867,0.017,1.1,0.033,1.5,0z"/>
	</g>
</symbol>
<symbol  id="flash0.ai_x2F_Layer_3_x2F__x3C_Path_x3E__x5F_11" viewBox="-0.017 -8.9 9.131 8.9">
	<g id="Layer_1_11_">
		<path style="fill-rule:evenodd;clip-rule:evenodd;fill:#1F1A1C;" d="M7.6-0.65C7.767-0.783,8.083-1.667,8.55-3.3
			C8.983-4.933,9.167-5.883,9.1-6.15C9-6.583,8.25-7.167,6.85-7.9c-1.367-0.667-2.3-1-2.8-1c-0.433,0-1.183,0.55-2.25,1.65
			C0.733-6.183,0.133-5.4,0-4.9c-0.1,0.433,0.233,1.267,1,2.5c0.7,1.1,1.25,1.833,1.65,2.2C2.917,0,3.717,0.05,5.05-0.05
			C6.383-0.183,7.233-0.383,7.6-0.65z"/>
	</g>
</symbol>
<symbol  id="flash0.ai_x2F_Layer_3_x2F__x3C_Path_x3E__x5F_12" viewBox="0.025 -5.65 5.793 5.664">
	<g id="Layer_1_10_">
		<path style="fill-rule:evenodd;clip-rule:evenodd;fill:#1F1A1C;" d="M5.45-2.1c0.3-1.033,0.417-1.633,0.35-1.8
			C5.733-4.167,5.25-4.533,4.35-5C3.483-5.433,2.9-5.65,2.6-5.65c-0.267,0-0.733,0.35-1.4,1.05C0.5-3.9,0.117-3.4,0.05-3.1
			c-0.1,0.267,0.1,0.8,0.6,1.6C1.083-0.8,1.433-0.333,1.7-0.1c0.167,0.133,0.667,0.15,1.5,0.05C4.067-0.117,4.617-0.233,4.85-0.4
			C4.983-0.467,5.183-1.033,5.45-2.1z"/>
	</g>
</symbol>
<symbol  id="flash0.ai_x2F_Layer_3_x2F__x3C_Path_x3E__x5F_13" viewBox="-0.003 -5.667 5.636 5.697">
	<g id="Layer_1_9_">
		<path style="fill-rule:evenodd;clip-rule:evenodd;fill:#1F1A1C;" d="M3.6-0.15c0.8-0.2,1.316-0.4,1.55-0.6
			c0.1-0.133,0.217-0.733,0.35-1.8C5.633-3.617,5.667-4.233,5.6-4.4C5.5-4.667,4.967-4.95,4-5.25c-0.933-0.333-1.55-0.467-1.85-0.4
			C1.883-5.617,1.467-5.2,0.9-4.4C0.333-3.633,0.033-3.083,0-2.75c-0.033,0.3,0.25,0.8,0.85,1.5c0.5,0.6,0.917,1,1.25,1.2
			C2.267,0.083,2.767,0.05,3.6-0.15z"/>
	</g>
</symbol>
<symbol  id="flash0.ai_x2F_Layer_3_x2F__x3C_Path_x3E__x5F_14" viewBox="-0.003 -5.667 5.643 5.667">
	<g id="Layer_1_8_">
		<path style="fill-rule:evenodd;clip-rule:evenodd;fill:#1F1A1C;" d="M5.15-0.8c0.133-0.1,0.267-0.684,0.4-1.75
			C5.65-3.617,5.667-4.233,5.6-4.4C5.5-4.667,4.967-4.95,4-5.25c-0.933-0.333-1.55-0.467-1.85-0.4C1.883-5.617,1.467-5.2,0.9-4.4
			C0.333-3.633,0.033-3.083,0-2.75C-0.033-2.483,0.25-2,0.85-1.3C1.383-0.667,1.8-0.25,2.1-0.05C2.3,0.05,2.8,0,3.6-0.2
			C4.433-0.4,4.95-0.6,5.15-0.8z"/>
	</g>
</symbol>
<symbol  id="flash0.ai_x2F_Layer_3_x2F__x3C_Path_x3E__x5F_15" viewBox="0.036 -4.85 4.921 4.84">
	<g id="Layer_1_7_">
		<path style="fill-rule:evenodd;clip-rule:evenodd;fill:#1F1A1C;" d="M2.75-0.05c0.7-0.067,1.167-0.167,1.4-0.3
			c0.1-0.066,0.267-0.55,0.5-1.45c0.233-0.867,0.333-1.383,0.3-1.55C4.917-3.583,4.517-3.9,3.75-4.3
			C2.983-4.667,2.467-4.85,2.2-4.85c-0.233,0-0.633,0.3-1.2,0.9c-0.567,0.6-0.883,1.034-0.95,1.3c-0.066,0.233,0.1,0.683,0.5,1.35
			c0.367,0.6,0.667,1,0.9,1.2C1.617,0,2.05,0.017,2.75-0.05z"/>
	</g>
</symbol>
<symbol  id="flash0.ai_x2F_Layer_3_x2F__x3C_Path_x3E__x5F_16" viewBox="-0.013 -4.85 4.933 4.833">
	<g id="Layer_1_6_">
		<path style="fill-rule:evenodd;clip-rule:evenodd;fill:#1F1A1C;" d="M2.7-0.05c0.733-0.067,1.2-0.167,1.4-0.3
			C4.2-0.417,4.367-0.9,4.6-1.8c0.267-0.9,0.367-1.417,0.3-1.55C4.867-3.583,4.467-3.9,3.7-4.3C2.967-4.667,2.467-4.85,2.2-4.85
			c-0.233,0-0.65,0.3-1.25,0.9C0.383-3.383,0.067-2.967,0-2.7c-0.067,0.233,0.117,0.684,0.55,1.35c0.367,0.6,0.667,1,0.9,1.2
			C1.583-0.017,2,0.017,2.7-0.05z"/>
	</g>
</symbol>
<symbol  id="flash0.ai_x2F_Layer_3_x2F__x3C_Path_x3E__x5F_17" viewBox="0.025 -5.65 5.793 5.633">
	<g id="Layer_1_5_">
		<path style="fill-rule:evenodd;clip-rule:evenodd;fill:#1F1A1C;" d="M5.45-2.1c0.3-1.033,0.417-1.633,0.35-1.8
			C5.733-4.167,5.25-4.533,4.35-5C3.483-5.433,2.9-5.65,2.6-5.65c-0.267,0-0.733,0.35-1.4,1.05C0.5-3.9,0.117-3.4,0.05-3.1
			c-0.1,0.267,0.1,0.783,0.6,1.55c0.434,0.7,0.783,1.167,1.05,1.4c0.167,0.133,0.667,0.167,1.5,0.1
			C4.033-0.117,4.583-0.233,4.85-0.4C4.983-0.467,5.183-1.033,5.45-2.1z"/>
	</g>
</symbol>
<symbol  id="flash0.ai_x2F_Layer_3_x2F__x3C_Path_x3E__x5F_18" viewBox="-0.011 -6 6.166 6.006">
	<g id="Layer_1_4_">
		<path style="fill-rule:evenodd;clip-rule:evenodd;fill:#1F1A1C;" d="M3.4-0.05c0.9-0.067,1.467-0.2,1.7-0.4
			c0.133-0.066,0.35-0.667,0.65-1.8c0.3-1.067,0.433-1.7,0.4-1.9C6.083-4.45,5.567-4.833,4.6-5.3C3.667-5.767,3.033-6,2.7-6
			C2.4-6,1.9-5.633,1.2-4.9C0.467-4.167,0.067-3.633,0-3.3C-0.067-3,0.167-2.433,0.7-1.6c0.466,0.767,0.833,1.25,1.1,1.45
			C1.967,0.017,2.5,0.05,3.4-0.05z"/>
	</g>
</symbol>
<symbol  id="flash0.ai_x2F_Layer_3_x2F__x3C_Path_x3E__x5F_1_x5F_0" viewBox="0.012 -12.955 7.043 12.961">
	<g id="Layer_1_3_">
		
			<radialGradient id="SVGID_3_" cx="-633.3457" cy="-708.1445" r="6.735" gradientTransform="matrix(0.9966 -0.0821 -0.1459 -1.7725 533.4204 -1320.314)" gradientUnits="userSpaceOnUse">
			<stop  offset="0" style="stop-color:#43485A"/>
			<stop  offset="0.4314" style="stop-color:#3D2940"/>
			<stop  offset="0.6" style="stop-color:#2D212F"/>
			<stop  offset="0.8314" style="stop-color:#1D181D"/>
			<stop  offset="1" style="stop-color:#171517"/>
		</radialGradient>
		<path style="fill-rule:evenodd;clip-rule:evenodd;fill:url(#SVGID_3_);" d="M7-6.75c-0.133-1.8-0.6-3.3-1.4-4.5
			c-0.767-1.2-1.633-1.767-2.6-1.7c-0.967,0.067-1.733,0.767-2.3,2.1C0.133-9.517-0.083-7.967,0.05-6.2c0.167,1.8,0.633,3.3,1.4,4.5
			C2.217-0.5,3.083,0.067,4.05,0c0.967-0.067,1.733-0.767,2.3-2.1C6.95-3.4,7.167-4.95,7-6.75z"/>
	</g>
</symbol>
<symbol  id="flash0.ai_x2F_Layer_3_x2F__x3C_Path_x3E__x5F_1_x5F_1" viewBox="-0.04 -12.821 13.19 12.821">
	<g id="Layer_1_21_">
		<path style="fill-rule:evenodd;clip-rule:evenodd;fill:#1F1A1C;" d="M11.4-3.55c1.133-2.1,1.717-3.367,1.75-3.8
			c0-0.667-0.867-1.717-2.6-3.15C8.883-11.9,7.7-12.667,7-12.8c-0.567-0.133-1.783,0.367-3.65,1.5c-1.8,1.133-2.883,2.033-3.25,2.7
			c-0.3,0.567-0.117,1.833,0.55,3.8c0.6,1.733,1.133,2.933,1.6,3.6c0.267,0.367,1.35,0.7,3.25,1c1.867,0.267,3.1,0.267,3.7,0
			C9.5-0.333,10.233-1.45,11.4-3.55z"/>
	</g>
</symbol>
<symbol  id="flash0.ai_x2F_Layer_3_x2F__x3C_Path_x3E__x5F_1_x5F_2" viewBox="-0.05 -2.756 3 2.756">
	<g id="Layer_1_27_">
		
			<radialGradient id="SVGID_4_" cx="-3296.9922" cy="-9382.208" r="1.2006" gradientTransform="matrix(0.6266 -0.7793 -1.0328 -0.8304 -7622.4512 -10361.7432)" gradientUnits="userSpaceOnUse">
			<stop  offset="0" style="stop-color:#FFFFFF"/>
			<stop  offset="0.0745" style="stop-color:#F8F8F8;stop-opacity:0.9686"/>
			<stop  offset="0.1843" style="stop-color:#E4E4E4;stop-opacity:0.8824"/>
			<stop  offset="0.3137" style="stop-color:#C4C3C4;stop-opacity:0.7412"/>
			<stop  offset="0.4588" style="stop-color:#979697;stop-opacity:0.549"/>
			<stop  offset="0.6196" style="stop-color:#5D5C5D;stop-opacity:0.298"/>
			<stop  offset="0.7922" style="stop-color:#181618;stop-opacity:0"/>
			<stop  offset="0.7922" style="stop-color:#171517;stop-opacity:0"/>
		</radialGradient>
		<path style="fill-rule:evenodd;clip-rule:evenodd;fill:url(#SVGID_4_);" d="M2.2-2.3C1.867-2.567,1.5-2.717,1.1-2.75
			S0.383-2.667,0.15-2.4C-0.05-2.167-0.1-1.85,0-1.45c0.133,0.4,0.367,0.733,0.7,1C1.067-0.183,1.433-0.033,1.8,0
			c0.4,0,0.717-0.117,0.95-0.35C2.95-0.583,3-0.9,2.9-1.3C2.8-1.667,2.567-2,2.2-2.3z"/>
	</g>
</symbol>
<symbol  id="flash0.ai_x2F_Layer_3_x2F__x3C_Path_x3E__x5F_2" viewBox="-0.002 -10.923 11.202 10.962">
	<g id="Layer_1_20_">
		<path style="fill-rule:evenodd;clip-rule:evenodd;fill:#1F1A1C;" d="M1.95-1C2.183-0.667,3.1-0.383,4.7-0.15
			C6.267,0.083,7.333,0.1,7.9-0.1C8.167-0.233,8.783-1.2,9.75-3c0.967-1.833,1.45-2.917,1.45-3.25c0-0.533-0.733-1.417-2.2-2.65
			c-1.4-1.2-2.4-1.867-3-2c-0.5-0.133-1.55,0.3-3.15,1.3C1.317-8.633,0.4-7.867,0.1-7.3c-0.233,0.5-0.067,1.583,0.5,3.25
			C1.1-2.583,1.55-1.567,1.95-1z"/>
	</g>
</symbol>
<symbol  id="flash0.ai_x2F_Layer_3_x2F__x3C_Path_x3E__x5F_2_x5F_0" viewBox="0 -2.3 2.3 2.3">
	<g id="Layer_1_26_">
		<path style="fill-rule:evenodd;clip-rule:evenodd;fill:#615824;" d="M2.3-1.15c0-0.333-0.117-0.6-0.35-0.8
			C1.75-2.183,1.483-2.3,1.15-2.3c-0.333,0-0.6,0.117-0.8,0.35C0.117-1.75,0-1.483,0-1.15c0,0.333,0.117,0.6,0.35,0.8
			C0.55-0.117,0.817,0,1.15,0c0.333,0,0.6-0.117,0.8-0.35C2.183-0.55,2.3-0.817,2.3-1.15z"/>
	</g>
</symbol>
<symbol  id="flash0.ai_x2F_Layer_3_x2F__x3C_Path_x3E__x5F_3" viewBox="0.031 -8.05 8.233 8.056">
	<g id="Layer_1_19_">
		<path style="fill-rule:evenodd;clip-rule:evenodd;fill:#1F1A1C;" d="M6.9-0.55c0.167-0.133,0.45-0.934,0.85-2.4
			c0.4-1.5,0.567-2.367,0.5-2.6C8.15-5.95,7.467-6.467,6.2-7.1C5-7.733,4.167-8.05,3.7-8.05c-0.4,0-1.083,0.5-2.05,1.5
			c-0.967,0.966-1.5,1.667-1.6,2.1c-0.1,0.4,0.2,1.167,0.9,2.3c0.6,0.967,1.1,1.633,1.5,2c0.233,0.167,0.95,0.2,2.15,0.1
			C5.8-0.15,6.567-0.317,6.9-0.55z"/>
	</g>
</symbol>
<symbol  id="flash0.ai_x2F_Layer_3_x2F__x3C_Path_x3E__x5F_3_x5F_0" viewBox="0 -2.3 2.35 2.3">
	<g id="Layer_1_25_">
		<path style="fill-rule:evenodd;clip-rule:evenodd;fill:#615824;" d="M2.35-1.15c0-0.333-0.117-0.6-0.35-0.8
			C1.767-2.183,1.483-2.3,1.15-2.3c-0.333,0-0.6,0.117-0.8,0.35C0.117-1.75,0-1.483,0-1.15c0,0.333,0.117,0.6,0.35,0.8
			C0.55-0.117,0.817,0,1.15,0C1.483,0,1.767-0.117,2-0.35C2.233-0.55,2.35-0.817,2.35-1.15z"/>
	</g>
</symbol>
<symbol  id="flash0.ai_x2F_Layer_3_x2F__x3C_Path_x3E__x5F_4" viewBox="0 -6.356 6.262 6.388">
	<g id="Layer_1_18_">
		<path style="fill-rule:evenodd;clip-rule:evenodd;fill:#1F1A1C;" d="M6.15-1.3c0.1-0.133,0.133-0.817,0.1-2.05s-0.1-1.933-0.2-2.1
			C5.883-5.717,5.233-5.967,4.1-6.2C3.033-6.367,2.333-6.4,2-6.3C1.7-6.233,1.3-5.717,0.8-4.75C0.267-3.783,0-3.1,0-2.7
			c0.033,0.3,0.433,0.8,1.2,1.5c0.667,0.6,1.2,1,1.6,1.2c0.233,0.1,0.8-0.033,1.7-0.4C5.367-0.733,5.917-1.033,6.15-1.3z"/>
	</g>
</symbol>
<symbol  id="flash0.ai_x2F_Layer_3_x2F__x3C_Path_x3E__x5F_4_x5F_0" viewBox="0 -4 3.85 4">
	<g id="Layer_1_24_">
		<path style="fill-rule:evenodd;clip-rule:evenodd;fill:#453B17;" d="M3.85-2c0-0.567-0.184-1.05-0.55-1.45
			C2.933-3.817,2.483-4,1.95-4C1.417-4,0.967-3.817,0.6-3.45C0.2-3.05,0-2.567,0-2c0,0.533,0.2,1,0.6,1.4C0.967-0.2,1.417,0,1.95,0
			C2.483,0,2.933-0.2,3.3-0.6S3.85-1.467,3.85-2z"/>
	</g>
</symbol>
<symbol  id="flash0.ai_x2F_Layer_3_x2F__x3C_Path_x3E__x5F_5" viewBox="0 -6.356 6.262 6.391">
	<g id="Layer_1_17_">
		<path style="fill-rule:evenodd;clip-rule:evenodd;fill:#1F1A1C;" d="M6.15-1.3c0.1-0.133,0.133-0.817,0.1-2.05s-0.1-1.933-0.2-2.1
			C5.883-5.717,5.233-5.967,4.1-6.2C3.033-6.367,2.333-6.4,2-6.3C1.7-6.233,1.3-5.717,0.8-4.75C0.267-3.783,0-3.1,0-2.7
			c0.033,0.3,0.433,0.8,1.2,1.5C1.9-0.567,2.433-0.167,2.8,0c0.233,0.1,0.8-0.017,1.7-0.35C5.367-0.717,5.917-1.033,6.15-1.3z"/>
	</g>
</symbol>
<symbol  id="flash0.ai_x2F_Layer_3_x2F__x3C_Path_x3E__x5F_5_x5F_0" viewBox="0 -4.15 3.75 4.15">
	<g id="Layer_1_23_">
		<path style="fill-rule:evenodd;clip-rule:evenodd;fill:#453B17;" d="M3.75-2.05c0-0.567-0.183-1.067-0.55-1.5
			c-0.367-0.4-0.8-0.6-1.3-0.6c-0.533,0-0.983,0.2-1.35,0.6C0.183-3.117,0-2.617,0-2.05C0-1.483,0.183-1,0.55-0.6S1.367,0,1.9,0
			c0.5,0,0.934-0.2,1.3-0.6C3.567-1.033,3.75-1.517,3.75-2.05z"/>
	</g>
</symbol>
<symbol  id="flash0.ai_x2F_Layer_3_x2F__x3C_Path_x3E__x5F_6" viewBox="0.044 -2.65 2.716 2.667">
	<g id="Layer_1_16_">
		<path style="fill-rule:evenodd;clip-rule:evenodd;fill:#1F1A1C;" d="M2.6-0.95c0.133-0.5,0.183-0.8,0.15-0.9
			C2.717-1.983,2.5-2.15,2.1-2.35c-0.434-0.2-0.717-0.3-0.85-0.3S0.9-2.483,0.6-2.15c-0.333,0.3-0.517,0.533-0.55,0.7
			C0.017-1.317,0.117-1.067,0.35-0.7c0.2,0.333,0.367,0.55,0.5,0.65C0.917,0.017,1.15,0.033,1.55,0C1.95-0.033,2.2-0.083,2.3-0.15
			C2.367-0.217,2.467-0.483,2.6-0.95z"/>
	</g>
</symbol>
<symbol  id="flash0.ai_x2F_Layer_3_x2F__x3C_Path_x3E__x5F_7" viewBox="-0.006 -2.7 2.766 2.667">
	<g id="Layer_1_15_">
		<path style="fill-rule:evenodd;clip-rule:evenodd;fill:#1F1A1C;" d="M2.6-1c0.133-0.5,0.183-0.783,0.15-0.85
			C2.717-1.983,2.483-2.167,2.05-2.4C1.65-2.6,1.367-2.7,1.2-2.7c-0.133,0-0.35,0.167-0.65,0.5C0.25-1.9,0.067-1.667,0-1.5
			c-0.033,0.133,0.067,0.383,0.3,0.75C0.5-0.417,0.667-0.2,0.8-0.1c0.067,0.067,0.3,0.083,0.7,0.05C1.9-0.083,2.167-0.133,2.3-0.2
			C2.367-0.267,2.467-0.533,2.6-1z"/>
	</g>
</symbol>
<symbol  id="flash0.ai_x2F_Layer_3_x2F__x3C_Path_x3E__x5F_8" viewBox="-0.006 -3.15 3.214 3.167">
	<g id="Layer_1_14_">
		<path style="fill-rule:evenodd;clip-rule:evenodd;fill:#1F1A1C;" d="M1.75,0c0.467-0.033,0.767-0.1,0.9-0.2
			C2.717-0.233,2.833-0.55,3-1.15c0.167-0.567,0.233-0.9,0.2-1C3.167-2.317,2.9-2.533,2.4-2.8c-0.467-0.233-0.8-0.35-1-0.35
			c-0.133,0-0.383,0.2-0.75,0.6C0.283-2.183,0.067-1.9,0-1.7c-0.033,0.133,0.083,0.417,0.35,0.85c0.233,0.4,0.417,0.667,0.55,0.8
			C1,0.017,1.283,0.033,1.75,0z"/>
	</g>
</symbol>
<symbol  id="flash0.ai_x2F_Layer_3_x2F__x3C_Path_x3E__x5F_9" viewBox="-0.005 -4.1 3.663 4.09">
	<g id="Layer_1_13_">
		<path style="fill-rule:evenodd;clip-rule:evenodd;fill:#1F1A1C;" d="M3.05-0.3c0.067-0.034,0.2-0.434,0.4-1.2
			c0.167-0.767,0.233-1.217,0.2-1.35c-0.033-0.2-0.333-0.467-0.9-0.8C2.217-3.95,1.833-4.1,1.6-4.1c-0.167,0-0.467,0.25-0.9,0.75
			C0.3-2.85,0.067-2.483,0-2.25c-0.033,0.2,0.1,0.583,0.4,1.15c0.267,0.5,0.483,0.833,0.65,1C1.15,0,1.467,0.017,2-0.05
			C2.567-0.083,2.917-0.167,3.05-0.3z"/>
	</g>
</symbol>
<g>
	<g>
		<linearGradient id="SVGID_5_" gradientUnits="userSpaceOnUse" x1="-9.8877" y1="63.3252" x2="101.2873" y2="63.3252">
			<stop  offset="0" style="stop-color:#3D2940"/>
			<stop  offset="0.3098" style="stop-color:#211F21"/>
			<stop  offset="0.6353" style="stop-color:#3D2940"/>
			<stop  offset="1" style="stop-color:#3A4066"/>
		</linearGradient>
		<path style="fill-rule:evenodd;clip-rule:evenodd;fill:url(#SVGID_5_);" d="M96.8,17.1c-0.3,6.167-1.967,14.967-5,26.4
			c-3.399,12.9-5.517,22.6-6.35,29.1C84.017,83.833,82.9,97.783,82.1,114.45L15.7,114.4C15.367,98.967,14.8,86.8,14,77.9
			C13.167,68.8,11.217,57.183,8.15,43.05c-2.4-11-3.433-20.316-3.1-27.95l53.7-2.9L96.8,17.1z"/>
		<path style="fill-rule:evenodd;clip-rule:evenodd;fill:#281C23;" d="M85.45,6.8c4.3,1.4,7.616,3.167,9.95,5.3
			c2.933,2.667,4.449,6,4.55,10c0.033,1.4-0.184,3.167-0.65,5.3c-0.066,0.333-0.366,1.2-0.899,2.6
			c-0.405,1.012-0.622,1.771-0.65,2.275V30.65c-0.366,0.667-0.8,1.633-1.3,2.9c-0.566,1.4-1,2.383-1.3,2.95
			c0.233-1.167,0.216-2.8-0.051-4.9c-0.199,1.633-0.583,3.267-1.149,4.9c-0.667,1.9-1.467,3.35-2.4,4.35
			c0.3-1.267,0.5-2.733,0.601-4.4c0.033-1.9,0.066-3.367,0.1-4.4c-0.467,1.733-1.8,3.184-4,4.35c-3.533,1.9-5.333,2.883-5.4,2.95
			c0.034-0.667,0.317-1.6,0.851-2.8c-0.367,0.367-0.816,1.217-1.351,2.55c-0.5,1.267-1,2.117-1.5,2.55
			c0.567-0.967,0.7-2.033,0.4-3.2c-0.434-1.167-0.667-2.034-0.7-2.6c-0.733,0.4-1.883,0.816-3.45,1.25
			c-1.666,0.467-2.85,0.883-3.55,1.25c0.5-0.667,1-1.15,1.5-1.45c-1.533,0.2-2.816,0.867-3.85,2c0.2-0.933,0.684-1.816,1.45-2.65
			c-1.434,0.267-2.684,0.733-3.75,1.4c-1.467,0.9-2.217,1.967-2.25,3.2c0-2.233,0.083-3.733,0.25-4.5
			c-1.067,1-1.667,2.133-1.801,3.4c-0.267-1.333-0.267-2.667,0-4c-1.733,3.033-4.066,5.1-7,6.2c-0.233,0.1-1.466,0.3-3.699,0.6
			c-1.584,0.227-2.617,0.685-3.101,1.375c0.261-0.4,0.627-1.042,1.101-1.925c0.364-0.625,0.723-1.142,1.074-1.55
			c-0.586,0.588-1.444,1.222-2.574,1.9c-1.444,0.82-2.419,1.479-2.925,1.975c1.21-1.253,2.361-3.187,3.45-5.8
			c-0.385,0.87-1.127,1.611-2.225,2.225c-0.6,0.367-1.617,0.8-3.05,1.3c-1.333,0.367-2.417,0.667-3.25,0.9
			c-1.467,0.433-2.4,0.917-2.8,1.45c0.198-0.628,0.382-1.012,0.55-1.15c-1.034,0.801-1.75,1.668-2.15,2.6
			c-0.033-0.667,0.033-1.467,0.2-2.4c-2.167,1.267-3.267,2.417-3.3,3.45c-1.133-1.733-2.15-3.15-3.05-4.25
			c0.8,1.434,1.5,3.283,2.1,5.55c-0.5-0.833-2.217-2.5-5.15-5c-2.333-1.967-3.633-3.95-3.9-5.95c-0.267,1.1-0.033,2.633,0.7,4.6
			l-0.7-0.7c-0.233-0.3-0.767-1.133-1.6-2.5c-0.6-1.033-1.183-1.767-1.75-2.2c0.167,0.733,0.25,1.767,0.25,3.1
			c0.034,1.633,0.067,2.684,0.1,3.15c-1.433-1.967-2.617-3.383-3.55-4.25c-0.8-0.6-1.434-1.1-1.9-1.5
			c-0.886-0.755-1.319-1.347-1.3-1.775c-0.061,0.957,0.207,1.715,0.8,2.275c-1.14-1.007-1.89-1.707-2.25-2.1
			c-0.767-0.867-1.367-1.75-1.8-2.65c-0.533,3.267-0.767,5.466-0.7,6.6c-0.4-1.233-0.7-2.15-0.9-2.75
			c-0.333-1.066-0.7-1.95-1.1-2.65c-0.333-0.533-1-1.367-2-2.5c-0.9-1.033-1.517-1.883-1.85-2.55c0.133,0.633,0.667,2.066,1.6,4.3
			c0.767,2.333,0.983,4.417,0.65,6.25c0.033-1.566-0.8-3.683-2.5-6.35c-1.733-2.767-2.617-4.583-2.65-5.45C2.783,28.3,2.8,29.1,3,30
			c0.2,0.833,0.517,1.617,0.95,2.35C2.383,30.417,1.267,28.2,0.6,25.7c-0.733-2.7-0.8-5.167-0.2-7.4c0.767-2.966,2.934-5.4,6.5-7.3
			c2.4-1.3,5.617-2.4,9.65-3.3c4.934-1.133,11.367-1.8,19.3-2C41.383,5.6,49.7,5.083,60.8,4.15C70.566,3.783,78.783,4.667,85.45,6.8
			z"/>
		<path style="fill-rule:evenodd;clip-rule:evenodd;fill:#60B5B1;" d="M96.05,10.6c1.967,1.967,3.334,3.983,4.101,6.05
			c0.866,2.4,1.033,5.2,0.5,8.4c-0.101-3.267-0.75-5.383-1.95-6.35c-0.101,0.4-0.101,1.9,0,4.5c-0.066,2.833-0.684,5.15-1.851,6.95
			c0.567-1.9,0.7-3.667,0.4-5.3c-0.4-1.267-0.6-1.967-0.6-2.1c-0.134,0.9-0.5,1.8-1.101,2.7c-0.366,0.566-0.983,1.35-1.85,2.35
			c0.133-0.767-0.05-1.716-0.55-2.85c-0.467,1.4-1.417,2.633-2.851,3.7c0.5-0.433,0.7-1.433,0.601-3c-1.567,1.133-2.733,2.3-3.5,3.5
			c-0.334-0.566-0.534-1.017-0.601-1.35c-0.066,0.1-0.184,0.65-0.35,1.65c-0.167,1-0.634,2.033-1.4,3.1
			c0.2-0.767,0.184-1.716-0.05-2.85c-0.333-1.133-0.517-1.867-0.55-2.2c-0.367,0.933-1.334,2.067-2.9,3.4
			c-1.467,1.233-2.3,2.25-2.5,3.05c-0.1-1.267,0.2-2.417,0.9-3.45c0.033-0.033,0.55-0.633,1.55-1.8c-1.3,0.033-2.866,0.633-4.7,1.8
			c-1.5,0.967-2.816,2.067-3.95,3.3c0.067-0.5,0.4-1.35,1-2.55c0.601-1.233,1.084-2.033,1.45-2.4c-2.866,0.7-5.25,2.35-7.149,4.95
			c0.533-1.233,0.566-2.583,0.1-4.05c-0.767,0.9-1.3,1.8-1.6,2.7c-0.4-0.967-0.317-1.833,0.25-2.6c-1.834,0.6-3.567,1.683-5.2,3.25
			c-1.9,1.867-2.851,3.75-2.851,5.65c-0.3-0.6-0.683-1.6-1.149-3c-0.5-1.533-0.75-2.567-0.75-3.1c-0.3,0.967-0.4,2.083-0.3,3.35
			c-0.733-1.8-1.233-3.167-1.5-4.1c-0.467,0.833-1.25,1.7-2.351,2.6c-1.297,1.005-2.139,1.739-2.524,2.2
			c0.254-0.318,0.429-0.702,0.524-1.15c0.066-0.466,0.05-0.833-0.05-1.1c-0.434,0.633-1.083,1.333-1.95,2.1
			c-0.966,0.833-1.683,1.467-2.15,1.9c0.133-0.833,0.233-1.45,0.3-1.85c0.133-0.733,0.433-1.283,0.9-1.65
			c-1.2,0.333-2.283,0.9-3.25,1.7c-1.267,1.067-1.983,2.35-2.15,3.85c-0.2-1.5-0.117-2.9,0.25-4.2c0.133-0.533,0.417-1.267,0.85-2.2
			c-3.066,0.7-5,2.017-5.8,3.95c-0.367-1-0.45-1.983-0.25-2.95c-0.967,0.533-1.667,1.65-2.1,3.35c-0.5,1.733-0.467,3.25,0.1,4.55
			c-1.167-1.433-2.017-3.183-2.55-5.25c-0.6-2.367-1.067-3.833-1.4-4.4c-0.267,1.167-0.433,2.066-0.5,2.7
			c-0.396-0.792-1.362-2.091-2.9-3.9c0.407,0.868,0.657,1.518,0.75,1.95c0.133,0.767,0.05,1.717-0.25,2.85
			c-0.533-2.1-1.816-3.717-3.85-4.85c-2.3-1.333-3.667-2.4-4.1-3.2c0.033,0.467,0.267,1.083,0.7,1.85c0.233,0.433,0.6,1.067,1.1,1.9
			c-1.467-0.667-2.883-1.6-4.25-2.8c-1.467-1.3-2.483-2.6-3.05-3.9c-0.253,2.084-0.053,3.776,0.6,5.075
			c-0.352-0.655-0.619-1.163-0.8-1.525c-0.333-0.7-0.683-1.25-1.05-1.65c-0.233-0.267-0.717-0.7-1.45-1.3
			c-0.6-0.5-1.033-0.933-1.3-1.3c-0.393,1.144-0.351,2.269,0.125,3.375C10.212,27.685,9.737,26.71,9.9,25.7
			c-0.566,1.867-0.867,2.917-0.9,3.15c-0.267,1.367-0.183,2.517,0.25,3.45c-0.2-0.367-0.75-1.783-1.65-4.25
			C7,26.383,6.183,25.133,5.15,24.3c0.063,1.043,0.155,1.818,0.275,2.325c-0.147-0.221-0.539-0.712-1.175-1.475
			c-0.533-0.633-0.883-1.2-1.05-1.7c-0.1,1.733,0.3,3.333,1.2,4.8c-1.1-1.2-1.983-2.533-2.65-4c-0.833-1.767-1.1-3.3-0.8-4.6
			c-0.484,1.711-0.643,3.02-0.475,3.925C-0.33,19.87,0.011,16.595,1.5,13.75c1.533-2.9,4.083-4.95,7.65-6.15
			c6.633-2.167,14-3.2,22.1-3.1c0.533,0,3.717,0.1,9.55,0.3c3.667,0.133,6.684,0.117,9.05-0.05C61.884,3.817,69.9,3.433,73.9,3.6
			C84.434,4.033,91.816,6.367,96.05,10.6z"/>
		<path style="fill-rule:evenodd;clip-rule:evenodd;fill:#3E9A9D;" d="M88.75,5.6c3.667,1.533,6.2,3.1,7.6,4.7
			c1.7,1.967,1.483,3.784-0.649,5.45c-1.167,0.933-3.267,1.367-6.3,1.3c-3.934-0.133-7.867,0.45-11.801,1.75
			c-9.633,3.233-16.816,5.184-21.55,5.85c-7.8,1.133-15.033,0.417-21.7-2.15c-3.833-1.667-6.55-2.833-8.15-3.5
			c-2.733-1.067-5.567-1.783-8.5-2.15c-2.4-0.067-4.567-0.2-6.5-0.4c-7.067-0.733-9.333-2.817-6.8-6.25
			c2.8-3.8,7.633-6.45,14.5-7.95c3.3-0.733,8.867-1.35,16.7-1.85c12.867-0.8,24.95-0.467,36.25,1
			C78.483,2.267,84.116,3.667,88.75,5.6z"/>
		<path style="fill-rule:evenodd;clip-rule:evenodd;fill:#3E9A9D;" d="M84.1,19.7c4.301-0.733,6.551-0.133,6.75,1.8
			c0.233,1.967-1.933,3.317-6.5,4.05c-4.633,0.733-6.983,0.133-7.05-1.8C77.233,21.85,79.5,20.5,84.1,19.7z"/>
		<path style="fill-rule:evenodd;clip-rule:evenodd;fill:#3E9A9D;" d="M71.05,23.45c2.3-0.467,3.5-0.083,3.601,1.15
			c0.133,1.267-1.017,2.133-3.45,2.6c-2.467,0.466-3.717,0.083-3.75-1.15C67.417,24.817,68.616,23.95,71.05,23.45z"/>
		<path style="fill-rule:evenodd;clip-rule:evenodd;fill:#3E9A9D;" d="M21.15,18.7c2.767,0.7,3.967,1.667,3.6,2.9
			c-0.4,1.2-2.067,1.4-5,0.6c-2.967-0.8-4.217-1.767-3.75-2.9C16.467,18.133,18.183,17.933,21.15,18.7z"/>
	</g>
	<g>
		
			<use xlink:href="#flash0.ai_x2F_Layer_3_x2F__x3C_Path_x3E__x5F_1"  width="11.502" height="16.582" x="0" y="-16.566" transform="matrix(1 0 0 -1 66.1504 48.8501)" style="overflow:visible;opacity:0.2891;enable-background:new    ;"/>
		
			<radialGradient id="SVGID_6_" cx="79.7139" cy="58.2832" r="10.0724" gradientTransform="matrix(0.9965 0.083 0.1168 -1.4023 -11.6482 139.8145)" gradientUnits="userSpaceOnUse">
			<stop  offset="0" style="stop-color:#43485A"/>
			<stop  offset="0.4314" style="stop-color:#3D2952"/>
			<stop  offset="0.4706" style="stop-color:#39274C"/>
			<stop  offset="0.6824" style="stop-color:#261D2F"/>
			<stop  offset="0.8667" style="stop-color:#1B171D"/>
			<stop  offset="1" style="stop-color:#171517"/>
		</radialGradient>
		<path style="fill-rule:evenodd;clip-rule:evenodd;fill:url(#SVGID_6_);" d="M76.6,57.1c-0.166,2.133-0.816,3.9-1.949,5.3
			c-1.167,1.433-2.467,2.083-3.9,1.949c-1.434-0.1-2.583-0.949-3.45-2.55c-0.899-1.566-1.267-3.416-1.1-5.55
			c0.166-2.133,0.816-3.9,1.95-5.3c1.133-1.4,2.433-2.05,3.899-1.95c1.434,0.133,2.601,0.983,3.5,2.55
			C76.417,53.15,76.767,55,76.6,57.1z"/>
	</g>
	<g>
		
			<use xlink:href="#flash0.ai_x2F_Layer_3_x2F__x3C_Path_x3E__x5F_1_x5F_0"  width="7.043" height="12.961" x="0.012" y="-12.955" transform="matrix(1 0 0 -1 74.9004 67.7998)" style="overflow:visible;opacity:0.2891;enable-background:new    ;"/>
		
			<radialGradient id="SVGID_7_" cx="86.2461" cy="73.332" r="6.1205" gradientTransform="matrix(0.9966 0.0819 0.1487 -1.8095 -16.9113 205.7824)" gradientUnits="userSpaceOnUse">
			<stop  offset="0" style="stop-color:#43485A"/>
			<stop  offset="0.4314" style="stop-color:#3D2940"/>
			<stop  offset="0.6" style="stop-color:#2D212F"/>
			<stop  offset="0.8314" style="stop-color:#1D181D"/>
			<stop  offset="1" style="stop-color:#171517"/>
		</radialGradient>
		<path style="fill-rule:evenodd;clip-rule:evenodd;fill:url(#SVGID_7_);" d="M80.7,69.9c0.533,1.199,0.733,2.633,0.6,4.3
			c-0.133,1.666-0.566,3.066-1.3,4.2c-0.7,1.1-1.483,1.616-2.35,1.55c-0.867-0.066-1.567-0.717-2.101-1.95
			c-0.5-1.233-0.684-2.667-0.55-4.3c0.134-1.667,0.55-3.066,1.25-4.2c0.7-1.1,1.483-1.616,2.35-1.55
			C79.467,68.017,80.167,68.667,80.7,69.9z"/>
	</g>
	
		<use xlink:href="#flash0.ai_x2F_Layer_3_x2F__x3C_Path_x3E__x5F_18"  width="6.166" height="6.006" x="-0.011" y="-6" transform="matrix(1 0 0 -1 13.2002 41.0498)" style="overflow:visible;opacity:0.6289;enable-background:new    ;"/>
	
		<use xlink:href="#flash0.ai_x2F_Layer_3_x2F__x3C_Path_x3E__x5F_17"  width="5.793" height="5.633" x="0.025" y="-5.65" transform="matrix(1 0 0 -1 38.9502 84.0996)" style="overflow:visible;opacity:0.6289;enable-background:new    ;"/>
	
		<use xlink:href="#flash0.ai_x2F_Layer_3_x2F__x3C_Path_x3E__x5F_16"  width="4.933" height="4.833" x="-0.013" y="-4.85" transform="matrix(1 0 0 -1 46.5 50.6499)" style="overflow:visible;opacity:0.6289;enable-background:new    ;"/>
	
		<use xlink:href="#flash0.ai_x2F_Layer_3_x2F__x3C_Path_x3E__x5F_15"  width="4.921" height="4.84" x="0.036" y="-4.85" transform="matrix(1 0 0 -1 68.4004 101.8496)" style="overflow:visible;opacity:0.6289;enable-background:new    ;"/>
	
		<use xlink:href="#flash0.ai_x2F_Layer_3_x2F__x3C_Path_x3E__x5F_14"  width="5.643" height="5.667" x="-0.003" y="-5.667" transform="matrix(1 0 0 -1 64.4004 80.9004)" style="overflow:visible;opacity:0.6289;enable-background:new    ;"/>
	
		<use xlink:href="#flash0.ai_x2F_Layer_3_x2F__x3C_Path_x3E__x5F_13"  width="5.636" height="5.697" x="-0.003" y="-5.667" transform="matrix(1 0 0 -1 38.5 96.2002)" style="overflow:visible;opacity:0.6289;enable-background:new    ;"/>
	
		<use xlink:href="#flash0.ai_x2F_Layer_3_x2F__x3C_Path_x3E__x5F_12"  width="5.793" height="5.664" x="0.025" y="-5.65" transform="matrix(1 0 0 -1 79.2998 42.1499)" style="overflow:visible;opacity:0.6289;enable-background:new    ;"/>
	
		<use xlink:href="#flash0.ai_x2F_Layer_3_x2F__x3C_Path_x3E__x5F_11"  width="9.131" height="8.9" x="-0.017" y="-8.9" transform="matrix(1 0 0 -1 21.5 65.7998)" style="overflow:visible;opacity:0.6289;enable-background:new    ;"/>
	
		<use xlink:href="#flash0.ai_x2F_Layer_3_x2F__x3C_Path_x3E__x5F_10"  width="2.756" height="2.667" x="-0.006" y="-2.65" transform="matrix(1 0 0 -1 52.5498 56.8999)" style="overflow:visible;opacity:0.6289;enable-background:new    ;"/>
	
		<use xlink:href="#flash0.ai_x2F_Layer_3_x2F__x3C_Path_x3E__x5F_9"  width="3.663" height="4.09" x="-0.005" y="-4.1" transform="matrix(1 0 0 -1 76.4502 85)" style="overflow:visible;opacity:0.6289;enable-background:new    ;"/>
	
		<use xlink:href="#flash0.ai_x2F_Layer_3_x2F__x3C_Path_x3E__x5F_8"  width="3.214" height="3.167" x="-0.006" y="-3.15" transform="matrix(1 0 0 -1 80 50.7002)" style="overflow:visible;opacity:0.6289;enable-background:new    ;"/>
	
		<use xlink:href="#flash0.ai_x2F_Layer_3_x2F__x3C_Path_x3E__x5F_7"  width="2.766" height="2.667" x="-0.006" y="-2.7" transform="matrix(1 0 0 -1 53.4004 79.1504)" style="overflow:visible;opacity:0.6289;enable-background:new    ;"/>
	
		<use xlink:href="#flash0.ai_x2F_Layer_3_x2F__x3C_Path_x3E__x5F_6"  width="2.716" height="2.667" x="0.044" y="-2.65" transform="matrix(1 0 0 -1 28.2998 105.6504)" style="overflow:visible;opacity:0.6289;enable-background:new    ;"/>
	
		<use xlink:href="#flash0.ai_x2F_Layer_3_x2F__x3C_Path_x3E__x5F_5"  width="6.262" height="6.391" y="-6.356" transform="matrix(1 0 0 -1 55.4502 82)" style="overflow:visible;opacity:0.6289;enable-background:new    ;"/>
	
		<use xlink:href="#flash0.ai_x2F_Layer_3_x2F__x3C_Path_x3E__x5F_4"  width="6.262" height="6.388" y="-6.356" transform="matrix(1 0 0 -1 32.8501 103.5996)" style="overflow:visible;opacity:0.6289;enable-background:new    ;"/>
	
		<use xlink:href="#flash0.ai_x2F_Layer_3_x2F__x3C_Path_x3E__x5F_3"  width="8.233" height="8.056" x="0.031" y="-8.05" transform="matrix(1 0 0 -1 54.0996 46.6001)" style="overflow:visible;opacity:0.6289;enable-background:new    ;"/>
	
		<use xlink:href="#flash0.ai_x2F_Layer_3_x2F__x3C_Path_x3E__x5F_2"  width="11.202" height="10.962" x="-0.002" y="-10.923" transform="matrix(1 0 0 -1 56.3496 70.75)" style="overflow:visible;opacity:0.6289;enable-background:new    ;"/>
	
		<use xlink:href="#flash0.ai_x2F_Layer_3_x2F__x3C_Path_x3E__x5F_1_x5F_1"  width="13.19" height="12.821" x="-0.04" y="-12.821" transform="matrix(1 0 0 -1 39.6499 58.7002)" style="overflow:visible;opacity:0.6289;enable-background:new    ;"/>
	
		<use xlink:href="#flash0.ai_x2F_Layer_3_x2F__x3C_Path_x3E_"  width="14.305" height="14.465" x="-0.001" y="-14.432" transform="matrix(1 0 0 -1 21.6499 90)" style="overflow:visible;opacity:0.6289;enable-background:new    ;"/>
	<g>
		
			<use xlink:href="#flash0.ai_x2F_Layer_3_x2F__x3C_Path_x3E__x5F_5_x5F_0"  width="3.75" height="4.15" y="-4.15" transform="matrix(1 0 0 -1 67.25 53.6001)" style="overflow:visible;opacity:0.6289;enable-background:new    ;"/>
		
			<use xlink:href="#flash0.ai_x2F_Layer_3_x2F__x3C_Path_x3E__x5F_4_x5F_0"  width="3.85" height="4" y="-4" transform="matrix(1 0 0 -1 71.8496 53.6499)" style="overflow:visible;opacity:0.3516;enable-background:new    ;"/>
		
			<use xlink:href="#flash0.ai_x2F_Layer_3_x2F__x3C_Path_x3E__x5F_3_x5F_0"  width="2.35" height="2.3" y="-2.3" transform="matrix(1 0 0 -1 68.2998 54.7998)" style="overflow:visible;opacity:0.3789;enable-background:new    ;"/>
		
			<use xlink:href="#flash0.ai_x2F_Layer_3_x2F__x3C_Path_x3E__x5F_2_x5F_0"  width="2.3" height="2.3" y="-2.3" transform="matrix(1 0 0 -1 72.9004 54.7998)" style="overflow:visible;opacity:0.3789;enable-background:new    ;"/>
		
			<use xlink:href="#flash0.ai_x2F_Layer_3_x2F__x3C_Path_x3E__x5F_1_x5F_2"  width="3" height="2.756" x="-0.05" y="-2.756" transform="matrix(1 0 0 -1 73.0498 55.1499)" style="overflow:visible;opacity:0.0898;enable-background:new    ;"/>
		
			<use xlink:href="#flash0.ai_x2F_Layer_3_x2F__x3C_Path_x3E__x5F_0"  width="2.995" height="2.756" x="-0.045" y="-2.756" transform="matrix(1 0 0 -1 68.3496 55.0498)" style="overflow:visible;opacity:0.0898;enable-background:new    ;"/>
	</g>
</g>
</svg>
