<?xml version="1.0" encoding="iso-8859-1"?>
<!-- Generator: Adobe Illustrator 15.1.0, SVG Export Plug-In . SVG Version: 6.00 Build 0)  -->
<!DOCTYPE svg PUBLIC "-//W3C//DTD SVG 1.1//EN" "http://www.w3.org/Graphics/SVG/1.1/DTD/svg11.dtd">
<svg version="1.1" id="Layer_3" xmlns="http://www.w3.org/2000/svg" xmlns:xlink="http://www.w3.org/1999/xlink" x="0px" y="0px"
	 width="492.3px" height="126.85px" viewBox="0 0 492.3 126.85" style="enable-background:new 0 0 492.3 126.85;"
	 xml:space="preserve">
<symbol  id="flash0.ai_x2F_Layer_3_x2F__x3C_Path_x3E_" viewBox="-0.03 -17.883 18.33 17.871">
	<g id="Layer_1_83_">
		<path style="fill-rule:evenodd;clip-rule:evenodd;fill:#1F1A1C;" d="M12.85-0.25c0.4-0.167,1.417-1.733,3.05-4.7
			c1.567-2.933,2.367-4.683,2.4-5.25c0-0.9-1.2-2.367-3.6-4.4c-2.3-1.933-3.934-3.017-4.9-3.25c-0.833-0.2-2.533,0.517-5.1,2.15
			c-2.534,1.567-4.05,2.817-4.55,3.75c-0.4,0.767-0.133,2.517,0.8,5.25c0.833,2.434,1.566,4.1,2.2,5c0.367,0.534,1.867,1,4.5,1.4
			C10.283,0.067,12.017,0.083,12.85-0.25z"/>
	</g>
</symbol>
<symbol  id="flash0.ai_x2F_Layer_3_x2F__x3C_Path_x3E__x5F_1" viewBox="0.02 -21.887 22.43 21.938">
	<g id="Layer_1_82_">
		<path style="fill-rule:evenodd;clip-rule:evenodd;fill:#1F1A1C;" d="M0.25-14.6c-0.5,0.934-0.183,3.083,0.95,6.45
			c1,2.967,1.9,5,2.7,6.1c0.467,0.633,2.3,1.2,5.5,1.7c3.233,0.5,5.367,0.533,6.4,0.1C16.333-0.483,17.567-2.4,19.5-6
			c1.967-3.633,2.95-5.8,2.95-6.5c0-1.1-1.467-2.883-4.4-5.35c-2.8-2.367-4.8-3.7-6-4c-1.033-0.233-3.133,0.65-6.3,2.65
			C2.65-17.267,0.817-15.733,0.25-14.6z"/>
	</g>
</symbol>
<symbol  id="flash0.ai_x2F_Layer_3_x2F__x3C_Path_x3E__x5F_10" viewBox="0.001 -16.3 16.727 16.35">
	<g id="Layer_1_73_">
		<path style="fill-rule:evenodd;clip-rule:evenodd;fill:#1F1A1C;" d="M13.9-1.1c0.333-0.233,0.917-1.867,1.75-4.9
			c0.833-3,1.184-4.75,1.05-5.25c-0.167-0.8-1.55-1.867-4.15-3.2c-2.466-1.233-4.167-1.85-5.1-1.85c-0.8,0-2.184,1-4.15,3
			c-1.933,1.966-3.017,3.417-3.25,4.35c-0.233,0.767,0.367,2.3,1.8,4.6c1.267,2,2.283,3.333,3.05,4c0.467,0.4,1.917,0.5,4.35,0.3
			C11.683-0.25,13.233-0.6,13.9-1.1z"/>
	</g>
</symbol>
<symbol  id="flash0.ai_x2F_Layer_3_x2F__x3C_Path_x3E__x5F_11" viewBox="0.028 -13.269 13.225 13.259">
	<g id="Layer_1_72_">
		<path style="fill-rule:evenodd;clip-rule:evenodd;fill:#1F1A1C;" d="M12.5-1.9c0.533-0.434,0.783-1.867,0.75-4.3
			c-0.033-2.267-0.233-3.733-0.6-4.4c-0.3-0.566-1.566-1.2-3.8-1.9c-2.167-0.667-3.633-0.9-4.4-0.7C3.783-13.033,2.9-12,1.8-10.1
			c-1,1.7-1.583,2.95-1.75,3.75C-0.083-5.883,0.4-4.783,1.5-3.05c1.067,1.7,1.917,2.7,2.55,3C4.383,0.083,5.8-0.117,8.3-0.65
			C10.767-1.217,12.167-1.633,12.5-1.9z"/>
	</g>
</symbol>
<symbol  id="flash0.ai_x2F_Layer_3_x2F__x3C_Path_x3E__x5F_12" viewBox="-0.022 -13.269 13.225 13.259">
	<g id="Layer_1_71_">
		<path style="fill-rule:evenodd;clip-rule:evenodd;fill:#1F1A1C;" d="M12.5-1.9c0.5-0.467,0.733-1.9,0.7-4.3
			c-0.034-2.3-0.233-3.767-0.6-4.4c-0.3-0.566-1.55-1.2-3.75-1.9c-2.167-0.667-3.65-0.9-4.45-0.7c-0.633,0.167-1.517,1.2-2.65,3.1
			C0.783-8.433,0.2-7.183,0-6.35C-0.133-5.883,0.35-4.8,1.45-3.1c1.1,1.7,1.966,2.717,2.6,3.05c0.3,0.133,1.7-0.067,4.2-0.6
			C10.75-1.217,12.167-1.633,12.5-1.9z"/>
	</g>
</symbol>
<symbol  id="flash0.ai_x2F_Layer_3_x2F__x3C_Path_x3E__x5F_13" viewBox="-0.029 -13.107 12.748 13.108">
	<g id="Layer_1_70_">
		<path style="fill-rule:evenodd;clip-rule:evenodd;fill:#1F1A1C;" d="M0.95-10.55C0.583-10.283,0.3-9.2,0.1-7.3
			c-0.2,1.9-0.167,3.15,0.1,3.75c0.167,0.3,1.316,0.966,3.45,2C5.817-0.483,7.1,0.033,7.5,0c0.633-0.033,1.65-0.933,3.05-2.7
			c1.3-1.667,2.017-2.867,2.15-3.6c0.133-0.6-0.417-1.8-1.65-3.6C9.817-11.667,8.867-12.7,8.2-13c-0.567-0.267-1.817-0.033-3.75,0.7
			C2.75-11.633,1.583-11.05,0.95-10.55z"/>
	</g>
</symbol>
<symbol  id="flash0.ai_x2F_Layer_3_x2F__x3C_Path_x3E__x5F_14" viewBox="0.035 -10.79 10.765 10.834">
	<g id="Layer_1_69_">
		<path style="fill-rule:evenodd;clip-rule:evenodd;fill:#1F1A1C;" d="M10.2-1.55c0.4-0.333,0.6-1.483,0.6-3.45
			c-0.033-1.867-0.2-3.083-0.5-3.65c-0.233-0.467-1.25-0.967-3.05-1.5c-1.767-0.533-2.967-0.733-3.6-0.6
			C3.117-10.617,2.4-9.767,1.5-8.2C0.7-6.833,0.217-5.817,0.05-5.15c-0.1,0.4,0.3,1.283,1.2,2.65C2.117-1.1,2.8-0.267,3.3,0
			c0.267,0.133,1.417-0.033,3.45-0.5S9.933-1.317,10.2-1.55z"/>
	</g>
</symbol>
<symbol  id="flash0.ai_x2F_Layer_3_x2F__x3C_Path_x3E__x5F_15" viewBox="-0.015 -10.79 10.765 10.834">
	<g id="Layer_1_68_">
		<path style="fill-rule:evenodd;clip-rule:evenodd;fill:#1F1A1C;" d="M1.2-2.5C2.067-1.1,2.75-0.267,3.25,0
			C3.517,0.133,4.667-0.033,6.7-0.5c2.033-0.467,3.183-0.817,3.45-1.05c0.4-0.333,0.6-1.483,0.6-3.45
			c-0.033-1.867-0.2-3.083-0.5-3.65C10.017-9.117,9-9.617,7.2-10.15c-1.767-0.533-2.967-0.733-3.6-0.6
			C3.067-10.617,2.35-9.767,1.45-8.2C0.65-6.833,0.167-5.817,0-5.15C-0.1-4.75,0.3-3.867,1.2-2.5z"/>
	</g>
</symbol>
<symbol  id="flash0.ai_x2F_Layer_3_x2F__x3C_Path_x3E__x5F_16" viewBox="-0.012 -13.545 12.954 13.56">
	<g id="Layer_1_67_">
		<path style="fill-rule:evenodd;clip-rule:evenodd;fill:#1F1A1C;" d="M1.55-3.25c1.1,1.767,1.967,2.833,2.6,3.2
			c0.333,0.167,1.7,0.017,4.1-0.45c2.4-0.5,3.767-0.883,4.1-1.15c0.5-0.434,0.683-1.883,0.55-4.35
			c-0.133-2.333-0.383-3.85-0.75-4.55c-0.3-0.6-1.55-1.284-3.75-2.05c-2.167-0.767-3.617-1.066-4.35-0.9
			c-0.633,0.133-1.45,1.15-2.45,3.05C0.7-8.783,0.167-7.517,0-6.65C-0.1-6.15,0.417-5.017,1.55-3.25z"/>
	</g>
</symbol>
<symbol  id="flash0.ai_x2F_Layer_3_x2F__x3C_Path_x3E__x5F_17" viewBox="-0.015 -10.79 10.769 10.787">
	<g id="Layer_1_66_">
		<path style="fill-rule:evenodd;clip-rule:evenodd;fill:#1F1A1C;" d="M10.15-1.55c0.434-0.367,0.633-1.534,0.6-3.5
			c0-1.833-0.15-3.034-0.45-3.6c-0.267-0.467-1.3-0.967-3.1-1.5c-1.767-0.533-2.967-0.733-3.6-0.6C3.067-10.617,2.35-9.767,1.45-8.2
			C0.65-6.833,0.167-5.817,0-5.15c-0.1,0.4,0.3,1.283,1.2,2.65c0.867,1.367,1.566,2.183,2.1,2.45C3.533,0.083,4.683-0.067,6.75-0.5
			C8.75-0.967,9.883-1.317,10.15-1.55z"/>
	</g>
</symbol>
<symbol  id="flash0.ai_x2F_Layer_3_x2F__x3C_Path_x3E__x5F_18" viewBox="-0.007 -10.807 10.807 10.801">
	<g id="Layer_1_65_">
		<path style="fill-rule:evenodd;clip-rule:evenodd;fill:#1F1A1C;" d="M10.2-1.55c0.4-0.367,0.6-1.534,0.6-3.5
			c-0.033-1.867-0.2-3.067-0.5-3.6c-0.233-0.467-1.267-0.967-3.1-1.5c-1.767-0.567-2.967-0.767-3.6-0.6
			C3.067-10.617,2.35-9.767,1.45-8.2C0.65-6.833,0.167-5.817,0-5.15c-0.067,0.4,0.333,1.283,1.2,2.65c0.9,1.4,1.6,2.217,2.1,2.45
			c0.233,0.133,1.383-0.034,3.45-0.5C8.783-0.983,9.933-1.317,10.2-1.55z"/>
	</g>
</symbol>
<symbol  id="flash0.ai_x2F_Layer_3_x2F__x3C_Path_x3E__x5F_19" viewBox="-0.013 -13.419 13.366 13.409">
	<g id="Layer_1_64_">
		<path style="fill-rule:evenodd;clip-rule:evenodd;fill:#1F1A1C;" d="M12.65-1.95c0.5-0.433,0.733-1.867,0.7-4.3
			c-0.033-2.333-0.233-3.833-0.6-4.5c-0.3-0.567-1.567-1.2-3.8-1.9c-2.2-0.667-3.7-0.9-4.5-0.7c-0.633,0.167-1.517,1.217-2.65,3.15
			C0.8-8.5,0.2-7.233,0-6.4c-0.1,0.5,0.4,1.6,1.5,3.3c1.1,1.733,1.967,2.75,2.6,3.05c0.3,0.133,1.717-0.067,4.25-0.6
			C10.883-1.217,12.317-1.65,12.65-1.95z"/>
	</g>
</symbol>
<symbol  id="flash0.ai_x2F_Layer_3_x2F__x3C_Path_x3E__x5F_2" viewBox="-0.006 -17.833 18.306 17.871">
	<g id="Layer_1_81_">
		<path style="fill-rule:evenodd;clip-rule:evenodd;fill:#1F1A1C;" d="M3.2-1.65c0.367,0.533,1.85,1,4.45,1.4
			c2.633,0.367,4.367,0.383,5.2,0.05c0.433-0.167,1.45-1.733,3.05-4.7c1.6-2.934,2.4-4.684,2.4-5.25c0-0.9-1.2-2.367-3.6-4.4
			c-2.3-1.934-3.934-3.017-4.9-3.25c-0.833-0.2-2.533,0.517-5.1,2.15c-2.534,1.6-4.034,2.85-4.5,3.75
			c-0.434,0.767-0.184,2.517,0.75,5.25C1.783-4.217,2.533-2.55,3.2-1.65z"/>
	</g>
</symbol>
<symbol  id="flash0.ai_x2F_Layer_3_x2F__x3C_Path_x3E__x5F_20" viewBox="0.028 -13.369 13.375 13.376">
	<g id="Layer_1_63_">
		<path style="fill-rule:evenodd;clip-rule:evenodd;fill:#1F1A1C;" d="M12.65-1.9c0.533-0.467,0.783-1.917,0.75-4.35
			c-0.033-2.267-0.233-3.75-0.6-4.45c-0.3-0.566-1.583-1.2-3.85-1.9c-2.2-0.667-3.684-0.9-4.45-0.7
			c-0.667,0.133-1.55,1.167-2.65,3.1c-1,1.7-1.6,2.967-1.8,3.8C-0.083-5.9,0.4-4.8,1.5-3.1c1.1,1.733,1.967,2.75,2.6,3.05
			c0.3,0.167,1.733-0.034,4.3-0.6C10.9-1.183,12.317-1.6,12.65-1.9z"/>
	</g>
</symbol>
<symbol  id="flash0.ai_x2F_Layer_3_x2F__x3C_Path_x3E__x5F_21" viewBox="-0.04 -5.65 3.54 5.711">
	<g id="Layer_1_62_">
		<path style="fill-rule:evenodd;clip-rule:evenodd;fill:#1F1A1C;" d="M0.15-1.5l-0.1,0.45c-0.2,1.1-0.066,1.383,0.4,0.85
			C0.65-0.467,0.833-0.9,1-1.5c0.233-0.667,0.583-1.417,1.05-2.25C2.117-3.817,2.4-4.117,2.9-4.65c0.367-0.4,0.567-0.733,0.6-1
			C2.3-5.25,1.317-4.2,0.55-2.5L0.15-1.5z"/>
	</g>
</symbol>
<symbol  id="flash0.ai_x2F_Layer_3_x2F__x3C_Path_x3E__x5F_22" viewBox="0.012 -2.728 1.35 2.728">
	<g id="Layer_1_61_">
		<path style="fill-rule:evenodd;clip-rule:evenodd;fill:#1F1A1C;" d="M0.15,0H0.3c0.4-0.133,0.717-0.783,0.95-1.95
			c0.233-0.8,0.1-0.983-0.4-0.55C0.683-2.367,0.467-1.95,0.2-1.25C-0.033-0.517-0.05-0.1,0.15,0z"/>
	</g>
</symbol>
<symbol  id="flash0.ai_x2F_Layer_3_x2F__x3C_Path_x3E__x5F_23" viewBox="0.033 -15.7 7.492 15.7">
	<g id="Layer_1_60_">
		<path style="fill-rule:evenodd;clip-rule:evenodd;fill:#1F1A1C;" d="M5.55-10c-0.6,1.933-1.2,3.467-1.8,4.6
			c-0.367,0.733-1.067,1.8-2.1,3.2c-0.5,0.567-0.883,1-1.15,1.3C0.033-0.333-0.083-0.033,0.15,0C1.983-0.833,3.467-2.383,4.6-4.65
			c0.7-1.4,1.417-3.483,2.15-6.25c0.233-0.8,0.433-1.7,0.6-2.7c0.233-1.3,0.233-2,0-2.1c-0.1,0.034-0.167,0.067-0.2,0.1
			c-0.033,0-0.066,0.067-0.1,0.2c-0.267,0.733-0.55,1.733-0.85,3C5.867-11.1,5.65-10.3,5.55-10z"/>
	</g>
</symbol>
<symbol  id="flash0.ai_x2F_Layer_3_x2F__x3C_Path_x3E__x5F_24" viewBox="0.017 -10.35 10.078 10.35">
	<g id="Layer_1_59_">
		<path style="fill-rule:evenodd;clip-rule:evenodd;fill:#1F1A1C;" d="M7.6-3.4C8.333-4.1,8.933-4.967,9.4-6
			c0.633-1.3,0.833-2.467,0.6-3.5l-0.25-0.85C9.483-10.017,9.3-9.517,9.2-8.85C9.033-7.983,8.917-7.467,8.85-7.3
			C8.417-5.967,7.767-4.9,6.9-4.1C6.367-3.6,5.55-3.083,4.45-2.55c-1.333,0.7-2.184,1.167-2.55,1.4C1.3-0.883,0.85-0.667,0.55-0.5
			C0.017-0.233-0.117-0.067,0.15,0c0.7-0.067,1.5-0.3,2.4-0.7l2.35-1C6.033-2.267,6.933-2.833,7.6-3.4z"/>
	</g>
</symbol>
<symbol  id="flash0.ai_x2F_Layer_3_x2F__x3C_Path_x3E__x5F_25" viewBox="-0.002 -19.113 11.543 19.113">
	<g id="Layer_1_58_">
		<path style="fill-rule:evenodd;clip-rule:evenodd;fill:#1F1A1C;" d="M10.55-12.15c-0.033,1.533-0.167,2.8-0.4,3.8
			c-0.533,2.167-1.517,3.8-2.95,4.9C6.633-3.017,5.783-2.567,4.65-2.1c-1.5,0.567-2.4,0.934-2.7,1.1
			C1.883-0.967,1.433-0.783,0.6-0.45C0.033-0.25-0.133-0.1,0.1,0c0.6,0,1.417-0.15,2.45-0.45L5-1.25C6.2-1.717,7.15-2.2,7.85-2.7
			C8.617-3.3,9.3-4.1,9.9-5.1c0.567-1,0.934-2.15,1.1-3.45c0.167-1.1,0.25-2.467,0.25-4.1c0-1.133,0.083-2.8,0.25-5
			c0.1-1.067,0.017-1.55-0.25-1.45c-0.3,0.2-0.483,0.684-0.55,1.45c0,0.867-0.017,1.433-0.05,1.7
			C10.617-14.25,10.583-12.983,10.55-12.15z"/>
	</g>
</symbol>
<symbol  id="flash0.ai_x2F_Layer_3_x2F__x3C_Path_x3E__x5F_26" viewBox="0.004 -14.95 6.896 14.958">
	<g id="Layer_1_57_">
		<path style="fill-rule:evenodd;clip-rule:evenodd;fill:#1F1A1C;" d="M0.25-2.2C0.383-1.033,0.533-0.317,0.7-0.05
			C0.933,0.15,1.05-0.167,1.05-1c0-0.467-0.017-1.067-0.05-1.8C0.9-4.467,1.2-5.817,1.9-6.85c1.267-1.9,2.333-3.267,3.2-4.1
			c0.6-0.6,1.066-1.25,1.4-1.95c0.233-0.567,0.367-0.95,0.4-1.15l-0.1-0.9c-0.167,0.167-0.333,0.417-0.5,0.75
			c-0.2,0.467-0.316,0.733-0.35,0.8c-0.3,0.467-0.817,1.05-1.55,1.75c-0.967,0.9-1.55,1.467-1.75,1.7C1.817-8.983,1.267-8.3,1-7.9
			C0.5-7.067,0.2-6.25,0.1-5.45C-0.067-4.183-0.017-3.1,0.25-2.2z"/>
	</g>
</symbol>
<symbol  id="flash0.ai_x2F_Layer_3_x2F__x3C_Path_x3E__x5F_27" viewBox="0.018 -13.15 13.453 13.183">
	<g id="Layer_1_56_">
		<path style="fill-rule:evenodd;clip-rule:evenodd;fill:#1F1A1C;" d="M11.25-0.9c0.267-0.2,0.733-1.517,1.4-3.95
			c0.633-2.4,0.9-3.8,0.8-4.2c-0.133-0.633-1.25-1.5-3.35-2.6c-2-1-3.367-1.5-4.1-1.5c-0.633,0-1.75,0.8-3.35,2.4
			c-1.533,1.6-2.4,2.767-2.6,3.5c-0.167,0.633,0.317,1.867,1.45,3.7c1,1.633,1.817,2.716,2.45,3.25
			c0.367,0.333,1.533,0.417,3.5,0.25C9.417-0.217,10.683-0.5,11.25-0.9z"/>
	</g>
</symbol>
<symbol  id="flash0.ai_x2F_Layer_3_x2F__x3C_Path_x3E__x5F_28" viewBox="-0.028 -13.052 12.993 13.053">
	<g id="Layer_1_55_">
		<path style="fill-rule:evenodd;clip-rule:evenodd;fill:#1F1A1C;" d="M10.35-1.85c1.5-1.267,2.367-2.233,2.6-2.9
			c0.1-0.333-0.284-1.667-1.15-4S10.333-12.4,10-12.7c-0.467-0.433-1.867-0.466-4.2-0.1c-2.233,0.333-3.65,0.716-4.25,1.15
			c-0.5,0.367-0.933,1.667-1.3,3.9c-0.333,2.2-0.367,3.667-0.1,4.4C0.383-2.75,1.5-2.033,3.5-1.2C5.267-0.467,6.55-0.067,7.35,0
			C7.85,0.033,8.85-0.583,10.35-1.85z"/>
	</g>
</symbol>
<symbol  id="flash0.ai_x2F_Layer_3_x2F__x3C_Path_x3E__x5F_29" viewBox="0.01 -15.05 15.42 15.078">
	<g id="Layer_1_54_">
		<path style="fill-rule:evenodd;clip-rule:evenodd;fill:#1F1A1C;" d="M12.85-1.05c0.333-0.233,0.867-1.733,1.6-4.5
			c0.767-2.767,1.083-4.383,0.95-4.85c-0.167-0.733-1.45-1.717-3.85-2.95c-2.267-1.133-3.833-1.7-4.7-1.7c-0.733,0-2,0.917-3.8,2.75
			c-1.8,1.833-2.8,3.167-3,4C-0.15-7.567,0.4-6.15,1.7-4.05c1.167,1.867,2.1,3.1,2.8,3.7c0.433,0.367,1.767,0.467,4,0.3
			C10.767-0.25,12.217-0.583,12.85-1.05z"/>
	</g>
</symbol>
<symbol  id="flash0.ai_x2F_Layer_3_x2F__x3C_Path_x3E__x5F_3" viewBox="-0.029 -22.137 22.68 22.15">
	<g id="Layer_1_80_">
		<path style="fill-rule:evenodd;clip-rule:evenodd;fill:#1F1A1C;" d="M3.9-2.1c0.467,0.667,2.317,1.25,5.55,1.75
			c3.267,0.467,5.417,0.483,6.45,0.05c0.533-0.233,1.8-2.167,3.8-5.8c1.966-3.667,2.95-5.85,2.95-6.55
			c0.033-1.1-1.45-2.917-4.45-5.45c-2.833-2.367-4.85-3.7-6.05-4C11.117-22.333,9-21.45,5.8-19.45c-3.133,1.967-5,3.517-5.6,4.65
			c-0.5,0.966-0.184,3.15,0.95,6.55C2.183-5.25,3.1-3.2,3.9-2.1z"/>
	</g>
</symbol>
<symbol  id="flash0.ai_x2F_Layer_3_x2F__x3C_Path_x3E__x5F_30" viewBox="-0.01 -6.75 6.927 6.779">
	<g id="Layer_1_53_">
		<path style="fill-rule:evenodd;clip-rule:evenodd;fill:#1F1A1C;" d="M3.85,0c1-0.1,1.633-0.25,1.9-0.45
			C5.883-0.55,6.133-1.233,6.5-2.5c0.333-1.233,0.467-1.95,0.4-2.15c-0.066-0.333-0.633-0.767-1.7-1.3
			c-1.034-0.533-1.733-0.8-2.1-0.8c-0.333,0-0.917,0.417-1.75,1.25C0.55-4.7,0.1-4.1,0-3.7c-0.067,0.3,0.2,0.934,0.8,1.9
			c0.534,0.867,0.95,1.417,1.25,1.65C2.217,0.017,2.817,0.067,3.85,0z"/>
	</g>
</symbol>
<symbol  id="flash0.ai_x2F_Layer_3_x2F__x3C_Path_x3E__x5F_31" viewBox="-0.021 -6.75 6.938 6.756">
	<g id="Layer_1_52_">
		<path style="fill-rule:evenodd;clip-rule:evenodd;fill:#1F1A1C;" d="M3.8-0.05C4.833-0.117,5.483-0.267,5.75-0.5
			c0.133-0.1,0.383-0.767,0.75-2c0.333-1.233,0.467-1.95,0.4-2.15C6.833-4.983,6.267-5.433,5.2-6C4.167-6.5,3.45-6.75,3.05-6.75
			c-0.3,0-0.867,0.417-1.7,1.25C0.55-4.7,0.1-4.117,0-3.75c-0.1,0.333,0.15,0.967,0.75,1.9c0.5,0.8,0.917,1.367,1.25,1.7
			C2.2,0.017,2.8,0.05,3.8-0.05z"/>
	</g>
</symbol>
<symbol  id="flash0.ai_x2F_Layer_3_x2F__x3C_Path_x3E__x5F_32" viewBox="-0.021 -6.75 6.938 6.756">
	<g id="Layer_1_51_">
		<path style="fill-rule:evenodd;clip-rule:evenodd;fill:#1F1A1C;" d="M3.8-0.05C4.833-0.117,5.483-0.267,5.75-0.5
			c0.133-0.1,0.383-0.767,0.75-2c0.333-1.233,0.467-1.967,0.4-2.2C6.833-5.033,6.267-5.467,5.2-6C4.167-6.5,3.467-6.75,3.1-6.75
			c-0.333,0-0.917,0.417-1.75,1.25C0.55-4.7,0.1-4.117,0-3.75c-0.1,0.333,0.15,0.967,0.75,1.9c0.5,0.8,0.917,1.367,1.25,1.7
			C2.2,0.017,2.8,0.05,3.8-0.05z"/>
	</g>
</symbol>
<symbol  id="flash0.ai_x2F_Layer_3_x2F__x3C_Path_x3E__x5F_33" viewBox="-0.013 -5 5.119 4.99">
	<g id="Layer_1_50_">
		<path style="fill-rule:evenodd;clip-rule:evenodd;fill:#1F1A1C;" d="M1-4.1C0.4-3.5,0.067-3.05,0-2.75
			c-0.067,0.233,0.117,0.7,0.55,1.4C0.917-0.783,1.233-0.367,1.5-0.1C1.633,0,2.067,0.017,2.8-0.05
			c0.733-0.067,1.217-0.167,1.45-0.3c0.1-0.066,0.267-0.566,0.5-1.5c0.267-0.9,0.383-1.433,0.35-1.6c-0.033-0.267-0.45-0.6-1.25-1
			C3.083-4.817,2.55-5,2.25-5C2.017-5,1.6-4.7,1-4.1z"/>
	</g>
</symbol>
<symbol  id="flash0.ai_x2F_Layer_3_x2F__x3C_Path_x3E__x5F_34" viewBox="0.033 -9.45 9.679 9.445">
	<g id="Layer_1_49_">
		<path style="fill-rule:evenodd;clip-rule:evenodd;fill:#1F1A1C;" d="M8.05-0.65c0.2-0.133,0.534-1.083,1-2.85
			c0.5-1.7,0.717-2.7,0.65-3C9.6-6.967,8.783-7.583,7.25-8.35c-1.4-0.733-2.367-1.1-2.9-1.1c-0.467,0-1.267,0.583-2.4,1.75
			c-1.133,1.133-1.767,1.967-1.9,2.5C-0.05-4.767,0.3-3.883,1.1-2.55c0.733,1.167,1.316,1.933,1.75,2.3c0.267,0.233,1.1,0.3,2.5,0.2
			C6.75-0.183,7.65-0.383,8.05-0.65z"/>
	</g>
</symbol>
<symbol  id="flash0.ai_x2F_Layer_3_x2F__x3C_Path_x3E__x5F_35" viewBox="-0.02 -7.55 7.734 7.506">
	<g id="Layer_1_48_">
		<path style="fill-rule:evenodd;clip-rule:evenodd;fill:#1F1A1C;" d="M6.4-0.55C6.567-0.683,6.833-1.433,7.2-2.8
			c0.4-1.367,0.566-2.167,0.5-2.4C7.6-5.567,6.967-6.067,5.8-6.7C4.667-7.267,3.883-7.55,3.45-7.55c-0.4,0-1.05,0.466-1.95,1.4
			c-0.9,0.9-1.4,1.566-1.5,2c-0.1,0.367,0.183,1.066,0.85,2.1c0.6,0.933,1.066,1.55,1.4,1.85c0.2,0.167,0.867,0.2,2,0.1
			C5.35-0.167,6.067-0.317,6.4-0.55z"/>
	</g>
</symbol>
<symbol  id="flash0.ai_x2F_Layer_3_x2F__x3C_Path_x3E__x5F_36" viewBox="-0.012 -5.75 5.917 5.733">
	<g id="Layer_1_47_">
		<path style="fill-rule:evenodd;clip-rule:evenodd;fill:#1F1A1C;" d="M5.5-2.1c0.3-1.033,0.433-1.65,0.4-1.85
			C5.833-4.25,5.35-4.633,4.45-5.1c-0.867-0.433-1.467-0.65-1.8-0.65c-0.3,0-0.783,0.35-1.45,1.05C0.5-4,0.1-3.483,0-3.15
			c-0.067,0.267,0.15,0.8,0.65,1.6c0.467,0.7,0.833,1.167,1.1,1.4c0.133,0.133,0.633,0.167,1.5,0.1C4.083-0.117,4.633-0.233,4.9-0.4
			C5.033-0.5,5.233-1.067,5.5-2.1z"/>
	</g>
</symbol>
<symbol  id="flash0.ai_x2F_Layer_3_x2F__x3C_Path_x3E__x5F_37" viewBox="0.026 -5.75 5.879 5.733">
	<g id="Layer_1_46_">
		<path style="fill-rule:evenodd;clip-rule:evenodd;fill:#1F1A1C;" d="M5.5-2.15C5.8-3.183,5.933-3.8,5.9-4
			C5.833-4.267,5.35-4.633,4.45-5.1c-0.867-0.433-1.467-0.65-1.8-0.65c-0.3,0-0.783,0.35-1.45,1.05C0.5-4.033,0.117-3.533,0.05-3.2
			c-0.1,0.3,0.117,0.85,0.65,1.65c0.433,0.7,0.783,1.167,1.05,1.4c0.167,0.133,0.667,0.167,1.5,0.1C4.117-0.117,4.667-0.233,4.9-0.4
			C5.033-0.5,5.233-1.083,5.5-2.15z"/>
	</g>
</symbol>
<symbol  id="flash0.ai_x2F_Layer_3_x2F__x3C_Path_x3E__x5F_38" viewBox="0.026 -5.7 5.879 5.684">
	<g id="Layer_1_45_">
		<path style="fill-rule:evenodd;clip-rule:evenodd;fill:#1F1A1C;" d="M5.5-2.1c0.3-1.033,0.433-1.65,0.4-1.85
			c-0.066-0.267-0.55-0.633-1.45-1.1C3.583-5.483,2.983-5.7,2.65-5.7c-0.3,0-0.783,0.35-1.45,1.05c-0.7,0.667-1.083,1.167-1.15,1.5
			c-0.1,0.267,0.117,0.8,0.65,1.6c0.433,0.7,0.783,1.167,1.05,1.4c0.133,0.133,0.633,0.167,1.5,0.1C4.083-0.117,4.633-0.233,4.9-0.4
			C5.033-0.467,5.233-1.033,5.5-2.1z"/>
	</g>
</symbol>
<symbol  id="flash0.ai_x2F_Layer_3_x2F__x3C_Path_x3E__x5F_39" viewBox="-0.012 -5.75 5.88 5.733">
	<g id="Layer_1_44_">
		<path style="fill-rule:evenodd;clip-rule:evenodd;fill:#1F1A1C;" d="M5.5-2.1c0.3-1.066,0.417-1.683,0.35-1.85
			C5.783-4.217,5.3-4.6,4.4-5.1C3.5-5.533,2.9-5.75,2.6-5.75c-0.3,0-0.783,0.35-1.45,1.05C0.45-4,0.067-3.483,0-3.15
			c-0.067,0.267,0.15,0.8,0.65,1.6c0.434,0.7,0.783,1.167,1.05,1.4c0.167,0.133,0.667,0.167,1.5,0.1
			C4.067-0.117,4.617-0.233,4.85-0.4C4.983-0.5,5.2-1.067,5.5-2.1z"/>
	</g>
</symbol>
<symbol  id="flash0.ai_x2F_Layer_3_x2F__x3C_Path_x3E__x5F_4" viewBox="-0.013 -20.439 20.963 20.452">
	<g id="Layer_1_79_">
		<path style="fill-rule:evenodd;clip-rule:evenodd;fill:#1F1A1C;" d="M3.65-1.9c0.434,0.6,2.133,1.117,5.1,1.55
			c3,0.467,5,0.483,6,0.05c0.467-0.2,1.617-1.983,3.45-5.35c1.833-3.367,2.75-5.383,2.75-6.05c0-1.033-1.367-2.7-4.1-5
			c-2.633-2.2-4.5-3.433-5.6-3.7c-0.967-0.233-2.917,0.583-5.85,2.45c-2.9,1.8-4.633,3.233-5.2,4.3c-0.467,0.9-0.167,2.917,0.9,6.05
			C2.067-4.833,2.917-2.933,3.65-1.9z"/>
	</g>
</symbol>
<symbol  id="flash0.ai_x2F_Layer_3_x2F__x3C_Path_x3E__x5F_40" viewBox="-0.012 -5.7 5.917 5.714">
	<g id="Layer_1_43_">
		<path style="fill-rule:evenodd;clip-rule:evenodd;fill:#1F1A1C;" d="M3.25-0.05C4.117-0.117,4.667-0.233,4.9-0.4
			c0.133-0.067,0.333-0.633,0.6-1.7c0.3-1.033,0.433-1.65,0.4-1.85c-0.066-0.267-0.566-0.633-1.5-1.1C3.533-5.483,2.933-5.7,2.6-5.7
			c-0.267,0-0.75,0.35-1.45,1.05C0.483-3.983,0.1-3.483,0-3.15C-0.067-2.85,0.15-2.3,0.65-1.5c0.467,0.7,0.833,1.167,1.1,1.4
			C1.917,0.033,2.417,0.05,3.25-0.05z"/>
	</g>
</symbol>
<symbol  id="flash0.ai_x2F_Layer_3_x2F__x3C_Path_x3E__x5F_41" viewBox="-0.012 -5.75 5.88 5.733">
	<g id="Layer_1_42_">
		<path style="fill-rule:evenodd;clip-rule:evenodd;fill:#1F1A1C;" d="M5.5-2.1c0.3-1.066,0.417-1.683,0.35-1.85
			C5.817-4.217,5.333-4.6,4.4-5.1C3.533-5.533,2.933-5.75,2.6-5.75c-0.267,0-0.75,0.35-1.45,1.05C0.483-4,0.1-3.483,0-3.15
			c-0.067,0.267,0.15,0.8,0.65,1.6c0.467,0.733,0.833,1.2,1.1,1.4c0.133,0.133,0.633,0.167,1.5,0.1C4.083-0.117,4.633-0.233,4.9-0.4
			C5.033-0.5,5.233-1.067,5.5-2.1z"/>
	</g>
</symbol>
<symbol  id="flash0.ai_x2F_Layer_3_x2F__x3C_Path_x3E__x5F_42" viewBox="0.029 -7.1 7.286 7.106">
	<g id="Layer_1_41_">
		<path style="fill-rule:evenodd;clip-rule:evenodd;fill:#1F1A1C;" d="M6.1-0.5c0.133-0.1,0.383-0.8,0.75-2.1
			C7.217-3.9,7.367-4.667,7.3-4.9C7.233-5.233,6.633-5.7,5.5-6.3C4.4-6.833,3.65-7.1,3.25-7.1c-0.333,0-0.933,0.434-1.8,1.3
			c-0.833,0.867-1.3,1.5-1.4,1.9c-0.1,0.333,0.167,1,0.8,2c0.533,0.867,0.967,1.45,1.3,1.75c0.2,0.167,0.833,0.2,1.9,0.1
			C5.117-0.117,5.8-0.267,6.1-0.5z"/>
	</g>
</symbol>
<symbol  id="flash0.ai_x2F_Layer_3_x2F__x3C_Path_x3E__x5F_43" viewBox="0.035 -4.35 4.472 4.34">
	<g id="Layer_1_40_">
		<path style="fill-rule:evenodd;clip-rule:evenodd;fill:#1F1A1C;" d="M3.75-0.3C3.85-0.367,4-0.8,4.2-1.6
			C4.433-2.4,4.533-2.867,4.5-3C4.467-3.2,4.1-3.483,3.4-3.85C2.733-4.183,2.267-4.35,2-4.35c-0.2,0-0.567,0.267-1.1,0.8
			C0.4-3.017,0.117-2.633,0.05-2.4C-0.017-2.2,0.133-1.8,0.5-1.2c0.367,0.567,0.65,0.934,0.85,1.1C1.483,0,1.867,0.017,2.5-0.05
			C3.167-0.083,3.583-0.167,3.75-0.3z"/>
	</g>
</symbol>
<symbol  id="flash0.ai_x2F_Layer_3_x2F__x3C_Path_x3E__x5F_44" viewBox="-0.004 -4.35 4.51 4.34">
	<g id="Layer_1_39_">
		<path style="fill-rule:evenodd;clip-rule:evenodd;fill:#1F1A1C;" d="M3.75-0.3C3.817-0.367,3.967-0.8,4.2-1.6
			C4.433-2.4,4.533-2.867,4.5-3C4.433-3.233,4.05-3.517,3.35-3.85C2.717-4.183,2.267-4.35,2-4.35c-0.2,0-0.567,0.267-1.1,0.8
			C0.367-3.05,0.067-2.667,0-2.4c-0.033,0.2,0.133,0.6,0.5,1.2c0.333,0.534,0.6,0.9,0.8,1.1C1.433,0,1.817,0.017,2.45-0.05
			C3.117-0.083,3.55-0.167,3.75-0.3z"/>
	</g>
</symbol>
<symbol  id="flash0.ai_x2F_Layer_3_x2F__x3C_Path_x3E__x5F_45" viewBox="-0.004 -4.35 4.476 4.34">
	<g id="Layer_1_38_">
		<path style="fill-rule:evenodd;clip-rule:evenodd;fill:#1F1A1C;" d="M3.7-0.3c0.1-0.067,0.267-0.5,0.5-1.3
			C4.433-2.4,4.517-2.867,4.45-3c-0.034-0.233-0.4-0.517-1.1-0.85C2.683-4.183,2.233-4.35,2-4.35c-0.2,0-0.567,0.267-1.1,0.8
			C0.367-3.05,0.067-2.667,0-2.4c-0.033,0.2,0.133,0.6,0.5,1.2c0.333,0.534,0.6,0.9,0.8,1.1C1.433,0,1.817,0.017,2.45-0.05
			C3.117-0.083,3.533-0.167,3.7-0.3z"/>
	</g>
</symbol>
<symbol  id="flash0.ai_x2F_Layer_3_x2F__x3C_Path_x3E__x5F_46" viewBox="-0.004 -4.35 4.51 4.34">
	<g id="Layer_1_37_">
		<path style="fill-rule:evenodd;clip-rule:evenodd;fill:#1F1A1C;" d="M3.75-0.3C3.85-0.367,4-0.8,4.2-1.6
			C4.433-2.4,4.533-2.867,4.5-3C4.467-3.233,4.1-3.517,3.4-3.85C2.733-4.183,2.267-4.35,2-4.35c-0.2,0-0.567,0.267-1.1,0.8
			C0.367-3.05,0.067-2.667,0-2.4c-0.033,0.2,0.133,0.6,0.5,1.2c0.367,0.534,0.65,0.9,0.85,1.1C1.45,0,1.833,0.017,2.5-0.05
			C3.133-0.083,3.55-0.167,3.75-0.3z"/>
	</g>
</symbol>
<symbol  id="flash0.ai_x2F_Layer_3_x2F__x3C_Path_x3E__x5F_47" viewBox="-0.004 -8.66 8.618 8.674">
	<g id="Layer_1_36_">
		<path style="fill-rule:evenodd;clip-rule:evenodd;fill:#1F1A1C;" d="M0.7-1.6c0.133,0.3,0.8,0.667,2,1.1
			C3.867-0.1,4.667,0.067,5.1,0C5.333-0.033,5.967-0.683,7-1.95C8-3.183,8.533-3.933,8.6-4.2c0.1-0.4-0.333-1.2-1.3-2.4
			c-0.9-1.133-1.566-1.8-2-2C4.9-8.767,4.033-8.583,2.7-8.05C1.333-7.55,0.5-7.1,0.2-6.7c-0.233,0.333-0.267,1.184-0.1,2.55
			C0.267-2.883,0.467-2.033,0.7-1.6z"/>
	</g>
</symbol>
<symbol  id="flash0.ai_x2F_Layer_3_x2F__x3C_Path_x3E__x5F_48" viewBox="-0.014 -4.35 4.471 4.34">
	<g id="Layer_1_35_">
		<path style="fill-rule:evenodd;clip-rule:evenodd;fill:#1F1A1C;" d="M3.7-0.3c0.1-0.067,0.25-0.5,0.45-1.3
			C4.383-2.4,4.483-2.867,4.45-3c-0.034-0.2-0.4-0.483-1.1-0.85C2.683-4.183,2.233-4.35,2-4.35c-0.2,0-0.583,0.267-1.15,0.8
			C0.35-3.017,0.067-2.633,0-2.4c-0.067,0.2,0.1,0.6,0.5,1.2c0.333,0.567,0.6,0.934,0.8,1.1C1.433,0,1.817,0.017,2.45-0.05
			C3.117-0.083,3.533-0.167,3.7-0.3z"/>
	</g>
</symbol>
<symbol  id="flash0.ai_x2F_Layer_3_x2F__x3C_Path_x3E__x5F_49" viewBox="-0.004 -4.35 4.461 4.34">
	<g id="Layer_1_34_">
		<path style="fill-rule:evenodd;clip-rule:evenodd;fill:#1F1A1C;" d="M3.75-0.3C3.817-0.367,3.967-0.8,4.2-1.6
			C4.4-2.4,4.483-2.867,4.45-3c-0.034-0.233-0.4-0.517-1.1-0.85C2.717-4.183,2.267-4.35,2-4.35c-0.2,0-0.567,0.267-1.1,0.8
			C0.367-3.05,0.067-2.667,0-2.4c-0.033,0.2,0.133,0.6,0.5,1.2c0.333,0.567,0.6,0.934,0.8,1.1C1.433,0,1.817,0.017,2.45-0.05
			C3.117-0.083,3.55-0.167,3.75-0.3z"/>
	</g>
</symbol>
<symbol  id="flash0.ai_x2F_Layer_3_x2F__x3C_Path_x3E__x5F_5" viewBox="-0.026 -14.369 14.302 14.324">
	<g id="Layer_1_78_">
		<path style="fill-rule:evenodd;clip-rule:evenodd;fill:#1F1A1C;" d="M11.35-1.95c1.7-1.367,2.667-2.4,2.9-3.1
			C14.383-5.417,14-6.9,13.1-9.5c-0.867-2.6-1.467-4.067-1.8-4.4c-0.533-0.5-2.083-0.6-4.65-0.3c-2.433,0.3-4,0.684-4.7,1.15
			c-0.567,0.4-1.083,1.816-1.55,4.25c-0.467,2.433-0.55,4.05-0.25,4.85c0.233,0.667,1.434,1.483,3.6,2.45
			C5.683-0.633,7.1-0.15,8-0.05C8.533,0.017,9.65-0.617,11.35-1.95z"/>
	</g>
</symbol>
<symbol  id="flash0.ai_x2F_Layer_3_x2F__x3C_Path_x3E__x5F_50" viewBox="0.035 -4.35 4.472 4.383">
	<g id="Layer_1_33_">
		<path style="fill-rule:evenodd;clip-rule:evenodd;fill:#1F1A1C;" d="M3.75-0.3C3.85-0.333,4-0.767,4.2-1.6
			C4.433-2.367,4.533-2.833,4.5-3C4.467-3.2,4.1-3.483,3.4-3.85C2.733-4.183,2.267-4.35,2-4.35c-0.2,0-0.567,0.267-1.1,0.8
			C0.4-3.017,0.117-2.633,0.05-2.4C-0.017-2.167,0.133-1.75,0.5-1.15C0.867-0.617,1.15-0.267,1.35-0.1C1.45,0.033,1.833,0.067,2.5,0
			S3.583-0.167,3.75-0.3z"/>
	</g>
</symbol>
<symbol  id="flash0.ai_x2F_Layer_3_x2F__x3C_Path_x3E__x5F_51" viewBox="-0.004 -4.35 4.461 4.34">
	<g id="Layer_1_32_">
		<path style="fill-rule:evenodd;clip-rule:evenodd;fill:#1F1A1C;" d="M3.75-0.3C3.817-0.367,3.967-0.8,4.2-1.6
			C4.4-2.4,4.483-2.867,4.45-3c-0.034-0.233-0.4-0.517-1.1-0.85C2.717-4.183,2.267-4.35,2-4.35c-0.2,0-0.567,0.267-1.1,0.8
			C0.367-3.05,0.067-2.667,0-2.4c-0.033,0.2,0.133,0.6,0.5,1.2c0.333,0.534,0.6,0.9,0.8,1.1C1.433,0,1.817,0.017,2.45-0.05
			C3.117-0.083,3.55-0.167,3.75-0.3z"/>
	</g>
</symbol>
<symbol  id="flash0.ai_x2F_Layer_3_x2F__x3C_Path_x3E__x5F_52" viewBox="-0.013 -5.4 5.568 5.433">
	<g id="Layer_1_31_">
		<path style="fill-rule:evenodd;clip-rule:evenodd;fill:#1F1A1C;" d="M3.05,0c0.8-0.067,1.317-0.183,1.55-0.35
			C4.733-0.45,4.933-1,5.2-2c0.267-0.967,0.383-1.55,0.35-1.75C5.483-4.017,5.017-4.367,4.15-4.8c-0.833-0.4-1.4-0.6-1.7-0.6
			c-0.267,0-0.717,0.333-1.35,1C0.433-3.767,0.067-3.3,0-3c-0.067,0.267,0.133,0.783,0.6,1.55C1-0.817,1.333-0.367,1.6-0.1
			C1.733,0.033,2.217,0.067,3.05,0z"/>
	</g>
</symbol>
<symbol  id="flash0.ai_x2F_Layer_3_x2F__x3C_Path_x3E__x5F_53" viewBox="-0.013 -5.4 5.568 5.433">
	<g id="Layer_1_30_">
		<path style="fill-rule:evenodd;clip-rule:evenodd;fill:#1F1A1C;" d="M3.05,0c0.8-0.067,1.317-0.183,1.55-0.35
			C4.733-0.45,4.933-1,5.2-2c0.267-0.967,0.383-1.533,0.35-1.7c-0.066-0.267-0.533-0.633-1.4-1.1c-0.833-0.4-1.4-0.6-1.7-0.6
			c-0.233,0-0.684,0.333-1.35,1C0.433-3.733,0.067-3.25,0-2.95c-0.067,0.233,0.133,0.733,0.6,1.5C1-0.817,1.333-0.367,1.6-0.1
			C1.767,0.033,2.25,0.067,3.05,0z"/>
	</g>
</symbol>
<symbol  id="flash0.ai_x2F_Layer_3_x2F__x3C_Path_x3E__x5F_54" viewBox="-0.013 -5.4 5.568 5.433">
	<g id="Layer_1_29_">
		<path style="fill-rule:evenodd;clip-rule:evenodd;fill:#1F1A1C;" d="M3.05,0c0.8-0.067,1.317-0.183,1.55-0.35
			C4.733-0.45,4.933-1,5.2-2c0.267-0.967,0.383-1.55,0.35-1.75C5.483-4.017,5.017-4.367,4.15-4.8c-0.833-0.4-1.4-0.6-1.7-0.6
			c-0.267,0-0.717,0.333-1.35,1C0.433-3.733,0.067-3.25,0-2.95c-0.067,0.233,0.133,0.733,0.6,1.5C1-0.817,1.333-0.367,1.6-0.1
			C1.733,0.033,2.217,0.067,3.05,0z"/>
	</g>
</symbol>
<symbol  id="flash0.ai_x2F_Layer_3_x2F__x3C_Path_x3E__x5F_55" viewBox="0.025 -5.4 5.531 5.383">
	<g id="Layer_1_28_">
		<path style="fill-rule:evenodd;clip-rule:evenodd;fill:#1F1A1C;" d="M5.2-2c0.267-1,0.383-1.583,0.35-1.75
			C5.517-4.017,5.067-4.367,4.2-4.8C3.367-5.2,2.8-5.4,2.5-5.4c-0.267,0-0.717,0.333-1.35,1C0.483-3.767,0.117-3.3,0.05-3
			c-0.1,0.267,0.1,0.783,0.6,1.55c0.4,0.667,0.733,1.1,1,1.3c0.133,0.133,0.617,0.167,1.45,0.1C3.9-0.117,4.417-0.233,4.65-0.4
			C4.75-0.467,4.933-1,5.2-2z"/>
	</g>
</symbol>
<symbol  id="flash0.ai_x2F_Layer_3_x2F__x3C_Path_x3E__x5F_56" viewBox="0.037 -5.1 5.169 5.083">
	<g id="Layer_1_27_">
		<path style="fill-rule:evenodd;clip-rule:evenodd;fill:#1F1A1C;" d="M1.55-0.15c0.133,0.133,0.583,0.167,1.35,0.1
			c0.733-0.067,1.217-0.167,1.45-0.3c0.1-0.1,0.267-0.617,0.5-1.55C5.117-2.8,5.233-3.333,5.2-3.5c-0.034-0.267-0.45-0.6-1.25-1
			c-0.767-0.4-1.3-0.6-1.6-0.6c-0.267,0-0.7,0.317-1.3,0.95c-0.6,0.6-0.933,1.05-1,1.35C-0.017-2.567,0.167-2.1,0.6-1.4
			C1-0.767,1.317-0.35,1.55-0.15z"/>
	</g>
</symbol>
<symbol  id="flash0.ai_x2F_Layer_3_x2F__x3C_Path_x3E__x5F_57" viewBox="0.037 -5.05 5.169 5.083">
	<g id="Layer_1_26_">
		<path style="fill-rule:evenodd;clip-rule:evenodd;fill:#1F1A1C;" d="M0.05-2.75c-0.066,0.233,0.117,0.7,0.55,1.4
			C1-0.717,1.317-0.3,1.55-0.1C1.683,0.033,2.133,0.067,2.9,0c0.733-0.067,1.217-0.183,1.45-0.35c0.1-0.066,0.267-0.566,0.5-1.5
			C5.117-2.783,5.233-3.333,5.2-3.5C5.167-3.733,4.75-4.05,3.95-4.45c-0.8-0.4-1.333-0.6-1.6-0.6s-0.7,0.316-1.3,0.95
			C0.45-3.5,0.117-3.05,0.05-2.75z"/>
	</g>
</symbol>
<symbol  id="flash0.ai_x2F_Layer_3_x2F__x3C_Path_x3E__x5F_58" viewBox="-0.002 -9.688 9.516 9.677">
	<g id="Layer_1_25_">
		<path style="fill-rule:evenodd;clip-rule:evenodd;fill:#1F1A1C;" d="M6.9-0.7c1.367-0.566,2.2-1.066,2.5-1.5
			c0.133-0.2,0.15-1.233,0.05-3.1C9.317-7.167,9.167-8.217,9-8.45C8.733-8.883,7.75-9.233,6.05-9.5C4.383-9.733,3.3-9.75,2.8-9.55
			C2.333-9.417,1.75-8.6,1.05-7.1C0.317-5.633-0.033-4.6,0-4c0.033,0.5,0.667,1.25,1.9,2.25c1.1,0.9,1.934,1.467,2.5,1.7
			C4.733,0.083,5.567-0.133,6.9-0.7z"/>
	</g>
</symbol>
<symbol  id="flash0.ai_x2F_Layer_3_x2F__x3C_Path_x3E__x5F_59" viewBox="-0.002 -10.938 11.352 10.937">
	<g id="Layer_1_24_">
		<path style="fill-rule:evenodd;clip-rule:evenodd;fill:#1F1A1C;" d="M11.15-2.6c0.2-0.233,0.25-1.4,0.15-3.5
			c-0.066-2.1-0.2-3.3-0.4-3.6c-0.3-0.466-1.483-0.816-3.55-1.05C5.417-10.983,4.133-11,3.5-10.8c-0.567,0.2-1.3,1.167-2.2,2.9
			C0.4-6.233-0.033-5.067,0-4.4C0.033-3.833,0.783-3,2.25-1.9C3.517-0.933,4.5-0.317,5.2-0.05c0.367,0.167,1.367-0.1,3-0.8
			C9.833-1.55,10.817-2.133,11.15-2.6z"/>
	</g>
</symbol>
<symbol  id="flash0.ai_x2F_Layer_3_x2F__x3C_Path_x3E__x5F_6" viewBox="-0.031 -13.15 13.501 13.139">
	<g id="Layer_1_77_">
		<path style="fill-rule:evenodd;clip-rule:evenodd;fill:#1F1A1C;" d="M11.2-0.95c0.267-0.2,0.733-1.5,1.4-3.9
			c0.667-2.4,0.95-3.816,0.85-4.25c-0.133-0.633-1.25-1.483-3.35-2.55c-2-1-3.367-1.5-4.1-1.5c-0.633,0-1.75,0.8-3.35,2.4
			C1.083-9.183,0.2-8.017,0-7.25c-0.167,0.633,0.333,1.867,1.5,3.7c1,1.6,1.817,2.683,2.45,3.25C4.317,0,5.483,0.067,7.45-0.1
			C9.417-0.267,10.667-0.55,11.2-0.95z"/>
	</g>
</symbol>
<symbol  id="flash0.ai_x2F_Layer_3_x2F__x3C_Path_x3E__x5F_60" viewBox="0.04 -7.639 7.525 7.665">
	<g id="Layer_1_23_">
		<path style="fill-rule:evenodd;clip-rule:evenodd;fill:#1F1A1C;" d="M5.5-0.55C6.567-0.983,7.217-1.367,7.45-1.7
			C7.583-1.867,7.6-2.683,7.5-4.15s-0.217-2.3-0.35-2.5C6.95-6.983,6.167-7.267,4.8-7.5C3.5-7.667,2.65-7.683,2.25-7.55
			C1.883-7.417,1.417-6.767,0.85-5.6c-0.6,1.2-0.867,2.017-0.8,2.45c0.034,0.4,0.534,1,1.5,1.8C2.383-0.683,3.033-0.233,3.5,0
			C3.767,0.1,4.433-0.083,5.5-0.55z"/>
	</g>
</symbol>
<symbol  id="flash0.ai_x2F_Layer_3_x2F__x3C_Path_x3E__x5F_61" viewBox="-0.009 -9.064 8.873 9.052">
	<g id="Layer_1_22_">
		<path style="fill-rule:evenodd;clip-rule:evenodd;fill:#1F1A1C;" d="M6.45-0.7c1.267-0.533,2.033-0.983,2.3-1.35
			c0.133-0.2,0.15-1.167,0.05-2.9c-0.1-1.767-0.233-2.767-0.4-3C8.167-8.35,7.25-8.667,5.65-8.9C4.117-9.1,3.1-9.117,2.6-8.95
			C2.2-8.817,1.65-8.033,0.95-6.6C0.25-5.233-0.067-4.283,0-3.75c0.033,0.467,0.617,1.167,1.75,2.1c1,0.833,1.783,1.367,2.35,1.6
			C4.4,0.083,5.183-0.133,6.45-0.7z"/>
	</g>
</symbol>
<symbol  id="flash0.ai_x2F_Layer_3_x2F__x3C_Path_x3E__x5F_62" viewBox="-0.002 -9.688 9.516 9.677">
	<g id="Layer_1_21_">
		<path style="fill-rule:evenodd;clip-rule:evenodd;fill:#1F1A1C;" d="M6.95-0.7C8.283-1.267,9.1-1.767,9.4-2.2
			c0.133-0.233,0.15-1.267,0.05-3.1c-0.1-1.833-0.233-2.9-0.4-3.2c-0.267-0.433-1.267-0.767-3-1C4.383-9.733,3.3-9.75,2.8-9.55
			C2.367-9.417,1.783-8.6,1.05-7.1C0.317-5.6-0.033-4.567,0-4c0.033,0.5,0.667,1.25,1.9,2.25c1.1,0.9,1.934,1.467,2.5,1.7
			C4.767,0.083,5.617-0.133,6.95-0.7z"/>
	</g>
</symbol>
<symbol  id="flash0.ai_x2F_Layer_3_x2F__x3C_Path_x3E__x5F_63" viewBox="0.041 -9.014 8.873 9.052">
	<g id="Layer_1_20_">
		<path style="fill-rule:evenodd;clip-rule:evenodd;fill:#1F1A1C;" d="M6.5-0.65c1.267-0.533,2.033-1,2.3-1.4
			C8.933-2.217,8.95-3.167,8.85-4.9c-0.1-1.767-0.233-2.767-0.4-3c-0.267-0.4-1.2-0.717-2.8-0.95c-1.5-0.2-2.5-0.217-3-0.05
			C2.217-8.767,1.667-7.983,1-6.55C0.3-5.183-0.017-4.233,0.05-3.7C0.083-3.267,0.667-2.567,1.8-1.6C2.833-0.767,3.617-0.233,4.15,0
			C4.45,0.133,5.233-0.083,6.5-0.65z"/>
	</g>
</symbol>
<symbol  id="flash0.ai_x2F_Layer_3_x2F__x3C_Path_x3E__x5F_64" viewBox="0.033 -9 9.23 9.023">
	<g id="Layer_1_19_">
		<path style="fill-rule:evenodd;clip-rule:evenodd;fill:#1F1A1C;" d="M5.1-0.05c1.367-0.1,2.233-0.284,2.6-0.55
			c0.2-0.133,0.517-1.033,0.95-2.7c0.467-1.633,0.667-2.6,0.6-2.9c-0.1-0.433-0.867-1.017-2.3-1.75C5.583-8.65,4.65-9,4.15-9
			c-0.433,0-1.2,0.55-2.3,1.65c-1.067,1.067-1.667,1.867-1.8,2.4c-0.1,0.434,0.233,1.267,1,2.5C1.75-1.317,2.3-0.567,2.7-0.2
			C2.967,0.033,3.767,0.083,5.1-0.05z"/>
	</g>
</symbol>
<symbol  id="flash0.ai_x2F_Layer_3_x2F__x3C_Path_x3E__x5F_65" viewBox="0.03 -7.85 8.034 7.85">
	<g id="Layer_1_18_">
		<path style="fill-rule:evenodd;clip-rule:evenodd;fill:#1F1A1C;" d="M7.55-2.9c0.4-1.467,0.567-2.317,0.5-2.55
			c-0.066-0.367-0.733-0.867-2-1.5c-1.167-0.6-1.983-0.9-2.45-0.9c-0.4,0-1.067,0.483-2,1.45C0.667-5.467,0.15-4.783,0.05-4.35
			c-0.1,0.367,0.184,1.1,0.85,2.2C1.533-1.117,2.033-0.467,2.4-0.2C2.6,0,3.283,0.05,4.45-0.05c1.2-0.1,1.966-0.267,2.3-0.5
			C6.917-0.683,7.183-1.467,7.55-2.9z"/>
	</g>
</symbol>
<symbol  id="flash0.ai_x2F_Layer_3_x2F__x3C_Path_x3E__x5F_66" viewBox="0.03 -7.9 8.034 7.9">
	<g id="Layer_1_17_">
		<path style="fill-rule:evenodd;clip-rule:evenodd;fill:#1F1A1C;" d="M7.55-2.9c0.4-1.467,0.567-2.317,0.5-2.55
			c-0.066-0.4-0.733-0.917-2-1.55C4.883-7.6,4.067-7.9,3.6-7.9c-0.4,0-1.067,0.483-2,1.45c-0.934,0.967-1.45,1.667-1.55,2.1
			c-0.1,0.367,0.184,1.1,0.85,2.2C1.5-1.183,1.983-0.533,2.35-0.2C2.583,0,3.283,0.05,4.45-0.05c1.167-0.1,1.933-0.267,2.3-0.5
			C6.917-0.683,7.183-1.467,7.55-2.9z"/>
	</g>
</symbol>
<symbol  id="flash0.ai_x2F_Layer_3_x2F__x3C_Path_x3E__x5F_67" viewBox="0.031 -7.85 8.083 7.856">
	<g id="Layer_1_16_">
		<path style="fill-rule:evenodd;clip-rule:evenodd;fill:#1F1A1C;" d="M6.75-0.55c0.167-0.1,0.45-0.867,0.85-2.3
			C8-4.317,8.167-5.167,8.1-5.4C8-5.8,7.333-6.317,6.1-6.95c-1.2-0.6-2.033-0.9-2.5-0.9c-0.4,0-1.067,0.483-2,1.45
			C0.667-5.433,0.15-4.733,0.05-4.3c-0.1,0.367,0.2,1.1,0.9,2.2c0.6,0.934,1.083,1.583,1.45,1.95c0.2,0.167,0.883,0.2,2.05,0.1
			C5.65-0.15,6.417-0.317,6.75-0.55z"/>
	</g>
</symbol>
<symbol  id="flash0.ai_x2F_Layer_3_x2F__x3C_Path_x3E__x5F_68" viewBox="0.03 -7.85 8.034 7.85">
	<g id="Layer_1_15_">
		<path style="fill-rule:evenodd;clip-rule:evenodd;fill:#1F1A1C;" d="M7.55-2.9c0.4-1.434,0.567-2.267,0.5-2.5
			c-0.066-0.4-0.733-0.917-2-1.55c-1.167-0.6-1.983-0.9-2.45-0.9c-0.4,0-1.067,0.483-2,1.45C0.667-5.467,0.15-4.783,0.05-4.35
			C-0.05-3.95,0.233-3.2,0.9-2.1c0.633,0.967,1.133,1.6,1.5,1.9C2.6,0,3.283,0.05,4.45-0.05c1.2-0.1,1.966-0.267,2.3-0.5
			C6.917-0.683,7.183-1.467,7.55-2.9z"/>
	</g>
</symbol>
<symbol  id="flash0.ai_x2F_Layer_3_x2F__x3C_Path_x3E__x5F_69" viewBox="0.015 -11.85 12.145 11.867">
	<g id="Layer_1_14_">
		<path style="fill-rule:evenodd;clip-rule:evenodd;fill:#1F1A1C;" d="M10.15-0.8C10.383-1,10.8-2.183,11.4-4.35
			c0.567-2.167,0.817-3.433,0.75-3.8C12.017-8.717,11-9.483,9.1-10.45c-1.8-0.933-3.033-1.4-3.7-1.4c-0.566,0-1.566,0.733-3,2.2
			C1-8.217,0.217-7.167,0.05-6.5c-0.167,0.567,0.267,1.683,1.3,3.35c0.9,1.4,1.633,2.367,2.2,2.9c0.367,0.267,1.417,0.333,3.15,0.2
			C8.5-0.183,9.65-0.433,10.15-0.8z"/>
	</g>
</symbol>
<symbol  id="flash0.ai_x2F_Layer_3_x2F__x3C_Path_x3E__x5F_7" viewBox="0.011 -15.25 15.619 15.256">
	<g id="Layer_1_76_">
		<path style="fill-rule:evenodd;clip-rule:evenodd;fill:#1F1A1C;" d="M13-1.1c0.333-0.233,0.883-1.75,1.65-4.55
			c0.767-2.8,1.083-4.434,0.95-4.9c-0.167-0.733-1.45-1.717-3.85-2.95c-2.333-1.167-3.933-1.75-4.8-1.75
			c-0.733,0-2.017,0.933-3.85,2.8C1.267-10.617,0.25-9.267,0.05-8.4c-0.2,0.733,0.367,2.167,1.7,4.3
			C2.917-2.233,3.867-0.983,4.6-0.35C5.033,0.017,6.383,0.1,8.65-0.1C10.917-0.3,12.367-0.633,13-1.1z"/>
	</g>
</symbol>
<symbol  id="flash0.ai_x2F_Layer_3_x2F__x3C_Path_x3E__x5F_70" viewBox="-0.019 -7.9 8.083 7.9">
	<g id="Layer_1_13_">
		<path style="fill-rule:evenodd;clip-rule:evenodd;fill:#1F1A1C;" d="M6.7-0.55C6.867-0.683,7.15-1.467,7.55-2.9
			c0.4-1.434,0.567-2.283,0.5-2.55c-0.1-0.367-0.767-0.883-2-1.55C4.85-7.6,4.033-7.9,3.6-7.9c-0.367,0-1.033,0.483-2,1.45
			C0.667-5.517,0.133-4.817,0-4.35c-0.1,0.367,0.2,1.1,0.9,2.2C1.5-1.183,1.983-0.533,2.35-0.2C2.583,0,3.283,0.05,4.45-0.05
			C5.617-0.15,6.367-0.317,6.7-0.55z"/>
	</g>
</symbol>
<symbol  id="flash0.ai_x2F_Layer_3_x2F__x3C_Path_x3E__x5F_71" viewBox="-0.019 -7.9 8.083 7.9">
	<g id="Layer_1_12_">
		<path style="fill-rule:evenodd;clip-rule:evenodd;fill:#1F1A1C;" d="M6.7-0.55C6.867-0.683,7.15-1.467,7.55-2.9
			c0.4-1.434,0.567-2.283,0.5-2.55c-0.1-0.367-0.767-0.883-2-1.55c-1.233-0.6-2.066-0.9-2.5-0.9c-0.367,0-1.033,0.483-2,1.45
			C0.617-5.483,0.1-4.783,0-4.35c-0.1,0.367,0.2,1.1,0.9,2.2C1.5-1.183,1.983-0.533,2.35-0.2C2.583,0,3.283,0.05,4.45-0.05
			C5.617-0.15,6.367-0.317,6.7-0.55z"/>
	</g>
</symbol>
<symbol  id="flash0.ai_x2F_Layer_3_x2F__x3C_Path_x3E__x5F_72" viewBox="-0.019 -7.85 8.083 7.856">
	<g id="Layer_1_11_">
		<path style="fill-rule:evenodd;clip-rule:evenodd;fill:#1F1A1C;" d="M4.4-0.05c1.2-0.1,1.967-0.267,2.3-0.5
			C6.867-0.683,7.15-1.467,7.55-2.9c0.4-1.434,0.567-2.267,0.5-2.5c-0.1-0.4-0.767-0.917-2-1.55c-1.2-0.6-2.033-0.9-2.5-0.9
			c-0.367,0-1.033,0.483-2,1.45C0.617-5.433,0.1-4.733,0-4.3c-0.1,0.367,0.2,1.1,0.9,2.2c0.6,0.934,1.083,1.583,1.45,1.95
			C2.55,0.017,3.233,0.05,4.4-0.05z"/>
	</g>
</symbol>
<symbol  id="flash0.ai_x2F_Layer_3_x2F__x3C_Path_x3E__x5F_73" viewBox="0.022 -9.65 9.89 9.645">
	<g id="Layer_1_10_">
		<path style="fill-rule:evenodd;clip-rule:evenodd;fill:#1F1A1C;" d="M8.25-0.7C8.45-0.867,8.8-1.817,9.3-3.55
			C9.767-5.317,9.967-6.367,9.9-6.7C9.8-7.167,8.983-7.783,7.45-8.55c-1.467-0.733-2.467-1.1-3-1.1c-0.467,0-1.3,0.583-2.5,1.75
			c-1.133,1.167-1.767,2.017-1.9,2.55c-0.133,0.467,0.217,1.367,1.05,2.7c0.733,1.167,1.333,1.967,1.8,2.4
			c0.267,0.233,1.133,0.3,2.6,0.2C6.933-0.183,7.85-0.4,8.25-0.7z"/>
	</g>
</symbol>
<symbol  id="flash0.ai_x2F_Layer_3_x2F__x3C_Path_x3E__x5F_74" viewBox="-0.019 -7.9 8.083 7.9">
	<g id="Layer_1_9_">
		<path style="fill-rule:evenodd;clip-rule:evenodd;fill:#1F1A1C;" d="M6.7-0.55C6.867-0.683,7.15-1.467,7.55-2.9
			c0.4-1.434,0.567-2.283,0.5-2.55c-0.1-0.4-0.767-0.917-2-1.55c-1.2-0.6-2.033-0.9-2.5-0.9c-0.367,0-1.033,0.483-2,1.45
			C0.617-5.483,0.1-4.783,0-4.35c-0.1,0.367,0.2,1.1,0.9,2.2C1.5-1.217,1.983-0.567,2.35-0.2C2.55,0,3.233,0.05,4.4-0.05
			C5.6-0.15,6.367-0.317,6.7-0.55z"/>
	</g>
</symbol>
<symbol  id="flash0.ai_x2F_Layer_3_x2F__x3C_Path_x3E__x5F_75" viewBox="-0.019 -7.85 8.083 7.856">
	<g id="Layer_1_8_">
		<path style="fill-rule:evenodd;clip-rule:evenodd;fill:#1F1A1C;" d="M4.45-0.05c1.167-0.1,1.917-0.267,2.25-0.5
			c0.167-0.1,0.45-0.867,0.85-2.3c0.4-1.433,0.567-2.283,0.5-2.55c-0.1-0.4-0.767-0.917-2-1.55c-1.2-0.6-2.017-0.9-2.45-0.9
			c-0.367,0-1.033,0.483-2,1.45C0.667-5.467,0.133-4.767,0-4.3c-0.1,0.367,0.2,1.1,0.9,2.2c0.6,0.967,1.083,1.617,1.45,1.95
			C2.583,0.017,3.283,0.05,4.45-0.05z"/>
	</g>
</symbol>
<symbol  id="flash0.ai_x2F_Layer_3_x2F__x3C_Path_x3E__x5F_76" viewBox="-0.027 -9.75 9.989 9.745">
	<g id="Layer_1_7_">
		<path style="fill-rule:evenodd;clip-rule:evenodd;fill:#1F1A1C;" d="M5.5-0.05C6.967-0.183,7.9-0.4,8.3-0.7
			c0.233-0.133,0.583-1.1,1.05-2.9c0.467-1.8,0.667-2.85,0.6-3.15c-0.1-0.467-0.917-1.1-2.45-1.9c-1.467-0.733-2.483-1.1-3.05-1.1
			c-0.467,0-1.3,0.6-2.5,1.8C0.817-6.817,0.167-5.967,0-5.4c-0.133,0.5,0.233,1.417,1.1,2.75c0.733,1.2,1.333,2,1.8,2.4
			C3.167-0.017,4.033,0.05,5.5-0.05z"/>
	</g>
</symbol>
<symbol  id="flash0.ai_x2F_Layer_3_x2F__x3C_Path_x3E__x5F_77" viewBox="-0.017 -9.15 9.379 9.123">
	<g id="Layer_1_6_">
		<path style="fill-rule:evenodd;clip-rule:evenodd;fill:#1F1A1C;" d="M5.15-0.1c1.367-0.1,2.233-0.283,2.6-0.55
			c0.2-0.133,0.533-1.05,1-2.75C9.217-5.033,9.417-6,9.35-6.3C9.25-6.767,8.467-7.367,7-8.1C5.633-8.8,4.683-9.15,4.15-9.15
			c-0.433,0-1.2,0.55-2.3,1.65S0.133-5.583,0-5.05C-0.1-4.617,0.25-3.767,1.05-2.5c0.7,1.133,1.267,1.883,1.7,2.25
			C3.017-0.017,3.817,0.033,5.15-0.1z"/>
	</g>
</symbol>
<symbol  id="flash0.ai_x2F_Layer_3_x2F__x3C_Path_x3E__x5F_78" viewBox="0.015 -11.6 11.895 11.617">
	<g id="Layer_1_5_">
		<path style="fill-rule:evenodd;clip-rule:evenodd;fill:#1F1A1C;" d="M11.15-4.25C11.717-6.383,11.967-7.633,11.9-8
			c-0.133-0.567-1.133-1.317-3-2.25c-1.733-0.9-2.933-1.35-3.6-1.35c-0.566,0-1.55,0.717-2.95,2.15c-1.367,1.4-2.133,2.417-2.3,3.05
			c-0.167,0.566,0.267,1.65,1.3,3.25c0.867,1.433,1.583,2.4,2.15,2.9c0.333,0.267,1.35,0.333,3.05,0.2
			C8.283-0.217,9.4-0.467,9.9-0.8C10.133-0.967,10.55-2.117,11.15-4.25z"/>
	</g>
</symbol>
<symbol  id="flash0.ai_x2F_Layer_3_x2F__x3C_Path_x3E__x5F_79" viewBox="-0.017 -9 9.231 9">
	<g id="Layer_1_4_">
		<path style="fill-rule:evenodd;clip-rule:evenodd;fill:#1F1A1C;" d="M5.1-0.05c1.333-0.133,2.2-0.333,2.6-0.6
			C7.867-0.783,8.183-1.667,8.65-3.3C9.083-4.967,9.267-5.95,9.2-6.25C9.1-6.683,8.333-7.267,6.9-8C5.567-8.667,4.633-9,4.1-9
			C3.667-9,2.9-8.45,1.8-7.35C0.733-6.283,0.133-5.483,0-4.95c-0.1,0.434,0.233,1.267,1,2.5C1.7-1.35,2.267-0.6,2.7-0.2
			C2.967,0,3.767,0.05,5.1-0.05z"/>
	</g>
</symbol>
<symbol  id="flash0.ai_x2F_Layer_3_x2F__x3C_Path_x3E__x5F_8" viewBox="0.011 -15.25 15.619 15.256">
	<g id="Layer_1_75_">
		<path style="fill-rule:evenodd;clip-rule:evenodd;fill:#1F1A1C;" d="M13-1.1c0.333-0.233,0.883-1.75,1.65-4.55
			c0.767-2.8,1.083-4.434,0.95-4.9c-0.167-0.733-1.467-1.717-3.9-2.95c-2.3-1.167-3.883-1.75-4.75-1.75
			c-0.733,0-2.017,0.933-3.85,2.8C1.267-10.617,0.25-9.267,0.05-8.4c-0.2,0.733,0.367,2.167,1.7,4.3
			C2.917-2.233,3.867-0.983,4.6-0.35C5,0.017,6.333,0.1,8.6-0.1C10.9-0.3,12.367-0.633,13-1.1z"/>
	</g>
</symbol>
<symbol  id="flash0.ai_x2F_Layer_3_x2F__x3C_Path_x3E__x5F_80" viewBox="-0.017 -9.05 9.231 9.022">
	<g id="Layer_1_3_">
		<path style="fill-rule:evenodd;clip-rule:evenodd;fill:#1F1A1C;" d="M5.1-0.1c1.333-0.1,2.2-0.283,2.6-0.55
			c0.167-0.167,0.483-1.067,0.95-2.7c0.434-1.667,0.617-2.633,0.55-2.9C9.1-6.683,8.333-7.267,6.9-8C5.533-8.7,4.6-9.05,4.1-9.05
			c-0.434,0-1.2,0.55-2.3,1.65C0.733-6.3,0.133-5.5,0-5c-0.1,0.433,0.233,1.283,1,2.55c0.7,1.1,1.267,1.833,1.7,2.2
			C2.967-0.017,3.767,0.033,5.1-0.1z"/>
	</g>
</symbol>
<symbol  id="flash0.ai_x2F_Layer_3_x2F__x3C_Path_x3E__x5F_81" viewBox="0.025 -10.75 10.986 10.767">
	<g id="Layer_1_2_">
		<path style="fill-rule:evenodd;clip-rule:evenodd;fill:#1F1A1C;" d="M10.3-3.95c0.534-1.966,0.767-3.117,0.7-3.45
			c-0.1-0.533-1.017-1.233-2.75-2.1c-1.6-0.833-2.717-1.25-3.35-1.25c-0.5,0-1.4,0.65-2.7,1.95C0.933-7.5,0.217-6.533,0.05-5.9
			c-0.133,0.5,0.267,1.5,1.2,3c0.8,1.267,1.467,2.15,2,2.65c0.3,0.267,1.25,0.333,2.85,0.2s2.617-0.367,3.05-0.7
			C9.383-0.917,9.767-1.983,10.3-3.95z"/>
	</g>
</symbol>
<symbol  id="flash0.ai_x2F_Layer_3_x2F__x3C_Path_x3E__x5F_9" viewBox="-0.031 -13.15 13.502 13.139">
	<g id="Layer_1_74_">
		<path style="fill-rule:evenodd;clip-rule:evenodd;fill:#1F1A1C;" d="M11.25-0.95c0.267-0.2,0.733-1.5,1.4-3.9
			c0.633-2.4,0.9-3.816,0.8-4.25c-0.133-0.633-1.25-1.483-3.35-2.55c-2-1-3.367-1.5-4.1-1.5c-0.633,0-1.75,0.8-3.35,2.4
			C1.083-9.183,0.2-8.017,0-7.25c-0.167,0.633,0.333,1.867,1.5,3.7c1,1.6,1.817,2.683,2.45,3.25C4.317,0,5.483,0.067,7.45-0.1
			C9.417-0.267,10.683-0.55,11.25-0.95z"/>
	</g>
</symbol>
<g>
	<g>
		
			<linearGradient id="SVGID_1_" gradientUnits="userSpaceOnUse" x1="-23.6836" y1="-246.2246" x2="147.2914" y2="-246.2246" gradientTransform="matrix(5.848809e-006 1 -1 -0.001 -4.003673e-004 -7.069856e-005)">
			<stop  offset="0" style="stop-color:#171517"/>
			<stop  offset="0.1686" style="stop-color:#1D181D"/>
			<stop  offset="0.4" style="stop-color:#2D212F"/>
			<stop  offset="0.5686" style="stop-color:#3D2940"/>
			<stop  offset="1" style="stop-color:#3A4063"/>
		</linearGradient>
		<polygon style="fill-rule:evenodd;clip-rule:evenodd;fill:url(#SVGID_1_);" points="492.3,126.8 0.45,126.8 0.15,14.7 
			492.25,13.05 		"/>
		<path style="fill-rule:evenodd;clip-rule:evenodd;fill:#20141B;" d="M487.5,26.6c0.132-1.453,0.415-2.253,0.85-2.4
			c-0.538,0.17-1.121,0.47-1.75,0.9c-0.666,0.566-1.183,0.967-1.55,1.2c-0.333,0.233-0.866,0.517-1.6,0.85
			c-0.733,0.333-1.267,0.617-1.601,0.85l0.25-0.6c-2.5,0.434-4.05,1.283-4.649,2.55c-0.066-0.8,0.017-1.784,0.25-2.95
			c-1.167,1.1-2.033,1.95-2.601,2.55c-1.033,1.067-1.616,2.083-1.75,3.05c-0.566-0.934-0.616-2.017-0.149-3.25
			c-0.601,0.533-1.184,1.316-1.75,2.35c-0.267-0.333-0.384-0.8-0.351-1.4c0.067-0.7,0.101-1.216,0.101-1.55
			c-1.033,0.833-1.816,1.45-2.351,1.85c-0.933,0.667-1.783,1.167-2.55,1.5c-0.6,0.267-1.616,0.65-3.05,1.15
			c-1.333,0.433-2.35,0.817-3.05,1.15c0.533-0.4,1.083-1.017,1.649-1.85c0.7-0.966,1.184-1.6,1.45-1.9
			c-0.3,0.267-0.833,0.55-1.6,0.85c-0.834,0.3-1.4,0.567-1.7,0.8c0.3-0.4,0.566-0.9,0.8-1.5c0.3-0.733,0.517-1.283,0.65-1.65
			c-0.5,0.833-2.483,1.434-5.95,1.8c-3.252,0.332-4.952,0.915-5.1,1.75c0.069-0.473,0.303-1.073,0.699-1.8
			c-0.633,0.1-1.267,0.533-1.899,1.3c-0.733,0.9-1.283,2.083-1.65,3.55c-0.333-1.1-0.467-2.167-0.399-3.2
			c0.1-0.833,0.133-1.35,0.1-1.55c-0.1,0.267-0.4,0.9-0.9,1.9c-0.333,1.233-0.25,2.817,0.25,4.75
			c-0.399-0.333-1.05-1.683-1.949-4.05c-0.967-2.533-1.517-3.883-1.65-4.05c-0.066,0.233-0.233,1.083-0.5,2.55
			c-0.167-0.167-0.55-0.8-1.15-1.9c0,0.6,0.117,1.083,0.351,1.45c-0.334-0.1-1.017-0.417-2.05-0.95
			c-0.834-0.434-1.584-0.667-2.25-0.7c-1.5,0.267-2.767,0.467-3.801,0.6c-1.884,0.255-3.018,0.097-3.399-0.475l0.7,1.175
			c-0.567-0.066-1.184-0.4-1.851-1c-0.8-0.733-1.316-1.167-1.55-1.3c0.2,0.333,0.483,0.7,0.85,1.1c0.2,0.2,0.517,0.517,0.95,0.95
			c-1.3,0.133-2.649-0.083-4.05-0.65c-1.533-0.6-2.583-1.417-3.15-2.45c-0.1,0.2-0.199,0.517-0.3,0.95
			c-0.1,0.467-0.184,0.783-0.25,0.95c-0.2-0.267-0.383-0.65-0.55-1.15c-0.233-0.7-0.384-1.1-0.45-1.2
			c-0.666,1.067-2.149,2.083-4.45,3.05c-1,0.267-1.85,0.5-2.55,0.7c-1.356,0.397-2.073,0.78-2.149,1.15
			c0.068-0.372,0.235-0.889,0.5-1.55c-1.767,0.933-2.934,1.733-3.5,2.4c0.066-0.7,0.133-1.233,0.199-1.6
			c0.134-0.6,0.334-1.083,0.601-1.45c-1.066,0.233-2.334,1.033-3.8,2.4c-1.334,1.233-2.301,2.417-2.9,3.55
			c-0.066-0.833-0.05-1.583,0.05-2.25c-0.6,1.167-0.967,2.017-1.1,2.55c-0.233-1.233-0.267-2.417-0.101-3.55
			c-0.166,0.833-0.75,1.7-1.75,2.6c-1.399,1.233-2.183,1.967-2.35,2.2c0.366-1.067,0.517-2.15,0.45-3.25
			c-0.267,0.966-1.867,1.966-4.8,3c-2.7,0.966-3.967,1.983-3.801,3.05c-0.267-0.3-0.6-0.85-1-1.65c-0.5,0.733-0.75,1.617-0.75,2.65
			c-0.233-0.233-0.716-0.65-1.449-1.25c-0.834-0.633-1.317-1.017-1.45-1.15c-0.2,1.933,0.583,4.467,2.35,7.6
			c-1.2-0.8-2.483-2.434-3.85-4.9c-1.3-2.267-2.134-4.25-2.5-5.95c-0.4,0.967-0.467,2.117-0.2,3.45c0.066,0.3,0.35,1.233,0.85,2.8
			c-0.866-0.833-1.649-2.167-2.35-4c-0.533-1.467-0.917-3-1.15-4.6c-0.166-1.233-0.033-2.867,0.4-4.9c0.1-0.467,0.333-1.05,0.7-1.75
			c0.399-0.767,0.649-1.317,0.75-1.65c-2.5,0-4.184,0.4-5.05,1.2c-1.667,1.467-2.934,3.633-3.801,6.5
			c-0.581,1.97-0.848,3.395-0.8,4.275c-0.227-2.707,0.007-5.232,0.7-7.575c0.8-1.9,1.233-2.967,1.3-3.2
			c-0.267,0.233-0.649,0.733-1.149,1.5c-0.467,0.667-0.884,1.133-1.25,1.4c0-0.466,0.133-1.1,0.399-1.9
			c-1.066,1.3-2.149,2.217-3.25,2.75c-0.066,0.033-0.916,0.35-2.55,0.95c-1.033,0.4-1.783,0.833-2.25,1.3l0.35-1.1
			c-0.899,0.9-1.433,1.55-1.6,1.95c0-1.067,0.083-1.783,0.25-2.15c-4.233,2.5-6.4,4.933-6.5,7.3c-0.333-0.633-0.616-1.883-0.85-3.75
			c-0.267,0.567-0.534,1.45-0.801,2.65c-0.334-0.946-0.459-1.796-0.375-2.55c-0.317,1.077-1.626,1.911-3.925,2.5
			c-2.899,0.767-4.55,1.483-4.95,2.15l-0.3-1.35l-0.6,1.3c-0.2,0.467-0.3,0.933-0.3,1.4c-0.134-0.2-0.384-0.65-0.75-1.35
			c-0.267-0.6-0.517-1.017-0.75-1.25c-0.134,0.467-0.134,1.117,0,1.95c0.199,1,0.3,1.633,0.3,1.9c-0.533-0.5-1.101-1.35-1.7-2.55
			c-0.833-1.733-1.3-2.7-1.4-2.9c-0.133,0.5-0.066,1.067,0.2,1.7c0.134,0.367,0.334,0.9,0.601,1.6
			c-1.963-1.131-3.946-3.123-5.95-5.975c0.12,0.165,0.437,0.856,0.95,2.075c-0.5-0.333-1.467-0.9-2.9-1.7
			c-1.267-0.7-2.217-1.3-2.85-1.8c-0.934-1-1.667-1.6-2.2-1.8c-0.066-0.033-0.217-0.017-0.45,0.05c-0.233,0.066-0.434,0.066-0.6,0
			c-0.567-0.267-0.851-0.784-0.851-1.55c-0.333,0.2-0.649,0.55-0.95,1.05c-0.166-0.233-0.233-0.517-0.199-0.85
			c0.133-0.4,0.216-0.7,0.25-0.9c-0.667-0.034-1.351,0.05-2.051,0.25c-0.166,0.033-0.483,0.216-0.949,0.55
			c-0.467,0.267-0.801,0.417-1,0.45c-0.434,0.066-0.934-0.217-1.5-0.85c-0.567-0.633-1.034-0.95-1.4-0.95l0.35,1.45l-1.85-1.55
			c-0.033,0.434,0.134,0.95,0.5,1.55c0.434,0.733,0.684,1.217,0.75,1.45c-0.866,0.233-2.017,0.117-3.45-0.35
			c-0.434-0.133-0.967-0.45-1.6-0.95c-0.667-0.533-1.167-0.867-1.5-1c-0.066,0.4,0.05,1.067,0.35,2
			c-0.333-0.167-0.633-0.467-0.899-0.9c-0.267-0.533-0.467-0.934-0.601-1.2c-0.5,0.934-1.783,1.617-3.85,2.05
			c-1.967,0.4-3.184,1.267-3.65,2.6c-0.1-0.2-0.2-0.867-0.3-2c-0.267,0.333-0.55,0.917-0.85,1.75c-0.167,0.434-0.4,1.067-0.7,1.9
			c-0.566,1.667-0.733,2.983-0.5,3.95c-0.566-1.167-1.033-2.633-1.4-4.4c-0.166-0.833-0.3-1.467-0.399-1.9
			c-0.167-0.833-0.4-1.417-0.7-1.75c-0.566,0.767-0.934,2.35-1.101,4.75c-0.233-0.367-0.8-1.533-1.699-3.5
			c-0.667-1.434-1.434-2.5-2.301-3.2c0.267,0.4,0.684,0.983,1.25,1.75c-2-0.133-4.149-0.733-6.449-1.8
			c-0.567-0.267-1.384-0.75-2.45-1.45c-1.033-0.7-1.816-1.167-2.351-1.4c-0.033,0.667,0.167,1.467,0.601,2.4
			c-0.667-0.1-1.334-0.483-2-1.15c-0.7-0.833-1.25-1.417-1.65-1.75c0,0.5,0.367,1.133,1.101,1.9c-0.5-0.033-1.117-0.367-1.851-1
			c-0.8-0.733-1.399-1.167-1.8-1.3c-1.767-0.567-3.316-0.783-4.65-0.65c-1.133,0.1-2.05,0.183-2.75,0.25
			c-1.153,0.177-1.912,0.419-2.274,0.725l0.725-0.725c-0.633,0-1.3,0.167-2,0.5c-0.833,0.4-1.45,0.7-1.85,0.9
			c0.333-0.4,0.85-1,1.55-1.8c-0.866,0.034-1.917,0.233-3.15,0.6c-1.399,0.434-2.433,0.733-3.1,0.9c-1.967,0.6-3.116,0.967-3.45,1.1
			c-1.267,0.533-2.25,1.2-2.95,2c-0.133-0.767-0.183-1.283-0.149-1.55l-2.2,2.35c0-0.867,0.217-1.733,0.65-2.6
			c-1.367,0.3-2.817,0.967-4.351,2c-1.333,0.9-2.517,1.917-3.55,3.05c-0.033-0.3,0.167-0.917,0.6-1.85
			c-0.667,0.034-1.983,0.284-3.95,0.75c-1.667,0.767-2.617,1.1-2.85,1c0.167,0.067,0.45,0.15,0.85,0.25
			c0.4,0.067,0.684,0.15,0.85,0.25c-3.333,0.4-5.167,0.6-5.5,0.6c-2.167,0.133-3.95-0.083-5.35-0.65
			c0.267,0.4,0.717,0.817,1.35,1.25c0.867,0.567,1.383,0.917,1.55,1.05c-2.2-0.033-4.367-0.35-6.5-0.95
			c-2.533-0.767-4.417-1.8-5.65-3.1c0.133,0.333,0.417,0.733,0.85,1.2c0.5,0.566,0.817,0.95,0.95,1.15
			c-2.034-1.733-3.684-3.017-4.95-3.85c-2.267-1.5-4.183-1.917-5.75-1.25c0.033,0.067,0.333,0.75,0.9,2.05
			c0.326,0.781,0.509,1.515,0.55,2.2l-0.5-1.1c-0.067,0.467-0.083,1.434-0.05,2.9c0.033,1.3-0.05,2.317-0.25,3.05
			c-0.6,2.4-1.467,4.517-2.6,6.35c0-0.4,0.067-1.017,0.2-1.85c0.1-0.833,0.15-1.467,0.15-1.9c0-0.467-0.083-1.1-0.25-1.9
			c-0.167-0.9-0.267-1.533-0.3-1.9c-1.934,4.133-4.55,8.033-7.85,11.7c0.8-1.633,1.367-2.867,1.7-3.7c0.6-1.433,0.6-2.717,0-3.85
			c-0.333,0.867-1.034,1.817-2.1,2.85c-1.4,1.434-2.217,2.3-2.45,2.6c0.233-0.467,0.317-1.15,0.25-2.05
			c-0.033-1-0.017-1.684,0.05-2.05c-0.4,0.3-0.75,0.684-1.05,1.15c-0.4,0.534-0.6,1.034-0.6,1.5c-0.066-1.2,0-2.066,0.2-2.6
			c-0.167,0.4-0.533,0.883-1.1,1.45c-0.733,0.7-1.167,1.133-1.3,1.3c-0.7,1-1.217,2.1-1.55,3.3c-0.367-2.6-1-4.817-1.9-6.65
			c0.3,1.4,0.434,2.4,0.4,3c-0.466-0.4-0.95-0.967-1.45-1.7l-1.25-1.9c0.233,0.9,0.383,1.833,0.45,2.8c-1-1.933-2.6-3.183-4.8-3.75
			c-1.567-0.533-2.8-0.933-3.7-1.2c-1.566-0.434-2.8-0.583-3.7-0.45c0.033,0.2,0.233,0.684,0.6,1.45
			c-1.067-0.1-2.284-0.783-3.65-2.05c0.267,0.733,0.6,2.017,1,3.85c-0.167-0.167-0.633-0.717-1.4-1.65
			c-0.533-0.667-1.083-1.133-1.65-1.4c-1.733-0.7-3.017-1.233-3.85-1.6c-1.367-0.667-2.45-1.517-3.25-2.55c0,0.2,0.067,0.5,0.2,0.9
			c0.167,0.467,0.333,0.717,0.5,0.75c-1.8-0.3-3.517-1.85-5.15-4.65c-0.4,0.233-0.867,1-1.4,2.3c-0.2-0.2-0.3-0.567-0.3-1.1
			c0.033-0.6,0.05-1.033,0.05-1.3c-0.267,0.133-0.5,0.383-0.7,0.75c-0.333,0.566-0.517,0.867-0.55,0.9
			c-0.267-0.333-0.316-1.1-0.15-2.3c-1,0.5-2.2,0.816-3.6,0.95c-0.933,0.1-2.2,0.133-3.8,0.1c-1.367-0.033-2.583,0.133-3.65,0.5
			c-1.467,0.5-2.283,1.3-2.45,2.4c-0.066-0.233-0.117-0.566-0.15-1c0-0.433-0.017-0.733-0.05-0.9c-0.167,0.6-0.25,1.317-0.25,2.15
			c-0.133-0.333-0.233-0.816-0.3-1.45c-0.033-0.7-0.1-1.184-0.2-1.45c-0.867,1.2-2.017,2.3-3.45,3.3c-1.5,1-2.267,1.534-2.3,1.6
			c-0.9,0.7-1.517,1.383-1.85,2.05c-0.1-1.667-0.15-2.917-0.15-3.75c-0.3,0.466-0.567,1.083-0.8,1.85c-0.3-0.333-0.6-1.033-0.9-2.1
			c-0.433,0.7-0.767,1.483-1,2.35c-0.167,0.534-0.383,1.35-0.65,2.45c-0.733-0.433-1.4-1.017-2-1.75
			c-0.633-0.767-1.083-1.533-1.35-2.3c-0.633,0.767-0.917,1.7-0.85,2.8c-0.333-0.233-0.683-0.55-1.05-0.95
			c-0.4-0.433-0.717-0.767-0.95-1c0,0.367,0.15,1.034,0.45,2c-0.533-0.1-1.217-0.483-2.05-1.15c-0.966-0.733-1.65-1.183-2.05-1.35
			c-0.367-0.133-0.9-0.267-1.6-0.4c-0.733-0.133-1.267-0.25-1.6-0.35c-0.533-0.267-0.95-0.45-1.25-0.55
			c-0.533-0.233-0.966-0.333-1.3-0.3c0.067,0.2,0.183,0.417,0.35,0.65c0.233,0.233,0.433,0.35,0.6,0.35
			c-1.3,0.033-2.7-0.45-4.2-1.45c-1.3-0.867-2.367-1.883-3.2-3.05c0.233,1.333,0.583,2.216,1.05,2.65c-2-1.367-3.9-3.233-5.7-5.6
			c0,0.233,0.083,0.883,0.25,1.95c-0.167-0.167-0.667-0.784-1.5-1.85c0.233,0.667,0.567,1.25,1,1.75
			c-2.133-1.567-3.983-2.133-5.55-1.7c-0.667,0.167-1.317,0.533-1.95,1.1c-0.775,0.646-1.05,1.279-0.825,1.9
			C93.258,29.351,93.1,28.301,93.1,27c-2.367,0.967-4.217,2.033-5.55,3.2c0-0.167-0.05-0.284-0.15-0.35c-1,0.467-1.9,1.217-2.7,2.25
			c-0.034-0.867,0.316-1.684,1.05-2.45c-2.933,0-6.183,0.867-9.75,2.6c0-0.533,0.117-1.117,0.35-1.75l0.45-1.45
			c-0.733,0.467-1.283,1.2-1.65,2.2c-0.066-1.5-0.383-2.567-0.95-3.2c-1.9,0.5-3.583,0.95-5.05,1.35
			c-2.723,0.722-4.023,1.414-3.9,2.075c-0.165-0.759-0.165-1.45,0-2.075c-1.033,0.867-1.517,2.2-1.45,4
			c-2.233-2.267-3.966-3.833-5.2-4.7c0.3,0.7,1.017,1.917,2.15,3.65c-6.933-2.567-11.233-5.184-12.9-7.85
			c0.066,0.1,0.283,0.783,0.65,2.05c0.267,0.967,0.767,1.75,1.5,2.35c-1.333-0.6-2.483-1.55-3.45-2.85
			c-0.867-1.4-1.517-2.35-1.95-2.85c-0.167,0.733-0.783,1.65-1.85,2.75c-1.133,1.133-1.933,2.466-2.4,4
			c-0.533-1.1-0.733-1.717-0.6-1.85c-0.433,0.5-0.683,1.15-0.75,1.95c-0.733-0.5-1.05-1.233-0.95-2.2
			c-1.066,0.367-1.917,1.1-2.55,2.2c-0.567,0.967-0.9,2.1-1,3.4c-0.7-0.6-1.733-2-3.1-4.2c0,0.733,0.133,1.533,0.4,2.4
			c-1.133-0.8-1.966-1.417-2.5-1.85c-0.933-0.733-1.617-1.5-2.05-2.3c0.367,1.2,0.75,2.167,1.15,2.9
			c-1.3-0.566-2.517-1.45-3.65-2.65c-0.5-0.533-1.433-1.717-2.8-3.55c-0.133,0.733-0.217,1.9-0.25,3.5
			c-0.367-0.267-0.95-0.883-1.75-1.85c0.187,0.778,0.603,1.611,1.25,2.5c-0.408-0.487-1.158-0.937-2.25-1.35
			c-1.4-0.467-2.35-0.8-2.85-1c-1.367-0.5-2.9-1.667-4.6-3.5c0.067,0.7,0.55,1.567,1.45,2.6c-0.434-0.233-1.65-0.667-3.65-1.3
			c-0.533-0.2-1.15-0.517-1.85-0.95c-0.93-0.589-1.497-0.947-1.7-1.075c0.12,0.234,0.271,0.576,0.45,1.025
			c0.233,0.434,0.483,0.717,0.75,0.85c-0.4-0.133-1.317-0.316-2.75-0.55l-4,0.05c0-6.6,0.083-11.867,0.25-15.8
			c0.5-1.033,1.667-1.467,3.5-1.3l5.85,0.6c8.7-0.233,17.5-0.8,26.4-1.7c8.8-0.934,15.933-1.467,21.4-1.6
			c10.9-0.3,23.5-0.317,37.8-0.05c8.3,0.133,21.733,0.4,40.3,0.8c4.7,0.066,12.333-0.2,22.9-0.8c9.8-0.6,17.45-0.783,22.95-0.55
			c44.967,1.9,90.4,2.567,136.3,2c42-0.5,77.967-1.4,107.9-2.7c4.8-0.2,12.167,0.617,22.1,2.45c9.667,1.767,16.983,2.483,21.95,2.15
			c2.634-0.167,6.351-0.9,11.15-2.2c5.033-1.333,8.816-2.133,11.35-2.4c-0.133,2.2-0.166,4.733-0.1,7.6
			c0.066,4.833,0.1,7.367,0.1,7.6v5.8h-0.75c-0.6,0.1-1.267,0.45-2,1.05C488.684,24.767,488,25.6,487.5,26.6z"/>
		<path style="fill-rule:evenodd;clip-rule:evenodd;fill:#60B5B1;" d="M486.4,4c2.166-0.8,3.633-1.117,4.399-0.95
			c1.033,0.2,1.533,1.217,1.5,3.05v12.65h-3.149c-0.567,0.067-1.184,0.25-1.851,0.55c-0.666,0.367-1.166,0.75-1.5,1.15
			c0.167-0.733,0.584-1.333,1.25-1.8c-1.5,0.233-2.934,0.733-4.3,1.5c-0.866,0.467-1.684,1-2.45,1.6
			c-1.193,0.871-1.793,1.521-1.8,1.95c-0.03-1.086,0.069-2.37,0.3-3.85c-0.666,0.233-1.75,0.8-3.25,1.7
			c-0.033-0.4-0.05-0.7-0.05-0.9c0-0.333,0.083-0.667,0.25-1c-0.9,0.567-1.767,1.267-2.6,2.1c0.033-0.967,0.083-1.683,0.149-2.15
			c-0.733,0.967-2.1,1.8-4.1,2.5c-2.134,0.733-3.533,1.45-4.2,2.15c-0.233-0.8-0.233-1.667,0-2.6c-0.833,0.733-1.417,1.567-1.75,2.5
			c-0.2-0.4-0.267-0.816-0.2-1.25c0.101-0.467,0.316-0.85,0.65-1.15c-0.167,0.1-2.134,0.583-5.9,1.45
			c-2.633,0.6-4.1,1.75-4.399,3.45c-0.034-0.633-0.034-1.1,0-1.4c-1.534,0.767-3.217,2.667-5.051,5.7
			c-0.199-0.667-0.35-1.7-0.449-3.1c-0.101-1.467-0.233-2.533-0.4-3.2c-1.434,0.4-2.233,1.267-2.4,2.6
			c-1.1-1.2-1.916-2.05-2.449-2.55c-0.9-0.9-1.867-1.667-2.9-2.3c0.066,0.167,0.134,0.483,0.2,0.95c0.066,0.4,0.149,0.717,0.25,0.95
			c-1.8-1.033-3.05-1.966-3.75-2.8c0.1,0.4,0.133,1.05,0.1,1.95c-0.934-0.667-1.616-1.167-2.05-1.5c-0.767-0.6-1.3-1.284-1.6-2.05
			c-1.367,0.533-2.367,0.983-3,1.35c-0.934,0.6-1.717,1.383-2.351,2.35c-0.333-1.167-0.217-2.4,0.351-3.7
			c-1.067,0.367-1.817,0.934-2.25,1.7c-0.101-0.9,0.199-1.733,0.899-2.5c-1.5,0.2-3.55,0.85-6.149,1.95
			c-2.667,1.167-4.684,1.85-6.051,2.05l-0.149-0.3l-4.726,2.775c0.281-0.172,0.489-0.38,0.625-0.625
			c0.067-0.133,0.184-0.45,0.351-0.95c-1.101,0.3-2.134,0.817-3.101,1.55c-1.1,0.9-1.75,1.85-1.949,2.85
			c-0.301-1.2-0.467-1.933-0.5-2.2c-0.167,0.633-0.601,1.417-1.301,2.35c-0.8,1.034-1.35,1.784-1.649,2.25
			c-0.467-1.2-0.65-2.35-0.55-3.45c-0.334,0.433-0.917,1.017-1.75,1.75c-0.801,0.7-1.367,1.267-1.7,1.7
			c0.066-0.833,0.316-1.6,0.75-2.3c-0.434,0.433-2.184,1.117-5.25,2.05c-2.7,0.833-4.167,1.7-4.4,2.6
			c0.033-0.6,0.084-1.05,0.15-1.35c-1.066,0.6-1.75,1.367-2.05,2.3c-0.367-1-0.601-1.767-0.7-2.3c-0.434,0.8-0.684,1.817-0.75,3.05
			v3.2c-1.3-2-2.084-3.233-2.351-3.7c-0.767-1.3-1.399-2.617-1.899-3.95c-0.267,0.733-0.384,1.567-0.351,2.5
			c0.034,0.9,0.2,1.684,0.5,2.35c-2-2.267-2.883-4.933-2.649-8c0.233-3.167,1.649-5.483,4.25-6.95
			c-2.934,0.567-5.283,1.534-7.05,2.9c0.166-0.5,0.5-1.034,1-1.6c0.533-0.6,1.05-0.967,1.55-1.1c-2.267,0.5-4.084,1.05-5.45,1.65
			c-2.082,0.859-3.591,1.935-4.525,3.225c0.19-0.665,0.365-1.173,0.525-1.525c-0.9,0.633-1.566,1.1-2,1.4
			c-0.767,0.6-1.283,1.217-1.55,1.85c-0.033-1.167-0.05-1.867-0.05-2.1c0.047-0.565,0.196-1.032,0.449-1.4
			c-1.7,1.836-3.933,3.236-6.699,4.2c-1.567,0.267-2.867,0.5-3.9,0.7c-2,0.367-3.116,0.85-3.35,1.45c0.1-0.667,0.216-1.15,0.35-1.45
			c-0.5,0.533-1.217,1.083-2.15,1.65c-1.399,0.867-2.166,1.333-2.3,1.4c-0.033-0.566,0-0.983,0.101-1.25
			c-1.967,0.967-3.434,1.75-4.4,2.35c-1.667,1-2.733,2.184-3.2,3.55c-0.467-0.6-0.833-1.434-1.1-2.5
			c-0.233-1.233-0.45-2.133-0.65-2.7c-0.467,0.533-0.666,1.4-0.6,2.6l-2.55-3.05c0,0.867,0.366,1.667,1.1,2.4
			c-3-1.867-4.517-2.8-4.55-2.8c-1.834-1.3-3.066-2.55-3.7-3.75l0.6,2.5c-0.699-0.167-1.433-0.717-2.199-1.65
			c-0.834-1.067-1.417-1.817-1.75-2.25c-0.367-0.533-0.65-0.933-0.851-1.2c-0.366-0.5-0.7-0.867-1-1.1c-1.333-0.5-2.033-0.8-2.1-0.9
			l0.55,0.95c-5.233-2.6-7.816-2.933-7.75-1c-0.167-0.133-0.467-0.267-0.9-0.4c-0.433-0.167-0.699-0.283-0.8-0.35
			c0.033,0.067,0.117,0.267,0.25,0.6c0.101,0.233,0.217,0.433,0.351,0.6c-1.5-0.1-2.75-0.717-3.75-1.85c-0.4,0.9-0.267,2,0.399,3.3
			c-1.1-0.566-1.934-1.017-2.5-1.35c-0.934-0.633-1.533-1.333-1.8-2.1c0.066,0.333,0.066,0.85,0,1.55
			c-0.366-0.233-0.634-0.417-0.8-0.55c-0.3-0.2-0.517-0.483-0.65-0.85l-2.5,1.35c-1.033,0.566-1.616,1.25-1.75,2.05
			c-0.033-0.6-0.033-1.033,0-1.3c-1.566,0.9-2.717,2.1-3.45,3.6c-0.5-1.233-0.783-2.233-0.85-3c-0.7,0.467-1.267,1.2-1.7,2.2
			c-0.434,1.167-0.8,2.017-1.1,2.55c0.1-1.6-0.601-3.45-2.101-5.55l-0.05,2.65c-0.6-1.033-1.666-2.017-3.2-2.95
			c-1.8-1-3.116-1.784-3.949-2.35c0.267,0.333,0.6,0.917,1,1.75c-1.434-0.767-2.634-1.633-3.601-2.6
			c0.566,0.967,1.367,1.867,2.4,2.7c-2.367-0.567-3.934-0.983-4.7-1.25c-1.934-0.633-3.316-1.417-4.15-2.35
			c0.2,0.433,0.467,1.133,0.801,2.1c-0.767-0.067-1.75-0.534-2.95-1.4c0.192,0.193,0.543,0.651,1.05,1.375
			c-1.271-0.712-3.155-0.938-5.65-0.675c-2.741,0.29-4.241,1.224-4.5,2.8c0.114-0.826,0.281-1.443,0.5-1.85
			c-0.899,0.767-1.583,1.5-2.05,2.2c0-1.066,0.084-1.816,0.25-2.25c-0.467,0.434-1.6,1.167-3.399,2.2
			c-1.467,0.867-2.5,1.733-3.101,2.6c0.101-0.867,0.367-1.65,0.8-2.35c-1.066,0.6-1.866,1.066-2.399,1.4
			c-0.934,0.567-1.601,1.133-2,1.7c-0.033-0.967,0-1.684,0.1-2.15c-0.357,0.552-0.891,1.261-1.6,2.125
			c0.096-1.037,0.046-2.029-0.15-2.975c-0.467,0.667-1.483,1.316-3.05,1.95c-1.767,0.7-2.917,1.267-3.45,1.7
			c0.167-0.233,0.35-0.65,0.55-1.25c-1.37,0.159-2.419,0.626-3.15,1.4c0.169-0.202,0.47-0.585,0.9-1.15
			c0.4-0.533,0.75-0.934,1.05-1.2c-3.435,0-5.318,0.017-5.65,0.05c-2.667,0.267-4.167,1.083-4.5,2.45
			c0.033-0.833,0.117-1.45,0.25-1.85c-0.9,0.6-1.517,1.333-1.85,2.2c-0.133,0.333-0.367,1.283-0.7,2.85
			c-0.4-0.567-1.167-1.533-2.3-2.9c-1.033-1.233-1.75-2.167-2.15-2.8c0.333,1.133,0.55,1.967,0.65,2.5
			c-0.367-0.4-0.967-0.883-1.8-1.45c-0.934-0.633-1.567-1.1-1.9-1.4c0.267,0.767,0.8,1.617,1.6,2.55c-0.767-0.6-2.466-1.5-5.1-2.7
			c-2.167-1-3.767-2.1-4.8-3.3c0,0.7,0.133,1.75,0.4,3.15c-0.533-0.3-1.1-0.783-1.7-1.45c-0.667-0.767-1.184-1.333-1.55-1.7
			c0.067,0.8,0.267,1.983,0.6,3.55c-1.033-2.566-2.717-4.3-5.05-5.2c-2.062-0.798-4.487-0.898-7.275-0.3
			c0.832-0.157,2.189,0.376,4.075,1.6c1.733,1.167,2.783,2.117,3.15,2.85c0.934,1.9,1.517,3.583,1.75,5.05
			c0.233,1.367,0.217,3.017-0.05,4.95c-0.3-0.667-0.483-1.167-0.55-1.5c-0.434,1.667-1.2,3.483-2.3,5.45
			c-0.2,0.333-1.283,2.034-3.25,5.1c0.7-2.5,1.083-3.967,1.15-4.4c0.367-1.567,0.55-3.083,0.55-4.55
			c-0.267,0.367-0.867,1.066-1.8,2.1c-0.8,0.867-1.367,1.6-1.7,2.2c-0.333-1.4-0.533-2.467-0.6-3.2c-0.667,0.767-1.117,1.767-1.35,3
			c-0.133,0.7-0.283,1.784-0.45,3.25c-1.667-3.167-4.034-5.1-7.1-5.8c-0.033,0.867-0.033,1.733,0,2.6
			c-0.833-0.533-1.733-1.333-2.7-2.4c0.367,0.733,0.684,1.9,0.95,3.5c-0.1-0.067-1.783-0.817-5.05-2.25
			c-2.779-1.225-4.163-2.091-4.15-2.6c-0.032,0.637,0.068,1.253,0.3,1.85c-1.1-1.133-1.717-1.767-1.85-1.9
			c-0.633-0.733-1.15-1.466-1.55-2.2c-1.066,1.1-1.9,1.883-2.5,2.35c0-0.767-0.017-1.167-0.05-1.2c-1.233-0.3-2.033,0-2.4,0.9
			c-0.1-0.133-0.317-0.333-0.65-0.6c-0.367-0.233-0.6-0.433-0.7-0.6c0.067,0.466,0,1.183-0.2,2.15
			c-1.233-1.233-1.983-2.267-2.25-3.1c-0.333,0.633-0.55,1.5-0.65,2.6c-0.066,0.6-0.15,1.5-0.25,2.7
			c-1.066-1.933-1.833-3.367-2.3-4.3c-0.833-1.633-1.184-3.233-1.05-4.8c-1.1,0.466-1.833,1.283-2.2,2.45
			c-0.3-0.733-0.533-1.55-0.7-2.45c-0.833,0.767-1.35,1.683-1.55,2.75c-0.8-1.567-1.067-2.8-0.8-3.7c-1.933-0.4-3.55-0.65-4.85-0.75
			c-2.467-0.2-4.55,0.45-6.25,1.95c0.2-0.2,0.466-0.717,0.8-1.55c0.467-0.767,1.183-1.35,2.15-1.75c-2.533-0.2-3.917-0.3-4.15-0.3
			c-1.733,0.033-2.967,0.5-3.7,1.4c0.367-0.833,0.967-1.633,1.8-2.4c-5.067,1-8.383,3.417-9.95,7.25c0.233-1.533,0.467-2.7,0.7-3.5
			c0.433-1.367,1.15-2.233,2.15-2.6c-1.167,0.367-2.417,0.967-3.75,1.8c-1.833,1.167-2.283,2.083-1.35,2.75
			c-0.833-0.433-1.4-0.783-1.7-1.05c0.367,0.8,0.966,1.7,1.8,2.7c-1.167-0.567-1.9-0.9-2.2-1c-0.633-0.233-1.417-0.333-2.35-0.3
			c-1.367,0.133-2.367,0.184-3,0.15c-1.067,0-2.067-0.2-3-0.6c0.8,0.833,1.683,1.35,2.65,1.55c-2.067,0-3.184,0-3.35,0
			c-0.692-0.055-1.325-0.171-1.9-0.35c1.406,0.741,2.239,1.724,2.5,2.95c-0.667-1.033-2.733-2-6.2-2.9c-3.8-0.934-6.2-1.867-7.2-2.8
			c0,1.377,0.55,2.468,1.65,3.275c-2.051-1.338-3.618-2.363-4.7-3.075c-2.066-1.333-3.883-2.317-5.45-2.95
			c-1.5-0.6-3.267-0.917-5.3-0.95c-2.463-0.033-4.072,0.517-4.825,1.65c0.165-0.263,0.356-0.613,0.575-1.05
			c-3.167,0.267-5.433,1.15-6.8,2.65c0.2-1.133,0.517-2.367,0.95-3.7c-1.3-0.5-2.716-0.517-4.25-0.05c0.733-0.6,1.25-0.967,1.55-1.1
			l-3-0.3c-1.5-0.167-2.667-0.216-3.5-0.15c-1.267,0.1-2.467,0.45-3.6,1.05c0-1.167,0.3-2.1,0.9-2.8
			c-1.233,0.233-2.233,0.783-3,1.65c-0.267-0.9-0.25-1.716,0.05-2.45c-1.567,0.5-2.934,0.967-4.1,1.4
			c-2.2,0.867-3.184,1.683-2.95,2.45c-0.133-0.367-0.066-0.833,0.2-1.4c-0.767,0.467-1.35,1.05-1.75,1.75
			c-0.533,0.833-0.633,1.617-0.3,2.35c-0.833-0.5-1.75-1.483-2.75-2.95c0,0.6-0.017,1.633-0.05,3.1c0.1,1.233,0.567,2.067,1.4,2.5
			c-0.9-0.233-1.967-0.833-3.2-1.8c-1.833-1.467-2.817-2.233-2.95-2.3c0.133,0.367,0.233,0.883,0.3,1.55c-0.8-0.333-2-1.433-3.6-3.3
			c0.2,0.833,0.517,1.65,0.95,2.45c-1-0.933-1.767-1.617-2.3-2.05c-0.9-0.8-1.717-1.4-2.45-1.8c-0.733-0.233-1.4-0.483-2-0.75
			c-1.2-0.5-1.566-0.95-1.1-1.35c-0.5,0.4-0.833,0.917-1,1.55c-0.167,0.667-0.083,1.283,0.25,1.85C42.483,21.783,41.967,21,41,19.5
			c-0.4-0.633-1.2-0.883-2.4-0.75c-1.1,0.1-2.217,0.517-3.35,1.25c-1.333,0.867-1.867,1.8-1.6,2.8
			c-0.223-0.765-0.29-1.257-0.2-1.475c-0.601,1.384-0.917,2.159-0.95,2.325c-0.3,0.934-0.35,1.783-0.15,2.55
			c-0.8-1.1-1.417-1.934-1.85-2.5c-0.767-1.034-1.45-1.833-2.05-2.4c-0.167,1.067,0.083,2.167,0.75,3.3
			c-0.833-0.7-1.45-1.233-1.85-1.6c-0.7-0.633-1.233-1.233-1.6-1.8c0.233,0.8,0.75,1.716,1.55,2.75c-2.2-0.9-4.05-2.667-5.55-5.3
			c-0.3,0.767-0.267,1.633,0.1,2.6c-0.8-0.533-1.483-1.133-2.05-1.8c0.4,1,0.733,1.75,1,2.25c-1.933-1.8-3.95-2.917-6.05-3.35
			c-1.233-0.067-2.267-0.15-3.1-0.25c-1.566-0.133-2.467-0.417-2.7-0.85c0.233,0.5,0.867,1.05,1.9,1.65
			c-1.7,0.067-3.233-0.267-4.6-1c0.467,0.367,1.067,1.017,1.8,1.95c-0.933-0.467-2.3-0.817-4.1-1.05c-2.167,0.034-3.45,0.034-3.85,0
			C-0.033,13.367,0.033,8.167,0.3,3.2C7.267,6.033,17.567,7.633,31.2,8c10.033,0.267,19.533-0.083,28.5-1.05
			C73.9,5.483,87.667,4.9,101,5.2c4.133,0.1,20.033,0.9,47.7,2.4c3.533,0.2,7.683,0.083,12.45-0.35
			c6.2-0.533,10.317-0.833,12.35-0.9c2.367-0.067,6.183-0.3,11.45-0.7c4.8-0.3,8.617-0.283,11.45,0.05
			c6.434,0.733,10.4,1.15,11.9,1.25c4.233,0.267,8.217,0.167,11.95-0.3c3.067-0.367,6.65-0.566,10.75-0.6
			C233.367,6.017,236.983,6,241.85,6c2.566-0.033,5.883-0.2,9.95-0.5c5.2-0.433,8.566-0.683,10.101-0.75
			c15.5-0.8,41.55-1.083,78.149-0.85c33.4,0.233,59.434-0.383,78.101-1.85c6.8-0.533,15.483,0.05,26.05,1.75
			c13.2,2.1,21.934,3.267,26.2,3.5C474.366,7.5,479.7,6.4,486.4,4z"/>
		<path style="fill-rule:evenodd;clip-rule:evenodd;fill:#3E9A9D;" d="M492.25,1.9l0.05,12.2c-1.967,0.133-3.383,0.183-4.25,0.15
			c-5.3,0.2-11.583,1.083-18.85,2.65c-6.5,1.567-10.084,2.4-10.75,2.5c-3.767,0.633-8.066,0.467-12.9-0.5
			c-5.533-1.433-9.75-2.45-12.649-3.05c-5.601-1.133-10.634-1.367-15.101-0.7c-4,0.6-8.6,2.117-13.8,4.55
			c-4.4,2.033-7.9,3.5-10.5,4.4c-4.866,1.7-8.267,2.133-10.2,1.3c-1.133-0.5-1.517-1.283-1.149-2.35c0.8-1.5,1.399-2.733,1.8-3.7
			c0.5-1.133,0.3-2.117-0.601-2.95c-0.933-0.9-2.316-1.283-4.149-1.15c-3.233,0.2-5.417,0.383-6.55,0.55c-2.2,0.333-4.784,1-7.75,2
			c-4.534,1.767-8.017,3.1-10.45,4c-4.367,1.6-7.967,2.383-10.8,2.35c-2.967-0.033-7.117-1.367-12.45-4
			c-5.2-2.566-9.45-3.8-12.75-3.7c-2.334,0.066-5.2,0.45-8.601,1.15l-8.5,1.7c-3.633,0.633-7.316,0.583-11.05-0.15
			c-1.8-0.333-5.333-1.316-10.6-2.95c-4.434-1.333-9.434-1.467-15-0.4c-0.134,0-5.033,1.284-14.7,3.85
			c-3.4,0.9-7.217,1.117-11.45,0.65c-2.233-0.267-6-1-11.3-2.2c-4.2-1-7.267-1.717-9.2-2.15c-3.367-0.767-6.35-1.3-8.95-1.6
			c-2.7-0.333-5.617-0.35-8.75-0.05c-3.434,0.267-6.367,0.85-8.8,1.75c1.2,0.333,3.667,1.017,7.4,2.05c3.367,1.167,5.7,2.65,7,4.45
			c1.767,2.4,1.117,4.4-1.95,6c-2.833,1.467-6.317,2.017-10.45,1.65c-4.6-0.434-9.133-1.333-13.6-2.7
			c-5.167-1.6-9.75-3.667-13.75-6.2c-4.567-2.966-9.9-4.9-16-5.8c-6.7-0.967-12.434-0.35-17.2,1.85
			c-6.7,3.1-12.483,4.283-17.35,3.55c-3.467-0.633-6.017-1.05-7.65-1.25c-2.767-0.367-5.433-0.4-8-0.1
			c-2.767,0.333-4.983,0.534-6.65,0.6c-2.3,0.133-4.434,0.083-6.4-0.15c-2.034-0.2-3.967-0.583-5.8-1.15c-2.933-1-5.133-1.7-6.6-2.1
			c-2.466-0.633-4.733-0.8-6.8-0.5c-2.867,0.6-5,1-6.4,1.2c-2.434,0.367-4.6,0.283-6.5-0.25c-2.467-0.833-4.3-1.434-5.5-1.8
			c-2.1-0.7-4-1.066-5.7-1.1c-1.733-0.066-3.7,0.15-5.9,0.65c-2.567,0.7-4.5,1.216-5.8,1.55c-1.867,0.5-3.684,0.667-5.45,0.5
			c-1.433-0.167-3.2-0.617-5.3-1.35c-2.767-1-6.333-1.533-10.7-1.6c-4.833,0.133-8.317,0.184-10.45,0.15
			c-0.033-1.7-0.033-3.85,0-6.45c0.067-3.267,0.1-5.217,0.1-5.85C3.717,1.567,7.9,1.217,12.7,0.85
			c6.033-0.434,9.95-0.617,11.75-0.55c11.066,0.4,24.667,0.483,40.8,0.25C90.117,0.183,103.85,0,106.45,0
			c12.633-0.033,28.533,0.217,47.7,0.75c29.5,0.833,45.4,1.267,47.7,1.3c5.4,0.1,17.65-0.1,36.75-0.6
			c14.966-0.434,27.117-0.233,36.45,0.6c3.733,0.333,8.95,0.367,15.65,0.1c7.166-0.267,12.366-0.3,15.6-0.1
			C323.767,2.983,350.15,2.967,385.45,2c35.066-0.967,61.434-0.95,79.1,0.05c5.101,0.267,10.3,0.284,15.601,0.05
			C485.65,1.867,489.684,1.8,492.25,1.9z"/>
		<path style="fill-rule:evenodd;clip-rule:evenodd;fill:#3E9A9D;" d="M140.65,17.7c0.6-0.9,1.817-1.367,3.65-1.4
			c1.534-0.033,2.9,0.184,4.1,0.65c1.467,0.6,2.133,1.25,2,1.95c-0.1,0.667-0.883,1.117-2.35,1.35c-1.5,0.267-3.2,0.2-5.1-0.2
			C140.717,19.583,139.95,18.8,140.65,17.7z"/>
		<path style="fill-rule:evenodd;clip-rule:evenodd;fill:#3E9A9D;" d="M231.1,21.25c-0.367,0.733-1.184,1.1-2.45,1.1
			c-1.1,0-2.05-0.217-2.85-0.65c-1.033-0.5-1.517-1.05-1.45-1.65c0.066-0.566,0.6-0.933,1.6-1.1c1.066-0.167,2.25-0.067,3.55,0.3
			C231.033,19.683,231.567,20.35,231.1,21.25z"/>
		<path style="fill-rule:evenodd;clip-rule:evenodd;fill:#3E9A9D;" d="M363.05,22.1c0.066,0.933-0.633,1.783-2.1,2.55
			c-1.233,0.6-2.467,0.934-3.7,1c-1.533,0.067-2.45-0.217-2.75-0.85c-0.333-0.6,0.033-1.283,1.1-2.05
			c1.067-0.8,2.483-1.383,4.25-1.75C361.95,20.533,363.017,20.9,363.05,22.1z"/>
		<path style="fill-rule:evenodd;clip-rule:evenodd;fill:#3E9A9D;" d="M368.4,19.2c0.033,0.633-0.284,1.183-0.95,1.65
			c-0.566,0.4-1.134,0.633-1.7,0.7c-0.7,0.034-1.116-0.15-1.25-0.55s0.033-0.85,0.5-1.35c0.5-0.533,1.15-0.933,1.95-1.2
			C367.884,18.15,368.366,18.4,368.4,19.2z"/>
		<path style="fill-rule:evenodd;clip-rule:evenodd;fill:#3E9A9D;" d="M422.8,17.3c-0.233,0.8-0.967,1.35-2.2,1.65
			c-1.066,0.267-2.033,0.3-2.899,0.1c-1.134-0.233-1.717-0.633-1.75-1.2c-0.066-0.567,0.383-1.05,1.35-1.45
			c1-0.467,2.184-0.683,3.55-0.65C422.45,15.783,423.1,16.3,422.8,17.3z"/>
		<path style="fill-rule:evenodd;clip-rule:evenodd;fill:#3E9A9D;" d="M455,22.1c-0.1,0.5-0.5,0.85-1.2,1.05
			c-0.566,0.2-1.1,0.233-1.6,0.1c-0.601-0.133-0.917-0.383-0.95-0.75s0.217-0.683,0.75-0.95c0.533-0.267,1.184-0.4,1.95-0.4
			C454.816,21.183,455.167,21.5,455,22.1z"/>
		<path style="fill-rule:evenodd;clip-rule:evenodd;fill:#3E9A9D;" d="M103.3,20.95c0.534-0.667,1.567-0.983,3.1-0.95
			c1.367,0.067,2.383,0.333,3.05,0.8c0.9,0.633,1.066,1.233,0.5,1.8c-0.5,0.533-1.3,0.8-2.4,0.8c-1.133,0.033-2.216-0.15-3.25-0.55
			C103,22.383,102.667,21.75,103.3,20.95z"/>
		<path style="fill-rule:evenodd;clip-rule:evenodd;fill:#3E9A9D;" d="M112,22.25c0.3-0.467,0.883-0.683,1.75-0.65
			c0.8,0.033,1.4,0.217,1.8,0.55c0.5,0.434,0.6,0.85,0.3,1.25c-0.3,0.367-0.767,0.55-1.4,0.55c-0.633,0.033-1.267-0.083-1.9-0.35
			C111.817,23.267,111.633,22.817,112,22.25z"/>
	</g>
	
		<use xlink:href="#flash0.ai_x2F_Layer_3_x2F__x3C_Path_x3E__x5F_81"  width="10.986" height="10.767" x="0.025" y="-10.75" transform="matrix(1 0 0 -1 19.8501 56.0498)" style="overflow:visible;opacity:0.6289;enable-background:new    ;"/>
	
		<use xlink:href="#flash0.ai_x2F_Layer_3_x2F__x3C_Path_x3E__x5F_80"  width="9.231" height="9.022" x="-0.017" y="-9.05" transform="matrix(1 0 0 -1 60.2998 73.1504)" style="overflow:visible;opacity:0.6289;enable-background:new    ;"/>
	
		<use xlink:href="#flash0.ai_x2F_Layer_3_x2F__x3C_Path_x3E__x5F_79"  width="9.231" height="9" x="-0.017" y="-9" transform="matrix(1 0 0 -1 24.3999 102.8496)" style="overflow:visible;opacity:0.6289;enable-background:new    ;"/>
	
		<use xlink:href="#flash0.ai_x2F_Layer_3_x2F__x3C_Path_x3E__x5F_78"  width="11.895" height="11.617" x="0.015" y="-11.6" transform="matrix(1 0 0 -1 72.25 104.25)" style="overflow:visible;opacity:0.6289;enable-background:new    ;"/>
	
		<use xlink:href="#flash0.ai_x2F_Layer_3_x2F__x3C_Path_x3E__x5F_77"  width="9.379" height="9.123" x="-0.017" y="-9.15" transform="matrix(1 0 0 -1 164.2998 53.7002)" style="overflow:visible;opacity:0.6289;enable-background:new    ;"/>
	
		<use xlink:href="#flash0.ai_x2F_Layer_3_x2F__x3C_Path_x3E__x5F_76"  width="9.989" height="9.745" x="-0.027" y="-9.75" transform="matrix(1 0 0 -1 194.7002 60.7998)" style="overflow:visible;opacity:0.6289;enable-background:new    ;"/>
	
		<use xlink:href="#flash0.ai_x2F_Layer_3_x2F__x3C_Path_x3E__x5F_75"  width="8.083" height="7.856" x="-0.019" y="-7.85" transform="matrix(1 0 0 -1 319.2998 82.1504)" style="overflow:visible;opacity:0.6289;enable-background:new    ;"/>
	
		<use xlink:href="#flash0.ai_x2F_Layer_3_x2F__x3C_Path_x3E__x5F_74"  width="8.083" height="7.9" x="-0.019" y="-7.9" transform="matrix(1 0 0 -1 399.6504 48.4502)" style="overflow:visible;opacity:0.6289;enable-background:new    ;"/>
	
		<use xlink:href="#flash0.ai_x2F_Layer_3_x2F__x3C_Path_x3E__x5F_73"  width="9.89" height="9.645" x="0.022" y="-9.65" transform="matrix(1 0 0 -1 457.2998 53.5)" style="overflow:visible;opacity:0.6289;enable-background:new    ;"/>
	
		<use xlink:href="#flash0.ai_x2F_Layer_3_x2F__x3C_Path_x3E__x5F_72"  width="8.083" height="7.856" x="-0.019" y="-7.85" transform="matrix(1 0 0 -1 476.2998 85.4502)" style="overflow:visible;opacity:0.6289;enable-background:new    ;"/>
	
		<use xlink:href="#flash0.ai_x2F_Layer_3_x2F__x3C_Path_x3E__x5F_71"  width="8.083" height="7.9" x="-0.019" y="-7.9" transform="matrix(1 0 0 -1 341.7002 74.9004)" style="overflow:visible;opacity:0.6289;enable-background:new    ;"/>
	
		<use xlink:href="#flash0.ai_x2F_Layer_3_x2F__x3C_Path_x3E__x5F_70"  width="8.083" height="7.9" x="-0.019" y="-7.9" transform="matrix(1 0 0 -1 379.3496 60.5498)" style="overflow:visible;opacity:0.6289;enable-background:new    ;"/>
	
		<use xlink:href="#flash0.ai_x2F_Layer_3_x2F__x3C_Path_x3E__x5F_69"  width="12.145" height="11.867" x="0.015" y="-11.85" transform="matrix(1 0 0 -1 424 97.7998)" style="overflow:visible;opacity:0.6289;enable-background:new    ;"/>
	
		<use xlink:href="#flash0.ai_x2F_Layer_3_x2F__x3C_Path_x3E__x5F_68"  width="8.034" height="7.85" x="0.03" y="-7.85" transform="matrix(1 0 0 -1 358.9502 109.75)" style="overflow:visible;opacity:0.6289;enable-background:new    ;"/>
	
		<use xlink:href="#flash0.ai_x2F_Layer_3_x2F__x3C_Path_x3E__x5F_67"  width="8.083" height="7.856" x="0.031" y="-7.85" transform="matrix(1 0 0 -1 323.4004 55.2002)" style="overflow:visible;opacity:0.6289;enable-background:new    ;"/>
	
		<use xlink:href="#flash0.ai_x2F_Layer_3_x2F__x3C_Path_x3E__x5F_66"  width="8.034" height="7.9" x="0.03" y="-7.9" transform="matrix(1 0 0 -1 251.4004 107.4502)" style="overflow:visible;opacity:0.6289;enable-background:new    ;"/>
	
		<use xlink:href="#flash0.ai_x2F_Layer_3_x2F__x3C_Path_x3E__x5F_65"  width="8.034" height="7.85" x="0.03" y="-7.85" transform="matrix(1 0 0 -1 267.5498 48.4502)" style="overflow:visible;opacity:0.6289;enable-background:new    ;"/>
	
		<use xlink:href="#flash0.ai_x2F_Layer_3_x2F__x3C_Path_x3E__x5F_64"  width="9.23" height="9.023" x="0.033" y="-9" transform="matrix(1 0 0 -1 92.4502 58.7998)" style="overflow:visible;opacity:0.6289;enable-background:new    ;"/>
	
		<use xlink:href="#flash0.ai_x2F_Layer_3_x2F__x3C_Path_x3E__x5F_63"  width="8.873" height="9.052" x="0.041" y="-9.014" transform="matrix(1 0 0 -1 145.5 41.75)" style="overflow:visible;opacity:0.6289;enable-background:new    ;"/>
	
		<use xlink:href="#flash0.ai_x2F_Layer_3_x2F__x3C_Path_x3E__x5F_62"  width="9.516" height="9.677" x="-0.002" y="-9.688" transform="matrix(1 0 0 -1 220.6499 81.75)" style="overflow:visible;opacity:0.6289;enable-background:new    ;"/>
	
		<use xlink:href="#flash0.ai_x2F_Layer_3_x2F__x3C_Path_x3E__x5F_61"  width="8.873" height="9.052" x="-0.009" y="-9.064" transform="matrix(1 0 0 -1 138.1001 55.2998)" style="overflow:visible;opacity:0.6289;enable-background:new    ;"/>
	
		<use xlink:href="#flash0.ai_x2F_Layer_3_x2F__x3C_Path_x3E__x5F_60"  width="7.525" height="7.665" x="0.04" y="-7.639" transform="matrix(1 0 0 -1 129 105.25)" style="overflow:visible;opacity:0.6289;enable-background:new    ;"/>
	
		<use xlink:href="#flash0.ai_x2F_Layer_3_x2F__x3C_Path_x3E__x5F_59"  width="11.352" height="10.937" x="-0.002" y="-10.938" transform="matrix(1 0 0 -1 333.7002 57.25)" style="overflow:visible;opacity:0.6289;enable-background:new    ;"/>
	
		<use xlink:href="#flash0.ai_x2F_Layer_3_x2F__x3C_Path_x3E__x5F_58"  width="9.516" height="9.677" x="-0.002" y="-9.688" transform="matrix(1 0 0 -1 186.5498 77.9502)" style="overflow:visible;opacity:0.6289;enable-background:new    ;"/>
	
		<use xlink:href="#flash0.ai_x2F_Layer_3_x2F__x3C_Path_x3E__x5F_57"  width="5.169" height="5.083" x="0.037" y="-5.05" transform="matrix(1 0 0 -1 161.9502 71.4502)" style="overflow:visible;opacity:0.6289;enable-background:new    ;"/>
	
		<use xlink:href="#flash0.ai_x2F_Layer_3_x2F__x3C_Path_x3E__x5F_56"  width="5.169" height="5.083" x="0.037" y="-5.1" transform="matrix(1 0 0 -1 84.3999 102)" style="overflow:visible;opacity:0.6289;enable-background:new    ;"/>
	
		<use xlink:href="#flash0.ai_x2F_Layer_3_x2F__x3C_Path_x3E__x5F_55"  width="5.531" height="5.383" x="0.025" y="-5.4" transform="matrix(1 0 0 -1 236.3999 59.6001)" style="overflow:visible;opacity:0.6289;enable-background:new    ;"/>
	
		<use xlink:href="#flash0.ai_x2F_Layer_3_x2F__x3C_Path_x3E__x5F_54"  width="5.568" height="5.433" x="-0.013" y="-5.4" transform="matrix(1 0 0 -1 200 76.8496)" style="overflow:visible;opacity:0.6289;enable-background:new    ;"/>
	
		<use xlink:href="#flash0.ai_x2F_Layer_3_x2F__x3C_Path_x3E__x5F_53"  width="5.568" height="5.433" x="-0.013" y="-5.4" transform="matrix(1 0 0 -1 5.4502 93.25)" style="overflow:visible;opacity:0.6289;enable-background:new    ;"/>
	
		<use xlink:href="#flash0.ai_x2F_Layer_3_x2F__x3C_Path_x3E__x5F_52"  width="5.568" height="5.433" x="-0.013" y="-5.4" transform="matrix(1 0 0 -1 167.2002 95.9004)" style="overflow:visible;opacity:0.6289;enable-background:new    ;"/>
	
		<use xlink:href="#flash0.ai_x2F_Layer_3_x2F__x3C_Path_x3E__x5F_51"  width="4.461" height="4.34" x="-0.004" y="-4.35" transform="matrix(1 0 0 -1 351.1504 59.3999)" style="overflow:visible;opacity:0.6289;enable-background:new    ;"/>
	
		<use xlink:href="#flash0.ai_x2F_Layer_3_x2F__x3C_Path_x3E__x5F_50"  width="4.472" height="4.383" x="0.035" y="-4.35" transform="matrix(1 0 0 -1 259.0498 54)" style="overflow:visible;opacity:0.6289;enable-background:new    ;"/>
	
		<use xlink:href="#flash0.ai_x2F_Layer_3_x2F__x3C_Path_x3E__x5F_49"  width="4.461" height="4.34" x="-0.004" y="-4.35" transform="matrix(1 0 0 -1 182 116.25)" style="overflow:visible;opacity:0.6289;enable-background:new    ;"/>
	
		<use xlink:href="#flash0.ai_x2F_Layer_3_x2F__x3C_Path_x3E__x5F_48"  width="4.471" height="4.34" x="-0.014" y="-4.35" transform="matrix(1 0 0 -1 295.8496 64.4502)" style="overflow:visible;opacity:0.6289;enable-background:new    ;"/>
	
		<use xlink:href="#flash0.ai_x2F_Layer_3_x2F__x3C_Path_x3E__x5F_47"  width="8.618" height="8.674" x="-0.004" y="-8.66" transform="matrix(1 0 0 -1 178.7002 104.9502)" style="overflow:visible;opacity:0.6289;enable-background:new    ;"/>
	
		<use xlink:href="#flash0.ai_x2F_Layer_3_x2F__x3C_Path_x3E__x5F_46"  width="4.51" height="4.34" x="-0.004" y="-4.35" transform="matrix(1 0 0 -1 275.4502 117.5)" style="overflow:visible;opacity:0.6289;enable-background:new    ;"/>
	
		<use xlink:href="#flash0.ai_x2F_Layer_3_x2F__x3C_Path_x3E__x5F_45"  width="4.476" height="4.34" x="-0.004" y="-4.35" transform="matrix(1 0 0 -1 391.6504 53.2002)" style="overflow:visible;opacity:0.6289;enable-background:new    ;"/>
	
		<use xlink:href="#flash0.ai_x2F_Layer_3_x2F__x3C_Path_x3E__x5F_44"  width="4.51" height="4.34" x="-0.004" y="-4.35" transform="matrix(1 0 0 -1 376.7002 114.1504)" style="overflow:visible;opacity:0.6289;enable-background:new    ;"/>
	
		<use xlink:href="#flash0.ai_x2F_Layer_3_x2F__x3C_Path_x3E__x5F_43"  width="4.472" height="4.34" x="0.035" y="-4.35" transform="matrix(1 0 0 -1 422.2998 110)" style="overflow:visible;opacity:0.6289;enable-background:new    ;"/>
	
		<use xlink:href="#flash0.ai_x2F_Layer_3_x2F__x3C_Path_x3E__x5F_42"  width="7.286" height="7.106" x="0.029" y="-7.1" transform="matrix(1 0 0 -1 248.0498 80.75)" style="overflow:visible;opacity:0.6289;enable-background:new    ;"/>
	
		<use xlink:href="#flash0.ai_x2F_Layer_3_x2F__x3C_Path_x3E__x5F_41"  width="5.88" height="5.733" x="-0.012" y="-5.75" transform="matrix(1 0 0 -1 351.0996 81.5996)" style="overflow:visible;opacity:0.6289;enable-background:new    ;"/>
	
		<use xlink:href="#flash0.ai_x2F_Layer_3_x2F__x3C_Path_x3E__x5F_40"  width="5.917" height="5.714" x="-0.012" y="-5.7" transform="matrix(1 0 0 -1 285.8496 107.75)" style="overflow:visible;opacity:0.6289;enable-background:new    ;"/>
	
		<use xlink:href="#flash0.ai_x2F_Layer_3_x2F__x3C_Path_x3E__x5F_39"  width="5.88" height="5.733" x="-0.012" y="-5.75" transform="matrix(1 0 0 -1 326.0996 65.7998)" style="overflow:visible;opacity:0.6289;enable-background:new    ;"/>
	
		<use xlink:href="#flash0.ai_x2F_Layer_3_x2F__x3C_Path_x3E__x5F_38"  width="5.879" height="5.684" x="0.026" y="-5.7" transform="matrix(1 0 0 -1 83.9502 79.2998)" style="overflow:visible;opacity:0.6289;enable-background:new    ;"/>
	
		<use xlink:href="#flash0.ai_x2F_Layer_3_x2F__x3C_Path_x3E__x5F_37"  width="5.879" height="5.733" x="0.026" y="-5.75" transform="matrix(1 0 0 -1 27.8501 114.3496)" style="overflow:visible;opacity:0.6289;enable-background:new    ;"/>
	
		<use xlink:href="#flash0.ai_x2F_Layer_3_x2F__x3C_Path_x3E__x5F_36"  width="5.917" height="5.733" x="-0.012" y="-5.75" transform="matrix(1 0 0 -1 470.0498 91.5996)" style="overflow:visible;opacity:0.6289;enable-background:new    ;"/>
	
		<use xlink:href="#flash0.ai_x2F_Layer_3_x2F__x3C_Path_x3E__x5F_35"  width="7.734" height="7.506" x="-0.02" y="-7.55" transform="matrix(1 0 0 -1 438.3496 101.5498)" style="overflow:visible;opacity:0.6289;enable-background:new    ;"/>
	
		<use xlink:href="#flash0.ai_x2F_Layer_3_x2F__x3C_Path_x3E__x5F_34"  width="9.679" height="9.445" x="0.033" y="-9.45" transform="matrix(1 0 0 -1 427.5498 47.6001)" style="overflow:visible;opacity:0.6289;enable-background:new    ;"/>
	
		<use xlink:href="#flash0.ai_x2F_Layer_3_x2F__x3C_Path_x3E__x5F_33"  width="5.119" height="4.99" x="-0.013" y="-5" transform="matrix(1 0 0 -1 74.4502 46)" style="overflow:visible;opacity:0.6289;enable-background:new    ;"/>
	
		<use xlink:href="#flash0.ai_x2F_Layer_3_x2F__x3C_Path_x3E__x5F_32"  width="6.938" height="6.756" x="-0.021" y="-6.75" transform="matrix(1 0 0 -1 41.2998 57.25)" style="overflow:visible;opacity:0.6289;enable-background:new    ;"/>
	
		<use xlink:href="#flash0.ai_x2F_Layer_3_x2F__x3C_Path_x3E__x5F_31"  width="6.938" height="6.756" x="-0.021" y="-6.75" transform="matrix(1 0 0 -1 22.25 93.1504)" style="overflow:visible;opacity:0.6289;enable-background:new    ;"/>
	
		<use xlink:href="#flash0.ai_x2F_Layer_3_x2F__x3C_Path_x3E__x5F_30"  width="6.927" height="6.779" x="-0.01" y="-6.75" transform="matrix(1 0 0 -1 19.7998 70.25)" style="overflow:visible;opacity:0.6289;enable-background:new    ;"/>
	
		<use xlink:href="#flash0.ai_x2F_Layer_3_x2F__x3C_Path_x3E__x5F_29"  width="15.42" height="15.078" x="0.01" y="-15.05" transform="matrix(1 0 0 -1 83.2998 41.3999)" style="overflow:visible;opacity:0.6289;enable-background:new    ;"/>
	
		<use xlink:href="#flash0.ai_x2F_Layer_3_x2F__x3C_Path_x3E__x5F_28"  width="12.993" height="13.053" x="-0.028" y="-13.052" transform="matrix(1 0 0 -1 278.3496 62.1499)" style="overflow:visible;opacity:0.6289;enable-background:new    ;"/>
	
		<use xlink:href="#flash0.ai_x2F_Layer_3_x2F__x3C_Path_x3E__x5F_27"  width="13.453" height="13.183" x="0.018" y="-13.15" transform="matrix(1 0 0 -1 115.3501 71.7998)" style="overflow:visible;opacity:0.6289;enable-background:new    ;"/>
	
		<use xlink:href="#flash0.ai_x2F_Layer_3_x2F__x3C_Path_x3E__x5F_26"  width="6.896" height="14.958" x="0.004" y="-14.95" transform="matrix(1 0 0 -1 117.3501 47.75)" style="overflow:visible;opacity:0.6289;enable-background:new    ;"/>
	
		<use xlink:href="#flash0.ai_x2F_Layer_3_x2F__x3C_Path_x3E__x5F_25"  width="11.543" height="19.113" x="-0.002" y="-19.113" transform="matrix(1 0 0 -1 122.1001 40.5498)" style="overflow:visible;opacity:0.6289;enable-background:new    ;"/>
	
		<use xlink:href="#flash0.ai_x2F_Layer_3_x2F__x3C_Path_x3E__x5F_24"  width="10.078" height="10.35" x="0.017" y="-10.35" transform="matrix(1 0 0 -1 140.5498 67.7002)" style="overflow:visible;opacity:0.6289;enable-background:new    ;"/>
	
		<use xlink:href="#flash0.ai_x2F_Layer_3_x2F__x3C_Path_x3E__x5F_23"  width="7.492" height="15.7" x="0.033" y="-15.7" transform="matrix(1 0 0 -1 160.25 98.5498)" style="overflow:visible;opacity:0.6289;enable-background:new    ;"/>
	
		<use xlink:href="#flash0.ai_x2F_Layer_3_x2F__x3C_Path_x3E__x5F_22"  width="1.35" height="2.728" x="0.012" y="-2.728" transform="matrix(1 0 0 -1 133.3501 60.6499)" style="overflow:visible;opacity:0.6289;enable-background:new    ;"/>
	
		<use xlink:href="#flash0.ai_x2F_Layer_3_x2F__x3C_Path_x3E__x5F_21"  width="3.54" height="5.711" x="-0.04" y="-5.65" transform="matrix(1 0 0 -1 152.1499 88.0996)" style="overflow:visible;opacity:0.6289;enable-background:new    ;"/>
	
		<use xlink:href="#flash0.ai_x2F_Layer_3_x2F__x3C_Path_x3E__x5F_20"  width="13.375" height="13.376" x="0.028" y="-13.369" transform="matrix(1 0 0 -1 208.2002 69.75)" style="overflow:visible;opacity:0.6289;enable-background:new    ;"/>
	
		<use xlink:href="#flash0.ai_x2F_Layer_3_x2F__x3C_Path_x3E__x5F_19"  width="13.366" height="13.409" x="-0.013" y="-13.419" transform="matrix(1 0 0 -1 9.7002 97.6504)" style="overflow:visible;opacity:0.6289;enable-background:new    ;"/>
	
		<use xlink:href="#flash0.ai_x2F_Layer_3_x2F__x3C_Path_x3E__x5F_18"  width="10.807" height="10.801" x="-0.007" y="-10.807" transform="matrix(1 0 0 -1 290.9502 70.2998)" style="overflow:visible;opacity:0.6289;enable-background:new    ;"/>
	
		<use xlink:href="#flash0.ai_x2F_Layer_3_x2F__x3C_Path_x3E__x5F_17"  width="10.769" height="10.787" x="-0.015" y="-10.79" transform="matrix(1 0 0 -1 395 60.4502)" style="overflow:visible;opacity:0.6289;enable-background:new    ;"/>
	
		<use xlink:href="#flash0.ai_x2F_Layer_3_x2F__x3C_Path_x3E__x5F_16"  width="12.954" height="13.56" x="-0.012" y="-13.545" transform="matrix(1 0 0 -1 470.4502 40.1499)" style="overflow:visible;opacity:0.6289;enable-background:new    ;"/>
	
		<use xlink:href="#flash0.ai_x2F_Layer_3_x2F__x3C_Path_x3E__x5F_15"  width="10.765" height="10.834" x="-0.015" y="-10.79" transform="matrix(1 0 0 -1 95.7002 78.0996)" style="overflow:visible;opacity:0.6289;enable-background:new    ;"/>
	
		<use xlink:href="#flash0.ai_x2F_Layer_3_x2F__x3C_Path_x3E__x5F_14"  width="10.765" height="10.834" x="0.035" y="-10.79" transform="matrix(1 0 0 -1 251.0996 43.1001)" style="overflow:visible;opacity:0.6289;enable-background:new    ;"/>
	
		<use xlink:href="#flash0.ai_x2F_Layer_3_x2F__x3C_Path_x3E__x5F_13"  width="12.748" height="13.108" x="-0.029" y="-13.107" transform="matrix(1 0 0 -1 139.7998 102.7998)" style="overflow:visible;opacity:0.6289;enable-background:new    ;"/>
	
		<use xlink:href="#flash0.ai_x2F_Layer_3_x2F__x3C_Path_x3E__x5F_12"  width="13.225" height="13.259" x="-0.022" y="-13.269" transform="matrix(1 0 0 -1 418.25 62.1499)" style="overflow:visible;opacity:0.6289;enable-background:new    ;"/>
	
		<use xlink:href="#flash0.ai_x2F_Layer_3_x2F__x3C_Path_x3E__x5F_11"  width="13.225" height="13.259" x="0.028" y="-13.269" transform="matrix(1 0 0 -1 338.9004 104.7002)" style="overflow:visible;opacity:0.6289;enable-background:new    ;"/>
	
		<use xlink:href="#flash0.ai_x2F_Layer_3_x2F__x3C_Path_x3E__x5F_10"  width="16.727" height="16.35" x="0.001" y="-16.3" transform="matrix(1 0 0 -1 225.0498 67.0498)" style="overflow:visible;opacity:0.6289;enable-background:new    ;"/>
	
		<use xlink:href="#flash0.ai_x2F_Layer_3_x2F__x3C_Path_x3E__x5F_9"  width="13.502" height="13.139" x="-0.031" y="-13.15" transform="matrix(1 0 0 -1 462.5 74.9502)" style="overflow:visible;opacity:0.6289;enable-background:new    ;"/>
	
		<use xlink:href="#flash0.ai_x2F_Layer_3_x2F__x3C_Path_x3E__x5F_8"  width="15.619" height="15.256" x="0.011" y="-15.25" transform="matrix(1 0 0 -1 148.3999 54.7998)" style="overflow:visible;opacity:0.6289;enable-background:new    ;"/>
	
		<use xlink:href="#flash0.ai_x2F_Layer_3_x2F__x3C_Path_x3E__x5F_7"  width="15.619" height="15.256" x="0.011" y="-15.25" transform="matrix(1 0 0 -1 199.7998 96.4502)" style="overflow:visible;opacity:0.6289;enable-background:new    ;"/>
	
		<use xlink:href="#flash0.ai_x2F_Layer_3_x2F__x3C_Path_x3E__x5F_6"  width="13.501" height="13.139" x="-0.031" y="-13.15" transform="matrix(1 0 0 -1 350.7998 66.7998)" style="overflow:visible;opacity:0.6289;enable-background:new    ;"/>
	
		<use xlink:href="#flash0.ai_x2F_Layer_3_x2F__x3C_Path_x3E__x5F_5"  width="14.302" height="14.324" x="-0.026" y="-14.369" transform="matrix(1 0 0 -1 269.5498 100.7002)" style="overflow:visible;opacity:0.6289;enable-background:new    ;"/>
	
		<use xlink:href="#flash0.ai_x2F_Layer_3_x2F__x3C_Path_x3E__x5F_4"  width="20.963" height="20.452" x="-0.013" y="-20.439" transform="matrix(1 0 0 -1 69.3999 55.5498)" style="overflow:visible;opacity:0.6289;enable-background:new    ;"/>
	
		<use xlink:href="#flash0.ai_x2F_Layer_3_x2F__x3C_Path_x3E__x5F_3"  width="22.68" height="22.15" x="-0.029" y="-22.137" transform="matrix(1 0 0 -1 210.6001 45.6499)" style="overflow:visible;opacity:0.6289;enable-background:new    ;"/>
	
		<use xlink:href="#flash0.ai_x2F_Layer_3_x2F__x3C_Path_x3E__x5F_2"  width="18.306" height="17.871" x="-0.006" y="-17.833" transform="matrix(1 0 0 -1 284.2002 46.0498)" style="overflow:visible;opacity:0.6289;enable-background:new    ;"/>
	
		<use xlink:href="#flash0.ai_x2F_Layer_3_x2F__x3C_Path_x3E__x5F_1"  width="22.43" height="21.938" x="0.02" y="-21.887" transform="matrix(1 0 0 -1 433.4004 59.6499)" style="overflow:visible;opacity:0.6289;enable-background:new    ;"/>
	
		<use xlink:href="#flash0.ai_x2F_Layer_3_x2F__x3C_Path_x3E_"  width="18.33" height="17.871" x="-0.03" y="-17.883" transform="matrix(1 0 0 -1 378.75 71.5498)" style="overflow:visible;opacity:0.6289;enable-background:new    ;"/>
	<path style="fill-rule:evenodd;clip-rule:evenodd;fill:#20141B;" d="M165.35,108.8c1.133,3.267,1.833,6.65,2.1,10.15
		c0.233,2.833,0.167,5.45-0.2,7.85c-0.133,0-1.4,0.017-3.8,0.05c-1.434,0.034-2.617,0.017-3.55-0.05
		c1.167-6.333,1.517-11.05,1.05-14.149c-0.333-2.434-1.534-5.267-3.6-8.5c-0.533-0.867-1.75-2.167-3.65-3.9
		c-2.167-1.934-3.467-3.167-3.9-3.7c-2.867-3.3-4.45-7-4.75-11.1c0.034-2.267,0.017-3.967-0.05-5.101c-0.067-2-0.6-3.583-1.6-4.75
		c-0.933-1.1-2.566-2.1-4.9-3c-2.667-1.033-4.4-1.85-5.2-2.449c-1.267-0.967-2.25-2.233-2.95-3.801c-0.533-1.166-1-2.716-1.4-4.649
		c-0.167-0.733-0.3-1.733-0.4-3c-0.167-1.967-0.267-3.034-0.3-3.2c-0.133-1.833-0.4-3.317-0.8-4.45
		c-0.5-1.533-1.284-2.783-2.35-3.75c-0.6-0.566-1.9-1.233-3.9-2c-2.233-0.9-3.434-0.966-3.6-0.2c-0.833,3.767-1.2,6.283-1.1,7.55
		c0.167,2.333,1.4,4.333,3.7,6c2.566,1.867,3.75,3.783,3.55,5.75c-0.167,1.699-1.217,2.949-3.15,3.75
		c-1.967,0.8-3.85,0.733-5.65-0.2c-2.067-1.066-3.35-3.084-3.85-6.05c-0.3-1.867,0-4.2,0.9-7c1.1-3.433,1.7-5.717,1.8-6.85
		c0.133-1.667,0.034-4.1-0.3-7.3c-0.3-3.3-0.4-5.75-0.3-7.35c1.533-0.5,2.683-0.617,3.45-0.35c0.733,0.267,1.083,0.45,1.05,0.55
		c0,0.8,0,1.233,0,1.3c0.4,1.833,0.65,2.85,0.75,3.05c0.367,0.867,1.066,1.667,2.1,2.4c1.333,0.933,3.434,1.933,6.3,3
		c2.367,1.2,3.85,2.9,4.45,5.1c0.267,0.933,0.55,3.7,0.85,8.3c0.233,3.433,1.05,6.117,2.45,8.05c1.066,1.467,2.967,2.733,5.7,3.8
		c3.067,1.2,5.1,2.25,6.1,3.15c1.934,1.767,3.217,5.167,3.85,10.2c0.633,5.3,1.717,8.85,3.25,10.649
		c0.933,1.134,2.883,3.167,5.85,6.101C162.117,101.866,164.117,105.233,165.35,108.8z"/>
</g>
</svg>
