<?xml version="1.0" encoding="iso-8859-1"?>
<!-- Generator: Adobe Illustrator 15.1.0, SVG Export Plug-In . SVG Version: 6.00 Build 0)  -->
<!DOCTYPE svg PUBLIC "-//W3C//DTD SVG 1.1//EN" "http://www.w3.org/Graphics/SVG/1.1/DTD/svg11.dtd">
<svg version="1.1" id="Layer_3" xmlns="http://www.w3.org/2000/svg" xmlns:xlink="http://www.w3.org/1999/xlink" x="0px" y="0px"
	 width="492.3px" height="127.05px" viewBox="0 0 492.3 127.05" style="enable-background:new 0 0 492.3 127.05;"
	 xml:space="preserve">
<symbol  id="flash0.ai_x2F_Layer_3_x2F__x3C_Path_x3E_" viewBox="-0.006 -17.833 18.306 17.871">
	<g id="Layer_1_78_">
		<path style="fill-rule:evenodd;clip-rule:evenodd;fill:#1F1A1C;" d="M3.2-1.65c0.367,0.533,1.85,1,4.45,1.4
			c2.633,0.367,4.367,0.383,5.2,0.05c0.433-0.2,1.45-1.767,3.05-4.7c1.6-2.967,2.4-4.733,2.4-5.3c0-0.867-1.2-2.316-3.6-4.35
			c-2.3-1.934-3.934-3.017-4.9-3.25c-0.833-0.2-2.533,0.517-5.1,2.15c-2.534,1.6-4.034,2.85-4.5,3.75
			c-0.434,0.767-0.184,2.517,0.75,5.25C1.783-4.217,2.533-2.55,3.2-1.65z"/>
	</g>
</symbol>
<symbol  id="flash0.ai_x2F_Layer_3_x2F__x3C_Path_x3E__x5F_1" viewBox="-0.025 -22.137 22.725 22.15">
	<g id="Layer_1_77_">
		<path style="fill-rule:evenodd;clip-rule:evenodd;fill:#1F1A1C;" d="M3.95-2.05c0.466,0.667,2.316,1.233,5.55,1.7
			c3.267,0.467,5.417,0.483,6.45,0.05c0.533-0.233,1.783-2.167,3.75-5.8c2-3.667,3-5.85,3-6.55c0-1.1-1.5-2.917-4.5-5.45
			c-2.833-2.367-4.85-3.7-6.05-4C11.117-22.333,9-21.45,5.8-19.45c-3.133,1.967-5,3.517-5.6,4.65c-0.5,0.966-0.167,3.15,1,6.55
			C2.233-5.25,3.15-3.183,3.95-2.05z"/>
	</g>
</symbol>
<symbol  id="flash0.ai_x2F_Layer_3_x2F__x3C_Path_x3E__x5F_10" viewBox="-0.015 -10.809 10.815 10.804">
	<g id="Layer_1_68_">
		<path style="fill-rule:evenodd;clip-rule:evenodd;fill:#1F1A1C;" d="M10.2-1.6c0.4-0.333,0.6-1.483,0.6-3.45
			c-0.033-1.867-0.2-3.067-0.5-3.6C10.033-9.15,9-9.667,7.2-10.2c-1.767-0.533-2.967-0.716-3.6-0.55c-0.533,0.1-1.25,0.933-2.15,2.5
			C0.65-6.883,0.167-5.867,0-5.2c-0.1,0.4,0.3,1.3,1.2,2.7c0.867,1.4,1.566,2.217,2.1,2.45c0.267,0.133,1.417-0.034,3.45-0.5
			C8.783-1.017,9.933-1.367,10.2-1.6z"/>
	</g>
</symbol>
<symbol  id="flash0.ai_x2F_Layer_3_x2F__x3C_Path_x3E__x5F_11" viewBox="-0.007 -10.79 10.807 10.834">
	<g id="Layer_1_67_">
		<path style="fill-rule:evenodd;clip-rule:evenodd;fill:#1F1A1C;" d="M1.2-2.45C2.1-1.05,2.8-0.233,3.3,0
			c0.233,0.133,1.383-0.033,3.45-0.5c2.033-0.467,3.183-0.817,3.45-1.05c0.4-0.333,0.6-1.483,0.6-3.45
			c-0.033-1.867-0.2-3.083-0.5-3.65c-0.233-0.467-1.267-0.967-3.1-1.5c-1.767-0.533-2.967-0.733-3.6-0.6
			C3.067-10.617,2.35-9.767,1.45-8.2C0.65-6.833,0.167-5.817,0-5.15C-0.067-4.75,0.333-3.85,1.2-2.45z"/>
	</g>
</symbol>
<symbol  id="flash0.ai_x2F_Layer_3_x2F__x3C_Path_x3E__x5F_12" viewBox="-0.007 -10.79 10.807 10.834">
	<g id="Layer_1_66_">
		<path style="fill-rule:evenodd;clip-rule:evenodd;fill:#1F1A1C;" d="M1.2-2.5C2.067-1.1,2.767-0.267,3.3,0
			c0.233,0.133,1.383-0.033,3.45-0.5c2.033-0.467,3.183-0.817,3.45-1.05c0.4-0.333,0.6-1.483,0.6-3.45
			c-0.033-1.867-0.2-3.083-0.5-3.65c-0.233-0.467-1.267-0.967-3.1-1.5c-1.767-0.533-2.967-0.733-3.6-0.6
			C3.067-10.617,2.35-9.767,1.45-8.2C0.65-6.833,0.167-5.817,0-5.15C-0.067-4.75,0.333-3.867,1.2-2.5z"/>
	</g>
</symbol>
<symbol  id="flash0.ai_x2F_Layer_3_x2F__x3C_Path_x3E__x5F_13" viewBox="-0.013 -13.419 13.366 13.407">
	<g id="Layer_1_65_">
		<path style="fill-rule:evenodd;clip-rule:evenodd;fill:#1F1A1C;" d="M12.65-1.95c0.5-0.433,0.733-1.867,0.7-4.3
			c-0.033-2.333-0.233-3.833-0.6-4.5c-0.3-0.567-1.583-1.2-3.85-1.9c-2.2-0.667-3.683-0.9-4.45-0.7
			c-0.633,0.167-1.517,1.217-2.65,3.15C0.8-8.5,0.2-7.25,0-6.45c-0.1,0.5,0.4,1.617,1.5,3.35c1.1,1.7,1.967,2.717,2.6,3.05
			C4.4,0.083,5.817-0.133,8.35-0.7C10.85-1.267,12.283-1.683,12.65-1.95z"/>
	</g>
</symbol>
<symbol  id="flash0.ai_x2F_Layer_3_x2F__x3C_Path_x3E__x5F_14" viewBox="-0.031 -13.15 13.501 13.183">
	<g id="Layer_1_64_">
		<path style="fill-rule:evenodd;clip-rule:evenodd;fill:#1F1A1C;" d="M7.45-0.05C9.417-0.217,10.667-0.5,11.2-0.9
			c0.267-0.2,0.733-1.517,1.4-3.95c0.667-2.4,0.95-3.8,0.85-4.2c-0.133-0.633-1.25-1.5-3.35-2.6c-2-1-3.367-1.5-4.1-1.5
			c-0.633,0-1.75,0.816-3.35,2.45C1.083-9.133,0.2-7.967,0-7.2c-0.167,0.633,0.333,1.85,1.5,3.65C2.533-1.917,3.35-0.833,3.95-0.3
			C4.317,0.033,5.483,0.117,7.45-0.05z"/>
	</g>
</symbol>
<symbol  id="flash0.ai_x2F_Layer_3_x2F__x3C_Path_x3E__x5F_15" viewBox="0.018 -13.2 13.492 13.184">
	<g id="Layer_1_63_">
		<path style="fill-rule:evenodd;clip-rule:evenodd;fill:#1F1A1C;" d="M11.25-0.95c0.267-0.2,0.733-1.517,1.4-3.95
			c0.633-2.4,0.917-3.8,0.85-4.2c-0.167-0.667-1.283-1.533-3.35-2.6c-2-1-3.383-1.5-4.15-1.5c-0.633,0-1.75,0.817-3.35,2.45
			c-1.566,1.567-2.433,2.733-2.6,3.5C-0.117-6.617,0.367-5.4,1.5-3.6c1.033,1.633,1.85,2.717,2.45,3.25
			c0.367,0.333,1.533,0.417,3.5,0.25C9.417-0.233,10.683-0.517,11.25-0.95z"/>
	</g>
</symbol>
<symbol  id="flash0.ai_x2F_Layer_3_x2F__x3C_Path_x3E__x5F_16" viewBox="0.01 -15.05 15.457 15.078">
	<g id="Layer_1_62_">
		<path style="fill-rule:evenodd;clip-rule:evenodd;fill:#1F1A1C;" d="M12.85-1.05c0.333-0.233,0.867-1.733,1.6-4.5
			c0.767-2.733,1.1-4.35,1-4.85c-0.2-0.733-1.483-1.717-3.85-2.95c-2.267-1.133-3.833-1.7-4.7-1.7c-0.733,0-2.017,0.917-3.85,2.75
			c-1.8,1.833-2.8,3.167-3,4C-0.15-7.567,0.4-6.15,1.7-4.05c1.2,1.9,2.15,3.133,2.85,3.7c0.4,0.367,1.733,0.467,4,0.3
			C10.783-0.25,12.217-0.583,12.85-1.05z"/>
	</g>
</symbol>
<symbol  id="flash0.ai_x2F_Layer_3_x2F__x3C_Path_x3E__x5F_17" viewBox="-0.013 -5 5.133 4.99">
	<g id="Layer_1_61_">
		<path style="fill-rule:evenodd;clip-rule:evenodd;fill:#1F1A1C;" d="M1-4.1C0.4-3.5,0.067-3.05,0-2.75
			c-0.067,0.233,0.117,0.7,0.55,1.4C0.917-0.783,1.233-0.367,1.5-0.1C1.633,0,2.067,0.017,2.8-0.05c0.767-0.067,1.25-0.167,1.45-0.3
			c0.133-0.066,0.317-0.566,0.55-1.5c0.267-0.9,0.367-1.433,0.3-1.6c-0.033-0.267-0.45-0.6-1.25-1C3.083-4.817,2.567-5,2.3-5
			C2.067-5,1.633-4.7,1-4.1z"/>
	</g>
</symbol>
<symbol  id="flash0.ai_x2F_Layer_3_x2F__x3C_Path_x3E__x5F_18" viewBox="-0.012 -5.75 5.88 5.733">
	<g id="Layer_1_60_">
		<path style="fill-rule:evenodd;clip-rule:evenodd;fill:#1F1A1C;" d="M5.5-2.1c0.3-1.066,0.417-1.683,0.35-1.85
			C5.783-4.217,5.3-4.6,4.4-5.1C3.5-5.533,2.9-5.75,2.6-5.75c-0.3,0-0.783,0.35-1.45,1.05C0.45-4,0.067-3.483,0-3.15
			c-0.067,0.267,0.15,0.8,0.65,1.6c0.434,0.7,0.783,1.167,1.05,1.4c0.167,0.133,0.667,0.167,1.5,0.1
			C4.067-0.117,4.617-0.233,4.85-0.4C4.983-0.5,5.2-1.067,5.5-2.1z"/>
	</g>
</symbol>
<symbol  id="flash0.ai_x2F_Layer_3_x2F__x3C_Path_x3E__x5F_19" viewBox="0.026 -5.7 5.879 5.714">
	<g id="Layer_1_59_">
		<path style="fill-rule:evenodd;clip-rule:evenodd;fill:#1F1A1C;" d="M5.5-2.1c0.3-1.033,0.433-1.65,0.4-1.85
			c-0.066-0.267-0.55-0.633-1.45-1.1C3.583-5.483,2.983-5.7,2.65-5.7c-0.3,0-0.783,0.35-1.45,1.05c-0.7,0.667-1.083,1.167-1.15,1.5
			c-0.1,0.267,0.117,0.8,0.65,1.6C1.1-0.883,1.45-0.4,1.75-0.1c0.167,0.133,0.667,0.15,1.5,0.05C4.117-0.117,4.667-0.233,4.9-0.4
			C5.033-0.467,5.233-1.033,5.5-2.1z"/>
	</g>
</symbol>
<symbol  id="flash0.ai_x2F_Layer_3_x2F__x3C_Path_x3E__x5F_2" viewBox="-0.013 -20.439 20.913 20.466">
	<g id="Layer_1_76_">
		<path style="fill-rule:evenodd;clip-rule:evenodd;fill:#1F1A1C;" d="M3.6-1.9c0.433,0.6,2.15,1.117,5.15,1.55
			c3,0.467,4.983,0.5,5.95,0.1c0.5-0.233,1.667-2.033,3.5-5.4c1.8-3.367,2.7-5.383,2.7-6.05c0.033-1-1.333-2.667-4.1-5
			c-2.6-2.2-4.466-3.433-5.6-3.7c-0.967-0.233-2.917,0.583-5.85,2.45c-2.867,1.833-4.583,3.267-5.15,4.3
			c-0.467,0.9-0.167,2.917,0.9,6.05C2.033-4.833,2.867-2.933,3.6-1.9z"/>
	</g>
</symbol>
<symbol  id="flash0.ai_x2F_Layer_3_x2F__x3C_Path_x3E__x5F_20" viewBox="-0.012 -5.75 5.88 5.733">
	<g id="Layer_1_58_">
		<path style="fill-rule:evenodd;clip-rule:evenodd;fill:#1F1A1C;" d="M5.5-2.15C5.8-3.183,5.917-3.8,5.85-4
			C5.783-4.267,5.3-4.633,4.4-5.1C3.533-5.533,2.933-5.75,2.6-5.75c-0.3,0-0.783,0.35-1.45,1.05C0.45-4.033,0.067-3.533,0-3.2
			c-0.067,0.3,0.15,0.85,0.65,1.65c0.434,0.7,0.783,1.167,1.05,1.4c0.167,0.133,0.667,0.167,1.5,0.1
			C4.067-0.117,4.617-0.233,4.85-0.4C4.983-0.5,5.2-1.083,5.5-2.15z"/>
	</g>
</symbol>
<symbol  id="flash0.ai_x2F_Layer_3_x2F__x3C_Path_x3E__x5F_21" viewBox="0.026 -5.7 5.879 5.734">
	<g id="Layer_1_57_">
		<path style="fill-rule:evenodd;clip-rule:evenodd;fill:#1F1A1C;" d="M5.5-2.1c0.3-1.033,0.433-1.65,0.4-1.85
			c-0.066-0.267-0.55-0.633-1.45-1.1C3.583-5.483,2.983-5.7,2.65-5.7c-0.3,0-0.783,0.35-1.45,1.05c-0.7,0.667-1.083,1.167-1.15,1.5
			C-0.05-2.85,0.167-2.3,0.7-1.5c0.433,0.7,0.783,1.167,1.05,1.4C1.917,0.033,2.417,0.067,3.25,0C4.117-0.067,4.667-0.2,4.9-0.4
			C5.033-0.467,5.233-1.033,5.5-2.1z"/>
	</g>
</symbol>
<symbol  id="flash0.ai_x2F_Layer_3_x2F__x3C_Path_x3E__x5F_22" viewBox="-0.02 -7.15 7.286 7.129">
	<g id="Layer_1_56_">
		<path style="fill-rule:evenodd;clip-rule:evenodd;fill:#1F1A1C;" d="M6.05-0.5C6.183-0.633,6.433-1.35,6.8-2.65
			C7.167-3.95,7.317-4.7,7.25-4.9c-0.067-0.367-0.667-0.85-1.8-1.45c-1.067-0.533-1.8-0.8-2.2-0.8c-0.367,0-0.983,0.433-1.85,1.3
			C0.567-4.983,0.1-4.35,0-3.95c-0.1,0.367,0.167,1.034,0.8,2C1.367-1.017,1.817-0.433,2.15-0.2C2.317-0.033,2.933,0.017,4-0.05
			C5.067-0.117,5.75-0.267,6.05-0.5z"/>
	</g>
</symbol>
<symbol  id="flash0.ai_x2F_Layer_3_x2F__x3C_Path_x3E__x5F_23" viewBox="-0.004 -4.35 4.51 4.383">
	<g id="Layer_1_55_">
		<path style="fill-rule:evenodd;clip-rule:evenodd;fill:#1F1A1C;" d="M2.45,0c0.667-0.067,1.1-0.167,1.3-0.3
			C3.817-0.367,3.967-0.8,4.2-1.6C4.433-2.4,4.533-2.867,4.5-3C4.467-3.2,4.1-3.483,3.4-3.85C2.733-4.183,2.267-4.35,2-4.35
			c-0.2,0-0.567,0.267-1.1,0.8C0.367-3.017,0.067-2.633,0-2.4c-0.033,0.233,0.133,0.65,0.5,1.25C0.833-0.617,1.1-0.267,1.3-0.1
			C1.433,0.033,1.817,0.067,2.45,0z"/>
	</g>
</symbol>
<symbol  id="flash0.ai_x2F_Layer_3_x2F__x3C_Path_x3E__x5F_24" viewBox="-0.014 -4.35 4.471 4.34">
	<g id="Layer_1_54_">
		<path style="fill-rule:evenodd;clip-rule:evenodd;fill:#1F1A1C;" d="M3.7-0.3c0.1-0.067,0.25-0.5,0.45-1.3
			C4.383-2.4,4.483-2.867,4.45-3c-0.034-0.2-0.4-0.483-1.1-0.85C2.683-4.183,2.233-4.35,2-4.35c-0.2,0-0.583,0.267-1.15,0.8
			C0.35-3.017,0.067-2.633,0-2.4c-0.067,0.2,0.1,0.6,0.5,1.2c0.333,0.567,0.6,0.934,0.8,1.1C1.433,0,1.817,0.017,2.45-0.05
			C3.117-0.083,3.533-0.167,3.7-0.3z"/>
	</g>
</symbol>
<symbol  id="flash0.ai_x2F_Layer_3_x2F__x3C_Path_x3E__x5F_25" viewBox="-0.004 -8.609 8.618 8.638">
	<g id="Layer_1_53_">
		<path style="fill-rule:evenodd;clip-rule:evenodd;fill:#1F1A1C;" d="M0.7-1.55c0.133,0.267,0.8,0.617,2,1.05
			C3.867-0.067,4.667,0.1,5.1,0C5.333-0.067,5.967-0.717,7-1.95C8.033-3.183,8.567-3.933,8.6-4.2c0.1-0.4-0.333-1.2-1.3-2.4
			c-0.9-1.1-1.566-1.75-2-1.95C4.9-8.717,4.033-8.533,2.7-8C1.333-7.5,0.5-7.05,0.2-6.65C-0.033-6.35-0.067-5.5,0.1-4.1
			C0.267-2.867,0.467-2.017,0.7-1.55z"/>
	</g>
</symbol>
<symbol  id="flash0.ai_x2F_Layer_3_x2F__x3C_Path_x3E__x5F_26" viewBox="0.035 -4.35 4.472 4.34">
	<g id="Layer_1_52_">
		<path style="fill-rule:evenodd;clip-rule:evenodd;fill:#1F1A1C;" d="M3.75-0.3C3.85-0.367,4-0.8,4.2-1.6
			C4.433-2.4,4.533-2.867,4.5-3C4.467-3.2,4.1-3.483,3.4-3.85C2.733-4.183,2.267-4.35,2-4.35c-0.2,0-0.567,0.267-1.1,0.8
			C0.4-3.017,0.117-2.633,0.05-2.4C-0.017-2.167,0.133-1.75,0.5-1.15C0.867-0.617,1.15-0.267,1.35-0.1C1.45,0,1.833,0.017,2.5-0.05
			C3.133-0.083,3.55-0.167,3.75-0.3z"/>
	</g>
</symbol>
<symbol  id="flash0.ai_x2F_Layer_3_x2F__x3C_Path_x3E__x5F_27" viewBox="-0.014 -4.4 4.471 4.39">
	<g id="Layer_1_51_">
		<path style="fill-rule:evenodd;clip-rule:evenodd;fill:#1F1A1C;" d="M3.7-0.3c0.1-0.067,0.25-0.5,0.45-1.3
			c0.233-0.8,0.333-1.283,0.3-1.45c-0.034-0.2-0.4-0.483-1.1-0.85c-0.667-0.333-1.133-0.5-1.4-0.5c-0.2,0-0.567,0.267-1.1,0.8
			C0.35-3.067,0.067-2.667,0-2.4c-0.067,0.2,0.1,0.6,0.5,1.2c0.3,0.5,0.567,0.867,0.8,1.1C1.433,0,1.817,0.017,2.45-0.05
			C3.117-0.083,3.533-0.167,3.7-0.3z"/>
	</g>
</symbol>
<symbol  id="flash0.ai_x2F_Layer_3_x2F__x3C_Path_x3E__x5F_28" viewBox="-0.004 -4.4 4.461 4.39">
	<g id="Layer_1_50_">
		<path style="fill-rule:evenodd;clip-rule:evenodd;fill:#1F1A1C;" d="M3.7-0.3c0.1-0.067,0.267-0.5,0.5-1.3
			c0.2-0.833,0.283-1.316,0.25-1.45c-0.034-0.2-0.4-0.483-1.1-0.85C2.683-4.233,2.233-4.4,2-4.4c-0.2,0-0.567,0.267-1.1,0.8
			S0.067-2.667,0-2.4c-0.033,0.2,0.133,0.6,0.5,1.2c0.333,0.534,0.6,0.9,0.8,1.1C1.433,0,1.817,0.017,2.45-0.05
			C3.117-0.083,3.533-0.167,3.7-0.3z"/>
	</g>
</symbol>
<symbol  id="flash0.ai_x2F_Layer_3_x2F__x3C_Path_x3E__x5F_29" viewBox="0.035 -4.35 4.472 4.363">
	<g id="Layer_1_49_">
		<path style="fill-rule:evenodd;clip-rule:evenodd;fill:#1F1A1C;" d="M3.75-0.3C3.85-0.367,4-0.8,4.2-1.6
			C4.433-2.4,4.533-2.867,4.5-3C4.467-3.2,4.1-3.483,3.4-3.85C2.733-4.183,2.267-4.35,2-4.35c-0.2,0-0.567,0.267-1.1,0.8
			C0.4-3.017,0.117-2.633,0.05-2.4C-0.017-2.167,0.133-1.75,0.5-1.15C0.867-0.617,1.15-0.267,1.35-0.1C1.45,0,1.833,0.033,2.5,0
			C3.133-0.067,3.55-0.167,3.75-0.3z"/>
	</g>
</symbol>
<symbol  id="flash0.ai_x2F_Layer_3_x2F__x3C_Path_x3E__x5F_3" viewBox="-0.026 -14.35 14.303 14.351">
	<g id="Layer_1_75_">
		<path style="fill-rule:evenodd;clip-rule:evenodd;fill:#1F1A1C;" d="M11.35-1.95c1.7-1.367,2.667-2.4,2.9-3.1
			c0.133-0.333-0.233-1.817-1.1-4.45c-0.867-2.6-1.483-4.067-1.85-4.4c-0.533-0.5-2.083-0.583-4.65-0.25
			c-2.433,0.267-3.983,0.633-4.65,1.1c-0.567,0.4-1.1,1.833-1.6,4.3c-0.467,2.4-0.55,4-0.25,4.8c0.233,0.7,1.45,1.534,3.65,2.5
			C5.667-0.617,7.067-0.133,8,0C8.533,0.033,9.65-0.617,11.35-1.95z"/>
	</g>
</symbol>
<symbol  id="flash0.ai_x2F_Layer_3_x2F__x3C_Path_x3E__x5F_30" viewBox="-0.013 -5.4 5.568 5.433">
	<g id="Layer_1_48_">
		<path style="fill-rule:evenodd;clip-rule:evenodd;fill:#1F1A1C;" d="M3.05,0c0.8-0.067,1.317-0.183,1.55-0.35
			C4.733-0.45,4.933-1,5.2-2c0.267-0.967,0.383-1.55,0.35-1.75C5.483-4.017,5.017-4.367,4.15-4.8c-0.833-0.4-1.4-0.6-1.7-0.6
			c-0.267,0-0.717,0.333-1.35,1C0.433-3.767,0.067-3.3,0-3c-0.067,0.267,0.133,0.783,0.6,1.55C1-0.817,1.333-0.367,1.6-0.1
			C1.733,0.033,2.217,0.067,3.05,0z"/>
	</g>
</symbol>
<symbol  id="flash0.ai_x2F_Layer_3_x2F__x3C_Path_x3E__x5F_31" viewBox="-0.013 -5.45 5.568 5.434">
	<g id="Layer_1_47_">
		<path style="fill-rule:evenodd;clip-rule:evenodd;fill:#1F1A1C;" d="M5.2-2c0.267-1,0.383-1.583,0.35-1.75
			c-0.066-0.267-0.533-0.633-1.4-1.1c-0.8-0.4-1.35-0.6-1.65-0.6c-0.267,0-0.733,0.333-1.4,1C0.433-3.783,0.067-3.3,0-3
			c-0.067,0.267,0.133,0.767,0.6,1.5c0.433,0.667,0.783,1.117,1.05,1.35C1.817-0.017,2.3,0.017,3.1-0.05
			C3.9-0.117,4.417-0.233,4.65-0.4C4.75-0.467,4.933-1,5.2-2z"/>
	</g>
</symbol>
<symbol  id="flash0.ai_x2F_Layer_3_x2F__x3C_Path_x3E__x5F_32" viewBox="-0.013 -5.4 5.568 5.433">
	<g id="Layer_1_46_">
		<path style="fill-rule:evenodd;clip-rule:evenodd;fill:#1F1A1C;" d="M3.05,0c0.8-0.067,1.317-0.183,1.55-0.35
			C4.733-0.45,4.933-1,5.2-2c0.267-0.967,0.383-1.533,0.35-1.7c-0.066-0.267-0.533-0.633-1.4-1.1c-0.833-0.4-1.4-0.6-1.7-0.6
			c-0.267,0-0.717,0.333-1.35,1C0.433-3.733,0.067-3.25,0-2.95c-0.067,0.233,0.133,0.733,0.6,1.5C1-0.817,1.333-0.367,1.6-0.1
			C1.733,0.033,2.217,0.067,3.05,0z"/>
	</g>
</symbol>
<symbol  id="flash0.ai_x2F_Layer_3_x2F__x3C_Path_x3E__x5F_33" viewBox="-0.004 -5.05 5.209 5.083">
	<g id="Layer_1_45_">
		<path style="fill-rule:evenodd;clip-rule:evenodd;fill:#1F1A1C;" d="M2.9,0c0.733-0.067,1.217-0.183,1.45-0.35
			c0.1-0.066,0.267-0.566,0.5-1.5C5.117-2.783,5.233-3.333,5.2-3.5C5.133-3.733,4.7-4.05,3.9-4.45c-0.8-0.4-1.333-0.6-1.6-0.6
			C2.067-5.05,1.633-4.733,1-4.1C0.4-3.5,0.067-3.05,0-2.75c-0.033,0.233,0.167,0.7,0.6,1.4C1-0.683,1.317-0.267,1.55-0.1
			C1.683,0.033,2.133,0.067,2.9,0z"/>
	</g>
</symbol>
<symbol  id="flash0.ai_x2F_Layer_3_x2F__x3C_Path_x3E__x5F_34" viewBox="-0.004 -5.05 5.209 5.04">
	<g id="Layer_1_44_">
		<path style="fill-rule:evenodd;clip-rule:evenodd;fill:#1F1A1C;" d="M1-4.15C0.4-3.55,0.067-3.1,0-2.8
			c-0.033,0.233,0.167,0.7,0.6,1.4C1-0.767,1.317-0.333,1.55-0.1C1.683,0,2.133,0.017,2.9-0.05c0.733-0.067,1.217-0.167,1.45-0.3
			c0.1-0.066,0.267-0.566,0.5-1.5C5.117-2.783,5.233-3.333,5.2-3.5c-0.067-0.267-0.5-0.6-1.3-1C3.133-4.867,2.6-5.05,2.3-5.05
			C2.067-5.05,1.633-4.75,1-4.15z"/>
	</g>
</symbol>
<symbol  id="flash0.ai_x2F_Layer_3_x2F__x3C_Path_x3E__x5F_35" viewBox="-0.008 -9.654 9.473 9.69">
	<g id="Layer_1_43_">
		<path style="fill-rule:evenodd;clip-rule:evenodd;fill:#1F1A1C;" d="M6.9-0.7c1.333-0.566,2.15-1.066,2.45-1.5
			C9.483-2.4,9.5-3.417,9.4-5.25S9.167-8.15,9-8.45c-0.267-0.4-1.25-0.733-2.95-1c-1.667-0.233-2.767-0.267-3.3-0.1
			C2.317-9.417,1.733-8.583,1-7.05c-0.733,1.5-1.067,2.533-1,3.1c0.033,0.467,0.667,1.2,1.9,2.2C2.967-0.85,3.8-0.267,4.4,0
			C4.733,0.133,5.567-0.1,6.9-0.7z"/>
	</g>
</symbol>
<symbol  id="flash0.ai_x2F_Layer_3_x2F__x3C_Path_x3E__x5F_36" viewBox="-0.003 -16.027 8.803 16.027">
	<g id="Layer_1_42_">
		<path style="fill-rule:evenodd;clip-rule:evenodd;fill:#1F1A1C;" d="M8.8-2.15c0-0.467-0.083-1.167-0.25-2.1
			c-0.1-0.6-0.5-1.267-1.2-2C6.95-6.65,6.333-7.2,5.5-7.9C5.1-8.3,4.45-8.867,3.55-9.6c-0.733-0.7-1.283-1.35-1.65-1.95
			c-0.333-0.5-0.533-1.067-0.6-1.7c-0.033-0.5-0.017-1.333,0.05-2.5c0-0.4-0.233-0.367-0.7,0.1s-0.683,1.2-0.65,2.2
			c0,0.934,0.15,1.633,0.45,2.1c0.333,0.533,0.783,1.067,1.35,1.6c0.733,0.633,1.333,1.167,1.8,1.6c1.8,1.5,2.967,2.617,3.5,3.35
			C7.933-3.567,8.333-1.967,8.3,0C8.6-0.7,8.767-1.417,8.8-2.15z"/>
	</g>
</symbol>
<symbol  id="flash0.ai_x2F_Layer_3_x2F__x3C_Path_x3E__x5F_37" viewBox="0 -5.15 1.988 5.15">
	<g id="Layer_1_41_">
		<path style="fill-rule:evenodd;clip-rule:evenodd;fill:#1F1A1C;" d="M0-3.5c0,1.067,0.183,1.883,0.55,2.45
			C0.817-0.65,1.283-0.3,1.95,0C2.083-0.167,1.867-0.833,1.3-2C0.967-3.1,0.75-4.15,0.65-5.15c-0.167,0.1-0.3,0.217-0.4,0.35
			C0.083-4.567,0-4.133,0-3.5z"/>
	</g>
</symbol>
<symbol  id="flash0.ai_x2F_Layer_3_x2F__x3C_Path_x3E__x5F_38" viewBox="0.033 -6.472 2.001 6.442">
	<g id="Layer_1_40_">
		<path style="fill-rule:evenodd;clip-rule:evenodd;fill:#1F1A1C;" d="M1.85-0.05c0.3-0.133,0.233-1.034-0.2-2.7
			c-0.233-0.9-0.566-2.05-1-3.45c-0.167-0.533-0.367-0.283-0.6,0.75c-0.066,0.367,0.067,1.284,0.4,2.75
			C0.917-0.767,1.383,0.117,1.85-0.05z"/>
	</g>
</symbol>
<symbol  id="flash0.ai_x2F_Layer_3_x2F__x3C_Path_x3E__x5F_39" viewBox="0.012 -21.201 15.444 21.189">
	<g id="Layer_1_39_">
		<path style="fill-rule:evenodd;clip-rule:evenodd;fill:#1F1A1C;" d="M13.1-4c0.267,0.567,0.617,1.5,1.05,2.8
			c0.367,0.934,0.733,1.317,1.1,1.15c0.4,0.167,0.217-1.05-0.55-3.65c-0.467-1.533-1.383-3.1-2.75-4.7
			c-0.534-0.633-1.833-1.934-3.9-3.9c-0.433-0.434-1.133-1.05-2.1-1.85c-0.8-0.767-1.45-1.467-1.95-2.1
			c-0.067-0.1-0.633-0.817-1.7-2.15c-0.767-1-1.433-1.934-2-2.8c-0.466-0.033-0.367,0.6,0.3,1.9c0.433,0.933,1.017,1.95,1.75,3.05
			c0.8,1.2,2.417,2.95,4.85,5.25l2.5,2.4C11.267-7.033,12.4-5.5,13.1-4z"/>
	</g>
</symbol>
<symbol  id="flash0.ai_x2F_Layer_3_x2F__x3C_Path_x3E__x5F_4" viewBox="0.018 -13.15 13.453 13.183">
	<g id="Layer_1_74_">
		<path style="fill-rule:evenodd;clip-rule:evenodd;fill:#1F1A1C;" d="M11.25-0.9c0.267-0.2,0.733-1.517,1.4-3.95
			c0.633-2.4,0.9-3.8,0.8-4.2c-0.133-0.633-1.25-1.5-3.35-2.6c-2-1-3.367-1.5-4.1-1.5c-0.633,0-1.75,0.8-3.35,2.4
			c-1.533,1.6-2.4,2.767-2.6,3.5c-0.167,0.633,0.317,1.867,1.45,3.7c1,1.633,1.817,2.716,2.45,3.25
			c0.367,0.333,1.533,0.417,3.5,0.25C9.417-0.217,10.683-0.5,11.25-0.9z"/>
	</g>
</symbol>
<symbol  id="flash0.ai_x2F_Layer_3_x2F__x3C_Path_x3E__x5F_40" viewBox="0 -14.701 10.575 14.677">
	<g id="Layer_1_38_">
		<path style="fill-rule:evenodd;clip-rule:evenodd;fill:#1F1A1C;" d="M10.575-0.025C10.394-0.379,10.335-1.138,10.4-2.3
			c0.033-1.4,0.033-2.233,0-2.5c-0.267-1.6-0.8-3.017-1.6-4.25c-0.833-1.3-2.117-2.55-3.85-3.75C3.05-14.1,1.4-14.733,0-14.7
			c0.4,0.534,0.95,1.05,1.65,1.55c0.867,0.533,1.533,0.967,2,1.3c1.434,1.033,2.533,1.917,3.3,2.65c1.1,1.1,1.833,2.25,2.2,3.45
			c0.133,0.4,0.333,1.383,0.6,2.95C9.947-1.587,10.222-0.663,10.575-0.025z"/>
	</g>
</symbol>
<symbol  id="flash0.ai_x2F_Layer_3_x2F__x3C_Path_x3E__x5F_41" viewBox="-0.001 -15.8 21.602 15.8">
	<g id="Layer_1_37_">
		<path style="fill-rule:evenodd;clip-rule:evenodd;fill:#1F1A1C;" d="M19.45-0.75c-1.233-0.167-2-0.3-2.3-0.4
			c-1.7-0.6-3.9-2-6.6-4.2l-2.45-2c-2.333-1.967-3.817-3.233-4.45-3.8C3.383-11.417,2.767-11.9,1.8-12.6c-0.9-0.8-1.5-1.867-1.8-3.2
			c-0.067,2.8,2.15,5.75,6.65,8.85C6.683-6.917,8.2-5.733,11.2-3.4c1.8,1.433,3.466,2.383,5,2.85c0.7,0.2,1.583,0.333,2.65,0.4
			C19.483-0.083,20.4-0.033,21.6,0C21.133-0.333,20.417-0.583,19.45-0.75z"/>
	</g>
</symbol>
<symbol  id="flash0.ai_x2F_Layer_3_x2F__x3C_Path_x3E__x5F_42" viewBox="-0.002 -10.938 11.358 10.922">
	<g id="Layer_1_36_">
		<path style="fill-rule:evenodd;clip-rule:evenodd;fill:#1F1A1C;" d="M11.2-2.6c0.167-0.233,0.2-1.4,0.1-3.5
			c-0.1-2.1-0.233-3.3-0.4-3.6c-0.3-0.466-1.483-0.816-3.55-1.05C5.417-10.983,4.133-11,3.5-10.8c-0.567,0.2-1.3,1.167-2.2,2.9
			C0.4-6.233-0.033-5.067,0-4.4C0.033-3.833,0.783-3,2.25-1.9c1.3,1,2.283,1.617,2.95,1.85c0.367,0.133,1.367-0.133,3-0.8
			C9.833-1.55,10.833-2.133,11.2-2.6z"/>
	</g>
</symbol>
<symbol  id="flash0.ai_x2F_Layer_3_x2F__x3C_Path_x3E__x5F_43" viewBox="-0.003 -7.639 7.517 7.665">
	<g id="Layer_1_35_">
		<path style="fill-rule:evenodd;clip-rule:evenodd;fill:#1F1A1C;" d="M5.45-0.55c1.066-0.467,1.716-0.867,1.95-1.2
			c0.133-0.133,0.15-0.933,0.05-2.4C7.383-5.617,7.283-6.467,7.15-6.7C6.95-7.033,6.167-7.3,4.8-7.5C3.5-7.667,2.633-7.683,2.2-7.55
			C1.833-7.417,1.367-6.767,0.8-5.6C0.233-4.433-0.033-3.617,0-3.15c0.033,0.367,0.533,0.967,1.5,1.8C2.367-0.65,3.033-0.2,3.5,0
			C3.767,0.1,4.417-0.083,5.45-0.55z"/>
	</g>
</symbol>
<symbol  id="flash0.ai_x2F_Layer_3_x2F__x3C_Path_x3E__x5F_44" viewBox="-0.009 -9.014 8.873 9.052">
	<g id="Layer_1_34_">
		<path style="fill-rule:evenodd;clip-rule:evenodd;fill:#1F1A1C;" d="M6.45-0.65c1.267-0.533,2.033-1,2.3-1.4
			c0.133-0.2,0.15-1.167,0.05-2.9C8.7-6.683,8.567-7.667,8.4-7.9C8.167-8.3,7.25-8.617,5.65-8.85C4.117-9.05,3.1-9.067,2.6-8.9
			C2.167-8.767,1.617-7.983,0.95-6.55C0.25-5.183-0.067-4.233,0-3.7c0.033,0.434,0.617,1.133,1.75,2.1
			C2.783-0.767,3.567-0.233,4.1,0C4.4,0.133,5.183-0.083,6.45-0.65z"/>
	</g>
</symbol>
<symbol  id="flash0.ai_x2F_Layer_3_x2F__x3C_Path_x3E__x5F_45" viewBox="-0.008 -9.654 9.473 9.642">
	<g id="Layer_1_33_">
		<path style="fill-rule:evenodd;clip-rule:evenodd;fill:#1F1A1C;" d="M6.9-0.7c1.333-0.566,2.15-1.066,2.45-1.5
			C9.483-2.4,9.5-3.433,9.4-5.3C9.3-7.133,9.167-8.183,9-8.45c-0.267-0.4-1.25-0.733-2.95-1C4.417-9.683,3.333-9.717,2.8-9.55
			C2.333-9.417,1.733-8.583,1-7.05C0.267-5.583-0.067-4.567,0-4c0.033,0.5,0.667,1.25,1.9,2.25c1.1,0.9,1.934,1.467,2.5,1.7
			C4.733,0.083,5.567-0.133,6.9-0.7z"/>
	</g>
</symbol>
<symbol  id="flash0.ai_x2F_Layer_3_x2F__x3C_Path_x3E__x5F_46" viewBox="-0.002 -9.014 8.917 9.004">
	<g id="Layer_1_32_">
		<path style="fill-rule:evenodd;clip-rule:evenodd;fill:#1F1A1C;" d="M6.5-0.65c1.233-0.533,2-1,2.3-1.4
			c0.133-0.2,0.15-1.167,0.05-2.9c-0.1-1.733-0.233-2.716-0.4-2.95c-0.267-0.4-1.2-0.717-2.8-0.95c-1.5-0.2-2.5-0.217-3-0.05
			c-0.433,0.133-1,0.9-1.7,2.3C0.283-5.233-0.033-4.267,0-3.7c0.033,0.434,0.633,1.133,1.8,2.1c1.067,0.833,1.85,1.35,2.35,1.55
			C4.45,0.083,5.233-0.117,6.5-0.65z"/>
	</g>
</symbol>
<symbol  id="flash0.ai_x2F_Layer_3_x2F__x3C_Path_x3E__x5F_47" viewBox="-0.017 -9 9.231 9.023">
	<g id="Layer_1_31_">
		<path style="fill-rule:evenodd;clip-rule:evenodd;fill:#1F1A1C;" d="M5.1-0.05c1.333-0.1,2.183-0.284,2.55-0.55
			c0.2-0.133,0.533-1.033,1-2.7C9.083-4.967,9.267-5.933,9.2-6.2C9.1-6.633,8.333-7.217,6.9-7.95C5.533-8.65,4.6-9,4.1-9
			C3.667-9,2.9-8.45,1.8-7.35C0.733-6.283,0.133-5.483,0-4.95c-0.1,0.434,0.233,1.267,1,2.5C1.7-1.317,2.267-0.567,2.7-0.2
			C2.967,0.033,3.767,0.083,5.1-0.05z"/>
	</g>
</symbol>
<symbol  id="flash0.ai_x2F_Layer_3_x2F__x3C_Path_x3E__x5F_48" viewBox="-0.019 -7.85 8.083 7.856">
	<g id="Layer_1_30_">
		<path style="fill-rule:evenodd;clip-rule:evenodd;fill:#1F1A1C;" d="M4.45-0.05c1.167-0.1,1.917-0.267,2.25-0.5
			c0.167-0.1,0.45-0.867,0.85-2.3c0.4-1.433,0.567-2.283,0.5-2.55c-0.1-0.4-0.767-0.917-2-1.55c-1.2-0.6-2.017-0.9-2.45-0.9
			c-0.367,0-1.033,0.483-2,1.45C0.667-5.467,0.133-4.767,0-4.3c-0.1,0.367,0.2,1.1,0.9,2.2c0.6,0.967,1.083,1.617,1.45,1.95
			C2.583,0.017,3.283,0.05,4.45-0.05z"/>
	</g>
</symbol>
<symbol  id="flash0.ai_x2F_Layer_3_x2F__x3C_Path_x3E__x5F_49" viewBox="-0.019 -7.85 8.083 7.85">
	<g id="Layer_1_29_">
		<path style="fill-rule:evenodd;clip-rule:evenodd;fill:#1F1A1C;" d="M6.7-0.55C6.867-0.683,7.15-1.467,7.55-2.9
			c0.4-1.434,0.567-2.283,0.5-2.55c-0.1-0.367-0.767-0.867-2-1.5c-1.2-0.6-2.033-0.9-2.5-0.9c-0.367,0-1.033,0.483-2,1.45
			C0.617-5.467,0.1-4.783,0-4.35c-0.1,0.367,0.2,1.1,0.9,2.2c0.6,1,1.083,1.65,1.45,1.95C2.583,0,3.283,0.05,4.45-0.05
			C5.617-0.15,6.367-0.317,6.7-0.55z"/>
	</g>
</symbol>
<symbol  id="flash0.ai_x2F_Layer_3_x2F__x3C_Path_x3E__x5F_5" viewBox="-0.028 -15.25 15.646 15.278">
	<g id="Layer_1_73_">
		<path style="fill-rule:evenodd;clip-rule:evenodd;fill:#1F1A1C;" d="M8.6-0.05c2.3-0.2,3.767-0.534,4.4-1
			c0.333-0.233,0.867-1.75,1.6-4.55c0.767-2.767,1.1-4.4,1-4.9c-0.2-0.767-1.5-1.767-3.9-3c-2.3-1.167-3.883-1.75-4.75-1.75
			c-0.733,0-2.034,0.933-3.9,2.8C1.25-10.617,0.233-9.267,0-8.4c-0.167,0.733,0.4,2.167,1.7,4.3c1.2,1.867,2.15,3.117,2.85,3.75
			C4.983,0.017,6.333,0.117,8.6-0.05z"/>
	</g>
</symbol>
<symbol  id="flash0.ai_x2F_Layer_3_x2F__x3C_Path_x3E__x5F_50" viewBox="-0.019 -7.9 8.083 7.9">
	<g id="Layer_1_28_">
		<path style="fill-rule:evenodd;clip-rule:evenodd;fill:#1F1A1C;" d="M6.7-0.55C6.867-0.683,7.15-1.467,7.55-2.9
			c0.4-1.434,0.567-2.283,0.5-2.55c-0.1-0.4-0.767-0.917-2-1.55c-1.2-0.6-2.033-0.9-2.5-0.9c-0.367,0-1.033,0.483-2,1.45
			C0.617-5.483,0.1-4.783,0-4.35c-0.1,0.367,0.2,1.1,0.9,2.2C1.5-1.217,1.983-0.567,2.35-0.2C2.55,0,3.233,0.05,4.4-0.05
			C5.567-0.15,6.333-0.317,6.7-0.55z"/>
	</g>
</symbol>
<symbol  id="flash0.ai_x2F_Layer_3_x2F__x3C_Path_x3E__x5F_51" viewBox="0.03 -7.9 8.034 7.9">
	<g id="Layer_1_27_">
		<path style="fill-rule:evenodd;clip-rule:evenodd;fill:#1F1A1C;" d="M7.55-2.9c0.4-1.467,0.567-2.317,0.5-2.55
			c-0.066-0.4-0.733-0.917-2-1.55C4.883-7.6,4.067-7.9,3.6-7.9c-0.4,0-1.067,0.483-2,1.45c-0.934,0.967-1.45,1.667-1.55,2.1
			c-0.1,0.367,0.184,1.1,0.85,2.2C1.5-1.183,2-0.533,2.4-0.2C2.6,0,3.283,0.05,4.45-0.05c1.167-0.1,1.933-0.267,2.3-0.5
			C6.917-0.683,7.183-1.467,7.55-2.9z"/>
	</g>
</symbol>
<symbol  id="flash0.ai_x2F_Layer_3_x2F__x3C_Path_x3E__x5F_52" viewBox="-0.019 -7.85 8.083 7.856">
	<g id="Layer_1_26_">
		<path style="fill-rule:evenodd;clip-rule:evenodd;fill:#1F1A1C;" d="M4.45-0.05c1.167-0.1,1.917-0.267,2.25-0.5
			C6.867-0.683,7.15-1.467,7.55-2.9c0.4-1.434,0.567-2.267,0.5-2.5c-0.1-0.4-0.767-0.917-2-1.55c-1.2-0.6-2.017-0.9-2.45-0.9
			c-0.367,0-1.033,0.483-2,1.45C0.667-5.467,0.133-4.767,0-4.3c-0.1,0.367,0.2,1.1,0.9,2.2c0.6,0.967,1.083,1.617,1.45,1.95
			C2.583,0.017,3.283,0.05,4.45-0.05z"/>
	</g>
</symbol>
<symbol  id="flash0.ai_x2F_Layer_3_x2F__x3C_Path_x3E__x5F_53" viewBox="-0.019 -7.9 8.083 7.9">
	<g id="Layer_1_25_">
		<path style="fill-rule:evenodd;clip-rule:evenodd;fill:#1F1A1C;" d="M6.7-0.55C6.867-0.683,7.15-1.467,7.55-2.9
			c0.4-1.434,0.567-2.283,0.5-2.55c-0.1-0.367-0.767-0.883-2-1.55C4.85-7.6,4.033-7.9,3.6-7.9c-0.367,0-1.033,0.483-2,1.45
			C0.667-5.517,0.133-4.817,0-4.35c-0.1,0.367,0.2,1.1,0.9,2.2C1.5-1.183,1.983-0.533,2.35-0.2C2.583,0,3.283,0.05,4.45-0.05
			C5.617-0.15,6.367-0.317,6.7-0.55z"/>
	</g>
</symbol>
<symbol  id="flash0.ai_x2F_Layer_3_x2F__x3C_Path_x3E__x5F_54" viewBox="0.023 -9.75 9.989 9.773">
	<g id="Layer_1_24_">
		<path style="fill-rule:evenodd;clip-rule:evenodd;fill:#1F1A1C;" d="M5.5-0.05c1.467-0.1,2.417-0.3,2.85-0.6
			c0.2-0.167,0.55-1.133,1.05-2.9C9.867-5.35,10.067-6.4,10-6.7C9.9-7.2,9.067-7.833,7.5-8.6C6.033-9.367,5.017-9.75,4.45-9.75
			c-0.467,0-1.284,0.6-2.45,1.8c-1.167,1.2-1.817,2.067-1.95,2.6c-0.133,0.467,0.233,1.383,1.1,2.75c0.733,1.2,1.333,2,1.8,2.4
			C3.217,0.033,4.067,0.083,5.5-0.05z"/>
	</g>
</symbol>
<symbol  id="flash0.ai_x2F_Layer_3_x2F__x3C_Path_x3E__x5F_55" viewBox="-0.017 -9.1 9.331 9.123">
	<g id="Layer_1_23_">
		<path style="fill-rule:evenodd;clip-rule:evenodd;fill:#1F1A1C;" d="M5.15-0.05c1.367-0.1,2.233-0.284,2.6-0.55
			c0.2-0.167,0.533-1.083,1-2.75C9.183-5.017,9.367-6,9.3-6.3C9.2-6.733,8.433-7.317,7-8.05C5.6-8.75,4.65-9.1,4.15-9.1
			c-0.433,0-1.2,0.55-2.3,1.65C0.75-6.35,0.133-5.533,0-5c-0.1,0.433,0.233,1.283,1,2.55C1.7-1.317,2.267-0.567,2.7-0.2
			C2.967,0.033,3.783,0.083,5.15-0.05z"/>
	</g>
</symbol>
<symbol  id="flash0.ai_x2F_Layer_3_x2F__x3C_Path_x3E__x5F_56" viewBox="-0.024 -11.65 11.896 11.617">
	<g id="Layer_1_22_">
		<path style="fill-rule:evenodd;clip-rule:evenodd;fill:#1F1A1C;" d="M11.15-4.3c0.567-2.133,0.8-3.383,0.7-3.75
			c-0.1-0.567-1.083-1.317-2.95-2.25c-1.733-0.9-2.933-1.35-3.6-1.35c-0.566,0-1.55,0.717-2.95,2.15C0.983-8.1,0.2-7.067,0-6.4
			c-0.133,0.566,0.3,1.65,1.3,3.25C2.2-1.717,2.917-0.767,3.45-0.3c0.333,0.267,1.367,0.333,3.1,0.2C8.283-0.233,9.4-0.483,9.9-0.85
			C10.167-1.017,10.583-2.167,11.15-4.3z"/>
	</g>
</symbol>
<symbol  id="flash0.ai_x2F_Layer_3_x2F__x3C_Path_x3E__x5F_57" viewBox="-0.017 -9 9.231 9.023">
	<g id="Layer_1_21_">
		<path style="fill-rule:evenodd;clip-rule:evenodd;fill:#1F1A1C;" d="M5.1-0.05c1.333-0.1,2.183-0.284,2.55-0.55
			c0.2-0.133,0.533-1.033,1-2.7C9.083-4.967,9.267-5.933,9.2-6.2C9.1-6.633,8.333-7.217,6.9-7.95C5.533-8.65,4.6-9,4.1-9
			C3.667-9,2.9-8.45,1.8-7.35c-1.066,1.1-1.667,1.9-1.8,2.4C-0.1-4.517,0.233-3.667,1-2.4c0.7,1.1,1.267,1.833,1.7,2.2
			C2.967,0.033,3.767,0.083,5.1-0.05z"/>
	</g>
</symbol>
<symbol  id="flash0.ai_x2F_Layer_3_x2F__x3C_Path_x3E__x5F_58" viewBox="0.02 -17.833 18.28 17.871">
	<g id="Layer_1_20_">
		<path style="fill-rule:evenodd;clip-rule:evenodd;fill:#1F1A1C;" d="M12.85-0.2c0.433-0.167,1.45-1.733,3.05-4.7
			c1.6-2.934,2.4-4.684,2.4-5.25c0-0.9-1.2-2.367-3.6-4.4c-2.3-1.934-3.934-3.017-4.9-3.25c-0.833-0.2-2.533,0.517-5.1,2.15
			c-2.5,1.566-4,2.816-4.5,3.75C-0.2-11.133,0.067-9.383,1-6.65c0.833,2.467,1.567,4.133,2.2,5c0.367,0.533,1.85,1,4.45,1.4
			C10.283,0.117,12.017,0.133,12.85-0.2z"/>
	</g>
</symbol>
<symbol  id="flash0.ai_x2F_Layer_3_x2F__x3C_Path_x3E__x5F_59" viewBox="-0.025 -21.887 22.475 21.939">
	<g id="Layer_1_19_">
		<path style="fill-rule:evenodd;clip-rule:evenodd;fill:#1F1A1C;" d="M3.9-2.05c0.467,0.633,2.3,1.2,5.5,1.7
			c3.2,0.5,5.317,0.533,6.35,0.1C16.283-0.483,17.533-2.4,19.5-6c1.967-3.633,2.95-5.8,2.95-6.5c0-1.1-1.483-2.883-4.45-5.35
			c-2.8-2.367-4.8-3.7-6-4c-1-0.233-3.083,0.633-6.25,2.6c-3.1,1.967-4.95,3.5-5.55,4.6c-0.5,0.967-0.167,3.133,1,6.5
			C2.2-5.183,3.1-3.15,3.9-2.05z"/>
	</g>
</symbol>
<symbol  id="flash0.ai_x2F_Layer_3_x2F__x3C_Path_x3E__x5F_6" viewBox="0.011 -15.25 15.607 15.278">
	<g id="Layer_1_72_">
		<path style="fill-rule:evenodd;clip-rule:evenodd;fill:#1F1A1C;" d="M13-1.05c0.333-0.233,0.867-1.75,1.6-4.55
			c0.767-2.767,1.1-4.4,1-4.9c-0.167-0.733-1.467-1.733-3.9-3c-2.3-1.167-3.883-1.75-4.75-1.75c-0.733,0-2.034,0.95-3.9,2.85
			c-1.8,1.833-2.8,3.183-3,4.05c-0.2,0.733,0.367,2.15,1.7,4.25c1.133,1.833,2.067,3.083,2.8,3.75c0.434,0.367,1.784,0.467,4.05,0.3
			C10.9-0.25,12.367-0.583,13-1.05z"/>
	</g>
</symbol>
<symbol  id="flash0.ai_x2F_Layer_3_x2F__x3C_Path_x3E__x5F_60" viewBox="-0.031 -13.2 13.501 13.19">
	<g id="Layer_1_18_">
		<path style="fill-rule:evenodd;clip-rule:evenodd;fill:#1F1A1C;" d="M11.2-0.95c0.267-0.2,0.733-1.517,1.4-3.95
			c0.667-2.4,0.95-3.8,0.85-4.2c-0.133-0.633-1.25-1.5-3.35-2.6c-2-1-3.367-1.5-4.1-1.5c-0.633,0-1.75,0.817-3.35,2.45
			C1.083-9.183,0.2-8.017,0-7.25c-0.167,0.633,0.333,1.867,1.5,3.7C2.467-1.983,3.267-0.9,3.9-0.3C4.3,0,5.467,0.067,7.4-0.1
			C9.4-0.267,10.667-0.55,11.2-0.95z"/>
	</g>
</symbol>
<symbol  id="flash0.ai_x2F_Layer_3_x2F__x3C_Path_x3E__x5F_61" viewBox="0.028 -13.269 13.225 13.259">
	<g id="Layer_1_17_">
		<path style="fill-rule:evenodd;clip-rule:evenodd;fill:#1F1A1C;" d="M12.5-1.95c0.533-0.433,0.783-1.85,0.75-4.25
			c-0.033-2.267-0.233-3.75-0.6-4.45c-0.3-0.567-1.566-1.184-3.8-1.85c-2.167-0.667-3.633-0.9-4.4-0.7C3.783-13.033,2.9-12,1.8-10.1
			c-1,1.7-1.583,2.95-1.75,3.75C-0.083-5.883,0.4-4.8,1.5-3.1c1.067,1.7,1.917,2.717,2.55,3.05C4.383,0.083,5.8-0.117,8.3-0.65
			C10.767-1.217,12.167-1.65,12.5-1.95z"/>
	</g>
</symbol>
<symbol  id="flash0.ai_x2F_Layer_3_x2F__x3C_Path_x3E__x5F_62" viewBox="-0.006 -13.595 12.948 13.61">
	<g id="Layer_1_16_">
		<path style="fill-rule:evenodd;clip-rule:evenodd;fill:#1F1A1C;" d="M1.55-3.25c1.133,1.8,2.017,2.867,2.65,3.2
			C4.5,0.117,5.867-0.033,8.3-0.5c2.4-0.5,3.75-0.883,4.05-1.15c0.5-0.434,0.683-1.883,0.55-4.35c-0.1-2.367-0.333-3.9-0.7-4.6
			c-0.333-0.6-1.6-1.283-3.8-2.05c-2.133-0.767-3.566-1.067-4.3-0.9c-0.633,0.133-1.467,1.167-2.5,3.1C0.7-8.75,0.167-7.483,0-6.65
			C-0.067-6.15,0.45-5.017,1.55-3.25z"/>
	</g>
</symbol>
<symbol  id="flash0.ai_x2F_Layer_3_x2F__x3C_Path_x3E__x5F_63" viewBox="0.035 -10.807 10.765 10.801">
	<g id="Layer_1_15_">
		<path style="fill-rule:evenodd;clip-rule:evenodd;fill:#1F1A1C;" d="M10.2-1.55c0.4-0.367,0.6-1.534,0.6-3.5
			c-0.033-1.867-0.2-3.067-0.5-3.6c-0.233-0.467-1.267-0.967-3.1-1.5c-1.767-0.567-2.967-0.767-3.6-0.6
			c-0.5,0.1-1.217,0.933-2.15,2.5c-0.8,1.433-1.267,2.467-1.4,3.1c-0.1,0.367,0.3,1.25,1.2,2.65C2.117-1.133,2.8-0.317,3.3-0.05
			c0.267,0.133,1.417-0.034,3.45-0.5C8.783-0.983,9.933-1.317,10.2-1.55z"/>
	</g>
</symbol>
<symbol  id="flash0.ai_x2F_Layer_3_x2F__x3C_Path_x3E__x5F_64" viewBox="-0.021 -6.75 6.938 6.756">
	<g id="Layer_1_14_">
		<path style="fill-rule:evenodd;clip-rule:evenodd;fill:#1F1A1C;" d="M3.8-0.05c1.034-0.067,1.684-0.2,1.95-0.4
			C5.883-0.583,6.133-1.267,6.5-2.5c0.333-1.233,0.467-1.95,0.4-2.15C6.833-4.983,6.267-5.433,5.2-6C4.167-6.5,3.467-6.75,3.1-6.75
			c-0.333,0-0.917,0.417-1.75,1.25C0.55-4.7,0.1-4.1,0-3.7c-0.1,0.3,0.15,0.934,0.75,1.9C1.283-0.967,1.7-0.417,2-0.15
			C2.2,0.017,2.8,0.05,3.8-0.05z"/>
	</g>
</symbol>
<symbol  id="flash0.ai_x2F_Layer_3_x2F__x3C_Path_x3E__x5F_65" viewBox="-0.021 -6.8 6.938 6.806">
	<g id="Layer_1_13_">
		<path style="fill-rule:evenodd;clip-rule:evenodd;fill:#1F1A1C;" d="M3.8-0.05C4.833-0.117,5.483-0.267,5.75-0.5
			c0.133-0.1,0.383-0.767,0.75-2c0.333-1.233,0.467-1.967,0.4-2.2C6.833-5.033,6.267-5.467,5.2-6C4.167-6.533,3.45-6.8,3.05-6.8
			c-0.3,0-0.867,0.417-1.7,1.25C0.55-4.717,0.1-4.117,0-3.75c-0.1,0.333,0.15,0.967,0.75,1.9c0.5,0.8,0.917,1.367,1.25,1.7
			C2.2,0.017,2.8,0.05,3.8-0.05z"/>
	</g>
</symbol>
<symbol  id="flash0.ai_x2F_Layer_3_x2F__x3C_Path_x3E__x5F_66" viewBox="-0.017 -9.45 9.679 9.423">
	<g id="Layer_1_12_">
		<path style="fill-rule:evenodd;clip-rule:evenodd;fill:#1F1A1C;" d="M5.35-0.1c1.4-0.1,2.3-0.283,2.7-0.55
			c0.2-0.133,0.534-1.083,1-2.85c0.467-1.733,0.667-2.733,0.6-3c-0.1-0.467-0.9-1.083-2.4-1.85c-1.433-0.733-2.417-1.1-2.95-1.1
			c-0.466,0-1.267,0.583-2.4,1.75C0.8-6.6,0.167-5.767,0-5.2c-0.1,0.434,0.25,1.317,1.05,2.65c0.767,1.2,1.367,1.966,1.8,2.3
			C3.117-0.017,3.95,0.033,5.35-0.1z"/>
	</g>
</symbol>
<symbol  id="flash0.ai_x2F_Layer_3_x2F__x3C_Path_x3E__x5F_67" viewBox="-0.02 -7.5 7.734 7.506">
	<g id="Layer_1_11_">
		<path style="fill-rule:evenodd;clip-rule:evenodd;fill:#1F1A1C;" d="M4.25-0.05C5.35-0.117,6.067-0.267,6.4-0.5
			c0.167-0.133,0.434-0.883,0.8-2.25c0.4-1.367,0.566-2.167,0.5-2.4c-0.1-0.367-0.75-0.867-1.95-1.5C4.617-7.217,3.833-7.5,3.4-7.5
			c-0.367,0-1,0.467-1.9,1.4C0.6-5.2,0.1-4.533,0-4.1C-0.1-3.733,0.183-3.033,0.85-2c0.6,0.933,1.066,1.55,1.4,1.85
			C2.45,0.017,3.117,0.05,4.25-0.05z"/>
	</g>
</symbol>
<symbol  id="flash0.ai_x2F_Layer_3_x2F__x3C_Path_x3E__x5F_68" viewBox="-0.012 -5.75 5.867 5.733">
	<g id="Layer_1_10_">
		<path style="fill-rule:evenodd;clip-rule:evenodd;fill:#1F1A1C;" d="M5.5-2.15C5.767-3.183,5.883-3.8,5.85-4
			C5.783-4.267,5.3-4.633,4.4-5.1C3.533-5.533,2.933-5.75,2.6-5.75c-0.267,0-0.75,0.35-1.45,1.05C0.45-4,0.067-3.483,0-3.15
			c-0.067,0.267,0.15,0.8,0.65,1.6c0.434,0.7,0.783,1.167,1.05,1.4c0.167,0.133,0.683,0.167,1.55,0.1
			C4.117-0.117,4.667-0.233,4.9-0.4C5-0.5,5.2-1.083,5.5-2.15z"/>
	</g>
</symbol>
<symbol  id="flash0.ai_x2F_Layer_3_x2F__x3C_Path_x3E__x5F_69" viewBox="-0.004 -4.35 4.461 4.34">
	<g id="Layer_1_9_">
		<path style="fill-rule:evenodd;clip-rule:evenodd;fill:#1F1A1C;" d="M3.75-0.3C3.817-0.367,3.967-0.8,4.2-1.6
			C4.4-2.4,4.483-2.867,4.45-3c-0.034-0.233-0.4-0.517-1.1-0.85C2.717-4.183,2.267-4.35,2-4.35c-0.2,0-0.567,0.267-1.1,0.8
			C0.367-3.05,0.067-2.667,0-2.4c-0.033,0.2,0.133,0.6,0.5,1.2c0.333,0.534,0.6,0.9,0.8,1.1C1.433,0,1.817,0.017,2.45-0.05
			C3.117-0.083,3.55-0.167,3.75-0.3z"/>
	</g>
</symbol>
<symbol  id="flash0.ai_x2F_Layer_3_x2F__x3C_Path_x3E__x5F_7" viewBox="0.013 -16.35 16.754 16.35">
	<g id="Layer_1_71_">
		<path style="fill-rule:evenodd;clip-rule:evenodd;fill:#1F1A1C;" d="M13.95-1.15C14.283-1.383,14.867-3,15.7-6
			c0.8-3,1.15-4.75,1.05-5.25c-0.2-0.8-1.6-1.867-4.2-3.2c-2.466-1.267-4.167-1.9-5.1-1.9c-0.8,0-2.184,1-4.15,3
			C1.367-11.383,0.283-9.933,0.05-9c-0.2,0.8,0.417,2.333,1.85,4.6c1.233,2,2.233,3.333,3,4C5.367,0,6.817,0.1,9.25-0.1
			C11.683-0.3,13.25-0.65,13.95-1.15z"/>
	</g>
</symbol>
<symbol  id="flash0.ai_x2F_Layer_3_x2F__x3C_Path_x3E__x5F_70" viewBox="0.035 -4.4 4.472 4.39">
	<g id="Layer_1_8_">
		<path style="fill-rule:evenodd;clip-rule:evenodd;fill:#1F1A1C;" d="M3.75-0.3C3.85-0.367,4-0.8,4.2-1.6
			c0.233-0.8,0.333-1.283,0.3-1.45C4.467-3.25,4.1-3.533,3.4-3.9C2.733-4.233,2.267-4.4,2-4.4c-0.2,0-0.567,0.267-1.1,0.8
			C0.4-3.067,0.117-2.667,0.05-2.4C-0.017-2.2,0.133-1.8,0.5-1.2c0.333,0.534,0.617,0.9,0.85,1.1C1.45,0,1.833,0.017,2.5-0.05
			C3.167-0.083,3.583-0.167,3.75-0.3z"/>
	</g>
</symbol>
<symbol  id="flash0.ai_x2F_Layer_3_x2F__x3C_Path_x3E__x5F_71" viewBox="-0.023 -11.85 12.183 11.867">
	<g id="Layer_1_7_">
		<path style="fill-rule:evenodd;clip-rule:evenodd;fill:#1F1A1C;" d="M6.7-0.05c1.767-0.167,2.9-0.417,3.4-0.75
			c0.233-0.2,0.65-1.383,1.25-3.55c0.6-2.167,0.867-3.433,0.8-3.8C12.017-8.75,11-9.533,9.1-10.5c-1.767-0.9-3-1.35-3.7-1.35
			c-0.566,0-1.566,0.733-3,2.2C1-8.217,0.2-7.167,0-6.5c-0.133,0.567,0.317,1.667,1.35,3.3c0.9,1.467,1.633,2.45,2.2,2.95
			C3.883,0.017,4.933,0.083,6.7-0.05z"/>
	</g>
</symbol>
<symbol  id="flash0.ai_x2F_Layer_3_x2F__x3C_Path_x3E__x5F_72" viewBox="-0.019 -7.9 8.083 7.9">
	<g id="Layer_1_6_">
		<path style="fill-rule:evenodd;clip-rule:evenodd;fill:#1F1A1C;" d="M6.7-0.55C6.867-0.683,7.15-1.467,7.55-2.9
			c0.4-1.434,0.567-2.283,0.5-2.55c-0.1-0.4-0.767-0.917-2-1.55c-1.2-0.6-2.033-0.9-2.5-0.9c-0.367,0-1.033,0.483-2,1.45
			C0.617-5.483,0.1-4.783,0-4.35c-0.1,0.367,0.2,1.1,0.9,2.2C1.5-1.183,1.983-0.533,2.35-0.2C2.583,0,3.283,0.05,4.45-0.05
			C5.617-0.15,6.367-0.317,6.7-0.55z"/>
	</g>
</symbol>
<symbol  id="flash0.ai_x2F_Layer_3_x2F__x3C_Path_x3E__x5F_73" viewBox="-0.019 -7.85 8.083 7.85">
	<g id="Layer_1_5_">
		<path style="fill-rule:evenodd;clip-rule:evenodd;fill:#1F1A1C;" d="M6.7-0.55C6.867-0.683,7.15-1.467,7.55-2.9
			c0.4-1.434,0.567-2.267,0.5-2.5c-0.1-0.4-0.767-0.917-2-1.55c-1.167-0.6-1.983-0.9-2.45-0.9c-0.4,0-1.067,0.483-2,1.45
			C0.667-5.467,0.133-4.767,0-4.3c-0.1,0.367,0.2,1.1,0.9,2.2c0.6,0.967,1.083,1.6,1.45,1.9C2.583,0,3.283,0.05,4.45-0.05
			C5.617-0.15,6.367-0.317,6.7-0.55z"/>
	</g>
</symbol>
<symbol  id="flash0.ai_x2F_Layer_3_x2F__x3C_Path_x3E__x5F_74" viewBox="-0.016 -9.7 9.928 9.695">
	<g id="Layer_1_4_">
		<path style="fill-rule:evenodd;clip-rule:evenodd;fill:#1F1A1C;" d="M5.45-0.05C6.883-0.183,7.817-0.4,8.25-0.7
			c0.2-0.133,0.533-1.1,1-2.9c0.5-1.767,0.717-2.8,0.65-3.1C9.8-7.167,8.967-7.8,7.4-8.6c-1.467-0.733-2.467-1.1-3-1.1
			c-0.467,0-1.283,0.6-2.45,1.8C0.817-6.767,0.167-5.917,0-5.35c-0.1,0.467,0.267,1.367,1.1,2.7c0.733,1.2,1.333,2,1.8,2.4
			C3.167-0.017,4.017,0.05,5.45-0.05z"/>
	</g>
</symbol>
<symbol  id="flash0.ai_x2F_Layer_3_x2F__x3C_Path_x3E__x5F_75" viewBox="-0.019 -7.9 8.083 7.9">
	<g id="Layer_1_3_">
		<path style="fill-rule:evenodd;clip-rule:evenodd;fill:#1F1A1C;" d="M6.7-0.55C6.867-0.683,7.15-1.467,7.55-2.9
			c0.4-1.434,0.567-2.283,0.5-2.55c-0.1-0.4-0.767-0.917-2-1.55C4.883-7.6,4.067-7.9,3.6-7.9c-0.367,0-1.033,0.483-2,1.45
			C0.667-5.517,0.133-4.817,0-4.35c-0.1,0.367,0.2,1.1,0.9,2.2C1.5-1.183,1.983-0.533,2.35-0.2C2.583,0,3.283,0.05,4.45-0.05
			C5.617-0.15,6.367-0.317,6.7-0.55z"/>
	</g>
</symbol>
<symbol  id="flash0.ai_x2F_Layer_3_x2F__x3C_Path_x3E__x5F_76" viewBox="0.025 -10.75 10.986 10.767">
	<g id="Layer_1_2_">
		<path style="fill-rule:evenodd;clip-rule:evenodd;fill:#1F1A1C;" d="M10.3-3.95c0.534-1.966,0.767-3.117,0.7-3.45
			c-0.1-0.533-1.017-1.233-2.75-2.1c-1.633-0.833-2.75-1.25-3.35-1.25c-0.5,0-1.4,0.65-2.7,1.95C0.933-7.5,0.217-6.55,0.05-5.95
			C-0.083-5.417,0.317-4.4,1.25-2.9c0.8,1.3,1.467,2.183,2,2.65c0.3,0.267,1.25,0.333,2.85,0.2s2.617-0.367,3.05-0.7
			C9.383-0.917,9.767-1.983,10.3-3.95z"/>
	</g>
</symbol>
<symbol  id="flash0.ai_x2F_Layer_3_x2F__x3C_Path_x3E__x5F_8" viewBox="-0.023 -17.61 17.79 17.614">
	<g id="Layer_1_70_">
		<path style="fill-rule:evenodd;clip-rule:evenodd;fill:#1F1A1C;" d="M0-6.3c0.067,0.667,1.117,1.85,3.15,3.55
			C5.217-1.05,6.717-0.133,7.65,0c0.434,0.067,2.117-0.75,5.05-2.45c2.933-1.733,4.55-2.85,4.85-3.35
			c0.467-0.767,0.184-2.65-0.85-5.65c-0.967-2.867-1.817-4.65-2.55-5.35c-0.6-0.6-2.433-0.867-5.5-0.8
			c-3,0.033-4.95,0.317-5.85,0.85c-0.767,0.467-1.466,2.133-2.1,5C0.133-9.25-0.1-7.433,0-6.3z"/>
	</g>
</symbol>
<symbol  id="flash0.ai_x2F_Layer_3_x2F__x3C_Path_x3E__x5F_9" viewBox="-0.02 -13.153 12.781 13.153">
	<g id="Layer_1_69_">
		<path style="fill-rule:evenodd;clip-rule:evenodd;fill:#1F1A1C;" d="M10.55-2.75c1.333-1.7,2.067-2.9,2.2-3.6
			c0.1-0.6-0.467-1.8-1.7-3.6c-1.233-1.733-2.183-2.767-2.85-3.1c-0.567-0.267-1.817-0.017-3.75,0.75
			c-1.667,0.633-2.833,1.2-3.5,1.7C0.583-10.3,0.3-9.217,0.1-7.35C-0.1-5.45-0.05-4.2,0.25-3.6c0.133,0.3,1.283,0.967,3.45,2
			C5.867-0.533,7.15,0,7.55,0C8.183-0.033,9.183-0.95,10.55-2.75z"/>
	</g>
</symbol>
<g>
	<g>
		
			<linearGradient id="SVGID_1_" gradientUnits="userSpaceOnUse" x1="-23.5088" y1="-246.1748" x2="147.4162" y2="-246.1748" gradientTransform="matrix(5.850519e-006 1 -1 -0.001 -3.867736e-004 -7.069856e-005)">
			<stop  offset="0" style="stop-color:#171517"/>
			<stop  offset="0.1686" style="stop-color:#1D181D"/>
			<stop  offset="0.4" style="stop-color:#2D212F"/>
			<stop  offset="0.5686" style="stop-color:#3D2940"/>
			<stop  offset="1" style="stop-color:#3A4063"/>
		</linearGradient>
		<polygon style="fill-rule:evenodd;clip-rule:evenodd;fill:url(#SVGID_1_);" points="492.25,127 0.4,127 0.1,14.9 492.25,13.25 		
			"/>
		<path style="fill-rule:evenodd;clip-rule:evenodd;fill:#20141B;" d="M492.25,2.25c-0.134,2.2-0.167,4.733-0.1,7.6
			c0.066,4.833,0.1,7.367,0.1,7.6v5.75c-1.1,0-2.684,0.267-4.75,0.8c-2.4,0.633-3.75,1.267-4.05,1.9
			c0.066-0.133,0.116-0.4,0.149-0.8c0.067-0.4,0.117-0.667,0.15-0.8c-1.4,0.167-2.717,0.7-3.95,1.6
			c-0.033-0.767,0.05-1.383,0.25-1.85c-1.267,0.534-3.083,1.667-5.45,3.4c-0.1-0.2-0.3-0.467-0.6-0.8
			c-0.366-0.333-0.583-0.566-0.65-0.7c-0.166,0.566-0.416,1.433-0.75,2.6c-0.666-0.267-1.433-0.8-2.3-1.6
			c-0.066,0.933,0.05,1.783,0.351,2.55c-0.7-0.333-1.434-0.867-2.2-1.6c-0.867-0.867-1.517-1.517-1.95-1.95
			c-0.667,1.7-1.434,2.783-2.3,3.25c0.066-0.7,0.2-1.25,0.399-1.65c-0.699,0.3-1.566,0.784-2.6,1.45
			c-1.5,0.967-2.316,1.483-2.45,1.55c0.4-0.767,0.95-1.566,1.65-2.4c-2.5,1.033-4.467,1.934-5.9,2.7
			c-2.666,1.367-4.233,2.717-4.7,4.05l0.351-1.2c-1.2,1.167-2.117,2.05-2.75,2.65c0.033-0.733,0.149-1.833,0.35-3.3
			c-0.666,1.434-2.434,2.917-5.3,4.45c-3.533,1.867-5.65,3.133-6.35,3.8c-0.034-0.867,0.25-2.1,0.85-3.7
			c-1.5,1.4-2.616,2.45-3.35,3.15c-1.233,1.2-2.217,2.35-2.95,3.45c0-1.067,0-1.867,0-2.4c0-0.966-0.066-1.75-0.2-2.35
			c-0.467,0.533-0.934,1.267-1.4,2.2c-0.466,1.033-0.833,1.8-1.1,2.3c0.134-1.867-0.733-3.567-2.6-5.1c-2.367-1.6-4.034-2.8-5-3.6
			c0.399,0.6,0.683,1.45,0.85,2.55c0.2,1.534,0.333,2.434,0.4,2.7c-1.2-0.567-2.334-1.4-3.4-2.5c-1.267-1.3-1.85-2.5-1.75-3.6
			c-1.1,0.8-1.866,1.8-2.3,3c-0.367-0.5-0.5-1.083-0.4-1.75c0.066-0.6,0.3-1.183,0.7-1.75c-1.4-0.5-3.55-0.383-6.45,0.35
			c-3.133,0.833-4.483,1.983-4.05,3.45c-0.866-1-1.283-2-1.25-3c-0.233,0.933-1.066,1.9-2.5,2.9c-1.767,1.233-2.816,2.05-3.15,2.45
			c0.334-1.066,0.601-1.833,0.801-2.3c-1.634,0.8-2.834,1.467-3.601,2c-1.366,0.9-2.149,1.883-2.35,2.95c0-0.733,0.1-1.767,0.3-3.1
			c-0.667,0.367-1.316,0.917-1.95,1.65c-0.566,0.7-0.95,1.35-1.149,1.95c-0.301-0.934-0.467-1.8-0.5-2.6
			c-0.967,2.267-1.534,4.35-1.7,6.25c-3.101-3.1-5.033-5.434-5.8-7c0.267,2.133,0.716,3.733,1.35,4.8c-1.8-1.1-3.15-2.45-4.05-4.05
			c-1.033-1.867-1.2-3.7-0.5-5.5c-1.2,1-1.7,2.25-1.5,3.75c-0.467-0.934-0.75-1.934-0.851-3c-0.133-1.267,0.101-2.233,0.7-2.9
			c-2.267,0-3.816,0.083-4.649,0.25c-1.781,0.337-2.998,1.071-3.65,2.2c0.095-0.193,0.194-0.426,0.3-0.7
			c0.2-0.367,0.434-0.667,0.7-0.9c-0.366,0.233-1.05,0.583-2.05,1.05c-0.812,0.406-1.445,0.764-1.9,1.075
			c0.204-0.553,0.57-1.328,1.101-2.325c-1.467,0.767-2.65,1.3-3.551,1.6c-1.333,0.466-2.616,0.7-3.85,0.7
			c0.733,0.967,1.6,1.467,2.6,1.5c-1.233,0.567-2.683,0.75-4.35,0.55c-1-0.1-2.467-0.45-4.4-1.05c0.034,0.067,0.733,0.934,2.101,2.6
			c-2.08-0.498-3.655-1.214-4.726-2.15c0.862,0.935,1.221,2.084,1.075,3.45c-0.566-0.8-1.666-1.667-3.3-2.6
			c-1.6-0.934-2.9-1.467-3.9-1.6c-0.899-0.1-1.366-0.117-1.399-0.05c-0.101,0.434-0.367,0.967-0.8,1.6
			c-0.5,0.767-0.917,1.4-1.25,1.9c-0.579,0.9-0.862,1.534-0.851,1.9c-0.065-1.104-0.065-1.838,0-2.2
			c-0.6,1.767-1.733,3.583-3.399,5.45c0.233-0.967,0.383-2.2,0.449-3.7c-0.533,1.3-1.583,2.6-3.149,3.9c-0.233,0.2-1.617,1.2-4.15,3
			c0.5-0.566,1.017-1.4,1.55-2.5c0.334-0.6,0.801-1.517,1.4-2.75c-0.467,0.4-1.15,0.917-2.05,1.55c-0.967,0.667-1.634,1.15-2,1.45
			c0.467-0.667,0.733-1.683,0.8-3.05c-1.1,0.867-2.184,1.233-3.25,1.1c-0.233,0.033-0.316,0.1-0.25,0.2
			c0.066,0.067,0.2,0.167,0.4,0.3c-0.967,0.3-2.434,0.133-4.4-0.5c0.533,0.833,1.116,1.45,1.75,1.85
			c-2.267-0.133-3.684-0.267-4.25-0.4c-1.434-0.3-2.7-0.933-3.8-1.9c0.366,0.9,0.616,1.7,0.75,2.4c-0.5-0.267-1.134-0.733-1.9-1.4
			c-0.899-0.767-1.517-1.267-1.85-1.5c0.166,0.233,0.416,0.667,0.75,1.3c-0.7-0.233-1.483-0.633-2.351-1.2
			c-0.933-0.667-1.666-1.167-2.199-1.5c0.566,1.066,1.366,2,2.399,2.8c-1.934,0.2-4.283-0.217-7.05-1.25
			c-2.7-1.033-4.75-2.25-6.15-3.65c-0.1,0.833,0.017,1.683,0.351,2.55c0.333,0.8,0.8,1.483,1.399,2.05
			c-0.966-0.4-1.949-1.133-2.949-2.2c-0.4-0.4-1.217-1.383-2.45-2.95c0.366,0.7,0.684,1.783,0.95,3.25
			c-2.733-2.467-4.867-3.667-6.4-3.6c0.259,0.904,0.875,1.404,1.85,1.5c-3.56-0.229-6.034-0.93-7.425-2.1
			c0.362,0.523,0.704,1.207,1.025,2.05c-2.634-1.833-4.316-2.917-5.05-3.25c-2.067-1.033-3.967-1.267-5.7-0.7
			c0.6-0.7,1.399-1.083,2.399-1.15c-1.166-0.6-2.449-0.95-3.85-1.05c-0.467-0.033-1.833-0.017-4.1,0.05
			c0.267-0.233,0.683-0.6,1.25-1.1c-2.267,0.133-4.067,0.617-5.4,1.45c0.2-0.566,0.616-1.2,1.25-1.9c0.366-0.4,0.934-0.983,1.7-1.75
			c-2.233,0.434-3.934,0.817-5.101,1.15c-2.066,0.567-3.5,1.434-4.3,2.6c0-0.167-0.083-0.967-0.25-2.4
			c-0.533,0.3-0.883,0.717-1.05,1.25c-0.134,0.533-0.033,1.083,0.3,1.65c-2.366-0.5-4.7-1.25-7-2.25
			c0.267,0.867,0.717,1.783,1.351,2.75c0.633,0.934,1.283,1.633,1.949,2.1c-4.726-0.066-7.734-1.116-9.024-3.15
			c0.198,0.33,0.422,1.046,0.675,2.15c-0.567,0-1.35-0.333-2.35-1c-0.9-0.6-1.733-0.817-2.5-0.65c-2.033,0.367-3.8,2.3-5.3,5.8
			c-0.3-0.033-0.633-0.15-1-0.35c-0.463-0.264-0.713-0.531-0.75-0.8c0.167,1.5,0.267,2.3,0.3,2.4c-0.633-0.167-1.217-0.566-1.75-1.2
			c-0.533-0.833-0.95-1.45-1.25-1.85c-0.033,1.267-0.75,2.566-2.15,3.9c-1.9,1.767-2.983,2.883-3.25,3.35
			c-0.1-1-0.067-1.867,0.1-2.6c-1.2,1.1-2.083,1.95-2.65,2.55c-0.937,1.034-1.545,2.017-1.825,2.95
			c-0.415-1.563-0.573-3.113-0.475-4.65c-1.933,4.133-3.933,7.583-6,10.35c0.367-0.934,0.533-2.017,0.5-3.25
			c-0.033-0.733-0.15-1.833-0.35-3.3c-0.267,0.367-0.583,0.983-0.95,1.85c-0.333,0.867-0.617,1.45-0.85,1.75
			c-0.167-1.6-0.267-2.467-0.3-2.6c-0.167-0.933-0.434-1.75-0.8-2.45c-0.033-0.1-0.55-0.9-1.55-2.4c-0.6-0.9-0.934-1.783-1-2.65
			c-1.033,1.233-1.5,2.7-1.4,4.4c-0.667-0.566-0.983-1.5-0.95-2.8c0.033-1.867,0.033-2.883,0-3.05c-1.933,0.4-3.767,1.517-5.5,3.35
			c0.167-1.367,0.617-2.433,1.35-3.2c-2.2,1.2-3.767,2.117-4.7,2.75c-1.566,1.033-2.933,2.2-4.1,3.5c0.1-1.367,0.567-2.517,1.4-3.45
			c-1.267,0.4-2.6,1.1-4,2.1c-1.567,1.267-2.75,2.217-3.55,2.85c0.133-1.033,0.317-1.85,0.55-2.45c-0.8,0.9-2.6,2.583-5.4,5.05
			c0.167-0.867,0.333-1.517,0.5-1.95c-0.533,0.633-1.4,1.05-2.6,1.25c-0.133,0-1.2,0.05-3.2,0.15c0.367,0.833,1.083,1.684,2.15,2.55
			c-1.433,0.933-3.316,1.316-5.65,1.15c-2.333-0.2-4.1-0.883-5.3-2.05c0.267,1.133,0.466,1.867,0.6,2.2c0.3,0.833,0.7,1.45,1.2,1.85
			c-0.967-0.1-1.883-0.467-2.75-1.1c-0.967-0.667-1.517-1.433-1.65-2.3c-0.967,1.5-3.417,2.517-7.35,3.05
			c-3.508,0.515-5.583,1.523-6.225,3.025c0.456-1.174,0.748-2.033,0.875-2.575c-2.433,0.833-3.917,1.367-4.45,1.6
			c-1.733,0.8-2.95,1.733-3.65,2.8c-0.033-0.267,0-1.417,0.1-3.45c-0.967,0.5-1.617,1.434-1.95,2.8
			c-0.333,1.433-0.083,2.55,0.75,3.35c-1.733-0.5-3.5-1.883-5.3-4.15c-1.633-2-2.767-3.967-3.4-5.9c-0.333,0.5-0.433,1.2-0.3,2.1
			c0.066,0.5,0.2,1.25,0.4,2.25c-1.2-0.934-2.133-2.317-2.8-4.15c-0.6-1.7-0.867-3.383-0.8-5.05c-0.867,1-1.117,2.083-0.75,3.25
			c-0.733-1.333-1-2.833-0.8-4.5c0.1-0.867,0.5-2.383,1.2-4.55c-0.5,0.167-1,0.433-1.5,0.8c-0.566,0.434-0.95,0.867-1.15,1.3
			c0.267-0.633,0.483-1.917,0.65-3.85c-0.633,1.2-2.383,2.1-5.25,2.7c-3.167,0.667-5.15,1.367-5.95,2.1
			c0.233-0.433,0.583-1.117,1.05-2.05c-2.567,1.133-4.483,2.333-5.75,3.6c0.6-0.9,1.167-1.95,1.7-3.15
			c-1.633,0.733-2.967,1.434-4,2.1c-1.167,0.833-2.25,1.833-3.25,3l0.1-0.95c-0.3,0.2-1.05,0.783-2.25,1.75
			c0.233-1.067,0.333-1.983,0.3-2.75c-0.8,0.9-2.117,1.483-3.95,1.75c-2.1,0.233-3.6,0.466-4.5,0.7c0.3-0.433,0.567-1.133,0.8-2.1
			c-0.934,0.2-1.85,0.684-2.75,1.45c0.066-0.933,0.15-1.583,0.25-1.95c-1.267,0.667-2.35,1.7-3.25,3.1
			c-0.467-1.8-1.583-3.933-3.35-6.4c-0.1,0.833-0.05,1.75,0.15,2.75c-2.808-3.139-4.466-6.047-4.975-8.725
			c-0.207,0.419-0.499,1.444-0.875,3.075c-0.433-1.4-0.783-2.45-1.05-3.15c-0.467-1.233-1.1-2.117-1.9-2.65
			c0.066,0.3,0.017,0.75-0.15,1.35c-0.133,0.633-0.183,1.067-0.15,1.3c-0.1-0.467-0.3-1.067-0.6-1.8c-0.4-0.933-0.65-1.533-0.75-1.8
			c-0.066,1.233-0.466,2.35-1.2,3.35c-0.233,0.367-1.05,1.283-2.45,2.75c0.033-0.4,0-0.833-0.1-1.3l-0.1-0.85
			c-0.7,0.733-1.25,1.733-1.65,3c-0.2-0.8-0.483-1.633-0.85-2.5c-1.434,1.633-2.217,3.067-2.35,4.3c-0.4-0.434-1.2-1.55-2.4-3.35
			c-0.967-1.467-1.917-2.55-2.85-3.25c0.733,1.033,1.05,2.167,0.95,3.4c-0.633-0.967-1.867-1.667-3.7-2.1
			c-1.785-0.431-3.019-0.973-3.7-1.625c0.657,0.691,1.341,1.5,2.05,2.425c-4.267-0.767-7.333-1.9-9.2-3.4
			c0.033,0.667,0.167,1.35,0.4,2.05c0.3,0.833,0.7,1.4,1.2,1.7c-2.4-1.367-4.05-2.35-4.95-2.95c-1.8-1.133-3.367-2.283-4.7-3.45
			c0.267,0.333,0.7,1.217,1.3,2.65c0.467,1.133,1.017,1.883,1.65,2.25c-1.667-0.667-3.383-1.75-5.15-3.25
			c-1.967-1.8-3.483-3.15-4.55-4.05c0.066,0.5,0.4,1.533,1,3.1c-1.434-1.8-3.167-3.133-5.2-4c-2.233-0.933-4.383-1.033-6.45-0.3
			c0.477-0.731,0.911-1.265,1.3-1.6c-1.361-0.056-3.062,0.311-5.1,1.1c0.133-0.133,0.617-0.833,1.45-2.1
			c-1.2-0.1-2.35-0.05-3.45,0.15c-1.433,0.233-2.433,0.667-3,1.3c-0.367-1.033-1.183-1.933-2.45-2.7
			c-1.7-1.067-2.733-1.783-3.1-2.15c0.1,0.7,0.6,1.566,1.5,2.6c-0.5-0.233-1.717-0.667-3.65-1.3c-0.533-0.2-1.167-0.517-1.9-0.95
			c-1.033-0.667-1.617-1.033-1.75-1.1c0.133,0.233,0.3,0.6,0.5,1.1c0.233,0.4,0.483,0.667,0.75,0.8
			c-0.333-0.133-0.783-0.217-1.35-0.25c-0.833-0.067-1.3-0.117-1.4-0.15c-0.8-0.133-2.133-0.167-4-0.1c-0.033-2.2-0.05-4.2-0.05-6
			c-0.033-3.4,0.017-6.65,0.15-9.75c0.5-1.033,1.683-1.467,3.55-1.3c3.9,0.367,5.9,0.55,6,0.55c8.7-0.2,17.483-0.767,26.35-1.7
			c8.867-0.933,16-1.467,21.4-1.6c10.934-0.3,23.534-0.316,37.8-0.05c8.333,0.133,21.767,0.4,40.3,0.8
			c4.7,0.067,12.35-0.2,22.95-0.8c9.8-0.6,17.45-0.783,22.95-0.55c45.9,1.933,91.316,2.6,136.25,2c41.934-0.5,77.917-1.4,107.95-2.7
			c4.767-0.2,12.116,0.617,22.05,2.45c9.667,1.767,16.983,2.483,21.95,2.15c2.634-0.167,6.35-0.9,11.15-2.2
			C485.934,3.317,489.717,2.517,492.25,2.25z"/>
		<path style="fill-rule:evenodd;clip-rule:evenodd;fill:#60B5B1;" d="M486.4,4.2c2.166-0.8,3.633-1.117,4.399-0.95
			c1,0.2,1.483,1.217,1.45,3.05c-0.033,3.5-0.017,7.733,0.05,12.7l-3.1,0.15c-0.634,0.067-1.267,0.233-1.9,0.5
			c-0.7,0.267-1.217,0.617-1.55,1.05c0.134-0.7,0.55-1.317,1.25-1.85c-1.434,0.233-2.866,0.733-4.3,1.5
			c-2.841,1.619-4.241,2.827-4.2,3.625c-0.064-0.93,0.035-2.238,0.3-3.925c-0.733,0.267-1.833,0.85-3.3,1.75
			c-0.033-0.433-0.05-0.75-0.05-0.95c0-0.333,0.1-0.65,0.3-0.95c-0.8,0.467-1.684,1.15-2.65,2.05c0-0.034,0.051-0.75,0.15-2.15
			c-0.733,1-2.1,1.833-4.1,2.5c-2.101,0.733-3.483,1.45-4.15,2.15c-0.233-0.733-0.25-1.6-0.05-2.6c-0.867,0.8-1.45,1.633-1.75,2.5
			c-0.2-0.4-0.25-0.817-0.15-1.25c0.063-0.441,0.246-0.808,0.55-1.1c-0.879,0.808-2.429,1.391-4.649,1.75
			c-2.834,0.467-4.517,0.8-5.05,1c0.033,0.033,0.283,0.167,0.75,0.4c0.267,0.133,0.533,0.217,0.8,0.25
			c-1.434-0.033-2.517-0.033-3.25,0c-1.267,0.033-2.267,0.2-3,0.5c1.066,0.133,1.883,0.2,2.45,0.2c-3.567,0.533-6.684,1.2-9.351,2
			c1.207,0.217,2.257,0.191,3.15-0.075c-2.436,0.8-4.285,1.509-5.55,2.125c-2.334,1.1-3.784,2.434-4.351,4
			c-0.1-0.833,0-1.633,0.3-2.4c-1.966,1.267-3.399,3.3-4.3,6.1c0.066-0.733,0.017-1.567-0.149-2.5c-0.233-1.067-0.4-1.867-0.5-2.4
			c-1.134,2.3-1.917,3.716-2.351,4.25c0.233-1.534,0.117-2.733-0.35-3.6c-0.434-0.8-1.351-1.617-2.75-2.45
			c0.733,0.767,1.116,1.667,1.149,2.7c-0.5-0.867-1.633-1.95-3.399-3.25c-1.8-1.333-3-2.483-3.601-3.45
			c0.267,1.3,0.867,2.45,1.801,3.45c-1.5-0.4-2.817-1.333-3.95-2.8c-1.733-2.167-2.767-3.4-3.101-3.7
			c0.101,0.4,0.483,1.483,1.15,3.25c-1.9-1.533-3.884-2.233-5.95-2.1c-2.267,0.167-4.033,1.367-5.3,3.6
			c0.267-0.833,1.116-1.967,2.55-3.4c-3.366,1.667-5.316,2.716-5.85,3.15c-1.898,1.518-2.523,3.335-1.875,5.45
			c-0.581-1.698-0.606-3.281-0.075-4.75c-2.467,2.567-4.4,4.417-5.8,5.55c0.333-0.5,0.733-1.217,1.2-2.15
			c0.5-1.067,0.866-1.8,1.1-2.2c-0.5,0.567-1.517,1.233-3.05,2c-1.566,0.767-2.65,1.433-3.25,2c0.566-1.067,0.883-2.2,0.95-3.4
			c-1.867,1.233-3.017,2.083-3.45,2.55c-1.066,1.1-1.5,2.383-1.3,3.85c-1.134-1.267-2.084-2.967-2.851-5.1
			c0.14,1.756,0.54,3.839,1.2,6.25c-1.5-1.867-2.55-3.517-3.15-4.95c-0.833-1.934-1.083-3.85-0.75-5.75
			c-0.966,1.3-1.399,2.55-1.3,3.75c-1.066-1.6-0.916-3.833,0.45-6.7c1.095-2.388,2.486-4.329,4.175-5.825
			c-0.57,0.488-1.513,0.88-2.825,1.175c-1.733,0.4-2.75,0.65-3.05,0.75c-0.967,0.4-2.017,1.1-3.149,2.1l-2.851,2.55
			c0.066-1,0.267-1.733,0.601-2.2c-0.534,0.567-1.517,1.383-2.95,2.45s-2.4,1.867-2.9,2.4c0.101-0.133,0.566-1.05,1.4-2.75
			c-1.634,1.467-3.617,2.983-5.95,4.55c0.2-0.367,0.467-1,0.8-1.9c-1.366,1.367-3.133,2.184-5.3,2.45c-2.3,0.3-4.15-0.183-5.55-1.45
			c0.1,0.2,0.25,0.567,0.45,1.1c0.133,0.434,0.267,0.733,0.399,0.9c-0.767-0.033-1.633-0.45-2.6-1.25
			c-1.033-0.933-1.816-1.583-2.351-1.95c0.5,1.066,0.767,1.633,0.801,1.7c-1.567-1-3.101-1.667-4.601-2
			c-1.5-0.333-3.149-0.383-4.95-0.15c1.334,1.6,2.051,3,2.15,4.2c0.066,0.767-0.184,1.733-0.75,2.9
			c-0.617,1.17-0.935,2.02-0.95,2.55v-2.55c-0.5,1.833-1.5,3.517-3,5.05c0.2-0.466,0.3-1.05,0.3-1.75c0-0.8,0-1.417,0-1.85
			c-0.966,2.333-1.8,4.65-2.5,6.95c-0.3-1.566-1.183-3.25-2.649-5.05c0,0.833,0.05,2.066,0.149,3.7
			c-1.1-2.133-3.083-3.483-5.949-4.05c0.566,1.4,1.316,2.217,2.25,2.45c-3.067-0.434-6.367-1.467-9.9-3.1
			c0.2,0.367,0.35,0.9,0.45,1.6l-2.101-1.3l0.101,2.65c-0.467-0.733-1.316-1.433-2.55-2.1c-1.167-0.633-2.233-1.034-3.2-1.2
			c0.267,0.567,0.366,1.383,0.3,2.45c-0.6-0.934-1.816-1.7-3.65-2.3c-2.699-0.9-4.116-1.383-4.25-1.45
			c0.134,0.066,0.167,0.15,0.101,0.25c-0.7,0.033-1.467-0.017-2.3-0.15c-1.032-0.156-1.716-0.398-2.051-0.725
			c0.104,0.108,0.287,0.333,0.551,0.675c0.199,0.3,0.433,0.533,0.699,0.7c-1.066-0.333-1.783-0.583-2.149-0.75
			c-0.767-0.367-1.4-0.817-1.9-1.35c-0.066,0.133-0.2,0.316-0.399,0.55c-0.167,0.167-0.284,0.333-0.351,0.5
			c-0.233-0.467-0.366-0.767-0.399-0.9c-1-0.2-2.034-0.55-3.101-1.05c-0.399-0.167-1.399-0.667-3-1.5
			c0.434,0.966,1.167,1.917,2.2,2.85c-2.134-0.733-3.95-1.683-5.45-2.85c-1.2-0.934-2.633-2.4-4.3-4.4c0.1,0.3,0.267,1,0.5,2.1
			c0.2,0.867,0.417,1.533,0.65,2c-0.601-0.367-1.467-1.117-2.601-2.25c-1-1-1.916-1.683-2.75-2.05c-1.2-0.533-2.55-0.983-4.05-1.35
			c-2.06-0.458-3.368-0.416-3.925,0.125c0.662-0.688,1.388-1.18,2.175-1.475c-1.366,0.167-2.4,0.3-3.1,0.4
			c-1.267,0.2-2.25,0.567-2.95,1.1c0.1-0.133,0.267-0.383,0.5-0.75c0.166-0.3,0.35-0.55,0.55-0.75c-1.833,0.2-3.033,0.733-3.6,1.6
			c-0.767-0.533-1.684-1.017-2.75-1.45c0.3,0.233,0.649,0.583,1.05,1.05l-4.101-0.8l3.601,1.95c-5.2-0.867-10.834-0.5-16.9,1.1
			c1.6,0.2,2.75,0.5,3.45,0.9c-3.067,0.333-5.683,0.933-7.85,1.8c-2.467,1.034-4.7,2.534-6.7,4.5l1.25-2
			c-1.534,0.9-2.684,1.583-3.45,2.05c-1.3,0.8-2.333,1.617-3.1,2.45c0.133-0.966,0.283-1.617,0.45-1.95c-0.233,0.3-0.9,1.066-2,2.3
			c-0.833,0.934-1.45,1.733-1.85,2.4c0.167-0.4,0.283-1.1,0.35-2.1c0.1-0.934,0.267-1.633,0.5-2.1c-1.733,0.6-3.233,1.683-4.5,3.25
			c-1.3,1.933-2.35,3.383-3.15,4.35c-0.067-1.667-0.333-4.05-0.8-7.15c-0.033,1.333-0.283,3.117-0.75,5.35
			c-0.5,2.233-1.017,3.934-1.55,5.1c-0.267-3.533-0.783-6.717-1.55-9.55c-0.333,0.933-0.517,1.667-0.55,2.2
			c-0.067,0.833,0.083,1.567,0.45,2.2c-1.1-1.4-1.583-3.1-1.45-5.1c0.033-0.767,0.367-2.533,1-5.3
			c-0.733,0.367-1.85,0.783-3.35,1.25c-1.533,0.466-2.633,0.867-3.3,1.2c-1.567,0.767-2.633,1.317-3.2,1.65
			c-1.167,0.733-2.017,1.567-2.55,2.5c0.033-0.433,0.2-0.95,0.5-1.55c0.333-0.633,0.717-1.15,1.15-1.55
			c-2.433,1.433-5.467,3.667-9.1,6.7c0.1-0.467,0.184-0.816,0.25-1.05c0.1-0.4,0.233-0.733,0.4-1
			c-0.733,0.667-1.783,1.417-3.15,2.25c-0.033-0.867,0.017-1.517,0.15-1.95c-0.767,1.033-1.7,2.033-2.8,3
			c-0.6,0.533-1.667,1.383-3.2,2.55c0.467-0.434,0.717-1.1,0.75-2c0-1.067,0.034-1.85,0.1-2.35c-1.3,1.533-3.617,3.333-6.95,5.4
			c0.267-0.3,0.7-0.833,1.3-1.6c-1.767,0.967-3.133,1.483-4.1,1.55c-0.6,0.066-2.033-0.117-4.3-0.55c0.6,1.1,1.417,1.917,2.45,2.45
			c-1.133-0.1-2.2-0.367-3.2-0.8c-1.2-0.533-2.067-1.2-2.6-2c-0.633,0.633-2.033,1.167-4.2,1.6c-1.936,0.394-3.194,1.027-3.775,1.9
			c0.128-0.2,0.27-0.533,0.425-1c-0.7,0.467-1.517,1.067-2.45,1.8c0.2-1.1,0.417-1.85,0.65-2.25c-0.8,0.733-2.167,1.35-4.1,1.85
			c-1.933,0.466-3.267,1.033-4,1.7c0.1-0.7,0.317-1.667,0.65-2.9c-0.934,0.567-1.717,1.417-2.35,2.55l0.3-2.75
			c-1.4,0.5-2.433,0.934-3.1,1.3c-1.167,0.667-1.783,1.5-1.85,2.5c-0.567-1.6-0.85-2.767-0.85-3.5c-0.934,1.2-1.35,2.6-1.25,4.2
			c0.033,0.767,0.35,2.233,0.95,4.4c-1.4-1.5-2.483-3.167-3.25-5c-0.667-1.534-1.2-3.434-1.6-5.7c-0.333,0.867-0.45,1.917-0.35,3.15
			c0.1,1.1,0.367,2.133,0.8,3.1c-1.467-1.733-2.417-3.867-2.85-6.4c-0.466-2.567-0.283-4.917,0.55-7.05
			c-0.667,0.534-1.15,1.284-1.45,2.25c-0.066-1.566,0.45-3.367,1.55-5.4c-1.267,0.1-2.717,0.367-4.35,0.8
			c-2.169,0.591-3.385,1.25-3.65,1.975c0.452-1.333,0.793-2.025,1.025-2.075c-1.893,0.205-3.868,0.838-5.925,1.9
			c-2,1.033-3.7,2.267-5.1,3.7c0-0.767,0.033-1.317,0.1-1.65c-0.7,0.633-1.4,1.4-2.1,2.3c0.167-0.8,0.433-1.75,0.8-2.85
			c-1.433,1.433-2.983,2.483-4.65,3.15c-0.167,0.067-0.767,0.184-1.8,0.35c-0.829,0.127-1.354,0.286-1.575,0.475
			c0.327-0.302,0.668-0.777,1.025-1.425c-1.567,0.567-2.75,0.983-3.55,1.25c-1.434,0.467-2.684,0.65-3.75,0.55
			c0.4-0.267,0.85-0.75,1.35-1.45c-1.233,0.2-2.283,0.417-3.15,0.65c0.2-0.2,0.533-0.683,1-1.45c-0.4,0.367-1.083,0.767-2.05,1.2
			c-0.967,0.467-1.667,0.867-2.1,1.2c-0.6-2.033-0.983-3.55-1.15-4.55c-0.667,0.4-1.1,0.816-1.3,1.25
			c-0.333-0.767-0.533-1.367-0.6-1.8c-0.034,0.1-0.15,0.3-0.35,0.6c-0.167,0.267-0.267,0.5-0.3,0.7c-0.133-0.233-0.35-0.7-0.65-1.4
			c-0.233-0.667-0.467-1.133-0.7-1.4c-1.3-1.3-2.267-2.267-2.9-2.9c-1.115-1.148-1.732-2.365-1.85-3.65
			c0.094,1.389-0.056,2.822-0.45,4.3c-0.267-0.633-0.85-1.816-1.75-3.55c-0.8-1.5-1.35-2.717-1.65-3.65c0,0.4-0.15,0.983-0.45,1.75
			c-1.233-3.333-3.233-5.083-6-5.25c0.3,0.4,0.783,0.983,1.45,1.75c0.566,0.7,0.933,1.35,1.1,1.95c0.1,0.4,0.1,0.934,0,1.6
			c-0.1,0.733-0.117,1.267-0.05,1.6c-0.3-0.8-0.483-1.367-0.55-1.7c-0.067,0.5-0.267,1.1-0.6,1.8
			c-0.193,0.386-0.477,0.961-0.85,1.725c-0.139-1.101-0.322-2.009-0.55-2.725v0.65c-0.1,0.633-0.483,1.417-1.15,2.35
			c-0.784,1.098-1.276,1.839-1.475,2.225c-0.27-1.102-0.878-2.093-1.825-2.975c-1.066-0.967-2.167-1.4-3.3-1.3
			c0,0.133-0.017,0.4-0.05,0.8c-0.033,0.333-0.017,0.6,0.05,0.8c-0.833-1.033-2.25-1.467-4.25-1.3c-2.1,0.167-3.45-0.034-4.05-0.6
			c0.333,0.333,0.8,0.917,1.4,1.75c-0.567-0.2-1.467-0.367-2.7-0.5s-2.15-0.3-2.75-0.5c-0.733-0.267-1.6-0.733-2.6-1.4
			c-1.133-0.767-1.967-1.317-2.5-1.65c0.233,0.667,0.317,1.917,0.25,3.75c-2.233-1.367-3.983-2.5-5.25-3.4
			c-2.367-1.7-3.767-3.15-4.2-4.35c-0.267,1.067-0.367,1.917-0.3,2.55c-1.167-1-2-2.067-2.5-3.2c0.333,1.033,0.55,2,0.65,2.9
			c-0.933-1.267-2.933-2.65-6-4.15c-0.167,0.633-0.133,1.517,0.1,2.65c0.4,1.767,0.6,2.7,0.6,2.8c-0.333-0.267-1.3-1.25-2.9-2.95
			c-1.2-1.267-2.283-2.083-3.25-2.45c0.333,1.333,0.45,2.35,0.35,3.05c-0.7-1.433-1.65-2.433-2.85-3c-0.9-0.433-2.267-0.7-4.1-0.8
			c0.967-0.5,1.517-0.75,1.65-0.75c-0.7,0-1.617,0.066-2.75,0.2c-1.367,0.133-2.267,0.217-2.7,0.25c1.033-0.767,2.1-1.316,3.2-1.65
			c-1.433-0.167-3.167-0.117-5.2,0.15c-3.233,0.434-4.95,0.65-5.15,0.65c0.5-0.733,1.15-1.216,1.95-1.45
			c-0.467-0.167-2.3-0.4-5.5-0.7c-3.3-0.3-5.783-0.433-7.45-0.4c-0.133-5.467-0.066-10.65,0.2-15.55
			C7.217,6.25,17.533,7.833,31.2,8.2c9.933,0.267,19.433-0.067,28.5-1c14.167-1.5,27.917-2.1,41.25-1.8
			c4.2,0.1,20.117,0.9,47.75,2.4c3.533,0.2,7.667,0.083,12.4-0.35c6.2-0.534,10.333-0.833,12.4-0.9c2.367-0.066,6.167-0.3,11.4-0.7
			c4.8-0.3,8.633-0.283,11.5,0.05c6,0.7,9.967,1.117,11.9,1.25c4.2,0.267,8.167,0.167,11.9-0.3c3.1-0.367,6.683-0.567,10.75-0.6
			c2.367-0.033,6-0.033,10.9,0c2.533-0.033,5.833-0.217,9.9-0.55c5-0.4,8.366-0.65,10.1-0.75c15.434-0.8,41.483-1.067,78.15-0.8
			c33.366,0.233,59.4-0.4,78.1-1.9C424.9,1.717,433.583,2.3,444.15,4c13.233,2.1,21.983,3.267,26.25,3.5
			C474.366,7.7,479.7,6.6,486.4,4.2z"/>
		<path style="fill-rule:evenodd;clip-rule:evenodd;fill:#3E9A9D;" d="M492.3,2.05l-0.05,12.3c-2.667,0.066-4.066,0.1-4.2,0.1
			c-5.133-0.233-11.283,0.466-18.45,2.1c-0.533,0.1-6.55,1.684-18.05,4.75c-6.333,2.1-11.2,3.534-14.6,4.3
			c-5.967,1.367-10.917,1.283-14.851-0.25c-0.866-0.333-2.05-1.283-3.55-2.85c-1.467-1.533-2.616-2.433-3.45-2.7
			c-2.333-0.833-5.583-0.55-9.75,0.85c-6.399,2.2-9.783,3.333-10.149,3.4c-2.467,0.434-4.634,0.617-6.5,0.55
			c-2.667-0.1-4.351-0.733-5.05-1.9c-0.467-0.8-0.301-1.833,0.5-3.1c0.666-1.1,1.666-2.167,3-3.2
			c-4.434-0.433-9.117,0.184-14.051,1.85L360,22.6c-6.167,1.467-12.25,1.883-18.25,1.25c-5.185-0.558-8.734-1.616-10.65-3.175
			c5.339,4.595,5.489,7.97,0.45,10.125c-3.633,1.567-8.533,2.25-14.7,2.05c-6.233-0.233-13.399-1.867-21.5-4.9
			c-9.066-3.767-15.949-6.45-20.649-8.05c-6.334-2.167-12.7-2.617-19.101-1.35c-5.066,1.034-11.183,3.434-18.35,7.2
			c-6.7,3.467-12.9,5.733-18.6,6.8c-6.7,1.2-7.117-1.033-1.25-6.7c-3.233,0.8-7.816,2.35-13.75,4.65
			c-6.8,2.667-11.35,4.35-13.65,5.05c-11.233,3.434-23.333,5.65-36.3,6.65c-5.267,0.4-9.8-0.417-13.6-2.45
			c-4.434-2.367-4.417-5.4,0.05-9.1c-2.533-0.267-4.883-0.333-7.05-0.2c-2.333,0.167-4.65,0.55-6.95,1.15
			c-6.3,2.167-11.083,3.667-14.35,4.5c-5.767,1.5-10.65,1.433-14.65-0.2c-1.9-0.767-3.517-1.95-4.85-3.55
			c-1.367-2-2.466-3.533-3.3-4.6l-1.15-1.35c-3.033-3.3-7.767-5.566-14.2-6.8c-0.633-0.1-1.733-0.2-3.3-0.3
			c-1.8-0.167-2.6-0.183-2.4-0.05c2.5,1.467,3.8,2.25,3.9,2.35c1.2,0.933,1.9,2.1,2.1,3.5C74.583,28.9,70,29.867,60.2,28
			c-2.867-0.533-6.4-1.667-10.6-3.4c-5.033-2.067-8.434-3.367-10.2-3.9c-5.533-1.633-11.6-3.25-18.2-4.85
			c-4.934-1.167-9.784-1.75-14.55-1.75C4.183,14.067,1.967,14.167,0,14.4L0.05,2.1C13.283,0.933,21.4,0.4,24.4,0.5
			c11.1,0.4,24.7,0.483,40.8,0.25c24.867-0.367,38.6-0.55,41.2-0.55c10.633-0.034,26.417-0.1,47.35-0.2
			c18.167-0.067,33.95,0.033,47.35,0.3c8.3,0.167,20.667,0.3,37.1,0.4c14.566,0.167,26.85,0.683,36.85,1.55
			c3.7,0.333,8.9,0.367,15.601,0.1c7.199-0.267,12.416-0.3,15.649-0.1c17.434,0.933,43.8,0.917,79.101-0.05
			c35.1-0.967,61.466-0.95,79.1,0.05c5.2,0.3,10.417,0.317,15.65,0.05C485.816,2.033,489.866,1.95,492.3,2.05z"/>
		<path style="fill-rule:evenodd;clip-rule:evenodd;fill:#3E9A9D;" d="M174.9,40.05c3.2-0.767,4.833-0.6,4.9,0.5
			c0.067,1.1-1.367,1.883-4.3,2.35c-2.767,0.434-4.217,0.217-4.35-0.65C171.05,41.383,172.3,40.65,174.9,40.05z"/>
		<path style="fill-rule:evenodd;clip-rule:evenodd;fill:#3E9A9D;" d="M183.35,38.2c1.667-0.333,2.517-0.2,2.55,0.4
			c0.033,0.566-0.733,1.033-2.3,1.4c-1.567,0.333-2.417,0.2-2.55-0.4S181.683,38.533,183.35,38.2z"/>
		<path style="fill-rule:evenodd;clip-rule:evenodd;fill:#3E9A9D;" d="M262.1,18.25c1.7,0,3,0.25,3.9,0.75
			c0.9,0.467,1.15,1,0.75,1.6c-0.434,0.566-1.583,0.9-3.45,1c-1.899,0.066-3.517-0.15-4.85-0.65c-1.3-0.467-1.45-1.034-0.45-1.7
			S260.366,18.25,262.1,18.25z"/>
		<path style="fill-rule:evenodd;clip-rule:evenodd;fill:#3E9A9D;" d="M280.7,22.9c1.2,0.4,1.7,0.85,1.5,1.35
			c-0.2,0.467-0.75,0.517-1.65,0.15c-0.899-0.333-1.366-0.75-1.399-1.25C279.083,22.617,279.6,22.533,280.7,22.9z"/>
		<path style="fill-rule:evenodd;clip-rule:evenodd;fill:#3E9A9D;" d="M361.45,23.25c2.267,0.233,2.533,0.95,0.8,2.15
			c-1.733,1.233-3.267,1.633-4.6,1.2c-1.233-0.434-1.284-1.133-0.15-2.1S359.95,23.117,361.45,23.25z"/>
		<path style="fill-rule:evenodd;clip-rule:evenodd;fill:#3E9A9D;" d="M411.3,20.25c1.434-0.067,2.066,0.217,1.9,0.85
			c-0.2,0.667-0.834,1-1.9,1c-0.967,0-1.399-0.3-1.3-0.9C410.066,20.633,410.5,20.317,411.3,20.25z"/>
		<path style="fill-rule:evenodd;clip-rule:evenodd;fill:#3E9A9D;" d="M475.3,15.95c1.834,0.233,2.101,0.716,0.8,1.45
			c-1.3,0.7-2.733,1.05-4.3,1.05c-1.467,0-1.616-0.467-0.45-1.4C472.517,16.117,473.833,15.75,475.3,15.95z"/>
		<path style="fill-rule:evenodd;clip-rule:evenodd;fill:#3E9A9D;" d="M480.75,15.45c1.366,0,1.783,0.267,1.25,0.8
			s-1.333,0.767-2.4,0.7c-1-0.067-1.333-0.333-1-0.8C478.967,15.683,479.684,15.45,480.75,15.45z"/>
		<path style="fill-rule:evenodd;clip-rule:evenodd;fill:#3E9A9D;" d="M45.9,23.6c1.767,0.667,2.684,1.467,2.75,2.4
			c0.067,0.967-0.583,1.217-1.95,0.75c-2.333-0.8-3.567-1.717-3.7-2.75S43.833,22.833,45.9,23.6z"/>
		<path style="fill-rule:evenodd;clip-rule:evenodd;fill:#3E9A9D;" d="M18.65,15.8c1.767,0.333,2.633,0.883,2.6,1.65
			c-0.067,0.767-1,0.933-2.8,0.5c-1.3-0.333-1.817-0.817-1.55-1.45C17.133,15.833,17.717,15.6,18.65,15.8z"/>
	</g>
	
		<use xlink:href="#flash0.ai_x2F_Layer_3_x2F__x3C_Path_x3E__x5F_76"  width="10.986" height="10.767" x="0.025" y="-10.75" transform="matrix(1 0 0 -1 7.3501 40.3501)" style="overflow:visible;opacity:0.6289;enable-background:new    ;"/>
	
		<use xlink:href="#flash0.ai_x2F_Layer_3_x2F__x3C_Path_x3E__x5F_75"  width="8.083" height="7.9" x="-0.019" y="-7.9" transform="matrix(1 0 0 -1 43 57.2998)" style="overflow:visible;opacity:0.6289;enable-background:new    ;"/>
	
		<use xlink:href="#flash0.ai_x2F_Layer_3_x2F__x3C_Path_x3E__x5F_74"  width="9.928" height="9.695" x="-0.016" y="-9.7" transform="matrix(1 0 0 -1 100.7002 62.3501)" style="overflow:visible;opacity:0.6289;enable-background:new    ;"/>
	
		<use xlink:href="#flash0.ai_x2F_Layer_3_x2F__x3C_Path_x3E__x5F_73"  width="8.083" height="7.85" x="-0.019" y="-7.85" transform="matrix(1 0 0 -1 119.6499 94.2998)" style="overflow:visible;opacity:0.6289;enable-background:new    ;"/>
	
		<use xlink:href="#flash0.ai_x2F_Layer_3_x2F__x3C_Path_x3E__x5F_72"  width="8.083" height="7.9" x="-0.019" y="-7.9" transform="matrix(1 0 0 -1 22.75 69.4004)" style="overflow:visible;opacity:0.6289;enable-background:new    ;"/>
	
		<use xlink:href="#flash0.ai_x2F_Layer_3_x2F__x3C_Path_x3E__x5F_71"  width="12.183" height="11.867" x="-0.023" y="-11.85" transform="matrix(1 0 0 -1 67.3999 106.6504)" style="overflow:visible;opacity:0.6289;enable-background:new    ;"/>
	
		<use xlink:href="#flash0.ai_x2F_Layer_3_x2F__x3C_Path_x3E__x5F_70"  width="4.472" height="4.39" x="0.035" y="-4.4" transform="matrix(1 0 0 -1 35 62.0498)" style="overflow:visible;opacity:0.6289;enable-background:new    ;"/>
	
		<use xlink:href="#flash0.ai_x2F_Layer_3_x2F__x3C_Path_x3E__x5F_69"  width="4.461" height="4.34" x="-0.004" y="-4.35" transform="matrix(1 0 0 -1 65.7002 118.8496)" style="overflow:visible;opacity:0.6289;enable-background:new    ;"/>
	
		<use xlink:href="#flash0.ai_x2F_Layer_3_x2F__x3C_Path_x3E__x5F_68"  width="5.867" height="5.733" x="-0.012" y="-5.75" transform="matrix(1 0 0 -1 113.4502 100.4502)" style="overflow:visible;opacity:0.6289;enable-background:new    ;"/>
	
		<use xlink:href="#flash0.ai_x2F_Layer_3_x2F__x3C_Path_x3E__x5F_67"  width="7.734" height="7.506" x="-0.02" y="-7.5" transform="matrix(1 0 0 -1 81.75 110.4502)" style="overflow:visible;opacity:0.6289;enable-background:new    ;"/>
	
		<use xlink:href="#flash0.ai_x2F_Layer_3_x2F__x3C_Path_x3E__x5F_66"  width="9.679" height="9.423" x="-0.017" y="-9.45" transform="matrix(1 0 0 -1 70.9502 56.4502)" style="overflow:visible;opacity:0.6289;enable-background:new    ;"/>
	
		<use xlink:href="#flash0.ai_x2F_Layer_3_x2F__x3C_Path_x3E__x5F_65"  width="6.938" height="6.806" x="-0.021" y="-6.8" transform="matrix(1 0 0 -1 28.7998 41.5498)" style="overflow:visible;opacity:0.6289;enable-background:new    ;"/>
	
		<use xlink:href="#flash0.ai_x2F_Layer_3_x2F__x3C_Path_x3E__x5F_64"  width="6.938" height="6.756" x="-0.021" y="-6.75" transform="matrix(1 0 0 -1 7.2998 54.5498)" style="overflow:visible;opacity:0.6289;enable-background:new    ;"/>
	
		<use xlink:href="#flash0.ai_x2F_Layer_3_x2F__x3C_Path_x3E__x5F_63"  width="10.765" height="10.801" x="0.035" y="-10.807" transform="matrix(1 0 0 -1 38.3501 69.2998)" style="overflow:visible;opacity:0.6289;enable-background:new    ;"/>
	
		<use xlink:href="#flash0.ai_x2F_Layer_3_x2F__x3C_Path_x3E__x5F_62"  width="12.948" height="13.61" x="-0.006" y="-13.595" transform="matrix(1 0 0 -1 113.7998 49)" style="overflow:visible;opacity:0.6289;enable-background:new    ;"/>
	
		<use xlink:href="#flash0.ai_x2F_Layer_3_x2F__x3C_Path_x3E__x5F_61"  width="13.225" height="13.259" x="0.028" y="-13.269" transform="matrix(1 0 0 -1 61.6001 71)" style="overflow:visible;opacity:0.6289;enable-background:new    ;"/>
	
		<use xlink:href="#flash0.ai_x2F_Layer_3_x2F__x3C_Path_x3E__x5F_60"  width="13.501" height="13.19" x="-0.031" y="-13.2" transform="matrix(1 0 0 -1 105.8999 83.7998)" style="overflow:visible;opacity:0.6289;enable-background:new    ;"/>
	
		<use xlink:href="#flash0.ai_x2F_Layer_3_x2F__x3C_Path_x3E__x5F_59"  width="22.475" height="21.939" x="-0.025" y="-21.887" transform="matrix(1 0 0 -1 76.7998 68.5)" style="overflow:visible;opacity:0.6289;enable-background:new    ;"/>
	
		<use xlink:href="#flash0.ai_x2F_Layer_3_x2F__x3C_Path_x3E__x5F_58"  width="18.28" height="17.871" x="0.02" y="-17.833" transform="matrix(1 0 0 -1 22.1001 80.4502)" style="overflow:visible;opacity:0.6289;enable-background:new    ;"/>
	
		<use xlink:href="#flash0.ai_x2F_Layer_3_x2F__x3C_Path_x3E__x5F_57"  width="9.231" height="9.023" x="-0.017" y="-9" transform="matrix(1 0 0 -1 7.1001 92.9004)" style="overflow:visible;opacity:0.6289;enable-background:new    ;"/>
	
		<use xlink:href="#flash0.ai_x2F_Layer_3_x2F__x3C_Path_x3E__x5F_56"  width="11.896" height="11.617" x="-0.024" y="-11.65" transform="matrix(1 0 0 -1 466.4004 39.2998)" style="overflow:visible;opacity:0.6289;enable-background:new    ;"/>
	
		<use xlink:href="#flash0.ai_x2F_Layer_3_x2F__x3C_Path_x3E__x5F_55"  width="9.331" height="9.123" x="-0.017" y="-9.1" transform="matrix(1 0 0 -1 462.9502 66.3496)" style="overflow:visible;opacity:0.6289;enable-background:new    ;"/>
	
		<use xlink:href="#flash0.ai_x2F_Layer_3_x2F__x3C_Path_x3E__x5F_54"  width="9.989" height="9.773" x="0.023" y="-9.75" transform="matrix(1 0 0 -1 210.6001 64.3496)" style="overflow:visible;opacity:0.6289;enable-background:new    ;"/>
	
		<use xlink:href="#flash0.ai_x2F_Layer_3_x2F__x3C_Path_x3E__x5F_53"  width="8.083" height="7.9" x="-0.019" y="-7.9" transform="matrix(1 0 0 -1 363.3496 74.3496)" style="overflow:visible;opacity:0.6289;enable-background:new    ;"/>
	
		<use xlink:href="#flash0.ai_x2F_Layer_3_x2F__x3C_Path_x3E__x5F_52"  width="8.083" height="7.856" x="-0.019" y="-7.85" transform="matrix(1 0 0 -1 385.75 67.1504)" style="overflow:visible;opacity:0.6289;enable-background:new    ;"/>
	
		<use xlink:href="#flash0.ai_x2F_Layer_3_x2F__x3C_Path_x3E__x5F_51"  width="8.034" height="7.9" x="0.03" y="-7.9" transform="matrix(1 0 0 -1 416.75 99.2998)" style="overflow:visible;opacity:0.6289;enable-background:new    ;"/>
	
		<use xlink:href="#flash0.ai_x2F_Layer_3_x2F__x3C_Path_x3E__x5F_50"  width="8.083" height="7.9" x="-0.019" y="-7.9" transform="matrix(1 0 0 -1 272.9004 98.3496)" style="overflow:visible;opacity:0.6289;enable-background:new    ;"/>
	
		<use xlink:href="#flash0.ai_x2F_Layer_3_x2F__x3C_Path_x3E__x5F_49"  width="8.083" height="7.85" x="-0.019" y="-7.85" transform="matrix(1 0 0 -1 145.0498 75.0996)" style="overflow:visible;opacity:0.6289;enable-background:new    ;"/>
	
		<use xlink:href="#flash0.ai_x2F_Layer_3_x2F__x3C_Path_x3E__x5F_48"  width="8.083" height="7.856" x="-0.019" y="-7.85" transform="matrix(1 0 0 -1 283.5 52)" style="overflow:visible;opacity:0.6289;enable-background:new    ;"/>
	
		<use xlink:href="#flash0.ai_x2F_Layer_3_x2F__x3C_Path_x3E__x5F_47"  width="9.231" height="9.023" x="-0.017" y="-9" transform="matrix(1 0 0 -1 315.3496 66.0996)" style="overflow:visible;opacity:0.6289;enable-background:new    ;"/>
	
		<use xlink:href="#flash0.ai_x2F_Layer_3_x2F__x3C_Path_x3E__x5F_46"  width="8.917" height="9.004" x="-0.002" y="-9.014" transform="matrix(1 0 0 -1 444.1504 54.3501)" style="overflow:visible;opacity:0.6289;enable-background:new    ;"/>
	
		<use xlink:href="#flash0.ai_x2F_Layer_3_x2F__x3C_Path_x3E__x5F_45"  width="9.473" height="9.642" x="-0.008" y="-9.654" transform="matrix(1 0 0 -1 236.6001 85.2998)" style="overflow:visible;opacity:0.6289;enable-background:new    ;"/>
	
		<use xlink:href="#flash0.ai_x2F_Layer_3_x2F__x3C_Path_x3E__x5F_44"  width="8.873" height="9.052" x="-0.009" y="-9.014" transform="matrix(1 0 0 -1 436.75 67.9502)" style="overflow:visible;opacity:0.6289;enable-background:new    ;"/>
	
		<use xlink:href="#flash0.ai_x2F_Layer_3_x2F__x3C_Path_x3E__x5F_43"  width="7.517" height="7.665" x="-0.003" y="-7.639" transform="matrix(1 0 0 -1 386.9004 90.1504)" style="overflow:visible;opacity:0.6289;enable-background:new    ;"/>
	
		<use xlink:href="#flash0.ai_x2F_Layer_3_x2F__x3C_Path_x3E__x5F_42"  width="11.358" height="10.922" x="-0.002" y="-10.938" transform="matrix(1 0 0 -1 283.1504 100.4502)" style="overflow:visible;opacity:0.6289;enable-background:new    ;"/>
	
		<use xlink:href="#flash0.ai_x2F_Layer_3_x2F__x3C_Path_x3E__x5F_41"  width="21.602" height="15.8" x="-0.001" y="-15.8" transform="matrix(1 0 0 -1 313.0996 74.7002)" style="overflow:visible;opacity:0.6289;enable-background:new    ;"/>
	
		<use xlink:href="#flash0.ai_x2F_Layer_3_x2F__x3C_Path_x3E__x5F_40"  width="10.575" height="14.677" y="-14.701" transform="matrix(1 0 0 -1 343.9004 53.9502)" style="overflow:visible;opacity:0.6289;enable-background:new    ;"/>
	
		<use xlink:href="#flash0.ai_x2F_Layer_3_x2F__x3C_Path_x3E__x5F_39"  width="15.444" height="21.189" x="0.012" y="-21.201" transform="matrix(1 0 0 -1 320.5996 83.7998)" style="overflow:visible;opacity:0.6289;enable-background:new    ;"/>
	
		<use xlink:href="#flash0.ai_x2F_Layer_3_x2F__x3C_Path_x3E__x5F_38"  width="2.001" height="6.442" x="0.033" y="-6.472" transform="matrix(1 0 0 -1 318.2002 106.1504)" style="overflow:visible;opacity:0.6289;enable-background:new    ;"/>
	
		<use xlink:href="#flash0.ai_x2F_Layer_3_x2F__x3C_Path_x3E__x5F_37"  width="1.988" height="5.15" y="-5.15" transform="matrix(1 0 0 -1 354 45.3501)" style="overflow:visible;opacity:0.6289;enable-background:new    ;"/>
	
		<use xlink:href="#flash0.ai_x2F_Layer_3_x2F__x3C_Path_x3E__x5F_36"  width="8.803" height="16.027" x="-0.003" y="-16.027" transform="matrix(1 0 0 -1 361.9502 49.6001)" style="overflow:visible;opacity:0.6289;enable-background:new    ;"/>
	
		<use xlink:href="#flash0.ai_x2F_Layer_3_x2F__x3C_Path_x3E__x5F_35"  width="9.473" height="9.69" x="-0.008" y="-9.654" transform="matrix(1 0 0 -1 202.5 81.5)" style="overflow:visible;opacity:0.6289;enable-background:new    ;"/>
	
		<use xlink:href="#flash0.ai_x2F_Layer_3_x2F__x3C_Path_x3E__x5F_34"  width="5.209" height="5.04" x="-0.004" y="-5.05" transform="matrix(1 0 0 -1 460.5996 84.0498)" style="overflow:visible;opacity:0.6289;enable-background:new    ;"/>
	
		<use xlink:href="#flash0.ai_x2F_Layer_3_x2F__x3C_Path_x3E__x5F_33"  width="5.209" height="5.083" x="-0.004" y="-5.05" transform="matrix(1 0 0 -1 478.5498 37.1001)" style="overflow:visible;opacity:0.6289;enable-background:new    ;"/>
	
		<use xlink:href="#flash0.ai_x2F_Layer_3_x2F__x3C_Path_x3E__x5F_32"  width="5.568" height="5.433" x="-0.013" y="-5.4" transform="matrix(1 0 0 -1 252.3496 63.1499)" style="overflow:visible;opacity:0.6289;enable-background:new    ;"/>
	
		<use xlink:href="#flash0.ai_x2F_Layer_3_x2F__x3C_Path_x3E__x5F_31"  width="5.568" height="5.434" x="-0.013" y="-5.45" transform="matrix(1 0 0 -1 215.8999 80.3496)" style="overflow:visible;opacity:0.6289;enable-background:new    ;"/>
	
		<use xlink:href="#flash0.ai_x2F_Layer_3_x2F__x3C_Path_x3E__x5F_30"  width="5.568" height="5.433" x="-0.013" y="-5.4" transform="matrix(1 0 0 -1 333.3496 103.7002)" style="overflow:visible;opacity:0.6289;enable-background:new    ;"/>
	
		<use xlink:href="#flash0.ai_x2F_Layer_3_x2F__x3C_Path_x3E__x5F_29"  width="4.472" height="4.363" x="0.035" y="-4.35" transform="matrix(1 0 0 -1 395.2002 51.6499)" style="overflow:visible;opacity:0.6289;enable-background:new    ;"/>
	
		<use xlink:href="#flash0.ai_x2F_Layer_3_x2F__x3C_Path_x3E__x5F_28"  width="4.461" height="4.39" x="-0.004" y="-4.4" transform="matrix(1 0 0 -1 275 57.5)" style="overflow:visible;opacity:0.6289;enable-background:new    ;"/>
	
		<use xlink:href="#flash0.ai_x2F_Layer_3_x2F__x3C_Path_x3E__x5F_27"  width="4.471" height="4.39" x="-0.014" y="-4.4" transform="matrix(1 0 0 -1 344.9502 88.8496)" style="overflow:visible;opacity:0.6289;enable-background:new    ;"/>
	
		<use xlink:href="#flash0.ai_x2F_Layer_3_x2F__x3C_Path_x3E__x5F_26"  width="4.472" height="4.34" x="0.035" y="-4.35" transform="matrix(1 0 0 -1 190.1001 107.2002)" style="overflow:visible;opacity:0.6289;enable-background:new    ;"/>
	
		<use xlink:href="#flash0.ai_x2F_Layer_3_x2F__x3C_Path_x3E__x5F_25"  width="8.618" height="8.638" x="-0.004" y="-8.609" transform="matrix(1 0 0 -1 341.2998 97.2002)" style="overflow:visible;opacity:0.6289;enable-background:new    ;"/>
	
		<use xlink:href="#flash0.ai_x2F_Layer_3_x2F__x3C_Path_x3E__x5F_24"  width="4.471" height="4.34" x="-0.014" y="-4.35" transform="matrix(1 0 0 -1 169.1001 85.1504)" style="overflow:visible;opacity:0.6289;enable-background:new    ;"/>
	
		<use xlink:href="#flash0.ai_x2F_Layer_3_x2F__x3C_Path_x3E__x5F_23"  width="4.51" height="4.383" x="-0.004" y="-4.35" transform="matrix(1 0 0 -1 426.5996 104.3496)" style="overflow:visible;opacity:0.6289;enable-background:new    ;"/>
	
		<use xlink:href="#flash0.ai_x2F_Layer_3_x2F__x3C_Path_x3E__x5F_22"  width="7.286" height="7.129" x="-0.02" y="-7.15" transform="matrix(1 0 0 -1 264 84.25)" style="overflow:visible;opacity:0.6289;enable-background:new    ;"/>
	
		<use xlink:href="#flash0.ai_x2F_Layer_3_x2F__x3C_Path_x3E__x5F_21"  width="5.879" height="5.734" x="0.026" y="-5.7" transform="matrix(1 0 0 -1 395.1504 73.8496)" style="overflow:visible;opacity:0.6289;enable-background:new    ;"/>
	
		<use xlink:href="#flash0.ai_x2F_Layer_3_x2F__x3C_Path_x3E__x5F_20"  width="5.88" height="5.733" x="-0.012" y="-5.75" transform="matrix(1 0 0 -1 179.5 75.3496)" style="overflow:visible;opacity:0.6289;enable-background:new    ;"/>
	
		<use xlink:href="#flash0.ai_x2F_Layer_3_x2F__x3C_Path_x3E__x5F_19"  width="5.879" height="5.714" x="0.026" y="-5.7" transform="matrix(1 0 0 -1 276.8496 109)" style="overflow:visible;opacity:0.6289;enable-background:new    ;"/>
	
		<use xlink:href="#flash0.ai_x2F_Layer_3_x2F__x3C_Path_x3E__x5F_18"  width="5.88" height="5.733" x="-0.012" y="-5.75" transform="matrix(1 0 0 -1 416.75 91.9004)" style="overflow:visible;opacity:0.6289;enable-background:new    ;"/>
	
		<use xlink:href="#flash0.ai_x2F_Layer_3_x2F__x3C_Path_x3E__x5F_17"  width="5.133" height="4.99" x="-0.013" y="-5" transform="matrix(1 0 0 -1 297.2998 53.2998)" style="overflow:visible;opacity:0.6289;enable-background:new    ;"/>
	
		<use xlink:href="#flash0.ai_x2F_Layer_3_x2F__x3C_Path_x3E__x5F_16"  width="15.457" height="15.078" x="0.01" y="-15.05" transform="matrix(1 0 0 -1 306.1504 48.7002)" style="overflow:visible;opacity:0.6289;enable-background:new    ;"/>
	
		<use xlink:href="#flash0.ai_x2F_Layer_3_x2F__x3C_Path_x3E__x5F_15"  width="13.492" height="13.184" x="0.018" y="-13.2" transform="matrix(1 0 0 -1 163 100.1504)" style="overflow:visible;opacity:0.6289;enable-background:new    ;"/>
	
		<use xlink:href="#flash0.ai_x2F_Layer_3_x2F__x3C_Path_x3E__x5F_14"  width="13.501" height="13.183" x="-0.031" y="-13.15" transform="matrix(1 0 0 -1 444.1504 85.75)" style="overflow:visible;opacity:0.6289;enable-background:new    ;"/>
	
		<use xlink:href="#flash0.ai_x2F_Layer_3_x2F__x3C_Path_x3E__x5F_13"  width="13.366" height="13.407" x="-0.013" y="-13.419" transform="matrix(1 0 0 -1 224.1499 73.25)" style="overflow:visible;opacity:0.6289;enable-background:new    ;"/>
	
		<use xlink:href="#flash0.ai_x2F_Layer_3_x2F__x3C_Path_x3E__x5F_12"  width="10.807" height="10.834" x="-0.007" y="-10.79" transform="matrix(1 0 0 -1 177.7002 107.2998)" style="overflow:visible;opacity:0.6289;enable-background:new    ;"/>
	
		<use xlink:href="#flash0.ai_x2F_Layer_3_x2F__x3C_Path_x3E__x5F_11"  width="10.807" height="10.834" x="-0.007" y="-10.79" transform="matrix(1 0 0 -1 424.4502 92.0498)" style="overflow:visible;opacity:0.6289;enable-background:new    ;"/>
	
		<use xlink:href="#flash0.ai_x2F_Layer_3_x2F__x3C_Path_x3E__x5F_10"  width="10.815" height="10.804" x="-0.015" y="-10.809" transform="matrix(1 0 0 -1 267.0498 46.6001)" style="overflow:visible;opacity:0.6289;enable-background:new    ;"/>
	
		<use xlink:href="#flash0.ai_x2F_Layer_3_x2F__x3C_Path_x3E__x5F_9"  width="12.781" height="13.153" x="-0.02" y="-13.153" transform="matrix(1 0 0 -1 381.7002 101.6504)" style="overflow:visible;opacity:0.6289;enable-background:new    ;"/>
	
		<use xlink:href="#flash0.ai_x2F_Layer_3_x2F__x3C_Path_x3E__x5F_8"  width="17.79" height="17.614" x="-0.023" y="-17.61" transform="matrix(1 0 0 -1 397.4004 92.5996)" style="overflow:visible;opacity:0.6289;enable-background:new    ;"/>
	
		<use xlink:href="#flash0.ai_x2F_Layer_3_x2F__x3C_Path_x3E__x5F_7"  width="16.754" height="16.35" x="0.013" y="-16.35" transform="matrix(1 0 0 -1 240.9502 70.5498)" style="overflow:visible;opacity:0.6289;enable-background:new    ;"/>
	
		<use xlink:href="#flash0.ai_x2F_Layer_3_x2F__x3C_Path_x3E__x5F_6"  width="15.607" height="15.278" x="0.011" y="-15.25" transform="matrix(1 0 0 -1 447.0498 67.4502)" style="overflow:visible;opacity:0.6289;enable-background:new    ;"/>
	
		<use xlink:href="#flash0.ai_x2F_Layer_3_x2F__x3C_Path_x3E__x5F_5"  width="15.646" height="15.278" x="-0.028" y="-15.25" transform="matrix(1 0 0 -1 215.75 100)" style="overflow:visible;opacity:0.6289;enable-background:new    ;"/>
	
		<use xlink:href="#flash0.ai_x2F_Layer_3_x2F__x3C_Path_x3E__x5F_4"  width="13.453" height="13.183" x="0.018" y="-13.15" transform="matrix(1 0 0 -1 394.8496 59.0498)" style="overflow:visible;opacity:0.6289;enable-background:new    ;"/>
	
		<use xlink:href="#flash0.ai_x2F_Layer_3_x2F__x3C_Path_x3E__x5F_3"  width="14.303" height="14.351" x="-0.026" y="-14.35" transform="matrix(1 0 0 -1 163.1499 68.3496)" style="overflow:visible;opacity:0.6289;enable-background:new    ;"/>
	
		<use xlink:href="#flash0.ai_x2F_Layer_3_x2F__x3C_Path_x3E__x5F_2"  width="20.913" height="20.466" x="-0.013" y="-20.439" transform="matrix(1 0 0 -1 292.2998 62.8501)" style="overflow:visible;opacity:0.6289;enable-background:new    ;"/>
	
		<use xlink:href="#flash0.ai_x2F_Layer_3_x2F__x3C_Path_x3E__x5F_1"  width="22.725" height="22.15" x="-0.025" y="-22.137" transform="matrix(1 0 0 -1 226.5 49.2002)" style="overflow:visible;opacity:0.6289;enable-background:new    ;"/>
	
		<use xlink:href="#flash0.ai_x2F_Layer_3_x2F__x3C_Path_x3E_"  width="18.306" height="17.871" x="-0.006" y="-17.833" transform="matrix(1 0 0 -1 179.6001 88.3496)" style="overflow:visible;opacity:0.6289;enable-background:new    ;"/>
	<path style="fill-rule:evenodd;clip-rule:evenodd;fill:#20141B;" d="M366.55,44.9c-2.033,0.767-3.383,1.434-4.05,2
		c-1.1,1-1.917,2.283-2.45,3.85c-0.366,1.1-0.649,2.583-0.85,4.45c-0.3,3.466-0.533,5.55-0.7,6.25c-0.3,1.466-0.733,3.483-1.3,6.05
		c-0.367,2.134-0.45,4.184-0.25,6.15c0.133,1,0,2.183-0.4,3.55c-0.366,1.399-0.899,2.6-1.6,3.6c-0.667,0.967-1.533,1.566-2.601,1.8
		c-1.233,0.233-2.216-0.133-2.949-1.1c-1.067-1.4-0.917-3.25,0.449-5.55c1.7-2.834,2.551-4.483,2.551-4.95
		c-1.7,0.4-3.301,0.934-4.801,1.6c-1.866,0.867-3.25,1.817-4.149,2.851c-1.033,1.2-1.601,2.8-1.7,4.8
		c-0.066,1.134-0.083,2.833-0.05,5.1c-0.367,4.2-2.017,7.934-4.95,11.2c-0.434,0.5-1.8,1.75-4.1,3.75c-1.967,1.7-3.233,3-3.801,3.9
		c-2.133,3.267-3.399,6.116-3.8,8.55c-0.5,3.134-0.133,7.884,1.101,14.25c-0.967,0.066-2.184,0.083-3.65,0.05
		c-2.533-0.033-3.85-0.05-3.95-0.05c-0.366-2.467-0.45-5.116-0.25-7.95c0.267-3.5,1-6.899,2.2-10.2
		c1.3-3.633,3.384-7.017,6.25-10.149c1.566-1.7,3.616-3.733,6.15-6.101c2-2.267,3.283-5.233,3.85-8.899
		c0.467-3.334,0.333-4.967-0.4-4.9c-5.633,0.566-9.716,3.517-12.25,8.851c-0.833,2.466-1.583,4.3-2.25,5.5
		c-1.199,2.166-2.866,3.216-5,3.149c-1.133-0.033-2.066-0.6-2.8-1.7c-0.633-1-0.866-1.983-0.7-2.949c0.367-1.934,2.2-4.15,5.5-6.65
		c1.634-1.2,3.867-3,6.7-5.4c2.533-1.866,5.033-3.033,7.5-3.5c0.867-0.166,1.8-0.517,2.8-1.05c1.034-0.566,1.867-1.217,2.5-1.95
		c1.367-1.466,3.817-2.833,7.351-4.1c3.267-1.2,5.566-2.684,6.899-4.45c1.467-1.966,2.317-4.667,2.551-8.1
		c0.333-4.633,0.633-7.417,0.899-8.35c0.634-2.233,2.184-3.934,4.65-5.1c1.366-0.667,3.55-1.683,6.55-3.05
		c1.1-0.733,1.833-1.55,2.2-2.45c0.066-0.167,0.333-1.183,0.8-3.05c0.033-0.167,0.033-0.6,0-1.3c0-0.1,0.366-0.283,1.1-0.55
		c0.801-0.267,2-0.15,3.601,0.35c0.1,1.6-0.017,4.066-0.351,7.4c-0.333,3.233-0.416,5.683-0.25,7.35
		c0.101,1.167,0.717,3.466,1.851,6.9c0.934,2.8,1.233,5.15,0.899,7.05c-0.5,3-1.833,5.034-4,6.1c-1.866,0.934-3.816,1-5.85,0.2
		c-2.033-0.834-3.134-2.101-3.3-3.8c-0.2-1.967,1.033-3.9,3.7-5.8c2.399-1.667,3.683-3.684,3.85-6.05
		c0.1-1.267-0.283-3.783-1.15-7.55C370.15,43.983,368.884,44.033,366.55,44.9z"/>
</g>
</svg>
