<?xml version="1.0" encoding="iso-8859-1"?>
<!-- Generator: Adobe Illustrator 15.1.0, SVG Export Plug-In . SVG Version: 6.00 Build 0)  -->
<!DOCTYPE svg PUBLIC "-//W3C//DTD SVG 1.1//EN" "http://www.w3.org/Graphics/SVG/1.1/DTD/svg11.dtd">
<svg version="1.1" id="Layer_3" xmlns="http://www.w3.org/2000/svg" xmlns:xlink="http://www.w3.org/1999/xlink" x="0px" y="0px"
	 width="594.4px" height="89.2px" viewBox="0 0 594.4 89.2" style="enable-background:new 0 0 594.4 89.2;" xml:space="preserve">
<path style="fill-rule:evenodd;clip-rule:evenodd;fill:#3E9A9D;" d="M577.35,54.8c8.434,4.167,13.817,9.117,16.15,14.851
	c2.767,6.733-0.75,11.699-10.55,14.899c-9.434,3.066-19.95,4.617-31.55,4.65c-8.134,0.033-18.717-0.8-31.75-2.5
	c-17.2-2.267-27.817-3.566-31.851-3.9c-11.967-1-22.5-0.8-31.6,0.601c-8.134,1.233-14.834,1.899-20.101,2
	c-7.033,0.133-13.733-0.551-20.1-2.051c-6.967-1.633-15.283-1.85-24.95-0.649c-13.8,1.7-22.066,2.566-24.8,2.6
	c-4.467,0.033-10.5-0.35-18.1-1.149c-8.801-0.934-14.834-1.467-18.101-1.601c-4.2-0.2-9.55,0.167-16.05,1.101
	c-8.2,1.166-13.517,1.816-15.95,1.949c-5.1,0.301-10.85,0.217-17.25-0.25c-2.9-0.199-8.617-0.767-17.15-1.699
	c-4-0.434-8.617-0.367-13.85,0.199c-6.066,0.834-10.65,1.45-13.75,1.851c-4.8,0.633-10.7,0.383-17.7-0.75
	c-7.833-1.533-13.7-2.533-17.6-3c-4.967-0.601-10.567-0.217-16.8,1.149c-6.967,1.801-12.417,3-16.35,3.601
	c-11.7,1.833-26.117,2.399-43.25,1.7c-19.333-1.2-33.783-1.917-43.35-2.15c-4.233-0.1-10.283,0.1-18.15,0.6
	C43.983,87.983,30.267,87.8,21.7,86.3C2.733,82.934-3.8,74.083,2.1,59.75c2.433-5.9,8.017-10.65,16.75-14.25
	c1.033-0.4,4.717-1.733,11.05-4c4.4-1.6,7.767-3.067,10.1-4.4c0.4-0.233,4.583-2.833,12.55-7.8c4.767-2.966,8.75-5.15,11.95-6.55
	c8.933-3.9,18.017-4.383,27.25-1.45c3.833,1.233,9.25,3.233,16.25,6c6.833,2.7,11.933,4.567,15.3,5.6
	c11.667,3.667,22.717,4.383,33.15,2.15c5.3-1.133,11.466-2.983,18.5-5.55c4.066-1.467,10.133-3.783,18.2-6.95
	c15-5.667,27.5-8.45,37.5-8.35c4.667,0.033,9.917,0.95,15.75,2.75c1.7,0.533,6.783,2.383,15.25,5.55
	c6.167,2.3,11.25,3.817,15.25,4.55c5.633,1,10.9,0.934,15.8-0.2c5.533-1.3,11.85-3.817,18.95-7.55c4.033-2.133,10.05-5.5,18.05-10.1
	c7.066-3.8,13.267-6.383,18.6-7.75c6.967-1.767,13.767-1.9,20.4-0.4c5.399,1.2,11.35,3.217,17.85,6.05c3.7,1.6,9.101,4.05,16.2,7.35
	c13,5.7,24.983,7.966,35.95,6.8c2-0.2,7.133-1.15,15.399-2.85c6.567-1.367,11.667-1.95,15.301-1.75c3.666,0.2,8.449,1.667,14.35,4.4
	c6.366,2.967,11.083,4.684,14.15,5.15c3.166,0.5,6.75,0.617,10.75,0.35c2.233-0.133,5.5-0.383,9.8-0.75
	c7.566-0.4,14.149,1.3,19.75,5.1c8.434,5.767,14.816,10,19.149,12.7C564.083,47.8,570.75,51.533,577.35,54.8z"/>
</svg>
