<?xml version="1.0" encoding="iso-8859-1"?>
<!-- Generator: Adobe Illustrator 15.1.0, SVG Export Plug-In . SVG Version: 6.00 Build 0)  -->
<!DOCTYPE svg PUBLIC "-//W3C//DTD SVG 1.1//EN" "http://www.w3.org/Graphics/SVG/1.1/DTD/svg11.dtd">
<svg version="1.1" id="Layer_3" xmlns="http://www.w3.org/2000/svg" xmlns:xlink="http://www.w3.org/1999/xlink" x="0px" y="0px"
	 width="23.6px" height="45.55px" viewBox="0 0 23.6 45.55" style="enable-background:new 0 0 23.6 45.55;" xml:space="preserve">
<g>
	
		<linearGradient id="SVGID_1_" gradientUnits="userSpaceOnUse" x1="-49.0229" y1="-11.7456" x2="48.9773" y2="-11.7456" gradientTransform="matrix(0.0023 1 -1 0.0023 1.328364e-004 -4.708692e-004)">
		<stop  offset="0" style="stop-color:#171517"/>
		<stop  offset="0.0667" style="stop-color:#221D22"/>
		<stop  offset="0.2627" style="stop-color:#3C303C"/>
		<stop  offset="0.4353" style="stop-color:#4C3C4C"/>
		<stop  offset="0.5686" style="stop-color:#524052"/>
		<stop  offset="0.7216" style="stop-color:#514257"/>
		<stop  offset="0.898" style="stop-color:#4D4965"/>
		<stop  offset="1" style="stop-color:#4A4F70"/>
	</linearGradient>
	<path style="fill-rule:evenodd;clip-rule:evenodd;fill:url(#SVGID_1_);" d="M19.6,12.2c2,2.667,3.284,6,3.851,10
		c0.2,1.3,0.2,2.767,0,4.399c-0.2,1.733-0.533,3.051-1,3.95c0.1-1.666,0.149-2.833,0.149-3.5c-0.533,2-1.149,3.667-1.85,5
		c-0.467,0.9-1.083,1.851-1.85,2.851c-0.134,0.199-1.017,1.017-2.65,2.449c-1.5,1.334-2.233,2.034-2.2,2.101l-0.399-0.7
		c-0.834,1.066-1.4,2.267-1.7,3.6c-0.233-1.267-0.367-2.433-0.4-3.5c-0.566,1.267-0.966,3.5-1.2,6.7c-0.2-0.566-0.35-1.399-0.45-2.5
		c-0.1-1.233-0.217-2.083-0.35-2.55c-0.333-1.066-1.283-2.217-2.85-3.45c-1.934-1.5-3.1-2.533-3.5-3.1C1.067,31.017,0,27.45,0,23.25
		c0-2.367,0.65-5.083,1.95-8.15c1.233-2.967,2.716-5.5,4.45-7.6C6.367,7.867,6.433,8.383,6.6,9.05c1.033-1,2-2.4,2.9-4.2
		c0.533-1.067,1.25-2.684,2.15-4.85c0.166,0.4,0.466,1.417,0.899,3.05c0.367,1.4,0.733,2.4,1.101,3
		c0.666,1.1,1.633,2.184,2.899,3.25C18.017,10.533,19.033,11.5,19.6,12.2z"/>
	
		<linearGradient id="SVGID_2_" gradientUnits="userSpaceOnUse" x1="8.5547" y1="-11.2378" x2="36.9054" y2="-11.2378" gradientTransform="matrix(0.0071 1 -1 0.0071 -9.292690e-005 7.893657e-005)">
		<stop  offset="0" style="stop-color:#20141B"/>
		<stop  offset="1" style="stop-color:#41334B"/>
	</linearGradient>
	<path style="fill-rule:evenodd;clip-rule:evenodd;fill:url(#SVGID_2_);" d="M21.95,22.95c0,3.967-1.033,7.366-3.101,10.2
		c-2.066,2.833-4.55,4.25-7.449,4.25c-2.9,0-5.384-1.417-7.45-4.25c-2.067-2.834-3.1-6.233-3.1-10.2S1.867,15.633,3.9,12.9
		c2.033-2.7,4.5-4.05,7.4-4.05c2.934,0,5.434,1.35,7.5,4.05C20.9,15.633,21.95,18.983,21.95,22.95z"/>
	
		<radialGradient id="SVGID_3_" cx="17" cy="35.7002" r="20.8875" gradientTransform="matrix(1 0 0 -0.9826 0 70.7808)" gradientUnits="userSpaceOnUse">
		<stop  offset="0" style="stop-color:#41334B"/>
		<stop  offset="1" style="stop-color:#20141B"/>
	</radialGradient>
	<path style="fill-rule:evenodd;clip-rule:evenodd;fill:url(#SVGID_3_);" d="M21.45,21.8c0,3.601-0.983,6.684-2.95,9.25
		c-2,2.533-4.4,3.8-7.2,3.8s-5.183-1.267-7.15-3.8c-2-2.566-3-5.649-3-9.25c0-3.6,1-6.667,3-9.2c1.967-2.567,4.35-3.85,7.15-3.85
		s5.2,1.283,7.2,3.85C20.467,15.133,21.45,18.2,21.45,21.8z"/>
	
		<radialGradient id="SVGID_4_" cx="18" cy="38.75" r="19.9625" gradientTransform="matrix(1 0 0 -0.9887 0 77.0632)" gradientUnits="userSpaceOnUse">
		<stop  offset="0" style="stop-color:#41334B"/>
		<stop  offset="1" style="stop-color:#20141B"/>
	</radialGradient>
	<path style="fill-rule:evenodd;clip-rule:evenodd;fill:url(#SVGID_4_);" d="M21.15,21.45c0,3.434-0.95,6.383-2.851,8.85
		c-1.866,2.434-4.133,3.65-6.8,3.65c-2.667,0-4.95-1.217-6.85-3.65c-1.867-2.434-2.8-5.383-2.8-8.85c0-3.434,0.933-6.4,2.8-8.9
		c1.9-2.533,4.184-3.8,6.85-3.8c2.634,0,4.9,1.267,6.8,3.8C20.2,15.05,21.15,18.017,21.15,21.45z"/>
	
		<radialGradient id="SVGID_5_" cx="16.4502" cy="43.7998" r="20.3125" gradientTransform="matrix(1 0 0 -0.8375 0 80.4838)" gradientUnits="userSpaceOnUse">
		<stop  offset="0" style="stop-color:#41334B"/>
		<stop  offset="1" style="stop-color:#20141B"/>
	</radialGradient>
	<path style="fill-rule:evenodd;clip-rule:evenodd;fill:url(#SVGID_5_);" d="M21.15,19.55c-0.567,3.034-1.684,5.483-3.351,7.351
		c-1.8,2-3.967,3-6.5,3c-2.566,0-4.7-1-6.4-3c-1.566-1.867-2.583-4.317-3.05-7.351c0-2.933,0.933-5.466,2.8-7.6
		c1.9-2.133,4.184-3.2,6.85-3.2c2.634,0,4.9,1.067,6.8,3.2C20.2,14.083,21.15,16.617,21.15,19.55z"/>
	
		<radialGradient id="SVGID_6_" cx="11.6504" cy="7" r="15.2625" gradientTransform="matrix(1 0 0 -1.1589 0 15.1122)" gradientUnits="userSpaceOnUse">
		<stop  offset="0.0353" style="stop-color:#4E5852"/>
		<stop  offset="1" style="stop-color:#20141B"/>
	</radialGradient>
	<path style="fill-rule:evenodd;clip-rule:evenodd;fill:url(#SVGID_6_);" d="M3.95,24.25c-0.2-0.5,0.267-1.533,1.4-3.1
		c1.333-1.867,2.917-2.983,4.75-3.35c2.067-0.4,3.95,0,5.65,1.2c1.566,1.1,2.833,2.767,3.8,5c-0.866,1.934-2.166,3.467-3.899,4.6
		c-1.733,1.134-3.75,1.467-6.05,1C6.833,29.033,4.95,27.25,3.95,24.25z"/>
	
		<radialGradient id="SVGID_7_" cx="9.0498" cy="24.0508" r="2.5245" gradientTransform="matrix(1 0 0 -0.7376 0 41.7912)" gradientUnits="userSpaceOnUse">
		<stop  offset="0.2667" style="stop-color:#3F493D"/>
		<stop  offset="0.4549" style="stop-color:#3B4238;stop-opacity:0.8667"/>
		<stop  offset="0.7255" style="stop-color:#2F2E2C;stop-opacity:0.4941"/>
		<stop  offset="1" style="stop-color:#20141B;stop-opacity:0"/>
	</radialGradient>
	<path style="fill-rule:evenodd;clip-rule:evenodd;fill:url(#SVGID_7_);" d="M11.6,24.05c0,0.533-0.25,0.967-0.75,1.3
		c-0.5,0.367-1.1,0.551-1.8,0.551c-0.7,0-1.283-0.184-1.75-0.551c-0.5-0.333-0.75-0.767-0.75-1.3s0.25-0.967,0.75-1.3
		c0.467-0.367,1.05-0.55,1.75-0.55c0.7,0,1.3,0.183,1.8,0.55C11.35,23.083,11.6,23.517,11.6,24.05z"/>
	
		<radialGradient id="SVGID_8_" cx="14.75" cy="24.0508" r="2.5245" gradientTransform="matrix(1 0 0 -0.7376 0 41.7912)" gradientUnits="userSpaceOnUse">
		<stop  offset="0.2667" style="stop-color:#3F493D"/>
		<stop  offset="0.4549" style="stop-color:#3B4238;stop-opacity:0.8667"/>
		<stop  offset="0.7255" style="stop-color:#2F2E2C;stop-opacity:0.4941"/>
		<stop  offset="1" style="stop-color:#20141B;stop-opacity:0"/>
	</radialGradient>
	<path style="fill-rule:evenodd;clip-rule:evenodd;fill:url(#SVGID_8_);" d="M17.3,24.05c0,0.533-0.25,0.967-0.75,1.3
		c-0.5,0.367-1.1,0.551-1.8,0.551c-0.667,0-1.25-0.184-1.75-0.551c-0.5-0.333-0.75-0.767-0.75-1.3s0.25-0.967,0.75-1.3
		c0.5-0.367,1.083-0.55,1.75-0.55c0.7,0,1.3,0.183,1.8,0.55C17.05,23.083,17.3,23.517,17.3,24.05z"/>
</g>
</svg>
