<?xml version="1.0" encoding="iso-8859-1"?>
<!-- Generator: Adobe Illustrator 15.1.0, SVG Export Plug-In . SVG Version: 6.00 Build 0)  -->
<!DOCTYPE svg PUBLIC "-//W3C//DTD SVG 1.1//EN" "http://www.w3.org/Graphics/SVG/1.1/DTD/svg11.dtd">
<svg version="1.1" id="Layer_3" xmlns="http://www.w3.org/2000/svg" xmlns:xlink="http://www.w3.org/1999/xlink" x="0px" y="0px"
	 width="107.65px" height="125.5px" viewBox="0 0 107.65 125.5" style="enable-background:new 0 0 107.65 125.5;"
	 xml:space="preserve">
<symbol  id="flash0.ai_x2F_Layer_3_x2F__x3C_Path_x3E_" viewBox="-0.008 -10.817 10.959 10.824">
	<g id="Layer_1_15_">
		<path style="fill-rule:evenodd;clip-rule:evenodd;fill:#1F1A1C;" d="M10.95-4.3c-0.034-0.733-0.284-1.833-0.75-3.3
			c-0.534-1.733-1.05-2.717-1.55-2.95c-0.566-0.267-1.783-0.333-3.65-0.2c-1.9,0.133-3.017,0.4-3.35,0.8
			C1.25-9.45,0.833-8.3,0.4-6.5C-0.067-4.6-0.133-3.433,0.2-3c0.233,0.3,1.283,0.883,3.15,1.75C5.25-0.35,6.333,0.067,6.6,0
			c0.566-0.133,1.433-0.783,2.6-1.95C10.367-3.117,10.95-3.9,10.95-4.3z"/>
	</g>
</symbol>
<symbol  id="flash0.ai_x2F_Layer_3_x2F__x3C_Path_x3E__x5F_0" viewBox="0.027 -4 3.919 4">
	<g id="Layer_1_23_">
		
			<radialGradient id="SVGID_1_" cx="-3366.1699" cy="-10298.8477" r="1.6919" gradientTransform="matrix(0.5615 -0.8275 -1.0048 -0.8349 -8456.0918 -11385.5596)" gradientUnits="userSpaceOnUse">
			<stop  offset="0" style="stop-color:#FFFFFF"/>
			<stop  offset="0.0745" style="stop-color:#F8F8F8;stop-opacity:0.9686"/>
			<stop  offset="0.1843" style="stop-color:#E4E4E4;stop-opacity:0.8824"/>
			<stop  offset="0.3137" style="stop-color:#C4C3C4;stop-opacity:0.7412"/>
			<stop  offset="0.4588" style="stop-color:#979697;stop-opacity:0.549"/>
			<stop  offset="0.6196" style="stop-color:#5D5C5D;stop-opacity:0.298"/>
			<stop  offset="0.7922" style="stop-color:#181618;stop-opacity:0"/>
			<stop  offset="0.7922" style="stop-color:#171517;stop-opacity:0"/>
		</radialGradient>
		<path style="fill-rule:evenodd;clip-rule:evenodd;fill:url(#SVGID_1_);" d="M2.9-3.35C2.433-3.75,1.933-3.967,1.4-4
			C0.9-4,0.517-3.817,0.25-3.45C0.017-3.083-0.033-2.617,0.1-2.05c0.167,0.533,0.483,1,0.95,1.4C1.517-0.25,2.017-0.033,2.55,0
			C3.083,0,3.467-0.183,3.7-0.55c0.267-0.367,0.316-0.833,0.15-1.4C3.683-2.483,3.367-2.95,2.9-3.35z"/>
	</g>
</symbol>
<symbol  id="flash0.ai_x2F_Layer_3_x2F__x3C_Path_x3E__x5F_1" viewBox="-0.024 -13.301 10.814 13.301">
	<g id="Layer_1_14_">
		<path style="fill-rule:evenodd;clip-rule:evenodd;fill:#1F1A1C;" d="M2-2.05C2.6-1.617,3.667-1.133,5.2-0.6
			C6.9,0,7.95,0.15,8.35-0.15c0.5-0.4,1.066-1.533,1.7-3.4c0.667-1.934,0.883-3.184,0.65-3.75C10.433-8,9.6-9.167,8.2-10.8
			c-1.467-1.7-2.45-2.534-2.95-2.5c-0.333,0.033-1.283,0.667-2.85,1.9c-1.533,1.233-2.333,2-2.4,2.3c-0.1,0.633,0.117,1.9,0.65,3.8
			C1.183-3.4,1.633-2.317,2-2.05z"/>
	</g>
</symbol>
<symbol  id="flash0.ai_x2F_Layer_3_x2F__x3C_Path_x3E__x5F_10" viewBox="-0.006 -5.4 5.568 5.383">
	<g id="Layer_1_5_">
		<path style="fill-rule:evenodd;clip-rule:evenodd;fill:#1F1A1C;" d="M3.1-5.4c-0.3,0-0.867,0.2-1.7,0.6
			C0.533-4.367,0.067-4.017,0-3.75C-0.033-3.55,0.083-2.967,0.35-2c0.267,1,0.467,1.533,0.6,1.6C1.183-0.233,1.7-0.117,2.5-0.05
			c0.833,0.066,1.317,0.033,1.45-0.1c0.233-0.2,0.566-0.633,1-1.3C5.417-2.217,5.617-2.733,5.55-3C5.483-3.3,5.133-3.767,4.5-4.4
			C3.833-5.067,3.367-5.4,3.1-5.4z"/>
	</g>
</symbol>
<symbol  id="flash0.ai_x2F_Layer_3_x2F__x3C_Path_x3E__x5F_11" viewBox="-0.025 -6.056 5.978 6.072">
	<g id="Layer_1_4_">
		<path style="fill-rule:evenodd;clip-rule:evenodd;fill:#1F1A1C;" d="M1.6-0.45C2.433-0.083,2.967,0.067,3.2,0
			c0.333-0.133,0.85-0.483,1.55-1.05C5.517-1.717,5.917-2.2,5.95-2.5C5.983-2.833,5.767-3.467,5.3-4.4C4.833-5.367,4.467-5.9,4.2-6
			C3.833-6.1,3.15-6.067,2.15-5.9C1.083-5.767,0.467-5.567,0.3-5.3c-0.1,0.167-0.183,0.833-0.25,2c-0.1,1.167-0.1,1.816,0,1.95
			C0.25-1.083,0.767-0.783,1.6-0.45z"/>
	</g>
</symbol>
<symbol  id="flash0.ai_x2F_Layer_3_x2F__x3C_Path_x3E__x5F_12" viewBox="-0.014 -9.704 9.516 9.691">
	<g id="Layer_1_3_">
		<path style="fill-rule:evenodd;clip-rule:evenodd;fill:#1F1A1C;" d="M9.5-4c0.033-0.567-0.3-1.6-1-3.1
			C7.767-8.6,7.167-9.433,6.7-9.6C6.2-9.767,5.117-9.733,3.45-9.5c-1.7,0.267-2.684,0.6-2.95,1C0.333-8.233,0.183-7.167,0.05-5.3
			c-0.1,1.833-0.083,2.867,0.05,3.1c0.3,0.4,1.133,0.883,2.5,1.45c1.333,0.6,2.167,0.833,2.5,0.7c0.566-0.233,1.4-0.8,2.5-1.7
			C8.833-2.75,9.467-3.5,9.5-4z"/>
	</g>
</symbol>
<symbol  id="flash0.ai_x2F_Layer_3_x2F__x3C_Path_x3E__x5F_13" viewBox="-0.012 -9.8 10.028 9.795">
	<g id="Layer_1_2_">
		<path style="fill-rule:evenodd;clip-rule:evenodd;fill:#1F1A1C;" d="M10-5.4C9.833-5.967,9.183-6.833,8.05-8
			c-1.2-1.2-2.033-1.8-2.5-1.8C5.017-9.8,4-9.417,2.5-8.65C0.933-7.883,0.1-7.25,0-6.75C-0.067-6.417,0.15-5.367,0.65-3.6
			C1.15-1.8,1.5-0.833,1.7-0.7c0.4,0.3,1.333,0.517,2.8,0.65c1.467,0.1,2.333,0.033,2.6-0.2c0.467-0.4,1.066-1.2,1.8-2.4
			C9.733-4.017,10.1-4.933,10-5.4z"/>
	</g>
</symbol>
<symbol  id="flash0.ai_x2F_Layer_3_x2F__x3C_Path_x3E__x5F_1_x5F_0" viewBox="-0.007 -15.926 9.763 15.943">
	<g id="Layer_1_16_">
		
			<radialGradient id="SVGID_2_" cx="-945.7227" cy="-1100.0723" r="9.2856" gradientTransform="matrix(0.9921 -0.1254 -0.1989 -1.5737 726.8408 -1866.1489)" gradientUnits="userSpaceOnUse">
			<stop  offset="0" style="stop-color:#43485A"/>
			<stop  offset="0.4314" style="stop-color:#3D2940"/>
			<stop  offset="0.6" style="stop-color:#2D212F"/>
			<stop  offset="0.8314" style="stop-color:#1D181D"/>
			<stop  offset="1" style="stop-color:#171517"/>
		</radialGradient>
		<path style="fill-rule:evenodd;clip-rule:evenodd;fill:url(#SVGID_2_);" d="M9.65-8.55c-0.267-2.2-0.967-4.017-2.1-5.45
			S5.2-16.067,3.9-15.9c-1.333,0.167-2.367,1.083-3.1,2.75c-0.733,1.667-0.966,3.6-0.7,5.8c0.3,2.2,1.017,4.017,2.15,5.45
			C3.35-0.5,4.567,0.133,5.9,0c1.3-0.167,2.317-1.083,3.05-2.75C9.683-4.417,9.917-6.35,9.65-8.55z"/>
	</g>
</symbol>
<symbol  id="flash0.ai_x2F_Layer_3_x2F__x3C_Path_x3E__x5F_1_x5F_1" viewBox="-0.013 -28.197 18.688 28.225">
	<g id="Layer_1_17_">
		
			<radialGradient id="SVGID_3_" cx="-1774.0439" cy="-2811.7578" r="17.4513" gradientTransform="matrix(0.9548 -0.2973 -0.3789 -1.4591 640.5479 -4659.7593)" gradientUnits="userSpaceOnUse">
			<stop  offset="0" style="stop-color:#43485A"/>
			<stop  offset="0.4314" style="stop-color:#3D2940"/>
			<stop  offset="0.6" style="stop-color:#2D212F"/>
			<stop  offset="0.8314" style="stop-color:#1D181D"/>
			<stop  offset="1" style="stop-color:#171517"/>
		</radialGradient>
		<path style="fill-rule:evenodd;clip-rule:evenodd;fill:url(#SVGID_3_);" d="M17.95-16.75c-1-3.833-2.684-6.833-5.05-9
			c-2.4-2.2-4.783-2.917-7.15-2.15C3.383-27.167,1.7-25.2,0.7-22c-0.967,3.233-0.95,6.767,0.05,10.6c0.967,3.833,2.65,6.833,5.05,9
			c2.367,2.167,4.733,2.883,7.1,2.15s4.05-2.717,5.05-5.95C18.917-9.4,18.917-12.917,17.95-16.75z"/>
	</g>
</symbol>
<symbol  id="flash0.ai_x2F_Layer_3_x2F__x3C_Path_x3E__x5F_1_x5F_2" viewBox="0.004 -4 3.942 4">
	<g id="Layer_1_22_">
		
			<radialGradient id="SVGID_4_" cx="-3364.5771" cy="-10298.8896" r="1.6919" gradientTransform="matrix(0.5615 -0.8275 -0.9974 -0.8275 -8380.9883 -11308.1875)" gradientUnits="userSpaceOnUse">
			<stop  offset="0" style="stop-color:#FFFFFF"/>
			<stop  offset="0.0745" style="stop-color:#F8F8F8;stop-opacity:0.9686"/>
			<stop  offset="0.1843" style="stop-color:#E4E4E4;stop-opacity:0.8824"/>
			<stop  offset="0.3137" style="stop-color:#C4C3C4;stop-opacity:0.7412"/>
			<stop  offset="0.4588" style="stop-color:#979697;stop-opacity:0.549"/>
			<stop  offset="0.6196" style="stop-color:#5D5C5D;stop-opacity:0.298"/>
			<stop  offset="0.7922" style="stop-color:#181618;stop-opacity:0"/>
			<stop  offset="0.7922" style="stop-color:#171517;stop-opacity:0"/>
		</radialGradient>
		<path style="fill-rule:evenodd;clip-rule:evenodd;fill:url(#SVGID_4_);" d="M2.9-3.35C2.433-3.75,1.933-3.967,1.4-4
			C0.9-4,0.517-3.817,0.25-3.45s-0.317,0.833-0.15,1.4c0.167,0.533,0.483,1,0.95,1.4C1.517-0.25,2.017-0.033,2.55,0
			C3.083,0,3.467-0.183,3.7-0.55c0.267-0.367,0.316-0.833,0.15-1.4C3.683-2.483,3.367-2.95,2.9-3.35z"/>
	</g>
</symbol>
<symbol  id="flash0.ai_x2F_Layer_3_x2F__x3C_Path_x3E__x5F_2" viewBox="-0.007 -5.5 4.074 5.483">
	<g id="Layer_1_13_">
		<path style="fill-rule:evenodd;clip-rule:evenodd;fill:#1F1A1C;" d="M4.05-3c-0.066-0.3-0.333-0.8-0.8-1.5c-0.467-0.667-0.8-1-1-1
			C2.017-5.5,1.6-5.283,1-4.85C0.367-4.417,0.033-4.067,0-3.8c-0.033,0.2,0.05,0.783,0.25,1.75C0.45-1.017,0.6-0.467,0.7-0.4
			c0.167,0.167,0.55,0.283,1.15,0.35c0.566,0.066,0.917,0.033,1.05-0.1C3.1-0.417,3.35-0.867,3.65-1.5
			C3.983-2.267,4.117-2.767,4.05-3z"/>
	</g>
</symbol>
<symbol  id="flash0.ai_x2F_Layer_3_x2F__x3C_Path_x3E__x5F_2_x5F_0" viewBox="0 -3.404 3.105 3.404">
	<g id="Layer_1_21_">
		<path style="fill-rule:evenodd;clip-rule:evenodd;fill:#615824;" d="M3.1-1.75c-0.033-0.467-0.2-0.867-0.5-1.2
			C2.3-3.283,1.933-3.433,1.5-3.4c-0.433,0-0.783,0.167-1.05,0.5C0.15-2.533,0-2.117,0-1.65c0.033,0.467,0.2,0.867,0.5,1.2
			C0.8-0.15,1.167,0,1.6,0c0.433-0.033,0.8-0.217,1.1-0.55C3-0.883,3.133-1.283,3.1-1.75z"/>
	</g>
</symbol>
<symbol  id="flash0.ai_x2F_Layer_3_x2F__x3C_Path_x3E__x5F_3" viewBox="0.043 -4.4 4.461 4.39">
	<g id="Layer_1_12_">
		<path style="fill-rule:evenodd;clip-rule:evenodd;fill:#1F1A1C;" d="M4.5-2.4C4.433-2.667,4.133-3.067,3.6-3.6S2.7-4.4,2.5-4.4
			c-0.267,0-0.717,0.167-1.35,0.5C0.45-3.533,0.083-3.233,0.05-3C0.017-2.867,0.1-2.4,0.3-1.6c0.233,0.8,0.383,1.233,0.45,1.3
			c0.2,0.133,0.633,0.216,1.3,0.25C2.683,0.017,3.067,0,3.2-0.1C3.4-0.3,3.667-0.667,4-1.2C4.367-1.8,4.533-2.2,4.5-2.4z"/>
	</g>
</symbol>
<symbol  id="flash0.ai_x2F_Layer_3_x2F__x3C_Path_x3E__x5F_3_x5F_0" viewBox="0 -3.404 3.1 3.409">
	<g id="Layer_1_20_">
		<path style="fill-rule:evenodd;clip-rule:evenodd;fill:#615824;" d="M3.1-1.75c-0.033-0.467-0.2-0.867-0.5-1.2
			C2.3-3.283,1.933-3.433,1.5-3.4c-0.433,0-0.783,0.167-1.05,0.5C0.15-2.533,0-2.117,0-1.65c0.033,0.467,0.2,0.867,0.5,1.2
			C0.8-0.117,1.167,0.033,1.6,0c0.433,0,0.783-0.167,1.05-0.5C2.95-0.867,3.1-1.283,3.1-1.75z"/>
	</g>
</symbol>
<symbol  id="flash0.ai_x2F_Layer_3_x2F__x3C_Path_x3E__x5F_4" viewBox="0 -22.137 22.68 22.15">
	<g id="Layer_1_11_">
		<path style="fill-rule:evenodd;clip-rule:evenodd;fill:#1F1A1C;" d="M22.45-14.8c-0.6-1.133-2.45-2.684-5.55-4.65
			c-3.2-2-5.316-2.883-6.35-2.65c-1.233,0.3-3.267,1.633-6.1,4C1.483-15.567,0-13.75,0-12.65c0,0.7,1,2.883,3,6.55
			c1.967,3.633,3.217,5.567,3.75,5.8c1.033,0.433,3.183,0.417,6.45-0.05c3.233-0.467,5.083-1.033,5.55-1.7
			c0.8-1.133,1.717-3.2,2.75-6.2C22.633-11.65,22.95-13.833,22.45-14.8z"/>
	</g>
</symbol>
<symbol  id="flash0.ai_x2F_Layer_3_x2F__x3C_Path_x3E__x5F_4_x5F_0" viewBox="-0.003 -5.853 5.056 5.856">
	<g id="Layer_1_19_">
		<path style="fill-rule:evenodd;clip-rule:evenodd;fill:#453B17;" d="M5.05-3.05c-0.033-0.8-0.3-1.467-0.8-2
			C3.717-5.617,3.1-5.883,2.4-5.85c-0.667,0.033-1.233,0.333-1.7,0.9c-0.5,0.6-0.733,1.3-0.7,2.1c0.033,0.8,0.3,1.483,0.8,2.05
			C1.333-0.233,1.933,0.033,2.6,0c0.7-0.033,1.283-0.35,1.75-0.95C4.85-1.517,5.083-2.217,5.05-3.05z"/>
	</g>
</symbol>
<symbol  id="flash0.ai_x2F_Layer_3_x2F__x3C_Path_x3E__x5F_5" viewBox="-0.017 -15.25 15.645 15.278">
	<g id="Layer_1_10_">
		<path style="fill-rule:evenodd;clip-rule:evenodd;fill:#1F1A1C;" d="M7-0.05c2.267,0.167,3.617,0.066,4.05-0.3
			c0.7-0.633,1.633-1.883,2.8-3.75c1.333-2.133,1.917-3.566,1.75-4.3c-0.233-0.867-1.25-2.217-3.05-4.05
			c-1.867-1.867-3.167-2.8-3.9-2.8c-0.867,0-2.45,0.583-4.75,1.75c-2.433,1.233-3.733,2.233-3.9,3C-0.1-10,0.233-8.367,1-5.6
			c0.733,2.8,1.267,4.317,1.6,4.55C3.233-0.583,4.7-0.25,7-0.05z"/>
	</g>
</symbol>
<symbol  id="flash0.ai_x2F_Layer_3_x2F__x3C_Path_x3E__x5F_5_x5F_0" viewBox="-0.003 -6.053 5.015 6.055">
	<g id="Layer_1_18_">
		<path style="fill-rule:evenodd;clip-rule:evenodd;fill:#453B17;" d="M5-3.1C4.967-3.967,4.7-4.683,4.2-5.25s-1.1-0.833-1.8-0.8
			C1.733-6.017,1.167-5.7,0.7-5.1C0.2-4.5-0.033-3.783,0-2.95C0.067-2.083,0.35-1.367,0.85-0.8c0.5,0.566,1.1,0.833,1.8,0.8
			c0.667-0.033,1.233-0.35,1.7-0.95C4.85-1.55,5.067-2.267,5-3.1z"/>
	</g>
</symbol>
<symbol  id="flash0.ai_x2F_Layer_3_x2F__x3C_Path_x3E__x5F_6" viewBox="-0.017 -16.35 16.754 16.35">
	<g id="Layer_1_9_">
		<path style="fill-rule:evenodd;clip-rule:evenodd;fill:#1F1A1C;" d="M16.7-9c-0.233-0.9-1.317-2.35-3.25-4.35c-2-2-3.383-3-4.15-3
			c-0.933,0-2.633,0.633-5.1,1.9c-2.6,1.333-4,2.4-4.2,3.2C-0.1-10.75,0.25-9,1.05-6C1.883-3,2.467-1.383,2.8-1.15
			C3.5-0.65,5.067-0.3,7.5-0.1c2.433,0.2,3.883,0.1,4.35-0.3c0.767-0.667,1.783-2,3.05-4C16.3-6.667,16.9-8.2,16.7-9z"/>
	</g>
</symbol>
<symbol  id="flash0.ai_x2F_Layer_3_x2F__x3C_Path_x3E__x5F_7" viewBox="-0.003 -13.419 13.366 13.407">
	<g id="Layer_1_8_">
		<path style="fill-rule:evenodd;clip-rule:evenodd;fill:#1F1A1C;" d="M13.35-6.45c-0.2-0.8-0.8-2.05-1.8-3.75
			c-1.133-1.933-2.017-2.983-2.65-3.15c-0.8-0.2-2.3,0.033-4.5,0.7c-2.233,0.7-3.5,1.333-3.8,1.9C0.233-10.083,0.033-8.583,0-6.25
			c-0.033,2.433,0.2,3.867,0.7,4.3C1.067-1.683,2.5-1.267,5-0.7c2.5,0.567,3.917,0.784,4.25,0.65c0.633-0.333,1.5-1.35,2.6-3.05
			C12.95-4.833,13.45-5.95,13.35-6.45z"/>
	</g>
</symbol>
<symbol  id="flash0.ai_x2F_Layer_3_x2F__x3C_Path_x3E__x5F_8" viewBox="0.034 -8.557 8.082 8.537">
	<g id="Layer_1_7_">
		<path style="fill-rule:evenodd;clip-rule:evenodd;fill:#1F1A1C;" d="M7.55-1.5c0.2-0.467,0.367-1.3,0.5-2.5
			c0.133-1.333,0.067-2.167-0.2-2.5C7.55-6.9,6.767-7.367,5.5-7.9C4.2-8.467,3.383-8.667,3.05-8.5C2.617-8.333,2-7.717,1.2-6.65
			C0.333-5.517-0.05-4.733,0.05-4.3C0.117-4.033,0.633-3.267,1.6-2c1,1.233,1.6,1.883,1.8,1.95C3.833,0.05,4.6-0.1,5.7-0.5
			C6.8-0.9,7.417-1.233,7.55-1.5z"/>
	</g>
</symbol>
<symbol  id="flash0.ai_x2F_Layer_3_x2F__x3C_Path_x3E__x5F_9" viewBox="-0.006 -5.45 5.568 5.434">
	<g id="Layer_1_6_">
		<path style="fill-rule:evenodd;clip-rule:evenodd;fill:#1F1A1C;" d="M3.05-5.45c-0.3,0-0.85,0.2-1.65,0.6
			C0.533-4.383,0.067-4.017,0-3.75C-0.033-3.583,0.083-3,0.35-2S0.8-0.467,0.9-0.4c0.233,0.167,0.767,0.283,1.6,0.35
			c0.767,0.066,1.233,0.033,1.4-0.1C4.167-0.383,4.517-0.833,4.95-1.5C5.417-2.233,5.617-2.733,5.55-3
			c-0.066-0.3-0.433-0.783-1.1-1.45C3.783-5.117,3.317-5.45,3.05-5.45z"/>
	</g>
</symbol>
<g>
	<linearGradient id="SVGID_5_" gradientUnits="userSpaceOnUse" x1="49.4082" y1="146" x2="49.4082" y2="-24.7">
		<stop  offset="0" style="stop-color:#3A4063"/>
		<stop  offset="0.4314" style="stop-color:#3D2940"/>
		<stop  offset="0.6" style="stop-color:#2D212F"/>
		<stop  offset="0.8314" style="stop-color:#1D181D"/>
		<stop  offset="1" style="stop-color:#171517"/>
	</linearGradient>
	<path style="fill-rule:evenodd;clip-rule:evenodd;fill:url(#SVGID_5_);" d="M98.55,19.25c0.434,4.6,0.017,9.117-1.25,13.55
		c-0.899,3-2.666,7.2-5.3,12.6c-6.733,13.833-11.3,26.284-13.7,37.35c-1.066,4.9-2.283,13.5-3.649,25.8
		c-0.667,6.134-1.233,11.783-1.7,16.95H0.1V11.9L98.55,19.25z"/>
	<path style="fill-rule:evenodd;clip-rule:evenodd;fill:#3E9A9D;" d="M31.8,19.65c0.667-0.467,1.7-0.733,3.1-0.8
		c1.533-0.033,2.567,0.283,3.1,0.95c0.6,0.8,0.25,1.45-1.05,1.95c-1,0.367-2.083,0.55-3.25,0.55c-1.1-0.033-1.9-0.316-2.4-0.85
		C30.733,20.883,30.9,20.283,31.8,19.65z"/>
	<path style="fill-rule:evenodd;clip-rule:evenodd;fill:#3E9A9D;" d="M25.75,21c0.367-0.333,0.967-0.517,1.8-0.55
		c0.867-0.034,1.45,0.183,1.75,0.65c0.367,0.566,0.167,1.017-0.6,1.35c-0.6,0.267-1.217,0.383-1.85,0.35
		c-0.633,0-1.1-0.183-1.4-0.55C25.15,21.85,25.25,21.433,25.75,21z"/>
	<path style="fill-rule:evenodd;clip-rule:evenodd;fill:#20141B;" d="M81.6,39.3c-0.267,0.367-0.616,0.583-1.05,0.65
		c-0.1-0.367-0.149-0.883-0.149-1.55c-0.034-0.733-0.084-1.25-0.15-1.55c-0.967,0.733-1.934,1.25-2.9,1.55
		c-0.866,0.233-1.983,0.367-3.35,0.4c0.594-0.531,0.985-0.989,1.175-1.375c-0.381,0.725-1.54,0.717-3.475-0.025
		c-0.967-0.3-1.684-0.533-2.15-0.7c-0.866-0.267-1.55-0.583-2.05-0.95c-0.533,0.833-1.233,1.45-2.1,1.85
		c0.133-0.767,0.05-1.167-0.25-1.2c-0.534,0.167-1.017,0.283-1.45,0.35c-0.4,0.1-0.934,0.167-1.601,0.2
		c-0.767,0.033-1.283,0.066-1.55,0.1c0.733-0.466,1.184-0.933,1.351-1.4l-3.051,0.7c0.03-0.3,0.072-0.517,0.125-0.65
		c-0.704,1.439-0.412,2.456,0.875,3.05c-1.966-0.567-3.166-0.933-3.6-1.1c-1.467-0.533-2.517-1.15-3.15-1.85
		c0,0.434,0.117,0.917,0.351,1.45c0.166,0.333,0.383,0.8,0.649,1.4l-2.399-2c0.167,0.367,0.4,0.934,0.7,1.7
		c-0.233-0.4-0.85-0.867-1.85-1.4c-1.167-0.6-1.883-1.017-2.15-1.25c-0.8-0.767-1.367-1.617-1.7-2.55c0.5,2.167,1.35,4.55,2.55,7.15
		c-0.633-0.7-1.1-1.216-1.4-1.55c-0.567-0.633-1.017-1.2-1.35-1.7c-0.733-1.167-1.267-2.066-1.6-2.7
		c-0.6-1.167-0.917-2.15-0.95-2.95c-0.3,1.467-0.434,2.483-0.4,3.05c-0.066-0.367-0.333-1.133-0.8-2.3c-0.933,0.7-2.5,1.367-4.7,2
		c0.3-0.2,0.534-0.533,0.7-1c-1.2,1.367-3.383,1.35-6.55-0.05c1.6,1.033,2.683,1.617,3.25,1.75c-1.233,0.066-2.6-0.167-4.1-0.7
		c-1.667-0.6-2.783-1.383-3.35-2.35l0.3,2.05c-0.533-0.467-1.066-1.067-1.6-1.8c0.033,0.167,0.017,0.467-0.05,0.9
		c0-0.034-0.7-0.4-2.1-1.1c-1.466-0.733-2.267-1.167-2.4-1.3c-0.5-0.4-1.867-1.667-4.1-3.8c0.333,0.433,0.467,1.2,0.4,2.3
		c-0.5-0.933-1.25-1.85-2.25-2.75c-1-0.9-1.967-1.533-2.9-1.9c0.233,0.7,0.35,1.333,0.35,1.9c-0.367-0.4-0.633-0.7-0.8-0.9
		c-0.3-0.333-0.517-0.633-0.65-0.9c-0.7,0.433-1.65,0.817-2.85,1.15c0.2-0.967,0.3-1.717,0.3-2.25
		c-0.233,0.133-0.583,0.35-1.05,0.65c-0.4,0.233-0.767,0.367-1.1,0.4c0.067-0.5-0.183-1.067-0.75-1.7
		c-0.033,0.233-0.2,0.55-0.5,0.95C6.183,23.567,6,23.4,5.7,23.2c-1.2-0.934-3.067-1.4-5.6-1.4v-4.7
		c1.033-0.067,2.467-0.383,4.3-0.95c1.434-0.433,2.95-0.517,4.55-0.25c6.233,0.967,13.117,0.7,20.65-0.8
		c3.6-0.7,9.217-2.15,16.85-4.35c6.8-1.533,12.5-1.65,17.1-0.35C76.417,14,87.15,18.2,95.75,23c4.3,2.367,6.483,3.583,6.55,3.65
		c2.634,1.934,3.566,3.983,2.8,6.15c-0.1,0.267-0.3,0.7-0.6,1.3c-0.3,0.5-0.483,0.917-0.55,1.25c-0.066,0.4-0.084,0.917-0.05,1.55
		c0,0.333,0.033,0.833,0.1,1.5c0.066,1.934,0.05,3.25-0.05,3.95c-0.098-0.98-0.531-2.155-1.3-3.525
		c-0.021,0.485-0.204,1.027-0.551,1.625c-0.466,0.7-0.8,1.2-1,1.5c-0.866,1.6-1.6,2.633-2.199,3.1c0.666-1.9,1-3.6,1-5.1
		c-0.167,1.1-0.733,2.483-1.7,4.15c-1.267,2.133-2,3.45-2.2,3.95c0.033-0.8,0.25-2.033,0.65-3.7c0.399-1.667,0.6-2.917,0.6-3.75
		c-0.4,1.367-1.233,3.017-2.5,4.95c-0.3,0.467-1.417,2.017-3.35,4.65c0.566-1.4,0.966-2.833,1.199-4.3
		c0.301-1.733,0.317-3.217,0.051-4.45c-0.067-0.367-0.5-0.133-1.301,0.7c-0.8,0.934-1.216,1.4-1.25,1.4
		c0.167-1.133-0.083-2.033-0.75-2.7c-0.366-0.4-1.233-0.95-2.6-1.65c1,1.433,1.566,2.283,1.7,2.55
		c-0.434-0.567-1.417-1.15-2.95-1.75s-2.55-1.25-3.05-1.95c0.233,0.833,0.267,1.434,0.1,1.8l-0.6-1.8
		C81.95,38.517,81.833,38.933,81.6,39.3z"/>
	<path style="fill-rule:evenodd;clip-rule:evenodd;fill:#60B5B1;" d="M100.05,16.4c1.667,1.5,3.217,3.25,4.65,5.25
		c1.666,2.367,2.649,4.434,2.95,6.2c-0.467-0.867-1.134-1.617-2-2.25c1.633,2.566,2.216,4.983,1.75,7.25
		c-0.434-1.067-0.684-1.65-0.75-1.75c-0.334-0.7-0.7-1.233-1.101-1.6c0.4,1.4,0.3,2.983-0.3,4.75c-0.1,0.233-0.783,1.717-2.05,4.45
		l0.3-2.05c0.134-0.833,0.184-1.55,0.15-2.15c-0.867,2.333-1.351,3.933-1.45,4.8c-0.066,0.567-0.101,1.434-0.101,2.6
		c0,1.167-0.033,2-0.1,2.5c-0.033-1.367-0.283-2.85-0.75-4.45c-0.467-1.534-1.066-2.917-1.8-4.15c0,0.633-0.117,1.333-0.351,2.1
		c-0.1,0.434-0.283,1.05-0.55,1.85c0.033-0.967-0.267-2.067-0.899-3.3c-0.2,0.767-0.884,1.933-2.051,3.5
		c-0.733,1.367-1.6,2.683-2.6,3.95c0.833-2.066,1.2-4.45,1.1-7.15c0,0.332-0.216,0.815-0.649,1.45c0.219-0.342-0.631-1.109-2.55-2.3
		l-3.5-2.2c0,0.6,0.216,1.183,0.649,1.75c0.101,0.1,0.533,0.566,1.3,1.4c-1.866-0.867-2.899-1.35-3.1-1.45
		c-1.2-0.667-2.083-1.4-2.65-2.2c0.267,0.767,0.483,1.267,0.65,1.5c-1.134-0.7-1.866-1.4-2.2-2.1c-0.166,0.633-0.649,1.4-1.45,2.3
		c-0.066-0.2-0.116-0.517-0.149-0.95c-0.066-0.534-0.05-0.817,0.05-0.85c-1.8,0.8-2.783,1.233-2.95,1.3
		c-1.233,0.434-2.233,0.55-3,0.35c0.834-0.867,1.267-1.317,1.3-1.35c0.432-0.531,0.782-1.064,1.051-1.6
		c-0.18,0.335-1.246,0.618-3.2,0.85c-1.8,0.233-3,0.317-3.601,0.25c0.534-0.367,1-0.883,1.4-1.55c0.4-0.667,0.616-1.333,0.65-2
		c-1.934,1.333-4.534,2.683-7.801,4.05c0.2-0.767,0.7-1.467,1.5-2.1c-0.966,0.5-1.566,0.8-1.8,0.9c-0.7,0.3-1.316,0.417-1.85,0.35
		c0.2-0.1,0.45-0.283,0.75-0.55c-1.934,0.267-3.4,0.417-4.4,0.45c-1.666,0.1-3.1-0.117-4.3-0.65c0.333,1.034,0.983,1.767,1.95,2.2
		c-0.8-0.267-1.617-0.7-2.45-1.3c-0.933-0.8-1.65-1.4-2.15-1.8c0.032,0.58,0.19,1.238,0.475,1.975
		c-0.11-0.226-0.418-0.518-0.925-0.875c-0.6-0.5-0.967-0.833-1.1-1c-0.933-1.2-1.383-2.517-1.35-3.95
		c-0.8,2.767-0.617,5.617,0.55,8.55c-2.433-4.633-3.05-8.217-1.85-10.75c-0.566,0.833-1,1.883-1.3,3.15
		c-0.3,1.167-0.434,2.3-0.4,3.4c-0.82-2.1-0.896-4.083-0.225-5.95c-1.086,2.735-3.294,4.185-6.625,4.35
		c0.267,0.3,0.733,0.65,1.4,1.05c-3.033-0.233-5.533-0.95-7.5-2.15l0.9,1.5c-0.867-0.5-1.6-0.867-2.2-1.1c0.1,0.2,0.233,0.533,0.4,1
		c-2.3-1.4-3.917-2.5-4.85-3.3c0.033,0.333-0.017,0.8-0.15,1.4c-0.1,0.433-0.317,0.9-0.65,1.4c-0.1-1.267-0.717-2.35-1.85-3.25
		c0.033,0.233,0.033,0.617,0,1.15c-0.767-0.933-1.867-1.833-3.3-2.7c-1.667-0.966-2.9-1.733-3.7-2.3
		c0.233,0.333,0.417,0.767,0.55,1.3c0.1,0.333,0.217,0.817,0.35,1.45c-0.133-0.567-0.667-1.2-1.6-1.9
		c-1.033-0.733-1.717-1.233-2.05-1.5C13,20.65,11.167,19.7,9.1,19c0.333,0.333,0.783,0.817,1.35,1.45
		c0.533,0.533,1.05,0.95,1.55,1.25c-0.967,0-2.1-0.4-3.4-1.2c-1.833-1.133-2.9-1.767-3.2-1.9c-1.233-0.5-2.267-0.817-3.1-0.95
		C1.767,17.55,1,17.5,0,17.5v-5.4c2.167,0.2,4.533,0.1,7.1-0.3c0.867-0.1,3.467-0.367,7.8-0.8c3.667-0.333,7.9-0.367,12.7-0.1
		c1.533,0.1,5.75,0.45,12.65,1.05c1.167,0.133,3.083,0.383,5.75,0.75c2.433,0.3,4.35,0.3,5.75,0c1.167-0.233,2.483-0.95,3.95-2.15
		c1.8-1.433,3.017-2.3,3.649-2.6c2.334-1.167,5.034-1.934,8.101-2.3c3-0.4,6.366-0.167,10.1,0.7c2.4,0.566,5.65,1.6,9.75,3.1
		C92.934,11.483,97.184,13.8,100.05,16.4z"/>
	<path style="fill-rule:evenodd;clip-rule:evenodd;fill:#3E9A9D;" d="M84.95,27.95c-3.667-1.2-6.017-1.934-7.05-2.2
		C77.6,25.65,77,25.533,76.1,25.4c-3-0.4-7.833-0.233-14.5,0.5c-4.966,0.533-8.05,0.2-9.25-1c-1.3-1.3-1.45-2.75-0.45-4.35
		c0.833-1.367,2.267-2.566,4.3-3.6c-1.767,0.2-4.217,1.367-7.35,3.5c-3.4,2.267-5.9,3.617-7.5,4.05
		c-4.167,1.067-9.283-0.033-15.35-3.3c-3.3-1.9-5.767-3.284-7.4-4.15c-2.867-1.533-5.35-2.566-7.45-3.1
		c-3.167-0.8-6.883-1.167-11.15-1.1c-0.033,0,0-4.1,0.1-12.3c1.733,0.034,10.75-0.066,27.05-0.3c15.467-0.233,24.017-0.3,25.65-0.2
		c7.767,0.434,14.066,1.1,18.9,2c7,1.267,12.983,3.267,17.95,6c8.066,4.467,12.633,9.083,13.699,13.85
		c1.434,6.367-1.616,9.1-9.149,8.2C91.733,29.8,88.65,29.083,84.95,27.95z"/>
	
		<use xlink:href="#flash0.ai_x2F_Layer_3_x2F__x3C_Path_x3E__x5F_13"  width="10.028" height="9.795" x="-0.012" y="-9.8" transform="matrix(1 0 0 -1 38.1499 53)" style="overflow:visible;opacity:0.6289;enable-background:new    ;"/>
	
		<use xlink:href="#flash0.ai_x2F_Layer_3_x2F__x3C_Path_x3E__x5F_12"  width="9.516" height="9.691" x="-0.014" y="-9.704" transform="matrix(1 0 0 -1 8.7002 87.25)" style="overflow:visible;opacity:0.6289;enable-background:new    ;"/>
	
		<use xlink:href="#flash0.ai_x2F_Layer_3_x2F__x3C_Path_x3E__x5F_11"  width="5.978" height="6.072" x="-0.025" y="-6.056" transform="matrix(1 0 0 -1 33.6001 103.3496)" style="overflow:visible;opacity:0.6289;enable-background:new    ;"/>
	
		<use xlink:href="#flash0.ai_x2F_Layer_3_x2F__x3C_Path_x3E__x5F_10"  width="5.568" height="5.383" x="-0.006" y="-5.4" transform="matrix(1 0 0 -1 5.9502 50.0498)" style="overflow:visible;opacity:0.6289;enable-background:new    ;"/>
	
		<use xlink:href="#flash0.ai_x2F_Layer_3_x2F__x3C_Path_x3E__x5F_9"  width="5.568" height="5.434" x="-0.006" y="-5.45" transform="matrix(1 0 0 -1 19.2002 76.3496)" style="overflow:visible;opacity:0.6289;enable-background:new    ;"/>
	
		<use xlink:href="#flash0.ai_x2F_Layer_3_x2F__x3C_Path_x3E__x5F_8"  width="8.082" height="8.537" x="0.034" y="-8.557" transform="matrix(1 0 0 -1 56.4004 99.2998)" style="overflow:visible;opacity:0.6289;enable-background:new    ;"/>
	
		<use xlink:href="#flash0.ai_x2F_Layer_3_x2F__x3C_Path_x3E__x5F_7"  width="13.366" height="13.407" x="-0.003" y="-13.419" transform="matrix(1 0 0 -1 26.1499 63.7002)" style="overflow:visible;opacity:0.6289;enable-background:new    ;"/>
	
		<use xlink:href="#flash0.ai_x2F_Layer_3_x2F__x3C_Path_x3E__x5F_6"  width="16.754" height="16.35" x="-0.017" y="-16.35" transform="matrix(1 0 0 -1 5.9502 61)" style="overflow:visible;opacity:0.6289;enable-background:new    ;"/>
	
		<use xlink:href="#flash0.ai_x2F_Layer_3_x2F__x3C_Path_x3E__x5F_5"  width="15.645" height="15.278" x="-0.017" y="-15.25" transform="matrix(1 0 0 -1 42.5 103.75)" style="overflow:visible;opacity:0.6289;enable-background:new    ;"/>
	
		<use xlink:href="#flash0.ai_x2F_Layer_3_x2F__x3C_Path_x3E__x5F_4"  width="22.68" height="22.15" y="-22.137" transform="matrix(1 0 0 -1 14.4502 39.6499)" style="overflow:visible;opacity:0.6289;enable-background:new    ;"/>
	
		<use xlink:href="#flash0.ai_x2F_Layer_3_x2F__x3C_Path_x3E__x5F_3"  width="4.461" height="4.39" x="0.043" y="-4.4" transform="matrix(1 0 0 -1 47.8999 79.1504)" style="overflow:visible;opacity:0.6289;enable-background:new    ;"/>
	
		<use xlink:href="#flash0.ai_x2F_Layer_3_x2F__x3C_Path_x3E__x5F_2"  width="4.074" height="5.483" x="-0.007" y="-5.5" transform="matrix(1 0 0 -1 73.5996 57.3999)" style="overflow:visible;opacity:0.6289;enable-background:new    ;"/>
	
		<use xlink:href="#flash0.ai_x2F_Layer_3_x2F__x3C_Path_x3E__x5F_1"  width="10.814" height="13.301" x="-0.024" y="-13.301" transform="matrix(1 0 0 -1 75.6504 43.7002)" style="overflow:visible;opacity:0.6289;enable-background:new    ;"/>
	
		<use xlink:href="#flash0.ai_x2F_Layer_3_x2F__x3C_Path_x3E_"  width="10.959" height="10.824" x="-0.008" y="-10.817" transform="matrix(1 0 0 -1 45.75 90.9502)" style="overflow:visible;opacity:0.6289;enable-background:new    ;"/>
	<g>
		
			<use xlink:href="#flash0.ai_x2F_Layer_3_x2F__x3C_Path_x3E__x5F_1_x5F_0"  width="9.763" height="15.943" x="-0.007" y="-15.926" transform="matrix(1 0 0 -1 65.1504 78.0996)" style="overflow:visible;opacity:0.2891;enable-background:new    ;"/>
		
			<radialGradient id="SVGID_6_" cx="84.0947" cy="81.2637" r="8.4297" gradientTransform="matrix(0.9921 0.1258 0.2569 -2.0255 -31.1062 245.2189)" gradientUnits="userSpaceOnUse">
			<stop  offset="0" style="stop-color:#43485A"/>
			<stop  offset="0.4314" style="stop-color:#382966"/>
			<stop  offset="0.5608" style="stop-color:#2D224C"/>
			<stop  offset="0.7373" style="stop-color:#211B2F"/>
			<stop  offset="0.8902" style="stop-color:#1A171D"/>
			<stop  offset="1" style="stop-color:#171517"/>
		</radialGradient>
		<path style="fill-rule:evenodd;clip-rule:evenodd;fill:url(#SVGID_6_);" d="M73.95,86.2c-0.233,2.033-0.867,3.717-1.9,5.05
			S69.9,93.167,68.7,93c-1.2-0.134-2.134-0.983-2.8-2.55c-0.634-1.533-0.834-3.316-0.601-5.351c0.267-2.033,0.9-3.716,1.9-5.05
			c1.033-1.333,2.149-1.934,3.35-1.8c1.2,0.167,2.134,1.017,2.8,2.55C74.017,82.333,74.217,84.134,73.95,86.2z"/>
	</g>
	<g>
		<g>
			
				<use xlink:href="#flash0.ai_x2F_Layer_3_x2F__x3C_Path_x3E__x5F_1_x5F_1"  width="18.688" height="28.225" x="-0.013" y="-28.197" transform="matrix(1 0 0 -1 53.8496 47.5)" style="overflow:visible;opacity:0.2891;enable-background:new    ;"/>
			
				<radialGradient id="SVGID_7_" cx="81.9385" cy="52.604" r="15.8421" gradientTransform="matrix(0.9547 0.2975 0.3874 -1.4929 -33.6087 129.5065)" gradientUnits="userSpaceOnUse">
				<stop  offset="0" style="stop-color:#43485A"/>
				<stop  offset="0.4314" style="stop-color:#3D2940"/>
				<stop  offset="0.6" style="stop-color:#2D212F"/>
				<stop  offset="0.8314" style="stop-color:#1D181D"/>
				<stop  offset="1" style="stop-color:#171517"/>
			</radialGradient>
			<path style="fill-rule:evenodd;clip-rule:evenodd;fill:url(#SVGID_7_);" d="M70.35,63.1c-0.933,3.534-2.483,6.334-4.649,8.4
				c-2.167,2.033-4.334,2.717-6.5,2.05c-2.167-0.666-3.684-2.5-4.55-5.5c-0.9-3-0.884-6.267,0.05-9.8s2.483-6.317,4.649-8.35
				c2.167-2.033,4.334-2.717,6.5-2.05c2.167,0.667,3.7,2.5,4.601,5.5C71.316,56.317,71.283,59.567,70.35,63.1z"/>
		</g>
		<g>
			
				<use xlink:href="#flash0.ai_x2F_Layer_3_x2F__x3C_Path_x3E__x5F_5_x5F_0"  width="5.015" height="6.055" x="-0.003" y="-6.053" transform="matrix(1 0 0 -1 56.4502 54.4502)" style="overflow:visible;opacity:0.6289;enable-background:new    ;"/>
			
				<use xlink:href="#flash0.ai_x2F_Layer_3_x2F__x3C_Path_x3E__x5F_4_x5F_0"  width="5.056" height="5.856" x="-0.003" y="-5.853" transform="matrix(1 0 0 -1 62.5996 54.75)" style="overflow:visible;opacity:0.3516;enable-background:new    ;"/>
			
				<use xlink:href="#flash0.ai_x2F_Layer_3_x2F__x3C_Path_x3E__x5F_3_x5F_0"  width="3.1" height="3.409" y="-3.404" transform="matrix(1 0 0 -1 57.8496 56.2002)" style="overflow:visible;opacity:0.3789;enable-background:new    ;"/>
			
				<use xlink:href="#flash0.ai_x2F_Layer_3_x2F__x3C_Path_x3E__x5F_2_x5F_0"  width="3.105" height="3.404" y="-3.404" transform="matrix(1 0 0 -1 63.9004 56.3999)" style="overflow:visible;opacity:0.3789;enable-background:new    ;"/>
			
				<use xlink:href="#flash0.ai_x2F_Layer_3_x2F__x3C_Path_x3E__x5F_1_x5F_2"  width="3.942" height="4" x="0.004" y="-4" transform="matrix(1 0 0 -1 64.0498 56.9502)" style="overflow:visible;opacity:0.0898;enable-background:new    ;"/>
			
				<use xlink:href="#flash0.ai_x2F_Layer_3_x2F__x3C_Path_x3E__x5F_0"  width="3.919" height="4" x="0.027" y="-4" transform="matrix(1 0 0 -1 57.8496 56.6001)" style="overflow:visible;opacity:0.0898;enable-background:new    ;"/>
		</g>
	</g>
</g>
</svg>
