<?xml version="1.0" encoding="iso-8859-1"?>
<!-- Generator: Adobe Illustrator 15.1.0, SVG Export Plug-In . SVG Version: 6.00 Build 0)  -->
<!DOCTYPE svg PUBLIC "-//W3C//DTD SVG 1.1//EN" "http://www.w3.org/Graphics/SVG/1.1/DTD/svg11.dtd">
<svg version="1.1" id="Layer_3" xmlns="http://www.w3.org/2000/svg" xmlns:xlink="http://www.w3.org/1999/xlink" x="0px" y="0px"
	 width="703.5px" height="92.45px" viewBox="0 0 703.5 92.45" style="enable-background:new 0 0 703.5 92.45;" xml:space="preserve"
	>
<path style="fill-rule:evenodd;clip-rule:evenodd;fill:#3E9A9D;" d="M685.55,82.25c-6.467,1.366-16.483,2.417-30.05,3.15
	c-3.467,0.199-8.467,0.133-15-0.2c-6.8-0.334-11.8-0.434-15-0.3c-2.066,0.1-6.3,0.6-12.7,1.5c-5.166,0.733-9.416,0.966-12.75,0.699
	c-16.533-1.333-31.416-1.199-44.649,0.4c-9.434,1.167-17.25,1.8-23.45,1.9c-8.167,0.133-15.967-0.5-23.4-1.9
	c-8.133-1.533-17.833-1.75-29.1-0.65c-6.2,0.7-10.9,1.217-14.101,1.551c-5.566,0.566-10.483,0.866-14.75,0.899
	c-5.267,0.033-12.3-0.316-21.1-1.05c-10.366-0.9-17.4-1.417-21.1-1.55c-4.9-0.167-11.134,0.184-18.7,1.05
	c-9.667,1.1-15.884,1.717-18.65,1.85c-5.899,0.301-12.583,0.217-20.05-0.25c-2.9-0.166-9.567-0.699-20-1.6
	c-4.667-0.4-10.033-0.333-16.1,0.2c-7.1,0.8-12.467,1.383-16.1,1.75c-5.833,0.6-12.55,0.6-20.15,0
	c-8.833-0.934-15.517-1.617-20.05-2.05c-6.1-0.601-12.783-0.5-20.05,0.3c-8.433,1.2-14.933,2.083-19.5,2.649
	c-13.633,1.7-30.45,2.233-50.45,1.601c-22.5-1.134-39.333-1.8-50.5-2c-5.333-0.134-12.367,0.05-21.1,0.55
	c-17.167,0.833-33.833,0.55-50-0.85c-22.633-1.934-36.733-5.817-42.3-11.65c-7.5-7.9-6.034-15.167,4.4-21.8
	c6-3.834,17.867-8.566,35.6-14.2c5.566-1.767,13.4-4.267,23.5-7.5c8.1-2.7,14.5-5.2,19.2-7.5c2.967-1.467,7.283-3.75,12.95-6.85
	c5.133-2.7,9.65-4.7,13.55-6c10.033-3.367,20.45-5.7,31.25-7c10.7-1.267,21.367-1.467,32-0.6c9.533,0.8,16.75,1.167,21.65,1.1
	c7.4-0.1,14.5-1,21.3-2.7c14-3.534,29.583-5.267,46.75-5.2c12.033,0.033,27.867,1.083,47.5,3.15
	c24.233,2.533,40.05,4.017,47.45,4.45c7.167,0.433,18.084-0.35,32.75-2.35c14.367-1.967,25.367-2.667,33-2.1
	c6,0.467,14.017,2.067,24.05,4.8c11.7,3.167,19.667,5.1,23.9,5.8c6.733,1.1,14.483,1.717,23.25,1.85
	c2.634,0.033,10.35-0.033,23.15-0.2c19.6-0.267,35.116,1.184,46.55,4.35c5,1.4,14.2,4.333,27.6,8.8
	c11.5,3.833,20.7,6.55,27.601,8.15c21.6,5,40.55,10.633,56.85,16.899c4.134,1.601,8.167,3.5,12.1,5.7
	c5.7,3.167,9.067,5.917,10.101,8.25C705.733,74.316,700.017,79.217,685.55,82.25z"/>
</svg>
