<?xml version="1.0" encoding="iso-8859-1"?>
<!-- Generator: Adobe Illustrator 15.1.0, SVG Export Plug-In . SVG Version: 6.00 Build 0)  -->
<!DOCTYPE svg PUBLIC "-//W3C//DTD SVG 1.1//EN" "http://www.w3.org/Graphics/SVG/1.1/DTD/svg11.dtd">
<svg version="1.1" id="Layer_3" xmlns="http://www.w3.org/2000/svg" xmlns:xlink="http://www.w3.org/1999/xlink" x="0px" y="0px"
	 width="317.2px" height="126.8px" viewBox="0 0 317.2 126.8" style="enable-background:new 0 0 317.2 126.8;" xml:space="preserve"
	>
<symbol  id="flash0.ai_x2F_Layer_3_x2F__x3C_Path_x3E_" viewBox="-0.007 -14.294 13.957 14.302">
	<g id="Layer_1_50_">
		<path style="fill-rule:evenodd;clip-rule:evenodd;fill:#1F1A1C;" d="M0.05-6.55c0.133,2.066,0.417,3.4,0.85,4
			C1.1-2.25,2.467-1.733,5-1s4.033,1.067,4.5,1c0.667-0.167,1.583-1.35,2.75-3.55c1.1-2.067,1.667-3.5,1.7-4.3
			c0-0.667-0.833-1.867-2.5-3.6c-1.667-1.667-2.883-2.6-3.65-2.8c-0.667-0.2-1.983,0.283-3.95,1.45c-1.7,1.033-2.867,1.883-3.5,2.55
			C0.017-9.883-0.083-8.65,0.05-6.55z"/>
	</g>
</symbol>
<symbol  id="flash0.ai_x2F_Layer_3_x2F__x3C_Path_x3E__x5F_1" viewBox="-0.038 -19.152 19.199 19.131">
	<g id="Layer_1_49_">
		<path style="fill-rule:evenodd;clip-rule:evenodd;fill:#1F1A1C;" d="M11.95-0.1c0.466-0.133,1.767-1.617,3.9-4.45
			c2.1-2.867,3.2-4.6,3.3-5.2c0.133-0.933-0.917-2.65-3.15-5.15c-2.1-2.367-3.65-3.75-4.65-4.15c-0.833-0.333-2.733,0.15-5.7,1.45
			c-2.867,1.3-4.633,2.4-5.3,3.3c-0.533,0.767-0.517,2.65,0.05,5.65c0.5,2.667,1.017,4.533,1.55,5.6c0.333,0.6,1.833,1.3,4.5,2.1
			C9.15-0.15,10.983,0.133,11.95-0.1z"/>
	</g>
</symbol>
<symbol  id="flash0.ai_x2F_Layer_3_x2F__x3C_Path_x3E__x5F_10" viewBox="-0.01 -14.415 14.479 14.458">
	<g id="Layer_1_40_">
		<path style="fill-rule:evenodd;clip-rule:evenodd;fill:#1F1A1C;" d="M8.95-0.3c2.133-0.434,3.466-0.9,4-1.4
			c0.267-0.233,0.617-1.716,1.05-4.45c0.433-2.7,0.567-4.267,0.4-4.7c-0.233-0.7-1.55-1.5-3.95-2.4C8.15-14.117,6.6-14.5,5.8-14.4
			c-0.7,0.066-1.816,1.083-3.35,3.05C0.95-9.45,0.133-8.083,0-7.25c-0.1,0.7,0.583,1.983,2.05,3.85C3.317-1.8,4.333-0.717,5.1-0.15
			C5.533,0.15,6.817,0.1,8.95-0.3z"/>
	</g>
</symbol>
<symbol  id="flash0.ai_x2F_Layer_3_x2F__x3C_Path_x3E__x5F_11" viewBox="-0.004 -5.675 5.629 5.691">
	<g id="Layer_1_39_">
		<path style="fill-rule:evenodd;clip-rule:evenodd;fill:#1F1A1C;" d="M4.15-0.45c0.8-0.4,1.267-0.716,1.4-0.95
			c0.1-0.133,0.1-0.75,0-1.85C5.417-4.317,5.3-4.933,5.2-5.1C5.033-5.333,4.45-5.5,3.45-5.6S1.8-5.7,1.5-5.6
			C1.267-5.5,0.95-5,0.55-4.1C0.15-3.2-0.033-2.583,0-2.25c0.033,0.3,0.417,0.733,1.15,1.3C1.817-0.45,2.317-0.133,2.65,0
			C2.85,0.067,3.35-0.083,4.15-0.45z"/>
	</g>
</symbol>
<symbol  id="flash0.ai_x2F_Layer_3_x2F__x3C_Path_x3E__x5F_12" viewBox="0.011 -5.375 5.443 5.338">
	<g id="Layer_1_38_">
		<path style="fill-rule:evenodd;clip-rule:evenodd;fill:#1F1A1C;" d="M4-0.15C4.2-0.217,4.5-0.6,4.9-1.3
			C5.3-2,5.483-2.483,5.45-2.75c0-0.167-0.333-0.633-1-1.4c-0.7-0.767-1.133-1.167-1.3-1.2c-0.267-0.1-0.8,0.1-1.6,0.6
			C0.75-4.317,0.267-3.967,0.1-3.7c-0.133,0.2-0.117,0.75,0.05,1.65c0.2,0.9,0.4,1.466,0.6,1.7c0.167,0.2,0.7,0.3,1.6,0.3
			C3.15-0.017,3.7-0.05,4-0.15z"/>
	</g>
</symbol>
<symbol  id="flash0.ai_x2F_Layer_3_x2F__x3C_Path_x3E__x5F_13" viewBox="-0.004 -5.29 5.294 5.307">
	<g id="Layer_1_37_">
		<path style="fill-rule:evenodd;clip-rule:evenodd;fill:#1F1A1C;" d="M3.9-0.4c0.733-0.367,1.184-0.667,1.35-0.9
			C5.317-1.433,5.3-2,5.2-3C5.1-4.033,5-4.617,4.9-4.75c-0.133-0.233-0.683-0.4-1.65-0.5c-0.9-0.067-1.5-0.05-1.8,0.05
			C1.217-5.133,0.9-4.667,0.5-3.8C0.133-3-0.033-2.433,0-2.1c0.033,0.267,0.417,0.667,1.15,1.2c0.6,0.467,1.067,0.767,1.4,0.9
			C2.717,0.067,3.167-0.067,3.9-0.4z"/>
	</g>
</symbol>
<symbol  id="flash0.ai_x2F_Layer_3_x2F__x3C_Path_x3E__x5F_14" viewBox="-0.005 -4.925 4.845 4.893">
	<g id="Layer_1_36_">
		<path style="fill-rule:evenodd;clip-rule:evenodd;fill:#1F1A1C;" d="M3.55-0.4C4.217-0.733,4.633-1,4.8-1.2
			c0.067-0.133,0.05-0.667-0.05-1.6C4.65-3.733,4.567-4.267,4.5-4.4C4.367-4.6,3.85-4.75,2.95-4.85c-0.833-0.1-1.383-0.1-1.65,0
			c-0.233,0.1-0.517,0.533-0.85,1.3C0.117-2.75-0.033-2.217,0-1.95c0.033,0.233,0.367,0.6,1,1.1c0.567,0.434,1,0.7,1.3,0.8
			C2.467,0.017,2.883-0.1,3.55-0.4z"/>
	</g>
</symbol>
<symbol  id="flash0.ai_x2F_Layer_3_x2F__x3C_Path_x3E__x5F_15" viewBox="-0.013 -5.775 5.703 5.79">
	<g id="Layer_1_35_">
		<path style="fill-rule:evenodd;clip-rule:evenodd;fill:#1F1A1C;" d="M4.2-0.45c0.8-0.4,1.283-0.733,1.45-1
			C5.717-1.583,5.7-2.2,5.6-3.3C5.5-4.4,5.4-5.033,5.3-5.2C5.133-5.433,4.533-5.6,3.5-5.7c-1-0.1-1.65-0.1-1.95,0
			c-0.267,0.1-0.6,0.617-1,1.55C0.117-3.25-0.067-2.633,0-2.3C0.033-2,0.433-1.567,1.2-1c0.667,0.533,1.167,0.867,1.5,1
			C2.9,0.067,3.4-0.083,4.2-0.45z"/>
	</g>
</symbol>
<symbol  id="flash0.ai_x2F_Layer_3_x2F__x3C_Path_x3E__x5F_16" viewBox="-0.005 -3.9 4.012 3.912">
	<g id="Layer_1_34_">
		<path style="fill-rule:evenodd;clip-rule:evenodd;fill:#1F1A1C;" d="M2.2,0c0.6-0.033,0.983-0.117,1.15-0.25
			c0.066-0.067,0.2-0.467,0.4-1.2C3.95-2.15,4.033-2.567,4-2.7C3.967-2.9,3.633-3.15,3-3.45C2.4-3.75,1.983-3.9,1.75-3.9
			c-0.167,0-0.483,0.233-0.95,0.7C0.333-2.7,0.067-2.35,0-2.15c-0.033,0.2,0.117,0.566,0.45,1.1c0.3,0.5,0.533,0.816,0.7,0.95
			C1.283,0,1.633,0.033,2.2,0z"/>
	</g>
</symbol>
<symbol  id="flash0.ai_x2F_Layer_3_x2F__x3C_Path_x3E__x5F_17" viewBox="-0.013 -5.55 5.718 5.533">
	<g id="Layer_1_33_">
		<path style="fill-rule:evenodd;clip-rule:evenodd;fill:#1F1A1C;" d="M5.3-2.05c0.3-1.034,0.434-1.633,0.4-1.8
			C5.633-4.117,5.167-4.467,4.3-4.9C3.433-5.333,2.85-5.55,2.55-5.55c-0.3,0-0.783,0.333-1.45,1C0.433-3.883,0.067-3.383,0-3.05
			C-0.067-2.783,0.133-2.267,0.6-1.5c0.467,0.7,0.816,1.15,1.05,1.35c0.133,0.133,0.633,0.167,1.5,0.1
			c0.8-0.067,1.333-0.184,1.6-0.35C4.85-0.467,5.033-1.017,5.3-2.05z"/>
	</g>
</symbol>
<symbol  id="flash0.ai_x2F_Layer_3_x2F__x3C_Path_x3E__x5F_18" viewBox="0.031 -8.1 8.282 8.106">
	<g id="Layer_1_32_">
		<path style="fill-rule:evenodd;clip-rule:evenodd;fill:#1F1A1C;" d="M6.9-0.55c0.167-0.133,0.45-0.934,0.85-2.4
			c0.433-1.466,0.617-2.333,0.55-2.6c-0.1-0.4-0.783-0.934-2.05-1.6C5.017-7.783,4.167-8.1,3.7-8.1c-0.4,0-1.083,0.5-2.05,1.5
			s-1.5,1.717-1.6,2.15c-0.1,0.4,0.2,1.167,0.9,2.3c0.6,0.967,1.1,1.633,1.5,2c0.233,0.167,0.95,0.2,2.15,0.1
			C5.8-0.15,6.567-0.317,6.9-0.55z"/>
	</g>
</symbol>
<symbol  id="flash0.ai_x2F_Layer_3_x2F__x3C_Path_x3E__x5F_19" viewBox="0.037 -5 5.083 4.983">
	<g id="Layer_1_31_">
		<path style="fill-rule:evenodd;clip-rule:evenodd;fill:#1F1A1C;" d="M1.5-0.15c0.167,0.133,0.617,0.167,1.35,0.1
			c0.733-0.067,1.2-0.167,1.4-0.3c0.133-0.066,0.317-0.566,0.55-1.5c0.267-0.9,0.367-1.433,0.3-1.6c-0.033-0.267-0.45-0.6-1.25-1
			C3.117-4.817,2.6-5,2.3-5C2.067-5,1.65-4.7,1.05-4.1c-0.6,0.633-0.933,1.083-1,1.35c-0.066,0.233,0.117,0.7,0.55,1.4
			C0.967-0.75,1.267-0.35,1.5-0.15z"/>
	</g>
</symbol>
<symbol  id="flash0.ai_x2F_Layer_3_x2F__x3C_Path_x3E__x5F_2" viewBox="0.01 -15.963 16.106 15.969">
	<g id="Layer_1_48_">
		<path style="fill-rule:evenodd;clip-rule:evenodd;fill:#1F1A1C;" d="M13.25-3.25c1.733-2.033,2.683-3.517,2.85-4.45
			c0.133-0.767-0.583-2.2-2.15-4.3c-1.367-1.867-2.45-3.1-3.25-3.7c-0.467-0.367-1.883-0.35-4.25,0.05
			c-2.333,0.367-3.833,0.816-4.5,1.35c-0.3,0.267-0.733,1.9-1.3,4.9c-0.533,2.967-0.733,4.7-0.6,5.2
			c0.233,0.767,1.667,1.684,4.3,2.75C6.817-0.417,8.517,0.067,9.45,0C10.217-0.067,11.483-1.15,13.25-3.25z"/>
	</g>
</symbol>
<symbol  id="flash0.ai_x2F_Layer_3_x2F__x3C_Path_x3E__x5F_20" viewBox="-0.013 -5.55 5.681 5.583">
	<g id="Layer_1_30_">
		<path style="fill-rule:evenodd;clip-rule:evenodd;fill:#1F1A1C;" d="M3.1,0c0.833-0.067,1.367-0.183,1.6-0.35
			C4.833-0.45,5.033-1,5.3-2c0.3-1.033,0.417-1.633,0.35-1.8c-0.066-0.267-0.533-0.633-1.4-1.1C3.383-5.333,2.8-5.55,2.5-5.55
			c-0.267,0-0.733,0.333-1.4,1c-0.667,0.7-1.033,1.2-1.1,1.5C-0.067-2.783,0.133-2.267,0.6-1.5c0.433,0.7,0.783,1.167,1.05,1.4
			C1.783,0.033,2.267,0.067,3.1,0z"/>
	</g>
</symbol>
<symbol  id="flash0.ai_x2F_Layer_3_x2F__x3C_Path_x3E__x5F_21" viewBox="-0.011 -6.05 6.179 6.056">
	<g id="Layer_1_29_">
		<path style="fill-rule:evenodd;clip-rule:evenodd;fill:#1F1A1C;" d="M3.4-0.05c0.9-0.067,1.467-0.2,1.7-0.4
			c0.133-0.1,0.367-0.7,0.7-1.8c0.3-1.1,0.417-1.733,0.35-1.9c-0.066-0.3-0.583-0.7-1.55-1.2c-0.9-0.467-1.517-0.7-1.85-0.7
			c-0.3,0-0.817,0.367-1.55,1.1C0.467-4.217,0.067-3.683,0-3.35c-0.067,0.3,0.167,0.867,0.7,1.7c0.433,0.733,0.8,1.233,1.1,1.5
			C1.967,0.017,2.5,0.05,3.4-0.05z"/>
	</g>
</symbol>
<symbol  id="flash0.ai_x2F_Layer_3_x2F__x3C_Path_x3E__x5F_22" viewBox="-0.024 -6 6.179 6.006">
	<g id="Layer_1_28_">
		<path style="fill-rule:evenodd;clip-rule:evenodd;fill:#1F1A1C;" d="M3.4-0.05c0.9-0.067,1.467-0.2,1.7-0.4
			c0.133-0.066,0.35-0.667,0.65-1.8c0.3-1.067,0.433-1.7,0.4-1.9C6.083-4.45,5.567-4.833,4.6-5.3C3.667-5.767,3.033-6,2.7-6
			C2.4-6,1.9-5.633,1.2-4.9C0.467-4.167,0.067-3.633,0-3.3C-0.1-3,0.117-2.45,0.65-1.65C1.117-0.917,1.5-0.417,1.8-0.15
			C1.967,0.017,2.5,0.05,3.4-0.05z"/>
	</g>
</symbol>
<symbol  id="flash0.ai_x2F_Layer_3_x2F__x3C_Path_x3E__x5F_23" viewBox="0.018 -12.8 13.052 12.789">
	<g id="Layer_1_27_">
		<path style="fill-rule:evenodd;clip-rule:evenodd;fill:#1F1A1C;" d="M10.9-0.9c0.267-0.2,0.717-1.483,1.35-3.85
			c0.633-2.333,0.9-3.7,0.8-4.1c-0.133-0.633-1.216-1.467-3.25-2.5c-1.9-0.967-3.216-1.45-3.95-1.45c-0.633,0-1.717,0.783-3.25,2.35
			c-1.5,1.534-2.35,2.667-2.55,3.4c-0.167,0.633,0.317,1.833,1.45,3.6C2.467-1.883,3.25-0.833,3.85-0.3c0.367,0.3,1.5,0.367,3.4,0.2
			C9.15-0.233,10.367-0.5,10.9-0.9z"/>
	</g>
</symbol>
<symbol  id="flash0.ai_x2F_Layer_3_x2F__x3C_Path_x3E__x5F_24" viewBox="-0.024 -11 11.335 11.017">
	<g id="Layer_1_26_">
		<path style="fill-rule:evenodd;clip-rule:evenodd;fill:#1F1A1C;" d="M6.2-0.05c1.667-0.133,2.733-0.367,3.2-0.7
			c0.233-0.167,0.633-1.267,1.2-3.3c0.533-2,0.767-3.184,0.7-3.55c-0.133-0.533-1.083-1.25-2.85-2.15C6.783-10.583,5.633-11,5-11
			c-0.533,0-1.467,0.667-2.8,2C0.933-7.667,0.2-6.683,0-6.05c-0.133,0.533,0.283,1.566,1.25,3.1c0.833,1.333,1.517,2.233,2.05,2.7
			C3.6,0.017,4.567,0.083,6.2-0.05z"/>
	</g>
</symbol>
<symbol  id="flash0.ai_x2F_Layer_3_x2F__x3C_Path_x3E__x5F_25" viewBox="0.015 -11.85 12.106 11.862">
	<g id="Layer_1_25_">
		<path style="fill-rule:evenodd;clip-rule:evenodd;fill:#1F1A1C;" d="M11.35-4.35c0.6-2.167,0.85-3.433,0.75-3.8
			c-0.133-0.567-1.133-1.333-3-2.3c-1.8-0.933-3.033-1.4-3.7-1.4c-0.566,0-1.566,0.733-3,2.2C1-8.217,0.217-7.167,0.05-6.5
			c-0.167,0.567,0.267,1.667,1.3,3.3c0.933,1.467,1.667,2.434,2.2,2.9C3.883,0,4.933,0.083,6.7-0.05c1.767-0.167,2.9-0.434,3.4-0.8
			C10.333-1.017,10.75-2.183,11.35-4.35z"/>
	</g>
</symbol>
<symbol  id="flash0.ai_x2F_Layer_3_x2F__x3C_Path_x3E__x5F_26" viewBox="-0.037 -16.4 16.803 16.4">
	<g id="Layer_1_24_">
		<path style="fill-rule:evenodd;clip-rule:evenodd;fill:#1F1A1C;" d="M13.95-1.15c0.333-0.267,0.917-1.9,1.75-4.9
			c0.8-3,1.15-4.75,1.05-5.25c-0.167-0.8-1.567-1.867-4.2-3.2c-2.466-1.267-4.167-1.9-5.1-1.9c-0.8,0-2.184,1-4.15,3
			C1.367-11.433,0.267-9.983,0-9.05c-0.2,0.8,0.417,2.333,1.85,4.6C3.117-2.417,4.133-1.067,4.9-0.4C5.367,0,6.817,0.1,9.25-0.1
			C11.683-0.3,13.25-0.65,13.95-1.15z"/>
	</g>
</symbol>
<symbol  id="flash0.ai_x2F_Layer_3_x2F__x3C_Path_x3E__x5F_27" viewBox="-0.02 -7.3 7.486 7.278">
	<g id="Layer_1_23_">
		<path style="fill-rule:evenodd;clip-rule:evenodd;fill:#1F1A1C;" d="M6.2-0.5C6.367-0.633,6.633-1.367,7-2.7
			c0.367-1.333,0.517-2.117,0.45-2.35c-0.1-0.333-0.733-0.8-1.9-1.4C4.45-7.017,3.7-7.3,3.3-7.3c-0.367,0-0.983,0.45-1.85,1.35
			C0.583-5.083,0.1-4.433,0-4c-0.1,0.367,0.167,1.05,0.8,2.05C1.367-1.083,1.817-0.5,2.15-0.2C2.35-0.033,3,0.017,4.1-0.05
			C5.167-0.117,5.867-0.267,6.2-0.5z"/>
	</g>
</symbol>
<symbol  id="flash0.ai_x2F_Layer_3_x2F__x3C_Path_x3E__x5F_28" viewBox="-0.024 -10.95 11.235 10.946">
	<g id="Layer_1_22_">
		<path style="fill-rule:evenodd;clip-rule:evenodd;fill:#1F1A1C;" d="M10.5-4.05c0.533-2,0.767-3.167,0.7-3.5
			c-0.1-0.567-1.034-1.284-2.8-2.15c-1.667-0.833-2.8-1.25-3.4-1.25c-0.533,0-1.467,0.667-2.8,2c-1.267,1.3-2,2.267-2.2,2.9
			c-0.133,0.533,0.283,1.566,1.25,3.1c0.833,1.333,1.517,2.233,2.05,2.7C3.6,0.017,4.567,0.067,6.2-0.1
			c1.633-0.133,2.683-0.367,3.15-0.7C9.583-0.933,9.967-2.017,10.5-4.05z"/>
	</g>
</symbol>
<symbol  id="flash0.ai_x2F_Layer_3_x2F__x3C_Path_x3E__x5F_29" viewBox="-0.019 -8.1 8.283 8.1">
	<g id="Layer_1_21_">
		<path style="fill-rule:evenodd;clip-rule:evenodd;fill:#1F1A1C;" d="M6.9-0.55C7.067-0.683,7.35-1.5,7.75-3s0.567-2.367,0.5-2.6
			C8.15-6,7.467-6.517,6.2-7.15C4.967-7.783,4.117-8.1,3.65-8.1c-0.4,0-1.083,0.5-2.05,1.5C0.667-5.633,0.133-4.917,0-4.45
			C-0.1-4.083,0.2-3.333,0.9-2.2c0.633,1,1.133,1.667,1.5,2C2.633,0,3.35,0.05,4.55-0.05C5.783-0.15,6.567-0.317,6.9-0.55z"/>
	</g>
</symbol>
<symbol  id="flash0.ai_x2F_Layer_3_x2F__x3C_Path_x3E__x5F_3" viewBox="-0.008 -3.9 3.963 3.905">
	<g id="Layer_1_47_">
		<path style="fill-rule:evenodd;clip-rule:evenodd;fill:#1F1A1C;" d="M2.65-3.85c-0.133-0.066-0.483-0.066-1.05,0
			C1-3.75,0.633-3.633,0.5-3.5C0.433-3.433,0.333-3.033,0.2-2.3C0.033-1.567-0.033-1.133,0-1c0.067,0.2,0.433,0.417,1.1,0.65
			C1.7-0.083,2.117,0.033,2.35,0c0.167,0,0.467-0.267,0.9-0.8c0.433-0.5,0.667-0.867,0.7-1.1c0.033-0.167-0.133-0.517-0.5-1.05
			C3.117-3.417,2.85-3.717,2.65-3.85z"/>
	</g>
</symbol>
<symbol  id="flash0.ai_x2F_Layer_3_x2F__x3C_Path_x3E__x5F_30" viewBox="-0.018 -8.1 8.331 8.1">
	<g id="Layer_1_20_">
		<path style="fill-rule:evenodd;clip-rule:evenodd;fill:#1F1A1C;" d="M6.9-0.6C7.067-0.733,7.35-1.533,7.75-3
			C8.183-4.467,8.367-5.333,8.3-5.6C8.2-6,7.517-6.517,6.25-7.15C5.017-7.783,4.167-8.1,3.7-8.1c-0.4,0-1.083,0.5-2.05,1.5
			C0.683-5.633,0.133-4.917,0-4.45C-0.1-4.083,0.217-3.333,0.95-2.2c0.633,1,1.133,1.667,1.5,2C2.683,0,3.4,0.05,4.6-0.05
			C5.8-0.183,6.567-0.367,6.9-0.6z"/>
	</g>
</symbol>
<symbol  id="flash0.ai_x2F_Layer_3_x2F__x3C_Path_x3E__x5F_31" viewBox="0.031 -8.05 8.282 8.056">
	<g id="Layer_1_19_">
		<path style="fill-rule:evenodd;clip-rule:evenodd;fill:#1F1A1C;" d="M6.9-0.55c0.167-0.133,0.45-0.934,0.85-2.4
			c0.433-1.466,0.617-2.333,0.55-2.6C8.2-5.95,7.517-6.467,6.25-7.1C5.017-7.733,4.167-8.05,3.7-8.05c-0.4,0-1.083,0.5-2.05,1.5
			c-0.967,0.966-1.5,1.667-1.6,2.1c-0.1,0.4,0.2,1.167,0.9,2.3c0.6,1,1.1,1.667,1.5,2c0.233,0.167,0.95,0.2,2.15,0.1
			C5.8-0.15,6.567-0.317,6.9-0.55z"/>
	</g>
</symbol>
<symbol  id="flash0.ai_x2F_Layer_3_x2F__x3C_Path_x3E__x5F_32" viewBox="0.011 -15.2 15.519 15.206">
	<g id="Layer_1_18_">
		<path style="fill-rule:evenodd;clip-rule:evenodd;fill:#1F1A1C;" d="M12.95-1.1c0.333-0.233,0.867-1.733,1.6-4.5
			c0.767-2.8,1.083-4.433,0.95-4.9c-0.167-0.733-1.45-1.717-3.85-2.95c-2.3-1.167-3.883-1.75-4.75-1.75
			c-0.733,0-2.017,0.934-3.85,2.8c-1.8,1.833-2.8,3.183-3,4.05c-0.2,0.733,0.367,2.15,1.7,4.25c1.133,1.833,2.067,3.083,2.8,3.75
			C4.983,0.017,6.333,0.1,8.6-0.1C10.867-0.3,12.317-0.633,12.95-1.1z"/>
	</g>
</symbol>
<symbol  id="flash0.ai_x2F_Layer_3_x2F__x3C_Path_x3E__x5F_33" viewBox="-0.017 -8.65 8.881 8.673">
	<g id="Layer_1_17_">
		<path style="fill-rule:evenodd;clip-rule:evenodd;fill:#1F1A1C;" d="M4.9-0.05c1.3-0.1,2.133-0.284,2.5-0.55
			c0.167-0.133,0.467-0.983,0.9-2.55c0.434-1.6,0.617-2.533,0.55-2.8c-0.1-0.433-0.833-1-2.2-1.7c-1.3-0.667-2.2-1-2.7-1
			c-0.4,0-1.133,0.533-2.2,1.6C0.717-6.017,0.133-5.25,0-4.75c-0.1,0.433,0.233,1.233,1,2.4C1.633-1.317,2.167-0.6,2.6-0.2
			C2.867,0.033,3.633,0.083,4.9-0.05z"/>
	</g>
</symbol>
<symbol  id="flash0.ai_x2F_Layer_3_x2F__x3C_Path_x3E__x5F_34" viewBox="-0.017 -6.85 6.837 6.811">
	<g id="Layer_1_16_">
		<path style="fill-rule:evenodd;clip-rule:evenodd;fill:#1F1A1C;" d="M5.2-0.75c0.9-0.533,1.433-0.967,1.6-1.3
			c0.067-0.167-0.033-0.9-0.3-2.2c-0.233-1.3-0.433-2.033-0.6-2.2c-0.233-0.267-0.967-0.4-2.2-0.4c-1.167,0-1.934,0.083-2.3,0.25
			c-0.3,0.167-0.633,0.817-1,1.95C0.067-3.517-0.067-2.75,0-2.35C0.067-2.017,0.6-1.567,1.6-1c0.867,0.533,1.5,0.85,1.9,0.95
			C3.733,0.017,4.3-0.217,5.2-0.75z"/>
	</g>
</symbol>
<symbol  id="flash0.ai_x2F_Layer_3_x2F__x3C_Path_x3E__x5F_35" viewBox="-0.023 -6.2 6.389 6.184">
	<g id="Layer_1_15_">
		<path style="fill-rule:evenodd;clip-rule:evenodd;fill:#1F1A1C;" d="M5.3-0.4c0.133-0.1,0.35-0.717,0.65-1.85
			c0.333-1.167,0.466-1.833,0.4-2C6.283-4.583,5.75-5,4.75-5.5C3.817-5.967,3.167-6.2,2.8-6.2c-0.3,0-0.816,0.383-1.55,1.15
			C0.483-4.317,0.067-3.767,0-3.4c-0.1,0.3,0.133,0.883,0.7,1.75c0.466,0.767,0.85,1.267,1.15,1.5c0.167,0.133,0.717,0.167,1.65,0.1
			C4.433-0.117,5.033-0.233,5.3-0.4z"/>
	</g>
</symbol>
<symbol  id="flash0.ai_x2F_Layer_3_x2F__x3C_Path_x3E__x5F_36" viewBox="-0.01 -6.75 6.927 6.756">
	<g id="Layer_1_14_">
		<path style="fill-rule:evenodd;clip-rule:evenodd;fill:#1F1A1C;" d="M3.85-0.05c1-0.067,1.633-0.217,1.9-0.45
			c0.133-0.1,0.383-0.767,0.75-2c0.333-1.233,0.467-1.95,0.4-2.15C6.833-4.983,6.267-5.433,5.2-6C4.167-6.5,3.467-6.75,3.1-6.75
			c-0.333,0-0.917,0.417-1.75,1.25C0.55-4.7,0.1-4.117,0-3.75c-0.067,0.333,0.2,0.967,0.8,1.9c0.5,0.833,0.917,1.4,1.25,1.7
			C2.217,0.017,2.817,0.05,3.85-0.05z"/>
	</g>
</symbol>
<symbol  id="flash0.ai_x2F_Layer_3_x2F__x3C_Path_x3E__x5F_37" viewBox="0.029 -6.8 6.938 6.806">
	<g id="Layer_1_13_">
		<path style="fill-rule:evenodd;clip-rule:evenodd;fill:#1F1A1C;" d="M6.55-2.5c0.333-1.233,0.467-1.967,0.4-2.2
			C6.883-5.033,6.317-5.467,5.25-6C4.217-6.533,3.5-6.8,3.1-6.8c-0.333,0-0.917,0.417-1.75,1.25c-0.8,0.833-1.233,1.433-1.3,1.8
			C-0.05-3.417,0.2-2.767,0.8-1.8c0.534,0.833,0.95,1.383,1.25,1.65c0.167,0.167,0.767,0.2,1.8,0.1c1-0.067,1.65-0.2,1.95-0.4
			C5.933-0.583,6.183-1.267,6.55-2.5z"/>
	</g>
</symbol>
<symbol  id="flash0.ai_x2F_Layer_3_x2F__x3C_Path_x3E__x5F_38" viewBox="-0.023 -7.196 7.185 7.199">
	<g id="Layer_1_12_">
		<path style="fill-rule:evenodd;clip-rule:evenodd;fill:#1F1A1C;" d="M5.65-0.95c0.867-0.7,1.367-1.216,1.5-1.55
			c0.067-0.167-0.133-0.917-0.6-2.25c-0.433-1.3-0.733-2.033-0.9-2.2C5.383-7.217,4.6-7.267,3.3-7.1
			C2.067-6.933,1.283-6.733,0.95-6.5C0.65-6.3,0.4-5.6,0.2-4.4c-0.233,1.2-0.284,2.017-0.15,2.45c0.1,0.333,0.7,0.75,1.8,1.25
			C2.85-0.267,3.567-0.033,4,0C4.267,0.033,4.817-0.283,5.65-0.95z"/>
	</g>
</symbol>
<symbol  id="flash0.ai_x2F_Layer_3_x2F__x3C_Path_x3E__x5F_39" viewBox="-0.011 -6.35 6.527 6.356">
	<g id="Layer_1_11_">
		<path style="fill-rule:evenodd;clip-rule:evenodd;fill:#1F1A1C;" d="M3.6-0.05c0.933-0.067,1.533-0.2,1.8-0.4
			c0.133-0.1,0.367-0.733,0.7-1.9c0.333-1.133,0.467-1.8,0.4-2C6.433-4.683,5.883-5.1,4.85-5.6C3.917-6.1,3.267-6.35,2.9-6.35
			c-0.3,0-0.833,0.4-1.6,1.2C0.533-4.417,0.1-3.867,0-3.5c-0.067,0.3,0.183,0.9,0.75,1.8C1.217-0.933,1.6-0.417,1.9-0.15
			C2.067,0.017,2.633,0.05,3.6-0.05z"/>
	</g>
</symbol>
<symbol  id="flash0.ai_x2F_Layer_3_x2F__x3C_Path_x3E__x5F_4" viewBox="-0.022 -6.239 6.282 6.243">
	<g id="Layer_1_46_">
		<path style="fill-rule:evenodd;clip-rule:evenodd;fill:#1F1A1C;" d="M4.15-6.15C3.983-6.283,3.433-6.267,2.5-6.1
			C1.567-5.967,0.983-5.783,0.75-5.55c-0.133,0.1-0.3,0.716-0.5,1.85C0.017-2.533-0.067-1.85,0-1.65c0.1,0.3,0.667,0.667,1.7,1.1
			C2.667-0.15,3.317,0.033,3.65,0c0.3-0.033,0.8-0.467,1.5-1.3C5.817-2.1,6.183-2.667,6.25-3c0.067-0.3-0.2-0.867-0.8-1.7
			C4.917-5.433,4.483-5.917,4.15-6.15z"/>
	</g>
</symbol>
<symbol  id="flash0.ai_x2F_Layer_3_x2F__x3C_Path_x3E__x5F_40" viewBox="-0.004 -5 5.11 5.033">
	<g id="Layer_1_10_">
		<path style="fill-rule:evenodd;clip-rule:evenodd;fill:#1F1A1C;" d="M2.85,0c0.733-0.067,1.2-0.183,1.4-0.35
			c0.1-0.066,0.283-0.566,0.55-1.5c0.233-0.9,0.333-1.433,0.3-1.6C5.067-3.683,4.65-4,3.85-4.4C3.083-4.8,2.567-5,2.3-5
			C2.067-5,1.633-4.7,1-4.1C0.4-3.5,0.067-3.05,0-2.75c-0.033,0.233,0.167,0.7,0.6,1.4C0.967-0.717,1.267-0.3,1.5-0.1
			C1.633,0.033,2.083,0.067,2.85,0z"/>
	</g>
</symbol>
<symbol  id="flash0.ai_x2F_Layer_3_x2F__x3C_Path_x3E__x5F_41" viewBox="-0.013 -10.753 2.488 10.768">
	<g id="Layer_1_9_">
		<path style="fill-rule:evenodd;clip-rule:evenodd;fill:#1F1A1C;" d="M1.05-5.5C0.65-4.467,0.367-3.683,0.2-3.15
			C-0.067-2.217-0.083-1.4,0.15-0.7C0.383,0.067,0.567,0.217,0.7-0.25c0.133-0.4,0.167-0.883,0.1-1.45v-0.4
			c0.1-0.633,0.367-1.483,0.8-2.55c0.433-1.067,0.683-1.9,0.75-2.5c0.167-1.067,0.167-1.883,0-2.45
			c-0.067-0.267-0.217-0.55-0.45-0.85c-0.233-0.367-0.367-0.4-0.4-0.1C1.767-8.917,1.617-7.233,1.05-5.5z"/>
	</g>
</symbol>
<symbol  id="flash0.ai_x2F_Layer_3_x2F__x3C_Path_x3E__x5F_42" viewBox="-0.014 -3.389 1.421 3.391">
	<g id="Layer_1_8_">
		<path style="fill-rule:evenodd;clip-rule:evenodd;fill:#1F1A1C;" d="M1.15-1.5c-0.467-1.533-0.833-2.133-1.1-1.8
			c-0.1,0.433-0.083,1.033,0.05,1.8C0.267-0.567,0.55-0.067,0.95,0C1.483,0.033,1.55-0.467,1.15-1.5z"/>
	</g>
</symbol>
<symbol  id="flash0.ai_x2F_Layer_3_x2F__x3C_Path_x3E__x5F_43" viewBox="-0.062 -11.1 5.312 11.1">
	<g id="Layer_1_7_">
		<path style="fill-rule:evenodd;clip-rule:evenodd;fill:#1F1A1C;" d="M0.95-10.35c-0.167-0.433-0.4-0.683-0.7-0.75
			c-0.667,0.967-0.267,2.85,1.2,5.65C2.717-3.017,3.983-1.2,5.25,0C5.217-0.5,5-1.183,4.6-2.05C4.367-2.517,4.017-3.167,3.55-4
			c-0.533-1-1.033-2.183-1.5-3.55C1.383-9.25,1.017-10.183,0.95-10.35z"/>
	</g>
</symbol>
<symbol  id="flash0.ai_x2F_Layer_3_x2F__x3C_Path_x3E__x5F_44" viewBox="0.032 -16.125 6.582 16.058">
	<g id="Layer_1_6_">
		<path style="fill-rule:evenodd;clip-rule:evenodd;fill:#1F1A1C;" d="M4.15-11.25c-0.2,0.433-0.65,1.233-1.35,2.4
			C2.233-7.917,1.767-6.9,1.4-5.8C0.9-4.5,0.55-3.533,0.35-2.9C-0.017-1.767-0.067-0.867,0.2-0.2c0.167,0.4,0.417-0.1,0.75-1.5
			c0.5-2.1,1.033-3.683,1.6-4.75c1.833-3.4,2.867-5.383,3.1-5.95c0.367-0.8,0.6-1.417,0.7-1.85c0.367-1.5,0.35-2.1-0.05-1.8
			c-0.433,0.367-0.85,1.117-1.25,2.25C4.65-12.567,4.35-11.717,4.15-11.25z"/>
	</g>
</symbol>
<symbol  id="flash0.ai_x2F_Layer_3_x2F__x3C_Path_x3E__x5F_45" viewBox="0.046 -17.071 4.372 17.071">
	<g id="Layer_1_5_">
		<path style="fill-rule:evenodd;clip-rule:evenodd;fill:#1F1A1C;" d="M4.4-14.9c0.067-1-0.05-1.684-0.35-2.05
			c-0.3-0.367-0.5,0.1-0.6,1.4c-0.1,1.767-0.583,4.033-1.45,6.8C0.967-5.55,0.35-3.3,0.15-2c-0.167,1-0.133,1.667,0.1,2
			C0.517-0.4,0.8-1.1,1.1-2.1c0.3-1.167,0.533-1.917,0.7-2.25C3.4-8.083,4.267-11.6,4.4-14.9z"/>
	</g>
</symbol>
<symbol  id="flash0.ai_x2F_Layer_3_x2F__x3C_Path_x3E__x5F_46" viewBox="0.009 -12.902 12.391 12.906">
	<g id="Layer_1_4_">
		<path style="fill-rule:evenodd;clip-rule:evenodd;fill:#1F1A1C;" d="M11.15-1.55c0.1,0.167,0.267,0.5,0.5,1
			c0.2,0.4,0.45,0.583,0.75,0.55c-0.066-1.8-1.233-3.65-3.5-5.55c-1.233-1.067-3.083-2.434-5.55-4.1C2.65-10.15,2-10.7,1.4-11.3
			c-0.1-0.1-0.316-0.4-0.65-0.9c-0.267-0.4-0.5-0.633-0.7-0.7c-0.1-0.033-0.017,0.283,0.25,0.95c0.233,0.6,0.4,0.983,0.5,1.15
			c0.367,0.566,0.9,1.15,1.6,1.75C4.333-7.717,5.733-6.667,6.6-5.9l0.1,0.15c0.6,0.433,1.433,1.067,2.5,1.9
			C10.067-3.117,10.717-2.35,11.15-1.55z"/>
	</g>
</symbol>
<symbol  id="flash0.ai_x2F_Layer_3_x2F__x3C_Path_x3E__x5F_47" viewBox="0.014 -12.201 12.595 12.22">
	<g id="Layer_1_3_">
		<path style="fill-rule:evenodd;clip-rule:evenodd;fill:#1F1A1C;" d="M10.2-0.65c0.267-0.167,0.75-1.367,1.45-3.6
			c0.7-2.233,1.017-3.533,0.95-3.9c-0.1-0.6-1.1-1.434-3-2.5c-1.8-1-3.05-1.517-3.75-1.55c-0.6-0.033-1.667,0.667-3.2,2.1
			c-1.533,1.4-2.4,2.45-2.6,3.15C-0.117-6.383,0.3-5.217,1.3-3.45c0.833,1.5,1.534,2.534,2.1,3.1C3.733-0.05,4.817,0.067,6.65,0
			C8.483-0.1,9.667-0.317,10.2-0.65z"/>
	</g>
</symbol>
<symbol  id="flash0.ai_x2F_Layer_3_x2F__x3C_Path_x3E__x5F_48" viewBox="-0.005 -3.4 3.513 3.417">
	<g id="Layer_1_2_">
		<path style="fill-rule:evenodd;clip-rule:evenodd;fill:#1F1A1C;" d="M1.95,0c0.533-0.033,0.867-0.117,1-0.25
			c0.066-0.033,0.183-0.367,0.35-1c0.167-0.633,0.233-1,0.2-1.1C3.467-2.517,3.183-2.733,2.65-3s-0.9-0.4-1.1-0.4
			c-0.133,0-0.417,0.2-0.85,0.6C0.3-2.367,0.067-2.05,0-1.85C-0.033-1.683,0.1-1.367,0.4-0.9c0.267,0.4,0.483,0.683,0.65,0.85
			C1.15,0.017,1.45,0.033,1.95,0z"/>
	</g>
</symbol>
<symbol  id="flash0.ai_x2F_Layer_3_x2F__x3C_Path_x3E__x5F_5" viewBox="0.012 -15.9 16.305 15.928">
	<g id="Layer_1_45_">
		<path style="fill-rule:evenodd;clip-rule:evenodd;fill:#1F1A1C;" d="M13.6-1.1c0.333-0.233,0.883-1.816,1.65-4.75
			c0.8-2.9,1.15-4.6,1.05-5.1c-0.2-0.8-1.55-1.833-4.05-3.1c-2.433-1.233-4.1-1.85-5-1.85c-0.767,0-2.117,0.983-4.05,2.95
			c-1.867,1.9-2.917,3.3-3.15,4.2c-0.2,0.767,0.383,2.267,1.75,4.5c1.2,1.9,2.184,3.2,2.95,3.9C5.217,0.017,6.633,0.117,9-0.05
			C11.4-0.25,12.933-0.6,13.6-1.1z"/>
	</g>
</symbol>
<symbol  id="flash0.ai_x2F_Layer_3_x2F__x3C_Path_x3E__x5F_6" viewBox="-0.017 -8.65 8.881 8.65">
	<g id="Layer_1_44_">
		<path style="fill-rule:evenodd;clip-rule:evenodd;fill:#1F1A1C;" d="M7.35-0.6c0.2-0.133,0.517-1,0.95-2.6
			c0.434-1.566,0.617-2.483,0.55-2.75c-0.1-0.433-0.833-1-2.2-1.7c-1.3-0.667-2.2-1-2.7-1c-0.4,0-1.133,0.533-2.2,1.6
			C0.717-6.017,0.133-5.25,0-4.75c-0.1,0.4,0.233,1.2,1,2.4C1.667-1.283,2.2-0.567,2.6-0.2c0.233,0.2,1,0.25,2.3,0.15
			C6.2-0.183,7.017-0.367,7.35-0.6z"/>
	</g>
</symbol>
<symbol  id="flash0.ai_x2F_Layer_3_x2F__x3C_Path_x3E__x5F_7" viewBox="-0.018 -8.65 8.831 8.65">
	<g id="Layer_1_43_">
		<path style="fill-rule:evenodd;clip-rule:evenodd;fill:#1F1A1C;" d="M7.35-0.6c0.167-0.167,0.467-1.033,0.9-2.6
			C8.683-4.8,8.867-5.733,8.8-6C8.7-6.433,7.967-6.983,6.6-7.65c-1.3-0.667-2.2-1-2.7-1c-0.4,0-1.117,0.533-2.15,1.6
			C0.717-6.017,0.133-5.25,0-4.75c-0.1,0.4,0.217,1.2,0.95,2.4c0.667,1.067,1.2,1.783,1.6,2.15C2.817,0,3.583,0.05,4.85-0.05
			C6.15-0.183,6.983-0.367,7.35-0.6z"/>
	</g>
</symbol>
<symbol  id="flash0.ai_x2F_Layer_3_x2F__x3C_Path_x3E__x5F_8" viewBox="-0.001 -15.907 15.433 15.912">
	<g id="Layer_1_42_">
		<path style="fill-rule:evenodd;clip-rule:evenodd;fill:#1F1A1C;" d="M15-4.35c0.367-0.4,0.5-1.75,0.4-4.05
			c-0.1-2.333-0.367-3.833-0.8-4.5c-0.233-0.333-1.75-0.934-4.55-1.8c-2.8-0.867-4.45-1.267-4.95-1.2
			c-0.767,0.167-1.817,1.45-3.15,3.85C0.683-9.75,0.033-8.167,0-7.3c-0.033,0.733,0.867,2.066,2.7,4c1.8,1.9,3.133,2.983,4,3.25
			c0.733,0.233,2.2-0.284,4.4-1.55C13.033-2.733,14.333-3.65,15-4.35z"/>
	</g>
</symbol>
<symbol  id="flash0.ai_x2F_Layer_3_x2F__x3C_Path_x3E__x5F_9" viewBox="0.03 -18.038 17.823 18.061">
	<g id="Layer_1_41_">
		<path style="fill-rule:evenodd;clip-rule:evenodd;fill:#1F1A1C;" d="M13.2-1.45c2.466-1.167,3.966-2.167,4.5-3
			c0.233-0.4,0.2-2.333-0.1-5.8c-0.333-3.433-0.667-5.4-1-5.9c-0.5-0.767-2.383-1.317-5.65-1.65c-3.1-0.333-5.133-0.317-6.1,0.05
			c-0.833,0.3-1.883,1.9-3.15,4.8C0.467-10.117-0.083-8.167,0.05-7.1C0.15-6.2,1.4-4.85,3.8-3.05c2.1,1.6,3.684,2.6,4.75,3
			C9.183,0.217,10.733-0.25,13.2-1.45z"/>
	</g>
</symbol>
<g>
	<g>
		
			<linearGradient id="SVGID_1_" gradientUnits="userSpaceOnUse" x1="-23.4961" y1="-158.6001" x2="146.9789" y2="-158.6001" gradientTransform="matrix(5.865963e-006 1 -1 -0.001 2.521465e-004 -7.069856e-005)">
			<stop  offset="0" style="stop-color:#171517"/>
			<stop  offset="0.1686" style="stop-color:#1D181D"/>
			<stop  offset="0.4" style="stop-color:#2D212F"/>
			<stop  offset="0.5686" style="stop-color:#3D2940"/>
			<stop  offset="1" style="stop-color:#3A4063"/>
		</linearGradient>
		<polygon style="fill-rule:evenodd;clip-rule:evenodd;fill:url(#SVGID_1_);" points="317.15,126.8 0.1,126.8 0.05,15.3 
			317.15,13.6 		"/>
		<path style="fill-rule:evenodd;clip-rule:evenodd;fill:#20141B;" d="M310.05,2.4c1.4,0.2,3.767,0.65,7.101,1.35
			c-0.067,2.233-0.084,4.617-0.051,7.15c0.034,4.333,0.051,6.7,0.051,7.1v5.15c-1.934,0-3.384,0.55-4.351,1.65
			c-0.267,0.267-0.6,0.684-1,1.25c-0.467,0.633-0.8,1.05-1,1.25c-0.2,0.233-0.6,0.583-1.2,1.05c-0.492,0.37-0.843,0.686-1.05,0.95
			c0.344-0.468,0.627-1.085,0.851-1.85c0.3-1.1,0.5-1.784,0.6-2.05c-0.8,1.233-2.233,1.767-4.3,1.6
			c-3.233-0.233-4.867-0.35-4.9-0.35c0.467-0.533,0.783-0.85,0.95-0.95c-0.667,0.033-1.4,0.183-2.2,0.45
			c-0.934,0.4-1.633,0.684-2.1,0.85c0.333-0.267,0.783-0.65,1.35-1.15c-0.7,0.133-1.467,0.417-2.3,0.85
			c-0.767,0.4-1.35,0.816-1.75,1.25c0.634-1.267,0.983-1.95,1.05-2.05c0.434-0.767,0.9-1.35,1.4-1.75
			c-2.9,0.967-4.983,2.083-6.25,3.35c-1.033,0.9-1.867,1.65-2.5,2.25c-1.125,1.125-1.675,2.016-1.65,2.675
			c-0.132-1.985,0.118-3.394,0.75-4.225c-1.366,0.966-2.55,1.983-3.55,3.05c-0.7,0.7-1.267,1.283-1.7,1.75
			c-0.823,0.889-1.239,1.514-1.25,1.875c0-1.15,0.017-1.775,0.05-1.875c-0.633,1.4-1.199,2.45-1.699,3.15
			c-0.2,0.233-0.733,0.65-1.601,1.25c-0.724,0.472-1.166,0.889-1.325,1.25c0.778-1.907,0.92-3.208,0.426-3.9
			c-1.4,0.633-2.9,1.85-4.5,3.65c-1.634,1.8-2.667,3.434-3.101,4.9c-0.3-1.6,0.066-3.466,1.101-5.6c-0.634,0.6-1.267,1.383-1.9,2.35
			c0.333-1.2,0.434-2.1,0.3-2.7c-0.934,1.8-2.583,3.633-4.95,5.5c1-1.467,1.334-2.767,1-3.9c-0.366,0.867-0.883,1.533-1.55,2
			c0.101-0.1,0.084-0.4-0.05-0.9c-0.134-0.4-0.25-0.7-0.35-0.9c-1.233,0.6-2.233,2.583-3,5.95c-0.7-1.167-0.967-2.383-0.801-3.65
			c0.101-0.8,0.317-1.467,0.65-2c-0.967,1.466-1.517,2.483-1.65,3.05c-0.433,1.5-0.199,3.317,0.7,5.45
			c-1.6-1.633-2.633-3.617-3.1-5.95c-0.634-3.067-1-4.717-1.101-4.95c-0.699,1.767-1.05,3.267-1.05,4.5
			c-0.434-1.966-0.649-3.583-0.649-4.85c-0.867,1.4-1.233,2.65-1.101,3.75c-0.133-0.233-0.333-1.117-0.6-2.65
			c-0.233-1.367-0.483-2.117-0.75-2.25c-0.533-0.3-0.95,0.1-1.25,1.2c-0.286,1.047-0.303,1.764-0.05,2.15
			c-1.643-2.238-3.01-3.638-4.101-4.2c-0.066,0.333,0.117,1.05,0.55,2.15c0.467,1.1,0.851,1.767,1.15,2
			c-1.934-1.267-3.434-2.3-4.5-3.1c-1.866-1.433-2.967-2.75-3.3-3.95c0.033,0.9,0.283,1.883,0.75,2.95
			c-1.708-0.809-2.975-1.951-3.8-3.425c0.272,0.563,0.64,1.438,1.1,2.625c-0.333-0.3-1.866-1.467-4.6-3.5
			c-1.967-1.467-3.367-2.75-4.2-3.85l-0.45,0.75c-1-0.667-1.45-1.1-1.35-1.3c-0.101,0.233-0.317,0.583-0.65,1.05l-0.35-1
			c-0.534,0.7-0.801,1.467-0.801,2.3c-0.8-0.9-1.416-1.6-1.85-2.1c-0.833-0.867-1.517-1.483-2.05-1.85
			c0.033,0.167,0.05,0.45,0.05,0.85c-0.033,0.4-0.017,0.684,0.05,0.85c-1.133-0.267-2.066-1.133-2.8-2.6
			c-0.2,0.867-0.083,1.684,0.35,2.45c-1.267-0.667-2.267-1.967-3-3.9c-0.8,0.4-1.35,0.75-1.649,1.05l0.2-0.75
			c-0.934,0.067-1.65,0.467-2.15,1.2c0.1-0.633,0.2-1.067,0.3-1.3c-1.833,0.4-3.149,1.417-3.95,3.05c-0.466-0.8-0.733-1.4-0.8-1.8
			c-0.1,0.467-0.333,1.184-0.7,2.15c-0.484-0.582-0.734-1.307-0.75-2.175c-0.495,0.786-2.079,1.678-4.75,2.675
			c-2.544,0.958-3.894,1.783-4.05,2.475c0.303-1.585,0.719-2.677,1.25-3.275c-1.533,0.533-2.666,0.983-3.399,1.35
			c-1.134,0.633-2.017,1.433-2.65,2.4c0-1.267,0.033-2.033,0.1-2.3c-0.699,1.267-1.267,2.15-1.699,2.65l0.199-1.05
			c-0.399,0.233-0.85,0.633-1.35,1.2c-0.767,0.833-1.184,1.267-1.25,1.3l0.8-1.25c-0.833,0.267-1.684,0.716-2.55,1.35
			c-0.833,0.667-1.483,1.367-1.95,2.1c0.101-0.267,0.167-0.6,0.2-1c0.066-0.633,0.1-0.967,0.1-1c-0.5,0.3-1.066,0.917-1.699,1.85
			c-0.067-0.9-0.067-1.567,0-2c-0.434,0.7-0.867,1.617-1.301,2.75c0.034-0.333,0.017-0.933-0.05-1.8
			c-0.031-0.689-0.006-1.247,0.075-1.675c-0.182,0.81-0.739,1.601-1.675,2.375c-1.167,0.833-1.983,1.467-2.45,1.9l0.3-0.85
			c-1.3,0.333-2.399,1.267-3.3,2.8c0.167-0.833,0.3-1.45,0.4-1.85c-1.267,0.533-2.317,1.434-3.15,2.7
			c-1.033,1.566-1.4,3.35-1.1,5.35c-0.733-1.534-1.134-3.017-1.2-4.45c-0.101-1.367-0.217-2.183-0.351-2.45
			c-0.666,1.133-1.199,1.9-1.6,2.3c-0.066-1.067-0.083-1.85-0.05-2.35c-0.434,0.333-1,1.067-1.7,2.2
			c-0.033-0.934-0.3-2.083-0.8-3.45c-0.767,1.233-2.117,2.183-4.05,2.85c-0.167-0.233-0.317-0.383-0.45-0.45
			c-0.834,0.633-1.233,1.083-1.2,1.35c-0.233-0.667-0.366-1.183-0.4-1.55c-0.5,0.8-0.6,2.117-0.3,3.95
			c-0.166-0.233-1.85-2.283-5.05-6.15c-0.333,1.3-0.267,2.617,0.2,3.95c0.267,0.7,0.617,1.433,1.05,2.2
			c-1.633-1.3-2.717-2.883-3.25-4.75c-0.3-1.867-0.583-3.117-0.85-3.75c0.1,0.4,0.05,1.55-0.15,3.45
			c-0.167,1.633-0.017,2.733,0.45,3.3c-1.167-1-1.934-2.633-2.3-4.9c-0.267-2.633-0.566-4.533-0.9-5.7
			c-0.433,0.333-0.733,0.617-0.9,0.85c-0.167-0.467-0.267-1.083-0.3-1.85c-0.033-0.933,0.1-1.517,0.4-1.75
			c-1.167,0.833-1.95,1.867-2.35,3.1c-0.333-1-0.117-2.433,0.65-4.3c-1.4,1.933-4.067,2.95-8,3.05
			c-4.333,0.067-7.183,0.65-8.55,1.75c0.267-0.233,0.633-0.633,1.1-1.2c-0.9,0.2-1.883,0.7-2.95,1.5
			c-1.133,0.8-2.167,1.783-3.1,2.95c0-1.1,0.267-2.083,0.8-2.95c0.3-0.467,0.667-1.017,1.1-1.65c-1.2,0.434-2.217,1.15-3.05,2.15
			c-0.733,0.833-1.567,2.183-2.5,4.05c-0.067-1.1,0.183-2.617,0.75-4.55c0.533-1.833,1.1-3.284,1.7-4.35
			c-0.667,0.566-1.683,1.083-3.05,1.55c0.3-0.833,0.85-1.467,1.65-1.9c-2.1-0.067-3.667-0.083-4.7-0.05
			c-1.867,0.066-3.383,0.4-4.55,1c0.4-0.333,1-0.867,1.8-1.6c-1.867,0.2-3.917,1.25-6.15,3.15c0.267-0.867,0.733-1.583,1.4-2.15
			c-1.4,0.233-2.733,0.967-4,2.2c-1.333,1.567-2.367,2.684-3.1,3.35c0.133-1.2,0.283-1.983,0.45-2.35c-0.566,0.8-1.333,1.7-2.3,2.7
			c0.133-0.233,0.45-0.933,0.95-2.1c-0.333,0.2-2.633,1.05-6.9,2.55c-2.833,1-4.633,2.483-5.4,4.45c-0.1-0.967,0.15-1.85,0.75-2.65
			c-1.333,0.867-2.35,1.833-3.05,2.9c-0.7,1.067-1.217,2.4-1.55,4c-0.1-0.967-0.1-2.117,0-3.45c0.167-1.534,0.267-2.7,0.3-3.5
			c-1.167,0.733-1.95,1.716-2.35,2.95c-0.367-0.867-0.417-1.833-0.15-2.9c-0.8,0.633-1.35,1.633-1.65,3
			c-0.4,1.833-0.7,2.933-0.9,3.3c-0.433-0.733-1.066-2.1-1.9-4.1c-0.733-1.867-1.417-3.25-2.05-4.15c0,0.4-0.117,1.017-0.35,1.85
			c-0.767-1.3-1.35-2.283-1.75-2.95c-0.167,0.6-0.2,1.383-0.1,2.35c0.033,0.534,0.117,1.317,0.25,2.35
			c-1.033-0.767-2.133-1.95-3.3-3.55c-1.233-1.867-2.133-3.217-2.7-4.05c0,0.5,0.167,1.034,0.5,1.6c0.167,0.333,0.467,0.8,0.9,1.4
			c-0.566-0.133-1.066-0.466-1.5-1c-0.167-0.2-0.483-0.716-0.95-1.55c-0.533-0.933-1.367-1.833-2.5-2.7
			c0.167,0.133,0.4,0.75,0.7,1.85c-1.1-0.933-2.483-1.316-4.15-1.15c-1,0.033-1.7,0.033-2.1,0c-0.826-0.095-1.376-0.387-1.65-0.875
			c0.116,0.239,0.25,0.614,0.4,1.125c-0.667-0.267-1.4-0.833-2.2-1.7l1.2,3.05c-0.133-0.1-1.316-0.667-3.55-1.7
			c-1.4-0.633-2.3-1.517-2.7-2.65c-0.033,0.267-0.05,1.083-0.05,2.45c0,1.033-0.1,1.767-0.3,2.2c-0.4-0.3-0.7-0.617-0.9-0.95
			c-0.333-0.5-0.583-1.15-0.75-1.95c-0.233,0.5-0.383,1.383-0.45,2.65c-0.567-1.1-0.833-2.133-0.8-3.1
			c-1.3,1.034-2.216,1.833-2.75,2.4c-0.867,0.933-1.283,2.033-1.25,3.3c-0.533-0.6-1-1.583-1.4-2.95C42.05,27.483,42,28.067,42,28.8
			c-0.033,0.4-0.05,1-0.05,1.8c-1-1.767-1.617-3.067-1.85-3.9c-0.4,0.6-0.967,1.133-1.7,1.6c-0.267,0.167-0.95,0.5-2.05,1
			c-0.667,0.267-1.317,0.633-1.95,1.1c-0.9,0.667-1.283,1.25-1.15,1.75c-0.4-1.4-0.433-2.533-0.1-3.4
			c-0.9,0.467-1.45,1.15-1.65,2.05c-0.133,0.667-0.1,1.567,0.1,2.7c0.431,2.256,0.848,3.523,1.25,3.8
			c-0.968-0.635-1.751-1.552-2.35-2.75c-0.6-1.433-1.1-2.533-1.5-3.3c-0.6-1.267-1.25-2.267-1.95-3c-1.933-1.2-2.9-1.85-2.9-1.95
			c0.1,0.767,0.367,1.633,0.8,2.6c0.513,1.09,1.03,1.766,1.55,2.025c-1.17-0.553-1.854-0.911-2.05-1.075
			c-0.434-0.533-0.784-0.917-1.05-1.15c-0.4-0.267-0.967-0.517-1.7-0.75c-1.034-0.3-1.617-0.483-1.75-0.55
			c-0.8-0.3-1.667-0.783-2.6-1.45c-0.333-0.2-1.133-0.8-2.4-1.8c0.466,0.533,1.017,1.25,1.65,2.15
			c0.333,0.534,0.816,1.284,1.45,2.25c-1.267-0.767-2.25-1.316-2.95-1.65c-0.767-0.4-1.5-1.017-2.2-1.85
			c0.5,1.133,1.25,2.1,2.25,2.9c-1.367-0.1-2.7-0.55-4-1.35c-0.833-0.544-1.899-1.411-3.2-2.6c0.359,0.352,0.625,0.819,0.8,1.4
			c0.133,0.4,0.283,1,0.45,1.8c-1.267-1.8-2.717-2.983-4.35-3.55c-0.567-0.2-1.35-0.333-2.35-0.4c-1.1-0.033-1.9-0.067-2.4-0.1
			c0.133-2.267,0.167-5.283,0.1-9.05C0.133,7.733,0.1,4.283,0.1,3.75c6.867,1.767,13.133,2.533,18.8,2.3
			c1.633-0.066,7.684-0.767,18.15-2.1c7.534-0.967,16-1.35,25.4-1.15c4.933,0.1,13.383,0.534,25.35,1.3
			c3.333,0.233,8.2,0.117,14.6-0.35s11.267-0.6,14.6-0.4c12.467,0.8,26.867,1.133,43.2,1c0.133,0,14.566-0.3,43.3-0.9
			c3.733-0.067,15.583-0.067,35.55,0C253.517,3.483,265.3,3.2,274.4,2.6c2.8-0.167,7.583-0.167,14.35,0
			c6.134,0.133,10.9,0.017,14.3-0.35C305.217,2.017,307.55,2.067,310.05,2.4z"/>
		<path style="fill-rule:evenodd;clip-rule:evenodd;fill:#20141B;" d="M86.95,25.85c-1.133,1.3-2.017,2.85-2.65,4.65
			c-0.7,1.9-0.966,3.65-0.8,5.25c0.133,1.267,0.4,2.983,0.8,5.15c0.233,1.9,0.1,3.65-0.4,5.25c-1.933,6.133-3,9.617-3.2,10.45
			c-0.934,3.967-1.167,7.55-0.7,10.75c0.133,0.934,0.8,3.551,2,7.851c0.9,3.166,1.267,5.833,1.1,8
			c-0.167,1.934-0.934,4.416-2.3,7.45c-1.8,3.899-2.867,6.383-3.2,7.449c-0.667,2.134-1.05,3.884-1.15,5.25
			c-0.133,2.467,0.35,4.983,1.45,7.551c0.767,1.733,2.067,4.433,3.9,8.1c1.367,3.2,1.883,5.8,1.55,7.8
			c-0.6-0.066-1.45-0.083-2.55-0.05c-2.1,0.033-3.633,0.05-4.6,0.05c0.167-3-0.333-5.934-1.5-8.8c-1.534-3.9-2.383-6.233-2.55-7
			c-0.7-3.634-0.783-6.95-0.25-9.95c0.5-2.967,1.717-6.3,3.65-10c1.7-3.267,2.434-6.533,2.2-9.8c-0.133-2.066-0.85-5.184-2.15-9.35
			c-1.2-3.967-1.6-7.667-1.2-11.101c0.1-0.9,0.4-2.617,0.9-5.15c0.567-3.033,0.95-4.583,1.15-4.65c-1.934,0.567-3.534,1.55-4.8,2.95
			c-1.4,1.5-2.133,3.216-2.2,5.15c0,0.167,0.417,1.917,1.25,5.25c0.566,2.267,0.3,3.9-0.8,4.9c-1.9,1.733-3.7,1.333-5.4-1.2
			c-1.533-2.267-2.167-4.417-1.9-6.45c0.267-2.5,1.717-4.817,4.35-6.95c1.433-1.167,3.633-2.917,6.6-5.25
			c2.367-2.533,3.083-5.566,2.15-9.1c-1.733-4.1-2.967-7.2-3.7-9.3c-1.133-3.2-1.167-6.333-0.1-9.4c2.133,0.767,4.65,1.533,7.55,2.3
			C81.15,24.367,83.65,25.017,86.95,25.85z"/>
		<path style="fill-rule:evenodd;clip-rule:evenodd;fill:#60B5B1;" d="M312.65,19.9c-0.502,0.383-0.718,0.7-0.65,0.95
			c-0.121-0.313-0.121-0.697,0-1.15c0.2-0.5,0.316-0.867,0.35-1.1c-2.597,0.466-4.763,1.35-6.5,2.65
			c0.137-0.108,0.304-0.425,0.5-0.95c-1.767,0.767-2.899,1.733-3.399,2.9c0.1-1,0.6-2.083,1.5-3.25
			c-3.033,0.533-5.066,1.583-6.101,3.15c0-0.867,0.367-1.783,1.101-2.75c-1.434,0.566-2.533,1.333-3.3,2.3
			c0.298-1.06,0.789-1.984,1.475-2.775c-0.296,0.32-0.838,0.595-1.625,0.825c-0.9,0.267-1.5,0.533-1.8,0.8
			c-1.367,1.025-2.375,1.817-3.025,2.375c0.309-0.284,0.551-0.659,0.726-1.125c0.098-0.197,0.265-0.655,0.5-1.375
			C292.175,22,291.375,22.542,290,23c-1.366,0.433-2.134,1.067-2.3,1.9c0.033-0.767,0.083-1.333,0.149-1.7
			c-0.6,1.1-1.183,1.966-1.75,2.6c0.267-0.933,0.517-1.6,0.75-2c-1,0.9-1.816,1.784-2.449,2.65c0.366-1.333,0.983-2.284,1.85-2.85
			c-1.467,0.767-3.3,2.05-5.5,3.85c0.3-0.867,0.533-1.434,0.7-1.7c-0.767,0.6-1.5,1.517-2.2,2.75c-0.134-0.8-0.184-1.4-0.15-1.8
			c-0.633,0.767-1.017,1.9-1.149,3.4c-0.601-1.033-0.9-2.083-0.9-3.15c-0.166,0.9-0.666,1.733-1.5,2.5
			c-0.993,0.795-1.743,1.445-2.25,1.95c0.204-0.211,0.421-0.678,0.65-1.4c0.233-0.8,0.383-1.317,0.45-1.55
			c-2.867,1.233-4.784,2.9-5.75,5c0.133-1.367,0.399-2.4,0.8-3.1c-1.066,0.833-2,1.967-2.8,3.4c-0.767,1.433-1.217,2.817-1.351,4.15
			c-0.333-3.733,0.084-6.45,1.25-8.15c-0.333,0.2-1.3,0.717-2.899,1.55c-1.233,0.6-2.167,1.167-2.801,1.7c0.2-0.7,0.601-1.5,1.2-2.4
			c-1.233,0.533-2.066,1.6-2.5,3.2c0.042-1.024,0.309-2.291,0.8-3.8c-1.699,0.9-2.833,1.6-3.399,2.1
			c-1.166,1.004-1.683,2.104-1.55,3.3c-0.082-0.585-0.249-1.302-0.5-2.15c-0.334-1-0.584-1.75-0.75-2.25
			c-0.034,0.767,0.017,1.917,0.149,3.45c-1-0.8-2.05-2.383-3.149-4.75c0.1,0.233,0.183,0.966,0.25,2.2
			c-1.4-1.533-2.367-2.85-2.9-3.95c0.467,1.133,0.75,2.383,0.85,3.75c-0.533-0.333-1.466-1.167-2.8-2.5
			c-1.166-1.1-2.166-1.833-3-2.2c0.634,1.1,1,1.7,1.101,1.8c-0.101-0.1-0.867-0.617-2.301-1.55c-0.933-0.633-1.566-1.2-1.899-1.7
			c0.833,1.4,1.684,2.55,2.55,3.45c-2.167-0.467-4.533-1.983-7.1-4.55c0.133,0.4,0.267,1.083,0.399,2.05
			c-0.67-0.428-1.22-0.895-1.649-1.4c0.243,0.518,0.427,1.084,0.55,1.7c-3.634-2.5-6.434-4.283-8.4-5.35c0,0.7-0.1,1.15-0.3,1.35
			c-0.733-0.2-1.533-0.65-2.4-1.35c0,1.9-0.05,3.083-0.149,3.55c-0.601-1.433-2.017-2.933-4.25-4.5c0.066,0.333,0.1,0.85,0.1,1.55
			c-0.3-0.3-0.866-1.033-1.7-2.2c-0.1,0.8-0.283,1.633-0.55,2.5c-0.899-1.267-1.366-2.483-1.399-3.65c-1.534,0.8-2.65,1.466-3.351,2
			c0.343-0.749,0.727-1.348,1.15-1.8c-0.794,0.533-1.428,1.083-1.9,1.65c0.066-0.5,0.117-0.85,0.15-1.05
			c0.066-0.3,0.2-0.617,0.399-0.95c-1.933,0.267-3.383,0.534-4.35,0.8c-1.733,0.467-2.967,1.25-3.7,2.35
			c-0.233-0.633-0.35-1.133-0.35-1.5c-0.134,0.433-0.417,1.1-0.851,2c-0.233-1.233-0.35-1.95-0.35-2.15
			c-0.5,0.833-1.283,1.85-2.35,3.05c0.1-0.8,0.283-1.517,0.55-2.15c-0.3,0.667-1.417,1.35-3.351,2.05
			c-2.066,0.767-3.333,1.433-3.8,2c0.267-0.9,0.684-1.567,1.25-2c-1.633,0.4-3.066,1.233-4.3,2.5
			c-0.434-0.333-0.717-0.583-0.85-0.75c-0.867,0.867-1.267,2.167-1.2,3.9c-0.867-1.4-1.483-2.467-1.851-3.2
			c-0.199,0.466-0.483,1.283-0.85,2.45c-0.134-0.367-0.233-0.65-0.3-0.85c-0.134-0.4-0.217-0.733-0.25-1
			c-0.033,0.3-0.3,1.034-0.8,2.2c-0.266-0.93-0.383-1.663-0.351-2.2c-0.039,0.504-0.856,1.221-2.45,2.15
			c-0.866,0.767-1.3,1.617-1.3,2.55c-0.366-0.667-0.583-1.683-0.649-3.05c-0.5,0.333-0.967,0.95-1.4,1.85
			c-0.434,0.9-0.65,1.667-0.65,2.3c-0.267-0.6-0.449-1.167-0.55-1.7c-0.166,0.3-0.333,0.867-0.5,1.7
			c-0.233-0.5-0.383-1.05-0.45-1.65c-0.199,0.333-1.066,1.1-2.6,2.3c-1.2,0.933-1.85,1.95-1.95,3.05c-0.467-0.733-0.467-1.867,0-3.4
			c-1.133,1.9-2.366,3.434-3.7,4.6c0.4-1.667,0.367-3.017-0.1-4.05c-0.066,0.566-0.2,1.033-0.4,1.4
			c-0.368-1.228-0.51-2.127-0.425-2.7c-0.109,0.457-0.451,0.957-1.024,1.5c-0.733,0.633-1.233,1.1-1.5,1.4
			c-1.067,1.267-1.334,3.017-0.801,5.25c-0.566-0.6-1.017-1.65-1.35-3.15c-0.267-1.566-0.45-2.533-0.55-2.9
			c0,0.433,0.017,1.2,0.05,2.3c0,1-0.116,1.717-0.35,2.15c-0.434-1.534-0.917-2.633-1.45-3.3c-0.5-0.5-0.851-0.867-1.05-1.1
			c-0.388-0.419-0.588-0.87-0.601-1.35c0.005,1.373,0.222,2.356,0.65,2.95c-1.867-1.933-3.167-3.5-3.9-4.7
			c-0.133,0.4-0.267,1.017-0.4,1.85c-0.333-0.2-0.717-0.6-1.15-1.2c-0.467-0.7-0.667-1.217-0.6-1.55
			c-0.467,1.934-0.233,3.667,0.7,5.2c-1-1.367-1.783-2.85-2.35-4.45c-0.633-1.767-0.933-3.417-0.9-4.95
			c-0.633,1.267-0.783,2.8-0.45,4.6c-0.933-1.934-1.183-3.95-0.75-6.05c0.467-2.167,1.567-3.85,3.3-5.05
			c-1.667,0.167-2.983,0.316-3.95,0.45c-1.74,0.295-2.657,0.979-2.75,2.05c0.034-0.507,0.068-0.874,0.1-1.1
			c0.033-0.4,0.1-0.717,0.2-0.95c-1.466,0.567-2.483,1.25-3.05,2.05c0.21-1.141,0.785-1.891,1.725-2.25
			c-1.686,0.55-3.328,1.217-4.925,2c-2.633,1.2-4.083,2.233-4.35,3.1c0.2-0.8,0.35-1.284,0.45-1.45
			c-0.867,0.733-1.517,1.333-1.95,1.8c0.167-0.3,0.367-0.75,0.6-1.35c-1.533,0.966-2.683,1.65-3.45,2.05c-1.3,0.7-2.55,1.1-3.75,1.2
			c0.667-0.2,1.283-0.583,1.85-1.15c0.267-0.267,0.733-0.816,1.4-1.65c-0.767,0.567-2.117,1.033-4.05,1.4
			c1.1-0.4,2.017-1.25,2.75-2.55c-1.9,0.6-4.1,0.5-6.6-0.3c-0.934-0.434-1.65-0.75-2.15-0.95c-0.9-0.367-1.65-0.417-2.25-0.15
			l0.675-0.325c-0.387-0.083-0.878-0.125-1.475-0.125c-0.733,0-1.283-0.017-1.65-0.05c1.033-0.4,1.617-0.617,1.75-0.65
			c-0.733-0.267-1.667-0.383-2.8-0.35c-1.033,0-1.983,0.117-2.85,0.35l1.3-0.95c-2.5-0.1-4.483,0.583-5.95,2.05
			c0.333-0.966,0.667-1.683,1-2.15l-2.15,1.8c0.529-1.29,0.796-2.215,0.8-2.775c-0.016,0.559-1.033,1.367-3.05,2.425
			c-2.433,1.267-3.733,1.983-3.9,2.15c0.067-0.7,0.183-1.217,0.35-1.55c-0.167,0.167-1.267,0.767-3.3,1.8
			c-1.367,0.667-2.083,1.6-2.15,2.8c-0.066-0.667-0.083-1.15-0.05-1.45c-0.133,0.3-0.483,0.767-1.05,1.4l-0.2-0.7
			c-0.267,0.867-0.684,1.633-1.25,2.3c-0.267-1.133-0.383-2.067-0.35-2.8c-0.267,0.767-0.833,1.55-1.7,2.35
			c-1.233,1.133-1.9,1.767-2,1.9c0.133-1,0.317-1.767,0.55-2.3c-1.633,0.7-2.8,1.817-3.5,3.35c0.167-1.733,0.333-2.85,0.5-3.35
			c-2.033,2.3-3.15,4.933-3.35,7.9c-0.133-0.967-0.45-2.066-0.95-3.3c-0.667-1.4-1.15-2.467-1.45-3.2
			c0.267,0.934,0.367,2.434,0.3,4.5c-0.433-1.267-1.2-2.5-2.3-3.7c-1.367-1.3-2.383-2.367-3.05-3.2c0.5,1.4,1.117,2.383,1.85,2.95
			c-2.033-0.633-3.55-1.15-4.55-1.55c-1.8-0.7-2.934-1.75-3.4-3.15c0.1,0.867,0.283,1.8,0.55,2.8c-1.767-1.767-3.05-3.117-3.85-4.05
			c0.067,0.333-0.1,0.783-0.5,1.35c-1.433-1.8-2.117-2.833-2.05-3.1c-0.067,0.3-0.283,0.717-0.65,1.25
			c-0.833-0.967-1.467-1.6-1.9-1.9l0.15,0.85l-2.85-2.75c-0.467,1.233-0.434,2.383,0.1,3.45c-1.967-1.667-3.017-3.3-3.15-4.9
			c-0.8,0.467-1.167,1.183-1.1,2.15c-0.667-0.667-0.983-1.433-0.95-2.3l-2.3,0.7c-2.4,0.9-4.217,1.95-5.45,3.15
			c0.1-0.2,0.25-0.534,0.45-1c-1.833,0.267-3.133,0.517-3.9,0.75c-1.533,0.5-2.617,1.2-3.25,2.1c0-1.033,0.133-1.833,0.4-2.4
			c-0.6,0.167-1.1,0.45-1.5,0.85c-0.434,0.467-0.667,0.983-0.7,1.55c-0.533-0.7-0.85-1.433-0.95-2.2
			c-0.3,0.433-0.433,0.983-0.4,1.65c0,0.3,0.1,0.883,0.3,1.75c-0.567-0.967-1.567-1.617-3-1.95c-1.7-0.267-2.917-0.55-3.65-0.85
			c0.8,0.8,1.35,1.283,1.65,1.45c-1.067-0.033-2.2-0.583-3.4-1.65c0.667,0.733,1.667,1.783,3,3.15c-3.867-1-6.566-2.433-8.1-4.3
			c0.367,0.833,0.917,1.7,1.65,2.6c-0.567-0.133-1.267-0.5-2.1-1.1c-1.033-0.667-1.733-1.083-2.1-1.25
			c0.267,0.433,0.617,1.167,1.05,2.2c-3-1.566-5.25-2.683-6.75-3.35c0.8,0.6,1.466,1.35,2,2.25c-1-0.534-1.883-0.867-2.65-1
			c0.233,0.167,0.7,0.6,1.4,1.3c-1.8-0.967-3.684-1.333-5.65-1.1c0.233,0.2,0.483,0.55,0.75,1.05
			c0.226,0.387,0.451,0.662,0.675,0.825C8.692,20.14,5.383,19.265,0.8,18.9l-0.75-0.1c-0.066-1.5-0.066-4.1,0-7.8
			C0.15,6.4,0.2,3.783,0.2,3.15C3.933,4.75,9.367,5,16.5,3.9C23.767,2.767,28.6,2.667,31,3.6c2.833,1.1,6.4,1.95,10.7,2.55
			c2.466,0.333,6.1,0.75,10.9,1.25c10.5,1.333,21.917,1.267,34.25-0.2c7.566-0.934,17.633-1.067,30.2-0.4
			c15.6,0.8,25.7,1.15,30.3,1.05c4.167-0.1,12.5-0.567,25-1.4c10.434-0.667,18.817-0.95,25.15-0.85
			c7.767,0.133,19.417,0.45,34.95,0.95c13.566,0.2,25.2-0.3,34.899-1.5c8.9-1.1,14.7-1.767,17.4-2c6.6-0.566,12.45-0.65,17.55-0.25
			c2.867,0.233,6.417,0.233,10.65,0c2.8,0.3,4.2,2.1,4.2,5.4v10.6c-1.301-0.033-2.25,0.05-2.851,0.25
			C313.733,19.217,313.184,19.5,312.65,19.9z"/>
		<path style="fill-rule:evenodd;clip-rule:evenodd;fill:#3E9A9D;" d="M299.4,1.7c3.533,0.3,6.933,0.417,10.199,0.35
			c4.367-0.133,6.9-0.183,7.601-0.15c0,6.733-0.017,10.833-0.05,12.3c-6.2-0.133-11.934,0.233-17.2,1.1
			c-5.101,0.9-10.867,2.467-17.3,4.7c-5.834,2.033-11.034,3.2-15.601,3.5c-4.899,0.3-10.184-0.317-15.85-1.85
			c-9.8-2.667-18.483-4.483-26.05-5.45c-10.167-1.3-19.034-1.233-26.601,0.2c-2.633,0.5-8.767,2.733-18.399,6.7
			c-7.7,3.2-13.967,4.566-18.801,4.1c-3.066-0.267-5.616-1.217-7.649-2.85c-2.5-2-2.483-4.2,0.05-6.6
			c-1.567-1.233-3.667-1.817-6.3-1.75c-0.034,0-2.284,0.267-6.75,0.8c-7.034,0.9-13.284,0.85-18.75-0.15c-4.1-0.967-7.1-1.55-9-1.75
			c-3.2-0.367-6.233,0-9.1,1.1c-6.067,2.367-9.2,3.583-9.4,3.65c-3.667,1.233-6.95,1.9-9.85,2c-3.267,0.1-6.85-0.5-10.75-1.8
			c-4.4-1.667-7.817-2.867-10.25-3.6c-2.2-0.667-4.583-1.133-7.15-1.4c-4.2-0.5-9.133-0.483-14.8,0.05
			c-4.1,0.4-7.683,0.55-10.75,0.45c-3.2-0.133-6.733-0.567-10.6-1.3c-2.133-0.433-5.5-0.517-10.1-0.25
			c-5.6,0.333-8.983,0.467-10.15,0.4L0.1,1.9C6.167,1.333,13.133,0.8,21,0.3c7.4-0.5,15.483-0.417,24.25,0.25
			c10.8,0.767,18.533,1.15,23.2,1.15c6.867,0,17.133-0.083,30.8-0.25c12.2-0.1,22.467-0.017,30.8,0.25
			c3.534,0.1,11.434-0.1,23.7-0.6c9.667-0.4,17.5-0.2,23.5,0.6c2.434,0.333,5.8,0.383,10.1,0.15
			c4.634-0.267,7.983-0.317,10.051-0.15c11.267,0.933,28.267,0.917,51-0.05C271.033,0.683,288.033,0.7,299.4,1.7z"/>
		<path style="fill-rule:evenodd;clip-rule:evenodd;fill:#3E9A9D;" d="M163.55,27.95c1.233-0.133,2.316,0.083,3.25,0.65
			c1,0.6,0.934,1.283-0.2,2.05c-0.833,0.533-2.233,0.733-4.199,0.6c-2.034-0.133-2.983-0.583-2.851-1.35
			c0.167-0.7,0.634-1.183,1.4-1.45C161.384,28.283,162.25,28.117,163.55,27.95z"/>
		<path style="fill-rule:evenodd;clip-rule:evenodd;fill:#3E9A9D;" d="M67.85,20.25c0.433-0.567,1.05-0.817,1.85-0.75
			c0.466,0.033,1.333,0.267,2.6,0.7c1.167,0.4,2.05,1.05,2.65,1.95c0.633,0.967,0.283,1.55-1.05,1.75
			c-0.967,0.133-2.316-0.283-4.05-1.25C68.083,21.683,67.417,20.883,67.85,20.25z"/>
		<path style="fill-rule:evenodd;clip-rule:evenodd;fill:#3E9A9D;" d="M15.6,15.15c0.167-0.4,0.517-0.633,1.05-0.7
			c0.3-0.034,0.917-0.017,1.85,0.05c0.867,0.067,1.6,0.317,2.2,0.75c0.6,0.467,0.466,0.867-0.4,1.2
			c-0.633,0.233-1.617,0.183-2.95-0.15C15.983,15.967,15.4,15.583,15.6,15.15z"/>
		<path style="fill-rule:evenodd;clip-rule:evenodd;fill:#3E9A9D;" d="M22.4,16.85c0.2-0.533,0.6-0.867,1.2-1
			c0.4-0.1,1.083-0.117,2.05-0.05c0.934,0.034,1.717,0.333,2.35,0.9c0.667,0.633,0.517,1.183-0.45,1.65
			c-0.7,0.367-1.783,0.367-3.25,0C22.8,17.95,22.167,17.45,22.4,16.85z"/>
		<path style="fill-rule:evenodd;clip-rule:evenodd;fill:#3E9A9D;" d="M169.3,28.75c0.033-0.5,0.25-0.867,0.65-1.1
			c0.2-0.133,0.666-0.3,1.399-0.5c0.667-0.2,1.284-0.133,1.851,0.2c0.6,0.333,0.616,0.8,0.05,1.4c-0.4,0.4-1.15,0.633-2.25,0.7
			C169.833,29.517,169.267,29.283,169.3,28.75z"/>
		<path style="fill-rule:evenodd;clip-rule:evenodd;fill:#3E9A9D;" d="M245.15,20.55c1.566,0.333,2.783,1.067,3.649,2.2
			c0.934,1.233,0.533,2.117-1.2,2.65c-1.233,0.4-3.033,0.117-5.399-0.85c-2.4-1.033-3.334-2.033-2.8-3
			c0.5-0.867,1.283-1.333,2.35-1.4C242.316,20.117,243.45,20.25,245.15,20.55z"/>
		<path style="fill-rule:evenodd;clip-rule:evenodd;fill:#3E9A9D;" d="M250.3,23.5c0.2-0.4,0.483-0.633,0.851-0.7
			c0.199-0.066,0.566-0.066,1.1,0c0.5,0.067,0.866,0.333,1.1,0.8c0.233,0.5,0.067,0.9-0.5,1.2c-0.433,0.233-1.017,0.184-1.75-0.15
			C250.366,24.317,250.1,23.933,250.3,23.5z"/>
	</g>
	
		<use xlink:href="#flash0.ai_x2F_Layer_3_x2F__x3C_Path_x3E__x5F_48"  width="3.513" height="3.417" x="-0.005" y="-3.4" transform="matrix(1 0 0 -1 265.4004 64.9004)" style="overflow:visible;opacity:0.6289;enable-background:new    ;"/>
	
		<use xlink:href="#flash0.ai_x2F_Layer_3_x2F__x3C_Path_x3E__x5F_47"  width="12.595" height="12.22" x="0.014" y="-12.201" transform="matrix(1 0 0 -1 82.3999 55.5498)" style="overflow:visible;opacity:0.6289;enable-background:new    ;"/>
	
		<use xlink:href="#flash0.ai_x2F_Layer_3_x2F__x3C_Path_x3E__x5F_46"  width="12.391" height="12.906" x="0.009" y="-12.902" transform="matrix(1 0 0 -1 63 44.6001)" style="overflow:visible;opacity:0.6289;enable-background:new    ;"/>
	
		<use xlink:href="#flash0.ai_x2F_Layer_3_x2F__x3C_Path_x3E__x5F_45"  width="4.372" height="17.071" x="0.046" y="-17.071" transform="matrix(1 0 0 -1 80.5 66.0996)" style="overflow:visible;opacity:0.6289;enable-background:new    ;"/>
	
		<use xlink:href="#flash0.ai_x2F_Layer_3_x2F__x3C_Path_x3E__x5F_44"  width="6.582" height="16.058" x="0.032" y="-16.125" transform="matrix(1 0 0 -1 77 104.9502)" style="overflow:visible;opacity:0.6289;enable-background:new    ;"/>
	
		<use xlink:href="#flash0.ai_x2F_Layer_3_x2F__x3C_Path_x3E__x5F_43"  width="5.312" height="11.1" x="-0.062" y="-11.1" transform="matrix(1 0 0 -1 71.1499 87.5498)" style="overflow:visible;opacity:0.6289;enable-background:new    ;"/>
	
		<use xlink:href="#flash0.ai_x2F_Layer_3_x2F__x3C_Path_x3E__x5F_42"  width="1.421" height="3.391" x="-0.014" y="-3.389" transform="matrix(1 0 0 -1 83.1499 84.1504)" style="overflow:visible;opacity:0.6289;enable-background:new    ;"/>
	
		<use xlink:href="#flash0.ai_x2F_Layer_3_x2F__x3C_Path_x3E__x5F_41"  width="2.488" height="10.768" x="-0.013" y="-10.753" transform="matrix(1 0 0 -1 69.8999 57.5498)" style="overflow:visible;opacity:0.6289;enable-background:new    ;"/>
	
		<use xlink:href="#flash0.ai_x2F_Layer_3_x2F__x3C_Path_x3E__x5F_40"  width="5.11" height="5.033" x="-0.004" y="-5" transform="matrix(1 0 0 -1 239.0498 44.9502)" style="overflow:visible;opacity:0.6289;enable-background:new    ;"/>
	
		<use xlink:href="#flash0.ai_x2F_Layer_3_x2F__x3C_Path_x3E__x5F_39"  width="6.527" height="6.356" x="-0.011" y="-6.35" transform="matrix(1 0 0 -1 122.6499 52.1001)" style="overflow:visible;opacity:0.6289;enable-background:new    ;"/>
	
		<use xlink:href="#flash0.ai_x2F_Layer_3_x2F__x3C_Path_x3E__x5F_38"  width="7.185" height="7.199" x="-0.023" y="-7.196" transform="matrix(1 0 0 -1 47.7002 34.2002)" style="overflow:visible;opacity:0.6289;enable-background:new    ;"/>
	
		<use xlink:href="#flash0.ai_x2F_Layer_3_x2F__x3C_Path_x3E__x5F_37"  width="6.938" height="6.806" x="0.029" y="-6.8" transform="matrix(1 0 0 -1 44.5 65.2002)" style="overflow:visible;opacity:0.6289;enable-background:new    ;"/>
	
		<use xlink:href="#flash0.ai_x2F_Layer_3_x2F__x3C_Path_x3E__x5F_36"  width="6.927" height="6.756" x="-0.01" y="-6.75" transform="matrix(1 0 0 -1 128.7998 78.3496)" style="overflow:visible;opacity:0.6289;enable-background:new    ;"/>
	
		<use xlink:href="#flash0.ai_x2F_Layer_3_x2F__x3C_Path_x3E__x5F_35"  width="6.389" height="6.184" x="-0.023" y="-6.2" transform="matrix(1 0 0 -1 158.1504 84.75)" style="overflow:visible;opacity:0.6289;enable-background:new    ;"/>
	
		<use xlink:href="#flash0.ai_x2F_Layer_3_x2F__x3C_Path_x3E__x5F_34"  width="6.837" height="6.811" x="-0.017" y="-6.85" transform="matrix(1 0 0 -1 256.6504 70.75)" style="overflow:visible;opacity:0.6289;enable-background:new    ;"/>
	
		<use xlink:href="#flash0.ai_x2F_Layer_3_x2F__x3C_Path_x3E__x5F_33"  width="8.881" height="8.673" x="-0.017" y="-8.65" transform="matrix(1 0 0 -1 239.0996 52.3999)" style="overflow:visible;opacity:0.6289;enable-background:new    ;"/>
	
		<use xlink:href="#flash0.ai_x2F_Layer_3_x2F__x3C_Path_x3E__x5F_32"  width="15.519" height="15.206" x="0.011" y="-15.2" transform="matrix(1 0 0 -1 110.9502 73.7002)" style="overflow:visible;opacity:0.6289;enable-background:new    ;"/>
	
		<use xlink:href="#flash0.ai_x2F_Layer_3_x2F__x3C_Path_x3E__x5F_31"  width="8.282" height="8.056" x="0.031" y="-8.05" transform="matrix(1 0 0 -1 252.0498 60.7998)" style="overflow:visible;opacity:0.6289;enable-background:new    ;"/>
	
		<use xlink:href="#flash0.ai_x2F_Layer_3_x2F__x3C_Path_x3E__x5F_30"  width="8.331" height="8.1" x="-0.018" y="-8.1" transform="matrix(1 0 0 -1 149.7998 51.8501)" style="overflow:visible;opacity:0.6289;enable-background:new    ;"/>
	
		<use xlink:href="#flash0.ai_x2F_Layer_3_x2F__x3C_Path_x3E__x5F_29"  width="8.283" height="8.1" x="-0.019" y="-8.1" transform="matrix(1 0 0 -1 218.1504 61.7998)" style="overflow:visible;opacity:0.6289;enable-background:new    ;"/>
	
		<use xlink:href="#flash0.ai_x2F_Layer_3_x2F__x3C_Path_x3E__x5F_28"  width="11.235" height="10.946" x="-0.024" y="-10.95" transform="matrix(1 0 0 -1 126.25 86.75)" style="overflow:visible;opacity:0.6289;enable-background:new    ;"/>
	
		<use xlink:href="#flash0.ai_x2F_Layer_3_x2F__x3C_Path_x3E__x5F_27"  width="7.486" height="7.278" x="-0.02" y="-7.3" transform="matrix(1 0 0 -1 306.3496 54.25)" style="overflow:visible;opacity:0.6289;enable-background:new    ;"/>
	
		<use xlink:href="#flash0.ai_x2F_Layer_3_x2F__x3C_Path_x3E__x5F_26"  width="16.803" height="16.4" x="-0.037" y="-16.4" transform="matrix(1 0 0 -1 271.5 74.6504)" style="overflow:visible;opacity:0.6289;enable-background:new    ;"/>
	
		<use xlink:href="#flash0.ai_x2F_Layer_3_x2F__x3C_Path_x3E__x5F_25"  width="12.106" height="11.862" x="0.015" y="-11.85" transform="matrix(1 0 0 -1 294.6504 63)" style="overflow:visible;opacity:0.6289;enable-background:new    ;"/>
	
		<use xlink:href="#flash0.ai_x2F_Layer_3_x2F__x3C_Path_x3E__x5F_24"  width="11.335" height="11.017" x="-0.024" y="-11" transform="matrix(1 0 0 -1 49.9502 54.8999)" style="overflow:visible;opacity:0.6289;enable-background:new    ;"/>
	
		<use xlink:href="#flash0.ai_x2F_Layer_3_x2F__x3C_Path_x3E__x5F_23"  width="13.052" height="12.789" x="0.018" y="-12.8" transform="matrix(1 0 0 -1 242.1504 70.5498)" style="overflow:visible;opacity:0.6289;enable-background:new    ;"/>
	
		<use xlink:href="#flash0.ai_x2F_Layer_3_x2F__x3C_Path_x3E__x5F_22"  width="6.179" height="6.006" x="-0.024" y="-6" transform="matrix(1 0 0 -1 121.9502 34.1499)" style="overflow:visible;opacity:0.6289;enable-background:new    ;"/>
	
		<use xlink:href="#flash0.ai_x2F_Layer_3_x2F__x3C_Path_x3E__x5F_21"  width="6.179" height="6.056" x="-0.011" y="-6.05" transform="matrix(1 0 0 -1 303.4502 40.5)" style="overflow:visible;opacity:0.6289;enable-background:new    ;"/>
	
		<use xlink:href="#flash0.ai_x2F_Layer_3_x2F__x3C_Path_x3E__x5F_20"  width="5.681" height="5.583" x="-0.013" y="-5.55" transform="matrix(1 0 0 -1 196.6504 67.5498)" style="overflow:visible;opacity:0.6289;enable-background:new    ;"/>
	
		<use xlink:href="#flash0.ai_x2F_Layer_3_x2F__x3C_Path_x3E__x5F_19"  width="5.083" height="4.983" x="0.037" y="-5" transform="matrix(1 0 0 -1 189.4502 32.8501)" style="overflow:visible;opacity:0.6289;enable-background:new    ;"/>
	
		<use xlink:href="#flash0.ai_x2F_Layer_3_x2F__x3C_Path_x3E__x5F_18"  width="8.282" height="8.106" x="0.031" y="-8.1" transform="matrix(1 0 0 -1 184.0996 40.2002)" style="overflow:visible;opacity:0.6289;enable-background:new    ;"/>
	
		<use xlink:href="#flash0.ai_x2F_Layer_3_x2F__x3C_Path_x3E__x5F_17"  width="5.718" height="5.533" x="-0.013" y="-5.55" transform="matrix(1 0 0 -1 194.4004 36.7002)" style="overflow:visible;opacity:0.6289;enable-background:new    ;"/>
	
		<use xlink:href="#flash0.ai_x2F_Layer_3_x2F__x3C_Path_x3E__x5F_16"  width="4.012" height="3.912" x="-0.005" y="-3.9" transform="matrix(1 0 0 -1 178.2002 72.3496)" style="overflow:visible;opacity:0.6289;enable-background:new    ;"/>
	
		<use xlink:href="#flash0.ai_x2F_Layer_3_x2F__x3C_Path_x3E__x5F_15"  width="5.703" height="5.79" x="-0.013" y="-5.775" transform="matrix(1 0 0 -1 164.2002 56.2002)" style="overflow:visible;opacity:0.6289;enable-background:new    ;"/>
	
		<use xlink:href="#flash0.ai_x2F_Layer_3_x2F__x3C_Path_x3E__x5F_14"  width="4.845" height="4.893" x="-0.005" y="-4.925" transform="matrix(1 0 0 -1 21.8501 65.3496)" style="overflow:visible;opacity:0.6289;enable-background:new    ;"/>
	
		<use xlink:href="#flash0.ai_x2F_Layer_3_x2F__x3C_Path_x3E__x5F_13"  width="5.294" height="5.307" x="-0.004" y="-5.29" transform="matrix(1 0 0 -1 98.2998 63.7002)" style="overflow:visible;opacity:0.6289;enable-background:new    ;"/>
	
		<use xlink:href="#flash0.ai_x2F_Layer_3_x2F__x3C_Path_x3E__x5F_12"  width="5.443" height="5.338" x="0.011" y="-5.375" transform="matrix(1 0 0 -1 84.5 89.4502)" style="overflow:visible;opacity:0.6289;enable-background:new    ;"/>
	
		<use xlink:href="#flash0.ai_x2F_Layer_3_x2F__x3C_Path_x3E__x5F_11"  width="5.629" height="5.691" x="-0.004" y="-5.675" transform="matrix(1 0 0 -1 66.7998 73.0996)" style="overflow:visible;opacity:0.6289;enable-background:new    ;"/>
	
		<use xlink:href="#flash0.ai_x2F_Layer_3_x2F__x3C_Path_x3E__x5F_10"  width="14.479" height="14.458" x="-0.01" y="-14.415" transform="matrix(1 0 0 -1 87.8999 70.7002)" style="overflow:visible;opacity:0.6289;enable-background:new    ;"/>
	
		<use xlink:href="#flash0.ai_x2F_Layer_3_x2F__x3C_Path_x3E__x5F_9"  width="17.823" height="18.061" x="0.03" y="-18.038" transform="matrix(1 0 0 -1 94.0498 43.2998)" style="overflow:visible;opacity:0.6289;enable-background:new    ;"/>
	
		<use xlink:href="#flash0.ai_x2F_Layer_3_x2F__x3C_Path_x3E__x5F_8"  width="15.433" height="15.912" x="-0.001" y="-15.907" transform="matrix(1 0 0 -1 32.4502 49)" style="overflow:visible;opacity:0.6289;enable-background:new    ;"/>
	
		<use xlink:href="#flash0.ai_x2F_Layer_3_x2F__x3C_Path_x3E__x5F_7"  width="8.831" height="8.65" x="-0.018" y="-8.65" transform="matrix(1 0 0 -1 130.5 33.8999)" style="overflow:visible;opacity:0.6289;enable-background:new    ;"/>
	
		<use xlink:href="#flash0.ai_x2F_Layer_3_x2F__x3C_Path_x3E__x5F_6"  width="8.881" height="8.65" x="-0.017" y="-8.65" transform="matrix(1 0 0 -1 298.9502 76.5)" style="overflow:visible;opacity:0.6289;enable-background:new    ;"/>
	
		<use xlink:href="#flash0.ai_x2F_Layer_3_x2F__x3C_Path_x3E__x5F_5"  width="16.305" height="15.928" x="0.012" y="-15.9" transform="matrix(1 0 0 -1 168.25 77.2002)" style="overflow:visible;opacity:0.6289;enable-background:new    ;"/>
	
		<use xlink:href="#flash0.ai_x2F_Layer_3_x2F__x3C_Path_x3E__x5F_4"  width="6.282" height="6.243" x="-0.022" y="-6.239" transform="matrix(1 0 0 -1 37.8501 81.0498)" style="overflow:visible;opacity:0.6289;enable-background:new    ;"/>
	
		<use xlink:href="#flash0.ai_x2F_Layer_3_x2F__x3C_Path_x3E__x5F_3"  width="3.963" height="3.905" x="-0.008" y="-3.9" transform="matrix(1 0 0 -1 35.5498 89.25)" style="overflow:visible;opacity:0.6289;enable-background:new    ;"/>
	
		<use xlink:href="#flash0.ai_x2F_Layer_3_x2F__x3C_Path_x3E__x5F_2"  width="16.106" height="15.969" x="0.01" y="-15.963" transform="matrix(1 0 0 -1 17.75 77.75)" style="overflow:visible;opacity:0.6289;enable-background:new    ;"/>
	
		<use xlink:href="#flash0.ai_x2F_Layer_3_x2F__x3C_Path_x3E__x5F_1"  width="19.199" height="19.131" x="-0.038" y="-19.152" transform="matrix(1 0 0 -1 135.0498 58.7002)" style="overflow:visible;opacity:0.6289;enable-background:new    ;"/>
	
		<use xlink:href="#flash0.ai_x2F_Layer_3_x2F__x3C_Path_x3E_"  width="13.957" height="14.302" x="-0.007" y="-14.294" transform="matrix(1 0 0 -1 204.5498 65.2002)" style="overflow:visible;opacity:0.6289;enable-background:new    ;"/>
</g>
</svg>
