<?xml version="1.0" encoding="iso-8859-1"?>
<!-- Generator: Adobe Illustrator 15.1.0, SVG Export Plug-In . SVG Version: 6.00 Build 0)  -->
<!DOCTYPE svg PUBLIC "-//W3C//DTD SVG 1.1//EN" "http://www.w3.org/Graphics/SVG/1.1/DTD/svg11.dtd">
<svg version="1.1" id="Layer_3" xmlns="http://www.w3.org/2000/svg" xmlns:xlink="http://www.w3.org/1999/xlink" x="0px" y="0px"
	 width="84.65px" height="94px" viewBox="0 0 84.65 94" style="enable-background:new 0 0 84.65 94;" xml:space="preserve">
<symbol  id="flash0.ai_x2F_Layer_3_x2F__x3C_Path_x3E_" viewBox="0.042 -12.213 12.062 12.242">
	<g id="Layer_1_16_">
		<path style="fill-rule:evenodd;clip-rule:evenodd;fill:#1F1A1C;" d="M12-3c0.167-0.267,0.133-1.567-0.1-3.9
			c-0.233-2.333-0.467-3.667-0.7-4c-0.333-0.5-1.6-0.883-3.8-1.15C5.3-12.283,3.933-12.267,3.3-12c-0.566,0.2-1.267,1.283-2.1,3.25
			C0.367-6.85-0.017-5.533,0.05-4.8c0.034,0.6,0.867,1.517,2.5,2.75C3.95-0.983,5.033-0.3,5.8,0c0.434,0.133,1.483-0.2,3.15-1
			C10.617-1.8,11.633-2.467,12-3z"/>
	</g>
</symbol>
<symbol  id="flash0.ai_x2F_Layer_3_x2F__x3C_Path_x3E__x5F_1" viewBox="-0.007 -12.213 12.096 12.255">
	<g id="Layer_1_15_">
		<path style="fill-rule:evenodd;clip-rule:evenodd;fill:#1F1A1C;" d="M8.95-1c1.667-0.8,2.667-1.467,3-2
			c0.2-0.267,0.183-1.567-0.05-3.9c-0.233-2.333-0.467-3.667-0.7-4c-0.333-0.533-1.6-0.917-3.8-1.15
			C5.333-12.283,3.967-12.267,3.3-12c-0.566,0.2-1.267,1.283-2.1,3.25C0.333-6.85-0.067-5.533,0-4.8
			c0.067,0.6,0.917,1.517,2.55,2.75C3.95-0.983,5.033-0.3,5.8,0C6.233,0.167,7.283-0.167,8.95-1z"/>
	</g>
</symbol>
<symbol  id="flash0.ai_x2F_Layer_3_x2F__x3C_Path_x3E__x5F_10" viewBox="-0.004 -4.25 4.361 4.262">
	<g id="Layer_1_6_">
		<path style="fill-rule:evenodd;clip-rule:evenodd;fill:#1F1A1C;" d="M2.4,0c0.667-0.067,1.083-0.167,1.25-0.3
			C3.717-0.367,3.867-0.783,4.1-1.55c0.2-0.8,0.283-1.267,0.25-1.4c-0.033-0.2-0.4-0.466-1.1-0.8c-0.633-0.333-1.067-0.5-1.3-0.5
			c-0.2,0-0.567,0.267-1.1,0.8C0.35-2.95,0.067-2.583,0-2.35c-0.033,0.2,0.133,0.6,0.5,1.2C0.833-0.617,1.1-0.267,1.3-0.1
			C1.4,0,1.767,0.033,2.4,0z"/>
	</g>
</symbol>
<symbol  id="flash0.ai_x2F_Layer_3_x2F__x3C_Path_x3E__x5F_11" viewBox="0.026 -6.502 6.678 6.462">
	<g id="Layer_1_5_">
		<path style="fill-rule:evenodd;clip-rule:evenodd;fill:#1F1A1C;" d="M6.7-4.35C6.667-4.683,6.133-5.133,5.1-5.7
			c-0.967-0.533-1.633-0.8-2-0.8C2.8-6.533,2.233-6.167,1.4-5.4C0.6-4.633,0.15-4.067,0.05-3.7c-0.1,0.3,0.117,0.917,0.65,1.85
			C1.1-1.117,1.467-0.567,1.8-0.2c0.167,0.133,0.75,0.184,1.75,0.15c0.967-0.034,1.6-0.133,1.9-0.3C5.583-0.45,5.833-1.1,6.2-2.3
			C6.567-3.467,6.733-4.15,6.7-4.35z"/>
	</g>
</symbol>
<symbol  id="flash0.ai_x2F_Layer_3_x2F__x3C_Path_x3E__x5F_12" viewBox="0.026 -6.5 6.688 6.508">
	<g id="Layer_1_4_">
		<path style="fill-rule:evenodd;clip-rule:evenodd;fill:#1F1A1C;" d="M6.2-2.25C6.6-3.417,6.767-4.1,6.7-4.3
			C6.667-4.633,6.133-5.083,5.1-5.65c-0.967-0.533-1.633-0.817-2-0.85c-0.3,0-0.867,0.383-1.7,1.15C0.6-4.617,0.15-4.067,0.05-3.7
			c-0.1,0.3,0.117,0.917,0.65,1.85C1.167-1.017,1.55-0.467,1.85-0.2C2.017-0.033,2.583,0.033,3.55,0c0.967-0.033,1.6-0.15,1.9-0.35
			C5.583-0.417,5.833-1.05,6.2-2.25z"/>
	</g>
</symbol>
<symbol  id="flash0.ai_x2F_Layer_3_x2F__x3C_Path_x3E__x5F_13" viewBox="-0.006 -6.162 4.959 6.168">
	<g id="Layer_1_3_">
		<path style="fill-rule:evenodd;clip-rule:evenodd;fill:#1F1A1C;" d="M0.35-0.7c0.033,0.2,0.4,0.383,1.1,0.55
			c0.667,0.167,1.133,0.2,1.4,0.1c0.133-0.067,0.5-0.6,1.1-1.6c0.633-1,0.966-1.6,1-1.8C4.983-3.75,4.733-4.267,4.2-5
			C3.7-5.667,3.333-6.05,3.1-6.15C2.867-6.217,2.367-6,1.6-5.5C0.8-4.967,0.317-4.55,0.15-4.25c-0.167,0.267-0.2,0.883-0.1,1.85
			C0.117-1.567,0.217-1,0.35-0.7z"/>
	</g>
</symbol>
<symbol  id="flash0.ai_x2F_Layer_3_x2F__x3C_Path_x3E__x5F_14" viewBox="0 -4.279 4.167 4.301">
	<g id="Layer_1_2_">
		<path style="fill-rule:evenodd;clip-rule:evenodd;fill:#1F1A1C;" d="M2.9-0.25c0.6-0.2,0.967-0.367,1.1-0.5
			c0.067-0.1,0.117-0.567,0.15-1.4C4.183-2.95,4.167-3.4,4.1-3.5C4-3.7,3.583-3.9,2.85-4.1c-0.7-0.167-1.167-0.217-1.4-0.15
			c-0.2,0.033-0.5,0.367-0.9,1C0.183-2.617,0-2.167,0-1.9c0,0.2,0.25,0.55,0.75,1.05C1.217-0.417,1.567-0.133,1.8,0
			C1.933,0.067,2.3-0.017,2.9-0.25z"/>
	</g>
</symbol>
<symbol  id="flash0.ai_x2F_Layer_3_x2F__x3C_Path_x3E__x5F_2" viewBox="-0.033 -4.635 4.683 4.651">
	<g id="Layer_1_14_">
		<path style="fill-rule:evenodd;clip-rule:evenodd;fill:#1F1A1C;" d="M3.15,0C3.317-0.033,3.6-0.333,4-0.9
			c0.4-0.567,0.617-0.967,0.65-1.2c0-0.133-0.267-0.566-0.8-1.3C3.35-4.133,3.033-4.533,2.9-4.6C2.7-4.7,2.217-4.583,1.45-4.25
			c-0.733,0.333-1.184,0.6-1.35,0.8C-0.033-3.283-0.067-2.8,0-2c0.1,0.8,0.233,1.3,0.4,1.5c0.133,0.2,0.567,0.35,1.3,0.45
			C2.333,0.017,2.817,0.033,3.15,0z"/>
	</g>
</symbol>
<symbol  id="flash0.ai_x2F_Layer_3_x2F__x3C_Path_x3E__x5F_3" viewBox="0 -3.59 3.59 3.596">
	<g id="Layer_1_13_">
		<path style="fill-rule:evenodd;clip-rule:evenodd;fill:#1F1A1C;" d="M2.65-0.3c0.467-0.233,0.767-0.434,0.9-0.6
			C3.617-0.967,3.6-1.35,3.5-2.05C3.433-2.717,3.367-3.1,3.3-3.2C3.2-3.367,2.833-3.483,2.2-3.55C1.567-3.617,1.167-3.6,1-3.5
			C0.833-3.467,0.617-3.15,0.35-2.55C0.117-2.017,0-1.633,0-1.4c0.033,0.167,0.283,0.433,0.75,0.8C1.183-0.267,1.5-0.067,1.7,0
			C1.833,0.033,2.15-0.067,2.65-0.3z"/>
	</g>
</symbol>
<symbol  id="flash0.ai_x2F_Layer_3_x2F__x3C_Path_x3E__x5F_4" viewBox="0.01 -15.05 15.408 15.078">
	<g id="Layer_1_12_">
		<path style="fill-rule:evenodd;clip-rule:evenodd;fill:#1F1A1C;" d="M12.85-1.05c0.333-0.233,0.867-1.733,1.6-4.5
			c0.733-2.733,1.05-4.35,0.95-4.85c-0.167-0.733-1.45-1.717-3.85-2.95c-2.267-1.133-3.833-1.7-4.7-1.7c-0.733,0-2,0.917-3.8,2.75
			c-1.8,1.833-2.8,3.167-3,4C-0.15-7.567,0.4-6.15,1.7-4.05c1.133,1.8,2.066,3.033,2.8,3.7c0.433,0.367,1.767,0.467,4,0.3
			C10.767-0.25,12.217-0.583,12.85-1.05z"/>
	</g>
</symbol>
<symbol  id="flash0.ai_x2F_Layer_3_x2F__x3C_Path_x3E__x5F_5" viewBox="-0.023 -6.25 6.238 6.253">
	<g id="Layer_1_11_">
		<path style="fill-rule:evenodd;clip-rule:evenodd;fill:#1F1A1C;" d="M4.9-0.85c0.767-0.566,1.2-1,1.3-1.3
			C6.267-2.283,6.117-2.933,5.75-4.1C5.417-5.233,5.167-5.883,5-6.05C4.767-6.25,4.083-6.3,2.95-6.2
			C1.917-6.067,1.233-5.917,0.9-5.75C0.667-5.583,0.433-4.967,0.2-3.9c-0.233,1.066-0.284,1.767-0.15,2.1
			c0.1,0.3,0.617,0.667,1.55,1.1C2.4-0.3,3.017-0.067,3.45,0C3.683,0.033,4.167-0.25,4.9-0.85z"/>
	</g>
</symbol>
<symbol  id="flash0.ai_x2F_Layer_3_x2F__x3C_Path_x3E__x5F_6" viewBox="-0.012 -8.079 8.173 8.084">
	<g id="Layer_1_10_">
		<path style="fill-rule:evenodd;clip-rule:evenodd;fill:#1F1A1C;" d="M6.15-0.25c0.3-0.1,0.717-0.7,1.25-1.8
			C7.967-3.117,8.217-3.867,8.15-4.3c-0.033-0.2-0.566-0.85-1.6-1.95C5.483-7.383,4.833-7.983,4.6-8.05C4.2-8.183,3.4-7.867,2.2-7.1
			C1.033-6.367,0.333-5.8,0.1-5.4c-0.2,0.3-0.133,1.133,0.2,2.5c0.333,1.333,0.667,2.167,1,2.5C1.567-0.1,2.367,0.033,3.7,0
			C4.833-0.033,5.65-0.117,6.15-0.25z"/>
	</g>
</symbol>
<symbol  id="flash0.ai_x2F_Layer_3_x2F__x3C_Path_x3E__x5F_7" viewBox="-0.019 -8.05 8.282 8.05">
	<g id="Layer_1_9_">
		<path style="fill-rule:evenodd;clip-rule:evenodd;fill:#1F1A1C;" d="M6.85-0.55C7.017-0.683,7.3-1.483,7.7-2.95
			c0.433-1.466,0.617-2.333,0.55-2.6C8.15-5.95,7.467-6.467,6.2-7.1C4.967-7.733,4.117-8.05,3.65-8.05c-0.367,0-1.05,0.5-2.05,1.5
			C0.667-5.617,0.133-4.917,0-4.45C-0.1-4.05,0.2-3.3,0.9-2.2c0.633,1,1.133,1.667,1.5,2C2.633,0,3.35,0.05,4.55-0.05
			C5.75-0.15,6.517-0.317,6.85-0.55z"/>
	</g>
</symbol>
<symbol  id="flash0.ai_x2F_Layer_3_x2F__x3C_Path_x3E__x5F_8" viewBox="-0.02 -7.45 7.634 7.45">
	<g id="Layer_1_8_">
		<path style="fill-rule:evenodd;clip-rule:evenodd;fill:#1F1A1C;" d="M6.3-0.55c0.167-0.1,0.434-0.833,0.8-2.2
			c0.4-1.333,0.566-2.133,0.5-2.4C7.5-5.517,6.867-6,5.7-6.6C4.567-7.167,3.783-7.45,3.35-7.45C3.017-7.45,2.4-7,1.5-6.1
			C0.6-5.167,0.1-4.5,0-4.1C-0.1-3.733,0.183-3.033,0.85-2C1.417-1.1,1.867-0.5,2.2-0.2c0.2,0.2,0.867,0.25,2,0.15
			C5.3-0.15,6-0.317,6.3-0.55z"/>
	</g>
</symbol>
<symbol  id="flash0.ai_x2F_Layer_3_x2F__x3C_Path_x3E__x5F_9" viewBox="-0.015 -4.25 4.373 4.262">
	<g id="Layer_1_7_">
		<path style="fill-rule:evenodd;clip-rule:evenodd;fill:#1F1A1C;" d="M2.4,0c0.633-0.067,1.05-0.167,1.25-0.3
			C3.717-0.367,3.867-0.783,4.1-1.55c0.2-0.8,0.283-1.267,0.25-1.4c-0.033-0.2-0.4-0.466-1.1-0.8c-0.633-0.333-1.067-0.5-1.3-0.5
			c-0.2,0-0.567,0.267-1.1,0.8C0.35-2.95,0.067-2.583,0-2.35s0.083,0.633,0.45,1.2c0.333,0.533,0.6,0.883,0.8,1.05
			C1.383,0,1.767,0.033,2.4,0z"/>
	</g>
</symbol>
<g>
	<g>
		
			<linearGradient id="SVGID_1_" gradientUnits="userSpaceOnUse" x1="9.1221" y1="54.7617" x2="78.4492" y2="54.7617" gradientTransform="matrix(1 0.0079 -0.0079 1 2.250150e-004 2.550837e-004)">
			<stop  offset="0" style="stop-color:#3D2940"/>
			<stop  offset="0.3098" style="stop-color:#211F21"/>
			<stop  offset="0.4275" style="stop-color:#272127"/>
			<stop  offset="0.5843" style="stop-color:#372739"/>
			<stop  offset="0.6353" style="stop-color:#3D2940"/>
			<stop  offset="1" style="stop-color:#3A4066"/>
		</linearGradient>
		<path style="fill-rule:evenodd;clip-rule:evenodd;fill:url(#SVGID_1_);" d="M76.15,28.7C75.95,42.4,76.9,55.283,79,67.35
			C80.7,77.017,82.583,85.9,84.65,94H0.6c0.367-0.767,0.95-3.4,1.75-7.9C3.45,79.9,4.3,75.434,4.9,72.7
			c1.167-5.3,2.067-10.4,2.7-15.3c0.467-3.7,0.7-6.467,0.7-8.301c0-9.566-0.15-17.167-0.45-22.8c0.233-0.5,0.767-1.117,1.6-1.85
			c1.733-1.4,4.2-2.567,7.4-3.5c3.7-1.067,8.667-2.1,14.9-3.1c5.867-0.934,10.833-1.55,14.9-1.85
			c5.133-0.367,11.033,0.533,17.699,2.7C72.25,21.267,76.184,24.6,76.15,28.7z"/>
		<path style="fill-rule:evenodd;clip-rule:evenodd;fill:#281C23;" d="M47.75,49.3c0.134-3.066-0.1-5.316-0.7-6.75
			c-0.267,0.8-0.916,2.434-1.95,4.9c-0.837,1.893-1.396,3.442-1.675,4.649c0.365-1.833,0.356-3.45-0.024-4.85
			c-0.367-1.333-1.184-2.867-2.45-4.6c0.033,0.167-0.067,0.667-0.3,1.5c-0.233,0.8-0.333,1.267-0.3,1.4l-0.15,0.2
			c-0.6-0.433-1.233-1-1.9-1.7c-0.767-0.833-1.35-1.466-1.75-1.9c0.034,0.567,0.2,1.267,0.5,2.1c0.2,0.467,0.467,1.133,0.8,2
			c-1.333-1.333-2.317-2.333-2.95-3c-1.167-1.233-1.9-2.35-2.2-3.35c-0.034,0.8-0.2,1.783-0.5,2.95c0,0.033-0.284,1-0.85,2.9
			c-1.3-1.467-2.2-2.933-2.7-4.4c0.067,1.367,0.184,2.583,0.35,3.65c-1.267-0.967-2.283-2-3.05-3.1
			c-0.733-1.033-1.367-2.316-1.9-3.85c-0.3,0.633-0.417,1.383-0.35,2.25c0.066,0.833,0.3,1.617,0.7,2.35
			c-1.533-1.2-2.733-2.5-3.6-3.9c-0.367-0.567-1-1.817-1.9-3.75c-0.033,0.033-0.3,0.4-0.8,1.1c-0.333,0.433-0.55,0.833-0.65,1.2
			c-0.467-1.6-0.667-3.3-0.6-5.1c-1.4,0.767-2.583,1.966-3.55,3.6c-0.933,1.5-1.517,3.083-1.75,4.75
			c-0.566-1.966-0.933-3.233-1.1-3.8c-0.034,0.367-0.15,1.467-0.35,3.3c-0.167,1.333-0.233,2.434-0.2,3.3
			c-0.033-0.1-0.583-1.333-1.65-3.7c-0.656-1.509-1.04-2.792-1.15-3.85c0.093,1.139-0.09,2.988-0.55,5.55
			c-0.433,2.5-0.566,4.45-0.4,5.85C3.883,43.5,2.6,38.567,2.3,32.4c-0.466,0.9-0.816,2.083-1.05,3.55
			c-0.133,0.833-0.3,2.066-0.5,3.7c-0.4-1.8-0.6-4.15-0.6-7.05c0.033-3.067,0.75-5.917,2.15-8.55c1.434-2.633,3.434-4.816,6-6.55
			c6.3-4.167,12.45-7.1,18.45-8.8c8.433-2.467,17.533-2.417,27.3,0.15C63.25,11.283,70.033,15,74.4,20
			c2.767,3.167,4.6,7.05,5.5,11.65c0.466,2.467,0.783,6.817,0.949,13.05c-0.133-0.3-0.85-2.25-2.149-5.85
			c-0.867-2.333-1.75-4.233-2.65-5.7c0.467,2.367,0.601,4.167,0.4,5.4c-1.367-2.5-2.417-4.35-3.15-5.55
			c0.334,1.133,0.667,2.533,1,4.2c0.467,2.167,0.617,3.55,0.45,4.15c-0.833-2.7-2.4-5.633-4.7-8.8c-0.366,0.7-1.017,1.534-1.95,2.5
			c-1.066,1.1-1.767,1.9-2.1,2.4c-0.3-1.133-0.45-1.967-0.45-2.5c-0.033,0.066-0.283,0.4-0.75,1c-0.3,0.433-0.517,0.816-0.649,1.15
			c-0.233-0.7-0.367-1.217-0.4-1.55c-0.667,0.833-1.134,1.467-1.4,1.9c-0.5,0.7-0.816,1.4-0.949,2.1
			c-0.2-0.466-0.417-1.117-0.65-1.95c-0.3-1.067-0.35-1.684-0.15-1.85C60,36.217,59.45,36.9,58.95,37.8
			c-0.527,1.086-0.943,1.878-1.25,2.375c0.234-0.401,0.384-1.176,0.45-2.325c-2.101,1.1-3.65,2.133-4.65,3.1
			c-1.533,1.5-2.217,3.183-2.05,5.05c-0.434-1.867-0.617-3.333-0.55-4.4C49.866,43.433,48.816,46,47.75,49.3z"/>
		<g>
			<path style="fill-rule:evenodd;clip-rule:evenodd;fill:#60B5B1;" d="M82.1,23.05c0.318,2.895,0.561,4.562,0.726,5l-2.175-5
				c0.733,5.733,0.783,10.483,0.149,14.25c-0.1-0.466-0.3-2.066-0.6-4.8c-0.233-2-0.584-3.633-1.05-4.9
				c0.133,2.3,0.017,4.183-0.351,5.65c-0.1-0.933-0.434-2.15-1-3.65c-0.666-1.8-1.066-3.017-1.2-3.65
				c-0.267,0.867-0.75,1.816-1.449,2.85c-0.834,1.167-1.434,2.05-1.801,2.65c-0.033-0.5,0-1.25,0.101-2.25
				c0.066-1,0.083-1.767,0.05-2.3c-0.2,0.567-0.616,1.333-1.25,2.3c-0.4-1.567-0.6-2.4-0.6-2.5c-0.134,0.767-0.617,1.716-1.45,2.85
				c-0.867,1.167-1.367,2.083-1.5,2.75c-0.134-0.733-0.617-1.583-1.45-2.55c-0.9-1.033-1.45-1.85-1.65-2.45
				c0.067,1.067,0.217,1.883,0.45,2.45c-1.467-0.533-2.366-1.6-2.7-3.2c-0.066,0.867-0.517,1.784-1.35,2.75
				c-1,1.034-1.7,1.8-2.1,2.3c-0.067-0.967-0.017-1.934,0.149-2.9c-0.5,1.033-1.283,2.367-2.35,4
				c-0.101-1.267-0.05-2.517,0.149-3.75c-0.5,1.267-1.767,2.6-3.8,4c-2.267,1.566-3.7,2.816-4.3,3.75c0.366-1.6,0.5-3.017,0.4-4.25
				c-1.534,1.333-2.5,2.833-2.9,4.5c-0.4-1.767-0.483-3.1-0.25-4c-1.134,1.2-1.733,2.783-1.8,4.75
				c-0.033,1.133,0.017,2.883,0.149,5.25c-0.333-0.534-0.683-1.4-1.05-2.6c-0.366-1.233-0.717-2.117-1.05-2.65
				c-0.366-0.6-1.033-1.35-2-2.25c-0.906-0.906-1.548-1.64-1.925-2.2c1.088,1.698,1.747,3.282,1.975,4.75
				c-1.266-1.013-2.199-1.796-2.8-2.35c0.456,0.45,0.856,1.05,1.2,1.8c0.333,0.767,0.517,1.466,0.55,2.1
				c-0.967-1.767-2.65-3.367-5.05-4.8c-2.4-1.433-3.8-2.517-4.2-3.25c0.233,0.967,0.3,2.033,0.2,3.2c-0.3-0.633-0.967-1.617-2-2.95
				c-0.934-1.233-1.55-2.283-1.85-3.15c-0.067,0.3-0.2,0.683-0.4,1.15c-0.133,0.467-0.2,0.9-0.2,1.3c-1.2-1.3-1.983-3.017-2.35-5.15
				c-0.333,0.833-0.483,1.833-0.45,3c0.033,1.167,0.25,2.184,0.65,3.05c-1-0.967-1.783-1.934-2.35-2.9c-0.5-0.833-1-1.966-1.5-3.4
				c-0.933,1.2-1.45,2.517-1.55,3.95c-0.8-0.867-1.083-2-0.85-3.4c-2.067,0.833-3.633,1.5-4.7,2c-1.965,0.917-2.898,2.158-2.8,3.725
				c-0.161-1.769-0.061-3.261,0.3-4.475c-1.867,1.267-3.2,3.45-4,6.55c-0.4-2.533-0.383-4.6,0.05-6.2
				c-0.767,1.467-1.267,2.55-1.5,3.25c-0.667,2.034-0.8,4.067-0.4,6.1C4.767,36.283,4.267,35,3.8,33.3
				c-0.468-1.624-0.702-2.899-0.7-3.825c-0.02,0.58-0.12,1.455-0.3,2.625c-0.2,1.167-0.283,2.1-0.25,2.8
				c-0.1-0.933-0.45-2.333-1.05-4.2c-0.567-1.833-0.9-3.233-1-4.2c-0.1-1.333,0.083-2.8,0.55-4.4c0.133-0.5,0.633-1.9,1.5-4.2
				C1.45,18.767,0.6,20.083,0,21.85c0.333-3.867,1.933-7.633,4.8-11.3c2.767-3.533,6-6.083,9.7-7.65
				c4.967-2.066,10.517-2.5,16.65-1.3c1.5,0.3,3.783,0.717,6.85,1.25c0.767,0.167,2,0.6,3.7,1.3c1.533,0.633,2.767,1,3.7,1.1
				c1.533,0.167,3.666,0.233,6.399,0.2c3.101-0.034,5.233-0.017,6.4,0.05c8.3,0.533,14.233,2.133,17.8,4.8
				c1.667,1.3,3.35,3.1,5.05,5.4c1.733,2.4,2.9,4.566,3.5,6.5c-0.565-1.398-1.832-2.599-3.8-3.6
				C81.318,18.911,81.768,20.394,82.1,23.05z"/>
		</g>
		<path style="fill-rule:evenodd;clip-rule:evenodd;fill:#3E9A9D;" d="M42.5,25.95c-3.233,0.066-6.217-0.233-8.95-0.9
			c-2.3-0.566-5.017-1.566-8.15-3c-3.333-1.5-6.3-2.417-8.9-2.75c-2.833-0.133-5.15-0.316-6.95-0.55
			c-3.233-0.4-4.917-1.933-5.05-4.6C4.333,11.45,5.833,8.667,9,5.8c4.4-4.033,9.55-5.966,15.45-5.8c3.566,0.133,7,0.55,10.3,1.25
			c1.733,0.367,4.867,1.183,9.4,2.45c2.066,0.566,5.966,0.966,11.699,1.2c5.767,0.2,10.2,0.717,13.301,1.55
			c4.033,1.066,6.933,2.733,8.699,5c1.467,1.966,1.75,3.667,0.851,5.1c-0.601,1.034-2.134,1.617-4.601,1.75
			c-5,0.233-7.683,0.383-8.05,0.45c-0.767,0.133-3.767,1.4-9,3.8C52.384,24.717,47.533,25.85,42.5,25.95z"/>
		<path style="fill-rule:evenodd;clip-rule:evenodd;fill:#3E9A9D;" d="M66.05,19.7c2.967,0.267,3.367,1.083,1.2,2.45
			c-2.167,1.4-4.184,1.95-6.05,1.65c-1.566-0.267-1.467-1.05,0.3-2.35C63.233,20.183,64.75,19.6,66.05,19.7z"/>
		<path style="fill-rule:evenodd;clip-rule:evenodd;fill:#3E9A9D;" d="M33,25.95c1.433-0.067,2.417,0.4,2.95,1.4
			c0.533,1-0.133,1.4-2,1.2c-1.733-0.2-2.617-0.667-2.65-1.4C31.267,26.417,31.833,26.017,33,25.95z"/>
		<path style="fill-rule:evenodd;clip-rule:evenodd;fill:#3E9A9D;" d="M40.05,28.55c-0.8,0-1.167-0.183-1.1-0.55
			c0.033-0.333,0.35-0.567,0.95-0.7c0.7-0.133,1.1,0.05,1.2,0.55C41.2,28.317,40.85,28.55,40.05,28.55z"/>
	</g>
	
		<use xlink:href="#flash0.ai_x2F_Layer_3_x2F__x3C_Path_x3E__x5F_14"  width="4.167" height="4.301" y="-4.279" transform="matrix(1 0 0 -1 56.0498 54.4004)" style="overflow:visible;opacity:0.6289;enable-background:new    ;"/>
	
		<use xlink:href="#flash0.ai_x2F_Layer_3_x2F__x3C_Path_x3E__x5F_13"  width="4.959" height="6.168" x="-0.006" y="-6.162" transform="matrix(1 0 0 -1 73.5498 72.7002)" style="overflow:visible;opacity:0.6289;enable-background:new    ;"/>
	
		<use xlink:href="#flash0.ai_x2F_Layer_3_x2F__x3C_Path_x3E__x5F_12"  width="6.688" height="6.508" x="0.026" y="-6.5" transform="matrix(1 0 0 -1 68.0498 51.7998)" style="overflow:visible;opacity:0.6289;enable-background:new    ;"/>
	
		<use xlink:href="#flash0.ai_x2F_Layer_3_x2F__x3C_Path_x3E__x5F_11"  width="6.678" height="6.462" x="0.026" y="-6.502" transform="matrix(1 0 0 -1 30.5 81.3496)" style="overflow:visible;opacity:0.6289;enable-background:new    ;"/>
	
		<use xlink:href="#flash0.ai_x2F_Layer_3_x2F__x3C_Path_x3E__x5F_10"  width="4.361" height="4.262" x="-0.004" y="-4.25" transform="matrix(1 0 0 -1 69.75 45.5)" style="overflow:visible;opacity:0.6289;enable-background:new    ;"/>
	
		<use xlink:href="#flash0.ai_x2F_Layer_3_x2F__x3C_Path_x3E__x5F_9"  width="4.373" height="4.262" x="-0.015" y="-4.25" transform="matrix(1 0 0 -1 40.8501 86.0498)" style="overflow:visible;opacity:0.6289;enable-background:new    ;"/>
	
		<use xlink:href="#flash0.ai_x2F_Layer_3_x2F__x3C_Path_x3E__x5F_8"  width="7.634" height="7.45" x="-0.02" y="-7.45" transform="matrix(1 0 0 -1 9.8501 43.5498)" style="overflow:visible;opacity:0.6289;enable-background:new    ;"/>
	
		<use xlink:href="#flash0.ai_x2F_Layer_3_x2F__x3C_Path_x3E__x5F_7"  width="8.282" height="8.05" x="-0.019" y="-8.05" transform="matrix(1 0 0 -1 45.75 52.2998)" style="overflow:visible;opacity:0.6289;enable-background:new    ;"/>
	
		<use xlink:href="#flash0.ai_x2F_Layer_3_x2F__x3C_Path_x3E__x5F_6"  width="8.173" height="8.084" x="-0.012" y="-8.079" transform="matrix(1 0 0 -1 50.0996 79.2002)" style="overflow:visible;opacity:0.6289;enable-background:new    ;"/>
	
		<use xlink:href="#flash0.ai_x2F_Layer_3_x2F__x3C_Path_x3E__x5F_5"  width="6.238" height="6.253" x="-0.023" y="-6.25" transform="matrix(1 0 0 -1 19.6499 43.1499)" style="overflow:visible;opacity:0.6289;enable-background:new    ;"/>
	
		<use xlink:href="#flash0.ai_x2F_Layer_3_x2F__x3C_Path_x3E__x5F_4"  width="15.408" height="15.078" x="0.01" y="-15.05" transform="matrix(1 0 0 -1 22.7002 49.2998)" style="overflow:visible;opacity:0.6289;enable-background:new    ;"/>
	
		<use xlink:href="#flash0.ai_x2F_Layer_3_x2F__x3C_Path_x3E__x5F_3"  width="3.59" height="3.596" y="-3.59" transform="matrix(1 0 0 -1 12.8501 56.0498)" style="overflow:visible;opacity:0.6289;enable-background:new    ;"/>
	
		<use xlink:href="#flash0.ai_x2F_Layer_3_x2F__x3C_Path_x3E__x5F_2"  width="4.683" height="4.651" x="-0.033" y="-4.635" transform="matrix(1 0 0 -1 18.3501 78.3496)" style="overflow:visible;opacity:0.6289;enable-background:new    ;"/>
	
		<use xlink:href="#flash0.ai_x2F_Layer_3_x2F__x3C_Path_x3E__x5F_1"  width="12.096" height="12.255" x="-0.007" y="-12.213" transform="matrix(1 0 0 -1 56.0498 40.9502)" style="overflow:visible;opacity:0.6289;enable-background:new    ;"/>
	
		<use xlink:href="#flash0.ai_x2F_Layer_3_x2F__x3C_Path_x3E_"  width="12.062" height="12.242" x="0.042" y="-12.213" transform="matrix(1 0 0 -1 37.1499 71.6504)" style="overflow:visible;opacity:0.6289;enable-background:new    ;"/>
</g>
</svg>
