<?xml version="1.0" encoding="iso-8859-1"?>
<!-- Generator: Adobe Illustrator 15.1.0, SVG Export Plug-In . SVG Version: 6.00 Build 0)  -->
<!DOCTYPE svg PUBLIC "-//W3C//DTD SVG 1.1//EN" "http://www.w3.org/Graphics/SVG/1.1/DTD/svg11.dtd">
<svg version="1.1" id="Layer_3" xmlns="http://www.w3.org/2000/svg" xmlns:xlink="http://www.w3.org/1999/xlink" x="0px" y="0px"
	 width="97.9px" height="45px" viewBox="0 0 97.9 45" style="enable-background:new 0 0 97.9 45;" xml:space="preserve">
<g>
	<path style="fill-rule:evenodd;clip-rule:evenodd;fill:#281C23;" d="M64.7,37.55c0.566,2.8,0.899,5.267,1,7.4
		c0.066-3.033,0.883-6.033,2.45-9c0.767-1.467,1.533-2.634,2.3-3.5c-1.233,1.533-1.884,4.066-1.95,7.6
		c-0.033,1.8,0.05,3.434,0.25,4.9H65.7h-4c0.934-3.233,0.833-7.65-0.3-13.25l-1.95-7.4C61.816,27.566,63.566,31.983,64.7,37.55z"/>
	<path style="fill-rule:evenodd;clip-rule:evenodd;fill:#281C23;" d="M24.45,27.25c0.033-0.4-0.167-0.7-0.6-0.9
		c-0.467-0.199-0.934-0.216-1.4-0.05c-0.767,0.267-1.35,0.783-1.75,1.55c-0.4,0.834-0.167,1.301,0.7,1.4
		c0.667,0.1,1.35-0.1,2.05-0.6C24.083,28.15,24.417,27.684,24.45,27.25z M14.7,11.7c-0.333-0.333-0.65-0.267-0.95,0.2
		c-0.233,0.333-0.317,0.75-0.25,1.25c0.067,0.467,0.217,0.75,0.45,0.85c0.2,0.133,0.4,0.1,0.6-0.1c0.2-0.167,0.333-0.4,0.4-0.7
		C15.117,12.567,15.033,12.067,14.7,11.7z M22.95,23.85c0.133-0.166,0.117-0.366-0.05-0.6c-0.167-0.233-0.4-0.383-0.7-0.45
		c-0.467-0.1-0.917,0-1.35,0.3c-0.434,0.267-0.434,0.551,0,0.851c0.333,0.233,0.733,0.333,1.2,0.3
		C22.517,24.217,22.817,24.083,22.95,23.85z M48.45,13.55c1.467,0.8,2.05,2.167,1.75,4.1c-0.267,1.767-1.184,3.567-2.75,5.4
		c-2.067,2.2-3.467,3.783-4.2,4.75c-1.233,1.634-1.567,2.95-1,3.95c0.467,0.833,1.1,0.733,1.9-0.3c1.233-1.667,2.3-2.7,3.2-3.101
		c1.4-0.633,2.45-0.466,3.15,0.5c0.7,0.934,0.65,2-0.15,3.2c-0.6,0.867-1.649,1.634-3.149,2.3c-1.9,0.801-3.117,1.4-3.65,1.801
		c-1.667,1.3-2.417,2.466-2.25,3.5c0.133,0.699,0.5,1.133,1.1,1.3c0.6,0.166,1.083-0.05,1.45-0.65c0.467-0.833,1.017-1.434,1.65-1.8
		c0.7-0.434,1.217-0.316,1.55,0.35c0.5,1,0.067,1.817-1.3,2.45c-1.9,0.867-3,1.55-3.3,2.05c-0.233,0.4-0.383,0.767-0.45,1.101
		c-0.067,0.3-0.067,0.467,0,0.5h-7.1c0.167-0.867,0.25-1.867,0.25-3c0.067-3.2-1.233-4.967-3.9-5.3c-1.367-0.167-2.6,0.083-3.7,0.75
		c-0.667,0.399-1.667,1.183-3,2.35c-1.733,1.333-3.433,1.967-5.1,1.9c-1.633-0.101-2.6-0.834-2.9-2.2c-0.3-1.3,0.3-2.334,1.8-3.101
		c0.633-0.333,2-0.767,4.1-1.3c1.4-0.333,2.517-0.883,3.35-1.649c0.967-0.9,1.15-1.784,0.55-2.65c-0.467-0.7-1.317-0.85-2.55-0.45
		c-1.233,0.4-2.3,1.15-3.2,2.25c-0.867,1.101-1.817,1.684-2.85,1.75c-1,0.066-1.65-0.35-1.95-1.25c-0.133-0.467,0.067-1.066,0.6-1.8
		c0.7-0.767,1.15-1.333,1.35-1.7c0.167-0.3,0.217-0.616,0.15-0.95c-0.066-0.333-0.217-0.483-0.45-0.449
		c-1.233,0.133-1.95-0.2-2.15-1c-0.167-0.767,0.233-1.367,1.2-1.801c0.967-0.366,1.55-0.866,1.75-1.5
		c0.2-0.666-0.017-1.283-0.65-1.85s-1.2-0.733-1.7-0.5c-0.367,0.167-1.083,0.783-2.15,1.85c-0.633,0.634-1.267,0.784-1.9,0.45
		c-0.667-0.333-0.85-0.867-0.55-1.6c0.267-0.6,0.967-1.267,2.1-2c0.867-0.567,1.167-1.083,0.9-1.55c-0.367-0.6-1.133-0.933-2.3-1
		c-0.7-0.066-2.1-0.017-4.2,0.15c-4.833,0.367-7.417-0.316-7.75-2.05c-0.2-0.933,0.233-1.583,1.3-1.95
		c1-0.367,2.183-0.383,3.55-0.05c1.8,0.433,2.833,0.667,3.1,0.7c0.8,0.066,1.267-0.167,1.4-0.7c0.067-0.367-0.517-0.9-1.75-1.6
		c-1.4-0.8-2.2-1.533-2.4-2.2c-0.3-1.034-0.017-1.6,0.85-1.7C7.033,8.15,7.917,8.7,8.75,9.9c0.967,1.434,1.7,2.367,2.2,2.8
		c0.633,0.533,1.033,0.433,1.2-0.3c0.033-0.167-0.217-1.316-0.75-3.45c-0.467-1.934-0.283-3.684,0.55-5.25
		c1.033-1.934,2.433-3.117,4.2-3.55c1.733-0.4,2.717,0.133,2.95,1.6c0.2,1.167-0.167,2.317-1.1,3.45c-1.1,1.3-1.717,2.45-1.85,3.45
		c-0.233,1.6-0.033,3.05,0.6,4.35c0.6,1.267,1.2,1.583,1.8,0.95c0.4-0.4,0.567-1.1,0.5-2.1c-0.133-1.267-0.1-2.217,0.1-2.85
		c0.333-1.167,0.767-1.9,1.3-2.2c0.566-0.333,0.983-0.066,1.25,0.8c0.133,0.467-0.117,1.517-0.75,3.15
		c-0.5,1.3-0.417,2.067,0.25,2.3c0.8,0.267,1.383,0,1.75-0.8l1.15-3.4c0.733-2.2,2.2-3.95,4.4-5.25c2.233-1.267,3.75-1.3,4.55-0.1
		c0.9,1.367,0.55,2.883-1.05,4.55c-2.233,1.867-3.75,3.333-4.55,4.4c-0.567,0.767-1.017,1.6-1.35,2.5
		c-0.333,0.867-0.483,1.6-0.45,2.2c0.067,0.533,0.25,1.017,0.55,1.45c0.367,0.566,0.816,0.783,1.35,0.65
		c0.6-0.167,0.983-0.983,1.15-2.45c0.167-1.533,0.733-2.517,1.7-2.95c0.833-0.367,1.434-0.117,1.8,0.75
		c0.367,0.9,0.083,1.983-0.85,3.25c-0.467,0.6-0.783,1.3-0.95,2.1c-0.233,1.033-0.017,1.683,0.65,1.95
		c0.567,0.233,1.017,0.017,1.35-0.65c0.567-1,0.867-1.517,0.9-1.55c0.6-0.534,1.117-0.617,1.55-0.25
		c0.367,0.333,0.533,0.833,0.5,1.5c-0.033,0.633-0.4,1.65-1.1,3.05c-0.633,1.767-0.567,3.083,0.2,3.95c0.533,0.633,1.2,0.983,2,1.05
		c0.833,0.066,1.466-0.25,1.9-0.95c0.667-1.033,1.066-2.1,1.2-3.2c0.133-1.466,0.317-2.833,0.55-4.1c0.467-2.5,1.483-4.55,3.05-6.15
		C44.917,12.867,46.683,12.517,48.45,13.55z M45.95,18.55c0.433-1.1,0.367-1.9-0.2-2.4s-1.233-0.433-2,0.2
		c-0.733,0.6-1.283,1.583-1.65,2.95c-0.4,1.434-0.317,2.383,0.25,2.85c0.566,0.467,1.2,0.283,1.9-0.55
		C44.883,20.9,45.45,19.883,45.95,18.55z"/>
	<path style="fill-rule:evenodd;clip-rule:evenodd;fill:#281C23;" d="M91.55,17.35c0.2,0.333,0.55,0.45,1.05,0.35
		c0.5-0.1,0.617-0.35,0.351-0.75c-0.167-0.267-0.467-0.333-0.9-0.2S91.45,17.083,91.55,17.35z M81.9,21.4
		c-0.733,0.633-0.967,1.133-0.7,1.5c0.3,0.5,0.883,0.417,1.75-0.25c0.866-0.633,1.05-1.2,0.55-1.7
		C83.167,20.617,82.634,20.767,81.9,21.4z M90.95,7.2C90.35,7,89.667,7.117,88.9,7.55c-0.967,0.6-1.784,1.267-2.45,2
		c-0.601,0.667-0.851,1.117-0.75,1.35c0.033,0.133,0.283,0.05,0.75-0.25c0.767-0.467,1.533-0.85,2.3-1.15
		c0.066-0.033,0.684-0.217,1.85-0.55c0.5-0.167,0.817-0.4,0.95-0.7C91.75,7.75,91.55,7.4,90.95,7.2z M94.9,7.25
		c1.133,1.233,1.017,2.317-0.351,3.25c-0.467,0.333-1.733,0.617-3.8,0.85c-2.134,0.233-3.967,0.8-5.5,1.7
		c-1.3,0.8-2.283,1.75-2.95,2.85c-0.666,1.067-0.666,1.7,0,1.9c0.434,0.133,1.167-0.35,2.2-1.45c1.033-1.133,1.767-1.583,2.2-1.35
		c0.6,0.3,0.75,0.733,0.45,1.3c-0.2,0.367-0.634,0.867-1.301,1.5c-0.533,0.534-0.899,1.017-1.1,1.45
		c-0.233,0.467-0.1,0.683,0.4,0.65c0.3-0.033,0.949-0.517,1.949-1.45c1.101-1.034,2.233-1.733,3.4-2.1
		c1.566-0.467,3.134-0.367,4.7,0.3c1.6,0.667,2.25,1.55,1.95,2.65c-0.367,1.367-1.434,2.184-3.2,2.45c-2.3,0.1-4.066,0.167-5.3,0.2
		c-1.601,0.033-2.851,0.333-3.75,0.9c-0.467,0.3-1.051,0.883-1.75,1.75l0.5-0.399c0.399-0.267,0.783-0.467,1.149-0.601
		c0.5-0.199,0.967-0.25,1.4-0.149c0.5,0.1,0.717,0.383,0.649,0.85c-0.1,0.5-0.666,0.95-1.699,1.351
		c-1.167,0.399-1.867,0.783-2.101,1.149c-0.3,0.467-0.45,0.9-0.45,1.3c0.034,0.467,0.334,0.784,0.9,0.95
		c0.434,0.134,1.05-0.017,1.85-0.45c0.567-0.333,1.084-0.716,1.551-1.149c1.166-1.101,2.533-1.834,4.1-2.2
		c1.733-0.4,2.816-0.066,3.25,1s0.167,1.884-0.8,2.45c-0.667,0.434-1.767,0.684-3.3,0.75c-1.7,0.1-2.851,0.25-3.45,0.45
		C86.1,30.1,85.566,30.417,85.1,30.85C84.434,31.417,84.2,32,84.4,32.6c0.199,0.601,0.75,0.667,1.649,0.2
		c0.533-0.267,1.417-0.783,2.65-1.55c2.2-1.033,4.267-1.434,6.2-1.2c1.066,0.066,1.899,0.517,2.5,1.351
		c0.666,0.866,0.683,1.767,0.05,2.699c-0.7,1.034-1.884,1.5-3.55,1.4c-1.934-0.267-3.284-0.417-4.051-0.45
		c-1.767,0-3.483,0.533-5.149,1.601c-0.8,0.466-1.351,1.216-1.65,2.25c-0.333,1.066,0.05,1.316,1.15,0.75
		c0.3-0.134,0.684-0.384,1.149-0.75c0.367-0.267,0.717-0.45,1.051-0.551c0.633-0.199,1.066-0.05,1.3,0.45
		c0.233,0.434,0.184,0.867-0.15,1.3c-0.267,0.334-0.8,0.634-1.6,0.9c-0.834,0.267-1.367,0.5-1.601,0.7
		c-0.399,0.333-0.75,0.833-1.05,1.5c-0.267,0.6-0.416,1.184-0.45,1.75c-1.433,0.066-2.699,0.066-3.8,0
		c-0.066-1.601-0.283-2.733-0.649-3.4c-0.034-0.066-0.334-0.333-0.9-0.8c-0.333-0.3-0.467-0.616-0.4-0.95
		c0.034-0.166,0.317-0.517,0.851-1.05c0.366-0.366,0.383-0.767,0.05-1.2c-0.066-0.1-0.217-0.217-0.45-0.35
		c-0.267-0.134-0.434-0.233-0.5-0.3c-0.3-0.233-0.434-0.5-0.399-0.801c0-0.333,0.216-0.466,0.649-0.399l0.601,0.25
		c0.133-1.167-0.717-1.867-2.551-2.101c-2.066,0-3.366-0.066-3.899-0.199c-0.767-0.167-1.316-0.517-1.65-1.051
		c-0.399-0.566-0.333-1.083,0.2-1.55c0.366-0.333,1.017-0.45,1.95-0.35c0.5,0.066,1.483,0.45,2.95,1.149
		c1.3,0.467,2.033,0.384,2.199-0.25c0.4-1.366-0.25-2.55-1.949-3.55c-1.5-0.899-2.967-1.3-4.4-1.2c-1.233,0.267-2.2,0.4-2.9,0.4
		c-1.233,0.066-1.983-0.35-2.25-1.25c-0.166-0.667,0.051-1.217,0.65-1.65c0.5-0.366,1.1-0.6,1.8-0.699
		c1.334-0.134,2.816,0.283,4.45,1.25c0.967,0.6,1.884,0.833,2.75,0.699c0.8-0.1,1.167-0.399,1.1-0.899
		c-0.033-0.434-0.383-0.967-1.05-1.601c-0.666-0.6-1.45-1.1-2.35-1.5c-0.9-0.434-1.117-0.9-0.65-1.4s1.117-0.567,1.95-0.2
		c0.866,0.367,1.5,0.433,1.9,0.2c0.433-0.233,0.416-0.633-0.051-1.2c-0.433-0.533-1.233-0.783-2.399-0.75
		c-1.066,0.033-2.066,0.283-3,0.75c-1.101,0.533-1.934,0.85-2.5,0.95c-0.8,0.133-1.25-0.133-1.351-0.8
		c-0.133-0.667,0.467-1.3,1.801-1.9c1.233-0.533,2.517-0.833,3.85-0.9c2.3-0.133,3.583-0.233,3.85-0.3
		c1.434-0.333,1.584-1.133,0.45-2.4c-0.3-0.333-0.783-0.733-1.45-1.2c-0.733-0.467-1.233-0.85-1.5-1.15
		c-0.6-0.667-0.683-1.316-0.25-1.95C73.934,8.783,74.366,8.6,74.9,8.8c0.199,0.067,0.783,0.7,1.75,1.9
		c0.666,0.833,1.383,0.867,2.149,0.1c0.434-0.433,0.65-1.267,0.65-2.5c0-1.3,0.149-2.183,0.45-2.65C80.233,5.217,80.6,4.933,81,4.8
		c0.434-0.167,0.783-0.05,1.05,0.35c0.533,0.8,0.483,2.35-0.149,4.65c-0.467,1.633-0.084,2.267,1.149,1.9
		c0.467-0.167,1.4-0.934,2.8-2.3c1.4-1.4,2.634-2.3,3.7-2.7C91.95,5.8,93.733,5.983,94.9,7.25z"/>
</g>
</svg>
