<?xml version="1.0" encoding="iso-8859-1"?>
<!-- Generator: Adobe Illustrator 15.1.0, SVG Export Plug-In . SVG Version: 6.00 Build 0)  -->
<!DOCTYPE svg PUBLIC "-//W3C//DTD SVG 1.1//EN" "http://www.w3.org/Graphics/SVG/1.1/DTD/svg11.dtd">
<svg version="1.1" id="Layer_3" xmlns="http://www.w3.org/2000/svg" xmlns:xlink="http://www.w3.org/1999/xlink" x="0px" y="0px"
	 width="492.5px" height="147.4px" viewBox="0 0 492.5 147.4" style="enable-background:new 0 0 492.5 147.4;" xml:space="preserve"
	>
<symbol  id="flash0.ai_x2F_Layer_3_x2F__x3C_Path_x3E_" viewBox="-0.006 -17.833 18.306 17.871">
	<g id="Layer_1_77_">
		<path style="fill-rule:evenodd;clip-rule:evenodd;fill:#1F1A1C;" d="M3.15-1.65c0.367,0.533,1.867,1,4.5,1.4
			c2.633,0.367,4.367,0.383,5.2,0.05c0.433-0.2,1.45-1.767,3.05-4.7c1.567-2.934,2.367-4.7,2.4-5.3c0-0.867-1.2-2.316-3.6-4.35
			c-2.3-1.934-3.934-3.017-4.9-3.25c-0.833-0.2-2.533,0.517-5.1,2.15c-2.534,1.6-4.034,2.85-4.5,3.75
			c-0.434,0.767-0.184,2.517,0.75,5.25C1.783-4.217,2.517-2.55,3.15-1.65z"/>
	</g>
</symbol>
<symbol  id="flash0.ai_x2F_Layer_3_x2F__x3C_Path_x3E__x5F_1" viewBox="0.02 -21.887 22.43 21.9">
	<g id="Layer_1_76_">
		<path style="fill-rule:evenodd;clip-rule:evenodd;fill:#1F1A1C;" d="M0.25-14.65c-0.5,0.967-0.183,3.133,0.95,6.5
			c1,2.967,1.9,5,2.7,6.1c0.467,0.667,2.3,1.233,5.5,1.7c3.233,0.467,5.367,0.483,6.4,0.05c0.5-0.2,1.733-2.117,3.7-5.75
			c1.967-3.6,2.95-5.75,2.95-6.45c0-1.1-1.467-2.883-4.4-5.35c-2.8-2.367-4.8-3.7-6-4c-1.033-0.233-3.133,0.633-6.3,2.6
			C2.65-17.317,0.817-15.783,0.25-14.65z"/>
	</g>
</symbol>
<symbol  id="flash0.ai_x2F_Layer_3_x2F__x3C_Path_x3E__x5F_10" viewBox="-0.022 -13.25 13.225 13.288">
	<g id="Layer_1_67_">
		<path style="fill-rule:evenodd;clip-rule:evenodd;fill:#1F1A1C;" d="M1.45-3.05c1.1,1.7,1.966,2.716,2.6,3.05
			c0.3,0.133,1.7-0.083,4.2-0.65c2.5-0.567,3.917-0.983,4.25-1.25c0.5-0.434,0.733-1.85,0.7-4.25c-0.034-2.3-0.233-3.783-0.6-4.45
			c-0.3-0.566-1.55-1.183-3.75-1.85C6.683-13.117,5.2-13.367,4.4-13.2c-0.633,0.167-1.517,1.2-2.65,3.1C0.783-8.4,0.2-7.15,0-6.35
			C-0.133-5.85,0.35-4.75,1.45-3.05z"/>
	</g>
</symbol>
<symbol  id="flash0.ai_x2F_Layer_3_x2F__x3C_Path_x3E__x5F_11" viewBox="-0.02 -13.107 12.781 13.108">
	<g id="Layer_1_66_">
		<path style="fill-rule:evenodd;clip-rule:evenodd;fill:#1F1A1C;" d="M0.95-10.55C0.583-10.283,0.3-9.2,0.1-7.3
			c-0.2,1.9-0.15,3.15,0.15,3.75c0.133,0.267,1.283,0.933,3.45,2C5.833-0.483,7.117,0.033,7.55,0c0.633-0.033,1.633-0.933,3-2.7
			c1.333-1.7,2.067-2.9,2.2-3.6c0.1-0.6-0.467-1.8-1.7-3.6C9.817-11.667,8.867-12.7,8.2-13c-0.567-0.267-1.817-0.033-3.75,0.7
			C2.75-11.633,1.583-11.05,0.95-10.55z"/>
	</g>
</symbol>
<symbol  id="flash0.ai_x2F_Layer_3_x2F__x3C_Path_x3E__x5F_12" viewBox="-0.015 -10.809 10.769 10.804">
	<g id="Layer_1_65_">
		<path style="fill-rule:evenodd;clip-rule:evenodd;fill:#1F1A1C;" d="M10.15-1.55c0.434-0.367,0.633-1.534,0.6-3.5
			c-0.033-1.867-0.2-3.067-0.5-3.6C10.017-9.117,9-9.633,7.2-10.2c-1.767-0.533-2.967-0.716-3.6-0.55
			c-0.533,0.1-1.25,0.933-2.15,2.5C0.65-6.883,0.167-5.867,0-5.2c-0.1,0.4,0.3,1.3,1.2,2.7c0.867,1.4,1.566,2.217,2.1,2.45
			c0.233,0.133,1.383-0.034,3.45-0.5C8.75-0.983,9.883-1.317,10.15-1.55z"/>
	</g>
</symbol>
<symbol  id="flash0.ai_x2F_Layer_3_x2F__x3C_Path_x3E__x5F_13" viewBox="-0.015 -10.79 10.769 10.834">
	<g id="Layer_1_64_">
		<path style="fill-rule:evenodd;clip-rule:evenodd;fill:#1F1A1C;" d="M1.2-2.5C2.067-1.1,2.767-0.267,3.3,0
			c0.233,0.133,1.383-0.033,3.45-0.5c2-0.467,3.133-0.817,3.4-1.05c0.434-0.333,0.633-1.483,0.6-3.45c0-1.867-0.15-3.083-0.45-3.65
			c-0.267-0.467-1.3-0.967-3.1-1.5c-1.767-0.533-2.967-0.733-3.6-0.6C3.067-10.617,2.35-9.767,1.45-8.2
			C0.65-6.833,0.167-5.817,0-5.15C-0.1-4.75,0.3-3.867,1.2-2.5z"/>
	</g>
</symbol>
<symbol  id="flash0.ai_x2F_Layer_3_x2F__x3C_Path_x3E__x5F_14" viewBox="0.037 -13.595 12.955 13.61">
	<g id="Layer_1_63_">
		<path style="fill-rule:evenodd;clip-rule:evenodd;fill:#1F1A1C;" d="M12.4-1.65c0.5-0.434,0.684-1.883,0.55-4.35
			c-0.133-2.367-0.383-3.9-0.75-4.6c-0.3-0.6-1.55-1.283-3.75-2.05c-2.167-0.767-3.617-1.067-4.35-0.9
			c-0.633,0.133-1.45,1.167-2.45,3.1c-0.9,1.667-1.433,2.934-1.6,3.8c-0.1,0.5,0.4,1.633,1.5,3.4c1.133,1.8,2.017,2.867,2.65,3.2
			C4.5,0.117,5.867-0.033,8.3-0.5C10.7-1,12.067-1.383,12.4-1.65z"/>
	</g>
</symbol>
<symbol  id="flash0.ai_x2F_Layer_3_x2F__x3C_Path_x3E__x5F_15" viewBox="-0.015 -10.809 10.815 10.804">
	<g id="Layer_1_62_">
		<path style="fill-rule:evenodd;clip-rule:evenodd;fill:#1F1A1C;" d="M10.2-1.55c0.4-0.367,0.6-1.534,0.6-3.5
			c-0.033-1.867-0.2-3.067-0.5-3.6C10.033-9.15,9-9.667,7.2-10.2c-1.767-0.533-2.967-0.716-3.6-0.55c-0.533,0.1-1.25,0.933-2.15,2.5
			C0.65-6.883,0.167-5.867,0-5.2c-0.1,0.4,0.3,1.3,1.2,2.7c0.867,1.4,1.566,2.217,2.1,2.45c0.233,0.133,1.383-0.034,3.45-0.5
			C8.783-0.983,9.933-1.317,10.2-1.55z"/>
	</g>
</symbol>
<symbol  id="flash0.ai_x2F_Layer_3_x2F__x3C_Path_x3E__x5F_16" viewBox="0.035 -10.79 10.765 10.834">
	<g id="Layer_1_61_">
		<path style="fill-rule:evenodd;clip-rule:evenodd;fill:#1F1A1C;" d="M10.2-1.55c0.4-0.333,0.6-1.483,0.6-3.45
			c-0.033-1.867-0.2-3.083-0.5-3.65c-0.233-0.467-1.25-0.967-3.05-1.5c-1.767-0.533-2.967-0.733-3.6-0.6
			C3.117-10.617,2.4-9.767,1.5-8.2C0.7-6.833,0.217-5.817,0.05-5.15c-0.1,0.4,0.3,1.283,1.2,2.65C2.117-1.1,2.8-0.267,3.3,0
			c0.267,0.133,1.417-0.033,3.45-0.5S9.933-1.317,10.2-1.55z"/>
	</g>
</symbol>
<symbol  id="flash0.ai_x2F_Layer_3_x2F__x3C_Path_x3E__x5F_17" viewBox="-0.013 -13.419 13.366 13.426">
	<g id="Layer_1_60_">
		<path style="fill-rule:evenodd;clip-rule:evenodd;fill:#1F1A1C;" d="M1.5-3.1c1.1,1.733,1.967,2.75,2.6,3.05
			c0.3,0.167,1.717-0.034,4.25-0.6c2.5-0.533,3.933-0.95,4.3-1.25c0.5-0.467,0.733-1.917,0.7-4.35c-0.033-2.3-0.233-3.783-0.6-4.45
			c-0.3-0.6-1.583-1.25-3.85-1.95c-2.167-0.667-3.65-0.9-4.45-0.7c-0.633,0.167-1.517,1.217-2.65,3.15C0.8-8.5,0.2-7.233,0-6.4
			C-0.1-5.9,0.4-4.8,1.5-3.1z"/>
	</g>
</symbol>
<symbol  id="flash0.ai_x2F_Layer_3_x2F__x3C_Path_x3E__x5F_18" viewBox="0.018 -13.15 13.453 13.183">
	<g id="Layer_1_59_">
		<path style="fill-rule:evenodd;clip-rule:evenodd;fill:#1F1A1C;" d="M11.25-0.9c0.267-0.2,0.733-1.517,1.4-3.95
			c0.633-2.4,0.9-3.8,0.8-4.2c-0.133-0.633-1.25-1.5-3.35-2.6c-2-1-3.367-1.5-4.1-1.5c-0.633,0-1.75,0.8-3.35,2.4
			c-1.533,1.6-2.4,2.767-2.6,3.5c-0.167,0.633,0.317,1.867,1.45,3.7c1,1.633,1.817,2.716,2.45,3.25
			c0.367,0.333,1.533,0.417,3.5,0.25C9.417-0.217,10.683-0.5,11.25-0.9z"/>
	</g>
</symbol>
<symbol  id="flash0.ai_x2F_Layer_3_x2F__x3C_Path_x3E__x5F_19" viewBox="-0.031 -13.15 13.501 13.183">
	<g id="Layer_1_58_">
		<path style="fill-rule:evenodd;clip-rule:evenodd;fill:#1F1A1C;" d="M7.45-0.05C9.417-0.217,10.667-0.5,11.2-0.9
			c0.267-0.2,0.733-1.517,1.4-3.95c0.667-2.4,0.95-3.8,0.85-4.2c-0.133-0.633-1.25-1.5-3.35-2.6c-2-1-3.367-1.5-4.1-1.5
			c-0.633,0-1.75,0.816-3.35,2.45C1.083-9.133,0.2-7.967,0-7.2c-0.167,0.633,0.333,1.85,1.5,3.65C2.533-1.917,3.35-0.833,3.95-0.3
			C4.317,0.033,5.483,0.117,7.45-0.05z"/>
	</g>
</symbol>
<symbol  id="flash0.ai_x2F_Layer_3_x2F__x3C_Path_x3E__x5F_2" viewBox="0.02 -17.833 18.28 17.871">
	<g id="Layer_1_75_">
		<path style="fill-rule:evenodd;clip-rule:evenodd;fill:#1F1A1C;" d="M12.85-0.2c0.433-0.2,1.45-1.767,3.05-4.7
			c1.6-2.967,2.4-4.733,2.4-5.3c0-0.867-1.2-2.316-3.6-4.35c-2.3-1.934-3.934-3.017-4.9-3.25c-0.833-0.2-2.533,0.517-5.1,2.15
			c-2.5,1.566-4,2.816-4.5,3.75C-0.2-11.133,0.067-9.383,1-6.65c0.833,2.467,1.567,4.133,2.2,5c0.367,0.533,1.85,1,4.45,1.4
			C10.283,0.117,12.017,0.133,12.85-0.2z"/>
	</g>
</symbol>
<symbol  id="flash0.ai_x2F_Layer_3_x2F__x3C_Path_x3E__x5F_20" viewBox="0.01 -15.05 15.42 15.078">
	<g id="Layer_1_57_">
		<path style="fill-rule:evenodd;clip-rule:evenodd;fill:#1F1A1C;" d="M12.85-1.05c0.333-0.233,0.867-1.733,1.6-4.5
			c0.767-2.767,1.083-4.383,0.95-4.85c-0.167-0.733-1.45-1.717-3.85-2.95c-2.267-1.133-3.833-1.7-4.7-1.7c-0.733,0-2,0.917-3.8,2.75
			c-1.8,1.833-2.8,3.167-3,4C-0.15-7.567,0.4-6.15,1.7-4.05c1.133,1.8,2.066,3.033,2.8,3.7c0.433,0.367,1.767,0.467,4,0.3
			C10.767-0.25,12.217-0.583,12.85-1.05z"/>
	</g>
</symbol>
<symbol  id="flash0.ai_x2F_Layer_3_x2F__x3C_Path_x3E__x5F_21" viewBox="-0.01 -6.75 6.914 6.756">
	<g id="Layer_1_56_">
		<path style="fill-rule:evenodd;clip-rule:evenodd;fill:#1F1A1C;" d="M3.85-0.05c1-0.067,1.633-0.2,1.9-0.4
			c0.133-0.133,0.367-0.816,0.7-2.05C6.783-3.733,6.933-4.45,6.9-4.65C6.8-4.983,6.217-5.433,5.15-6c-1-0.5-1.683-0.75-2.05-0.75
			c-0.333,0-0.917,0.417-1.75,1.25C0.55-4.7,0.1-4.1,0-3.7c-0.067,0.3,0.2,0.917,0.8,1.85c0.5,0.833,0.917,1.4,1.25,1.7
			C2.217,0.017,2.817,0.05,3.85-0.05z"/>
	</g>
</symbol>
<symbol  id="flash0.ai_x2F_Layer_3_x2F__x3C_Path_x3E__x5F_22" viewBox="0.029 -6.8 6.926 6.778">
	<g id="Layer_1_55_">
		<path style="fill-rule:evenodd;clip-rule:evenodd;fill:#1F1A1C;" d="M6.95-4.7C6.85-5.033,6.267-5.467,5.2-6
			C4.167-6.533,3.467-6.8,3.1-6.8c-0.333,0-0.917,0.417-1.75,1.25c-0.8,0.833-1.233,1.433-1.3,1.8c-0.1,0.333,0.15,0.967,0.75,1.9
			C1.3-1.017,1.717-0.467,2.05-0.2c0.167,0.167,0.767,0.217,1.8,0.15c1-0.067,1.65-0.217,1.95-0.45c0.133-0.1,0.367-0.767,0.7-2
			S6.983-4.467,6.95-4.7z"/>
	</g>
</symbol>
<symbol  id="flash0.ai_x2F_Layer_3_x2F__x3C_Path_x3E__x5F_23" viewBox="-0.013 -5 5.12 4.99">
	<g id="Layer_1_54_">
		<path style="fill-rule:evenodd;clip-rule:evenodd;fill:#1F1A1C;" d="M1-4.1C0.4-3.5,0.067-3.05,0-2.75
			c-0.067,0.233,0.117,0.7,0.55,1.4C0.917-0.783,1.233-0.367,1.5-0.1C1.633,0,2.067,0.017,2.8-0.05c0.767-0.067,1.25-0.167,1.45-0.3
			c0.1-0.066,0.283-0.566,0.55-1.5c0.233-0.933,0.333-1.467,0.3-1.6c-0.033-0.267-0.45-0.6-1.25-1C3.083-4.817,2.567-5,2.3-5
			C2.067-5,1.633-4.7,1-4.1z"/>
	</g>
</symbol>
<symbol  id="flash0.ai_x2F_Layer_3_x2F__x3C_Path_x3E__x5F_24" viewBox="-0.013 -5 5.119 4.983">
	<g id="Layer_1_53_">
		<path style="fill-rule:evenodd;clip-rule:evenodd;fill:#1F1A1C;" d="M1-4.1C0.4-3.5,0.067-3.05,0-2.75
			c-0.067,0.233,0.117,0.7,0.55,1.4c0.4,0.6,0.717,1,0.95,1.2c0.133,0.133,0.567,0.167,1.3,0.1c0.733-0.067,1.217-0.167,1.45-0.3
			c0.1-0.066,0.267-0.566,0.5-1.5c0.267-0.9,0.383-1.433,0.35-1.6c-0.033-0.267-0.45-0.6-1.25-1C3.083-4.817,2.55-5,2.25-5
			C2.017-5,1.6-4.7,1-4.1z"/>
	</g>
</symbol>
<symbol  id="flash0.ai_x2F_Layer_3_x2F__x3C_Path_x3E__x5F_25" viewBox="0.033 -9.4 9.679 9.423">
	<g id="Layer_1_52_">
		<path style="fill-rule:evenodd;clip-rule:evenodd;fill:#1F1A1C;" d="M5.35-0.05c1.4-0.1,2.3-0.3,2.7-0.6
			c0.2-0.133,0.534-1.067,1-2.8C9.55-5.183,9.767-6.2,9.7-6.5C9.6-6.967,8.783-7.583,7.25-8.35c-1.4-0.7-2.367-1.05-2.9-1.05
			c-0.467,0-1.267,0.583-2.4,1.75c-1.133,1.133-1.767,1.967-1.9,2.5c-0.1,0.433,0.25,1.3,1.05,2.6C1.833-1.383,2.417-0.6,2.85-0.2
			C3.117,0.033,3.95,0.083,5.35-0.05z"/>
	</g>
</symbol>
<symbol  id="flash0.ai_x2F_Layer_3_x2F__x3C_Path_x3E__x5F_26" viewBox="-0.02 -7.5 7.734 7.506">
	<g id="Layer_1_51_">
		<path style="fill-rule:evenodd;clip-rule:evenodd;fill:#1F1A1C;" d="M4.25-0.05C5.383-0.117,6.1-0.267,6.4-0.5
			c0.167-0.133,0.434-0.883,0.8-2.25C7.6-4.117,7.767-4.933,7.7-5.2C7.6-5.567,6.967-6.05,5.8-6.65C4.667-7.217,3.883-7.5,3.45-7.5
			c-0.367,0-1,0.45-1.9,1.35c-0.9,0.9-1.417,1.566-1.55,2C-0.1-3.783,0.183-3.067,0.85-2c0.566,0.867,1.033,1.483,1.4,1.85
			C2.483,0.017,3.15,0.05,4.25-0.05z"/>
	</g>
</symbol>
<symbol  id="flash0.ai_x2F_Layer_3_x2F__x3C_Path_x3E__x5F_27" viewBox="0.026 -5.75 5.879 5.733">
	<g id="Layer_1_50_">
		<path style="fill-rule:evenodd;clip-rule:evenodd;fill:#1F1A1C;" d="M5.5-2.15C5.8-3.183,5.933-3.8,5.9-4
			C5.833-4.267,5.35-4.633,4.45-5.1c-0.867-0.433-1.467-0.65-1.8-0.65c-0.3,0-0.783,0.35-1.45,1.05C0.5-4.033,0.117-3.533,0.05-3.2
			c-0.1,0.3,0.117,0.85,0.65,1.65c0.433,0.7,0.783,1.167,1.05,1.4c0.167,0.133,0.667,0.167,1.5,0.1C4.117-0.117,4.667-0.233,4.9-0.4
			C5.033-0.5,5.233-1.083,5.5-2.15z"/>
	</g>
</symbol>
<symbol  id="flash0.ai_x2F_Layer_3_x2F__x3C_Path_x3E__x5F_28" viewBox="-0.012 -5.75 5.867 5.733">
	<g id="Layer_1_49_">
		<path style="fill-rule:evenodd;clip-rule:evenodd;fill:#1F1A1C;" d="M5.5-2.1c0.267-1.066,0.383-1.683,0.35-1.85
			C5.783-4.25,5.3-4.633,4.4-5.1C3.533-5.533,2.933-5.75,2.6-5.75c-0.267,0-0.75,0.35-1.45,1.05C0.45-4,0.067-3.483,0-3.15
			c-0.067,0.267,0.15,0.8,0.65,1.6c0.434,0.7,0.783,1.167,1.05,1.4c0.167,0.133,0.683,0.167,1.55,0.1
			C4.083-0.117,4.633-0.233,4.9-0.4C5-0.5,5.2-1.067,5.5-2.1z"/>
	</g>
</symbol>
<symbol  id="flash0.ai_x2F_Layer_3_x2F__x3C_Path_x3E__x5F_29" viewBox="-0.012 -5.75 5.88 5.733">
	<g id="Layer_1_48_">
		<path style="fill-rule:evenodd;clip-rule:evenodd;fill:#1F1A1C;" d="M5.5-2.1c0.3-1.066,0.417-1.683,0.35-1.85
			C5.783-4.217,5.3-4.6,4.4-5.1C3.5-5.533,2.9-5.75,2.6-5.75c-0.3,0-0.783,0.35-1.45,1.05C0.45-4,0.067-3.483,0-3.15
			c-0.067,0.267,0.15,0.8,0.65,1.6c0.434,0.7,0.783,1.167,1.05,1.4c0.167,0.133,0.667,0.167,1.5,0.1
			C4.067-0.117,4.617-0.233,4.85-0.4C4.983-0.467,5.2-1.033,5.5-2.1z"/>
	</g>
</symbol>
<symbol  id="flash0.ai_x2F_Layer_3_x2F__x3C_Path_x3E__x5F_3" viewBox="-0.029 -22.137 22.73 22.139">
	<g id="Layer_1_74_">
		<path style="fill-rule:evenodd;clip-rule:evenodd;fill:#1F1A1C;" d="M3.9-2.1c0.467,0.667,2.333,1.233,5.6,1.7
			c3.233,0.5,5.383,0.533,6.45,0.1c0.5-0.233,1.75-2.167,3.75-5.8c1.966-3.667,2.966-5.85,3-6.55c0-1.1-1.5-2.917-4.5-5.45
			c-2.833-2.367-4.85-3.7-6.05-4C11.117-22.333,9-21.45,5.8-19.45c-3.133,1.967-5,3.517-5.6,4.65c-0.5,0.966-0.184,3.15,0.95,6.55
			C2.183-5.25,3.1-3.2,3.9-2.1z"/>
	</g>
</symbol>
<symbol  id="flash0.ai_x2F_Layer_3_x2F__x3C_Path_x3E__x5F_30" viewBox="-0.012 -5.7 5.88 5.684">
	<g id="Layer_1_47_">
		<path style="fill-rule:evenodd;clip-rule:evenodd;fill:#1F1A1C;" d="M5.5-2.1c0.3-1.066,0.417-1.683,0.35-1.85
			C5.783-4.217,5.3-4.583,4.4-5.05C3.533-5.483,2.933-5.7,2.6-5.7c-0.267,0-0.75,0.35-1.45,1.05c-0.7,0.7-1.083,1.2-1.15,1.5
			c-0.067,0.267,0.15,0.8,0.65,1.6c0.434,0.7,0.783,1.167,1.05,1.4c0.167,0.133,0.667,0.167,1.5,0.1
			C4.067-0.117,4.617-0.233,4.85-0.4C4.983-0.467,5.2-1.033,5.5-2.1z"/>
	</g>
</symbol>
<symbol  id="flash0.ai_x2F_Layer_3_x2F__x3C_Path_x3E__x5F_31" viewBox="-0.012 -5.75 5.88 5.733">
	<g id="Layer_1_46_">
		<path style="fill-rule:evenodd;clip-rule:evenodd;fill:#1F1A1C;" d="M5.5-2.1c0.3-1.066,0.417-1.683,0.35-1.85
			C5.817-4.217,5.333-4.6,4.4-5.1C3.533-5.533,2.933-5.75,2.6-5.75c-0.267,0-0.75,0.35-1.45,1.05C0.45-4,0.067-3.483,0-3.15
			c-0.067,0.267,0.15,0.8,0.65,1.6c0.434,0.7,0.783,1.167,1.05,1.4c0.167,0.133,0.683,0.167,1.55,0.1
			C4.083-0.117,4.633-0.233,4.9-0.4C5.033-0.5,5.233-1.067,5.5-2.1z"/>
	</g>
</symbol>
<symbol  id="flash0.ai_x2F_Layer_3_x2F__x3C_Path_x3E__x5F_32" viewBox="-0.02 -7.1 7.336 7.106">
	<g id="Layer_1_45_">
		<path style="fill-rule:evenodd;clip-rule:evenodd;fill:#1F1A1C;" d="M4-0.05C5.067-0.117,5.75-0.267,6.05-0.5
			c0.133-0.1,0.4-0.8,0.8-2.1C7.217-3.9,7.367-4.667,7.3-4.9C7.2-5.233,6.583-5.7,5.45-6.3c-1.067-0.534-1.8-0.8-2.2-0.8
			c-0.333,0-0.933,0.434-1.8,1.3S0.1-4.3,0-3.9c-0.1,0.333,0.167,1,0.8,2c0.567,0.867,1.017,1.45,1.35,1.75
			C2.317,0.017,2.933,0.05,4-0.05z"/>
	</g>
</symbol>
<symbol  id="flash0.ai_x2F_Layer_3_x2F__x3C_Path_x3E__x5F_33" viewBox="-0.014 -4.4 4.471 4.39">
	<g id="Layer_1_44_">
		<path style="fill-rule:evenodd;clip-rule:evenodd;fill:#1F1A1C;" d="M3.7-0.3c0.1-0.067,0.25-0.5,0.45-1.3
			c0.233-0.8,0.333-1.283,0.3-1.45c-0.034-0.2-0.4-0.483-1.1-0.85c-0.667-0.333-1.133-0.5-1.4-0.5c-0.2,0-0.567,0.267-1.1,0.8
			C0.35-3.067,0.067-2.667,0-2.4c-0.067,0.2,0.1,0.6,0.5,1.2c0.3,0.5,0.567,0.867,0.8,1.1C1.433,0,1.817,0.017,2.45-0.05
			C3.117-0.083,3.533-0.167,3.7-0.3z"/>
	</g>
</symbol>
<symbol  id="flash0.ai_x2F_Layer_3_x2F__x3C_Path_x3E__x5F_34" viewBox="0.035 -4.4 4.472 4.383">
	<g id="Layer_1_43_">
		<path style="fill-rule:evenodd;clip-rule:evenodd;fill:#1F1A1C;" d="M3.75-0.35C3.85-0.383,4-0.817,4.2-1.65
			c0.233-0.767,0.333-1.233,0.3-1.4C4.467-3.25,4.1-3.533,3.4-3.9C2.733-4.233,2.267-4.4,2-4.4c-0.2,0-0.567,0.267-1.1,0.8
			C0.4-3.067,0.117-2.683,0.05-2.45C-0.017-2.217,0.133-1.8,0.5-1.2c0.367,0.534,0.65,0.883,0.85,1.05
			c0.1,0.133,0.483,0.167,1.15,0.1C3.167-0.117,3.583-0.217,3.75-0.35z"/>
	</g>
</symbol>
<symbol  id="flash0.ai_x2F_Layer_3_x2F__x3C_Path_x3E__x5F_35" viewBox="-0.004 -4.4 4.51 4.39">
	<g id="Layer_1_42_">
		<path style="fill-rule:evenodd;clip-rule:evenodd;fill:#1F1A1C;" d="M3.75-0.3C3.817-0.367,3.967-0.8,4.2-1.6
			C4.433-2.4,4.533-2.867,4.5-3C4.433-3.233,4.05-3.517,3.35-3.85C2.717-4.183,2.267-4.367,2-4.4c-0.2,0-0.567,0.267-1.1,0.8
			S0.067-2.667,0-2.4c-0.033,0.2,0.133,0.6,0.5,1.2c0.333,0.534,0.6,0.9,0.8,1.1C1.433,0,1.817,0.017,2.45-0.05
			C3.117-0.083,3.55-0.167,3.75-0.3z"/>
	</g>
</symbol>
<symbol  id="flash0.ai_x2F_Layer_3_x2F__x3C_Path_x3E__x5F_36" viewBox="-0.004 -4.35 4.476 4.383">
	<g id="Layer_1_41_">
		<path style="fill-rule:evenodd;clip-rule:evenodd;fill:#1F1A1C;" d="M2.45,0C3.117-0.067,3.533-0.167,3.7-0.3
			c0.1-0.067,0.267-0.5,0.5-1.3C4.433-2.4,4.517-2.867,4.45-3c-0.034-0.2-0.4-0.483-1.1-0.85C2.683-4.183,2.233-4.35,2-4.35
			c-0.2,0-0.567,0.267-1.1,0.8C0.367-3.017,0.067-2.633,0-2.4c-0.033,0.233,0.133,0.65,0.5,1.25C0.833-0.617,1.1-0.267,1.3-0.1
			C1.433,0.033,1.817,0.067,2.45,0z"/>
	</g>
</symbol>
<symbol  id="flash0.ai_x2F_Layer_3_x2F__x3C_Path_x3E__x5F_37" viewBox="-0.004 -4.4 4.461 4.383">
	<g id="Layer_1_40_">
		<path style="fill-rule:evenodd;clip-rule:evenodd;fill:#1F1A1C;" d="M3.75-0.35c0.067-0.066,0.217-0.5,0.45-1.3
			c0.2-0.8,0.283-1.267,0.25-1.4c-0.034-0.2-0.4-0.483-1.1-0.85C2.717-4.233,2.267-4.4,2-4.4c-0.2,0-0.567,0.267-1.1,0.8
			S0.067-2.683,0-2.45C-0.033-2.217,0.133-1.8,0.5-1.2c0.333,0.534,0.6,0.883,0.8,1.05c0.133,0.133,0.517,0.167,1.15,0.1
			C3.117-0.117,3.55-0.217,3.75-0.35z"/>
	</g>
</symbol>
<symbol  id="flash0.ai_x2F_Layer_3_x2F__x3C_Path_x3E__x5F_38" viewBox="0.004 -8.66 8.61 8.638">
	<g id="Layer_1_39_">
		<path style="fill-rule:evenodd;clip-rule:evenodd;fill:#1F1A1C;" d="M7-1.95c1.033-1.267,1.567-2.033,1.6-2.3
			c0.1-0.4-0.333-1.2-1.3-2.4c-0.9-1.1-1.566-1.75-2-1.95C4.933-8.767,4.067-8.583,2.7-8.05C1.367-7.55,0.55-7.1,0.25-6.7
			C-0.017-6.367-0.067-5.517,0.1-4.15C0.267-2.917,0.467-2.067,0.7-1.6c0.133,0.267,0.8,0.617,2,1.05c1.2,0.433,2.017,0.6,2.45,0.5
			C5.35-0.083,5.967-0.717,7-1.95z"/>
	</g>
</symbol>
<symbol  id="flash0.ai_x2F_Layer_3_x2F__x3C_Path_x3E__x5F_39" viewBox="-0.014 -4.35 4.471 4.34">
	<g id="Layer_1_38_">
		<path style="fill-rule:evenodd;clip-rule:evenodd;fill:#1F1A1C;" d="M3.7-0.3c0.1-0.067,0.25-0.5,0.45-1.3
			C4.383-2.4,4.483-2.867,4.45-3c-0.034-0.2-0.4-0.483-1.1-0.85C2.683-4.183,2.233-4.35,2-4.35c-0.2,0-0.583,0.267-1.15,0.8
			C0.35-3.017,0.067-2.633,0-2.4c-0.067,0.2,0.1,0.6,0.5,1.2c0.333,0.567,0.6,0.934,0.8,1.1C1.433,0,1.817,0.017,2.45-0.05
			C3.117-0.083,3.533-0.167,3.7-0.3z"/>
	</g>
</symbol>
<symbol  id="flash0.ai_x2F_Layer_3_x2F__x3C_Path_x3E__x5F_4" viewBox="0.016 -20.439 20.935 20.452">
	<g id="Layer_1_73_">
		<path style="fill-rule:evenodd;clip-rule:evenodd;fill:#1F1A1C;" d="M0.25-13.7c-0.5,0.9-0.2,2.917,0.9,6.05
			c0.934,2.767,1.767,4.667,2.5,5.7c0.434,0.633,2.133,1.167,5.1,1.6c3,0.467,5,0.483,6,0.05c0.467-0.2,1.617-1.983,3.45-5.35
			c1.833-3.367,2.75-5.383,2.75-6.05c0-1.033-1.367-2.7-4.1-5c-2.633-2.2-4.5-3.433-5.6-3.7c-0.967-0.233-2.917,0.566-5.85,2.4
			C2.533-16.2,0.817-14.767,0.25-13.7z"/>
	</g>
</symbol>
<symbol  id="flash0.ai_x2F_Layer_3_x2F__x3C_Path_x3E__x5F_40" viewBox="-0.004 -4.4 4.51 4.39">
	<g id="Layer_1_37_">
		<path style="fill-rule:evenodd;clip-rule:evenodd;fill:#1F1A1C;" d="M3.75-0.3C3.85-0.367,4-0.8,4.2-1.6
			c0.233-0.8,0.333-1.283,0.3-1.45C4.467-3.25,4.1-3.533,3.4-3.9C2.733-4.233,2.267-4.4,2-4.4c-0.2,0-0.567,0.267-1.1,0.8
			S0.067-2.667,0-2.4c-0.033,0.2,0.133,0.6,0.5,1.2c0.333,0.534,0.6,0.9,0.8,1.1C1.433,0,1.817,0.017,2.45-0.05
			C3.117-0.083,3.55-0.167,3.75-0.3z"/>
	</g>
</symbol>
<symbol  id="flash0.ai_x2F_Layer_3_x2F__x3C_Path_x3E__x5F_41" viewBox="-0.014 -4.35 4.471 4.34">
	<g id="Layer_1_36_">
		<path style="fill-rule:evenodd;clip-rule:evenodd;fill:#1F1A1C;" d="M3.7-0.3c0.1-0.067,0.25-0.5,0.45-1.3
			C4.383-2.4,4.483-2.867,4.45-3c-0.034-0.233-0.4-0.517-1.1-0.85c-0.667-0.333-1.133-0.5-1.4-0.5c-0.2,0-0.567,0.267-1.1,0.8
			C0.35-3.05,0.067-2.667,0-2.4c-0.067,0.2,0.1,0.6,0.5,1.2c0.3,0.5,0.567,0.867,0.8,1.1C1.433,0,1.817,0.017,2.45-0.05
			C3.117-0.083,3.533-0.167,3.7-0.3z"/>
	</g>
</symbol>
<symbol  id="flash0.ai_x2F_Layer_3_x2F__x3C_Path_x3E__x5F_42" viewBox="-0.004 -4.35 4.461 4.383">
	<g id="Layer_1_35_">
		<path style="fill-rule:evenodd;clip-rule:evenodd;fill:#1F1A1C;" d="M2.45,0c0.667-0.067,1.1-0.167,1.3-0.3
			C3.817-0.367,3.967-0.8,4.2-1.6C4.4-2.4,4.483-2.867,4.45-3c-0.034-0.2-0.4-0.483-1.1-0.85C2.717-4.183,2.267-4.35,2-4.35
			c-0.2,0-0.567,0.267-1.1,0.8C0.367-3.017,0.067-2.633,0-2.4c-0.033,0.233,0.133,0.65,0.5,1.25C0.833-0.617,1.1-0.267,1.3-0.1
			C1.433,0.033,1.817,0.067,2.45,0z"/>
	</g>
</symbol>
<symbol  id="flash0.ai_x2F_Layer_3_x2F__x3C_Path_x3E__x5F_43" viewBox="-0.013 -5.45 5.568 5.434">
	<g id="Layer_1_34_">
		<path style="fill-rule:evenodd;clip-rule:evenodd;fill:#1F1A1C;" d="M5.2-2c0.267-0.967,0.383-1.55,0.35-1.75
			c-0.066-0.267-0.533-0.633-1.4-1.1c-0.833-0.4-1.4-0.6-1.7-0.6c-0.233,0-0.684,0.333-1.35,1C0.433-3.783,0.067-3.3,0-3
			c-0.067,0.267,0.133,0.767,0.6,1.5c0.4,0.633,0.733,1.083,1,1.35c0.167,0.133,0.65,0.167,1.45,0.1C3.85-0.117,4.367-0.233,4.6-0.4
			C4.733-0.467,4.933-1,5.2-2z"/>
	</g>
</symbol>
<symbol  id="flash0.ai_x2F_Layer_3_x2F__x3C_Path_x3E__x5F_44" viewBox="-0.013 -5.4 5.568 5.414">
	<g id="Layer_1_33_">
		<path style="fill-rule:evenodd;clip-rule:evenodd;fill:#1F1A1C;" d="M3.1-0.05C3.9-0.117,4.417-0.233,4.65-0.4
			C4.75-0.467,4.933-1,5.2-2c0.267-1,0.383-1.583,0.35-1.75C5.483-4.017,5.017-4.367,4.15-4.8C3.35-5.2,2.8-5.4,2.5-5.4
			c-0.267,0-0.733,0.333-1.4,1C0.433-3.767,0.067-3.3,0-3c-0.067,0.267,0.133,0.783,0.6,1.55C1.033-0.783,1.383-0.333,1.65-0.1
			C1.817,0.033,2.3,0.05,3.1-0.05z"/>
	</g>
</symbol>
<symbol  id="flash0.ai_x2F_Layer_3_x2F__x3C_Path_x3E__x5F_45" viewBox="-0.013 -5.4 5.568 5.383">
	<g id="Layer_1_32_">
		<path style="fill-rule:evenodd;clip-rule:evenodd;fill:#1F1A1C;" d="M5.2-2c0.267-0.967,0.383-1.55,0.35-1.75
			C5.483-4.017,5.017-4.367,4.15-4.8c-0.833-0.4-1.4-0.6-1.7-0.6c-0.267,0-0.717,0.333-1.35,1C0.433-3.767,0.067-3.3,0-3
			c-0.067,0.267,0.133,0.783,0.6,1.55c0.433,0.667,0.767,1.1,1,1.3c0.133,0.133,0.617,0.167,1.45,0.1
			C3.85-0.117,4.367-0.233,4.6-0.4C4.733-0.467,4.933-1,5.2-2z"/>
	</g>
</symbol>
<symbol  id="flash0.ai_x2F_Layer_3_x2F__x3C_Path_x3E__x5F_46" viewBox="-0.013 -5.05 5.17 5.033">
	<g id="Layer_1_31_">
		<path style="fill-rule:evenodd;clip-rule:evenodd;fill:#1F1A1C;" d="M1-4.15C0.4-3.55,0.067-3.1,0-2.8
			c-0.067,0.233,0.117,0.7,0.55,1.4c0.4,0.633,0.717,1.05,0.95,1.25c0.167,0.133,0.617,0.167,1.35,0.1
			c0.733-0.067,1.217-0.167,1.45-0.3c0.1-0.066,0.284-0.566,0.55-1.5c0.233-0.967,0.333-1.517,0.3-1.65C5.117-3.767,4.7-4.1,3.9-4.5
			C3.133-4.867,2.6-5.05,2.3-5.05C2.067-5.05,1.633-4.75,1-4.15z"/>
	</g>
</symbol>
<symbol  id="flash0.ai_x2F_Layer_3_x2F__x3C_Path_x3E__x5F_47" viewBox="-0.013 -5.05 5.219 5.083">
	<g id="Layer_1_30_">
		<path style="fill-rule:evenodd;clip-rule:evenodd;fill:#1F1A1C;" d="M2.85,0C3.617-0.067,4.1-0.183,4.3-0.35
			c0.133-0.066,0.317-0.566,0.55-1.5C5.117-2.783,5.233-3.333,5.2-3.5c-0.067-0.267-0.5-0.6-1.3-1C3.133-4.867,2.6-5.05,2.3-5.05
			c-0.233,0-0.667,0.3-1.3,0.9C0.4-3.55,0.067-3.1,0-2.8c-0.067,0.233,0.117,0.7,0.55,1.4C0.917-0.8,1.233-0.367,1.5-0.1
			C1.633,0.033,2.083,0.067,2.85,0z"/>
	</g>
</symbol>
<symbol  id="flash0.ai_x2F_Layer_3_x2F__x3C_Path_x3E__x5F_48" viewBox="-0.002 -10.938 11.352 10.937">
	<g id="Layer_1_29_">
		<path style="fill-rule:evenodd;clip-rule:evenodd;fill:#1F1A1C;" d="M11.15-2.6c0.2-0.233,0.25-1.4,0.15-3.5
			c-0.066-2.1-0.2-3.3-0.4-3.6c-0.3-0.466-1.483-0.816-3.55-1.05C5.417-10.983,4.133-11,3.5-10.8c-0.567,0.2-1.3,1.167-2.2,2.9
			C0.4-6.233-0.033-5.067,0-4.4C0.033-3.833,0.783-3,2.25-1.9c1.3,1,2.283,1.617,2.95,1.85c0.367,0.167,1.367-0.1,3-0.8
			C9.833-1.55,10.817-2.133,11.15-2.6z"/>
	</g>
</symbol>
<symbol  id="flash0.ai_x2F_Layer_3_x2F__x3C_Path_x3E__x5F_49" viewBox="-0.003 -7.639 7.517 7.665">
	<g id="Layer_1_28_">
		<path style="fill-rule:evenodd;clip-rule:evenodd;fill:#1F1A1C;" d="M5.45-0.55C6.517-0.983,7.167-1.367,7.4-1.7
			c0.133-0.167,0.15-0.983,0.05-2.45C7.383-5.617,7.267-6.467,7.1-6.7C6.9-7.033,6.133-7.3,4.8-7.5C3.5-7.667,2.633-7.683,2.2-7.55
			C1.833-7.417,1.367-6.767,0.8-5.6C0.233-4.433-0.033-3.617,0-3.15c0.033,0.4,0.533,1,1.5,1.8C2.333-0.683,2.983-0.233,3.45,0
			C3.717,0.1,4.383-0.083,5.45-0.55z"/>
	</g>
</symbol>
<symbol  id="flash0.ai_x2F_Layer_3_x2F__x3C_Path_x3E__x5F_5" viewBox="-0.045 -14.319 14.321 14.324">
	<g id="Layer_1_72_">
		<path style="fill-rule:evenodd;clip-rule:evenodd;fill:#1F1A1C;" d="M11.3-1.9C13-3.267,13.983-4.3,14.25-5
			C14.383-5.367,14-6.867,13.1-9.5c-0.867-2.6-1.467-4.05-1.8-4.35c-0.533-0.5-2.083-0.6-4.65-0.3c-2.433,0.3-4,0.683-4.7,1.15
			c-0.567,0.367-1.083,1.783-1.55,4.25c-0.467,2.4-0.566,4-0.3,4.8c0.233,0.7,1.45,1.534,3.65,2.5C5.683-0.583,7.083-0.1,7.95,0
			C8.483,0.067,9.6-0.567,11.3-1.9z"/>
	</g>
</symbol>
<symbol  id="flash0.ai_x2F_Layer_3_x2F__x3C_Path_x3E__x5F_50" viewBox="-0.007 -11.429 11.246 11.477">
	<g id="Layer_1_27_">
		<path style="fill-rule:evenodd;clip-rule:evenodd;fill:#1F1A1C;" d="M8.2-0.8c1.6-0.7,2.566-1.3,2.9-1.8
			c0.167-0.233,0.183-1.45,0.05-3.65S10.867-9.7,10.7-10c-0.3-0.5-1.483-0.9-3.55-1.2c-1.933-0.267-3.217-0.3-3.85-0.1
			c-0.533,0.167-1.233,1.15-2.1,2.95C0.333-6.583-0.067-5.367,0-4.7c0.033,0.567,0.783,1.45,2.25,2.65c1.3,1.066,2.3,1.75,3,2.05
			C5.617,0.167,6.6-0.1,8.2-0.8z"/>
	</g>
</symbol>
<symbol  id="flash0.ai_x2F_Layer_3_x2F__x3C_Path_x3E__x5F_51" viewBox="-0.002 -9.054 8.867 9.043">
	<g id="Layer_1_26_">
		<path style="fill-rule:evenodd;clip-rule:evenodd;fill:#1F1A1C;" d="M6.45-0.7c1.267-0.533,2.033-0.983,2.3-1.35
			c0.133-0.2,0.15-1.167,0.05-2.9C8.7-6.683,8.567-7.667,8.4-7.9C8.167-8.3,7.25-8.617,5.65-8.85C4.083-9.083,3.067-9.117,2.6-8.95
			C2.2-8.817,1.65-8.033,0.95-6.6C0.283-5.233-0.033-4.283,0-3.75c0.033,0.467,0.617,1.167,1.75,2.1c1,0.833,1.783,1.367,2.35,1.6
			C4.433,0.083,5.217-0.133,6.45-0.7z"/>
	</g>
</symbol>
<symbol  id="flash0.ai_x2F_Layer_3_x2F__x3C_Path_x3E__x5F_52" viewBox="-0.008 -9.704 9.497 9.692">
	<g id="Layer_1_25_">
		<path style="fill-rule:evenodd;clip-rule:evenodd;fill:#1F1A1C;" d="M6.9-0.7c1.333-0.6,2.15-1.1,2.45-1.5
			C9.517-2.433,9.533-3.467,9.4-5.3C9.3-7.167,9.167-8.233,9-8.5c-0.267-0.4-1.25-0.733-2.95-1C4.417-9.733,3.333-9.767,2.8-9.6
			C2.333-9.433,1.733-8.6,1-7.1S-0.067-4.567,0-4c0.033,0.5,0.667,1.25,1.9,2.25c1.1,0.9,1.934,1.467,2.5,1.7
			C4.733,0.083,5.567-0.133,6.9-0.7z"/>
	</g>
</symbol>
<symbol  id="flash0.ai_x2F_Layer_3_x2F__x3C_Path_x3E__x5F_53" viewBox="-0.009 -9.014 8.873 9.052">
	<g id="Layer_1_24_">
		<path style="fill-rule:evenodd;clip-rule:evenodd;fill:#1F1A1C;" d="M6.45-0.65C7.717-1.183,8.483-1.633,8.75-2
			C8.883-2.2,8.9-3.167,8.8-4.9c-0.1-1.767-0.233-2.767-0.4-3C8.167-8.3,7.25-8.617,5.65-8.85C4.117-9.05,3.1-9.067,2.6-8.9
			C2.167-8.767,1.617-7.983,0.95-6.55C0.25-5.183-0.067-4.233,0-3.7c0.033,0.467,0.617,1.167,1.75,2.1c1,0.833,1.783,1.367,2.35,1.6
			C4.4,0.133,5.183-0.083,6.45-0.65z"/>
	</g>
</symbol>
<symbol  id="flash0.ai_x2F_Layer_3_x2F__x3C_Path_x3E__x5F_54" viewBox="-0.017 -9 9.23 9.023">
	<g id="Layer_1_23_">
		<path style="fill-rule:evenodd;clip-rule:evenodd;fill:#1F1A1C;" d="M5.1-0.05c1.333-0.1,2.183-0.284,2.55-0.55
			c0.2-0.133,0.517-1.033,0.95-2.7c0.467-1.633,0.667-2.6,0.6-2.9C9.1-6.633,8.333-7.217,6.9-7.95C5.533-8.65,4.6-9,4.1-9
			C3.667-9,2.9-8.45,1.8-7.35C0.733-6.283,0.133-5.483,0-4.95c-0.1,0.434,0.233,1.267,1,2.5C1.7-1.317,2.267-0.567,2.7-0.2
			C2.967,0.033,3.767,0.083,5.1-0.05z"/>
	</g>
</symbol>
<symbol  id="flash0.ai_x2F_Layer_3_x2F__x3C_Path_x3E__x5F_55" viewBox="-0.019 -7.9 8.083 7.9">
	<g id="Layer_1_22_">
		<path style="fill-rule:evenodd;clip-rule:evenodd;fill:#1F1A1C;" d="M6.7-0.55C6.867-0.683,7.15-1.467,7.55-2.9
			c0.4-1.434,0.567-2.283,0.5-2.55c-0.1-0.4-0.767-0.917-2-1.55C4.883-7.6,4.067-7.9,3.6-7.9c-0.367,0-1.033,0.483-2,1.45
			C0.667-5.517,0.133-4.817,0-4.35c-0.1,0.367,0.2,1.1,0.9,2.2C1.5-1.183,1.983-0.533,2.35-0.2C2.583,0,3.283,0.05,4.45-0.05
			C5.617-0.15,6.367-0.317,6.7-0.55z"/>
	</g>
</symbol>
<symbol  id="flash0.ai_x2F_Layer_3_x2F__x3C_Path_x3E__x5F_56" viewBox="-0.019 -7.85 8.083 7.85">
	<g id="Layer_1_21_">
		<path style="fill-rule:evenodd;clip-rule:evenodd;fill:#1F1A1C;" d="M6.7-0.55C6.867-0.683,7.15-1.467,7.55-2.9
			c0.4-1.434,0.567-2.267,0.5-2.5c-0.1-0.4-0.767-0.917-2-1.55c-1.2-0.6-2.033-0.9-2.5-0.9c-0.367,0-1.033,0.483-2,1.45
			C0.617-5.467,0.1-4.783,0-4.35C-0.1-3.95,0.2-3.2,0.9-2.1c0.6,0.967,1.083,1.6,1.45,1.9C2.583,0,3.283,0.05,4.45-0.05
			C5.617-0.15,6.367-0.317,6.7-0.55z"/>
	</g>
</symbol>
<symbol  id="flash0.ai_x2F_Layer_3_x2F__x3C_Path_x3E__x5F_57" viewBox="-0.019 -7.85 8.083 7.856">
	<g id="Layer_1_20_">
		<path style="fill-rule:evenodd;clip-rule:evenodd;fill:#1F1A1C;" d="M4.45-0.05c1.167-0.1,1.917-0.267,2.25-0.5
			C6.867-0.683,7.15-1.467,7.55-2.9c0.4-1.434,0.567-2.267,0.5-2.5c-0.1-0.4-0.767-0.917-2-1.55c-1.2-0.6-2.017-0.9-2.45-0.9
			c-0.367,0-1.033,0.483-2,1.45C0.667-5.467,0.133-4.767,0-4.3c-0.1,0.367,0.2,1.1,0.9,2.2c0.6,0.967,1.083,1.617,1.45,1.95
			C2.583,0.017,3.283,0.05,4.45-0.05z"/>
	</g>
</symbol>
<symbol  id="flash0.ai_x2F_Layer_3_x2F__x3C_Path_x3E__x5F_58" viewBox="0.03 -7.9 8.034 7.9">
	<g id="Layer_1_19_">
		<path style="fill-rule:evenodd;clip-rule:evenodd;fill:#1F1A1C;" d="M7.55-2.9c0.4-1.467,0.567-2.317,0.5-2.55
			c-0.066-0.4-0.733-0.917-2-1.55C4.883-7.6,4.067-7.9,3.6-7.9c-0.4,0-1.067,0.483-2,1.45c-0.934,0.967-1.45,1.667-1.55,2.1
			c-0.1,0.367,0.184,1.1,0.85,2.2C1.5-1.183,2-0.533,2.4-0.2C2.6,0,3.283,0.05,4.45-0.05c1.167-0.1,1.933-0.267,2.3-0.5
			C6.917-0.683,7.183-1.467,7.55-2.9z"/>
	</g>
</symbol>
<symbol  id="flash0.ai_x2F_Layer_3_x2F__x3C_Path_x3E__x5F_59" viewBox="-0.019 -7.85 8.083 7.85">
	<g id="Layer_1_18_">
		<path style="fill-rule:evenodd;clip-rule:evenodd;fill:#1F1A1C;" d="M6.7-0.55C6.867-0.683,7.15-1.467,7.55-2.9
			c0.4-1.434,0.567-2.283,0.5-2.55c-0.1-0.367-0.767-0.867-2-1.5c-1.2-0.6-2.033-0.9-2.5-0.9c-0.367,0-1.033,0.483-2,1.45
			C0.617-5.467,0.1-4.783,0-4.35c-0.1,0.367,0.2,1.1,0.9,2.2c0.6,1,1.083,1.65,1.45,1.95C2.583,0,3.283,0.05,4.45-0.05
			C5.617-0.15,6.367-0.317,6.7-0.55z"/>
	</g>
</symbol>
<symbol  id="flash0.ai_x2F_Layer_3_x2F__x3C_Path_x3E__x5F_6" viewBox="0.011 -15.25 15.569 15.278">
	<g id="Layer_1_71_">
		<path style="fill-rule:evenodd;clip-rule:evenodd;fill:#1F1A1C;" d="M12.95-1.05c0.333-0.267,0.883-1.8,1.65-4.6
			c0.767-2.8,1.083-4.434,0.95-4.9c-0.167-0.733-1.45-1.717-3.85-2.95c-2.3-1.167-3.883-1.75-4.75-1.75
			c-0.733,0-2.017,0.933-3.85,2.8C1.267-10.617,0.25-9.267,0.05-8.4c-0.2,0.733,0.367,2.167,1.7,4.3
			C2.917-2.233,3.867-0.983,4.6-0.35c0.433,0.367,1.767,0.467,4,0.3C10.867-0.25,12.317-0.583,12.95-1.05z"/>
	</g>
</symbol>
<symbol  id="flash0.ai_x2F_Layer_3_x2F__x3C_Path_x3E__x5F_60" viewBox="0.016 -11.85 12.144 11.862">
	<g id="Layer_1_17_">
		<path style="fill-rule:evenodd;clip-rule:evenodd;fill:#1F1A1C;" d="M10.15-0.85C10.383-1.017,10.8-2.2,11.4-4.4
			c0.567-2.133,0.817-3.4,0.75-3.8C12.017-8.767,11-9.533,9.1-10.5c-1.767-0.9-2.983-1.35-3.65-1.35c-0.567,0-1.567,0.733-3,2.2
			c-1.4,1.4-2.2,2.433-2.4,3.1C-0.117-5.983,0.333-4.867,1.4-3.2c0.9,1.467,1.633,2.434,2.2,2.9C3.933,0,4.983,0.083,6.75-0.05
			C8.517-0.217,9.65-0.483,10.15-0.85z"/>
	</g>
</symbol>
<symbol  id="flash0.ai_x2F_Layer_3_x2F__x3C_Path_x3E__x5F_61" viewBox="-0.019 -7.85 8.083 7.856">
	<g id="Layer_1_16_">
		<path style="fill-rule:evenodd;clip-rule:evenodd;fill:#1F1A1C;" d="M4.45-0.05c1.167-0.1,1.917-0.267,2.25-0.5
			C6.867-0.683,7.15-1.467,7.55-2.9c0.4-1.434,0.567-2.267,0.5-2.5c-0.1-0.4-0.767-0.917-2-1.55c-1.167-0.6-1.983-0.9-2.45-0.9
			c-0.367,0-1.033,0.483-2,1.45C0.667-5.467,0.133-4.767,0-4.3c-0.1,0.367,0.2,1.1,0.9,2.2c0.6,0.967,1.083,1.617,1.45,1.95
			C2.583,0.017,3.283,0.05,4.45-0.05z"/>
	</g>
</symbol>
<symbol  id="flash0.ai_x2F_Layer_3_x2F__x3C_Path_x3E__x5F_62" viewBox="-0.019 -7.85 8.083 7.85">
	<g id="Layer_1_15_">
		<path style="fill-rule:evenodd;clip-rule:evenodd;fill:#1F1A1C;" d="M6.7-0.55C6.867-0.683,7.15-1.467,7.55-2.9
			c0.4-1.434,0.567-2.267,0.5-2.5c-0.1-0.4-0.767-0.917-2-1.55c-1.2-0.6-2.033-0.9-2.5-0.9c-0.367,0-1.033,0.483-2,1.45
			C0.617-5.467,0.1-4.767,0-4.3c-0.1,0.367,0.2,1.1,0.9,2.2c0.6,0.967,1.083,1.6,1.45,1.9C2.583,0,3.283,0.05,4.45-0.05
			C5.617-0.15,6.367-0.317,6.7-0.55z"/>
	</g>
</symbol>
<symbol  id="flash0.ai_x2F_Layer_3_x2F__x3C_Path_x3E__x5F_63" viewBox="0.022 -9.7 9.89 9.673">
	<g id="Layer_1_14_">
		<path style="fill-rule:evenodd;clip-rule:evenodd;fill:#1F1A1C;" d="M8.25-0.7C8.45-0.867,8.8-1.833,9.3-3.6
			c0.467-1.767,0.667-2.8,0.6-3.1C9.8-7.167,8.983-7.8,7.45-8.6C5.983-9.333,4.967-9.7,4.4-9.7c-0.467,0-1.283,0.6-2.45,1.8
			c-1.133,1.167-1.767,2.017-1.9,2.55c-0.133,0.467,0.217,1.367,1.05,2.7c0.733,1.167,1.333,1.967,1.8,2.4
			C3.167-0.017,4.033,0.033,5.5-0.1C6.933-0.2,7.85-0.4,8.25-0.7z"/>
	</g>
</symbol>
<symbol  id="flash0.ai_x2F_Layer_3_x2F__x3C_Path_x3E__x5F_64" viewBox="-0.019 -7.85 8.083 7.856">
	<g id="Layer_1_13_">
		<path style="fill-rule:evenodd;clip-rule:evenodd;fill:#1F1A1C;" d="M4.4-0.05c1.2-0.1,1.967-0.267,2.3-0.5
			C6.867-0.683,7.15-1.467,7.55-2.9c0.4-1.434,0.567-2.267,0.5-2.5c-0.1-0.4-0.767-0.917-2-1.55c-1.2-0.6-2.033-0.9-2.5-0.9
			c-0.367,0-1.033,0.483-2,1.45C0.617-5.433,0.1-4.733,0-4.3c-0.1,0.367,0.2,1.1,0.9,2.2c0.6,0.934,1.083,1.583,1.45,1.95
			C2.55,0.017,3.233,0.05,4.4-0.05z"/>
	</g>
</symbol>
<symbol  id="flash0.ai_x2F_Layer_3_x2F__x3C_Path_x3E__x5F_65" viewBox="-0.019 -7.85 8.083 7.856">
	<g id="Layer_1_12_">
		<path style="fill-rule:evenodd;clip-rule:evenodd;fill:#1F1A1C;" d="M4.45-0.05c1.167-0.1,1.917-0.267,2.25-0.5
			C6.867-0.683,7.15-1.467,7.55-2.9c0.4-1.434,0.567-2.267,0.5-2.5c-0.1-0.4-0.767-0.917-2-1.55c-1.2-0.6-2.017-0.9-2.45-0.9
			c-0.367,0-1.033,0.483-2,1.45C0.667-5.467,0.133-4.767,0-4.3c-0.1,0.367,0.2,1.1,0.9,2.2c0.6,0.967,1.083,1.617,1.45,1.95
			C2.583,0.017,3.283,0.05,4.45-0.05z"/>
	</g>
</symbol>
<symbol  id="flash0.ai_x2F_Layer_3_x2F__x3C_Path_x3E__x5F_66" viewBox="-0.019 -7.85 8.083 7.85">
	<g id="Layer_1_11_">
		<path style="fill-rule:evenodd;clip-rule:evenodd;fill:#1F1A1C;" d="M6.7-0.55C6.867-0.683,7.15-1.467,7.55-2.9
			c0.4-1.434,0.567-2.283,0.5-2.55c-0.1-0.367-0.767-0.867-2-1.5c-1.2-0.6-2.017-0.9-2.45-0.9c-0.367,0-1.033,0.483-2,1.45
			C0.667-5.467,0.133-4.783,0-4.35c-0.1,0.367,0.2,1.1,0.9,2.2c0.6,1,1.083,1.65,1.45,1.95C2.583,0,3.283,0.05,4.45-0.05
			C5.617-0.15,6.367-0.317,6.7-0.55z"/>
	</g>
</symbol>
<symbol  id="flash0.ai_x2F_Layer_3_x2F__x3C_Path_x3E__x5F_67" viewBox="0.014 -16.85 17.264 16.85">
	<g id="Layer_1_10_">
		<path style="fill-rule:evenodd;clip-rule:evenodd;fill:#1F1A1C;" d="M14.4-1.2c0.333-0.233,0.934-1.9,1.8-5
			c0.833-3.1,1.183-4.917,1.05-5.45c-0.2-0.8-1.633-1.883-4.3-3.25c-2.534-1.3-4.284-1.95-5.25-1.95c-0.8,0-2.217,1.033-4.25,3.1
			c-2,2-3.133,3.483-3.4,4.45c-0.2,0.833,0.434,2.417,1.9,4.75c1.267,2.033,2.3,3.417,3.1,4.15C5.517,0,7.017,0.1,9.55-0.1
			C12.05-0.3,13.667-0.667,14.4-1.2z"/>
	</g>
</symbol>
<symbol  id="flash0.ai_x2F_Layer_3_x2F__x3C_Path_x3E__x5F_68" viewBox="-0.016 -9.8 10.029 9.795">
	<g id="Layer_1_9_">
		<path style="fill-rule:evenodd;clip-rule:evenodd;fill:#1F1A1C;" d="M5.5-0.05C6.967-0.183,7.917-0.4,8.35-0.7
			C8.55-0.867,8.9-1.833,9.4-3.6c0.467-1.8,0.667-2.85,0.6-3.15c-0.1-0.5-0.933-1.133-2.5-1.9C6.033-9.417,5.017-9.8,4.45-9.8
			C3.983-9.8,3.167-9.2,2-8C0.833-6.833,0.167-5.967,0-5.4c-0.1,0.467,0.267,1.383,1.1,2.75c0.767,1.2,1.383,2,1.85,2.4
			C3.183-0.017,4.033,0.05,5.5-0.05z"/>
	</g>
</symbol>
<symbol  id="flash0.ai_x2F_Layer_3_x2F__x3C_Path_x3E__x5F_69" viewBox="-0.017 -9.15 9.379 9.15">
	<g id="Layer_1_8_">
		<path style="fill-rule:evenodd;clip-rule:evenodd;fill:#1F1A1C;" d="M5.15-0.05C6.517-0.183,7.4-0.383,7.8-0.65
			C7.967-0.783,8.283-1.7,8.75-3.4c0.467-1.667,0.667-2.633,0.6-2.9C9.25-6.733,8.467-7.333,7-8.1C5.6-8.8,4.65-9.15,4.15-9.15
			c-0.433,0-1.2,0.566-2.3,1.7C0.783-6.35,0.167-5.55,0-5.05C-0.1-4.617,0.25-3.767,1.05-2.5c0.7,1.133,1.267,1.9,1.7,2.3
			C3.017,0,3.817,0.05,5.15-0.05z"/>
	</g>
</symbol>
<symbol  id="flash0.ai_x2F_Layer_3_x2F__x3C_Path_x3E__x5F_7" viewBox="0.018 -13.2 13.453 13.184">
	<g id="Layer_1_70_">
		<path style="fill-rule:evenodd;clip-rule:evenodd;fill:#1F1A1C;" d="M11.25-0.95c0.267-0.2,0.733-1.517,1.4-3.95
			c0.633-2.4,0.9-3.8,0.8-4.2c-0.133-0.633-1.25-1.5-3.35-2.6c-2-1-3.367-1.5-4.1-1.5c-0.633,0-1.75,0.817-3.35,2.45
			c-1.566,1.567-2.433,2.733-2.6,3.5C-0.117-6.617,0.367-5.4,1.5-3.6c1,1.633,1.817,2.717,2.45,3.25
			c0.367,0.333,1.533,0.417,3.5,0.25C9.417-0.233,10.683-0.517,11.25-0.95z"/>
	</g>
</symbol>
<symbol  id="flash0.ai_x2F_Layer_3_x2F__x3C_Path_x3E__x5F_70" viewBox="0.015 -11.6 11.895 11.612">
	<g id="Layer_1_7_">
		<path style="fill-rule:evenodd;clip-rule:evenodd;fill:#1F1A1C;" d="M11.15-4.3c0.567-2.1,0.817-3.333,0.75-3.7
			c-0.133-0.567-1.133-1.317-3-2.25c-1.733-0.9-2.933-1.35-3.6-1.35c-0.566,0-1.55,0.717-2.95,2.15c-1.367,1.4-2.133,2.417-2.3,3.05
			c-0.167,0.566,0.267,1.65,1.3,3.25C2.25-1.717,2.967-0.767,3.5-0.3C3.833,0,4.85,0.083,6.55-0.05C8.283-0.183,9.4-0.433,9.9-0.8
			C10.133-1,10.55-2.167,11.15-4.3z"/>
	</g>
</symbol>
<symbol  id="flash0.ai_x2F_Layer_3_x2F__x3C_Path_x3E__x5F_71" viewBox="0.033 -9 9.18 9">
	<g id="Layer_1_6_">
		<path style="fill-rule:evenodd;clip-rule:evenodd;fill:#1F1A1C;" d="M7.65-0.65C7.85-0.783,8.167-1.667,8.6-3.3
			c0.467-1.633,0.667-2.6,0.6-2.9C9.1-6.667,8.333-7.267,6.9-8C5.567-8.667,4.633-9,4.1-9C3.667-9,2.917-8.45,1.85-7.35
			c-1.067,1.067-1.667,1.867-1.8,2.4c-0.1,0.434,0.233,1.267,1,2.5C1.75-1.317,2.3-0.567,2.7-0.2C2.967,0,3.767,0.05,5.1-0.05
			C6.433-0.15,7.283-0.35,7.65-0.65z"/>
	</g>
</symbol>
<symbol  id="flash0.ai_x2F_Layer_3_x2F__x3C_Path_x3E__x5F_72" viewBox="-0.025 -10.7 10.987 10.717">
	<g id="Layer_1_5_">
		<path style="fill-rule:evenodd;clip-rule:evenodd;fill:#1F1A1C;" d="M6.05-0.05c1.6-0.133,2.633-0.367,3.1-0.7
			c0.233-0.133,0.617-1.2,1.15-3.2c0.5-1.933,0.717-3.083,0.65-3.45c-0.1-0.5-1-1.184-2.7-2.05C6.617-10.283,5.5-10.7,4.9-10.7
			c-0.533,0-1.45,0.65-2.75,1.95C0.883-7.45,0.167-6.5,0-5.9c-0.133,0.533,0.267,1.55,1.2,3.05c0.833,1.3,1.5,2.167,2,2.6
			C3.5,0.017,4.45,0.083,6.05-0.05z"/>
	</g>
</symbol>
<symbol  id="flash0.ai_x2F_Layer_3_x2F__x3C_Path_x3E__x5F_73" viewBox="0.028 -13.419 13.325 13.409">
	<g id="Layer_1_4_">
		<path style="fill-rule:evenodd;clip-rule:evenodd;fill:#1F1A1C;" d="M12.65-1.95c0.5-0.433,0.733-1.867,0.7-4.3
			c-0.033-2.3-0.217-3.783-0.55-4.45c-0.3-0.6-1.583-1.25-3.85-1.95c-2.167-0.667-3.65-0.9-4.45-0.7
			c-0.667,0.167-1.55,1.217-2.65,3.15c-1,1.7-1.6,2.967-1.8,3.8C-0.083-5.933,0.4-4.833,1.5-3.1s1.967,2.75,2.6,3.05
			c0.333,0.133,1.767-0.067,4.3-0.6C10.9-1.217,12.317-1.65,12.65-1.95z"/>
	</g>
</symbol>
<symbol  id="flash0.ai_x2F_Layer_3_x2F__x3C_Path_x3E__x5F_74" viewBox="0.029 -6.75 6.938 6.756">
	<g id="Layer_1_3_">
		<path style="fill-rule:evenodd;clip-rule:evenodd;fill:#1F1A1C;" d="M6.55-2.5c0.333-1.233,0.467-1.95,0.4-2.15
			C6.883-4.983,6.317-5.433,5.25-6C4.217-6.5,3.5-6.75,3.1-6.75c-0.3,0-0.867,0.417-1.7,1.25C0.6-4.7,0.15-4.1,0.05-3.7
			C-0.05-3.4,0.2-2.783,0.8-1.85c0.5,0.833,0.917,1.4,1.25,1.7c0.167,0.167,0.767,0.2,1.8,0.1c1-0.067,1.65-0.217,1.95-0.45
			C5.933-0.6,6.183-1.267,6.55-2.5z"/>
	</g>
</symbol>
<symbol  id="flash0.ai_x2F_Layer_3_x2F__x3C_Path_x3E__x5F_75" viewBox="0.037 -5.4 5.518 5.433">
	<g id="Layer_1_2_">
		<path style="fill-rule:evenodd;clip-rule:evenodd;fill:#1F1A1C;" d="M5.2-2c0.267-1,0.383-1.567,0.35-1.7
			C5.517-3.967,5.067-4.333,4.2-4.8C3.4-5.2,2.833-5.4,2.5-5.4c-0.267,0-0.717,0.333-1.35,1c-0.667,0.667-1.033,1.15-1.1,1.45
			c-0.066,0.233,0.133,0.733,0.6,1.5c0.4,0.667,0.733,1.117,1,1.35C1.783,0.033,2.267,0.067,3.1,0c0.8-0.067,1.316-0.183,1.55-0.35
			C4.75-0.45,4.933-1,5.2-2z"/>
	</g>
</symbol>
<symbol  id="flash0.ai_x2F_Layer_3_x2F__x3C_Path_x3E__x5F_8" viewBox="0.013 -16.3 16.754 16.35">
	<g id="Layer_1_69_">
		<path style="fill-rule:evenodd;clip-rule:evenodd;fill:#1F1A1C;" d="M13.95-1.1c0.333-0.233,0.917-1.85,1.75-4.85
			c0.8-3,1.15-4.767,1.05-5.3c-0.2-0.8-1.6-1.85-4.2-3.15c-2.466-1.267-4.167-1.9-5.1-1.9c-0.8,0-2.184,1-4.15,3
			c-1.933,1.966-3.017,3.417-3.25,4.35c-0.2,0.767,0.417,2.3,1.85,4.6c1.233,2,2.233,3.333,3,4c0.467,0.4,1.917,0.5,4.35,0.3
			C11.683-0.25,13.25-0.6,13.95-1.1z"/>
	</g>
</symbol>
<symbol  id="flash0.ai_x2F_Layer_3_x2F__x3C_Path_x3E__x5F_9" viewBox="-0.013 -13.269 13.216 13.276">
	<g id="Layer_1_68_">
		<path style="fill-rule:evenodd;clip-rule:evenodd;fill:#1F1A1C;" d="M1.45-3.05c1.1,1.7,1.966,2.7,2.6,3
			c0.3,0.167,1.717-0.034,4.25-0.6c2.467-0.533,3.867-0.95,4.2-1.25c0.5-0.434,0.733-1.85,0.7-4.25
			c-0.034-2.267-0.217-3.75-0.55-4.45c-0.3-0.566-1.566-1.2-3.8-1.9c-2.167-0.667-3.633-0.9-4.4-0.7C3.783-13.033,2.9-12,1.8-10.1
			C0.8-8.433,0.2-7.183,0-6.35C-0.1-5.85,0.383-4.75,1.45-3.05z"/>
	</g>
</symbol>
<g>
	
		<linearGradient id="SVGID_1_" gradientUnits="userSpaceOnUse" x1="-2.8516" y1="-246.229" x2="168.3234" y2="-246.229" gradientTransform="matrix(1.460841e-004 1 -1 1.460841e-004 -3.488905e-004 -1.247764e-004)">
		<stop  offset="0" style="stop-color:#171517"/>
		<stop  offset="0.1686" style="stop-color:#1D181D"/>
		<stop  offset="0.4" style="stop-color:#2D212F"/>
		<stop  offset="0.5686" style="stop-color:#3D2940"/>
		<stop  offset="1" style="stop-color:#3A4063"/>
	</linearGradient>
	<path style="fill-rule:evenodd;clip-rule:evenodd;fill:url(#SVGID_1_);" d="M492.5,147.4H0L0.35,35.35
		c25.6-2.967,54.367-5.967,86.3-9c63.833-6.067,111.517-9.317,143.05-9.75c36.6-0.467,91.366,2.217,164.3,8.05
		c36.467,2.934,69.267,5.9,98.4,8.9L492.5,147.4z"/>
	<g>
		<linearGradient id="SVGID_2_" gradientUnits="userSpaceOnUse" x1="164.2998" y1="83.4395" x2="305.0998" y2="83.4395">
			<stop  offset="0" style="stop-color:#3D2940"/>
			<stop  offset="0.3098" style="stop-color:#211F21"/>
			<stop  offset="0.6353" style="stop-color:#3D2940"/>
			<stop  offset="1" style="stop-color:#3A4066"/>
		</linearGradient>
		<path style="fill-rule:evenodd;clip-rule:evenodd;fill:url(#SVGID_2_);" d="M284,37.1l-0.45,11.75c-0.866,9.733-2.633,19.4-5.3,29
			c-5.866,20.967-9.366,38.851-10.5,53.65c-0.566,7.4-0.55,12.7,0.05,15.9h-74.65c0.667-8.534,1.017-15.75,1.05-21.65
			c0.066-11.733-0.8-22.017-2.6-30.85c-4.267-18.567-7.184-31.417-8.75-38.55c-2.567-11.833-3.5-20.7-2.8-26.6
			c-0.3-0.133-0.533-0.35-0.7-0.65c-0.367-0.567-0.25-1.184,0.35-1.85c1.833-2.133,8.017-4.4,18.55-6.8
			c10.533-2.4,27.983-0.35,52.35,6.15C262.8,29.867,273.934,33.367,284,37.1z"/>
		
			<use xlink:href="#flash0.ai_x2F_Layer_3_x2F__x3C_Path_x3E__x5F_75"  width="5.518" height="5.433" x="0.037" y="-5.4" transform="matrix(1 0 0 -1 139.7002 102.3496)" style="overflow:visible;opacity:0.6289;enable-background:new    ;"/>
		
			<use xlink:href="#flash0.ai_x2F_Layer_3_x2F__x3C_Path_x3E__x5F_74"  width="6.938" height="6.756" x="0.029" y="-6.75" transform="matrix(1 0 0 -1 27.75 74.9004)" style="overflow:visible;opacity:0.6289;enable-background:new    ;"/>
		
			<use xlink:href="#flash0.ai_x2F_Layer_3_x2F__x3C_Path_x3E__x5F_73"  width="13.325" height="13.409" x="0.028" y="-13.419" transform="matrix(1 0 0 -1 143.9502 106.75)" style="overflow:visible;opacity:0.6289;enable-background:new    ;"/>
		
			<use xlink:href="#flash0.ai_x2F_Layer_3_x2F__x3C_Path_x3E__x5F_72"  width="10.987" height="10.717" x="-0.025" y="-10.7" transform="matrix(1 0 0 -1 27.8501 60.75)" style="overflow:visible;opacity:0.6289;enable-background:new    ;"/>
		
			<use xlink:href="#flash0.ai_x2F_Layer_3_x2F__x3C_Path_x3E__x5F_71"  width="9.18" height="9" x="0.033" y="-9" transform="matrix(1 0 0 -1 158.6499 111.9502)" style="overflow:visible;opacity:0.6289;enable-background:new    ;"/>
		
			<use xlink:href="#flash0.ai_x2F_Layer_3_x2F__x3C_Path_x3E__x5F_70"  width="11.895" height="11.612" x="0.015" y="-11.6" transform="matrix(1 0 0 -1 169.25 115.5498)" style="overflow:visible;opacity:0.6289;enable-background:new    ;"/>
		
			<use xlink:href="#flash0.ai_x2F_Layer_3_x2F__x3C_Path_x3E__x5F_69"  width="9.379" height="9.15" x="-0.017" y="-9.15" transform="matrix(1 0 0 -1 166.4502 64.1001)" style="overflow:visible;opacity:0.6289;enable-background:new    ;"/>
		
			<use xlink:href="#flash0.ai_x2F_Layer_3_x2F__x3C_Path_x3E__x5F_68"  width="10.029" height="9.795" x="-0.016" y="-9.8" transform="matrix(1 0 0 -1 205.7002 76.0498)" style="overflow:visible;opacity:0.6289;enable-background:new    ;"/>
		
			<use xlink:href="#flash0.ai_x2F_Layer_3_x2F__x3C_Path_x3E__x5F_67"  width="17.264" height="16.85" x="0.014" y="-16.85" transform="matrix(1 0 0 -1 8.5498 94.25)" style="overflow:visible;opacity:0.6289;enable-background:new    ;"/>
		
			<use xlink:href="#flash0.ai_x2F_Layer_3_x2F__x3C_Path_x3E__x5F_66"  width="8.083" height="7.85" x="-0.019" y="-7.85" transform="matrix(1 0 0 -1 286.9004 88.0498)" style="overflow:visible;opacity:0.6289;enable-background:new    ;"/>
		
			<use xlink:href="#flash0.ai_x2F_Layer_3_x2F__x3C_Path_x3E__x5F_65"  width="8.083" height="7.856" x="-0.019" y="-7.85" transform="matrix(1 0 0 -1 88.2002 53.5)" style="overflow:visible;opacity:0.6289;enable-background:new    ;"/>
		
			<use xlink:href="#flash0.ai_x2F_Layer_3_x2F__x3C_Path_x3E__x5F_64"  width="8.083" height="7.856" x="-0.019" y="-7.85" transform="matrix(1 0 0 -1 415.0996 59.7002)" style="overflow:visible;opacity:0.6289;enable-background:new    ;"/>
		
			<use xlink:href="#flash0.ai_x2F_Layer_3_x2F__x3C_Path_x3E__x5F_63"  width="9.89" height="9.673" x="0.022" y="-9.7" transform="matrix(1 0 0 -1 456.7998 80.6504)" style="overflow:visible;opacity:0.6289;enable-background:new    ;"/>
		
			<use xlink:href="#flash0.ai_x2F_Layer_3_x2F__x3C_Path_x3E__x5F_62"  width="8.083" height="7.85" x="-0.019" y="-7.85" transform="matrix(1 0 0 -1 475.7998 112.5996)" style="overflow:visible;opacity:0.6289;enable-background:new    ;"/>
		
			<use xlink:href="#flash0.ai_x2F_Layer_3_x2F__x3C_Path_x3E__x5F_61"  width="8.083" height="7.856" x="-0.019" y="-7.85" transform="matrix(1 0 0 -1 394.7998 71.7998)" style="overflow:visible;opacity:0.6289;enable-background:new    ;"/>
		
			<use xlink:href="#flash0.ai_x2F_Layer_3_x2F__x3C_Path_x3E__x5F_60"  width="12.144" height="11.862" x="0.016" y="-11.85" transform="matrix(1 0 0 -1 423.5 124.9502)" style="overflow:visible;opacity:0.6289;enable-background:new    ;"/>
		
			<use xlink:href="#flash0.ai_x2F_Layer_3_x2F__x3C_Path_x3E__x5F_59"  width="8.083" height="7.85" x="-0.019" y="-7.85" transform="matrix(1 0 0 -1 340.5498 113)" style="overflow:visible;opacity:0.6289;enable-background:new    ;"/>
		
			<use xlink:href="#flash0.ai_x2F_Layer_3_x2F__x3C_Path_x3E__x5F_58"  width="8.034" height="7.9" x="0.03" y="-7.9" transform="matrix(1 0 0 -1 293.6504 59.75)" style="overflow:visible;opacity:0.6289;enable-background:new    ;"/>
		
			<use xlink:href="#flash0.ai_x2F_Layer_3_x2F__x3C_Path_x3E__x5F_57"  width="8.083" height="7.856" x="-0.019" y="-7.85" transform="matrix(1 0 0 -1 339.5498 85.5)" style="overflow:visible;opacity:0.6289;enable-background:new    ;"/>
		
			<use xlink:href="#flash0.ai_x2F_Layer_3_x2F__x3C_Path_x3E__x5F_56"  width="8.083" height="7.85" x="-0.019" y="-7.85" transform="matrix(1 0 0 -1 266.4502 59.3501)" style="overflow:visible;opacity:0.6289;enable-background:new    ;"/>
		
			<use xlink:href="#flash0.ai_x2F_Layer_3_x2F__x3C_Path_x3E__x5F_55"  width="8.083" height="7.9" x="-0.019" y="-7.9" transform="matrix(1 0 0 -1 190.3999 52.1499)" style="overflow:visible;opacity:0.6289;enable-background:new    ;"/>
		
			<use xlink:href="#flash0.ai_x2F_Layer_3_x2F__x3C_Path_x3E__x5F_54"  width="9.23" height="9.023" x="-0.017" y="-9" transform="matrix(1 0 0 -1 78.75 105.0996)" style="overflow:visible;opacity:0.6289;enable-background:new    ;"/>
		
			<use xlink:href="#flash0.ai_x2F_Layer_3_x2F__x3C_Path_x3E__x5F_53"  width="8.873" height="9.052" x="-0.009" y="-9.014" transform="matrix(1 0 0 -1 147.75 52.1499)" style="overflow:visible;opacity:0.6289;enable-background:new    ;"/>
		
			<use xlink:href="#flash0.ai_x2F_Layer_3_x2F__x3C_Path_x3E__x5F_52"  width="9.497" height="9.692" x="-0.008" y="-9.704" transform="matrix(1 0 0 -1 231.7002 97)" style="overflow:visible;opacity:0.6289;enable-background:new    ;"/>
		
			<use xlink:href="#flash0.ai_x2F_Layer_3_x2F__x3C_Path_x3E__x5F_51"  width="8.867" height="9.043" x="-0.002" y="-9.054" transform="matrix(1 0 0 -1 140.2998 65.7002)" style="overflow:visible;opacity:0.6289;enable-background:new    ;"/>
		
			<use xlink:href="#flash0.ai_x2F_Layer_3_x2F__x3C_Path_x3E__x5F_50"  width="11.246" height="11.477" x="-0.007" y="-11.429" transform="matrix(1 0 0 -1 28.1001 103.1504)" style="overflow:visible;opacity:0.6289;enable-background:new    ;"/>
		
			<use xlink:href="#flash0.ai_x2F_Layer_3_x2F__x3C_Path_x3E__x5F_49"  width="7.517" height="7.665" x="-0.003" y="-7.639" transform="matrix(1 0 0 -1 125.0498 131.1504)" style="overflow:visible;opacity:0.6289;enable-background:new    ;"/>
		
			<use xlink:href="#flash0.ai_x2F_Layer_3_x2F__x3C_Path_x3E__x5F_48"  width="11.352" height="10.937" x="-0.002" y="-10.938" transform="matrix(1 0 0 -1 303.9502 61.8501)" style="overflow:visible;opacity:0.6289;enable-background:new    ;"/>
		
			<use xlink:href="#flash0.ai_x2F_Layer_3_x2F__x3C_Path_x3E__x5F_47"  width="5.219" height="5.083" x="-0.013" y="-5.05" transform="matrix(1 0 0 -1 166.1499 84.1504)" style="overflow:visible;opacity:0.6289;enable-background:new    ;"/>
		
			<use xlink:href="#flash0.ai_x2F_Layer_3_x2F__x3C_Path_x3E__x5F_46"  width="5.17" height="5.033" x="-0.013" y="-5.05" transform="matrix(1 0 0 -1 183.6499 110.6504)" style="overflow:visible;opacity:0.6289;enable-background:new    ;"/>
		
			<use xlink:href="#flash0.ai_x2F_Layer_3_x2F__x3C_Path_x3E__x5F_45"  width="5.568" height="5.383" x="-0.013" y="-5.4" transform="matrix(1 0 0 -1 247.4502 74.8496)" style="overflow:visible;opacity:0.6289;enable-background:new    ;"/>
		
			<use xlink:href="#flash0.ai_x2F_Layer_3_x2F__x3C_Path_x3E__x5F_44"  width="5.568" height="5.414" x="-0.013" y="-5.4" transform="matrix(1 0 0 -1 211 92.0996)" style="overflow:visible;opacity:0.6289;enable-background:new    ;"/>
		
			<use xlink:href="#flash0.ai_x2F_Layer_3_x2F__x3C_Path_x3E__x5F_43"  width="5.568" height="5.434" x="-0.013" y="-5.45" transform="matrix(1 0 0 -1 202.1499 117.3496)" style="overflow:visible;opacity:0.6289;enable-background:new    ;"/>
		
			<use xlink:href="#flash0.ai_x2F_Layer_3_x2F__x3C_Path_x3E__x5F_42"  width="4.461" height="4.383" x="-0.004" y="-4.35" transform="matrix(1 0 0 -1 400.4502 109.0498)" style="overflow:visible;opacity:0.6289;enable-background:new    ;"/>
		
			<use xlink:href="#flash0.ai_x2F_Layer_3_x2F__x3C_Path_x3E__x5F_41"  width="4.471" height="4.34" x="-0.014" y="-4.35" transform="matrix(1 0 0 -1 244.8501 131.7002)" style="overflow:visible;opacity:0.6289;enable-background:new    ;"/>
		
			<use xlink:href="#flash0.ai_x2F_Layer_3_x2F__x3C_Path_x3E__x5F_40"  width="4.51" height="4.39" x="-0.004" y="-4.4" transform="matrix(1 0 0 -1 216.9502 137.7002)" style="overflow:visible;opacity:0.6289;enable-background:new    ;"/>
		
			<use xlink:href="#flash0.ai_x2F_Layer_3_x2F__x3C_Path_x3E__x5F_39"  width="4.471" height="4.34" x="-0.014" y="-4.35" transform="matrix(1 0 0 -1 300.4502 125.5498)" style="overflow:visible;opacity:0.6289;enable-background:new    ;"/>
		
			<use xlink:href="#flash0.ai_x2F_Layer_3_x2F__x3C_Path_x3E__x5F_38"  width="8.61" height="8.638" x="0.004" y="-8.66" transform="matrix(1 0 0 -1 213.6499 126.4004)" style="overflow:visible;opacity:0.6289;enable-background:new    ;"/>
		
			<use xlink:href="#flash0.ai_x2F_Layer_3_x2F__x3C_Path_x3E__x5F_37"  width="4.461" height="4.383" x="-0.004" y="-4.4" transform="matrix(1 0 0 -1 363.5996 95.5)" style="overflow:visible;opacity:0.6289;enable-background:new    ;"/>
		
			<use xlink:href="#flash0.ai_x2F_Layer_3_x2F__x3C_Path_x3E__x5F_36"  width="4.476" height="4.383" x="-0.004" y="-4.35" transform="matrix(1 0 0 -1 407.0996 64.4502)" style="overflow:visible;opacity:0.6289;enable-background:new    ;"/>
		
			<use xlink:href="#flash0.ai_x2F_Layer_3_x2F__x3C_Path_x3E__x5F_35"  width="4.51" height="4.39" x="-0.004" y="-4.4" transform="matrix(1 0 0 -1 351.2998 128)" style="overflow:visible;opacity:0.6289;enable-background:new    ;"/>
		
			<use xlink:href="#flash0.ai_x2F_Layer_3_x2F__x3C_Path_x3E__x5F_34"  width="4.472" height="4.383" x="0.035" y="-4.4" transform="matrix(1 0 0 -1 98.75 49.5498)" style="overflow:visible;opacity:0.6289;enable-background:new    ;"/>
		
			<use xlink:href="#flash0.ai_x2F_Layer_3_x2F__x3C_Path_x3E__x5F_33"  width="4.471" height="4.39" x="-0.014" y="-4.4" transform="matrix(1 0 0 -1 421.8496 137.1504)" style="overflow:visible;opacity:0.6289;enable-background:new    ;"/>
		
			<use xlink:href="#flash0.ai_x2F_Layer_3_x2F__x3C_Path_x3E__x5F_32"  width="7.336" height="7.106" x="-0.02" y="-7.1" transform="matrix(1 0 0 -1 336.2002 58.75)" style="overflow:visible;opacity:0.6289;enable-background:new    ;"/>
		
			<use xlink:href="#flash0.ai_x2F_Layer_3_x2F__x3C_Path_x3E__x5F_31"  width="5.88" height="5.733" x="-0.012" y="-5.75" transform="matrix(1 0 0 -1 374 85.75)" style="overflow:visible;opacity:0.6289;enable-background:new    ;"/>
		
			<use xlink:href="#flash0.ai_x2F_Layer_3_x2F__x3C_Path_x3E__x5F_30"  width="5.88" height="5.684" x="-0.012" y="-5.7" transform="matrix(1 0 0 -1 296.3496 70.3999)" style="overflow:visible;opacity:0.6289;enable-background:new    ;"/>
		
			<use xlink:href="#flash0.ai_x2F_Layer_3_x2F__x3C_Path_x3E__x5F_29"  width="5.88" height="5.733" x="-0.012" y="-5.75" transform="matrix(1 0 0 -1 70.25 125.5996)" style="overflow:visible;opacity:0.6289;enable-background:new    ;"/>
		
			<use xlink:href="#flash0.ai_x2F_Layer_3_x2F__x3C_Path_x3E__x5F_28"  width="5.867" height="5.733" x="-0.012" y="-5.75" transform="matrix(1 0 0 -1 162.1001 123.4502)" style="overflow:visible;opacity:0.6289;enable-background:new    ;"/>
		
			<use xlink:href="#flash0.ai_x2F_Layer_3_x2F__x3C_Path_x3E__x5F_27"  width="5.879" height="5.733" x="0.026" y="-5.75" transform="matrix(1 0 0 -1 469.5498 118.75)" style="overflow:visible;opacity:0.6289;enable-background:new    ;"/>
		
			<use xlink:href="#flash0.ai_x2F_Layer_3_x2F__x3C_Path_x3E__x5F_26"  width="7.734" height="7.506" x="-0.02" y="-7.5" transform="matrix(1 0 0 -1 437.8496 128.75)" style="overflow:visible;opacity:0.6289;enable-background:new    ;"/>
		
			<use xlink:href="#flash0.ai_x2F_Layer_3_x2F__x3C_Path_x3E__x5F_25"  width="9.679" height="9.423" x="0.033" y="-9.4" transform="matrix(1 0 0 -1 427.0498 74.7998)" style="overflow:visible;opacity:0.6289;enable-background:new    ;"/>
		
			<use xlink:href="#flash0.ai_x2F_Layer_3_x2F__x3C_Path_x3E__x5F_24"  width="5.119" height="4.983" x="-0.013" y="-5" transform="matrix(1 0 0 -1 60.7002 92.2998)" style="overflow:visible;opacity:0.6289;enable-background:new    ;"/>
		
			<use xlink:href="#flash0.ai_x2F_Layer_3_x2F__x3C_Path_x3E__x5F_23"  width="5.12" height="4.99" x="-0.013" y="-5" transform="matrix(1 0 0 -1 22.6001 109.5498)" style="overflow:visible;opacity:0.6289;enable-background:new    ;"/>
		
			<use xlink:href="#flash0.ai_x2F_Layer_3_x2F__x3C_Path_x3E__x5F_22"  width="6.926" height="6.778" x="0.029" y="-6.8" transform="matrix(1 0 0 -1 49.25 61.8999)" style="overflow:visible;opacity:0.6289;enable-background:new    ;"/>
		
			<use xlink:href="#flash0.ai_x2F_Layer_3_x2F__x3C_Path_x3E__x5F_21"  width="6.914" height="6.756" x="-0.01" y="-6.75" transform="matrix(1 0 0 -1 156.5 102.25)" style="overflow:visible;opacity:0.6289;enable-background:new    ;"/>
		
			<use xlink:href="#flash0.ai_x2F_Layer_3_x2F__x3C_Path_x3E__x5F_20"  width="15.42" height="15.078" x="0.01" y="-15.05" transform="matrix(1 0 0 -1 69.5498 87.7002)" style="overflow:visible;opacity:0.6289;enable-background:new    ;"/>
		
			<use xlink:href="#flash0.ai_x2F_Layer_3_x2F__x3C_Path_x3E__x5F_19"  width="13.501" height="13.183" x="-0.031" y="-13.15" transform="matrix(1 0 0 -1 273.3496 118.5498)" style="overflow:visible;opacity:0.6289;enable-background:new    ;"/>
		
			<use xlink:href="#flash0.ai_x2F_Layer_3_x2F__x3C_Path_x3E__x5F_18"  width="13.453" height="13.183" x="0.018" y="-13.15" transform="matrix(1 0 0 -1 28.0498 127.8496)" style="overflow:visible;opacity:0.6289;enable-background:new    ;"/>
		
			<use xlink:href="#flash0.ai_x2F_Layer_3_x2F__x3C_Path_x3E__x5F_17"  width="13.366" height="13.426" x="-0.013" y="-13.419" transform="matrix(1 0 0 -1 219.25 85)" style="overflow:visible;opacity:0.6289;enable-background:new    ;"/>
		
			<use xlink:href="#flash0.ai_x2F_Layer_3_x2F__x3C_Path_x3E__x5F_16"  width="10.765" height="10.834" x="0.035" y="-10.79" transform="matrix(1 0 0 -1 288 125.6504)" style="overflow:visible;opacity:0.6289;enable-background:new    ;"/>
		
			<use xlink:href="#flash0.ai_x2F_Layer_3_x2F__x3C_Path_x3E__x5F_15"  width="10.815" height="10.804" x="-0.015" y="-10.809" transform="matrix(1 0 0 -1 410.4502 71.6499)" style="overflow:visible;opacity:0.6289;enable-background:new    ;"/>
		
			<use xlink:href="#flash0.ai_x2F_Layer_3_x2F__x3C_Path_x3E__x5F_14"  width="12.955" height="13.61" x="0.037" y="-13.595" transform="matrix(1 0 0 -1 469.9004 67.2998)" style="overflow:visible;opacity:0.6289;enable-background:new    ;"/>
		
			<use xlink:href="#flash0.ai_x2F_Layer_3_x2F__x3C_Path_x3E__x5F_13"  width="10.769" height="10.834" x="-0.015" y="-10.79" transform="matrix(1 0 0 -1 81.9502 124.4004)" style="overflow:visible;opacity:0.6289;enable-background:new    ;"/>
		
			<use xlink:href="#flash0.ai_x2F_Layer_3_x2F__x3C_Path_x3E__x5F_12"  width="10.769" height="10.804" x="-0.015" y="-10.809" transform="matrix(1 0 0 -1 236.8999 120.7998)" style="overflow:visible;opacity:0.6289;enable-background:new    ;"/>
		
			<use xlink:href="#flash0.ai_x2F_Layer_3_x2F__x3C_Path_x3E__x5F_11"  width="12.781" height="13.108" x="-0.02" y="-13.107" transform="matrix(1 0 0 -1 135.7998 128.7002)" style="overflow:visible;opacity:0.6289;enable-background:new    ;"/>
		
			<use xlink:href="#flash0.ai_x2F_Layer_3_x2F__x3C_Path_x3E__x5F_10"  width="13.225" height="13.288" x="-0.022" y="-13.25" transform="matrix(1 0 0 -1 417.75 89.3496)" style="overflow:visible;opacity:0.6289;enable-background:new    ;"/>
		
			<use xlink:href="#flash0.ai_x2F_Layer_3_x2F__x3C_Path_x3E__x5F_9"  width="13.216" height="13.276" x="-0.013" y="-13.269" transform="matrix(1 0 0 -1 333.0996 122.5996)" style="overflow:visible;opacity:0.6289;enable-background:new    ;"/>
		
			<use xlink:href="#flash0.ai_x2F_Layer_3_x2F__x3C_Path_x3E__x5F_8"  width="16.754" height="16.35" x="0.013" y="-16.3" transform="matrix(1 0 0 -1 236.0498 82.2998)" style="overflow:visible;opacity:0.6289;enable-background:new    ;"/>
		
			<use xlink:href="#flash0.ai_x2F_Layer_3_x2F__x3C_Path_x3E__x5F_7"  width="13.453" height="13.184" x="0.018" y="-13.2" transform="matrix(1 0 0 -1 462 102.0996)" style="overflow:visible;opacity:0.6289;enable-background:new    ;"/>
		
			<use xlink:href="#flash0.ai_x2F_Layer_3_x2F__x3C_Path_x3E__x5F_6"  width="15.569" height="15.278" x="0.011" y="-15.25" transform="matrix(1 0 0 -1 150.6001 65.2002)" style="overflow:visible;opacity:0.6289;enable-background:new    ;"/>
		
			<use xlink:href="#flash0.ai_x2F_Layer_3_x2F__x3C_Path_x3E__x5F_5"  width="14.321" height="14.324" x="-0.045" y="-14.319" transform="matrix(1 0 0 -1 357.7002 78.75)" style="overflow:visible;opacity:0.6289;enable-background:new    ;"/>
		
			<use xlink:href="#flash0.ai_x2F_Layer_3_x2F__x3C_Path_x3E__x5F_4"  width="20.935" height="20.452" x="0.016" y="-20.439" transform="matrix(1 0 0 -1 55.6499 101.8496)" style="overflow:visible;opacity:0.6289;enable-background:new    ;"/>
		
			<use xlink:href="#flash0.ai_x2F_Layer_3_x2F__x3C_Path_x3E__x5F_3"  width="22.73" height="22.139" x="-0.029" y="-22.137" transform="matrix(1 0 0 -1 221.6001 60.8999)" style="overflow:visible;opacity:0.6289;enable-background:new    ;"/>
		
			<use xlink:href="#flash0.ai_x2F_Layer_3_x2F__x3C_Path_x3E__x5F_2"  width="18.28" height="17.871" x="0.02" y="-17.833" transform="matrix(1 0 0 -1 289.9004 106.7002)" style="overflow:visible;opacity:0.6289;enable-background:new    ;"/>
		
			<use xlink:href="#flash0.ai_x2F_Layer_3_x2F__x3C_Path_x3E__x5F_1"  width="22.43" height="21.9" x="0.02" y="-21.887" transform="matrix(1 0 0 -1 432.9004 86.7998)" style="overflow:visible;opacity:0.6289;enable-background:new    ;"/>
		
			<use xlink:href="#flash0.ai_x2F_Layer_3_x2F__x3C_Path_x3E_"  width="18.306" height="17.871" x="-0.006" y="-17.833" transform="matrix(1 0 0 -1 394.2002 82.7998)" style="overflow:visible;opacity:0.6289;enable-background:new    ;"/>
		<g>
			<path style="fill-rule:evenodd;clip-rule:evenodd;fill:#20141B;" d="M489.7,44.7c-0.854,0.624-1.529,1.407-2.025,2.35
				c0.214-0.434,0.272-1.184,0.175-2.25c-1.066-0.2-2.316,0.05-3.75,0.75c-1.233,0.6-2.283,1.35-3.149,2.25
				c0.3-0.533,0.8-1.15,1.5-1.85c-1.667,0.533-2.934,0.966-3.8,1.3c-1.467,0.6-2.584,1.3-3.351,2.1l0.45-1.35
				c-1.167,0.767-2.316,1.733-3.45,2.9c0-0.8,0.084-1.667,0.25-2.6c-0.7,0.8-1.883,1.767-3.55,2.9c-1.8,1.233-3.033,2.167-3.7,2.8
				c-0.033-0.6,0.033-1.4,0.2-2.4c0.167-1.233,0.267-2.05,0.3-2.45c-0.467,0.467-1.25,1.117-2.35,1.95
				c-1.066,0.8-1.834,1.45-2.3,1.95c0.133-0.7,0.166-1.8,0.1-3.3c-0.366,0.6-1.417,1.583-3.15,2.95
				c-1.433,1.167-2.316,2.333-2.649,3.5c-0.066-1.833-0.066-3.2,0-4.1c0.166-1.533,0.833-2.633,2-3.3
				c-3.367,0.667-5.517,1.583-6.45,2.75c0.566-1.2,1.066-2.05,1.5-2.55c0.733-0.9,1.566-1.367,2.5-1.4
				c-4.715-1.893-7.623-2.151-8.725-0.775c0.125-0.165,0.316-0.473,0.574-0.925c0.267-0.433,0.483-0.75,0.65-0.95
				c-1.4-0.067-2.733,0.033-4,0.3c-1.5,0.333-2.7,0.883-3.6,1.65c-0.167-0.267-0.384-0.483-0.65-0.65
				c-0.4-0.233-0.634-0.383-0.7-0.45l0.15,0.95c-2.101-0.367-3.483-1.067-4.15-2.1c0,0.3,0.033,1.083,0.101,2.35
				c0,1.133-0.184,1.767-0.551,1.9c-0.899,0.333-1.866-0.8-2.899-3.4c-0.5,1.233-1.15,2.15-1.95,2.75
				c0.066-1.3,0.167-2.117,0.3-2.45c-2.166,1.1-3.767,1.9-4.8,2.4c-1.833,0.9-3.333,1.9-4.5,3c0.733-1.633,1.167-2.583,1.3-2.85
				c0.479-0.959,0.979-1.676,1.5-2.15c-1.998,1.594-4.681,2.678-8.05,3.25c-3.851,0.658-6.709,0.167-8.575-1.475
				c0.353,0.331,0.794,0.856,1.325,1.575c-4,0.3-6.816-0.383-8.45-2.05c0.167,0.467,0.55,1.083,1.15,1.85
				c0.6,0.767,0.983,1.383,1.149,1.85c-2.933-0.733-4.533-1.15-4.8-1.25c-1.866-0.767-2.983-1.85-3.35-3.25
				c-0.4,1.133-1.117,1.65-2.15,1.55c-0.2-0.3-0.3-0.667-0.3-1.1c-0.066,0.1-0.583,0.6-1.55,1.5c-0.834,0.767-1.25,1.25-1.25,1.45
				c0.033-0.7-0.017-1.533-0.15-2.5c-0.193-1.421-0.311-2.229-0.35-2.425c0.263,2.088-0.304,3.896-1.7,5.425
				c-0.866,0.967-2.4,2.066-4.6,3.3c-0.134-0.967-0.15-1.683-0.051-2.15c-0.866,1.5-2.466,2.867-4.8,4.1
				c-3.6,1.867-5.517,2.883-5.75,3.05c1.2-1.367,2.017-3.4,2.45-6.1c-1.5,0.8-3.1,1.983-4.8,3.55
				c0.267-0.967-0.434-1.817-2.101-2.55c-1.966-0.633-3.216-1.083-3.75-1.35c0,1.1,0.417,2.033,1.25,2.8
				c-2.199,0.1-4.949-0.483-8.25-1.75c-3.6-1.367-5.85-2.883-6.75-4.55l0.551,1.4c0.199,0.6,0.416,1.066,0.649,1.4
				c-0.8-0.2-1.767-0.8-2.899-1.8c-1.267-1.1-2.233-1.784-2.9-2.05c-0.366-0.133-1.7-0.333-4-0.6c-2.267-0.267-3.4-0.383-3.4-0.35
				c0.06,0.851,0.476,1.434,1.25,1.75c-3.074-1.004-5.642-1.554-7.699-1.65c-2.934-0.1-5.551,0.567-7.851,2
				c0.2-0.533,0.517-1.233,0.95-2.1c0.5-1.034,0.833-1.75,1-2.15c-1.066,0.267-2.366,0.85-3.9,1.75
				c-1.666,1.067-2.899,1.8-3.699,2.2c0-0.767,0.05-1.317,0.149-1.65c-1,0.9-2.717,1.7-5.149,2.4c0.767-0.8,1.466-1.65,2.1-2.55
				c-2.267,0.533-3.983,0.917-5.15,1.15c-1.966,0.367-3.75,0.533-5.35,0.5c0.434,0.5,1.017,0.917,1.75,1.25
				c0.527,0.237,1.027,0.371,1.5,0.4c-7.659-0.042-12.31-1.409-13.95-4.1c0.3,0.767,1.017,1.967,2.15,3.6
				c-0.967-0.033-2.15-0.533-3.55-1.5c-1.134-0.767-2.167-1.633-3.101-2.6c-0.066,2.567-0.45,5.417-1.149,8.55
				c-0.834,3.5-1.817,6.167-2.95,8c2.166-8.767,2.434-14.95,0.8-18.55c-0.2,1.4-0.566,3.217-1.1,5.45
				c-0.334,1.233-0.801,3.017-1.4,5.35c0.5-2.167,0.45-4.417-0.15-6.75c-0.199,1.066-0.399,1.867-0.6,2.4
				c-0.467-2.133-1.233-4.417-2.3-6.85c0.2,1.567-0.017,3.6-0.65,6.1c-0.366,1.4-0.916,3.417-1.649,6.05
				c0.366-1.6,0.017-3.867-1.051-6.8c-1.138-3.123-1.671-5.355-1.6-6.7c-0.087,1.044-0.437,2.761-1.05,5.15
				c-0.101,0.534-0.5,1.55-1.2,3.05c-0.572,1.234-0.872,2.167-0.9,2.8c-0.002-2.254-0.053-3.754-0.149-4.5
				c-0.167,1.1-1.15,2.367-2.95,3.8c-1.726,1.367-2.675,2.609-2.85,3.725c0.199-1.558,0.3-3.533,0.3-5.925
				c-0.667,1.333-1.733,2.517-3.2,3.55c-1.934,1.367-3.15,2.317-3.65,2.85c0.134-0.833,0.25-1.433,0.351-1.8
				c-0.601,0.333-1.2,0.816-1.8,1.45c-0.601,0.667-1.051,1.317-1.351,1.95c0.101-0.967,0.033-1.883-0.2-2.75
				c-1.5,2.7-2.866,6.2-4.1,10.5c0.066-2.533,0.066-4.433,0-5.7c-0.134-2.233-0.566-4-1.3-5.3c-1.3,0.9-2.367,1.933-3.2,3.1
				c-0.733,1-1.4,2.267-2,3.8c-0.6-2.267-1.1-3.9-1.5-4.9c-0.633-1.7-1.617-3.083-2.95-4.15c0,0.333-0.133,0.816-0.4,1.45
				c-0.467-0.2-0.967-0.583-1.5-1.15c-0.833-0.9-1.267-1.367-1.3-1.4c0.133,0.833,0.467,1.75,1,2.75
				c-3.8-2.533-7.434-4.517-10.9-5.95c0.133,0.434,0.333,1.2,0.6,2.3c-2.6-0.967-4.433-2.4-5.5-4.3c0.467,0.867,1.034,2.5,1.7,4.9
				c-1.433-1.233-2.9-2.75-4.4-4.55c-0.067-0.1-1.367-1.767-3.9-5c-1.567,0.567-2.833,1.1-3.8,1.6
				c-1.872,0.919-2.646,1.794-2.325,2.625L209.05,43.5c-0.933,0.633-1.683,1.45-2.25,2.45c-0.466,0.767-0.883,1.8-1.25,3.1
				c-0.066-0.767-0.533-1.566-1.4-2.4c-1.1-1.1-1.75-1.816-1.95-2.15c0.1,0.567,0.183,1.417,0.25,2.55c0.133,1,0.5,1.75,1.1,2.25
				c-1-0.7-1.966-1.583-2.9-2.65c-0.033-0.033-0.9-1.1-2.6-3.2c-1.533,0.767-2.65,1.367-3.35,1.8c-1.233,0.733-2,1.667-2.3,2.8
				c-0.467-1.3-0.683-2.716-0.65-4.25c-1.767,1.4-2.65,2.833-2.65,4.3c-0.533-1.6-0.75-3.25-0.65-4.95
				c-0.867,1.633-1.333,3.467-1.4,5.5c-0.033,1.333,0.15,3.2,0.55,5.6c-0.833-1.5-1.717-3.65-2.65-6.45
				c-1.2-3.6-1.983-5.833-2.35-6.7c-0.033,1,0.1,2.2,0.4,3.6c0.16,0.766,0.393,1.866,0.7,3.3c-0.126-0.46-0.51-1.126-1.15-2
				c-0.8-1.067-1.283-1.817-1.45-2.25c-0.467-1.4-0.85-2.983-1.15-4.75c-1.034,1.133-1.717,2.533-2.05,4.2
				c-0.2,1.066-0.283,2.633-0.25,4.7c-0.7-2.3-1.15-4.667-1.35-7.1c0-1.133-0.017-2-0.05-2.6c-0.033-1.133-0.233-1.967-0.6-2.5
				c-0.433-0.633-0.9-1.017-1.4-1.15c-0.3-0.1-0.983-0.133-2.05-0.1c-0.067-0.067-0.083-0.133-0.05-0.2
				c0.033-0.133,0.033-0.217,0-0.25c-0.4,0.067-0.867,0.2-1.4,0.4c-0.8,0.367-1.217,0.55-1.25,0.55l0.45-1.15
				c-1.3,0.067-2.583,0.3-3.85,0.7c-1.434,0.467-2.567,1.067-3.4,1.8c0.1-0.867,0.383-1.7,0.85-2.5c0.5-0.833,1.083-1.483,1.75-1.95
				c-1.966,0.333-3.367,0.617-4.2,0.85c-1.367,0.367-2.65,0.966-3.85,1.8c-0.167-0.2-0.267-0.417-0.3-0.65
				c-0.067,0.233-0.217,0.533-0.45,0.9c-0.233,0.4-0.383,0.683-0.45,0.85c-1.3-0.867-2.333-1.367-3.1-1.5
				c0.633,1.066,1.233,1.85,1.8,2.35c-0.667,0.066-1.583-0.034-2.75-0.3c-1.2-0.233-2.1-0.333-2.7-0.3
				c0.1,0.167,0.25,0.517,0.45,1.05c0.167,0.467,0.333,0.817,0.5,1.05c-0.5,0.167-1.033,0.316-1.6,0.45c-1.1,0.3-2.167,0.4-3.2,0.3
				c-0.133,1.867-0.867,3.383-2.2,4.55c0.133-1.567-0.1-2.683-0.7-3.35c-0.7-0.833-1.066-1.316-1.1-1.45
				c0-0.067-0.167,0.05-0.5,0.35c-0.2,0.4-0.5,1.167-0.9,2.3c-0.433,1-0.9,1.617-1.4,1.85c-0.1-1.5,0.017-3.083,0.35-4.75
				c-0.767,1.367-2.017,2.816-3.75,4.35c-2.2,1.867-3.6,3.167-4.2,3.9c0.633-1.067,0.883-2.717,0.75-4.95
				c-0.167,0.433-0.55,1.083-1.15,1.95c-0.767-0.367-1.633-1.133-2.6-2.3c0.133,0.333,0.217,0.767,0.25,1.3
				c-1.2,0-2.633-0.333-4.3-1c-1.5-0.6-2.817-1.3-3.95-2.1c0.633,1.433,1.75,2.683,3.35,3.75c-2.066-0.533-4.066-1.367-6-2.5
				c-2.3-1.4-3.867-2.917-4.7-4.55c0.233,1.167,0.7,2.333,1.4,3.5c-0.5-0.1-1.65-0.1-3.45,0c-1.3,0.067-2.433-0.216-3.4-0.85
				c0.867,0.867,1.317,1.316,1.35,1.35c0.533,0.467,1.05,0.767,1.55,0.9c-1.033,0.333-2.25,0.283-3.65-0.15
				c-0.9-0.267-2.033-0.767-3.4-1.5c0,1.367,0.5,2.45,1.5,3.25c-1.998-0.655-3.34-1.822-4.025-3.5
				c-0.181,1.056-0.823,1.99-1.925,2.8c-0.733,0.533-1.816,1.066-3.25,1.6c-0.933,0.367-2.017,0.917-3.25,1.65
				c-1.566,0.967-2.566,1.566-3,1.8c-0.033-0.7,0.117-1.683,0.45-2.95c-1.167,0.733-2.05,1.983-2.65,3.75
				c-0.1-1.167,0.066-2.233,0.5-3.2c-1.267,1.067-2.267,1.983-3,2.75c-1.387,1.354-2.087,2.43-2.1,3.225
				c-0.004-0.232-0.021-0.841-0.05-1.825c-1.4,0.8-2.45,1.434-3.15,1.9c-1.233,0.833-2.017,1.733-2.35,2.7l0.05-2.6
				c-1,1.067-1.733,2.067-2.2,3c-0.533,1.033-0.867,2.217-1,3.55c-0.3-2.267-0.717-3.8-1.25-4.6c-0.267-0.4-0.816-0.95-1.65-1.65
				c-0.8-0.6-1.317-1.15-1.55-1.65c0.267,0.667,0.867,1.75,1.8,3.25c-1.933-0.966-3.5-2.133-4.7-3.5c-1.433-1.7-2.083-3.5-1.95-5.4
				c-0.333,0.5-0.55,1.167-0.65,2c-0.067,0.467-0.133,1.167-0.2,2.1c-0.467-0.7-0.717-1.8-0.75-3.3C62.683,43.217,62.767,42,63,40.8
				c-0.1,0.233-1.2,1.45-3.3,3.65c-1.667,1.8-2.383,3.117-2.15,3.95c-0.3-0.5-0.466-0.917-0.5-1.25c-0.3,0.4-0.667,1.033-1.1,1.9
				c-0.467,0.9-0.817,1.517-1.05,1.85c0-0.033-0.05-1.217-0.15-3.55c-0.433,0.833-1.117,1.683-2.05,2.55
				c-1.1,0.934-1.917,1.65-2.45,2.15L50.2,51.1c-1.534,1.267-2.467,2.417-2.8,3.45c-0.167-0.9-0.283-1.933-0.35-3.1
				c-0.933,1.767-1.75,4.233-2.45,7.4c-1.24-3.808-2.123-6.742-2.65-8.8c0.079,0.628-0.038,1.195-0.35,1.7
				c-0.467-0.367-0.983-1-1.55-1.9c-0.667-1.067-1.133-1.75-1.4-2.05c-0.066,0.133-0.1,0.333-0.1,0.6
				c-0.667-0.033-1.483-0.233-2.45-0.6c-1.533-0.533-2.333-0.816-2.4-0.85c0.533,0.933,0.883,1.517,1.05,1.75
				c0.433,0.667,0.917,1.133,1.45,1.4c-3.8-1.8-6.917-2.85-9.35-3.15c0.433,0.333,0.967,0.933,1.6,1.8
				c-2.067-0.333-3.6-0.883-4.6-1.65c1.233,1.333,1.983,2.117,2.25,2.35c-1.934-0.434-4.184-1.583-6.75-3.45
				c0.7,0.667,1.133,1.467,1.3,2.4c-0.5-0.333-2.066-1.1-4.7-2.3c-1.934-0.867-3.333-1.833-4.2-2.9c0.167,0.767,0.633,1.6,1.4,2.5
				c-0.467-0.233-1.066-0.467-1.8-0.7c-1.033-0.333-1.633-0.533-1.8-0.6c-0.566-0.2-1.2-0.517-1.9-0.95
				c-0.767-0.5-1.35-0.867-1.75-1.1c0.133,0.233,0.3,0.6,0.5,1.1c0.233,0.4,0.483,0.667,0.75,0.8c-1.2-0.233-2.117-0.417-2.75-0.55
				l-4-0.05C0.4,37.117,0.483,31.9,0.65,28c0.5-1.033,1.667-1.467,3.5-1.3c3.8,0.367,5.75,0.55,5.85,0.55
				c8.733-0.2,17.533-0.767,26.4-1.7c8.867-0.933,16-1.466,21.4-1.6c10.9-0.3,23.5-0.317,37.8-0.05c8.3,0.133,21.733,0.4,40.3,0.8
				c4.7,0.066,12.333-0.217,22.9-0.85c9.767-0.6,17.4-0.783,22.9-0.55c45.9,1.934,91.333,2.6,136.3,2
				c42.8-0.6,78.767-1.517,107.9-2.75c4.767-0.2,12.133,0.617,22.1,2.45c9.634,1.767,16.95,2.483,21.95,2.15
				c2.633-0.167,6.35-0.9,11.149-2.2c5.034-1.333,8.817-2.133,11.351-2.4c-0.134,2.2-0.167,4.733-0.101,7.6
				c0.067,4.833,0.101,7.367,0.101,7.6l-0.05,6h-0.7C491.066,43.85,490.4,44.167,489.7,44.7z"/>
			<path style="fill-rule:evenodd;clip-rule:evenodd;fill:#60B5B1;" d="M486.55,24.5c2.2-0.8,3.667-1.117,4.4-0.95
				c1.033,0.2,1.533,1.217,1.5,3.05c-0.033,2.8-0.033,7.083,0,12.85c-1.834,0-3.767,0.133-5.8,0.4
				c-2.579,0.359-3.987,0.834-4.226,1.425c0.193-0.527,0.502-1.002,0.925-1.425c-2.699,1.1-4.666,2.35-5.899,3.75
				c0-1,0.717-2.033,2.149-3.1c-2.399,0.367-4.366,0.9-5.899,1.6c-1.066,0.4-1.851,0.717-2.351,0.95
				c-0.866,0.4-1.767,0.983-2.699,1.75l-0.101-0.7c-0.267,0.333-0.649,0.717-1.149,1.15c-0.567,0.533-0.95,0.9-1.15,1.1L466,44.2
				c-0.033,0.733-0.517,1.583-1.45,2.55c-1.133,1.133-1.8,1.917-2,2.35c-0.2-1.1-0.3-1.85-0.3-2.25c-0.033-0.9,0.083-1.667,0.35-2.3
				c-1.366,0.633-2.399,1.133-3.1,1.5c-1.167,0.6-2.066,1.25-2.7,1.95c0.101-0.7,0.533-1.517,1.3-2.45
				c0.601-0.767,1.267-1.45,2-2.05c-0.767,0.467-1.8,0.733-3.1,0.8c-0.066,0-1.167,0-3.3,0c1.3-0.267,2.733-0.816,4.3-1.65
				c-1.167,0.233-2.634,0.233-4.4,0c-1.733-0.233-3.166-0.617-4.3-1.15c0.134-0.067,0.384-0.25,0.75-0.55
				c-0.566-0.2-1.267-0.267-2.1-0.2c-0.934,0.133-1.634,0.233-2.101,0.3c0.267-0.1,0.733-0.35,1.4-0.75
				c-1.033-0.566-2.467-0.9-4.3-1c-2.066,0-3.566-0.066-4.5-0.2c0.467,0.7,1.416,1.316,2.85,1.85c-3.8,0.533-6.6,0.25-8.399-0.85
				c0.133,0.4,0.683,1.083,1.649,2.05c-0.892-0.094-1.608-0.327-2.149-0.7c0.298,0.349,0.531,0.766,0.699,1.25
				c-0.6-0.633-1.6-1.034-3-1.2c-1.533-0.2-2.517-0.467-2.949-0.8c0.166,0.167,0.533,0.55,1.1,1.15c0.533,0.566,0.95,0.85,1.25,0.85
				c-0.866,0.033-1.75-0.133-2.65-0.5c-0.899-0.333-1.649-0.8-2.25-1.4c0.034,0.2,0.233,0.95,0.601,2.25
				c-1.8-0.6-2.9-1.617-3.3-3.05c-0.034,0.667-0.517,1.25-1.45,1.75c-1.101,0.5-1.834,0.867-2.2,1.1
				c0.164-1.509,0.589-2.501,1.275-2.975c-0.906,0.591-2.281,1.199-4.125,1.825c-2.434,0.833-3.884,1.35-4.351,1.55
				c0.267-0.7,0.517-1.233,0.75-1.6c-0.333,0.133-0.783,0.417-1.35,0.85s-1.017,0.717-1.351,0.85c0-0.033,0.284-0.75,0.851-2.15
				c-1.967,1.566-4.367,2.617-7.2,3.15c1.366-0.934,2.066-1.417,2.1-1.45c-3.399,0.3-6.083,0.1-8.05-0.6
				c0.134,0.333,0.45,0.833,0.95,1.5c-2.971-0.99-5.487-2.548-7.55-4.675c0.1,0.537,0.149,1.062,0.149,1.575
				c-1.621-2.449-3.93-3.916-6.925-4.4c0.736,0.139,1.428,0.855,2.075,2.15c0.566,1.066,0.9,2.066,1,3
				c0.2,2.033-0.733,4.066-2.8,6.1c0.066-1.033-0.05-1.966-0.351-2.8c-0.399,0.7-1.033,1.65-1.899,2.85
				c-1.066,1.467-1.75,2.417-2.05,2.85c0.6-2.267,0.699-4.25,0.3-5.95c-2.033,1.967-4.101,3.183-6.2,3.65
				c0.134-0.2,0.283-0.55,0.45-1.05c-0.8,0.2-1.417,0.35-1.851,0.45c-0.699,0.2-1.283,0.434-1.75,0.7
				c0.733-0.733,1.184-1.467,1.351-2.2c-2.566,1.233-5.5,1.934-8.8,2.1c1.466-0.8,2.383-1.967,2.75-3.5
				c-0.301,0.167-1.467,0.533-3.5,1.1c-1.567,0.433-2.551,1.033-2.95,1.8c-0.367-0.566-0.601-1.033-0.7-1.4
				c-0.5,0.4-0.717,1.033-0.65,1.9c-0.333-1.066-1.35-1.8-3.05-2.2c-1.604-0.375-2.713-0.783-3.325-1.225
				c0.44,0.364,1.232,0.939,2.375,1.725c-0.833,0.1-1.899-0.033-3.199-0.4c-1.467-0.5-2.517-0.833-3.15-1
				c-2.9-0.733-5.05-1.917-6.45-3.55c0.2,0.5,0.634,1.133,1.3,1.9c0.801,1,1.284,1.617,1.45,1.85c-1.2-0.367-2.833-1.183-4.899-2.45
				c-2.134-1.333-3.75-2.184-4.851-2.55c-1.6-0.566-3.116-0.867-4.55-0.9c-1.891-0.064-3.29,0.353-4.2,1.25
				c1.2-1.247,2.367-2.097,3.5-2.55c-1.633,0.3-3.467,0.833-5.5,1.6c-2.333,1-4.1,1.733-5.3,2.2c-1.533,0.633-3.4,1.1-5.6,1.4
				c0.033-0.066,0.35-0.717,0.949-1.95c-0.433,0.1-1.133,0.383-2.1,0.85c-0.866,0.4-1.566,0.633-2.1,0.7
				c0.666-0.567,1.166-1.2,1.5-1.9c-1.967,0.733-3.434,1.283-4.4,1.65c-1.733,0.633-3.283,0.967-4.65,1
				c1.4-0.867,2.267-1.383,2.601-1.55c-1.867-0.233-3.667-0.75-5.4-1.55c-2.033-0.967-3.434-2.133-4.2-3.5
				c0.167,0.967,0.5,1.733,1,2.3c-1.433-0.5-3.25-1.75-5.449-3.75c-1.5-1.344-2.809-2.835-3.926-4.475
				c1.505,2.367,2.479,4.792,2.926,7.275c0.3,1.633,0.383,3.017,0.25,4.15c-0.034,0.4-0.217,1.133-0.551,2.2
				c-0.314,0.912-0.464,1.587-0.449,2.025c-0.103-1.825-0.219-3.05-0.351-3.675c-0.267-1.267-0.783-2.383-1.55-3.35
				c0.1,0.6,0.184,1.517,0.25,2.75c-0.4-1-1.45-1.934-3.15-2.8c-1.672-0.836-2.797-1.603-3.375-2.3
				c1.139,1.542,1.913,2.726,2.325,3.55c-1.333-0.367-2.75-1.25-4.25-2.65c-1.6-1.467-2.55-2.85-2.85-4.15
				c0.133,0.967,0.166,1.683,0.1,2.15c-0.467-0.566-1.233-1.233-2.3-2c-1.033-0.733-1.884-1.233-2.55-1.5
				c-0.467,0.3-0.684,0.817-0.65,1.55c0.033,1.233-0.066,2.316-0.3,3.25c-0.1,0.4-0.316,0.983-0.65,1.75
				c-0.333,0.767-0.55,1.333-0.649,1.7c-0.233-0.533-0.267-1.183-0.101-1.95c-0.533,1.433-1.216,2.733-2.05,3.9
				c0.134-0.434,0.184-0.983,0.15-1.65c-0.101-0.733-0.167-1.284-0.2-1.65c-0.033,1-0.85,2.233-2.45,3.7
				c-1.166,1.067-2.434,2-3.8,2.8c0.233-0.667,0.25-1.483,0.05-2.45c-1.1,1.066-1.916,1.883-2.45,2.45
				c-1,0.967-1.767,1.817-2.3,2.55l-0.675-1.8c-0.045,0.248-0.17,0.781-0.375,1.6c-0.2,0.667-0.3,1.233-0.3,1.7
				c-0.566-1.033-1.367-1.833-2.4-2.4c-0.6-0.3-1.717-0.684-3.35-1.15c1.033,1.1,1.866,1.867,2.5,2.3c-0.4-0.2-2.066-0.7-5-1.5
				c-1.95-0.526-3.425-1.251-4.425-2.175c0.175,0.21,0.367,0.535,0.575,0.975c-0.733-0.167-1.483-0.483-2.25-0.95
				c-0.581-0.363-1.056-0.755-1.425-1.175c0.407,0.555,0.898,1.297,1.475,2.225c-0.533-0.267-1.383-0.767-2.55-1.5
				c-1.1-0.7-1.95-1.2-2.55-1.5c-1.5-0.567-2.633-1.033-3.4-1.4c-1.367-0.633-2.267-1.417-2.7-2.35c0.3,0.767,0.75,1.6,1.35,2.5
				c-2.6-1.5-4.267-2.5-5-3c-1.933-1.3-3.367-2.617-4.3-3.95c0.067,0.667,0.5,1.967,1.3,3.9c-0.433-0.267-1.3-0.917-2.6-1.95
				c-1.067-0.833-1.967-1.45-2.7-1.85c-0.267-0.167-1.317-0.383-3.15-0.65c-1.8-0.3-2.7-0.433-2.7-0.4l1,2.05
				c-0.867-0.433-1.533-0.767-2-1c-0.767-0.467-1.25-1-1.45-1.6c-0.567,0.5-1.517,0.95-2.85,1.35c-1.467,0.434-2.467,0.817-3,1.15
				l0.95-0.95c-1.267,0.133-2.017,0.217-2.25,0.25c-0.833,0.167-1.533,0.467-2.1,0.9c0.333-0.633,0.983-1.25,1.95-1.85
				c-2.033,0.3-3.566,0.567-4.6,0.8c-1.8,0.466-3.15,1.167-4.05,2.1l-0.3-0.15c-0.167-0.5-0.15-1.3,0.05-2.4
				c-0.733,0.033-1.5,0.383-2.3,1.05c-0.7,0.6-1.233,1.25-1.6,1.95l-0.65-2.3c-0.4,1.167-0.633,1.917-0.7,2.25
				c-0.133,0.767-0.033,1.517,0.3,2.25c-0.233-0.233-0.633-0.733-1.2-1.5c-0.467-0.7-0.9-1.2-1.3-1.5
				c-0.133-0.1-0.816-0.517-2.05-1.25c-0.833-0.5-1.45-1.034-1.85-1.6c0.233,1.733,0.817,3.083,1.75,4.05
				c-1.2-0.367-2.233-1.267-3.1-2.7c-0.9-1.5-1.2-2.867-0.9-4.1c-0.2,0.533-0.55,1.367-1.05,2.5c-0.333,1.1-0.383,2.367-0.15,3.8
				c-0.934-2.033-1.184-3.967-0.75-5.8c0.267-1.2,0.917-2.567,1.95-4.1c0.967-1.333,1.717-2.3,2.25-2.9
				c0.494-0.527,0.985-0.968,1.475-1.325c-0.835,0.551-1.894,1.342-3.175,2.375c-1.867,1.533-3.55,2.333-5.05,2.4l0.25-0.4
				c-0.833,0.434-1.933,0.8-3.3,1.1c-1.567,0.267-2.733,0.483-3.5,0.65c0.5-0.2,0.967-0.517,1.4-0.95
				c0.167-0.167,0.533-0.617,1.1-1.35c-0.867,0.633-2.184,0.983-3.95,1.05c-1.967,0-3.35,0-4.15,0l1-0.5
				c-2.333-0.133-4.067,0.15-5.2,0.85c0.233-0.533,0.667-0.983,1.3-1.35c0.133-0.1,0.717-0.383,1.75-0.85
				c-2.467-0.066-4.7,0.367-6.7,1.3c-1.1,0.467-2,0.85-2.7,1.15c-1.292,0.563-2.091,1.029-2.4,1.4c0.138-0.173,0.338-0.456,0.6-0.85
				c-1.467,1-2.233,1.517-2.3,1.55c-0.3-0.5-0.333-1.267-0.1-2.3c-0.533,1-1.333,1.934-2.4,2.8c-1.233,1-2.35,1.533-3.35,1.6
				c-0.267-0.733-0.383-1.284-0.35-1.65c-0.9,1-1.417,1.767-1.55,2.3c-0.367-0.434-0.583-1.15-0.65-2.15
				c-1.034,1.1-1.85,1.9-2.45,2.4c-1.1,0.933-2.083,1.483-2.95,1.65c0.434-0.433,0.717-0.983,0.85-1.65
				c0.1-0.8,0.184-1.417,0.25-1.85c-0.433,1-0.783,1.717-1.05,2.15c-1.033-0.2-1.9-0.75-2.6-1.65l0.5,0.75
				c-0.933,0.167-1.633,0.2-2.1,0.1c-0.667-0.167-1.167-0.6-1.5-1.3l0.3,1.1c0.133,0.467,0.316,0.817,0.55,1.05
				c-0.433-0.367-1.483-0.934-3.15-1.7c-1.467-0.633-2.45-1.35-2.95-2.15c0.467,1.667,1.167,2.65,2.1,2.95
				c-1.867-0.4-3.15-0.767-3.85-1.1c-1.4-0.667-2.3-1.633-2.7-2.9c-0.667,0.8-1.167,1.333-1.5,1.6c-0.6,0.5-0.767,0.15-0.5-1.05
				c-1,0.367-1.8,0.8-2.4,1.3c-0.066-0.767,0.184-1.383,0.75-1.85c-0.5,0.167-1.5,0.267-3,0.3c-1.167,0.033-2.083,0.3-2.75,0.8
				c0.267-1.133,0.6-1.8,1-2c-1.3,0.033-2.367,0.317-3.2,0.85c-0.967,0.8-1.85,1.45-2.65,1.95c1.333,0.667,2.066,1,2.2,1
				c-1.6-0.067-3.167,0.216-4.7,0.85c0.733,0.3,1.333,0.7,1.8,1.2c-0.4-0.233-1.05-0.367-1.95-0.4c-0.9-0.067-1.566,0-2,0.2
				c-0.3,0.167-0.65,0.534-1.05,1.1c-0.467,0.667-0.767,1.067-0.9,1.2c0.033-0.467,0.083-0.817,0.15-1.05
				c-0.733,0.6-1.283,1.083-1.65,1.45c-0.667,0.633-0.967,1.2-0.9,1.7c-0.267-0.267-0.45-0.534-0.55-0.8
				c-0.1,0.3-0.316,0.767-0.65,1.4c-0.333,0.6-0.55,1.067-0.65,1.4c-0.333-0.467-0.5-1.05-0.5-1.75c-0.967,1.267-1.65,2.7-2.05,4.3
				c-0.8-0.7-1.133-1.783-1-3.25c-0.233,0.5-1.2,1.25-2.9,2.25c-1.566,0.9-2.367,1.617-2.4,2.15c-0.067-0.733-0.083-1.283-0.05-1.65
				c-0.934,1.067-1.417,1.95-1.45,2.65c-0.467-1.267-0.683-2.233-0.65-2.9c-0.1,0.4-0.317,0.833-0.65,1.3
				c-0.867,0.867-1.5,1.534-1.9,2c-0.767,0.8-1.167,1.583-1.2,2.35c-0.2-0.667-0.533-1.983-1-3.95c-0.6,1.1-0.85,2.3-0.75,3.6
				c-0.167-0.3-0.383-0.85-0.65-1.65c-0.267-0.733-0.5-1.267-0.7-1.6c0.1,0.633,0.067,1.75-0.1,3.35c-0.133,1.467-0.1,2.567,0.1,3.3
				c-0.5-1.1-1.35-2.633-2.55-4.6c-1.2-2.033-2.05-3.567-2.55-4.6c-0.066,1.7,0.333,3.783,1.2,6.25c-2.733-3.967-3.8-7.35-3.2-10.15
				c-0.6,1.433-0.75,2.85-0.45,4.25c-0.9-1.567-0.983-3.533-0.25-5.9c0.6-2.067,1.6-3.833,3-5.3c-1.5,0.434-2.617,0.783-3.35,1.05
				c-1.233,0.466-2.167,1.133-2.8,2c-0.033-0.867,0.184-1.7,0.65-2.5c-0.467,0.767-1.333,1.8-2.6,3.1
				c-1.233,1.267-2.1,2.317-2.6,3.15c-0.067-0.667-0.033-1.25,0.1-1.75c-1.233,1.867-2,3.117-2.3,3.75l-0.05-3.3
				c-0.133,1.2-0.867,2.4-2.2,3.6c-1.667,1.467-2.667,2.5-3,3.1l-0.1-1.8c-0.133,0.934-0.784,2.1-1.95,3.5
				c-1.133,1.3-1.7,2.4-1.7,3.3c-0.4-1.267-0.316-2.55,0.25-3.85c0.667-1.133,1.017-1.833,1.05-2.1c-0.4,0.833-1.367,2.017-2.9,3.55
				c-1.2,1.433-1.567,2.867-1.1,4.3c-0.434-0.667-0.833-1.717-1.2-3.15c-0.3-1.2-0.517-2.317-0.65-3.35
				c-0.333,0.3-0.483,0.817-0.45,1.55c0,0.867-0.1,1.467-0.3,1.8c-0.533-0.867-1.417-1.633-2.65-2.3c-1.4-0.633-2.4-1.1-3-1.4
				c0.267,0.233,0.683,0.617,1.25,1.15c0.5,0.5,0.85,0.967,1.05,1.4c-0.467-0.467-1.6-0.917-3.4-1.35
				c-1.733-0.434-2.917-1.033-3.55-1.8c0.267,0.9,0.083,1.217-0.55,0.95c-0.566-0.2-1.033-0.567-1.4-1.1
				c0,0.767,0.35,1.75,1.05,2.95c-1.233-1.167-2.233-1.95-3-2.35c-0.466-0.233-1.133-0.5-2-0.8c-0.966-0.3-1.65-0.55-2.05-0.75
				c0.533,1.133,1.183,1.95,1.95,2.45c-1-0.1-1.95-0.383-2.85-0.85c-1.033-0.5-1.8-1.133-2.3-1.9c-0.167,0.367-0.167,0.783,0,1.25
				c0.133,0.267,0.383,0.7,0.75,1.3c-0.9-0.434-2.033-1.383-3.4-2.85c-0.433-0.533-0.783-0.917-1.05-1.15
				c-0.434-0.434-0.85-0.684-1.25-0.75c0.1,0.933,0.65,1.767,1.65,2.5c-1.167,0-2.4-0.383-3.7-1.15
				c-1.566-0.867-2.533-1.35-2.9-1.45c0.367,0.467,0.833,0.833,1.4,1.1c-3.233-0.067-5.4-0.6-6.5-1.6c0.1,0.1,0.367,0.433,0.8,1
				c0.343,0.437,0.626,0.712,0.85,0.825c-1.186-0.552-2.536-0.927-4.05-1.125c-0.167-0.033-0.767-0.033-1.8,0
				c-1.033,0-1.7,0.017-2,0.05c-0.167-5.833-0.117-11,0.15-15.5c14.167,5.667,31.65,7.167,52.45,4.5
				c11.933-1.533,29.367-4.9,52.3-10.1c22.5-4.167,43.733-6.733,63.7-7.7c22.333-1.066,43.683-0.2,64.05,2.6
				c36.4,4.967,67.15,8.233,92.25,9.8c32.767,2.066,63.783,1.933,93.05-0.4c6.8-0.533,15.483,0.05,26.05,1.75
				c13.167,2.1,21.9,3.267,26.2,3.5C474.55,28,479.884,26.9,486.55,24.5z"/>
			<path style="fill-rule:evenodd;clip-rule:evenodd;fill:#3E9A9D;" d="M488.25,22.55c1.6-0.1,3-0.1,4.2,0L492.4,34.8
				c-0.7,0.034-1.417,0-2.15-0.1c-0.9-0.1-1.467-0.15-1.7-0.15c-3.566-0.167-7.3,0.05-11.2,0.65c-2.233,0.3-5.916,1-11.05,2.1
				c-3.133,0.667-6.533,0.617-10.2-0.15c-4.166-1.167-7.383-2-9.649-2.5c-1.7-0.4-3.434-0.55-5.2-0.45
				c-1.233,0.066-2.967,0.316-5.2,0.75c-4.866,0.933-10.583,0.767-17.149-0.5c-2.767-0.5-4.2-0.75-4.301-0.75
				c-1.333-0.133-2.75,0-4.25,0.4c-0.466,0.133-1.783,0.633-3.949,1.5c-1.567,0.633-3.017,0.983-4.351,1.05
				c-3.366,0.133-7.05-0.333-11.05-1.4c-2.934-0.767-6.434-1.983-10.5-3.65c1.733,5-1.134,7.767-8.6,8.3
				c-7.334,0.533-16.634-1.217-27.9-5.25c-3.9-1.4-6.434-2.267-7.6-2.6c-2.967-0.833-5.601-1.2-7.9-1.1
				c-1.866,0.1-4.033,0.617-6.5,1.55c-2.8,1-5.033,1.617-6.7,1.85c-5.633,0.8-11.633,0.45-18-1.05c-2.233-0.533-4.767-1.45-7.6-2.75
				c-3.642-1.655-5.708-3.164-6.2-4.525c0.793,2.42,0.344,4.062-1.35,4.925c-1.567,0.8-3.617,0.7-6.15-0.3
				c-2.967-1.167-6.3-3.367-10-6.6c-1.366-1.267-2.184-2-2.45-2.2c-0.3-0.267-0.133,0.017,0.5,0.85
				c1.101,1.433,1.851,2.75,2.25,3.95c0.566,1.8,0.483,3.583-0.25,5.35c-1.366,3.267-4.733,5.333-10.1,6.2
				c-3.434,0.533-7.267,0.55-11.5,0.05c-2.967-0.367-6.434-1.433-10.4-3.2c-4.4-2.133-7.75-3.65-10.05-4.55
				c-4.367-1.7-10.15-2.417-17.35-2.15c-8.1,0.3-13.833,0.05-17.2-0.75c-3.833-0.9-5.434-2.35-4.8-4.35
				c0.533-1.733,2.367-3.367,5.5-4.9c-1.367,0.133-3.983,0.85-7.85,2.15c-3.966,1.3-7.4,2.133-10.3,2.5
				c-2.5,0.3-6.717,0.117-12.65-0.55c-5.5-0.633-9.684-0.667-12.55-0.1c-4.566,1.033-7.966,1.75-10.2,2.15
				c-3.833,0.7-7.25,1.067-10.25,1.1c-1.434,0-4.533-0.45-9.3-1.35c-3.933-0.767-6.983-0.883-9.15-0.35
				c-2.767,0.7-6.05,2.417-9.85,5.15c-4.733,3.4-7.85,5.467-9.35,6.2c-1.133,0.567-2.383,1.033-3.75,1.4
				c-3,0.833-5.934,1.117-8.8,0.85c-4-0.4-5.9-2.017-5.7-4.85c0.1-1.7,1.316-3.267,3.65-4.7c1.266-0.772,2.516-1.348,3.75-1.725
				c-1.585,0.304-3.585,0.612-6,0.925c-3.167,0.434-5.833,0.983-8,1.65c-2.633,0.867-5.45,2.6-8.45,5.2
				c-1.5,1.367-2.617,2.333-3.35,2.9c-1.167,0.867-2.566,1.583-4.2,2.15c-1.8,0.633-3.767,0.817-5.9,0.55
				c-1-0.1-2.733-0.483-5.2-1.15c-7.2-1.9-13.333-3.117-18.4-3.65c-5.4-0.566-11.417-0.6-18.05-0.1c0.034-5.8,0.05-9.867,0.05-12.2
				c9.767,0.533,29.433-1.3,59-5.5c12.6-1.8,36.833-5.583,72.7-11.35c36.1-5.8,75.367-7.15,117.8-4.05
				c12.567,0.9,28.4,2.467,47.5,4.7c18.967,2.233,31.584,3.567,37.851,4c9.166,0.633,33.866,3.15,74.1,7.55
				c30.101,3.267,55.101,4.917,75,4.95C484.833,22.8,486.15,22.717,488.25,22.55z"/>
			<path style="fill-rule:evenodd;clip-rule:evenodd;fill:#3E9A9D;" d="M256.25,39.65c1.366-0.133,2.384,0.083,3.05,0.65
				c0.8,0.633,0.167,1.4-1.899,2.3c-2.167,0.933-4.267,1.25-6.301,0.95c-1.899-0.267-2.85-0.85-2.85-1.75
				c0-0.733,0.983-1.283,2.95-1.65C252.134,39.983,253.816,39.817,256.25,39.65z"/>
			<path style="fill-rule:evenodd;clip-rule:evenodd;fill:#3E9A9D;" d="M243.6,39.4c1.467,0.533,2.083,1.1,1.85,1.7
				c-0.233,0.667-0.867,1.017-1.9,1.05c-0.966,0.033-2-0.25-3.1-0.85c-1.1-0.6-1.7-1.133-1.8-1.6c-0.133-0.5,0.3-0.8,1.3-0.9
				C241.017,38.7,242.233,38.9,243.6,39.4z"/>
			<path style="fill-rule:evenodd;clip-rule:evenodd;fill:#3E9A9D;" d="M154.05,24.35c-0.3,0.6-1.1,1.033-2.4,1.3
				c-0.167,0.033-1.25,0.15-3.25,0.35c-1.2,0.133-2.2,0.017-3-0.35c-0.9-0.433-0.767-1.033,0.4-1.8c1.7-1.1,3.633-1.533,5.8-1.3
				C153.667,22.817,154.483,23.417,154.05,24.35z"/>
			<path style="fill-rule:evenodd;clip-rule:evenodd;fill:#3E9A9D;" d="M111.55,24.35c1.7,0.267,2.317,0.733,1.85,1.4
				c-0.467,0.633-1.633,0.833-3.5,0.6c-1.8-0.233-2.267-0.667-1.4-1.3C109.333,24.383,110.35,24.15,111.55,24.35z"/>
			<path style="fill-rule:evenodd;clip-rule:evenodd;fill:#3E9A9D;" d="M26.45,36.95c1.5,0.233,2.55,0.45,3.15,0.65
				c0.933,0.333,1.433,0.783,1.5,1.35c0.1,0.667-0.483,0.983-1.75,0.95c-1.2-0.033-2.717-0.35-4.55-0.95
				c-1.6-0.534-2.033-1.05-1.3-1.55C24.2,36.933,25.183,36.783,26.45,36.95z"/>
			<path style="fill-rule:evenodd;clip-rule:evenodd;fill:#3E9A9D;" d="M53.9,36.8c0.934-0.3,1.25-0.183,0.95,0.35
				c-0.267,0.533-0.817,1.033-1.65,1.5c-0.767,0.434-1.05,0.3-0.85-0.4C52.55,37.55,53.067,37.067,53.9,36.8z"/>
			<path style="fill-rule:evenodd;clip-rule:evenodd;fill:#3E9A9D;" d="M329.35,32c2,0.5,2.551,1.183,1.65,2.05
				s-2.45,1.167-4.65,0.9c-2.033-0.233-2.399-0.867-1.1-1.9C326.583,32.017,327.95,31.667,329.35,32z"/>
			<path style="fill-rule:evenodd;clip-rule:evenodd;fill:#3E9A9D;" d="M335.65,32.8c1.366,0.467,1.883,0.917,1.55,1.35
				c-0.367,0.434-1.15,0.483-2.351,0.15c-1.166-0.333-1.6-0.75-1.3-1.25C333.85,32.517,334.55,32.433,335.65,32.8z"/>
			<path style="fill-rule:evenodd;clip-rule:evenodd;fill:#3E9A9D;" d="M412.75,34.8c2.1,0.067,2.783,0.583,2.05,1.55
				c-0.767,0.967-2.1,1.45-4,1.45c-1.733,0-2.149-0.517-1.25-1.55C410.45,35.217,411.517,34.733,412.75,34.8z"/>
			<path style="fill-rule:evenodd;clip-rule:evenodd;fill:#3E9A9D;" d="M442.85,34.65c1.2-0.1,1.684,0.15,1.45,0.75
				s-0.833,0.9-1.8,0.9c-0.934,0-1.384-0.25-1.35-0.75C441.184,35.017,441.75,34.717,442.85,34.65z"/>
		</g>
	</g>
</g>
</svg>
