<?xml version="1.0" encoding="iso-8859-1"?>
<!-- Generator: Adobe Illustrator 15.1.0, SVG Export Plug-In . SVG Version: 6.00 Build 0)  -->
<!DOCTYPE svg PUBLIC "-//W3C//DTD SVG 1.1//EN" "http://www.w3.org/Graphics/SVG/1.1/DTD/svg11.dtd">
<svg version="1.1" id="Layer_3" xmlns="http://www.w3.org/2000/svg" xmlns:xlink="http://www.w3.org/1999/xlink" x="0px" y="0px"
	 width="159.65px" height="41.75px" viewBox="0 0 159.65 41.75" style="enable-background:new 0 0 159.65 41.75;"
	 xml:space="preserve">
<g>
	
		<linearGradient id="SVGID_1_" gradientUnits="userSpaceOnUse" x1="-43.7778" y1="80.377" x2="25.3284" y2="80.377" gradientTransform="matrix(0.0134 -0.9999 0.9999 0.0134 -2.409210e-004 3.699958e-005)">
		<stop  offset="0.0235" style="stop-color:#2B1736"/>
		<stop  offset="0.2275" style="stop-color:#2E1A37"/>
		<stop  offset="0.3804" style="stop-color:#38233B"/>
		<stop  offset="0.5176" style="stop-color:#483242"/>
		<stop  offset="0.6431" style="stop-color:#5F474C"/>
		<stop  offset="0.7608" style="stop-color:#7C6258"/>
		<stop  offset="0.7922" style="stop-color:#856B5C"/>
		<stop  offset="1" style="stop-color:#9CBAB5"/>
	</linearGradient>
	<path style="fill-rule:evenodd;clip-rule:evenodd;fill:url(#SVGID_1_);" d="M125.6,22.8c0.9-0.399,2.584-1.217,5.051-2.45
		c2-0.867,4.649-0.35,7.949,1.55c2.367,1.399,5.25,3.666,8.65,6.8c3.634,3.366,7.767,7.717,12.4,13.05H0
		c0.6-4,6.817-9.05,18.65-15.15c12.1-6.2,20.65-10.85,25.65-13.95c6.633-4.066,10.6-6.433,11.9-7.1
		c4.833-2.533,9.566-4.25,14.2-5.15c4.934-0.967,10.234-0.133,15.9,2.5c4.367,2.033,9.851,5.667,16.45,10.9
		c4.833,3.8,8.783,6.434,11.85,7.9c2.2,1.1,4.384,1.717,6.551,1.85C122.684,23.684,124.167,23.434,125.6,22.8z"/>
	
		<linearGradient id="SVGID_2_" gradientUnits="userSpaceOnUse" x1="-45.2456" y1="78.7979" x2="37.5801" y2="78.7979" gradientTransform="matrix(-0.0042 -1 1 -0.0042 -6.966107e-005 3.687106e-005)">
		<stop  offset="0.0235" style="stop-color:#2B1736"/>
		<stop  offset="0.2431" style="stop-color:#2D1A38"/>
		<stop  offset="0.4078" style="stop-color:#33243C"/>
		<stop  offset="0.5529" style="stop-color:#3E3444"/>
		<stop  offset="0.6902" style="stop-color:#4D4B50"/>
		<stop  offset="0.8157" style="stop-color:#60685E"/>
		<stop  offset="0.8314" style="stop-color:#626B60"/>
		<stop  offset="1" style="stop-color:#9CBAB5"/>
	</linearGradient>
	<path style="fill-rule:evenodd;clip-rule:evenodd;fill:url(#SVGID_2_);" d="M127.05,30.45c2.5-0.334,4.184-0.467,5.05-0.4
		c1.934,0.134,3.784,0.867,5.551,2.2c2.699,2.033,5.899,5.2,9.6,9.5H10.7c0.433-2.2,3.017-4.967,7.75-8.3
		c3.8-2.667,9.583-6.084,17.35-10.25c4.6-2.467,10.917-6.383,18.95-11.75C61.683,7.283,67.833,5.2,73.2,5.2
		c6.1,0,13.7,3.15,22.8,9.45c4.733,3.267,9.917,7.267,15.55,12c2.267,1.566,5.05,2.683,8.351,3.35
		C122.6,30.533,124.983,30.684,127.05,30.45z"/>
	
		<linearGradient id="SVGID_3_" gradientUnits="userSpaceOnUse" x1="-52.9014" y1="76.5" x2="7.3486" y2="76.5" gradientTransform="matrix(1.659751e-005 -1 1 -0.001 -1.100060e-004 -1.019506e-004)">
		<stop  offset="0.0235" style="stop-color:#2B1736"/>
		<stop  offset="0.2275" style="stop-color:#2E1A37"/>
		<stop  offset="0.3804" style="stop-color:#38233B"/>
		<stop  offset="0.5176" style="stop-color:#483242"/>
		<stop  offset="0.6431" style="stop-color:#5F474C"/>
		<stop  offset="0.7608" style="stop-color:#7C6258"/>
		<stop  offset="0.7922" style="stop-color:#856B5C"/>
		<stop  offset="1" style="stop-color:#9CBAB5"/>
	</linearGradient>
	<path style="fill-rule:evenodd;clip-rule:evenodd;fill:url(#SVGID_3_);" d="M113.35,34.2c2.7,1.866,7.7,4.383,15,7.55H24.65
		c0.7-0.866,1.867-2.017,3.5-3.45c3.233-2.866,7.184-5.767,11.85-8.7c11.4-7.1,19.017-11.7,22.85-13.8
		c2.967-1.633,6.5-2.45,10.6-2.45c5.6,0,11.083,1.7,16.45,5.1c5.1,3.2,10.017,6.434,14.75,9.7
		C107.217,29.917,110.116,31.934,113.35,34.2z"/>
</g>
</svg>
