<?xml version="1.0" encoding="iso-8859-1"?>
<!-- Generator: Adobe Illustrator 15.1.0, SVG Export Plug-In . SVG Version: 6.00 Build 0)  -->
<!DOCTYPE svg PUBLIC "-//W3C//DTD SVG 1.1//EN" "http://www.w3.org/Graphics/SVG/1.1/DTD/svg11.dtd">
<svg version="1.1" id="Layer_3" xmlns="http://www.w3.org/2000/svg" xmlns:xlink="http://www.w3.org/1999/xlink" x="0px" y="0px"
	 width="92.4px" height="22.7px" viewBox="0 0 92.4 22.7" style="enable-background:new 0 0 92.4 22.7;" xml:space="preserve">
<linearGradient id="SVGID_1_" gradientUnits="userSpaceOnUse" x1="-23.0708" y1="46.4385" x2="33.4574" y2="46.4385" gradientTransform="matrix(0.0106 -0.9999 0.9999 0.0106 3.845803e-004 -3.987625e-004)">
	<stop  offset="0.0235" style="stop-color:#2B1736"/>
	<stop  offset="0.1843" style="stop-color:#2D1A38"/>
	<stop  offset="0.3059" style="stop-color:#33243C"/>
	<stop  offset="0.4157" style="stop-color:#3E3444"/>
	<stop  offset="0.5137" style="stop-color:#4D4B50"/>
	<stop  offset="0.6078" style="stop-color:#60685E"/>
	<stop  offset="0.6196" style="stop-color:#626B60"/>
	<stop  offset="1" style="stop-color:#9CBAB5"/>
</linearGradient>
<path style="fill-rule:evenodd;clip-rule:evenodd;fill:url(#SVGID_1_);" d="M81.9,12.35c1.1,0.7,2.733,2.134,4.899,4.301
	c1.233,1.233,2.15,2.199,2.75,2.899c1.667,1.8,2.617,2.851,2.851,3.15c-0.634,0.033-31.434,0.033-92.4,0
	c0.967-1.767,2.967-3.533,6-5.3c2.7-1.634,7.1-3.95,13.2-6.95c6.667-3.3,11.667-5.883,15-7.75c4.733-2.667,9.383-3.35,13.95-2.05
	c3.366,0.967,7.767,3.5,13.199,7.6c1.967,1.467,3.667,2.567,5.101,3.3c2.333,1.134,4.416,1.566,6.25,1.3
	c0.533-0.1,1.184-0.366,1.95-0.8c0.8-0.466,1.416-0.75,1.85-0.85C78.233,10.8,80.033,11.183,81.9,12.35z"/>
</svg>
