<?xml version="1.0" encoding="iso-8859-1"?>
<!-- Generator: Adobe Illustrator 15.1.0, SVG Export Plug-In . SVG Version: 6.00 Build 0)  -->
<!DOCTYPE svg PUBLIC "-//W3C//DTD SVG 1.1//EN" "http://www.w3.org/Graphics/SVG/1.1/DTD/svg11.dtd">
<svg version="1.1" id="Layer_3" xmlns="http://www.w3.org/2000/svg" xmlns:xlink="http://www.w3.org/1999/xlink" x="0px" y="0px"
	 width="640.35px" height="102.6px" viewBox="0 0 640.35 102.6" style="enable-background:new 0 0 640.35 102.6;"
	 xml:space="preserve">
<path style="fill-rule:evenodd;clip-rule:evenodd;fill:#3E9A9D;" d="M639.6,56.2c1.2,8.066,0.967,15.833-0.699,23.3
	c-2.233,10-6.784,16.167-13.65,18.5c-3.333,1.134-7.9,1.483-13.7,1.05c-6.5-0.8-11.133-1.316-13.899-1.55
	c-18.801-1.533-34.9-1.5-48.301,0.1c-9.5,1.167-17.316,1.801-23.449,1.9c-8.167,0.167-15.967-0.467-23.4-1.9
	c-8.167-1.533-17.884-1.75-29.15-0.649c-6.199,0.733-10.883,1.25-14.05,1.55c-5.6,0.6-10.533,0.917-14.8,0.95
	c-5.267,0.033-12.3-0.316-21.1-1.05c-10.367-0.9-17.4-1.417-21.101-1.551c-4.866-0.199-11.1,0.134-18.7,1
	c-9.566,1.101-15.767,1.717-18.6,1.851c-5.934,0.3-12.634,0.233-20.1-0.2c-3.233-0.2-9.9-0.733-20-1.6
	c-4.667-0.4-10.034-0.351-16.101,0.149c-7.066,0.8-12.417,1.384-16.05,1.75c-5.867,0.634-12.6,0.65-20.2,0.05
	c-8.833-0.933-15.517-1.633-20.05-2.1c-6.067-0.6-12.75-0.483-20.05,0.35c-8.434,1.2-14.934,2.084-19.5,2.65
	c-13.6,1.7-30.4,2.217-50.4,1.55c-22.5-1.133-39.333-1.8-50.5-2c-4.5-0.1-11.533,0.084-21.1,0.55
	c-11,0.567-18.917,0.834-23.75,0.801c-8.767-0.034-16.367-0.7-22.8-2C17.833,94.184,3.25,84.116,0.65,69.45
	c-1.7-9.5,0.05-19.367,5.25-29.6c5.133-10.133,12.333-18.033,21.6-23.7C38.267,9.583,50.317,5.467,63.65,3.8
	c12.1-1.5,24.633-0.933,37.6,1.7c10.967,2.233,24,2.483,39.1,0.75c3.767-0.433,10.25-1.333,19.45-2.7
	c8.367-1.267,14.95-2.133,19.75-2.6c10.633-1.067,22.684-0.867,36.15,0.6c2.733,0.3,14.683,2.017,35.85,5.15
	c26.9,4.066,50.017,5.867,69.351,5.4c4.899-0.133,13.5-1.583,25.8-4.35C357.6,5.317,366.25,4.4,372.65,5
	c7,0.667,16.816,1.917,29.449,3.75c11.101,1.3,20.95,1.517,29.551,0.65C442.384,8.333,457.5,5.8,477,1.8
	c17.233-2.667,32.533-2.333,45.9,1c7.232,1.833,18.3,3.2,33.199,4.1c14.667,0.867,25.533,2.233,32.601,4.1
	c13.5,3.567,24.717,9.033,33.649,16.4C632.184,35.6,637.934,45.2,639.6,56.2z"/>
</svg>
