<?xml version="1.0" encoding="iso-8859-1"?>
<!-- Generator: Adobe Illustrator 15.1.0, SVG Export Plug-In . SVG Version: 6.00 Build 0)  -->
<!DOCTYPE svg PUBLIC "-//W3C//DTD SVG 1.1//EN" "http://www.w3.org/Graphics/SVG/1.1/DTD/svg11.dtd">
<svg version="1.1" id="Layer_3" xmlns="http://www.w3.org/2000/svg" xmlns:xlink="http://www.w3.org/1999/xlink" x="0px" y="0px"
	 width="198px" height="120.75px" viewBox="0 0 198 120.75" style="enable-background:new 0 0 198 120.75;" xml:space="preserve">
<symbol  id="flash0.ai_x2F_Layer_3_x2F__x3C_Path_x3E_" viewBox="0.005 -3.355 3.64 3.36">
	<g id="Layer_1_30_">
		
			<radialGradient id="SVGID_1_" cx="-3315.3105" cy="-9316.0313" r="1.4777" gradientTransform="matrix(0.6284 -0.7779 -1.0351 -0.8363 -7557.8555 -10371.2266)" gradientUnits="userSpaceOnUse">
			<stop  offset="0" style="stop-color:#FFFFFF"/>
			<stop  offset="0.0745" style="stop-color:#F8F8F8;stop-opacity:0.9686"/>
			<stop  offset="0.1843" style="stop-color:#E4E4E4;stop-opacity:0.8824"/>
			<stop  offset="0.3137" style="stop-color:#C4C3C4;stop-opacity:0.7412"/>
			<stop  offset="0.4588" style="stop-color:#979697;stop-opacity:0.549"/>
			<stop  offset="0.6196" style="stop-color:#5D5C5D;stop-opacity:0.298"/>
			<stop  offset="0.7922" style="stop-color:#181618;stop-opacity:0"/>
			<stop  offset="0.7922" style="stop-color:#171517;stop-opacity:0"/>
		</radialGradient>
		<path style="fill-rule:evenodd;clip-rule:evenodd;fill:url(#SVGID_1_);" d="M2.75-2.8c-0.433-0.333-0.9-0.517-1.4-0.55
			c-0.467-0.033-0.833,0.1-1.1,0.4c-0.233,0.333-0.3,0.733-0.2,1.2c0.133,0.433,0.417,0.833,0.85,1.2C1.333-0.217,1.8-0.033,2.3,0
			c0.467,0.033,0.833-0.1,1.1-0.4c0.233-0.333,0.3-0.733,0.2-1.2C3.467-2.033,3.183-2.433,2.75-2.8z"/>
	</g>
</symbol>
<symbol  id="flash0.ai_x2F_Layer_3_x2F__x3C_Path_x3E__x5F_0" viewBox="0.043 -5.773 5.669 5.777">
	<g id="Layer_1_52_">
		<path style="fill-rule:evenodd;clip-rule:evenodd;fill:#1F1A1C;" d="M0.3-4.8C0.1-4.6,0.017-4.033,0.05-3.1
			c0,0.867,0.067,1.45,0.2,1.75C0.317-1.15,0.733-0.867,1.5-0.5S2.8,0.033,3.1,0c0.133-0.033,0.583-0.417,1.35-1.15
			c0.767-0.767,1.183-1.233,1.25-1.4C5.767-2.817,5.533-3.383,5-4.25C4.467-5.05,4.067-5.533,3.8-5.7
			C3.567-5.833,2.967-5.783,2-5.55C1.067-5.283,0.5-5.033,0.3-4.8z"/>
	</g>
</symbol>
<symbol  id="flash0.ai_x2F_Layer_3_x2F__x3C_Path_x3E__x5F_1" viewBox="-0.002 -13.811 7.754 13.821">
	<g id="Layer_1_2_">
		
			<radialGradient id="SVGID_2_" cx="-633.6611" cy="-706.2163" r="7.4627" gradientTransform="matrix(0.9966 -0.0822 -0.1405 -1.7035 538.4473 -1269.168)" gradientUnits="userSpaceOnUse">
			<stop  offset="0" style="stop-color:#43485A"/>
			<stop  offset="0.4314" style="stop-color:#3D2940"/>
			<stop  offset="0.6" style="stop-color:#2D212F"/>
			<stop  offset="0.8314" style="stop-color:#1D181D"/>
			<stop  offset="1" style="stop-color:#171517"/>
		</radialGradient>
		<path style="fill-rule:evenodd;clip-rule:evenodd;fill:url(#SVGID_2_);" d="M7.7-7.2C7.567-9.133,7.067-10.733,6.2-12
			c-0.867-1.3-1.833-1.9-2.9-1.8c-1.066,0.066-1.917,0.816-2.55,2.25c-0.633,1.4-0.867,3.05-0.7,4.95
			C0.217-4.667,0.733-3.067,1.6-1.8C2.433-0.5,3.383,0.1,4.45,0C5.517-0.067,6.367-0.817,7-2.25C7.633-3.65,7.867-5.3,7.7-7.2z"/>
	</g>
</symbol>
<symbol  id="flash0.ai_x2F_Layer_3_x2F__x3C_Path_x3E__x5F_10" viewBox="0.031 -7.9 8.083 7.9">
	<g id="Layer_1_42_">
		<path style="fill-rule:evenodd;clip-rule:evenodd;fill:#1F1A1C;" d="M7.6-2.9C8-4.333,8.167-5.183,8.1-5.45
			C8-5.85,7.333-6.367,6.1-7C4.9-7.6,4.067-7.9,3.6-7.9c-0.367,0-1.033,0.483-2,1.45c-0.934,0.967-1.45,1.667-1.55,2.1
			c-0.1,0.367,0.2,1.1,0.9,2.2C1.55-1.217,2.033-0.567,2.4-0.2C2.6,0,3.283,0.05,4.45-0.05c1.167-0.1,1.933-0.267,2.3-0.5
			C6.917-0.683,7.2-1.467,7.6-2.9z"/>
	</g>
</symbol>
<symbol  id="flash0.ai_x2F_Layer_3_x2F__x3C_Path_x3E__x5F_11" viewBox="-0.03 -17.883 18.33 17.871">
	<g id="Layer_1_41_">
		<path style="fill-rule:evenodd;clip-rule:evenodd;fill:#1F1A1C;" d="M12.85-0.25c0.433-0.167,1.45-1.733,3.05-4.7
			c1.6-2.966,2.4-4.733,2.4-5.3c0-0.867-1.2-2.317-3.6-4.35c-2.3-1.933-3.934-3.017-4.9-3.25c-0.833-0.2-2.533,0.517-5.1,2.15
			c-2.534,1.567-4.05,2.817-4.55,3.75c-0.4,0.767-0.133,2.517,0.8,5.25c0.833,2.434,1.566,4.1,2.2,5c0.367,0.534,1.867,1,4.5,1.4
			C10.283,0.067,12.017,0.083,12.85-0.25z"/>
	</g>
</symbol>
<symbol  id="flash0.ai_x2F_Layer_3_x2F__x3C_Path_x3E__x5F_12" viewBox="0.01 -13.32 13.64 13.358">
	<g id="Layer_1_40_">
		<path style="fill-rule:evenodd;clip-rule:evenodd;fill:#1F1A1C;" d="M11.85-3.65c1.2-2.167,1.8-3.467,1.8-3.9
			c0-0.667-0.9-1.767-2.7-3.3c-1.667-1.433-2.867-2.25-3.6-2.45c-0.633-0.133-1.9,0.4-3.8,1.6c-1.9,1.167-3.033,2.1-3.4,2.8
			c-0.3,0.566-0.117,1.883,0.55,3.95c0.633,1.833,1.183,3.067,1.65,3.7c0.267,0.4,1.367,0.75,3.3,1.05
			c1.967,0.3,3.267,0.317,3.9,0.05C9.883-0.283,10.65-1.45,11.85-3.65z"/>
	</g>
</symbol>
<symbol  id="flash0.ai_x2F_Layer_3_x2F__x3C_Path_x3E__x5F_13" viewBox="0.021 -9.1 9.292 9.073">
	<g id="Layer_1_39_">
		<path style="fill-rule:evenodd;clip-rule:evenodd;fill:#1F1A1C;" d="M7.75-0.65c0.2-0.167,0.533-1.067,1-2.7
			C9.183-5.017,9.367-6,9.3-6.3C9.2-6.733,8.433-7.317,7-8.05C5.6-8.75,4.65-9.1,4.15-9.1c-0.433,0-1.2,0.55-2.3,1.65
			C0.783-6.35,0.183-5.533,0.05-5c-0.133,0.433,0.2,1.267,1,2.5c0.7,1.133,1.267,1.883,1.7,2.25c0.267,0.233,1.067,0.283,2.4,0.15
			C6.517-0.2,7.383-0.383,7.75-0.65z"/>
	</g>
</symbol>
<symbol  id="flash0.ai_x2F_Layer_3_x2F__x3C_Path_x3E__x5F_14" viewBox="-0.017 -9.05 9.33 9.073">
	<g id="Layer_1_38_">
		<path style="fill-rule:evenodd;clip-rule:evenodd;fill:#1F1A1C;" d="M5.1-0.05c1.367-0.1,2.25-0.284,2.65-0.55
			C7.917-0.733,8.233-1.65,8.7-3.35c0.466-1.667,0.667-2.633,0.6-2.9C9.2-6.683,8.417-7.267,6.95-8c-1.367-0.7-2.3-1.05-2.8-1.05
			C3.683-9.05,2.9-8.5,1.8-7.4C0.733-6.3,0.133-5.5,0-5c-0.1,0.433,0.233,1.283,1,2.55C1.7-1.317,2.267-0.567,2.7-0.2
			C2.967,0.033,3.767,0.083,5.1-0.05z"/>
	</g>
</symbol>
<symbol  id="flash0.ai_x2F_Layer_3_x2F__x3C_Path_x3E__x5F_15" viewBox="-0.012 -5.75 5.88 5.733">
	<g id="Layer_1_37_">
		<path style="fill-rule:evenodd;clip-rule:evenodd;fill:#1F1A1C;" d="M5.5-2.15C5.8-3.183,5.917-3.8,5.85-4
			C5.783-4.267,5.3-4.633,4.4-5.1C3.533-5.533,2.933-5.75,2.6-5.75c-0.267,0-0.75,0.35-1.45,1.05C0.45-4,0.067-3.483,0-3.15
			c-0.067,0.267,0.15,0.8,0.65,1.6c0.434,0.7,0.783,1.167,1.05,1.4c0.167,0.133,0.683,0.167,1.55,0.1
			C4.083-0.117,4.633-0.233,4.9-0.4C5.033-0.5,5.233-1.083,5.5-2.15z"/>
	</g>
</symbol>
<symbol  id="flash0.ai_x2F_Layer_3_x2F__x3C_Path_x3E__x5F_16" viewBox="-0.012 -5.75 5.88 5.733">
	<g id="Layer_1_36_">
		<path style="fill-rule:evenodd;clip-rule:evenodd;fill:#1F1A1C;" d="M5.5-2.1c0.3-1.066,0.417-1.683,0.35-1.85
			C5.817-4.217,5.333-4.6,4.4-5.1C3.533-5.533,2.933-5.75,2.6-5.75c-0.267,0-0.75,0.35-1.45,1.05C0.45-4,0.067-3.483,0-3.15
			c-0.067,0.267,0.15,0.8,0.65,1.6c0.434,0.7,0.783,1.167,1.05,1.4c0.167,0.133,0.683,0.167,1.55,0.1
			C4.083-0.117,4.633-0.233,4.9-0.4C5.033-0.5,5.233-1.067,5.5-2.1z"/>
	</g>
</symbol>
<symbol  id="flash0.ai_x2F_Layer_3_x2F__x3C_Path_x3E__x5F_17" viewBox="-0.012 -5.7 5.917 5.734">
	<g id="Layer_1_35_">
		<path style="fill-rule:evenodd;clip-rule:evenodd;fill:#1F1A1C;" d="M3.25,0C4.117-0.067,4.667-0.2,4.9-0.4
			c0.133-0.067,0.333-0.633,0.6-1.7c0.3-1.033,0.433-1.65,0.4-1.85c-0.066-0.267-0.55-0.633-1.45-1.1
			C3.583-5.483,2.983-5.7,2.65-5.7C2.383-5.7,1.9-5.35,1.2-4.65C0.5-3.983,0.1-3.483,0-3.15C-0.067-2.85,0.15-2.3,0.65-1.5
			c0.467,0.7,0.833,1.167,1.1,1.4C1.917,0.033,2.417,0.067,3.25,0z"/>
	</g>
</symbol>
<symbol  id="flash0.ai_x2F_Layer_3_x2F__x3C_Path_x3E__x5F_18" viewBox="-0.002 -9.254 9.116 9.292">
	<g id="Layer_1_34_">
		<path style="fill-rule:evenodd;clip-rule:evenodd;fill:#1F1A1C;" d="M6.65-0.65C7.95-1.217,8.733-1.7,9-2.1
			c0.133-0.2,0.15-1.183,0.05-2.95c-0.1-1.767-0.233-2.784-0.4-3.05c-0.233-0.4-1.167-0.717-2.8-0.95C4.25-9.283,3.2-9.317,2.7-9.15
			c-0.434,0.133-1,0.933-1.7,2.4C0.3-5.35-0.033-4.367,0-3.8c0.033,0.466,0.65,1.183,1.85,2.15C2.883-0.783,3.683-0.233,4.25,0
			C4.55,0.133,5.35-0.083,6.65-0.65z"/>
	</g>
</symbol>
<symbol  id="flash0.ai_x2F_Layer_3_x2F__x3C_Path_x3E__x5F_19" viewBox="-0.002 -9.304 9.086 9.293">
	<g id="Layer_1_33_">
		<path style="fill-rule:evenodd;clip-rule:evenodd;fill:#1F1A1C;" d="M6.6-0.7c1.3-0.533,2.083-1,2.35-1.4
			c0.133-0.2,0.167-1.183,0.1-2.95c-0.1-1.767-0.233-2.784-0.4-3.05c-0.233-0.4-1.183-0.733-2.85-1C4.233-9.333,3.2-9.367,2.7-9.2
			C2.267-9.067,1.7-8.267,1-6.8C0.3-5.4-0.033-4.417,0-3.85C0.033-3.383,0.633-2.667,1.8-1.7c1.034,0.867,1.833,1.417,2.4,1.65
			C4.533,0.083,5.333-0.133,6.6-0.7z"/>
	</g>
</symbol>
<symbol  id="flash0.ai_x2F_Layer_3_x2F__x3C_Path_x3E__x5F_1_x5F_0" viewBox="-0.05 -8.88 5.75 8.86">
	<g id="Layer_1_3_">
		
			<radialGradient id="SVGID_3_" cx="-1198.7275" cy="-1418.5542" r="5.4334" gradientTransform="matrix(0.9869 -0.1611 -0.2437 -1.4931 841.4487 -2320.3696)" gradientUnits="userSpaceOnUse">
			<stop  offset="0" style="stop-color:#43485A"/>
			<stop  offset="0.4314" style="stop-color:#3D2940"/>
			<stop  offset="0.6" style="stop-color:#2D212F"/>
			<stop  offset="0.8314" style="stop-color:#1D181D"/>
			<stop  offset="1" style="stop-color:#171517"/>
		</radialGradient>
		<path style="fill-rule:evenodd;clip-rule:evenodd;fill:url(#SVGID_3_);" d="M5.6-4.9c-0.2-1.233-0.633-2.233-1.3-3
			C3.6-8.667,2.867-8.983,2.1-8.85s-1.35,0.667-1.75,1.6S-0.15-5.233,0.05-4C0.25-2.8,0.7-1.8,1.4-1
			c0.667,0.767,1.383,1.083,2.15,0.95C4.317-0.183,4.9-0.717,5.3-1.65C5.7-2.583,5.8-3.667,5.6-4.9z"/>
	</g>
</symbol>
<symbol  id="flash0.ai_x2F_Layer_3_x2F__x3C_Path_x3E__x5F_1_x5F_1" viewBox="-0.007 -20.371 14.164 20.391">
	<g id="Layer_1_24_">
		
			<radialGradient id="SVGID_4_" cx="-629.3633" cy="-714.3174" r="13.6589" gradientTransform="matrix(0.9966 -0.0824 -0.1134 -1.3718 557.6504 -1052.5757)" gradientUnits="userSpaceOnUse">
			<stop  offset="0" style="stop-color:#43485A"/>
			<stop  offset="0.4314" style="stop-color:#3D2940"/>
			<stop  offset="0.6" style="stop-color:#2D212F"/>
			<stop  offset="0.8314" style="stop-color:#1D181D"/>
			<stop  offset="1" style="stop-color:#171517"/>
		</radialGradient>
		<path style="fill-rule:evenodd;clip-rule:evenodd;fill:url(#SVGID_4_);" d="M14.1-10.75c-0.233-2.833-1.117-5.183-2.65-7.05
			c-1.534-1.867-3.284-2.717-5.25-2.55c-1.934,0.133-3.5,1.267-4.7,3.4c-1.2,2.1-1.683,4.55-1.45,7.35
			C0.283-6.767,1.167-4.417,2.7-2.55C4.233-0.683,5.967,0.167,7.9,0c1.934-0.167,3.517-1.3,4.75-3.4
			C13.85-5.5,14.333-7.95,14.1-10.75z"/>
	</g>
</symbol>
<symbol  id="flash0.ai_x2F_Layer_3_x2F__x3C_Path_x3E__x5F_1_x5F_2" viewBox="0.005 -3.404 3.662 3.409">
	<g id="Layer_1_29_">
		
			<radialGradient id="SVGID_5_" cx="-3315.2715" cy="-9316.0664" r="1.4758" gradientTransform="matrix(0.6284 -0.7779 -1.0351 -0.8363 -7557.9189 -10371.2773)" gradientUnits="userSpaceOnUse">
			<stop  offset="0" style="stop-color:#FFFFFF"/>
			<stop  offset="0.0745" style="stop-color:#F8F8F8;stop-opacity:0.9686"/>
			<stop  offset="0.1843" style="stop-color:#E4E4E4;stop-opacity:0.8824"/>
			<stop  offset="0.3137" style="stop-color:#C4C3C4;stop-opacity:0.7412"/>
			<stop  offset="0.4588" style="stop-color:#979697;stop-opacity:0.549"/>
			<stop  offset="0.6196" style="stop-color:#5D5C5D;stop-opacity:0.298"/>
			<stop  offset="0.7922" style="stop-color:#181618;stop-opacity:0"/>
			<stop  offset="0.7922" style="stop-color:#171517;stop-opacity:0"/>
		</radialGradient>
		<path style="fill-rule:evenodd;clip-rule:evenodd;fill:url(#SVGID_5_);" d="M2.7-2.8C2.267-3.167,1.817-3.367,1.35-3.4
			c-0.5-0.033-0.867,0.117-1.1,0.45c-0.233,0.3-0.3,0.684-0.2,1.15C0.183-1.333,0.467-0.917,0.9-0.55C1.333-0.217,1.8-0.033,2.3,0
			c0.467,0.033,0.833-0.1,1.1-0.4c0.267-0.333,0.333-0.733,0.2-1.2S3.167-2.467,2.7-2.8z"/>
	</g>
</symbol>
<symbol  id="flash0.ai_x2F_Layer_3_x2F__x3C_Path_x3E__x5F_1_x5F_3" viewBox="0.011 -18.721 12.235 18.707">
	<g id="Layer_1_31_">
		
			<radialGradient id="SVGID_6_" cx="-1389.2334" cy="-1709.1313" r="11.5244" gradientTransform="matrix(0.9817 -0.1906 -0.2879 -1.4826 880.3975 -2818.3096)" gradientUnits="userSpaceOnUse">
			<stop  offset="0" style="stop-color:#43485A"/>
			<stop  offset="0.4314" style="stop-color:#3D2940"/>
			<stop  offset="0.6" style="stop-color:#2D212F"/>
			<stop  offset="0.8314" style="stop-color:#1D181D"/>
			<stop  offset="1" style="stop-color:#171517"/>
		</radialGradient>
		<path style="fill-rule:evenodd;clip-rule:evenodd;fill:url(#SVGID_6_);" d="M11.95-10.5c-0.5-2.567-1.5-4.633-3-6.2
			c-1.467-1.6-3.017-2.25-4.65-1.95c-1.6,0.333-2.783,1.517-3.55,3.55c-0.8,2.033-0.95,4.317-0.45,6.85C0.767-5.683,1.75-3.6,3.25-2
			s3.067,2.233,4.7,1.9c1.6-0.3,2.8-1.467,3.6-3.5C12.317-5.633,12.45-7.933,11.95-10.5z"/>
	</g>
</symbol>
<symbol  id="flash0.ai_x2F_Layer_3_x2F__x3C_Path_x3E__x5F_1_x5F_4" viewBox="0.015 -13.33 13.636 13.319">
	<g id="Layer_1_51_">
		<path style="fill-rule:evenodd;clip-rule:evenodd;fill:#1F1A1C;" d="M11.85-3.7c1.2-2.167,1.8-3.466,1.8-3.9
			c0.033-0.667-0.85-1.767-2.65-3.3c-1.7-1.434-2.917-2.233-3.65-2.4c-0.633-0.167-1.9,0.35-3.8,1.55c-1.9,1.167-3.033,2.1-3.4,2.8
			c-0.3,0.567-0.1,1.883,0.6,3.95c0.6,1.8,1.133,3.033,1.6,3.7C2.617-0.9,3.733-0.55,5.7-0.25c1.933,0.3,3.216,0.317,3.85,0.05
			C9.883-0.333,10.65-1.5,11.85-3.7z"/>
	</g>
</symbol>
<symbol  id="flash0.ai_x2F_Layer_3_x2F__x3C_Path_x3E__x5F_2" viewBox="0 -2.9 2.9 2.9">
	<g id="Layer_1_28_">
		<path style="fill-rule:evenodd;clip-rule:evenodd;fill:#615824;" d="M2.9-1.45c0-0.4-0.133-0.75-0.4-1.05
			C2.2-2.767,1.85-2.9,1.45-2.9c-0.4,0-0.733,0.133-1,0.4C0.15-2.2,0-1.85,0-1.45c0,0.4,0.15,0.733,0.45,1C0.717-0.15,1.05,0,1.45,0
			C1.85,0,2.2-0.15,2.5-0.45C2.767-0.717,2.9-1.05,2.9-1.45z"/>
	</g>
</symbol>
<symbol  id="flash0.ai_x2F_Layer_3_x2F__x3C_Path_x3E__x5F_20" viewBox="0.031 -7.85 8.083 7.856">
	<g id="Layer_1_32_">
		<path style="fill-rule:evenodd;clip-rule:evenodd;fill:#1F1A1C;" d="M6.75-0.55c0.167-0.1,0.45-0.867,0.85-2.3
			C8-4.283,8.167-5.133,8.1-5.4C8-5.8,7.333-6.317,6.1-6.95c-1.2-0.6-2.033-0.9-2.5-0.9c-0.367,0-1.033,0.483-2,1.45
			C0.667-5.433,0.15-4.733,0.05-4.3c-0.1,0.367,0.2,1.1,0.9,2.2c0.6,0.934,1.083,1.583,1.45,1.95c0.2,0.167,0.9,0.2,2.1,0.1
			C5.7-0.15,6.45-0.317,6.75-0.55z"/>
	</g>
</symbol>
<symbol  id="flash0.ai_x2F_Layer_3_x2F__x3C_Path_x3E__x5F_21" viewBox="-0.047 -14.977 15.347 14.991">
	<g id="Layer_1_23_">
		<path style="fill-rule:evenodd;clip-rule:evenodd;fill:#1F1A1C;" d="M2.65-1.4C2.95-0.967,4.2-0.583,6.4-0.25
			c2.2,0.333,3.65,0.35,4.35,0.05c0.333-0.167,1.183-1.483,2.55-3.95c1.333-2.467,2-3.934,2-4.4c0-0.767-1-2-3-3.7
			c-1.933-1.6-3.3-2.5-4.1-2.7c-0.7-0.167-2.133,0.434-4.3,1.8C1.8-11.85,0.533-10.8,0.1-10C-0.233-9.367,0-7.9,0.8-5.6
			C1.5-3.533,2.117-2.133,2.65-1.4z"/>
	</g>
</symbol>
<symbol  id="flash0.ai_x2F_Layer_3_x2F__x3C_Path_x3E__x5F_22" viewBox="-0.002 -13.103 13.07 13.135">
	<g id="Layer_1_22_">
		<path style="fill-rule:evenodd;clip-rule:evenodd;fill:#1F1A1C;" d="M1-2.5c0.167,0.433,1.167,0.983,3,1.65
			C5.8-0.15,7.033,0.133,7.7,0c0.333-0.067,1.283-1.033,2.85-2.9c1.6-1.867,2.434-3,2.5-3.4c0.133-0.633-0.5-1.867-1.9-3.7
			c-1.333-1.7-2.333-2.7-3-3c-0.566-0.267-1.9-0.017-4,0.75c-2.033,0.733-3.283,1.4-3.75,2c-0.433,0.5-0.517,1.783-0.25,3.85
			C0.383-4.533,0.667-3.233,1-2.5z"/>
	</g>
</symbol>
<symbol  id="flash0.ai_x2F_Layer_3_x2F__x3C_Path_x3E__x5F_23" viewBox="-0.017 -9.45 9.679 9.423">
	<g id="Layer_1_21_">
		<path style="fill-rule:evenodd;clip-rule:evenodd;fill:#1F1A1C;" d="M5.35-0.1c1.4-0.1,2.3-0.3,2.7-0.6
			c0.2-0.133,0.534-1.066,1-2.8c0.467-1.7,0.667-2.7,0.6-3c-0.1-0.467-0.9-1.083-2.4-1.85c-1.433-0.733-2.417-1.1-2.95-1.1
			c-0.466,0-1.267,0.583-2.4,1.75C0.8-6.567,0.167-5.733,0-5.2c-0.1,0.434,0.25,1.317,1.05,2.65c0.767,1.2,1.367,1.966,1.8,2.3
			C3.117-0.017,3.95,0.033,5.35-0.1z"/>
	</g>
</symbol>
<symbol  id="flash0.ai_x2F_Layer_3_x2F__x3C_Path_x3E__x5F_24" viewBox="-0.008 -7.653 7.728 7.678">
	<g id="Layer_1_20_">
		<path style="fill-rule:evenodd;clip-rule:evenodd;fill:#1F1A1C;" d="M4.6-0.1c1.133-0.2,1.85-0.433,2.15-0.7
			C6.883-0.933,7.1-1.717,7.4-3.15c0.267-1.4,0.367-2.233,0.3-2.5c-0.1-0.333-0.8-0.767-2.1-1.3c-1.2-0.5-2.017-0.733-2.45-0.7
			C2.783-7.617,2.183-7.1,1.35-6.1C0.517-5.1,0.067-4.383,0-3.95C-0.067-3.583,0.267-2.9,1-1.9c0.633,0.867,1.15,1.467,1.55,1.8
			C2.783,0.067,3.467,0.067,4.6-0.1z"/>
	</g>
</symbol>
<symbol  id="flash0.ai_x2F_Layer_3_x2F__x3C_Path_x3E__x5F_25" viewBox="-0.01 -3.205 3.309 3.222">
	<g id="Layer_1_19_">
		<path style="fill-rule:evenodd;clip-rule:evenodd;fill:#1F1A1C;" d="M0.6-0.25C0.667-0.15,0.933-0.067,1.4,0
			c0.5,0.033,0.817,0.017,0.95-0.05C2.417-0.083,2.6-0.367,2.9-0.9c0.267-0.533,0.4-0.85,0.4-0.95c0-0.167-0.216-0.433-0.65-0.8
			C2.217-2.983,1.917-3.167,1.75-3.2c-0.133-0.033-0.433,0.1-0.9,0.4c-0.467,0.3-0.733,0.533-0.8,0.7
			C-0.117-1.767,0.067-1.15,0.6-0.25z"/>
	</g>
</symbol>
<symbol  id="flash0.ai_x2F_Layer_3_x2F__x3C_Path_x3E__x5F_26" viewBox="-0.013 -4.8 4.92 4.833">
	<g id="Layer_1_18_">
		<path style="fill-rule:evenodd;clip-rule:evenodd;fill:#1F1A1C;" d="M2.7,0c0.733-0.067,1.2-0.183,1.4-0.35
			c0.1-0.066,0.267-0.533,0.5-1.4S4.933-3.133,4.9-3.3C4.867-3.533,4.467-3.85,3.7-4.25C2.967-4.617,2.467-4.8,2.2-4.8
			c-0.233,0-0.65,0.3-1.25,0.9C0.383-3.333,0.067-2.917,0-2.65C-0.067-2.417,0.117-1.967,0.55-1.3c0.367,0.6,0.667,1,0.9,1.2
			C1.583,0.033,2,0.067,2.7,0z"/>
	</g>
</symbol>
<symbol  id="flash0.ai_x2F_Layer_3_x2F__x3C_Path_x3E__x5F_27" viewBox="-0.006 -3.9 3.414 3.89">
	<g id="Layer_1_17_">
		<path style="fill-rule:evenodd;clip-rule:evenodd;fill:#1F1A1C;" d="M2.8-0.3C2.867-0.367,3-0.75,3.2-1.45
			c0.167-0.7,0.233-1.117,0.2-1.25C3.367-2.9,3.083-3.15,2.55-3.45C2.05-3.75,1.7-3.9,1.5-3.9c-0.167,0-0.45,0.233-0.85,0.7
			C0.283-2.733,0.067-2.383,0-2.15c-0.033,0.167,0.083,0.533,0.35,1.1C0.617-0.583,0.833-0.267,1-0.1C1.067,0,1.35,0.017,1.85-0.05
			C2.35-0.083,2.667-0.167,2.8-0.3z"/>
	</g>
</symbol>
<symbol  id="flash0.ai_x2F_Layer_3_x2F__x3C_Path_x3E__x5F_28" viewBox="-0.006 -3.9 3.414 3.89">
	<g id="Layer_1_16_">
		<path style="fill-rule:evenodd;clip-rule:evenodd;fill:#1F1A1C;" d="M2.85-0.3C2.917-0.333,3.033-0.717,3.2-1.45
			c0.167-0.7,0.233-1.117,0.2-1.25C3.367-2.9,3.083-3.15,2.55-3.45C2.05-3.75,1.7-3.9,1.5-3.9c-0.133,0-0.4,0.233-0.8,0.7
			C0.3-2.7,0.067-2.35,0-2.15c-0.033,0.167,0.083,0.533,0.35,1.1C0.617-0.583,0.833-0.267,1-0.1C1.1,0,1.4,0.017,1.9-0.05
			C2.4-0.083,2.717-0.167,2.85-0.3z"/>
	</g>
</symbol>
<symbol  id="flash0.ai_x2F_Layer_3_x2F__x3C_Path_x3E__x5F_29" viewBox="-0.006 -3.85 3.364 3.84">
	<g id="Layer_1_15_">
		<path style="fill-rule:evenodd;clip-rule:evenodd;fill:#1F1A1C;" d="M2.8-0.25c0.067-0.067,0.184-0.467,0.35-1.2
			c0.167-0.7,0.233-1.1,0.2-1.2C3.317-2.85,3.033-3.1,2.5-3.4c-0.467-0.3-0.8-0.45-1-0.45c-0.167,0-0.45,0.233-0.85,0.7
			c-0.367,0.467-0.583,0.8-0.65,1c-0.033,0.2,0.083,0.566,0.35,1.1C0.583-0.617,0.783-0.3,0.95-0.1c0.1,0.1,0.4,0.117,0.9,0.05
			C2.35-0.083,2.667-0.15,2.8-0.25z"/>
	</g>
</symbol>
<symbol  id="flash0.ai_x2F_Layer_3_x2F__x3C_Path_x3E__x5F_2_x5F_0" viewBox="0.02 -12.704 12.782 12.705">
	<g id="Layer_1_50_">
		<path style="fill-rule:evenodd;clip-rule:evenodd;fill:#1F1A1C;" d="M12.65-4.2c0.333-0.566,0.117-1.933-0.65-4.1
			c-0.7-2.034-1.317-3.317-1.85-3.85c-0.467-0.4-1.8-0.583-4-0.55c-2.167,0.067-3.566,0.3-4.2,0.7
			c-0.534,0.333-1.017,1.533-1.45,3.6C0.1-6.567-0.05-5.267,0.05-4.5C0.083-4.033,0.833-3.183,2.3-1.95C3.8-0.75,4.883-0.1,5.55,0
			C5.883,0.033,7.1-0.567,9.2-1.8C11.267-3.033,12.417-3.833,12.65-4.2z"/>
	</g>
</symbol>
<symbol  id="flash0.ai_x2F_Layer_3_x2F__x3C_Path_x3E__x5F_3" viewBox="0 -2.9 2.9 2.9">
	<g id="Layer_1_27_">
		<path style="fill-rule:evenodd;clip-rule:evenodd;fill:#615824;" d="M2.9-1.45c0-0.4-0.133-0.75-0.4-1.05
			C2.2-2.767,1.85-2.9,1.45-2.9c-0.4,0-0.733,0.133-1,0.4C0.15-2.2,0-1.85,0-1.45c0,0.4,0.15,0.733,0.45,1C0.717-0.15,1.05,0,1.45,0
			C1.85,0,2.2-0.15,2.5-0.45C2.767-0.717,2.9-1.05,2.9-1.45z"/>
	</g>
</symbol>
<symbol  id="flash0.ai_x2F_Layer_3_x2F__x3C_Path_x3E__x5F_30" viewBox="0.044 -3.1 3.164 3.117">
	<g id="Layer_1_14_">
		<path style="fill-rule:evenodd;clip-rule:evenodd;fill:#1F1A1C;" d="M2.7-0.2C2.767-0.267,2.867-0.583,3-1.15
			c0.167-0.567,0.233-0.9,0.2-1c-0.034-0.133-0.3-0.333-0.8-0.6C1.933-2.983,1.617-3.1,1.45-3.1c-0.133,0-0.4,0.184-0.8,0.55
			c-0.367,0.4-0.566,0.683-0.6,0.85C0.017-1.533,0.133-1.233,0.4-0.8c0.2,0.333,0.383,0.583,0.55,0.75C1.05,0.017,1.333,0.033,1.8,0
			C2.267-0.033,2.567-0.1,2.7-0.2z"/>
	</g>
</symbol>
<symbol  id="flash0.ai_x2F_Layer_3_x2F__x3C_Path_x3E__x5F_31" viewBox="-0.006 -3.1 3.214 3.117">
	<g id="Layer_1_13_">
		<path style="fill-rule:evenodd;clip-rule:evenodd;fill:#1F1A1C;" d="M1.75,0c0.467-0.033,0.767-0.1,0.9-0.2
			C2.717-0.233,2.833-0.55,3-1.15c0.167-0.567,0.233-0.9,0.2-1c-0.034-0.167-0.3-0.367-0.8-0.6C1.933-2.983,1.6-3.1,1.4-3.1
			c-0.133,0-0.383,0.184-0.75,0.55C0.283-2.15,0.067-1.867,0-1.7c-0.033,0.167,0.083,0.467,0.35,0.9
			c0.233,0.367,0.433,0.617,0.6,0.75C1.017,0.017,1.283,0.033,1.75,0z"/>
	</g>
</symbol>
<symbol  id="flash0.ai_x2F_Layer_3_x2F__x3C_Path_x3E__x5F_32" viewBox="-0.006 -3.15 3.214 3.117">
	<g id="Layer_1_12_">
		<path style="fill-rule:evenodd;clip-rule:evenodd;fill:#1F1A1C;" d="M2.65-0.25C2.717-0.283,2.833-0.6,3-1.2
			c0.167-0.566,0.233-0.883,0.2-0.95C3.167-2.317,2.9-2.533,2.4-2.8c-0.467-0.233-0.8-0.35-1-0.35c-0.133,0-0.383,0.2-0.75,0.6
			C0.283-2.183,0.067-1.917,0-1.75c-0.033,0.167,0.083,0.467,0.35,0.9c0.233,0.367,0.433,0.617,0.6,0.75
			c0.066,0.067,0.333,0.083,0.8,0.05C2.217-0.083,2.517-0.15,2.65-0.25z"/>
	</g>
</symbol>
<symbol  id="flash0.ai_x2F_Layer_3_x2F__x3C_Path_x3E__x5F_33" viewBox="-0.006 -3.15 3.206 3.117">
	<g id="Layer_1_11_">
		<path style="fill-rule:evenodd;clip-rule:evenodd;fill:#1F1A1C;" d="M2.65-0.25C2.717-0.283,2.833-0.6,3-1.2
			c0.133-0.533,0.2-0.867,0.2-1C3.167-2.333,2.9-2.533,2.4-2.8c-0.5-0.233-0.833-0.35-1-0.35c-0.133,0-0.383,0.183-0.75,0.55
			C0.283-2.2,0.067-1.917,0-1.75c-0.033,0.167,0.083,0.467,0.35,0.9C0.55-0.517,0.733-0.267,0.9-0.1C1-0.033,1.283-0.017,1.75-0.05
			C2.217-0.083,2.517-0.15,2.65-0.25z"/>
	</g>
</symbol>
<symbol  id="flash0.ai_x2F_Layer_3_x2F__x3C_Path_x3E__x5F_34" viewBox="0.032 -8.65 8.831 8.65">
	<g id="Layer_1_10_">
		<path style="fill-rule:evenodd;clip-rule:evenodd;fill:#1F1A1C;" d="M8.3-3.2c0.434-1.6,0.617-2.517,0.55-2.75
			c-0.1-0.433-0.833-1-2.2-1.7c-1.3-0.667-2.2-1-2.7-1c-0.4,0-1.117,0.533-2.15,1.6c-1.033,1.033-1.617,1.8-1.75,2.3
			C-0.05-4.317,0.267-3.517,1-2.35C1.667-1.283,2.2-0.567,2.6-0.2C2.867,0,3.633,0.05,4.9-0.05c1.3-0.1,2.133-0.284,2.5-0.55
			C7.567-0.733,7.867-1.6,8.3-3.2z"/>
	</g>
</symbol>
<symbol  id="flash0.ai_x2F_Layer_3_x2F__x3C_Path_x3E__x5F_35" viewBox="-0.018 -8.65 8.881 8.65">
	<g id="Layer_1_9_">
		<path style="fill-rule:evenodd;clip-rule:evenodd;fill:#1F1A1C;" d="M7.35-0.6c0.2-0.133,0.517-1,0.95-2.6
			c0.434-1.566,0.617-2.483,0.55-2.75c-0.1-0.433-0.833-1-2.2-1.7c-1.3-0.667-2.2-1-2.7-1c-0.434,0-1.167,0.533-2.2,1.6
			C0.717-6.017,0.133-5.25,0-4.75c-0.1,0.4,0.217,1.2,0.95,2.4C1.65-1.283,2.2-0.567,2.6-0.2c0.233,0.2,1,0.25,2.3,0.15
			C6.2-0.15,7.017-0.333,7.35-0.6z"/>
	</g>
</symbol>
<symbol  id="flash0.ai_x2F_Layer_3_x2F__x3C_Path_x3E__x5F_36" viewBox="0.025 -6.752 6.939 6.752">
	<g id="Layer_1_8_">
		<path style="fill-rule:evenodd;clip-rule:evenodd;fill:#1F1A1C;" d="M6.95-4.45c-0.034-0.333-0.567-0.8-1.6-1.4
			c-1-0.566-1.7-0.867-2.1-0.9C2.917-6.783,2.333-6.417,1.5-5.65C0.633-4.85,0.15-4.267,0.05-3.9c-0.1,0.3,0.1,0.933,0.6,1.9
			C1.117-1.133,1.5-0.55,1.8-0.25C1.967-0.083,2.567,0,3.6,0c1-0.033,1.65-0.15,1.95-0.35C5.717-0.45,6-1.1,6.4-2.3
			C6.833-3.5,7.017-4.217,6.95-4.45z"/>
	</g>
</symbol>
<symbol  id="flash0.ai_x2F_Layer_3_x2F__x3C_Path_x3E__x5F_37" viewBox="0.037 -5.6 5.768 5.614">
	<g id="Layer_1_7_">
		<path style="fill-rule:evenodd;clip-rule:evenodd;fill:#1F1A1C;" d="M5.4-2.1c0.3-1,0.434-1.6,0.4-1.8
			C5.733-4.167,5.25-4.517,4.35-4.95C3.483-5.383,2.9-5.6,2.6-5.6c-0.3,0-0.783,0.333-1.45,1c-0.667,0.667-1.033,1.167-1.1,1.5
			c-0.066,0.267,0.133,0.8,0.6,1.6C1.083-0.8,1.433-0.333,1.7-0.1c0.167,0.133,0.667,0.15,1.5,0.05C4.033-0.117,4.567-0.233,4.8-0.4
			C4.933-0.467,5.133-1.033,5.4-2.1z"/>
	</g>
</symbol>
<symbol  id="flash0.ai_x2F_Layer_3_x2F__x3C_Path_x3E__x5F_38" viewBox="-0.012 -5.6 5.78 5.614">
	<g id="Layer_1_6_">
		<path style="fill-rule:evenodd;clip-rule:evenodd;fill:#1F1A1C;" d="M3.2-0.05C4.033-0.117,4.567-0.233,4.8-0.4
			c0.133-0.067,0.333-0.617,0.6-1.65c0.3-1.034,0.417-1.633,0.35-1.8c-0.033-0.267-0.5-0.633-1.4-1.1
			C3.483-5.383,2.883-5.6,2.55-5.6c-0.267,0-0.733,0.333-1.4,1C0.483-3.933,0.1-3.433,0-3.1c-0.067,0.3,0.15,0.833,0.65,1.6
			C1.083-0.8,1.433-0.333,1.7-0.1C1.867,0.033,2.367,0.05,3.2-0.05z"/>
	</g>
</symbol>
<symbol  id="flash0.ai_x2F_Layer_3_x2F__x3C_Path_x3E__x5F_39" viewBox="-0.003 -7.886 7.955 7.924">
	<g id="Layer_1_5_">
		<path style="fill-rule:evenodd;clip-rule:evenodd;fill:#1F1A1C;" d="M0.95-1.1C1.083-0.867,1.7-0.6,2.8-0.3C3.933,0,4.7,0.1,5.1,0
			c0.2-0.067,0.717-0.7,1.55-1.9c0.833-1.233,1.267-1.967,1.3-2.2C7.983-4.5,7.533-5.2,6.6-6.2c-0.9-0.966-1.567-1.517-2-1.65
			c-0.333-0.133-1.1,0.1-2.3,0.7c-1.167,0.566-1.883,1.033-2.15,1.4c-0.233,0.3-0.2,1.083,0.1,2.35C0.483-2.3,0.717-1.533,0.95-1.1z
			"/>
	</g>
</symbol>
<symbol  id="flash0.ai_x2F_Layer_3_x2F__x3C_Path_x3E__x5F_3_x5F_0" viewBox="0.026 -5.7 5.879 5.714">
	<g id="Layer_1_49_">
		<path style="fill-rule:evenodd;clip-rule:evenodd;fill:#1F1A1C;" d="M5.5-2.1c0.3-1.033,0.433-1.65,0.4-1.85
			c-0.066-0.267-0.55-0.633-1.45-1.1C3.583-5.483,2.983-5.7,2.65-5.7c-0.3,0-0.783,0.35-1.45,1.05c-0.7,0.667-1.083,1.167-1.15,1.5
			c-0.1,0.267,0.117,0.8,0.65,1.6C1.1-0.883,1.45-0.4,1.75-0.1c0.167,0.133,0.667,0.15,1.5,0.05C4.117-0.117,4.667-0.233,4.9-0.4
			C5.033-0.467,5.233-1.033,5.5-2.1z"/>
	</g>
</symbol>
<symbol  id="flash0.ai_x2F_Layer_3_x2F__x3C_Path_x3E__x5F_4" viewBox="0 -4.9 4.7 4.9">
	<g id="Layer_1_26_">
		<path style="fill-rule:evenodd;clip-rule:evenodd;fill:#453B17;" d="M4.7-2.45C4.7-3.117,4.467-3.7,4-4.2
			C3.567-4.667,3.017-4.9,2.35-4.9c-0.633,0-1.184,0.233-1.65,0.7C0.233-3.7,0-3.117,0-2.45C0-1.783,0.233-1.2,0.7-0.7
			C1.167-0.233,1.717,0,2.35,0C3.017,0,3.567-0.233,4-0.7C4.467-1.2,4.7-1.783,4.7-2.45z"/>
	</g>
</symbol>
<symbol  id="flash0.ai_x2F_Layer_3_x2F__x3C_Path_x3E__x5F_40" viewBox="-0.011 -6 6.179 6.006">
	<g id="Layer_1_4_">
		<path style="fill-rule:evenodd;clip-rule:evenodd;fill:#1F1A1C;" d="M3.4-0.05c0.934-0.067,1.517-0.2,1.75-0.4
			C5.283-0.517,5.5-1.117,5.8-2.25c0.3-1.1,0.417-1.733,0.35-1.9C6.083-4.45,5.567-4.833,4.6-5.3C3.7-5.767,3.083-6,2.75-6
			c-0.3,0-0.8,0.367-1.5,1.1C0.517-4.167,0.1-3.633,0-3.3C-0.067-3,0.167-2.433,0.7-1.6c0.466,0.733,0.833,1.217,1.1,1.45
			C1.967,0.017,2.5,0.05,3.4-0.05z"/>
	</g>
</symbol>
<symbol  id="flash0.ai_x2F_Layer_3_x2F__x3C_Path_x3E__x5F_4_x5F_0" viewBox="-0.004 -4.35 4.51 4.383">
	<g id="Layer_1_48_">
		<path style="fill-rule:evenodd;clip-rule:evenodd;fill:#1F1A1C;" d="M2.5,0c0.633-0.067,1.05-0.167,1.25-0.3
			C3.85-0.333,4-0.767,4.2-1.6C4.433-2.367,4.533-2.833,4.5-3C4.467-3.2,4.1-3.483,3.4-3.85C2.733-4.183,2.267-4.35,2-4.35
			c-0.2,0-0.567,0.267-1.1,0.8C0.367-3.017,0.067-2.633,0-2.4c-0.033,0.233,0.133,0.65,0.5,1.25C0.867-0.617,1.15-0.267,1.35-0.1
			C1.45,0.033,1.833,0.067,2.5,0z"/>
	</g>
</symbol>
<symbol  id="flash0.ai_x2F_Layer_3_x2F__x3C_Path_x3E__x5F_5" viewBox="0 -5.1 4.65 5.1">
	<g id="Layer_1_25_">
		<path style="fill-rule:evenodd;clip-rule:evenodd;fill:#453B17;" d="M4.65-2.55c0-0.7-0.217-1.3-0.65-1.8
			C3.533-4.85,2.983-5.1,2.35-5.1S1.167-4.85,0.7-4.35C0.233-3.85,0-3.25,0-2.55c0,0.7,0.233,1.3,0.7,1.8C1.167-0.25,1.717,0,2.35,0
			S3.533-0.25,4-0.75C4.433-1.25,4.65-1.85,4.65-2.55z"/>
	</g>
</symbol>
<symbol  id="flash0.ai_x2F_Layer_3_x2F__x3C_Path_x3E__x5F_5_x5F_0" viewBox="-0.014 -4.35 4.471 4.383">
	<g id="Layer_1_47_">
		<path style="fill-rule:evenodd;clip-rule:evenodd;fill:#1F1A1C;" d="M2.45,0C3.117-0.067,3.533-0.167,3.7-0.3
			c0.1-0.034,0.25-0.467,0.45-1.3C4.383-2.4,4.483-2.867,4.45-3c-0.034-0.2-0.4-0.483-1.1-0.85c-0.667-0.333-1.133-0.5-1.4-0.5
			c-0.2,0-0.567,0.267-1.1,0.8C0.35-3.017,0.067-2.633,0-2.4s0.1,0.65,0.5,1.25C0.833-0.617,1.1-0.267,1.3-0.1
			C1.433,0.033,1.817,0.067,2.45,0z"/>
	</g>
</symbol>
<symbol  id="flash0.ai_x2F_Layer_3_x2F__x3C_Path_x3E__x5F_6" viewBox="-0.014 -4.4 4.471 4.39">
	<g id="Layer_1_46_">
		<path style="fill-rule:evenodd;clip-rule:evenodd;fill:#1F1A1C;" d="M3.7-0.3c0.1-0.067,0.25-0.5,0.45-1.3
			c0.233-0.8,0.333-1.283,0.3-1.45c-0.034-0.2-0.4-0.483-1.1-0.85C2.683-4.233,2.233-4.4,2-4.4S1.383-4.133,0.85-3.6
			C0.35-3.067,0.067-2.667,0-2.4c-0.067,0.2,0.1,0.6,0.5,1.2c0.3,0.5,0.567,0.867,0.8,1.1C1.433,0,1.817,0.017,2.45-0.05
			C3.117-0.083,3.533-0.167,3.7-0.3z"/>
	</g>
</symbol>
<symbol  id="flash0.ai_x2F_Layer_3_x2F__x3C_Path_x3E__x5F_7" viewBox="-0.014 -4.4 4.471 4.39">
	<g id="Layer_1_45_">
		<path style="fill-rule:evenodd;clip-rule:evenodd;fill:#1F1A1C;" d="M3.7-0.3c0.1-0.067,0.25-0.5,0.45-1.3
			c0.233-0.8,0.333-1.283,0.3-1.45c-0.034-0.2-0.4-0.483-1.1-0.85C2.683-4.233,2.233-4.4,2-4.4S1.383-4.133,0.85-3.6
			C0.35-3.067,0.067-2.667,0-2.4c-0.067,0.2,0.1,0.6,0.5,1.2c0.3,0.5,0.567,0.867,0.8,1.1C1.433,0,1.817,0.017,2.45-0.05
			C3.117-0.083,3.533-0.167,3.7-0.3z"/>
	</g>
</symbol>
<symbol  id="flash0.ai_x2F_Layer_3_x2F__x3C_Path_x3E__x5F_8" viewBox="0.035 -4.35 4.472 4.34">
	<g id="Layer_1_44_">
		<path style="fill-rule:evenodd;clip-rule:evenodd;fill:#1F1A1C;" d="M3.75-0.3C3.85-0.367,4-0.8,4.2-1.6
			C4.433-2.4,4.533-2.867,4.5-3C4.467-3.233,4.1-3.517,3.4-3.85C2.733-4.183,2.267-4.35,2-4.35c-0.233,0-0.6,0.267-1.1,0.8
			C0.4-3.05,0.117-2.667,0.05-2.4C-0.017-2.2,0.133-1.8,0.5-1.2c0.367,0.567,0.65,0.934,0.85,1.1C1.45,0,1.833,0.017,2.5-0.05
			C3.167-0.083,3.583-0.167,3.75-0.3z"/>
	</g>
</symbol>
<symbol  id="flash0.ai_x2F_Layer_3_x2F__x3C_Path_x3E__x5F_9" viewBox="0.035 -4.35 4.472 4.383">
	<g id="Layer_1_43_">
		<path style="fill-rule:evenodd;clip-rule:evenodd;fill:#1F1A1C;" d="M3.75-0.3C3.85-0.333,4-0.767,4.2-1.6
			C4.433-2.367,4.533-2.833,4.5-3C4.467-3.2,4.1-3.483,3.4-3.85C2.733-4.183,2.267-4.35,2-4.35c-0.2,0-0.567,0.267-1.1,0.8
			C0.4-3.017,0.117-2.633,0.05-2.4C-0.017-2.167,0.133-1.75,0.5-1.15C0.867-0.617,1.15-0.267,1.35-0.1C1.45,0.033,1.833,0.067,2.5,0
			S3.583-0.167,3.75-0.3z"/>
	</g>
</symbol>
<g>
	<linearGradient id="SVGID_7_" gradientUnits="userSpaceOnUse" x1="-23.625" y1="68.375" x2="203.425" y2="68.375">
		<stop  offset="0" style="stop-color:#3D2940"/>
		<stop  offset="0.3098" style="stop-color:#211F21"/>
		<stop  offset="0.6353" style="stop-color:#3D2940"/>
		<stop  offset="1" style="stop-color:#3A4066"/>
	</linearGradient>
	<path style="fill-rule:evenodd;clip-rule:evenodd;fill:url(#SVGID_7_);" d="M194.25,20.15c-0.467,8.733-2.8,18.15-7,28.25
		c-1.1,2.667-2.767,6.667-5,12c-1.8,4.667-3.1,9.067-3.9,13.2c-1.399,7.034-2.533,17-3.399,29.9
		c-0.434,6.467-0.733,12.217-0.9,17.25H26.35c-0.033-4.934-0.167-10.434-0.4-16.5c-0.467-12.1-1.217-20.934-2.25-26.5
		c-0.833-4.5-2.483-9.417-4.95-14.75c-2.967-5.933-5.133-10.4-6.5-13.4C7.183,38.667,5.7,28,7.8,17.6L118.2,16L194.25,20.15z"/>
	<linearGradient id="SVGID_8_" gradientUnits="userSpaceOnUse" x1="29.9751" y1="68.1504" x2="120.3251" y2="68.1504">
		<stop  offset="0" style="stop-color:#3D2940"/>
		<stop  offset="0.3098" style="stop-color:#211F21"/>
		<stop  offset="0.6353" style="stop-color:#3D2940"/>
		<stop  offset="1" style="stop-color:#3A4066"/>
	</linearGradient>
	<path style="fill-rule:evenodd;clip-rule:evenodd;fill:url(#SVGID_8_);" d="M84.4,15.55l32.25,14.3
		c0.233,6.233-0.834,13.533-3.2,21.9c-3.601,12.733-5.617,20.184-6.05,22.35c-1.334,6.967-2.15,16.834-2.45,29.601
		c-0.167,6.366-0.2,12.05-0.101,17.05H49.8c0.067-4.833,0.067-10.217,0-16.15c-0.133-11.833-0.55-20.517-1.25-26.05
		c-0.3-2.366-1.816-10.5-4.55-24.4c-1.6-8.2-2.217-16.183-1.85-23.95L84.4,15.55z"/>
	<path style="fill-rule:evenodd;clip-rule:evenodd;fill:#281C23;" d="M189.2,17.2c2.833,1.066,4.934,2.5,6.3,4.3
		c1.6,2.133,2.283,4.417,2.05,6.85c-0.133,1.4-0.467,3.75-1,7.05c0.066-1.4-0.066-2.65-0.399-3.75c-0.301,1.633-0.934,3.467-1.9,5.5
		c-0.5,1.067-1.434,2.8-2.8,5.2c0.3-1.133,0.416-2.55,0.35-4.25c-0.066-1.6-0.25-3.05-0.55-4.35c-0.467,1.967-1.116,3.733-1.95,5.3
		c0.066-2.733-0.083-4.867-0.45-6.4c-0.399,1.267-1.366,2.983-2.899,5.15c0.233-1.1,0.35-2.083,0.35-2.95
		c-0.233,0.333-0.717,0.85-1.45,1.55c-0.666,0.667-1.133,1.233-1.399,1.7c0.133-0.7,0.166-1.85,0.1-3.45
		c-0.166,0.333-1.45,1.267-3.85,2.8c-2.167,1.367-3.134,2.283-2.9,2.75c-0.5-0.633-0.816-1.15-0.95-1.55
		c0,0.167-0.017,0.55-0.05,1.15c-1.2-0.267-1.967-0.466-2.3-0.6c-0.733-0.267-1.4-0.65-2-1.15c0.366,1,0.967,1.833,1.8,2.5
		c-1.767-0.4-3.05-0.7-3.85-0.9c-1.4-0.4-2.517-1.05-3.351-1.95c0.7,1,1.233,1.833,1.601,2.5c-0.967-0.133-2.101-0.383-3.4-0.75
		c-1.434-0.434-2.517-0.75-3.25-0.95c-0.1,0.867-0.566,1.817-1.399,2.85c-1.134,1.4-1.784,2.25-1.95,2.55
		c0.033-0.1,0.116-0.5,0.25-1.2c-1.066,0.533-2.017,1.267-2.851,2.2c-1,1.1-1.566,2.167-1.699,3.2c-0.301-0.833-0.367-1.833-0.2-3
		c-0.033,0.1-0.434,1.316-1.2,3.65c-0.533,1.633-0.917,2.95-1.15,3.95c-0.133-0.733-0.533-1.867-1.199-3.4
		c-0.634-1.466-1.017-2.583-1.15-3.35c-0.167,0.767-0.217,1.7-0.15,2.8c0.065,1.269,0.273,2.144,0.625,2.625
		c-1.555-2.025-2.813-3.767-3.774-5.225c0.166,0.434,0.366,1.15,0.6,2.15c-1.5-0.667-2.85-1.816-4.05-3.45
		c0.634,1.2,1.033,1.983,1.2,2.35c-0.9-0.667-1.584-1.184-2.05-1.55c-0.867-0.6-1.601-1.05-2.2-1.35
		c-0.3-0.133-1.134-0.283-2.5-0.45c-1.094-0.129-1.827-0.396-2.2-0.8c0.228,0.263,0.577,0.646,1.05,1.15
		c0.434,0.466,0.717,0.917,0.851,1.35c-0.667-0.5-1.9-0.917-3.7-1.25c-1.566-0.333-2.717-0.9-3.45-1.7c-0.033,0-0.033,0.017,0,0.05
		c0.267,0.3,0.65,0.767,1.15,1.4c-0.967-0.3-2.167-1.25-3.601-2.85c0.033,0.933,0.434,1.9,1.2,2.9c-0.167-0.2-0.616-0.383-1.35-0.55
		c-0.934-0.233-1.434-0.367-1.5-0.4c-1.301-0.5-2.084-1.083-2.351-1.75c0.066,0.233,0.15,0.833,0.25,1.8
		c0.101,0.733,0.25,1.316,0.45,1.75c-0.4-0.467-1.134-1.15-2.2-2.05c-0.965-0.778-1.681-1.453-2.149-2.025
		c0.203,0.938,0.42,1.58,0.649,1.925c-0.967-0.5-1.649-1.183-2.05-2.05c-0.333-0.933-0.6-1.6-0.8-2
		c0.333,1.933,0.184,4.75-0.45,8.45c-0.134,0.7-0.45,1.716-0.95,3.05c-0.467,1.275-0.774,2.242-0.925,2.9
		c0.279-1.332,0.354-2.932,0.225-4.8c-0.233-2.167-0.383-3.817-0.449-4.95c-0.167,1.833-0.601,3.65-1.301,5.45
		c0.301-1.5,0.233-3.2-0.199-5.1c-0.5-2.1-1.284-3.6-2.351-4.5c-0.3,0.367-0.399,1.167-0.3,2.4c0.134,1.633,0.184,2.533,0.15,2.7
		c-0.867-0.733-1.851-1.9-2.95-3.5c0.3,0.933,0.434,1.867,0.399,2.8c-0.6-0.8-1.05-1.417-1.35-1.85c-0.566-0.767-1.1-1.283-1.6-1.55
		c-0.134,0.2-0.784,0.867-1.95,2c-0.967,0.933-1.434,1.633-1.4,2.1c-0.166-0.9-0.233-1.567-0.2-2
		c-0.533,0.833-1.683,1.783-3.45,2.85c-1.753,0.992-2.911,1.967-3.475,2.925c0.485-0.868,0.827-2.327,1.025-4.375
		c-1.1,0.9-2.1,1.85-3,2.85c-1.587,1.687-2.121,2.787-1.6,3.3c-1.069-1.003-1.902-1.886-2.5-2.65c0,0.933,0.233,2.033,0.7,3.3
		c-2.167-2-3.5-3.117-4-3.35c-1.533-0.767-2.7-0.1-3.5,2c-0.533-0.633-0.716-1.434-0.55-2.4c-0.267,0.3-0.583,0.733-0.95,1.3
		c-0.5,0.733-0.8,1.167-0.9,1.3c-0.4-0.9-0.683-1.933-0.85-3.1c-2.5,2.534-5.833,4.733-10,6.6l0.1-1.05
		c-1.3,0.8-2.333,1.566-3.1,2.3c0.034-0.133,0.167-1.117,0.4-2.95c-0.067,0.033-0.8,0.367-2.2,1c-0.9,0.433-1.583,0.867-2.05,1.3
		c-0.367-0.767-0.6-1.317-0.7-1.65c-0.867,1-1.583,2.217-2.15,3.65c-0.7,1.767-0.817,3.133-0.35,4.1
		c-1.1-0.833-2.183-2.017-3.25-3.55c-1.1-1.566-1.833-2.966-2.2-4.2c-0.433,0.933-0.617,2.083-0.55,3.45
		c0.033,1.333,0.283,2.5,0.75,3.5c-1.1-0.7-2.15-2.066-3.15-4.1c-0.867-1.8-1.45-3.483-1.75-5.05c0,2.6,0.1,4.467,0.3,5.6
		c-0.467-0.5-0.85-1.217-1.15-2.15c-0.267-1.067-0.5-1.867-0.7-2.4c-0.167-0.367-0.65-1.267-1.45-2.7
		c-0.633-1.1-1.033-2.033-1.2-2.8c-0.533,1.4-0.517,2.733,0.05,4c-0.7-0.967-1.3-2.517-1.8-4.65c-0.5-2.267-1.033-3.833-1.6-4.7
		c-0.233,0.2-0.4,0.467-0.5,0.8c-0.133,0.367-0.15,0.684-0.05,0.95c-0.9-1.967-1.4-3.083-1.5-3.35
		c-0.467-1.367-0.517-2.517-0.15-3.45c-1.167,0.3-2.533,1.083-4.1,2.35c-0.2-1.533-0.3-2.667-0.3-3.4
		c-0.7,1.133-1.35,2.45-1.95,3.95c-0.753,1.801-1.12,3.167-1.1,4.1c-0.533-1.233-0.9-2.15-1.1-2.75
		c-0.333-1.133-0.417-2.117-0.25-2.95c-1.466,1.133-2.25,2.483-2.35,4.05c-0.067,1.3,0.367,3.033,1.3,5.2
		c-0.267-0.267-1.417-1.033-3.45-2.3c-1.466-0.9-2.267-1.883-2.4-2.95c-0.8,1.7-0.733,3.483,0.2,5.35
		c-1.6-1.534-2.75-2.733-3.45-3.6c-1.267-1.5-1.883-2.983-1.85-4.45c-1,1.467-1.383,3.45-1.15,5.95c-0.833-1.6-1.467-3.483-1.9-5.65
		c-1.1,1.6-1.583,3.533-1.45,5.8c0.13,2.013,0.722,3.879,1.775,5.6c-2.755-2.838-4.297-5.421-4.625-7.75
		c0,1.633,0.033,2.783,0.1,3.45c0.1,1.267,0.333,2.367,0.7,3.3c-0.5-0.767-0.95-1.783-1.35-3.05c-0.4-1.466-0.733-2.55-1-3.25
		c-0.1-0.3-0.617-1.55-1.55-3.75c-0.667-1.533-1.067-2.816-1.2-3.85c-0.133,1.733,0.184,3.733,0.95,6
		c-1.233-1.267-2.233-3.034-3-5.3c-0.833-2.367-1.05-4.35-0.65-5.95C2.2,30.417,2,31.6,2.1,32.5c-1.967-4.967-0.917-9.433,3.15-13.4
		c3.267-3.2,7.617-5.417,13.05-6.65c4.934-1.133,11.383-1.8,19.35-2c3.067-0.067,7.55-0.333,13.45-0.8
		c6.033-0.467,10.5-0.733,13.4-0.8c2.733-0.067,6.6,0.2,11.6,0.8c5.2,0.633,9.1,0.95,11.7,0.95c6.3,0,15.767-0.067,28.4-0.2
		c11.233-0.066,20.7,0.067,28.399,0.4c7.634,0.333,13.851,0.75,18.65,1.25c6.866,0.7,13.017,1.717,18.45,3.05
		C185.6,16.067,188.1,16.767,189.2,17.2z"/>
	<path style="fill-rule:evenodd;clip-rule:evenodd;fill:#60B5B1;" d="M191.55,13.1c2.667,1.7,4.434,3.883,5.3,6.55
		c0.634,1.9,1,3.333,1.101,4.3c0.166,1.5,0,3.133-0.5,4.9c0-1.067-0.066-1.833-0.2-2.3c-0.2-0.7-0.65-1.45-1.35-2.25
		c-0.134,4.534-1.051,8.017-2.75,10.45c0.399-1.367,0.566-2.8,0.5-4.3c-0.067-1.567-0.351-2.967-0.851-4.2
		c0.134,1.4-0.316,2.867-1.35,4.4c-0.2-1.667-0.267-2.917-0.2-3.75c-0.434,1.233-1.517,2.283-3.25,3.15
		c-1.366,0.633-2.866,1.067-4.5,1.3c-0.167-0.5-0.184-0.983-0.05-1.45c-0.967,0.867-2.334,1.75-4.101,2.65
		c0.134-0.267,0.267-0.683,0.4-1.25c-1.634,0.867-3.15,1.583-4.55,2.15c0.7-0.467,1.283-1.15,1.75-2.05
		c0.267-0.6,0.533-1.417,0.8-2.45c-0.533,0.767-1.434,1.483-2.7,2.15c-0.467,0.233-1.533,0.7-3.2,1.4c0.2-0.7,0.351-1.5,0.45-2.4
		c-0.866,0.9-1.85,1.583-2.95,2.05c-1.466,0.6-2.6,0.483-3.399-0.35c0.133,0.133,0.3,0.367,0.5,0.7s0.383,0.567,0.55,0.7
		c-1.3-0.034-2.767-0.434-4.4-1.2c0.7,1.1,1.551,1.883,2.551,2.35c-3.407,0.595-5.799,0.187-7.176-1.225
		c0.333,0.836,0.741,1.544,1.226,2.125c-1.101,0-2.2-0.767-3.3-2.3c0.033,0.8-0.367,1.9-1.2,3.3c-0.8,1.333-1.15,2.417-1.05,3.25
		c-0.467-0.933-0.667-1.433-0.601-1.5c-0.899,0.867-1.483,2.167-1.75,3.9c-0.467-0.933-0.783-1.633-0.95-2.1
		c-0.3,1.3-0.449,3.083-0.449,5.35c-0.367-0.933-0.967-2.117-1.801-3.55c-0.966-1.667-1.6-2.8-1.899-3.4
		c0.434,1.466,0.649,2.216,0.649,2.25c0.233,0.933,0.284,1.683,0.15,2.25c-0.434-1.133-1.417-2.35-2.95-3.65
		c-1.666-1.4-2.733-2.517-3.2-3.35c0.5,1,0.95,1.8,1.351,2.4c-2.033-0.667-3.517-2.017-4.45-4.05c0.533,1.9,1.434,3.267,2.7,4.1
		c-2.101-0.733-4.25-2.35-6.45-4.85c0.233,0.733,0.616,1.55,1.15,2.45c-2.134-1.533-3.9-2.483-5.301-2.85
		c-2.833-0.133-4.267-0.217-4.3-0.25l0.45,0.7c-0.967,0-1.884-0.2-2.75-0.6c0.233,1,0.767,2,1.6,3c-2.133-0.467-3.583-0.8-4.35-1
		c-1.566-0.467-2.967-1.067-4.2-1.8c0.267,0.533,0.566,1.367,0.9,2.5c-2.4-2.233-5.267-3.133-8.601-2.7
		c-3.533,0.467-6.1,2.317-7.699,5.55c0-1,0.116-1.85,0.35-2.55c0.233-0.6,0.366-0.967,0.4-1.1c-2.467,0.467-3.95,3.117-4.45,7.95
		c-1.167-1.7-1.483-3.667-0.95-5.9c-0.033,0.1-0.533,0.333-1.5,0.7c-1.2,0.467-1.867,0.733-2,0.8
		c-2.099,1.082-3.474,2.307-4.125,3.675c-0.193-1.341,0.115-2.433,0.925-3.275c-0.667,0.4-1.45,0.933-2.35,1.6
		c-1.333,1-1.967,1.633-1.9,1.9c-0.333-0.533-0.5-1.033-0.5-1.5c-0.267,0.8-0.433,1.717-0.5,2.75c-0.867-0.434-1.5-1.1-1.9-2
		c-0.5,1.867-0.35,3.383,0.45,4.55c-2.1-1.633-3.517-3.35-4.25-5.15c-0.633,0.767-1.1,1.333-1.4,1.7
		c-0.534,0.667-0.917,1.283-1.15,1.85c-0.066-1.333,0.034-2.383,0.3-3.15c-0.434,0.367-1.483,1.017-3.15,1.95
		c-1.367,0.767-2.333,1.533-2.9,2.3c0.233-0.833,0.55-1.617,0.95-2.35c-1.933,1.5-3.15,2.817-3.65,3.95
		c-0.2-2.033-0.083-3.967,0.35-5.8c-0.534,0.433-1.967,1.167-4.3,2.2c-1.767,0.833-2.983,1.817-3.65,2.95
		c-0.733-1.167-1.367-2.3-1.9-3.4c-0.833,1.333-1.434,2.35-1.8,3.05c-0.6,1.2-0.9,2.333-0.9,3.4c-0.433-0.633-1.083-1.933-1.95-3.9
		c0,1.867,0.216,3.85,0.65,5.95c-0.267-0.467-1.217-1.934-2.85-4.4c-1.2-1.833-2-3.35-2.4-4.55c0.267,0.933,0.517,2.083,0.75,3.45
		c0.133,0.767,0.3,1.917,0.5,3.45c-1.9-2.6-3.35-4.617-4.35-6.05c-1.767-2.533-2.8-4.7-3.1-6.5
		c-0.394,1.182-0.452,2.607-0.175,4.275c-1.283-2.459-1.858-5.068-1.725-7.825c0.167-3.033,1.167-5.5,3-7.4
		c-1.033-0.3-3.167-0.017-6.4,0.85c-3.867,1.033-6.5,2.45-7.9,4.25c-0.133-0.633-0.067-1.3,0.2-2c0.3-0.7,0.483-1.2,0.55-1.5
		c-4.7,1.533-7.317,3.733-7.85,6.6c-0.5-1-0.75-2.083-0.75-3.25c-0.633,0.533-1.083,1.25-1.35,2.15c-0.033-0.867,0.05-1.7,0.25-2.5
		c-0.8,0.433-1.55,1.35-2.25,2.75c-0.433,0.767-0.95,1.867-1.55,3.3c0.033-1.267-0.5-3.383-1.6-6.35
		c-0.333,0.233-0.467,0.95-0.4,2.15c0.1,1.267-0.083,2.183-0.55,2.75c-0.133-0.934-0.617-1.75-1.45-2.45
		c-0.967-0.633-1.567-1.033-1.8-1.2c-0.033,0.2,0.017,0.583,0.15,1.15c0.133,0.533,0.167,0.9,0.1,1.1c-1.3-1-2.05-1.684-2.25-2.05
		c0,0.033,0.483,1.35,1.45,3.95c0.8,2.1,1.066,3.683,0.8,4.75c-0.3-1.2-1.433-3.2-3.4-6c-1.9-2.633-2.95-4.583-3.15-5.85
		c-0.167,0.967-0.05,2.233,0.35,3.8c0.433,1.7,1.066,3.117,1.9,4.25c-2.233-2.033-3.8-4.4-4.7-7.1c-0.867-2.6-0.9-4.883-0.1-6.85
		c-0.867,1.066-1.433,2.3-1.7,3.7c-1.233-3.933,0.783-7.566,6.05-10.9c3.967-2.5,8.283-4.167,12.95-5
		C32.517,8,47.117,6.85,63.15,6.95c1.033,0.033,7.367,0.167,19,0.4c7.3,0.133,13.317,0.1,18.05-0.1
		c4.133-0.167,11.483-0.583,22.05-1.25c10.167-0.533,18.767-0.783,25.8-0.75C169.017,5.317,183.517,7.933,191.55,13.1z"/>
	<path style="fill-rule:evenodd;clip-rule:evenodd;fill:#3E9A9D;" d="M182.65,8.4c10.033,3.167,13.399,7.317,10.1,12.45
		c-1.634,2.5-4.483,4.217-8.55,5.15c-3.434,0.8-6.816,0.933-10.15,0.4c-1.1-0.167-3.5-0.917-7.2-2.25
		c-2.899-1.066-5.366-1.5-7.399-1.3c-1.834,0.167-3.851,1.083-6.05,2.75c-2.5,1.833-4.417,2.933-5.75,3.3c-2.7,0.767-6,0.8-9.9,0.1
		c-4.467-1.067-7.733-1.85-9.8-2.35c-4.634-1.333-8.066-2.233-10.3-2.7c-3.767-0.833-7.267-0.9-10.5-0.2
		c-2.367,0.5-5.417,1.85-9.15,4.05c-4.033,2.367-7.033,3.85-9,4.45c-2.033,0.633-4.8,0.65-8.3,0.05c-3.7-0.633-6.367-0.783-8-0.45
		c-0.9,0.167-3.85,1.183-8.85,3.05c-3.3,1.2-6.417,1.567-9.35,1.1c-4.067-0.667-7.033-2.383-8.9-5.15
		c-2.133-3.133-0.517-5.717,4.85-7.75c-4.133-1.867-9.867-2.133-17.2-0.8c-9.633,1.733-15.517,2.55-17.65,2.45
		c-3.5-0.133-6.333-0.95-8.5-2.45c-2.5-1.767-2.833-3.917-1-6.45c1.833-2.533,4.667-4.517,8.5-5.95
		c2.167-0.833,5.483-1.816,9.95-2.95c1.5-0.467,4.534-1.217,9.1-2.25c4.133-0.9,9.067-1.633,14.8-2.2
		c1.367-0.133,6.35-0.533,14.95-1.2c23.467-1.733,43.317-1.75,59.55-0.05c3.467,0.367,9.833,0.817,19.1,1.35
		c8.101,0.433,14.45,0.967,19.05,1.6c5.434,0.767,8.334,1.183,8.7,1.25C174.833,6.283,179.116,7.267,182.65,8.4z"/>
	<path style="fill-rule:evenodd;clip-rule:evenodd;fill:#3E9A9D;" d="M108.65,25.05c4.267-0.733,6.517-0.133,6.75,1.8
		c0.199,1.967-1.983,3.3-6.551,4c-4.633,0.733-6.983,0.15-7.05-1.75C101.767,27.2,104.05,25.85,108.65,25.05z"/>
	<path style="fill-rule:evenodd;clip-rule:evenodd;fill:#3E9A9D;" d="M73.95,33.3c2.267-0.466,3.466-0.066,3.6,1.2
		c0.1,1.267-1.066,2.133-3.5,2.6c-2.466,0.467-3.716,0.083-3.75-1.15C70.267,34.717,71.483,33.833,73.95,33.3z"/>
	<path style="fill-rule:evenodd;clip-rule:evenodd;fill:#3E9A9D;" d="M167.25,25.4c2.767,0.7,3.967,1.667,3.6,2.9
		c-0.399,1.2-2.066,1.4-5,0.6c-2.966-0.8-4.216-1.767-3.75-2.9C162.566,24.833,164.283,24.633,167.25,25.4z"/>
	<g>
		
			<use xlink:href="#flash0.ai_x2F_Layer_3_x2F__x3C_Path_x3E__x5F_1"  width="7.754" height="13.821" x="-0.002" y="-13.811" transform="matrix(1 0 0 -1 96.2998 79.5498)" style="overflow:visible;opacity:0.2891;enable-background:new    ;"/>
		
			<radialGradient id="SVGID_9_" cx="108.6484" cy="83.4863" r="6.1205" gradientTransform="matrix(0.9966 0.0819 0.1488 -1.8116 -19.2561 234.4477)" gradientUnits="userSpaceOnUse">
			<stop  offset="0" style="stop-color:#43485A"/>
			<stop  offset="0.4314" style="stop-color:#3D294D"/>
			<stop  offset="0.4392" style="stop-color:#3C294C"/>
			<stop  offset="0.6627" style="stop-color:#281E2F"/>
			<stop  offset="0.8588" style="stop-color:#1B171D"/>
			<stop  offset="1" style="stop-color:#171517"/>
		</radialGradient>
		<path style="fill-rule:evenodd;clip-rule:evenodd;fill:url(#SVGID_9_);" d="M102.75,86.15c-0.134,1.666-0.55,3.05-1.25,4.149
			c-0.733,1.134-1.533,1.667-2.4,1.601c-0.866-0.067-1.566-0.717-2.1-1.95c-0.5-1.233-0.683-2.684-0.55-4.351
			c0.167-1.666,0.6-3.05,1.3-4.149c0.7-1.134,1.483-1.667,2.35-1.601c0.867,0.067,1.567,0.717,2.101,1.95
			S102.917,84.483,102.75,86.15z"/>
	</g>
	<g>
		
			<use xlink:href="#flash0.ai_x2F_Layer_3_x2F__x3C_Path_x3E__x5F_1_x5F_0"  width="5.75" height="8.86" x="-0.05" y="-8.88" transform="matrix(1 0 0 -1 170 42.7998)" style="overflow:visible;opacity:0.2891;enable-background:new    ;"/>
		
			<radialGradient id="SVGID_10_" cx="179.3945" cy="22.145" r="4.4203" gradientTransform="matrix(0.987 0.1608 0.2381 -1.4619 -8.8344 54.2311)" gradientUnits="userSpaceOnUse">
			<stop  offset="0" style="stop-color:#43485A"/>
			<stop  offset="0.4314" style="stop-color:#3D294D"/>
			<stop  offset="0.4392" style="stop-color:#3C294C"/>
			<stop  offset="0.6627" style="stop-color:#281E2F"/>
			<stop  offset="0.8588" style="stop-color:#1B171D"/>
			<stop  offset="1" style="stop-color:#171517"/>
		</radialGradient>
		<path style="fill-rule:evenodd;clip-rule:evenodd;fill:url(#SVGID_10_);" d="M174.65,47.3c-0.134,0.967-0.483,1.767-1.051,2.4
			c-0.533,0.6-1.116,0.85-1.75,0.75c-0.633-0.1-1.116-0.534-1.449-1.3c-0.301-0.767-0.384-1.633-0.25-2.6
			c0.166-0.966,0.533-1.767,1.1-2.4c0.533-0.6,1.116-0.85,1.75-0.75s1.116,0.533,1.45,1.3C174.75,45.467,174.816,46.333,174.65,47.3
			z"/>
	</g>
	
		<use xlink:href="#flash0.ai_x2F_Layer_3_x2F__x3C_Path_x3E__x5F_40"  width="6.179" height="6.006" x="-0.011" y="-6" transform="matrix(1 0 0 -1 119.5498 84.3496)" style="overflow:visible;opacity:0.6289;enable-background:new    ;"/>
	
		<use xlink:href="#flash0.ai_x2F_Layer_3_x2F__x3C_Path_x3E__x5F_39"  width="7.955" height="7.924" x="-0.003" y="-7.886" transform="matrix(1 0 0 -1 30.6499 102.1504)" style="overflow:visible;opacity:0.6289;enable-background:new    ;"/>
	
		<use xlink:href="#flash0.ai_x2F_Layer_3_x2F__x3C_Path_x3E__x5F_38"  width="5.78" height="5.614" x="-0.012" y="-5.6" transform="matrix(1 0 0 -1 62.75 74)" style="overflow:visible;opacity:0.6289;enable-background:new    ;"/>
	
		<use xlink:href="#flash0.ai_x2F_Layer_3_x2F__x3C_Path_x3E__x5F_37"  width="5.768" height="5.614" x="0.037" y="-5.6" transform="matrix(1 0 0 -1 84.25 111.25)" style="overflow:visible;opacity:0.6289;enable-background:new    ;"/>
	
		<use xlink:href="#flash0.ai_x2F_Layer_3_x2F__x3C_Path_x3E__x5F_36"  width="6.939" height="6.752" x="0.025" y="-6.752" transform="matrix(1 0 0 -1 34.6499 57.7998)" style="overflow:visible;opacity:0.6289;enable-background:new    ;"/>
	
		<use xlink:href="#flash0.ai_x2F_Layer_3_x2F__x3C_Path_x3E__x5F_35"  width="8.881" height="8.65" x="-0.018" y="-8.65" transform="matrix(1 0 0 -1 100.5 48.3999)" style="overflow:visible;opacity:0.6289;enable-background:new    ;"/>
	
		<use xlink:href="#flash0.ai_x2F_Layer_3_x2F__x3C_Path_x3E__x5F_34"  width="8.831" height="8.65" x="0.032" y="-8.65" transform="matrix(1 0 0 -1 75.8501 103.4004)" style="overflow:visible;opacity:0.6289;enable-background:new    ;"/>
	
		<use xlink:href="#flash0.ai_x2F_Layer_3_x2F__x3C_Path_x3E__x5F_33"  width="3.206" height="3.117" x="-0.006" y="-3.15" transform="matrix(1 0 0 -1 67.9502 81.2998)" style="overflow:visible;opacity:0.6289;enable-background:new    ;"/>
	
		<use xlink:href="#flash0.ai_x2F_Layer_3_x2F__x3C_Path_x3E__x5F_32"  width="3.214" height="3.117" x="-0.006" y="-3.15" transform="matrix(1 0 0 -1 166.4004 104.1504)" style="overflow:visible;opacity:0.6289;enable-background:new    ;"/>
	
		<use xlink:href="#flash0.ai_x2F_Layer_3_x2F__x3C_Path_x3E__x5F_31"  width="3.214" height="3.117" x="-0.006" y="-3.1" transform="matrix(1 0 0 -1 39.5498 102.4004)" style="overflow:visible;opacity:0.6289;enable-background:new    ;"/>
	
		<use xlink:href="#flash0.ai_x2F_Layer_3_x2F__x3C_Path_x3E__x5F_30"  width="3.164" height="3.117" x="0.044" y="-3.1" transform="matrix(1 0 0 -1 80.5498 54.5)" style="overflow:visible;opacity:0.6289;enable-background:new    ;"/>
	
		<use xlink:href="#flash0.ai_x2F_Layer_3_x2F__x3C_Path_x3E__x5F_29"  width="3.364" height="3.84" x="-0.006" y="-3.85" transform="matrix(1 0 0 -1 106.9004 56.75)" style="overflow:visible;opacity:0.6289;enable-background:new    ;"/>
	
		<use xlink:href="#flash0.ai_x2F_Layer_3_x2F__x3C_Path_x3E__x5F_28"  width="3.414" height="3.89" x="-0.006" y="-3.9" transform="matrix(1 0 0 -1 27.7002 84.9004)" style="overflow:visible;opacity:0.6289;enable-background:new    ;"/>
	
		<use xlink:href="#flash0.ai_x2F_Layer_3_x2F__x3C_Path_x3E__x5F_27"  width="3.414" height="3.89" x="-0.006" y="-3.9" transform="matrix(1 0 0 -1 87.6001 105.2998)" style="overflow:visible;opacity:0.6289;enable-background:new    ;"/>
	
		<use xlink:href="#flash0.ai_x2F_Layer_3_x2F__x3C_Path_x3E__x5F_26"  width="4.92" height="4.833" x="-0.013" y="-4.8" transform="matrix(1 0 0 -1 101.5 59.8999)" style="overflow:visible;opacity:0.6289;enable-background:new    ;"/>
	
		<use xlink:href="#flash0.ai_x2F_Layer_3_x2F__x3C_Path_x3E__x5F_25"  width="3.309" height="3.222" x="-0.01" y="-3.205" transform="matrix(1 0 0 -1 21.1001 58.7998)" style="overflow:visible;opacity:0.6289;enable-background:new    ;"/>
	
		<use xlink:href="#flash0.ai_x2F_Layer_3_x2F__x3C_Path_x3E__x5F_24"  width="7.728" height="7.678" x="-0.008" y="-7.653" transform="matrix(1 0 0 -1 24.5498 61.2002)" style="overflow:visible;opacity:0.6289;enable-background:new    ;"/>
	
		<use xlink:href="#flash0.ai_x2F_Layer_3_x2F__x3C_Path_x3E__x5F_23"  width="9.679" height="9.423" x="-0.017" y="-9.45" transform="matrix(1 0 0 -1 71.6499 69.2002)" style="overflow:visible;opacity:0.6289;enable-background:new    ;"/>
	
		<use xlink:href="#flash0.ai_x2F_Layer_3_x2F__x3C_Path_x3E__x5F_22"  width="13.07" height="13.135" x="-0.002" y="-13.103" transform="matrix(1 0 0 -1 23.6499 46.8501)" style="overflow:visible;opacity:0.6289;enable-background:new    ;"/>
	
		<use xlink:href="#flash0.ai_x2F_Layer_3_x2F__x3C_Path_x3E__x5F_21"  width="15.347" height="14.991" x="-0.047" y="-14.977" transform="matrix(1 0 0 -1 54.7998 83.3496)" style="overflow:visible;opacity:0.6289;enable-background:new    ;"/>
	<g>
		<g>
			
				<use xlink:href="#flash0.ai_x2F_Layer_3_x2F__x3C_Path_x3E__x5F_1_x5F_1"  width="14.164" height="20.391" x="-0.007" y="-20.371" transform="matrix(1 0 0 -1 83 58.5498)" style="overflow:visible;opacity:0.2891;enable-background:new    ;"/>
			
				<radialGradient id="SVGID_11_" cx="99.5195" cy="70.0801" r="12.4049" gradientTransform="matrix(0.9966 0.0825 0.1161 -1.4027 -13.9157 168.1389)" gradientUnits="userSpaceOnUse">
				<stop  offset="0" style="stop-color:#43485A"/>
				<stop  offset="0.4314" style="stop-color:#3D2940"/>
				<stop  offset="0.6" style="stop-color:#2D212F"/>
				<stop  offset="0.8314" style="stop-color:#1D181D"/>
				<stop  offset="1" style="stop-color:#171517"/>
			</radialGradient>
			<path style="fill-rule:evenodd;clip-rule:evenodd;fill:url(#SVGID_11_);" d="M95.8,68.75c-0.2,2.6-1,4.767-2.4,6.5
				c-1.4,1.767-2.983,2.566-4.75,2.4c-1.767-0.134-3.2-1.184-4.3-3.15c-1.1-1.934-1.533-4.2-1.3-6.8
				c0.233-2.634,1.05-4.816,2.45-6.55c1.4-1.734,2.967-2.534,4.7-2.4c1.767,0.167,3.2,1.217,4.3,3.15
				C95.6,63.833,96.033,66.116,95.8,68.75z"/>
		</g>
		<g>
			
				<use xlink:href="#flash0.ai_x2F_Layer_3_x2F__x3C_Path_x3E__x5F_5"  width="4.65" height="5.1" y="-5.1" transform="matrix(1 0 0 -1 84.2998 64.4004)" style="overflow:visible;opacity:0.6289;enable-background:new    ;"/>
			
				<use xlink:href="#flash0.ai_x2F_Layer_3_x2F__x3C_Path_x3E__x5F_4"  width="4.7" height="4.9" y="-4.9" transform="matrix(1 0 0 -1 90 64.5)" style="overflow:visible;opacity:0.3516;enable-background:new    ;"/>
			
				<use xlink:href="#flash0.ai_x2F_Layer_3_x2F__x3C_Path_x3E__x5F_3"  width="2.9" height="2.9" y="-2.9" transform="matrix(1 0 0 -1 85.6001 65.8496)" style="overflow:visible;opacity:0.3789;enable-background:new    ;"/>
			
				<use xlink:href="#flash0.ai_x2F_Layer_3_x2F__x3C_Path_x3E__x5F_2"  width="2.9" height="2.9" y="-2.9" transform="matrix(1 0 0 -1 91.25 65.8496)" style="overflow:visible;opacity:0.3789;enable-background:new    ;"/>
			
				<use xlink:href="#flash0.ai_x2F_Layer_3_x2F__x3C_Path_x3E__x5F_1_x5F_2"  width="3.662" height="3.409" x="0.005" y="-3.404" transform="matrix(1 0 0 -1 91.4502 66.2998)" style="overflow:visible;opacity:0.0898;enable-background:new    ;"/>
			
				<use xlink:href="#flash0.ai_x2F_Layer_3_x2F__x3C_Path_x3E_"  width="3.64" height="3.36" x="0.005" y="-3.355" transform="matrix(1 0 0 -1 85.6499 66.2002)" style="overflow:visible;opacity:0.0898;enable-background:new    ;"/>
		</g>
	</g>
	<g>
		
			<use xlink:href="#flash0.ai_x2F_Layer_3_x2F__x3C_Path_x3E__x5F_1_x5F_3"  width="12.235" height="18.707" x="0.011" y="-18.721" transform="matrix(1 0 0 -1 164.2998 52.5498)" style="overflow:visible;opacity:0.2891;enable-background:new    ;"/>
		
			<radialGradient id="SVGID_12_" cx="182.2275" cy="35.9771" r="10.11" gradientTransform="matrix(0.9817 0.1903 0.2919 -1.5059 -17.3497 89.4977)" gradientUnits="userSpaceOnUse">
			<stop  offset="0" style="stop-color:#43485A"/>
			<stop  offset="0.4353" style="stop-color:#30295E"/>
			<stop  offset="0.5333" style="stop-color:#2A244C"/>
			<stop  offset="0.7216" style="stop-color:#1F1C2F"/>
			<stop  offset="0.8824" style="stop-color:#19171D"/>
			<stop  offset="1" style="stop-color:#171517"/>
		</radialGradient>
		<path style="fill-rule:evenodd;clip-rule:evenodd;fill:url(#SVGID_12_);" d="M174.95,62c-0.434,2.267-1.3,4.116-2.601,5.55
			c-1.333,1.4-2.699,1.967-4.1,1.7c-1.434-0.267-2.483-1.3-3.15-3.1C164.4,64.35,164.267,62.3,164.7,60
			c0.467-2.267,1.35-4.117,2.649-5.55c1.301-1.434,2.667-2.017,4.101-1.75c1.434,0.267,2.483,1.316,3.149,3.15
			C175.3,57.65,175.417,59.7,174.95,62z"/>
	</g>
	
		<use xlink:href="#flash0.ai_x2F_Layer_3_x2F__x3C_Path_x3E__x5F_20"  width="8.083" height="7.856" x="0.031" y="-7.85" transform="matrix(1 0 0 -1 159.0996 74.5996)" style="overflow:visible;opacity:0.6289;enable-background:new    ;"/>
	
		<use xlink:href="#flash0.ai_x2F_Layer_3_x2F__x3C_Path_x3E__x5F_19"  width="9.086" height="9.293" x="-0.002" y="-9.304" transform="matrix(1 0 0 -1 150.1504 83.3496)" style="overflow:visible;opacity:0.6289;enable-background:new    ;"/>
	
		<use xlink:href="#flash0.ai_x2F_Layer_3_x2F__x3C_Path_x3E__x5F_18"  width="9.116" height="9.292" x="-0.002" y="-9.254" transform="matrix(1 0 0 -1 110.6504 97.3496)" style="overflow:visible;opacity:0.6289;enable-background:new    ;"/>
	
		<use xlink:href="#flash0.ai_x2F_Layer_3_x2F__x3C_Path_x3E__x5F_17"  width="5.917" height="5.734" x="-0.012" y="-5.7" transform="matrix(1 0 0 -1 151.5498 70.7002)" style="overflow:visible;opacity:0.6289;enable-background:new    ;"/>
	
		<use xlink:href="#flash0.ai_x2F_Layer_3_x2F__x3C_Path_x3E__x5F_16"  width="5.88" height="5.733" x="-0.012" y="-5.75" transform="matrix(1 0 0 -1 119.8496 108.5996)" style="overflow:visible;opacity:0.6289;enable-background:new    ;"/>
	
		<use xlink:href="#flash0.ai_x2F_Layer_3_x2F__x3C_Path_x3E__x5F_15"  width="5.88" height="5.733" x="-0.012" y="-5.75" transform="matrix(1 0 0 -1 112.1504 64.5996)" style="overflow:visible;opacity:0.6289;enable-background:new    ;"/>
	
		<use xlink:href="#flash0.ai_x2F_Layer_3_x2F__x3C_Path_x3E__x5F_14"  width="9.33" height="9.073" x="-0.017" y="-9.05" transform="matrix(1 0 0 -1 134.2998 59.2002)" style="overflow:visible;opacity:0.6289;enable-background:new    ;"/>
	
		<use xlink:href="#flash0.ai_x2F_Layer_3_x2F__x3C_Path_x3E__x5F_13"  width="9.292" height="9.073" x="0.021" y="-9.1" transform="matrix(1 0 0 -1 156.4502 105.9502)" style="overflow:visible;opacity:0.6289;enable-background:new    ;"/>
	
		<use xlink:href="#flash0.ai_x2F_Layer_3_x2F__x3C_Path_x3E__x5F_12"  width="13.64" height="13.358" x="0.01" y="-13.32" transform="matrix(1 0 0 -1 120.75 63.5)" style="overflow:visible;opacity:0.6289;enable-background:new    ;"/>
	
		<use xlink:href="#flash0.ai_x2F_Layer_3_x2F__x3C_Path_x3E__x5F_11"  width="18.33" height="17.871" x="-0.03" y="-17.883" transform="matrix(1 0 0 -1 133.5498 70.7002)" style="overflow:visible;opacity:0.6289;enable-background:new    ;"/>
	
		<use xlink:href="#flash0.ai_x2F_Layer_3_x2F__x3C_Path_x3E__x5F_10"  width="8.083" height="7.9" x="0.031" y="-7.9" transform="matrix(1 0 0 -1 35.2998 77.8496)" style="overflow:visible;opacity:0.6289;enable-background:new    ;"/>
	
		<use xlink:href="#flash0.ai_x2F_Layer_3_x2F__x3C_Path_x3E__x5F_9"  width="4.472" height="4.383" x="0.035" y="-4.35" transform="matrix(1 0 0 -1 172.25 72.9004)" style="overflow:visible;opacity:0.6289;enable-background:new    ;"/>
	
		<use xlink:href="#flash0.ai_x2F_Layer_3_x2F__x3C_Path_x3E__x5F_8"  width="4.472" height="4.34" x="0.035" y="-4.35" transform="matrix(1 0 0 -1 160.0498 100.5996)" style="overflow:visible;opacity:0.6289;enable-background:new    ;"/>
	
		<use xlink:href="#flash0.ai_x2F_Layer_3_x2F__x3C_Path_x3E__x5F_7"  width="4.471" height="4.39" x="-0.014" y="-4.4" transform="matrix(1 0 0 -1 134.7998 106.3496)" style="overflow:visible;opacity:0.6289;enable-background:new    ;"/>
	
		<use xlink:href="#flash0.ai_x2F_Layer_3_x2F__x3C_Path_x3E__x5F_6"  width="4.471" height="4.39" x="-0.014" y="-4.4" transform="matrix(1 0 0 -1 177.5 48.7998)" style="overflow:visible;opacity:0.6289;enable-background:new    ;"/>
	
		<use xlink:href="#flash0.ai_x2F_Layer_3_x2F__x3C_Path_x3E__x5F_5_x5F_0"  width="4.471" height="4.383" x="-0.014" y="-4.35" transform="matrix(1 0 0 -1 75.8999 81.75)" style="overflow:visible;opacity:0.6289;enable-background:new    ;"/>
	
		<use xlink:href="#flash0.ai_x2F_Layer_3_x2F__x3C_Path_x3E__x5F_4_x5F_0"  width="4.51" height="4.383" x="-0.004" y="-4.35" transform="matrix(1 0 0 -1 39.0498 111.25)" style="overflow:visible;opacity:0.6289;enable-background:new    ;"/>
	
		<use xlink:href="#flash0.ai_x2F_Layer_3_x2F__x3C_Path_x3E__x5F_3_x5F_0"  width="5.879" height="5.714" x="0.026" y="-5.7" transform="matrix(1 0 0 -1 38.3501 88.5996)" style="overflow:visible;opacity:0.6289;enable-background:new    ;"/>
	
		<use xlink:href="#flash0.ai_x2F_Layer_3_x2F__x3C_Path_x3E__x5F_2_x5F_0"  width="12.782" height="12.705" x="0.02" y="-12.704" transform="matrix(1 0 0 -1 53.3999 59.2002)" style="overflow:visible;opacity:0.6289;enable-background:new    ;"/>
	
		<use xlink:href="#flash0.ai_x2F_Layer_3_x2F__x3C_Path_x3E__x5F_1_x5F_4"  width="13.636" height="13.319" x="0.015" y="-13.33" transform="matrix(1 0 0 -1 148.0996 52.25)" style="overflow:visible;opacity:0.6289;enable-background:new    ;"/>
	
		<use xlink:href="#flash0.ai_x2F_Layer_3_x2F__x3C_Path_x3E__x5F_0"  width="5.669" height="5.777" x="0.043" y="-5.773" transform="matrix(1 0 0 -1 86.4502 82)" style="overflow:visible;opacity:0.6289;enable-background:new    ;"/>
</g>
</svg>
