<?xml version="1.0" encoding="iso-8859-1"?>
<!-- Generator: Adobe Illustrator 15.1.0, SVG Export Plug-In . SVG Version: 6.00 Build 0)  -->
<!DOCTYPE svg PUBLIC "-//W3C//DTD SVG 1.1//EN" "http://www.w3.org/Graphics/SVG/1.1/DTD/svg11.dtd">
<svg version="1.1" id="Layer_3" xmlns="http://www.w3.org/2000/svg" xmlns:xlink="http://www.w3.org/1999/xlink" x="0px" y="0px"
	 width="95.45px" height="60.7px" viewBox="0 0 95.45 60.7" style="enable-background:new 0 0 95.45 60.7;" xml:space="preserve">
<symbol  id="flash0.ai_x2F_Layer_3_x2F__x3C_Path_x3E_" viewBox="-0.013 -3.272 1.164 3.305">
	<g id="Layer_1_2_">
		
			<linearGradient id="SVGID_1_" gradientUnits="userSpaceOnUse" x1="18715.3672" y1="-3566.3164" x2="18719.2617" y2="-3566.3164" gradientTransform="matrix(-0.3659 0.9307 -0.9307 -0.3659 3529.6309 -18727.0449)">
			<stop  offset="0" style="stop-color:#217387"/>
			<stop  offset="0.5216" style="stop-color:#4BABA7"/>
			<stop  offset="1" style="stop-color:#BFDEBF"/>
		</linearGradient>
		<path style="fill-rule:evenodd;clip-rule:evenodd;fill:url(#SVGID_1_);" d="M0.95-1.4c0.267-1.067,0.267-1.684,0-1.85
			C0.717-3.383,0.467-2.917,0.2-1.85C-0.067-0.783-0.083-0.167,0.15,0C0.417,0.167,0.683-0.3,0.95-1.4z"/>
	</g>
</symbol>
<symbol  id="flash0.ai_x2F_Layer_3_x2F__x3C_Path_x3E__x5F_0" viewBox="0.012 -3.313 1.052 3.345">
	<g id="Layer_1_3_">
		
			<linearGradient id="SVGID_2_" gradientUnits="userSpaceOnUse" x1="18447.6895" y1="-2993.7778" x2="18451.5879" y2="-2993.7778" gradientTransform="matrix(-0.3143 0.9493 -0.9493 -0.3143 2957.5737 -18458.2578)">
			<stop  offset="0" style="stop-color:#217387"/>
			<stop  offset="0.5216" style="stop-color:#4BABA7"/>
			<stop  offset="1" style="stop-color:#BFDEBF"/>
		</linearGradient>
		<path style="fill-rule:evenodd;clip-rule:evenodd;fill:url(#SVGID_2_);" d="M0.9-1.45c0.233-1.1,0.217-1.716-0.05-1.85
			c-0.267-0.1-0.5,0.383-0.7,1.45C-0.05-0.783-0.033-0.167,0.2,0C0.467,0.167,0.7-0.317,0.9-1.45z"/>
	</g>
</symbol>
<symbol  id="flash0.ai_x2F_Layer_3_x2F__x3C_Path_x3E__x5F_1" viewBox="-0.038 -2.613 3.388 2.608">
	<g id="Layer_1_6_">
		<path style="fill-rule:evenodd;clip-rule:evenodd;fill:#C7D8D5;" d="M2.25-0.15c0.7,0.233,1.067,0.183,1.1-0.15
			c0-0.333-0.2-0.617-0.6-0.85C2.35-1.517,2-1.817,1.7-2.05C1.133-2.483,0.667-2.667,0.3-2.6c-0.466,0.1-0.45,0.45,0.05,1.05
			C0.817-0.917,1.45-0.45,2.25-0.15z"/>
	</g>
</symbol>
<symbol  id="flash0.ai_x2F_Layer_3_x2F__x3C_Path_x3E__x5F_1_x5F_0" viewBox="-0.012 -13.4 9.917 13.42">
	<g id="Layer_1_7_">
		<path style="fill-rule:evenodd;clip-rule:evenodd;fill:#C7D8D5;" d="M3.65,0C4.817-0.133,5.767-0.65,6.5-1.55
			c1.5-1.867,2.517-4.4,3.05-7.6c0.267-1.6,0.383-3.017,0.35-4.25C9.233-8.2,7.933-4.633,6-2.7C5.167-1.833,4.217-1.367,3.15-1.3
			C2.717-1.267,1.9-1.333,0.7-1.5C0.367-1.567,0.15-1.517,0.05-1.35C-0.083-1.217,0-1.05,0.3-0.85C1.4-0.183,2.517,0.1,3.65,0z"/>
	</g>
</symbol>
<symbol  id="flash0.ai_x2F_Layer_3_x2F__x3C_Path_x3E__x5F_2" viewBox="-0.003 -7.516 2.003 7.483">
	<g id="Layer_1_5_">
		<path style="fill-rule:evenodd;clip-rule:evenodd;fill:#B0D8D5;" d="M0.4-6.3C0.133-5.767,0-4.967,0-3.9
			c-0.033,1.4,0.25,2.6,0.85,3.6C1.083,0.1,1.167,0.05,1.1-0.45C1.067-0.717,1-1.183,0.9-1.85C0.833-3.25,1.117-4.633,1.75-6
			c0.333-0.7,0.333-1.183,0-1.45C1.383-7.683,0.933-7.3,0.4-6.3z"/>
	</g>
</symbol>
<symbol  id="flash0.ai_x2F_Layer_3_x2F__x3C_Path_x3E__x5F_3" viewBox="-0.002 -13.35 14.002 13.35">
	<g id="Layer_1_4_">
		<path style="fill-rule:evenodd;clip-rule:evenodd;fill:#C7D8D5;" d="M8.7-4.45c2.133-2.566,3.9-5.533,5.3-8.9
			c-2,4-4.217,7.017-6.65,9.05c-1.934,1.633-3.833,2.517-5.7,2.65C0.617-1.55,0.067-1.25,0-0.75C-0.033-0.25,0.317,0,1.05,0
			C2.617,0,4.067-0.45,5.4-1.35C6.433-2.017,7.533-3.05,8.7-4.45z"/>
	</g>
</symbol>
<symbol  id="flash0.ai_x2F_Layer_3_x2F__x3C_Path_x3E__x5F_4" viewBox="-0.04 -1.857 2.246 1.912">
	<g id="Layer_1_8_">
		<path style="fill-rule:evenodd;clip-rule:evenodd;fill:#C7D8D5;" d="M2.1-0.5C1.833-1.067,1.35-1.483,0.65-1.75
			C-0.017-1.983-0.2-1.833,0.1-1.3c0.267,0.533,0.7,0.933,1.3,1.2C2.133,0.2,2.367,0.067,2.1-0.5z"/>
	</g>
</symbol>
<g>
	
		<linearGradient id="SVGID_3_" gradientUnits="userSpaceOnUse" x1="9.1826" y1="66.8408" x2="47.0562" y2="66.8408" gradientTransform="matrix(0.6924 -0.7215 0.7215 0.6924 -1.872778e-004 1.946092e-004)">
		<stop  offset="0.0235" style="stop-color:#281C23"/>
		<stop  offset="0.2824" style="stop-color:#281D26"/>
		<stop  offset="0.4745" style="stop-color:#292230"/>
		<stop  offset="0.6471" style="stop-color:#2A2A40"/>
		<stop  offset="0.8078" style="stop-color:#2C3457"/>
		<stop  offset="0.9608" style="stop-color:#2E4274"/>
		<stop  offset="0.9882" style="stop-color:#2E457A"/>
	</linearGradient>
	<path style="fill-rule:evenodd;clip-rule:evenodd;fill:url(#SVGID_3_);" d="M51.9,47.25C51.1,50.616,50.5,53.533,50.1,56l-3.2-2.9
		c0.833-2.933,1.833-6.133,3-9.6c2.3-7,4.267-11.9,5.899-14.7c2.566-4.433,5.5-8.133,8.8-11.1c2.9-2.6,5.65-4.317,8.25-5.15
		c-1.6,0.667-3.449,1.9-5.55,3.7c-4.233,3.633-7.583,8.317-10.05,14.05C55.283,34.866,53.5,40.517,51.9,47.25z"/>
	<linearGradient id="SVGID_4_" gradientUnits="userSpaceOnUse" x1="50.0371" y1="34.0254" x2="73.2621" y2="34.0254">
		<stop  offset="0.0235" style="stop-color:#281C23"/>
		<stop  offset="0.2824" style="stop-color:#281D26"/>
		<stop  offset="0.4745" style="stop-color:#292230"/>
		<stop  offset="0.6471" style="stop-color:#2A2A40"/>
		<stop  offset="0.8078" style="stop-color:#2C3457"/>
		<stop  offset="0.9608" style="stop-color:#2E4274"/>
		<stop  offset="0.9882" style="stop-color:#2E457A"/>
	</linearGradient>
	<path style="fill-rule:evenodd;clip-rule:evenodd;fill:url(#SVGID_4_);" d="M50,43.65c3.667-6.434,6.684-10.801,9.05-13.101
		c4.167-4.066,8.9-6.6,14.2-7.6c-1.333,0.333-2.9,0.95-4.7,1.85c-3.566,1.833-6.467,4.2-8.7,7.101C58.083,34.2,56.4,37.1,54.8,40.6
		c-0.8,1.733-1.434,3.233-1.899,4.5L50,43.65z"/>
	<path style="fill-rule:evenodd;clip-rule:evenodd;fill:#20141B;" d="M28.25,46.3l-2.65,2.15c-0.333-1.967-0.85-4.283-1.55-6.95
		c-1.333-5.3-2.816-9.667-4.45-13.1c-2.033-4.267-4.767-7.617-8.2-10.05l-4.5-2.4c4.867,1.433,9.217,5.167,13.05,11.2
		C22.117,30.517,24.883,36.9,28.25,46.3z"/>
	
		<linearGradient id="SVGID_5_" gradientUnits="userSpaceOnUse" x1="-39.2017" y1="4.4678" x2="9.6649" y2="4.4678" gradientTransform="matrix(-0.4962 -0.8682 0.8492 -0.5294 -5.316734e-005 -6.254315e-004)">
		<stop  offset="0.0235" style="stop-color:#281C23"/>
		<stop  offset="0.2863" style="stop-color:#281F26"/>
		<stop  offset="0.4824" style="stop-color:#292730"/>
		<stop  offset="0.6549" style="stop-color:#2A3640"/>
		<stop  offset="0.8196" style="stop-color:#2C4B57"/>
		<stop  offset="0.9725" style="stop-color:#2E6574"/>
		<stop  offset="1" style="stop-color:#2E6B7A"/>
	</linearGradient>
	<path style="fill-rule:evenodd;clip-rule:evenodd;fill:url(#SVGID_5_);" d="M24.3,40.55c-0.033-7.967-0.5-14.617-1.4-19.95
		c-1.133-6.667-3.316-12.15-6.55-16.45C14.928,2.254,13.587,0.871,12.325,0c2.282,1.515,4.391,3.598,6.325,6.25
		c2.567,3.567,4.583,7.917,6.05,13.05c0.966,3.367,1.767,9.267,2.4,17.7c0.3,4.2,0.517,8.066,0.65,11.6L24.1,50.9
		C24.267,48,24.333,44.55,24.3,40.55z"/>
	
		<linearGradient id="SVGID_6_" gradientUnits="userSpaceOnUse" x1="-55.4502" y1="20.5278" x2="-49.7069" y2="20.5278" gradientTransform="matrix(0.2228 -0.9749 0.9749 0.2228 -5.351752e-004 3.611743e-004)">
		<stop  offset="0.0039" style="stop-color:#43303A"/>
		<stop  offset="0.3804" style="stop-color:#433E50"/>
		<stop  offset="1" style="stop-color:#445A7C"/>
	</linearGradient>
	<path style="fill-rule:evenodd;clip-rule:evenodd;fill:url(#SVGID_6_);" d="M0,59.4C0,59.1,0.7,58.6,2.1,57.9
		c1.433-0.7,2.217-1.101,2.35-1.2c1.566-0.834,3.233-1.3,5-1.4c1.633-0.066,2.867,0.184,3.7,0.75c0.4,0.3,0.85,0.884,1.35,1.75
		c0.533,0.9,0.667,1.417,0.4,1.55C13,59.417,10.033,59.4,6,59.3C4.7,59.267,2.7,59.3,0,59.4z"/>
	<linearGradient id="SVGID_7_" gradientUnits="userSpaceOnUse" x1="18.772" y1="49.2539" x2="16.5955" y2="58.7786">
		<stop  offset="0" style="stop-color:#445A7C"/>
		<stop  offset="0.6196" style="stop-color:#433E50"/>
		<stop  offset="0.9961" style="stop-color:#43303A"/>
	</linearGradient>
	<path style="fill-rule:evenodd;clip-rule:evenodd;fill:url(#SVGID_7_);" d="M25.7,59.8c-3.534-0.166-6.15-0.217-7.85-0.149
		c-0.833,0.033-2.1-0.051-3.8-0.25c-2.066-0.233-3.533-0.367-4.4-0.4c-0.433-0.3-0.833-1.1-1.2-2.4C8.083,55.233,8.1,54.366,8.5,54
		c1.1-1,2.733-1.417,4.9-1.25c2.3,0.167,4.45,0.967,6.45,2.4c0.2,0.133,1.25,0.8,3.15,2C24.8,58.384,25.7,59.267,25.7,59.8z"/>
	
		<linearGradient id="SVGID_8_" gradientUnits="userSpaceOnUse" x1="-14.2324" y1="102.459" x2="-7.1888" y2="102.459" gradientTransform="matrix(0.4472 -0.8944 0.8944 0.4472 3.007054e-004 -3.457069e-004)">
		<stop  offset="0" style="stop-color:#2B2236"/>
		<stop  offset="0.4471" style="stop-color:#373132"/>
		<stop  offset="0.7059" style="stop-color:#42372F"/>
		<stop  offset="1" style="stop-color:#45392E"/>
	</linearGradient>
	<path style="fill-rule:evenodd;clip-rule:evenodd;fill:url(#SVGID_8_);" d="M95.45,59.35c-4.233-0.3-7.4-0.416-9.5-0.35
		c-1.566,0.1-2.767,0.167-3.601,0.2c-1.533,0.066-2.949,0.066-4.25,0c-0.433-0.3-0.833-1.101-1.199-2.4
		c-0.367-1.366-0.351-2.25,0.05-2.649c1.066-0.967,2.7-1.4,4.899-1.301c2.301,0.101,4.483,0.784,6.551,2.051
		c0.199,0.133,1.449,0.783,3.75,1.949C94.35,58.017,95.45,58.85,95.45,59.35z"/>
	
		<linearGradient id="SVGID_9_" gradientUnits="userSpaceOnUse" x1="-40.1802" y1="85.8008" x2="-18.6574" y2="85.8008" gradientTransform="matrix(0.2242 -0.9745 0.9745 0.2242 -2.784580e-004 -1.169145e-004)">
		<stop  offset="0.0235" style="stop-color:#2B1736"/>
		<stop  offset="0.2431" style="stop-color:#2C1A38"/>
		<stop  offset="0.4078" style="stop-color:#312440"/>
		<stop  offset="0.5529" style="stop-color:#39344D"/>
		<stop  offset="0.6902" style="stop-color:#444B60"/>
		<stop  offset="0.8157" style="stop-color:#526877"/>
		<stop  offset="0.8314" style="stop-color:#546B7A"/>
		<stop  offset="1" style="stop-color:#9CBAB5"/>
	</linearGradient>
	<path style="fill-rule:evenodd;clip-rule:evenodd;fill:url(#SVGID_9_);" d="M83.25,54.05c-0.033,2.2-0.35,3.884-0.95,5.05
		c-3.666,0.534-6.684,0.767-9.05,0.7c-0.3,0-1.316,0.017-3.05,0.05c-1.267,0.034-2.267-0.033-3-0.199
		c-1.467-0.367-0.467-3.101,3-8.2c2.366-3.5,4.399-5.717,6.1-6.65c2.3-1.3,4.184-0.45,5.65,2.55
		C82.85,49.25,83.283,51.483,83.25,54.05z"/>
	<linearGradient id="SVGID_10_" gradientUnits="userSpaceOnUse" x1="28.8726" y1="27.4043" x2="21.1744" y2="60.9797">
		<stop  offset="0" style="stop-color:#9CBAB5"/>
		<stop  offset="0.2118" style="stop-color:#54577A"/>
		<stop  offset="0.3294" style="stop-color:#41415E"/>
		<stop  offset="0.4627" style="stop-color:#322E48"/>
		<stop  offset="0.6039" style="stop-color:#272138"/>
		<stop  offset="0.7647" style="stop-color:#21192E"/>
		<stop  offset="0.9765" style="stop-color:#1F172B"/>
	</linearGradient>
	<path style="fill-rule:evenodd;clip-rule:evenodd;fill:url(#SVGID_10_);" d="M29,48.95c4.5,7,5.95,10.7,4.35,11.1
		c-0.9,0.233-2.033,0.334-3.4,0.3c-1.534-0.066-2.684-0.116-3.45-0.149c-1.2-0.033-2.033-0.084-2.5-0.15
		c-0.767-0.166-1.683-0.333-2.75-0.5c-2.4-1.833-4.533-4.983-6.4-9.45c-1.867-4.5-2.3-7.6-1.3-9.3c1.534-2.566,3.967-2.767,7.3-0.6
		C23.683,42.066,26.4,44.983,29,48.95z"/>
	<path style="fill-rule:evenodd;clip-rule:evenodd;fill:#20141B;" d="M21.9,39.8c-1.467-4.1-3.816-7.55-7.05-10.35l-4.4-3
		c5.3,2.4,9.5,6.583,12.6,12.55c1.733,3.366,4.267,10.316,7.6,20.85H25.9c-0.2-2.033-0.517-4.383-0.95-7.05
		C24.083,47.434,23.067,43.1,21.9,39.8z"/>
	
		<linearGradient id="SVGID_11_" gradientUnits="userSpaceOnUse" x1="-46.9551" y1="34.1445" x2="2.9822" y2="34.1445" gradientTransform="matrix(-0.0921 -0.9957 0.9957 -0.0921 1.104251e-004 -1.291782e-004)">
		<stop  offset="0" style="stop-color:#2B2236"/>
		<stop  offset="0.4471" style="stop-color:#373132"/>
		<stop  offset="0.7059" style="stop-color:#42372F"/>
		<stop  offset="1" style="stop-color:#45392E"/>
	</linearGradient>
	<path style="fill-rule:evenodd;clip-rule:evenodd;fill:url(#SVGID_11_);" d="M42.65,15.2c4.433,4,7.567,10.216,9.4,18.649
		c0.667,3.101,0.816,7.4,0.45,12.9c-0.434,6.2-1.45,10.45-3.05,12.75c-2.467,0.366-4.517,0.6-6.15,0.7c-2.1,0.1-4.05,0.2-5.85,0.3
		c-3,0.167-4.85,0.233-5.55,0.2c-1.566-0.033-2.533-0.367-2.9-1c-3.567-5.867-5.5-12.667-5.8-20.4c-0.3-7.6,1.033-13.933,4-19
		C32.067,12,37.217,10.3,42.65,15.2z"/>
	
		<linearGradient id="SVGID_12_" gradientUnits="userSpaceOnUse" x1="-52.1831" y1="36.8018" x2="11.6602" y2="36.8018" gradientTransform="matrix(-0.067 -0.9978 0.9978 -0.067 2.479926e-004 -5.297810e-004)">
		<stop  offset="0" style="stop-color:#2B2236"/>
		<stop  offset="0.8078" style="stop-color:#373132"/>
		<stop  offset="0.898" style="stop-color:#42372F"/>
		<stop  offset="1" style="stop-color:#45392E"/>
	</linearGradient>
	<path style="fill-rule:evenodd;clip-rule:evenodd;fill:url(#SVGID_12_);" d="M44.5,22.95c3.866,3.933,6.283,9.217,7.25,15.85
		c0.6,4.267,0.667,8.2,0.2,11.8c-0.467,3.534-1.367,6.267-2.7,8.2c-1.566,0.334-3.867,0.65-6.9,0.95c-3,0.267-5.267,0.566-6.8,0.9
		c-0.9,0.199-2.017-0.717-3.35-2.75c-1.7-2.634-3.117-6.467-4.25-11.5c-0.8-3.567-0.95-7.284-0.45-11.15
		c0.567-4.3,1.833-7.8,3.8-10.5C35.567,18.917,39.967,18.317,44.5,22.95z"/>
	
		<linearGradient id="SVGID_13_" gradientUnits="userSpaceOnUse" x1="-63.6812" y1="36.5918" x2="-8.7971" y2="36.5918" gradientTransform="matrix(-0.0761 -0.9971 0.9971 -0.0761 -6.891787e-005 2.306625e-004)">
		<stop  offset="0.0235" style="stop-color:#1A1726"/>
		<stop  offset="0.4745" style="stop-color:#69707B"/>
		<stop  offset="0.8314" style="stop-color:#A2B0B9"/>
		<stop  offset="1" style="stop-color:#B8C9D1"/>
	</linearGradient>
	<path style="fill-rule:evenodd;clip-rule:evenodd;fill:url(#SVGID_13_);" d="M44.25,26c3.467,3.933,5.517,8.85,6.15,14.75
		c0.433,3.767,0.399,7.6-0.101,11.5c-0.5,3.667-1.217,6.134-2.149,7.4c-1.567,0.3-3.617,0.5-6.15,0.6
		c-2.9,0.134-4.983,0.283-6.25,0.45c-0.667,0.066-1.567-1.134-2.7-3.601c-1.167-2.566-2.15-5.6-2.95-9.1
		c-0.867-3.767-1.05-7.566-0.55-11.4c0.5-4.033,1.7-7.383,3.6-10.05C36.617,21.683,40.317,21.5,44.25,26z"/>
	<path style="fill-rule:evenodd;clip-rule:evenodd;fill:#20141B;" d="M84.25,47.1c-2.6,0.867-4.7,2.117-6.3,3.75
		c-1.267,1.301-2.45,2.934-3.55,4.9c-0.567,1-1,1.85-1.301,2.55L71.2,57.65c0.666-0.9,1.434-1.884,2.3-2.95
		c1.733-2.101,3.116-3.55,4.15-4.351c2.757-2.083,5.79-3.392,9.1-3.925C86.006,46.567,85.173,46.792,84.25,47.1z"/>
	<g>
		
			<radialGradient id="SVGID_14_" cx="38.875" cy="45.4727" r="6.9492" gradientTransform="matrix(0.9731 -0.2302 -0.2302 -0.9731 20.9397 88.5019)" gradientUnits="userSpaceOnUse">
			<stop  offset="0" style="stop-color:#217387"/>
			<stop  offset="1" style="stop-color:#20141B"/>
		</radialGradient>
		<path style="fill-rule:evenodd;clip-rule:evenodd;fill:url(#SVGID_14_);" d="M42.1,30.45c1.2-1.034,2.083,0.133,2.65,3.5
			c0.533,3.399,0.2,5.35-1,5.85c-1.167,0.467-1.967-0.783-2.4-3.75C40.917,33.116,41.167,31.25,42.1,30.45z"/>
		
			<radialGradient id="SVGID_15_" cx="36.9058" cy="45.29" r="5.23" gradientTransform="matrix(0.9728 -0.2318 -0.2318 -0.9728 20.9997 88.1123)" gradientUnits="userSpaceOnUse">
			<stop  offset="0" style="stop-color:#217387"/>
			<stop  offset="1" style="stop-color:#20141B"/>
		</radialGradient>
		<path style="fill-rule:evenodd;clip-rule:evenodd;fill:url(#SVGID_15_);" d="M42.3,31.7c0.9-0.767,1.55,0.116,1.95,2.649
			c0.433,2.567,0.183,4.034-0.75,4.4c-0.867,0.366-1.467-0.566-1.8-2.8C41.4,33.75,41.6,32.333,42.3,31.7z"/>
		
			<use xlink:href="#flash0.ai_x2F_Layer_3_x2F__x3C_Path_x3E_"  width="1.164" height="3.305" x="-0.013" y="-3.272" transform="matrix(1 0 0 -1 42.7998 31.3496)" style="overflow:visible;opacity:0.2305;enable-background:new    ;"/>
	</g>
	<g>
		
			<radialGradient id="SVGID_16_" cx="29.3018" cy="47.5186" r="6.9456" gradientTransform="matrix(0.9448 -0.3275 -0.3275 -0.9448 31.1282 89.7944)" gradientUnits="userSpaceOnUse">
			<stop  offset="0" style="stop-color:#213D87"/>
			<stop  offset="1" style="stop-color:#20141B"/>
		</radialGradient>
		<path style="fill-rule:evenodd;clip-rule:evenodd;fill:url(#SVGID_16_);" d="M36.6,31.1c1.066-1.133,2.05-0.05,2.95,3.25
			c0.9,3.301,0.767,5.267-0.4,5.9c-1.133,0.566-2.05-0.6-2.75-3.5C35.7,33.884,35.767,32,36.6,31.1z"/>
		
			<radialGradient id="SVGID_17_" cx="27.416" cy="47.2949" r="5.226" gradientTransform="matrix(0.9448 -0.3277 -0.3277 -0.9448 30.9955 89.3673)" gradientUnits="userSpaceOnUse">
			<stop  offset="0" style="stop-color:#423D87"/>
			<stop  offset="1" style="stop-color:#20141B"/>
		</radialGradient>
		<path style="fill-rule:evenodd;clip-rule:evenodd;fill:url(#SVGID_17_);" d="M36.9,32.35c0.833-0.833,1.583-0.017,2.25,2.45
			c0.667,2.5,0.55,3.983-0.35,4.45c-0.833,0.434-1.517-0.434-2.05-2.6C36.217,34.45,36.267,33.017,36.9,32.35z"/>
		
			<use xlink:href="#flash0.ai_x2F_Layer_3_x2F__x3C_Path_x3E__x5F_0"  width="1.052" height="3.345" x="0.012" y="-3.313" transform="matrix(1 0 0 -1 37.5498 32.0996)" style="overflow:visible;opacity:0.2305;enable-background:new    ;"/>
	</g>
	
		<use xlink:href="#flash0.ai_x2F_Layer_3_x2F__x3C_Path_x3E__x5F_3"  width="14.002" height="13.35" x="-0.002" y="-13.35" transform="matrix(1 0 0 -1 36.1001 14)" style="overflow:visible;opacity:0.2813;enable-background:new    ;"/>
	
		<use xlink:href="#flash0.ai_x2F_Layer_3_x2F__x3C_Path_x3E__x5F_2"  width="2.003" height="7.483" x="-0.003" y="-7.516" transform="matrix(1 0 0 -1 13.75 40.0498)" style="overflow:visible;opacity:0.2109;enable-background:new    ;"/>
	
		<use xlink:href="#flash0.ai_x2F_Layer_3_x2F__x3C_Path_x3E__x5F_1"  width="3.388" height="2.608" x="-0.038" y="-2.613" transform="matrix(1 0 0 -1 31.5 14.6001)" style="overflow:visible;opacity:0.2813;enable-background:new    ;"/>
	<g>
		
			<linearGradient id="SVGID_18_" gradientUnits="userSpaceOnUse" x1="-77.46" y1="50.3398" x2="-34.1087" y2="50.3398" gradientTransform="matrix(-0.2214 -0.9752 0.9752 -0.2214 1.575649e-004 5.621761e-004)">
			<stop  offset="0.0039" style="stop-color:#2B1621"/>
			<stop  offset="0.3373" style="stop-color:#292C32"/>
			<stop  offset="1" style="stop-color:#24615C"/>
		</linearGradient>
		<path style="fill-rule:evenodd;clip-rule:evenodd;fill:url(#SVGID_18_);" d="M51.35,47.5c0.867-2.733,2.101-5.4,3.7-8
			c1.667-2.634,3.533-4.934,5.601-6.9c4.833-4.5,8.666-5.85,11.5-4.05c1.433,0.9,2.649,2.834,3.649,5.8c1,2.9,1.434,5.684,1.3,8.351
			c-0.1,3.233-0.699,6.467-1.8,9.7c-0.934,2.733-1.983,4.916-3.149,6.55c-2.167,0.899-4.434,1.184-6.801,0.85
			c-3.733-0.5-5.767-0.75-6.1-0.75c-0.733,0-2.45,0.3-5.15,0.9c-2.3,0.5-4.017,0.633-5.149,0.399c-0.533-0.133-0.334-2.149,0.6-6.05
			C50.116,51.8,50.717,49.533,51.35,47.5z"/>
		
			<linearGradient id="SVGID_19_" gradientUnits="userSpaceOnUse" x1="-43.1587" y1="74.7568" x2="1.8187" y2="74.7568" gradientTransform="matrix(0.284 -0.9588 0.9588 0.284 -4.806519e-004 -4.431009e-004)">
			<stop  offset="0.0235" style="stop-color:#1A1726"/>
			<stop  offset="0.4745" style="stop-color:#69707B"/>
			<stop  offset="0.8314" style="stop-color:#A2B0B9"/>
			<stop  offset="1" style="stop-color:#B8C9D1"/>
		</linearGradient>
		<path style="fill-rule:evenodd;clip-rule:evenodd;fill:url(#SVGID_19_);" d="M62.3,38.3c3.367-2.833,5.95-3.566,7.75-2.2
			c1.467,1.134,2.434,3.217,2.9,6.25c0.366,2.434,0.333,4.617-0.101,6.551c-0.866,4.133-2.383,7.75-4.55,10.85
			c-0.899,0.2-2.217,0.283-3.95,0.25c-2.699-0.066-4.383-0.1-5.05-0.1c-0.333,0-1.583,0.1-3.75,0.3c-1.434,0.1-2.666,0.116-3.7,0.05
			C51.15,60.184,51.167,58.767,51.9,56c0.566-2.033,1.116-3.65,1.649-4.85C55.75,45.616,58.667,41.333,62.3,38.3z"/>
		<g>
			
				<radialGradient id="SVGID_20_" cx="73.249" cy="31.0596" r="5.5821" gradientTransform="matrix(0.9741 0.2262 0.1321 -0.9965 -8.2049 61.8839)" gradientUnits="userSpaceOnUse">
				<stop  offset="0" style="stop-color:#584171"/>
				<stop  offset="1" style="stop-color:#20141B"/>
			</radialGradient>
			<path style="fill-rule:evenodd;clip-rule:evenodd;fill:url(#SVGID_20_);" d="M64.05,41.7c1.167-0.334,1.483,0.833,0.95,3.5
				c-0.566,2.7-1.366,4.017-2.4,3.95c-1-0.067-1.233-1.267-0.699-3.601C62.4,43.25,63.116,41.967,64.05,41.7z"/>
			
				<radialGradient id="SVGID_21_" cx="71.6533" cy="30.895" r="4.1964" gradientTransform="matrix(0.974 0.2264 0.1311 -0.9979 -8.0916 61.6077)" gradientUnits="userSpaceOnUse">
				<stop  offset="0" style="stop-color:#584171"/>
				<stop  offset="1" style="stop-color:#20141B"/>
			</radialGradient>
			<path style="fill-rule:evenodd;clip-rule:evenodd;fill:url(#SVGID_21_);" d="M63.8,42.7c0.9-0.233,1.134,0.649,0.7,2.649
				c-0.4,2.034-1,3.017-1.8,2.95c-0.733-0.033-0.9-0.934-0.5-2.7C62.6,43.866,63.134,42.9,63.8,42.7z"/>
		</g>
		<g>
			
				<radialGradient id="SVGID_22_" cx="82.3164" cy="19.2285" r="5.485" gradientTransform="matrix(0.9275 0.3737 0.2735 -0.9298 -10.7098 36.4135)" gradientUnits="userSpaceOnUse">
				<stop  offset="0" style="stop-color:#584171"/>
				<stop  offset="1" style="stop-color:#20141B"/>
			</radialGradient>
			<path style="fill-rule:evenodd;clip-rule:evenodd;fill:url(#SVGID_22_);" d="M68.65,43.3c1.166-0.133,1.3,1.033,0.399,3.5
				c-0.934,2.434-1.899,3.533-2.899,3.3c-0.967-0.233-1.017-1.399-0.15-3.5C66.833,44.5,67.717,43.4,68.65,43.3z"/>
			
				<radialGradient id="SVGID_23_" cx="80.7793" cy="19.1079" r="4.1224" gradientTransform="matrix(0.9278 0.373 0.2729 -0.9309 -10.6151 36.2106)" gradientUnits="userSpaceOnUse">
				<stop  offset="0" style="stop-color:#584171"/>
				<stop  offset="1" style="stop-color:#20141B"/>
			</radialGradient>
			<path style="fill-rule:evenodd;clip-rule:evenodd;fill:url(#SVGID_23_);" d="M68.25,44.25c0.9-0.1,1,0.767,0.3,2.6
				c-0.666,1.801-1.383,2.617-2.149,2.45c-0.733-0.166-0.767-1.033-0.101-2.6C66.934,45.134,67.583,44.316,68.25,44.25z"/>
		</g>
		
			<use xlink:href="#flash0.ai_x2F_Layer_3_x2F__x3C_Path_x3E__x5F_1_x5F_0"  width="9.917" height="13.42" x="-0.012" y="-13.4" transform="matrix(1 0 0 -1 66.4502 28.8999)" style="overflow:visible;opacity:0.2813;enable-background:new    ;"/>
		
			<use xlink:href="#flash0.ai_x2F_Layer_3_x2F__x3C_Path_x3E__x5F_4"  width="2.246" height="1.912" x="-0.04" y="-1.857" transform="matrix(1 0 0 -1 63.2998 30.6001)" style="overflow:visible;opacity:0.2813;enable-background:new    ;"/>
	</g>
	<linearGradient id="SVGID_24_" gradientUnits="userSpaceOnUse" x1="54.1162" y1="40.1084" x2="50.3968" y2="56.3097">
		<stop  offset="0" style="stop-color:#9CBAB5"/>
		<stop  offset="0.2118" style="stop-color:#54577A"/>
		<stop  offset="0.3294" style="stop-color:#41415E"/>
		<stop  offset="0.4627" style="stop-color:#322E48"/>
		<stop  offset="0.6039" style="stop-color:#272138"/>
		<stop  offset="0.7647" style="stop-color:#21192E"/>
		<stop  offset="0.9765" style="stop-color:#1F172B"/>
	</linearGradient>
	<path style="fill-rule:evenodd;clip-rule:evenodd;fill:url(#SVGID_24_);" d="M50.35,45.5c1.5,0.967,2.934,2.917,4.301,5.85
		c0.699,1.467,1.3,2.967,1.8,4.5c0.6,1.733,0.899,2.967,0.899,3.7c-0.767,0.2-1.816,0.334-3.149,0.4
		c-1.566,0.066-2.75,0.116-3.55,0.149c-1.267,0.2-2.317,0.334-3.15,0.4c-1.467,0.1-2.9-0.033-4.3-0.4
		c-0.267-2.433-0.1-5.133,0.5-8.1c0.6-2.967,1.4-4.967,2.4-6C47.4,44.7,48.816,44.533,50.35,45.5z"/>
</g>
</svg>
