<?xml version="1.0" encoding="iso-8859-1"?>
<!-- Generator: Adobe Illustrator 15.1.0, SVG Export Plug-In . SVG Version: 6.00 Build 0)  -->
<!DOCTYPE svg PUBLIC "-//W3C//DTD SVG 1.1//EN" "http://www.w3.org/Graphics/SVG/1.1/DTD/svg11.dtd">
<svg version="1.1" id="Layer_3" xmlns="http://www.w3.org/2000/svg" xmlns:xlink="http://www.w3.org/1999/xlink" x="0px" y="0px"
	 width="42.4px" height="38.25px" viewBox="0 0 42.4 38.25" style="enable-background:new 0 0 42.4 38.25;" xml:space="preserve">
<symbol  id="flash0.ai_x2F_Layer_3_x2F__x3C_Path_x3E__x5F_12" viewBox="-0.023 -2.945 3.677 2.945">
	<g id="Layer_1_6_">
		<path style="fill-rule:evenodd;clip-rule:evenodd;fill:#D9C57C;" d="M3.55-0.2c0.167-0.233,0.133-0.55-0.1-0.95
			c-0.233-0.4-0.583-0.767-1.05-1.1C1.9-2.617,1.433-2.833,1-2.9C0.533-3,0.217-2.933,0.05-2.7C-0.083-2.467-0.033-2.15,0.2-1.75
			c0.233,0.367,0.583,0.733,1.05,1.1c0.467,0.333,0.933,0.533,1.4,0.6C3.117,0.05,3.417,0,3.55-0.2z"/>
	</g>
</symbol>
<symbol  id="flash0.ai_x2F_Layer_3_x2F__x3C_Path_x3E__x5F_13" viewBox="0 -1.558 3.25 1.558">
	<g id="Layer_1_5_">
		<path style="fill-rule:evenodd;clip-rule:evenodd;fill:#D9C57C;" d="M3.25-0.85c-0.033-0.2-0.2-0.367-0.5-0.5
			C2.417-1.517,2.033-1.583,1.6-1.55C0.533-1.483,0-1.2,0-0.7C0.067-0.233,0.617,0,1.65,0C2.717-0.067,3.25-0.35,3.25-0.85z"/>
	</g>
</symbol>
<symbol  id="flash0.ai_x2F_Layer_3_x2F__x3C_Path_x3E__x5F_14" viewBox="-0.004 -2.114 4.219 2.128">
	<g id="Layer_1_4_">
		<path style="fill-rule:evenodd;clip-rule:evenodd;fill:#D9C57C;" d="M4.2-0.6c0.066-0.267-0.1-0.533-0.5-0.8
			C3.333-1.667,2.867-1.867,2.3-2C1.733-2.133,1.217-2.15,0.75-2.05C0.317-1.917,0.067-1.717,0-1.45
			c-0.033,0.267,0.133,0.534,0.5,0.8S1.333-0.2,1.9-0.1c0.6,0.133,1.117,0.15,1.55,0.05C3.917-0.15,4.167-0.333,4.2-0.6z"/>
	</g>
</symbol>
<symbol  id="flash0.ai_x2F_Layer_3_x2F__x3C_Path_x3E__x5F_15" viewBox="0.012 -2.55 3.999 2.5">
	<g id="Layer_1_3_">
		<path style="fill-rule:evenodd;clip-rule:evenodd;fill:#D9C57C;" d="M3.95-0.4C4.083-0.667,4-0.967,3.7-1.3
			C3.367-1.633,2.933-1.917,2.4-2.15c-0.533-0.267-1.033-0.4-1.5-0.4s-0.75,0.133-0.85,0.4c-0.1,0.267,0,0.55,0.3,0.85
			c0.3,0.367,0.717,0.667,1.25,0.9c0.566,0.233,1.066,0.35,1.5,0.35C3.567-0.05,3.85-0.167,3.95-0.4z"/>
	</g>
</symbol>
<symbol  id="flash0.ai_x2F_Layer_3_x2F__x3C_Path_x3E__x5F_16" viewBox="0.023 -2.95 5.403 2.945">
	<g id="Layer_1_2_">
		<path style="fill-rule:evenodd;clip-rule:evenodd;fill:#D9C57C;" d="M5.4-0.75c0.1-0.333-0.083-0.7-0.55-1.1
			c-0.434-0.4-1.017-0.7-1.75-0.9C2.333-2.95,1.65-3,1.05-2.9c-0.6,0.1-0.933,0.316-1,0.65c-0.1,0.333,0.083,0.7,0.55,1.1
			c0.433,0.4,1.017,0.7,1.75,0.9c0.733,0.233,1.417,0.3,2.05,0.2C5-0.15,5.333-0.383,5.4-0.75z"/>
	</g>
</symbol>
<symbol  id="flash0.ai_x2F_Layer_3_x2F__x3C_Path_x3E__x5F_3" viewBox="0 -1.086 0.473 1.058">
	<g id="Layer_1_8_">
		<path style="fill-rule:evenodd;clip-rule:evenodd;fill:#D9C57C;" d="M0.25-0.05c0.233-0.133,0.283-0.367,0.15-0.7
			c-0.167-0.367-0.283-0.433-0.35-0.2c-0.066,0.2-0.066,0.417,0,0.65C0.083-0.067,0.15,0.017,0.25-0.05z"/>
	</g>
</symbol>
<symbol  id="flash0.ai_x2F_Layer_3_x2F__x3C_Path_x3E__x5F_4" viewBox="0 -1.086 0.504 1.058">
	<g id="Layer_1_7_">
		<path style="fill-rule:evenodd;clip-rule:evenodd;fill:#D9C57C;" d="M0.3-0.05c0.233-0.133,0.267-0.367,0.1-0.7
			c-0.167-0.367-0.283-0.433-0.35-0.2c-0.066,0.2-0.066,0.417,0,0.65C0.083-0.067,0.167,0.017,0.3-0.05z"/>
	</g>
</symbol>
<g>
	<path style="fill-rule:evenodd;clip-rule:evenodd;fill:#20141B;" d="M42.1,16.5c0.567,1.667,0.351,3.767-0.649,6.3
		c-0.867,2.167-2.851,4.3-5.95,6.4c-3.934,2.233-6.866,3.899-8.8,5c-2.066,1.2-4.684,2.217-7.85,3.05c-4.434,1.134-8.4,1.3-11.9,0.5
		c-3.3-0.733-5.45-2.333-6.45-4.8c-0.967-2.334-0.517-4.2,1.35-5.601c1.566-1.166,4.033-2.017,7.4-2.55
		c3.167-0.5,5.217-1.2,6.15-2.1c0.033,0.033,0.083,0.033,0.15,0c0.133-0.066,0.233-0.45,0.3-1.15c0.367-3.5,0.417-7.417,0.15-11.75
		c-0.033-0.9-0.183-2.533-0.45-4.9c-0.333-2.566-0.6-4.183-0.8-4.85c0.867-0.133,2.3-0.066,4.3,0.2c0.133,0,0.784-0.033,1.95-0.1
		c0.8-0.066,1.4,0.017,1.8,0.25c-0.166,1.9-0.083,5.217,0.25,9.95c0.167,2.533,0.4,5.867,0.7,10c1-0.233,2.167-0.85,3.5-1.85
		c0.767-0.567,1.8-1.433,3.1-2.6c1.2-0.933,2.534-1.633,4-2.1c1.567-0.533,2.95-0.667,4.15-0.4
		C40.366,13.833,41.566,14.867,42.1,16.5z"/>
	<path style="fill-rule:evenodd;clip-rule:evenodd;fill:#5C70BA;" d="M13.9,33.1c0,1.134-0.483,2.101-1.45,2.9
		c-0.967,0.8-2.133,1.2-3.5,1.2S6.4,36.8,5.4,36c-0.967-0.8-1.45-1.767-1.45-2.9c0-1.133,0.483-2.1,1.45-2.899
		c1-0.8,2.184-1.2,3.55-1.2s2.533,0.4,3.5,1.2C13.417,31,13.9,31.967,13.9,33.1z"/>
	<path style="fill-rule:evenodd;clip-rule:evenodd;fill:#5C70BA;" d="M20.25,31.15c0.267,1.1,0.017,2.149-0.75,3.149
		c-0.8,1-1.867,1.634-3.2,1.9c-1.333,0.3-2.55,0.166-3.65-0.4c-1.133-0.566-1.816-1.399-2.05-2.5
		c-0.233-1.133,0.033-2.184,0.8-3.149c0.767-1,1.817-1.65,3.15-1.95c1.333-0.3,2.567-0.15,3.7,0.45
		C19.35,29.217,20.017,30.05,20.25,31.15z"/>
	<path style="fill-rule:evenodd;clip-rule:evenodd;fill:#5C70BA;" d="M26.6,28.9c0.301,1.066,0.084,2.116-0.649,3.149
		c-0.7,1.066-1.717,1.767-3.05,2.101c-1.334,0.366-2.567,0.3-3.7-0.2s-1.867-1.3-2.2-2.4c-0.3-1.066-0.083-2.116,0.65-3.149
		c0.7-1.067,1.717-1.784,3.05-2.15c1.333-0.366,2.566-0.3,3.7,0.2C25.533,26.983,26.267,27.8,26.6,28.9z"/>
	<path style="fill-rule:evenodd;clip-rule:evenodd;fill:#5C70BA;" d="M32.45,25.1c0.467,1.034,0.434,2.117-0.101,3.25
		c-0.533,1.134-1.416,2-2.649,2.601c-1.233,0.566-2.467,0.7-3.7,0.399c-1.2-0.3-2.05-0.966-2.55-2
		c-0.467-1.033-0.434-2.116,0.1-3.25c0.533-1.133,1.417-2,2.65-2.6c1.267-0.566,2.5-0.7,3.7-0.4
		C31.134,23.4,31.983,24.066,32.45,25.1z"/>
	<path style="fill-rule:evenodd;clip-rule:evenodd;fill:#5C70BA;" d="M37.9,21.05c0.566,0.967,0.633,2.05,0.199,3.25
		c-0.433,1.167-1.233,2.101-2.399,2.8c-1.2,0.7-2.417,0.95-3.65,0.75c-1.233-0.199-2.133-0.8-2.7-1.8
		C28.783,25.083,28.7,24,29.1,22.8c0.434-1.166,1.25-2.1,2.45-2.8c1.167-0.667,2.384-0.9,3.65-0.7
		C36.434,19.5,37.333,20.083,37.9,21.05z"/>
	<path style="fill-rule:evenodd;clip-rule:evenodd;fill:#393340;" d="M16.5,19.4l2.3-1.35c1.767-0.733,3.184-0.7,4.25,0.1
		c0.066,0.1,0.084,0.2,0.05,0.3c-0.1,0.2-0.466,0.283-1.1,0.25c-0.767-0.034-1.733,0.083-2.9,0.35c-1.2,0.267-1.934,0.517-2.2,0.75
		c-0.267,0.233-0.433,0.267-0.5,0.1C16.333,19.767,16.367,19.6,16.5,19.4z"/>
	<path style="fill-rule:evenodd;clip-rule:evenodd;fill:#393340;" d="M22.25,15.25c0.366,0.2,0.6,0.55,0.7,1.05
		c0.133,0.467,0.066,0.65-0.2,0.55c-1.7-0.267-2.683-0.55-2.95-0.85c-0.267-0.233-0.083-0.5,0.55-0.8
		C21.017,14.9,21.65,14.917,22.25,15.25z"/>
	
		<use xlink:href="#flash0.ai_x2F_Layer_3_x2F__x3C_Path_x3E__x5F_16"  width="5.403" height="2.945" x="0.023" y="-2.95" transform="matrix(1 0 0 -1 18.2002 26.4004)" style="overflow:visible;opacity:0.4414;enable-background:new    ;"/>
	
		<use xlink:href="#flash0.ai_x2F_Layer_3_x2F__x3C_Path_x3E__x5F_15"  width="3.999" height="2.5" x="0.012" y="-2.55" transform="matrix(1 0 0 -1 24.4502 23.7002)" style="overflow:visible;opacity:0.4414;enable-background:new    ;"/>
	
		<use xlink:href="#flash0.ai_x2F_Layer_3_x2F__x3C_Path_x3E__x5F_14"  width="4.219" height="2.128" x="-0.004" y="-2.114" transform="matrix(1 0 0 -1 12.7002 28.3496)" style="overflow:visible;opacity:0.4414;enable-background:new    ;"/>
	
		<use xlink:href="#flash0.ai_x2F_Layer_3_x2F__x3C_Path_x3E__x5F_13"  width="3.25" height="1.558" y="-1.558" transform="matrix(1 0 0 -1 8.0498 29.25)" style="overflow:visible;opacity:0.4414;enable-background:new    ;"/>
	
		<use xlink:href="#flash0.ai_x2F_Layer_3_x2F__x3C_Path_x3E__x5F_12"  width="3.677" height="2.945" x="-0.023" y="-2.945" transform="matrix(1 0 0 -1 30.0498 19.8501)" style="overflow:visible;opacity:0.4414;enable-background:new    ;"/>
	<path style="fill-rule:evenodd;clip-rule:evenodd;fill:#393340;" d="M19,12.6c0.767-0.167,1.4-0.067,1.9,0.3
		c0.5,0.333,0.5,0.55,0,0.65c-1.267,0.267-2.267,0.4-3,0.4c-0.533,0-0.6-0.2-0.2-0.6C18.1,12.917,18.533,12.667,19,12.6z"/>
	<path style="fill-rule:evenodd;clip-rule:evenodd;fill:#393340;" d="M35.9,13.6c1.466-0.3,2.816-0.133,4.05,0.5
		c0.6,0.3,1.05,0.633,1.35,1c-1.333-0.5-2.533-0.717-3.6-0.65c-0.4,0.033-1.184,0.3-2.351,0.8c-0.866,0.367-1.466,0.417-1.8,0.15
		c-0.434-0.3-0.3-0.65,0.4-1.05C34.55,13.983,35.2,13.733,35.9,13.6z"/>
	<path style="fill-rule:evenodd;clip-rule:evenodd;fill:#1F1A1C;" d="M34.25,21.35c0.2-0.066,0.217,0,0.05,0.2
		c-0.233,0.3-0.366,0.533-0.399,0.7c-0.034,0.233,0.05,0.366,0.25,0.4c0.133,0.033,0.3-0.017,0.5-0.15
		c0.533-0.3,0.733-0.35,0.6-0.15c-0.2,0.301-0.5,0.517-0.9,0.65c-0.399,0.167-0.699,0.116-0.899-0.15
		c-0.167-0.233-0.134-0.533,0.1-0.899C33.75,21.65,33.983,21.45,34.25,21.35z"/>
	<path style="fill-rule:evenodd;clip-rule:evenodd;fill:#1F1A1C;" d="M36.25,24.35c0.167-0.1,0.184-0.05,0.05,0.15
		c-0.166,0.3-0.25,0.517-0.25,0.65c0,0.366,0.217,0.399,0.65,0.1s0.6-0.35,0.5-0.15c-0.134,0.267-0.351,0.467-0.65,0.601
		c-0.366,0.2-0.649,0.2-0.85,0c-0.167-0.167-0.167-0.417,0-0.75C35.833,24.684,36.017,24.483,36.25,24.35z"/>
	<path style="fill-rule:evenodd;clip-rule:evenodd;fill:#A11A24;" d="M33.6,24.65c0.134-0.101,0.301-0.017,0.5,0.25
		c0.2,0.267,0.267,0.449,0.2,0.55c-0.066,0.066-0.217-0.033-0.45-0.3C33.616,24.85,33.533,24.684,33.6,24.65z"/>
	<path style="fill-rule:evenodd;clip-rule:evenodd;fill:#5C70BA;" d="M36,19.85c0.267-0.333,0.483-0.767,0.65-1.3
		c0.233-0.8,0.233-1.417,0-1.85c-0.301-0.567-0.284-0.917,0.05-1.05c0.267-0.1,0.5,0,0.7,0.3c0.199,0.267,0.267,0.6,0.199,1
		C37.467,18.017,37,19.033,36.2,20L36,19.85z"/>
	<path style="fill-rule:evenodd;clip-rule:evenodd;fill:#5C70BA;" d="M40.75,18.8c-0.533,1.034-1.483,1.934-2.85,2.7l-0.2-0.3
		c1-0.601,1.666-1.217,2-1.85c0.166-0.3,0.233-0.65,0.2-1.05c-0.101-0.533-0.15-0.816-0.15-0.85c0-0.733,0.25-0.95,0.75-0.65
		c0.233,0.133,0.384,0.417,0.45,0.85C40.983,18.083,40.917,18.467,40.75,18.8z"/>
	
		<use xlink:href="#flash0.ai_x2F_Layer_3_x2F__x3C_Path_x3E__x5F_4"  width="0.504" height="1.058" y="-1.086" transform="matrix(1 0 0 -1 39.8496 16.8999)" style="overflow:visible;opacity:0.4414;enable-background:new    ;"/>
	
		<use xlink:href="#flash0.ai_x2F_Layer_3_x2F__x3C_Path_x3E__x5F_3"  width="0.473" height="1.058" y="-1.086" transform="matrix(1 0 0 -1 36.7002 15.6499)" style="overflow:visible;opacity:0.4414;enable-background:new    ;"/>
	<path style="fill-rule:evenodd;clip-rule:evenodd;fill:#393340;" d="M20.45,19.9c1.1,0,1.85,0.183,2.25,0.55
		c0.333,0.333,0.25,0.566-0.25,0.7c-1.233,0.399-2.4,0.866-3.5,1.399c-0.733,0.367-1.367,0.45-1.9,0.25
		c-0.533-0.2-0.716-0.533-0.55-1c0.167-0.399,0.667-0.816,1.5-1.25C18.867,20.116,19.683,19.9,20.45,19.9z"/>
	<path style="fill-rule:evenodd;clip-rule:evenodd;fill:#393340;" d="M14.9,24.25c1.133-0.3,1.934-0.167,2.4,0.4
		c0.467,0.566,0.284,1.149-0.55,1.75c-1.5,1.033-3.867,1.449-7.1,1.25c-2.2-0.167-4.217,0.267-6.05,1.3
		c-0.7,0.399-1.267,0.6-1.7,0.6c-0.5-0.033-0.583-0.399-0.25-1.1c0.333-0.667,1-1.217,2-1.65c0.7-0.3,1.783-0.6,3.25-0.899
		C8.5,25.566,11.167,25.017,14.9,24.25z"/>
	<path style="fill-rule:evenodd;clip-rule:evenodd;fill:#393340;" d="M21.45,22.55c1.166-0.066,1.6,0.267,1.3,1
		c-0.3,0.767-0.95,1.184-1.95,1.25c-0.9,0.066-1.183-0.283-0.85-1.05C20.25,23.017,20.75,22.616,21.45,22.55z"/>
</g>
</svg>
