<?xml version="1.0" encoding="iso-8859-1"?>
<!-- Generator: Adobe Illustrator 15.1.0, SVG Export Plug-In . SVG Version: 6.00 Build 0)  -->
<!DOCTYPE svg PUBLIC "-//W3C//DTD SVG 1.1//EN" "http://www.w3.org/Graphics/SVG/1.1/DTD/svg11.dtd">
<svg version="1.1" id="Layer_3" xmlns="http://www.w3.org/2000/svg" xmlns:xlink="http://www.w3.org/1999/xlink" x="0px" y="0px"
	 width="157.25px" height="67.15px" viewBox="0 0 157.25 67.15" style="enable-background:new 0 0 157.25 67.15;"
	 xml:space="preserve">
<linearGradient id="SVGID_1_" gradientUnits="userSpaceOnUse" x1="15.7192" y1="-77.7607" x2="68.4729" y2="-77.7607" gradientTransform="matrix(0.0153 0.9999 -0.9999 0.0153 -4.006363e-004 -3.800951e-004)">
	<stop  offset="0" style="stop-color:#BFAD8F"/>
	<stop  offset="0.2078" style="stop-color:#4BABA7"/>
	<stop  offset="0.5922" style="stop-color:#217387"/>
	<stop  offset="1" style="stop-color:#00140C"/>
</linearGradient>
<path style="fill-rule:evenodd;clip-rule:evenodd;fill:url(#SVGID_1_);" d="M139,49.25c4.134,1.667,7,2.616,8.6,2.85
	c6.134,0.934,9.334,2.25,9.601,3.95c0.166,0.834-0.3,1.584-1.4,2.25c-8.166,1.566-21.2,3.517-39.1,5.851
	c-11.533,1.5-21.066,2.416-28.601,2.75c-14.167,0.666-26.016-0.084-35.55-2.25c-8.767-2-18.017-3.7-27.75-5.101
	c-8.566-1.267-15.417-2.566-20.55-3.899c-3.733-0.967-5.017-2.134-3.85-3.5c1.033-1.233,3.733-2.4,8.1-3.5
	c3.167-0.834,7.883-2.167,14.15-4C31.017,42.384,38,39.2,43.6,35.1c3.8-2.766,6.083-6.2,6.85-10.3
	c0.267-1.333,0.417-3.783,0.45-7.35c0.033-3.167,0.317-5.583,0.85-7.25c0.433-1.367,1.1-2.167,2-2.4
	c0.967-0.233,1.65,0.417,2.05,1.95c0.3,1.1,0.184,2.5-0.35,4.2L54.15,18c-0.233,1.2-0.3,2.667-0.2,4.4
	c0.133,2.2,0.617,3.317,1.45,3.35c0.8,0,1.417-0.867,1.85-2.6c0.1-0.5,0.267-1.667,0.5-3.5c0.3-2.333,0.5-4.1,0.6-5.3
	c0.2-2,0.267-3.767,0.2-5.3c-0.4-5.7,0.567-8.25,2.9-7.65c1.5,0.4,2.15,1.85,1.95,4.35c-0.033,0.7-0.4,2.483-1.1,5.35
	c-0.466,1.867-0.783,3.95-0.95,6.25c-0.233,3.4,0.183,5.233,1.25,5.5c1.1,0.267,1.65-0.45,1.65-2.15c-0.033-0.567-0.2-1.75-0.5-3.55
	c-0.233-1.2-0.3-2.267-0.2-3.2c0.167-1.434,0.75-1.867,1.75-1.3c0.833,0.434,1.184,1.467,1.05,3.1c-0.067,0.867-0.15,2.033-0.25,3.5
	c0.233,1.333,0.633,1.933,1.2,1.8c0.534-0.1,0.917-0.767,1.15-2c0.167-0.933,0.183-2.066,0.05-3.4c-0.167-1.533-0.3-2.667-0.4-3.4
	c-1.133-9-0.133-13.033,3-12.1c1.6,0.5,2.1,2.333,1.5,5.5c-0.3,1.7-0.717,3.9-1.25,6.6l0.1,1.7c0.5-0.167,0.9-1.083,1.2-2.75
	c0.267-1.4,0.833-1.934,1.7-1.6c0.833,0.3,1.133,1.217,0.9,2.75c-0.167,0.833-0.433,1.933-0.8,3.3c-0.133,1.5,0.1,2.333,0.7,2.5
	c0.6,0.167,1.017-0.517,1.25-2.05c0.3-1.667,0.517-2.684,0.65-3.05c0.5-1.066,1.2-1,2.101,0.2c0.199,0.233,0.583,1.65,1.149,4.25
	c0.667,2.067,1.4,2.1,2.2,0.1c0.267-0.667,0.4-1.767,0.4-3.3c0-1.7,0.083-2.867,0.25-3.5c0.767-2.933,1.666-3.783,2.699-2.55
	c0.5,0.567,0.567,1.433,0.2,2.6c-0.166,0.6-0.45,1.45-0.85,2.55c-0.4,1.833-0.351,3.65,0.149,5.45
	c0.267,0.933,0.634,1.633,1.101,2.1c0.533,0.566,0.934,0.35,1.2-0.65c0.166-0.566,0.033-1.5-0.4-2.8
	c-0.467-1.333-0.616-2.333-0.45-3c0.267-1,0.684-1.533,1.25-1.6c0.566-0.033,1.117,0.4,1.65,1.3c0.133,0.2,0.684,2.55,1.649,7.05
	C92.517,25.183,93.7,26.1,94.9,24c0.533-0.9,0.55-2.367,0.05-4.4c-0.7-2.2-1.134-3.667-1.3-4.4c-0.334-1.6-0.417-2.95-0.25-4.05
	c0.233-1.667,1.033-2.2,2.399-1.6c1.066,0.467,1.75,1.583,2.05,3.35c0.101,0.767,0.134,2.167,0.101,4.2
	c-0.033,0.767-0.134,2.15-0.3,4.15c-0.067,1.8,0.116,3.15,0.55,4.05c0.333,0.534,0.6,0.833,0.8,0.9c0.9-1.8,0.95-4.767,0.15-8.9
	c-0.834-4.367-0.917-7.45-0.25-9.25c0.633-1.8,1.449-2.15,2.449-1.05c0.834,0.933,1.367,2.183,1.601,3.75
	c0.267,1.633,0.333,3.6,0.2,5.9c-0.067,1.333-0.233,3.3-0.5,5.9c-0.267,2.7-0.4,4.15-0.4,4.35c-0.033,1.733,0.3,3.067,1,4
	c1.1,1.5,1.934,1.483,2.5-0.05c0.4-1.1,0.583-2.45,0.55-4.05c-0.233-1.9-0.333-3.4-0.3-4.5c0.134-2.1,0.866-2.933,2.2-2.5
	c1,0.333,1.533,1.434,1.6,3.3c0.033,0.767-0.083,2.117-0.35,4.05c-0.101,0.833-0.367,2.217-0.8,4.15c-0.2,1.733,0.133,3.017,1,3.851
	c0.633,0.333,0.983-0.867,1.05-3.601c0.033-2.8,0.566-4.033,1.6-3.7c1,0.333,1.533,1.583,1.601,3.75
	c0.066,2.667,0.233,4.25,0.5,4.75c0.666,1.2,1.683,2.25,3.05,3.15c0.399,0.267,1.649,0.917,3.75,1.95
	c4.267,2.133,7.383,3.583,9.35,4.35C131.783,46.3,134.6,47.45,139,49.25z"/>
</svg>
