<?xml version="1.0" encoding="iso-8859-1"?>
<!-- Generator: Adobe Illustrator 15.1.0, SVG Export Plug-In . SVG Version: 6.00 Build 0)  -->
<!DOCTYPE svg PUBLIC "-//W3C//DTD SVG 1.1//EN" "http://www.w3.org/Graphics/SVG/1.1/DTD/svg11.dtd">
<svg version="1.1" id="Layer_3" xmlns="http://www.w3.org/2000/svg" xmlns:xlink="http://www.w3.org/1999/xlink" x="0px" y="0px"
	 width="134.65px" height="54.8px" viewBox="0 0 134.65 54.8" style="enable-background:new 0 0 134.65 54.8;" xml:space="preserve"
	>
<path style="fill-rule:evenodd;clip-rule:evenodd;fill:#CCC8D9;" d="M122.55,36.45c0.3,0.3,0.601,0.767,0.9,1.399
	c0.3,0.733,0.55,1.233,0.75,1.5c0.767,0.967,3.267,3.017,7.5,6.15c3.333,3.134,3.833,5.717,1.5,7.75
	c-1.334,1.167-21.9,1.684-61.7,1.55c-20.133-0.066-41.367-0.233-63.7-0.5c-3.767,0.033-6.2-0.7-7.3-2.2
	c-1.233-1.666-0.133-3.649,3.3-5.949c1.1-0.667,1.934-1.184,2.5-1.551c1.034-0.666,1.75-1.316,2.15-1.949
	c0.267-0.4,0.55-1.2,0.85-2.4c0.267-1.066,0.633-1.833,1.1-2.3c0.533-0.533,1.267-0.684,2.2-0.45c1,0.233,1.733,0.184,2.2-0.15
	c0.534-0.366,0.817-1.233,0.85-2.6c0.033-1.467,0.233-2.434,0.6-2.9c0.367-0.433,0.967-0.683,1.8-0.75c0.9-0.066,1.5-0.25,1.8-0.55
	c0.6-0.566,0.767-1.3,0.5-2.2c-0.467-1.033-0.783-1.783-0.95-2.25c-1.566-3.967-0.95-5.583,1.85-4.85c0.3,0.1,0.75,1.05,1.35,2.85
	c0.533,1.633,0.983,2.316,1.35,2.05c0.933-0.6,1.233-1.467,0.9-2.6c-0.6-1.3-1-2.233-1.2-2.8c-0.4-1.3-0.617-2.217-0.65-2.75
	c-0.033-1.267,0.533-2.033,1.7-2.3c1.533-0.4,2.433,0.117,2.7,1.55c0.133,0.733,0.117,1.75-0.05,3.05c0,1.067,0.283,1.983,0.85,2.75
	c0.767,1,1.733,0.95,2.9-0.15c0.767-0.667,1.083-1.6,0.95-2.8c-0.333-1.333-0.566-2.3-0.7-2.9c-0.467-1.733-0.783-3.05-0.95-3.95
	c-0.3-1.533-0.35-2.867-0.15-4c0.167-1.067,0.717-1.95,1.65-2.65c1.1-0.8,2.083-0.617,2.95,0.55c0.867,1.2,0.95,3.283,0.25,6.25
	c-0.7,2.867-0.467,4.883,0.7,6.05c0.333-0.067,0.617-0.284,0.85-0.65c0.467-0.633,0.617-1.566,0.45-2.8
	c-0.3-1.333-0.5-2.267-0.6-2.8c-0.167-1.333-0.2-2.267-0.1-2.8c0.2-1.2,0.917-2,2.15-2.4c1.567-0.467,2.534-0.15,2.9,0.95
	c0.267,0.733,0.25,1.65-0.05,2.75c-0.133,0.5-0.533,1.517-1.2,3.05c-0.467,1.4-0.383,2.383,0.25,2.95c1.533,1.333,2.867,0.633,4-2.1
	c0.566-1.367,1.05-2.983,1.45-4.85c0.6-0.667,1.233-0.983,1.9-0.95c0.667,0,1.184,0.333,1.55,1c0.233,0.434,0.133,1.117-0.3,2.05
	c-0.433,0.9-0.55,1.533-0.35,1.9c0.367,0.667,0.867,0.783,1.5,0.35c0.5-0.333,0.867-0.817,1.1-1.45c0.5-1.167,0.467-2.4-0.1-3.7
	c-0.567-0.733-0.983-1.3-1.25-1.7c-0.467-0.767-0.434-1.35,0.1-1.75c1.133-0.867,2.25-0.35,3.35,1.55
	c0.267,0.434,0.434,1.217,0.5,2.35c0.1,1.033,0.317,1.767,0.65,2.2c1.067,1.333,1.934,1.283,2.6-0.15
	c0.333-0.767,0.684-1.767,1.05-3c1-0.867,1.816-0.95,2.45-0.25c0.167,0.233,0.483,0.917,0.95,2.05c0.367,1.033,0.883,1.467,1.55,1.3
	c0.7-0.133,0.917-0.716,0.65-1.75c-0.5-0.9-0.85-1.617-1.05-2.15c-0.4-1.033-0.117-1.683,0.85-1.95c1-0.3,1.7,0.033,2.1,1
	c0.466,1.1,0.983,1.7,1.55,1.8l0.05-1.15c-0.8-1.8-1.433-3.267-1.9-4.4c-0.867-2.1-0.383-3.367,1.45-3.8
	c3.567-0.833,4.983,1.833,4.25,8c-0.066,0.5-0.166,1.267-0.3,2.3c-0.066,0.9,0.033,1.667,0.3,2.3c0.334,0.8,0.817,1.233,1.45,1.3
	c0.634,0.034,1.05-0.4,1.25-1.3l-0.5-2.4c-0.233-1.067,0.117-1.783,1.05-2.15c1.134-0.434,1.834-0.184,2.101,0.75
	c0.233,0.667,0.233,1.4,0,2.2c-0.233,1.3-0.351,2.117-0.351,2.45c0.101,1.167,0.784,1.617,2.051,1.35c1.233-0.267,1.6-1.534,1.1-3.8
	c-0.366-1.633-0.866-3.017-1.5-4.15c-0.934-1.767-1.467-2.95-1.6-3.55c-0.4-1.667,0.267-2.684,2-3.05s2.883,0.184,3.449,1.65
	c0.301,0.7,0.45,1.817,0.45,3.35c0,1.033,0.167,2.217,0.5,3.55c0.2,0.8,0.55,1.983,1.05,3.55c0.334,1.2,0.617,1.983,0.851,2.35
	c0.566,1.133,1.333,1.667,2.3,1.6c0.967-0.067,1.45-0.85,1.45-2.35c0.033-1.2-0.134-2.184-0.5-2.95
	c-0.033-0.066-0.617-0.95-1.75-2.65c-0.733-1.133-0.967-2.067-0.7-2.8c0.4-1.067,1.167-1.55,2.3-1.45c1.066,0.1,1.9,0.6,2.5,1.5
	c0.667,1,1.117,2.55,1.351,4.65c0.267,2.5,0.533,4.117,0.8,4.85c0.767,2.133,2.05,3.6,3.85,4.4c2,0.9,3.834,0.434,5.5-1.4
	c0.434-0.467,0.767-1.383,1-2.75c0.233-1.333,0.55-2.217,0.95-2.65c0.667-0.733,1.384-1.05,2.15-0.95c0.8,0.1,1.333,0.684,1.6,1.75
	c0.2,0.767,0,1.517-0.6,2.25c-0.967,1.2-1.467,1.833-1.5,1.9c-0.4,0.833-0.634,1.75-0.7,2.75c-0.033,0.667,0.033,1.633,0.2,2.9
	c1.966,0.867,3.533-0.167,4.699-3.1c0.534-1.4,0.95-2.233,1.25-2.5c0.534-0.5,1.25-0.267,2.15,0.7c0.9,0.967,1.033,2.417,0.4,4.35
	c-0.334,1.1-0.9,2.75-1.7,4.95c-0.334,1.633,0.083,2.817,1.25,3.55c0.467,0.3,1.033,0.3,1.7,0c0.733-0.301,1.267-0.4,1.6-0.301
	c0.667,0.233,1.066,0.75,1.2,1.551c0.166,1.233,0.267,1.883,0.3,1.949c0.566,1.101,1.4,1.584,2.5,1.45
	C121.267,35.917,122.116,36.05,122.55,36.45z"/>
</svg>
