<?xml version="1.0" encoding="iso-8859-1"?>
<!-- Generator: Adobe Illustrator 15.1.0, SVG Export Plug-In . SVG Version: 6.00 Build 0)  -->
<!DOCTYPE svg PUBLIC "-//W3C//DTD SVG 1.1//EN" "http://www.w3.org/Graphics/SVG/1.1/DTD/svg11.dtd">
<svg version="1.1" id="Layer_3" xmlns="http://www.w3.org/2000/svg" xmlns:xlink="http://www.w3.org/1999/xlink" x="0px" y="0px"
	 width="190.35px" height="77.35px" viewBox="0 0 190.35 77.35" style="enable-background:new 0 0 190.35 77.35;"
	 xml:space="preserve">
<linearGradient id="SVGID_1_" gradientUnits="userSpaceOnUse" x1="15.2715" y1="-93.0195" x2="79.9708" y2="-93.0195" gradientTransform="matrix(0.0312 0.9995 -0.9995 0.0312 4.051439e-005 3.183335e-004)">
	<stop  offset="0" style="stop-color:#D9AD8F"/>
	<stop  offset="0.2078" style="stop-color:#B0B573"/>
	<stop  offset="0.5922" style="stop-color:#219469"/>
	<stop  offset="1" style="stop-color:#00140C"/>
</linearGradient>
<path style="fill-rule:evenodd;clip-rule:evenodd;fill:url(#SVGID_1_);" d="M164.65,77.35c-4.467,0.067-20.983-0.05-49.551-0.35
	c-29.566-0.333-48.833-0.45-57.8-0.35c-11.267,0.1-20.417-0.284-27.45-1.15c-7-0.866-15.367-2.634-25.1-5.3
	c-4.133-1.134-5.567-3.3-4.3-6.5c1.133-2.9,3.716-5.417,7.75-7.55c1.966-1.034,4.566-1.95,7.8-2.75c1.8-0.434,4.483-1.101,8.05-2
	c9.4-2.733,17.184-6.467,23.35-11.2c4.2-3.133,6.717-7.05,7.55-11.75c0.267-1.5,0.383-4.284,0.35-8.35c-0.066-3.567,0.2-6.3,0.8-8.2
	c0.467-1.566,1.2-2.483,2.2-2.75c1.067-0.3,1.85,0.417,2.35,2.15c0.367,1.233,0.267,2.817-0.3,4.75l-1.4,4.6
	c-0.233,1.367-0.284,3.033-0.15,5c0.2,2.5,0.767,3.75,1.7,3.75c0.9,0,1.567-0.983,2-2.95c0.1-0.467,0.267-1.8,0.5-4
	c0.367-3.3,0.583-5.3,0.65-6c0.167-2.233,0.184-4.233,0.05-6c-0.167-2.534-0.15-4.4,0.05-5.6c0.367-2.5,1.4-3.533,3.1-3.1
	c1.7,0.433,2.467,2.067,2.3,4.9C69.083,7.617,68.7,9.633,68,12.7c-0.5,1.933-0.817,4.283-0.95,7.05c-0.2,3.867,0.3,5.95,1.5,6.25
	c1.233,0.3,1.833-0.533,1.8-2.5c-0.033-0.667-0.25-1.983-0.65-3.95c-0.267-1.367-0.35-2.6-0.25-3.7c0.167-1.6,0.816-2.083,1.95-1.45
	c0.934,0.467,1.35,1.617,1.25,3.45c-0.133,2.667-0.2,4.017-0.2,4.05c0.267,1.467,0.716,2.133,1.35,2c0.6-0.133,1.017-0.9,1.25-2.3
	c0.167-1.067,0.167-2.35,0-3.85c-0.233-1.733-0.417-3.017-0.55-3.85c-0.5-3.7-0.7-6.517-0.6-8.45c0.2-4.2,1.45-5.967,3.75-5.3
	c1.8,0.533,2.4,2.6,1.8,6.2c-0.3,1.933-0.733,4.433-1.3,7.5l0.15,1.9c0.567-0.167,1-1.2,1.3-3.1c0.267-1.6,0.9-2.217,1.9-1.85
	c0.967,0.333,1.317,1.367,1.05,3.1c-0.133,0.934-0.4,2.184-0.8,3.75c-0.133,1.7,0.133,2.65,0.8,2.85c0.7,0.167,1.167-0.617,1.4-2.35
	c0.3-1.9,0.533-3.05,0.7-3.45c0.5-1.267,1.283-1.233,2.35,0.1c0.2,0.267,0.633,1.883,1.3,4.85c0.8,2.333,1.633,2.35,2.5,0.05
	c0.267-0.733,0.4-1.983,0.4-3.75c-0.067-1.9,0-3.217,0.2-3.95c0.867-3.3,1.867-4.283,3-2.95c0.567,0.633,0.667,1.6,0.3,2.9
	c-0.2,0.733-0.517,1.716-0.95,2.95c-0.4,2.133-0.3,4.2,0.3,6.2c0.3,1.033,0.717,1.816,1.25,2.35c0.601,0.633,1.05,0.367,1.351-0.8
	c0.166-0.633,0-1.683-0.5-3.15c-0.534-1.5-0.717-2.617-0.551-3.35c0.267-1.167,0.717-1.783,1.351-1.85
	c0.633-0.066,1.267,0.417,1.899,1.45c0.167,0.233,0.834,2.883,2,7.95c1.367,4.433,2.717,5.45,4.051,3.05
	c0.566-1.033,0.55-2.683-0.051-4.95c-0.833-2.5-1.35-4.167-1.55-5c-0.366-1.867-0.483-3.4-0.35-4.6c0.233-1.833,1.133-2.434,2.7-1.8
	c1.199,0.5,1.966,1.733,2.3,3.7c0.166,0.933,0.233,2.517,0.2,4.75c0,0.867-0.084,2.433-0.25,4.7c-0.034,2.067,0.216,3.6,0.75,4.6
	c0.199,0.533,0.5,0.867,0.899,1c0.967-2.033,0.967-5.4,0-10.1c-1.066-4.9-1.233-8.383-0.5-10.45c0.7-2.067,1.617-2.483,2.75-1.25
	c0.967,1.033,1.601,2.45,1.9,4.25c0.333,1.833,0.434,4.066,0.3,6.7c-0.066,1.5-0.217,3.733-0.45,6.7
	c-0.066,0.967-0.184,2.6-0.35,4.9c0,1.967,0.399,3.483,1.2,4.55c1.267,1.667,2.199,1.633,2.8-0.1c0.467-1.333,0.633-2.883,0.5-4.65
	c-0.3-2.133-0.417-3.833-0.351-5.1c0.101-2.367,0.9-3.317,2.4-2.85c1.134,0.367,1.75,1.6,1.85,3.7c0.067,0.933-0.033,2.466-0.3,4.6
	c-0.1,0.934-0.383,2.517-0.85,4.75c-0.2,1.934,0.2,3.367,1.2,4.3c0.733,0.367,1.1-0.983,1.1-4.05c0-3.2,0.583-4.617,1.75-4.25
	c1.134,0.367,1.75,1.784,1.85,4.25c0.134,3.034,0.351,4.816,0.65,5.351c0.8,1.366,1.967,2.533,3.5,3.5
	c0.533,0.366,1.95,1.083,4.25,2.149c4.667,2.267,8.2,3.867,10.6,4.8c9.767,3.634,16.2,5.9,19.301,6.801
	c8.3,2.366,15.083,5.083,20.35,8.149c2.6,1.533,4.384,2.834,5.35,3.9c-0.233,1.233-1.483,2.467-3.75,3.7
	C182.066,75.9,174.75,77.217,164.65,77.35z"/>
</svg>
