<?xml version="1.0" encoding="iso-8859-1"?>
<!-- Generator: Adobe Illustrator 15.1.0, SVG Export Plug-In . SVG Version: 6.00 Build 0)  -->
<!DOCTYPE svg PUBLIC "-//W3C//DTD SVG 1.1//EN" "http://www.w3.org/Graphics/SVG/1.1/DTD/svg11.dtd">
<svg version="1.1" id="Layer_3" xmlns="http://www.w3.org/2000/svg" xmlns:xlink="http://www.w3.org/1999/xlink" x="0px" y="0px"
	 width="211.5px" height="76.65px" viewBox="0 0 211.5 76.65" style="enable-background:new 0 0 211.5 76.65;" xml:space="preserve"
	>
<g>
	
		<linearGradient id="SVGID_1_" gradientUnits="userSpaceOnUse" x1="-1.2588" y1="-53.2861" x2="33.2198" y2="-53.2861" gradientTransform="matrix(-0.0327 1.9997 -1.9997 -0.0327 0.1003 -0.0492)">
		<stop  offset="0.0235" style="stop-color:#361747"/>
		<stop  offset="0.2431" style="stop-color:#381A48"/>
		<stop  offset="0.4078" style="stop-color:#40244B"/>
		<stop  offset="0.5529" style="stop-color:#4D3450"/>
		<stop  offset="0.6902" style="stop-color:#5E4B56"/>
		<stop  offset="0.8157" style="stop-color:#75685F"/>
		<stop  offset="0.8314" style="stop-color:#786B60"/>
		<stop  offset="1" style="stop-color:#9CBAB5"/>
	</linearGradient>
	<path style="fill-rule:evenodd;clip-rule:evenodd;fill:url(#SVGID_1_);" d="M197,68.95c-12.467,4.134-25.633,6.333-39.5,6.6
		c-14.732,0.4-25.033,0.434-30.9,0.101c-15.066-0.8-30-3.2-44.799-7.2c-13.601-3.667-29-7.233-46.2-10.7
		c-17.2-3.533-28.366-5.366-33.5-5.5c-4.467-0.2-1.8-2.733,8-7.6c7.667-3.8,15.033-7,22.1-9.601c2.934-1.066,9.567-3.399,19.9-7
		c10.6-4.133,20.3-8.866,29.1-14.199c12.134-7.4,21.801-11.801,29-13.2c9.668-1.867,19.102,0.2,28.301,6.2
		c6.533,4.267,16.334,10.199,29.4,17.8c11.867,6.934,20.434,12.2,25.699,15.8c6.934,4.8,12,9.967,15.201,15.5
		c1.6,2.8,2.498,5.1,2.699,6.9C208.033,64.851,203.199,66.884,197,68.95z"/>
	
		<linearGradient id="SVGID_2_" gradientUnits="userSpaceOnUse" x1="1.9639" y1="-53.9341" x2="30.992" y2="-53.9341" gradientTransform="matrix(-0.0324 1.9997 -1.9997 -0.0324 0.0992 -0.0501)">
		<stop  offset="0.0235" style="stop-color:#2B1736"/>
		<stop  offset="0.2431" style="stop-color:#2E1A38"/>
		<stop  offset="0.4078" style="stop-color:#37243F"/>
		<stop  offset="0.5529" style="stop-color:#47344B"/>
		<stop  offset="0.6902" style="stop-color:#5D4B5B"/>
		<stop  offset="0.8157" style="stop-color:#7A6871"/>
		<stop  offset="0.8314" style="stop-color:#7D6B73"/>
		<stop  offset="1" style="stop-color:#9CBAB5"/>
	</linearGradient>
	<path style="fill-rule:evenodd;clip-rule:evenodd;fill:url(#SVGID_2_);" d="M183.9,71.95c-8.801,1.667-17.9,2.267-27.301,1.8
		c-13.332-0.133-24.467-0.467-33.4-1c-16.465-1.066-30.266-3.533-41.399-7.399c-10.334-3.601-22.267-6.267-35.8-8
		c-13.2-1.733-20.367-2.834-21.5-3.301c-4.667-0.133-6.9-0.366-6.7-0.699c1.533-0.801,3.2-1.667,5-2.601
		c8.2-2.533,15.5-4.833,21.899-6.899c12.4-3.867,22.334-8.9,29.801-15.101c12.399-10.133,22.666-16.2,30.8-18.2
		c9.332-2.399,18.799-0.466,28.398,5.801C152.166,28.55,161.9,35.017,162.9,35.75c10.4,7.267,18.4,13.9,24,19.9
		c6.266,6.733,9.367,11.033,9.299,12.899c0,0.934-0.633,1.167-1.898,0.7C191.768,70.184,188.301,71.084,183.9,71.95z"/>
	
		<linearGradient id="SVGID_3_" gradientUnits="userSpaceOnUse" x1="9.1865" y1="-53.5205" x2="33.889" y2="-53.5205" gradientTransform="matrix(-0.0323 1.9997 -1.9997 -0.0323 0.1005 -0.0502)">
		<stop  offset="0.0235" style="stop-color:#361747"/>
		<stop  offset="0.2431" style="stop-color:#381A48"/>
		<stop  offset="0.4078" style="stop-color:#40244B"/>
		<stop  offset="0.5529" style="stop-color:#4D3450"/>
		<stop  offset="0.6902" style="stop-color:#5E4B56"/>
		<stop  offset="0.8157" style="stop-color:#75685F"/>
		<stop  offset="0.8314" style="stop-color:#786B60"/>
		<stop  offset="1" style="stop-color:#9CBAB5"/>
	</linearGradient>
	<path style="fill-rule:evenodd;clip-rule:evenodd;fill:url(#SVGID_3_);" d="M176.301,73.65c-5.4,1.133-12.334,1.934-20.801,2.399
		c-13.334,0.667-24.566,0.801-33.699,0.4c-16.268-0.8-30.167-3.2-41.701-7.2c-11.934-4.133-19.333-6.6-22.2-7.399
		c-0.267-0.067-3.533-0.767-9.8-2.101c-9-1.467-14.366-2.366-16.1-2.7c-1.334-0.199-1.867-0.466-1.601-0.8
		c0.267-0.267,1.467-0.8,3.601-1.6c2.933-1.066,7.866-2.167,14.8-3.3c7.533-1.801,15.533-5.267,24-10.4
		c12.133-7.4,21.8-11.8,29-13.2c9.667-1.866,19.1,0.233,28.299,6.3c6.734,4.4,15.168,9.867,25.301,16.4
		c7.867,5.2,14.6,10.2,20.199,15c4.201,3.667,6.301,5.866,6.301,6.6C180.9,72.517,179.033,73.05,176.301,73.65z"/>
</g>
</svg>
