<?xml version="1.0" encoding="iso-8859-1"?>
<!-- Generator: Adobe Illustrator 15.1.0, SVG Export Plug-In . SVG Version: 6.00 Build 0)  -->
<!DOCTYPE svg PUBLIC "-//W3C//DTD SVG 1.1//EN" "http://www.w3.org/Graphics/SVG/1.1/DTD/svg11.dtd">
<svg version="1.1" id="Layer_3" xmlns="http://www.w3.org/2000/svg" xmlns:xlink="http://www.w3.org/1999/xlink" x="0px" y="0px"
	 width="548.7px" height="205.4px" viewBox="0 0 548.7 205.4" style="enable-background:new 0 0 548.7 205.4;" xml:space="preserve"
	>
<symbol  id="flash0.ai_x2F_Layer_3_x2F__x3C_Clip_Group_0_x3E_" viewBox="-0.071 -102.7 274.356 102.7">
	<g id="Layer_1_29_">
	</g>
	<g>
		<defs>
			<path id="SVGID_1_" d="M271.45-71.55c-18.233,5.933-36.633,13.283-55.2,22.05c-11.6,5.467-26.167,13-43.7,22.6
				c-16.8,9.167-28.316,15.183-34.55,18.05c-11.033,5.033-20.267,7.833-27.7,8.4c-16.466,1.233-34.45-2.7-53.95-11.8
				c-16.733-7.8-35.083-19.667-55.05-35.6C-3.067-51.35,3-56.4,19.5-63c13.6-5.433,27.8-9.75,42.6-12.95
				c12.867-2.767,28.65-5.367,47.35-7.8c19.6-2.533,35.533-3.967,47.8-4.3c28.867-0.8,57.617,1.017,86.25,5.45
				c12.067,1.9,20.75,3.833,26.05,5.8C275.15-74.7,275.783-72.95,271.45-71.55z"/>
		</defs>
		<clipPath id="SVGID_2_">
			<use xlink:href="#SVGID_1_"  style="overflow:visible;"/>
		</clipPath>
		<g id="Layer_3_1_" style="clip-path:url(#SVGID_2_);">
			
				<linearGradient id="SVGID_3_" gradientUnits="userSpaceOnUse" x1="15473.6719" y1="141.1563" x2="15568.3291" y2="141.1563" gradientTransform="matrix(0.0576 0.9983 -0.9983 0.0576 -613.4697 -15528.1309)">
				<stop  offset="0" style="stop-color:#7563B5"/>
				<stop  offset="1" style="stop-color:#A6DFC9"/>
			</linearGradient>
			<path style="fill-rule:evenodd;clip-rule:evenodd;fill:url(#SVGID_3_);" d="M243.5-82.6c-28.633-4.433-57.383-6.25-86.25-5.45
				c-12.267,0.333-28.2,1.767-47.8,4.3c-18.7,2.433-34.483,5.033-47.35,7.8c-14.8,3.2-29,7.517-42.6,12.95
				C3-56.4-3.067-51.35,1.3-47.85c19.967,15.934,38.317,27.8,55.05,35.6c19.5,9.1,37.483,13.033,53.95,11.8
				c7.434-0.566,16.667-3.367,27.7-8.4c6.233-2.867,17.75-8.883,34.55-18.05c17.534-9.6,32.1-17.133,43.7-22.6
				c18.567-8.767,36.967-16.117,55.2-22.05c4.333-1.4,3.7-3.15-1.9-5.25C264.25-78.767,255.567-80.7,243.5-82.6z"/>
			
				<use xlink:href="#flash0.ai_x2F_Layer_3_x2F__x3C_Group_x3E__x5F_14"  width="27.9" height="27.65" y="-27.65" transform="matrix(1 0 0 1 148.4502 -8.2002)" style="overflow:visible;opacity:0.2305;enable-background:new    ;"/>
			
				<use xlink:href="#flash0.ai_x2F_Layer_3_x2F__x3C_Group_x3E__x5F_13"  width="27.85" height="27.6" y="-27.6" transform="matrix(1 0 0 1 242.7998 -52.1001)" style="overflow:visible;opacity:0.2305;enable-background:new    ;"/>
			
				<use xlink:href="#flash0.ai_x2F_Layer_3_x2F__x3C_Group_x3E__x5F_12"  width="27.85" height="27.65" y="-27.65" transform="matrix(1 0 0 1 80.5498 -65.5)" style="overflow:visible;opacity:0.2305;enable-background:new    ;"/>
			
				<use xlink:href="#flash0.ai_x2F_Layer_3_x2F__x3C_Group_x3E__x5F_11"  width="27.9" height="27.6" y="-27.6" transform="matrix(1 0 0 1 143.7998 -75.1001)" style="overflow:visible;opacity:0.2305;enable-background:new    ;"/>
			
				<use xlink:href="#flash0.ai_x2F_Layer_3_x2F__x3C_Group_x3E__x5F_10"  width="27.85" height="27.6" y="-27.6" transform="matrix(1 0 0 1 107.5498 -32.7002)" style="overflow:visible;opacity:0.2305;enable-background:new    ;"/>
			
				<use xlink:href="#flash0.ai_x2F_Layer_3_x2F__x3C_Group_x3E__x5F_9"  width="31.55" height="31.25" y="-31.25" transform="matrix(1 0 0 1 174.7002 -38.8501)" style="overflow:visible;opacity:0.2305;enable-background:new    ;"/>
			
				<use xlink:href="#flash0.ai_x2F_Layer_3_x2F__x3C_Group_x3E__x5F_8"  width="27.85" height="27.6" y="-27.6" transform="matrix(1 0 0 1 73.6001 -3.0498)" style="overflow:visible;opacity:0.2305;enable-background:new    ;"/>
			
				<use xlink:href="#flash0.ai_x2F_Layer_3_x2F__x3C_Group_x3E__x5F_7"  width="27.85" height="27.6" y="-27.6" transform="matrix(1 0 0 1 24.3501 -10.3501)" style="overflow:visible;opacity:0.2305;enable-background:new    ;"/>
			
				<use xlink:href="#flash0.ai_x2F_Layer_3_x2F__x3C_Group_x3E__x5F_6"  width="27.9" height="27.65" y="-27.65" transform="matrix(1 0 0 1 36.75 -52.6001)" style="overflow:visible;opacity:0.2305;enable-background:new    ;"/>
			
				<use xlink:href="#flash0.ai_x2F_Layer_3_x2F__x3C_Group_x3E__x5F_5"  width="18.6" height="18.45" y="-18.45" transform="matrix(1 0 0 1 145.1001 -44.1001)" style="overflow:visible;opacity:0.2305;enable-background:new    ;"/>
			
				<use xlink:href="#flash0.ai_x2F_Layer_3_x2F__x3C_Group_x3E__x5F_4"  width="18.6" height="18.45" y="-18.45" transform="matrix(1 0 0 1 118.4502 0)" style="overflow:visible;opacity:0.2305;enable-background:new    ;"/>
			
				<use xlink:href="#flash0.ai_x2F_Layer_3_x2F__x3C_Group_x3E__x5F_3"  width="18.6" height="18.45" y="-18.45" transform="matrix(1 0 0 1 69.3501 -35.8501)" style="overflow:visible;opacity:0.2305;enable-background:new    ;"/>
			
				<use xlink:href="#flash0.ai_x2F_Layer_3_x2F__x3C_Group_x3E__x5F_2"  width="18.6" height="18.45" y="-18.45" transform="matrix(1 0 0 1 210.5 -66.1001)" style="overflow:visible;opacity:0.2305;enable-background:new    ;"/>
			
				<use xlink:href="#flash0.ai_x2F_Layer_3_x2F__x3C_Group_x3E__x5F_1"  width="18.6" height="18.45" y="-18.45" transform="matrix(1 0 0 1 117.1001 -74.5498)" style="overflow:visible;opacity:0.2305;enable-background:new    ;"/>
			
				<use xlink:href="#flash0.ai_x2F_Layer_3_x2F__x3C_Group_x3E_"  width="18.6" height="18.45" y="-18.45" transform="matrix(1 0 0 1 8.8999 -49.2998)" style="overflow:visible;opacity:0.2305;enable-background:new    ;"/>
			
				<use xlink:href="#flash0.ai_x2F_Layer_3_x2F__x3C_Path_x3E__x5F_11"  width="3.422" height="3.672" x="-0.005" y="-3.717" transform="matrix(1 0 0 1 109.6001 -10.4502)" style="overflow:visible;opacity:0.2813;enable-background:new    ;"/>
			
				<use xlink:href="#flash0.ai_x2F_Layer_3_x2F__x3C_Path_x3E__x5F_10"  width="3.422" height="3.672" x="-0.005" y="-3.667" transform="matrix(1 0 0 1 173.3501 -73.1001)" style="overflow:visible;opacity:0.2813;enable-background:new    ;"/>
			
				<use xlink:href="#flash0.ai_x2F_Layer_3_x2F__x3C_Path_x3E__x5F_9"  width="3.422" height="3.722" x="-0.005" y="-3.717" transform="matrix(1 0 0 1 179.2998 -31.8501)" style="overflow:visible;opacity:0.2813;enable-background:new    ;"/>
			
				<use xlink:href="#flash0.ai_x2F_Layer_3_x2F__x3C_Path_x3E__x5F_8"  width="3.422" height="3.721" x="-0.005" y="-3.717" transform="matrix(1 0 0 1 138.1499 -53.8999)" style="overflow:visible;opacity:0.2813;enable-background:new    ;"/>
			
				<use xlink:href="#flash0.ai_x2F_Layer_3_x2F__x3C_Path_x3E__x5F_7"  width="3.423" height="3.672" x="-0.005" y="-3.667" transform="matrix(1 0 0 1 110.8501 -86.2002)" style="overflow:visible;opacity:0.2813;enable-background:new    ;"/>
			
				<use xlink:href="#flash0.ai_x2F_Layer_3_x2F__x3C_Path_x3E__x5F_6"  width="3.422" height="3.672" x="-0.005" y="-3.717" transform="matrix(1 0 0 1 144.8999 -24.8999)" style="overflow:visible;opacity:0.2813;enable-background:new    ;"/>
			
				<use xlink:href="#flash0.ai_x2F_Layer_3_x2F__x3C_Path_x3E__x5F_5"  width="2.562" height="2.776" x="-0.006" y="-2.77" transform="matrix(1 0 0 1 187.6499 -83.7002)" style="overflow:visible;opacity:0.2813;enable-background:new    ;"/>
			
				<use xlink:href="#flash0.ai_x2F_Layer_3_x2F__x3C_Path_x3E__x5F_4"  width="2.562" height="2.763" x="-0.006" y="-2.806" transform="matrix(1 0 0 1 95.7002 -46.5)" style="overflow:visible;opacity:0.2813;enable-background:new    ;"/>
			
				<use xlink:href="#flash0.ai_x2F_Layer_3_x2F__x3C_Path_x3E__x5F_3"  width="2.562" height="2.812" x="-0.006" y="-2.806" transform="matrix(1 0 0 1 60.7998 -18.6499)" style="overflow:visible;opacity:0.2813;enable-background:new    ;"/>
			
				<use xlink:href="#flash0.ai_x2F_Layer_3_x2F__x3C_Path_x3E__x5F_2"  width="2.562" height="2.812" x="-0.006" y="-2.806" transform="matrix(1 0 0 1 45.6499 -42.0498)" style="overflow:visible;opacity:0.2813;enable-background:new    ;"/>
			
				<use xlink:href="#flash0.ai_x2F_Layer_3_x2F__x3C_Path_x3E__x5F_1"  width="2.578" height="2.776" x="-0.006" y="-2.77" transform="matrix(1 0 0 1 72.6001 -61.0498)" style="overflow:visible;opacity:0.2813;enable-background:new    ;"/>
			
				<use xlink:href="#flash0.ai_x2F_Layer_3_x2F__x3C_Path_x3E_"  width="2.529" height="2.812" x="0.044" y="-2.806" transform="matrix(1 0 0 1 219.9502 -56)" style="overflow:visible;opacity:0.2813;enable-background:new    ;"/>
		</g>
	</g>
	<g id="Layer_4_1_">
	</g>
</symbol>
<symbol  id="flash0.ai_x2F_Layer_3_x2F__x3C_Group_x3E_" viewBox="0 -18.45 18.6 18.45">
	<g id="Layer_1_16_">
		<g>
			<g>
				<path style="fill-rule:evenodd;clip-rule:evenodd;fill:#008580;" d="M1.25-11.6c-0.1,0.667-0.2,1.133-0.3,1.4L0-8.15
					c0.733,0.566,1.2,1.066,1.4,1.5C1.5-6.45,1.65-6,1.85-5.3C2.017-4.8,2.2-4.45,2.4-4.25c0.633,0.633,1.2,0.867,1.7,0.7
					c0.3-0.1,0.65-0.434,1.05-1c-1.1-1-1.733-2.284-1.9-3.85c-0.167-1.667,0.3-3.15,1.4-4.45c-0.733-0.533-1.233-0.816-1.5-0.85
					c-0.533-0.133-1.033,0.15-1.5,0.85C1.45-12.55,1.317-12.133,1.25-11.6z"/>
				<path style="fill-rule:evenodd;clip-rule:evenodd;fill:#008580;" d="M10.25,0l0.4-0.55c0.333-0.367,0.684-0.633,1.05-0.8
					c0.333-0.167,0.8-0.333,1.4-0.5c0.467-0.2,0.816-0.417,1.05-0.65c0.967-0.933,0.9-1.833-0.2-2.7c-1.067,1.267-2.434,2-4.1,2.2
					C8.15-2.867,6.667-3.317,5.4-4.35c-0.467,0.633-0.717,1.1-0.75,1.4C4.55-2.45,4.833-2,5.5-1.6c0.3,0.2,0.717,0.333,1.25,0.4
					c0.733,0.1,1.2,0.184,1.4,0.25C8.817-0.717,9.517-0.4,10.25,0z"/>
				<path style="fill-rule:evenodd;clip-rule:evenodd;fill:#008580;" d="M17.6-8.25c0.233-0.633,0.566-1.233,1-1.8
					c-0.167-0.133-0.35-0.3-0.55-0.5c-0.4-0.4-0.667-0.733-0.8-1c-0.1-0.2-0.267-0.684-0.5-1.45c-0.2-0.567-0.4-0.967-0.6-1.2
					c-0.7-0.7-1.3-0.933-1.8-0.7c-0.233,0.133-0.6,0.533-1.1,1.2c1.267,1.1,1.967,2.45,2.1,4.05c0.167,1.533-0.25,2.933-1.25,4.2
					c0.667,0.434,1.133,0.684,1.4,0.75c0.5,0.067,0.967-0.233,1.4-0.9c0.2-0.3,0.333-0.717,0.4-1.25C17.4-7.55,17.5-8.017,17.6-8.25
					z"/>
				<path style="fill-rule:evenodd;clip-rule:evenodd;fill:#008580;" d="M4.85-13.05c1.033-1.133,2.333-1.8,3.9-2
					c1.633-0.167,3.05,0.233,4.25,1.2c0.533-0.767,0.833-1.267,0.9-1.5c0.133-0.566-0.15-1.066-0.85-1.5
					c-0.3-0.2-0.716-0.333-1.25-0.4c-0.733-0.1-1.2-0.183-1.4-0.25c-0.4-0.133-0.816-0.333-1.25-0.6
					c-0.233-0.133-0.417-0.25-0.55-0.35c-0.567,0.7-1.067,1.15-1.5,1.35c-1.434,0.4-2.333,0.783-2.7,1.15
					c-0.733,0.7-0.983,1.3-0.75,1.8C3.783-13.917,4.183-13.55,4.85-13.05z"/>
			</g>
			<path style="fill-rule:evenodd;clip-rule:evenodd;fill:#5BBDAC;" d="M5.8-11.2c-0.033-0.333-0.183-0.6-0.45-0.8
				c-0.267-0.233-0.567-0.333-0.9-0.3c-0.333,0.033-0.617,0.183-0.85,0.45s-0.333,0.567-0.3,0.9c0.034,0.367,0.184,0.65,0.45,0.85
				c0.267,0.2,0.567,0.283,0.9,0.25c0.333-0.033,0.617-0.183,0.85-0.45C5.733-10.533,5.833-10.833,5.8-11.2z"/>
			<path style="fill-rule:evenodd;clip-rule:evenodd;fill:#5BBDAC;" d="M7.65-13.45C7.617-13.817,7.467-14.1,7.2-14.3
				c-0.267-0.233-0.567-0.317-0.9-0.25c-0.333,0.033-0.6,0.183-0.8,0.45c-0.233,0.267-0.333,0.567-0.3,0.9
				c0.033,0.333,0.183,0.6,0.45,0.8c0.267,0.233,0.567,0.333,0.9,0.3c0.333-0.033,0.617-0.183,0.85-0.45
				C7.633-12.817,7.717-13.117,7.65-13.45z"/>
			<path style="fill-rule:evenodd;clip-rule:evenodd;fill:#5BBDAC;" d="M12.75-14c-0.033-0.333-0.183-0.6-0.45-0.8
				c-0.267-0.233-0.566-0.333-0.9-0.3c-0.333,0.033-0.617,0.184-0.85,0.45c-0.233,0.267-0.333,0.566-0.3,0.9
				c0.067,0.367,0.217,0.65,0.45,0.85c0.267,0.2,0.566,0.283,0.9,0.25c0.333-0.033,0.617-0.184,0.85-0.45
				C12.683-13.333,12.783-13.633,12.75-14z"/>
			<path style="fill-rule:evenodd;clip-rule:evenodd;fill:#5BBDAC;" d="M5.95-6.6C5.917-6.933,5.767-7.2,5.5-7.4
				C5.233-7.633,4.933-7.733,4.6-7.7C4.267-7.667,3.983-7.517,3.75-7.25s-0.333,0.567-0.3,0.9C3.517-5.983,3.667-5.7,3.9-5.5
				c0.267,0.2,0.567,0.283,0.9,0.25C5.133-5.283,5.417-5.433,5.65-5.7C5.883-5.933,5.983-6.233,5.95-6.6z"/>
			<path style="fill-rule:evenodd;clip-rule:evenodd;fill:#5BBDAC;" d="M8.5-4.3C8.467-4.667,8.317-4.95,8.05-5.15
				C7.783-5.383,7.483-5.467,7.15-5.4C6.817-5.367,6.533-5.217,6.3-4.95C6.067-4.717,5.967-4.417,6-4.05
				c0.033,0.333,0.183,0.6,0.45,0.8c0.267,0.233,0.566,0.333,0.9,0.3C7.683-3.017,7.967-3.167,8.2-3.4
				C8.433-3.667,8.533-3.967,8.5-4.3z"/>
			<path style="fill-rule:evenodd;clip-rule:evenodd;fill:#5BBDAC;" d="M13.3-4.8c-0.033-0.367-0.183-0.65-0.45-0.85
				c-0.267-0.233-0.567-0.317-0.9-0.25c-0.333,0.033-0.6,0.183-0.8,0.45c-0.233,0.267-0.333,0.567-0.3,0.9
				c0.033,0.333,0.183,0.6,0.45,0.8c0.267,0.233,0.567,0.333,0.9,0.3c0.367-0.066,0.65-0.216,0.85-0.45
				C13.283-4.167,13.367-4.467,13.3-4.8z"/>
			<path style="fill-rule:evenodd;clip-rule:evenodd;fill:#5BBDAC;" d="M15.1-7.2c-0.033-0.333-0.184-0.6-0.45-0.8
				c-0.267-0.233-0.566-0.333-0.9-0.3c-0.333,0.033-0.617,0.183-0.85,0.45s-0.333,0.567-0.3,0.9c0.033,0.367,0.183,0.65,0.45,0.85
				c0.267,0.2,0.567,0.283,0.9,0.25c0.333-0.033,0.617-0.183,0.85-0.45C15.033-6.533,15.133-6.833,15.1-7.2z"/>
			<path style="fill-rule:evenodd;clip-rule:evenodd;fill:#5BBDAC;" d="M15.1-12.15c-0.033-0.367-0.184-0.65-0.45-0.85
				c-0.267-0.233-0.566-0.317-0.9-0.25c-0.333,0.033-0.6,0.183-0.8,0.45c-0.233,0.267-0.333,0.566-0.3,0.9
				c0.033,0.367,0.184,0.65,0.45,0.85c0.267,0.2,0.566,0.283,0.9,0.25c0.333-0.034,0.617-0.184,0.85-0.45S15.167-11.817,15.1-12.15z
				"/>
		</g>
	</g>
</symbol>
<symbol  id="flash0.ai_x2F_Layer_3_x2F__x3C_Group_x3E__x5F_1" viewBox="0 -18.45 18.6 18.45">
	<g id="Layer_1_15_">
		<g>
			<g>
				<path style="fill-rule:evenodd;clip-rule:evenodd;fill:#008580;" d="M1.25-11.55c-0.1,0.667-0.2,1.117-0.3,1.35L0-8.15
					C0.733-7.583,1.2-7.067,1.4-6.6C1.5-6.433,1.65-6,1.85-5.3c0.167,0.5,0.367,0.85,0.6,1.05c0.633,0.667,1.2,0.917,1.7,0.75
					C4.417-3.6,4.767-3.95,5.2-4.55c-1.133-1-1.784-2.284-1.95-3.85c-0.167-1.667,0.3-3.15,1.4-4.45
					c-0.733-0.533-1.217-0.816-1.45-0.85c-0.567-0.133-1.067,0.15-1.5,0.85C1.5-12.55,1.35-12.117,1.25-11.55z"/>
				<path style="fill-rule:evenodd;clip-rule:evenodd;fill:#008580;" d="M10.25,0l0.4-0.55c0.367-0.367,0.733-0.633,1.1-0.8
					c0.333-0.133,0.783-0.3,1.35-0.5c0.5-0.2,0.867-0.417,1.1-0.65c0.966-0.967,0.883-1.867-0.25-2.7c-1.067,1.267-2.434,2-4.1,2.2
					C8.15-2.867,6.667-3.317,5.4-4.35c-0.467,0.633-0.717,1.1-0.75,1.4C4.583-2.45,4.867-2,5.5-1.6c0.3,0.2,0.733,0.333,1.3,0.4
					C7.467-1.1,7.917-1,8.15-0.9C8.817-0.7,9.517-0.4,10.25,0z"/>
				<path style="fill-rule:evenodd;clip-rule:evenodd;fill:#008580;" d="M17.6-8.25c0.267-0.633,0.6-1.233,1-1.8
					c-0.167-0.133-0.35-0.3-0.55-0.5c-0.4-0.367-0.667-0.7-0.8-1c-0.067-0.133-0.233-0.617-0.5-1.45
					c-0.167-0.567-0.367-0.967-0.6-1.2c-0.667-0.667-1.267-0.883-1.8-0.65c-0.267,0.1-0.633,0.483-1.1,1.15c1.3,1.1,2,2.45,2.1,4.05
					c0.167,1.566-0.233,2.967-1.2,4.2c0.6,0.467,1.05,0.717,1.35,0.75c0.5,0.067,0.967-0.216,1.4-0.85
					C17.233-6.083,17.467-6.983,17.6-8.25z"/>
				<path style="fill-rule:evenodd;clip-rule:evenodd;fill:#008580;" d="M4.9-13.05c1.033-1.167,2.333-1.817,3.9-1.95
					c1.567-0.2,2.967,0.183,4.2,1.15c0.567-0.733,0.883-1.233,0.95-1.5c0.133-0.566-0.15-1.066-0.85-1.5
					c-0.3-0.167-0.733-0.3-1.3-0.4c-0.7-0.1-1.167-0.183-1.4-0.25l-1.8-0.95c-0.567,0.7-1.067,1.15-1.5,1.35
					c-1.4,0.4-2.3,0.783-2.7,1.15c-0.733,0.7-0.967,1.3-0.7,1.8C3.8-13.883,4.2-13.517,4.9-13.05z"/>
			</g>
			<path style="fill-rule:evenodd;clip-rule:evenodd;fill:#5BBDAC;" d="M5.8-11.2c-0.033-0.333-0.183-0.6-0.45-0.8
				c-0.267-0.233-0.567-0.333-0.9-0.3c-0.333,0.033-0.617,0.183-0.85,0.45s-0.333,0.583-0.3,0.95c0.034,0.333,0.184,0.6,0.45,0.8
				c0.267,0.233,0.567,0.333,0.9,0.3c0.367-0.067,0.65-0.233,0.85-0.5C5.733-10.567,5.833-10.867,5.8-11.2z"/>
			<path style="fill-rule:evenodd;clip-rule:evenodd;fill:#5BBDAC;" d="M7.7-13.45c-0.034-0.333-0.184-0.617-0.45-0.85
				c-0.267-0.2-0.567-0.284-0.9-0.25c-0.333,0.033-0.617,0.183-0.85,0.45s-0.333,0.567-0.3,0.9c0.033,0.367,0.183,0.65,0.45,0.85
				c0.267,0.2,0.567,0.283,0.9,0.25c0.333-0.033,0.617-0.183,0.85-0.45C7.633-12.783,7.733-13.083,7.7-13.45z"/>
			<path style="fill-rule:evenodd;clip-rule:evenodd;fill:#5BBDAC;" d="M12.75-13.95c-0.033-0.367-0.183-0.65-0.45-0.85
				c-0.267-0.233-0.566-0.317-0.9-0.25c-0.333,0.033-0.617,0.183-0.85,0.45c-0.2,0.267-0.283,0.567-0.25,0.9
				c0.034,0.333,0.184,0.6,0.45,0.8c0.267,0.233,0.567,0.333,0.9,0.3c0.333-0.066,0.6-0.217,0.8-0.45
				C12.683-13.317,12.783-13.617,12.75-13.95z"/>
			<path style="fill-rule:evenodd;clip-rule:evenodd;fill:#5BBDAC;" d="M5.95-6.6C5.917-6.933,5.767-7.2,5.5-7.4
				C5.233-7.633,4.933-7.733,4.6-7.7C4.267-7.667,4-7.517,3.8-7.25C3.567-6.95,3.467-6.633,3.5-6.3c0.033,0.333,0.183,0.6,0.45,0.8
				c0.267,0.233,0.566,0.333,0.9,0.3c0.333-0.066,0.6-0.233,0.8-0.5C5.883-5.967,5.983-6.267,5.95-6.6z"/>
			<path style="fill-rule:evenodd;clip-rule:evenodd;fill:#5BBDAC;" d="M8.5-4.3C8.467-4.633,8.317-4.917,8.05-5.15
				c-0.233-0.2-0.533-0.283-0.9-0.25C6.817-5.367,6.533-5.217,6.3-4.95C6.067-4.683,5.967-4.383,6-4.05
				C6.033-3.717,6.183-3.433,6.45-3.2C6.717-3,7.017-2.917,7.35-2.95C7.683-2.983,7.967-3.133,8.2-3.4
				C8.433-3.633,8.533-3.933,8.5-4.3z"/>
			<path style="fill-rule:evenodd;clip-rule:evenodd;fill:#5BBDAC;" d="M13.35-4.8c-0.033-0.333-0.184-0.617-0.45-0.85
				c-0.267-0.2-0.566-0.283-0.9-0.25s-0.617,0.183-0.85,0.45c-0.233,0.267-0.333,0.567-0.3,0.9c0.033,0.367,0.183,0.65,0.45,0.85
				c0.267,0.2,0.567,0.284,0.9,0.25c0.333-0.033,0.617-0.183,0.85-0.45C13.283-4.133,13.383-4.433,13.35-4.8z"/>
			<path style="fill-rule:evenodd;clip-rule:evenodd;fill:#5BBDAC;" d="M15.1-7.2c-0.033-0.333-0.184-0.6-0.45-0.8
				c-0.267-0.233-0.566-0.333-0.9-0.3c-0.367,0.033-0.65,0.183-0.85,0.45c-0.2,0.3-0.283,0.617-0.25,0.95
				c0.033,0.333,0.184,0.6,0.45,0.8c0.267,0.233,0.566,0.333,0.9,0.3c0.333-0.067,0.6-0.233,0.8-0.5
				C15.033-6.567,15.133-6.867,15.1-7.2z"/>
			<path style="fill-rule:evenodd;clip-rule:evenodd;fill:#5BBDAC;" d="M15.15-12.15c-0.033-0.333-0.183-0.6-0.45-0.8
				c-0.267-0.233-0.567-0.333-0.9-0.3c-0.333,0.033-0.617,0.183-0.85,0.45c-0.233,0.267-0.333,0.566-0.3,0.9
				c0.033,0.367,0.184,0.65,0.45,0.85c0.267,0.2,0.566,0.283,0.9,0.25c0.333-0.034,0.617-0.184,0.85-0.45
				C15.083-11.483,15.183-11.783,15.15-12.15z"/>
		</g>
	</g>
</symbol>
<symbol  id="flash0.ai_x2F_Layer_3_x2F__x3C_Group_x3E__x5F_10" viewBox="0 -27.6 27.85 27.6">
	<g id="Layer_1_6_">
		<g>
			<g>
				<path style="fill-rule:evenodd;clip-rule:evenodd;fill:#008580;" d="M0-12.2c1.1,0.867,1.8,1.633,2.1,2.3
					c0.1,0.233,0.333,0.9,0.7,2c0.233,0.7,0.517,1.217,0.85,1.55c0.967,0.967,1.8,1.333,2.5,1.1c0.467-0.167,1-0.683,1.6-1.55
					c-1.7-1.534-2.65-3.45-2.85-5.75C4.667-15.017,5.367-17.233,7-19.2c-1.133-0.8-1.883-1.233-2.25-1.3
					c-0.833-0.233-1.583,0.183-2.25,1.25c-0.267,0.433-0.467,1.067-0.6,1.9c-0.167,1.033-0.316,1.733-0.45,2.1
					c-0.233,0.6-0.55,1.283-0.95,2.05L0-12.2z"/>
				<path style="fill-rule:evenodd;clip-rule:evenodd;fill:#008580;" d="M21.25-3.75c1.433-1.4,1.317-2.75-0.35-4.05
					c-1.633,1.966-3.683,3.066-6.15,3.3s-4.683-0.433-6.65-2C7.4-5.567,7.017-4.883,6.95-4.45C6.85-3.683,7.283-3,8.25-2.4
					c0.467,0.3,1.117,0.5,1.95,0.6c1.066,0.167,1.75,0.3,2.05,0.4c0.967,0.333,2,0.8,3.1,1.4l0.6-0.8
					c0.533-0.567,1.083-0.967,1.65-1.2c0.467-0.233,1.133-0.5,2-0.8C20.333-3.067,20.883-3.383,21.25-3.75z"/>
				<path style="fill-rule:evenodd;clip-rule:evenodd;fill:#008580;" d="M21.2-8.15c0.9,0.667,1.583,1.033,2.05,1.1
					c0.733,0.1,1.417-0.333,2.05-1.3c0.3-0.467,0.517-1.117,0.65-1.95c0.2-1.034,0.35-1.717,0.45-2.05
					c0.367-0.967,0.85-1.85,1.45-2.65c-0.233-0.233-0.5-0.483-0.8-0.75c-0.6-0.6-1-1.1-1.2-1.5c-0.133-0.267-0.383-1-0.75-2.2
					c-0.267-0.867-0.567-1.466-0.9-1.8c-1.034-1.033-1.934-1.367-2.7-1c-0.367,0.167-0.917,0.75-1.65,1.75
					c1.9,1.567,2.95,3.583,3.15,6.05C23.233-12.183,22.633-10.083,21.2-8.15z"/>
				<path style="fill-rule:evenodd;clip-rule:evenodd;fill:#008580;" d="M7.3-19.55c1.6-1.733,3.55-2.717,5.85-2.95
					c2.333-0.233,4.45,0.35,6.35,1.75c0.8-1.1,1.25-1.85,1.35-2.25c0.233-0.8-0.184-1.533-1.25-2.2c-0.467-0.3-1.1-0.5-1.9-0.6
					c-1.1-0.167-1.8-0.3-2.1-0.4c-0.6-0.2-1.233-0.5-1.9-0.9c-0.333-0.2-0.6-0.367-0.8-0.5c-0.833,1-1.6,1.667-2.3,2
					c-0.3,0.133-1.033,0.4-2.2,0.8c-0.867,0.3-1.467,0.617-1.8,0.95c-1.067,1.033-1.417,1.917-1.05,2.65
					C5.683-20.867,6.267-20.317,7.3-19.55z"/>
			</g>
			<path style="fill-rule:evenodd;clip-rule:evenodd;fill:#5BBDAC;" d="M8.7-16.75c-0.034-0.5-0.25-0.917-0.65-1.25
				c-0.4-0.333-0.867-0.467-1.4-0.4c-0.5,0.033-0.917,0.267-1.25,0.7c-0.333,0.4-0.483,0.85-0.45,1.35
				c0.066,0.5,0.283,0.917,0.65,1.25C6-14.8,6.467-14.667,7-14.7c0.5-0.066,0.917-0.3,1.25-0.7S8.733-16.25,8.7-16.75z"/>
			<path style="fill-rule:evenodd;clip-rule:evenodd;fill:#5BBDAC;" d="M11.5-20.15c-0.033-0.5-0.25-0.917-0.65-1.25
				c-0.4-0.333-0.85-0.467-1.35-0.4c-0.533,0.033-0.967,0.25-1.3,0.65c-0.3,0.4-0.434,0.867-0.4,1.4
				c0.067,0.5,0.284,0.917,0.65,1.25c0.4,0.3,0.85,0.433,1.35,0.4c0.534-0.066,0.967-0.3,1.3-0.7
				C11.433-19.2,11.567-19.65,11.5-20.15z"/>
			<path style="fill-rule:evenodd;clip-rule:evenodd;fill:#5BBDAC;" d="M19.1-20.95c-0.033-0.5-0.25-0.917-0.65-1.25
				c-0.4-0.333-0.85-0.466-1.35-0.4c-0.533,0.067-0.967,0.3-1.3,0.7c-0.3,0.4-0.433,0.85-0.4,1.35c0.067,0.5,0.283,0.917,0.65,1.25
				c0.4,0.3,0.85,0.433,1.35,0.4c0.533-0.067,0.967-0.283,1.3-0.65C19.033-19.95,19.167-20.417,19.1-20.95z"/>
			<path style="fill-rule:evenodd;clip-rule:evenodd;fill:#5BBDAC;" d="M8.95-9.85c-0.034-0.5-0.25-0.917-0.65-1.25
				c-0.4-0.333-0.867-0.467-1.4-0.4c-0.5,0.033-0.917,0.25-1.25,0.65c-0.333,0.4-0.483,0.867-0.45,1.4
				c0.066,0.5,0.283,0.917,0.65,1.25c0.4,0.3,0.867,0.434,1.4,0.4c0.5-0.067,0.917-0.3,1.25-0.7C8.867-8.9,9.017-9.35,8.95-9.85z"/>
			<path style="fill-rule:evenodd;clip-rule:evenodd;fill:#5BBDAC;" d="M12.7-6.45c-0.034-0.5-0.233-0.917-0.6-1.25
				c-0.4-0.333-0.867-0.466-1.4-0.4c-0.5,0.033-0.917,0.25-1.25,0.65C9.117-7.05,8.967-6.583,9-6.05
				c0.067,0.5,0.283,0.917,0.65,1.25c0.4,0.3,0.867,0.433,1.4,0.4c0.5-0.067,0.917-0.3,1.25-0.7C12.633-5.5,12.767-5.95,12.7-6.45z"
				/>
			<path style="fill-rule:evenodd;clip-rule:evenodd;fill:#5BBDAC;" d="M20-7.2c-0.033-0.5-0.25-0.917-0.65-1.25
				c-0.4-0.333-0.867-0.466-1.4-0.4c-0.5,0.033-0.917,0.25-1.25,0.65c-0.333,0.4-0.483,0.867-0.45,1.4
				c0.067,0.5,0.283,0.917,0.65,1.25c0.4,0.3,0.867,0.433,1.4,0.4c0.5-0.067,0.917-0.3,1.25-0.7C19.883-6.25,20.033-6.7,20-7.2z"/>
			<path style="fill-rule:evenodd;clip-rule:evenodd;fill:#5BBDAC;" d="M22.65-10.75C22.617-11.25,22.4-11.667,22-12
				s-0.867-0.467-1.4-0.4c-0.5,0.033-0.917,0.25-1.25,0.65c-0.333,0.4-0.483,0.867-0.45,1.4c0.067,0.5,0.283,0.917,0.65,1.25
				c0.4,0.3,0.867,0.434,1.4,0.4c0.5-0.066,0.917-0.3,1.25-0.7C22.533-9.8,22.683-10.25,22.65-10.75z"/>
			<path style="fill-rule:evenodd;clip-rule:evenodd;fill:#5BBDAC;" d="M22.65-18.2c-0.033-0.5-0.233-0.917-0.6-1.25
				c-0.4-0.333-0.867-0.466-1.4-0.4c-0.5,0.033-0.917,0.267-1.25,0.7c-0.333,0.4-0.483,0.85-0.45,1.35
				c0.066,0.5,0.283,0.917,0.65,1.25c0.4,0.3,0.867,0.433,1.4,0.4c0.5-0.067,0.917-0.283,1.25-0.65
				C22.583-17.2,22.717-17.667,22.65-18.2z"/>
		</g>
	</g>
</symbol>
<symbol  id="flash0.ai_x2F_Layer_3_x2F__x3C_Group_x3E__x5F_11" viewBox="0 -27.6 27.9 27.6">
	<g id="Layer_1_5_">
		<g>
			<g>
				<path style="fill-rule:evenodd;clip-rule:evenodd;fill:#008580;" d="M0-12.2c1.1,0.867,1.817,1.633,2.15,2.3
					c0.133,0.267,0.367,0.933,0.7,2c0.233,0.7,0.5,1.217,0.8,1.55c0.967,1,1.817,1.367,2.55,1.1c0.4-0.133,0.933-0.633,1.6-1.5
					c-1.733-1.567-2.7-3.5-2.9-5.8c-0.2-2.5,0.5-4.717,2.1-6.65c-1.1-0.767-1.833-1.2-2.2-1.3c-0.833-0.2-1.583,0.233-2.25,1.3
					c-0.267,0.434-0.483,1.067-0.65,1.9c-0.167,1.033-0.316,1.716-0.45,2.05c-0.2,0.633-0.5,1.333-0.9,2.1L0-12.2z"/>
				<path style="fill-rule:evenodd;clip-rule:evenodd;fill:#008580;" d="M22.25-6.1c-0.133-0.533-0.567-1.083-1.3-1.65
					c-1.633,1.933-3.7,3.017-6.2,3.25S10.033-4.917,8.1-6.45C7.433-5.55,7.067-4.867,7-4.4C6.867-3.667,7.283-2.983,8.25-2.35
					c0.433,0.267,1.083,0.467,1.95,0.6c1,0.133,1.683,0.267,2.05,0.4c0.967,0.333,2,0.783,3.1,1.35L16-0.8
					c0.533-0.567,1.067-0.967,1.6-1.2c0.5-0.233,1.183-0.5,2.05-0.8c0.733-0.267,1.267-0.567,1.6-0.9
					C22.117-4.567,22.45-5.367,22.25-6.1z"/>
				<path style="fill-rule:evenodd;clip-rule:evenodd;fill:#008580;" d="M21.2-8.1c0.9,0.667,1.583,1.033,2.05,1.1
					c0.767,0.1,1.467-0.35,2.1-1.35c0.267-0.433,0.467-1.066,0.6-1.9c0.167-1.033,0.316-1.717,0.45-2.05
					c0.367-0.967,0.867-1.867,1.5-2.7c-0.267-0.2-0.55-0.45-0.85-0.75c-0.566-0.6-0.95-1.1-1.15-1.5c-0.167-0.3-0.433-1.033-0.8-2.2
					c-0.267-0.833-0.567-1.417-0.9-1.75c-1.034-1.066-1.934-1.417-2.7-1.05c-0.333,0.167-0.883,0.767-1.65,1.8
					c1.867,1.5,2.933,3.517,3.2,6.05C23.25-12.133,22.633-10.033,21.2-8.1z"/>
				<path style="fill-rule:evenodd;clip-rule:evenodd;fill:#008580;" d="M7.35-19.55c1.566-1.733,3.517-2.7,5.85-2.9
					c2.333-0.233,4.433,0.333,6.3,1.7c0.8-1.1,1.25-1.85,1.35-2.25c0.233-0.8-0.184-1.533-1.25-2.2
					c-0.434-0.267-1.067-0.466-1.9-0.6c-1.034-0.133-1.733-0.267-2.1-0.4c-0.6-0.2-1.217-0.5-1.85-0.9c-0.333-0.2-0.6-0.367-0.8-0.5
					c-0.867,1.033-1.633,1.717-2.3,2.05c-0.233,0.1-0.967,0.35-2.2,0.75c-0.867,0.3-1.483,0.617-1.85,0.95
					c-1.067,1.067-1.417,1.967-1.05,2.7C5.717-20.783,6.317-20.25,7.35-19.55z"/>
			</g>
			<path style="fill-rule:evenodd;clip-rule:evenodd;fill:#5BBDAC;" d="M8.7-16.7c-0.034-0.533-0.25-0.95-0.65-1.25
				c-0.4-0.333-0.85-0.466-1.35-0.4c-0.534,0.033-0.967,0.25-1.3,0.65c-0.3,0.4-0.433,0.85-0.4,1.35
				c0.033,0.533,0.25,0.95,0.65,1.25c0.367,0.333,0.817,0.467,1.35,0.4c0.533-0.066,0.967-0.283,1.3-0.65
				C8.633-15.75,8.767-16.2,8.7-16.7z"/>
			<path style="fill-rule:evenodd;clip-rule:evenodd;fill:#5BBDAC;" d="M11.55-20.1c-0.033-0.533-0.25-0.95-0.65-1.25
				c-0.4-0.333-0.867-0.467-1.4-0.4C9-21.717,8.583-21.5,8.25-21.1s-0.483,0.85-0.45,1.35c0.067,0.533,0.284,0.95,0.65,1.25
				c0.4,0.3,0.867,0.433,1.4,0.4c0.5-0.066,0.917-0.283,1.25-0.65C11.433-19.15,11.583-19.6,11.55-20.1z"/>
			<path style="fill-rule:evenodd;clip-rule:evenodd;fill:#5BBDAC;" d="M19.15-20.9c-0.033-0.5-0.25-0.917-0.65-1.25
				c-0.4-0.333-0.867-0.467-1.4-0.4c-0.5,0.033-0.917,0.25-1.25,0.65c-0.333,0.4-0.483,0.867-0.45,1.4
				c0.067,0.5,0.283,0.917,0.65,1.25c0.4,0.3,0.867,0.433,1.4,0.4c0.5-0.066,0.917-0.3,1.25-0.7
				C19.033-19.95,19.183-20.4,19.15-20.9z"/>
			<path style="fill-rule:evenodd;clip-rule:evenodd;fill:#5BBDAC;" d="M8.95-9.85c-0.034-0.5-0.25-0.917-0.65-1.25
				c-0.4-0.333-0.85-0.467-1.35-0.4c-0.534,0.067-0.967,0.3-1.3,0.7c-0.3,0.4-0.433,0.85-0.4,1.35C5.317-8.95,5.533-8.533,5.9-8.2
				c0.4,0.3,0.85,0.434,1.35,0.4c0.533-0.067,0.967-0.284,1.3-0.65C8.883-8.85,9.017-9.317,8.95-9.85z"/>
			<path style="fill-rule:evenodd;clip-rule:evenodd;fill:#5BBDAC;" d="M12.75-6.4c-0.033-0.533-0.25-0.967-0.65-1.3
				c-0.4-0.3-0.867-0.417-1.4-0.35C10.2-8.017,9.783-7.8,9.45-7.4C9.117-7,8.967-6.55,9-6.05C9.067-5.517,9.283-5.1,9.65-4.8
				c0.4,0.3,0.867,0.433,1.4,0.4c0.5-0.067,0.917-0.283,1.25-0.65C12.667-5.45,12.817-5.9,12.75-6.4z"/>
			<path style="fill-rule:evenodd;clip-rule:evenodd;fill:#5BBDAC;" d="M20-7.15c-0.033-0.533-0.25-0.967-0.65-1.3
				C18.95-8.75,18.5-8.867,18-8.8c-0.533,0.033-0.967,0.25-1.3,0.65c-0.3,0.4-0.434,0.85-0.4,1.35c0.034,0.533,0.25,0.95,0.65,1.25
				c0.367,0.3,0.816,0.433,1.35,0.4c0.534-0.067,0.967-0.283,1.3-0.65C19.933-6.2,20.067-6.65,20-7.15z"/>
			<path style="fill-rule:evenodd;clip-rule:evenodd;fill:#5BBDAC;" d="M22.65-10.75C22.617-11.25,22.4-11.667,22-12
				s-0.85-0.467-1.35-0.4c-0.533,0.066-0.967,0.3-1.3,0.7c-0.3,0.4-0.434,0.85-0.4,1.35c0.033,0.5,0.25,0.917,0.65,1.25
				c0.367,0.3,0.816,0.434,1.35,0.4c0.5-0.066,0.917-0.283,1.25-0.65C22.567-9.75,22.717-10.217,22.65-10.75z"/>
			<path style="fill-rule:evenodd;clip-rule:evenodd;fill:#5BBDAC;" d="M22.7-18.15c-0.034-0.533-0.25-0.95-0.65-1.25
				c-0.4-0.333-0.867-0.467-1.4-0.4c-0.5,0.033-0.917,0.25-1.25,0.65c-0.333,0.4-0.483,0.85-0.45,1.35
				c0.066,0.533,0.283,0.95,0.65,1.25c0.4,0.333,0.867,0.466,1.4,0.4c0.5-0.067,0.917-0.283,1.25-0.65
				C22.583-17.2,22.733-17.65,22.7-18.15z"/>
		</g>
	</g>
</symbol>
<symbol  id="flash0.ai_x2F_Layer_3_x2F__x3C_Group_x3E__x5F_12" viewBox="0 -27.65 27.85 27.65">
	<g id="Layer_1_4_">
		<g>
			<g>
				<path style="fill-rule:evenodd;clip-rule:evenodd;fill:#008580;" d="M0-12.2c1.1,0.867,1.8,1.617,2.1,2.25
					c0.1,0.233,0.333,0.9,0.7,2c0.233,0.733,0.517,1.267,0.85,1.6c0.967,0.967,1.8,1.333,2.5,1.1c0.467-0.167,1-0.683,1.6-1.55
					c-1.7-1.534-2.65-3.467-2.85-5.8c-0.233-2.433,0.467-4.633,2.1-6.6c-1.1-0.8-1.85-1.25-2.25-1.35
					c-0.833-0.2-1.583,0.233-2.25,1.3c-0.267,0.433-0.467,1.067-0.6,1.9c-0.167,1.033-0.316,1.733-0.45,2.1
					c-0.233,0.6-0.55,1.283-0.95,2.05L0-12.2z"/>
				<path style="fill-rule:evenodd;clip-rule:evenodd;fill:#008580;" d="M22.2-6.15c-0.133-0.533-0.567-1.083-1.3-1.65
					c-1.566,1.9-3.617,3-6.15,3.3c-2.467,0.233-4.683-0.433-6.65-2C7.4-5.567,7.017-4.883,6.95-4.45
					c-0.1,0.733,0.333,1.417,1.3,2.05c0.433,0.3,1.067,0.5,1.9,0.6c1.1,0.167,1.8,0.3,2.1,0.4c0.967,0.333,2,0.8,3.1,1.4l0.6-0.8
					c0.533-0.6,1.083-1.017,1.65-1.25c0.467-0.2,1.133-0.45,2-0.75c0.733-0.267,1.283-0.583,1.65-0.95
					C22.117-4.617,22.433-5.417,22.2-6.15z"/>
				<path style="fill-rule:evenodd;clip-rule:evenodd;fill:#008580;" d="M21.15-8.15c0.934,0.667,1.633,1.033,2.1,1.1
					c0.733,0.1,1.417-0.333,2.05-1.3c0.3-0.467,0.517-1.117,0.65-1.95c0.167-1.034,0.316-1.717,0.45-2.05
					c0.333-0.967,0.817-1.867,1.45-2.7c-0.233-0.2-0.5-0.45-0.8-0.75c-0.6-0.6-1-1.1-1.2-1.5c-0.133-0.3-0.383-1.017-0.75-2.15
					c-0.3-0.867-0.6-1.466-0.9-1.8c-1.034-1.067-1.934-1.417-2.7-1.05c-0.333,0.167-0.883,0.767-1.65,1.8
					c1.9,1.567,2.95,3.583,3.15,6.05C23.2-12.117,22.583-10.017,21.15-8.15z"/>
				<path style="fill-rule:evenodd;clip-rule:evenodd;fill:#008580;" d="M7.3-19.55c1.6-1.733,3.55-2.717,5.85-2.95
					c2.333-0.233,4.45,0.35,6.35,1.75c0.8-1.167,1.25-1.917,1.35-2.25c0.2-0.8-0.217-1.533-1.25-2.2c-0.467-0.3-1.1-0.5-1.9-0.6
					c-1.1-0.167-1.8-0.3-2.1-0.4c-0.6-0.233-1.233-0.55-1.9-0.95c-0.333-0.2-0.6-0.367-0.8-0.5c-0.867,1.033-1.633,1.717-2.3,2.05
					c-0.2,0.1-0.934,0.367-2.2,0.8c-0.867,0.3-1.467,0.617-1.8,0.95c-1.067,1.033-1.417,1.917-1.05,2.65
					C5.683-20.867,6.267-20.317,7.3-19.55z"/>
			</g>
			<path style="fill-rule:evenodd;clip-rule:evenodd;fill:#5BBDAC;" d="M8.7-16.75c-0.034-0.5-0.25-0.917-0.65-1.25
				c-0.4-0.333-0.867-0.467-1.4-0.4c-0.5,0.033-0.917,0.25-1.25,0.65c-0.333,0.4-0.483,0.867-0.45,1.4
				c0.066,0.5,0.283,0.917,0.65,1.25C6-14.8,6.467-14.667,7-14.7c0.5-0.066,0.917-0.3,1.25-0.7S8.733-16.25,8.7-16.75z"/>
			<path style="fill-rule:evenodd;clip-rule:evenodd;fill:#5BBDAC;" d="M11.5-20.15c-0.033-0.5-0.25-0.917-0.65-1.25
				c-0.4-0.333-0.85-0.467-1.35-0.4c-0.533,0.033-0.967,0.25-1.3,0.65c-0.3,0.4-0.434,0.867-0.4,1.4
				c0.067,0.5,0.284,0.917,0.65,1.25c0.4,0.3,0.85,0.433,1.35,0.4c0.534-0.066,0.967-0.3,1.3-0.7
				C11.433-19.2,11.567-19.65,11.5-20.15z"/>
			<path style="fill-rule:evenodd;clip-rule:evenodd;fill:#5BBDAC;" d="M19.1-20.95c-0.033-0.5-0.25-0.917-0.65-1.25
				c-0.4-0.333-0.85-0.466-1.35-0.4c-0.533,0.033-0.967,0.267-1.3,0.7c-0.3,0.4-0.433,0.85-0.4,1.35
				c0.067,0.5,0.283,0.917,0.65,1.25c0.4,0.3,0.85,0.433,1.35,0.4c0.533-0.067,0.967-0.3,1.3-0.7C19.033-20,19.167-20.45,19.1-20.95
				z"/>
			<path style="fill-rule:evenodd;clip-rule:evenodd;fill:#5BBDAC;" d="M8.95-9.85C8.917-10.383,8.7-10.8,8.3-11.1
				c-0.4-0.333-0.867-0.467-1.4-0.4c-0.5,0.033-0.917,0.25-1.25,0.65C5.317-10.45,5.167-10,5.2-9.5
				c0.066,0.533,0.283,0.95,0.65,1.25c0.4,0.333,0.867,0.467,1.4,0.4C7.75-7.917,8.167-8.133,8.5-8.5
				C8.833-8.9,8.983-9.35,8.95-9.85z"/>
			<path style="fill-rule:evenodd;clip-rule:evenodd;fill:#5BBDAC;" d="M12.7-6.45c-0.034-0.5-0.233-0.917-0.6-1.25
				c-0.4-0.333-0.867-0.466-1.4-0.4c-0.5,0.033-0.917,0.25-1.25,0.65C9.117-7.05,8.967-6.583,9-6.05
				c0.067,0.5,0.283,0.917,0.65,1.25c0.4,0.3,0.867,0.433,1.4,0.4c0.5-0.067,0.917-0.3,1.25-0.7C12.633-5.5,12.767-5.95,12.7-6.45z"
				/>
			<path style="fill-rule:evenodd;clip-rule:evenodd;fill:#5BBDAC;" d="M19.95-7.2c-0.034-0.5-0.233-0.917-0.6-1.25
				c-0.4-0.333-0.867-0.466-1.4-0.4c-0.5,0.033-0.917,0.25-1.25,0.65c-0.333,0.4-0.483,0.867-0.45,1.4
				c0.067,0.5,0.283,0.917,0.65,1.25c0.4,0.3,0.867,0.433,1.4,0.4c0.5-0.067,0.917-0.3,1.25-0.7C19.883-6.25,20.017-6.7,19.95-7.2z"
				/>
			<path style="fill-rule:evenodd;clip-rule:evenodd;fill:#5BBDAC;" d="M22.65-10.75C22.617-11.283,22.4-11.7,22-12
				c-0.4-0.333-0.867-0.467-1.4-0.4c-0.5,0.033-0.917,0.25-1.25,0.65c-0.333,0.4-0.483,0.85-0.45,1.35
				c0.067,0.533,0.283,0.95,0.65,1.25c0.4,0.333,0.867,0.467,1.4,0.4c0.5-0.067,0.917-0.283,1.25-0.65
				C22.533-9.8,22.683-10.25,22.65-10.75z"/>
			<path style="fill-rule:evenodd;clip-rule:evenodd;fill:#5BBDAC;" d="M22.65-18.2c-0.033-0.5-0.25-0.917-0.65-1.25
				c-0.4-0.333-0.85-0.466-1.35-0.4c-0.533,0.033-0.967,0.25-1.3,0.65c-0.3,0.4-0.434,0.867-0.4,1.4
				c0.066,0.5,0.283,0.917,0.65,1.25c0.4,0.3,0.85,0.433,1.35,0.4c0.533-0.067,0.966-0.3,1.3-0.7S22.717-17.7,22.65-18.2z"/>
		</g>
	</g>
</symbol>
<symbol  id="flash0.ai_x2F_Layer_3_x2F__x3C_Group_x3E__x5F_13" viewBox="0 -27.6 27.85 27.6">
	<g id="Layer_1_3_">
		<g>
			<g>
				<path style="fill-rule:evenodd;clip-rule:evenodd;fill:#008580;" d="M0-12.2c1.1,0.867,1.8,1.633,2.1,2.3
					c0.1,0.233,0.333,0.9,0.7,2c0.233,0.7,0.517,1.217,0.85,1.55c0.967,0.967,1.8,1.333,2.5,1.1c0.467-0.167,1-0.683,1.6-1.55
					c-1.7-1.534-2.65-3.45-2.85-5.75C4.667-15.017,5.367-17.233,7-19.2c-1.133-0.8-1.883-1.233-2.25-1.3
					c-0.833-0.233-1.583,0.183-2.25,1.25c-0.267,0.433-0.467,1.067-0.6,1.9c-0.167,1.033-0.316,1.733-0.45,2.1
					c-0.233,0.6-0.55,1.283-0.95,2.05L0-12.2z"/>
				<path style="fill-rule:evenodd;clip-rule:evenodd;fill:#008580;" d="M22.2-6.15c-0.133-0.533-0.567-1.083-1.3-1.65
					c-1.633,1.966-3.683,3.066-6.15,3.3C12.217-4.233,10-4.9,8.1-6.5C7.4-5.567,7.017-4.883,6.95-4.45C6.85-3.683,7.283-3,8.25-2.4
					c0.467,0.3,1.117,0.5,1.95,0.6c1.066,0.167,1.75,0.3,2.05,0.4c0.967,0.367,2,0.833,3.1,1.4l0.6-0.8
					c0.533-0.567,1.083-0.967,1.65-1.2c0.066-0.033,0.75-0.3,2.05-0.8c0.733-0.267,1.267-0.567,1.6-0.9
					C22.117-4.567,22.433-5.383,22.2-6.15z"/>
				<path style="fill-rule:evenodd;clip-rule:evenodd;fill:#008580;" d="M21.2-8.15c0.9,0.667,1.583,1.033,2.05,1.1
					c0.733,0.133,1.417-0.3,2.05-1.3c0.3-0.467,0.517-1.1,0.65-1.9c0.2-1.067,0.35-1.75,0.45-2.05c0.367-1,0.85-1.9,1.45-2.7
					c-0.233-0.2-0.5-0.45-0.8-0.75c-0.6-0.6-1-1.1-1.2-1.5c-0.133-0.267-0.383-1-0.75-2.2c-0.267-0.867-0.567-1.466-0.9-1.8
					c-1.034-1.033-1.934-1.367-2.7-1c-0.367,0.167-0.917,0.75-1.65,1.75c1.9,1.633,2.95,3.65,3.15,6.05
					C23.233-12.183,22.633-10.083,21.2-8.15z"/>
				<path style="fill-rule:evenodd;clip-rule:evenodd;fill:#008580;" d="M7.3-19.55c1.6-1.733,3.55-2.717,5.85-2.95
					c2.333-0.233,4.45,0.35,6.35,1.75c0.8-1.1,1.25-1.85,1.35-2.25c0.233-0.8-0.184-1.533-1.25-2.2
					c-0.434-0.267-1.067-0.466-1.9-0.6c-1.034-0.133-1.733-0.267-2.1-0.4c-0.6-0.2-1.233-0.5-1.9-0.9c-0.333-0.2-0.6-0.367-0.8-0.5
					c-0.833,1.033-1.583,1.7-2.25,2c-0.267,0.133-1.017,0.4-2.25,0.8c-0.867,0.3-1.467,0.617-1.8,0.95
					c-1.067,1.033-1.417,1.917-1.05,2.65C5.683-20.867,6.267-20.317,7.3-19.55z"/>
			</g>
			<path style="fill-rule:evenodd;clip-rule:evenodd;fill:#5BBDAC;" d="M8.7-16.75c-0.034-0.5-0.25-0.917-0.65-1.25
				c-0.4-0.333-0.867-0.467-1.4-0.4c-0.5,0.033-0.917,0.267-1.25,0.7c-0.333,0.4-0.483,0.85-0.45,1.35
				c0.066,0.5,0.283,0.917,0.65,1.25C6-14.8,6.467-14.667,7-14.7c0.5-0.066,0.917-0.283,1.25-0.65
				C8.583-15.75,8.733-16.217,8.7-16.75z"/>
			<path style="fill-rule:evenodd;clip-rule:evenodd;fill:#5BBDAC;" d="M11.5-20.15c-0.033-0.5-0.25-0.917-0.65-1.25
				c-0.4-0.333-0.85-0.467-1.35-0.4c-0.533,0.033-0.967,0.267-1.3,0.7c-0.3,0.4-0.434,0.85-0.4,1.35
				c0.067,0.5,0.284,0.917,0.65,1.25c0.4,0.3,0.85,0.433,1.35,0.4c0.534-0.066,0.967-0.283,1.3-0.65
				C11.433-19.15,11.567-19.617,11.5-20.15z"/>
			<path style="fill-rule:evenodd;clip-rule:evenodd;fill:#5BBDAC;" d="M19.1-20.9c-0.033-0.533-0.233-0.967-0.6-1.3
				c-0.4-0.3-0.867-0.417-1.4-0.35c-0.533,0.033-0.967,0.25-1.3,0.65c-0.3,0.4-0.433,0.85-0.4,1.35
				c0.067,0.533,0.283,0.95,0.65,1.25c0.4,0.3,0.85,0.433,1.35,0.4c0.533-0.067,0.967-0.283,1.3-0.65
				C19.033-19.95,19.167-20.4,19.1-20.9z"/>
			<path style="fill-rule:evenodd;clip-rule:evenodd;fill:#5BBDAC;" d="M8.95-9.85c-0.034-0.5-0.25-0.917-0.65-1.25
				c-0.4-0.333-0.867-0.467-1.4-0.4c-0.5,0.033-0.917,0.25-1.25,0.65c-0.333,0.4-0.483,0.867-0.45,1.4
				c0.066,0.5,0.283,0.917,0.65,1.25c0.4,0.3,0.867,0.434,1.4,0.4c0.5-0.067,0.917-0.3,1.25-0.7S8.983-9.35,8.95-9.85z"/>
			<path style="fill-rule:evenodd;clip-rule:evenodd;fill:#5BBDAC;" d="M12.7-6.45c-0.034-0.5-0.233-0.917-0.6-1.25
				c-0.4-0.333-0.867-0.466-1.4-0.4c-0.5,0.033-0.917,0.267-1.25,0.7C9.117-7,8.967-6.55,9-6.05c0.067,0.5,0.283,0.917,0.65,1.25
				c0.4,0.3,0.867,0.433,1.4,0.4c0.5-0.067,0.917-0.283,1.25-0.65C12.633-5.45,12.767-5.917,12.7-6.45z"/>
			<path style="fill-rule:evenodd;clip-rule:evenodd;fill:#5BBDAC;" d="M20-7.2c-0.033-0.5-0.25-0.917-0.65-1.25
				c-0.4-0.333-0.867-0.466-1.4-0.4c-0.5,0.033-0.917,0.267-1.25,0.7c-0.333,0.4-0.483,0.85-0.45,1.35
				c0.067,0.5,0.283,0.917,0.65,1.25c0.4,0.3,0.867,0.433,1.4,0.4c0.5-0.067,0.917-0.283,1.25-0.65C19.883-6.2,20.033-6.667,20-7.2z
				"/>
			<path style="fill-rule:evenodd;clip-rule:evenodd;fill:#5BBDAC;" d="M22.65-10.75C22.617-11.25,22.4-11.667,22-12
				s-0.867-0.467-1.4-0.4c-0.5,0.033-0.917,0.25-1.25,0.65c-0.333,0.4-0.483,0.867-0.45,1.4c0.067,0.5,0.283,0.917,0.65,1.25
				c0.4,0.3,0.867,0.434,1.4,0.4c0.5-0.066,0.917-0.3,1.25-0.7C22.533-9.8,22.683-10.25,22.65-10.75z"/>
			<path style="fill-rule:evenodd;clip-rule:evenodd;fill:#5BBDAC;" d="M22.65-18.2c-0.033-0.5-0.233-0.917-0.6-1.25
				c-0.4-0.333-0.867-0.466-1.4-0.4c-0.5,0.067-0.917,0.3-1.25,0.7c-0.333,0.4-0.483,0.85-0.45,1.35
				c0.066,0.5,0.283,0.917,0.65,1.25c0.4,0.3,0.867,0.433,1.4,0.4c0.5-0.067,0.917-0.283,1.25-0.65
				C22.583-17.2,22.717-17.667,22.65-18.2z"/>
		</g>
	</g>
</symbol>
<symbol  id="flash0.ai_x2F_Layer_3_x2F__x3C_Group_x3E__x5F_14" viewBox="0 -27.65 27.9 27.65">
	<g id="Layer_1_2_">
		<g>
			<g>
				<path style="fill-rule:evenodd;clip-rule:evenodd;fill:#008580;" d="M0-12.2c1.1,0.867,1.8,1.633,2.1,2.3
					c0.167,0.3,0.4,0.967,0.7,2c0.233,0.7,0.517,1.217,0.85,1.55c0.967,0.967,1.817,1.333,2.55,1.1C6.633-5.417,7.15-5.933,7.75-6.8
					c-1.7-1.6-2.65-3.517-2.85-5.75c-0.2-2.5,0.5-4.717,2.1-6.65c-1.133-0.8-1.867-1.233-2.2-1.3c-0.833-0.2-1.583,0.217-2.25,1.25
					c-0.3,0.467-0.517,1.1-0.65,1.9c-0.2,1.067-0.35,1.767-0.45,2.1c-0.233,0.6-0.55,1.283-0.95,2.05L0-12.2z"/>
				<path style="fill-rule:evenodd;clip-rule:evenodd;fill:#008580;" d="M21.25-3.75c1.467-1.433,1.35-2.783-0.35-4.05
					c-1.633,1.966-3.683,3.066-6.15,3.3s-4.683-0.433-6.65-2C7.433-5.567,7.067-4.883,7-4.45C6.867-3.683,7.283-3,8.25-2.4
					c0.467,0.3,1.117,0.5,1.95,0.6c1.066,0.167,1.75,0.3,2.05,0.4c0.967,0.333,2,0.8,3.1,1.4l0.6-0.8
					c0.533-0.567,1.083-0.967,1.65-1.2c0.467-0.233,1.15-0.5,2.05-0.8C20.383-3.067,20.917-3.383,21.25-3.75z"/>
				<path style="fill-rule:evenodd;clip-rule:evenodd;fill:#008580;" d="M21.2-8.15c0.9,0.667,1.583,1.033,2.05,1.1
					c0.767,0.1,1.467-0.333,2.1-1.3c0.267-0.467,0.467-1.117,0.6-1.95c0.167-1.034,0.316-1.717,0.45-2.05
					c0.367-0.967,0.867-1.867,1.5-2.7c-0.267-0.2-0.55-0.45-0.85-0.75c-0.6-0.567-1-1.05-1.2-1.45c-0.133-0.267-0.383-1-0.75-2.2
					c-0.267-0.867-0.567-1.466-0.9-1.8c-1.034-1.033-1.934-1.367-2.7-1c-0.367,0.167-0.917,0.75-1.65,1.75
					c1.867,1.567,2.933,3.583,3.2,6.05C23.25-12.183,22.633-10.083,21.2-8.15z"/>
				<path style="fill-rule:evenodd;clip-rule:evenodd;fill:#008580;" d="M7.3-19.55c1.6-1.733,3.55-2.717,5.85-2.95
					c2.333-0.233,4.45,0.35,6.35,1.75c0.8-1.1,1.25-1.85,1.35-2.25c0.233-0.8-0.184-1.533-1.25-2.2c-0.467-0.3-1.1-0.5-1.9-0.6
					c-1.1-0.167-1.8-0.3-2.1-0.4c-0.6-0.2-1.217-0.5-1.85-0.9c-0.333-0.2-0.6-0.383-0.8-0.55c-0.867,1.033-1.633,1.717-2.3,2.05
					c-0.3,0.133-1.05,0.4-2.25,0.8c-0.867,0.3-1.467,0.617-1.8,0.95c-1.067,1.033-1.417,1.917-1.05,2.65
					C5.683-20.867,6.267-20.317,7.3-19.55z"/>
			</g>
			<path style="fill-rule:evenodd;clip-rule:evenodd;fill:#5BBDAC;" d="M8.7-16.75c-0.034-0.5-0.25-0.917-0.65-1.25
				c-0.4-0.333-0.867-0.467-1.4-0.4c-0.5,0.033-0.917,0.267-1.25,0.7c-0.3,0.4-0.433,0.85-0.4,1.35s0.25,0.917,0.65,1.25
				c0.367,0.3,0.817,0.434,1.35,0.4c0.5-0.066,0.917-0.3,1.25-0.7C8.617-15.8,8.767-16.25,8.7-16.75z"/>
			<path style="fill-rule:evenodd;clip-rule:evenodd;fill:#5BBDAC;" d="M11.55-20.15c-0.033-0.5-0.25-0.917-0.65-1.25
				c-0.4-0.333-0.867-0.467-1.4-0.4c-0.5,0.033-0.917,0.25-1.25,0.65s-0.483,0.867-0.45,1.4c0.067,0.5,0.284,0.917,0.65,1.25
				c0.4,0.3,0.867,0.433,1.4,0.4c0.5-0.066,0.917-0.3,1.25-0.7C11.433-19.2,11.583-19.65,11.55-20.15z"/>
			<path style="fill-rule:evenodd;clip-rule:evenodd;fill:#5BBDAC;" d="M19.15-20.95c-0.033-0.5-0.25-0.917-0.65-1.25
				c-0.4-0.333-0.867-0.466-1.4-0.4c-0.5,0.033-0.917,0.267-1.25,0.7c-0.333,0.4-0.483,0.85-0.45,1.35
				c0.067,0.5,0.283,0.917,0.65,1.25c0.4,0.3,0.867,0.433,1.4,0.4c0.5-0.067,0.917-0.283,1.25-0.65
				C19.033-19.95,19.183-20.417,19.15-20.95z"/>
			<path style="fill-rule:evenodd;clip-rule:evenodd;fill:#5BBDAC;" d="M8.95-9.85c-0.034-0.5-0.25-0.917-0.65-1.25
				c-0.4-0.333-0.85-0.467-1.35-0.4c-0.534,0.033-0.967,0.25-1.3,0.65c-0.3,0.4-0.433,0.867-0.4,1.4C5.283-8.95,5.5-8.533,5.9-8.2
				c0.367,0.3,0.817,0.434,1.35,0.4c0.533-0.067,0.967-0.3,1.3-0.7C8.883-8.9,9.017-9.35,8.95-9.85z"/>
			<path style="fill-rule:evenodd;clip-rule:evenodd;fill:#5BBDAC;" d="M12.75-6.45c-0.033-0.5-0.25-0.917-0.65-1.25
				c-0.4-0.333-0.867-0.466-1.4-0.4c-0.5,0.033-0.917,0.25-1.25,0.65C9.117-7.05,8.967-6.583,9-6.05
				c0.067,0.5,0.283,0.917,0.65,1.25c0.4,0.3,0.867,0.433,1.4,0.4c0.5-0.067,0.917-0.3,1.25-0.7C12.633-5.5,12.783-5.95,12.75-6.45z
				"/>
			<path style="fill-rule:evenodd;clip-rule:evenodd;fill:#5BBDAC;" d="M20-7.2c-0.033-0.5-0.25-0.917-0.65-1.25
				c-0.4-0.333-0.867-0.466-1.4-0.4c-0.5,0.033-0.917,0.25-1.25,0.65c-0.333,0.4-0.483,0.867-0.45,1.4
				c0.067,0.5,0.283,0.917,0.65,1.25c0.4,0.3,0.867,0.433,1.4,0.4c0.5-0.067,0.917-0.3,1.25-0.7C19.917-6.25,20.067-6.7,20-7.2z"/>
			<path style="fill-rule:evenodd;clip-rule:evenodd;fill:#5BBDAC;" d="M22.65-10.75C22.617-11.25,22.4-11.667,22-12
				s-0.867-0.467-1.4-0.4c-0.5,0.033-0.917,0.25-1.25,0.65c-0.333,0.4-0.483,0.867-0.45,1.4c0.067,0.5,0.283,0.917,0.65,1.25
				c0.4,0.3,0.867,0.434,1.4,0.4c0.5-0.066,0.917-0.3,1.25-0.7C22.567-9.8,22.717-10.25,22.65-10.75z"/>
			<path style="fill-rule:evenodd;clip-rule:evenodd;fill:#5BBDAC;" d="M22.7-18.2c-0.034-0.5-0.25-0.917-0.65-1.25
				c-0.4-0.333-0.867-0.466-1.4-0.4c-0.5,0.033-0.917,0.267-1.25,0.7c-0.333,0.4-0.483,0.85-0.45,1.35
				c0.066,0.5,0.283,0.917,0.65,1.25c0.4,0.3,0.867,0.433,1.4,0.4c0.5-0.067,0.917-0.283,1.25-0.65
				C22.583-17.2,22.733-17.667,22.7-18.2z"/>
		</g>
	</g>
</symbol>
<symbol  id="flash0.ai_x2F_Layer_3_x2F__x3C_Group_x3E__x5F_2" viewBox="0 -18.45 18.6 18.45">
	<g id="Layer_1_14_">
		<g>
			<g>
				<path style="fill-rule:evenodd;clip-rule:evenodd;fill:#008580;" d="M1.3-11.55C1.167-10.85,1.067-10.4,1-10.2L0-8.15
					C0.733-7.583,1.2-7.067,1.4-6.6c0.333,1.2,0.684,1.983,1.05,2.35c0.633,0.667,1.2,0.917,1.7,0.75C4.417-3.6,4.767-3.95,5.2-4.55
					C4.033-5.583,3.383-6.867,3.25-8.4c-0.1-1.733,0.383-3.217,1.45-4.45c-0.733-0.533-1.233-0.816-1.5-0.85
					c-0.534-0.133-1.034,0.15-1.5,0.85C1.5-12.55,1.367-12.117,1.3-11.55z"/>
				<path style="fill-rule:evenodd;clip-rule:evenodd;fill:#008580;" d="M10.25,0l0.4-0.55c0.367-0.367,0.733-0.633,1.1-0.8
					c0.1-0.033,0.55-0.2,1.35-0.5c0.5-0.2,0.867-0.417,1.1-0.65c0.966-0.967,0.883-1.867-0.25-2.7c-1.067,1.267-2.434,2-4.1,2.2
					C8.15-2.833,6.667-3.283,5.4-4.35c-0.433,0.667-0.683,1.133-0.75,1.4C4.583-2.45,4.867-2,5.5-1.6c0.3,0.2,0.733,0.333,1.3,0.4
					C7.533-1.1,8-1.017,8.2-0.95C8.833-0.717,9.517-0.4,10.25,0z"/>
				<path style="fill-rule:evenodd;clip-rule:evenodd;fill:#008580;" d="M17.65-8.25c0.233-0.633,0.55-1.233,0.95-1.8
					c-0.167-0.133-0.35-0.3-0.55-0.5c-0.367-0.367-0.617-0.7-0.75-1c-0.1-0.2-0.283-0.684-0.55-1.45c-0.2-0.567-0.4-0.967-0.6-1.2
					c-0.667-0.667-1.25-0.883-1.75-0.65c-0.233,0.1-0.617,0.483-1.15,1.15c1.3,1.067,2.017,2.417,2.15,4.05
					c0.1,1.6-0.316,3-1.25,4.2c0.6,0.467,1.05,0.717,1.35,0.75c0.5,0.067,0.967-0.233,1.4-0.9c0.2-0.267,0.35-0.683,0.45-1.25
					C17.45-7.55,17.55-8.017,17.65-8.25z"/>
				<path style="fill-rule:evenodd;clip-rule:evenodd;fill:#008580;" d="M4.9-13.05c1.033-1.167,2.333-1.817,3.9-1.95
					c1.567-0.2,2.967,0.183,4.2,1.15c0.567-0.733,0.883-1.233,0.95-1.5c0.133-0.566-0.15-1.066-0.85-1.5
					c-0.3-0.167-0.733-0.3-1.3-0.4c-0.667-0.1-1.117-0.183-1.35-0.25c-0.4-0.133-0.817-0.333-1.25-0.6
					c-0.233-0.133-0.417-0.25-0.55-0.35c-0.6,0.7-1.117,1.15-1.55,1.35c-1.4,0.4-2.3,0.783-2.7,1.15c-0.733,0.7-0.967,1.3-0.7,1.8
					C3.8-13.917,4.2-13.55,4.9-13.05z"/>
			</g>
			<path style="fill-rule:evenodd;clip-rule:evenodd;fill:#5BBDAC;" d="M5.8-11.2c-0.033-0.333-0.183-0.6-0.45-0.8
				c-0.267-0.233-0.567-0.333-0.9-0.3c-0.367,0.033-0.65,0.183-0.85,0.45c-0.2,0.3-0.283,0.617-0.25,0.95
				c0.033,0.333,0.183,0.6,0.45,0.8c0.233,0.233,0.517,0.333,0.85,0.3c0.367-0.067,0.65-0.233,0.85-0.5
				C5.733-10.567,5.833-10.867,5.8-11.2z"/>
			<path style="fill-rule:evenodd;clip-rule:evenodd;fill:#5BBDAC;" d="M7.7-13.45c-0.034-0.333-0.184-0.617-0.45-0.85
				c-0.233-0.2-0.533-0.284-0.9-0.25c-0.333,0.033-0.617,0.183-0.85,0.45s-0.333,0.567-0.3,0.9c0.066,0.367,0.216,0.65,0.45,0.85
				c0.267,0.2,0.567,0.283,0.9,0.25c0.333-0.033,0.617-0.183,0.85-0.45C7.633-12.783,7.733-13.083,7.7-13.45z"/>
			<path style="fill-rule:evenodd;clip-rule:evenodd;fill:#5BBDAC;" d="M12.75-14c-0.033-0.333-0.167-0.6-0.4-0.8
				c-0.267-0.233-0.567-0.333-0.9-0.3c-0.333,0.033-0.617,0.184-0.85,0.45s-0.333,0.583-0.3,0.95c0.034,0.333,0.184,0.6,0.45,0.8
				c0.267,0.233,0.567,0.333,0.9,0.3c0.367-0.066,0.65-0.233,0.85-0.5C12.733-13.367,12.817-13.667,12.75-14z"/>
			<path style="fill-rule:evenodd;clip-rule:evenodd;fill:#5BBDAC;" d="M6-6.6C5.967-6.933,5.817-7.2,5.55-7.4
				c-0.267-0.233-0.566-0.333-0.9-0.3C4.317-7.667,4.033-7.517,3.8-7.25C3.567-6.983,3.467-6.667,3.5-6.3
				c0.033,0.333,0.183,0.6,0.45,0.8c0.267,0.233,0.566,0.333,0.9,0.3C5.217-5.267,5.5-5.433,5.7-5.7C5.933-5.967,6.033-6.267,6-6.6z
				"/>
			<path style="fill-rule:evenodd;clip-rule:evenodd;fill:#5BBDAC;" d="M8.5-4.3C8.467-4.667,8.317-4.95,8.05-5.15
				C7.783-5.383,7.483-5.467,7.15-5.4C6.817-5.367,6.533-5.217,6.3-4.95C6.067-4.717,5.967-4.417,6-4.05
				C6.067-3.717,6.217-3.433,6.45-3.2C6.717-3,7.017-2.917,7.35-2.95C7.683-2.983,7.967-3.133,8.2-3.4
				C8.433-3.633,8.533-3.933,8.5-4.3z"/>
			<path style="fill-rule:evenodd;clip-rule:evenodd;fill:#5BBDAC;" d="M13.35-4.8c-0.033-0.367-0.184-0.65-0.45-0.85
				C12.633-5.883,12.333-5.967,12-5.9c-0.333,0.033-0.617,0.183-0.85,0.45c-0.233,0.233-0.333,0.534-0.3,0.9
				c0.066,0.333,0.217,0.617,0.45,0.85c0.267,0.2,0.567,0.284,0.9,0.25c0.333-0.033,0.617-0.183,0.85-0.45
				C13.283-4.167,13.383-4.467,13.35-4.8z"/>
			<path style="fill-rule:evenodd;clip-rule:evenodd;fill:#5BBDAC;" d="M15.1-7.2c-0.033-0.333-0.184-0.6-0.45-0.8
				c-0.267-0.233-0.566-0.333-0.9-0.3c-0.333,0.033-0.6,0.183-0.8,0.45c-0.233,0.3-0.333,0.617-0.3,0.95
				c0.033,0.333,0.184,0.6,0.45,0.8c0.267,0.233,0.566,0.333,0.9,0.3c0.333-0.067,0.617-0.233,0.85-0.5
				C15.05-6.567,15.133-6.867,15.1-7.2z"/>
			<path style="fill-rule:evenodd;clip-rule:evenodd;fill:#5BBDAC;" d="M15.15-12.15c-0.033-0.333-0.183-0.6-0.45-0.8
				c-0.267-0.233-0.567-0.333-0.9-0.3c-0.333,0.033-0.617,0.183-0.85,0.45c-0.233,0.267-0.333,0.566-0.3,0.9
				c0.067,0.367,0.217,0.65,0.45,0.85c0.267,0.2,0.566,0.283,0.9,0.25c0.333-0.034,0.617-0.184,0.85-0.45
				C15.083-11.483,15.183-11.783,15.15-12.15z"/>
		</g>
	</g>
</symbol>
<symbol  id="flash0.ai_x2F_Layer_3_x2F__x3C_Group_x3E__x5F_3" viewBox="0 -18.45 18.6 18.45">
	<g id="Layer_1_13_">
		<g>
			<g>
				<path style="fill-rule:evenodd;clip-rule:evenodd;fill:#008580;" d="M1.3-11.6c-0.133,0.733-0.233,1.2-0.3,1.4L0-8.15
					c0.733,0.566,1.2,1.066,1.4,1.5c0.333,1.2,0.684,2,1.05,2.4c0.633,0.633,1.2,0.867,1.7,0.7c0.267-0.1,0.617-0.434,1.05-1
					C4.033-5.583,3.383-6.867,3.25-8.4c-0.1-1.7,0.383-3.184,1.45-4.45c-0.733-0.533-1.233-0.816-1.5-0.85
					c-0.534-0.133-1.034,0.15-1.5,0.85C1.5-12.55,1.367-12.133,1.3-11.6z"/>
				<path style="fill-rule:evenodd;clip-rule:evenodd;fill:#008580;" d="M10.25,0l0.4-0.55c0.367-0.367,0.733-0.633,1.1-0.8
					c0.1-0.033,0.55-0.217,1.35-0.55c0.5-0.2,0.867-0.4,1.1-0.6c0.933-0.933,0.867-1.833-0.2-2.7c-1.1,1.267-2.483,1.983-4.15,2.15
					C8.183-2.85,6.7-3.283,5.4-4.35C4.967-3.75,4.717-3.3,4.65-3C4.583-2.5,4.867-2.033,5.5-1.6c0.3,0.2,0.733,0.333,1.3,0.4
					C7.533-1.1,8-1.017,8.2-0.95C8.833-0.717,9.517-0.4,10.25,0z"/>
				<path style="fill-rule:evenodd;clip-rule:evenodd;fill:#008580;" d="M17.65-8.25c0.233-0.667,0.55-1.267,0.95-1.8
					c-0.167-0.133-0.35-0.3-0.55-0.5c-0.367-0.4-0.617-0.733-0.75-1c-0.066-0.167-0.25-0.667-0.55-1.5c-0.2-0.567-0.4-0.95-0.6-1.15
					c-0.667-0.7-1.25-0.933-1.75-0.7c-0.233,0.1-0.617,0.5-1.15,1.2c1.3,1.067,2.017,2.417,2.15,4.05c0.1,1.6-0.316,3-1.25,4.2
					c0.6,0.434,1.05,0.684,1.35,0.75c0.5,0.067,0.967-0.233,1.4-0.9c0.2-0.3,0.35-0.717,0.45-1.25
					C17.45-7.55,17.55-8.017,17.65-8.25z"/>
				<path style="fill-rule:evenodd;clip-rule:evenodd;fill:#008580;" d="M4.9-13.1c1.1-1.167,2.4-1.816,3.9-1.95
					c1.534-0.133,2.95,0.25,4.25,1.15c0.534-0.767,0.833-1.267,0.9-1.5c0.133-0.533-0.15-1.017-0.85-1.45
					c-0.3-0.2-0.733-0.333-1.3-0.4c-0.7-0.1-1.15-0.183-1.35-0.25c-0.4-0.133-0.817-0.333-1.25-0.6
					c-0.233-0.133-0.417-0.25-0.55-0.35c-0.566,0.667-1.083,1.117-1.55,1.35c-1.4,0.4-2.3,0.783-2.7,1.15
					c-0.7,0.7-0.933,1.3-0.7,1.8C3.833-13.95,4.233-13.6,4.9-13.1z"/>
			</g>
			<path style="fill-rule:evenodd;clip-rule:evenodd;fill:#5BBDAC;" d="M5.8-11.2c-0.033-0.333-0.183-0.6-0.45-0.8
				c-0.267-0.233-0.567-0.333-0.9-0.3c-0.333,0.033-0.617,0.183-0.85,0.45c-0.2,0.267-0.283,0.567-0.25,0.9
				c0.033,0.333,0.183,0.617,0.45,0.85c0.233,0.2,0.517,0.283,0.85,0.25c0.333-0.033,0.617-0.183,0.85-0.45
				C5.733-10.533,5.833-10.833,5.8-11.2z"/>
			<path style="fill-rule:evenodd;clip-rule:evenodd;fill:#5BBDAC;" d="M7.7-13.45c-0.034-0.367-0.184-0.65-0.45-0.85
				c-0.267-0.233-0.567-0.317-0.9-0.25c-0.333,0.033-0.617,0.183-0.85,0.45c-0.233,0.233-0.333,0.533-0.3,0.9
				c0.066,0.333,0.216,0.6,0.45,0.8c0.267,0.233,0.567,0.333,0.9,0.3c0.333-0.066,0.617-0.217,0.85-0.45
				C7.633-12.817,7.733-13.117,7.7-13.45z"/>
			<path style="fill-rule:evenodd;clip-rule:evenodd;fill:#5BBDAC;" d="M12.8-14c-0.033-0.333-0.183-0.6-0.45-0.8
				c-0.267-0.233-0.567-0.333-0.9-0.3c-0.333,0.033-0.617,0.184-0.85,0.45s-0.333,0.566-0.3,0.9c0.034,0.367,0.184,0.65,0.45,0.85
				c0.267,0.2,0.567,0.283,0.9,0.25c0.333-0.033,0.617-0.184,0.85-0.45C12.733-13.333,12.833-13.633,12.8-14z"/>
			<path style="fill-rule:evenodd;clip-rule:evenodd;fill:#5BBDAC;" d="M6-6.6C5.967-6.933,5.817-7.217,5.55-7.45
				c-0.267-0.2-0.566-0.283-0.9-0.25C4.317-7.667,4.033-7.517,3.8-7.25c-0.233,0.267-0.333,0.567-0.3,0.9
				C3.533-5.983,3.683-5.7,3.95-5.5c0.267,0.2,0.566,0.283,0.9,0.25C5.183-5.283,5.467-5.433,5.7-5.7C5.933-5.933,6.033-6.233,6-6.6
				z"/>
			<path style="fill-rule:evenodd;clip-rule:evenodd;fill:#5BBDAC;" d="M8.5-4.3C8.467-4.667,8.317-4.95,8.05-5.15
				C7.783-5.383,7.483-5.467,7.15-5.4C6.783-5.367,6.5-5.217,6.3-4.95c-0.2,0.267-0.283,0.567-0.25,0.9
				c0.034,0.333,0.184,0.6,0.45,0.8c0.267,0.233,0.567,0.333,0.9,0.3C7.733-3.017,8-3.167,8.2-3.4C8.433-3.667,8.533-3.967,8.5-4.3z
				"/>
			<path style="fill-rule:evenodd;clip-rule:evenodd;fill:#5BBDAC;" d="M13.35-4.8c-0.033-0.367-0.184-0.65-0.45-0.85
				C12.633-5.883,12.333-5.967,12-5.9c-0.333,0.033-0.617,0.183-0.85,0.45c-0.233,0.233-0.333,0.534-0.3,0.9
				c0.066,0.333,0.217,0.6,0.45,0.8c0.267,0.233,0.567,0.333,0.9,0.3c0.333-0.066,0.617-0.216,0.85-0.45
				C13.283-4.167,13.383-4.467,13.35-4.8z"/>
			<path style="fill-rule:evenodd;clip-rule:evenodd;fill:#5BBDAC;" d="M15.1-7.2c-0.033-0.333-0.184-0.617-0.45-0.85
				c-0.233-0.2-0.533-0.284-0.9-0.25c-0.333,0.033-0.6,0.183-0.8,0.45c-0.233,0.267-0.333,0.567-0.3,0.9
				c0.033,0.367,0.184,0.65,0.45,0.85c0.267,0.2,0.566,0.283,0.9,0.25s0.617-0.183,0.85-0.45C15.083-6.567,15.167-6.867,15.1-7.2z"
				/>
			<path style="fill-rule:evenodd;clip-rule:evenodd;fill:#5BBDAC;" d="M15.15-12.15c-0.033-0.367-0.183-0.65-0.45-0.85
				c-0.267-0.233-0.567-0.317-0.9-0.25c-0.333,0.033-0.617,0.183-0.85,0.45c-0.233,0.233-0.333,0.533-0.3,0.9
				c0.067,0.333,0.217,0.6,0.45,0.8c0.267,0.233,0.566,0.333,0.9,0.3c0.333-0.034,0.617-0.184,0.85-0.45S15.183-11.817,15.15-12.15z
				"/>
		</g>
	</g>
</symbol>
<symbol  id="flash0.ai_x2F_Layer_3_x2F__x3C_Group_x3E__x5F_4" viewBox="0 -18.45 18.6 18.45">
	<g id="Layer_1_12_">
		<g>
			<g>
				<path style="fill-rule:evenodd;clip-rule:evenodd;fill:#008580;" d="M1.25-11.6c-0.1,0.667-0.2,1.133-0.3,1.4L0-8.15
					c0.7,0.566,1.167,1.066,1.4,1.5c0.3,1.2,0.633,2,1,2.4c0.633,0.633,1.2,0.867,1.7,0.7c0.3-0.1,0.65-0.434,1.05-1
					C3.983-5.617,3.35-6.9,3.25-8.4c-0.167-1.667,0.3-3.15,1.4-4.45c-0.733-0.533-1.233-0.816-1.5-0.85
					c-0.533-0.133-1.033,0.15-1.5,0.85C1.45-12.55,1.317-12.133,1.25-11.6z"/>
				<path style="fill-rule:evenodd;clip-rule:evenodd;fill:#008580;" d="M10.2,0l0.45-0.55c0.333-0.367,0.684-0.633,1.05-0.8
					c0.1-0.033,0.566-0.217,1.4-0.55c0.5-0.2,0.85-0.4,1.05-0.6c0.934-0.933,0.867-1.833-0.2-2.7c-1.133,1.3-2.517,2.017-4.15,2.15
					c-1.667,0.2-3.133-0.233-4.4-1.3C4.933-3.75,4.683-3.3,4.65-3C4.55-2.5,4.833-2.033,5.5-1.6c0.3,0.2,0.717,0.333,1.25,0.4
					c0.733,0.1,1.2,0.184,1.4,0.25C8.817-0.717,9.5-0.4,10.2,0z"/>
				<path style="fill-rule:evenodd;clip-rule:evenodd;fill:#008580;" d="M17.6-8.25c0.233-0.667,0.566-1.267,1-1.8
					c-0.167-0.133-0.35-0.3-0.55-0.5c-0.4-0.4-0.667-0.733-0.8-1c-0.067-0.167-0.233-0.667-0.5-1.5c-0.2-0.567-0.417-0.95-0.65-1.15
					c-0.667-0.7-1.25-0.933-1.75-0.7c-0.233,0.133-0.6,0.533-1.1,1.2c1.233,1.034,1.933,2.383,2.1,4.05
					c0.167,1.533-0.25,2.933-1.25,4.2c0.667,0.434,1.133,0.684,1.4,0.75c0.5,0.067,0.967-0.233,1.4-0.9
					c0.2-0.3,0.333-0.717,0.4-1.25C17.4-7.55,17.5-8.017,17.6-8.25z"/>
				<path style="fill-rule:evenodd;clip-rule:evenodd;fill:#008580;" d="M4.85-13.1c1.1-1.167,2.4-1.816,3.9-1.95
					c1.6-0.167,3.017,0.216,4.25,1.15c0.533-0.767,0.833-1.267,0.9-1.5c0.133-0.533-0.15-1.017-0.85-1.45
					c-0.3-0.2-0.716-0.333-1.25-0.4c-0.733-0.1-1.2-0.183-1.4-0.25c-0.4-0.133-0.816-0.333-1.25-0.6
					c-0.233-0.133-0.417-0.25-0.55-0.35c-0.567,0.667-1.083,1.117-1.55,1.35c-1.4,0.4-2.283,0.783-2.65,1.15
					c-0.733,0.7-0.983,1.3-0.75,1.8C3.783-13.95,4.183-13.6,4.85-13.1z"/>
			</g>
			<path style="fill-rule:evenodd;clip-rule:evenodd;fill:#5BBDAC;" d="M5.75-11.2C5.717-11.533,5.567-11.8,5.3-12
				c-0.267-0.233-0.566-0.333-0.9-0.3c-0.333,0.033-0.6,0.183-0.8,0.45c-0.233,0.267-0.333,0.567-0.3,0.9
				c0.034,0.367,0.184,0.65,0.45,0.85c0.267,0.2,0.567,0.283,0.9,0.25c0.333-0.033,0.617-0.183,0.85-0.45
				C5.733-10.567,5.817-10.867,5.75-11.2z"/>
			<path style="fill-rule:evenodd;clip-rule:evenodd;fill:#5BBDAC;" d="M7.65-13.45C7.617-13.817,7.467-14.1,7.2-14.3
				c-0.267-0.233-0.567-0.317-0.9-0.25c-0.333,0.033-0.6,0.183-0.8,0.45c-0.233,0.267-0.333,0.567-0.3,0.9
				c0.033,0.333,0.183,0.6,0.45,0.8c0.267,0.233,0.567,0.333,0.9,0.3c0.333-0.066,0.617-0.217,0.85-0.45
				C7.6-12.817,7.683-13.117,7.65-13.45z"/>
			<path style="fill-rule:evenodd;clip-rule:evenodd;fill:#5BBDAC;" d="M12.75-14c-0.033-0.333-0.183-0.6-0.45-0.8
				c-0.267-0.233-0.566-0.333-0.9-0.3c-0.333,0.033-0.617,0.184-0.85,0.45c-0.233,0.267-0.333,0.566-0.3,0.9
				c0.033,0.367,0.183,0.65,0.45,0.85c0.267,0.2,0.566,0.283,0.9,0.25c0.333-0.033,0.617-0.184,0.85-0.45
				C12.683-13.333,12.783-13.633,12.75-14z"/>
			<path style="fill-rule:evenodd;clip-rule:evenodd;fill:#5BBDAC;" d="M5.95-6.6C5.917-6.933,5.767-7.217,5.5-7.45
				C5.267-7.65,4.967-7.733,4.6-7.7C4.267-7.667,3.983-7.517,3.75-7.25s-0.333,0.567-0.3,0.9C3.483-6.017,3.633-5.733,3.9-5.5
				c0.267,0.2,0.567,0.283,0.9,0.25C5.133-5.283,5.417-5.433,5.65-5.7C5.883-5.933,5.983-6.233,5.95-6.6z"/>
			<path style="fill-rule:evenodd;clip-rule:evenodd;fill:#5BBDAC;" d="M8.45-4.3C8.417-4.667,8.267-4.95,8-5.15
				C7.733-5.383,7.433-5.467,7.1-5.4C6.767-5.367,6.5-5.217,6.3-4.95C6.067-4.683,5.967-4.383,6-4.05
				c0.033,0.333,0.183,0.6,0.45,0.8c0.267,0.233,0.566,0.333,0.9,0.3C7.717-3.017,8-3.167,8.2-3.4C8.433-3.667,8.517-3.967,8.45-4.3
				z"/>
			<path style="fill-rule:evenodd;clip-rule:evenodd;fill:#5BBDAC;" d="M13.3-4.8c-0.033-0.367-0.183-0.65-0.45-0.85
				c-0.267-0.233-0.567-0.317-0.9-0.25c-0.333,0.033-0.6,0.183-0.8,0.45c-0.233,0.267-0.333,0.567-0.3,0.9
				c0.033,0.333,0.183,0.6,0.45,0.8c0.267,0.233,0.567,0.333,0.9,0.3c0.333-0.066,0.617-0.216,0.85-0.45
				C13.25-4.167,13.333-4.467,13.3-4.8z"/>
			<path style="fill-rule:evenodd;clip-rule:evenodd;fill:#5BBDAC;" d="M15.1-7.2c-0.033-0.333-0.184-0.617-0.45-0.85
				c-0.267-0.2-0.566-0.284-0.9-0.25c-0.333,0.033-0.617,0.183-0.85,0.45s-0.333,0.567-0.3,0.9c0.033,0.367,0.183,0.65,0.45,0.85
				c0.267,0.2,0.567,0.283,0.9,0.25c0.333-0.033,0.617-0.183,0.85-0.45C15.033-6.533,15.133-6.833,15.1-7.2z"/>
			<path style="fill-rule:evenodd;clip-rule:evenodd;fill:#5BBDAC;" d="M15.1-12.15c-0.033-0.367-0.184-0.65-0.45-0.85
				c-0.267-0.233-0.566-0.317-0.9-0.25c-0.333,0.033-0.617,0.183-0.85,0.45c-0.2,0.267-0.283,0.566-0.25,0.9
				c0.033,0.333,0.184,0.6,0.45,0.8c0.267,0.233,0.566,0.333,0.9,0.3c0.333-0.067,0.6-0.217,0.8-0.45
				C15.033-11.517,15.133-11.817,15.1-12.15z"/>
		</g>
	</g>
</symbol>
<symbol  id="flash0.ai_x2F_Layer_3_x2F__x3C_Group_x3E__x5F_5" viewBox="0 -18.45 18.6 18.45">
	<g id="Layer_1_11_">
		<g>
			<g>
				<path style="fill-rule:evenodd;clip-rule:evenodd;fill:#008580;" d="M1.25-11.6c-0.1,0.667-0.2,1.133-0.3,1.4L0-8.15
					c0.733,0.566,1.2,1.066,1.4,1.5C1.5-6.45,1.65-6,1.85-5.3C2.017-4.8,2.2-4.45,2.4-4.25c0.633,0.633,1.2,0.867,1.7,0.7
					c0.3-0.1,0.65-0.434,1.05-1c-1.1-1-1.733-2.284-1.9-3.85c-0.167-1.667,0.3-3.15,1.4-4.45c-0.733-0.533-1.233-0.816-1.5-0.85
					c-0.533-0.133-1.033,0.15-1.5,0.85C1.45-12.55,1.317-12.133,1.25-11.6z"/>
				<path style="fill-rule:evenodd;clip-rule:evenodd;fill:#008580;" d="M10.25,0l0.4-0.55c0.333-0.367,0.684-0.633,1.05-0.8
					c0.333-0.167,0.8-0.333,1.4-0.5c0.467-0.2,0.816-0.417,1.05-0.65c0.967-0.933,0.9-1.833-0.2-2.7c-1.067,1.267-2.434,2-4.1,2.2
					C8.15-2.867,6.667-3.317,5.4-4.35c-0.467,0.633-0.717,1.1-0.75,1.4C4.55-2.45,4.833-2,5.5-1.6c0.3,0.2,0.717,0.333,1.25,0.4
					c0.733,0.1,1.2,0.184,1.4,0.25C8.817-0.717,9.517-0.4,10.25,0z"/>
				<path style="fill-rule:evenodd;clip-rule:evenodd;fill:#008580;" d="M17.6-8.25c0.233-0.633,0.566-1.233,1-1.8
					c-0.167-0.133-0.35-0.3-0.55-0.5c-0.4-0.4-0.667-0.733-0.8-1c-0.1-0.2-0.267-0.684-0.5-1.45c-0.2-0.567-0.4-0.967-0.6-1.2
					c-0.7-0.7-1.3-0.933-1.8-0.7c-0.233,0.133-0.6,0.533-1.1,1.2c1.267,1.1,1.967,2.45,2.1,4.05c0.167,1.533-0.25,2.933-1.25,4.2
					c0.667,0.434,1.133,0.684,1.4,0.75c0.5,0.067,0.967-0.233,1.4-0.9c0.2-0.3,0.333-0.717,0.4-1.25C17.4-7.55,17.5-8.017,17.6-8.25
					z"/>
				<path style="fill-rule:evenodd;clip-rule:evenodd;fill:#008580;" d="M4.85-13.05c1.033-1.133,2.333-1.8,3.9-2
					c1.633-0.167,3.05,0.233,4.25,1.2c0.533-0.767,0.833-1.267,0.9-1.5c0.133-0.566-0.15-1.066-0.85-1.5
					c-0.3-0.2-0.716-0.333-1.25-0.4c-0.733-0.1-1.2-0.183-1.4-0.25c-0.4-0.133-0.816-0.333-1.25-0.6
					c-0.233-0.133-0.417-0.25-0.55-0.35c-0.567,0.7-1.067,1.15-1.5,1.35c-1.434,0.4-2.333,0.783-2.7,1.15
					c-0.733,0.7-0.983,1.3-0.75,1.8C3.783-13.917,4.183-13.55,4.85-13.05z"/>
			</g>
			<path style="fill-rule:evenodd;clip-rule:evenodd;fill:#5BBDAC;" d="M5.8-11.2c-0.033-0.333-0.183-0.6-0.45-0.8
				c-0.267-0.233-0.567-0.333-0.9-0.3c-0.333,0.033-0.617,0.183-0.85,0.45s-0.333,0.567-0.3,0.9c0.034,0.367,0.184,0.65,0.45,0.85
				c0.267,0.2,0.567,0.283,0.9,0.25c0.333-0.033,0.617-0.183,0.85-0.45C5.733-10.533,5.833-10.833,5.8-11.2z"/>
			<path style="fill-rule:evenodd;clip-rule:evenodd;fill:#5BBDAC;" d="M7.65-13.45C7.617-13.817,7.467-14.1,7.2-14.3
				c-0.267-0.233-0.567-0.317-0.9-0.25c-0.333,0.033-0.6,0.183-0.8,0.45c-0.233,0.267-0.333,0.567-0.3,0.9
				c0.033,0.333,0.183,0.617,0.45,0.85c0.233,0.2,0.533,0.283,0.9,0.25c0.333-0.033,0.617-0.183,0.85-0.45
				C7.633-12.817,7.717-13.117,7.65-13.45z"/>
			<path style="fill-rule:evenodd;clip-rule:evenodd;fill:#5BBDAC;" d="M12.75-14c-0.033-0.333-0.183-0.6-0.45-0.8
				c-0.267-0.233-0.566-0.333-0.9-0.3c-0.333,0.033-0.617,0.184-0.85,0.45c-0.233,0.267-0.333,0.566-0.3,0.9
				c0.067,0.367,0.217,0.65,0.45,0.85c0.267,0.2,0.566,0.283,0.9,0.25c0.333-0.033,0.617-0.184,0.85-0.45
				C12.683-13.333,12.783-13.633,12.75-14z"/>
			<path style="fill-rule:evenodd;clip-rule:evenodd;fill:#5BBDAC;" d="M5.95-6.6C5.917-6.933,5.767-7.2,5.5-7.4
				C5.233-7.633,4.933-7.733,4.6-7.7C4.267-7.667,3.983-7.517,3.75-7.25s-0.333,0.567-0.3,0.9C3.517-5.983,3.667-5.7,3.9-5.5
				c0.267,0.2,0.567,0.283,0.9,0.25C5.133-5.283,5.417-5.433,5.65-5.7C5.883-5.933,5.983-6.233,5.95-6.6z"/>
			<path style="fill-rule:evenodd;clip-rule:evenodd;fill:#5BBDAC;" d="M8.5-4.3C8.467-4.667,8.317-4.95,8.05-5.15
				C7.783-5.383,7.483-5.467,7.15-5.4C6.817-5.367,6.533-5.217,6.3-4.95C6.067-4.717,5.967-4.417,6-4.05
				C6.033-3.717,6.183-3.433,6.45-3.2C6.683-3,6.983-2.917,7.35-2.95C7.683-2.983,7.967-3.133,8.2-3.4
				C8.433-3.667,8.533-3.967,8.5-4.3z"/>
			<path style="fill-rule:evenodd;clip-rule:evenodd;fill:#5BBDAC;" d="M13.3-4.8c-0.033-0.367-0.183-0.65-0.45-0.85
				c-0.267-0.233-0.567-0.317-0.9-0.25c-0.333,0.033-0.6,0.183-0.8,0.45c-0.233,0.267-0.333,0.567-0.3,0.9
				c0.033,0.333,0.183,0.6,0.45,0.8c0.267,0.233,0.567,0.333,0.9,0.3c0.367-0.066,0.65-0.216,0.85-0.45
				C13.283-4.167,13.367-4.467,13.3-4.8z"/>
			<path style="fill-rule:evenodd;clip-rule:evenodd;fill:#5BBDAC;" d="M15.1-7.2c-0.033-0.333-0.184-0.6-0.45-0.8
				c-0.267-0.233-0.566-0.333-0.9-0.3c-0.333,0.033-0.617,0.183-0.85,0.45s-0.333,0.567-0.3,0.9c0.033,0.367,0.183,0.65,0.45,0.85
				c0.267,0.2,0.567,0.283,0.9,0.25c0.333-0.033,0.617-0.183,0.85-0.45C15.033-6.533,15.133-6.833,15.1-7.2z"/>
			<path style="fill-rule:evenodd;clip-rule:evenodd;fill:#5BBDAC;" d="M15.1-12.15c-0.033-0.367-0.184-0.65-0.45-0.85
				c-0.267-0.233-0.566-0.317-0.9-0.25c-0.333,0.033-0.6,0.183-0.8,0.45c-0.233,0.267-0.333,0.566-0.3,0.9
				c0.033,0.367,0.184,0.65,0.45,0.85c0.267,0.2,0.566,0.283,0.9,0.25c0.333-0.034,0.617-0.184,0.85-0.45S15.167-11.817,15.1-12.15z
				"/>
		</g>
	</g>
</symbol>
<symbol  id="flash0.ai_x2F_Layer_3_x2F__x3C_Group_x3E__x5F_6" viewBox="0 -27.65 27.9 27.65">
	<g id="Layer_1_10_">
		<g>
			<g>
				<path style="fill-rule:evenodd;clip-rule:evenodd;fill:#008580;" d="M0-12.2c1.1,0.867,1.817,1.633,2.15,2.3
					c0.133,0.3,0.367,0.95,0.7,1.95c0.233,0.733,0.5,1.267,0.8,1.6c0.967,0.967,1.817,1.333,2.55,1.1
					C6.633-5.417,7.15-5.933,7.75-6.8c-1.7-1.6-2.65-3.517-2.85-5.75c-0.2-2.5,0.5-4.717,2.1-6.65c-1.133-0.8-1.867-1.233-2.2-1.3
					c-0.833-0.2-1.583,0.217-2.25,1.25c-0.267,0.467-0.483,1.1-0.65,1.9c-0.167,1.067-0.316,1.767-0.45,2.1
					c-0.2,0.6-0.5,1.283-0.9,2.05L0-12.2z"/>
				<path style="fill-rule:evenodd;clip-rule:evenodd;fill:#008580;" d="M21.25-3.75c1.433-1.4,1.333-2.75-0.3-4.05
					c-1.567,1.9-3.633,3-6.2,3.3c-2.467,0.233-4.683-0.433-6.65-2C7.433-5.567,7.067-4.883,7-4.45C6.867-3.683,7.283-3,8.25-2.4
					c0.467,0.3,1.117,0.5,1.95,0.6c1.066,0.167,1.75,0.3,2.05,0.4c0.967,0.333,2,0.8,3.1,1.4l0.6-0.8
					c0.533-0.6,1.083-1.017,1.65-1.25c0.5-0.2,1.183-0.45,2.05-0.75C20.383-3.067,20.917-3.383,21.25-3.75z"/>
				<path style="fill-rule:evenodd;clip-rule:evenodd;fill:#008580;" d="M21.2-8.15c0.9,0.667,1.583,1.033,2.05,1.1
					c0.767,0.1,1.467-0.333,2.1-1.3c0.267-0.467,0.467-1.117,0.6-1.95c0.167-1.034,0.316-1.717,0.45-2.05
					c0.367-0.967,0.867-1.867,1.5-2.7c-0.267-0.2-0.55-0.45-0.85-0.75c-0.566-0.567-0.95-1.05-1.15-1.45
					c-0.167-0.3-0.433-1.033-0.8-2.2c-0.267-0.867-0.567-1.466-0.9-1.8c-1.034-1.067-1.934-1.417-2.7-1.05
					c-0.333,0.167-0.883,0.767-1.65,1.8c1.867,1.5,2.933,3.517,3.2,6.05C23.25-12.183,22.633-10.083,21.2-8.15z"/>
				<path style="fill-rule:evenodd;clip-rule:evenodd;fill:#008580;" d="M7.3-19.55c1.6-1.733,3.567-2.717,5.9-2.95
					c2.3-0.233,4.4,0.35,6.3,1.75c0.8-1.1,1.25-1.85,1.35-2.25c0.233-0.8-0.184-1.533-1.25-2.2c-0.434-0.3-1.067-0.5-1.9-0.6
					c-1.1-0.167-1.8-0.3-2.1-0.4c-0.6-0.2-1.217-0.5-1.85-0.9c-0.333-0.2-0.6-0.383-0.8-0.55c-0.867,1.033-1.633,1.717-2.3,2.05
					c-0.167,0.067-0.917,0.333-2.25,0.8c-0.833,0.3-1.433,0.617-1.8,0.95c-1.067,1.033-1.417,1.917-1.05,2.65
					C5.683-20.867,6.267-20.317,7.3-19.55z"/>
			</g>
			<path style="fill-rule:evenodd;clip-rule:evenodd;fill:#5BBDAC;" d="M8.7-16.75c-0.034-0.5-0.25-0.917-0.65-1.25
				c-0.4-0.333-0.867-0.467-1.4-0.4c-0.5,0.033-0.917,0.25-1.25,0.65c-0.3,0.4-0.433,0.867-0.4,1.4c0.033,0.5,0.25,0.917,0.65,1.25
				c0.367,0.3,0.817,0.434,1.35,0.4c0.533-0.066,0.967-0.3,1.3-0.7C8.633-15.8,8.767-16.25,8.7-16.75z"/>
			<path style="fill-rule:evenodd;clip-rule:evenodd;fill:#5BBDAC;" d="M11.55-20.15c-0.033-0.5-0.25-0.917-0.65-1.25
				c-0.4-0.333-0.867-0.467-1.4-0.4c-0.5,0.033-0.917,0.25-1.25,0.65s-0.483,0.867-0.45,1.4c0.067,0.5,0.284,0.917,0.65,1.25
				c0.4,0.3,0.867,0.433,1.4,0.4c0.5-0.066,0.917-0.3,1.25-0.7C11.433-19.2,11.583-19.65,11.55-20.15z"/>
			<path style="fill-rule:evenodd;clip-rule:evenodd;fill:#5BBDAC;" d="M19.15-20.95c-0.033-0.5-0.25-0.917-0.65-1.25
				c-0.4-0.333-0.867-0.466-1.4-0.4c-0.5,0.033-0.917,0.267-1.25,0.7c-0.333,0.4-0.483,0.85-0.45,1.35
				c0.067,0.5,0.283,0.917,0.65,1.25c0.4,0.3,0.867,0.433,1.4,0.4c0.5-0.067,0.917-0.283,1.25-0.65
				C19.033-19.95,19.183-20.417,19.15-20.95z"/>
			<path style="fill-rule:evenodd;clip-rule:evenodd;fill:#5BBDAC;" d="M8.95-9.85C8.917-10.383,8.7-10.8,8.3-11.1
				c-0.4-0.333-0.85-0.467-1.35-0.4c-0.534,0.033-0.967,0.25-1.3,0.65c-0.3,0.4-0.433,0.85-0.4,1.35
				C5.317-8.967,5.533-8.55,5.9-8.25c0.4,0.333,0.85,0.467,1.35,0.4c0.533-0.066,0.967-0.283,1.3-0.65
				C8.883-8.9,9.017-9.35,8.95-9.85z"/>
			<path style="fill-rule:evenodd;clip-rule:evenodd;fill:#5BBDAC;" d="M12.75-6.45c-0.033-0.5-0.25-0.917-0.65-1.25
				c-0.4-0.333-0.867-0.466-1.4-0.4c-0.5,0.033-0.917,0.25-1.25,0.65C9.117-7.05,8.967-6.583,9-6.05
				c0.067,0.5,0.283,0.917,0.65,1.25c0.4,0.3,0.867,0.433,1.4,0.4c0.5-0.067,0.917-0.3,1.25-0.7C12.667-5.5,12.817-5.95,12.75-6.45z
				"/>
			<path style="fill-rule:evenodd;clip-rule:evenodd;fill:#5BBDAC;" d="M20-7.2c-0.033-0.5-0.25-0.917-0.65-1.25
				c-0.4-0.333-0.867-0.466-1.4-0.4c-0.5,0.033-0.917,0.25-1.25,0.65c-0.3,0.4-0.434,0.867-0.4,1.4c0.034,0.5,0.25,0.917,0.65,1.25
				c0.367,0.3,0.816,0.433,1.35,0.4c0.5-0.067,0.917-0.3,1.25-0.7C19.917-6.25,20.067-6.7,20-7.2z"/>
			<path style="fill-rule:evenodd;clip-rule:evenodd;fill:#5BBDAC;" d="M22.65-10.75C22.617-11.283,22.4-11.7,22-12
				c-0.4-0.333-0.85-0.467-1.35-0.4c-0.533,0.033-0.967,0.25-1.3,0.65c-0.3,0.4-0.434,0.867-0.4,1.4c0.033,0.5,0.25,0.917,0.65,1.25
				c0.367,0.3,0.816,0.417,1.35,0.35c0.5-0.067,0.917-0.283,1.25-0.65C22.567-9.8,22.717-10.25,22.65-10.75z"/>
			<path style="fill-rule:evenodd;clip-rule:evenodd;fill:#5BBDAC;" d="M22.7-18.2c-0.034-0.5-0.25-0.917-0.65-1.25
				c-0.4-0.333-0.867-0.466-1.4-0.4c-0.5,0.033-0.917,0.25-1.25,0.65c-0.333,0.4-0.483,0.867-0.45,1.4
				c0.066,0.5,0.283,0.917,0.65,1.25c0.4,0.3,0.867,0.433,1.4,0.4c0.5-0.067,0.917-0.3,1.25-0.7S22.733-17.7,22.7-18.2z"/>
		</g>
	</g>
</symbol>
<symbol  id="flash0.ai_x2F_Layer_3_x2F__x3C_Group_x3E__x5F_7" viewBox="0 -27.6 27.85 27.6">
	<g id="Layer_1_9_">
		<g>
			<g>
				<path style="fill-rule:evenodd;clip-rule:evenodd;fill:#008580;" d="M0-12.2c1.067,0.867,1.767,1.633,2.1,2.3
					c0.1,0.233,0.333,0.9,0.7,2c0.233,0.733,0.517,1.267,0.85,1.6c0.967,0.966,1.8,1.333,2.5,1.1c0.434-0.167,0.967-0.683,1.6-1.55
					c-1.733-1.567-2.7-3.5-2.9-5.8c-0.2-2.5,0.5-4.717,2.1-6.65c-1.067-0.767-1.8-1.2-2.2-1.3c-0.833-0.2-1.583,0.233-2.25,1.3
					c-0.267,0.434-0.467,1.067-0.6,1.9c-0.2,1-0.367,1.683-0.5,2.05c-0.2,0.633-0.5,1.333-0.9,2.1L0-12.2z"/>
				<path style="fill-rule:evenodd;clip-rule:evenodd;fill:#008580;" d="M22.2-6.1c-0.133-0.533-0.567-1.083-1.3-1.65
					c-1.633,1.933-3.7,3.017-6.2,3.25S9.983-4.917,8.05-6.45c-0.667,0.9-1.033,1.583-1.1,2.05c-0.133,0.733,0.3,1.417,1.3,2.05
					c0.433,0.267,1.067,0.467,1.9,0.6c1,0.133,1.684,0.267,2.05,0.4c1,0.333,2.033,0.783,3.1,1.35l0.65-0.8
					c0.533-0.567,1.066-0.967,1.6-1.2c0.5-0.233,1.184-0.5,2.05-0.8c0.733-0.267,1.267-0.567,1.6-0.9
					C22.067-4.567,22.4-5.367,22.2-6.1z"/>
				<path style="fill-rule:evenodd;clip-rule:evenodd;fill:#008580;" d="M21.15-8.1c0.934,0.667,1.617,1.033,2.05,1.1
					c0.767,0.1,1.466-0.35,2.1-1.35c0.267-0.433,0.467-1.066,0.6-1.9c0.167-1.033,0.317-1.717,0.45-2.05
					c0.367-0.967,0.867-1.867,1.5-2.7c-0.267-0.2-0.55-0.45-0.85-0.75c-0.567-0.6-0.95-1.1-1.15-1.5c-0.1-0.233-0.35-0.967-0.75-2.2
					c-0.3-0.833-0.617-1.417-0.95-1.75c-1.033-1.033-1.917-1.383-2.65-1.05c-0.333,0.167-0.883,0.767-1.65,1.8
					c1.9,1.567,2.95,3.583,3.15,6.05C23.2-12.067,22.583-9.967,21.15-8.1z"/>
				<path style="fill-rule:evenodd;clip-rule:evenodd;fill:#008580;" d="M7.3-19.55c1.567-1.733,3.517-2.7,5.85-2.9
					c2.333-0.233,4.434,0.333,6.3,1.7c0.8-1.1,1.25-1.85,1.35-2.25c0.233-0.8-0.183-1.533-1.25-2.2
					c-0.433-0.267-1.066-0.466-1.9-0.6c-1-0.133-1.683-0.267-2.05-0.4c-0.633-0.2-1.267-0.5-1.9-0.9c-0.333-0.2-0.6-0.367-0.8-0.5
					c-0.867,1.033-1.633,1.717-2.3,2.05c-0.233,0.1-0.967,0.35-2.2,0.75c-0.867,0.3-1.483,0.617-1.85,0.95
					c-1.066,1.033-1.417,1.934-1.05,2.7C5.667-20.817,6.267-20.283,7.3-19.55z"/>
			</g>
			<path style="fill-rule:evenodd;clip-rule:evenodd;fill:#5BBDAC;" d="M8.65-16.7C8.617-17.233,8.4-17.65,8-17.95
				c-0.4-0.333-0.85-0.466-1.35-0.4c-0.533,0.033-0.967,0.25-1.3,0.65c-0.3,0.4-0.434,0.85-0.4,1.35
				c0.066,0.533,0.283,0.95,0.65,1.25c0.4,0.333,0.85,0.467,1.35,0.4c0.533-0.066,0.966-0.283,1.3-0.65
				C8.583-15.75,8.717-16.2,8.65-16.7z"/>
			<path style="fill-rule:evenodd;clip-rule:evenodd;fill:#5BBDAC;" d="M11.5-20.1c-0.033-0.533-0.25-0.95-0.65-1.25
				c-0.4-0.333-0.867-0.467-1.4-0.4c-0.5,0.033-0.917,0.25-1.25,0.65c-0.3,0.4-0.434,0.85-0.4,1.35c0.034,0.533,0.25,0.95,0.65,1.25
				c0.367,0.3,0.816,0.433,1.35,0.4c0.5-0.066,0.917-0.283,1.25-0.65C11.417-19.15,11.567-19.6,11.5-20.1z"/>
			<path style="fill-rule:evenodd;clip-rule:evenodd;fill:#5BBDAC;" d="M19.1-20.9c-0.033-0.5-0.25-0.917-0.65-1.25
				c-0.4-0.333-0.85-0.467-1.35-0.4c-0.533,0.033-0.967,0.25-1.3,0.65c-0.3,0.4-0.433,0.867-0.4,1.4c0.033,0.5,0.25,0.917,0.65,1.25
				c0.4,0.3,0.85,0.433,1.35,0.4c0.5-0.066,0.917-0.3,1.25-0.7C19.017-19.95,19.167-20.4,19.1-20.9z"/>
			<path style="fill-rule:evenodd;clip-rule:evenodd;fill:#5BBDAC;" d="M8.9-9.85c-0.033-0.5-0.25-0.917-0.65-1.25
				c-0.4-0.333-0.85-0.467-1.35-0.4c-0.533,0.067-0.967,0.3-1.3,0.7c-0.3,0.4-0.434,0.85-0.4,1.35c0.066,0.5,0.283,0.917,0.65,1.25
				C6.25-7.9,6.7-7.767,7.2-7.8c0.533-0.067,0.966-0.284,1.3-0.65C8.833-8.85,8.967-9.317,8.9-9.85z"/>
			<path style="fill-rule:evenodd;clip-rule:evenodd;fill:#5BBDAC;" d="M12.7-6.4c-0.034-0.533-0.25-0.95-0.65-1.25
				c-0.4-0.333-0.85-0.467-1.35-0.4C10.167-8.017,9.733-7.8,9.4-7.4C9.1-7,8.967-6.55,9-6.05C9.067-5.517,9.283-5.1,9.65-4.8
				c0.4,0.3,0.85,0.433,1.35,0.4c0.533-0.067,0.967-0.283,1.3-0.65C12.633-5.45,12.767-5.9,12.7-6.4z"/>
			<path style="fill-rule:evenodd;clip-rule:evenodd;fill:#5BBDAC;" d="M19.95-7.15c-0.034-0.533-0.25-0.967-0.65-1.3
				c-0.4-0.3-0.85-0.417-1.35-0.35c-0.534,0.033-0.967,0.25-1.3,0.65c-0.3,0.4-0.433,0.85-0.4,1.35
				c0.067,0.533,0.283,0.95,0.65,1.25c0.4,0.3,0.85,0.433,1.35,0.4c0.533-0.067,0.967-0.283,1.3-0.65
				C19.883-6.2,20.017-6.65,19.95-7.15z"/>
			<path style="fill-rule:evenodd;clip-rule:evenodd;fill:#5BBDAC;" d="M22.6-10.75c-0.033-0.5-0.25-0.917-0.65-1.25
				c-0.4-0.333-0.85-0.467-1.35-0.4c-0.533,0.066-0.967,0.3-1.3,0.7c-0.3,0.4-0.433,0.85-0.4,1.35c0.067,0.5,0.283,0.917,0.65,1.25
				c0.4,0.3,0.85,0.434,1.35,0.4c0.533-0.066,0.967-0.283,1.3-0.65C22.533-9.75,22.667-10.217,22.6-10.75z"/>
			<path style="fill-rule:evenodd;clip-rule:evenodd;fill:#5BBDAC;" d="M22.65-18.15C22.617-18.683,22.4-19.1,22-19.4
				c-0.4-0.333-0.85-0.467-1.35-0.4c-0.533,0.033-0.967,0.25-1.3,0.65c-0.3,0.4-0.434,0.85-0.4,1.35
				c0.033,0.533,0.25,0.95,0.65,1.25c0.4,0.333,0.85,0.466,1.35,0.4c0.533-0.067,0.966-0.283,1.3-0.65
				C22.583-17.2,22.717-17.65,22.65-18.15z"/>
		</g>
	</g>
</symbol>
<symbol  id="flash0.ai_x2F_Layer_3_x2F__x3C_Group_x3E__x5F_8" viewBox="0 -27.6 27.85 27.6">
	<g id="Layer_1_8_">
		<g>
			<g>
				<path style="fill-rule:evenodd;clip-rule:evenodd;fill:#008580;" d="M0-12.2c1.1,0.867,1.8,1.633,2.1,2.3
					c0.1,0.233,0.333,0.9,0.7,2c0.233,0.7,0.517,1.217,0.85,1.55c0.967,0.967,1.8,1.333,2.5,1.1c0.434-0.133,0.967-0.633,1.6-1.5
					c-1.667-1.533-2.633-3.467-2.9-5.8C4.65-15.017,5.367-17.233,7-19.2c-1.1-0.767-1.85-1.2-2.25-1.3
					c-0.833-0.2-1.583,0.233-2.25,1.3c-0.267,0.434-0.467,1.067-0.6,1.9c-0.167,1.033-0.316,1.716-0.45,2.05
					c-0.233,0.633-0.55,1.333-0.95,2.1L0-12.2z"/>
				<path style="fill-rule:evenodd;clip-rule:evenodd;fill:#008580;" d="M22.2-6.1c-0.133-0.533-0.567-1.083-1.3-1.65
					c-1.633,1.933-3.683,3.017-6.15,3.25C12.183-4.233,9.967-4.883,8.1-6.45C7.4-5.55,7.017-4.867,6.95-4.4
					c-0.133,0.733,0.3,1.417,1.3,2.05c0.433,0.267,1.067,0.467,1.9,0.6c1.033,0.133,1.717,0.267,2.05,0.4
					c1,0.333,2.05,0.783,3.15,1.35l0.6-0.8c0.533-0.567,1.066-0.967,1.6-1.2l2.05-0.8c0.733-0.267,1.283-0.567,1.65-0.9
					C22.117-4.567,22.433-5.367,22.2-6.1z"/>
				<path style="fill-rule:evenodd;clip-rule:evenodd;fill:#008580;" d="M21.15-8.1c0.934,0.667,1.617,1.033,2.05,1.1
					c0.767,0.1,1.466-0.35,2.1-1.35c0.3-0.433,0.517-1.066,0.65-1.9c0.167-1.033,0.316-1.717,0.45-2.05
					c0.333-0.967,0.817-1.867,1.45-2.7c-0.267-0.2-0.55-0.45-0.85-0.75c-0.567-0.6-0.95-1.1-1.15-1.5
					c-0.1-0.233-0.35-0.967-0.75-2.2c-0.3-0.833-0.617-1.417-0.95-1.75c-1-1.066-1.883-1.417-2.65-1.05
					c-0.333,0.167-0.883,0.767-1.65,1.8c1.9,1.567,2.95,3.583,3.15,6.05C23.2-12.067,22.583-9.967,21.15-8.1z"/>
				<path style="fill-rule:evenodd;clip-rule:evenodd;fill:#008580;" d="M7.3-19.55c1.633-1.733,3.583-2.7,5.85-2.9
					c2.367-0.267,4.483,0.3,6.35,1.7c0.8-1.167,1.25-1.917,1.35-2.25c0.2-0.8-0.217-1.533-1.25-2.2
					c-0.434-0.267-1.067-0.466-1.9-0.6c-1.034-0.133-1.733-0.267-2.1-0.4c-0.6-0.2-1.233-0.5-1.9-0.9c-0.333-0.2-0.6-0.367-0.8-0.5
					c-0.867,1.033-1.633,1.717-2.3,2.05c-0.233,0.1-0.967,0.35-2.2,0.75c-0.867,0.3-1.467,0.617-1.8,0.95
					c-1.067,1.033-1.417,1.934-1.05,2.7C5.717-20.783,6.3-20.25,7.3-19.55z"/>
			</g>
			<path style="fill-rule:evenodd;clip-rule:evenodd;fill:#5BBDAC;" d="M8.65-16.7c-0.033-0.533-0.233-0.95-0.6-1.25
				c-0.4-0.333-0.867-0.466-1.4-0.4c-0.533,0.033-0.967,0.25-1.3,0.65c-0.3,0.4-0.434,0.85-0.4,1.35
				c0.066,0.533,0.283,0.95,0.65,1.25c0.4,0.333,0.85,0.467,1.35,0.4c0.533-0.066,0.966-0.283,1.3-0.65
				C8.583-15.75,8.717-16.2,8.65-16.7z"/>
			<path style="fill-rule:evenodd;clip-rule:evenodd;fill:#5BBDAC;" d="M11.5-20.1c-0.033-0.533-0.25-0.95-0.65-1.25
				c-0.4-0.333-0.85-0.467-1.35-0.4c-0.533,0.033-0.967,0.25-1.3,0.65c-0.3,0.4-0.434,0.85-0.4,1.35
				c0.067,0.533,0.284,0.95,0.65,1.25c0.4,0.3,0.85,0.433,1.35,0.4c0.534-0.066,0.967-0.283,1.3-0.65
				C11.433-19.15,11.567-19.6,11.5-20.1z"/>
			<path style="fill-rule:evenodd;clip-rule:evenodd;fill:#5BBDAC;" d="M19.1-20.9c-0.033-0.5-0.25-0.917-0.65-1.25
				c-0.4-0.333-0.85-0.467-1.35-0.4c-0.533,0.033-0.967,0.25-1.3,0.65c-0.3,0.4-0.433,0.867-0.4,1.4
				c0.067,0.5,0.283,0.917,0.65,1.25c0.4,0.3,0.85,0.433,1.35,0.4c0.533-0.066,0.967-0.3,1.3-0.7
				C19.033-19.95,19.167-20.4,19.1-20.9z"/>
			<path style="fill-rule:evenodd;clip-rule:evenodd;fill:#5BBDAC;" d="M8.9-9.85c-0.033-0.5-0.233-0.917-0.6-1.25
				c-0.4-0.333-0.867-0.467-1.4-0.4c-0.5,0.067-0.917,0.3-1.25,0.7C5.317-10.4,5.167-9.95,5.2-9.45c0.066,0.5,0.283,0.917,0.65,1.25
				c0.4,0.3,0.867,0.434,1.4,0.4c0.5-0.067,0.917-0.284,1.25-0.65C8.833-8.85,8.967-9.317,8.9-9.85z"/>
			<path style="fill-rule:evenodd;clip-rule:evenodd;fill:#5BBDAC;" d="M12.7-6.4c-0.034-0.533-0.25-0.967-0.65-1.3
				C11.65-8,11.2-8.117,10.7-8.05C10.167-8.017,9.733-7.8,9.4-7.4C9.1-7,8.967-6.55,9-6.05C9.067-5.517,9.283-5.1,9.65-4.8
				c0.4,0.3,0.85,0.433,1.35,0.4c0.533-0.067,0.967-0.283,1.3-0.65C12.633-5.45,12.767-5.9,12.7-6.4z"/>
			<path style="fill-rule:evenodd;clip-rule:evenodd;fill:#5BBDAC;" d="M19.95-7.15c-0.034-0.533-0.25-0.967-0.65-1.3
				c-0.4-0.3-0.85-0.417-1.35-0.35c-0.534,0.033-0.967,0.25-1.3,0.65c-0.3,0.4-0.433,0.85-0.4,1.35
				c0.067,0.533,0.283,0.95,0.65,1.25c0.4,0.3,0.85,0.433,1.35,0.4c0.533-0.067,0.967-0.283,1.3-0.65
				C19.883-6.2,20.017-6.65,19.95-7.15z"/>
			<path style="fill-rule:evenodd;clip-rule:evenodd;fill:#5BBDAC;" d="M22.6-10.75c-0.033-0.5-0.25-0.917-0.65-1.25
				c-0.4-0.333-0.85-0.467-1.35-0.4c-0.533,0.066-0.967,0.3-1.3,0.7c-0.3,0.4-0.433,0.85-0.4,1.35c0.067,0.5,0.283,0.917,0.65,1.25
				c0.4,0.3,0.85,0.434,1.35,0.4c0.533-0.066,0.967-0.283,1.3-0.65C22.533-9.75,22.667-10.217,22.6-10.75z"/>
			<path style="fill-rule:evenodd;clip-rule:evenodd;fill:#5BBDAC;" d="M22.65-18.15C22.617-18.683,22.4-19.1,22-19.4
				c-0.4-0.333-0.85-0.467-1.35-0.4c-0.533,0.033-0.967,0.25-1.3,0.65c-0.3,0.4-0.434,0.85-0.4,1.35
				c0.066,0.533,0.283,0.95,0.65,1.25c0.4,0.333,0.85,0.466,1.35,0.4c0.533-0.067,0.966-0.283,1.3-0.65
				C22.583-17.2,22.717-17.65,22.65-18.15z"/>
		</g>
	</g>
</symbol>
<symbol  id="flash0.ai_x2F_Layer_3_x2F__x3C_Group_x3E__x5F_9" viewBox="0 -31.25 31.55 31.25">
	<g id="Layer_1_7_">
		<g>
			<g>
				<path style="fill-rule:evenodd;clip-rule:evenodd;fill:#008580;" d="M2.4-11.2c0.133,0.3,0.4,1.05,0.8,2.25
					c0.267,0.8,0.583,1.4,0.95,1.8C5.25-6.05,6.2-5.633,7-5.9c0.5-0.2,1.1-0.783,1.8-1.75c-1.966-1.8-3.05-3.983-3.25-6.55
					c-0.267-2.833,0.517-5.35,2.35-7.55c-1.2-0.9-2.033-1.4-2.5-1.5c-0.933-0.2-1.783,0.3-2.55,1.5c-0.333,0.5-0.567,1.217-0.7,2.15
					c-0.2,1.2-0.367,1.983-0.5,2.35c-0.233,0.7-0.583,1.483-1.05,2.35L0-13.8C1.233-12.8,2.033-11.933,2.4-11.2z"/>
				<path style="fill-rule:evenodd;clip-rule:evenodd;fill:#008580;" d="M25.15-6.9c-0.133-0.6-0.617-1.233-1.45-1.9
					c-1.833,2.233-4.167,3.466-7,3.7c-2.833,0.3-5.35-0.433-7.55-2.2C8.383-6.267,7.967-5.5,7.9-5C7.767-4.133,8.25-3.35,9.35-2.65
					c0.5,0.3,1.217,0.517,2.15,0.65c1.167,0.167,1.95,0.317,2.35,0.45c1.1,0.4,2.283,0.917,3.55,1.55l0.7-0.9
					c0.566-0.633,1.167-1.083,1.8-1.35c0.567-0.267,1.35-0.567,2.35-0.9c0.833-0.3,1.433-0.65,1.8-1.05
					C25.017-5.167,25.383-6.067,25.15-6.9z"/>
				<path style="fill-rule:evenodd;clip-rule:evenodd;fill:#008580;" d="M24-9.2c1.033,0.767,1.8,1.184,2.3,1.25
					c0.867,0.133,1.667-0.367,2.4-1.5c0.333-0.5,0.566-1.216,0.7-2.15c0.167-1.133,0.333-1.917,0.5-2.35
					c0.4-1.1,0.95-2.117,1.65-3.05c-0.267-0.233-0.566-0.517-0.9-0.85c-0.667-0.667-1.117-1.233-1.35-1.7
					c-0.167-0.333-0.45-1.15-0.85-2.45c-0.333-1-0.684-1.683-1.05-2.05c-1.167-1.167-2.183-1.55-3.05-1.15
					c-0.4,0.2-1.017,0.883-1.85,2.05c2.167,1.767,3.367,4.033,3.6,6.8C26.3-13.683,25.6-11.3,24-9.2z"/>
				<path style="fill-rule:evenodd;clip-rule:evenodd;fill:#008580;" d="M6.25-23.95c0.2,0.367,0.883,0.983,2.05,1.85
					c1.767-2,3.967-3.117,6.6-3.35c2.6-0.3,5,0.35,7.2,1.95c0.9-1.3,1.4-2.133,1.5-2.5c0.233-0.933-0.233-1.767-1.4-2.5
					c-0.5-0.333-1.217-0.567-2.15-0.7c-1.167-0.167-1.95-0.316-2.35-0.45c-0.7-0.267-1.417-0.617-2.15-1.05
					c-0.367-0.2-0.667-0.383-0.9-0.55c-1,1.167-1.867,1.933-2.6,2.3c-0.3,0.133-1.133,0.434-2.5,0.9c-1,0.333-1.7,0.683-2.1,1.05
					C6.25-25.833,5.85-24.817,6.25-23.95z"/>
			</g>
			<path style="fill-rule:evenodd;clip-rule:evenodd;fill:#5BBDAC;" d="M9.85-18.95c-0.033-0.566-0.283-1.033-0.75-1.4
				s-0.983-0.517-1.55-0.45c-0.566,0.033-1.05,0.283-1.45,0.75c-0.367,0.466-0.533,0.983-0.5,1.55c0.066,0.567,0.316,1.033,0.75,1.4
				c0.467,0.367,0.983,0.517,1.55,0.45c0.567-0.067,1.05-0.317,1.45-0.75C9.75-17.867,9.917-18.383,9.85-18.95z"/>
			<path style="fill-rule:evenodd;clip-rule:evenodd;fill:#5BBDAC;" d="M13.05-22.8c-0.033-0.567-0.283-1.034-0.75-1.4
				c-0.466-0.367-0.983-0.517-1.55-0.45c-0.567,0.033-1.033,0.283-1.4,0.75s-0.533,0.983-0.5,1.55c0.066,0.567,0.316,1.033,0.75,1.4
				c0.433,0.367,0.933,0.517,1.5,0.45c0.6-0.067,1.083-0.317,1.45-0.75C12.95-21.717,13.117-22.233,13.05-22.8z"/>
			<path style="fill-rule:evenodd;clip-rule:evenodd;fill:#5BBDAC;" d="M21.65-23.7c-0.033-0.566-0.283-1.033-0.75-1.4
				c-0.433-0.367-0.95-0.517-1.55-0.45c-0.567,0.033-1.033,0.283-1.4,0.75c-0.367,0.466-0.534,0.983-0.5,1.55
				c0.066,0.567,0.316,1.033,0.75,1.4c0.433,0.367,0.95,0.517,1.55,0.45c0.567-0.067,1.033-0.317,1.4-0.75
				C21.55-22.617,21.717-23.133,21.65-23.7z"/>
			<path style="fill-rule:evenodd;clip-rule:evenodd;fill:#5BBDAC;" d="M10.1-11.15c-0.033-0.567-0.283-1.033-0.75-1.4
				c-0.434-0.367-0.934-0.517-1.5-0.45c-0.6,0.033-1.083,0.283-1.45,0.75s-0.533,0.983-0.5,1.55c0.067,0.567,0.317,1.034,0.75,1.4
				C7.117-8.933,7.633-8.783,8.2-8.85C8.767-8.917,9.233-9.167,9.6-9.6C10-10.067,10.167-10.583,10.1-11.15z"/>
			<path style="fill-rule:evenodd;clip-rule:evenodd;fill:#5BBDAC;" d="M14.4-7.25c-0.033-0.567-0.283-1.033-0.75-1.4
				c-0.433-0.4-0.95-0.567-1.55-0.5c-0.567,0.066-1.033,0.316-1.4,0.75c-0.367,0.467-0.534,0.983-0.5,1.55
				c0.066,0.567,0.316,1.033,0.75,1.4c0.466,0.367,0.983,0.534,1.55,0.5c0.567-0.066,1.033-0.333,1.4-0.8
				C14.3-6.183,14.467-6.683,14.4-7.25z"/>
			<path style="fill-rule:evenodd;clip-rule:evenodd;fill:#5BBDAC;" d="M22.65-8.1c-0.033-0.566-0.283-1.033-0.75-1.4
				c-0.467-0.4-0.983-0.567-1.55-0.5c-0.567,0.067-1.05,0.317-1.45,0.75c-0.367,0.467-0.533,0.983-0.5,1.55
				c0.067,0.567,0.317,1.034,0.75,1.4c0.467,0.367,0.983,0.533,1.55,0.5c0.566-0.067,1.05-0.333,1.45-0.8
				C22.55-7.033,22.717-7.533,22.65-8.1z"/>
			<path style="fill-rule:evenodd;clip-rule:evenodd;fill:#5BBDAC;" d="M25.65-12.15c-0.033-0.567-0.283-1.033-0.75-1.4
				s-0.983-0.517-1.55-0.45c-0.567,0.033-1.05,0.283-1.45,0.75c-0.367,0.467-0.533,0.983-0.5,1.55c0.067,0.567,0.317,1.034,0.75,1.4
				c0.467,0.333,0.983,0.483,1.55,0.45c0.566-0.066,1.05-0.316,1.45-0.75C25.55-11.067,25.717-11.583,25.65-12.15z"/>
			<path style="fill-rule:evenodd;clip-rule:evenodd;fill:#5BBDAC;" d="M25.7-20.55c-0.034-0.567-0.284-1.034-0.75-1.4
				c-0.467-0.4-0.983-0.566-1.55-0.5c-0.566,0.067-1.05,0.317-1.45,0.75c-0.367,0.467-0.534,0.983-0.5,1.55
				c0.066,0.566,0.316,1.033,0.75,1.4c0.466,0.367,0.983,0.533,1.55,0.5c0.567-0.067,1.05-0.333,1.45-0.8
				C25.6-19.483,25.767-19.983,25.7-20.55z"/>
		</g>
	</g>
</symbol>
<symbol  id="flash0.ai_x2F_Layer_3_x2F__x3C_Path_x3E_" viewBox="0.044 -2.806 2.529 2.812">
	<g id="Layer_1_28_">
		<path style="fill-rule:evenodd;clip-rule:evenodd;fill:#008580;" d="M2.55-1.55C2.517-1.917,2.367-2.233,2.1-2.5
			C1.867-2.733,1.567-2.833,1.2-2.8C0.833-2.733,0.55-2.567,0.35-2.3C0.117-2,0.017-1.65,0.05-1.25
			c0.034,0.367,0.184,0.667,0.45,0.9C0.767-0.083,1.067,0.033,1.4,0c0.367-0.067,0.667-0.233,0.9-0.5
			C2.533-0.8,2.617-1.15,2.55-1.55z"/>
	</g>
</symbol>
<symbol  id="flash0.ai_x2F_Layer_3_x2F__x3C_Path_x3E__x5F_1" viewBox="-0.006 -2.77 2.578 2.776">
	<g id="Layer_1_27_">
		<path style="fill-rule:evenodd;clip-rule:evenodd;fill:#008580;" d="M2.55-1.5C2.517-1.9,2.367-2.217,2.1-2.45
			c-0.267-0.267-0.583-0.367-0.95-0.3c-0.333,0.033-0.617,0.2-0.85,0.5c-0.233,0.3-0.333,0.633-0.3,1
			c0.067,0.367,0.233,0.667,0.5,0.9C0.767-0.083,1.067,0.033,1.4,0c0.367-0.067,0.667-0.233,0.9-0.5C2.533-0.8,2.617-1.133,2.55-1.5
			z"/>
	</g>
</symbol>
<symbol  id="flash0.ai_x2F_Layer_3_x2F__x3C_Path_x3E__x5F_10" viewBox="-0.005 -3.667 3.422 3.672">
	<g id="Layer_1_18_">
		<path style="fill-rule:evenodd;clip-rule:evenodd;fill:#008580;" d="M3.4-2C3.367-2.5,3.167-2.917,2.8-3.25s-0.783-0.467-1.25-0.4
			C1.083-3.617,0.7-3.4,0.4-3C0.1-2.6-0.033-2.15,0-1.65c0.067,0.5,0.267,0.917,0.6,1.25C0.967-0.1,1.383,0.033,1.85,0
			C2.317-0.067,2.7-0.283,3-0.65C3.333-1.05,3.467-1.5,3.4-2z"/>
	</g>
</symbol>
<symbol  id="flash0.ai_x2F_Layer_3_x2F__x3C_Path_x3E__x5F_11" viewBox="-0.005 -3.717 3.422 3.672">
	<g id="Layer_1_17_">
		<path style="fill-rule:evenodd;clip-rule:evenodd;fill:#008580;" d="M3.4-2.05C3.367-2.55,3.167-2.967,2.8-3.3
			C2.433-3.633,2.017-3.767,1.55-3.7C1.083-3.667,0.7-3.45,0.4-3.05C0.1-2.65-0.033-2.2,0-1.7c0.067,0.5,0.267,0.917,0.6,1.25
			c0.367,0.3,0.783,0.434,1.25,0.4C2.317-0.117,2.7-0.333,3-0.7C3.333-1.1,3.467-1.55,3.4-2.05z"/>
	</g>
</symbol>
<symbol  id="flash0.ai_x2F_Layer_3_x2F__x3C_Path_x3E__x5F_2" viewBox="-0.006 -2.806 2.562 2.812">
	<g id="Layer_1_26_">
		<path style="fill-rule:evenodd;clip-rule:evenodd;fill:#008580;" d="M2.55-1.55C2.517-1.917,2.367-2.233,2.1-2.5
			C1.833-2.733,1.517-2.833,1.15-2.8C0.783-2.767,0.5-2.6,0.3-2.3C0.067-2-0.033-1.65,0-1.25c0.033,0.367,0.183,0.667,0.45,0.9
			C0.717-0.083,1.033,0.033,1.4,0c0.367-0.067,0.65-0.233,0.85-0.5C2.483-0.8,2.583-1.15,2.55-1.55z"/>
	</g>
</symbol>
<symbol  id="flash0.ai_x2F_Layer_3_x2F__x3C_Path_x3E__x5F_3" viewBox="-0.006 -2.806 2.562 2.812">
	<g id="Layer_1_25_">
		<path style="fill-rule:evenodd;clip-rule:evenodd;fill:#008580;" d="M2.55-1.55C2.517-1.917,2.367-2.233,2.1-2.5
			C1.8-2.733,1.483-2.833,1.15-2.8C0.783-2.733,0.5-2.567,0.3-2.3C0.067-2-0.033-1.65,0-1.25c0.033,0.367,0.183,0.667,0.45,0.9
			C0.717-0.083,1.033,0.033,1.4,0c0.367-0.067,0.65-0.233,0.85-0.5C2.483-0.8,2.583-1.15,2.55-1.55z"/>
	</g>
</symbol>
<symbol  id="flash0.ai_x2F_Layer_3_x2F__x3C_Path_x3E__x5F_4" viewBox="-0.006 -2.806 2.562 2.763">
	<g id="Layer_1_24_">
		<path style="fill-rule:evenodd;clip-rule:evenodd;fill:#008580;" d="M2.55-1.55C2.517-1.917,2.367-2.233,2.1-2.5
			C1.8-2.733,1.483-2.833,1.15-2.8C0.783-2.767,0.5-2.6,0.3-2.3C0.067-2-0.033-1.667,0-1.3c0.033,0.4,0.183,0.716,0.45,0.95
			c0.267,0.233,0.583,0.333,0.95,0.3c0.333-0.034,0.617-0.2,0.85-0.5C2.483-0.85,2.583-1.183,2.55-1.55z"/>
	</g>
</symbol>
<symbol  id="flash0.ai_x2F_Layer_3_x2F__x3C_Path_x3E__x5F_5" viewBox="-0.006 -2.77 2.562 2.776">
	<g id="Layer_1_23_">
		<path style="fill-rule:evenodd;clip-rule:evenodd;fill:#008580;" d="M2.55-1.55C2.517-1.917,2.367-2.217,2.1-2.45
			c-0.267-0.267-0.583-0.367-0.95-0.3c-0.333,0.033-0.617,0.2-0.85,0.5c-0.233,0.3-0.333,0.633-0.3,1
			c0.067,0.367,0.233,0.667,0.5,0.9C0.767-0.083,1.067,0.033,1.4,0c0.367-0.067,0.65-0.233,0.85-0.5C2.483-0.8,2.583-1.15,2.55-1.55
			z"/>
	</g>
</symbol>
<symbol  id="flash0.ai_x2F_Layer_3_x2F__x3C_Path_x3E__x5F_6" viewBox="-0.005 -3.717 3.422 3.672">
	<g id="Layer_1_22_">
		<path style="fill-rule:evenodd;clip-rule:evenodd;fill:#008580;" d="M3.4-2.05C3.367-2.55,3.167-2.967,2.8-3.3
			C2.433-3.633,2.017-3.767,1.55-3.7C1.083-3.667,0.7-3.45,0.4-3.05C0.1-2.65-0.033-2.2,0-1.7c0.067,0.5,0.267,0.917,0.6,1.25
			c0.367,0.3,0.783,0.434,1.25,0.4C2.317-0.117,2.7-0.333,3-0.7C3.333-1.1,3.467-1.55,3.4-2.05z"/>
	</g>
</symbol>
<symbol  id="flash0.ai_x2F_Layer_3_x2F__x3C_Path_x3E__x5F_7" viewBox="-0.005 -3.667 3.423 3.672">
	<g id="Layer_1_21_">
		<path style="fill-rule:evenodd;clip-rule:evenodd;fill:#008580;" d="M3.4-2C3.367-2.5,3.167-2.917,2.8-3.25s-0.783-0.467-1.25-0.4
			C1.083-3.617,0.7-3.4,0.4-3C0.1-2.6-0.033-2.15,0-1.65c0.067,0.5,0.283,0.917,0.65,1.25C1.017-0.1,1.433,0.033,1.9,0
			c0.467-0.067,0.85-0.283,1.15-0.65C3.35-1.05,3.467-1.5,3.4-2z"/>
	</g>
</symbol>
<symbol  id="flash0.ai_x2F_Layer_3_x2F__x3C_Path_x3E__x5F_8" viewBox="-0.005 -3.717 3.422 3.721">
	<g id="Layer_1_20_">
		<path style="fill-rule:evenodd;clip-rule:evenodd;fill:#008580;" d="M3.4-2.05C3.367-2.55,3.167-2.967,2.8-3.3
			C2.433-3.633,2.017-3.767,1.55-3.7C1.083-3.667,0.7-3.45,0.4-3.05C0.1-2.65-0.033-2.2,0-1.7c0.067,0.534,0.267,0.95,0.6,1.25
			C0.967-0.117,1.383,0.033,1.85,0C2.317-0.067,2.7-0.283,3-0.65C3.333-1.05,3.467-1.517,3.4-2.05z"/>
	</g>
</symbol>
<symbol  id="flash0.ai_x2F_Layer_3_x2F__x3C_Path_x3E__x5F_9" viewBox="-0.005 -3.717 3.422 3.722">
	<g id="Layer_1_19_">
		<path style="fill-rule:evenodd;clip-rule:evenodd;fill:#008580;" d="M3.4-2.05C3.367-2.55,3.167-2.967,2.8-3.3
			C2.433-3.633,2.017-3.767,1.55-3.7C1.083-3.667,0.7-3.45,0.4-3.05C0.1-2.65-0.033-2.2,0-1.7c0.067,0.534,0.283,0.967,0.65,1.3
			C0.983-0.1,1.383,0.033,1.85,0C2.317-0.067,2.7-0.283,3-0.65C3.333-1.05,3.467-1.517,3.4-2.05z"/>
	</g>
</symbol>
<use xlink:href="#flash0.ai_x2F_Layer_3_x2F__x3C_Clip_Group_0_x3E_"  width="274.356" height="102.7" x="-0.071" y="-102.7" transform="matrix(2 0 0 -2 0.1001 0)" style="overflow:visible;"/>
</svg>
