<?xml version="1.0" encoding="iso-8859-1"?>
<!-- Generator: Adobe Illustrator 15.1.0, SVG Export Plug-In . SVG Version: 6.00 Build 0)  -->
<!DOCTYPE svg PUBLIC "-//W3C//DTD SVG 1.1//EN" "http://www.w3.org/Graphics/SVG/1.1/DTD/svg11.dtd">
<svg version="1.1" id="Layer_3" xmlns="http://www.w3.org/2000/svg" xmlns:xlink="http://www.w3.org/1999/xlink" x="0px" y="0px"
	 width="283.15px" height="102.85px" viewBox="0 0 283.15 102.85" style="enable-background:new 0 0 283.15 102.85;"
	 xml:space="preserve">
<g>
	
		<linearGradient id="SVGID_1_" gradientUnits="userSpaceOnUse" x1="2.4395" y1="-70.4937" x2="44.1659" y2="-70.4937" gradientTransform="matrix(0.0168 1.9999 -2.0001 -0.007 -0.0514 -0.0499)">
		<stop  offset="0.0235" style="stop-color:#2B1736"/>
		<stop  offset="0.2431" style="stop-color:#2D1A38"/>
		<stop  offset="0.4078" style="stop-color:#33243C"/>
		<stop  offset="0.5529" style="stop-color:#3E3444"/>
		<stop  offset="0.6902" style="stop-color:#4D4B50"/>
		<stop  offset="0.8157" style="stop-color:#60685E"/>
		<stop  offset="0.8314" style="stop-color:#626B60"/>
		<stop  offset="1" style="stop-color:#9CBAB5"/>
	</linearGradient>
	<path style="fill-rule:evenodd;clip-rule:evenodd;fill:url(#SVGID_1_);" d="M267.15,74.15c11.533,2.2,16.833,3.833,15.899,4.899
		c-0.467,0.601-2.1,0.934-4.899,1c-10.467-1.933-21.601-3.066-33.4-3.399c-9.866-4.934-21.399-12.2-34.6-21.8
		c-7.8-5.667-19.334-14.534-34.601-26.601c-13.933-10.866-28.3-14.1-43.1-9.7c-10.934,3.334-25.7,12.601-44.3,27.801
		c-10.867,8.866-22.8,15.666-35.8,20.399c-3.4,1.2-12.834,3.767-28.301,7.7c-6.466-1.267-11.5-1.866-15.1-1.8
		c-7.2,0.066-10.066-0.967-8.6-3.101c1.133-1.733,5.366-4.466,12.699-8.199c2.534-1.334,6.767-2.733,12.7-4.2
		c9.467-2.267,15.3-3.733,17.5-4.4c16.601-4.8,31.334-12.467,44.2-23c18.6-15.267,33.366-24.533,44.3-27.8
		c14.867-4.467,29.233-1.233,43.101,9.7c10.066,7.934,25.866,20.666,47.399,38.2C240.783,63.851,255.75,71.95,267.15,74.15z"/>
	
		<linearGradient id="SVGID_2_" gradientUnits="userSpaceOnUse" x1="2.7432" y1="-66.9102" x2="45.1946" y2="-66.9102" gradientTransform="matrix(0.0165 1.9999 -2.0001 -0.0069 -0.0496 -0.0499)">
		<stop  offset="0.0235" style="stop-color:#2B1736"/>
		<stop  offset="0.2431" style="stop-color:#2D1A38"/>
		<stop  offset="0.4078" style="stop-color:#33243C"/>
		<stop  offset="0.5529" style="stop-color:#3E3444"/>
		<stop  offset="0.6902" style="stop-color:#4D4B50"/>
		<stop  offset="0.8157" style="stop-color:#60685E"/>
		<stop  offset="0.8314" style="stop-color:#626B60"/>
		<stop  offset="1" style="stop-color:#9CBAB5"/>
	</linearGradient>
	<path style="fill-rule:evenodd;clip-rule:evenodd;fill:url(#SVGID_2_);" d="M175.55,28.25
		c15.267,12.066,26.801,20.934,34.601,26.601c13.2,9.6,24.733,16.866,34.6,21.8c-6.533-0.2-12.5-0.033-17.899,0.5
		c-7.667-4.867-16.5-11.066-26.5-18.601c-4.934-3.733-13.567-10.433-25.9-20.1c-13.934-10.934-28.3-14.167-43.1-9.7
		c-10.934,3.267-25.7,12.533-44.301,27.8c-12.733,10.4-27.233,18-43.5,22.801c-7-2.134-13.5-3.767-19.5-4.9
		c15.467-3.934,24.9-6.5,28.301-7.7c13-4.733,24.933-11.533,35.8-20.399c18.6-15.2,33.366-24.467,44.3-27.801
		C147.25,14.15,161.617,17.384,175.55,28.25z"/>
	
		<linearGradient id="SVGID_3_" gradientUnits="userSpaceOnUse" x1="10.894" y1="-66.9102" x2="53.3455" y2="-66.9102" gradientTransform="matrix(0.0165 1.9999 -2.0001 -0.0069 -0.0496 -0.0499)">
		<stop  offset="0.0235" style="stop-color:#2B1736"/>
		<stop  offset="0.2431" style="stop-color:#2D1A38"/>
		<stop  offset="0.4078" style="stop-color:#33243C"/>
		<stop  offset="0.5529" style="stop-color:#3E3444"/>
		<stop  offset="0.6902" style="stop-color:#4D4B50"/>
		<stop  offset="0.8157" style="stop-color:#60685E"/>
		<stop  offset="0.8314" style="stop-color:#626B60"/>
		<stop  offset="1" style="stop-color:#9CBAB5"/>
	</linearGradient>
	<path style="fill-rule:evenodd;clip-rule:evenodd;fill:url(#SVGID_3_);" d="M175.55,28.25
		c15.267,12.066,26.801,20.934,34.601,26.601c13.2,9.6,24.733,16.866,34.6,21.8c-6.533-0.2-12.5-0.033-17.899,0.5
		c-7.667-4.867-16.5-11.066-26.5-18.601c-4.934-3.733-13.567-10.433-25.9-20.1c-13.934-10.934-28.3-14.167-43.1-9.7
		c-10.934,3.267-25.7,12.533-44.301,27.8c-12.733,10.4-27.233,18-43.5,22.801c-7-2.134-13.5-3.767-19.5-4.9
		c15.467-3.934,24.9-6.5,28.301-7.7c13-4.733,24.933-11.533,35.8-20.399c18.6-15.2,33.366-24.467,44.3-27.801
		C147.25,14.15,161.617,17.384,175.55,28.25z"/>
	
		<linearGradient id="SVGID_4_" gradientUnits="userSpaceOnUse" x1="2.562" y1="-67.3101" x2="46.3884" y2="-67.3101" gradientTransform="matrix(0.016 1.9999 -2.0001 -0.0067 -0.0509 -0.0494)">
		<stop  offset="0.0235" style="stop-color:#2B1736"/>
		<stop  offset="0.2431" style="stop-color:#2D1A38"/>
		<stop  offset="0.4078" style="stop-color:#33243C"/>
		<stop  offset="0.5529" style="stop-color:#3E3444"/>
		<stop  offset="0.6902" style="stop-color:#4D4B50"/>
		<stop  offset="0.8157" style="stop-color:#60685E"/>
		<stop  offset="0.8314" style="stop-color:#626B60"/>
		<stop  offset="1" style="stop-color:#9CBAB5"/>
	</linearGradient>
	<path style="fill-rule:evenodd;clip-rule:evenodd;fill:url(#SVGID_4_);" d="M174.45,38.45c12.333,9.667,20.967,16.366,25.9,20.1
		c10,7.534,18.833,13.733,26.5,18.601c-7.733,0.666-14.067,2.066-19,4.2c-20.134,8.666-36.9,14.533-50.301,17.6
		c-24.533,5.666-45.5,5.133-62.899-1.6c-19.8-7.801-36.834-13.801-51.101-18c16.267-4.801,30.767-12.4,43.5-22.801
		c18.601-15.267,33.367-24.533,44.301-27.8C146.15,24.283,160.517,27.517,174.45,38.45z"/>
	
		<linearGradient id="SVGID_5_" gradientUnits="userSpaceOnUse" x1="10.9624" y1="-67.3101" x2="54.7888" y2="-67.3101" gradientTransform="matrix(0.016 1.9999 -2.0001 -0.0067 -0.0509 -0.0494)">
		<stop  offset="0.0235" style="stop-color:#2B1736"/>
		<stop  offset="0.2431" style="stop-color:#2D1A38"/>
		<stop  offset="0.4078" style="stop-color:#33243C"/>
		<stop  offset="0.5529" style="stop-color:#3E3444"/>
		<stop  offset="0.6902" style="stop-color:#4D4B50"/>
		<stop  offset="0.8157" style="stop-color:#60685E"/>
		<stop  offset="0.8314" style="stop-color:#626B60"/>
		<stop  offset="1" style="stop-color:#9CBAB5"/>
	</linearGradient>
	<path style="fill-rule:evenodd;clip-rule:evenodd;fill:url(#SVGID_5_);" d="M174.45,38.45c12.333,9.667,20.967,16.366,25.9,20.1
		c10,7.534,18.833,13.733,26.5,18.601c-7.733,0.666-14.067,2.066-19,4.2c-20.134,8.666-36.9,14.533-50.301,17.6
		c-24.533,5.666-45.5,5.133-62.899-1.6c-19.8-7.801-36.834-13.801-51.101-18c16.267-4.801,30.767-12.4,43.5-22.801
		c18.601-15.267,33.367-24.533,44.301-27.8C146.15,24.283,160.517,27.517,174.45,38.45z"/>
	
		<linearGradient id="SVGID_6_" gradientUnits="userSpaceOnUse" x1="15.4907" y1="-67.3145" x2="53.5366" y2="-67.3145" gradientTransform="matrix(0.0158 1.9999 -2.0001 -0.0066 -0.0492 -0.0499)">
		<stop  offset="0.0235" style="stop-color:#2B1736"/>
		<stop  offset="0.2431" style="stop-color:#2D1A38"/>
		<stop  offset="0.4078" style="stop-color:#33243C"/>
		<stop  offset="0.5529" style="stop-color:#3E3444"/>
		<stop  offset="0.6902" style="stop-color:#4D4B50"/>
		<stop  offset="0.8157" style="stop-color:#60685E"/>
		<stop  offset="0.8314" style="stop-color:#626B60"/>
		<stop  offset="1" style="stop-color:#9CBAB5"/>
	</linearGradient>
	<path style="fill-rule:evenodd;clip-rule:evenodd;fill:url(#SVGID_6_);" d="M174.45,38.45c12.333,9.667,20.967,16.366,25.9,20.1
		c10,7.534,18.833,13.733,26.5,18.601c-7.733,0.666-14.067,2.066-19,4.2c-20.134,8.666-36.9,14.533-50.301,17.6
		c-24.533,5.666-45.5,5.133-62.899-1.6c-19.8-7.801-36.834-13.801-51.101-18c16.267-4.801,30.767-12.4,43.5-22.801
		c18.601-15.267,33.367-24.533,44.301-27.8C146.15,24.283,160.517,27.517,174.45,38.45z"/>
</g>
</svg>
