<?xml version="1.0" encoding="iso-8859-1"?>
<!-- Generator: Adobe Illustrator 15.1.0, SVG Export Plug-In . SVG Version: 6.00 Build 0)  -->
<!DOCTYPE svg PUBLIC "-//W3C//DTD SVG 1.1//EN" "http://www.w3.org/Graphics/SVG/1.1/DTD/svg11.dtd">
<svg version="1.1" id="Layer_3" xmlns="http://www.w3.org/2000/svg" xmlns:xlink="http://www.w3.org/1999/xlink" x="0px" y="0px"
	 width="270.15px" height="82.45px" viewBox="0 0 270.15 82.45" style="enable-background:new 0 0 270.15 82.45;"
	 xml:space="preserve">
<linearGradient id="SVGID_1_" gradientUnits="userSpaceOnUse" x1="-37.6104" y1="63.5547" x2="-18.1271" y2="63.5547" gradientTransform="matrix(-0.2335 -1.9863 1.9947 -0.1619 3.160536e-005 -0.1004)">
	<stop  offset="0" style="stop-color:#DB9642"/>
	<stop  offset="1" style="stop-color:#ACBA44"/>
</linearGradient>
<path style="fill-rule:evenodd;clip-rule:evenodd;fill:url(#SVGID_1_);" d="M266.7,68.699c-4,3.135-12.934,5.734-26.8,7.801
	c-12.934,1.867-31.334,3.434-55.2,4.699C150.033,83.066,115.8,82.834,82,80.5c-18.934-1.334-33.267-2.834-43-4.5
	c-13.2-2.199-23.4-5.4-30.6-9.6c-5.733-3.268-8.534-6.6-8.4-10c0.066-3.201,2.866-6.066,8.4-8.6c9.733-2.734,18.233-5.234,25.5-7.5
	C47.9,35.966,60.267,29.867,71,22C86.533,10.667,98.9,3.8,108.1,1.4c12.601-3.267,25.067-0.833,37.4,7.3
	c14.333,9.533,25.233,16.367,32.7,20.5c12.333,6.934,24,12.101,35,15.5c12.467,3.867,27.8,7.934,46,12.201
	c5.533,1.666,8.967,3.332,10.3,5C270.967,63.834,270.033,66.1,266.7,68.699z"/>
</svg>
