<?xml version="1.0" encoding="iso-8859-1"?>
<!-- Generator: Adobe Illustrator 15.1.0, SVG Export Plug-In . SVG Version: 6.00 Build 0)  -->
<!DOCTYPE svg PUBLIC "-//W3C//DTD SVG 1.1//EN" "http://www.w3.org/Graphics/SVG/1.1/DTD/svg11.dtd">
<svg version="1.1" id="Layer_3" xmlns="http://www.w3.org/2000/svg" xmlns:xlink="http://www.w3.org/1999/xlink" x="0px" y="0px"
	 width="380.9px" height="69px" viewBox="0 0 380.9 69" style="enable-background:new 0 0 380.9 69;" xml:space="preserve">
<g>
	
		<linearGradient id="SVGID_1_" gradientUnits="userSpaceOnUse" x1="-3.7173" y1="-95.5264" x2="40.8617" y2="-95.5264" gradientTransform="matrix(-0.0269 1.9998 -2.0008 0.0445 0.1002 2.879389e-004)">
		<stop  offset="0" style="stop-color:#12BDCC"/>
		<stop  offset="1" style="stop-color:#2152A3"/>
	</linearGradient>
	<path style="fill-rule:evenodd;clip-rule:evenodd;fill:url(#SVGID_1_);" d="M380.9,56.1c-37,2.134-72.166,4.5-105.5,7.101
		c-30.133,2.399-57.301,3.967-81.5,4.7c-43.8,1.267-85.833,0.433-126.1-2.5C51.667,64.267,36.067,62.066,21,58.8
		C3.4,54.866-3.133,51.267,1.4,48C53.267,16.066,95.034,0.066,126.7,0c9.2-0.066,18.101,1.467,26.7,4.6
		c0.8,0.267,8.033,3.434,21.7,9.5c18.667,8.267,39.466,10.634,62.4,7.101c13.4-2.066,30.4,0.467,51,7.6
		c16,5.467,24.367,8.334,25.1,8.601c9.801,3,18.635,4.866,26.5,5.6c17.066,1.533,28.967,4.167,35.701,7.9
		C379.199,52.833,380.9,54.566,380.9,56.1z"/>
	
		<linearGradient id="SVGID_2_" gradientUnits="userSpaceOnUse" x1="-14.251" y1="-52.8818" x2="18.1991" y2="-52.8818" gradientTransform="matrix(-0.0786 1.9985 -1.9985 -0.0786 0.1001 -1.333952e-004)">
		<stop  offset="0" style="stop-color:#12BDCC"/>
		<stop  offset="1" style="stop-color:#2152A3"/>
	</linearGradient>
	<path style="fill-rule:evenodd;clip-rule:evenodd;fill:url(#SVGID_2_);" d="M159.6,29.5c13.733,10.333,26.267,22.866,37.599,37.6
		C179.534,68.7,159.4,69.3,136.8,68.9c-22.601-0.4-43.334-1.733-62.2-4c-14.467-1.134-24.8-2-31-2.601
		c-10.467-1.066-21.7-3.566-33.7-7.5c19-12.866,35.667-22.767,50-29.7c20.334-9.8,38-14.733,53-14.8
		C126.9,10.233,142.466,16.634,159.6,29.5z"/>
	
		<linearGradient id="SVGID_3_" gradientUnits="userSpaceOnUse" x1="-6.2451" y1="-52.874" x2="21.8045" y2="-52.874" gradientTransform="matrix(-0.0785 1.9985 -1.9985 -0.0785 0.0988 2.628937e-004)">
		<stop  offset="0" style="stop-color:#12BDCC"/>
		<stop  offset="1" style="stop-color:#2152A3"/>
	</linearGradient>
	<path style="fill-rule:evenodd;clip-rule:evenodd;fill:url(#SVGID_3_);" d="M154.1,35.8c11.667,7.733,22.833,18,33.5,30.8
		c-29.866,2.334-66.033,2.134-108.5-0.6c-15-0.934-25.667-1.833-32-2.7c-10.4-1.333-19.634-3.434-27.7-6.3
		c17.934-11.134,32.834-19.267,44.7-24.4C81.234,25.2,97.133,21.467,111.8,21.4C125.466,21.333,139.567,26.134,154.1,35.8z"/>
</g>
</svg>
