<?xml version="1.0" encoding="iso-8859-1"?>
<!-- Generator: Adobe Illustrator 15.1.0, SVG Export Plug-In . SVG Version: 6.00 Build 0)  -->
<!DOCTYPE svg PUBLIC "-//W3C//DTD SVG 1.1//EN" "http://www.w3.org/Graphics/SVG/1.1/DTD/svg11.dtd">
<svg version="1.1" id="Layer_3" xmlns="http://www.w3.org/2000/svg" xmlns:xlink="http://www.w3.org/1999/xlink" x="0px" y="0px"
	 width="166.9px" height="67.5px" viewBox="0 0 166.9 67.5" style="enable-background:new 0 0 166.9 67.5;" xml:space="preserve">
<symbol  id="flash0.ai_x2F_Layer_3_x2F__x3C_Clip_Group_0_x3E_" viewBox="0 -53.5 105.501 53.461">
	<g id="Layer_1_7_">
	</g>
	<g>
		<defs>
			<path id="SVGID_1_" d="M101.85-31.25c-1.6,1.767-3.9,3.917-6.9,6.45c-3.6,3.033-5.55,4.7-5.85,5
				c-4.633,4.433-11.217,8.283-19.75,11.55c-4,1.533-11.383,3.817-22.15,6.85c-3.767,1.1-6.483,1.533-8.15,1.3
				c-2.433-0.333-4.216-1.933-5.35-4.8c-0.733-1.9-1.7-5.7-2.9-11.4c-1-4.867-2.216-8.567-3.65-11.1
				c-1.933-3.3-4.517-5.917-7.75-7.85c-1.1-0.667-3.767-1.883-8-3.65c-0.066-0.033-2.316-0.717-6.75-2.05
				c-2.667-0.8-3.6-1.417-2.8-1.85c2.3-0.4,6.833-0.517,13.6-0.35c8.233,0.233,14.117,0.267,17.65,0.1c-4.4-1.3-6.733-2.35-7-3.15
				c-0.3-0.9,2.117-1.45,7.25-1.65c2-0.066,5.433-0.066,10.3,0c7.1,0.167,14.184,0.6,21.25,1.3c3.733,0.367,7.983,0.816,12.75,1.35
				c2.8,0.233,7.25,0.583,13.35,1.05c5.067,0.467,8.617,1.083,10.65,1.85C106.717-40.467,106.783-36.783,101.85-31.25z"/>
		</defs>
		<clipPath id="SVGID_2_">
			<use xlink:href="#SVGID_1_"  style="overflow:visible;"/>
		</clipPath>
		<g id="Layer_3_1_" style="clip-path:url(#SVGID_2_);">
			<g>
				
					<use xlink:href="#flash0.ai_x2F_Layer_3_x2F__x3C_Path_x3E_"  width="-32766" height="-32766" x="16383" y="16383" transform="matrix(1 0 0 1 31.1001 -17.7998)" style="overflow:visible;opacity:0.3086;enable-background:new    ;"/>
				
					<use xlink:href="#flash0.ai_x2F_Layer_3_x2F__x3C_Compound_Path_x3E_"  width="103.351" height="53.46" y="-53.5" transform="matrix(1 0 0 1 2.1499 0)" style="overflow:visible;opacity:0.3086;enable-background:new    ;"/>
			</g>
			
				<use xlink:href="#flash0.ai_x2F_Layer_3_x2F__x3C_Path_x3E__x5F_2"  width="33" height="32.024" y="-32.024" transform="matrix(1 0 0 1 0 -10.9502)" style="overflow:visible;enable-background:new    ;"/>
			
				<use xlink:href="#flash0.ai_x2F_Layer_3_x2F__x3C_Path_x3E__x5F_1"  width="-32766" height="-32766" x="16383" y="16383" transform="matrix(1 0 0 1 32.6001 -16.8999)" style="overflow:visible;enable-background:new    ;"/>
			
				<use xlink:href="#flash0.ai_x2F_Layer_3_x2F__x3C_Path_x3E__x5F_0"  width="26.163" height="24.554" y="-24.55" transform="matrix(1 0 0 1 25.4502 -22.3501)" style="overflow:visible;enable-background:new    ;"/>
		</g>
	</g>
	<g id="Layer_4_1_">
	</g>
</symbol>
<symbol  id="flash0.ai_x2F_Layer_3_x2F__x3C_Compound_Path_x3E_" viewBox="0 -53.5 103.351 53.46">
	<g id="Layer_1_3_">
		<path style="fill-rule:evenodd;clip-rule:evenodd;fill:#201312;" d="M73.85-36.05c-0.533,0.533-0.883,1.4-1.05,2.6
			c-0.098,0.555-0.164,1.479-0.2,2.775c-0.005-0.746-0.488-1.905-1.45-3.475l-2.1-3.4c-0.5-1.067-1.316-2.317-2.45-3.75
			c-1.7-2.2-2.617-3.4-2.75-3.6c0.367,0.1,1.117,0.2,2.25,0.3c0.967,0.067,1.683,0.217,2.15,0.45c0.3,0.133,0.75,0.467,1.35,1
			c0.533,0.467,0.967,0.767,1.3,0.9c-0.2-0.6,0.05-1.05,0.75-1.35c0.633-0.267,1.5-0.383,2.6-0.35c1.433,0.067,2.633,0.35,3.6,0.85
			c1.1,0.567,1.483,1.25,1.15,2.05c-0.1,0.233-0.35,0.566-0.75,1c-0.333,0.367-0.533,0.716-0.6,1.05
			c-0.133,0.633-0.083,1.383,0.15,2.25c-0.367-1-1.05-0.8-2.05,0.6c-0.5,0.7-0.817,1.35-0.95,1.95
			c-0.033,0.167-0.083,0.917-0.15,2.25c-0.3-0.466-0.5-1.133-0.6-2C74.017-34.417,73.95-35.117,73.85-36.05z M55.6-46.3
			c0.333,0.066,1.45,0.183,3.35,0.35c2.867,2.867,5,5.383,6.4,7.55c2.1,3.267,3.033,6.367,2.8,9.3
			c-0.533,0.033-1.017-0.316-1.45-1.05c-0.434-0.833-0.767-1.367-1-1.6c0.033,0.933,0.05,1.65,0.05,2.15c0,0.833-0.1,1.517-0.3,2.05
			c-0.133-0.267-0.2-0.717-0.2-1.35c-0.033-0.667-0.1-1.133-0.2-1.4c-1.212,1.998-2.245,4.273-3.1,6.825
			c0.426-1.403,0.526-2.928,0.3-4.575c-0.167-1.2-0.567-2.717-1.2-4.55c-0.667-1.933-1.767-4.1-3.3-6.5
			c-0.633-0.967-2.033-2.95-4.2-5.95l-0.6-0.9c0.5,0.167,1.033,0.25,1.6,0.25c0.733,0.034,1.284,0.083,1.65,0.15
			C55.933-45.85,55.733-46.1,55.6-46.3z M86.95-19.8c0.3-0.3,2.25-1.967,5.85-5c3-2.534,5.3-4.684,6.9-6.45
			c4.933-5.533,4.867-9.217-0.2-11.05c-2.433-0.9-5.383-1.617-8.85-2.15c-0.633-0.1-3.65-0.466-9.05-1.1
			c-2.3-0.3-5.083-0.867-8.35-1.7c-2.633-0.633-6.6-1.117-11.9-1.45l-0.6-0.45c-0.533-0.267-1.35-0.4-2.45-0.4
			c-1.167,0.066-1.983,0.117-2.45,0.15l0.2,0.3l-5-0.35c-0.8-1.5-1.583-2.583-2.35-3.25c-0.5-0.4-1.15-0.6-1.95-0.6
			c-1.067,0-1.783-0.067-2.15-0.2c0.4,0.767,1.2,2.033,2.4,3.8c-4.033-0.267-8.083-0.417-12.15-0.45
			c-3.867-0.067-6.233-0.05-7.1,0.05c-3.033,0.233-5.233,0.95-6.6,2.15C22.517-46.417,24.8-46,28-46.7c1.7-0.367,4.05-0.3,7.05,0.2
			c2.1,0.433,4.483,0.383,7.15-0.15c0.966-0.2,2.117-0.283,3.45-0.25c0.434,0,1.6,0.066,3.5,0.2c4.2,5.833,6.617,9.367,7.25,10.6
			c2.167,4.167,2.85,8.3,2.05,12.4c-0.733-0.7-1.184-1.633-1.35-2.8c-0.067-0.667-0.184-1.717-0.35-3.15
			c-0.267-1.067-0.917-2.367-1.95-3.9c-1.233-1.667-2.117-2.85-2.65-3.55c-0.767-1.1-1.933-2.233-3.5-3.4
			c-1.433-1.067-2.867-1.917-4.3-2.55c0.333,0.7,1.033,1.417,2.1,2.15c0.566,0.4,1.4,0.967,2.5,1.7c1.233,0.967,2.35,2.3,3.35,4
			c1.034,1.667,1.7,3.267,2,4.8c0.1,0.533,0.25,1.833,0.45,3.9c0.133,1.6,0.367,2.883,0.7,3.85c-0.934-0.633-1.7-1.617-2.3-2.95
			c0.2,1.833,0.283,3.217,0.25,4.15c-0.066-0.1-0.733-0.6-2-1.5c-0.987-0.678-1.503-1.187-1.55-1.525
			c0.032,1.328,0.015,2.287-0.05,2.875c-1.033-0.633-1.883-1.783-2.55-3.45c-0.067-0.133-0.517-1.55-1.35-4.25
			c-1.566-5.2-4.816-9.3-9.75-12.3c-1.2-0.7-2.533-1.15-4-1.35c-0.233-0.033-1.633-0.117-4.2-0.25c-0.534,0-1.467-0.117-2.8-0.35
			c-1.167-0.167-2.1-0.233-2.8-0.2c-0.5,0.033-1.15,0.133-1.95,0.3c-0.967,0.267-1.617,0.417-1.95,0.45
			c-0.467,0.067-1.017,0.05-1.65-0.05c-1-0.167-1.533-0.25-1.6-0.25c-2.8-0.3-6.1-0.367-9.9-0.2c-1.233-0.033-2.167,0-2.8,0.1
			c-1.1,0.1-1.933,0.433-2.5,1c0.767,0.2,1.867,0.2,3.3,0c1.7-0.233,2.8-0.333,3.3-0.3c1.2,0.067,2.833,0.367,4.9,0.9
			c2.3,0.566,3.933,0.917,4.9,1.05c0.633,0.067,1.067-0.017,1.3-0.25c0.4-0.4,0.7-0.633,0.9-0.7c0.5-0.2,1.583-0.3,3.25-0.3
			c0.933-0.033,2.083,0.167,3.45,0.6c1.3,0.433,2.35,0.933,3.15,1.5c0.566,0.4,1.433,1.316,2.6,2.75c1.034,1.3,1.934,2.117,2.7,2.45
			c0.267-0.8,0.017-1.7-0.75-2.7c-0.4-0.567-1-1.367-1.8-2.4c1.633-0.3,3.383,0.55,5.25,2.55c0.4,0.433,1.667,2.083,3.8,4.95
			c2.467,3.3,3.9,7.55,4.3,12.75c-1.5-1-2.566-2.05-3.2-3.15c-0.7-1.2-1.067-2.7-1.1-4.5c-1.567,3.8-2.533,6.467-2.9,8
			c0-1.9,0.05-3.066,0.15-3.5c-1.733,3.3-2.65,6.45-2.75,9.45c-0.6-0.3-1.283-1.167-2.05-2.6c0.233,1.167,0.316,2.533,0.25,4.1
			c-1.667-1.133-3-3.15-4-6.05c0,1.8,0.017,2.883,0.05,3.25c0.367,3.033,0.8,5.383,1.3,7.05c0.8,2.767,1.983,4.783,3.55,6.05
			c1.367,1.133,3.183,1.583,5.45,1.35c1.1-0.1,3.017-0.533,5.75-1.3C55.817-4.433,63.2-6.717,67.2-8.25
			C75.733-11.517,82.317-15.367,86.95-19.8z"/>
	</g>
</symbol>
<symbol  id="flash0.ai_x2F_Layer_3_x2F__x3C_Path_x3E_">
	<g id="Layer_1_2_">
	</g>
</symbol>
<symbol  id="flash0.ai_x2F_Layer_3_x2F__x3C_Path_x3E__x5F_0" viewBox="0 -24.55 26.163 24.554">
	<g id="Layer_1_6_">
		<path style="fill-rule:evenodd;clip-rule:evenodd;fill:#201312;" d="M25.85-5.15c-0.867-2.767-1.95-5.2-3.25-7.3
			c-0.9-1.566-2-2.966-3.3-4.2l-1.9-1.9c-0.9-0.8-1.65-1.15-2.25-1.05c0.833,0.6,1.434,1.067,1.8,1.4c0.667,0.567,1.1,1.167,1.3,1.8
			c-1.267-1.067-2.367-1.9-3.3-2.5c-1.4-0.9-4.1-1.817-8.1-2.75c-3.533-0.867-5.817-1.833-6.85-2.9
			c0.333,1.033,1.283,1.867,2.85,2.5c0.867,0.367,2.15,0.733,3.85,1.1c0.9,0.2,2.066,0.434,3.5,0.7c1.233,0.3,2.333,0.717,3.3,1.25
			c1.467,0.8,3.35,2.45,5.65,4.95c1.7,1.833,2.934,4.216,3.7,7.15c0.9,3.566,1.917,5.816,3.05,6.75c0.567,0.6,0.217-0.55-1.05-3.45
			c-0.4-1.4-0.717-2.5-0.95-3.3c-0.433-1.4-0.833-2.45-1.2-3.15c0.3,0.367,0.8,1.183,1.5,2.45C24.867-6.433,25.417-5.617,25.85-5.15
			z"/>
	</g>
</symbol>
<symbol  id="flash0.ai_x2F_Layer_3_x2F__x3C_Path_x3E__x5F_1">
	<g id="Layer_1_5_">
	</g>
</symbol>
<symbol  id="flash0.ai_x2F_Layer_3_x2F__x3C_Path_x3E__x5F_2" viewBox="0 -32.024 33 32.024">
	<g id="Layer_1_4_">
		<path style="fill-rule:evenodd;clip-rule:evenodd;fill:#201312;" d="M30.95-9.5c0.267,0.267,0.617,0.7,1.05,1.3
			c0.4,0.567,0.733,0.983,1,1.25c-0.067-1.1-0.35-2.5-0.85-4.2c-0.3-0.934-0.75-2.267-1.35-4c-0.633-1.833-1.15-3.15-1.55-3.95
			c-0.733-1.467-1.583-2.517-2.55-3.15l0.25,0.5c0.033,0-0.067,0.133-0.3,0.4c-0.333-0.267-1.15-0.967-2.45-2.1
			c-0.967-0.867-1.85-1.5-2.65-1.9c-3.267-1.566-6.966-2.883-11.1-3.95c-0.467-0.133-1.434-0.317-2.9-0.55
			c-1.233-0.167-2.2-0.383-2.9-0.65c-0.033,0-0.783-0.367-2.25-1.1C1.567-32,0.767-32.117,0-31.95c1.067,1.1,3.167,2.05,6.3,2.85
			c4.3,1.067,8.434,2.733,12.4,5c1.833,1.067,3.583,2.8,5.25,5.2c1.433,2.033,2.6,4.217,3.5,6.55c0.333,0.867,1.167,3.117,2.5,6.75
			C31.283-1.867,31.933,0,31.9,0c0.5-0.167,0.5-1.65,0-4.45C31.633-5.917,31.317-7.6,30.95-9.5z"/>
	</g>
</symbol>
<g>
	
		<linearGradient id="SVGID_3_" gradientUnits="userSpaceOnUse" x1="-2.2603" y1="-68.7593" x2="44.6385" y2="-68.7593" gradientTransform="matrix(-0.3358 0.9419 -0.9419 -0.3358 -4.072487e-004 1.094937e-004)">
		<stop  offset="0" style="stop-color:#171517"/>
		<stop  offset="0.1686" style="stop-color:#1D181D"/>
		<stop  offset="0.4" style="stop-color:#2D212F"/>
		<stop  offset="0.5686" style="stop-color:#3D2940"/>
		<stop  offset="1" style="stop-color:#3A4063"/>
	</linearGradient>
	<path style="fill-rule:evenodd;clip-rule:evenodd;fill:url(#SVGID_3_);" d="M89.1,33.8c0.301,0.3,2.25,1.967,5.851,5
		c3,2.533,5.3,4.684,6.899,6.45c4.934,5.533,4.867,9.217-0.199,11.05c-2.034,0.767-5.584,1.384-10.65,1.851
		c-6.1,0.466-10.55,0.816-13.35,1.05c-4.767,0.533-9.017,0.983-12.75,1.35c-7.066,0.7-14.15,1.134-21.25,1.3
		c-4.867,0.067-8.3,0.067-10.3,0C28.217,61.65,25.8,61.1,26.1,60.2c0.267-0.8,2.6-1.851,7-3.15
		c-3.533-0.166-9.417-0.133-17.65,0.101C8.683,57.316,4.15,57.2,1.85,56.8c-0.8-0.434,0.133-1.05,2.8-1.85
		c4.434-1.334,6.684-2.017,6.75-2.05c4.233-1.767,6.9-2.983,8-3.65c3.233-1.934,5.817-4.55,7.75-7.85
		c1.434-2.534,2.65-6.233,3.65-11.101c1.2-5.7,2.167-9.5,2.9-11.4c1.133-2.867,2.917-4.467,5.35-4.8c1.667-0.233,4.383,0.2,8.15,1.3
		c10.767,3.033,18.15,5.317,22.15,6.85C77.883,25.517,84.467,29.367,89.1,33.8z"/>
	
		<use xlink:href="#flash0.ai_x2F_Layer_3_x2F__x3C_Clip_Group_0_x3E_"  width="105.501" height="53.461" y="-53.5" transform="matrix(1 0 0 -1 0 14)" style="overflow:visible;"/>
	
		<linearGradient id="SVGID_4_" gradientUnits="userSpaceOnUse" x1="-83.7407" y1="79.2598" x2="-1.3461" y2="79.2598" gradientTransform="matrix(-0.3019 -0.9533 0.9533 -0.3019 -5.045533e-005 9.263158e-004)">
		<stop  offset="0.1373" style="stop-color:#3E9A9D"/>
		<stop  offset="1" style="stop-color:#61BDB3"/>
	</linearGradient>
	<path style="fill-rule:evenodd;clip-rule:evenodd;fill:url(#SVGID_4_);" d="M165.55,50.85c2.5,1.034,1.467,1.551-3.1,1.551
		c-1.233,0-2.75,0.066-4.55,0.199c-2.4,0.167-3.4,0.384-3,0.65c1.699,2.134,1.066,3.483-1.9,4.05c-1.033,0.2-3.634,0.3-7.8,0.3
		l-4-0.05c-12.4-0.066-19.816-0.1-22.25-0.1c-5.434,0.066-14.7,0.616-27.8,1.649c-4.567,0.367-7.784,0.601-9.65,0.7
		c-5.033,0.3-8.883,0.367-11.55,0.2c1.7-0.4,3.65-0.684,5.85-0.85c3.4-0.267,5.133-0.4,5.2-0.4c5.333-0.6,8.667-1.083,10-1.45
		c4.333-1.2,6-2.467,5-3.8c-0.667,0.4-1.033,0.616-1.1,0.65c-0.167-0.667-0.4-1.233-0.7-1.7l-0.45,0.75l-0.45-1.55
		c-0.333,0.366-0.566,1-0.7,1.899c-0.366-0.666-1.267-2.033-2.699-4.1c-0.134,0.633-0.051,1.267,0.25,1.899
		c-0.834-0.699-1.934-2.216-3.301-4.55c-0.6,0.134-0.966,0.55-1.1,1.25c-0.087,0.496-0.063,1.004,0.075,1.525
		c-0.396-1.32-0.704-2.313-0.925-2.976c-0.4-1.3-0.851-2.333-1.351-3.1c0.134,0.5,0.233,1.3,0.3,2.4
		c-1.2-1.301-2.066-2.284-2.6-2.95c-1-1.2-1.633-2.267-1.9-3.2c-0.033,0.8,0.083,1.684,0.35,2.65c0.066,0.3,0.35,1.149,0.85,2.55
		c-1.966-1.3-3.75-3.351-5.35-6.15c0.033,0.467,0.05,1.2,0.05,2.2c-0.8-1.7-1.4-2.967-1.8-3.8c0.066,1.033-0.083,2.2-0.45,3.5
		s-0.817,2.333-1.35,3.1c0.367-1.3,0.184-2.983-0.55-5.05c-0.967-2.3-1.633-3.934-2-4.9c0,1.133-0.15,2.567-0.45,4.3
		c-1.7-3.7-3.05-6.434-4.05-8.2c0.233,2.8,0.3,5.083,0.2,6.85c-0.9-0.833-1.966-2.25-3.2-4.25c-1.5-2.433-2.467-3.933-2.9-4.5
		c-0.233,0.867-0.417,2.083-0.55,3.65c-0.133,1.933-0.25,3.184-0.35,3.75c-0.167-0.634-0.833-1.95-2-3.95
		c-0.9-1.6-1.333-2.95-1.3-4.05c-1.367,1.3-2.117,2.667-2.25,4.1c-0.333-0.833-0.483-1.683-0.45-2.55c0.067-1,0.367-1.867,0.9-2.6
		c-3.534,1.533-5.733,2.633-6.6,3.3c-2.133,1.566-3.184,3.667-3.15,6.3c-0.367-1.267-0.567-2.6-0.6-4
		c-0.067-1.7,0.15-3.017,0.65-3.95c-0.867,1.4-1.367,2.65-1.5,3.75c-0.733-2.2-0.933-3.95-0.6-5.25c0.2-0.933,0.833-1.833,1.9-2.7
		l1.95-1.75c-0.367-0.267-0.867-0.434-1.5-0.5c-0.71-0.097-1.127,0.086-1.25,0.55l0.15-0.7c-1.5,0.633-2.633,2.117-3.4,4.45
		c0.1-2.033,0.15-3.083,0.15-3.15c0.167-1.267,0.467-2.267,0.9-3c-0.8,0.333-1.466,0.783-2,1.35c0.667-1,1.05-1.55,1.15-1.65
		c-3.5,0.867-5.367,1.767-5.6,2.7c0.167-0.733,0.55-1.517,1.15-2.35c-1.033,0.7-1.767,1.25-2.2,1.65
		c-0.833,0.733-1.367,1.483-1.6,2.25c0.233-2.1,0.733-3.667,1.5-4.7c-2.067,1.433-3.517,2.95-4.35,4.55
		c-0.8,1.5-1.283,3.55-1.45,6.15c-0.733-2.367-1.283-4.167-1.65-5.4c-0.633-2.233-0.55-4.083,0.25-5.55
		c-1.133,1.333-1.817,2.633-2.05,3.9c0.066-1.633,0.25-2.967,0.55-4c0.367-1.133,1-2.3,1.9-3.5c-1.433,0.9-2.45,1.667-3.05,2.3
		c1.6-4.5,4.3-8.167,8.1-11c3.867-2.9,8.8-4.867,14.8-5.9c6.267-1.1,12.65-0.566,19.15,1.6c4.667,1.567,10.033,4.267,16.1,8.1
		c6.566,4.2,13.15,8.05,19.75,11.55c3.533,1.867,11.316,5.8,23.35,11.8c11.467,5.766,20.767,9.917,27.9,12.45
		C155.566,47.517,160.25,49.116,165.55,50.85z"/>
</g>
</svg>
