<?xml version="1.0" encoding="iso-8859-1"?>
<!-- Generator: Adobe Illustrator 15.1.0, SVG Export Plug-In . SVG Version: 6.00 Build 0)  -->
<!DOCTYPE svg PUBLIC "-//W3C//DTD SVG 1.1//EN" "http://www.w3.org/Graphics/SVG/1.1/DTD/svg11.dtd">
<svg version="1.1" id="Layer_3" xmlns="http://www.w3.org/2000/svg" xmlns:xlink="http://www.w3.org/1999/xlink" x="0px" y="0px"
	 width="276.75px" height="97.75px" viewBox="0 0 276.75 97.75" style="enable-background:new 0 0 276.75 97.75;"
	 xml:space="preserve">
<g>
	
		<linearGradient id="SVGID_1_" gradientUnits="userSpaceOnUse" x1="-12.3057" y1="-68.9033" x2="63.9725" y2="-68.9033" gradientTransform="matrix(0.0184 1.9999 -2.0001 -0.0049 -0.0486 -0.0505)">
		<stop  offset="0.0235" style="stop-color:#2B1736"/>
		<stop  offset="0.2431" style="stop-color:#2D1A38"/>
		<stop  offset="0.4078" style="stop-color:#33243C"/>
		<stop  offset="0.5529" style="stop-color:#3E3444"/>
		<stop  offset="0.6902" style="stop-color:#4D4B50"/>
		<stop  offset="0.8157" style="stop-color:#60685E"/>
		<stop  offset="0.8314" style="stop-color:#626B60"/>
		<stop  offset="1" style="stop-color:#9CBAB5"/>
	</linearGradient>
	<path style="fill-rule:evenodd;clip-rule:evenodd;fill:url(#SVGID_1_);" d="M252.75,57.55c10.867,1.601,18.101,4.301,21.7,8.101
		c1.867,1.934,2.6,3.666,2.199,5.2c0,0.866-0.332,1.966-0.999,3.3c-1.467,2.6-4,5.1-7.601,7.5c-3.466-4-10.533-6.834-21.199-8.5
		c-10.334-1.601-24.101-7.867-41.301-18.8c-19.933-13.733-34.6-23.733-44-30c-12.866-8.534-25.866-10.934-39-7.2
		c-9.733,2.8-22.633,10.399-38.699,22.8c-11.2,8.6-24.167,14.967-38.9,19.1c-2.134,0.601-7.3,1.834-15.5,3.7
		c-5.2,1.267-8.934,2.434-11.2,3.5c-5.399,2.601-9.267,5.2-11.6,7.8l-0.9-0.6c-10-7.467-6.934-15,9.2-22.6
		c2.333-1.067,6.233-2.233,11.7-3.5c8.533-1.867,13.899-3.101,16.1-3.7c15.334-4.134,28.8-10.5,40.4-19.101
		c16.8-12.466,30.233-20.066,40.3-22.8c13.667-3.8,27.2-1.434,40.6,7.101c9.733,6.199,25,16.166,45.801,29.899
		C227.717,49.684,242.017,55.95,252.75,57.55z"/>
	
		<linearGradient id="SVGID_2_" gradientUnits="userSpaceOnUse" x1="-9.4854" y1="-68.3379" x2="50.1672" y2="-68.3379" gradientTransform="matrix(0.0184 1.9999 -2.0001 -0.0047 -0.0493 -0.0503)">
		<stop  offset="0.0235" style="stop-color:#2B1736"/>
		<stop  offset="0.2431" style="stop-color:#2D1A38"/>
		<stop  offset="0.4078" style="stop-color:#33243C"/>
		<stop  offset="0.5529" style="stop-color:#3E3444"/>
		<stop  offset="0.6902" style="stop-color:#4D4B50"/>
		<stop  offset="0.8157" style="stop-color:#60685E"/>
		<stop  offset="0.8314" style="stop-color:#626B60"/>
		<stop  offset="1" style="stop-color:#9CBAB5"/>
	</linearGradient>
	<path style="fill-rule:evenodd;clip-rule:evenodd;fill:url(#SVGID_2_);" d="M246.851,73.15c10.666,1.666,17.733,4.5,21.199,8.5
		c-4.933,3.133-11.267,5.8-19,8l-2.5-0.5c-10.333-1.601-24.1-7.867-41.3-18.8c-19.934-13.733-34.6-23.733-44-30
		c-12.866-8.534-25.866-10.9-39-7.101c-9.666,2.733-22.566,10.334-38.7,22.8c-10.733,8.267-23.033,14.434-36.899,18.5
		c-7.334,2.134-16.2,4.4-26.601,6.801c-4.933-2.067-9.399-4.5-13.399-7.301c2.333-2.6,6.2-5.199,11.6-7.8
		c2.267-1.066,6-2.233,11.2-3.5c8.2-1.866,13.366-3.1,15.5-3.7c14.733-4.133,27.7-10.5,38.9-19.1c16.066-12.4,28.966-20,38.699-22.8
		c13.134-3.733,26.134-1.334,39,7.2c9.4,6.267,24.067,16.267,44,30C222.75,65.283,236.517,71.55,246.851,73.15z"/>
	
		<linearGradient id="SVGID_3_" gradientUnits="userSpaceOnUse" x1="-5.7437" y1="-68.3193" x2="53.5341" y2="-68.3193" gradientTransform="matrix(0.0194 1.9999 -2.0002 -0.006 -0.0501 -0.05)">
		<stop  offset="0.0235" style="stop-color:#2B1736"/>
		<stop  offset="0.2431" style="stop-color:#2E1A38"/>
		<stop  offset="0.4078" style="stop-color:#37243F"/>
		<stop  offset="0.5529" style="stop-color:#47344B"/>
		<stop  offset="0.6902" style="stop-color:#5D4B5B"/>
		<stop  offset="0.8157" style="stop-color:#7A6871"/>
		<stop  offset="0.8314" style="stop-color:#7D6B73"/>
		<stop  offset="1" style="stop-color:#9CBAB5"/>
	</linearGradient>
	<path style="fill-rule:evenodd;clip-rule:evenodd;fill:url(#SVGID_3_);" d="M246.851,73.15c10.666,1.666,17.733,4.5,21.199,8.5
		c-4.933,3.133-11.267,5.8-19,8l-2.5-0.5c-10.333-1.601-24.1-7.867-41.3-18.8c-19.934-13.733-34.6-23.733-44-30
		c-12.866-8.534-25.866-10.9-39-7.101c-9.666,2.733-22.566,10.334-38.7,22.8c-10.733,8.267-23.033,14.434-36.899,18.5
		c-7.334,2.134-16.2,4.4-26.601,6.801c-4.933-2.067-9.399-4.5-13.399-7.301c2.333-2.6,6.2-5.199,11.6-7.8
		c2.267-1.066,6-2.233,11.2-3.5c8.2-1.866,13.366-3.1,15.5-3.7c14.733-4.133,27.7-10.5,38.9-19.1c16.066-12.4,28.966-20,38.699-22.8
		c13.134-3.733,26.134-1.334,39,7.2c9.4,6.267,24.067,16.267,44,30C222.75,65.283,236.517,71.55,246.851,73.15z"/>
	
		<linearGradient id="SVGID_4_" gradientUnits="userSpaceOnUse" x1="-9.5313" y1="-66.9053" x2="50.3213" y2="-66.9053" gradientTransform="matrix(0.0184 1.9999 -2.0001 -0.0047 -0.0514 -0.0498)">
		<stop  offset="0.0235" style="stop-color:#2B1736"/>
		<stop  offset="0.2431" style="stop-color:#2D1A38"/>
		<stop  offset="0.4078" style="stop-color:#33243C"/>
		<stop  offset="0.5529" style="stop-color:#3E3444"/>
		<stop  offset="0.6902" style="stop-color:#4D4B50"/>
		<stop  offset="0.8157" style="stop-color:#60685E"/>
		<stop  offset="0.8314" style="stop-color:#626B60"/>
		<stop  offset="1" style="stop-color:#9CBAB5"/>
	</linearGradient>
	<path style="fill-rule:evenodd;clip-rule:evenodd;fill:url(#SVGID_4_);" d="M246.55,89.15l2.5,0.5
		c-11.933,3.267-26.533,5.467-43.8,6.6c-14.866,1-28.066,1.5-39.6,1.5c-18.934,0.066-43.367-0.866-73.3-2.8
		c-31.601-2-55.7-6.533-72.301-13.6c10.4-2.4,19.267-4.667,26.601-6.801c13.866-4.066,26.166-10.233,36.899-18.5
		c16.134-12.466,29.034-20.066,38.7-22.8c13.134-3.8,26.134-1.434,39,7.101c9.4,6.267,24.066,16.267,44,30
		C222.45,81.283,236.217,87.55,246.55,89.15z"/>
	
		<linearGradient id="SVGID_5_" gradientUnits="userSpaceOnUse" x1="-0.6704" y1="-66.8696" x2="56.8575" y2="-66.8696" gradientTransform="matrix(0.02 1.9999 -2.0002 -0.0062 -0.0507 -0.0501)">
		<stop  offset="0.0235" style="stop-color:#2B1736"/>
		<stop  offset="0.2431" style="stop-color:#2D1A38"/>
		<stop  offset="0.4078" style="stop-color:#33243C"/>
		<stop  offset="0.5529" style="stop-color:#3E3444"/>
		<stop  offset="0.6902" style="stop-color:#4D4B50"/>
		<stop  offset="0.8157" style="stop-color:#60685E"/>
		<stop  offset="0.8314" style="stop-color:#626B60"/>
		<stop  offset="1" style="stop-color:#9CBAB5"/>
	</linearGradient>
	<path style="fill-rule:evenodd;clip-rule:evenodd;fill:url(#SVGID_5_);" d="M246.55,89.15l2.5,0.5
		c-11.933,3.267-26.533,5.467-43.8,6.6c-14.866,1-28.066,1.5-39.6,1.5c-18.934,0.066-43.367-0.866-73.3-2.8
		c-31.601-2-55.7-6.533-72.301-13.6c10.4-2.4,19.267-4.667,26.601-6.801c13.866-4.066,26.166-10.233,36.899-18.5
		c16.134-12.466,29.034-20.066,38.7-22.8c13.134-3.8,26.134-1.434,39,7.101c9.4,6.267,24.066,16.267,44,30
		C222.45,81.283,236.217,87.55,246.55,89.15z"/>
	
		<linearGradient id="SVGID_6_" gradientUnits="userSpaceOnUse" x1="3.6753" y1="-66.8799" x2="60.003" y2="-66.8799" gradientTransform="matrix(0.0195 1.9999 -2.0002 -0.0063 -0.0509 -0.0501)">
		<stop  offset="0.0235" style="stop-color:#361747"/>
		<stop  offset="0.2314" style="stop-color:#381A48"/>
		<stop  offset="0.3843" style="stop-color:#40244B"/>
		<stop  offset="0.5216" style="stop-color:#4D3450"/>
		<stop  offset="0.651" style="stop-color:#5E4B56"/>
		<stop  offset="0.7686" style="stop-color:#75685F"/>
		<stop  offset="0.7804" style="stop-color:#786B60"/>
		<stop  offset="1" style="stop-color:#9CBAB5"/>
	</linearGradient>
	<path style="fill-rule:evenodd;clip-rule:evenodd;fill:url(#SVGID_6_);" d="M246.55,89.15l2.5,0.5
		c-11.933,3.267-26.533,5.467-43.8,6.6c-14.866,1-28.066,1.5-39.6,1.5c-18.934,0.066-43.367-0.866-73.3-2.8
		c-31.601-2-55.7-6.533-72.301-13.6c10.4-2.4,19.267-4.667,26.601-6.801c13.866-4.066,26.166-10.233,36.899-18.5
		c16.134-12.466,29.034-20.066,38.7-22.8c13.134-3.8,26.134-1.434,39,7.101c9.4,6.267,24.066,16.267,44,30
		C222.45,81.283,236.217,87.55,246.55,89.15z"/>
</g>
</svg>
