<?xml version="1.0" encoding="iso-8859-1"?>
<!-- Generator: Adobe Illustrator 15.1.0, SVG Export Plug-In . SVG Version: 6.00 Build 0)  -->
<!DOCTYPE svg PUBLIC "-//W3C//DTD SVG 1.1//EN" "http://www.w3.org/Graphics/SVG/1.1/DTD/svg11.dtd">
<svg version="1.1" id="Layer_3" xmlns="http://www.w3.org/2000/svg" xmlns:xlink="http://www.w3.org/1999/xlink" x="0px" y="0px"
	 width="496.95px" height="140.95px" viewBox="0 0 496.95 140.95" style="enable-background:new 0 0 496.95 140.95;"
	 xml:space="preserve">
<linearGradient id="SVGID_1_" gradientUnits="userSpaceOnUse" x1="24.6035" y1="-124.6133" x2="348.5845" y2="-124.6133" gradientTransform="matrix(-0.0122 2 -2 -0.0122 7.586703e-004 0.0499)">
	<stop  offset="0" style="stop-color:#52C482"/>
	<stop  offset="0.2078" style="stop-color:#4BABA7"/>
	<stop  offset="0.5922" style="stop-color:#217387"/>
	<stop  offset="1" style="stop-color:#00140C"/>
</linearGradient>
<path style="fill-rule:evenodd;clip-rule:evenodd;fill:url(#SVGID_1_);" d="M496.9,124.95c-0.533,5.333-6.067,9.233-16.601,11.699
	c-5.533,1.267-13.133,2.167-22.8,2.7c-21.733,1.2-50.267,1.733-85.6,1.601c-40.267-0.4-70.067-0.601-89.4-0.601
	c-14.733,0-35.733-0.166-63-0.5c-29-0.333-50-0.5-63-0.5c-16.667-0.066-27.934-0.166-33.8-0.3c-12.2-0.267-25.601-0.833-40.2-1.7
	c-9-0.533-16.866-1.166-23.6-1.899c-8.534-0.867-19.334-2.233-32.4-4.101c-6.066-0.399-10.6-0.967-13.6-1.7
	c-5.2-1.399-9.233-4.466-12.101-9.199c-1.6-2.601-0.733-5.067,2.601-7.4c2.399-1.8,7.566-4.333,15.5-7.6
	C43.366,95.383,62.167,86.217,75.3,77.95c13.267-8.4,22.267-13.967,27-16.7c10.4-5.867,20-10.3,28.8-13.3
	c6.934-2.334,18.167-2.101,33.7,0.699c14.4,2.534,25.2,1.9,32.4-1.899c5.866-3.066,12.6-7.7,20.2-13.9
	c4.267-3.399,10.633-8.6,19.1-15.6c15.533-11.934,30.467-17.667,44.8-17.2c16.601,0.467,34.767,8.634,54.5,24.5
	c2.667,2.134,10.634,9,23.9,20.6c9.533,8.267,17.399,14.434,23.6,18.5c18.733,12.2,42.667,23.601,71.8,34.2
	c13.467,4.867,22,8.101,25.601,9.7c7.399,3.333,12.3,6.667,14.7,10C496.666,119.283,497.166,121.75,496.9,124.95z"/>
</svg>
