<?xml version="1.0" encoding="iso-8859-1"?>
<!-- Generator: Adobe Illustrator 15.1.0, SVG Export Plug-In . SVG Version: 6.00 Build 0)  -->
<!DOCTYPE svg PUBLIC "-//W3C//DTD SVG 1.1//EN" "http://www.w3.org/Graphics/SVG/1.1/DTD/svg11.dtd">
<svg version="1.1" id="Layer_3" xmlns="http://www.w3.org/2000/svg" xmlns:xlink="http://www.w3.org/1999/xlink" x="0px" y="0px"
	 width="370.55px" height="84.1px" viewBox="0 0 370.55 84.1" style="enable-background:new 0 0 370.55 84.1;" xml:space="preserve"
	>
<linearGradient id="SVGID_1_" gradientUnits="userSpaceOnUse" x1="-32.2466" y1="91.0283" x2="-3.2078" y2="91.0283" gradientTransform="matrix(-0.1033 -1.9973 1.9973 -0.1033 0.0499 -0.0512)">
	<stop  offset="0" style="stop-color:#52C482"/>
	<stop  offset="1" style="stop-color:#ACBA44"/>
</linearGradient>
<path style="fill-rule:evenodd;clip-rule:evenodd;fill:url(#SVGID_1_);" d="M353.75,70.55c-18.733,4.467-46.867,8.101-84.4,10.9
	c-56.399,4.4-109.267,3.3-158.6-3.3c-22.934-3.066-43.066-6.767-60.4-11.101c-13.399-3.399-28.133-7.966-44.2-13.699
	c-7.8-2.801-8.166-6.134-1.1-10c5.134-2.867,13-5.534,23.6-8c5.267-1.2,17.067-2.967,35.4-5.301c19.267-3.066,36.6-7.666,52-13.8
	c22.066-8.8,39.667-14,52.8-15.6c17.733-2.066,35.066,0.733,52,8.399c26.4,11.934,45.601,20.233,57.601,24.9
	c21.866,8.533,39.966,13.833,54.3,15.9c13.934,2,24.399,5.066,31.399,9.199c3.534,2.067,5.667,3.934,6.4,5.601
	C368.684,66.316,363.083,68.283,353.75,70.55z"/>
</svg>
