<?xml version="1.0" encoding="iso-8859-1"?>
<!-- Generator: Adobe Illustrator 15.1.0, SVG Export Plug-In . SVG Version: 6.00 Build 0)  -->
<!DOCTYPE svg PUBLIC "-//W3C//DTD SVG 1.1//EN" "http://www.w3.org/Graphics/SVG/1.1/DTD/svg11.dtd">
<svg version="1.1" id="Layer_3" xmlns="http://www.w3.org/2000/svg" xmlns:xlink="http://www.w3.org/1999/xlink" x="0px" y="0px"
	 width="263.4px" height="72.4px" viewBox="0 0 263.4 72.4" style="enable-background:new 0 0 263.4 72.4;" xml:space="preserve">
<g>
	
		<linearGradient id="SVGID_1_" gradientUnits="userSpaceOnUse" x1="-5.3477" y1="-63.1787" x2="29.3634" y2="-63.1787" gradientTransform="matrix(0.1669 1.993 -1.993 0.1669 -1.215935e-004 0.1006)">
		<stop  offset="0" style="stop-color:#12BDCC"/>
		<stop  offset="1" style="stop-color:#4042A3"/>
	</linearGradient>
	<path style="fill-rule:evenodd;clip-rule:evenodd;fill:url(#SVGID_1_);" d="M247.4,45.801c8.733,2.533,14.066,5.299,16,8.299
		c-3.934,1.268-8.567,2.467-13.9,3.6c-5.6-1.799-9.9-2.898-12.9-3.299c-11.8-1.666-25.1-5.967-39.899-12.9
		c-6.4-2.934-18.967-9.567-37.7-19.9c-21.267-11.667-47.1-12.066-77.5-1.2C55.566,29.667,31.333,44.801,8.8,65.801
		c-4-1.066-6.934-1.934-8.8-2.602C21.066,39.4,45.267,21.833,72.6,10.5c32.733-13.534,62.334-14,88.801-1.4
		c8.199,3.934,19.5,10.033,33.899,18.3c13.066,7,25.066,11.834,36,14.5C232.9,42.301,238.267,43.6,247.4,45.801z"/>
	
		<linearGradient id="SVGID_2_" gradientUnits="userSpaceOnUse" x1="-5.3149" y1="-61.7783" x2="29.3962" y2="-61.7783" gradientTransform="matrix(0.1669 1.993 -1.993 0.1669 -1.215935e-004 0.1006)">
		<stop  offset="0" style="stop-color:#12BDCC"/>
		<stop  offset="1" style="stop-color:#2152A3"/>
	</linearGradient>
	<path style="fill-rule:evenodd;clip-rule:evenodd;fill:url(#SVGID_2_);" d="M196.7,41.5c14.8,6.934,28.1,11.234,39.899,12.9
		c3,0.4,7.301,1.5,12.9,3.299c-6.4,1.334-13.934,2.635-22.6,3.9c-9.867-2.533-21.067-6.967-33.601-13.299
		c-4.533-2.334-15.2-8.268-32-17.8C141.833,19.367,118.366,18.4,90.9,27.6C67.434,35.466,44.833,49.066,23.1,68.4
		c-5.666-0.801-10.433-1.666-14.3-2.6c22.533-21,46.767-36.134,72.7-45.401c30.4-10.866,56.233-10.467,77.5,1.2
		C177.733,31.933,190.3,38.566,196.7,41.5z"/>
	
		<linearGradient id="SVGID_3_" gradientUnits="userSpaceOnUse" x1="0.4712" y1="-61.9556" x2="37.0842" y2="-61.9556" gradientTransform="matrix(0.157 1.9938 -1.9922 0.1771 -2.777427e-004 0.1005)">
		<stop  offset="0" style="stop-color:#12BDCC"/>
		<stop  offset="1" style="stop-color:#2152A3"/>
	</linearGradient>
	<path style="fill-rule:evenodd;clip-rule:evenodd;fill:url(#SVGID_3_);" d="M196.7,41.5c14.8,6.934,28.1,11.234,39.899,12.9
		c3,0.4,7.301,1.5,12.9,3.299c-6.4,1.334-13.934,2.635-22.6,3.9c-9.867-2.533-21.067-6.967-33.601-13.299
		c-4.533-2.334-15.2-8.268-32-17.8C141.833,19.367,118.366,18.4,90.9,27.6C67.434,35.466,44.833,49.066,23.1,68.4
		c-5.666-0.801-10.433-1.666-14.3-2.6c22.533-21,46.767-36.134,72.7-45.401c30.4-10.866,56.233-10.467,77.5,1.2
		C177.733,31.933,190.3,38.566,196.7,41.5z"/>
	
		<linearGradient id="SVGID_4_" gradientUnits="userSpaceOnUse" x1="-5.395" y1="-59.5801" x2="29.3908" y2="-59.5801" gradientTransform="matrix(0.1666 1.9931 -1.9931 0.1666 2.329051e-005 0.0997)">
		<stop  offset="0" style="stop-color:#12BDCC"/>
		<stop  offset="1" style="stop-color:#2152A3"/>
	</linearGradient>
	<path style="fill-rule:evenodd;clip-rule:evenodd;fill:url(#SVGID_4_);" d="M193.3,48.301
		c12.533,6.332,23.733,10.766,33.601,13.299L190.5,66.9C176.634,69.033,157.134,70.6,132,71.6c-28.467,1.201-52.667,1.066-72.6-0.4
		c-7.667-0.465-13.567-0.832-17.7-1.1C34.366,69.633,28.167,69.066,23.1,68.4C44.833,49.066,67.434,35.466,90.9,27.6
		c27.466-9.2,50.933-8.233,70.399,2.9C178.1,40.033,188.767,45.967,193.3,48.301z"/>
	
		<linearGradient id="SVGID_5_" gradientUnits="userSpaceOnUse" x1="0.3936" y1="-59.7627" x2="37.0565" y2="-59.7627" gradientTransform="matrix(0.1568 1.9938 -1.9923 0.1769 -8.921027e-004 0.1015)">
		<stop  offset="0" style="stop-color:#12BDCC"/>
		<stop  offset="1" style="stop-color:#2152A3"/>
	</linearGradient>
	<path style="fill-rule:evenodd;clip-rule:evenodd;fill:url(#SVGID_5_);" d="M193.3,48.301
		c12.533,6.332,23.733,10.766,33.601,13.299L190.5,66.9C176.634,69.033,157.134,70.6,132,71.6c-28.467,1.201-52.667,1.066-72.6-0.4
		c-7.667-0.465-13.567-0.832-17.7-1.1C34.366,69.633,28.167,69.066,23.1,68.4C44.833,49.066,67.434,35.466,90.9,27.6
		c27.466-9.2,50.933-8.233,70.399,2.9C178.1,40.033,188.767,45.967,193.3,48.301z"/>
	
		<linearGradient id="SVGID_6_" gradientUnits="userSpaceOnUse" x1="-37.8228" y1="-61.6787" x2="34.7683" y2="-61.6787" gradientTransform="matrix(0.0494 1.9994 -1.9994 0.0494 -9.409599e-004 0.1002)">
		<stop  offset="0" style="stop-color:#12BDCC"/>
		<stop  offset="1" style="stop-color:#363BA3"/>
	</linearGradient>
	<path style="fill-rule:evenodd;clip-rule:evenodd;fill:url(#SVGID_6_);" d="M193.3,48.301
		c12.533,6.332,23.733,10.766,33.601,13.299L190.5,66.9C176.634,69.033,157.134,70.6,132,71.6c-28.467,1.201-52.667,1.066-72.6-0.4
		c-7.667-0.465-13.567-0.832-17.7-1.1C34.366,69.633,28.167,69.066,23.1,68.4C44.833,49.066,67.434,35.466,90.9,27.6
		c27.466-9.2,50.933-8.233,70.399,2.9C178.1,40.033,188.767,45.967,193.3,48.301z"/>
</g>
</svg>
