<?xml version="1.0" encoding="iso-8859-1"?>
<!-- Generator: Adobe Illustrator 15.1.0, SVG Export Plug-In . SVG Version: 6.00 Build 0)  -->
<!DOCTYPE svg PUBLIC "-//W3C//DTD SVG 1.1//EN" "http://www.w3.org/Graphics/SVG/1.1/DTD/svg11.dtd">
<svg version="1.1" id="Layer_3" xmlns="http://www.w3.org/2000/svg" xmlns:xlink="http://www.w3.org/1999/xlink" x="0px" y="0px"
	 width="463.55px" height="201.8px" viewBox="0 0 463.55 201.8" style="enable-background:new 0 0 463.55 201.8;"
	 xml:space="preserve">
<linearGradient id="SVGID_1_" gradientUnits="userSpaceOnUse" x1="-100.563" y1="109.8652" x2="-0.5781" y2="109.8652" gradientTransform="matrix(-0.1295 -1.9958 1.9958 -0.1295 2.795458e-004 0.0493)">
	<stop  offset="0" style="stop-color:#7563B5"/>
	<stop  offset="1" style="stop-color:#A6DFC9"/>
</linearGradient>
<path style="fill-rule:evenodd;clip-rule:evenodd;fill:url(#SVGID_1_);" d="M411.5,189.35c-37.4,5.8-68.6,9.167-93.6,10.101
	c-98.733,3.799-177.534,3-236.4-2.4c-43.8-4-70.967-9.667-81.5-17c5.134-6.467,17.467-19.8,37-40
	c19.333-19.934,33.134-35.2,41.4-45.8c10.866-14.2,19.233-24.934,25.1-32.2c10.2-12.6,19.634-22.9,28.3-30.9
	c23.4-21.466,47.634-31.833,72.7-31.1c19.267,0.6,39.066,7.4,59.4,20.4c12.399,7.866,29,21.333,49.8,40.399
	c13.733,12.601,29.2,25.5,46.399,38.7c10.2,7.8,26.667,20.134,49.4,37c1.333,1,19.2,14.333,53.6,40
	C466.699,179.217,449.5,183.483,411.5,189.35z"/>
</svg>
