<?xml version="1.0" encoding="iso-8859-1"?>
<!-- Generator: Adobe Illustrator 15.1.0, SVG Export Plug-In . SVG Version: 6.00 Build 0)  -->
<!DOCTYPE svg PUBLIC "-//W3C//DTD SVG 1.1//EN" "http://www.w3.org/Graphics/SVG/1.1/DTD/svg11.dtd">
<svg version="1.1" id="Layer_3" xmlns="http://www.w3.org/2000/svg" xmlns:xlink="http://www.w3.org/1999/xlink" x="0px" y="0px"
	 width="511.7px" height="197.2px" viewBox="0 0 511.7 197.2" style="enable-background:new 0 0 511.7 197.2;" xml:space="preserve"
	>
<symbol  id="flash0.ai_x2F_Layer_3_x2F__x3C_Clip_Group_0_x3E_" viewBox="0.039 -98.6 255.861 98.6">
	<g id="Layer_1_41_">
	</g>
	<g>
		<defs>
			<path id="SVGID_1_" d="M253.75-69.15c-14.733,18.767-27.7,32.983-38.9,42.65c-15,12.9-28.717,19.583-41.15,20.05
				c-6.3,0.233-12.367-1.733-18.2-5.9c-2.1-1.467-4.583-3.533-7.45-6.2c-3.2-3.034-5.633-5.284-7.3-6.75
				c-6.033-5.367-11.75-8.85-17.15-10.45c-7.434-2.2-15.95-1.65-25.55,1.65c-5.7,1.934-11.683,2.067-17.95,0.4
				c-4.967-1.333-10.717-4.033-17.25-8.1c-7.6-5.067-13.317-8.85-17.15-11.35c-6.867-4.467-12.75-7.633-17.65-9.5
				c-11.566-4.4-19.2-7.733-22.9-10c-4.1-2.533-5.733-5.1-4.9-7.7c0.8-2.5,5.683-4.133,14.65-4.9c9.4-0.8,28.317-1.1,56.75-0.9
				c7.9,0.066,23.934,0.066,48.1,0c25.333,0.3,51.033,1.45,77.1,3.45c17.733,1.367,29.95,2.6,36.65,3.7
				C248.633-76.567,255.383-73.283,253.75-69.15z"/>
		</defs>
		<clipPath id="SVGID_2_">
			<use xlink:href="#SVGID_1_"  style="overflow:visible;"/>
		</clipPath>
		<g id="Layer_3_1_" style="clip-path:url(#SVGID_2_);">
			
				<use xlink:href="#flash0.ai_x2F_Layer_3_x2F__x3C_Group_x3E__x5F_38"  width="16.05" height="19.2" y="-19.2" transform="matrix(1 0 0 1 167.1499 -19.7998)" style="overflow:visible;opacity:0.3398;enable-background:new    ;"/>
			
				<use xlink:href="#flash0.ai_x2F_Layer_3_x2F__x3C_Group_x3E__x5F_37"  width="16.05" height="19.15" y="-19.15" transform="matrix(1 0 0 1 206.75 -47.6001)" style="overflow:visible;opacity:0.3398;enable-background:new    ;"/>
			
				<use xlink:href="#flash0.ai_x2F_Layer_3_x2F__x3C_Group_x3E__x5F_36"  width="16.05" height="19.2" y="-19.2" transform="matrix(1 0 0 1 116 -26.25)" style="overflow:visible;opacity:0.3398;enable-background:new    ;"/>
			
				<use xlink:href="#flash0.ai_x2F_Layer_3_x2F__x3C_Group_x3E__x5F_35"  width="16.05" height="19.15" y="-19.15" transform="matrix(1 0 0 1 239.8501 -54.5498)" style="overflow:visible;opacity:0.3398;enable-background:new    ;"/>
			
				<use xlink:href="#flash0.ai_x2F_Layer_3_x2F__x3C_Group_x3E__x5F_34"  width="16.05" height="19.2" y="-19.2" transform="matrix(1 0 0 1 170.7002 -55.0498)" style="overflow:visible;opacity:0.3398;enable-background:new    ;"/>
			
				<use xlink:href="#flash0.ai_x2F_Layer_3_x2F__x3C_Group_x3E__x5F_33"  width="16.05" height="19.15" y="-19.15" transform="matrix(1 0 0 1 70.1499 -79.4502)" style="overflow:visible;opacity:0.3398;enable-background:new    ;"/>
			
				<use xlink:href="#flash0.ai_x2F_Layer_3_x2F__x3C_Group_x3E__x5F_32"  width="16.05" height="19.15" y="-19.15" transform="matrix(1 0 0 1 73.5 -36.6499)" style="overflow:visible;opacity:0.3398;enable-background:new    ;"/>
			
				<use xlink:href="#flash0.ai_x2F_Layer_3_x2F__x3C_Group_x3E__x5F_31"  width="16.05" height="19.15" y="-19.15" transform="matrix(1 0 0 1 198.5 -14.2998)" style="overflow:visible;opacity:0.3398;enable-background:new    ;"/>
			
				<use xlink:href="#flash0.ai_x2F_Layer_3_x2F__x3C_Group_x3E__x5F_30"  width="17.05" height="20.4" y="-20.4" transform="matrix(1 0 0 1 138.6001 -48.3999)" style="overflow:visible;opacity:0.3398;enable-background:new    ;"/>
			
				<use xlink:href="#flash0.ai_x2F_Layer_3_x2F__x3C_Group_x3E__x5F_29"  width="17.05" height="20.35" y="-20.35" transform="matrix(1 0 0 1 105.1001 -68.3999)" style="overflow:visible;opacity:0.3398;enable-background:new    ;"/>
			
				<use xlink:href="#flash0.ai_x2F_Layer_3_x2F__x3C_Group_x3E__x5F_28"  width="17.1" height="20.4" y="-20.4" transform="matrix(1 0 0 1 44.9502 -61.6001)" style="overflow:visible;opacity:0.3398;enable-background:new    ;"/>
			
				<use xlink:href="#flash0.ai_x2F_Layer_3_x2F__x3C_Group_x3E__x5F_27"  width="10" height="11.95" y="-11.95" transform="matrix(1 0 0 1 148.6001 -28.7002)" style="overflow:visible;opacity:0.3398;enable-background:new    ;"/>
			
				<use xlink:href="#flash0.ai_x2F_Layer_3_x2F__x3C_Group_x3E__x5F_26"  width="10.05" height="12" y="-12" transform="matrix(1 0 0 1 166.3501 0)" style="overflow:visible;opacity:0.3398;enable-background:new    ;"/>
			
				<use xlink:href="#flash0.ai_x2F_Layer_3_x2F__x3C_Group_x3E__x5F_25"  width="10.05" height="12" y="-12" transform="matrix(1 0 0 1 185.2002 -34.25)" style="overflow:visible;opacity:0.3398;enable-background:new    ;"/>
			
				<use xlink:href="#flash0.ai_x2F_Layer_3_x2F__x3C_Group_x3E__x5F_24"  width="10.05" height="12" y="-12" transform="matrix(1 0 0 1 203.9502 -72.1499)" style="overflow:visible;opacity:0.3398;enable-background:new    ;"/>
			
				<use xlink:href="#flash0.ai_x2F_Layer_3_x2F__x3C_Group_x3E__x5F_23"  width="10.05" height="12" y="-12" transform="matrix(1 0 0 1 219.6001 -30.6001)" style="overflow:visible;opacity:0.3398;enable-background:new    ;"/>
			
				<use xlink:href="#flash0.ai_x2F_Layer_3_x2F__x3C_Group_x3E__x5F_22"  width="10.05" height="12" y="-12" transform="matrix(1 0 0 1 228.8999 -72.1499)" style="overflow:visible;opacity:0.3398;enable-background:new    ;"/>
			
				<use xlink:href="#flash0.ai_x2F_Layer_3_x2F__x3C_Group_x3E__x5F_21"  width="10.05" height="12" y="-12" transform="matrix(1 0 0 1 109.7002 -48.9502)" style="overflow:visible;opacity:0.3398;enable-background:new    ;"/>
			
				<use xlink:href="#flash0.ai_x2F_Layer_3_x2F__x3C_Group_x3E__x5F_20"  width="10.05" height="11.95" y="-11.95" transform="matrix(1 0 0 1 89.3999 -60.25)" style="overflow:visible;opacity:0.3398;enable-background:new    ;"/>
			
				<use xlink:href="#flash0.ai_x2F_Layer_3_x2F__x3C_Group_x3E__x5F_19"  width="10.05" height="11.95" y="-11.95" transform="matrix(1 0 0 1 26.3501 -68.5498)" style="overflow:visible;opacity:0.3398;enable-background:new    ;"/>
			
				<use xlink:href="#flash0.ai_x2F_Layer_3_x2F__x3C_Group_x3E__x5F_18"  width="10.05" height="12" y="-12" transform="matrix(1 0 0 1 163.1499 -82.2998)" style="overflow:visible;opacity:0.3398;enable-background:new    ;"/>
			
				<use xlink:href="#flash0.ai_x2F_Layer_3_x2F__x3C_Group_x3E__x5F_17"  width="10.05" height="11.95" y="-11.95" transform="matrix(1 0 0 1 49.6499 -42.7998)" style="overflow:visible;opacity:0.3398;enable-background:new    ;"/>
			
				<use xlink:href="#flash0.ai_x2F_Layer_3_x2F__x3C_Group_x3E__x5F_16"  width="10.05" height="12" y="-12" transform="matrix(1 0 0 1 86.1499 -23.6001)" style="overflow:visible;opacity:0.3398;enable-background:new    ;"/>
			
				<use xlink:href="#flash0.ai_x2F_Layer_3_x2F__x3C_Group_x3E__x5F_15"  width="10.05" height="11.95" y="-11.95" transform="matrix(1 0 0 1 129.8999 -70.5498)" style="overflow:visible;opacity:0.3398;enable-background:new    ;"/>
			
				<use xlink:href="#flash0.ai_x2F_Layer_3_x2F__x3C_Group_x3E__x5F_14"  width="6.6" height="7.85" y="-7.85" transform="matrix(1 0 0 1 157 -16.0498)" style="overflow:visible;opacity:0.3398;enable-background:new    ;"/>
			
				<use xlink:href="#flash0.ai_x2F_Layer_3_x2F__x3C_Group_x3E__x5F_13"  width="6.6" height="7.9" y="-7.9" transform="matrix(1 0 0 1 186 -13.6499)" style="overflow:visible;opacity:0.3398;enable-background:new    ;"/>
			
				<use xlink:href="#flash0.ai_x2F_Layer_3_x2F__x3C_Group_x3E__x5F_12"  width="6.6" height="7.9" y="-7.9" transform="matrix(1 0 0 1 227.9502 -50.0498)" style="overflow:visible;opacity:0.3398;enable-background:new    ;"/>
			
				<use xlink:href="#flash0.ai_x2F_Layer_3_x2F__x3C_Group_x3E__x5F_11"  width="6.65" height="7.85" y="-7.85" transform="matrix(1 0 0 1 193 -55.2002)" style="overflow:visible;opacity:0.3398;enable-background:new    ;"/>
			
				<use xlink:href="#flash0.ai_x2F_Layer_3_x2F__x3C_Group_x3E__x5F_10"  width="6.6" height="7.85" y="-7.85" transform="matrix(1 0 0 1 186.1499 -78.3501)" style="overflow:visible;opacity:0.3398;enable-background:new    ;"/>
			
				<use xlink:href="#flash0.ai_x2F_Layer_3_x2F__x3C_Group_x3E__x5F_9"  width="6.6" height="7.9" y="-7.9" transform="matrix(1 0 0 1 133.25 -23)" style="overflow:visible;opacity:0.3398;enable-background:new    ;"/>
			
				<use xlink:href="#flash0.ai_x2F_Layer_3_x2F__x3C_Group_x3E__x5F_8"  width="6.6" height="7.85" y="-7.85" transform="matrix(1 0 0 1 62.5 -36.6001)" style="overflow:visible;opacity:0.3398;enable-background:new    ;"/>
			
				<use xlink:href="#flash0.ai_x2F_Layer_3_x2F__x3C_Group_x3E__x5F_7"  width="6.6" height="7.9" y="-7.9" transform="matrix(1 0 0 1 162.5 -44.0498)" style="overflow:visible;opacity:0.3398;enable-background:new    ;"/>
			
				<use xlink:href="#flash0.ai_x2F_Layer_3_x2F__x3C_Group_x3E__x5F_6"  width="6.6" height="7.9" y="-7.9" transform="matrix(1 0 0 1 125.5498 -54.6001)" style="overflow:visible;opacity:0.3398;enable-background:new    ;"/>
			
				<use xlink:href="#flash0.ai_x2F_Layer_3_x2F__x3C_Group_x3E__x5F_5"  width="6.6" height="7.9" y="-7.9" transform="matrix(1 0 0 1 155.3999 -69.8999)" style="overflow:visible;opacity:0.3398;enable-background:new    ;"/>
			
				<use xlink:href="#flash0.ai_x2F_Layer_3_x2F__x3C_Group_x3E__x5F_4"  width="6.6" height="7.9" y="-7.9" transform="matrix(1 0 0 1 95.75 -42.6001)" style="overflow:visible;opacity:0.3398;enable-background:new    ;"/>
			
				<use xlink:href="#flash0.ai_x2F_Layer_3_x2F__x3C_Group_x3E__x5F_3"  width="6.6" height="7.9" y="-7.9" transform="matrix(1 0 0 1 68.3501 -62.6499)" style="overflow:visible;opacity:0.3398;enable-background:new    ;"/>
			
				<use xlink:href="#flash0.ai_x2F_Layer_3_x2F__x3C_Group_x3E__x5F_2"  width="6.6" height="7.9" y="-7.9" transform="matrix(1 0 0 1 86.5 -75.1499)" style="overflow:visible;opacity:0.3398;enable-background:new    ;"/>
			
				<use xlink:href="#flash0.ai_x2F_Layer_3_x2F__x3C_Group_x3E__x5F_1"  width="6.65" height="7.9" y="-7.9" transform="matrix(1 0 0 1 36.1499 -55.3999)" style="overflow:visible;opacity:0.3398;enable-background:new    ;"/>
			
				<use xlink:href="#flash0.ai_x2F_Layer_3_x2F__x3C_Group_x3E_"  width="6.6" height="7.9" y="-7.9" transform="matrix(1 0 0 1 9.5 -70.6001)" style="overflow:visible;opacity:0.3398;enable-background:new    ;"/>
		</g>
	</g>
	<g id="Layer_4_1_">
	</g>
</symbol>
<symbol  id="flash0.ai_x2F_Layer_3_x2F__x3C_Group_x3E_" viewBox="0 -7.9 6.6 7.9">
	<g id="Layer_1_40_">
		<g>
			<path style="fill-rule:evenodd;clip-rule:evenodd;fill:#12BDCC;" d="M3-7.15l0.3,2.2l0.25-2.2c0-0.5-0.083-0.75-0.25-0.75
				C3.1-7.9,3-7.65,3-7.15z"/>
			<path style="fill-rule:evenodd;clip-rule:evenodd;fill:#12BDCC;" d="M3.55-0.75L3.3-2.95C3.1-1.75,3-1.017,3-0.75
				C3-0.25,3.1,0,3.3,0C3.467,0,3.55-0.25,3.55-0.75z"/>
			<path style="fill-rule:evenodd;clip-rule:evenodd;fill:#12BDCC;" d="M5.95-4.3L4.1-3.95L5.95-3.6c0.433,0,0.65-0.117,0.65-0.35
				C6.6-4.183,6.383-4.3,5.95-4.3z"/>
			<path style="fill-rule:evenodd;clip-rule:evenodd;fill:#12BDCC;" d="M0.6-3.6c0.233,0,0.85-0.117,1.85-0.35
				C1.45-4.183,0.833-4.3,0.6-4.3C0.2-4.3,0-4.183,0-3.95C0-3.717,0.2-3.6,0.6-3.6z"/>
			<path style="fill-rule:evenodd;clip-rule:evenodd;fill:#12BDCC;" d="M5-6.45l-1.15,1.8l1.55-1.3c0.3-0.367,0.367-0.633,0.2-0.8
				C5.433-6.917,5.233-6.817,5-6.45z"/>
			<path style="fill-rule:evenodd;clip-rule:evenodd;fill:#12BDCC;" d="M1.6-1.45l1.1-1.8C1.833-2.55,1.317-2.1,1.15-1.9
				c-0.267,0.333-0.333,0.583-0.2,0.75C1.083-1.017,1.3-1.117,1.6-1.45z"/>
			<path style="fill-rule:evenodd;clip-rule:evenodd;fill:#12BDCC;" d="M5.4-1.9C5.233-2.1,4.717-2.55,3.85-3.25L5-1.45
				c0.233,0.367,0.433,0.467,0.6,0.3C5.8-1.35,5.733-1.6,5.4-1.9z"/>
			<path style="fill-rule:evenodd;clip-rule:evenodd;fill:#12BDCC;" d="M1.15-5.95l1.55,1.3l-1.1-1.8
				c-0.3-0.333-0.517-0.433-0.65-0.3C0.85-6.583,0.917-6.317,1.15-5.95z"/>
		</g>
	</g>
</symbol>
<symbol  id="flash0.ai_x2F_Layer_3_x2F__x3C_Group_x3E__x5F_1" viewBox="0 -7.9 6.65 7.9">
	<g id="Layer_1_39_">
		<g>
			<path style="fill-rule:evenodd;clip-rule:evenodd;fill:#12BDCC;" d="M3.05-7.15L3.3-4.9l0.3-2.25c0-0.5-0.1-0.75-0.3-0.75
				C3.133-7.9,3.05-7.65,3.05-7.15z"/>
			<path style="fill-rule:evenodd;clip-rule:evenodd;fill:#12BDCC;" d="M3.6-0.75c0-0.267-0.1-1-0.3-2.2l-0.25,2.2
				C3.05-0.25,3.133,0,3.3,0C3.5,0,3.6-0.25,3.6-0.75z"/>
			<path style="fill-rule:evenodd;clip-rule:evenodd;fill:#12BDCC;" d="M6-4.3L4.15-3.95L6-3.6c0.433,0,0.65-0.117,0.65-0.35
				C6.65-4.183,6.433-4.3,6-4.3z"/>
			<path style="fill-rule:evenodd;clip-rule:evenodd;fill:#12BDCC;" d="M0.65-3.6c0.2,0,0.817-0.117,1.85-0.35
				C1.467-4.183,0.85-4.3,0.65-4.3C0.217-4.3,0-4.183,0-3.95C0-3.717,0.217-3.6,0.65-3.6z"/>
			<path style="fill-rule:evenodd;clip-rule:evenodd;fill:#12BDCC;" d="M5-6.45l-1.1,1.8l1.55-1.3c0.233-0.367,0.3-0.633,0.2-0.8
				C5.517-6.883,5.3-6.783,5-6.45z"/>
			<path style="fill-rule:evenodd;clip-rule:evenodd;fill:#12BDCC;" d="M1.65-1.4l1.1-1.85C1.883-2.55,1.367-2.1,1.2-1.9
				C0.9-1.6,0.833-1.35,1-1.15C1.1-0.983,1.317-1.067,1.65-1.4z"/>
			<path style="fill-rule:evenodd;clip-rule:evenodd;fill:#12BDCC;" d="M5.45-1.9C5.283-2.1,4.767-2.55,3.9-3.25L5-1.4
				c0.333,0.333,0.55,0.417,0.65,0.25C5.783-1.317,5.717-1.567,5.45-1.9z"/>
			<path style="fill-rule:evenodd;clip-rule:evenodd;fill:#12BDCC;" d="M1.2-5.95l1.55,1.3l-1.1-1.8C1.35-6.783,1.133-6.883,1-6.75
				C0.833-6.583,0.9-6.317,1.2-5.95z"/>
		</g>
	</g>
</symbol>
<symbol  id="flash0.ai_x2F_Layer_3_x2F__x3C_Group_x3E__x5F_10" viewBox="0 -7.85 6.6 7.85">
	<g id="Layer_1_30_">
		<g>
			<path style="fill-rule:evenodd;clip-rule:evenodd;fill:#12BDCC;" d="M3-7.15L3.3-4.9l0.3-2.25c0-0.467-0.1-0.7-0.3-0.7
				C3.1-7.85,3-7.617,3-7.15z"/>
			<path style="fill-rule:evenodd;clip-rule:evenodd;fill:#12BDCC;" d="M3.6-0.7c0-0.267-0.1-1.017-0.3-2.25
				C3.1-1.717,3-0.967,3-0.7C3-0.233,3.1,0,3.3,0C3.5,0,3.6-0.233,3.6-0.7z"/>
			<path style="fill-rule:evenodd;clip-rule:evenodd;fill:#12BDCC;" d="M6-4.25l-1.85,0.3L6-3.6c0.4,0,0.6-0.117,0.6-0.35
				C6.6-4.15,6.4-4.25,6-4.25z"/>
			<path style="fill-rule:evenodd;clip-rule:evenodd;fill:#12BDCC;" d="M0.6-3.6c0.233,0,0.867-0.117,1.9-0.35
				c-1.033-0.2-1.667-0.3-1.9-0.3c-0.4,0-0.6,0.1-0.6,0.3C0-3.717,0.2-3.6,0.6-3.6z"/>
			<path style="fill-rule:evenodd;clip-rule:evenodd;fill:#12BDCC;" d="M5-6.45L3.9-4.6l1.5-1.35C5.7-6.317,5.783-6.567,5.65-6.7
				C5.517-6.9,5.3-6.817,5-6.45z"/>
			<path style="fill-rule:evenodd;clip-rule:evenodd;fill:#12BDCC;" d="M1.6-1.4c0.167-0.2,0.55-0.817,1.15-1.85
				C1.883-2.55,1.367-2.1,1.2-1.9C0.9-1.533,0.817-1.283,0.95-1.15C1.117-0.983,1.333-1.067,1.6-1.4z"/>
			<path style="fill-rule:evenodd;clip-rule:evenodd;fill:#12BDCC;" d="M5.4-1.9C5.267-2.1,4.767-2.55,3.9-3.25
				C4.467-2.217,4.833-1.6,5-1.4c0.3,0.367,0.517,0.45,0.65,0.25C5.783-1.283,5.7-1.533,5.4-1.9z"/>
			<path style="fill-rule:evenodd;clip-rule:evenodd;fill:#12BDCC;" d="M1.2-5.95L2.75-4.6L1.6-6.45
				C1.333-6.783,1.117-6.867,0.95-6.7C0.817-6.567,0.9-6.317,1.2-5.95z"/>
		</g>
	</g>
</symbol>
<symbol  id="flash0.ai_x2F_Layer_3_x2F__x3C_Group_x3E__x5F_11" viewBox="0 -7.85 6.65 7.85">
	<g id="Layer_1_29_">
		<g>
			<path style="fill-rule:evenodd;clip-rule:evenodd;fill:#12BDCC;" d="M3.05-7.15l0.3,2.25L3.6-7.15c0-0.467-0.083-0.7-0.25-0.7
				C3.15-7.85,3.05-7.617,3.05-7.15z"/>
			<path style="fill-rule:evenodd;clip-rule:evenodd;fill:#12BDCC;" d="M3.6-0.7L3.35-2.95c-0.2,1.233-0.3,1.983-0.3,2.25
				c0,0.467,0.1,0.7,0.3,0.7C3.517,0,3.6-0.233,3.6-0.7z"/>
			<path style="fill-rule:evenodd;clip-rule:evenodd;fill:#12BDCC;" d="M6-4.25L4.15-3.9L6-3.55c0.433,0,0.65-0.117,0.65-0.35
				S6.433-4.25,6-4.25z"/>
			<path style="fill-rule:evenodd;clip-rule:evenodd;fill:#12BDCC;" d="M0.65-3.55c0.2,0,0.817-0.117,1.85-0.35
				C1.467-4.133,0.85-4.25,0.65-4.25C0.217-4.25,0-4.133,0-3.9S0.217-3.55,0.65-3.55z"/>
			<path style="fill-rule:evenodd;clip-rule:evenodd;fill:#12BDCC;" d="M5.05-6.45L3.9-4.6l1.55-1.35
				c0.3-0.367,0.367-0.617,0.2-0.75C5.517-6.867,5.317-6.783,5.05-6.45z"/>
			<path style="fill-rule:evenodd;clip-rule:evenodd;fill:#12BDCC;" d="M1.65-1.4l1.1-1.85C1.883-2.55,1.367-2.1,1.2-1.9
				C0.933-1.533,0.867-1.283,1-1.15C1.133-0.95,1.35-1.033,1.65-1.4z"/>
			<path style="fill-rule:evenodd;clip-rule:evenodd;fill:#12BDCC;" d="M5.45-1.9C5.283-2.1,4.767-2.55,3.9-3.25
				C4.5-2.217,4.883-1.6,5.05-1.4c0.267,0.367,0.467,0.45,0.6,0.25C5.817-1.283,5.75-1.533,5.45-1.9z"/>
			<path style="fill-rule:evenodd;clip-rule:evenodd;fill:#12BDCC;" d="M1.2-5.95L2.75-4.6l-1.1-1.85C1.317-6.783,1.1-6.867,1-6.7
				C0.867-6.567,0.933-6.317,1.2-5.95z"/>
		</g>
	</g>
</symbol>
<symbol  id="flash0.ai_x2F_Layer_3_x2F__x3C_Group_x3E__x5F_12" viewBox="0 -7.9 6.6 7.9">
	<g id="Layer_1_28_">
		<g>
			<path style="fill-rule:evenodd;clip-rule:evenodd;fill:#12BDCC;" d="M3-7.15L3.3-4.9l0.3-2.25c0-0.5-0.1-0.75-0.3-0.75
				C3.1-7.9,3-7.65,3-7.15z"/>
			<path style="fill-rule:evenodd;clip-rule:evenodd;fill:#12BDCC;" d="M3.6-0.75c0-0.267-0.1-1-0.3-2.2C3.1-1.75,3-1.017,3-0.75
				C3-0.25,3.1,0,3.3,0C3.5,0,3.6-0.25,3.6-0.75z"/>
			<path style="fill-rule:evenodd;clip-rule:evenodd;fill:#12BDCC;" d="M6-4.3L4.15-3.95L6-3.6c0.4,0,0.6-0.117,0.6-0.35
				C6.6-4.183,6.4-4.3,6-4.3z"/>
			<path style="fill-rule:evenodd;clip-rule:evenodd;fill:#12BDCC;" d="M0.6-3.6c0.233,0,0.867-0.117,1.9-0.35
				C1.467-4.183,0.833-4.3,0.6-4.3C0.2-4.3,0-4.183,0-3.95C0-3.717,0.2-3.6,0.6-3.6z"/>
			<path style="fill-rule:evenodd;clip-rule:evenodd;fill:#12BDCC;" d="M5-6.45l-1.1,1.8l1.5-1.3c0.3-0.333,0.383-0.6,0.25-0.8
				C5.517-6.883,5.3-6.783,5-6.45z"/>
			<path style="fill-rule:evenodd;clip-rule:evenodd;fill:#12BDCC;" d="M1.6-1.45c0.167-0.167,0.55-0.767,1.15-1.8
				C1.883-2.55,1.367-2.1,1.2-1.9C0.9-1.6,0.833-1.35,1-1.15C1.133-0.95,1.333-1.05,1.6-1.45z"/>
			<path style="fill-rule:evenodd;clip-rule:evenodd;fill:#12BDCC;" d="M5.4-1.9C5.267-2.1,4.767-2.55,3.9-3.25L5-1.45
				c0.3,0.367,0.517,0.467,0.65,0.3C5.783-1.35,5.7-1.6,5.4-1.9z"/>
			<path style="fill-rule:evenodd;clip-rule:evenodd;fill:#12BDCC;" d="M1.2-5.95l1.55,1.3c-0.6-1.033-0.983-1.633-1.15-1.8
				C1.367-6.817,1.167-6.917,1-6.75S0.9-6.317,1.2-5.95z"/>
		</g>
	</g>
</symbol>
<symbol  id="flash0.ai_x2F_Layer_3_x2F__x3C_Group_x3E__x5F_13" viewBox="0 -7.9 6.6 7.9">
	<g id="Layer_1_27_">
		<g>
			<path style="fill-rule:evenodd;clip-rule:evenodd;fill:#12BDCC;" d="M3-7.15L3.3-4.9l0.3-2.25c0-0.5-0.1-0.75-0.3-0.75
				C3.1-7.9,3-7.65,3-7.15z"/>
			<path style="fill-rule:evenodd;clip-rule:evenodd;fill:#12BDCC;" d="M3.6-0.75c0-0.267-0.1-1-0.3-2.2C3.1-1.75,3-1.017,3-0.75
				C3-0.25,3.1,0,3.3,0C3.5,0,3.6-0.25,3.6-0.75z"/>
			<path style="fill-rule:evenodd;clip-rule:evenodd;fill:#12BDCC;" d="M6-4.3L4.1-3.95L6-3.6c0.4,0,0.6-0.117,0.6-0.35
				C6.6-4.183,6.4-4.3,6-4.3z"/>
			<path style="fill-rule:evenodd;clip-rule:evenodd;fill:#12BDCC;" d="M0.6-3.6c0.233,0,0.85-0.117,1.85-0.35
				C1.45-4.183,0.833-4.3,0.6-4.3C0.2-4.3,0-4.183,0-3.95C0-3.717,0.2-3.6,0.6-3.6z"/>
			<path style="fill-rule:evenodd;clip-rule:evenodd;fill:#12BDCC;" d="M5-6.45l-1.15,1.8l1.55-1.3c0.3-0.333,0.383-0.6,0.25-0.8
				C5.483-6.85,5.267-6.75,5-6.45z"/>
			<path style="fill-rule:evenodd;clip-rule:evenodd;fill:#12BDCC;" d="M1.6-1.4c0.167-0.2,0.533-0.817,1.1-1.85
				C1.833-2.55,1.333-2.1,1.2-1.9C0.9-1.6,0.817-1.35,0.95-1.15C1.05-0.983,1.267-1.067,1.6-1.4z"/>
			<path style="fill-rule:evenodd;clip-rule:evenodd;fill:#12BDCC;" d="M5.4-1.9C5.233-2.1,4.717-2.55,3.85-3.25
				C4.45-2.217,4.833-1.6,5-1.4c0.3,0.3,0.517,0.383,0.65,0.25C5.783-1.35,5.7-1.6,5.4-1.9z"/>
			<path style="fill-rule:evenodd;clip-rule:evenodd;fill:#12BDCC;" d="M1.2-5.95l1.5,1.3l-1.1-1.8c-0.3-0.333-0.517-0.433-0.65-0.3
				C0.817-6.55,0.9-6.283,1.2-5.95z"/>
		</g>
	</g>
</symbol>
<symbol  id="flash0.ai_x2F_Layer_3_x2F__x3C_Group_x3E__x5F_14" viewBox="0 -7.85 6.6 7.85">
	<g id="Layer_1_26_">
		<g>
			<path style="fill-rule:evenodd;clip-rule:evenodd;fill:#12BDCC;" d="M3-7.15L3.3-4.9l0.3-2.25c0-0.467-0.1-0.7-0.3-0.7
				C3.1-7.85,3-7.617,3-7.15z"/>
			<path style="fill-rule:evenodd;clip-rule:evenodd;fill:#12BDCC;" d="M3.6-0.7c0-0.267-0.1-1.017-0.3-2.25
				C3.1-1.717,3-0.967,3-0.7C3-0.233,3.1,0,3.3,0C3.5,0,3.6-0.233,3.6-0.7z"/>
			<path style="fill-rule:evenodd;clip-rule:evenodd;fill:#12BDCC;" d="M6-4.3L4.1-3.95L6-3.6c0.4,0,0.6-0.117,0.6-0.35
				C6.6-4.183,6.4-4.3,6-4.3z"/>
			<path style="fill-rule:evenodd;clip-rule:evenodd;fill:#12BDCC;" d="M0.6-3.6c0.233,0,0.85-0.117,1.85-0.35
				C1.45-4.183,0.833-4.3,0.6-4.3C0.2-4.3,0-4.183,0-3.95C0-3.717,0.2-3.6,0.6-3.6z"/>
			<path style="fill-rule:evenodd;clip-rule:evenodd;fill:#12BDCC;" d="M5-6.45L3.85-4.6L5.4-5.95C5.7-6.317,5.783-6.567,5.65-6.7
				C5.483-6.867,5.267-6.783,5-6.45z"/>
			<path style="fill-rule:evenodd;clip-rule:evenodd;fill:#12BDCC;" d="M1.6-1.4c0.167-0.2,0.533-0.817,1.1-1.85
				C1.833-2.55,1.333-2.1,1.2-1.9C0.933-1.567,0.85-1.317,0.95-1.15C1.05-0.983,1.267-1.067,1.6-1.4z"/>
			<path style="fill-rule:evenodd;clip-rule:evenodd;fill:#12BDCC;" d="M5.4-1.9C5.233-2.1,4.717-2.55,3.85-3.25
				C4.45-2.217,4.833-1.6,5-1.4c0.3,0.3,0.517,0.383,0.65,0.25C5.75-1.317,5.667-1.567,5.4-1.9z"/>
			<path style="fill-rule:evenodd;clip-rule:evenodd;fill:#12BDCC;" d="M1.2-5.95L2.7-4.6L1.6-6.45C1.3-6.817,1.083-6.9,0.95-6.7
				C0.817-6.567,0.9-6.317,1.2-5.95z"/>
		</g>
	</g>
</symbol>
<symbol  id="flash0.ai_x2F_Layer_3_x2F__x3C_Group_x3E__x5F_15" viewBox="0 -11.95 10.05 11.95">
	<g id="Layer_1_25_">
		<g>
			<path style="fill-rule:evenodd;clip-rule:evenodd;fill:#12BDCC;" d="M4.6-10.85l0.45,3.4l0.4-3.4c0-0.733-0.133-1.1-0.4-1.1
				C4.75-11.95,4.6-11.583,4.6-10.85z"/>
			<path style="fill-rule:evenodd;clip-rule:evenodd;fill:#12BDCC;" d="M5.45-1.1c0-0.4-0.133-1.533-0.4-3.4
				c-0.3,1.867-0.45,3-0.45,3.4C4.6-0.367,4.75,0,5.05,0C5.317,0,5.45-0.367,5.45-1.1z"/>
			<path style="fill-rule:evenodd;clip-rule:evenodd;fill:#12BDCC;" d="M9.1-6.5L6.3-6l2.8,0.55c0.633,0,0.95-0.183,0.95-0.55
				C10.05-6.333,9.733-6.5,9.1-6.5z"/>
			<path style="fill-rule:evenodd;clip-rule:evenodd;fill:#12BDCC;" d="M0.95-5.45C1.283-5.45,2.233-5.633,3.8-6
				C2.233-6.333,1.283-6.5,0.95-6.5C0.317-6.5,0-6.333,0-6C0-5.633,0.317-5.45,0.95-5.45z"/>
			<path style="fill-rule:evenodd;clip-rule:evenodd;fill:#12BDCC;" d="M7.6-9.8L5.9-7.05l2.35-2c0.4-0.534,0.517-0.917,0.35-1.15
				C8.367-10.433,8.033-10.3,7.6-9.8z"/>
			<path style="fill-rule:evenodd;clip-rule:evenodd;fill:#12BDCC;" d="M2.45-2.15c0.233-0.3,0.8-1.217,1.7-2.75
				c-1.3,1.033-2.083,1.7-2.35,2C1.367-2.367,1.267-1.983,1.5-1.75c0.067,0.1,0.2,0.117,0.4,0.05C2.1-1.767,2.283-1.917,2.45-2.15z"
				/>
			<path style="fill-rule:evenodd;clip-rule:evenodd;fill:#12BDCC;" d="M8.25-2.9C7.983-3.2,7.2-3.867,5.9-4.9
				c0.9,1.533,1.467,2.45,1.7,2.75c0.433,0.5,0.767,0.633,1,0.4C8.767-1.983,8.65-2.367,8.25-2.9z"/>
			<path style="fill-rule:evenodd;clip-rule:evenodd;fill:#12BDCC;" d="M1.8-9.05l2.35,2L2.45-9.8
				c-0.167-0.233-0.35-0.383-0.55-0.45c-0.2-0.067-0.333-0.05-0.4,0.05C1.267-9.967,1.367-9.583,1.8-9.05z"/>
		</g>
	</g>
</symbol>
<symbol  id="flash0.ai_x2F_Layer_3_x2F__x3C_Group_x3E__x5F_16" viewBox="0 -12 10.05 12">
	<g id="Layer_1_24_">
		<g>
			<path style="fill-rule:evenodd;clip-rule:evenodd;fill:#12BDCC;" d="M4.6-10.9l0.45,3.4l0.4-3.4c0-0.733-0.133-1.1-0.4-1.1
				C4.75-12,4.6-11.633,4.6-10.9z"/>
			<path style="fill-rule:evenodd;clip-rule:evenodd;fill:#12BDCC;" d="M5.45-1.15c0-0.4-0.133-1.533-0.4-3.4
				c-0.3,1.867-0.45,3-0.45,3.4C4.6-0.383,4.75,0,5.05,0C5.317,0,5.45-0.383,5.45-1.15z"/>
			<path style="fill-rule:evenodd;clip-rule:evenodd;fill:#12BDCC;" d="M9.1-6.55L6.25-6L9.1-5.5c0.633,0,0.95-0.167,0.95-0.5
				C10.05-6.367,9.733-6.55,9.1-6.55z"/>
			<path style="fill-rule:evenodd;clip-rule:evenodd;fill:#12BDCC;" d="M0.95-5.5C1.283-5.5,2.233-5.667,3.8-6
				C2.233-6.367,1.283-6.55,0.95-6.55C0.317-6.55,0-6.367,0-6C0-5.667,0.317-5.5,0.95-5.5z"/>
			<path style="fill-rule:evenodd;clip-rule:evenodd;fill:#12BDCC;" d="M7.6-9.85l-1.7,2.8L8.25-9.1
				c0.4-0.533,0.517-0.917,0.35-1.15c-0.1-0.1-0.25-0.117-0.45-0.05C7.95-10.233,7.767-10.083,7.6-9.85z"/>
			<path style="fill-rule:evenodd;clip-rule:evenodd;fill:#12BDCC;" d="M2.45-2.2c0.233-0.267,0.8-1.183,1.7-2.75l-2.35,2
				C1.4-2.417,1.283-2.033,1.45-1.8C1.683-1.5,2.017-1.633,2.45-2.2z"/>
			<path style="fill-rule:evenodd;clip-rule:evenodd;fill:#12BDCC;" d="M8.25-2.95l-2.35-2L7.6-2.2c0.433,0.567,0.767,0.7,1,0.4
				C8.767-2.033,8.65-2.417,8.25-2.95z"/>
			<path style="fill-rule:evenodd;clip-rule:evenodd;fill:#12BDCC;" d="M1.8-9.1l2.35,2.05l-1.7-2.8c-0.4-0.533-0.733-0.667-1-0.4
				C1.283-10.017,1.4-9.633,1.8-9.1z"/>
		</g>
	</g>
</symbol>
<symbol  id="flash0.ai_x2F_Layer_3_x2F__x3C_Group_x3E__x5F_17" viewBox="0 -11.95 10.05 11.95">
	<g id="Layer_1_23_">
		<g>
			<path style="fill-rule:evenodd;clip-rule:evenodd;fill:#12BDCC;" d="M4.6-10.85l0.45,3.4l0.45-3.4c0-0.733-0.15-1.1-0.45-1.1
				C4.75-11.95,4.6-11.583,4.6-10.85z"/>
			<path style="fill-rule:evenodd;clip-rule:evenodd;fill:#12BDCC;" d="M5.5-1.1c0-0.4-0.15-1.533-0.45-3.4
				c-0.3,1.867-0.45,3-0.45,3.4C4.6-0.367,4.75,0,5.05,0C5.35,0,5.5-0.367,5.5-1.1z"/>
			<path style="fill-rule:evenodd;clip-rule:evenodd;fill:#12BDCC;" d="M9.15-6.5L6.3-5.95l2.85,0.5c0.6,0,0.9-0.167,0.9-0.5
				C10.05-6.317,9.75-6.5,9.15-6.5z"/>
			<path style="fill-rule:evenodd;clip-rule:evenodd;fill:#12BDCC;" d="M0.95-5.45c0.333,0,1.283-0.167,2.85-0.5
				C2.233-6.317,1.283-6.5,0.95-6.5C0.317-6.5,0-6.317,0-5.95C0-5.617,0.317-5.45,0.95-5.45z"/>
			<path style="fill-rule:evenodd;clip-rule:evenodd;fill:#12BDCC;" d="M7.65-9.8L5.95-7l2.3-2.05c0.4-0.534,0.517-0.917,0.35-1.15
				c-0.067-0.1-0.2-0.117-0.4-0.05C8-10.183,7.817-10.033,7.65-9.8z"/>
			<path style="fill-rule:evenodd;clip-rule:evenodd;fill:#12BDCC;" d="M2.45-2.15c0.267-0.3,0.833-1.217,1.7-2.75
				c-1.3,1.033-2.066,1.7-2.3,2C1.417-2.333,1.3-1.95,1.5-1.75C1.7-1.45,2.017-1.583,2.45-2.15z"/>
			<path style="fill-rule:evenodd;clip-rule:evenodd;fill:#12BDCC;" d="M8.25-2.9c-0.233-0.3-1-0.967-2.3-2
				c0.867,1.533,1.433,2.45,1.7,2.75C7.817-1.917,8-1.767,8.2-1.7c0.2,0.1,0.333,0.083,0.4-0.05C8.767-1.983,8.65-2.367,8.25-2.9z"
				/>
			<path style="fill-rule:evenodd;clip-rule:evenodd;fill:#12BDCC;" d="M1.85-9.05L4.15-7c-0.867-1.567-1.433-2.5-1.7-2.8
				c-0.167-0.233-0.35-0.383-0.55-0.45c-0.2-0.067-0.333-0.05-0.4,0.05C1.3-10,1.417-9.617,1.85-9.05z"/>
		</g>
	</g>
</symbol>
<symbol  id="flash0.ai_x2F_Layer_3_x2F__x3C_Group_x3E__x5F_18" viewBox="0 -12 10.05 12">
	<g id="Layer_1_22_">
		<g>
			<path style="fill-rule:evenodd;clip-rule:evenodd;fill:#12BDCC;" d="M4.55-10.9L5-7.5l0.45-3.4C5.45-11.633,5.3-12,5-12
				S4.55-11.633,4.55-10.9z"/>
			<path style="fill-rule:evenodd;clip-rule:evenodd;fill:#12BDCC;" d="M5.45-1.1C5.45-1.5,5.3-2.633,5-4.5
				c-0.3,1.867-0.45,3-0.45,3.4C4.55-0.367,4.7,0,5,0S5.45-0.367,5.45-1.1z"/>
			<path style="fill-rule:evenodd;clip-rule:evenodd;fill:#12BDCC;" d="M9.1-6.5L6.25-6L9.1-5.45c0.633,0,0.95-0.183,0.95-0.55
				C10.05-6.333,9.733-6.5,9.1-6.5z"/>
			<path style="fill-rule:evenodd;clip-rule:evenodd;fill:#12BDCC;" d="M0.9-5.45c0.367,0,1.317-0.183,2.85-0.55
				C2.217-6.333,1.267-6.5,0.9-6.5C0.3-6.5,0-6.333,0-6C0-5.633,0.3-5.45,0.9-5.45z"/>
			<path style="fill-rule:evenodd;clip-rule:evenodd;fill:#12BDCC;" d="M7.6-9.8L5.9-7.05l2.3-2c0.5-0.534,0.617-0.934,0.35-1.2
				c-0.066-0.1-0.2-0.1-0.4,0C7.95-10.183,7.767-10.033,7.6-9.8z"/>
			<path style="fill-rule:evenodd;clip-rule:evenodd;fill:#12BDCC;" d="M2.45-2.15c0.233-0.3,0.8-1.233,1.7-2.8
				C2.817-3.883,2.033-3.2,1.8-2.9C1.367-2.4,1.25-2.017,1.45-1.75C1.65-1.55,1.983-1.683,2.45-2.15z"/>
			<path style="fill-rule:evenodd;clip-rule:evenodd;fill:#12BDCC;" d="M8.2-2.9c-0.233-0.3-1-0.983-2.3-2.05
				c0.9,1.567,1.467,2.5,1.7,2.8c0.433,0.5,0.75,0.633,0.95,0.4c0.1-0.1,0.117-0.267,0.05-0.5C8.533-2.483,8.4-2.7,8.2-2.9z"/>
			<path style="fill-rule:evenodd;clip-rule:evenodd;fill:#12BDCC;" d="M1.8-9.05l2.35,2L2.45-9.8c-0.467-0.5-0.8-0.65-1-0.45
				C1.25-9.983,1.367-9.583,1.8-9.05z"/>
		</g>
	</g>
</symbol>
<symbol  id="flash0.ai_x2F_Layer_3_x2F__x3C_Group_x3E__x5F_19" viewBox="0 -11.95 10.05 11.95">
	<g id="Layer_1_21_">
		<g>
			<path style="fill-rule:evenodd;clip-rule:evenodd;fill:#12BDCC;" d="M4.55-10.85L5-7.45l0.45-3.4c0-0.733-0.15-1.1-0.45-1.1
				S4.55-11.583,4.55-10.85z"/>
			<path style="fill-rule:evenodd;clip-rule:evenodd;fill:#12BDCC;" d="M5.45-1.1C5.45-1.5,5.3-2.633,5-4.5
				c-0.3,1.867-0.45,3-0.45,3.4C4.55-0.367,4.7,0,5,0S5.45-0.367,5.45-1.1z"/>
			<path style="fill-rule:evenodd;clip-rule:evenodd;fill:#12BDCC;" d="M9.1-6.5L6.25-5.95l2.85,0.5c0.633,0,0.95-0.167,0.95-0.5
				C10.05-6.317,9.733-6.5,9.1-6.5z"/>
			<path style="fill-rule:evenodd;clip-rule:evenodd;fill:#12BDCC;" d="M0.9-5.45c0.367,0,1.317-0.167,2.85-0.5
				C2.217-6.317,1.267-6.5,0.9-6.5C0.3-6.5,0-6.317,0-5.95C0-5.617,0.3-5.45,0.9-5.45z"/>
			<path style="fill-rule:evenodd;clip-rule:evenodd;fill:#12BDCC;" d="M7.6-9.8L5.9-7l2.3-2.05c0.466-0.534,0.583-0.917,0.35-1.15
				c-0.066-0.1-0.2-0.117-0.4-0.05C7.95-10.183,7.767-10.033,7.6-9.8z"/>
			<path style="fill-rule:evenodd;clip-rule:evenodd;fill:#12BDCC;" d="M2.45-2.15c0.233-0.3,0.8-1.217,1.7-2.75
				c-1.333,1.033-2.117,1.7-2.35,2C1.4-2.367,1.283-1.983,1.45-1.75C1.65-1.483,1.983-1.617,2.45-2.15z"/>
			<path style="fill-rule:evenodd;clip-rule:evenodd;fill:#12BDCC;" d="M8.2-2.9c-0.233-0.3-1-0.967-2.3-2
				c0.867,1.533,1.434,2.45,1.7,2.75C7.767-1.917,7.95-1.767,8.15-1.7c0.2,0.067,0.333,0.05,0.4-0.05
				C8.783-1.983,8.667-2.367,8.2-2.9z"/>
			<path style="fill-rule:evenodd;clip-rule:evenodd;fill:#12BDCC;" d="M1.8-9.05L4.15-7l-1.7-2.8c-0.434-0.5-0.767-0.633-1-0.4
				C1.283-9.967,1.4-9.583,1.8-9.05z"/>
		</g>
	</g>
</symbol>
<symbol  id="flash0.ai_x2F_Layer_3_x2F__x3C_Group_x3E__x5F_2" viewBox="0 -7.9 6.6 7.9">
	<g id="Layer_1_38_">
		<g>
			<path style="fill-rule:evenodd;clip-rule:evenodd;fill:#12BDCC;" d="M3-7.15l0.3,2.2l0.3-2.2c0-0.5-0.1-0.75-0.3-0.75
				C3.1-7.9,3-7.65,3-7.15z"/>
			<path style="fill-rule:evenodd;clip-rule:evenodd;fill:#12BDCC;" d="M3.6-0.75C3.6-1.017,3.5-1.767,3.3-3
				C3.1-1.767,3-1.017,3-0.75C3-0.25,3.1,0,3.3,0C3.5,0,3.6-0.25,3.6-0.75z"/>
			<path style="fill-rule:evenodd;clip-rule:evenodd;fill:#12BDCC;" d="M6-4.3L4.1-3.95L6-3.6c0.4,0,0.6-0.117,0.6-0.35
				C6.6-4.183,6.4-4.3,6-4.3z"/>
			<path style="fill-rule:evenodd;clip-rule:evenodd;fill:#12BDCC;" d="M0.6-3.6c0.233,0,0.867-0.117,1.9-0.35
				C1.467-4.183,0.833-4.3,0.6-4.3C0.2-4.3,0-4.183,0-3.95C0-3.717,0.2-3.6,0.6-3.6z"/>
			<path style="fill-rule:evenodd;clip-rule:evenodd;fill:#12BDCC;" d="M5-6.5L3.9-4.65L5.4-6c0.3-0.3,0.383-0.55,0.25-0.75
				C5.517-6.883,5.3-6.8,5-6.5z"/>
			<path style="fill-rule:evenodd;clip-rule:evenodd;fill:#12BDCC;" d="M1.6-1.45c0.167-0.2,0.533-0.8,1.1-1.8l-1.5,1.3
				c-0.3,0.333-0.383,0.6-0.25,0.8C1.117-1.05,1.333-1.15,1.6-1.45z"/>
			<path style="fill-rule:evenodd;clip-rule:evenodd;fill:#12BDCC;" d="M5.4-1.95l-1.5-1.3c0.567,1,0.934,1.6,1.1,1.8
				c0.267,0.3,0.483,0.4,0.65,0.3C5.783-1.35,5.7-1.617,5.4-1.95z"/>
			<path style="fill-rule:evenodd;clip-rule:evenodd;fill:#12BDCC;" d="M1.2-6l1.5,1.35L1.6-6.5C1.3-6.8,1.083-6.883,0.95-6.75
				C0.817-6.55,0.9-6.3,1.2-6z"/>
		</g>
	</g>
</symbol>
<symbol  id="flash0.ai_x2F_Layer_3_x2F__x3C_Group_x3E__x5F_20" viewBox="0 -11.95 10.05 11.95">
	<g id="Layer_1_20_">
		<g>
			<path style="fill-rule:evenodd;clip-rule:evenodd;fill:#12BDCC;" d="M4.55-10.85L5-7.45l0.45-3.4c0-0.733-0.15-1.1-0.45-1.1
				S4.55-11.583,4.55-10.85z"/>
			<path style="fill-rule:evenodd;clip-rule:evenodd;fill:#12BDCC;" d="M5.45-1.1C5.45-1.5,5.3-2.633,5-4.5
				c-0.3,1.867-0.45,3-0.45,3.4C4.55-0.367,4.7,0,5,0S5.45-0.367,5.45-1.1z"/>
			<path style="fill-rule:evenodd;clip-rule:evenodd;fill:#12BDCC;" d="M9.1-6.5L6.25-6L9.1-5.45c0.633,0,0.95-0.183,0.95-0.55
				C10.05-6.333,9.733-6.5,9.1-6.5z"/>
			<path style="fill-rule:evenodd;clip-rule:evenodd;fill:#12BDCC;" d="M0.9-5.45c0.333,0,1.283-0.183,2.85-0.55
				C2.183-6.333,1.233-6.5,0.9-6.5C0.3-6.5,0-6.333,0-6C0-5.633,0.3-5.45,0.9-5.45z"/>
			<path style="fill-rule:evenodd;clip-rule:evenodd;fill:#12BDCC;" d="M7.6-9.8L5.9-7.05l2.3-2C8.633-9.617,8.75-10,8.55-10.2
				c-0.066-0.133-0.2-0.15-0.4-0.05C7.95-10.183,7.767-10.033,7.6-9.8z"/>
			<path style="fill-rule:evenodd;clip-rule:evenodd;fill:#12BDCC;" d="M2.4-2.15c0.267-0.3,0.833-1.233,1.7-2.8
				C2.8-3.883,2.033-3.2,1.8-2.9C1.4-2.367,1.283-1.983,1.45-1.75c0.066,0.1,0.2,0.117,0.4,0.05C2.05-1.767,2.233-1.917,2.4-2.15z"
				/>
			<path style="fill-rule:evenodd;clip-rule:evenodd;fill:#12BDCC;" d="M8.2-2.9c-0.233-0.3-1-0.983-2.3-2.05
				c0.867,1.567,1.434,2.5,1.7,2.8C7.767-1.917,7.95-1.767,8.15-1.7c0.2,0.067,0.333,0.05,0.4-0.05C8.75-1.95,8.633-2.333,8.2-2.9z"
				/>
			<path style="fill-rule:evenodd;clip-rule:evenodd;fill:#12BDCC;" d="M1.8-9.05l2.3,2L2.4-9.8c-0.433-0.567-0.75-0.7-0.95-0.4
				C1.283-9.967,1.4-9.583,1.8-9.05z"/>
		</g>
	</g>
</symbol>
<symbol  id="flash0.ai_x2F_Layer_3_x2F__x3C_Group_x3E__x5F_21" viewBox="0 -12 10.05 12">
	<g id="Layer_1_19_">
		<g>
			<path style="fill-rule:evenodd;clip-rule:evenodd;fill:#12BDCC;" d="M4.6-10.9l0.45,3.4l0.4-3.4c0-0.733-0.133-1.1-0.4-1.1
				C4.75-12,4.6-11.633,4.6-10.9z"/>
			<path style="fill-rule:evenodd;clip-rule:evenodd;fill:#12BDCC;" d="M5.45-1.15c0-0.4-0.133-1.533-0.4-3.4
				c-0.3,1.867-0.45,3-0.45,3.4C4.6-0.383,4.75,0,5.05,0C5.317,0,5.45-0.383,5.45-1.15z"/>
			<path style="fill-rule:evenodd;clip-rule:evenodd;fill:#12BDCC;" d="M9.1-6.55L6.3-6l2.8,0.5c0.633,0,0.95-0.167,0.95-0.5
				C10.05-6.367,9.733-6.55,9.1-6.55z"/>
			<path style="fill-rule:evenodd;clip-rule:evenodd;fill:#12BDCC;" d="M0.95-5.5C1.283-5.5,2.233-5.667,3.8-6
				C2.233-6.367,1.283-6.55,0.95-6.55C0.317-6.55,0-6.367,0-6C0-5.667,0.317-5.5,0.95-5.5z"/>
			<path style="fill-rule:evenodd;clip-rule:evenodd;fill:#12BDCC;" d="M7.6-9.85l-1.7,2.8L8.25-9.1
				c0.4-0.533,0.517-0.917,0.35-1.15c-0.1-0.1-0.25-0.117-0.45-0.05C7.95-10.233,7.767-10.083,7.6-9.85z"/>
			<path style="fill-rule:evenodd;clip-rule:evenodd;fill:#12BDCC;" d="M2.45-2.2c0.233-0.3,0.8-1.216,1.7-2.75l-2.35,2
				C1.367-2.417,1.267-2.033,1.5-1.8C1.7-1.5,2.017-1.633,2.45-2.2z"/>
			<path style="fill-rule:evenodd;clip-rule:evenodd;fill:#12BDCC;" d="M8.25-2.95c-0.233-0.267-1.017-0.933-2.35-2
				C6.8-3.417,7.367-2.5,7.6-2.2c0.433,0.567,0.767,0.7,1,0.4C8.767-2.033,8.65-2.417,8.25-2.95z"/>
			<path style="fill-rule:evenodd;clip-rule:evenodd;fill:#12BDCC;" d="M1.8-9.1l2.35,2.05l-1.7-2.8
				C2.283-10.083,2.1-10.233,1.9-10.3c-0.2-0.067-0.333-0.05-0.4,0.05C1.267-10.017,1.367-9.633,1.8-9.1z"/>
		</g>
	</g>
</symbol>
<symbol  id="flash0.ai_x2F_Layer_3_x2F__x3C_Group_x3E__x5F_22" viewBox="0 -12 10.05 12">
	<g id="Layer_1_18_">
		<g>
			<path style="fill-rule:evenodd;clip-rule:evenodd;fill:#12BDCC;" d="M4.6-10.9l0.45,3.4l0.4-3.4c0-0.733-0.133-1.1-0.4-1.1
				C4.75-12,4.6-11.633,4.6-10.9z"/>
			<path style="fill-rule:evenodd;clip-rule:evenodd;fill:#12BDCC;" d="M5.45-1.1c0-0.433-0.133-1.566-0.4-3.4
				C4.75-2.667,4.6-1.533,4.6-1.1C4.6-0.367,4.75,0,5.05,0C5.317,0,5.45-0.367,5.45-1.1z"/>
			<path style="fill-rule:evenodd;clip-rule:evenodd;fill:#12BDCC;" d="M9.15-6.55L6.3-6l2.85,0.55c0.6,0,0.9-0.183,0.9-0.55
				S9.75-6.55,9.15-6.55z"/>
			<path style="fill-rule:evenodd;clip-rule:evenodd;fill:#12BDCC;" d="M0.95-5.45C1.283-5.45,2.233-5.633,3.8-6
				C2.233-6.367,1.283-6.55,0.95-6.55C0.317-6.55,0-6.367,0-6S0.317-5.45,0.95-5.45z"/>
			<path style="fill-rule:evenodd;clip-rule:evenodd;fill:#12BDCC;" d="M7.6-9.85l-1.7,2.8L8.25-9.1C8.683-9.6,8.8-9.983,8.6-10.25
				C8.4-10.45,8.067-10.317,7.6-9.85z"/>
			<path style="fill-rule:evenodd;clip-rule:evenodd;fill:#12BDCC;" d="M2.45-2.15c0.233-0.3,0.8-1.233,1.7-2.8
				C2.85-3.883,2.067-3.2,1.8-2.9C1.333-2.4,1.233-2.017,1.5-1.75C1.7-1.517,2.017-1.65,2.45-2.15z"/>
			<path style="fill-rule:evenodd;clip-rule:evenodd;fill:#12BDCC;" d="M8.25-2.9C8.017-3.2,7.233-3.883,5.9-4.95
				c0.9,1.567,1.467,2.5,1.7,2.8c0.467,0.467,0.8,0.6,1,0.4C8.8-2.017,8.683-2.4,8.25-2.9z"/>
			<path style="fill-rule:evenodd;clip-rule:evenodd;fill:#12BDCC;" d="M1.8-9.1l2.35,2.05l-1.7-2.8c-0.434-0.5-0.75-0.633-0.95-0.4
				c-0.1,0.1-0.117,0.267-0.05,0.5C1.517-9.517,1.633-9.3,1.8-9.1z"/>
		</g>
	</g>
</symbol>
<symbol  id="flash0.ai_x2F_Layer_3_x2F__x3C_Group_x3E__x5F_23" viewBox="0 -12 10.05 12">
	<g id="Layer_1_17_">
		<g>
			<path style="fill-rule:evenodd;clip-rule:evenodd;fill:#12BDCC;" d="M4.55-10.9L5-7.5l0.45-3.4C5.45-11.633,5.3-12,5-12
				S4.55-11.633,4.55-10.9z"/>
			<path style="fill-rule:evenodd;clip-rule:evenodd;fill:#12BDCC;" d="M5.45-1.1C5.45-1.5,5.3-2.633,5-4.5
				c-0.3,1.867-0.45,3-0.45,3.4C4.55-0.367,4.7,0,5,0S5.45-0.367,5.45-1.1z"/>
			<path style="fill-rule:evenodd;clip-rule:evenodd;fill:#12BDCC;" d="M9.1-6.5L6.25-6L9.1-5.45c0.633,0,0.95-0.183,0.95-0.55
				C10.05-6.333,9.733-6.5,9.1-6.5z"/>
			<path style="fill-rule:evenodd;clip-rule:evenodd;fill:#12BDCC;" d="M0.9-5.45c0.367,0,1.317-0.183,2.85-0.55
				C2.217-6.333,1.267-6.5,0.9-6.5C0.3-6.5,0-6.333,0-6C0-5.633,0.3-5.45,0.9-5.45z"/>
			<path style="fill-rule:evenodd;clip-rule:evenodd;fill:#12BDCC;" d="M7.6-9.8L5.9-7.05l2.3-2c0.5-0.534,0.617-0.934,0.35-1.2
				c-0.066-0.1-0.2-0.1-0.4,0C7.95-10.183,7.767-10.033,7.6-9.8z"/>
			<path style="fill-rule:evenodd;clip-rule:evenodd;fill:#12BDCC;" d="M2.45-2.15c0.233-0.3,0.8-1.233,1.7-2.8
				C2.817-3.883,2.033-3.2,1.8-2.9C1.367-2.4,1.25-2.017,1.45-1.75C1.65-1.55,1.983-1.683,2.45-2.15z"/>
			<path style="fill-rule:evenodd;clip-rule:evenodd;fill:#12BDCC;" d="M8.2-2.9c-0.233-0.3-1-0.983-2.3-2.05
				c0.9,1.567,1.467,2.5,1.7,2.8c0.433,0.5,0.75,0.633,0.95,0.4c0.1-0.1,0.117-0.267,0.05-0.5C8.533-2.483,8.4-2.7,8.2-2.9z"/>
			<path style="fill-rule:evenodd;clip-rule:evenodd;fill:#12BDCC;" d="M1.8-9.05l2.35,2L2.45-9.8c-0.467-0.5-0.8-0.65-1-0.45
				C1.25-9.983,1.367-9.583,1.8-9.05z"/>
		</g>
	</g>
</symbol>
<symbol  id="flash0.ai_x2F_Layer_3_x2F__x3C_Group_x3E__x5F_24" viewBox="0 -12 10.05 12">
	<g id="Layer_1_16_">
		<g>
			<path style="fill-rule:evenodd;clip-rule:evenodd;fill:#12BDCC;" d="M4.55-10.9L5-7.5l0.45-3.4C5.45-11.633,5.3-12,5-12
				S4.55-11.633,4.55-10.9z"/>
			<path style="fill-rule:evenodd;clip-rule:evenodd;fill:#12BDCC;" d="M5.45-1.1C5.45-1.533,5.3-2.667,5-4.5
				C4.7-2.667,4.55-1.533,4.55-1.1C4.55-0.367,4.7,0,5,0S5.45-0.367,5.45-1.1z"/>
			<path style="fill-rule:evenodd;clip-rule:evenodd;fill:#12BDCC;" d="M9.1-6.55L6.25-6L9.1-5.45c0.633,0,0.95-0.183,0.95-0.55
				S9.733-6.55,9.1-6.55z"/>
			<path style="fill-rule:evenodd;clip-rule:evenodd;fill:#12BDCC;" d="M0.9-5.45c0.367,0,1.317-0.183,2.85-0.55
				C2.217-6.367,1.267-6.55,0.9-6.55C0.3-6.55,0-6.367,0-6S0.3-5.45,0.9-5.45z"/>
			<path style="fill-rule:evenodd;clip-rule:evenodd;fill:#12BDCC;" d="M7.6-9.85l-1.7,2.8L8.2-9.1c0.2-0.2,0.333-0.417,0.4-0.65
				c0.066-0.233,0.05-0.4-0.05-0.5C8.35-10.483,8.033-10.35,7.6-9.85z"/>
			<path style="fill-rule:evenodd;clip-rule:evenodd;fill:#12BDCC;" d="M2.45-2.15c0.233-0.3,0.8-1.233,1.7-2.8
				C2.817-3.883,2.033-3.2,1.8-2.9C1.367-2.4,1.25-2.017,1.45-1.75C1.65-1.55,1.983-1.683,2.45-2.15z"/>
			<path style="fill-rule:evenodd;clip-rule:evenodd;fill:#12BDCC;" d="M8.2-2.9c-0.233-0.3-1-0.983-2.3-2.05
				c0.9,1.567,1.467,2.5,1.7,2.8c0.433,0.5,0.75,0.633,0.95,0.4c0.1-0.1,0.117-0.267,0.05-0.5C8.533-2.483,8.4-2.7,8.2-2.9z"/>
			<path style="fill-rule:evenodd;clip-rule:evenodd;fill:#12BDCC;" d="M1.8-9.1l2.35,2.05l-1.7-2.8c-0.467-0.467-0.8-0.6-1-0.4
				C1.25-9.983,1.367-9.6,1.8-9.1z"/>
		</g>
	</g>
</symbol>
<symbol  id="flash0.ai_x2F_Layer_3_x2F__x3C_Group_x3E__x5F_25" viewBox="0 -12 10.05 12">
	<g id="Layer_1_15_">
		<g>
			<path style="fill-rule:evenodd;clip-rule:evenodd;fill:#12BDCC;" d="M4.55-10.85L5-7.5l0.45-3.35C5.45-11.617,5.3-12,5-12
				S4.55-11.617,4.55-10.85z"/>
			<path style="fill-rule:evenodd;clip-rule:evenodd;fill:#12BDCC;" d="M5.45-1.1C5.45-1.5,5.3-2.633,5-4.5
				c-0.3,1.867-0.45,3-0.45,3.4C4.55-0.367,4.7,0,5,0S5.45-0.367,5.45-1.1z"/>
			<path style="fill-rule:evenodd;clip-rule:evenodd;fill:#12BDCC;" d="M9.1-6.5L6.25-6L9.1-5.45c0.633,0,0.95-0.183,0.95-0.55
				C10.05-6.333,9.733-6.5,9.1-6.5z"/>
			<path style="fill-rule:evenodd;clip-rule:evenodd;fill:#12BDCC;" d="M0.9-5.45c0.367,0,1.317-0.183,2.85-0.55
				C2.217-6.333,1.267-6.5,0.9-6.5C0.3-6.5,0-6.333,0-6C0-5.633,0.3-5.45,0.9-5.45z"/>
			<path style="fill-rule:evenodd;clip-rule:evenodd;fill:#12BDCC;" d="M7.6-9.8L5.9-7.05l2.35-2c0.4-0.534,0.5-0.934,0.3-1.2
				c-0.066-0.1-0.2-0.1-0.4,0C7.95-10.183,7.767-10.033,7.6-9.8z"/>
			<path style="fill-rule:evenodd;clip-rule:evenodd;fill:#12BDCC;" d="M2.45-2.15c0.233-0.3,0.8-1.233,1.7-2.8
				C2.817-3.883,2.033-3.2,1.8-2.9C1.367-2.4,1.25-2.017,1.45-1.75C1.65-1.55,1.983-1.683,2.45-2.15z"/>
			<path style="fill-rule:evenodd;clip-rule:evenodd;fill:#12BDCC;" d="M8.25-2.9C7.983-3.2,7.2-3.883,5.9-4.95
				c0.9,1.567,1.467,2.5,1.7,2.8c0.433,0.5,0.75,0.633,0.95,0.4C8.817-2.017,8.717-2.4,8.25-2.9z"/>
			<path style="fill-rule:evenodd;clip-rule:evenodd;fill:#12BDCC;" d="M1.8-9.05l2.35,2L2.45-9.8c-0.467-0.5-0.8-0.65-1-0.45
				C1.283-9.983,1.4-9.583,1.8-9.05z"/>
		</g>
	</g>
</symbol>
<symbol  id="flash0.ai_x2F_Layer_3_x2F__x3C_Group_x3E__x5F_26" viewBox="0 -12 10.05 12">
	<g id="Layer_1_14_">
		<g>
			<path style="fill-rule:evenodd;clip-rule:evenodd;fill:#12BDCC;" d="M4.55-10.9L5-7.5l0.45-3.4C5.45-11.633,5.3-12,5-12
				S4.55-11.633,4.55-10.9z"/>
			<path style="fill-rule:evenodd;clip-rule:evenodd;fill:#12BDCC;" d="M5.45-1.15c0-0.4-0.15-1.533-0.45-3.4
				c-0.3,1.867-0.45,3-0.45,3.4C4.55-0.383,4.7,0,5,0S5.45-0.383,5.45-1.15z"/>
			<path style="fill-rule:evenodd;clip-rule:evenodd;fill:#12BDCC;" d="M9.1-6.55L6.25-6L9.1-5.5c0.633,0,0.95-0.167,0.95-0.5
				C10.05-6.367,9.733-6.55,9.1-6.55z"/>
			<path style="fill-rule:evenodd;clip-rule:evenodd;fill:#12BDCC;" d="M0.9-5.5c0.367,0,1.317-0.167,2.85-0.5
				C2.217-6.367,1.267-6.55,0.9-6.55C0.3-6.55,0-6.367,0-6C0-5.667,0.3-5.5,0.9-5.5z"/>
			<path style="fill-rule:evenodd;clip-rule:evenodd;fill:#12BDCC;" d="M7.6-9.85l-1.7,2.8L8.2-9.1
				c0.466-0.533,0.583-0.917,0.35-1.15c-0.066-0.1-0.2-0.117-0.4-0.05C7.95-10.233,7.767-10.083,7.6-9.85z"/>
			<path style="fill-rule:evenodd;clip-rule:evenodd;fill:#12BDCC;" d="M2.45-2.2c0.233-0.267,0.8-1.183,1.7-2.75
				c-1.333,1.067-2.117,1.733-2.35,2c-0.4,0.534-0.517,0.934-0.35,1.2C1.65-1.55,1.983-1.7,2.45-2.2z"/>
			<path style="fill-rule:evenodd;clip-rule:evenodd;fill:#12BDCC;" d="M8.2-2.95c-0.233-0.267-1-0.933-2.3-2L7.6-2.2
				c0.167,0.233,0.35,0.383,0.55,0.45c0.2,0.1,0.333,0.1,0.4,0C8.783-2.05,8.667-2.45,8.2-2.95z"/>
			<path style="fill-rule:evenodd;clip-rule:evenodd;fill:#12BDCC;" d="M1.8-9.1l2.35,2.05l-1.7-2.8c-0.434-0.5-0.767-0.633-1-0.4
				C1.283-10.017,1.4-9.633,1.8-9.1z"/>
		</g>
	</g>
</symbol>
<symbol  id="flash0.ai_x2F_Layer_3_x2F__x3C_Group_x3E__x5F_27" viewBox="0 -11.95 10 11.95">
	<g id="Layer_1_13_">
		<g>
			<path style="fill-rule:evenodd;clip-rule:evenodd;fill:#12BDCC;" d="M4.55-10.85L5-7.45l0.45-3.4c0-0.733-0.15-1.1-0.45-1.1
				S4.55-11.583,4.55-10.85z"/>
			<path style="fill-rule:evenodd;clip-rule:evenodd;fill:#12BDCC;" d="M5.45-1.1C5.45-1.5,5.3-2.633,5-4.5
				c-0.3,1.867-0.45,3-0.45,3.4C4.55-0.367,4.7,0,5,0S5.45-0.367,5.45-1.1z"/>
			<path style="fill-rule:evenodd;clip-rule:evenodd;fill:#12BDCC;" d="M9.1-6.5L6.25-5.95l2.85,0.5c0.6,0,0.9-0.167,0.9-0.5
				C10-6.317,9.7-6.5,9.1-6.5z"/>
			<path style="fill-rule:evenodd;clip-rule:evenodd;fill:#12BDCC;" d="M0.9-5.45c0.333,0,1.283-0.167,2.85-0.5
				C2.183-6.317,1.233-6.5,0.9-6.5C0.3-6.5,0-6.317,0-5.95C0-5.617,0.3-5.45,0.9-5.45z"/>
			<path style="fill-rule:evenodd;clip-rule:evenodd;fill:#12BDCC;" d="M7.6-9.8L5.9-7l2.3-2.05c0.4-0.534,0.517-0.917,0.35-1.15
				c-0.066-0.1-0.2-0.117-0.4-0.05C7.95-10.183,7.767-10.033,7.6-9.8z"/>
			<path style="fill-rule:evenodd;clip-rule:evenodd;fill:#12BDCC;" d="M2.4-2.15c0.267-0.3,0.833-1.217,1.7-2.75
				c-1.3,1.033-2.067,1.7-2.3,2C1.367-2.333,1.25-1.95,1.45-1.75c0.066,0.1,0.2,0.117,0.4,0.05C2.05-1.767,2.233-1.917,2.4-2.15z"/>
			<path style="fill-rule:evenodd;clip-rule:evenodd;fill:#12BDCC;" d="M8.2-2.9c-0.233-0.3-1-0.967-2.3-2
				c0.867,1.533,1.434,2.45,1.7,2.75C7.767-1.917,7.95-1.767,8.15-1.7c0.2,0.067,0.333,0.05,0.4-0.05C8.717-1.983,8.6-2.367,8.2-2.9
				z"/>
			<path style="fill-rule:evenodd;clip-rule:evenodd;fill:#12BDCC;" d="M1.8-9.05L4.1-7L2.4-9.8c-0.167-0.233-0.35-0.383-0.55-0.45
				c-0.2-0.067-0.333-0.05-0.4,0.05C1.25-10,1.367-9.617,1.8-9.05z"/>
		</g>
	</g>
</symbol>
<symbol  id="flash0.ai_x2F_Layer_3_x2F__x3C_Group_x3E__x5F_28" viewBox="0 -20.4 17.1 20.4">
	<g id="Layer_1_12_">
		<g>
			<path style="fill-rule:evenodd;clip-rule:evenodd;fill:#12BDCC;" d="M7.8-18.5c0,0.433,0.133,1.533,0.4,3.3l0.35,2.5l0.4-2.5
				c0.233-1.767,0.35-2.867,0.35-3.3c0-0.533-0.066-0.983-0.2-1.35c-0.167-0.367-0.35-0.55-0.55-0.55c-0.2,0-0.367,0.183-0.5,0.55
				C7.883-19.483,7.8-19.033,7.8-18.5z"/>
			<path style="fill-rule:evenodd;clip-rule:evenodd;fill:#12BDCC;" d="M9.3-1.9c0-0.7-0.25-2.617-0.75-5.75
				C8.05-4.517,7.8-2.6,7.8-1.9c0,0.533,0.083,0.983,0.25,1.35C8.183-0.183,8.35,0,8.55,0c0.2,0,0.383-0.183,0.55-0.55
				C9.233-0.917,9.3-1.367,9.3-1.9z"/>
			<path style="fill-rule:evenodd;clip-rule:evenodd;fill:#12BDCC;" d="M15.5-11.1c-0.367,0-1.283,0.15-2.75,0.45l-2.1,0.45
				l4.85,0.9c0.433,0,0.817-0.083,1.15-0.25c0.3-0.2,0.45-0.417,0.45-0.65c0-0.267-0.15-0.483-0.45-0.65
				C16.317-11.017,15.933-11.1,15.5-11.1z"/>
			<path style="fill-rule:evenodd;clip-rule:evenodd;fill:#12BDCC;" d="M1.6-9.3c0.6,0,2.217-0.3,4.85-0.9
				c-2.633-0.6-4.25-0.9-4.85-0.9c-0.434,0-0.8,0.083-1.1,0.25C0.167-10.65,0-10.433,0-10.2c0,0.233,0.167,0.45,0.5,0.65
				C0.8-9.383,1.167-9.3,1.6-9.3z"/>
			<path style="fill-rule:evenodd;clip-rule:evenodd;fill:#12BDCC;" d="M12.95-16.7c-0.267,0.3-0.833,1.184-1.7,2.65L10.05-12
				l1.75-1.45c1.233-1.033,1.967-1.7,2.2-2c0.3-0.367,0.517-0.733,0.65-1.1c0.1-0.4,0.083-0.684-0.05-0.85
				c-0.167-0.167-0.4-0.184-0.7-0.05C13.567-17.317,13.25-17.067,12.95-16.7z"/>
			<path style="fill-rule:evenodd;clip-rule:evenodd;fill:#12BDCC;" d="M4.15-3.7c0.434-0.5,1.4-2.066,2.9-4.7
				C4.817-6.6,3.5-5.45,3.1-4.95c-0.3,0.333-0.5,0.7-0.6,1.1C2.367-3.45,2.367-3.167,2.5-3c0.167,0.167,0.4,0.183,0.7,0.05
				C3.533-3.083,3.85-3.333,4.15-3.7z"/>
			<path style="fill-rule:evenodd;clip-rule:evenodd;fill:#12BDCC;" d="M14-4.95c-0.4-0.5-1.717-1.65-3.95-3.45
				c1.5,2.633,2.467,4.2,2.9,4.7c0.3,0.367,0.617,0.617,0.95,0.75c0.3,0.133,0.533,0.117,0.7-0.05c0.133-0.167,0.15-0.45,0.05-0.85
				C14.517-4.217,14.3-4.583,14-4.95z"/>
			<path style="fill-rule:evenodd;clip-rule:evenodd;fill:#12BDCC;" d="M3.1-15.45c0.267,0.3,1,0.967,2.2,2
				c0.6,0.5,1.184,0.983,1.75,1.45l-1.2-2.05c-0.867-1.467-1.434-2.35-1.7-2.65c-0.3-0.367-0.617-0.617-0.95-0.75
				c-0.3-0.133-0.534-0.117-0.7,0.05c-0.133,0.167-0.133,0.45,0,0.85C2.6-16.15,2.8-15.783,3.1-15.45z"/>
		</g>
	</g>
</symbol>
<symbol  id="flash0.ai_x2F_Layer_3_x2F__x3C_Group_x3E__x5F_29" viewBox="0 -20.35 17.05 20.35">
	<g id="Layer_1_11_">
		<g>
			<path style="fill-rule:evenodd;clip-rule:evenodd;fill:#12BDCC;" d="M7.75-18.45c0,0.434,0.133,1.517,0.4,3.25l0.35,2.5l0.4-2.5
				c0.233-1.733,0.35-2.816,0.35-3.25c0-1.267-0.25-1.9-0.75-1.9c-0.2,0-0.367,0.184-0.5,0.55C7.833-19.433,7.75-18.983,7.75-18.45z
				"/>
			<path style="fill-rule:evenodd;clip-rule:evenodd;fill:#12BDCC;" d="M9.25-1.85c0-0.7-0.25-2.633-0.75-5.8
				C8-4.483,7.75-2.55,7.75-1.85c0,0.533,0.083,0.967,0.25,1.3C8.133-0.183,8.3,0,8.5,0C9,0,9.25-0.617,9.25-1.85z"/>
			<path style="fill-rule:evenodd;clip-rule:evenodd;fill:#12BDCC;" d="M15.45-11.05c-0.367,0-1.267,0.15-2.7,0.45l-2.1,0.45
				l2.1,0.45c1.433,0.3,2.333,0.45,2.7,0.45c0.433,0,0.816-0.083,1.15-0.25c0.3-0.2,0.45-0.417,0.45-0.65
				c0-0.267-0.15-0.483-0.45-0.65C16.267-10.967,15.883-11.05,15.45-11.05z"/>
			<path style="fill-rule:evenodd;clip-rule:evenodd;fill:#12BDCC;" d="M1.55-9.25c0.6,0,2.217-0.3,4.85-0.9
				c-2.633-0.6-4.25-0.9-4.85-0.9c-0.433,0-0.8,0.083-1.1,0.25C0.15-10.633,0-10.417,0-10.15C0-9.917,0.15-9.7,0.45-9.5
				C0.75-9.333,1.117-9.25,1.55-9.25z"/>
			<path style="fill-rule:evenodd;clip-rule:evenodd;fill:#12BDCC;" d="M12.9-16.65l-2.9,4.7l1.75-1.45c1.233-1.033,1.967-1.7,2.2-2
				c0.333-0.367,0.55-0.75,0.65-1.15c0.133-0.367,0.117-0.633-0.05-0.8c-0.167-0.167-0.4-0.183-0.7-0.05
				C13.517-17.267,13.2-17.017,12.9-16.65z"/>
			<path style="fill-rule:evenodd;clip-rule:evenodd;fill:#12BDCC;" d="M4.15-3.65C4.55-4.15,5.5-5.733,7-8.4
				C4.8-6.567,3.483-5.417,3.05-4.95c-0.3,0.367-0.5,0.75-0.6,1.15C2.35-3.4,2.367-3.117,2.5-2.95C2.633-2.783,2.867-2.767,3.2-2.9
				C3.5-3.033,3.817-3.283,4.15-3.65z"/>
			<path style="fill-rule:evenodd;clip-rule:evenodd;fill:#12BDCC;" d="M13.95-4.95C13.55-5.417,12.233-6.567,10-8.4
				c1.533,2.667,2.5,4.25,2.9,4.75c0.3,0.367,0.617,0.617,0.95,0.75c0.3,0.133,0.533,0.117,0.7-0.05
				c0.167-0.167,0.184-0.45,0.05-0.85C14.5-4.2,14.283-4.583,13.95-4.95z"/>
			<path style="fill-rule:evenodd;clip-rule:evenodd;fill:#12BDCC;" d="M3.05-15.4c0.267,0.3,1,0.967,2.2,2
				c0.633,0.5,1.217,0.983,1.75,1.45L5.8-14c-0.833-1.467-1.383-2.35-1.65-2.65C3.817-17.017,3.5-17.267,3.2-17.4
				c-0.333-0.133-0.567-0.117-0.7,0.05c-0.133,0.167-0.15,0.434-0.05,0.8C2.55-16.15,2.75-15.767,3.05-15.4z"/>
		</g>
	</g>
</symbol>
<symbol  id="flash0.ai_x2F_Layer_3_x2F__x3C_Group_x3E__x5F_3" viewBox="0 -7.9 6.6 7.9">
	<g id="Layer_1_37_">
		<g>
			<path style="fill-rule:evenodd;clip-rule:evenodd;fill:#12BDCC;" d="M3-7.15L3.3-4.9l0.3-2.25c0-0.5-0.1-0.75-0.3-0.75
				C3.1-7.9,3-7.65,3-7.15z"/>
			<path style="fill-rule:evenodd;clip-rule:evenodd;fill:#12BDCC;" d="M3.6-0.7c0-0.3-0.1-1.05-0.3-2.25C3.1-1.75,3-1,3-0.7
				C3-0.233,3.1,0,3.3,0C3.5,0,3.6-0.233,3.6-0.7z"/>
			<path style="fill-rule:evenodd;clip-rule:evenodd;fill:#12BDCC;" d="M6-4.3L4.1-3.95L6-3.6c0.4,0,0.6-0.117,0.6-0.35
				C6.6-4.183,6.4-4.3,6-4.3z"/>
			<path style="fill-rule:evenodd;clip-rule:evenodd;fill:#12BDCC;" d="M0.6-3.6c0.233,0,0.867-0.117,1.9-0.35
				C1.467-4.183,0.833-4.3,0.6-4.3C0.2-4.3,0-4.183,0-3.95C0-3.717,0.2-3.6,0.6-3.6z"/>
			<path style="fill-rule:evenodd;clip-rule:evenodd;fill:#12BDCC;" d="M5-6.45l-1.1,1.8l1.5-1.3C5.7-6.317,5.783-6.567,5.65-6.7
				C5.483-6.867,5.267-6.783,5-6.45z"/>
			<path style="fill-rule:evenodd;clip-rule:evenodd;fill:#12BDCC;" d="M1.6-1.4c0.167-0.2,0.533-0.817,1.1-1.85
				C1.867-2.55,1.367-2.1,1.2-1.9C0.933-1.567,0.85-1.317,0.95-1.15C1.083-1.017,1.3-1.1,1.6-1.4z"/>
			<path style="fill-rule:evenodd;clip-rule:evenodd;fill:#12BDCC;" d="M5.4-1.9C5.233-2.1,4.733-2.55,3.9-3.25
				C4.467-2.217,4.833-1.6,5-1.4c0.3,0.3,0.517,0.383,0.65,0.25C5.75-1.317,5.667-1.567,5.4-1.9z"/>
			<path style="fill-rule:evenodd;clip-rule:evenodd;fill:#12BDCC;" d="M1.2-5.95l1.5,1.3l-1.1-1.8
				C1.333-6.783,1.117-6.867,0.95-6.7C0.817-6.567,0.9-6.317,1.2-5.95z"/>
		</g>
	</g>
</symbol>
<symbol  id="flash0.ai_x2F_Layer_3_x2F__x3C_Group_x3E__x5F_30" viewBox="0 -20.4 17.05 20.4">
	<g id="Layer_1_10_">
		<g>
			<path style="fill-rule:evenodd;clip-rule:evenodd;fill:#12BDCC;" d="M7.8-18.5c0,0.433,0.133,1.517,0.4,3.25l0.35,2.5l0.4-2.5
				c0.233-1.733,0.35-2.817,0.35-3.25c0-0.533-0.066-0.983-0.2-1.35c-0.167-0.367-0.35-0.55-0.55-0.55
				C8.05-20.4,7.8-19.767,7.8-18.5z"/>
			<path style="fill-rule:evenodd;clip-rule:evenodd;fill:#12BDCC;" d="M9.3-1.9c0-0.7-0.25-2.633-0.75-5.8
				C8.05-4.533,7.8-2.6,7.8-1.9C7.8-0.633,8.05,0,8.55,0c0.2,0,0.383-0.183,0.55-0.55C9.233-0.917,9.3-1.367,9.3-1.9z"/>
			<path style="fill-rule:evenodd;clip-rule:evenodd;fill:#12BDCC;" d="M15.5-11.1c-0.367,0-1.283,0.15-2.75,0.45l-2.1,0.45
				l2.1,0.45c1.467,0.3,2.383,0.45,2.75,0.45c0.433,0,0.8-0.083,1.1-0.25c0.3-0.2,0.45-0.417,0.45-0.65
				c0-0.267-0.15-0.483-0.45-0.65C16.3-11.017,15.933-11.1,15.5-11.1z"/>
			<path style="fill-rule:evenodd;clip-rule:evenodd;fill:#12BDCC;" d="M1.6-9.3c0.566,0,2.167-0.3,4.8-0.9
				c-2.633-0.6-4.233-0.9-4.8-0.9c-0.434,0-0.817,0.083-1.15,0.25C0.15-10.683,0-10.467,0-10.2c0,0.233,0.15,0.45,0.45,0.65
				C0.783-9.383,1.167-9.3,1.6-9.3z"/>
			<path style="fill-rule:evenodd;clip-rule:evenodd;fill:#12BDCC;" d="M12.9-16.7L10.05-12l1.75-1.45c1.2-1.033,1.934-1.7,2.2-2
				c0.3-0.367,0.5-0.733,0.6-1.1c0.133-0.4,0.117-0.684-0.05-0.85c-0.133-0.167-0.367-0.184-0.7-0.05
				C13.55-17.317,13.233-17.067,12.9-16.7z"/>
			<path style="fill-rule:evenodd;clip-rule:evenodd;fill:#12BDCC;" d="M4.15-3.7c0.4-0.5,1.367-2.066,2.9-4.7
				C4.817-6.6,3.5-5.467,3.1-5C2.767-4.633,2.55-4.25,2.45-3.85C2.317-3.45,2.333-3.167,2.5-3s0.4,0.183,0.7,0.05
				C3.533-3.083,3.85-3.333,4.15-3.7z"/>
			<path style="fill-rule:evenodd;clip-rule:evenodd;fill:#12BDCC;" d="M14-5c-0.433-0.467-1.75-1.6-3.95-3.4
				c1.5,2.633,2.45,4.2,2.85,4.7c0.333,0.367,0.65,0.617,0.95,0.75c0.333,0.133,0.566,0.117,0.7-0.05
				c0.167-0.167,0.184-0.45,0.05-0.85C14.5-4.25,14.3-4.633,14-5z"/>
			<path style="fill-rule:evenodd;clip-rule:evenodd;fill:#12BDCC;" d="M3.1-15.45c0.267,0.3,1,0.967,2.2,2
				c0.6,0.5,1.184,0.983,1.75,1.45l-2.9-4.7c-0.3-0.367-0.617-0.617-0.95-0.75c-0.3-0.133-0.534-0.117-0.7,0.05
				c-0.167,0.167-0.183,0.45-0.05,0.85C2.55-16.15,2.767-15.783,3.1-15.45z"/>
		</g>
	</g>
</symbol>
<symbol  id="flash0.ai_x2F_Layer_3_x2F__x3C_Group_x3E__x5F_31" viewBox="0 -19.15 16.05 19.15">
	<g id="Layer_1_9_">
		<g>
			<path style="fill-rule:evenodd;clip-rule:evenodd;fill:#12BDCC;" d="M7.3-17.35l0.7,5.4l0.7-5.4c0-0.5-0.067-0.933-0.2-1.3
				c-0.133-0.333-0.3-0.5-0.5-0.5s-0.367,0.167-0.5,0.5C7.367-18.283,7.3-17.85,7.3-17.35z"/>
			<path style="fill-rule:evenodd;clip-rule:evenodd;fill:#12BDCC;" d="M8.7-1.75C8.7-2.417,8.467-4.233,8-7.2
				C7.533-4.233,7.3-2.417,7.3-1.75C7.3-0.583,7.533,0,8,0S8.7-0.583,8.7-1.75z"/>
			<path style="fill-rule:evenodd;clip-rule:evenodd;fill:#12BDCC;" d="M14.55-10.4c-0.333,0-1.183,0.133-2.55,0.4l-2,0.45l2,0.4
				c1.367,0.3,2.217,0.45,2.55,0.45c0.4,0,0.75-0.083,1.05-0.25c0.3-0.167,0.45-0.367,0.45-0.6c0-0.233-0.15-0.434-0.45-0.6
				C15.3-10.317,14.95-10.4,14.55-10.4z"/>
			<path style="fill-rule:evenodd;clip-rule:evenodd;fill:#12BDCC;" d="M1.45-8.7C2.017-8.7,3.533-8.983,6-9.55
				c-2.467-0.567-3.983-0.85-4.55-0.85c-0.4,0-0.733,0.083-1,0.25C0.15-9.983,0-9.783,0-9.55c0,0.233,0.15,0.433,0.45,0.6
				C0.717-8.783,1.05-8.7,1.45-8.7z"/>
			<path style="fill-rule:evenodd;clip-rule:evenodd;fill:#12BDCC;" d="M12.15-15.65c-0.233,0.267-0.767,1.083-1.6,2.45L9.4-11.25
				l3.75-3.2c0.267-0.367,0.467-0.733,0.6-1.1c0.1-0.367,0.083-0.633-0.05-0.8c-0.167-0.167-0.4-0.183-0.7-0.05
				C12.7-16.233,12.417-15.983,12.15-15.65z"/>
			<path style="fill-rule:evenodd;clip-rule:evenodd;fill:#12BDCC;" d="M3.9-3.45c0.367-0.466,1.267-1.933,2.7-4.4
				c-2.1,1.667-3.333,2.733-3.7,3.2C2.6-4.317,2.4-3.967,2.3-3.6C2.2-3.233,2.217-2.967,2.35-2.8C2.483-2.633,2.7-2.617,3-2.75
				C3.3-2.85,3.6-3.083,3.9-3.45z"/>
			<path style="fill-rule:evenodd;clip-rule:evenodd;fill:#12BDCC;" d="M13.15-4.65c-0.4-0.467-1.65-1.533-3.75-3.2
				c1.434,2.467,2.35,3.934,2.75,4.4c0.267,0.367,0.55,0.6,0.85,0.7c0.333,0.133,0.567,0.117,0.7-0.05
				c0.133-0.167,0.15-0.434,0.05-0.8C13.617-3.967,13.417-4.317,13.15-4.65z"/>
			<path style="fill-rule:evenodd;clip-rule:evenodd;fill:#12BDCC;" d="M2.9-14.45c0.233,0.267,0.917,0.883,2.05,1.85
				c0.566,0.467,1.117,0.917,1.65,1.35L5.45-13.2c-0.8-1.367-1.317-2.183-1.55-2.45C3.6-15.983,3.3-16.233,3-16.4
				c-0.3-0.133-0.517-0.117-0.65,0.05c-0.133,0.167-0.15,0.434-0.05,0.8C2.4-15.183,2.6-14.817,2.9-14.45z"/>
		</g>
	</g>
</symbol>
<symbol  id="flash0.ai_x2F_Layer_3_x2F__x3C_Group_x3E__x5F_32" viewBox="0 -19.15 16.05 19.15">
	<g id="Layer_1_8_">
		<g>
			<path style="fill-rule:evenodd;clip-rule:evenodd;fill:#12BDCC;" d="M7.3-17.4L8-11.95l0.35-2.35C8.583-15.967,8.7-17,8.7-17.4
				c0-0.467-0.067-0.883-0.2-1.25c-0.133-0.333-0.3-0.5-0.5-0.5s-0.367,0.167-0.5,0.5C7.367-18.283,7.3-17.867,7.3-17.4z"/>
			<path style="fill-rule:evenodd;clip-rule:evenodd;fill:#12BDCC;" d="M8.7-1.8c0-0.633-0.233-2.434-0.7-5.4
				C7.533-4.233,7.3-2.433,7.3-1.8c0,0.5,0.067,0.917,0.2,1.25C7.633-0.183,7.8,0,8,0s0.367-0.183,0.5-0.55
				C8.633-0.883,8.7-1.3,8.7-1.8z"/>
			<path style="fill-rule:evenodd;clip-rule:evenodd;fill:#12BDCC;" d="M14.55-10.45c-0.333,0-1.183,0.133-2.55,0.4L10-9.6l2,0.4
				c1.367,0.3,2.217,0.45,2.55,0.45c0.4,0,0.75-0.083,1.05-0.25c0.3-0.167,0.45-0.367,0.45-0.6s-0.15-0.433-0.45-0.6
				C15.3-10.367,14.95-10.45,14.55-10.45z"/>
			<path style="fill-rule:evenodd;clip-rule:evenodd;fill:#12BDCC;" d="M1.45-8.75C2.017-8.75,3.533-9.033,6-9.6
				c-2.467-0.566-3.983-0.85-4.55-0.85c-0.4,0-0.733,0.083-1,0.25C0.15-10.033,0-9.833,0-9.6C0-9.033,0.483-8.75,1.45-8.75z"/>
			<path style="fill-rule:evenodd;clip-rule:evenodd;fill:#12BDCC;" d="M12.15-15.7c-0.233,0.3-0.767,1.133-1.6,2.5L9.4-11.25
				l1.65-1.35c1.167-0.967,1.867-1.6,2.1-1.9c0.667-0.833,0.85-1.45,0.55-1.85c-0.133-0.167-0.367-0.183-0.7-0.05
				C12.7-16.3,12.417-16.067,12.15-15.7z"/>
			<path style="fill-rule:evenodd;clip-rule:evenodd;fill:#12BDCC;" d="M3.9-3.45C4.267-3.917,5.167-5.4,6.6-7.9
				C4.5-6.2,3.267-5.117,2.9-4.65C2.2-3.817,2.017-3.2,2.35-2.8C2.483-2.667,2.7-2.65,3-2.75C3.3-2.883,3.6-3.117,3.9-3.45z"/>
			<path style="fill-rule:evenodd;clip-rule:evenodd;fill:#12BDCC;" d="M13.15-4.65C12.75-5.117,11.5-6.2,9.4-7.9
				c1.434,2.5,2.35,3.983,2.75,4.45c0.267,0.333,0.55,0.567,0.85,0.7s0.533,0.117,0.7-0.05C14-3.2,13.817-3.817,13.15-4.65z"/>
			<path style="fill-rule:evenodd;clip-rule:evenodd;fill:#12BDCC;" d="M2.9-14.5c0.233,0.3,0.917,0.933,2.05,1.9
				c0.566,0.467,1.117,0.917,1.65,1.35L3.9-15.7c-0.3-0.367-0.6-0.6-0.9-0.7c-0.3-0.133-0.517-0.117-0.65,0.05
				C2.017-15.95,2.2-15.333,2.9-14.5z"/>
		</g>
	</g>
</symbol>
<symbol  id="flash0.ai_x2F_Layer_3_x2F__x3C_Group_x3E__x5F_33" viewBox="0 -19.15 16.05 19.15">
	<g id="Layer_1_7_">
		<g>
			<path style="fill-rule:evenodd;clip-rule:evenodd;fill:#12BDCC;" d="M7.3-17.4L8-11.95l0.35-2.35C8.583-15.967,8.7-17,8.7-17.4
				c0-0.467-0.067-0.883-0.2-1.25c-0.133-0.333-0.3-0.5-0.5-0.5s-0.367,0.167-0.5,0.5C7.367-18.283,7.3-17.867,7.3-17.4z"/>
			<path style="fill-rule:evenodd;clip-rule:evenodd;fill:#12BDCC;" d="M8.7-1.8c0-0.633-0.233-2.434-0.7-5.4
				C7.533-4.233,7.3-2.433,7.3-1.8c0,0.5,0.067,0.917,0.2,1.25C7.633-0.183,7.8,0,8,0s0.367-0.183,0.5-0.55
				C8.633-0.883,8.7-1.3,8.7-1.8z"/>
			<path style="fill-rule:evenodd;clip-rule:evenodd;fill:#12BDCC;" d="M14.55-10.45c-0.333,0-1.183,0.133-2.55,0.4L10-9.6l2,0.4
				c1.367,0.3,2.217,0.45,2.55,0.45c0.4,0,0.75-0.083,1.05-0.25c0.3-0.167,0.45-0.367,0.45-0.6s-0.15-0.433-0.45-0.6
				C15.3-10.367,14.95-10.45,14.55-10.45z"/>
			<path style="fill-rule:evenodd;clip-rule:evenodd;fill:#12BDCC;" d="M1.45-8.75C2.017-8.75,3.533-9.033,6-9.6
				c-2.467-0.566-3.983-0.85-4.55-0.85c-0.4,0-0.733,0.083-1,0.25C0.15-10.033,0-9.833,0-9.6C0-9.033,0.483-8.75,1.45-8.75z"/>
			<path style="fill-rule:evenodd;clip-rule:evenodd;fill:#12BDCC;" d="M12.15-15.7c-0.233,0.3-0.767,1.133-1.6,2.5L9.4-11.25
				l1.65-1.35c1.167-0.967,1.867-1.6,2.1-1.9c0.267-0.367,0.467-0.733,0.6-1.1c0.1-0.367,0.083-0.617-0.05-0.75
				c-0.133-0.167-0.367-0.183-0.7-0.05C12.7-16.3,12.417-16.067,12.15-15.7z"/>
			<path style="fill-rule:evenodd;clip-rule:evenodd;fill:#12BDCC;" d="M3.9-3.45C4.267-3.917,5.167-5.4,6.6-7.9
				C4.5-6.2,3.267-5.117,2.9-4.65C2.6-4.317,2.4-3.967,2.3-3.6C2.2-3.233,2.217-2.967,2.35-2.8C2.483-2.667,2.7-2.65,3-2.75
				C3.3-2.883,3.6-3.117,3.9-3.45z"/>
			<path style="fill-rule:evenodd;clip-rule:evenodd;fill:#12BDCC;" d="M13.15-4.65C12.75-5.117,11.5-6.2,9.4-7.9
				c1.434,2.5,2.35,3.983,2.75,4.45c0.267,0.333,0.55,0.567,0.85,0.7c0.333,0.1,0.567,0.083,0.7-0.05
				c0.133-0.167,0.15-0.434,0.05-0.8C13.617-3.967,13.417-4.317,13.15-4.65z"/>
			<path style="fill-rule:evenodd;clip-rule:evenodd;fill:#12BDCC;" d="M2.9-14.5c0.233,0.3,0.917,0.933,2.05,1.9
				c0.566,0.467,1.117,0.917,1.65,1.35L3.9-15.7c-0.3-0.367-0.6-0.6-0.9-0.7c-0.3-0.133-0.517-0.117-0.65,0.05
				C2.217-16.217,2.2-15.967,2.3-15.6C2.4-15.233,2.6-14.867,2.9-14.5z"/>
		</g>
	</g>
</symbol>
<symbol  id="flash0.ai_x2F_Layer_3_x2F__x3C_Group_x3E__x5F_34" viewBox="0 -19.2 16.05 19.2">
	<g id="Layer_1_6_">
		<g>
			<path style="fill-rule:evenodd;clip-rule:evenodd;fill:#12BDCC;" d="M7.35-17.4l0.7,5.4l0.35-2.35
				C8.633-15.983,8.75-17,8.75-17.4c0-1.2-0.233-1.8-0.7-1.8c-0.2,0-0.367,0.167-0.5,0.5C7.417-18.333,7.35-17.9,7.35-17.4z"/>
			<path style="fill-rule:evenodd;clip-rule:evenodd;fill:#12BDCC;" d="M8.75-1.8c0-0.667-0.233-2.467-0.7-5.4
				c-0.466,2.934-0.7,4.733-0.7,5.4c0,0.5,0.066,0.917,0.2,1.25C7.683-0.183,7.85,0,8.05,0c0.2,0,0.367-0.183,0.5-0.55
				C8.683-0.883,8.75-1.3,8.75-1.8z"/>
			<path style="fill-rule:evenodd;clip-rule:evenodd;fill:#12BDCC;" d="M14.6-10.45c-0.367,0-1.233,0.133-2.6,0.4L10.05-9.6L12-9.2
				c1.367,0.3,2.233,0.45,2.6,0.45c0.4,0,0.75-0.083,1.05-0.25c0.267-0.167,0.4-0.367,0.4-0.6s-0.133-0.433-0.4-0.6
				C15.35-10.367,15-10.45,14.6-10.45z"/>
			<path style="fill-rule:evenodd;clip-rule:evenodd;fill:#12BDCC;" d="M1.5-8.75c0.567,0,2.083-0.283,4.55-0.85
				c-2.466-0.566-3.983-0.85-4.55-0.85c-0.4,0-0.75,0.083-1.05,0.25C0.15-10.033,0-9.833,0-9.6S0.15-9.167,0.45-9
				C0.75-8.833,1.1-8.75,1.5-8.75z"/>
			<path style="fill-rule:evenodd;clip-rule:evenodd;fill:#12BDCC;" d="M12.15-15.7l-2.7,4.4l1.65-1.35
				c1.133-0.967,1.816-1.583,2.05-1.85c0.3-0.367,0.5-0.733,0.6-1.1c0.133-0.367,0.117-0.617-0.05-0.75
				c-0.133-0.167-0.35-0.183-0.65-0.05C12.75-16.3,12.45-16.067,12.15-15.7z"/>
			<path style="fill-rule:evenodd;clip-rule:evenodd;fill:#12BDCC;" d="M3.9-3.5c0.4-0.467,1.317-1.933,2.75-4.4
				C4.55-6.2,3.3-5.133,2.9-4.7C2.633-4.367,2.45-4.017,2.35-3.65c-0.133,0.367-0.133,0.633,0,0.8c0.167,0.167,0.4,0.184,0.7,0.05
				C3.35-2.9,3.633-3.133,3.9-3.5z"/>
			<path style="fill-rule:evenodd;clip-rule:evenodd;fill:#12BDCC;" d="M13.15-4.7c-0.367-0.433-1.6-1.5-3.7-3.2
				c1.433,2.467,2.333,3.933,2.7,4.4c0.3,0.367,0.6,0.6,0.9,0.7c0.3,0.133,0.517,0.117,0.65-0.05c0.167-0.167,0.183-0.433,0.05-0.8
				C13.65-4.017,13.45-4.367,13.15-4.7z"/>
			<path style="fill-rule:evenodd;clip-rule:evenodd;fill:#12BDCC;" d="M2.9-14.5l3.75,3.2L5.5-13.25
				c-0.8-1.333-1.333-2.15-1.6-2.45c-0.267-0.367-0.55-0.6-0.85-0.7c-0.3-0.133-0.533-0.117-0.7,0.05
				c-0.133,0.133-0.133,0.383,0,0.75C2.45-15.233,2.633-14.867,2.9-14.5z"/>
		</g>
	</g>
</symbol>
<symbol  id="flash0.ai_x2F_Layer_3_x2F__x3C_Group_x3E__x5F_35" viewBox="0 -19.15 16.05 19.15">
	<g id="Layer_1_5_">
		<g>
			<path style="fill-rule:evenodd;clip-rule:evenodd;fill:#12BDCC;" d="M7.3-17.35l0.7,5.4l0.35-2.35
				c0.233-1.633,0.35-2.65,0.35-3.05c0-0.5-0.067-0.933-0.2-1.3c-0.133-0.333-0.3-0.5-0.5-0.5s-0.367,0.167-0.5,0.5
				C7.367-18.283,7.3-17.85,7.3-17.35z"/>
			<path style="fill-rule:evenodd;clip-rule:evenodd;fill:#12BDCC;" d="M8.7-1.75C8.7-2.417,8.467-4.233,8-7.2
				C7.533-4.233,7.3-2.417,7.3-1.75C7.3-0.583,7.533,0,8,0S8.7-0.583,8.7-1.75z"/>
			<path style="fill-rule:evenodd;clip-rule:evenodd;fill:#12BDCC;" d="M14.55-10.4c-0.333,0-1.183,0.133-2.55,0.4l-2,0.45l2,0.4
				c1.367,0.3,2.217,0.45,2.55,0.45c0.434,0,0.784-0.083,1.05-0.25c0.3-0.167,0.45-0.367,0.45-0.6c0-0.233-0.15-0.434-0.45-0.6
				C15.333-10.317,14.983-10.4,14.55-10.4z"/>
			<path style="fill-rule:evenodd;clip-rule:evenodd;fill:#12BDCC;" d="M1.5-8.7c0.533,0,2.033-0.283,4.5-0.85
				c-2.467-0.567-3.967-0.85-4.5-0.85c-0.433,0-0.783,0.083-1.05,0.25C0.15-9.983,0-9.783,0-9.55c0,0.233,0.15,0.433,0.45,0.6
				C0.717-8.783,1.067-8.7,1.5-8.7z"/>
			<path style="fill-rule:evenodd;clip-rule:evenodd;fill:#12BDCC;" d="M12.15-15.65c-0.233,0.3-0.767,1.117-1.6,2.45L9.4-11.25
				l3.75-3.2c0.267-0.367,0.467-0.733,0.6-1.1c0.1-0.367,0.083-0.617-0.05-0.75c-0.133-0.167-0.367-0.184-0.7-0.05
				C12.7-16.25,12.417-16.017,12.15-15.65z"/>
			<path style="fill-rule:evenodd;clip-rule:evenodd;fill:#12BDCC;" d="M3.9-3.45c0.367-0.466,1.267-1.933,2.7-4.4
				c-2.1,1.667-3.333,2.733-3.7,3.2C2.6-4.317,2.4-3.967,2.3-3.6C2.2-3.233,2.217-2.967,2.35-2.8C2.483-2.633,2.7-2.617,3-2.75
				C3.3-2.85,3.6-3.083,3.9-3.45z"/>
			<path style="fill-rule:evenodd;clip-rule:evenodd;fill:#12BDCC;" d="M13.15-4.65c-0.4-0.467-1.65-1.533-3.75-3.2
				c1.434,2.467,2.35,3.934,2.75,4.4c0.267,0.367,0.55,0.6,0.85,0.7c0.333,0.133,0.567,0.117,0.7-0.05
				c0.133-0.167,0.15-0.434,0.05-0.8C13.617-3.967,13.417-4.317,13.15-4.65z"/>
			<path style="fill-rule:evenodd;clip-rule:evenodd;fill:#12BDCC;" d="M2.9-14.45c0.233,0.267,0.917,0.883,2.05,1.85
				c0.566,0.467,1.117,0.917,1.65,1.35l-2.7-4.4c-0.3-0.367-0.6-0.6-0.9-0.7c-0.3-0.133-0.517-0.117-0.65,0.05
				c-0.133,0.133-0.15,0.383-0.05,0.75C2.4-15.183,2.6-14.817,2.9-14.45z"/>
		</g>
	</g>
</symbol>
<symbol  id="flash0.ai_x2F_Layer_3_x2F__x3C_Group_x3E__x5F_36" viewBox="0 -19.2 16.05 19.2">
	<g id="Layer_1_4_">
		<g>
			<path style="fill-rule:evenodd;clip-rule:evenodd;fill:#12BDCC;" d="M7.3-17.4L8-11.95l0.35-2.35C8.583-15.967,8.7-17,8.7-17.4
				c0-0.5-0.067-0.934-0.2-1.3c-0.133-0.333-0.3-0.5-0.5-0.5s-0.367,0.167-0.5,0.5C7.367-18.333,7.3-17.9,7.3-17.4z"/>
			<path style="fill-rule:evenodd;clip-rule:evenodd;fill:#12BDCC;" d="M8.7-1.8c0-0.667-0.233-2.467-0.7-5.4
				C7.533-4.267,7.3-2.467,7.3-1.8c0,0.5,0.067,0.917,0.2,1.25C7.633-0.183,7.8,0,8,0s0.367-0.183,0.5-0.55
				C8.633-0.883,8.7-1.3,8.7-1.8z"/>
			<path style="fill-rule:evenodd;clip-rule:evenodd;fill:#12BDCC;" d="M14.55-10.45c-0.333,0-1.183,0.133-2.55,0.4L10-9.6l2,0.4
				c1.367,0.3,2.217,0.45,2.55,0.45c0.4,0,0.75-0.083,1.05-0.25c0.3-0.167,0.45-0.367,0.45-0.6s-0.15-0.433-0.45-0.6
				C15.3-10.367,14.95-10.45,14.55-10.45z"/>
			<path style="fill-rule:evenodd;clip-rule:evenodd;fill:#12BDCC;" d="M1.45-8.75C2.017-8.75,3.533-9.033,6-9.6
				c-2.467-0.566-3.983-0.85-4.55-0.85c-0.4,0-0.733,0.083-1,0.25C0.15-10.033,0-9.833,0-9.6S0.15-9.167,0.45-9
				C0.717-8.833,1.05-8.75,1.45-8.75z"/>
			<path style="fill-rule:evenodd;clip-rule:evenodd;fill:#12BDCC;" d="M12.15-15.7c-0.233,0.3-0.767,1.117-1.6,2.45L9.4-11.3
				l3.75-3.2c0.267-0.367,0.467-0.733,0.6-1.1c0.1-0.367,0.083-0.617-0.05-0.75c-0.133-0.167-0.367-0.183-0.7-0.05
				C12.7-16.3,12.417-16.067,12.15-15.7z"/>
			<path style="fill-rule:evenodd;clip-rule:evenodd;fill:#12BDCC;" d="M3.9-3.5c0.367-0.467,1.267-1.933,2.7-4.4
				C4.5-6.2,3.267-5.133,2.9-4.7C2.6-4.367,2.4-4.017,2.3-3.65c-0.1,0.367-0.083,0.633,0.05,0.8C2.483-2.683,2.7-2.667,3-2.8
				C3.3-2.9,3.6-3.133,3.9-3.5z"/>
			<path style="fill-rule:evenodd;clip-rule:evenodd;fill:#12BDCC;" d="M13.15-4.7c-0.4-0.433-1.65-1.5-3.75-3.2
				c1.434,2.467,2.35,3.933,2.75,4.4C12.417-3.133,12.7-2.9,13-2.8c0.333,0.133,0.567,0.117,0.7-0.05
				c0.133-0.167,0.15-0.433,0.05-0.8C13.617-4.017,13.417-4.367,13.15-4.7z"/>
			<path style="fill-rule:evenodd;clip-rule:evenodd;fill:#12BDCC;" d="M2.9-14.5c0.233,0.267,0.917,0.883,2.05,1.85
				c0.566,0.467,1.117,0.917,1.65,1.35l-2.7-4.4c-0.3-0.367-0.6-0.6-0.9-0.7c-0.3-0.133-0.517-0.117-0.65,0.05
				C2.217-16.217,2.2-15.967,2.3-15.6C2.4-15.233,2.6-14.867,2.9-14.5z"/>
		</g>
	</g>
</symbol>
<symbol  id="flash0.ai_x2F_Layer_3_x2F__x3C_Group_x3E__x5F_37" viewBox="0 -19.15 16.05 19.15">
	<g id="Layer_1_3_">
		<g>
			<path style="fill-rule:evenodd;clip-rule:evenodd;fill:#12BDCC;" d="M7.3-17.35l0.7,5.4l0.4-2.35
				c0.233-1.633,0.35-2.65,0.35-3.05c0-0.5-0.067-0.933-0.2-1.3c-0.167-0.333-0.35-0.5-0.55-0.5c-0.167,0-0.333,0.167-0.5,0.5
				C7.367-18.283,7.3-17.85,7.3-17.35z"/>
			<path style="fill-rule:evenodd;clip-rule:evenodd;fill:#12BDCC;" d="M8.75-1.75C8.75-2.417,8.5-4.233,8-7.2
				C7.533-4.233,7.3-2.417,7.3-1.75c0,0.467,0.067,0.883,0.2,1.25C7.667-0.167,7.833,0,8,0c0.2,0,0.383-0.167,0.55-0.5
				C8.683-0.867,8.75-1.283,8.75-1.75z"/>
			<path style="fill-rule:evenodd;clip-rule:evenodd;fill:#12BDCC;" d="M14.55-10.4c-0.333,0-1.183,0.133-2.55,0.4l-2,0.45l2,0.4
				c1.367,0.3,2.217,0.45,2.55,0.45c0.434,0,0.784-0.083,1.05-0.25c0.3-0.167,0.45-0.367,0.45-0.6
				C16.05-10.117,15.55-10.4,14.55-10.4z"/>
			<path style="fill-rule:evenodd;clip-rule:evenodd;fill:#12BDCC;" d="M1.5-8.7c0.533,0,2.05-0.283,4.55-0.85
				c-2.5-0.567-4.017-0.85-4.55-0.85c-0.433,0-0.783,0.083-1.05,0.25C0.15-9.983,0-9.783,0-9.55c0,0.233,0.15,0.433,0.45,0.6
				C0.717-8.783,1.067-8.7,1.5-8.7z"/>
			<path style="fill-rule:evenodd;clip-rule:evenodd;fill:#12BDCC;" d="M12.15-15.7c-0.233,0.3-0.75,1.133-1.55,2.5l-1.15,1.95
				l3.7-3.25c0.667-0.833,0.85-1.45,0.55-1.85c-0.133-0.167-0.367-0.183-0.7-0.05C12.7-16.267,12.417-16.033,12.15-15.7z"/>
			<path style="fill-rule:evenodd;clip-rule:evenodd;fill:#12BDCC;" d="M3.9-3.45C4.3-3.917,5.2-5.4,6.6-7.9
				C4.533-6.2,3.3-5.117,2.9-4.65C2.6-4.317,2.4-3.967,2.3-3.6C2.2-3.233,2.217-2.967,2.35-2.8C2.483-2.633,2.7-2.617,3-2.75
				C3.3-2.85,3.6-3.083,3.9-3.45z"/>
			<path style="fill-rule:evenodd;clip-rule:evenodd;fill:#12BDCC;" d="M13.15-4.65c-0.4-0.467-1.633-1.55-3.7-3.25
				c1.4,2.5,2.3,3.983,2.7,4.45c0.267,0.367,0.55,0.6,0.85,0.7c0.333,0.133,0.567,0.117,0.7-0.05c0.133-0.167,0.15-0.434,0.05-0.8
				C13.617-3.967,13.417-4.317,13.15-4.65z"/>
			<path style="fill-rule:evenodd;clip-rule:evenodd;fill:#12BDCC;" d="M2.9-14.5l3.7,3.25L5.5-13.2c-0.8-1.367-1.333-2.2-1.6-2.5
				c-0.3-0.333-0.6-0.566-0.9-0.7s-0.517-0.117-0.65,0.05C2.017-15.95,2.2-15.333,2.9-14.5z"/>
		</g>
	</g>
</symbol>
<symbol  id="flash0.ai_x2F_Layer_3_x2F__x3C_Group_x3E__x5F_38" viewBox="0 -19.2 16.05 19.2">
	<g id="Layer_1_2_">
		<g>
			<path style="fill-rule:evenodd;clip-rule:evenodd;fill:#12BDCC;" d="M7.3-17.4L8-12l0.35-2.35C8.583-15.983,8.7-17,8.7-17.4
				c0-0.5-0.067-0.934-0.2-1.3c-0.133-0.333-0.3-0.5-0.5-0.5s-0.367,0.167-0.5,0.5C7.367-18.333,7.3-17.9,7.3-17.4z"/>
			<path style="fill-rule:evenodd;clip-rule:evenodd;fill:#12BDCC;" d="M8.7-1.8c0-0.667-0.233-2.467-0.7-5.4
				C7.533-4.267,7.3-2.467,7.3-1.8c0,0.5,0.067,0.917,0.2,1.25C7.633-0.183,7.8,0,8,0s0.367-0.183,0.5-0.55
				C8.633-0.883,8.7-1.3,8.7-1.8z"/>
			<path style="fill-rule:evenodd;clip-rule:evenodd;fill:#12BDCC;" d="M14.55-10.45c-0.367,0-1.233,0.133-2.6,0.4L10-9.6l1.95,0.4
				c1.367,0.3,2.233,0.45,2.6,0.45c0.4,0,0.75-0.083,1.05-0.25c0.3-0.167,0.45-0.367,0.45-0.6s-0.15-0.433-0.45-0.6
				C15.3-10.367,14.95-10.45,14.55-10.45z"/>
			<path style="fill-rule:evenodd;clip-rule:evenodd;fill:#12BDCC;" d="M1.45-8.75C2.017-8.75,3.533-9.033,6-9.6
				c-2.467-0.566-3.983-0.85-4.55-0.85c-0.4,0-0.733,0.083-1,0.25C0.15-10.033,0-9.833,0-9.6S0.15-9.167,0.45-9
				C0.717-8.833,1.05-8.75,1.45-8.75z"/>
			<path style="fill-rule:evenodd;clip-rule:evenodd;fill:#12BDCC;" d="M12.15-15.7c-0.233,0.3-0.767,1.117-1.6,2.45L9.4-11.3
				l3.75-3.2c0.267-0.367,0.467-0.733,0.6-1.1c0.1-0.367,0.083-0.617-0.05-0.75c-0.133-0.167-0.367-0.183-0.7-0.05
				C12.7-16.3,12.417-16.067,12.15-15.7z"/>
			<path style="fill-rule:evenodd;clip-rule:evenodd;fill:#12BDCC;" d="M3.9-3.5c0.367-0.467,1.267-1.933,2.7-4.4
				C4.5-6.2,3.267-5.133,2.9-4.7C2.6-4.367,2.4-4.017,2.3-3.65c-0.1,0.367-0.083,0.633,0.05,0.8C2.483-2.683,2.7-2.667,3-2.8
				C3.3-2.9,3.6-3.133,3.9-3.5z"/>
			<path style="fill-rule:evenodd;clip-rule:evenodd;fill:#12BDCC;" d="M13.15-4.7c-0.4-0.433-1.65-1.5-3.75-3.2
				c1.434,2.467,2.35,3.933,2.75,4.4C12.417-3.133,12.7-2.9,13-2.8c0.333,0.133,0.567,0.117,0.7-0.05
				c0.133-0.167,0.15-0.433,0.05-0.8C13.617-4.017,13.417-4.367,13.15-4.7z"/>
			<path style="fill-rule:evenodd;clip-rule:evenodd;fill:#12BDCC;" d="M2.9-14.5c0.233,0.267,0.917,0.883,2.05,1.85
				c0.566,0.467,1.117,0.917,1.65,1.35l-2.7-4.4c-0.3-0.367-0.6-0.6-0.9-0.7c-0.3-0.133-0.517-0.117-0.65,0.05
				C2.217-16.217,2.2-15.967,2.3-15.6C2.4-15.233,2.6-14.867,2.9-14.5z"/>
		</g>
	</g>
</symbol>
<symbol  id="flash0.ai_x2F_Layer_3_x2F__x3C_Group_x3E__x5F_4" viewBox="0 -7.9 6.6 7.9">
	<g id="Layer_1_36_">
		<g>
			<path style="fill-rule:evenodd;clip-rule:evenodd;fill:#12BDCC;" d="M3-7.15L3.3-4.9l0.3-2.25c0-0.5-0.1-0.75-0.3-0.75
				C3.1-7.9,3-7.65,3-7.15z"/>
			<path style="fill-rule:evenodd;clip-rule:evenodd;fill:#12BDCC;" d="M3.6-0.75c0-0.267-0.1-1-0.3-2.2C3.1-1.75,3-1.017,3-0.75
				C3-0.25,3.1,0,3.3,0C3.5,0,3.6-0.25,3.6-0.75z"/>
			<path style="fill-rule:evenodd;clip-rule:evenodd;fill:#12BDCC;" d="M6-4.3L4.1-3.95L6-3.6c0.4,0,0.6-0.117,0.6-0.35
				C6.6-4.183,6.4-4.3,6-4.3z"/>
			<path style="fill-rule:evenodd;clip-rule:evenodd;fill:#12BDCC;" d="M0.6-3.6c0.233,0,0.85-0.117,1.85-0.35
				C1.45-4.183,0.833-4.3,0.6-4.3C0.2-4.3,0-4.183,0-3.95C0-3.717,0.2-3.6,0.6-3.6z"/>
			<path style="fill-rule:evenodd;clip-rule:evenodd;fill:#12BDCC;" d="M5-6.45l-1.15,1.8l1.55-1.3c0.3-0.333,0.383-0.6,0.25-0.8
				C5.483-6.85,5.267-6.75,5-6.45z"/>
			<path style="fill-rule:evenodd;clip-rule:evenodd;fill:#12BDCC;" d="M1.6-1.4c0.167-0.2,0.533-0.817,1.1-1.85
				C1.833-2.55,1.333-2.1,1.2-1.9C0.9-1.6,0.817-1.35,0.95-1.15C1.05-0.983,1.267-1.067,1.6-1.4z"/>
			<path style="fill-rule:evenodd;clip-rule:evenodd;fill:#12BDCC;" d="M5.4-1.9C5.233-2.1,4.717-2.55,3.85-3.25
				C4.45-2.217,4.833-1.6,5-1.4c0.3,0.3,0.517,0.383,0.65,0.25C5.783-1.35,5.7-1.6,5.4-1.9z"/>
			<path style="fill-rule:evenodd;clip-rule:evenodd;fill:#12BDCC;" d="M1.2-5.95l1.5,1.3l-1.1-1.8c-0.3-0.333-0.517-0.433-0.65-0.3
				C0.817-6.55,0.9-6.283,1.2-5.95z"/>
		</g>
	</g>
</symbol>
<symbol  id="flash0.ai_x2F_Layer_3_x2F__x3C_Group_x3E__x5F_5" viewBox="0 -7.9 6.6 7.9">
	<g id="Layer_1_35_">
		<g>
			<path style="fill-rule:evenodd;clip-rule:evenodd;fill:#12BDCC;" d="M3-7.15l0.3,2.2l0.3-2.2c0-0.5-0.1-0.75-0.3-0.75
				C3.1-7.9,3-7.65,3-7.15z"/>
			<path style="fill-rule:evenodd;clip-rule:evenodd;fill:#12BDCC;" d="M3.6-0.75C3.6-1.017,3.5-1.767,3.3-3
				C3.1-1.767,3-1.017,3-0.75C3-0.25,3.1,0,3.3,0C3.5,0,3.6-0.25,3.6-0.75z"/>
			<path style="fill-rule:evenodd;clip-rule:evenodd;fill:#12BDCC;" d="M6-4.3L4.1-3.95L6-3.6c0.4,0,0.6-0.117,0.6-0.35
				C6.6-4.183,6.4-4.3,6-4.3z"/>
			<path style="fill-rule:evenodd;clip-rule:evenodd;fill:#12BDCC;" d="M0.6-3.6c0.233,0,0.85-0.117,1.85-0.35
				C1.45-4.183,0.833-4.3,0.6-4.3C0.2-4.3,0-4.183,0-3.95C0-3.717,0.2-3.6,0.6-3.6z"/>
			<path style="fill-rule:evenodd;clip-rule:evenodd;fill:#12BDCC;" d="M5-6.45l-1.15,1.8L5.4-6c0.333-0.333,0.4-0.583,0.2-0.75
				C5.467-6.95,5.267-6.85,5-6.45z"/>
			<path style="fill-rule:evenodd;clip-rule:evenodd;fill:#12BDCC;" d="M1.6-1.45c0.167-0.167,0.533-0.767,1.1-1.8
				c-0.867,0.7-1.367,1.133-1.5,1.3c-0.3,0.333-0.383,0.6-0.25,0.8C1.083-1.017,1.3-1.117,1.6-1.45z"/>
			<path style="fill-rule:evenodd;clip-rule:evenodd;fill:#12BDCC;" d="M5.4-1.95l-1.55-1.3L5-1.45c0.233,0.367,0.433,0.467,0.6,0.3
				C5.767-1.317,5.7-1.583,5.4-1.95z"/>
			<path style="fill-rule:evenodd;clip-rule:evenodd;fill:#12BDCC;" d="M1.2-6l1.5,1.35c-0.567-1.033-0.934-1.633-1.1-1.8
				c-0.3-0.367-0.517-0.466-0.65-0.3C0.817-6.55,0.9-6.3,1.2-6z"/>
		</g>
	</g>
</symbol>
<symbol  id="flash0.ai_x2F_Layer_3_x2F__x3C_Group_x3E__x5F_6" viewBox="0 -7.9 6.6 7.9">
	<g id="Layer_1_34_">
		<g>
			<path style="fill-rule:evenodd;clip-rule:evenodd;fill:#12BDCC;" d="M3-7.15l0.3,2.2l0.3-2.2c0-0.5-0.1-0.75-0.3-0.75
				C3.1-7.9,3-7.65,3-7.15z"/>
			<path style="fill-rule:evenodd;clip-rule:evenodd;fill:#12BDCC;" d="M3.6-0.75c0-0.267-0.1-1-0.3-2.2C3.1-1.75,3-1.017,3-0.75
				C3-0.25,3.1,0,3.3,0C3.5,0,3.6-0.25,3.6-0.75z"/>
			<path style="fill-rule:evenodd;clip-rule:evenodd;fill:#12BDCC;" d="M6-4.3L4.15-3.95L6-3.6c0.4,0,0.6-0.117,0.6-0.35
				C6.6-4.183,6.4-4.3,6-4.3z"/>
			<path style="fill-rule:evenodd;clip-rule:evenodd;fill:#12BDCC;" d="M0.6-3.6c0.233,0,0.867-0.117,1.9-0.35
				C1.467-4.183,0.833-4.3,0.6-4.3C0.2-4.3,0-4.183,0-3.95C0-3.717,0.2-3.6,0.6-3.6z"/>
			<path style="fill-rule:evenodd;clip-rule:evenodd;fill:#12BDCC;" d="M5-6.45l-1.1,1.8l1.5-1.3c0.3-0.333,0.383-0.6,0.25-0.8
				C5.517-6.883,5.3-6.783,5-6.45z"/>
			<path style="fill-rule:evenodd;clip-rule:evenodd;fill:#12BDCC;" d="M1.6-1.45c0.167-0.167,0.55-0.767,1.15-1.8
				C1.883-2.55,1.367-2.1,1.2-1.9C0.9-1.6,0.817-1.35,0.95-1.15C1.117-1.05,1.333-1.15,1.6-1.45z"/>
			<path style="fill-rule:evenodd;clip-rule:evenodd;fill:#12BDCC;" d="M5.4-1.9C5.267-2.1,4.767-2.55,3.9-3.25L5-1.45
				c0.3,0.333,0.517,0.434,0.65,0.3C5.783-1.35,5.7-1.6,5.4-1.9z"/>
			<path style="fill-rule:evenodd;clip-rule:evenodd;fill:#12BDCC;" d="M1.2-5.95l1.55,1.3c-0.6-1.033-0.983-1.633-1.15-1.8
				c-0.267-0.3-0.483-0.4-0.65-0.3C0.817-6.55,0.9-6.283,1.2-5.95z"/>
		</g>
	</g>
</symbol>
<symbol  id="flash0.ai_x2F_Layer_3_x2F__x3C_Group_x3E__x5F_7" viewBox="0 -7.9 6.6 7.9">
	<g id="Layer_1_33_">
		<g>
			<path style="fill-rule:evenodd;clip-rule:evenodd;fill:#12BDCC;" d="M3-7.15L3.3-4.9l0.3-2.25c0-0.5-0.1-0.75-0.3-0.75
				C3.1-7.9,3-7.65,3-7.15z"/>
			<path style="fill-rule:evenodd;clip-rule:evenodd;fill:#12BDCC;" d="M3.6-0.7c0-0.3-0.1-1.05-0.3-2.25C3.1-1.75,3-1,3-0.7
				C3-0.233,3.1,0,3.3,0C3.5,0,3.6-0.233,3.6-0.7z"/>
			<path style="fill-rule:evenodd;clip-rule:evenodd;fill:#12BDCC;" d="M6-4.3L4.15-3.95L6-3.6c0.4,0,0.6-0.117,0.6-0.35
				C6.6-4.183,6.4-4.3,6-4.3z"/>
			<path style="fill-rule:evenodd;clip-rule:evenodd;fill:#12BDCC;" d="M0.6-3.6c0.233,0,0.867-0.117,1.9-0.35
				C1.467-4.183,0.833-4.3,0.6-4.3C0.2-4.3,0-4.183,0-3.95C0-3.717,0.2-3.6,0.6-3.6z"/>
			<path style="fill-rule:evenodd;clip-rule:evenodd;fill:#12BDCC;" d="M5-6.45l-1.1,1.8l1.5-1.3C5.7-6.317,5.783-6.567,5.65-6.7
				C5.517-6.9,5.3-6.817,5-6.45z"/>
			<path style="fill-rule:evenodd;clip-rule:evenodd;fill:#12BDCC;" d="M1.6-1.4c0.167-0.2,0.533-0.817,1.1-1.85
				C1.867-2.55,1.367-2.1,1.2-1.9C0.9-1.6,0.817-1.35,0.95-1.15C1.083-1.017,1.3-1.1,1.6-1.4z"/>
			<path style="fill-rule:evenodd;clip-rule:evenodd;fill:#12BDCC;" d="M5.4-1.9C5.267-2.1,4.767-2.55,3.9-3.25
				C4.467-2.217,4.833-1.6,5-1.4c0.333,0.333,0.55,0.417,0.65,0.25C5.783-1.35,5.7-1.6,5.4-1.9z"/>
			<path style="fill-rule:evenodd;clip-rule:evenodd;fill:#12BDCC;" d="M1.2-5.95l1.5,1.3l-1.1-1.8
				C1.333-6.783,1.117-6.867,0.95-6.7C0.817-6.567,0.9-6.317,1.2-5.95z"/>
		</g>
	</g>
</symbol>
<symbol  id="flash0.ai_x2F_Layer_3_x2F__x3C_Group_x3E__x5F_8" viewBox="0 -7.85 6.6 7.85">
	<g id="Layer_1_32_">
		<g>
			<path style="fill-rule:evenodd;clip-rule:evenodd;fill:#12BDCC;" d="M3-7.15L3.3-4.9l0.3-2.25c0-0.467-0.1-0.7-0.3-0.7
				C3.1-7.85,3-7.617,3-7.15z"/>
			<path style="fill-rule:evenodd;clip-rule:evenodd;fill:#12BDCC;" d="M3.6-0.7c0-0.267-0.1-1.017-0.3-2.25
				C3.1-1.717,3-0.967,3-0.7C3-0.233,3.1,0,3.3,0C3.5,0,3.6-0.233,3.6-0.7z"/>
			<path style="fill-rule:evenodd;clip-rule:evenodd;fill:#12BDCC;" d="M6-4.3L4.1-3.95L6-3.6c0.4,0,0.6-0.117,0.6-0.35
				C6.6-4.183,6.4-4.3,6-4.3z"/>
			<path style="fill-rule:evenodd;clip-rule:evenodd;fill:#12BDCC;" d="M0.6-3.6c0.233,0,0.867-0.117,1.9-0.35
				C1.467-4.183,0.833-4.3,0.6-4.3C0.2-4.3,0-4.183,0-3.95C0-3.717,0.2-3.6,0.6-3.6z"/>
			<path style="fill-rule:evenodd;clip-rule:evenodd;fill:#12BDCC;" d="M5-6.45L3.85-4.6L5.4-5.95C5.7-6.317,5.783-6.567,5.65-6.7
				C5.483-6.867,5.267-6.783,5-6.45z"/>
			<path style="fill-rule:evenodd;clip-rule:evenodd;fill:#12BDCC;" d="M1.6-1.4c0.167-0.2,0.533-0.817,1.1-1.85
				C1.833-2.55,1.333-2.1,1.2-1.9C0.933-1.567,0.85-1.317,0.95-1.15C1.05-0.983,1.267-1.067,1.6-1.4z"/>
			<path style="fill-rule:evenodd;clip-rule:evenodd;fill:#12BDCC;" d="M5.4-1.9C5.233-2.1,4.717-2.55,3.85-3.25
				C4.45-2.217,4.833-1.6,5-1.4c0.3,0.3,0.517,0.383,0.65,0.25C5.75-1.317,5.667-1.567,5.4-1.9z"/>
			<path style="fill-rule:evenodd;clip-rule:evenodd;fill:#12BDCC;" d="M1.2-5.95L2.7-4.6L1.6-6.45C1.3-6.817,1.083-6.9,0.95-6.7
				C0.817-6.567,0.9-6.317,1.2-5.95z"/>
		</g>
	</g>
</symbol>
<symbol  id="flash0.ai_x2F_Layer_3_x2F__x3C_Group_x3E__x5F_9" viewBox="0 -7.9 6.6 7.9">
	<g id="Layer_1_31_">
		<g>
			<path style="fill-rule:evenodd;clip-rule:evenodd;fill:#12BDCC;" d="M3-7.15l0.3,2.2l0.3-2.2c0-0.5-0.1-0.75-0.3-0.75
				C3.1-7.9,3-7.65,3-7.15z"/>
			<path style="fill-rule:evenodd;clip-rule:evenodd;fill:#12BDCC;" d="M3.6-0.75c0-0.267-0.1-1-0.3-2.2C3.1-1.75,3-1.017,3-0.75
				C3-0.25,3.1,0,3.3,0C3.5,0,3.6-0.25,3.6-0.75z"/>
			<path style="fill-rule:evenodd;clip-rule:evenodd;fill:#12BDCC;" d="M6-4.3L4.1-3.95L6-3.6c0.4,0,0.6-0.117,0.6-0.35
				C6.6-4.183,6.4-4.3,6-4.3z"/>
			<path style="fill-rule:evenodd;clip-rule:evenodd;fill:#12BDCC;" d="M0.6-3.6c0.233,0,0.867-0.117,1.9-0.35
				C1.467-4.183,0.833-4.3,0.6-4.3C0.2-4.3,0-4.183,0-3.95C0-3.717,0.2-3.6,0.6-3.6z"/>
			<path style="fill-rule:evenodd;clip-rule:evenodd;fill:#12BDCC;" d="M5-6.45l-1.1,1.8l1.5-1.3c0.3-0.333,0.383-0.6,0.25-0.8
				C5.483-6.85,5.267-6.75,5-6.45z"/>
			<path style="fill-rule:evenodd;clip-rule:evenodd;fill:#12BDCC;" d="M1.6-1.45c0.167-0.167,0.533-0.767,1.1-1.8
				C1.867-2.55,1.367-2.1,1.2-1.9C0.9-1.6,0.817-1.35,0.95-1.15C1.117-1.05,1.333-1.15,1.6-1.45z"/>
			<path style="fill-rule:evenodd;clip-rule:evenodd;fill:#12BDCC;" d="M5.4-1.9C5.233-2.1,4.733-2.55,3.9-3.25L5-1.45
				c0.267,0.3,0.483,0.4,0.65,0.3C5.783-1.35,5.7-1.6,5.4-1.9z"/>
			<path style="fill-rule:evenodd;clip-rule:evenodd;fill:#12BDCC;" d="M1.2-5.95l1.5,1.3c-0.567-1.033-0.934-1.633-1.1-1.8
				c-0.267-0.3-0.483-0.4-0.65-0.3C0.817-6.55,0.9-6.283,1.2-5.95z"/>
		</g>
	</g>
</symbol>
<g>
	
		<linearGradient id="SVGID_3_" gradientUnits="userSpaceOnUse" x1="-74.5264" y1="127.1367" x2="-13.8763" y2="127.1367" gradientTransform="matrix(0.0033 -2 2 -0.0032 -0.1002 3.755034e-004)">
		<stop  offset="0" style="stop-color:#2152A3"/>
		<stop  offset="1" style="stop-color:#12BDCC"/>
	</linearGradient>
	<path style="fill-rule:evenodd;clip-rule:evenodd;fill:url(#SVGID_3_);" d="M466.9,158c-13.4,2.2-37.834,4.667-73.301,7.4
		c-52.133,4-103.533,6.3-154.2,6.899c-48.333-0.133-80.4-0.133-96.2,0c-56.866,0.4-94.7-0.2-113.5-1.8
		c-17.934-1.533-27.7-4.8-29.3-9.8c-1.667-5.2,1.6-10.334,9.8-15.4c7.4-4.533,22.667-11.2,45.8-20
		c9.801-3.733,21.567-10.066,35.301-19c7.666-5,19.1-12.566,34.3-22.7c13.066-8.133,24.566-13.533,34.5-16.199
		c12.533-3.334,24.5-3.067,35.899,0.8c19.2,6.6,36.233,7.7,51.101,3.3c10.8-3.2,22.234-10.167,34.3-20.9
		c3.332-2.933,8.199-7.433,14.6-13.5c5.732-5.333,10.699-9.466,14.9-12.399c11.666-8.334,23.799-12.267,36.4-11.8
		C372.166,13.833,399.6,27.2,429.6,53c22.4,19.333,48.334,47.767,77.801,85.3C510.668,146.566,497.166,153.134,466.9,158z"/>
	
		<use xlink:href="#flash0.ai_x2F_Layer_3_x2F__x3C_Clip_Group_0_x3E_"  width="255.861" height="98.6" x="0.039" y="-98.6" transform="matrix(2 0 0 -2 -0.1001 0)" style="overflow:visible;"/>
</g>
</svg>
