<?xml version="1.0" encoding="iso-8859-1"?>
<!-- Generator: Adobe Illustrator 15.1.0, SVG Export Plug-In . SVG Version: 6.00 Build 0)  -->
<!DOCTYPE svg PUBLIC "-//W3C//DTD SVG 1.1//EN" "http://www.w3.org/Graphics/SVG/1.1/DTD/svg11.dtd">
<svg version="1.1" id="Layer_3" xmlns="http://www.w3.org/2000/svg" xmlns:xlink="http://www.w3.org/1999/xlink" x="0px" y="0px"
	 width="526.1px" height="191.4px" viewBox="0 0 526.1 191.4" style="enable-background:new 0 0 526.1 191.4;" xml:space="preserve"
	>
<symbol  id="flash0.ai_x5F_0_x2F_Layer_3_x2F__x3C_Path_x3E_" viewBox="0.8 -59.8 128.9 59.797">
	<g id="Layer_1_4_">
		<linearGradient id="SVGID_1_" gradientUnits="userSpaceOnUse" x1="65.8223" y1="-0.8721" x2="64.8973" y2="-63.8471">
			<stop  offset="0.0078" style="stop-color:#27545B"/>
			<stop  offset="0.4471" style="stop-color:#36A3A7"/>
			<stop  offset="1" style="stop-color:#C6E1B5"/>
		</linearGradient>
		<path style="fill-rule:evenodd;clip-rule:evenodd;fill:url(#SVGID_1_);" d="M129.7-59.25L91.2-59.8
			c-3.5,6.167-7.8,12.733-12.9,19.7c-10.233,13.967-19.35,22.967-27.35,27C40.283-7.7,28.6-7.4,15.9-12.2
			c-5.973-2.283-11.006-5.016-15.1-8.2c1.909,1.554,4.292,3.454,7.15,5.7c7.333,5.767,15.133,9.85,23.4,12.25
			C43.283,1.017,55.567,0.8,68.2-3.1c15.533-4.8,30.433-15.6,44.7-32.4C120.067-43.9,125.667-51.817,129.7-59.25z"/>
	</g>
</symbol>
<symbol  id="flash0.ai_x5F_0_x2F_Layer_3_x2F__x3C_Path_x3E__x5F_1" viewBox="0 -74.75 153.45 74.785">
	<g id="Layer_1_3_">
		<linearGradient id="SVGID_2_" gradientUnits="userSpaceOnUse" x1="77.3247" y1="-1.0005" x2="76.1497" y2="-80.0005">
			<stop  offset="0.0078" style="stop-color:#27545B"/>
			<stop  offset="0.4471" style="stop-color:#36A3A7"/>
			<stop  offset="1" style="stop-color:#C6E1B5"/>
		</linearGradient>
		<path style="fill-rule:evenodd;clip-rule:evenodd;fill:url(#SVGID_2_);" d="M153.45-72.7l-31.55-2.05
			c-5.367,14.667-13.633,27.6-24.8,38.8c-12.533,12.567-27.15,21.233-43.85,26C40.317-6.25,27.567-5.15,15-6.65
			C8.7-7.383,3.7-8.483,0-9.95c5.1,2.833,12.367,5.233,21.8,7.2c18.833,3.933,39.034,3.7,60.6-0.7
			c22.133-4.533,40.617-17.433,55.45-38.7C145.25-52.783,150.45-62.967,153.45-72.7z"/>
	</g>
</symbol>
<symbol  id="flash0.ai_x5F_0_x2F_Layer_3_x2F__x3C_Path_x3E__x5F_2" viewBox="0 -77.3 196.3 77.32">
	<g id="Layer_1_2_">
		<linearGradient id="SVGID_3_" gradientUnits="userSpaceOnUse" x1="98.79" y1="-1.0762" x2="97.565" y2="-83.3262">
			<stop  offset="0.0078" style="stop-color:#27545B"/>
			<stop  offset="0.4471" style="stop-color:#36A3A7"/>
			<stop  offset="1" style="stop-color:#C6E1B5"/>
		</linearGradient>
		<path style="fill-rule:evenodd;clip-rule:evenodd;fill:url(#SVGID_3_);" d="M190.9-74.45l-7.55-2.85
			c-3.667,4.767-8.017,10.05-13.05,15.85c-10,11.633-18.3,20.083-24.9,25.35C118.267-14.5,85.883-5,48.25-7.6
			c-11.733-0.833-23.3-2.816-34.7-5.95C7.85-15.117,3.333-16.6,0-18c6.8,4.333,16.067,8.233,27.8,11.7
			c23.434,6.9,47.434,8.15,72,3.75c26.8-4.8,50.917-17.5,72.35-38.1c10.733-10.3,18.783-20.117,24.15-29.45L190.9-74.45z"/>
	</g>
</symbol>
<g>
	
		<linearGradient id="SVGID_4_" gradientUnits="userSpaceOnUse" x1="132.2437" y1="19.9248" x2="130.7687" y2="119.1748" gradientTransform="matrix(2 0 0 2 0 0.0498)">
		<stop  offset="0" style="stop-color:#C6E1B5"/>
		<stop  offset="0.5529" style="stop-color:#36A3A7"/>
		<stop  offset="0.9922" style="stop-color:#27545B"/>
	</linearGradient>
	<path style="fill-rule:evenodd;clip-rule:evenodd;fill:url(#SVGID_4_);" d="M446.2,47.649c13.267,9,26,19.4,38.2,31.2
		c6.466,6.2,13.3,13.101,20.5,20.7c35.199,33.267,26.533,57.2-26,71.8c-45,12.533-127.534,19.2-247.601,20
		c-104.8,0.733-174.733-8.166-209.8-26.7c-10.934-5.8-17.733-12.199-20.4-19.199c-0.8-2.2-1.166-4.334-1.1-6.4l0.4-2.4
		C35.8,101.45,78.767,70.816,129.3,44.75c64.867-33.4,124.533-48.101,179-44.101C359.7,4.383,405.667,20.05,446.2,47.649z"/>
	
		<use xlink:href="#flash0.ai_x5F_0_x2F_Layer_3_x2F__x3C_Path_x3E__x5F_2"  width="196.3" height="77.32" y="-77.3" transform="matrix(2 0 0 -2 126 10.75)" style="overflow:visible;opacity:0.4492;enable-background:new    ;"/>
	
		<use xlink:href="#flash0.ai_x5F_0_x2F_Layer_3_x2F__x3C_Path_x3E__x5F_1"  width="153.45" height="74.785" y="-74.75" transform="matrix(2 0 0 -2 104.8999 38.3501)" style="overflow:visible;opacity:0.4492;enable-background:new    ;"/>
	
		<use xlink:href="#flash0.ai_x5F_0_x2F_Layer_3_x2F__x3C_Path_x3E_"  width="128.9" height="59.797" x="0.8" y="-59.8" transform="matrix(2 0 0 -2 26.7002 70.8501)" style="overflow:visible;opacity:0.4492;enable-background:new    ;"/>
</g>
</svg>
