<?xml version="1.0" encoding="iso-8859-1"?>
<!-- Generator: Adobe Illustrator 15.1.0, SVG Export Plug-In . SVG Version: 6.00 Build 0)  -->
<!DOCTYPE svg PUBLIC "-//W3C//DTD SVG 1.1//EN" "http://www.w3.org/Graphics/SVG/1.1/DTD/svg11.dtd">
<svg version="1.1" id="Layer_3" xmlns="http://www.w3.org/2000/svg" xmlns:xlink="http://www.w3.org/1999/xlink" x="0px" y="0px"
	 width="247.8px" height="100.7px" viewBox="0 0 247.8 100.7" style="enable-background:new 0 0 247.8 100.7;" xml:space="preserve"
	>
<g>
	
		<linearGradient id="SVGID_1_" gradientUnits="userSpaceOnUse" x1="-41.6611" y1="59.4814" x2="-1.4063" y2="59.4814" gradientTransform="matrix(-0.1043 -1.9973 1.9973 -0.1043 1.588389e-004 0.0015)">
		<stop  offset="0.0235" style="stop-color:#2B1736"/>
		<stop  offset="0.2431" style="stop-color:#2D1A38"/>
		<stop  offset="0.4078" style="stop-color:#33243C"/>
		<stop  offset="0.5529" style="stop-color:#3E3444"/>
		<stop  offset="0.6902" style="stop-color:#4D4B50"/>
		<stop  offset="0.8157" style="stop-color:#60685E"/>
		<stop  offset="0.8314" style="stop-color:#626B60"/>
		<stop  offset="1" style="stop-color:#9CBAB5"/>
	</linearGradient>
	<path style="fill-rule:evenodd;clip-rule:evenodd;fill:url(#SVGID_1_);" d="M170.3,38.5c4.667,3,8.434,4.3,11.3,3.9
		c2.334-0.267,4.534-1,6.601-2.2c1.133-0.667,2.8-1.733,5-3.2c3.6-1.866,7.2-2.1,10.8-0.7c5.333,2.134,11.434,7.8,18.3,17
		c10.267,13.8,18.767,26.867,25.501,39.2c-8.4,1.4-19.867,2.7-34.4,3.9C184.4,98.8,154.634,99.6,124.1,98.8
		c-30.6-0.733-60.466-2.366-89.6-4.899C19.967,92.634,8.467,91.434,0,90.3C0.6,83.566,3.467,77.1,8.6,70.9
		c4.467-5.467,11.634-11.834,21.5-19.101c7-5.133,15.601-11.033,25.801-17.7C67.1,26.7,74.033,22.066,76.7,20.2
		c3.866-2.733,8.899-6.733,15.1-12c5.533-4.134,11.533-6.767,18-7.9c11.8-2.066,26.467,5.967,44,24.101
		C159.866,30.667,165.366,35.366,170.3,38.5z"/>
	
		<linearGradient id="SVGID_2_" gradientUnits="userSpaceOnUse" x1="-49.6069" y1="59.375" x2="8.785" y2="59.375" gradientTransform="matrix(-0.1122 -1.9969 1.9969 -0.1122 -5.273521e-005 -0.0014)">
		<stop  offset="0.0235" style="stop-color:#2B1736"/>
		<stop  offset="0.2431" style="stop-color:#2D1A38"/>
		<stop  offset="0.4078" style="stop-color:#33243C"/>
		<stop  offset="0.5529" style="stop-color:#3E3444"/>
		<stop  offset="0.6902" style="stop-color:#4D4B50"/>
		<stop  offset="0.8157" style="stop-color:#60685E"/>
		<stop  offset="0.8314" style="stop-color:#626B60"/>
		<stop  offset="1" style="stop-color:#9CBAB5"/>
	</linearGradient>
	<path style="fill-rule:evenodd;clip-rule:evenodd;fill:url(#SVGID_2_);" d="M201.3,97.4c-28.866,1.866-58.1,2.333-87.7,1.399
		c-29.6-0.934-55.366-2.467-77.3-4.6C25.366,93.134,17.4,92.167,12.4,91.3c1.733-3.934,4.433-8.5,8.1-13.7
		C27.833,67.267,36.267,59.066,45.8,53c23.667-15.134,38.9-25.5,45.7-31.1c14.467-11.801,28.7-12.367,42.7-1.7
		c1,0.733,8.967,8.1,23.899,22.1c8.601,8.066,16.934,13,25,14.8c12.733,2.801,20.733,4.9,24,6.301c6.4,2.8,12.334,7.733,17.801,14.8
		c8,10.533,11.633,15.899,10.899,16.1C227.267,95.434,215.767,96.467,201.3,97.4z"/>
	
		<linearGradient id="SVGID_3_" gradientUnits="userSpaceOnUse" x1="-51.3149" y1="54.5" x2="-7.9561" y2="54.5" gradientTransform="matrix(-0.196 -1.9904 1.9904 -0.196 6.701052e-005 7.298440e-004)">
		<stop  offset="0.0235" style="stop-color:#2B1736"/>
		<stop  offset="0.2431" style="stop-color:#2D1A38"/>
		<stop  offset="0.4078" style="stop-color:#33243C"/>
		<stop  offset="0.5529" style="stop-color:#3E3444"/>
		<stop  offset="0.6902" style="stop-color:#4D4B50"/>
		<stop  offset="0.8157" style="stop-color:#60685E"/>
		<stop  offset="0.8314" style="stop-color:#626B60"/>
		<stop  offset="1" style="stop-color:#9CBAB5"/>
	</linearGradient>
	<path style="fill-rule:evenodd;clip-rule:evenodd;fill:url(#SVGID_3_);" d="M212.1,96.2c-11.199,1-23.699,1.934-37.5,2.8
		c-27.466,1.667-47.566,2.1-60.3,1.3c-20.333-1.2-49.934-3.934-88.8-8.2c1.134-2.133,2.934-4.633,5.4-7.5
		c5-5.733,10.866-10.399,17.6-14c17.6-9.333,33.4-19.366,47.4-30.1c7.933-6,14.899-9.4,20.899-10.2
		c8.601-1.133,17.533,2.033,26.8,9.5c3.801,3.066,10.601,8.867,20.4,17.4c6.8,5.866,13.066,10.733,18.8,14.6
		c7.134,4.8,13.367,9.467,18.7,14C206.366,89.934,209.9,93.4,212.1,96.2z"/>
</g>
</svg>
