<?xml version="1.0" encoding="UTF-8" standalone="no"?> <!-- Created with Inkscape (http://www.inkscape.org/) --> <svg xmlns:inkscape="http://www.inkscape.org/namespaces/inkscape" xmlns:rdf="http://www.w3.org/1999/02/22-rdf-syntax-ns#" xmlns="http://www.w3.org/2000/svg" xmlns:xlink="http://www.w3.org/1999/xlink" xmlns:ns1="http://sozi.baierouge.fr" xmlns:cc="http://creativecommons.org/ns#" xmlns:sodipodi="http://sodipodi.sourceforge.net/DTD/sodipodi-0.dtd" xmlns:dc="http://purl.org/dc/elements/1.1/" id="svg2" xml:space="preserve" viewBox="0 0 54.024 38.981" inkscape:version="0.91 r13725"> <g id="g10" transform="matrix(1.25 0 0 -1.25 0 38.981)"> <g id="g12"> <path id="path14" style="fill-rule:evenodd;fill:#000000;fill-opacity:.4" d="m34.367 26.786c-0.824-0.41-1.394-0.652-1.711-0.726-0.465-0.094-1.074-0.067-1.82 0.082-0.465 0.094-1.035 0.141-1.707 0.141h-1.734c-0.153 0-0.665-0.047-1.543-0.141-0.653-0.074-1.157-0.063-1.512 0.031-0.391 0.11-0.949 0.418-1.68 0.922-0.711 0.484-1.289 0.785-1.734 0.895-0.84 0.168-1.465 0.308-1.879 0.421-0.746 0.168-1.344 0.418-1.789 0.754l-0.699 0.477c0.41 0.504 1.511 0.812 3.3 0.926 0.543 0.035 1.129-0.114 1.766-0.45 0.355-0.187 0.906-0.503 1.652-0.953 1.047-0.504 2.278-0.632 3.696-0.39 0.8 0.133 2.035 0.41 3.695 0.84 1.27 0.242 2.371 0.3 3.305 0.168 0.261-0.036 0.867-0.082 1.82-0.141 0.875-0.094 1.418-0.289 1.621-0.586 0.395-0.578 0.106-1.082-0.867-1.512-1.172-0.375-1.902-0.625-2.18-0.758z" inkscape:connector-curvature="0"></path> <path id="path16" style="fill-rule:evenodd;fill:#000000;fill-opacity:.2" d="m19.664 28.271c-1.082 0.222-1.883 0.523-2.406 0.894l-0.699 0.477c0.41 0.504 1.511 0.812 3.304 0.926 0.43 0.035 0.856-0.039 1.285-0.223 0.247-0.094 0.637-0.309 1.176-0.644l-0.027-0.028c-0.262-0.262-0.68-0.508-1.258-0.73-0.652-0.262-1.094-0.477-1.316-0.645l-0.059-0.027z" inkscape:connector-curvature="0"></path> <path id="path18" style="fill-rule:evenodd;fill:#000000;fill-opacity:.2" d="m27.535 28.829c0.332-0.203 0.606-0.578 0.809-1.117 0.113-0.301 0.273-0.765 0.476-1.402l-1.425-0.027c-0.153 0-0.665-0.047-1.54-0.141-0.656-0.074-1.16-0.063-1.515 0.031l-0.586 0.25c0.223 0.84 0.223 1.692 0 2.547 1.027-0.391 2.269-0.418 3.723-0.082l0.058-0.059z" inkscape:connector-curvature="0"></path> <path id="path20" style="fill-rule:evenodd;fill:#000000;fill-opacity:.2" d="m37.418 29.056c0.391-0.578 0.102-1.082-0.867-1.512-1.176-0.375-1.906-0.625-2.184-0.758-0.41-0.222-0.777-0.39-1.094-0.503 0.133 1.847 0.254 3.023 0.364 3.527l0.336-0.027c0.261-0.036 0.871-0.082 1.82-0.141 0.879-0.094 1.418-0.289 1.625-0.586z" inkscape:connector-curvature="0"></path> <path id="path22" style="fill-rule:evenodd;fill:#000000;fill-opacity:.14510" d="m19.188 23.958c0.597 0.504 1.14 1.43 1.624 2.774v-0.082c-0.914-2.203-1.605-3.344-2.07-3.418l0.446 0.726z" inkscape:connector-curvature="0"></path> <path id="path24" style="fill-rule:evenodd;fill:#000000;fill-opacity:.14510" d="m24.23 22.56-0.394 0.141c-0.055 0.894-0.195 1.632-0.418 2.21l0.586-0.054c0.394-0.02 0.84 0.062 1.344 0.25-0.016-0.934-0.149-1.867-0.391-2.801-0.094 0.02-0.336 0.105-0.727 0.254z" inkscape:connector-curvature="0"></path> <path id="path26" style="fill-rule:evenodd;fill:#000000;fill-opacity:.14510" d="m32.965 25.329 0.336 0.086c0.039-0.054 0.281-0.336 0.726-0.839 0.317-0.356 0.496-0.692 0.535-1.008-0.113-0.282-0.195-0.578-0.253-0.895-0.282 0.016-0.633-0.019-1.063-0.113-0.055 0.074-0.133 0.129-0.223 0.168-0.113 0.035-0.218 0.008-0.308-0.086-0.133-0.109-0.227-0.176-0.281-0.195-0.188-0.055-0.45-0.075-0.786-0.055-0.39 0-0.66-0.012-0.812-0.027 0.301 0.464 0.516 0.949 0.644 1.453 0.114 0.523 0.106 0.972-0.027 1.343 0.672 0 1.176 0.059 1.512 0.168z" inkscape:connector-curvature="0"></path> <path id="path28" style="fill-rule:evenodd;fill:#000000;fill-opacity:.14510" d="m25.461 19.65c0.336 0.519 0.543 1.238 0.617 2.152 0.375 0.973 0.645 2.195 0.813 3.668l0.418 0.027c0.168 0 0.457-0.015 0.867-0.054-0.485-0.465-0.981-1.426-1.481-2.883-0.523-1.57-0.937-2.539-1.234-2.91z" inkscape:connector-curvature="0"></path> <path id="path30" style="fill-rule:evenodd;fill:#000000;fill-opacity:.14510" d="m28.875 18.302c-0.109 0.988-0.164 1.805-0.164 2.438 0.242-0.055 0.941-0.133 2.098-0.223 0.113 0 0.421 0.027 0.925 0.082 0.446 0.039 0.766 0.039 0.95 0 0.449-0.746 0.375-2.051-0.223-3.918-0.617-1.867-1.324-2.953-2.129-3.25-0.84-0.301-2.004-0.43-3.5-0.391-1.773 0.016-2.957-0.019-3.555-0.113-0.953-0.148-2.023-0.187-3.218-0.113-0.653 0.039-1.672 0.152-3.051 0.336 0.746-0.352 1.379-0.559 1.902-0.617 0.356-0.036 1.344-0.204 2.965-0.504 1.422-0.243 2.41-0.383 2.969-0.418 1.683-0.129 2.801-0.364 3.363-0.7 0.578-0.375 0.148-1.148-1.289-2.324-1.289-1.062-2.359-1.738-3.219-2.015-0.804-0.282-2.008-0.403-3.613-0.364-1.774 0.09-2.988 0.141-3.641 0.141-1.976 0-3.246 0.027-3.808 0.082-1.399 0.148-2.594 0.512-3.582 1.09-0.45 0.281-0.907 0.703-1.371 1.262-0.227 0.242-0.598 0.726-1.122 1.457l-0.335 0.445c0.222 0.301 0.39 0.82 0.503 1.57 0.129 0.914 0.204 1.41 0.223 1.485 0.149 0.503 0.391 0.847 0.727 1.035 1.363-1.418 3.117-2.055 5.265-1.907-0.054 0.262-0.269 0.571-0.644 0.926-0.485 0.43-0.848 0.746-1.09 0.953h0.027c-0.019 0.075-0.148 0.184-0.394 0.332-0.184 0.168-0.324 0.356-0.418 0.563 0.691-0.246 1.699-0.598 3.023-1.066 1.141-0.336 2.196-0.512 3.164-0.532 1.344-0.019 3.293 0.121 5.852 0.422 0.711 0.035 1.734 0.035 3.082 0 1.098 0.09 1.941 0.559 2.519 1.399 0.539 0.785 0.809 1.597 0.809 2.437z" inkscape:connector-curvature="0"></path> <path id="path32" style="fill-rule:evenodd;fill:#000000;fill-opacity:.14510" d="m5.555 12.228v-0.113l-0.168-0.364c-0.336 0.465-0.61 0.895-0.813 1.289l-0.226 0.559 0.031 0.113c0.074 1.528 0.617 3.153 1.621 4.871 0.133-0.918 0.348-1.672 0.645-2.269-0.262-0.578-0.45-1.149-0.559-1.707-0.356-0.934-0.531-1.727-0.531-2.379z" inkscape:connector-curvature="0"></path> <path id="path34" style="fill-rule:evenodd;fill:#000000;fill-opacity:.14510" d="m23.949 19.142-0.054 1.598c0.261-0.094 0.449-0.196 0.558-0.309l-0.141-0.477c0.153 0 0.262 0.02 0.336 0.055 0.055-0.203 0.04-0.508-0.054-0.91-0.207-0.035-0.422-0.02-0.645 0.043z" inkscape:connector-curvature="0"></path> <path id="path36" style="fill-rule:evenodd;fill:#000000;fill-opacity:.14510" d="m16.949 29.701c-0.094 0.261-0.148 0.503-0.168 0.726l0.141 0.168h0.223l-0.11-0.277c-0.078-0.207-0.105-0.414-0.086-0.617z" inkscape:connector-curvature="0"></path> <path id="path38" style="fill-rule:evenodd;fill:#000000;fill-opacity:.14510" d="m17.984 26.31c0.039 0.543-0.007 1.027-0.14 1.457-0.09 0.301-0.285 0.726-0.586 1.289 0.074-0.094 0.16-0.168 0.25-0.227 0.488-0.316 1.012-0.597 1.57-0.839 0.203-0.465 0.188-1.145-0.055-2.043-0.152-0.036-0.402 0.046-0.757 0.25l-0.282 0.113z" inkscape:connector-curvature="0"></path> <path id="path40" style="fill-rule:evenodd;fill:#000000;fill-opacity:.14510" d="m19.02 25.947c0.246 0.898 0.261 1.578 0.058 2.043 0.539-0.223 0.961-0.364 1.258-0.418 0.187-0.055 0.309-0.168 0.363-0.336 0.039-0.055 0.078-0.223 0.113-0.504-0.484-1.344-1.027-2.27-1.624-2.774 0.488 0.953 0.55 1.727 0.199 2.325-0.114-0.204-0.235-0.317-0.367-0.336z" inkscape:connector-curvature="0"></path> <path id="path42" style="fill-rule:evenodd;fill:#000000;fill-opacity:.2" d="m19.02 25.947c0.246 0.898 0.261 1.578 0.058 2.043 0.539-0.223 0.961-0.364 1.258-0.418 0.187-0.055 0.309-0.168 0.363-0.336 0.039-0.055 0.078-0.223 0.113-0.504-0.484-1.344-1.027-2.27-1.624-2.774 0.488 0.953 0.55 1.727 0.199 2.325-0.114-0.204-0.235-0.317-0.367-0.336z" inkscape:connector-curvature="0"></path> <path id="path44" style="fill-rule:evenodd;fill:#000000;fill-opacity:.14510" d="m26.078 22.701c-0.223-0.375-0.598-0.504-1.121-0.391 0.242 0.93 0.375 1.863 0.391 2.797 0.73 0.207 1.242 0.328 1.543 0.367-0.168-1.477-0.438-2.699-0.813-3.668v0.895z" inkscape:connector-curvature="0"></path> <path id="path46" style="fill-rule:evenodd;fill:#000000;fill-opacity:.2" d="m26.078 22.701c-0.223-0.375-0.598-0.504-1.121-0.391 0.242 0.93 0.375 1.863 0.391 2.797 0.73 0.207 1.242 0.328 1.543 0.367-0.168-1.477-0.438-2.699-0.813-3.668v0.895z" inkscape:connector-curvature="0"></path> <path id="path48" style="fill-rule:evenodd;fill:#000000;fill-opacity:.14510" d="m24.312 19.954 0.141 0.477c0.094-0.09 0.16-0.234 0.195-0.418-0.074-0.039-0.187-0.059-0.336-0.059z" inkscape:connector-curvature="0"></path> <path id="path50" style="fill-rule:evenodd;fill:#000000;fill-opacity:.2" d="m24.312 19.954 0.141 0.477c0.094-0.09 0.16-0.234 0.195-0.418-0.074-0.039-0.187-0.059-0.336-0.059z" inkscape:connector-curvature="0"></path> <path id="path52" style="fill-rule:evenodd;fill:#000000;fill-opacity:.14510" d="m32.938 20.458 0.113 0.422c1.023 0.129 1.875 0.352 2.547 0.672h0.168c-0.207-0.469-0.532-1.129-0.981-1.988-0.336-0.785-0.531-1.551-0.586-2.297 0-0.035 0.082-0.996 0.25-2.883 0.074-0.953-0.207-1.808-0.84-2.574l-2.882-3.082c-0.207-0.223 0.027-0.645 0.699-1.262 0.691-0.613 0.941-1.07 0.754-1.371-0.633-1.027-1.641-1.687-3.024-1.988-1.754-0.168-3.117-0.317-4.086-0.449-2.222-0.297-4.742-0.332-7.562-0.11-2.723 0.223-5.207 0.653-7.446 1.289-1.738 0.485-3.324 1.539-4.761 3.16-0.727 1.551-1.043 3.418-0.953 5.602l0.226-0.559c0.203-0.39 0.477-0.82 0.813-1.289-0.227-0.558-0.356-0.914-0.395-1.062-0.109-0.731 0.031-1.289 0.422-1.68 0.168-0.168 0.43-0.457 0.781-0.871 0.321-0.316 0.629-0.512 0.926-0.586-0.543 1.399-0.867 2.406-0.98 3.024l0.086 0.113 0.335-0.449c0.52-0.727 0.895-1.215 1.118-1.457 0.468-0.559 0.925-0.981 1.375-1.258 0.988-0.578 2.183-0.946 3.582-1.094 0.558-0.055 1.828-0.082 3.808-0.082 0.653 0 1.867-0.047 3.641-0.141 1.605-0.039 2.809 0.082 3.609 0.364 0.86 0.281 1.934 0.953 3.219 2.015 1.441 1.176 1.867 1.953 1.289 2.324-0.558 0.336-1.68 0.571-3.359 0.7-0.559 0.039-1.551 0.179-2.969 0.422-1.621 0.296-2.613 0.464-2.969 0.503-0.519 0.055-1.156 0.262-1.902 0.618 1.383-0.188 2.398-0.301 3.051-0.336 1.195-0.075 2.269-0.039 3.218 0.109 0.602 0.094 1.786 0.133 3.559 0.113 1.492-0.035 2.66 0.094 3.5 0.391 0.801 0.301 1.512 1.383 2.129 3.25 0.598 1.867 0.672 3.172 0.223 3.918l0.254-0.141z" inkscape:connector-curvature="0"></path> <path id="path54" style="fill-rule:evenodd;fill:#000000;fill-opacity:.2" d="m32.938 20.458 0.113 0.422c1.023 0.129 1.875 0.352 2.547 0.672h0.168c-0.207-0.469-0.532-1.129-0.981-1.988-0.336-0.785-0.531-1.551-0.586-2.297 0-0.035 0.082-0.996 0.25-2.883 0.074-0.953-0.207-1.808-0.84-2.574l-2.882-3.082c-0.207-0.223 0.027-0.645 0.699-1.262 0.691-0.613 0.941-1.07 0.754-1.371-0.633-1.027-1.641-1.687-3.024-1.988-1.754-0.168-3.117-0.317-4.086-0.449-2.222-0.297-4.742-0.332-7.562-0.11-2.723 0.223-5.207 0.653-7.446 1.289-1.738 0.485-3.324 1.539-4.761 3.16-0.727 1.551-1.043 3.418-0.953 5.602l0.226-0.559c0.203-0.39 0.477-0.82 0.813-1.289-0.227-0.558-0.356-0.914-0.395-1.062-0.109-0.731 0.031-1.289 0.422-1.68 0.168-0.168 0.43-0.457 0.781-0.871 0.321-0.316 0.629-0.512 0.926-0.586-0.543 1.399-0.867 2.406-0.98 3.024l0.086 0.113 0.335-0.449c0.52-0.727 0.895-1.215 1.118-1.457 0.468-0.559 0.925-0.981 1.375-1.258 0.988-0.578 2.183-0.946 3.582-1.094 0.558-0.055 1.828-0.082 3.808-0.082 0.653 0 1.867-0.047 3.641-0.141 1.605-0.039 2.809 0.082 3.609 0.364 0.86 0.281 1.934 0.953 3.219 2.015 1.441 1.176 1.867 1.953 1.289 2.324-0.558 0.336-1.68 0.571-3.359 0.7-0.559 0.039-1.551 0.179-2.969 0.422-1.621 0.296-2.613 0.464-2.969 0.503-0.519 0.055-1.156 0.262-1.902 0.618 1.383-0.188 2.398-0.301 3.051-0.336 1.195-0.075 2.269-0.039 3.218 0.109 0.602 0.094 1.786 0.133 3.559 0.113 1.492-0.035 2.66 0.094 3.5 0.391 0.801 0.301 1.512 1.383 2.129 3.25 0.598 1.867 0.672 3.172 0.223 3.918l0.254-0.141z" inkscape:connector-curvature="0"></path> <path id="path56" style="fill-rule:evenodd;fill:#000000;fill-opacity:.14510" d="m35.316 25.919c-0.035-0.355-0.14-0.758-0.308-1.203-0.094-0.262-0.242-0.644-0.446-1.148-0.039 0.316-0.218 0.652-0.535 1.008-0.445 0.503-0.687 0.785-0.726 0.839l2.015 0.504z" inkscape:connector-curvature="0"></path> <path id="path58" style="fill-rule:evenodd;fill:#000000;fill-opacity:.2" d="m35.316 25.919c-0.035-0.355-0.14-0.758-0.308-1.203-0.094-0.262-0.242-0.644-0.446-1.148-0.039 0.316-0.218 0.652-0.535 1.008-0.445 0.503-0.687 0.785-0.726 0.839l2.015 0.504z" inkscape:connector-curvature="0"></path> <path id="path60" style="fill-rule:evenodd;fill:#000000;fill-opacity:.14510" d="m33.273 21.607c0.094 0.449 0.082 0.765-0.027 0.953 0.43 0.094 0.781 0.129 1.063 0.113 0.058 0.317 0.14 0.613 0.253 0.895 0.036-0.207 0.028-0.422-0.031-0.645-0.129-0.523-0.547-0.961-1.258-1.316z" inkscape:connector-curvature="0"></path> <path id="path62" style="fill-rule:evenodd;fill:#000000;fill-opacity:.2" d="m33.273 21.607c0.094 0.449 0.082 0.765-0.027 0.953 0.43 0.094 0.781 0.129 1.063 0.113 0.058 0.317 0.14 0.613 0.253 0.895 0.036-0.207 0.028-0.422-0.031-0.645-0.129-0.523-0.547-0.961-1.258-1.316z" inkscape:connector-curvature="0"></path> <path id="path64" style="fill-rule:evenodd;fill:#000000;fill-opacity:.14510" d="m35.316 25.919c0.899 0.207 1.586 0.438 2.075 0.699 0.41 0.188 0.734 0.458 0.98 0.813v-1.988l-0.476-0.754 0.054-0.168c-0.261-0.113-0.449-0.356-0.558-0.731-0.039 0.578-0.274 0.852-0.7 0.813-0.261-0.035-0.609-0.309-1.039-0.813-0.445-0.523-0.66-0.902-0.644-1.148l0.14-0.754c-0.015-0.223 0.133-0.336 0.45-0.336-0.672-0.316-1.52-0.543-2.547-0.672l0.222 0.727c0.711 0.355 1.129 0.793 1.258 1.316 0.059 0.223 0.067 0.438 0.031 0.645 0.204 0.504 0.352 0.886 0.446 1.148 0.168 0.445 0.273 0.848 0.308 1.203z" inkscape:connector-curvature="0"></path> <path id="path66" style="fill-rule:evenodd;fill:#000000;fill-opacity:.2" d="m35.316 25.919c0.899 0.207 1.586 0.438 2.075 0.699 0.41 0.188 0.734 0.458 0.98 0.813v-1.988l-0.476-0.754 0.054-0.168c-0.261-0.113-0.449-0.356-0.558-0.731-0.039 0.578-0.274 0.852-0.7 0.813-0.261-0.035-0.609-0.309-1.039-0.813-0.445-0.523-0.66-0.902-0.644-1.148l0.14-0.754c-0.015-0.223 0.133-0.336 0.45-0.336-0.672-0.316-1.52-0.543-2.547-0.672l0.222 0.727c0.711 0.355 1.129 0.793 1.258 1.316 0.059 0.223 0.067 0.438 0.031 0.645 0.204 0.504 0.352 0.886 0.446 1.148 0.168 0.445 0.273 0.848 0.308 1.203z" inkscape:connector-curvature="0"></path> <path id="path68" style="fill-rule:evenodd;fill:#000000;fill-opacity:.2" d="m35.316 25.919c0.899 0.207 1.586 0.438 2.075 0.699 0.41 0.188 0.734 0.458 0.98 0.813v-1.988l-0.476-0.754 0.054-0.168c-0.261-0.113-0.449-0.356-0.558-0.731-0.039 0.578-0.274 0.852-0.7 0.813-0.261-0.035-0.609-0.309-1.039-0.813-0.445-0.523-0.66-0.902-0.644-1.148l0.14-0.754c-0.015-0.223 0.133-0.336 0.45-0.336-0.672-0.316-1.52-0.543-2.547-0.672l0.222 0.727c0.711 0.355 1.129 0.793 1.258 1.316 0.059 0.223 0.067 0.438 0.031 0.645 0.204 0.504 0.352 0.886 0.446 1.148 0.168 0.445 0.273 0.848 0.308 1.203z" inkscape:connector-curvature="0"></path> <path id="path70" style="fill-rule:evenodd;fill:#000000;fill-opacity:.14510" d="m34.785 19.564c0.449 0.859 0.774 1.519 0.981 1.988 0.484 0.016 0.894 0.129 1.23 0.336l0.172 0.141c-0.02-0.786 0.062-1.922 0.25-3.418 0.148-1.364 0.215-2.149 0.195-2.352-0.039-0.41-0.25-0.98-0.644-1.707-0.371-0.691-0.578-1.269-0.617-1.738-0.055-0.559 0.066-1.215 0.367-1.957 0.445-1.121 0.679-1.739 0.699-1.852-1.606-0.539-2.941-1.277-4.004-2.211 0.688-0.039 1.727-0.121 3.106-0.25 0.3-1.16-1.465-2.289-5.29-3.39-3.042-0.856-5.601-1.344-7.671-1.453-1.59-0.094-3.473 0.035-5.657 0.39-1.867 0.317-3.707 0.746-5.515 1.289-1.852 0.539-3.981 1.68-6.387 3.414-0.262 0.375-0.496 0.778-0.699 1.203 1.437-1.621 3.023-2.675 4.761-3.16 2.239-0.636 4.719-1.066 7.446-1.289 2.82-0.222 5.34-0.187 7.562 0.11 0.969 0.132 2.332 0.281 4.086 0.449 1.383 0.301 2.391 0.961 3.024 1.988 0.187 0.301-0.067 0.758-0.754 1.371-0.672 0.617-0.906 1.039-0.699 1.262l2.882 3.082c0.633 0.766 0.914 1.621 0.84 2.574-0.168 1.887-0.254 2.848-0.254 2.883 0.059 0.746 0.254 1.512 0.59 2.297z" inkscape:connector-curvature="0"></path> <path id="path72" style="fill-rule:evenodd;fill:#000000;fill-opacity:.2" d="m34.785 19.564c0.449 0.859 0.774 1.519 0.981 1.988 0.484 0.016 0.894 0.129 1.23 0.336l0.172 0.141c-0.02-0.786 0.062-1.922 0.25-3.418 0.148-1.364 0.215-2.149 0.195-2.352-0.039-0.41-0.25-0.98-0.644-1.707-0.371-0.691-0.578-1.269-0.617-1.738-0.055-0.559 0.066-1.215 0.367-1.957 0.445-1.121 0.679-1.739 0.699-1.852-1.606-0.539-2.941-1.277-4.004-2.211 0.688-0.039 1.727-0.121 3.106-0.25 0.3-1.16-1.465-2.289-5.29-3.39-3.042-0.856-5.601-1.344-7.671-1.453-1.59-0.094-3.473 0.035-5.657 0.39-1.867 0.317-3.707 0.746-5.515 1.289-1.852 0.539-3.981 1.68-6.387 3.414-0.262 0.375-0.496 0.778-0.699 1.203 1.437-1.621 3.023-2.675 4.761-3.16 2.239-0.636 4.719-1.066 7.446-1.289 2.82-0.222 5.34-0.187 7.562 0.11 0.969 0.132 2.332 0.281 4.086 0.449 1.383 0.301 2.391 0.961 3.024 1.988 0.187 0.301-0.067 0.758-0.754 1.371-0.672 0.617-0.906 1.039-0.699 1.262l2.882 3.082c0.633 0.766 0.914 1.621 0.84 2.574-0.168 1.887-0.254 2.848-0.254 2.883 0.059 0.746 0.254 1.512 0.59 2.297z" inkscape:connector-curvature="0"></path> <path id="path74" style="fill-rule:evenodd;fill:#000000;fill-opacity:.2" d="m34.785 19.564c0.449 0.859 0.774 1.519 0.981 1.988 0.484 0.016 0.894 0.129 1.23 0.336l0.172 0.141c-0.02-0.786 0.062-1.922 0.25-3.418 0.148-1.364 0.215-2.149 0.195-2.352-0.039-0.41-0.25-0.98-0.644-1.707-0.371-0.691-0.578-1.269-0.617-1.738-0.055-0.559 0.066-1.215 0.367-1.957 0.445-1.121 0.679-1.739 0.699-1.852-1.606-0.539-2.941-1.277-4.004-2.211 0.688-0.039 1.727-0.121 3.106-0.25 0.3-1.16-1.465-2.289-5.29-3.39-3.042-0.856-5.601-1.344-7.671-1.453-1.59-0.094-3.473 0.035-5.657 0.39-1.867 0.317-3.707 0.746-5.515 1.289-1.852 0.539-3.981 1.68-6.387 3.414-0.262 0.375-0.496 0.778-0.699 1.203 1.437-1.621 3.023-2.675 4.761-3.16 2.239-0.636 4.719-1.066 7.446-1.289 2.82-0.222 5.34-0.187 7.562 0.11 0.969 0.132 2.332 0.281 4.086 0.449 1.383 0.301 2.391 0.961 3.024 1.988 0.187 0.301-0.067 0.758-0.754 1.371-0.672 0.617-0.906 1.039-0.699 1.262l2.882 3.082c0.633 0.766 0.914 1.621 0.84 2.574-0.168 1.887-0.254 2.848-0.254 2.883 0.059 0.746 0.254 1.512 0.59 2.297z" inkscape:connector-curvature="0"></path> <path id="path76" style="fill-rule:evenodd;fill:#000000;fill-opacity:.14510" d="m38.48 25.638-0.113-0.195v1.988c0.227 0.281 0.348 0.531 0.367 0.758 0.243-1.047 0.157-1.899-0.254-2.551z" inkscape:connector-curvature="0"></path> <path id="path78" style="fill-rule:evenodd;fill:#000000;fill-opacity:.2" d="m38.48 25.638-0.113-0.195v1.988c0.227 0.281 0.348 0.531 0.367 0.758 0.243-1.047 0.157-1.899-0.254-2.551z" inkscape:connector-curvature="0"></path> <path id="path80" style="fill-rule:evenodd;fill:#000000;fill-opacity:.2" d="m38.48 25.638-0.113-0.195v1.988c0.227 0.281 0.348 0.531 0.367 0.758 0.243-1.047 0.157-1.899-0.254-2.551z" inkscape:connector-curvature="0"></path> <path id="path82" style="fill-rule:evenodd;fill:#000000;fill-opacity:.2" d="m38.48 25.638-0.113-0.195v1.988c0.227 0.281 0.348 0.531 0.367 0.758 0.243-1.047 0.157-1.899-0.254-2.551z" inkscape:connector-curvature="0"></path> <path id="path84" style="fill-rule:evenodd;fill:#000000;fill-opacity:.14510" d="m37.391 23.79c0.109 0.375 0.297 0.618 0.558 0.731 0.84-1.68 1.512-2.848 2.016-3.5 0.578-0.746 1.156-1.719 1.734-2.914 0.598-1.27 0.965-2.317 1.094-3.137 0.316-2.051 0.457-3.621 0.418-4.703-0.055-1.754-0.52-3.152-1.399-4.199-0.82-0.989-3.015-1.969-6.582-2.942-4.964-1.324-7.472-1.996-7.531-2.015-1.586-0.598-3.937-0.7-7.054-0.309-2.875 0.375-5.965 1.113-9.27 2.215-2.461 0.82-4.254 2.078-5.375 3.777 2.41-1.734 4.535-2.875 6.387-3.414 1.808-0.543 3.648-0.972 5.515-1.289 2.184-0.355 4.067-0.484 5.657-0.39 2.07 0.109 4.629 0.597 7.671 1.453 3.825 1.101 5.59 2.23 5.29 3.39-1.379 0.129-2.415 0.215-3.106 0.25 1.063 0.934 2.398 1.672 4.004 2.211-0.02 0.113-0.254 0.731-0.699 1.852-0.301 0.746-0.422 1.398-0.367 1.957 0.039 0.469 0.246 1.047 0.617 1.738 0.39 0.727 0.605 1.297 0.644 1.707 0.02 0.207-0.047 0.988-0.195 2.352-0.188 1.492-0.273 2.632-0.25 3.418 0.129 0.109 0.203 0.297 0.223 0.558v1.203z" inkscape:connector-curvature="0"></path> <path id="path86" style="fill-rule:evenodd;fill:#000000;fill-opacity:.2" d="m37.391 23.79c0.109 0.375 0.297 0.618 0.558 0.731 0.84-1.68 1.512-2.848 2.016-3.5 0.578-0.746 1.156-1.719 1.734-2.914 0.598-1.27 0.965-2.317 1.094-3.137 0.316-2.051 0.457-3.621 0.418-4.703-0.055-1.754-0.52-3.152-1.399-4.199-0.82-0.989-3.015-1.969-6.582-2.942-4.964-1.324-7.472-1.996-7.531-2.015-1.586-0.598-3.937-0.7-7.054-0.309-2.875 0.375-5.965 1.113-9.27 2.215-2.461 0.82-4.254 2.078-5.375 3.777 2.41-1.734 4.535-2.875 6.387-3.414 1.808-0.543 3.648-0.972 5.515-1.289 2.184-0.355 4.067-0.484 5.657-0.39 2.07 0.109 4.629 0.597 7.671 1.453 3.825 1.101 5.59 2.23 5.29 3.39-1.379 0.129-2.415 0.215-3.106 0.25 1.063 0.934 2.398 1.672 4.004 2.211-0.02 0.113-0.254 0.731-0.699 1.852-0.301 0.746-0.422 1.398-0.367 1.957 0.039 0.469 0.246 1.047 0.617 1.738 0.39 0.727 0.605 1.297 0.644 1.707 0.02 0.207-0.047 0.988-0.195 2.352-0.188 1.492-0.273 2.632-0.25 3.418 0.129 0.109 0.203 0.297 0.223 0.558v1.203z" inkscape:connector-curvature="0"></path> <path id="path88" style="fill-rule:evenodd;fill:#000000;fill-opacity:.2" d="m37.391 23.79c0.109 0.375 0.297 0.618 0.558 0.731 0.84-1.68 1.512-2.848 2.016-3.5 0.578-0.746 1.156-1.719 1.734-2.914 0.598-1.27 0.965-2.317 1.094-3.137 0.316-2.051 0.457-3.621 0.418-4.703-0.055-1.754-0.52-3.152-1.399-4.199-0.82-0.989-3.015-1.969-6.582-2.942-4.964-1.324-7.472-1.996-7.531-2.015-1.586-0.598-3.937-0.7-7.054-0.309-2.875 0.375-5.965 1.113-9.27 2.215-2.461 0.82-4.254 2.078-5.375 3.777 2.41-1.734 4.535-2.875 6.387-3.414 1.808-0.543 3.648-0.972 5.515-1.289 2.184-0.355 4.067-0.484 5.657-0.39 2.07 0.109 4.629 0.597 7.671 1.453 3.825 1.101 5.59 2.23 5.29 3.39-1.379 0.129-2.415 0.215-3.106 0.25 1.063 0.934 2.398 1.672 4.004 2.211-0.02 0.113-0.254 0.731-0.699 1.852-0.301 0.746-0.422 1.398-0.367 1.957 0.039 0.469 0.246 1.047 0.617 1.738 0.39 0.727 0.605 1.297 0.644 1.707 0.02 0.207-0.047 0.988-0.195 2.352-0.188 1.492-0.273 2.632-0.25 3.418 0.129 0.109 0.203 0.297 0.223 0.558v1.203z" inkscape:connector-curvature="0"></path> <path id="path90" style="fill-rule:evenodd;fill:#000000;fill-opacity:.2" d="m37.391 23.79c0.109 0.375 0.297 0.618 0.558 0.731 0.84-1.68 1.512-2.848 2.016-3.5 0.578-0.746 1.156-1.719 1.734-2.914 0.598-1.27 0.965-2.317 1.094-3.137 0.316-2.051 0.457-3.621 0.418-4.703-0.055-1.754-0.52-3.152-1.399-4.199-0.82-0.989-3.015-1.969-6.582-2.942-4.964-1.324-7.472-1.996-7.531-2.015-1.586-0.598-3.937-0.7-7.054-0.309-2.875 0.375-5.965 1.113-9.27 2.215-2.461 0.82-4.254 2.078-5.375 3.777 2.41-1.734 4.535-2.875 6.387-3.414 1.808-0.543 3.648-0.972 5.515-1.289 2.184-0.355 4.067-0.484 5.657-0.39 2.07 0.109 4.629 0.597 7.671 1.453 3.825 1.101 5.59 2.23 5.29 3.39-1.379 0.129-2.415 0.215-3.106 0.25 1.063 0.934 2.398 1.672 4.004 2.211-0.02 0.113-0.254 0.731-0.699 1.852-0.301 0.746-0.422 1.398-0.367 1.957 0.039 0.469 0.246 1.047 0.617 1.738 0.39 0.727 0.605 1.297 0.644 1.707 0.02 0.207-0.047 0.988-0.195 2.352-0.188 1.492-0.273 2.632-0.25 3.418 0.129 0.109 0.203 0.297 0.223 0.558v1.203z" inkscape:connector-curvature="0"></path> <path id="path92" style="fill-rule:evenodd;fill:#000000;fill-opacity:.14510" d="m16.305 26.618 0.027-0.027-0.336 0.895 0.141 0.199 0.531-1.176h-0.027c-0.203-0.394-0.168-0.851 0.113-1.375-0.262 0.02-0.59 0.086-0.981 0.195-0.429 0.133-0.757 0.227-0.98 0.282l0.504 0.757c0.449-0.242 0.785-0.355 1.008-0.335 0.242 0.015 0.242 0.214 0 0.585z" inkscape:connector-curvature="0"></path> <path id="path94" style="fill-rule:evenodd;fill:#000000;fill-opacity:.14510" d="m15.855 28.357 0.114-0.309-0.114 0.028-0.082-0.055 0.082 0.336z" inkscape:connector-curvature="0"></path> <path id="path96" style="fill-rule:evenodd;fill:#000000;fill-opacity:.14510" d="m16.305 26.618c0.242-0.371 0.242-0.566 0-0.585-0.223-0.02-0.559 0.093-1.008 0.335l0.082 0.141c0.301 0.149 0.609 0.184 0.926 0.109z" inkscape:connector-curvature="0"></path> <path id="path98" style="fill-rule:evenodd;fill:#000000;fill-opacity:.2" d="m16.305 26.618c0.242-0.371 0.242-0.566 0-0.585-0.223-0.02-0.559 0.093-1.008 0.335l0.082 0.141c0.301 0.149 0.609 0.184 0.926 0.109z" inkscape:connector-curvature="0"></path> <path id="path100" style="fill-rule:evenodd;fill:#000000;fill-opacity:.4" d="m16.754 25.134 0.336-0.027c-0.02 0.429-0.16 0.898-0.422 1.402h0.113c0.504 0 0.907-0.066 1.203-0.199 0-0.242-0.007-0.606-0.027-1.09 0-0.41 0.035-0.766 0.109-1.066l0.114-0.364-0.082-0.195 0.195-0.027c0.129-0.227 0.281-0.336 0.449-0.336l-0.672-0.899c-0.039 0.114-0.058 0.301-0.058 0.563s-0.028 0.457-0.082 0.586c-0.282 0.375-0.485 0.656-0.618 0.84-0.261 0.336-0.445 0.609-0.558 0.812z" inkscape:connector-curvature="0"></path> <path id="path102" style="fill-rule:evenodd;fill:#000000;fill-opacity:.14510" d="m18.07 24.154c-0.074 0.3-0.113 0.656-0.113 1.066 0.02 0.484 0.027 0.848 0.027 1.09l0.282-0.109c0.355-0.208 0.605-0.29 0.757-0.254-0.187-0.653-0.468-1.371-0.843-2.157l-0.11 0.364z" inkscape:connector-curvature="0"></path> <path id="path104" style="fill-rule:evenodd;fill:#000000;fill-opacity:.4" d="m18.07 24.154c-0.074 0.3-0.113 0.656-0.113 1.066 0.02 0.484 0.027 0.848 0.027 1.09l0.282-0.109c0.355-0.208 0.605-0.29 0.757-0.254-0.187-0.653-0.468-1.371-0.843-2.157l-0.11 0.364z" inkscape:connector-curvature="0"></path> <path id="path106" style="fill-rule:evenodd;fill:#000000;fill-opacity:.14510" d="m18.293 23.568c0.301 0.019 0.598 0.148 0.898 0.39l-0.449-0.726c-0.168 0-0.316 0.113-0.449 0.336z" inkscape:connector-curvature="0"></path> <path id="path108" style="fill-rule:evenodd;fill:#000000;fill-opacity:.4" d="m18.293 23.568c0.301 0.019 0.598 0.148 0.898 0.39l-0.449-0.726c-0.168 0-0.316 0.113-0.449 0.336z" inkscape:connector-curvature="0"></path> <path id="path110" style="fill-rule:evenodd;fill:#000000;fill-opacity:.2" d="m18.098 23.595 0.082 0.195 0.113-0.222-0.195 0.027z" inkscape:connector-curvature="0"></path> <path id="path112" style="fill-rule:evenodd;fill:#000000;fill-opacity:.4" d="m18.098 23.595 0.082 0.195 0.113-0.222-0.195 0.027z" inkscape:connector-curvature="0"></path> <path id="path114" style="fill-rule:evenodd;fill:#000000;fill-opacity:.14510" d="m18.293 23.568-0.113 0.222c0.375 0.786 0.656 1.504 0.843 2.157 0.129 0.019 0.25 0.132 0.364 0.336 0.355-0.598 0.289-1.372-0.196-2.325-0.3-0.242-0.597-0.371-0.898-0.39z" inkscape:connector-curvature="0"></path> <path id="path116" style="fill-rule:evenodd;fill:#000000;fill-opacity:.2" d="m18.293 23.568-0.113 0.222c0.375 0.786 0.656 1.504 0.843 2.157 0.129 0.019 0.25 0.132 0.364 0.336 0.355-0.598 0.289-1.372-0.196-2.325-0.3-0.242-0.597-0.371-0.898-0.39z" inkscape:connector-curvature="0"></path> <path id="path118" style="fill-rule:evenodd;fill:#000000;fill-opacity:.4" d="m18.293 23.568-0.113 0.222c0.375 0.786 0.656 1.504 0.843 2.157 0.129 0.019 0.25 0.132 0.364 0.336 0.355-0.598 0.289-1.372-0.196-2.325-0.3-0.242-0.597-0.371-0.898-0.39z" inkscape:connector-curvature="0"></path> <path id="path120" style="fill-rule:evenodd;fill:#000000;fill-opacity:.14510" d="m16.754 25.134c-0.281 0.524-0.316 0.981-0.113 1.375h0.027c0.262-0.504 0.402-0.973 0.422-1.402l-0.336 0.027z" inkscape:connector-curvature="0"></path> <path id="path122" style="fill-rule:evenodd;fill:#000000;fill-opacity:.4" d="m16.754 25.134c-0.281 0.524-0.316 0.981-0.113 1.375h0.027c0.262-0.504 0.402-0.973 0.422-1.402l-0.336 0.027z" inkscape:connector-curvature="0"></path> <path id="path124" style="fill-rule:evenodd;fill:#000000;fill-opacity:.4" d="m21.512 23.345c0.355 0.016 0.75-0.047 1.179-0.199 0.149-0.035 0.532-0.188 1.145-0.449 0.039-0.411 0.059-1.063 0.059-1.957l-0.672 0.168c-0.563 0.109-1.075 0.335-1.543 0.671-0.371 0.262-0.801 0.672-1.285 1.231l1.117 0.535z" inkscape:connector-curvature="0"></path> <path id="path126" style="fill-rule:evenodd;fill:#000000;fill-opacity:.14510" d="m24.648 20.013c0.524 0.148 1 0.746 1.43 1.789-0.074-0.914-0.281-1.633-0.617-2.152-0.203-0.262-0.457-0.442-0.754-0.535l-0.113-0.028c0.094 0.41 0.113 0.719 0.054 0.926z" inkscape:connector-curvature="0"></path> <path id="path128" style="fill-rule:evenodd;fill:#000000;fill-opacity:.4" d="m24.648 20.013c0.524 0.148 1 0.746 1.43 1.789-0.074-0.914-0.281-1.633-0.617-2.152-0.203-0.262-0.457-0.442-0.754-0.535l-0.113-0.028c0.094 0.41 0.113 0.719 0.054 0.926z" inkscape:connector-curvature="0"></path> <path id="path130" style="fill-rule:evenodd;fill:#000000;fill-opacity:.14510" d="m24.453 20.431c-0.113 0.113-0.297 0.215-0.558 0.309 0 0.894-0.02 1.55-0.059 1.961l0.394-0.141c0.391-0.149 0.633-0.234 0.727-0.25l-0.504-1.879z" inkscape:connector-curvature="0"></path> <path id="path132" style="fill-rule:evenodd;fill:#000000;fill-opacity:.4" d="m24.453 20.431c-0.113 0.113-0.297 0.215-0.558 0.309 0 0.894-0.02 1.55-0.059 1.961l0.394-0.141c0.391-0.149 0.633-0.234 0.727-0.25l-0.504-1.879z" inkscape:connector-curvature="0"></path> <path id="path134" style="fill-rule:evenodd;fill:#000000;fill-opacity:.14510" d="m24.648 20.013c-0.035 0.184-0.101 0.324-0.195 0.418l0.504 1.875c0.523-0.109 0.898 0.02 1.121 0.391v-0.895c-0.43-1.043-0.906-1.641-1.43-1.789z" inkscape:connector-curvature="0"></path> <path id="path136" style="fill-rule:evenodd;fill:#000000;fill-opacity:.2" d="m24.648 20.013c-0.035 0.184-0.101 0.324-0.195 0.418l0.504 1.875c0.523-0.109 0.898 0.02 1.121 0.391v-0.895c-0.43-1.043-0.906-1.641-1.43-1.789z" inkscape:connector-curvature="0"></path> <path id="path138" style="fill-rule:evenodd;fill:#000000;fill-opacity:.4" d="m24.648 20.013c-0.035 0.184-0.101 0.324-0.195 0.418l0.504 1.875c0.523-0.109 0.898 0.02 1.121 0.391v-0.895c-0.43-1.043-0.906-1.641-1.43-1.789z" inkscape:connector-curvature="0"></path> <path id="path140" style="fill-rule:evenodd;fill:#000000;fill-opacity:.4" d="m30.836 22.365c-0.652-0.934-1.371-1.43-2.156-1.485l0.031-0.14c-0.356 0.054-0.652 0.14-0.899 0.25-0.035 0.058-0.015 0.105 0.055 0.14l0.703 0.758c0.055 0.035 0.297 0.082 0.727 0.141 0.375 0.054 0.848 0.168 1.43 0.332h0.109v0.004z" inkscape:connector-curvature="0"></path> <path id="path142" style="fill-rule:evenodd;fill:#000000;fill-opacity:.14510" d="m33.02 22.728c0.093-0.039 0.168-0.094 0.226-0.168-1.195-0.317-2.027-0.867-2.492-1.652 0.484-0.114 1.062-0.141 1.734-0.082l0.196-0.227c-0.184 0.039-0.504 0.039-0.95 0-0.504-0.055-0.812-0.082-0.925-0.082-1.157 0.094-1.856 0.168-2.098 0.223l-0.031 0.14c0.785 0.055 1.504 0.551 2.156 1.485 0.152 0.019 0.422 0.027 0.812 0.027 0.336-0.02 0.598 0 0.786 0.055 0.054 0.019 0.148 0.086 0.281 0.199 0.09 0.09 0.195 0.117 0.305 0.082z" inkscape:connector-curvature="0"></path> <path id="path144" style="fill-rule:evenodd;fill:#000000;fill-opacity:.4" d="m33.02 22.728c0.093-0.039 0.168-0.094 0.226-0.168-1.195-0.317-2.027-0.867-2.492-1.652 0.484-0.114 1.062-0.141 1.734-0.082l0.196-0.227c-0.184 0.039-0.504 0.039-0.95 0-0.504-0.055-0.812-0.082-0.925-0.082-1.157 0.094-1.856 0.168-2.098 0.223l-0.031 0.14c0.785 0.055 1.504 0.551 2.156 1.485 0.152 0.019 0.422 0.027 0.812 0.027 0.336-0.02 0.598 0 0.786 0.055 0.054 0.019 0.148 0.086 0.281 0.199 0.09 0.09 0.195 0.117 0.305 0.082z" inkscape:connector-curvature="0"></path> <path id="path146" style="fill-rule:evenodd;fill:#000000;fill-opacity:.14510" d="m32.488 20.826 0.563 0.054-0.113-0.422-0.25 0.141-0.2 0.227z" inkscape:connector-curvature="0"></path> <path id="path148" style="fill-rule:evenodd;fill:#000000;fill-opacity:.2" d="m32.488 20.826 0.563 0.054-0.113-0.422-0.25 0.141-0.2 0.227z" inkscape:connector-curvature="0"></path> <path id="path150" style="fill-rule:evenodd;fill:#000000;fill-opacity:.4" d="m32.488 20.826 0.563 0.054-0.113-0.422-0.25 0.141-0.2 0.227z" inkscape:connector-curvature="0"></path> <path id="path152" style="fill-rule:evenodd;fill:#000000;fill-opacity:.14510" d="m33.246 22.56c0.113-0.188 0.121-0.504 0.027-0.953-0.746-0.297-1.242-0.512-1.484-0.645 0.262 0.055 0.496 0.012 0.699-0.14-0.672-0.055-1.25-0.028-1.734 0.086 0.465 0.785 1.297 1.335 2.492 1.652z" inkscape:connector-curvature="0"></path> <path id="path154" style="fill-rule:evenodd;fill:#000000;fill-opacity:.2" d="m33.246 22.56c0.113-0.188 0.121-0.504 0.027-0.953-0.746-0.297-1.242-0.512-1.484-0.645 0.262 0.055 0.496 0.012 0.699-0.14-0.672-0.055-1.25-0.028-1.734 0.086 0.465 0.785 1.297 1.335 2.492 1.652z" inkscape:connector-curvature="0"></path> <path id="path156" style="fill-rule:evenodd;fill:#000000;fill-opacity:.4" d="m33.246 22.56c0.113-0.188 0.121-0.504 0.027-0.953-0.746-0.297-1.242-0.512-1.484-0.645 0.262 0.055 0.496 0.012 0.699-0.14-0.672-0.055-1.25-0.028-1.734 0.086 0.465 0.785 1.297 1.335 2.492 1.652z" inkscape:connector-curvature="0"></path> <path id="path158" style="fill-rule:evenodd;fill:#000000;fill-opacity:.14510" d="m33.273 21.607-0.222-0.727-0.563-0.054c-0.203 0.148-0.437 0.195-0.699 0.136 0.242 0.133 0.738 0.348 1.484 0.645z" inkscape:connector-curvature="0"></path> <path id="path160" style="fill-rule:evenodd;fill:#000000;fill-opacity:.2" d="m33.273 21.607-0.222-0.727-0.563-0.054c-0.203 0.148-0.437 0.195-0.699 0.136 0.242 0.133 0.738 0.348 1.484 0.645z" inkscape:connector-curvature="0"></path> <path id="path162" style="fill-rule:evenodd;fill:#000000;fill-opacity:.2" d="m33.273 21.607-0.222-0.727-0.563-0.054c-0.203 0.148-0.437 0.195-0.699 0.136 0.242 0.133 0.738 0.348 1.484 0.645z" inkscape:connector-curvature="0"></path> <path id="path164" style="fill-rule:evenodd;fill:#000000;fill-opacity:.4" d="m33.273 21.607-0.222-0.727-0.563-0.054c-0.203 0.148-0.437 0.195-0.699 0.136 0.242 0.133 0.738 0.348 1.484 0.645z" inkscape:connector-curvature="0"></path> <path id="path166" style="fill-rule:evenodd;fill:#000000;fill-opacity:.14510" d="m35.766 21.552h-0.168l0.222 0.109-0.054-0.109z" inkscape:connector-curvature="0"></path> <path id="path168" style="fill-rule:evenodd;fill:#000000;fill-opacity:.2" d="m35.766 21.552h-0.168l0.222 0.109-0.054-0.109z" inkscape:connector-curvature="0"></path> <path id="path170" style="fill-rule:evenodd;fill:#000000;fill-opacity:.4" d="m35.766 21.552h-0.168l0.222 0.109-0.054-0.109z" inkscape:connector-curvature="0"></path> <path id="path172" style="fill-rule:evenodd;fill:#000000;fill-opacity:.14510" d="m35.766 21.552 0.054 0.113-0.222-0.113c-0.317 0-0.469 0.113-0.45 0.336l-0.14 0.754c-0.016 0.246 0.195 0.625 0.644 1.148 0.43 0.504 0.774 0.778 1.036 0.813 0.429 0.039 0.664-0.235 0.703-0.813-0.153-0.429-0.227-1.015-0.227-1.761l-0.168-0.141c-0.336-0.207-0.746-0.316-1.23-0.336z" inkscape:connector-curvature="0"></path> <path id="path174" style="fill-rule:evenodd;fill:#000000;fill-opacity:.2" d="m35.766 21.552 0.054 0.113-0.222-0.113c-0.317 0-0.469 0.113-0.45 0.336l-0.14 0.754c-0.016 0.246 0.195 0.625 0.644 1.148 0.43 0.504 0.774 0.778 1.036 0.813 0.429 0.039 0.664-0.235 0.703-0.813-0.153-0.429-0.227-1.015-0.227-1.761l-0.168-0.141c-0.336-0.207-0.746-0.316-1.23-0.336z" inkscape:connector-curvature="0"></path> <path id="path176" style="fill-rule:evenodd;fill:#000000;fill-opacity:.2" d="m35.766 21.552 0.054 0.113-0.222-0.113c-0.317 0-0.469 0.113-0.45 0.336l-0.14 0.754c-0.016 0.246 0.195 0.625 0.644 1.148 0.43 0.504 0.774 0.778 1.036 0.813 0.429 0.039 0.664-0.235 0.703-0.813-0.153-0.429-0.227-1.015-0.227-1.761l-0.168-0.141c-0.336-0.207-0.746-0.316-1.23-0.336z" inkscape:connector-curvature="0"></path> <path id="path178" style="fill-rule:evenodd;fill:#000000;fill-opacity:.4" d="m35.766 21.552 0.054 0.113-0.222-0.113c-0.317 0-0.469 0.113-0.45 0.336l-0.14 0.754c-0.016 0.246 0.195 0.625 0.644 1.148 0.43 0.504 0.774 0.778 1.036 0.813 0.429 0.039 0.664-0.235 0.703-0.813-0.153-0.429-0.227-1.015-0.227-1.761l-0.168-0.141c-0.336-0.207-0.746-0.316-1.23-0.336z" inkscape:connector-curvature="0"></path> <path id="path180" style="fill-rule:evenodd;fill:#000000;fill-opacity:.14510" d="m37.391 23.345v-0.758c-0.02-0.261-0.094-0.449-0.227-0.558 0 0.746 0.074 1.332 0.227 1.761v-0.445z" inkscape:connector-curvature="0"></path> <path id="path182" style="fill-rule:evenodd;fill:#000000;fill-opacity:.2" d="m37.391 23.345v-0.758c-0.02-0.261-0.094-0.449-0.227-0.558 0 0.746 0.074 1.332 0.227 1.761v-0.445z" inkscape:connector-curvature="0"></path> <path id="path184" style="fill-rule:evenodd;fill:#000000;fill-opacity:.2" d="m37.391 23.345v-0.758c-0.02-0.261-0.094-0.449-0.227-0.558 0 0.746 0.074 1.332 0.227 1.761v-0.445z" inkscape:connector-curvature="0"></path> <path id="path186" style="fill-rule:evenodd;fill:#000000;fill-opacity:.2" d="m37.391 23.345v-0.758c-0.02-0.261-0.094-0.449-0.227-0.558 0 0.746 0.074 1.332 0.227 1.761v-0.445z" inkscape:connector-curvature="0"></path> <path id="path188" style="fill-rule:evenodd;fill:#000000;fill-opacity:.4" d="m37.391 23.345v-0.758c-0.02-0.261-0.094-0.449-0.227-0.558 0 0.746 0.074 1.332 0.227 1.761v-0.445z" inkscape:connector-curvature="0"></path> <path id="path190" style="fill-rule:evenodd;fill:#000000;fill-opacity:.2" d="m7.512 18.751c0.168 0.282 0.55 0.617 1.148 1.008-0.949-1.492-1.547-2.473-1.789-2.941l0.168 0.617c0.168 0.672 0.324 1.113 0.473 1.316z" inkscape:connector-curvature="0"></path> <path id="path192" style="fill-rule:evenodd;fill:#000000;fill-opacity:.2" d="m16.473 27.99-0.336-0.305-0.168 0.363 0.504-0.058z" inkscape:connector-curvature="0"></path> <path id="path194" style="fill-rule:evenodd;fill:#000000;fill-opacity:.2" d="m8.578 18.751c0.484 0.653 0.781 1.149 0.895 1.485l-0.418-0.168 0.14 0.082c0.371 0.429 0.653 0.746 0.84 0.953 0.485 0.558 0.84 1.176 1.063 1.848l0.476 1.148-0.082-0.391c-0.019-0.132-0.086-0.422-0.199-0.871-0.094-0.445-0.082-0.734 0.031-0.867 0.09-0.129 0.317-0.223 0.672-0.281l0.754-0.055c-0.43 0.469-0.504 1.02-0.223 1.652 0.168 0.375 0.539 0.868 1.118 1.485l0.812 0.953 0.336-0.113-0.813-1.176c-0.089-0.168-0.257-0.43-0.503-0.785-0.168-0.297-0.243-0.578-0.223-0.84 0.039-0.297 0.223-0.598 0.558-0.895 0.395-0.336 0.626-0.586 0.704-0.757-0.153 0-0.536 0.085-1.149 0.253-0.488 0.129-0.867 0.149-1.148 0.055-0.114-0.035-0.442-0.289-0.981-0.754-0.375-0.316-0.867-0.879-1.484-1.679-0.43-0.469-0.684-0.766-0.758-0.899-0.316-0.558-0.289-1.148 0.086-1.762 0.148-0.261 0.512-0.582 1.09-0.953l0.672-0.336 0.367-0.336c-0.356-0.113-0.973-0.082-1.848 0.082-0.785 0.133-1.347 0.114-1.683-0.054l-0.055 0.082c0.504 0.449 0.98 0.582 1.43 0.394-0.395 0.41-0.664 0.692-0.813 0.84-0.207 0.262-0.308 0.625-0.308 1.09 0.019 0.508 0.234 1.027 0.644 1.57z" inkscape:connector-curvature="0"></path> <path id="path196" style="fill-rule:evenodd;fill:#000000;fill-opacity:.14510" d="m6.086 14.607-0.059-0.25c-0.164-1.102-0.324-1.84-0.472-2.215v0.086c0 0.652 0.175 1.445 0.531 2.379z" inkscape:connector-curvature="0"></path> <path id="path198" style="fill-rule:evenodd;fill:#000000;fill-opacity:.2" d="m6.086 14.607-0.059-0.25c-0.164-1.102-0.324-1.84-0.472-2.215v0.086c0 0.652 0.175 1.445 0.531 2.379z" inkscape:connector-curvature="0"></path> <path id="path200" style="fill-rule:evenodd;fill:#000000;fill-opacity:.14510" d="m7.68 14.775c-0.336-0.188-0.578-0.532-0.727-1.035-0.019-0.075-0.094-0.571-0.223-1.485-0.113-0.746-0.281-1.269-0.503-1.566l-0.114 0.14c-0.093 0.633-0.074 1.219 0.059 1.762 0.074 0.336 0.242 0.719 0.504 1.149 0.277 0.468 0.594 0.839 0.949 1.121l0.055-0.086z" inkscape:connector-curvature="0"></path> <path id="path202" style="fill-rule:evenodd;fill:#000000;fill-opacity:.2" d="m7.68 14.775c-0.336-0.188-0.578-0.532-0.727-1.035-0.019-0.075-0.094-0.571-0.223-1.485-0.113-0.746-0.281-1.269-0.503-1.566l-0.114 0.14c-0.093 0.633-0.074 1.219 0.059 1.762 0.074 0.336 0.242 0.719 0.504 1.149 0.277 0.468 0.594 0.839 0.949 1.121l0.055-0.086z" inkscape:connector-curvature="0"></path> <path id="path204" style="fill-rule:evenodd;fill:#000000;fill-opacity:.14510" d="m6.141 10.576-0.028 0.25 0.114-0.137-0.086-0.113z" inkscape:connector-curvature="0"></path> <path id="path206" style="fill-rule:evenodd;fill:#000000;fill-opacity:.2" d="m6.141 10.576-0.028 0.25 0.114-0.137-0.086-0.113z" inkscape:connector-curvature="0"></path> <path id="path208" style="fill-rule:evenodd;fill:#000000;fill-opacity:.2" d="m6.141 10.576-0.028 0.25 0.114-0.137-0.086-0.113z" inkscape:connector-curvature="0"></path> <path id="path210" style="fill-rule:evenodd;fill:#000000;fill-opacity:.14510" d="m15.297 26.368-0.504-0.757-0.336 0.113c0.281 0.297 0.523 0.523 0.731 0.672l0.109-0.028z" inkscape:connector-curvature="0"></path> <path id="path212" style="fill-rule:evenodd;fill:#000000;fill-opacity:.2" d="m15.297 26.368-0.504-0.757-0.336 0.113c0.281 0.297 0.523 0.523 0.731 0.672l0.109-0.028z" inkscape:connector-curvature="0"></path> <path id="path214" style="fill-rule:evenodd;fill:#000000;fill-opacity:.14510" d="m15.773 28.021 0.082 0.055 0.114-0.028 0.168-0.363-0.141-0.199-0.141 0.367-0.167-0.031 0.085 0.199z" inkscape:connector-curvature="0"></path> <path id="path216" style="fill-rule:evenodd;fill:#000000;fill-opacity:.2" d="m15.773 28.021 0.082 0.055 0.114-0.028 0.168-0.363-0.141-0.199-0.141 0.367-0.167-0.031 0.085 0.199z" inkscape:connector-curvature="0"></path> <path id="path218" style="fill-rule:evenodd;fill:#000000;fill-opacity:.14510" d="m15.383 26.509-0.086-0.141-0.109 0.028 0.195 0.113z" inkscape:connector-curvature="0"></path> <path id="path220" style="fill-rule:evenodd;fill:#000000;fill-opacity:.2" d="m15.383 26.509-0.086-0.141-0.109 0.028 0.195 0.113z" inkscape:connector-curvature="0"></path> <path id="path222" style="fill-rule:evenodd;fill:#000000;fill-opacity:.2" d="m15.383 26.509-0.086-0.141-0.109 0.028 0.195 0.113z" inkscape:connector-curvature="0"></path> <path id="path224" style="fill-rule:evenodd;fill:#000000;fill-opacity:.2" d="m11.574 24.099c0.055 0.242 0.156 0.516 0.309 0.812l0.027 0.028 0.113 0.086-0.449-0.926z" inkscape:connector-curvature="0"></path> <path id="path226" style="fill-rule:evenodd;fill:#000000;fill-opacity:.14510" d="m15.996 27.486 0.336-0.895-0.027 0.027-0.504 0.618 0.195 0.25z" inkscape:connector-curvature="0"></path> <path id="path228" style="fill-rule:evenodd;fill:#000000;fill-opacity:.2" d="m15.996 27.486 0.336-0.895-0.027 0.027-0.504 0.618 0.195 0.25z" inkscape:connector-curvature="0"></path> <path id="path230" style="fill-rule:evenodd;fill:#000000;fill-opacity:.14510" d="m15.383 26.509 0.418 0.727 0.504-0.618c-0.317 0.075-0.625 0.04-0.922-0.109z" inkscape:connector-curvature="0"></path> <path id="path232" style="fill-rule:evenodd;fill:#000000;fill-opacity:.2" d="m15.383 26.509 0.418 0.727 0.504-0.618c-0.317 0.075-0.625 0.04-0.922-0.109z" inkscape:connector-curvature="0"></path> <path id="path234" style="fill-rule:evenodd;fill:#000000;fill-opacity:.2" d="m15.383 26.509 0.418 0.727 0.504-0.618c-0.317 0.075-0.625 0.04-0.922-0.109z" inkscape:connector-curvature="0"></path> <path id="path236" style="fill-rule:evenodd;fill:#000000;fill-opacity:.2" d="m12.02 25.025 1.066 0.781 0.617 0.031 0.754-0.113-0.812-0.953c-0.579-0.617-0.95-1.11-1.118-1.485-0.281-0.632-0.207-1.183 0.223-1.652l-0.758 0.055c-0.355 0.058-0.578 0.152-0.672 0.281-0.109 0.133-0.121 0.422-0.027 0.867 0.113 0.449 0.176 0.739 0.195 0.871l0.086 0.391 0.446 0.926z" inkscape:connector-curvature="0"></path> <path id="path238" style="fill-rule:evenodd;fill:#000000;fill-opacity:.2" d="m12.02 25.025 1.066 0.781 0.617 0.031 0.754-0.113-0.812-0.953c-0.579-0.617-0.95-1.11-1.118-1.485-0.281-0.632-0.207-1.183 0.223-1.652l-0.758 0.055c-0.355 0.058-0.578 0.152-0.672 0.281-0.109 0.133-0.121 0.422-0.027 0.867 0.113 0.449 0.176 0.739 0.195 0.871l0.086 0.391 0.446 0.926z" inkscape:connector-curvature="0"></path> <path id="path240" style="fill-rule:evenodd;fill:#000000;fill-opacity:.14510" d="m15.66 27.712 0.028 0.11 0.167 0.031 0.141-0.367-0.195-0.25-0.336 0.336 0.195 0.14z" inkscape:connector-curvature="0"></path> <path id="path242" style="fill-rule:evenodd;fill:#000000;fill-opacity:.2" d="m15.66 27.712 0.028 0.11 0.167 0.031 0.141-0.367-0.195-0.25-0.336 0.336 0.195 0.14z" inkscape:connector-curvature="0"></path> <path id="path244" style="fill-rule:evenodd;fill:#000000;fill-opacity:.2" d="m15.66 27.712 0.028 0.11 0.167 0.031 0.141-0.367-0.195-0.25-0.336 0.336 0.195 0.14z" inkscape:connector-curvature="0"></path> <path id="path246" style="fill-rule:evenodd;fill:#000000;fill-opacity:.14510" d="m14.457 25.724-0.758 0.113-0.613-0.031 1.426 1.035 0.672-0.445c-0.204-0.149-0.446-0.375-0.727-0.672z" inkscape:connector-curvature="0"></path> <path id="path248" style="fill-rule:evenodd;fill:#000000;fill-opacity:.2" d="m14.457 25.724-0.758 0.113-0.613-0.031 1.426 1.035 0.672-0.445c-0.204-0.149-0.446-0.375-0.727-0.672z" inkscape:connector-curvature="0"></path> <path id="path250" style="fill-rule:evenodd;fill:#000000;fill-opacity:.2" d="m14.457 25.724-0.758 0.113-0.613-0.031 1.426 1.035 0.672-0.445c-0.204-0.149-0.446-0.375-0.727-0.672z" inkscape:connector-curvature="0"></path> <path id="path252" style="fill-rule:evenodd;fill:#000000;fill-opacity:.14510" d="m14.512 26.845 0.953 0.727 0.336-0.336-0.418-0.727-0.195-0.113-0.676 0.449z" inkscape:connector-curvature="0"></path> <path id="path254" style="fill-rule:evenodd;fill:#000000;fill-opacity:.2" d="m14.512 26.845 0.953 0.727 0.336-0.336-0.418-0.727-0.195-0.113-0.676 0.449z" inkscape:connector-curvature="0"></path> <path id="path256" style="fill-rule:evenodd;fill:#000000;fill-opacity:.2" d="m14.512 26.845 0.953 0.727 0.336-0.336-0.418-0.727-0.195-0.113-0.676 0.449z" inkscape:connector-curvature="0"></path> <path id="path258" style="fill-rule:evenodd;fill:#000000;fill-opacity:.2" d="m14.512 26.845 0.953 0.727 0.336-0.336-0.418-0.727-0.195-0.113-0.676 0.449z" inkscape:connector-curvature="0"></path> <path id="path260" style="fill-rule:evenodd;fill:#000000;fill-opacity:.2" d="m8.773 19.954 0.282 0.114-0.395-0.309 0.113 0.195z" inkscape:connector-curvature="0"></path> <path id="path262" style="fill-rule:evenodd;fill:#000000;fill-opacity:.14510" d="m5.555 12.115v-0.559l-0.168 0.195 0.168 0.364z" inkscape:connector-curvature="0"></path> <path id="path264" style="fill-rule:evenodd;fill:#000000;fill-opacity:.2" d="m5.555 12.115v-0.559l-0.168 0.195 0.168 0.364z" inkscape:connector-curvature="0"></path> <path id="path266" style="fill-rule:evenodd;fill:#000000;fill-opacity:.14510" d="m6.672 16.232-0.586-1.625c0.109 0.558 0.297 1.129 0.559 1.707l0.027-0.082z" inkscape:connector-curvature="0"></path> <path id="path268" style="fill-rule:evenodd;fill:#000000;fill-opacity:.2" d="m6.672 16.232-0.586-1.625c0.109 0.558 0.297 1.129 0.559 1.707l0.027-0.082z" inkscape:connector-curvature="0"></path> <path id="path270" style="fill-rule:evenodd;fill:#000000;fill-opacity:.14510" d="m5.555 11.556c-0.039-0.504-0.032-0.941 0.027-1.316 0.242 0.054 0.43 0.168 0.559 0.336 0.113-0.618 0.437-1.625 0.98-3.024-0.297 0.074-0.605 0.27-0.926 0.586-0.351 0.414-0.613 0.703-0.781 0.871-0.391 0.391-0.531 0.949-0.422 1.68 0.039 0.148 0.168 0.504 0.395 1.062l0.168-0.195z" inkscape:connector-curvature="0"></path> <path id="path272" style="fill-rule:evenodd;fill:#000000;fill-opacity:.2" d="m5.555 11.556c-0.039-0.504-0.032-0.941 0.027-1.316 0.242 0.054 0.43 0.168 0.559 0.336 0.113-0.618 0.437-1.625 0.98-3.024-0.297 0.074-0.605 0.27-0.926 0.586-0.351 0.414-0.613 0.703-0.781 0.871-0.391 0.391-0.531 0.949-0.422 1.68 0.039 0.148 0.168 0.504 0.395 1.062l0.168-0.195z" inkscape:connector-curvature="0"></path> <path id="path274" style="fill-rule:evenodd;fill:#000000;fill-opacity:.2" d="m5.555 11.556c-0.039-0.504-0.032-0.941 0.027-1.316 0.242 0.054 0.43 0.168 0.559 0.336 0.113-0.618 0.437-1.625 0.98-3.024-0.297 0.074-0.605 0.27-0.926 0.586-0.351 0.414-0.613 0.703-0.781 0.871-0.391 0.391-0.531 0.949-0.422 1.68 0.039 0.148 0.168 0.504 0.395 1.062l0.168-0.195z" inkscape:connector-curvature="0"></path> <path id="path276" style="fill-rule:evenodd;fill:#000000;fill-opacity:.2" d="m8.66 19.759 0.395 0.309 0.418 0.168c-0.11-0.336-0.411-0.828-0.895-1.485-0.41-0.539-0.625-1.062-0.644-1.566 0-0.469 0.101-0.832 0.308-1.094 0.149-0.148 0.418-0.43 0.813-0.84-0.45 0.188-0.926 0.059-1.43-0.39-0.316 0.316-0.605 0.718-0.867 1.203l-0.086 0.168 0.199 0.59c0.242 0.464 0.836 1.445 1.789 2.937z" inkscape:connector-curvature="0"></path> <path id="path278" style="fill-rule:evenodd;fill:#000000;fill-opacity:.2" d="m8.66 19.759 0.395 0.309 0.418 0.168c-0.11-0.336-0.411-0.828-0.895-1.485-0.41-0.539-0.625-1.062-0.644-1.566 0-0.469 0.101-0.832 0.308-1.094 0.149-0.148 0.418-0.43 0.813-0.84-0.45 0.188-0.926 0.059-1.43-0.39-0.316 0.316-0.605 0.718-0.867 1.203l-0.086 0.168 0.199 0.59c0.242 0.464 0.836 1.445 1.789 2.937z" inkscape:connector-curvature="0"></path> <path id="path280" style="fill-rule:evenodd;fill:#000000;fill-opacity:.14510" d="m6.086 14.607 0.586 1.625 0.086-0.168c0.262-0.485 0.551-0.887 0.867-1.207-0.355-0.278-0.672-0.649-0.953-1.117-0.262-0.43-0.43-0.813-0.504-1.149-0.129-0.543-0.148-1.129-0.055-1.765l-0.558 0.73v0.586c0.148 0.375 0.304 1.113 0.472 2.215l0.059 0.25z" inkscape:connector-curvature="0"></path> <path id="path282" style="fill-rule:evenodd;fill:#000000;fill-opacity:.2" d="m6.086 14.607 0.586 1.625 0.086-0.168c0.262-0.485 0.551-0.887 0.867-1.207-0.355-0.278-0.672-0.649-0.953-1.117-0.262-0.43-0.43-0.813-0.504-1.149-0.129-0.543-0.148-1.129-0.055-1.765l-0.558 0.73v0.586c0.148 0.375 0.304 1.113 0.472 2.215l0.059 0.25z" inkscape:connector-curvature="0"></path> <path id="path284" style="fill-rule:evenodd;fill:#000000;fill-opacity:.2" d="m6.086 14.607 0.586 1.625 0.086-0.168c0.262-0.485 0.551-0.887 0.867-1.207-0.355-0.278-0.672-0.649-0.953-1.117-0.262-0.43-0.43-0.813-0.504-1.149-0.129-0.543-0.148-1.129-0.055-1.765l-0.558 0.73v0.586c0.148 0.375 0.304 1.113 0.472 2.215l0.059 0.25z" inkscape:connector-curvature="0"></path> <path id="path286" style="fill-rule:evenodd;fill:#000000;fill-opacity:.14510" d="m5.555 11.556 0.558-0.727 0.028-0.253c-0.129-0.168-0.317-0.282-0.559-0.336-0.055 0.375-0.066 0.812-0.027 1.316z" inkscape:connector-curvature="0"></path> <path id="path288" style="fill-rule:evenodd;fill:#000000;fill-opacity:.2" d="m5.555 11.556 0.558-0.727 0.028-0.253c-0.129-0.168-0.317-0.282-0.559-0.336-0.055 0.375-0.066 0.812-0.027 1.316z" inkscape:connector-curvature="0"></path> <path id="path290" style="fill-rule:evenodd;fill:#000000;fill-opacity:.2" d="m5.555 11.556 0.558-0.727 0.028-0.253c-0.129-0.168-0.317-0.282-0.559-0.336-0.055 0.375-0.066 0.812-0.027 1.316z" inkscape:connector-curvature="0"></path> <path id="path292" style="fill-rule:evenodd;fill:#000000;fill-opacity:.2" d="m5.555 11.556 0.558-0.727 0.028-0.253c-0.129-0.168-0.317-0.282-0.559-0.336-0.055 0.375-0.066 0.812-0.027 1.316z" inkscape:connector-curvature="0"></path> <path id="path294" style="fill-rule:evenodd;fill:#ffffff;fill-opacity:0.498" d="m20.785 27.458 0.281 0.086c0.188-0.375 0.579-0.777 1.176-1.203 0.598-0.414 1.121-0.664 1.567-0.758 0.523-0.109 1.16-0.168 1.906-0.168 0.426-0.019 1.066-0.019 1.918 0-0.153-0.004-0.922-0.117-2.313-0.336-1.008-0.148-1.773-0.128-2.293 0.059-0.281 0.09-0.582 0.324-0.898 0.699l-0.754 0.895c-0.859 0.82-1.672 1.289-2.437 1.398 0.988 0 1.605-0.222 1.847-0.672z" inkscape:connector-curvature="0"></path> <path id="path296" style="fill-rule:evenodd;fill:#6a95b9" d="m38.707 28.185c0.242-1.043 0.156-1.895-0.254-2.547l-0.586-0.926v-0.082l0.195-0.363v-0.027l0.168-0.336v-0.032l0.168-0.336 0.055-0.082 0.199-0.39 0.082-0.113 0.254-0.477 0.95-1.457c0.578-0.746 1.156-1.715 1.738-2.91 0.594-1.27 0.961-2.317 1.09-3.137 0.32-2.055 0.457-3.621 0.422-4.703-0.059-1.754-0.524-3.156-1.403-4.199-0.82-0.992-3.012-1.973-6.578-2.942-4.965-1.324-7.477-1.996-7.531-2.015-1.586-0.598-3.942-0.7-7.059-0.309-2.875 0.375-5.961 1.109-9.265 2.211l-1.008 0.395-1.711 0.867-1.035 0.726-0.981 0.953-0.168 0.223c-0.129 0.133-0.269 0.309-0.418 0.531l-0.449 0.672c-0.242 0.469-0.43 0.887-0.559 1.262l-0.027 0.027-0.199 0.645-0.027 0.054-0.168 0.618v0.086l-0.141 0.64v0.059c-0.129 0.82-0.176 1.754-0.137 2.801v0.027l0.028 0.109 0.109 0.953 0.394 1.512 0.391 0.981 1.371 2.464 1.176 1.567 0.059 0.086 2.519 2.547 5.207 3.863 0.055 0.027 0.031 0.114 0.082 0.195 0.195 0.812v0.028l0.059 0.449v0.168l-0.031 0.59 0.058 0.168v0.027l0.141 0.141 0.055 0.027 0.027 0.027 0.113 0.028v0.027l0.309 0.059 0.445 0.027c0.84 0.41 1.746 0.606 2.719 0.586 0.855 0 1.586-0.168 2.184-0.504 0.597-0.336 1.242-0.633 1.929-0.894 0.766-0.301 1.309-0.45 1.625-0.45 0.953 0 2.102 0.254 3.446 0.758 0.894 0.336 1.652 0.539 2.265 0.613 0.766 0.094 1.469 0.039 2.102-0.168 0.465-0.148 1.66-0.242 3.582-0.277 1.59-0.226 2.168-0.914 1.738-2.074z" inkscape:connector-curvature="0"></path> <path id="path298" style="fill-rule:evenodd;fill:#c4b050" d="m18.992 24.017-0.168-0.449c-0.504 0.41-1.015 0.906-1.539 1.484-0.523 0.598-0.785 0.988-0.785 1.176 0 0.168 0.105 0.269 0.309 0.308 0.187 0.055 0.308 0.028 0.367-0.085 0.332-0.524 1.035-1.028 2.097-1.512 0.02-0.168-0.074-0.477-0.281-0.922z" inkscape:connector-curvature="0"></path> <path id="path300" style="fill-rule:evenodd;fill:#c4b050" d="m20.254 23.54c0.168 0.43 0.371 0.559 0.613 0.391 0.094-0.055 0.348-0.188 0.758-0.391 0.281-0.132 0.484-0.254 0.617-0.363 0.262-0.246 0.988-0.496 2.184-0.758 1.082-0.222 1.613-0.355 1.594-0.39h0.054l-0.054-1.094c-0.094-0.168-0.391-0.203-0.895-0.109-0.82 0.109-1.82 0.41-2.996 0.894-1.008 0.41-1.633 0.727-1.875 0.953-0.168 0.168-0.168 0.453 0 0.867z" inkscape:connector-curvature="0"></path> <path id="path302" style="fill-rule:evenodd;fill:#93843d" d="m33.219 22.165c-0.02-0.148-0.028-0.363-0.028-0.64-0.058-0.246-0.218-0.43-0.476-0.563-1.531-0.129-3.211-0.168-5.043-0.113-0.129 0.168-0.168 0.375-0.11 0.617 0.094 0.391 0.137 0.598 0.137 0.617l3.055 0.028c0.672 0 1.492 0.093 2.465 0.281v-0.227z" inkscape:connector-curvature="0"></path> <path id="path304" style="fill-rule:evenodd;fill:#c4b050" d="m37.332 24.24c0.133-0.075 0.152-0.262 0.059-0.559-0.114-0.281-0.289-0.57-0.536-0.871-0.39-0.5-0.921-0.914-1.593-1.231l-0.114 0.168-0.222 0.672c0.222 0.317 0.324 0.504 0.308 0.559 0.11 0.058 0.262 0.152 0.446 0.281 0.898 0.746 1.449 1.074 1.652 0.981z" inkscape:connector-curvature="0"></path> <path id="path306" style="fill-rule:evenodd;fill:#93843d" d="m37.332 24.24c0.133-0.075 0.152-0.262 0.059-0.559-0.114-0.281-0.289-0.57-0.536-0.871-0.316-0.391-0.687-0.719-1.117-0.981l-0.058 0.2 0.113 0.222c0.148 0.539 0.516 1.176 1.094 1.903 0.183 0.113 0.336 0.14 0.445 0.086z" inkscape:connector-curvature="0"></path> <path id="path308" style="fill-rule:evenodd;fill:#c4b050" d="m33.219 22.392v-0.113c-0.785-0.43-1.684-0.707-2.688-0.84-0.523-0.055-1.457-0.082-2.801-0.082l-0.195-0.028c0.11 0.336 0.168 0.586 0.168 0.754l3.051 0.028c0.672 0 1.492 0.093 2.465 0.281z" inkscape:connector-curvature="0"></path> <path id="path310" style="fill-rule:evenodd;fill:#93843d" d="m20.59 22.673c1.324-0.582 2.191-0.945 2.601-1.094 1.176-0.371 2.129-0.449 2.856-0.222l-0.027-0.422c-0.094-0.168-0.391-0.203-0.895-0.109-0.82 0.109-1.82 0.41-2.996 0.894-1.008 0.41-1.633 0.727-1.875 0.953-0.094 0.129-0.133 0.285-0.113 0.473 0.093-0.203 0.242-0.363 0.449-0.473z" inkscape:connector-curvature="0"></path> <path id="path312" style="fill-rule:evenodd;fill:#c4b050" d="m37.305 20.572c-0.95-1.438-1.727-2.735-2.325-3.891l-0.418-0.871c-0.972-1.863-1.773-3.301-2.41-4.313-1.117-1.773-2.5-3.629-4.144-5.57-1.754-2.051-3.5-3.488-5.235-4.312-1.062-0.485-2.699-0.907-4.898-1.258l-1.039-0.168c-1.082-0.188-2.461-0.235-4.141-0.141-5.097 0.352-8.683 1.223-10.754 2.602-1.382 0.914-2.027 1.988-1.933 3.222 0.058 1.024 0.551 1.996 1.484 2.911 0.653 0.652 1.371 1.156 2.156 1.511 0.43 0.207 0.821 0.739 1.176 1.598 0.207 0.523 0.469 1.406 0.785 2.66 0.317 1.27 0.586 2.211 0.813 2.828 0.371 0.988 0.82 1.774 1.344 2.352 0.089 0.109 0.504 0.492 1.23 1.148 0.578 0.52 1.035 1.028 1.371 1.512 1.719 2.535 2.699 3.957 2.942 4.254 1.027 1.269 1.988 1.875 2.882 1.82l0.082-0.113c0.184-0.016 0.293 0.027 0.336 0.129l-0.054-0.156c0-0.149 0.011-0.278 0.031-0.391-0.02-0.039-0.133-0.047-0.34-0.027-0.519 0.015-1.191-0.516-2.016-1.598-0.617-0.82-1.527-2.27-2.742-4.34-0.316-0.543-0.785-1.094-1.398-1.652-0.86-0.821-1.309-1.25-1.348-1.289-0.707-0.782-1.332-2.266-1.875-4.45-0.801-3.062-1.929-4.918-3.387-5.574-0.726-0.336-1.296-0.734-1.707-1.203-0.355-0.41-0.55-0.828-0.589-1.258-0.039-0.523 0.55-1.195 1.765-2.019 1.473-0.989 3.629-1.707 6.465-2.153 2.707-0.429 5.09-0.476 7.141-0.14l1.035 0.168c2.168 0.351 3.762 0.765 4.789 1.23 1.68 0.746 3.305 2.043 4.871 3.891 1.645 1.926 2.855 3.484 3.641 4.676 0.484 0.75 1.129 1.894 1.933 3.445l1.399 2.547c1.007 1.926 2.117 3.594 3.332 5.015 0.578 0.821 1.007 1.129 1.289 0.922 0.168-0.109 0.195-0.39 0.082-0.84-0.094-0.371-0.223-0.671-0.391-0.894-0.351-0.504-0.762-1.109-1.23-1.82z" inkscape:connector-curvature="0"></path> <path id="path314" style="fill-rule:evenodd;fill:#93843d" d="m16.559 28.326c0-0.149 0.007-0.278 0.027-0.391-0.02-0.035-0.133-0.047-0.336-0.027-0.484 0.019-1.094-0.43-1.82-1.344-0.578-0.746-1.391-1.988-2.434-3.727l0.363 1.149c0.411 0.859 0.727 1.504 0.95 1.933 0.375 0.785 0.757 1.41 1.148 1.875 0.598 0.469 1.176 0.692 1.738 0.672l0.082-0.109c0.133 0 0.235 0.035 0.309 0.109l-0.027-0.14z" inkscape:connector-curvature="0"></path> <path id="path316" style="fill-rule:evenodd;fill:#a09047" d="m38.844 24.126c0.168-0.109 0.199-0.39 0.086-0.84-0.094-0.371-0.223-0.671-0.395-0.894-0.351-0.504-0.762-1.109-1.23-1.82-0.95-1.438-1.727-2.735-2.325-3.891l-0.418-0.871c-0.972-1.863-1.773-3.301-2.41-4.313-1.117-1.773-2.5-3.629-4.144-5.57-1.754-2.051-3.5-3.488-5.235-4.312-1.062-0.485-2.699-0.907-4.898-1.258l-1.039-0.168c-1.082-0.188-2.461-0.235-4.141-0.141-5.097 0.352-8.683 1.223-10.754 2.602-1.382 0.914-2.027 1.988-1.933 3.222 0.019 0.485 0.18 1.008 0.476 1.567l0.059-0.168c-0.039-0.633 0.074-1.121 0.332-1.457 0.879-1.176 1.672-1.977 2.383-2.406 1.324-0.786 3.379-1.336 6.16-1.653 3.473-0.39 6.543-0.363 9.211 0.082 3.117 0.524 5.461 1.571 7.027 3.137 1.68 1.68 3.051 3.258 4.117 4.734 1.063 1.453 2.118 3.239 3.165 5.348 0.726 1.453 1.222 2.445 1.484 2.969 0.39 0.82 0.644 1.426 0.754 1.816 0.804 1.309 1.597 2.43 2.383 3.363 0.578 0.821 1.007 1.129 1.285 0.922z" inkscape:connector-curvature="0"></path> <path id="path318" style="fill-rule:evenodd;fill:#7b6e36" d="m14.68 0.271c3.437 0.242 6.125 0.691 8.066 1.344-0.711-0.317-1.504-0.586-2.379-0.813-0.543-0.109-1.375-0.262-2.492-0.445l-1.039-0.168c-1.082-0.188-2.461-0.235-4.141-0.141-5.097 0.352-8.683 1.223-10.754 2.602-0.859 0.578-1.437 1.222-1.734 1.933 0.84-0.558 1.668-1.054 2.488-1.484 0.227-0.148 0.516-0.309 0.871-0.477 0.801-0.41 1.512-0.738 2.125-0.98 0.153-0.055 0.289-0.074 0.422-0.055 2.727-1.047 5.582-1.484 8.567-1.316z" inkscape:connector-curvature="0"></path> <path id="path320" style="fill-rule:evenodd;fill:#8a7c3e" d="m38.844 24.126c0.168-0.109 0.199-0.39 0.086-0.84-0.094-0.371-0.223-0.671-0.395-0.894-1.062-1.477-2.051-3.024-2.965-4.649 0.055 0.821 0.035 1.708-0.058 2.661 0.711 1.101 1.39 2.035 2.047 2.8 0.578 0.821 1.007 1.129 1.285 0.922z" inkscape:connector-curvature="0"></path> </g> </g> <metadata></metadata></svg> 