<?xml version="1.0" encoding="UTF-8" standalone="no"?> <svg xmlns:inkscape="http://www.inkscape.org/namespaces/inkscape" xmlns:rdf="http://www.w3.org/1999/02/22-rdf-syntax-ns#" xmlns="http://www.w3.org/2000/svg" xmlns:xlink="http://www.w3.org/1999/xlink" xmlns:ns1="http://sozi.baierouge.fr" xmlns:cc="http://creativecommons.org/ns#" xmlns:dc="http://purl.org/dc/elements/1.1/" xmlns:sodipodi="http://sodipodi.sourceforge.net/DTD/sodipodi-0.dtd" id="svg2" inkscape:version="0.48.3.1 r9886" viewBox="0 0 22.500288 36.858652" sodipodi:docname="_svgclean2.svg"><g id="g4" transform="translate(-10.43 -9.2613)"><radialGradient id="a" gradientUnits="userSpaceOnUse" cy="-267.84" cx="1301.7" gradientTransform="matrix(.329 .729 .729 -.329 -213.29 -1005.7)" r="18.043"><stop id="stop7" stop-color="#DEDAFE" stop-opacity=".667" offset="0"></stop><stop id="stop9" stop-color="#67669B" stop-opacity=".847" offset=".988"></stop></radialGradient><path id="path11" d="m10.83 34.816c0.027-0.586 0.108-1.214 0.24-1.88 0.935 0.666 2.308 1.227 4.12 1.68 1.868 0.454 3.908 0.707 6.12 0.76 2.428 0.054 4.628-0.12 6.602-0.52 1.92-0.373 3.306-0.92 4.16-1.64 0.132 0.826 0.186 1.56 0.16 2.2-0.08 2.96-1.19 5.453-3.32 7.48-2.16 2.025-4.707 3-7.64 2.92-2.96-0.08-5.455-1.188-7.48-3.32-2.055-2.16-3.04-4.72-2.96-7.68z" style="fill:url(#a);fill-rule:evenodd" inkscape:connector-curvature="0"></path><radialGradient id="b" gradientUnits="userSpaceOnUse" cy="-294.31" cx="1304.9" gradientTransform="matrix(.314 .736 .701 -.332 -184.81 -1028.4)" r="13.838"><stop id="stop14" stop-color="#BAC0D8" stop-opacity=".667" offset="0"></stop><stop id="stop16" stop-color="#8E95CE" stop-opacity=".847" offset=".988"></stop></radialGradient><path id="path18" d="m32.03 32.856c-0.026 0.746-1.08 1.347-3.16 1.8-2.08 0.48-4.572 0.68-7.48 0.6-2.933-0.08-5.426-0.413-7.48-1-2.053-0.586-3.066-1.253-3.04-2 0.027-0.746 1.08-1.346 3.16-1.8 2.107-0.48 4.613-0.68 7.52-0.6 2.934 0.08 5.414 0.414 7.44 1 2.053 0.586 3.067 1.254 3.04 2z" style="fill:url(#b);fill-rule:evenodd" inkscape:connector-curvature="0"></path><path id="path20" d="m28.87 34.656c2.044-0.445 3.098-1.032 3.16-1.76-0.054 0.81-0.906 1.475-2.56 2-1.92 0.613-4.573 0.866-7.96 0.76-3.387-0.08-6.067-0.48-8.04-1.2-1.708-0.62-2.574-1.327-2.6-2.12 0.04 0.713 1.055 1.354 3.04 1.92 2.053 0.587 4.546 0.92 7.48 1 2.908 0.08 5.4-0.12 7.48-0.6z" style="fill:#dbddfe;fill-rule:evenodd" inkscape:connector-curvature="0"></path><radialGradient id="c" gradientUnits="userSpaceOnUse" cy="-473.87" cx="1249.7" gradientTransform="matrix(.208 .772 .772 -.208 128.04 -1027.1)" r="2.304"><stop id="stop23" stop-color="#fff" offset="0"></stop><stop id="stop25" stop-color="#DBDCF4" offset=".165"></stop><stop id="stop27" stop-color="#40407C" stop-opacity=".847" offset=".859"></stop><stop id="stop29" stop-color="#7D76AA" stop-opacity=".847" offset="1"></stop></radialGradient><path id="path31" d="m23.99 37.376c-0.026 0.374-0.187 0.707-0.48 1-0.293 0.267-0.653 0.387-1.08 0.36-0.4 0-0.746-0.146-1.04-0.44-0.292-0.293-0.426-0.626-0.4-1 0-0.4 0.148-0.733 0.44-1 0.294-0.266 0.653-0.386 1.08-0.36 0.428 0 0.773 0.147 1.04 0.44 0.294 0.267 0.44 0.6 0.44 1z" style="fill:url(#c);fill-rule:evenodd" inkscape:connector-curvature="0"></path><radialGradient id="d" gradientUnits="userSpaceOnUse" cy="-463.65" cx="1244.9" gradientTransform="matrix(.208 .772 .772 -.208 112.33 -1022.5)" r="1.346"><stop id="stop34" stop-color="#fff" offset="0"></stop><stop id="stop36" stop-color="#DBDCF4" offset=".165"></stop><stop id="stop38" stop-color="#40407C" stop-opacity=".847" offset=".859"></stop><stop id="stop40" stop-color="#7D76AA" stop-opacity=".847" offset="1"></stop></radialGradient><path id="path42" d="m14.07 35.856c-0.027 0.24-0.12 0.44-0.28 0.6-0.187 0.16-0.4 0.228-0.64 0.2-0.24 0-0.44-0.08-0.6-0.24-0.187-0.186-0.28-0.386-0.28-0.6 0.027-0.214 0.12-0.4 0.28-0.56 0.187-0.16 0.4-0.24 0.64-0.24s0.453 0.08 0.64 0.24c0.16 0.186 0.24 0.387 0.24 0.6z" style="fill:url(#d);fill-rule:evenodd" inkscape:connector-curvature="0"></path><radialGradient id="e" gradientUnits="userSpaceOnUse" cy="-468.61" cx="1245.7" gradientTransform="matrix(.208 .772 .772 -.208 119.99 -1024.6)" r="1.346"><stop id="stop45" stop-color="#fff" offset="0"></stop><stop id="stop47" stop-color="#DBDCF4" offset=".165"></stop><stop id="stop49" stop-color="#40407C" stop-opacity=".847" offset=".859"></stop><stop id="stop51" stop-color="#7D76AA" stop-opacity=".847" offset="1"></stop></radialGradient><path id="path53" d="m18.03 35.457c0 0.213-0.093 0.4-0.28 0.56-0.16 0.16-0.373 0.24-0.64 0.24-0.56-0.054-0.84-0.347-0.84-0.88 0-0.214 0.093-0.4 0.28-0.56 0.16-0.16 0.374-0.24 0.64-0.24 0.56 0.053 0.84 0.346 0.84 0.88z" style="fill:url(#e);fill-rule:evenodd" inkscape:connector-curvature="0"></path><radialGradient id="f" gradientUnits="userSpaceOnUse" cy="-477" cx="1245.3" gradientTransform="matrix(.208 .772 .772 -.208 132.94 -1028.1)" r="1.346"><stop id="stop56" stop-color="#fff" offset="0"></stop><stop id="stop58" stop-color="#DBDCF4" offset=".165"></stop><stop id="stop60" stop-color="#40407C" stop-opacity=".847" offset=".859"></stop><stop id="stop62" stop-color="#7D76AA" stop-opacity=".847" offset="1"></stop></radialGradient><path id="path64" d="m24.43 33.416c0 0.214-0.08 0.4-0.24 0.56-0.186 0.16-0.4 0.24-0.64 0.24s-0.452-0.08-0.64-0.24c-0.16-0.16-0.24-0.36-0.24-0.6s0.094-0.44 0.28-0.6c0.188-0.16 0.4-0.227 0.64-0.2 0.24 0 0.44 0.08 0.6 0.24s0.24 0.36 0.24 0.6z" style="fill:url(#f);fill-rule:evenodd" inkscape:connector-curvature="0"></path><radialGradient id="g" gradientUnits="userSpaceOnUse" cy="-464.96" cx="1251.8" gradientTransform="matrix(.209 .772 .772 -.209 114 -1024.4)" r="2.292"><stop id="stop67" stop-color="#fff" offset="0"></stop><stop id="stop69" stop-color="#DBDCF4" offset=".165"></stop><stop id="stop71" stop-color="#40407C" stop-opacity=".847" offset=".859"></stop><stop id="stop73" stop-color="#7D76AA" stop-opacity=".847" offset="1"></stop></radialGradient><path id="path75" d="m18.79 40.016c-0.025 0.374-0.186 0.694-0.478 0.96-0.294 0.267-0.654 0.4-1.08 0.4-0.4-0.026-0.734-0.173-1-0.44-0.294-0.293-0.44-0.626-0.44-1 0.025-0.4 0.186-0.732 0.478-1 0.294-0.266 0.64-0.386 1.04-0.36 0.427 0 0.773 0.147 1.04 0.44 0.294 0.267 0.44 0.6 0.44 1z" style="fill:url(#g);fill-rule:evenodd" inkscape:connector-curvature="0"></path><radialGradient id="h" gradientUnits="userSpaceOnUse" cy="-476.5" cx="1253.9" gradientTransform="matrix(.211 .772 .772 -.211 131.37 -1030.8)" r="1.374"><stop id="stop78" stop-color="#fff" offset="0"></stop><stop id="stop80" stop-color="#DBDCF4" offset=".165"></stop><stop id="stop82" stop-color="#40407C" stop-opacity=".847" offset=".859"></stop><stop id="stop84" stop-color="#7D76AA" stop-opacity=".847" offset="1"></stop></radialGradient><path id="path86" d="m29.39 37.576c0 0.24-0.092 0.44-0.28 0.6-0.186 0.16-0.398 0.24-0.64 0.24-0.586-0.053-0.88-0.346-0.88-0.88 0-0.24 0.094-0.44 0.28-0.6s0.4-0.24 0.64-0.24c0.588 0.054 0.88 0.347 0.88 0.88z" style="fill:url(#h);fill-rule:evenodd" inkscape:connector-curvature="0"></path><radialGradient id="i" gradientUnits="userSpaceOnUse" cy="-842.17" cx="1011" gradientTransform="matrix(-.053 .798 1.348 .106 1203 -687.93)" r="1.892"><stop id="stop89" stop-color="#fff" offset="0"></stop><stop id="stop91" stop-color="#DBDCF4" offset=".165"></stop><stop id="stop93" stop-color="#40407C" stop-opacity=".847" offset=".859"></stop><stop id="stop95" stop-color="#7D76AA" stop-opacity=".847" offset="1"></stop></radialGradient><path id="path97" d="m14.19 31.497c-0.534 0-0.986-0.12-1.36-0.36 0.08-0.347 0.253-0.627 0.52-0.84 0.267-0.24 0.56-0.347 0.88-0.32 0.347 0.026 0.653 0.16 0.92 0.4 0.266 0.24 0.413 0.546 0.44 0.92-0.4 0.16-0.866 0.226-1.4 0.2z" style="fill:url(#i);fill-rule:evenodd" inkscape:connector-curvature="0"></path><radialGradient id="j" gradientUnits="userSpaceOnUse" cy="-855.63" cx="1011.4" gradientTransform="matrix(-.054 .798 1.353 .108 1235.9 -682.46)" r="1.478"><stop id="stop100" stop-color="#fff" offset="0"></stop><stop id="stop102" stop-color="#DBDCF4" offset=".165"></stop><stop id="stop104" stop-color="#40407C" stop-opacity=".847" offset=".859"></stop><stop id="stop106" stop-color="#7D76AA" stop-opacity=".847" offset="1"></stop></radialGradient><path id="path108" d="m23.55 33.376c-0.533-0.026-0.893-0.133-1.08-0.32 0.055-0.266 0.188-0.48 0.4-0.64 0.213-0.186 0.454-0.267 0.72-0.24 0.294 0 0.534 0.095 0.72 0.28 0.188 0.214 0.294 0.467 0.32 0.76-0.32 0.107-0.68 0.16-1.08 0.16z" style="fill:url(#j);fill-rule:evenodd" inkscape:connector-curvature="0"></path><radialGradient id="k" gradientUnits="userSpaceOnUse" cy="-851.44" cx="1012" gradientTransform="matrix(-.054 .798 1.347 .109 1221.7 -682.12)" r="2.205"><stop id="stop111" stop-color="#fff" offset="0"></stop><stop id="stop113" stop-color="#DBDCF4" offset=".165"></stop><stop id="stop115" stop-color="#40407C" stop-opacity=".847" offset=".859"></stop><stop id="stop117" stop-color="#7D76AA" stop-opacity=".847" offset="1"></stop></radialGradient><path id="path119" d="m19.79 34.616c-0.72-0.026-1.252-0.174-1.6-0.44 0.108-0.4 0.308-0.733 0.6-1 0.32-0.266 0.68-0.386 1.08-0.36s0.748 0.188 1.042 0.48c0.293 0.294 0.466 0.654 0.52 1.08-0.322 0.187-0.868 0.267-1.64 0.24z" style="fill:url(#k);fill-rule:evenodd" inkscape:connector-curvature="0"></path><radialGradient id="l" gradientUnits="userSpaceOnUse" cy="-869.07" cx="1011.8" gradientTransform="matrix(-.06 .798 1.716 .13 1580.9 -663.81)" r="1.555"><stop id="stop122" stop-color="#fff" offset="0"></stop><stop id="stop124" stop-color="#DBDCF4" offset=".165"></stop><stop id="stop126" stop-color="#40407C" stop-opacity=".847" offset=".859"></stop><stop id="stop128" stop-color="#7D76AA" stop-opacity=".847" offset="1"></stop></radialGradient><path id="path130" d="m27.87 31.257c-0.613 0-1.08-0.107-1.4-0.32 0.08-0.294 0.254-0.52 0.52-0.68 0.294-0.187 0.614-0.268 0.96-0.24 0.35 0 0.668 0.106 0.962 0.32 0.266 0.213 0.413 0.466 0.44 0.76-0.348 0.133-0.84 0.186-1.482 0.16z" style="fill:url(#l);fill-rule:evenodd" inkscape:connector-curvature="0"></path><radialGradient id="m" gradientUnits="userSpaceOnUse" cy="-815.86" cx="1036.1" gradientTransform="matrix(-.025 .8 1.565 .049 1325.5 -768.9)" r="16.558"><stop id="stop133" stop-color="#fff" stop-opacity=".259" offset="0"></stop><stop id="stop135" stop-color="#EBEBEB" stop-opacity=".369" offset=".165"></stop><stop id="stop137" stop-color="#E0E0E0" stop-opacity=".459" offset=".859"></stop><stop id="stop139" stop-color="#EDEDED" stop-opacity=".228" offset="1"></stop></radialGradient><path id="path141" d="m22.91 24.916c-0.193-1.193-0.333-2.08-0.42-2.66l-0.42 0.32c-0.48 0.64-0.333 1.334 0.44 2.082 0.053 0.052 0.187 0.14 0.4 0.258zm-0.84-6.14h1.32c0.934 0.054 1.547 0.28 1.84 0.68 0.32 0.427 0.053 0.947-0.8 1.56-0.427 0.32-0.88 0.587-1.36 0.8l-0.44 0.34c0.137 0.367 0.337 0.84 0.6 1.42 0.268 0.534 0.308 0.893 0.12 1.08-0.16 0.16 0.214 0.347 1.12 0.56 1.174 0.294 1.895 0.52 2.16 0.68 1.547 0.988 2.76 2.308 3.64 3.96 0.934 1.76 1.468 2.694 1.6 2.802 0.748 0.586 0.374 1.173-1.12 1.76-1.76 0.72-4.478 1.025-8.158 0.92-3.574-0.08-6.427-0.548-8.56-1.4-1.733-0.693-2.4-1.227-2-1.6 0.052-0.054 0.533-0.84 1.44-2.36 0.88-1.413 1.6-2.293 2.16-2.64 0.506-0.294 1.2-0.294 2.08 0 0.827 0.266 1.4 0.253 1.72-0.04 0.373-0.347 0.373-0.84 0-1.48l-0.76-1.28c0-1.44 0.292-2.693 0.88-3.76 0.198-0.34 0.39-0.14 0.58 0.6 0.055-0.04 0.115-0.08 0.18-0.12 1.145-0.614 1.84-1 2.08-1.16 0.478-0.322 0.372-0.762-0.322-1.322z" style="fill:url(#m);fill-rule:evenodd" inkscape:connector-curvature="0"></path><radialGradient id="n" gradientUnits="userSpaceOnUse" cy="-627.32" cx="1172.7" gradientTransform="matrix(.109 .792 .726 -.1 348.53 -960.97)" r="17.867"><stop id="stop144" stop-color="#fff" stop-opacity=".478" offset="0"></stop><stop id="stop146" stop-color="#fff" stop-opacity=".082" offset=".71"></stop><stop id="stop148" stop-color="#fff" stop-opacity=".2" offset=".867"></stop><stop id="stop150" stop-color="#fff" stop-opacity=".028" offset="1"></stop></radialGradient><path id="path152" d="m11.27 30.616c1.147-2.933 3.147-5.04 6-6.32 2.855-1.28 5.71-1.36 8.56-0.24 2.882 1.12 4.935 3.12 6.16 6s1.254 5.787 0.08 8.72c-1.145 2.935-3.132 5.04-5.96 6.32-2.853 1.28-5.72 1.36-8.6 0.24s-4.933-3.12-6.16-6c-1.2-2.88-1.226-5.786-0.08-8.72z" style="fill:url(#n);fill-rule:evenodd" inkscape:connector-curvature="0"></path><radialGradient id="o" gradientUnits="userSpaceOnUse" cy="1328.4" cx="-123.38" gradientTransform="matrix(.607 -.522 -.522 -.607 782.11 781.58)" r="24.783"><stop id="stop155" stop-color="#fff" stop-opacity=".949" offset="0"></stop><stop id="stop157" stop-color="#8A9B9E" offset="1"></stop></radialGradient><path id="path159" d="m31.95 38.576c1.147-2.88 1.12-5.72-0.08-8.52-1.2-2.826-3.227-4.8-6.08-5.92-2.826-1.094-5.626-1.013-8.4 0.24-2.8 1.253-4.76 3.307-5.88 6.16-1.145 2.88-1.12 5.732 0.08 8.56 1.228 2.826 3.254 4.786 6.08 5.88s5.628 1.026 8.4-0.2c2.8-1.253 4.76-3.32 5.88-6.2zm-20.6 0.76c-1.2-2.88-1.226-5.786-0.08-8.72 1.147-2.933 3.147-5.04 6-6.32 2.855-1.28 5.71-1.36 8.56-0.24 2.882 1.12 4.935 3.12 6.16 6s1.254 5.787 0.08 8.72c-1.145 2.935-3.132 5.04-5.96 6.32-2.853 1.28-5.72 1.36-8.6 0.24s-4.933-3.12-6.16-6z" style="fill:url(#o);fill-rule:evenodd" inkscape:connector-curvature="0"></path><radialGradient id="p" gradientUnits="userSpaceOnUse" cy="-549.96" cx="1184.7" gradientTransform="matrix(.161 .784 .888 -.147 318.53 -982.46)" r="12.787"><stop id="stop162" stop-color="#fff" stop-opacity=".588" offset="0"></stop><stop id="stop164" stop-color="#fff" stop-opacity="0" offset="1"></stop></radialGradient><path id="path166" d="m22.67 28.137c0.72-0.054 1.334-0.16 1.84-0.32 1.76 0.614 2.855 1.934 3.28 3.96 0.214 1.014 0.254 1.974 0.12 2.88l-0.08 1.32c-0.213 0.986-0.64 1.813-1.28 2.48-2.106 2.133-6.106 2.213-12 0.24-1.76-0.588-2.72-1.987-2.88-4.2-0.132-1.92 0.28-3.72 1.242-5.4 0.453-0.8 1.106-1.507 1.96-2.12 0.666-0.507 1.133-0.773 1.4-0.8 0.133 0 0.24 0.146 0.32 0.44 0.292 0.4 0.986 0.786 2.08 1.16 1.172 0.372 2.505 0.494 3.998 0.36z" style="fill:url(#p);fill-rule:evenodd" inkscape:connector-curvature="0"></path><radialGradient id="q" gradientUnits="userSpaceOnUse" cy="-560.48" cx="1207.9" gradientTransform="matrix(.161 .784 .867 -.178 321.18 -1019.9)" r="8.396"><stop id="stop169" stop-color="#fff" stop-opacity=".62" offset="0"></stop><stop id="stop171" stop-color="#fff" stop-opacity=".028" offset="1"></stop></radialGradient><path id="path173" d="m26.55 26.937c0.214-0.187 0.228-0.573 0.04-1.16l-0.36-0.84 2 1.28c1.468 1.146 2.494 2.413 3.08 3.8 0.588 1.36 0.855 2.84 0.8 4.44-0.026 0.8-0.12 1.466-0.28 2l-1.84 0.32c0.16-0.188 0.28-0.508 0.36-0.96 0.16-0.96 0.067-2.175-0.28-3.64-0.346-1.494-1.04-2.814-2.08-3.962l-1.44-1.278z" style="fill:url(#q);fill-rule:evenodd" inkscape:connector-curvature="0"></path><linearGradient id="r" y2="709.4" gradientUnits="userSpaceOnUse" x2="1123.9" gradientTransform="matrix(.745 .292 -.292 .745 -604 -829.65)" y1="709.4" x1="1113.5"><stop id="stop176" stop-color="#fff" stop-opacity=".949" offset="0"></stop><stop id="stop178" stop-color="#ABD9DB" offset="1"></stop></linearGradient><path id="path180" d="m25.07 24.416c0.854 0.347 1.267 0.733 1.24 1.16s-0.427 0.787-1.2 1.08c-0.414 0.138-0.867 0.244-1.36 0.32 0.454-0.08 0.867-0.187 1.24-0.32 0.747-0.293 1.134-0.64 1.16-1.04 0.026-0.427-0.373-0.786-1.2-1.08-0.826-0.32-1.826-0.493-3-0.52-1.173-0.027-2.186 0.106-3.04 0.4-0.854 0.293-1.293 0.653-1.32 1.08-0.026 0.4 0.32 0.746 1.04 1.04 0.36 0.16 0.767 0.286 1.22 0.38-0.483-0.09-0.917-0.217-1.3-0.38-0.773-0.32-1.147-0.694-1.12-1.12 0.026-0.428 0.48-0.8 1.36-1.12 0.88-0.294 1.933-0.427 3.16-0.4s2.267 0.2 3.12 0.52z" style="fill:url(#r);fill-rule:evenodd" inkscape:connector-curvature="0"></path><linearGradient id="s" y2="870.96" gradientUnits="userSpaceOnUse" x2="1003.1" gradientTransform="matrix(.78 .176 -.176 .78 -604 -829.65)" y1="870.96" x1="993.76"><stop id="stop183" stop-opacity=".247" offset="0"></stop><stop id="stop185" stop-opacity=".028" offset="1"></stop></linearGradient><path id="path187" d="m26.15 25.616c-0.026 0.427-0.467 0.787-1.32 1.08-0.826 0.293-1.84 0.427-3.04 0.4-1.173-0.026-2.173-0.187-3-0.48-0.827-0.32-1.227-0.693-1.2-1.12 0.027-0.426 0.467-0.786 1.32-1.08 0.854-0.293 1.867-0.426 3.04-0.4 1.174 0.027 2.174 0.2 3 0.52 0.827 0.294 1.227 0.653 1.2 1.08z" style="fill:url(#s);fill-rule:evenodd" inkscape:connector-curvature="0"></path><linearGradient id="t" y2="485.34" gradientUnits="userSpaceOnUse" x2="-1220.5" gradientTransform="matrix(-.205 -.773 .773 -.205 -604 -829.65)" y1="485.34" x1="-1227.3"><stop id="stop190" stop-color="#fff" stop-opacity=".22" offset="0"></stop><stop id="stop192" stop-color="#fff" stop-opacity=".028" offset="1"></stop></linearGradient><path id="path194" d="m18.43 18.816c-1.04-0.48-1.547-1.053-1.52-1.72 0.027-0.666 0.573-1.227 1.64-1.68 1.04-0.427 2.293-0.626 3.76-0.6s2.706 0.294 3.72 0.8c1.04 0.48 1.547 1.054 1.52 1.72-0.025 0.667-0.56 1.227-1.6 1.68-1.066 0.454-2.333 0.654-3.8 0.6-1.466-0.026-2.706-0.293-3.72-0.8zm0.84-3.32c-0.826 0.32-1.24 0.694-1.24 1.12-0.026 0.454 0.374 0.854 1.2 1.2 0.8 0.32 1.786 0.494 2.96 0.52 1.146 0.054 2.146-0.08 3-0.4 0.826-0.292 1.253-0.665 1.28-1.12 0.026-0.452-0.373-0.852-1.2-1.2-0.8-0.318-1.787-0.492-2.96-0.52-1.172-0.026-2.186 0.107-3.04 0.4z" style="fill:url(#t);fill-rule:evenodd" inkscape:connector-curvature="0"></path><linearGradient id="u" y2="1043.6" gradientUnits="userSpaceOnUse" x2="816.84" gradientTransform="matrix(.8 .022 -.022 .8 -604 -829.65)" y1="1043.6" x1="806.04"><stop id="stop197" stop-color="#fff" stop-opacity=".22" offset="0"></stop><stop id="stop199" stop-color="#fff" stop-opacity=".028" offset="1"></stop></linearGradient><path id="path201" d="m24.95 19.257c0.8-0.267 1.307-0.614 1.52-1.04l-0.24 7.08 0.08 0.32c-0.026 0.48-0.466 0.88-1.32 1.2-0.88 0.346-1.906 0.506-3.078 0.48-1.2-0.027-2.213-0.215-3.04-0.562-0.854-0.373-1.267-0.8-1.24-1.28l0.08-0.32 0.24-7.08c0.16 0.427 0.64 0.787 1.44 1.08 0.773 0.294 1.692 0.454 2.76 0.48 1.065 0.028 1.998-0.092 2.798-0.358z" style="fill:url(#u);fill-rule:evenodd" inkscape:connector-curvature="0"></path><linearGradient id="v" y2="1043.7" gradientUnits="userSpaceOnUse" x2="815.82" gradientTransform="matrix(.8 .022 -.022 .8 -604 -829.65)" y1="1043.7" x1="806.54"><stop id="stop204" stop-color="#fff" stop-opacity=".22" offset="0"></stop><stop id="stop206" stop-color="#fff" stop-opacity=".028" offset="1"></stop></linearGradient><path id="path208" d="m22.15 19.537c1.547 0.053 2.773-0.2 3.68-0.76l-0.2 5.8 0.08 0.28c-0.026 0.48-0.412 0.88-1.16 1.2-0.746 0.347-1.626 0.507-2.64 0.48-1.013-0.027-1.88-0.214-2.6-0.56-0.72-0.348-1.066-0.762-1.04-1.24l0.08-0.28 0.16-5.84c0.827 0.586 2.04 0.893 3.64 0.92z" style="fill:url(#v);fill-rule:evenodd" inkscape:connector-curvature="0"></path><linearGradient id="w" y2="1049.1" gradientUnits="userSpaceOnUse" x2="816.79" gradientTransform="matrix(.8 .022 -.022 .8 -604 -829.65)" y1="1049.1" x1="805.96"><stop id="stop211" stop-color="#fff" stop-opacity=".949" offset="0"></stop><stop id="stop213" stop-color="#ABD9DB" offset="1"></stop></linearGradient><path id="path215" d="m23.23 27.137c-0.267 0.053-0.72 0.08-1.36 0.08-0.693 0-1.413-0.094-2.16-0.28l-0.12-0.16c0.853 0.213 1.708 0.32 2.56 0.32l1.08 0.04z" style="fill:url(#w);fill-rule:evenodd" inkscape:connector-curvature="0"></path><linearGradient id="x" y2="1043" gradientUnits="userSpaceOnUse" x2="816.88" gradientTransform="matrix(.8 .022 -.022 .8 -604 -829.65)" y1="1043" x1="806.1"><stop id="stop218" stop-color="#fff" stop-opacity=".949" offset="0"></stop><stop id="stop220" stop-color="#809C89" offset="1"></stop></linearGradient><path id="path222" d="m17.95 17.977c0.027 0.107 0.12 0.24 0.28 0.4l-0.12 5.56-0.04 0.12c0.027 0.773 0.227 1.386 0.6 1.84l-0.16 0.12c-0.24-0.16-0.4-0.227-0.48-0.2-0.106 0.026-0.106 0.106 0 0.24l0.28 0.2v0.08c-0.453-0.294-0.68-0.627-0.68-1l0.08-0.28 0.24-7.08z" style="fill:url(#x);fill-rule:evenodd" inkscape:connector-curvature="0"></path><linearGradient id="y" y2="1070.8" gradientUnits="userSpaceOnUse" x2="779.09" gradientTransform="matrix(.8 -.006 .006 .8 -604 -829.65)" y1="1070.8" x1="769.24"><stop id="stop225" stop-color="#fff" stop-opacity=".949" offset="0"></stop><stop id="stop227" stop-color="#9AAFB8" offset="1"></stop></linearGradient><path id="path229" d="m25.51 18.937c0.48-0.213 0.8-0.48 0.96-0.8l-0.24 7.08 0.04 0.28c0 0.266-0.16 0.533-0.48 0.8-0.078-0.134-0.212-0.227-0.398-0.28 0.16-0.214 0.28-0.44 0.36-0.68l0.2-0.56 0.16-5.56c0.026-0.214 0-0.334-0.08-0.36-0.054 0-0.228 0.066-0.52 0.2v-0.12z" style="fill:url(#y);fill-rule:evenodd" inkscape:connector-curvature="0"></path><linearGradient id="z" y2="-807.72" gradientUnits="userSpaceOnUse" x2="1046" gradientTransform="matrix(-.022 .8 -.8 -.022 -604 -829.65)" y1="-807.72" x1="1041.6"><stop id="stop232" stop-color="#fff" stop-opacity=".42" offset="0"></stop><stop id="stop234" stop-color="#fff" stop-opacity=".028" offset="1"></stop></linearGradient><path id="path236" d="m19.07 18.937c0.507 0.213 0.96 0.347 1.36 0.4l-0.2 7.04c-0.106 0.027-0.16 0.08-0.16 0.16l0.12 0.12v0.04l-0.52-0.24-0.16 0.04c-0.08 0-0.054 0.094 0.08 0.28-0.56-0.16-0.986-0.334-1.28-0.52 0-0.08 0.067-0.16 0.2-0.24l0.64 0.36-0.48-0.48 0.2-0.04 0.2-6.92z" style="fill:url(#z);fill-rule:evenodd" inkscape:connector-curvature="0"></path><linearGradient id="A" y2="1048.9" gradientUnits="userSpaceOnUse" x2="815.7" gradientTransform="matrix(.8 .021 -.021 .8 -604 -829.65)" y1="1048.9" x1="804.95"><stop id="stop239" stop-color="#fff" stop-opacity=".949" offset="0"></stop><stop id="stop241" stop-color="#ABD9DB" offset="1"></stop></linearGradient><path id="path243" d="m19.15 26.376-0.64-0.36 0.16-0.12z" style="fill:url(#A);fill-rule:evenodd" inkscape:connector-curvature="0"></path><linearGradient id="B" y2="-807" gradientUnits="userSpaceOnUse" x2="1046.2" gradientTransform="matrix(-.021 .8 -.8 -.021 -604 -829.65)" y1="-807" x1="1041.7"><stop id="stop246" stop-color="#fff" stop-opacity=".42" offset="0"></stop><stop id="stop248" stop-color="#fff" stop-opacity=".028" offset="1"></stop></linearGradient><path id="path250" d="m19.15 26.376-0.64-0.36 0.16-0.12z" style="fill:url(#B);fill-rule:evenodd" inkscape:connector-curvature="0"></path><linearGradient id="C" y2="1063.2" gradientUnits="userSpaceOnUse" x2="786.07" gradientTransform="matrix(.8 0 0 .8 -604 -829.65)" y1="1067.6" x1="785.95"><stop id="stop253" stop-color="#fff" stop-opacity=".137" offset="0"></stop><stop id="stop255" stop-color="#fff" stop-opacity=".028" offset="1"></stop></linearGradient><path id="path257" d="m25.43 19.097 0.08-0.04-0.24 6.88 0.12 0.08c-0.16 0.186-0.346 0.346-0.56 0.48 0.48-0.108 0.707-0.108 0.68 0-0.372 0.186-0.732 0.332-1.08 0.438 0.16-0.213 0.214-0.334 0.16-0.36l-0.16-0.04-0.56 0.24 0.24-7.4 0.52-0.12c0.32 0.002 0.587-0.052 0.8-0.158z" style="fill:url(#C);fill-rule:evenodd" inkscape:connector-curvature="0"></path><linearGradient id="D" y2="1040.1" gradientUnits="userSpaceOnUse" x2="816.07" gradientTransform="matrix(.8 .021 -.021 .8 -604 -829.65)" y1="1040.1" x1="804.49"><stop id="stop260" stop-color="#fff" offset="0"></stop><stop id="stop262" stop-color="#ABD9DB" offset="1"></stop></linearGradient><path id="path264" d="m25.43 19.097c-0.213 0.106-0.48 0.16-0.8 0.16l0.88-0.32v0.12l-0.08 0.04z" style="fill:url(#D);fill-rule:evenodd" inkscape:connector-curvature="0"></path><linearGradient id="E" y2="1063.2" gradientUnits="userSpaceOnUse" x2="786.29" gradientTransform="matrix(.8 0 0 .8 -604 -829.65)" y1="1067.8" x1="786.16"><stop id="stop267" stop-color="#fff" stop-opacity=".137" offset="0"></stop><stop id="stop269" stop-color="#fff" stop-opacity=".028" offset="1"></stop></linearGradient><path id="path271" d="m25.43 19.097c-0.213 0.106-0.48 0.16-0.8 0.16l0.88-0.32v0.12l-0.08 0.04z" style="fill:url(#E);fill-rule:evenodd" inkscape:connector-curvature="0"></path><linearGradient id="F" y2="1048.9" gradientUnits="userSpaceOnUse" x2="816.13" gradientTransform="matrix(.8 .021 -.021 .8 -604 -829.65)" y1="1048.9" x1="804.6"><stop id="stop274" stop-color="#fff" offset="0"></stop><stop id="stop276" stop-color="#ABD9DB" offset="1"></stop></linearGradient><path id="path278" d="m25.39 26.017c0.188 0.054 0.32 0.146 0.4 0.28l-0.28 0.2c0.027-0.107-0.2-0.107-0.68 0 0.214-0.134 0.4-0.294 0.56-0.48z" style="fill:url(#F);fill-rule:evenodd" inkscape:connector-curvature="0"></path><linearGradient id="G" y2="1063.1" gradientUnits="userSpaceOnUse" x2="786.84" gradientTransform="matrix(.8 0 0 .8 -604 -829.65)" y1="1067.6" x1="786.72"><stop id="stop281" stop-color="#fff" stop-opacity=".137" offset="0"></stop><stop id="stop283" stop-color="#fff" stop-opacity=".028" offset="1"></stop></linearGradient><path id="path285" d="m25.39 26.017c0.188 0.054 0.32 0.146 0.4 0.28l-0.28 0.2c0.027-0.107-0.2-0.107-0.68 0 0.214-0.134 0.4-0.294 0.56-0.48z" style="fill:url(#G);fill-rule:evenodd" inkscape:connector-curvature="0"></path><path id="path287" d="m20.07 26.536c0-0.08 0.054-0.133 0.16-0.16 0.187-0.053 0.387-0.013 0.6 0.12 0.427 0.214 0.56 0.307 0.4 0.28-0.506 0-0.854-0.04-1.04-0.12l-0.12-0.12zm1.6 0.36c-0.106-0.026-0.133-0.08-0.08-0.16 0.08-0.053 0.174-0.08 0.28-0.08 0.134 0.027 0.16 0.094 0.08 0.2-0.08 0.08-0.173 0.094-0.28 0.04z" style="fill:#ffffff;fill-rule:evenodd" inkscape:connector-curvature="0"></path><linearGradient id="H" y2="1037.1" gradientUnits="userSpaceOnUse" x2="815.59" gradientTransform="matrix(.8 .021 -.021 .8 -604 -829.65)" y1="1037.1" x1="805.01"><stop id="stop290" stop-opacity=".086" offset="0"></stop><stop id="stop292" stop-color="#BCD9DB" stop-opacity=".42" offset="1"></stop></linearGradient><path id="path294" d="m26.47 16.816c-0.026 0.454-0.453 0.827-1.28 1.12-0.853 0.32-1.853 0.453-3 0.4-1.173-0.027-2.16-0.2-2.96-0.52-0.826-0.347-1.226-0.747-1.2-1.2 0-0.427 0.415-0.8 1.24-1.12 0.855-0.294 1.87-0.427 3.042-0.4s2.16 0.2 2.96 0.52c0.826 0.347 1.225 0.747 1.198 1.2z" style="fill:url(#H);fill-rule:evenodd" inkscape:connector-curvature="0"></path><linearGradient id="I" y2="485.34" gradientUnits="userSpaceOnUse" x2="-1220.5" gradientTransform="matrix(-.205 -.773 .773 -.205 -604 -829.65)" y1="485.34" x1="-1227.3"><stop id="stop297" stop-color="#fff" stop-opacity=".949" offset="0"></stop><stop id="stop299" stop-color="#9AAFB8" offset="1"></stop></linearGradient><path id="path301" d="m18.43 18.816c-1.04-0.48-1.547-1.053-1.52-1.72 0.027-0.666 0.573-1.227 1.64-1.68 1.04-0.427 2.293-0.626 3.76-0.6s2.706 0.294 3.72 0.8c1.04 0.48 1.547 1.054 1.52 1.72-0.025 0.667-0.56 1.227-1.6 1.68-1.066 0.454-2.333 0.654-3.8 0.6-1.466-0.026-2.706-0.293-3.72-0.8zm0.28-3.32c-0.986 0.374-1.493 0.854-1.52 1.44-0.026 0.587 0.453 1.094 1.44 1.52 0.96 0.427 2.133 0.654 3.52 0.68 1.387 0.054 2.573-0.12 3.56-0.52 0.96-0.373 1.454-0.853 1.48-1.44 0.026-0.586-0.44-1.092-1.4-1.52-0.96-0.426-2.133-0.666-3.52-0.72-1.387-0.026-2.572 0.16-3.56 0.56z" style="fill:url(#I);fill-rule:evenodd" inkscape:connector-curvature="0"></path><linearGradient id="J" y2="698.85" gradientUnits="userSpaceOnUse" x2="1120.2" gradientTransform="matrix(.745 .292 -.292 .745 -604 -829.65)" y1="698.85" x1="1110.2"><stop id="stop304" stop-color="#fff" stop-opacity=".949" offset="0"></stop><stop id="stop306" stop-color="#ABD9DB" offset="1"></stop></linearGradient><path id="path308" d="m19.23 17.816c-0.827-0.346-1.227-0.746-1.2-1.2 0-0.426 0.414-0.8 1.24-1.12 0.502-0.172 1.056-0.285 1.66-0.34-0.547 0.06-1.047 0.174-1.5 0.34-0.773 0.294-1.173 0.654-1.2 1.08-0.027 0.427 0.36 0.814 1.16 1.16 0.773 0.32 1.72 0.495 2.84 0.52 1.094 0.028 2.04-0.106 2.84-0.4s1.213-0.653 1.24-1.08c0-0.426-0.373-0.8-1.12-1.12-0.54-0.24-1.18-0.406-1.92-0.5 0.813 0.088 1.508 0.255 2.08 0.5 0.773 0.347 1.146 0.733 1.12 1.16-0.027 0.454-0.454 0.827-1.28 1.12-0.854 0.32-1.854 0.453-3 0.4-1.173-0.026-2.16-0.2-2.96-0.52z" style="fill:url(#J);fill-rule:evenodd" inkscape:connector-curvature="0"></path><linearGradient id="K" y2="1037.1" gradientUnits="userSpaceOnUse" x2="815.59" gradientTransform="matrix(.8 .021 -.021 .8 -604 -829.65)" y1="1037.1" x1="805.01"><stop id="stop311" stop-color="#fff" stop-opacity=".949" offset="0"></stop><stop id="stop313" stop-color="#9AAFB8" offset="1"></stop></linearGradient><path id="path315" d="m19.23 17.816c-0.827-0.346-1.227-0.746-1.2-1.2 0-0.426 0.414-0.8 1.24-1.12 0.51-0.174 1.076-0.288 1.7-0.34-0.547 0.06-1.047 0.174-1.5 0.34-0.772 0.267-1.173 0.614-1.2 1.04 0 0.428 0.374 0.8 1.12 1.122 0.774 0.293 1.708 0.453 2.8 0.48s2.04-0.107 2.84-0.4c0.774-0.268 1.175-0.614 1.2-1.04 0-0.427-0.386-0.788-1.16-1.082-0.466-0.2-1-0.346-1.6-0.44 0.68 0.086 1.28 0.233 1.8 0.44 0.828 0.347 1.228 0.747 1.2 1.2-0.026 0.454-0.453 0.827-1.28 1.12-0.853 0.32-1.853 0.453-3 0.4-1.173-0.026-2.16-0.2-2.96-0.52z" style="fill:url(#K);fill-rule:evenodd" inkscape:connector-curvature="0"></path><path id="path317" d="m21.23 9.337c1.493-0.16 2.88-0.066 4.16 0.28 0.64 0.187 1.134 0.373 1.48 0.56l-0.56 6.64c-0.08 0.214-0.32 0.427-0.72 0.64-0.774 0.428-1.895 0.627-3.36 0.6-1.52-0.026-2.68-0.24-3.48-0.64l-0.72-0.64c-0.134-1.92-0.254-3.146-0.36-3.68l-0.36-2.72 0.76-0.4c0.8-0.293 1.854-0.507 3.16-0.64z" style="fill:#a78a56;fill-rule:evenodd" inkscape:connector-curvature="0"></path><path id="path319" d="m22.43 11.457 1.12-0.04c0.08-0.027 0.147-0.067 0.2-0.12 0.027-0.108 0.054-0.174 0.08-0.2 0-0.108 0.054-0.148 0.16-0.122 0 0.24 0.08 0.4 0.24 0.48 0.026 0.027 0.2 0.08 0.52 0.16 0.188 0.054 0.267 0.16 0.24 0.32 0 0.32-0.293 0.547-0.88 0.68-0.373 0.134-0.813 0.227-1.32 0.28-0.56 0.027-1 0.04-1.32 0.04-1.253 0-2.172-0.093-2.76-0.278l-1.2-0.6-0.2-1.68c0.16 0 0.307 0.065 0.44 0.2 0.187 0.133 0.48 0.24 0.88 0.32l0.88 0.318 0.88 0.16c0.214 0.056 0.893 0.082 2.04 0.082z" style="fill:#cba769;fill-rule:evenodd" inkscape:connector-curvature="0"></path><linearGradient id="L" y2="-1057.1" gradientUnits="userSpaceOnUse" x2="-769.16" gradientTransform="matrix(-.8 .008 -.008 -.8 -604 -829.65)" y1="-1057.1" x1="-771.66"><stop id="stop322" stop-color="#C1A064" offset="0"></stop><stop id="stop324" stop-color="#706341" offset="1"></stop></linearGradient><path id="path326" d="m21.03 9.777c0.134 0 0.2 0.054 0.2 0.16-0.026 0.08-0.08 0.16-0.16 0.24-0.08 0.054-0.267 0.08-0.56 0.08h-1.24c-0.026-0.32 0.414-0.48 1.32-0.48h0.44z" style="fill:url(#L);fill-rule:evenodd" inkscape:connector-curvature="0"></path><linearGradient id="M" y2="-1061.3" gradientUnits="userSpaceOnUse" x2="-766.71" gradientTransform="matrix(-.8 .011 -.011 -.8 -604 -829.65)" y1="-1061.3" x1="-768.43"><stop id="stop329" stop-color="#C1A064" offset="0"></stop><stop id="stop331" stop-color="#706341" offset="1"></stop></linearGradient><path id="path333" d="m21.15 10.697c-0.053-0.16 0.04-0.24 0.28-0.24 0.133-0.026 0.307-0.026 0.52 0l0.52 0.04c-0.08 0.133-0.16 0.227-0.24 0.28h-0.4l-0.68-0.08z" style="fill:url(#M);fill-rule:evenodd" inkscape:connector-curvature="0"></path><linearGradient id="N" y2="-1049.3" gradientUnits="userSpaceOnUse" x2="-783.51" gradientTransform="matrix(-.8 0 0 -.8 -604 -829.65)" y1="-1049.3" x1="-784.09"><stop id="stop336" stop-color="#C1A064" offset="0"></stop><stop id="stop338" stop-color="#706341" offset="1"></stop></linearGradient><path id="path340" d="m22.79 9.697h0.16c0.106 0 0.2 0.04 0.28 0.12-0.16 0.054-0.307 0.054-0.44 0-0.026-0.027-0.026-0.067 0-0.12z" style="fill:url(#N);fill-rule:evenodd" inkscape:connector-curvature="0"></path><linearGradient id="O" y2="-1056.6" gradientUnits="userSpaceOnUse" x2="-776.04" gradientTransform="matrix(-.8 .008 -.008 -.8 -604 -829.65)" y1="-1056.6" x1="-779.79"><stop id="stop343" stop-color="#C1A064" offset="0"></stop><stop id="stop345" stop-color="#706341" offset="1"></stop></linearGradient><path id="path347" d="m24.79 9.737c-0.16-0.08-0.187-0.173-0.08-0.28l1.36 0.36h-0.16c-0.667 0-1.04-0.027-1.12-0.08z" style="fill:url(#O);fill-rule:evenodd" inkscape:connector-curvature="0"></path><linearGradient id="P" y2="-1049.7" gradientUnits="userSpaceOnUse" x2="-787.39" gradientTransform="matrix(-.8 0 0 -.8 -604 -829.65)" y1="-1049.7" x1="-788.21"><stop id="stop350" stop-color="#C1A064" offset="0"></stop><stop id="stop352" stop-color="#706341" offset="1"></stop></linearGradient><path id="path354" d="m25.87 10.177c-0.026 0-0.026-0.04 0-0.12h0.6c-0.053 0.16-0.253 0.2-0.6 0.12z" style="fill:url(#P);fill-rule:evenodd" inkscape:connector-curvature="0"></path><path id="path356" d="m21.59 11.697h3.36c-0.133-0.107-0.253-0.213-0.36-0.32-0.213-0.24-0.266-0.4-0.16-0.48 0.107-0.08 0.374-0.08 0.8 0 0.24 0.054 0.454 0.107 0.64 0.16 0.48-0.133 0.8-0.426 0.96-0.88h0.04l-0.56 6.64c-0.08 0.215-0.32 0.428-0.72 0.642-0.772 0.42-1.893 0.62-3.36 0.6-1.52-0.03-2.68-0.25-3.48-0.65l-0.72-0.64c-0.132-1.92-0.252-3.147-0.36-3.68l-0.358-2.72 0.88 0.68c0.878 0.45 2.012 0.665 3.4 0.64z" style="fill:#a58d54;fill-rule:evenodd" inkscape:connector-curvature="0"></path><path id="path358" d="m22.59 16.616c-0.053-0.106-0.133-0.16-0.24-0.16l-0.2-0.2c-0.212 0.268-0.238 0.468-0.08 0.6s0.333 0.054 0.52-0.24zm0.72-1.92c-0.026 0.054-0.04 0.254-0.04 0.6h0.32c0-0.266-0.04-0.426-0.12-0.48l-0.16-0.12zm0-2.2c-0.186 0.027-0.253 0.2-0.2 0.52s0.174 0.495 0.36 0.52c0.188 0.028 0.28-0.08 0.28-0.32 0.054-0.345-0.026-0.585-0.24-0.718h-0.2zm2.48-1.44h0.16c0 0.587-0.106 0.947-0.32 1.08-0.16 0.107-0.387 0.148-0.68 0.12-0.347-0.053-0.507-0.172-0.48-0.36l-0.92-0.12h-1.32c0.774 0.108 1.36 0.294 1.76 0.56 0.135 0.08 0.28 0.24 0.44 0.48 0.214 0.16 0.334 0.254 0.36 0.28 0.107 0.106 0.16 0.253 0.16 0.44 0 0.16-0.12 0.374-0.36 0.64-0.213 0.266-0.32 0.466-0.32 0.6 0 0.054 0.04 0.16 0.12 0.32 0 0.08-0.065 0.24-0.2 0.48-0.133 0.16-0.212 0.266-0.24 0.32l0.08 0.4c0 0.267-0.08 0.427-0.24 0.48-0.132 0.026-0.265 0.013-0.398-0.04-0.16-0.08-0.28-0.135-0.36-0.16 0 0.053-0.08 0.146-0.24 0.28l-0.2 0.04-0.12 0.16c-0.133 0.08-0.346 0.12-0.64 0.12-0.213 0.186-0.427 0.28-0.64 0.28-0.053 0-0.48-0.082-1.28-0.242-0.107-0.026-0.173-0.04-0.2-0.04s-0.067-0.053-0.12-0.16c-0.027-0.133-0.08-0.24-0.16-0.32-0.16-0.08-0.28-0.173-0.36-0.28-0.08 0.08-0.214 0.107-0.4 0.08-0.188 0-0.32-0.04-0.4-0.12l-0.28-0.28-0.08-1c0.053 0.134 0.133 0.24 0.24 0.32 0.213 0.267 0.413 0.36 0.6 0.28 0.106-0.133 0.2-0.227 0.28-0.28 0.24 0.4 0.56 0.64 0.96 0.72 0.107 0.026 0.293 0.053 0.56 0.08 0.188 0.054 0.28 0.173 0.28 0.36 0.187 0.054 0.334 0.026 0.44-0.08 0.054-0.054 0.094-0.12 0.12-0.2 0.026-0.134 0.053-0.213 0.08-0.24 0.133 0.16 0.333 0.173 0.6 0.04 0.054-0.4 0.2-0.613 0.44-0.64 0.08-0.026 0.187-0.054 0.32-0.08 0.08-0.027 0.133-0.12 0.16-0.28 0.08-0.214 0.065-0.467-0.04-0.76-0.027-0.107-0.095-0.2-0.2-0.28-0.134-0.082-0.214-0.042-0.24 0.12-0.213-0.028-0.373-0.188-0.48-0.48l-0.28-0.72c-0.267-0.375-0.667-0.68-1.2-0.92-0.16-0.054-0.386-0.187-0.68-0.4l-0.08-0.08c0.667 0.106 1.266 0.146 1.8 0.12h3.24c0.053 0.133 0.133 0.24 0.24 0.32 0.105 0.106 0.227 0.145 0.36 0.12 0.292-0.027 0.412-0.32 0.358-0.88v-0.197z" style="fill:#8b7347;fill-rule:evenodd" inkscape:connector-curvature="0"></path><path id="path360" d="m25.39 11.017c-0.5-0.21-0.834-0.238-1-0.08l0.04-0.04c0.16-0.134 0.614-0.08 1.36 0.16v0.2c0.054 0.56-0.066 0.853-0.36 0.88-0.132 0.025-0.253-0.014-0.36-0.12 0.214 0.053 0.388-0.015 0.522-0.2 0.08-0.134 0.106-0.294 0.08-0.48 0-0.134-0.014-0.213-0.04-0.24-0.028 0-0.108-0.027-0.24-0.08z" style="fill:#615031;fill-rule:evenodd" inkscape:connector-curvature="0"></path><path id="path362" d="m25.07 14.216h-0.32c-0.16 0.054-0.24 0.187-0.24 0.4 0 0.214 0.067 0.347 0.2 0.4 0.24 0.08 0.388 0.014 0.44-0.2 0.054-0.186 0.027-0.385-0.08-0.6zm0.88-3.16 0.12-0.08c0.027 0.134 0.067 0.32 0.12 0.56 0.026 0.16-0.014 0.414-0.12 0.76-0.026 0.106-0.04 0.44-0.04 1 0 0.267-0.106 0.506-0.32 0.72-0.106 0.16-0.12 0.454-0.04 0.88 0 0.16 0.04 0.4 0.12 0.72-0.08 0.453-0.187 0.72-0.32 0.8-0.026 0.025-0.133 0.066-0.32 0.12-0.105 0.052-0.172 0.146-0.2 0.28-0.212 0-0.438 0.093-0.68 0.28l-0.64 0.44c-0.187 0.08-0.76 0.12-1.72 0.12-0.586 0-1.027-0.027-1.32-0.08l-0.6-0.04c-0.32-0.188-0.56-0.294-0.72-0.32l-0.64-0.16c-0.213-0.134-0.4-0.214-0.56-0.24l-0.04-0.04-0.04-0.68 0.28 0.28c0.08 0.08 0.212 0.12 0.4 0.12 0.186 0.026 0.32 0 0.4-0.08 0.08 0.106 0.2 0.2 0.36 0.28 0.08 0.08 0.133 0.186 0.16 0.32 0.052 0.106 0.092 0.16 0.12 0.16 0.026 0 0.093 0.012 0.2 0.04 0.8 0.16 1.227 0.24 1.28 0.24 0.213 0 0.427-0.094 0.64-0.28 0.294 0 0.507-0.04 0.64-0.12l0.12-0.16 0.2-0.04c0.16-0.133 0.24-0.227 0.24-0.28 0.08 0.026 0.2 0.08 0.36 0.16 0.134 0.053 0.267 0.066 0.4 0.04 0.16-0.053 0.24-0.213 0.24-0.48l-0.08-0.4c0.026-0.053 0.105-0.16 0.24-0.32 0.133-0.24 0.2-0.4 0.2-0.48-0.08-0.16-0.12-0.265-0.12-0.32 0-0.132 0.105-0.332 0.32-0.6 0.238-0.266 0.358-0.48 0.358-0.64 0-0.186-0.053-0.332-0.16-0.44-0.026-0.025-0.146-0.12-0.36-0.28-0.16-0.24-0.306-0.4-0.44-0.478-0.398-0.267-0.985-0.453-1.76-0.56h1.32l0.92 0.12c-0.026 0.187 0.134 0.306 0.48 0.36 0.293 0.027 0.52-0.014 0.68-0.12 0.216-0.135 0.322-0.495 0.322-1.08z" style="fill:#735e39;fill-rule:evenodd" inkscape:connector-curvature="0"></path><path id="path364" d="m26.19 11.537c-0.053-0.24-0.093-0.426-0.12-0.56 0.373-0.187 0.627-0.453 0.76-0.8h0.04l-0.32 2.88c-0.186 0-0.252 0.16-0.2 0.48 0 0.212 0.054 0.332 0.16 0.36l-0.2 2.918c-0.08 0.214-0.32 0.427-0.72 0.64-0.772 0.428-1.893 0.627-3.36 0.6-1.44-0.026-2.546-0.213-3.32-0.56-0.453-0.212-0.732-0.44-0.84-0.68 0.16 0.026 0.348 0.107 0.56 0.24l0.64 0.16c0.16 0.027 0.4 0.134 0.72 0.32l0.6 0.04c0.294 0.054 0.735 0.08 1.322 0.08 0.96 0 1.532-0.04 1.72-0.12l0.64-0.44c0.24-0.187 0.467-0.28 0.68-0.28 0.027-0.133 0.094-0.227 0.2-0.28 0.187-0.053 0.293-0.094 0.32-0.12 0.133-0.08 0.24-0.346 0.32-0.8-0.08-0.32-0.12-0.56-0.12-0.72-0.08-0.426-0.067-0.72 0.04-0.88 0.213-0.212 0.32-0.452 0.32-0.72 0-0.56 0.013-0.893 0.04-1 0.105-0.345 0.145-0.598 0.118-0.758z" style="fill:#4d4027;fill-rule:evenodd" inkscape:connector-curvature="0"></path><linearGradient id="Q" y2="641.05" gradientUnits="userSpaceOnUse" x2="-1141" gradientTransform="matrix(-.1 -.794 .794 -.1 -604 -829.65)" y1="641.05" x1="-1143.1"><stop id="stop367" stop-color="#C1A064" offset="0"></stop><stop id="stop369" stop-color="#706341" offset="1"></stop></linearGradient><path id="path371" d="m18.87 13.657c-0.32 0.053-0.533-0.187-0.64-0.72-0.027-0.214 0-0.414 0.08-0.6 0.08-0.188 0.188-0.295 0.32-0.32 0.134-0.028 0.267 0.04 0.4 0.2 0.134 0.133 0.213 0.306 0.24 0.52 0.054 0.24 0.027 0.453-0.08 0.64-0.08 0.16-0.186 0.253-0.32 0.28z" style="fill:url(#Q);fill-rule:evenodd" inkscape:connector-curvature="0"></path><linearGradient id="R" y2="644.11" gradientUnits="userSpaceOnUse" x2="-1142.1" gradientTransform="matrix(-.099 -.794 .794 -.099 -604 -829.65)" y1="644.11" x1="-1144.5"><stop id="stop374" stop-color="#C1A064" offset="0"></stop><stop id="stop376" stop-color="#706341" offset="1"></stop></linearGradient><path id="path378" d="m21.23 14.857c-0.533 0.213-0.947 0.027-1.24-0.56-0.292-0.587-0.187-1.026 0.32-1.32h0.24c0.293 0 0.493 0.026 0.6 0.08 0.187 0.08 0.307 0.267 0.36 0.56 0.08 0.693-0.013 1.107-0.28 1.24z" style="fill:url(#R);fill-rule:evenodd" inkscape:connector-curvature="0"></path><linearGradient id="S" y2="643.58" gradientUnits="userSpaceOnUse" x2="-1142.6" gradientTransform="matrix(-.098 -.794 .794 -.098 -604 -829.65)" y1="643.58" x1="-1143.7"><stop id="stop381" stop-color="#C1A064" offset="0"></stop><stop id="stop383" stop-color="#706341" offset="1"></stop></linearGradient><path id="path385" d="m18.99 14.816c-0.08-0.453-0.013-0.68 0.2-0.68l0.28 0.08c0.214 0.08 0.28 0.36 0.2 0.84-0.346 0.054-0.572-0.026-0.68-0.24z" style="fill:url(#S);fill-rule:evenodd" inkscape:connector-curvature="0"></path><linearGradient id="T" y2="656.04" gradientUnits="userSpaceOnUse" x2="-1134.6" gradientTransform="matrix(-.088 -.795 .795 -.088 -604 -829.65)" y1="656.04" x1="-1135.3"><stop id="stop388" stop-color="#C1A064" offset="0"></stop><stop id="stop390" stop-color="#706341" offset="1"></stop></linearGradient><path id="path392" d="m17.83 14.417c0.268-0.027 0.36 0.12 0.28 0.44l-0.2 0.08-0.08-0.52z" style="fill:url(#T);fill-rule:evenodd" inkscape:connector-curvature="0"></path><path id="path394" d="m23.47 13.537c-0.187-0.026-0.306-0.2-0.36-0.52-0.053-0.32 0.015-0.493 0.2-0.52h0.2c0.214 0.133 0.294 0.373 0.24 0.72 0 0.24-0.093 0.346-0.28 0.32z" style="fill:#705c39;fill-rule:evenodd" inkscape:connector-curvature="0"></path><linearGradient id="U" y2="643.62" gradientUnits="userSpaceOnUse" x2="-1144.1" gradientTransform="matrix(-.102 -.793 .793 -.102 -604 -829.65)" y1="643.62" x1="-1145.5"><stop id="stop397" stop-color="#C1A064" offset="0"></stop><stop id="stop399" stop-color="#706341" offset="1"></stop></linearGradient><path id="path401" d="m23.47 13.537c-0.187-0.026-0.306-0.2-0.36-0.52-0.053-0.32 0.015-0.493 0.2-0.52h0.2c0.214 0.133 0.294 0.373 0.24 0.72 0 0.24-0.093 0.346-0.28 0.32z" style="fill:url(#U);fill-rule:evenodd" inkscape:connector-curvature="0"></path><path id="path403" d="m23.47 14.816c0.08 0.054 0.12 0.214 0.12 0.48h-0.32c0-0.347 0.014-0.547 0.04-0.6l0.16 0.12z" style="fill:#705c39;fill-rule:evenodd" inkscape:connector-curvature="0"></path><linearGradient id="V" y2="640.27" gradientUnits="userSpaceOnUse" x2="-1148.5" gradientTransform="matrix(-.104 -.793 .793 -.104 -604 -829.65)" y1="640.27" x1="-1149.3"><stop id="stop406" stop-color="#C1A064" offset="0"></stop><stop id="stop408" stop-color="#706341" offset="1"></stop></linearGradient><path id="path410" d="m23.47 14.816c0.08 0.054 0.12 0.214 0.12 0.48h-0.32c0-0.347 0.014-0.547 0.04-0.6l0.16 0.12z" style="fill:url(#V);fill-rule:evenodd" inkscape:connector-curvature="0"></path><path id="path412" d="m22.35 16.457c0.107 0 0.188 0.053 0.24 0.16-0.187 0.293-0.36 0.373-0.52 0.24s-0.133-0.333 0.08-0.6l0.2 0.2z" style="fill:#705c39;fill-rule:evenodd" inkscape:connector-curvature="0"></path><linearGradient id="W" y2="653.89" gradientUnits="userSpaceOnUse" x2="-1155.3" gradientTransform="matrix(-.093 -.794 .793 -.11 -604 -829.65)" y1="653.89" x1="-1156.2"><stop id="stop415" stop-color="#C1A064" offset="0"></stop><stop id="stop417" stop-color="#706341" offset="1"></stop></linearGradient><path id="path419" d="m22.35 16.457c0.107 0 0.188 0.053 0.24 0.16-0.187 0.293-0.36 0.373-0.52 0.24s-0.133-0.333 0.08-0.6l0.2 0.2z" style="fill:url(#W);fill-rule:evenodd" inkscape:connector-curvature="0"></path><path id="path421" d="m24.75 14.216h0.32c0.106 0.214 0.134 0.414 0.08 0.6-0.053 0.214-0.2 0.28-0.44 0.2-0.133-0.053-0.2-0.186-0.2-0.4 0-0.213 0.08-0.345 0.24-0.4z" style="fill:#615031;fill-rule:evenodd" inkscape:connector-curvature="0"></path><linearGradient id="X" y2="655.72" gradientUnits="userSpaceOnUse" x2="-1140.4" gradientTransform="matrix(-.095 -.794 .794 -.095 -604 -829.65)" y1="655.72" x1="-1141.5"><stop id="stop424" stop-color="#C1A064" offset="0"></stop><stop id="stop426" stop-color="#706341" offset="1"></stop></linearGradient><path id="path428" d="m24.75 14.216h0.32c0.106 0.214 0.134 0.414 0.08 0.6-0.053 0.214-0.2 0.28-0.44 0.2-0.133-0.053-0.2-0.186-0.2-0.4 0-0.213 0.08-0.345 0.24-0.4z" style="fill:url(#X);fill-rule:evenodd" inkscape:connector-curvature="0"></path><path id="path430" d="m26.35 13.537c-0.052-0.32 0.015-0.48 0.2-0.48l-0.04 0.84c-0.107-0.027-0.16-0.147-0.16-0.36z" style="fill:#4d4027;fill-rule:evenodd" inkscape:connector-curvature="0"></path><linearGradient id="Y" y2="661.09" gradientUnits="userSpaceOnUse" x2="-1148.5" gradientTransform="matrix(-.092 -.795 .793 -.106 -604 -829.65)" y1="661.09" x1="-1149.6"><stop id="stop433" stop-color="#C1A064" offset="0"></stop><stop id="stop435" stop-color="#706341" offset="1"></stop></linearGradient><path id="path437" d="m26.35 13.537c-0.052-0.32 0.015-0.48 0.2-0.48l-0.04 0.84c-0.107-0.027-0.16-0.147-0.16-0.36z" style="fill:url(#Y);fill-rule:evenodd" inkscape:connector-curvature="0"></path><path id="path439" d="m24.43 11.137c-0.053-0.106-0.065-0.173-0.04-0.2 0.16-0.16 0.494-0.134 1 0.08 0.135 0.054 0.214 0.08 0.24 0.08 0.027 0.027 0.04 0.107 0.04 0.24 0.027 0.188 0 0.348-0.08 0.48-0.133 0.187-0.307 0.254-0.52 0.2l-0.2-0.32h0.08l-0.44-0.4-0.08-0.16z" style="fill:#615031;fill-rule:evenodd" inkscape:connector-curvature="0"></path><linearGradient id="Z" y2="647.49" gradientUnits="userSpaceOnUse" x2="-1141.4" gradientTransform="matrix(-.101 -.794 .794 -.101 -604 -829.65)" y1="647.49" x1="-1142.9"><stop id="stop442" stop-color="#C1A064" offset="0"></stop><stop id="stop444" stop-color="#706341" offset="1"></stop></linearGradient><path id="path446" d="m24.43 11.137c-0.053-0.106-0.065-0.173-0.04-0.2 0.16-0.16 0.494-0.134 1 0.08 0.135 0.054 0.214 0.08 0.24 0.08 0.027 0.027 0.04 0.107 0.04 0.24 0.027 0.188 0 0.348-0.08 0.48-0.133 0.187-0.307 0.254-0.52 0.2l-0.2-0.32h0.08l-0.44-0.4-0.08-0.16z" style="fill:url(#Z);fill-rule:evenodd" inkscape:connector-curvature="0"></path><radialGradient id="aa" gradientUnits="userSpaceOnUse" cy="-476.33" cx="1239" gradientTransform="matrix(.205 .773 .786 -.208 138.8 -1026.3)" r="20.443"><stop id="stop449" stop-color="#FBF5E2" offset="0"></stop><stop id="stop451" stop-color="#F6F0DB" offset=".071"></stop><stop id="stop453" stop-color="#E3DCC1" offset=".431"></stop><stop id="stop455" stop-color="#D7D0B1" offset=".749"></stop><stop id="stop457" stop-color="#D3CCAC" offset="1"></stop></radialGradient><path id="path459" d="m14.19 28.576c1.92 1.094 4.693 1.6 8.32 1.52 1.813-0.053 3.427-0.212 4.84-0.48l0.56 1.92c0.373 1.468 0.587 2.695 0.64 3.68 0.134 1.574-0.106 3.8-0.72 6.682-0.293 0.213-0.84 0.413-1.64 0.6-1.6 0.374-3.693 0.48-6.28 0.32-1.894-0.133-3.494-0.52-4.8-1.16l-1.44-0.92c-0.8-0.72-1.306-1.813-1.52-3.28-0.294-2.026-0.04-4.106 0.76-6.24l1.28-2.642z" style="fill:url(#aa);fill-rule:evenodd" inkscape:connector-curvature="0"></path><radialGradient id="ab" gradientUnits="userSpaceOnUse" cy="-476.07" cx="1241.3" gradientTransform="matrix(.205 .773 .773 -.205 132.35 -1024.5)" r="15.439"><stop id="stop462" stop-color="#84869C" offset="0"></stop><stop id="stop464" stop-color="#7F8197" offset=".129"></stop><stop id="stop466" stop-color="#6F728B" offset=".62"></stop><stop id="stop468" stop-color="#696C86" offset="1"></stop></radialGradient><path id="path470" d="m18.91 33.776c-0.053 0.4 0.04 0.72 0.28 0.96l0.522 0.52c0.053 0.08 0.053 0.24 0 0.48l-1.2 0.8c-0.133-0.08-0.307-0.267-0.52-0.56-0.213-0.267-0.4-0.44-0.56-0.52-0.348-0.16-0.694-0.16-1.04 0-0.375 0.186-0.454 0.466-0.24 0.84 0.132 0.213 0.36 0.4 0.68 0.56 0.132 0.133 0.2 0.32 0.2 0.56l-0.4 0.16c-0.774 0.24-1.268 0.56-1.48 0.96-0.24 0.4-0.067 0.653 0.52 0.76 0.347 0.08 0.8 0.054 1.36-0.08l0.72 0.36c0.506 0.347 1.014 0.52 1.52 0.52 0.694 0 1-0.2 0.92-0.6-0.026-0.16-0.12-0.307-0.28-0.44-0.267-0.213-0.413-0.333-0.44-0.36-0.08-0.053-0.146-0.16-0.2-0.32 0.32-0.105 0.747-0.332 1.28-0.68h0.04c0.08 0.08 0.174 0.254 0.28 0.52 0.028 0.055 0.23 0.215 0.6 0.48 0.27 0.16 0.455 0.254 0.562 0.28h0.6c0.668-0.053 0.867-0.346 0.6-0.88-0.053-0.16-0.16-0.253-0.318-0.28-0.188-0.026-0.334-0.053-0.44-0.08-0.373-0.105-0.533-0.412-0.48-0.92l1.04-0.72c0.24 0.054 0.613 0.2 1.12 0.44 0.906 0.134 1.374-0.066 1.4-0.6 0.026-0.32-0.134-0.547-0.48-0.68-0.427-0.026-0.733-0.067-0.92-0.12 0.8-0.773 1.253-1.387 1.36-1.84 0.106-0.48-0.174-0.68-0.84-0.6-0.107 0-0.454 0.145-1.04 0.44v-0.2c0-0.24-0.067-0.44-0.2-0.6-0.054-0.08-0.08-0.135-0.08-0.16-0.026 0-0.134-0.015-0.32-0.04-0.48-0.107-0.787-0.055-0.92 0.16-0.054 0.052-0.08 0.386-0.08 1 0.026 0.186 0.134 0.386 0.32 0.6v0.04l-1.24 0.84c-0.24-0.08-0.4-0.268-0.48-0.562-0.08-0.56-0.36-0.853-0.84-0.88-0.54-0.05-0.832 0.097-0.885 0.442zm2.4-2.32c1.254-0.4 2.534-0.386 3.84 0.04 1.52 0.48 1.975 1.72 1.36 3.72-0.586 1.894-1.706 3.387-3.36 4.48-1.546 1.014-3.36 1.507-5.438 1.48-2.08-0.054-3.44-0.614-4.08-1.68-0.56-0.96-0.375-2.067 0.56-3.32 0.772-1.014 1.933-1.974 3.48-2.88 1.625-0.986 2.84-1.6 3.64-1.84z" style="fill:url(#ab);fill-rule:evenodd" inkscape:connector-curvature="0"></path></g><metadata></metadata></svg> 