<?xml version="1.0" encoding="UTF-8" standalone="no"?> <!-- Created with Inkscape (http://www.inkscape.org/) --> <svg xmlns:inkscape="http://www.inkscape.org/namespaces/inkscape" xmlns:rdf="http://www.w3.org/1999/02/22-rdf-syntax-ns#" xmlns="http://www.w3.org/2000/svg" xmlns:xlink="http://www.w3.org/1999/xlink" xmlns:ns1="http://sozi.baierouge.fr" xmlns:cc="http://creativecommons.org/ns#" xmlns:sodipodi="http://sodipodi.sourceforge.net/DTD/sodipodi-0.dtd" xmlns:dc="http://purl.org/dc/elements/1.1/" id="svg2" xml:space="preserve" viewBox="0 0 209.5 149.15" inkscape:version="0.91 r13725"> <defs id="defs6"> <clipPath id="clipPath18"> <path id="path20" d="m167.6 117-0.883-0.879c-0.293-7.68-0.492-13.746-0.598-18.199l-0.12-5.761 0.039-0.399c0.109-2.746 0.149-9.679 0.121-20.8-0.027-13.575-0.027-22.094 0-25.563l-0.199-27.316-0.039-0.282 0.359-16.402 0.278-0.238-0.239-0.238v-0.282l0.239-0.199-0.2-0.199h-0.039c-1.441 0-2.961-0.043-4.558-0.121-1.7-0.082-3.23-0.121-4.56-0.121l-41.76 0.242c-4.56 0-10.51 0.078-17.838 0.238-9.497 0.215-15.442 0.332-17.84 0.36l-6.563 0.039c-4.984-0.024-16.051-0.161-33.199-0.399-9.895-0.187-18.441-0.16-25.641 0.078-2.105 0.055-5.281 0.082-9.519 0.082-0.879-0.027-1.508-0.039-1.879-0.039-0.613-0.027-1.199 0.039-1.762 0.199l0.641 0.559-0.281 0.039-0.2-0.117v0.039l-0.078-0.039v0.199h-0.082l0.039 0.078c-0.183 7.469-0.277 12.16-0.277 14.082v11.801c-0.133 6.641-0.188 13.399-0.16 20.277l0.199 45.563-0.121 24.32-0.32 0.039h0.32v0.641l-0.32 0.078h0.441c0.852 0.535 3.199 0.801 7.039 0.801 3.039 0 9.094 0.055 18.16 0.16 6.16-0.027 15.375-0.105 27.641-0.238 4.613 0 11.535-0.137 20.762-0.403 9.199-0.238 16.105-0.359 20.718-0.359 8.746 0.027 19.614 0.187 32.602 0.48 9.703 0.188 18.09 0.161 25.156-0.082 2.082-0.078 5.203-0.117 9.363-0.117 3.118 0 4.774-0.254 4.957-0.761l-0.039-0.079 0.243-0.043h-0.043l-0.56-0.6 0.6-0.12z" inkscape:connector-curvature="0"></path> </clipPath> <clipPath id="clipPath26"> <path id="path28" d="m16062-239.55h150.21v210.01h-150.21v-210.01z" inkscape:connector-curvature="0"></path> </clipPath> <linearGradient id="linearGradient30" y2="-134.64" gradientUnits="userSpaceOnUse" x2="16083" y1="-134.64" x1="16066"> <stop id="stop32" style="stop-color:#ffffff;stop-opacity:0" offset="0"></stop> <stop id="stop34" style="stop-color:#ffffff;stop-opacity:.76471" offset="1"></stop> </linearGradient> <mask id="mask36"> <g id="g38"> <g id="g40" clip-path="url(#clipPath26)"> <path id="path42" style="fill:url(#linearGradient30)" d="m16062-239.55h150.21v210.01h-150.21v-210.01z" inkscape:connector-curvature="0"></path> </g> </g> </mask> <linearGradient id="linearGradient46" y2="-134.64" gradientUnits="userSpaceOnUse" x2="16083" y1="-134.64" x1="16066"> <stop id="stop48" style="stop-color:#000000" offset="0"></stop> <stop id="stop50" style="stop-color:#000000" offset="1"></stop> </linearGradient> <clipPath id="clipPath60"> <path id="path62" d="m5.199 116.24h156.8v-101.6h-156.8v101.6z" inkscape:connector-curvature="0"></path> </clipPath> <clipPath id="clipPath68"> <path id="path70" d="m6.25-141.52h196.25v134.28h-196.25v-134.28z" inkscape:connector-curvature="0"></path> </clipPath> <radialGradient id="radialGradient72" gradientUnits="userSpaceOnUse" cy="-70.85" cx="95.8" r="93.3"> <stop id="stop74" style="stop-color:#ffffff;stop-opacity:.10590" offset="0"></stop> <stop id="stop76" style="stop-color:#ffffff;stop-opacity:.23920" offset="1"></stop> </radialGradient> <mask id="mask78"> <g id="g80"> <g id="g82" clip-path="url(#clipPath68)"> <path id="path84" style="fill:url(#radialGradient72)" d="m6.25-141.52h196.25v134.28h-196.25v-134.28z" inkscape:connector-curvature="0"></path> </g> </g> </mask> <radialGradient id="radialGradient88" gradientUnits="userSpaceOnUse" cy="-70.85" cx="95.8" r="93.3"> <stop id="stop90" style="stop-color:#000000" offset="0"></stop> <stop id="stop92" style="stop-color:#000000" offset="1"></stop> </radialGradient> <linearGradient id="linearGradient114" y2="-4.6748" gradientUnits="userSpaceOnUse" x2="208.5" gradientTransform="matrix(.8 0 0 .8 -.0000042130 119.32)" y1="-4.6748"> <stop id="stop116" style="stop-color:#c3a760" offset="0"></stop> <stop id="stop118" style="stop-color:#b59a57" offset=".46670"></stop> <stop id="stop120" style="stop-color:#a0864a" offset=".98820"></stop> <stop id="stop122" style="stop-color:#a0864a" offset="1"></stop> </linearGradient> <linearGradient id="linearGradient136" y2="-16098" gradientUnits="userSpaceOnUse" x2="-14.657" gradientTransform="matrix(.00018497 -.8 .8 -.0008 12962 88.826)" y1="-16098" x1="-18.982"> <stop id="stop138" style="stop-color:#c3a760" offset="0"></stop> <stop id="stop140" style="stop-color:#b59a57" offset=".46670"></stop> <stop id="stop142" style="stop-color:#a0864a" offset=".98820"></stop> <stop id="stop144" style="stop-color:#a0864a" offset="1"></stop> </linearGradient> <linearGradient id="linearGradient178" y2="-16098" gradientUnits="userSpaceOnUse" x2="110.86" gradientTransform="matrix(.00019753 -.8 .8 -.0008 12962 88.826)" y1="-16098" x1="106.81"> <stop id="stop180" style="stop-color:#c3a760" offset="0"></stop> <stop id="stop182" style="stop-color:#b59a57" offset=".46670"></stop> <stop id="stop184" style="stop-color:#a0864a" offset=".98820"></stop> <stop id="stop186" style="stop-color:#a0864a" offset="1"></stop> </linearGradient> <linearGradient id="linearGradient220" y2="-67.05" gradientUnits="userSpaceOnUse" x2="6.9249" gradientTransform="matrix(.8 0 0 .8 -.0000042130 119.32)" y1="-67.05" x1=".27490"> <stop id="stop222" style="stop-color:#c3a760" offset="0"></stop> <stop id="stop224" style="stop-color:#b59a57" offset=".46670"></stop> <stop id="stop226" style="stop-color:#a0864a" offset=".98820"></stop> <stop id="stop228" style="stop-color:#a0864a" offset="1"></stop> </linearGradient> <linearGradient id="linearGradient256" y2="-68.1" gradientUnits="userSpaceOnUse" x2="207.45" gradientTransform="matrix(.8 0 0 .8 -.0000042130 119.32)" y1="-68.1" x1="200.85"> <stop id="stop258" style="stop-color:#c3a760" offset="0"></stop> <stop id="stop260" style="stop-color:#b59a57" offset=".46670"></stop> <stop id="stop262" style="stop-color:#a0864a" offset=".98820"></stop> <stop id="stop264" style="stop-color:#a0864a" offset="1"></stop> </linearGradient> </defs> <g id="g10" transform="matrix(1.25 0 0 -1.25 0 149.15)"> <g id="g12"> <g id="g14"> <g id="g16" clip-path="url(#clipPath18)"> <g id="g22" transform="matrix(.000045326 .8 -.8 -.0008 -24.367 -12850)"> <g id="g44" mask="url(#mask36)"> <path id="path52" style="fill-rule:evenodd;fill:url(#linearGradient46)" d="m167.6 117-0.883-0.879c-0.293-7.68-0.492-13.746-0.598-18.199l-0.12-5.761 0.039-0.399c0.109-2.746 0.149-9.679 0.121-20.8-0.027-13.575-0.027-22.094 0-25.563l-0.199-27.316-0.039-0.282 0.359-16.402 0.278-0.238-0.239-0.238v-0.282l0.239-0.199-0.2-0.199h-0.039c-1.441 0-2.961-0.043-4.558-0.121-1.7-0.082-3.23-0.121-4.56-0.121l-41.76 0.242c-4.56 0-10.51 0.078-17.838 0.238-9.497 0.215-15.442 0.332-17.84 0.36l-6.563 0.039c-4.984-0.024-16.051-0.161-33.199-0.399-9.895-0.187-18.441-0.16-25.641 0.078-2.105 0.055-5.281 0.082-9.519 0.082-0.879-0.027-1.508-0.039-1.879-0.039-0.613-0.027-1.199 0.039-1.762 0.199l0.641 0.559-0.281 0.039-0.2-0.117v0.039l-0.078-0.039v0.199h-0.082l0.039 0.078c-0.183 7.469-0.277 12.16-0.277 14.082v11.801c-0.133 6.641-0.188 13.399-0.16 20.277l0.199 45.563-0.121 24.32-0.32 0.039h0.32v0.641l-0.32 0.078h0.441c0.852 0.535 3.199 0.801 7.039 0.801 3.039 0 9.094 0.055 18.16 0.16 6.16-0.027 15.375-0.105 27.641-0.238 4.613 0 11.535-0.137 20.762-0.403 9.199-0.238 16.105-0.359 20.718-0.359 8.746 0.027 19.614 0.187 32.602 0.48 9.703 0.188 18.09 0.161 25.156-0.082 2.082-0.078 5.203-0.117 9.363-0.117 3.118 0 4.774-0.254 4.957-0.761l-0.039-0.079 0.243-0.043h-0.043l-0.56-0.6 0.6-0.12z" inkscape:connector-curvature="0"></path> </g> </g> </g> </g> <path id="path54" style="fill-rule:evenodd;fill:#e1d0ad" d="m167.6 117.92-0.602-0.563 0.602-0.078-0.883-0.801c-0.293-6.851-0.492-12.238-0.598-16.16l-0.12-5.121 0.04-0.359c0.109-2.426 0.149-8.575 0.121-18.442-0.027-12.078-0.027-19.652 0-22.719l-0.199-24.238-0.039-0.281 0.359-14.559 0.278-0.203-0.239-0.199v-0.277l0.239-0.161-0.2-0.16-0.039-0.043c-1.441 0-2.945-0.023-4.519-0.078-1.735-0.082-3.254-0.121-4.563-0.121l-41.718 0.199c-4.426 0-10.36 0.082-17.801 0.242-8.852 0.188-14.797 0.293-17.84 0.321l-6.52 0.039c-9.254-0.028-20.32-0.16-33.199-0.399-9.281-0.136-17.801-0.109-25.558 0.079-3.204 0.082-6.375 0.121-9.524 0.121-0.879-0.028-1.504-0.055-1.879-0.082-0.64 0-1.238 0.066-1.801 0.203l0.68 0.519-0.277 0.039-0.242-0.16v0.039l-0.079-0.039v0.199h-0.082l0.082 0.082c-0.187 6.532-0.281 10.692-0.281 12.481l-0.039 10.519c-0.133 7.918-0.172 13.918-0.121 18v33.481l0.039 0.117 0.082 4.68 0.039 2.961c-0.051 11.812-0.078 18.734-0.078 20.761l-0.32 0.079 0.32 0.039-0.043 0.519-0.277 0.082h0.437c0.856 0.453 3.203 0.68 7.043 0.68 3.012 0 9.051 0.055 18.117 0.16 6.137-0.027 15.336-0.094 27.602-0.199 4.613 0 11.52-0.121 20.719-0.36 9.203-0.214 16.093-0.32 20.679-0.32 3.629 0 14.481 0.133 32.563 0.399 9.707 0.187 18.094 0.16 25.16-0.079 2.078-0.054 5.184-0.082 9.32-0.082 3.145 0 4.797-0.226 4.957-0.679l-0.039-0.039 0.243-0.039z" inkscape:connector-curvature="0"></path> <g id="g56"> <g id="g58" clip-path="url(#clipPath60)"> <g id="g64" transform="matrix(.8 0 0 -.7596 -.0000042130 8.824)"> <g id="g86" mask="url(#mask78)"> <path id="path94" style="fill-rule:evenodd;fill:url(#radialGradient88)" d="m5.199 116.24h156.8v-101.6h-156.8v101.6z" inkscape:connector-curvature="0"></path> </g> </g> </g> </g> <path id="path96" style="fill-rule:evenodd;fill:#e5cb8b" d="m143.44 113.8c-7.921 0.082-13.867 0.122-17.839 0.122-13.12-0.08-24.82-0.12-35.08-0.12-9.946 0.161-17.813 0.243-23.598 0.243-11.336 0-19.895 0.105-25.684 0.316-2.316 0.082-5.316 0.133-9 0.16-4.531 0-7.543 0.016-9.039 0.039-2.293 0.082-4.039 0.137-5.238 0.16-2.133 0.082-3.883 0.067-5.242-0.039-1.305-0.078-2.84-0.121-4.598-0.121-1.574 0.028-2.414 0.071-2.519 0.121-0.961 0.403-1.547 0.668-1.762 0.801-0.238 0.215-0.613 0.492-1.121 0.84-0.371 0.238-0.731 0.547-1.078 0.922-0.133 0.156-0.453 0.277-0.961 0.359h-0.399c0.641 0.504 3.039 0.758 7.199 0.758 3.012 0 9.055 0.055 18.122 0.16 6.132-0.027 15.332-0.094 27.597-0.199 4.613 0 11.52-0.121 20.723-0.359 9.199-0.215 16.09-0.321 20.68-0.321 3.625 0 14.476 0.133 32.558 0.399 9.707 0.187 18.094 0.16 25.16-0.078 2.078-0.055 5.188-0.082 9.321-0.082 3.148 0 4.8-0.227 4.961-0.68-1.067-1.039-2.856-2.106-5.364-3.199-4.797-0.16-10.73-0.227-17.797-0.2z" inkscape:connector-curvature="0"></path> <path id="path98" style="fill-rule:evenodd;fill:#c8af72" d="m165.32 116.84-0.398-10.36c-0.27-7.148-0.375-11.293-0.32-12.441 0.105-2.426 0.144-8.574 0.117-18.438-0.024-12.082-0.024-19.656 0-22.722 0.082-8.133 0-17.305-0.239-27.52 0-2.664 0.145-6.84 0.442-12.519l-4.524 3.8c-0.16 13.918-0.277 22.707-0.359 26.36-0.051 2.16-0.027 7.988 0.082 17.48 0.106 10.719 0.16 16.238 0.16 16.559l0.16 35.922 4.879 3.879z" inkscape:connector-curvature="0"></path> <path id="path100" style="fill-rule:evenodd;fill:#614c27" d="m143.44 112.56c-7.921 0.055-13.867 0.082-17.839 0.082l-35.08-0.08c-9.946 0.137-17.813 0.203-23.598 0.203-11.336 0-19.895 0.106-25.684 0.321-2.343 0.078-5.343 0.133-9 0.16-4.664 0.023-7.679 0.051-9.039 0.078-2.293 0.078-4.039 0.133-5.238 0.16-2.188 0.078-3.934 0.067-5.242-0.039-1.278-0.109-2.813-0.148-4.598-0.121-1.574 0.027-2.414 0.066-2.519 0.121-0.989 0.399-1.575 0.664-1.762 0.801-0.238 0.211-0.613 0.492-1.121 0.84-0.371 0.238-0.84 0.664-1.399 1.277-0.375 0.402-0.812 0.629-1.32 0.68h1.039c1.414-0.024 3.242 0.027 5.481 0.16 2.375 0.109 4.199 0.16 5.48 0.16l13.602-0.078c6.132-0.027 15.332-0.106 27.597-0.242 4.453 0 11.36-0.106 20.723-0.321 9.066-0.238 15.957-0.343 20.68-0.32 7.25 0 18.105 0.137 32.558 0.402 9.012 0.161 17.399 0.133 25.16-0.082 2.078-0.078 5.188-0.117 9.321-0.117 0.507 0 1.386 0.012 2.64 0.039 1.117 0.028 1.957-0.027 2.52-0.16-1.68-1.625-3.535-2.867-5.563-3.719-4.851-0.16-10.785-0.226-17.797-0.203z" inkscape:connector-curvature="0"></path> <path id="path102" style="fill-rule:evenodd;fill:#614c27" d="m0.922 117.68 5.238-3.437-0.238-5.281c-0.188-3.762-0.281-6.215-0.281-7.36l0.121-23.921c0-0.078 0.066-5.265 0.199-15.558 0.078-8.934 0.094-14.43 0.039-16.481-0.078-3.414-0.199-13.187-0.359-29.32l-4.243-2.641c-0.16 7.735-0.238 12.856-0.238 15.36-0.265 9.629-0.359 18.269-0.281 25.922 0.027 2.718 0.027 9.839 0 21.359-0.051 9.281-0.012 15.066 0.121 17.359 0.105 1.735 0.078 9.735-0.078 24z" inkscape:connector-curvature="0"></path> <g id="g104"> <g id="g106"> <g id="g112"> <path id="path124" style="fill-rule:evenodd;fill:url(#linearGradient114)" d="m143.44 113.2c-7.921 0.055-13.867 0.082-17.839 0.082-13.122-0.082-24.817-0.121-35.082-0.121-9.946 0.16-17.813 0.242-23.598 0.242-11.336 0-19.895 0.105-25.684 0.32-2.238 0.078-5.238 0.133-9 0.16-4.265 0-7.277 0.028-9.039 0.079-2.293 0.054-4.039 0.105-5.238 0.16-2.16 0.054-3.906 0.027-5.242-0.078-1.305-0.082-2.84-0.121-4.598-0.121-1.574 0.027-2.414 0.066-2.519 0.117-0.961 0.402-1.547 0.668-1.762 0.801-0.238 0.214-0.613 0.492-1.121 0.839-0.344 0.243-0.813 0.668-1.399 1.282-0.375 0.398-0.812 0.64-1.32 0.718h1.039c1.414-0.027 3.242 0.028 5.481 0.161 2.375 0.105 4.199 0.16 5.48 0.16 0.027 0 4.559-0.039 13.602-0.121 6.132-0.024 15.332-0.09 27.597-0.2 4.613 0 11.52-0.121 20.723-0.359 9.199-0.215 16.09-0.32 20.68-0.32 7.25 0.027 18.105 0.172 32.558 0.441 9.012 0.16 17.399 0.133 25.16-0.082 2.078-0.078 5.188-0.117 9.321-0.117 0.507 0 1.386 0.012 2.64 0.039 1.117 0.027 1.957-0.027 2.52-0.16-1.68-1.629-3.535-2.867-5.563-3.723-4.851-0.156-10.785-0.223-17.797-0.199z" inkscape:connector-curvature="0"></path> </g> </g> </g> <g id="g126"> <g id="g128"> <g id="g134"> <path id="path146" style="fill-rule:evenodd;fill:url(#linearGradient136)" d="m143.44 113.2c-7.921 0.055-13.867 0.082-17.839 0.082-13.122-0.082-24.817-0.121-35.082-0.121-9.946 0.16-17.813 0.242-23.598 0.242-11.336 0-19.895 0.105-25.684 0.32-2.238 0.078-5.238 0.133-9 0.16-4.265 0-7.277 0.028-9.039 0.079-2.293 0.054-4.039 0.105-5.238 0.16-2.16 0.054-3.906 0.027-5.242-0.078-1.305-0.082-2.84-0.121-4.598-0.121-1.574 0.027-2.414 0.066-2.519 0.117-0.961 0.402-1.547 0.668-1.762 0.801-0.238 0.214-0.613 0.492-1.121 0.839-0.344 0.243-0.813 0.668-1.399 1.282-0.375 0.398-0.812 0.64-1.32 0.718h1.039c1.414-0.027 3.242 0.028 5.481 0.161 2.375 0.105 4.199 0.16 5.48 0.16 0.027 0 4.559-0.039 13.602-0.121 6.132-0.024 15.332-0.09 27.597-0.2 4.613 0 11.52-0.121 20.723-0.359 9.199-0.215 16.09-0.32 20.68-0.32 7.25 0.027 18.105 0.172 32.558 0.441 9.012 0.16 17.399 0.133 25.16-0.082 2.078-0.078 5.188-0.117 9.321-0.117 0.507 0 1.386 0.012 2.64 0.039 1.117 0.027 1.957-0.027 2.52-0.16-1.68-1.629-3.535-2.867-5.563-3.723-4.851-0.156-10.785-0.223-17.797-0.199z" inkscape:connector-curvature="0"></path> </g> </g> </g> <path id="path148" style="fill-rule:evenodd;fill:#a28553" d="m75.762 113.6-7.723-0.199 1.922 0.117c0.801 0 1.961 0.055 3.48 0.16 1.36 0.11 3.079 0.161 5.161 0.161 1.304 0 2.918 0.027 4.839 0.082 1.227 0.027 3.028 0.011 5.399-0.04 4.215-0.136 8.629-0.203 13.238-0.203 0.961-0.023 4.59-0.172 10.883-0.437l-7.762-0.043c-4.16 0.242-7.933 0.363-11.32 0.363-10.184 0.078-16.227 0.09-18.117 0.039z" inkscape:connector-curvature="0"></path> <path id="path150" style="fill-rule:evenodd;fill:#a28553" d="m112.48 114.76c1.84-0.027 4.348-0.066 7.52-0.121 2.828-0.027 5.52 0 8.078 0.078 2.137 0.055 5 0.176 8.602 0.364 3.066 0.16 5.093 0.238 6.082 0.238 1.066 0 2.039 0.094 2.918 0.281 0.851 0.184 1.558 0.278 2.121 0.278 0.133 0 0.586-0.024 1.359-0.079 0.746-0.027 2.652-0.039 5.719-0.039 3.949 0 7.293-0.082 10.043-0.242l-0.363-0.238-16.918 0.117c-1.895-0.156-3.735-0.277-5.52-0.359-2.32-0.078-4.586-0.172-6.801-0.278-2.613-0.16-4.398-0.254-5.359-0.281-2.773-0.082-6.973-0.094-12.602-0.039-8.984 0.051-16.226 0.145-21.718 0.277-10.746 0.215-19.36 0.321-25.84 0.321-0.481 0-2.375-0.145-5.68-0.438-3.016-0.269-5.32-0.402-6.922-0.402l-16.238-0.078c-3.336 0-7.695-0.082-13.082-0.242l-6.8 0.12c11.176 0.265 17.27 0.398 18.281 0.398l14.36 0.043c3.254 0.024 5.187 0.078 5.801 0.16 0.96 0.133 2.335 0.227 4.121 0.278 0.933 0.027 2.187 0.148 3.757 0.363 0.829 0.105 4.204 0.144 10.122 0.117 5.949-0.027 12.972-0.133 21.082-0.32 8.586-0.184 13.21-0.278 13.878-0.278z" inkscape:connector-curvature="0"></path> <path id="path152" style="fill-rule:evenodd;fill:#a28553" d="m138 115.4c-6.188-0.027-11.32-0.043-15.398-0.043-7.68-0.023-12.414-0.012-14.204 0.043-1.464 0.023-3.933 0.039-7.398 0.039h-6c-2.293 0-6.32 0.106-12.078 0.32-5.762 0.215-9.043 0.321-9.844 0.321-2.558 0.027-4.558 0.027-6 0-2.586-0.028-4.305-0.133-5.156-0.321l-4.442-0.68-11.48 0.04c-3.973 0-9.121-0.133-15.441-0.403-1.653-0.105-4.454-0.183-8.399-0.238-4.508-0.082-8.387-0.105-11.64-0.082l-5.84 0.043-0.602 0.277c10.082-0.211 18.07-0.171 23.961 0.122 8.266 0.425 15.773 0.64 22.52 0.64 1.468 0 3.187-0.027 5.16-0.082 1.469 0 2.75 0.094 3.84 0.281 1.652 0.293 2.601 0.453 2.839 0.481 0.723 0.105 1.817 0.172 3.282 0.199 2.773 0.106 4.535 0.16 5.281 0.16 2.719 0.028 6.84-0.039 12.359-0.199 3.813-0.105 7.36-0.238 10.641-0.398 1.437-0.082 3.094-0.094 4.961-0.043 1.492 0.027 2.238 0.054 2.238 0.082 0.028 0.027 1.492 0.027 4.399 0 5.363-0.055 12.187-0.133 20.48-0.243 2.906-0.027 5.883-0.05 8.922-0.078 1.867 0 3.57 0.051 5.117 0.16 1.496 0.106 2.387 0.227 2.684 0.36 0.183 0.082 0.332 0.215 0.437 0.398 0.215 0.082 0.293 0.215 0.242 0.403 0.184 0.105 1.051 0.16 2.598 0.16 0.906 0 1.867 0.039 2.883 0.121 0.531 0.023 1.57-0.016 3.117-0.121 1.359-0.106 2.453-0.242 3.281-0.403 1.067-0.105 3.442-0.16 7.121-0.16l3.719-0.039-0.48-0.398-7.321 0.039c-3.199 0-4.984 0.027-5.359 0.082-2.48 0.265-4.266 0.398-5.359 0.398-0.907 0.028-1.547 0.039-1.922 0.039-0.692 0-1.106-0.05-1.239-0.16-0.402-0.347-0.773-0.574-1.121-0.679-1.011-0.293-2.8-0.438-5.359-0.438z" inkscape:connector-curvature="0"></path> <path id="path154" style="fill-rule:evenodd;fill:#a28553" d="m145.2 113.2c3.199 0.027 5.828 0.094 7.879 0.203 3.922 0.184 6.149 0.293 6.684 0.32l2.437 0.118-0.48-0.239c-0.692-0.027-2.559-0.133-5.598-0.32l-0.242-0.039c-4.746-0.055-8.305-0.067-10.68-0.043z" inkscape:connector-curvature="0"></path> <path id="path156" style="fill-rule:evenodd;fill:#a28553" d="m1.879 116.24c-0.106 0.156-0.184 0.265-0.238 0.316l8.879 0.082c5.785 0 11.519 0.078 17.199 0.239 2.933 0.082 5.562 0.269 7.883 0.562l0.918 0.078c-0.934 0.082-3.028 0.094-6.282 0.039-1.652-0.051-3.426-0.16-5.316-0.316-1.707-0.16-3.137-0.242-4.281-0.242-7.196 0-12.567 0.039-16.121 0.121 1.23 0.035 2.601 0.086 4.121 0.16 1.547-0.027 3.507 0 5.879 0.078 2.347 0.055 4.226 0.082 5.64 0.082 1.465-0.027 2.961 0.024 4.481 0.16 1.679 0.106 3.281 0.172 4.8 0.199l11.719-0.082c0.641-0.05 0.867-0.117 0.68-0.199-0.188-0.078-0.801-0.133-1.84-0.16-1.148-0.027-3.281-0.16-6.398-0.398-3.497-0.266-5.563-0.414-6.204-0.442-3.117-0.187-9.425-0.277-18.918-0.277h-6.601z" inkscape:connector-curvature="0"></path> <path id="path158" style="fill-rule:evenodd;fill:#a28553" d="m162.08 117.24c2.481 0.078 4.055 0.039 4.723-0.121l-0.039-0.039-4.684 0.16z" inkscape:connector-curvature="0"></path> <path id="path160" style="fill-rule:evenodd;fill:#a28553" d="m135.04 113.88c-5.25-0.372-9.613-0.547-13.078-0.52-7.973 0.055-13.082 0.215-15.32 0.481-1.547 0.16-5.746 0.265-12.602 0.32l-19.359 0.039c-1.758 0-3.055-0.027-3.879-0.078-0.535-0.028-1.348-0.094-2.442-0.199-1.547-0.215-2.839-0.387-3.879-0.524l-5 0.043c0.852 0.024 2.293 0.133 4.321 0.32 1.547 0.161 2.984 0.371 4.32 0.637 0.801 0.16 1.879 0.242 3.238 0.242h11.52c6.453 0 12.695-0.105 18.723-0.32 2.238-0.078 6.183-0.266 11.839-0.559 3.012-0.136 5.852-0.16 8.52-0.082 4.613 0.161 8.277 0.309 11 0.442 1.465 0.027 3.465 0.027 6 0 2.719-0.028 5.184-0.028 7.398 0 2.375 0.027 3.629 0.039 3.762 0.039 0.586 0.055 1.746 0.105 3.481 0.16 0.851 0.027 2.652 0.121 5.398 0.281 1.68 0.078 3.188 0.133 4.52 0.16-0.106-0.082-0.227-0.121-0.36-0.121h-0.879c-1.386 0-3.441-0.121-6.16-0.359-2.695-0.242-4.949-0.359-6.762-0.359l-14.32-0.043z" inkscape:connector-curvature="0"></path> <path id="path162" style="fill-rule:evenodd;fill:#a28553" d="m121.76 116.56c2.238-0.105 4.933-0.023 8.078 0.242l7.64 0.719h3.442c-2.988-0.347-5.27-0.597-6.844-0.758-2.824-0.32-4.824-0.48-6-0.48-2.531 0-6.89 0.051-13.078 0.16-2.586 0.024-5.453 0.094-8.602 0.199-3.144 0.106-5.16 0.16-6.039 0.16-2.425 0.079-4.839 0.122-7.238 0.122h-15.601c-1.625 0-4.188 0.066-7.68 0.199-2.934 0.105-4.895 0.144-5.879 0.121-0.934-0.027-2.359-0.133-4.281-0.32-2.078-0.215-3.758-0.336-5.039-0.364-1.172-0.023-2.575-0.093-4.2-0.199-1.386-0.105-2.601-0.16-3.64-0.16-0.586 0-2.508-0.145-5.762-0.438-3.117-0.269-5.984-0.402-8.598-0.402-11.761-0.184-20.214-0.277-25.363-0.277h-3.519l-0.399 0.277c4.399-0.051 7.746-0.066 10.039-0.039 4.481 0.027 9.668 0.133 15.563 0.32 3.199 0.106 7.316 0.254 12.359 0.442 1.945 0.078 3.266 0.183 3.957 0.316 0.508 0.109 2.227 0.176 5.16 0.203 2.989 0.024 5.774 0.172 8.364 0.438 3.093 0.32 4.906 0.496 5.437 0.519l44.68-0.636c3.734-0.028 8.082-0.149 13.043-0.364z" inkscape:connector-curvature="0"></path> <path id="path164" style="fill-rule:evenodd;fill:#a28553" d="m48.52 117.64 6.519 0.039-2.758-0.199c-3.043-0.055-5.347-0.133-6.922-0.238l-3.918-0.602c-2.347-0.375-4.882-0.558-7.601-0.558-2.215 0-5.371-0.067-9.481-0.203-4.132-0.133-7.425-0.2-9.879-0.2l-11.8 0.039-0.321 0.243c15.735 0.132 24.868 0.254 27.403 0.359 1.359 0.055 2.84 0.105 4.437 0.16 1.36 0.078 2.934 0.188 4.723 0.32 0.773 0.051 2.293 0.227 4.558 0.52 1.415 0.187 3.094 0.293 5.04 0.32z" inkscape:connector-curvature="0"></path> <path id="path166" style="fill-rule:evenodd;fill:#c8af72" d="m40.961 17.242 35.719 0.078c4.105 0 12.132-0.066 24.082-0.199 11.543 0 20.25-0.094 26.117-0.281 4.215-0.133 10.348-0.2 18.402-0.2 1.145-0.027 2.934-0.066 5.36-0.121 2.187-0.054 3.961-0.039 5.32 0.039 0.934 0.055 2.25 0.176 3.961 0.364 1.144 0.132 1.746 0.171 1.797 0.117 0.16-0.184 0.48-0.426 0.961-0.719 0.48-0.32 0.906-0.668 1.281-1.039 0.851-0.856 1.453-1.414 1.801-1.68l-0.242-0.203c-1.442 0-2.946-0.023-4.52-0.078-1.734-0.078-3.254-0.121-4.559-0.121h-13.601c-12.481 0.133-21.852 0.199-28.121 0.199-4.531 0-11.559 0.094-21.078 0.281-9.227 0.188-16.254 0.282-21.082 0.282-8.879 0-19.946-0.121-33.2-0.36-9.281-0.136-17.8-0.109-25.558 0.078-2.133 0.055-5.309 0.082-9.52 0.082-0.883-0.027-1.508-0.043-1.883-0.043-0.636 0-1.238 0.055-1.796 0.161 0.851 0.695 2.21 1.75 4.078 3.16 5.093 0.136 11.132 0.203 18.121 0.203 4.051 0.023 10.105 0.023 18.16 0z" inkscape:connector-curvature="0"></path> <g id="g168"> <g id="g170"> <g id="g176"> <path id="path188" style="fill-rule:evenodd;fill:url(#linearGradient178)" d="m40.961 16.601 35.719 0.078c4.105 0 12.132-0.05 24.082-0.16 11.543 0 20.25-0.105 26.117-0.32 4.215-0.133 10.348-0.184 18.402-0.16 1.145-0.024 2.934-0.078 5.36-0.16 2.16-0.051 3.933-0.039 5.32 0.043 0.879 0.05 2.199 0.171 3.961 0.359 1.144 0.133 1.746 0.172 1.797 0.117 0.16-0.183 0.48-0.426 0.961-0.719 0.48-0.32 0.906-0.664 1.281-1.039 0.851-0.851 1.453-1.414 1.801-1.679l-0.242-0.2c-1.442 0-2.946-0.027-4.52-0.082-1.734-0.078-3.254-0.121-4.559-0.121h-13.601c-12.481 0.137-21.852 0.203-28.121 0.203-4.692 0-11.719 0.094-21.078 0.278-9.36 0.215-16.387 0.32-21.082 0.32-9.254-0.027-20.321-0.16-33.2-0.398-9.281-0.133-17.8-0.106-25.558 0.078-3.199 0.082-6.375 0.121-9.52 0.121-0.883-0.028-1.508-0.051-1.883-0.078-0.636 0-1.238 0.066-1.796 0.199 0.371 0.293 1.078 0.828 2.117 1.598 0.933 0.668 1.586 1.175 1.961 1.519 5.093 0.137 11.132 0.203 18.121 0.203 4.051 0.024 10.105 0.024 18.16 0z" inkscape:connector-curvature="0"></path> </g> </g> </g> <path id="path190" style="fill-rule:evenodd;fill:#a28553" d="m68.602 16.48-13.082-0.121c-1.145 0-2.547 0.082-4.2 0.242l5.321 0.039c1.707-0.105 3.894-0.093 6.558 0.039h14.403c-3.094-0.105-6.094-0.172-9-0.199z" inkscape:connector-curvature="0"></path> <path id="path192" style="fill-rule:evenodd;fill:#a28553" d="m163.24 15.281-12.078 0.117c-2.082 0-4.254 0.082-6.519 0.242-2.375 0.215-4.039 0.36-5 0.442l7.597-0.121c6.856-0.243 12.11-0.403 15.762-0.481l0.238-0.199z" inkscape:connector-curvature="0"></path> <path id="path194" style="fill-rule:evenodd;fill:#a28553" d="m121.2 12.761-6.121 0.278c-2.933 0.347-5.344 0.547-7.238 0.601-1.121 0.051-3.879 0.067-8.281 0.039-6.184-0.05-9.465-0.078-9.84-0.078-2.641 0-6.172-0.094-10.598-0.281l-6.98 0.039c5.336 0.242 8.461 0.375 9.379 0.402 4.32 0.079 8.734 0.133 13.242 0.161 4.183 0.132 7.597 0.117 10.238-0.043 2.078 0 3.801-0.051 5.16-0.161 1.52-0.105 2.692-0.16 3.52-0.16 0.933-0.023 2.121-0.133 3.558-0.316 2.028-0.27 3.348-0.43 3.961-0.481z" inkscape:connector-curvature="0"></path> <path id="path196" style="fill-rule:evenodd;fill:#a28553" d="m151.16 12.718 5.121-0.16-22.16 0.082 4.117 0.078c5.254 0.028 9.563 0.028 12.922 0z" inkscape:connector-curvature="0"></path> <path id="path198" style="fill-rule:evenodd;fill:#a28553" d="m157.12 16 4.801 0.199 0.476-0.359-5.277 0.16z" inkscape:connector-curvature="0"></path> <path id="path200" style="fill-rule:evenodd;fill:#a28553" d="m40.238 15.879c-0.343 0.109-0.718 0.336-1.117 0.679l-0.043 0.043h1.363c0.184-0.109 0.332-0.226 0.438-0.359 0.293-0.137 1.187-0.254 2.68-0.363 1.574-0.133 3.281-0.184 5.121-0.161 1.308 0 4.265 0.028 8.879 0.082 0.48 0 7.308 0.067 20.48 0.2 2.906 0.054 4.375 0.066 4.402 0.039 0-0.051 0.747-0.094 2.239-0.117 1.894-0.028 3.547-0.016 4.961 0.039 3.414 0.187 6.961 0.332 10.64 0.437l4.438 0.121c9.254-0.078 13.906-0.121 13.961-0.121 1.148-0.023 2.066-0.09 2.761-0.199 0.481-0.078 1.36-0.238 2.637-0.481 1.094-0.183 2.375-0.265 3.844-0.238 0.906 0 2.613 0.027 5.117 0.078 6.055 0 13.574-0.211 22.563-0.636 2.476-0.137 5.265-0.231 8.359-0.282l0.16-0.16c-5.148 0.078-8.84 0.172-11.082 0.281-6.211 0.266-11.359 0.399-15.437 0.399l-11.481-0.039c-1.574 0.187-3.043 0.414-4.402 0.679-0.879 0.188-2.614 0.293-5.199 0.321h-6c-0.801 0-4.079-0.121-9.84-0.36-5.758-0.214-9.785-0.32-12.078-0.32h-5.961c-3.973 0-6.453-0.016-7.442-0.043-15.734 0.027-25.597 0.043-29.597 0.043-2.563 0-4.348 0.145-5.364 0.438z" inkscape:connector-curvature="0"></path> <path id="path202" style="fill-rule:evenodd;fill:#a28553" d="m33.52 14.199c0.132 0 1.375-0.012 3.718-0.039 1.84 0 4.321 0.015 7.442 0.039 2.32 0.027 4.308 0.016 5.961-0.039 3.039-0.051 6.718-0.188 11.039-0.399 2.695-0.082 5.519-0.054 8.48 0.079 6.106 0.292 10.051 0.468 11.84 0.519 5.867 0.188 12.121 0.281 18.762 0.281h11.476c1.387 0 2.469-0.082 3.242-0.242 1.387-0.238 2.825-0.437 4.321-0.598 2.187-0.214 4.398-0.32 6.64-0.32 1.68-0.027 5.825-0.015 12.438 0.039h13.16c3.254 0 7.723-0.105 13.402-0.32l0.321-0.238-0.203-0.161c-3.305 0.079-5.637 0.172-7 0.282-1.278 0.105-3.438 0.16-6.481 0.16-4.211-0.027-7.773-0.027-10.68 0-8.425 0.023-14.464 0.023-18.117 0-1.547-0.027-3.121 0.066-4.722 0.277-1.571 0.242-2.68 0.387-3.321 0.442-1.09 0.105-1.906 0.171-2.437 0.199-0.828 0.055-2.121 0.082-3.879 0.082l-19.361-0.043c-7.145-0.051-11.348-0.16-12.598-0.32-2.375-0.239-7.469-0.387-15.281-0.438-2.16-0.027-4.985 0.066-8.481 0.277l-4.597 0.282-14.364-0.039c-1.785 0-4.039 0.105-6.758 0.32-1.773 0.156-3.273 0.262-4.5 0.316 2.317-0.039 4.657-0.105 7.02-0.199 1.734-0.078 2.906-0.144 3.52-0.199z" inkscape:connector-curvature="0"></path> <path id="path204" style="fill-rule:evenodd;fill:#a28553" d="m19.48 14.039c0.559-0.024 2.012-0.106 4.36-0.239 2.215-0.109 4.492-0.226 6.84-0.359 2.082-0.109 4.894-0.176 8.441-0.199l11.52-0.043-15.282-0.238c-2.691 0.105-5.32 0.238-7.879 0.398-4.535 0.32-8.214 0.481-11.039 0.481h-15.16c0.082 0.003 0.215 0.093 0.399 0.281l9.718-0.039c4.907-0.028 7.602-0.043 8.082-0.043z" inkscape:connector-curvature="0"></path> <path id="path206" style="fill-rule:evenodd;fill:#a28553" d="m36 15.441-15-0.082c-2-0.027-7.852-0.012-17.559 0.039l0.278 0.203 10.043-0.043c3.25 0 5.945 0.043 8.078 0.121 2.16 0.11 4.453 0.161 6.879 0.161 5.148 0 7.519 0.027 7.121 0.082 0.535 0 1.238-0.094 2.121-0.282 0.851-0.187 1.824-0.281 2.918-0.281 1.066 0 3.094-0.078 6.082-0.238 3.758-0.188 6.613-0.309 8.559-0.36 2.585-0.082 5.292-0.109 8.121-0.082 1.597 0.028 4.093 0.067 7.48 0.121 0.664 0 5.293 0.094 13.879 0.282 8.105 0.183 15.148 0.293 21.121 0.316 5.945 0.027 9.32-0.012 10.117-0.117 1.629-0.188 2.867-0.293 3.723-0.32 1.84-0.082 3.227-0.188 4.16-0.321 0.613-0.082 2.531-0.133 5.758-0.16l14.359-0.039c5.574-0.027 12.242-0.16 20-0.402l0.364-0.039 0.277-0.282-6.32 0.161c-6.614 0.187-11.918 0.281-15.918 0.281l-16.2 0.082c-1.336 0-3.652 0.144-6.961 0.437-2.96 0.266-4.839 0.403-5.64 0.403-10.51-0.055-19.121-0.16-25.84-0.321-5.52-0.136-12.773-0.226-21.762-0.281-5.543-0.027-9.73 0-12.558 0.078-0.321 0-2.121 0.082-5.399 0.242-2.75 0.106-5.015 0.2-6.801 0.282-2.402 0.211-4.226 0.332-5.48 0.359z" inkscape:connector-curvature="0"></path> <path id="path208" style="fill-rule:evenodd;fill:#a28553" d="m21.16 16.601h12.801c-0.856-0.054-1.961-0.16-3.32-0.32-0.508-0.055-2.293-0.082-5.36-0.082l-9.801-0.039c-5.253-0.106-9.015-0.16-11.281-0.16l0.442 0.359c1.281-0.027 3.492 0 6.64 0.082 3.707 0.106 7 0.16 9.879 0.16z" inkscape:connector-curvature="0"></path> <g id="g210"> <g id="g212"> <g id="g218"> <path id="path230" style="fill-rule:evenodd;fill:url(#linearGradient220)" d="m0.281 117.68 5.278-3.437-0.278-5.281c-0.187-3.76-0.281-6.21-0.281-7.36l0.121-23.921c0-0.398 0.067-5.586 0.199-15.558 0.106-8.961 0.133-14.453 0.078-16.481-0.105-3.414-0.238-13.187-0.398-29.32l-4.238-2.641c-0.16 7.735-0.242 12.856-0.242 15.36-0.266 9.629-0.36 18.269-0.282 25.922 0.055 3.093 0.067 10.214 0.043 21.359-0.027 9.332 0.012 15.121 0.117 17.359 0.082 1.735 0.043 9.735-0.117 24z" inkscape:connector-curvature="0"></path> </g> </g> </g> <path id="path232" style="fill-rule:evenodd;fill:#a28553" d="m2.238 116.4 0.321-0.203v-1.199c0-3.785 0.093-8.2 0.281-13.239 0.187-5.496 0.281-8.453 0.281-8.879 0.078-3.39 0.078-7.695 0-12.921 0-1.414-0.066-3.774-0.199-7.082-0.11-2.426-0.121-4.598-0.043-6.52 0.082-1.785 0.293-3.84 0.641-6.16 0.347-2.238 0.535-3.867 0.558-4.879 0-0.855 0.067-2.027 0.203-3.52 0.106-1.386 0.16-3.109 0.16-5.16 0-1.254 0.028-2.867 0.079-4.84 0.054-1.226 0.039-3.039-0.04-5.441-0.132-4.211-0.199-8.625-0.199-13.238l-0.32-7.442-0.481-0.32 0.079 1.441c0.375 6.051 0.562 10.891 0.562 14.52 0.106 10.215 0.117 16.266 0.039 18.16-0.027 1.094-0.133 2.442-0.32 4.039-0.215 1.867-0.332 2.934-0.36 3.199-0.187 1.629-0.347 3.11-0.48 4.442-0.293 2.586-0.426 4.906-0.398 6.961 0.105 4.48 0.16 8.105 0.16 10.879-0.11 2.746-0.16 6.535-0.16 11.359 0 0.375 0.023 3.016 0.078 7.922 0.027 2.453-0.012 5.184-0.121 8.199l-0.321 9.922z" inkscape:connector-curvature="0"></path> <path id="path234" style="fill-rule:evenodd;fill:#a28553" d="m5.039 114.56 0.281-0.156-0.199-8.723-0.082 8.879z" inkscape:connector-curvature="0"></path> <path id="path236" style="fill-rule:evenodd;fill:#a28553" d="m3.078 115.84 0.32-0.2c0.082-3.308 0.161-6 0.243-8.082 0.265-5.863 0.414-10.437 0.437-13.718 0-2.293-0.012-6.719-0.039-13.282 0-4.316-0.027-8.465-0.078-12.437-0.027-2.293 0.078-4.508 0.32-6.641 0.16-1.492 0.387-2.933 0.68-4.32 0.16-0.801 0.238-1.895 0.238-3.281v-18.637c-0.027-2.91-0.121-6.789-0.277-11.641l-0.363-7.562-0.321-0.199c0.11 1.625 0.176 2.519 0.203 2.679 0.184 1.547 0.305 5.762 0.36 12.641l0.039 19.441c0 2.504-0.106 4.598-0.32 6.278-0.215 1.363-0.387 2.468-0.52 3.32-0.215 1.629-0.305 3.215-0.281 4.762 0.027 3.652 0.027 9.707 0 18.16v10.679c0 3.122-0.051 5.293-0.16 6.52-0.321 4.055-0.481 9.227-0.481 15.52z" inkscape:connector-curvature="0"></path> <path id="path238" style="fill-rule:evenodd;fill:#a28553" d="m4.121 115.16 0.32-0.199c-0.027-1.067 0.028-4.055 0.161-8.961 0.023-0.801 0.117-4.387 0.277-10.758 0.082-2.883 0.133-5.977 0.16-9.281l0.082-14.36c0-2.508 0.039-4.359 0.117-5.562l0.082-4.839c-0.187 1.601-0.308 2.707-0.359 3.32-0.082 0.906-0.121 2.106-0.121 3.602l-0.078 16.238c0 2.348-0.043 5.148-0.121 8.402-0.133 4.321-0.2 6.84-0.2 7.559-0.242 6.535-0.363 10.641-0.363 12.32l0.043 2.52z" inkscape:connector-curvature="0"></path> <path id="path240" style="fill-rule:evenodd;fill:#a28553" d="m1.281 117.04 0.239-0.16c0.027-4.161 0.082-11 0.16-20.52v-16.238c0.027-3.95 0.015-7.669-0.039-11.161 0.027-2.106 0.199-4.868 0.519-8.282 0.238-2.691 0.481-4.734 0.719-6.121 0.133-1.066 0.199-3.652 0.199-7.758 0-5.226-0.133-11.812-0.398-19.761-0.055-1.653-0.067-2.664-0.039-3.039 0.027-0.907 0.039-2.36 0.039-4.36l-0.039-4.8-0.442-0.282 0.039 5.082c0 1.653 0.082 5.133 0.242 10.442 0.161 5.679 0.239 8.933 0.239 9.758 0 0.96-0.067 5.492-0.199 13.601 0 0.32-0.2 2.211-0.598 5.68-0.348 3.226-0.524 5.801-0.524 7.719l-0.117 50.199z" inkscape:connector-curvature="0"></path> <path id="path242" style="fill-rule:evenodd;fill:#a28553" d="m0.281 64.961 0.239-5.68c0.425-7.172 0.558-12.492 0.402-15.961l-0.082-29.559-0.16-0.082c-0.188 5.282-0.282 9.536-0.282 12.762l-0.117 38.52z" inkscape:connector-curvature="0"></path> <path id="path244" style="fill-rule:evenodd;fill:#a28553" d="m0.32 114.36 0.039 3.281 0.36-0.242-0.078-16.918c0-4.215 0.078-7.922 0.238-11.121 0.187-3.066 0.266-6.57 0.242-10.519 0-3.946-0.043-7.852-0.121-11.719 0-2.293 0.078-4.387 0.238-6.281 0.137-1.52 0.282-3.161 0.442-4.918 0.105-1.364 0.172-3.188 0.199-5.481 0.027-1.894 0-3.453-0.078-4.68-0.082-1.468-0.121-3.066-0.121-4.8 0-2 0.054-3.586 0.16-4.762 0.105-1.199 0.16-2.348 0.16-3.438v-6.8c0-1.895-0.066-5.801-0.199-11.719l-0.442-0.203v8.281c-0.132 9.359-0.199 15.359-0.199 18 0.133 4.934 0.199 8.254 0.199 9.961 0 0.746-0.093 2.918-0.281 6.519-0.183 3.84-0.293 6.665-0.316 8.481-0.055 2.051-0.067 5.652-0.043 10.801 0.054 5.093 0.082 8.066 0.082 8.918 0 0.722-0.055 1.922-0.16 3.601-0.161 2.399-0.254 3.946-0.282 4.641l0.039 0.437c0.11 2.348 0.082 9.243-0.078 20.68z" inkscape:connector-curvature="0"></path> <g id="g246"> <g id="g248"> <g id="g254"> <path id="path266" style="fill-rule:evenodd;fill:url(#linearGradient256)" d="m165.96 116.84-0.402-10.36c-0.266-7.148-0.371-11.293-0.321-12.441 0.11-2.426 0.149-8.574 0.121-18.438-0.027-12.082-0.027-19.656 0-22.722 0.082-8.133 0-17.305-0.238-27.52 0-2.664 0.133-6.84 0.399-12.519l-4.481 3.8c-0.16 13.918-0.277 22.707-0.359 26.36-0.055 2.16-0.028 7.988 0.082 17.48 0.105 10.719 0.16 16.238 0.16 16.559l0.156 35.922 4.883 3.879z" inkscape:connector-curvature="0"></path> </g> </g> </g> <path id="path268" style="fill-rule:evenodd;fill:#a28553" d="m165.32 116.36 0.321 0.242v-0.562c-0.215-10.024-0.321-15.532-0.321-16.52-0.082-2.961-0.105-4.785-0.082-5.48 0.11-2.426 0.149-8.574 0.121-18.438-0.027-12.082-0.027-19.656 0-22.722v-5.52c-0.265 3.414-0.398 6.055-0.398 7.922 0.133 8.184 0.199 14.027 0.199 17.519 0 10.719-0.027 17.665-0.082 20.84-0.078 2.321-0.133 3.879-0.156 4.68-0.027 1.199 0 2.852 0.078 4.961 0.215 4.773 0.32 9.133 0.32 13.078z" inkscape:connector-curvature="0"></path> <path id="path270" style="fill-rule:evenodd;fill:#a28553" d="m161.56 113.36 0.281 0.199c0.082-1.066 0.187-1.812 0.32-2.238 0.078-1.012 0.106-4.281 0.078-9.801-0.023-10.105-0.25-21.785-0.679-35.039 0-1.84-0.039-4.348-0.118-7.519-0.027-2.829 0-5.536 0.079-8.121 0.082-2.079 0.214-4.946 0.402-8.598 0.183-3.043 0.277-5.067 0.277-6.082 0-1.094 0.106-2.078 0.321-2.961 0.214-0.852 0.32-1.547 0.32-2.078 0-0.16-0.012-0.614-0.039-1.36-0.055-0.773-0.082-2.695-0.082-5.761 0-2.215-0.078-5.078-0.239-8.602l-0.281 0.281v0.602c0.082 3.254 0.121 5.719 0.121 7.398v7.602c-0.187 1.894-0.332 3.734-0.441 5.519-0.051 2.321-0.16 4.586-0.32 6.801-0.161 2.664-0.254 4.453-0.278 5.36-0.082 2.8-0.109 7-0.082 12.597 0.082 9.121 0.188 16.387 0.321 21.801 0.105 4.266 0.199 9.707 0.281 16.32 0.051 4.614 0.078 7.801 0.078 9.563 0 0.906-0.106 2.277-0.32 4.117z" inkscape:connector-curvature="0"></path> <path id="path272" style="fill-rule:evenodd;fill:#a28553" d="m160.68 43c-0.055 1.492-0.055 4 0 7.519l0.16-4.558c0.082-3.039 0.082-7.493 0-13.36l-0.16 10.399z" inkscape:connector-curvature="0"></path> <path id="path274" style="fill-rule:evenodd;fill:#a28553" d="m160.88 28.8c0.055-0.347 0.133-1.519 0.242-3.519 0.16-4.215 0.254-7.199 0.277-8.961l-0.199 0.199v0.082c0 1.227-0.066 2.547-0.199 3.957l-0.121 8.242z" inkscape:connector-curvature="0"></path> <path id="path276" style="fill-rule:evenodd;fill:#a28553" d="m160.94 76.5 0.094 34.261c0.109-0.64 0.16-1.668 0.16-3.082v-11.519c0-1.785 0.016-4.172 0.039-7.16-0.023-2.961-0.117-6.84-0.277-11.641l-0.02-0.859h0.004z" inkscape:connector-curvature="0"></path> <path id="path278" style="fill-rule:evenodd;fill:#a28553" d="m163 114.48 0.359 0.281 0.039-1.402c0.11-3.117 0.161-4.879 0.161-5.277 0.027-2.774-0.039-6.907-0.2-12.403-0.132-3.652-0.293-7.199-0.48-10.64-0.078-1.438-0.094-3.106-0.039-5 0.027-1.492 0.066-2.239 0.121-2.239 0.027 0 0.012-1.453-0.039-4.359-0.055-5.387-0.137-12.242-0.242-20.562-0.028-2.907-0.055-5.879-0.078-8.918-0.028-1.84 0.023-3.547 0.16-5.121 0.133-1.52 0.277-2.426 0.437-2.719 0.082-0.16 0.215-0.309 0.403-0.442 0.105-0.214 0.25-0.293 0.437-0.238 0.133-0.16 0.199-1.027 0.199-2.601 0-0.907 0.043-1.868 0.121-2.879 0.055-0.536 0.016-1.575-0.121-3.121-0.105-1.36-0.25-2.454-0.437-3.282-0.133-1.066-0.199-3.437-0.199-7.117v-1.961l-0.481 0.399 0.039 5.64c0 3.199 0.028 4.988 0.078 5.36 0.321 2.242 0.481 4.043 0.481 5.402 0.027 0.879 0.054 1.519 0.082 1.918 0 0.695-0.067 1.109-0.199 1.242-0.375 0.371-0.614 0.734-0.723 1.078-0.32 1.016-0.481 2.801-0.481 5.36 0 16.855 0.028 26.75 0.082 29.679 0.215 3.922 0.321 6.403 0.321 7.442v6c0 2.293 0.078 6.332 0.238 12.121 0.16 5.758 0.242 9.039 0.242 9.84 0 1.519-0.093 4.359-0.281 8.519z" inkscape:connector-curvature="0"></path> <path id="path280" style="fill-rule:evenodd;fill:#a28553" d="m165.2 21.16 0.039-8.078-0.316 0.277c0.051 3.359 0.133 5.856 0.238 7.481l0.039 0.32z" inkscape:connector-curvature="0"></path> <path id="path282" style="fill-rule:evenodd;fill:#a28553" d="m164.4 115.12-0.039 0.48 0.321 0.239 0.082-1.68c0.023-1.387-0.016-2.973-0.121-4.762-0.133-2.105-0.215-4.305-0.243-6.598-0.023-2.265-0.078-4.468-0.16-6.601-0.023-1.387-0.011-2.984 0.043-4.801 0.051-1.465 0.094-2.707 0.117-3.719 0.028-0.718 0.028-2.105 0-4.16 0-0.453-0.05-1.414-0.16-2.879-0.078-0.988-0.144-4.441-0.199-10.359-0.027-3.707-0.172-8.066-0.437-13.082-0.11-2.238-0.016-4.934 0.277-8.078 0.32-3.656 0.789-7.961 1.402-12.922l-0.16-11.481c-0.242-2.586-0.402-5.093-0.48-7.519l-0.121-3.481-0.282 0.204c0.188 5.199 0.414 9.664 0.684 13.398 0.105 1.867 0.156 3.32 0.156 4.359-0.051 1.121-0.09 2.188-0.117 3.2 0 0.91-0.281 3.468-0.84 7.679-0.562 4.16-0.84 6.922-0.84 8.282 0.051 4.105 0.106 8.48 0.16 13.121 0.239 7.464 0.387 12.359 0.438 14.679 0.109 2.426 0.16 4.84 0.16 7.239v15.64c0.027 1.762 0.094 4.321 0.199 7.68 0.137 2.988 0.188 4.961 0.16 5.922z" inkscape:connector-curvature="0"></path> </g> </g> <metadata></metadata></svg> 