<?xml version="1.0" encoding="UTF-8" standalone="no"?> <!-- Created with Inkscape (http://www.inkscape.org/) --> <svg xmlns:inkscape="http://www.inkscape.org/namespaces/inkscape" xmlns:rdf="http://www.w3.org/1999/02/22-rdf-syntax-ns#" xmlns="http://www.w3.org/2000/svg" xmlns:xlink="http://www.w3.org/1999/xlink" xmlns:ns1="http://sozi.baierouge.fr" xmlns:cc="http://creativecommons.org/ns#" xmlns:sodipodi="http://sodipodi.sourceforge.net/DTD/sodipodi-0.dtd" xmlns:dc="http://purl.org/dc/elements/1.1/" id="svg2" xml:space="preserve" viewBox="0 0 44.072 21.92" inkscape:version="0.91 r13725"> <defs id="defs6"> <linearGradient id="linearGradient176" y2="-17397" gradientUnits="userSpaceOnUse" x2="15094" gradientTransform="matrix(-.6336 -.09024 .09024 -.6336 11133 -9653.5)" y1="-17397" x1="15038"> <stop id="stop178" style="stop-color:#a3481d" offset="0"></stop> <stop id="stop180" style="stop-color:#f1814e" offset="1"></stop> </linearGradient> <linearGradient id="linearGradient350" y2="-18253" gradientUnits="userSpaceOnUse" x2="2616.4" gradientTransform="matrix(-.1792 -.6144 .6144 -.1792 11707 -1662.2)" y1="-18253" x1="2601.4"> <stop id="stop352" style="stop-color:#a3481d" offset="0"></stop> <stop id="stop354" style="stop-color:#f1814e" offset="1"></stop> </linearGradient> <linearGradient id="linearGradient372" y2="2332" gradientUnits="userSpaceOnUse" x2="12889" gradientTransform="matrix(.2288 .59770 -.59770 .2288 -1528.3 -8221.2)" y1="2332" x1="12877"> <stop id="stop374" style="stop-color:#5d6f1c" offset="0"></stop> <stop id="stop376" style="stop-color:#8fa72f" offset="1"></stop> </linearGradient> <linearGradient id="linearGradient490" y2="-193.65" gradientUnits="userSpaceOnUse" x2="16490" gradientTransform="matrix(-.012608 .63987 -.63987 -.012608 97.421 -10538)" y1="-193.65" x1="16478"> <stop id="stop492" style="stop-color:#a3481d" offset="0"></stop> <stop id="stop494" style="stop-color:#f1814e" offset="1"></stop> </linearGradient> </defs> <g id="g10" transform="matrix(1.25 0 0 -1.25 0 21.92)"> <g id="g12"> <path id="path14" style="fill-rule:evenodd;fill:#8f3c15" d="m25.953 16.095c-0.301 0.234-0.758 0.363-1.379 0.386-0.574 0-1.074-0.086-1.504-0.258-0.402-0.171-0.832-0.492-1.277-0.96-0.469-0.469-0.695-0.84-0.672-1.118 0.02-0.277 0.297-0.707 0.832-1.281 0.531-0.598 0.992-0.937 1.375-1.023 0.277-0.067 1.098 0.031 2.465 0.289-1.133-0.473-2.113-0.93-2.945-1.379-1.086 0.535-1.93 1.258-2.528 2.176-0.789 1.218-0.629 2.273 0.481 3.168 1.301 1.066 2.676 1.515 4.129 1.343 1.215-0.125 2.035-0.543 2.461-1.246 0.32-0.535 0.214-1.09-0.321-1.664-0.511-0.535-1.086-0.82-1.726-0.863-0.574-0.043-1.004 0.16-1.282 0.605-0.296 0.473-0.253 0.832 0.129 1.09 0.34 0.215 0.653 0.246 0.93 0.098 0.297-0.152 0.352-0.246 0.16-0.289-0.191-0.067-0.343-0.129-0.449-0.192-0.172-0.086-0.223-0.171-0.16-0.257 0.148-0.278 0.543-0.266 1.183 0.031 0.344 0.172 0.524 0.375 0.543 0.609 0.024 0.235-0.125 0.481-0.445 0.735z" inkscape:connector-curvature="0"></path> <path id="path16" style="fill-rule:evenodd;fill:#ebaa91" d="m22.305 11.138-0.672-0.258c0.105 0.383 0.277 0.586 0.512 0.609l0.16-0.16v-0.191z" inkscape:connector-curvature="0"></path> <path id="path18" style="fill-rule:evenodd;fill:#ebaa91" d="m21.602 11.743c-0.067 0.043-0.196 0.023-0.387-0.062-0.211-0.086-0.352-0.129-0.414-0.129 0.191 0.148 0.32 0.234 0.383 0.257 0.086 0.039 0.203 0.063 0.351 0.063l0.067-0.129z" inkscape:connector-curvature="0"></path> <path id="path20" style="fill-rule:evenodd;fill:#ebaa91" d="m21.762 11.552c0.043-0.129-0.11-0.235-0.45-0.321 0.02 0.024 0.106 0.098 0.254 0.227 0.11 0.082 0.196 0.137 0.258 0.156l-0.062-0.062z" inkscape:connector-curvature="0"></path> <path id="path22" style="fill-rule:evenodd;fill:#ebaa91" d="m22.113 11.809-0.129 0.063c-0.062 0.297-0.043 0.457 0.063 0.48 0.086-0.062 0.141-0.16 0.16-0.289 0.023-0.129-0.012-0.211-0.094-0.254z" inkscape:connector-curvature="0"></path> <path id="path24" style="fill-rule:evenodd;fill:#ebaa91" d="m22.719 11.583-0.094-0.031-0.098 0.382c-0.043 0.196-0.031 0.313 0.032 0.356l0.289-0.578c0-0.129-0.043-0.172-0.129-0.129z" inkscape:connector-curvature="0"></path> <path id="path26" style="fill-rule:evenodd;fill:#ebaa91" d="m23.168 11.681 0.062 0.16c0 0.105 0.024 0.179 0.067 0.222 0.086-0.234 0.117-0.371 0.094-0.414-0.02-0.066-0.051-0.097-0.094-0.097-0.067 0-0.109 0.043-0.129 0.129z" inkscape:connector-curvature="0"></path> <path id="path28" style="fill-rule:evenodd;fill:#ebaa91" d="m23.68 11.809 0.097 0.063c0.063-0.063 0.075-0.141 0.032-0.223-0.024 0-0.067 0.051-0.129 0.16z" inkscape:connector-curvature="0"></path> <path id="path30" style="fill-rule:evenodd;fill:#ebaa91" d="m21.695 12.802 0.098 0.16c0.082 0.105 0.223 0.179 0.414 0.222l-0.16-0.16c0.023-0.086 0.012-0.148-0.031-0.191-0.043-0.086-0.149-0.098-0.321-0.031z" inkscape:connector-curvature="0"></path> <path id="path32" style="fill-rule:evenodd;fill:#ebaa91" d="m21.504 13.153-0.063 0.223c0.383 0.148 0.586 0.222 0.606 0.222 0-0.019-0.094-0.093-0.285-0.222-0.129-0.086-0.215-0.16-0.258-0.223z" inkscape:connector-curvature="0"></path> <path id="path34" style="fill-rule:evenodd;fill:#ebaa91" d="m21.023 13.856-0.289 0.254c0.172 0.086 0.313 0.129 0.418 0.129 0.235 0 0.371-0.051 0.414-0.16l-0.543-0.223z" inkscape:connector-curvature="0"></path> <path id="path36" style="fill-rule:evenodd;fill:#ebaa91" d="m21.535 14.977 0.063 0.286c0.066-0.04 0.172-0.075 0.32-0.094 0.129-0.043 0.203-0.117 0.227-0.227-0.172 0.043-0.375 0.055-0.61 0.035z" inkscape:connector-curvature="0"></path> <path id="path38" style="fill-rule:evenodd;fill:#ebaa91" d="m22.559 15.841 0.097 0.16c0.149 0.019 0.278-0.141 0.383-0.481-0.148 0.235-0.309 0.34-0.48 0.321z" inkscape:connector-curvature="0"></path> <path id="path40" style="fill-rule:evenodd;fill:#ebaa91" d="m23.711 16.481 0.258 0.192c0.105-0.043 0.172-0.16 0.191-0.352 0-0.148-0.019-0.277-0.062-0.387-0.196 0.387-0.321 0.567-0.387 0.547z" inkscape:connector-curvature="0"></path> <path id="path42" style="fill-rule:evenodd;fill:#ebaa91" d="m23.008 16.895c-0.086-0.019-0.235 0-0.449 0.067-0.192 0.062-0.329 0.125-0.414 0.191 0.105 0.063 0.289 0.082 0.543 0.063 0.277 0 0.437-0.063 0.48-0.192l-0.16-0.129z" inkscape:connector-curvature="0"></path> <path id="path44" style="fill-rule:evenodd;fill:#ebaa91" d="m23.586 17.122-0.066 0.094c0 0.129 0.191 0.234 0.578 0.32 0-0.043-0.086-0.148-0.258-0.32-0.106-0.106-0.192-0.137-0.254-0.094z" inkscape:connector-curvature="0"></path> <path id="path46" style="fill-rule:evenodd;fill:#ebaa91" d="m24.383 17.122-0.031 0.125c0.066 0.043 0.171 0.086 0.32 0.129 0.172 0.043 0.277 0.055 0.32 0.031 0-0.105-0.203-0.203-0.609-0.285z" inkscape:connector-curvature="0"></path> <path id="path48" style="fill-rule:evenodd;fill:#ebaa91" d="m25.664 17.024-0.191 0.129c0.086 0.043 0.222 0.063 0.414 0.063 0.234 0.062 0.363 0.086 0.386 0.062l-0.609-0.254z" inkscape:connector-curvature="0"></path> <path id="path50" style="fill-rule:evenodd;fill:#ebaa91" d="m26.434 16.735-0.129 0.067c0.062 0.019 0.179 0.043 0.351 0.062 0.078 0 0.149 0.004 0.207 0.016l-0.429-0.145z" inkscape:connector-curvature="0"></path> <path id="path52" style="fill-rule:evenodd;fill:#ebaa91" d="m26.91 16.384v0.129c0.11-0.043 0.301-0.055 0.578-0.032 0.211-0.043 0.332-0.152 0.352-0.32-0.297 0.105-0.524 0.16-0.672 0.16-0.106 0-0.191 0.02-0.258 0.063z" inkscape:connector-curvature="0"></path> <path id="path54" style="fill-rule:evenodd;fill:#ebaa91" d="m27.328 15.489 0.031 0.192c0.11 0 0.203-0.086 0.289-0.258 0.086-0.149 0.118-0.266 0.094-0.352-0.039 0.024-0.105 0.11-0.191 0.258-0.063 0.105-0.137 0.16-0.223 0.16z" inkscape:connector-curvature="0"></path> <path id="path56" style="fill-rule:evenodd;fill:#ebaa91" d="m27.07 15.169 0.035 0.094c0.192-0.297 0.278-0.489 0.254-0.575l-0.289 0.481z" inkscape:connector-curvature="0"></path> <path id="path58" style="fill-rule:evenodd;fill:#ebaa91" d="m26.816 15.391c-0.109-0.062-0.289-0.117-0.546-0.16-0.02 0.086 0.042 0.172 0.195 0.258 0.125 0.086 0.242 0.106 0.351 0.063v-0.161z" inkscape:connector-curvature="0"></path> <path id="path60" style="fill-rule:evenodd;fill:#ebaa91" d="m26.625 15.872-0.418-0.16c0 0.062 0.066 0.129 0.191 0.191 0.11 0.067 0.196 0.086 0.258 0.067l-0.031-0.098z" inkscape:connector-curvature="0"></path> <path id="path62" style="fill-rule:evenodd;fill:#ebaa91" d="m26.977 15.809-0.067 0.223c0.086-0.043 0.172-0.141 0.258-0.289 0.062-0.148 0.074-0.254 0.031-0.32l-0.222 0.386z" inkscape:connector-curvature="0"></path> <path id="path64" style="fill-rule:evenodd;fill:#ebaa91" d="m26.176 16.29c-0.043-0.067-0.172-0.129-0.383-0.195-0.023 0.066 0.008 0.121 0.094 0.16 0.066 0.023 0.14 0.054 0.226 0.097l0.063-0.062z" inkscape:connector-curvature="0"></path> <path id="path66" style="fill-rule:evenodd;fill:#ebaa91" d="m25.633 16.606 0.16-0.093c0.062-0.11 0.051-0.215-0.031-0.321-0.067-0.086-0.153-0.148-0.258-0.191 0.086 0.062 0.117 0.172 0.098 0.32-0.024 0.168-0.012 0.266 0.031 0.285z" inkscape:connector-curvature="0"></path> <path id="path68" style="fill-rule:evenodd;fill:#ebaa91" d="m25.375 16.735-0.32 0.192c0.383 0.043 0.664 0 0.832-0.125-0.043-0.024-0.129-0.036-0.254-0.036-0.11 0.024-0.192 0.012-0.258-0.031z" inkscape:connector-curvature="0"></path> <path id="path70" style="fill-rule:evenodd;fill:#ebaa91" d="m25.953 13.888c-0.023-0.129-0.172-0.247-0.449-0.352 0.043 0.406 0.191 0.574 0.449 0.512v-0.16z" inkscape:connector-curvature="0"></path> <path id="path72" style="fill-rule:evenodd;fill:#ebaa91" d="m25.215 14.11c0.086 0.129 0.308 0.246 0.672 0.356l0.066-0.067-0.738-0.289z" inkscape:connector-curvature="0"></path> <path id="path74" style="fill-rule:evenodd;fill:#ebaa91" d="m26.305 14.848c-0.172-0.066-0.278-0.066-0.321 0 0.149 0.106 0.309 0.149 0.481 0.129l-0.16-0.129z" inkscape:connector-curvature="0"></path> <path id="path76" style="fill-rule:evenodd;fill:#ebaa91" d="m26.945 14.688c0.106-0.043 0.18-0.129 0.223-0.257 0.02-0.106 0.012-0.204-0.031-0.286-0.055 0.258-0.121 0.442-0.192 0.543z" inkscape:connector-curvature="0"></path> <path id="path78" style="fill-rule:evenodd;fill:#ebaa91" d="m24.895 13.759c-0.321-0.106-0.52-0.161-0.606-0.161l0.223 0.161 0.258 0.035 0.125-0.035z" inkscape:connector-curvature="0"></path> <path id="path80" style="fill-rule:evenodd;fill:#ebaa91" d="m24.383 14.079c-0.149-0.086-0.321-0.074-0.512 0.031l0.387 0.035 0.125-0.066z" inkscape:connector-curvature="0"></path> <path id="path82" style="fill-rule:evenodd;fill:#ebaa91" d="m24.031 14.528-0.445 0.223c0.105 0 0.266-0.043 0.476-0.125l-0.031-0.098z" inkscape:connector-curvature="0"></path> <path id="path84" style="fill-rule:evenodd;fill:#ebaa91" d="m24.031 14.88c-0.129 0.234-0.16 0.375-0.093 0.418 0.105-0.153 0.136-0.27 0.093-0.356v-0.062z" inkscape:connector-curvature="0"></path> <path id="path86" style="fill-rule:evenodd;fill:#ebaa91" d="m24.352 15.2v0.129l0.543 0.191c-0.043-0.086-0.223-0.191-0.543-0.32z" inkscape:connector-curvature="0"></path> <path id="path88" style="fill-rule:evenodd;fill:#ebaa91" d="m25.055 15.298-0.094 0.093c0.086 0.043 0.191 0.067 0.32 0.067 0.125-0.024 0.203-0.067 0.223-0.129-0.215 0.019-0.363 0.012-0.449-0.031z" inkscape:connector-curvature="0"></path> <path id="path90" style="fill-rule:evenodd;fill:#ebaa91" d="m25.281 15.2 0.031 0.063 0.383-0.094c-0.191-0.067-0.332-0.055-0.414 0.031z" inkscape:connector-curvature="0"></path> <path id="path92" style="fill-rule:evenodd;fill:#ebaa91" d="m24.48 14.977 0.063 0.032c0.066 0.043 0.141 0.05 0.227 0.031 0.082-0.043 0.136-0.098 0.16-0.16-0.024 0-0.172 0.031-0.45 0.097z" inkscape:connector-curvature="0"></path> <path id="path94" style="fill-rule:evenodd;fill:#ebaa91" d="m24.609 14.431-0.097 0.351c0.172-0.277 0.265-0.457 0.289-0.543l-0.067-0.031-0.125 0.223z" inkscape:connector-curvature="0"></path> <path id="path96" style="fill-rule:evenodd;fill:#ebaa91" d="m24.609 14.079v0.16c0.039-0.019 0.094-0.086 0.161-0.191-0.024-0.02-0.079-0.012-0.161 0.031z" inkscape:connector-curvature="0"></path> <path id="path98" style="fill-rule:evenodd;fill:#ebaa91" d="m25.055 13.825-0.321 0.063 0.387 0.128c0.043-0.043 0.063-0.097 0.063-0.16-0.02-0.062-0.063-0.074-0.129-0.031z" inkscape:connector-curvature="0"></path> <path id="path100" style="fill-rule:evenodd;fill:#ebaa91" d="m25.055 14.368-0.063 0.223c0.129 0.066 0.211 0.023 0.254-0.125l-0.191-0.098z" inkscape:connector-curvature="0"></path> <path id="path102" style="fill-rule:evenodd;fill:#ebaa91" d="m26.398 14.528-0.125 0.031c0.125 0.235 0.243 0.364 0.352 0.383 0.043-0.234-0.031-0.371-0.227-0.414z" inkscape:connector-curvature="0"></path> <path id="path104" style="fill-rule:evenodd;fill:#ebaa91" d="m21.695 16.032-0.129 0.063c0.024 0.086 0.118 0.16 0.289 0.226 0.129 0.043 0.258 0.063 0.383 0.063-0.105-0.278-0.285-0.395-0.543-0.352z" inkscape:connector-curvature="0"></path> <path id="path106" style="fill-rule:evenodd;fill:#ebaa91" d="m21.984 15.841 0.289-0.098c0.149 0 0.254-0.074 0.321-0.223-0.172 0.043-0.375 0.149-0.61 0.321z" inkscape:connector-curvature="0"></path> <path id="path108" style="fill-rule:evenodd;fill:#ebaa91" d="m21.246 16.161-0.156 0.129c0.039 0.234 0.148 0.402 0.316 0.512 0.024-0.086 0.012-0.215-0.031-0.387 0.023-0.106 0.031-0.168 0.031-0.192-0.019-0.019-0.074-0.042-0.16-0.062z" inkscape:connector-curvature="0"></path> <path id="path110" style="fill-rule:evenodd;fill:#ebaa91" d="m21.855 16.575 0.032 0.129 0.129 0.223c0.086-0.063 0.105-0.137 0.062-0.223-0.039-0.063-0.117-0.106-0.223-0.129z" inkscape:connector-curvature="0"></path> <path id="path112" style="fill-rule:evenodd;fill:#ebaa91" d="m20.609 16.032c0.211-0.32 0.266-0.492 0.161-0.512-0.067-0.023-0.129 0.02-0.196 0.129-0.062 0.125-0.105 0.211-0.125 0.254l0.16 0.129z" inkscape:connector-curvature="0"></path> <path id="path114" style="fill-rule:evenodd;fill:#ebaa91" d="m21.215 15.458-0.16 0.765c0.043-0.062 0.148-0.246 0.32-0.542 0.129-0.258 0.074-0.333-0.16-0.223z" inkscape:connector-curvature="0"></path> <path id="path116" style="fill-rule:evenodd;fill:#ebaa91" d="m20.094 15.2 0.035 0.414c0.211-0.211 0.297-0.371 0.254-0.476-0.02-0.067-0.063-0.086-0.125-0.067-0.086 0.024-0.141 0.067-0.164 0.129z" inkscape:connector-curvature="0"></path> <path id="path118" style="fill-rule:evenodd;fill:#ebaa91" d="m20.641 15.009 0.129-0.032 0.414-0.066-0.289-0.094c-0.063 0-0.106 0.02-0.125 0.063l-0.129 0.129z" inkscape:connector-curvature="0"></path> <path id="path120" style="fill-rule:evenodd;fill:#ebaa91" d="m20.961 14.559-0.066 0.192c0.195 0 0.394-0.051 0.609-0.16-0.149-0.063-0.332-0.075-0.543-0.032z" inkscape:connector-curvature="0"></path> <path id="path122" style="fill-rule:evenodd;fill:#ebaa91" d="m20.031 14.528-0.191 0.383c0.234-0.086 0.383-0.211 0.449-0.383 0.043-0.148-0.043-0.148-0.258 0z" inkscape:connector-curvature="0"></path> <path id="path124" style="fill-rule:evenodd;fill:#ebaa91" d="m19.777 13.985-0.351 0.285c0.34 0 0.554-0.136 0.636-0.414-0.128-0.086-0.222-0.043-0.285 0.129z" inkscape:connector-curvature="0"></path> <path id="path126" style="fill-rule:evenodd;fill:#ebaa91" d="m19.871 13.473-0.351 0.223c0.343 0 0.535-0.074 0.578-0.223-0.067-0.023-0.141-0.023-0.227 0z" inkscape:connector-curvature="0"></path> <path id="path128" style="fill-rule:evenodd;fill:#ebaa91" d="m20.191 12.673-0.671 0.062c0.535 0.258 0.82 0.246 0.863-0.031-0.086-0.043-0.149-0.055-0.192-0.031z" inkscape:connector-curvature="0"></path> <path id="path130" style="fill-rule:evenodd;fill:#ebaa91" d="m20.895 13.184-0.129-0.097-0.446 0.191c0.34 0.129 0.532 0.098 0.575-0.094z" inkscape:connector-curvature="0"></path> <path id="path132" style="fill-rule:evenodd;fill:#ebaa91" d="m20.672 13.794c0.129-0.153 0.098-0.258-0.098-0.321l-0.285 0.415c0.125 0.085 0.254 0.054 0.383-0.094z" inkscape:connector-curvature="0"></path> <path id="path134" style="fill-rule:evenodd;fill:#ebaa91" d="m21.406 12.095-0.605 0.128c0.383 0.149 0.617 0.18 0.703 0.098 0.105-0.148 0.074-0.226-0.098-0.226z" inkscape:connector-curvature="0"></path> <path id="path136" style="fill-rule:evenodd;fill:#ebaa91" d="m20.414 12.095-0.445 0.16c0.402 0.191 0.629 0.234 0.672 0.129 0.043-0.129-0.032-0.223-0.227-0.289z" inkscape:connector-curvature="0"></path> <path id="path138" style="fill-rule:evenodd;fill:#8f3c15" d="m8.383 8.384-0.445 0.062c-0.258 0.024-0.461 0.043-0.61 0.067-0.32 0.043-0.574 0.05-0.769 0.031-0.192-0.02-0.383-0.02-0.575 0-0.425 0.043-0.746 0.117-0.961 0.222-0.363 0.153-0.554 0.239-0.574 0.258-0.215 0.129-0.344 0.278-0.387 0.449-0.167 0.446-0.074 0.821 0.29 1.118 0.234 0.172 0.566 0.257 0.992 0.257 0.215 0 0.406-0.074 0.578-0.222 0.148-0.153 0.199-0.313 0.156-0.481-0.019-0.129-0.148-0.234-0.383-0.32-0.211-0.109-0.371-0.117-0.48-0.031-0.168 0.125-0.168 0.234 0 0.316 0.086 0.067 0.129 0.067 0.129 0v-0.16c0.215 0 0.351 0.043 0.418 0.129 0.082 0.148 0.05 0.277-0.098 0.387-0.363 0.168-0.672 0.16-0.93-0.035-0.277-0.211-0.414-0.415-0.414-0.606 0-0.277 0.18-0.504 0.543-0.672 0.684-0.277 1.258-0.418 1.731-0.418l0.992 0.031c0.34 0.024 0.863 0.079 1.566 0.161 0.02-0.063 0-0.149-0.062-0.254l-0.707-0.289z" inkscape:connector-curvature="0"></path> <path id="path140" style="fill-rule:evenodd;fill:#c48063" d="m8.191 8.993 0.352-0.066 0.227-0.125-0.29-0.067-0.289 0.258z" inkscape:connector-curvature="0"></path> <path id="path142" style="fill-rule:evenodd;fill:#c48063" d="m7.777 8.606 0.192-0.062c-0.469-0.129-0.707-0.117-0.707 0.031 0.215 0.043 0.386 0.055 0.515 0.031z" inkscape:connector-curvature="0"></path> <path id="path144" style="fill-rule:evenodd;fill:#c48063" d="m6.398 8.641c-0.105 0.02-0.265 0.094-0.476 0.223 0.148 0.063 0.402 0 0.766-0.191l-0.29-0.032z" inkscape:connector-curvature="0"></path> <path id="path146" style="fill-rule:evenodd;fill:#c48063" d="m4.641 8.927c-0.067 0.043-0.278 0.097-0.641 0.16 0.043 0 0.172 0.011 0.383 0.035 0.191 0 0.289-0.043 0.289-0.129l-0.031-0.066z" inkscape:connector-curvature="0"></path> <path id="path148" style="fill-rule:evenodd;fill:#c48063" d="m4.414 9.376c0 0.215 0.024 0.332 0.066 0.351 0.02-0.086 0.051-0.222 0.094-0.414l-0.16 0.063z" inkscape:connector-curvature="0"></path> <path id="path150" style="fill-rule:evenodd;fill:#c48063" d="m4.062 9.567c0 0.024-0.039 0.086-0.124 0.192-0.067 0.109-0.086 0.183-0.067 0.226 0.043 0.106 0.098 0.094 0.16-0.035 0.024-0.019 0.067-0.117 0.129-0.285l-0.098-0.098z" inkscape:connector-curvature="0"></path> <path id="path152" style="fill-rule:evenodd;fill:#c48063" d="m4.16 10.27c-0.019 0.11-0.012 0.27 0.031 0.481 0.067 0 0.098-0.106 0.098-0.32l-0.129-0.161z" inkscape:connector-curvature="0"></path> <path id="path154" style="fill-rule:evenodd;fill:#c48063" d="m4.703 10.751c0.129 0.023 0.277 0.097 0.449 0.226 0-0.043-0.074-0.117-0.222-0.226h-0.227z" inkscape:connector-curvature="0"></path> <path id="path156" style="fill-rule:evenodd;fill:#c48063" d="m5.922 10.466c0.168 0 0.308-0.121 0.414-0.356-0.02 0-0.137 0.035-0.352 0.098l-0.062 0.258z" inkscape:connector-curvature="0"></path> <path id="path158" style="fill-rule:evenodd;fill:#8f3c15" d="m5.855 10.048c0.063-0.192 0.024-0.289-0.128-0.289l-0.032 0.226 0.16 0.063z" inkscape:connector-curvature="0"></path> <path id="path160" style="fill-rule:evenodd;fill:#c48063" d="m5.504 10.497c0 0.086 0.074 0.129 0.223 0.129 0-0.195-0.008-0.301-0.032-0.32l-0.191 0.191z" inkscape:connector-curvature="0"></path> <path id="path162" style="fill-rule:evenodd;fill:#c48063" d="m4.801 10.528c0.105 0.106 0.277 0.098 0.511-0.031-0.32-0.109-0.535-0.129-0.64-0.066l0.129 0.097z" inkscape:connector-curvature="0"></path> <path id="path164" style="fill-rule:evenodd;fill:#c48063" d="m4.32 10.208 0.289 0.031c-0.093-0.019-0.168-0.117-0.226-0.289l-0.063 0.258z" inkscape:connector-curvature="0"></path> <g id="g166"> <g id="g168"> <g id="g174"> <path id="path182" style="fill-rule:evenodd;fill:url(#linearGradient176)" d="m16.77 8.735c1.707 0.727 3.125 1.473 4.253 2.242 1.942 1.301 3.477 2.184 4.61 2.657 0.875 0.359 1.941 0.754 3.199 1.183 1.023 0.34 1.762 0.567 2.207 0.672l2.625 0.574 0.289 0.129c0.211 0.063 0.359 0.012 0.445-0.16 0.344-0.66 0.547-1.25 0.61-1.762 0.043-0.425 0.031-0.839-0.031-1.246-0.067-0.363-0.149-0.609-0.258-0.734-0.082-0.086-0.266-0.184-0.543-0.289l-0.414-0.16c-1.965 0.297-3.297 0.468-4 0.511-0.555 0.043-1.547-0.183-2.977-0.671-1.539-0.512-2.859-1.11-3.969-1.793-1.214-0.747-2.57-1.375-4.062-1.887-1.559-0.512-2.914-0.77-4.066-0.77-0.766 0-1.973 0.184-3.618 0.543-1.578 0.321-2.718 0.473-3.422 0.449-2.644-0.085-4.394-0.425-5.25-1.023-1.214-0.918-1.757-1.855-1.628-2.816 0.062-0.532 0.351-0.895 0.863-1.086 0.383-0.172 0.765-0.215 1.152-0.129 0.297 0.086 0.488 0.246 0.574 0.48 0.067 0.254-0.043 0.414-0.32 0.481-0.234 0.039-0.437 0.039-0.605 0-0.153-0.086-0.258-0.129-0.321-0.129-0.148-0.024-0.269 0.043-0.351 0.191-0.11 0.149-0.012 0.246 0.285 0.289 0.449 0.063 0.769 0.082 0.961 0.063 0.297-0.043 0.5-0.203 0.609-0.481 0.106-0.32 0.074-0.64-0.097-0.961-0.149-0.339-0.407-0.554-0.766-0.636-0.363-0.086-0.789-0.043-1.281 0.125-0.512 0.191-0.875 0.461-1.09 0.8-0.254 0.383-0.36 0.864-0.321 1.442 0.067 0.598 0.278 1.16 0.641 1.695 0.387 0.555 1.016 1.035 1.891 1.442 0.894 0.445 1.824 0.714 2.781 0.796 2.625 0.215 4.738 0.161 6.336-0.16 2.113-0.425 3.797-0.383 5.059 0.129z" inkscape:connector-curvature="0"></path> </g> </g> </g> <path id="path184" style="fill-rule:evenodd;fill:#ebaa91" d="m29.824 12.673 0.223 0.351v-0.543c0.043-0.191 0.043-0.332 0-0.418-0.106-0.191-0.285-0.394-0.543-0.605-0.172-0.195-0.309-0.32-0.414-0.387 0.039 0.426 0.18 0.832 0.414 1.219l0.32 0.383z" inkscape:connector-curvature="0"></path> <path id="path186" style="fill-rule:evenodd;fill:#ebaa91" d="m30.91 12.513 0.547-0.129c0.063-0.192 0.02-0.371-0.129-0.543-0.062-0.067-0.203-0.141-0.418-0.227l-0.543-0.414c-0.254-0.129-0.34-0.098-0.254 0.098 0.039 0.105 0.211 0.371 0.512 0.797 0.168 0.195 0.266 0.332 0.285 0.418z" inkscape:connector-curvature="0"></path> <path id="path188" style="fill-rule:evenodd;fill:#ebaa91" d="m32.48 12.446 0.321 0.067c0.148-0.043 0.16-0.204 0.031-0.481-0.129-0.215-0.363-0.394-0.703-0.543-0.234-0.066-0.387-0.086-0.449-0.066 0.023 0.086 0.105 0.203 0.258 0.351l0.285 0.289c0.152 0.172 0.234 0.301 0.257 0.383z" inkscape:connector-curvature="0"></path> <path id="path190" style="fill-rule:evenodd;fill:#ebaa91" d="m31.84 13.153c0.148 0.125 0.418 0.235 0.801 0.32 0.129 0 0.203-0.035 0.222-0.097 0.067-0.215 0.032-0.32-0.093-0.32v-0.192l-0.512-0.098c-0.43-0.105-0.75-0.148-0.961-0.125l0.543 0.512z" inkscape:connector-curvature="0"></path> <path id="path192" style="fill-rule:evenodd;fill:#ebaa91" d="m34.016 12.895h0.254c0.085-0.043 0.128-0.093 0.128-0.16 0-0.086-0.05-0.137-0.16-0.16l-0.605-0.285c-0.067-0.043-0.235-0.086-0.512-0.129l0.512 0.445c0.234 0.153 0.363 0.246 0.383 0.289z" inkscape:connector-curvature="0"></path> <path id="path194" style="fill-rule:evenodd;fill:#ebaa91" d="m34.078 12.29 0.289-0.098c0.024-0.234-0.043-0.375-0.191-0.418l-0.895-0.191c0.106 0.066 0.254 0.203 0.446 0.418 0.234 0.148 0.351 0.246 0.351 0.289z" inkscape:connector-curvature="0"></path> <path id="path196" style="fill-rule:evenodd;fill:#ebaa91" d="m35.039 13.473c-0.383-0.042-0.672-0.054-0.863-0.035-0.211 0-0.34 0.035-0.383 0.098 0.426 0.383 0.703 0.598 0.832 0.641l0.352 0.093c0.128-0.019 0.211-0.117 0.253-0.285 0.043-0.172 0.036-0.301-0.031-0.387l-0.16-0.125z" inkscape:connector-curvature="0"></path> <path id="path198" style="fill-rule:evenodd;fill:#ebaa91" d="m34.656 15.071c0.039-0.062 0.098-0.152 0.176-0.269-0.113-0.004-0.277 0.031-0.496 0.109l-0.961 0.191c0.086 0.11 0.246 0.184 0.48 0.227 0.235 0.019 0.415 0.012 0.543-0.031 0.11-0.043 0.196-0.117 0.258-0.227z" inkscape:connector-curvature="0"></path> <path id="path200" style="fill-rule:evenodd;fill:#ebaa91" d="m32.609 16.161c0.446 0.129 0.821 0.16 1.118 0.094 0.468-0.078 0.726-0.227 0.769-0.446-0.234-0.043-0.426-0.043-0.574 0l-1.313 0.352z" inkscape:connector-curvature="0"></path> <path id="path202" style="fill-rule:evenodd;fill:#ebaa91" d="m33.023 15.298c-0.32-0.024-0.628 0.019-0.925 0.125-0.301 0.129-0.598 0.226-0.899 0.289 0.067 0.043 0.172 0.062 0.321 0.062l0.609 0.098c0.426 0.043 0.672 0.062 0.734 0.062 0.278-0.039 0.418-0.211 0.418-0.511l-0.258-0.125z" inkscape:connector-curvature="0"></path> <path id="path204" style="fill-rule:evenodd;fill:#ebaa91" d="m32.703 13.856c-0.34-0.062-0.562-0.086-0.672-0.062l-0.511 0.156c-0.297 0.086-0.649 0.109-1.055 0.066l1.726 0.223c0.512 0.067 0.778 0.098 0.801 0.098 0.34-0.321 0.414-0.481 0.223-0.481h-0.512z" inkscape:connector-curvature="0"></path> <path id="path206" style="fill-rule:evenodd;fill:#ebaa91" d="m30.879 14.591c0.469 0.086 0.844 0.129 1.121 0.129 0.148 0 0.375-0.043 0.672-0.129h-1.793z" inkscape:connector-curvature="0"></path> <path id="path208" style="fill-rule:evenodd;fill:#ebaa91" d="m30.977 15.138c-0.067-0.043-0.227 0-0.481 0.125l-0.672 0.226c0.086 0.043 0.254 0.063 0.512 0.063 0.129 0.023 0.301 0.011 0.512-0.032 0.129-0.023 0.222-0.062 0.289-0.129 0.062-0.085 0.051-0.171-0.032-0.253h-0.128z" inkscape:connector-curvature="0"></path> <path id="path210" style="fill-rule:evenodd;fill:#ebaa91" d="m28.512 14.688c-0.129 0-0.203 0.012-0.223 0.032 0.277 0.086 0.598 0.16 0.957 0.222 0.559 0.086 0.832 0.043 0.832-0.125l-1.566-0.129z" inkscape:connector-curvature="0"></path> <path id="path212" style="fill-rule:evenodd;fill:#ebaa91" d="m28.801 14.306c-0.149-0.024-0.383-0.012-0.703 0.031-0.254 0.054-0.461 0.074-0.625 0.062l1.007 0.098c0.063 0 0.149 0.012 0.254 0.031 0.129 0.02 0.215 0.012 0.258-0.031l0.098-0.129-0.289-0.062z" inkscape:connector-curvature="0"></path> <path id="path214" style="fill-rule:evenodd;fill:#ebaa91" d="m30.113 14.145 0.223 0.032c0.148 0 0.148-0.075 0-0.227-0.172-0.148-0.438-0.223-0.801-0.223-0.062 0.172 0.129 0.309 0.578 0.418z" inkscape:connector-curvature="0"></path> <path id="path216" style="fill-rule:evenodd;fill:#ebaa91" d="m30.273 13.376 0.125 0.191c0.129 0 0.153-0.086 0.067-0.254-0.11 0-0.172 0.02-0.192 0.063z" inkscape:connector-curvature="0"></path> <path id="path218" style="fill-rule:evenodd;fill:#ebaa91" d="m25.984 13.247-0.257 0.031-0.606 0.16c-0.207 0.059-0.465 0.059-0.769 0 0.164 0.047 0.375 0.141 0.64 0.289 0.02 0 0.203 0.032 0.543 0.098 0.512 0.106 0.77 0.043 0.77-0.191l-0.321-0.387z" inkscape:connector-curvature="0"></path> <path id="path220" style="fill-rule:evenodd;fill:#ebaa91" d="m24.449 12.446c-0.707-0.105-1.238-0.168-1.601-0.191 0.062 0.066 0.222 0.148 0.48 0.258l0.672 0.351c0.531 0.215 0.789 0.203 0.77-0.031l-0.321-0.387z" inkscape:connector-curvature="0"></path> <path id="path222" style="fill-rule:evenodd;fill:#ebaa91" d="m22.656 11.774c-0.066-0.062-0.203-0.093-0.418-0.093l-0.543-0.161c-0.383-0.062-0.629-0.074-0.734-0.031 0.254 0.063 0.629 0.16 1.117 0.285 0.043 0 0.184 0.043 0.418 0.129 0.192 0.067 0.289 0.031 0.289-0.094l-0.129-0.035z" inkscape:connector-curvature="0"></path> <path id="path224" style="fill-rule:evenodd;fill:#ebaa91" d="m22.496 11.298 0.129-0.227c-0.023-0.297-0.227-0.512-0.609-0.64-0.45-0.086-0.758-0.149-0.93-0.192l0.195 0.129 0.383 0.32c0.32 0.278 0.598 0.481 0.832 0.61z" inkscape:connector-curvature="0"></path> <path id="path226" style="fill-rule:evenodd;fill:#ebaa91" d="m23.84 11.2c-0.215-0.129-0.34-0.215-0.383-0.258l-0.387-0.094c0.215 0.192 0.332 0.364 0.356 0.512l0.16 0.16c0.23-0.086 0.316-0.191 0.254-0.32z" inkscape:connector-curvature="0"></path> <path id="path228" style="fill-rule:evenodd;fill:#ebaa91" d="m23.07 11.583 0.832 0.387c0.301 0.082 0.524 0.125 0.672 0.125 0.153 0.023 0.27-0.082 0.356-0.321l-0.129-0.093c-0.149-0.067-0.246-0.149-0.289-0.258l-0.321 0.351-1.121-0.191z" inkscape:connector-curvature="0"></path> <path id="path230" style="fill-rule:evenodd;fill:#ebaa91" d="m24.672 11.552 0.16 0.031c0.02-0.149-0.023-0.297-0.129-0.445-0.148-0.153-0.254-0.27-0.32-0.356-0.043-0.062-0.074-0.18-0.094-0.351-0.023-0.168-0.055-0.286-0.098-0.352l-0.253-0.481c-0.043-0.082-0.086-0.136-0.129-0.16-0.024 0.321 0.105 0.739 0.382 1.25 0.067 0.192 0.098 0.297 0.098 0.321l0.383 0.543z" inkscape:connector-curvature="0"></path> <path id="path232" style="fill-rule:evenodd;fill:#ebaa91" d="m23.391 10.466 0.32 0.093c-0.043-0.406-0.18-0.722-0.414-0.961-0.258-0.253-0.438-0.371-0.543-0.351-0.024 0.066 0.019 0.16 0.125 0.289 0.109 0.172 0.172 0.277 0.191 0.32l0.289 0.45c0.043 0.062 0.055 0.117 0.032 0.16z" inkscape:connector-curvature="0"></path> <path id="path234" style="fill-rule:evenodd;fill:#ebaa91" d="m22.785 10.27v-0.254c0.02-0.148-0.074-0.296-0.289-0.449-0.258-0.277-0.5-0.445-0.734-0.511 0.043 0.066 0.234 0.277 0.574 0.64l0.258 0.254c0.105 0.129 0.168 0.238 0.191 0.32z" inkscape:connector-curvature="0"></path> <path id="path236" style="fill-rule:evenodd;fill:#ebaa91" d="m21.215 9.376 0.066 0.129c0.043-0.149-0.035-0.383-0.226-0.703-0.192-0.258-0.426-0.461-0.703-0.61 0.128 0.086 0.277 0.278 0.449 0.574 0.148 0.301 0.289 0.504 0.414 0.61z" inkscape:connector-curvature="0"></path> <path id="path238" style="fill-rule:evenodd;fill:#ebaa91" d="m20.223 8.704h0.129c0.043-0.215-0.063-0.383-0.321-0.512l0.192 0.512z" inkscape:connector-curvature="0"></path> <path id="path240" style="fill-rule:evenodd;fill:#ebaa91" d="m20.062 9.759c0.129 0.023 0.247 0.011 0.356-0.032 0.125-0.043 0.191-0.074 0.191-0.093 0.039-0.024 0.039-0.078 0-0.161l-0.32-0.035c-0.234-0.039-0.406-0.05-0.512-0.031-0.414 0.043-0.664 0.063-0.754 0.066 0.25 0 0.598 0.098 1.039 0.286z" inkscape:connector-curvature="0"></path> <path id="path242" style="fill-rule:evenodd;fill:#ebaa91" d="m20.289 10.591c0.191 0 0.309-0.051 0.352-0.16 0.062-0.106 0.062-0.18 0-0.223l-0.289-0.129c-0.106 0-0.254 0.074-0.45 0.227-0.148 0.148-0.34 0.222-0.574 0.222 0.02 0.043 0.117 0.063 0.289 0.063 0.211 0.043 0.438 0.043 0.672 0z" inkscape:connector-curvature="0"></path> <path id="path244" style="fill-rule:evenodd;fill:#ebaa91" d="m21.375 10.782c-0.211-0.039-0.555 0.012-1.023 0.16 0.019 0.043 0.086 0.067 0.191 0.067l0.641 0.129c0.214 0.043 0.363 0.019 0.449-0.067 0.082-0.129 0.062-0.203-0.067-0.223l-0.191-0.066z" inkscape:connector-curvature="0"></path> <path id="path246" style="fill-rule:evenodd;fill:#ebaa91" d="m19.23 9.759c-0.191-0.039-0.476 0.035-0.863 0.226l0.672-0.035c0.32 0.066 0.492 0.098 0.512 0.098l0.035-0.129-0.356-0.16z" inkscape:connector-curvature="0"></path> <path id="path248" style="fill-rule:evenodd;fill:#ebaa91" d="m18.465 8.032 0.48 0.129c0.039-0.148-0.066-0.277-0.32-0.387-0.43-0.125-0.738-0.199-0.93-0.222 0.383 0.086 0.641 0.246 0.77 0.48z" inkscape:connector-curvature="0"></path> <path id="path250" style="fill-rule:evenodd;fill:#ebaa91" d="m16.543 7.809 0.191-0.035c0.024-0.191-0.05-0.34-0.222-0.445-0.254-0.191-0.5-0.258-0.735-0.191 0.446 0.21 0.703 0.437 0.766 0.671z" inkscape:connector-curvature="0"></path> <path id="path252" style="fill-rule:evenodd;fill:#ebaa91" d="m15.84 8.063c-0.149-0.043-0.363 0.012-0.641 0.16-0.277 0.141-0.488 0.204-0.64 0.192 0.433 0.043 0.765 0.055 0.992 0.031 0.148-0.019 0.308-0.094 0.48-0.223l-0.031-0.062-0.16-0.098z" inkscape:connector-curvature="0"></path> <path id="path254" style="fill-rule:evenodd;fill:#ebaa91" d="m15.199 7.774 0.289 0.098c0.106-0.063 0.129-0.129 0.063-0.191-0.063-0.067-0.137-0.106-0.223-0.129l-0.609-0.321-0.383-0.062 0.418 0.254c0.039 0.023 0.125 0.074 0.254 0.16 0.105 0.066 0.172 0.129 0.191 0.191z" inkscape:connector-curvature="0"></path> <path id="path256" style="fill-rule:evenodd;fill:#ebaa91" d="m13.922 7.489c-0.067-0.109-0.203-0.183-0.418-0.226-0.277-0.082-0.512-0.118-0.703-0.094 0.234 0.086 0.371 0.16 0.414 0.222l0.258 0.192c0.129 0.066 0.234 0.086 0.32 0.066 0.043 0 0.094-0.043 0.16-0.129l-0.031-0.031z" inkscape:connector-curvature="0"></path> <path id="path258" style="fill-rule:evenodd;fill:#ebaa91" d="m14.207 7.36 0.258-0.16-0.289-0.191h-0.16c-0.235-0.067-0.383-0.086-0.45-0.067l0.418 0.289c0.149 0 0.223 0.043 0.223 0.129z" inkscape:connector-curvature="0"></path> <path id="path260" style="fill-rule:evenodd;fill:#ebaa91" d="m15.457 7.298 0.285 0.125c0.086-0.278-0.211-0.414-0.894-0.414 0.043 0.043 0.16 0.086 0.351 0.129 0.149 0.043 0.235 0.093 0.258 0.16z" inkscape:connector-curvature="0"></path> <path id="path262" style="fill-rule:evenodd;fill:#ebaa91" d="m14.047 8.063-0.992 0.352c0.386 0.043 0.715 0.012 0.992-0.094l0.449-0.16c0.129-0.066 0.184-0.109 0.16-0.129 0-0.043-0.074-0.062-0.222-0.062-0.153 0-0.282 0.031-0.387 0.093z" inkscape:connector-curvature="0"></path> <path id="path264" style="fill-rule:evenodd;fill:#ebaa91" d="m11.742 7.489c0.207 0.039 0.41 0.113 0.61 0.223 0.128 0.062 0.277 0.097 0.449 0.097l0.031-0.066-0.098-0.094-0.992-0.16z" inkscape:connector-curvature="0"></path> <path id="path266" style="fill-rule:evenodd;fill:#ebaa91" d="m12.289 7.934-0.48 0.036c-0.114 0.015-0.223 0.015-0.336 0 0.168 0.031 0.398 0.093 0.687 0.191h0.32l0.032-0.258h-0.032l-0.191 0.031z" inkscape:connector-curvature="0"></path> <path id="path268" style="fill-rule:evenodd;fill:#ebaa91" d="m10.719 7.872 0.48 0.191c0.086-0.234-0.031-0.351-0.351-0.351-0.407-0.043-0.715-0.031-0.926 0.031 0.039 0.023 0.308 0.066 0.797 0.129z" inkscape:connector-curvature="0"></path> <path id="path270" style="fill-rule:evenodd;fill:#ebaa91" d="m11.23 8.575c0.043-0.043 0.067-0.117 0.067-0.223h-0.258l-0.414 0.063c-0.191 0.086-0.344 0.129-0.449 0.129l1.054 0.031z" inkscape:connector-curvature="0"></path> <path id="path272" style="fill-rule:evenodd;fill:#ebaa91" d="m13.121 8.095c-0.301 0.214-0.512 0.332-0.641 0.351 0.172 0.067 0.415 0.024 0.735-0.125 0.32-0.215 0.43-0.363 0.32-0.449l-0.414 0.223z" inkscape:connector-curvature="0"></path> <path id="path274" style="fill-rule:evenodd;fill:#ebaa91" d="m12 8.513c-0.277 0.148-0.492 0.234-0.641 0.253 0.278 0.043 0.481 0.036 0.61-0.031 0.211-0.105 0.332-0.203 0.351-0.289l-0.32 0.067z" inkscape:connector-curvature="0"></path> <path id="path276" style="fill-rule:evenodd;fill:#ebaa91" d="m9.633 8.223c-0.043-0.062-0.215-0.093-0.512-0.093-0.203 0-0.371-0.008-0.496-0.02 0.098 0.024 0.223 0.082 0.367 0.18l0.481 0.094c0.019 0 0.129-0.043 0.32-0.129l-0.16-0.032z" inkscape:connector-curvature="0"></path> <path id="path278" style="fill-rule:evenodd;fill:#ebaa91" d="m8.609 8.673c-0.129-0.024-0.277 0.043-0.449 0.191-0.215 0.192-0.375 0.289-0.48 0.289 0.769 0.063 1.164-0.109 1.183-0.512h-0.093l-0.161 0.032z" inkscape:connector-curvature="0"></path> <path id="path280" style="fill-rule:evenodd;fill:#ebaa91" d="m9.953 8.673c-0.129-0.024-0.332 0.105-0.609 0.383-0.192 0.148-0.321 0.222-0.383 0.222 0.254 0.067 0.531 0.024 0.832-0.125 0.148-0.043 0.246-0.148 0.285-0.32l-0.125-0.16z" inkscape:connector-curvature="0"></path> <path id="path282" style="fill-rule:evenodd;fill:#ebaa91" d="m8.094 8.239-0.032-0.016c-0.359-0.148-0.636-0.246-0.832-0.289l-0.894-0.125 0.574 0.192c0.11 0.043 0.27 0.117 0.481 0.222 0.109 0.043 0.246 0.067 0.418 0.067 0.144 0 0.242-0.02 0.285-0.051l0.097 0.016-0.062-0.063c-0.008 0.016-0.016 0.031-0.035 0.047z" inkscape:connector-curvature="0"></path> <path id="path284" style="fill-rule:evenodd;fill:#ebaa91" d="m7.105 8.384-0.417-0.032c-0.376 0.02-0.657 0.02-0.848 0 0.062 0.012 0.238 0.075 0.527 0.192 0.235 0.086 0.418 0.129 0.543 0.129 0.129 0 0.27-0.055 0.418-0.16 0.149-0.11 0.234-0.161 0.258-0.161l-0.481 0.032z" inkscape:connector-curvature="0"></path> <path id="path286" style="fill-rule:evenodd;fill:#ebaa91" d="m5.406 8.513c-0.168-0.043-0.371-0.024-0.605 0.062-0.363 0.109-0.567 0.16-0.61 0.16l0.961 0.192c0.086 0.023 0.192 0.011 0.321-0.032 0.148-0.043 0.234-0.117 0.254-0.222l-0.321-0.16z" inkscape:connector-curvature="0"></path> <path id="path288" style="fill-rule:evenodd;fill:#ebaa91" d="m4.16 7.841 0.574 0.289c0.153 0 0.204-0.043 0.161-0.129-0.02-0.067-0.094-0.098-0.223-0.098l-0.574-0.289c-0.301-0.191-0.481-0.285-0.547-0.285l0.387 0.383c0.191 0.086 0.265 0.129 0.222 0.129z" inkscape:connector-curvature="0"></path> <path id="path290" style="fill-rule:evenodd;fill:#ebaa91" d="m3.586 8.095c-0.535-0.063-0.93-0.125-1.188-0.192l0.641 0.387 0.449 0.094c0.043 0 0.117 0.011 0.223 0.031 0.109 0.023 0.184 0.012 0.227-0.031 0.105-0.106 0.105-0.18 0-0.223l-0.352-0.066z" inkscape:connector-curvature="0"></path> <path id="path292" style="fill-rule:evenodd;fill:#ebaa91" d="m2.367 7.329v0.094c0.043-0.278 0-0.5-0.129-0.672l-0.316-0.32c0 0.066 0.062 0.234 0.191 0.511 0.063 0.153 0.149 0.281 0.254 0.387z" inkscape:connector-curvature="0"></path> <path id="path294" style="fill-rule:evenodd;fill:#ebaa91" d="m1.441 7.298 0.223-0.067c0.02-0.086 0.012-0.148-0.031-0.191l-0.192-0.063c-0.277-0.129-0.535-0.171-0.769-0.129 0.043 0.063 0.18 0.149 0.418 0.254 0.234 0.11 0.351 0.172 0.351 0.196z" inkscape:connector-curvature="0"></path> <path id="path296" style="fill-rule:evenodd;fill:#ebaa91" d="m0.801 6.431-0.16-0.321c0.019-0.082-0.055-0.191-0.223-0.316-0.152-0.196-0.27-0.313-0.356-0.356 0 0.172 0.141 0.399 0.418 0.672 0.149 0.215 0.254 0.321 0.321 0.321z" inkscape:connector-curvature="0"></path> <path id="path298" style="fill-rule:evenodd;fill:#ebaa91" d="m0.93 5.888 0.254 0.449c0.062-0.449-0.012-0.832-0.223-1.153-0.043 0.106-0.055 0.223-0.031 0.352v0.352z" inkscape:connector-curvature="0"></path> <path id="path300" style="fill-rule:evenodd;fill:#ebaa91" d="m0.609 4.575 0.094 0.32c0.043-0.062 0.074-0.179 0.098-0.351 0.043-0.129 0.16-0.297 0.351-0.512-0.105-0.023-0.222 0.031-0.351 0.16-0.11 0.129-0.172 0.254-0.192 0.383z" inkscape:connector-curvature="0"></path> <path id="path302" style="fill-rule:evenodd;fill:#ebaa91" d="m0.961 3.583v0.191c0.086 0.024 0.172-0.008 0.254-0.093 0.086-0.067 0.226-0.106 0.418-0.129-0.086-0.043-0.203-0.063-0.352-0.063-0.172 0-0.277 0.031-0.32 0.094z" inkscape:connector-curvature="0"></path> <path id="path304" style="fill-rule:evenodd;fill:#ebaa91" d="m2.238 3.169-0.316-0.067-0.227 0.098 0.801 0.063-0.258-0.094z" inkscape:connector-curvature="0"></path> <path id="path306" style="fill-rule:evenodd;fill:#ebaa91" d="m2.879 3.169c0.086 0.019 0.141 0.094 0.16 0.222 0.023 0.172 0.031 0.29 0.031 0.352 0.153-0.426 0.153-0.641 0-0.641l-0.191 0.067z" inkscape:connector-curvature="0"></path> <path id="path308" style="fill-rule:evenodd;fill:#ebaa91" d="m3.07 4.095-0.605-0.063c0.211 0.106 0.371 0.16 0.48 0.16l0.125-0.097z" inkscape:connector-curvature="0"></path> <path id="path310" style="fill-rule:evenodd;fill:#ebaa91" d="m2.016 4.13c0-0.11-0.106-0.196-0.321-0.258 0.043 0.086 0.141 0.172 0.289 0.258h0.032z" inkscape:connector-curvature="0"></path> <path id="path312" style="fill-rule:evenodd;fill:#ebaa91" d="m1.953 4.321c-0.109-0.043-0.191-0.074-0.258-0.098-0.105-0.042-0.179-0.042-0.222 0 0.043 0.106 0.191 0.18 0.449 0.223 0.191 0.024 0.359 0.012 0.512-0.031l-0.098-0.063-0.383-0.031z" inkscape:connector-curvature="0"></path> <path id="path314" style="fill-rule:evenodd;fill:#ebaa91" d="m2.816 4.384c-0.214 0-0.406 0.086-0.578 0.257 0.086 0.043 0.227 0.051 0.418 0.032 0.172-0.024 0.297-0.067 0.383-0.129 0.063-0.02 0.106-0.098 0.129-0.223l-0.352 0.063z" inkscape:connector-curvature="0"></path> <path id="path316" style="fill-rule:evenodd;fill:#ebaa91" d="m3.52 4.255c0 0.215-0.032 0.363-0.094 0.449 0.125-0.02 0.211-0.16 0.254-0.414 0.062-0.406 0-0.602-0.192-0.578l-0.062 0.351 0.094 0.192z" inkscape:connector-curvature="0"></path> <path id="path318" style="fill-rule:evenodd;fill:#ebaa91" d="m3.328 2.88v0.222c0.02 0.043 0.106 0.11 0.258 0.196 0.148 0.062 0.242 0.086 0.285 0.062-0.234-0.277-0.414-0.437-0.543-0.48z" inkscape:connector-curvature="0"></path> <path id="path320" style="fill-rule:evenodd;fill:#ebaa91" d="m2.496 2.657h0.926c-0.02-0.086-0.18-0.148-0.477-0.191-0.281-0.024-0.441 0-0.48 0.062l0.031 0.129z" inkscape:connector-curvature="0"></path> <path id="path322" style="fill-rule:evenodd;fill:#ebaa91" d="m2.047 2.72-0.16-0.063-0.032 0.125c0.235 0.066 0.481 0.098 0.739 0.098-0.024-0.106-0.203-0.16-0.547-0.16z" inkscape:connector-curvature="0"></path> <path id="path324" style="fill-rule:evenodd;fill:#ebaa91" d="m1.406 2.528-0.125 0.223c0.149 0.023 0.297-0.051 0.446-0.223 0.043-0.043 0.195-0.14 0.449-0.289-0.172-0.086-0.426 0.012-0.77 0.289z" inkscape:connector-curvature="0"></path> <path id="path326" style="fill-rule:evenodd;fill:#ebaa91" d="m0.609 3.071 0.254-0.062c0.11-0.043 0.192-0.215 0.258-0.512l0.063-0.352c-0.278 0.34-0.469 0.649-0.575 0.926z" inkscape:connector-curvature="0"></path> <path id="path328" style="fill-rule:evenodd;fill:#ebaa91" d="m0.289 3.681 0.063 0.289c0.023-0.153 0.066-0.375 0.128-0.672l-0.097-0.289-0.094 0.672z" inkscape:connector-curvature="0"></path> <path id="path330" style="fill-rule:evenodd;fill:#ebaa91" d="m0.223 4.513 0.226 0.16c0.125-0.192 0.223-0.407 0.285-0.641 0.086-0.344 0.11-0.555 0.067-0.641-0.387 0.383-0.578 0.758-0.578 1.122z" inkscape:connector-curvature="0"></path> <path id="path332" style="fill-rule:evenodd;fill:#ebaa91" d="m0.223 4.673c0.043-0.192-0.032-0.309-0.223-0.352 0 0.063 0.117 0.297 0.352 0.703l0.191 0.254-0.32-0.605z" inkscape:connector-curvature="0"></path> <path id="path334" style="fill-rule:evenodd;fill:#8f3c15" d="m11.711 8.13 0.738 0.031c0.555-0.344 0.723-0.598 0.512-0.77-0.149-0.085-0.43-0.16-0.832-0.222-0.469-0.067-0.781-0.11-0.93-0.129-0.406-0.02-0.734-0.043-0.992-0.063-0.469-0.043-0.844-0.152-1.117-0.32-0.32-0.172-0.442-0.48-0.356-0.93 0.067-0.406 0.246-0.757 0.547-1.054 0.254-0.235 0.563-0.344 0.926-0.321 0.301 0.02 0.578 0.129 0.832 0.321 0.234 0.172 0.363 0.363 0.387 0.574 0.019 0.234-0.078 0.43-0.289 0.578-0.192 0.125-0.383 0.117-0.578-0.031l-0.254-0.227 0.191-0.191c0.106-0.172 0.16-0.32 0.16-0.449 0.024-0.125-0.031-0.161-0.16-0.094-0.172 0.148-0.297 0.254-0.383 0.32-0.148 0.106-0.183 0.309-0.097 0.606 0.062 0.3 0.203 0.48 0.418 0.547 0.191 0.039 0.445-0.012 0.765-0.161 0.344-0.172 0.567-0.351 0.672-0.547 0.129-0.253 0.067-0.593-0.191-1.023-0.321-0.488-0.778-0.734-1.375-0.734-0.641-0.024-1.172 0.191-1.602 0.64-0.383 0.403-0.574 0.832-0.574 1.278 0 0.406 0.117 0.769 0.351 1.089 0.254 0.34 0.555 0.5 0.895 0.481 0.277 0 0.652 0.051 1.121 0.16 0.406 0.106 0.641 0.16 0.703 0.16 0.172 0 0.344 0.16 0.512 0.481z" inkscape:connector-curvature="0"></path> <path id="path336" style="fill-rule:evenodd;fill:#c0a60b" d="m10.879 7.583c0.258 0.109 0.492 0.308 0.707 0.609l1.566-0.289 1.024-0.801c-0.063-0.211-0.492-0.32-1.281-0.32-0.383 0.024-0.672 0.024-0.864 0-0.129-0.039-0.222-0.062-0.289-0.062-0.082-0.02-0.156 0.011-0.222 0.097l0.128 0.254c-0.234-0.062-0.425-0.019-0.578 0.129 0 0.023 0.086 0.117 0.258 0.289-0.172-0.066-0.32-0.031-0.449 0.094z" inkscape:connector-curvature="0"></path> <path id="path338" style="fill-rule:evenodd;fill:#a7810e" d="m12.129 7.071c0.488-0.172 0.98 0 1.473 0.512l0.574-0.481c-0.063-0.211-0.492-0.32-1.281-0.32-0.383 0.024-0.672 0.024-0.864 0-0.129-0.039-0.222-0.062-0.289-0.062-0.082-0.02-0.156 0.011-0.222 0.097l0.066 0.094c0.254 0.043 0.434 0.098 0.543 0.16z" inkscape:connector-curvature="0"></path> <g id="g340"> <g id="g342"> <g id="g348"> <path id="path356" style="fill-rule:evenodd;fill:url(#linearGradient350)" d="m19.711 5.634c-0.02 0.914 0.246 1.769 0.801 2.558 0.468 0.703 1.004 1.184 1.601 1.442 0.723 0.297 1.801 1.066 3.231 2.3l1.023 0.641c0.149 0.043 0.461 0.098 0.93 0.16 0.488 0.067 0.808 0.086 0.961 0.067 1.258-0.172 1.98-0.504 2.176-0.993 0.082-0.234 0.05-0.461-0.098-0.671-0.191-0.258-0.481-0.321-0.863-0.196-0.469 0.129-1.078 0.035-1.825-0.285-0.769-0.406-1.281-0.652-1.535-0.738-0.449-0.192-1.015-0.531-1.695-1.024-0.813-0.574-1.391-1.086-1.73-1.535-0.383-0.512-0.5-1.121-0.352-1.824 0.129-0.727 0.523-1.344 1.184-1.855 1.066-0.813 2.57-0.864 4.511-0.161 1.176 0.426 1.164 1.375-0.031 2.848-0.363 0.426-0.727 0.652-1.09 0.672l-0.445-0.098 0.32-0.222c0.235-0.172 0.36-0.332 0.383-0.481 0.043-0.191-0.141-0.308-0.543-0.351-0.406-0.063-0.746 0.023-1.023 0.257-0.301 0.254-0.395 0.586-0.29 0.993 0.129 0.425 0.469 0.746 1.024 0.957 0.574 0.214 1.195 0.183 1.855-0.094 0.661-0.301 1.207-0.778 1.633-1.442 0.406-0.64 0.61-1.449 0.61-2.429-0.024-0.942-0.227-1.59-0.61-1.953-0.492-0.426-1.301-0.789-2.433-1.09-1.387-0.364-2.633-0.403-3.743-0.125-1.195 0.297-2.164 0.914-2.914 1.855-0.679 0.875-1.023 1.813-1.023 2.817z" inkscape:connector-curvature="0"></path> </g> </g> </g> <path id="path358" style="fill-rule:evenodd;fill:#fff76c" d="m25.535 12.575 0.258 0.289c0.277-0.148 0.637-0.141 1.086 0.031 0.555 0.215 0.918 0.321 1.09 0.321 0.789 0 1.48-0.203 2.078-0.61 0.383-0.234 0.617-0.457 0.703-0.672 0.086-0.234 0.035-0.519-0.16-0.863-0.192-0.32-0.395-0.543-0.606-0.672-0.406-0.211-0.695-0.394-0.863-0.543 0.277 0.532 0.438 0.832 0.477 0.895l-1.344-0.254c-0.512-0.043-0.871-0.098-1.086-0.16-0.406-0.086-0.695-0.203-0.863-0.352-0.301-0.387-0.547-0.652-0.739-0.801-0.32-0.32-0.554-0.468-0.703-0.449 0.043 0.192 0.18 0.504 0.418 0.93 0.02 0.043 0.168 0.211 0.446 0.512 0.191 0.211 0.277 0.394 0.257 0.543l-0.64-0.321c-0.258-0.129-0.481-0.117-0.672 0.032 0.019 0.109 0.105 0.269 0.254 0.48 0.129 0.191 0.203 0.352 0.226 0.48-0.3-0.171-0.523-0.308-0.672-0.414-0.277-0.195-0.429-0.3-0.449-0.32-0.511-0.32-0.832-0.394-0.961-0.226 0.192 0.128 0.555 0.437 1.09 0.929 0.063 0.063 0.32 0.246 0.766 0.543 0.363 0.235 0.566 0.461 0.609 0.672z" inkscape:connector-curvature="0"></path> <path id="path360" style="fill-rule:evenodd;fill:#e1d801" d="m25.375 12.255 0.895 0.511c0.109 0 0.312 0.043 0.609 0.129-0.297-0.32-0.5-0.574-0.609-0.765l1.347 1.023 0.063 0.031 0.289 0.032 0.32-0.032-0.48-0.609c0.019-0.019 0.082 0 0.191 0.066l0.16 0.063 0.031 0.031 0.543 0.227 0.387 0.062 0.254-0.097-1.633-1.184c-0.34-0.234-0.586-0.371-0.734-0.414l-0.512-0.191c0.32 0.019 0.758 0.093 1.313 0.222 0.808 0.192 1.246 0.297 1.312 0.321l-0.226-0.129c-0.469-0.321-0.833-0.532-1.086-0.641l-0.641-0.254c-0.215-0.109-0.383-0.226-0.512-0.351l-0.289-0.29-0.129-0.066-0.191-0.191c-0.168-0.254-0.328-0.446-0.481-0.575l-0.191-0.16 0.191 0.414c0.239 0.321 0.407 0.578 0.512 0.77l0.387 0.64c-0.235 0.02-0.406 0.043-0.512 0.063-0.234-0.02-0.406 0-0.512 0.066-0.086 0.043-0.086 0.149 0 0.321l0.094 0.285c0.086 0.172 0.117 0.277 0.098 0.32l-0.512-0.289-1.09-0.734c-0.086-0.086-0.16-0.129-0.222-0.129-0.086 0-0.149 0.043-0.192 0.129l0.543 0.48c0.086 0.086 0.289 0.223 0.61 0.414 0.296 0.196 0.5 0.356 0.605 0.481z" inkscape:connector-curvature="0"></path> <g id="g362"> <g id="g364"> <g id="g370"> <path id="path378" style="fill-rule:evenodd;fill:url(#linearGradient372)" d="m25.535 12.575 0.258 0.289 0.129-0.062-0.449-0.387 0.062 0.16z" inkscape:connector-curvature="0"></path> </g> </g> </g> <path id="path380" style="fill-rule:evenodd;fill:#c0a60b" d="m25.922 12.802 0.351-0.036-0.898-0.511 0.098 0.16 0.449 0.387z" inkscape:connector-curvature="0"></path> <path id="path382" style="fill-rule:evenodd;fill:#c0a60b" d="m27.617 13.153-1.347-1.023c0.109 0.191 0.312 0.445 0.609 0.765l0.801 0.289-0.063-0.031z" inkscape:connector-curvature="0"></path> <path id="path384" style="fill-rule:evenodd;fill:#c0a60b" d="m29.121 9.856 0.32 0.641 0.414-0.16c-0.425-0.278-0.671-0.438-0.734-0.481z" inkscape:connector-curvature="0"></path> <path id="path386" style="fill-rule:evenodd;fill:#c0a60b" d="m29.375 12.927 0.289-0.125c-0.023-0.043-0.117-0.153-0.289-0.321-0.297-0.258-0.586-0.468-0.863-0.64 0.105 0.019 0.332 0.105 0.672 0.254 0.277 0.128 0.5 0.195 0.671 0.195 0.172 0 0.297-0.195 0.383-0.578 0.067-0.321-0.019-0.555-0.254-0.703l-0.769-0.321-0.961-0.191c-0.512-0.043-0.871-0.098-1.086-0.16-0.363-0.086-0.629-0.192-0.801-0.321l0.289 0.29c0.129 0.125 0.297 0.242 0.512 0.351l0.641 0.254c0.253 0.109 0.617 0.32 1.086 0.641l0.226 0.129c-0.066-0.024-0.504-0.129-1.312-0.321-0.555-0.129-0.993-0.203-1.313-0.222l0.512 0.191c0.148 0.043 0.394 0.18 0.734 0.414l1.633 1.184z" inkscape:connector-curvature="0"></path> <path id="path388" style="fill-rule:evenodd;fill:#78520a" d="m28.512 11.841c0.277 0.172 0.566 0.382 0.863 0.64 0.172 0.168 0.27 0.278 0.289 0.321l0.383-0.196c0.387-0.234 0.621-0.457 0.707-0.672 0.082-0.234 0.031-0.519-0.16-0.863-0.196-0.32-0.399-0.543-0.61-0.672l-0.129-0.062-0.414 0.16 0.161 0.254-0.387-0.063 0.769 0.321c0.235 0.148 0.321 0.382 0.254 0.703-0.082 0.383-0.211 0.578-0.383 0.578-0.171 0-0.394-0.067-0.671-0.195-0.34-0.149-0.567-0.235-0.672-0.254z" inkscape:connector-curvature="0"></path> <path id="path390" style="fill-rule:evenodd;fill:#ebaa91" d="m23.168 10.208 0.062-0.031c-0.042-0.11-0.117-0.172-0.222-0.192-0.063-0.023-0.18-0.012-0.352 0.031-0.32 0.086-0.597 0.192-0.832 0.321 0.02 0 0.106-0.024 0.254-0.067l0.449-0.062c0.149-0.02 0.364-0.02 0.641 0z" inkscape:connector-curvature="0"></path> <path id="path392" style="fill-rule:evenodd;fill:#ebaa91" d="m23.23 9.809v-0.273c-0.148-0.34-0.296-0.566-0.445-0.672-0.344-0.234-0.566-0.34-0.672-0.32 0.02 0.043 0.211 0.246 0.575 0.609 0.328 0.328 0.511 0.547 0.542 0.656z" inkscape:connector-curvature="0"></path> <path id="path394" style="fill-rule:evenodd;fill:#ebaa91" d="m23.969 9.024 0.734 0.672c-0.062-0.148-0.117-0.383-0.16-0.703-0.148-0.32-0.242-0.609-0.285-0.863 0-0.258-0.012-0.407-0.035-0.449-0.063 0.148-0.149 0.457-0.254 0.925v0.418z" inkscape:connector-curvature="0"></path> <path id="path396" style="fill-rule:evenodd;fill:#ebaa91" d="m23.84 9.634 0.512 0.382c-0.172-0.449-0.364-0.855-0.575-1.214-0.234-0.473-0.386-0.727-0.449-0.77-0.043 0.191-0.031 0.363 0.031 0.512 0.043 0.191 0.161 0.48 0.352 0.863l0.129 0.227z" inkscape:connector-curvature="0"></path> <path id="path398" style="fill-rule:evenodd;fill:#ebaa91" d="m23.07 7.423c-0.164-0.672-0.156-1.141 0.02-1.407-0.207 0.29-0.317 0.61-0.336 0.961-0.043 0.278-0.035 0.489 0.031 0.637l0.352 0.387c0.086-0.067 0.062-0.258-0.067-0.578z" inkscape:connector-curvature="0"></path> <path id="path400" style="fill-rule:evenodd;fill:#ebaa91" d="m20.48 6.688c-0.148 0-0.265-0.023-0.351-0.062 0.254 0.254 0.371 0.383 0.351 0.383l0.543 0.511c0.129 0.086 0.223 0.192 0.289 0.321l0.192 0.129c-0.02-0.282-0.215-0.598-0.574-0.961-0.153-0.149-0.301-0.258-0.45-0.321z" inkscape:connector-curvature="0"></path> <path id="path402" style="fill-rule:evenodd;fill:#ebaa91" d="m20.129 8.415 0.414 0.258c0.32 0.191 0.555 0.254 0.703 0.191-0.062-0.234-0.137-0.383-0.223-0.449l-0.093-0.094c-0.364-0.191-0.707-0.226-1.028-0.098l-0.285 0.129c0.133-0.043 0.305-0.023 0.512 0.063z" inkscape:connector-curvature="0"></path> <path id="path404" style="fill-rule:evenodd;fill:#ebaa91" d="m21.535 8.864c-0.426 0.106-0.726 0.215-0.894 0.32 0.019 0.02 0.179 0.032 0.48 0.032l0.574 0.222c0.129 0.067 0.203 0.043 0.227-0.062 0.019-0.106-0.024-0.18-0.129-0.223l-0.258-0.289z" inkscape:connector-curvature="0"></path> <path id="path406" style="fill-rule:evenodd;fill:#ebaa91" d="m19.777 6.466 0.223 0.16c-0.066-0.195-0.148-0.481-0.258-0.867-0.082-0.211-0.285-0.34-0.605-0.383-0.024 0.043 0.031 0.14 0.16 0.289 0.062 0.062 0.148 0.16 0.254 0.285l0.226 0.516z" inkscape:connector-curvature="0"></path> <path id="path408" style="fill-rule:evenodd;fill:#ebaa91" d="m19.809 4.802 0.222 0.222c-0.086-0.172-0.136-0.449-0.16-0.832-0.172-0.469-0.34-0.734-0.512-0.801l0.258 0.704c0.043 0.32 0.106 0.554 0.192 0.707z" inkscape:connector-curvature="0"></path> <path id="path410" style="fill-rule:evenodd;fill:#ebaa91" d="m20.543 5.536 0.258 0.449c0.086-0.023 0.148-0.086 0.191-0.191l-0.062-0.418c0-0.02-0.067-0.223-0.196-0.61-0.105-0.234-0.148-0.437-0.125-0.605-0.234 0.426-0.257 0.883-0.066 1.375z" inkscape:connector-curvature="0"></path> <path id="path412" style="fill-rule:evenodd;fill:#ebaa91" d="m21.09 6.27 0.316 0.387c0.024 0 0.067 0.063 0.129 0.191 0.043 0.063 0.11 0.086 0.192 0.063 0.085-0.063 0.109-0.191 0.066-0.383l-0.031-0.351c0-0.129-0.024-0.309-0.067-0.543l0.227-0.61c-0.215 0.043-0.43 0.278-0.641 0.703-0.086 0.11-0.14 0.235-0.16 0.383l-0.031 0.16z" inkscape:connector-curvature="0"></path> <path id="path414" style="fill-rule:evenodd;fill:#ebaa91" d="m22.398 7.36 0.036-0.64 0.16-0.993c-0.364 0.34-0.535 0.696-0.516 1.055l0.32 0.578z" inkscape:connector-curvature="0"></path> <path id="path416" style="fill-rule:evenodd;fill:#ebaa91" d="m22.273 4.962 0.192 0.414c0.105-0.278 0.211-0.457 0.32-0.543 0.297-0.301 0.531-0.492 0.703-0.578-0.062-0.02-0.191-0.008-0.383 0.035-0.3 0.125-0.468 0.199-0.511 0.223-0.153 0.128-0.258 0.277-0.321 0.449z" inkscape:connector-curvature="0"></path> <path id="path418" style="fill-rule:evenodd;fill:#ebaa91" d="m20.48 3.2-0.062 0.641c0.277-0.215 0.394-0.524 0.352-0.93 0-0.406-0.11-0.672-0.321-0.801 0.043 0.258 0.063 0.438 0.063 0.547-0.086 0.234-0.098 0.414-0.032 0.543z" inkscape:connector-curvature="0"></path> <path id="path420" style="fill-rule:evenodd;fill:#ebaa91" d="m21.055 3.712-0.032 0.511c0.063 0.129 0.192 0.106 0.383-0.062 0.149-0.129 0.258-0.258 0.321-0.387 0.085-0.148 0.191-0.426 0.32-0.832 0.129-0.359 0.191-0.562 0.191-0.605-0.679 0.511-1.074 0.969-1.183 1.375z" inkscape:connector-curvature="0"></path> <path id="path422" style="fill-rule:evenodd;fill:#ebaa91" d="m21.762 4.192 0.222 0.192c0.34-0.129 0.555-0.246 0.641-0.352 0.043-0.062 0.117-0.191 0.223-0.383 0.062-0.152 0.136-0.258 0.222-0.32l-0.832 0.414-0.316 0.32c-0.024 0.086-0.078 0.129-0.16 0.129z" inkscape:connector-curvature="0"></path> <path id="path424" style="fill-rule:evenodd;fill:#ebaa91" d="m21.441 2.048 0.321-0.098c0.234-0.191 0.371-0.328 0.414-0.414l0.062-0.289v-0.641c-0.062 0.086-0.117 0.215-0.16 0.387-0.062 0.211-0.113 0.359-0.156 0.445-0.258 0.387-0.418 0.59-0.481 0.61z" inkscape:connector-curvature="0"></path> <path id="path426" style="fill-rule:evenodd;fill:#ebaa91" d="m22.625 1.727-0.098 0.258c0.344-0.066 0.524-0.097 0.543-0.097 0.11-0.02 0.227-0.094 0.356-0.223 0.34-0.387 0.519-0.727 0.543-1.024-0.321 0.278-0.543 0.446-0.672 0.512-0.449 0.297-0.672 0.488-0.672 0.574z" inkscape:connector-curvature="0"></path> <path id="path428" style="fill-rule:evenodd;fill:#ebaa91" d="m22.656 2.528-0.097 0.574c0.086 0.043 0.246-0.007 0.48-0.16l0.578-0.383c0.106-0.086 0.254-0.253 0.445-0.511 0.149-0.235 0.29-0.395 0.418-0.481l-0.863 0.383c-0.449 0.32-0.769 0.516-0.961 0.578z" inkscape:connector-curvature="0"></path> <path id="path430" style="fill-rule:evenodd;fill:#ebaa91" d="m23.391 3.52c-0.086 0.02-0.106 0.075-0.063 0.161 0.02 0.085 0.063 0.136 0.129 0.16 0.043 0.019 0.191-0.012 0.445-0.098l0.672-0.254c0.129-0.043 0.344-0.109 0.641-0.191-0.02-0.067-0.106-0.117-0.254-0.16-0.172-0.024-0.277-0.036-0.32-0.036l-0.579-0.093c-0.359 0-0.554 0.086-0.574 0.254l-0.097 0.257z" inkscape:connector-curvature="0"></path> <path id="path432" style="fill-rule:evenodd;fill:#ebaa91" d="m24.223 1.247 0.289 0.226c0.34-0.128 0.578-0.269 0.703-0.417 0.277-0.297 0.351-0.653 0.226-1.055-0.171 0.277-0.3 0.469-0.386 0.574-0.489 0.234-0.766 0.461-0.832 0.672z" inkscape:connector-curvature="0"></path> <path id="path434" style="fill-rule:evenodd;fill:#ebaa91" d="m24.703 2.368-0.094 0.063c0.039 0.195 0.309 0.257 0.797 0.195 0.086-0.024 0.258-0.043 0.516-0.067 0.234-0.019 0.402-0.062 0.512-0.128-0.024-0.063-0.129-0.125-0.321-0.192-0.172-0.062-0.301-0.094-0.386-0.094-0.446-0.086-0.789-0.011-1.024 0.223z" inkscape:connector-curvature="0"></path> <path id="path436" style="fill-rule:evenodd;fill:#ebaa91" d="m26.945 3.458 0.094-0.035c-0.129-0.192-0.32-0.328-0.574-0.414-0.301-0.11-0.449-0.098-0.449 0.031-0.02 0.105 0.14 0.203 0.48 0.289l0.449 0.129z" inkscape:connector-curvature="0"></path> <path id="path438" style="fill-rule:evenodd;fill:#ebaa91" d="m25.953 1.184-0.801 0.61 0.414-0.035c0.172 0 0.344-0.051 0.512-0.161 0.129-0.039 0.313-0.136 0.547-0.285 0.148-0.129 0.266-0.257 0.352-0.386 0.085-0.082 0.105-0.192 0.062-0.321-0.148 0.024-0.328 0.11-0.543 0.258-0.258 0.172-0.437 0.277-0.543 0.32z" inkscape:connector-curvature="0"></path> <path id="path440" style="fill-rule:evenodd;fill:#ebaa91" d="m27.039 1.825-0.191 0.16c0.023 0.082 0.148 0.106 0.382 0.063 0.11 0 0.29-0.043 0.547-0.129 0.575-0.211 0.907-0.446 0.993-0.703l-0.641 0.257c-0.535 0.083-0.906 0.192-1.121 0.321l0.031 0.031z" inkscape:connector-curvature="0"></path> <path id="path442" style="fill-rule:evenodd;fill:#ebaa91" d="m27.84 1.184 0.383-0.527c-0.035 0.039-0.121 0.098-0.254 0.176l-0.703 0.254-0.289 0.386 0.449-0.097c0.168-0.043 0.308-0.106 0.414-0.192z" inkscape:connector-curvature="0"></path> <path id="path444" style="fill-rule:evenodd;fill:#ebaa91" d="m26.848 2.688 0.16 0.321 0.32 0.16 0.098 0.094 0.062 0.035c0.063 0.043 0.192 0.16 0.383 0.351-0.043-0.343-0.18-0.609-0.414-0.801-0.234-0.277-0.437-0.332-0.609-0.16z" inkscape:connector-curvature="0"></path> <path id="path446" style="fill-rule:evenodd;fill:#ebaa91" d="m28.16 2.431 0.129 0.16c0.234 0.086 0.543 0.054 0.926-0.094 0.109-0.066 0.246-0.184 0.418-0.352-0.321 0.149-0.813 0.243-1.473 0.286z" inkscape:connector-curvature="0"></path> <path id="path448" style="fill-rule:evenodd;fill:#ebaa91" d="m28.832 1.759-0.129 0.191c0.129-0.019 0.301-0.039 0.512-0.062l0.289-0.094c0.301-0.196 0.48-0.332 0.543-0.418-0.082-0.043-0.285 0.023-0.606 0.191l-0.609 0.192z" inkscape:connector-curvature="0"></path> <path id="path450" style="fill-rule:evenodd;fill:#ebaa91" d="m29.664 2.559 0.191 0.418c0.086 0.043 0.223 0.063 0.418 0.063 0.192 0.023 0.321 0.012 0.383-0.031 0-0.067-0.086-0.118-0.258-0.161-0.21-0.128-0.359-0.246-0.445-0.351-0.086-0.129-0.16-0.184-0.226-0.16-0.043 0.019-0.075 0.051-0.094 0.094 0 0.042 0.008 0.085 0.031 0.128z" inkscape:connector-curvature="0"></path> <path id="path452" style="fill-rule:evenodd;fill:#ebaa91" d="m30.078 4.192 0.578 1.153c-0.043-0.684-0.191-1.258-0.449-1.731-0.234 0.024-0.277 0.215-0.129 0.578z" inkscape:connector-curvature="0"></path> <path id="path454" style="fill-rule:evenodd;fill:#ebaa91" d="m29.887 5.634 0.129 1.086c0.234-0.297 0.3-0.661 0.191-1.086 0-0.153-0.043-0.27-0.129-0.356-0.062-0.082-0.105-0.062-0.125 0.067 0 0.171-0.023 0.265-0.066 0.289z" inkscape:connector-curvature="0"></path> <path id="path456" style="fill-rule:evenodd;fill:#ebaa91" d="m29.281 6.751-0.066 0.832c0.469-0.254 0.621-0.574 0.449-0.957-0.105-0.238-0.234-0.195-0.383 0.125z" inkscape:connector-curvature="0"></path> <path id="path458" style="fill-rule:evenodd;fill:#ebaa91" d="m28.832 4.481-0.191 1.184 0.382-0.578 0.161-0.446-0.094-0.289c-0.086-0.191-0.184-0.257-0.289-0.191l0.031 0.32z" inkscape:connector-curvature="0"></path> <path id="path460" style="fill-rule:evenodd;fill:#ebaa91" d="m28.77 6.016-0.418 1.086c0.769-0.597 1.035-1.066 0.8-1.406-0.062 0.024-0.191 0.129-0.382 0.32z" inkscape:connector-curvature="0"></path> <path id="path462" style="fill-rule:evenodd;fill:#ebaa91" d="m29.215 3.743 0.418 0.898c0.019-0.3-0.035-0.578-0.16-0.832-0.172-0.363-0.278-0.546-0.321-0.546-0.129-0.04-0.148 0.035-0.066 0.226 0.109 0.168 0.152 0.254 0.129 0.254z" inkscape:connector-curvature="0"></path> <path id="path464" style="fill-rule:evenodd;fill:#ebaa91" d="m27.742 6.977-1.344 0.414c0.512 0.106 0.93 0.075 1.25-0.093 0.297-0.153 0.426-0.278 0.383-0.387-0.062-0.086-0.16-0.063-0.289 0.066z" inkscape:connector-curvature="0"></path> <path id="path466" style="fill-rule:evenodd;fill:#ebaa91" d="m27.809 7.681-1.024 0.32c0.34 0.086 0.641 0.094 0.895 0.031l0.449-0.223c0.019-0.086-0.012-0.14-0.098-0.16-0.062-0.023-0.136-0.011-0.222 0.032z" inkscape:connector-curvature="0"></path> <path id="path468" style="fill-rule:evenodd;fill:#ebaa91" d="m26.176 7.809-0.063-0.16-0.258 0.094c-0.234 0.043-0.437-0.02-0.609-0.191 0.066 0.129 0.203 0.246 0.418 0.351 0.148 0.043 0.32 0.012 0.512-0.094z" inkscape:connector-curvature="0"></path> <path id="path470" style="fill-rule:evenodd;fill:#ebaa91" d="m25.441 7.071 0.125-0.16c-0.019 0-0.234-0.137-0.636-0.414 0.062 0.191 0.234 0.383 0.511 0.574z" inkscape:connector-curvature="0"></path> <path id="path472" style="fill-rule:evenodd;fill:#ebaa91" d="m25.633 6.626v-0.035c0.105-0.125 0.137-0.235 0.094-0.321-0.063-0.32-0.094-0.488-0.094-0.511-0.086 0.023-0.129 0.203-0.129 0.547 0 0.148 0.043 0.253 0.129 0.32z" inkscape:connector-curvature="0"></path> <path id="path474" style="fill-rule:evenodd;fill:#ebaa91" d="m25.887 6.399 0.351-0.222c0.043-0.067 0.121-0.215 0.227-0.45 0.039-0.074 0.082-0.132 0.129-0.175-0.508 0.324-0.742 0.605-0.707 0.847z" inkscape:connector-curvature="0"></path> <path id="path476" style="fill-rule:evenodd;fill:#ebaa91" d="m26.398 6.239 0.196 0.258 0.765-0.77c-0.129-0.019-0.297 0.032-0.511 0.161-0.215 0.105-0.364 0.222-0.45 0.351z" inkscape:connector-curvature="0"></path> <path id="path478" style="fill-rule:evenodd;fill:#ebaa91" d="m26.496 6.72-0.383-0.094c-0.152 0.062-0.203 0.156-0.16 0.285 0.02 0.129 0.106 0.191 0.254 0.191 0.148 0.024 0.32-0.039 0.512-0.191l0.32-0.16c0.086-0.106 0.055-0.16-0.094-0.16-0.086-0.02-0.234 0.023-0.449 0.129z" inkscape:connector-curvature="0"></path> <g id="g480"> <g id="g482"> <g id="g488"> <path id="path496" style="fill-rule:evenodd;fill:url(#linearGradient490)" d="m9.922 11.743c-0.516 0.746-0.61 1.613-0.289 2.594 0.406 1.258 1.555 1.855 3.457 1.793 1.875-0.067 3.027-0.524 3.453-1.379 0.32-0.598 0.309-1.098-0.031-1.504-0.789-0.875-1.602-1.313-2.434-1.313-0.574 0.024-1.012 0.172-1.308 0.45-0.129 0.129-0.301 0.406-0.512 0.832-0.129 0.234 0.019 0.461 0.445 0.672 0.406 0.191 0.77 0.246 1.09 0.16 0.277-0.086 0.469-0.192 0.574-0.321 0.086-0.129 0.055-0.211-0.094-0.254-0.085-0.042-0.203-0.023-0.351 0.063-0.172 0.086-0.301 0.117-0.387 0.098-0.445-0.067-0.672-0.196-0.672-0.387 0-0.34 0.192-0.543 0.578-0.606 0.747-0.066 1.247 0.032 1.504 0.286 0.106 0.129 0.254 0.269 0.446 0.418 0.129 0.148 0.14 0.363 0.035 0.64-0.215 0.574-0.992 0.883-2.336 0.926-0.473 0.023-0.918-0.043-1.348-0.191-0.34-0.149-0.605-0.332-0.797-0.543-0.152-0.172-0.234-0.457-0.257-0.864-0.02-0.406 0.042-0.715 0.191-0.929 0.215-0.34 1.066-0.789 2.562-1.344 0.34-0.106 1.043-0.426 2.11-0.961-0.043-0.106-0.008-0.211 0.097-0.32 0.364-0.254 1.024-0.446 1.985-0.575l0.16-0.062 0.094 0.031h0.097v-0.031c-0.191-0.77-0.863-1.121-2.015-1.059-0.149 0.024-0.301 0.075-0.449 0.16-0.79 0.79-1.653 1.387-2.59 1.793-0.832 0.297-1.422 0.532-1.762 0.704-0.555 0.277-0.973 0.621-1.246 1.023z" inkscape:connector-curvature="0"></path> </g> </g> </g> <path id="path498" style="fill-rule:evenodd;fill:#e1d801" d="m18.078 8.384c-0.191-0.321-0.457-0.493-0.797-0.512l-1.183-0.098c-0.196 0-0.59 0.078-1.188 0.227l0.067 0.289c-0.086-0.024-0.215 0.051-0.383 0.223-0.239 0.234-0.364 0.351-0.387 0.351-0.254 0.215-0.457 0.352-0.605 0.414-0.278 0.086-0.461 0.195-0.547 0.32 0.086 0 0.32-0.05 0.707-0.16 0.297-0.062 0.531-0.082 0.703-0.062-0.129 0.062-0.235 0.16-0.32 0.289-0.086 0.191-0.149 0.328-0.192 0.414 0.063 0.023 0.199-0.031 0.414-0.16 0.211-0.106 0.348-0.188 0.418-0.254-0.086 0.086-0.129 0.269-0.129 0.543 0 0.215-0.062 0.437-0.191 0.672 0.172 0.043 0.406-0.086 0.703-0.383 0.469-0.43 0.801-0.695 0.992-0.801 0.449-0.215 0.82-0.363 1.121-0.449l0.926-0.063c0.043-0.363 0-0.628-0.129-0.8z" inkscape:connector-curvature="0"></path> <path id="path500" style="fill-rule:evenodd;fill:#c0a60b" d="m15.07 9.567-0.125 0.098-0.097 0.16-0.032 0.445c0.043-0.062 0.075-0.105 0.094-0.125 0.215-0.086 0.313-0.214 0.289-0.386-0.062-0.02-0.137-0.008-0.222 0.035 0.043-0.043 0.148-0.129 0.32-0.258l1.023-0.574c0.278-0.196 0.414-0.313 0.414-0.356-0.168 0.024-0.265 0-0.285-0.062l0.352-0.192 0.129-0.031v-0.226c-0.024-0.082-0.086-0.161-0.196-0.223l-0.191-0.063-0.445-0.035c-0.196 0-0.59 0.078-1.188 0.227l0.035 0.191c0.125-0.043 0.223-0.031 0.285 0.031 0.024 0.043 0.043 0.098 0.067 0.161h0.094c0.32 0 0.504 0.011 0.547 0.031 0.085 0.066 0.085 0.141 0 0.226-0.086 0.063-0.313 0.204-0.672 0.415-0.301 0.148-0.461 0.246-0.481 0.289l0.832-0.321 0.321-0.062c-0.153 0.082-0.258 0.16-0.321 0.222-0.258 0.149-0.437 0.278-0.547 0.383z" inkscape:connector-curvature="0"></path> <path id="path502" style="fill-rule:evenodd;fill:#a7810e" d="m14.785 10.497-0.031 0.062-0.129 0.321 0.094-0.063 0.867-0.929c0.039-0.043 0.223-0.172 0.543-0.383 0.363-0.278 0.617-0.449 0.766-0.512 0.257-0.129 0.394-0.227 0.417-0.289 0.02-0.172 0.012-0.395-0.031-0.672l-0.066-0.16-0.672-0.063 0.191 0.063c0.11 0.062 0.172 0.137 0.196 0.223v0.226l-0.129 0.031-0.352 0.192c0.02 0.062 0.117 0.086 0.285 0.062 0 0.043-0.136 0.16-0.414 0.356l-1.023 0.574c-0.172 0.129-0.277 0.215-0.32 0.258 0.085-0.043 0.16-0.055 0.222-0.035 0.024 0.172-0.074 0.3-0.289 0.386-0.019 0.02-0.051 0.063-0.094 0.125l-0.031 0.067v0.16z" inkscape:connector-curvature="0"></path> <path id="path504" style="fill-rule:evenodd;fill:#78520a" d="m18.207 9.184c0.043-0.363 0-0.628-0.129-0.8-0.191-0.321-0.457-0.493-0.797-0.512h-0.066l0.066 0.16c0.043 0.277 0.051 0.5 0.031 0.672-0.023 0.062-0.16 0.16-0.417 0.289-0.149 0.063-0.403 0.234-0.766 0.512-0.32 0.211-0.504 0.34-0.543 0.383l-0.867 0.929c0.129-0.043 0.277-0.148 0.449-0.32 0.469-0.43 0.801-0.695 0.992-0.801 0.449-0.215 0.82-0.363 1.121-0.449l0.926-0.063z" inkscape:connector-curvature="0"></path> <path id="path506" style="fill-rule:evenodd;fill:#fff76c" d="m14.625 10.88 0.129-0.321 0.031-0.222 0.031-0.067 0.032-0.445 0.097-0.16c0.039-0.086 0.039-0.16 0-0.227-0.066-0.039-0.152-0.007-0.257 0.098l-0.415 0.258c-0.023-0.067 0.032-0.16 0.161-0.289 0.062-0.11 0.093-0.203 0.093-0.289l-0.863 0.031-0.062 0.031c-0.278 0.086-0.461 0.195-0.547 0.32 0.086 0 0.32-0.05 0.707-0.16 0.297-0.062 0.531-0.082 0.703-0.062-0.129 0.062-0.235 0.16-0.32 0.289-0.086 0.191-0.149 0.328-0.192 0.414 0.063 0.023 0.199-0.031 0.414-0.16 0.211-0.106 0.348-0.188 0.418-0.254-0.086 0.086-0.129 0.269-0.129 0.543 0 0.215-0.062 0.437-0.191 0.672h0.16z" inkscape:connector-curvature="0"></path> <path id="path508" style="fill-rule:evenodd;fill:#ebaa91" d="m13.473 9.598c0 0.11-0.149 0.172-0.45 0.196-0.363 0.039-0.554 0.074-0.574 0.094 0.641 0.171 1.024 0.14 1.153-0.094l-0.129-0.196z" inkscape:connector-curvature="0"></path> <path id="path510" style="fill-rule:evenodd;fill:#ebaa91" d="m13.824 10.079c-0.383 0.258-0.652 0.394-0.801 0.418 0.192 0.043 0.364 0.043 0.512 0 0.535-0.109 0.789-0.234 0.77-0.387l-0.481-0.031z" inkscape:connector-curvature="0"></path> <path id="path512" style="fill-rule:evenodd;fill:#ebaa91" d="m14.559 10.528 0.066-0.191c-0.066-0.11-0.16-0.117-0.289-0.031-0.106 0.062-0.18 0.136-0.223 0.222-0.32 0.32-0.492 0.5-0.511 0.543 0.105-0.043 0.265-0.137 0.476-0.289 0.172-0.125 0.332-0.211 0.481-0.254z" inkscape:connector-curvature="0"></path> <path id="path514" style="fill-rule:evenodd;fill:#ebaa91" d="m12.094 10.27h-0.766c0.149 0.11 0.34 0.161 0.574 0.161 0.129 0.023 0.321 0.035 0.578 0.035 0.235 0 0.372-0.078 0.415-0.227l-0.129-0.062-0.672 0.093z" inkscape:connector-curvature="0"></path> <path id="path516" style="fill-rule:evenodd;fill:#ebaa91" d="m12.672 11.298c0.258-0.196 0.375-0.332 0.351-0.418-0.043-0.086-0.105-0.106-0.191-0.063-0.086 0.086-0.148 0.137-0.191 0.16l-0.418 0.575c0.109-0.043 0.257-0.129 0.449-0.254z" inkscape:connector-curvature="0"></path> <path id="path518" style="fill-rule:evenodd;fill:#ebaa91" d="m11.871 10.88-0.703 0.383c0.297 0.043 0.598 0 0.894-0.125 0.153-0.086 0.215-0.204 0.196-0.356-0.129-0.019-0.258 0.012-0.387 0.098z" inkscape:connector-curvature="0"></path> <path id="path520" style="fill-rule:evenodd;fill:#ebaa91" d="m10.176 11.169c0.597 0 0.918-0.129 0.961-0.387-0.192 0.086-0.321 0.141-0.387 0.16-0.211-0.019-0.371 0-0.48 0.067l-0.094 0.16z" inkscape:connector-curvature="0"></path> <path id="path522" style="fill-rule:evenodd;fill:#ebaa91" d="m9.793 11.743-0.227 0.32c0.215 0 0.473-0.074 0.77-0.222 0.129-0.043 0.191-0.16 0.191-0.352l-0.289 0.063c-0.234 0.062-0.383 0.129-0.445 0.191z" inkscape:connector-curvature="0"></path> <path id="path524" style="fill-rule:evenodd;fill:#ebaa91" d="m9.441 12.641-0.257 1.118c0.023-0.082 0.14-0.297 0.351-0.637 0.149-0.258 0.215-0.481 0.192-0.676-0.086-0.043-0.18 0.024-0.286 0.195z" inkscape:connector-curvature="0"></path> <path id="path526" style="fill-rule:evenodd;fill:#ebaa91" d="m10.145 12.641-0.129 1.375 0.191-0.418c0.148-0.402 0.234-0.679 0.258-0.832v-0.414c-0.172-0.062-0.277 0.032-0.32 0.289z" inkscape:connector-curvature="0"></path> <path id="path528" style="fill-rule:evenodd;fill:#ebaa91" d="m11.137 12.352-0.098 0.321c0.106-0.149 0.246-0.395 0.418-0.739 0.211-0.211 0.309-0.351 0.285-0.414-0.148-0.043-0.277 0.02-0.383 0.192-0.019 0.023-0.093 0.234-0.222 0.64z" inkscape:connector-curvature="0"></path> <path id="path530" style="fill-rule:evenodd;fill:#ebaa91" d="m10.594 13.727-0.067 0.161c0.067 0.023 0.161 0.085 0.289 0.191 0.129 0.086 0.235 0.129 0.321 0.129-0.024-0.063-0.086-0.192-0.192-0.383-0.066-0.148-0.109-0.289-0.129-0.418-0.148-0.019-0.222 0.086-0.222 0.32z" inkscape:connector-curvature="0"></path> <path id="path532" style="fill-rule:evenodd;fill:#ebaa91" d="m9.602 13.759 0.16 0.609c0.019-0.023 0.031-0.184 0.031-0.48l0.031-0.321c0-0.043-0.012-0.094-0.031-0.16-0.023-0.043-0.066-0.051-0.129-0.031-0.043 0.023-0.062 0.148-0.062 0.383z" inkscape:connector-curvature="0"></path> <path id="path534" style="fill-rule:evenodd;fill:#ebaa91" d="m9.566 14.177c-0.125 0.062-0.125 0.222 0 0.48l0.129 0.414c0.024 0.043 0.032 0.149 0.032 0.32 0.085-0.468 0.066-0.746-0.063-0.832l-0.098-0.382z" inkscape:connector-curvature="0"></path> <path id="path536" style="fill-rule:evenodd;fill:#ebaa91" d="m10.016 14.591 0.097 0.386c-0.023 0.297 0.106 0.575 0.383 0.832-0.019-0.152-0.074-0.363-0.16-0.64 0-0.387-0.043-0.61-0.129-0.672-0.129-0.086-0.191-0.055-0.191 0.094z" inkscape:connector-curvature="0"></path> <path id="path538" style="fill-rule:evenodd;fill:#ebaa91" d="m10.465 14.466 0.031 0.191c0.086 0.168 0.258 0.277 0.512 0.32 0.277 0.086 0.449 0.106 0.512 0.063-0.211-0.172-0.364-0.297-0.45-0.383l-0.285-0.289c-0.215-0.172-0.32-0.141-0.32 0.098z" inkscape:connector-curvature="0"></path> <path id="path540" style="fill-rule:evenodd;fill:#ebaa91" d="m11.23 14.466 0.161 0.125c0.109 0.043 0.308 0.043 0.609 0 0.277 0 0.426-0.008 0.449-0.032l-0.801-0.16c-0.191 0-0.332 0.024-0.418 0.067z" inkscape:connector-curvature="0"></path> <path id="path542" style="fill-rule:evenodd;fill:#ebaa91" d="m10.848 15.231 0.062 0.258c0.235 0.149 0.418 0.234 0.547 0.254 0.168 0.043 0.34 0.043 0.512 0-0.301-0.148-0.512-0.277-0.641-0.383-0.258-0.258-0.418-0.297-0.48-0.129z" inkscape:connector-curvature="0"></path> <path id="path544" style="fill-rule:evenodd;fill:#ebaa91" d="m12.574 15.102v0.258c0.086-0.062 0.246-0.172 0.481-0.32 0.215-0.149 0.3-0.309 0.257-0.481l-0.226 0.321c-0.039 0.043-0.211 0.117-0.512 0.222z" inkscape:connector-curvature="0"></path> <path id="path546" style="fill-rule:evenodd;fill:#ebaa91" d="m12.352 15.97 0.16 0.093c0.105 0.129 0.351 0.215 0.734 0.258 0.32 0 0.492-0.012 0.516-0.031l-0.356-0.067-0.383-0.222c-0.296-0.215-0.523-0.227-0.671-0.031z" inkscape:connector-curvature="0"></path> <path id="path548" style="fill-rule:evenodd;fill:#ebaa91" d="m13.602 15.489-0.036-0.031c-0.086-0.024-0.125 0.008-0.125 0.094-0.023 0.086-0.011 0.148 0.032 0.191 0.019 0.023 0.093 0.031 0.222 0.031 0.11 0 0.184-0.008 0.227-0.031 0.234-0.02 0.5-0.18 0.797-0.48-0.235 0.043-0.403 0.078-0.512 0.097l-0.605 0.129z" inkscape:connector-curvature="0"></path> <path id="path550" style="fill-rule:evenodd;fill:#ebaa91" d="m14.434 15.809-0.196 0.063c0.043 0.086 0.203 0.086 0.481 0 0.152-0.024 0.386-0.055 0.707-0.098-0.215-0.019-0.387-0.031-0.516-0.031-0.211 0-0.371 0.023-0.476 0.066z" inkscape:connector-curvature="0"></path> <path id="path552" style="fill-rule:evenodd;fill:#ebaa91" d="m14.336 14.72-0.16 0.257c0.086-0.043 0.222-0.086 0.414-0.129 0.172-0.066 0.277-0.171 0.32-0.32 0.043-0.215 0.012-0.394-0.094-0.543-0.023 0.34-0.183 0.586-0.48 0.735z" inkscape:connector-curvature="0"></path> <path id="path554" style="fill-rule:evenodd;fill:#ebaa91" d="m15.711 15.391 0.066 0.067h0.285l0.196-0.098c0.043-0.019 0.137-0.054 0.285-0.097 0.129-0.04 0.191-0.094 0.191-0.161-0.703-0.082-1.043 0.012-1.023 0.289z" inkscape:connector-curvature="0"></path> <path id="path556" style="fill-rule:evenodd;fill:#ebaa91" d="m16.414 14.145 0.035 0.254c0.192-0.086 0.309-0.265 0.352-0.543 0-0.215-0.043-0.351-0.129-0.418-0.024 0.129-0.043 0.227-0.067 0.289 0.004 0.235-0.062 0.375-0.191 0.418z" inkscape:connector-curvature="0"></path> <path id="path558" style="fill-rule:evenodd;fill:#ebaa91" d="m15.902 13.759 0.098 0.257c0.129-0.085 0.16-0.257 0.098-0.511-0.086-0.278-0.215-0.407-0.387-0.383 0.129 0.254 0.191 0.469 0.191 0.637z" inkscape:connector-curvature="0"></path> <path id="path560" style="fill-rule:evenodd;fill:#ebaa91" d="m15.711 12.446 0.387 0.516c0.105-0.153 0.043-0.344-0.196-0.578-0.105-0.106-0.191-0.18-0.254-0.223-0.105-0.086-0.191-0.117-0.257-0.098 0.214 0.153 0.32 0.278 0.32 0.383z" inkscape:connector-curvature="0"></path> <path id="path562" style="fill-rule:evenodd;fill:#ebaa91" d="m15.23 12.962c0-0.067-0.105-0.11-0.32-0.129-0.211-0.024-0.34-0.012-0.383 0.031 0.086 0.043 0.215 0.149 0.383 0.32 0.172 0.149 0.313 0.254 0.418 0.321 0.129 0.086 0.203 0.074 0.223-0.032 0.043-0.128-0.051-0.277-0.285-0.449l-0.036-0.062z" inkscape:connector-curvature="0"></path> <path id="path564" style="fill-rule:evenodd;fill:#ebaa91" d="m14.945 12.223 0.223 0.192c0.02-0.192-0.098-0.34-0.352-0.445-0.296-0.11-0.468-0.129-0.511-0.067l0.351 0.16c0.043 0.024 0.137 0.075 0.289 0.16z" inkscape:connector-curvature="0"></path> <path id="path566" style="fill-rule:evenodd;fill:#ebaa91" d="m14.238 12.321-0.031-0.066c-0.105-0.039-0.242-0.039-0.414 0-0.172 0.023-0.309 0.086-0.418 0.191 0.172 0 0.437 0.035 0.801 0.098 0.191 0 0.301-0.012 0.32-0.031 0.043-0.043 0.055-0.098 0.031-0.161 0-0.086-0.031-0.129-0.093-0.129l-0.196 0.098z" inkscape:connector-curvature="0"></path> <path id="path568" style="fill-rule:evenodd;fill:#ebaa91" d="m13.023 12.223h-0.191c-0.043 0-0.148 0.067-0.32 0.192-0.192 0.148-0.278 0.234-0.254 0.258 0.062-0.024 0.222-0.043 0.476-0.067 0.172 0 0.301-0.05 0.387-0.16l-0.098-0.223z" inkscape:connector-curvature="0"></path> <path id="path570" style="fill-rule:evenodd;fill:#ebaa91" d="m12.352 13.153c-0.086 0.043-0.137 0.125-0.161 0.254-0.019 0.129-0.011 0.234 0.032 0.32 0.195-0.296 0.289-0.48 0.289-0.543l-0.16-0.031z" inkscape:connector-curvature="0"></path> <path id="path572" style="fill-rule:evenodd;fill:#ebaa91" d="m12.801 13.567 0.031 0.192c0.02 0.086 0.137 0.14 0.352 0.16 0.171 0.023 0.308 0.012 0.418-0.031l-0.258-0.094c-0.215-0.153-0.395-0.227-0.543-0.227z" inkscape:connector-curvature="0"></path> <path id="path574" style="fill-rule:evenodd;fill:#ebaa91" d="m14.016 13.759-0.223 0.16c0.168 0 0.328-0.043 0.477-0.125 0.195-0.11 0.277-0.246 0.257-0.418-0.086 0.062-0.16 0.117-0.222 0.16-0.192 0.129-0.289 0.203-0.289 0.223z" inkscape:connector-curvature="0"></path> <path id="path576" style="fill-rule:evenodd;fill:#c48063" d="m10.719 7.583 0.16-0.125c-0.063-0.152-0.191-0.184-0.383-0.098-0.191 0.129-0.32 0.215-0.383 0.254 0.321-0.082 0.52-0.094 0.606-0.031z" inkscape:connector-curvature="0"></path> <path id="path578" style="fill-rule:evenodd;fill:#c48063" d="m9.824 7.231 0.063-0.062c-0.082-0.149-0.235-0.172-0.446-0.067-0.195 0.086-0.332 0.204-0.418 0.356 0.45-0.067 0.715-0.141 0.801-0.227z" inkscape:connector-curvature="0"></path> <path id="path580" style="fill-rule:evenodd;fill:#c48063" d="m9.055 6.657 0.226 0.125c-0.047-0.043-0.101-0.105-0.16-0.191-0.109-0.211-0.183-0.328-0.226-0.352-0.02 0.109 0.035 0.246 0.16 0.418z" inkscape:connector-curvature="0"></path> <path id="path582" style="fill-rule:evenodd;fill:#c48063" d="m8.641 6.977 0.222-0.066c-0.105-0.148-0.222-0.246-0.351-0.285-0.278-0.086-0.414-0.086-0.414 0 0.082 0.062 0.265 0.18 0.543 0.351z" inkscape:connector-curvature="0"></path> <path id="path584" style="fill-rule:evenodd;fill:#c48063" d="m8.254 6.11h0.035c-0.066-0.469-0.227-0.734-0.48-0.797l0.222 0.383c0.043 0.063 0.117 0.203 0.223 0.414z" inkscape:connector-curvature="0"></path> <path id="path586" style="fill-rule:evenodd;fill:#c48063" d="m8.48 5.696 0.29 0.32c0.019-0.023 0.062-0.191 0.125-0.511 0.023-0.11 0.097-0.246 0.226-0.418-0.109 0.043-0.234 0.129-0.387 0.258-0.191 0.128-0.277 0.246-0.254 0.351z" inkscape:connector-curvature="0"></path> <path id="path588" style="fill-rule:evenodd;fill:#c48063" d="m8.77 4.895 0.093-0.031 0.383-0.258c-0.168-0.019-0.328 0.078-0.476 0.289z" inkscape:connector-curvature="0"></path> <path id="path590" style="fill-rule:evenodd;fill:#c48063" d="m8.449 4.864 0.16-0.223c-0.066-0.277-0.152-0.429-0.257-0.449 0.043 0.149 0.066 0.266 0.066 0.352l0.031 0.32z" inkscape:connector-curvature="0"></path> <path id="path592" style="fill-rule:evenodd;fill:#c48063" d="m9.023 4.192 0.352 0.031c0.148-0.105 0.301-0.351 0.449-0.734-0.191 0.149-0.32 0.254-0.383 0.32l-0.418 0.383z" inkscape:connector-curvature="0"></path> <path id="path594" style="fill-rule:evenodd;fill:#c48063" d="m9.855 4.29-0.128 0.156c0.128 0 0.32-0.008 0.578-0.031-0.129-0.192-0.215-0.297-0.258-0.32-0.043-0.02-0.094-0.008-0.16 0.035-0.063 0.062-0.075 0.117-0.032 0.16z" inkscape:connector-curvature="0"></path> <path id="path596" style="fill-rule:evenodd;fill:#c48063" d="m10.273 3.841 0.125 0.093c0.024-0.019 0.122-0.074 0.29-0.16 0.148-0.082 0.246-0.16 0.289-0.222-0.579 0-0.813 0.097-0.704 0.289z" inkscape:connector-curvature="0"></path> <path id="path598" style="fill-rule:evenodd;fill:#c48063" d="m11.008 4.192 0.097 0.063c0.192-0.02 0.395 0.023 0.606 0.129-0.063-0.172-0.234-0.321-0.512-0.45-0.129-0.039-0.222-0.039-0.289 0-0.039 0.043-0.008 0.129 0.098 0.258z" inkscape:connector-curvature="0"></path> <path id="path600" style="fill-rule:evenodd;fill:#c48063" d="m11.391 4.766 0.48 0.512c0.043-0.062 0.024-0.137-0.062-0.222-0.086-0.106-0.149-0.18-0.192-0.223-0.043-0.086-0.086-0.149-0.129-0.192-0.062-0.066-0.117-0.085-0.16-0.066 0.063 0.066 0.086 0.129 0.063 0.191z" inkscape:connector-curvature="0"></path> <path id="path602" style="fill-rule:evenodd;fill:#c48063" d="m11.617 4.575 0.16 0.289 0.192-0.031c-0.024-0.043-0.117-0.149-0.289-0.32l-0.063 0.062z" inkscape:connector-curvature="0"></path> <path id="path604" style="fill-rule:evenodd;fill:#c48063" d="m11.68 5.696-0.129 0.414c0.32-0.234 0.387-0.445 0.191-0.637-0.105 0.043-0.125 0.118-0.062 0.223z" inkscape:connector-curvature="0"></path> <path id="path606" style="fill-rule:evenodd;fill:#c48063" d="m11.168 6.11-0.258 0.258c0.363-0.191 0.504-0.332 0.418-0.418-0.105 0.043-0.16 0.098-0.16 0.16z" inkscape:connector-curvature="0"></path> <path id="path608" style="fill-rule:evenodd;fill:#c48063" d="m10.625 6.048-0.352 0.191c0.125 0.129 0.278 0.109 0.446-0.062 0-0.067-0.031-0.11-0.094-0.129z" inkscape:connector-curvature="0"></path> <path id="path610" style="fill-rule:evenodd;fill:#c48063" d="m10.367 5.056h0.129c0.106-0.043 0.223-0.137 0.352-0.29-0.086-0.043-0.18-0.031-0.289 0.036-0.086 0.062-0.149 0.148-0.192 0.254z" inkscape:connector-curvature="0"></path> <path id="path612" style="fill-rule:evenodd;fill:#c48063" d="m10.336 5.278-0.16 0.16 0.094 0.129c0.085-0.086 0.195-0.222 0.32-0.414-0.106 0.063-0.192 0.106-0.254 0.125z" inkscape:connector-curvature="0"></path> <path id="path614" style="fill-rule:evenodd;fill:#c48063" d="m10.527 5.794 0.161 0.254c0.023-0.043 0.011-0.129-0.032-0.254-0.019-0.11-0.054-0.172-0.097-0.196-0.106 0.043-0.118 0.11-0.032 0.196z" inkscape:connector-curvature="0"></path> </g> </g> <metadata></metadata></svg> 