<?xml version="1.0" encoding="UTF-8" standalone="no"?> <!-- Created with Inkscape (http://www.inkscape.org/) --> <svg xmlns:inkscape="http://www.inkscape.org/namespaces/inkscape" xmlns:rdf="http://www.w3.org/1999/02/22-rdf-syntax-ns#" xmlns="http://www.w3.org/2000/svg" xmlns:xlink="http://www.w3.org/1999/xlink" xmlns:ns1="http://sozi.baierouge.fr" xmlns:cc="http://creativecommons.org/ns#" xmlns:sodipodi="http://sodipodi.sourceforge.net/DTD/sodipodi-0.dtd" xmlns:dc="http://purl.org/dc/elements/1.1/" id="svg2" xml:space="preserve" viewBox="0 0 133.04 120.22" inkscape:version="0.91 r13725"> <defs id="defs6"> <clipPath id="clipPath18"> <path id="path20" d="m0-0.82481h107v97h-107v-97z" inkscape:connector-curvature="0"></path> </clipPath> <mask id="mask22"> <g id="g24"> <g id="g26" clip-path="url(#clipPath18)"> <path id="path28" style="fill:#000000;fill-opacity:.28910" d="m0-0.82481h107v97h-107v-97z" inkscape:connector-curvature="0"></path> </g> </g> </mask> <clipPath id="clipPath34"> <path id="path36" d="m0-0.82481h107v97h-107v-97z" inkscape:connector-curvature="0"></path> </clipPath> <clipPath id="clipPath38"> <path id="path40" d="m0 0h107v97h-107v-97z" inkscape:connector-curvature="0"></path> </clipPath> <radialGradient id="radialGradient78" gradientUnits="userSpaceOnUse" cy="2.3003" cx="-.60010" gradientTransform="matrix(.8 0 0 -.30376 54.056 31.946)" r="53.7"> <stop id="stop80" style="stop-color:#373451" offset="0"></stop> <stop id="stop82" style="stop-color:#3b2d47" offset=".44310"></stop> <stop id="stop84" style="stop-color:#2b232c" offset="1"></stop> </radialGradient> <linearGradient id="linearGradient132" y2="-16225" gradientUnits="userSpaceOnUse" x2="48.779" gradientTransform="matrix(.000035203 -.8 .8 -.0008 13034 55.762)" y1="-16225" x1="26.054"> <stop id="stop134" style="stop-color:#223149" offset="0"></stop> <stop id="stop136" style="stop-color:#121317" offset="1"></stop> </linearGradient> <radialGradient id="radialGradient150" gradientUnits="userSpaceOnUse" cy="29.55" cx="2" gradientTransform="matrix(.8 0 0 -.8 52.175 117.97)" r="67.162"> <stop id="stop152" style="stop-color:#ba69d3" offset="0"></stop> <stop id="stop154" style="stop-color:#812e2c" offset="1"></stop> </radialGradient> <linearGradient id="linearGradient188" y2="-13.383" gradientUnits="userSpaceOnUse" x2="42.25" gradientTransform="matrix(.8 0 0 .8 52.175 70.688)" y1="-13.383" x1="-42.255"> <stop id="stop190" style="stop-color:#d9ceb7" offset="0"></stop> <stop id="stop192" style="stop-color:#f0e4ca" offset=".27450"></stop> <stop id="stop194" style="stop-color:#d9ceb7" offset="1"></stop> </linearGradient> <linearGradient id="linearGradient208" y2="-18.79" gradientUnits="userSpaceOnUse" x2="42.25" gradientTransform="matrix(.8 0 0 .8 52.175 70.688)" y1="-18.79" x1="-42.15"> <stop id="stop210" style="stop-color:#b6ad99" offset="0"></stop> <stop id="stop212" style="stop-color:#f0e4ca" offset=".27450"></stop> <stop id="stop214" style="stop-color:#beb3a0" offset="1"></stop> </linearGradient> <linearGradient id="linearGradient228" y2=".71210" gradientUnits="userSpaceOnUse" x2="-2.0215" gradientTransform="matrix(.8 0 0 .8 38.056 30.368)" y1="7.2871" x1="-2.0215"> <stop id="stop230" style="stop-color:#79cdd0" offset="0"></stop> <stop id="stop232" style="stop-color:#262234" offset="1"></stop> </linearGradient> <linearGradient id="linearGradient246" y2=".88680" gradientUnits="userSpaceOnUse" x2="-3.023" gradientTransform="matrix(.8 0 0 .8 38.975 30.048)" y1="10.612" x1="-2.998"> <stop id="stop248" style="stop-color:#79cdd0" offset="0"></stop> <stop id="stop250" style="stop-color:#262234" offset="1"></stop> </linearGradient> <linearGradient id="linearGradient264" y2="1.6996" gradientUnits="userSpaceOnUse" x2="-3.5103" gradientTransform="matrix(.8 0 0 .8 45.575 25.608)" y1="16.6" x1="-3.5103"> <stop id="stop266" style="stop-color:#79cdd0" offset="0"></stop> <stop id="stop268" style="stop-color:#37304b" offset="1"></stop> </linearGradient> <linearGradient id="linearGradient282" y2="-18090" gradientUnits="userSpaceOnUse" x2="2460.8" gradientTransform="matrix(-.21304 -.77112 .77112 -.21304 14534 -1928)" y1="-18090" x1="2444.7"> <stop id="stop284" style="stop-color:#79cdd0" offset="0"></stop> <stop id="stop286" style="stop-color:#37304b" offset="1"></stop> </linearGradient> <linearGradient id="linearGradient300" y2="-18094" gradientUnits="userSpaceOnUse" x2="2466.9" gradientTransform="matrix(-.21344 -.77096 .77096 -.21344 14538 -1932.6)" y1="-18094" x1="2456"> <stop id="stop302" style="stop-color:#79cdd0" offset="0"></stop> <stop id="stop304" style="stop-color:#37304b" offset="1"></stop> </linearGradient> </defs> <g id="g10" transform="matrix(1.25 0 0 -1.25 0 120.22)"> <g id="g12"> <g id="g14"> <g id="g30" mask="url(#mask22)"> <g id="g42"> <g id="g44" clip-path="url(#clipPath34)"> <g id="g46" transform="translate(0 -.82481)"> <g id="g50"> <g id="g52" clip-path="url(#clipPath38)"> <g id="g54"> <path id="path56" style="fill-rule:evenodd;fill:#cb3d2a;fill-opacity:0.502" d="m73.922 93.211c6.363-2.43 12.008-5.859 16.933-10.289 4.903-4.43 8.696-9.52 11.383-15.27 2.797-5.964 4.192-12.211 4.192-18.738 0-6.531-1.395-12.766-4.192-18.711-2.689-5.754-6.482-10.851-11.385-15.301-4.925-4.429-10.57-7.859-16.933-10.289-6.578-2.523-13.481-3.789-20.707-3.789-7.223 0-14.137 1.266-20.738 3.789-6.364 2.43-11.997 5.86-16.899 10.289-4.902 4.45-8.699 9.547-11.387 15.301-2.793 5.945-4.191 12.18-4.191 18.711 0 6.527 1.398 12.774 4.191 18.738 2.688 5.75 6.485 10.84 11.387 15.27s10.535 7.859 16.899 10.289c6.601 2.527 13.515 3.789 20.738 3.789 7.226 0 14.129-1.262 20.707-3.789z" inkscape:connector-curvature="0"></path> </g> </g> </g> </g> </g> </g> </g> </g> <path id="path58" style="fill-rule:evenodd;fill:#000000;fill-opacity:0.298" d="m71.297 36.089c-0.16 0.078-0.27 0.16-0.32 0.239l-0.043-1.122c-0.106-0.05-0.211-0.105-0.317-0.16-0.48-0.238-1.027-0.41-1.64-0.519-1.895-0.293-4.11-0.481-6.641-0.559-1.039-0.027-3.266-0.039-6.68-0.039l-15.961 0.039c-0.586 0-1.574 0.028-2.961 0.078-1.226 0.028-2.199-0.05-2.918-0.238-0.429-0.133-0.972-0.359-1.64-0.68-0.375-0.187-0.922-0.441-1.641-0.761h-13.719c0.266 0.269 0.532 0.402 0.801 0.402l0.039 0.238c0.426 0.082 0.692 0.121 0.801 0.121-0.43 0.348-0.695 0.535-0.801 0.559 0.614-0.051 0.946-0.094 1-0.117-0.054 0.531-0.734 0.879-2.039 1.039 0.746 0 1.211-0.016 1.399-0.039 0.535-0.055 0.945-0.215 1.238-0.481 0.32 0.051 0.523 0.106 0.601 0.16-0.105 0.028-0.265 0.106-0.48 0.239h0.641c-0.133 0.215-0.36 0.347-0.68 0.398 0.852-0.023 1.426-0.105 1.719-0.238l0.039 0.199c0.297 0.082 0.683 0.149 1.16 0.199-0.024 0-0.32 0.137-0.879 0.403-0.266 0.132-0.508 0.214-0.719 0.238h1.52l-0.399 0.043c0.184 0.105 0.493 0.144 0.918 0.117 0.508-0.027 0.856-0.027 1.039 0-0.183 0.055-0.437 0.215-0.757 0.481 1.574 0.132 2.773 0.226 3.597 0.281 1.414 0.078 2.602 0.012 3.563-0.199l-1.043 0.398 0.48-0.039c-0.32 0.266-0.773 0.437-1.359 0.519 0.562 0.106 1.308 0.172 2.242 0.2 1.227 0.027 1.957 0.054 2.199 0.082l0.039 0.359h0.879c0.375 0 0.656 0.051 0.84 0.16l-0.199 0.278c0.347 0.027 0.586 0.027 0.719 0-0.106 0.187-0.211 0.32-0.317 0.402 0.449 0.078 1.012 0.039 1.68-0.121 0.984-0.215 1.531-0.32 1.637-0.32 0.828 0.105 1.453 0.148 1.882 0.121 0.961-0.133 1.641-0.215 2.039-0.243 1.305-0.05 2.426 0.016 3.36 0.204 0.48 0.078 1.121 0.039 1.922-0.122 0.851-0.16 1.492-0.226 1.918-0.199 0.746 0.051 1.281 0.106 1.601 0.16 0.532 0.133 1.028 0.348 1.481 0.637 0.078-0.183 0.238-0.277 0.48-0.277 0.266 0 0.438-0.082 0.52-0.242 0.984 0.214 2.824 0.254 5.519 0.121 0.664-0.028 1.399-0.106 2.199-0.239 0.508-0.082 0.946 0 1.321 0.239 0.64 0.347 1.066 0.558 1.281 0.64-0.402-0.507-0.387-0.828 0.039-0.961 0.215-0.054 0.641-0.039 1.281 0.039l0.078-0.238c0.614 0.535 1.641 0.746 3.079 0.641-0.184-0.106-0.454-0.242-0.797-0.403-0.27-0.16-0.36-0.41-0.282-0.757 1.172-0.586 2.094-0.907 2.762-0.961h0.797c0.375 0 0.602-0.055 0.68-0.16 0.082-0.079 0.148-0.161 0.203-0.239z" inkscape:connector-curvature="0"></path> <path id="path60" style="fill-rule:evenodd;fill:#ffffff;fill-opacity:.1137" d="m70.934 35.206 0.043 1.122c0.05-0.079 0.16-0.161 0.32-0.239 0.32-0.136 0.879-0.187 1.68-0.16 1.199 0.078 1.933 0.106 2.199 0.078l-0.16-0.121c0.851 0.027 1.464-0.012 1.839-0.117l-0.16-0.16c0.696-0.293 1.453-0.469 2.282-0.52 0.824-0.027 1.585 0.094 2.277 0.36l-0.199-0.36 0.402 0.117c0.133-0.21 0.41-0.304 0.84-0.277 0.453 0.078 0.773 0.117 0.957 0.117-0.453-0.133-0.758-0.359-0.918-0.679l3.039 0.082c-0.508-0.055-0.852-0.149-1.039-0.282 0.266-0.027 1.012-0.011 2.238 0.039 0.934 0.055 1.668 0.016 2.203-0.117-0.961-0.054-1.734-0.293-2.32-0.722h0.84c0.32 0 0.586-0.039 0.797-0.118-1.094 0-1.746-0.027-1.957-0.082 0.105-0.027 0.453-0.066 1.039-0.121 0.48-0.05 0.801-0.144 0.961-0.277-0.508-0.027-1.242-0.016-2.203 0.039 0.242-0.238 0.777-0.32 1.601-0.238 0.906 0.105 1.492 0.16 1.762 0.16h3.558c-0.878-0.027-1.613-0.16-2.199-0.402 0.133-0.215 0.547-0.387 1.239-0.52 0.75-0.16 1.226-0.254 1.441-0.281 1.039 0.027 1.84 0 2.398-0.078 1.414-0.133 2.586-0.375 3.52-0.719 0.027-0.137-0.344-0.297-1.117-0.481-0.883-0.187-1.348-0.308-1.403-0.363 0.641-0.133 1.52-0.426 2.641-0.879 1.227-0.48 2.105-0.785 2.641-0.918-2.028 0-3.786-0.187-5.282-0.562l-0.039-0.039-2.558-0.078c-0.293 0-0.508-0.122-0.641-0.364-0.746-0.105-1.48-0.304-2.199-0.597-0.188-0.082-0.32-0.188-0.402-0.321-0.586 0.133-0.934 0.266-1.04 0.399-0.078 0.109 0.188 0.308 0.801 0.601 0.641 0.266 0.918 0.465 0.84 0.602-0.348 0.558-1.055 1.012-2.121 1.359-1.895 0.641-4.293 1.024-7.199 1.16-1.653 0.051-4.106 0.106-7.36 0.161-0.375 0.023-1.187 0.039-2.441 0.039-1.094 0.132-1.641 0.558-1.641 1.281l0.2 3.476zm20.441-4.476c0.293-0.375 1.199-0.563 2.719-0.563 1.468 0.028 2.386 0.188 2.761 0.481l-1.398 0.398c-0.43 0-1.121 0.028-2.082 0.082-0.852-0.027-1.52-0.16-2-0.398zm-2.121 1.316-0.52 0.203c-0.132 0-0.398 0.012-0.8 0.039-0.344 0.028-0.598 0.012-0.758-0.039-0.586-0.187-0.453-0.386 0.398-0.601 0.988-0.238 1.547-0.106 1.68 0.398z" inkscape:connector-curvature="0"></path> <path id="path62" style="fill-rule:evenodd;fill:#000000;fill-opacity:0.298" d="m15.176 30.206 1.078-0.16 1.601-0.16c-1.011-0.371-1.894-0.918-2.64-1.637-0.934-0.109-2.32-0.203-4.16-0.281-0.106-0.027-0.907-0.226-2.399-0.601-0.961-0.239-1.789-0.293-2.48-0.161l0.281 0.723 0.359 0.039c0 0.774-0.254 1.481-0.761 2.121 0.48-0.453 0.879-1.066 1.199-1.84 0.109 0.399 0.137 1.028 0.082 1.879 0.051-0.132 0.094-0.425 0.121-0.879 0.051-0.402 0.199-0.613 0.438-0.64 0.375-0.055 0.601 0.304 0.679 1.078 0.028 0.402-0.094 0.906-0.359 1.519 0.64-0.585 1.066-1.105 1.281-1.558 0 0.613-0.082 1.027-0.242 1.238 0.242-0.105 0.43-0.316 0.562-0.637 0.133-0.296 0.293-0.48 0.481-0.562 0.293-0.106 0.719-0.024 1.277 0.242 0.696 0.266 1.27 0.426 1.723 0.481 0.558 0.05 1.16-0.016 1.797-0.204h0.082z" inkscape:connector-curvature="0"></path> <path id="path64" style="fill-rule:evenodd;fill:#000000;fill-opacity:0.298" d="m16.254 30.046-1.078 0.16-0.481 0.403c-0.425 0.664-0.945 1.547-1.558 2.64 0.265-0.054 0.586-0.296 0.957-0.722 0.429-0.559 0.707-0.879 0.84-0.957 0.109 1.652 0.296 2.785 0.562 3.398-0.055-1.332 0.078-2.347 0.399-3.039l0.48-0.641c0.027-0.027 0.055-0.066 0.082-0.121l-0.16-0.16c0.105 0 0.199 0.016 0.277 0.039 0.11-0.16 0.149-0.304 0.121-0.437-0.054-0.266-0.199-0.453-0.441-0.563z" inkscape:connector-curvature="0"></path> <path id="path66" style="fill-rule:evenodd;fill:#000000;fill-opacity:0.298" d="m16.574 31.046c-0.078-0.023-0.172-0.039-0.277-0.039l0.16 0.16 0.078 0.121c0.027 0.375 0.027 0.758 0 1.161 0.32-0.243 0.465-0.536 0.442-0.879-0.028-0.27-0.161-0.442-0.403-0.524z" inkscape:connector-curvature="0"></path> <g id="g68"> <g id="g70"> <g id="g76"> <path id="path86" style="fill-rule:evenodd;fill:url(#radialGradient78)" d="m96.215 29.808c1.785-0.266 2.961-0.602 3.519-1-0.824-0.055-2.211-0.066-4.16-0.039-1.785 0.027-3.172-0.016-4.16-0.121 0.27-0.027 0.723-0.133 1.363-0.32 0.637-0.161 1.078-0.254 1.317-0.282-0.399 0-1.012-0.05-1.84-0.16-0.266-0.426-0.598-0.719-1-0.879l-0.879 0.879c-0.078-0.105-0.215-0.25-0.398-0.437-0.403 0.961-0.801 1.64-1.2 2.039-0.027-0.692-0.027-1.387 0-2.078-0.16 0.476-0.64 1.171-1.441 2.078 0.027-0.426 0.16-1.36 0.398-2.801h-0.199c-0.027-0.16 0.254-0.32 0.84-0.481 0.641-0.183 0.961-0.343 0.961-0.476l0.199-0.043v-0.078c-0.133-0.082-0.734-0.176-1.801-0.281l-1.679 0.96 0.082-1.558h0.519c0.133-0.109 0.481-0.281 1.039-0.524l-0.121-0.398c-0.719 0.105-1.265 0-1.64-0.32-0.266 0.425-0.411 0.773-0.438 1.039-0.266-0.774-0.402-1.211-0.402-1.321-0.637 1.817-1.16 3.176-1.559 4.082 0.027-0.906 0.082-2.281 0.16-4.121-0.32 0.563-0.933 0.989-1.84 1.282 0.239-0.536 0.387-0.946 0.442-1.243 0.078-0.425 0.039-0.839-0.121-1.238h0.039c0.055-0.082 0.226-0.172 0.519-0.281l0.043-0.438c-0.347 0.028-0.882 0.079-1.601 0.161 0.054-0.297 0.039-0.547-0.039-0.762-0.11-0.188-0.242-0.227-0.403-0.121v-0.117l-0.957 0.117c-0.109 0.027-0.375 0.16-0.8 0.402-0.293 0.16-0.629 0.172-1 0.039v0.52c-0.055-0.078-0.161-0.215-0.321-0.399-0.16-0.16-0.265-0.32-0.32-0.48 0 0.613 0.012 1.078 0.039 1.398 0 0.586 0.039 1.055 0.121 1.403-0.668-0.321-1.281-1.563-1.84-3.723h-0.121l0.039 2.082c-0.019-0.547-0.164-1.066-0.437-1.563 0.051 0.907 0.011 1.547-0.121 1.922-0.082-0.718-0.094-1.547-0.039-2.48h-0.043c-0.907 1.039-2.039 1.601-3.399 1.68 0.102-0.102 0.274-0.286 0.52-0.559-0.379 0.402-1.008 0.672-1.879 0.801 0.558-0.403 0.933-0.789 1.121-1.16l-0.723 0.519c-0.105-0.348-0.679-0.547-1.719-0.601-0.558-0.051-1.32-0.079-2.281-0.079-0.238 0.559-0.359 0.934-0.359 1.118-0.055-0.399-0.281-0.77-0.68-1.118-0.293 0.266-0.535 0.704-0.719 1.321-0.187 0.718-0.32 1.238-0.402 1.558-0.023-0.215-0.039-1.215-0.039-3-0.398 0.399-1.172 1.254-2.32 2.559l-0.16-1.801c-0.454 0.137-0.758 0.203-0.918 0.203-0.321 0-0.547-0.176-0.68-0.519-0.242 0.504-0.375 0.867-0.402 1.078-0.481-0.399-0.868-0.801-1.161-1.199 0 0.32 0.067 1.011 0.2 2.078-0.426-0.211-0.879-0.68-1.36-1.399-0.265 0.133-0.597 0.399-1 0.801-0.426 0.426-0.758 0.707-1 0.84 0.028-0.242 0.016-0.602-0.039-1.082-0.426 0.48-0.812 1.016-1.16 1.601l-0.078-1.601-0.922 1.199c0.027-1.25-0.574-2.012-1.801-2.277l-0.039 0.519c-0.105-0.027-0.305-0.015-0.601 0.039-0.293 0.055-0.477 0.067-0.559 0.039-0.051 0.321-0.066 0.547-0.039 0.68-0.106-0.105-0.309-0.25-0.602-0.437-0.265-0.161-0.453-0.293-0.558-0.403 0.078 0.563 0.375 1.137 0.879 1.723 0.64 0.641 1.082 1.133 1.32 1.48-1.547-0.933-2.918-2.015-4.121-3.242-0.16 0.188-0.32 0.469-0.477 0.84-0.215 0.453-0.363 0.75-0.441 0.883-0.106-0.774-0.281-1.293-0.52-1.563-0.32 0.403-0.8 0.469-1.441 0.2l-0.039 0.363-0.762-0.32c0.082 0.586 0.176 1.023 0.281 1.32 0.161 0.371 0.415 0.664 0.762 0.879-1.629-0.774-2.59-1.254-2.883-1.442-0.293 0.668-0.425 1.121-0.398 1.36-0.266-0.531-0.414-0.973-0.441-1.321-0.559 1.122-0.879 2.282-0.961 3.481 0-0.801-0.079-1.957-0.239-3.481-0.695 1.282-1.535 2.055-2.519 2.321 0.105-0.266 0.304-0.664 0.601-1.199 0.266-0.532 0.383-0.985 0.36-1.36-0.586 0.133-1.067-0.015-1.442-0.441l-0.281 1.359c-0.023-0.023-0.184-0.199-0.48-0.519-0.184-0.184-0.317-0.371-0.399-0.559 0.027 0.773 0.414 1.602 1.16 2.48-0.718-0.695-1.133-1.093-1.238-1.199-0.43-0.48-0.723-0.976-0.883-1.48-0.664 0.32-1.023 0.879-1.078 1.679 0-0.242-0.055-0.667-0.16-1.281-0.801 0.828-1.281 1.336-1.441 1.52 0.16-0.453 0.441-1.106 0.839-1.957-1.117 1.465-2.293 2.332-3.519 2.597 0.133-0.238 0.469-0.546 1-0.918 0.453-0.32 0.695-0.668 0.719-1.043-0.532 0.161-1.106 0.215-1.719 0.161 0.187-0.184 0.336-0.493 0.441-0.918l-0.32 0.039c-0.586 0.718-0.988 1.187-1.199 1.398 0.023-0.238 0.039-0.598 0.039-1.078-0.399 0.828-0.535 1.586-0.399 2.281-0.16-0.613-0.308-1.414-0.441-2.402l-0.16 0.043c-0.106 0.133-0.199 0.332-0.281 0.598l-0.2-0.36c-0.105 0.266-0.16 0.629-0.16 1.078 0.027 0.563 0.039 0.977 0.039 1.242-0.504-0.718-0.773-1.425-0.797-2.121h-0.043l-0.199 0.719-0.281-0.476-0.277 0.277-0.043-0.199-1 0.359c-0.079 0.133-0.266 0.293-0.559 0.481v-0.282l-0.68 0.203c0.508 0.348 0.895 0.547 1.16 0.598-0.558 0.055-2.332 0.082-5.32 0.082 0.508 0.024 0.988 0.133 1.442 0.32 0.503 0.266 0.906 0.465 1.199 0.598-0.266 0.055-0.574 0.188-0.922 0.402 0.668 0.161 1.043 0.278 1.121 0.36 0.027 0.105-0.039 0.254-0.199 0.437-0.16 0.188-0.215 0.364-0.16 0.524 0.132 0.105 0.304 0.183 0.519 0.238 0.16 0.027 0.281 0.133 0.36 0.32-0.184 0.133-0.52 0.282-1 0.442 0.187 0.183 0.281 0.426 0.281 0.718-0.188 0.028-0.375 0.215-0.559 0.559-0.242 0.43-0.469 0.707-0.683 0.84 0.027-0.453 0.109-1.078 0.242-1.879-0.774 1.012-1.36 1.719-1.762 2.121-0.023-0.562 0.148-1.148 0.52-1.762-0.426 0.11-0.746 0.227-0.957 0.36l-0.082-0.481h-0.68c-0.559 0.457-0.934 0.883-1.121 1.282-0.317-0.321-0.492-0.52-0.52-0.598-0.16 0.023-0.359 0.09-0.597 0.199l-0.043-0.359c-1.332-0.11-2.454-0.043-3.36 0.199l0.723-0.281c-0.32-0.16-0.68-0.149-1.082 0.039-0.184 0.094-0.457 0.254-0.82 0.48 0.261-0.172 0.628-0.453 1.101-0.84-0.836 0-1.469-0.027-1.902-0.078 0.066-0.019 0.168-0.07 0.301-0.16l-2.879 0.078c3.254 1.442 6.027 2.481 8.32 3.121-0.32 0.133-0.52 0.239-0.602 0.321 1.2 0.054 2.282 0.386 3.243 1 0 0.187-0.11 0.32-0.321 0.398 0.239 0.106 0.895 0.336 1.961 0.68 0.797 0.242 1.332 0.508 1.598 0.801l3.562 0.878c-0.187 0.082-0.617 0.282-1.281 0.602 2.453-0.055 4.332-0.055 5.641 0 2.32 0.055 4.078 0.441 5.277 1.16-0.48 0.055-1.254 0.149-2.32 0.281 0.988 0.051 4.429 0.266 10.32 0.637 4.16 0.293 7.602 0.442 10.32 0.442h3.84c2.321 0.082 4.055 0.105 5.203 0.082 1.973-0.028 3.653-0.254 5.039-0.68 1.067-0.32 2.438-0.59 4.118-0.801 2-0.242 3.414-0.453 4.242-0.641 2.187-0.425 3.945-0.812 5.281-1.16 2.453-0.64 3.945-1.281 4.477-1.922-0.477 0-1.223-0.011-2.239-0.039 1.332-0.238 2.946-0.652 4.84-1.238 3.094-0.961 4.668-1.453 4.719-1.48 0.402-0.106 1.723-0.321 3.961-0.641z" inkscape:connector-curvature="0"></path> </g> </g> </g> <path id="path88" style="fill-rule:evenodd;fill:#ffffff;fill-opacity:.0667" d="m38.977 36.089c1.546 0 2.574-0.109 3.078-0.32 0.425-0.188 0.453-0.426 0.082-0.719-0.293-0.242-1.309-0.347-3.043-0.32-1.571 0.023-2.68 0.117-3.317 0.277-0.535 0.133-0.363 0.348 0.52 0.641 0.879 0.293 1.773 0.441 2.68 0.441z" inkscape:connector-curvature="0"></path> <path id="path90" style="fill-rule:evenodd;fill:#ffffff;fill-opacity:.0667" d="m31.656 35.046c1.039-0.05 1.332-0.211 0.879-0.476-0.453-0.27-1.055-0.375-1.801-0.321-0.691 0.028-0.89 0.172-0.597 0.438 0.293 0.269 0.797 0.387 1.519 0.359z" inkscape:connector-curvature="0"></path> <path id="path92" style="fill-rule:evenodd;fill:#ffffff;fill-opacity:.0667" d="m29.137 31.929c2.664 0 3.64-0.359 2.918-1.082-0.211-0.211-0.774-0.371-1.68-0.48-0.984-0.079-1.961-0.024-2.918 0.16-0.961 0.187-1.121 0.469-0.48 0.84 0.613 0.375 1.332 0.562 2.16 0.562z" inkscape:connector-curvature="0"></path> <path id="path94" style="fill-rule:evenodd;fill:#ffffff;fill-opacity:.0667" d="m24.977 32.57c1.597 0 2.199-0.242 1.8-0.723-0.16-0.133-0.507-0.226-1.043-0.277-0.613-0.055-1.211-0.028-1.8 0.078-0.586 0.133-0.68 0.32-0.278 0.558 0.371 0.243 0.813 0.364 1.321 0.364z" inkscape:connector-curvature="0"></path> <path id="path96" style="fill-rule:evenodd;fill:#ffffff;fill-opacity:.0667" d="m32.496 27.929c2.266 0 3.652-0.215 4.16-0.641 0.293-0.242 0.227-0.601-0.199-1.082-0.32-0.343-1.082-0.57-2.281-0.679-1.332-0.133-2.668-0.051-4 0.242-1.332 0.266-1.547 0.707-0.641 1.32 0.856 0.559 1.84 0.84 2.961 0.84z" inkscape:connector-curvature="0"></path> <path id="path98" style="fill-rule:evenodd;fill:#ffffff;fill-opacity:.0667" d="m21.734 29.249c-0.132-0.214-0.492-0.363-1.078-0.441-0.242 0.426-0.48 0.719-0.722 0.879l0.121-1h-0.559l-1.082 1.242c-0.023-0.426 0.066-0.84 0.281-1.242-0.48 0-1.027 0.066-1.64 0.199-0.985 0.215-1.133 0.547-0.438 1 0.637 0.43 1.371 0.641 2.199 0.641 2.801 0 3.774-0.426 2.918-1.278z" inkscape:connector-curvature="0"></path> <path id="path100" style="fill-rule:evenodd;fill:#ffffff;fill-opacity:.0667" d="m38.574 31.167c2.563-0.105 4.11-0.437 4.641-1 0.32-0.32 0.242-0.773-0.238-1.359-0.348-0.426-1.215-0.707-2.602-0.84-1.52-0.105-3.027 0.055-4.52 0.481-1.464 0.425-1.679 1-0.64 1.718 0.988 0.723 2.105 1.055 3.359 1z" inkscape:connector-curvature="0"></path> <path id="path102" style="fill-rule:evenodd;fill:#ffffff;fill-opacity:.0667" d="m60.535 36.769c3.653-0.133 4.961-0.574 3.922-1.32-0.297-0.215-1.066-0.348-2.32-0.403-1.336-0.023-2.668 0.082-4 0.321-1.309 0.242-1.508 0.546-0.602 0.921 0.879 0.375 1.879 0.532 3 0.481z" inkscape:connector-curvature="0"></path> <path id="path104" style="fill-rule:evenodd;fill:#ffffff;fill-opacity:.0667" d="m69.016 35.128c2.613-0.105 4.187-0.375 4.718-0.8 0.321-0.266 0.243-0.625-0.238-1.079-0.375-0.347-1.254-0.546-2.641-0.601-1.519-0.078-3.039 0.055-4.558 0.398-1.496 0.348-1.723 0.801-0.68 1.364 1.012 0.558 2.145 0.796 3.399 0.718z" inkscape:connector-curvature="0"></path> <path id="path106" style="fill-rule:evenodd;fill:#ffffff;fill-opacity:.0667" d="m77.574 35.206c1.336-0.183 2.137-0.386 2.403-0.597 0.132-0.106 0.078-0.242-0.161-0.403-0.187-0.105-0.64-0.132-1.359-0.078-0.801 0.051-1.59 0.188-2.363 0.399-0.746 0.215-0.84 0.402-0.278 0.562 0.504 0.16 1.094 0.199 1.758 0.117z" inkscape:connector-curvature="0"></path> <path id="path108" style="fill-rule:evenodd;fill:#ffffff;fill-opacity:.0667" d="m77.934 29.73c2.8-0.082 4.496-0.387 5.082-0.922 0.347-0.348 0.254-0.812-0.282-1.398-0.371-0.43-1.304-0.707-2.8-0.84-1.653-0.137-3.305 0.011-4.957 0.437-1.602 0.403-1.84 0.973-0.723 1.723 1.094 0.719 2.32 1.051 3.68 1z" inkscape:connector-curvature="0"></path> <path id="path110" style="fill-rule:evenodd;fill:#ffffff;fill-opacity:.0667" d="m71.215 26.367c2.773-0.161 3.746-0.625 2.922-1.399-0.242-0.238-0.828-0.371-1.762-0.398-1.012-0.055-2.027 0.051-3.039 0.316-0.961 0.27-1.094 0.602-0.402 1 0.668 0.375 1.429 0.535 2.281 0.481z" inkscape:connector-curvature="0"></path> <path id="path112" style="fill-rule:evenodd;fill:#ffffff;fill-opacity:.0667" d="m63.734 31.167c1.762-0.078 2.817-0.281 3.161-0.597 0.214-0.215 0.16-0.496-0.161-0.84-0.238-0.242-0.824-0.387-1.757-0.442-1.067-0.082-2.11 0.012-3.122 0.282-0.988 0.265-1.132 0.613-0.441 1.039 0.695 0.398 1.469 0.586 2.32 0.558z" inkscape:connector-curvature="0"></path> <path id="path114" style="fill-rule:evenodd;fill:#000000;fill-opacity:0.298" d="m48.977 38.288c-1.707-0.48-2.868-0.746-3.481-0.8-1.148-0.133-2.039-0.305-2.68-0.52-0.453-0.16-1.082-0.238-1.882-0.238-0.934-0.027-1.559-0.067-1.879-0.121-0.16-0.028-0.547-0.055-1.16-0.078-0.532-0.055-0.735-0.227-0.598-0.524-0.215 0-0.774 0.016-1.68 0.043-0.695 0.051-1.254 0.039-1.683-0.043-2.239-0.426-3.411-0.636-3.52-0.636-0.586-0.055-1.453-0.083-2.598-0.083-0.668-0.054-0.761-0.187-0.281-0.398 0.242-0.137 0.613-0.309 1.121-0.519l-1.519-0.161 0.277-0.121c-0.453-0.054-1.144-0.054-2.078 0l-1.719-0.121c-0.109-0.027-0.226-0.039-0.363-0.039-0.106-0.027-0.184-0.105-0.238-0.242-0.508-0.024-1.094-0.199-1.762-0.52-0.797-0.371-1.371-0.597-1.719-0.679 0.027-0.16 0.188-0.278 0.481-0.36 0.375-0.132 0.574-0.215 0.601-0.238 0.051-0.027 0.16-0.187 0.317-0.48h-1.079c-0.453 0-0.812-0.039-1.078-0.122l0.039-0.121c-0.265 0-0.414-0.089-0.441-0.277 0.187-0.082 0.48-0.121 0.879-0.121 0.402-0.027 0.68-0.066 0.84-0.121-0.266 0-0.68-0.051-1.239-0.16-0.238-0.028-0.718-0.067-1.441-0.117-0.613-0.083-1.051-0.204-1.32-0.364l0.402-0.277c-0.16-0.082-0.43-0.133-0.801-0.16-0.398-0.028-0.668-0.055-0.8-0.082 0.027-0.078 0.027-0.211 0-0.399-0.481 0-0.84-0.027-1.079-0.082-0.027-0.133-0.16-0.226-0.402-0.277l0.203-0.199c-0.668 0-1.347 0.078-2.043 0.238l0.723-0.281c-0.32-0.16-0.68-0.145-1.082 0.043-0.184 0.09-0.457 0.25-0.82 0.476 0.261-0.172 0.628-0.453 1.101-0.84-0.836 0-1.469-0.023-1.902-0.078 0.066-0.015 0.168-0.07 0.301-0.16l-2.879 0.078c3.254 1.442 6.027 2.481 8.32 3.121-0.32 0.133-0.52 0.243-0.602 0.321 1.2 0.054 2.282 0.386 3.243 1 0 0.187-0.11 0.32-0.321 0.398 0.239 0.109 0.895 0.336 1.961 0.684 0.797 0.238 1.332 0.504 1.598 0.797l3.562 0.882c-0.187 0.078-0.617 0.278-1.281 0.598 2.453-0.055 4.332-0.055 5.641 0 2.32 0.055 4.078 0.441 5.277 1.16-0.48 0.055-1.254 0.149-2.32 0.281 7.496 0.559 13.121 0.907 16.883 1.039z" inkscape:connector-curvature="0"></path> <path id="path116" style="fill-rule:evenodd;fill:#493e5c" d="m57.016 35.089c0.293 0.211 0.64 0.278 1.039 0.199h0.199c-0.051-0.265-0.238-0.414-0.559-0.441-0.32-0.051-0.547 0.027-0.679 0.242zm-1.961 1-0.438-0.922c-0.215-0.398-0.535-0.546-0.961-0.437-0.082 0.293 0.055 0.543 0.399 0.758l1 0.601zm1.199-0.402 0.601-0.399c-0.398-0.402-0.785-0.507-1.16-0.32-0.078 0.399 0.106 0.641 0.559 0.719zm5.48-1.481c0.348 0.43 0.989 0.59 1.922 0.481l3.399 0.402c-0.664-0.426-1.547-0.734-2.641-0.922-0.797-0.16-1.504-0.214-2.117-0.16-0.215 0.028-0.43 0.067-0.641 0.121l0.078 0.078zm-11.16 1.043c0.11 0.239 0.27 0.52 0.481 0.84h1.199c0.109-0.883-0.293-1.426-1.199-1.64-0.239-0.055-0.414-0.055-0.52 0 0.027 0.32 0.039 0.586 0.039 0.8zm-6.797-1.761c-0.242 0.027-0.523 0.105-0.843 0.242-0.504 0.211-0.813 0.332-0.918 0.359-0.266 0.024-0.481 0.051-0.641 0.078-0.32 0.028-0.508 0.082-0.559 0.161-0.375 0.48 0.067 0.746 1.321 0.8 0.64 0.028 1.414 0.012 2.32-0.039l0.598 0.199c0.402 0.079 0.761-0.015 1.082-0.281 0.32-0.265 0.371-0.586 0.16-0.961-0.16-0.293-0.481-0.476-0.961-0.558-0.402-0.078-0.906-0.078-1.52 0h-0.039zm11.399-3.602 1.078-0.398c-1.094-0.16-1.84-0.16-2.238 0-0.055 0.027-0.106 0.054-0.161 0.082l-0.039 0.039 0.84 0.48 0.52-0.203zm3 0.602c0.426 0.027 0.879 0.027 1.359 0h0.121l2.598-1c-0.024-0.668-0.891-0.918-2.598-0.758-0.773 0.078-1.293 0.238-1.562 0.476-0.293 0.27-0.344 0.614-0.16 1.043 0.027 0.079 0.066 0.161 0.121 0.239h0.121zm5.519-0.399c-0.078 0.133-0.093 0.266-0.039 0.399 0.266 0.054 0.625 0.027 1.078-0.078 0.508-0.082 0.883-0.122 1.121-0.122l0.282-0.281 1.718-1.519c-0.585-0.055-1.464 0.148-2.64 0.601-0.852 0.344-1.36 0.68-1.52 1zm4.961 2.399 2.121-0.36c0.051 0.028 0.118 0.039 0.2 0.039 0.8 0.028 1.293-0.066 1.48-0.281l-1.68 0.242c-0.75-0.027-1.226-0.039-1.441-0.039-1.602 0.024-3.215 0.024-4.84 0 0.371 0.024 1.066 0.106 2.078 0.239 0.856 0.105 1.547 0.16 2.082 0.16zm-20.601 3.199v-0.801c0.027-0.238-0.039-0.437-0.2-0.598-0.375 0.079-0.492 0.305-0.359 0.68 0.106 0.238 0.293 0.481 0.559 0.719z" inkscape:connector-curvature="0"></path> <path id="path118" style="fill-rule:evenodd;fill:#282236" d="m43.137 33.488h0.679c0.614-0.078 1.118-0.078 1.52 0 0.187-0.055 0.48-0.133 0.879-0.239 0.402-0.136 0.734-0.175 1-0.121 0.055 0.426 0.055 0.868 0 1.321 0.105-0.348 0.347-0.719 0.719-1.121 0.429-0.454 0.8-0.586 1.121-0.399 0.187 0.078 0.281 0.387 0.281 0.918-0.027 0.586-0.016 0.934 0.039 1.039 0.215 0.59 0.625 1 1.242 1.242 0-0.027-0.015-0.32-0.043-0.879 0-0.214-0.012-0.48-0.039-0.8-0.027-0.719 0.055-1.227 0.242-1.52 0.184 0.348 0.547 0.641 1.078 0.879 0.215 0.078 0.668 0.227 1.36 0.441-0.106-0.187-0.227-0.535-0.36-1.043-0.105-0.453-0.226-0.785-0.359-1 0.774 0.747 2.199 1.297 4.281 1.641 0.797 0.133 1.84 0.227 3.118 0.281 0.722 0.028 1.335 0.055 1.839 0.078l-0.078-0.078c0.211-0.054 0.426-0.093 0.641-0.121-0.242-0.133-0.508-0.293-0.801-0.48-0.266-0.211-0.496-0.387-0.68-0.52-1.175-0.238-2.441-0.613-3.8-1.121-0.321-0.078-0.559-0.156-0.719-0.238-0.242-0.106-0.402-0.266-0.481-0.481-0.027 0.375 0.094 0.735 0.36 1.082 0.238 0.321 0.558 0.547 0.961 0.68l-2.442-0.562c-1.039-0.239-1.851-0.321-2.441-0.239-0.024 0.133-0.012 0.332 0.043 0.602-0.242 0.023-0.574-0.188-1-0.641-0.375-0.426-0.668-0.574-0.883-0.441-0.133 0.082-0.199 0.226-0.199 0.441v0.598c-0.215-0.211-0.348-0.399-0.399-0.559-0.64 0.078-1.546 0.266-2.722 0.559-1.25 0.348-2.16 0.562-2.719 0.641-0.398 0.054-0.813 0.105-1.238 0.16zm2.879-1.602c0.105-0.023 0.226-0.051 0.359-0.078h0.039c0.082-0.055 0.16-0.121 0.242-0.199 0.188-0.215 0.266-0.547 0.239-1-0.028-0.426-0.106-0.774-0.239-1.039 0.293 0.051 0.824 0.25 1.598 0.597 0.723 0.243 1.254 0.293 1.601 0.161 0.348-0.161 0.536-0.454 0.559-0.879 0.027-0.243 0.043-0.614 0.043-1.121 0.293 0.082 1.012 0.347 2.16 0.8 0.449 0.188 0.863 0.332 1.238 0.442 0.055-0.028 0.106-0.055 0.161-0.082-0.133-0.055-0.282-0.121-0.442-0.2-1.117-0.48-2.558-1.519-4.32-3.121-0.051 0.161 0.016 0.696 0.203 1.602 0.133 0.746 0.051 1.199-0.242 1.359-0.106 0.078-0.426 0.106-0.961 0.078-0.504 0-0.852-0.023-1.039-0.078-0.188-0.027-0.598-0.242-1.238-0.64-0.536-0.348-0.907-0.481-1.122-0.399 0.508 0.344 0.879 0.641 1.122 0.879 0.48 0.371 0.707 0.746 0.679 1.121-0.054 0.559-0.656 0.907-1.801 1.039-0.585 0.055-1.332 0.067-2.238 0.039-1.336-0.054-2.094-0.078-2.281-0.078-2.082 0-3.441-0.066-4.082-0.203 0.242 0.082 0.746 0.363 1.523 0.844 0.614 0.344 1.157 0.547 1.637 0.598 0.641 0.054 1.586 0.039 2.84-0.04 0.32 0 0.668-0.015 1.043-0.039 0.133-0.054 0.265-0.109 0.398-0.16-0.558 0.051-1.039-0.015-1.441-0.203h2c-0.16 0.027-0.344 0.094-0.559 0.203h0.039c0.348-0.027 0.856-0.093 1.52-0.203 0.16-0.023 0.414-0.023 0.762 0zm-7.039 1.481c1.117-0.161 2.066-0.348 2.839-0.559-0.429 0.055-0.828 0.078-1.199 0.078-0.668-0.023-1.16-0.039-1.48-0.039-0.586 0-1.067 0.039-1.442 0.121 0.348 0.188 0.774 0.32 1.282 0.399zm17.957-4.879c0.242 0.668 0.574 1.254 1 1.761-0.184-0.429-0.133-0.773 0.16-1.043-0.184-0.265-0.492-0.746-0.918-1.437-0.028 0.078-0.106 0.32-0.242 0.719zm9.203 1.519-0.282 0.281c-0.238 0-0.613 0.04-1.121 0.122-0.453 0.105-0.812 0.132-1.078 0.078-0.054-0.133-0.039-0.266 0.039-0.399-0.718 0-1.304 0.012-1.761 0.039 1.734-0.16 2.828-0.812 3.281-1.961-0.399 0.454-0.895 0.829-1.481 1.121-0.347 0.161-0.945 0.387-1.8 0.68-0.477 0.188-0.852 0.332-1.118 0.442-0.48 0.16-0.867 0.199-1.16 0.117-0.027 0-0.066-0.012-0.121-0.039-0.48 0.027-0.933 0.027-1.359 0 0.105 0.133 0.238 0.265 0.398 0.398 0.774 0.641 1.668 0.977 2.68 1h-0.758c0.613 0.027 1.52 0.309 2.719 0.844 0.402 0.183 0.773 0.332 1.121 0.437h-0.559c-0.91 0.055-1.574 0.055-2 0 0.051 0.028 0.118 0.039 0.2 0.039 0.425 0.082 1.078 0.161 1.957 0.243 1.281 0.187 2.91 0.281 4.882 0.281l10.641-0.242c-0.883 0-2.016-0.106-3.402-0.321-1.785-0.238-3.028-0.371-3.719-0.398-2.348-0.16-4.094-0.254-5.242-0.281 0.988 0 2.468 0.015 4.441 0.039 0.641-0.024 1.36-0.145 2.16-0.36 0.481-0.132 1.188-0.359 2.121-0.679-2.64 0.265-6.214 0.398-10.722 0.398-0.77 0.082-1.371 0.11-1.797 0.082-0.746-0.082-1.027-0.426-0.84-1.039 0.559-0.027 1.371-0.094 2.438-0.199 1.253-0.082 2.039-0.176 2.359-0.281 0.187-0.082 0.414-0.243 0.68-0.481 0.269-0.215 0.48-0.359 0.64-0.441-0.664 0.242-1.48 0.402-2.437 0.48zm2.519 2.481c-0.535 0-1.226-0.055-2.082-0.16-1.012-0.133-1.707-0.215-2.078-0.239 1.625 0.024 3.238 0.024 4.84 0 0.215 0 0.691 0.012 1.441 0.039l1.68-0.242c-0.187 0.215-0.68 0.309-1.48 0.281-0.082 0-0.149-0.011-0.2-0.039l-2.121 0.36z" inkscape:connector-curvature="0"></path> <path id="path120" style="fill-rule:evenodd;fill:#13101a" d="m38.977 33.367c-0.426 0.082-0.895 0.148-1.403 0.203 0.137 0.133 0.469 0.199 1 0.199 0.293 0 0.614-0.016 0.961-0.039 1.281-0.027 2.481-0.109 3.602-0.242 0.425-0.055 0.84-0.106 1.238-0.16 0.559-0.079 1.469-0.293 2.719-0.641 1.176-0.293 2.082-0.481 2.722-0.559 0.051 0.16 0.184 0.348 0.399 0.559v-0.598c0-0.215 0.066-0.359 0.199-0.441 0.215-0.133 0.508 0.015 0.883 0.441 0.426 0.453 0.758 0.664 1 0.641-0.055-0.27-0.067-0.469-0.043-0.602 0.59-0.082 1.402 0 2.441 0.239l2.442 0.562c-0.403-0.133-0.723-0.359-0.961-0.68-0.266-0.347-0.387-0.707-0.36-1.082 0.079 0.215 0.239 0.375 0.481 0.481 0.16 0.082 0.398 0.16 0.719 0.238 1.359 0.508 2.625 0.883 3.8 1.121 0.211 0.055 0.426 0.094 0.641 0.121 0.078 0.028 0.184 0.039 0.32 0.039 0.426 0.055 1.09 0.055 2 0h0.559c-0.348-0.105-0.719-0.254-1.121-0.437-1.199-0.535-2.106-0.817-2.719-0.844h0.758c-1.012-0.023-1.906-0.359-2.68-1-0.16-0.133-0.293-0.265-0.398-0.398h-0.121c-0.055-0.078-0.094-0.16-0.121-0.239-0.426-0.507-0.758-1.093-1-1.761 0-0.028-0.012-0.067-0.039-0.121-0.133 0.668-0.344 1.109-0.641 1.32-0.266 0.187-0.613 0.254-1.039 0.199h-0.039l-0.52 0.203-0.84-0.48 0.039-0.039c-0.375-0.11-0.785-0.254-1.238-0.442-1.148-0.453-1.867-0.718-2.16-0.8 0 0.507-0.016 0.878-0.043 1.121-0.027 0.425-0.211 0.718-0.559 0.879-0.347 0.132-0.878 0.082-1.601-0.161-0.774-0.347-1.305-0.546-1.598-0.597 0.133 0.265 0.211 0.613 0.239 1.039 0.027 0.453-0.051 0.785-0.239 1-0.082 0.078-0.16 0.144-0.242 0.199-0.105 0.055-0.238 0.078-0.398 0.078-0.348-0.023-0.602-0.023-0.762 0-0.664 0.11-1.172 0.176-1.52 0.203h-0.039c0.215-0.109 0.399-0.176 0.559-0.203h-2c0.402 0.188 0.883 0.254 1.441 0.203-0.133 0.051-0.265 0.106-0.398 0.16l-0.043 0.039c-0.477 0.239-0.824 0.387-1.039 0.442-0.133 0.023-0.266 0.051-0.399 0.078-0.773 0.215-1.722 0.398-2.839 0.559z" inkscape:connector-curvature="0"></path> <g id="g122"> <g id="g124"> <g id="g130"> <path id="path138" style="fill-rule:evenodd;fill:url(#linearGradient132)" d="m54.773 80.128 1.602 1.121c0.695 0.454 1.613 0.774 2.762 0.957 2.265 0.403 4.48-0.027 6.636-1.277 2.161-1.254 3.707-2.933 4.641-5.043 0.481-1.039 0.734-1.957 0.762-2.758l-2.879-4.48c-2.055-4.106-3.363-8.985-3.922-14.641-0.266-2.851-0.094-5.773 0.52-8.758 0.64-2.933 1.574-5.336 2.8-7.203 1.149-1.73 2.735-3.41 4.762-5.039 1.012-0.828 1.906-1.465 2.68-1.918l-1.242-0.242c-1.04-0.16-2.122-0.266-3.239-0.32-0.961-0.024-2.453 0.066-4.48 0.281l-0.481-0.121c0.668-0.719 1.961-1.641 3.879-2.758l-2.16-0.121c-1.68-0.027-3.133 0.066-4.359 0.281-0.215 0.024-1.078 0.184-2.598 0.481-1.043 0.183-1.949 0.304-2.723 0.359-0.664-0.055-1.664-0.016-3 0.117-1.597 0.188-2.652 0.282-3.16 0.282-0.504-0.106-1.359-0.426-2.558-0.961-1.309-0.481-2.668-0.704-4.082-0.68-1.918 0.055-3.493 0.242-4.719 0.562-0.586 0.133-1 0.278-1.238 0.438 1.414 0.723 2.265 1.266 2.558 1.641-0.105 0.027-1.265 0.093-3.48 0.199-1.895 0.082-3.293 0.347-4.2 0.801 0.719 0.507 1.586 1.785 2.602 3.839 2.023 4.11 3.797 10 5.316 17.68 1.977 9.789 5 17.453 9.082 23 1.282 1.734 2.586 3.16 3.918 4.281z" inkscape:connector-curvature="0"></path> </g> </g> </g> <g id="g140"> <g id="g142"> <g id="g148"> <path id="path156" style="fill-rule:evenodd;fill:url(#radialGradient150)" d="m85.977 61.73c0-3.121-2.336-5.934-7-8.442-6.266-3.414-15.403-5-27.403-4.761-9.597 0.187-17.586 1.547-23.957 4.082-5.949 2.398-9.027 5.172-9.242 8.32-0.078 1.438 1.027 3.906 3.32 7.399 2.321 3.546 5.2 7.121 8.641 10.718 8.824 9.254 16.305 13.883 22.441 13.883 6 0 13.239-4.652 21.719-13.961 3.172-3.492 5.906-7 8.199-10.519 2.188-3.336 3.282-5.575 3.282-6.719z" inkscape:connector-curvature="0"></path> </g> </g> </g> <path id="path158" style="fill-rule:evenodd;fill:#ffffff;fill-opacity:.2" d="m48.176 90.128c-1.68-0.32-2.614-0.066-2.801 0.758 2.613 1.281 4.949 1.961 7 2.043-0.078-0.535-0.508-1.066-1.281-1.601-0.797-0.559-1.77-0.961-2.918-1.2z" inkscape:connector-curvature="0"></path> <path id="path160" style="fill-rule:evenodd;fill:#ffffff;fill-opacity:.2" d="m43.375 87.929c0.852 0.078 1.375-0.148 1.559-0.68 0.187-0.453 0.109-1.043-0.239-1.761-0.933-1.84-2.105-2.559-3.519-2.16-1.281 0.375-1.465 1.214-0.559 2.519 0.852 1.281 1.774 1.973 2.758 2.082z" inkscape:connector-curvature="0"></path> <path id="path162" style="fill-rule:evenodd;fill:#ffffff;fill-opacity:.2" d="m59.777 88.527c-0.617 0.426-0.933 0.906-0.961 1.441-0.027 0.453 0.145 0.879 0.52 1.281 1.199-0.586 2.547-1.363 4.039-2.32 0.242-0.75-0.078-1.148-0.961-1.199-0.852-0.055-1.73 0.211-2.637 0.797z" inkscape:connector-curvature="0"></path> <path id="path164" style="fill-rule:evenodd;fill:#ffffff;fill-opacity:.2" d="m63.977 85.527c1.89-1.094 2.957-2.239 3.199-3.438 0.215-1.066-0.121-1.722-1-1.961-1.332-0.375-2.602 0.426-3.801 2.399-0.613 1.015-0.719 1.894-0.32 2.64 0.402 0.746 1.039 0.868 1.922 0.36z" inkscape:connector-curvature="0"></path> <path id="path166" style="fill-rule:evenodd;fill:#ffffff;fill-opacity:.2" d="m71.375 82.249c2.082-2.082 4.055-4.242 5.922-6.48-0.563-0.215-1.309-0.133-2.242 0.238-1.067 0.426-2.028 1.133-2.879 2.121-0.719 0.879-1.133 1.719-1.242 2.52-0.106 0.746 0.043 1.281 0.441 1.601z" inkscape:connector-curvature="0"></path> <path id="path168" style="fill-rule:evenodd;fill:#ffffff;fill-opacity:.2" d="m68.777 71.929c-1.441-0.375-2.375 0.426-2.8 2.399-0.426 1.972-0.227 3.039 0.597 3.199 1.36 0.32 2.453-0.438 3.281-2.278 0.829-1.839 0.465-2.949-1.078-3.32z" inkscape:connector-curvature="0"></path> <path id="path170" style="fill-rule:evenodd;fill:#ffffff;fill-opacity:.2" d="m30.336 79.089c1.598 1.598 2.812 2.785 3.641 3.559 0.64-0.106 0.625-0.785-0.043-2.039-0.664-1.281-1.383-2.039-2.157-2.281-0.828-0.215-1.308 0.039-1.441 0.761z" inkscape:connector-curvature="0"></path> <path id="path172" style="fill-rule:evenodd;fill:#ffffff;fill-opacity:.2" d="m36.777 78.929c1.012 0.238 1.653 0 1.918-0.723 0.215-0.613 0.106-1.453-0.32-2.519-1.066-2.664-2.332-3.785-3.801-3.359-1.304 0.375-1.558 1.507-0.758 3.402 0.774 1.863 1.758 2.93 2.961 3.199z" inkscape:connector-curvature="0"></path> <path id="path174" style="fill-rule:evenodd;fill:#ffffff;fill-opacity:.2" d="m44.777 74.929c-1.949 0.184-2.468 1.387-1.562 3.598 0.906 2.215 2.027 3.281 3.359 3.203 1.762-0.109 2.414-1.32 1.961-3.641-0.48-2.293-1.734-3.347-3.758-3.16z" inkscape:connector-curvature="0"></path> <path id="path176" style="fill-rule:evenodd;fill:#ffffff;fill-opacity:.2" d="m49.375 89.527c1.707 0.109 2.266-0.465 1.68-1.719-0.586-1.227-1.481-1.785-2.68-1.68-1.039 0.106-1.348 0.692-0.918 1.758 0.426 1.043 1.066 1.59 1.918 1.641z" inkscape:connector-curvature="0"></path> <g id="g178"> <g id="g180"> <g id="g186"> <path id="path196" style="fill-rule:evenodd;fill:url(#linearGradient188)" d="m84.574 65.41c0.934-1.735 1.403-2.961 1.403-3.68 0-3.121-2.336-5.934-7-8.442-6.266-3.414-15.403-5-27.403-4.761-9.597 0.187-17.586 1.547-23.957 4.082-5.949 2.398-9.027 5.172-9.242 8.32-0.051 0.934 0.426 2.348 1.441 4.238 0.961 1.84 2.321 3.934 4.079 6.282 0.562 0.105 0.988-0.52 1.281-1.879 0.187-0.75 0.375-1.895 0.558-3.442 0.266-1.332 0.602-3.16 1-5.48 0.641-1.442 2.082-1.559 4.321-0.36 2.879 1.547 5.16 2.493 6.84 2.84 2.105 0.453 4.093 0.215 5.96-0.718 1.333-0.668 3.282-2.122 5.84-4.364 2.321-1.597 4.375-1.746 6.16-0.437 3.04 2.211 6.055 3.746 9.04 4.597 4.187 1.176 7.574 0.707 10.16-1.398 1.519-1.254 2.746-1.16 3.679 0.281 0.746 1.172 1.121 2.774 1.121 4.797 0 2.215 0.055 3.629 0.161 4.242 0.105 0.692 0.359 1.078 0.761 1.16 1.598-2.187 2.864-4.148 3.797-5.878z" inkscape:connector-curvature="0"></path> </g> </g> </g> <g id="g198"> <g id="g200"> <g id="g206"> <path id="path216" style="fill-rule:evenodd;fill:url(#linearGradient208)" d="m85.777 62.808c0.133-0.375 0.2-0.734 0.2-1.078 0-3.121-2.336-5.934-7-8.442-6.266-3.414-15.403-5-27.403-4.761-9.277 0.187-17.066 1.48-23.359 3.883-5.891 2.265-9.145 4.918-9.758 7.957 2.344-3.278 5.84-5.625 10.477-7.039 8.347-2.532 17.816-3.625 28.402-3.282 14.906 0.535 24.387 4.789 28.441 12.762z" inkscape:connector-curvature="0"></path> </g> </g> </g> <g id="g218"> <g id="g220"> <g id="g226"> <path id="path234" style="fill-rule:evenodd;fill:url(#linearGradient228)" d="m37.137 33.085c-0.426 0.934-1.055 1.723-1.883 2.364l-1.117 0.679 0.918-0.359c0.773-0.426 1.586-1.066 2.441-1.922 0.824-0.801 1.238-1.559 1.238-2.277 0.028-0.375-0.039-0.657-0.199-0.84-0.133-0.402-0.547-0.469-1.238-0.203 0.211 0.988 0.16 1.84-0.16 2.558z" inkscape:connector-curvature="0"></path> </g> </g> </g> <g id="g236"> <g id="g238"> <g id="g244"> <path id="path252" style="fill-rule:evenodd;fill:url(#linearGradient246)" d="m39.855 32.089c0.161-0.64 0.188-1.16 0.079-1.562-0.157-0.559-0.786-0.641-1.879-0.239 0.32 1.442 0.226 2.692-0.278 3.758-0.64 1.364-1.617 2.496-2.922 3.403l-1.718 1c0.183 0.054 0.504-0.016 0.957-0.2 0.906-0.402 2.043-1.242 3.402-2.519 1.254-1.176 2.039-2.387 2.359-3.641z" inkscape:connector-curvature="0"></path> </g> </g> </g> <g id="g254"> <g id="g256"> <g id="g262"> <path id="path270" style="fill-rule:evenodd;fill:url(#linearGradient264)" d="m40.016 38.769c1.011-0.641 2.281-1.988 3.8-4.039 1.414-1.895 2.293-3.856 2.641-5.883 0.16-1.039 0.184-1.879 0.078-2.519-0.105-0.559-0.492-0.801-1.16-0.719-0.32 0.051-0.641 0.16-0.961 0.32 0.348 2.344 0.242 4.359-0.32 6.039-0.719 2.188-1.797 4.028-3.239 5.52l-1.921 1.601 1.082-0.32z" inkscape:connector-curvature="0"></path> </g> </g> </g> <g id="g272"> <g id="g274"> <g id="g280"> <path id="path288" style="fill-rule:evenodd;fill:url(#linearGradient282)" d="m65.414 40.488 1.16 0.359-2.16-1.719c-1.598-1.597-2.801-3.574-3.598-5.918-0.375-1.121-0.546-2.535-0.519-4.242 0.023-0.851 0.09-1.586 0.199-2.199l-1.082-0.32c-0.719-0.106-1.16 0.148-1.32 0.757-0.106 0.696-0.067 1.59 0.121 2.68 0.398 2.188 1.387 4.293 2.961 6.32 1.707 2.188 3.121 3.614 4.238 4.282z" inkscape:connector-curvature="0"></path> </g> </g> </g> <g id="g290"> <g id="g292"> <g id="g298"> <path id="path306" style="fill-rule:evenodd;fill:url(#linearGradient300)" d="m59.895 26.929c-0.188 0.348-0.282 0.824-0.282 1.438 0.028 1.254 0.551 2.574 1.563 3.961 1.094 1.519 2.121 2.64 3.078 3.359l1.121 0.601-1.398-1.16c-1.043-1.121-1.817-2.465-2.321-4.039-0.402-1.254-0.48-2.734-0.242-4.441-0.879-0.481-1.387-0.387-1.519 0.281z" inkscape:connector-curvature="0"></path> </g> </g> </g> </g> </g> <metadata></metadata></svg> 