<?xml version="1.0" encoding="UTF-8" standalone="no"?> <svg xmlns:inkscape="http://www.inkscape.org/namespaces/inkscape" xmlns:rdf="http://www.w3.org/1999/02/22-rdf-syntax-ns#" xmlns="http://www.w3.org/2000/svg" xmlns:xlink="http://www.w3.org/1999/xlink" xmlns:ns1="http://sozi.baierouge.fr" xmlns:cc="http://creativecommons.org/ns#" xmlns:dc="http://purl.org/dc/elements/1.1/" xmlns:sodipodi="http://sodipodi.sourceforge.net/DTD/sodipodi-0.dtd" id="svg2" inkscape:version="0.48.3.1 r9886" viewBox="0 0 38.726365 41.771044" sodipodi:docname="_svgclean2.svg"><g id="g4" transform="translate(.015384 .023044)"><radialGradient id="a" gradientUnits="userSpaceOnUse" cy="12.75" cx="29.85" gradientTransform="matrix(1 0 0 -.974 0 25.164)" r="4.737"><stop id="stop7" stop-color="#F8E79C" offset=".051"></stop><stop id="stop9" stop-color="#D29240" offset="1"></stop></radialGradient><path id="path11" d="m34.25 11.6c-0.033-0.167-0.017-0.233 0.05-0.2 0.467 0.133 0.667 0.467 0.6 1-0.066 0.333-0.183 0.867-0.35 1.6-0.033 0.467-0.15 0.8-0.35 1-0.066 0.033-0.434 0.2-1.1 0.5-0.434 0.2-0.95 0.3-1.55 0.3-0.7-0.033-1.185-0.05-1.45-0.05-1.234 0-1.7-0.117-1.4-0.35 0.4-0.2 1.467-0.367 3.2-0.5 1.466-0.167 2.267-1.15 2.4-2.95l-0.05-0.35z" style="fill:url(#a);fill-rule:evenodd" inkscape:connector-curvature="0"></path><radialGradient id="b" gradientUnits="userSpaceOnUse" cy="8.672" cx="29.641" gradientTransform="matrix(1 .021 .021 -.975 -.364 17.123)" r="13.415"><stop id="stop14" stop-color="#EEC163" offset="0"></stop><stop id="stop16" stop-color="#BA3C28" offset="1"></stop></radialGradient><path id="path18" d="m25.95 6.75-0.15-0.05-1.45-1.95l0.35 0.1 2.65 0.5c1.7 0.4 3.334 1 4.9 1.8 2.134 1.133 3.517 2.4 4.15 3.8 0.7 1.566 0.716 3.117 0.05 4.65-0.533 1.1-1.367 2.066-2.5 2.9-0.267 0.167-0.533 0.35-0.8 0.55-0.1 0.034-0.184 0.067-0.25 0.1-1.634 0.9-2.934 1.3-3.9 1.2s-1.733-0.684-2.3-1.75l-0.05-0.05v-0.05c-0.467-0.967-0.467-1.967 0-3 0.5-1 1.133-1.5 1.9-1.5l1.3 0.2c0.333 0.033 0.65 0.066 0.95 0.1 0.433 0 0.782-0.05 1.05-0.15 0.533-0.2 0.883-0.816 1.05-1.85 0.2-1.1-0.034-2.017-0.7-2.75-0.6-0.667-1.85-1.333-3.75-2l-2.5-0.8zm8.3 4.85 0.05 0.35c-0.133 1.8-0.934 2.783-2.4 2.95-1.732 0.133-2.8 0.3-3.2 0.5-0.3 0.233 0.167 0.35 1.4 0.35 0.267 0 0.75 0.017 1.45 0.05 0.6 0 1.117-0.1 1.55-0.3 0.667-0.3 1.034-0.467 1.1-0.5 0.2-0.2 0.317-0.533 0.35-1 0.168-0.733 0.284-1.267 0.352-1.6 0.066-0.533-0.134-0.867-0.6-1-0.07-0.033-0.085 0.033-0.052 0.2z" style="fill:url(#b);fill-rule:evenodd" inkscape:connector-curvature="0"></path><radialGradient id="c" gradientUnits="userSpaceOnUse" cy="7.45" cx="20.35" gradientTransform="matrix(1,0,0,-1.326,0,17.326)" r="23.688"><stop id="stop21" stop-color="#EEC163" offset="0"></stop><stop id="stop23" stop-color="#BA3C28" offset="1"></stop></radialGradient><path id="path25" d="m26.65 18.55c0.233 1 0.9 1.883 2 2.65 1.4 1 2.583 1.3 3.55 0.9 0.9-0.367 1.316-1.05 1.25-2.05 0-0.334-0.1-0.668-0.3-1 0.267-0.2 0.533-0.384 0.8-0.55 0.666 1.3 1.133 2.65 1.4 4.05-0.467-0.2-0.934-0.067-1.4 0.4-0.434 0.433-0.767 1.065-1 1.898-0.334 1.4-1 2.85-2 4.35-1.2 1.8-2.45 2.95-3.75 3.45l-0.4-0.6c0.066-0.166 0.134-0.316 0.2-0.45 0.467-1 0.384-1.966-0.25-2.9l-1.15-1.098c0.267 1.2 0.217 1.55-0.15 1.05-0.232-0.3-0.616-0.566-1.15-0.8-0.832-0.833-1.732-1.133-2.7-0.9-1.032 0.234-1.782 0.834-2.25 1.8-0.365 0.834-0.382 1.734-0.05 2.7-0.1 0.234-0.1 0.468 0 0.7 0.034 0.1 0.2 0.234 0.5 0.4 0.4 0.733 0.835 1.417 1.3 2.05-3.465 0.767-5.932 0.65-7.398-0.35-0.7-0.467-1.3-0.8-1.8-1v-0.05c0.1-0.1 0.267-0.25 0.5-0.45 0.167 0.267 0.367 0.517 0.6 0.75 0.833 0.8 1.567 0.917 2.2 0.35 0.566-0.533 0.9-1.45 1-2.75 0.066-1.033-0.1-2.017-0.5-2.95l-0.3-0.5c0.133 0.3 0.15 0.667 0.05 1.1 0 0.067-0.05 0.084-0.15 0.05-0.167-0.466-0.5-0.982-1-1.55-0.733-0.9-1.417-1.35-2.05-1.35-0.333 0-0.633 0.018-0.9 0.05-0.333-0.766-0.817-1.25-1.45-1.45 0.067 0.135 0.184 0.35 0.35 0.65 0.133 0.3 0.167 0.55 0.1 0.75-0.033 0.1-0.067 0.184-0.1 0.25-0.133-0.533-0.4-1.033-0.8-1.5-0.635-0.8-1.285-1.15-1.952-1.05-0.167 0.034-0.35 0.084-0.55 0.15 0.1-0.467 0.233-0.967 0.4-1.5 0.133-0.366 0.283-0.733 0.45-1.1h0.6c1.1-0.067 2.567-0.134 4.4-0.2 0.167 0 0.333 0.017 0.5 0.05 0.3 0.566 0.883 1.116 1.75 1.65 1.767 1.033 2.917 0.883 3.45-0.45 0.267-0.667 0.217-1.717-0.15-3.15-0.2-0.767-0.434-1.4-0.7-1.9-0.066-0.3-0.15-0.566-0.25-0.8-0.566-1.3-1.85-1.917-3.85-1.85-0.133 0-1.216 0.367-3.25 1.1-0.133 0.066-0.267 0.117-0.4 0.15 0.5-1.4 0.934-2.583 1.3-3.55 0.8-2.2 1.7-4.85 2.7-7.95 0.8-2.1 1.6-3.367 2.4-3.8 2.333-1.2 4.867-0.117 7.6 3.25 0.167 0.2 0.434 0.583 0.8 1.15l-0.35-0.1 1.45 1.95 0.15 0.05c0.733 1.2 1.65 2.717 2.75 4.55 0.434 0.733 1.133 1.733 2.1 3-0.3-0.033-0.616-0.066-0.95-0.1l-1.3-0.2c-0.767 0-1.4 0.5-1.9 1.5-0.466 1.033-0.466 2.033 0 3v0.05zm-4.05-9.55c0.2-0.767 0.317-1.467 0.35-2.1 0.1-1.167-0.416-2.517-1.55-4.05-1.3-1.8-2.666-2.417-4.1-1.85-0.533 0.2-0.933 0.517-1.2 0.95-0.367 0.533-0.667 1.383-0.9 2.55-0.167 0.867-0.434 1.983-0.8 3.35-0.333 1.167-0.517 1.883-0.55 2.15-0.033 0.433 0.167 0.75 0.6 0.95 0.133 0.066 0.867 0.333 2.2 0.8 0.767 0.267 1.7 0.733 2.8 1.4 1.1 0.633 1.8 1 2.1 1.1 0.434 0.167 0.684-0.317 0.75-1.45-0.033-1.3-0.033-2.1 0-2.4 0-0.2 0.1-0.667 0.3-1.4zm3.35 4.65c-0.434 0.4-0.7 0.883-0.8 1.45-0.134 0.833 0 1.45 0.4 1.85 0-0.333 0.016-0.7 0.05-1.1 0.133-0.767 0.4-1.283 0.8-1.55 0.8-0.5 1.316-0.75 1.55-0.75 0.434-0.4 0.15-0.55-0.85-0.45-0.4 0.033-0.784 0.217-1.15 0.55zm5.35 20.55c-0.566 0.4-1.184 0.75-1.85 1.05l-0.05-0.05c0.7-0.3 1.333-0.634 1.9-1zm-22.7-11.15c-0.567-0.2-1-0.133-1.3 0.2 0.6 0 1.067 0.083 1.4 0.25 0.2 0.1 0.466 0.25 0.8 0.45 0.3 0.133 0.583 0.184 0.85 0.15l-0.7-0.2c-0.167-0.367-0.517-0.65-1.05-0.85zm8.95-8c-0.2-0.333-0.517-0.65-0.95-0.95-0.833-0.633-1.8-0.917-2.9-0.85-0.4 0.033-0.75 0.267-1.05 0.7-0.333 0.466-0.3 0.633 0.1 0.5 0.933-0.367 1.917-0.4 2.95-0.1 1 0.333 1.617 0.567 1.85 0.7zm0.75 13c-0.033 0.4-0.017 0.75 0.05 1.05 0-0.4 0.1-0.833 0.3-1.3 0.4-0.9 1.083-1.416 2.05-1.55 1.566-0.233 2.533-0.25 2.9-0.05-0.5-0.334-1.15-0.533-1.95-0.6-0.967-0.067-1.767 0.133-2.4 0.6-0.567 0.434-0.883 1.05-0.95 1.85zm-3.7-1.85c-0.733-0.767-1.483-1.134-2.25-1.1-0.5 0.033-0.7 0.083-0.6 0.15s0.45 0.183 1.05 0.35c0.067 0.033 0.417 0.1 1.05 0.2 0.2 0.033 0.45 0.167 0.75 0.4z" style="fill:url(#c);fill-rule:evenodd" inkscape:connector-curvature="0"></path><radialGradient id="d" gradientUnits="userSpaceOnUse" cy="2.15" cx="17.85" gradientTransform="matrix(1,0,0,-1.725,0,5.858)" r="6.763"><stop id="stop28" stop-color="#F8E79C" offset=".051"></stop><stop id="stop30" stop-color="#EBB259" offset="1"></stop></radialGradient><path id="path32" d="m22.6 9c-0.2 0.733-0.3 1.2-0.3 1.4-0.033 0.3-0.033 1.1 0 2.4-0.066 1.133-0.316 1.617-0.75 1.45-0.3-0.1-1-0.467-2.1-1.1-1.1-0.667-2.034-1.133-2.8-1.4-1.333-0.467-2.066-0.733-2.2-0.8-0.434-0.2-0.633-0.517-0.6-0.95 0.033-0.267 0.217-0.983 0.55-2.15 0.367-1.367 0.633-2.483 0.8-3.35 0.233-1.167 0.533-2.017 0.9-2.55 0.267-0.433 0.667-0.75 1.2-0.95 1.434-0.567 2.8 0.05 4.1 1.85 1.134 1.533 1.65 2.883 1.55 4.05-0.033 0.633-0.15 1.333-0.35 2.1z" style="fill:url(#d);fill-rule:evenodd" inkscape:connector-curvature="0"></path><radialGradient id="e" gradientUnits="userSpaceOnUse" cy="13.45" cx="26.45" gradientTransform="matrix(1,0,0,-1.725,0,36.652)" r="2"><stop id="stop35" stop-color="#F8E79C" offset=".051"></stop><stop id="stop37" stop-color="#EBB259" offset="1"></stop></radialGradient><path id="path39" d="m25.95 13.65c0.366-0.333 0.75-0.517 1.15-0.55 1-0.1 1.283 0.05 0.85 0.45-0.233 0-0.75 0.25-1.55 0.75-0.4 0.267-0.667 0.784-0.8 1.55-0.034 0.4-0.05 0.767-0.05 1.1-0.4-0.4-0.534-1.017-0.4-1.85 0.1-0.567 0.367-1.05 0.8-1.45z" style="fill:url(#e);fill-rule:evenodd" inkscape:connector-curvature="0"></path><path id="path41" d="m33.15 19.05c0.2 0.333 0.3 0.667 0.3 1 0.066 1-0.35 1.684-1.25 2.05-0.967 0.4-2.15 0.1-3.55-0.9-1.1-0.766-1.767-1.65-2-2.65l0.05 0.05c0.566 1.067 1.333 1.65 2.3 1.75s2.267-0.3 3.9-1.2c0.067-0.033 0.15-0.067 0.25-0.1zm-19.85 1.95c1.434 0.066 2.317 0.083 2.65 0.05 0.9-0.133 1.433-0.583 1.6-1.35 0.233-0.967 0.267-1.817 0.1-2.55 0.267 0.5 0.5 1.133 0.7 1.9 0.367 1.434 0.417 2.483 0.15 3.15-0.533 1.333-1.683 1.483-3.45 0.45-0.867-0.534-1.45-1.084-1.75-1.65z" style="fill:#a94b1f;fill-rule:evenodd" inkscape:connector-curvature="0"></path><path id="path43" d="m23 36.7c-1.033 0.1-2.017 0.15-2.95 0.15 0.066-0.1 0.117-0.184 0.15-0.25l-2.8-0.2c-0.033 0.066-0.05 0.133-0.05 0.2-2.2-0.334-4.184-1-5.95-2-0.133-0.067-0.25-0.134-0.35-0.2 0.2-0.434 0.483-0.817 0.85-1.15 0.5 0.2 1.1 0.533 1.8 1 1.466 1 3.933 1.116 7.4 0.35 0.6 0.766 1.233 1.466 1.9 2.1zm8.3-2.5c-0.566 0.366-1.2 0.7-1.9 1l-0.3-0.3c-0.733-0.733-1.366-1.483-1.9-2.25 1.3-0.5 2.55-1.65 3.75-3.45 1-1.5 1.667-2.95 2-4.35 0.234-0.834 0.567-1.467 1-1.9 0.468-0.467 0.935-0.6 1.4-0.4 0.067 0.4 0.117 0.8 0.15 1.2v1.7l-0.1 1.25c-0.067 0.566-0.167 1.133-0.3 1.7l-0.2 0.9-3.6 4.9z" style="fill:#9a3d1b;fill-rule:evenodd" inkscape:connector-curvature="0"></path><radialGradient id="f" gradientUnits="userSpaceOnUse" cy="22.991" cx="34.731" gradientTransform="matrix(1 .024 .04 -1.11 -1.734 48.492)" r="17.955"><stop id="stop46" stop-color="#EEC163" offset="0"></stop><stop id="stop48" stop-color="#BA3C28" offset="1"></stop></radialGradient><path id="path50" d="m23 36.7c-0.667-0.634-1.3-1.334-1.9-2.1-0.466-0.634-0.9-1.317-1.3-2.05l-0.05-0.05c-0.2-0.367-0.35-0.718-0.45-1.05-0.333-0.968-0.316-1.868 0.05-2.7 0.467-0.968 1.217-1.567 2.25-1.8 0.967-0.234 1.867 0.065 2.7 0.898l0.2 0.2c0.467 0.5 0.833 1.017 1.1 1.55l0.65 1.55c0.167 0.3 0.35 0.6 0.55 0.9l0.4 0.6c0.533 0.768 1.166 1.518 1.9 2.25l0.3 0.302 0.05 0.05c1.267 1.134 2.483 1.583 3.65 1.35 1.166-0.267 2.066-1.166 2.7-2.7 0.466-1.133 0.532-2.4 0.2-3.8l-0.65-1.75c-0.1-0.3-0.067-0.733 0.1-1.3l0.05-1.6v-2.3l1.55 4.05c1.033 2.967 1.584 5.184 1.65 6.65 0.1 1.833-0.483 3.3-1.75 4.4-1.334 1.133-3.334 1.766-6 1.9-2.5 0.1-4.85-0.768-7.05-2.602-0.334-0.265-0.633-0.548-0.9-0.848zm0.25-6.6c0-0.4-0.15-0.85-0.45-1.35-0.333-0.533-0.666-0.7-1-0.5-0.633 0.333-0.616 1.45 0.05 3.35 0.267 0.7 0.834 1.467 1.7 2.3h0.05c0.134 0.134 0.3 0.284 0.5 0.45 1.067 0.9 1.85 1.384 2.35 1.45 0.367 0.033 0.534 0.033 0.5 0-0.232-0.333-0.55-0.75-0.95-1.25-0.332-0.4-0.615-0.75-0.85-1.05-0.3-0.333-0.516-0.6-0.65-0.8-0.433-0.533-0.666-0.95-0.7-1.25-0.032-0.267-0.132-0.517-0.3-0.75-0.167-0.2-0.25-0.4-0.25-0.6z" style="fill:url(#f);fill-rule:evenodd" inkscape:connector-curvature="0"></path><radialGradient id="g" gradientUnits="userSpaceOnUse" cy="11.09" cx="2.981" gradientTransform="matrix(1 .021 .02 -.974 -.455 21.888)" r="17.366"><stop id="stop53" stop-color="#EEC163" offset="0"></stop><stop id="stop55" stop-color="#BA3C28" offset="1"></stop></radialGradient><path id="path57" d="m17.65 17.15c0.167 0.733 0.133 1.583-0.1 2.55-0.167 0.767-0.7 1.216-1.6 1.35-0.333 0.033-1.217 0.017-2.65-0.05-0.167-0.033-0.333-0.05-0.5-0.05-1.833 0.066-3.3 0.133-4.4 0.2h-0.6c-1.733 0-3.1-0.25-4.1-0.75-1.467-0.767-2.517-1.85-3.15-3.25-0.7-1.566-0.75-3.333-0.15-5.3 0.633-2.2 2.7-4.167 6.2-5.9 1.467-0.7 3.967-1.467 7.5-2.3l-1.3 3.4c-2.8 0.233-4.917 0.7-6.35 1.4-2 0.966-2.883 2.417-2.65 4.35 0.233 1.8 1.05 2.9 2.45 3.3 0.867 0.267 2.083 0.15 3.65-0.35 0.133-0.033 0.267-0.083 0.4-0.15 2.034-0.733 3.117-1.1 3.25-1.1 2-0.067 3.284 0.55 3.85 1.85 0.1 0.233 0.183 0.5 0.25 0.8zm-16.45-5.45c-0.267 0.667-0.284 1.633-0.05 2.9 0.2 1.3 0.5 2.2 0.9 2.7 0.267 0.367 0.717 0.65 1.35 0.85 0.333 0.133 0.617 0.333 0.85 0.6 0.2 0.133 0.617 0.083 1.25-0.15 1.033-0.333 2.617-0.5 4.75-0.5 0.867 0 2.083-0.333 3.65-1 0.233-0.2 0.35-0.383 0.35-0.55 0.033-0.367-0.5-0.517-1.6-0.45-0.767 0.066-2.083 0.316-3.95 0.75-1.567 0.4-2.667 0.55-3.3 0.45-0.833-0.133-1.5-0.583-2-1.35-0.467-0.733-0.683-1.567-0.65-2.5 0.2-1.233 0.317-2.067 0.35-2.5 0.066-0.667-0.25-0.784-0.95-0.35-0.467 0.333-0.783 0.7-0.95 1.1z" style="fill:url(#g);fill-rule:evenodd" inkscape:connector-curvature="0"></path><radialGradient id="h" gradientUnits="userSpaceOnUse" cy="12.95" cx="3.5" gradientTransform="matrix(1 0 0 -.975 0 25.571)" r="9.838"><stop id="stop60" stop-color="#F8E79C" offset=".051"></stop><stop id="stop62" stop-color="#D29240" offset="1"></stop></radialGradient><path id="path64" d="m1.2 11.7c0.167-0.4 0.483-0.767 0.95-1.1 0.7-0.434 1.017-0.317 0.95 0.35-0.033 0.433-0.15 1.267-0.35 2.5-0.033 0.933 0.183 1.767 0.65 2.5 0.5 0.767 1.167 1.216 2 1.35 0.633 0.1 1.733-0.05 3.3-0.45 1.867-0.434 3.183-0.684 3.95-0.75 1.1-0.067 1.633 0.083 1.6 0.45 0 0.167-0.117 0.35-0.35 0.55-1.566 0.667-2.783 1-3.65 1-2.133 0-3.717 0.167-4.75 0.5-0.633 0.233-1.05 0.283-1.25 0.15-0.233-0.267-0.517-0.467-0.85-0.6-0.633-0.2-1.083-0.483-1.35-0.85-0.4-0.5-0.7-1.4-0.9-2.7-0.233-1.267-0.217-2.233 0.05-2.9z" style="fill:url(#h);fill-rule:evenodd" inkscape:connector-curvature="0"></path><radialGradient id="i" gradientUnits="userSpaceOnUse" cy="25.951" cx="2.559" gradientTransform="matrix(1 .021 .021 -.974 -1.102 51.221)" r="8.239"><stop id="stop67" stop-color="#EEC163" offset="0"></stop><stop id="stop69" stop-color="#BA3C28" offset="1"></stop></radialGradient><path id="path71" d="m6.95 23.75c0.2-0.066 0.383-0.116 0.55-0.15 0.667-0.1 1.317 0.25 1.95 1.05 0.4 0.467 0.667 0.967 0.8 1.5l0.05 0.05-0.05 0.05-0.3 0.1c-0.034 0.035-0.083 0.068-0.15 0.102-0.667 0.398-1.3 1.114-1.9 2.148l-0.1 0.2c-0.267 0.434-0.5 0.934-0.7 1.5v0.05c-0.067 0.034-0.15 0.067-0.25 0.1l-1.15 0.65h1.15c-0.167 0.6-0.317 1.267-0.45 2v0.05c-0.433 0.067-0.85 0.084-1.25 0.05-1.133-0.1-2.033-0.467-2.7-1.1-0.8-0.8-1-1.85-0.6-3.15 0.4-1.266 1.3-2.482 2.7-3.65 0.933-0.767 1.733-1.283 2.4-1.55zm-0.15 0.85c-0.1 0.034-0.216 0.084-0.35 0.15-1.867 0.934-3 2-3.4 3.2-0.633 1.833-0.816 2.616-0.55 2.35 0.067-0.066 0.15-0.217 0.25-0.45 0.067-0.166 0.25-0.35 0.55-0.55 0.267-0.166 0.583-0.316 0.95-0.45 0.267-0.066 0.45-0.183 0.55-0.35 0.1-0.134 0.217-0.434 0.35-0.9 0.1-0.3 0.1-0.583 0-0.85-0.066-0.1 0.083-0.283 0.45-0.55l1.65-1.2c0.267-0.134 0.383-0.3 0.35-0.5-0.067-0.134-0.333-0.1-0.8 0.1z" style="fill:url(#i);fill-rule:evenodd" inkscape:connector-curvature="0"></path><radialGradient id="j" gradientUnits="userSpaceOnUse" cy="23.1" cx="8.65" gradientTransform="matrix(1,0,0,-1.728,0,63.025)" r="1.012"><stop id="stop74" stop-color="#E8A736" offset=".051"></stop><stop id="stop76" stop-color="#E17D57" offset="1"></stop></radialGradient><path id="path78" d="m8.6 23.05c0.533 0.2 0.883 0.483 1.05 0.85l0.7 0.2c-0.267 0.034-0.55-0.017-0.85-0.15-0.333-0.2-0.6-0.35-0.8-0.45-0.333-0.166-0.8-0.25-1.4-0.25 0.3-0.333 0.733-0.4 1.3-0.2z" style="fill:url(#j);fill-rule:evenodd" inkscape:connector-curvature="0"></path><radialGradient id="k" gradientUnits="userSpaceOnUse" cy="26.25" cx="3.35" gradientTransform="matrix(1 0 0 -.974 0 51.811)" r="4.763"><stop id="stop81" stop-color="#F5DC70" offset=".051"></stop><stop id="stop83" stop-color="#CE7D2C" offset="1"></stop></radialGradient><path id="path85" d="m6.8 24.6c0.467-0.2 0.733-0.233 0.8-0.1 0.033 0.2-0.083 0.366-0.35 0.5l-1.65 1.2c-0.367 0.267-0.517 0.45-0.45 0.55 0.1 0.267 0.1 0.55 0 0.85-0.133 0.467-0.25 0.767-0.35 0.9-0.1 0.167-0.283 0.283-0.55 0.35-0.367 0.134-0.683 0.284-0.95 0.45-0.3 0.2-0.483 0.384-0.55 0.55-0.1 0.233-0.183 0.384-0.25 0.45-0.267 0.267-0.083-0.517 0.55-2.35 0.4-1.2 1.534-2.267 3.4-3.2 0.133-0.066 0.25-0.116 0.35-0.15z" style="fill:url(#k);fill-rule:evenodd" inkscape:connector-curvature="0"></path><radialGradient id="l" gradientUnits="userSpaceOnUse" cy="13.4" cx="14.7" gradientTransform="matrix(1,0,0,-1.727,0,36.545)" r="1.65"><stop id="stop88" stop-color="#F8E79C" offset=".051"></stop><stop id="stop90" stop-color="#EBB259" offset="1"></stop></radialGradient><path id="path92" d="m17.55 15.05c-0.233-0.133-0.85-0.367-1.85-0.7-1.034-0.3-2.017-0.267-2.95 0.1-0.4 0.133-0.433-0.034-0.1-0.5 0.3-0.434 0.65-0.667 1.05-0.7 1.1-0.067 2.066 0.217 2.9 0.85 0.433 0.3 0.75 0.617 0.95 0.95z" style="fill:url(#l);fill-rule:evenodd" inkscape:connector-curvature="0"></path><radialGradient id="m" gradientUnits="userSpaceOnUse" cy="31.382" cx="5.914" gradientTransform="matrix(1 .021 .021 -.974 -1.309 61.947)" r="13.19"><stop id="stop95" stop-color="#EEC163" offset="0"></stop><stop id="stop97" stop-color="#BA3C28" offset="1"></stop></radialGradient><path id="path99" d="m10.3 26.2c0.3-0.1 0.65-0.184 1.05-0.25 0.267-0.033 0.566-0.05 0.9-0.05 0.633 0 1.317 0.45 2.05 1.35 0.5 0.566 0.833 1.083 1 1.55 0.067 0.233 0.1 0.45 0.1 0.65 0 0.5-0.35 1.033-1.05 1.6-0.9 0.767-1.55 1.334-1.95 1.7-0.233 0.2-0.4 0.35-0.5 0.45v0.05c-0.367 0.333-0.65 0.717-0.85 1.15-0.433 0.8-0.617 1.7-0.55 2.7 0.067 1.633 0.9 2.533 2.5 2.7 1.133 0.133 2.217-0.4 3.25-1.6 0.433-0.5 0.8-1.034 1.1-1.602 0-0.066 0.017-0.133 0.05-0.2l2.8 0.2c-0.033 0.067-0.084 0.15-0.15 0.25-0.533 0.767-1.2 1.55-2 2.35-1.767 1.7-3.45 2.55-5.05 2.55-1.933 0-3.417-0.282-4.45-0.85-1.067-0.598-1.767-1.564-2.1-2.898-0.367-1.267-0.383-2.884-0.05-4.85v-0.05c0.133-0.733 0.283-1.4 0.45-2 0.067-0.267 0.15-0.517 0.25-0.75v-0.05c0.2-0.566 0.433-1.066 0.7-1.5l0.1-0.2c0.6-1.033 1.233-1.75 1.9-2.15 0.067-0.032 0.117-0.065 0.15-0.1l0.3-0.1 0.05-0.05zm1.3 0.75c-0.067-0.267-0.383-0.316-0.95-0.15-0.333 0.1-0.783 0.45-1.35 1.05-0.4 0.467-0.733 0.983-1 1.55-0.2 0.433-0.367 0.9-0.5 1.4l-0.1 0.6c-0.267 1.133-0.45 2.316-0.55 3.55-0.133 1.4-0.066 1.616 0.2 0.65 0.2-0.634 0.467-1.3 0.8-2 0.2-0.4 0.35-0.75 0.45-1.05 0.1-0.234 0.167-0.435 0.2-0.6 0.167-0.635 0.267-1.034 0.3-1.2 0.066-0.168 0.217-0.385 0.45-0.65h0.05c0.1-0.134 0.4-0.417 0.9-0.85 0.367-0.3 0.567-0.584 0.6-0.85 0.033-0.2 0-0.302-0.1-0.302-0.033 0 0.033-0.1 0.2-0.3 0.333-0.364 0.467-0.648 0.4-0.848z" style="fill:url(#m);fill-rule:evenodd" inkscape:connector-curvature="0"></path><path id="path101" d="m11.35 25.95c-0.4 0.066-0.75 0.15-1.05 0.25l-0.05-0.05c0.033-0.067 0.067-0.15 0.1-0.25 0.066-0.2 0.033-0.45-0.1-0.75-0.167-0.3-0.283-0.517-0.35-0.65 0.633 0.2 1.117 0.684 1.45 1.45zm1.05 6.8c0.4-0.366 1.05-0.934 1.95-1.7 0.7-0.566 1.05-1.1 1.05-1.6 0-0.2-0.033-0.417-0.1-0.65 0.1 0.033 0.15 0.017 0.15-0.05 0.1-0.434 0.083-0.8-0.05-1.1l0.3 0.5c0.4 0.933 0.566 1.916 0.5 2.95-0.1 1.3-0.434 2.216-1 2.75-0.633 0.566-1.367 0.45-2.2-0.35-0.233-0.233-0.433-0.483-0.6-0.75zm6.9-1.3c0.1 0.333 0.25 0.684 0.45 1.05l0.05 0.05c-0.3-0.166-0.467-0.3-0.5-0.4-0.1-0.233-0.1-0.466 0-0.7zm7.5 0.6c-0.2-0.3-0.383-0.6-0.55-0.9l-0.65-1.55c-0.267-0.533-0.633-1.05-1.1-1.55l-0.2-0.2c0.533 0.233 0.917 0.5 1.15 0.8 0.366 0.5 0.416 0.15 0.15-1.05l1.15 1.1c0.634 0.934 0.717 1.9 0.25 2.9-0.066 0.133-0.134 0.284-0.2 0.45z" style="fill:#9b401f;fill-rule:evenodd" inkscape:connector-curvature="0"></path><radialGradient id="n" gradientUnits="userSpaceOnUse" cy="25.9" cx="20.6" gradientTransform="matrix(1,0,0,-1.719,0,70.426)" r="2.225"><stop id="stop104" stop-color="#F8E79C" offset=".051"></stop><stop id="stop106" stop-color="#EBB259" offset="1"></stop></radialGradient><path id="path108" d="m18.3 28.05c0.067-0.8 0.383-1.416 0.95-1.85 0.634-0.467 1.434-0.667 2.4-0.6 0.8 0.066 1.45 0.266 1.95 0.6-0.367-0.2-1.334-0.184-2.9 0.05-0.967 0.134-1.65 0.65-2.05 1.55-0.2 0.467-0.3 0.9-0.3 1.3-0.067-0.3-0.083-0.65-0.05-1.05z" style="fill:url(#n);fill-rule:evenodd" inkscape:connector-curvature="0"></path><radialGradient id="o" gradientUnits="userSpaceOnUse" cy="25.2" cx="12.95" gradientTransform="matrix(1,0,0,-1.724,0,68.637)" r=".95"><stop id="stop111" stop-color="#E8A736" offset=".051"></stop><stop id="stop113" stop-color="#E17D57" offset="1"></stop></radialGradient><path id="path115" d="m14.6 26.2c-0.3-0.233-0.55-0.367-0.75-0.4-0.633-0.1-0.983-0.166-1.05-0.2-0.6-0.166-0.95-0.283-1.05-0.35s0.1-0.116 0.6-0.15c0.767-0.034 1.517 0.334 2.25 1.1z" style="fill:url(#o);fill-rule:evenodd" inkscape:connector-curvature="0"></path><radialGradient id="p" gradientUnits="userSpaceOnUse" cy="29.65" cx="7.95" gradientTransform="matrix(1 0 0 -.973 0 58.506)" r="6.063"><stop id="stop118" stop-color="#F8E79C" offset=".051"></stop><stop id="stop120" stop-color="#D29240" offset="1"></stop></radialGradient><path id="path122" d="m11.6 26.95c0.066 0.2-0.067 0.483-0.4 0.85-0.167 0.2-0.233 0.3-0.2 0.3 0.1 0 0.133 0.1 0.1 0.3-0.033 0.268-0.233 0.55-0.6 0.85-0.5 0.435-0.8 0.718-0.9 0.85h-0.05c-0.233 0.268-0.383 0.484-0.45 0.65-0.033 0.168-0.133 0.567-0.3 1.2-0.033 0.167-0.1 0.367-0.2 0.6-0.1 0.3-0.25 0.65-0.45 1.05-0.333 0.7-0.6 1.368-0.8 2-0.267 0.968-0.333 0.75-0.2-0.648 0.1-1.233 0.283-2.417 0.55-3.55l0.1-0.602c0.133-0.5 0.3-0.967 0.5-1.4 0.267-0.566 0.6-1.083 1-1.55 0.567-0.6 1.017-0.95 1.35-1.05 0.567-0.166 0.883-0.116 0.95 0.15z" style="fill:url(#p);fill-rule:evenodd" inkscape:connector-curvature="0"></path><radialGradient id="q" gradientUnits="userSpaceOnUse" cy="30.55" cx="22.4" gradientTransform="matrix(1 0 0 -.974 0 60.292)" r="5.675"><stop id="stop125" stop-color="#EAAD4B" offset=".051"></stop><stop id="stop127" stop-color="#CE7D2C" offset="1"></stop></radialGradient><path id="path129" d="m23.25 30.1c0 0.2 0.083 0.4 0.25 0.6 0.167 0.234 0.267 0.484 0.3 0.75 0.033 0.3 0.267 0.718 0.7 1.25 0.134 0.2 0.35 0.468 0.65 0.8 0.233 0.3 0.517 0.65 0.85 1.05 0.4 0.5 0.717 0.918 0.95 1.25 0.033 0.034-0.134 0.034-0.5 0-0.5-0.065-1.283-0.55-2.35-1.45-0.2-0.165-0.367-0.315-0.5-0.448h-0.05c-0.867-0.834-1.435-1.6-1.7-2.3-0.667-1.9-0.684-3.018-0.05-3.35 0.333-0.2 0.666-0.034 1 0.5 0.3 0.498 0.45 0.948 0.45 1.348z" style="fill:url(#q);fill-rule:evenodd" inkscape:connector-curvature="0"></path></g><metadata></metadata></svg> 