<?xml version="1.0" encoding="iso-8859-1"?>
<!-- Generator: Adobe Illustrator 15.1.0, SVG Export Plug-In . SVG Version: 6.00 Build 0)  -->
<!DOCTYPE svg PUBLIC "-//W3C//DTD SVG 1.1//EN" "http://www.w3.org/Graphics/SVG/1.1/DTD/svg11.dtd">
<svg version="1.1" id="Layer_4" xmlns="http://www.w3.org/2000/svg" xmlns:xlink="http://www.w3.org/1999/xlink" x="0px" y="0px"
	 width="894.85px" height="158.1px" viewBox="0 0 894.85 158.1" style="enable-background:new 0 0 894.85 158.1;"
	 xml:space="preserve">
<symbol  id="flash2.ai_x2F_Layer_4_x2F__x3C_Compound_Path_x3E_" viewBox="0 -3.55 11.5 3.55">
	<g id="Layer_1_5_">
		<path style="fill-rule:evenodd;clip-rule:evenodd;fill:#89591F;" d="M5.75,0C7.317,0,8.667-0.167,9.8-0.5
			c1.133-0.367,1.7-0.783,1.7-1.25c0-0.5-0.567-0.933-1.7-1.3c-1.133-0.333-2.483-0.5-4.05-0.5S2.833-3.383,1.7-3.05
			C0.567-2.683,0-2.25,0-1.75C0-1.283,0.567-0.867,1.7-0.5C2.833-0.167,4.183,0,5.75,0z"/>
	</g>
</symbol>
<symbol  id="flash2.ai_x2F_Layer_4_x2F__x3C_Compound_Path_x3E__x5F_1" viewBox="0 -10.45 33.9 10.45">
	<g id="Layer_1_4_">
		<path style="fill-rule:evenodd;clip-rule:evenodd;fill:#89591F;" d="M16.95,0c4.667,0,8.667-0.517,12-1.55
			c3.3-1.034,4.95-2.267,4.95-3.7S32.25-7.9,28.95-8.9c-3.333-1.033-7.333-1.55-12-1.55c-4.667,0-8.667,0.517-12,1.55
			C1.65-7.9,0-6.683,0-5.25s1.65,2.667,4.95,3.7C8.283-0.517,12.283,0,16.95,0z"/>
	</g>
</symbol>
<symbol  id="flash2.ai_x2F_Layer_4_x2F__x3C_Compound_Path_x3E__x5F_2" viewBox="0 -6.65 21.7 6.65">
	<g id="Layer_1_3_">
		<path style="fill-rule:evenodd;clip-rule:evenodd;fill:#89591F;" d="M10.85,0c3,0,5.566-0.317,7.7-0.95
			c2.1-0.633,3.15-1.417,3.15-2.35c0-0.934-1.05-1.717-3.15-2.35c-2.133-0.667-4.7-1-7.7-1s-5.55,0.333-7.65,1
			C1.067-5.017,0-4.233,0-3.3c0,0.933,1.067,1.716,3.2,2.35C5.3-0.317,7.85,0,10.85,0z"/>
	</g>
</symbol>
<symbol  id="flash2.ai_x2F_Layer_4_x2F__x3C_Path_x3E_" viewBox="0 -4.15 128.25 4.156">
	<g id="Layer_1_10_">
		<path style="fill-rule:evenodd;clip-rule:evenodd;fill:#89591F;" d="M0,0c1.633,0.033,5.017-0.067,10.15-0.3
			C13.35-0.467,34-0.833,72.1-1.4c19.033-0.3,37.75-0.567,56.15-0.8c-19.3-0.267-39.117-0.55-59.45-0.85
			C28.1-3.65,5.183-4.017,0.05-4.15L0,0z"/>
	</g>
</symbol>
<symbol  id="flash2.ai_x2F_Layer_4_x2F__x3C_Path_x3E__x5F_1" viewBox="0 -24.719 894.75 24.556">
	<g id="Layer_1_9_">
		<linearGradient id="SVGID_1_" gradientUnits="userSpaceOnUse" x1="447.375" y1="-4.6875" x2="447.375" y2="-36.0125">
			<stop  offset="0" style="stop-color:#B78038"/>
			<stop  offset="1" style="stop-color:#DAA669"/>
		</linearGradient>
		<path style="fill-rule:evenodd;clip-rule:evenodd;fill:url(#SVGID_1_);" d="M894.75-14.85v-5.4
			c-6.934-0.267-13.883-0.467-20.85-0.6c-10.6-0.167-25.583,0.25-44.95,1.25c-20.8,1.067-35.817,1.6-45.05,1.6
			c-20.333-0.233-35.6-0.4-45.8-0.5c-18.333-0.2-33.65-0.033-45.95,0.5c-4.3,0.167-10.066,0.75-17.3,1.75
			c-8.333,1.133-14.1,1.833-17.3,2.1c-6.366,0.5-14.533,0.217-24.5-0.85c-13.133-1.4-21.25-2.15-24.35-2.25
			c-7.767-0.267-19.55,0-35.35,0.8c-15.534,0.8-27.333,1.034-35.4,0.7c-8.534-0.2-14.917-0.35-19.15-0.45
			c-7.6-0.2-13.917-0.566-18.95-1.1c-22.467-2.434-49.55-3.65-81.25-3.65c-36.3,0.467-63.517,0.717-81.65,0.75
			c-55.567,0.067-105.583,0.05-150.05-0.05c-23,0-41.783-0.117-56.35-0.35c-5.033-0.1-10.1-0.4-15.2-0.9
			c-5.7-0.567-13.15-1.033-22.35-1.4c-11.033-0.434-19-0.817-23.9-1.15c-8.867-0.633-17.35-0.817-25.45-0.55
			c-7.1,0.267-15.917,0.95-26.45,2.05c-1,0.1-3.867,0.517-8.6,1.25c-3.9,0.6-6.767,0.933-8.6,1l0.1,5.5
			c8.967,1.133,18.967,1.6,30,1.4c6.433-0.133,16.25-0.65,29.45-1.55c12.8-0.867,22.483-1.35,29.05-1.45
			c10.667-0.133,20.3,0.417,28.9,1.65c22.2,3.2,39.983,5.55,53.35,7.05c19.667,2.167,37.566,3.517,53.7,4.05
			c24.434,0.767,41.633,1.05,51.6,0.85c18.934-0.333,36.033-1.934,51.3-4.8c31.9-6,65.45-8.967,100.65-8.9
			c11,0.033,27.8,0.667,50.4,1.9c22.433,1.2,39.316,1.817,50.65,1.85c13.5,0.033,26.767,0.9,39.8,2.6
			c12.366,1.667,25.366,4.2,39,7.6c12.733,3.167,28.383,3.183,46.95,0.05c5.1-0.833,12.784-2.217,23.05-4.15
			c9.1-1.567,17.017-2.467,23.75-2.7c6.333-0.233,13.267,0.167,20.8,1.2c4.467,0.6,11.316,1.717,20.55,3.35
			c10.8,1.767,23.434,1.867,37.9,0.3c8.333-0.9,20.866-2.567,37.6-5c3.967-0.433,11.117-1.733,21.45-3.9
			c9.1-1.9,16.217-2.983,21.35-3.25c4.767-0.233,10.316-0.133,16.65,0.3C880.133-16.217,885.717-15.717,894.75-14.85z"/>
	</g>
</symbol>
<symbol  id="flash2.ai_x2F_Layer_4_x2F__x3C_Path_x3E__x5F_2" viewBox="0 -4.702 325.525 4.657">
	<g id="Layer_1_8_">
		<path style="fill-rule:evenodd;clip-rule:evenodd;fill:#89591F;" d="M291.8-3.55c-18.433-0.8-32.417-1.184-41.95-1.15
			C196.117-4.5,155.833-4.117,129-3.55c-7.2,0.133-17.8,0.183-31.8,0.15c-14-0.067-24.55-0.017-31.65,0.15
			C40.317-2.683,18.467-2.45,0-2.55v0.25c39.5,2.1,93.9,2.733,163.2,1.9c3.433-0.033,32.216-0.45,86.35-1.25
			c30.366-0.443,55.691-0.701,75.975-0.775C316.992-2.6,305.75-2.975,291.8-3.55z"/>
	</g>
</symbol>
<symbol  id="flash2.ai_x2F_Layer_4_x2F__x3C_Path_x3E__x5F_3" viewBox="0 -3.5 140.875 3.475">
	<g id="Layer_1_7_">
		<path style="fill-rule:evenodd;clip-rule:evenodd;fill:#89591F;" d="M140.875-0.025c-4.421-0.175-10.729-0.7-18.925-1.575
			c-9.167-0.933-16.167-1.433-21-1.5c-26.9-0.333-47.067-0.35-60.5-0.05C36.917-3.083,31.6-3.133,24.5-3.3
			C17.567-3.5,12.283-3.55,8.65-3.45L0-3.25C18.367-2.083,42.067-1.3,71.1-0.9C87.058-0.671,110.317-0.379,140.875-0.025z"/>
	</g>
</symbol>
<symbol  id="flash2.ai_x2F_Layer_4_x2F__x3C_Path_x3E__x5F_4" viewBox="0 -18.2 788.85 18.163">
	<g id="Layer_1_6_">
		<path style="fill-rule:evenodd;clip-rule:evenodd;fill:#89591F;" d="M788.85-0.9v-4.25c-6.267,0.1-12.133,0.017-17.6-0.25
			c-4.1-0.233-11.5-0.55-22.2-0.95c-9.433-0.4-16.866-0.767-22.3-1.1C721.816-7.783,714.167-7.633,703.8-7
			c-10.033,0.633-17.683,0.733-22.95,0.3c-15.967-1.267-31.767-1.8-47.4-1.6c-23.5,0.267-52.667-0.217-87.5-1.45
			c-56.8-2.033-85.883-3.067-87.25-3.1c-5.867-0.133-13.733-0.05-23.6,0.25c-11.5,0.367-19.4,0.55-23.7,0.55
			c-19.933-0.034-49.1,0.316-87.5,1.05c-39.233,0.767-68.333,1.15-87.3,1.15c-9.434,0-23.35-0.383-41.75-1.15
			c-18.2-0.767-32.05-1.133-41.55-1.1c-0.167,0-19.566-1.017-58.2-3.05S24.767-18.2,0-18.2c8.4,0.6,37.817,2.284,88.25,5.05
			c45.667,2.5,75.133,4.333,88.4,5.5c28.4,2.433,62.167,3.4,101.3,2.9c6.9-0.1,40.95-1.033,102.15-2.8
			c13.066-0.4,30.85-0.167,53.35,0.7c26.1,1,43.933,1.5,53.5,1.5c23.433,0,50.316,0.3,80.65,0.9
			c12.933,0.233,39.816,0.85,80.65,1.85c13.066,0.3,32.517,0.967,58.35,2c22.9,0.733,42.367,0.75,58.4,0.05
			C772.967-0.883,780.917-1,788.85-0.9z"/>
	</g>
</symbol>
<symbol  id="flash2.ai_x2F_Layer_4_x2F__x3C_Path_x3E__x5F_8" viewBox="0 -7.207 608.4 7.176">
	<g id="Layer_1_2_">
		
			<linearGradient id="SVGID_2_" gradientUnits="userSpaceOnUse" x1="15853.9414" y1="-670.3091" x2="15863.041" y2="-670.3091" gradientTransform="matrix(1.098901e-004 1 -1 -0.001 -367.8521 -15865.1123)">
			<stop  offset="0" style="stop-color:#B78038"/>
			<stop  offset="1" style="stop-color:#DAA669"/>
		</linearGradient>
		<path style="fill-rule:evenodd;clip-rule:evenodd;fill:url(#SVGID_2_);" d="M574.6-7.2c-8.133-0.033-20.167,0.05-36.1,0.25
			l-27,0.3c-33.367,0.1-66.783,0.15-100.25,0.15h-266.7C108.717-6.5,81.867-6.55,64-6.65C49.6-6.883,38.867-7,31.8-7
			C19.533-7.033,8.933-6.65,0-5.85c41.1,0.067,94.883,1.4,161.35,4c27.333,1.067,57.75,1.667,91.25,1.8
			c19.066,0.066,49.65-0.05,91.75-0.35c26.967-0.167,62.75-0.9,107.35-2.2c52.566-1.533,88.167-2.45,106.8-2.75
			c5.033-0.1,13.65-0.083,25.85,0.05c10.966,0,18.983-0.284,24.05-0.85C599.2-6.783,587.934-7.133,574.6-7.2z"/>
	</g>
</symbol>
<g>
	<path style="fill-rule:evenodd;clip-rule:evenodd;fill:#50341E;" d="M893.25,43.15l0.45,0.8c0.767,1.5,1.149,3.267,1.149,5.3
		c0.034,1.2-0.033,3.033-0.199,5.5L894.45,66c-0.233,14.6-0.367,23.333-0.4,26.2c0,6.3,0.033,11.017,0.101,14.149
		c0.1,4.667-25.851,6.384-77.851,5.15c-31.8-0.767-100-3.717-204.6-8.85C492.333,96.783,396.75,92.583,324.95,90.05
		C205.183,85.85,97.117,83.833,0.75,84c0.067-2.767-0.017-7.85-0.25-15.25c-0.267-8.967-0.417-14.133-0.45-15.5
		c0-4.233,1.2-7.433,3.6-9.6c-0.6,1.1-1,2.184-1.2,3.25c-0.2,0.967-0.3,2.383-0.3,4.25c1.333-1.066,2.067-1.65,2.2-1.75
		c1.133-1.133,1.767-2.083,1.9-2.85c0,1.8-0.2,3.1-0.6,3.9C6.183,50.217,6.9,49.733,7.8,49c1.034-0.867,1.733-1.417,2.1-1.65
		c1.4-0.934,2.6-1.567,3.6-1.9c-0.6,0.367-1.167,0.95-1.7,1.75c-0.167,0.267-0.566,0.983-1.2,2.15c0.967-0.967,2.1-1.667,3.4-2.1
		c-0.033,0.233-0.167,0.65-0.4,1.25c-0.1,0.433,0.083,0.583,0.55,0.45c0.467-0.167,1.05-0.883,1.75-2.15
		c0.434,0.7,1.417,0.917,2.95,0.65c0.8-0.133,1.867-0.417,3.2-0.85c0.333-0.067,2.284-0.533,5.85-1.4
		c3.389-0.93,5.072-1.664,5.05-2.2c0.066,0.903,0.1,2.237,0.1,4c0.367-0.6,0.667-1.05,0.9-1.35c0.367-0.533,0.767-0.9,1.2-1.1
		c0.2,0.367,0.267,0.883,0.2,1.55c-0.067,0.367-0.167,0.867-0.3,1.5c0.567-0.767,1.267-1.467,2.1-2.1
		c0.434-0.367,1.283-0.95,2.55-1.75c0.566-0.367,1.5-1.033,2.8-2c1.2-0.8,2.2-1.317,3-1.55c0.033,1.1,0.3,2.283,0.8,3.55
		c0.267,0.733,0.733,1.85,1.4,3.35c-0.133-1.633,0.133-2.733,0.8-3.3c0.467,0.4,0.95,1,1.45,1.8c0.267-0.5,1.483-0.35,3.65,0.45
		c1.133,0.4,2.533,0.917,4.2,1.55c0.467-0.733,1.7-1.2,3.7-1.4c2.3-0.267,3.733-0.6,4.3-1c0.1-0.067,0.5-0.517,1.2-1.35
		c0.433-0.533,0.967-0.817,1.6-0.85c0.4,0,0.933,0.15,1.6,0.45c0.733,0.367,1.267,0.55,1.6,0.55l-0.05-0.65
		c1.367,0.933,2.9,1.316,4.6,1.15c0.733-0.067,1.316-0.333,1.75-0.8c0.633-0.7,1.15-1.15,1.55-1.35c0.9,1.667,3.233,2.383,7,2.15
		c3.1-0.2,5.65-0.767,7.65-1.7c3-1.367,4.967-2.233,5.9-2.6c2.267-0.9,4.3-1.517,6.1-1.85c2.333-0.434,5.833-0.817,10.5-1.15
		c-0.4,0.566-0.716,1.033-0.95,1.4c-0.467,0.7-0.583,1.217-0.35,1.55c0.267,0.333,0.7,0.3,1.3-0.1c0.833-0.533,1.35-0.816,1.55-0.85
		c0.933-0.1,2.217,0.3,3.85,1.2c2.133,1.167,3.35,1.8,3.65,1.9c-0.167-0.566-0.217-1.316-0.15-2.25c0.267,0.1,0.75,0.4,1.45,0.9
		c0.6,0.4,1.1,0.633,1.5,0.7c-0.1-0.633-0.2-1.066-0.3-1.3c0.233,0.1,0.533,0.3,0.9,0.6c0.367,0.267,0.667,0.45,0.9,0.55
		c0.233-1.433,0.633-2.017,1.2-1.75c0.4,0.2,1.2,0.667,2.4,1.4c1.933,0.6,3.983,0.067,6.15-1.6c1.934-1.466,3.35-3.25,4.25-5.35
		c0.167,0.767,0.467,1.683,0.9,2.75c0.267,0.6,0.65,1.5,1.15,2.7l0.3-0.15c0.167-1.033,0.383-1.9,0.65-2.6
		c0.133,0.333,0.317,0.867,0.55,1.6c0.267,0.6,0.583,1.033,0.95,1.3c0.7-1.033,1.983-1.933,3.85-2.7
		c1.033-0.434,2.55-0.983,4.55-1.65c5.367-2.133,8.517-3.367,9.45-3.7c-0.3,1.633-0.4,3.317-0.3,5.05c0.1-0.066,0.55-0.5,1.35-1.3
		c0.567-0.567,1.05-0.983,1.45-1.25c-0.067,1.167,0.05,2.117,0.35,2.85c0.267-0.967,0.667-1.417,1.2-1.35c0.1,0,0.733,0.3,1.9,0.9
		c3.267,1.633,6.216,2.35,8.85,2.15c-0.633-0.333-1.167-0.966-1.6-1.9c0.767,0.633,1.316,1.05,1.65,1.25
		c0.7,0.367,1.35,0.533,1.95,0.5c-0.066-0.433-0.15-0.75-0.25-0.95c2.5,1.1,5.684,1.65,9.55,1.65c-0.8-0.167-1.434-0.667-1.9-1.5
		c0.1,0.033,0.716,0.267,1.85,0.7c0.733,0.267,1.383,0.35,1.95,0.25c-0.133-0.667-0.333-1.15-0.6-1.45
		c0.767,0.7,1.867,1.167,3.3,1.4c1.566,0.233,2.716,0,3.45-0.7c0.4-0.4,0.85-1.5,1.35-3.3c0.433-1.733,1.1-2.9,2-3.5
		c-0.4,2.733-0.35,5.3,0.15,7.7c0.567-1.133,1.934-3.567,4.1-7.3c-0.367,1.167-0.483,2.667-0.35,4.5c0.7-1.2,1.667-3.05,2.9-5.55
		c1.2-2.133,2.5-3.817,3.9-5.05c-0.934,1.967-1.5,3.767-1.7,5.4c-0.333,2.367,0.167,4.05,1.5,5.05c-0.5-1.367-0.15-1.833,1.05-1.4
		c0.633,0.233,1.5,0.633,2.6,1.2l-0.4-1.95c0.167,0.533,0.917,0.933,2.25,1.2c1.1,0.167,2,0.2,2.7,0.1
		c0.767-0.133,1.566-0.45,2.4-0.95c0.467-0.267,1.167-0.75,2.1-1.45c1.066-0.733,2.5-1.083,4.3-1.05
		c2.033,0.066,3.483-0.083,4.35-0.45c0.1-0.033,0.217-0.183,0.35-0.45c0.1-0.233,0.316-0.383,0.65-0.45
		c0.3-0.067,0.867,0.033,1.7,0.3c1.067,0.333,1.667,0.517,1.8,0.55c1.3,0.133,2.117,0.2,2.45,0.2c1-0.1,1.633-0.5,1.9-1.2
		c0.533-0.034,1.233,0.167,2.1,0.6c0.067-0.5,0.083-0.867,0.05-1.1c1.2,0.6,3.417,1.533,6.65,2.8c-0.567-2.4-0.767-4.217-0.6-5.45
		c0.967,1.633,1.883,2.7,2.75,3.2c0.567,0.333,1.05,0.5,1.45,0.5c0.267,0,0.767-0.05,1.5-0.15c0.733,0,1.933,0.1,3.6,0.3
		c1.333-0.1,2.05-0.883,2.15-2.35c0.633,0.267,1.667,0.7,3.1,1.3c1.267,0.467,2.367,0.583,3.3,0.35c0.267-0.067,0.817-0.3,1.65-0.7
		c0.633-0.3,1.25-0.467,1.85-0.5c0.2,0,0.95,0.067,2.25,0.2c1.1,0.133,1.8,0.133,2.1,0c0.4-0.2,0.767-0.684,1.1-1.45
		c0.433-1.033,0.7-1.617,0.8-1.75c0.5,0.367,1.167,1.05,2,2.05c4.333-3.1,9.95-5.316,16.85-6.65c-1.267,0.7-2.383,1.7-3.35,3
		c-1.167,1.6-1.017,2.6,0.45,3c0.7,0.2,1.767,0.15,3.2-0.15c0.767-0.167,1.8-0.433,3.1-0.8c2-0.467,3.25-0.784,3.75-0.95
		c1.5-0.533,2.517-1.25,3.05-2.15c0.6,0.767,2.067,1.017,4.4,0.75c2.3-0.233,3.167-0.833,2.6-1.8c0.733,0.367,1.717,0.417,2.95,0.15
		c-0.533-1.1-0.95-2.6-1.25-4.5c-0.267-2.133-0.517-3.717-0.75-4.75c0.633,1.033,1.6,3.35,2.9,6.95
		c1.434,3.033,3.184,4.483,5.25,4.35c0.1-1.333-0.117-3.217-0.65-5.65c-0.633-2.767-0.967-4.684-1-5.75c-0.133-3.5-0.2-5.7-0.2-6.6
		c0.034-2.6,0.267-4.767,0.7-6.5c-0.067,6.733,0.683,12.433,2.25,17.1c0.767,2.333,1.25,3.75,1.45,4.25
		c0.667,1.7,1.383,3.017,2.15,3.95c-0.067-3.3,0.65-6.267,2.15-8.9c-0.067,1.3,0.167,2.767,0.7,4.4c0.533,1.7,1.183,3,1.95,3.9
		c-0.267-0.333,0.167-1.184,1.3-2.55c0.9-1.066,1.633-1.833,2.2-2.3c-0.533,2.667,0.35,3.833,2.65,3.5
		c2.034-0.267,4.5-1.083,7.4-2.45c1.6-0.767,3.966-1.883,7.1-3.35c-0.1,0.267-0.133,0.75-0.1,1.45c0.133,0,0.783-0.283,1.95-0.85
		c0.767-0.367,1.267-0.183,1.5,0.55c0.6-0.733,1.333-0.95,2.2-0.65c0.5,0.167,1.316,0.534,2.45,1.1c2,0.733,3.6,1.233,4.8,1.5
		c1.833,0.434,3.467,0.6,4.9,0.5c-0.6-0.967-1.017-1.683-1.25-2.15c0.7,0.733,1.717,1.233,3.05,1.5c1.4,0.3,2.483,0.183,3.25-0.35
		c-0.367-0.566-0.65-0.933-0.85-1.1c2.133,0.833,4.733,1.333,7.8,1.5c3.5,0.2,6.1-0.167,7.8-1.1c-0.433-0.5-0.75-1.35-0.95-2.55
		c0.8,1.167,1.683,1.934,2.65,2.3c0.333-0.367,0.717-0.983,1.15-1.85c0.233,1.267,0.733,2.15,1.5,2.65
		c2.5-2.833,5.95-5.467,10.35-7.9c-0.8,0.566-1.483,1.583-2.05,3.05c-0.567,1.367-0.817,2.583-0.75,3.65
		c0.8-1.1,1.883-1.966,3.25-2.6c-0.5,1.3,0,1.917,1.5,1.85c0.8-0.033,1.9-0.2,3.3-0.5c1.233-0.033,3.733,0.233,7.5,0.8
		c3.433,0.3,5.783-0.15,7.05-1.35l-0.25-0.45c0.567,0.7,1.3,1.133,2.2,1.3c0.3,0.033,1.167,0.05,2.6,0.05
		c0.8,0.033,1.733,0.217,2.8,0.55c1.867,0.633,2.817,0.95,2.85,0.95c1.767,0.467,3.15,0.717,4.15,0.75
		c1.833,0.1,3.133-0.283,3.9-1.15c0.467-0.533,0.767-1.35,0.9-2.45c0.1-1.233,0.184-2.117,0.25-2.65c0.1,1.967,0.866,3.583,2.3,4.85
		l1.15-2.2c0.366,1.4,0.833,2.15,1.399,2.25c0.5,0.1,1.283-0.267,2.351-1.1c3.933-3.067,7.733-5.017,11.399-5.85
		c-0.833,0.533-1.583,1.167-2.25,1.9c-0.866,0.9-1.35,1.717-1.45,2.45c-0.166,1.066-0.017,1.55,0.45,1.45
		c0.3-0.033,0.917-0.217,1.851-0.55c0.666-0.067,2.517,0.383,5.55,1.35c2.8,0.633,4.434,0.216,4.899-1.25
		c1.601,1.066,3.483,1,5.65-0.2c1.066-0.6,1.733-1.517,2-2.75c0.366-1.667,0.684-2.683,0.95-3.05c0.533,1.667,1.649,3.033,3.35,4.1
		c1.667,1,3.4,1.4,5.2,1.2l-0.15-0.65c1.733,0.833,3.467,1.267,5.2,1.3c0.7,0,1.5,0.1,2.4,0.3c0.533,0.1,1.383,0.283,2.55,0.55
		c3.167,0.733,5.7,1.25,7.6,1.55c2.867,0.467,5.434,0.667,7.7,0.6c0.033-0.4-0.033-0.867-0.2-1.4
		c-0.267-0.833-0.399-1.283-0.399-1.35c0.767,1.033,1.517,1.733,2.25,2.1c0.233-1.267,0.633-1.717,1.2-1.35
		c0.3,0.233,0.85,0.733,1.649,1.5c0.4-0.4,0.934-1.066,1.601-2c0.633-0.933,1.166-1.6,1.6-2s1.134-0.95,2.1-1.65
		c0.967-0.733,1.65-1.283,2.051-1.65c-1.301,1.467-1.9,3.333-1.801,5.6c0.567-0.667,1.284-1,2.15-1c0.5-0.034,1.283,0.033,2.35,0.2
		c1.301,0.1,2.817-0.083,4.551-0.55c2.3-0.633,3.767-0.983,4.399-1.05c2.867-0.333,5.566-0.2,8.101,0.4c0.8,0.167,2.333,0.9,4.6,2.2
		c1.866,1.033,3.467,1.483,4.8,1.35c0.033-0.467-0.1-1.05-0.399-1.75c-0.4-0.967-0.634-1.55-0.7-1.75
		c0.899,0.667,2.267,1.767,4.1,3.3c0.134-2.6,0.483-4.566,1.05-5.9c-0.066,1.5,0.284,3,1.051,4.5c0.699,1.434,1.666,2.633,2.899,3.6
		c0.134-1.267,0.634-1.683,1.5-1.25c0.5,0.267,1.316,0.7,2.45,1.3c1.033,0.133,2.634-0.15,4.8-0.85c2.134-0.7,3.733-0.983,4.8-0.85
		c-0.733,1-0.966,1.816-0.699,2.45c0.6-0.367,1.066-0.533,1.399-0.5c0.267,0,0.684,0.167,1.25,0.5c0.467,0.267,0.95,0.567,1.45,0.9
		c0.366,0.233,0.783,0.383,1.25,0.45c0.066,0,0.5-0.083,1.3-0.25c0.367,0.033,0.95,0.25,1.75,0.65c0.934,0.434,1.5,0.684,1.7,0.75
		c2.5,0.733,5.25,1.017,8.25,0.85l-1.15-2.6c0.767,1.567,2.567,2.383,5.4,2.45c1.1,0.033,1.717-0.083,1.85-0.35
		c0.101-0.167,0.017-0.8-0.25-1.9c1,1.367,2.384,1.95,4.15,1.75l0.05-0.65c1.367-0.2,2.95-0.783,4.75-1.75
		c2.3-1.2,3.834-1.934,4.601-2.2c1-0.333,2.683-0.8,5.05-1.4c2.166-0.567,3.833-1.067,5-1.5c-3.566,1.667-6.65,3.65-9.25,5.95
		c1.467-1.067,3.517-1.9,6.149-2.5c4.233-0.967,6.417-1.467,6.551-1.5c0.466-0.167,1.883-0.684,4.25-1.55
		c1.733-0.633,3.166-1.1,4.3-1.4c-1.634,0.533-3.5,1.65-5.601,3.35c-2.066,1.667-3.55,3.267-4.449,4.8
		c0.5-0.167,1.449-0.517,2.85-1.05c1.2-0.467,2.167-0.8,2.9-1c-0.767,1-1.084,1.967-0.95,2.9c0.8,0.067,1.934,0.467,3.399,1.2
		c1.567,0.8,2.75,1.25,3.551,1.35c0.566,0.1,1.183,0.117,1.85,0.05c0.4-0.033,1.017-0.117,1.85-0.25l0.95-0.1
		c0.101,0.033,0.417,0.15,0.95,0.35c0.467,0.167,1.333,0.483,2.6,0.95c1.167,0.333,2.084,0.367,2.75,0.1
		c0.5-0.167,0.983-0.683,1.45-1.55c0.601-1.033,1.033-1.667,1.3-1.9c0.767,0.9,1.733,1.367,2.9,1.4c1.2,0.033,1.983-0.45,2.35-1.45
		c0.2-0.6,0.334-1.717,0.4-3.35c0.033-1.667-0.05-2.767-0.25-3.3c0.2,0.5,0.6,2.067,1.2,4.7c0.467,2,1.1,3.5,1.899,4.5
		c0.267-0.4,0.65-1.117,1.15-2.15c0.5-0.9,1.017-1.566,1.55-2c0.634,1.833,1.017,2.85,1.15,3.05c0.566,1.066,1.399,1.617,2.5,1.65
		c0.533,0.033,1.467-0.433,2.8-1.4c1.066-0.767,1.95-0.783,2.65-0.05c0.033-0.033,0.25-0.783,0.649-2.25
		c0.267-0.8,0.684-1.316,1.25-1.55c0.934,2.733,1.55,4.333,1.851,4.8c1.032,1.499,2.249,1.299,3.649-0.6
		c-0.417,0.607,1.916,2.107,7,4.5c3.934,1.833,6.783,3.066,8.55,3.7s2.884,0.667,3.351,0.1c0.333-0.367,1.033-1.233,2.1-2.6
		c0.7-0.533,1.184-0.783,1.45-0.75c0.233,0.033,0.717,0.184,1.45,0.45c0.233,0.033,0.533,0.217,0.899,0.55
		c0.4,0.367,0.7,0.583,0.9,0.65c0.3,0.067,0.634,0,1-0.2c0.4-0.2,0.667-0.283,0.8-0.25c0.767,0.133,2.283,0.533,4.55,1.2
		c1.867,0.567,3.384,0.9,4.551,1c1.366,0.167,2.133,0.25,2.3,0.25c0.833,0.034,1.583-0.117,2.25-0.45c0.366-0.167,0.934-0.7,1.7-1.6
		c0.6-0.667,1.267-0.983,2-0.95c-0.034,0,0.449,0.467,1.449,1.4c1.067,0.933,1.7,1.45,1.9,1.55c0.434,0.2,1.1,0.45,2,0.75
		c0.866,0.267,1.517,0.517,1.95,0.75c1.1,0.567,2.684,1.417,4.75,2.55c1.833,0.8,3.6,0.983,5.3,0.55
		c1.533-0.367,2.75-1.434,3.65-3.2c0.6-1.167,1.1-2.783,1.5-4.85c0.166,0.8,0.383,2.067,0.649,3.8c0.3,1.5,0.8,2.617,1.5,3.35
		c1.066-1.667,1.834-2.767,2.3-3.3c-0.066,1.733,0.15,3.217,0.65,4.45c1.233-1.167,2.083-3.767,2.55-7.8
		c0.533-4.333,1.233-7.133,2.101-8.4c0.033,0.5-0.134,3.05-0.5,7.65c-0.301,3.367-0.017,5.8,0.85,7.3c0.434,0.7,1.066,1.3,1.9,1.8
		c0.933,0.567,1.783,0.75,2.55,0.55c0.899-0.233,1.533-0.833,1.899-1.8c0.334-1.267,0.667-2.233,1-2.9
		c1.301,1.6,3.317,2.633,6.051,3.1c1.733,0.3,4.083,0.383,7.05,0.25c1.5-0.067,3.616,0.25,6.35,0.95c2.834,0.767,4.834,1.15,6,1.15
		c1.367,0,2.367-0.483,3-1.45c0.367-0.567,1.017-1.683,1.95-3.35c0.467,1.567,1.134,2.45,2,2.65c0.434-1.267,0.684-3.15,0.75-5.65
		c0.066-2.867,0.2-4.8,0.4-5.8c0-0.033,0.333-2.1,1-6.2c0.433-2.566,0.933-4.517,1.5-5.85c0.133,8.167,0.649,14.8,1.55,19.9
		l0.5,3.05c0.333,1.4,0.816,2.15,1.45,2.25c0.533,0.1,1.25-0.45,2.149-1.65c1-1.434,1.65-2.233,1.95-2.4
		c0.733,1.767,2.017,3.017,3.85,3.75c1.067,0.433,2.834,0.966,5.301,1.6c2.199,0.833,4.866,1.034,8,0.6c1.767-0.2,4.433-0.6,8-1.2
		c1.833-0.167,3.183-0.25,4.05-0.25c1.366,0,2.666,0.15,3.899,0.45c0.967,0.2,2.367,0.633,4.2,1.3c1.634,0.5,3.05,0.633,4.25,0.4
		c1.334-0.267,2.584-0.767,3.75-1.5c1.233-0.767,2.184-1.684,2.851-2.75c-0.5,2.467-0.534,4.183-0.101,5.15
		c0.134-0.167,0.434-0.617,0.9-1.35c0.366-0.6,0.7-1.033,1-1.3c0.399,1.5,0.75,2.433,1.05,2.8c0.533,0.6,1.217,0.383,2.05-0.65
		c1.3-1.567,2.334-3.333,3.101-5.3c0.73-1.901,1.08-3.659,1.05-5.275c0.13,1.466,0.613,3.107,1.45,4.925
		c0.533,1.2,1.466,2.9,2.8,5.1c-0.434-2.667,0.416-5.967,2.55-9.9c0,3.733,0.5,6.534,1.5,8.4c-0.134-2.367,0.566-4.767,2.1-7.2
		c0.9-1.367,2.417-3.367,4.551-6c-1.967,3.667-1.733,8.25,0.699,13.75c0.467-1.133,0.967-1.95,1.5-2.45
		c-0.133,2.2,0.051,3.483,0.551,3.85c0.399,0.3,0.816,0.333,1.25,0.1c0.767-0.4,1.216-0.617,1.35-0.65
		c-0.066,0.267-0.05,0.7,0.05,1.3c0.934-0.566,1.467-0.95,1.601-1.15c0.433-0.5,0.75-1.3,0.949-2.4c0.233-1.3,0.15-3.1-0.25-5.4
		c0.233,0.9,0.65,1.917,1.25,3.05C891.967,40.917,892.517,41.883,893.25,43.15z"/>
	<g>
		
			<linearGradient id="SVGID_3_" gradientUnits="userSpaceOnUse" x1="-152.0972" y1="447.4004" x2="-10.0972" y2="447.4004" gradientTransform="matrix(7.042254e-006 -1 1 -0.001 -1.452439e-004 3.043022e-004)">
			<stop  offset="0" style="stop-color:#B69259"/>
			<stop  offset="1" style="stop-color:#B5A680"/>
		</linearGradient>
		<path style="fill-rule:evenodd;clip-rule:evenodd;fill:url(#SVGID_3_);" d="M894.75,52.95L894.8,158.1H0v-105
			c21.3,0.2,58.1-1.25,110.4-4.35c59-3.467,117.85-7.983,176.55-13.55c42.066-4,74.017-6.8,95.85-8.4
			c30.633-2.267,58.3-3.583,83-3.95c53.4-0.867,114.15,2.816,182.25,11.05c54.8,6.633,100.55,11.417,137.25,14.35
			C826.033,51.517,862.517,53.083,894.75,52.95z"/>
		
			<use xlink:href="#flash2.ai_x2F_Layer_4_x2F__x3C_Path_x3E__x5F_8"  width="608.4" height="7.176" y="-7.207" transform="matrix(1 0 0 -1 103.1499 65.1499)" style="overflow:visible;opacity:0.2891;enable-background:new    ;"/>
		
			<use xlink:href="#flash2.ai_x2F_Layer_4_x2F__x3C_Compound_Path_x3E__x5F_2"  width="21.7" height="6.65" y="-6.65" transform="matrix(1 0 0 -1 489.75 121.6504)" style="overflow:visible;opacity:0.2891;enable-background:new    ;"/>
		
			<use xlink:href="#flash2.ai_x2F_Layer_4_x2F__x3C_Compound_Path_x3E__x5F_1"  width="33.9" height="10.45" y="-10.45" transform="matrix(1 0 0 -1 510.6504 108.1504)" style="overflow:visible;opacity:0.2891;enable-background:new    ;"/>
		
			<use xlink:href="#flash2.ai_x2F_Layer_4_x2F__x3C_Compound_Path_x3E_"  width="11.5" height="3.55" y="-3.55" transform="matrix(1 0 0 -1 598.75 113.4502)" style="overflow:visible;opacity:0.2891;enable-background:new    ;"/>
		
			<radialGradient id="SVGID_4_" cx="824.6504" cy="152.5996" r="20.2875" gradientTransform="matrix(1 0 0 -0.6642 0 253.9566)" gradientUnits="userSpaceOnUse">
			<stop  offset="0.5333" style="stop-color:#2B1A11"/>
			<stop  offset="0.5961" style="stop-color:#301D13"/>
			<stop  offset="0.6667" style="stop-color:#3D2818"/>
			<stop  offset="0.7412" style="stop-color:#533920"/>
			<stop  offset="0.8196" style="stop-color:#72502B"/>
			<stop  offset="0.8863" style="stop-color:#936A37"/>
		</radialGradient>
		<path style="fill-rule:evenodd;clip-rule:evenodd;fill:url(#SVGID_4_);" d="M839.6,146.1c0,1.601-1.433,2.967-4.3,4.101
			c-2.899,1.1-6.383,1.649-10.45,1.649c-4.066,0-7.55-0.55-10.449-1.649c-2.867-1.134-4.301-2.5-4.301-4.101
			c0-1.566,1.434-2.916,4.301-4.05c2.899-1.1,6.383-1.649,10.449-1.649c4.067,0,7.551,0.55,10.45,1.649
			C838.167,143.184,839.6,144.533,839.6,146.1z"/>
		
			<radialGradient id="SVGID_5_" cx="92.2998" cy="97.4502" r="13.3625" gradientTransform="matrix(1 0 0 -0.6558 0 161.3535)" gradientUnits="userSpaceOnUse">
			<stop  offset="0.5333" style="stop-color:#2B1A11"/>
			<stop  offset="0.5961" style="stop-color:#301D13"/>
			<stop  offset="0.6667" style="stop-color:#3D2818"/>
			<stop  offset="0.7412" style="stop-color:#533920"/>
			<stop  offset="0.8196" style="stop-color:#72502B"/>
			<stop  offset="0.8863" style="stop-color:#936A37"/>
		</radialGradient>
		<path style="fill-rule:evenodd;clip-rule:evenodd;fill:url(#SVGID_5_);" d="M102.2,93.25c0,1.033-0.95,1.9-2.85,2.6
			c-1.934,0.733-4.233,1.101-6.9,1.101c-2.667,0-4.967-0.367-6.9-1.101c-1.9-0.699-2.85-1.566-2.85-2.6s0.95-1.917,2.85-2.65
			c1.934-0.733,4.233-1.1,6.9-1.1c2.667,0,4.966,0.366,6.9,1.1C101.25,91.333,102.2,92.217,102.2,93.25z"/>
		
			<radialGradient id="SVGID_6_" cx="800.0498" cy="144.4502" r="10.5375" gradientTransform="matrix(1 0 0 -0.6643 0 240.4076)" gradientUnits="userSpaceOnUse">
			<stop  offset="0.5333" style="stop-color:#2B1A11"/>
			<stop  offset="0.5961" style="stop-color:#301D13"/>
			<stop  offset="0.6667" style="stop-color:#3D2818"/>
			<stop  offset="0.7412" style="stop-color:#533920"/>
			<stop  offset="0.8196" style="stop-color:#72502B"/>
			<stop  offset="0.8863" style="stop-color:#936A37"/>
		</radialGradient>
		<path style="fill-rule:evenodd;clip-rule:evenodd;fill:url(#SVGID_6_);" d="M807.85,141.1c0,0.834-0.75,1.534-2.25,2.101
			s-3.3,0.85-5.399,0.85c-2.134,0-3.95-0.283-5.45-0.85s-2.25-1.267-2.25-2.101c0-0.833,0.75-1.533,2.25-2.1
			c1.5-0.6,3.316-0.9,5.45-0.9c2.1,0,3.899,0.301,5.399,0.9C807.1,139.566,807.85,140.267,807.85,141.1z"/>
		
			<use xlink:href="#flash2.ai_x2F_Layer_4_x2F__x3C_Path_x3E__x5F_4"  width="788.85" height="18.163" y="-18.2" transform="matrix(1 0 0 -1 105.9502 126.5498)" style="overflow:visible;opacity:0.1914;enable-background:new    ;"/>
		
			<use xlink:href="#flash2.ai_x2F_Layer_4_x2F__x3C_Path_x3E__x5F_3"  width="140.875" height="3.475" y="-3.5" transform="matrix(1 0 0 -1 371.2002 87.3496)" style="overflow:visible;opacity:0.2891;enable-background:new    ;"/>
		
			<use xlink:href="#flash2.ai_x2F_Layer_4_x2F__x3C_Path_x3E__x5F_2"  width="325.525" height="4.657" y="-4.702" transform="matrix(1 0 0 -1 3.2002 148.6504)" style="overflow:visible;opacity:0.2891;enable-background:new    ;"/>
		
			<use xlink:href="#flash2.ai_x2F_Layer_4_x2F__x3C_Path_x3E__x5F_1"  width="894.75" height="24.556" y="-24.719" transform="matrix(1 0 0 -1 0.0498 88.1504)" style="overflow:visible;opacity:0.1016;enable-background:new    ;"/>
		
			<use xlink:href="#flash2.ai_x2F_Layer_4_x2F__x3C_Path_x3E_"  width="128.25" height="4.156" y="-4.15" transform="matrix(1 0 0 -1 0 127.5)" style="overflow:visible;opacity:0.1914;enable-background:new    ;"/>
	</g>
</g>
</svg>
