<?xml version="1.0" encoding="iso-8859-1"?>
<!-- Generator: Adobe Illustrator 15.1.0, SVG Export Plug-In . SVG Version: 6.00 Build 0)  -->
<!DOCTYPE svg PUBLIC "-//W3C//DTD SVG 1.1//EN" "http://www.w3.org/Graphics/SVG/1.1/DTD/svg11.dtd">
<svg version="1.1" id="Layer_4" xmlns="http://www.w3.org/2000/svg" xmlns:xlink="http://www.w3.org/1999/xlink" x="0px" y="0px"
	 width="895.15px" height="112.85px" viewBox="0 0 895.15 112.85" style="enable-background:new 0 0 895.15 112.85;"
	 xml:space="preserve">
<symbol  id="flash2.ai_x2F_Layer_4_x2F__x3C_Compound_Path_x3E_" viewBox="0 -10.65 34.75 10.65">
	<g id="Layer_1_4_">
		<path style="fill-rule:evenodd;clip-rule:evenodd;fill:#89591F;" d="M0-5.3c0,1.466,1.7,2.716,5.1,3.75C8.5-0.517,12.6,0,17.4,0
			c4.8,0,8.9-0.517,12.3-1.55c3.367-1.034,5.05-2.284,5.05-3.75c0-1.467-1.683-2.733-5.05-3.8c-3.4-1.033-7.5-1.55-12.3-1.55
			c-4.8,0-8.9,0.517-12.3,1.55C1.7-8.033,0-6.767,0-5.3z"/>
	</g>
</symbol>
<symbol  id="flash2.ai_x2F_Layer_4_x2F__x3C_Path_x3E_" viewBox="0 -21.361 894.75 21.316">
	<g id="Layer_1_12_">
		<path style="fill-rule:evenodd;clip-rule:evenodd;fill:#89591F;" d="M894.75-14.35c-17.5,0.767-34.8,0.817-51.9,0.15
			c-14.767-0.833-23.784-1.25-27.05-1.25c-9.5-0.033-22.333,0.233-38.5,0.8c-16.366,0.566-29.267,0.85-38.7,0.85
			c-19.267-0.034-48.333-1.167-87.2-3.4c-38.6-2.267-67.733-3.383-87.4-3.35c-4.5,0-12.4-0.167-23.7-0.5
			c-9.933-0.3-17.8-0.383-23.6-0.25c-1.333,0.033-30.417,1.066-87.25,3.1c-34.833,1.233-64,1.717-87.5,1.45
			c-15.633-0.2-31.45,0.333-47.45,1.6c-5.233,0.433-12.867,0.333-22.9-0.3c-10.367-0.633-18.017-0.783-22.95-0.45
			c-5.467,0.333-12.9,0.7-22.3,1.1c-10.7,0.4-18.1,0.716-22.2,0.95c-8.767,0.434-20.2,0.333-34.3-0.3
			c-16.8-0.8-28.184-1.184-34.15-1.15c-8.167,0.033-19.867,0.867-35.1,2.5c-15.767,1.667-27.467,2.566-35.1,2.7
			c-9.433,0.167-20.367-0.017-32.8-0.55c-1.267-0.067-12.167-0.633-32.7-1.7v11.2C12.033-0.25,26.817,0.1,44.35-0.1
			c16.433-0.167,30.4-0.75,41.9-1.75c14.7-1.3,35.217-3.217,61.55-5.75c22.467-1.733,43.333-2.2,62.6-1.4
			c15.967,0.7,35.434,0.683,58.4-0.05c12.934-0.4,32.383-1.067,58.35-2c40.833-1,67.717-1.617,80.65-1.85
			c30.333-0.6,57.217-0.9,80.65-0.9c9.566,0,27.4-0.5,53.5-1.5c22.5-0.867,40.283-1.1,53.35-0.7c14,0.4,30.65,1.433,49.95,3.1
			c11.066,0.967,27.566,2.467,49.5,4.5c40.1,3.5,72.95,4.15,98.55,1.95c10.434-0.9,24.983-0.55,43.65,1.05
			c21.566,1.867,40.833,2.583,57.8,2.15V-14.35z"/>
	</g>
</symbol>
<symbol  id="flash2.ai_x2F_Layer_4_x2F__x3C_Path_x3E__x5F_0" viewBox="0 -7.95 421.15 7.96">
	<g id="Layer_1_13_">
		
			<linearGradient id="SVGID_1_" gradientUnits="userSpaceOnUse" x1="15875.9473" y1="-599.7681" x2="15886.0225" y2="-599.7681" gradientTransform="matrix(9.925559e-005 1 -1 -0.001 -390.7695 -15888.1348)">
			<stop  offset="0" style="stop-color:#B78038"/>
			<stop  offset="1" style="stop-color:#DAA669"/>
		</linearGradient>
		<path style="fill-rule:evenodd;clip-rule:evenodd;fill:url(#SVGID_1_);" d="M421.15-2.4l-3.85-0.15
			c-10.6-0.167-20.466-0.2-29.6-0.1c-2.434,0.033-5.85,0-10.25-0.1c-4.733-0.1-7.983-0.15-9.75-0.15c-8.034,0-20.633-0.833-37.8-2.5
			c-17.233-1.7-29.833-2.55-37.8-2.55c-21.2,0-52.55,0.867-94.05,2.6c-41.333,1.7-72.7,2.55-94.1,2.55
			c-25.767,0-45.067-0.034-57.9-0.1C35.683-3,27.967-3.05,22.9-3.05c-8.833,0-16.467,0.167-22.9,0.5
			C29.967-2.517,68.633-1.933,116-0.8c19.7,0.466,41.567,0.733,65.6,0.8c14.233,0.033,36.217-0.017,65.95-0.15
			c19.233-0.067,44.95-0.383,77.15-0.95c37.267-0.667,62.867-1.066,76.8-1.2C406.1-2.367,412.65-2.4,421.15-2.4z"/>
	</g>
</symbol>
<symbol  id="flash2.ai_x2F_Layer_4_x2F__x3C_Path_x3E__x5F_1" viewBox="0 -5.45 169.95 5.379">
	<g id="Layer_1_9_">
		<path style="fill-rule:evenodd;clip-rule:evenodd;fill:#89591F;" d="M136.45-2.8c8.1-0.633,19.267-1.517,33.5-2.65
			c-18.233,0.367-40.617,0.383-67.15,0.05C95.967-5.5,86.033-5.45,73-5.25C59.667-5.083,49.683-5.033,43.05-5.1L0-4.45
			C31.167-0.617,63.517,0.7,97.05-0.5C108.583-0.9,121.717-1.667,136.45-2.8z"/>
	</g>
</symbol>
<symbol  id="flash2.ai_x2F_Layer_4_x2F__x3C_Path_x3E__x5F_1_x5F_0" viewBox="0 -20.716 894.75 20.716">
	<g id="Layer_1_11_">
		<linearGradient id="SVGID_2_" gradientUnits="userSpaceOnUse" x1="447.375" y1="1.3877" x2="447.375" y2="-33.2873">
			<stop  offset="0" style="stop-color:#B78038"/>
			<stop  offset="1" style="stop-color:#DAA669"/>
		</linearGradient>
		<path style="fill-rule:evenodd;clip-rule:evenodd;fill:url(#SVGID_2_);" d="M894.6-15.6c-7.867,0.067-20,0.967-36.4,2.7
			c-16,1.667-28.15,2.5-36.45,2.5c-28.767-0.033-45.184-0.1-49.25-0.2c-18.934-0.4-35.267-1.5-49-3.3
			c-11.1-1.467-27.934-2.434-50.5-2.9c-22.434-0.467-39.267-1.467-50.5-3c-12.4-1.7-27.883-1.034-46.45,2
			c-10.267,1.833-17.966,3.2-23.1,4.1c-9.167,1.6-16.85,2.7-23.05,3.3c-10.833,0.967-18.117,1.517-21.85,1.65
			c-2.7,0.133-7.233-0.133-13.6-0.8c-5.767-0.6-10.284-0.717-13.55-0.35c-3.4,0.367-7.133,0.533-11.2,0.5
			c-1.967,0-5.75-0.083-11.35-0.25c-7.833-0.3-19.65-0.033-35.45,0.8c-15.6,0.8-27.417,1.033-35.45,0.7
			c-0.8-0.033-7.184-0.2-19.15-0.5c-7.667-0.167-14-0.517-19-1.05c-14.133-1.533-30.75-2.517-49.85-2.95
			c-22.133-0.267-38.767-0.483-49.9-0.65c-14.033-0.233-31.667-0.867-52.9-1.9c-33.167-1.6-50.8-2.45-52.9-2.55
			c-9.9-0.4-21.283-0.15-34.15,0.75c-4.533,0.333-15.917,1.35-34.15,3.05c-29,2.733-51.8,3.133-68.4,1.2L0-13.5V-9
			c12.9,1.233,29.017,1.467,48.35,0.7c10.8-0.434,26.9-1.133,48.3-2.1c6.1-0.133,16.4,0.65,30.9,2.35
			c13.034,1.533,23.333,1.95,30.9,1.25c10.133-0.9,23.033-1.417,38.7-1.55c3.467,0,9.8,0.217,19,0.65
			c7.967,0.4,14.317,0.5,19.05,0.3c4.7-0.233,11.75-0.567,21.15-1c8.066-0.333,15.1-0.5,21.1-0.5c11.1,0,27.917,0.617,50.45,1.85
			c22.567,1.233,39.483,1.867,50.75,1.9c4.567,0,12.15,0.517,22.75,1.55c9.667,0.934,17.25,1.283,22.75,1.05
			c5.633-0.233,13.817-0.883,24.55-1.95c9.533-0.667,17.783-0.4,24.75,0.8c28,4.867,54.816,4.934,80.45,0.2
			c5.967-1.133,12.717-1.85,20.25-2.15c3.667-0.167,10.467-0.267,20.4-0.3c24.534-0.066,48.333,0.867,71.4,2.8
			c14.966,1.267,29.616,0.167,43.95-3.3c6.667-1.6,14.45-2.167,23.35-1.7c5.133,0.267,13.017,0.883,23.65,1.85
			c6.467,0.367,14.75,0.417,24.85,0.15c14-0.367,22.267-0.55,24.8-0.55c7.4,0,18.467,0.05,33.2,0.15
			c12.733-0.133,23.75-0.733,33.05-1.8c11.134-1.3,18.45-2.217,21.95-2.75L894.6-15.6z"/>
	</g>
</symbol>
<symbol  id="flash2.ai_x2F_Layer_4_x2F__x3C_Path_x3E__x5F_2" viewBox="0 -5.45 170 5.379">
	<g id="Layer_1_8_">
		<path style="fill-rule:evenodd;clip-rule:evenodd;fill:#89591F;" d="M136.5-2.8c8.1-0.633,19.267-1.517,33.5-2.65
			c-18.233,0.367-40.633,0.383-67.2,0.05C96-5.5,86.083-5.45,73.05-5.25C59.717-5.083,49.733-5.033,43.1-5.1L0-4.45
			C31.167-0.617,63.533,0.7,97.1-0.5C108.6-0.9,121.733-1.667,136.5-2.8z"/>
	</g>
</symbol>
<symbol  id="flash2.ai_x2F_Layer_4_x2F__x3C_Path_x3E__x5F_2_x5F_0" viewBox="0 -21.5 894.7 21.338">
	<g id="Layer_1_10_">
		<linearGradient id="SVGID_3_" gradientUnits="userSpaceOnUse" x1="447.3501" y1="-6.8374" x2="447.3501" y2="-52.5624">
			<stop  offset="0" style="stop-color:#B78038"/>
			<stop  offset="1" style="stop-color:#DAA669"/>
		</linearGradient>
		<path style="fill-rule:evenodd;clip-rule:evenodd;fill:url(#SVGID_3_);" d="M894.7-18.45C875.733-18.15,863.167-18,857-18
			c-11.967-0.033-28.267-0.45-48.9-1.25c-23.6-0.9-39.9-1.433-48.9-1.6c-10.6-0.167-25.617,0.25-45.05,1.25
			C693.316-18.533,678.267-18,669-18c-20.333-0.233-35.6-0.4-45.8-0.5c-18.4-0.2-33.733-0.033-46,0.5
			c-4.267,0.167-10.05,0.75-17.35,1.75c-8.267,1.1-14.05,1.783-17.35,2.05c-6.333,0.5-14.517,0.217-24.55-0.85
			c-13-1.367-21.117-2.1-24.35-2.2c-7.833-0.3-19.633-0.033-35.4,0.8c-15.6,0.8-27.417,1.034-35.45,0.7
			c-0.767-0.033-7.167-0.2-19.2-0.5c-7.667-0.167-14-0.517-19-1.05c-22.466-2.434-49.583-3.65-81.35-3.65
			c-36.367,0.467-63.633,0.717-81.8,0.75c-55.633,0.067-105.717,0.05-150.25-0.05c-23,0-41.816-0.117-56.45-0.35
			C9.867-20.7,4.967-21,0-21.5l5.45,1.35c5.2,0.767,22.383,4,51.55,9.7c20.5,4.034,37.783,6.284,51.85,6.75
			c24.1,0.8,41.333,1.1,51.7,0.9c18.9-0.367,36.034-1.983,51.4-4.85c31.966-5.967,65.55-8.917,100.75-8.85
			c11.1,0,27.917,0.617,50.45,1.85c22.567,1.233,39.483,1.867,50.75,1.9c13.5,0,26.783,0.867,39.85,2.6
			c12.3,1.633,25.333,4.167,39.1,7.6c12.767,3.167,28.433,3.183,47,0.05c5.1-0.867,12.8-2.267,23.1-4.2
			c9.1-1.566,17.017-2.466,23.75-2.7c6.333-0.2,13.283,0.217,20.85,1.25c4.467,0.6,11.317,1.717,20.55,3.35
			c10.867,1.733,23.533,1.833,38,0.3c8.333-0.9,20.883-2.567,37.65-5c3.9-0.433,11.05-1.75,21.45-3.95
			c9.1-1.9,16.233-2.966,21.4-3.2c5.933-0.3,13.533-0.05,22.8,0.75c14.434,1.3,22.017,1.967,22.75,2
			c6.467,0.367,14.75,0.417,24.85,0.15c14-0.367,22.267-0.55,24.8-0.55c5.9,0,14.717,0.05,26.45,0.15
			c10.367,0.033,19.184-0.167,26.45-0.6V-18.45z"/>
	</g>
</symbol>
<symbol  id="flash2.ai_x2F_Layer_4_x2F__x3C_Path_x3E__x5F_3" viewBox="0 -6.7 211.435 6.7">
	<g id="Layer_1_7_">
		<linearGradient id="SVGID_4_" gradientUnits="userSpaceOnUse" x1="105.7173" y1="6.1748" x2="105.7173" y2="-35.8752">
			<stop  offset="0" style="stop-color:#B78038"/>
			<stop  offset="1" style="stop-color:#DAA669"/>
		</linearGradient>
		<path style="fill-rule:evenodd;clip-rule:evenodd;fill:url(#SVGID_4_);" d="M211.4-4.5c-14.566-0.567-33.316-0.633-56.25-0.2
			c-30.867,0.567-49.566,0.85-56.1,0.85C87.083-3.883,70.783-4.3,50.15-5.1C26.55-6,10.233-6.533,1.2-6.7H0.05L0-6.2
			c3.933,0.167,10.517,0.867,19.75,2.1c9.533,1.3,16.067,2.05,19.6,2.25c11.467,0.667,18.883,1.067,22.25,1.2
			c7.5,0.333,14.917,0.5,22.25,0.5c7.4,0,18.467,0.05,33.2,0.15c12.733-0.133,23.75-0.733,33.05-1.8c7.4-0.867,17.517-1.3,30.35-1.3
			c14.1,0,24.167-0.25,30.2-0.75c-0.066-0.3,0.067-0.4,0.4-0.3C211.383-4.05,211.5-4.167,211.4-4.5z"/>
	</g>
</symbol>
<symbol  id="flash2.ai_x2F_Layer_4_x2F__x3C_Path_x3E__x5F_4" viewBox="0 -17.35 51.1 17.35">
	<g id="Layer_1_6_">
		<linearGradient id="SVGID_5_" gradientUnits="userSpaceOnUse" x1="25.5498" y1="-3.2627" x2="25.5498" y2="-25.2377">
			<stop  offset="0" style="stop-color:#B78038"/>
			<stop  offset="1" style="stop-color:#DAA669"/>
		</linearGradient>
		<path style="fill-rule:evenodd;clip-rule:evenodd;fill:url(#SVGID_5_);" d="M43.6-2.55c5-1.7,7.5-3.733,7.5-6.1
			c0-2.4-2.5-4.45-7.5-6.15c-4.967-1.7-10.983-2.55-18.05-2.55c-7.033,0-13.05,0.85-18.05,2.55C2.5-13.1,0-11.05,0-8.65
			c0,2.367,2.5,4.4,7.5,6.1C12.5-0.85,18.517,0,25.55,0C32.583,0,38.6-0.85,43.6-2.55z"/>
	</g>
</symbol>
<symbol  id="flash2.ai_x2F_Layer_4_x2F__x3C_Path_x3E__x5F_5" viewBox="0 -12.6 37.15 12.6">
	<g id="Layer_1_5_">
		<linearGradient id="SVGID_6_" gradientUnits="userSpaceOnUse" x1="18.5752" y1="-2.3623" x2="18.5752" y2="-18.3373">
			<stop  offset="0" style="stop-color:#B78038"/>
			<stop  offset="1" style="stop-color:#DAA669"/>
		</linearGradient>
		<path style="fill-rule:evenodd;clip-rule:evenodd;fill:url(#SVGID_6_);" d="M0-6.3c0,1.733,1.817,3.216,5.45,4.45
			C9.05-0.617,13.433,0,18.6,0c5.133,0,9.5-0.617,13.1-1.85c3.633-1.233,5.45-2.717,5.45-4.45c0-1.733-1.816-3.217-5.45-4.45
			s-8-1.85-13.1-1.85c-5.133,0-9.517,0.617-13.15,1.85S0-8.033,0-6.3z"/>
	</g>
</symbol>
<symbol  id="flash2.ai_x2F_Layer_4_x2F__x3C_Path_x3E__x5F_7" viewBox="2.275 -3.9 167.725 3.905">
	<g id="Layer_1_3_">
		<path style="fill-rule:evenodd;clip-rule:evenodd;fill:#89591F;" d="M118.35-3.7c-7.1,0.167-12.417,0.217-15.95,0.15
			C88.933-3.85,68.717-3.833,41.75-3.5c-4.767,0.067-11.767,0.583-21,1.55C12.865-1.133,6.707-0.633,2.275-0.45
			C20.689-0.726,48.915-0.576,86.95,0c35.333,0.1,63.017-1.2,83.05-3.9c-9.733,0.367-21.667,0.383-35.8,0.05
			C130.567-3.95,125.283-3.9,118.35-3.7z"/>
	</g>
</symbol>
<symbol  id="flash2.ai_x2F_Layer_4_x2F__x3C_Path_x3E__x5F_8" viewBox="0 -21.474 804.55 21.418">
	<g id="Layer_1_2_">
		<linearGradient id="SVGID_7_" gradientUnits="userSpaceOnUse" x1="402.2749" y1="-4.1123" x2="402.2749" y2="-31.3873">
			<stop  offset="0" style="stop-color:#B78038"/>
			<stop  offset="1" style="stop-color:#DAA669"/>
		</linearGradient>
		<path style="fill-rule:evenodd;clip-rule:evenodd;fill:url(#SVGID_7_);" d="M753.25-11.95c26.5,1.2,43.6,1.684,51.3,1.45
			c-5.366-0.433-20.533-1.483-45.5-3.15c-24.767-1.667-40.033-2.733-45.8-3.2c-11.066-1.066-19.4-1.8-25-2.2
			c-9.667-0.7-18.117-0.9-25.35-0.6c-24.566,1-45.533,1.483-62.9,1.45c-22.8-0.033-43.767-0.9-62.9-2.6
			c-12.233-1.067-28.217-0.867-47.95,0.6c-24.367,1.833-40.333,2.75-47.9,2.75c-13.6,0-28.95,0.284-46.05,0.85
			c-9.1,0.333-24.467,0.967-46.1,1.9c-22.9,1-37.533,1.617-43.9,1.85c-16.467,0.6-31.1,0.9-43.9,0.9
			c-50.066,0.034-100.133,0.034-150.2,0c-20.967,0-39.8-0.066-56.5-0.2c-3-0.033-8.067-0.184-15.2-0.45
			c-8.967-0.3-15.75-0.417-20.35-0.35c-7.5,0.1-13.85,0.6-19.05,1.5c2.867,0.867,7.383,1.284,13.55,1.25
			c3.4,0,8.267-0.017,14.6-0.05C38.983-9.783,59.033-8.467,88.3-6.3c25.2,1.9,45.35,2.983,60.45,3.25c6,0.1,16.517,0.117,31.55,0.05
			c13.367-0.067,23.867,0.017,31.5,0.25c2.333,0.067,12.617,0.717,30.85,1.95c12.533,0.833,22.85,0.966,30.95,0.4
			c7.333-0.533,17.8-1.65,31.4-3.35c14.333-1.767,24.8-2.917,31.4-3.45c4.667-0.367,14.033-1.933,28.1-4.7
			c11.467-2.267,20.883-3.233,28.25-2.9c14.833,0.667,26.783,1.083,35.85,1.25c13.167,0.267,25.133,0.2,35.9-0.2
			c14.067-0.533,33.3-0.1,57.7,1.3c27.633,1.567,46.883,2.35,57.75,2.35c5.167,0,16.85-0.85,35.05-2.55
			c14.4-1.333,26.117-1.434,35.15-0.3c7.6,0.934,16.75,1.233,27.45,0.9c6.133-0.2,15.3-0.633,27.5-1.3
			C711.1-13.583,727.15-13.117,753.25-11.95z"/>
	</g>
</symbol>
<g>
	<polygon style="fill-rule:evenodd;clip-rule:evenodd;fill:#B69259;" points="895.15,112.75 0,112.65 0.35,0 895.15,0 	"/>
	
		<use xlink:href="#flash2.ai_x2F_Layer_4_x2F__x3C_Path_x3E__x5F_8"  width="804.55" height="21.418" y="-21.474" transform="matrix(1 0 0 -1 76.75 1.5)" style="overflow:visible;opacity:0.2891;enable-background:new    ;"/>
	
		<use xlink:href="#flash2.ai_x2F_Layer_4_x2F__x3C_Path_x3E__x5F_7"  width="167.725" height="3.905" x="2.275" y="-3.9" transform="matrix(1 0 0 -1 60.2002 18.5)" style="overflow:visible;opacity:0.2891;enable-background:new    ;"/>
	
		<use xlink:href="#flash2.ai_x2F_Layer_4_x2F__x3C_Compound_Path_x3E_"  width="34.75" height="10.65" y="-10.65" transform="matrix(1 0 0 -1 809.2998 83.9004)" style="overflow:visible;opacity:0.2891;enable-background:new    ;"/>
	
		<radialGradient id="SVGID_8_" cx="352.1499" cy="71.5996" r="29.65" gradientTransform="matrix(-1 0 0 -0.6644 704.2998 119.1717)" gradientUnits="userSpaceOnUse">
		<stop  offset="0.5333" style="stop-color:#2B1A11"/>
		<stop  offset="0.5961" style="stop-color:#301D13"/>
		<stop  offset="0.6667" style="stop-color:#3D2818"/>
		<stop  offset="0.7412" style="stop-color:#533920"/>
		<stop  offset="0.8196" style="stop-color:#72502B"/>
		<stop  offset="0.8863" style="stop-color:#936A37"/>
	</radialGradient>
	<path style="fill-rule:evenodd;clip-rule:evenodd;fill:url(#SVGID_8_);" d="M330.25,62.15c0-2.334,2.1-4.317,6.3-5.95
		c4.233-1.633,9.333-2.45,15.3-2.45s11.05,0.817,15.25,2.45c4.2,1.633,6.3,3.616,6.3,5.95c0,2.3-2.1,4.267-6.3,5.899
		c-4.233,1.634-9.317,2.45-15.25,2.45c-5.967,0-11.067-0.816-15.3-2.45C332.35,66.417,330.25,64.45,330.25,62.15z"/>
	
		<use xlink:href="#flash2.ai_x2F_Layer_4_x2F__x3C_Path_x3E__x5F_5"  width="37.15" height="12.6" y="-12.6" transform="matrix(1 0 0 -1 611.7002 60.0498)" style="overflow:visible;opacity:0.2891;enable-background:new    ;"/>
	
		<use xlink:href="#flash2.ai_x2F_Layer_4_x2F__x3C_Path_x3E__x5F_4"  width="51.1" height="17.35" y="-17.35" transform="matrix(1 0 0 -1 554 63.5996)" style="overflow:visible;opacity:0.2891;enable-background:new    ;"/>
	
		<use xlink:href="#flash2.ai_x2F_Layer_4_x2F__x3C_Path_x3E__x5F_3"  width="211.435" height="6.7" y="-6.7" transform="matrix(1 0 0 -1 14.9502 60.4502)" style="overflow:visible;opacity:0.1016;enable-background:new    ;"/>
	
		<use xlink:href="#flash2.ai_x2F_Layer_4_x2F__x3C_Path_x3E__x5F_2"  width="170" height="5.379" y="-5.45" transform="matrix(1 0 0 -1 42.2998 75.0498)" style="overflow:visible;opacity:0.2891;enable-background:new    ;"/>
	
		<use xlink:href="#flash2.ai_x2F_Layer_4_x2F__x3C_Path_x3E__x5F_1"  width="169.95" height="5.379" y="-5.45" transform="matrix(1 0 0 -1 685.7998 51.0498)" style="overflow:visible;opacity:0.2891;enable-background:new    ;"/>
	<g>
		
			<use xlink:href="#flash2.ai_x2F_Layer_4_x2F__x3C_Path_x3E__x5F_2_x5F_0"  width="894.7" height="21.338" y="-21.5" transform="matrix(1 0 0 -1 0.3501 91.3496)" style="overflow:visible;opacity:0.1016;enable-background:new    ;"/>
		
			<use xlink:href="#flash2.ai_x2F_Layer_4_x2F__x3C_Path_x3E__x5F_1_x5F_0"  width="894.75" height="20.716" y="-20.716" transform="matrix(1 0 0 -1 0.3501 8.75)" style="overflow:visible;opacity:0.1016;enable-background:new    ;"/>
		
			<use xlink:href="#flash2.ai_x2F_Layer_4_x2F__x3C_Path_x3E_"  width="894.75" height="21.316" y="-21.361" transform="matrix(1 0 0 -1 0.3501 25.5)" style="overflow:visible;opacity:0.2891;enable-background:new    ;"/>
	</g>
	
		<use xlink:href="#flash2.ai_x2F_Layer_4_x2F__x3C_Path_x3E__x5F_0"  width="421.15" height="7.96" y="-7.95" transform="matrix(1 0 0 -1 91.2002 86.9004)" style="overflow:visible;opacity:0.2891;enable-background:new    ;"/>
</g>
</svg>
