<?xml version="1.0" encoding="iso-8859-1"?>
<!-- Generator: Adobe Illustrator 15.1.0, SVG Export Plug-In . SVG Version: 6.00 Build 0)  -->
<!DOCTYPE svg PUBLIC "-//W3C//DTD SVG 1.1//EN" "http://www.w3.org/Graphics/SVG/1.1/DTD/svg11.dtd">
<svg version="1.1" id="Layer_4" xmlns="http://www.w3.org/2000/svg" xmlns:xlink="http://www.w3.org/1999/xlink" x="0px" y="0px"
	 width="895px" height="64.6px" viewBox="0 0 895 64.6" style="enable-background:new 0 0 895 64.6;" xml:space="preserve">
<symbol  id="flash2.ai_x2F_Layer_4_x2F__x3C_Path_x3E_" viewBox="0 -3.364 176.6 3.33">
	<g id="Layer_1_4_">
		<path style="fill-rule:evenodd;clip-rule:evenodd;fill:#89591F;" d="M145.75-1.7c-17.233-0.933-30.4-1.433-39.5-1.5
			c-26.467-0.2-44.333-0.216-53.6-0.05C32.417-2.917,14.867-1.867,0-0.1l0.1,0.05c25,0.066,52.45-0.067,82.35-0.4
			c19.999-0.22,51.382-0.145,94.15,0.225C168.728-0.487,158.444-0.979,145.75-1.7z"/>
	</g>
</symbol>
<symbol  id="flash2.ai_x2F_Layer_4_x2F__x3C_Path_x3E__x5F_0" viewBox="0 -11.15 45.6 11.15">
	<g id="Layer_1_8_">
		<path style="fill-rule:evenodd;clip-rule:evenodd;fill:#89591F;" d="M38.95-1.65c4.433-1.067,6.65-2.367,6.65-3.9
			c0-1.567-2.217-2.883-6.65-3.95c-4.467-1.1-9.85-1.65-16.15-1.65c-6.3,0-11.667,0.55-16.1,1.65C2.233-8.433,0-7.117,0-5.55
			c0,1.533,2.233,2.833,6.7,3.9C11.133-0.55,16.5,0,22.8,0C29.1,0,34.483-0.55,38.95-1.65z"/>
	</g>
</symbol>
<symbol  id="flash2.ai_x2F_Layer_4_x2F__x3C_Path_x3E__x5F_1" viewBox="0 -7.15 29.25 7.15">
	<g id="Layer_1_3_">
		<linearGradient id="SVGID_1_" gradientUnits="userSpaceOnUse" x1="0" y1="-3.5752" x2="29.2" y2="-3.5752">
			<stop  offset="0" style="stop-color:#B78038"/>
			<stop  offset="1" style="stop-color:#DAA669"/>
		</linearGradient>
		<path style="fill-rule:evenodd;clip-rule:evenodd;fill:url(#SVGID_1_);" d="M29.25-3.6c0-0.967-1.433-1.8-4.3-2.5
			c-2.867-0.7-6.317-1.05-10.35-1.05S7.133-6.8,4.3-6.1C1.433-5.4,0-4.567,0-3.6c0,1,1.433,1.85,4.3,2.55
			C7.133-0.35,10.567,0,14.6,0c4.066,0,7.517-0.35,10.35-1.05C27.817-1.75,29.25-2.6,29.25-3.6z"/>
	</g>
</symbol>
<symbol  id="flash2.ai_x2F_Layer_4_x2F__x3C_Path_x3E__x5F_1_x5F_0" viewBox="0 -16.853 894.8 16.857">
	<g id="Layer_1_7_">
		<path style="fill-rule:evenodd;clip-rule:evenodd;fill:#89591F;" d="M628.9-7.45c-19.566,1.167-36.133,1.75-49.7,1.75
			c-41.867-0.066-72.167-0.333-90.9-0.8c-16.3-0.333-28.5-0.617-36.6-0.85c-13.9-0.467-26.034-1.2-36.4-2.2
			c-36.2-3.5-77.667-5.717-124.4-6.65c-23.367-0.466-65.05-0.683-125.05-0.65c-20.167,0-44.25,0.717-72.25,2.15
			c-45.533,2.333-69.633,3.55-72.3,3.65c-8,0-15.1,0.083-21.3,0.25V0c2.667-0.033,5.15-0.117,7.45-0.25
			c1.533-0.1,5.233-0.383,11.1-0.85c18.2-1.533,40.4-3.45,66.6-5.75c21.167-1.633,43.7-2.733,67.6-3.3
			c23.533-0.533,40.783-0.9,51.75-1.1c19.1-0.333,36.383-0.483,51.85-0.45c24.1,0.034,60.533,1.6,109.3,4.7
			c48.233,3.067,84.717,4.583,109.45,4.55c13.533-0.033,38.566,0.233,75.1,0.8c31.566,0.467,56.583,0.566,75.05,0.3
			c16.633-0.267,40.5-1.2,71.6-2.8c32.6-1.7,56.45-2.717,71.55-3.05c8.833-0.2,18.317-0.133,28.45,0.2
			c6.5,0.167,16.117,0.517,28.85,1.05c1.5,0.067,4.1,0.2,7.8,0.4c3.3,0.167,5.9,0.283,7.8,0.35c1.167,0.034,2.6,0.133,4.3,0.3
			c0.933,0.1,2.35,0.267,4.25,0.5c1.466,0.167,3.65,0.533,6.55,1.1c2.9,0.6,5.083,0.983,6.55,1.15c2.3,0.267,6.066,0.75,11.3,1.45
			c5.533,0.5,12.383,0.733,20.55,0.7v-10.85c-7.833,0.434-13.283,0.7-16.35,0.8c-5,0.233-9.667,0.216-14-0.05l-5.9-0.45
			c-9.366-0.733-20.983-1.317-34.85-1.75c-15.5-0.4-27.134-0.75-34.9-1.05c-5.466-0.2-12.85-0.167-22.15,0.1
			c-7.1,0.233-19.867,0.6-38.3,1.1c-16.2,0.467-28.983,0.867-38.35,1.2c-2.5,0.1-6.434,0.284-11.8,0.55
			C656.267-9.067,639.833-8.083,628.9-7.45z"/>
	</g>
</symbol>
<symbol  id="flash2.ai_x2F_Layer_4_x2F__x3C_Path_x3E__x5F_2" viewBox="0 -3.85 167.8 3.856">
	<g id="Layer_1_2_">
		<path style="fill-rule:evenodd;clip-rule:evenodd;fill:#89591F;" d="M128.2-3.45C101.267-3.783,81.067-3.8,67.6-3.5
			c-3.533,0.067-8.85,0.017-15.95-0.15C44.717-3.85,39.433-3.9,35.8-3.8C21.633-3.467,9.7-3.483,0-3.85
			C20.033-1.183,47.717,0.1,83.05,0c3.2,0,17.917-0.133,44.15-0.4c16.469-0.156,30.003-0.156,40.6,0
			c-4.422-0.185-10.605-0.702-18.55-1.55C140.05-2.883,133.033-3.383,128.2-3.45z"/>
	</g>
</symbol>
<symbol  id="flash2.ai_x2F_Layer_4_x2F__x3C_Path_x3E__x5F_2_x5F_0" viewBox="0 -20.035 894.9 20.016">
	<g id="Layer_1_6_">
		
			<linearGradient id="SVGID_2_" gradientUnits="userSpaceOnUse" x1="15877.1475" y1="-861.1758" x2="15906.8477" y2="-861.1758" gradientTransform="matrix(3.367004e-005 1 -1 -0.001 -414.2607 -15912.1592)">
			<stop  offset="0" style="stop-color:#B78038"/>
			<stop  offset="1" style="stop-color:#DAA669"/>
		</linearGradient>
		<path style="fill-rule:evenodd;clip-rule:evenodd;fill:url(#SVGID_2_);" d="M891.4-11.75l3.5-0.15v-4.85
			c-7.1,0.867-12.216,1.467-15.35,1.8c-5.333,0.567-10,0.667-14,0.3c-5.066-0.467-10.95-0.75-17.65-0.85c-0.633,0-6.517,0-17.65,0
			c-7.934,0-17.8-0.317-29.6-0.95C787.483-17.217,777.6-17.733,771-18c-14.833-0.767-25.95-1.233-33.35-1.4
			c-12.7-0.367-23.816-0.083-33.35,0.85c-5.8,0.566-15.466,1.6-29,3.1c-12.433,1.4-22.1,2.417-29,3.05c-7.566,0.7-16.733,1-27.5,0.9
			c-12.3-0.3-21.5-0.483-27.6-0.55c-2.4-0.034-7.034,0.15-13.9,0.55c-5.767,0.367-10.383,0.417-13.85,0.15
			c-25.967-1.867-39.434-2.833-40.4-2.9c-15.033-0.733-28.566-0.517-40.6,0.65c-20.833,2-38.684,3.367-53.55,4.1
			c-19.7,1-37.583,1.15-53.65,0.45c-18.567-0.833-43.383-2.5-74.45-5c-36.667-2.9-61.466-4.75-74.4-5.55
			c-10.667-0.667-21.95-0.566-33.85,0.3c-11.466,0.833-22.65,2.316-33.55,4.45c-12.1,2.367-26.2,3.067-42.3,2.1
			c-2.2-0.133-16.317-1.517-42.35-4.15c-12.967-1.267-25.617-1.85-37.95-1.75c-12,0.033-24.133,0.667-36.4,1.9L0.05-12
			c1.6-0.167,4.133-0.517,7.6-1.05c5.367-0.7,11.95-0.767,19.75-0.2c4.4,0.333,10.983,0.867,19.75,1.6
			c4.167,0.2,10.333,0.517,18.5,0.95c7,0.434,13.15,1.05,18.45,1.85c6.9,1,17.233,2.717,31,5.15c12.267,2,22.65,3.184,31.15,3.55
			c7.567,0.333,17.433,0.033,29.6-0.9c15.5-1.2,25.367-1.85,29.6-1.95c6.033-0.167,19.05-1.15,39.05-2.95
			c16.067-1.433,29.067-1.917,39-1.45c2.733,0.133,15.35,0.867,37.85,2.2c15.233,0.934,27.883,1.467,37.95,1.6
			c10.934,0.133,26.233-0.433,45.9-1.7c21.4-1.333,36.7-2.05,45.9-2.15c7.233-0.066,16.5-0.483,27.8-1.25
			c15.434-1.066,24.7-1.667,27.8-1.8c4-0.2,9.75,0.1,17.25,0.9c7.767,0.8,13.5,1.15,17.2,1.05c9.6-0.233,15.6-0.367,18-0.4
			c6.8-0.066,12.8,0.067,18,0.4c4.2,0.267,10.067,1.066,17.6,2.4c8.1,1.4,13.967,2.267,17.6,2.6c11.066,1,23.816,0.983,38.25-0.05
			c4.667-0.333,17.367-1.583,38.1-3.75c17.566-1.833,31.866-2.7,42.9-2.6c3.9,0.034,15.883,0.917,35.95,2.65
			c14.733,1.267,26.667,1.216,35.8-0.15c5.233-0.8,13.05-2,23.45-3.6c8.934-1.1,16.817-1.284,23.65-0.55
			c6.333,0.667,13.066,0.917,20.2,0.75C871.35-10.85,878.267-11.15,891.4-11.75z"/>
	</g>
</symbol>
<symbol  id="flash2.ai_x2F_Layer_4_x2F__x3C_Path_x3E__x5F_3" viewBox="0 -7 587.6 6.97">
	<g id="Layer_1_5_">
		
			<linearGradient id="SVGID_3_" gradientUnits="userSpaceOnUse" x1="15901.2891" y1="-706.876" x2="15910.1143" y2="-706.876" gradientTransform="matrix(1.133145e-004 1 -1 -0.001 -414.8784 -15912.1592)">
			<stop  offset="0" style="stop-color:#B78038"/>
			<stop  offset="1" style="stop-color:#DAA669"/>
		</linearGradient>
		<path style="fill-rule:evenodd;clip-rule:evenodd;fill:url(#SVGID_3_);" d="M587.6-5.45l-5.3-0.35
			c-8.833-0.233-15.616-0.367-20.35-0.4c-5.434-0.066-12.434-0.05-21,0.05c-3.367,0.066-8.134,0-14.3-0.2
			c-6.533-0.167-11.066-0.25-13.6-0.25c-33.466,0.1-66.983,0.15-100.55,0.15H145c-35.933,0-62.85-0.05-80.75-0.15
			C49.783-6.833,39-6.967,31.9-7C19.6-7,8.967-6.617,0-5.85C41.467-5.75,95.417-4.4,161.85-1.8c27.233,1.066,57.733,1.65,91.5,1.75
			c17.433,0.066,48.117-0.034,92.05-0.3c26.767-0.2,62.667-0.95,107.7-2.25c51.767-1.5,87.466-2.4,107.1-2.7
			C566.633-5.4,575.767-5.45,587.6-5.45z"/>
	</g>
</symbol>
<g>
	<g>
		<rect style="fill-rule:evenodd;clip-rule:evenodd;fill:#432D20;" width="895" height="64.6"/>
		
			<use xlink:href="#flash2.ai_x2F_Layer_4_x2F__x3C_Path_x3E__x5F_2"  width="167.8" height="3.856" y="-3.85" transform="matrix(1 0 0 -1 396.75 55.0498)" style="overflow:visible;opacity:0.2891;enable-background:new    ;"/>
		
			<use xlink:href="#flash2.ai_x2F_Layer_4_x2F__x3C_Path_x3E__x5F_1"  width="29.25" height="7.15" y="-7.15" transform="matrix(1 0 0 -1 361.5498 46.2998)" style="overflow:visible;opacity:0.0508;enable-background:new    ;"/>
		
			<use xlink:href="#flash2.ai_x2F_Layer_4_x2F__x3C_Path_x3E_"  width="176.6" height="3.33" y="-3.364" transform="matrix(1 0 0 -1 152.1001 15.4502)" style="overflow:visible;opacity:0.2891;enable-background:new    ;"/>
	</g>
	
		<use xlink:href="#flash2.ai_x2F_Layer_4_x2F__x3C_Path_x3E__x5F_3"  width="587.6" height="6.97" y="-7" transform="matrix(1 0 0 -1 284.3999 26.75)" style="overflow:visible;opacity:0.0508;enable-background:new    ;"/>
	
		<use xlink:href="#flash2.ai_x2F_Layer_4_x2F__x3C_Path_x3E__x5F_2_x5F_0"  width="894.9" height="20.016" y="-20.035" transform="matrix(1 0 0 -1 0.0498 34.7998)" style="overflow:visible;opacity:0.1016;enable-background:new    ;"/>
	
		<use xlink:href="#flash2.ai_x2F_Layer_4_x2F__x3C_Path_x3E__x5F_1_x5F_0"  width="894.8" height="16.857" y="-16.853" transform="matrix(1 0 0 -1 0.1499 12.7998)" style="overflow:visible;opacity:0.2891;enable-background:new    ;"/>
	
		<use xlink:href="#flash2.ai_x2F_Layer_4_x2F__x3C_Path_x3E__x5F_0"  width="45.6" height="11.15" y="-11.15" transform="matrix(1 0 0 -1 19.8501 29)" style="overflow:visible;opacity:0.2891;enable-background:new    ;"/>
</g>
</svg>
