<?xml version="1.0" encoding="iso-8859-1"?>
<!-- Generator: Adobe Illustrator 15.1.0, SVG Export Plug-In . SVG Version: 6.00 Build 0)  -->
<!DOCTYPE svg PUBLIC "-//W3C//DTD SVG 1.1//EN" "http://www.w3.org/Graphics/SVG/1.1/DTD/svg11.dtd">
<svg version="1.1" id="Layer_4" xmlns="http://www.w3.org/2000/svg" xmlns:xlink="http://www.w3.org/1999/xlink" x="0px" y="0px"
	 width="894.85px" height="182.55px" viewBox="0 0 894.85 182.55" style="enable-background:new 0 0 894.85 182.55;"
	 xml:space="preserve">
<symbol  id="flash2.ai_x2F_Layer_4_x2F__x3C_Compound_Path_x3E_" viewBox="0 -6.65 21.65 6.65">
	<g id="Layer_1_8_">
		<path style="fill-rule:evenodd;clip-rule:evenodd;fill:#89591F;" d="M10.8,0c3,0,5.567-0.333,7.7-1
			c2.1-0.633,3.15-1.417,3.15-2.35c0-0.933-1.05-1.717-3.15-2.35c-2.133-0.633-4.7-0.95-7.7-0.95S5.25-6.333,3.15-5.7
			S0-4.283,0-3.35C0-2.417,1.05-1.633,3.15-1C5.283-0.333,7.833,0,10.8,0z"/>
	</g>
</symbol>
<symbol  id="flash2.ai_x2F_Layer_4_x2F__x3C_Compound_Path_x3E__x5F_1" viewBox="0 -3.55 11.5 3.55">
	<g id="Layer_1_7_">
		<path style="fill-rule:evenodd;clip-rule:evenodd;fill:#89591F;" d="M5.75,0C7.317,0,8.667-0.167,9.8-0.5
			c1.133-0.367,1.7-0.783,1.7-1.25c0-0.5-0.567-0.933-1.7-1.3c-1.133-0.333-2.483-0.5-4.05-0.5c-1.6,0-2.95,0.167-4.05,0.5
			C0.567-2.683,0-2.25,0-1.75C0-1.283,0.567-0.867,1.7-0.5C2.8-0.167,4.15,0,5.75,0z"/>
	</g>
</symbol>
<symbol  id="flash2.ai_x2F_Layer_4_x2F__x3C_Compound_Path_x3E__x5F_2" viewBox="0 -19.05 62.05 19.05">
	<g id="Layer_1_6_">
		<path style="fill-rule:evenodd;clip-rule:evenodd;fill:#89591F;" d="M52.95-2.8c6.066-1.867,9.1-4.117,9.1-6.75
			s-3.033-4.867-9.1-6.7c-6.034-1.867-13.333-2.8-21.9-2.8c-8.566,0-15.883,0.933-21.95,2.8C3.033-14.417,0-12.183,0-9.55
			S3.033-4.667,9.1-2.8C15.167-0.933,22.483,0,31.05,0C39.583,0,46.883-0.933,52.95-2.8z"/>
	</g>
</symbol>
<symbol  id="flash2.ai_x2F_Layer_4_x2F__x3C_Path_x3E_" viewBox="7.2 -5.5 73.3 5.5">
	<g id="Layer_1_16_">
		<linearGradient id="SVGID_1_" gradientUnits="userSpaceOnUse" x1="-0.0127" y1="-2.75" x2="80.5123" y2="-2.75">
			<stop  offset="0" style="stop-color:#B78038"/>
			<stop  offset="1" style="stop-color:#DAA669"/>
		</linearGradient>
		<path style="fill-rule:evenodd;clip-rule:evenodd;fill:url(#SVGID_1_);" d="M80.5,0v-5.5C70.3-3.7,53.817-2.617,31.05-2.25
			C22.525-2.1,14.575-2.033,7.2-2.05L80.5,0z"/>
	</g>
</symbol>
<symbol  id="flash2.ai_x2F_Layer_4_x2F__x3C_Path_x3E__x5F_1" viewBox="0 -18.25 894.7 18.261">
	<g id="Layer_1_15_">
		<path style="fill-rule:evenodd;clip-rule:evenodd;fill:#89591F;" d="M894.65-9.4l0.05-4.15c-9.233-0.067-30.4,0.983-63.5,3.15
			c-33.733,2.233-56.25,3.35-67.55,3.35C721.917-7.117,691.7-7.383,673-7.85c-16.267-0.333-28.434-0.617-36.5-0.85
			c-13.833-0.466-25.934-1.2-36.3-2.2c-36.034-3.5-77.384-5.733-124.05-6.7c-22.333-0.433-63.9-0.65-124.7-0.65
			c-20.767,0-45.85,0.617-75.25,1.85c-33.3,1.6-58.383,2.733-75.25,3.4c-17.7,0.933-30.983,1.617-39.85,2.05
			c-15.867,0.8-29.217,1.1-40.05,0.9c-7.6-0.133-19.283-1.034-35.05-2.7c-15.233-1.633-26.95-2.467-35.15-2.5
			C44.517-15.283,36-15.033,25.3-14.5c-12,0.567-20.433,0.883-25.3,0.95v4.2c14.3,0.133,30.817,1.033,49.55,2.7
			c10.833,0.967,27.767,2.583,50.8,4.85c12.9,1.133,28.5,1.733,46.8,1.8c19.767,0.1,35.333-0.5,46.7-1.8
			c26.533-3.067,50.433-5.317,71.7-6.75c20-1.3,44.284-2.284,72.85-2.95c43.6-1.067,78.05-1.583,103.35-1.55
			c24,0.033,60.317,1.6,108.95,4.7c48.1,3.067,84.5,4.583,109.2,4.55c12.8,0,37.75,0.283,74.85,0.85
			c31.233,0.467,56.167,0.55,74.8,0.25c10.5-0.133,24.7-1.117,42.6-2.95C872.783-7.75,886.95-9,894.65-9.4z"/>
	</g>
</symbol>
<symbol  id="flash2.ai_x2F_Layer_4_x2F__x3C_Path_x3E__x5F_10" viewBox="0 -5.017 399.05 5.024">
	<g id="Layer_1_4_">
		
			<linearGradient id="SVGID_2_" gradientUnits="userSpaceOnUse" x1="15845.1855" y1="-553.2656" x2="15851.6104" y2="-553.2656" gradientTransform="matrix(1.556420e-004 1 -1 -0.001 -356.2075 -15853.0996)">
			<stop  offset="0" style="stop-color:#B78038"/>
			<stop  offset="1" style="stop-color:#DAA669"/>
		</linearGradient>
		<path style="fill-rule:evenodd;clip-rule:evenodd;fill:url(#SVGID_2_);" d="M399.05-4.35c-9.6-0.667-24.883-0.833-45.85-0.5
			L94.8-4.55C71.333-4.55,53.733-4.6,42-4.7c-9.433-0.133-16.483-0.216-21.15-0.25C12.75-4.95,5.8-4.667,0-4.1
			c26.233,0.033,61.517,0.983,105.85,2.85C123.683-0.517,143.633-0.1,165.7,0c11.5,0.033,31.566-0.05,60.2-0.25
			c17.633-0.133,41.083-0.65,70.35-1.55c34.333-1.067,57.683-1.717,70.05-1.95c3.3-0.067,8.967-0.05,17,0.05
			C390.433-3.7,395.683-3.917,399.05-4.35z"/>
	</g>
</symbol>
<symbol  id="flash2.ai_x2F_Layer_4_x2F__x3C_Path_x3E__x5F_11" viewBox="0 -7.604 550.65 7.574">
	<g id="Layer_1_3_">
		
			<linearGradient id="SVGID_3_" gradientUnits="userSpaceOnUse" x1="15841.4082" y1="-629.4844" x2="15851.0332" y2="-629.4844" gradientTransform="matrix(1.038961e-004 1 -1 -0.001 -355.8057 -15853.0996)">
			<stop  offset="0" style="stop-color:#B78038"/>
			<stop  offset="1" style="stop-color:#DAA669"/>
		</linearGradient>
		<path style="fill-rule:evenodd;clip-rule:evenodd;fill:url(#SVGID_3_);" d="M505.65-7.55c-10.3,0.066-25.967,0.283-47,0.65
			c-13.333,0.167-21,0.25-23,0.25c-18.933,0.1-47.4,0.15-85.4,0.15c-75.7,0.033-151.417,0.033-227.15,0
			c-30.5,0-53.35-0.05-68.55-0.15C42.283-6.883,33.133-7,27.1-7C16.667-7.033,7.633-6.65,0-5.85c35.033,0.067,80.85,1.4,137.45,4
			c23.2,1.067,49.1,1.667,77.7,1.8c15.533,0.066,41.583-0.034,78.15-0.3c22.833-0.2,53.3-0.95,91.4-2.25
			c44.433-1.5,74.75-2.417,90.95-2.75c4.3-0.1,17.067-0.2,38.3-0.3c20.066-0.233,32.3-0.65,36.7-1.25
			C543.083-7.5,528.083-7.717,505.65-7.55z"/>
	</g>
</symbol>
<symbol  id="flash2.ai_x2F_Layer_4_x2F__x3C_Path_x3E__x5F_12" viewBox="0 -15.367 177.65 15.367">
	<g id="Layer_1_2_">
		
			<linearGradient id="SVGID_4_" gradientUnits="userSpaceOnUse" x1="15830.1816" y1="-443.4116" x2="15849.7314" y2="-443.4116" gradientTransform="matrix(5.115090e-005 1 -1 -0.001 -355.397 -15853.0996)">
			<stop  offset="0" style="stop-color:#B78038"/>
			<stop  offset="1" style="stop-color:#DAA669"/>
		</linearGradient>
		<path style="fill-rule:evenodd;clip-rule:evenodd;fill:url(#SVGID_4_);" d="M155.85,0c9.3-0.1,16.566-1.233,21.8-3.4
			c-2.7-6.133-12.617-9.017-29.75-8.65c-5.066,0.1-11.667,0.533-19.8,1.3C120.233-9.983,115.533-9.6,114-9.6
			c-8.8,0.033-16.3-0.217-22.5-0.75c-7.733-0.633-15.1-1.783-22.1-3.45c-5.967-1.434-13.717-1.883-23.25-1.35
			c-13.1,0.767-20.917,1.1-23.45,1c-5.2-0.533-9.184-0.783-11.95-0.75C5.85-14.867,2.267-13.783,0-11.65
			C2.867-10.15,7.467-9,13.8-8.2c8.7,1.133,13.534,1.8,14.5,2c6.333,1.434,14.034,2.233,23.1,2.4c15.133,0.3,22.833,0.466,23.1,0.5
			c17.167,1.133,26.933,1.767,29.3,1.9c11.1,0.633,20.883,0.95,29.35,0.95C137.683-0.45,145.25-0.3,155.85,0z"/>
	</g>
</symbol>
<symbol  id="flash2.ai_x2F_Layer_4_x2F__x3C_Path_x3E__x5F_2" viewBox="0 -10.467 342.7 10.447">
	<g id="Layer_1_14_">
		
			<linearGradient id="SVGID_5_" gradientUnits="userSpaceOnUse" x1="15837.3496" y1="-525.7397" x2="15850.5996" y2="-525.7397" gradientTransform="matrix(7.547170e-005 1 -1 -0.001 -355.5854 -15853.0996)">
			<stop  offset="0" style="stop-color:#B78038"/>
			<stop  offset="1" style="stop-color:#DAA669"/>
		</linearGradient>
		<path style="fill-rule:evenodd;clip-rule:evenodd;fill:url(#SVGID_5_);" d="M329.2-7.7c6.133,0.034,10.633-0.383,13.5-1.25
			c-5.233-0.9-11.583-1.4-19.05-1.5c-4.9-0.066-11.667,0.067-20.3,0.4c-5.9,0.233-10.983,0.367-15.25,0.4
			c-12.5,0.133-31.317,0.2-56.45,0.2L81.4-9.4c-20.167,0-35.283-0.083-45.35-0.25c-8.1-0.333-14.15-0.517-18.15-0.55
			C11-10.233,5.033-9.667,0-8.5c23.6,0.167,53.9,2.117,90.9,5.85c15.333,1.533,32.467,2.4,51.4,2.6
			c10.233,0.1,27.467-0.05,51.7-0.45c15.067-0.267,35.217-1.35,60.45-3.25c29.2-2.2,49.25-3.533,60.15-4
			C317.433-7.883,322.3-7.867,329.2-7.7z"/>
	</g>
</symbol>
<symbol  id="flash2.ai_x2F_Layer_4_x2F__x3C_Path_x3E__x5F_3" viewBox="0 -6.75 190.05 6.718">
	<g id="Layer_1_13_">
		<linearGradient id="SVGID_6_" gradientUnits="userSpaceOnUse" x1="95.0249" y1="6.7124" x2="95.0249" y2="-39.0126">
			<stop  offset="0" style="stop-color:#B78038"/>
			<stop  offset="1" style="stop-color:#DAA669"/>
		</linearGradient>
		<path style="fill-rule:evenodd;clip-rule:evenodd;fill:url(#SVGID_6_);" d="M190.05-2.35L189.3-5.1
			c-14.566-0.566-33.3-0.633-56.2-0.2C102.2-4.733,83.5-4.45,77-4.45C66.467-4.483,53.633-4.767,38.5-5.3C21.4-6,8.567-6.483,0-6.75
			v5.45c4.733,0.466,8.767,0.783,12.1,0.95c6.467,0.367,14.75,0.417,24.85,0.15C50.983-0.567,59.267-0.75,61.8-0.75
			c7.367,0,18.434,0.05,33.2,0.15c12.733-0.133,23.733-0.733,33-1.8c7.233-0.833,17.6-0.917,31.1-0.25
			C173.4-1.95,183.717-1.85,190.05-2.35z"/>
	</g>
</symbol>
<symbol  id="flash2.ai_x2F_Layer_4_x2F__x3C_Path_x3E__x5F_4" viewBox="0 -8.4 26.95 8.4">
	<g id="Layer_1_12_">
		
			<linearGradient id="SVGID_7_" gradientUnits="userSpaceOnUse" x1="15840.5078" y1="-367.7153" x2="15851.1582" y2="-367.7153" gradientTransform="matrix(9.389672e-005 1 -1 -0.001 -355.728 -15853.0996)">
			<stop  offset="0" style="stop-color:#B78038"/>
			<stop  offset="1" style="stop-color:#DAA669"/>
		</linearGradient>
		<path style="fill-rule:evenodd;clip-rule:evenodd;fill:url(#SVGID_7_);" d="M26.95-4.2c0-1.167-1.317-2.15-3.95-2.95
			c-2.633-0.833-5.8-1.25-9.5-1.25c-3.733,0-6.917,0.417-9.55,1.25C1.317-6.35,0-5.367,0-4.2c0,1.167,1.317,2.167,3.95,3
			C6.583-0.4,9.767,0,13.5,0s6.9-0.4,9.5-1.2C25.633-2.033,26.95-3.033,26.95-4.2z"/>
	</g>
</symbol>
<symbol  id="flash2.ai_x2F_Layer_4_x2F__x3C_Path_x3E__x5F_5" viewBox="0 -11.2 42.2 11.2">
	<g id="Layer_1_11_">
		
			<linearGradient id="SVGID_8_" gradientUnits="userSpaceOnUse" x1="15836.4258" y1="-375.5303" x2="15850.626" y2="-375.5303" gradientTransform="matrix(7.042254e-005 1 -1 -0.001 -355.5464 -15853.0996)">
			<stop  offset="0" style="stop-color:#B78038"/>
			<stop  offset="1" style="stop-color:#DAA669"/>
		</linearGradient>
		<path style="fill-rule:evenodd;clip-rule:evenodd;fill:url(#SVGID_8_);" d="M36-1.65c4.133-1.1,6.2-2.417,6.2-3.95
			c0-1.566-2.067-2.883-6.2-3.95c-4.1-1.1-9.067-1.65-14.9-1.65c-5.833,0-10.8,0.55-14.9,1.65C2.067-8.483,0-7.167,0-5.6
			c0,1.533,2.067,2.85,6.2,3.95C10.3-0.55,15.267,0,21.1,0C26.933,0,31.9-0.55,36-1.65z"/>
	</g>
</symbol>
<symbol  id="flash2.ai_x2F_Layer_4_x2F__x3C_Path_x3E__x5F_6" viewBox="0 -11.2 45.55 11.2">
	<g id="Layer_1_10_">
		
			<linearGradient id="SVGID_9_" gradientUnits="userSpaceOnUse" x1="15836.4238" y1="-377.2051" x2="15850.624" y2="-377.2051" gradientTransform="matrix(7.042254e-005 1 -1 -0.001 -355.5464 -15853.0996)">
			<stop  offset="0" style="stop-color:#B78038"/>
			<stop  offset="1" style="stop-color:#DAA669"/>
		</linearGradient>
		<path style="fill-rule:evenodd;clip-rule:evenodd;fill:url(#SVGID_9_);" d="M38.9-1.65c4.434-1.1,6.65-2.417,6.65-3.95
			s-2.216-2.85-6.65-3.95c-4.467-1.1-9.833-1.65-16.1-1.65c-6.3,0-11.667,0.55-16.1,1.65C2.233-8.483,0-7.167,0-5.6
			c0,1.533,2.233,2.85,6.7,3.95C11.133-0.55,16.5,0,22.8,0C29.067,0,34.433-0.55,38.9-1.65z"/>
	</g>
</symbol>
<symbol  id="flash2.ai_x2F_Layer_4_x2F__x3C_Path_x3E__x5F_8" viewBox="0 -8.5 23.9 8.5">
	<g id="Layer_1_9_">
		<path style="fill-rule:evenodd;clip-rule:evenodd;fill:#89591F;" d="M23.9-4.25c0-1.167-1.167-2.167-3.5-3
			c-2.333-0.833-5.15-1.25-8.45-1.25c-3.3,0-6.117,0.417-8.45,1.25S0-5.417,0-4.25s1.167,2.167,3.5,3S8.65,0,11.95,0
			c3.3,0,6.117-0.417,8.45-1.25C22.733-2.083,23.9-3.083,23.9-4.25z"/>
	</g>
</symbol>
<symbol  id="flash2.ai_x2F_Layer_4_x2F__x3C_Path_x3E__x5F_9" viewBox="0 -9.451 246.7 9.405">
	<g id="Layer_1_5_">
		<path style="fill-rule:evenodd;clip-rule:evenodd;fill:#89591F;" d="M187.05-9.45c-21.133,0.067-35.883,0.167-44.25,0.3
			c-16.5,0.233-31.233,0.717-44.2,1.45c-5.267,0.3-13.017,0.35-23.25,0.15C65.117-7.75,57.4-7.7,52.2-7.4
			C42.033-6.8,34.067-6.433,28.3-6.3C18.967-6.033,9.533-6.05,0-6.35c29.333,5.267,69.767,7.233,121.3,5.9
			c4.2-0.1,25.667-0.867,64.4-2.3c24.973-0.906,45.306-1.331,61-1.275c-6.527-0.146-16.161-1.07-28.9-2.775
			C204.333-8.6,194.083-9.483,187.05-9.45z"/>
	</g>
</symbol>
<g>
	<path style="fill-rule:evenodd;clip-rule:evenodd;fill:#50341E;" d="M894.85,77.3c-0.033,2.233-0.116,4.133-0.25,5.7
		c-0.1,1.167-0.166,2.633-0.199,4.4c-0.034,0.967-0.067,2.434-0.101,4.4l-0.35,21.9c-190.601,0.366-396.65-1.15-618.15-4.55
		c-110.767-1.7-202.466-3.434-275.1-5.2c-0.267-7.834-0.434-13.7-0.5-17.6C0.067,79.417,0.517,73.633,1.55,69
		c0.034,0.9,0.367,2.183,1,3.85c0.133-0.434,0.233-1.1,0.3-2c0.033-1,0.1-1.684,0.2-2.05c0.167,1.267,0.65,2.3,1.45,3.1
		c2.767-2.4,4.733-4.316,5.9-5.75c-0.4,1.167-0.55,2.483-0.45,3.95c0.4-1.1,0.667-1.767,0.8-2c0.333,0.233,0.667,0.733,1,1.5
		c0.433,0.967,0.683,1.517,0.75,1.65c0.333-1.467,0.833-2.567,1.5-3.3c0.5,0.733,1.183,1.466,2.05,2.2
		c0.467,0.367,1.3,0.95,2.5,1.75c0.034-0.467,0.233-0.9,0.6-1.3s0.767-0.667,1.2-0.8c0,0.534,0.233,1.083,0.7,1.65
		c0.6-0.767,1.35-0.817,2.25-0.15c1.267,0.934,2,1.417,2.2,1.45c1.233,0.167,2.667-0.55,4.3-2.15c1.7-1.934,2.833-3.217,3.4-3.85
		c0.566,1.667,1.017,2.583,1.35,2.75c0.333,0.167,0.9,0.05,1.7-0.35c1-0.533,1.6-0.816,1.8-0.85c-0.1,0.8,0.017,1.5,0.35,2.1
		c0.5-0.033,1.167-0.25,2-0.65c1.067-0.467,1.733-0.75,2-0.85c0.4-0.1,1.4-0.316,3-0.65c1.233-0.267,2.217-0.55,2.95-0.85
		c-0.233,0.7-0.317,1.817-0.25,3.35c0.133-0.1,0.667-0.633,1.6-1.6c0.667-0.7,1.3-1.05,1.9-1.05c0.333,0,0.917,0.183,1.75,0.55
		c0.9,0.367,1.583,0.567,2.05,0.6c0.567,0.067,1.65,0.367,3.25,0.9c1.367,0.467,2.4,0.667,3.1,0.6c0.933-0.033,1.467-0.433,1.6-1.2
		c0.233-1.133,0.467-1.85,0.7-2.15c0.867,0.767,1.667,1.233,2.4,1.4c1,0.233,1.5-0.333,1.5-1.7l1.75,1.35
		c0.633-0.833,1.45-2.034,2.45-3.6c1.2-1.833,2.017-3.067,2.45-3.7c-0.667,1.367-0.667,3.783,0,7.25
		c0.1-0.066,0.583-0.617,1.45-1.65c0.567-0.667,1.167-0.983,1.8-0.95c-0.067,0.7,0.1,1.217,0.5,1.55c0.4,0.367,0.65,0.083,0.75-0.85
		c0.267,0.767,0.816,1.5,1.65,2.2c-0.033-0.467,0.017-1.034,0.15-1.7c0.067,1.067,0.434,1.75,1.1,2.05
		c0.2-0.466,0.383-1.55,0.55-3.25c0.1-1.466,0.434-2.466,1-3c0.9,2.5,2.45,4.05,4.65,4.65c1.733,0.433,4.05,0.316,6.95-0.35
		c-0.133,0.3-0.2,0.733-0.2,1.3c0.274-0.329,0.457-0.579,0.55-0.75c-0.171,0.407,0.145,0.44,0.95,0.1c1.6-0.6,1.966-0.783,1.1-0.55
		c0.034,0,0.3-0.233,0.8-0.7c0.267-0.233,0.6-0.117,1,0.35c0.3-0.5,0.45-0.95,0.45-1.35c0.367,0.2,0.784,0.55,1.25,1.05
		c0.6,0.6,1,0.983,1.2,1.15c-0.033-0.733-0.083-1.25-0.15-1.55c0.267,0.167,0.733,0.567,1.4,1.2c0.567,0.5,1.067,0.85,1.5,1.05
		c-0.033-0.733,0.2-2.367,0.7-4.9c0.433,0.467,1.066,1.15,1.9,2.05c0.733,0.767,1.433,1.383,2.1,1.85
		c0.066-0.467,0.417-0.683,1.05-0.65c0.733,0.067,1.267-0.15,1.6-0.65c-0.033,0.3,0.05,0.733,0.25,1.3c2.333-1.5,3.667-2.35,4-2.55
		c1.533-1,2.8-1.95,3.8-2.85c-0.033,0.2-0.133,0.867-0.3,2c-0.167,0.767-0.233,1.45-0.2,2.05c0.133-0.1,0.434-0.367,0.9-0.8
		c0.367-0.333,0.684-0.583,0.95-0.75c0.033,0.1,0.15,0.317,0.35,0.65c0.167,0.3,0.267,0.55,0.3,0.75c0.567-1,1.25-1.45,2.05-1.35
		c0.233,0,1.15,0.333,2.75,1c-0.034-0.2-0.017-0.466,0.05-0.8c0.133-0.467,0.2-0.733,0.2-0.8c0.667,0.433,1.216,0.633,1.65,0.6
		c0.267-0.033,0.7-0.183,1.3-0.45c0.067-0.033,0.2-0.167,0.4-0.4c0.2-0.2,0.45-0.333,0.75-0.4c0.434-0.066,1.284,0.117,2.55,0.55
		c1.533,0.133,2.633,0.017,3.3-0.35c0.2-0.1,0.684-0.55,1.45-1.35c0.6-0.566,1.217-0.917,1.85-1.05c-0.034,0.3,0,0.583,0.1,0.85
		c0.034,0.167,0.117,0.383,0.25,0.65c0.833-0.867,1.65-1.05,2.45-0.55c1,0.6,1.85,0.75,2.55,0.45c0.067-0.033,0.184-0.217,0.35-0.55
		c0.133-0.333,0.267-0.534,0.4-0.6c0.434-0.267,1.1-0.55,2-0.85c0.9-0.333,2.2-0.9,3.9-1.7c0.066,0.3,0.283,0.667,0.65,1.1
		c-0.434-1.2,1.383-2.917,5.45-5.15c0.967,2,3.017,2.7,6.15,2.1c1.566-0.3,4.033-1.184,7.4-2.65c0.533,1.3,1.467,1.633,2.8,1
		c1.5-0.7,2.65-0.567,3.45,0.4c1.2-0.9,2.4-2.517,3.6-4.85c0.667-1.3,1.6-3.15,2.8-5.55c-1.233,2.7-1.85,5.75-1.85,9.15
		c1.63,0.2,2.98-0.167,4.05-1.1c-0.689,0.634,0.744,1.034,4.3,1.2c1.767,0.066,3.55,0.066,5.35,0c3.033-0.233,5.967-0.65,8.8-1.25
		c2.067-0.434,4.883-1.167,8.45-2.2c1.233-0.367,2.183-0.483,2.85-0.35c0.466,0.067,1.383,0.233,2.75,0.5
		c1.233,0.133,3.167,0.2,5.8,0.2c2.533,0,4.45,0.083,5.75,0.25c1.5,0.2,2.583-0.017,3.25-0.65c0.1-0.067,0.783-1.034,2.05-2.9
		c0.067,1.233,0.534,1.934,1.4,2.1c0.6-0.733,1.05-1.1,1.35-1.1c0.133,0.034,0.317,0.117,0.55,0.25c0.233,0.167,0.3,0.25,0.2,0.25
		c-0.1,0,0.267,0.083,1.1,0.25c0.133,0,0.333-0.1,0.6-0.3s0.467-0.317,0.6-0.35c0.467-0.033,0.833,0.083,1.1,0.35
		c0.333,0.267,0.617,0.417,0.85,0.45c0.534,0.033,1.883-0.45,4.05-1.45c2.229-1.031,3.279-1.748,3.15-2.15
		c0.768,2.199,2.834,2.032,6.2-0.5c1.566-1.167,3.833-3.283,6.8-6.35c-0.067,0.767-0.167,1.933-0.3,3.5
		c-0.067,1.367,0.066,2.533,0.4,3.5c1.533,0.267,3.017,0.183,4.45-0.25c1.467-0.433,2.684-1.183,3.65-2.25
		c0.433,1.367,1.15,1.933,2.15,1.7c0.933-0.2,1.7-0.883,2.3-2.05c1.167,1.934,2.934,2.767,5.3,2.5c0.033-0.533-0.083-2.533-0.35-6
		c-0.167-2.533-0.033-4.45,0.4-5.75c0.233,2.4,0.717,4.483,1.45,6.25c1,2.367,2.367,3.833,4.1,4.4
		c0.291-1.938,0.458-3.612,0.5-5.025c-0.001,3.665,4.049,4.74,12.15,3.225c3.033-0.533,6.066-1.367,9.1-2.5
		c2.867-1.033,4.7-1.933,5.5-2.7c-0.633,1.833-0.483,3.317,0.45,4.45c1.833-0.833,3.767-3.033,5.8-6.6
		c2.233-3.967,4.05-6.467,5.45-7.5c-0.033,0.1-0.483,1.8-1.35,5.1c-0.533,2.033-0.7,3.767-0.5,5.2c0.767-0.333,1.817-0.934,3.15-1.8
		c1.4-0.9,2.434-1.517,3.1-1.85c0.167,1.567,0.667,2.534,1.5,2.9c0.1,0.033,1.1,0.15,3,0.35c2.067-0.3,3.133-0.466,3.2-0.5
		c2.133-0.267,6.583-0.417,13.35-0.45c6.066-0.467,9.933-2.117,11.6-4.95c0.767,0.967,2.034,1.617,3.8,1.95
		c1,0.167,2.433,0.35,4.3,0.55c1.5,0.333,3.55,0.817,6.15,1.45c2.133,0.267,4.083-0.184,5.85-1.35c0.3-0.2,0.883-0.867,1.75-2
		c0.8-1.067,1.367-1.633,1.7-1.7c0.566-0.1,1.183,0.184,1.85,0.85c0.767,0.8,1.35,1.25,1.75,1.35c1.333,0.367,2.7,0.383,4.1,0.05
		c2.034-0.433,3.4-0.667,4.1-0.7c0.434,0,1.317,0.133,2.65,0.4c1.167,0.233,2.034,0.283,2.6,0.15c0.767-0.2,1.783-0.7,3.05-1.5
		c1.433-0.9,2.417-1.467,2.95-1.7c-0.2,0.4-0.333,0.95-0.4,1.65c-0.1,0.8-0.183,1.333-0.25,1.6c0.4-0.233,2.1-1.517,5.1-3.85
		c2.066-1.6,3.917-2.517,5.55-2.75c-0.867,2.4-1.167,4.35-0.9,5.85c0.9-0.833,2.4-1.217,4.5-1.15c1.933,0.034,3.267-0.45,4-1.45
		c0.233-0.3,0.717-0.317,1.45-0.05c0.4,0.167,1.1,0.45,2.1,0.85c2,0.533,3.333-0.6,4-3.4c0.333-1.5,0.434-3.467,0.3-5.9
		c-0.103-1.697-0.186-3.031-0.25-4c0.19,1.681,0.607,3.581,1.25,5.7c0.9,3.067,1.917,5.333,3.05,6.8c0.767-2.967,1.383-8,1.85-15.1
		c0.433-6.6,1.217-11.6,2.35-15c0.7,7.567,1.133,11.967,1.3,13.2c0.7,5.033,1.75,9.316,3.15,12.85c1.233,3,2.517,4.534,3.851,4.6
		c1.355,0.099,2.563-1.393,3.625-4.475c-0.835,2.593,1.356,4.418,6.574,5.475c4.601,0.934,8,1.033,10.2,0.3
		c0,0.3-0.033,0.767-0.1,1.4c-0.066,0.533-0.066,1,0,1.4c0.934-0.8,1.533-1,1.8-0.6c0.167,0.267,0.384,0.967,0.65,2.1
		c1.066,0.133,2.616-0.433,4.649-1.7c1.101-0.667,2.533-1.6,4.3-2.8c-0.066,2.067,0.351,3.617,1.25,4.65
		c0.867-1.167,2.051-1.333,3.551-0.5c2.033,1.133,3.5,1.633,4.399,1.5c-0.033-0.867-0.05-1.517-0.05-1.95c0-0.8,0.15-1.4,0.45-1.8
		c4.533,2.733,9.066,3.983,13.6,3.75c0.033-0.2,0.101-0.45,0.2-0.75c0.134-0.3,0.217-0.533,0.25-0.7c0.366,0.966,0.884,1.5,1.55,1.6
		c0.066-0.733,0.267-1.133,0.601-1.2c0.066,0,0.5,0.066,1.3,0.2c0.833,0.167,2.133,0.6,3.899,1.3c1.733,0.7,3.067,1.133,4,1.3
		c1.801,0.3,2.917,0.05,3.351-0.75c0.267-0.533,0.783-1.667,1.55-3.4c0.233,1.933,1.316,3.017,3.25,3.25c2.2,0.3,3.8,0.633,4.8,1
		c0.533,0.2,1.75,0.667,3.65,1.4c1.8,0.6,3.05,0.733,3.75,0.4c0.233-0.1,0.533-0.566,0.899-1.4c0.367-0.6,0.851-0.566,1.45,0.1
		c0.434-0.867,1.101-0.933,2-0.2c0.467,0.4,1.066,1.067,1.8,2c0.334-0.6,0.717-1.566,1.15-2.9c0,0.367,0.116,0.833,0.35,1.4
		c0.101-0.133,0.717-1,1.851-2.6c0.733-1.1,1.399-1.917,2-2.45c0.1,0.733,0.149,1.8,0.149,3.2c0,1.466,0.034,2.533,0.101,3.2
		c1.833-1.667,3.967-2.65,6.399-2.95c-0.533,1.066-0.733,2.05-0.6,2.95c0.333-0.133,0.934-0.4,1.8-0.8c0.7-0.2,1.05,0.133,1.05,1
		c1.067-1.733,2.767-3.4,5.101-5c0.666-0.434,2.767-1.667,6.3-3.7c-1.467,1.067-2.767,2.567-3.9,4.5
		c-1.199,2.167-1.699,4.067-1.5,5.7c1.634-1.6,3.567-2.733,5.801-3.4c0.545-0.161,2.678-0.61,6.399-1.35
		c-0.575,0.204-1.075,0.771-1.5,1.7c-0.399,0.9-0.649,1.9-0.75,3c0.767-0.6,1.45-0.767,2.05-0.5c1.134,0.467,1.784,0.7,1.95,0.7
		c0.233,0.033,0.601-0.083,1.101-0.35c0.566-0.267,0.933-0.417,1.1-0.45c1.566-0.2,2.833-0.65,3.8-1.35
		c0.834-0.567,1.816-1.567,2.95-3c-0.1,1.6-0.134,4.033-0.1,7.3c0.166-0.433,0.533-0.883,1.1-1.35c0.634-0.6,1.134-0.75,1.5-0.45
		c0.2,0.167,0.217,0.6,0.05,1.3c-0.2,0.867-0.3,1.367-0.3,1.5c0.3-0.033,0.717-0.133,1.25-0.3c0.533-0.2,0.934-0.317,1.2-0.35
		c0.7-0.067,1.7-0.017,3,0.15c1.533,0.233,2.533,0.35,3,0.35c2.733,0.133,4.233,0.183,4.5,0.15c1.666-0.167,2.733-0.967,3.2-2.4
		c0.8,1.767,1.649,2.95,2.55,3.55c0.1-0.233,0.316-0.933,0.649-2.1c0.434,0.4,1.2,1.033,2.301,1.9c1,0.833,1.666,1.566,2,2.2
		c-0.034-0.8-0.15-1.55-0.351-2.25c0.533,0.534,1.25,1.05,2.15,1.55c0.533,0.3,1.316,0.717,2.35,1.25
		c0.101,0.033,0.783,0.45,2.05,1.25c0.834,0.533,1.534,0.883,2.101,1.05c0.467-1.367,0.816-2.383,1.05-3.05
		c0.4-1.2,0.616-2.267,0.65-3.2c0.633,1.467,1.416,3.117,2.35,4.95c0.533,0.066,1.316-0.317,2.35-1.15
		c0.567-0.434,1.317-1.05,2.25-1.85c2.267-1.467,5.517-3.05,9.75-4.75c-0.933,0.733-1.666,2.183-2.199,4.35
		c-0.434,1.733-0.65,3.4-0.65,5c0.733-1.133,1.5-2.05,2.3-2.75c0.101,1.367,0.5,2.133,1.2,2.3c0.167,0.033,0.417-0.133,0.75-0.5
		s0.616-0.567,0.85-0.6c0.5-0.033,1.367,0.383,2.601,1.25c0.666,0.467,1.467,1.05,2.399,1.75c0.567,0.333,1.417,0.833,2.551,1.5
		c0.966,0.567,1.85,0.967,2.649,1.2c-0.166-1.2,0.917-1.383,3.25-0.55c2.967,1.067,4.483,1.6,4.55,1.6
		c-0.366-1.167-0.566-2.033-0.6-2.6c0.634,0.067,1.517,0.55,2.65,1.45c1.066,0.867,2,1.3,2.8,1.3c0.033-0.7,0-1.183-0.101-1.45
		c0.5,0.066,1.867,0.7,4.101,1.9c1.833,0.967,3.25,1.283,4.25,0.95c0.899-0.3,1.75-1.6,2.55-3.9c1-3,1.566-4.6,1.7-4.8
		c0.434,0.933,1.133,2.533,2.1,4.8c1,1.934,2.184,3.167,3.55,3.7c-0.033-0.233,0-0.533,0.101-0.9c0.066-0.434,0.1-0.717,0.1-0.85
		c1.134,1.867,2.351,3.217,3.65,4.05V60.8c0.8,1.967,3.184,2.017,7.149,0.15c2.134-1,4.867-2.383,8.2-4.15
		c0.033,0.567,0.033,1.55,0,2.95c0.033,1.233,0.316,2.117,0.851,2.65c0.433-0.933,0.666-1.533,0.699-1.8
		c0.467,0.5,1.184,1.316,2.15,2.45c0.2-0.933,0.434-1.633,0.7-2.1c1.133,0.633,2.833,1.65,5.1,3.05c2.033,1.233,3.8,2.133,5.3,2.7
		c-0.033-1.2,0.2-2.434,0.7-3.7c0.4,0.9,1.05,1.867,1.95,2.9c1.667-3.367,2.517-5.083,2.55-5.15c0.967-2.1,1.517-3.917,1.65-5.45
		c0.066,4.567,0.483,8.05,1.25,10.45c0.366-0.5,1.116-1.217,2.25-2.15c0.233,0.667,0.616,1.2,1.149,1.6
		c0.567,0.4,1.184,0.583,1.851,0.55c0.066-0.533,0.083-0.917,0.05-1.15c0.7-0.033,1.667,0.15,2.9,0.55
		c0.666,0.233,1.633,0.55,2.899,0.95c0.134-2.9,1.884-3.633,5.25-2.2c1.767,0.8,4.066,1.917,6.9,3.35
		c-0.066-1.033,0.733-1.3,2.399-0.8c0.867,0.267,1.95,0.7,3.25,1.3c0.233-0.367,0.634-0.517,1.2-0.45c0.834,0.1,1.334,0.133,1.5,0.1
		c0.267-0.066,1.2-0.867,2.8-2.4c1.4-1.333,2.384-1.8,2.95-1.4c0.267,0.2,0.417,1.05,0.45,2.55c0,1.567,0.283,2.583,0.85,3.05
		c0.834,0.7,1.4,0.85,1.7,0.45c0.167-0.233,0.3-0.9,0.4-2c0.033,0.3,0.1,0.783,0.2,1.45c0.8-1.033,2.3-1.133,4.5-0.3
		c3.333,1.3,5.05,1.95,5.149,1.95c-0.267-1.633,0.417-2.25,2.05-1.85c0.9,0.2,2.217,0.633,3.95,1.3c0.033-0.067,0.267-0.5,0.7-1.3
		c0.3-0.6,0.566-1.033,0.8-1.3c-0.033,0.933,0.101,1.733,0.4,2.4c0.434,0.833,1.066,1.183,1.899,1.05
		c0.167-0.966,0.284-1.533,0.351-1.7c0.2-0.633,0.55-0.883,1.05-0.75c0.233,0.066,0.483,0.45,0.75,1.15c0.267,0.667,0.667,1,1.2,1
		c0.967-3.633,2.083-5.5,3.35-5.6c0.634-0.033,1.084,0.417,1.351,1.35c0.3,1.067,0.633,1.667,1,1.8c0.6,0.233,1.416-0.333,2.449-1.7
		c0.534-0.767,1.217-1.783,2.051-3.05c0.333,0.567,0.966,1.667,1.899,3.3c0.934,1.4,1.851,2.2,2.75,2.4
		c0.066-1.333,0.667-1.517,1.8-0.55c1.634,1.367,2.584,2.05,2.851,2.05c0.533,0.033,1.517-0.25,2.95-0.85
		c1.533-0.367,3.449-0.7,5.75-1c1.033-0.133,2.583-0.417,4.649-0.85c1.867-0.333,3.417-0.483,4.65-0.45
		c0.333,0.9,0.95,1.683,1.85,2.35c0.367-0.367,0.867-0.934,1.5-1.7c0.134,0.1,0.483,0.383,1.05,0.85
		c0.434,0.367,0.801,0.633,1.101,0.8c0.133-0.333,0.2-0.6,0.2-0.8c0.233,0.167,0.6,0.517,1.1,1.05c0.467,0.533,0.866,0.9,1.2,1.1
		c0.767,0.5,1.25,0.717,1.45,0.65c0.166-0.066,0.55-0.367,1.149-0.9c0.267-0.167,0.8-0.5,1.601-1c0.733-0.433,1.316-0.617,1.75-0.55
		c0.199,0.033,0.517,0.25,0.949,0.65c0.4,0.367,0.767,0.583,1.101,0.65c0.467-0.433,1.133-0.467,2-0.1
		c1.233,0.533,1.934,0.8,2.1,0.8c0.733,0.033,1.334-0.184,1.8-0.65c0.601-0.566,1.134-0.9,1.601-1c0.267,1.067,0.85,2,1.75,2.8
		c0.899,0.833,1.816,1.217,2.75,1.15c1.533-0.1,4.283-0.767,8.25-2c3.434-1.1,6.233-1.533,8.399-1.3
		c-0.033,0.533-0.116,1.35-0.25,2.45c1.534-0.566,2.517-0.833,2.95-0.8c0.467,0.033,0.834,0.183,1.101,0.45
		c0.399,0.367,0.733,0.617,1,0.75c1.533,0.7,2.416,1.1,2.649,1.2c1.2,0.467,2.134,0.683,2.8,0.65c0.534-0.033,0.917-0.267,1.15-0.7
		c0.033-0.034,0.2-0.467,0.5-1.3l0.85,1.45c0.101-0.1,0.184-0.283,0.25-0.55c0.067-0.267,0.134-0.45,0.2-0.55
		c0.167,0.1,0.334,0.383,0.5,0.85c0.233-0.367,0.367-0.934,0.4-1.7c0.033-0.867,0.05-1.467,0.05-1.8c-0.1-1.333-0.167-2.35-0.2-3.05
		c0.367,0.567,0.934,1.617,1.7,3.15c0.667,1.333,1.25,2.35,1.75,3.05c0.033-0.6,0-1.233-0.1-1.9c0.633,0.467,1.466,1.433,2.5,2.9
		c0.1-0.3,0.133-1.117,0.1-2.45c0-1.367,0.033-2.183,0.1-2.45c0.601,1.066,1.101,2.333,1.5,3.8
		C894.717,75.267,894.884,76.4,894.85,77.3z"/>
	<g>
		
			<linearGradient id="SVGID_10_" gradientUnits="userSpaceOnUse" x1="-174.6099" y1="447.4258" x2="-32.4849" y2="447.4258" gradientTransform="matrix(7.036060e-006 -1 1 -0.001 -1.932173e-004 -3.910097e-004)">
			<stop  offset="0" style="stop-color:#B69259"/>
			<stop  offset="1" style="stop-color:#B5A680"/>
		</linearGradient>
		<path style="fill-rule:evenodd;clip-rule:evenodd;fill:url(#SVGID_10_);" d="M894.85,77.45l-0.05,105.1H0V77.35
			c11.8-0.033,25.133-0.533,40-1.5c3.767-0.233,16.767-1.184,39-2.85c22.7-1.733,46.3-4.183,70.8-7.35
			c12.534-1.633,33.867-4.683,64-9.15c55.767-8.3,104.034-13.833,144.8-16.6c51.5-3.5,103.683-3,156.55,1.5
			c34.8,2.967,72.466,8.033,113,15.2c40.466,7.133,80.533,12.35,120.199,15.65C792.616,75.917,841.45,77.65,894.85,77.45z"/>
		
			<use xlink:href="#flash2.ai_x2F_Layer_4_x2F__x3C_Path_x3E__x5F_12"  width="177.65" height="15.367" y="-15.367" transform="matrix(1 0 0 -1 415.3999 163.9004)" style="overflow:visible;opacity:0.1016;enable-background:new    ;"/>
		
			<use xlink:href="#flash2.ai_x2F_Layer_4_x2F__x3C_Path_x3E__x5F_11"  width="550.65" height="7.574" y="-7.604" transform="matrix(1 0 0 -1 342.3999 130.1504)" style="overflow:visible;opacity:0.2891;enable-background:new    ;"/>
		
			<use xlink:href="#flash2.ai_x2F_Layer_4_x2F__x3C_Path_x3E__x5F_10"  width="399.05" height="5.024" y="-5.017" transform="matrix(1 0 0 -1 167.6001 71.2998)" style="overflow:visible;opacity:0.2891;enable-background:new    ;"/>
		
			<use xlink:href="#flash2.ai_x2F_Layer_4_x2F__x3C_Path_x3E__x5F_9"  width="246.7" height="9.405" y="-9.451" transform="matrix(1 0 0 -1 457.3496 88.6499)" style="overflow:visible;opacity:0.1914;enable-background:new    ;"/>
		
			<use xlink:href="#flash2.ai_x2F_Layer_4_x2F__x3C_Compound_Path_x3E__x5F_2"  width="62.05" height="19.05" y="-19.05" transform="matrix(1 0 0 -1 638.2002 158.8496)" style="overflow:visible;opacity:0.2891;enable-background:new    ;"/>
		
			<use xlink:href="#flash2.ai_x2F_Layer_4_x2F__x3C_Compound_Path_x3E__x5F_1"  width="11.5" height="3.55" y="-3.55" transform="matrix(1 0 0 -1 383.7002 48.7002)" style="overflow:visible;opacity:0.2891;enable-background:new    ;"/>
		
			<use xlink:href="#flash2.ai_x2F_Layer_4_x2F__x3C_Compound_Path_x3E_"  width="21.65" height="6.65" y="-6.65" transform="matrix(1 0 0 -1 402.1499 53.8999)" style="overflow:visible;opacity:0.2891;enable-background:new    ;"/>
		
			<use xlink:href="#flash2.ai_x2F_Layer_4_x2F__x3C_Path_x3E__x5F_8"  width="23.9" height="8.5" y="-8.5" transform="matrix(1 0 0 -1 609.0996 171.3496)" style="overflow:visible;opacity:0.2891;enable-background:new    ;"/>
		
			<radialGradient id="SVGID_11_" cx="767.6504" cy="173.7002" r="10.5375" gradientTransform="matrix(1 0 0 -0.6643 0 289.0882)" gradientUnits="userSpaceOnUse">
			<stop  offset="0.5333" style="stop-color:#2B1A11"/>
			<stop  offset="0.5961" style="stop-color:#301D13"/>
			<stop  offset="0.6667" style="stop-color:#3D2818"/>
			<stop  offset="0.7412" style="stop-color:#533920"/>
			<stop  offset="0.8196" style="stop-color:#72502B"/>
			<stop  offset="0.8863" style="stop-color:#936A37"/>
		</radialGradient>
		<path style="fill-rule:evenodd;clip-rule:evenodd;fill:url(#SVGID_11_);" d="M767.75,167.35c2.134,0,3.934,0.301,5.4,0.9
			c1.5,0.566,2.25,1.267,2.25,2.1c0,0.801-0.75,1.5-2.25,2.101c-1.5,0.566-3.301,0.85-5.4,0.85s-3.917-0.283-5.45-0.85
			c-1.5-0.601-2.25-1.3-2.25-2.101c0-0.833,0.75-1.533,2.25-2.1C763.8,167.65,765.616,167.35,767.75,167.35z"/>
		
			<use xlink:href="#flash2.ai_x2F_Layer_4_x2F__x3C_Path_x3E__x5F_6"  width="45.55" height="11.2" y="-11.2" transform="matrix(1 0 0 -1 804.5996 101.2998)" style="overflow:visible;opacity:0.2891;enable-background:new    ;"/>
		
			<use xlink:href="#flash2.ai_x2F_Layer_4_x2F__x3C_Path_x3E__x5F_5"  width="42.2" height="11.2" y="-11.2" transform="matrix(1 0 0 -1 161.6001 93.7002)" style="overflow:visible;opacity:0.2891;enable-background:new    ;"/>
		
			<use xlink:href="#flash2.ai_x2F_Layer_4_x2F__x3C_Path_x3E__x5F_4"  width="26.95" height="8.4" y="-8.4" transform="matrix(1 0 0 -1 123.8501 91.75)" style="overflow:visible;opacity:0.2891;enable-background:new    ;"/>
		
			<use xlink:href="#flash2.ai_x2F_Layer_4_x2F__x3C_Path_x3E__x5F_3"  width="190.05" height="6.718" y="-6.75" transform="matrix(1 0 0 -1 0 126.0996)" style="overflow:visible;opacity:0.1016;enable-background:new    ;"/>
		
			<use xlink:href="#flash2.ai_x2F_Layer_4_x2F__x3C_Path_x3E__x5F_2"  width="342.7" height="10.447" y="-10.467" transform="matrix(1 0 0 -1 18.8501 162.6504)" style="overflow:visible;opacity:0.2891;enable-background:new    ;"/>
		
			<use xlink:href="#flash2.ai_x2F_Layer_4_x2F__x3C_Path_x3E__x5F_1"  width="894.7" height="18.261" y="-18.25" transform="matrix(1 0 0 -1 0 142.5498)" style="overflow:visible;opacity:0.1914;enable-background:new    ;"/>
		
			<use xlink:href="#flash2.ai_x2F_Layer_4_x2F__x3C_Path_x3E_"  width="73.3" height="5.5" x="7.2" y="-5.5" transform="matrix(1 0 0 -1 814.25 127.4004)" style="overflow:visible;opacity:0.1016;enable-background:new    ;"/>
	</g>
</g>
</svg>
