<?xml version="1.0" encoding="iso-8859-1"?>
<!-- Generator: Adobe Illustrator 15.1.0, SVG Export Plug-In . SVG Version: 6.00 Build 0)  -->
<!DOCTYPE svg PUBLIC "-//W3C//DTD SVG 1.1//EN" "http://www.w3.org/Graphics/SVG/1.1/DTD/svg11.dtd">
<svg version="1.1" id="Layer_1" xmlns="http://www.w3.org/2000/svg" xmlns:xlink="http://www.w3.org/1999/xlink" x="0px" y="0px"
	 width="70.75px" height="50px" viewBox="0 0 70.75 50" style="enable-background:new 0 0 70.75 50;" xml:space="preserve">
<symbol  id="flash0.ai_x5F_1_x2F_Layer_1_x2F__x3C_Clip_Group_0_x3E_" viewBox="0.039 -50.05 14.562 50">
	<g id="Layer_1_25_">
	</g>
	<g>
		<defs>
			<path id="SVGID_1_" d="M14.15-30.85c-0.033,0.633-0.233,2.434-0.6,5.4c-0.1,0.9-0.167,2-0.2,3.3c-0.067,1.7-0.133,3.05-0.2,4.05
				c-0.1,1.1-0.05,2.55,0.15,4.35c0.2,2.167,0.3,3.633,0.3,4.4l0.1,4.45c0.233,3.233,0.316,4.85,0.25,4.85H0.65
				c-0.033-1.3-0.15-2.9-0.35-4.8c0.034-1.767,0.133-4.333,0.3-7.7c0-1.5-0.167-3.717-0.5-6.65c-0.133-1.6-0.05-3.767,0.25-6.5
				c0.333-3.233,0.5-5.417,0.5-6.55c0-0.667-0.15-2.2-0.45-4.6c-0.2-1.867-0.2-3.4,0-4.6c0.2-1.033,0.283-2.45,0.25-4.25
				c-0.033-2.6-0.05-4.05-0.05-4.35h13.3c-0.066,2.133-0.1,3.767-0.1,4.9c-0.033,2,0.034,3.633,0.2,4.9c0.067,0.433,0.1,1.1,0.1,2
				c-0.033,0.9-0.017,1.583,0.05,2.05C14.35-35,14.35-33.217,14.15-30.85z"/>
		</defs>
		<clipPath id="SVGID_2_">
			<use xlink:href="#SVGID_1_"  style="overflow:visible;"/>
		</clipPath>
		<g id="Layer_3_1_" style="clip-path:url(#SVGID_2_);">
			<g>
				
					<use xlink:href="#flash0.ai_x5F_1_x2F_Layer_1_x2F__x3C_Path_x3E__x5F_7"  width="7.161" height="50" x="-0.007" y="-50" transform="matrix(1 0 0 1 0.3999 -0.0498)" style="overflow:visible;opacity:0.4414;enable-background:new    ;"/>
				
					<use xlink:href="#flash0.ai_x5F_1_x2F_Layer_1_x2F__x3C_Path_x3E__x5F_6"  width="4.2" height="50" x="0.05" y="-50.05" transform="matrix(1 0 0 1 10.3501 0)" style="overflow:visible;opacity:0.25;enable-background:new    ;"/>
				
					<use xlink:href="#flash0.ai_x5F_1_x2F_Layer_1_x2F__x3C_Path_x3E__x5F_5_x5F_0"  width="0.782" height="16.35" x="-0.029" y="-16.35" transform="matrix(1 0 0 1 0.4502 -1.9502)" style="overflow:visible;opacity:0.3984;enable-background:new    ;"/>
				
					<use xlink:href="#flash0.ai_x5F_1_x2F_Layer_1_x2F__x3C_Path_x3E__x5F_4_x5F_0"  width="0.521" height="11.85" x="-0.014" y="-11.85" transform="matrix(1 0 0 1 0.6499 -36.9004)" style="overflow:visible;opacity:0.3984;enable-background:new    ;"/>
				
					<use xlink:href="#flash0.ai_x5F_1_x2F_Layer_1_x2F__x3C_Path_x3E__x5F_3_x5F_0"  width="0.653" height="11.8" x="-0.013" y="-11.8" transform="matrix(1 0 0 1 4.9502 -2.1499)" style="overflow:visible;opacity:0.3711;enable-background:new    ;"/>
				
					<use xlink:href="#flash0.ai_x5F_1_x2F_Layer_1_x2F__x3C_Path_x3E__x5F_2_x5F_0"  width="0.589" height="10.15" x="0.011" y="-10.15" transform="matrix(1 0 0 1 11.2002 -6.3999)" style="overflow:visible;opacity:0.3984;enable-background:new    ;"/>
				
					<use xlink:href="#flash0.ai_x5F_1_x2F_Layer_1_x2F__x3C_Path_x3E__x5F_1_x5F_0"  width="2.127" height="24.7" x="0.023" y="-24.7" transform="matrix(1 0 0 1 3.7998 -1.25)" style="overflow:visible;opacity:0.3984;enable-background:new    ;"/>
				
					<use xlink:href="#flash0.ai_x5F_1_x2F_Layer_1_x2F__x3C_Path_x3E__x5F_0"  width="1.469" height="17.45" x="0.07" y="-17.45" transform="matrix(1 0 0 1 6.8501 -30)" style="overflow:visible;opacity:0.3984;enable-background:new    ;"/>
			</g>
		</g>
	</g>
	<g id="Layer_4_1_">
	</g>
</symbol>
<symbol  id="flash0.ai_x5F_1_x2F_Layer_1_x2F__x3C_Clip_Group_0_x3E__x5F_0" viewBox="-0.028 -50 13.961 50">
	<g id="Layer_1_26_">
	</g>
	<g>
		<defs>
			<path id="SVGID_3_" d="M13.8-45.7c-0.167,2.6-0.25,4.05-0.25,4.35c0,0.8,0.067,2.367,0.2,4.7c0.1,1.967,0.1,3.533,0,4.7
				c-0.3,2.9-0.517,5.05-0.65,6.45c-0.2,2.333-0.317,4.483-0.35,6.45c0,3.2,0.15,6,0.45,8.4l0.4,3.9
				c0.066,0.333,0.117,2.583,0.15,6.75H0.6L0.15-5.3c-0.267-2.5-0.233-4.667,0.1-6.5c0.167-0.934,0.25-2.117,0.25-3.55
				c0-1.433,0.083-2.617,0.25-3.55c0.367-2.1,0.317-5.15-0.15-9.15c-0.533-4.167-0.667-7.217-0.4-9.15
				c0.233-1.767,0.35-3.9,0.35-6.4c0-1.433-0.033-3.566-0.1-6.4H13.9C13.967-48.867,13.933-47.433,13.8-45.7z"/>
		</defs>
		<clipPath id="SVGID_4_">
			<use xlink:href="#SVGID_3_"  style="overflow:visible;"/>
		</clipPath>
		<g id="Layer_3_2_" style="clip-path:url(#SVGID_4_);">
			<g>
				
					<use xlink:href="#flash0.ai_x5F_1_x2F_Layer_1_x2F__x3C_Path_x3E__x5F_4_x5F_1"  width="6.467" height="50" x="-0.017" y="-50" transform="matrix(1 0 0 1 0.3999 0)" style="overflow:visible;opacity:0.4414;enable-background:new    ;"/>
				
					<use xlink:href="#flash0.ai_x5F_1_x2F_Layer_1_x2F__x3C_Path_x3E__x5F_3_x5F_1"  width="3.8" height="50" y="-50" transform="matrix(1 0 0 1 10.1001 0)" style="overflow:visible;opacity:0.25;enable-background:new    ;"/>
				
					<use xlink:href="#flash0.ai_x5F_1_x2F_Layer_1_x2F__x3C_Path_x3E__x5F_2_x5F_1"  width="0.557" height="15.75" x="0.033" y="-15.75" transform="matrix(1 0 0 1 0.1499 -0.8999)" style="overflow:visible;opacity:0.3516;enable-background:new    ;"/>
				
					<use xlink:href="#flash0.ai_x5F_1_x2F_Layer_1_x2F__x3C_Path_x3E__x5F_1_x5F_1"  width="1.029" height="17.05" y="-17.05" transform="matrix(1 0 0 1 0.0498 -22.1001)" style="overflow:visible;opacity:0.3516;enable-background:new    ;"/>
				
					<use xlink:href="#flash0.ai_x5F_1_x2F_Layer_1_x2F__x3C_Path_x3E__x5F_8"  width="1.334" height="13.654" x="0.023" y="-13.7" transform="matrix(1 0 0 1 7.1499 -6.8501)" style="overflow:visible;opacity:0.5117;enable-background:new    ;"/>
			</g>
		</g>
	</g>
	<g id="Layer_4_2_">
	</g>
</symbol>
<symbol  id="flash0.ai_x5F_1_x2F_Layer_1_x2F__x3C_Path_x3E_" viewBox="0 -2.462 15.112 2.462">
	<g id="Layer_1_7_">
		
			<linearGradient id="SVGID_5_" gradientUnits="userSpaceOnUse" x1="113.4492" y1="-16442.9648" x2="128.0509" y2="-16442.9648" gradientTransform="matrix(-0.0156 -0.9999 0.9999 -0.0156 16450.375 -138.5225)">
			<stop  offset="0.0196" style="stop-color:#260C0A"/>
			<stop  offset="0.0235" style="stop-color:#2A110E"/>
			<stop  offset="0.1216" style="stop-color:#615250"/>
			<stop  offset="0.2118" style="stop-color:#8F8987"/>
			<stop  offset="0.2941" style="stop-color:#B3B3B1"/>
			<stop  offset="0.3686" style="stop-color:#CDD2D0"/>
			<stop  offset="0.4353" style="stop-color:#DDE5E3"/>
			<stop  offset="0.4784" style="stop-color:#E2EBE9"/>
			<stop  offset="0.5294" style="stop-color:#DCE4E2"/>
			<stop  offset="0.6039" style="stop-color:#CACFCD"/>
			<stop  offset="0.6941" style="stop-color:#ADACAA"/>
			<stop  offset="0.8" style="stop-color:#857D7A"/>
			<stop  offset="0.9098" style="stop-color:#52403E"/>
			<stop  offset="1" style="stop-color:#260C0A"/>
		</linearGradient>
		<path style="fill-rule:evenodd;clip-rule:evenodd;fill:url(#SVGID_5_);" d="M0,0c3.3-0.267,6.117-0.567,8.45-0.9
			c2.533-0.367,4.617-0.667,6.25-0.9c0.867-0.167,0.367-0.35-1.5-0.55c-1.867-0.2-3.333-0.133-4.4,0.2C7.167-1.683,4.233-0.967,0,0z
			"/>
	</g>
</symbol>
<symbol  id="flash0.ai_x5F_1_x2F_Layer_1_x2F__x3C_Path_x3E__x5F_0" viewBox="0.07 -17.45 1.469 17.45">
	<g id="Layer_1_15_">
		<path style="fill-rule:evenodd;clip-rule:evenodd;fill:#4EAA95;" d="M1.4-17.45c-0.133,1.967-0.267,3.4-0.4,4.3
			c-0.167,0.9-0.317,1.7-0.45,2.4C0.15-8.183,0-4.6,0.1,0c0.433-1.367,0.6-2.833,0.5-4.4c-0.067-1.767-0.067-2.883,0-3.35
			C1.467-12.117,1.733-15.35,1.4-17.45z"/>
	</g>
</symbol>
<symbol  id="flash0.ai_x5F_1_x2F_Layer_1_x2F__x3C_Path_x3E__x5F_1" viewBox="0 -1.806 27.05 1.806">
	<g id="Layer_1_6_">
		
			<linearGradient id="SVGID_6_" gradientUnits="userSpaceOnUse" x1="-463.2197" y1="-490.9189" x2="-436.1285" y2="-490.9189" gradientTransform="matrix(0.9983 -0.0584 0.0584 0.9983 491.0869 462.6182)">
			<stop  offset="0" style="stop-color:#B57F39"/>
			<stop  offset="1" style="stop-color:#B3A480"/>
		</linearGradient>
		<path style="fill-rule:evenodd;clip-rule:evenodd;fill:url(#SVGID_6_);" d="M0,0c2.367-0.3,5.267-0.6,8.7-0.9
			c6.867-0.533,12.983-0.733,18.35-0.6c-2.3-0.233-5.15-0.333-8.55-0.3C11.7-1.767,5.533-1.167,0,0z"/>
	</g>
</symbol>
<symbol  id="flash0.ai_x5F_1_x2F_Layer_1_x2F__x3C_Path_x3E__x5F_11" viewBox="-0.01 -1.71 4.525 1.71">
	<g id="Layer_1_22_">
		<path style="fill-rule:evenodd;clip-rule:evenodd;fill:#4EAA95;" d="M2.25,0C3.883,0,4.633-0.267,4.5-0.8
			C4.367-1.333,3.55-1.633,2.05-1.7C0.583-1.767-0.1-1.5,0-0.9S0.85,0,2.25,0z"/>
	</g>
</symbol>
<symbol  id="flash0.ai_x5F_1_x2F_Layer_1_x2F__x3C_Path_x3E__x5F_14" viewBox="-0.013 -4.78 1.208 4.87">
	<g id="Layer_1_21_">
		<path style="fill-rule:evenodd;clip-rule:evenodd;fill:#4EAA95;" d="M1.05-0.8C1.283-1.967,1.233-3.167,0.9-4.4
			C0.7-5.1,0.467-4.833,0.2-3.6c-0.267,1.267-0.284,2.25-0.05,2.95C0.483,0.383,0.783,0.333,1.05-0.8z"/>
	</g>
</symbol>
<symbol  id="flash0.ai_x5F_1_x2F_Layer_1_x2F__x3C_Path_x3E__x5F_1_x5F_0" viewBox="0.023 -24.7 2.127 24.7">
	<g id="Layer_1_14_">
		<path style="fill-rule:evenodd;clip-rule:evenodd;fill:#1FCAD4;" d="M2.15-24.7C1.317-20.5,0.733-16.933,0.4-14
			C-0.267-8.567-0.05-3.9,1.05,0c-0.8-3.2-0.933-7.333-0.4-12.4C0.95-15.2,1.45-19.3,2.15-24.7z"/>
	</g>
</symbol>
<symbol  id="flash0.ai_x5F_1_x2F_Layer_1_x2F__x3C_Path_x3E__x5F_1_x5F_1" viewBox="0 -17.05 1.029 17.05">
	<g id="Layer_1_19_">
		<path style="fill-rule:evenodd;clip-rule:evenodd;fill:#4EAA95;" d="M0.9,0c0.2-1.3,0.167-2.767-0.1-4.4
			c-0.3-2.133-0.45-4.2-0.45-6.2l0.1-6.45c-0.067,0.867-0.167,1.517-0.3,1.95C0.05-14.8,0-14.267,0-13.5c0.033,1,0.05,1.8,0.05,2.4
			C0.217-8.867,0.3-6.933,0.3-5.3C0.3-4.167,0.5-2.4,0.9,0z"/>
	</g>
</symbol>
<symbol  id="flash0.ai_x5F_1_x2F_Layer_1_x2F__x3C_Path_x3E__x5F_2" viewBox="0.02 -14.603 15.936 14.625">
	<g id="Layer_1_5_">
		<g>
			
				<linearGradient id="SVGID_7_" gradientUnits="userSpaceOnUse" x1="-381.167" y1="-406.6831" x2="-365.6239" y2="-406.6831" gradientTransform="matrix(0.9989 -0.0479 0.0479 0.9989 400.3374 381.1416)">
				<stop  offset="0" style="stop-color:#E2EBE9"/>
				<stop  offset="0.0039" style="stop-color:#DDE5E3"/>
				<stop  offset="0.0353" style="stop-color:#B7B8B6"/>
				<stop  offset="0.0706" style="stop-color:#958F8D"/>
				<stop  offset="0.1059" style="stop-color:#776C69"/>
				<stop  offset="0.149" style="stop-color:#5E4E4B"/>
				<stop  offset="0.1922" style="stop-color:#493633"/>
				<stop  offset="0.2431" style="stop-color:#3A2320"/>
				<stop  offset="0.302" style="stop-color:#2E1613"/>
				<stop  offset="0.3765" style="stop-color:#280E0C"/>
				<stop  offset="0.5255" style="stop-color:#260C0A"/>
				<stop  offset="0.6118" style="stop-color:#290F0C"/>
				<stop  offset="0.6784" style="stop-color:#321916"/>
				<stop  offset="0.6784" style="stop-color:#321916;stop-opacity:0"/>
				<stop  offset="1" style="stop-color:#000000;stop-opacity:0"/>
			</linearGradient>
			<path style="fill-rule:evenodd;clip-rule:evenodd;fill:url(#SVGID_7_);" d="M10.15-0.3c0.367-0.034,1.2,0.033,2.5,0.2
				c1.133,0.167,2.167,0.15,3.1-0.05c0.133-0.934,0.2-1.583,0.2-1.95c0-0.6-0.1-1.25-0.3-1.95c-0.533-2-0.55-4.467-0.05-7.4
				c0.267-1.233,0.383-2.017,0.35-2.35c-0.034-0.567-0.35-0.833-0.95-0.8c-2.033,0.3-3.533,0.45-4.5,0.45
				c-0.733,0-1.75-0.083-3.05-0.25c-1.2-0.167-2.217-0.217-3.05-0.15c-2,0.133-3.2,0.2-3.6,0.2c-0.333,1.4-0.566,2.983-0.7,4.75
				C-0.033-7.667,0-6.033,0.2-4.7l0.45,2.55c0.167,0.867,0.45,1.5,0.85,1.9C2.333-0.017,3.383,0.067,4.65,0
				C6.45-0.033,8.283-0.133,10.15-0.3z"/>
			
				<linearGradient id="SVGID_8_" gradientUnits="userSpaceOnUse" x1="-381.167" y1="-406.6831" x2="-365.6239" y2="-406.6831" gradientTransform="matrix(0.9989 -0.0479 0.0479 0.9989 400.3374 381.1416)">
				<stop  offset="0" style="stop-color:#000000;stop-opacity:0"/>
				<stop  offset="0.6784" style="stop-color:#321916;stop-opacity:0"/>
				<stop  offset="0.6784" style="stop-color:#321916"/>
				<stop  offset="0.7373" style="stop-color:#412A27"/>
				<stop  offset="0.7922" style="stop-color:#56413E"/>
				<stop  offset="0.8431" style="stop-color:#725F5C"/>
				<stop  offset="0.8941" style="stop-color:#938481"/>
				<stop  offset="0.9451" style="stop-color:#BBB0AD"/>
				<stop  offset="0.9922" style="stop-color:#E8E2DE"/>
				<stop  offset="1" style="stop-color:#F0EBE7"/>
			</linearGradient>
			<path style="fill-rule:evenodd;clip-rule:evenodd;fill:url(#SVGID_8_);" d="M10.15-0.3c0.367-0.034,1.2,0.033,2.5,0.2
				c1.133,0.167,2.167,0.15,3.1-0.05c0.133-0.934,0.2-1.583,0.2-1.95c0-0.6-0.1-1.25-0.3-1.95c-0.533-2-0.55-4.467-0.05-7.4
				c0.267-1.233,0.383-2.017,0.35-2.35c-0.034-0.567-0.35-0.833-0.95-0.8c-2.033,0.3-3.533,0.45-4.5,0.45
				c-0.733,0-1.75-0.083-3.05-0.25c-1.2-0.167-2.217-0.217-3.05-0.15c-2,0.133-3.2,0.2-3.6,0.2c-0.333,1.4-0.566,2.983-0.7,4.75
				C-0.033-7.667,0-6.033,0.2-4.7l0.45,2.55c0.167,0.867,0.45,1.5,0.85,1.9C2.333-0.017,3.383,0.067,4.65,0
				C6.45-0.033,8.283-0.133,10.15-0.3z"/>
		</g>
	</g>
</symbol>
<symbol  id="flash0.ai_x5F_1_x2F_Layer_1_x2F__x3C_Path_x3E__x5F_2_x5F_0" viewBox="0.011 -10.15 0.589 10.15">
	<g id="Layer_1_13_">
		<path style="fill-rule:evenodd;clip-rule:evenodd;fill:#1FCAD4;" d="M0.1-10.15C-0.067-5.95,0-2.567,0.3,0
			c0.2-2.533,0.3-4.2,0.3-5C0.567-5.933,0.4-7.65,0.1-10.15z"/>
	</g>
</symbol>
<symbol  id="flash0.ai_x5F_1_x2F_Layer_1_x2F__x3C_Path_x3E__x5F_2_x5F_1" viewBox="0.033 -15.75 0.557 15.75">
	<g id="Layer_1_18_">
		<path style="fill-rule:evenodd;clip-rule:evenodd;fill:#4EAA95;" d="M0.45,0C0.383-3.8,0.4-6.333,0.5-7.6
			c0.1-1.233,0.117-3.95,0.05-8.15l-0.2,2.65c-0.167,2.267-0.267,4.2-0.3,5.8C-0.017-5.7,0.117-3.267,0.45,0z"/>
	</g>
</symbol>
<symbol  id="flash0.ai_x5F_1_x2F_Layer_1_x2F__x3C_Path_x3E__x5F_3" viewBox="-0.017 -14.783 19.379 14.783">
	<g id="Layer_1_4_">
		<g>
			
				<linearGradient id="SVGID_9_" gradientUnits="userSpaceOnUse" x1="-380.1758" y1="-405.7104" x2="-361.3293" y2="-405.7104" gradientTransform="matrix(0.9989 -0.0477 0.0477 0.9989 399.2524 380.1563)">
				<stop  offset="0" style="stop-color:#E2EBE9"/>
				<stop  offset="0.0039" style="stop-color:#DDE5E3"/>
				<stop  offset="0.0353" style="stop-color:#B7B8B6"/>
				<stop  offset="0.0706" style="stop-color:#958F8D"/>
				<stop  offset="0.1059" style="stop-color:#776C69"/>
				<stop  offset="0.149" style="stop-color:#5E4E4B"/>
				<stop  offset="0.1922" style="stop-color:#493633"/>
				<stop  offset="0.2431" style="stop-color:#3A2320"/>
				<stop  offset="0.302" style="stop-color:#2E1613"/>
				<stop  offset="0.3765" style="stop-color:#280E0C"/>
				<stop  offset="0.5255" style="stop-color:#260C0A"/>
				<stop  offset="0.6118" style="stop-color:#290F0C"/>
				<stop  offset="0.6784" style="stop-color:#321916"/>
				<stop  offset="0.6784" style="stop-color:#321916;stop-opacity:0"/>
				<stop  offset="1" style="stop-color:#000000;stop-opacity:0"/>
			</linearGradient>
			<path style="fill-rule:evenodd;clip-rule:evenodd;fill:url(#SVGID_9_);" d="M12.4-0.05c0.233-0.034,1.133-0.05,2.7-0.05
				c1.133,0,2.3-0.1,3.5-0.3c0.167-1.167-0.05-2.617-0.65-4.35c-0.367-1.1-0.45-2.133-0.25-3.1c0.1-0.633,0.367-1.667,0.8-3.1
				c0.167-0.667,0.433-1.533,0.8-2.6c0.2-0.767-0.083-1.167-0.85-1.2c-0.7-0.067-1.6-0.033-2.7,0.1C14.317-14.483,13.4-14.4,13-14.4
				c-0.833,0.033-1.983,0-3.45-0.1c-1.233-0.1-2.383-0.1-3.45,0c-0.5,0.033-2.25,0.017-5.25-0.05c-0.434,1.3-0.7,2.983-0.8,5.05
				c-0.133,2.033-0.066,3.767,0.2,5.2c0.133,1.033,0.3,1.883,0.5,2.55c0.2,0.767,0.467,1.283,0.8,1.55
				C2.983-0.033,4.433,0.017,5.9-0.05c0.7-0.034,1.783-0.034,3.25,0C10.517,0.017,11.6,0.017,12.4-0.05z"/>
			
				<linearGradient id="SVGID_10_" gradientUnits="userSpaceOnUse" x1="-380.1758" y1="-405.7104" x2="-361.3293" y2="-405.7104" gradientTransform="matrix(0.9989 -0.0477 0.0477 0.9989 399.2524 380.1563)">
				<stop  offset="0" style="stop-color:#000000;stop-opacity:0"/>
				<stop  offset="0.6784" style="stop-color:#321916;stop-opacity:0"/>
				<stop  offset="0.6784" style="stop-color:#321916"/>
				<stop  offset="0.7373" style="stop-color:#412A27"/>
				<stop  offset="0.7922" style="stop-color:#56413E"/>
				<stop  offset="0.8431" style="stop-color:#725F5C"/>
				<stop  offset="0.8941" style="stop-color:#938481"/>
				<stop  offset="0.9451" style="stop-color:#BBB0AD"/>
				<stop  offset="0.9922" style="stop-color:#E8E2DE"/>
				<stop  offset="1" style="stop-color:#F0EBE7"/>
			</linearGradient>
			<path style="fill-rule:evenodd;clip-rule:evenodd;fill:url(#SVGID_10_);" d="M12.4-0.05c0.233-0.034,1.133-0.05,2.7-0.05
				c1.133,0,2.3-0.1,3.5-0.3c0.167-1.167-0.05-2.617-0.65-4.35c-0.367-1.1-0.45-2.133-0.25-3.1c0.1-0.633,0.367-1.667,0.8-3.1
				c0.167-0.667,0.433-1.533,0.8-2.6c0.2-0.767-0.083-1.167-0.85-1.2c-0.7-0.067-1.6-0.033-2.7,0.1C14.317-14.483,13.4-14.4,13-14.4
				c-0.833,0.033-1.983,0-3.45-0.1c-1.233-0.1-2.383-0.1-3.45,0c-0.5,0.033-2.25,0.017-5.25-0.05c-0.434,1.3-0.7,2.983-0.8,5.05
				c-0.133,2.033-0.066,3.767,0.2,5.2c0.133,1.033,0.3,1.883,0.5,2.55c0.2,0.767,0.467,1.283,0.8,1.55
				C2.983-0.033,4.433,0.017,5.9-0.05c0.7-0.034,1.783-0.034,3.25,0C10.517,0.017,11.6,0.017,12.4-0.05z"/>
		</g>
	</g>
</symbol>
<symbol  id="flash0.ai_x5F_1_x2F_Layer_1_x2F__x3C_Path_x3E__x5F_3_x5F_0" viewBox="-0.013 -11.8 0.653 11.8">
	<g id="Layer_1_12_">
		<linearGradient id="SVGID_11_" gradientUnits="userSpaceOnUse" x1="-2.7661" y1="-6.0107" x2="5.6589" y2="-5.7107">
			<stop  offset="0" style="stop-color:#260C0A"/>
			<stop  offset="0.0157" style="stop-color:#2C120E"/>
			<stop  offset="0.1804" style="stop-color:#674B3F"/>
			<stop  offset="0.3216" style="stop-color:#917462"/>
			<stop  offset="0.4314" style="stop-color:#AB8E78"/>
			<stop  offset="0.498" style="stop-color:#B59780"/>
			<stop  offset="0.5647" style="stop-color:#AD9079"/>
			<stop  offset="0.6667" style="stop-color:#987C68"/>
			<stop  offset="0.7922" style="stop-color:#745C4C"/>
			<stop  offset="0.9333" style="stop-color:#433024"/>
			<stop  offset="1" style="stop-color:#2A1910"/>
		</linearGradient>
		<path style="fill-rule:evenodd;clip-rule:evenodd;fill:url(#SVGID_11_);" d="M0.15-11.8C0.083-9.2,0.033-7.233,0-5.9
			C-0.067-3.5,0.117-1.533,0.55,0c0.1-0.8,0.117-1.5,0.05-2.1C0.533-2.467,0.45-2.933,0.35-3.5c-0.033-0.367,0-0.967,0.1-1.8
			c0.133-0.8,0.167-1.383,0.1-1.75c0-0.167-0.05-0.967-0.15-2.4C0.367-10.35,0.283-11.133,0.15-11.8z"/>
	</g>
</symbol>
<symbol  id="flash0.ai_x5F_1_x2F_Layer_1_x2F__x3C_Path_x3E__x5F_3_x5F_1" viewBox="0 -50 3.8 50">
	<g id="Layer_1_17_">
		<path style="fill-rule:evenodd;clip-rule:evenodd;fill:#D4DDB4;" d="M0.5-44.35c-0.067,1.233,0,2.783,0.2,4.65l0.55,4.65
			c0.167,2.233,0.05,5.1-0.35,8.6C0.367-21.883,0.067-19.033,0-17.9C0.367-6.267,0.55-0.3,0.55,0h3.1L3.8-50H0.6
			C0.6-47.467,0.567-45.583,0.5-44.35z"/>
	</g>
</symbol>
<symbol  id="flash0.ai_x5F_1_x2F_Layer_1_x2F__x3C_Path_x3E__x5F_4" viewBox="-0.065 -14.9 17.215 14.872">
	<g id="Layer_1_3_">
		<g>
			
				<linearGradient id="SVGID_12_" gradientUnits="userSpaceOnUse" x1="-384.7559" y1="-410.9336" x2="-368.1366" y2="-410.9336" gradientTransform="matrix(0.9988 -0.0483 0.0483 0.9988 404.3735 384.8018)">
				<stop  offset="0" style="stop-color:#E2EBE9"/>
				<stop  offset="0.0039" style="stop-color:#DDE5E3"/>
				<stop  offset="0.0353" style="stop-color:#B7B8B6"/>
				<stop  offset="0.0706" style="stop-color:#958F8D"/>
				<stop  offset="0.1059" style="stop-color:#776C69"/>
				<stop  offset="0.149" style="stop-color:#5E4E4B"/>
				<stop  offset="0.1922" style="stop-color:#493633"/>
				<stop  offset="0.2431" style="stop-color:#3A2320"/>
				<stop  offset="0.302" style="stop-color:#2E1613"/>
				<stop  offset="0.3765" style="stop-color:#280E0C"/>
				<stop  offset="0.5255" style="stop-color:#260C0A"/>
				<stop  offset="0.6118" style="stop-color:#290F0C"/>
				<stop  offset="0.6784" style="stop-color:#321916"/>
				<stop  offset="0.6784" style="stop-color:#321916;stop-opacity:0"/>
				<stop  offset="1" style="stop-color:#000000;stop-opacity:0"/>
			</linearGradient>
			<path style="fill-rule:evenodd;clip-rule:evenodd;fill:url(#SVGID_12_);" d="M10.9-0.4c2.333-0.133,4.367-0.35,6.1-0.65
				c0.1-0.833,0.15-1.35,0.15-1.55c-0.033-0.3-0.167-0.816-0.4-1.55c-0.6-2.1-0.6-4.567,0-7.4c0.233-1.434,0.35-2.217,0.35-2.35
				c0-0.567-0.35-0.883-1.05-0.95c-0.6-0.066-1.383-0.066-2.35,0c-1.267,0.067-2.05,0.1-2.35,0.1c-3.3,0.067-5.767,0.167-7.4,0.3
				c-0.833,0.034-1.4,0.067-1.7,0.1c-0.5,0.033-1.083,0.133-1.75,0.3c-0.7,2.4-0.75,5.5-0.15,9.3C0.517-3.617,0.667-2.767,0.8-2.2
				c0.233,0.9,0.534,1.534,0.9,1.9c0.9,0.233,2.017,0.316,3.35,0.25C6.35-0.083,8.3-0.2,10.9-0.4z"/>
			
				<linearGradient id="SVGID_13_" gradientUnits="userSpaceOnUse" x1="-384.7559" y1="-410.9336" x2="-368.1366" y2="-410.9336" gradientTransform="matrix(0.9988 -0.0483 0.0483 0.9988 404.3735 384.8018)">
				<stop  offset="0" style="stop-color:#000000;stop-opacity:0"/>
				<stop  offset="0.6784" style="stop-color:#321916;stop-opacity:0"/>
				<stop  offset="0.6784" style="stop-color:#321916"/>
				<stop  offset="0.7373" style="stop-color:#412A27"/>
				<stop  offset="0.7922" style="stop-color:#56413E"/>
				<stop  offset="0.8431" style="stop-color:#725F5C"/>
				<stop  offset="0.8941" style="stop-color:#938481"/>
				<stop  offset="0.9451" style="stop-color:#BBB0AD"/>
				<stop  offset="0.9922" style="stop-color:#E8E2DE"/>
				<stop  offset="1" style="stop-color:#F0EBE7"/>
			</linearGradient>
			<path style="fill-rule:evenodd;clip-rule:evenodd;fill:url(#SVGID_13_);" d="M10.9-0.4c2.333-0.133,4.367-0.35,6.1-0.65
				c0.1-0.833,0.15-1.35,0.15-1.55c-0.033-0.3-0.167-0.816-0.4-1.55c-0.6-2.1-0.6-4.567,0-7.4c0.233-1.434,0.35-2.217,0.35-2.35
				c0-0.567-0.35-0.883-1.05-0.95c-0.6-0.066-1.383-0.066-2.35,0c-1.267,0.067-2.05,0.1-2.35,0.1c-3.3,0.067-5.767,0.167-7.4,0.3
				c-0.833,0.034-1.4,0.067-1.7,0.1c-0.5,0.033-1.083,0.133-1.75,0.3c-0.7,2.4-0.75,5.5-0.15,9.3C0.517-3.617,0.667-2.767,0.8-2.2
				c0.233,0.9,0.534,1.534,0.9,1.9c0.9,0.233,2.017,0.316,3.35,0.25C6.35-0.083,8.3-0.2,10.9-0.4z"/>
		</g>
	</g>
</symbol>
<symbol  id="flash0.ai_x5F_1_x2F_Layer_1_x2F__x3C_Path_x3E__x5F_4_x5F_0" viewBox="-0.014 -11.85 0.521 11.85">
	<g id="Layer_1_11_">
		<path style="fill-rule:evenodd;clip-rule:evenodd;fill:#4EAA95;" d="M0.15,0l0.3-2.65c0.133-0.967,0.033-4.033-0.3-9.2
			c-0.2,2.7-0.217,4.967-0.05,6.8c0.033,0.433,0.033,1.383,0,2.85C0.067-0.967,0.083-0.233,0.15,0z"/>
	</g>
</symbol>
<symbol  id="flash0.ai_x5F_1_x2F_Layer_1_x2F__x3C_Path_x3E__x5F_4_x5F_1" viewBox="-0.017 -50 6.467 50">
	<g id="Layer_1_16_">
		<linearGradient id="SVGID_14_" gradientUnits="userSpaceOnUse" x1="-0.0166" y1="-25" x2="7.3084" y2="-25">
			<stop  offset="0" style="stop-color:#260C0A"/>
			<stop  offset="0.102" style="stop-color:#2B120F"/>
			<stop  offset="0.2314" style="stop-color:#39211F"/>
			<stop  offset="0.3765" style="stop-color:#503B39"/>
			<stop  offset="0.5294" style="stop-color:#71605D"/>
			<stop  offset="0.6941" style="stop-color:#9A8E8C"/>
			<stop  offset="0.8667" style="stop-color:#CCC6C5"/>
			<stop  offset="1" style="stop-color:#F9F8F7"/>
		</linearGradient>
		<path style="fill-rule:evenodd;clip-rule:evenodd;fill:url(#SVGID_14_);" d="M0.2,0h6.15c0.133-3.133-0.133-5.833-0.8-8.1
			C5.383-8.7,5.267-9.5,5.2-10.5c-0.067-0.6-0.15-1.667-0.25-3.2c-0.067-1.066-0.167-2.333-0.3-3.8
			c-0.066-1.167-0.033-2.417,0.1-3.75c0.4-3.767,0.6-7.567,0.6-11.4c0-1-0.1-2.467-0.3-4.4c-0.033-0.534,0.067-1.233,0.3-2.1
			c0.267-1.1,0.417-1.783,0.45-2.05c0.167-1.033,0.284-2.6,0.35-4.7c0.033-0.133,0.067-0.867,0.1-2.2c0.033-1.267,0.1-1.9,0.2-1.9
			h-5.8c0,2.167-0.066,4.483-0.2,6.95c-0.167,2.8-0.3,5.017-0.4,6.65c-0.133,3.367-0.066,6.433,0.2,9.2
			c0.367,3.333,0.433,6.233,0.2,8.7c-0.267,3.8-0.333,6.5-0.2,8.1C0.183-4.567,0.167-1.1,0.2,0z"/>
	</g>
</symbol>
<symbol  id="flash0.ai_x5F_1_x2F_Layer_1_x2F__x3C_Path_x3E__x5F_5" viewBox="0 -15.575 30.359 15.6">
	<g id="Layer_1_2_">
		
			<linearGradient id="SVGID_15_" gradientUnits="userSpaceOnUse" x1="-382.5859" y1="-408.5669" x2="-358.1327" y2="-408.5669" gradientTransform="matrix(0.9988 -0.0481 0.0481 0.9988 402.0757 382.7178)">
			<stop  offset="0" style="stop-color:#E2EBE9"/>
			<stop  offset="0.0039" style="stop-color:#DDE5E3"/>
			<stop  offset="0.0353" style="stop-color:#B7B8B6"/>
			<stop  offset="0.0706" style="stop-color:#958F8D"/>
			<stop  offset="0.1059" style="stop-color:#776C69"/>
			<stop  offset="0.149" style="stop-color:#5E4E4B"/>
			<stop  offset="0.1922" style="stop-color:#493633"/>
			<stop  offset="0.2431" style="stop-color:#3A2320"/>
			<stop  offset="0.302" style="stop-color:#2E1613"/>
			<stop  offset="0.3765" style="stop-color:#280E0C"/>
			<stop  offset="0.5255" style="stop-color:#260C0A"/>
			<stop  offset="0.5882" style="stop-color:#39211E"/>
			<stop  offset="0.7098" style="stop-color:#6A5754"/>
			<stop  offset="0.7098" style="stop-color:#6A5754;stop-opacity:0"/>
			<stop  offset="1" style="stop-color:#000000;stop-opacity:0"/>
		</linearGradient>
		<path style="fill-rule:evenodd;clip-rule:evenodd;fill:url(#SVGID_15_);" d="M22.65-12.35c1.133-0.467,3.667-1.483,7.6-3.05
			c0.533-0.233-0.883-0.233-4.25,0c-4.067,0.3-6.3,0.433-6.7,0.4c-0.733-0.033-1.667-0.017-2.8,0.05
			c-1.633,0.1-2.583,0.15-2.85,0.15c-4.933,0.167-7.9,0.283-8.9,0.35c-1,0.067-1.683,0.117-2.05,0.15
			c-0.567,0.033-1.25,0.133-2.05,0.3C0.217-12.8,0-11.267,0-9.4c0,1.6,0.133,3.183,0.4,4.75c0.333,1.533,0.517,2.367,0.55,2.5
			C1.183-1.217,1.533-0.567,2-0.2C3.067,0,4.4,0.067,6,0l7-0.45c2.033-0.167,3.95-0.383,5.75-0.65c0.033-0.133,0.033-1.217,0-3.25
			c-0.033-1.7,0.15-3.133,0.55-4.3C19.9-10.383,21.017-11.617,22.65-12.35z"/>
		
			<linearGradient id="SVGID_16_" gradientUnits="userSpaceOnUse" x1="-382.5859" y1="-408.5669" x2="-358.1327" y2="-408.5669" gradientTransform="matrix(0.9988 -0.0481 0.0481 0.9988 402.0757 382.7178)">
			<stop  offset="0" style="stop-color:#000000;stop-opacity:0"/>
			<stop  offset="0.7098" style="stop-color:#6A5754;stop-opacity:0"/>
			<stop  offset="0.7098" style="stop-color:#6A5754"/>
			<stop  offset="0.8824" style="stop-color:#B8ADAA"/>
			<stop  offset="1" style="stop-color:#F0EBE7"/>
		</linearGradient>
		<path style="fill-rule:evenodd;clip-rule:evenodd;fill:url(#SVGID_16_);" d="M22.65-12.35c1.133-0.467,3.667-1.483,7.6-3.05
			c0.533-0.233-0.883-0.233-4.25,0c-4.067,0.3-6.3,0.433-6.7,0.4c-0.733-0.033-1.667-0.017-2.8,0.05
			c-1.633,0.1-2.583,0.15-2.85,0.15c-4.933,0.167-7.9,0.283-8.9,0.35c-1,0.067-1.683,0.117-2.05,0.15
			c-0.567,0.033-1.25,0.133-2.05,0.3C0.217-12.8,0-11.267,0-9.4c0,1.6,0.133,3.183,0.4,4.75c0.333,1.533,0.517,2.367,0.55,2.5
			C1.183-1.217,1.533-0.567,2-0.2C3.067,0,4.4,0.067,6,0l7-0.45c2.033-0.167,3.95-0.383,5.75-0.65c0.033-0.133,0.033-1.217,0-3.25
			c-0.033-1.7,0.15-3.133,0.55-4.3C19.9-10.383,21.017-11.617,22.65-12.35z"/>
	</g>
</symbol>
<symbol  id="flash0.ai_x5F_1_x2F_Layer_1_x2F__x3C_Path_x3E__x5F_5_x5F_0" viewBox="-0.029 -16.35 0.782 16.35">
	<g id="Layer_1_10_">
		<path style="fill-rule:evenodd;clip-rule:evenodd;fill:#4EAA95;" d="M0,0l0.5-3.55c0.067-0.567,0.15-3.067,0.25-7.5
			c0.033-1.5-0.217-3.267-0.75-5.3c0.2,1.333,0.333,2.567,0.4,3.7c0.067,1.3-0.017,3.417-0.25,6.35C-0.017-3.6-0.067-1.5,0,0z"/>
	</g>
</symbol>
<symbol  id="flash0.ai_x5F_1_x2F_Layer_1_x2F__x3C_Path_x3E__x5F_6" viewBox="0.05 -50.05 4.2 50">
	<g id="Layer_1_9_">
		<path style="fill-rule:evenodd;clip-rule:evenodd;fill:#A5DDB4;" d="M0.9-0.05h2.7L4.25-33.3l-0.7-16.75h-2.7
			c-0.133,3.133-0.167,5.417-0.1,6.85c0.067,1.767,0.333,4.383,0.8,7.85c0.067,0.434,0.067,1.05,0,1.85
			c-0.066,0.933-0.1,1.567-0.1,1.9c0.033,0.7-0.1,2.133-0.4,4.3c-0.3,2.1-0.583,5.183-0.85,9.25C0-14.383,0-11.633,0.2-9.8l0.4,4
			c0.2,1.7,0.3,2.566,0.3,2.6V-0.05z"/>
	</g>
</symbol>
<symbol  id="flash0.ai_x5F_1_x2F_Layer_1_x2F__x3C_Path_x3E__x5F_7" viewBox="-0.007 -50 7.161 50">
	<g id="Layer_1_8_">
		<linearGradient id="SVGID_17_" gradientUnits="userSpaceOnUse" x1="-2.2876" y1="-25" x2="7.1874" y2="-25">
			<stop  offset="0" style="stop-color:#260C0A"/>
			<stop  offset="0.102" style="stop-color:#2B120F"/>
			<stop  offset="0.2314" style="stop-color:#39211F"/>
			<stop  offset="0.3765" style="stop-color:#503B39"/>
			<stop  offset="0.5294" style="stop-color:#71605D"/>
			<stop  offset="0.6941" style="stop-color:#9A8E8C"/>
			<stop  offset="0.8667" style="stop-color:#CCC6C5"/>
			<stop  offset="1" style="stop-color:#F9F8F7"/>
		</linearGradient>
		<path style="fill-rule:evenodd;clip-rule:evenodd;fill:url(#SVGID_17_);" d="M0.25,0H6.5c0.3-3.7,0.517-8.4,0.65-14.1
			C7.183-15.433,7-18.367,6.6-22.9c-0.333-4.1-0.417-7.033-0.25-8.8c0.133-1.566,0.167-7.667,0.1-18.3H0.2c0.2,1.067,0.3,2,0.3,2.8
			c0.067,3.367,0,5.934-0.2,7.7c-0.1,1.667-0.033,3.367,0.2,5.1c0.233,1.8,0.333,3.183,0.3,4.15C0.333-26.05,0.067-23.3,0-22
			c-0.033,0.9,0.05,2.167,0.25,3.8c0.233,1.934,0.367,3.184,0.4,3.75c0.067,1.467,0.05,3.267-0.05,5.4
			C0.467-6.083,0.4-4.433,0.4-4.1C0.267-2.4,0.217-1.033,0.25,0z"/>
	</g>
</symbol>
<symbol  id="flash0.ai_x5F_1_x2F_Layer_1_x2F__x3C_Path_x3E__x5F_8" viewBox="0.023 -13.7 1.334 13.654">
	<g id="Layer_1_20_">
		<path style="fill-rule:evenodd;clip-rule:evenodd;fill:#1FCAD4;" d="M1.25-13.7c-0.333,0.367-0.617,1-0.85,1.9
			c-0.467,1.767-0.5,3.95-0.1,6.55c0.6,3.567,0.917,5.3,0.95,5.2C1.483-0.45,1.333-3.1,0.8-8C0.5-10.467,0.65-12.367,1.25-13.7z"/>
	</g>
</symbol>
<symbol  id="flash0.ai_x5F_1_x2F_Layer_1_x2F__x3C_Path_x3E__x5F_8_x5F_0" viewBox="-0.034 -1.378 3.348 1.392">
	<g id="Layer_1_23_">
		<path style="fill-rule:evenodd;clip-rule:evenodd;fill:#022B3E;" d="M2.2,0c1.066-0.133,1.367-0.417,0.9-0.85
			c-0.467-0.433-1.2-0.6-2.2-0.5c-0.967,0.1-1.183,0.367-0.65,0.8C0.75-0.117,1.4,0.067,2.2,0z"/>
	</g>
</symbol>
<symbol  id="flash0.ai_x5F_1_x2F_Layer_1_x2F__x3C_Path_x3E__x5F_9" viewBox="0 -3.394 0.939 3.484">
	<g id="Layer_1_24_">
		<path style="fill-rule:evenodd;clip-rule:evenodd;fill:#4EAA95;" d="M0.85-0.55c0.167-0.833,0.1-1.617-0.2-2.35
			c-0.3-0.733-0.5-0.65-0.6,0.25C-0.05-1.75,0-1,0.2-0.4C0.433,0.3,0.65,0.25,0.85-0.55z"/>
	</g>
</symbol>
<g>
	
		<linearGradient id="SVGID_18_" gradientUnits="userSpaceOnUse" x1="-41.8911" y1="48.7344" x2="-32.5899" y2="48.7344" gradientTransform="matrix(-0.0161 -0.9999 0.9999 -0.0161 -1.618918e-004 2.010595e-004)">
		<stop  offset="0.0118" style="stop-color:#86A5D9"/>
		<stop  offset="1" style="stop-color:#022B3E"/>
	</linearGradient>
	<path style="fill-rule:evenodd;clip-rule:evenodd;fill:url(#SVGID_18_);" d="M50.9,31.15c0.3,0,0.566,0.05,0.8,0.149
		c0.066,0,0.333,0.084,0.8,0.25c-0.267,0.033-0.483,0.066-0.65,0.101c-0.166,0-0.35,0.1-0.55,0.3c-0.434,0.3-0.75,0.717-0.95,1.25
		c-0.1,0.333-0.216,0.883-0.35,1.649c-0.066,0.334-0.184,1.9-0.35,4.7c0,0.733-0.067,1.367-0.2,1.9
		c-0.167,0.767-0.334,0.133-0.5-1.9c-0.2-2.666-0.351-4.467-0.45-5.399c-0.167-1.467-0.4-1.95-0.7-1.45
		c-0.133,0.233-0.217,0.583-0.25,1.05c-0.033,0.5-0.083,0.85-0.149,1.05c-0.134,0.267-0.25,0.184-0.351-0.25
		c-0.066-0.333-0.1-0.633-0.1-0.899c-0.066-0.567-0.117-0.917-0.15-1.051c-0.1-0.3-0.283-0.566-0.55-0.8
		c-0.3-0.233-0.333-0.399-0.1-0.5c0.199-0.066,0.517-0.1,0.949-0.1h2.2C49.667,31.233,50.2,31.217,50.9,31.15z"/>
	
		<linearGradient id="SVGID_19_" gradientUnits="userSpaceOnUse" x1="-35.6416" y1="29.9326" x2="-30.4156" y2="29.9326" gradientTransform="matrix(-0.0191 -0.9998 0.9998 -0.0191 -1.255423e-004 6.916337e-004)">
		<stop  offset="0.0118" style="stop-color:#86A5D9"/>
		<stop  offset="1" style="stop-color:#022B3E"/>
	</linearGradient>
	<path style="fill-rule:evenodd;clip-rule:evenodd;fill:url(#SVGID_19_);" d="M34.45,32.65c-0.1,0.333-0.383,0.033-0.85-0.9
		c-0.409-0.817-0.709-1.334-0.9-1.55c1.756,0.16,2.731,0.244,2.925,0.25c-0.09,0.037-0.265,0.287-0.525,0.75
		C34.833,31.733,34.617,32.217,34.45,32.65z M32.35,30.175c-0.267,0.21-0.634,0.885-1.1,2.025c-0.467,1.1-0.85,2.116-1.15,3.05
		c-0.133,0.5-0.2-0.6-0.2-3.3c0-1.2-0.15-1.816-0.45-1.851c-0.233-0.033-0.483,0.367-0.75,1.2c-0.267,0.8-0.434,1.684-0.5,2.65
		c-0.034,0.767-0.133,0.75-0.3-0.05c-0.167-1.233-0.316-2.117-0.45-2.65c-0.167-0.667-0.417-1.116-0.75-1.35
		c-0.2-0.101-0.633-0.217-1.3-0.351C28.352,29.819,30.668,30.028,32.35,30.175z"/>
	<g>
		<g>
			
				<linearGradient id="SVGID_20_" gradientUnits="userSpaceOnUse" x1="3.4863" y1="-36.3398" x2="16.7839" y2="-36.3398" gradientTransform="matrix(-0.0587 0.9983 -0.9983 -0.0587 -7.335506e-004 -8.832291e-005)">
				<stop  offset="0" style="stop-color:#022B3E"/>
				<stop  offset="0.4784" style="stop-color:#74C3C5"/>
				<stop  offset="1" style="stop-color:#1F203E"/>
			</linearGradient>
			<path style="fill-rule:evenodd;clip-rule:evenodd;fill:url(#SVGID_20_);" d="M69.95,17.2c0.233,0.2,0.416,0.667,0.55,1.4
				c-0.033,0.733-0.134,1.483-0.3,2.25c-0.2,0.833-0.316,1.4-0.351,1.7c0-0.233-0.733-0.35-2.199-0.35c-1.467,0-2.2,0.083-2.2,0.25
				c-0.033,0.133,0.616,0.367,1.95,0.7c1.466,0.367,2.25,0.567,2.35,0.6c0.033,0.033,0.05,0.183,0.05,0.45
				c0,0.3,0.033,0.617,0.101,0.95c-0.534,3.1-0.934,4.716-1.2,4.85s-2.2,0.05-5.8-0.25c-3.967-0.333-6.65-0.417-8.051-0.25
				c-4.733,0.7-11.3,0.483-19.699-0.65c-3.7-0.5-8.833-0.85-15.4-1.05c-8-0.3-12.3-0.467-12.9-0.5
				c-3.233-0.233-4.934-0.383-5.1-0.45c-0.367-0.133-0.717-0.866-1.05-2.2c-0.133-0.433-0.184-0.933-0.15-1.5
				c0.034-0.6,0.017-1.1-0.05-1.5c-0.2-0.767-0.317-1.667-0.35-2.7c-0.033-1.233,0.067-2.133,0.3-2.7c0.1-0.233,0.233-0.4,0.4-0.5
				c0.267-0.167,0.517-0.333,0.75-0.5C2.3,14.717,3,14.3,3.7,14c0.833-0.3,1.917-0.367,3.25-0.2c0.933,0.1,2.216,0.167,3.85,0.2
				c1.867,0.033,3.167,0.083,3.9,0.15l17.7,1.65c3.9,0.3,6.383,0.467,7.45,0.5c0.067,0,6.217-0.033,18.45-0.1
				C65.434,16.167,69.316,16.5,69.95,17.2z"/>
			
				<linearGradient id="SVGID_21_" gradientUnits="userSpaceOnUse" x1="1.6372" y1="-36.5161" x2="29.4347" y2="-36.5161" gradientTransform="matrix(-0.0587 0.9983 -0.9983 -0.0587 -3.196374e-004 1.695156e-004)">
				<stop  offset="0" style="stop-color:#022B3E"/>
				<stop  offset="0.4784" style="stop-color:#74C3C5"/>
				<stop  offset="1" style="stop-color:#1F203E"/>
			</linearGradient>
			<path style="fill-rule:evenodd;clip-rule:evenodd;fill:url(#SVGID_21_);" d="M58.8,17.1c7.2-0.067,11.117,0.25,11.75,0.95
				c0.367,0.4,0.267,1.85-0.3,4.35c-0.167,1.2-0.283,3.05-0.35,5.55c-0.034,0.267-0.117,0.967-0.25,2.1
				c-0.167,1.066-0.4,1.684-0.7,1.851c-0.267,0.133-2.2,0.05-5.8-0.25c-4-0.334-6.684-0.417-8.051-0.25
				C50.366,32.1,43.8,31.884,35.4,30.75c-3.7-0.5-8.833-0.85-15.4-1.05c-8-0.3-12.3-0.467-12.9-0.5
				c-0.967-0.101-1.867-0.084-2.7,0.05c-1.467,0.267-2.383,0.167-2.75-0.3c-0.167-0.2-0.25-0.4-0.25-0.601
				c0-0.267-0.033-0.483-0.1-0.649c-0.6-1.533-1.017-3.267-1.25-5.2c-0.066-0.7-0.033-1.717,0.1-3.05c0.1-1.333,0.217-2.1,0.35-2.3
				c0.1-0.2,0.35-0.467,0.75-0.8c0.933-0.867,1.817-1.417,2.65-1.65c0.467-0.133,1-0.167,1.6-0.1c0.067,0,0.617,0.066,1.65,0.2
				c0.867,0.1,2.184,0.167,3.95,0.2c1.8,0.033,3.133,0.1,4,0.2c1.3,0.133,7.2,0.65,17.7,1.55c2.7,0.267,5.167,0.45,7.4,0.55
				C40.3,17.3,46.5,17.233,58.8,17.1z"/>
			
				<linearGradient id="SVGID_22_" gradientUnits="userSpaceOnUse" x1="20.8608" y1="-37.4971" x2="29.0247" y2="-37.4971" gradientTransform="matrix(-0.0588 0.9983 -0.9983 -0.0588 -6.777346e-004 1.302920e-004)">
				<stop  offset="0" style="stop-color:#022B3E"/>
				<stop  offset="0.4784" style="stop-color:#74C3C5"/>
				<stop  offset="1" style="stop-color:#1F203E"/>
			</linearGradient>
			<path style="fill-rule:evenodd;clip-rule:evenodd;fill:url(#SVGID_22_);" d="M45.5,31.2c0.7,0.066,1.55,0.066,2.55,0
				c1.5-0.134,2.367-0.2,2.601-0.2c1.166-0.033,2.933-0.134,5.3-0.3c2.1-0.101,3.866-0.15,5.3-0.15c0.533,0,1.816,0.15,3.85,0.45
				c0.2,0.033,0.75,0.15,1.65,0.35c0.9,0.101,1.6,0.051,2.1-0.149c0.233-0.033,0.551-0.95,0.95-2.75
				c-0.133,1.767-0.383,2.899-0.75,3.399c-0.066,0.233-1.149,0.233-3.25,0l-3.649-0.3c-3.267-0.267-5.617-0.316-7.051-0.149
				C50.366,32.1,43.8,31.884,35.4,30.75c-3.7-0.5-8.833-0.85-15.4-1.05c-8-0.3-12.3-0.467-12.9-0.5l-1.45-0.05
				c-0.566-0.034-1.033-0.117-1.4-0.25c-0.067-0.034-0.467-0.233-1.2-0.601C2.595,28.072,2.245,27.964,2,27.975
				c0.353-0.046,0.77-0.055,1.25-0.024c0.3,0,0.75,0.033,1.35,0.1c0.933,0.066,2.316,0.101,4.15,0.101
				c3.9,0.333,6.183,0.55,6.85,0.649c1.967,0.233,4.566,0.316,7.8,0.25c2.5-0.066,6.5,0.25,12,0.95C40.033,30.6,43.4,31,45.5,31.2z"
				/>
			
				<use xlink:href="#flash0.ai_x5F_1_x2F_Layer_1_x2F__x3C_Path_x3E__x5F_5"  width="30.359" height="15.6" y="-15.575" transform="matrix(1 0 0 -1 1.5 14.7002)" style="overflow:visible;opacity:0.4414;enable-background:new    ;"/>
			
				<use xlink:href="#flash0.ai_x5F_1_x2F_Layer_1_x2F__x3C_Path_x3E__x5F_4"  width="17.215" height="14.872" x="-0.065" y="-14.9" transform="matrix(1 0 0 -1 2.7002 14.7002)" style="overflow:visible;opacity:0.4414;enable-background:new    ;"/>
			
				<use xlink:href="#flash0.ai_x5F_1_x2F_Layer_1_x2F__x3C_Path_x3E__x5F_3"  width="19.379" height="14.783" x="-0.017" y="-14.783" transform="matrix(1 0 0 -1 49.4004 17.2002)" style="overflow:visible;opacity:0.4414;enable-background:new    ;"/>
			
				<use xlink:href="#flash0.ai_x5F_1_x2F_Layer_1_x2F__x3C_Path_x3E__x5F_2"  width="15.936" height="14.625" x="0.02" y="-14.603" transform="matrix(1 0 0 -1 51.2002 17.25)" style="overflow:visible;opacity:0.4414;enable-background:new    ;"/>
			
				<use xlink:href="#flash0.ai_x5F_1_x2F_Layer_1_x2F__x3C_Path_x3E__x5F_1"  width="27.05" height="1.806" y="-1.806" transform="matrix(1 0 0 -1 22.3999 15.7998)" style="overflow:visible;enable-background:new    ;"/>
			
				<use xlink:href="#flash0.ai_x5F_1_x2F_Layer_1_x2F__x3C_Path_x3E_"  width="15.112" height="2.462" y="-2.462" transform="matrix(1 0 0 -1 36.2998 22)" style="overflow:visible;opacity:0.4414;enable-background:new    ;"/>
		</g>
	</g>
	<g>
		<linearGradient id="SVGID_23_" gradientUnits="userSpaceOnUse" x1="4.1123" y1="25" x2="18.374" y2="25">
			<stop  offset="0" style="stop-color:#1F203E"/>
			<stop  offset="0.5216" style="stop-color:#74C3C5"/>
			<stop  offset="1" style="stop-color:#022B3E"/>
		</linearGradient>
		<path style="fill-rule:evenodd;clip-rule:evenodd;fill:url(#SVGID_23_);" d="M17.7,9.3c0,0.767-0.1,2.233-0.3,4.4
			c-0.2,1.8-0.25,3.25-0.15,4.35c0.067,1,0.133,2.35,0.2,4.05c0.033,1.3,0.1,2.4,0.2,3.3c0.367,2.966,0.567,4.767,0.6,5.399
			c0.2,2.367,0.2,4.15,0,5.351c-0.067,0.466-0.083,1.149-0.05,2.05c0,0.899-0.034,1.566-0.1,2c-0.167,1.267-0.233,2.899-0.2,4.899
			c0,1.134,0.033,2.767,0.1,4.9H4.7c-0.034-0.667-0.034-2.116,0-4.35c0.066-1.834,0-3.25-0.2-4.25c-0.2-1.2-0.2-2.733,0-4.601
			c0.3-2.399,0.45-3.934,0.45-4.6c0-1.134-0.167-3.316-0.5-6.55c-0.3-2.734-0.383-4.9-0.25-6.5C4.533,16.217,4.7,14,4.7,12.5
			C4.533,9.133,4.433,6.567,4.4,4.8C4.6,2.9,4.717,1.3,4.75,0h13.3c0.067,0-0.017,1.617-0.25,4.85L17.7,9.3z"/>
		
			<use xlink:href="#flash0.ai_x5F_1_x2F_Layer_1_x2F__x3C_Clip_Group_0_x3E_"  width="14.562" height="50" x="0.039" y="-50.05" transform="matrix(1 0 0 -1 4.1001 -0.0498)" style="overflow:visible;"/>
	</g>
	<g>
		
			<linearGradient id="SVGID_24_" gradientUnits="userSpaceOnUse" x1="-67.5625" y1="-25" x2="-53.6375" y2="-25" gradientTransform="matrix(-1 0 0 -1 0 0)">
			<stop  offset="0" style="stop-color:#022B3E"/>
			<stop  offset="0.4784" style="stop-color:#74C3C5"/>
			<stop  offset="1" style="stop-color:#1F203E"/>
		</linearGradient>
		<path style="fill-rule:evenodd;clip-rule:evenodd;fill:url(#SVGID_24_);" d="M66.4,19.05c0.033,1.967,0.149,4.117,0.35,6.45
			c0.134,1.4,0.35,3.55,0.65,6.45c0.1,1.166,0.1,2.733,0,4.7c-0.134,2.333-0.2,3.899-0.2,4.699c0,0.301,0.083,1.75,0.25,4.351
			c0.133,1.733,0.166,3.166,0.1,4.3H54.1c0.067-2.833,0.101-4.967,0.101-6.4c0-2.5-0.117-4.633-0.351-6.399
			c-0.267-1.934-0.133-4.983,0.4-9.15c0.467-4,0.517-7.05,0.15-9.15c-0.167-0.933-0.25-2.117-0.25-3.55
			c0-1.434-0.084-2.617-0.25-3.55c-0.334-1.833-0.367-4-0.101-6.5L54.25,0H67.4c0.033,0.233,0.033,1.35,0,3.35
			c-0.067,2.033-0.117,3.167-0.15,3.4l-0.4,3.9C66.55,13.05,66.4,15.85,66.4,19.05z"/>
		
			<use xlink:href="#flash0.ai_x5F_1_x2F_Layer_1_x2F__x3C_Clip_Group_0_x3E__x5F_0"  width="13.961" height="50" x="-0.028" y="-50" transform="matrix(1 0 0 -1 53.6504 0)" style="overflow:visible;"/>
	</g>
	
		<linearGradient id="SVGID_25_" gradientUnits="userSpaceOnUse" x1="-34.8511" y1="-15.3374" x2="-26.5574" y2="-15.3374" gradientTransform="matrix(-0.7717 -0.636 0.636 -0.7717 -9.435415e-005 3.288388e-004)">
		<stop  offset="0" style="stop-color:#74C3C5"/>
		<stop  offset="1" style="stop-color:#1F203E"/>
	</linearGradient>
	<path style="fill-rule:evenodd;clip-rule:evenodd;fill:url(#SVGID_25_);" d="M12.65,27.3c0.3-1.233,0.75-1.267,1.35-0.1
		c0.533,1.1,0.883,2.566,1.05,4.399c0.133,1.667-0.033,2.884-0.5,3.65c-0.466,0.733-0.933,0.65-1.4-0.25
		c-0.433-0.8-0.667-2.167-0.7-4.1C12.383,29.2,12.45,28,12.65,27.3z"/>
	
		<use xlink:href="#flash0.ai_x5F_1_x2F_Layer_1_x2F__x3C_Path_x3E__x5F_14"  width="1.208" height="4.87" x="-0.013" y="-4.78" transform="matrix(1 0 0 -1 12.8501 15.2998)" style="overflow:visible;opacity:0.3516;enable-background:new    ;"/>
	
		<linearGradient id="SVGID_26_" gradientUnits="userSpaceOnUse" x1="-11.8999" y1="12.4546" x2="-3.7862" y2="12.4546" gradientTransform="matrix(-0.228 -0.9737 0.9737 -0.228 -8.329749e-005 4.550815e-004)">
		<stop  offset="0" style="stop-color:#74C3C5"/>
		<stop  offset="1" style="stop-color:#1F203E"/>
	</linearGradient>
	<path style="fill-rule:evenodd;clip-rule:evenodd;fill:url(#SVGID_26_);" d="M13.7,2.05c0.6-0.9,0.95-0.466,1.05,1.3
		s-0.133,3.133-0.7,4.1c-0.566,0.9-0.9,0.433-1-1.4C12.95,4.183,13.167,2.85,13.7,2.05z"/>
	
		<linearGradient id="SVGID_27_" gradientUnits="userSpaceOnUse" x1="-41.876" y1="23.7598" x2="-31.8794" y2="23.7598" gradientTransform="matrix(-0.2701 -0.9628 0.9628 -0.2701 -1.400411e-004 6.071031e-004)">
		<stop  offset="0" style="stop-color:#022B3E"/>
		<stop  offset="0.4784" style="stop-color:#74C3C5"/>
		<stop  offset="1" style="stop-color:#1F203E"/>
	</linearGradient>
	<path style="fill-rule:evenodd;clip-rule:evenodd;fill:url(#SVGID_27_);" d="M33.35,24.15c3.5,0.6,4.534,1.5,3.1,2.7
		c-1.467,1.167-3.7,1.367-6.7,0.601c-2.867-0.7-3.667-1.55-2.4-2.55C28.617,23.933,30.617,23.683,33.35,24.15z"/>
	
		<use xlink:href="#flash0.ai_x5F_1_x2F_Layer_1_x2F__x3C_Path_x3E__x5F_11"  width="4.525" height="1.71" x="-0.01" y="-1.71" transform="matrix(1 0 0 -1 24.3999 22.2002)" style="overflow:visible;opacity:0.3516;enable-background:new    ;"/>
	
		<linearGradient id="SVGID_28_" gradientUnits="userSpaceOnUse" x1="-32.8477" y1="38.4043" x2="-28.5157" y2="38.4043" gradientTransform="matrix(-0.1212 -0.9926 0.9926 -0.1212 -2.953187e-004 2.936795e-004)">
		<stop  offset="0" style="stop-color:#74C3C5"/>
		<stop  offset="1" style="stop-color:#1F203E"/>
	</linearGradient>
	<path style="fill-rule:evenodd;clip-rule:evenodd;fill:url(#SVGID_28_);" d="M41.15,24.3c2.366,0,3.399,0.35,3.1,1.05
		c-0.333,0.733-1.366,1.034-3.1,0.9c-1.467-0.1-2.084-0.45-1.851-1.05C39.566,24.6,40.184,24.3,41.15,24.3z"/>
	
		<linearGradient id="SVGID_29_" gradientUnits="userSpaceOnUse" x1="-19.4497" y1="48.4609" x2="-15.8965" y2="48.4609" gradientTransform="matrix(0.0422 -0.9991 0.9991 0.0422 -4.606433e-004 4.657619e-004)">
		<stop  offset="0" style="stop-color:#022B3E"/>
		<stop  offset="0.4784" style="stop-color:#74C3C5"/>
		<stop  offset="1" style="stop-color:#1F203E"/>
	</linearGradient>
	<path style="fill-rule:evenodd;clip-rule:evenodd;fill:url(#SVGID_29_);" d="M49.1,18.1c2.034,0.4,2.301,0.85,0.801,1.35
		c-1.534,0.466-3.034,0.483-4.5,0.05c-1.233-0.367-1.117-0.733,0.35-1.1S48.333,17.933,49.1,18.1z"/>
	
		<use xlink:href="#flash0.ai_x5F_1_x2F_Layer_1_x2F__x3C_Path_x3E__x5F_8_x5F_0"  width="3.348" height="1.392" x="-0.034" y="-1.378" transform="matrix(1 0 0 -1 49.4502 26.0498)" style="overflow:visible;opacity:0.4297;enable-background:new    ;"/>
	
		<linearGradient id="SVGID_30_" gradientUnits="userSpaceOnUse" x1="-10.6582" y1="26.0049" x2="-7.6823" y2="26.0049" gradientTransform="matrix(0.3612 -0.9325 0.9325 0.3612 3.600419e-004 4.775524e-004)">
		<stop  offset="0" style="stop-color:#74C3C5"/>
		<stop  offset="1" style="stop-color:#1F203E"/>
	</linearGradient>
	<path style="fill-rule:evenodd;clip-rule:evenodd;fill:url(#SVGID_30_);" d="M21.5,17.1c1.5,0.233,1.867,0.75,1.1,1.55
		c-0.8,0.8-1.783,1-2.95,0.6c-1.066-0.367-1.25-0.85-0.55-1.45C19.733,17.2,20.533,16.967,21.5,17.1z"/>
	
		<linearGradient id="SVGID_31_" gradientUnits="userSpaceOnUse" x1="-67.4146" y1="19.0684" x2="-60.8077" y2="19.0684" gradientTransform="matrix(-0.7719 -0.6357 0.6357 -0.7719 -1.238585e-004 6.447434e-004)">
		<stop  offset="0" style="stop-color:#74C3C5"/>
		<stop  offset="1" style="stop-color:#1F203E"/>
	</linearGradient>
	<path style="fill-rule:evenodd;clip-rule:evenodd;fill:url(#SVGID_31_);" d="M60.75,22.35c0.7-1.233,1.25-0.7,1.65,1.6
		c0.399,2.267,0.233,4.05-0.5,5.35c-0.7,1.267-1.2,0.667-1.5-1.8C60.1,25.033,60.217,23.317,60.75,22.35z"/>
	
		<linearGradient id="SVGID_32_" gradientUnits="userSpaceOnUse" x1="-73.3599" y1="14.6362" x2="-68.8304" y2="14.6362" gradientTransform="matrix(-0.7727 -0.6347 0.6347 -0.7727 1.776218e-004 8.338690e-004)">
		<stop  offset="0" style="stop-color:#74C3C5"/>
		<stop  offset="1" style="stop-color:#1F203E"/>
	</linearGradient>
	<path style="fill-rule:evenodd;clip-rule:evenodd;fill:url(#SVGID_32_);" d="M63.8,31.25c0.334-1.134,0.601-0.75,0.8,1.15
		C64.8,34.3,64.667,35.6,64.2,36.3c-0.434,0.7-0.684,0.283-0.75-1.25C63.384,33.583,63.5,32.316,63.8,31.25z"/>
	
		<linearGradient id="SVGID_33_" gradientUnits="userSpaceOnUse" x1="-59.0054" y1="36.1572" x2="-51.4223" y2="36.1572" gradientTransform="matrix(-0.7715 -0.6363 0.6363 -0.7715 -4.629493e-004 6.608963e-004)">
		<stop  offset="0" style="stop-color:#74C3C5"/>
		<stop  offset="1" style="stop-color:#1F203E"/>
	</linearGradient>
	<path style="fill-rule:evenodd;clip-rule:evenodd;fill:url(#SVGID_33_);" d="M65.05,2.6c0.834-1.934,1.3-1.317,1.4,1.85
		c0.066,3.2-0.316,5.617-1.15,7.25c-0.767,1.533-1.116,0.667-1.05-2.6C64.316,5.867,64.583,3.7,65.05,2.6z"/>
	
		<linearGradient id="SVGID_34_" gradientUnits="userSpaceOnUse" x1="-50.1294" y1="32.8965" x2="-44.6589" y2="32.8965" gradientTransform="matrix(-0.7723 -0.6352 0.6352 -0.7723 -1.376271e-004 -4.308820e-004)">
		<stop  offset="0" style="stop-color:#74C3C5"/>
		<stop  offset="1" style="stop-color:#1F203E"/>
	</linearGradient>
	<path style="fill-rule:evenodd;clip-rule:evenodd;fill:url(#SVGID_34_);" d="M56.55,2.6c0.2-0.934,0.467-1.45,0.8-1.55
		c0.301-0.133,0.567,0.083,0.801,0.65c0.633,1.433,0.583,3.117-0.15,5.05c-0.7,1.767-1.184,1.817-1.45,0.15
		C56.316,5.367,56.316,3.933,56.55,2.6z"/>
	
		<linearGradient id="SVGID_35_" gradientUnits="userSpaceOnUse" x1="-51.939" y1="30.3164" x2="-50.1272" y2="30.3164" gradientTransform="matrix(-0.7727 -0.6347 0.6347 -0.7727 1.776218e-004 8.338690e-004)">
		<stop  offset="0" style="stop-color:#74C3C5"/>
		<stop  offset="1" style="stop-color:#1F203E"/>
	</linearGradient>
	<path style="fill-rule:evenodd;clip-rule:evenodd;fill:url(#SVGID_35_);" d="M58.35,8.2c0.134-0.567,0.334-0.617,0.601-0.15
		c0.233,0.467,0.217,0.983-0.05,1.55c-0.267,0.566-0.45,0.617-0.551,0.15C58.217,9.25,58.217,8.733,58.35,8.2z"/>
	
		<linearGradient id="SVGID_36_" gradientUnits="userSpaceOnUse" x1="-75.0581" y1="3.4336" x2="-68.7873" y2="3.4336" gradientTransform="matrix(-0.7734 -0.6339 0.6339 -0.7734 -3.266335e-005 -2.610087e-004)">
		<stop  offset="0" style="stop-color:#74C3C5"/>
		<stop  offset="1" style="stop-color:#1F203E"/>
	</linearGradient>
	<path style="fill-rule:evenodd;clip-rule:evenodd;fill:url(#SVGID_36_);" d="M57,39.55c0.566-1.434,1.066-0.883,1.5,1.65
		c0.434,2.467,0.267,4.149-0.5,5.05c-0.733,0.866-1.184,0.167-1.35-2.1C56.517,41.95,56.634,40.417,57,39.55z"/>
	
		<use xlink:href="#flash0.ai_x5F_1_x2F_Layer_1_x2F__x3C_Path_x3E__x5F_9"  width="0.939" height="3.484" x="0" y="-3.394" transform="matrix(1 0 0 -1 61.0996 38.2998)" style="overflow:visible;opacity:0.3516;enable-background:new    ;"/>
</g>
</svg>
