<?xml version="1.0" encoding="iso-8859-1"?>
<!-- Generator: Adobe Illustrator 15.1.0, SVG Export Plug-In . SVG Version: 6.00 Build 0)  -->
<!DOCTYPE svg PUBLIC "-//W3C//DTD SVG 1.1//EN" "http://www.w3.org/Graphics/SVG/1.1/DTD/svg11.dtd">
<svg version="1.1" xmlns="http://www.w3.org/2000/svg" xmlns:xlink="http://www.w3.org/1999/xlink" x="0px" y="0px" width="70.65px"
	 height="50px" viewBox="0 0 70.65 50" style="enable-background:new 0 0 70.65 50;" xml:space="preserve">
<symbol  id="flash0.ai_x5F_1_x2F_Layer_1_x2F__x3C_Clip_Group_0_x3E_" viewBox="-0.015 -50.35 15.865 50.304">
	<g id="Layer_1_23_">
	</g>
	<g>
		<defs>
			<path id="SVGID_1_" d="M14.8-32c0.367,2.233,0.583,3.533,0.65,3.9c0.2,1.667,0.2,2.934,0,3.8c-0.1,0.367-0.133,0.867-0.1,1.5
				c0,0.7-0.017,1.183-0.05,1.45c-0.167,0.767-0.233,1.75-0.2,2.95c0.066,1.667,0.083,2.667,0.05,3v0.9
				c0.033,3.467,0.05,6.067,0.05,7.8c0,1.733-0.233,3.034-0.7,3.9c-0.633,1.2-1.783,1.917-3.45,2.15C9.217-0.417,7.533-0.333,6-0.4
				C3.833-0.533,2.267-0.983,1.3-1.75C0.367-2.517-0.067-3.717,0-5.35c0.067-0.7,0.333-1.983,0.8-3.85c0.5-1.8,0.8-3.816,0.9-6.05
				c0.033-0.533,0.117-1.4,0.25-2.6c0.1-1.1,0.05-1.967-0.15-2.6c-0.2-0.867-0.2-1.966,0-3.3c0.267-1.733,0.4-2.833,0.4-3.3
				c0-0.833-0.167-2.4-0.5-4.7c-0.3-2-0.383-3.567-0.25-4.7c0.333-2.667,0.5-4.267,0.5-4.8c0-1.3-0.117-3.15-0.35-5.55l0.1-3.55
				h13.35c0.034,0-0.017,1.184-0.15,3.55c-0.066,1.433-0.083,2.517-0.05,3.25c0,0.533-0.1,1.566-0.3,3.1
				c-0.2,1.3-0.25,2.35-0.15,3.15C14.467-34.967,14.6-33.2,14.8-32z"/>
		</defs>
		<clipPath id="SVGID_2_">
			<use xlink:href="#SVGID_1_"  style="overflow:visible;"/>
		</clipPath>
		<g id="Layer_3_1_" style="clip-path:url(#SVGID_2_);">
			<linearGradient id="SVGID_3_" gradientUnits="userSpaceOnUse" x1="15.5625" y1="-25.4009" x2="0.4375" y2="-25.3509">
				<stop  offset="0" style="stop-color:#022B3E"/>
				<stop  offset="0.4784" style="stop-color:#74C3C5"/>
				<stop  offset="1" style="stop-color:#1F203E"/>
			</linearGradient>
			<path style="fill-rule:evenodd;clip-rule:evenodd;fill:url(#SVGID_3_);" d="M11.05-0.65c1.667-0.233,2.817-0.95,3.45-2.15
				c0.467-0.867,0.7-2.167,0.7-3.9c0-1.733-0.017-4.333-0.05-7.8v-0.9c0.033-0.333,0.017-1.333-0.05-3
				c-0.033-1.2,0.033-2.184,0.2-2.95c0.034-0.267,0.05-0.75,0.05-1.45c-0.033-0.633,0-1.133,0.1-1.5c0.2-0.867,0.2-2.133,0-3.8
				c-0.067-0.367-0.284-1.667-0.65-3.9c-0.2-1.2-0.333-2.967-0.4-5.3c-0.1-0.8-0.05-1.85,0.15-3.15c0.2-1.533,0.3-2.566,0.3-3.1
				c-0.033-0.733-0.017-1.817,0.05-3.25c0.133-2.367,0.184-3.55,0.15-3.55H1.7L1.6-46.8c0.233,2.4,0.35,4.25,0.35,5.55
				c0,0.533-0.167,2.133-0.5,4.8c-0.133,1.133-0.05,2.7,0.25,4.7c0.333,2.3,0.5,3.867,0.5,4.7c0,0.466-0.133,1.566-0.4,3.3
				c-0.2,1.333-0.2,2.433,0,3.3c0.2,0.633,0.25,1.5,0.15,2.6c-0.133,1.2-0.217,2.067-0.25,2.6C1.6-13.017,1.3-11,0.8-9.2
				C0.333-7.333,0.067-6.05,0-5.35c-0.067,1.633,0.367,2.833,1.3,3.6C2.267-0.983,3.833-0.533,6-0.4
				C7.533-0.333,9.217-0.417,11.05-0.65z"/>
			<g>
				<g>
					
						<use xlink:href="#flash0.ai_x5F_1_x2F_Layer_1_x2F__x3C_Path_x3E__x5F_6"  width="11.215" height="50.304" x="-0.015" y="-50.35" style="overflow:visible;opacity:0.4414;enable-background:new    ;"/>
					
						<use xlink:href="#flash0.ai_x5F_1_x2F_Layer_1_x2F__x3C_Path_x3E__x5F_5"  width="4.213" height="48.8" x="0.037" y="-48.8" transform="matrix(1 0 0 1 11.6001 -1.5498)" style="overflow:visible;opacity:0.25;enable-background:new    ;"/>
					<path style="fill-rule:evenodd;clip-rule:evenodd;fill:#4EAA95;" d="M2.15-23.75c-0.033,0.167-0.033,0.7,0,1.6
						c0.033,0.967,0.017,1.65-0.05,2.05c-0.067,0.833-0.05,1.867,0.05,3.1l0.2,1.6l0.15-2.85c0.067-1.967,0.05-3.167-0.05-3.6
						L2.15-23.75z"/>
					
						<use xlink:href="#flash0.ai_x5F_1_x2F_Layer_1_x2F__x3C_Path_x3E__x5F_3_x5F_0"  width="0.613" height="8.5" x="0.037" y="-8.5" transform="matrix(1 0 0 1 6.2002 -40.25)" style="overflow:visible;opacity:0.3711;enable-background:new    ;"/>
					
						<use xlink:href="#flash0.ai_x5F_1_x2F_Layer_1_x2F__x3C_Path_x3E__x5F_2_x5F_0"  width="0.552" height="7.3" x="0.004" y="-7.3" transform="matrix(1 0 0 1 12.4502 -38.4004)" style="overflow:visible;opacity:0.3516;enable-background:new    ;"/>
					
						<use xlink:href="#flash0.ai_x5F_1_x2F_Layer_1_x2F__x3C_Path_x3E__x5F_1_x5F_0"  width="2.135" height="17.8" x="0.015" y="-17.8" transform="matrix(1 0 0 1 5.1001 -31.5996)" style="overflow:visible;opacity:0.3516;enable-background:new    ;"/>
					
						<use xlink:href="#flash0.ai_x5F_1_x2F_Layer_1_x2F__x3C_Compound_Path_x3E_"  width="2.033" height="14.05" x="0.05" y="-14.05" transform="matrix(1 0 0 1 3.7002 -21.5)" style="overflow:visible;opacity:0.3711;enable-background:new    ;"/>
					
						<use xlink:href="#flash0.ai_x5F_1_x2F_Layer_1_x2F__x3C_Path_x3E__x5F_0"  width="1.327" height="16.9" x="-0.01" y="-16.9" transform="matrix(1 0 0 1 7.8501 -5.25)" style="overflow:visible;opacity:0.3516;enable-background:new    ;"/>
				</g>
			</g>
		</g>
	</g>
	<g id="Layer_4_1_">
	</g>
</symbol>
<symbol  id="flash0.ai_x5F_1_x2F_Layer_1_x2F__x3C_Clip_Group_0_x3E__x5F_0" viewBox="0.011 -49.5 13.799 49.539">
	<g id="Layer_1_24_">
	</g>
	<g>
		<defs>
			<path id="SVGID_4_" d="M13.65-47.2c-0.1,1.4-0.183,2.184-0.25,2.35l-0.4,2.7c-0.333,1.8-0.467,3.75-0.4,5.85
				c0.033,1.367,0.15,2.85,0.35,4.45c0.3,1.934,0.517,3.434,0.65,4.5c0.1,0.9,0.083,2.083-0.05,3.55c-0.133,1.767-0.2,2.95-0.2,3.55
				c0,1.633-0.083,3.417-0.25,5.35l-0.25,2c-0.267,2.633-0.35,4.633-0.25,6c0.167,1.833,0.25,2.85,0.25,3.05
				c0.033,1.2-0.05,1.934-0.25,2.2c-0.9,1.167-3.083,1.633-6.55,1.4c-3.466-0.2-5.417-0.933-5.85-2.2
				C0.067-4.417,0.267-7.2,0.8-10.8c0.133-0.934,0.133-2.067,0-3.4c-0.066-0.733-0.183-1.85-0.35-3.35
				C0.417-17.917,0.4-18.933,0.4-20.6c0-1.233-0.083-2.25-0.25-3.05c-0.267-1.367-0.15-3.5,0.35-6.4c0.5-2.8,0.567-4.917,0.2-6.35
				c-0.3-1.233-0.333-3.117-0.1-5.65c0.066-0.833,0.066-1.534,0-2.1c-0.033-0.533-0.033-0.95,0-1.25c0.2-1.4,0.217-2.767,0.05-4.1
				H13.8C13.833-49.367,13.783-48.6,13.65-47.2z"/>
		</defs>
		<clipPath id="SVGID_5_">
			<use xlink:href="#SVGID_4_"  style="overflow:visible;"/>
		</clipPath>
		<g id="Layer_3_2_" style="clip-path:url(#SVGID_5_);">
			<g>
				<g>
					
						<use xlink:href="#flash0.ai_x5F_1_x2F_Layer_1_x2F__x3C_Path_x3E__x5F_4_x5F_0"  width="10.95" height="49.539" x="0" y="-49.5" transform="matrix(1 0 0 1 0.1499 0)" style="overflow:visible;opacity:0.4414;enable-background:new    ;"/>
					
						<use xlink:href="#flash0.ai_x5F_1_x2F_Layer_1_x2F__x3C_Path_x3E__x5F_3_x5F_1"  width="3.853" height="48.301" x="-0.003" y="-48.3" transform="matrix(1 0 0 1 9.9502 -1.2002)" style="overflow:visible;opacity:0.25;enable-background:new    ;"/>
					<path style="fill-rule:evenodd;clip-rule:evenodd;fill:#4EAA95;" d="M0.4-22.8l0.05,0.5l-0.1-4.5c0-1.4,0.15-2.833,0.45-4.3
						c0.233-1.133,0.25-2.167,0.05-3.1c-0.167,0.7-0.283,1.233-0.35,1.6c-0.167,0.7-0.25,1.4-0.25,2.1c0.033,0.667,0,1.417-0.1,2.25
						c-0.066,0.9-0.1,1.5-0.1,1.8c0,1.7,0.034,2.633,0.1,2.8C0.25-23.45,0.333-23.167,0.4-22.8z"/>
					
						<use xlink:href="#flash0.ai_x5F_1_x2F_Layer_1_x2F__x3C_Path_x3E__x5F_1_x5F_1"  width="0.923" height="17.15" y="-17.15" transform="matrix(1 0 0 1 4.75 -3.7002)" style="overflow:visible;opacity:0.3516;enable-background:new    ;"/>
					
						<use xlink:href="#flash0.ai_x5F_1_x2F_Layer_1_x2F__x3C_Path_x3E__x5F_7"  width="1.333" height="9.516" x="-0.027" y="-9.516" transform="matrix(1 0 0 1 7.0498 -35.25)" style="overflow:visible;opacity:0.3516;enable-background:new    ;"/>
				</g>
			</g>
		</g>
	</g>
	<g id="Layer_4_2_">
	</g>
</symbol>
<symbol  id="flash0.ai_x5F_1_x2F_Layer_1_x2F__x3C_Compound_Path_x3E_" viewBox="0.05 -14.05 2.033 14.05">
	<g id="Layer_1_12_">
		<linearGradient id="SVGID_6_" gradientUnits="userSpaceOnUse" x1="-9.7524" y1="-7.3682" x2="13.5476" y2="-6.5932">
			<stop  offset="0" style="stop-color:#260C0A"/>
			<stop  offset="0.0157" style="stop-color:#2C120E"/>
			<stop  offset="0.1804" style="stop-color:#674B3F"/>
			<stop  offset="0.3216" style="stop-color:#917462"/>
			<stop  offset="0.4314" style="stop-color:#AB8E78"/>
			<stop  offset="0.498" style="stop-color:#B59780"/>
			<stop  offset="0.5647" style="stop-color:#AD9079"/>
			<stop  offset="0.6667" style="stop-color:#987C68"/>
			<stop  offset="0.7922" style="stop-color:#745C4C"/>
			<stop  offset="0.9333" style="stop-color:#433024"/>
			<stop  offset="1" style="stop-color:#2A1910"/>
		</linearGradient>
		<path style="fill-rule:evenodd;clip-rule:evenodd;fill:url(#SVGID_6_);" d="M0.95-0.9C0.95-0.5,1-0.2,1.1,0
			c0.066-0.633,0.25-1.767,0.55-3.4c0.5-2.667,0.567-4.583,0.2-5.75C1.717-9.617,1.4-10.433,0.9-11.6
			c-0.433-1-0.717-1.816-0.85-2.45c0,1.733,0.017,2.7,0.05,2.9c0.066,0.467,0.3,1.417,0.7,2.85c0.3,1.2,0.467,2.15,0.5,2.85
			c0.034,0.4-0.017,0.983-0.15,1.75C1.05-2.9,1-2.3,1-1.9C0.967-1.467,0.95-1.133,0.95-0.9z"/>
	</g>
</symbol>
<symbol  id="flash0.ai_x5F_1_x2F_Layer_1_x2F__x3C_Path_x3E_" viewBox="0 -1.55 27.1 1.55">
	<g id="Layer_1_6_">
		
			<linearGradient id="SVGID_7_" gradientUnits="userSpaceOnUse" x1="-441.2861" y1="-466.2227" x2="-414.1874" y2="-466.2227" gradientTransform="matrix(0.9985 -0.0556 0.0556 0.9985 466.5366 440.7461)">
			<stop  offset="0" style="stop-color:#B57F39"/>
			<stop  offset="1" style="stop-color:#B3A480"/>
		</linearGradient>
		<path style="fill-rule:evenodd;clip-rule:evenodd;fill:url(#SVGID_7_);" d="M0,0c9.467-1.067,18.5-1.483,27.1-1.25
			c-2.3-0.2-5.15-0.3-8.55-0.3C11.717-1.55,5.533-1.033,0,0z"/>
	</g>
</symbol>
<symbol  id="flash0.ai_x5F_1_x2F_Layer_1_x2F__x3C_Path_x3E__x5F_0" viewBox="-0.01 -16.9 1.327 16.9">
	<g id="Layer_1_13_">
		<path style="fill-rule:evenodd;clip-rule:evenodd;fill:#4EAA95;" d="M0.35,0c0.167-3.7,0.367-6.167,0.6-7.4
			c0.433-2.5,0.483-5.667,0.15-9.5c-0.2,1.167-0.25,2.566-0.15,4.2c0.1,1.5,0.066,2.6-0.1,3.3C0.217-6.733-0.067-4.367,0-2.3
			C0.067-1.267,0.183-0.5,0.35,0z"/>
	</g>
</symbol>
<symbol  id="flash0.ai_x5F_1_x2F_Layer_1_x2F__x3C_Path_x3E__x5F_1" viewBox="-0.03 -13.103 15.986 13.078">
	<g id="Layer_1_5_">
		<g>
			
				<linearGradient id="SVGID_8_" gradientUnits="userSpaceOnUse" x1="-357.9014" y1="-380.3994" x2="-342.4082" y2="-380.3994" gradientTransform="matrix(0.999 -0.0449 0.0449 0.999 374.7241 357.8301)">
				<stop  offset="0" style="stop-color:#E2EBE9"/>
				<stop  offset="0.0039" style="stop-color:#DDE5E3"/>
				<stop  offset="0.0353" style="stop-color:#B7B8B6"/>
				<stop  offset="0.0706" style="stop-color:#958F8D"/>
				<stop  offset="0.1059" style="stop-color:#776C69"/>
				<stop  offset="0.149" style="stop-color:#5E4E4B"/>
				<stop  offset="0.1922" style="stop-color:#493633"/>
				<stop  offset="0.2431" style="stop-color:#3A2320"/>
				<stop  offset="0.302" style="stop-color:#2E1613"/>
				<stop  offset="0.3765" style="stop-color:#280E0C"/>
				<stop  offset="0.5255" style="stop-color:#260C0A"/>
				<stop  offset="0.6118" style="stop-color:#290F0C"/>
				<stop  offset="0.6784" style="stop-color:#321916"/>
				<stop  offset="0.6784" style="stop-color:#321916;stop-opacity:0"/>
				<stop  offset="1" style="stop-color:#000000;stop-opacity:0"/>
			</linearGradient>
			<path style="fill-rule:evenodd;clip-rule:evenodd;fill:url(#SVGID_8_);" d="M12.6-0.15c1.133,0.167,2.183,0.167,3.15,0
				c0.1-1.033,0.167-1.617,0.2-1.75c0-0.567-0.1-1.15-0.3-1.75c-0.566-1.733-0.583-3.934-0.05-6.6c0.267-1.133,0.383-1.833,0.35-2.1
				c-0.034-0.533-0.35-0.783-0.95-0.75c-2.033,0.267-3.533,0.4-4.5,0.4c-0.733,0-1.75-0.066-3.05-0.2
				c-1.2-0.167-2.217-0.217-3.05-0.15c-1.333,0.1-2.533,0.15-3.6,0.15c-0.367,1.167-0.617,2.566-0.75,4.2
				c-0.133,1.7-0.1,3.167,0.1,4.4L0.6-2.05C0.833-1.183,1.117-0.6,1.45-0.3C2.15-0.133,3.2-0.05,4.6-0.05
				c1.867-0.067,3.7-0.167,5.5-0.3C10.467-0.383,11.3-0.317,12.6-0.15z"/>
			
				<linearGradient id="SVGID_9_" gradientUnits="userSpaceOnUse" x1="-357.9014" y1="-380.3994" x2="-342.4082" y2="-380.3994" gradientTransform="matrix(0.999 -0.0449 0.0449 0.999 374.7241 357.8301)">
				<stop  offset="0" style="stop-color:#000000;stop-opacity:0"/>
				<stop  offset="0.6784" style="stop-color:#321916;stop-opacity:0"/>
				<stop  offset="0.6784" style="stop-color:#321916"/>
				<stop  offset="0.7373" style="stop-color:#412A27"/>
				<stop  offset="0.7922" style="stop-color:#56413E"/>
				<stop  offset="0.8431" style="stop-color:#725F5C"/>
				<stop  offset="0.8941" style="stop-color:#938481"/>
				<stop  offset="0.9451" style="stop-color:#BBB0AD"/>
				<stop  offset="0.9922" style="stop-color:#E8E2DE"/>
				<stop  offset="1" style="stop-color:#F0EBE7"/>
			</linearGradient>
			<path style="fill-rule:evenodd;clip-rule:evenodd;fill:url(#SVGID_9_);" d="M12.6-0.15c1.133,0.167,2.183,0.167,3.15,0
				c0.1-1.033,0.167-1.617,0.2-1.75c0-0.567-0.1-1.15-0.3-1.75c-0.566-1.733-0.583-3.934-0.05-6.6c0.267-1.133,0.383-1.833,0.35-2.1
				c-0.034-0.533-0.35-0.783-0.95-0.75c-2.033,0.267-3.533,0.4-4.5,0.4c-0.733,0-1.75-0.066-3.05-0.2
				c-1.2-0.167-2.217-0.217-3.05-0.15c-1.333,0.1-2.533,0.15-3.6,0.15c-0.367,1.167-0.617,2.566-0.75,4.2
				c-0.133,1.7-0.1,3.167,0.1,4.4L0.6-2.05C0.833-1.183,1.117-0.6,1.45-0.3C2.15-0.133,3.2-0.05,4.6-0.05
				c1.867-0.067,3.7-0.167,5.5-0.3C10.467-0.383,11.3-0.317,12.6-0.15z"/>
		</g>
	</g>
</symbol>
<symbol  id="flash0.ai_x5F_1_x2F_Layer_1_x2F__x3C_Path_x3E__x5F_11" viewBox="-0.028 -1.418 4.279 1.443">
	<g id="Layer_1_21_">
		<path style="fill-rule:evenodd;clip-rule:evenodd;fill:#4EAA95;" d="M4.1-0.25c0.433-0.367-0.067-0.7-1.5-1
			C1.3-1.517,0.467-1.467,0.1-1.1c-0.333,0.333-0.017,0.617,0.95,0.85C2.683,0.117,3.7,0.117,4.1-0.25z"/>
	</g>
</symbol>
<symbol  id="flash0.ai_x5F_1_x2F_Layer_1_x2F__x3C_Path_x3E__x5F_13" viewBox="-0.223 -1.746 7.887 1.768">
	<g id="Layer_1_20_">
		<path style="fill-rule:evenodd;clip-rule:evenodd;fill:#4EAA95;" d="M6.6-0.55c1.767-0.534,1.333-0.9-1.3-1.1
			C2.6-1.817,0.9-1.767,0.2-1.5c-0.8,0.3-0.467,0.7,1,1.2C2.7,0.2,4.5,0.117,6.6-0.55z"/>
	</g>
</symbol>
<symbol  id="flash0.ai_x5F_1_x2F_Layer_1_x2F__x3C_Path_x3E__x5F_1_x5F_0" viewBox="0.015 -17.8 2.135 17.8">
	<g id="Layer_1_11_">
		<path style="fill-rule:evenodd;clip-rule:evenodd;fill:#4EAA95;" d="M2.15,0c-0.167-1.867-0.667-4.817-1.5-8.85
			C0.083-12.483,0.2-15.467,1-17.8C-0.067-15-0.267-11.65,0.4-7.75C0.733-5.65,1.317-3.067,2.15,0z"/>
	</g>
</symbol>
<symbol  id="flash0.ai_x5F_1_x2F_Layer_1_x2F__x3C_Path_x3E__x5F_1_x5F_1" viewBox="0 -17.15 0.923 17.15">
	<g id="Layer_1_16_">
		<path style="fill-rule:evenodd;clip-rule:evenodd;fill:#4EAA95;" d="M0.05,0c0.1-1.4,0.367-3.45,0.8-6.15
			c0.133-1.4,0.083-3.233-0.15-5.5c-0.3-3.2-0.467-5.033-0.5-5.5c-0.067,1.467-0.1,2.533-0.1,3.2c0,0.367,0.066,1.017,0.2,1.95
			c0.133,0.9,0.2,1.55,0.2,1.95c0.033,0.833-0.033,1.867-0.2,3.1C0.1-5.55,0-4.5,0-3.8C0.067-1.967,0.083-0.7,0.05,0z"/>
	</g>
</symbol>
<symbol  id="flash0.ai_x5F_1_x2F_Layer_1_x2F__x3C_Path_x3E__x5F_2" viewBox="0.005 -13.213 19.407 13.213">
	<g id="Layer_1_4_">
		<g>
			
				<linearGradient id="SVGID_10_" gradientUnits="userSpaceOnUse" x1="-359.1396" y1="-381.8896" x2="-340.3419" y2="-381.8896" gradientTransform="matrix(0.999 -0.045 0.045 0.999 376.1353 359.1172)">
				<stop  offset="0" style="stop-color:#E2EBE9"/>
				<stop  offset="0.0039" style="stop-color:#DDE5E3"/>
				<stop  offset="0.0353" style="stop-color:#B7B8B6"/>
				<stop  offset="0.0706" style="stop-color:#958F8D"/>
				<stop  offset="0.1059" style="stop-color:#776C69"/>
				<stop  offset="0.149" style="stop-color:#5E4E4B"/>
				<stop  offset="0.1922" style="stop-color:#493633"/>
				<stop  offset="0.2431" style="stop-color:#3A2320"/>
				<stop  offset="0.302" style="stop-color:#2E1613"/>
				<stop  offset="0.3765" style="stop-color:#280E0C"/>
				<stop  offset="0.5255" style="stop-color:#260C0A"/>
				<stop  offset="0.6118" style="stop-color:#290F0C"/>
				<stop  offset="0.6784" style="stop-color:#321916"/>
				<stop  offset="0.6784" style="stop-color:#321916;stop-opacity:0"/>
				<stop  offset="1" style="stop-color:#000000;stop-opacity:0"/>
			</linearGradient>
			<path style="fill-rule:evenodd;clip-rule:evenodd;fill:url(#SVGID_10_);" d="M12.4-0.05c0.333-0.034,1.25-0.05,2.75-0.05
				c1.133,0,2.283-0.083,3.45-0.25c0.167-0.933-0.033-2.233-0.6-3.9c-0.367-1-0.467-1.933-0.3-2.8c0.133-0.534,0.417-1.45,0.85-2.75
				c0.167-0.6,0.434-1.367,0.8-2.3c0.2-0.667-0.083-1.033-0.85-1.1c-0.7-0.033-1.6,0-2.7,0.1c-1.433,0.133-2.333,0.2-2.7,0.2
				c-0.867,0.033-2.017,0-3.45-0.1c-1.3-0.067-2.467-0.067-3.5,0c-0.5,0.033-2.25,0.017-5.25-0.05
				c-0.433,1.167-0.717,2.667-0.85,4.5c-0.1,1.833-0.033,3.383,0.2,4.65c0.167,1,0.333,1.767,0.5,2.3
				c0.2,0.667,0.467,1.117,0.8,1.35C2.683-0.083,4.133-0.033,5.9-0.1c0.6,0,1.684,0.017,3.25,0.05
				C10.483,0.017,11.567,0.017,12.4-0.05z"/>
			
				<linearGradient id="SVGID_11_" gradientUnits="userSpaceOnUse" x1="-359.1396" y1="-381.8896" x2="-340.3419" y2="-381.8896" gradientTransform="matrix(0.999 -0.045 0.045 0.999 376.1353 359.1172)">
				<stop  offset="0" style="stop-color:#000000;stop-opacity:0"/>
				<stop  offset="0.6784" style="stop-color:#321916;stop-opacity:0"/>
				<stop  offset="0.6784" style="stop-color:#321916"/>
				<stop  offset="0.7373" style="stop-color:#412A27"/>
				<stop  offset="0.7922" style="stop-color:#56413E"/>
				<stop  offset="0.8431" style="stop-color:#725F5C"/>
				<stop  offset="0.8941" style="stop-color:#938481"/>
				<stop  offset="0.9451" style="stop-color:#BBB0AD"/>
				<stop  offset="0.9922" style="stop-color:#E8E2DE"/>
				<stop  offset="1" style="stop-color:#F0EBE7"/>
			</linearGradient>
			<path style="fill-rule:evenodd;clip-rule:evenodd;fill:url(#SVGID_11_);" d="M12.4-0.05c0.333-0.034,1.25-0.05,2.75-0.05
				c1.133,0,2.283-0.083,3.45-0.25c0.167-0.933-0.033-2.233-0.6-3.9c-0.367-1-0.467-1.933-0.3-2.8c0.133-0.534,0.417-1.45,0.85-2.75
				c0.167-0.6,0.434-1.367,0.8-2.3c0.2-0.667-0.083-1.033-0.85-1.1c-0.7-0.033-1.6,0-2.7,0.1c-1.433,0.133-2.333,0.2-2.7,0.2
				c-0.867,0.033-2.017,0-3.45-0.1c-1.3-0.067-2.467-0.067-3.5,0c-0.5,0.033-2.25,0.017-5.25-0.05
				c-0.433,1.167-0.717,2.667-0.85,4.5c-0.1,1.833-0.033,3.383,0.2,4.65c0.167,1,0.333,1.767,0.5,2.3
				c0.2,0.667,0.467,1.117,0.8,1.35C2.683-0.083,4.133-0.033,5.9-0.1c0.6,0,1.684,0.017,3.25,0.05
				C10.483,0.017,11.567,0.017,12.4-0.05z"/>
		</g>
	</g>
</symbol>
<symbol  id="flash0.ai_x5F_1_x2F_Layer_1_x2F__x3C_Path_x3E__x5F_22" viewBox="-0.027 -5.155 1.58 5.228">
	<g id="Layer_1_19_">
		<path style="fill-rule:evenodd;clip-rule:evenodd;fill:#4EAA95;" d="M1.4-0.85C1.633-1.95,1.6-3.1,1.3-4.3
			C1-5.533,0.65-5.433,0.25-4s-0.367,2.6,0.1,3.5C0.817,0.367,1.167,0.25,1.4-0.85z"/>
	</g>
</symbol>
<symbol  id="flash0.ai_x5F_1_x2F_Layer_1_x2F__x3C_Path_x3E__x5F_23" viewBox="-0.048 -8.264 2.037 8.327">
	<g id="Layer_1_18_">
		<path style="fill-rule:evenodd;clip-rule:evenodd;fill:#4EAA95;" d="M1.7-1.3C2.067-3.033,2.083-4.933,1.75-7
			c-0.3-1.867-0.733-1.667-1.3,0.6C-0.117-4.1-0.2-2.383,0.2-1.25C0.8,0.517,1.3,0.5,1.7-1.3z"/>
	</g>
</symbol>
<symbol  id="flash0.ai_x5F_1_x2F_Layer_1_x2F__x3C_Path_x3E__x5F_2_x5F_0" viewBox="0.004 -7.3 0.552 7.3">
	<g id="Layer_1_10_">
		<path style="fill-rule:evenodd;clip-rule:evenodd;fill:#4EAA95;" d="M0.1,0c0.3-1.833,0.45-3.083,0.45-3.75
			c0.034-0.6-0.066-1.783-0.3-3.55C-0.017-5.433-0.067-3,0.1,0z"/>
	</g>
</symbol>
<symbol  id="flash0.ai_x5F_1_x2F_Layer_1_x2F__x3C_Path_x3E__x5F_3" viewBox="0.05 -13.213 17.15 13.238">
	<g id="Layer_1_3_">
		<g>
			
				<linearGradient id="SVGID_12_" gradientUnits="userSpaceOnUse" x1="-362.6055" y1="-385.793" x2="-346.0349" y2="-385.793" gradientTransform="matrix(0.999 -0.0455 0.0455 0.999 380.0039 362.6445)">
				<stop  offset="0" style="stop-color:#E2EBE9"/>
				<stop  offset="0.0039" style="stop-color:#DDE5E3"/>
				<stop  offset="0.0353" style="stop-color:#B7B8B6"/>
				<stop  offset="0.0706" style="stop-color:#958F8D"/>
				<stop  offset="0.1059" style="stop-color:#776C69"/>
				<stop  offset="0.149" style="stop-color:#5E4E4B"/>
				<stop  offset="0.1922" style="stop-color:#493633"/>
				<stop  offset="0.2431" style="stop-color:#3A2320"/>
				<stop  offset="0.302" style="stop-color:#2E1613"/>
				<stop  offset="0.3765" style="stop-color:#280E0C"/>
				<stop  offset="0.5255" style="stop-color:#260C0A"/>
				<stop  offset="0.6118" style="stop-color:#290F0C"/>
				<stop  offset="0.6784" style="stop-color:#321916"/>
				<stop  offset="0.6784" style="stop-color:#321916;stop-opacity:0"/>
				<stop  offset="1" style="stop-color:#000000;stop-opacity:0"/>
			</linearGradient>
			<path style="fill-rule:evenodd;clip-rule:evenodd;fill:url(#SVGID_12_);" d="M10.9-0.3c2.7-0.167,4.75-0.35,6.15-0.55
				c0.067-0.733,0.1-1.183,0.1-1.35C17.117-2.467,17-2.95,16.8-3.65c-0.6-1.867-0.6-4.067,0-6.6c0.267-1.2,0.4-1.9,0.4-2.1
				c0-0.5-0.35-0.783-1.05-0.85c-0.367-0.033-1.933,0-4.7,0.1C7.317-13.033,4.833-12.967,4-12.9c-1.733,0.1-2.883,0.217-3.45,0.35
				c-0.333,1.066-0.5,2.433-0.5,4.1c0,1.434,0.117,2.85,0.35,4.25c0.167,1.1,0.317,1.85,0.45,2.25C1.083-1.117,1.367-0.533,1.7-0.2
				C2.633,0,3.75,0.067,5.05,0C7.05-0.067,9-0.167,10.9-0.3z"/>
			
				<linearGradient id="SVGID_13_" gradientUnits="userSpaceOnUse" x1="-362.6055" y1="-385.793" x2="-346.0349" y2="-385.793" gradientTransform="matrix(0.999 -0.0455 0.0455 0.999 380.0039 362.6445)">
				<stop  offset="0" style="stop-color:#000000;stop-opacity:0"/>
				<stop  offset="0.6784" style="stop-color:#321916;stop-opacity:0"/>
				<stop  offset="0.6784" style="stop-color:#321916"/>
				<stop  offset="0.7373" style="stop-color:#412A27"/>
				<stop  offset="0.7922" style="stop-color:#56413E"/>
				<stop  offset="0.8431" style="stop-color:#725F5C"/>
				<stop  offset="0.8941" style="stop-color:#938481"/>
				<stop  offset="0.9451" style="stop-color:#BBB0AD"/>
				<stop  offset="0.9922" style="stop-color:#E8E2DE"/>
				<stop  offset="1" style="stop-color:#F0EBE7"/>
			</linearGradient>
			<path style="fill-rule:evenodd;clip-rule:evenodd;fill:url(#SVGID_13_);" d="M10.9-0.3c2.7-0.167,4.75-0.35,6.15-0.55
				c0.067-0.733,0.1-1.183,0.1-1.35C17.117-2.467,17-2.95,16.8-3.65c-0.6-1.867-0.6-4.067,0-6.6c0.267-1.2,0.4-1.9,0.4-2.1
				c0-0.5-0.35-0.783-1.05-0.85c-0.367-0.033-1.933,0-4.7,0.1C7.317-13.033,4.833-12.967,4-12.9c-1.733,0.1-2.883,0.217-3.45,0.35
				c-0.333,1.066-0.5,2.433-0.5,4.1c0,1.434,0.117,2.85,0.35,4.25c0.167,1.1,0.317,1.85,0.45,2.25C1.083-1.117,1.367-0.533,1.7-0.2
				C2.633,0,3.75,0.067,5.05,0C7.05-0.067,9-0.167,10.9-0.3z"/>
		</g>
	</g>
</symbol>
<symbol  id="flash0.ai_x5F_1_x2F_Layer_1_x2F__x3C_Path_x3E__x5F_3_x5F_0" viewBox="0.037 -8.5 0.613 8.5">
	<g id="Layer_1_9_">
		
			<linearGradient id="SVGID_14_" gradientUnits="userSpaceOnUse" x1="282.6426" y1="271.1514" x2="290.6473" y2="271.1514" gradientTransform="matrix(0.9994 0.0344 -0.0344 0.9994 -275.7598 -285.0537)">
			<stop  offset="0" style="stop-color:#260C0A"/>
			<stop  offset="0.0157" style="stop-color:#2C120E"/>
			<stop  offset="0.1804" style="stop-color:#674B3F"/>
			<stop  offset="0.3216" style="stop-color:#917462"/>
			<stop  offset="0.4314" style="stop-color:#AB8E78"/>
			<stop  offset="0.498" style="stop-color:#B59780"/>
			<stop  offset="0.5647" style="stop-color:#AD9079"/>
			<stop  offset="0.6667" style="stop-color:#987C68"/>
			<stop  offset="0.7922" style="stop-color:#745C4C"/>
			<stop  offset="0.9333" style="stop-color:#433024"/>
			<stop  offset="1" style="stop-color:#2A1910"/>
		</linearGradient>
		<path style="fill-rule:evenodd;clip-rule:evenodd;fill:url(#SVGID_14_);" d="M0.15,0c0.133-0.5,0.233-1.067,0.3-1.7
			C0.483-2.067,0.533-2.633,0.6-3.4c0.033-0.267,0-0.7-0.1-1.3C0.367-5.267,0.317-5.683,0.35-5.95c0.033-0.233,0.117-0.566,0.25-1
			c0.066-0.466,0.066-0.983,0-1.55C0.167-7.4-0.017-5.983,0.05-4.25C0.183-2.35,0.217-0.933,0.15,0z"/>
	</g>
</symbol>
<symbol  id="flash0.ai_x5F_1_x2F_Layer_1_x2F__x3C_Path_x3E__x5F_3_x5F_1" viewBox="-0.003 -48.3 3.853 48.301">
	<g id="Layer_1_15_">
		<path style="fill-rule:evenodd;clip-rule:evenodd;fill:#D4DDB4;" d="M3.5-10.55c0.233-1.2,0.333-2.667,0.3-4.4L3.85-48.3H0.7
			C0.2-40.733-0.033-36.6,0-35.9c0.033,0.633,0.35,2.617,0.95,5.95c0.4,2.4,0.5,4.383,0.3,5.95c-0.333,2.267-0.55,3.983-0.65,5.15
			c-0.167,1.934-0.1,3.65,0.2,5.15c0.3,1.767,0.434,3,0.4,3.7C1.167-9.6,0.967-8.533,0.6-6.8C0.267-5.433,0.2-4.35,0.4-3.55
			c0.2,0.8,0.35,1.383,0.45,1.75C1.017-1.133,1.067-0.533,1,0c1.167,0.033,1.9-0.55,2.2-1.75c0.066-0.333,0.1-1.333,0.1-3
			c0-0.667-0.017-1.633-0.05-2.9C3.283-8.75,3.367-9.717,3.5-10.55z"/>
	</g>
</symbol>
<symbol  id="flash0.ai_x5F_1_x2F_Layer_1_x2F__x3C_Path_x3E__x5F_4" viewBox="0 -13.863 30.371 13.842">
	<g id="Layer_1_2_">
		
			<linearGradient id="SVGID_15_" gradientUnits="userSpaceOnUse" x1="-356.0801" y1="-378.7295" x2="-331.6506" y2="-378.7295" gradientTransform="matrix(0.999 -0.0447 0.0447 0.999 372.9385 356.1973)">
			<stop  offset="0" style="stop-color:#E2EBE9"/>
			<stop  offset="0.0039" style="stop-color:#DDE5E3"/>
			<stop  offset="0.0353" style="stop-color:#B7B8B6"/>
			<stop  offset="0.0706" style="stop-color:#958F8D"/>
			<stop  offset="0.1059" style="stop-color:#776C69"/>
			<stop  offset="0.149" style="stop-color:#5E4E4B"/>
			<stop  offset="0.1922" style="stop-color:#493633"/>
			<stop  offset="0.2431" style="stop-color:#3A2320"/>
			<stop  offset="0.302" style="stop-color:#2E1613"/>
			<stop  offset="0.3765" style="stop-color:#280E0C"/>
			<stop  offset="0.5255" style="stop-color:#260C0A"/>
			<stop  offset="0.5882" style="stop-color:#39211E"/>
			<stop  offset="0.7098" style="stop-color:#6A5754"/>
			<stop  offset="0.7098" style="stop-color:#6A5754;stop-opacity:0"/>
			<stop  offset="1" style="stop-color:#000000;stop-opacity:0"/>
		</linearGradient>
		<path style="fill-rule:evenodd;clip-rule:evenodd;fill:url(#SVGID_15_);" d="M22.65-11c1.133-0.433,3.667-1.317,7.6-2.65
			c0.567-0.267-0.85-0.283-4.25-0.05c-4.1,0.267-6.333,0.383-6.7,0.35c-0.733-0.066-1.667-0.066-2.8,0
			c-1.233,0.067-2.167,0.117-2.8,0.15c-3.967,0.067-6.95,0.167-8.95,0.3c-2.067,0.1-3.433,0.217-4.1,0.35
			C0.217-11.45,0-10.083,0-8.45C0-7.017,0.133-5.6,0.4-4.2c0.167,1,0.333,1.75,0.5,2.25C1.2-1.083,1.55-0.5,1.95-0.2
			c0.933,0.167,2.267,0.217,4,0.15c1.533-0.034,3.867-0.15,7-0.35c1.966-0.1,3.9-0.283,5.8-0.55l-0.05-2.9
			c-0.034-1.5,0.167-2.783,0.6-3.85C19.9-9.233,21.017-10.333,22.65-11z"/>
		
			<linearGradient id="SVGID_16_" gradientUnits="userSpaceOnUse" x1="-356.0801" y1="-378.7295" x2="-331.6506" y2="-378.7295" gradientTransform="matrix(0.999 -0.0447 0.0447 0.999 372.9385 356.1973)">
			<stop  offset="0" style="stop-color:#000000;stop-opacity:0"/>
			<stop  offset="0.7098" style="stop-color:#6A5754;stop-opacity:0"/>
			<stop  offset="0.7098" style="stop-color:#6A5754"/>
			<stop  offset="0.8824" style="stop-color:#B8ADAA"/>
			<stop  offset="1" style="stop-color:#F0EBE7"/>
		</linearGradient>
		<path style="fill-rule:evenodd;clip-rule:evenodd;fill:url(#SVGID_16_);" d="M22.65-11c1.133-0.433,3.667-1.317,7.6-2.65
			c0.567-0.267-0.85-0.283-4.25-0.05c-4.1,0.267-6.333,0.383-6.7,0.35c-0.733-0.066-1.667-0.066-2.8,0
			c-1.233,0.067-2.167,0.117-2.8,0.15c-3.967,0.067-6.95,0.167-8.95,0.3c-2.067,0.1-3.433,0.217-4.1,0.35
			C0.217-11.45,0-10.083,0-8.45C0-7.017,0.133-5.6,0.4-4.2c0.167,1,0.333,1.75,0.5,2.25C1.2-1.083,1.55-0.5,1.95-0.2
			c0.933,0.167,2.267,0.217,4,0.15c1.533-0.034,3.867-0.15,7-0.35c1.966-0.1,3.9-0.283,5.8-0.55l-0.05-2.9
			c-0.034-1.5,0.167-2.783,0.6-3.85C19.9-9.233,21.017-10.333,22.65-11z"/>
	</g>
</symbol>
<symbol  id="flash0.ai_x5F_1_x2F_Layer_1_x2F__x3C_Path_x3E__x5F_4_x5F_0" viewBox="0 -49.5 10.95 49.539">
	<g id="Layer_1_14_">
		<linearGradient id="SVGID_17_" gradientUnits="userSpaceOnUse" x1="0.0752" y1="-24.7192" x2="7.3252" y2="-24.7442">
			<stop  offset="0" style="stop-color:#260C0A"/>
			<stop  offset="0.102" style="stop-color:#2B120F"/>
			<stop  offset="0.2314" style="stop-color:#39211F"/>
			<stop  offset="0.3765" style="stop-color:#503B39"/>
			<stop  offset="0.5294" style="stop-color:#71605D"/>
			<stop  offset="0.6941" style="stop-color:#9A8E8C"/>
			<stop  offset="0.8667" style="stop-color:#CCC6C5"/>
			<stop  offset="1" style="stop-color:#F9F8F7"/>
		</linearGradient>
		<path style="fill-rule:evenodd;clip-rule:evenodd;fill:url(#SVGID_17_);" d="M6.25-11.45c-0.033-0.6,0-1.633,0.1-3.1
			c0.066-1.3,0.066-2.333,0-3.1C6.283-19.15,6.167-20.233,6-20.9c-0.033-0.167-0.183-0.65-0.45-1.45
			c-0.233-0.566-0.333-1.05-0.3-1.45c0.033-0.667,0.117-1.684,0.25-3.05c0-2.667-0.2-5.316-0.6-7.95
			c-0.133-0.967-0.183-1.833-0.15-2.6c0.033-0.233,0.133-1.1,0.3-2.6c0.067-0.6,0.15-1.35,0.25-2.25
			c0.067-0.667,0.184-1.217,0.35-1.65c0.633-1.667,0.9-3.533,0.8-5.6H0.5l-0.1,7.2c-0.133,1.4-0.05,3.267,0.25,5.6
			c0.2,1.767,0.133,3.784-0.2,6.05c-0.267,2.066-0.317,4.217-0.15,6.45c0.267,2.833,0.434,4.967,0.5,6.4
			c0.267,2.367,0.4,4.267,0.4,5.7c0,1.867-0.184,3.783-0.55,5.75C0.383-5.35,0.2-4.567,0.1-4C-0.1-3,0-2.233,0.4-1.7
			c0.567,0.733,2.067,1.284,4.5,1.65C5.767,0.083,6.783,0.067,7.95-0.1c0.667-0.1,1.667-0.283,3-0.55
			C9.117-0.983,7.933-1.333,7.4-1.7C6.933-1.967,6.633-2.383,6.5-2.95c0-0.1-0.05-0.617-0.15-1.55c-0.1-0.833-0.133-2-0.1-3.5
			C6.283-9.633,6.283-10.783,6.25-11.45z"/>
	</g>
</symbol>
<symbol  id="flash0.ai_x5F_1_x2F_Layer_1_x2F__x3C_Path_x3E__x5F_5" viewBox="0.037 -48.8 4.213 48.8">
	<g id="Layer_1_8_">
		<path style="fill-rule:evenodd;clip-rule:evenodd;fill:#D4DDB4;" d="M0.15,0C1.417-0.233,2.333-0.683,2.9-1.35
			c0.4-0.467,0.717-1.167,0.95-2.1C4.017-4.217,4.067-5.3,4-6.7C3.867-8.567,3.8-9.667,3.8-10c0.133-2.967,0.267-7.433,0.4-13.4
			l0.05-1.4l-0.8-24h-2.7l0.1,2.35c0,0.233-0.083,0.85-0.25,1.85l-0.4,2.9c-0.233,1.434-0.217,3.417,0.05,5.95
			c0.267,2.933,0.55,5.133,0.85,6.6c0.267,1.433,0.383,2.483,0.35,3.15c0.233,1.2,0.283,2.1,0.15,2.7
			c-0.467,2.466-0.733,4.333-0.8,5.6c-0.033,0.733-0.033,1.617,0,2.65c0.1,1.767,0.15,2.667,0.15,2.7c0.033,0.367,0,0.867-0.1,1.5
			c-0.067,0.733-0.1,1.25-0.1,1.55c0,0.5,0.15,1.533,0.45,3.1c0.3,1.333,0.35,2.367,0.15,3.1c-0.1,0.533-0.2,0.967-0.3,1.3
			C0.85-1.2,0.55-0.6,0.15,0z"/>
	</g>
</symbol>
<symbol  id="flash0.ai_x5F_1_x2F_Layer_1_x2F__x3C_Path_x3E__x5F_6" viewBox="-0.015 -50.35 11.215 50.304">
	<g id="Layer_1_7_">
		<linearGradient id="SVGID_18_" gradientUnits="userSpaceOnUse" x1="-0.0127" y1="-25.1885" x2="9.4123" y2="-25.2135">
			<stop  offset="0" style="stop-color:#260C0A"/>
			<stop  offset="0.102" style="stop-color:#2B120F"/>
			<stop  offset="0.2314" style="stop-color:#39211F"/>
			<stop  offset="0.3765" style="stop-color:#503B39"/>
			<stop  offset="0.5294" style="stop-color:#71605D"/>
			<stop  offset="0.6941" style="stop-color:#9A8E8C"/>
			<stop  offset="0.8667" style="stop-color:#CCC6C5"/>
			<stop  offset="1" style="stop-color:#F9F8F7"/>
		</linearGradient>
		<path style="fill-rule:evenodd;clip-rule:evenodd;fill:url(#SVGID_18_);" d="M7.75-11.45c0.267-2.367,0.4-5.45,0.4-9.25
			c0-0.733,0.017-1.867,0.05-3.4c0.033-1.333-0.017-2.45-0.15-3.35c-0.167-1.367-0.267-3.383-0.3-6.05c0-3.5-0.017-5.5-0.05-6
			c-0.067-2.467-0.05-4.717,0.05-6.75c0.067-1.067,0.15-2.433,0.25-4.1H1.7l0.1,3c0,0.533,0.117,1.733,0.35,3.6
			c0.2,1.6,0.267,2.9,0.2,3.9C2.317-39.483,2.2-38.583,2-37.15c-0.2,1.2-0.283,2.117-0.25,2.75c0.467,3,0.733,4.967,0.8,5.9
			c0.034,0.7-0.066,1.7-0.3,3C2.05-24.267,2-23.033,2.1-21.8c0.533,5.2-0.017,10.15-1.65,14.85c-0.667,1.867-0.617,3.434,0.15,4.7
			c0.8,1.333,2.316,2.067,4.55,2.2c1,0.033,3.017-0.133,6.05-0.5c-1.333,0-2.267-0.317-2.8-0.95C7.633-2.367,7.183-3.283,7.05-4.25
			c-0.167-0.933-0.133-2.133,0.1-3.6C7.283-8.65,7.483-9.85,7.75-11.45z"/>
	</g>
</symbol>
<symbol  id="flash0.ai_x5F_1_x2F_Layer_1_x2F__x3C_Path_x3E__x5F_6_x5F_0" viewBox="-0.048 -6.52 2.651 6.676">
	<g id="Layer_1_22_">
		<path style="fill-rule:evenodd;clip-rule:evenodd;fill:#4EAA95;" d="M2.25-1.55c0.567-1.934,0.45-3.4-0.35-4.4
			C1.133-6.95,0.567-6.633,0.2-5c-0.4,1.633-0.317,3.05,0.25,4.25C1.083,0.683,1.683,0.417,2.25-1.55z"/>
	</g>
</symbol>
<symbol  id="flash0.ai_x5F_1_x2F_Layer_1_x2F__x3C_Path_x3E__x5F_7" viewBox="-0.027 -9.516 1.333 9.516">
	<g id="Layer_1_17_">
		<path style="fill-rule:evenodd;clip-rule:evenodd;fill:#4EAA95;" d="M1.2,0C0.633-0.933,0.483-2.25,0.75-3.95
			C1.283-7.283,1.433-9.133,1.2-9.5C1.133-9.6,1-9.217,0.8-8.35C0.567-7.217,0.383-6.4,0.25-5.9c-0.4,1.8-0.367,3.333,0.1,4.6
			C0.583-0.7,0.867-0.267,1.2,0z"/>
	</g>
</symbol>
<g id="Layer_1">
</g>
<g id="Layer_1_1_">
	<g>
		
			<linearGradient id="SVGID_19_" gradientUnits="userSpaceOnUse" x1="-37.8965" y1="13.418" x2="-33.2459" y2="13.418" gradientTransform="matrix(-0.0161 -0.9999 0.9999 -0.0161 -1.618918e-004 2.010595e-004)">
			<stop  offset="0.0118" style="stop-color:#86A5D9"/>
			<stop  offset="1" style="stop-color:#022B3E"/>
		</linearGradient>
		<path style="fill-rule:evenodd;clip-rule:evenodd;fill:url(#SVGID_19_);" d="M14.6,34.45c-0.9-0.033-1.517-0.033-1.85,0
			c-1.467,0.233-2.583,0.399-3.35,0.5C8,35.116,6.867,35.083,6,34.85C4.867,34.517,4.2,34.2,4,33.9c-0.2-0.267-0.35-0.4-0.45-0.4
			c-0.133,0-0.267,0.15-0.4,0.45c-0.233-0.4-0.433-0.684-0.6-0.851c-0.433-0.267-0.733-0.5-0.9-0.699L2.8,32.05
			c0.733-0.166,2.117-0.1,4.15,0.2l6.35,0.9c1.7,0.166,2.8,0.199,3.3,0.1c1.1-0.2,2.167-0.184,3.2,0.05
			c0.434,0.101,1.05,0.117,1.85,0.05c0.9-0.1,1.5-0.133,1.8-0.1c0.333,0.033,0.816,0.083,1.45,0.15c0.3,0.033,0.75,0.033,1.35,0
			L24.9,33.6c-0.833,0.167-1.6,0.45-2.3,0.851c-0.167,0.1-0.317,0.267-0.45,0.5c-0.145,0.23-0.203,0.423-0.175,0.575
			c-0.05-0.2-0.075-0.509-0.075-0.926c-0.4,0.301-0.617,0.684-0.65,1.15l-0.4,1.65c-0.033-0.733-0.15-1.25-0.35-1.551
			c-0.2-0.566-0.4-0.949-0.6-1.149c-0.233-0.167-0.467-0.134-0.7,0.1c-0.133,0.134-0.25,0.316-0.35,0.55
			c-0.133-0.1-0.25-0.3-0.35-0.6s-0.233-0.483-0.4-0.55c-0.2-0.101-0.483-0.117-0.85-0.05c-0.4,0.133-0.683,0.216-0.85,0.25
			C15.967,34.467,15.367,34.483,14.6,34.45z"/>
		
			<linearGradient id="SVGID_20_" gradientUnits="userSpaceOnUse" x1="-39.9146" y1="51.7402" x2="-35.2639" y2="51.7402" gradientTransform="matrix(-0.0161 -0.9999 0.9999 -0.0161 -1.618918e-004 2.010595e-004)">
			<stop  offset="0.0118" style="stop-color:#41928F"/>
			<stop  offset="1" style="stop-color:#022B3E"/>
		</linearGradient>
		<path style="fill-rule:evenodd;clip-rule:evenodd;fill:url(#SVGID_20_);" d="M55.6,35.6c-0.433,0.134-0.733,0.2-0.899,0.2
			c-0.8-0.033-1.283,0.084-1.45,0.351c-0.033,0.333-0.116,0.533-0.25,0.6c-0.1-0.1-0.233-0.333-0.4-0.7
			c-0.133-0.366-0.399-0.55-0.8-0.55c-0.333,0-0.684,0.1-1.05,0.3c-0.467,0.267-1.167,0.367-2.1,0.3
			c-0.367-0.066-0.601-0.083-0.7-0.05c-0.033,0-0.184,0.184-0.45,0.55c-0.066-0.066-0.134-0.233-0.2-0.5
			c-0.066-0.233-0.149-0.366-0.25-0.399c-0.233-0.101-0.517,0.133-0.85,0.7c-0.066,0.199-0.117,0.35-0.15,0.449
			c-0.1,0.167-0.2,0.217-0.3,0.15c-0.066-0.066-0.134-0.25-0.2-0.55c-0.033-0.3-0.1-0.5-0.2-0.601
			c-0.199-0.199-0.399-0.216-0.6-0.05c-0.2,0.233-0.35,0.4-0.45,0.5c-0.1-0.133-0.3-0.3-0.6-0.5c-0.267-0.267-0.483-0.467-0.65-0.6
			c-0.1-0.101-0.267-0.15-0.5-0.15c-0.333,0-0.533-0.017-0.6-0.05c-0.334-0.1-0.7-0.283-1.101-0.55c-0.399-0.2-0.683-0.4-0.85-0.601
			l1.15-0.399c0.733-0.167,2.116-0.101,4.149,0.2l6.351,0.899c1.466,0.2,2.566,0.25,3.3,0.15c1.1-0.2,2.166-0.184,3.2,0.05
			c0.433,0.1,1.05,0.1,1.85,0c0.866-0.1,1.467-0.134,1.8-0.1l1.45,0.199l1.35-0.05L63.25,35c-0.8,0.167-1.566,0.45-2.3,0.85
			c-0.167,0.101-0.316,0.267-0.45,0.5c-0.167,0.267-0.217,0.5-0.15,0.7c-0.066-0.166-0.1-0.5-0.1-1c-0.366,0.267-0.6,0.65-0.7,1.15
			c0,0.3-0.116,0.833-0.35,1.6c-0.033-0.7-0.15-1.2-0.351-1.5c-0.199-0.6-0.416-1-0.649-1.2c-0.167-0.166-0.384-0.133-0.65,0.101
			l-0.35,0.55c-0.134-0.066-0.25-0.267-0.351-0.6c-0.133-0.301-0.267-0.483-0.399-0.551C56.283,35.533,56,35.533,55.6,35.6z"/>
		<g>
			<g>
				
					<linearGradient id="SVGID_21_" gradientUnits="userSpaceOnUse" x1="9.9297" y1="-36.6621" x2="21.2748" y2="-36.6621" gradientTransform="matrix(-0.0551 0.9985 -0.9985 -0.0551 7.789619e-004 1.664087e-004)">
					<stop  offset="0" style="stop-color:#022B3E"/>
					<stop  offset="0.4784" style="stop-color:#74C3C5"/>
					<stop  offset="1" style="stop-color:#1F203E"/>
				</linearGradient>
				<path style="fill-rule:evenodd;clip-rule:evenodd;fill:url(#SVGID_21_);" d="M69.95,22.25c0.267,0.267,0.45,0.683,0.55,1.25
					c-0.1,1.167-0.333,2.366-0.7,3.6c0-0.199-0.733-0.3-2.2-0.3c-1.433,0-2.166,0.066-2.199,0.2c-0.034,0.1,0.616,0.3,1.949,0.6
					c1.467,0.301,2.267,0.483,2.4,0.551c0.033,0.033,0.05,0.166,0.05,0.399c0,0.3,0.033,0.584,0.101,0.851
					c-0.567,2.767-0.967,4.216-1.2,4.35c-0.233,0.1-2.167,0.017-5.8-0.25c-3.967-0.267-6.65-0.316-8.051-0.15
					C50.15,33.983,43.583,33.8,35.15,32.8C31.45,32.4,26.3,32.1,19.7,31.9c-7.8-0.2-12.1-0.334-12.9-0.4
					c-3.233-0.2-4.933-0.316-5.1-0.35c-0.367-0.134-0.733-0.784-1.1-1.95c-0.233-0.8-0.333-1.9-0.3-3.3
					c0-0.534,0.05-1.984,0.15-4.351c0.033-0.4,0.15-0.767,0.35-1.1l0.3-0.35c1.133-0.8,6.816-0.817,17.05-0.05
					c13.867,1.034,21.083,1.55,21.65,1.55c3.566,0.066,9.733,0,18.5-0.2C65.434,21.333,69.316,21.617,69.95,22.25z"/>
				
					<linearGradient id="SVGID_22_" gradientUnits="userSpaceOnUse" x1="8.8198" y1="-36.6533" x2="32.1618" y2="-36.6533" gradientTransform="matrix(-0.0556 0.9985 -0.9985 -0.0556 1.565740e-005 7.897988e-005)">
					<stop  offset="0" style="stop-color:#022B3E"/>
					<stop  offset="0.4784" style="stop-color:#74C3C5"/>
					<stop  offset="1" style="stop-color:#1F203E"/>
				</linearGradient>
				<path style="fill-rule:evenodd;clip-rule:evenodd;fill:url(#SVGID_22_);" d="M58.75,22.25c7.2-0.1,11.116,0.167,11.75,0.8
					c0.233,0.233,0.15,1.534-0.25,3.9c-0.167,1.066-0.283,2.717-0.35,4.95c-0.034,0.233-0.117,0.85-0.25,1.85
					c-0.167,0.967-0.4,1.533-0.7,1.7c-0.233,0.1-2.167,0.017-5.8-0.25c-3.967-0.267-6.65-0.316-8.051-0.15
					c-4.733,0.634-11.316,0.45-19.75-0.55c-3.7-0.4-8.833-0.7-15.399-0.9c-7.8-0.199-12.1-0.333-12.9-0.399
					c-2.033-0.101-3.9-0.2-5.6-0.3c-0.7-0.101-1.067-0.334-1.1-0.7c-0.5-3.667-0.45-7.434,0.15-11.3c1.1-0.8,6.933-0.816,17.5-0.05
					c14.233,1.066,21.616,1.6,22.15,1.6C40.25,22.45,46.45,22.383,58.75,22.25z"/>
				
					<linearGradient id="SVGID_23_" gradientUnits="userSpaceOnUse" x1="25.1455" y1="-36.7988" x2="32.659" y2="-36.7988" gradientTransform="matrix(-0.0556 0.9985 -0.9985 -0.0556 -3.462285e-004 2.430715e-004)">
					<stop  offset="0" style="stop-color:#022B3E"/>
					<stop  offset="0.4784" style="stop-color:#74C3C5"/>
					<stop  offset="1" style="stop-color:#1F203E"/>
				</linearGradient>
				<path style="fill-rule:evenodd;clip-rule:evenodd;fill:url(#SVGID_23_);" d="M45.5,34.9c0.733,0.066,1.583,0.05,2.55-0.051
					c0.566-0.033,1.434-0.1,2.601-0.199c6.233-0.267,9.767-0.4,10.6-0.4c0.767,0,2.05,0.134,3.85,0.4
					c0.2,0.033,0.75,0.116,1.65,0.25c0.9,0.133,1.616,0.1,2.15-0.101c0.199-0.066,0.5-0.883,0.899-2.45c0,1.467-0.25,2.467-0.75,3
					c-0.066,0.167-1.149,0.184-3.25,0.051l-3.649-0.25c-3.467-0.233-5.817-0.267-7.051-0.101c-4.733,0.634-11.316,0.45-19.75-0.55
					c-3.7-0.4-8.833-0.7-15.399-0.9c-7.8-0.199-12.1-0.333-12.9-0.399L2,32.95c-0.533-0.033-0.85-0.066-0.95-0.101
					c-0.367-0.1-0.617-0.3-0.75-0.6c0.133-0.066,0.333-0.1,0.6-0.1c0.533-0.034,1.75-0.017,3.65,0.05c0.9,0.066,2.284,0.1,4.15,0.1
					c3.867,0.267,6.15,0.434,6.85,0.5c1.7,0.2,4.317,0.267,7.85,0.2c2.467-0.066,6.467,0.217,12,0.85
					C38.934,34.25,42.3,34.6,45.5,34.9z"/>
				
					<use xlink:href="#flash0.ai_x5F_1_x2F_Layer_1_x2F__x3C_Path_x3E__x5F_4"  width="30.371" height="13.842" y="-13.863" transform="matrix(1 0 0 -1 1.4502 20.25)" style="overflow:visible;opacity:0.4414;enable-background:new    ;"/>
				
					<use xlink:href="#flash0.ai_x5F_1_x2F_Layer_1_x2F__x3C_Path_x3E__x5F_3"  width="17.15" height="13.238" x="0.05" y="-13.213" transform="matrix(1 0 0 -1 2.6001 20.2998)" style="overflow:visible;opacity:0.4414;enable-background:new    ;"/>
				
					<use xlink:href="#flash0.ai_x5F_1_x2F_Layer_1_x2F__x3C_Path_x3E__x5F_2"  width="19.407" height="13.213" x="0.005" y="-13.213" transform="matrix(1 0 0 -1 49.3496 22.2998)" style="overflow:visible;opacity:0.4414;enable-background:new    ;"/>
				
					<use xlink:href="#flash0.ai_x5F_1_x2F_Layer_1_x2F__x3C_Path_x3E__x5F_1"  width="15.986" height="13.078" x="-0.03" y="-13.103" transform="matrix(1 0 0 -1 51.2002 22.2998)" style="overflow:visible;opacity:0.4414;enable-background:new    ;"/>
				
					<use xlink:href="#flash0.ai_x5F_1_x2F_Layer_1_x2F__x3C_Path_x3E_"  width="27.1" height="1.55" y="-1.55" transform="matrix(1 0 0 -1 22.2998 21.2002)" style="overflow:visible;enable-background:new    ;"/>
			</g>
		</g>
		
			<use xlink:href="#flash0.ai_x5F_1_x2F_Layer_1_x2F__x3C_Clip_Group_0_x3E_"  width="15.865" height="50.304" x="-0.015" y="-50.35" transform="matrix(1 0 0 -1 3.0498 -0.0498)" style="overflow:visible;"/>
		<g>
			<linearGradient id="SVGID_24_" gradientUnits="userSpaceOnUse" x1="67.5479" y1="25.6807" x2="53.6622" y2="25.6306">
				<stop  offset="0" style="stop-color:#022B3E"/>
				<stop  offset="0.4784" style="stop-color:#74C3C5"/>
				<stop  offset="1" style="stop-color:#1F203E"/>
			</linearGradient>
			<path style="fill-rule:evenodd;clip-rule:evenodd;fill:url(#SVGID_24_);" d="M66.75,15.7c0.167,1.933,0.25,3.716,0.25,5.35
				c0,0.6,0.066,1.784,0.2,3.55c0.133,1.466,0.149,2.65,0.05,3.55c-0.134,1.066-0.35,2.566-0.65,4.5
				c-0.199,1.6-0.316,3.083-0.35,4.449c-0.066,2.101,0.066,4.051,0.4,5.851l0.399,2.7C67.116,45.816,67.2,46.6,67.3,48
				c0.134,1.4,0.184,2.167,0.15,2.3H54.3c0.134-1.6,0.101-3.083-0.1-4.45C54,45.017,53.866,44.4,53.8,44
				c-0.133-0.7-0.133-1.316,0-1.85c0.167-0.667,0.267-1.5,0.3-2.5c0-0.967,0.084-1.784,0.25-2.45
				c0.367-1.434,0.301-3.55-0.199-6.351c-0.5-2.899-0.617-5.033-0.351-6.399c0.167-0.8,0.25-1.817,0.25-3.05
				c0-1.667,0.017-2.683,0.05-3.05c0.167-1.5,0.284-2.617,0.351-3.35c0.133-1.333,0.133-2.467,0-3.4
				C53.917,8,53.717,5.217,53.85,3.25c0.434-1.267,2.384-2,5.851-2.2c3.467-0.233,5.649,0.233,6.55,1.4c0.2,0.267,0.283,1,0.25,2.2
				c0,0.2-0.083,1.217-0.25,3.05c-0.1,1.367-0.017,3.367,0.25,6L66.75,15.7z"/>
			
				<use xlink:href="#flash0.ai_x5F_1_x2F_Layer_1_x2F__x3C_Clip_Group_0_x3E__x5F_0"  width="13.799" height="49.539" x="0.011" y="-49.5" transform="matrix(1 0 0 -1 53.6504 0.7998)" style="overflow:visible;"/>
		</g>
		
			<linearGradient id="SVGID_25_" gradientUnits="userSpaceOnUse" x1="-33.2134" y1="63.7441" x2="-22.06" y2="63.7441" gradientTransform="matrix(0.0247 -0.9997 0.9997 0.0247 8.994900e-005 3.650524e-004)">
			<stop  offset="0" style="stop-color:#74C3C5"/>
			<stop  offset="1" style="stop-color:#1F203E"/>
		</linearGradient>
		<path style="fill-rule:evenodd;clip-rule:evenodd;fill:url(#SVGID_25_);" d="M62.15,23.7c0.933-1.8,1.633-1.383,2.1,1.25
			c0.5,2.666,0.3,4.866-0.6,6.6c-0.801,1.601-1.384,0.95-1.75-1.95C61.533,26.7,61.616,24.733,62.15,23.7z"/>
		
			<linearGradient id="SVGID_26_" gradientUnits="userSpaceOnUse" x1="-19.1641" y1="66.0225" x2="-15.2628" y2="66.0225" gradientTransform="matrix(0.0256 -0.9997 0.9997 0.0256 1.271162e-004 -9.237230e-005)">
			<stop  offset="0" style="stop-color:#74C3C5"/>
			<stop  offset="1" style="stop-color:#1F203E"/>
		</linearGradient>
		<path style="fill-rule:evenodd;clip-rule:evenodd;fill:url(#SVGID_26_);" d="M65.05,17.45c0.267-0.6,0.584-0.5,0.95,0.3
			c0.366,0.767,0.384,1.6,0.05,2.5c-0.333,0.9-0.649,0.833-0.95-0.2C64.767,19.017,64.75,18.15,65.05,17.45z"/>
		
			<linearGradient id="SVGID_27_" gradientUnits="userSpaceOnUse" x1="-17.3369" y1="57.4883" x2="-9.0845" y2="57.4883" gradientTransform="matrix(0.0242 -0.9997 0.9997 0.0242 4.312936e-004 7.596239e-005)">
			<stop  offset="0" style="stop-color:#74C3C5"/>
			<stop  offset="1" style="stop-color:#1F203E"/>
		</linearGradient>
		<path style="fill-rule:evenodd;clip-rule:evenodd;fill:url(#SVGID_27_);" d="M56.7,11.25c0.733-1.4,1.233-1.05,1.5,1.05
			c0.233,2.067,0.017,3.85-0.65,5.35c-0.633,1.467-1.1,1.067-1.399-1.2C55.884,14.183,56.066,12.45,56.7,11.25z"/>
		
			<use xlink:href="#flash0.ai_x5F_1_x2F_Layer_1_x2F__x3C_Path_x3E__x5F_23"  width="2.037" height="8.327" x="-0.048" y="-8.264" transform="matrix(1 0 0 -1 61.8496 7.7002)" style="overflow:visible;opacity:0.3516;enable-background:new    ;"/>
		
			<use xlink:href="#flash0.ai_x5F_1_x2F_Layer_1_x2F__x3C_Path_x3E__x5F_22"  width="1.58" height="5.228" x="-0.027" y="-5.155" transform="matrix(1 0 0 -1 64.2998 39.2998)" style="overflow:visible;opacity:0.3516;enable-background:new    ;"/>
		
			<linearGradient id="SVGID_28_" gradientUnits="userSpaceOnUse" x1="-31.0928" y1="58.3457" x2="-26.7416" y2="58.3457" gradientTransform="matrix(0.023 -0.9997 0.9997 0.023 -3.412049e-004 2.257619e-004)">
			<stop  offset="0" style="stop-color:#74C3C5"/>
			<stop  offset="1" style="stop-color:#1F203E"/>
		</linearGradient>
		<path style="fill-rule:evenodd;clip-rule:evenodd;fill:url(#SVGID_28_);" d="M57.15,28.35c0.3-0.833,0.6-0.85,0.899-0.05
			c0.3,0.767,0.367,1.634,0.2,2.601c-0.167,0.899-0.45,0.916-0.85,0.05C57,30.05,56.917,29.184,57.15,28.35z"/>
		
			<linearGradient id="SVGID_29_" gradientUnits="userSpaceOnUse" x1="-48.043" y1="64.0977" x2="-44.5922" y2="64.0977" gradientTransform="matrix(0.0217 -0.9998 0.9998 0.0217 -4.660804e-004 -4.087612e-004)">
			<stop  offset="0" style="stop-color:#74C3C5"/>
			<stop  offset="1" style="stop-color:#1F203E"/>
		</linearGradient>
		<path style="fill-rule:evenodd;clip-rule:evenodd;fill:url(#SVGID_29_);" d="M62.8,46c0.334-0.467,0.617-0.45,0.851,0.05
			c0.199,0.5,0.149,1.167-0.15,2c-0.333,0.9-0.634,0.934-0.9,0.101C62.3,47.316,62.366,46.6,62.8,46z"/>
		
			<linearGradient id="SVGID_30_" gradientUnits="userSpaceOnUse" x1="-6.7446" y1="60.5566" x2="-1.2182" y2="60.5566" gradientTransform="matrix(0.0226 -0.9997 0.9997 0.0226 2.672523e-004 -3.078301e-004)">
			<stop  offset="0" style="stop-color:#74C3C5"/>
			<stop  offset="1" style="stop-color:#1F203E"/>
		</linearGradient>
		<path style="fill-rule:evenodd;clip-rule:evenodd;fill:url(#SVGID_30_);" d="M59.75,3.05c0.434-1.233,0.9-1.017,1.4,0.65
			c0.466,1.633,0.333,2.95-0.4,3.95c-0.667,0.934-1.066,0.567-1.2-1.1C59.417,5.05,59.483,3.883,59.75,3.05z"/>
		
			<linearGradient id="SVGID_31_" gradientUnits="userSpaceOnUse" x1="-41.3989" y1="57.6289" x2="-37.2477" y2="57.6289" gradientTransform="matrix(0.0241 -0.9997 0.9997 0.0241 -4.531629e-004 3.722049e-004)">
			<stop  offset="0" style="stop-color:#74C3C5"/>
			<stop  offset="1" style="stop-color:#1F203E"/>
		</linearGradient>
		<path style="fill-rule:evenodd;clip-rule:evenodd;fill:url(#SVGID_31_);" d="M56.4,38.5c0.3-0.467,0.583-0.233,0.85,0.7
			c0.267,0.899,0.267,1.666,0,2.3c-0.333,0.733-0.7,0.634-1.1-0.3C55.75,40.267,55.833,39.366,56.4,38.5z"/>
		
			<linearGradient id="SVGID_32_" gradientUnits="userSpaceOnUse" x1="-49.5757" y1="59.8438" x2="-42.4235" y2="59.8438" gradientTransform="matrix(0.0245 -0.9997 0.9997 0.0245 -2.246667e-004 4.512724e-004)">
			<stop  offset="0" style="stop-color:#74C3C5"/>
			<stop  offset="1" style="stop-color:#1F203E"/>
		</linearGradient>
		<path style="fill-rule:evenodd;clip-rule:evenodd;fill:url(#SVGID_32_);" d="M58,43.65c0.7-0.9,1.267-0.45,1.7,1.35
			c0.467,1.8,0.333,3.167-0.4,4.1c-0.7,0.867-1.233,0.367-1.6-1.5C57.333,45.7,57.434,44.384,58,43.65z"/>
		
			<linearGradient id="SVGID_33_" gradientUnits="userSpaceOnUse" x1="-25.2471" y1="47.6328" x2="-22.6966" y2="47.6328" gradientTransform="matrix(0.0196 -0.9998 0.9998 0.0196 -2.458468e-004 -3.240760e-004)">
			<stop  offset="0" style="stop-color:#74C3C5"/>
			<stop  offset="1" style="stop-color:#1F203E"/>
		</linearGradient>
		<path style="fill-rule:evenodd;clip-rule:evenodd;fill:url(#SVGID_33_);" d="M46.35,23.5c1.5-0.2,2.634,0.05,3.4,0.75
			c0.767,0.733,0.116,1.184-1.95,1.35c-2.1,0.134-3.267-0.116-3.5-0.75C44.066,24.183,44.75,23.733,46.35,23.5z"/>
		
			<linearGradient id="SVGID_34_" gradientUnits="userSpaceOnUse" x1="-30.4346" y1="37.7773" x2="-25.0331" y2="37.7773" gradientTransform="matrix(0.0231 -0.9997 0.9997 0.0231 1.161676e-004 1.520291e-004)">
			<stop  offset="0" style="stop-color:#74C3C5"/>
			<stop  offset="1" style="stop-color:#1F203E"/>
		</linearGradient>
		<path style="fill-rule:evenodd;clip-rule:evenodd;fill:url(#SVGID_34_);" d="M36.7,29.1c-2.567-0.199-3.684-0.85-3.35-1.949
			c0.333-1.067,1.566-1.634,3.7-1.7c2.8-0.033,4.117,0.633,3.95,2C40.833,28.816,39.4,29.366,36.7,29.1z"/>
		
			<linearGradient id="SVGID_35_" gradientUnits="userSpaceOnUse" x1="-31.4629" y1="45.5879" x2="-28.1121" y2="45.5879" gradientTransform="matrix(0.0224 -0.9997 0.9997 0.0224 3.155135e-004 -3.992394e-004)">
			<stop  offset="0" style="stop-color:#74C3C5"/>
			<stop  offset="1" style="stop-color:#1F203E"/>
		</linearGradient>
		<path style="fill-rule:evenodd;clip-rule:evenodd;fill:url(#SVGID_35_);" d="M45.15,29.55c2.3,0.2,3.166,0.533,2.6,1
			c-0.566,0.4-1.767,0.634-3.6,0.7c-1.667,0.066-2.4-0.25-2.2-0.95C42.15,29.634,43.217,29.384,45.15,29.55z"/>
		
			<use xlink:href="#flash0.ai_x5F_1_x2F_Layer_1_x2F__x3C_Path_x3E__x5F_13"  width="7.887" height="1.768" x="-0.223" y="-1.746" transform="matrix(1 0 0 -1 20.6001 22.6001)" style="overflow:visible;opacity:0.3516;enable-background:new    ;"/>
		
			<linearGradient id="SVGID_36_" gradientUnits="userSpaceOnUse" x1="-29.3589" y1="24.7764" x2="-27.4582" y2="24.7764" gradientTransform="matrix(0.0263 -0.9997 0.9997 0.0263 -4.765932e-004 -3.458858e-004)">
			<stop  offset="0" style="stop-color:#74C3C5"/>
			<stop  offset="1" style="stop-color:#1F203E"/>
		</linearGradient>
		<path style="fill-rule:evenodd;clip-rule:evenodd;fill:url(#SVGID_36_);" d="M23.85,27.95c1.1-0.101,1.75,0.133,1.95,0.7
			c0.233,0.566-0.3,0.866-1.6,0.899c-1.3,0.033-1.967-0.2-2-0.7C22.167,28.35,22.717,28.05,23.85,27.95z"/>
		
			<use xlink:href="#flash0.ai_x5F_1_x2F_Layer_1_x2F__x3C_Path_x3E__x5F_11"  width="4.279" height="1.443" x="-0.028" y="-1.418" transform="matrix(1 0 0 -1 47.2998 32.6504)" style="overflow:visible;opacity:0.3516;enable-background:new    ;"/>
		
			<linearGradient id="SVGID_37_" gradientUnits="userSpaceOnUse" x1="-27.1704" y1="28.9727" x2="-24.1195" y2="28.9727" gradientTransform="matrix(0.0246 -0.9997 0.9997 0.0246 -3.324635e-004 -1.910720e-004)">
			<stop  offset="0" style="stop-color:#74C3C5"/>
			<stop  offset="1" style="stop-color:#1F203E"/>
		</linearGradient>
		<path style="fill-rule:evenodd;clip-rule:evenodd;fill:url(#SVGID_37_);" d="M27.5,24.9c2.433-0.167,3.7,0.234,3.8,1.2
			c0.133,0.967-0.95,1.45-3.25,1.45c-2.033,0-2.917-0.416-2.65-1.25C25.633,25.467,26.333,25,27.5,24.9z"/>
		
			<linearGradient id="SVGID_38_" gradientUnits="userSpaceOnUse" x1="-33.0239" y1="14.7183" x2="-23.4963" y2="14.7183" gradientTransform="matrix(0.0236 -0.9997 0.9997 0.0236 1.027547e-004 -2.026074e-004)">
			<stop  offset="0" style="stop-color:#74C3C5"/>
			<stop  offset="1" style="stop-color:#1F203E"/>
		</linearGradient>
		<path style="fill-rule:evenodd;clip-rule:evenodd;fill:url(#SVGID_38_);" d="M13.45,23.65c0.7-1.2,1.3-0.85,1.8,1.05
			c0.5,1.934,0.367,3.783-0.4,5.55c-0.8,1.833-1.45,1.55-1.95-0.85C12.4,27.033,12.583,25.116,13.45,23.65z"/>
		
			<linearGradient id="SVGID_39_" gradientUnits="userSpaceOnUse" x1="-19.4946" y1="15.6885" x2="-11.8926" y2="15.6885" gradientTransform="matrix(0.023 -0.9997 0.9997 0.023 3.557354e-004 -2.011340e-004)">
			<stop  offset="0" style="stop-color:#74C3C5"/>
			<stop  offset="1" style="stop-color:#1F203E"/>
		</linearGradient>
		<path style="fill-rule:evenodd;clip-rule:evenodd;fill:url(#SVGID_39_);" d="M14.5,12.45c0.6-1.333,1.217-1.25,1.85,0.25
			c0.6,1.5,0.566,2.983-0.1,4.45c-0.7,1.533-1.35,1.55-1.95,0.05C13.733,15.7,13.8,14.117,14.5,12.45z"/>
		
			<linearGradient id="SVGID_40_" gradientUnits="userSpaceOnUse" x1="-10.4404" y1="16.8789" x2="-8.5648" y2="16.8789" gradientTransform="matrix(0.0267 -0.9996 0.9996 0.0267 -1.473334e-004 4.651528e-004)">
			<stop  offset="0" style="stop-color:#74C3C5"/>
			<stop  offset="1" style="stop-color:#1F203E"/>
		</linearGradient>
		<path style="fill-rule:evenodd;clip-rule:evenodd;fill:url(#SVGID_40_);" d="M16.45,9.05c0.2-0.367,0.333-0.233,0.4,0.4
			c0.066,0.3,0.1,0.633,0.1,1C16.283,10.183,16.117,9.717,16.45,9.05z"/>
		
			<use xlink:href="#flash0.ai_x5F_1_x2F_Layer_1_x2F__x3C_Path_x3E__x5F_6_x5F_0"  width="2.651" height="6.676" x="-0.048" y="-6.52" transform="matrix(1 0 0 -1 12.1001 2.5498)" style="overflow:visible;opacity:0.3516;enable-background:new    ;"/>
		
			<linearGradient id="SVGID_41_" gradientUnits="userSpaceOnUse" x1="-14.7031" y1="8.4316" x2="-6.3007" y2="8.4316" gradientTransform="matrix(0.0238 -0.9997 0.9997 0.0238 -8.431077e-005 2.089776e-004)">
			<stop  offset="0" style="stop-color:#74C3C5"/>
			<stop  offset="1" style="stop-color:#1F203E"/>
		</linearGradient>
		<path style="fill-rule:evenodd;clip-rule:evenodd;fill:url(#SVGID_41_);" d="M6.9,6.75c0.467-1.5,1.083-1.317,1.85,0.55
			c0.767,1.8,1.05,3.467,0.85,5c-0.2,1.467-0.8,1.233-1.8-0.7C6.833,9.633,6.533,8.017,6.9,6.75z"/>
		
			<linearGradient id="SVGID_42_" gradientUnits="userSpaceOnUse" x1="-5.8813" y1="5.6841" x2="-2.6555" y2="5.6841" gradientTransform="matrix(0.0232 -0.9997 0.9997 0.0232 3.361627e-004 -1.686309e-004)">
			<stop  offset="0" style="stop-color:#74C3C5"/>
			<stop  offset="1" style="stop-color:#1F203E"/>
		</linearGradient>
		<path style="fill-rule:evenodd;clip-rule:evenodd;fill:url(#SVGID_42_);" d="M5.2,2.85C5.367,2.55,5.617,2.6,5.95,3
			c0.333,0.367,0.367,0.767,0.1,1.2C5.783,4.667,5.5,4.7,5.2,4.3C4.9,3.867,4.9,3.383,5.2,2.85z"/>
		
			<linearGradient id="SVGID_43_" gradientUnits="userSpaceOnUse" x1="-22.2827" y1="9.9795" x2="-16.6813" y2="9.9795" gradientTransform="matrix(0.0223 -0.9998 0.9998 0.0223 1.200270e-004 3.297720e-004)">
			<stop  offset="0" style="stop-color:#74C3C5"/>
			<stop  offset="1" style="stop-color:#1F203E"/>
		</linearGradient>
		<path style="fill-rule:evenodd;clip-rule:evenodd;fill:url(#SVGID_43_);" d="M8.95,17.1c0.466-1.033,0.9-0.983,1.3,0.15
			s0.383,2.25-0.05,3.35c-0.434,1.1-0.867,1.033-1.3-0.2C8.467,19.167,8.483,18.067,8.95,17.1z"/>
		
			<linearGradient id="SVGID_44_" gradientUnits="userSpaceOnUse" x1="-50.8252" y1="14.0264" x2="-41.1476" y2="14.0264" gradientTransform="matrix(0.0232 -0.9997 0.9997 0.0232 3.361627e-004 -1.686309e-004)">
			<stop  offset="0" style="stop-color:#74C3C5"/>
			<stop  offset="1" style="stop-color:#1F203E"/>
		</linearGradient>
		<path style="fill-rule:evenodd;clip-rule:evenodd;fill:url(#SVGID_44_);" d="M12.05,41.3c0.667-1.366,1.333-0.8,2,1.7
			c0.667,2.533,0.633,4.366-0.1,5.5c-0.733,1.2-1.417,0.7-2.05-1.5C11.233,44.8,11.283,42.9,12.05,41.3z"/>
		
			<linearGradient id="SVGID_45_" gradientUnits="userSpaceOnUse" x1="-36.2207" y1="17.4771" x2="-33.6202" y2="17.4771" gradientTransform="matrix(0.0192 -0.9998 0.9998 0.0192 1.727175e-004 1.857542e-004)">
			<stop  offset="0" style="stop-color:#74C3C5"/>
			<stop  offset="1" style="stop-color:#1F203E"/>
		</linearGradient>
		<path style="fill-rule:evenodd;clip-rule:evenodd;fill:url(#SVGID_45_);" d="M16.6,33.95c0.3-0.434,0.5-0.267,0.6,0.5
			c0.133,0.767,0.117,1.25-0.05,1.45c-0.133,0.267-0.35,0.149-0.65-0.351C16.233,35.05,16.267,34.517,16.6,33.95z"/>
		
			<linearGradient id="SVGID_46_" gradientUnits="userSpaceOnUse" x1="-39.7739" y1="8.4526" x2="-36.823" y2="8.4526" gradientTransform="matrix(0.0254 -0.9997 0.9997 0.0254 -2.702512e-004 -3.632419e-004)">
			<stop  offset="0" style="stop-color:#74C3C5"/>
			<stop  offset="1" style="stop-color:#1F203E"/>
		</linearGradient>
		<path style="fill-rule:evenodd;clip-rule:evenodd;fill:url(#SVGID_46_);" d="M6.75,37.5c0.267-0.866,0.617-0.967,1.05-0.3
			c0.434,0.666,0.583,1.267,0.45,1.8c-0.167,0.5-0.517,0.55-1.05,0.15C6.7,38.75,6.55,38.2,6.75,37.5z"/>
	</g>
</g>
</svg>
