<?xml version="1.0" encoding="iso-8859-1"?>
<!-- Generator: Adobe Illustrator 15.1.0, SVG Export Plug-In . SVG Version: 6.00 Build 0)  -->
<!DOCTYPE svg PUBLIC "-//W3C//DTD SVG 1.1//EN" "http://www.w3.org/Graphics/SVG/1.1/DTD/svg11.dtd">
<svg version="1.1" id="Layer_1" xmlns="http://www.w3.org/2000/svg" xmlns:xlink="http://www.w3.org/1999/xlink" x="0px" y="0px"
	 width="731.8px" height="117.9px" viewBox="0 0 731.8 117.9" style="enable-background:new 0 0 731.8 117.9;" xml:space="preserve"
	>
<symbol  id="FlashAICB_x5F_1_x2F_Layer_1_x2F__x3C_Path_x3E__x5F_6" viewBox="0 -21 418.5 20.986">
	<g id="Layer_1_3_">
		<path style="fill-rule:evenodd;clip-rule:evenodd;fill:#04295B;" d="M417.975-19.175c0.186-0.058,0.361-0.116,0.525-0.175h-0.6
			C417.931-19.291,417.956-19.232,417.975-19.175z M345.4-11.85c-3.433,0.1-32.5,0.75-87.2,1.95
			c-32.167,0.733-53.133,1.533-62.9,2.4c-9.066,0.8-20.55,0.217-34.45-1.75c-17.7-2.5-30.583-3.9-38.65-4.2
			C102.1-14.15,61.367-16.667,0-21c6.5,2.1,19.65,3.883,39.45,5.35c33.466,2.433,54.167,4.066,62.1,4.9
			c15.633,1.6,36.6,4.25,62.9,7.95c23.3,2.633,46.233,3.4,68.8,2.3c9.1-0.467,26.683-1.267,52.75-2.4
			c25.033-1.2,45.833-2.4,62.4-3.6c48.358-3.492,71.55-7.717,69.575-12.675c-2.802,0.919-7.694,1.911-14.675,2.975
			C388.4-13.967,369.1-12.517,345.4-11.85z"/>
	</g>
</symbol>
<symbol  id="FlashAICB_x5F_1_x2F_Layer_1_x2F__x3C_Path_x3E__x5F_7" viewBox="0 -42.5 603.152 42.518">
	<g id="Layer_1_2_">
		<path style="fill-rule:evenodd;clip-rule:evenodd;fill:#04295B;" d="M580.15-24.55c-15.633,1.133-26.183,1.617-31.65,1.45
			c-18.633-0.6-32.717-0.867-42.25-0.8c-23.267,0.167-44.9,1.517-64.9,4.05c-3.434,0.434-10.317,1.667-20.65,3.7
			c-13.233,2.6-23.284,4.483-30.15,5.65c-28.6,4.967-52.583,7.233-71.95,6.8c-28.967-0.667-49.1-2.983-60.4-6.95
			c-5.367-2.3-9.45-4-12.25-5.1c-4.967-2-10.684-3.55-17.15-4.65c-36.2-6.133-76.566-10.267-121.1-12.4
			c-27.767-1.3-47.917-2.45-60.45-3.45c-23.6-1.833-36.367-3.917-38.3-6.25L0-40.35c2.467,2.4,17,4.833,43.6,7.3
			c16.4,1.5,42.233,3.383,77.5,5.65c24,1.5,47.167,4.283,69.5,8.35c19.733,3.566,38.033,7.966,54.9,13.2
			c14.433,4.467,38.617,6.383,72.55,5.75c29.1-0.533,58.3-2.633,87.6-6.3c17.133-2.167,36.383-5.033,57.75-8.6
			c17.333-2.533,35.467-3.8,54.4-3.8c21.4,0,41.967-0.883,61.7-2.65c18.066-1.6,25.783-2.867,23.15-3.8
			C601.117-25.783,593.617-25.55,580.15-24.55z"/>
	</g>
</symbol>
<g>
	<g>
		
			<radialGradient id="SVGID_1_" cx="365.875" cy="58.9731" r="550.0192" gradientTransform="matrix(1 0 0 1.0113 0 -0.6688)" gradientUnits="userSpaceOnUse">
			<stop  offset="0" style="stop-color:#0A263C"/>
			<stop  offset="0.0627" style="stop-color:#0D293F"/>
			<stop  offset="0.3098" style="stop-color:#142F44"/>
			<stop  offset="1" style="stop-color:#153146"/>
		</radialGradient>
		<path style="fill-rule:evenodd;clip-rule:evenodd;fill:url(#SVGID_1_);" d="M714.65,35.05c7.066,2.6,11.649,5.35,13.75,8.25
			c4.8,5.434,4.483,10.934-0.95,16.5c-0.066,0.033-0.117,0.101-0.15,0.2c-1.733,1.6-3.217,2.884-4.45,3.85
			c-0.033,0-0.05,0.017-0.05,0.051c-4.934,3.8-11.717,7.25-20.35,10.35c-0.134,0.066-0.283,0.116-0.45,0.15l-4.7,1.649
			c-5.3,1.767-12.316,3.967-21.05,6.601h-0.05c-11.233,3.3-19.95,6.35-26.15,9.149c-6.633,2.867-15.916,6.351-27.85,10.45h-0.05
			c-9.101,3.134-24.15,5.6-45.15,7.4h-0.05l-22.05,1.75c-0.233,0-0.434,0.033-0.601,0.1c-0.133,0-0.267,0-0.399,0
			c-6.7,0.366-22.733,1.066-48.101,2.1c-22.533,0.867-41.717,1.884-57.55,3.051c-19,1.366-38.3,1.633-57.9,0.8l-5-0.25
			c-12.866-0.467-31.383-0.65-55.55-0.55c-27.733,0.066-49.517,0.267-65.35,0.6c-16.267,0.366-32-0.35-47.2-2.15h-0.05
			c-12.967-1.566-37.1-3.483-72.4-5.75l-15.95-0.949c-50.4-3.067-86.184-8.551-107.35-16.45c-8.2-3.066-13.783-6.3-16.75-9.7
			L4.7,82.2C-1.7,75.3-1.6,68.417,5,61.55c3.633-4.1,10.917-8.1,21.85-12h0.1C44.317,43.383,67.367,38.667,96.1,35.4
			c25.033-2.9,46.7-6.367,65-10.4c11.333-2.533,30.8-7.117,58.4-13.75c0.033-0.033,0.083-0.05,0.15-0.05
			c23.567-5.167,49.533-8.534,77.9-10.1c21.6-1.267,42.75-1.417,63.45-0.45c15.667,0.733,41.517,2.467,77.55,5.2
			c32.566,2.533,62.033,4.267,88.4,5.2C572.616,12.717,616.667,16.7,659.1,23C685.167,26.9,703.684,30.917,714.65,35.05z"/>
	</g>
	<g>
		
			<radialGradient id="SVGID_2_" cx="365.5996" cy="143.0498" r="524.15" gradientTransform="matrix(1 0 0 -0.3649 0 195.2453)" gradientUnits="userSpaceOnUse">
			<stop  offset="0" style="stop-color:#6171B7"/>
			<stop  offset="0" style="stop-color:#18B4BC"/>
			<stop  offset="0.0196" style="stop-color:#17AFB8"/>
			<stop  offset="0.2549" style="stop-color:#0F7F92"/>
			<stop  offset="0.4745" style="stop-color:#085A74"/>
			<stop  offset="0.6784" style="stop-color:#053F5E"/>
			<stop  offset="0.8627" style="stop-color:#032F51"/>
			<stop  offset="1" style="stop-color:#03294C"/>
		</radialGradient>
		<path style="fill-rule:evenodd;clip-rule:evenodd;fill:url(#SVGID_2_);" d="M703.25,51c-1.366,1.3-2.55,2.317-3.55,3.05
			c-9.101-6.1-34.767-11.8-77-17.1c-36.033-4.534-71.117-7.4-105.25-8.6c-24.934-0.867-52.8-2.483-83.601-4.85
			c-33.866-2.567-58.166-4.183-72.899-4.85c-19.3-0.867-39-0.733-59.1,0.4c-26.367,1.467-50.483,4.567-72.35,9.3
			c-26.067,6.2-44.433,10.483-55.1,12.85c-17.5,3.833-38.183,7.1-62.05,9.8c-18.467,2.067-34.867,4.917-49.2,8.55
			C47.883,63.45,37.617,67.6,32.35,72c-5.767-6.2,0.233-12.417,18-18.65C66.383,47.75,87.6,43.467,114,40.5
			c23.9-2.7,44.583-5.967,62.05-9.8c10.667-2.367,29.05-6.65,55.15-12.85c21.867-4.733,45.966-7.833,72.3-9.3
			c20.133-1.133,39.833-1.267,59.1-0.4c14.733,0.667,39.034,2.283,72.9,4.85c30.8,2.367,58.667,3.983,83.6,4.85
			c42.801,1.533,84.067,5.233,123.801,11.1C690.667,36.017,710.783,43.367,703.25,51z"/>
		
			<radialGradient id="SVGID_3_" cx="366.0254" cy="143.0498" r="523.4607" gradientTransform="matrix(1 0 0 -0.3649 0 195.2418)" gradientUnits="userSpaceOnUse">
			<stop  offset="0" style="stop-color:#6171B7"/>
			<stop  offset="0" style="stop-color:#18B4BC"/>
			<stop  offset="0.1294" style="stop-color:#149EAB"/>
			<stop  offset="0.3882" style="stop-color:#0E798E"/>
			<stop  offset="0.6275" style="stop-color:#095E79"/>
			<stop  offset="0.8392" style="stop-color:#074E6D"/>
			<stop  offset="1" style="stop-color:#064868"/>
		</radialGradient>
		<path style="fill-rule:evenodd;clip-rule:evenodd;fill:url(#SVGID_3_);" d="M699.7,54.05c-4.233,3.2-10.083,6.117-17.55,8.75
			c-5.2,1.867-12.767,4.066-22.7,6.601c-12.566,3.233-20.867,5.433-24.9,6.6c-9.467,2.8-17.533,5.767-24.2,8.9
			c-13.399,6.3-35.267,10.333-65.6,12.1c-6,0.366-21.2,1.033-45.6,2c-21.334,0.833-39.5,1.783-54.5,2.85
			c-17.634,1.267-35.551,1.5-53.75,0.7c-12.167-0.566-27.55-1.8-46.15-3.7c-20.967-2.199-35.267-3.55-42.9-4.05
			c-15.8-1.033-30.417-1.1-43.85-0.2c-33.9,2.233-71.733,2.101-113.5-0.399c-46.533-2.8-79.567-7.783-99.1-14.95
			C39.067,76.917,34.717,74.5,32.35,72c5.267-4.4,15.533-8.55,30.8-12.45c14.333-3.633,30.733-6.483,49.2-8.55
			c23.867-2.7,44.55-5.967,62.05-9.8c10.667-2.367,29.033-6.65,55.1-12.85c21.867-4.733,45.983-7.833,72.35-9.3
			c20.1-1.133,39.8-1.267,59.1-0.4c14.733,0.667,39.033,2.283,72.899,4.85c30.801,2.367,58.667,3.983,83.601,4.85
			c34.133,1.2,69.217,4.066,105.25,8.6C664.934,42.25,690.6,47.95,699.7,54.05z"/>
		
			<radialGradient id="SVGID_4_" cx="364.5" cy="115.8496" r="458.775" gradientTransform="matrix(1 0 0 -0.329 0 153.9611)" gradientUnits="userSpaceOnUse">
			<stop  offset="0" style="stop-color:#6171B7"/>
			<stop  offset="0" style="stop-color:#18B4BC"/>
			<stop  offset="0.1294" style="stop-color:#149EAB"/>
			<stop  offset="0.3882" style="stop-color:#0E798E"/>
			<stop  offset="0.6275" style="stop-color:#095E79"/>
			<stop  offset="0.8392" style="stop-color:#074E6D"/>
			<stop  offset="1" style="stop-color:#064868"/>
		</radialGradient>
		<path style="fill-rule:evenodd;clip-rule:evenodd;fill:url(#SVGID_4_);" d="M699.7,54.05c-4.233,3.2-10.083,6.117-17.55,8.75
			c-5.202,1.865-13.261,4.406-24.176,7.625c-10.91,3.223-19.41,6.156-25.5,8.8c-6.089,2.645-14.646,5.828-25.675,9.551
			c-11.031,3.718-31.715,6.46-62.05,8.225c-6,0.366-21.2,1.033-45.6,2c-21.334,0.833-39.5,1.783-54.5,2.85
			c-17.634,1.267-35.551,1.5-53.75,0.7c-12.165-0.57-31.324-0.82-57.476-0.75c-26.155,0.077-46.722,0.277-61.7,0.601
			s-29.486-0.336-43.525-1.976c-14.035-1.646-41.936-3.722-83.7-6.225c-46.533-2.8-79.567-7.783-99.1-14.95
			C39.067,76.917,34.717,74.5,32.35,72c5.267-4.4,15.533-8.55,30.8-12.45c14.333-3.633,30.733-6.483,49.2-8.55
			c23.867-2.7,44.55-5.967,62.05-9.8c10.667-2.367,29.033-6.65,55.1-12.85c21.867-4.733,45.983-7.833,72.35-9.3
			c20.1-1.133,39.8-1.267,59.1-0.4c14.733,0.667,39.033,2.283,72.899,4.85c30.801,2.367,58.667,3.983,83.601,4.85
			c34.133,1.2,69.217,4.066,105.25,8.6C664.934,42.25,690.6,47.95,699.7,54.05z"/>
	</g>
	<linearGradient id="SVGID_5_" gradientUnits="userSpaceOnUse" x1="93.3501" y1="36.4502" x2="295.8999" y2="36.4502">
		<stop  offset="0" style="stop-color:#3FA8A9"/>
		<stop  offset="0.1647" style="stop-color:#3AA1A7"/>
		<stop  offset="0.6196" style="stop-color:#2F93A2"/>
		<stop  offset="1" style="stop-color:#2C8EA1"/>
	</linearGradient>
	<path style="fill-rule:evenodd;clip-rule:evenodd;fill:url(#SVGID_5_);" d="M295.9,19.5c-8.7,0.767-18.1,1.717-28.2,2.85
		c-20.2,2.3-33.85,4.4-40.95,6.3c-10.767,3.267-19.4,5.8-25.9,7.6c-11.7,3.233-24.65,5.9-38.85,8c-14.3,2.133-30.033,4.3-47.2,6.5
		L93.35,53.4c1.6-0.267,10.967-1.683,28.1-4.25c18.8-2.9,33.617-5.333,44.45-7.3c8.033-1.467,21.4-4.567,40.1-9.3
		c17.1-4.333,30.05-7.167,38.85-8.5c10.367-1.566,21.983-2.8,34.85-3.7C286.133,19.917,291.533,19.633,295.9,19.5z"/>
	<linearGradient id="SVGID_6_" gradientUnits="userSpaceOnUse" x1="393.8496" y1="28.2251" x2="620.0996" y2="28.2251">
		<stop  offset="0" style="stop-color:#3FA8A9"/>
		<stop  offset="0.1647" style="stop-color:#3AA1A7"/>
		<stop  offset="0.6196" style="stop-color:#2F93A2"/>
		<stop  offset="1" style="stop-color:#2C8EA1"/>
	</linearGradient>
	<path style="fill-rule:evenodd;clip-rule:evenodd;fill:url(#SVGID_6_);" d="M437.6,23.6L393.85,20h1.101c0.333,0,13.2,0.9,38.6,2.7
		c28.601,2.033,50.8,3.466,66.601,4.3c20.666,1.1,43.199,2.6,67.6,4.5c25.233,2,42.684,3.65,52.35,4.95
		c-55.033-3.967-93.25-6.567-114.649-7.8C492.083,27.85,469.467,26.167,437.6,23.6z"/>
	
		<use xlink:href="#FlashAICB_x5F_1_x2F_Layer_1_x2F__x3C_Path_x3E__x5F_7"  width="603.152" height="42.518" y="-42.5" transform="matrix(1 0 0 -1 50.3999 39.0498)" style="overflow:visible;opacity:0.1719;enable-background:new    ;"/>
	
		<use xlink:href="#FlashAICB_x5F_1_x2F_Layer_1_x2F__x3C_Path_x3E__x5F_6"  width="418.5" height="20.986" y="-21" transform="matrix(1 0 0 -1 174.8501 70.6504)" style="overflow:visible;opacity:0.1719;enable-background:new    ;"/>
</g>
</svg>
