<?xml version="1.0" encoding="iso-8859-1"?>
<!-- Generator: Adobe Illustrator 15.1.0, SVG Export Plug-In . SVG Version: 6.00 Build 0)  -->
<!DOCTYPE svg PUBLIC "-//W3C//DTD SVG 1.1//EN" "http://www.w3.org/Graphics/SVG/1.1/DTD/svg11.dtd">
<svg version="1.1" xmlns="http://www.w3.org/2000/svg" xmlns:xlink="http://www.w3.org/1999/xlink" x="0px" y="0px"
	 width="723.65px" height="116.35px" viewBox="0 0 723.65 116.35" style="enable-background:new 0 0 723.65 116.35;"
	 xml:space="preserve">
<symbol  id="FlashAICB_x5F_0_x2F_Layer_1_x2F__x3C_Path_x3E__x5F_3" viewBox="46.475 -13.383 278.575 13.38">
	<g id="Layer_1_3_">
		<path style="fill-rule:evenodd;clip-rule:evenodd;fill:#04295B;" d="M312.4-8.75c-13.467-0.3-25.566-0.883-36.3-1.75
			c-21.167-1.667-34.65-2.583-40.45-2.75c-19.7-0.533-39.283,0.533-58.75,3.2c-24.2,3.333-46.566,5.433-67.1,6.3
			C87.2-2.817,69.967-3.533,58.1-5.9c-0.032-0.007-0.066-0.015-0.1-0.025C56.726-5.609,55.393-5.301,54-5
			c-2.531,0.548-5.04,1.04-7.525,1.475C64.148-0.907,79.523,0.251,92.6-0.05c13.767-0.333,33.933-1.717,60.5-4.15
			c31.133-2.833,51.3-4.517,60.5-5.05c11.167-0.633,34.833,0.117,71,2.25c16.43,0.969,29.914,1.511,40.45,1.625
			c-3.732-1.25-7.024-2.358-9.875-3.325C314.274-8.715,313.349-8.732,312.4-8.75z"/>
	</g>
</symbol>
<symbol  id="FlashAICB_x5F_0_x2F_Layer_1_x2F__x3C_Path_x3E__x5F_7" viewBox="0 -34.25 514.8 34.234">
	<g id="Layer_1_2_">
		<path style="fill-rule:evenodd;clip-rule:evenodd;fill:#04295B;" d="M489.8-24.2c-28.733,4.233-43.15,6.35-43.25,6.35
			c-21,2.733-35.566,3.617-43.7,2.65c-3.3-0.367-8.517-1.283-15.65-2.75c-8.067-1.667-14.267-2.833-18.6-3.5
			c-16.767-2.5-33.3-2.5-49.6,0c-5.9,0.9-16.833,3-32.8,6.3c-15.767,3.267-28.517,5.633-38.25,7.1
			c-32.833,4.966-62.483,5.133-88.95,0.5c-21.067-3.667-39.617-7.667-55.65-12c-10.8-2.934-21.767-4.867-32.9-5.8
			c-13.833-1.133-29.717-2.967-47.65-5.5c-9-1.233-16.6-2.367-22.8-3.4c4.967,3.067,16.9,6.5,35.8,10.3
			c18.934,3.8,38.45,6.684,58.55,8.65c12.633,1.2,27.117,3.667,43.45,7.4c15.434,3.533,30.65,5.883,45.65,7.05
			c19,1.467,41.35,1,67.05-1.4c15.567-1.433,36.317-4.117,62.25-8.05c20.167-3.067,32.783-4.717,37.85-4.95
			c8.133-0.4,21.483,0.45,40.05,2.55c16.5,1.867,42.15,0.217,76.95-4.95c17.367-2.567,33.1-5.317,47.2-8.25
			c-1.066-0.2-2.9-0.267-5.5-0.2C504.067-26,497.567-25.367,489.8-24.2z"/>
	</g>
</symbol>
<g id="Layer_1">
</g>
<g id="Layer_1_1_">
	<g>
		<g>
			<g>
				<radialGradient id="SVGID_1_" cx="361.8359" cy="58.1841" r="619.3805" gradientUnits="userSpaceOnUse">
					<stop  offset="0" style="stop-color:#0A1F3C"/>
					<stop  offset="0.8902" style="stop-color:#142E45"/>
					<stop  offset="1" style="stop-color:#153146"/>
				</radialGradient>
				<path style="fill-rule:evenodd;clip-rule:evenodd;fill:url(#SVGID_1_);" d="M710.95,45.75l0.1,0.05
					c9.8,4.233,13.884,9.4,12.25,15.5V61.4c0,4.466-3.416,8.666-10.25,12.6l0.05-0.05c-4.033,2.333-8.316,4.083-12.85,5.25h-0.05
					c-0.566,0.133-1.15,0.283-1.75,0.45h-0.101c-5.566,1.233-15.233,2.699-29,4.399h-0.05c-11.6,1.367-20.566,2.917-26.899,4.65
					l-0.051,0.05c-8.267,2.233-18.783,4.25-31.55,6.05c-0.066,0-0.116,0.017-0.149,0.05c-13.801,1.667-24.067,3.017-30.801,4.051
					l0.2-0.051c-16.166,2.934-28.333,5.134-36.5,6.601c-15.033,2.633-27.5,4.283-37.399,4.95
					c-19.134,1.366-34.65,2.433-46.551,3.199h-0.05c-17.166,1.067-32.75,1.917-46.75,2.551c-18,0.666-37.066-0.233-57.2-2.7h-0.05
					c-6.8-0.867-14.883-1.517-24.25-1.95c-11.033-0.467-19.3-0.783-24.8-0.95c-12.033-0.267-21.083-0.45-27.15-0.55
					c-11.367-0.233-20.717-0.884-28.05-1.95h0.05c-14.133-1.967-29.95-3.166-47.45-3.6c-12.5-0.3-28.566-0.217-48.2,0.25h-0.05
					c-41.967,0.866-80.617-2.134-115.95-9c-0.067,0-0.117,0-0.15,0l-0.15-0.05C33.833,94.816,29.367,94.05,26,93.35h0.05
					c-7.167-1.466-12.566-3.333-16.2-5.6l0.1,0.05c-2.267-1.366-4.083-2.85-5.45-4.45H4.45c-6.467-7.066-5.85-14.1,1.85-21.1
					c4.434-4.233,12.95-8.383,25.55-12.45c21.8-7.033,43.983-11.716,66.55-14.05c14.7-1.567,24.9-2.7,30.6-3.4
					c11.2-1.467,21.133-3.05,29.8-4.75l0.05-0.05c2.333-0.433,11.75-1.7,28.25-3.8c10.433-1.333,18.917-3.3,25.45-5.9h0.05
					c3.833-1.533,7.683-2.934,11.55-4.2h-0.05c4.867-1.633,10.35-3.25,16.45-4.85l0.1-0.05c10.167-2.567,18.2-4.4,24.1-5.5h-0.1
					c9.233-1.833,17.65-2.833,25.25-3c35.9-1.1,65.533,1.5,88.9,7.8c18.167,4.867,34.5,8.217,49,10.05
					c17.367,2.167,33.783,2.417,49.25,0.75c3.767-0.467,9.417-1.167,16.95-2.1h0.1c9.634-1.1,19.467-1.767,29.5-2
					c8.867-0.3,20.434,1.117,34.7,4.25c15.533,3.367,26.084,5.3,31.65,5.8c10.8,0.9,25.75,3.15,44.85,6.75
					c20.267,3.833,34.733,6.25,43.4,7.25c7.166,0.8,12.517,1.517,16.05,2.15c0.033,0,0.083,0,0.15,0c2,0.4,3.933,0.833,5.8,1.3
					C704.2,43.25,707.783,44.417,710.95,45.75z"/>
			</g>
			<g>
				<g>
					
						<radialGradient id="SVGID_2_" cx="362.0996" cy="120.8496" r="523.875" gradientTransform="matrix(1 0 0 -0.2625 0 152.5687)" gradientUnits="userSpaceOnUse">
						<stop  offset="0" style="stop-color:#6171B7"/>
						<stop  offset="0" style="stop-color:#18B4BC"/>
						<stop  offset="0.2275" style="stop-color:#108798"/>
						<stop  offset="0.4549" style="stop-color:#0A6279"/>
						<stop  offset="0.6667" style="stop-color:#064763"/>
						<stop  offset="0.8549" style="stop-color:#043756"/>
						<stop  offset="1" style="stop-color:#033151"/>
					</radialGradient>
					<path style="fill-rule:evenodd;clip-rule:evenodd;fill:url(#SVGID_2_);" d="M685.35,48.25c5.667,0.967,10.551,2.25,14.65,3.85
						c5.467,2.133,8.033,4.517,7.7,7.15c-0.3,2.134-2.45,4.25-6.45,6.35l-0.4-0.149c-4.1-1.601-8.983-2.867-14.649-3.8
						c-3.4-0.601-8.434-1.233-15.101-1.9c-8.5-0.867-22.649-3.017-42.449-6.45c-18.167-3.1-32.384-5.05-42.65-5.85
						c-5.5-0.434-15.983-2.184-31.45-5.25c-13.166-2.6-23.816-3.8-31.95-3.6c-9.5,0.2-18.8,0.767-27.899,1.7
						c-7.334,0.867-12.834,1.483-16.5,1.85c-15.434,1.567-31.834,1.35-49.2-0.65c-14.333-1.633-30.45-4.65-48.35-9.05
						c-22.067-5.367-50.034-7.583-83.9-6.65c-7.033,0.2-14.8,1.05-23.3,2.55c-5.7,1-13.333,2.617-22.9,4.85
						c-5.466,1.267-10.6,2.633-15.4,4.1c-3.633,1.1-7.233,2.3-10.8,3.6c-6.8,2.533-15.583,4.417-26.35,5.65
						c-15.9,1.8-24.85,2.883-26.85,3.25c-8.533,1.567-18.333,2.983-29.4,4.25c-5.533,0.633-15.417,1.633-29.65,3
						c-21.133,2-42.117,6.05-62.95,12.15c-9.6,2.833-16.483,5.7-20.65,8.6c-1.467-0.8-2.65-1.666-3.55-2.6
						c-6.2-6.5,1.583-12.95,23.35-19.35c20.6-6.067,41.567-10.117,62.9-12.15c14.3-1.367,24.2-2.367,29.7-3
						c11.067-1.267,20.85-2.684,29.35-4.25c2.233-0.4,11.183-1.5,26.85-3.3c10.8-1.233,19.583-3.1,26.35-5.6
						c3.6-1.3,7.2-2.5,10.8-3.6c4.567-1.4,9.717-2.784,15.45-4.15c9.667-2.233,17.3-3.833,22.9-4.8c8.5-1.5,16.25-2.35,23.25-2.55
						c33.9-0.934,61.867,1.283,83.9,6.65c17.934,4.4,34.05,7.417,48.35,9.05c17.367,2,33.784,2.217,49.25,0.65
						c3.667-0.367,9.167-0.983,16.5-1.85c9.101-0.934,18.4-1.5,27.9-1.7c8.134-0.2,18.767,1,31.9,3.6
						c15.466,3.066,25.949,4.816,31.449,5.25c10.301,0.8,24.534,2.75,42.7,5.85c19.8,3.433,33.95,5.583,42.45,6.45
						C677.017,47.1,682.05,47.717,685.35,48.25z"/>
					
						<radialGradient id="SVGID_3_" cx="362.0996" cy="120.8496" r="523.875" gradientTransform="matrix(1 0 0 -0.2625 0 152.5687)" gradientUnits="userSpaceOnUse">
						<stop  offset="0" style="stop-color:#6171B7"/>
						<stop  offset="0" style="stop-color:#18B4BC"/>
						<stop  offset="0.1294" style="stop-color:#149EAB"/>
						<stop  offset="0.3882" style="stop-color:#0E798E"/>
						<stop  offset="0.6275" style="stop-color:#095E79"/>
						<stop  offset="0.8392" style="stop-color:#074E6D"/>
						<stop  offset="1" style="stop-color:#064868"/>
					</radialGradient>
					<path style="fill-rule:evenodd;clip-rule:evenodd;fill:url(#SVGID_3_);" d="M700.85,65.45l0.4,0.149
						c-3.767,2-7.833,3.434-12.2,4.301c-5.267,1.066-14.399,2.316-27.399,3.75c-11.667,1.267-20.7,2.699-27.101,4.3
						c-7.767,1.934-17.649,3.666-29.649,5.2c-13.434,1.5-23.434,2.716-30,3.649c-15.601,2.566-27.351,4.483-35.25,5.75
						c-14.233,2.3-26.034,3.75-35.4,4.351c-18.5,1.199-33.5,2.133-45,2.8c-16.533,0.934-31.566,1.666-45.1,2.2
						c-17.034,0.6-35.084-0.184-54.15-2.351c-6.733-0.767-14.733-1.35-24-1.75c-10.7-0.366-18.717-0.649-24.05-0.85
						c-11.667-0.2-20.45-0.351-26.35-0.45c-10.633-0.2-19.383-0.75-26.25-1.65c-13.9-1.767-29.45-2.85-46.65-3.25
						c-12.2-0.267-27.867-0.199-47,0.2c-40.167,0.767-77.15-1.85-110.95-7.85c-5.333-0.733-9.617-1.4-12.85-2
						C36,80.85,31.533,79.467,28.5,77.8c4.167-2.899,11.05-5.767,20.65-8.6C69.983,63.1,90.967,59.05,112.1,57.05
						c14.233-1.367,24.117-2.367,29.65-3c11.067-1.267,20.867-2.683,29.4-4.25c2-0.367,10.95-1.45,26.85-3.25
						c10.767-1.233,19.55-3.117,26.35-5.65c3.566-1.3,7.167-2.5,10.8-3.6c4.8-1.466,9.934-2.833,15.4-4.1
						c9.567-2.233,17.2-3.85,22.9-4.85c8.5-1.5,16.267-2.35,23.3-2.55c33.867-0.933,61.833,1.284,83.9,6.65
						c17.899,4.4,34.017,7.417,48.35,9.05c17.366,2,33.767,2.217,49.2,0.65c3.666-0.367,9.166-0.983,16.5-1.85
						c9.1-0.933,18.399-1.5,27.899-1.7c8.134-0.2,18.784,1,31.95,3.6c15.467,3.066,25.95,4.816,31.45,5.25
						c10.267,0.8,24.483,2.75,42.65,5.85c19.8,3.434,33.949,5.583,42.449,6.45c6.667,0.667,11.7,1.3,15.101,1.9
						C691.866,62.583,696.75,63.85,700.85,65.45z"/>
					
						<radialGradient id="SVGID_4_" cx="362.9502" cy="134.2002" r="523.875" gradientTransform="matrix(1 0 0 -0.2625 0 169.4233)" gradientUnits="userSpaceOnUse">
						<stop  offset="0" style="stop-color:#6171B7"/>
						<stop  offset="0" style="stop-color:#18B4BC"/>
						<stop  offset="0.1294" style="stop-color:#149EAB"/>
						<stop  offset="0.3882" style="stop-color:#0E798E"/>
						<stop  offset="0.6275" style="stop-color:#095E79"/>
						<stop  offset="0.8392" style="stop-color:#074E6D"/>
						<stop  offset="1" style="stop-color:#064868"/>
					</radialGradient>
					<path style="fill-rule:evenodd;clip-rule:evenodd;fill:url(#SVGID_4_);" d="M700.85,65.45l0.4,0.149
						c-3.767,2-7.833,3.434-12.2,4.301c-5.267,1.066-14.399,2.316-27.399,3.75c-11.667,1.267-20.7,2.699-27.101,4.3
						c-7.767,1.934-17.649,3.666-29.649,5.2c-13.434,1.5-23.434,2.716-30,3.649c-15.601,2.566-27.351,4.483-35.25,5.75
						c-14.233,2.3-26.034,3.75-35.4,4.351c-18.5,1.199-33.5,2.133-45,2.8c-16.533,0.934-31.566,1.666-45.1,2.2
						c-17.034,0.6-35.084-0.184-54.15-2.351c-6.733-0.767-14.733-1.35-24-1.75c-10.7-0.366-18.717-0.649-24.05-0.85
						c-11.667-0.2-20.45-0.351-26.35-0.45c-10.633-0.2-19.383-0.75-26.25-1.65c-13.9-1.767-29.45-2.85-46.65-3.25
						c-12.2-0.267-27.867-0.199-47,0.2c-40.167,0.767-77.15-1.85-110.95-7.85c-5.333-0.733-9.617-1.4-12.85-2
						C36,80.85,31.533,79.467,28.5,77.8c4.167-2.899,11.05-5.767,20.65-8.6C69.983,63.1,90.967,59.05,112.1,57.05
						c14.233-1.367,24.117-2.367,29.65-3c11.067-1.267,20.867-2.683,29.4-4.25c2-0.367,10.95-1.45,26.85-3.25
						c10.767-1.233,19.55-3.117,26.35-5.65c3.566-1.3,7.167-2.5,10.8-3.6c4.8-1.466,9.934-2.833,15.4-4.1
						c9.567-2.233,17.2-3.85,22.9-4.85c8.5-1.5,16.267-2.35,23.3-2.55c33.867-0.933,61.833,1.284,83.9,6.65
						c17.899,4.4,34.017,7.417,48.35,9.05c17.366,2,33.767,2.217,49.2,0.65c3.666-0.367,9.166-0.983,16.5-1.85
						c9.1-0.933,18.399-1.5,27.899-1.7c8.134-0.2,18.784,1,31.95,3.6c15.467,3.066,25.95,4.816,31.45,5.25
						c10.267,0.8,24.483,2.75,42.65,5.85c19.8,3.434,33.949,5.583,42.449,6.45c6.667,0.667,11.7,1.3,15.101,1.9
						C691.866,62.583,696.75,63.85,700.85,65.45z"/>
				</g>
				
					<use xlink:href="#FlashAICB_x5F_0_x2F_Layer_1_x2F__x3C_Path_x3E__x5F_7"  width="514.8" height="34.234" y="-34.25" transform="matrix(1 0 0 -1 110.1001 53.8999)" style="overflow:visible;opacity:0.1719;enable-background:new    ;"/>
				<linearGradient id="SVGID_5_" gradientUnits="userSpaceOnUse" x1="235.5625" y1="31.3936" x2="395.4375" y2="31.3936">
					<stop  offset="0" style="stop-color:#3FA8A9"/>
					<stop  offset="0.1647" style="stop-color:#3AA1A7"/>
					<stop  offset="0.6196" style="stop-color:#2F93A2"/>
					<stop  offset="1" style="stop-color:#2C8EA1"/>
				</linearGradient>
				<path style="fill-rule:evenodd;clip-rule:evenodd;fill:url(#SVGID_5_);" d="M378.55,31.85c-9.006-1.695-19.256-3.044-30.75-4.05
					c-38.867-3.433-76.083-0.283-111.65,9.45c-6.167,1.667-4.717,1.183,4.35-1.45c5.767-1.7,12.117-3.3,19.05-4.8
					c22.534-4.9,42.8-7,60.8-6.3c17.633,0.733,34.367,2.566,50.2,5.5C372.749,30.604,375.416,31.155,378.55,31.85
					c6.229,1.168,11.861,2.502,16.9,4C388.803,34.203,383.169,32.87,378.55,31.85z"/>
				<linearGradient id="SVGID_6_" gradientUnits="userSpaceOnUse" x1="445.9004" y1="47.8037" x2="651.4004" y2="47.8037">
					<stop  offset="0" style="stop-color:#3FA8A9"/>
					<stop  offset="0.1647" style="stop-color:#3AA1A7"/>
					<stop  offset="0.6196" style="stop-color:#2F93A2"/>
					<stop  offset="1" style="stop-color:#2C8EA1"/>
				</linearGradient>
				<path style="fill-rule:evenodd;clip-rule:evenodd;fill:url(#SVGID_6_);" d="M651.4,57c-22.7-3.533-39.967-6.05-51.801-7.55
					c-6-0.733-16.166-2.4-30.5-5c-13.399-2.4-21.966-3.784-25.699-4.15c-2.334-0.233-7.067-0.1-14.2,0.4
					c-9.566,0.733-17.3,1.316-23.2,1.75c-23.667,1.633-43.333,1.85-59,0.65c-2.4-0.167,2.083-0.417,13.45-0.75
					c16.1-0.4,28.017-0.9,35.75-1.5c17.533-1.333,28.467-2.05,32.8-2.15c12.2-0.367,22.533,0.35,31,2.15
					c7.3,1.566,14.717,2.783,22.25,3.65c10.033,1.167,17.65,2.183,22.85,3.05c8.534,1.367,18.15,3.217,28.851,5.55
					C639.55,54.3,645.366,55.6,651.4,57z"/>
				<linearGradient id="SVGID_7_" gradientUnits="userSpaceOnUse" x1="84.9502" y1="53.75" x2="184.7358" y2="53.75">
					<stop  offset="0" style="stop-color:#3FA8A9"/>
					<stop  offset="0.1647" style="stop-color:#3AA1A7"/>
					<stop  offset="0.6196" style="stop-color:#2F93A2"/>
					<stop  offset="1" style="stop-color:#2C8EA1"/>
				</linearGradient>
				<path style="fill-rule:evenodd;clip-rule:evenodd;fill:url(#SVGID_7_);" d="M136.5,54.05c15.533-1.933,24.783-3.117,27.75-3.55
					c7.7-1.1,14.1-2.2,19.2-3.3c1,0,1.417,0.117,1.25,0.35c-0.333,0.434-3.367,1.217-9.1,2.35c-6.5,1.267-15.483,2.633-26.95,4.1
					c-10.5,1.367-20.15,2.433-28.95,3.2l-34.75,3.1c2.633-0.5,10.783-1.533,24.45-3.1C116.633,56.367,125.667,55.317,136.5,54.05z"
					/>
			</g>
		</g>
		
			<use xlink:href="#FlashAICB_x5F_0_x2F_Layer_1_x2F__x3C_Path_x3E__x5F_3"  width="278.575" height="13.38" x="46.475" y="-13.383" transform="matrix(1 0 0 -1 205 95.7998)" style="overflow:visible;opacity:0.1719;enable-background:new    ;"/>
	</g>
</g>
</svg>
