<?xml version="1.0" encoding="iso-8859-1"?>
<!-- Generator: Adobe Illustrator 15.1.0, SVG Export Plug-In . SVG Version: 6.00 Build 0)  -->
<!DOCTYPE svg PUBLIC "-//W3C//DTD SVG 1.1//EN" "http://www.w3.org/Graphics/SVG/1.1/DTD/svg11.dtd">
<svg version="1.1" id="Layer_1" xmlns="http://www.w3.org/2000/svg" xmlns:xlink="http://www.w3.org/1999/xlink" x="0px" y="0px"
	 width="149px" height="136.5px" viewBox="0 0 149 136.5" style="enable-background:new 0 0 149 136.5;" xml:space="preserve">
<g>
	<path style="fill-rule:evenodd;clip-rule:evenodd;fill:#706359;" d="M133.1,45.2c0.7,0.466,2.634,1.867,5.801,4.2
		c2.366,1.733,4.366,3.067,6,4c2.133,1.2,3.316,2.217,3.55,3.05c0.166,0.633-0.184,2.133-1.05,4.5
		c-0.634,1.833-1.051,3.883-1.25,6.15c-0.134,1.233-0.217,3.266-0.25,6.1c-0.034,2-0.784,4.383-2.25,7.149
		c-1.867,3.434-2.967,5.75-3.301,6.95c-0.366,1.367-0.899,3.634-1.6,6.8c-0.733,2.801-1.684,4.967-2.85,6.5
		c-0.4,0.5-1.75,2.517-4.051,6.051c-1.666,2.5-3.233,4.449-4.699,5.85c-3.233,3.033-7.517,5.733-12.851,8.1
		c-5.866,2.634-11,3.867-15.399,3.7c-0.034,0-2.9,0.084-8.601,0.25c-3.166,0.066-5.934-0.283-8.3-1.05
		c-3.767-0.967-6.634-1.75-8.6-2.35c-3.533-1.034-6.033-2.233-7.5-3.601c-0.667-0.6-1.333-1.467-2-2.6
		c-0.8-1.3-1.383-2.167-1.75-2.601c-0.5-0.566-1.15-1.166-1.95-1.8c-0.967-0.733-1.717-1.3-2.25-1.7
		c-1.667-1.333-3.167-3.133-4.5-5.399c-1.4-2.634-2.517-4.617-3.35-5.95c-0.7-1.066-1.85-2.583-3.45-4.55
		c-1.633-2-2.783-3.517-3.45-4.55c-0.7-1.101-1.467-2.517-2.3-4.25c-1.133-2.367-1.833-3.817-2.1-4.351
		c-0.433-0.833-1.233-1.783-2.4-2.85c-1.433-1.3-2.35-2.217-2.75-2.75c0.367,0.166,0.883,0.316,1.55,0.45
		c-0.8-0.267-1.617-1.101-2.45-2.5c-0.8-1.601-1.317-2.634-1.55-3.101c-1.7-3.267-2.967-6.167-3.8-8.7c-0.867-3.3-1.533-5.75-2-7.35
		c-0.767-2.9-1.683-5.3-2.75-7.2c-1.967-3.2-3.417-5.617-4.35-7.25c-1.7-2.867-2.85-5.383-3.45-7.55
		c-0.567-2.033-2.25-4.717-5.05-8.05c-3.066-3.633-4.933-6.25-5.6-7.85c-0.7-1.7-1.383-4.233-2.05-7.6C1.517,4.233,0.8,1.733,0,0
		l8.5,5.35c0.733,0.467,1.333,1.933,1.8,4.4l0.95,4.95c1.6,4.167,3.317,7.466,5.15,9.9c0.9,1.2,1.567,2.833,2,4.9
		c0.533,2.5,0.983,4.167,1.35,5c0.567,1.233,1.65,2.683,3.25,4.35c1.867,1.967,3.05,3.316,3.55,4.05c0.733,1.067,1.367,2.733,1.9,5
		c0.566,2.434,1.117,4.133,1.65,5.1c0.833,1.567,2.117,3.917,3.85,7.05c0.533,1.067,1.283,2.55,2.25,4.45
		c0.833,1.6,1.716,3.067,2.65,4.4c1.333,1.833,2.633,3.7,3.9,5.6c0.7,1.033,2.35,4.783,4.95,11.25c0.4,0.866,1.267,1.95,2.6,3.25
		c1.434,1.366,2.383,2.45,2.85,3.25c0.6,1,1.45,2.517,2.55,4.55c1.066,1.733,2.267,3.066,3.6,4c0.267-0.399,0.317-0.883,0.15-1.45
		c-0.267-0.633-0.467-1.116-0.6-1.449c0.933,0.5,1.533,1.267,1.8,2.3c0.167,0.6,0.367,1.517,0.6,2.75
		c0.333,0.967,1.4,2.149,3.2,3.55c1.9,1.467,3.066,2.667,3.5,3.6c0.7,1.5,1.883,2.867,3.55,4.101c0.533,0.434,1.3,0.733,2.3,0.899
		c0.566,0.101,1.483,0.233,2.75,0.4c1.267,0.233,3.3,1.05,6.101,2.45c2.366,1.166,4.566,1.733,6.6,1.7c1.066,0,3.134,0,6.2,0
		c2.7-0.134,4.566-0.601,5.6-1.4c-0.166-0.467-0.55-0.75-1.149-0.85c-0.601-0.101-1.284-0.034-2.051,0.199
		c0.801-0.699,2.184-1.05,4.15-1.05c2.767-0.033,4.283-0.083,4.55-0.149c3.367-0.667,6.384-1.767,9.05-3.301
		c4.867-2.666,8.9-6.649,12.101-11.949c1-1.634,1.633-3.884,1.899-6.75c0.301-3.434,0.65-5.733,1.051-6.9
		c0.3-0.833,1.283-2.95,2.949-6.35c1.233-2.5,1.934-4.65,2.101-6.45c0-0.101,0.416-2.283,1.25-6.55c0.467-2.633,0.467-4.783,0-6.45
		l-0.25-1c-0.033-0.1-0.434-2.733-1.2-7.9C135,49.567,134.2,47.033,133.1,45.2z"/>
	<g>
		
			<radialGradient id="SVGID_1_" cx="84.8496" cy="88.5498" r="33.7502" gradientTransform="matrix(-1 -0.0036 0.0031 -0.8593 169.4266 164.9399)" gradientUnits="userSpaceOnUse">
			<stop  offset="0" style="stop-color:#88CAB2"/>
			<stop  offset="0.2235" style="stop-color:#7EC3AD"/>
			<stop  offset="0.6" style="stop-color:#64AFA0"/>
			<stop  offset="1" style="stop-color:#42958F"/>
		</radialGradient>
		<path style="fill-rule:evenodd;clip-rule:evenodd;fill:url(#SVGID_1_);" d="M75.95,94.55l0.1-4.35c0.5,2.666,1.967,4.816,4.4,6.45
			c1.5,1.033,4.649,2.483,9.45,4.35c3.966,1.566,6.733,3.884,8.3,6.95c1.233,2.399,1.633,4.95,1.2,7.649
			c-0.534,0.634-1.351,1.184-2.45,1.65c-2.167,0.967-4.634,1.066-7.4,0.3c-3.733-1-6.633-2.816-8.7-5.45
			c-1.533-2-2.783-4.816-3.75-8.449C76.4,101.017,76.017,97.983,75.95,94.55z"/>
		
			<radialGradient id="SVGID_2_" cx="86.4502" cy="99.2002" r="26.5627" gradientTransform="matrix(-1 -0.0035 0.003 -0.8588 172.5995 184.6998)" gradientUnits="userSpaceOnUse">
			<stop  offset="0" style="stop-color:#88CAB2"/>
			<stop  offset="0.2784" style="stop-color:#80C0AD"/>
			<stop  offset="0.7412" style="stop-color:#6AA6A1"/>
			<stop  offset="1" style="stop-color:#5B9599"/>
		</radialGradient>
		<path style="fill-rule:evenodd;clip-rule:evenodd;fill:url(#SVGID_2_);" d="M77.7,97.6l-0.9-3L78,96.15
			c1,1.166,2.033,2.033,3.1,2.6c0.467,0.267,2.184,0.983,5.15,2.15c2.6,1,4.667,2.017,6.2,3.05c1.267,0.833,2.383,1.934,3.35,3.3
			c1.066,1.566,1.617,3.017,1.65,4.35c0,0.5-0.066,0.95-0.2,1.351c-0.767-1.334-1.833-2.684-3.2-4.05
			c-1.066-1.067-2.8-2.301-5.2-3.7c-0.866-0.5-1.616-0.867-2.25-1.101c2.2,1.867,3.801,3.301,4.801,4.301
			c1.733,1.767,2.949,3.449,3.649,5.05c-0.399-0.167-0.833-0.45-1.3-0.851c-0.099-0.088-0.19-0.172-0.275-0.25
			c0.464,0.513,0.772,1.096,0.926,1.75c0.3,1.167-0.167,1.884-1.4,2.15c-1.3,0.267-2.8,0.05-4.5-0.65
			c-1.4-0.566-2.65-1.316-3.75-2.25c-1.333-1.1-2.634-3-3.9-5.699c-1.1-2.301-1.767-4.134-2-5.5
			C78.684,101.283,78.3,99.767,77.7,97.6z"/>
	</g>
	<g>
		
			<radialGradient id="SVGID_3_" cx="-98.0293" cy="-39.2695" r="30.4394" gradientTransform="matrix(-0.5675 -0.8234 -0.703 0.4846 -59.9409 41.3161)" gradientUnits="userSpaceOnUse">
			<stop  offset="0" style="stop-color:#88CAB2"/>
			<stop  offset="0.2235" style="stop-color:#7EC3AD"/>
			<stop  offset="0.6" style="stop-color:#64AFA0"/>
			<stop  offset="1" style="stop-color:#42958F"/>
		</radialGradient>
		<path style="fill-rule:evenodd;clip-rule:evenodd;fill:url(#SVGID_3_);" d="M38.7,88.15c2.966,0.166,5.783,1.383,8.45,3.649
			c1.967,1.7,3.15,3.601,3.55,5.7c0.2,1.066,0.2,1.95,0,2.65c-1.767,1.666-3.85,2.649-6.25,2.949c-3.067,0.4-6.184-0.483-9.35-2.649
			c-3.9-2.634-6.583-4.25-8.05-4.851c-2.433-0.966-4.767-0.966-7,0c0.833-0.666,1.883-1.416,3.15-2.25c2.566-1.666,5-2.916,7.3-3.75
			C33.733,88.5,36.467,88.017,38.7,88.15z"/>
		
			<radialGradient id="SVGID_4_" cx="-99.5435" cy="-29.7725" r="23.959" gradientTransform="matrix(-0.5677 -0.8232 -0.7028 0.4846 -45.4339 31.331)" gradientUnits="userSpaceOnUse">
			<stop  offset="0" style="stop-color:#88CAB2"/>
			<stop  offset="0.2784" style="stop-color:#80C0AD"/>
			<stop  offset="0.7412" style="stop-color:#6AA6A1"/>
			<stop  offset="1" style="stop-color:#5B9599"/>
		</radialGradient>
		<path style="fill-rule:evenodd;clip-rule:evenodd;fill:url(#SVGID_4_);" d="M37.65,97.55c2.3,1.066,4.1,1.733,5.4,2
			c1.667,0.334,3.2,0.45,4.6,0.351c-0.267,0.333-0.566,0.616-0.9,0.85c-1,0.634-2.333,0.95-4,0.95c-1.567-0.033-2.967-0.3-4.2-0.8
			c-1.533-0.634-3.333-1.667-5.4-3.101c-2.333-1.6-3.733-2.517-4.2-2.75c-0.967-0.5-2.133-0.833-3.5-1l-1.8-0.1L26.3,93.1
			c1.934-0.666,3.267-1.149,4-1.449c1.133-0.5,2.817-0.934,5.05-1.301c2.7-0.399,4.783-0.383,6.25,0.051
			c1.267,0.366,2.467,0.916,3.6,1.649c1.367,0.9,2.283,1.9,2.75,3c0.433,1.033,0.15,1.75-0.85,2.15
			c-0.651,0.241-1.318,0.291-2,0.149c0.146,0.044,0.313,0.095,0.5,0.15c0.566,0.134,1,0.3,1.3,0.5c-1.533,0.3-3.383,0.25-5.55-0.15
			c-1.267-0.233-3.15-0.699-5.65-1.399C36.167,96.783,36.817,97.15,37.65,97.55z"/>
	</g>
	<g>
		
			<radialGradient id="SVGID_5_" cx="115.4004" cy="130.75" r="30.4364" gradientTransform="matrix(0.5601 0.8284 -0.6961 0.4707 141.7748 -26.3897)" gradientUnits="userSpaceOnUse">
			<stop  offset="0" style="stop-color:#88CAB2"/>
			<stop  offset="0.2235" style="stop-color:#7EC3AD"/>
			<stop  offset="0.6" style="stop-color:#64AFA0"/>
			<stop  offset="1" style="stop-color:#42958F"/>
		</radialGradient>
		<path style="fill-rule:evenodd;clip-rule:evenodd;fill:url(#SVGID_5_);" d="M127.7,106.5l2.45,1c1.8,1.167,3.133,2.95,4,5.35
			c1.166,3.301,1.3,6.351,0.399,9.15c-0.666,2.134-2.083,4.483-4.25,7.05c-1.566,1.834-3.566,3.634-6,5.4
			c-1.233,0.866-2.3,1.55-3.2,2.05c1.667-1.7,2.483-3.85,2.45-6.45c-0.033-1.633-0.583-4.717-1.649-9.25
			c-0.867-3.733-0.584-6.95,0.85-9.649C123.884,109.05,125.533,107.5,127.7,106.5z"/>
		
			<radialGradient id="SVGID_6_" cx="122.2998" cy="124.2998" r="23.9462" gradientTransform="matrix(0.5601 0.8285 -0.6958 0.4704 140.293 -35.4875)" gradientUnits="userSpaceOnUse">
			<stop  offset="0" style="stop-color:#88CAB2"/>
			<stop  offset="0.2784" style="stop-color:#80C0AD"/>
			<stop  offset="0.7412" style="stop-color:#6AA6A1"/>
			<stop  offset="1" style="stop-color:#5B9599"/>
		</radialGradient>
		<path style="fill-rule:evenodd;clip-rule:evenodd;fill:url(#SVGID_6_);" d="M125.8,109.9c0.467-0.267,0.834-0.434,1.101-0.5
			c-0.634,1.333-1.084,2.8-1.351,4.399c-0.166,1.066-0.184,2.967-0.05,5.7c0.066,0.767,0.167,1.5,0.3,2.2
			c0.233-2.566,0.483-4.467,0.75-5.7c0.4-2.167,1-3.9,1.8-5.2c0.088,0.414,0.104,0.947,0.051,1.601
			c0.149-0.543,0.416-1.026,0.8-1.45c0.666-0.8,1.416-0.8,2.25,0c0.833,0.833,1.434,2.05,1.8,3.649c0.3,1.301,0.384,2.601,0.25,3.9
			c-0.134,1.533-0.85,3.45-2.15,5.75c-1.1,1.967-2.083,3.384-2.949,4.25c-0.9,0.866-2.4,2.616-4.5,5.25
			c0.733-1.8,1.017-3.566,0.85-5.3c-0.033-0.434-0.384-2.05-1.05-4.851c-0.601-2.433-0.917-4.483-0.95-6.149
			c-0.033-1.367,0.217-2.75,0.75-4.15C124.066,111.7,124.833,110.566,125.8,109.9z"/>
	</g>
	<g>
		
			<radialGradient id="SVGID_7_" cx="169.6475" cy="-62.6011" r="19.8761" gradientTransform="matrix(0.5603 0.8283 0.7244 -0.49 97.2044 -65.7467)" gradientUnits="userSpaceOnUse">
			<stop  offset="0" style="stop-color:#88CAB2"/>
			<stop  offset="0.2235" style="stop-color:#7EC3AD"/>
			<stop  offset="0.6" style="stop-color:#64AFA0"/>
			<stop  offset="1" style="stop-color:#42958F"/>
		</radialGradient>
		<path style="fill-rule:evenodd;clip-rule:evenodd;fill:url(#SVGID_7_);" d="M141.95,114.25c-2.134,0.767-3.95,1.1-5.45,1
			c-1.967-0.1-3.816-0.9-5.55-2.4c-1.267-1.1-2.017-2.35-2.25-3.75v-1.75c1.2-1.1,2.6-1.75,4.2-1.949
			c2.066-0.267,4.133,0.316,6.199,1.75c2.5,1.699,4.25,2.75,5.25,3.149c1.601,0.634,3.15,0.634,4.65,0
			C146.767,112.066,144.417,113.384,141.95,114.25z"/>
		
			<radialGradient id="SVGID_8_" cx="168.6592" cy="-56.3091" r="15.6463" gradientTransform="matrix(0.56 0.8285 0.7246 -0.4898 87.4524 -59.1108)" gradientUnits="userSpaceOnUse">
			<stop  offset="0" style="stop-color:#88CAB2"/>
			<stop  offset="0.2784" style="stop-color:#80C0AD"/>
			<stop  offset="0.7412" style="stop-color:#6AA6A1"/>
			<stop  offset="1" style="stop-color:#5B9599"/>
		</radialGradient>
		<path style="fill-rule:evenodd;clip-rule:evenodd;fill:url(#SVGID_8_);" d="M146.55,111.4c-2.166,0.666-3.633,1.183-4.399,1.55
			c-0.801,0.333-1.934,0.616-3.4,0.85c-1.767,0.267-3.134,0.25-4.1-0.05c-0.867-0.233-1.65-0.583-2.351-1.05
			c-0.899-0.601-1.5-1.267-1.8-2c-0.3-0.667-0.116-1.134,0.55-1.4c0.379-0.126,0.762-0.168,1.15-0.125
			c-0.439-0.124-0.773-0.266-1-0.425c1.533-0.267,4,0.066,7.399,1l-1.3-0.7c-1.633-0.733-2.8-1.166-3.5-1.3
			c-1.233-0.233-2.267-0.3-3.1-0.2c0.166-0.2,0.383-0.383,0.649-0.55c0.667-0.434,1.551-0.65,2.65-0.65c1,0,1.934,0.167,2.8,0.5
			c1,0.434,2.184,1.117,3.55,2.051c1.534,1.066,2.434,1.666,2.7,1.8C144.083,111.2,145.25,111.434,146.55,111.4z"/>
	</g>
	<g>
		
			<radialGradient id="SVGID_9_" cx="44.3501" cy="52.2002" r="21.0983" gradientTransform="matrix(-0.8449 -0.535 0.4746 -0.7495 57.0469 115.0488)" gradientUnits="userSpaceOnUse">
			<stop  offset="0" style="stop-color:#88CAB2"/>
			<stop  offset="0.2235" style="stop-color:#7EC3AD"/>
			<stop  offset="0.6" style="stop-color:#64AFA0"/>
			<stop  offset="1" style="stop-color:#42958F"/>
		</radialGradient>
		<path style="fill-rule:evenodd;clip-rule:evenodd;fill:url(#SVGID_9_);" d="M36.9,69.6c-1.633-1.8-2.55-3.75-2.75-5.85
			c-0.133-1.633,0.184-3.6,0.95-5.9c0.533-1.7,1.367-3.483,2.5-5.35l1.5-2.35c-0.633,1.6-0.583,3.25,0.15,4.95
			c0.433,1.033,1.6,2.883,3.5,5.55C44.317,62.817,45,65,44.8,67.2c-0.2,1.733-0.867,3.267-2,4.6c-0.5,0.167-1.133,0.2-1.9,0.101
			C39.433,71.667,38.1,70.9,36.9,69.6z"/>
		
			<radialGradient id="SVGID_10_" cx="41.5498" cy="58.5" r="16.6039" gradientTransform="matrix(-0.8448 -0.5351 0.4744 -0.749 48.8964 124.5492)" gradientUnits="userSpaceOnUse">
			<stop  offset="0" style="stop-color:#88CAB2"/>
			<stop  offset="0.2784" style="stop-color:#80C0AD"/>
			<stop  offset="0.7412" style="stop-color:#6AA6A1"/>
			<stop  offset="1" style="stop-color:#5B9599"/>
		</radialGradient>
		<path style="fill-rule:evenodd;clip-rule:evenodd;fill:url(#SVGID_10_);" d="M39.2,70c-0.8-0.3-1.534-0.917-2.2-1.85
			c-0.533-0.767-0.933-1.6-1.2-2.5c-0.3-1.033-0.333-2.5-0.1-4.4c0.2-1.6,0.466-2.817,0.8-3.65c0.233-0.533,0.55-1.483,0.95-2.85
			L38,52.8l0.1,1.25c0.167,0.967,0.433,1.784,0.8,2.45c0.167,0.333,0.817,1.283,1.95,2.85c1.033,1.433,1.783,2.683,2.25,3.75
			c0.367,0.867,0.583,1.85,0.65,2.95c0.033,1.2-0.167,2.167-0.6,2.9l-0.6,0.649c0.067-0.966-0.033-2.05-0.3-3.25
			c-0.233-0.967-0.733-2.217-1.5-3.75c-0.2-0.467-0.467-0.917-0.8-1.35c0.533,1.8,0.883,3.117,1.05,3.95
			c0.3,1.533,0.367,2.85,0.2,3.95c-0.133-0.2-0.25-0.5-0.35-0.9c-0.133-0.467-0.233-0.767-0.3-0.9c0.267,0.667,0.3,1.316,0.1,1.95
			C40.417,70.033,39.933,70.267,39.2,70z"/>
	</g>
</g>
</svg>
