<?xml version="1.0" encoding="iso-8859-1"?>
<!-- Generator: Adobe Illustrator 15.1.0, SVG Export Plug-In . SVG Version: 6.00 Build 0)  -->
<!DOCTYPE svg PUBLIC "-//W3C//DTD SVG 1.1//EN" "http://www.w3.org/Graphics/SVG/1.1/DTD/svg11.dtd">
<svg version="1.1" id="Layer_1" xmlns="http://www.w3.org/2000/svg" xmlns:xlink="http://www.w3.org/1999/xlink" x="0px" y="0px"
	 width="51.6px" height="158.85px" viewBox="0 0 51.6 158.85" style="enable-background:new 0 0 51.6 158.85;" xml:space="preserve"
	>
<g>
	<path style="fill-rule:evenodd;clip-rule:evenodd;fill:#4F4544;" d="M38.3,0.2c0.3,1.433,0.45,4,0.45,7.7
		c-0.033,1.833-0.35,3.967-0.95,6.4c-1,3.934-1.517,6-1.55,6.2c-0.5,2.6-0.7,6.517-0.6,11.75C35.75,37.483,35.533,41.4,35,44
		c-0.167,0.967-0.217,2.233-0.15,3.8c0.067,2.367,0.101,3.767,0.101,4.2c0,1.033-0.134,3.433-0.4,7.2
		c-0.166,4.033-0.066,7.816,0.3,11.35c0.2,1.9,0.15,6.217-0.149,12.95c-0.267,5.434,0.033,9.634,0.899,12.6
		c0.4,1.467,1.15,3.551,2.25,6.25c0.733,2.4,0.733,4.65,0,6.75c0.101-2.966-0.983-5.517-3.25-7.649
		c-0.733,2.066-0.399,6.149,1,12.25c1.534,6.7,2.084,11.7,1.65,15c-0.2,1.633-0.634,4.3-1.3,8c-0.434,2.5-0.667,4.566-0.7,6.2
		c-0.033,3.666,1.483,6.6,4.55,8.8c3.101,2.233,5.417,1.85,6.95-1.15c0.934-1.866,0.384-3.05-1.65-3.55
		c-2.1-0.533-3.316-0.033-3.649,1.5c-0.367-1.8,0.616-3.05,2.95-3.75c2.399-0.667,4.283-0.184,5.649,1.45
		c1.533,1.8,1.783,3.75,0.75,5.85c-1.033,2.033-2.833,3.4-5.399,4.101c1.066,0.399,2.199,0.366,3.399-0.101
		c0.134-0.066,1.066-0.55,2.8-1.45c-1.966,3.5-5.583,4.851-10.85,4.051c-2.233-0.367-4.1-1.134-5.6-2.301
		c-1.601-1.3-2.417-2.866-2.45-4.699c0,0.866-0.25,1.666-0.75,2.399c-0.533,0.8-1.25,1.283-2.15,1.45
		c0.967-0.934,1.351-2.134,1.15-3.6c-0.467-1.667-0.783-2.917-0.95-3.75c-0.366-1.801-0.366-4.217,0-7.25
		c0.7-3.667,1.2-6.434,1.5-8.301c0.566-3.3,0.6-6.066,0.1-8.3c-1.3-5.633-2.116-9.616-2.449-11.95
		c-0.9-5.633-1.134-10.716-0.7-15.25c0.6-6.1,0.95-10.25,1.05-12.449c0.134-3.267,0-6.317-0.4-9.15
		c-0.366-2.433-0.466-5.683-0.3-9.75c0.3-7.6,0.45-12.183,0.45-13.75l0.05-9.3L28,44.8c-0.8,1.934-1.017,4.333-0.65,7.2
		c-0.466-1.133-0.8-2.483-1-4.05c-0.366-3.1,0.15-5.667,1.551-7.7c1.399-2,2.1-3.517,2.1-4.55c-0.2-1.3-0.217-2.684-0.05-4.15
		c0.166-1.433,0.217-3.883,0.149-7.35c-0.066-3.067,0.051-5.367,0.351-6.9c0.666-3.167,0.733-7.017,0.2-11.55
		c-0.4-3.3-0.284-4.983,0.35-5.05c0.566,0,1.816-0.167,3.75-0.5C36.116-0.033,37.3-0.033,38.3,0.2z"/>
	<g>
		
			<radialGradient id="SVGID_1_" cx="50.3525" cy="96.6309" r="29.009" gradientTransform="matrix(0.998 0.0638 -0.0711 0.8954 -0.7796 9.8145)" gradientUnits="userSpaceOnUse">
			<stop  offset="0" style="stop-color:#41AD98"/>
			<stop  offset="0.3255" style="stop-color:#3BA396"/>
			<stop  offset="0.8667" style="stop-color:#2B8992"/>
			<stop  offset="1" style="stop-color:#268291"/>
		</radialGradient>
		<path style="fill-rule:evenodd;clip-rule:evenodd;fill:url(#SVGID_1_);" d="M32,74.55l2.2-1.35c1.934-0.733,4.05-0.7,6.35,0.1
			c3.167,1.1,5.533,2.883,7.101,5.35c1.166,1.833,2.05,4.417,2.649,7.75c0.434,2.433,0.566,5.183,0.4,8.25
			c-0.101,1.533-0.233,2.816-0.4,3.85c-0.233-2.4-1.333-4.4-3.3-6c-1.233-1-3.85-2.467-7.85-4.4
			c-3.301-1.566-5.517-3.783-6.65-6.649C31.6,79.217,31.434,76.917,32,74.55z"/>
		
			<radialGradient id="SVGID_2_" cx="48.9004" cy="87.0771" r="22.8219" gradientTransform="matrix(0.9979 0.0641 -0.0707 0.8955 -0.6974 8.8372)" gradientUnits="userSpaceOnUse">
			<stop  offset="0" style="stop-color:#88CAB2"/>
			<stop  offset="0.2784" style="stop-color:#80C0AD"/>
			<stop  offset="0.7412" style="stop-color:#6AA6A1"/>
			<stop  offset="1" style="stop-color:#5B9599"/>
		</radialGradient>
		<path style="fill-rule:evenodd;clip-rule:evenodd;fill:url(#SVGID_2_);" d="M36.75,77.625c-0.303-0.437-0.502-0.928-0.6-1.475
			c-0.167-1.066,0.283-1.683,1.35-1.85c1.134-0.167,2.4,0.1,3.8,0.8c1.167,0.6,2.2,1.35,3.101,2.25c1.066,1.066,2.066,2.833,3,5.3
			c0.767,2.133,1.199,3.8,1.3,5c0.133,1.267,0.55,3.55,1.25,6.85c-0.867-1.7-2-3.017-3.4-3.95c-0.366-0.233-1.783-0.95-4.25-2.149
			c-2.166-1.034-3.883-2.051-5.149-3.051c-1.034-0.833-1.9-1.883-2.601-3.149c-0.833-1.434-1.217-2.75-1.149-3.95
			c0-0.4,0.083-0.8,0.25-1.2c0.6,1.3,1.416,2.567,2.449,3.8C36.9,81.816,38.316,83,40.35,84.4l1.801,1.149
			c-1.733-1.767-3-3.149-3.801-4.149c-1.366-1.667-2.3-3.234-2.8-4.7C35.91,76.891,36.311,77.199,36.75,77.625z"/>
	</g>
	<g>
		
			<radialGradient id="SVGID_3_" cx="9.98" cy="-136.6182" r="20.129" gradientTransform="matrix(-0.9731 0.2304 0.2583 0.8831 73.704 251.9417)" gradientUnits="userSpaceOnUse">
			<stop  offset="0" style="stop-color:#41AD98"/>
			<stop  offset="0.3255" style="stop-color:#3BA396"/>
			<stop  offset="0.8667" style="stop-color:#2B8992"/>
			<stop  offset="1" style="stop-color:#268291"/>
		</radialGradient>
		<path style="fill-rule:evenodd;clip-rule:evenodd;fill:url(#SVGID_3_);" d="M26.25,115.15c1.467-0.801,2.934-1.067,4.4-0.801
			c0.699,0.167,1.267,0.4,1.699,0.7c0.7,1.601,0.917,3.217,0.65,4.851c-0.366,2.1-1.566,3.899-3.6,5.399
			c-2.434,1.8-4.017,3.117-4.75,3.95c-1.1,1.333-1.566,2.85-1.4,4.55c-1.067-2.866-1.65-5.666-1.75-8.399
			c-0.1-2.367,0.133-4.267,0.7-5.7C22.9,117.8,24.25,116.283,26.25,115.15z"/>
		
			<radialGradient id="SVGID_4_" cx="8.9565" cy="-129.8306" r="15.8388" gradientTransform="matrix(-0.9731 0.2304 0.2581 0.8831 69.9714 239.4414)" gradientUnits="userSpaceOnUse">
			<stop  offset="0" style="stop-color:#88CAB2"/>
			<stop  offset="0.2784" style="stop-color:#80C0AD"/>
			<stop  offset="0.7412" style="stop-color:#6AA6A1"/>
			<stop  offset="1" style="stop-color:#5B9599"/>
		</radialGradient>
		<path style="fill-rule:evenodd;clip-rule:evenodd;fill:url(#SVGID_4_);" d="M28.95,120.55c-0.367,0.767-1.033,1.867-2,3.3l1.1-1
			c1.2-1.267,1.983-2.25,2.351-2.949c0.566-1.067,0.949-2.051,1.149-2.95c0.2,0.333,0.316,0.6,0.351,0.8
			c0.233,0.833,0.183,1.8-0.15,2.9c-0.333,1-0.8,1.833-1.4,2.5c-0.699,0.833-1.716,1.733-3.05,2.699c-1.5,1.134-2.367,1.801-2.6,2
			c-0.833,0.801-1.434,1.851-1.8,3.15c0-2.4-0.05-4.05-0.15-4.95c-0.1-0.866-0.033-2.066,0.2-3.6c0.267-1.834,0.683-3.184,1.25-4.05
			c0.5-0.733,1.1-1.367,1.8-1.9c0.866-0.634,1.7-0.967,2.5-1c0.767,0,1.167,0.384,1.2,1.15c0.021,0.388-0.047,0.755-0.2,1.1
			c0.247-0.357,0.48-0.624,0.7-0.8C30.066,118.017,29.65,119.217,28.95,120.55z"/>
	</g>
	<g>
		
			<radialGradient id="SVGID_5_" cx="-13.9116" cy="-75.4219" r="36.9778" gradientTransform="matrix(-0.9989 -0.0466 -0.048 0.8316 -7.9666 138.0207)" gradientUnits="userSpaceOnUse">
			<stop  offset="0" style="stop-color:#41AD98"/>
			<stop  offset="0.3255" style="stop-color:#3BA396"/>
			<stop  offset="0.8667" style="stop-color:#2B8992"/>
			<stop  offset="1" style="stop-color:#268291"/>
		</radialGradient>
		<path style="fill-rule:evenodd;clip-rule:evenodd;fill:url(#SVGID_5_);" d="M27.2,48.1c0.267,2.867-0.334,5.533-1.8,8
			c-1.934,3.2-5.117,5.517-9.55,6.95c-5.367,1.733-8.917,3.1-10.65,4.1C2.467,68.717,0.733,70.9,0,73.7
			c-0.033-1.267,0.033-2.8,0.2-4.6c0.3-3.6,0.917-6.783,1.85-9.55c1.3-3.833,2.85-6.767,4.65-8.8c2.367-2.667,5.65-4.433,9.85-5.3
			c3.067-0.633,5.767-0.383,8.1,0.75C25.816,46.767,26.667,47.4,27.2,48.1z"/>
		
			<radialGradient id="SVGID_6_" cx="-15.6724" cy="-64.1255" r="29.0814" gradientTransform="matrix(-0.9989 -0.0464 -0.0481 0.8317 -6.7931 117.3568)" gradientUnits="userSpaceOnUse">
			<stop  offset="0" style="stop-color:#88CAB2"/>
			<stop  offset="0.2784" style="stop-color:#80C0AD"/>
			<stop  offset="0.7412" style="stop-color:#6AA6A1"/>
			<stop  offset="1" style="stop-color:#5B9599"/>
		</radialGradient>
		<path style="fill-rule:evenodd;clip-rule:evenodd;fill:url(#SVGID_6_);" d="M21.65,49.35c-0.273,0.794-0.74,1.478-1.4,2.05
			c0.171-0.128,0.371-0.278,0.6-0.45c0.533-0.4,1.017-0.684,1.45-0.85c-0.867,1.667-2.3,3.383-4.3,5.15
			c-1.167,1.033-3.017,2.467-5.55,4.3c0.633-0.2,1.466-0.55,2.5-1.05c2.867-1.467,4.85-2.667,5.95-3.6
			c1.567-1.3,2.817-2.683,3.75-4.15c0.167,0.467,0.217,0.95,0.15,1.45c-0.1,1.4-0.8,2.9-2.1,4.5c-1.133,1.4-2.417,2.517-3.85,3.35
			c-1.733,0.967-4.067,1.934-7,2.9C8.617,63.983,6.7,64.633,6.1,64.9c-1.934,0.9-3.6,2.283-5,4.15c1.467-3.767,2.367-6.4,2.7-7.9
			c0.367-1.433,1.217-3.316,2.55-5.65c1.6-2.8,3.15-4.75,4.65-5.85c1.333-0.967,2.767-1.7,4.3-2.2c1.9-0.633,3.55-0.767,4.95-0.4
			C21.583,47.383,22.05,48.15,21.65,49.35z"/>
	</g>
	<g>
		
			<radialGradient id="SVGID_7_" cx="11.1313" cy="-75.7212" r="26.0246" gradientTransform="matrix(-0.9131 0.4078 0.4203 0.7603 68.5865 124.0848)" gradientUnits="userSpaceOnUse">
			<stop  offset="0" style="stop-color:#41AD98"/>
			<stop  offset="0.3255" style="stop-color:#3BA396"/>
			<stop  offset="0.8667" style="stop-color:#2B8992"/>
			<stop  offset="1" style="stop-color:#268291"/>
		</radialGradient>
		<path style="fill-rule:evenodd;clip-rule:evenodd;fill:url(#SVGID_7_);" d="M26.75,48.05c1.3,1.667,1.967,3.517,2,5.55
			c0.033,2.6-1.05,5.05-3.25,7.35c-2.7,2.767-4.383,4.75-5.05,5.95c-1.1,1.867-1.333,3.783-0.7,5.75c-2.033-3.1-3.45-6.267-4.25-9.5
			c-0.7-2.8-0.883-5.117-0.55-6.95c0.433-2.434,1.8-4.583,4.1-6.45c1.633-1.367,3.417-2.067,5.35-2.1
			C25.333,47.65,26.116,47.783,26.75,48.05z"/>
		
			<radialGradient id="SVGID_8_" cx="9.8647" cy="-67.4819" r="20.4681" gradientTransform="matrix(-0.913 0.408 0.4202 0.7603 61.1098 110.5845)" gradientUnits="userSpaceOnUse">
			<stop  offset="0" style="stop-color:#88CAB2"/>
			<stop  offset="0.2784" style="stop-color:#80C0AD"/>
			<stop  offset="0.7412" style="stop-color:#6AA6A1"/>
			<stop  offset="1" style="stop-color:#5B9599"/>
		</radialGradient>
		<path style="fill-rule:evenodd;clip-rule:evenodd;fill:url(#SVGID_8_);" d="M26.85,51.35c0.5,0.9,0.65,2.066,0.45,3.5
			c-0.166,1.233-0.533,2.333-1.1,3.3c-0.7,1.167-1.784,2.517-3.25,4.05c-1.6,1.667-2.534,2.683-2.8,3.05
			c-0.867,1.167-1.367,2.567-1.5,4.2c-0.6-2.833-1.066-4.784-1.4-5.85c-0.333-0.967-0.55-2.417-0.65-4.35
			c-0.067-2.233,0.15-3.933,0.65-5.1c0.433-1,1.033-1.9,1.8-2.7c0.934-1,1.917-1.617,2.95-1.85c0.967-0.233,1.55,0.1,1.75,1
			c0.112,0.45,0.121,0.883,0.025,1.3c0.223-0.452,0.448-0.802,0.675-1.05c0.1,1.3-0.117,2.833-0.65,4.6
			c-0.333,1.033-0.933,2.517-1.8,4.45c0.433-0.4,0.817-0.9,1.15-1.5c1.1-1.533,1.867-2.9,2.3-4.1c0.467-1.4,0.717-2.667,0.75-3.8
			C26.5,50.8,26.717,51.083,26.85,51.35z"/>
	</g>
</g>
</svg>
