<?xml version="1.0" encoding="iso-8859-1"?>
<!-- Generator: Adobe Illustrator 15.1.0, SVG Export Plug-In . SVG Version: 6.00 Build 0)  -->
<!DOCTYPE svg PUBLIC "-//W3C//DTD SVG 1.1//EN" "http://www.w3.org/Graphics/SVG/1.1/DTD/svg11.dtd">
<svg version="1.1" id="Layer_3" xmlns="http://www.w3.org/2000/svg" xmlns:xlink="http://www.w3.org/1999/xlink" x="0px" y="0px"
	 width="218.15px" height="227.95px" viewBox="0 0 218.15 227.95" style="enable-background:new 0 0 218.15 227.95;"
	 xml:space="preserve">
<symbol  id="flash0.ai_x2F_Layer_3_x2F__x3C_Path_x3E_" viewBox="0 -227.968 218.145 227.968">
	<g id="Layer_1_2_">
		<path style="fill-rule:evenodd;clip-rule:evenodd;fill:#E6EDE3;" d="M187.95-96.95c-0.3,13.333-3.05,26.267-8.25,38.8
			c-5.2,12.5-12.467,23.717-21.8,33.65C148.267-14.3,137.067-6.133,124.3,0c5.767-1.3,11.467-3.05,17.1-5.25
			c15.033-5.867,28.333-14.283,39.9-25.25c11.133-10.6,19.9-22.833,26.3-36.7c6.367-13.867,9.85-28.316,10.45-43.35
			c0.633-15.534-1.883-30.567-7.55-45.1s-13.983-27.3-24.95-38.3c-10.633-10.633-22.983-18.9-37.05-24.8s-28.8-8.967-44.2-9.2
			c-15.9-0.267-31.367,2.534-46.4,8.4c-12.2,4.733-23.3,11.2-33.3,19.4c-9.667,7.933-17.867,17.1-24.6,27.5
			c10.9-10.533,23.567-18.633,38-24.3c14.067-5.466,28.55-8.083,43.45-7.85c14.4,0.233,28.183,3.117,41.35,8.65
			c13.167,5.5,24.717,13.233,34.65,23.2c10.267,10.3,18.05,22.25,23.35,35.85C185.833-124.167,188.217-110.783,187.95-96.95z"/>
	</g>
</symbol>
<use xlink:href="#flash0.ai_x2F_Layer_3_x2F__x3C_Path_x3E_"  width="218.145" height="227.968" y="-227.968" transform="matrix(1 0 0 -1 0 0)" style="overflow:visible;opacity:0.5391;enable-background:new    ;"/>
</svg>
