<?xml version="1.0" encoding="iso-8859-1"?>
<!-- Generator: Adobe Illustrator 15.1.0, SVG Export Plug-In . SVG Version: 6.00 Build 0)  -->
<!DOCTYPE svg PUBLIC "-//W3C//DTD SVG 1.1//EN" "http://www.w3.org/Graphics/SVG/1.1/DTD/svg11.dtd">
<svg version="1.1" id="Layer_1" xmlns="http://www.w3.org/2000/svg" xmlns:xlink="http://www.w3.org/1999/xlink" x="0px" y="0px"
	 width="44.7px" height="64.2px" viewBox="0 0 44.7 64.2" style="enable-background:new 0 0 44.7 64.2;" xml:space="preserve">
<g>
	<path style="fill-rule:evenodd;clip-rule:evenodd;fill:#054F96;" d="M4.95,20l6.3,5.25L13,59.3c-4.033-1.934-7.1-4.566-9.2-7.899
		c-1.966-3.167-3.133-7.051-3.5-11.65C0,35.684,0.683,31.167,2.35,26.2L4.95,20z"/>
	<path style="fill-rule:evenodd;clip-rule:evenodd;fill:#2B2438;" d="M3.8,17.45l6.05,3.7L12.3,58.8
		c-4.033-1.666-7.066-4.533-9.1-8.6c-1.667-3.334-2.7-7.55-3.1-12.65c-0.333-4.066,0.183-8.633,1.55-13.7
		C2.35,21.317,3.067,19.183,3.8,17.45z"/>
	<path style="fill-rule:evenodd;clip-rule:evenodd;fill:#2B2438;" d="M44.6,37.55c-0.399,5.101-1.433,9.316-3.1,12.65
		c-2.033,4.066-5.066,6.934-9.1,8.6l2.449-37.65l5.551-4.3l2.399,6.7C44.333,28.817,44.934,33.483,44.6,37.55z"/>
	
		<linearGradient id="SVGID_1_" gradientUnits="userSpaceOnUse" x1="-57.6841" y1="22.9297" x2="-28.033" y2="22.9297" gradientTransform="matrix(0.0084 -1 1 0.0084 -4.215483e-004 7.780828e-005)">
		<stop  offset="0" style="stop-color:#574A85"/>
		<stop  offset="0.2118" style="stop-color:#51457B"/>
		<stop  offset="0.5725" style="stop-color:#423860"/>
		<stop  offset="1" style="stop-color:#2B2438"/>
	</linearGradient>
	<path style="fill-rule:evenodd;clip-rule:evenodd;fill:url(#SVGID_1_);" d="M8,24.05l27.6-0.8L36.2,26.2
		c0.733,2.6,1.983,5.583,3.75,8.95c1.434,2.666,2.149,5.5,2.149,8.5c0,3.066-0.75,5.75-2.25,8.05c-1.767,2.733-3.55,4.7-5.35,5.899
		c-2.934,1.934-6.866,2.95-11.8,3.051c-4.267,0.1-7.983-0.717-11.15-2.45c-2.8-1.566-4.966-3.7-6.5-6.4c-1.5-2.6-2.167-5.633-2-9.1
		c0.133-2.467,0.617-4.75,1.45-6.851c1.567-3.899,2.617-7.033,3.15-9.399L8,24.05z"/>
	<path style="fill-rule:evenodd;clip-rule:evenodd;fill:#2B2438;" d="M30.85,6.45l2-0.65c1.534-0.566,2.817-1.233,3.851-2
		c1.8-1.3,2.883-2.566,3.25-3.8c0.6,1.433,1.033,3.133,1.3,5.1c0.533,3.967-0.066,7.35-1.8,10.15L30.85,6.45z"/>
	
		<linearGradient id="SVGID_2_" gradientUnits="userSpaceOnUse" x1="-13.7627" y1="-38.0381" x2="-6.5377" y2="-38.0381" gradientTransform="matrix(-0.4706 0.8824 -0.8824 -0.4706 -6.061792e-004 -2.783537e-005)">
		<stop  offset="0" style="stop-color:#635A29"/>
		<stop  offset="0.2706" style="stop-color:#59502C"/>
		<stop  offset="0.7255" style="stop-color:#3E3733"/>
		<stop  offset="1" style="stop-color:#2B2438"/>
	</linearGradient>
	<path style="fill-rule:evenodd;clip-rule:evenodd;fill:url(#SVGID_2_);" d="M34.85,9.2l0.75-0.4c0.634-0.367,1.233-0.85,1.801-1.45
		c1.333-1.367,2.066-2.617,2.199-3.75c0.4,0.933,0.684,2.033,0.851,3.3c0.333,2.533-0.05,4.7-1.15,6.5L34.85,9.2z"/>
	<path style="fill-rule:evenodd;clip-rule:evenodd;fill:#2B2438;" d="M13.6,6.25L5.2,15.2C3.4,12.467,2.717,9.117,3.15,5.15
		c0.233-2,0.633-3.717,1.2-5.15c0.4,1.233,1.517,2.483,3.35,3.75C9.4,4.917,11.367,5.75,13.6,6.25z"/>
	
		<linearGradient id="SVGID_3_" gradientUnits="userSpaceOnUse" x1="6.9834" y1="-2.3311" x2="16.2099" y2="-2.3311" gradientTransform="matrix(0.4254 0.905 -0.905 0.4254 6.890297e-005 4.538894e-005)">
		<stop  offset="0" style="stop-color:#433473"/>
		<stop  offset="0.2588" style="stop-color:#3F3169"/>
		<stop  offset="0.698" style="stop-color:#342A4E"/>
		<stop  offset="1" style="stop-color:#2B2438"/>
	</linearGradient>
	<path style="fill-rule:evenodd;clip-rule:evenodd;fill:url(#SVGID_3_);" d="M9.85,8.6L5.5,12.9c-1.167-1.767-1.6-3.933-1.3-6.5
		c0.133-1.267,0.383-2.367,0.75-3.3c0.167,1.133,0.933,2.367,2.3,3.7C8.217,7.767,9.083,8.367,9.85,8.6z"/>
	<path style="fill-rule:evenodd;clip-rule:evenodd;fill:#21708A;" d="M7,10.65C7.933,9.617,9.25,8.6,10.95,7.6
		C14.35,5.533,18,4.517,21.9,4.55c4.133,0.034,7.767,0.9,10.9,2.6c1.533,0.867,2.667,1.733,3.4,2.6L22.1,17.9L7,10.65z"/>
	
		<linearGradient id="SVGID_4_" gradientUnits="userSpaceOnUse" x1="7.0117" y1="-21.3579" x2="22.8869" y2="-21.3579" gradientTransform="matrix(-0.0047 1 -1 -0.0047 2.863714e-004 1.373896e-004)">
		<stop  offset="0" style="stop-color:#054F96"/>
		<stop  offset="0.098" style="stop-color:#094A8C"/>
		<stop  offset="0.7098" style="stop-color:#212F50"/>
		<stop  offset="1" style="stop-color:#2B2438"/>
	</linearGradient>
	<path style="fill-rule:evenodd;clip-rule:evenodd;fill:url(#SVGID_4_);" d="M7.85,12.85c0.867-1,2.083-2.017,3.65-3.05
		c3.167-2.033,6.533-3.033,10.1-3c3.833,0.034,7.183,0.9,10.05,2.6c1.399,0.867,2.433,1.733,3.1,2.6L21.8,20.1L7.85,12.85z"/>
	<g>
		
			<linearGradient id="SVGID_5_" gradientUnits="userSpaceOnUse" x1="3.2358" y1="17.8359" x2="22.0869" y2="17.8359" gradientTransform="matrix(0.9999 -0.0106 0.0106 0.9999 -4.406329e-004 1.198482e-004)">
			<stop  offset="0" style="stop-color:#242224"/>
			<stop  offset="0.2392" style="stop-color:#27252E"/>
			<stop  offset="0.6392" style="stop-color:#302E49"/>
			<stop  offset="1" style="stop-color:#3A3866"/>
		</linearGradient>
		<path style="fill-rule:evenodd;clip-rule:evenodd;fill:url(#SVGID_5_);" d="M22.3,17.6c0.033,2.6-0.867,4.833-2.7,6.7
			c-1.833,1.867-4.05,2.817-6.65,2.85c-2.6,0.033-4.833-0.867-6.7-2.7C4.417,22.617,3.467,20.4,3.4,17.8
			c-0.033-2.6,0.867-4.833,2.7-6.7c1.833-1.833,4.05-2.783,6.65-2.85c2.6-0.033,4.833,0.867,6.7,2.7
			C21.317,12.783,22.267,15,22.3,17.6z"/>
		<path style="fill-rule:evenodd;clip-rule:evenodd;fill:#DCE6E6;" d="M18.55,17.55c0,1.534-0.533,2.85-1.6,3.95
			c-1.067,1.1-2.367,1.667-3.9,1.7c-1.533,0.033-2.85-0.5-3.95-1.6c-1.1-1.067-1.667-2.367-1.7-3.9c0-1.534,0.533-2.85,1.6-3.95
			s2.367-1.667,3.9-1.7c1.533,0,2.85,0.534,3.95,1.6C17.95,14.717,18.517,16.017,18.55,17.55z"/>
		
			<linearGradient id="SVGID_6_" gradientUnits="userSpaceOnUse" x1="12.0225" y1="13.2485" x2="23.3363" y2="13.2485" gradientTransform="matrix(0.9524 0.3049 -0.3049 0.9524 -1.502037e-004 7.098913e-005)">
			<stop  offset="0" style="stop-color:#242224"/>
			<stop  offset="0.2392" style="stop-color:#27252E"/>
			<stop  offset="0.6392" style="stop-color:#302E49"/>
			<stop  offset="1" style="stop-color:#3A3866"/>
		</linearGradient>
		<path style="fill-rule:evenodd;clip-rule:evenodd;fill:url(#SVGID_6_);" d="M18.45,18.3c0.333,0.934-0.383,1.55-2.15,1.85
			c-1.833,0.267-3.583-0.066-5.25-1c-1.433-0.8-2.417-1.717-2.95-2.75l-0.35-1.25c0.733,1.4,1.767,2.267,3.1,2.6
			c0.867,0.2,2.05,0.167,3.55-0.1c1.267-0.267,2.267-0.283,3-0.05C17.967,17.733,18.317,17.967,18.45,18.3z"/>
		
			<linearGradient id="SVGID_7_" gradientUnits="userSpaceOnUse" x1="21.7339" y1="18.1318" x2="40.5849" y2="18.1318" gradientTransform="matrix(0.9999 -0.0106 0.0106 0.9999 -4.406329e-004 1.198482e-004)">
			<stop  offset="0" style="stop-color:#242224"/>
			<stop  offset="0.2392" style="stop-color:#27252E"/>
			<stop  offset="0.6392" style="stop-color:#302E49"/>
			<stop  offset="1" style="stop-color:#3A3866"/>
		</linearGradient>
		<path style="fill-rule:evenodd;clip-rule:evenodd;fill:url(#SVGID_7_);" d="M37.95,11.05c1.866,1.833,2.816,4.05,2.85,6.65
			c0.033,2.6-0.866,4.833-2.7,6.7c-1.833,1.867-4.05,2.817-6.649,2.85c-2.601,0.033-4.834-0.867-6.7-2.7
			c-1.866-1.833-2.817-4.05-2.85-6.65s0.867-4.833,2.7-6.7c1.834-1.867,4.051-2.817,6.65-2.85S36.083,9.217,37.95,11.05z"/>
		<path style="fill-rule:evenodd;clip-rule:evenodd;fill:#DCE6E6;" d="M37.05,17.65c0,1.533-0.533,2.85-1.6,3.95
			s-2.367,1.667-3.9,1.7c-1.533,0-2.85-0.533-3.95-1.6c-1.1-1.067-1.666-2.367-1.699-3.9c-0.034-1.533,0.5-2.85,1.6-3.95
			c1.066-1.1,2.366-1.667,3.9-1.7c1.533,0,2.85,0.533,3.949,1.6C36.45,14.817,37.017,16.117,37.05,17.65z"/>
		
			<linearGradient id="SVGID_8_" gradientUnits="userSpaceOnUse" x1="24.0225" y1="19.7734" x2="36.7182" y2="19.7734" gradientTransform="matrix(0.9984 -0.0571 0.0571 0.9984 3.733225e-004 -2.123639e-004)">
			<stop  offset="0" style="stop-color:#242224"/>
			<stop  offset="0.2392" style="stop-color:#27252E"/>
			<stop  offset="0.6392" style="stop-color:#302E49"/>
			<stop  offset="1" style="stop-color:#3A3866"/>
		</linearGradient>
		<path style="fill-rule:evenodd;clip-rule:evenodd;fill:url(#SVGID_8_);" d="M26.1,18.65c0.134-0.333,0.467-0.583,1-0.75
			c0.733-0.233,1.75-0.233,3.051,0c1.5,0.233,2.683,0.233,3.55,0c1.333-0.333,2.35-1.2,3.05-2.6c0.033,0.333-0.083,0.767-0.35,1.3
			c-0.5,1-1.467,1.917-2.9,2.75c-1.667,0.967-3.4,1.333-5.2,1.1C26.533,20.217,25.8,19.617,26.1,18.65z"/>
		<path style="fill-rule:evenodd;clip-rule:evenodd;fill:#635A29;" d="M22.05,19.45c0.167,1.133,0.667,2.316,1.5,3.55
			c0.434,0.6,0.834,1.083,1.2,1.45L22.1,28.9l-2.7-4.4C20.7,23.233,21.583,21.55,22.05,19.45z"/>
		<path style="fill-rule:evenodd;clip-rule:evenodd;fill:#2B2438;" d="M22.05,19.15l0.05,9.75l-2.7-4.4
			C20.7,23.1,21.583,21.317,22.05,19.15z"/>
	</g>
	<path style="fill-rule:evenodd;clip-rule:evenodd;fill:#635A29;" d="M21.45,22.5c0.267,0.867,0.233,1.317-0.1,1.35
		c-0.2,0-0.267-0.2-0.2-0.6C21.217,22.85,21.317,22.6,21.45,22.5z"/>
	<path style="fill-rule:evenodd;clip-rule:evenodd;fill:#2B2438;" d="M22.7,22.5c0.366,0.867,0.366,1.317,0,1.35
		c-0.167,0-0.233-0.2-0.2-0.6S22.6,22.6,22.7,22.5z"/>
	<path style="fill-rule:evenodd;clip-rule:evenodd;fill:#A49DBD;" d="M9.65,28.8c0.7,1.6,1.817,2.417,3.35,2.45
		c1.567,0.033,2.817-0.8,3.75-2.5c-0.867,2.633-2.1,3.95-3.7,3.95C11.45,32.667,10.317,31.367,9.65,28.8z"/>
	<path style="fill-rule:evenodd;clip-rule:evenodd;fill:#A49DBD;" d="M26.9,38.7c0.699,1.5,1.816,2.267,3.35,2.3
		s2.783-0.733,3.75-2.3c-0.866,2.434-2.1,3.633-3.7,3.6C28.7,42.3,27.566,41.1,26.9,38.7z"/>
	<path style="fill-rule:evenodd;clip-rule:evenodd;fill:#A49DBD;" d="M11.85,54c0.467,1,1.217,1.517,2.25,1.55
		c1.066,0,1.917-0.533,2.55-1.6c-0.6,1.666-1.433,2.5-2.5,2.5C13.083,56.45,12.317,55.634,11.85,54z"/>
	<path style="fill-rule:evenodd;clip-rule:evenodd;fill:#A49DBD;" d="M5.4,45.8c0.7,1.467,1.817,2.217,3.35,2.25
		c1.567,0.033,2.817-0.733,3.75-2.3c-0.867,2.434-2.1,3.65-3.7,3.65C7.2,49.366,6.067,48.167,5.4,45.8z"/>
	<path style="fill-rule:evenodd;clip-rule:evenodd;fill:#887FAB;" d="M26.7,28.9c0.733,1.667,1.883,2.517,3.45,2.55
		c1.6,0.066,2.883-0.784,3.85-2.55c-0.9,2.733-2.167,4.083-3.8,4.05C28.533,32.95,27.366,31.6,26.7,28.9z"/>
	<path style="fill-rule:evenodd;clip-rule:evenodd;fill:#887FAB;" d="M18.55,44c0.733,1.667,1.883,2.517,3.45,2.55
		c1.634,0.066,2.934-0.783,3.9-2.55c-0.9,2.733-2.167,4.083-3.801,4.05C20.433,48.05,19.25,46.7,18.55,44z"/>
	<path style="fill-rule:evenodd;clip-rule:evenodd;fill:#887FAB;" d="M6.25,34.5c0.367,0.934,0.983,1.417,1.85,1.45
		s1.566-0.45,2.1-1.45c-0.5,1.533-1.2,2.283-2.1,2.25C7.233,36.75,6.617,36,6.25,34.5z"/>
	<path style="fill-rule:evenodd;clip-rule:evenodd;fill:#887FAB;" d="M30.8,52.65c0.5,1.199,1.334,1.816,2.5,1.85
		c1.2,0.033,2.167-0.583,2.9-1.85c-0.667,1.966-1.617,2.949-2.851,2.949C32.15,55.566,31.3,54.583,30.8,52.65z"/>
	<path style="fill-rule:evenodd;clip-rule:evenodd;fill:#887FAB;" d="M36.35,40.95c0.434,0.934,1.134,1.399,2.101,1.399
		c1,0,1.8-0.483,2.399-1.449c-0.533,1.533-1.316,2.3-2.35,2.3C37.5,43.2,36.783,42.45,36.35,40.95z"/>
	<path style="fill-rule:evenodd;clip-rule:evenodd;fill:#433473;" d="M17.35,32.15c0.867,1.9,2.233,2.867,4.1,2.9
		c1.899,0.066,3.434-0.899,4.6-2.9c-1.066,3.1-2.583,4.65-4.55,4.65C19.567,36.767,18.183,35.217,17.35,32.15z"/>
	<path style="fill-rule:evenodd;clip-rule:evenodd;fill:#433473;" d="M18.45,52.1c0.833,1.867,2.183,2.834,4.05,2.9
		c1.934,0.033,3.467-0.95,4.6-2.95c-1.033,3.101-2.533,4.65-4.5,4.65C20.633,56.667,19.25,55.134,18.45,52.1z"/>
	<path style="fill-rule:evenodd;clip-rule:evenodd;fill:#433473;" d="M9.15,38.85c0.833,1.634,2.133,2.467,3.9,2.5
		c1.8,0.067,3.25-0.767,4.35-2.5c-1,2.7-2.433,4.034-4.3,4C11.233,42.816,9.917,41.483,9.15,38.85z"/>
	<path style="fill-rule:evenodd;clip-rule:evenodd;fill:#433473;" d="M38.15,45.75C37.184,48.717,35.8,50.2,34,50.2
		c-1.767,0-3.017-1.467-3.75-4.4c0.767,1.834,2,2.767,3.7,2.8C35.684,48.634,37.083,47.684,38.15,45.75z"/>
	<path style="fill-rule:evenodd;clip-rule:evenodd;fill:#433473;" d="M33.5,32.8c0.5,0.9,1.167,1.316,2,1.25
		c0.866-0.1,1.483-0.7,1.85-1.8c-0.233,1.634-0.783,2.517-1.649,2.65C34.833,35,34.1,34.3,33.5,32.8z"/>
	<path style="fill-rule:evenodd;clip-rule:evenodd;fill:#2B2438;" d="M16.05,56.4c0.7,0.033,1.25,0.633,1.65,1.8
		c0.367,1.1,0.483,2.366,0.35,3.8c-0.133,1.333-0.5,1.917-1.1,1.75c-0.6-0.134-1.184-0.866-1.75-2.2
		c-0.534-1.333-0.717-2.533-0.55-3.6C14.783,56.884,15.25,56.366,16.05,56.4z"/>
	<path style="fill-rule:evenodd;clip-rule:evenodd;fill:#2B2438;" d="M13.25,57.05c0.733-0.066,1.367,0.45,1.9,1.55
		c0.5,1.034,0.783,2.25,0.85,3.65c0.033,1.333-0.25,1.983-0.85,1.95c-0.6-0.066-1.267-0.733-2-2c-0.7-1.233-1.05-2.367-1.05-3.4
		C12.1,57.7,12.483,57.116,13.25,57.05z"/>
	<path style="fill-rule:evenodd;clip-rule:evenodd;fill:#2B2438;" d="M19.35,56.35c0.667,0.2,1.066,0.9,1.2,2.101
		c0.133,1.166-0.017,2.416-0.45,3.75c-0.4,1.267-0.883,1.767-1.45,1.5c-0.533-0.233-0.933-1.066-1.2-2.5
		c-0.267-1.434-0.217-2.634,0.15-3.601C18,56.566,18.583,56.15,19.35,56.35z"/>
	<path style="fill-rule:evenodd;clip-rule:evenodd;fill:#2B2438;" d="M30.75,56.3c0.667,0.233,1.017,0.967,1.05,2.2
		c0.033,1.167-0.217,2.4-0.75,3.7c-0.5,1.233-1.017,1.7-1.55,1.399c-0.533-0.3-0.866-1.166-1-2.6c-0.167-1.434-0.017-2.634,0.45-3.6
		C29.384,56.434,29.983,56.066,30.75,56.3z"/>
	<path style="fill-rule:evenodd;clip-rule:evenodd;fill:#2B2438;" d="M27.9,56.1c0.699,0.134,1.149,0.817,1.35,2.051
		c0.2,1.133,0.116,2.383-0.25,3.75c-0.3,1.3-0.75,1.833-1.35,1.6c-0.567-0.233-1.017-1.05-1.351-2.45
		c-0.333-1.399-0.35-2.6-0.05-3.6C26.583,56.417,27.134,55.967,27.9,56.1z"/>
	<path style="fill-rule:evenodd;clip-rule:evenodd;fill:#2B2438;" d="M33.9,56.9c0.6,0.399,0.8,1.199,0.6,2.399
		c-0.233,1.134-0.75,2.283-1.55,3.45c-0.733,1.1-1.334,1.434-1.8,1c-0.467-0.4-0.617-1.316-0.45-2.75
		c0.166-1.434,0.566-2.566,1.2-3.4C32.533,56.733,33.2,56.5,33.9,56.9z"/>
	<path style="fill-rule:evenodd;clip-rule:evenodd;fill:#21708A;" d="M19.9,57.1c0.567,1.101,0.684,2.367,0.35,3.801
		c-0.167,0.733-0.383,1.35-0.65,1.85c0.333-0.8,0.3-2.134-0.1-4c-0.2-0.733-0.233-1.283-0.1-1.65
		C19.533,56.733,19.7,56.733,19.9,57.1z"/>
	<path style="fill-rule:evenodd;clip-rule:evenodd;fill:#054F96;" d="M34.2,58.1c0.133,1.233-0.217,2.467-1.05,3.7
		c-0.4,0.634-0.817,1.134-1.25,1.5c0.6-0.633,1.033-1.883,1.3-3.75c0.1-0.767,0.283-1.3,0.55-1.6
		C33.983,57.65,34.134,57.7,34.2,58.1z"/>
	<path style="fill-rule:evenodd;clip-rule:evenodd;fill:#054F96;" d="M16.6,57.1c0.767,0.967,1.117,2.2,1.05,3.7
		c-0.033,0.767-0.15,1.417-0.35,1.95c0.233-1-0.033-2.316-0.8-3.95c-0.333-0.666-0.467-1.217-0.4-1.649
		C16.167,56.75,16.333,56.733,16.6,57.1z"/>
	<path style="fill-rule:evenodd;clip-rule:evenodd;fill:#433473;" d="M31.15,57.25c0.466,1.134,0.483,2.417,0.05,3.85
		c-0.2,0.733-0.467,1.334-0.8,1.801c0.5-0.967,0.566-2.301,0.199-4c-0.1-0.767-0.083-1.334,0.051-1.7
		C30.816,56.866,30.983,56.884,31.15,57.25z"/>
	<path style="fill-rule:evenodd;clip-rule:evenodd;fill:#433473;" d="M14,57.75c0.9,0.866,1.45,2.033,1.65,3.5
		c0.1,0.733,0.1,1.384,0,1.95c0.033-1.066-0.45-2.3-1.45-3.7c-0.434-0.634-0.65-1.167-0.65-1.6C13.55,57.5,13.7,57.45,14,57.75z"/>
	<path style="fill-rule:evenodd;clip-rule:evenodd;fill:#635A29;" d="M28.6,57.15c0.534,1.1,0.634,2.383,0.301,3.85
		c-0.167,0.733-0.4,1.35-0.7,1.85c0.233-0.533,0.316-1.267,0.25-2.199c-0.033-0.7-0.134-1.301-0.3-1.801
		c-0.167-0.767-0.184-1.333-0.051-1.699C28.233,56.783,28.4,56.783,28.6,57.15z"/>
</g>
</svg>
