<?xml version="1.0" encoding="iso-8859-1"?>
<!-- Generator: Adobe Illustrator 15.1.0, SVG Export Plug-In . SVG Version: 6.00 Build 0)  -->
<!DOCTYPE svg PUBLIC "-//W3C//DTD SVG 1.1//EN" "http://www.w3.org/Graphics/SVG/1.1/DTD/svg11.dtd">
<svg version="1.1" id="Layer_3" xmlns="http://www.w3.org/2000/svg" xmlns:xlink="http://www.w3.org/1999/xlink" x="0px" y="0px"
	 width="111.45px" height="138.2px" viewBox="0 0 111.45 138.2" style="enable-background:new 0 0 111.45 138.2;"
	 xml:space="preserve">
<g>
	<g>
		<path style="fill-rule:evenodd;clip-rule:evenodd;fill:#054F96;" d="M33.9,39.85c-0.333-4.067,0.333-8.583,2-13.55
			c0.833-2.466,1.7-4.533,2.6-6.2l6.3,5.2l1.8,34.05c-4.033-1.934-7.083-4.55-9.15-7.85C35.483,48.333,34.3,44.45,33.9,39.85z"/>
		<path style="fill-rule:evenodd;clip-rule:evenodd;fill:#2B2438;" d="M33.65,37.65c-0.3-4.066,0.217-8.633,1.55-13.7
			c0.7-2.534,1.417-4.667,2.15-6.4l6.05,3.7l2.5,37.65C38.667,55.9,34.583,48.817,33.65,37.65z"/>
		<path style="fill-rule:evenodd;clip-rule:evenodd;fill:#2B2438;" d="M73.95,16.85l2.399,6.65c1.534,5.267,2.15,9.95,1.851,14.05
			c-0.8,11.133-4.851,18.233-12.15,21.3L68.4,21.2L73.95,16.85z"/>
		
			<linearGradient id="SVGID_1_" gradientUnits="userSpaceOnUse" x1="-57.5933" y1="56.4214" x2="-27.9427" y2="56.4214" gradientTransform="matrix(0.0059 -1 1 0.0059 1.890515e-004 2.982216e-004)">
			<stop  offset="0" style="stop-color:#574A85"/>
			<stop  offset="0.2118" style="stop-color:#51457B"/>
			<stop  offset="0.5725" style="stop-color:#423860"/>
			<stop  offset="1" style="stop-color:#2B2438"/>
		</linearGradient>
		<path style="fill-rule:evenodd;clip-rule:evenodd;fill:url(#SVGID_1_);" d="M41.55,24.1l27.601-0.85l0.6,2.95
			c0.733,2.6,1.983,5.583,3.75,8.95c1.434,2.667,2.15,5.5,2.15,8.5c0.033,3.067-0.7,5.75-2.2,8.05c-1.733,2.733-3.5,4.7-5.3,5.9
			c-2.934,1.967-6.867,3-11.801,3.1c-4.266,0.1-7.983-0.717-11.149-2.45c-2.767-1.533-4.934-3.65-6.5-6.35
			c-1.5-2.633-2.167-5.667-2-9.1c0.1-2.533,0.566-4.833,1.4-6.9c1.533-3.9,2.566-7.033,3.1-9.4L41.55,24.1z"/>
		<path style="fill-rule:evenodd;clip-rule:evenodd;fill:#2B2438;" d="M64.35,6.5l2-0.65c1.534-0.6,2.817-1.283,3.851-2.05
			C72,2.5,73.083,1.233,73.45,0c0.6,1.433,1.033,3.133,1.3,5.1c0.533,3.967-0.066,7.35-1.8,10.15L64.35,6.5z"/>
		
			<linearGradient id="SVGID_2_" gradientUnits="userSpaceOnUse" x1="-29.2158" y1="-67.7085" x2="-21.9804" y2="-67.7085" gradientTransform="matrix(-0.4665 0.8845 -0.8845 -0.4665 9.646416e-004 -2.413392e-004)">
			<stop  offset="0" style="stop-color:#21708A"/>
			<stop  offset="0.2" style="stop-color:#226780"/>
			<stop  offset="0.5451" style="stop-color:#254E65"/>
			<stop  offset="0.9843" style="stop-color:#2B263A"/>
			<stop  offset="1" style="stop-color:#2B2438"/>
		</linearGradient>
		<path style="fill-rule:evenodd;clip-rule:evenodd;fill:url(#SVGID_2_);" d="M68.35,9.2l0.75-0.4c0.634-0.367,1.25-0.85,1.851-1.45
			c1.3-1.367,2.017-2.633,2.149-3.8c0.4,0.934,0.684,2.034,0.851,3.3c0.366,2.566-0.017,4.75-1.15,6.55L68.35,9.2z"/>
		<path style="fill-rule:evenodd;clip-rule:evenodd;fill:#2B2438;" d="M41.2,3.8c1.7,1.2,3.667,2.05,5.9,2.55l-8.35,8.95
			c-1.8-2.733-2.5-6.083-2.1-10.05c0.233-2,0.633-3.717,1.2-5.15l0.65,1.15C39.167,2.15,40.067,3,41.2,3.8z"/>
		<linearGradient id="SVGID_3_" gradientUnits="userSpaceOnUse" x1="37.6377" y1="8.0752" x2="43.3623" y2="8.0752">
			<stop  offset="0" style="stop-color:#054F96"/>
			<stop  offset="0.1804" style="stop-color:#094A8C"/>
			<stop  offset="0.4902" style="stop-color:#143E71"/>
			<stop  offset="0.8863" style="stop-color:#252A46"/>
			<stop  offset="1" style="stop-color:#2B2438"/>
		</linearGradient>
		<path style="fill-rule:evenodd;clip-rule:evenodd;fill:url(#SVGID_3_);" d="M40.75,6.9c0.967,0.934,1.833,1.533,2.6,1.8l-4.3,4.3
			c-1.167-1.767-1.617-3.933-1.35-6.5c0.133-1.3,0.383-2.417,0.75-3.35l0.4,1.15C39.25,5.2,39.883,6.067,40.75,6.9z"/>
		<path style="fill-rule:evenodd;clip-rule:evenodd;fill:#21708A;" d="M40.5,10.75l3.95-3.05c3.4-2.067,7.05-3.1,10.95-3.1
			c4.133,0.033,7.767,0.9,10.899,2.6c1.533,0.867,2.667,1.716,3.4,2.55l-14.05,8.2L40.5,10.75z"/>
		
			<linearGradient id="SVGID_4_" gradientUnits="userSpaceOnUse" x1="6.9897" y1="-54.8887" x2="22.8648" y2="-54.8887" gradientTransform="matrix(-0.0031 1 -1 -0.0031 -3.542663e-004 1.450917e-004)">
			<stop  offset="0" style="stop-color:#635A29"/>
			<stop  offset="0.2706" style="stop-color:#59502C"/>
			<stop  offset="0.7255" style="stop-color:#3E3733"/>
			<stop  offset="1" style="stop-color:#2B2438"/>
		</linearGradient>
		<path style="fill-rule:evenodd;clip-rule:evenodd;fill:url(#SVGID_4_);" d="M41.4,12.95l3.65-3.05
			c3.133-2.066,6.483-3.1,10.05-3.1c3.834,0.034,7.184,0.9,10.051,2.6c1.433,0.867,2.483,1.733,3.149,2.6l-12.95,8.15L41.4,12.95z"
			/>
		<g>
			
				<linearGradient id="SVGID_5_" gradientUnits="userSpaceOnUse" x1="36.7349" y1="18.3887" x2="55.5865" y2="18.3887" gradientTransform="matrix(0.9999 -0.0133 0.0133 0.9999 -1.413710e-004 1.967037e-004)">
				<stop  offset="0" style="stop-color:#242224"/>
				<stop  offset="0.2392" style="stop-color:#27252E"/>
				<stop  offset="0.6392" style="stop-color:#302E49"/>
				<stop  offset="1" style="stop-color:#3A3866"/>
			</linearGradient>
			<path style="fill-rule:evenodd;clip-rule:evenodd;fill:url(#SVGID_5_);" d="M55.85,17.65c0.034,2.6-0.866,4.833-2.7,6.7
				c-1.8,1.867-4.017,2.816-6.65,2.85c-2.6,0.066-4.833-0.817-6.7-2.65c-1.833-1.833-2.783-4.05-2.85-6.65
				c-0.034-2.6,0.867-4.833,2.7-6.7c1.8-1.867,4-2.817,6.6-2.85S51.1,9.2,53,11C54.867,12.833,55.816,15.05,55.85,17.65z"/>
			<path style="fill-rule:evenodd;clip-rule:evenodd;fill:#DCE6E6;" d="M52.05,17.6c0.034,1.533-0.483,2.85-1.55,3.95
				c-1.067,1.1-2.367,1.667-3.9,1.7s-2.85-0.483-3.95-1.55c-1.1-1.067-1.667-2.383-1.7-3.95c-0.034-1.533,0.483-2.833,1.55-3.9
				c1.1-1.1,2.417-1.667,3.95-1.7c1.533-0.033,2.85,0.483,3.95,1.55C51.5,14.767,52.05,16.067,52.05,17.6z"/>
			
				<linearGradient id="SVGID_6_" gradientUnits="userSpaceOnUse" x1="43.9727" y1="3.2329" x2="55.3027" y2="3.2329" gradientTransform="matrix(0.9532 0.3023 -0.3023 0.9532 1.293421e-005 -3.214180e-004)">
				<stop  offset="0" style="stop-color:#242224"/>
				<stop  offset="0.2392" style="stop-color:#27252E"/>
				<stop  offset="0.6392" style="stop-color:#302E49"/>
				<stop  offset="1" style="stop-color:#3A3866"/>
			</linearGradient>
			<path style="fill-rule:evenodd;clip-rule:evenodd;fill:url(#SVGID_6_);" d="M51.95,18.35c0.367,0.933-0.333,1.55-2.1,1.85
				c-1.833,0.3-3.583-0.017-5.25-0.95c-1.467-0.8-2.467-1.717-3-2.75l-0.35-1.25c0.767,1.4,1.817,2.25,3.15,2.55
				c0.867,0.2,2.033,0.167,3.5-0.1c1.367-0.233,2.383-0.25,3.05-0.05C51.483,17.783,51.817,18.017,51.95,18.35z"/>
			
				<linearGradient id="SVGID_7_" gradientUnits="userSpaceOnUse" x1="55.2324" y1="18.6836" x2="74.085" y2="18.6836" gradientTransform="matrix(0.9999 -0.0133 0.0133 0.9999 -1.413710e-004 1.967037e-004)">
				<stop  offset="0" style="stop-color:#242224"/>
				<stop  offset="0.2392" style="stop-color:#27252E"/>
				<stop  offset="0.6392" style="stop-color:#302E49"/>
				<stop  offset="1" style="stop-color:#3A3866"/>
			</linearGradient>
			<path style="fill-rule:evenodd;clip-rule:evenodd;fill:url(#SVGID_7_);" d="M74.3,17.7c0.066,2.6-0.816,4.833-2.649,6.7
				c-1.834,1.867-4.051,2.817-6.65,2.85s-4.833-0.867-6.7-2.7c-1.866-1.8-2.816-4-2.85-6.6c-0.033-2.6,0.866-4.833,2.7-6.7
				c1.8-1.867,4-2.817,6.6-2.85s4.833,0.85,6.7,2.65C73.316,12.883,74.267,15.1,74.3,17.7z"/>
			<path style="fill-rule:evenodd;clip-rule:evenodd;fill:#DCE6E6;" d="M70.55,17.65c0.033,1.533-0.483,2.85-1.55,3.95
				s-2.366,1.667-3.9,1.7c-1.533,0.034-2.85-0.483-3.949-1.55c-1.101-1.067-1.667-2.383-1.7-3.95c-0.033-1.533,0.483-2.85,1.55-3.95
				c1.1-1.1,2.417-1.65,3.95-1.65c1.533-0.034,2.85,0.483,3.95,1.55C69.967,14.817,70.517,16.117,70.55,17.65z"/>
			
				<linearGradient id="SVGID_8_" gradientUnits="userSpaceOnUse" x1="57.4746" y1="21.8174" x2="70.1718" y2="21.8174" gradientTransform="matrix(0.9983 -0.0591 0.0591 0.9983 -1.634955e-004 -1.101494e-004)">
				<stop  offset="0" style="stop-color:#242224"/>
				<stop  offset="0.2392" style="stop-color:#27252E"/>
				<stop  offset="0.6392" style="stop-color:#302E49"/>
				<stop  offset="1" style="stop-color:#3A3866"/>
			</linearGradient>
			<path style="fill-rule:evenodd;clip-rule:evenodd;fill:url(#SVGID_8_);" d="M59.65,18.7c0.166-0.367,0.5-0.617,1-0.75
				c0.666-0.233,1.683-0.25,3.05-0.05c1.467,0.233,2.633,0.233,3.5,0c1.333-0.333,2.35-1.2,3.05-2.6
				c0.033,0.333-0.066,0.767-0.3,1.3c-0.5,1-1.467,1.917-2.9,2.75c-1.633,0.967-3.366,1.333-5.2,1.1
				C60.05,20.217,59.316,19.633,59.65,18.7z"/>
			<path style="fill-rule:evenodd;clip-rule:evenodd;fill:#A49DBD;" d="M55.6,19.5c0.167,1.133,0.667,2.3,1.5,3.5
				c0.434,0.633,0.834,1.133,1.2,1.5l-2.649,4.45l-2.7-4.4C54.25,23.283,55.134,21.6,55.6,19.5z"/>
			<path style="fill-rule:evenodd;clip-rule:evenodd;fill:#2B2438;" d="M55.6,19.2l0.051,9.75l-2.7-4.4
				C54.25,23.15,55.134,21.367,55.6,19.2z"/>
		</g>
		<path style="fill-rule:evenodd;clip-rule:evenodd;fill:#635A29;" d="M55,22.55c0.267,0.867,0.233,1.317-0.1,1.35
			c-0.2,0-0.267-0.2-0.2-0.6C54.767,22.9,54.867,22.65,55,22.55z"/>
		<path style="fill-rule:evenodd;clip-rule:evenodd;fill:#2B2438;" d="M56.25,22.55c0.366,0.867,0.366,1.3,0,1.3
			c-0.167,0.033-0.233-0.167-0.2-0.6C56.083,22.85,56.15,22.617,56.25,22.55z"/>
		<path style="fill-rule:evenodd;clip-rule:evenodd;fill:#A49DBD;" d="M43.2,28.85c0.7,1.6,1.816,2.417,3.35,2.45
			c1.567,0.034,2.817-0.783,3.75-2.45c-0.833,2.6-2.066,3.9-3.7,3.9C45,32.75,43.867,31.45,43.2,28.85z"/>
		<path style="fill-rule:evenodd;clip-rule:evenodd;fill:#A49DBD;" d="M60.45,38.75c0.733,1.467,1.85,2.217,3.35,2.25
			c1.566,0.033,2.834-0.733,3.8-2.3c-0.866,2.433-2.1,3.65-3.699,3.65C62.267,42.35,61.116,41.15,60.45,38.75z"/>
		<path style="fill-rule:evenodd;clip-rule:evenodd;fill:#A49DBD;" d="M45.45,54.05c0.5,1,1.25,1.517,2.25,1.55
			c1.066,0.033,1.917-0.483,2.55-1.55c-0.567,1.633-1.4,2.45-2.5,2.45C46.683,56.5,45.917,55.683,45.45,54.05z"/>
		<path style="fill-rule:evenodd;clip-rule:evenodd;fill:#A49DBD;" d="M42.4,49.45c-1.6,0-2.733-1.2-3.4-3.6
			c0.7,1.467,1.817,2.217,3.35,2.25c1.566,0.033,2.816-0.717,3.75-2.25C45.267,48.25,44.033,49.45,42.4,49.45z"/>
		<path style="fill-rule:evenodd;clip-rule:evenodd;fill:#887FAB;" d="M60.25,28.95c0.7,1.667,1.85,2.517,3.45,2.55
			c1.6,0.033,2.883-0.833,3.85-2.6c-0.866,2.733-2.133,4.1-3.8,4.1S60.917,31.65,60.25,28.95z"/>
		<path style="fill-rule:evenodd;clip-rule:evenodd;fill:#887FAB;" d="M52.15,44.05c0.733,1.667,1.883,2.517,3.45,2.55
			c1.634,0.066,2.934-0.8,3.9-2.6c-0.9,2.767-2.167,4.133-3.8,4.1C54.033,48.1,52.85,46.75,52.15,44.05z"/>
		<path style="fill-rule:evenodd;clip-rule:evenodd;fill:#887FAB;" d="M41.7,36.85c-0.9,0-1.534-0.75-1.9-2.25
			c0.4,0.933,1.017,1.417,1.85,1.45c0.9,0,1.6-0.483,2.1-1.45C43.283,36.1,42.6,36.85,41.7,36.85z"/>
		<path style="fill-rule:evenodd;clip-rule:evenodd;fill:#887FAB;" d="M64.4,52.65c0.533,1.2,1.383,1.817,2.55,1.85
			c1.2,0.033,2.149-0.583,2.85-1.85c-0.633,1.967-1.566,2.95-2.8,2.95C65.8,55.567,64.934,54.583,64.4,52.65z"/>
		<path style="fill-rule:evenodd;clip-rule:evenodd;fill:#887FAB;" d="M69.95,40.95c0.434,0.933,1.133,1.4,2.1,1.4
			c1,0,1.8-0.483,2.4-1.45c-0.533,1.533-1.316,2.3-2.351,2.3C71.1,43.2,70.384,42.45,69.95,40.95z"/>
		<path style="fill-rule:evenodd;clip-rule:evenodd;fill:#433473;" d="M50.95,32.2c0.833,1.9,2.183,2.867,4.05,2.9
			c1.9,0.033,3.434-0.95,4.6-2.95c-1.033,3.133-2.533,4.7-4.5,4.7C53.167,36.817,51.783,35.267,50.95,32.2z"/>
		<path style="fill-rule:evenodd;clip-rule:evenodd;fill:#433473;" d="M52.1,52.15c0.833,1.867,2.183,2.833,4.05,2.9
			c1.933,0.034,3.466-0.95,4.6-2.95c-1.033,3.1-2.533,4.65-4.5,4.65C54.283,56.717,52.9,55.183,52.1,52.15z"/>
		<path style="fill-rule:evenodd;clip-rule:evenodd;fill:#433473;" d="M42.75,38.95c0.833,1.6,2.133,2.417,3.9,2.45
			c1.8,0.033,3.25-0.8,4.35-2.5c-1,2.667-2.433,4-4.3,4S43.517,41.583,42.75,38.95z"/>
		<path style="fill-rule:evenodd;clip-rule:evenodd;fill:#433473;" d="M71.75,45.8c-0.967,2.967-2.333,4.45-4.1,4.45
			c-1.767-0.033-3.034-1.517-3.801-4.45c0.767,1.8,2,2.733,3.7,2.8C69.283,48.633,70.684,47.7,71.75,45.8z"/>
		<path style="fill-rule:evenodd;clip-rule:evenodd;fill:#433473;" d="M67.05,32.85c0.533,0.9,1.217,1.3,2.05,1.2
			c0.867-0.1,1.483-0.7,1.851-1.8c-0.233,1.633-0.8,2.517-1.7,2.65C68.384,35.033,67.65,34.35,67.05,32.85z"/>
		<path style="fill-rule:evenodd;clip-rule:evenodd;fill:#2B2438;" d="M49.7,56.5c0.7,0.033,1.25,0.617,1.65,1.75
			c0.367,1.1,0.483,2.367,0.35,3.8c-0.133,1.333-0.5,1.917-1.1,1.75c-0.6-0.133-1.184-0.867-1.75-2.2
			c-0.533-1.333-0.733-2.517-0.6-3.55C48.417,56.983,48.9,56.467,49.7,56.5z"/>
		<path style="fill-rule:evenodd;clip-rule:evenodd;fill:#2B2438;" d="M46.9,57.1c0.7-0.067,1.333,0.45,1.9,1.55
			c0.5,1.033,0.784,2.267,0.85,3.7c0.033,1.333-0.25,1.967-0.85,1.9c-0.6-0.033-1.267-0.683-2-1.95c-0.7-1.267-1.05-2.417-1.05-3.45
			C45.75,57.75,46.133,57.167,46.9,57.1z"/>
		<path style="fill-rule:evenodd;clip-rule:evenodd;fill:#2B2438;" d="M52.95,56.4c0.7,0.167,1.117,0.867,1.25,2.1
			c0.133,1.133-0.017,2.383-0.45,3.75c-0.4,1.267-0.883,1.767-1.45,1.5c-0.533-0.233-0.933-1.067-1.2-2.5s-0.217-2.633,0.15-3.6
			C51.617,56.617,52.183,56.2,52.95,56.4z"/>
		<path style="fill-rule:evenodd;clip-rule:evenodd;fill:#2B2438;" d="M64.35,56.35c0.667,0.233,1.034,0.95,1.101,2.15
			c0.033,1.167-0.217,2.417-0.75,3.75c-0.5,1.233-1.017,1.683-1.55,1.35c-0.534-0.3-0.884-1.167-1.051-2.6
			c-0.133-1.433,0.017-2.633,0.45-3.6C63.017,56.433,63.616,56.083,64.35,56.35z"/>
		<path style="fill-rule:evenodd;clip-rule:evenodd;fill:#2B2438;" d="M61.55,56.15c0.667,0.133,1.101,0.8,1.3,2
			c0.2,1.167,0.134,2.434-0.199,3.8c-0.301,1.3-0.75,1.833-1.351,1.6c-0.566-0.233-1.017-1.05-1.35-2.45
			c-0.334-1.4-0.351-2.6-0.05-3.6C60.233,56.467,60.783,56.017,61.55,56.15z"/>
		<path style="fill-rule:evenodd;clip-rule:evenodd;fill:#2B2438;" d="M67.55,56.95c0.601,0.367,0.8,1.15,0.601,2.35
			c-0.233,1.133-0.75,2.284-1.551,3.45c-0.733,1.1-1.333,1.45-1.8,1.05c-0.467-0.4-0.616-1.333-0.45-2.8
			c0.167-1.433,0.567-2.567,1.2-3.4C66.217,56.767,66.884,56.55,67.55,56.95z"/>
		<path style="fill-rule:evenodd;clip-rule:evenodd;fill:#21708A;" d="M53.55,57.15c0.567,1.1,0.684,2.367,0.35,3.8
			c-0.167,0.733-0.383,1.35-0.65,1.85c0.333-0.8,0.3-2.133-0.1-4c-0.2-0.733-0.233-1.283-0.1-1.65
			C53.183,56.75,53.35,56.75,53.55,57.15z"/>
		<path style="fill-rule:evenodd;clip-rule:evenodd;fill:#054F96;" d="M67.8,58.1c0.134,1.233-0.2,2.483-1,3.75
			c-0.399,0.633-0.816,1.133-1.25,1.5c0.601-0.633,1.033-1.9,1.3-3.8c0.067-0.733,0.233-1.267,0.5-1.6
			C67.616,57.617,67.767,57.667,67.8,58.1z"/>
		<path style="fill-rule:evenodd;clip-rule:evenodd;fill:#054F96;" d="M50.25,57.15c0.733,0.967,1.067,2.2,1,3.7
			c-0.033,0.767-0.133,1.417-0.3,1.95c0.233-1.033-0.034-2.333-0.8-3.9c-0.333-0.7-0.467-1.267-0.4-1.7
			C49.817,56.8,49.983,56.783,50.25,57.15z"/>
		<path style="fill-rule:evenodd;clip-rule:evenodd;fill:#433473;" d="M64.8,57.3c0.467,1.133,0.483,2.417,0.05,3.85
			c-0.233,0.7-0.5,1.3-0.8,1.8c0.5-1,0.566-2.333,0.2-4c-0.134-0.767-0.116-1.333,0.05-1.7C64.467,56.883,64.634,56.9,64.8,57.3z"/>
		<path style="fill-rule:evenodd;clip-rule:evenodd;fill:#433473;" d="M47.65,57.8c0.9,0.867,1.45,2.034,1.65,3.5
			c0.1,0.733,0.1,1.383,0,1.95c0.034-1.067-0.45-2.3-1.45-3.7C47.417,58.917,47.2,58.4,47.2,58S47.35,57.533,47.65,57.8z"/>
		<path style="fill-rule:evenodd;clip-rule:evenodd;fill:#635A29;" d="M62.25,57.2c0.533,1.1,0.634,2.367,0.3,3.8
			c-0.166,0.733-0.399,1.35-0.7,1.85c0.434-0.967,0.417-2.3-0.05-4c-0.166-0.733-0.184-1.283-0.05-1.65S62.05,56.833,62.25,57.2z"/>
	</g>
	<g>
		<g>
			<path style="fill-rule:evenodd;clip-rule:evenodd;fill:#2B2438;" d="M3.95,97.45c0.833-0.233,2.1-0.733,3.8-1.5
				c3.367-1.533,7.2-3.617,11.5-6.25c4.2-2.566,7.517-5.533,9.95-8.9l2.4-4.3l9.3,10.35l-3.65,35.65
				c-10.367-1.3-19.033-5.866-26-13.7c-2.167-2.434-4.033-5.05-5.6-7.85L3.95,97.45z"/>
			
				<linearGradient id="SVGID_9_" gradientUnits="userSpaceOnUse" x1="-66.0786" y1="85.6035" x2="-44.7921" y2="85.6035" gradientTransform="matrix(0.6542 -0.7563 0.7563 0.6542 1.494288e-004 -4.126430e-004)">
				<stop  offset="0" style="stop-color:#054F96"/>
				<stop  offset="0.1804" style="stop-color:#094A8C"/>
				<stop  offset="0.4902" style="stop-color:#143E71"/>
				<stop  offset="0.8863" style="stop-color:#252A46"/>
				<stop  offset="1" style="stop-color:#2B2438"/>
			</linearGradient>
			<path style="fill-rule:evenodd;clip-rule:evenodd;fill:url(#SVGID_9_);" d="M34.3,84.65l5.5,4.399
				c-2.133,4.967-5.566,9.434-10.3,13.4c-4.067,3.399-7.117,5.116-9.15,5.149c-1.333,0.034-1.85-0.383-1.55-1.25
				c0.4-1.199,2.35-3.449,5.85-6.75c3.233-3.066,5.817-6.483,7.75-10.25L34.3,84.65z"/>
			
				<linearGradient id="SVGID_10_" gradientUnits="userSpaceOnUse" x1="-43.4458" y1="88.9824" x2="-12.8673" y2="88.9824" gradientTransform="matrix(0.8552 -0.5183 0.5183 0.8552 -4.616380e-004 -2.059937e-004)">
				<stop  offset="0" style="stop-color:#21708A"/>
				<stop  offset="0.2" style="stop-color:#226780"/>
				<stop  offset="0.5451" style="stop-color:#254E65"/>
				<stop  offset="0.9843" style="stop-color:#2B263A"/>
				<stop  offset="1" style="stop-color:#2B2438"/>
			</linearGradient>
			<path style="fill-rule:evenodd;clip-rule:evenodd;fill:url(#SVGID_10_);" d="M31.5,79.4l4.3,5.399
				c-3.167,4.3-7.433,7.9-12.8,10.8c-4.667,2.5-7.95,3.551-9.85,3.15c-1.3-0.233-1.7-0.767-1.2-1.6c0.7-1.167,3.066-3.017,7.1-5.551
				c3.733-2.333,6.934-5.066,9.6-8.199L31.5,79.4z"/>
			
				<linearGradient id="SVGID_11_" gradientUnits="userSpaceOnUse" x1="-90.1572" y1="78.6602" x2="-59.6901" y2="78.6602" gradientTransform="matrix(0.4817 -0.8764 0.8764 0.4817 -3.060997e-004 -3.375411e-004)">
				<stop  offset="0" style="stop-color:#21708A"/>
				<stop  offset="0.2" style="stop-color:#226780"/>
				<stop  offset="0.5451" style="stop-color:#254E65"/>
				<stop  offset="0.9843" style="stop-color:#2B263A"/>
				<stop  offset="1" style="stop-color:#2B2438"/>
			</linearGradient>
			<path style="fill-rule:evenodd;clip-rule:evenodd;fill:url(#SVGID_11_);" d="M35,94.1l0.45-4.949l6.45,2.5
				c-0.6,5.267-2.566,10.449-5.9,15.55c-2.833,4.366-5.217,6.866-7.15,7.5c-1.233,0.399-1.833,0.166-1.8-0.7
				c0.034-1.267,1.217-3.967,3.55-8.1C32.8,102.1,34.267,98.167,35,94.1z"/>
			
				<linearGradient id="SVGID_12_" gradientUnits="userSpaceOnUse" x1="-56.1138" y1="90.7002" x2="-42.3504" y2="90.7002" gradientTransform="matrix(0.7865 -0.6176 0.6176 0.7865 2.061129e-004 -1.920462e-004)">
				<stop  offset="0" style="stop-color:#433473"/>
				<stop  offset="0.2588" style="stop-color:#3F3169"/>
				<stop  offset="0.698" style="stop-color:#342A4E"/>
				<stop  offset="1" style="stop-color:#2B2438"/>
			</linearGradient>
			<path style="fill-rule:evenodd;clip-rule:evenodd;fill:url(#SVGID_12_);" d="M10.75,100.15c0.9,0.566,2.333,0.699,4.3,0.399
				c3.934-0.6,8.583-3.066,13.95-7.399l-6.5,6.199c-4.233,4.5-6.067,7.617-5.5,9.351c-1.233,0.2-3.45-0.117-6.65-0.95
				C9.95,105.517,10.083,102.983,10.75,100.15z"/>
			
				<linearGradient id="SVGID_13_" gradientUnits="userSpaceOnUse" x1="-68.5059" y1="93.9746" x2="-55.7033" y2="93.9746" gradientTransform="matrix(0.6893 -0.7245 0.7245 0.6893 -1.504421e-004 -2.496243e-004)">
				<stop  offset="0" style="stop-color:#433473"/>
				<stop  offset="0.2588" style="stop-color:#3F3169"/>
				<stop  offset="0.698" style="stop-color:#342A4E"/>
				<stop  offset="1" style="stop-color:#2B2438"/>
			</linearGradient>
			<path style="fill-rule:evenodd;clip-rule:evenodd;fill:url(#SVGID_13_);" d="M17.8,109.5c1.034,0.3,2.5,0.083,4.4-0.65
				c3.833-1.466,8.017-4.816,12.55-10.05l-5.6,7.05c-3.367,5.101-4.233,8.667-2.6,10.7c-1.966,0.033-4.45-0.25-7.45-0.85
				c-0.267-0.3-0.517-0.783-0.75-1.45C17.883,112.884,17.7,111.3,17.8,109.5z"/>
			<path style="fill-rule:evenodd;clip-rule:evenodd;fill:#433473;" d="M27.2,116.7c1.133,0,2.533-0.634,4.2-1.9
				c3.3-2.533,6.233-7,8.8-13.399l-2.65,8.6c-1.5,6-1.566,9.616-0.2,10.85l-5.3,0.801c-0.5-0.134-1.083-0.45-1.75-0.95
				C29,119.733,27.967,118.4,27.2,116.7z"/>
			<path style="fill-rule:evenodd;clip-rule:evenodd;fill:#433473;" d="M5.25,98.25l-1.3-0.8c2.2-0.767,5.933-2.5,11.2-5.2
				c-2.7,1.667-4.35,3.333-4.95,5c-0.267,0.8-0.284,1.45-0.05,1.95C8.183,99.1,6.55,98.783,5.25,98.25z"/>
			<path style="fill-rule:evenodd;clip-rule:evenodd;fill:#887FAB;" d="M7.2,102.75c1.267,2.033,3.75,5.217,7.45,9.55
				c-0.733,0.267-1.566,0.4-2.5,0.4c-1.9-0.066-3.383-0.851-4.45-2.351c-0.967-1.399-1.333-3.083-1.1-5.05L7.2,102.75z"/>
			<path style="fill-rule:evenodd;clip-rule:evenodd;fill:#887FAB;" d="M7.2,103c-0.833,0-1.767-0.167-2.8-0.5
				c-2.066-0.634-3.533-1.767-4.4-3.4c1.933-0.733,3.25-1.283,3.95-1.649C5.017,99.616,6.1,101.467,7.2,103z"/>
			<path style="fill-rule:evenodd;clip-rule:evenodd;fill:#887FAB;" d="M14.65,112.2c2.033,1.866,4.267,3.5,6.7,4.899
				c1.233,0.733,2.267,1.267,3.1,1.601c-0.633,0.566-1.434,1.033-2.4,1.399c-1.9,0.7-3.667,0.534-5.3-0.5
				c-1.433-0.899-2.217-2.399-2.35-4.5L14.65,112.2z"/>
			<path style="fill-rule:evenodd;clip-rule:evenodd;fill:#887FAB;" d="M24.25,118.55c1.867,1.2,4.317,2.117,7.35,2.75
				c1.533,0.334,2.883,0.533,4.05,0.601l-1.75,2.149c-1.566,1.3-3.316,1.717-5.25,1.25c-1.667-0.399-2.9-1.649-3.7-3.75
				L24.25,118.55z"/>
		</g>
		<g>
			<path style="fill-rule:evenodd;clip-rule:evenodd;fill:#2B2438;" d="M107.45,96.05c-1.3,3.7-3.634,7.55-7,11.55
				c-6.733,8.034-15.267,12.834-25.601,14.4l-4.6-35.55l9-10.601l2.55,4.25c2.533,3.301,5.917,6.167,10.15,8.601
				c4.366,2.533,8.267,4.517,11.7,5.95C105.35,95.384,106.616,95.85,107.45,96.05z"/>
			<linearGradient id="SVGID_14_" gradientUnits="userSpaceOnUse" x1="89.5391" y1="88.8281" x2="75.6141" y2="104.9281">
				<stop  offset="0" style="stop-color:#054F96"/>
				<stop  offset="0.1804" style="stop-color:#094A8C"/>
				<stop  offset="0.4902" style="stop-color:#143E71"/>
				<stop  offset="0.8863" style="stop-color:#252A46"/>
				<stop  offset="1" style="stop-color:#2B2438"/>
			</linearGradient>
			<path style="fill-rule:evenodd;clip-rule:evenodd;fill:url(#SVGID_14_);" d="M76.75,84.05l2.05,4.7c2.033,3.7,4.7,7.033,8,10
				c3.566,3.2,5.584,5.4,6.05,6.6c0.301,0.867-0.216,1.301-1.55,1.301c-2.033,0.033-5.1-1.584-9.2-4.851
				C77.267,97.934,73.7,93.55,71.4,88.65L76.75,84.05z"/>
			<linearGradient id="SVGID_15_" gradientUnits="userSpaceOnUse" x1="101.5303" y1="80.6455" x2="75.3803" y2="96.4955">
				<stop  offset="0" style="stop-color:#21708A"/>
				<stop  offset="0.2" style="stop-color:#226780"/>
				<stop  offset="0.5451" style="stop-color:#254E65"/>
				<stop  offset="0.9843" style="stop-color:#2B263A"/>
				<stop  offset="1" style="stop-color:#2B2438"/>
			</linearGradient>
			<path style="fill-rule:evenodd;clip-rule:evenodd;fill:url(#SVGID_15_);" d="M88.35,94.7c-5.433-2.733-9.8-6.2-13.1-10.4l4.2-5.5
				l2.95,3.9c2.767,3.066,6.05,5.717,9.85,7.95c4.066,2.399,6.467,4.166,7.2,5.3c0.5,0.833,0.116,1.383-1.15,1.649
				C96.4,98.066,93.083,97.1,88.35,94.7z"/>
			<linearGradient id="SVGID_16_" gradientUnits="userSpaceOnUse" x1="93.9551" y1="101.0664" x2="63.4801" y2="101.7164">
				<stop  offset="0" style="stop-color:#21708A"/>
				<stop  offset="0.2" style="stop-color:#226780"/>
				<stop  offset="0.5451" style="stop-color:#254E65"/>
				<stop  offset="0.9843" style="stop-color:#2B263A"/>
				<stop  offset="1" style="stop-color:#2B2438"/>
			</linearGradient>
			<path style="fill-rule:evenodd;clip-rule:evenodd;fill:url(#SVGID_16_);" d="M75.75,88.6l0.6,4.95
				c0.834,4.066,2.4,7.967,4.7,11.7c2.467,4.066,3.733,6.717,3.8,7.95c0.034,0.899-0.583,1.149-1.85,0.75
				c-1.934-0.566-4.366-3-7.3-7.3c-3.467-5-5.584-10.134-6.351-15.4L75.75,88.6z"/>
			<linearGradient id="SVGID_17_" gradientUnits="userSpaceOnUse" x1="98.1055" y1="94.5176" x2="87.2805" y2="103.0176">
				<stop  offset="0" style="stop-color:#433473"/>
				<stop  offset="0.2588" style="stop-color:#3F3169"/>
				<stop  offset="0.698" style="stop-color:#342A4E"/>
				<stop  offset="1" style="stop-color:#2B2438"/>
			</linearGradient>
			<path style="fill-rule:evenodd;clip-rule:evenodd;fill:url(#SVGID_17_);" d="M89,98.45l-6.7-6.05
				c5.467,4.199,10.184,6.55,14.15,7.05c1.967,0.267,3.383,0.1,4.25-0.5c0.767,2.833,0.983,5.35,0.649,7.55
				c-2,0.6-3.699,0.967-5.1,1.1l-1.55,0.051C95.233,105.884,93.333,102.816,89,98.45z"/>
			<linearGradient id="SVGID_18_" gradientUnits="userSpaceOnUse" x1="88.7461" y1="102.2998" x2="79.9211" y2="111.5748">
				<stop  offset="0" style="stop-color:#433473"/>
				<stop  offset="0.2588" style="stop-color:#3F3169"/>
				<stop  offset="0.698" style="stop-color:#342A4E"/>
				<stop  offset="1" style="stop-color:#2B2438"/>
			</linearGradient>
			<path style="fill-rule:evenodd;clip-rule:evenodd;fill:url(#SVGID_18_);" d="M93.95,108.5c0.133,1.8-0.017,3.384-0.45,4.75
				c-0.233,0.7-0.467,1.2-0.7,1.5c-1.866,0.434-3.666,0.733-5.399,0.9l-2,0.1c1.6-2.066,0.633-5.6-2.9-10.6l-5.8-6.9
				c4.633,5.1,8.899,8.333,12.8,9.7C91.467,108.65,92.95,108.833,93.95,108.5z"/>
			<path style="fill-rule:evenodd;clip-rule:evenodd;fill:#433473;" d="M80,121l-5.3-0.65c1.333-1.3,1.184-4.916-0.45-10.85
				l-2.9-8.55c2.7,6.366,5.733,10.767,9.101,13.2c1.7,1.233,3.116,1.816,4.25,1.75c-0.7,1.733-1.684,3.1-2.95,4.1
				C81.083,120.5,80.5,120.833,80,121z"/>
			<path style="fill-rule:evenodd;clip-rule:evenodd;fill:#433473;" d="M101.3,98c0.233-0.5,0.2-1.167-0.1-2
				c-0.634-1.634-2.334-3.233-5.101-4.8l4.45,2.05c3.233,1.434,5.533,2.366,6.9,2.8c-0.233,0.267-0.667,0.55-1.3,0.851
				C104.884,97.467,103.267,97.833,101.3,98z"/>
			<path style="fill-rule:evenodd;clip-rule:evenodd;fill:#887FAB;" d="M104.35,101.45l0.7,2.5c0.267,1.967-0.066,3.666-1,5.1
				c-1.033,1.533-2.483,2.351-4.35,2.45l-2.55-0.3C100.717,106.767,103.116,103.517,104.35,101.45z"/>
			<path style="fill-rule:evenodd;clip-rule:evenodd;fill:#887FAB;" d="M111.45,97.6c-0.834,1.634-2.267,2.817-4.3,3.551
				l-2.801,0.55c1.067-1.566,2.101-3.45,3.101-5.65l0.899,0.4C109.184,96.816,110.217,97.2,111.45,97.6z"/>
			<path style="fill-rule:evenodd;clip-rule:evenodd;fill:#887FAB;" d="M97.15,111.1l0.35,2.851c-0.066,2.1-0.816,3.633-2.25,4.6
				c-1.566,1.101-3.316,1.316-5.25,0.65l-2.45-1.351c0.834-0.366,1.851-0.916,3.05-1.649C93,114.7,95.184,113,97.15,111.1z"/>
			<path style="fill-rule:evenodd;clip-rule:evenodd;fill:#887FAB;" d="M80.45,120.65c3.033-0.7,5.467-1.684,7.3-2.95l-0.65,3.05
				c-0.767,2.1-1.966,3.366-3.6,3.8c-1.9,0.533-3.65,0.15-5.25-1.149l-1.8-2.051L80.45,120.65z"/>
		</g>
		
			<linearGradient id="SVGID_19_" gradientUnits="userSpaceOnUse" x1="-129.1025" y1="57.207" x2="-88.2018" y2="57.207" gradientTransform="matrix(0.0061 -1 1 0.0061 1.910226e-004 4.040794e-004)">
			<stop  offset="0" style="stop-color:#574A85"/>
			<stop  offset="0.2118" style="stop-color:#51457B"/>
			<stop  offset="0.5725" style="stop-color:#423860"/>
			<stop  offset="1" style="stop-color:#2B2438"/>
		</linearGradient>
		<path style="fill-rule:evenodd;clip-rule:evenodd;fill:url(#SVGID_19_);" d="M35.95,86.1l0.45-3.3l38.1-1.149l0.8,4.05
			c1.033,3.6,2.767,7.717,5.2,12.35c1.967,3.7,2.95,7.617,2.95,11.75c0,4.233-1.017,7.934-3.05,11.101
			c-2.434,3.767-4.884,6.466-7.351,8.1c-4.033,2.7-9.45,4.134-16.25,4.3c-5.9,0.134-11.033-1-15.4-3.399
			c-3.833-2.134-6.816-5.067-8.95-8.801c-2.067-3.6-3-7.783-2.8-12.55c0.167-3.399,0.817-6.55,1.95-9.45
			C33.733,93.7,35.183,89.366,35.95,86.1z"/>
		<path style="fill-rule:evenodd;clip-rule:evenodd;fill:#2B2438;" d="M67.85,58.45c3.067-0.733,5.767-1.95,8.101-3.65
			c1.533-1.133,2.717-2.35,3.55-3.65c0.434-0.633,0.717-1.167,0.85-1.6L82.2,56.6c0.733,5.433-0.084,10.083-2.45,13.95L67.85,58.45z
			"/>
		
			<linearGradient id="SVGID_20_" gradientUnits="userSpaceOnUse" x1="13.2773" y1="-97.9863" x2="23.2525" y2="-97.9863" gradientTransform="matrix(-0.4662 0.8847 -0.8847 -0.4662 -5.978346e-005 -2.992153e-005)">
			<stop  offset="0" style="stop-color:#635A29"/>
			<stop  offset="0.2706" style="stop-color:#59502C"/>
			<stop  offset="0.7255" style="stop-color:#3E3733"/>
			<stop  offset="1" style="stop-color:#2B2438"/>
		</linearGradient>
		<path style="fill-rule:evenodd;clip-rule:evenodd;fill:url(#SVGID_20_);" d="M73.35,62.25c1.101-0.367,2.284-1.217,3.551-2.55
			c1.166-1.2,2.033-2.434,2.6-3.7l0.45-1.55L81.1,59c0.467,3.533-0.066,6.533-1.6,9L73.35,62.25z"/>
		<path style="fill-rule:evenodd;clip-rule:evenodd;fill:#2B2438;" d="M32.5,70.65c-2.467-3.8-3.417-8.434-2.85-13.9l1.65-7.1
			l0.9,1.6c0.9,1.3,2.133,2.483,3.7,3.55c2.367,1.633,5.083,2.784,8.15,3.45L32.5,70.65z"/>
		
			<linearGradient id="SVGID_21_" gradientUnits="userSpaceOnUse" x1="65.3369" y1="-4.8369" x2="78.0856" y2="-4.8369" gradientTransform="matrix(0.4275 0.904 -0.904 0.4275 3.518462e-004 -1.732707e-004)">
			<stop  offset="0" style="stop-color:#433473"/>
			<stop  offset="0.2588" style="stop-color:#3F3169"/>
			<stop  offset="0.698" style="stop-color:#342A4E"/>
			<stop  offset="1" style="stop-color:#2B2438"/>
		</linearGradient>
		<path style="fill-rule:evenodd;clip-rule:evenodd;fill:url(#SVGID_21_);" d="M38.9,61.5l-6,5.95c-1.6-2.434-2.2-5.417-1.8-8.95
			l1.05-4.6l0.5,1.55c0.567,1.267,1.434,2.466,2.6,3.6C36.583,60.35,37.8,61.167,38.9,61.5z"/>
		<path style="fill-rule:evenodd;clip-rule:evenodd;fill:#21708A;" d="M40.4,60.1c4.7-2.833,9.733-4.233,15.1-4.2
			c5.733,0,10.75,1.184,15.05,3.55c2.134,1.2,3.7,2.383,4.7,3.55L55.8,74.3l-20.85-9.95C36.217,62.95,38.033,61.533,40.4,60.1z"/>
		
			<linearGradient id="SVGID_22_" gradientUnits="userSpaceOnUse" x1="59.2119" y1="-54.9785" x2="81.112" y2="-54.9785" gradientTransform="matrix(-0.0034 1 -1 -0.0034 -3.308435e-004 3.125519e-005)">
			<stop  offset="0" style="stop-color:#054F96"/>
			<stop  offset="0.098" style="stop-color:#094A8C"/>
			<stop  offset="0.7098" style="stop-color:#212F50"/>
			<stop  offset="1" style="stop-color:#2B2438"/>
		</linearGradient>
		<path style="fill-rule:evenodd;clip-rule:evenodd;fill:url(#SVGID_22_);" d="M55.4,77.35l-19.2-10c1.167-1.4,2.833-2.8,5-4.2
			c4.3-2.833,8.933-4.233,13.899-4.2c5.267,0.033,9.884,1.216,13.851,3.55c1.967,1.2,3.416,2.383,4.35,3.55L55.4,77.35z"/>
		<g>
			
				<linearGradient id="SVGID_23_" gradientUnits="userSpaceOnUse" x1="29.0493" y1="74.6221" x2="55.1006" y2="74.6221" gradientTransform="matrix(0.9999 -0.0134 0.0134 0.9999 -2.193470e-004 2.377136e-004)">
				<stop  offset="0" style="stop-color:#242224"/>
				<stop  offset="0.2392" style="stop-color:#27252E"/>
				<stop  offset="0.6392" style="stop-color:#302E49"/>
				<stop  offset="1" style="stop-color:#3A3866"/>
			</linearGradient>
			<path style="fill-rule:evenodd;clip-rule:evenodd;fill:url(#SVGID_23_);" d="M33.75,65c2.5-2.567,5.55-3.883,9.15-3.95
				c3.6-0.033,6.684,1.2,9.25,3.7c2.6,2.5,3.917,5.55,3.95,9.15c0.067,3.566-1.167,6.633-3.7,9.199c-2.5,2.601-5.55,3.917-9.15,3.95
				c-3.6,0.066-6.683-1.166-9.25-3.7c-2.567-2.5-3.883-5.55-3.95-9.149C30.017,70.634,31.25,67.567,33.75,65z"/>
			<path style="fill-rule:evenodd;clip-rule:evenodd;fill:#DCE6E6;" d="M37.75,68.6c1.467-1.5,3.267-2.267,5.4-2.3
				c2.1-0.033,3.917,0.684,5.45,2.15c1.5,1.466,2.267,3.267,2.3,5.399c0.033,2.134-0.683,3.95-2.15,5.45s-3.267,2.267-5.4,2.3
				c-2.133,0.067-3.95-0.649-5.45-2.149c-1.533-1.467-2.316-3.267-2.35-5.4C35.517,71.917,36.25,70.1,37.75,68.6z"/>
			
				<linearGradient id="SVGID_24_" gradientUnits="userSpaceOnUse" x1="55.6377" y1="58.0127" x2="71.2928" y2="58.0127" gradientTransform="matrix(0.9534 0.3018 -0.3018 0.9534 -1.257062e-004 8.258224e-005)">
				<stop  offset="0" style="stop-color:#242224"/>
				<stop  offset="0.2392" style="stop-color:#27252E"/>
				<stop  offset="0.6392" style="stop-color:#302E49"/>
				<stop  offset="1" style="stop-color:#3A3866"/>
			</linearGradient>
			<path style="fill-rule:evenodd;clip-rule:evenodd;fill:url(#SVGID_24_);" d="M36.5,72.3L36,70.55
				c1.033,1.934,2.467,3.117,4.3,3.55c1.2,0.267,2.817,0.217,4.85-0.149c1.8-0.367,3.2-0.4,4.2-0.101c0.733,0.233,1.2,0.567,1.4,1
				C51.217,76.15,50.233,77,47.8,77.4c-2.5,0.399-4.9-0.051-7.2-1.351C38.6,74.95,37.233,73.7,36.5,72.3z"/>
			
				<linearGradient id="SVGID_25_" gradientUnits="userSpaceOnUse" x1="54.5835" y1="75.041" x2="80.6357" y2="75.041" gradientTransform="matrix(0.9999 -0.0134 0.0134 0.9999 -2.193470e-004 2.377136e-004)">
				<stop  offset="0" style="stop-color:#242224"/>
				<stop  offset="0.2392" style="stop-color:#27252E"/>
				<stop  offset="0.6392" style="stop-color:#302E49"/>
				<stop  offset="1" style="stop-color:#3A3866"/>
			</linearGradient>
			<path style="fill-rule:evenodd;clip-rule:evenodd;fill:url(#SVGID_25_);" d="M77.65,64.8c2.6,2.5,3.916,5.55,3.949,9.15
				c0.067,3.566-1.166,6.649-3.699,9.25c-2.5,2.6-5.551,3.916-9.15,3.95c-3.6,0.033-6.684-1.2-9.25-3.7
				c-2.566-2.533-3.884-5.584-3.95-9.15c-0.033-3.6,1.2-6.683,3.7-9.25c2.5-2.566,5.55-3.883,9.15-3.95
				C72,61.067,75.083,62.3,77.65,64.8z"/>
			<path style="fill-rule:evenodd;clip-rule:evenodd;fill:#DCE6E6;" d="M76.4,73.9c0.033,2.133-0.684,3.949-2.15,5.449
				c-1.467,1.534-3.267,2.317-5.4,2.351C66.717,81.733,64.9,81,63.4,79.5c-1.5-1.467-2.267-3.267-2.301-5.4
				c-0.033-2.133,0.684-3.949,2.15-5.45c1.467-1.5,3.267-2.267,5.4-2.3c2.133-0.033,3.949,0.683,5.449,2.15S76.366,71.767,76.4,73.9
				z"/>
			
				<linearGradient id="SVGID_26_" gradientUnits="userSpaceOnUse" x1="55.5137" y1="78.249" x2="73.0686" y2="78.249" gradientTransform="matrix(0.9983 -0.0584 0.0584 0.9983 -4.431605e-005 1.068301e-004)">
				<stop  offset="0" style="stop-color:#242224"/>
				<stop  offset="0.2392" style="stop-color:#27252E"/>
				<stop  offset="0.6392" style="stop-color:#302E49"/>
				<stop  offset="1" style="stop-color:#3A3866"/>
			</linearGradient>
			<path style="fill-rule:evenodd;clip-rule:evenodd;fill:url(#SVGID_26_);" d="M61.35,75.35c0.167-0.466,0.634-0.833,1.4-1.1
				c0.934-0.267,2.316-0.267,4.15,0c2.066,0.3,3.699,0.3,4.899,0c1.834-0.467,3.233-1.684,4.2-3.65
				c0.066,0.467-0.083,1.067-0.45,1.801c-0.7,1.399-2.033,2.683-4,3.85c-2.267,1.333-4.666,1.833-7.2,1.5
				C61.917,77.45,60.917,76.65,61.35,75.35z"/>
			<path style="fill-rule:evenodd;clip-rule:evenodd;fill:#635A29;" d="M55.8,76.4c0.233,1.6,0.917,3.233,2.05,4.899
				c0.567,0.834,1.101,1.517,1.601,2.05L55.85,89.45L52.1,83.4c1.133-1.101,2.083-2.601,2.85-4.5L55.8,76.4z"/>
			<path style="fill-rule:evenodd;clip-rule:evenodd;fill:#2B2438;" d="M55.75,76l0.1,13.45L52.1,83.4
				c0.467-0.467,0.95-1.134,1.45-2C54.617,79.667,55.35,77.866,55.75,76z"/>
		</g>
		<path style="fill-rule:evenodd;clip-rule:evenodd;fill:#635A29;" d="M54.9,80.65c0.367,1.199,0.333,1.816-0.1,1.85
			c-0.267,0.033-0.35-0.25-0.25-0.85C54.65,81.116,54.767,80.783,54.9,80.65z"/>
		<path style="fill-rule:evenodd;clip-rule:evenodd;fill:#2B2438;" d="M56.7,80.6c0.467,1.233,0.467,1.851,0,1.851
			c-0.233,0.033-0.334-0.25-0.3-0.851C56.434,81.066,56.533,80.733,56.7,80.6z"/>
		<path style="fill-rule:evenodd;clip-rule:evenodd;fill:#A49DBD;" d="M43.35,94.7c-2.2,0-3.767-1.783-4.7-5.351
			c0.967,2.2,2.517,3.317,4.65,3.351c2.167,0.066,3.9-1.066,5.2-3.4C47.3,92.934,45.583,94.733,43.35,94.7z"/>
		<path style="fill-rule:evenodd;clip-rule:evenodd;fill:#A49DBD;" d="M62.5,103c0.967,2.033,2.5,3.066,4.6,3.1
			c2.167,0.067,3.9-0.983,5.2-3.149c-1.166,3.333-2.866,5-5.1,5C65,107.917,63.434,106.267,62.5,103z"/>
		<path style="fill-rule:evenodd;clip-rule:evenodd;fill:#A49DBD;" d="M41.8,124.1c0.633,1.4,1.667,2.117,3.1,2.15
			c1.467,0.033,2.633-0.7,3.5-2.2c-0.8,2.3-1.95,3.45-3.45,3.45C43.483,127.5,42.433,126.366,41.8,124.1z"/>
		<path style="fill-rule:evenodd;clip-rule:evenodd;fill:#A49DBD;" d="M32.85,112.8c0.967,2.033,2.517,3.084,4.65,3.15
			c2.167,0.033,3.9-1.033,5.2-3.2c-1.2,3.366-2.917,5.033-5.15,5C35.35,117.75,33.783,116.1,32.85,112.8z"/>
		<path style="fill-rule:evenodd;clip-rule:evenodd;fill:#887FAB;" d="M62.2,89.45c0.967,2.3,2.55,3.483,4.75,3.55
			s3.967-1.134,5.3-3.6c-1.2,3.767-2.934,5.649-5.2,5.649S63.167,93.184,62.2,89.45z"/>
		<path style="fill-rule:evenodd;clip-rule:evenodd;fill:#887FAB;" d="M51.05,110.3c1,2.3,2.583,3.483,4.75,3.55
			c2.233,0.034,4.017-1.166,5.351-3.6c-1.2,3.8-2.95,5.684-5.25,5.65C53.633,115.9,52.017,114.033,51.05,110.3z"/>
		<path style="fill-rule:evenodd;clip-rule:evenodd;fill:#887FAB;" d="M34,97.25c0.533,1.267,1.383,1.917,2.55,1.95
			c1.2,0.033,2.167-0.617,2.9-1.95c-0.667,2.1-1.617,3.134-2.85,3.1C35.367,100.35,34.5,99.316,34,97.25z"/>
		<path style="fill-rule:evenodd;clip-rule:evenodd;fill:#887FAB;" d="M67.95,122.2c0.733,1.633,1.899,2.483,3.5,2.55
			c1.633,0.033,2.934-0.833,3.899-2.6c-0.899,2.699-2.183,4.05-3.85,4.05S68.65,124.866,67.95,122.2z"/>
		<path style="fill-rule:evenodd;clip-rule:evenodd;fill:#887FAB;" d="M75.55,106c0.601,1.267,1.584,1.917,2.95,1.95
			s2.467-0.634,3.3-2c-0.733,2.1-1.816,3.149-3.25,3.149S76.116,108.066,75.55,106z"/>
		<path style="fill-rule:evenodd;clip-rule:evenodd;fill:#433473;" d="M61.3,93.9c-1.434,4.3-3.5,6.449-6.2,6.449
			c-2.7-0.033-4.616-2.149-5.75-6.35c1.167,2.6,3.033,3.917,5.6,3.95C57.583,98.017,59.7,96.667,61.3,93.9z"/>
		<path style="fill-rule:evenodd;clip-rule:evenodd;fill:#433473;" d="M50.9,121.45c1.167,2.6,3.05,3.934,5.65,4
			c2.634,0.066,4.733-1.283,6.3-4.05c-1.433,4.3-3.5,6.433-6.199,6.399C53.95,127.8,52.033,125.684,50.9,121.45z"/>
		<path style="fill-rule:evenodd;clip-rule:evenodd;fill:#433473;" d="M43.5,108.7c-2.567,0-4.383-1.816-5.45-5.45
			c1.133,2.233,2.917,3.384,5.35,3.45c2.5,0.033,4.5-1.134,6-3.5C48.033,106.9,46.067,108.733,43.5,108.7z"/>
		<path style="fill-rule:evenodd;clip-rule:evenodd;fill:#433473;" d="M67.15,112.75c1.066,2.5,2.783,3.767,5.149,3.8
			c2.4,0.066,4.316-1.217,5.75-3.85c-1.3,4.1-3.184,6.133-5.649,6.1C69.934,118.8,68.184,116.783,67.15,112.75z"/>
		<path style="fill-rule:evenodd;clip-rule:evenodd;fill:#433473;" d="M71.6,94.85c0.733,1.233,1.667,1.784,2.801,1.65
			c1.166-0.134,2-0.95,2.5-2.45c-0.301,2.267-1.051,3.483-2.25,3.65C73.45,97.866,72.434,96.917,71.6,94.85z"/>
		<path style="fill-rule:evenodd;clip-rule:evenodd;fill:#2B2438;" d="M47.6,127.45c1,0.033,1.767,0.866,2.3,2.5
			c0.5,1.5,0.65,3.217,0.45,5.149c-0.133,1.834-0.633,2.65-1.5,2.45c-0.833-0.166-1.617-1.184-2.35-3.05
			c-0.767-1.833-1.05-3.467-0.85-4.9C45.85,128.134,46.5,127.417,47.6,127.45z"/>
		<path style="fill-rule:evenodd;clip-rule:evenodd;fill:#2B2438;" d="M43.75,128.3c1-0.1,1.867,0.617,2.6,2.15
			c0.733,1.434,1.133,3.133,1.2,5.1c0.1,1.834-0.283,2.717-1.15,2.65c-0.867-0.101-1.8-1.017-2.8-2.75
			c-0.967-1.733-1.45-3.316-1.45-4.75C42.15,129.233,42.683,128.434,43.75,128.3z"/>
		<path style="fill-rule:evenodd;clip-rule:evenodd;fill:#2B2438;" d="M52.15,127.35c0.934,0.233,1.5,1.2,1.7,2.9
			c0.167,1.6-0.033,3.333-0.6,5.2c-0.567,1.733-1.233,2.416-2,2.05c-0.767-0.333-1.333-1.483-1.7-3.45
			c-0.333-1.967-0.25-3.633,0.25-5C50.3,127.65,51.083,127.083,52.15,127.35z"/>
		<path style="fill-rule:evenodd;clip-rule:evenodd;fill:#2B2438;" d="M67.85,127.25c0.934,0.3,1.434,1.3,1.5,3
			c0.034,1.6-0.3,3.316-1,5.15c-0.666,1.699-1.383,2.35-2.149,1.949c-0.767-0.433-1.25-1.649-1.45-3.649
			c-0.167-1.967,0.05-3.617,0.65-4.95C66,127.417,66.816,126.917,67.85,127.25z"/>
		<path style="fill-rule:evenodd;clip-rule:evenodd;fill:#2B2438;" d="M63.95,127c0.967,0.2,1.583,1.134,1.85,2.8
			c0.267,1.566,0.167,3.3-0.3,5.2c-0.434,1.8-1.05,2.533-1.85,2.2c-0.801-0.3-1.434-1.434-1.9-3.4
			c-0.467-1.934-0.483-3.583-0.05-4.95C62.134,127.417,62.884,126.8,63.95,127z"/>
		<path style="fill-rule:evenodd;clip-rule:evenodd;fill:#2B2438;" d="M72.25,128.1c0.833,0.467,1.1,1.534,0.8,3.2
			c-0.3,1.601-1,3.217-2.1,4.851c-1.033,1.5-1.867,1.966-2.5,1.399c-0.634-0.566-0.834-1.833-0.601-3.8
			c0.233-2,0.784-3.566,1.65-4.7C70.366,127.85,71.283,127.533,72.25,128.1z"/>
		<path style="fill-rule:evenodd;clip-rule:evenodd;fill:#21708A;" d="M52.95,128.35c0.767,1.534,0.917,3.301,0.45,5.301
			c-0.233,1-0.533,1.85-0.9,2.55c0.533-1.267,0.483-3.101-0.15-5.5c-0.267-1.033-0.3-1.816-0.1-2.351
			C52.45,127.816,52.683,127.816,52.95,128.35z"/>
		<path style="fill-rule:evenodd;clip-rule:evenodd;fill:#054F96;" d="M72.65,129.7c0.199,1.7-0.284,3.399-1.45,5.1
			c-0.566,0.867-1.15,1.566-1.75,2.101c0.833-0.867,1.45-2.601,1.85-5.2c0.101-1.066,0.334-1.816,0.7-2.25
			C72.366,129.05,72.583,129.134,72.65,129.7z"/>
		<path style="fill-rule:evenodd;clip-rule:evenodd;fill:#054F96;" d="M48.35,128.35c1.033,1.367,1.517,3.067,1.45,5.101
			c-0.033,1.033-0.167,1.934-0.4,2.7c0.267-1.301-0.117-3.101-1.15-5.4c-0.433-0.967-0.617-1.733-0.55-2.3
			C47.767,127.917,47.983,127.884,48.35,128.35z"/>
		<path style="fill-rule:evenodd;clip-rule:evenodd;fill:#433473;" d="M68.45,128.55c0.633,1.601,0.649,3.384,0.05,5.351
			c-0.3,0.966-0.667,1.783-1.1,2.449c0.366-0.699,0.55-1.699,0.55-3c0-0.933-0.084-1.767-0.25-2.5
			c-0.167-1.033-0.134-1.816,0.1-2.35C68,128,68.217,128.017,68.45,128.55z"/>
		<path style="fill-rule:evenodd;clip-rule:evenodd;fill:#433473;" d="M44.8,129.3c1.233,1.167,1.983,2.767,2.25,4.8
			c0.133,1.034,0.133,1.934,0,2.7c0.067-1.366-0.6-3.066-2-5.1c-0.6-0.9-0.9-1.634-0.9-2.2C44.15,128.967,44.367,128.9,44.8,129.3z"
			/>
		<path style="fill-rule:evenodd;clip-rule:evenodd;fill:#635A29;" d="M64.95,128.45c0.767,1.533,0.899,3.283,0.399,5.25
			c-0.233,1-0.55,1.85-0.949,2.55c0.5-1.1,0.483-2.934-0.051-5.5c-0.267-1.033-0.3-1.816-0.1-2.35
			C64.45,127.9,64.684,127.917,64.95,128.45z"/>
	</g>
</g>
</svg>
