<?xml version="1.0" encoding="iso-8859-1"?>
<!-- Generator: Adobe Illustrator 15.1.0, SVG Export Plug-In . SVG Version: 6.00 Build 0)  -->
<!DOCTYPE svg PUBLIC "-//W3C//DTD SVG 1.1//EN" "http://www.w3.org/Graphics/SVG/1.1/DTD/svg11.dtd">
<svg version="1.1" id="Layer_3" xmlns="http://www.w3.org/2000/svg" xmlns:xlink="http://www.w3.org/1999/xlink" x="0px" y="0px"
	 width="24.65px" height="58.55px" viewBox="0 0 24.65 58.55" style="enable-background:new 0 0 24.65 58.55;" xml:space="preserve"
	>
<symbol  id="flash0.ai_x2F_Layer_3_x2F__x3C_Path_x3E__x5F_5" viewBox="0 -6.05 20.45 6.05">
	<g id="Layer_1_2_">
		<path style="fill-rule:evenodd;clip-rule:evenodd;fill:#0D5069;" d="M20.45-3.25c0-0.867-1.034-1.567-3.1-2.1
			c-1.934-0.467-4.383-0.7-7.35-0.7c-2.933,0-5.3,0.233-7.1,0.7C0.967-4.817,0-4.117,0-3.25c0,0.9,1,1.667,3,2.3
			C4.967-0.317,7.367,0,10.2,0c2.833,0,5.25-0.317,7.25-0.95S20.45-2.35,20.45-3.25z"/>
	</g>
</symbol>
<g>
	
		<use xlink:href="#flash0.ai_x2F_Layer_3_x2F__x3C_Path_x3E__x5F_5"  width="20.45" height="6.05" y="-6.05" transform="matrix(1 0 0 -1 0.1001 52.5)" style="overflow:visible;opacity:0.3086;enable-background:new    ;"/>
	
		<linearGradient id="SVGID_1_" gradientUnits="userSpaceOnUse" x1="-52.5806" y1="18.126" x2="-20.5556" y2="18.126" gradientTransform="matrix(3.122561e-005 -1 1 -0.001 5.078049e-005 1.080371e-004)">
		<stop  offset="0" style="stop-color:#242224"/>
		<stop  offset="0.0431" style="stop-color:#252329"/>
		<stop  offset="0.698" style="stop-color:#353670"/>
		<stop  offset="1" style="stop-color:#3B3D8C"/>
	</linearGradient>
	<path style="fill-rule:evenodd;clip-rule:evenodd;fill:url(#SVGID_1_);" d="M18.5,30.6c2.1-3.933,4.15-7.016,6.15-9.25
		c-3.767,5.1-6.067,12.25-6.9,21.45c-0.434,4.634-0.483,8.733-0.15,12.3c-1.166,1.101-2.517,1.4-4.05,0.9l-1.95-1.05
		C12.033,46.55,14.333,38.434,18.5,30.6z"/>
	
		<linearGradient id="SVGID_2_" gradientUnits="userSpaceOnUse" x1="-54.1416" y1="16.478" x2="-35.5916" y2="16.478" gradientTransform="matrix(5.390836e-005 -1 1 -0.001 5.244094e-005 1.089873e-004)">
		<stop  offset="0" style="stop-color:#242224"/>
		<stop  offset="0.0431" style="stop-color:#242629"/>
		<stop  offset="0.698" style="stop-color:#225F70"/>
		<stop  offset="1" style="stop-color:#21758C"/>
	</linearGradient>
	<path style="fill-rule:evenodd;clip-rule:evenodd;fill:url(#SVGID_2_);" d="M17,41.45l2.4-4.275
		c-1.486,2.911-2.42,6.736-2.801,11.476c-0.199,2.699-0.216,5.1-0.05,7.199C15.816,56.283,15.1,56.4,14.4,56.2l-0.851-0.45
		C13.75,50.85,14.9,46.083,17,41.45z"/>
	<g>
		<linearGradient id="SVGID_3_" gradientUnits="userSpaceOnUse" x1="8.9917" y1="2.0127" x2="8.9917" y2="46.7877">
			<stop  offset="0" style="stop-color:#70A834"/>
			<stop  offset="0.2431" style="stop-color:#158434"/>
			<stop  offset="0.349" style="stop-color:#187231"/>
			<stop  offset="0.6392" style="stop-color:#1E472A"/>
			<stop  offset="0.8667" style="stop-color:#222C26"/>
			<stop  offset="1" style="stop-color:#242224"/>
		</linearGradient>
		<path style="fill-rule:evenodd;clip-rule:evenodd;fill:url(#SVGID_3_);" d="M10.6,0.25c3.567,0.7,5.667,2.967,6.3,6.8
			c0.633,3.8-0.517,6.3-3.45,7.5c-2.467,1.034-4.6,0.983-6.4-0.15c-1.667-1.033-2.5-2.583-2.5-4.65c0-1.967,0.75-3.333,2.25-4.1
			s3.05-0.6,4.65,0.5C12.717,7.017,13.267,8.1,13.1,9.4c-0.166,1.267-0.767,1.934-1.8,2c-0.6,0.067-1,0-1.2-0.2L10,10.9
			c1.4,0.133,2.1-0.383,2.1-1.55c-0.033-1.1-0.583-1.833-1.649-2.2C9.317,6.783,8.233,6.917,7.2,7.55
			C6.067,8.217,5.667,9.233,6,10.6c0.4,1.533,1.55,2.467,3.45,2.8c1.9,0.3,3.399-0.133,4.5-1.3c1.1-1.2,1.483-2.733,1.149-4.6
			c-0.366-1.933-1.383-3.417-3.05-4.45c-1.767-1.1-3.617-1.233-5.55-0.4C4.5,3.483,3.333,4.933,3,7
			c-0.367,2.3,0.083,5.717,1.35,10.25c1.9,6.8,3.066,11.483,3.5,14.05C8.683,36,8.967,40.983,8.7,46.25
			c-0.133,2.233-0.45,5.184-0.95,8.85C7.317,55.667,6.633,55.934,5.7,55.9c-0.9-0.034-1.567-0.317-2-0.851
			C3.7,54.684,4.017,53,4.65,50c0.633-3.2,1.033-6.6,1.2-10.2c0.167-4.5-0.4-9.517-1.7-15.05c-1.533-5.7-2.5-9.733-2.9-12.1
			C0.517,8.55,0.983,5.3,2.65,2.9C4.383,0.4,7.033-0.483,10.6,0.25z"/>
		<path style="fill-rule:evenodd;clip-rule:evenodd;fill:#158434;" d="M5.25,22.75c0.5,0.433,0.767,1.167,0.8,2.2
			c0.034,1.033-0.183,1.466-0.65,1.3c-0.433-0.167-0.7-0.9-0.8-2.2C4.5,22.783,4.717,22.35,5.25,22.75z"/>
		<path style="fill-rule:evenodd;clip-rule:evenodd;fill:#158434;" d="M3.6,18.5c0.333,0.233,0.55,0.683,0.65,1.35
			c0.1,0.7,0.017,1.05-0.25,1.05c-0.3,0-0.533-0.467-0.7-1.4C3.133,18.567,3.233,18.233,3.6,18.5z"/>
		<path style="fill-rule:evenodd;clip-rule:evenodd;fill:#158434;" d="M2.75,12.9c0.333,0.434,0.517,1.05,0.55,1.85
			c0.034,0.867-0.15,1.233-0.55,1.1c-0.433-0.1-0.633-0.733-0.6-1.9C2.15,12.75,2.35,12.4,2.75,12.9z"/>
		<path style="fill-rule:evenodd;clip-rule:evenodd;fill:#158434;" d="M1.4,9.95c0.3,0.2,0.45,0.55,0.45,1.05
			c0,0.467-0.117,0.7-0.35,0.7c-0.2,0-0.333-0.35-0.4-1.05C1,9.983,1.1,9.75,1.4,9.95z"/>
		<path style="fill-rule:evenodd;clip-rule:evenodd;fill:#158434;" d="M7.25,29.25c0.133,0.567,0.133,1.033,0,1.4
			c-0.133,0.366-0.267,0.3-0.4-0.2c-0.233-1-0.283-1.667-0.15-2C6.833,28.083,7.017,28.35,7.25,29.25z"/>
		<path style="fill-rule:evenodd;clip-rule:evenodd;fill:#158434;" d="M6,27.05c0.233,0.233,0.333,0.633,0.3,1.2
			C6.233,28.817,6.033,29,5.7,28.8c-0.4-0.233-0.55-0.7-0.45-1.4C5.35,26.733,5.6,26.617,6,27.05z"/>
		<path style="fill-rule:evenodd;clip-rule:evenodd;fill:#158434;" d="M6.75,32.1c0.2,0.4,0.267,0.817,0.2,1.25
			c-0.034,0.467-0.167,0.517-0.4,0.15c-0.2-0.366-0.267-0.783-0.2-1.25C6.45,31.783,6.583,31.733,6.75,32.1z"/>
	</g>
	
		<linearGradient id="SVGID_4_" gradientUnits="userSpaceOnUse" x1="-51.3633" y1="13.2505" x2="-9.3633" y2="13.2505" gradientTransform="matrix(2.380953e-005 -1 1 -0.001 -6.230119e-005 1.089873e-004)">
		<stop  offset="0" style="stop-color:#242224"/>
		<stop  offset="0.6784" style="stop-color:#196853"/>
		<stop  offset="1" style="stop-color:#158466"/>
	</linearGradient>
	<path style="fill-rule:evenodd;clip-rule:evenodd;fill:url(#SVGID_4_);" d="M13.55,22.75c1.834-5.233,3.634-9.35,5.4-12.35
		c-3.3,6.833-5.316,16.4-6.05,28.7c-0.367,6.167-0.4,11.634-0.101,16.4c-1.667,0.667-3.033,0.833-4.1,0.5l-1.15-0.7
		C7.917,44.1,9.917,33.25,13.55,22.75z"/>
	
		<linearGradient id="SVGID_5_" gradientUnits="userSpaceOnUse" x1="-53.1646" y1="14.7773" x2="-25.9646" y2="14.7773" gradientTransform="matrix(3.676470e-005 -1 1 -0.001 -4.239158e-005 -3.790590e-004)">
		<stop  offset="0" style="stop-color:#242224"/>
		<stop  offset="0.6784" style="stop-color:#196853"/>
		<stop  offset="1" style="stop-color:#158466"/>
	</linearGradient>
	<path style="fill-rule:evenodd;clip-rule:evenodd;fill:url(#SVGID_5_);" d="M14.9,34.7c1.267-3.434,2.517-6.133,3.75-8.1
		c-1.634,3.6-3.017,9.534-4.15,17.8c-0.533,4.166-0.917,7.949-1.15,11.35c-0.8,0.667-1.616,0.733-2.45,0.2
		C11.033,48.616,12.366,41.533,14.9,34.7z"/>
	<linearGradient id="SVGID_6_" gradientUnits="userSpaceOnUse" x1="2.8003" y1="13.0498" x2="2.8003" y2="53.3498">
		<stop  offset="0" style="stop-color:#158466"/>
		<stop  offset="0.3216" style="stop-color:#196853"/>
		<stop  offset="1" style="stop-color:#242224"/>
	</linearGradient>
	<path style="fill-rule:evenodd;clip-rule:evenodd;fill:url(#SVGID_6_);" d="M2.65,26.75c1.8,9.2,2.783,18.667,2.95,28.4
		c-0.767,0.666-1.617,0.666-2.55,0C3.217,50.983,3.2,46.233,3,40.9c-0.367-10.7-1.367-19.034-3-25
		C0.867,18.533,1.75,22.15,2.65,26.75z"/>
</g>
</svg>
