<?xml version="1.0" encoding="iso-8859-1"?>
<!-- Generator: Adobe Illustrator 15.1.0, SVG Export Plug-In . SVG Version: 6.00 Build 0)  -->
<!DOCTYPE svg PUBLIC "-//W3C//DTD SVG 1.1//EN" "http://www.w3.org/Graphics/SVG/1.1/DTD/svg11.dtd">
<svg version="1.1" id="Layer_3" xmlns="http://www.w3.org/2000/svg" xmlns:xlink="http://www.w3.org/1999/xlink" x="0px" y="0px"
	 width="43.9px" height="94.6px" viewBox="0 0 43.9 94.6" style="enable-background:new 0 0 43.9 94.6;" xml:space="preserve">
<g>
	<linearGradient id="SVGID_1_" gradientUnits="userSpaceOnUse" x1="10.5293" y1="50.3018" x2="11.937" y2="93.4991">
		<stop  offset="0" style="stop-color:#6EB361"/>
		<stop  offset="0.6745" style="stop-color:#00697D"/>
		<stop  offset="1" style="stop-color:#043840"/>
	</linearGradient>
	<path style="fill-rule:evenodd;clip-rule:evenodd;fill:url(#SVGID_1_);" d="M18.8,93.35c-0.433,0.2-1.033,0.351-1.8,0.45
		c-1.567,0.233-3.217,0.134-4.95-0.3c0.2-4.667,0-9.967-0.6-15.9C10.283,65.667,7.683,56.45,3.65,49.95l2.1,3.149
		c1.7,2.7,3.283,5.634,4.75,8.801C15.233,72.033,18,82.517,18.8,93.35z"/>
	<linearGradient id="SVGID_2_" gradientUnits="userSpaceOnUse" x1="5.5386" y1="60.4893" x2="6.7129" y2="96.4119">
		<stop  offset="0" style="stop-color:#6EB361"/>
		<stop  offset="0.6745" style="stop-color:#00697D"/>
		<stop  offset="1" style="stop-color:#043840"/>
	</linearGradient>
	<path style="fill-rule:evenodd;clip-rule:evenodd;fill:url(#SVGID_2_);" d="M12.25,93.55C10.717,93.717,8.9,93.6,6.8,93.2
		C7,90,6.85,86.35,6.35,82.25C5.417,74.083,3.3,67.767,0,63.3l1.7,2.2c1.4,1.934,2.7,4.017,3.9,6.25
		C9.433,78.85,11.65,86.116,12.25,93.55z"/>
	<g>
		
			<linearGradient id="SVGID_3_" gradientUnits="userSpaceOnUse" x1="-81.5791" y1="28.4941" x2="12.0902" y2="28.4941" gradientTransform="matrix(0.1052 -0.9945 0.9945 0.1052 -3.310069e-004 -3.433228e-005)">
			<stop  offset="0" style="stop-color:#043840"/>
			<stop  offset="0.3255" style="stop-color:#005652"/>
			<stop  offset="1" style="stop-color:#6EB3AB"/>
		</linearGradient>
		<path style="fill-rule:evenodd;clip-rule:evenodd;fill:url(#SVGID_3_);" d="M23.35,0.2c3.5-0.1,6.75,0.7,9.75,2.4
			c3.101,1.733,5.434,4.117,7,7.15c1.667,3.3,2.217,6.95,1.65,10.95c-0.967,7.066-4.15,11.583-9.55,13.55
			c-4.8,1.767-8.917,1.15-12.35-1.85c-2.767-2.467-4.317-5.117-4.65-7.95c-0.2-1.567-0.017-3,0.55-4.3
			c-2.967,6.2-1.35,14.233,4.85,24.1c0-0.867,0.117-1.617,0.35-2.25c0.533-1.433,1.616-2.433,3.25-3l-1.4,1.3
			c-0.833,1.3-1,3.067-0.5,5.3c0.167,0.633,0.601,1.667,1.3,3.1l1.351,1.85c4.5,5.934,7.717,12.517,9.649,19.75
			c0.601-1.434,1.45-2.633,2.551-3.6c1.8-1.667,4.05-2.483,6.75-2.45l-3.15,1.25C38.483,67.134,37,69.967,36.3,74
			c-0.133,0.866-0.184,1.866-0.149,3c0.033,0.7,0.1,1.783,0.199,3.25c0.434,5.1,0.284,9.384-0.449,12.85
			c-0.467,0.267-1.2,0.517-2.2,0.75c-2,0.5-4.267,0.75-6.8,0.75c-5.2,0-8.517-0.233-9.95-0.699c2.7-9.9,2.333-20.017-1.1-30.351
			c-1.733-3.7-3.667-6.1-5.8-7.2L7.4,55.8c2.233-0.666,4.367,0.017,6.4,2.05c-2.4-5.366-4.033-9.166-4.9-11.399
			c-3.533-8.967-5.05-17.233-4.55-24.8c0.566-8.3,3.55-14.333,8.95-18.1C16.333,1.45,19.683,0.333,23.35,0.2z"/>
		<path style="fill-rule:evenodd;clip-rule:evenodd;fill:#6EB3B5;" d="M28.6,11.95c1.9,1.8,2.767,4.233,2.601,7.3
			c-0.2,2.967-1.384,4.933-3.55,5.9c-2.034,0.9-3.65,0.6-4.851-0.9c-0.7-0.833-0.85-1.8-0.45-2.9l0.801-1.45
			c-0.534,1.133-0.45,2.2,0.25,3.2c0.733,1.033,1.783,1.233,3.149,0.6c1.4-0.667,2.167-2.167,2.3-4.5
			c0.101-2.233-0.383-3.983-1.449-5.25c-1.067-1.233-2.45-1.85-4.15-1.85c-1.767,0.033-3.183,0.767-4.25,2.2
			c-1.2,1.633-1.867,3.833-2,6.6c-0.133,3.033,0.5,5.533,1.9,7.5c1.533,2.167,3.466,3.45,5.8,3.85c2.333,0.433,4.75-0.1,7.25-1.6
			c1.967-1.167,3.434-2.867,4.399-5.1c0.834-1.966,1.2-4.033,1.101-6.2c-0.167-3.567-1.566-6.85-4.2-9.85
			c-2.634-2.967-5.55-4.6-8.75-4.9c-3.4-0.333-6.367,0.1-8.9,1.3c-3.434,1.6-5.883,4.533-7.35,8.8C6.75,19.067,6,23.717,6,28.65
			c0,4.1,0.483,7.85,1.45,11.25c1.133,3.967,3,9.234,5.6,15.8c-1.2-1.834-2.45-4.334-3.75-7.5c-2.633-6.4-4.233-13-4.8-19.8
			C3.9,20.867,4.817,14.733,7.25,10c2-3.867,4.867-6.617,8.6-8.25c4-1.767,8.117-2.183,12.35-1.25c4.333,0.967,7.767,3.167,10.3,6.6
			c2.167,2.967,3.35,6.533,3.55,10.7c0.2,4.367-0.783,8.133-2.95,11.3c-0.866,1.4-1.966,2.55-3.3,3.45l-0.35,0.3H35.4
			c-1.7,1.1-3.667,1.8-5.9,2.1c-1.8,0.233-3.467,0.183-5-0.15c-2.5-0.566-4.617-1.833-6.35-3.8c-1.9-2.2-3-4.95-3.3-8.25
			c-0.3-3.333,0.333-6.25,1.9-8.75c1.5-2.333,3.383-3.683,5.65-4.05C24.767,9.617,26.833,10.283,28.6,11.95z"/>
		<path style="fill-rule:evenodd;clip-rule:evenodd;fill:#93C6CC;" d="M27.2,18.4c0.5,1.167,0.316,2.35-0.55,3.55
			c-0.867,1.233-1.617,1.333-2.25,0.3c-0.667-1.067-0.534-2.367,0.399-3.9C25.767,16.85,26.566,16.867,27.2,18.4z"/>
		<path style="fill-rule:evenodd;clip-rule:evenodd;fill:#93C6CC;" d="M20.2,15.75c0.033-0.4,0.216-0.8,0.55-1.2
			c0.467-0.533,1.083-0.816,1.85-0.85c0.767-0.034,1.317,0.1,1.65,0.4c0.434,0.333,0.417,0.816-0.05,1.45
			c-0.601,0.833-1.45,1.267-2.55,1.3C20.55,16.85,20.067,16.483,20.2,15.75z"/>
		<path style="fill-rule:evenodd;clip-rule:evenodd;fill:#93C6CC;" d="M18.55,19.75c0.4-0.2,0.717,0.333,0.95,1.6
			c0.233,1.233,0.067,1.967-0.5,2.2c-0.667,0.267-1.117-0.183-1.35-1.35C17.383,21,17.683,20.183,18.55,19.75z"/>
		<path style="fill-rule:evenodd;clip-rule:evenodd;fill:#93C6CC;" d="M20.75,27.15c0.733-0.2,1.917,0.267,3.55,1.4
			c1.667,1.167,2,1.95,1,2.35c-1.133,0.5-2.55,0.1-4.25-1.2C19.383,28.4,19.283,27.55,20.75,27.15z"/>
		<path style="fill-rule:evenodd;clip-rule:evenodd;fill:#93C6CC;" d="M35.7,23.3c0.133,0.7-0.066,1.667-0.601,2.9
			c-0.666,1.466-1.616,2.466-2.85,3c-2.934,1.233-3.634,0.316-2.1-2.75c0.833-1.667,1.883-2.917,3.149-3.75
			C34.634,21.833,35.434,22.033,35.7,23.3z"/>
		<path style="fill-rule:evenodd;clip-rule:evenodd;fill:#93C6CC;" d="M32.45,10.25c0.866,0.467,1.5,1.3,1.899,2.5
			c0.434,1.3,0.367,2.467-0.199,3.5c-0.801,1.467-1.95,0.133-3.45-4c-0.334-1-0.384-1.7-0.15-2.1
			C30.85,9.717,31.483,9.75,32.45,10.25z"/>
		<path style="fill-rule:evenodd;clip-rule:evenodd;fill:#93C6CC;" d="M17.1,6.65c1.7-0.4,2.95-0.283,3.75,0.35
			c0.766,0.6,0.633,1.25-0.4,1.95c-2.333,1.667-3.934,2.716-4.8,3.15c-1.6,0.833-2.55,0.767-2.85-0.2
			c-0.267-0.933,0.034-1.95,0.9-3.05C14.567,7.717,15.7,6.983,17.1,6.65z"/>
		<path style="fill-rule:evenodd;clip-rule:evenodd;fill:#93C6CC;" d="M10.9,20.7c0.367,0.367,0.617,1.55,0.75,3.55
			c0.133,2.133,0,3.85-0.4,5.15c-0.433,1.333-1.1,1.667-2,1c-0.867-0.633-1.45-1.717-1.75-3.25c-0.333-1.733-0.167-3.5,0.5-5.3
			C8.767,19.883,9.733,19.5,10.9,20.7z"/>
		<path style="fill-rule:evenodd;clip-rule:evenodd;fill:#93C6CC;" d="M12.45,38.45c1.433,0.4,2.833,2.25,4.2,5.55
			c1.467,3.5,1.367,5.833-0.3,7c-0.867,0.6-1.867,0.233-3-1.1c-1-1.2-1.85-2.8-2.55-4.8c-0.7-2.033-0.95-3.7-0.75-5
			C10.25,38.633,11.05,38.083,12.45,38.45z"/>
		<path style="fill-rule:evenodd;clip-rule:evenodd;fill:#93C6CC;" d="M19.55,58.6c0.9,0.467,1.517,1.717,1.851,3.75
			c0.333,2.034,0.05,3.134-0.851,3.301c-0.933,0.199-1.65-1.101-2.15-3.9C17.9,59.017,18.283,57.967,19.55,58.6z"/>
		<path style="fill-rule:evenodd;clip-rule:evenodd;fill:#93C6CC;" d="M21,74.5c0.533,0.267,0.783,1.25,0.75,2.95
			c-0.066,1.7-0.366,2.283-0.9,1.75c-0.567-0.566-0.867-1.584-0.9-3.05C19.95,74.684,20.3,74.134,21,74.5z"/>
	</g>
</g>
</svg>
