<?xml version="1.0" encoding="iso-8859-1"?>
<!-- Generator: Adobe Illustrator 15.1.0, SVG Export Plug-In . SVG Version: 6.00 Build 0)  -->
<!DOCTYPE svg PUBLIC "-//W3C//DTD SVG 1.1//EN" "http://www.w3.org/Graphics/SVG/1.1/DTD/svg11.dtd">
<svg version="1.1" id="Layer_3" xmlns="http://www.w3.org/2000/svg" xmlns:xlink="http://www.w3.org/1999/xlink" x="0px" y="0px"
	 width="18.2px" height="46.5px" viewBox="0 0 18.2 46.5" style="enable-background:new 0 0 18.2 46.5;" xml:space="preserve">
<g>
	<linearGradient id="SVGID_1_" gradientUnits="userSpaceOnUse" x1="6.3247" y1="25.5" x2="6.3247" y2="51.2">
		<stop  offset="0" style="stop-color:#268C9F"/>
		<stop  offset="0.2588" style="stop-color:#267483"/>
		<stop  offset="0.8196" style="stop-color:#24373C"/>
		<stop  offset="1" style="stop-color:#242224"/>
	</linearGradient>
	<path style="fill-rule:evenodd;clip-rule:evenodd;fill:url(#SVGID_1_);" d="M11.6,46C11,46.5,9.866,46.6,8.2,46.3
		c0.2-2.833,0.05-5.8-0.45-8.899c-1-6.2-3.233-9.983-6.7-11.351l1.5,0.55c1.2,0.567,2.333,1.417,3.4,2.551
		C9.283,32.75,11.167,38.366,11.6,46z"/>
	<linearGradient id="SVGID_2_" gradientUnits="userSpaceOnUse" x1="12.3008" y1="-1.2749" x2="12.3008" y2="57.2751">
		<stop  offset="0" style="stop-color:#5AC28F"/>
		<stop  offset="0.2039" style="stop-color:#51A67C"/>
		<stop  offset="0.6471" style="stop-color:#395F4D"/>
		<stop  offset="1" style="stop-color:#242224"/>
	</linearGradient>
	<path style="fill-rule:evenodd;clip-rule:evenodd;fill:url(#SVGID_2_);" d="M18.2,45.7c-0.334,0.233-0.783,0.434-1.351,0.6
		c-1.133,0.3-2.216,0.25-3.25-0.149c0.2-6.434,0.051-13.2-0.449-20.301C12.15,11.717,9.9,3.1,6.4,0c1.8,0.633,3.633,3.017,5.5,7.15
		C15.667,15.417,17.767,28.267,18.2,45.7z"/>
	<linearGradient id="SVGID_3_" gradientUnits="userSpaceOnUse" x1="7.9751" y1="20.5874" x2="7.9751" y2="53.1124">
		<stop  offset="0" style="stop-color:#454D9F"/>
		<stop  offset="0.2588" style="stop-color:#3E4383"/>
		<stop  offset="0.8196" style="stop-color:#2A2A3C"/>
		<stop  offset="1" style="stop-color:#242224"/>
	</linearGradient>
	<path style="fill-rule:evenodd;clip-rule:evenodd;fill:url(#SVGID_3_);" d="M15.95,45.75c-0.134,0.167-0.384,0.3-0.75,0.4
		c-0.733,0.199-1.617,0.183-2.65-0.051c-0.2-3.833-0.866-8.017-2-12.55C8.283,24.55,4.767,18.4,0,15.1
		c2.4,0.967,4.867,2.95,7.4,5.95C12.467,27.116,15.316,35.35,15.95,45.75z"/>
</g>
</svg>
