<?xml version="1.0" encoding="iso-8859-1"?>
<!-- Generator: Adobe Illustrator 15.1.0, SVG Export Plug-In . SVG Version: 6.00 Build 0)  -->
<!DOCTYPE svg PUBLIC "-//W3C//DTD SVG 1.1//EN" "http://www.w3.org/Graphics/SVG/1.1/DTD/svg11.dtd">
<svg version="1.1" id="Layer_3" xmlns="http://www.w3.org/2000/svg" xmlns:xlink="http://www.w3.org/1999/xlink" x="0px" y="0px"
	 width="20.15px" height="42.95px" viewBox="0 0 20.15 42.95" style="enable-background:new 0 0 20.15 42.95;" xml:space="preserve"
	>
<symbol  id="flash0.ai_x2F_Layer_3_x2F__x3C_Path_x3E__x5F_2" viewBox="0 -5.9 17.45 5.9">
	<g id="Layer_1_2_">
		<path style="fill-rule:evenodd;clip-rule:evenodd;fill:#0D5069;" d="M17.45-2.75c0-0.867-0.85-1.6-2.55-2.2
			C13.167-5.583,11.1-5.9,8.7-5.9c-2.4,0-4.45,0.316-6.15,0.95C0.85-4.35,0-3.617,0-2.75C0-1.917,0.833-1.233,2.5-0.7
			C4.1-0.233,6.133,0,8.6,0c2.5,0,4.583-0.233,6.25-0.7C16.583-1.233,17.45-1.917,17.45-2.75z"/>
	</g>
</symbol>
<g>
	
		<use xlink:href="#flash0.ai_x2F_Layer_3_x2F__x3C_Path_x3E__x5F_2"  width="17.45" height="5.9" y="-5.9" transform="matrix(1 0 0 -1 0.3501 37.0498)" style="overflow:visible;opacity:0.3086;enable-background:new    ;"/>
	
		<linearGradient id="SVGID_1_" gradientUnits="userSpaceOnUse" x1="-38.8525" y1="15.002" x2="-7.3775" y2="15.002" gradientTransform="matrix(3.177125e-005 -1 1 -0.001 1.867216e-004 -7.851305e-005)">
		<stop  offset="0" style="stop-color:#242224"/>
		<stop  offset="0.0667" style="stop-color:#262A2F"/>
		<stop  offset="0.3569" style="stop-color:#2F4758"/>
		<stop  offset="0.6157" style="stop-color:#365C76"/>
		<stop  offset="0.8392" style="stop-color:#3A6988"/>
		<stop  offset="1" style="stop-color:#3B6E8F"/>
	</linearGradient>
	<path style="fill-rule:evenodd;clip-rule:evenodd;fill:url(#SVGID_1_);" d="M9.85,39.65c0.3-9.167,2.117-17.534,5.45-25.101
		c1.634-3.767,3.25-6.633,4.851-8.6c-3.601,5.533-5.617,12.767-6.051,21.7c-0.233,4.5-0.1,8.433,0.4,11.8
		c-1.233,0.733-2.384,0.983-3.45,0.75L9.85,39.65z"/>
	<g>
		
			<linearGradient id="SVGID_2_" gradientUnits="userSpaceOnUse" x1="-35.6094" y1="8.8042" x2="-4.0871" y2="8.8042" gradientTransform="matrix(0.0547 -0.9985 0.9985 0.0547 -4.422143e-004 -4.818961e-004)">
			<stop  offset="0" style="stop-color:#242224"/>
			<stop  offset="0.1333" style="stop-color:#222C26"/>
			<stop  offset="0.3608" style="stop-color:#1E472A"/>
			<stop  offset="0.651" style="stop-color:#187231"/>
			<stop  offset="0.7569" style="stop-color:#158434"/>
			<stop  offset="1" style="stop-color:#70A834"/>
		</linearGradient>
		<path style="fill-rule:evenodd;clip-rule:evenodd;fill:url(#SVGID_2_);" d="M14.8,7.9c0.167,2.467-0.267,4.8-1.3,7
			c-1.634,3.967-2.684,8.183-3.15,12.65c-0.366,3.667-0.366,7.767,0,12.3c-0.066,0.367-0.533,0.617-1.399,0.75
			c-0.8,0.101-1.434-0.116-1.9-0.649c-0.133-1.767-0.1-4.217,0.1-7.351C7.617,26.2,9.1,19.983,11.6,13.95
			c2.2-5.167,1.784-8.9-1.25-11.2C9.517,2.05,8.55,1.667,7.45,1.6c-1.2-0.067-2.133,0.283-2.8,1.05c-0.566,0.6-0.9,1.283-1,2.05
			c-0.1,0.633-0.033,1.533,0.2,2.7C4.317,8.533,5,9.433,5.9,10.1c0.934,0.667,1.817,0.816,2.65,0.45
			c0.833-0.333,1.434-0.95,1.8-1.85c0.334-0.867,0.317-1.65-0.05-2.35c-0.533-1.167-1.45-1.8-2.75-1.9c-1.3-0.167-2,0.316-2.1,1.45
			c0,1.067,0.517,1.917,1.55,2.55C7.567,8.817,8.133,8.8,8.7,8.4c0.495-0.371,0.803-0.846,0.925-1.425
			C9.624,7.104,9.632,7.312,9.65,7.6c-0.066,0.633-0.467,1.133-1.2,1.5c-0.434,0.167-0.967,0.15-1.6-0.05
			c-0.633-0.233-1.117-0.566-1.45-1C4.9,7.45,4.617,6.8,4.55,6.1c-0.1-0.833,0.133-1.567,0.7-2.2c0.633-0.533,1.4-0.783,2.3-0.75
			c0.934,0.033,1.733,0.383,2.4,1.05c1.3,1.333,1.883,2.816,1.75,4.45c-0.101,1.067-0.533,1.917-1.3,2.55
			c-0.8,0.7-1.817,0.983-3.05,0.85c-2.333-0.4-3.934-1.716-4.8-3.95C2.15,7.033,1.967,6.1,2,5.3c0.033-1,0.383-2.1,1.05-3.3
			C3.45,1.367,4.1,0.867,5,0.5c0.9-0.4,1.817-0.55,2.75-0.45c1.467,0.133,2.8,0.65,4,1.55C13.65,3,14.667,5.1,14.8,7.9z"/>
		<path style="fill-rule:evenodd;clip-rule:evenodd;fill:#158434;" d="M11.6,15.3c0.4-0.433,0.601-0.333,0.601,0.3
			c0.033,0.6-0.134,1.083-0.5,1.45c-0.367,0.367-0.566,0.267-0.601-0.3C11.066,16.183,11.233,15.7,11.6,15.3z"/>
		<path style="fill-rule:evenodd;clip-rule:evenodd;fill:#158434;" d="M13.2,13.45c0.366-0.267,0.5-0.067,0.399,0.6
			c-0.133,0.7-0.316,1.05-0.55,1.05c-0.233,0.033-0.333-0.184-0.3-0.65C12.75,14.017,12.9,13.683,13.2,13.45z"/>
		<path style="fill-rule:evenodd;clip-rule:evenodd;fill:#158434;" d="M13.05,12.1c0.267-0.3,0.45-0.3,0.55,0
			c0.134,0.333,0.067,0.583-0.199,0.75c-0.2,0.133-0.334,0.083-0.4-0.15C12.934,12.433,12.95,12.233,13.05,12.1z"/>
		<path style="fill-rule:evenodd;clip-rule:evenodd;fill:#158434;" d="M11.8,14c0.167-0.167,0.233-0.133,0.2,0.1
			c0,0.2-0.083,0.367-0.25,0.5C11.517,14.833,11.533,14.633,11.8,14z"/>
		<path style="fill-rule:evenodd;clip-rule:evenodd;fill:#158434;" d="M11.85,17.35c0.267-0.167,0.417-0.067,0.45,0.3
			c0,0.4-0.116,0.633-0.35,0.7c-0.2,0.066-0.316-0.05-0.351-0.35C11.6,17.7,11.684,17.483,11.85,17.35z"/>
		<path style="fill-rule:evenodd;clip-rule:evenodd;fill:#158434;" d="M12.7,16c0.133-0.133,0.184-0.1,0.149,0.1
			c-0.033,0.167-0.116,0.367-0.25,0.6c-0.1,0.233-0.149,0.2-0.149-0.1C12.483,16.333,12.566,16.133,12.7,16z"/>
		<path style="fill-rule:evenodd;clip-rule:evenodd;fill:#158434;" d="M10.5,17.4c0.2-0.133,0.184,0.15-0.05,0.85
			s-0.417,1.067-0.55,1.1S9.8,19.1,10,18.5C10.167,17.9,10.333,17.533,10.5,17.4z"/>
		<path style="fill-rule:evenodd;clip-rule:evenodd;fill:#158434;" d="M11,17.95c0.3-0.2,0.417-0.083,0.35,0.35
			c-0.1,0.467-0.25,0.667-0.449,0.6c-0.2-0.033-0.267-0.183-0.2-0.45C10.733,18.183,10.833,18.017,11,17.95z"/>
		<path style="fill-rule:evenodd;clip-rule:evenodd;fill:#158434;" d="M11.45,19.5c0.333-0.233,0.416-0.083,0.25,0.45
			c-0.033,0.1-0.134,0.417-0.3,0.95c-0.067,0.267-0.15,0.333-0.25,0.2c-0.134-0.2-0.167-0.467-0.101-0.8
			C11.116,19.933,11.25,19.667,11.45,19.5z"/>
		<path style="fill-rule:evenodd;clip-rule:evenodd;fill:#158434;" d="M10.25,20.6c0.366-0.233,0.55-0.017,0.55,0.65
			c-0.033,0.3-0.133,0.55-0.3,0.75s-0.316,0.25-0.45,0.15c-0.167-0.134-0.233-0.367-0.2-0.7C9.917,21.083,10.05,20.8,10.25,20.6z"/>
		<path style="fill-rule:evenodd;clip-rule:evenodd;fill:#158434;" d="M10.25,19.3c0.1-0.167,0.2-0.2,0.3-0.1
			c0.101,0.1,0.084,0.233-0.05,0.4c-0.134,0.2-0.233,0.233-0.3,0.1S10.15,19.433,10.25,19.3z"/>
		<path style="fill-rule:evenodd;clip-rule:evenodd;fill:#158434;" d="M9.5,21.1c0.267-0.233,0.317-0.033,0.15,0.6
			c-0.167,0.666-0.333,0.983-0.5,0.95c-0.133,0-0.15-0.233-0.05-0.7S9.333,21.2,9.5,21.1z"/>
		<path style="fill-rule:evenodd;clip-rule:evenodd;fill:#158434;" d="M9.65,19.95c0.1-0.233,0.167-0.284,0.2-0.15s0,0.3-0.1,0.5
			c-0.1,0.233-0.167,0.284-0.2,0.15C9.517,20.283,9.55,20.117,9.65,19.95z"/>
		<path style="fill-rule:evenodd;clip-rule:evenodd;fill:#158434;" d="M10.5,22.55c0.267-0.166,0.35,0,0.25,0.5
			c-0.066,0.467-0.2,0.667-0.4,0.601c-0.133-0.034-0.183-0.2-0.149-0.5C10.233,22.85,10.333,22.65,10.5,22.55z"/>
	</g>
	<linearGradient id="SVGID_3_" gradientUnits="userSpaceOnUse" x1="3.73" y1="10.3501" x2="3.73" y2="38.6501">
		<stop  offset="0" style="stop-color:#158466"/>
		<stop  offset="0.3216" style="stop-color:#196853"/>
		<stop  offset="1" style="stop-color:#242224"/>
	</linearGradient>
	<path style="fill-rule:evenodd;clip-rule:evenodd;fill:url(#SVGID_3_);" d="M7.45,39.9c-0.333,0.166-0.717,0.267-1.15,0.3
		C5.4,40.3,4.633,40.1,4,39.6c0.333-2.933,0.417-6.267,0.25-10C3.883,22.134,2.467,16.383,0,12.35C1.3,13.783,2.583,16,3.85,19
		C6.383,25,7.583,31.967,7.45,39.9z"/>
</g>
</svg>
