<?xml version="1.0" encoding="iso-8859-1"?>
<!-- Generator: Adobe Illustrator 15.1.0, SVG Export Plug-In . SVG Version: 6.00 Build 0)  -->
<!DOCTYPE svg PUBLIC "-//W3C//DTD SVG 1.1//EN" "http://www.w3.org/Graphics/SVG/1.1/DTD/svg11.dtd">
<svg version="1.1" id="Layer_3" xmlns="http://www.w3.org/2000/svg" xmlns:xlink="http://www.w3.org/1999/xlink" x="0px" y="0px"
	 width="29.05px" height="77.05px" viewBox="0 0 29.05 77.05" style="enable-background:new 0 0 29.05 77.05;" xml:space="preserve"
	>
<symbol  id="flash0.ai_x2F_Layer_3_x2F__x3C_Path_x3E__x5F_4" viewBox="0 -6.95 28.95 6.95">
	<g id="Layer_1_2_">
		<path style="fill-rule:evenodd;clip-rule:evenodd;fill:#0D5069;" d="M28.95-4.2c0-1.066-1.467-1.816-4.4-2.25
			c-2.333-0.333-5.8-0.5-10.4-0.5c-4.533,0-7.883,0.167-10.05,0.5C1.367-6.017,0-5.267,0-4.2c0,1.167,1.417,2.15,4.25,2.95
			C7.083-0.417,10.483,0,14.45,0c4,0,7.417-0.417,10.25-1.25C27.533-2.05,28.95-3.033,28.95-4.2z"/>
	</g>
</symbol>
<g>
	
		<use xlink:href="#flash0.ai_x2F_Layer_3_x2F__x3C_Path_x3E__x5F_4"  width="28.95" height="6.95" y="-6.95" transform="matrix(1 0 0 -1 0 70.0996)" style="overflow:visible;opacity:0.3086;enable-background:new    ;"/>
	
		<linearGradient id="SVGID_1_" gradientUnits="userSpaceOnUse" x1="-70.2866" y1="24.3516" x2="-36.1616" y2="24.3516" gradientTransform="matrix(2.930403e-005 -1 1 -0.001 -9.773437e-005 3.199253e-004)">
		<stop  offset="0" style="stop-color:#242224"/>
		<stop  offset="0.5412" style="stop-color:#31324A"/>
		<stop  offset="1" style="stop-color:#3B3D66"/>
	</linearGradient>
	<path style="fill-rule:evenodd;clip-rule:evenodd;fill:url(#SVGID_1_);" d="M24.6,47.15c1.233-4.301,2.434-7.7,3.601-10.2
		c-2.3,5.6-3.717,13.383-4.25,23.35c-0.267,5-0.316,9.434-0.15,13.3c-0.899,0.467-1.717,0.65-2.45,0.551L20.5,73.8
		C20.767,64.667,22.134,55.783,24.6,47.15z"/>
	<linearGradient id="SVGID_2_" gradientUnits="userSpaceOnUse" x1="15.25" y1="25.5874" x2="15.25" y2="71.7124">
		<stop  offset="0" style="stop-color:#365387"/>
		<stop  offset="0.3176" style="stop-color:#31456B"/>
		<stop  offset="1" style="stop-color:#242224"/>
	</linearGradient>
	<path style="fill-rule:evenodd;clip-rule:evenodd;fill:url(#SVGID_2_);" d="M15,41.2c2.9,10.434,4.5,21.233,4.8,32.399
		c-0.2,0.2-0.517,0.367-0.95,0.5c-0.899,0.233-1.983,0.134-3.25-0.3c0.233-4.767,0.2-10.217-0.1-16.35
		c-0.566-12.267-2.167-21.8-4.8-28.6C12.1,31.85,13.533,35.967,15,41.2z"/>
	<g>
		
			<linearGradient id="SVGID_3_" gradientUnits="userSpaceOnUse" x1="-64.8589" y1="19.1719" x2="-7.1742" y2="19.1719" gradientTransform="matrix(0.0542 -0.9985 0.9985 0.0542 -2.323985e-004 1.481995e-004)">
			<stop  offset="0" style="stop-color:#242224"/>
			<stop  offset="0.1333" style="stop-color:#222C26"/>
			<stop  offset="0.3608" style="stop-color:#1E472A"/>
			<stop  offset="0.651" style="stop-color:#187231"/>
			<stop  offset="0.7569" style="stop-color:#158434"/>
			<stop  offset="1" style="stop-color:#70A834"/>
		</linearGradient>
		<path style="fill-rule:evenodd;clip-rule:evenodd;fill:url(#SVGID_3_);" d="M29,14.4c0.2,4.5-0.533,8.767-2.2,12.8
			c-2.633,7.2-4.333,14.883-5.1,23.05c-0.634,6.7-0.65,14.184-0.05,22.45l-0.25,0.55c-0.367,0.366-0.983,0.616-1.851,0.75
			c-0.8,0.134-1.566,0.134-2.3,0l-0.85-0.25c-0.267-3.366-0.217-7.983,0.149-13.85c0.7-11.934,3.101-23.417,7.2-34.45
			c3.566-9.467,2.866-16.3-2.1-20.5C20.283,3.683,18.7,2.967,16.9,2.8c-1.967-0.133-3.5,0.5-4.601,1.9
			c-0.966,1.066-1.517,2.333-1.65,3.8c-0.133,1.133-0.017,2.767,0.35,4.9c0.8,2.133,1.917,3.783,3.35,4.95
			c1.534,1.267,3,1.566,4.4,0.9c1.366-0.667,2.333-1.817,2.9-3.45c0.533-1.566,0.517-3.017-0.051-4.35c-0.399-0.9-1-1.667-1.8-2.3
			c-0.833-0.633-1.733-1-2.7-1.1C14.9,7.717,13.75,8.6,13.65,10.7c-0.033,1.9,0.8,3.466,2.5,4.7c0.966,0.667,1.916,0.6,2.85-0.2
			c0.776-0.621,1.26-1.463,1.45-2.525c0.013,0.229,0.046,0.604,0.1,1.125c-0.133,1.133-0.8,2.034-2,2.7
			c-0.7,0.333-1.583,0.3-2.649-0.1c-1-0.4-1.784-1-2.351-1.8c-0.8-1.067-1.267-2.25-1.4-3.55c-0.133-1.466,0.25-2.8,1.15-4
			c1-0.966,2.25-1.417,3.75-1.35C18.583,5.767,19.9,6.4,21,7.6c1.066,1.2,1.816,2.4,2.25,3.6c0.533,1.367,0.733,2.883,0.6,4.55
			c-0.199,1.9-0.899,3.45-2.1,4.65c-1.366,1.267-3.033,1.767-5,1.5c-2.1-0.367-3.8-1.183-5.1-2.45c-1.133-1.1-2.066-2.684-2.8-4.75
			c-0.667-1.967-0.967-3.684-0.9-5.15c0.033-1.833,0.617-3.833,1.75-6c0.7-1.133,1.75-2.033,3.15-2.7c1.534-0.733,3.05-1,4.55-0.8
			c2.333,0.2,4.517,1.117,6.55,2.75C27.083,5.4,28.767,9.267,29,14.4z"/>
		<path style="fill-rule:evenodd;clip-rule:evenodd;fill:#158434;" d="M23.7,27.85c0.666-0.8,1.017-0.633,1.05,0.5
			c0,1.133-0.3,2.05-0.9,2.75c-0.6,0.633-0.916,0.433-0.949-0.6C22.866,29.467,23.134,28.583,23.7,27.85z"/>
		<path style="fill-rule:evenodd;clip-rule:evenodd;fill:#158434;" d="M26.35,24.5c0.601-0.467,0.817-0.1,0.65,1.1
			c-0.2,1.233-0.5,1.867-0.9,1.9c-0.399,0.067-0.583-0.317-0.55-1.15C25.583,25.517,25.85,24.9,26.35,24.5z"/>
		<path style="fill-rule:evenodd;clip-rule:evenodd;fill:#158434;" d="M26.1,22c0.4-0.5,0.7-0.483,0.9,0.05c0.2,0.567,0.1,1-0.3,1.3
			c-0.367,0.267-0.617,0.167-0.75-0.3C25.816,22.617,25.866,22.267,26.1,22z"/>
		<path style="fill-rule:evenodd;clip-rule:evenodd;fill:#158434;" d="M24.05,25.45c0.233-0.267,0.351-0.2,0.351,0.2
			c0,0.367-0.15,0.7-0.45,1c-0.267,0.267-0.367,0.184-0.3-0.25C23.717,26,23.85,25.683,24.05,25.45z"/>
		<path style="fill-rule:evenodd;clip-rule:evenodd;fill:#158434;" d="M24.1,31.65c0.467-0.333,0.7-0.15,0.7,0.55
			c0.033,0.7-0.149,1.117-0.55,1.25c-0.333,0.133-0.517-0.083-0.55-0.65C23.667,32.233,23.8,31.85,24.1,31.65z"/>
		<path style="fill-rule:evenodd;clip-rule:evenodd;fill:#158434;" d="M25.55,29.15c0.167-0.233,0.233-0.167,0.2,0.2
			c-0.066,0.333-0.2,0.683-0.4,1.05c-0.199,0.434-0.267,0.4-0.199-0.1C25.184,29.8,25.316,29.417,25.55,29.15z"/>
		<path style="fill-rule:evenodd;clip-rule:evenodd;fill:#158434;" d="M21.9,31.75c0.3-0.3,0.267,0.2-0.101,1.5
			c-0.366,1.267-0.649,1.933-0.85,2c-0.233,0.067-0.2-0.433,0.1-1.5S21.634,32.017,21.9,31.75z"/>
		<path style="fill-rule:evenodd;clip-rule:evenodd;fill:#158434;" d="M22.7,32.7c0.5-0.367,0.684-0.15,0.55,0.65
			c-0.1,0.8-0.333,1.15-0.7,1.05c-0.3-0.066-0.416-0.333-0.35-0.8C22.3,33.167,22.467,32.867,22.7,32.7z"/>
		<path style="fill-rule:evenodd;clip-rule:evenodd;fill:#158434;" d="M23.45,35.6c0.233-0.233,0.399-0.267,0.5-0.1
			c0.066,0.167,0.033,0.45-0.101,0.85c-0.133,0.433-0.283,1.033-0.449,1.8c-0.134,0.467-0.284,0.55-0.45,0.25
			c-0.233-0.333-0.283-0.816-0.15-1.45C22.9,36.317,23.116,35.867,23.45,35.6z"/>
		<path style="fill-rule:evenodd;clip-rule:evenodd;fill:#158434;" d="M21.55,37.6c0.2-0.2,0.384-0.2,0.55,0
			c0.2,0.233,0.284,0.6,0.25,1.1c-0.033,0.533-0.166,0.983-0.399,1.35c-0.267,0.367-0.517,0.467-0.75,0.3
			c-0.3-0.199-0.417-0.633-0.351-1.3C20.95,38.417,21.184,37.933,21.55,37.6z"/>
		<path style="fill-rule:evenodd;clip-rule:evenodd;fill:#158434;" d="M21.5,35.15c0.167-0.267,0.316-0.316,0.45-0.15
			c0.166,0.2,0.149,0.45-0.05,0.75c-0.167,0.333-0.317,0.367-0.45,0.1C21.316,35.617,21.333,35.383,21.5,35.15z"/>
		<path style="fill-rule:evenodd;clip-rule:evenodd;fill:#158434;" d="M20.25,38.4c0.434-0.367,0.517,0.017,0.25,1.15
			c-0.267,1.2-0.533,1.783-0.8,1.75c-0.2-0.033-0.217-0.467-0.05-1.3C19.816,39.167,20.017,38.633,20.25,38.4z"/>
		<path style="fill-rule:evenodd;clip-rule:evenodd;fill:#158434;" d="M20.5,36.35c0.167-0.367,0.283-0.45,0.35-0.25
			c0.067,0.233,0.017,0.55-0.149,0.95c-0.2,0.434-0.316,0.5-0.351,0.2C20.283,36.983,20.333,36.683,20.5,36.35z"/>
		<path style="fill-rule:evenodd;clip-rule:evenodd;fill:#158434;" d="M21.9,41.1c0.433-0.3,0.583,0,0.449,0.9
			c-0.133,0.866-0.35,1.25-0.649,1.15c-0.267-0.101-0.367-0.417-0.3-0.95C21.467,41.634,21.634,41.267,21.9,41.1z"/>
	</g>
	
		<linearGradient id="SVGID_4_" gradientUnits="userSpaceOnUse" x1="-72.0732" y1="23.1279" x2="-52.3732" y2="23.1279" gradientTransform="matrix(5.076142e-005 -1 1 -0.001 8.321433e-005 3.189761e-004)">
		<stop  offset="0" style="stop-color:#242224"/>
		<stop  offset="0.0431" style="stop-color:#242629"/>
		<stop  offset="0.698" style="stop-color:#225F70"/>
		<stop  offset="1" style="stop-color:#21758C"/>
	</linearGradient>
	<path style="fill-rule:evenodd;clip-rule:evenodd;fill:url(#SVGID_4_);" d="M18.05,74.05C18.25,69.15,20,64.134,23.3,59l4.9-6.2
		c-3.634,4.8-5.7,9.733-6.2,14.8c-0.233,2.534-0.1,4.584,0.4,6.15C21.066,74.417,19.616,74.517,18.05,74.05z"/>
	<linearGradient id="SVGID_5_" gradientUnits="userSpaceOnUse" x1="4.6626" y1="44.1123" x2="4.6626" y2="73.2873">
		<stop  offset="0" style="stop-color:#21758C"/>
		<stop  offset="0.302" style="stop-color:#225F70"/>
		<stop  offset="0.9569" style="stop-color:#242629"/>
		<stop  offset="1" style="stop-color:#242224"/>
	</linearGradient>
	<path style="fill-rule:evenodd;clip-rule:evenodd;fill:url(#SVGID_5_);" d="M8.75,73.55c-0.267,0.167-0.633,0.3-1.1,0.4
		c-0.967,0.233-2.017,0.166-3.15-0.2c0.233-3.233,0.217-6.934-0.05-11.1C3.931,55.47,2.639,49.679,0.575,45.275L3.9,51.65
		C6.833,58.717,8.45,66.017,8.75,73.55z"/>
</g>
</svg>
