<?xml version="1.0" encoding="iso-8859-1"?>
<!-- Generator: Adobe Illustrator 15.1.0, SVG Export Plug-In . SVG Version: 6.00 Build 0)  -->
<!DOCTYPE svg PUBLIC "-//W3C//DTD SVG 1.1//EN" "http://www.w3.org/Graphics/SVG/1.1/DTD/svg11.dtd">
<svg version="1.1" id="Layer_3" xmlns="http://www.w3.org/2000/svg" xmlns:xlink="http://www.w3.org/1999/xlink" x="0px" y="0px"
	 width="11.85px" height="32.35px" viewBox="0 0 11.85 32.35" style="enable-background:new 0 0 11.85 32.35;" xml:space="preserve"
	>
<g>
	
		<linearGradient id="SVGID_1_" gradientUnits="userSpaceOnUse" x1="-36.0693" y1="7.0264" x2="-9.9443" y2="7.0264" gradientTransform="matrix(3.827751e-005 -1 1 -0.001 -9.655656e-005 2.932341e-004)">
		<stop  offset="0" style="stop-color:#242224"/>
		<stop  offset="0.1529" style="stop-color:#323628"/>
		<stop  offset="0.7255" style="stop-color:#627D37"/>
		<stop  offset="0.9922" style="stop-color:#75993D"/>
	</linearGradient>
	<path style="fill-rule:evenodd;clip-rule:evenodd;fill:url(#SVGID_1_);" d="M2.2,31.9c0.433-7.634,2.167-13.75,5.2-18.351
		c1.533-2.3,3.017-3.85,4.449-4.65C8.783,12,6.9,16.75,6.2,23.15C5.833,26.35,5.783,29.233,6.05,31.8
		c-0.7,0.467-1.55,0.634-2.55,0.5C3,32.2,2.567,32.066,2.2,31.9z"/>
	
		<linearGradient id="SVGID_2_" gradientUnits="userSpaceOnUse" x1="-37.4556" y1="5.4502" x2="-1.4556" y2="5.4502" gradientTransform="matrix(2.777778e-005 -1 1 -0.001 -1.223784e-004 -1.957008e-004)">
		<stop  offset="0" style="stop-color:#242224"/>
		<stop  offset="0.1804" style="stop-color:#37323C"/>
		<stop  offset="0.7412" style="stop-color:#716283"/>
		<stop  offset="1" style="stop-color:#87759F"/>
	</linearGradient>
	<path style="fill-rule:evenodd;clip-rule:evenodd;fill:url(#SVGID_2_);" d="M0,31.65C0.433,19.517,2.383,10.6,5.85,4.9
		C7.583,2.067,9.267,0.433,10.9,0C7.3,2.133,4.983,8.133,3.95,18c-0.5,4.9-0.65,9.6-0.45,14.1C2.433,32.4,1.533,32.417,0.8,32.15
		C0.433,32.017,0.167,31.85,0,31.65z"/>
</g>
</svg>
