<?xml version="1.0" encoding="iso-8859-1"?>
<!-- Generator: Adobe Illustrator 15.1.0, SVG Export Plug-In . SVG Version: 6.00 Build 0)  -->
<!DOCTYPE svg PUBLIC "-//W3C//DTD SVG 1.1//EN" "http://www.w3.org/Graphics/SVG/1.1/DTD/svg11.dtd">
<svg version="1.1" id="Layer_3" xmlns="http://www.w3.org/2000/svg" xmlns:xlink="http://www.w3.org/1999/xlink" x="0px" y="0px"
	 width="36.3px" height="72.1px" viewBox="0 0 36.3 72.1" style="enable-background:new 0 0 36.3 72.1;" xml:space="preserve">
<symbol  id="flash0.ai_x2F_Layer_3_x2F__x3C_Path_x3E_" viewBox="0 -7.85 28.3 7.85">
	<g id="Layer_1_2_">
		<path style="fill-rule:evenodd;clip-rule:evenodd;fill:#0D5069;" d="M28.3-4.05c0-1.1-1.417-2.017-4.25-2.75
			c-2.733-0.7-6.1-1.05-10.1-1.05c-3.967,0-7.267,0.35-9.9,1.05C1.35-6.067,0-5.15,0-4.05C0-2.917,1.383-1.967,4.15-1.2
			c2.767,0.8,6.1,1.2,10,1.2s7.233-0.4,10-1.2C26.917-1.967,28.3-2.917,28.3-4.05z"/>
	</g>
</symbol>
<g>
	
		<use xlink:href="#flash0.ai_x2F_Layer_3_x2F__x3C_Path_x3E_"  width="28.3" height="7.85" y="-7.85" transform="matrix(1 0 0 -1 4.5498 64.25)" style="overflow:visible;opacity:0.3086;enable-background:new    ;"/>
	<g>
		
			<linearGradient id="SVGID_1_" gradientUnits="userSpaceOnUse" x1="-68.2759" y1="25.7524" x2="-38.2759" y2="25.7524" gradientTransform="matrix(3.333334e-005 -1 1 -0.001 5.761933e-006 2.730502e-004)">
			<stop  offset="0" style="stop-color:#242224"/>
			<stop  offset="0.1529" style="stop-color:#283636"/>
			<stop  offset="0.7333" style="stop-color:#367D74"/>
			<stop  offset="1" style="stop-color:#3B998C"/>
		</linearGradient>
		<path style="fill-rule:evenodd;clip-rule:evenodd;fill:url(#SVGID_1_);" d="M26.35,40.05c1.7-3.633,3.334-6.15,4.9-7.55
			c-3.2,4.967-5.116,12.316-5.75,22.05c-0.3,4.867-0.3,9.233,0,13.101c-1.066,0.6-2.267,0.833-3.6,0.699l-1.65-0.399
			C20.95,56.65,22.983,47.35,26.35,40.05z"/>
		
			<linearGradient id="SVGID_2_" gradientUnits="userSpaceOnUse" x1="-71.1421" y1="29.8027" x2="-44.3171" y2="29.8027" gradientTransform="matrix(3.727866e-005 -1 1 -0.001 2.823608e-005 2.739995e-004)">
			<stop  offset="0" style="stop-color:#242224"/>
			<stop  offset="0.1216" style="stop-color:#252F39"/>
			<stop  offset="0.3922" style="stop-color:#284862"/>
			<stop  offset="0.6392" style="stop-color:#2A5A80"/>
			<stop  offset="0.851" style="stop-color:#2B6592"/>
			<stop  offset="1" style="stop-color:#2B6999"/>
		</linearGradient>
		<path style="fill-rule:evenodd;clip-rule:evenodd;fill:url(#SVGID_2_);" d="M30.15,46.65c2.1-2.7,4.149-4.5,6.149-5.4
			c-4.533,4.3-7.25,10.066-8.149,17.3c-0.467,3.601-0.467,6.783,0,9.55c-0.834,0.667-1.884,0.884-3.15,0.65l-1.7-0.55
			C23.667,59.233,25.95,52.05,30.15,46.65z"/>
		<linearGradient id="SVGID_3_" gradientUnits="userSpaceOnUse" x1="10.3745" y1="14.2876" x2="10.3745" y2="78.2126">
			<stop  offset="0.1608" style="stop-color:#57C29F"/>
			<stop  offset="0.4471" style="stop-color:#42806C"/>
			<stop  offset="0.702" style="stop-color:#324D45"/>
			<stop  offset="0.8941" style="stop-color:#282E2D"/>
			<stop  offset="1" style="stop-color:#242224"/>
		</linearGradient>
		<path style="fill-rule:evenodd;clip-rule:evenodd;fill:url(#SVGID_3_);" d="M9.95,35.65c4.867,10.267,7.55,20.9,8.05,31.9
			c-0.333,0.233-0.85,0.4-1.55,0.5c-1.367,0.267-2.883,0.167-4.55-0.3c0.233-4.7,0.033-10.066-0.6-16.1
			C10,39.583,7.15,30.2,2.75,23.5C5.083,26.433,7.483,30.483,9.95,35.65z"/>
		<linearGradient id="SVGID_4_" gradientUnits="userSpaceOnUse" x1="7.3003" y1="43" x2="7.3003" y2="73.4">
			<stop  offset="0" style="stop-color:#3B6E8F"/>
			<stop  offset="0.1608" style="stop-color:#3A6988"/>
			<stop  offset="0.3843" style="stop-color:#365C76"/>
			<stop  offset="0.6431" style="stop-color:#2F4758"/>
			<stop  offset="0.9333" style="stop-color:#262A2F"/>
			<stop  offset="1" style="stop-color:#242224"/>
		</linearGradient>
		<path style="fill-rule:evenodd;clip-rule:evenodd;fill:url(#SVGID_4_);" d="M7,47.75c4.733,1.833,7.267,8.616,7.6,20.35
			c-0.467,0.233-1.017,0.384-1.65,0.45c-1.267,0.101-2.3-0.316-3.1-1.25c0.467-3.8,0.4-7.434-0.2-10.899
			C8.483,49.5,5.267,46.866,0,48.5c0.567-0.366,1.283-0.667,2.15-0.9C3.917,47.134,5.533,47.184,7,47.75z"/>
		<g>
			<linearGradient id="SVGID_5_" gradientUnits="userSpaceOnUse" x1="19.6074" y1="7.5669" x2="16.6845" y2="61.267">
				<stop  offset="0" style="stop-color:#70A834"/>
				<stop  offset="0.2431" style="stop-color:#158434"/>
				<stop  offset="0.349" style="stop-color:#187231"/>
				<stop  offset="0.6392" style="stop-color:#1E472A"/>
				<stop  offset="0.8667" style="stop-color:#222C26"/>
				<stop  offset="1" style="stop-color:#242224"/>
			</linearGradient>
			<path style="fill-rule:evenodd;clip-rule:evenodd;fill:url(#SVGID_5_);" d="M20.45,0.05c1.566-0.2,3.149,0.034,4.75,0.7
				c1.467,0.633,2.55,1.483,3.25,2.55c1.166,2.034,1.783,3.9,1.85,5.6c0.033,1.367-0.3,2.967-1,4.8c-0.7,1.9-1.649,3.367-2.85,4.4
				c-1.367,1.167-3.134,1.933-5.3,2.3c-2.067,0.233-3.784-0.233-5.15-1.4c-1.267-1.1-2-2.55-2.2-4.35
				c-0.2-2.833,0.784-5.367,2.95-7.6c1.167-1.1,2.533-1.683,4.1-1.75c1.534-0.1,2.817,0.317,3.851,1.25
				c0.967,1.1,1.366,2.35,1.2,3.75c-0.101,1.2-0.567,2.3-1.4,3.3c-0.6,0.733-1.417,1.283-2.45,1.65c-1.1,0.4-2.033,0.433-2.8,0.1
				c-1.233-0.6-1.917-1.45-2.05-2.55c0.061-0.394,0.094-0.693,0.1-0.9c0.219,0.929,0.719,1.679,1.5,2.25
				c0.967,0.7,1.95,0.75,2.95,0.15c1.833-1.1,2.7-2.55,2.6-4.35c-0.1-1.967-1.283-2.784-3.55-2.45c-1,0.067-1.934,0.4-2.8,1
				c-0.833,0.6-1.45,1.317-1.85,2.15c-0.6,1.267-0.617,2.633-0.05,4.1c0.6,1.5,1.6,2.55,3,3.15c1.434,0.633,2.95,0.35,4.551-0.85
				c1.466-1.066,2.616-2.6,3.449-4.6c0.4-1.934,0.534-3.45,0.4-4.55c-0.167-1.333-0.75-2.5-1.75-3.5
				C24.616,3.067,23.033,2.483,21,2.65c-1.866,0.1-3.5,0.75-4.9,1.95c-2.733,2.1-4.2,4.933-4.4,8.5
				c-0.2,3.066,0.55,6.583,2.25,10.55c4.233,10.3,6.75,20.95,7.55,31.95c0.366,5.4,0.417,9.634,0.15,12.7
				c-0.934,0.8-2.067,1.101-3.4,0.9c-0.9-0.134-1.533-0.384-1.9-0.75l-0.25-0.5c0.6-7.733,0.583-14.733-0.05-21
				c-0.8-7.733-2.566-14.95-5.3-21.65c-1.733-3.867-2.483-7.833-2.25-11.9C8.733,8.6,10.467,5,13.7,2.6
				C15.767,1.1,18.017,0.25,20.45,0.05z"/>
			<path style="fill-rule:evenodd;clip-rule:evenodd;fill:#158434;" d="M13.95,25.9c0.6,0.7,0.883,1.533,0.85,2.5
				c-0.033,0.967-0.367,1.133-1,0.5c-0.633-0.6-0.933-1.45-0.9-2.55C12.9,25.283,13.25,25.133,13.95,25.9z"/>
			<path style="fill-rule:evenodd;clip-rule:evenodd;fill:#158434;" d="M11.2,22.8c0.5,0.367,0.783,0.934,0.85,1.7
				c0.067,0.767-0.117,1.133-0.55,1.1s-0.75-0.617-0.95-1.75C10.383,22.717,10.6,22.367,11.2,22.8z"/>
			<path style="fill-rule:evenodd;clip-rule:evenodd;fill:#158434;" d="M11.5,20.5c0.2,0.233,0.233,0.567,0.1,1
				c-0.133,0.4-0.383,0.467-0.75,0.2c-0.434-0.3-0.533-0.7-0.3-1.2C10.75,20.033,11.067,20.033,11.5,20.5z"/>
			<path style="fill-rule:evenodd;clip-rule:evenodd;fill:#158434;" d="M13.6,23.7c0.2,0.2,0.35,0.483,0.45,0.85
				c0.067,0.4-0.05,0.483-0.35,0.25c-0.3-0.267-0.45-0.566-0.45-0.9C13.25,23.533,13.367,23.467,13.6,23.7z"/>
			<path style="fill-rule:evenodd;clip-rule:evenodd;fill:#158434;" d="M13.55,29.45c0.3,0.2,0.434,0.566,0.4,1.1
				c-0.034,0.534-0.233,0.733-0.6,0.6s-0.55-0.533-0.55-1.2C12.833,29.317,13.083,29.15,13.55,29.45z"/>
			<path style="fill-rule:evenodd;clip-rule:evenodd;fill:#158434;" d="M12.05,27.1c0.233,0.267,0.383,0.633,0.45,1.1
				c0.033,0.466-0.05,0.5-0.25,0.1c-0.2-0.367-0.333-0.7-0.4-1C11.783,26.967,11.85,26.9,12.05,27.1z"/>
			<path style="fill-rule:evenodd;clip-rule:evenodd;fill:#158434;" d="M15.8,29.55c0.3,0.233,0.6,0.85,0.9,1.85
				c0.333,1,0.383,1.467,0.15,1.4c-0.267-0.033-0.583-0.65-0.95-1.85C15.5,29.75,15.467,29.283,15.8,29.55z"/>
			<path style="fill-rule:evenodd;clip-rule:evenodd;fill:#158434;" d="M15,30.4c0.267,0.167,0.433,0.45,0.5,0.85
				c0.067,0.433-0.067,0.7-0.4,0.8c-0.333,0.067-0.567-0.267-0.7-1C14.3,30.317,14.5,30.1,15,30.4z"/>
			<path style="fill-rule:evenodd;clip-rule:evenodd;fill:#158434;" d="M14.2,33.1c0.333,0.267,0.566,0.7,0.7,1.3
				c0.133,0.567,0.083,1.017-0.15,1.35c-0.2,0.3-0.367,0.217-0.5-0.25c-0.133-0.7-0.283-1.25-0.45-1.65
				c-0.133-0.4-0.167-0.667-0.1-0.8C13.8,32.883,13.967,32.9,14.2,33.1z"/>
			<path style="fill-rule:evenodd;clip-rule:evenodd;fill:#158434;" d="M16.2,35c0.367,0.3,0.6,0.75,0.7,1.35
				c0.1,0.633-0.017,1.034-0.35,1.2c-0.233,0.167-0.483,0.084-0.75-0.25c-0.267-0.367-0.417-0.8-0.45-1.3
				c-0.033-0.467,0.05-0.8,0.25-1C15.767,34.8,15.967,34.8,16.2,35z"/>
			<path style="fill-rule:evenodd;clip-rule:evenodd;fill:#158434;" d="M16.25,32.7c0.2,0.233,0.217,0.466,0.05,0.7
				c-0.133,0.2-0.3,0.15-0.5-0.15c-0.2-0.3-0.216-0.517-0.05-0.65C15.917,32.433,16.083,32.467,16.25,32.7z"/>
			<path style="fill-rule:evenodd;clip-rule:evenodd;fill:#158434;" d="M17.5,35.75c0.267,0.2,0.483,0.7,0.65,1.5
				c0.199,0.767,0.166,1.167-0.101,1.2s-0.533-0.5-0.8-1.6S17.067,35.383,17.5,35.75z"/>
			<path style="fill-rule:evenodd;clip-rule:evenodd;fill:#158434;" d="M17.3,33.85c0.167,0.3,0.217,0.583,0.15,0.85
				c-0.067,0.233-0.2,0.15-0.4-0.25c-0.167-0.367-0.216-0.65-0.15-0.85C16.967,33.4,17.1,33.483,17.3,33.85z"/>
			<path style="fill-rule:evenodd;clip-rule:evenodd;fill:#158434;" d="M15.8,38.25c0.3,0.167,0.483,0.5,0.55,1
				c0.066,0.5-0.033,0.8-0.3,0.9c-0.3,0.1-0.533-0.267-0.7-1.101C15.217,38.25,15.367,37.983,15.8,38.25z"/>
		</g>
	</g>
</g>
</svg>
