<?xml version="1.0" encoding="iso-8859-1"?>
<!-- Generator: Adobe Illustrator 15.1.0, SVG Export Plug-In . SVG Version: 6.00 Build 0)  -->
<!DOCTYPE svg PUBLIC "-//W3C//DTD SVG 1.1//EN" "http://www.w3.org/Graphics/SVG/1.1/DTD/svg11.dtd">
<svg version="1.1" id="Layer_3" xmlns="http://www.w3.org/2000/svg" xmlns:xlink="http://www.w3.org/1999/xlink" x="0px" y="0px"
	 width="84.2px" height="70.8px" viewBox="0 0 84.2 70.8" style="enable-background:new 0 0 84.2 70.8;" xml:space="preserve">
<symbol  id="flash0.ai_x2F_Layer_3_x2F__x3C_Clip_Group_0_x3E_" viewBox="0.026 -7.608 29.474 7.608">
	<g id="Layer_1_22_">
	</g>
	<g>
		<defs>
			<path id="SVGID_1_" d="M28.1-0.2c-0.5-0.033-2.25-0.35-5.25-0.95c-3.434-0.7-5.767-1.133-7-1.3c-1.567-0.233-3.45-0.2-5.65,0.1
				c-2.367,0.434-4.067,0.733-5.1,0.9C3.567-1.217,2.3-1.167,1.3-1.3C0.333-1.4-0.083-1.667,0.05-2.1
				C0.483-3.467,1.967-4.683,4.5-5.75c2.3-0.933,4.733-1.5,7.3-1.7c2.333-0.167,4.934,0.067,7.8,0.7c2.767,0.6,5.017,1.4,6.75,2.4
				c1.533,0.934,2.433,1.867,2.7,2.8C29.283-0.65,28.967-0.2,28.1-0.2z"/>
		</defs>
		<clipPath id="SVGID_2_">
			<use xlink:href="#SVGID_1_"  style="overflow:visible;"/>
		</clipPath>
		<g id="Layer_3_3_" style="clip-path:url(#SVGID_2_);">
			
				<use xlink:href="#flash0.ai_x2F_Layer_3_x2F__x3C_Path_x3E__x5F_5_x5F_1"  width="7.15" height="4.35" y="-4.35" transform="matrix(1 0 0 1 0.5 -1.2002)" style="overflow:visible;opacity:0.1797;enable-background:new    ;"/>
			
				<use xlink:href="#flash0.ai_x2F_Layer_3_x2F__x3C_Path_x3E__x5F_4_x5F_1"  width="4.05" height="4.95" y="-4.95" transform="matrix(1 0 0 1 6 -2.1499)" style="overflow:visible;opacity:0.1797;enable-background:new    ;"/>
			
				<use xlink:href="#flash0.ai_x2F_Layer_3_x2F__x3C_Path_x3E__x5F_3_x5F_1"  width="4.75" height="5.358" y="-5.358" transform="matrix(1 0 0 1 10.4502 -2.25)" style="overflow:visible;opacity:0.1797;enable-background:new    ;"/>
			
				<use xlink:href="#flash0.ai_x2F_Layer_3_x2F__x3C_Path_x3E__x5F_2_x5F_1"  width="3.7" height="5.6" y="-5.6" transform="matrix(1 0 0 1 16.25 -1.8999)" style="overflow:visible;opacity:0.1797;enable-background:new    ;"/>
			
				<use xlink:href="#flash0.ai_x2F_Layer_3_x2F__x3C_Path_x3E__x5F_1_x5F_1"  width="7.6" height="4.9" y="-4.9" transform="matrix(1 0 0 1 18.7002 -1.3999)" style="overflow:visible;opacity:0.1797;enable-background:new    ;"/>
			
				<use xlink:href="#flash0.ai_x2F_Layer_3_x2F__x3C_Path_x3E__x5F_6"  width="7.25" height="3.6" y="-3.6" transform="matrix(1 0 0 1 22.25 0)" style="overflow:visible;opacity:0.1797;enable-background:new    ;"/>
		</g>
	</g>
	<g id="Layer_4_3_">
	</g>
</symbol>
<symbol  id="flash0.ai_x2F_Layer_3_x2F__x3C_Clip_Group_0_x3E__x5F_1" viewBox="-0.01 -12.9 42.46 12.902">
	<g id="Layer_1_21_">
	</g>
	<g>
		<defs>
			<path id="SVGID_3_" d="M41.15-4.6c-0.8,0.133-3.417,0.083-7.85-0.15C28.033-4.983,24.567-5.1,22.9-5.1
				c-2.333,0-5.066,0.483-8.2,1.45c-3.367,1.2-5.767,2.033-7.2,2.5C5.333-0.45,3.517-0.067,2.05,0C0.583,0.033-0.1-0.283,0-0.95
				c0.333-2.167,2.217-4.333,5.65-6.5c3.1-1.966,6.5-3.383,10.2-4.25c3.2-0.767,6.917-0.9,11.15-0.4c3.767,0.467,7.1,1.3,10,2.5
				c2.5,1.033,4.133,2.1,4.9,3.2C42.6-5.367,42.35-4.767,41.15-4.6z"/>
		</defs>
		<clipPath id="SVGID_4_">
			<use xlink:href="#SVGID_3_"  style="overflow:visible;"/>
		</clipPath>
		<g id="Layer_3_2_" style="clip-path:url(#SVGID_4_);">
			
				<use xlink:href="#flash0.ai_x2F_Layer_3_x2F__x3C_Path_x3E__x5F_5_x5F_0"  width="10.6" height="6.6" y="-6.6" transform="matrix(1 0 0 1 0.4502 -0.5)" style="overflow:visible;opacity:0.1797;enable-background:new    ;"/>
			
				<use xlink:href="#flash0.ai_x2F_Layer_3_x2F__x3C_Path_x3E__x5F_4_x5F_0"  width="6.8" height="7.2" y="-7.2" transform="matrix(1 0 0 1 7.7002 -3.2002)" style="overflow:visible;opacity:0.1797;enable-background:new    ;"/>
			
				<use xlink:href="#flash0.ai_x2F_Layer_3_x2F__x3C_Path_x3E__x5F_3_x5F_0"  width="7.95" height="8.5" y="-8.5" transform="matrix(1 0 0 1 13.7998 -3.9502)" style="overflow:visible;opacity:0.1797;enable-background:new    ;"/>
			
				<use xlink:href="#flash0.ai_x2F_Layer_3_x2F__x3C_Path_x3E__x5F_2_x5F_0"  width="4.75" height="8.25" y="-8.25" transform="matrix(1 0 0 1 23.1001 -4.6499)" style="overflow:visible;opacity:0.1797;enable-background:new    ;"/>
			
				<use xlink:href="#flash0.ai_x2F_Layer_3_x2F__x3C_Path_x3E__x5F_1_x5F_0"  width="9.15" height="7.15" y="-7.15" transform="matrix(1 0 0 1 27.1001 -4.5498)" style="overflow:visible;opacity:0.1797;enable-background:new    ;"/>
			
				<use xlink:href="#flash0.ai_x2F_Layer_3_x2F__x3C_Path_x3E__x5F_0"  width="10" height="5.75" y="-5.75" transform="matrix(1 0 0 1 32.4502 -3.1499)" style="overflow:visible;opacity:0.1797;enable-background:new    ;"/>
		</g>
	</g>
	<g id="Layer_4_2_">
	</g>
</symbol>
<symbol  id="flash0.ai_x2F_Layer_3_x2F__x3C_Clip_Group_0_x3E__x5F_2" viewBox="0.036 -7.65 27.614 7.65">
	<g id="Layer_1_20_">
	</g>
	<g>
		<defs>
			<path id="SVGID_5_" d="M26.75-2.35c-0.5,0.067-2.2,0.017-5.1-0.15c-3.467-0.233-5.717-0.35-6.75-0.35
				c-1.5-0.033-3.267,0.233-5.3,0.8c-2.2,0.667-3.767,1.133-4.7,1.4C3.433-0.25,2.25-0.033,1.35,0c-0.967,0-1.4-0.2-1.3-0.6
				C0.283-1.933,1.533-3.233,3.8-4.5c2.034-1.167,4.267-2,6.7-2.5c2.067-0.433,4.467-0.467,7.2-0.1
				c2.433,0.333,4.583,0.883,6.45,1.65c1.6,0.667,2.633,1.35,3.1,2.05C27.683-2.8,27.517-2.45,26.75-2.35z"/>
		</defs>
		<clipPath id="SVGID_6_">
			<use xlink:href="#SVGID_5_"  style="overflow:visible;"/>
		</clipPath>
		<g id="Layer_3_1_" style="clip-path:url(#SVGID_6_);">
			
				<use xlink:href="#flash0.ai_x2F_Layer_3_x2F__x3C_Path_x3E__x5F_5"  width="6.85" height="4.05" y="-4.05" transform="matrix(1 0 0 1 0.3501 -0.25)" style="overflow:visible;opacity:0.1797;enable-background:new    ;"/>
			
				<use xlink:href="#flash0.ai_x2F_Layer_3_x2F__x3C_Path_x3E__x5F_4"  width="4.3" height="4.45" y="-4.45" transform="matrix(1 0 0 1 5.1499 -1.7998)" style="overflow:visible;opacity:0.1797;enable-background:new    ;"/>
			
				<use xlink:href="#flash0.ai_x2F_Layer_3_x2F__x3C_Path_x3E__x5F_3"  width="5.05" height="5.1" y="-5.1" transform="matrix(1 0 0 1 9.1499 -2.25)" style="overflow:visible;opacity:0.1797;enable-background:new    ;"/>
			
				<use xlink:href="#flash0.ai_x2F_Layer_3_x2F__x3C_Path_x3E__x5F_2"  width="3.05" height="5.1" y="-5.1" transform="matrix(1 0 0 1 15.2002 -2.5498)" style="overflow:visible;opacity:0.1797;enable-background:new    ;"/>
			
				<use xlink:href="#flash0.ai_x2F_Layer_3_x2F__x3C_Path_x3E__x5F_1"  width="6.05" height="4.35" y="-4.35" transform="matrix(1 0 0 1 17.6499 -2.4502)" style="overflow:visible;opacity:0.1797;enable-background:new    ;"/>
			
				<use xlink:href="#flash0.ai_x2F_Layer_3_x2F__x3C_Path_x3E_"  width="6.55" height="3.45" y="-3.45" transform="matrix(1 0 0 1 21.1001 -1.5498)" style="overflow:visible;opacity:0.1797;enable-background:new    ;"/>
		</g>
	</g>
	<g id="Layer_4_1_">
	</g>
</symbol>
<symbol  id="flash0.ai_x2F_Layer_3_x2F__x3C_Path_x3E_" viewBox="0 -3.45 6.55 3.45">
	<g id="Layer_1_7_">
		<path style="fill-rule:evenodd;clip-rule:evenodd;fill:#5957A1;" d="M0-0.7L1,0c0.9-0.533,2.75-1.217,5.55-2.05l-2-1.4
			C3.883-3.317,2.367-2.4,0-0.7z"/>
	</g>
</symbol>
<symbol  id="flash0.ai_x2F_Layer_3_x2F__x3C_Path_x3E__x5F_0" viewBox="0 -5.75 10 5.75">
	<g id="Layer_1_13_">
		<path style="fill-rule:evenodd;clip-rule:evenodd;fill:#5957A1;" d="M0-1.15L1.55,0C2.917-0.9,5.733-2.083,10-3.55l-3.15-2.2
			C5.85-5.517,3.567-3.983,0-1.15z"/>
	</g>
</symbol>
<symbol  id="flash0.ai_x2F_Layer_3_x2F__x3C_Path_x3E__x5F_1" viewBox="0 -4.35 6.05 4.35">
	<g id="Layer_1_6_">
		<path style="fill-rule:evenodd;clip-rule:evenodd;fill:#5957A1;" d="M0-0.2L1.5,0c0.533-0.633,2.05-1.75,4.55-3.35l-3.35-1
			C1.967-3.583,1.067-2.2,0-0.2z"/>
	</g>
</symbol>
<symbol  id="flash0.ai_x2F_Layer_3_x2F__x3C_Path_x3E__x5F_1_x5F_0" viewBox="0 -7.15 9.15 7.15">
	<g id="Layer_1_12_">
		<path style="fill-rule:evenodd;clip-rule:evenodd;fill:#5957A1;" d="M0-0.3L2.3,0c0.833-1.033,3.117-2.917,6.85-5.65l-5.2-1.5
			C2.883-5.883,1.567-3.6,0-0.3z"/>
	</g>
</symbol>
<symbol  id="flash0.ai_x2F_Layer_3_x2F__x3C_Path_x3E__x5F_1_x5F_1" viewBox="0 -4.9 7.6 4.9">
	<g id="Layer_1_18_">
		<path style="fill-rule:evenodd;clip-rule:evenodd;fill:#5957A1;" d="M0-0.4L1.5,0c0.667-0.6,2.7-1.717,6.1-3.35L3.75-4.9
			C2.917-4.2,1.667-2.7,0-0.4z"/>
	</g>
</symbol>
<symbol  id="flash0.ai_x2F_Layer_3_x2F__x3C_Path_x3E__x5F_2" viewBox="0 -5.1 3.05 5.1">
	<g id="Layer_1_5_">
		<path style="fill-rule:evenodd;clip-rule:evenodd;fill:#5957A1;" d="M0.1-0.15L1.15,0C1.117-0.133,1.433-0.967,2.1-2.5
			c0.3-0.8,0.617-1.567,0.95-2.3C2.25-4.933,1.233-5.033,0-5.1L0.1-0.15z"/>
	</g>
</symbol>
<symbol  id="flash0.ai_x2F_Layer_3_x2F__x3C_Path_x3E__x5F_2_x5F_0" viewBox="0 -8.25 4.75 8.25">
	<g id="Layer_1_11_">
		<path style="fill-rule:evenodd;clip-rule:evenodd;fill:#5957A1;" d="M0.4-0.15L2,0C1.967-0.2,2.417-1.583,3.35-4.15
			c0.467-1.267,0.933-2.517,1.4-3.75C3.483-8.1,1.9-8.217,0-8.25L0.4-0.15z"/>
	</g>
</symbol>
<symbol  id="flash0.ai_x2F_Layer_3_x2F__x3C_Path_x3E__x5F_2_x5F_1" viewBox="0 -5.6 3.7 5.6">
	<g id="Layer_1_17_">
		<path style="fill-rule:evenodd;clip-rule:evenodd;fill:#5957A1;" d="M0-0.3L1.05,0c0-0.133,0.45-0.983,1.35-2.55
			c0.434-0.8,0.867-1.567,1.3-2.3C2.9-5.117,1.85-5.367,0.55-5.6L0-0.3z"/>
	</g>
</symbol>
<symbol  id="flash0.ai_x2F_Layer_3_x2F__x3C_Path_x3E__x5F_3" viewBox="0 -5.1 5.05 5.1">
	<g id="Layer_1_4_">
		<path style="fill-rule:evenodd;clip-rule:evenodd;fill:#5957A1;" d="M0-4.7C1.067-2.467,1.7-0.9,1.9,0
			c1.4-0.267,2.45-0.383,3.15-0.35L4.55-5.1C2.983-5.067,1.467-4.933,0-4.7z"/>
	</g>
</symbol>
<symbol  id="flash0.ai_x2F_Layer_3_x2F__x3C_Path_x3E__x5F_3_x5F_0" viewBox="0 -8.5 7.95 8.5">
	<g id="Layer_1_10_">
		<path style="fill-rule:evenodd;clip-rule:evenodd;fill:#5957A1;" d="M0-7.7C1.733-4.067,2.767-1.5,3.1,0
			c2.167-0.533,3.783-0.767,4.85-0.7L7-8.5C4.6-8.333,2.267-8.067,0-7.7z"/>
	</g>
</symbol>
<symbol  id="flash0.ai_x2F_Layer_3_x2F__x3C_Path_x3E__x5F_3_x5F_1" viewBox="0 -5.358 4.75 5.358">
	<g id="Layer_1_16_">
		<path style="fill-rule:evenodd;clip-rule:evenodd;fill:#5957A1;" d="M0-5.35c0.8,2.533,1.217,4.3,1.25,5.3
			C2.783-0.15,3.9-0.133,4.6,0l0.15-5.15C3.117-5.317,1.533-5.383,0-5.35z"/>
	</g>
</symbol>
<symbol  id="flash0.ai_x2F_Layer_3_x2F__x3C_Path_x3E__x5F_4" viewBox="0 -4.45 4.3 4.45">
	<g id="Layer_1_3_">
		<path style="fill-rule:evenodd;clip-rule:evenodd;fill:#5957A1;" d="M0-3.45C1.933-1.95,3.133-0.8,3.6,0l0.7-0.2
			C3.1-2.533,2.333-3.95,2-4.45L0-3.45z"/>
	</g>
</symbol>
<symbol  id="flash0.ai_x2F_Layer_3_x2F__x3C_Path_x3E__x5F_4_x5F_0" viewBox="0 -7.2 6.8 7.2">
	<g id="Layer_1_9_">
		<path style="fill-rule:evenodd;clip-rule:evenodd;fill:#5957A1;" d="M0-5.5C3.067-3.133,4.983-1.3,5.75,0L6.8-0.35
			C4.833-4.117,3.583-6.4,3.05-7.2L0-5.5z"/>
	</g>
</symbol>
<symbol  id="flash0.ai_x2F_Layer_3_x2F__x3C_Path_x3E__x5F_4_x5F_1" viewBox="0 -4.95 4.05 4.95">
	<g id="Layer_1_15_">
		<path style="fill-rule:evenodd;clip-rule:evenodd;fill:#5957A1;" d="M0-4.15C1.833-2.317,2.933-0.933,3.3,0l0.75-0.15
			c-0.933-2.633-1.533-4.233-1.8-4.8L0-4.15z"/>
	</g>
</symbol>
<symbol  id="flash0.ai_x2F_Layer_3_x2F__x3C_Path_x3E__x5F_5" viewBox="0 -4.05 6.85 4.05">
	<g id="Layer_1_2_">
		<path style="fill-rule:evenodd;clip-rule:evenodd;fill:#5957A1;" d="M3.65,0l3.2-1.1c-0.667-0.767-1.934-1.75-3.8-2.95
			C2.25-3.517,1.233-2.65,0-1.45L3.65,0z"/>
	</g>
</symbol>
<symbol  id="flash0.ai_x2F_Layer_3_x2F__x3C_Path_x3E__x5F_5_x5F_0" viewBox="0 -6.6 10.6 6.6">
	<g id="Layer_1_8_">
		<path style="fill-rule:evenodd;clip-rule:evenodd;fill:#5957A1;" d="M5.65,0l4.95-1.9C9.533-3.1,7.55-4.667,4.65-6.6
			C3.417-5.7,1.867-4.25,0-2.25L5.65,0z"/>
	</g>
</symbol>
<symbol  id="flash0.ai_x2F_Layer_3_x2F__x3C_Path_x3E__x5F_5_x5F_1" viewBox="0 -4.35 7.15 4.35">
	<g id="Layer_1_14_">
		<path style="fill-rule:evenodd;clip-rule:evenodd;fill:#5957A1;" d="M3.6,0l3.55-0.7C6.517-1.6,5.333-2.817,3.6-4.35
			C2.667-3.917,1.467-3.15,0-2.05L3.6,0z"/>
	</g>
</symbol>
<symbol  id="flash0.ai_x2F_Layer_3_x2F__x3C_Path_x3E__x5F_6" viewBox="0 -3.6 7.25 3.6">
	<g id="Layer_1_19_">
		<path style="fill-rule:evenodd;clip-rule:evenodd;fill:#5957A1;" d="M0-0.95L0.9,0c1.033-0.467,3.15-0.983,6.35-1.55L5.6-3.6
			C4.9-3.567,3.033-2.683,0-0.95z"/>
	</g>
</symbol>
<g>
	
		<linearGradient id="SVGID_7_" gradientUnits="userSpaceOnUse" x1="12.5605" y1="-69.3301" x2="27.0605" y2="-69.3301" gradientTransform="matrix(-0.0617 0.9981 -0.9981 -0.0617 6.978810e-004 -1.209527e-004)">
		<stop  offset="0.0314" style="stop-color:#59467B"/>
		<stop  offset="0.0627" style="stop-color:#554376"/>
		<stop  offset="0.2431" style="stop-color:#443560"/>
		<stop  offset="0.4431" style="stop-color:#372C51"/>
		<stop  offset="0.6706" style="stop-color:#302648"/>
		<stop  offset="1" style="stop-color:#2E2445"/>
	</linearGradient>
	<path style="fill-rule:evenodd;clip-rule:evenodd;fill:url(#SVGID_7_);" d="M83.8,25.15c0.601,0.8,0.533,1.684-0.2,2.65
		c-0.933,1.233-2.649,2.267-5.149,3.1c-3.101,1.067-6.667,1.45-10.7,1.15c-4-0.267-7.434-1.05-10.3-2.35
		c-2.134-0.967-3.834-2.133-5.101-3.5c-1.5-1.633-0.833-2.767,2-3.4c3.233-0.667,5.917-1.667,8.051-3
		c1.833-1.133,3.116-1.833,3.85-2.1c1.767-0.633,3.2-0.517,4.3,0.35c1.066,0.867,2.634,1.75,4.7,2.65
		c1.167,0.533,2.884,1.267,5.15,2.2C82.134,23.667,83.267,24.417,83.8,25.15z"/>
	
		<radialGradient id="SVGID_8_" cx="69.2041" cy="22.3369" r="10.0312" gradientTransform="matrix(0.9981 0.0615 0.021 -0.3414 -1.8435 29.9219)" gradientUnits="userSpaceOnUse">
		<stop  offset="0" style="stop-color:#33A6C2"/>
		<stop  offset="0.2235" style="stop-color:#34A2C0"/>
		<stop  offset="0.4235" style="stop-color:#3998BA"/>
		<stop  offset="0.6118" style="stop-color:#4086B0"/>
		<stop  offset="0.7961" style="stop-color:#4A6CA1"/>
		<stop  offset="0.9725" style="stop-color:#574C8F"/>
		<stop  offset="1" style="stop-color:#59468C"/>
	</radialGradient>
	<path style="fill-rule:evenodd;clip-rule:evenodd;fill:url(#SVGID_8_);" d="M54.25,24.8c-0.1-0.4,0.333-0.6,1.3-0.6
		c0.9,0.033,2.084,0.25,3.55,0.65c0.934,0.267,2.5,0.733,4.7,1.4c2.033,0.567,3.8,0.833,5.3,0.8c1.034,0,3.284-0.117,6.75-0.35
		c2.9-0.167,4.601-0.217,5.101-0.15c0.767,0.1,0.934,0.45,0.5,1.05c-0.467,0.7-1.5,1.383-3.101,2.05
		c-1.866,0.767-4.017,1.317-6.449,1.65c-2.733,0.367-5.134,0.333-7.2-0.1c-2.434-0.5-4.667-1.333-6.7-2.5
		C55.733,27.433,54.483,26.133,54.25,24.8z"/>
	
		<use xlink:href="#flash0.ai_x2F_Layer_3_x2F__x3C_Clip_Group_0_x3E__x5F_2"  width="27.614" height="7.65" x="0.036" y="-7.65" transform="matrix(1 0 0 -1 54.2002 24.2002)" style="overflow:visible;"/>
	
		<linearGradient id="SVGID_9_" gradientUnits="userSpaceOnUse" x1="-8.5176" y1="-56.5308" x2="9.1596" y2="-56.5308" gradientTransform="matrix(-0.173 0.9849 -0.9849 -0.173 -6.317198e-004 -2.976060e-004)">
		<stop  offset="0.0314" style="stop-color:#59467B"/>
		<stop  offset="0.0627" style="stop-color:#554376"/>
		<stop  offset="0.2431" style="stop-color:#443560"/>
		<stop  offset="0.4431" style="stop-color:#372C51"/>
		<stop  offset="0.6706" style="stop-color:#302648"/>
		<stop  offset="1" style="stop-color:#2E2445"/>
	</linearGradient>
	<path style="fill-rule:evenodd;clip-rule:evenodd;fill:url(#SVGID_9_);" d="M77.05,19.15c-1.866,1.533-4.934,2.867-9.2,4
		c-4.066,1.067-7.783,1.633-11.149,1.7c-3.467,0.033-6.967-0.45-10.5-1.45c-3.601-1.033-6.733-2.467-9.4-4.3
		c-2.4-1.633-4.15-3.383-5.25-5.25c-0.9-1.567-0.716-2.833,0.55-3.8C33,9.383,34.767,8.7,37.4,8c1.833-0.467,3.633-1.167,5.4-2.1
		c1.066-0.6,2.783-1.617,5.15-3.05c3.7-2.133,6.467-3.067,8.3-2.8c2.366,0.267,4.5,1.284,6.4,3.05c1.1,1.066,3.017,2.917,5.75,5.55
		c0.633,0.5,2.399,1.517,5.3,3.05c2.366,1.233,3.899,2.333,4.6,3.3C79.267,16.333,78.85,17.717,77.05,19.15z"/>
	
		<radialGradient id="SVGID_10_" cx="55.2627" cy="10.8848" r="15.4921" gradientTransform="matrix(0.9964 0.0842 0.0306 -0.3615 -1.2494 14.7804)" gradientUnits="userSpaceOnUse">
		<stop  offset="0" style="stop-color:#33A6C2"/>
		<stop  offset="0.2235" style="stop-color:#34A2C0"/>
		<stop  offset="0.4235" style="stop-color:#3998BA"/>
		<stop  offset="0.6118" style="stop-color:#4086B0"/>
		<stop  offset="0.7961" style="stop-color:#4A6CA1"/>
		<stop  offset="0.9725" style="stop-color:#574C8F"/>
		<stop  offset="1" style="stop-color:#59468C"/>
	</radialGradient>
	<path style="fill-rule:evenodd;clip-rule:evenodd;fill:url(#SVGID_10_);" d="M49.25,22.95c-3.7-0.867-7.1-2.284-10.2-4.25
		c-3.433-2.167-5.316-4.333-5.65-6.5c-0.1-0.667,0.583-0.983,2.05-0.95c1.466,0.067,3.283,0.45,5.45,1.15
		c1.433,0.467,3.833,1.3,7.2,2.5c3.134,0.967,5.867,1.45,8.2,1.45c1.667,0,5.134-0.117,10.4-0.35c4.434-0.233,7.05-0.283,7.85-0.15
		c1.2,0.167,1.45,0.767,0.75,1.8c-0.767,1.1-2.399,2.167-4.899,3.2c-2.9,1.2-6.233,2.033-10,2.5
		C56.167,23.85,52.45,23.717,49.25,22.95z"/>
	
		<linearGradient id="SVGID_11_" gradientUnits="userSpaceOnUse" x1="-61.7573" y1="57.0781" x2="-58.5717" y2="57.0781" gradientTransform="matrix(0.1491 -0.9888 0.9888 0.1491 2.655983e-004 -1.240373e-004)">
		<stop  offset="0" style="stop-color:#1B3545;stop-opacity:0"/>
		<stop  offset="0.0039" style="stop-color:#1C3646;stop-opacity:0.0039"/>
		<stop  offset="0.1333" style="stop-color:#4B636E;stop-opacity:0.2667"/>
		<stop  offset="0.2627" style="stop-color:#738990;stop-opacity:0.4902"/>
		<stop  offset="0.4" style="stop-color:#94A8AC;stop-opacity:0.6745"/>
		<stop  offset="0.5373" style="stop-color:#AEC0C2;stop-opacity:0.8157"/>
		<stop  offset="0.6784" style="stop-color:#C0D1D2;stop-opacity:0.9176"/>
		<stop  offset="0.8314" style="stop-color:#CADCDB;stop-opacity:0.9804"/>
		<stop  offset="1" style="stop-color:#CEDFDE"/>
	</linearGradient>
	<path style="fill-rule:evenodd;clip-rule:evenodd;fill:url(#SVGID_11_);" d="M52.7,16l1.399,0.15c-0.066,2-0.716,4.733-1.949,8.2
		c-1.367,3.767-2.134,6.267-2.301,7.5c-0.566,4.066-0.017,11.534,1.65,22.4c0.566,4.033,0.684,9.55,0.35,16.55H49.5
		c0.233-7,0.25-12.233,0.05-15.7c-0.1-1.5-0.416-4.75-0.95-9.75c-0.466-4.433-0.733-7.866-0.8-10.3c-0.066-2.1,0.7-5.316,2.3-9.65
		C51.8,20.867,52.667,17.733,52.7,16z"/>
	
		<linearGradient id="SVGID_12_" gradientUnits="userSpaceOnUse" x1="-64.6313" y1="64.0752" x2="-60.9171" y2="64.0752" gradientTransform="matrix(0.0875 -0.9962 0.9962 0.0875 -3.356934e-004 -9.429455e-005)">
		<stop  offset="0" style="stop-color:#1B3545;stop-opacity:0"/>
		<stop  offset="0.0039" style="stop-color:#1C3646;stop-opacity:0.0039"/>
		<stop  offset="0.1333" style="stop-color:#4B636E;stop-opacity:0.2667"/>
		<stop  offset="0.2627" style="stop-color:#738990;stop-opacity:0.4902"/>
		<stop  offset="0.4" style="stop-color:#94A8AC;stop-opacity:0.6745"/>
		<stop  offset="0.5373" style="stop-color:#AEC0C2;stop-opacity:0.8157"/>
		<stop  offset="0.6784" style="stop-color:#C0D1D2;stop-opacity:0.9176"/>
		<stop  offset="0.8314" style="stop-color:#CADCDB;stop-opacity:0.9804"/>
		<stop  offset="1" style="stop-color:#CEDFDE"/>
	</linearGradient>
	<path style="fill-rule:evenodd;clip-rule:evenodd;fill:url(#SVGID_12_);" d="M54.8,49c0.2,2.767,0.566,6.866,1.101,12.3
		c0.366,4.467,0.483,7.634,0.35,9.5h-2.2c0.2-2.3,0.101-6.517-0.3-12.649c-0.4-4.434-0.65-7.4-0.75-8.9
		c-0.167-2.333,0.017-4.3,0.55-5.9c0.8-2.366,2.05-4.316,3.75-5.85c1.233-1.066,2.783-1.983,4.65-2.75
		c2.366-0.933,3.967-2.3,4.8-4.1c0.5-1.9,0.833-3.133,1-3.7l1.45,0.25l-0.7,3.5c-0.967,2.5-2.6,4.267-4.9,5.3
		c-2.733,1.167-4.767,2.517-6.1,4.05C55.434,42.35,54.533,45.333,54.8,49z"/>
	
		<linearGradient id="SVGID_13_" gradientUnits="userSpaceOnUse" x1="20.5449" y1="-18.6201" x2="31.9594" y2="-18.6201" gradientTransform="matrix(-0.0471 0.9989 -0.9989 -0.0471 -7.031634e-004 -3.524125e-005)">
		<stop  offset="0.0314" style="stop-color:#59467B"/>
		<stop  offset="0.0627" style="stop-color:#554376"/>
		<stop  offset="0.2431" style="stop-color:#443560"/>
		<stop  offset="0.4431" style="stop-color:#372C51"/>
		<stop  offset="0.6706" style="stop-color:#302648"/>
		<stop  offset="1" style="stop-color:#2E2445"/>
	</linearGradient>
	<path style="fill-rule:evenodd;clip-rule:evenodd;fill:url(#SVGID_13_);" d="M12.6,22.8c1.233-1,2.417-1.6,3.55-1.8
		c1.633-0.233,3.434,0.817,5.4,3.15c1.767,2.067,4.284,3.65,7.55,4.75c2,0.633,3.367,1.267,4.1,1.9c1.033,0.9,1.25,2,0.65,3.3
		c-0.8,1.8-2.967,3.4-6.5,4.8c-4.267,1.699-9.083,2.3-14.45,1.8c-5.2-0.5-8.883-1.767-11.05-3.8c-1.567-1.467-2.15-2.934-1.75-4.4
		c0.167-0.667,1.383-1.633,3.65-2.9c2.733-1.533,4.5-2.684,5.3-3.45C11.117,24.183,12.3,23.067,12.6,22.8z"/>
	
		<use xlink:href="#flash0.ai_x2F_Layer_3_x2F__x3C_Clip_Group_0_x3E__x5F_1"  width="42.46" height="12.902" x="-0.01" y="-12.9" transform="matrix(1 0 0 -1 33.3999 11.25)" style="overflow:visible;"/>
	
		<radialGradient id="SVGID_14_" cx="14.4399" cy="35.9624" r="10.5891" gradientTransform="matrix(0.9975 -0.0708 -0.0248 -0.3494 3.4382 48.438)" gradientUnits="userSpaceOnUse">
		<stop  offset="0" style="stop-color:#33A6C2"/>
		<stop  offset="0.2235" style="stop-color:#34A2C0"/>
		<stop  offset="0.4235" style="stop-color:#3998BA"/>
		<stop  offset="0.6118" style="stop-color:#4086B0"/>
		<stop  offset="0.7961" style="stop-color:#4A6CA1"/>
		<stop  offset="0.9725" style="stop-color:#574C8F"/>
		<stop  offset="1" style="stop-color:#59468C"/>
	</radialGradient>
	<path style="fill-rule:evenodd;clip-rule:evenodd;fill:url(#SVGID_14_);" d="M2.6,34.85c-0.133-0.434,0.283-0.7,1.25-0.8
		c1-0.133,2.267-0.083,3.8,0.15c1.033,0.167,2.733,0.466,5.1,0.9c2.2,0.3,4.083,0.333,5.65,0.1c1.233-0.167,3.567-0.6,7-1.3
		c3-0.6,4.75-0.917,5.25-0.95c0.867,0,1.184,0.45,0.95,1.35c-0.267,0.934-1.167,1.867-2.7,2.8c-1.733,1-3.983,1.801-6.75,2.4
		c-2.867,0.634-5.467,0.866-7.8,0.7c-2.567-0.2-5-0.767-7.3-1.7C4.517,37.434,3.033,36.217,2.6,34.85z"/>
	
		<use xlink:href="#flash0.ai_x2F_Layer_3_x2F__x3C_Clip_Group_0_x3E_"  width="29.474" height="7.608" x="0.026" y="-7.608" transform="matrix(1 0 0 -1 2.5498 32.75)" style="overflow:visible;"/>
	
		<linearGradient id="SVGID_15_" gradientUnits="userSpaceOnUse" x1="-69.6113" y1="29.7358" x2="-64.5863" y2="29.7358" gradientTransform="matrix(-0.005 -1 1 -0.005 1.092106e-004 -4.322231e-004)">
		<stop  offset="0" style="stop-color:#1B3545;stop-opacity:0"/>
		<stop  offset="0.0039" style="stop-color:#1C3646;stop-opacity:0.0039"/>
		<stop  offset="0.1333" style="stop-color:#4B636E;stop-opacity:0.2667"/>
		<stop  offset="0.2627" style="stop-color:#738990;stop-opacity:0.4902"/>
		<stop  offset="0.4" style="stop-color:#94A8AC;stop-opacity:0.6745"/>
		<stop  offset="0.5373" style="stop-color:#AEC0C2;stop-opacity:0.8157"/>
		<stop  offset="0.6784" style="stop-color:#C0D1D2;stop-opacity:0.9176"/>
		<stop  offset="0.8314" style="stop-color:#CADCDB;stop-opacity:0.9804"/>
		<stop  offset="1" style="stop-color:#CEDFDE"/>
	</linearGradient>
	<path style="fill-rule:evenodd;clip-rule:evenodd;fill:url(#SVGID_15_);" d="M15.3,35.35l1.55,0.05c0.967,3.267,1.9,5.317,2.8,6.15
		c1.7,1.566,4.95,2.316,9.75,2.25c2.7-0.033,4.883,0.7,6.55,2.2c1.6,1.467,3.133,4.116,4.6,7.95C42.316,58.483,43.7,64.1,44.7,70.8
		h-2.15c0.101-1.366-0.233-3.733-1-7.1c-1.466-6.467-3.5-11.617-6.1-15.45c-1.233-1.8-3.117-2.8-5.65-3
		c-3.133,0.033-5.617-0.167-7.45-0.6c-2.8-0.667-4.817-2.417-6.05-5.25L15.3,35.35z"/>
	
		<linearGradient id="SVGID_16_" gradientUnits="userSpaceOnUse" x1="-34.4277" y1="51.9824" x2="-25.7723" y2="51.9824" gradientTransform="matrix(0.0838 -0.9965 0.9965 0.0838 5.149394e-004 -8.636713e-005)">
		<stop  offset="0" style="stop-color:#1B3545;stop-opacity:0"/>
		<stop  offset="0.0039" style="stop-color:#1C3646;stop-opacity:0.0039"/>
		<stop  offset="0.1333" style="stop-color:#4B636E;stop-opacity:0.2667"/>
		<stop  offset="0.2627" style="stop-color:#738990;stop-opacity:0.4902"/>
		<stop  offset="0.4" style="stop-color:#94A8AC;stop-opacity:0.6745"/>
		<stop  offset="0.5373" style="stop-color:#AEC0C2;stop-opacity:0.8157"/>
		<stop  offset="0.6784" style="stop-color:#C0D1D2;stop-opacity:0.9176"/>
		<stop  offset="0.8314" style="stop-color:#CADCDB;stop-opacity:0.9804"/>
		<stop  offset="1" style="stop-color:#CEDFDE"/>
	</linearGradient>
	<path style="fill-rule:evenodd;clip-rule:evenodd;fill:url(#SVGID_16_);" d="M50.95,27.15C50.85,27.717,51,28.767,51.4,30.3
		c0.466,1.934,0.75,3.55,0.85,4.85c0.167,1.734,0.116,2.517-0.15,2.35s-0.433-0.667-0.5-1.5c-0.066-0.733-0.267-1.033-0.6-0.9
		c-0.366,0.167-0.533,0.933-0.5,2.3c0.033,1.366-0.1,1.649-0.4,0.85c-0.267-0.767-0.416-1.566-0.449-2.4
		c-0.067-0.767-0.25-1.067-0.551-0.9c-0.333,0.133-0.683,0.816-1.05,2.05c-0.3,1.134-0.5,1.45-0.6,0.95
		c-0.066-0.4-0.05-1.101,0.05-2.1c0.066-0.767-0.033-0.883-0.3-0.35s-0.517,1.333-0.75,2.4c-0.267,1.166-0.467,1.267-0.601,0.3
		c-0.133-1-0.033-2.417,0.301-4.25c0.3-1.6,0.983-3.284,2.05-5.05c0.5-0.9,0.983-1.633,1.45-2.2L50.95,27.15z"/>
	
		<linearGradient id="SVGID_17_" gradientUnits="userSpaceOnUse" x1="-44.7856" y1="57.8613" x2="-37.9614" y2="57.8613" gradientTransform="matrix(0.0843 -0.9964 0.9964 0.0843 1.924336e-004 2.726018e-004)">
		<stop  offset="0" style="stop-color:#1B3545;stop-opacity:0"/>
		<stop  offset="0.0039" style="stop-color:#1C3646;stop-opacity:0.0039"/>
		<stop  offset="0.1333" style="stop-color:#4B636E;stop-opacity:0.2667"/>
		<stop  offset="0.2627" style="stop-color:#738990;stop-opacity:0.4902"/>
		<stop  offset="0.4" style="stop-color:#94A8AC;stop-opacity:0.6745"/>
		<stop  offset="0.5373" style="stop-color:#AEC0C2;stop-opacity:0.8157"/>
		<stop  offset="0.6784" style="stop-color:#C0D1D2;stop-opacity:0.9176"/>
		<stop  offset="0.8314" style="stop-color:#CADCDB;stop-opacity:0.9804"/>
		<stop  offset="1" style="stop-color:#CEDFDE"/>
	</linearGradient>
	<path style="fill-rule:evenodd;clip-rule:evenodd;fill:url(#SVGID_17_);" d="M51.7,48.45c0.066-1,0.267-2.101,0.6-3.3
		c0.634-2.233,1.55-3.917,2.75-5.051l1.5,0.9c-0.333,0.7-0.467,1.917-0.399,3.65c0.1,2.267,0.116,3.699,0.05,4.3
		c-0.167,1.166-0.283,1.184-0.351,0.05c-0.1-0.967-0.133-1.95-0.1-2.95c0-0.767-0.134-0.767-0.4,0S54.9,47.8,54.8,49
		c-0.133,1.7-0.3,0.65-0.5-3.15c0-1-0.316-0.05-0.95,2.851C53.15,49.6,53.033,49.65,53,48.85c-0.033-0.8,0.017-1.649,0.15-2.55
		c0.133-0.733,0.05-0.783-0.25-0.149C52.6,46.717,52.3,47.5,52,48.5C51.7,49.434,51.6,49.417,51.7,48.45z"/>
	
		<linearGradient id="SVGID_18_" gradientUnits="userSpaceOnUse" x1="-48.3457" y1="39.4492" x2="-43.556" y2="39.4492" gradientTransform="matrix(0.0783 -0.9969 0.9969 0.0783 3.100932e-004 1.582503e-004)">
		<stop  offset="0" style="stop-color:#1B3545;stop-opacity:0"/>
		<stop  offset="0.0039" style="stop-color:#1C3646;stop-opacity:0.0039"/>
		<stop  offset="0.1333" style="stop-color:#4B636E;stop-opacity:0.2667"/>
		<stop  offset="0.2627" style="stop-color:#738990;stop-opacity:0.4902"/>
		<stop  offset="0.4" style="stop-color:#94A8AC;stop-opacity:0.6745"/>
		<stop  offset="0.5373" style="stop-color:#AEC0C2;stop-opacity:0.8157"/>
		<stop  offset="0.6784" style="stop-color:#C0D1D2;stop-opacity:0.9176"/>
		<stop  offset="0.8314" style="stop-color:#CADCDB;stop-opacity:0.9804"/>
		<stop  offset="1" style="stop-color:#CEDFDE"/>
	</linearGradient>
	<path style="fill-rule:evenodd;clip-rule:evenodd;fill:url(#SVGID_18_);" d="M32.7,45.9l1-1.4c0.3,0.033,0.767,0.233,1.4,0.6
		c0.867,0.467,1.733,1.117,2.6,1.95c0.9,0.867,1.333,1.467,1.3,1.8c-0.033,0.367-0.233,0.317-0.6-0.149
		c-0.267-0.334-0.467-0.4-0.6-0.2c-0.1,0.167-0.1,0.566,0,1.2c0.1,0.566,0.017,0.75-0.25,0.55c-0.2-0.134-0.4-0.366-0.6-0.7
		c-0.267-0.434-0.434,0.117-0.5,1.65c-0.1,0.899-0.667,0.166-1.7-2.2c-0.3-0.7-0.733-1.434-1.3-2.2L32.7,45.9z"/>
	<path style="fill-rule:evenodd;clip-rule:evenodd;fill:#59467B;" d="M9.05,26.15l2.6-2.45l0.45,0.6
		c0.233,0.467,0.167,0.934-0.2,1.4c-0.533,0.633-1.167,0.9-1.9,0.8L9.05,26.15z"/>
	<path style="fill-rule:evenodd;clip-rule:evenodd;fill:#59467B;" d="M18.85,25.9c0,0.733-0.283,1.35-0.85,1.85
		c-0.567,0.533-1.233,0.8-2,0.8c-0.8,0-1.467-0.267-2-0.8c-0.567-0.5-0.85-1.117-0.85-1.85c0-0.767,0.283-1.4,0.85-1.9
		c0.533-0.533,1.2-0.8,2-0.8c0.767,0,1.433,0.267,2,0.8S18.85,25.167,18.85,25.9z"/>
	<path style="fill-rule:evenodd;clip-rule:evenodd;fill:#59467B;" d="M20.15,22.85c0.4,0.233,1.267,1.1,2.6,2.6
		c-0.6,0.466-1.267,0.383-2-0.25c-0.467-0.367-0.7-0.867-0.7-1.5L20.15,22.85z"/>
	<path style="fill-rule:evenodd;clip-rule:evenodd;fill:#59467B;" d="M56.8,6.7c0,0.966-0.383,1.816-1.149,2.55
		c-0.767,0.7-1.684,1.05-2.75,1.05c-1.067,0-1.983-0.35-2.75-1.05C49.384,8.517,49,7.667,49,6.7c0-1,0.384-1.85,1.15-2.55
		c0.767-0.7,1.683-1.05,2.75-1.05c1.066,0,1.983,0.35,2.75,1.05C56.417,4.85,56.8,5.7,56.8,6.7z"/>
	<path style="fill-rule:evenodd;clip-rule:evenodd;fill:#59467B;" d="M62.8,7.85c0,0.633-0.233,1.167-0.7,1.6
		c-0.5,0.433-1.083,0.65-1.75,0.65c-0.699,0-1.283-0.217-1.75-0.65c-0.5-0.434-0.75-0.967-0.75-1.6s0.25-1.167,0.75-1.6
		c0.467-0.467,1.051-0.7,1.75-0.7c0.667,0,1.25,0.233,1.75,0.7C62.566,6.683,62.8,7.217,62.8,7.85z"/>
	<path style="fill-rule:evenodd;clip-rule:evenodd;fill:#59467B;" d="M44.45,5.1c1-0.767,2.399-1.6,4.2-2.5
		c-0.334,1.267-1.134,2.066-2.4,2.4L44.45,5.1z"/>
	<path style="fill-rule:evenodd;clip-rule:evenodd;fill:#635183;" d="M62.45,3.05c1.1,0.867,1.899,1.733,2.399,2.6
		c-1.199-0.1-1.966-0.566-2.3-1.4L62.45,3.05z"/>
</g>
</svg>
