<?xml version="1.0" encoding="iso-8859-1"?>
<!-- Generator: Adobe Illustrator 15.1.0, SVG Export Plug-In . SVG Version: 6.00 Build 0)  -->
<!DOCTYPE svg PUBLIC "-//W3C//DTD SVG 1.1//EN" "http://www.w3.org/Graphics/SVG/1.1/DTD/svg11.dtd">
<svg version="1.1" id="Layer_3" xmlns="http://www.w3.org/2000/svg" xmlns:xlink="http://www.w3.org/1999/xlink" x="0px" y="0px"
	 width="21.15px" height="48.6px" viewBox="0 0 21.15 48.6" style="enable-background:new 0 0 21.15 48.6;" xml:space="preserve">
<symbol  id="flash0.ai_x2F_Layer_3_x2F__x3C_Path_x3E_" viewBox="0 -4.25 5.85 4.263">
	<g id="Layer_1_5_">
		<path style="fill-rule:evenodd;clip-rule:evenodd;fill:#A79CC9;" d="M1.7-0.55C2.967,0.217,4.333,0.2,5.8-0.6l0.05-0.6
			c0-0.833-0.3-1.55-0.9-2.15c-0.6-0.6-1.333-0.9-2.2-0.9C1.483-4.25,0.567-3.7,0-2.6C0.267-1.8,0.833-1.117,1.7-0.55z"/>
	</g>
</symbol>
<symbol  id="flash0.ai_x2F_Layer_3_x2F__x3C_Path_x3E__x5F_1" viewBox="0 -2.85 2.9 2.85">
	<g id="Layer_1_4_">
		<path style="fill-rule:evenodd;clip-rule:evenodd;fill:#A79CC9;" d="M2.9-1.4c0-0.4-0.133-0.75-0.4-1.05
			c-0.3-0.267-0.65-0.4-1.05-0.4c-0.4,0-0.733,0.133-1,0.4C0.15-2.15,0-1.8,0-1.4c0,0.367,0.15,0.7,0.45,1
			c0.267,0.267,0.6,0.4,1,0.4C1.85,0,2.2-0.133,2.5-0.4C2.767-0.7,2.9-1.033,2.9-1.4z"/>
	</g>
</symbol>
<symbol  id="flash0.ai_x2F_Layer_3_x2F__x3C_Path_x3E__x5F_2" viewBox="0 -7.65 7.7 7.65">
	<g id="Layer_1_3_">
		<path style="fill-rule:evenodd;clip-rule:evenodd;fill:#A79CC9;" d="M7.7-3.85c0-1.033-0.383-1.933-1.15-2.7
			c-0.733-0.733-1.633-1.1-2.7-1.1c-1.067,0-1.967,0.367-2.7,1.1C0.383-5.783,0-4.883,0-3.85s0.383,1.934,1.15,2.7S2.817,0,3.85,0
			c1.066,0,1.967-0.383,2.7-1.15C7.317-1.917,7.7-2.817,7.7-3.85z"/>
	</g>
</symbol>
<symbol  id="flash0.ai_x2F_Layer_3_x2F__x3C_Path_x3E__x5F_3" viewBox="0 -9.1 7.5 9.1">
	<g id="Layer_1_2_">
		<path style="fill-rule:evenodd;clip-rule:evenodd;fill:#A79CC9;" d="M5.35-4.1c0.7-1,1.15-1.683,1.35-2.05
			C7.133-6.917,7.4-7.633,7.5-8.3C6.7-8.833,5.8-9.1,4.8-9.1c-1.333,0-2.466,0.467-3.4,1.4C0.467-6.767,0-5.633,0-4.3
			c0,0.933,0.25,1.783,0.75,2.55S1.9-0.4,2.7,0C3.067-0.833,3.95-2.2,5.35-4.1z"/>
	</g>
</symbol>
<g>
	<path style="fill-rule:evenodd;clip-rule:evenodd;fill:#EFEDE0;" d="M9.9,22.75c-0.4,0.933-0.667,1.533-0.8,1.8
		c-0.467,0.834-0.35,0.1,0.35-2.2C9.617,21.783,9.7,20.9,9.7,19.7l2.55,0.05l1.3,4.55c0.134,0.667,0.05,0.767-0.25,0.3
		c-0.267-0.434-0.467-0.883-0.6-1.35c-0.134-0.433-0.3-0.65-0.5-0.65c-0.233,0-0.367,0.316-0.4,0.95
		c-0.066,1.133-0.267,0.784-0.6-1.05c-0.033-0.367-0.117-0.433-0.25-0.2c-0.101,0.2-0.283,0.684-0.55,1.45
		c-0.2,0.567-0.301,0.6-0.301,0.1c0.067-0.733,0.101-1.233,0.101-1.5C10.233,22.05,10.134,22.183,9.9,22.75z"/>
	
		<linearGradient id="SVGID_1_" gradientUnits="userSpaceOnUse" x1="23.2041" y1="-3.8652" x2="57.238" y2="-3.8652" gradientTransform="matrix(0.2446 0.9696 -0.9696 0.2446 1.380146e-004 7.683039e-005)">
		<stop  offset="0" style="stop-color:#EFEDE0"/>
		<stop  offset="0.1137" style="stop-color:#E8E7DB"/>
		<stop  offset="0.2706" style="stop-color:#D6D5CB"/>
		<stop  offset="0.4588" style="stop-color:#B8B8B2"/>
		<stop  offset="0.6627" style="stop-color:#8E9090"/>
		<stop  offset="0.8863" style="stop-color:#595D63"/>
		<stop  offset="1" style="stop-color:#3A404A"/>
	</linearGradient>
	<path style="fill-rule:evenodd;clip-rule:evenodd;fill:url(#SVGID_1_);" d="M9.5,19.45l1.95-0.2c0.633,1.867,1.05,3.233,1.25,4.1
		c0.166,0.967,0.316,2.567,0.45,4.8c0.1,2.066,0.649,3.216,1.649,3.449c0.667,0.2,1.15,0.534,1.45,1
		c0.366,0.601,0.65,1.634,0.85,3.101c0.067,0.733-0.033,2.1-0.3,4.1c-0.033,0.4-0.116,0.983-0.25,1.75l-0.05-1.1l-0.55,1.05
		c-0.2,0.434-0.533,1.05-1,1.85c-0.134,0.5-0.2,1.267-0.2,2.301c-0.233-0.7-0.316-1.517-0.25-2.45c-0.167,0.366-0.267,0.733-0.3,1.1
		c-0.134,0.634-0.167,1.351-0.101,2.15c0.034,0.5,0.134,1.217,0.301,2.149L14,47.65c-0.434-1.367-0.55-2.75-0.35-4.15
		c-0.301,0.533-0.417,1.233-0.351,2.1c-0.066-0.333-0.066-0.767,0-1.3c0.066-0.566,0.101-1,0.101-1.3
		c-1.334-0.167-2.417-1.116-3.25-2.85C9.55,38.917,9.133,37.434,8.9,35.7c-0.2-1.434-0.066-3.384,0.4-5.851
		c0.5-2.933,0.767-4.683,0.8-5.25C10.167,22.567,9.967,20.85,9.5,19.45z"/>
	<g>
		
			<radialGradient id="SVGID_2_" cx="10.8496" cy="2.5" r="20.575" gradientTransform="matrix(1 0 0 -1 0 5)" gradientUnits="userSpaceOnUse">
			<stop  offset="0" style="stop-color:#6E5CAA"/>
			<stop  offset="0.1529" style="stop-color:#6A58A7"/>
			<stop  offset="0.3137" style="stop-color:#5D4D9F"/>
			<stop  offset="0.4745" style="stop-color:#493B91"/>
			<stop  offset="0.6275" style="stop-color:#2E2480"/>
			<stop  offset="1" style="stop-color:#244A85"/>
		</radialGradient>
		<path style="fill-rule:evenodd;clip-rule:evenodd;fill:url(#SVGID_2_);" d="M18.05,10.1c0.934,1.267,1.55,2.183,1.851,2.75
			c0.566,1.066,0.866,2.033,0.899,2.9c0.066,1.033-0.333,1.967-1.2,2.8c-1.733,1.833-4.583,2.75-8.55,2.75
			c-0.467,0-1.133-0.033-2-0.1c-4.433-0.367-7.2-1.65-8.3-3.85c-0.8-1.533-0.583-3.233,0.65-5.1C3.367,9.083,4.65,6.633,5.25,4.9
			c0.9-2.667,2.167-4.15,3.8-4.45l1-0.15c1.267,0,2.334,0.534,3.2,1.6c0.5,0.6,1.2,1.817,2.1,3.65L16.3,7.5
			C16.533,7.967,17.116,8.833,18.05,10.1z"/>
		<g>
			<path style="fill-rule:evenodd;clip-rule:evenodd;fill:#237D90;" d="M18.7,11.55c-1.767-2.5-2.667-3.8-2.7-3.9
				c-1.033-2.333-1.85-3.933-2.45-4.8c-0.934-1.467-2.1-2.2-3.5-2.2L9.1,0.75c-1.467,0.267-2.65,1.7-3.55,4.3
				C4.95,6.783,3.667,9.233,1.7,12.4c-1.467,2.3-1.45,4.25,0.05,5.85c1.4,1.467,3.833,2.35,7.3,2.65l2,0.05
				c2.967,0,5.334-0.55,7.101-1.65c1.633-1,2.416-2.183,2.35-3.55C20.434,14.617,19.833,13.217,18.7,11.55z M13.5,1.65
				c0.6,0.7,1.316,1.95,2.15,3.75L16.6,7.35c0.2,0.433,0.767,1.283,1.7,2.55c0.9,1.267,1.533,2.217,1.9,2.85
				c0.6,1.067,0.916,2.05,0.95,2.95c0.066,1.1-0.367,2.133-1.301,3.1c-1.8,1.9-4.733,2.85-8.8,2.85L9,21.55
				c-4.567-0.367-7.417-1.716-8.55-4.05c-0.8-1.633-0.583-3.45,0.65-5.45C3,9.15,4.283,6.733,4.95,4.8c0.966-2.833,2.3-4.4,4-4.7
				l1.1-0.1C11.417,0,12.566,0.55,13.5,1.65z"/>
		</g>
	</g>
	<path style="fill-rule:evenodd;clip-rule:evenodd;fill:#EFEDE0;" d="M9.6,29.325c-0.32,1.591-0.37,3.183-0.15,4.774
		c0.133,1,0.316,2.051,0.55,3.15c-0.033,0.6-0.15,0.733-0.35,0.4C9.45,37.316,9.233,36.616,9,35.55
		c-0.233-1.133-0.133-2.783,0.3-4.95L9.6,29.325z"/>
	<path style="fill-rule:evenodd;clip-rule:evenodd;fill:#EFEDE0;" d="M10.75,22.3c0.333,0.934,0.467,2.167,0.4,3.7
		c0,0.8-0.034,1.833-0.101,3.1c0.066,0.834,0.017,1.534-0.149,2.101c-0.2,0.6-0.384,0.6-0.551,0c-0.166-0.533-0.199-1.15-0.1-1.851
		c0.033-0.333,0.167-1.116,0.4-2.35C10.884,25.934,10.917,24.367,10.75,22.3z"/>
	<path style="fill-rule:evenodd;clip-rule:evenodd;fill:#EFEDE0;" d="M11.55,23.6c0.233-0.567,0.384-0.267,0.45,0.9
		c0.066,1.134,0.017,1.866-0.15,2.2c-0.166,0.3-0.283-0.066-0.35-1.101C11.4,24.6,11.417,23.933,11.55,23.6z"/>
	<path style="fill-rule:evenodd;clip-rule:evenodd;fill:#EFEDE0;" d="M9.45,31.3c0.133-0.533,0.267-0.5,0.4,0.101
		c0.167,0.6,0.183,1.133,0.05,1.6c-0.1,0.4-0.217,0.3-0.35-0.3C9.417,32.1,9.383,31.634,9.45,31.3z"/>
	<path style="fill-rule:evenodd;clip-rule:evenodd;fill:#EFEDE0;" d="M11.55,30.9l0.601,2c0.166,0.5,0.216,0.899,0.149,1.199
		c-0.066,0.301-0.233,0.233-0.5-0.199c-0.2-0.367-0.3-0.967-0.3-1.801L11.55,30.9z"/>
	<path style="fill-rule:evenodd;clip-rule:evenodd;fill:#EFEDE0;" d="M9.9,39.1c-0.033-0.366,0.2-0.166,0.7,0.601
		c0.467,0.733,0.65,1.217,0.551,1.45c-0.067,0.233-0.301,0.017-0.7-0.65C10.083,39.833,9.9,39.366,9.9,39.1z"/>
	
		<use xlink:href="#flash0.ai_x2F_Layer_3_x2F__x3C_Path_x3E__x5F_3"  width="7.5" height="9.1" y="-9.1" transform="matrix(1 0 0 -1 12.9004 6.8501)" style="overflow:visible;opacity:0.25;enable-background:new    ;"/>
	
		<use xlink:href="#flash0.ai_x2F_Layer_3_x2F__x3C_Path_x3E__x5F_2"  width="7.7" height="7.65" y="-7.65" transform="matrix(1 0 0 -1 3.5498 11.25)" style="overflow:visible;opacity:0.25;enable-background:new    ;"/>
	
		<use xlink:href="#flash0.ai_x2F_Layer_3_x2F__x3C_Path_x3E__x5F_1"  width="2.9" height="2.85" y="-2.85" transform="matrix(1 0 0 -1 8.8501 7.5)" style="overflow:visible;opacity:0.25;enable-background:new    ;"/>
	
		<use xlink:href="#flash0.ai_x2F_Layer_3_x2F__x3C_Path_x3E_"  width="5.85" height="4.263" y="-4.25" transform="matrix(1 0 0 -1 6.3501 0.6499)" style="overflow:visible;opacity:0.25;enable-background:new    ;"/>
</g>
</svg>
