<?xml version="1.0" encoding="iso-8859-1"?>
<!-- Generator: Adobe Illustrator 15.1.0, SVG Export Plug-In . SVG Version: 6.00 Build 0)  -->
<!DOCTYPE svg PUBLIC "-//W3C//DTD SVG 1.1//EN" "http://www.w3.org/Graphics/SVG/1.1/DTD/svg11.dtd">
<svg version="1.1" id="flash0.ai" xmlns="http://www.w3.org/2000/svg" xmlns:xlink="http://www.w3.org/1999/xlink" x="0px" y="0px"
	 width="41.2px" height="34px" viewBox="0 0 41.2 34" style="enable-background:new 0 0 41.2 34;" xml:space="preserve">
<symbol  id="flash0.ai_x5F_32_x2F_Layer_148_x2F__x3C_Path_x3E__x5F_3" viewBox="-0.009 -12.65 41.216 12.65">
	<g id="Layer_1_2_">
		<path style="fill-rule:evenodd;clip-rule:evenodd;" d="M41.15-4.8c-0.233-0.2-0.433-0.534-0.6-1
			c-0.066-0.233-0.117-0.434-0.15-0.6l-2.35-1.85c-1.733-0.367-2.966-0.733-3.7-1.1l-1.8-1.1c-0.6-0.733-1.15-1.216-1.65-1.45
			c-0.3-0.133-0.767-0.217-1.4-0.25c-0.933-0.033-1.8-0.067-2.6-0.1c-3.2-0.267-5.333-0.4-6.4-0.4c-1.833,0-3.183,0.066-4.05,0.2
			c-0.9,0.133-2,0.617-3.3,1.45c-0.167,0.133-0.717,0.2-1.65,0.2c-1,0.033-1.667,0.15-2,0.35c-2.567,1.833-4.2,2.867-4.9,3.1
			c-1.467,0.633-2.7,1.133-3.7,1.5C0.233-5.583-0.067-5.333,0-5.1c0.1,0.2,0.4,0.3,0.9,0.3c0.333,0,0.883,0.233,1.65,0.7
			c0.967,0.6,1.7,0.983,2.2,1.15c3.667,0.867,6.783,1.534,9.35,2C17.3-0.317,20.333,0,23.2,0c1.533,0,4.15-0.35,7.85-1.05
			c3.233-0.633,5.2-1.083,5.9-1.35C40.117-3.633,41.517-4.433,41.15-4.8z"/>
	</g>
</symbol>
<g>
	
		<use xlink:href="#flash0.ai_x5F_32_x2F_Layer_148_x2F__x3C_Path_x3E__x5F_3"  width="41.216" height="12.65" x="-0.009" y="-12.65" transform="matrix(1 0 0 -1 0 21.3496)" style="overflow:visible;opacity:0.1406;enable-background:new    ;"/>
	
		<radialGradient id="SVGID_1_" cx="-35.1665" cy="22.4902" r="33.4511" gradientTransform="matrix(0.0082 -1 -1 -0.0082 44.979 0.3698)" gradientUnits="userSpaceOnUse">
		<stop  offset="0.0235" style="stop-color:#74DEBE"/>
		<stop  offset="0.2353" style="stop-color:#78E0C0"/>
		<stop  offset="0.451" style="stop-color:#84E5C8"/>
		<stop  offset="0.6627" style="stop-color:#99EDD3"/>
		<stop  offset="0.8784" style="stop-color:#B5F9E4"/>
		<stop  offset="0.9765" style="stop-color:#C4FFED"/>
	</radialGradient>
	<path style="fill-rule:evenodd;clip-rule:evenodd;fill:url(#SVGID_1_);" d="M36.2,20.55l2.45,4.65l-7.101,4.1
		c-1.1,1.066-2.05,1.867-2.85,2.4c-1.467,1.033-3.45,1.434-5.95,1.2c-4-0.367-6.833-0.834-8.5-1.4c-0.1-0.267-0.267-0.533-0.5-0.8
		c-0.5-0.566-1.15-0.851-1.95-0.851c-1.267,0-3.733-1.083-7.4-3.25L9.35,19.2H9.9c0.434-0.167,0.883-0.717,1.35-1.65
		c1.1-2.2,1.65-4.216,1.65-6.05c0-0.567,0.133-1.6,0.4-3.1l0.4-2.1C14.8,5,15.817,3.9,16.75,3c0.9-0.9,2.083-1.9,3.55-3L22,0.6
		c1.467,0.467,3,0.816,4.6,1.05c1.601,0.233,3.084,0.3,4.45,0.2c0.7-0.033,1.233-0.1,1.601-0.2c-0.134,0.833-0.233,1.833-0.301,3
		c-0.166,2.367-0.066,4.467,0.301,6.3C33.184,13.883,34.366,17.083,36.2,20.55z"/>
	<path style="fill-rule:evenodd;clip-rule:evenodd;fill:#BCFFE9;" d="M32.65,1.65c-0.134,0.833-0.233,1.833-0.301,3
		c-0.166,2.367-0.066,4.467,0.301,6.3c-1.5,0.8-2.5,2.683-3,5.65c-0.233,1.466-0.334,2.867-0.301,4.2c-0.3-0.033-0.633-0.2-1-0.5
		c-0.733-0.566-1.216-1.483-1.449-2.75C26.6,15.917,26,14.067,25.1,12c-0.966-2.167-1.833-3.517-2.6-4.05
		c-0.7-0.467-2.134-0.65-4.3-0.55l-3.1,0.25l-0.55,2.5c-0.233,0.867-0.85,1.917-1.85,3.15c0.133-0.933,0.2-1.533,0.2-1.8
		c0-0.567,0.133-1.6,0.4-3.1l0.4-2.1C14.8,5,15.817,3.9,16.75,3c0.9-0.9,2.083-1.9,3.55-3L22,0.6c1.467,0.467,3,0.816,4.6,1.05
		c1.601,0.233,3.084,0.3,4.45,0.2C31.75,1.817,32.283,1.75,32.65,1.65z"/>
	<path style="fill-rule:evenodd;clip-rule:evenodd;fill:#6EC4AA;" d="M26.7,23.15c0.166-1.167,0.416-2.134,0.75-2.9
		c0.533-1.267-0.117-5.467-1.95-12.6L28,6c1.833-1.167,3.2-1.983,4.1-2.45l0.301-0.2c-0.233,3-0.15,5.533,0.25,7.6
		c0.533,2.933,1.716,6.133,3.55,9.6l2.45,4.65l-7.101,4.1c-1.1,1.066-2.05,1.867-2.85,2.4c-1.467,1.033-3.45,1.434-5.95,1.2
		c-4-0.367-6.833-0.834-8.5-1.4c-0.1-0.267-0.267-0.533-0.5-0.8c-0.5-0.566-1.15-0.851-1.95-0.851c-1.267,0-3.733-1.083-7.4-3.25
		c1.934,0.567,3.65,0.317,5.15-0.75c0.767-0.533,1.333-1.116,1.7-1.75l0.8,0.7c0.567,0.667,1.034,1.45,1.4,2.351
		c0.333,0.933,0.65,1.433,0.95,1.5c0.233,0.066,0.833,0.1,1.8,0.1c1.333,0.2,2.033,0.3,2.1,0.3c0.467,0.033,0.95-0.066,1.45-0.3
		c0.333-0.134,1.017-0.4,2.05-0.8c0.967-0.334,1.65-0.601,2.05-0.8c1.467-0.733,2.301-1.384,2.5-1.95
		C26.35,25.167,26.467,24.483,26.7,23.15z"/>
</g>
</svg>
