<?xml version="1.0" encoding="iso-8859-1"?>
<!-- Generator: Adobe Illustrator 15.1.0, SVG Export Plug-In . SVG Version: 6.00 Build 0)  -->
<!DOCTYPE svg PUBLIC "-//W3C//DTD SVG 1.1//EN" "http://www.w3.org/Graphics/SVG/1.1/DTD/svg11.dtd">
<svg version="1.1" id="flash0.ai" xmlns="http://www.w3.org/2000/svg" xmlns:xlink="http://www.w3.org/1999/xlink" x="0px" y="0px"
	 width="106.5px" height="45.3px" viewBox="0 0 106.5 45.3" style="enable-background:new 0 0 106.5 45.3;" xml:space="preserve">
<symbol  id="flash0.ai_x5F_8_x2F_Layer_64_x2F__x3C_Path_x3E__x5F_14" viewBox="0 -19.772 106.5 19.75">
	<g id="Layer_1_2_">
		<path style="fill-rule:evenodd;clip-rule:evenodd;" d="M101.65-9.15c1.7-0.533,2.4-0.867,2.1-1c-0.5-0.233-0.7-0.4-0.6-0.5
			c0.567-0.434,1.684-1.1,3.35-2l-0.65-0.15c-0.4-0.1-0.8-0.434-1.2-1c-0.133-0.3-0.233-0.483-0.3-0.55
			c-0.133-0.1-0.417-0.15-0.85-0.15s-0.883-0.067-1.35-0.2c-0.967-0.367-2.017-0.733-3.15-1.1l-4.65-1.5
			c-1.7-0.534-3.383-0.867-5.05-1c-1.2-0.1-1.917-0.267-2.15-0.5c-0.367-0.4-1.05-0.6-2.05-0.6c-0.7,0-2.35,0.133-4.95,0.4
			c-1.733,0.2-2.867,0.483-3.4,0.85c-0.433,0.333-0.9,0.5-1.4,0.5c-1.467,0-3.083-0.05-4.85-0.15c-1.167-0.067-1.867-0.133-2.1-0.2
			c-0.2-0.167-0.5-0.333-0.9-0.5c-0.433-0.167-1.183-0.333-2.25-0.5c-1.267-0.2-2.183-0.367-2.75-0.5
			c-0.867-0.233-1.717-0.317-2.55-0.25c-0.633,0.067-1.833,0.317-3.6,0.75c-1.4,0.433-2.333,0.667-2.8,0.7
			c-0.4,0.066-1.867,0.066-4.4,0c-2-0.067-3.117-0.067-3.35,0c-0.2,0.033-0.75,0.033-1.65,0c-1.3-0.1-2.066-0.133-2.3-0.1
			c-0.5,0.033-1.283,0.117-2.35,0.25c-1.167,0.133-2.4,0.533-3.7,1.2C34.567-16.317,33.75-16,33.35-16c-0.467,0-1.4,0.05-2.8,0.15
			c-1.433,0.133-2.5,0.2-3.2,0.2c-1.2,0-1.883-0.017-2.05-0.05c-0.566-0.033-1.716-0.233-3.45-0.6c-1.5-0.333-3.383,0.083-5.65,1.25
			c-2.4,1.267-3.684,1.9-3.85,1.9c-0.633,0-1.35,0.2-2.15,0.6C9.933-12.417,9.25-12,8.15-11.3c-0.333,0.233-0.816,0.833-1.45,1.8
			C6.067-8.5,5.283-7.667,4.35-7l-0.5,0.7L0-5.5c0.667,0.467,1.383,0.75,2.15,0.85c0.533,0.066,0.533,0.367,0,0.9
			c-0.5,0.533-1.05,0.9-1.65,1.1c-0.333,0.1,0.083,0.233,1.25,0.4c1.667,0.233,2.867,0.483,3.6,0.75l3.3,1.35
			c0.7,0.267,1.2,0.117,1.5-0.45c0.133-0.267,0.2-0.566,0.2-0.9l12-0.3c14.233-0.3,24.233-0.583,30-0.85
			c6.167-0.3,14.533-1.05,25.1-2.25c9.233-1.033,14.633-1.733,16.2-2.1C96.417-7.633,99.083-8.35,101.65-9.15z"/>
	</g>
</symbol>
<use xlink:href="#flash0.ai_x5F_8_x2F_Layer_64_x2F__x3C_Path_x3E__x5F_14"  width="106.5" height="19.75" y="-19.772" transform="matrix(1 0 0 -1 0 25.5498)" style="overflow:visible;opacity:0.1406;enable-background:new    ;"/>
<path style="fill-rule:evenodd;clip-rule:evenodd;fill:#B0B1B3;" d="M82.1,40.7c-5.133-0.3-9.483-0.334-13.05-0.101
	c-4.8,0.334-7.717,0.5-8.75,0.5c-4.033,0.2-6.883,0.334-8.55,0.4c-2.867,0.134-6.033-0.134-9.5-0.8c-2.833-0.533-7.167-0.867-13-1
	c-5-0.134-8.2-0.483-9.6-1.05l-9.45-3.7L4.85,28.8c3.833-4.233,6.417-7.017,7.75-8.35c1.267-1.267,2.517-2.317,3.75-3.15
	c0.333-0.233,1.717-0.816,4.15-1.75c2.033-0.8,3.933-2,5.7-3.6c1.533-1.367,3.05-3.284,4.55-5.75c1.5-1.867,3.817-2.967,6.95-3.3
	C42.9,2.367,50.3,1.4,59.9,0L63.6,1.8c2.601,1.3,4.25,2.217,4.95,2.75c3.334,2.534,6.066,4.717,8.2,6.55
	c0.4,0.367,1.884,1.367,4.45,3c1.733,1.133,3.399,2.75,5,4.85c2.733,3.533,7.95,9.55,15.649,18.05c-1.1,0.767-2.75,1.483-4.949,2.15
	C92.5,40.55,87.566,41.066,82.1,40.7z"/>
<path style="fill-rule:evenodd;clip-rule:evenodd;fill:#C3C4C7;" d="M63.6,1.8c2.601,1.3,4.25,2.217,4.95,2.75
	c3.334,2.534,6.066,4.717,8.2,6.55c-0.134,0.5-1.816,1.2-5.05,2.1c-3.101,0.867-5.217,1.3-6.351,1.3c-0.866,0-1.616-0.067-2.25-0.2
	c-1-0.267-2-0.533-3-0.8c-1.1-0.267-2.466-0.467-4.1-0.6c-2.333-0.233-4.217-0.45-5.65-0.65c-2-0.3-3.533-0.8-4.6-1.5
	c-1.533-0.967-2.333-1.467-2.4-1.5c-0.8-0.3-1.684-0.8-2.65-1.5c-1.367-0.967-2.067-1.467-2.1-1.5c-0.633-0.367-1.9-0.3-3.8,0.2
	c-1.9,0.5-3.55,1.183-4.95,2.05c-1.133,0.733-1.817,1.667-2.05,2.8c-0.1,0.567-0.083,1.05,0.05,1.45l2,2.25l4.25,3
	c-2.333,0-4.833,0.167-7.5,0.5c-2.4,0.3-5.233,0.217-8.5-0.25c-1.633-0.2-2.533-0.3-2.7-0.3l0.95-0.65
	c0.333-0.233,1.717-0.816,4.15-1.75c2.033-0.8,3.933-2,5.7-3.6c1.533-1.367,3.05-3.284,4.55-5.75c1.5-1.867,3.817-2.967,6.95-3.3
	C42.9,2.367,50.3,1.4,59.9,0L63.6,1.8z"/>
<path style="fill-rule:evenodd;clip-rule:evenodd;fill:#C3C4C7;" d="M55.8,23.4c0.733,0.267,1.184,0.533,1.351,0.8l1.199,1.649
	L56.65,25.5H53.85c-0.366,0-0.95-0.1-1.75-0.3C51.4,25,50.7,24.934,50,25c-1.333,0.233-2.783,0.4-4.35,0.5
	c-0.767,0.066-1.117,0.083-1.05,0.05c0.167-0.133-0.033-0.25-0.6-0.35c-1.1-0.233-2.767-0.351-5-0.351
	c-1.467,0-3.267,0.084-5.4,0.25l-2.75,0.25l2.5-1c2.3-0.767,4.683-1.149,7.15-1.149c1.333,0,4.283-0.117,8.85-0.35
	C52.183,22.717,54.333,22.9,55.8,23.4z"/>
<path style="fill-rule:evenodd;clip-rule:evenodd;fill:#C3C4C7;" d="M6.5,28.35c0.767-0.666,1.483-1.333,2.15-2
	c0.833-0.833,1.333-1.283,1.5-1.35c0.767-0.434,2.05-0.65,3.85-0.65L25.85,27.7c-2.133,0-3.917,0.05-5.35,0.149
	c-0.2,0-1.2,0.284-3,0.851c-1.633,0.467-3.8,0.733-6.5,0.8c-2.867,0.1-4.467-0.066-4.8-0.5L6.5,28.35z"/>
<path style="fill-rule:evenodd;clip-rule:evenodd;fill:#9B9C9E;" d="M81.2,14.1c1.733,1.133,3.399,2.75,5,4.85
	c2.733,3.533,7.95,9.55,15.649,18.05c-1.1,0.767-2.75,1.483-4.949,2.15c-4.4,1.399-9.334,1.916-14.801,1.55
	c-5.133-0.3-9.483-0.334-13.05-0.101c-4.8,0.334-7.717,0.5-8.75,0.5c-4.033,0.2-6.883,0.334-8.55,0.4
	c-2.867,0.134-6.033-0.134-9.5-0.8c-2.833-0.533-7.167-0.867-13-1c-5-0.134-8.2-0.483-9.6-1.05l-9.45-3.7L6.55,30.8
	c0.567,0.4,1.5,0.967,2.8,1.7c1.133,0.667,2.85,1.184,5.15,1.55c2,0.3,3.533,0.367,4.6,0.2c0.6-0.066,1.583,0.083,2.95,0.45
	c1.467,0.2,2.9-0.2,4.3-1.2c1.033-0.733,2.117-1.667,3.25-2.8c0.767-0.767,1.6-1.334,2.5-1.7c0.833-0.333,1.717-0.816,2.65-1.45
	c0.7-0.3,1.4-0.149,2.1,0.45c0.767,0.634,1.367,1.1,1.8,1.4c0.3,0.199,0.783,0.483,1.45,0.85c0.667,0.4,1.683,0.833,3.05,1.3
	c1.434,0.467,2.5,0.7,3.2,0.7c0.5,0,1.55,0.15,3.15,0.45c1.533,0.133,2.817-0.101,3.85-0.7c1.034-0.6,1.967-1.033,2.801-1.3
	c0.566-0.167,1.633-0.483,3.199-0.95c0.434-0.134,1.733-0.366,3.9-0.7c1.066-0.166,1.6-0.6,1.6-1.3c0-0.2,0.101-1.316,0.301-3.35
	c0.166-1.5,0.149-2.55-0.051-3.15c-0.666-2.333-1.083-3.75-1.25-4.25c-0.466-0.567-0.783-1.05-0.949-1.45
	c-0.367-0.733-0.134-1.417,0.699-2.05c1.334-1,3.5-2.25,6.5-3.75c-2.333-1.5-4-2.25-5-2.25c-3.5-0.167-5.833-0.25-7-0.25
	c-0.733,0-1.583-0.25-2.55-0.75l-1.2-0.75L55.4,5.5c1.033-0.167,2.433-0.25,4.199-0.25c1.034,0,2.5,0.1,4.4,0.3
	c0.934,0.067,1.634-0.033,2.1-0.3l1.851-1.1l0.6,0.4c3.334,2.534,6.066,4.717,8.2,6.55C77.15,11.467,78.634,12.467,81.2,14.1z"/>
<path style="fill-rule:evenodd;clip-rule:evenodd;fill:#8D8D8F;" d="M82.5,18.9c1.5,0.9,2.45,1.55,2.85,1.95
	c0.434,0.433,0.667,0.833,0.7,1.2c0.033,0.233,0.017,0.667-0.05,1.3v3.2c0,0.733-0.333,1.101-1,1.101c-0.066,0-0.85-0.15-2.35-0.45
	C82.083,27.1,81.2,26.85,80,26.45c-1.2-0.367-2.15-0.617-2.85-0.75c-0.834-0.134-1.884,0.05-3.15,0.55l-1.65,0.8
	c-0.333-1.333-0.399-2.399-0.199-3.2c0.133-0.466,0.517-0.983,1.149-1.55c0.367-0.333,0.983-0.867,1.851-1.6
	c0.466-0.4,1.183-0.833,2.149-1.3c1.233-0.6,2.25-1.167,3.05-1.7L82.5,18.9z"/>
<path style="fill-rule:evenodd;clip-rule:evenodd;fill:#8D8D8F;" d="M75.65,13.55c1.333,0.767,1.733,1.367,1.199,1.8
	c-1.633,1.267-3.199,2.267-4.699,3c-0.834,0.4-1.301,0.367-1.4-0.1c0-0.7-0.033-1.167-0.1-1.4
	C70.517,16.317,72.184,15.217,75.65,13.55z"/>
<path style="fill-rule:evenodd;clip-rule:evenodd;fill:#8D8D8F;" d="M70.35,32.85c-0.333,0.467-0.833,0.867-1.5,1.2
	c-0.399,0.2-1.083,0.45-2.05,0.75l-1.3,0.4l0.85-2.15c0.334-0.899,0.217-1.816-0.35-2.75l-1-1.1l2,0.75
	c1.4,0.533,2.233,0.899,2.5,1.1C69.934,31.384,70.217,31.983,70.35,32.85z"/>
<path style="fill-rule:evenodd;clip-rule:evenodd;fill:#838485;" d="M91.1,36.25c1.834,0.167,3.917,0.25,6.25,0.25
	c1.167,0,2.65,0.167,4.45,0.5h0.05c-1.1,0.767-2.75,1.483-4.949,2.15c-4.4,1.399-9.334,1.916-14.801,1.55
	c-5.133-0.3-9.483-0.334-13.05-0.101c-4.8,0.334-7.717,0.5-8.75,0.5c-4.033,0.2-6.883,0.334-8.55,0.4
	c-2.867,0.134-6.033-0.134-9.5-0.8c-2.833-0.533-7.167-0.867-13-1c-5-0.134-8.2-0.483-9.6-1.05l-6.5-2.551l7.95,0.4
	c2,0.1,3.333,0.134,4,0.1c1.267-0.066,2.35-0.1,3.25-0.1c1.933,0,3.583-0.2,4.95-0.6c1.067-0.301,1.833-0.684,2.3-1.15
	c0.5-0.5,1.333-1.083,2.5-1.75l0.7,1.15c0.667,0.966,1.517,1.916,2.55,2.85c1.133,1.033,2.4,1.733,3.8,2.1
	c1,0.267,2.317,0.4,3.95,0.4c1.3,0,3.6-0.15,6.9-0.45c3.033-0.267,5.566-0.533,7.6-0.8c0.567-0.066,1.7-0.417,3.4-1.05
	c0.934-0.367,2.384-0.351,4.35,0.05c3.334,0.667,6.084,1,8.25,1c0.334,0,1.067,0.1,2.2,0.3c1.167,0.101,2.267,0,3.3-0.3
	c0.4-0.134,1.367-0.583,2.9-1.35C89,36.366,90.033,36.15,91.1,36.25z"/>
<linearGradient id="SVGID_1_" gradientUnits="userSpaceOnUse" x1="5.9897" y1="-41.1338" x2="12.2831" y2="-41.1338" gradientTransform="matrix(-0.1474 0.9891 -0.9891 -0.1474 -6.053448e-004 -2.409518e-005)">
	<stop  offset="0" style="stop-color:#9BA1A6"/>
	<stop  offset="1" style="stop-color:#B7B8B8"/>
</linearGradient>
<path style="fill-rule:evenodd;clip-rule:evenodd;fill:url(#SVGID_1_);" d="M41.65,15.95C41.417,16.817,41,17.5,40.4,18
	c-0.633,0.5-1.267,0.667-1.9,0.5c-0.667-0.167-1.15-0.617-1.45-1.35c-0.3-0.733-0.333-1.533-0.1-2.4
	c0.233-0.867,0.65-1.55,1.25-2.05c0.633-0.5,1.267-0.667,1.9-0.5c0.667,0.167,1.15,0.617,1.45,1.35
	C41.85,14.283,41.883,15.083,41.65,15.95z"/>
<linearGradient id="SVGID_2_" gradientUnits="userSpaceOnUse" x1="13.6753" y1="-49.6685" x2="18.6793" y2="-49.6685" gradientTransform="matrix(-0.04 0.9992 -0.9992 -0.04 -3.849156e-004 0)">
	<stop  offset="0" style="stop-color:#9BA1A6"/>
	<stop  offset="1" style="stop-color:#B7B8B8"/>
</linearGradient>
<path style="fill-rule:evenodd;clip-rule:evenodd;fill:url(#SVGID_2_);" d="M50.9,18.6c-0.1,0.733-0.383,1.333-0.85,1.8
	c-0.433,0.467-0.917,0.667-1.45,0.6s-0.95-0.383-1.25-0.95c-0.3-0.6-0.4-1.267-0.3-2c0.1-0.733,0.383-1.316,0.85-1.75
	c0.434-0.466,0.917-0.667,1.45-0.6c0.533,0.066,0.95,0.383,1.25,0.95C50.9,17.217,51,17.867,50.9,18.6z"/>
<linearGradient id="SVGID_3_" gradientUnits="userSpaceOnUse" x1="28.0469" y1="-58.873" x2="33.0469" y2="-58.873" gradientTransform="matrix(0.1 0.995 -0.995 0.1 -1.822710e-004 -7.122010e-005)">
	<stop  offset="0" style="stop-color:#9BA1A6"/>
	<stop  offset="1" style="stop-color:#B7B8B8"/>
</linearGradient>
<path style="fill-rule:evenodd;clip-rule:evenodd;fill:url(#SVGID_3_);" d="M63.6,24.7c0,0.767-0.183,1.399-0.55,1.899
	C62.65,27.134,62.184,27.4,61.65,27.4c-0.534,0-0.983-0.267-1.351-0.801c-0.399-0.533-0.6-1.166-0.6-1.899s0.2-1.367,0.6-1.9
	c0.367-0.533,0.816-0.8,1.351-0.8c0.533,0,1,0.267,1.399,0.8C63.417,23.3,63.6,23.934,63.6,24.7z"/>
<linearGradient id="SVGID_4_" gradientUnits="userSpaceOnUse" x1="18.1196" y1="-23.7275" x2="24.5464" y2="-23.7275" gradientTransform="matrix(-0.0242 0.9997 -0.9997 -0.0242 -2.244469e-004 1.324564e-004)">
	<stop  offset="0" style="stop-color:#9BA1A6"/>
	<stop  offset="1" style="stop-color:#B7B8B8"/>
</linearGradient>
<path style="fill-rule:evenodd;clip-rule:evenodd;fill:url(#SVGID_4_);" d="M25.65,22.4c-0.066,0.734-0.383,1.333-0.95,1.8
	c-0.534,0.467-1.15,0.649-1.85,0.55c-0.667-0.066-1.217-0.4-1.65-1c-0.4-0.566-0.55-1.217-0.45-1.95
	c0.067-0.733,0.383-1.333,0.95-1.8c0.533-0.467,1.15-0.65,1.85-0.55c0.667,0.066,1.217,0.4,1.65,1
	C25.6,21.017,25.75,21.667,25.65,22.4z"/>
<linearGradient id="SVGID_5_" gradientUnits="userSpaceOnUse" x1="32.0088" y1="-46.1587" x2="36.2302" y2="-46.1587" gradientTransform="matrix(0.1007 0.9949 -0.9949 0.1007 5.219877e-005 -3.775358e-004)">
	<stop  offset="0" style="stop-color:#9BA1A6"/>
	<stop  offset="1" style="stop-color:#B7B8B8"/>
</linearGradient>
<path style="fill-rule:evenodd;clip-rule:evenodd;fill:url(#SVGID_5_);" d="M51.35,29.45c0,0.633-0.2,1.166-0.6,1.6
	c-0.367,0.434-0.833,0.65-1.4,0.65c-0.533,0-1-0.217-1.4-0.65c-0.367-0.434-0.55-0.967-0.55-1.6c0-0.634,0.184-1.167,0.55-1.601
	c0.4-0.433,0.867-0.649,1.4-0.649c0.566,0,1.033,0.217,1.4,0.649C51.15,28.283,51.35,28.816,51.35,29.45z"/>
</svg>
