<?xml version="1.0" encoding="iso-8859-1"?>
<!-- Generator: Adobe Illustrator 15.1.0, SVG Export Plug-In . SVG Version: 6.00 Build 0)  -->
<!DOCTYPE svg PUBLIC "-//W3C//DTD SVG 1.1//EN" "http://www.w3.org/Graphics/SVG/1.1/DTD/svg11.dtd">
<svg version="1.1" id="flash0.ai" xmlns="http://www.w3.org/2000/svg" xmlns:xlink="http://www.w3.org/1999/xlink" x="0px" y="0px"
	 width="50.7px" height="24.25px" viewBox="0 0 50.7 24.25" style="enable-background:new 0 0 50.7 24.25;" xml:space="preserve">
<symbol  id="flash0.ai_x5F_15_x2F_Layer_64_x2F__x3C_Path_x3E__x5F_13" viewBox="0.007 -9.925 50.682 9.869">
	<g id="Layer_1_2_">
		<path style="fill-rule:evenodd;clip-rule:evenodd;" d="M48.3-1.75c0.034,0,0.1-0.05,0.2-0.15c0.8-0.233,1.5-0.533,2.1-0.9
			c0.167-0.1,0.1-0.25-0.2-0.45c-0.5-0.233-0.883-0.433-1.15-0.6c-0.3-0.167-0.617-0.316-0.95-0.45c-0.7-0.267-1.133-0.434-1.3-0.5
			c-0.467-0.167-0.783-0.35-0.95-0.55c-0.267-0.333-0.5-0.583-0.7-0.75c-0.333-0.267-0.517-0.517-0.55-0.75
			c-0.033-0.133-0.167-0.233-0.4-0.3c-1.4-0.2-2.566-0.417-3.5-0.65c-0.767-0.267-1.333-0.45-1.7-0.55c-0.633-0.167-1.4-0.3-2.3-0.4
			c-0.1,0-1.233-0.217-3.4-0.65c-1.5-0.3-2.933-0.467-4.3-0.5c-1.333-0.033-2.15-0.033-2.45,0c-1.367,0.2-2.233,0.316-2.6,0.35
			c-1.433,0.167-2.417,0.216-2.95,0.15c-0.5-0.133-1-0.217-1.5-0.25c-1.1-0.067-1.967-0.1-2.6-0.1c-1.2-0.033-2.333,0-3.4,0.1
			c-1.067,0.133-1.75,0.25-2.05,0.35c-0.267,0.2-0.6,0.383-1,0.55C10.05-8.383,9.567-8.067,9.2-7.8C8.5-7.367,7.533-7.05,6.3-6.85
			c-1,0.133-1.716,0.483-2.15,1.05C3.783-5.3,3.1-5.05,2.1-5.05c-0.333,0-0.567,0.183-0.7,0.55S1.35-3.917,1.65-3.85
			C1.883-3.75,1.8-3.533,1.4-3.2C1.333-3.133,0.933-2.833,0.2-2.3c-0.3,0.233-0.25,0.433,0.15,0.6c0.2,0.1,0.5,0.217,0.9,0.35
			c0.367,0.233,1.5,0.383,3.4,0.45C5.283-0.867,5.733-0.767,6-0.6c0.367,0.267,0.683,0.434,0.95,0.5
			c0.633,0.133,3.066-0.033,7.3-0.5c3.267-0.3,6.533-0.417,9.8-0.35c10.367,0.133,17.284,0,20.75-0.4
			C46.733-1.583,47.9-1.717,48.3-1.75z"/>
	</g>
</symbol>
<use xlink:href="#flash0.ai_x5F_15_x2F_Layer_64_x2F__x3C_Path_x3E__x5F_13"  width="50.682" height="9.869" x="0.007" y="-9.925" transform="matrix(1 0 0 -1 0 14.3496)" style="overflow:visible;opacity:0.1406;enable-background:new    ;"/>
<path style="fill-rule:evenodd;clip-rule:evenodd;fill:#9F9FA1;" d="M43.55,19.25c-3.533,1.566-6.55,2.583-9.05,3.05
	c-2.434,0.467-4.884,0.617-7.35,0.45c-2.3-0.3-3.867-0.45-4.7-0.45c-0.367,0-1.684,0.167-3.95,0.5c-1.8,0.267-3.483,0.283-5.05,0.05
	c-1.667-0.233-4-1.366-7-3.399c-1.534-1-2.883-1.983-4.05-2.95c2.367-1.934,5.217-4.633,8.55-8.1c1.533-1.6,2.95-3.533,4.25-5.8
	c0.767-1.333,1.683-2.1,2.75-2.3c1.433-0.3,2.867-0.216,4.3,0.25C23.617,1.017,24.7,1.7,25.5,2.6c0.5,0.6,1.75,2.1,3.75,4.5
	c1.866,2.167,3.116,3.367,3.75,3.6c1,0.4,3.5,0.017,7.5-1.15l2.45,3.25c1.733,2.233,2.916,3.467,3.55,3.7l1.55,0.6
	C46.783,17.767,45.283,18.483,43.55,19.25z"/>
<path style="fill-rule:evenodd;clip-rule:evenodd;fill:#858687;" d="M40.5,9.55l0.35,0.1c0.267,0.1,0.5,0.25,0.7,0.45
	c0.167,0.167,0.334,0.383,0.5,0.65c0.2,0.4,0.417,0.75,0.65,1.05c0.3,0.367,0.467,0.567,0.5,0.6c0.033,0,0.083,0,0.149,0
	c0.067,0.033,0.517,0.683,1.351,1.95c0.3,0.467,0.6,0.817,0.899,1.051l2.9,1.75L47.95,17.6c-0.767,0.634-1.95,1.15-3.55,1.551
	c-0.601,0.133-1.233,0.383-1.9,0.75c-0.9,0.433-1.434,0.683-1.6,0.75c-1.034,0.566-2.15,1.017-3.351,1.35
	c-1.233,0.366-2.166,0.634-2.8,0.8c-1.134,0.3-2.033,0.467-2.7,0.5h-4.1c-1.9,0-3.2-0.033-3.9-0.1c-0.7-0.134-1.267-0.217-1.7-0.25
	c-1,0.033-1.85,0.05-2.55,0.05c-2.1,0.2-3.917,0.3-5.45,0.3c-1,0-2.533-0.517-4.6-1.55c-1.767-0.9-3.05-1.684-3.85-2.35l-3.5-2.9
	l2.35,1.1c0.9,0.434,1.633,0.634,2.2,0.601c0.433,0.1,0.75,0.133,0.95,0.1c0.1,0,0.283-0.017,0.55-0.05
	c0.233,0,0.483,0.134,0.75,0.4c0.133,0.166,0.333,0.416,0.6,0.75c0.233,0.233,0.467,0.383,0.7,0.449c0.133,0.034,0.5,0.084,1.1,0.15
	c0.367,0.033,0.8,0.167,1.3,0.4c0.667,0.3,1.25,0.517,1.75,0.649c0.733,0.167,1.4,0.066,2-0.3c0.467-0.267,0.95-0.783,1.45-1.55
	c0.3-0.467,0.483-1.167,0.55-2.101c0.1-1.033,0.233-1.75,0.4-2.149c0.4-1.066,0.55-2.684,0.45-4.85
	c-0.067-1.467,0.067-3.65,0.4-6.55l1.2-0.8c0.033-0.033,0.267-0.1,0.7-0.2C22.2,2.483,22.517,2.3,22.75,2
	c0.367-0.5,1.033-0.583,2-0.25l0.95,0.7c0.666,0.5,1.1,0.9,1.3,1.2c0.1,0.133,0.517,0.567,1.25,1.3c0.267,0.267,0.733,0.8,1.4,1.6
	c0.833,1,1.383,1.733,1.649,2.2c0.367,0.7,0.934,1.35,1.7,1.95c-1.267,1.233-2.116,2.017-2.55,2.35
	c-0.267,0.167-0.533,0.566-0.8,1.2c-0.4,1-0.7,1.667-0.9,2c-0.366,0.634-0.45,1.2-0.25,1.7c0.1,0.233,0.233,0.399,0.4,0.5l1.55,0.1
	c0.5,0.033,0.967,0.066,1.399,0.101c0.301,0,0.717-0.134,1.25-0.4c0.967-0.434,1.517-0.684,1.65-0.75c0.5-0.3,0.934-0.717,1.3-1.25
	c0.566-0.8,1.233-2.033,2-3.7C38.616,11.55,39.434,10.55,40.5,9.55z"/>
<path style="fill-rule:evenodd;clip-rule:evenodd;fill:#858687;" d="M12.85,15.4c0.733,0,1.117,0.233,1.15,0.699
	c0,0.434-0.233,0.817-0.7,1.15c-0.3,0.233-0.533,0.316-0.7,0.25c-0.267-0.1-0.567-0.167-0.9-0.2c-0.5-0.033-0.583-0.35-0.25-0.95
	C11.783,15.717,12.25,15.4,12.85,15.4z"/>
<path style="fill-rule:evenodd;clip-rule:evenodd;fill:#858687;" d="M11.5,13.5c0.6-0.267,0.817-0.2,0.65,0.2
	c-0.133,0.366-0.433,0.649-0.9,0.85c-0.433,0.2-0.583,0.117-0.45-0.25C10.9,13.967,11.133,13.7,11.5,13.5z"/>
<path style="fill-rule:evenodd;clip-rule:evenodd;fill:#858687;" d="M16.15,6.6c0.9-0.3,1.3,0.117,1.2,1.25
	c-0.067,1.1-0.617,1.65-1.65,1.65c-0.967,0-1.317-0.433-1.05-1.3C14.883,7.4,15.383,6.867,16.15,6.6z"/>
<path style="fill-rule:evenodd;clip-rule:evenodd;fill:#858687;" d="M32.25,13.5c0.7-0.134,1.233,0,1.6,0.4
	c0.334,0.399,0.267,0.783-0.199,1.149c-0.467,0.4-0.801,0.667-1,0.8c-0.301,0.2-0.717,0.25-1.25,0.15
	c-0.634-0.1-0.801-0.517-0.5-1.25C31.2,14.05,31.65,13.634,32.25,13.5z"/>
<path style="fill-rule:evenodd;clip-rule:evenodd;fill:#858687;" d="M35.3,12.45c0.3-0.034,0.517,0.083,0.65,0.35
	c0.1,0.267-0.05,0.5-0.45,0.7c-0.434,0.267-0.7,0.184-0.8-0.25C34.634,12.817,34.833,12.55,35.3,12.45z"/>
<path style="fill-rule:evenodd;clip-rule:evenodd;fill:#B8B8BA;" d="M23.7,1l1.05,0.75c-0.633-0.033-1.05-0.033-1.25,0
	c-0.1,0.033-0.233,0.167-0.4,0.4C23,2.317,22.733,2.467,22.3,2.6l-0.9,0.2c-0.2,0.067-0.367,0.167-0.5,0.3l-0.2,0.2
	c-0.1,0.034-0.2,0.067-0.3,0.1c-0.233,0.1-0.367,0.217-0.4,0.35c-0.2,0.533-0.3,1.65-0.3,3.35l-0.05,5.25
	c-0.333-1.267-0.5-2.1-0.5-2.5c0-0.167-0.083-0.533-0.25-1.1c-0.133-0.6-0.217-1.033-0.25-1.3c-0.033-0.3,0.05-0.717,0.25-1.25
	c0.233-0.6,0.35-0.967,0.35-1.1c0.067-0.9-0.117-1.45-0.55-1.65c-0.233-0.133-0.417-0.184-0.55-0.15c-0.1,0.067-0.183,0.1-0.25,0.1
	l-1.45-0.2c-0.1,0-0.233,0.066-0.4,0.2c-0.267,0.2-0.5,0.35-0.7,0.45C15.15,3.983,15.033,4.133,15,4.3
	c-0.1,0.367-0.267,0.75-0.5,1.15c-0.267,0.433-0.617,0.833-1.05,1.2c-0.567,0.467-1,0.883-1.3,1.25c-0.7,0.833-1.65,1.567-2.85,2.2
	l1.15-1.35c0.633-0.933,1.183-1.733,1.65-2.4c0.2-0.333,0.55-0.783,1.05-1.35c0.4-0.5,0.65-0.85,0.75-1.05
	c0.2-0.367,0.8-1.25,1.8-2.65l0.45-0.35c0.667-0.5,1.267-0.717,1.8-0.65c0.133,0,0.4-0.05,0.8-0.15C19.217,0.05,19.633,0,20,0
	c0.5,0,1.167,0.117,2,0.35C22.7,0.55,23.267,0.767,23.7,1z"/>
<path style="fill-rule:evenodd;clip-rule:evenodd;fill:#B8B8BA;" d="M41.2,9.7c-0.3-0.034-0.5-0.017-0.601,0.05l-0.699,0.9
	C39.8,10.717,39.7,10.8,39.6,10.9c-0.233,0.2-0.399,0.4-0.5,0.6l-3.05,4.75c0.733-1.533,1.167-2.5,1.3-2.9
	c0.067-0.333,0.233-0.7,0.5-1.1c0.2-0.3,0.301-0.5,0.301-0.6c-0.067-0.1-0.117-0.217-0.15-0.35c-0.033-0.167-0.267-0.283-0.7-0.35
	l-3-0.15l1.7-0.3c0.6-0.033,1.333-0.117,2.2-0.25c0.333-0.033,0.616-0.133,0.85-0.3c0.267-0.167,0.566-0.284,0.9-0.35
	C40.616,9.5,41.033,9.533,41.2,9.7z"/>
<path style="fill-rule:evenodd;clip-rule:evenodd;fill:#9F9FA1;" d="M23.65,7c0.533-0.433,1.033-0.667,1.5-0.7
	C25.483,6.267,25.8,6.383,26.1,6.65c0.334,0.3,0.334,0.6,0,0.9c-0.3,0.233-0.466,0.35-0.5,0.35c-0.1-0.033-0.199-0.033-0.3,0
	c-0.433,0.2-0.816,0.65-1.15,1.35c-0.233,0.567-0.583,1.083-1.05,1.55c-0.067,0.067-0.184-0.066-0.35-0.4
	c-0.167-0.367-0.233-0.617-0.2-0.75c0.1-0.867,0.2-1.45,0.3-1.75C22.917,7.667,23.183,7.367,23.65,7z"/>
<path style="fill-rule:evenodd;clip-rule:evenodd;fill:#9F9FA1;" d="M24.95,12.7c0.5-0.133,0.767,0.167,0.8,0.899
	c0,0.334-0.083,0.917-0.25,1.75c-0.066,0.334-0.184,0.483-0.35,0.45c-0.333-0.033-0.517-0.05-0.55-0.05
	c-0.2,0.066-0.417-0.116-0.65-0.55c-0.167-0.3-0.267-0.584-0.3-0.851c-0.033-0.233,0.05-0.517,0.25-0.85
	C24.133,13.066,24.483,12.8,24.95,12.7z"/>
<path style="fill-rule:evenodd;clip-rule:evenodd;fill:#9F9FA1;" d="M42.7,14.15c0.166,0.033,0.3,0.133,0.399,0.3
	c0.101,0.233,0.034,0.434-0.199,0.6c-0.134,0.101-0.351,0.184-0.65,0.25c-0.167,0.033-0.45,0.283-0.85,0.75
	c-0.134,0.134-0.7,0.584-1.7,1.351c-0.101,0.1-0.066-0.15,0.1-0.75c0.2-0.7,0.483-1.217,0.851-1.551
	c0.166-0.133,0.433-0.383,0.8-0.75C41.85,14.116,42.267,14.05,42.7,14.15z"/>
<path style="fill-rule:evenodd;clip-rule:evenodd;fill:#9F9FA1;" d="M22.35,16.45c0.267-0.101,0.45,0.033,0.55,0.399
	c0.1,0.334,0.1,0.634,0,0.9c-0.066,0.167-0.15,0.267-0.25,0.3c-0.233,0.066-0.367,0.101-0.4,0.101
	c-0.167,0.066-0.333-0.017-0.5-0.25c-0.133-0.233-0.183-0.434-0.15-0.601C21.667,16.9,21.917,16.616,22.35,16.45z"/>
</svg>
