<?xml version="1.0" encoding="iso-8859-1"?>
<!-- Generator: Adobe Illustrator 15.1.0, SVG Export Plug-In . SVG Version: 6.00 Build 0)  -->
<!DOCTYPE svg PUBLIC "-//W3C//DTD SVG 1.1//EN" "http://www.w3.org/Graphics/SVG/1.1/DTD/svg11.dtd">
<svg version="1.1" id="flash0.ai" xmlns="http://www.w3.org/2000/svg" xmlns:xlink="http://www.w3.org/1999/xlink" x="0px" y="0px"
	 width="124.05px" height="32.15px" viewBox="0 0 124.05 32.15" style="enable-background:new 0 0 124.05 32.15;"
	 xml:space="preserve">
<symbol  id="flash0.ai_x5F_27_x2F_Layer_148_x2F__x3C_Path_x3E_" viewBox="0 -14.272 117.45 14.284">
	<g id="Layer_1_3_">
		<path style="fill-rule:evenodd;clip-rule:evenodd;" d="M116.4-5.4c-7.467-0.767-12.283-1.533-14.45-2.3
			c-2.2-0.767-5.617-1.417-10.25-1.95c-6.333-0.733-13.95-1.1-22.85-1.1c-7.733,0-12.333-0.317-13.8-0.95c-2.6-1.1-5-1.8-7.2-2.1
			c-5.833-0.8-13.633-0.583-23.4,0.65C14.217-11.85,6.067-9.917,0-7.35c4.667,1.867,7.567,4.033,8.7,6.5h0.95
			c12.367,0.2,24.7,0.383,37,0.55c24.367,0.3,42.167,0.383,53.4,0.25c6.534-0.1,11.35-0.45,14.45-1.05c0.7-1.3,1.683-2.533,2.95-3.7
			L116.4-5.4z"/>
	</g>
</symbol>
<symbol  id="flash0.ai_x5F_27_x2F_Layer_148_x2F__x3C_Path_x3E__x5F_0" viewBox="0 -27.138 55.95 27.138">
	<g id="Layer_1_5_">
		<path style="fill-rule:evenodd;clip-rule:evenodd;fill:#147352;" d="M55.95-17.9c-1.934-1.733-4.85-3.4-8.75-5
			c-7.767-3.233-16.5-4.617-26.2-4.15l-3.45,0.15c1,0.4,1.133,1.45,0.4,3.15c-0.7,1.667-1.717,2.85-3.05,3.55
			c-0.833,0.467-2.983,1.784-6.45,3.95c-3.233,2.067-5.267,3.3-6.1,3.7C1.383-12.083,0.7-10.6,0.3-8.1C0.1-6.867,0-5.683,0-4.55
			L3.75-3.8c0.8,0.167,3,0.316,6.6,0.45c2.9,0.133,4.883,0.5,5.95,1.1c0.767,0.367,1.233,1.117,1.4,2.25c2.6-1.2,4.933-2.467,7-3.8
			c4.333-2.8,9.417-5.15,15.25-7.05c5.867-1.933,9.183-3.133,9.95-3.6C52.667-16.25,54.683-17.4,55.95-17.9z"/>
	</g>
</symbol>
<symbol  id="flash0.ai_x5F_27_x2F_Layer_148_x2F__x3C_Path_x3E__x5F_1" viewBox="-0.046 -14.265 124.068 14.276">
	<g id="Layer_1_2_">
		<path style="fill-rule:evenodd;clip-rule:evenodd;" d="M123.9-2.9c0.434-0.833-0.283-1.667-2.15-2.5
			c-7.467-0.767-12.283-1.533-14.45-2.3c-2.2-0.767-5.617-1.417-10.25-1.95c-6.333-0.733-13.95-1.1-22.85-1.1
			c-7.733,0-12.333-0.317-13.8-0.95c-2.6-1.1-5-1.8-7.2-2.1c-5.867-0.8-13.684-0.567-23.45,0.7C19.45-11.8,11.267-9.867,5.2-7.3
			c-5.6,2.367-6.717,4.117-3.35,5.25C4.317-1.25,8.7-0.85,15-0.85c12.367,0.2,24.7,0.383,37,0.55C76.367,0,94.167,0.083,105.4-0.05
			C116.867-0.217,123.033-1.167,123.9-2.9z"/>
	</g>
</symbol>
<symbol  id="flash0.ai_x5F_27_x2F_Layer_148_x2F__x3C_Path_x3E__x5F_1_x5F_0" viewBox="0 -2.4 19.1 2.408">
	<g id="Layer_1_4_">
		<path style="fill-rule:evenodd;clip-rule:evenodd;fill:#147352;" d="M19.1-2.25L0-2.4C3.3-0.7,6.15,0.1,8.55,0
			c1.1-0.033,3.284-0.533,6.55-1.5C16.233-1.833,17.567-2.083,19.1-2.25z"/>
	</g>
</symbol>
<g>
	<g>
		
			<use xlink:href="#flash0.ai_x5F_27_x2F_Layer_148_x2F__x3C_Path_x3E__x5F_1"  width="124.068" height="14.276" x="-0.046" y="-14.265" transform="matrix(1 0 0 -1 0.0498 17.5)" style="overflow:visible;opacity:0.2617;enable-background:new    ;"/>
		
			<use xlink:href="#flash0.ai_x5F_27_x2F_Layer_148_x2F__x3C_Path_x3E_"  width="117.45" height="14.284" y="-14.272" transform="matrix(1 0 0 -1 5.3999 17.5)" style="overflow:visible;opacity:0.1992;enable-background:new    ;"/>
	</g>
	<g>
		
			<radialGradient id="SVGID_1_" cx="-42.2271" cy="64.9971" r="41.1777" gradientTransform="matrix(-0.0096 -1 -1.2224 0.0118 144.448 -1.3896)" gradientUnits="userSpaceOnUse">
			<stop  offset="0.0235" style="stop-color:#74DEBE"/>
			<stop  offset="0.2353" style="stop-color:#78E0C0"/>
			<stop  offset="0.451" style="stop-color:#84E5C8"/>
			<stop  offset="0.6627" style="stop-color:#99EDD3"/>
			<stop  offset="0.8784" style="stop-color:#B5F9E4"/>
			<stop  offset="0.9765" style="stop-color:#C4FFED"/>
		</radialGradient>
		<path style="fill-rule:evenodd;clip-rule:evenodd;fill:url(#SVGID_1_);" d="M86.85,32.05c-6.833-0.333-17.066-0.434-30.7-0.3
			c-11.1,0.134-19.683-0.15-25.75-0.85c-6.967-0.801-13.25-2.051-18.85-3.75c-2.8-0.867-4.9-1.65-6.3-2.351
			c0.767-0.434,1.967-0.967,3.6-1.6c3.267-1.267,7.033-2.384,11.3-3.351c0.8-0.566,1.967-1.267,3.5-2.1
			c3.133-1.667,6.633-3.133,10.5-4.4c4.133-1.333,7.517-2.767,10.15-4.3c1.6-0.9,3.35-2.133,5.25-3.7
			c1.867-1.533,3.417-2.55,4.65-3.05L66.8,0l7.7,1.7c6.033,1.7,11.384,4.066,16.05,7.1c4.334,2.8,9.417,5.15,15.25,7.05
			c5.867,1.933,9.184,3.133,9.95,3.6c2.767,1.8,4.783,2.95,6.05,3.45c-1.934,1.733-4.85,3.399-8.75,5
			C105.283,31.134,96.55,32.517,86.85,32.05z"/>
		<path style="fill-rule:evenodd;clip-rule:evenodd;fill:#74DEBE;" d="M109.15,16.9c3.366,1.067,5.566,1.917,6.6,2.55
			c2.767,1.8,4.783,2.95,6.05,3.45c-1.934,1.733-4.85,3.399-8.75,5c-7.767,3.233-16.5,4.616-26.2,4.149
			c-6.833-0.333-17.066-0.434-30.7-0.3c-11.1,0.134-19.683-0.15-25.75-0.85c-6.967-0.801-13.25-2.051-18.85-3.75
			c-2.8-0.867-4.9-1.65-6.3-2.351l0.35-0.2c2.667,0.834,4.167,1.284,4.5,1.351c0.867,0.133,2.517,0.133,4.95,0
			c1.767-0.101,3.633-0.367,5.6-0.8c1.067-0.233,2.467-0.217,4.2,0.05c1.566,0.267,3.033,0.399,4.4,0.399
			c1.4,0,2.883,0.117,4.45,0.351c2.066,0.333,4.283,0.184,6.65-0.45c1.767-0.467,3.267-1.083,4.5-1.85c0.9-0.567,1.9-0.95,3-1.15
			c1-0.167,1.867-0.167,2.6,0c0.333,0.1,0.767,0.1,1.3,0c0.9-0.134,2.5-0.134,4.8,0c3.1,0.2,4.833,0.267,5.2,0.2
			c0.467-0.066,1.833-0.767,4.1-2.101c1.934-1.1,3.684-1.866,5.25-2.3c0.767-0.233,1.351-0.35,1.75-0.35l3.301,1
			c2.433,0.7,4.133,1.133,5.1,1.3c0.9,0.134,1.667,0.184,2.3,0.15c1.167-0.101,1.95-0.15,2.351-0.15c0.966,0,2.033-0.384,3.199-1.15
			c0.567-0.366,1.051-0.75,1.45-1.149l1.75-0.3c1.4-0.101,2.684,0,3.851,0.3c0.533,0.133,0.783,0.033,0.75-0.3
			c-0.134-0.567-0.233-1.034-0.301-1.4c-0.267-1.567,0.667-2.5,2.801-2.8C101.8,14.483,105.05,15.633,109.15,16.9z"/>
		<path style="fill-rule:evenodd;clip-rule:evenodd;fill:#52C9A2;" d="M108.75,22.5c-0.066-0.434-0.05-0.866,0.05-1.3
			c0.233-0.9,0.834-1.351,1.8-1.351l5.5-0.149c2.634,1.666,4.534,2.733,5.7,3.2c-1.934,1.733-4.85,3.399-8.75,5
			c-7.767,3.233-16.5,4.616-26.2,4.149C81.783,31.783,76.233,31.65,70.2,31.65c-6.634,0.066-11.5,0.1-14.6,0.1
			c-10.833,0.134-19.233-0.15-25.2-0.85c-4.167-0.467-8.1-1.117-11.8-1.95c1.2-0.167,2.717-0.417,4.55-0.75
			c1.567-0.233,3.05-0.351,4.45-0.351c2,0,3.733,0.067,5.2,0.2c1.5,0.134,2.883,0.2,4.15,0.2h9.8c0.3,0,0,0.167-0.9,0.5
			c-0.633,0.2,1.066,0.15,5.1-0.15c6.833-0.5,11.95-0.75,15.35-0.75c0.634,0,1.717,0.117,3.25,0.351
			c1.334,0.066,2.283-0.3,2.851-1.101c0.466-0.633,0.517-1.149,0.149-1.55c-0.1-0.1,0.3-0.217,1.2-0.35
			c1.934-0.267,3.05-0.417,3.35-0.45c1-0.033,2.217,0.116,3.65,0.45c0.9,0.2,1.866,0.35,2.9,0.45
			c0.767,0.033,1.833,0.267,3.199,0.699C88.884,26.983,91,27.3,93.2,27.3c2.434,0,4.2-0.45,5.3-1.35
			c1.533-1.267,2.934-2.283,4.2-3.05L108.75,22.5z"/>
		<path style="fill-rule:evenodd;clip-rule:evenodd;fill:#21916D;" d="M118.05,23.3l3.351-0.1c-2.634,2.066-6.051,3.883-10.25,5.45
			c-7.334,2.699-15.434,3.833-24.301,3.399C81.783,31.783,76.233,31.65,70.2,31.65c-6.634,0.066-11.5,0.1-14.6,0.1
			c-8.233,0.134-14.85,0.017-19.85-0.35c2.1-0.467,4.45-0.7,7.05-0.7c2.5-0.033,5.983,0.166,10.45,0.6
			c5.067,0.467,10.55,0.3,16.45-0.5c2.967-0.434,5.416-0.899,7.35-1.399c1.834-0.334,3.267-0.467,4.3-0.4
			c0.867,0.066,3,0.316,6.4,0.75c2.333,0.267,4.767,0.717,7.3,1.35c1.7,0.301,3.316-0.017,4.851-0.949
			c0.433-0.267,1.316-1.017,2.649-2.25c0.434-0.367,1.566-0.634,3.4-0.801c1.566-0.133,3.217-0.183,4.95-0.149
			c1.1-0.033,1.933-0.367,2.5-1c1.133-1.2,1.733-1.834,1.8-1.9C115.866,23.55,116.816,23.3,118.05,23.3z"/>
		<path style="fill-rule:evenodd;clip-rule:evenodd;fill:#D1FFF1;" d="M82.8,4.65c0.233,1.133,0.066,2.067-0.5,2.8
			c-0.5,0.633-1.166,0.95-2,0.95c-1.434,0-3.767,0.083-7,0.25c-3.6,0.2-5.934,0.383-7,0.55c-0.066,0-0.916,0.466-2.55,1.4
			c-1.533,0.867-4.25,1.533-8.15,2c-3.8,0.433-5.8,0.583-6,0.45c-0.367-0.3-0.85-0.45-1.45-0.45c-1.633,0-2.917,0.233-3.85,0.7
			c-1.466,0.934-2.983,1.85-4.55,2.75c-1.8,1.033-3.517,1.7-5.15,2c-3,0.533-5.167,1-6.5,1.4c-1.667,0.5-3.25,0.783-4.75,0.85
			c-1.033,0.033-2.434-0.033-4.2-0.2l1-0.25c0.8-0.566,1.967-1.267,3.5-2.1c3.133-1.667,6.633-3.133,10.5-4.4
			c4.133-1.333,7.517-2.767,10.15-4.3c1.6-0.9,3.35-2.133,5.25-3.7c1.867-1.533,3.417-2.55,4.65-3.05L66.8,0l4.8,0.95
			C75.5,1.883,79.233,3.117,82.8,4.65z"/>
		<g>
			
				<use xlink:href="#flash0.ai_x5F_27_x2F_Layer_148_x2F__x3C_Path_x3E__x5F_1_x5F_0"  width="19.1" height="2.408" y="-2.4" transform="matrix(1 0 0 -1 49.3501 29.4004)" style="overflow:visible;opacity:0.4297;enable-background:new    ;"/>
			
				<use xlink:href="#flash0.ai_x5F_27_x2F_Layer_148_x2F__x3C_Path_x3E__x5F_0"  width="55.95" height="27.138" y="-27.138" transform="matrix(1 0 0 -1 65.8496 5)" style="overflow:visible;opacity:0.4297;enable-background:new    ;"/>
		</g>
		<path style="fill-rule:evenodd;clip-rule:evenodd;fill:#BCF5E4;" d="M45.8,16.8c0.6-0.167,3.267,0.483,8,1.95
			c2.367,0.733,4.667,1.483,6.9,2.25h-8.35c-2.8,1-5.917,1.884-9.35,2.65c-2.133,0.466-4.55,0.683-7.25,0.649l-3.45-0.25l2.55-1.3
			c2.167-0.967,4.417-1.684,6.75-2.15c2.333-0.466,3.733-1.25,4.2-2.35C46.033,17.717,46.033,17.233,45.8,16.8z"/>
		<path style="fill-rule:evenodd;clip-rule:evenodd;fill:#BCF5E4;" d="M62.1,14.9c0-0.633,0.317-1.017,0.95-1.15
			c0.334-0.067,0.65-0.067,0.95,0l1.4,4.2h-1.9c-0.767,0-1.233-0.5-1.4-1.5V14.9z"/>
	</g>
</g>
</svg>
