<?xml version="1.0" encoding="iso-8859-1"?>
<!-- Generator: Adobe Illustrator 15.1.0, SVG Export Plug-In . SVG Version: 6.00 Build 0)  -->
<!DOCTYPE svg PUBLIC "-//W3C//DTD SVG 1.1//EN" "http://www.w3.org/Graphics/SVG/1.1/DTD/svg11.dtd">
<svg version="1.1" id="flash0.ai" xmlns="http://www.w3.org/2000/svg" xmlns:xlink="http://www.w3.org/1999/xlink" x="0px" y="0px"
	 width="41.95px" height="29.9px" viewBox="0 0 41.95 29.9" style="enable-background:new 0 0 41.95 29.9;" xml:space="preserve">
<symbol  id="flash0.ai_x5F_12_x2F_Layer_64_x2F__x3C_Path_x3E__x5F_15" viewBox="-0.021 -10.967 41.981 10.942">
	<g id="Layer_1_2_">
		<path style="fill-rule:evenodd;clip-rule:evenodd;" d="M41.8-3.95c0.133-0.066,0.184-0.216,0.15-0.45
			c-0.034-0.267-0.15-0.483-0.35-0.65c-0.133-0.1-0.483-0.267-1.05-0.5C39.617-5.85,39-6.067,38.7-6.2
			c-0.567-0.233-0.967-0.417-1.2-0.55c-0.333-0.233-0.7-0.467-1.1-0.7c-0.367-0.2-0.867-0.383-1.5-0.55
			c-0.6-0.167-1.2-0.417-1.8-0.75c-0.6-0.367-1.067-0.617-1.4-0.75c-0.567-0.233-1.017-0.433-1.35-0.6c-0.6-0.3-1.167-0.467-1.7-0.5
			c-0.8,0-1.617-0.033-2.45-0.1c-0.633,0-1.833-0.066-3.6-0.2c-1.033-0.067-1.633-0.083-1.8-0.05c-0.566,0.1-0.966,0.167-1.2,0.2
			c-0.867,0.1-2.083,0.15-3.65,0.15c-0.867,0-1.467,0.05-1.8,0.15c-0.233,0.034-0.883,0.284-1.95,0.75
			c-0.833,0.367-1.317,0.583-1.45,0.65c-0.1,0.1-0.333,0.267-0.7,0.5C9.717-8.317,9.4-8.15,9.1-8.05c-0.333,0.133-0.667,0.3-1,0.5
			C7.867-7.417,7.483-7.133,6.95-6.7c-0.467,0.333-1.034,0.667-1.7,1l-0.9,0.45c0.1-0.1,0.033-0.117-0.2-0.05
			C3.917-5.233,3.467-5.017,2.8-4.65c-0.633,0.333-1.066,0.533-1.3,0.6C0.367-3.717-0.133-3.4,0-3.1c0.4,0.3,0.633,0.483,0.7,0.55
			C1-2.383,1.367-2.117,1.8-1.75C1.967-1.617,2.2-1.333,2.5-0.9c0.2,0.333,0.467,0.55,0.8,0.65c0.5,0.2,2.583,0.267,6.25,0.2
			c0.8-0.034,3.667-0.1,8.6-0.2c4.9-0.133,8.25-0.317,10.05-0.55c5.9-0.733,9.566-1.267,11-1.6c1.333-0.3,1.9-0.483,1.7-0.55
			c-0.1-0.033-0.3-0.083-0.6-0.15L41.8-3.95z"/>
	</g>
</symbol>
<use xlink:href="#flash0.ai_x5F_12_x2F_Layer_64_x2F__x3C_Path_x3E__x5F_15"  width="41.981" height="10.942" x="-0.021" y="-10.967" transform="matrix(1 0 0 -1 0 18.9502)" style="overflow:visible;opacity:0.1406;enable-background:new    ;"/>
<path style="fill-rule:evenodd;clip-rule:evenodd;fill:#9F9FA1;" d="M39,23.15c-4.6,2.433-7.833,3.783-9.7,4.05
	c-2.5,0.6-4.649,1.017-6.45,1.25c-3.366,0.467-6.233,0.184-8.6-0.851c-3.8-1.6-7.867-3.483-12.2-5.649l1.65-3.7
	c0.5-0.5,1.583-1.417,3.25-2.75C7.817,14.8,8.5,13.967,9,13c0.467-1.167,0.783-1.9,0.95-2.2c0.2-0.367,0.816-0.983,1.85-1.85
	c0.6-0.5,1.35-1.417,2.25-2.75c0.767-1.167,1.917-2.284,3.45-3.35L21.55,0c1.367,0.8,3.684,3.1,6.95,6.9c2,2.367,4.017,4.3,6.05,5.8
	c1,0.733,1.8,1.233,2.4,1.5l-0.45,1.2c-0.2,1-0.05,2.1,0.45,3.3L39,23.15z"/>
<path style="fill-rule:evenodd;clip-rule:evenodd;fill:#858687;" d="M21.15,4.7c0.166-0.133,0.3-0.417,0.399-0.85
	c0.167-0.567,0.351-1.033,0.55-1.4c0.367-0.733,0.45-1.4,0.25-2l3.051,2.6C26.134,3.583,27.533,5.3,29.6,8.2l0.2,0.6
	c-0.3,1.1-0.816,1.817-1.55,2.15c-0.467,0.2-0.816,0.55-1.05,1.05c-0.2,0.533-0.351,0.883-0.45,1.05
	c-0.167,0.333-0.283,1.167-0.35,2.5c-0.101,0.967,0.133,2.267,0.699,3.9c0.233,0.7,0.483,0.85,0.75,0.45l1-1.351
	c0.101-0.1,0.634-0.666,1.601-1.7c0.267-0.267,0.7-0.416,1.3-0.449c0.366-0.034,1.1-0.067,2.2-0.101
	c0.767-0.066,1.184-0.25,1.25-0.55c0.066-0.167,0.116-0.434,0.149-0.8c0.301-0.333,0.834-0.583,1.601-0.75l0.45,1.3
	c0.267,0.934,0.399,1.583,0.399,1.95c0,0.399,0.101,0.934,0.3,1.6c0.167,0.4,0.334,1.117,0.5,2.15c0.134,0.6,0.551,1.149,1.25,1.649
	c-0.666,0.567-1.333,1.067-2,1.5c-0.733,0.467-2.199,1.084-4.399,1.851c-0.667,0.233-1.25,0.517-1.75,0.85
	c-0.601,0.434-0.983,0.684-1.15,0.75c-0.467,0.233-0.934,0.4-1.399,0.5c-0.334,0.066-1.051,0.15-2.15,0.25l-5.1,0.4
	c-1.467,0.133-3.067,0.1-4.8-0.101c-1.6-0.166-2.833-0.416-3.7-0.75c-0.5-0.199-0.95-0.5-1.35-0.899c-0.367-0.4-0.8-0.684-1.3-0.851
	c-1-0.333-3.9-1.8-8.7-4.399c2.4,0.666,4.05,1.033,4.95,1.1c0.533,0.033,0.883,0.101,1.05,0.2c0.133,0.1,0.5,0.384,1.1,0.85
	c0.633,0.4,1.133,0.634,1.5,0.7c0.267,0.066,0.75,0.15,1.45,0.25c0.5,0.101,0.867,0.134,1.1,0.101c0.5-0.067,0.9-0.101,1.2-0.101
	c0.967,0,1.533,0.134,1.7,0.4c1.233,0.267,2.167,0.3,2.8,0.1c0.4-0.133,0.733-0.35,1-0.649c0.3-0.334,0.534-0.567,0.7-0.7
	c0.2-0.167,0.267-0.533,0.2-1.101c-0.1-1.166-0.149-1.8-0.149-1.899c0-0.566-0.167-1.334-0.5-2.3L19.6,17.6
	c-0.3-1.267-0.467-2.267-0.5-3c-0.3-1.434-0.467-2.6-0.5-3.5c-0.033-0.6,0.333-1.783,1.1-3.55C20.4,5.917,20.884,4.967,21.15,4.7z"
	/>
<path style="fill-rule:evenodd;clip-rule:evenodd;fill:#858687;" d="M10.05,14.35c0.633-0.833,1.15-1.1,1.55-0.8
	c0.3,0.167,0.45,0.483,0.45,0.95c0,0.533-0.683,1.116-2.05,1.75c-0.5,0.233-0.683,0.05-0.55-0.55
	C9.583,15.2,9.783,14.75,10.05,14.35z"/>
<path style="fill-rule:evenodd;clip-rule:evenodd;fill:#858687;" d="M18.05,20.5c0.633,0,0.833,0.5,0.6,1.5
	c-0.2,0.967-0.7,1.7-1.5,2.2c-0.667,0.399-1.1,0.467-1.3,0.2c-0.167-0.567-0.4-1.034-0.7-1.4c-0.433-0.566-0.683-0.9-0.75-1
	c-0.1-0.167-0.133-0.417-0.1-0.75C14.367,20.75,15.617,20.5,18.05,20.5z"/>
<path style="fill-rule:evenodd;clip-rule:evenodd;fill:#858687;" d="M11.9,21.6c0.333,0.067,0.483,0.351,0.45,0.851
	c-0.033,0.467-0.317,0.684-0.85,0.649c-0.567-0.033-0.767-0.316-0.6-0.85C11.067,21.75,11.4,21.533,11.9,21.6z"/>
<path style="fill-rule:evenodd;clip-rule:evenodd;fill:#858687;" d="M31.05,13.25c0.733,0.133,1.217,0.367,1.45,0.7
	c0.267,0.333,0.134,0.667-0.4,1c-0.433,0.267-0.733,0.35-0.899,0.25c-0.3-0.233-0.684-0.434-1.15-0.6c-0.733-0.267-1-0.6-0.8-1
	S30.05,13.083,31.05,13.25z"/>
<path style="fill-rule:evenodd;clip-rule:evenodd;fill:#858687;" d="M30.6,11.45c0.5-0.034,0.733,0.133,0.7,0.5
	c-0.066,0.367-0.35,0.55-0.85,0.55s-0.733-0.167-0.7-0.5S30.066,11.483,30.6,11.45z"/>
<path style="fill-rule:evenodd;clip-rule:evenodd;fill:#858687;" d="M15.55,7.6c0.633,0.066,0.817,0.283,0.55,0.65
	C15.867,8.617,15.35,8.867,14.55,9c-0.767,0.133-0.966-0.083-0.6-0.65C14.35,7.817,14.883,7.567,15.55,7.6z"/>
<path style="fill-rule:evenodd;clip-rule:evenodd;fill:#858687;" d="M4.5,20.2c0.3,0,0.383,0.25,0.25,0.75s-0.467,0.75-1,0.75
	s-0.633-0.25-0.3-0.75C3.75,20.45,4.1,20.2,4.5,20.2z"/>
<path style="fill-rule:evenodd;clip-rule:evenodd;fill:#B8B8BA;" d="M22.3,0.65c0.134,0.267,0.066,1.017-0.2,2.25
	C21.833,4.1,21.6,4.8,21.4,5c-0.601,0.667-1.317,1.967-2.15,3.9c-0.333,0.867-0.517,1.383-0.55,1.55
	c-0.067,0.333-0.05,0.85,0.05,1.55c0.1,0.533,0.217,1.217,0.35,2.05c0.133,0.667,0.2,1.217,0.2,1.65c0,0.533,0.017,0.933,0.05,1.2
	c-0.22-1.099-0.486-2.166-0.8-3.2c-0.433-1.4-0.45-3.083-0.05-5.05C18.567,8.317,18.733,7.8,19,7.1c0.233-0.633,0.367-1.167,0.4-1.6
	c0-0.267,0.05-0.667,0.15-1.2c0.034-0.267,0-0.417-0.1-0.45c-0.133-0.167-0.233-0.283-0.3-0.35c-0.167-0.133-0.417-0.133-0.75,0
	c-2.267,1-3.483,1.583-3.65,1.75L15.3,4.6c0.467-0.467,0.95-0.883,1.45-1.25c0.8-0.6,1.783-1.35,2.95-2.25
	c0.833-0.6,1.45-0.967,1.85-1.1C21.884,0.067,22.134,0.283,22.3,0.65z"/>
<path style="fill-rule:evenodd;clip-rule:evenodd;fill:#B8B8BA;" d="M12.8,11.5c-0.2,0-0.716-0.267-1.55-0.8
	c-0.4-0.267-0.717-0.35-0.95-0.25l-0.25,0.25c0.167-0.4,0.4-0.7,0.7-0.9l1.4-1.1l1,0.25l1.3,0.8c0.1,0.167,0.25,0.6,0.45,1.3
	l1.05,1.7c-0.267-0.133-0.483-0.283-0.65-0.45c-0.333-0.333-0.833-0.6-1.5-0.8c-0.133-0.067-0.3-0.083-0.5-0.05L12.8,11.5z"/>
<path style="fill-rule:evenodd;clip-rule:evenodd;fill:#B8B8BA;" d="M6.1,18.25c-0.267,0.066-0.5,0.1-0.7,0.1l-1.7-0.1l1.05-1
	l1.1-0.5c0.5-0.167,0.983-0.184,1.45-0.05c0.233,0.033,0.65,0.3,1.25,0.8c0.233,0.134,0.483,0.4,0.75,0.8
	c0.167,0.2,0.75,0.417,1.75,0.65H9.1c-0.367,0-0.684-0.05-0.95-0.15c-0.5-0.3-0.967-0.483-1.4-0.55
	C6.483,18.184,6.267,18.184,6.1,18.25z"/>
<path style="fill-rule:evenodd;clip-rule:evenodd;fill:#9F9FA1;" d="M23.25,10.3c0.033-0.466,0.417-0.966,1.15-1.5
	c0.233-0.167,0.583-0.417,1.05-0.75c0.366-0.267,0.583-0.483,0.649-0.65L27.4,7.75c0.133,0,0.267,0.1,0.399,0.3
	c-0.033,0.3-0.116,0.567-0.25,0.8c-0.1,0.167-0.267,0.283-0.5,0.35C26.684,9.267,26.333,9.333,26,9.4
	c-0.366,0.067-0.566,0.133-0.6,0.2c-0.034,0.133-0.134,0.25-0.301,0.35c-0.267,0.167-0.616,0.5-1.05,1
	c-0.366,0.466-0.616,0.816-0.75,1.05C23.233,11.2,23.217,10.633,23.25,10.3z"/>
<path style="fill-rule:evenodd;clip-rule:evenodd;fill:#9F9FA1;" d="M35.15,19.8H33.5c-0.2,0-0.333,0.084-0.4,0.25
	c-0.199,0.5-0.366,0.867-0.5,1.101c-0.433,0.733-0.916,1.399-1.449,2c0.1-0.567,0.216-1.051,0.35-1.45
	c0.1-0.233,0.233-0.45,0.4-0.65c0.166-0.233,0.267-0.416,0.3-0.55c0.066-0.366,0.25-0.7,0.55-1c0.767-0.767,1.316-1.15,1.65-1.15
	l1.399,0.2c0.066,0.066,0.084,0.15,0.05,0.25c-0.133,0.167-0.199,0.267-0.199,0.3c-0.101,0.2-0.034,0.7,0.199,1.5
	c0.034,0.267-0.066,0.317-0.3,0.15C35.417,20.116,35.283,19.8,35.15,19.8z"/>
<path style="fill-rule:evenodd;clip-rule:evenodd;fill:#9F9FA1;" d="M24.9,19.45L25.3,21l0.25,0.55c0.033,0.101-0.017,0.2-0.149,0.3
	c-0.233,0.101-0.45,0.2-0.65,0.301c-0.267,0.133-0.417,0.267-0.45,0.399c-0.2,0.434-0.35,0.733-0.45,0.9
	c-0.233,0.399-0.333,0.517-0.3,0.35c0.101-0.267,0.15-0.434,0.15-0.5c-0.367-0.566-0.533-0.967-0.5-1.2
	c0.033-0.199,0.166-0.5,0.399-0.899c0.267-0.467,0.5-0.783,0.7-0.95L24.9,19.45z"/>
</svg>
