<?xml version="1.0" encoding="iso-8859-1"?>
<!-- Generator: Adobe Illustrator 15.1.0, SVG Export Plug-In . SVG Version: 6.00 Build 0)  -->
<!DOCTYPE svg PUBLIC "-//W3C//DTD SVG 1.1//EN" "http://www.w3.org/Graphics/SVG/1.1/DTD/svg11.dtd">
<svg version="1.1" id="flash0.ai" xmlns="http://www.w3.org/2000/svg" xmlns:xlink="http://www.w3.org/1999/xlink" x="0px" y="0px"
	 width="65.45px" height="25.55px" viewBox="0 0 65.45 25.55" style="enable-background:new 0 0 65.45 25.55;" xml:space="preserve"
	>
<symbol  id="flash0.ai_x5F_31_x2F_Layer_148_x2F__x3C_Path_x3E__x5F_3" viewBox="0.029 -16.8 65.449 16.772">
	<g id="Layer_1_2_">
		<path style="fill-rule:evenodd;clip-rule:evenodd;" d="M64.35-5.7c1.267-1.6,1.467-2.917,0.6-3.95
			c-0.467-0.6-0.684-0.85-0.65-0.75c0.167,0.3,0.1,0.35-0.2,0.15c-0.434-0.4-0.783-0.7-1.05-0.9c-0.433-0.367-1.083-0.667-1.95-0.9
			c-0.667-0.2-1-0.367-1-0.5c0.1-0.367-0.15-0.883-0.75-1.55c-0.7-0.8-1.217-1.25-1.55-1.35c-0.533-0.133-0.917-0.283-1.15-0.45
			c-0.5-0.367-0.983-0.533-1.45-0.5l-0.6,0.2c-2.8-0.2-5.184-0.3-7.15-0.3c-4.567-0.2-8.034-0.3-10.4-0.3c-4.733,0-8.1,0.2-10.1,0.6
			c-1.133,0.233-2.3,0.3-3.5,0.2c-2.167-0.133-3.567-0.2-4.2-0.2c-3.233,0-6.4,0.7-9.5,2.1c-0.6,0.267-1.533,0.767-2.8,1.5
			c-0.934,0.533-2.083,1.017-3.45,1.45c-1.9,0.6-2.883,1.233-2.95,1.9C0.383-8.183,0.283-7.633,0.25-7.6
			C-0.25-7.1,0.1-6.267,1.3-5.1c0.567,0.6,1.2,1.15,1.9,1.65c2.767,1.2,4.55,2.2,5.35,3c0.434,0.434,1.417,0.534,2.95,0.3
			c2.7-0.4,5.083-0.6,7.15-0.6c2.533,0,6.25-0.167,11.15-0.5c5.967-0.4,9.967-0.633,12-0.7c3.1-0.1,6.083-0.25,8.95-0.45
			c3.767-0.233,6.233-0.383,7.4-0.45C60.883-2.983,62.95-3.933,64.35-5.7z"/>
	</g>
</symbol>
<g>
	
		<use xlink:href="#flash0.ai_x5F_31_x2F_Layer_148_x2F__x3C_Path_x3E__x5F_3"  width="65.449" height="16.772" x="0.029" y="-16.8" transform="matrix(1 0 0 -1 -0.0498 8.75)" style="overflow:visible;opacity:0.1406;enable-background:new    ;"/>
	
		<radialGradient id="SVGID_1_" cx="-24.9502" cy="32.251" r="24.35" gradientTransform="matrix(2.053388e-005 -1 -1.5123 2.053388e-005 81.0248 -8.242912e-004)" gradientUnits="userSpaceOnUse">
		<stop  offset="0.0235" style="stop-color:#74DEBE"/>
		<stop  offset="0.2353" style="stop-color:#78E0C0"/>
		<stop  offset="0.451" style="stop-color:#84E5C8"/>
		<stop  offset="0.6627" style="stop-color:#99EDD3"/>
		<stop  offset="0.8784" style="stop-color:#B5F9E4"/>
		<stop  offset="0.9765" style="stop-color:#C4FFED"/>
	</radialGradient>
	<path style="fill-rule:evenodd;clip-rule:evenodd;fill:url(#SVGID_1_);" d="M61.9,15.6c-0.834,1.7-1.801,3.034-2.9,4l-4.15,3.551
		c-0.6,0.399-3.783,0.6-9.55,0.6c-3.566,0-7.616-0.116-12.149-0.35c-4.833-0.267-8.3-0.45-10.4-0.551
		c-4.167-0.166-8.033-0.85-11.6-2.05l-8.3-4.149c0.4-2.567,0.8-4.65,1.2-6.25L4.65,8C5.417,7.833,6.9,6.95,9.1,5.35
		c4.066-3,6.333-4.583,6.8-4.75c0.4-0.133,1.85-0.267,4.35-0.4c2.133-0.133,3.567-0.2,4.3-0.2c0.167,0,1.217,0.3,3.15,0.9
		c2.367,0.733,4.684,1.333,6.95,1.8c0.933,0.167,4.533,0.633,10.8,1.4c4.566,0.533,7.5,1.15,8.8,1.85c2.167,1.2,3.85,1.8,5.05,1.8
		l1,2.05c0.733,1.434,1.283,2.333,1.65,2.7l0.899,0.85C62.65,14.017,62.333,14.767,61.9,15.6z"/>
	<path style="fill-rule:evenodd;clip-rule:evenodd;fill:#BCFFE9;" d="M54.25,5.95c2.167,1.2,3.85,1.8,5.05,1.8l1.8,3.55
		c-1.199,1.233-2.199,2.117-3,2.65c-0.733,0.5-2,1.55-3.8,3.149l-2.45,2.2L48,15.45c-2.366-1.601-4.55-2.684-6.55-3.25
		c-1.9-0.567-5.367-1.067-10.4-1.5c-1.966-0.167-3.017-0.25-3.15-0.25c-0.467-0.034-1.383-0.05-2.75-0.05
		c-1.9,0-3.316-0.017-4.25-0.05c-1.5-0.1-3.066-0.283-4.7-0.55c-2.367-0.4-5.534-0.6-9.5-0.6l-3.35,4.55L4.65,8
		C5.417,7.833,6.9,6.95,9.1,5.35c4.066-3,6.333-4.583,6.8-4.75c0.4-0.133,1.85-0.267,4.35-0.4c2.133-0.133,3.567-0.2,4.3-0.2
		c0.167,0,1.217,0.3,3.15,0.9c2.367,0.733,4.684,1.333,6.95,1.8c0.933,0.167,4.533,0.633,10.8,1.4
		C50.017,4.633,52.95,5.25,54.25,5.95z"/>
	<path style="fill-rule:evenodd;clip-rule:evenodd;fill:#6EC4AA;" d="M61.95,12.5l0.899,0.85c-0.199,0.667-0.517,1.417-0.949,2.25
		c-0.834,1.7-1.801,3.034-2.9,4l-4.15,3.551c-0.6,0.399-3.783,0.6-9.55,0.6c-3.566,0-7.616-0.116-12.149-0.35
		c-4.833-0.267-8.3-0.45-10.4-0.551c-4.167-0.166-8.033-0.85-11.6-2.05L4.4,17.4c0.833,0.166,1.934,0.383,3.3,0.649
		c1.2,0.233,2.35,0.351,3.45,0.351c1.767,0,3.117-0.067,4.05-0.2c0.566-0.101,1.4-0.316,2.5-0.65l6.25-2.1v0.8
		c0.1,0.634,0.4,1.25,0.9,1.85c0.7,0.9,1.15,1.384,1.35,1.45c0.6,0.233,2.316,0.351,5.15,0.351c1.3,0,4.367,0.166,9.2,0.5
		c3.267,0.199,5.351,0.133,6.25-0.2c1.867-0.7,2.816-1.066,2.851-1.101c0.666-0.333,0.816-0.767,0.449-1.3
		c-0.366-0.467-0.683-1.3-0.949-2.5L48.9,13.65l3.25-1.15c1.3-0.533,2.017-0.85,2.149-0.95c0.4-0.233,0.867-0.617,1.4-1.15
		c0.8-0.8,2-1.683,3.6-2.65l1,2.05C61.033,11.233,61.583,12.133,61.95,12.5z"/>
</g>
</svg>
