<?xml version="1.0" encoding="iso-8859-1"?>
<!-- Generator: Adobe Illustrator 15.1.0, SVG Export Plug-In . SVG Version: 6.00 Build 0)  -->
<!DOCTYPE svg PUBLIC "-//W3C//DTD SVG 1.1//EN" "http://www.w3.org/Graphics/SVG/1.1/DTD/svg11.dtd">
<svg version="1.1" id="flash0.ai" xmlns="http://www.w3.org/2000/svg" xmlns:xlink="http://www.w3.org/1999/xlink" x="0px" y="0px"
	 width="60.65px" height="49px" viewBox="0 0 60.65 49" style="enable-background:new 0 0 60.65 49;" xml:space="preserve">
<symbol  id="flash0.ai_x5F_24_x2F_Layer_114_x2F__x3C_Path_x3E_" viewBox="0.022 -23.767 23.003 23.783">
	<g id="Layer_1_4_">
		
			<radialGradient id="SVGID_1_" cx="-3085.9531" cy="-5633.1768" r="9.8962" gradientTransform="matrix(0.8451 -0.5347 -0.608 -0.961 -805.6504 -7075.1797)" gradientUnits="userSpaceOnUse">
			<stop  offset="0" style="stop-color:#FFFFFF"/>
			<stop  offset="1" style="stop-color:#FFFFFF;stop-opacity:0"/>
		</radialGradient>
		<path style="fill-rule:evenodd;clip-rule:evenodd;fill:url(#SVGID_1_);" d="M21-17.9c-1.767-2.833-4.217-4.65-7.35-5.45
			c-3.1-0.833-5.967-0.417-8.6,1.25c-2.633,1.667-4.233,4.083-4.8,7.25c-0.6,3.167-0.017,6.167,1.75,9
			C3.767-3.017,6.217-1.2,9.35-0.4c3.1,0.833,5.967,0.417,8.6-1.25c2.633-1.667,4.25-4.083,4.85-7.25
			C23.4-12.067,22.8-15.067,21-17.9z"/>
	</g>
</symbol>
<symbol  id="flash0.ai_x5F_24_x2F_Layer_114_x2F__x3C_Path_x3E__x5F_1" viewBox="0 -45 39.3 45">
	<g id="Layer_1_3_">
		
			<radialGradient id="SVGID_2_" cx="19.6499" cy="-22.5" r="17.3375" gradientTransform="matrix(1 0 0 -1.2112 0 -49.7529)" gradientUnits="userSpaceOnUse">
			<stop  offset="0" style="stop-color:#FFFFFF"/>
			<stop  offset="1" style="stop-color:#FFFFFF;stop-opacity:0"/>
		</radialGradient>
		<path style="fill-rule:evenodd;clip-rule:evenodd;fill:url(#SVGID_2_);" d="M39.3-22.5c0-6.233-1.917-11.533-5.75-15.9
			c-3.833-4.4-8.466-6.6-13.9-6.6c-5.433,0-10.066,2.2-13.9,6.6C1.917-34.033,0-28.733,0-22.5C0-16.3,1.917-11,5.75-6.6
			S14.217,0,19.65,0c5.434,0,10.067-2.2,13.9-6.6C37.383-11,39.3-16.3,39.3-22.5z"/>
	</g>
</symbol>
<symbol  id="flash0.ai_x5F_24_x2F_Layer_114_x2F__x3C_Path_x3E__x5F_3" viewBox="-0.017 -14.35 60.667 14.367">
	<g id="Layer_1_2_">
		<path style="fill-rule:evenodd;clip-rule:evenodd;" d="M43.1-4.5c2.367,0.767,4.667,1.15,6.9,1.15c3.567,0,7.117-0.45,10.65-1.35
			l-2.3-3l-3-2c-0.4-0.267-1.283-0.4-2.65-0.4C51.233-10.033,50.333-10,50-10h-6c-0.6,0-1.3-0.167-2.1-0.5
			c-1.133-0.467-2.1-0.867-2.9-1.2c-0.967-0.433-2.483-1-4.55-1.7l-2.8-0.95c-1.767,0-5.433,0.45-11,1.35
			c-3.3,0.533-5.15,0.7-5.55,0.5C14.433-12.833,14.067-13,14-13c-0.5,0-1.483-0.1-2.95-0.3c-1.2-0.167-2.433-0.184-3.7-0.05
			c-1.167,0.133-2.217,0.633-3.15,1.5C3-10.717,1.717-9.883,0.35-9.35C0.35-7.783,0.233-6.667,0-6
			c-0.167,0.433,0.883,1.517,3.15,3.25C5.283-1.15,6.683-0.233,7.35,0c0.3,0.1,0.717-0.25,1.25-1.05c0.566-0.867,1.15-1.3,1.75-1.3
			c0.367,0,2.283-0.333,5.75-1c3.5-0.667,6.017-1,7.55-1c1.067,0,3.583-0.467,7.55-1.4c3.433-0.767,5.7-0.967,6.8-0.6
			C39-6.017,40.7-5.4,43.1-4.5z"/>
	</g>
</symbol>
<g>
	
		<use xlink:href="#flash0.ai_x5F_24_x2F_Layer_114_x2F__x3C_Path_x3E__x5F_3"  width="60.667" height="14.367" x="-0.017" y="-14.35" transform="matrix(1 0 0 -1 0 34.6504)" style="overflow:visible;opacity:0.1406;enable-background:new    ;"/>
	
		<radialGradient id="SVGID_3_" cx="29.1748" cy="28.5" r="16.8265" gradientTransform="matrix(1 0 0 -1.4521 0 69.8853)" gradientUnits="userSpaceOnUse">
		<stop  offset="0" style="stop-color:#B4CCDB"/>
		<stop  offset="1" style="stop-color:#99BCD1"/>
	</radialGradient>
	<path style="fill-rule:evenodd;clip-rule:evenodd;fill:url(#SVGID_3_);" d="M44.25,24.15c0.767,0.167,1.566,0.45,2.4,0.85
		c1.333,0.667,2.449,1.116,3.35,1.35L49.45,28.2c-0.233,1.434,0.066,2.7,0.899,3.8c1.334,1.767,2.434,3.65,3.301,5.65L56,40
		c-2,1.333-4.333,2.116-7,2.35c-2.267-0.066-3.934-0.116-5-0.149c-1.866-0.033-3.866,0.35-6,1.149
		c-2.566,1.101-4.25,1.801-5.05,2.101C31.85,45.816,30.083,46,27.65,46c-3.767,0-7.767-0.55-12-1.65h-6.3
		c-0.967,0-2.434-0.833-4.4-2.5l-2.6-2.5c1.767-1.433,3.017-2.483,3.75-3.149C7.3,35.066,8.05,34,8.35,33
		c0.167-0.533,0.333-1.517,0.5-2.95c0.167-1.033,0.433-1.934,0.8-2.7c0.333-0.666,0.833-1.383,1.5-2.149
		c0.667-0.8,1.167-1.534,1.5-2.2c0.167-0.333,0.35-1.6,0.55-3.8c0.167-1.8,0.767-3.083,1.8-3.85c1.767-1.333,4.1-2.783,7-4.35
		l4.15,3.7c2.9,2.833,4.633,5.15,5.2,6.95c0.233,0.8,0.584,2.567,1.051,5.3c0.3,1.666,0.833,3.017,1.6,4.05
		c1.333,1.767,2.55,2.767,3.65,3c0.399-0.333,0.8-0.8,1.199-1.4c0.867-1.233,1.367-2.55,1.5-3.949
		c0.134-1.367,0.667-2.551,1.601-3.551c0.5-0.5,0.967-0.866,1.399-1.1L44.25,24.15z"/>
	<path style="fill-rule:evenodd;clip-rule:evenodd;fill:#CCE0ED;" d="M26.15,14.7c2.9,2.833,4.633,5.15,5.2,6.95
		c0.5,1.667,0.9,3.65,1.2,5.95c-2.166,3.334-5.133,7.134-8.9,11.4c-0.333-0.1-0.65-0.283-0.95-0.55
		c-0.6-0.566-0.833-1.267-0.7-2.101c0.367-2.1,0.033-5.55-1-10.35c-0.6-2.833-1.117-4.733-1.55-5.7c-0.633-1.5-1.567-2.483-2.8-2.95
		c-1.033-0.4-2.033-0.467-3-0.2c0.267-0.733,0.717-1.333,1.35-1.8c1.767-1.333,4.1-2.783,7-4.35L26.15,14.7z"/>
	<path style="fill-rule:evenodd;clip-rule:evenodd;fill:#91AEBD;" d="M44.35,35c0.267-0.4,0.483-1.184,0.65-2.35L45.65,28l0.55-1.1
		c0.467-0.767,1.05-1.2,1.75-1.301c0.833,0.367,1.517,0.617,2.05,0.75L49.45,28.2c-0.233,1.434,0.066,2.7,0.899,3.8
		c1.334,1.767,2.434,3.65,3.301,5.65L56,40c-2,1.333-4.333,2.116-7,2.35c-2.267-0.066-3.934-0.116-5-0.149
		c-1.866-0.033-3.866,0.35-6,1.149c-2.566,1.101-4.25,1.801-5.05,2.101C31.85,45.816,30.083,46,27.65,46
		c-3.767,0-7.767-0.55-12-1.65h-6.3c-0.467,0-1.067-0.199-1.8-0.6c0.833-0.333,2.017-1.134,3.55-2.4
		C12.533,40.184,13.833,39.4,15,39c1.667-0.533,3.583-1.1,5.75-1.7c1.367-0.533,2.117-1.517,2.25-2.95
		c0.3-2.267,0.483-3.899,0.55-4.899c0.133-1.733,0.067-2.884-0.2-3.45c-0.3-0.566-0.5-1.517-0.6-2.85l-0.1-1.8l5.7-3l0.85-0.3
		c1.1,1.4,1.816,2.6,2.149,3.6c0.233,0.8,0.584,2.567,1.051,5.3c0.3,1.666,0.833,3.017,1.6,4.05c1.333,1.767,2.55,2.767,3.65,3
		c-1.767,2.434-3.434,4.55-5,6.35l3.699-0.6c2.667-0.634,4.551-1.434,5.65-2.4C43.333,36.184,44.116,35.4,44.35,35z"/>
	<g>
		
			<use xlink:href="#flash0.ai_x5F_24_x2F_Layer_114_x2F__x3C_Path_x3E__x5F_1"  width="39.3" height="45" y="-45" transform="matrix(1 0 0 -1 1.3501 0)" style="overflow:visible;opacity:0.4805;enable-background:new    ;"/>
		
			<use xlink:href="#flash0.ai_x5F_24_x2F_Layer_114_x2F__x3C_Path_x3E_"  width="23.003" height="23.783" x="0.022" y="-23.767" transform="matrix(1 0 0 -1 31.4004 18.0498)" style="overflow:visible;opacity:0.4805;enable-background:new    ;"/>
	</g>
</g>
</svg>
