<?xml version="1.0" encoding="iso-8859-1"?>
<!-- Generator: Adobe Illustrator 15.1.0, SVG Export Plug-In . SVG Version: 6.00 Build 0)  -->
<!DOCTYPE svg PUBLIC "-//W3C//DTD SVG 1.1//EN" "http://www.w3.org/Graphics/SVG/1.1/DTD/svg11.dtd">
<svg version="1.1" id="flash0.ai" xmlns="http://www.w3.org/2000/svg" xmlns:xlink="http://www.w3.org/1999/xlink" x="0px" y="0px"
	 width="86.45px" height="51.35px" viewBox="0 0 86.45 51.35" style="enable-background:new 0 0 86.45 51.35;" xml:space="preserve"
	>
<symbol  id="flash0.ai_x5F_19_x2F_Layer_114_x2F__x3C_Group_x3E_" viewBox="-0.05 -34.525 45.45 34.525">
	<g id="Layer_1_3_">
		<g>
			<path style="fill-rule:evenodd;clip-rule:evenodd;fill:#FFFFFF;" d="M17.1-13l0.15-0.05v-0.05h0.05l0.15-0.15l0.2-0.35
				c0.167-0.167,0.217-0.383,0.15-0.65c-0.066-0.3-0.233-0.517-0.5-0.65c-0.267-0.133-0.533-0.117-0.8,0.05
				c-0.233,0.133-0.383,0.367-0.45,0.7c-0.033,0.3,0.034,0.566,0.2,0.8l0.05,0.05c0.1,0.167,0.233,0.267,0.4,0.3H17.1z"/>
			<path style="fill-rule:evenodd;clip-rule:evenodd;fill:#FFFFFF;" d="M20.55-14.3c-0.466,0-0.7,0.25-0.7,0.75s0.233,0.75,0.7,0.75
				c0.5,0,0.75-0.25,0.75-0.75S21.05-14.3,20.55-14.3z"/>
			<path style="fill-rule:evenodd;clip-rule:evenodd;fill:#FFFFFF;" d="M25.5-13.4c0-0.267-0.1-0.467-0.3-0.6
				c-0.2-0.133-0.417-0.167-0.65-0.1c-0.6,0.1-0.9,0.55-0.9,1.35c0,0.433,0.2,0.683,0.6,0.75s0.683-0.067,0.85-0.4
				c0.267-0.2,0.4-0.417,0.4-0.65V-13.4z"/>
			<path style="fill-rule:evenodd;clip-rule:evenodd;fill:#FFFFFF;" d="M29.2-11.5c0.233,0.433,0.583,0.5,1.05,0.2l0.15-0.05
				c0.267,0.033,0.5-0.033,0.7-0.2c0.2-0.2,0.25-0.434,0.15-0.7c-0.3-0.9-0.767-1.367-1.4-1.4c-0.4,0-0.633,0.2-0.7,0.6
				c-0.2,0.133-0.3,0.35-0.3,0.65C28.85-12.267,28.967-11.967,29.2-11.5z"/>
			<path style="fill-rule:evenodd;clip-rule:evenodd;fill:#FFFFFF;" d="M33.15-11.85c0.733,0.167,1.25,0.017,1.55-0.45
				c0.3-0.467,0.216-0.967-0.25-1.5c-0.434-0.434-0.967-0.6-1.6-0.5c-0.467,0.066-0.733,0.35-0.8,0.85
				c-0.033,0.167,0.067,0.483,0.3,0.95l0.3,0.3C32.783-12,32.95-11.883,33.15-11.85z"/>
			<path style="fill-rule:evenodd;clip-rule:evenodd;fill:#FFFFFF;" d="M31.5-14.65c0.5,0,0.75-0.25,0.75-0.75S32-16.15,31.5-16.15
				c-0.467,0-0.7,0.25-0.7,0.75S31.033-14.65,31.5-14.65z"/>
			<path style="fill-rule:evenodd;clip-rule:evenodd;fill:#FFFFFF;" d="M29.7-14.3c0.466,0,0.7-0.25,0.7-0.75s-0.233-0.75-0.7-0.75
				c-0.5,0-0.75,0.25-0.75,0.75S29.2-14.3,29.7-14.3z"/>
			<path style="fill-rule:evenodd;clip-rule:evenodd;fill:#FFFFFF;" d="M20.95-18.75l-0.05-0.3l-0.1-0.3
				c-0.133-0.3-0.433-0.45-0.9-0.45c-0.233-0.034-0.433,0.066-0.6,0.3c-0.167,0.2-0.216,0.417-0.15,0.65c0.1,0.3,0.233,0.5,0.4,0.6
				l0.05,0.05c0.233,0.367,0.55,0.467,0.95,0.3C20.95-18.1,21.083-18.383,20.95-18.75z"/>
			<path style="fill-rule:evenodd;clip-rule:evenodd;fill:#FFFFFF;" d="M25.65-18.3c0.133,0.2,0.333,0.3,0.6,0.3
				c0.467,0,0.7-0.25,0.7-0.75s-0.233-0.75-0.7-0.75c-0.133,0-0.233,0.033-0.3,0.1v-0.05c0.1-0.167,0.1-0.316,0-0.45
				c-0.133-0.4-0.383-0.783-0.75-1.15c-0.1-0.167-0.25-0.333-0.45-0.5c-0.1-0.067-0.317-0.1-0.65-0.1c-0.3,0-0.517,0.117-0.65,0.35
				c-0.333,0.267-0.4,0.583-0.2,0.95l0.15,0.2c0.233,0.633,0.783,1.066,1.65,1.3c0.2,0.067,0.367,0.05,0.5-0.05
				C25.483-18.667,25.517-18.467,25.65-18.3z"/>
			<path style="fill-rule:evenodd;clip-rule:evenodd;fill:#FFFFFF;" d="M29.45-19.2c0.033,0.167,0.15,0.317,0.35,0.45
				c0,0.5,0.233,0.75,0.7,0.75h0.35c0.4,0,0.633-0.2,0.7-0.6c0.067-0.4-0.083-0.667-0.45-0.8c0-0.2-0.067-0.367-0.2-0.5
				c-0.033-0.333-0.25-0.65-0.65-0.95c-0.2-0.133-0.417-0.15-0.65-0.05c-0.267,0.1-0.434,0.267-0.5,0.5
				C28.967-19.967,29.083-19.567,29.45-19.2z"/>
			<path style="fill-rule:evenodd;clip-rule:evenodd;fill:#FFFFFF;" d="M33.75-19.6c-0.267,0.3-0.25,0.6,0.05,0.9
				c0.567,0.5,1.083,0.55,1.55,0.15c0.2-0.1,0.333-0.267,0.4-0.5v-0.3l0.05-0.1c0.034-0.433-0.083-0.816-0.35-1.15
				c-0.3-0.333-0.667-0.517-1.1-0.55c-0.2,0-0.367,0.066-0.5,0.2c-0.167,0.167-0.25,0.35-0.25,0.55
				C33.6-20.133,33.65-19.867,33.75-19.6z"/>
			<path style="fill-rule:evenodd;clip-rule:evenodd;fill:#FFFFFF;" d="M29.2-24.2c0.233-0.2,0.316-0.433,0.25-0.7
				c-0.1-0.267-0.284-0.434-0.55-0.5c0.067-0.267,0-0.5-0.2-0.7c-0.8-0.833-1.583-1.033-2.35-0.6c-0.4,0.233-0.483,0.567-0.25,1
				c0.133,0.267,0.316,0.517,0.55,0.75l0.1,0.25C27.517-23.6,28.333-23.433,29.2-24.2z"/>
			<path style="fill-rule:evenodd;clip-rule:evenodd;fill:#FFFFFF;" d="M21.8-22.6c0.333-0.267,0.417-0.583,0.25-0.95
				c0.2-0.467,0.1-0.8-0.3-1c-0.167-0.367-0.467-0.483-0.9-0.35c-0.434,0.133-0.6,0.417-0.5,0.85l0.2,0.5l-0.05,0.5
				c-0.033,0.367,0.133,0.583,0.5,0.65C21.333-22.3,21.6-22.367,21.8-22.6z"/>
			<path style="fill-rule:evenodd;clip-rule:evenodd;fill:#FFFFFF;" d="M16.7-21.5l0.4,0.55c0.267,0.133,0.483,0.167,0.65,0.1
				c0.1,0,0.2-0.05,0.3-0.15c0.434-0.233,0.567-0.6,0.4-1.1c-0.133-0.467-0.483-0.7-1.05-0.7c-0.3,0-0.55,0.183-0.75,0.55
				C16.583-21.983,16.6-21.733,16.7-21.5z"/>
			<path style="fill-rule:evenodd;clip-rule:evenodd;fill:#FFFFFF;" d="M15.5-19.2c-0.3,0.167-0.417,0.417-0.35,0.75
				c0.067,0.333,0.25,0.534,0.55,0.6c0.233,0.233,0.517,0.267,0.85,0.1c0.367-0.2,0.5-0.483,0.4-0.85
				c-0.067-0.333-0.25-0.566-0.55-0.7C16.1-19.4,15.8-19.367,15.5-19.2z"/>
			<path style="fill-rule:evenodd;clip-rule:evenodd;fill:#FFFFFF;" d="M13.25-20c-0.5,0-0.75,0.25-0.75,0.75s0.25,0.75,0.75,0.75
				c0.467,0,0.7-0.25,0.7-0.75S13.717-20,13.25-20z"/>
			<path style="fill-rule:evenodd;clip-rule:evenodd;fill:#FFFFFF;" d="M17.45-18.15c0.433,0.267,0.783,0.217,1.05-0.15h0.05
				l0.05-0.05c0.267-0.066,0.433-0.25,0.5-0.55l0.05-0.05c0.033-0.433-0.15-0.8-0.55-1.1c-0.233-0.167-0.483-0.167-0.75,0
				c-0.267,0.167-0.383,0.383-0.35,0.65l-0.25,0.3C16.983-18.7,17.05-18.383,17.45-18.15z"/>
			<path style="fill-rule:evenodd;clip-rule:evenodd;fill:#FFFFFF;" d="M13.4-21.5c0.467,0,0.7-0.25,0.7-0.75S13.867-23,13.4-23
				s-0.7,0.25-0.7,0.75S12.933-21.5,13.4-21.5z"/>
			<path style="fill-rule:evenodd;clip-rule:evenodd;fill:#FFFFFF;" d="M8.8-21.25c-0.033,0.333,0.1,0.567,0.4,0.7
				c0.3,0.1,0.566,0.066,0.8-0.1h0.25c0.267-0.067,0.55-0.25,0.85-0.55c0.167-0.167,0.233-0.383,0.2-0.65
				c-0.033-0.233-0.15-0.4-0.35-0.5c-0.5-0.333-1.017-0.35-1.55-0.05c0.067-0.167,0.067-0.317,0-0.45c0.1,0.033,0.2,0.033,0.3,0
				c0.233,0.067,0.417,0,0.55-0.2c0.133-0.133,0.217-0.317,0.25-0.55c0-0.233-0.083-0.4-0.25-0.5c-0.167-0.167-0.35-0.267-0.55-0.3
				c-0.267-0.133-0.5-0.067-0.7,0.2H8.95c-0.133,0.2-0.2,0.383-0.2,0.55c-0.2-0.1-0.433-0.15-0.7-0.15
				c-0.433,0-0.716,0.233-0.85,0.7c-0.067,0.3,0.05,0.6,0.35,0.9C7.717-22,7.933-21.933,8.2-22c0.233,0.233,0.5,0.267,0.8,0.1
				L8.8-21.25z"/>
			<path style="fill-rule:evenodd;clip-rule:evenodd;fill:#FFFFFF;" d="M16.6-23.1c0.3-0.2,0.417-0.483,0.35-0.85
				c-0.067-0.367-0.3-0.55-0.7-0.55L16-24.45c-0.533-0.367-1.083-0.483-1.65-0.35c-0.267,0.066-0.434,0.25-0.5,0.55
				c-0.067,0.3,0,0.533,0.2,0.7l0.45,0.4c0.067,0.3,0.4,0.6,1,0.9c0.467,0.167,0.817,0.083,1.05-0.25
				C16.65-22.667,16.667-22.867,16.6-23.1z"/>
			<path style="fill-rule:evenodd;clip-rule:evenodd;fill:#FFFFFF;" d="M30.85-24.35c-0.467-0.167-0.934-0.117-1.4,0.15
				c-0.167,0.1-0.284,0.25-0.35,0.45c-0.067,0.233-0.033,0.417,0.1,0.55c0.633,0.867,1.483,1.067,2.55,0.6
				c0.167-0.066,0.283-0.217,0.35-0.45c0.033-0.2,0-0.383-0.1-0.55C31.633-24.067,31.25-24.317,30.85-24.35z"/>
			<path style="fill-rule:evenodd;clip-rule:evenodd;fill:#FFFFFF;" d="M27.65-23.15c-0.566,0.033-0.933,0.283-1.1,0.75
				c-0.2,0.467-0.133,0.933,0.2,1.4c0.3,0.4,0.65,0.467,1.05,0.2c0.3,0.2,0.667,0.25,1.1,0.15c0.3-0.1,0.483-0.35,0.55-0.75
				c0.033-0.5-0.133-0.917-0.5-1.25C28.583-23.017,28.15-23.183,27.65-23.15z"/>
			<path style="fill-rule:evenodd;clip-rule:evenodd;fill:#FFFFFF;" d="M25.45-22.6c0.333-0.2,0.45-0.467,0.35-0.8
				c-0.333-0.967-0.883-1.333-1.65-1.1c-0.267,0.1-0.45,0.233-0.55,0.4c-0.267,0.067-0.45,0.233-0.55,0.5
				c-0.133,0.3-0.083,0.55,0.15,0.75l0.55,0.35c0.167,0.2,0.4,0.25,0.7,0.15C24.817-22.35,25.15-22.433,25.45-22.6z"/>
			<path style="fill-rule:evenodd;clip-rule:evenodd;fill:#FFFFFF;" d="M4.25-23.35c0.067,0.2,0.167,0.367,0.3,0.5
				c0.333,0.3,0.65,0.3,0.95,0l0.25,0.05c0.267,0,0.45-0.1,0.55-0.3c0.2-0.167,0.3-0.367,0.3-0.6c0-0.267-0.117-0.483-0.35-0.65
				c0-0.033-0.083-0.083-0.25-0.15c0.133-0.233,0.15-0.483,0.05-0.75c-0.133-0.267-0.35-0.4-0.65-0.4H5.05
				c-0.333,0-0.55,0.167-0.65,0.5c-0.1,0.3-0.05,0.566,0.15,0.8c-0.167,0.067-0.267,0.15-0.3,0.25
				C4.15-23.867,4.15-23.617,4.25-23.35z"/>
			<path style="fill-rule:evenodd;clip-rule:evenodd;fill:#FFFFFF;" d="M0.35-24.35c0.333,0.333,0.683,0.317,1.05-0.05
				c0.367-0.333,0.383-0.667,0.05-1l-0.2-0.2c-0.333-0.333-0.683-0.316-1.05,0.05c-0.333,0.333-0.333,0.667,0,1L0.35-24.35z"/>
			<path style="fill-rule:evenodd;clip-rule:evenodd;fill:#FFFFFF;" d="M12.95-24.6c0.3-0.133,0.417-0.35,0.35-0.65
				c-0.066-0.867-0.483-1.367-1.25-1.5c-0.433-0.1-0.783-0.017-1.05,0.25c-0.267,0.3-0.3,0.65-0.1,1.05
				c-0.267,0.2-0.333,0.467-0.2,0.8c0.133,0.367,0.367,0.533,0.7,0.5C11.833-24.15,12.35-24.3,12.95-24.6z"/>
			<path style="fill-rule:evenodd;clip-rule:evenodd;fill:#FFFFFF;" d="M19.15-26.05c0-0.5-0.25-0.75-0.75-0.75
				s-0.75,0.25-0.75,0.75v0.65c0,0.5,0.25,0.75,0.75,0.75s0.75-0.25,0.75-0.75V-26.05z"/>
			<path style="fill-rule:evenodd;clip-rule:evenodd;fill:#FFFFFF;" d="M19.05-27.5c0.5,0,0.75-0.25,0.75-0.75S19.55-29,19.05-29
				c-0.466,0-0.7,0.25-0.7,0.75S18.583-27.5,19.05-27.5z"/>
			<path style="fill-rule:evenodd;clip-rule:evenodd;fill:#FFFFFF;" d="M27.05-27c0.467,0,0.7-0.25,0.7-0.75s-0.233-0.75-0.7-0.75
				c-0.466,0-0.7,0.25-0.7,0.75S26.583-27,27.05-27z"/>
			<path style="fill-rule:evenodd;clip-rule:evenodd;fill:#FFFFFF;" d="M27.7-6.25v0.15c-0.133,0.367-0.017,0.65,0.35,0.85
				c0.333,0.2,0.633,0.133,0.9-0.2c0.2-0.1,0.35-0.3,0.45-0.6c0.133-0.367,0.017-0.633-0.35-0.8c-0.466-0.333-0.867-0.333-1.2,0
				C27.75-6.717,27.7-6.517,27.7-6.25z"/>
			<path style="fill-rule:evenodd;clip-rule:evenodd;fill:#FFFFFF;" d="M26.15-7.25c-0.066-0.467-0.283-0.767-0.65-0.9
				S24.75-8.2,24.35-7.9c-0.133,0.133-0.2,0.3-0.2,0.5c0,0.233,0.067,0.417,0.2,0.55c0.167,0.133,0.367,0.2,0.6,0.2
				c0.1,0.1,0.25,0.15,0.45,0.15c0.2,0,0.383-0.067,0.55-0.2C26.117-6.867,26.183-7.05,26.15-7.25z"/>
			<path style="fill-rule:evenodd;clip-rule:evenodd;fill:#FFFFFF;" d="M23.9-9.3c-0.467,0-0.7,0.25-0.7,0.75s0.233,0.75,0.7,0.75
				s0.7-0.25,0.7-0.75S24.367-9.3,23.9-9.3z"/>
			<path style="fill-rule:evenodd;clip-rule:evenodd;fill:#FFFFFF;" d="M28.9-7.85c0.133-0.167,0.2-0.35,0.2-0.55
				c0-0.2-0.067-0.367-0.2-0.5c-0.5-0.467-1.117-0.6-1.85-0.4L26.7-9.1c-0.267,0.067-0.483,0.184-0.65,0.35
				c-0.133,0.133-0.2,0.3-0.2,0.5c0,0.233,0.066,0.417,0.2,0.55c0.4,0.4,0.883,0.567,1.45,0.5C28-7.233,28.467-7.45,28.9-7.85z"/>
			<path style="fill-rule:evenodd;clip-rule:evenodd;fill:#FFFFFF;" d="M32.75-4.75c0-0.467-0.25-0.7-0.75-0.7s-0.75,0.233-0.75,0.7
				v0.2c0,0.466,0.25,0.7,0.75,0.7s0.75-0.233,0.75-0.7V-4.75z"/>
			<path style="fill-rule:evenodd;clip-rule:evenodd;fill:#FFFFFF;" d="M38.2-3.3c-0.5,0-0.75,0.25-0.75,0.75S37.7-1.8,38.2-1.8
				c0.466,0,0.7-0.25,0.7-0.75S38.667-3.3,38.2-3.3z"/>
			<path style="fill-rule:evenodd;clip-rule:evenodd;fill:#FFFFFF;" d="M35.5-1.5c-0.467,0-0.7,0.25-0.7,0.75S35.033,0,35.5,0
				c0.5,0,0.75-0.25,0.75-0.75S36-1.5,35.5-1.5z"/>
			<path style="fill-rule:evenodd;clip-rule:evenodd;fill:#FFFFFF;" d="M36.35-3.3c-0.467,0-0.7,0.25-0.7,0.75s0.233,0.75,0.7,0.75
				s0.7-0.25,0.7-0.75S36.817-3.3,36.35-3.3z"/>
			<path style="fill-rule:evenodd;clip-rule:evenodd;fill:#FFFFFF;" d="M38.85-4.8c-0.467,0-0.7,0.25-0.7,0.75s0.233,0.75,0.7,0.75
				s0.7-0.25,0.7-0.75S39.317-4.8,38.85-4.8z"/>
			<path style="fill-rule:evenodd;clip-rule:evenodd;fill:#FFFFFF;" d="M41.2-0.3c0.466,0,0.7-0.25,0.7-0.75S41.667-1.8,41.2-1.8
				c-0.5,0-0.75,0.25-0.75,0.75S40.7-0.3,41.2-0.3z"/>
			<path style="fill-rule:evenodd;clip-rule:evenodd;fill:#FFFFFF;" d="M41.35-3c0.467,0,0.7-0.25,0.7-0.75s-0.233-0.75-0.7-0.75
				s-0.7,0.25-0.7,0.75S40.883-3,41.35-3z"/>
			<path style="fill-rule:evenodd;clip-rule:evenodd;fill:#FFFFFF;" d="M40.85-4.5c0.467,0,0.7-0.25,0.7-0.75S41.317-6,40.85-6
				s-0.7,0.25-0.7,0.75S40.383-4.5,40.85-4.5z"/>
			<path style="fill-rule:evenodd;clip-rule:evenodd;fill:#FFFFFF;" d="M44.7-3.65c0.466,0,0.7-0.25,0.7-0.75s-0.233-0.75-0.7-0.75
				c-0.5,0-0.75,0.25-0.75,0.75S44.2-3.65,44.7-3.65z"/>
			<path style="fill-rule:evenodd;clip-rule:evenodd;fill:#FFFFFF;" d="M40.2-13c-0.5,0-0.75,0.25-0.75,0.75s0.25,0.75,0.75,0.75
				c0.466,0,0.7-0.25,0.7-0.75S40.667-13,40.2-13z"/>
			<path style="fill-rule:evenodd;clip-rule:evenodd;fill:#FFFFFF;" d="M41.1-9.35c0.367,0.067,0.633-0.1,0.8-0.5
				c0.167-0.367,0.133-0.7-0.1-1c-0.233-0.267-0.55-0.417-0.95-0.45c-0.267-0.034-0.467,0.05-0.6,0.25
				c-0.133,0.2-0.167,0.417-0.1,0.65c-0.367,0.066-0.55,0.283-0.55,0.65v1.6c-0.1-0.1-0.233-0.15-0.4-0.15l-0.25,0.05l0.1-0.3
				c0.1-0.333,0-0.583-0.3-0.75c0.167-0.233,0.2-0.467,0.1-0.7c0.066-0.2,0.066-0.4,0-0.6c-0.1-0.2-0.267-0.316-0.5-0.35
				c0.2-0.333,0.383-0.583,0.55-0.75c0.333-0.367,0.317-0.716-0.05-1.05s-0.717-0.333-1.05,0c-0.466,0.533-0.8,1.083-1,1.65
				c-0.1,0.233-0.083,0.434,0.05,0.6c-0.167,0.167-0.267,0.3-0.3,0.4l-0.05,0.05L36.3-9.9c-0.2,0.167-0.267,0.367-0.2,0.6
				c0.033,0.233,0.167,0.4,0.4,0.5h-0.15c-0.533,0-0.767,0.3-0.7,0.9c-0.4-0.233-0.85-0.217-1.35,0.05
				c-0.167,0.067-0.283,0.217-0.35,0.45c-0.034,0.2,0,0.383,0.1,0.55c0.1,0.167,0.25,0.283,0.45,0.35c0.133,0.433,0.433,0.6,0.9,0.5
				c0.3-0.067,0.533-0.25,0.7-0.55c0.167-0.267,0.2-0.534,0.1-0.8l0.15,0.05h0.05c-0.1,0.2-0.117,0.4-0.05,0.6
				c0.066,0.267,0.217,0.434,0.45,0.5L36.9-6l-0.1,0.1c-0.133,0.1-0.2,0.25-0.2,0.45c-0.233,0-0.417,0.117-0.55,0.35
				c0-0.467-0.233-0.7-0.7-0.7c-0.5,0-0.967,0.083-1.4,0.25c-0.167,0.066-0.284,0.216-0.35,0.45c-0.033,0.233,0,0.434,0.1,0.6
				c0.066,0.133,0.167,0.217,0.3,0.25c0,0.2,0.117,0.367,0.35,0.5C34.05-3.583,33.933-3.3,34-2.9s0.3,0.6,0.7,0.6
				c0.367,0,0.6-0.184,0.7-0.55c0.067-0.333-0.017-0.6-0.25-0.8h0.05c0.533,0,0.767-0.3,0.7-0.9l0.05-0.1
				C36.017-4.217,36.267-4,36.7-4c0.4,0,0.633-0.217,0.7-0.65c0.2,0,0.367-0.067,0.5-0.2L38-5c0.4-0.033,0.633-0.25,0.7-0.65
				c0.066-0.4-0.05-0.667-0.35-0.8c-0.167-0.233-0.133-0.517,0.1-0.85l0.05-0.05c0.067,0.367,0.3,0.55,0.7,0.55
				c0.2,0,0.367-0.067,0.5-0.2c0.2,0.3,0.483,0.4,0.85,0.3C40.917-6.767,41.1-7,41.1-7.4V-9.35z"/>
			<path style="fill-rule:evenodd;clip-rule:evenodd;fill:#FFFFFF;" d="M33.15-7.9c0.3,0.3,0.6,0.35,0.9,0.15l0.15-0.1
				c0.367-0.133,0.55-0.367,0.55-0.7v-0.2c0-0.367-0.2-0.6-0.6-0.7c-0.133-0.167-0.333-0.216-0.6-0.15c-0.267,0-0.466,0.067-0.6,0.2
				c-0.434,0.167-1.133,0.25-2.1,0.25c-0.367,0-0.6,0.167-0.7,0.5c-0.066,0.333,0,0.6,0.2,0.8c-0.1,0.267-0.067,0.517,0.1,0.75
				c-0.067,0.267,0.017,0.5,0.25,0.7c0.267,0.233,0.55,0.283,0.85,0.15C32.017-6.483,32.333-6.733,32.5-7
				c0.1-0.233,0.1-0.483,0-0.75L33.15-7.9z"/>
			<path style="fill-rule:evenodd;clip-rule:evenodd;fill:#FFFFFF;" d="M37.5-17c0.5,0,0.75-0.25,0.75-0.75S38-18.5,37.5-18.5
				c-0.467,0-0.7,0.25-0.7,0.75S37.033-17,37.5-17z"/>
			<path style="fill-rule:evenodd;clip-rule:evenodd;fill:#FFFFFF;" d="M24.9-17.5c-0.467,0-0.7,0.25-0.7,0.75S24.433-16,24.9-16
				s0.7-0.25,0.7-0.75S25.367-17.5,24.9-17.5z"/>
			<path style="fill-rule:evenodd;clip-rule:evenodd;fill:#FFFFFF;" d="M19.45-17.1c-0.333-0.333-0.684-0.333-1.05,0
				c-0.367,0.367-0.383,0.717-0.05,1.05c0.1,0.033,0.15,0.1,0.15,0.2c0.1,0.467,0.4,0.633,0.9,0.5c0.467-0.133,0.65-0.433,0.55-0.9
				C19.883-16.483,19.717-16.767,19.45-17.1z"/>
			<path style="fill-rule:evenodd;clip-rule:evenodd;fill:#FFFFFF;" d="M37.15-14.2c0.367,0.333,0.717,0.333,1.05,0
				c0.367-0.367,0.367-0.716,0-1.05l-0.3-0.35c-0.333-0.333-0.683-0.316-1.05,0.05c-0.367,0.333-0.383,0.667-0.05,1L37.15-14.2z"/>
			<path style="fill-rule:evenodd;clip-rule:evenodd;fill:#FFFFFF;" d="M34.75-16.55c0-0.5-0.25-0.75-0.75-0.75
				s-0.75,0.25-0.75,0.75v0.15c0,0.5,0.25,0.75,0.75,0.75s0.75-0.25,0.75-0.75V-16.55z"/>
			<path style="fill-rule:evenodd;clip-rule:evenodd;fill:#FFFFFF;" d="M27.85-18c-0.434,0-0.65,0.25-0.65,0.75
				s0.216,0.75,0.65,0.75c0.467,0,0.7-0.25,0.7-0.75S28.317-18,27.85-18z"/>
			<path style="fill-rule:evenodd;clip-rule:evenodd;fill:#FFFFFF;" d="M35.55-22.55c0.133-0.133,0.2-0.317,0.2-0.55
				c0-0.2-0.067-0.367-0.2-0.5c-0.3-0.233-0.617-0.367-0.95-0.4c-0.367,0-0.65,0.167-0.85,0.5c-0.233,0.433-0.1,0.867,0.4,1.3
				c0.367,0.333,0.717,0.333,1.05,0l0.15-0.2L35.55-22.55z"/>
			<path style="fill-rule:evenodd;clip-rule:evenodd;fill:#FFFFFF;" d="M33.2-28.3c-0.467-0.034-0.717,0.183-0.75,0.65
				c-0.034,0.467,0.15,0.733,0.55,0.8c0.267,0.2,0.567,0.217,0.9,0.05c0.333-0.167,0.45-0.434,0.35-0.8
				C34.117-28.067,33.767-28.3,33.2-28.3z"/>
			<path style="fill-rule:evenodd;clip-rule:evenodd;fill:#FFFFFF;" d="M29.65-30.85c0.4-0.066,0.6-0.316,0.6-0.75
				c-0.033-0.467-0.283-0.7-0.75-0.7l-0.3,0.05c-0.367-0.067-0.65,0.033-0.85,0.3c-0.133,0.267-0.15,0.567-0.05,0.9
				c0.067,0.367,0.267,0.55,0.6,0.55C29.2-30.467,29.45-30.583,29.65-30.85z"/>
			<path style="fill-rule:evenodd;clip-rule:evenodd;fill:#FFFFFF;" d="M26.25-30.15c0.467,0,0.7-0.25,0.7-0.75
				s-0.233-0.75-0.7-0.75c-0.5,0-0.75,0.25-0.75,0.75S25.75-30.15,26.25-30.15z"/>
			<path style="fill-rule:evenodd;clip-rule:evenodd;fill:#FFFFFF;" d="M32.2-31.8c0.333,0,0.55-0.167,0.65-0.5
				c0.1-0.3,0.05-0.567-0.15-0.8c0.333-0.333,0.333-0.667,0-1l-0.15-0.15c-0.333-0.367-0.683-0.367-1.05,0
				c-0.333,0.333-0.333,0.683,0,1.05l0.1,0.15c-0.167,0.233-0.2,0.483-0.1,0.75C31.633-31.967,31.867-31.8,32.2-31.8z"/>
			<path style="fill-rule:evenodd;clip-rule:evenodd;fill:#FFFFFF;" d="M34.4-29.9c0.2-0.233,0.233-0.5,0.1-0.8
				c-0.1-0.333-0.317-0.483-0.65-0.45c-0.567,0.033-0.917,0.267-1.05,0.7c-0.133,0.434-0.017,0.85,0.35,1.25
				c0.267,0.3,0.567,0.333,0.9,0.1C34.35-29.3,34.467-29.567,34.4-29.9z"/>
			<path style="fill-rule:evenodd;clip-rule:evenodd;fill:#FFFFFF;" d="M35.65-30.6c0.133,0.133,0.317,0.167,0.55,0.1
				c0.2-0.067,0.35-0.183,0.45-0.35c0.233-0.333,0.15-0.667-0.25-1c-0.233-0.2-0.533-0.3-0.9-0.3c-0.467,0-0.7,0.25-0.7,0.75
				s0.233,0.75,0.7,0.75L35.65-30.6z"/>
			<path style="fill-rule:evenodd;clip-rule:evenodd;fill:#FFFFFF;" d="M35.85-27c-0.467,0-0.7,0.25-0.7,0.75s0.233,0.75,0.7,0.75
				s0.7-0.25,0.7-0.75S36.317-27,35.85-27z"/>
			<path style="fill-rule:evenodd;clip-rule:evenodd;fill:#FFFFFF;" d="M30.5-25c0.5,0,0.75-0.25,0.75-0.75S31-26.5,30.5-26.5
				c-0.467,0-0.7,0.25-0.7,0.75S30.033-25,30.5-25z"/>
			<path style="fill-rule:evenodd;clip-rule:evenodd;fill:#FFFFFF;" d="M21.05-20.15c0.333,0,0.567-0.15,0.7-0.45
				c0.1-0.267,0.067-0.517-0.1-0.75c-0.066-0.333-0.283-0.533-0.65-0.6c-0.4-0.033-0.667,0.117-0.8,0.45l-0.1,0.15L20-21.1
				c-0.067,0.3,0,0.533,0.2,0.7c0.2,0.2,0.433,0.267,0.7,0.2L21.05-20.15z"/>
			<path style="fill-rule:evenodd;clip-rule:evenodd;fill:#FFFFFF;" d="M5.55-22.65c-0.466,0-0.7,0.25-0.7,0.75s0.233,0.75,0.7,0.75
				c0.5,0,0.75-0.25,0.75-0.75S6.05-22.65,5.55-22.65z"/>
			<path style="fill-rule:evenodd;clip-rule:evenodd;fill:#FFFFFF;" d="M6.9-17.8c0.467,0,0.7-0.25,0.7-0.75S7.367-19.3,6.9-19.3
				s-0.7,0.25-0.7,0.75S6.433-17.8,6.9-17.8z"/>
			<path style="fill-rule:evenodd;clip-rule:evenodd;fill:#FFFFFF;" d="M9.45-16.2c0.333-0.367,0.316-0.716-0.05-1.05
				s-0.717-0.333-1.05,0C8.117-17.017,8-16.733,8-16.4c-0.033,0.433,0.183,0.667,0.65,0.7C9.083-15.633,9.35-15.8,9.45-16.2z"/>
			<path style="fill-rule:evenodd;clip-rule:evenodd;fill:#FFFFFF;" d="M10.05-19.15c-0.466,0-0.7,0.25-0.7,0.75
				s0.233,0.75,0.7,0.75c0.5,0,0.75-0.25,0.75-0.75S10.55-19.15,10.05-19.15z"/>
			<path style="fill-rule:evenodd;clip-rule:evenodd;fill:#FFFFFF;" d="M12.55-16.3c-0.466,0-0.7,0.25-0.7,0.75s0.233,0.75,0.7,0.75
				c0.5,0,0.75-0.25,0.75-0.75S13.05-16.3,12.55-16.3z"/>
			<path style="fill-rule:evenodd;clip-rule:evenodd;fill:#FFFFFF;" d="M14.75-15.9c0.233-0.1,0.35-0.267,0.35-0.5
				c0.033-0.267-0.033-0.483-0.2-0.65c0.233-0.167,0.3-0.4,0.2-0.7c-0.133-0.433-0.483-0.683-1.05-0.75c-0.4,0-0.633,0.2-0.7,0.6
				c-0.067,0.4,0.066,0.683,0.4,0.85c-0.233,0.167-0.367,0.383-0.4,0.65c-0.1,0.433,0.066,0.717,0.5,0.85
				C14.283-15.417,14.583-15.533,14.75-15.9z"/>
			<path style="fill-rule:evenodd;clip-rule:evenodd;fill:#FFFFFF;" d="M39.5-18.5c0.5,0,0.75-0.25,0.75-0.75S40-20,39.5-20
				c-0.467,0-0.7,0.25-0.7,0.75S39.033-18.5,39.5-18.5z"/>
		</g>
	</g>
</symbol>
<symbol  id="flash0.ai_x5F_19_x2F_Layer_114_x2F__x3C_Group_x3E__x5F_0" viewBox="0.05 -30.658 40.9 30.646">
	<g id="Layer_1_4_">
		<g>
			<path style="fill-rule:evenodd;clip-rule:evenodd;fill:#C1DAE8;" d="M17.85-2.7c0.167,0,0.3-0.066,0.4-0.2
				c0.1-0.1,0.183-0.267,0.25-0.5c0.067,0.167,0.167,0.3,0.3,0.4c0,0.333,0.15,0.583,0.45,0.75c0.3,0.2,0.583,0.15,0.85-0.15
				c0.533-0.6,0.7-1.167,0.5-1.7c-0.133-0.4-0.367-0.583-0.7-0.55c-0.467,0.033-0.867,0.217-1.2,0.55l-0.2,0.3l-0.15-0.3
				c-0.133-0.3-0.417-0.417-0.85-0.35C17.233-4.417,17.017-4.267,16.85-4c-0.033,0.033-0.067,0.1-0.1,0.2
				c-0.033,0.133-0.033,0.2,0,0.2c-0.233,0.333-0.183,0.633,0.15,0.9C17.233-2.467,17.55-2.467,17.85-2.7z"/>
			<path style="fill-rule:evenodd;clip-rule:evenodd;fill:#C1DAE8;" d="M21.8-3.9c0,0.333,0.15,0.55,0.45,0.65
				c0.3,0.133,0.567,0.1,0.8-0.1c0.167,0,0.3-0.033,0.4-0.1C24.283-3.783,24.7-4.3,24.7-5c0-0.533-0.317-0.95-0.95-1.25
				c-0.6-0.233-1.117-0.133-1.55,0.3c-0.4,0.4-0.534,0.983-0.4,1.75V-3.9z"/>
			<path style="fill-rule:evenodd;clip-rule:evenodd;fill:#C1DAE8;" d="M23.75-7.75c0.467-0.3,0.7-0.75,0.7-1.35
				c0.033-0.167-0.034-0.333-0.2-0.5c-0.167-0.167-0.35-0.25-0.55-0.25c-0.733,0.067-1.217,0.383-1.45,0.95
				c-0.167,0.4-0.117,0.917,0.15,1.55c0.067,0.167,0.217,0.283,0.45,0.35c0.233,0.033,0.433,0,0.6-0.1
				C23.717-7.267,23.817-7.483,23.75-7.75z"/>
			<path style="fill-rule:evenodd;clip-rule:evenodd;fill:#C1DAE8;" d="M17.3-5.9h0.05c0.267,0.133,0.5,0.1,0.7-0.1
				c0.567-0.3,0.867-0.767,0.9-1.4c0.033-0.233-0.067-0.434-0.3-0.6c-0.2-0.167-0.417-0.217-0.65-0.15
				c-0.433,0.2-0.783,0.566-1.05,1.1c-0.133,0.167-0.184,0.367-0.15,0.6c0.067,0.2,0.2,0.367,0.4,0.5L17.3-5.9z"/>
			<path style="fill-rule:evenodd;clip-rule:evenodd;fill:#C1DAE8;" d="M21.45-6.75c0-0.533-0.2-0.867-0.6-1
				c-0.4-0.167-0.783-0.067-1.15,0.3c-0.267,0.267-0.317,0.55-0.15,0.85c0.133,0.3,0.367,0.45,0.7,0.45
				c0.233,0.167,0.5,0.183,0.8,0.05C21.35-6.2,21.483-6.417,21.45-6.75z"/>
			<path style="fill-rule:evenodd;clip-rule:evenodd;fill:#C1DAE8;" d="M20.65-10.7c0.4,0.233,0.8,0.133,1.2-0.3
				c0.467-0.533,0.467-1.183,0-1.95l-0.2-0.2c0.6,0.066,1.017-0.133,1.25-0.6c0.467-0.767,0.317-1.417-0.45-1.95
				c-0.4-0.267-0.75-0.183-1.05,0.25c-0.1,0.167-0.15,0.383-0.15,0.65c-0.267,0.066-0.467,0.233-0.6,0.5
				c-0.133,0.3-0.066,0.55,0.2,0.75l0.35,0.2L21-13.3c-0.8,0.333-1.2,0.966-1.2,1.9C19.8-10.867,20.083-10.633,20.65-10.7z"/>
			<path style="fill-rule:evenodd;clip-rule:evenodd;fill:#C1DAE8;" d="M26.35-11.25c-0.267,0.267-0.4,0.55-0.4,0.85l-0.05,0.1
				c-0.233,0.433-0.133,0.767,0.3,1c0.433,0.267,0.767,0.183,1-0.25c0.066-0.133,0.2-0.333,0.4-0.6c0.066-0.167,0.066-0.434,0-0.8
				c-0.067-0.267-0.25-0.433-0.55-0.5C26.783-11.517,26.55-11.45,26.35-11.25z"/>
			<path style="fill-rule:evenodd;clip-rule:evenodd;fill:#C1DAE8;" d="M28.05-6.85h0.35c0.467,0,0.7-0.25,0.7-0.75
				s-0.233-0.75-0.7-0.75h-0.35L27.9-8.3c-0.066-0.2-0.183-0.35-0.35-0.45C27.383-8.85,27.2-8.867,27-8.8
				c-0.833,0.367-1.283,1-1.35,1.9c-0.033,0.333,0.1,0.55,0.4,0.65c0.267,0.133,0.517,0.1,0.75-0.1c0.133,0.033,0.284,0,0.45-0.1
				c0.167-0.1,0.333-0.25,0.5-0.45L28.05-6.85z"/>
			<path style="fill-rule:evenodd;clip-rule:evenodd;fill:#C1DAE8;" d="M22.4-2.95c-0.6-0.1-1.15,0.083-1.65,0.55
				c-0.467,0.467-0.733,1.017-0.8,1.65c-0.034,0.4,0.15,0.633,0.55,0.7c0.367,0.1,0.65,0,0.85-0.3c0.533-0.1,0.95-0.333,1.25-0.7
				c0.333-0.4,0.45-0.867,0.35-1.4C22.883-2.783,22.7-2.95,22.4-2.95z"/>
			<path style="fill-rule:evenodd;clip-rule:evenodd;fill:#C1DAE8;" d="M27.45-4.75V-5c0-0.5-0.25-0.75-0.75-0.75S25.95-5.5,25.95-5
				v0.25C25.95-4.25,26.2-4,26.7-4S27.45-4.25,27.45-4.75z"/>
			<path style="fill-rule:evenodd;clip-rule:evenodd;fill:#C1DAE8;" d="M29.7-10.95c-0.2,0.2-0.267,0.4-0.2,0.6
				c-0.033,0.3,0.067,0.533,0.3,0.7c0.233,0.2,0.5,0.217,0.8,0.05c0.4-0.233,0.816-0.65,1.25-1.25c0.233-0.333,0.2-0.633-0.1-0.9
				s-0.6-0.317-0.9-0.15C30.55-11.733,30.167-11.417,29.7-10.95z"/>
			<path style="fill-rule:evenodd;clip-rule:evenodd;fill:#C1DAE8;" d="M23.05-11.35c0.167,0.267,0.4,0.383,0.7,0.35
				c0.3-0.067,0.517-0.217,0.65-0.45l0.15-0.2c0.267-0.6,0.117-1.067-0.45-1.4c-0.333-0.2-0.633-0.167-0.9,0.1
				C22.8-12.517,22.75-11.983,23.05-11.35z"/>
			<path style="fill-rule:evenodd;clip-rule:evenodd;fill:#C1DAE8;" d="M28.1-12.7c0.6-0.167,0.967-0.5,1.1-1
				c0.1-0.466-0.1-0.883-0.6-1.25l0.5-0.4c0.233-0.066,0.4-0.233,0.5-0.5c0.066-0.267,0.017-0.5-0.15-0.7
				c-0.067-0.5-0.25-0.9-0.55-1.2c-0.2-0.267-0.433-0.333-0.7-0.2c-1.1,0.333-1.5,1.133-1.2,2.4c0.067,0.367,0.267,0.55,0.6,0.55
				l-0.1,0.05c-0.233,0.3-0.35,0.7-0.35,1.2v0.35c-0.033,0.233,0.05,0.417,0.25,0.55C27.633-12.683,27.867-12.633,28.1-12.7z"/>
			<path style="fill-rule:evenodd;clip-rule:evenodd;fill:#C1DAE8;" d="M31.2-14.5c-0.467,0-0.7,0.25-0.7,0.75S30.733-13,31.2-13
				c0.5,0,0.75-0.25,0.75-0.75S31.7-14.5,31.2-14.5z"/>
			<path style="fill-rule:evenodd;clip-rule:evenodd;fill:#C1DAE8;" d="M35.15-12.9c0-0.5-0.25-0.75-0.75-0.75s-0.75,0.25-0.75,0.75
				v0.3c0,0.5,0.25,0.75,0.75,0.75s0.75-0.25,0.75-0.75V-12.9z"/>
			<path style="fill-rule:evenodd;clip-rule:evenodd;fill:#C1DAE8;" d="M35.7-15.15c0.5,0,0.75-0.25,0.75-0.75s-0.25-0.75-0.75-0.75
				h-0.3c-0.5,0-0.75,0.25-0.75,0.75s0.25,0.75,0.75,0.75H35.7z"/>
			<path style="fill-rule:evenodd;clip-rule:evenodd;fill:#C1DAE8;" d="M40.05-17.35c-0.466,0-0.7,0.25-0.7,0.75
				s0.233,0.75,0.7,0.75c0.467,0,0.7-0.25,0.7-0.75S40.517-17.35,40.05-17.35z"/>
			<path style="fill-rule:evenodd;clip-rule:evenodd;fill:#C1DAE8;" d="M40.2-20.35c-0.467,0-0.7,0.25-0.7,0.75s0.233,0.75,0.7,0.75
				c0.5,0,0.75-0.25,0.75-0.75S40.7-20.35,40.2-20.35z"/>
			<path style="fill-rule:evenodd;clip-rule:evenodd;fill:#C1DAE8;" d="M38.15-19l0.1-0.1c0.167-0.267,0.217-0.533,0.15-0.8
				c-0.1-0.267-0.316-0.45-0.65-0.55c-0.233-0.066-0.45-0.033-0.65,0.1c-0.2,0.167-0.3,0.367-0.3,0.6v0.4l0.05,0.15l0.1,0.2
				l0.15,0.15l0.05,0.1c0.233,0.1,0.45,0.117,0.65,0.05l0.2-0.1L38.15-19z"/>
			<path style="fill-rule:evenodd;clip-rule:evenodd;fill:#C1DAE8;" d="M33.35-18.35c0.633,0.133,1.1,0.033,1.4-0.3
				c0.267-0.333,0.333-0.767,0.2-1.3c-0.133-0.367-0.383-0.55-0.75-0.55c-0.4,0.067-0.684,0.217-0.85,0.45l-0.1,0.35
				c-0.3,0.133-0.45,0.367-0.45,0.7C32.8-18.633,32.983-18.417,33.35-18.35z"/>
			<path style="fill-rule:evenodd;clip-rule:evenodd;fill:#C1DAE8;" d="M32-22.15c0.333,0.467,0.7,0.5,1.1,0.1
				c0.2-0.233,0.3-0.5,0.3-0.8c0-0.3-0.15-0.533-0.45-0.7c-0.267-0.133-0.534-0.133-0.8,0s-0.433,0.333-0.5,0.6
				C31.55-22.617,31.667-22.35,32-22.15z"/>
			<path style="fill-rule:evenodd;clip-rule:evenodd;fill:#C1DAE8;" d="M29.75-20.05c0.067-0.233,0.033-0.45-0.1-0.65
				c-0.167-0.2-0.367-0.3-0.6-0.3c-0.566,0.033-1.083,0.283-1.55,0.75c-0.133,0.1-0.2,0.25-0.2,0.45
				c-0.133,0.167-0.183,0.35-0.15,0.55s0.15,0.367,0.35,0.5c0.533,0.267,1.033,0.233,1.5-0.1C28.933-18.283,29.167-18,29.7-18
				c0.5,0,0.75-0.25,0.75-0.75S30.2-19.5,29.7-19.5l-0.2,0.05L29.75-20.05z"/>
			<path style="fill-rule:evenodd;clip-rule:evenodd;fill:#C1DAE8;" d="M30.9-16c0.467,0,0.7-0.25,0.7-0.75s-0.233-0.75-0.7-0.75
				c-0.5,0-0.75,0.25-0.75,0.75S30.4-16,30.9-16z"/>
			<path style="fill-rule:evenodd;clip-rule:evenodd;fill:#C1DAE8;" d="M25.4-15.85c0.533-0.1,0.95-0.35,1.25-0.75
				c0.333-0.433,0.367-0.9,0.1-1.4c-0.233-0.467-0.617-0.667-1.15-0.6c-0.5,0.067-0.917,0.283-1.25,0.65
				c-0.167,0.2-0.233,0.417-0.2,0.65c0.033,0.2,0.15,0.367,0.35,0.5l-0.05,0.2c0,0.267,0.1,0.467,0.3,0.6
				C24.95-15.833,25.167-15.783,25.4-15.85z"/>
			<path style="fill-rule:evenodd;clip-rule:evenodd;fill:#C1DAE8;" d="M25.9-19.5c0.733-0.233,1.15-0.517,1.25-0.85
				c0.133-0.433-0.1-0.833-0.7-1.2c-0.4-0.2-0.75-0.117-1.05,0.25l-0.2,0.5c-0.267,0.233-0.317,0.533-0.15,0.9
				C25.217-19.533,25.5-19.4,25.9-19.5z"/>
			<path style="fill-rule:evenodd;clip-rule:evenodd;fill:#C1DAE8;" d="M20.2-18.3c-0.1-0.167-0.25-0.284-0.45-0.35
				c-0.233-0.067-0.433-0.033-0.6,0.1c-0.333,0.267-0.533,0.533-0.6,0.8v0.3c-0.133,0.267-0.1,0.534,0.1,0.8
				c0.2,0.233,0.45,0.333,0.75,0.3c0.434,0,0.667-0.167,0.7-0.5c0.167-0.1,0.267-0.25,0.3-0.45C20.467-17.633,20.4-17.967,20.2-18.3
				z"/>
			<path style="fill-rule:evenodd;clip-rule:evenodd;fill:#C1DAE8;" d="M17.1-20.35c0.2-0.066,0.35-0.183,0.45-0.35
				c0.2-0.433,0.1-0.767-0.3-1l-0.05-0.05l-0.1-0.2c-0.467-0.4-0.934-0.4-1.4,0c-0.367,0.3-0.383,0.617-0.05,0.95v0.4
				c0,0.434,0.217,0.684,0.65,0.75C16.7-19.817,16.967-19.983,17.1-20.35z"/>
			<path style="fill-rule:evenodd;clip-rule:evenodd;fill:#C1DAE8;" d="M20.5-20.4c0,0.2,0.067,0.367,0.2,0.5
				c0.466,0.633,1.066,0.717,1.8,0.25c0.733-0.434,0.967-1,0.7-1.7c-0.1-0.3-0.284-0.533-0.55-0.7c-0.267-0.133-0.55-0.167-0.85-0.1
				c-0.3,0.033-0.533,0.2-0.7,0.5c-0.067-0.233-0.184-0.434-0.35-0.6c-0.233-0.233-0.483-0.3-0.75-0.2l-0.1,0.05
				c-0.4,0.066-0.65,0.283-0.75,0.65c-0.167,0.567,0.067,1,0.7,1.3C20.083-20.35,20.3-20.333,20.5-20.4z"/>
			<path style="fill-rule:evenodd;clip-rule:evenodd;fill:#C1DAE8;" d="M21.75-23.75l0.6-0.3c0.133-0.133,0.233-0.417,0.3-0.85
				c0-0.333-0.183-0.583-0.55-0.75l-0.35-0.05c0.067-0.267,0-0.533-0.2-0.8c-0.167-0.233-0.383-0.383-0.65-0.45
				c-0.633-0.233-1.2-0.117-1.7,0.35c-0.5,0.5-0.633,1.067-0.4,1.7c0.233,0.467,0.55,0.65,0.95,0.55c0.167-0.066,0.3-0.183,0.4-0.35
				c0.2,0.034,0.367,0.034,0.5,0v0.2c0,0.233,0.033,0.383,0.1,0.45C20.95-23.65,21.283-23.55,21.75-23.75z"/>
			<path style="fill-rule:evenodd;clip-rule:evenodd;fill:#C1DAE8;" d="M24.25-23.25c-0.133-0.4-0.4-0.583-0.8-0.55
				c-0.434,0.033-0.65,0.267-0.65,0.7v0.05l-0.15,0.3c-0.1,0.4,0.05,0.683,0.45,0.85c0.4,0.133,0.7,0.05,0.9-0.25
				c0.1-0.067,0.183-0.2,0.25-0.4l0.05-0.05C24.367-22.867,24.35-23.083,24.25-23.25z"/>
			<path style="fill-rule:evenodd;clip-rule:evenodd;fill:#C1DAE8;" d="M25.1-24.35c0.233-0.066,0.4-0.217,0.5-0.45
				c0.066-0.167,0.066-0.35,0-0.55c-0.133-0.566-0.434-0.767-0.9-0.6c-0.434,0.1-0.733,0.383-0.9,0.85
				c-0.066,0.3,0.034,0.567,0.3,0.8c0.267,0.233,0.55,0.25,0.85,0.05L25.1-24.35z"/>
			<path style="fill-rule:evenodd;clip-rule:evenodd;fill:#C1DAE8;" d="M16.5-22.95c0.6-0.167,0.967-0.533,1.1-1.1
				c0.066-0.333,0-0.567-0.2-0.7c-0.566-0.5-1.117-0.617-1.65-0.35c-0.3,0.2-0.5,0.45-0.6,0.75L14.7-24.3
				c-0.467,0.1-0.633,0.383-0.5,0.85c0.133,0.5,0.433,0.7,0.9,0.6l0.3-0.05c0.2,0.033,0.4,0.033,0.6,0L16.5-22.95z"/>
			<path style="fill-rule:evenodd;clip-rule:evenodd;fill:#C1DAE8;" d="M11.75-19.2c0.1,0.034,0.217,0.034,0.35,0
				c0.4-0.1,0.566-0.4,0.5-0.9c-0.067-0.4-0.283-0.633-0.65-0.7l-0.7-0.35c-0.3-0.067-0.55,0-0.75,0.2c-0.233,0.3-0.35,0.7-0.35,1.2
				c0,0.367,0.167,0.6,0.5,0.7c0.3,0.066,0.55,0,0.75-0.2L11.75-19.2z"/>
			<path style="fill-rule:evenodd;clip-rule:evenodd;fill:#C1DAE8;" d="M13.65-18.7c-0.433-0.167-0.816-0.1-1.15,0.2
				c-0.333,0.267-0.517,0.633-0.55,1.1c0,0.267,0.117,0.467,0.35,0.6c0.2,0.133,0.417,0.167,0.65,0.1c0.1,0.2,0.267,0.317,0.5,0.35
				c0.233,0.067,0.45,0,0.65-0.2c0.333-0.367,0.467-0.767,0.4-1.2S14.15-18.5,13.65-18.7z"/>
			<path style="fill-rule:evenodd;clip-rule:evenodd;fill:#C1DAE8;" d="M13.55-21c0.467,0,0.7-0.25,0.7-0.75s-0.233-0.75-0.7-0.75
				c-0.466,0-0.7,0.25-0.7,0.75S13.083-21,13.55-21z"/>
			<path style="fill-rule:evenodd;clip-rule:evenodd;fill:#C1DAE8;" d="M11.05-24.25c0.167,0.367,0.467,0.483,0.9,0.35
				c0.433-0.133,0.6-0.417,0.5-0.85l-0.05-0.1l0.1-0.05c0.4-0.167,0.533-0.467,0.4-0.9c-0.167-0.467-0.467-0.633-0.9-0.5l-0.4,0.2
				c-0.267,0.1-0.4,0.267-0.4,0.5c-0.3,0.1-0.467,0.317-0.5,0.65C10.633-24.617,10.75-24.383,11.05-24.25z"/>
			<path style="fill-rule:evenodd;clip-rule:evenodd;fill:#C1DAE8;" d="M15.95-27.35c0.367-0.133,0.533-0.417,0.5-0.85
				c-0.067-0.433-0.317-0.65-0.75-0.65c-0.233,0-0.4,0.083-0.5,0.25c-0.367-0.133-0.633-0.033-0.8,0.3
				c-0.267,0.466-0.167,0.933,0.3,1.4c0.233,0.267,0.5,0.333,0.8,0.2C15.767-26.833,15.917-27.05,15.95-27.35z"/>
			<path style="fill-rule:evenodd;clip-rule:evenodd;fill:#C1DAE8;" d="M11.75-27.65c0.467,0,0.7-0.25,0.7-0.75
				s-0.233-0.75-0.7-0.75h-0.2c-0.466,0-0.7,0.25-0.7,0.75s0.233,0.75,0.7,0.75H11.75z"/>
			<path style="fill-rule:evenodd;clip-rule:evenodd;fill:#C1DAE8;" d="M8.55-27.15c0.233,0,0.417-0.1,0.55-0.3
				C9.233-27.617,9.283-27.8,9.25-28c0.033-0.2-0.017-0.4-0.15-0.6c-0.133-0.167-0.317-0.25-0.55-0.25
				c-0.233,0-0.417,0.083-0.55,0.25c-0.133,0.2-0.183,0.4-0.15,0.6C7.817-27.8,7.867-27.617,8-27.45
				C8.133-27.25,8.317-27.15,8.55-27.15z"/>
			<path style="fill-rule:evenodd;clip-rule:evenodd;fill:#C1DAE8;" d="M19.65-27.7c0.367,0.1,0.667-0.017,0.9-0.35
				c0.2-0.367,0.1-0.7-0.3-1c-0.367-0.3-0.75-0.317-1.15-0.05c-0.434,0.267-0.5,0.617-0.2,1.05C19.1-27.75,19.35-27.633,19.65-27.7z
				"/>
			<path style="fill-rule:evenodd;clip-rule:evenodd;fill:#C1DAE8;" d="M22.9-26.65c0.467,0,0.7-0.25,0.7-0.75s-0.233-0.75-0.7-0.75
				c-0.5,0-0.75,0.25-0.75,0.75S22.4-26.65,22.9-26.65z"/>
			<path style="fill-rule:evenodd;clip-rule:evenodd;fill:#C1DAE8;" d="M3.3-26.6c0,0.5,0.25,0.75,0.75,0.75S4.8-26.1,4.8-26.6v-0.5
				c0-0.467-0.25-0.7-0.75-0.7S3.3-27.567,3.3-27.1V-26.6z"/>
			<path style="fill-rule:evenodd;clip-rule:evenodd;fill:#C1DAE8;" d="M0.7-26.35c0.5,0,0.75-0.25,0.75-0.75S1.2-27.85,0.7-27.85
				c-0.434,0-0.65,0.25-0.65,0.75S0.267-26.35,0.7-26.35z"/>
			<path style="fill-rule:evenodd;clip-rule:evenodd;fill:#C1DAE8;" d="M6.25-29.35c0.2,0.333,0.5,0.417,0.9,0.25
				c0.434-0.167,0.583-0.45,0.45-0.85c-0.1-0.4-0.4-0.633-0.9-0.7c-0.2-0.033-0.367,0.033-0.5,0.2c-0.167,0.167-0.25,0.35-0.25,0.55
				C5.95-29.667,6.05-29.483,6.25-29.35z"/>
		</g>
	</g>
</symbol>
<symbol  id="flash0.ai_x5F_19_x2F_Layer_114_x2F__x3C_Path_x3E_" viewBox="-0.056 -19.3 85.806 19.335">
	<g id="Layer_1_2_">
		<path style="fill-rule:evenodd;clip-rule:evenodd;" d="M82.6-5.3c0.767-0.233,1.433-0.617,2-1.15l1.15-1
			c-1-0.566-1.667-1.017-2-1.35c-0.233-0.333-0.417-0.567-0.55-0.7c-0.233-0.233-0.55-0.383-0.95-0.45
			c-0.3-0.033-0.833-0.183-1.6-0.45c-0.733-0.2-1.316-0.333-1.75-0.4c-0.433-0.067-0.867-0.217-1.3-0.45
			c-0.967-0.533-1.75-0.933-2.35-1.2L74.1-13c0.167,0.033-0.067-0.117-0.7-0.45c-0.633-0.367-1.333-0.65-2.1-0.85
			c-0.8-0.2-1.433-0.417-1.9-0.65c-0.533-0.3-1.25-0.55-2.15-0.75c-1-0.233-1.717-0.433-2.15-0.6c-0.733-0.333-1.967-0.733-3.7-1.2
			s-3.066-0.783-4-0.95c-0.9-0.167-2.6-0.35-5.1-0.55c-2.566-0.2-4.583-0.3-6.05-0.3c-1.2,0-2.5,0.183-3.9,0.55
			c-1.367,0.4-2.067,0.6-2.1,0.6c-0.367,0-1.517,0.233-3.45,0.7c-9.566,2.434-15.183,3.817-16.85,4.15
			c-0.667,0.133-1.534,0.233-2.6,0.3c-0.967,0.067-2.1,0.25-3.4,0.55c-1.4,0.333-2.8,1-4.2,2C8.417-9.35,7.433-8.633,6.8-8.3
			C6.1-7.933,5.4-7.617,4.7-7.35C3.567-6.95,2.65-6.6,1.95-6.3C1.175-5.963,0.625-5.73,0.3-5.6C0.25-5.62,0.2-5.636,0.15-5.65
			C-0.168-5.463-0.118-5.446,0.3-5.6c1.133,0.314,2.083,0.63,2.85,0.95c0.167,0.066,0.383,0.4,0.65,1
			c0.267,0.566,0.717,0.967,1.35,1.2c1.167,0.467,7.033,1.05,17.6,1.75C33.617,0,40.717,0.2,44.05-0.1c1.4-0.133,4.9-0.333,10.5-0.6
			c4.733-0.2,9.25-0.566,13.55-1.1c4.267-0.5,6.4-0.833,6.4-1c0.033-0.2,0.567-0.367,1.6-0.5c1.9-0.267,3.417-0.633,4.55-1.1
			C81.25-4.667,81.9-4.967,82.6-5.3z"/>
	</g>
</symbol>
<symbol  id="flash0.ai_x5F_19_x2F_Layer_114_x2F__x3C_Path_x3E__x5F_0" viewBox="0 -51.2 81.3 51.2">
	<g id="Layer_1_5_">
		
			<radialGradient id="SVGID_1_" cx="40.6499" cy="-25.6001" r="39.6125" gradientTransform="matrix(1 0 0 -0.6636 0 -42.5889)" gradientUnits="userSpaceOnUse">
			<stop  offset="0" style="stop-color:#FFFFFF"/>
			<stop  offset="1" style="stop-color:#FFFFFF;stop-opacity:0"/>
		</radialGradient>
		<path style="fill-rule:evenodd;clip-rule:evenodd;fill:url(#SVGID_1_);" d="M69.4-7.5c7.934-5,11.9-11.033,11.9-18.1
			c0-7.066-3.966-13.1-11.9-18.1c-7.933-5-17.517-7.5-28.75-7.5c-11.2,0-20.767,2.5-28.7,7.5C3.983-38.7,0-32.667,0-25.6
			c0,7.067,3.983,13.1,11.95,18.1c7.933,5,17.5,7.5,28.7,7.5C51.883,0,61.467-2.5,69.4-7.5z"/>
	</g>
</symbol>
<symbol  id="flash0.ai_x5F_19_x2F_Layer_114_x2F_Layer_93" viewBox="0 -51.2 81.3 51.2">
	<g id="Layer_1_6_">
		<g>
			
				<use xlink:href="#flash0.ai_x5F_19_x2F_Layer_114_x2F__x3C_Path_x3E__x5F_0"  width="81.3" height="51.2" y="-51.2" style="overflow:visible;opacity:0.6914;enable-background:new    ;"/>
		</g>
	</g>
</symbol>
<g>
	<g>
		
			<use xlink:href="#flash0.ai_x5F_19_x2F_Layer_114_x2F__x3C_Path_x3E_"  width="85.806" height="19.335" x="-0.056" y="-19.3" transform="matrix(1 0 0 -1 0.0498 32.0498)" style="overflow:visible;opacity:0.1406;enable-background:new    ;"/>
	</g>
	<g>
		
			<radialGradient id="SVGID_2_" cx="43.5" cy="28.9326" r="30.465" gradientTransform="matrix(1 0 0 -1 0 57.8652)" gradientUnits="userSpaceOnUse">
			<stop  offset="0" style="stop-color:#B4CCDB"/>
			<stop  offset="1" style="stop-color:#99BCD1"/>
		</radialGradient>
		<path style="fill-rule:evenodd;clip-rule:evenodd;fill:url(#SVGID_2_);" d="M45.3,8.35c1.267-0.267,3.033,0.05,5.3,0.95
			c1.134,0.434,2.15,0.9,3.051,1.4l3.1,2.15c2.434,1.9,4.616,3.95,6.55,6.15c2.634,3,4.75,5.317,6.351,6.95
			c2.033,2.133,4.133,4.05,6.3,5.75c1.967,1.533,3.45,3.366,4.45,5.5c0.5,1.1,0.8,2.033,0.899,2.8
			c-2.434,1.333-6.883,3.116-13.35,5.35c-4.767,1.967-7.867,3.184-9.3,3.65c-2.034,0.667-4.817,0.783-8.351,0.35
			c-1.1-0.133-3.883-0.383-8.35-0.75c-2.2-0.199-4.733-0.616-7.6-1.25c-2.233-0.5-4.783-1.35-7.65-2.55
			c-2.434-1.033-4.883-1.733-7.35-2.1c-2.9-0.4-6.05-1.467-9.45-3.2L5.7,37c5.1-5.533,9.433-9.75,13-12.65
			c2.433-2,4.966-3.717,7.6-5.15c1.967-1.034,4.767-2.317,8.4-3.85c2.233-0.967,4.4-2.383,6.5-4.25
			C43.033,9.467,44.4,8.55,45.3,8.35z"/>
		<path style="fill-rule:evenodd;clip-rule:evenodd;fill:#CCE0ED;" d="M63.3,19l0.25,0.3c-0.366,0.833-0.616,1.967-0.75,3.4
			c-0.133,1.667-0.8,3.616-2,5.85c-2.066,3.967-3.684,7.351-4.85,10.15c-1.733,4.267-3.65,6.316-5.75,6.149
			c-1.4-0.133-2.316-0.75-2.75-1.85c-0.5-1.7-0.667-3.083-0.5-4.15c0.166-1.1,0.316-1.933,0.45-2.5
			c0.199-0.966,0.55-2.017,1.05-3.149c0.434-0.967,1.233-1.65,2.399-2.05c1.034-0.334,1.567-0.717,1.601-1.15
			c0.066-0.5-0.066-1.316-0.4-2.45c-0.399-1.233-0.6-2.25-0.6-3.05c0-0.967-0.684-1.867-2.05-2.7L47.3,20.85
			c-2.566-0.9-4.733-1.617-6.5-2.15c-1.1-0.333-2.017-0.267-2.75,0.2c-0.833,0.733-1.566,1.267-2.2,1.6
			c-0.8,0.433-1.7,0.583-2.7,0.45c-0.133-0.034-1.4-0.35-3.8-0.95c-1.4-0.333-2.833-0.05-4.3,0.85
			c-1.633,1.233-2.867,2.117-3.7,2.65c-2.6,1.733-5.083,3.434-7.45,5.1c1.967-1.833,3.567-3.25,4.8-4.25
			c2.433-2,4.966-3.717,7.6-5.15c1.967-1.034,4.767-2.317,8.4-3.85c2.233-0.967,4.4-2.383,6.5-4.25c1.833-1.633,3.2-2.55,4.1-2.75
			c1.267-0.267,3.033,0.05,5.3,0.95c1.134,0.434,2.15,0.9,3.051,1.4l3.1,2.15C59.184,14.75,61.366,16.8,63.3,19z"/>
		<path style="fill-rule:evenodd;clip-rule:evenodd;fill:#91AEBD;" d="M62.85,18.5L63.3,19c2.634,3,4.75,5.317,6.351,6.95
			c2.033,2.133,4.133,4.05,6.3,5.75c1.967,1.533,3.45,3.366,4.45,5.5c0.5,1.1,0.8,2.033,0.899,2.8
			c-2.434,1.333-6.883,3.116-13.35,5.35c-4.767,1.967-7.867,3.184-9.3,3.65c-2.034,0.667-4.817,0.783-8.351,0.35
			c-1.1-0.133-3.883-0.383-8.35-0.75c-2.2-0.199-4.733-0.616-7.6-1.25c-2.233-0.5-4.783-1.35-7.65-2.55
			c-2.434-1.033-4.883-1.733-7.35-2.1c-2.9-0.4-6.05-1.467-9.45-3.2L5.7,37l0.25-0.3c1.167,0.5,2.15,0.833,2.95,1
			C9.767,37.9,10.8,38,12,38c0.367,0,1.7-0.116,4-0.35c1.3-0.167,2.25-0.051,2.85,0.35c1.066,0.733,3.017,1.233,5.85,1.5
			c0.5,0.066,1.5,0.184,3,0.35c1.733,0.301,3.783,0.917,6.15,1.851c3.333,1.267,5.35,2.017,6.05,2.25
			c1.3,0.399,2.217,0.483,2.75,0.25c0.4-0.167,0.883-0.316,1.45-0.45c0.5-0.167,1.017-0.517,1.551-1.05
			c1.133-1.2,1.899-2.767,2.3-4.7c0.1-1,0.2-1.733,0.3-2.2c0.2-0.767,0.717-1.366,1.55-1.8c0.667-0.333,1.584-0.783,2.75-1.35
			c0.8-0.567,1.101-1.384,0.9-2.45c-1-3.667-1.5-6-1.5-7c0-1.667,0.233-3.067,0.7-4.2c0.233-0.567,1.149-1.183,2.75-1.85
			c1.8-0.767,3.216-0.816,4.25-0.15C60.45,17.533,61.517,18.033,62.85,18.5z"/>
	</g>
	<g>
		
			<use xlink:href="#flash0.ai_x5F_19_x2F_Layer_114_x2F__x3C_Group_x3E_"  width="45.45" height="34.525" x="-0.05" y="-34.525" transform="matrix(1 0 0 -1 9.9502 9.9502)" style="overflow:visible;opacity:0.4219;enable-background:new    ;"/>
	</g>
	<g>
		
			<use xlink:href="#flash0.ai_x5F_19_x2F_Layer_114_x2F__x3C_Group_x3E__x5F_0"  width="40.9" height="30.646" x="0.05" y="-30.658" transform="matrix(1 0 0 -1 37.75 18.6001)" style="overflow:visible;opacity:0.4688;enable-background:new    ;"/>
	</g>
	
		<use xlink:href="#flash0.ai_x5F_19_x2F_Layer_114_x2F_Layer_93"  width="81.3" height="51.2" y="-51.2" transform="matrix(1 0 0 -1 5.1499 0)" style="overflow:visible;opacity:0.6406;enable-background:new    ;"/>
</g>
</svg>
