<?xml version="1.0" encoding="iso-8859-1"?>
<!-- Generator: Adobe Illustrator 15.1.0, SVG Export Plug-In . SVG Version: 6.00 Build 0)  -->
<!DOCTYPE svg PUBLIC "-//W3C//DTD SVG 1.1//EN" "http://www.w3.org/Graphics/SVG/1.1/DTD/svg11.dtd">
<svg version="1.1" id="flash0.ai" xmlns="http://www.w3.org/2000/svg" xmlns:xlink="http://www.w3.org/1999/xlink" x="0px" y="0px"
	 width="39.15px" height="35.2px" viewBox="0 0 39.15 35.2" style="enable-background:new 0 0 39.15 35.2;" xml:space="preserve">
<symbol  id="flash0.ai_x5F_22_x2F_Layer_114_x2F__x3C_Path_x3E_" viewBox="0 -35.2 39.15 35.2">
	<g id="Layer_1_3_">
		
			<radialGradient id="SVGID_1_" cx="19.5752" cy="-17.6001" r="18.288" gradientTransform="matrix(1 0 0 -0.8892 0 -33.25)" gradientUnits="userSpaceOnUse">
			<stop  offset="0" style="stop-color:#FFFFFF"/>
			<stop  offset="1" style="stop-color:#FFFFFF;stop-opacity:0"/>
		</radialGradient>
		<path style="fill-rule:evenodd;clip-rule:evenodd;fill:url(#SVGID_1_);" d="M39.15-17.6c0-4.867-1.9-9.017-5.7-12.45
			C29.617-33.483,25-35.2,19.6-35.2c-5.434,0-10.05,1.717-13.85,5.15C1.917-26.617,0-22.467,0-17.6S1.917-8.583,5.75-5.15
			C9.55-1.717,14.167,0,19.6,0C25,0,29.617-1.717,33.45-5.15C37.25-8.583,39.15-12.733,39.15-17.6z"/>
	</g>
</symbol>
<symbol  id="flash0.ai_x5F_22_x2F_Layer_114_x2F__x3C_Path_x3E__x5F_3" viewBox="0 -9.414 34.98 9.428">
	<g id="Layer_1_2_">
		<path style="fill-rule:evenodd;clip-rule:evenodd;" d="M21.5-0.5c2.9-0.267,4.8-0.4,5.7-0.4c3.1,0,5.267-0.333,6.5-1
			c1.6-0.9,1.7-1.733,0.3-2.5c-0.8-0.434-1.483-0.75-2.05-0.95c-0.133-0.066-0.95-0.3-2.45-0.7c-2.333-0.567-4.05-1.067-5.15-1.5
			c-0.7-0.3-1.684-0.617-2.95-0.95c-1.4-0.333-2.417-0.583-3.05-0.75c-0.767-0.2-1.684-0.217-2.75-0.05
			c-1.1,0.2-1.85,0.333-2.25,0.4c-0.8,0.1-1.8,0.15-3,0.15c-0.567,0-1.05,0.167-1.45,0.5l-0.4,0.5L5.2-7.4
			c-0.567,0.066-1,0.233-1.3,0.5C3.6-6.533,3.3-6.2,3-5.9c-0.267,0.267-0.7,0.6-1.3,1C1.033-4.467,0.533-4.083,0.2-3.75L0-2.4
			c1.133,1.333,2.467,2.117,4,2.35c0.8,0.1,2.367,0.083,4.7-0.05c2.733-0.167,4.833-0.217,6.3-0.15
			C16.667-0.183,18.833-0.267,21.5-0.5z"/>
	</g>
</symbol>
<g>
	<g>
		
			<use xlink:href="#flash0.ai_x5F_22_x2F_Layer_114_x2F__x3C_Path_x3E__x5F_3"  width="34.98" height="9.428" y="-9.414" transform="matrix(1 0 0 -1 2.1499 22.4502)" style="overflow:visible;opacity:0.1406;enable-background:new    ;"/>
		
			<radialGradient id="SVGID_2_" cx="19.8496" cy="18.7998" r="16.4375" gradientTransform="matrix(1 0 0 -0.5437 0 29.0218)" gradientUnits="userSpaceOnUse">
			<stop  offset="0" style="stop-color:#B4CCDB"/>
			<stop  offset="1" style="stop-color:#99BCD1"/>
		</radialGradient>
		<path style="fill-rule:evenodd;clip-rule:evenodd;fill:url(#SVGID_2_);" d="M34.1,22.25l2,3.5c-0.833,0.667-3.416,1.583-7.75,2.75
			c-3.333,1-5.533,1.6-6.6,1.8c-1.467,0.3-3.35,0.283-5.65-0.05c-2.1-0.3-3.633-0.616-4.6-0.95c-0.767-0.366-1.483-0.633-2.15-0.8
			c-1.333-0.333-3.25-1.75-5.75-4.25c1.5-2,2.5-3.833,3-5.5c0.3-0.967,0.683-1.717,1.15-2.25c1-1.133,1.617-1.883,1.85-2.25
			c0.767-1.3,1.283-2.167,1.55-2.6c0.4-0.7,1.217-1.5,2.45-2.4c1.267-0.933,2.683-1.583,4.25-1.95c0.8-0.2,1.466-0.3,2-0.3
			l1.101,0.15c0.967,0.067,2.017,0.1,3.149,0.1h2.75l0.4,1.7c0.4,1.333,1.017,2.517,1.85,3.55c0.601,0.767,1.617,1.617,3.051,2.55
			c1.033,0.667,1.6,1.317,1.699,1.95C34.017,18.167,34.1,19.917,34.1,22.25z"/>
		<path style="fill-rule:evenodd;clip-rule:evenodd;fill:#CCE0ED;" d="M20.95,7.15c0.967,0.067,2.017,0.1,3.149,0.1h2.75l0.4,1.7
			c0.4,1.333,1.017,2.517,1.85,3.55c0.601,0.767,1.617,1.617,3.051,2.55c1.033,0.667,1.6,1.317,1.699,1.95
			c0.167,1.167,0.25,2.917,0.25,5.25l2,3.5c-0.366-0.533-1.183-1.017-2.449-1.45c-1.2-0.399-1.884-0.75-2.051-1.05
			c-0.666-1.3-1.017-1.983-1.05-2.05c-0.633-0.867-1.533-1.351-2.7-1.45c-1.133-0.1-2.483,0.083-4.05,0.55L21.85,21
			c0.5-0.4,1.051-0.833,1.65-1.3c1.2-0.934,2.066-1.5,2.6-1.7c0.733-0.3,1.551-0.817,2.45-1.55c0.967-0.833,1.4-1.483,1.3-1.95
			c-0.1-0.4-0.966-0.817-2.6-1.25l-2.4-0.5l-3.5,2c-0.666-0.167-1.416-0.583-2.25-1.25c-0.566-0.467-1.216-0.5-1.95-0.1
			c-0.6,0.333-1.117,0.867-1.55,1.6c-0.467,0.8-1,1.383-1.6,1.75c-0.933,0.567-2.233,0.9-3.9,1c-1.533,0.133-2.7,0.434-3.5,0.9
			c0.3-0.9,0.683-1.617,1.15-2.15c0.933-1.067,1.55-1.817,1.85-2.25c0.767-1.3,1.283-2.167,1.55-2.6c0.4-0.7,1.217-1.5,2.45-2.4
			c1.267-0.933,2.683-1.583,4.25-1.95c0.8-0.2,1.466-0.3,2-0.3L20.95,7.15z"/>
		<path style="fill-rule:evenodd;clip-rule:evenodd;fill:#91AEBD;" d="M33.85,17c0.167,1.167,0.25,2.917,0.25,5.25l2,3.5
			c-0.833,0.667-3.416,1.583-7.75,2.75c-3.333,1-5.533,1.6-6.6,1.8c-1.467,0.3-3.35,0.283-5.65-0.05c-2.1-0.3-3.633-0.616-4.6-0.95
			c-0.767-0.366-1.483-0.633-2.15-0.8c-1.033-0.233-2.667-1.366-4.9-3.4c0.7,0.134,1.417,0.25,2.15,0.351
			c0.533,0.1,1.283,0.35,2.25,0.75c0.933,0.399,1.85,0.783,2.75,1.149c0.566,0.2,1.367,0.25,2.4,0.15
			c0.833-0.066,1.317-0.15,1.45-0.25c0.3-0.233,0.816-0.483,1.55-0.75c1.1-0.333,1.933-0.8,2.5-1.4c0.3-0.333,0.583-0.8,0.85-1.399
			c0.034-0.101,0.101-0.45,0.2-1.05C20.583,22.35,20.733,22.134,21,22l7-3.5c0.767-0.366,1.783-0.883,3.05-1.55
			c1-0.4,1.9-0.467,2.7-0.2L33.85,17z"/>
	</g>
	<g>
		
			<use xlink:href="#flash0.ai_x5F_22_x2F_Layer_114_x2F__x3C_Path_x3E_"  width="39.15" height="35.2" y="-35.2" transform="matrix(1 0 0 -1 0 0)" style="overflow:visible;opacity:0.6914;enable-background:new    ;"/>
	</g>
</g>
</svg>
