<?xml version="1.0" encoding="iso-8859-1"?>
<!-- Generator: Adobe Illustrator 15.1.0, SVG Export Plug-In . SVG Version: 6.00 Build 0)  -->
<!DOCTYPE svg PUBLIC "-//W3C//DTD SVG 1.1//EN" "http://www.w3.org/Graphics/SVG/1.1/DTD/svg11.dtd">
<svg version="1.1" id="flash0.ai" xmlns="http://www.w3.org/2000/svg" xmlns:xlink="http://www.w3.org/1999/xlink" x="0px" y="0px"
	 width="127.1px" height="43.8px" viewBox="0 0 127.1 43.8" style="enable-background:new 0 0 127.1 43.8;" xml:space="preserve">
<symbol  id="flash0.ai_x5F_16_x2F_Layer_114_x2F__x3C_Path_x3E_" viewBox="0 -23.925 121.4 23.925">
	<g id="Layer_1_3_">
		<path style="fill-rule:evenodd;clip-rule:evenodd;" d="M120.3-11.4c0.367-0.9,0.733-1.617,1.1-2.15l-0.35-0.3
			c-3-2.6-5.367-4.383-7.1-5.35c-1.2-0.667-2.5-1.25-3.9-1.75c-0.867-0.3-3.216-1.05-7.05-2.25c-3.033-0.966-9.917-0.966-20.65,0
			c-6.767,0.6-19.434,2.083-38,4.45c-13.767,1.733-24.15,3.333-31.15,4.8c-5.467,1.167-9.583,2.417-12.35,3.75L0-9.75
			C2.767-8.383,4.883-6.367,6.35-3.7C8.983-2.067,10.867-1.15,12-0.95c2.967,0.6,8.2,0.917,15.7,0.95
			c5.333,0.033,35.333-3.567,90-10.8C118.833-10.933,119.7-11.133,120.3-11.4z"/>
	</g>
</symbol>
<symbol  id="flash0.ai_x5F_16_x2F_Layer_114_x2F__x3C_Path_x3E__x5F_0" viewBox="0 -15.65 33.9 15.65">
	<g id="Layer_1_4_">
		<path style="fill-rule:evenodd;clip-rule:evenodd;" d="M26.05-7c2.367,1.667,3.833,2.783,4.4,3.35c1,1,2.15,2.217,3.45,3.65
			c-0.433-0.967-1.05-2.05-1.85-3.25c-1.6-2.333-3.3-4-5.1-5c-2.7-1.733-4.667-2.983-5.9-3.75c-2.1-1.333-3.9-2.033-5.4-2.1
			C13.183-14.267,7.967-14.783,0-15.65c4.633,1.033,8.25,1.767,10.85,2.2c2.066,0.333,4.267,0.85,6.6,1.55
			c2.466,0.767,3.966,1.4,4.5,1.9C22.283-9.667,23.65-8.667,26.05-7z"/>
	</g>
</symbol>
<symbol  id="flash0.ai_x5F_16_x2F_Layer_114_x2F__x3C_Path_x3E__x5F_1" viewBox="-0.017 -23.925 123.117 23.925">
	<g id="Layer_1_2_">
		<path style="fill-rule:evenodd;clip-rule:evenodd;" d="M123.1-12.7c0-0.433-0.283-0.816-0.85-1.15c-3-2.6-5.367-4.383-7.1-5.35
			c-1.2-0.667-2.5-1.25-3.9-1.75c-0.867-0.3-3.217-1.05-7.05-2.25c-3.034-0.966-9.917-0.966-20.65,0
			c-6.767,0.6-19.433,2.083-38,4.45c-13.767,1.733-24.15,3.333-31.15,4.8c-5.467,1.167-9.583,2.417-12.35,3.75
			c-2.066,1-2.583,1.983-1.55,2.95C1.2-6.617,2.4-6.067,4.1-5.6c0.5,0.133,1.883,0.917,4.15,2.35c2.167,1.333,3.817,2.1,4.95,2.3
			c2.966,0.6,8.2,0.917,15.7,0.95c5.333,0.033,35.333-3.567,90-10.8C121.7-11.233,123.1-11.867,123.1-12.7z"/>
	</g>
</symbol>
<symbol  id="flash0.ai_x5F_16_x2F_Layer_114_x2F__x3C_Path_x3E__x5F_2" viewBox="0.019 -38.092 122.408 38.152">
	<g id="Layer_1_5_">
		
			<radialGradient id="SVGID_1_" cx="-676.3662" cy="-821.9878" r="56.0444" gradientTransform="matrix(0.9955 -0.095 -0.0281 -0.2945 711.4424 -325.3213)" gradientUnits="userSpaceOnUse">
			<stop  offset="0" style="stop-color:#FFFFFF"/>
			<stop  offset="1" style="stop-color:#FFFFFF;stop-opacity:0"/>
		</radialGradient>
		<path style="fill-rule:evenodd;clip-rule:evenodd;fill:url(#SVGID_1_);" d="M122.4-24.85c-0.467-5-6.85-8.7-19.15-11.1
			c-12.267-2.4-26.85-2.783-43.75-1.15c-16.9,1.6-31.15,4.733-42.75,9.4c-11.633,4.667-17.2,9.5-16.7,14.5
			C0.517-8.2,6.9-4.5,19.2-2.1c12.267,2.4,26.85,2.8,43.75,1.2c16.9-1.633,31.15-4.783,42.75-9.45
			C117.3-15.017,122.867-19.85,122.4-24.85z"/>
	</g>
</symbol>
<g>
	<g>
		
			<use xlink:href="#flash0.ai_x5F_16_x2F_Layer_114_x2F__x3C_Path_x3E__x5F_1"  width="123.117" height="23.925" x="-0.017" y="-23.925" transform="matrix(1 0 0 -1 0 13.8501)" style="overflow:visible;opacity:0.3086;enable-background:new    ;"/>
		
			<use xlink:href="#flash0.ai_x5F_16_x2F_Layer_114_x2F__x3C_Path_x3E_"  width="121.4" height="23.925" y="-23.925" transform="matrix(1 0 0 -1 1.2002 13.8501)" style="overflow:visible;opacity:0.1484;enable-background:new    ;"/>
	</g>
	<g>
		
			<radialGradient id="SVGID_2_" cx="57.3877" cy="23.3691" r="63.5367" gradientTransform="matrix(0.989 0.1479 0.1031 -0.6896 -5.8663 39.2267)" gradientUnits="userSpaceOnUse">
			<stop  offset="0" style="stop-color:#E5F1F7"/>
			<stop  offset="1" style="stop-color:#96BDD6"/>
		</radialGradient>
		<path style="fill-rule:evenodd;clip-rule:evenodd;fill:url(#SVGID_2_);" d="M90.85,41.2C82.917,42.533,77,43.1,73.1,42.9
			c-3.733-0.167-7.583-0.784-11.55-1.851c-4.033-1.233-7-2.066-8.9-2.5l-8-1.95c-3.2-0.767-6.183-1.416-8.95-1.949
			c-3.833-0.567-6.383-0.967-7.65-1.2c-2-0.334-3.8-0.95-5.4-1.851c-1.167-0.633-4.2-1.517-9.1-2.649
			c-4.566-1.066-7.483-2.066-8.75-3L1.35,23.35l5.2-3.5c1.4-0.667,4.3-2.283,8.7-4.85c2.767-1.633,5.233-2.617,7.4-2.95
			c3.767-0.6,6.367-0.9,7.8-0.9l1.6,0.55c1.6,0.333,3.75,0.5,6.45,0.5c2.1,0,3.55-0.233,4.35-0.7c0.8-0.5,2.467-0.75,5-0.75
			c2.467,0,6.083-0.117,10.85-0.35c4.666,0,9.899,0.55,15.7,1.65c9.267,1.733,17.966,3.184,26.1,4.35l7.15,3.85
			c5,2.7,8.133,4.316,9.399,4.85c2,0.867,3.733,1.733,5.2,2.601c-1.533,1.533-3.333,3.116-5.4,4.75
			c-4.133,3.267-7.55,5.166-10.25,5.7C98.3,39.783,93.05,40.8,90.85,41.2z"/>
		<path style="fill-rule:evenodd;clip-rule:evenodd;fill:#97B4C4;" d="M97,19.85c0.434-0.133,1.366-0.567,2.8-1.3
			c0.934-0.5,1.967-0.783,3.101-0.85c7.5,4.066,12.216,6.533,14.149,7.399c2,0.867,3.733,1.733,5.2,2.601
			c-1.533,1.533-3.333,3.116-5.4,4.75c-4.133,3.267-7.55,5.166-10.25,5.7c-8.3,1.633-13.55,2.649-15.75,3.05
			C82.917,42.533,77,43.1,73.1,42.9c-3.733-0.167-7.583-0.784-11.55-1.851c-4.033-1.233-7-2.066-8.9-2.5l-8-1.95
			c-3.2-0.767-6.183-1.416-8.95-1.949c-3.833-0.567-6.383-0.967-7.65-1.2c-2-0.334-3.8-0.95-5.4-1.851
			c-1.167-0.633-4.2-1.517-9.1-2.649c-4.566-1.066-7.483-2.066-8.75-3L1.35,23.35L2.9,22.3c0.733,0.634,1.5,1.066,2.3,1.3
			c0.933,0.267,2.4,0.467,4.4,0.601c4.367,0.3,6.917,0.5,7.65,0.6c1.967,0.3,3.333,0.834,4.1,1.601c0.566,0.6,1.066,1.133,1.5,1.6
			c0.4,0.267,1.783,0.884,4.15,1.85c2.167,0.9,4.417,1.483,6.75,1.75c1.3,0.167,3.1,0.317,5.4,0.45c1.167,0.167,2.833,0.283,5,0.351
			c2.533,0.233,5.95,0.983,10.25,2.25c6.2,1.8,10.333,2.916,12.4,3.35c3.101,0.6,5.05,0.5,5.851-0.3
			c1.166-1.167,3.633-2.334,7.399-3.5c-0.3-0.733-0.517-1.517-0.649-2.351c-0.301-1.666-0.084-2.767,0.649-3.3l1.75-1.3l1.4,1.25
			c1.033,0.967,1.733,1.717,2.1,2.25c0.566,0.866,2.45,1.3,5.65,1.3c0.133,0,0.283-0.184,0.45-0.55c0.267-0.733,0.399-2,0.399-3.8
			c0-2.033,0.55-3.767,1.65-5.2C94.384,21.233,95.566,20.35,97,19.85z"/>
		<g>
			<path style="fill-rule:evenodd;clip-rule:evenodd;fill:#7D9AAB;" d="M95,37.3c0.934,0.267,1.75-0.033,2.45-0.899l4.35-5.65
				l0.25-0.95c0.533-0.633,1.617-1.05,3.25-1.25c1.533-0.166,2.617-0.434,3.25-0.8c1.7-0.967,2.783-1.566,3.25-1.8
				c1.634-0.7,3.517-0.934,5.65-0.7c1.866,0.833,3.467,1.65,4.8,2.45c-1.533,1.533-3.333,3.116-5.4,4.75
				c-4.133,3.267-7.55,5.166-10.25,5.7c-8.3,1.633-13.55,2.649-15.75,3.05C82.917,42.533,77,43.1,73.1,42.9
				c-2.833-0.134-5.483-0.467-7.949-1c5.399,0.566,8.916,0.466,10.55-0.301c1.899-0.866,4.217-2.233,6.95-4.1
				c2.366-1.366,4.699-1.884,7-1.55C89.884,35.983,91.667,36.434,95,37.3z"/>
			<path style="fill-rule:evenodd;clip-rule:evenodd;fill:#7D9AAB;" d="M21.65,31.15c-1.233-0.5-3.683-1.184-7.35-2.051
				c-3.7-0.833-6.233-1.533-7.6-2.1c2.9-0.267,5.133-0.283,6.7-0.05c2.434,0.366,4.65,1.333,6.65,2.899L21.65,31.15z"/>
		</g>
		<path style="fill-rule:evenodd;clip-rule:evenodd;fill:#E3F3FF;" d="M100.5,16.4l1.3,0.7c-1.666,1.267-3.517,2.35-5.55,3.25
			c-1.9,0.833-3.384,1.25-4.45,1.25c-0.733,0-1.5,0.617-2.3,1.85c-1.134,1.7-2.25,2.967-3.35,3.8c-1.467,1.1-2.634,1.434-3.5,1
			l-0.851-1c-2.333,2.033-3.934,3.05-4.8,3.05c-0.267,0-1.15-0.566-2.65-1.7c-1.733-1.267-3.6-2.149-5.6-2.649
			C68.184,25.816,64.6,24.783,58,22.85c-4.867-1.399-7.817-2.1-8.85-2.1c-0.667,0-2.033,0.167-4.1,0.5
			c-2.466,0.367-5.15,0.633-8.05,0.8c-3.067,0.167-5.7,0-7.9-0.5c-2.4-0.533-3.833-0.8-4.3-0.8H10.45c-2.167,0-4.167,0.167-6,0.5
			l2.1-1.4c1.4-0.667,4.3-2.283,8.7-4.85c2.767-1.633,5.233-2.617,7.4-2.95c3.767-0.6,6.367-0.9,7.8-0.9l6.35-0.4
			c2.434-0.2,4.167-0.267,5.2-0.2c2.033,0.133,3.983,0.2,5.85,0.2c2.467,0,6.083-0.117,10.85-0.35c4.666,0,9.899,0.55,15.7,1.65
			C83.667,13.783,92.366,15.233,100.5,16.4z"/>
		<path style="fill-rule:evenodd;clip-rule:evenodd;fill:#FFFFFF;" d="M87.4,22.45c-0.167,0,0.133-0.217,0.899-0.65
			c0.9-0.466,2.017-0.867,3.351-1.2c1.267-0.333,2.05-0.583,2.35-0.75c0.366-0.2,1.55-0.533,3.55-1c1.9-0.567,2.884-1.383,2.95-2.45
			l1.3,0.7c-1.666,1.267-3.517,2.35-5.55,3.25c-1.9,0.833-3.384,1.25-4.45,1.25c-0.733,0-1.5,0.617-2.3,1.85
			c-1.134,1.7-2.25,2.967-3.35,3.8c-1.467,1.1-2.634,1.434-3.5,1l-0.851-1c-2.333,2.033-3.934,3.05-4.8,3.05
			c-0.267,0-1.15-0.566-2.65-1.7c-1.733-1.267-3.6-2.149-5.6-2.649C68.184,25.816,64.6,24.783,58,22.85
			c-4.867-1.399-7.817-2.1-8.85-2.1c-0.667,0-2.033,0.167-4.1,0.5c-2.466,0.367-5.15,0.633-8.05,0.8c-3.067,0.167-5.7,0-7.9-0.5
			c-2.4-0.533-3.833-0.8-4.3-0.8H10.45c-2.167,0-4.167,0.167-6,0.5l1.4-0.95c4.533-0.733,7.667-1.1,9.4-1.1
			c1.6,0,3.233,0.117,4.9,0.35c1.167,0.034,2.367-0.3,3.6-1c0.833-0.5,1.767-1.117,2.8-1.85c0.667-0.467,1.4-0.867,2.2-1.2l7.6-3.05
			c-2.767,2.333-4.517,3.933-5.25,4.8c-0.8,0.7-1.317,1.15-1.55,1.35c-0.333,0.3-0.1,0.583,0.7,0.85
			c0.667,0.233,1.05,0.417,1.15,0.55c0.133,0.067,0.917,0.1,2.35,0.1c0.133,0,1.3,0.1,3.5,0.3c0.933,0.067,2-0.117,3.2-0.55
			c1.233-0.434,2.167-0.783,2.8-1.05c0.4-0.167,1.217-0.533,2.45-1.1c1.4-0.6,3.716-1.333,6.95-2.2c1.6-0.433,3.333-0.867,5.2-1.3
			c-1.434,0.6-2.867,1.216-4.3,1.85c-2.867,1.267-4.25,2.034-4.15,2.3c0.067,0.233-0.05,0.417-0.35,0.55c0,0.1,0.767,0.283,2.3,0.55
			c1.867,0.333,3.6,0.683,5.2,1.05c0.767,0.167,1.967,0.717,3.6,1.65c1.6,0.899,3.234,1.517,4.9,1.85
			c1.101,0.2,2.634,0.384,4.601,0.55c1,0.101,1.783,0.351,2.35,0.75c0.533,0.367,1.3,0.917,2.3,1.65
			c0.867,0.533,1.634,0.85,2.3,0.95c0.801,0.133,1.417,0.183,1.851,0.149c0.5-0.066,0.967-0.267,1.399-0.6
			c1.034-0.767,1.551-1.167,1.551-1.2c0.699-0.434,1.333-0.6,1.899-0.5c0.434,0.066,0.884,0.217,1.351,0.45
			c0.366,0.066,0.866-0.167,1.5-0.7c0.5-0.434,1.05-0.833,1.649-1.2c0.334-0.233,0.5-0.633,0.5-1.2C88.3,22.667,88,22.45,87.4,22.45
			z"/>
		<path style="fill-rule:evenodd;clip-rule:evenodd;fill:#7D9AAB;" d="M84.85,39.35c1.4,0.134,3.384,0.167,5.95,0.101
			c4.967-0.2,8.4-0.267,10.3-0.2c-13.366,2.7-22.699,3.917-28,3.65c-3.733-0.167-7.583-0.784-11.55-1.851
			c-4.033-1.233-7-2.066-8.9-2.5l-8-1.95c-3.2-0.767-6.183-1.416-8.95-1.949c-3.833-0.567-6.383-0.967-7.65-1.2
			c-2-0.334-3.8-0.95-5.4-1.851c-1.167-0.633-4.2-1.517-9.1-2.649c-4.566-1.066-7.483-2.066-8.75-3l-1-0.75
			c0.667,0.333,1.55,0.649,2.65,0.95c1.2,0.366,2.216,0.583,3.05,0.649c1.167,0.101,2.683,0.367,4.55,0.8
			c1.5,0.367,3.184,0.634,5.05,0.801c0.967,0.1,2.033,0.449,3.2,1.05c2.067,1.033,3.317,1.633,3.75,1.8
			c1.133,0.434,2.567,0.733,4.3,0.9c1.333,0.133,2.933,0.267,4.8,0.399c1.533,0.2,3.167,0.684,4.9,1.45
			c2.233,0.967,3.583,1.533,4.05,1.7c0.9,0.267,2.667,0.566,5.3,0.899c2.3,0.301,4.35,0.75,6.15,1.351
			c1.067,0.366,2.75,0.934,5.05,1.7c1.367,0.399,2.784,0.833,4.25,1.3c1.101,0.267,2.617,0.3,4.551,0.1
			c1.733-0.166,3.316-0.5,4.75-1c1.633-0.6,2.583-0.916,2.85-0.95c0.667-0.1,1.083-0.199,1.25-0.3c0.2,0,1.1,0.033,2.7,0.101
			C81.283,38.934,82.583,39.083,84.85,39.35z"/>
		
			<use xlink:href="#flash0.ai_x5F_16_x2F_Layer_114_x2F__x3C_Path_x3E__x5F_0"  width="33.9" height="15.65" y="-15.65" transform="matrix(1 0 0 -1 90.2998 28.1504)" style="overflow:visible;opacity:0.1016;enable-background:new    ;"/>
	</g>
	<g>
		<g>
			<path style="fill-rule:evenodd;clip-rule:evenodd;fill:#FFFFFF;" d="M17.5,16.4c0.267-0.3,0.65-0.45,1.15-0.45
				c0.333,0,0.533-0.017,0.6-0.05c0.5-0.233,0.883-0.3,1.15-0.2c0.167,0.066,0.217,0.167,0.15,0.3c-0.066,0.133-0.167,0.233-0.3,0.3
				c-0.7,0.333-1.467,0.5-2.3,0.5C17.417,16.8,17.267,16.667,17.5,16.4z"/>
			<path style="fill-rule:evenodd;clip-rule:evenodd;fill:#FFFFFF;" d="M22.7,15.05c-0.5,0.233-0.883,0.217-1.15-0.05
				c-0.167-0.233-0.017-0.5,0.45-0.8l1.75-0.85c0.5-0.233,0.867-0.217,1.1,0.05c0.2,0.233,0.066,0.5-0.4,0.8L22.7,15.05z"/>
			<path style="fill-rule:evenodd;clip-rule:evenodd;fill:#FFFFFF;" d="M24.35,16.35c0.367,0,0.4,0.117,0.1,0.35
				c-0.333,0.2-0.733,0.3-1.2,0.3c-0.5,0-0.867-0.117-1.1-0.35c-0.133-0.1,0.05-0.25,0.55-0.45c0.533-0.2,0.867-0.233,1-0.1
				C23.9,16.267,24.117,16.35,24.35,16.35z"/>
			<path style="fill-rule:evenodd;clip-rule:evenodd;fill:#FFFFFF;" d="M34.6,14.95l-1.15-0.85c-0.2-0.2-0.034-0.4,0.5-0.6
				c0.5-0.233,0.85-0.25,1.05-0.05c0.267,0.233,0.667,0.517,1.2,0.85c0.2,0.2,0.033,0.417-0.5,0.65
				C35.2,15.15,34.833,15.15,34.6,14.95z"/>
			<path style="fill-rule:evenodd;clip-rule:evenodd;fill:#FFFFFF;" d="M40.6,12.85c0.167,0,0.25,0.033,0.25,0.1
				c0.033,0.1-0.017,0.183-0.15,0.25c-0.333,0.233-0.733,0.35-1.2,0.35c-0.833,0-1.5-0.117-2-0.35c-0.133-0.067-0.1-0.167,0.1-0.3
				c0.2-0.133,0.333-0.2,0.4-0.2c0.5-0.167,0.867-0.2,1.1-0.1C39.4,12.767,39.9,12.85,40.6,12.85z"/>
			<path style="fill-rule:evenodd;clip-rule:evenodd;fill:#FFFFFF;" d="M44.05,14.6h2.9c0.433,0,0.466,0.117,0.1,0.35
				c-0.333,0.2-0.733,0.3-1.2,0.3h-2.9c-0.167,0-0.25-0.033-0.25-0.1c0-0.066,0.066-0.133,0.2-0.2
				C43.3,14.717,43.683,14.6,44.05,14.6z"/>
			<path style="fill-rule:evenodd;clip-rule:evenodd;fill:#FFFFFF;" d="M42.6,12.9c-0.167-0.167,0-0.35,0.5-0.55
				c0.533-0.2,0.883-0.217,1.05-0.05c0.267,0.233,0.567,0.35,0.9,0.35c0.167,0,0.267,0.05,0.3,0.15
				c0.033,0.133-0.017,0.233-0.15,0.3c-0.333,0.233-0.733,0.35-1.2,0.35C43.433,13.383,42.967,13.2,42.6,12.9z"/>
			<path style="fill-rule:evenodd;clip-rule:evenodd;fill:#FFFFFF;" d="M42.4,12.1c-0.167,0-0.25-0.033-0.25-0.1
				c-0.033-0.1,0.017-0.183,0.15-0.25c0.333-0.233,0.733-0.35,1.2-0.35h0.3c0.167,0,0.25,0.033,0.25,0.1c0,0.1-0.066,0.183-0.2,0.25
				c-0.4,0.233-0.783,0.35-1.15,0.35H42.4z"/>
			<path style="fill-rule:evenodd;clip-rule:evenodd;fill:#FFFFFF;" d="M40.5,11.1h0.3c0.167,0,0.3,0.05,0.4,0.15
				c0.133,0.1,0.15,0.233,0.05,0.4c-0.167,0.3-0.533,0.45-1.1,0.45h-0.3c-0.167,0-0.3-0.05-0.4-0.15c-0.133-0.1-0.15-0.233-0.05-0.4
				C39.567,11.25,39.933,11.1,40.5,11.1z"/>
			<path style="fill-rule:evenodd;clip-rule:evenodd;fill:#FFFFFF;" d="M35.05,11.95c-0.2-0.034-0.316-0.117-0.35-0.25
				c-0.034-0.167,0.017-0.317,0.15-0.45c0.333-0.333,0.733-0.433,1.2-0.3c0.233,0.066,0.417,0.167,0.55,0.3
				c0.267,0.267,0.133,0.533-0.4,0.8C35.7,12.25,35.317,12.217,35.05,11.95z"/>
			<path style="fill-rule:evenodd;clip-rule:evenodd;fill:#FFFFFF;" d="M34,16.05c0.5,0,0.6,0.167,0.3,0.5
				C34,16.85,33.683,17,33.35,17c-0.533,0-0.65-0.15-0.35-0.45C33.3,16.217,33.633,16.05,34,16.05z"/>
			<path style="fill-rule:evenodd;clip-rule:evenodd;fill:#FFFFFF;" d="M37.05,17.25c-0.566,0-0.8-0.183-0.7-0.55
				c0.1-0.4,0.383-0.6,0.85-0.6c0.566,0,0.8,0.2,0.7,0.6C37.833,17.067,37.55,17.25,37.05,17.25z"/>
			<path style="fill-rule:evenodd;clip-rule:evenodd;fill:#FFFFFF;" d="M58.75,14.2c0.367,0,0.633,0.183,0.8,0.55
				c0.1,0.333,0.05,0.633-0.15,0.9c0.133,0.133,0.2,0.25,0.2,0.35v0.3c0,0.4-0.283,0.633-0.85,0.7c-0.567,0.033-0.85-0.15-0.85-0.55
				V16.2c0-0.233,0.083-0.4,0.25-0.5c-0.233-0.233-0.3-0.534-0.2-0.9C58.083,14.4,58.35,14.2,58.75,14.2z"/>
			<path style="fill-rule:evenodd;clip-rule:evenodd;fill:#FFFFFF;" d="M42,16.05c0.133,0.067,0.2,0.167,0.2,0.3
				c-0.034,0.133-0.133,0.217-0.3,0.25c-0.333,0.1-0.7,0.066-1.1-0.1c-0.6,0-0.95-0.133-1.05-0.4s0.133-0.4,0.7-0.4
				C41.183,15.7,41.7,15.817,42,16.05z"/>
			<path style="fill-rule:evenodd;clip-rule:evenodd;fill:#FFFFFF;" d="M40.65,18.15c0.333-0.1,0.717-0.033,1.15,0.2
				c0.467,0.167,0.55,0.283,0.25,0.35c-0.733,0.2-1.55,0.15-2.45-0.15c-0.133-0.033-0.25-0.083-0.35-0.15
				c-0.2-0.1-0.25-0.183-0.15-0.25c0.1-0.066,0.45-0.033,1.05,0.1c0.046,0,0.08,0,0.1,0L40.65,18.15z"/>
			<path style="fill-rule:evenodd;clip-rule:evenodd;fill:#FFFFFF;" d="M34.85,19.2c-0.167-0.034-0.3-0.117-0.4-0.25
				c-0.1-0.167-0.083-0.317,0.05-0.45c0.233-0.333,0.617-0.433,1.15-0.3l0.45,0.15c0.167,0.033,0.3,0.117,0.4,0.25
				c0.1,0.167,0.083,0.316-0.05,0.45c-0.233,0.333-0.617,0.434-1.15,0.3L34.85,19.2z"/>
			<path style="fill-rule:evenodd;clip-rule:evenodd;fill:#FFFFFF;" d="M18.9,17.55h1.55c0.233,0,0.483,0.267,0.75,0.8
				c0.267,0.433,0.316,0.65,0.15,0.65h-1.6c-0.233,0-0.483-0.267-0.75-0.8C18.8,17.767,18.767,17.55,18.9,17.55z"/>
			<path style="fill-rule:evenodd;clip-rule:evenodd;fill:#FFFFFF;" d="M15.15,17.8c-0.633,0.5-1.333,0.567-2.1,0.2
				c-0.333-0.167-0.35-0.35-0.05-0.55c0.367-0.167,0.733-0.2,1.1-0.1c0.233-0.033,0.467-0.033,0.7,0c0.133,0,0.25,0.05,0.35,0.15
				C15.283,17.6,15.283,17.7,15.15,17.8z"/>
			<path style="fill-rule:evenodd;clip-rule:evenodd;fill:#FFFFFF;" d="M17.35,15.3c-0.533,0-1.017-0.066-1.45-0.2
				c-0.066-0.033,0-0.1,0.2-0.2c0.1-0.066,0.2-0.133,0.3-0.2c0.467-0.233,0.817-0.317,1.05-0.25c0.4,0.1,0.8,0.15,1.2,0.15
				c0.333,0,0.267,0.117-0.2,0.35C18.117,15.183,17.75,15.3,17.35,15.3z"/>
			<path style="fill-rule:evenodd;clip-rule:evenodd;fill:#FFFFFF;" d="M28.9,13.85c0.167,0,0.283,0.066,0.35,0.2
				c0.033,0.1-0.017,0.217-0.15,0.35c-0.233,0.3-0.6,0.45-1.1,0.45h-1.05c-0.167,0-0.267-0.067-0.3-0.2
				c-0.066-0.1-0.033-0.217,0.1-0.35c0.3-0.3,0.683-0.45,1.15-0.45H28.9z"/>
			<path style="fill-rule:evenodd;clip-rule:evenodd;fill:#FFFFFF;" d="M27.75,13.2c-0.2,0-0.517-0.167-0.95-0.5
				c-0.1-0.1-0.2-0.217-0.3-0.35c-0.133-0.2-0.133-0.3,0-0.3c0.333-0.033,0.817-0.083,1.45-0.15c0.333,0,0.667,0.167,1,0.5
				c0.367,0.434,0.45,0.65,0.25,0.65C28.567,13.15,28.083,13.2,27.75,13.2z"/>
			<path style="fill-rule:evenodd;clip-rule:evenodd;fill:#FFFFFF;" d="M31.2,12c0.133-0.3,0.4-0.45,0.8-0.45
				c0.467,0,0.717,0.15,0.75,0.45c0,0.3-0.167,0.533-0.5,0.7h0.2c0.233,0,0.417,0.083,0.55,0.25c0.167,0.133,0.233,0.316,0.2,0.55
				c-0.1,0.5-0.417,0.75-0.95,0.75H31.1c-0.233,0-0.417-0.083-0.55-0.25c-0.167-0.133-0.233-0.317-0.2-0.55
				c0.066-0.5,0.383-0.75,0.95-0.75h0.1C31.1,12.533,31.033,12.3,31.2,12z"/>
			<path style="fill-rule:evenodd;clip-rule:evenodd;fill:#FFFFFF;" d="M62.6,14.95c-0.333-0.233-0.317-0.45,0.05-0.65
				c0.466-0.233,0.883-0.35,1.25-0.35c0.5-0.1,0.85,0,1.05,0.3c0.066,0.167,0.017,0.3-0.15,0.4c-0.166,0.067-0.316,0.1-0.45,0.1
				l-0.5,0.2C63.483,15.15,63.066,15.15,62.6,14.95z"/>
			<path style="fill-rule:evenodd;clip-rule:evenodd;fill:#FFFFFF;" d="M65.4,13.45c-0.467,0-0.784-0.067-0.95-0.2
				c-0.4-0.3-0.417-0.65-0.05-1.05c0.399-0.4,0.767-0.467,1.1-0.2l0.2,0.05c0.2,0,0.383,0.067,0.55,0.2
				c0.134,0.133,0.184,0.3,0.15,0.5C66.3,13.217,65.967,13.45,65.4,13.45z"/>
			<path style="fill-rule:evenodd;clip-rule:evenodd;fill:#FFFFFF;" d="M60.65,13.25c-0.2,0-0.367-0.05-0.5-0.15
				c-0.2-0.133-0.283-0.3-0.25-0.5c0.1-0.434,0.434-0.65,1-0.65h1c0.2,0,0.383,0.066,0.55,0.2c0.167,0.133,0.233,0.3,0.2,0.5
				c-0.1,0.4-0.433,0.6-1,0.6H60.65z"/>
			<path style="fill-rule:evenodd;clip-rule:evenodd;fill:#FFFFFF;" d="M54.55,12.65c0.167,0.434,0.1,0.65-0.2,0.65h-1
				c-0.367,0-0.7-0.233-1-0.7c-0.167-0.434-0.1-0.65,0.2-0.65h1C53.917,11.95,54.25,12.183,54.55,12.65z"/>
			<path style="fill-rule:evenodd;clip-rule:evenodd;fill:#FFFFFF;" d="M49.75,14.7c-0.467,0-0.817-0.167-1.05-0.5
				c-0.133-0.2-0.1-0.333,0.1-0.4c-0.867-0.066-1.5-0.167-1.9-0.3c-0.167-0.033-0.2-0.1-0.1-0.2c0.1-0.1,0.2-0.167,0.3-0.2
				c0.5-0.233,0.883-0.317,1.15-0.25c0.6,0.2,1.533,0.3,2.8,0.3c0.167,0,0.25,0.033,0.25,0.1c0,0.1-0.066,0.183-0.2,0.25l-0.55,0.25
				c0.434,0,0.767,0.167,1,0.5c0.167,0.3,0,0.45-0.5,0.45H49.75z"/>
			<path style="fill-rule:evenodd;clip-rule:evenodd;fill:#FFFFFF;" d="M66.25,16.05c0.167,0.067,0.217,0.167,0.15,0.3
				c-0.067,0.133-0.184,0.233-0.351,0.3c-0.434,0.2-0.983,0.3-1.649,0.3c-0.567,0-0.801-0.117-0.7-0.35c0.1-0.333,0.434-0.5,1-0.5
				h0.35C65.55,15.9,65.95,15.883,66.25,16.05z"/>
			<path style="fill-rule:evenodd;clip-rule:evenodd;fill:#FFFFFF;" d="M65.95,15.4c-0.267-0.033-0.233-0.217,0.1-0.55
				c0.467-0.3,0.851-0.434,1.15-0.4c0.133,0.033,0.316,0.083,0.55,0.15c0.167,0.033,0.217,0.117,0.15,0.25
				c-0.067,0.133-0.15,0.233-0.25,0.3c-0.367,0.3-0.733,0.434-1.101,0.4L65.95,15.4z"/>
			<path style="fill-rule:evenodd;clip-rule:evenodd;fill:#FFFFFF;" d="M72.95,12.9c0.566,0,0.85,0.3,0.85,0.9
				c0,0.567-0.283,0.85-0.85,0.85H72.8c-0.533,0-0.8-0.283-0.8-0.85c0-0.6,0.267-0.9,0.8-0.9H72.95z"/>
			<path style="fill-rule:evenodd;clip-rule:evenodd;fill:#FFFFFF;" d="M75.85,15.35c-0.533,0-0.8-0.283-0.8-0.85
				s0.267-0.85,0.8-0.85H76c0.566,0,0.85,0.283,0.85,0.85s-0.283,0.85-0.85,0.85H75.85z"/>
			<path style="fill-rule:evenodd;clip-rule:evenodd;fill:#FFFFFF;" d="M79.75,13.75c0.566,0,0.85,0.3,0.85,0.9
				c0,0.567-0.283,0.85-0.85,0.85c-0.533,0-0.8-0.283-0.8-0.85C78.95,14.05,79.217,13.75,79.75,13.75z"/>
			<path style="fill-rule:evenodd;clip-rule:evenodd;fill:#FFFFFF;" d="M83.55,15.5H84.4c0.566,0,0.85,0.3,0.85,0.9
				c0,0.567-0.283,0.85-0.85,0.85H83.55c-0.333,0-0.583-0.15-0.75-0.45c0,0.567-0.283,0.85-0.85,0.85c-0.601,0-0.9-0.283-0.9-0.85
				v-0.15c0-0.467,0.233-0.733,0.7-0.8c0.434-0.067,0.75,0.066,0.95,0.4C82.767,15.75,83.05,15.5,83.55,15.5z"/>
			<path style="fill-rule:evenodd;clip-rule:evenodd;fill:#FFFFFF;" d="M86.45,16.95c-0.566,0-0.851-0.284-0.851-0.85
				c0-0.6,0.284-0.9,0.851-0.9h0.7c0.566,0,0.85,0.3,0.85,0.9c0,0.566-0.283,0.85-0.85,0.85H86.45z"/>
			<path style="fill-rule:evenodd;clip-rule:evenodd;fill:#FFFFFF;" d="M89.35,15.5c0.567,0,0.851,0.3,0.851,0.9
				c0,0.567-0.283,0.85-0.851,0.85c-0.566,0-0.85-0.283-0.85-0.85C88.5,15.8,88.783,15.5,89.35,15.5z"/>
			<path style="fill-rule:evenodd;clip-rule:evenodd;fill:#FFFFFF;" d="M79.75,17.25c0.566,0,0.85,0.3,0.85,0.9
				c0,0.567-0.283,0.85-0.85,0.85c-0.533,0-0.8-0.283-0.8-0.85C78.95,17.55,79.217,17.25,79.75,17.25z"/>
			<path style="fill-rule:evenodd;clip-rule:evenodd;fill:#FFFFFF;" d="M75.7,18.1c-0.533,0-0.8-0.283-0.8-0.85s0.267-0.85,0.8-0.85
				c0.566,0,0.85,0.283,0.85,0.85S76.267,18.1,75.7,18.1z"/>
			<path style="fill-rule:evenodd;clip-rule:evenodd;fill:#FFFFFF;" d="M69.05,18.25c-0.566,0-0.85-0.283-0.85-0.85
				c0-0.566,0.283-0.85,0.85-0.85S69.9,16.833,69.9,17.4C69.9,17.967,69.616,18.25,69.05,18.25z"/>
			<path style="fill-rule:evenodd;clip-rule:evenodd;fill:#FFFFFF;" d="M62.2,18.4c-0.534,0-0.8-0.283-0.8-0.85
				c0-0.6,0.267-0.9,0.8-0.9c0.566,0,0.85,0.3,0.85,0.9C63.05,18.117,62.767,18.4,62.2,18.4z"/>
			<path style="fill-rule:evenodd;clip-rule:evenodd;fill:#FFFFFF;" d="M57.85,16.95c0.566,0,0.85,0.3,0.85,0.9
				c0,0.566-0.284,0.85-0.85,0.85c-0.533,0-0.8-0.284-0.8-0.85C57.05,17.25,57.317,16.95,57.85,16.95z"/>
			<path style="fill-rule:evenodd;clip-rule:evenodd;fill:#FFFFFF;" d="M54.4,16.95c0.567,0,0.85,0.3,0.85,0.9
				c0,0.566-0.283,0.85-0.85,0.85c-0.566,0-0.85-0.284-0.85-0.85C53.55,17.25,53.833,16.95,54.4,16.95z"/>
			<path style="fill-rule:evenodd;clip-rule:evenodd;fill:#FFFFFF;" d="M55.85,14.8c0.566,0,0.85,0.3,0.85,0.9
				c0,0.566-0.284,0.85-0.85,0.85c-0.567,0-0.85-0.283-0.85-0.85C55,15.1,55.283,14.8,55.85,14.8z"/>
			<path style="fill-rule:evenodd;clip-rule:evenodd;fill:#FFFFFF;" d="M65.25,20.9H65.1c-0.533,0-0.8-0.283-0.8-0.85
				c0-0.6,0.267-0.9,0.8-0.9h0.15c0.566,0,0.85,0.3,0.85,0.9C66.1,20.617,65.816,20.9,65.25,20.9z"/>
			<path style="fill-rule:evenodd;clip-rule:evenodd;fill:#FFFFFF;" d="M82.1,21.15c0.567,0,0.851,0.3,0.851,0.9
				c0,0.566-0.283,0.851-0.851,0.851c-0.566,0-0.85-0.284-0.85-0.851C81.25,21.45,81.533,21.15,82.1,21.15z"/>
			<path style="fill-rule:evenodd;clip-rule:evenodd;fill:#FFFFFF;" d="M86.15,20.9c0.566,0,0.85,0.283,0.85,0.85
				c0,0.566-0.283,0.85-0.85,0.85c-0.567,0-0.851-0.283-0.851-0.85C85.3,21.183,85.583,20.9,86.15,20.9z"/>
			<path style="fill-rule:evenodd;clip-rule:evenodd;fill:#FFFFFF;" d="M84.7,17.7c0.5,0,0.767,0.25,0.8,0.75
				c0.066,0.5-0.116,0.816-0.55,0.95H85c0.434,0.267,0.533,0.65,0.3,1.15c-0.267,0.467-0.633,0.6-1.1,0.4
				c-0.101,0.233-0.316,0.35-0.65,0.35c-0.467,0-0.733-0.216-0.8-0.65c-0.3-0.2-0.45-0.483-0.45-0.85c0-0.4,0.184-0.667,0.55-0.8
				c0.2-0.033,0.467-0.05,0.801-0.05c-0.134-0.267-0.134-0.534,0-0.8c0.133-0.3,0.383-0.45,0.75-0.45H84.7z"/>
			<path style="fill-rule:evenodd;clip-rule:evenodd;fill:#FFFFFF;" d="M86.6,18.1h0.25c0.4,0,0.667,0.2,0.801,0.6l0.75-0.4
				c0.533-0.133,0.883,0.067,1.05,0.6c0.133,0.5-0.033,0.85-0.5,1.05c0.1,0.267,0.083,0.533-0.05,0.8
				c-0.134,0.267-0.367,0.4-0.7,0.4c-0.434,0-0.7-0.183-0.8-0.55c-0.134-0.367-0.067-0.684,0.199-0.95l-0.05-0.1
				c-0.133,0.2-0.366,0.3-0.7,0.3H86.6c-0.566,0-0.85-0.283-0.85-0.85C85.75,18.4,86.033,18.1,86.6,18.1z"/>
			<path style="fill-rule:evenodd;clip-rule:evenodd;fill:#FFFFFF;" d="M79.75,20.75c0.566,0,0.85,0.283,0.85,0.85
				s-0.283,0.85-0.85,0.85c-0.533,0-0.8-0.267-0.8-0.8c-0.233,0.133-0.417,0.15-0.55,0.05c-0.267-0.067-0.684-0.284-1.25-0.65
				c-0.5-0.267-0.601-0.65-0.301-1.15c0.301-0.5,0.7-0.617,1.2-0.35c0.167,0.1,0.434,0.267,0.8,0.5c0.4,0.1,0.601,0.35,0.601,0.75
				L79.75,20.75z"/>
			<path style="fill-rule:evenodd;clip-rule:evenodd;fill:#FFFFFF;" d="M70.85,19.95L70.65,20c-0.567,0-0.851-0.283-0.851-0.85
				c0-0.6,0.283-0.9,0.851-0.9c0.267,0,0.483,0.117,0.649,0.35l0.2-0.05c0.2,0,0.35,0.05,0.45,0.15c0.566,0.033,0.85,0.333,0.85,0.9
				c0,0.566-0.283,0.85-0.85,0.85c-0.167,0-0.334-0.05-0.5-0.15C71.184,20.3,70.983,20.183,70.85,19.95z"/>
			<path style="fill-rule:evenodd;clip-rule:evenodd;fill:#FFFFFF;" d="M13.95,21.15c0.566,0,0.85,0.3,0.85,0.9
				c0,0.566-0.283,0.851-0.85,0.851c-0.567,0-0.85-0.284-0.85-0.851C13.1,21.45,13.383,21.15,13.95,21.15z"/>
			<path style="fill-rule:evenodd;clip-rule:evenodd;fill:#FFFFFF;" d="M11.6,21.6c0.566,0,0.85,0.3,0.85,0.9
				c0,0.566-0.284,0.85-0.85,0.85c-0.533,0-0.8-0.283-0.8-0.85C10.8,21.9,11.067,21.6,11.6,21.6z"/>
			<path style="fill-rule:evenodd;clip-rule:evenodd;fill:#FFFFFF;" d="M9.75,21c0.567,0,0.85,0.3,0.85,0.9
				c0,0.567-0.283,0.85-0.85,0.85S8.9,22.467,8.9,21.9C8.9,21.3,9.183,21,9.75,21z"/>
			<path style="fill-rule:evenodd;clip-rule:evenodd;fill:#FFFFFF;" d="M6.7,21.9c0.566,0,0.85,0.3,0.85,0.9
				c0,0.566-0.283,0.851-0.85,0.851c-0.567,0-0.85-0.284-0.85-0.851C5.85,22.2,6.133,21.9,6.7,21.9z"/>
			<path style="fill-rule:evenodd;clip-rule:evenodd;fill:#FFFFFF;" d="M14.8,23.65c0.567,0,0.85,0.283,0.85,0.85
				s-0.283,0.85-0.85,0.85c-0.533,0-0.8-0.283-0.8-0.85S14.267,23.65,14.8,23.65z"/>
			<path style="fill-rule:evenodd;clip-rule:evenodd;fill:#FFFFFF;" d="M16.1,21.9c0.566,0,0.85,0.3,0.85,0.9
				c0,0.566-0.284,0.851-0.85,0.851h-0.15c-0.534,0-0.8-0.284-0.8-0.851c0-0.6,0.267-0.9,0.8-0.9H16.1z"/>
			<path style="fill-rule:evenodd;clip-rule:evenodd;fill:#FFFFFF;" d="M18.2,22.8c0.133-0.434,0.45-0.616,0.95-0.55
				c0.5,0.033,0.75,0.3,0.75,0.8v0.3c0,0.334-0.133,0.567-0.4,0.7c-0.267,0.167-0.533,0.2-0.8,0.101c-0.167,0.233-0.4,0.35-0.7,0.35
				c-0.533,0-0.8-0.283-0.8-0.85c0-0.601,0.267-0.9,0.8-0.9L18.2,22.8z"/>
			<path style="fill-rule:evenodd;clip-rule:evenodd;fill:#FFFFFF;" d="M21.2,22.75c-0.567,0-0.85-0.283-0.85-0.85
				c0-0.6,0.283-0.9,0.85-0.9c0.566,0,0.85,0.3,0.85,0.9C22.05,22.467,21.767,22.75,21.2,22.75z"/>
			<path style="fill-rule:evenodd;clip-rule:evenodd;fill:#FFFFFF;" d="M22.45,23.8c-0.467-0.166-0.633-0.5-0.5-1
				c0.167-0.434,0.5-0.684,1-0.75c0.233-0.033,0.433,0.05,0.6,0.25c0.167,0.167,0.25,0.367,0.25,0.601s-0.1,0.449-0.3,0.649
				C23.233,23.917,22.883,24,22.45,23.8z"/>
			<path style="fill-rule:evenodd;clip-rule:evenodd;fill:#FFFFFF;" d="M22.5,24.5c0.567,0,0.85,0.3,0.85,0.9
				c0,0.566-0.283,0.85-0.85,0.85c-0.4,0-0.667-0.2-0.8-0.6c-0.133,0.1-0.3,0.149-0.5,0.149c-0.567,0-0.85-0.283-0.85-0.85
				c0-0.601,0.283-0.9,0.85-0.9c0.4,0,0.667,0.217,0.8,0.65C22.133,24.566,22.3,24.5,22.5,24.5z"/>
			<path style="fill-rule:evenodd;clip-rule:evenodd;fill:#FFFFFF;" d="M28.75,23.8c0.367,0,0.617,0.184,0.75,0.55
				c0.1,0.334,0.05,0.634-0.15,0.9c0.2,0.233,0.25,0.533,0.15,0.9c-0.133,0.366-0.383,0.55-0.75,0.55H28.6
				c-0.434,0-0.7-0.2-0.8-0.601c-0.133-0.399-0.05-0.716,0.25-0.949c-0.2-0.267-0.233-0.551-0.1-0.851
				C28.117,23.967,28.383,23.8,28.75,23.8z"/>
			<path style="fill-rule:evenodd;clip-rule:evenodd;fill:#FFFFFF;" d="M25.95,21.5c0.267,0.233,0.35,0.55,0.25,0.95
				c-0.1,0.399-0.367,0.6-0.8,0.6c-0.467,0-0.75-0.233-0.85-0.7c-0.066-0.433,0.083-0.75,0.45-0.95
				c-0.267-0.233-0.35-0.55-0.25-0.95c0.1-0.4,0.367-0.6,0.8-0.6c0.467,0,0.733,0.233,0.8,0.7
				C26.45,21.017,26.317,21.333,25.95,21.5z"/>
			<path style="fill-rule:evenodd;clip-rule:evenodd;fill:#FFFFFF;" d="M37.3,23.35c0.567,0,0.85,0.301,0.85,0.9
				c0,0.566-0.283,0.85-0.85,0.85c-0.566,0-0.85-0.283-0.85-0.85C36.45,23.65,36.733,23.35,37.3,23.35z"/>
			<path style="fill-rule:evenodd;clip-rule:evenodd;fill:#FFFFFF;" d="M36,22.05c0.567,0,0.85,0.3,0.85,0.9
				c0,0.566-0.283,0.85-0.85,0.85s-0.85-0.283-0.85-0.85C35.15,22.35,35.433,22.05,36,22.05z"/>
			<path style="fill-rule:evenodd;clip-rule:evenodd;fill:#FFFFFF;" d="M33.95,23.8c0.433,0,0.7,0.2,0.8,0.601
				c0.1,0.366,0.017,0.666-0.25,0.899c0.267-0.066,0.533-0.033,0.8,0.101c0.267,0.133,0.4,0.366,0.4,0.699v0.15
				c0,0.3-0.117,0.533-0.35,0.7c-0.2,0.133-0.434,0.166-0.7,0.1c0,0.634-0.283,0.95-0.85,0.95c-0.533,0-0.8-0.283-0.8-0.85
				c0-0.601,0.267-0.9,0.8-0.9h0.15V26.1c0-0.267,0.1-0.483,0.3-0.649l-0.3,0.05c-0.367,0-0.6-0.134-0.7-0.4l-0.45,0.15
				c-0.566,0-0.85-0.283-0.85-0.85c0-0.601,0.283-0.9,0.85-0.9c0.3,0,0.534,0.134,0.7,0.4L33.95,23.8z"/>
			<path style="fill-rule:evenodd;clip-rule:evenodd;fill:#FFFFFF;" d="M32.5,21.75c0.567,0,0.85,0.3,0.85,0.9
				c0,0.566-0.283,0.85-0.85,0.85c-0.533,0-0.8-0.283-0.8-0.85C31.7,22.05,31.967,21.75,32.5,21.75z"/>
			<path style="fill-rule:evenodd;clip-rule:evenodd;fill:#FFFFFF;" d="M29.15,22.75v-0.3c0-0.534,0.3-0.8,0.9-0.8
				c0.567,0,0.85,0.267,0.85,0.8v0.3c0,0.566-0.283,0.85-0.85,0.85C29.45,23.6,29.15,23.316,29.15,22.75z"/>
			<path style="fill-rule:evenodd;clip-rule:evenodd;fill:#FFFFFF;" d="M26.9,27.75l-0.35,0.1c-0.533,0-0.8-0.283-0.8-0.85
				c0-0.6,0.267-0.9,0.8-0.9c0.3,0,0.534,0.117,0.7,0.351c0.133,0.233,0.167,0.483,0.1,0.75L27.7,27.1c0.566,0,0.85,0.301,0.85,0.9
				c0,0.566-0.283,0.85-0.85,0.85c-0.3,0-0.534-0.116-0.7-0.35C26.867,28.267,26.833,28.017,26.9,27.75z"/>
			<path style="fill-rule:evenodd;clip-rule:evenodd;fill:#FFFFFF;" d="M31.65,26.95c0,0.566-0.283,0.85-0.85,0.85
				c-0.6,0-0.9-0.283-0.9-0.85V26.8c0-0.267,0.083-0.45,0.25-0.55c-0.3-0.233-0.417-0.55-0.35-0.95c0.1-0.434,0.367-0.649,0.8-0.649
				c0.4,0,0.667,0.183,0.8,0.55c0.133,0.366,0.083,0.666-0.15,0.899c0.267,0.2,0.4,0.434,0.4,0.7V26.95z"/>
			<path style="fill-rule:evenodd;clip-rule:evenodd;fill:#FFFFFF;" d="M31.05,28.15c0.567,0,0.85,0.283,0.85,0.85
				s-0.283,0.85-0.85,0.85c-0.533,0-0.8-0.283-0.8-0.85S30.517,28.15,31.05,28.15z"/>
			<path style="fill-rule:evenodd;clip-rule:evenodd;fill:#FFFFFF;" d="M34.4,28c0.567,0,0.85,0.283,0.85,0.85
				c0,0.567-0.283,0.851-0.85,0.851c-0.566,0-0.85-0.283-0.85-0.851C33.55,28.283,33.833,28,34.4,28z"/>
			<path style="fill-rule:evenodd;clip-rule:evenodd;fill:#FFFFFF;" d="M38.6,28.55c0.566,0,0.85,0.3,0.85,0.9
				c0,0.566-0.284,0.85-0.85,0.85c-0.567,0-0.85-0.283-0.85-0.85C37.75,28.85,38.033,28.55,38.6,28.55z"/>
			<path style="fill-rule:evenodd;clip-rule:evenodd;fill:#FFFFFF;" d="M40.35,26.1c-0.567,0-0.85-0.283-0.85-0.85
				c0-0.6,0.283-0.9,0.85-0.9c0.566,0,0.85,0.301,0.85,0.9C41.2,25.816,40.917,26.1,40.35,26.1z"/>
			<path style="fill-rule:evenodd;clip-rule:evenodd;fill:#FFFFFF;" d="M43.65,28.4H43.5c-0.533,0-0.8-0.284-0.8-0.851
				s0.267-0.85,0.8-0.85h0.15c0.567,0,0.85,0.283,0.85,0.85S44.217,28.4,43.65,28.4z"/>
			<path style="fill-rule:evenodd;clip-rule:evenodd;fill:#FFFFFF;" d="M43.8,29c0.567,0,0.85,0.3,0.85,0.9
				c0,0.566-0.283,0.85-0.85,0.85c-0.533,0-0.8-0.283-0.8-0.85C43,29.3,43.267,29,43.8,29z"/>
			<path style="fill-rule:evenodd;clip-rule:evenodd;fill:#FFFFFF;" d="M38.9,26.55c0.567,0,0.85,0.283,0.85,0.851
				c0,0.566-0.283,0.85-0.85,0.85c-0.566,0-0.85-0.283-0.85-0.85C38.05,26.833,38.333,26.55,38.9,26.55z"/>
			<path style="fill-rule:evenodd;clip-rule:evenodd;fill:#FFFFFF;" d="M42.65,21.9c0.567,0,0.85,0.3,0.85,0.9
				c0,0.566-0.283,0.851-0.85,0.851c-0.533,0-0.8-0.284-0.8-0.851C41.85,22.2,42.117,21.9,42.65,21.9z"/>
			<path style="fill-rule:evenodd;clip-rule:evenodd;fill:#FFFFFF;" d="M51.2,22.6c0.566,0,0.85,0.301,0.85,0.9
				c0,0.566-0.283,0.85-0.85,0.85h-0.15c-0.533,0-0.8-0.283-0.8-0.85c0-0.6,0.267-0.9,0.8-0.9H51.2z"/>
			<path style="fill-rule:evenodd;clip-rule:evenodd;fill:#FFFFFF;" d="M54.95,23.65c0.566,0,0.85,0.283,0.85,0.85
				s-0.283,0.85-0.85,0.85c-0.534,0-0.8-0.283-0.8-0.85S54.417,23.65,54.95,23.65z"/>
			<path style="fill-rule:evenodd;clip-rule:evenodd;fill:#FFFFFF;" d="M57.45,25.95c0.566,0,0.85,0.3,0.85,0.899
				c0,0.567-0.283,0.851-0.85,0.851c-0.567,0-0.85-0.283-0.85-0.851C56.6,26.25,56.883,25.95,57.45,25.95z"/>
			<path style="fill-rule:evenodd;clip-rule:evenodd;fill:#FFFFFF;" d="M59.45,24.8c0.566,0,0.85,0.3,0.85,0.9
				c0,0.566-0.283,0.85-0.85,0.85c-0.534,0-0.8-0.283-0.8-0.85C58.65,25.1,58.917,24.8,59.45,24.8z"/>
			<path style="fill-rule:evenodd;clip-rule:evenodd;fill:#FFFFFF;" d="M61.35,23.9c0.566,0,0.85,0.3,0.85,0.899
				c0,0.566-0.284,0.851-0.85,0.851c-0.533,0-0.8-0.284-0.8-0.851C60.55,24.2,60.817,23.9,61.35,23.9z"/>
			<path style="fill-rule:evenodd;clip-rule:evenodd;fill:#FFFFFF;" d="M64.1,25.8c0.567,0,0.851,0.3,0.851,0.9
				c0,0.566-0.283,0.85-0.851,0.85c-0.533,0-0.8-0.283-0.8-0.85C63.3,26.1,63.566,25.8,64.1,25.8z"/>
			<path style="fill-rule:evenodd;clip-rule:evenodd;fill:#FFFFFF;" d="M63.95,27.7c0.566,0,0.85,0.3,0.85,0.899
				c0,0.567-0.283,0.851-0.85,0.851c-0.533,0-0.8-0.283-0.8-0.851C63.15,28,63.417,27.7,63.95,27.7z"/>
			<path style="fill-rule:evenodd;clip-rule:evenodd;fill:#FFFFFF;" d="M67.9,26.8c0.566,0,0.85,0.3,0.85,0.9
				c0,0.566-0.283,0.85-0.85,0.85h-0.15c-0.566,0-0.85-0.283-0.85-0.85c0-0.601,0.283-0.9,0.85-0.9H67.9z"/>
			<path style="fill-rule:evenodd;clip-rule:evenodd;fill:#FFFFFF;" d="M70.8,29c-0.566,0-0.85-0.283-0.85-0.85
				c0-0.601,0.283-0.9,0.85-0.9s0.851,0.3,0.851,0.9C71.65,28.717,71.366,29,70.8,29z"/>
			<path style="fill-rule:evenodd;clip-rule:evenodd;fill:#FFFFFF;" d="M71.95,28.85c0.566,0,0.85,0.301,0.85,0.9
				c0,0.566-0.283,0.85-0.85,0.85S71.1,30.316,71.1,29.75C71.1,29.15,71.384,28.85,71.95,28.85z"/>
			<path style="fill-rule:evenodd;clip-rule:evenodd;fill:#FFFFFF;" d="M69.45,31.9c-0.533,0-0.8-0.284-0.8-0.851
				c0-0.6,0.267-0.899,0.8-0.899c0.566,0,0.85,0.3,0.85,0.899C70.3,31.616,70.017,31.9,69.45,31.9z"/>
			<path style="fill-rule:evenodd;clip-rule:evenodd;fill:#FFFFFF;" d="M73.8,31.3c0.566,0,0.851,0.3,0.851,0.9
				c0,0.566-0.284,0.85-0.851,0.85h-0.1c-0.566,0-0.851-0.283-0.851-0.85c0-0.601,0.284-0.9,0.851-0.9H73.8z"/>
			<path style="fill-rule:evenodd;clip-rule:evenodd;fill:#FFFFFF;" d="M75.15,31.05c-0.567,0-0.851-0.283-0.851-0.85
				c0-0.601,0.283-0.9,0.851-0.9c0.566,0,0.85,0.3,0.85,0.9C76,30.767,75.717,31.05,75.15,31.05z"/>
			<path style="fill-rule:evenodd;clip-rule:evenodd;fill:#FFFFFF;" d="M75.1,34.1C74.7,33.7,74.7,33.3,75.1,32.9
				c0.434-0.4,0.834-0.4,1.2,0l0.45,0.399c0.233,0.267,0.3,0.55,0.2,0.851c-0.066,0.267-0.25,0.466-0.55,0.6
				c0.267,0.233,0.35,0.533,0.25,0.9c-0.101,0.399-0.367,0.6-0.801,0.6c-0.5,0-0.767-0.25-0.8-0.75
				c-0.066-0.467,0.101-0.783,0.5-0.95L75.1,34.1z"/>
			<path style="fill-rule:evenodd;clip-rule:evenodd;fill:#FFFFFF;" d="M70.85,34.25c0.534,0.033,0.801,0.316,0.801,0.85
				c-0.034,0.567-0.317,0.851-0.851,0.851c-0.399,0-0.666-0.184-0.8-0.55c-0.1-0.334-0.05-0.634,0.15-0.9
				c-0.534-0.033-0.801-0.333-0.801-0.9c0.034-0.566,0.317-0.85,0.851-0.85c0.399,0,0.666,0.184,0.8,0.55
				C71.134,33.667,71.083,33.983,70.85,34.25z"/>
			<path style="fill-rule:evenodd;clip-rule:evenodd;fill:#FFFFFF;" d="M70.5,35.95c0.566,0,0.85,0.3,0.85,0.899
				c0,0.567-0.283,0.851-0.85,0.851s-0.85-0.283-0.85-0.851C69.65,36.25,69.934,35.95,70.5,35.95z"/>
			<path style="fill-rule:evenodd;clip-rule:evenodd;fill:#FFFFFF;" d="M68.15,35.95c0.566,0,0.85,0.3,0.85,0.899
				c0,0.567-0.283,0.851-0.85,0.851c-0.534,0-0.801-0.283-0.801-0.851C67.35,36.25,67.616,35.95,68.15,35.95z"/>
			<path style="fill-rule:evenodd;clip-rule:evenodd;fill:#FFFFFF;" d="M66.55,35.4c0.566,0,0.851,0.283,0.851,0.85
				s-0.284,0.85-0.851,0.85c-0.533,0-0.8-0.283-0.8-0.85S66.017,35.4,66.55,35.4z"/>
			<path style="fill-rule:evenodd;clip-rule:evenodd;fill:#FFFFFF;" d="M63.65,33.8c0.566,0,0.85,0.283,0.85,0.851
				c0,0.566-0.283,0.85-0.85,0.85c-0.534,0-0.8-0.283-0.8-0.85C62.85,34.083,63.116,33.8,63.65,33.8z"/>
			<path style="fill-rule:evenodd;clip-rule:evenodd;fill:#FFFFFF;" d="M61.8,34.2c0.567,0,0.85,0.3,0.85,0.899
				c0,0.567-0.283,0.851-0.85,0.851c-0.566,0-0.85-0.283-0.85-0.851C60.95,34.5,61.233,34.2,61.8,34.2z"/>
			<path style="fill-rule:evenodd;clip-rule:evenodd;fill:#FFFFFF;" d="M64.7,31.45c0.566,0,0.85,0.3,0.85,0.899
				c0,0.567-0.283,0.851-0.85,0.851s-0.851-0.283-0.851-0.851C63.85,31.75,64.134,31.45,64.7,31.45z"/>
			<path style="fill-rule:evenodd;clip-rule:evenodd;fill:#FFFFFF;" d="M66.45,33.2c-0.566,0-0.851-0.283-0.851-0.851
				c0-0.6,0.284-0.899,0.851-0.899s0.85,0.3,0.85,0.899C67.3,32.917,67.017,33.2,66.45,33.2z"/>
			<path style="fill-rule:evenodd;clip-rule:evenodd;fill:#FFFFFF;" d="M67,31.15c-0.533,0-0.8-0.284-0.8-0.851s0.267-0.85,0.8-0.85
				c0.566,0,0.85,0.283,0.85,0.85S67.566,31.15,67,31.15z"/>
			<path style="fill-rule:evenodd;clip-rule:evenodd;fill:#FFFFFF;" d="M67.45,35.1c-0.566,0-0.851-0.283-0.851-0.85
				c0-0.6,0.284-0.9,0.851-0.9s0.85,0.301,0.85,0.9C68.3,34.816,68.017,35.1,67.45,35.1z"/>
			<path style="fill-rule:evenodd;clip-rule:evenodd;fill:#FFFFFF;" d="M78.15,32.6c0.566,0,0.85,0.301,0.85,0.9
				c0,0.566-0.283,0.85-0.85,0.85c-0.534,0-0.801-0.283-0.801-0.85C77.35,32.9,77.616,32.6,78.15,32.6z"/>
			<path style="fill-rule:evenodd;clip-rule:evenodd;fill:#FFFFFF;" d="M78.15,30.15c0.566,0,0.85,0.3,0.85,0.899
				c0,0.566-0.283,0.851-0.85,0.851c-0.534,0-0.801-0.284-0.801-0.851l-0.5,0.101c-0.533,0-0.8-0.284-0.8-0.851s0.267-0.85,0.8-0.85
				c0.567,0,0.851,0.283,0.851,0.85C77.866,30.2,78.017,30.15,78.15,30.15z"/>
		</g>
	</g>
	<g>
		<g>
			<path style="fill-rule:evenodd;clip-rule:evenodd;fill:#C1DAE8;" d="M100.65,19.85c0.566,0,0.85,0.3,0.85,0.9
				c0,0.567-0.283,0.85-0.85,0.85h-0.301c-0.533,0-0.8-0.283-0.8-0.85c0-0.6,0.267-0.9,0.8-0.9H100.65z"/>
			<path style="fill-rule:evenodd;clip-rule:evenodd;fill:#C1DAE8;" d="M102.8,20.75c-0.533,0-0.8-0.283-0.8-0.85
				c0-0.6,0.267-0.9,0.8-0.9c0.566,0,0.851,0.3,0.851,0.9C103.65,20.467,103.366,20.75,102.8,20.75z"/>
			<path style="fill-rule:evenodd;clip-rule:evenodd;fill:#C1DAE8;" d="M102.2,24.25l-0.45-0.6c-0.366-0.434-0.366-0.834,0-1.2
				c0.167-0.167,0.384-0.25,0.65-0.25s0.466,0.083,0.6,0.25l0.45,0.55c0.399,0.434,0.399,0.85,0,1.25
				c-0.167,0.167-0.384,0.25-0.65,0.25S102.333,24.417,102.2,24.25z"/>
			<path style="fill-rule:evenodd;clip-rule:evenodd;fill:#C1DAE8;" d="M104,22.9c-0.566,0-0.85-0.284-0.85-0.851
				c0-0.6,0.283-0.9,0.85-0.9s0.85,0.3,0.85,0.9C104.85,22.616,104.566,22.9,104,22.9z"/>
			<path style="fill-rule:evenodd;clip-rule:evenodd;fill:#C1DAE8;" d="M105.8,22.9c-0.233-0.167-0.35-0.4-0.35-0.7v-0.15
				c0-0.5,0.25-0.783,0.75-0.85c0.467-0.034,0.767,0.167,0.899,0.6l0.2-0.05c0.533,0.067,0.867,0.333,1,0.8
				c0.134,0.467-0.033,0.783-0.5,0.95c-0.434,0.2-0.783,0.116-1.05-0.25l-0.2-0.25C106.283,23.066,106.033,23.033,105.8,22.9z"/>
			<path style="fill-rule:evenodd;clip-rule:evenodd;fill:#C1DAE8;" d="M105,26.25c-0.566,0-0.85-0.283-0.85-0.85
				c0-0.601,0.283-0.9,0.85-0.9s0.85,0.3,0.85,0.9C105.85,25.967,105.566,26.25,105,26.25z"/>
			<path style="fill-rule:evenodd;clip-rule:evenodd;fill:#C1DAE8;" d="M110.8,25.25c-0.566,0-0.85-0.283-0.85-0.85
				c0-0.601,0.283-0.9,0.85-0.9c0.434,0,0.7,0.2,0.8,0.6c0.101-0.399,0.367-0.6,0.801-0.6c0.566,0,0.85,0.3,0.85,0.9
				c0,0.566-0.283,0.85-0.85,0.85c-0.4,0-0.667-0.217-0.801-0.65C111.467,25.033,111.2,25.25,110.8,25.25z"/>
			<path style="fill-rule:evenodd;clip-rule:evenodd;fill:#C1DAE8;" d="M97.7,23.6c0.3-0.233,0.6-0.3,0.899-0.199
				c-0.833-0.334-1.267-0.884-1.3-1.65c-0.033-0.533,0.233-0.817,0.8-0.85c0.601,0,0.917,0.267,0.95,0.8l0.101,0.1
				c0.566,0.2,0.767,0.55,0.6,1.05c-0.066,0.2-0.2,0.367-0.4,0.5c-0.199,0.134-0.416,0.167-0.649,0.101
				c0.233,0.133,0.383,0.333,0.45,0.6c0.066,0.3,0,0.566-0.2,0.8L98.8,24.95c-0.399,0.399-0.8,0.399-1.2,0
				c-0.433-0.4-0.449-0.8-0.05-1.2L97.7,23.6z"/>
			<path style="fill-rule:evenodd;clip-rule:evenodd;fill:#C1DAE8;" d="M101.15,25.8c0.3,0.233,0.399,0.55,0.3,0.95
				c-0.101,0.434-0.367,0.65-0.8,0.65c-0.4,0-0.667-0.184-0.801-0.551c-0.1-0.366-0.05-0.666,0.15-0.899
				c-0.3-0.233-0.4-0.55-0.3-0.95c0.1-0.434,0.366-0.65,0.8-0.65c0.4,0,0.667,0.184,0.8,0.551
				C101.434,25.267,101.384,25.566,101.15,25.8z"/>
			<path style="fill-rule:evenodd;clip-rule:evenodd;fill:#C1DAE8;" d="M103.2,28.6c-0.367-0.399-0.351-0.8,0.05-1.199
				c0.4-0.434,0.8-0.45,1.2-0.051l0.149,0.15c0.4,0.4,0.4,0.816,0,1.25c-0.433,0.4-0.85,0.4-1.25,0L103.2,28.6z"/>
			<path style="fill-rule:evenodd;clip-rule:evenodd;fill:#C1DAE8;" d="M106.6,28c-0.566,0-0.85-0.283-0.85-0.85
				c0-0.601,0.283-0.9,0.85-0.9c0.567,0,0.851,0.3,0.851,0.9C107.45,27.717,107.167,28,106.6,28z"/>
			<path style="fill-rule:evenodd;clip-rule:evenodd;fill:#C1DAE8;" d="M106.55,24.3c0.167-0.2,0.367-0.283,0.601-0.25
				c0.533,0.066,0.866,0.334,1,0.8c0.133,0.5-0.034,0.834-0.5,1c-0.434,0.2-0.784,0.117-1.051-0.25c-0.199-0.133-0.3-0.35-0.3-0.649
				C106.3,24.717,106.384,24.5,106.55,24.3z"/>
			<path style="fill-rule:evenodd;clip-rule:evenodd;fill:#C1DAE8;" d="M99.65,29.3c-0.567,0-0.851-0.283-0.851-0.85
				c0-0.601,0.283-0.9,0.851-0.9c0.566,0,0.85,0.3,0.85,0.9C100.5,29.017,100.217,29.3,99.65,29.3z"/>
			<path style="fill-rule:evenodd;clip-rule:evenodd;fill:#C1DAE8;" d="M95.85,25.35c-0.533,0-0.8-0.283-0.8-0.85
				s0.267-0.85,0.8-0.85c0.567,0,0.851,0.283,0.851,0.85S96.417,25.35,95.85,25.35z"/>
			<path style="fill-rule:evenodd;clip-rule:evenodd;fill:#C1DAE8;" d="M96.15,28c-0.534,0-0.801-0.283-0.801-0.85
				c0-0.601,0.267-0.9,0.801-0.9c0.566,0,0.85,0.3,0.85,0.9C97,27.717,96.717,28,96.15,28z"/>
			<path style="fill-rule:evenodd;clip-rule:evenodd;fill:#C1DAE8;" d="M96,30.45c0.566,0,0.85,0.3,0.85,0.899
				c0,0.567-0.283,0.851-0.85,0.851c-0.533,0-0.8-0.283-0.8-0.851C95.2,30.75,95.467,30.45,96,30.45z"/>
			<path style="fill-rule:evenodd;clip-rule:evenodd;fill:#C1DAE8;" d="M97.3,30.15c-0.533,0-0.8-0.284-0.8-0.851
				c0-0.6,0.267-0.899,0.8-0.899c0.566,0,0.851,0.3,0.851,0.899C98.15,29.866,97.866,30.15,97.3,30.15z"/>
			<path style="fill-rule:evenodd;clip-rule:evenodd;fill:#C1DAE8;" d="M98.05,30.05c0.566,0,0.851,0.283,0.851,0.851v0.149
				L98.85,31.4c0.434,0.066,0.65,0.333,0.65,0.8v0.149c0,0.567-0.283,0.851-0.85,0.851c-0.601,0-0.9-0.283-0.9-0.851V32.2
				l0.05-0.351c-0.434-0.133-0.649-0.399-0.649-0.8V30.9C97.15,30.333,97.45,30.05,98.05,30.05z"/>
			<path style="fill-rule:evenodd;clip-rule:evenodd;fill:#C1DAE8;" d="M94.7,34.5c0.566,0,0.85,0.3,0.85,0.9
				c0,0.566-0.283,0.85-0.85,0.85c-0.533,0-0.8-0.283-0.8-0.85C93.9,34.8,94.167,34.5,94.7,34.5z"/>
			<path style="fill-rule:evenodd;clip-rule:evenodd;fill:#C1DAE8;" d="M92.55,34.2c-0.566,0-0.85-0.283-0.85-0.851
				c0-0.566,0.283-0.85,0.85-0.85s0.851,0.283,0.851,0.85C93.4,33.917,93.116,34.2,92.55,34.2z"/>
			<path style="fill-rule:evenodd;clip-rule:evenodd;fill:#C1DAE8;" d="M90.2,34.65c0.5,0,0.783,0.267,0.85,0.8
				c0.033,0.5-0.184,0.8-0.649,0.899c0.233,0.267,0.283,0.584,0.149,0.95c-0.133,0.367-0.399,0.55-0.8,0.55
				c-0.5,0-0.767-0.267-0.8-0.8s0.184-0.833,0.649-0.899c-0.233-0.267-0.3-0.584-0.199-0.95C89.533,34.833,89.8,34.65,90.2,34.65z"
				/>
			<path style="fill-rule:evenodd;clip-rule:evenodd;fill:#C1DAE8;" d="M89.05,33.15c0.2,0.166,0.3,0.383,0.3,0.649v0.15
				c0,0.5-0.25,0.767-0.75,0.8c-0.533,0.066-0.85-0.134-0.949-0.6L87.3,34.2c0.334,0.2,0.467,0.517,0.4,0.95
				C87.6,35.583,87.316,35.8,86.85,35.8c-0.533,0-0.8-0.283-0.8-0.85c0-0.589,0.259-0.89,0.775-0.9
				c-0.344-0.229-0.469-0.546-0.375-0.95c0.166-0.5,0.55-0.75,1.149-0.75c0.4-0.033,0.667,0.167,0.801,0.601
				C88.634,32.917,88.85,32.983,89.05,33.15z"/>
			<path style="fill-rule:evenodd;clip-rule:evenodd;fill:#C1DAE8;" d="M84.25,33.8c0.267-0.5,0.65-0.6,1.15-0.3
				c0.5,0.267,0.616,0.65,0.35,1.15c-0.134,0.3-0.333,0.55-0.6,0.75c-0.334,0.333-0.684,0.366-1.051,0.1
				c-0.399-0.3-0.517-0.65-0.35-1.05c-0.267,0.2-0.55,0.233-0.85,0.1c-0.334-0.133-0.5-0.383-0.5-0.75v-0.45
				c0-0.566,0.283-0.85,0.85-0.85s0.85,0.283,0.85,0.85v0.45l-0.05,0.25L84.25,33.8z"/>
			<path style="fill-rule:evenodd;clip-rule:evenodd;fill:#C1DAE8;" d="M83.1,30.9c-0.3,0-0.533-0.117-0.699-0.351
				c-0.134-0.2-0.167-0.434-0.101-0.7c-0.533-0.033-0.783-0.333-0.75-0.899c0.033-0.533,0.316-0.8,0.851-0.8
				c0.267,0,0.483,0.116,0.649,0.35c0.134,0.2,0.184,0.417,0.15,0.65c0.5,0.066,0.75,0.366,0.75,0.899
				C83.917,30.616,83.634,30.9,83.1,30.9z"/>
			<path style="fill-rule:evenodd;clip-rule:evenodd;fill:#C1DAE8;" d="M80.8,33.2c-0.566,0-0.85-0.283-0.85-0.851
				c0-0.6,0.283-0.899,0.85-0.899s0.851,0.3,0.851,0.899C81.65,32.917,81.366,33.2,80.8,33.2z"/>
			<path style="fill-rule:evenodd;clip-rule:evenodd;fill:#C1DAE8;" d="M81.2,33.8c0.5,0.066,0.75,0.351,0.75,0.851
				c0,0.333-0.134,0.633-0.4,0.899c-0.366,0.4-0.75,0.417-1.149,0.05C80,35.2,79.95,34.8,80.25,34.4
				C80.384,33.967,80.7,33.767,81.2,33.8z"/>
			<path style="fill-rule:evenodd;clip-rule:evenodd;fill:#C1DAE8;" d="M80.5,38.15c-0.566,0-0.85-0.284-0.85-0.851
				c0-0.6,0.283-0.899,0.85-0.899s0.85,0.3,0.85,0.899C81.35,37.866,81.066,38.15,80.5,38.15z"/>
			<path style="fill-rule:evenodd;clip-rule:evenodd;fill:#C1DAE8;" d="M84.7,31.9c-0.566,0-0.851-0.284-0.851-0.851
				c0-0.6,0.284-0.899,0.851-0.899s0.85,0.3,0.85,0.899C85.55,31.616,85.267,31.9,84.7,31.9z"/>
			<path style="fill-rule:evenodd;clip-rule:evenodd;fill:#C1DAE8;" d="M98.9,33.35c0.566,0,0.85,0.301,0.85,0.9
				c0,0.566-0.283,0.85-0.85,0.85h-0.15c-0.533,0-0.8-0.283-0.8-0.85c0-0.6,0.267-0.9,0.8-0.9H98.9z"/>
			<path style="fill-rule:evenodd;clip-rule:evenodd;fill:#C1DAE8;" d="M102.55,30.9c0.566,0,0.851,0.283,0.851,0.85
				s-0.284,0.85-0.851,0.85s-0.85-0.283-0.85-0.85S101.983,30.9,102.55,30.9z"/>
			<path style="fill-rule:evenodd;clip-rule:evenodd;fill:#C1DAE8;" d="M112.7,29c0.566,0,0.85,0.3,0.85,0.9
				c0,0.566-0.283,0.85-0.85,0.85l-0.2-0.05c-0.134,0.434-0.45,0.616-0.95,0.55c-0.5-0.033-0.75-0.3-0.75-0.8V30
				c0-0.4,0.167-0.65,0.5-0.75L111,29.1l-0.2,0.051c-0.566,0-0.85-0.284-0.85-0.851c0-0.6,0.283-0.899,0.85-0.899
				c0.2,0,0.367,0.066,0.5,0.199l0.2-0.05c0.467,0,0.75,0.233,0.85,0.7c0.067,0.467-0.083,0.783-0.449,0.95l0.149,0.05
				C112.217,29.083,112.434,29,112.7,29z"/>
			<path style="fill-rule:evenodd;clip-rule:evenodd;fill:#C1DAE8;" d="M114.15,26.95c0.566,0,0.85,0.3,0.85,0.899
				c0,0.567-0.283,0.851-0.85,0.851c-0.567,0-0.851-0.283-0.851-0.851C113.3,27.25,113.583,26.95,114.15,26.95z"/>
			<path style="fill-rule:evenodd;clip-rule:evenodd;fill:#C1DAE8;" d="M116.45,28.85c0-0.533,0.3-0.8,0.899-0.8
				c0.567,0,0.851,0.267,0.851,0.8V29c0,0.566-0.283,0.85-0.851,0.85c-0.6,0-0.899-0.283-0.899-0.85V28.85z"/>
			<path style="fill-rule:evenodd;clip-rule:evenodd;fill:#C1DAE8;" d="M116,30.6c0.566,0,0.85,0.301,0.85,0.9
				c0,0.566-0.283,0.85-0.85,0.85l-0.05-0.05c-0.066,0.5-0.334,0.75-0.8,0.75c-0.567,0-0.851-0.283-0.851-0.85
				c0-0.601,0.283-0.9,0.851-0.9l0.05,0.05C115.267,30.85,115.533,30.6,116,30.6z"/>
			<path style="fill-rule:evenodd;clip-rule:evenodd;fill:#C1DAE8;" d="M110.65,33.95c-0.134,0-0.301-0.066-0.5-0.2
				c-0.4,0.1-0.717-0.05-0.95-0.45c-0.601,0-0.884-0.267-0.851-0.8c0-0.434,0.134-0.783,0.4-1.05c0.134-0.2,0.333-0.3,0.6-0.3
				c0.233,0.033,0.434,0.133,0.601,0.3c0.1,0.1,0.184,0.25,0.25,0.45l0.5,0.3c0.533,0.033,0.8,0.333,0.8,0.899
				C111.467,33.667,111.184,33.95,110.65,33.95z"/>
			<path style="fill-rule:evenodd;clip-rule:evenodd;fill:#C1DAE8;" d="M109.65,31.15c-0.567,0-0.851-0.284-0.851-0.851
				s0.283-0.85,0.851-0.85h0.149c0.566,0,0.851,0.283,0.851,0.85s-0.284,0.851-0.851,0.851H109.65z"/>
			<path style="fill-rule:evenodd;clip-rule:evenodd;fill:#C1DAE8;" d="M107.75,30c0,0.566-0.283,0.85-0.85,0.85
				c-0.601,0-0.9-0.283-0.9-0.85v-0.15c0-0.533,0.3-0.8,0.9-0.8c0.566,0,0.85,0.267,0.85,0.8V30z"/>
			<path style="fill-rule:evenodd;clip-rule:evenodd;fill:#C1DAE8;" d="M105.15,33.2c0.566,0,0.85,0.3,0.85,0.899
				c0,0.567-0.283,0.851-0.85,0.851c-0.567,0-0.851-0.283-0.851-0.851C104.3,33.5,104.583,33.2,105.15,33.2z"/>
			<path style="fill-rule:evenodd;clip-rule:evenodd;fill:#C1DAE8;" d="M104,35.4c0.5-0.034,0.767,0.199,0.8,0.699
				c0.066,0.5-0.133,0.817-0.6,0.95c-0.3,0.233-0.617,0.25-0.95,0.05c-0.4-0.199-0.533-0.517-0.4-0.949
				C102.983,35.65,103.366,35.4,104,35.4z"/>
			<path style="fill-rule:evenodd;clip-rule:evenodd;fill:#C1DAE8;" d="M100.2,36.55c0.566,0,0.85,0.3,0.85,0.9
				c0,0.566-0.283,0.85-0.85,0.85c-0.533,0-0.8-0.283-0.8-0.85C99.4,36.85,99.667,36.55,100.2,36.55z"/>
			<path style="fill-rule:evenodd;clip-rule:evenodd;fill:#C1DAE8;" d="M106.8,36.15c0.334-0.2,0.667-0.2,1,0
				c0.367,0.199,0.483,0.5,0.351,0.899c-0.134,0.533-0.517,0.8-1.15,0.8c-0.5,0-0.767-0.25-0.8-0.75
				C106.134,36.6,106.333,36.283,106.8,36.15z"/>
			<path style="fill-rule:evenodd;clip-rule:evenodd;fill:#C1DAE8;" d="M107.9,33.95c0.566,0,0.85,0.283,0.85,0.85
				s-0.283,0.851-0.85,0.851c-0.567,0-0.851-0.284-0.851-0.851S107.333,33.95,107.9,33.95z"/>
			<path style="fill-rule:evenodd;clip-rule:evenodd;fill:#C1DAE8;" d="M112.25,33.65c0.566,0,0.85,0.3,0.85,0.899
				c0,0.566-0.283,0.851-0.85,0.851s-0.85-0.284-0.85-0.851C111.4,33.95,111.684,33.65,112.25,33.65z"/>
			<path style="fill-rule:evenodd;clip-rule:evenodd;fill:#C1DAE8;" d="M92.8,38.7c-0.533,0-0.8-0.283-0.8-0.851
				c0-0.6,0.267-0.899,0.8-0.899c0.566,0,0.851,0.3,0.851,0.899C93.65,38.417,93.366,38.7,92.8,38.7z"/>
			<path style="fill-rule:evenodd;clip-rule:evenodd;fill:#C1DAE8;" d="M89.5,38.3c0.566,0,0.85,0.283,0.85,0.851
				c0,0.566-0.283,0.85-0.85,0.85s-0.85-0.283-0.85-0.85C88.65,38.583,88.934,38.3,89.5,38.3z"/>
			<path style="fill-rule:evenodd;clip-rule:evenodd;fill:#C1DAE8;" d="M92.65,38.7c0.566,0,0.85,0.3,0.85,0.899
				c0,0.567-0.283,0.851-0.85,0.851h-0.7c-0.566,0-0.851-0.283-0.851-0.851c0-0.6,0.284-0.899,0.851-0.899H92.65z"/>
			<path style="fill-rule:evenodd;clip-rule:evenodd;fill:#C1DAE8;" d="M93.95,38.1c0.399-0.399,0.8-0.383,1.2,0.051
				c0.399,0.399,0.399,0.8,0,1.199L95.05,39.45c-0.399,0.399-0.8,0.399-1.2,0c-0.433-0.4-0.449-0.8-0.05-1.2L93.95,38.1z"/>
		</g>
	</g>
	<g>
		
			<use xlink:href="#flash0.ai_x5F_16_x2F_Layer_114_x2F__x3C_Path_x3E__x5F_2"  width="122.408" height="38.152" x="0.019" y="-38.092" transform="matrix(1 0 0 -1 4.6499 0.0498)" style="overflow:visible;opacity:0.6914;enable-background:new    ;"/>
	</g>
</g>
</svg>
