<?xml version="1.0" encoding="iso-8859-1"?>
<!-- Generator: Adobe Illustrator 15.1.0, SVG Export Plug-In . SVG Version: 6.00 Build 0)  -->
<!DOCTYPE svg PUBLIC "-//W3C//DTD SVG 1.1//EN" "http://www.w3.org/Graphics/SVG/1.1/DTD/svg11.dtd">
<svg version="1.1" id="flash0.ai" xmlns="http://www.w3.org/2000/svg" xmlns:xlink="http://www.w3.org/1999/xlink" x="0px" y="0px"
	 width="89.45px" height="62.1px" viewBox="0 0 89.45 62.1" style="enable-background:new 0 0 89.45 62.1;" xml:space="preserve">
<symbol  id="flash0.ai_x5F_7_x2F_Layer_64_x2F__x3C_Path_x3E_" viewBox="0 -21.45 89.463 21.405">
	<g id="Layer_1_2_">
		<path style="fill-rule:evenodd;clip-rule:evenodd;" d="M81.75-7.15l4.55-1.3c1.034-0.3,1.383-0.517,1.05-0.65L86.5-9.2l2.55-1.1
			c0.534-0.133,0.55-0.284,0.05-0.45c-0.434-0.133-1.083-0.233-1.95-0.3c-0.633-0.034-1.417-0.233-2.35-0.6
			c-1.233-0.533-2.283-0.967-3.15-1.3c-0.767-0.3-1.717-0.617-2.85-0.95c-0.4-0.133-0.716-0.283-0.95-0.45
			c-0.2-0.133-0.567-0.483-1.1-1.05c-0.4-0.367-0.783-0.55-1.15-0.55c-0.767,0.034-1.533-0.033-2.3-0.2
			c-1.033-0.233-1.7-0.467-2-0.7c-0.133-0.3-0.316-0.533-0.55-0.7c-0.433-0.434-0.883-0.8-1.35-1.1c-0.867-0.5-2.117-0.85-3.75-1.05
			l-1.35-0.2c-0.034,0-0.084,0-0.15,0c-0.633,0-1.083-0.05-1.35-0.15c-0.267-0.067-0.7-0.2-1.3-0.4c-0.8-0.267-1.333-0.5-1.6-0.7
			c-0.267-0.2-0.75-0.3-1.45-0.3c-1,0.034-1.883,0.05-2.65,0.05L50-21.3c-0.667,0-1.4,0.183-2.2,0.55
			c-1.367,0.667-2.716,1.317-4.05,1.95c-1.567,0.733-2.55,1.1-2.95,1.1c-1,0-1.716,0.05-2.15,0.15c-1.1,0.233-1.85,0.283-2.25,0.15
			c-1.1-0.333-2.066-0.55-2.9-0.65c-1.467-0.2-2.5-0.267-3.1-0.2c-1.033,0.133-1.667,0.2-1.9,0.2c-1.333,0-2.117,0-2.35,0
			c-0.767,0.066-2.467,0.283-5.1,0.65c-2.333,0.333-3.8,0.7-4.4,1.1c-0.433,0.5-1.05,0.917-1.85,1.25c-1.267,0.533-2.1,0.867-2.5,1
			c-0.566,0.267-1,0.517-1.3,0.75c-0.533,0.433-1.15,0.767-1.85,1C8.683-12.133,7.967-11.667,7-10.9
			c-0.267,0.233-0.65,0.667-1.15,1.3c-0.4,0.533-0.833,0.967-1.3,1.3c-0.5,0.367-1,0.617-1.5,0.75C2.417-7.35,2.067-7.233,2-7.2
			C1.533-7,0.867-6.817,0-6.65l2.5,0.5c0.267,0.066,0.533,0.233,0.8,0.5c0.267,0.267,0.55,0.433,0.85,0.5
			C4.517-5.083,4.767-4.9,4.9-4.6c0.233,0.434,0.45,0.75,0.65,0.95c3.667,1,7.9,2.066,12.7,3.2c2.6,0.6,7.3,0.534,14.1-0.2
			c9.167-1,15.9-1.517,20.2-1.55c6.4-0.1,11.133-0.417,14.2-0.95c1.767-0.3,3.983-0.8,6.65-1.5c1.967-0.367,3.45-0.75,4.45-1.15
			C79.35-6.4,80.65-6.85,81.75-7.15z"/>
	</g>
</symbol>
<g>
	
		<use xlink:href="#flash0.ai_x5F_7_x2F_Layer_64_x2F__x3C_Path_x3E_"  width="89.463" height="21.405" y="-21.45" transform="matrix(1 0 0 -1 0 40.6504)" style="overflow:visible;opacity:0.1406;enable-background:new    ;"/>
</g>
<path style="fill-rule:evenodd;clip-rule:evenodd;fill:#B0B1B3;" d="M83.6,50.7l-0.5,0.25c-1.6,0-2.983,0.217-4.149,0.649
	c-0.467,0-0.867,0.117-1.2,0.351c-0.267,0.133-0.6,0.399-1,0.8c-1,0.134-1.75,0.267-2.25,0.4c-1.366,0.066-2.483,0.233-3.35,0.5
	l-0.5-0.051c-0.567,0-1.15,0.25-1.75,0.75c-0.567,0.434-1.067,1.15-1.5,2.15L67,57l-0.05,0.05c-0.4,0.367-0.75,0.767-1.05,1.2
	c-2.134,0.434-3.717,0.767-4.75,1c-1.834,0.434-3.367,0.95-4.601,1.55c-2.1,0.033-4.483-0.2-7.149-0.7L45.95,59.4l-1.3-0.65
	c-0.4-0.333-0.884-0.533-1.45-0.6c-0.333-0.233-0.767-0.4-1.3-0.5l-0.45-0.5c-0.6-0.4-1.067-0.617-1.4-0.65
	c-0.333-0.167-0.683-0.25-1.05-0.25c-1.833,0.066-3.483,0.3-4.95,0.7h-0.3c-3.6-0.667-6.517-1.066-8.75-1.2
	c-2.733-0.167-4.75-0.417-6.05-0.75c-1.1-0.4-2.4-0.95-3.9-1.65l-2.25-1.5c-1.633-1.133-3.383-2.267-5.25-3.399L5.3,47.1
	c1.6-3.133,2.65-5.5,3.15-7.1c0.6-1.767,1.167-3.717,1.7-5.85c0.733-2.934,1.1-5.167,1.1-6.7c0-1.233,0.583-3.233,1.75-6
	c1.167-2.767,1.75-4.583,1.75-5.45c0-0.8,0.15-2.017,0.45-3.65c0.333-1.567,0.483-2.717,0.45-3.45l0.1-0.2
	c1.467-0.434,2.767-1.417,3.9-2.95c0.767-1.033,1.617-2.6,2.55-4.7c0.566-0.167,1.35-0.5,2.35-1L24.65,0c1.2,0.7,2.6,1.25,4.2,1.65
	c1.066,0.9,1.983,1.733,2.75,2.5c0.733,0.7,1.6,1.917,2.6,3.65c1.066,2.934,1.933,4.617,2.6,5.05c0.534,0.367,1.317,0.717,2.35,1.05
	c0.9,1,2.217,1.5,3.95,1.5c0.5,0,1-0.05,1.5-0.15c0.934,0.167,2.367,0.35,4.301,0.55l1.1,0.25c0.667,0.3,1.283,0.517,1.85,0.65
	c1.067,0.233,2.667,0.417,4.801,0.55c0.5,0.067,1.1,0.467,1.8,1.2c0.967,0.966,1.566,1.533,1.8,1.7l1,2.15
	c0.667,1.6,1.434,3.6,2.3,6c0.7,1.7,1.367,2.717,2,3.05c1.601,0.8,2.434,1.233,2.5,1.3c1.101,0.8,2.233,2.199,3.4,4.199
	c1.434,2.434,3.149,4.884,5.149,7.351c2.067,2.533,3.767,4.283,5.101,5.25C82.2,49.85,82.833,50.267,83.6,50.7z"/>
<g>
	<path style="fill-rule:evenodd;clip-rule:evenodd;fill:#C3C4C7;" d="M19.65,35.25c-0.767,0.9-1.3,1.483-1.6,1.75
		c-1.4,1.333-1.867,1.616-1.4,0.85c0.767-1.166,1.233-1.949,1.4-2.35c0.167-0.366,0.534-0.917,1.1-1.65
		c0.633-0.866,1.167-1.449,1.6-1.75c0.5-0.366,0.933-0.6,1.3-0.7c0.467-0.167,1.383-0.35,2.75-0.55
		c1.967-0.267,3.083-0.434,3.35-0.5c0.667-0.033,1.05-0.067,1.15-0.1c0.067,0,0.483,0,1.25,0c1.4,0,2.434,0.233,3.1,0.7l-1.1,1
		c-0.5,0.267-0.933,0.316-1.3,0.149c-0.733,0.233-1.233,0.351-1.5,0.351c-1.233,0-1.967,0.083-2.2,0.25
		c-0.133,0.133-0.683,0.366-1.65,0.7C25,33.733,24.367,33.934,24,34c-0.2,0.066-0.583,0.1-1.15,0.1
		c-0.633,0.034-1.233,0.117-1.8,0.25C20.483,34.483,20.017,34.783,19.65,35.25z"/>
	<path style="fill-rule:evenodd;clip-rule:evenodd;fill:#C3C4C7;" d="M17.55,41c0.934-0.533,1.667-0.8,2.2-0.8
		c0.367,0,1.183-0.084,2.45-0.25c1.233-0.2,2.017-0.351,2.35-0.45c0.233-0.066,0.633-0.25,1.2-0.55c0.6-0.367,1.067-0.601,1.4-0.7
		l2-0.55c0.633-0.233,1.017-0.217,1.15,0.05c0.133,0.233,0.05,0.434-0.25,0.6c-0.3,0.2-0.65,0.667-1.05,1.4
		c-0.3,0.5-0.45,1.033-0.45,1.6l-2-0.149c-0.2-0.033-0.583,0-1.15,0.1c-0.667,0.134-1.417,0.184-2.25,0.15h-3.1
		c-0.833,0-1.767,0.1-2.8,0.3L15.9,42L17.55,41z"/>
	<path style="fill-rule:evenodd;clip-rule:evenodd;fill:#C3C4C7;" d="M50.5,23.9l0.9-1.45l1.649,7.05l-0.1,4.8
		c-0.066,3.367-0.033,5.517,0.1,6.45c0.101,0.7,0.351,1.85,0.75,3.45c0.3,1.333,0.45,2.184,0.45,2.55c0,1.167,0.134,2.417,0.4,3.75
		c0.066,0.3,0.1,0.65,0.1,1.05c-0.066,0.767-0.1,1.316-0.1,1.65c0,0.666-0.317,1-0.95,1L52.75,54c0.2-0.033,0.5-0.167,0.9-0.4
		c0.267-0.133,0.35-0.466,0.25-1c-0.167-0.666-0.301-1.166-0.4-1.5c-0.2-0.866-0.35-1.783-0.45-2.75c0.066-1.1,0.066-1.933,0-2.5
		l-0.5-3c-0.866-1.066-1.383-1.816-1.55-2.25c-0.1-0.233-0.366-0.666-0.8-1.3c-0.4-0.6-0.617-0.967-0.65-1.1
		c-0.033-0.3-0.033-1.033,0-2.2c0.033-1.333,0.101-2.333,0.2-3c0.1-1.167,0.184-2.133,0.25-2.9l-0.2-3.4
		C49.7,25.933,49.934,25,50.5,23.9z"/>
	
		<linearGradient id="SVGID_1_" gradientUnits="userSpaceOnUse" x1="22.1699" y1="-16.4702" x2="27.17" y2="-16.4702" gradientTransform="matrix(0.1 0.995 -0.995 0.1 2.024174e-004 1.401901e-004)">
		<stop  offset="0" style="stop-color:#9BA1A6"/>
		<stop  offset="1" style="stop-color:#B7B8B8"/>
	</linearGradient>
	<path style="fill-rule:evenodd;clip-rule:evenodd;fill:url(#SVGID_1_);" d="M20.8,23.1c0,0.733-0.183,1.35-0.55,1.85
		c-0.367,0.533-0.817,0.8-1.35,0.8s-1-0.267-1.4-0.8c-0.367-0.5-0.55-1.117-0.55-1.85c0-0.767,0.183-1.4,0.55-1.9
		c0.4-0.534,0.867-0.8,1.4-0.8s0.983,0.267,1.35,0.8C20.617,21.733,20.8,22.367,20.8,23.1z"/>
	
		<linearGradient id="SVGID_2_" gradientUnits="userSpaceOnUse" x1="29.1831" y1="-17.4229" x2="33.029" y2="-17.4229" gradientTransform="matrix(-0.104 0.9946 -0.9946 -0.104 -8.832812e-004 1.215935e-004)">
		<stop  offset="0" style="stop-color:#9BA1A6"/>
		<stop  offset="1" style="stop-color:#B7B8B8"/>
	</linearGradient>
	<path style="fill-rule:evenodd;clip-rule:evenodd;fill:url(#SVGID_2_);" d="M15.5,33.2c-0.133,0.566-0.367,1.017-0.7,1.35
		c-0.367,0.334-0.75,0.45-1.15,0.351c-0.4-0.067-0.683-0.334-0.85-0.801c-0.2-0.433-0.25-0.933-0.15-1.5
		c0.133-0.566,0.367-1.016,0.7-1.35c0.367-0.333,0.75-0.45,1.15-0.35c0.4,0.067,0.7,0.333,0.9,0.8
		C15.567,32.134,15.6,32.634,15.5,33.2z"/>
	
		<linearGradient id="SVGID_3_" gradientUnits="userSpaceOnUse" x1="33.8501" y1="-42.6836" x2="38.8502" y2="-42.6836" gradientTransform="matrix(0.1 0.995 -0.995 0.1 2.024174e-004 1.401901e-004)">
		<stop  offset="0" style="stop-color:#9BA1A6"/>
		<stop  offset="1" style="stop-color:#B7B8B8"/>
	</linearGradient>
	<path style="fill-rule:evenodd;clip-rule:evenodd;fill:url(#SVGID_3_);" d="M48.05,32.1c0,0.733-0.184,1.351-0.55,1.851
		c-0.366,0.533-0.816,0.8-1.35,0.8c-0.534,0-1-0.267-1.4-0.8c-0.366-0.5-0.55-1.117-0.55-1.851c0-0.766,0.184-1.399,0.55-1.899
		c0.4-0.534,0.866-0.8,1.4-0.8c0.533,0,0.983,0.267,1.35,0.8C47.866,30.733,48.05,31.367,48.05,32.1z"/>
	
		<linearGradient id="SVGID_4_" gradientUnits="userSpaceOnUse" x1="54.4678" y1="-33.5342" x2="59.2308" y2="-33.5342" gradientTransform="matrix(0.2797 0.9601 -0.9601 0.2797 3.262758e-004 4.835129e-004)">
		<stop  offset="0" style="stop-color:#9BA1A6"/>
		<stop  offset="1" style="stop-color:#B7B8B8"/>
	</linearGradient>
	<path style="fill-rule:evenodd;clip-rule:evenodd;fill:url(#SVGID_4_);" d="M49.95,45c0.1,0.6,0.017,1.15-0.25,1.65
		c-0.267,0.466-0.65,0.75-1.15,0.85s-0.967-0.033-1.399-0.4c-0.434-0.366-0.717-0.85-0.851-1.449c-0.1-0.567,0-1.101,0.3-1.601
		c0.267-0.5,0.65-0.783,1.15-0.85c0.5-0.101,0.967,0.033,1.4,0.399C49.583,43.934,49.85,44.4,49.95,45z"/>
	
		<linearGradient id="SVGID_5_" gradientUnits="userSpaceOnUse" x1="39.7676" y1="-36.8506" x2="43.4865" y2="-36.8506" gradientTransform="matrix(0.1008 0.9949 -0.9949 0.1008 2.703667e-004 -7.438660e-005)">
		<stop  offset="0" style="stop-color:#9BA1A6"/>
		<stop  offset="1" style="stop-color:#B7B8B8"/>
	</linearGradient>
	<path style="fill-rule:evenodd;clip-rule:evenodd;fill:url(#SVGID_5_);" d="M42.5,37.85c0,0.567-0.15,1.034-0.45,1.4
		c-0.333,0.4-0.716,0.6-1.15,0.6c-0.433,0-0.816-0.199-1.15-0.6s-0.5-0.866-0.5-1.4c0-0.533,0.167-1,0.5-1.399
		c0.333-0.4,0.717-0.601,1.15-0.601c0.434,0,0.817,0.2,1.15,0.601C42.35,36.816,42.5,37.283,42.5,37.85z"/>
	
		<linearGradient id="SVGID_6_" gradientUnits="userSpaceOnUse" x1="32.708" y1="-28.4512" x2="36.7108" y2="-28.4512" gradientTransform="matrix(-0.0375 0.9993 -0.9993 -0.0375 -6.171018e-004 5.352497e-005)">
		<stop  offset="0" style="stop-color:#9BA1A6"/>
		<stop  offset="1" style="stop-color:#B7B8B8"/>
	</linearGradient>
	<path style="fill-rule:evenodd;clip-rule:evenodd;fill:url(#SVGID_6_);" d="M28.65,36.1c-0.066,0.567-0.283,1.034-0.65,1.4
		c-0.367,0.4-0.767,0.566-1.2,0.5c-0.4-0.033-0.716-0.283-0.95-0.75s-0.317-1-0.25-1.6c0.066-0.567,0.283-1.034,0.65-1.4
		c0.333-0.366,0.717-0.533,1.15-0.5c0.434,0.066,0.767,0.316,1,0.75C28.633,34.967,28.717,35.5,28.65,36.1z"/>
	
		<linearGradient id="SVGID_7_" gradientUnits="userSpaceOnUse" x1="15.4136" y1="-69.1167" x2="20.4186" y2="-69.1167" gradientTransform="matrix(-0.2997 0.954 -0.954 -0.2997 1.796484e-004 -2.605915e-004)">
		<stop  offset="0" style="stop-color:#9BA1A6"/>
		<stop  offset="1" style="stop-color:#B7B8B8"/>
	</linearGradient>
	<path style="fill-rule:evenodd;clip-rule:evenodd;fill:url(#SVGID_7_);" d="M62.3,38.7c-0.3,0.7-0.717,1.217-1.25,1.55
		c-0.566,0.333-1.1,0.4-1.6,0.2c-0.5-0.233-0.816-0.667-0.95-1.3c-0.134-0.634-0.05-1.284,0.25-1.95
		c0.267-0.667,0.684-1.167,1.25-1.5c0.566-0.367,1.083-0.434,1.55-0.2c0.5,0.2,0.834,0.616,1,1.25
		C62.684,37.384,62.6,38.033,62.3,38.7z"/>
	
		<linearGradient id="SVGID_8_" gradientUnits="userSpaceOnUse" x1="49.8184" y1="-52.1914" x2="53.6617" y2="-52.1914" gradientTransform="matrix(0.0976 0.9952 -0.9952 0.0976 -4.588068e-004 2.565384e-004)">
		<stop  offset="0" style="stop-color:#9BA1A6"/>
		<stop  offset="1" style="stop-color:#B7B8B8"/>
	</linearGradient>
	<path style="fill-rule:evenodd;clip-rule:evenodd;fill:url(#SVGID_8_);" d="M58.5,46.5c0,0.566-0.15,1.066-0.45,1.5
		c-0.267,0.4-0.616,0.6-1.05,0.6c-0.4,0-0.75-0.199-1.05-0.6c-0.3-0.434-0.45-0.934-0.45-1.5c0-0.533,0.15-1.017,0.45-1.45
		c0.3-0.399,0.649-0.6,1.05-0.6c0.434,0,0.783,0.2,1.05,0.6C58.35,45.45,58.5,45.934,58.5,46.5z"/>
	
		<linearGradient id="SVGID_9_" gradientUnits="userSpaceOnUse" x1="15.4609" y1="-38.2598" x2="19.4725" y2="-38.2598" gradientTransform="matrix(-0.1752 0.9845 -0.9845 -0.1752 -3.654361e-004 4.363060e-005)">
		<stop  offset="0" style="stop-color:#9BA1A6"/>
		<stop  offset="1" style="stop-color:#B7B8B8"/>
	</linearGradient>
	<path style="fill-rule:evenodd;clip-rule:evenodd;fill:url(#SVGID_9_);" d="M36.05,24.5c-0.167,0.667-0.466,1.183-0.9,1.55
		c-0.4,0.4-0.816,0.534-1.25,0.4c-0.4-0.133-0.683-0.467-0.85-1c-0.167-0.567-0.15-1.167,0.05-1.8c0.167-0.667,0.467-1.183,0.9-1.55
		c0.4-0.367,0.817-0.483,1.25-0.35c0.4,0.1,0.683,0.417,0.85,0.95C36.267,23.267,36.25,23.867,36.05,24.5z"/>
</g>
<g>
	<path style="fill-rule:evenodd;clip-rule:evenodd;fill:#9B9C9E;" d="M31.3,6.05c0.7-0.2,1.184-0.4,1.45-0.6
		c0.533,0.767,1.183,1.816,1.95,3.15l0.7,2.05c0.4,1.367,1.617,2.4,3.65,3.1v0.05c-1.066,0.6-2.6,1.25-4.6,1.95
		c-1.1,0.4-1.65,1.033-1.65,1.9c0,1.3-0.233,2.283-0.7,2.95c-1.133,1.667-2.483,3.417-4.05,5.25c-0.466-1.667-0.733-3.367-0.8-5.1
		c-0.033-0.767,0.133-1.583,0.5-2.45c0.333-0.8,0.433-1.867,0.3-3.2c-0.267-2.467-0.85-4.184-1.75-5.15l2.4-3L31.3,6.05z"/>
	<path style="fill-rule:evenodd;clip-rule:evenodd;fill:#9B9C9E;" d="M83.85,50.55l-0.75,0.4c-1.6,0-2.983,0.217-4.149,0.649
		c-0.467,0-0.867,0.117-1.2,0.351c-0.267,0.133-0.6,0.399-1,0.8c-1,0.134-1.75,0.267-2.25,0.4c-1.366,0.066-2.483,0.233-3.35,0.5
		l-0.5-0.051c-0.567,0-1.15,0.25-1.75,0.75c-0.567,0.434-1.067,1.15-1.5,2.15L67,57l-0.05,0.05c-0.4,0.367-0.75,0.767-1.05,1.2
		c-2.167,0.434-3.784,0.767-4.851,1c-1.833,0.467-3.366,1-4.6,1.6l-4.25-0.1c-1.367-0.066-3.117-0.35-5.25-0.85l-2.3-1.15
		c-0.4-0.333-0.884-0.533-1.45-0.6c-0.333-0.233-0.767-0.4-1.3-0.5l-0.45-0.5c-0.6-0.4-1.067-0.617-1.4-0.65
		c-0.333-0.167-0.683-0.25-1.05-0.25c-1.867,0.066-3.5,0.3-4.9,0.7l-3.3-0.101c-2.133-0.3-4.7-0.517-7.7-0.649
		c-3.633-0.8-7.267-2.267-10.9-4.4c-0.967-0.733-2.4-1.733-4.3-3l-2.6-1.7c2.633,0.801,4.567,1.2,5.8,1.2
		c0.767,0,1.583,0.351,2.45,1.05c0.434,0.334,0.934,0.767,1.5,1.301c0.767,0.466,1.55,0.767,2.35,0.899
		c0.434,0.101,1.3,0.55,2.6,1.351l0.95,0.449c0.9,0.301,1.95,0.45,3.15,0.45c1.3,0,2.217-0.066,2.75-0.2
		c0.467-0.133,1.517-0.5,3.15-1.1c1.033-0.366,2.317-0.95,3.85-1.75c1.367-0.7,2.617-1.217,3.75-1.55c1.1-0.3,2-0.566,2.7-0.8
		c0.2-0.034,0.483,0.1,0.85,0.399c0.333,0.3,0.717,0.8,1.15,1.5c0.267,0.367,0.583,0.884,0.95,1.55
		c0.167,0.233,0.816,0.483,1.95,0.75c1.399,0.367,2.5,0.767,3.3,1.2c0.634,0.334,1.316,0.851,2.05,1.55
		c0.566,0.467,1.334,0.867,2.3,1.2c1.267,0.467,2.25,0.634,2.95,0.5c0.601-0.1,1.267-0.483,2-1.149c0.601-0.534,1-1.167,1.2-1.9
		c0.267-1.233,0.566-2.483,0.9-3.75c0.399-1.5,0.816-2.517,1.25-3.05c0.466-0.634,0.716-1.017,0.75-1.15
		c1.066-3.1,1.933-5.116,2.6-6.05c0.467-0.6,1.267-1.583,2.4-2.95c0.899-1.2,1.333-2.133,1.3-2.8c-0.066-0.634-0.65-1.283-1.75-1.95
		l-1.65-0.8c-1.233,0.6-2.416,1.116-3.55,1.55c-0.967,0.4-1.816,0.917-2.55,1.55c-0.967,0.834-2.084,2.117-3.351,3.851
		c-1.633,2.267-2.149,4.066-1.55,5.399c-0.399-0.767-1.066-1.816-2-3.149c-0.5-0.733-0.75-1.95-0.75-3.65
		c0.066-2.166,0.101-3.883,0.101-5.15c0-1.467-0.217-2.883-0.65-4.25c-0.333-1.1-0.467-1.7-0.4-1.8
		c0.167-0.333,0.684-1.65,1.551-3.95l1.399-1.1c1.101-0.833,2.033-1.466,2.8-1.9c0.634-0.367,1.101-0.85,1.4-1.45
		c0.366,0.2,0.934,0.716,1.7,1.55c0.733,0.767,1.333,1.25,1.8,1.45l0.35,0.1c1.034,1.867,1.65,3.284,1.851,4.25
		c0.267,1.3,1.1,3.317,2.5,6.05l1.75,0.7c1.267,0.601,2.166,1.2,2.7,1.8c0.866,0.934,2.399,3.2,4.6,6.801
		c0.366,0.566,1.316,1.767,2.85,3.6c1.534,1.9,2.467,3.1,2.801,3.6C80.483,47.917,81.717,48.983,83.85,50.55z"/>
	<path style="fill-rule:evenodd;clip-rule:evenodd;fill:#9B9C9E;" d="M13.8,44.6l5.35-0.149c1.1,0,3.55-0.667,7.35-2
		c1.4-0.5,2.15-1.15,2.25-1.95c0.233-1.3,0.583-2.267,1.05-2.9c0.833-1.1,1.367-2.35,1.6-3.75l0.1-1.75l2.15-1.149L35,31.9
		c0.967,0.867,1.517,1.817,1.65,2.85c0.267,1.934,0.717,3.667,1.35,5.2c0.433,1.1,1.483,2.816,3.15,5.149l-2.85-0.5
		c-0.4,0.134-0.833,0.301-1.3,0.5c-0.867,0.4-1.367,0.733-1.5,1c-0.167,0.334-1.333,0.801-3.5,1.4c-2.2,0.6-4.317,1.017-6.35,1.25
		c-1.667,0.2-2.783,0.167-3.35-0.1c-0.6-0.467-1.367-0.867-2.3-1.2c-1.2-0.4-2.583-1-4.15-1.8L13.8,44.6z"/>
	<path style="fill-rule:evenodd;clip-rule:evenodd;fill:#C3C4C7;" d="M31.6,4.15c0.3,0.267,0.65,0.667,1.05,1.2
		c-0.4,0.233-1.083,0.533-2.05,0.9l-1.9,0.7c-0.267,0.1-0.75,0.633-1.45,1.6l-0.95,1.4l-1.5-0.7l-2.3-1.8
		c-1.133,0.2-2.533,0.3-4.2,0.3h-0.65c0.934-0.667,1.817-1.633,2.65-2.9c0.534-0.9,1.167-2.167,1.9-3.8c0.566-0.167,1.35-0.5,2.35-1
		L24.65,0c1.2,0.7,2.6,1.25,4.2,1.65C29.917,2.55,30.833,3.383,31.6,4.15z"/>
	<path style="fill-rule:evenodd;clip-rule:evenodd;fill:#C3C4C7;" d="M48.8,21.45c-0.833,0.133-1.5,0.167-2,0.1
		c-0.533-0.133-1.033-0.233-1.5-0.3c-1.233-0.133-2.617-0.733-4.15-1.8c-0.4-0.3-1.117-0.467-2.15-0.5
		c-1.4-0.034-2.467-0.15-3.2-0.35c-1.033-0.267-1.733-0.7-2.1-1.3l-0.2-0.85l5.55-2.65c0.9,1.067,2.25,1.6,4.05,1.6
		c0.5,0,1-0.05,1.5-0.15c0.934,0.167,2.367,0.35,4.301,0.55l1.05,0.25c0.767,0.333,1.399,0.55,1.899,0.65
		c1.067,0.233,2.667,0.417,4.801,0.55h0.05l-0.55,0.5c-1.301,1.1-2.584,1.883-3.851,2.35C51.3,20.767,50.134,21.217,48.8,21.45z"/>
	<path style="fill-rule:evenodd;clip-rule:evenodd;fill:#838485;" d="M82.65,50.6c0.166,0.034,0.5,0.051,1,0.051l-0.551,0.3
		c-1.6,0-2.983,0.217-4.149,0.649c-0.467,0-0.867,0.117-1.2,0.351c-0.267,0.133-0.6,0.399-1,0.8c-1,0.134-1.75,0.267-2.25,0.4
		c-1.366,0.066-2.483,0.233-3.35,0.5l-0.5-0.051c-0.567,0-1.15,0.25-1.75,0.75c-0.567,0.434-1.067,1.15-1.5,2.15L67,57l-0.05,0.05
		c-0.4,0.367-0.75,0.767-1.05,1.2c-2.167,0.434-3.784,0.767-4.851,1c-1.833,0.467-3.366,1-4.6,1.6l-4.25-0.1
		c-1.367-0.066-3.117-0.35-5.25-0.85l-2.3-1.15c-0.4-0.333-0.884-0.533-1.45-0.6c-0.333-0.233-0.767-0.4-1.3-0.5l-0.45-0.5
		c-0.6-0.4-1.067-0.617-1.4-0.65c-0.333-0.167-0.683-0.25-1.05-0.25c-1.833,0.066-3.483,0.3-4.95,0.7l-5.4-0.15
		c-3.667-0.033-7.316-0.783-10.95-2.25c-3.034-1.233-6.284-3.066-9.75-5.5c1.267,0.267,2.283,0.45,3.05,0.55
		c-0.433,0,0.233,0.551,2,1.65c1.067,0.667,1.983,1.366,2.75,2.1c0.533,0.434,1.45,0.684,2.75,0.75c1.133,0.067,2.633,0.367,4.5,0.9
		c1.767,0.5,2.933,0.75,3.5,0.75c0.6,0,1.283,0.033,2.05,0.1c0.7,0,1.567-0.133,2.6-0.399c0.7-0.2,1.783-0.45,3.25-0.75
		c1.033-0.2,1.733-0.4,2.1-0.601c0.433-0.199,0.983-0.35,1.65-0.449C38.483,53.616,38.767,53.6,39,53.6l1.65,0.851
		c0.3,0.133,1.033,0.6,2.2,1.399c1.1,0.767,1.867,1.233,2.3,1.4c0.966,0.434,1.566,0.684,1.8,0.75c0.8,0.3,1.816,0.55,3.05,0.75
		c1.6,0.3,3.483,0.434,5.65,0.4c2.433,0,4.149-0.233,5.149-0.7c1.233-0.566,1.917-0.884,2.05-0.95
		c0.301-0.167,0.567-0.417,0.801-0.75c0.666-0.866,1.383-1.7,2.149-2.5c0.434-0.4,0.767-1.033,1-1.9c0.2-0.866,0.434-1.399,0.7-1.6
		c0.033-0.033,0.25-0.434,0.65-1.2c0.233-0.399,0.683-0.5,1.35-0.3c0.5,0.167,1.066,0.283,1.7,0.35c0.6,0.101,1.25,0.267,1.95,0.5
		c0.666,0.233,1.383,0.483,2.149,0.75c0.5,0.101,0.9,0.017,1.2-0.25c0.033-0.033,0.233-0.35,0.6-0.949c0.2-0.334,0.5-0.467,0.9-0.4
		c0.333,0.066,1.217,0.35,2.65,0.85C80.85,50.167,81.517,50.333,82.65,50.6z"/>
</g>
</svg>
