<?xml version="1.0" encoding="iso-8859-1"?>
<!-- Generator: Adobe Illustrator 15.1.0, SVG Export Plug-In . SVG Version: 6.00 Build 0)  -->
<!DOCTYPE svg PUBLIC "-//W3C//DTD SVG 1.1//EN" "http://www.w3.org/Graphics/SVG/1.1/DTD/svg11.dtd">
<svg version="1.1" id="flash0.ai" xmlns="http://www.w3.org/2000/svg" xmlns:xlink="http://www.w3.org/1999/xlink" x="0px" y="0px"
	 width="90.9px" height="85.15px" viewBox="0 0 90.9 85.15" style="enable-background:new 0 0 90.9 85.15;" xml:space="preserve">
<symbol  id="flash0.ai_x5F_10_x2F_Layer_64_x2F__x3C_Path_x3E__x5F_14" viewBox="-0.063 -20.275 90.895 20.238">
	<g id="Layer_1_2_">
		<path style="fill-rule:evenodd;clip-rule:evenodd;" d="M88.9-3.7c-0.2-0.1-0.483-0.216-0.85-0.35c1.1-0.3,1.883-0.633,2.35-1
			c0.7-0.534,0.55-1.034-0.45-1.5c-0.967-0.434-1.284-0.767-0.95-1c0.167-0.133,0.417-0.217,0.75-0.25l0.3-0.8
			c0.067-0.6-0.25-1.033-0.95-1.3c-0.7-0.267-1.233-0.417-1.6-0.45c-0.533-0.033-1.117-0.083-1.75-0.15
			c-0.733-0.067-1.117-0.2-1.15-0.4c0-0.133-0.033-0.483-0.1-1.05c-0.133-0.367-0.317-0.867-0.55-1.5c-0.3-0.533-0.8-0.933-1.5-1.2
			c-0.7-0.267-1.417-0.434-2.15-0.5c-1.133-0.033-2.216-0.083-3.25-0.15c-0.7-0.567-2.517-0.767-5.45-0.6
			c-1.434,0.066-2,0.083-1.7,0.05L71-15.9c-1.967,0-3.567-0.083-4.8-0.25c-0.833-0.1-1.567-0.233-2.2-0.4
			c-0.233-0.067-1.167-0.35-2.8-0.85c-0.633-0.2-1.233-0.6-1.8-1.2c-0.433-0.467-1.566-0.816-3.4-1.05
			c-1.733-0.233-2.85-0.317-3.35-0.25c-1.133,0.167-2.65,0.25-4.55,0.25c-1.267,0-3.083,0-5.45,0c-0.9,0-2.05-0.15-3.45-0.45
			c-1-0.233-2.2-0.233-3.6,0l-1.55,0.25c0.7-0.167,0.867-0.25,0.5-0.25c-0.6,0-1.267,0.083-2,0.25
			c-1.033,0.267-3.15,0.883-6.35,1.85c-2.6,0.8-3.95,1.167-4.05,1.1c-0.066,0-0.45,0.117-1.15,0.35c-1.1,0.4-2.5,1.1-4.2,2.1
			c-1.566,0.934-2.45,1.417-2.65,1.45c-1,0.067-2,0.133-3,0.2c-1.9,0.133-3.6,0.417-5.1,0.85c-1.333,0.367-2.233,0.7-2.7,1
			c-0.5,0.333-1.2,0.617-2.1,0.85C-0.017-8.833-0.367-8.067,0.2-7.8c0.566,0.267,0.566,0.75,0,1.45c1.1,0.3,2,0.45,2.7,0.45
			c0.5,0,0.883,0.066,1.15,0.2C4.217-5.6,4.533-5.333,5-4.9c0.233,0.233,0.617,0.5,1.15,0.8C6.683-3.833,7.133-3.467,7.5-3
			c0.333,0.433,0.933,0.6,1.8,0.5c1.133-0.133,2.117-0.033,2.95,0.3C13.083-1.833,14.5-1.767,16.5-2
			c2.267-0.233,4.05-0.217,5.35,0.05c2.8,0.567,6.133,1.017,10,1.35C37.317-0.1,42.8,0.067,48.3-0.1c17.267-0.566,29.267-1.4,36-2.5
			C87.8-3.167,89.333-3.533,88.9-3.7z"/>
	</g>
</symbol>
<use xlink:href="#flash0.ai_x5F_10_x2F_Layer_64_x2F__x3C_Path_x3E__x5F_14"  width="90.895" height="20.238" x="-0.063" y="-20.275" transform="matrix(1 0 0 -1 0.0498 64.9004)" style="overflow:visible;opacity:0.1406;enable-background:new    ;"/>
<path style="fill-rule:evenodd;clip-rule:evenodd;fill:#B0B1B3;" d="M82.1,66.6c0.233,1,0.767,2.567,1.601,4.7
	c-1.2,2.167-3.066,4-5.601,5.5l-0.6,0.05c-0.833,0.067-2.184,0.067-4.05,0c-1.7-0.066-3.05-0.033-4.05,0.101
	c-1,0.166-2.434,0.7-4.301,1.6c-1.833,0.867-3.3,1.367-4.399,1.5c-3.367,0.4-7.066,0.983-11.101,1.75
	c-4.199,0.8-8.616,0.867-13.25,0.2c-4.4-0.6-8.617-1.816-12.65-3.65c-2.333-1.066-4.45-1.733-6.35-2
	c-1.2-0.133-2.633-0.383-4.3-0.75c-1.833-0.433-3.216-0.75-4.15-0.949L6.5,72.2l0.8-1.65c0.767-1.633,1.267-3.6,1.5-5.899l0.5-0.9
	c1.233-1.333,2.117-2.95,2.65-4.85c0.867-1.733,1.45-3.334,1.75-4.801c0.466-1.267,0.767-3.1,0.9-5.5
	c0.066-0.233,1.417-3.083,4.05-8.55c1.967-4.2,2.95-7.517,2.95-9.95c0-2.8,0.566-6.55,1.7-11.25c0.534-2.333,1.083-4.383,1.65-6.15
	L36.2,6.55v0.5c0.133,0.367,0.483,0.6,1.05,0.7C39.017,8.017,42.6,6.867,48,4.3l7.8-3.8c2.134,0.467,3.767,0.733,4.9,0.8l2.649,4.25
	c0.267,0.4,0.517,0.7,0.75,0.9c1.101,2.466,1.9,4.367,2.4,5.7c0.8,2.133,1.366,4.133,1.7,6c0.633,3.267,2.033,7.684,4.2,13.25
	c2.3,6,3.783,10.367,4.449,13.1c0.334,1.3,0.567,3.184,0.7,5.65c0.167,2.633,0.367,4.533,0.601,5.699
	c0.267,1.233,0.916,3.017,1.949,5.351C81.134,63.566,81.8,65.366,82.1,66.6z"/>
<path style="fill-rule:evenodd;clip-rule:evenodd;fill:#C3C4C7;" d="M20.45,38.95c0.533-0.567,1.117-1.117,1.75-1.65
	c1.3-1.1,2.283-1.583,2.95-1.45c0.667,0.133,1.7,0.783,3.1,1.95c0.367,0.333,1.933,1.767,4.7,4.3c1.566,1.433,2.183,2.117,1.85,2.05
	l-0.95-0.5c-0.1,0.366-0.434,0.55-1,0.55c-1.133,0-2.867-0.917-5.2-2.75c-2.367-1.8-4.267-2.767-5.7-2.9L20.45,38.95z"/>
<path style="fill-rule:evenodd;clip-rule:evenodd;fill:#C3C4C7;" d="M60.7,1.3l0.8,1.3C61.066,3,60.467,3.8,59.7,5
	c-1.233,1.933-2.033,3.15-2.4,3.65c-1.866,2.733-3.733,4.817-5.6,6.25c-1.467-0.2-4.7-0.2-9.7,0c-1.933,0.1-4.2,0.283-6.8,0.55
	c-1.5,0.167-3.3,0.2-5.4,0.1c-2.333-0.133-3.833-0.65-4.5-1.55l-0.35-1.3c0.2-0.267,2.133-1.367,5.8-3.3
	c1.833-0.967,3.65-1.917,5.45-2.85l2.05,0.55c2.3-1.467,5.95-3.233,10.95-5.3L53.5,0c0.8,0.167,2,0.433,3.6,0.8
	C58.467,1.067,59.667,1.233,60.7,1.3z"/>
<path style="fill-rule:evenodd;clip-rule:evenodd;fill:#C3C4C7;" d="M27.4,57.95c0.633,0.8,1.65,1.767,3.05,2.899
	c2.2,1.801,3.933,3.051,5.2,3.75c0.967,0.667,1.733,1.417,2.3,2.25c-2.233,0.834-3.633,1.317-4.2,1.45
	c-0.267-0.033-0.483-0.066-0.65-0.1c-0.333-0.033-1.083,0.283-2.25,0.95c-1.934,1.1-3.533,1.55-4.8,1.35l-0.6-2.4
	c-0.434-1.366-0.367-3.033,0.2-5c0.367-1.199,0.684-2.566,0.95-4.1l0.3-1.9L27.4,57.95z"/>
<path style="fill-rule:evenodd;clip-rule:evenodd;fill:#9B9C9E;" d="M82.1,66.6c0.233,1,0.767,2.567,1.601,4.7
	c-1.233,2.167-3.084,4-5.55,5.5l-0.65,0.05c-0.833,0.067-2.184,0.067-4.05,0c-1.7-0.066-3.05-0.033-4.05,0.101
	c-1,0.166-2.434,0.7-4.301,1.6c-1.833,0.867-3.3,1.367-4.399,1.5c-3.367,0.4-7.066,0.983-11.101,1.75
	c-4.199,0.8-8.616,0.867-13.25,0.2c-4.4-0.6-8.617-1.816-12.65-3.65c-2.333-1.066-4.45-1.733-6.35-2
	c-1.2-0.133-2.633-0.383-4.3-0.75c-1.833-0.433-3.216-0.75-4.15-0.949L8,73.7c0.9,0.033,2.033-0.117,3.4-0.45
	c1.6-0.366,2.95-0.866,4.05-1.5c1.6-0.866,2.867-1.5,3.8-1.9c1.233-0.533,2.567-0.933,4-1.199c1.3-0.267,2.167-0.034,2.6,0.699
	c0.2,0.367,0.267,0.75,0.2,1.15l3.8,1.2c2.867,0.833,5.15,1.366,6.85,1.6c1.667,0.267,2.75,0.217,3.25-0.149
	c0.433-0.601,0.9-1.067,1.4-1.4c0.7-0.434,1.3-1.517,1.8-3.25c0.233-0.8,0.684-2.833,1.35-6.1c0.333-1.667,0.367-5.967,0.1-12.9
	c-0.267-7.067-0.3-11.2-0.1-12.4c0.267-2.233,0.483-3.833,0.65-4.8c0.3-1.533,0.916-3.367,1.85-5.5c0.866-1.933,1.6-3.216,2.2-3.85
	c0.666-0.667,1.083-1.167,1.25-1.5c0.1-0.2,0.7-1.6,1.8-4.2c0.967-2.267,1.816-4.083,2.55-5.45c1.267-2.333,2.717-5.883,4.351-10.65
	L60.7,1.3l2.649,4.25c0.267,0.4,0.517,0.7,0.75,0.9c1.101,2.466,1.9,4.367,2.4,5.7c0.8,2.133,1.366,4.133,1.7,6
	c0.633,3.267,2.033,7.684,4.2,13.25c2.3,6,3.783,10.367,4.449,13.1c0.334,1.3,0.567,3.184,0.7,5.65
	c0.167,2.633,0.367,4.533,0.601,5.699c0.267,1.233,0.916,3.017,1.949,5.351C81.134,63.566,81.8,65.366,82.1,66.6z"/>
<path style="fill-rule:evenodd;clip-rule:evenodd;fill:#8D8D8F;" d="M70.6,44.8c1.667,0.967,2.367,1.733,2.101,2.3
	c-0.334,0.667-0.617,1.767-0.851,3.301c-0.066,0.566-0.083,1.116-0.05,1.649c-0.033,0.367-0.217,0.8-0.55,1.3
	c-0.733,1.101-1.217,2-1.45,2.7c-0.2,0.5-0.583,1.167-1.149,2c-0.7,0.967-1.217,1.684-1.551,2.15c-0.433,0.6-1.133,0.767-2.1,0.5
	c-1.233-0.4-2.2-0.634-2.9-0.7c-0.8-0.066-1.699-0.316-2.699-0.75c-1.834-0.8-3.084-1.316-3.75-1.55
	c-1.467-0.533-2.851-0.584-4.15-0.15l-1.5,0.8c0.967-1.399,1.8-2.449,2.5-3.149c0.733-0.733,1.55-1.316,2.45-1.75
	c1.733-0.767,4.8-1.7,9.2-2.8c3.899-0.967,5.6-1.534,5.1-1.7c-0.467-0.101-0.816-0.184-1.05-0.25c-0.4-0.101-0.434-0.283-0.101-0.55
	c0.9-0.667,1.434-1.101,1.601-1.301C69.934,46.583,70.233,45.9,70.6,44.8z"/>
<path style="fill-rule:evenodd;clip-rule:evenodd;fill:#8D8D8F;" d="M58.55,34.6L60,28.15c1.8-1.533,3.184-3.2,4.15-5L67.1,27.3v2.3
	c0,0.533-0.383,0.9-1.149,1.1c-1.267,0.233-2.417,0.483-3.45,0.75c-1.3,0.367-2.35,1-3.15,1.9L58.55,34.6z"/>
<path style="fill-rule:evenodd;clip-rule:evenodd;fill:#8D8D8F;" d="M56.45,36.7l1.8,0.8c1.1,0.6,1.483,1.167,1.15,1.7
	c-0.4,0.566-0.817,0.966-1.25,1.2c-0.233,0.1-1.067,0.383-2.5,0.85c-1.034,0.367-2.084,0.85-3.15,1.45l-1.25,0.85
	c0.566-1.533,1.2-2.783,1.9-3.75C54.083,38.467,55.184,37.433,56.45,36.7z"/>
<path style="fill-rule:evenodd;clip-rule:evenodd;fill:#838485;" d="M82.1,66.6c0.233,1,0.767,2.567,1.601,4.7
	c-1.233,2.167-3.084,4-5.55,5.5l-0.65,0.05c-0.833,0.067-2.184,0.067-4.05,0c-1.7-0.066-3.05-0.033-4.05,0.101
	c-1,0.166-2.434,0.7-4.301,1.6c-1.833,0.867-3.3,1.367-4.399,1.5c-3.367,0.4-7.066,0.983-11.101,1.75
	c-4.199,0.8-8.616,0.867-13.25,0.2c-4.4-0.6-8.617-1.816-12.65-3.65c-1.767-0.833-3.383-1.399-4.85-1.699
	c1.433-0.367,2.583-0.75,3.45-1.15l3.45-1.55l5.3,3.75c1.267,0.833,2.184,1.717,2.75,2.649c0.733,0.534,3.05,0.801,6.95,0.801
	c4.4,0,7.616-0.167,9.65-0.5c1.6-0.301,3.166-0.867,4.699-1.7c1.367-0.767,2.351-1.417,2.95-1.95c0.566-0.5,1.25-1.316,2.05-2.45
	c0.034-0.033,0.483-0.95,1.351-2.75c0.333-0.7,0.934-0.916,1.8-0.649c0.4,0.1,1.6,0.6,3.6,1.5c1.534,0.666,2.717,1,3.551,1
	c0.733,0,2.033,0.133,3.899,0.399c1.634,0.066,2.834-0.283,3.601-1.05c1.033-1,1.683-1.717,1.949-2.15
	c0.367-0.533,0.551-1.166,0.551-1.899c0-1.867-0.017-2.95-0.051-3.25c-0.133-1.533-0.533-2.634-1.199-3.3
	c-0.634-0.634-1.4-1.25-2.301-1.851L75.7,59.9l1.149,0.05c0.9,0.033,1.784,0,2.65-0.101c0.333,0.733,0.816,1.834,1.45,3.301
	C81.483,64.45,81.866,65.6,82.1,66.6z"/>
<linearGradient id="SVGID_1_" gradientUnits="userSpaceOnUse" x1="16.5562" y1="-41.5986" x2="23.9718" y2="-41.5986" gradientTransform="matrix(-0.1045 0.9945 -0.9945 -0.1045 5.244762e-004 9.310246e-005)">
	<stop  offset="0" style="stop-color:#9BA1A6"/>
	<stop  offset="1" style="stop-color:#B7B8B8"/>
</linearGradient>
<path style="fill-rule:evenodd;clip-rule:evenodd;fill:url(#SVGID_1_);" d="M42.05,25.35c-0.233,1.066-0.7,1.933-1.4,2.6
	c-0.733,0.667-1.483,0.917-2.25,0.75c-0.767-0.167-1.35-0.684-1.75-1.55c-0.4-0.9-0.483-1.883-0.25-2.95
	c0.2-1.067,0.65-1.934,1.35-2.6c0.733-0.633,1.483-0.867,2.25-0.7c0.767,0.167,1.367,0.684,1.8,1.55
	C42.2,23.317,42.283,24.283,42.05,25.35z"/>
<linearGradient id="SVGID_2_" gradientUnits="userSpaceOnUse" x1="30.4072" y1="-25.9414" x2="36.6884" y2="-25.9414" gradientTransform="matrix(0.0995 0.995 -0.995 0.0995 -4.574582e-004 3.033131e-005)">
	<stop  offset="0" style="stop-color:#9BA1A6"/>
	<stop  offset="1" style="stop-color:#B7B8B8"/>
</linearGradient>
<path style="fill-rule:evenodd;clip-rule:evenodd;fill:url(#SVGID_2_);" d="M31.6,31.05c0,0.934-0.233,1.717-0.7,2.35
	c-0.467,0.667-1.033,1-1.7,1c-0.667,0-1.25-0.333-1.75-1c-0.467-0.633-0.7-1.417-0.7-2.35c0-0.933,0.233-1.716,0.7-2.35
	c0.5-0.667,1.083-1,1.75-1c0.667,0,1.233,0.333,1.7,1C31.367,29.333,31.6,30.117,31.6,31.05z"/>
<linearGradient id="SVGID_3_" gradientUnits="userSpaceOnUse" x1="54.583" y1="-32.7964" x2="62.5732" y2="-32.7964" gradientTransform="matrix(0.1001 0.995 -0.995 0.1001 1.162514e-004 4.121661e-004)">
	<stop  offset="0" style="stop-color:#9BA1A6"/>
	<stop  offset="1" style="stop-color:#B7B8B8"/>
</linearGradient>
<path style="fill-rule:evenodd;clip-rule:evenodd;fill:url(#SVGID_3_);" d="M40.4,52.25c0.5,0.833,0.75,1.85,0.75,3.05
	c0,1.167-0.25,2.184-0.75,3.05c-0.5,0.834-1.117,1.25-1.85,1.25c-0.733,0-1.35-0.416-1.85-1.25c-0.534-0.866-0.8-1.883-0.8-3.05
	c0-1.2,0.267-2.217,0.8-3.05c0.5-0.833,1.117-1.25,1.85-1.25C39.283,51,39.9,51.417,40.4,52.25z"/>
<linearGradient id="SVGID_4_" gradientUnits="userSpaceOnUse" x1="58.498" y1="-13.9121" x2="64.7792" y2="-13.9121" gradientTransform="matrix(0.0995 0.995 -0.995 0.0995 -4.574582e-004 3.033131e-005)">
	<stop  offset="0" style="stop-color:#9BA1A6"/>
	<stop  offset="1" style="stop-color:#B7B8B8"/>
</linearGradient>
<path style="fill-rule:evenodd;clip-rule:evenodd;fill:url(#SVGID_4_);" d="M22.4,60.2c0,0.934-0.233,1.717-0.7,2.35
	c-0.467,0.667-1.034,1-1.7,1s-1.233-0.333-1.7-1c-0.466-0.633-0.7-1.416-0.7-2.35c0-0.967,0.233-1.767,0.7-2.4
	c0.467-0.666,1.034-1,1.7-1s1.233,0.334,1.7,1C22.167,58.434,22.4,59.233,22.4,60.2z"/>
<linearGradient id="SVGID_5_" gradientUnits="userSpaceOnUse" x1="45.7852" y1="-22.3955" x2="51.0861" y2="-22.3955" gradientTransform="matrix(-0.0189 0.9998 -0.9998 -0.0189 5.762540e-004 1.413934e-005)">
	<stop  offset="0" style="stop-color:#9BA1A6"/>
	<stop  offset="1" style="stop-color:#B7B8B8"/>
</linearGradient>
<path style="fill-rule:evenodd;clip-rule:evenodd;fill:url(#SVGID_5_);" d="M23.45,49.3c-0.067,0.767-0.333,1.4-0.8,1.9
	c-0.433,0.533-0.933,0.767-1.5,0.7c-0.566-0.067-1-0.4-1.3-1C19.517,50.3,19.4,49.6,19.5,48.8c0.1-0.767,0.367-1.399,0.8-1.899
	c0.467-0.5,0.967-0.717,1.5-0.65c0.567,0.066,1,0.4,1.3,1C23.433,47.85,23.55,48.533,23.45,49.3z"/>
</svg>
