<?xml version="1.0" encoding="iso-8859-1"?>
<!-- Generator: Adobe Illustrator 15.1.0, SVG Export Plug-In . SVG Version: 6.00 Build 0)  -->
<!DOCTYPE svg PUBLIC "-//W3C//DTD SVG 1.1//EN" "http://www.w3.org/Graphics/SVG/1.1/DTD/svg11.dtd">
<svg version="1.1" id="flash0.ai" xmlns="http://www.w3.org/2000/svg" xmlns:xlink="http://www.w3.org/1999/xlink" x="0px" y="0px"
	 width="91.4px" height="46.8px" viewBox="0 0 91.4 46.8" style="enable-background:new 0 0 91.4 46.8;" xml:space="preserve">
<symbol  id="flash0.ai_x5F_21_x2F_Layer_114_x2F__x3C_Group_x3E_" viewBox="0.05 -17.5 46.45 17.5">
	<g id="Layer_1_3_">
		<g>
			<path style="fill-rule:evenodd;clip-rule:evenodd;fill:#FFFFFF;" d="M9-5.7c0,0.633,0.333,0.95,1,0.95s1-0.317,1-0.95V-6
				c0-0.667-0.333-1-1-1S9-6.667,9-6V-5.7z"/>
			<path style="fill-rule:evenodd;clip-rule:evenodd;fill:#FFFFFF;" d="M11.35-5c-0.633,0-0.95,0.333-0.95,1s0.317,1,0.95,1
				s0.95-0.333,0.95-1S11.983-5,11.35-5z"/>
			<path style="fill-rule:evenodd;clip-rule:evenodd;fill:#FFFFFF;" d="M15.35-4.05c-0.167-0.2-0.4-0.3-0.7-0.3
				c-0.3-0.033-0.533,0.067-0.7,0.3c-0.4,0.466-0.6,1.15-0.6,2.05c-0.033,0.633,0.283,0.95,0.95,0.95c0.667,0,1.017-0.317,1.05-0.95
				v-0.65C15.783-3.15,15.783-3.617,15.35-4.05z"/>
			<path style="fill-rule:evenodd;clip-rule:evenodd;fill:#FFFFFF;" d="M4.9-9.8C4.3-9.667,4.067-9.267,4.2-8.6
				c0.033,0.367,0.233,0.733,0.6,1.1c0.233,0.333,0.6,0.4,1.1,0.2C5.833-6.967,5.867-6.683,6-6.45C6.2-6.15,6.483-6,6.85-6
				C7.483-6,7.8-6.333,7.8-7S7.483-8,6.85-8l-0.4,0.05C6.517-8.317,6.433-8.633,6.2-8.9L6.1-9.1C6.067-9.367,5.917-9.567,5.65-9.7
				S5.133-9.867,4.9-9.8z"/>
			<path style="fill-rule:evenodd;clip-rule:evenodd;fill:#FFFFFF;" d="M1-9.85c0.667,0,1-0.333,1-1c0-0.667-0.333-1-1-1
				c-0.633,0-0.95,0.333-0.95,1C0.05-10.183,0.367-9.85,1-9.85z"/>
			<path style="fill-rule:evenodd;clip-rule:evenodd;fill:#FFFFFF;" d="M5.85-11.85v-0.35c-0.033-0.667-0.383-1-1.05-1
				c-0.667,0-0.983,0.333-0.95,1c0,0.434,0.1,0.883,0.3,1.35c0.1,0.233,0.3,0.383,0.6,0.45c0.267,0.066,0.517,0.033,0.75-0.1
				C6.033-10.8,6.15-11.25,5.85-11.85z"/>
			<path style="fill-rule:evenodd;clip-rule:evenodd;fill:#FFFFFF;" d="M8.5-9.85v-0.35c0-0.667-0.333-1-1-1s-1,0.333-1,1v0.35
				c0,0.633,0.333,0.95,1,0.95S8.5-9.217,8.5-9.85z"/>
			<path style="fill-rule:evenodd;clip-rule:evenodd;fill:#FFFFFF;" d="M8.35-11.85c0,0.633,0.333,0.95,1,0.95
				c0.667,0,1-0.317,1-0.95V-12c0-0.667-0.333-1-1-1c-0.667,0-1,0.333-1,1V-11.85z"/>
			<path style="fill-rule:evenodd;clip-rule:evenodd;fill:#FFFFFF;" d="M10.85-8.85c0.633,0,0.95-0.333,0.95-1
				c0-0.667-0.316-1-0.95-1s-0.95,0.333-0.95,1C9.9-9.183,10.217-8.85,10.85-8.85z"/>
			<path style="fill-rule:evenodd;clip-rule:evenodd;fill:#FFFFFF;" d="M13.15-11.35c0,0.633,0.333,0.95,1,0.95
				c0.667,0,1-0.317,1-0.95v-0.15c0-0.667-0.333-1-1-1c-0.667,0-1,0.333-1,1V-11.35z"/>
			<path style="fill-rule:evenodd;clip-rule:evenodd;fill:#FFFFFF;" d="M15.15-6c0.667,0,1-0.333,1-1s-0.333-1-1-1
				c-0.633,0-0.95,0.333-0.95,1S14.517-6,15.15-6z"/>
			<path style="fill-rule:evenodd;clip-rule:evenodd;fill:#FFFFFF;" d="M13.15-7v-0.2c0-0.667-0.333-1-1-1c-0.667,0-1,0.333-1,1V-7
				c0,0.633,0.333,0.95,1,0.95C12.817-6.05,13.15-6.367,13.15-7z"/>
			<path style="fill-rule:evenodd;clip-rule:evenodd;fill:#FFFFFF;" d="M5.7-14.4c0.167,0.566,0.55,0.783,1.15,0.65
				s0.867-0.483,0.8-1.05c0.067-0.5-0.1-0.867-0.5-1.1c-0.5-0.3-0.95-0.184-1.35,0.35c-0.167,0.233-0.233,0.466-0.2,0.7
				C5.633-14.65,5.667-14.5,5.7-14.4z"/>
			<path style="fill-rule:evenodd;clip-rule:evenodd;fill:#FFFFFF;" d="M17.65-10.35c0.667,0,1-0.333,1-1c0-0.667-0.333-1-1-1
				c-0.633,0-0.95,0.333-0.95,1C16.7-10.683,17.017-10.35,17.65-10.35z"/>
			<path style="fill-rule:evenodd;clip-rule:evenodd;fill:#FFFFFF;" d="M16.65-8.5c0,0.633,0.333,0.95,1,0.95
				c0.667,0,1-0.317,1-0.95v-0.2c0-0.667-0.333-1-1-1c-0.667,0-1,0.333-1,1V-8.5z"/>
			<path style="fill-rule:evenodd;clip-rule:evenodd;fill:#FFFFFF;" d="M19-4.5c0.667,0,1-0.333,1-1s-0.333-1-1-1
				c-0.633,0-0.95,0.333-0.95,1S18.367-4.5,19-4.5z"/>
			<path style="fill-rule:evenodd;clip-rule:evenodd;fill:#FFFFFF;" d="M19.5-3.35c-0.633,0-0.95,0.333-0.95,1
				c0,0.667,0.317,1,0.95,1c0.667,0,1-0.333,1-1C20.5-3.017,20.167-3.35,19.5-3.35z"/>
			<path style="fill-rule:evenodd;clip-rule:evenodd;fill:#FFFFFF;" d="M16.5-2.35c-0.633,0-0.95,0.333-0.95,1
				c0,0.667,0.317,1,0.95,1c0.667,0,1-0.333,1-1C17.5-2.017,17.167-2.35,16.5-2.35z"/>
			<path style="fill-rule:evenodd;clip-rule:evenodd;fill:#FFFFFF;" d="M16.85-4.5c-0.633,0-0.95,0.333-0.95,1s0.317,1,0.95,1
				s0.95-0.333,0.95-1S17.483-4.5,16.85-4.5z"/>
			<path style="fill-rule:evenodd;clip-rule:evenodd;fill:#FFFFFF;" d="M9.15-4C8.517-4,8.2-3.667,8.2-3s0.316,1,0.95,1
				c0.667,0,1-0.333,1-1S9.817-4,9.15-4z"/>
			<path style="fill-rule:evenodd;clip-rule:evenodd;fill:#FFFFFF;" d="M7.85-5.85c-0.633,0-0.95,0.333-0.95,1
				c0,0.667,0.317,1,0.95,1s0.95-0.333,0.95-1C8.8-5.517,8.483-5.85,7.85-5.85z"/>
			<path style="fill-rule:evenodd;clip-rule:evenodd;fill:#FFFFFF;" d="M23,0c0.467,0,0.767-0.233,0.9-0.7
				c0.133-0.433,0.05-0.8-0.25-1.1c0.133-0.2,0.2-0.383,0.2-0.55V-2.7c0-0.667-0.333-1-1-1c-0.667,0-1,0.333-1,1v0.35
				c0,0.333,0.117,0.583,0.35,0.75c-0.2,0.333-0.217,0.667-0.05,1C22.283-0.2,22.567,0,23,0z"/>
			<path style="fill-rule:evenodd;clip-rule:evenodd;fill:#FFFFFF;" d="M26.85-3.7c0-0.667-0.333-1-1-1c-0.667,0-1,0.333-1,1v0.2
				c0,0.633,0.333,0.95,1,0.95c0.667,0,1-0.317,1-0.95V-3.7z"/>
			<path style="fill-rule:evenodd;clip-rule:evenodd;fill:#FFFFFF;" d="M20.4-3.25c0.233,0.067,0.483,0.033,0.75-0.1
				s0.417-0.333,0.45-0.6c0.267-0.2,0.383-0.483,0.35-0.85c-0.034-0.333-0.184-0.583-0.45-0.75l0.55-0.25l0.05-0.1
				c0.2,0.133,0.383,0.2,0.55,0.2h0.2c0.633,0,0.95-0.333,0.95-1c0-0.667-0.316-1-0.95-1h-0.2c-0.233,0-0.433,0.083-0.6,0.25
				c-0.2-0.433-0.566-0.617-1.1-0.55c-0.534,0.1-0.8,0.433-0.8,1c0,0.4,0.15,0.8,0.45,1.2l0.25,0.15h-0.1
				c-0.633,0.167-0.983,0.566-1.05,1.2C19.567-3.783,19.8-3.383,20.4-3.25z"/>
			<path style="fill-rule:evenodd;clip-rule:evenodd;fill:#FFFFFF;" d="M22-10.2c0.667,0,1-0.333,1-1c0-0.667-0.333-1-1-1
				c-0.633,0-0.95,0.333-0.95,1C21.05-10.533,21.367-10.2,22-10.2z"/>
			<path style="fill-rule:evenodd;clip-rule:evenodd;fill:#FFFFFF;" d="M23.8-9.15c0.467,0.433,0.934,0.417,1.4-0.05
				c0.466-0.466,0.466-0.917,0-1.35l-0.15-0.2c-0.466-0.467-0.933-0.45-1.4,0.05c-0.467,0.467-0.483,0.934-0.05,1.4L23.8-9.15z"/>
			<path style="fill-rule:evenodd;clip-rule:evenodd;fill:#FFFFFF;" d="M25.15-6.35c0.667,0,1-0.333,1-1c0-0.667-0.333-1-1-1
				c-0.633,0-0.95,0.333-0.95,1C24.2-6.683,24.517-6.35,25.15-6.35z"/>
			<path style="fill-rule:evenodd;clip-rule:evenodd;fill:#FFFFFF;" d="M27.15-4.85c0.667,0,1-0.333,1-1c0-0.667-0.333-1-1-1
				c-0.633,0-0.95,0.333-0.95,1C26.2-5.183,26.517-4.85,27.15-4.85z"/>
			<path style="fill-rule:evenodd;clip-rule:evenodd;fill:#FFFFFF;" d="M30.15-8.5c0.667,0,1-0.333,1-1s-0.333-1-1-1
				c-0.633,0-0.95,0.333-0.95,1S29.517-8.5,30.15-8.5z"/>
			<path style="fill-rule:evenodd;clip-rule:evenodd;fill:#FFFFFF;" d="M32-5c0.667,0,1-0.333,1-1s-0.333-1-1-1
				c-0.3,0-0.533,0.083-0.7,0.25l-0.45-0.1c-0.2,0-0.383,0.05-0.55,0.15c0-0.633-0.316-0.95-0.95-0.95c-0.667,0-1,0.316-1,0.95v0.2
				c0,0.433,0.183,0.717,0.55,0.85c0.333,0.167,0.667,0.15,1-0.05c0.067,0.567,0.383,0.85,0.95,0.85c0.233,0,0.45-0.1,0.65-0.3
				C31.667-5.05,31.833-5,32-5z"/>
			<path style="fill-rule:evenodd;clip-rule:evenodd;fill:#FFFFFF;" d="M28.5-3.5c-0.633,0-0.95,0.333-0.95,1s0.317,1,0.95,1
				c0.667,0,1-0.333,1-1S29.167-3.5,28.5-3.5z"/>
			<path style="fill-rule:evenodd;clip-rule:evenodd;fill:#FFFFFF;" d="M28.2-7.95c0.533-0.233,0.733-0.617,0.6-1.15
				s-0.517-0.833-1.15-0.9c-0.267-0.033-0.5,0.05-0.7,0.25c-0.2,0.2-0.3,0.45-0.3,0.75S26.767-8.467,27-8.3
				C27.267-7.867,27.667-7.75,28.2-7.95z"/>
			<path style="fill-rule:evenodd;clip-rule:evenodd;fill:#FFFFFF;" d="M32-2.85c0.667,0,1-0.333,1-1c0-0.667-0.333-1-1-1
				c-0.633,0-0.95,0.333-0.95,1C31.05-3.183,31.367-2.85,32-2.85z"/>
			<path style="fill-rule:evenodd;clip-rule:evenodd;fill:#FFFFFF;" d="M36.05-6.05c-0.433-0.467-0.9-0.467-1.4,0
				c-0.453,0.453-0.478,0.903-0.075,1.35c0.137,0.594,0.512,0.794,1.125,0.6c0.633-0.167,0.883-0.566,0.75-1.2
				C36.417-5.567,36.283-5.817,36.05-6.05z"/>
			<path style="fill-rule:evenodd;clip-rule:evenodd;fill:#FFFFFF;" d="M35.5-7.5c0.667,0,1-0.333,1-1s-0.333-1-1-1
				c-0.633,0-0.95,0.333-0.95,1S34.867-7.5,35.5-7.5z"/>
			<path style="fill-rule:evenodd;clip-rule:evenodd;fill:#FFFFFF;" d="M38.9-7.05c-0.2-0.567-0.6-0.75-1.2-0.55
				c-0.6,0.167-0.817,0.55-0.65,1.15c0,0.167,0.067,0.317,0.2,0.45c0.2,0.567,0.6,0.75,1.2,0.55C39.05-5.617,39.267-6,39.1-6.6
				C39.1-6.767,39.033-6.917,38.9-7.05z"/>
			<path style="fill-rule:evenodd;clip-rule:evenodd;fill:#FFFFFF;" d="M41.65-6.5c0-0.667-0.333-1-1-1c-0.667,0-1,0.333-1,1v0.3
				c0,0.633,0.333,0.95,1,0.95c0.667,0,1-0.317,1-0.95V-6.5z"/>
			<path style="fill-rule:evenodd;clip-rule:evenodd;fill:#FFFFFF;" d="M38.85-10.2c0.633,0,0.95-0.333,0.95-1
				c0-0.667-0.316-1-0.95-1h-0.2c-0.633,0-0.95,0.333-0.95,1c0,0.667,0.316,1,0.95,1H38.85z"/>
			<path style="fill-rule:evenodd;clip-rule:evenodd;fill:#FFFFFF;" d="M33.35-11.2c-0.033,0.567,0.233,0.883,0.8,0.95
				c0.567,0.067,0.934-0.15,1.1-0.65c0.367-0.467,0.333-0.917-0.1-1.35c-0.467-0.433-0.917-0.433-1.35,0
				C33.5-11.917,33.35-11.567,33.35-11.2z"/>
			<path style="fill-rule:evenodd;clip-rule:evenodd;fill:#FFFFFF;" d="M34.85-15.05l-0.15-0.2l-0.2-0.1
				c0.4-0.233,0.55-0.6,0.45-1.1c-0.133-0.5-0.45-0.75-0.95-0.75c-0.533,0-0.85,0.25-0.95,0.75c-0.1,0.5,0.05,0.867,0.45,1.1
				c-0.267,0.2-0.433,0.434-0.5,0.7c-0.067,0.3,0.033,0.583,0.3,0.85l0.15,0.15c0.466,0.467,0.933,0.45,1.4-0.05
				C35.317-14.167,35.317-14.617,34.85-15.05z"/>
			<path style="fill-rule:evenodd;clip-rule:evenodd;fill:#FFFFFF;" d="M38.15-15c0.4-0.233,0.55-0.6,0.45-1.1
				s-0.417-0.75-0.95-0.75c-0.4,0-0.683,0.167-0.85,0.5c-0.167,0.333-0.167,0.65,0,0.95c-0.367,0.267-0.5,0.65-0.4,1.15
				s0.417,0.75,0.95,0.75c0.4,0,0.683-0.183,0.85-0.55C38.333-14.35,38.317-14.667,38.15-15z"/>
			<path style="fill-rule:evenodd;clip-rule:evenodd;fill:#FFFFFF;" d="M40.9-14.75c0.533-0.133,0.85-0.5,0.95-1.1
				c0.033-0.267-0.067-0.5-0.3-0.7c-0.2-0.2-0.433-0.3-0.7-0.3c-0.333,0-0.583,0.117-0.75,0.35c-0.434,0.267-0.55,0.667-0.35,1.2
				C39.983-14.767,40.367-14.583,40.9-14.75z"/>
			<path style="fill-rule:evenodd;clip-rule:evenodd;fill:#FFFFFF;" d="M42.35-11.8l0.25-0.25c0.467,0.033,0.783-0.184,0.95-0.65
				c0.167-0.5,0.067-0.883-0.3-1.15c-0.233-0.233-0.483-0.35-0.75-0.35c-0.367,0-0.667,0.184-0.9,0.55
				c-0.233,0.066-0.4,0.15-0.5,0.25l-0.15,0.15c-0.434,0.467-0.417,0.933,0.05,1.4C41.433-11.35,41.883-11.333,42.35-11.8z"/>
			<path style="fill-rule:evenodd;clip-rule:evenodd;fill:#FFFFFF;" d="M41.85-10.7c-0.633,0-0.95,0.333-0.95,1
				c0,0.667,0.317,1,0.95,1s0.95-0.333,0.95-1C42.8-10.367,42.483-10.7,41.85-10.7z"/>
			<path style="fill-rule:evenodd;clip-rule:evenodd;fill:#FFFFFF;" d="M45.5-5.35c0.667,0,1-0.333,1-1c0-0.667-0.333-1-1-1
				c-0.5,0-0.817,0.267-0.95,0.8c-0.133-0.434-0.433-0.65-0.9-0.65c-0.633,0-0.95,0.333-0.95,1c0,0.667,0.316,1,0.95,1
				c0.5,0,0.817-0.267,0.95-0.8C44.733-5.567,45.033-5.35,45.5-5.35z"/>
			<path style="fill-rule:evenodd;clip-rule:evenodd;fill:#FFFFFF;" d="M43.7-7.75c0.533,0.067,0.883-0.15,1.05-0.65
				c0.367,0.066,0.683-0.017,0.95-0.25c0.433-0.434,0.433-0.9,0-1.4l-0.35-0.5c-0.133-0.2-0.367-0.3-0.7-0.3
				c-0.267,0-0.5,0.1-0.7,0.3L43.8-10.3c-0.633,0-0.95,0.316-0.95,0.95v0.65C42.85-8.1,43.133-7.783,43.7-7.75z"/>
			<path style="fill-rule:evenodd;clip-rule:evenodd;fill:#FFFFFF;" d="M44.35-15.3c0.333-0.333,0.383-0.75,0.15-1.25
				c-0.05-0.633-0.4-0.95-1.05-0.95c-0.667,0-0.983,0.333-0.95,1c0,0.4,0.15,0.8,0.45,1.2c0.167,0.2,0.4,0.3,0.7,0.3
				C43.95-15.033,44.183-15.133,44.35-15.3z"/>
		</g>
	</g>
</symbol>
<symbol  id="flash0.ai_x5F_21_x2F_Layer_114_x2F__x3C_Group_x3E__x5F_0" viewBox="0.05 -22.5 64.75 22.5">
	<g id="Layer_1_4_">
		<g>
			<path style="fill-rule:evenodd;clip-rule:evenodd;fill:#C1DAE8;" d="M49-4c0.633,0,0.95-0.333,0.95-1S49.633-6,49-6
				c-0.3,0-0.533,0.083-0.7,0.25c-0.066-0.3-0.167-0.517-0.3-0.65l-0.05-0.2c-0.034-0.267-0.184-0.467-0.45-0.6
				s-0.533-0.167-0.8-0.1c-0.534,0.133-0.767,0.533-0.7,1.2c0.033,0.3,0.233,0.667,0.6,1.1c0.167,0.233,0.4,0.333,0.7,0.3
				c0.3,0,0.534-0.1,0.7-0.3C48.067-4.333,48.4-4,49-4z"/>
			<path style="fill-rule:evenodd;clip-rule:evenodd;fill:#C1DAE8;" d="M51.3-7.2c0.667,0,1-0.333,1-1c0-0.667-0.333-1-1-1
				c-0.633,0-0.95,0.333-0.95,1C50.35-7.533,50.667-7.2,51.3-7.2z"/>
			<path style="fill-rule:evenodd;clip-rule:evenodd;fill:#C1DAE8;" d="M52.15-5.7c-0.633,0-0.95,0.333-0.95,1
				c0,0.667,0.316,1,0.95,1c0.667,0,1-0.333,1-1C53.15-5.367,52.817-5.7,52.15-5.7z"/>
			<path style="fill-rule:evenodd;clip-rule:evenodd;fill:#C1DAE8;" d="M53.35-4.8c-0.367,0.466-0.317,0.9,0.15,1.3
				c0.467,0.433,0.917,0.433,1.35,0c0.3-0.3,0.45-0.633,0.45-1c0.034-0.6-0.25-0.933-0.85-1C53.883-5.533,53.517-5.3,53.35-4.8z"/>
			<path style="fill-rule:evenodd;clip-rule:evenodd;fill:#C1DAE8;" d="M53.65-8.35c-0.633,0-0.95,0.333-0.95,1
				c0,0.667,0.316,1,0.95,1c0.667,0,1-0.333,1-1C54.65-8.017,54.317-8.35,53.65-8.35z"/>
			<path style="fill-rule:evenodd;clip-rule:evenodd;fill:#C1DAE8;" d="M56.5-5.35c-0.633,0-0.95,0.333-0.95,1
				c0,0.667,0.317,1,0.95,1h0.15c0.667,0,1-0.333,1-1c0-0.667-0.333-1-1-1H56.5z"/>
			<path style="fill-rule:evenodd;clip-rule:evenodd;fill:#C1DAE8;" d="M53.8-2c-0.633,0-0.95,0.333-0.95,1s0.316,1,0.95,1
				c0.667,0,1-0.333,1-1S54.467-2,53.8-2z"/>
			<path style="fill-rule:evenodd;clip-rule:evenodd;fill:#C1DAE8;" d="M50-1.5c0.633,0,0.95-0.333,0.95-1s-0.317-1-0.95-1
				s-0.95,0.333-0.95,1S49.367-1.5,50-1.5z"/>
			<path style="fill-rule:evenodd;clip-rule:evenodd;fill:#C1DAE8;" d="M57.5-7.5c0.633,0,0.95-0.333,0.95-1s-0.317-1-0.95-1
				c-0.667,0-1,0.333-1,1c-0.2-0.133-0.367-0.2-0.5-0.2c-0.633,0-0.95,0.333-0.95,1c0,0.667,0.317,1,0.95,1s0.95-0.333,0.95-1
				C57.15-7.567,57.333-7.5,57.5-7.5z"/>
			<path style="fill-rule:evenodd;clip-rule:evenodd;fill:#C1DAE8;" d="M58.8-6.7c-0.633,0-0.95,0.333-0.95,1
				c0,0.667,0.316,1,0.95,1c0.667,0,1-0.333,1-1C59.8-6.367,59.467-6.7,58.8-6.7z"/>
			<path style="fill-rule:evenodd;clip-rule:evenodd;fill:#C1DAE8;" d="M62.55-7.25c0.733,0.067,1.1-0.25,1.1-0.95v-0.3
				c0-0.6-0.283-0.933-0.85-1c-0.566-0.067-0.933,0.15-1.1,0.65c-0.567,0.067-0.85,0.417-0.85,1.05c0.033,0.633,0.35,0.95,0.95,0.95
				C62.133-6.85,62.383-6.983,62.55-7.25z"/>
			<path style="fill-rule:evenodd;clip-rule:evenodd;fill:#C1DAE8;" d="M63.8-5.35c0.667,0,1-0.333,1-1c0-0.667-0.333-1-1-1
				c-0.633,0-0.95,0.333-0.95,1C62.85-5.683,63.167-5.35,63.8-5.35z"/>
			<path style="fill-rule:evenodd;clip-rule:evenodd;fill:#C1DAE8;" d="M55.5-9.85c0.633,0,0.95-0.333,0.95-1
				c0-0.667-0.317-1-0.95-1s-0.95,0.333-0.95,1C54.55-10.183,54.867-9.85,55.5-9.85z"/>
			<path style="fill-rule:evenodd;clip-rule:evenodd;fill:#C1DAE8;" d="M50.7-11.5c0,0.667,0.316,1,0.95,1
				c0.434,0,0.717-0.2,0.85-0.6c0.167-0.333,0.15-0.667-0.05-1L52.8-12c0.367,0,0.65-0.15,0.85-0.45c0.133-0.3,0.15-0.6,0.05-0.9
				c0.3-0.066,0.517-0.167,0.65-0.3l0.15-0.15c0.467-0.467,0.467-0.934,0-1.4c-0.467-0.5-0.933-0.517-1.4-0.05l-0.15,0.2
				c-0.067,0.033-0.15,0.15-0.25,0.35c-0.133-0.1-0.317-0.15-0.55-0.15c-0.6,0-0.917,0.283-0.95,0.85
				c-0.067,0.567,0.15,0.933,0.65,1.1L52-12.45l-0.35-0.05C51.017-12.5,50.7-12.167,50.7-11.5z"/>
			<path style="fill-rule:evenodd;clip-rule:evenodd;fill:#C1DAE8;" d="M55.5-12.35c0.633,0,0.95-0.333,0.95-1
				c0-0.667-0.317-1-0.95-1s-0.95,0.333-0.95,1C54.55-12.683,54.867-12.35,55.5-12.35z"/>
			<path style="fill-rule:evenodd;clip-rule:evenodd;fill:#C1DAE8;" d="M58.15-14.85c0.667,0,1-0.333,1-1c0-0.667-0.333-1-1-1
				c-0.633,0-0.95,0.333-0.95,1C57.2-15.183,57.517-14.85,58.15-14.85z"/>
			<path style="fill-rule:evenodd;clip-rule:evenodd;fill:#C1DAE8;" d="M61-11.85c0.633,0,0.95-0.333,0.95-1c0-0.667-0.317-1-0.95-1
				s-0.95,0.333-0.95,1C60.05-12.183,60.367-11.85,61-11.85z"/>
			<path style="fill-rule:evenodd;clip-rule:evenodd;fill:#C1DAE8;" d="M62.65-10.5c0.667,0,1-0.333,1-1s-0.333-1-1-1
				c-0.633,0-0.95,0.333-0.95,1S62.017-10.5,62.65-10.5z"/>
			<path style="fill-rule:evenodd;clip-rule:evenodd;fill:#C1DAE8;" d="M60.2-11.45l-0.45-0.2L59.4-11.7
				c0.067-0.267,0.05-0.517-0.05-0.75c-0.1-0.267-0.3-0.433-0.6-0.5C58.817-13.65,58.5-14,57.8-14c-0.566,0-0.883,0.283-0.95,0.85
				c-0.067,0.566,0.15,0.917,0.65,1.05c0,0.733,0.333,1.1,1,1.1l0.1-0.05c-0.1,0.233-0.117,0.466-0.05,0.7
				c0.1,0.267,0.284,0.45,0.55,0.55c0.233,0.133,0.383,0.216,0.45,0.25c0.6,0.133,0.983-0.083,1.15-0.65
				C60.9-10.8,60.733-11.217,60.2-11.45z"/>
			<path style="fill-rule:evenodd;clip-rule:evenodd;fill:#C1DAE8;" d="M44-13c-0.633,0-0.95,0.333-0.95,1s0.317,1,0.95,1
				s0.95-0.333,0.95-1S44.633-13,44-13z"/>
			<path style="fill-rule:evenodd;clip-rule:evenodd;fill:#C1DAE8;" d="M42.5-17.2c0.633,0,0.95-0.333,0.95-1
				c0-0.667-0.317-1-0.95-1c-0.367,0-0.633,0.133-0.8,0.4c-0.467-0.567-0.95-0.6-1.45-0.1c-0.3,0.3-0.45,0.65-0.45,1.05
				c0,0.567,0.284,0.883,0.85,0.95c0.567,0.066,0.934-0.15,1.1-0.65C41.917-17.317,42.167-17.2,42.5-17.2z"/>
			<path style="fill-rule:evenodd;clip-rule:evenodd;fill:#C1DAE8;" d="M45.65-17c0.667,0,1-0.333,1-1s-0.333-1-1-1H45.5
				c-0.367,0-0.65,0.15-0.85,0.45c-0.133,0.267-0.167,0.566-0.1,0.9c-0.4-0.033-0.716,0.15-0.95,0.55s-0.184,0.767,0.15,1.1l0.2,0.2
				l0.2,0.15c-0.433,0.033-0.683,0.283-0.75,0.75c-0.167-0.4-0.467-0.6-0.9-0.6h-0.35c-0.633,0-0.95,0.333-0.95,1s0.316,1,0.95,1
				h0.35c0.533,0,0.833-0.267,0.9-0.8c0.167,0.4,0.467,0.6,0.9,0.6c0.534,0,0.85-0.267,0.95-0.8c0.1-0.5-0.05-0.85-0.45-1.05
				c0.3-0.067,0.534-0.25,0.7-0.55c0.167-0.3,0.167-0.6,0-0.9H45.65z"/>
			<path style="fill-rule:evenodd;clip-rule:evenodd;fill:#C1DAE8;" d="M47.15-16.2c0,0.633,0.333,0.95,1,0.95
				c0.667,0,1-0.317,1-0.95v-0.3c0-0.667-0.333-1-1-1c-0.667,0-1,0.333-1,1V-16.2z"/>
			<path style="fill-rule:evenodd;clip-rule:evenodd;fill:#C1DAE8;" d="M47.65-12.2c0.667,0,1-0.333,1-1c0-0.667-0.333-1-1-1
				c-0.633,0-0.95,0.333-0.95,1C46.7-12.533,47.017-12.2,47.65-12.2z"/>
			<path style="fill-rule:evenodd;clip-rule:evenodd;fill:#C1DAE8;" d="M37.3-19.85c-0.633,0-0.95,0.333-0.95,1
				c0,0.667,0.316,1,0.95,1c0.667,0,1-0.333,1-1C38.3-19.517,37.967-19.85,37.3-19.85z"/>
			<path style="fill-rule:evenodd;clip-rule:evenodd;fill:#C1DAE8;" d="M33.65-18.35c-0.633,0-0.95,0.333-0.95,1
				c0,0.667,0.316,1,0.95,1c0.667,0,1-0.333,1-1C34.65-18.017,34.317-18.35,33.65-18.35z"/>
			<path style="fill-rule:evenodd;clip-rule:evenodd;fill:#C1DAE8;" d="M32.8-18.35c0.667,0,1-0.333,1-1c0-0.667-0.333-1-1-1
				c-0.633,0-0.95,0.333-0.95,1C31.85-18.683,32.167-18.35,32.8-18.35z"/>
			<path style="fill-rule:evenodd;clip-rule:evenodd;fill:#C1DAE8;" d="M33.05-21.5c0,0.667,0.317,1,0.95,1l0.3-0.1v0.1
				c0,0.267,0.1,0.5,0.3,0.7c0.2,0.233,0.433,0.333,0.7,0.3c0.633-0.133,1.017-0.45,1.15-0.95c0.133-0.466,0-0.816-0.4-1.05
				c-0.367-0.233-0.733-0.25-1.1-0.05c0-0.633-0.317-0.95-0.95-0.95S33.05-22.167,33.05-21.5z"/>
			<path style="fill-rule:evenodd;clip-rule:evenodd;fill:#C1DAE8;" d="M37.5-20.5c0.633,0,0.95-0.333,0.95-1s-0.317-1-0.95-1
				s-0.95,0.333-0.95,1S36.867-20.5,37.5-20.5z"/>
			<path style="fill-rule:evenodd;clip-rule:evenodd;fill:#C1DAE8;" d="M28.5-18.5c0.633,0,0.95-0.333,0.95-1s-0.317-1-0.95-1
				s-0.95,0.333-0.95,1S27.867-18.5,28.5-18.5z"/>
			<path style="fill-rule:evenodd;clip-rule:evenodd;fill:#C1DAE8;" d="M27.15-16.7c0.667,0,1-0.333,1-1c0-0.667-0.333-1-1-1H27
				c-0.633,0-0.95,0.333-0.95,1c0,0.667,0.317,1,0.95,1H27.15z"/>
			<path style="fill-rule:evenodd;clip-rule:evenodd;fill:#C1DAE8;" d="M23.5-18.4c0.067,0.566,0.417,0.85,1.05,0.85
				c0.633-0.034,0.95-0.35,0.95-0.95v-0.2c0-0.566-0.317-0.883-0.95-0.95c-0.1-0.467-0.4-0.7-0.9-0.7c-0.6,0-0.917,0.3-0.95,0.9
				C22.667-18.817,22.933-18.467,23.5-18.4z"/>
			<path style="fill-rule:evenodd;clip-rule:evenodd;fill:#C1DAE8;" d="M20.8-16.7c0.667,0,1-0.333,1-1c0-0.667-0.333-1-1-1
				c-0.633,0-0.95,0.333-0.95,1C19.85-17.033,20.167-16.7,20.8-16.7z"/>
			<path style="fill-rule:evenodd;clip-rule:evenodd;fill:#C1DAE8;" d="M20.3-14.5c0.667,0,1-0.333,1-1s-0.333-1-1-1
				c-0.633,0-0.95,0.333-0.95,1S19.667-14.5,20.3-14.5z"/>
			<path style="fill-rule:evenodd;clip-rule:evenodd;fill:#C1DAE8;" d="M16-15.5c0.633,0,0.95-0.333,0.95-1s-0.317-1-0.95-1
				s-0.95,0.333-0.95,1S15.367-15.5,16-15.5z"/>
			<path style="fill-rule:evenodd;clip-rule:evenodd;fill:#C1DAE8;" d="M5.65-15.1C6.083-15.233,6.3-15.533,6.3-16v-0.2
				c0-0.433-0.183-0.716-0.55-0.85c-0.367-0.167-0.7-0.15-1,0.05c-0.2-0.133-0.4-0.2-0.6-0.2H4c-0.633,0-0.95,0.333-0.95,1
				c0,0.667,0.317,1,0.95,1h0.15l0.45-0.1C4.9-15.033,5.25-14.967,5.65-15.1z"/>
			<path style="fill-rule:evenodd;clip-rule:evenodd;fill:#C1DAE8;" d="M9.3-17.5c0-0.666-0.333-0.999-1-1
				c0.033-0.001,0.033-0.018,0-0.05c-0.2-0.167-0.45-0.2-0.75-0.1c-0.267,0.066-0.466,0.217-0.6,0.45
				c-0.333,0.534-0.217,0.983,0.35,1.35c0.2,0.167,0.534,0.283,1,0.35C8.967-16.5,9.3-16.833,9.3-17.5z"/>
			<path style="fill-rule:evenodd;clip-rule:evenodd;fill:#C1DAE8;" d="M9.65-16.35c-0.1-0.1-0.267-0.15-0.5-0.15
				c-0.633,0-0.95,0.3-0.95,0.9c-0.367,0.233-0.483,0.567-0.35,1C8.017-14.067,8.4-13.767,9-13.7c0.4,0.067,0.683-0.117,0.85-0.55
				C10.017-14.083,10.233-14,10.5-14c0.433,0,0.717-0.2,0.85-0.6c0.133-0.333,0.1-0.667-0.1-1c0.333-0.267,0.433-0.617,0.3-1.05
				c-0.133-0.467-0.433-0.7-0.9-0.7C9.983-17.35,9.65-17.017,9.65-16.35z"/>
			<path style="fill-rule:evenodd;clip-rule:evenodd;fill:#C1DAE8;" d="M1-15.7c0.633,0,0.95-0.333,0.95-1c0-0.667-0.317-1-0.95-1
				s-0.95,0.333-0.95,1C0.05-16.033,0.367-15.7,1-15.7z"/>
		</g>
	</g>
</symbol>
<symbol  id="flash0.ai_x5F_21_x2F_Layer_114_x2F__x3C_Path_x3E_" viewBox="0.136 -21.85 91.415 21.854">
	<g id="Layer_1_2_">
		<path style="fill-rule:evenodd;clip-rule:evenodd;" d="M86.45-3.5c0.1-0.033,0.2-0.15,0.3-0.35c0.3-0.2,0.75-0.583,1.35-1.15
			c1.4-1.333,2.217-2.117,2.45-2.35c0.967-0.933,1.233-1.383,0.8-1.35L90.4-8.35c-1.433-0.333-2.483-0.617-3.15-0.85
			c-0.433-0.167-0.7-0.35-0.8-0.55c-0.034-0.067-0.05-0.333-0.05-0.8c0-0.267-0.417-0.467-1.25-0.6c-1.1-0.167-1.9-0.3-2.4-0.4
			c-0.633-0.133-1.133-0.434-1.5-0.9c-0.4-0.566-0.733-0.983-1-1.25c-0.333-0.333-0.85-0.6-1.55-0.8
			c-0.934-0.267-1.483-0.45-1.65-0.55c-0.4-0.2-0.716-0.483-0.95-0.85l-0.2-0.45l-2.35-0.5c-2.867-0.233-4.75-0.35-5.65-0.35
			c-0.733,0-1.467-0.133-2.2-0.4c-0.8-0.267-1.4-0.633-1.8-1.1c-0.267-0.333-0.417-0.5-0.45-0.5c-0.034,0.034-0.217-0.083-0.55-0.35
			c-0.5-0.434-1.933-0.917-4.3-1.45c-2.367-0.567-4.217-0.85-5.55-0.85c-3.433,0-5.433,0.05-6,0.15
			c-0.233,0.034-0.95,0.284-2.15,0.75c-1.2,0.434-1.983,0.684-2.35,0.75c-0.066,0-0.833,0.017-2.3,0.05
			c-1.733,0.033-3.85,0.183-6.35,0.45c-2.467,0.267-3.617,0.367-3.45,0.3c0.466-0.1,0.617-0.15,0.45-0.15
			c-0.233,0-1.367,0.25-3.4,0.75c-2.633,0.667-5.55,1.25-8.75,1.75c-3.3,0.533-4.783,0.733-4.45,0.6c0.6-0.2,0.8-0.283,0.6-0.25
			c-2.233,0.2-4.117,0.534-5.65,1C8.517-15.5,8-15.283,7.7-15.05c-0.467,0.4-0.95,0.8-1.45,1.2c-0.367,0.3-1.933,0.867-4.7,1.7
			c-1.833,0.533-1.883,0.8-0.15,0.8c1.067,0,1.417,0.283,1.05,0.85c-0.233,0.367-0.633,0.75-1.2,1.15
			C0.983-9.183,1.033-8.917,1.4-8.55c0.4,0.4,0.95,0.683,1.65,0.85c1,0.233,1.333,0.45,1,0.65c2.233,2,3.8,3.233,4.7,3.7
			c1.4,0.7,2.267,1.117,2.6,1.25c1.367,0.567,2.933,1.033,4.7,1.4c1.467,0.3,4.867,0.4,10.2,0.3c5.767-0.067,9.533,0,11.3,0.2
			c2.167,0.233,6.833,0.267,14,0.1c8.1-0.2,12.833-0.283,14.2-0.25c2.5,0.067,5.633-0.233,9.4-0.9c2.067-0.367,4.817-0.9,8.25-1.6
			C85.3-3.217,86.317-3.433,86.45-3.5z"/>
	</g>
</symbol>
<symbol  id="flash0.ai_x5F_21_x2F_Layer_114_x2F__x3C_Path_x3E__x5F_0" viewBox="0 -46.8 85.65 46.8">
	<g id="Layer_1_5_">
		
			<radialGradient id="SVGID_1_" cx="42.8252" cy="-23.3999" r="40.0056" gradientTransform="matrix(1 0 0 -0.5436 0 -36.1206)" gradientUnits="userSpaceOnUse">
			<stop  offset="0" style="stop-color:#FFFFFF"/>
			<stop  offset="1" style="stop-color:#FFFFFF;stop-opacity:0"/>
		</radialGradient>
		<path style="fill-rule:evenodd;clip-rule:evenodd;fill:url(#SVGID_1_);" d="M73.1-6.85c8.367-4.566,12.55-10.083,12.55-16.55
			S81.467-35.383,73.1-39.95c-8.333-4.566-18.417-6.85-30.25-6.85c-11.867,0-21.967,2.283-30.3,6.85C4.183-35.383,0-29.867,0-23.4
			S4.183-11.417,12.55-6.85C20.917-2.283,31.017,0,42.85,0C54.683,0,64.767-2.283,73.1-6.85z"/>
	</g>
</symbol>
<g>
	<g>
		
			<use xlink:href="#flash0.ai_x5F_21_x2F_Layer_114_x2F__x3C_Path_x3E_"  width="91.415" height="21.854" x="0.136" y="-21.85" transform="matrix(1 0 0 -1 -0.1499 22.7002)" style="overflow:visible;opacity:0.1406;enable-background:new    ;"/>
	</g>
	<g>
		
			<radialGradient id="SVGID_2_" cx="46.0996" cy="26.75" r="24.8" gradientTransform="matrix(1 0 0 -1.2661 0 60.619)" gradientUnits="userSpaceOnUse">
			<stop  offset="0" style="stop-color:#B4CCDB"/>
			<stop  offset="1" style="stop-color:#99BCD1"/>
		</radialGradient>
		<path style="fill-rule:evenodd;clip-rule:evenodd;fill:url(#SVGID_2_);" d="M73.9,16.35c2.233,2.1,3.899,3.566,5,4.4
			c1.8,1.333,4.366,3.884,7.699,7.65c-2.699,1.333-5.483,3.116-8.35,5.35c-2.1,1.6-3.2,2.417-3.3,2.45
			c-1.8,0.267-4.483,0.666-8.05,1.2c-2.267,0.366-4.067,0.949-5.4,1.75c-0.167,0.1-1,0.8-2.5,2.1c-1.733,1.5-5.2,1.884-10.4,1.15
			c-5.333-0.767-9.649-1.567-12.95-2.4c-2.367-0.634-3.833-0.95-4.4-0.95c-0.667,0-2-0.217-4-0.649c-2-0.434-4-0.65-6-0.65
			c-2.8,0-5.367-0.217-7.7-0.65c-2.5-0.466-3.816-1.033-3.95-1.699c-0.133-0.567-0.85-1.4-2.15-2.5L5.6,31.4
			c3.533-3.334,5.633-5.551,6.3-6.65c0.434-0.7,0.95-1.367,1.55-2l0.8-0.7c0.433-0.433,0.983-1.1,1.65-2
			c0.333-0.433,1.167-1.2,2.5-2.3c1.333-1.1,2.167-1.883,2.5-2.35c0.434-0.566,2.45-1.517,6.05-2.85c1.8-0.633,3.566-1.233,5.3-1.8
			l3.05-0.15c2.733,0.066,5.833,0.45,9.3,1.15c2.766,0.567,5.567,1.2,8.4,1.9c1.8,0.4,3.434,0.533,4.9,0.4
			c2.466-0.2,6.8-0.417,13-0.65L73.9,16.35z"/>
		<path style="fill-rule:evenodd;clip-rule:evenodd;fill:#CCE0ED;" d="M70.9,13.4l4.6,4.4c-0.533,1.667-0.833,2.65-0.9,2.95
			C74.2,22.217,73.3,23.3,71.9,24c-1.767,0.7-3.101,1.384-4,2.05c-1.7,1.3-3.567,2.851-5.601,4.65
			c-2.533,2.233-4.333,4.017-5.399,5.35c-0.967,1.267-1.551,1.717-1.75,1.351c-0.034-0.767-0.117-1.317-0.25-1.65
			c-0.134-0.5-0.067-1.467,0.199-2.9c0.267-1.433,0.65-2.916,1.15-4.449c0.434-1.233,0.733-2.434,0.9-3.601l0.1-1.4
			c-1.767-1.1-3.884-1.767-6.35-2c-1.5-0.133-3.584-0.5-6.25-1.1c-3.367-0.8-6.05-1.433-8.05-1.9c-2.267-0.5-3.717-0.75-4.35-0.75
			c-0.733,0-1.517-0.083-2.35-0.25c-1.833-0.367-3.4-0.467-4.7-0.3c-1.534,0.167-2.85,0.717-3.95,1.65
			c-0.533,0.467-1.767,1.4-3.7,2.8c-1.867,1.367-3.75,2.867-5.65,4.5c-0.8,0.7-1.767,1.367-2.9,2c1.567-1.566,2.533-2.666,2.9-3.3
			c0.434-0.7,0.95-1.367,1.55-2l0.8-0.7c0.433-0.433,0.983-1.1,1.65-2c0.333-0.433,1.167-1.2,2.5-2.3
			c1.333-1.1,2.167-1.883,2.5-2.35c0.434-0.566,2.45-1.517,6.05-2.85c1.8-0.633,3.566-1.233,5.3-1.8l3.05-0.15
			c2.733,0.066,5.833,0.45,9.3,1.15c2.766,0.567,5.567,1.2,8.4,1.9c1.8,0.4,3.434,0.533,4.9,0.4C60.366,13.85,64.7,13.633,70.9,13.4
			z"/>
		<path style="fill-rule:evenodd;clip-rule:evenodd;fill:#91AEBD;" d="M71.75,14.25c3.033,3.033,5.417,5.2,7.15,6.5
			c1.8,1.333,4.366,3.884,7.699,7.65c-2.699,1.333-5.483,3.116-8.35,5.35c-2.1,1.6-3.2,2.417-3.3,2.45
			c-1.8,0.267-4.483,0.666-8.05,1.2c-2.267,0.366-4.067,0.949-5.4,1.75c-0.167,0.1-1,0.8-2.5,2.1c-1.733,1.5-5.2,1.884-10.4,1.15
			c-5.333-0.767-9.649-1.567-12.95-2.4c-2.367-0.634-3.833-0.95-4.4-0.95c-0.667,0-2-0.217-4-0.649c-2-0.434-4-0.65-6-0.65
			c-2.8,0-5.367-0.217-7.7-0.65c-2.5-0.466-3.816-1.033-3.95-1.699c-0.2-0.733-1.434-1.983-3.7-3.75c1.467-0.134,2.283-0.2,2.45-0.2
			c0.833,0,1.467,0.1,1.9,0.3c0.4,0.2,1.117,0.634,2.15,1.3c0.867,0.566,1.483,0.9,1.85,1c0.667,0.233,2.117,0.351,4.35,0.351
			c0.1,0,1.1-0.384,3-1.15c1.867-0.8,3.533-1.2,5-1.2c1.233,0,2.8-0.267,4.7-0.8c1.7-0.3,3.35,0.083,4.95,1.15
			c1.833,1.233,3.267,1.966,4.3,2.199c0.5,0.134,2.184,0.284,5.05,0.45c1.034,0.066,3.134,0.384,6.301,0.95
			c1.767,0.333,2.767,0.25,3-0.25c0.033-0.033,0.116-0.417,0.25-1.15c0.1-0.433,0.683-1.383,1.75-2.85
			c1.133-1.533,2.033-3.45,2.699-5.75l0.65-2.95l2-2l1.7,0.2c1.399-0.033,2.717-0.533,3.95-1.5c1-0.767,1.833-1.7,2.5-2.8
			C70.634,16.55,71.083,15.65,71.75,14.25z"/>
	</g>
	<g>
		
			<use xlink:href="#flash0.ai_x5F_21_x2F_Layer_114_x2F__x3C_Group_x3E_"  width="46.45" height="17.5" x="0.05" y="-17.5" transform="matrix(1 0 0 -1 10.25 18.0498)" style="overflow:visible;opacity:0.6289;enable-background:new    ;"/>
	</g>
	<g>
		
			<use xlink:href="#flash0.ai_x5F_21_x2F_Layer_114_x2F__x3C_Group_x3E__x5F_0"  width="64.75" height="22.5" x="0.05" y="-22.5" transform="matrix(1 0 0 -1 15.6001 19.5498)" style="overflow:visible;opacity:0.5195;enable-background:new    ;"/>
	</g>
	<g>
		
			<use xlink:href="#flash0.ai_x5F_21_x2F_Layer_114_x2F__x3C_Path_x3E__x5F_0"  width="85.65" height="46.8" y="-46.8" transform="matrix(1 0 0 -1 5.25 0)" style="overflow:visible;opacity:0.5195;enable-background:new    ;"/>
	</g>
</g>
</svg>
