<?xml version="1.0" encoding="iso-8859-1"?>
<!-- Generator: Adobe Illustrator 15.1.0, SVG Export Plug-In . SVG Version: 6.00 Build 0)  -->
<!DOCTYPE svg PUBLIC "-//W3C//DTD SVG 1.1//EN" "http://www.w3.org/Graphics/SVG/1.1/DTD/svg11.dtd">
<svg version="1.1" id="flash0.ai" xmlns="http://www.w3.org/2000/svg" xmlns:xlink="http://www.w3.org/1999/xlink" x="0px" y="0px"
	 width="108.25px" height="27.85px" viewBox="0 0 108.25 27.85" style="enable-background:new 0 0 108.25 27.85;"
	 xml:space="preserve">
<symbol  id="flash0.ai_x5F_5_x2F_Layer_64_x2F__x3C_Path_x3E_" viewBox="0 -15.35 96.35 15.402">
	<g id="Layer_1_3_">
		<path style="fill-rule:evenodd;clip-rule:evenodd;" d="M91.3-9.05c-1,0.267-1.7,0.4-2.1,0.4C88.467-8.617,85.633-9.4,80.7-11
			c-7.034-2.267-11.65-3.717-13.85-4.35c-4.633,1.434-7.717,2.35-9.25,2.75c-3.934,0.967-14.167,1.684-30.7,2.15
			c-8.267,0.2-16.133,0.317-23.6,0.35C3.033-9.933,2.467-9.683,1.6-9.35C1-9.15,0.467-8.733,0-8.1c0.367,0.667,0.65,1.167,0.85,1.5
			C1.217-5.967,1.633-5.467,2.1-5.1C3.333-4.2,3.967-3.733,4-3.7c0.433,0.5,0.367,1.117-0.2,1.85C6.4-1.383,9.867-0.9,14.2-0.4
			c4.767,0.566,17.566,0.6,38.4,0.1c21.633-0.567,35.583-1.383,41.85-2.45c0.267-1.567,0.9-2.683,1.9-3.35c-1.033-1.3-2.033-2-3-2.1
			C92.55-8.233,91.867-8.517,91.3-9.05z"/>
	</g>
</symbol>
<symbol  id="flash0.ai_x5F_5_x2F_Layer_64_x2F__x3C_Path_x3E__x5F_0" viewBox="0 -15.74 21.8 15.74">
	<g id="Layer_1_5_">
		<path style="fill-rule:evenodd;clip-rule:evenodd;" d="M20.8-4.5l-3.15-2.7c-0.2-0.167-0.85-0.417-1.95-0.75
			c-0.934-0.3-1.617-0.767-2.05-1.4c-0.767-1.066-1.267-2.183-1.5-3.35c-0.133-0.6-0.467-1.1-1-1.5c-0.2-0.167-0.55-0.45-1.05-0.85
			c-0.467-0.3-1.067-0.45-1.8-0.45c-0.466,0-1.383-0.05-2.75-0.15c-1.133-0.1-1.816-0.117-2.05-0.05c-0.467,0.133-1.633,0.3-3.5,0.5
			l5.15,0.7c2.7,0.333,4.317,0.933,4.85,1.8c0.133,0.233,0.367,0.784,0.7,1.65c0.2,0.6,0.466,1.05,0.8,1.35
			c0.067,0.067,0.4,0.6,1,1.6c0.433,0.733,0.983,1.267,1.65,1.6c1.1,0.533,2.767,1.417,5,2.65c1.1,1.434,1.65,2.434,1.65,3V0
			c0.667-0.467,1-1.133,1-2c0-0.8-0.017-1.267-0.05-1.4C21.65-3.667,21.333-4.033,20.8-4.5z"/>
	</g>
</symbol>
<symbol  id="flash0.ai_x5F_5_x2F_Layer_64_x2F__x3C_Path_x3E__x5F_1" viewBox="0.021 -17.692 98.027 17.779">
	<g id="Layer_1_2_">
		<path style="fill-rule:evenodd;clip-rule:evenodd;" d="M82.1-17.45c-2.9-0.533-6.567-0.183-11,1.05c-5.4,1.733-9.667,3-12.8,3.8
			c-3.933,0.967-14.167,1.684-30.7,2.15c-8.267,0.2-16.133,0.317-23.6,0.35C3.833-10,3.217-9.733,2.15-9.3
			c-0.6,0.233-1.167,0.75-1.7,1.55c-0.467,0.7-0.534,1.4-0.2,2.1c0.3,0.667,0.267,1.233-0.1,1.7c-0.533,0.667,0.583,1.3,3.35,1.9
			C5.367-1.683,9.167-1.133,14.9-0.4c5.4,0.667,19.9,0.65,43.5-0.05C82.767-1.183,95.867-2.2,97.7-3.5
			c0.633-0.433,0.4-1.317-0.7-2.65c-1.067-1.3-2.05-1.983-2.95-2.05c-1.533-0.133-2.617-0.966-3.25-2.5
			c-0.633-1.633-1.617-3.017-2.95-4.15C86.283-16.183,84.367-17.05,82.1-17.45z"/>
	</g>
</symbol>
<symbol  id="flash0.ai_x5F_5_x2F_Layer_64_x2F__x3C_Path_x3E__x5F_1_x5F_0" viewBox="0.048 -12.7 12.602 12.693">
	<g id="Layer_1_4_">
		<path style="fill-rule:evenodd;clip-rule:evenodd;fill:#FFFFFF;" d="M4.8-0.2C3.933-0.867,3.217-1.767,2.65-2.9
			C3.083-4,3.533-4.933,4-5.7c0.033-0.066,0.217-0.65,0.55-1.75c0.167-0.667,0.583-1.2,1.25-1.6c1.133-0.667,3.417-1.883,6.85-3.65
			c-3,1-4.95,1.767-5.85,2.3c-0.433,0.267-0.917,0.517-1.45,0.75C4.85-9.417,4.4-9.167,4-8.9C3.533-8.567,3.083-7.8,2.65-6.6
			C2.25-5.333,1.967-4.533,1.8-4.2C1.7-4,1.233-3.533,0.4-2.8c-0.5,0.433-0.467,0.683,0.1,0.75c0.567,0.066,0.9,0.183,1,0.35
			C1.633-1.467,1.8-1.3,2-1.2c0.267,0.1,0.967,0.383,2.1,0.85C4.967,0.05,5.2,0.1,4.8-0.2z"/>
	</g>
</symbol>
<g>
	<g>
		
			<use xlink:href="#flash0.ai_x5F_5_x2F_Layer_64_x2F__x3C_Path_x3E__x5F_1"  width="98.027" height="17.779" x="0.021" y="-17.692" transform="matrix(1 0 0 -1 6.7998 7.6499)" style="overflow:visible;opacity:0.3086;enable-background:new    ;"/>
		
			<use xlink:href="#flash0.ai_x5F_5_x2F_Layer_64_x2F__x3C_Path_x3E_"  width="96.35" height="15.402" y="-15.35" transform="matrix(1 0 0 -1 7.5 7.6499)" style="overflow:visible;opacity:0.1719;enable-background:new    ;"/>
	</g>
	<g>
		<path style="fill-rule:evenodd;clip-rule:evenodd;fill:#E3E4E6;" d="M87.3,25.55c-3.833,0.101-6.934,0.184-9.3,0.25
			c-4.4,0.066-8.85-0.017-13.35-0.25c-3.9-0.2-7.567-0.783-11-1.75c-3.5-1-6.767-1.6-9.8-1.8c-0.067,0-4.4-0.2-13-0.6
			c-4.5-0.2-8.633-0.617-12.4-1.25c-3.967-0.634-6.917-1.534-8.85-2.7L7.85,15.85c0.3-0.033,0.783-0.283,1.45-0.75
			c1.3-0.966,2.883-2.583,4.75-4.85c1.1-1.367,2.45-2.433,4.05-3.2c0.8-0.367,1.483-0.617,2.05-0.75l1.3-1
			c1.066-0.767,2.1-1.333,3.1-1.7c2.067-0.833,5.667-1.25,10.8-1.25c1.833,0,3-0.033,3.5-0.1c0.4-0.067,1.383-0.333,2.95-0.8
			c2.7-0.8,5.417-1.2,8.15-1.2c0.667,0,1.867-0.067,3.6-0.2c1.8-0.1,3.533-0.033,5.2,0.2c0.566,0.1,2.5,0.117,5.8,0.05
			c2.601-0.066,5.3,0.317,8.101,1.15c2.466,0.767,4.633,1.533,6.5,2.3c1.5,0.633,2.833,1.083,4,1.35
			c2.066,0.5,4.699,1.35,7.899,2.55c3.533,1.333,6.084,2.483,7.65,3.45c2.267,1.433,3.967,2.25,5.1,2.45c0.066,0.2-0.1,0.5-0.5,0.9
			c-0.8,0.8-2.333,1.7-4.6,2.7c-1.5,0.666-3.351,2.366-5.55,5.1C91.35,24.45,89.4,25.55,87.3,25.55z"/>
	</g>
	<g>
		<path style="fill-rule:evenodd;clip-rule:evenodd;fill:#D3D4D6;" d="M31.85,7.45C31.183,8.15,30.6,8.7,30.1,9.1
			c-0.9,0.733-2.083,1-3.55,0.8c-1.466-0.2-2.533-0.483-3.2-0.85l-0.55-0.5c0.667,0,1.417,0,2.25,0c0.633-0.033,1.434-0.25,2.4-0.65
			c0.5-0.2,1.316-0.5,2.45-0.9c0.7-0.233,1.35-0.517,1.95-0.85c1.033-0.6,1.85-1.117,2.45-1.55l-0.2-2.2h4.15
			c-0.733,1.033-1.533,1.833-2.4,2.4C33.317,6.467,31.983,7.35,31.85,7.45z"/>
		<path style="fill-rule:evenodd;clip-rule:evenodd;fill:#D3D4D6;" d="M57.5,0.75c0.733,0.133,1.417,0.167,2.05,0.1L60.5,1.4
			c0.467,0.434,0.233,0.833-0.7,1.2c-0.733,0.3-1.383,0.3-1.95,0c-0.566-0.3-1.166-0.3-1.8,0c-0.833,0.367-2.033,0.85-3.6,1.45
			L50.3,4.8l5.95-3.95C56.55,0.683,56.967,0.65,57.5,0.75z"/>
		<path style="fill-rule:evenodd;clip-rule:evenodd;fill:#D3D4D6;" d="M70.85,9.2C70.483,9.433,69.9,9.667,69.1,9.9
			c-0.767,0.2-1.3,0.417-1.6,0.65l-0.85,0.65l-0.9,2c-0.767,0.033-1.45,0.05-2.05,0.05c-1.101,0-1.884-0.083-2.351-0.25l-3.75-1.35
			L56.7,11.2c3.533-0.567,5.3-1.15,5.3-1.75c0-0.3-0.167-0.367-0.5-0.2c-0.1,0.067,0.066-0.167,0.5-0.7
			c0.634-0.733,1.184-1.267,1.65-1.6c0.399-0.267,1.066-0.583,2-0.95c2.533-1.033,3.816-1.55,3.85-1.55
			c1.866-0.633,3.333-0.883,4.4-0.75C75,3.867,75.816,3.967,76.35,4c0.301,0,0.733-0.017,1.301-0.05c0.733,0,1.983,0.433,3.75,1.3
			C79.8,5.55,78.033,6,76.1,6.6C74.9,6.967,73.8,7.433,72.8,8C71.866,8.6,71.217,9,70.85,9.2z"/>
	</g>
	<g>
		<path style="fill-rule:evenodd;clip-rule:evenodd;fill:#F7F8FA;" d="M77.25,11l0.65-0.45c0.5-0.433,0.933-0.883,1.3-1.35
			c0.6-0.733,2-1.534,4.2-2.4L77.9,13c-0.567,1.634-1.184,2.866-1.851,3.7c-1.2,1.5-3.899,2.25-8.1,2.25
			C62.116,19.017,57.934,19.033,55.4,19c-4.067-0.1-8.417-0.483-13.05-1.15c-3.667-0.533-7.467-0.949-11.4-1.25
			c-3.167-0.267-5.7-0.583-7.6-0.949c-2.033-0.4-4.067-0.934-6.1-1.601c-2.067-0.633-3.683-1.267-4.85-1.9l1.65-1.9
			c1.1-1.367,2.45-2.433,4.05-3.2c0.8-0.367,1.483-0.617,2.05-0.75l1.3-1c1.066-0.767,2.1-1.333,3.1-1.7
			c0.767-0.3,1.867-0.567,3.3-0.8L26.7,3.25c-1.534,0.7-2.65,1.367-3.35,2L22.7,5.9c-0.867,0.9-2.117,1.717-3.75,2.45l1.1,0.9
			c0.9,0.7,1.717,1.283,2.45,1.75c0.967,0.6,2.183,1.1,3.65,1.5c1.633,0.467,3.283,0.7,4.95,0.7c4.267,0,7.35-0.067,9.25-0.2
			c0.967-0.067,1.483,0.083,1.55,0.45c0.033,0.133,0.483-0.1,1.35-0.7c0.9-0.6,1.933-1.183,3.1-1.75
			c0.867-0.467,1.45-0.833,1.75-1.1c0.3-0.3,0.617-0.683,0.95-1.15c0.333-0.433,0.817-0.867,1.45-1.3
			c1.033-0.733,2.433-1.534,4.2-2.4c-1.167,1.3-2.117,2.317-2.85,3.05l-1.1,1.1L50.5,9.6c-0.033,0.3,0.267,0.55,0.9,0.75
			c0.533,0.133,1.233,0.367,2.1,0.7c0.733,0.167,1.434-0.066,2.1-0.7c0.534-0.5,0.717-0.867,0.551-1.1
			c-0.067-0.067,0.267-0.217,1-0.45c0.433-0.133,1.283-0.283,2.55-0.45c0.8-0.067,1.5-0.367,2.1-0.9c1-0.867,2.017-1.667,3.05-2.4
			l-0.199,1.1C64.35,6.983,63.833,7.633,63.1,8.1c-0.533,0.333-0.916,0.883-1.149,1.65c-0.167,0.533-0.601,0.8-1.3,0.8
			c-0.801,0-1.5,0.167-2.101,0.5c-0.5,0.333-0.816,0.534-0.95,0.6c-0.199,0.1-0.3,0.317-0.3,0.65c0,0.167,0.017,0.317,0.05,0.45
			l-0.149,0.8c0.2,0.5,0.983,0.75,2.35,0.75c0.667,0,1.834-0.017,3.5-0.05c0.9-0.033,1.733-0.017,2.5,0.05
			c0.667,0.066,1.55,0.217,2.65,0.45c1,0.134,1.95,0.05,2.85-0.25L73.15,14c0.466-0.1,1.017-0.367,1.649-0.8
			C75.833,12.467,76.65,11.733,77.25,11z"/>
	</g>
	<g>
		<path style="fill-rule:evenodd;clip-rule:evenodd;fill:#C9CACC;" d="M103.8,13.55c0.066,0.2-0.1,0.5-0.5,0.9
			c-0.8,0.8-2.333,1.7-4.6,2.7c-1.601,0.699-3.3,2.199-5.101,4.5c-1.666,2.1-3.216,3.333-4.649,3.699
			c-3.3-0.433-8.55-0.633-15.75-0.6c-6.7,0-11.816-0.316-15.351-0.95c-0.933-0.166-3.267-0.717-7-1.649
			c-2.833-0.733-5.217-1.15-7.15-1.25c-1.4-0.067-3.5-0.15-6.3-0.25c-2.833-0.067-4.95-0.15-6.35-0.25l-0.2-0.101
			c-2.1-0.533-5.3-0.899-9.6-1.1c-1.1-0.066-2.783-0.25-5.05-0.55c-2.167-0.301-3.833-0.483-5-0.551h-0.35
			c-1.067-0.466-1.883-0.983-2.45-1.55l-0.55-0.7c0.3-0.033,0.783-0.283,1.45-0.75c1.3-0.966,2.883-2.583,4.75-4.85
			c1.034-0.733,1.867-1.267,2.5-1.6l3.95,2.2c0.567,0.267,1.15,0.733,1.75,1.4c0.367,0.4,1.4,0.767,3.1,1.1
			c2.133,0.433,3.483,0.683,4.05,0.75c0.4,0.034,2.233,0.084,5.5,0.15c2.633,0.066,4.783,0.033,6.45-0.1
			c0.933-0.067,2.033-0.184,3.3-0.351c0.9-0.066,2.283,0.067,4.15,0.4c1.4,0.267,2.517,0.517,3.35,0.75
			c0.1,0.033,0.667,0.05,1.7,0.05c1.333,0,3.317,0.233,5.95,0.7c3.467,0.633,5.417,0.967,5.851,1c0.699,0,2.433-0.233,5.199-0.7
			c2.434-0.434,4.4-1.283,5.9-2.55c0.1-0.1,0.917-1.017,2.45-2.75c0.133-0.133,0.483-0.583,1.05-1.35c0.267-0.333,0.65-0.667,1.15-1
			c1.533-1.033,1.933-1.767,1.199-2.2c-0.533-0.433-0.966-0.733-1.3-0.9c-0.566-0.333-1.316-0.533-2.25-0.6
			c-0.866-0.066-1.899,0-3.1,0.2c-1.9,0.3-3.117,0.483-3.65,0.55L65.65,6L67.3,5.3c1.334-0.566,2.601-1.066,3.8-1.5
			c1.101-0.4,2.384-0.933,3.851-1.6c1.434,0.466,2.983,1.05,4.649,1.75c1.2,0.466,2.384,0.85,3.551,1.15
			c2.066,0.5,4.699,1.35,7.899,2.55c3.533,1.333,6.084,2.483,7.65,3.45C100.967,12.533,102.667,13.35,103.8,13.55z"/>
		<path style="fill-rule:evenodd;clip-rule:evenodd;fill:#83888C;" d="M103.8,13.55c0.066,0.2-0.1,0.5-0.5,0.9
			c-0.8,0.8-2.333,1.7-4.6,2.7c-1.566,0.699-3.134,2.033-4.7,4c-1.634,2.033-2.917,3.283-3.85,3.75l-0.101-0.65
			c-0.133-0.533-0.6-1.15-1.399-1.85c-0.967-0.867-2.2-1.65-3.7-2.351c-1.101-0.5-1.566-0.95-1.4-1.35
			c0.066-0.134-0.566-0.2-1.899-0.2c-1.801,0.033-2.867,0.033-3.2,0c-0.2,0-0.75-0.15-1.65-0.45c-0.833-0.267-2.434-1.033-4.8-2.3
			c2-0.5,3.65-1.333,4.95-2.5c0.733-0.633,1.483-1.483,2.25-2.55c0.133-0.133,0.483-0.583,1.05-1.35c0.267-0.333,0.65-0.667,1.15-1
			c1.533-1.033,1.933-1.767,1.199-2.2c-0.533-0.433-0.966-0.733-1.3-0.9c-0.566-0.333-1.316-0.533-2.25-0.6
			c-0.866-0.066-1.899,0-3.1,0.2c-1.9,0.3-3.117,0.483-3.65,0.55L65.65,6L67.3,5.3c1.334-0.566,2.601-1.066,3.8-1.5
			c1.101-0.4,2.384-0.933,3.851-1.6c1.434,0.466,2.983,1.05,4.649,1.75c1.2,0.466,2.384,0.85,3.551,1.15
			c2.066,0.5,4.699,1.35,7.899,2.55c3.533,1.333,6.084,2.483,7.65,3.45C100.967,12.533,102.667,13.35,103.8,13.55z"/>
		<path style="fill-rule:evenodd;clip-rule:evenodd;fill:#73777A;" d="M103.8,13.55c0.066,0.2-0.1,0.5-0.5,0.9
			c-0.8,0.8-2.333,1.7-4.6,2.7c-1.566,0.699-3.134,2.033-4.7,4c-1.634,2.033-2.917,3.283-3.85,3.75l-0.101-0.65
			c-0.133-0.533-0.6-1.15-1.399-1.85c-0.967-0.867-2.2-1.65-3.7-2.351c-1.101-0.5-1.566-0.95-1.4-1.35
			c0.066-0.134-0.566-0.2-1.899-0.2c-1.801,0.033-2.867,0.033-3.2,0c-0.2,0-0.75-0.15-1.65-0.45l-0.6-0.2
			c0.666-0.199,1.483-0.5,2.45-0.899c0.899-0.3,1.966-0.45,3.199-0.45h5.301c0.733,0,1.183-0.434,1.35-1.3
			c-0.267-0.134-0.45-0.283-0.55-0.45c-0.233-0.3,0.017-0.45,0.75-0.45c1.166,0,2.267,0.217,3.3,0.65c0.6,0.3,0.9,0.233,0.9-0.2
			c0-0.2-0.267-0.2-0.801,0c-0.199,0.1,0.067-0.116,0.801-0.65c0.733-0.5,1.416-1,2.05-1.5c0.399-0.2,1.184-0.3,2.35-0.3l3.65,0.1
			C102.217,13.033,103.167,13.417,103.8,13.55z"/>
		<path style="fill-rule:evenodd;clip-rule:evenodd;fill:#F7F8FA;" d="M89.15,22.9l-4.2-2.851c-1.634-0.3-3.334-0.666-5.101-1.1
			c-0.6-0.167-1.649-0.316-3.149-0.45c-1.167-0.1-2.384-0.4-3.65-0.9c-1.1-0.433-3.267-0.8-6.5-1.1
			c-2.2-0.167-2.833-0.384-1.899-0.65c2.199-0.6,5-0.6,8.399,0l1.101,0.65c0.733,0.434,2.416,0.8,5.05,1.1
			c0.566,0.134,1.35,0.217,2.35,0.25c0.8,0.034,1.566,0.167,2.3,0.4C85.184,18.717,86.95,20.267,89.15,22.9z"/>
	</g>
	<g>
		<path style="fill-rule:evenodd;clip-rule:evenodd;fill:#B5B6B8;" d="M89.15,25.3c-0.601,0.167-1.217,0.25-1.851,0.25
			c-3.833,0.101-6.934,0.184-9.3,0.25c-4.4,0.066-8.85-0.017-13.35-0.25c-3.9-0.2-7.567-0.783-11-1.75c-3.5-1-6.767-1.6-9.8-1.8
			c-0.067,0-4.4-0.2-13-0.6c-4.5-0.2-8.633-0.617-12.4-1.25c-3.633-0.567-6.417-1.367-8.35-2.4c-1.167-0.634-1.9-1.233-2.2-1.8
			l1.8,0.55c1.233,0.4,2.3,0.616,3.2,0.65c0.867,0.033,1.7,0.183,2.5,0.449c1.633,0.567,2.767,0.917,3.4,1.051
			c0.967,0.199,1.6,0.149,1.9-0.15c0.133-0.1,0.417-0.384,0.85-0.85c0.3-0.334,0.617-0.634,0.95-0.9c0.567-0.467,1.3-0.7,2.2-0.7
			h1.55l0.9,0.601c0.7,0.399,1.283,0.649,1.75,0.75c0.367,0.066,0.9,0.133,1.6,0.199c0.7,0.101,1.417,0.317,2.15,0.65
			c0.833,0.434,2,0.767,3.5,1c1.333,0.233,2.667,0.35,4,0.35c0.8,0,1.717,0.084,2.75,0.25c0.8,0.034,1.567-0.267,2.3-0.899
			c1.2-1.033,2.083-1.7,2.65-2l0.05-0.75c0.167-0.367,0.517-0.184,1.05,0.55c1.9,2.434,3.383,3.816,4.45,4.15
			c0.434,0.166,0.483,0.133,0.15-0.101l1.15,0.55c1.1,0.567,2.283,1,3.55,1.301c0.7,0.166,1.5,0.333,2.4,0.5
			c0.399,0.066,0.933,0.183,1.6,0.35c0.733,0.134,1.75,0.15,3.05,0.05c1.634-0.1,2.783-0.217,3.45-0.35
			c0.767-0.167,1.316-0.417,1.65-0.75c0.899-0.9,1.783-1.184,2.649-0.851c0.334,0.134,0.983,0.217,1.95,0.25
			c0.934,0.034,1.684,0.167,2.25,0.4L81.4,24l1.05,0.25c0.767,0.134,1.383,0.2,1.85,0.2c0.367,0,0.95-0.167,1.75-0.5
			c0.834-0.134,1.783,0.25,2.851,1.149L89.15,25.3z"/>
		<path style="fill-rule:evenodd;clip-rule:evenodd;fill:#73777A;" d="M88.55,25.65l-1.1,0.1c-3.834,0.1-6.934,0.184-9.3,0.25
			c-4.367,0.066-8.817-0.017-13.351-0.25c-3.866-0.233-7.517-0.833-10.95-1.8c-3.5-1-6.783-1.601-9.85-1.8
			c-6.033-0.267-10.35-0.467-12.95-0.601c-4.466-0.2-8.617-0.6-12.45-1.2c-3.7-0.566-6.567-1.433-8.6-2.6
			c1.3,0.267,3.017,0.566,5.15,0.9c4.1,1.066,6.667,1.366,7.7,0.899L24.4,18.9l0.8,0.1c0.7,0.1,1.466,0.283,2.3,0.55
			c0.667,0.233,0.75,0.417,0.25,0.55c-0.167,0.067,0.417,0.101,1.75,0.101c2.367,0,5.233,0.217,8.6,0.649
			c4.033,0.601,6.833,0.75,8.4,0.45l2.4-0.45l0.9,0.5c0.867,0.4,1.9,0.834,3.1,1.301c1.534,0.6,3.317,1.1,5.35,1.5
			c2.233,0.466,4.2,0.699,5.9,0.699c1.199,0,2.449,0.067,3.75,0.2c0.933,0.066,1.883-0.083,2.85-0.45c0.833-0.267,1.2-0.55,1.1-0.85
			c-0.033-0.066,0.417-0.066,1.351,0c0.967,0.066,1.6,0.05,1.899-0.05c0.134-0.033,0.45,0.05,0.95,0.25
			c1.033,0.434,2.283,0.649,3.75,0.649c1.066,0.301,2.983,0.45,5.75,0.45C86.417,25.05,87.417,25.25,88.55,25.65z"/>
	</g>
	<g>
		<path style="fill-rule:evenodd;clip-rule:evenodd;fill:#8D9296;" d="M103.35,13.4c-1,0.2-1.533,0.283-1.6,0.25
			c-0.467-0.167-1.95-0.25-4.45-0.25c-0.434,0-0.833-0.2-1.2-0.6c-0.767-0.933-1.316-1.533-1.649-1.8
			c-0.733-0.633-1.617-0.983-2.65-1.05l-1.35,0.15C89.15,9.5,88.2,9.133,87.6,9c-0.866-0.2-1.366-0.317-1.5-0.35
			c-0.633-0.267-1.233-0.733-1.8-1.4c-0.767-1.033-1.366-1.817-1.8-2.35l0.65,0.2c2.066,0.5,4.699,1.35,7.899,2.55
			c3.533,1.333,6.084,2.483,7.65,3.45C100.566,12.267,102.116,13.033,103.35,13.4z"/>
	</g>
	<g>
		<path style="fill-rule:evenodd;clip-rule:evenodd;fill:#E3E4E6;" d="M22,13.95c0.167-0.233,0.333-0.45,0.5-0.65l2.75,1.101
			c-0.3,0.3-0.883,0.566-1.75,0.8c-0.533,0.133-0.883,0.267-1.05,0.399c-0.167,0.233-0.383,0.434-0.65,0.601
			c-0.233,0.333-0.4,0.55-0.5,0.649c-0.1,0.134-0.483,0.2-1.15,0.2c-0.433,0-0.816,0.05-1.15,0.15
			c-0.167,0.033-0.583-0.017-1.25-0.15L14,16.5l0.6-0.3c0.467-0.233,0.85-0.351,1.15-0.351L18.5,15.7
			c1.867-0.134,2.833-0.351,2.9-0.65C21.433,14.783,21.633,14.417,22,13.95z"/>
		<path style="fill-rule:evenodd;clip-rule:evenodd;fill:#E3E4E6;" d="M47.85,16.75c-0.1,0.033-0.283,0.167-0.55,0.4
			c-0.4,0.5-0.683,0.85-0.85,1.05c-0.3,0.3-0.717,0.55-1.25,0.75c-0.534,0.2-1.017,0.3-1.45,0.3c-0.667,0-1.317,0-1.95,0
			c-0.8,0-1.533-0.167-2.2-0.5l-0.8-0.5l4.3-1.2c1.433-0.366,2.15-0.7,2.15-1c0.033-0.267,0.283-0.45,0.75-0.55
			c1.6,0.167,2.3,0.467,2.1,0.9C48,16.634,47.917,16.75,47.85,16.75z"/>
		
			<linearGradient id="SVGID_1_" gradientUnits="userSpaceOnUse" x1="11.4658" y1="-16.25" x2="15.201" y2="-16.25" gradientTransform="matrix(0.0736 0.9973 -0.9973 0.0736 -1.440793e-004 4.465282e-004)">
			<stop  offset="0" style="stop-color:#92979C"/>
			<stop  offset="1" style="stop-color:#E3E4E6"/>
		</linearGradient>
		<path style="fill-rule:evenodd;clip-rule:evenodd;fill:url(#SVGID_1_);" d="M18.7,12.65c-0.133,0.5-0.383,0.883-0.75,1.15
			c-0.4,0.267-0.8,0.334-1.2,0.2c-0.433-0.1-0.75-0.35-0.95-0.75c-0.2-0.433-0.233-0.9-0.1-1.4c0.133-0.467,0.383-0.833,0.75-1.1
			c0.4-0.267,0.8-0.35,1.2-0.25c0.434,0.1,0.75,0.367,0.95,0.8C18.8,11.733,18.833,12.183,18.7,12.65z"/>
		
			<linearGradient id="SVGID_2_" gradientUnits="userSpaceOnUse" x1="13.1807" y1="-13.4453" x2="15.6318" y2="-13.4453" gradientTransform="matrix(-0.0336 0.9994 -0.9994 -0.0336 5.889088e-004 -2.009124e-004)">
			<stop  offset="0" style="stop-color:#92979C"/>
			<stop  offset="1" style="stop-color:#E3E4E6"/>
		</linearGradient>
		<path style="fill-rule:evenodd;clip-rule:evenodd;fill:url(#SVGID_2_);" d="M13.9,15.35c-0.133,0.334-0.333,0.584-0.6,0.75
			c-0.3,0.167-0.583,0.2-0.85,0.101c-0.233-0.101-0.4-0.3-0.5-0.601c-0.1-0.3-0.083-0.633,0.05-1c0.133-0.333,0.333-0.6,0.6-0.8
			c0.267-0.167,0.533-0.2,0.8-0.1c0.267,0.1,0.45,0.316,0.55,0.649C14.05,14.65,14.033,14.983,13.9,15.35z"/>
		
			<linearGradient id="SVGID_3_" gradientUnits="userSpaceOnUse" x1="22.5161" y1="-32.127" x2="25.9926" y2="-32.127" gradientTransform="matrix(0.209 0.9779 -0.9779 0.209 -2.992451e-004 -3.805757e-004)">
			<stop  offset="0" style="stop-color:#92979C"/>
			<stop  offset="1" style="stop-color:#E3E4E6"/>
		</linearGradient>
		<path style="fill-rule:evenodd;clip-rule:evenodd;fill:url(#SVGID_3_);" d="M37.95,17.3c-0.067,0.467-0.267,0.851-0.6,1.15
			c-0.3,0.333-0.65,0.467-1.05,0.399c-0.4-0.033-0.716-0.25-0.95-0.649c-0.233-0.367-0.333-0.783-0.3-1.25
			c0.067-0.467,0.267-0.851,0.6-1.15c0.3-0.3,0.65-0.434,1.05-0.399c0.4,0.033,0.716,0.233,0.95,0.6
			C37.917,16.4,38.017,16.833,37.95,17.3z"/>
		
			<linearGradient id="SVGID_4_" gradientUnits="userSpaceOnUse" x1="26.0371" y1="-55.0244" x2="30.2624" y2="-55.0244" gradientTransform="matrix(0.1538 0.9881 -0.9881 0.1538 3.584623e-004 7.802248e-005)">
			<stop  offset="0" style="stop-color:#92979C"/>
			<stop  offset="1" style="stop-color:#E3E4E6"/>
		</linearGradient>
		<path style="fill-rule:evenodd;clip-rule:evenodd;fill:url(#SVGID_4_);" d="M60.45,19.8c-0.101,0.566-0.351,1.017-0.75,1.351
			c-0.4,0.333-0.834,0.449-1.3,0.35c-0.5-0.066-0.884-0.333-1.15-0.8c-0.267-0.434-0.35-0.934-0.25-1.5s0.35-1.017,0.75-1.351
			c0.434-0.333,0.884-0.466,1.35-0.399c0.467,0.1,0.834,0.383,1.101,0.85S60.55,19.267,60.45,19.8z"/>
		
			<linearGradient id="SVGID_5_" gradientUnits="userSpaceOnUse" x1="35.5591" y1="-56.6621" x2="39.2954" y2="-56.6621" gradientTransform="matrix(0.2676 0.9635 -0.9635 0.2676 1.072288e-004 -3.692508e-004)">
			<stop  offset="0" style="stop-color:#92979C"/>
			<stop  offset="1" style="stop-color:#E3E4E6"/>
		</linearGradient>
		<path style="fill-rule:evenodd;clip-rule:evenodd;fill:url(#SVGID_5_);" d="M66.2,21.15c-0.033,0.5-0.2,0.916-0.5,1.25
			c-0.334,0.333-0.717,0.483-1.15,0.449c-0.434-0.033-0.783-0.233-1.05-0.6c-0.3-0.366-0.434-0.8-0.4-1.3
			c0.034-0.5,0.217-0.917,0.551-1.25c0.3-0.367,0.666-0.533,1.1-0.5s0.783,0.233,1.05,0.6C66.1,20.167,66.233,20.616,66.2,21.15z"/>
	</g>
	<g>
		
			<use xlink:href="#flash0.ai_x5F_5_x2F_Layer_64_x2F__x3C_Path_x3E__x5F_1_x5F_0"  width="12.602" height="12.693" x="0.048" y="-12.7" transform="matrix(1 0 0 -1 -0.0498 9.8999)" style="overflow:visible;opacity:0.0781;enable-background:new    ;"/>
		
			<use xlink:href="#flash0.ai_x5F_5_x2F_Layer_64_x2F__x3C_Path_x3E__x5F_0"  width="21.8" height="15.74" y="-15.74" transform="matrix(1 0 0 -1 86.4502 12.1001)" style="overflow:visible;opacity:0.0781;enable-background:new    ;"/>
	</g>
</g>
</svg>
