<?xml version="1.0" encoding="iso-8859-1"?>
<!-- Generator: Adobe Illustrator 15.1.0, SVG Export Plug-In . SVG Version: 6.00 Build 0)  -->
<!DOCTYPE svg PUBLIC "-//W3C//DTD SVG 1.1//EN" "http://www.w3.org/Graphics/SVG/1.1/DTD/svg11.dtd">
<svg version="1.1" id="flash0.ai" xmlns="http://www.w3.org/2000/svg" xmlns:xlink="http://www.w3.org/1999/xlink" x="0px" y="0px"
	 width="113.45px" height="56.95px" viewBox="0 0 113.45 56.95" style="enable-background:new 0 0 113.45 56.95;"
	 xml:space="preserve">
<symbol  id="flash0.ai_x5F_30_x2F_Layer_148_x2F__x3C_Path_x3E_" viewBox="0 -34.332 113.463 34.309">
	<g id="Layer_1_2_">
		<path style="fill-rule:evenodd;clip-rule:evenodd;" d="M101.3-14.75c1.7,0.067,2.6,0.067,2.7,0c0.5-0.333,1.817-0.75,3.95-1.25
			c2.066-0.5,3.533-0.75,4.4-0.75c0.7,0,1.066-0.567,1.1-1.7c0.033-0.533,0-1.083-0.1-1.65l-6.65-2.65
			c-1.833-0.733-2.95-1.5-3.35-2.3c-0.567-1.233-1.35-2.25-2.35-3.05c-1.533-1.267-2.483-1.983-2.85-2.15L98-30.1
			c-3.1-0.233-5.867-0.783-8.3-1.65c-1.233-0.467-1.733-0.7-1.5-0.7c0.667-0.1,0.833-0.433,0.5-1c-0.434-0.7-1.267-0.983-2.5-0.85
			c-2.233,0.333-4.4,0.617-6.5,0.85c-2.067,0.2-3.45,0.517-4.15,0.95c-0.633,0.367-2.033,0.617-4.2,0.75
			c-2.667,0.133-4.233,0.217-4.7,0.25s-1.783,0.05-3.95,0.05c-2.667,0-4.317,0.034-4.95,0.1c-0.6,0.033-1.4,0.233-2.4,0.6
			c-0.767,0.267-1.5,0.333-2.2,0.2c-1.8-0.333-2.95-0.517-3.45-0.55c-1.667-0.167-3-0.133-4,0.1c-0.133,0.033-2.133,0.667-6,1.9
			c-2.5,0.767-4.3,1.45-5.4,2.05c-1.367,0.733-2.233,1.167-2.6,1.3c-1.034,0.4-1.817,0.583-2.35,0.55c-1.033,0-1.817,0.034-2.35,0.1
			c-1.933,0.267-3,0.417-3.2,0.45c-1.066,0.3-2.55,1.033-4.45,2.2c-1.533,0.934-4.4,2.217-8.6,3.85C6.783-17,4.433-15.95,3.7-15.45
			c-1.567,1.1-2.8,1.767-3.7,2c0.9,0.667,2.017,1.117,3.35,1.35c0.667,0.1,1,0.733,1,1.9c0,1.5,0.333,2.65,1,3.45
			c2.233,0.833,4.816,1.717,7.75,2.65C19-2.2,23.75-0.983,27.35-0.45c3.367,0.534,5.9,0.567,7.6,0.1c3.1-0.833,5.233-1.3,6.4-1.4
			c2.667-0.267,6.15-1.367,10.45-3.3c4.934-2.167,8-3.4,9.2-3.7C63.067-9.283,66.417-9.7,71.05-10c5.4-0.367,8.5-0.617,9.3-0.75
			c1.433-0.233,3.8-0.483,7.1-0.75c3.1-0.333,5.733-0.983,7.9-1.95C97.45-14.383,99.433-14.817,101.3-14.75z"/>
	</g>
</symbol>
<g>
	<g>
		
			<use xlink:href="#flash0.ai_x5F_30_x2F_Layer_148_x2F__x3C_Path_x3E_"  width="113.463" height="34.309" y="-34.332" transform="matrix(1 0 0 -1 0 22.6001)" style="overflow:visible;opacity:0.1406;enable-background:new    ;"/>
	</g>
	<g>
		
			<radialGradient id="SVGID_1_" cx="-57.9365" cy="56.5977" r="61.3695" gradientTransform="matrix(0.0381 -0.9993 -0.9993 -0.0381 113.1127 4.3119)" gradientUnits="userSpaceOnUse">
			<stop  offset="0.0235" style="stop-color:#4FB395"/>
			<stop  offset="0.2471" style="stop-color:#53B598"/>
			<stop  offset="0.4706" style="stop-color:#5FBDA1"/>
			<stop  offset="0.698" style="stop-color:#74C9AF"/>
			<stop  offset="0.9255" style="stop-color:#90DAC3"/>
			<stop  offset="0.9765" style="stop-color:#97DEC8"/>
		</radialGradient>
		<path style="fill-rule:evenodd;clip-rule:evenodd;fill:url(#SVGID_1_);" d="M95.6,49.4c-2.466,2.333-5.333,3.433-8.6,3.3
			c-6.634-0.3-10.967-0.517-13-0.65c-5-0.399-8.667-0.967-11-1.7c-4.934-1.533-9.933-2.3-15-2.3c-2.167,0-6.983-1.033-14.45-3.1
			c-5.566-1.533-10.633-3.066-15.2-4.601c-2.5-0.833-5.083-2.083-7.75-3.75l-3.25-2.25c0.267-0.433,0.633-1.35,1.1-2.75
			c0.867-2.766,1.716-6.516,2.55-11.25c0.867-4.8,1.85-8.133,2.95-10c0.667-1.033,1.583-2.033,2.75-3l1.65-2h1.95
			c1.767-0.2,3.9-0.867,6.4-2c3.033-1.333,5.6-2.25,7.7-2.75c2.133-0.533,4.117-0.717,5.95-0.55C40.717,0.083,42.667,0.067,46.2,0
			c2.433-0.067,4.367,0.167,5.8,0.7c1.067,0.4,1.983,0.6,2.75,0.6C56.083,1.267,58.5,1.617,62,2.35
			c5.066,1.033,8.934,2.117,11.6,3.25c3,1.267,6.034,3.183,9.101,5.75c2.1,1.8,4.684,4.05,7.75,6.75
			c2.399,1.933,4.816,3.25,7.25,3.95c3.767,1.1,6.533,1.983,8.3,2.65l-0.25,2.05c-0.1,1.733-0.017,3.5,0.25,5.3
			c0.467,2.867,0.8,5.417,1,7.65c-3.533,2.899-5.967,4.684-7.3,5.35C98.267,46.717,96.9,48.167,95.6,49.4z"/>
		<path style="fill-rule:evenodd;clip-rule:evenodd;fill:#AFEDD9;" d="M82.3,11.05c-0.066,4.333,0.066,7.767,0.4,10.3
			c0.267,2-0.9,3.717-3.5,5.15c-3.566,2-5.4,3.066-5.5,3.2c-0.834,0.967-3.2,2.133-7.101,3.5c-4.166,1.333-6.699,2.166-7.6,2.5
			c-1.1,0.434-3.2,0.95-6.3,1.55l-4.35,0.8L47,34.35c2-2,4.333-4.1,7-6.3c1.6-1.333,4.033-2.25,7.3-2.75
			c1.767-0.233,4.117-0.55,7.05-0.95c1.534-0.4,2.267-2.017,2.2-4.85L70,15.35l-3.65-0.3l-2-1.35c-0.833-0.567-2.983-0.9-6.449-1
			c-3.567,0-5.634,0-6.2,0c-1.167,0-5.617,0.216-13.35,0.65c-1.9,0.133-4.033-0.05-6.4-0.55c-2.9-0.633-5.434-1-7.6-1.1
			c-3.7-0.2-5.617-0.3-5.75-0.3c-0.667,0.133-1.4,0.434-2.2,0.9c-1.333,0.7-2.133,1.5-2.4,2.4c-0.233,0.833-1.1,2-2.6,3.5
			c0.8-3.867,1.717-6.567,2.75-8.1c0.6-0.9,1.45-1.817,2.55-2.75l1.65-2h1.95c1.767-0.2,3.9-0.867,6.4-2
			C32.067,0.983,36.417-0.133,39.75,0c-2.1,0.3-3.867,0.85-5.3,1.65c-1.5,1.067-2.75,1.867-3.75,2.4c-2.467,1.333-5.367,2.333-8.7,3
			l1,1c0.367,0.367,1.567,0.65,3.6,0.85c2.967,0.333,5.333,0.717,7.1,1.15c2.3,0.534,4.35,0.75,6.15,0.65
			c1.066-0.067,2.783-0.184,5.15-0.35c1.4,0,3.433-0.05,6.1-0.15c2.667-0.1,4.867-0.15,6.6-0.15c1.434,0,4.166-0.15,8.2-0.45
			c3.5-0.267,5.983-0.35,7.449-0.25C73.684,9.383,74.866,9.1,76.9,8.5c1.3-0.4,2.483-0.033,3.55,1.1L82.3,11.05z"/>
		<path style="fill-rule:evenodd;clip-rule:evenodd;fill:#50AB90;" d="M90.7,18.7c-1.4,1.267-3.101,3.2-5.101,5.8L83,28.05l3.55,0.4
			c2.634,0.233,4.566,0.2,5.8-0.1c1-0.2,1.967-0.35,2.9-0.45c0.667-0.133,1.483-0.533,2.45-1.2c1.267-0.9,2.483-1.517,3.649-1.85
			c1.4-0.4,2.95-0.45,4.65-0.15l-0.25,2.05c-0.1,1.733-0.017,3.5,0.25,5.3c0.467,2.867,0.8,5.417,1,7.65
			c-3.533,2.899-5.967,4.684-7.3,5.35c-1.434,1.667-2.8,3.117-4.101,4.351c-2.466,2.333-5.333,3.433-8.6,3.3
			c-6.634-0.3-10.967-0.517-13-0.65c-5-0.399-8.667-0.967-11-1.7c-4.934-1.533-9.933-2.3-15-2.3c-2.167,0-6.983-1.033-14.45-3.1
			c-5.566-1.533-10.633-3.066-15.2-4.601c-2.5-0.833-5.083-2.083-7.75-3.75l-3.25-2.25c0.4-0.666,0.917-2.133,1.55-4.399
			c1.367,1.767,3.4,2.899,6.1,3.399c2.533,0.5,4.85,0.75,6.95,0.75c2.133,0,3.6,0.084,4.4,0.25c0.7,0.134,2.517,0.834,5.45,2.101
			c2.5,1.066,4.567,1.6,6.2,1.6c0.467,0,2.767,0.384,6.9,1.15c2.434,0.434,3.583,0.05,3.45-1.15c-0.333-1.566-0.467-2.566-0.4-3
			c0.133-0.6,0.933-1.267,2.4-2c0.5-0.267,2.066-1.416,4.7-3.45c2-1.533,3.983-2.5,5.95-2.899c3.333-0.667,6.116-0.784,8.35-0.35
			c0.733-2.033,1.483-4.133,2.25-6.3c1.534-4.333,2.45-6.783,2.75-7.35c0.101-0.233-0.466-0.517-1.699-0.85
			c-0.7-0.167,0.316-0.767,3.05-1.8l3.399-1.4c1.167,0.8,2.367,1.7,3.601,2.7c0.633,0.533,2.133,1.85,4.5,3.95
			c1.566,1.4,2.816,2.45,3.75,3.15L90.7,18.7z"/>
		<path style="fill-rule:evenodd;clip-rule:evenodd;fill:#459980;" d="M84.35,24.05l2-1.7c-0.3,0.433-0.649,0.983-1.05,1.65
			c-0.833,1.333-1.5,2.533-2,3.6L83,28.05h0.1c-0.5,1.233-0.75,2.233-0.75,3c0,1-0.017,1.934-0.05,2.8
			c0.066,0.434,0.533,0.934,1.4,1.5c0.666,0.467,1.25,0.851,1.75,1.15c0.333,0.233,1.083,0.85,2.25,1.85
			c0.899,0.801,1.85,1.917,2.85,3.351c0.733,0.8,1.45,0.583,2.15-0.65c0.333-0.6,0.934-1.483,1.8-2.649
			c0.434-0.534,0.717-1.317,0.85-2.351l0.65-4l1.9,0.3c1.333,0.267,2.149,0.601,2.449,1c0.233,0.334,0.217,0.5-0.05,0.5
			c-0.066,0,0.167,0.167,0.7,0.5c0.434,0.267,1.25,0.233,2.45-0.1c1.3-0.366,2.25-0.467,2.85-0.3l0.7,5.75
			c-3.533,2.899-5.967,4.684-7.3,5.35c-1.434,1.667-2.8,3.117-4.101,4.351c-2.466,2.333-5.333,3.433-8.6,3.3
			c-6.634-0.3-10.967-0.517-13-0.65c-5-0.399-8.667-0.967-11-1.7c-4.934-1.533-9.933-2.3-15-2.3c-2.167,0-6.983-1.033-14.45-3.1
			c-5.566-1.533-10.633-3.066-15.2-4.601c-0.967-0.3-2.367-0.866-4.2-1.699c0.733-0.067,1.733-0.184,3-0.351
			c1-0.166,1.733-0.25,2.2-0.25c1.566,0,3.45,0.434,5.65,1.3l5.15,1.15c3.6,0.9,5.883,1.634,6.85,2.2c2,1.166,3.583,1.95,4.75,2.35
			c2.233,0.8,4.217,0.9,5.95,0.3c1.667-0.533,3.05-1.25,4.15-2.149c0.566-0.434,0.95-0.816,1.15-1.15l0.65,0.851
			c0.6,0.633,1.383,1.017,2.35,1.149c2.033,0.267,3.35,0.384,3.95,0.351c1.434-0.034,2.233-0.483,2.399-1.351
			c0.467-2.7,1.134-4.483,2-5.35c0.233-0.233,1.4-0.55,3.5-0.95c1.967-0.366,3.134-0.934,3.5-1.7c0.434-0.833,1.4-1.633,2.9-2.399
			c0.733-0.4,1.434-0.717,2.1-0.95l3.25-3.2C81.934,26.233,83.517,24.75,84.35,24.05z"/>
		<path style="fill-rule:evenodd;clip-rule:evenodd;fill:#86D4BC;" d="M17.625,22.175c2.831-0.858,5.739-1.566,8.725-2.125
			c3.533-0.667,5.533-0.9,6-0.7c8,0.667,11,1.333,9,2l-5,1.7c-2.233,0-6.35-0.233-12.35-0.7
			C21.109,22.144,18.984,22.085,17.625,22.175C17.084,22.346,16.542,22.521,16,22.7l0.65-0.4
			C16.914,22.247,17.238,22.206,17.625,22.175z"/>
		<path style="fill-rule:evenodd;clip-rule:evenodd;fill:#86D4BC;" d="M45.35,27.35c0.566-0.2,1.667-1,3.3-2.4
			c1.833-1.267,3.733-1.9,5.7-1.9c1.533,0,6.2,0.434,14,1.3c-1.333,0.467-3.216,0.7-5.649,0.7c-3.033,0-5.934,1-8.7,3
			c-1.367,0.9-2.35,1.55-2.95,1.95c-0.966,0.7-1.867,1.6-2.7,2.7c-0.833,1.1-1.967,2.1-3.4,3l-1.95,1
			c-0.433-2.434-0.433-4.316,0-5.65l0.8-2.35C44.1,28.1,44.617,27.65,45.35,27.35z"/>
	</g>
</g>
</svg>
