<?xml version="1.0" encoding="iso-8859-1"?>
<!-- Generator: Adobe Illustrator 15.1.0, SVG Export Plug-In . SVG Version: 6.00 Build 0)  -->
<!DOCTYPE svg PUBLIC "-//W3C//DTD SVG 1.1//EN" "http://www.w3.org/Graphics/SVG/1.1/DTD/svg11.dtd">
<svg version="1.1" id="flash0.ai" xmlns="http://www.w3.org/2000/svg" xmlns:xlink="http://www.w3.org/1999/xlink" x="0px" y="0px"
	 width="61.6px" height="41.9px" viewBox="0 0 61.6 41.9" style="enable-background:new 0 0 61.6 41.9;" xml:space="preserve">
<symbol  id="flash0.ai_x5F_11_x2F_Layer_64_x2F__x3C_Path_x3E__x5F_9" viewBox="-0.07 -16.03 61.628 16.055">
	<g id="Layer_1_2_">
		<path style="fill-rule:evenodd;clip-rule:evenodd;" d="M61.3-7.35c0.467-0.233,0.3-0.517-0.5-0.85l-2.65-1
			c-0.433-0.167-0.783-0.45-1.05-0.85c-0.233-0.367-0.55-0.583-0.95-0.65c-0.433-0.066-0.783-0.15-1.05-0.25
			c-0.367-0.1-0.684-0.183-0.95-0.25c-0.4-0.066-0.833-0.333-1.3-0.8l-0.55-0.7l-2.5-0.5c-1.033-0.2-2.066-0.233-3.1-0.1L45.5-13
			c-1.233-0.467-3.017-1.033-5.35-1.7c-1.233-0.367-1.867-0.617-1.9-0.75c0-0.1-0.417-0.233-1.25-0.4
			c-1.067-0.2-2.15-0.233-3.25-0.1c-1.6,0.167-2.517,0.25-2.75,0.25c-1.667-0.1-2.9-0.15-3.7-0.15h-5.15
			c-1.167,0-2.1,0.083-2.8,0.25c-0.167,0.033-0.9,0.283-2.2,0.75c-0.667,0.233-1.517,0.667-2.55,1.3
			c-1.033,0.667-1.733,1.066-2.1,1.2L8.8-11c-0.933,0.333-1.5,0.733-1.7,1.2C6.967-9.433,6.483-9.167,5.65-9L3.3-7.35l-2,0.5L1-5.5
			c0.2,0.767-0.033,1.15-0.7,1.15c-0.667,0-0.433,0.217,0.7,0.65c1,0.567,1.717,0.9,2.15,1C3.417-2.633,3.533-2.45,3.5-2.15
			c-0.033,0.433-0.033,0.7,0,0.8C3.567-1.15,4.183-1,5.35-0.9c0.6,0.066,1.417,0.133,2.45,0.2c0.367,0.067,1.817,0.133,4.35,0.2
			C15.583-0.4,18.2-0.3,20-0.2C23.3,0,27.733,0.067,33.3,0c6.4-0.1,11.733-0.383,16-0.85c3.867-0.4,5.967-0.667,6.3-0.8
			c0.267-0.1,0.633-0.3,1.1-0.6c0.966-0.333,1.683-0.667,2.15-1c0.933-0.733,1.483-1.15,1.65-1.25c0.7-0.467,0.967-0.75,0.8-0.85
			c-0.433-0.3-0.65-0.467-0.65-0.5C60.483-6.517,60.7-7.017,61.3-7.35z"/>
	</g>
</symbol>
<use xlink:href="#flash0.ai_x5F_11_x2F_Layer_64_x2F__x3C_Path_x3E__x5F_9"  width="61.628" height="16.055" x="-0.07" y="-16.03" transform="matrix(1 0 0 -1 0.0498 25.8496)" style="overflow:visible;opacity:0.1406;enable-background:new    ;"/>
<path style="fill-rule:evenodd;clip-rule:evenodd;fill:#B0B1B3;" d="M41.45,37.9C35.083,39.1,30.667,39.8,28.2,40
	c-3.167,0.267-5.55,0-7.15-0.8c-0.8-0.4-2.733-1.434-5.8-3.101c-2.433-1.3-4.05-2.116-4.85-2.449
	c-0.867-0.367-2.183-1.184-3.95-2.45l-2.4-1.8L8.3,23.85c1.233-2.666,3.383-6.149,6.45-10.45c2.933-4.2,5.167-6.95,6.7-8.25
	c1.833-1.566,3.733-2.816,5.7-3.75c2.4-1.2,4.183-1.5,5.35-0.9c1.167,0.567,3.267,2.05,6.3,4.45c2.434,1.933,4.733,3.85,6.9,5.75
	c1.733,1.5,3.85,4.183,6.35,8.05c2.533,3.967,4.101,7.083,4.7,9.35l1.3,4.7c-0.833,0.5-2.166,1.084-4,1.75
	C50.45,35.917,46.25,37.033,41.45,37.9z"/>
<path style="fill-rule:evenodd;clip-rule:evenodd;fill:#9B9C9E;" d="M58.05,32.8c-0.833,0.5-2.166,1.084-4,1.75
	c-3.6,1.367-7.8,2.483-12.6,3.351C35.083,39.1,30.667,39.8,28.2,40c-3.167,0.267-5.55,0-7.15-0.8c-0.8-0.4-2.733-1.434-5.8-3.101
	c-2.433-1.3-4.05-2.116-4.85-2.449c-0.767-0.334-1.8-0.934-3.1-1.801c6.1,0.5,9.684,0.301,10.75-0.6c0.367-0.3,1.117-1.1,2.25-2.4
	c0.833-0.933,1.583-1.55,2.25-1.85c1.1-0.467,2.517-1.783,4.25-3.95c2-2.5,3.167-4.767,3.5-6.8c0.134-0.733,0.2-2.35,0.2-4.85
	c0-1.1,0.434-1.9,1.3-2.4c0.5-0.267,1.566-0.95,3.2-2.05c1.8-0.867,3.733-1,5.8-0.4l4.9,4.15c1.733,1.5,3.85,4.183,6.35,8.05
	c2.533,3.967,4.101,7.083,4.7,9.35L58.05,32.8z"/>
<path style="fill-rule:evenodd;clip-rule:evenodd;fill:#C3C4C7;" d="M31.55,0l1.3,0.3c1.034,0.333,2.017,0.817,2.95,1.45
	c1.5,1,3.5,2.75,6,5.25c-1.8-0.233-3-0.367-3.6-0.4c-0.2,0-0.834,0.05-1.9,0.15c-0.899,0.1-1.717,0.383-2.45,0.85
	C33.083,8.2,32.4,8.667,31.8,9c-0.666,0.367-0.816,1.233-0.45,2.6c0.534,1.933,0.767,3.233,0.7,3.9c-0.1,1.133-0.967,2.7-2.6,4.7
	c-0.833,1.066-1.883,2.333-3.15,3.8c-1.066,1.6-1.683,2.5-1.85,2.7c-1.267,1.333-3.4,2.85-6.4,4.55c-2.9,1.667-5.733,2.134-8.5,1.4
	L6.3,31c4,0.333,7.167,0.333,9.5,0c1.6-0.233,3.233-0.967,4.9-2.2c1.333-1,2.533-2.184,3.6-3.55c1.1-1.434,2.6-3.767,4.5-7
	c0.733-1.267,0.983-2.617,0.75-4.05c-0.4-1.367-0.65-2.267-0.75-2.7c-0.066-0.967-0.216-1.733-0.45-2.3
	c-0.367-1.067-1.133-1.967-2.3-2.7c-1.167-0.733-2.1-0.933-2.8-0.6c-0.8,0.667-1.533,1.2-2.2,1.6C20.25,8,19.233,8.933,18,10.3
	c-3.033,3.367-4.683,5.184-4.95,5.45c0.467-0.867,1.167-1.967,2.1-3.3c1.833-2.633,3.934-5.067,6.3-7.3s4.767-3.767,7.2-4.6
	C29.85,0.15,30.816-0.033,31.55,0z"/>
<path style="fill-rule:evenodd;clip-rule:evenodd;fill:#C3C4C7;" d="M21.2,18c0.533,0.033,1.7,0.267,3.5,0.7
	c-1.767,0.667-3.383,1-4.85,1c-0.867,0-1.5,0.15-1.9,0.45c-0.333,0.4-0.633,0.684-0.9,0.85c-0.566,0.333-1.733,0.833-3.5,1.5
	c0.434-0.434,1.15-1.316,2.15-2.65c0.633-0.833,1.25-1.317,1.85-1.45c0.333-0.1,0.934-0.167,1.8-0.2
	C20.117,18.033,20.733,17.967,21.2,18z"/>
<path style="fill-rule:evenodd;clip-rule:evenodd;fill:#8D8D8F;" d="M43.7,17.7l1.8,0.75c1.233,0.667,1.917,1.417,2.05,2.25
	c0.134,0.8,0.167,1.3,0.101,1.5c-0.167,0.633-0.267,1.017-0.301,1.149c-0.066,0.601,0.184,1.217,0.75,1.851
	c0.801,0.899,1.217,1.399,1.25,1.5c0.2,0.399-0.199,0.583-1.199,0.55c-4.067-0.134-6.167-0.2-6.301-0.2c-1.433,0-2.699,0-3.8,0
	c-0.7,0-1.7,0.334-3,1l-1.7,1L35.95,25.9c0.934-1,1.967-1.733,3.1-2.2c1.134-0.5,1.8-0.9,2-1.2c0.167-0.2,0.384-0.634,0.65-1.3
	c0.166-0.267,0.5-0.867,1-1.8C43.033,18.7,43.366,18.133,43.7,17.7z"/>
<path style="fill-rule:evenodd;clip-rule:evenodd;fill:#838485;" d="M44.3,32.25c1.667,0.167,3.167,0.25,4.5,0.25l0.4,0.05
	c0.5,0,1.366-0.1,2.6-0.3c0.767-0.1,1.816-0.083,3.15,0.05c1.233,0.167,2.217,0.184,2.95,0.05l0.149,0.45
	c-0.833,0.5-2.166,1.084-4,1.75c-3.6,1.367-7.8,2.483-12.6,3.351C35.083,39.1,30.667,39.8,28.2,40c-3.167,0.267-5.55,0-7.15-0.8
	c-0.8-0.4-2.733-1.434-5.8-3.101c-2.433-1.3-4.05-2.116-4.85-2.449c2.267,0.666,4.783,1.083,7.55,1.25c2.466,0.133,4,0.333,4.6,0.6
	c0.767,0.333,1.417,0.717,1.95,1.15c0.467,0.199,1.317,0.149,2.55-0.15c3.334-0.833,5.25-1.333,5.75-1.5
	c0.767-0.233,1.733-0.5,2.9-0.8c0.866-0.233,1.399-0.55,1.6-0.95c0.233-0.467,0.667-0.833,1.3-1.1c0.534-0.267,1.017-0.4,1.45-0.4
	C40.55,31.75,41.967,31.917,44.3,32.25z"/>
<linearGradient id="SVGID_1_" gradientUnits="userSpaceOnUse" x1="3.2256" y1="-25.2227" x2="8.2266" y2="-25.2227" gradientTransform="matrix(-0.2 0.9798 -0.9798 -0.2 9.528995e-004 -1.370907e-004)">
	<stop  offset="0" style="stop-color:#9BA1A6"/>
	<stop  offset="1" style="stop-color:#B7B8B8"/>
</linearGradient>
<path style="fill-rule:evenodd;clip-rule:evenodd;fill:url(#SVGID_1_);" d="M25.35,11.45c-0.2,0.7-0.567,1.25-1.1,1.65
	c-0.5,0.367-1.017,0.467-1.55,0.3c-0.5-0.133-0.85-0.517-1.05-1.15c-0.2-0.6-0.183-1.25,0.05-1.95c0.2-0.733,0.566-1.283,1.1-1.65
	c0.5-0.4,1.017-0.517,1.55-0.35c0.5,0.167,0.85,0.55,1.05,1.15C25.6,10.05,25.583,10.717,25.35,11.45z"/>
<linearGradient id="SVGID_2_" gradientUnits="userSpaceOnUse" x1="18.5669" y1="-19.4707" x2="23.5735" y2="-19.4707" gradientTransform="matrix(-0.3445 0.9388 -0.9388 -0.3445 5.358458e-004 1.828074e-004)">
	<stop  offset="0" style="stop-color:#9BA1A6"/>
	<stop  offset="1" style="stop-color:#B7B8B8"/>
</linearGradient>
<path style="fill-rule:evenodd;clip-rule:evenodd;fill:url(#SVGID_2_);" d="M12.35,27.35c-0.333,0.667-0.75,1.167-1.25,1.5
	c-0.5,0.334-0.934,0.417-1.3,0.25C9.4,28.9,9.183,28.5,9.15,27.9C9.083,27.3,9.217,26.667,9.55,26c0.333-0.667,0.75-1.167,1.25-1.5
	s0.95-0.417,1.35-0.25c0.367,0.2,0.583,0.6,0.65,1.2C12.833,26.05,12.683,26.684,12.35,27.35z"/>
<linearGradient id="SVGID_3_" gradientUnits="userSpaceOnUse" x1="15.313" y1="-25.9878" x2="20.3036" y2="-25.9878" gradientTransform="matrix(-0.2555 0.9668 -0.9668 -0.2555 -4.059076e-005 3.793836e-005)">
	<stop  offset="0" style="stop-color:#9BA1A6"/>
	<stop  offset="1" style="stop-color:#B7B8B8"/>
</linearGradient>
<path style="fill-rule:evenodd;clip-rule:evenodd;fill:url(#SVGID_3_);" d="M22.35,24.7c-0.267,0.7-0.667,1.233-1.2,1.6
	c-0.533,0.334-1.05,0.417-1.55,0.25c-0.5-0.2-0.833-0.6-1-1.2c-0.167-0.633-0.133-1.3,0.1-2c0.267-0.699,0.667-1.233,1.2-1.6
	c0.533-0.333,1.05-0.417,1.55-0.25c0.5,0.2,0.833,0.616,1,1.25C22.65,23.35,22.617,24,22.35,24.7z"/>
</svg>
