<?xml version="1.0" encoding="iso-8859-1"?>
<!-- Generator: Adobe Illustrator 15.1.0, SVG Export Plug-In . SVG Version: 6.00 Build 0)  -->
<!DOCTYPE svg PUBLIC "-//W3C//DTD SVG 1.1//EN" "http://www.w3.org/Graphics/SVG/1.1/DTD/svg11.dtd">
<svg version="1.1" id="flash0.ai" xmlns="http://www.w3.org/2000/svg" xmlns:xlink="http://www.w3.org/1999/xlink" x="0px" y="0px"
	 width="51.65px" height="39.45px" viewBox="0 0 51.65 39.45" style="enable-background:new 0 0 51.65 39.45;" xml:space="preserve"
	>
<symbol  id="flash0.ai_x5F_33_x2F_Layer_148_x2F__x3C_Path_x3E__x5F_3" viewBox="0 -13.591 51.65 13.591">
	<g id="Layer_1_2_">
		<path style="fill-rule:evenodd;clip-rule:evenodd;" d="M45.7,0c0.367,0,1.133-0.217,2.3-0.65c1.767-0.667,2.983-1.333,3.65-2
			l-0.3-2C50.217-5.983,49.433-7.1,49-8c-0.433-0.867-0.983-1.3-1.65-1.3L45-11.65H25.65c-0.9,0-1.833-0.2-2.8-0.6
			c-1.533-0.6-2.483-0.95-2.85-1.05c-0.933-0.267-2.033-0.35-3.3-0.25c-1.367,0.167-2.383,0.25-3.05,0.25
			c-1.167,0-2.033,0.05-2.6,0.15C10.217-12.983,9.2-12.6,8-12c-1.767,0.9-4.433,1.8-8,2.7c2.233,1.533,3.783,2.533,4.65,3
			c1.3,0.767,2.533,1.466,3.7,2.1C10.583-2.967,12.8-2,15-1.3c2.133,0.667,4.95,1,8.45,1c8.533,0,12.933,0,13.2,0
			C40.55-0.2,43.567-0.1,45.7,0z"/>
	</g>
</symbol>
<g>
	
		<use xlink:href="#flash0.ai_x5F_33_x2F_Layer_148_x2F__x3C_Path_x3E__x5F_3"  width="51.65" height="13.591" y="-13.591" transform="matrix(1 0 0 -1 0 25.8496)" style="overflow:visible;opacity:0.1406;enable-background:new    ;"/>
	
		<radialGradient id="SVGID_1_" cx="-40.3452" cy="28.3076" r="38.3432" gradientTransform="matrix(-0.0173 -0.9999 -0.9999 0.0173 56.6066 -0.9782)" gradientUnits="userSpaceOnUse">
		<stop  offset="0.0235" style="stop-color:#74DEBE"/>
		<stop  offset="0.2353" style="stop-color:#78E0C0"/>
		<stop  offset="0.451" style="stop-color:#84E5C8"/>
		<stop  offset="0.6627" style="stop-color:#99EDD3"/>
		<stop  offset="0.8784" style="stop-color:#B5F9E4"/>
		<stop  offset="0.9765" style="stop-color:#C4FFED"/>
	</radialGradient>
	<path style="fill-rule:evenodd;clip-rule:evenodd;fill:url(#SVGID_1_);" d="M48,29.15l-2.35,5.699c-2.667,0.667-5.667,1-9,1
		c-2,0-3.551-0.05-4.65-0.149l-1.65-0.2c-0.533,0-1.566,0.066-3.1,0.2c-1.6,0.166-2.8,0.316-3.6,0.45
		c-1.1,0.399-2.083,0.683-2.95,0.85c-1.567,0.333-3.467,0.283-5.7-0.15c-3.567-0.666-6.567-1-9-1l1.35-4.35
		c1.1-3.1,2.1-5.217,3-6.35c1.033-1.301,1.683-2.067,1.95-2.301c1.133-1,3.367-2.449,6.7-4.35c3.067-1.733,4.483-3.05,4.25-3.95
		c-0.933-1.133-1.35-2.367-1.25-3.7c0.233-2.667,0.017-6.233-0.65-10.7L23.85,0c2,0,3.833,0.283,5.5,0.85
		c1.667,0.533,3.284,1.367,4.851,2.5c0.767,0.566,1.366,1.066,1.8,1.5l0.35,3c0.334,2.2,0.767,3.867,1.301,5
		c0.899,1.767,1.683,3.433,2.35,5c0.233,0.467,0.7,1.033,1.4,1.7c1.166,1.066,2.149,2.05,2.949,2.95
		C46.116,24.5,47.333,26.717,48,29.15z"/>
	<path style="fill-rule:evenodd;clip-rule:evenodd;fill:#BCFFE9;" d="M34.2,3.35c0.767,0.566,1.366,1.066,1.8,1.5l0.35,3
		c0.334,2.2,0.767,3.867,1.301,5l0.05,0.05c-2.467,5.9-3.917,8.984-4.351,9.25c-0.333,0.233-0.517,0.166-0.55-0.2
		c-0.066-1.066-0.333-2.217-0.8-3.45c-0.934-2.933-1.667-5.217-2.2-6.85c-0.967-2.933-1.783-4.867-2.45-5.8
		C26.65,4.883,25.767,4.133,24.7,3.6l-1.35-0.45C23.117,6.717,23,9.833,23,12.5l-0.1,1.3c-0.7-1-1-1.983-0.9-2.95
		c0.233-2.667,0.017-6.233-0.65-10.7L23.85,0c2,0,3.833,0.283,5.5,0.85C31.017,1.383,32.634,2.217,34.2,3.35z"/>
	<path style="fill-rule:evenodd;clip-rule:evenodd;fill:#6EC4AA;" d="M41.4,19.55c1.166,1.066,2.149,2.05,2.949,2.95
		c1.767,2,2.983,4.217,3.65,6.65l-2.35,5.699c-2.667,0.667-5.667,1-9,1c-2,0-3.551-0.05-4.65-0.149l-1.65-0.2
		c-0.533,0-1.566,0.066-3.1,0.2c-1.6,0.166-2.8,0.316-3.6,0.45c-1.1,0.399-2.083,0.683-2.95,0.85c-1.567,0.333-3.467,0.283-5.7-0.15
		c-2.533-0.466-4.883-0.767-7.05-0.899c2.566-0.033,4.983-0.55,7.25-1.55c2.033-0.934,3.3-1.9,3.8-2.9
		c0.9-1.767,2.117-2.65,3.65-2.65c0.467,0,1.317,0.217,2.55,0.65c1.2,0.2,2.133-0.25,2.8-1.35c0.7-1.134,1.066-1.801,1.1-2
		c-0.066-0.2-0.1-0.534-0.1-1c0-0.567,0.434-1.184,1.3-1.851c0.7-0.533,1.384-0.916,2.05-1.149c0.467-0.134,0.667-0.7,0.601-1.7
		c-0.066-0.7-0.384-2.35-0.95-4.95c-0.667-3.1-1.333-6.55-2-10.35L31.75,5C33.184,4.933,34.6,4.917,36,4.95
		c0.233,3.5,0.783,6.133,1.65,7.9c0.899,1.767,1.683,3.433,2.35,5C40.233,18.317,40.7,18.883,41.4,19.55z"/>
</g>
</svg>
