<?xml version="1.0" encoding="iso-8859-1"?>
<!-- Generator: Adobe Illustrator 15.1.0, SVG Export Plug-In . SVG Version: 6.00 Build 0)  -->
<!DOCTYPE svg PUBLIC "-//W3C//DTD SVG 1.1//EN" "http://www.w3.org/Graphics/SVG/1.1/DTD/svg11.dtd">
<svg version="1.1" id="flash0.ai" xmlns="http://www.w3.org/2000/svg" xmlns:xlink="http://www.w3.org/1999/xlink" x="0px" y="0px"
	 width="105.85px" height="61.65px" viewBox="0 0 105.85 61.65" style="enable-background:new 0 0 105.85 61.65;"
	 xml:space="preserve">
<symbol  id="flash0.ai_x5F_29_x2F_Layer_148_x2F__x3C_Path_x3E_" viewBox="-0.018 -21.05 105.882 20.993">
	<g id="Layer_1_2_">
		<path style="fill-rule:evenodd;clip-rule:evenodd;" d="M102.3-6.3c2.3-0.434,3.483-0.983,3.55-1.65
			c0.066-0.333-0.117-0.617-0.55-0.85c-1.667-1-3.083-1.75-4.25-2.25l-5-2.5c-0.367-0.167-1.117-0.383-2.25-0.65
			c-2.5-0.566-4.75-1.1-6.75-1.6c-2.867-0.7-4.5-1.167-4.9-1.4c-0.133-0.233-0.583-0.517-1.35-0.85
			c-0.767-0.333-1.95-0.733-3.55-1.2c-1.467-0.467-2.45-0.817-2.95-1.05c-0.533-0.267-1.85-0.267-3.95,0
			c-3.434,0.433-6.45,0.683-9.05,0.75c-2.833,0.1-4.5,0.05-5-0.15c-1.033-0.333-3.2-0.617-6.5-0.85c-3.966-0.333-6.133-0.5-6.5-0.5
			c-0.566,0.066-2.233,0.15-5,0.25c-0.5,0-2.383,0.066-5.65,0.2c-0.533,0.033-2.483,0.05-5.85,0.05c-3.233,0-4.8,0.066-4.7,0.2
			c0.2,0.133,0.316,0.25,0.35,0.35c0.033,0.133-0.267,0.283-0.9,0.45c-1.9,0.466-2.966,0.75-3.2,0.85
			c-0.733,0.267-1.5,0.733-2.3,1.4c-0.8,0.7-1.767,1.216-2.9,1.55c-0.433,0.133-2.967,0.783-7.6,1.95c-3.5,0.867-5.35,1.533-5.55,2
			c-0.133,0.333,0.467,0.5,1.8,0.5c0.7,0,1.367,0.367,2,1.1c0.767,1,1.434,1.8,2,2.4C9.467-7,13.983-6.133,19.35-5.2
			C30.117-3.267,39.767-1.883,48.3-1.05c8.3,0.8,12.9,1.117,13.8,0.95c0.4-0.066,0.983-0.25,1.75-0.55
			c1.066-0.333,2.717-0.633,4.95-0.9c3.733-0.434,7.733-1.1,12-2c3.534-0.767,6.284-1.184,8.25-1.25c2.9-0.133,5.167-0.284,6.8-0.45
			C97.283-5.417,99.433-5.767,102.3-6.3z"/>
	</g>
</symbol>
<g>
	<g>
		
			<use xlink:href="#flash0.ai_x5F_29_x2F_Layer_148_x2F__x3C_Path_x3E_"  width="105.882" height="20.993" x="-0.018" y="-21.05" transform="matrix(1 0 0 -1 0 40.5996)" style="overflow:visible;opacity:0.1406;enable-background:new    ;"/>
	</g>
	<g>
		
			<radialGradient id="SVGID_1_" cx="-66.3716" cy="43.8066" r="58.7133" gradientTransform="matrix(-0.0852 -0.9964 -0.9964 0.0852 87.2948 -7.4603)" gradientUnits="userSpaceOnUse">
			<stop  offset="0.0235" style="stop-color:#4FB395"/>
			<stop  offset="0.2471" style="stop-color:#53B598"/>
			<stop  offset="0.4706" style="stop-color:#5FBDA1"/>
			<stop  offset="0.698" style="stop-color:#74C9AF"/>
			<stop  offset="0.9255" style="stop-color:#90DAC3"/>
			<stop  offset="0.9765" style="stop-color:#97DEC8"/>
		</radialGradient>
		<path style="fill-rule:evenodd;clip-rule:evenodd;fill:url(#SVGID_1_);" d="M87.9,39.4l11.1,10c-0.267,0.333-0.8,0.683-1.6,1.05
			c-1.634,0.767-3.817,1.3-6.551,1.6C89.95,52.15,86.167,53.467,79.5,56c-5.4,2.066-10.033,2.717-13.9,1.95
			C58.366,56.583,51.183,56.6,44.05,58c-9.767,2.066-18.566,1.35-26.4-2.15c-5.566-2.333-8.767-3.683-9.6-4.05
			c-0.7-0.3-0.933-0.767-0.7-1.399c0.333-0.834,1.85-3.034,4.55-6.601c2.867-3.767,4.883-6.083,6.05-6.95
			c1-0.733,1.716-2.833,2.15-6.3c0.667-5.233,1.2-8.583,1.6-10.05c0.767-2.867,1.05-6.9,0.85-12.1c-0.1-2.566-0.283-4.867-0.55-6.9
			l3.65-0.65C28.517,0.383,31,0.1,33.1,0c2.1-0.133,4.683,1,7.75,3.4C42.383,4.6,43.7,5.8,44.8,7l6.5,11.3
			c1.033,1.9,4.267,4.383,9.7,7.45c0.566,0.3,1.184,0.967,1.85,2c0.301,0.467,2.301,1.083,6,1.85c4,0.8,6.767,1.683,8.301,2.65
			c0.933,0.6,2.083,1.55,3.449,2.85C82.533,36.5,84.967,37.934,87.9,39.4z"/>
		<path style="fill-rule:evenodd;clip-rule:evenodd;fill:#AFEDD9;" d="M44.8,7l0.95,1.65L42.8,13.4l2.15,4.55
			c1.833,3.6,3.783,6.75,5.85,9.45c2.101,2.7,3.4,5.267,3.9,7.7c0.233,1.2,0.267,2.134,0.1,2.801c-1.333-0.667-3.333-2.5-6-5.5
			c-1.667-1.867-3.833-4.467-6.5-7.8c-3-3.8-5.167-6.533-6.5-8.2c-1.667-2.066-3.417-3.267-5.25-3.6l-2.25,0.1
			c-0.4,0-0.883,0.15-1.45,0.45c-1.067,0.566-1.917,1.583-2.55,3.05c-0.566,1.2-1.383,2.317-2.45,3.35
			c0.633-2.9,0.85-6.817,0.65-11.75c-0.1-2.467-0.267-4.633-0.5-6.5l0.8-0.15c0.4,0.566,0.75,1.783,1.05,3.65
			c0.3,1.833,0.617,2.967,0.95,3.4c0.7,0.934,2.383,1.4,5.05,1.4c2.3,0,4.617-0.3,6.95-0.9c1.767-0.4,4.3-1.167,7.6-2.3L44.8,7z"/>
		<path style="fill-rule:evenodd;clip-rule:evenodd;fill:#50AB90;" d="M87.9,39.4l11.1,10c-0.267,0.333-0.8,0.683-1.6,1.05
			c-1.634,0.767-3.817,1.3-6.551,1.6C89.95,52.15,86.167,53.467,79.5,56c-5.4,2.066-10.033,2.717-13.9,1.95
			C58.366,56.583,51.183,56.6,44.05,58c-9.767,2.066-18.566,1.35-26.4-2.15c-5.566-2.333-8.767-3.683-9.6-4.05
			c-0.7-0.3-0.933-0.767-0.7-1.399c0.3-0.567,0.733-1.267,1.3-2.101c5.067,1.101,8.617,1.467,10.65,1.101
			c1.2-0.2,2.5-0.051,3.9,0.449c2.7,0.934,4.233,1.45,4.6,1.551c1.667,0.433,2.917,0.333,3.75-0.301
			c0.833-0.966,1.583-1.699,2.25-2.199c1.333-1,3.833-2.667,7.5-5l4.5,4.5l2.8,0.5c2.1,0.333,3.667,0.5,4.7,0.5
			c0.834,0,2.717,0.017,5.65,0.05c2.6-0.066,4.217-0.417,4.85-1.05c1-1,1.667-3.334,2-7c-2-1-4.333-1.834-7-2.5
			c-2.5-0.634-3.866-1-4.1-1.101c-0.9-0.467-2.033-1.6-3.4-3.399c-1.233-1.667-2.6-3.75-4.1-6.25l-1.9-3.25l-8.5-11.5l4-3
			c1.4-1.066,2.617-2.316,3.65-3.75L44.8,7l6.5,11.3c1.033,1.9,4.267,4.383,9.7,7.45c0.566,0.3,1.184,0.967,1.85,2
			c0.301,0.467,2.301,1.083,6,1.85c4,0.8,6.767,1.683,8.301,2.65c0.933,0.6,2.083,1.55,3.449,2.85
			C82.533,36.5,84.967,37.934,87.9,39.4z"/>
		<path style="fill-rule:evenodd;clip-rule:evenodd;fill:#459980;" d="M88.3,49.4c1.733-0.567,2.95-1.5,3.65-2.801
			C92.55,45.467,93,44.9,93.3,44.9H94l5,4.5c-0.267,0.333-0.8,0.683-1.6,1.05c-1.634,0.767-3.817,1.3-6.551,1.6
			C89.95,52.15,86.167,53.467,79.5,56c-5.4,2.066-10.033,2.717-13.9,1.95C58.366,56.583,51.183,56.6,44.05,58
			c-9.767,2.066-18.566,1.35-26.4-2.15l-3.6-1.55c4.367-0.066,8.784,0.134,13.25,0.601c3.167,0.333,6.184,0.716,9.05,1.149
			c1.433,0.101,2.583-0.283,3.45-1.149l2-2l3.45,0.3c2.567,0.267,4.583,0.5,6.05,0.7c2.334,0.333,7,0.5,14,0.5
			c2,0,3.717,0.066,5.15,0.199c0.6-0.066,1.55-0.633,2.85-1.699c2-1.667,4-4,6-7l2.8,2.3C84.366,49.634,86.434,50.033,88.3,49.4z"/>
	</g>
	<g>
		<path style="fill-rule:evenodd;clip-rule:evenodd;fill:#86D4BC;" d="M21.3,36.15c0.534-0.534,1.167-1.067,1.9-1.601
			c1.4-1.1,2.517-1.649,3.35-1.649c0.8,0,1.7,0.35,2.7,1.05l3.05,2.2l6,3.5c-3.333-0.5-6.75-1.167-10.25-2L21.3,36.15z"/>
		<path style="fill-rule:evenodd;clip-rule:evenodd;fill:#86D4BC;" d="M46.65,45.55l-1.1-0.149c-0.367-0.134-0.633-0.367-0.8-0.7
			c-0.333-0.667,0.017-1.517,1.05-2.55c1.133-1.134,2.1-1.784,2.9-1.95c0.2-0.033,1.483-0.05,3.85-0.05l2.2-0.7
			c1.667-0.467,3.017-0.65,4.05-0.55c1.667,0.166,4,1,7,2.5l-6.75,4.75c-1.333,0.966-2.467,1.267-3.399,0.899
			c-1.9-0.7-3.351-1.083-4.351-1.149C49.333,45.8,47.783,45.684,46.65,45.55z"/>
	</g>
</g>
</svg>
