<?xml version="1.0" encoding="iso-8859-1"?>
<!-- Generator: Adobe Illustrator 15.1.0, SVG Export Plug-In . SVG Version: 6.00 Build 0)  -->
<!DOCTYPE svg PUBLIC "-//W3C//DTD SVG 1.1//EN" "http://www.w3.org/Graphics/SVG/1.1/DTD/svg11.dtd">
<svg version="1.1" id="flash0.ai" xmlns="http://www.w3.org/2000/svg" xmlns:xlink="http://www.w3.org/1999/xlink" x="0px" y="0px"
	 width="77.7px" height="85.4px" viewBox="0 0 77.7 85.4" style="enable-background:new 0 0 77.7 85.4;" xml:space="preserve">
<symbol  id="flash0.ai_x5F_20_x2F_Layer_114_x2F__x3C_Group_x3E_" viewBox="-0.013 -54.507 35.53 54.507">
	<g id="Layer_1_3_">
		<g>
			<path style="fill-rule:evenodd;clip-rule:evenodd;fill:#FFFFFF;" d="M21.4-5.4c0.2,0.433,0.517,0.517,0.95,0.25
				c0.433-0.233,0.533-0.567,0.3-1c-0.233-0.533-0.35-0.9-0.35-1.1C22.267-7.75,22-8,21.5-8s-0.733,0.25-0.7,0.75
				C20.8-6.817,21-6.2,21.4-5.4z"/>
			<path style="fill-rule:evenodd;clip-rule:evenodd;fill:#FFFFFF;" d="M22.55-10c0,0.467,0.25,0.7,0.75,0.7s0.75-0.233,0.75-0.7
				v-0.75c0-0.5-0.25-0.75-0.75-0.75s-0.75,0.25-0.75,0.75V-10z"/>
			<path style="fill-rule:evenodd;clip-rule:evenodd;fill:#FFFFFF;" d="M23.3-7.2c-0.066,0.434,0.117,0.717,0.55,0.85
				c0.4,0.133,0.683,0.017,0.85-0.35c0.267-0.2,0.35-0.466,0.25-0.8C24.883-7.867,24.667-8.033,24.3-8C23.733-8,23.4-7.733,23.3-7.2
				z"/>
			<path style="fill-rule:evenodd;clip-rule:evenodd;fill:#FFFFFF;" d="M20.55-14.75c0,0.633,0.333,0.95,1,0.95
				c0.667,0,1-0.317,1-0.95v-0.75c0-0.667-0.333-1-1-1c-0.667,0-1,0.333-1,1V-14.75z"/>
			<path style="fill-rule:evenodd;clip-rule:evenodd;fill:#FFFFFF;" d="M19.1-8.7C19.233-8.233,19.55-8,20.05-8
				C20.683-8,21-8.333,21-9s-0.317-1-0.95-1h-0.1c0.2-0.2,0.3-0.45,0.3-0.75c-0.033-0.3-0.15-0.55-0.35-0.75
				c-0.233-0.467-0.617-0.633-1.15-0.5c-0.6,0.167-0.833,0.583-0.7,1.25c0.1,0.6,0.517,0.933,1.25,1l0.1-0.05
				C19.067-9.5,18.967-9.133,19.1-8.7z"/>
			<path style="fill-rule:evenodd;clip-rule:evenodd;fill:#FFFFFF;" d="M25.55-16.75c-0.633,0-0.95,0.333-0.95,1s0.316,1,0.95,1
				s0.95-0.333,0.95-1S26.183-16.75,25.55-16.75z"/>
			<path style="fill-rule:evenodd;clip-rule:evenodd;fill:#FFFFFF;" d="M20.8-19.5c-0.633,0-0.95,0.333-0.95,1s0.316,1,0.95,1
				s0.95-0.333,0.95-1S21.433-19.5,20.8-19.5z"/>
			<path style="fill-rule:evenodd;clip-rule:evenodd;fill:#FFFFFF;" d="M23.8-21.5c0,0.633,0.333,0.95,1,0.95
				c0.667,0,1-0.317,1-0.95v-1c0-0.667-0.333-1-1-1c-0.667,0-1,0.333-1,1V-21.5z"/>
			<path style="fill-rule:evenodd;clip-rule:evenodd;fill:#FFFFFF;" d="M22.3-23c0-0.667-0.333-1-1-1c-0.667,0-1,0.333-1,1v0.75
				c0,0.633,0.333,0.95,1,0.95c0.667,0,1-0.317,1-0.95V-23z"/>
			<path style="fill-rule:evenodd;clip-rule:evenodd;fill:#FFFFFF;" d="M18.75-23.5c-0.167-0.2-0.4-0.3-0.7-0.3
				c-0.3,0.033-0.55,0.133-0.75,0.3c-0.4,0.467-0.4,0.95,0,1.45c0.2,0.333,0.367,0.583,0.5,0.75c0.167,0.2,0.4,0.3,0.7,0.3
				c0.3-0.033,0.55-0.133,0.75-0.3c0.4-0.467,0.4-0.95,0-1.45C19.117-22.883,18.95-23.133,18.75-23.5z"/>
			<path style="fill-rule:evenodd;clip-rule:evenodd;fill:#FFFFFF;" d="M16.05-27.75c-0.633,0-0.95,0.333-0.95,1s0.316,1,0.95,1
				s0.95-0.333,0.95-1S16.683-27.75,16.05-27.75z"/>
			<path style="fill-rule:evenodd;clip-rule:evenodd;fill:#FFFFFF;" d="M19.3-28c-0.633,0-0.95,0.333-0.95,1s0.316,1,0.95,1
				s0.95-0.333,0.95-1S19.933-28,19.3-28z"/>
			<path style="fill-rule:evenodd;clip-rule:evenodd;fill:#FFFFFF;" d="M23.8-28.5c0-0.667-0.333-1-1-1c-0.667,0-1,0.333-1,1v0.25
				c0,0.633,0.333,0.95,1,0.95c0.667,0,1-0.317,1-0.95V-28.5z"/>
			<path style="fill-rule:evenodd;clip-rule:evenodd;fill:#FFFFFF;" d="M25.05-28.5c0.633,0,0.95-0.333,0.95-1s-0.317-1-0.95-1
				s-0.95,0.333-0.95,1S24.417-28.5,25.05-28.5z"/>
			<path style="fill-rule:evenodd;clip-rule:evenodd;fill:#FFFFFF;" d="M28.55-26.75c0-0.667-0.333-1-1-1c-0.667,0-1,0.333-1,1v0.25
				c0,0.633,0.333,0.95,1,0.95c0.667,0,1-0.317,1-0.95V-26.75z"/>
			<path style="fill-rule:evenodd;clip-rule:evenodd;fill:#FFFFFF;" d="M19.05-15.75c0.633,0,0.95-0.333,0.95-1s-0.317-1-0.95-1
				s-0.95,0.333-0.95,1S18.417-15.75,19.05-15.75z"/>
			<path style="fill-rule:evenodd;clip-rule:evenodd;fill:#FFFFFF;" d="M20.8-5c-0.633,0-0.95,0.333-0.95,1s0.316,1,0.95,1
				s0.95-0.333,0.95-1S21.433-5,20.8-5z"/>
			<path style="fill-rule:evenodd;clip-rule:evenodd;fill:#FFFFFF;" d="M23.05-2.25c-0.633,0-0.95,0.333-0.95,1s0.316,1,0.95,1
				L23.1-0.3C23.3-0.1,23.533,0,23.8,0c0.633,0,0.95-0.333,0.95-1s-0.317-1-0.95-1h-0.1C23.533-2.167,23.317-2.25,23.05-2.25z"/>
			<path style="fill-rule:evenodd;clip-rule:evenodd;fill:#FFFFFF;" d="M16.55-34.5c0.633,0,0.95-0.333,0.95-1s-0.317-1-0.95-1
				s-0.95,0.333-0.95,1S15.917-34.5,16.55-34.5z"/>
			<path style="fill-rule:evenodd;clip-rule:evenodd;fill:#FFFFFF;" d="M20.55-37.25c-0.633,0-0.95,0.333-0.95,1s0.316,1,0.95,1
				s0.95-0.333,0.95-1S21.183-37.25,20.55-37.25z"/>
			<path style="fill-rule:evenodd;clip-rule:evenodd;fill:#FFFFFF;" d="M18.8-33c-0.633,0-0.95,0.333-0.95,1s0.316,1,0.95,1
				s0.95-0.333,0.95-1S19.433-33,18.8-33z"/>
			<path style="fill-rule:evenodd;clip-rule:evenodd;fill:#FFFFFF;" d="M14.55-33.25c-0.633,0-0.95,0.333-0.95,1s0.316,1,0.95,1
				s0.95-0.333,0.95-1S15.183-33.25,14.55-33.25z"/>
			<path style="fill-rule:evenodd;clip-rule:evenodd;fill:#FFFFFF;" d="M12.55-36.25c-0.633,0-0.95,0.333-0.95,1s0.316,1,0.95,1
				s0.95-0.333,0.95-1S13.183-36.25,12.55-36.25z"/>
			<path style="fill-rule:evenodd;clip-rule:evenodd;fill:#FFFFFF;" d="M9.3-37c-0.633,0-0.95,0.333-0.95,1s0.316,1,0.95,1
				s0.95-0.333,0.95-1S9.933-37,9.3-37z"/>
			<path style="fill-rule:evenodd;clip-rule:evenodd;fill:#FFFFFF;" d="M5.85-39.2l-0.3-0.05c-0.633,0-0.95,0.333-0.95,1
				s0.316,1,0.95,1c0.367,0,0.633-0.15,0.8-0.45c0.133-0.267,0.167-0.566,0.1-0.9l0.35,0.1c0.633,0,0.95-0.333,0.95-1
				s-0.317-1-0.95-1c-0.367,0-0.65,0.133-0.85,0.4C5.817-39.833,5.783-39.533,5.85-39.2z"/>
			<path style="fill-rule:evenodd;clip-rule:evenodd;fill:#FFFFFF;" d="M4.3-41.5c0.633,0,0.95-0.333,0.95-1s-0.317-1-0.95-1
				s-0.95,0.333-0.95,1S3.667-41.5,4.3-41.5z"/>
			<path style="fill-rule:evenodd;clip-rule:evenodd;fill:#FFFFFF;" d="M1.75-45.75c-0.467-0.467-0.933-0.45-1.4,0.05
				c-0.467,0.467-0.483,0.934-0.05,1.4l0.25,0.25c0.467,0.433,0.934,0.417,1.4-0.05c0.5-0.467,0.517-0.933,0.05-1.4L1.75-45.75z"/>
			<path style="fill-rule:evenodd;clip-rule:evenodd;fill:#FFFFFF;" d="M2.3-49.5v-0.25c0-0.667-0.333-1-1-1c-0.667,0-1,0.333-1,1
				v0.25c0,0.633,0.333,0.95,1,0.95C1.967-48.55,2.3-48.867,2.3-49.5z"/>
			<path style="fill-rule:evenodd;clip-rule:evenodd;fill:#FFFFFF;" d="M4.8-43.75c0.633,0,0.95-0.333,0.95-1s-0.317-1-0.95-1
				s-0.95,0.333-0.95,1S4.167-43.75,4.8-43.75z"/>
			<path style="fill-rule:evenodd;clip-rule:evenodd;fill:#FFFFFF;" d="M9-42.55l0.25-0.25c0.367-0.4,0.4-0.817,0.1-1.25
				c-0.3-0.434-0.667-0.583-1.1-0.45c-0.133-0.533-0.483-0.783-1.05-0.75c-0.6,0.067-0.9,0.4-0.9,1v0.75
				c0,0.367,0.15,0.633,0.45,0.8c0.233,0.133,0.517,0.167,0.85,0.1C8.067-42.133,8.533-42.117,9-42.55z"/>
			<path style="fill-rule:evenodd;clip-rule:evenodd;fill:#FFFFFF;" d="M13.8-42.3c0.2,0.167,0.45,0.267,0.75,0.3
				c0.3,0,0.534-0.1,0.7-0.3c0.333-0.4,0.517-0.883,0.55-1.45c0-0.5-0.233-0.817-0.7-0.95l0.15-0.3c0.133-0.567-0.05-0.967-0.55-1.2
				c-0.167-0.3-0.45-0.483-0.85-0.55c0.133-0.2,0.2-0.367,0.2-0.5v-0.25c0-0.667-0.333-1-1-1c-0.667,0-1,0.333-1,1v0.25
				c0,0.567,0.3,0.883,0.9,0.95c-0.167,0.2-0.217,0.466-0.15,0.8c0.133,0.633,0.517,1.017,1.15,1.15c-0.1,0.133-0.15,0.333-0.15,0.6
				l-0.05,0.1C13.417-43.183,13.433-42.733,13.8-42.3z"/>
			<path style="fill-rule:evenodd;clip-rule:evenodd;fill:#FFFFFF;" d="M13.05-37c0.367,0,0.65-0.167,0.85-0.5
				c0.133-0.267,0.15-0.567,0.05-0.9c0.1-0.333,0.083-0.633-0.05-0.9c-0.2-0.3-0.483-0.45-0.85-0.45c-0.4,0-0.683,0.15-0.85,0.45
				c-0.167,0.267-0.2,0.566-0.1,0.9c-0.1,0.333-0.067,0.633,0.1,0.9C12.367-37.167,12.65-37,13.05-37z"/>
			<path style="fill-rule:evenodd;clip-rule:evenodd;fill:#FFFFFF;" d="M9.45-42.1c-0.133,0.233-0.167,0.517-0.1,0.85
				c-0.067,0.267-0.017,0.517,0.15,0.75c0.133,0.267,0.367,0.417,0.7,0.45c0.2,0.367,0.483,0.55,0.85,0.55l0.1-0.05l0.15,0.05
				c0.633,0,0.95-0.333,0.95-1s-0.317-1-0.95-1h-0.05c0-0.667-0.317-1-0.95-1C9.933-42.5,9.65-42.367,9.45-42.1z"/>
			<path style="fill-rule:evenodd;clip-rule:evenodd;fill:#FFFFFF;" d="M12.05-43c0.633,0,0.95-0.333,0.95-1s-0.317-1-0.95-1
				s-0.95,0.333-0.95,1S11.417-43,12.05-43z"/>
			<path style="fill-rule:evenodd;clip-rule:evenodd;fill:#FFFFFF;" d="M8.85-46.2c0.133,0.467,0.45,0.7,0.95,0.7
				c0.633,0,0.95-0.333,0.95-1s-0.317-1-0.95-1H9.65c0.333-0.267,0.434-0.617,0.3-1.05c-0.133-0.467-0.434-0.7-0.9-0.7
				c-0.466-0.067-0.883-0.2-1.25-0.4c-0.633-0.267-1.1-0.15-1.4,0.35c-0.1,0.233-0.133,0.466-0.1,0.7c-0.133-0.1-0.3-0.15-0.5-0.15
				c-0.566,0-0.9,0.25-1,0.75c-0.1,0.533,0.067,0.9,0.5,1.1c0,0.767,0.333,1.15,1,1.15c0.534,0,0.85-0.267,0.95-0.8
				c0.1-0.534-0.067-0.9-0.5-1.1l-0.05-0.3l0.05,0.05c0.833,0.4,1.6,0.617,2.3,0.65l0.1-0.05C8.817-47.033,8.717-46.667,8.85-46.2z"
				/>
			<path style="fill-rule:evenodd;clip-rule:evenodd;fill:#FFFFFF;" d="M14.3-40.5c0,0.633,0.333,0.95,1,0.95
				c0.667,0,1-0.317,1-0.95v-0.25c0-0.667-0.333-1-1-1c-0.667,0-1,0.333-1,1V-40.5z"/>
			<path style="fill-rule:evenodd;clip-rule:evenodd;fill:#FFFFFF;" d="M19.65-38.55c0.1,0.2,0.267,0.35,0.5,0.45
				s0.45,0.117,0.65,0.05c0.6-0.167,0.833-0.583,0.7-1.25c-0.1-0.633-0.5-0.95-1.2-0.95h-0.35c-0.067-0.5-0.367-0.75-0.9-0.75
				c-0.367,0-0.633,0.117-0.8,0.35c-0.233-0.133-0.483-0.167-0.75-0.1c-0.633,0.1-0.95,0.517-0.95,1.25
				c-0.033,0.1-0.017,0.25,0.05,0.45c-0.3-0.233-0.633-0.267-1-0.1c-0.367,0.167-0.55,0.467-0.55,0.9V-38c0,0.633,0.333,0.95,1,0.95
				c0.667,0,1-0.317,1-0.95v-0.25c0-0.2-0.05-0.367-0.15-0.5c0.5,0.3,0.95,0.25,1.35-0.15l0.3-0.25c0.3,0.1,0.467,0.15,0.5,0.15
				l0.3-0.1C19.417-38.867,19.517-38.683,19.65-38.55z"/>
			<path style="fill-rule:evenodd;clip-rule:evenodd;fill:#FFFFFF;" d="M24.8-33.3l0.25,0.25c0.467,0.433,0.934,0.417,1.4-0.05
				c0.5-0.467,0.517-0.933,0.05-1.4l-0.25-0.25c-0.3-0.267-0.633-0.333-1-0.2c0-0.7-0.317-1.05-0.95-1.05h-0.2l-0.05-0.1
				c0.167-0.2,0.233-0.433,0.2-0.7c-0.033-0.3-0.15-0.534-0.35-0.7c-0.233-0.467-0.617-0.633-1.15-0.5
				c-0.6,0.167-0.833,0.583-0.7,1.25c0.067,0.267,0.2,0.483,0.4,0.65c-0.233,0.467-0.417,0.817-0.55,1.05
				c-0.267,0.633-0.15,1.1,0.35,1.4l0.25,0.05l-0.2,0.5c-0.133-0.1-0.3-0.15-0.5-0.15c-0.633,0-0.95,0.333-0.95,1s0.316,1,0.95,1
				c0.567,0,0.883-0.317,0.95-0.95c0.2,0.133,0.383,0.2,0.55,0.2c0.567,0,0.883-0.283,0.95-0.85c0.067-0.566-0.15-0.933-0.65-1.1
				L23.65-34l0.05-0.2c0.2,0.133,0.4,0.2,0.6,0.2l0.25-0.1C24.517-33.833,24.6-33.567,24.8-33.3z"/>
			<path style="fill-rule:evenodd;clip-rule:evenodd;fill:#FFFFFF;" d="M28.8-32c-0.633,0-0.95,0.333-0.95,1s0.316,1,0.95,1h0.25
				c0.633,0,0.95-0.333,0.95-1s-0.317-1-0.95-1H28.8z"/>
			<path style="fill-rule:evenodd;clip-rule:evenodd;fill:#FFFFFF;" d="M31.05-38.75c-0.633,0-0.966,0.317-1,0.95
				c0,0.6,0.3,0.933,0.9,1c0.2,0.367,0.483,0.55,0.85,0.55c0.633,0,0.95-0.317,0.95-0.95c0-0.667-0.3-1.017-0.9-1.05
				C31.683-38.583,31.417-38.75,31.05-38.75z"/>
			<path style="fill-rule:evenodd;clip-rule:evenodd;fill:#FFFFFF;" d="M31.5-41.25c-0.167-0.2-0.4-0.3-0.7-0.3
				c-0.3,0.033-0.55,0.133-0.75,0.3c-0.4,0.467-0.4,0.95,0,1.45c0.2,0.333,0.367,0.583,0.5,0.75c0.167,0.2,0.4,0.3,0.7,0.3
				c0.3-0.033,0.55-0.133,0.75-0.3c0.4-0.467,0.4-0.95,0-1.45C31.867-40.633,31.7-40.883,31.5-41.25z"/>
			<path style="fill-rule:evenodd;clip-rule:evenodd;fill:#FFFFFF;" d="M24.55-41c0.633,0,0.95-0.333,0.95-1s-0.317-1-0.95-1
				s-0.95,0.333-0.95,1S23.917-41,24.55-41z"/>
			<path style="fill-rule:evenodd;clip-rule:evenodd;fill:#FFFFFF;" d="M22.55-41.05c0.6-0.167,0.833-0.583,0.7-1.25l-0.2-0.4
				l-0.1-0.15c-0.067-0.233-0.233-0.417-0.5-0.55c-0.233-0.133-0.467-0.167-0.7-0.1c-0.6,0.167-0.833,0.583-0.7,1.25l0.2,0.4
				l0.1,0.15c0.066,0.233,0.233,0.417,0.5,0.55C22.083-41.017,22.317-40.983,22.55-41.05z"/>
			<path style="fill-rule:evenodd;clip-rule:evenodd;fill:#FFFFFF;" d="M23.25-50.25c0-0.667-0.317-1-0.95-1s-0.95,0.333-0.95,1
				s0.316,1,0.95,1S23.25-49.583,23.25-50.25z"/>
			<path style="fill-rule:evenodd;clip-rule:evenodd;fill:#FFFFFF;" d="M24.8-52c0.633,0,0.95-0.333,0.95-1s-0.317-1-0.95-1
				s-0.95,0.333-0.95,1S24.167-52,24.8-52z"/>
			<path style="fill-rule:evenodd;clip-rule:evenodd;fill:#FFFFFF;" d="M29.05-48.5c-0.633,0-0.95,0.333-0.95,1s0.316,1,0.95,1
				s0.95-0.333,0.95-1S29.683-48.5,29.05-48.5z"/>
			<path style="fill-rule:evenodd;clip-rule:evenodd;fill:#FFFFFF;" d="M28.75-51.1c0.067-0.566-0.133-0.933-0.6-1.1
				c-0.066-0.2-0.233-0.367-0.5-0.5l-0.6-0.3c-0.667-0.133-1.083,0.1-1.25,0.7c-0.066,0.233-0.033,0.466,0.1,0.7
				c0.1,0.267,0.267,0.434,0.5,0.5l0.5,0.25c0.2,0.4,0.5,0.6,0.9,0.6C28.333-50.25,28.65-50.533,28.75-51.1z"/>
			<path style="fill-rule:evenodd;clip-rule:evenodd;fill:#FFFFFF;" d="M20.8-52.5c0.633,0,0.95-0.333,0.95-1s-0.317-1-0.95-1
				c-0.566,0-0.883,0.267-0.95,0.8l-0.3-0.05c-0.633,0-0.95,0.333-0.95,1s0.316,1,0.95,1c0.534,0,0.833-0.283,0.9-0.85L20.8-52.5z"
				/>
			<path style="fill-rule:evenodd;clip-rule:evenodd;fill:#FFFFFF;" d="M18.55-49.25v0.75c0,0.633,0.333,0.95,1,0.95
				c0.667,0,1-0.317,1-0.95v-0.75c0-0.667-0.333-1-1-1C18.883-50.25,18.55-49.917,18.55-49.25z"/>
			<path style="fill-rule:evenodd;clip-rule:evenodd;fill:#FFFFFF;" d="M21.05-47c-0.633,0-0.95,0.333-0.95,1s0.316,1,0.95,1
				S22-45.333,22-46S21.683-47,21.05-47z"/>
			<path style="fill-rule:evenodd;clip-rule:evenodd;fill:#FFFFFF;" d="M27.25-42.3c0.667,0,1.017-0.317,1.05-0.95
				c0-0.9,0.067-1.567,0.2-2c0.133-0.467,0.017-0.817-0.35-1.05c-0.4-0.233-0.783-0.25-1.15-0.05c0.267-0.3,0.333-0.65,0.2-1.05
				S26.767-48,26.3-48v-0.75c0-0.667-0.333-1-1-1c-0.667,0-1,0.333-1,1v0.35c-0.233,0.3-0.283,0.65-0.15,1.05
				c0.167,0.4,0.467,0.6,0.9,0.6h0.25l0.05-0.05c0.133,0.533,0.45,0.8,0.95,0.8l0.45-0.15l-0.2,0.35
				c-0.167,0.566-0.25,1.417-0.25,2.55C26.267-42.617,26.583-42.3,27.25-42.3z"/>
			<path style="fill-rule:evenodd;clip-rule:evenodd;fill:#FFFFFF;" d="M28.8-42.5c-0.633,0-0.95,0.333-0.95,1s0.316,1,0.95,1
				s0.95-0.333,0.95-1S29.433-42.5,28.8-42.5z"/>
			<path style="fill-rule:evenodd;clip-rule:evenodd;fill:#FFFFFF;" d="M33.95-44.35c0.5-0.467,0.517-0.933,0.05-1.4L33.75-46
				c-0.267-0.233-0.55-0.317-0.85-0.25c-0.3,0.067-0.533,0.233-0.7,0.5C32.033-45.917,31.817-46,31.55-46
				c-0.633,0-0.95,0.333-0.95,1s0.316,1,0.95,1c0.367,0,0.633-0.183,0.8-0.55l0.2,0.25C33.017-43.867,33.483-43.883,33.95-44.35z"/>
			<path style="fill-rule:evenodd;clip-rule:evenodd;fill:#FFFFFF;" d="M29.55-44.25c0.633,0,0.95-0.333,0.95-1s-0.317-1-0.95-1
				s-0.95,0.333-0.95,1S28.917-44.25,29.55-44.25z"/>
			<path style="fill-rule:evenodd;clip-rule:evenodd;fill:#FFFFFF;" d="M30.75-49.75c0-0.667-0.317-1-0.95-1s-0.95,0.333-0.95,1
				s0.316,1,0.95,1S30.75-49.083,30.75-49.75z"/>
			<path style="fill-rule:evenodd;clip-rule:evenodd;fill:#FFFFFF;" d="M31-52.3c0.667,0.133,1.083-0.1,1.25-0.7
				c0.133-0.533-0.033-0.917-0.5-1.15c-0.3-0.333-0.667-0.434-1.1-0.3c-0.433,0.133-0.633,0.45-0.6,0.95l0.05,0.25h-0.05
				c-0.633,0-0.95,0.333-0.95,1s0.316,1,0.95,1S31-51.6,31-52.3z"/>
			<path style="fill-rule:evenodd;clip-rule:evenodd;fill:#FFFFFF;" d="M32.3-49.25c0.034,0.633,0.383,0.95,1.05,0.95
				c0.667,0,0.983-0.317,0.95-0.95c-0.1-0.533-0.15-0.817-0.15-0.85l-0.1-0.2c-0.147-0.633-0.48-0.95-1-0.95
				c-0.3,0-0.55,0.1-0.75,0.3c-0.2,0.2-0.283,0.434-0.25,0.7C32.183-49.817,32.267-49.483,32.3-49.25z"/>
			<path style="fill-rule:evenodd;clip-rule:evenodd;fill:#FFFFFF;" d="M34.3-41c0.633,0,0.95-0.333,0.95-1s-0.317-1-0.95-1
				s-0.95,0.333-0.95,1S33.667-41,34.3-41z"/>
			<path style="fill-rule:evenodd;clip-rule:evenodd;fill:#FFFFFF;" d="M33.8-38c0.633,0,0.95-0.333,0.95-1s-0.317-1-0.95-1
				s-0.95,0.333-0.95,1S33.167-38,33.8-38z"/>
			<path style="fill-rule:evenodd;clip-rule:evenodd;fill:#FFFFFF;" d="M34.05-30.75c-0.633,0-0.95,0.333-0.95,1s0.316,1,0.95,1
				s0.95-0.333,0.95-1S34.683-30.75,34.05-30.75z"/>
			<path style="fill-rule:evenodd;clip-rule:evenodd;fill:#FFFFFF;" d="M33.55-27.25c-0.267,0.333-0.333,0.7-0.2,1.1
				c0.167,0.433,0.483,0.65,0.95,0.65c0.633,0,0.95-0.35,0.95-1.05c0.267-0.333,0.333-0.7,0.2-1.1s-0.434-0.6-0.9-0.6
				C33.883-28.25,33.55-27.917,33.55-27.25z"/>
			<path style="fill-rule:evenodd;clip-rule:evenodd;fill:#FFFFFF;" d="M30.3-34.75c-0.566,0-0.9,0.25-1,0.75
				c-0.1,0.5,0.067,0.867,0.5,1.1c0.067,0.566,0.417,0.85,1.05,0.85c0.633-0.034,0.95-0.35,0.95-0.95v-0.5
				c0-0.5-0.267-0.817-0.8-0.95C30.867-34.65,30.633-34.75,30.3-34.75z"/>
			<path style="fill-rule:evenodd;clip-rule:evenodd;fill:#FFFFFF;" d="M25.8-38.5c-0.633,0-0.95,0.333-0.95,1s0.316,1,0.95,1
				s0.95-0.333,0.95-1S26.433-38.5,25.8-38.5z"/>
			<path style="fill-rule:evenodd;clip-rule:evenodd;fill:#FFFFFF;" d="M27.05-41c-0.633,0-0.95,0.333-0.95,1s0.316,1,0.95,1
				S28-39.333,28-40S27.683-41,27.05-41z"/>
			<path style="fill-rule:evenodd;clip-rule:evenodd;fill:#FFFFFF;" d="M28.05-36.25c0.633,0,0.95-0.333,0.95-1s-0.317-1-0.95-1
				s-0.95,0.333-0.95,1S27.417-36.25,28.05-36.25z"/>
			<path style="fill-rule:evenodd;clip-rule:evenodd;fill:#FFFFFF;" d="M34.55-34.75c0.633,0,0.95-0.333,0.95-1s-0.317-1-0.95-1
				s-0.95,0.333-0.95,1S33.917-34.75,34.55-34.75z"/>
			<path style="fill-rule:evenodd;clip-rule:evenodd;fill:#FFFFFF;" d="M33.05-34.75c-0.633,0-0.95,0.333-0.95,1s0.316,1,0.95,1
				s0.95-0.333,0.95-1S33.683-34.75,33.05-34.75z"/>
		</g>
	</g>
</symbol>
<symbol  id="flash0.ai_x5F_20_x2F_Layer_114_x2F__x3C_Group_x3E__x5F_0" viewBox="0.05 -67.786 56.488 67.786">
	<g id="Layer_1_4_">
		<g>
			<path style="fill-rule:evenodd;clip-rule:evenodd;fill:#C1DAE8;" d="M31.25-6.5c-0.633,0-0.95,0.333-0.95,1s0.317,1,0.95,1
				s0.95-0.333,0.95-1S31.883-6.5,31.25-6.5z"/>
			<path style="fill-rule:evenodd;clip-rule:evenodd;fill:#C1DAE8;" d="M32.5-3c-0.633,0-0.95,0.333-0.95,1s0.317,1,0.95,1
				s0.95-0.333,0.95-1S33.133-3,32.5-3z"/>
			<path style="fill-rule:evenodd;clip-rule:evenodd;fill:#C1DAE8;" d="M33.45-5.75c-0.633,0.133-0.95,0.633-0.95,1.5
				c-0.033,0.6,0.267,0.917,0.9,0.95c0.6,0.033,0.95-0.233,1.05-0.8c0.267-0.333,0.35-0.65,0.25-0.95
				C34.533-5.65,34.117-5.883,33.45-5.75z"/>
			<path style="fill-rule:evenodd;clip-rule:evenodd;fill:#C1DAE8;" d="M34.25-2c-0.633,0-0.95,0.333-0.95,1s0.317,1,0.95,1
				s0.95-0.333,0.95-1S34.883-2,34.25-2z"/>
			<path style="fill-rule:evenodd;clip-rule:evenodd;fill:#C1DAE8;" d="M34.25-8.5c0,0.633,0.333,0.95,1,0.95s1-0.317,1-0.95v-0.25
				c0-0.667-0.333-1-1-1s-1,0.333-1,1V-8.5z"/>
			<path style="fill-rule:evenodd;clip-rule:evenodd;fill:#C1DAE8;" d="M32.25-9.5c0-0.667-0.333-1-1-1s-1,0.333-1,1v0.25
				c0,0.633,0.333,0.95,1,0.95s1-0.317,1-0.95V-9.5z"/>
			<path style="fill-rule:evenodd;clip-rule:evenodd;fill:#C1DAE8;" d="M31.25-14c0.633,0,0.95-0.333,0.95-1s-0.317-1-0.95-1
				s-0.95,0.333-0.95,1S30.617-14,31.25-14z"/>
			<path style="fill-rule:evenodd;clip-rule:evenodd;fill:#C1DAE8;" d="M33-13.5c-0.633,0-0.95,0.333-0.95,1s0.317,1,0.95,1
				s0.95-0.333,0.95-1S33.633-13.5,33-13.5z"/>
			<path style="fill-rule:evenodd;clip-rule:evenodd;fill:#C1DAE8;" d="M32.75-18.5c0-0.667-0.333-1-1-1s-1,0.333-1,1v0.25
				c0,0.633,0.333,0.95,1,0.95s1-0.317,1-0.95V-18.5z"/>
			<path style="fill-rule:evenodd;clip-rule:evenodd;fill:#C1DAE8;" d="M32.75-21.75c0.633,0,0.95-0.333,0.95-1s-0.317-1-0.95-1
				s-0.95,0.333-0.95,1S32.117-21.75,32.75-21.75z"/>
			<path style="fill-rule:evenodd;clip-rule:evenodd;fill:#C1DAE8;" d="M34.25-17.25c0.633,0,0.95-0.333,0.95-1s-0.317-1-0.95-1
				s-0.95,0.333-0.95,1S33.617-17.25,34.25-17.25z"/>
			<path style="fill-rule:evenodd;clip-rule:evenodd;fill:#C1DAE8;" d="M35.25-22.65c-0.433,0.3-0.6,0.667-0.5,1.1
				c-0.133,0.533,0.033,0.917,0.5,1.15c0.3,0.333,0.667,0.433,1.1,0.3c0.467-0.133,0.683-0.433,0.65-0.9l-0.1-0.3
				c0.133-0.367,0.067-0.684-0.2-0.95l-0.25-0.25C36.05-22.867,35.65-22.917,35.25-22.65z"/>
			<path style="fill-rule:evenodd;clip-rule:evenodd;fill:#C1DAE8;" d="M38.25-19.75c-0.633,0-0.95,0.333-0.95,1s0.317,1,0.95,1
				s0.95-0.333,0.95-1S38.883-19.75,38.25-19.75z"/>
			<path style="fill-rule:evenodd;clip-rule:evenodd;fill:#C1DAE8;" d="M36-15.5v0.5c0,0.633,0.333,0.95,1,0.95s1-0.317,1-0.95v-0.5
				c0-0.667-0.333-1-1-1S36-16.167,36-15.5z"/>
			<path style="fill-rule:evenodd;clip-rule:evenodd;fill:#C1DAE8;" d="M39.5-23.5c-0.633,0-0.95,0.333-0.95,1s0.317,1,0.95,1
				s0.95-0.333,0.95-1S40.133-23.5,39.5-23.5z"/>
			<path style="fill-rule:evenodd;clip-rule:evenodd;fill:#C1DAE8;" d="M33-24.65c0.3,0.333,0.667,0.433,1.1,0.3
				c0.467-0.133,0.683-0.433,0.65-0.9c-0.067-0.733-0.4-1.15-1-1.25c-0.667-0.133-1.083,0.1-1.25,0.7
				C32.367-25.267,32.533-24.883,33-24.65z"/>
			<path style="fill-rule:evenodd;clip-rule:evenodd;fill:#C1DAE8;" d="M39.75-33.75c-0.633,0-0.95,0.333-0.95,1s0.317,1,0.95,1
				s0.95-0.333,0.95-1S40.383-33.75,39.75-33.75z"/>
			<path style="fill-rule:evenodd;clip-rule:evenodd;fill:#C1DAE8;" d="M39.5-38.5c-0.067-0.733-0.4-1.15-1-1.25
				c-0.667-0.133-1.083,0.1-1.25,0.7c-0.1,0.3-0.017,0.617,0.25,0.95c0,0.733,0.333,1.1,1,1.1c0.3,0,0.55-0.117,0.75-0.35
				c0.167-0.233,0.217-0.5,0.15-0.8L39.5-38.5z"/>
			<path style="fill-rule:evenodd;clip-rule:evenodd;fill:#C1DAE8;" d="M40.55-33.95c0.133,0.467,0.45,0.7,0.95,0.7
				c0.467,0,0.767-0.233,0.9-0.7c0.133-0.433,0.033-0.783-0.3-1.05l0.2-0.25c0.133,0.5,0.483,0.733,1.05,0.7
				c0.6-0.067,0.9-0.383,0.9-0.95V-36c0-0.333-0.117-0.583-0.35-0.75c-0.133-0.5-0.433-0.75-0.9-0.75c-0.6,0-0.933,0.3-1,0.9
				c-0.133-0.1-0.3-0.15-0.5-0.15c-0.5,0-0.817,0.217-0.95,0.65c-0.133,0.434-0.033,0.8,0.3,1.1
				C40.517-34.733,40.417-34.383,40.55-33.95z"/>
			<path style="fill-rule:evenodd;clip-rule:evenodd;fill:#C1DAE8;" d="M42.25-31.5c-0.633,0-0.95,0.333-0.95,1s0.317,1,0.95,1
				s0.95-0.333,0.95-1S42.883-31.5,42.25-31.5z"/>
			<path style="fill-rule:evenodd;clip-rule:evenodd;fill:#C1DAE8;" d="M46.75-29.5c0-0.667-0.333-1-1-1s-1,0.333-1,1v0.75
				c0,0.633,0.333,0.95,1,0.95s1-0.317,1-0.95V-29.5z"/>
			<path style="fill-rule:evenodd;clip-rule:evenodd;fill:#C1DAE8;" d="M46.75-34.75c-0.633,0-0.95,0.333-0.95,1s0.317,1,0.95,1
				s0.95-0.333,0.95-1S47.383-34.75,46.75-34.75z"/>
			<path style="fill-rule:evenodd;clip-rule:evenodd;fill:#C1DAE8;" d="M49.25-31c-0.633,0-0.95,0.333-0.95,1s0.317,1,0.95,1
				s0.95-0.333,0.95-1S49.883-31,49.25-31z"/>
			<path style="fill-rule:evenodd;clip-rule:evenodd;fill:#C1DAE8;" d="M51-35.5c-0.633,0-0.95,0.333-0.95,1s0.317,1,0.95,1
				s0.95-0.333,0.95-1S51.633-35.5,51-35.5z"/>
			<path style="fill-rule:evenodd;clip-rule:evenodd;fill:#C1DAE8;" d="M44-33.5c-0.633,0-0.95,0.333-0.95,1s0.317,1,0.95,1
				s0.95-0.333,0.95-1S44.633-33.5,44-33.5z"/>
			<path style="fill-rule:evenodd;clip-rule:evenodd;fill:#C1DAE8;" d="M47-38c0-0.667-0.333-1-1-1s-1,0.333-1,1v0.25
				c0,0.633,0.333,0.95,1,0.95s1-0.317,1-0.95V-38z"/>
			<path style="fill-rule:evenodd;clip-rule:evenodd;fill:#C1DAE8;" d="M43.75-39.75c-0.633,0-0.95,0.333-0.95,1s0.317,1,0.95,1
				s0.95-0.333,0.95-1S44.383-39.75,43.75-39.75z"/>
			<path style="fill-rule:evenodd;clip-rule:evenodd;fill:#C1DAE8;" d="M41.25-41.25v-0.5c0-0.667-0.333-1-1-1s-1,0.333-1,1v0.5
				c0,0.633,0.333,0.95,1,0.95S41.25-40.617,41.25-41.25z"/>
			<path style="fill-rule:evenodd;clip-rule:evenodd;fill:#C1DAE8;" d="M40-45.25c-0.633,0-0.95,0.333-0.95,1s0.317,1,0.95,1
				s0.95-0.333,0.95-1S40.633-45.25,40-45.25z"/>
			<path style="fill-rule:evenodd;clip-rule:evenodd;fill:#C1DAE8;" d="M43-43c-0.633,0-0.95,0.333-0.95,1s0.317,1,0.95,1
				s0.95-0.333,0.95-1S43.633-43,43-43z"/>
			<path style="fill-rule:evenodd;clip-rule:evenodd;fill:#C1DAE8;" d="M44.75-46.25v0.05c-0.233-0.066-0.417-0.083-0.55-0.05
				c-0.267,0.1-0.45,0.25-0.55,0.45c-0.1-0.467-0.4-0.7-0.9-0.7c-0.633,0-0.95,0.333-0.95,1s0.317,1,0.95,1
				c0.3,0,0.567-0.15,0.8-0.45c0,0.133,0.05,0.25,0.15,0.35l0.1,0.15c0.067,0.233,0.233,0.417,0.5,0.55
				c0.233,0.133,0.467,0.167,0.7,0.1c0.6-0.167,0.833-0.583,0.7-1.25c0.667,0.133,1.083-0.1,1.25-0.7
				c0.133-0.533-0.034-0.917-0.5-1.15c-0.3-0.333-0.667-0.434-1.1-0.3C44.917-47.067,44.717-46.75,44.75-46.25z"/>
			<path style="fill-rule:evenodd;clip-rule:evenodd;fill:#C1DAE8;" d="M46.25-41.5c0.633,0,0.95-0.333,0.95-1s-0.317-1-0.95-1
				s-0.95,0.333-0.95,1S45.617-41.5,46.25-41.5z"/>
			<path style="fill-rule:evenodd;clip-rule:evenodd;fill:#C1DAE8;" d="M48.25-41.25c-0.633,0-0.95,0.333-0.95,1s0.317,1,0.95,1
				s0.95-0.333,0.95-1S48.883-41.25,48.25-41.25z"/>
			<path style="fill-rule:evenodd;clip-rule:evenodd;fill:#C1DAE8;" d="M50.5-40.5c-0.633,0-0.95,0.333-0.95,1s0.317,1,0.95,1
				s0.95-0.333,0.95-1S51.133-40.5,50.5-40.5z"/>
			<path style="fill-rule:evenodd;clip-rule:evenodd;fill:#C1DAE8;" d="M48.25-44.5c0.633,0,0.95-0.333,0.95-1s-0.317-1-0.95-1
				s-0.95,0.333-0.95,1S47.617-44.5,48.25-44.5z"/>
			<path style="fill-rule:evenodd;clip-rule:evenodd;fill:#C1DAE8;" d="M50.3-44.35c-0.133-0.1-0.316-0.15-0.55-0.15
				c-0.633,0-0.95,0.333-0.95,1s0.317,1,0.95,1c0.3,0,0.55-0.133,0.75-0.4c0.267,0.333,0.617,0.433,1.05,0.3
				c0.467-0.133,0.7-0.433,0.7-0.9V-44c0-0.6-0.283-0.933-0.85-1C50.833-45.067,50.467-44.85,50.3-44.35z"/>
			<path style="fill-rule:evenodd;clip-rule:evenodd;fill:#C1DAE8;" d="M53.5-46.4c0.167,0.267,0.417,0.4,0.75,0.4
				c0.633,0,0.95-0.333,0.95-1s-0.317-1-0.95-1c-0.367,0-0.617,0.117-0.75,0.35C53.3-47.883,53.05-48,52.75-48l-0.5,0.1
				c-0.167-0.233-0.417-0.35-0.75-0.35c-0.633,0-0.95,0.333-0.95,1s0.317,1,0.95,1l0.45-0.15c0.2,0.267,0.466,0.4,0.8,0.4
				C53.05-46,53.3-46.133,53.5-46.4z"/>
			<path style="fill-rule:evenodd;clip-rule:evenodd;fill:#C1DAE8;" d="M40-47.25c-0.633,0-0.95,0.333-0.95,1s0.317,1,0.95,1
				s0.95-0.333,0.95-1S40.633-47.25,40-47.25z"/>
			<path style="fill-rule:evenodd;clip-rule:evenodd;fill:#C1DAE8;" d="M40-50.75c-0.633,0-0.95,0.333-0.95,1s0.317,1,0.95,1
				s0.95-0.333,0.95-1S40.633-50.75,40-50.75z"/>
			<path style="fill-rule:evenodd;clip-rule:evenodd;fill:#C1DAE8;" d="M42.5-51.25c-0.633,0-0.95,0.333-0.95,1s0.317,1,0.95,1
				s0.95-0.333,0.95-1S43.133-51.25,42.5-51.25z"/>
			<path style="fill-rule:evenodd;clip-rule:evenodd;fill:#C1DAE8;" d="M42.25-47c0.633,0,0.95-0.333,0.95-1s-0.317-1-0.95-1
				s-0.95,0.333-0.95,1S41.617-47,42.25-47z"/>
			<path style="fill-rule:evenodd;clip-rule:evenodd;fill:#C1DAE8;" d="M37-52.25c-0.633,0-0.95,0.333-0.95,1s0.317,1,0.95,1
				s0.95-0.333,0.95-1S37.633-52.25,37-52.25z"/>
			<path style="fill-rule:evenodd;clip-rule:evenodd;fill:#C1DAE8;" d="M36.25-55.3L36-54.55c-0.067,0.7,0.167,1.117,0.7,1.25
				c0.267,0.066,0.533,0.033,0.8-0.1s0.417-0.333,0.45-0.6l0.25-0.75c0.066-0.7-0.167-1.117-0.7-1.25
				c-0.267-0.067-0.517-0.033-0.75,0.1C36.45-55.767,36.283-55.567,36.25-55.3z"/>
			<path style="fill-rule:evenodd;clip-rule:evenodd;fill:#C1DAE8;" d="M40.1-53.55c-0.333,0.267-0.434,0.633-0.3,1.1
				c0.133,0.467,0.45,0.7,0.95,0.7c0.6,0,0.917-0.317,0.95-0.95c0-0.667-0.284-1.017-0.85-1.05c0.2-0.2,0.316-0.367,0.35-0.5v-0.1
				c0.4-0.433,0.4-0.867,0-1.3c-0.4-0.434-0.817-0.5-1.25-0.2L40-56v-0.75c0-0.433-0.2-0.733-0.6-0.9c-0.367-0.167-0.7-0.133-1,0.1
				L38.5-58l-0.05-0.2c0.167,0.3,0.433,0.45,0.8,0.45c0.633,0,0.95-0.333,0.95-1s-0.317-1-0.95-1c-0.333,0-0.583,0.117-0.75,0.35
				c-0.2,0.2-0.267,0.45-0.2,0.75c-0.233-0.367-0.5-0.567-0.8-0.6c-0.667-0.133-1.083,0.1-1.25,0.7
				c-0.133,0.533,0.033,0.917,0.5,1.15c0.4,0.4,0.85,0.45,1.35,0.15c-0.067,0.1-0.1,0.267-0.1,0.5V-56c0,0.367,0.15,0.633,0.45,0.8
				c0.3,0.167,0.6,0.184,0.9,0.05l-0.1,0.35c-0.067,0.7,0.167,1.117,0.7,1.25H40.1z"/>
			<path style="fill-rule:evenodd;clip-rule:evenodd;fill:#C1DAE8;" d="M42.6-58.95c-0.167-0.367-0.45-0.55-0.85-0.55
				c-0.633,0-0.95,0.333-0.95,1s0.317,1,0.95,1c0,0.633,0.333,0.95,1,0.95s1-0.317,1-0.95V-58c0-0.367-0.117-0.633-0.35-0.8
				C43.167-58.967,42.9-59.017,42.6-58.95z"/>
			<path style="fill-rule:evenodd;clip-rule:evenodd;fill:#C1DAE8;" d="M43.25-53.25c0.633,0,0.95-0.333,0.95-1s-0.317-1-0.95-1
				s-0.95,0.333-0.95,1S42.617-53.25,43.25-53.25z"/>
			<path style="fill-rule:evenodd;clip-rule:evenodd;fill:#C1DAE8;" d="M47.25-50.25c0.633,0,0.95-0.333,0.95-1s-0.317-1-0.95-1
				s-0.95,0.333-0.95,1S46.617-50.25,47.25-50.25z"/>
			<path style="fill-rule:evenodd;clip-rule:evenodd;fill:#C1DAE8;" d="M50.75-49.8c0.533-0.133,0.767-0.55,0.7-1.25L51.2-51.8
				c-0.034-0.233-0.167-0.417-0.4-0.55c-0.2-0.133-0.417-0.183-0.65-0.15c0.067-0.3,0.033-0.583-0.1-0.85
				c-0.167-0.267-0.433-0.4-0.8-0.4c-0.633,0-0.95,0.333-0.95,1s0.317,1,0.95,1l0.05-0.05l-0.05,0.55l0.25,0.75
				c0.033,0.267,0.2,0.467,0.5,0.6C50.233-49.767,50.483-49.733,50.75-49.8z"/>
			<path style="fill-rule:evenodd;clip-rule:evenodd;fill:#C1DAE8;" d="M47.25-56.25c0.633,0,0.95-0.333,0.95-1s-0.317-1-0.95-1
				s-0.95,0.333-0.95,1S46.617-56.25,47.25-56.25z"/>
			<path style="fill-rule:evenodd;clip-rule:evenodd;fill:#C1DAE8;" d="M46-53.25c0.633,0,0.95-0.333,0.95-1s-0.317-1-0.95-1
				s-0.95,0.333-0.95,1S45.367-53.25,46-53.25z"/>
			<path style="fill-rule:evenodd;clip-rule:evenodd;fill:#C1DAE8;" d="M44.5-49.5c0.633,0,0.95-0.333,0.95-1s-0.317-1-0.95-1
				s-0.95,0.333-0.95,1S43.867-49.5,44.5-49.5z"/>
			<path style="fill-rule:evenodd;clip-rule:evenodd;fill:#C1DAE8;" d="M47.8-49.25c0,0.667,0.317,1,0.95,1s0.95-0.333,0.95-1
				s-0.317-1-0.95-1S47.8-49.917,47.8-49.25z"/>
			<path style="fill-rule:evenodd;clip-rule:evenodd;fill:#C1DAE8;" d="M51.5-54.25c0.633,0,0.95-0.333,0.95-1s-0.317-1-0.95-1
				s-0.95,0.333-0.95,1S50.867-54.25,51.5-54.25z"/>
			<path style="fill-rule:evenodd;clip-rule:evenodd;fill:#C1DAE8;" d="M56.2-55l-0.5-0.5c-0.3-0.3-0.633-0.367-1-0.2
				c-0.367,0.133-0.6,0.383-0.7,0.75L53.75-55c-0.633,0-0.95,0.333-0.95,1s0.317,1,0.95,1c0.467,0,0.767-0.233,0.9-0.7l0.1,0.15
				c0.467,0.433,0.933,0.417,1.4-0.05C56.65-54.067,56.667-54.533,56.2-55z"/>
			<path style="fill-rule:evenodd;clip-rule:evenodd;fill:#C1DAE8;" d="M51-57.25c0.633,0,0.95-0.333,0.95-1s-0.317-1-0.95-1h-0.75
				c-0.633,0-0.95,0.333-0.95,1s0.317,1,0.95,1H51z"/>
			<path style="fill-rule:evenodd;clip-rule:evenodd;fill:#C1DAE8;" d="M35.75-60c0.633,0,0.95-0.333,0.95-1s-0.317-1-0.95-1
				s-0.95,0.333-0.95,1S35.117-60,35.75-60z"/>
			<path style="fill-rule:evenodd;clip-rule:evenodd;fill:#C1DAE8;" d="M34.7-62.55c0.167-0.2,0.267-0.45,0.3-0.75
				c0-0.3-0.1-0.534-0.3-0.7c-0.167-0.133-0.417-0.3-0.75-0.5c-0.5-0.4-0.983-0.4-1.45,0c-0.167,0.2-0.267,0.45-0.3,0.75
				c0,0.3,0.1,0.533,0.3,0.7c0.367,0.2,0.617,0.367,0.75,0.5C33.75-62.15,34.233-62.15,34.7-62.55z"/>
			<path style="fill-rule:evenodd;clip-rule:evenodd;fill:#C1DAE8;" d="M30.7-64.8c-0.133-0.534-0.55-0.767-1.25-0.7l-0.75,0.25
				c-0.267,0.033-0.467,0.183-0.6,0.45c-0.133,0.267-0.167,0.533-0.1,0.8c0.133,0.533,0.55,0.767,1.25,0.7L30-63.55
				c0.267-0.034,0.467-0.2,0.6-0.5C30.733-64.283,30.767-64.533,30.7-64.8z"/>
			<path style="fill-rule:evenodd;clip-rule:evenodd;fill:#C1DAE8;" d="M26.75-64.75c-0.233,0-0.433,0.05-0.6,0.15
				c0.067-0.2,0.033-0.417-0.1-0.65c0.167-0.333,0.184-0.667,0.05-1c-0.167-0.333-0.45-0.5-0.85-0.5c-0.433,0-0.717,0.167-0.85,0.5
				c-0.167,0.333-0.167,0.667,0,1c-0.167,0.3-0.167,0.617,0,0.95c0.133,0.367,0.417,0.55,0.85,0.55c0.167,0,0.35-0.067,0.55-0.2
				c-0.066,0.3-0.017,0.567,0.15,0.8c0.167,0.267,0.433,0.4,0.8,0.4H27c0.633,0,0.95-0.333,0.95-1s-0.317-1-0.95-1H26.75z"/>
			<path style="fill-rule:evenodd;clip-rule:evenodd;fill:#C1DAE8;" d="M29.25-67.05c-0.067,0.233-0.033,0.466,0.1,0.7
				c0.1,0.267,0.267,0.434,0.5,0.5l0.6,0.3c0.667,0.133,1.083-0.1,1.25-0.7c0.066-0.233,0.033-0.467-0.1-0.7
				c-0.1-0.267-0.267-0.433-0.5-0.5l-0.6-0.3C29.833-67.883,29.417-67.65,29.25-67.05z"/>
			<path style="fill-rule:evenodd;clip-rule:evenodd;fill:#C1DAE8;" d="M35.25-64.5c0.633,0,0.95-0.333,0.95-1s-0.317-1-0.95-1
				s-0.95,0.333-0.95,1S34.617-64.5,35.25-64.5z"/>
			<path style="fill-rule:evenodd;clip-rule:evenodd;fill:#C1DAE8;" d="M43.25-61.75c0.633,0,0.95-0.333,0.95-1s-0.317-1-0.95-1
				l-0.5,0.1C42.583-63.883,42.333-64,42-64c-0.633,0-0.95,0.333-0.95,1s0.317,1,0.95,1l0.45-0.15
				C42.65-61.883,42.917-61.75,43.25-61.75z"/>
			<path style="fill-rule:evenodd;clip-rule:evenodd;fill:#C1DAE8;" d="M14.5-59.5c0.633,0,0.95-0.333,0.95-1s-0.317-1-0.95-1
				s-0.95,0.333-0.95,1S13.867-59.5,14.5-59.5z"/>
			<path style="fill-rule:evenodd;clip-rule:evenodd;fill:#C1DAE8;" d="M12.6-55.65c0.133,0.433,0.433,0.65,0.9,0.65
				c0.5,0,0.8-0.267,0.9-0.8c0.1-0.5-0.05-0.867-0.45-1.1c0.167-0.167,0.267-0.4,0.3-0.7c0-0.267-0.1-0.483-0.3-0.65
				c-0.434-0.333-0.917-0.5-1.45-0.5c-0.633-0.033-0.95,0.283-0.95,0.95c0,0.667,0.317,1.017,0.95,1.05h0.1l0.15,0.05
				C12.517-56.367,12.467-56.017,12.6-55.65z"/>
			<path style="fill-rule:evenodd;clip-rule:evenodd;fill:#C1DAE8;" d="M11.4-58.85c0.5-0.467,0.517-0.933,0.05-1.4L11.2-60.5
				c-0.133-0.1-0.317-0.183-0.55-0.25c0.067-0.3,0.033-0.583-0.1-0.85c-0.167-0.267-0.433-0.4-0.8-0.4c-0.6,0-0.933,0.3-1,0.9
				c-0.033,0.6,0.233,0.95,0.8,1.05c-0.133,0.367-0.066,0.7,0.2,1L10-58.8C10.467-58.367,10.933-58.383,11.4-58.85z"/>
			<path style="fill-rule:evenodd;clip-rule:evenodd;fill:#C1DAE8;" d="M7.75-59.25c0.633,0,0.95-0.333,0.95-1s-0.317-1-0.95-1
				s-0.95,0.333-0.95,1S7.117-59.25,7.75-59.25z"/>
			<path style="fill-rule:evenodd;clip-rule:evenodd;fill:#C1DAE8;" d="M4.5-57.75c0.633,0,0.95-0.333,0.95-1s-0.317-1-0.95-1
				s-0.95,0.333-0.95,1S3.867-57.75,4.5-57.75z"/>
			<path style="fill-rule:evenodd;clip-rule:evenodd;fill:#C1DAE8;" d="M1-59c0.633,0,0.95-0.333,0.95-1S1.633-61,1-61
				s-0.95,0.333-0.95,1S0.367-59,1-59z"/>
			<path style="fill-rule:evenodd;clip-rule:evenodd;fill:#C1DAE8;" d="M14-62.25c0.633,0,0.95-0.333,0.95-1s-0.317-1-0.95-1
				s-0.95,0.333-0.95,1S13.367-62.25,14-62.25z"/>
			<path style="fill-rule:evenodd;clip-rule:evenodd;fill:#C1DAE8;" d="M17.75-61.25c0.633,0,0.95-0.333,0.95-1s-0.317-1-0.95-1
				c-0.3,0-0.517,0.067-0.65,0.2c-0.133-0.133-0.333-0.2-0.6-0.2c-0.633,0-0.95,0.333-0.95,1s0.317,1,0.95,1
				c0.233,0,0.433-0.083,0.6-0.25C17.267-61.333,17.483-61.25,17.75-61.25z"/>
		</g>
	</g>
</symbol>
<symbol  id="flash0.ai_x5F_20_x2F_Layer_114_x2F__x3C_Path_x3E_" viewBox="0.034 -22.6 77.716 22.588">
	<g id="Layer_1_2_">
		<path style="fill-rule:evenodd;clip-rule:evenodd;" d="M71-1.2c1.433-0.3,2.4-0.6,2.9-0.9c0.267-0.167,0.717-0.45,1.35-0.85
			c0.867-0.433,1.467-0.85,1.8-1.25c0.467-0.533,0.7-1.2,0.7-2c-0.167-1.833-0.583-3-1.25-3.5c-0.9-0.667-2.317-1.833-4.25-3.5
			c-0.667-0.333-1.167-0.75-1.5-1.25c-0.167-0.267-0.583-0.533-1.25-0.8c-0.867-0.333-1.533-0.65-2-0.95
			c-0.533-0.367-1.467-0.566-2.8-0.6c-1.867-0.034-3.35-0.167-4.45-0.4c-1.233-0.267-2.433-0.566-3.6-0.9
			c-1.167-0.333-2.383-0.617-3.65-0.85c-1.533-0.3-2.467-0.6-2.8-0.9c-0.367-0.5-0.934-1.033-1.7-1.6
			c-0.967-0.767-2.65-1.15-5.05-1.15c-3.034,0.167-5.35,0.3-6.95,0.4c-1.7,0.1-3.4,0.3-5.1,0.6c-1.5,0.267-2.633,0.4-3.4,0.4
			c-1.067,0-1.933,0.05-2.6,0.15c-0.667,0.133-1.217,0.25-1.65,0.35c-0.733,0.133-1.667,0.417-2.8,0.85
			c-1.267,0.467-2.25,0.934-2.95,1.4c-1.2,0.8-4.033,1.717-8.5,2.75c-1.1,0.233-2.15,0.767-3.15,1.6
			c-0.967,0.833-1.583,1.633-1.85,2.4c-0.167,0.5-0.217,0.717-0.15,0.65c0.2-0.2,0.333-0.167,0.4,0.1
			c0.1,0.333-0.183,0.633-0.85,0.9C2.8-9.65,1.833-9.283,1-8.95c-1.067,0.434-1.25,0.967-0.55,1.6c1.033,0.667,1.716,1.133,2.05,1.4
			C2.833-5.717,3.233-5.4,3.7-5c0.4,0.267,0.917,0.45,1.55,0.55L7-4.2l0.75,0.5c0.4,0.267,1.1,0.434,2.1,0.5
			c1.066,0.067,2.183-0.017,3.35-0.25c0.566-0.1,3.2,0.15,7.9,0.75c6.033,0.8,12.167,1.3,18.4,1.5c5.4,0.167,9.95,0.483,13.65,0.95
			c2.1,0.3,4.467,0.317,7.1,0.05c2.233-0.2,4.55-0.367,6.95-0.5C68.467-0.767,69.733-0.933,71-1.2z"/>
	</g>
</symbol>
<symbol  id="flash0.ai_x5F_20_x2F_Layer_114_x2F__x3C_Path_x3E__x5F_0" viewBox="0 -82 64.5 82">
	<g id="Layer_1_5_">
		
			<radialGradient id="SVGID_1_" cx="32.25" cy="-41" r="30.0225" gradientTransform="matrix(1 0 0 -1.245 0 -92.0439)" gradientUnits="userSpaceOnUse">
			<stop  offset="0" style="stop-color:#FFFFFF"/>
			<stop  offset="1" style="stop-color:#FFFFFF;stop-opacity:0"/>
		</radialGradient>
		<path style="fill-rule:evenodd;clip-rule:evenodd;fill:url(#SVGID_1_);" d="M64.5-41c0-11.333-3.15-21-9.45-29
			c-6.3-8-13.9-12-22.8-12c-8.933,0-16.533,4-22.8,12C3.15-62,0-52.333,0-41c0,11.3,3.15,20.95,9.45,28.95
			C15.75-4.017,23.35,0,32.25,0s16.5-4.017,22.8-12.05C61.35-20.05,64.5-29.7,64.5-41z"/>
	</g>
</symbol>
<g>
	<g>
		
			<use xlink:href="#flash0.ai_x5F_20_x2F_Layer_114_x2F__x3C_Path_x3E_"  width="77.716" height="22.588" x="0.034" y="-22.6" transform="matrix(1 0 0 -1 -0.0498 62.7998)" style="overflow:visible;opacity:0.1406;enable-background:new    ;"/>
	</g>
	<g>
		
			<radialGradient id="SVGID_2_" cx="39.3252" cy="47.5488" r="35.0022" gradientTransform="matrix(1 0 0 -1 0 95.0977)" gradientUnits="userSpaceOnUse">
			<stop  offset="0" style="stop-color:#B4CCDB"/>
			<stop  offset="1" style="stop-color:#99BCD1"/>
		</radialGradient>
		<path style="fill-rule:evenodd;clip-rule:evenodd;fill:url(#SVGID_2_);" d="M47.4,12.15c0.733,3.167,1.3,6.25,1.699,9.25
			c0.2,1.5,0.367,3.333,0.5,5.5c0.134,1.8,0.434,3.434,0.9,4.9c0.467,1.534,1.417,2.784,2.85,3.75c0.733,0.5,1.4,0.833,2,1l4.5-1.4
			l1.551,1.3c1.066,1.167,1.783,2.517,2.149,4.05c0,0.033,0.4,2.667,1.2,7.9c0.566,3.966,1.3,6.949,2.2,8.949
			c1.533,3.367,3.533,6.65,6,9.851c-0.334,1.233-0.967,2.517-1.9,3.85c-1.833,2.7-4.233,4.4-7.2,5.101l-7.1,1.699
			c-0.9,0.667-1.983,1.334-3.25,2c-2.566,1.367-4.8,2.101-6.7,2.2c-0.666,0.033-2.399,0.483-5.2,1.351c-2,0.6-4.333,0.633-7,0.1
			c-4.033-0.866-6.6-1.45-7.7-1.75c-1.833-0.5-3.333-1.134-4.5-1.9c-1-0.666-2.833-1.449-5.5-2.35c-3.233-1.066-5.083-1.7-5.55-1.9
			c-1.067-0.466-2.333-1.533-3.8-3.199L5.7,70c2.333-1.9,3.767-3.15,4.3-3.75c1.333-1.467,2.633-3.5,3.9-6.1
			c1.033-2.134,1.95-3.45,2.75-3.95c1.167-0.667,2.233-1.684,3.2-3.05c2.7-3.801,4.233-6.051,4.6-6.75
			c1.333-2.5,1.883-5.034,1.65-7.601c-0.233-2.333-0.117-4.3,0.35-5.9c0.833-3.167,1.283-4.933,1.35-5.3
			c0.567-3.4,1.133-6.6,1.7-9.6c1.767-1.5,4.517-3.183,8.25-5.05c2.833-1.4,5.3-1.95,7.4-1.65
			C46.184,11.433,46.934,11.717,47.4,12.15z"/>
		<path style="fill-rule:evenodd;clip-rule:evenodd;fill:#CCE0ED;" d="M47.4,12.15c0.733,3.167,1.3,6.25,1.699,9.25
			c0.2,1.5,0.367,3.333,0.5,5.5c0.134,1.8,0.434,3.434,0.9,4.9c0.467,1.534,1.417,2.784,2.85,3.75c0.733,0.5,1.4,0.833,2,1l4.5-1.4
			l1.551,1.3c1.066,1.167,1.783,2.517,2.149,4.05c0.167,0.733,0.467,2.684,0.9,5.85c0.399,3.067,0.816,5.483,1.25,7.25
			C59.467,60.8,52.384,68.267,44.45,76l1.5-9c0.3-1.9,0.316-4.333,0.05-7.3c-0.366-3.767-0.55-5.75-0.55-5.95
			c0-0.5,0.2-1.934,0.6-4.3c0.267-1.533,0.15-2.601-0.35-3.2c-0.533-0.634-1.316-0.65-2.351-0.05c-0.5,0.3-0.966,0.649-1.399,1.05
			c0-1.167-0.084-2.5-0.25-4c-0.066-0.7-0.601-2.7-1.601-6c-1.066-3.633-1.783-6.383-2.149-8.25c-0.4-2.2-0.6-4.65-0.6-7.35l0.1-3.4
			c-1,0.167-2.417,0.583-4.25,1.25c-1.1,0.4-1.717,0.767-1.85,1.1c-0.1,0.7-0.4,1.5-0.9,2.4c-0.5,0.933-0.967,2.6-1.4,5
			c-0.5,2.8-1.033,4.967-1.6,6.5c-0.567,1.6-1.017,3.067-1.35,4.4v-0.1c-0.233-2.333-0.117-4.3,0.35-5.9
			c0.833-3.167,1.283-4.933,1.35-5.3c0.567-3.4,1.133-6.6,1.7-9.6c1.767-1.5,4.517-3.183,8.25-5.05c2.833-1.4,5.3-1.95,7.4-1.65
			C46.184,11.433,46.934,11.717,47.4,12.15z"/>
		<g>
			<path style="fill-rule:evenodd;clip-rule:evenodd;fill:#91AEBD;" d="M42.45,14.75c1.399-1.633,3.05-2.45,4.95-2.45
				c0.767,3.034,1.333,6.067,1.699,9.1c0.2,1.5,0.367,3.333,0.5,5.5c0.134,1.8,0.434,3.434,0.9,4.9
				c0.467,1.534,1.417,2.784,2.85,3.75c0.733,0.5,1.4,0.833,2,1h0.101c-0.334,0.267-0.834,0.583-1.5,0.95
				c-2.834,1.6-4.667,2.683-5.5,3.25c-1.134,0.7-1.917,1.217-2.351,1.55c-0.8,0.5-1.35,1.066-1.649,1.7
				c-0.5,1-1.417,2.583-2.75,4.75V41.5c0-0.9-0.217-2.233-0.65-4c-0.467-1.9-0.75-3.483-0.85-4.75c-0.066-0.967-0.267-2.3-0.601-4
				C39.333,27.35,39.2,25.767,39.2,24v-6.5l0.95-0.6C40.95,16.3,41.717,15.583,42.45,14.75z"/>
			<path style="fill-rule:evenodd;clip-rule:evenodd;fill:#91AEBD;" d="M63.55,40.5c0,0.033,0.4,2.667,1.2,7.9
				c0.566,3.966,1.3,6.949,2.2,8.949c1.533,3.367,3.533,6.65,6,9.851c-0.334,1.233-0.967,2.517-1.9,3.85
				c-1.833,2.7-4.233,4.4-7.2,5.101l-7.1,1.699c-0.9,0.667-1.983,1.334-3.25,2c-2.566,1.367-4.8,2.101-6.7,2.2
				c-0.666,0.033-2.399,0.483-5.2,1.351c-2,0.6-4.333,0.633-7,0.1c-4.033-0.866-6.6-1.45-7.7-1.75c-1.833-0.5-3.333-1.134-4.5-1.9
				c-1-0.666-2.833-1.449-5.5-2.35c-3.233-1.066-5.083-1.7-5.55-1.9c-1.067-0.466-2.333-1.533-3.8-3.199L5.7,70l1.35-1.1
				c0.367,0.833,0.867,1.416,1.5,1.75c0.833,0.433,2.217,0.716,4.15,0.85c2.4,0.2,4.417,0.017,6.05-0.55l2.7-0.95
				c0.5,0,1.367-0.2,2.6-0.6c1.1-0.233,1.9,0.05,2.4,0.85c0.433,0.667,1.066,1.967,1.9,3.9c1.1,1.566,2.967,2.35,5.6,2.35
				c2.1,0,4.55,0.217,7.35,0.65c1.934,0,3.316-1.051,4.15-3.15c0.833-2.134,1.434-4.55,1.8-7.25C47.483,63.917,47.634,62,47.7,61
				c0.066-0.833-0.066-2.35-0.4-4.55c-0.267-1.667-0.217-2.733,0.15-3.2c0-0.033,0.383-1.733,1.149-5.1
				c0.634-3.034,1.75-5,3.351-5.9c1.333-0.767,2.6-1.217,3.8-1.35c0.967-0.1,1.866-0.483,2.7-1.15
				c1.333-1.033,2.133-2.317,2.399-3.85C62.25,37.133,63.15,38.667,63.55,40.5z"/>
		</g>
	</g>
	<g>
		
			<use xlink:href="#flash0.ai_x5F_20_x2F_Layer_114_x2F__x3C_Group_x3E_"  width="35.53" height="54.507" x="-0.013" y="-54.507" transform="matrix(1 0 0 -1 11.1499 20.75)" style="overflow:visible;opacity:0.5;enable-background:new    ;"/>
	</g>
	<g>
		
			<use xlink:href="#flash0.ai_x5F_20_x2F_Layer_114_x2F__x3C_Group_x3E__x5F_0"  width="56.488" height="67.786" x="0.05" y="-67.786" transform="matrix(1 0 0 -1 12.4502 13.75)" style="overflow:visible;opacity:0.4805;enable-background:new    ;"/>
	</g>
	<g>
		
			<use xlink:href="#flash0.ai_x5F_20_x2F_Layer_114_x2F__x3C_Path_x3E__x5F_0"  width="64.5" height="82" y="-82" transform="matrix(1 0 0 -1 8.7002 0)" style="overflow:visible;opacity:0.5898;enable-background:new    ;"/>
	</g>
</g>
</svg>
