<?xml version="1.0" encoding="iso-8859-1"?>
<!-- Generator: Adobe Illustrator 15.1.0, SVG Export Plug-In . SVG Version: 6.00 Build 0)  -->
<!DOCTYPE svg PUBLIC "-//W3C//DTD SVG 1.1//EN" "http://www.w3.org/Graphics/SVG/1.1/DTD/svg11.dtd">
<svg version="1.1" id="flash0.ai" xmlns="http://www.w3.org/2000/svg" xmlns:xlink="http://www.w3.org/1999/xlink" x="0px" y="0px"
	 width="84.65px" height="41.45px" viewBox="0 0 84.65 41.45" style="enable-background:new 0 0 84.65 41.45;" xml:space="preserve"
	>
<symbol  id="flash0.ai_x5F_4_x2F_Layer_64_x2F__x3C_Path_x3E_" viewBox="0 -18.75 67.75 18.801">
	<g id="Layer_1_3_">
		<path style="fill-rule:evenodd;clip-rule:evenodd;" d="M62.05-13.2l-0.55-0.15h-1.35c-1,0-1.7-0.4-2.1-1.2
			c-2.566-0.833-4.133-1.3-4.7-1.4c-0.8-0.133-1.333-0.533-1.6-1.2L46.85-18c-2.7-0.5-5.917-0.75-9.65-0.75
			c-4.267,0.067-7.483,0.117-9.65,0.15H27.4c-4.433,1.367-8,2.317-10.7,2.85l-1.45,0.8c-1.6,0.767-3.817,1.534-6.65,2.3
			c-3.533,0.967-5.817,1.633-6.85,2C1.117-9.717,0.533-8.933,0-8.3C0.5-6,0.683-3.983,0.55-2.25l2,0.7
			c3.267,1.1,8.034,1.633,14.3,1.6c5.733-0.066,11.217-0.566,16.45-1.5C34.7-1.717,40.017-2.567,49.25-4
			c6.167-0.967,9.933-1.7,11.3-2.2c2.733-1.033,4.883-1.933,6.45-2.7c-0.567-0.733-0.317-1.934,0.75-3.6
			c-0.933-0.067-1.85-0.217-2.75-0.45L62.05-13.2z"/>
	</g>
</symbol>
<symbol  id="flash0.ai_x5F_4_x2F_Layer_64_x2F__x3C_Path_x3E__x5F_0" viewBox="0 -12.85 30.15 12.85">
	<g id="Layer_1_4_">
		<path style="fill-rule:evenodd;clip-rule:evenodd;" d="M27-4.85c-0.633-0.4-1.533-0.683-2.7-0.85c-1.3-0.167-2.35-0.433-3.15-0.8
			c-2.566-1.167-4.783-1.833-6.65-2l-2.85-0.35c-0.9-1.667-1.95-2.6-3.15-2.8c-1.433-0.333-2.533-0.583-3.3-0.75
			c-1.434-0.3-2.45-0.45-3.05-0.45c-1,0-1.717,0.167-2.15,0.5c1.133,0.067,2.367,0.217,3.7,0.45c2.7,0.467,4.566,1.15,5.6,2.05
			c0.833,0.733,1.534,1.367,2.1,1.9c0.267,0.2,0.9,0.3,1.9,0.3c2.133,0,4.583,0.6,7.35,1.8c0.733,0.333,1.833,0.75,3.3,1.25
			c1,0.333,1.683,0.65,2.05,0.95l1,0.8c-0.667,0.767-1.567,1.434-2.7,2L22.65,0l1.85-0.85c1.433-0.6,2.6-1.033,3.5-1.3l2.15-0.7
			L27-4.85z"/>
	</g>
</symbol>
<symbol  id="flash0.ai_x5F_4_x2F_Layer_64_x2F__x3C_Path_x3E__x5F_1" viewBox="0.026 -18.75 73.524 18.801">
	<g id="Layer_1_2_">
		<path style="fill-rule:evenodd;clip-rule:evenodd;" d="M73.55-11.2c0-0.3-0.35-0.617-1.05-0.95l-0.65-0.3
			c-1.233-0.066-2.367-0.233-3.4-0.5L65.5-13.2l-0.55-0.15H63.6c-1,0-1.7-0.4-2.1-1.2c-2.567-0.833-4.133-1.3-4.7-1.4
			c-0.8-0.133-1.333-0.533-1.6-1.2L50.3-18c-2.7-0.5-5.917-0.75-9.65-0.75c-4.267,0.067-7.483,0.117-9.65,0.15h-0.15
			c-4.434,1.367-8,2.317-10.7,2.85l-1.45,0.8c-1.6,0.767-3.817,1.534-6.65,2.3c-3.533,0.967-5.816,1.633-6.85,2
			c-0.833,1.333-1.85,2.566-3.05,3.7C0.583-5.483-0.117-4.567,0.05-4.2C0.35-3.7,2.333-2.817,6-1.55c3.267,1.1,8.033,1.633,14.3,1.6
			c5.733-0.066,11.217-0.566,16.45-1.5C38.15-1.717,43.467-2.567,52.7-4c6.167-0.967,9.933-1.7,11.3-2.2
			c2.3-0.833,4.333-1.667,6.1-2.5C72.4-9.8,73.55-10.633,73.55-11.2z"/>
	</g>
</symbol>
<symbol  id="flash0.ai_x5F_4_x2F_Layer_64_x2F__x3C_Path_x3E__x5F_6" viewBox="0 -14.5 13.7 14.5">
	<g id="Layer_1_5_">
		<path style="fill-rule:evenodd;clip-rule:evenodd;fill:#FFFFFF;" d="M4-1.6C3.3-2.3,2.9-2.717,2.8-2.85
			c-0.3-0.433-0.316-0.733-0.05-0.9c0.233-0.133,0.567-0.483,1-1.05c0.233-0.3,0.6-0.784,1.1-1.45c0.3-0.333,0.533-0.817,0.7-1.45
			C5.65-8.067,5.8-8.617,6-9.35c0.167-0.5,0.55-1.017,1.15-1.55c0.367-0.3,0.917-0.7,1.65-1.2c0.667-0.5,2.3-1.3,4.9-2.4
			c-1.267,0.1-2.434,0.317-3.5,0.65c-2.067,0.633-3.15,0.967-3.25,1c-0.467,0.2-0.784,0.533-0.95,1
			c-0.333,0.833-0.55,1.333-0.65,1.5c-0.033,0.033-0.417,0.8-1.15,2.3c-0.534,1.1-1.1,1.867-1.7,2.3C1.5-4.983,0.667-4.433,0-4.1
			l2.35,2.6C3.183-0.567,4.483-0.067,6.25,0C5.317-0.5,4.567-1.033,4-1.6z"/>
	</g>
</symbol>
<g>
	<g>
		
			<use xlink:href="#flash0.ai_x5F_4_x2F_Layer_64_x2F__x3C_Path_x3E__x5F_1"  width="73.524" height="18.801" x="0.026" y="-18.75" transform="matrix(1 0 0 -1 4.5 20.2998)" style="overflow:visible;opacity:0.4219;enable-background:new    ;"/>
		
			<use xlink:href="#flash0.ai_x5F_4_x2F_Layer_64_x2F__x3C_Path_x3E_"  width="67.75" height="18.801" y="-18.75" transform="matrix(1 0 0 -1 7.9502 20.2998)" style="overflow:visible;opacity:0.2188;enable-background:new    ;"/>
	</g>
	<g>
		
			<use xlink:href="#flash0.ai_x5F_4_x2F_Layer_64_x2F__x3C_Path_x3E__x5F_0"  width="30.15" height="12.85" y="-12.85" transform="matrix(1 0 0 -1 54.5 28.5996)" style="overflow:visible;opacity:0.0781;enable-background:new    ;"/>
	</g>
	<g>
		<path style="fill-rule:evenodd;clip-rule:evenodd;fill:#C9CACC;" d="M66.25,20.75c0.533,0.467,1.3,1.684,2.3,3.65
			c0.934,1.866,1.75,3.066,2.45,3.6c1.333,1,2.333,2.333,3,4l-3.7,1.5H70l-0.55,0.15H68.1c-1,0-1.699,0.399-2.1,1.199
			c-2.566,0.834-4.134,1.301-4.7,1.4c-0.733,0.134-1.267,0.5-1.6,1.1l-0.55,0.2L54.8,38.3c-2.7,0.5-5.916,0.75-9.649,0.75
			c-4.267-0.066-7.484-0.116-9.65-0.149h-0.15c-4.434-1.367-8-2.317-10.7-2.851l-1.45-0.8c-1.5-0.733-4.133-1.616-7.9-2.65
			c-2.633-0.8-3.983-1.5-4.05-2.1c-0.1-0.634-0.633-1.733-1.6-3.3L8.25,25c0.167-0.467,0.433-0.983,0.8-1.55
			c0.767-1.101,1.667-1.917,2.7-2.45c1.933-0.967,2.983-1.5,3.15-1.6c0.9-0.5,1.517-0.967,1.85-1.4c0.367-0.9,0.767-1.717,1.2-2.45
			c0.8-1.4,2.066-2.667,3.8-3.8c1.633-1.033,3.233-2.283,4.8-3.75c2.034-1.9,3.434-3.15,4.2-3.75c1.167-0.9,1.933-1.55,2.3-1.95
			c0.133-0.1,0.534-0.367,1.2-0.8c1.333-0.833,3.083-1.333,5.25-1.5l2.3,1.1c1.834,1.133,3.483,2.683,4.95,4.65
			c1.2,1.633,2.65,3.317,4.35,5.05c1.2,1.233,1.834,2.05,1.9,2.45c0.267,1.4,1.1,3.067,2.5,5c0.533,0.733,1.517,1.167,2.95,1.3
			c0.733,0.067,1.416,0.05,2.05-0.05l2.2,0.05C64.333,19.717,65.517,20.117,66.25,20.75z"/>
		<g>
			<path style="fill-rule:evenodd;clip-rule:evenodd;fill:#ACADB1;" d="M64.55,21.9c0.733-0.301,1.783,0,3.15,0.899
				c0.333,0.634,0.833,1.601,1.5,2.9c0.6,1.1,1.2,1.866,1.8,2.3c1.333,1,2.333,2.333,3,4l-3.7,1.5H70l-0.55,0.15H68.1
				c-1,0-1.699,0.399-2.1,1.199c-2.566,0.834-4.134,1.301-4.7,1.4c-0.733,0.134-1.267,0.5-1.6,1.1l-0.55,0.2L54.8,38.3
				c-2.7,0.5-5.916,0.75-9.649,0.75c-4.267-0.066-7.484-0.116-9.65-0.149h-0.15c-4.434-1.367-8-2.317-10.7-2.851l-1.45-0.8
				c-1.5-0.733-4.133-1.616-7.9-2.65c-2.633-0.8-3.983-1.5-4.05-2.1c-0.1-0.533-0.517-1.45-1.25-2.75
				c-0.6-0.967-1.133-1.783-1.6-2.45c0.967-0.066,1.633-0.017,2,0.15c0.833,0.366,1.95,0.967,3.35,1.8
				c0.8,0.566,1.567,0.85,2.3,0.85c0.333,0,0.9,0.117,1.7,0.351c0.733,0.1,1.333-0.134,1.8-0.7c0.867-0.967,1.65-1.684,2.35-2.15
				c0.434-0.399,0.8-0.733,1.1-1c0.6-0.5,1.067-0.783,1.4-0.85c0.567-0.1,1.233-0.15,2-0.15c1.1,2.233,1.6,3.617,1.5,4.15
				c-0.066,0.4,0.217,1.033,0.85,1.9c0.567,0.767,1.067,1.3,1.5,1.6c0.4,0.333,1.183,0.517,2.35,0.55
				c1.433,0.033,2.816-0.2,4.15-0.7c1-0.366,1.833-0.517,2.5-0.449c0.233,0.033,0.4-0.2,0.5-0.7l1-5c-0.1-0.3-0.167-0.533-0.2-0.7
				c-0.033-0.267,0.25-0.7,0.85-1.3c0.467-0.467,1.167-0.983,2.1-1.55c0.7-0.4,1.116-0.784,1.25-1.15c0.233-0.667,0.4-1.167,0.5-1.5
				c0.2-0.633,0.3-1.183,0.3-1.65c0-1.167-0.267-2.217-0.8-3.15c-0.267-0.467-0.767-1.15-1.5-2.05c-0.967-1.233-1.533-1.95-1.7-2.15
				c-0.433-0.567-1.283-1.867-2.55-3.9c0.4,0.467,0.983,0.717,1.75,0.75c1.2,0.1,2.134,0.15,2.8,0.15l1.4,0.3
				c1.1,0.2,2.033,0.333,2.8,0.4l0.3,0.05c0.8,1,1.95,2.25,3.45,3.75c0.9,0.967,1.4,1.633,1.5,2c0.267,1.4,1.1,3.067,2.5,5
				c0.233,0.4,0.616,0.7,1.15,0.9c-0.567,1.4-1.101,2.383-1.601,2.95L53.9,23.75L53.8,26.3c0.101,1.733,0.517,2.783,1.25,3.15
				c1.233,0.533,2.184,0.8,2.851,0.8l2-2.65c0.399-0.466,1.033-0.866,1.899-1.199c0.733-0.267,1.15-0.534,1.25-0.801l0.851-3
				L64.55,21.9z"/>
		</g>
		<path style="fill-rule:evenodd;clip-rule:evenodd;fill:#83888C;" d="M64.55,21.9c0.733-0.301,1.783,0,3.15,0.899
			c0.333,0.634,0.833,1.601,1.5,2.9c0.6,1.1,1.2,1.866,1.8,2.3c1.333,1,2.333,2.333,3,4l-3.7,1.5H70l-0.55,0.15H68.1
			c-0.866,0-1.533,0.35-2,1.05c-1.033-0.233-1.816-0.25-2.35-0.05c-1.6,0.733-3.566,1.483-5.9,2.25c-1.267,0.399-2.716,0.5-4.35,0.3
			c-1.667-0.2-2.917-0.184-3.75,0.05c-4.733,1.3-7.316,1.767-7.75,1.4c-0.3-0.233-0.55-0.983-0.75-2.25
			C41.083,35.333,41,34.417,41,33.65c0-0.467-0.417-1.051-1.25-1.75L38.5,31l0.1-0.35c0.333-0.034,0.617-0.034,0.85,0
			c0.1,0,0.2-0.233,0.3-0.7l1-5l-0.05-0.3c0.233-1.067,0.783-1.9,1.649-2.5L42.4,22.1c0.366-0.233,0.866-0.533,1.5-0.899
			c0.433-0.3,0.716-0.617,0.85-0.95c0.233-0.667,0.4-1.167,0.5-1.5c0.2-0.633,0.3-1.183,0.3-1.65c0-1.167-0.267-2.217-0.8-3.15
			c-0.267-0.467-0.767-1.15-1.5-2.05c-0.967-1.233-1.533-1.95-1.7-2.15c-0.433-0.567-1.283-1.867-2.55-3.9
			c0.4,0.467,0.983,0.717,1.75,0.75c1.2,0.1,2.134,0.15,2.8,0.15l1.4,0.3c1.1,0.2,2.033,0.333,2.8,0.4l0.3,0.05
			c0.8,1,1.95,2.25,3.45,3.75c0.9,0.967,1.4,1.633,1.5,2c0.267,1.4,1.1,3.067,2.5,5c0.233,0.4,0.616,0.7,1.15,0.9
			c-0.567,1.4-1.101,2.383-1.601,2.95L53.9,23.75L53.8,26.3c0.101,1.733,0.517,2.783,1.25,3.15c1.233,0.533,2.184,0.8,2.851,0.8
			l2-2.65c0.399-0.466,1.033-0.866,1.899-1.199c0.733-0.267,1.15-0.534,1.25-0.801l0.851-3L64.55,21.9z"/>
		<g>
			<path style="fill-rule:evenodd;clip-rule:evenodd;fill:#73777A;" d="M59.55,35.95c0.5-0.434,0.816-0.733,0.95-0.9
				c0.2-0.3,0.283-0.616,0.25-0.95c-0.2-0.866-0.2-1.399,0-1.6c0.033,0.066,0.366,0.2,1,0.4c1.366,0.399,2.5,0.633,3.4,0.699
				c1.199,0.067,2.333-0.083,3.399-0.449c0.334-0.134,0.717-0.25,1.15-0.351c0.233-0.1,0.35-0.283,0.35-0.55l0.25-1.4l1.75,0.301
				C72.384,31.217,73.033,31.5,74,32l-3.7,1.5H70l-0.55,0.15H68.1c-1,0-1.699,0.399-2.1,1.199c-2.566,0.834-4.134,1.301-4.7,1.4
				c-0.733,0.134-1.267,0.5-1.6,1.1l-0.55,0.2L54.8,38.3c-2.7,0.5-5.916,0.75-9.649,0.75c-4.267-0.066-7.484-0.116-9.65-0.149h-0.15
				c-4.434-1.367-8-2.317-10.7-2.851l-1.45-0.8c-1.5-0.733-4.133-1.616-7.9-2.65c-2.633-0.8-3.983-1.5-4.05-2.1
				c-0.1-0.6-0.75-1.866-1.95-3.8c0.534,0.2,0.883,0.434,1.05,0.7c0.2,0.267,0.533,0.85,1,1.75c0.467,0.833,0.867,1.316,1.2,1.449
				c0.267,0.101,0.5,0.217,0.7,0.351c0.2,0.1,0.533,0.149,1,0.149c0.733,0,1.65-0.05,2.75-0.149c0.133,0.066,0.5,0.25,1.1,0.55
				c0.633,0.267,1.217,0.4,1.75,0.4c0.867,0,1.533-0.351,2-1.051l0.5,0.75c0.433,0.534,0.85,0.9,1.25,1.101
				c0.667,0.366,1.1,0.583,1.3,0.649c0.4,0.134,0.717,0.101,0.95-0.1c0.433-0.267,0.767-0.483,1-0.65
				c0.433-0.3,0.65-0.533,0.65-0.699l0.35-1.65l0.45,3.5c0,0.366,0.067,0.7,0.2,1c0.067,0.167,0.2,0.45,0.4,0.85
				c0.2,0.367,0.6,0.733,1.2,1.101c0.667,0.434,1.433,0.733,2.3,0.899c0.667,0.101,1.333,0.301,2,0.601
				c0.633,0.267,1.167,0.416,1.6,0.45c0.467,0.033,1.017,0.1,1.65,0.199c0.467,0.034,0.85,0,1.15-0.1c0.934-0.3,1.5-0.65,1.7-1.05
				l0.8-1.45l0.45,1c0.366,0.7,0.816,1.083,1.35,1.15c0.601,0.033,1.851-0.15,3.75-0.551c1.867-0.433,3.334-0.85,4.4-1.25
				c0.033,0,0.767-0.216,2.2-0.649c0.434-0.134,0.633-0.417,0.6-0.851l-0.2-1.85c0.067,0.5,0.301,1.134,0.7,1.9
				c0.434,0.8,0.7,1.267,0.8,1.399c0.233,0.267,0.584,0.384,1.051,0.351C57.866,36.833,58.917,36.517,59.55,35.95z"/>
		</g>
		
			<use xlink:href="#flash0.ai_x5F_4_x2F_Layer_64_x2F__x3C_Path_x3E__x5F_6"  width="13.7" height="14.5" y="-14.5" transform="matrix(1 0 0 -1 0 21.9502)" style="overflow:visible;opacity:0.0781;enable-background:new    ;"/>
		
			<linearGradient id="SVGID_1_" gradientUnits="userSpaceOnUse" x1="11.6772" y1="-23.8643" x2="16.2106" y2="-23.8643" gradientTransform="matrix(-0.1609 0.987 -0.987 -0.1609 3.660023e-004 1.128018e-005)">
			<stop  offset="0" style="stop-color:#92979C"/>
			<stop  offset="1" style="stop-color:#E3E4E6"/>
		</linearGradient>
		<path style="fill-rule:evenodd;clip-rule:evenodd;fill:url(#SVGID_1_);" d="M23.35,18.35c-0.167,0.7-0.517,1.25-1.05,1.65
			c-0.566,0.4-1.133,0.517-1.7,0.35c-0.567-0.133-0.983-0.517-1.25-1.15c-0.267-0.6-0.317-1.267-0.15-2c0.2-0.7,0.566-1.25,1.1-1.65
			c0.567-0.367,1.133-0.483,1.7-0.35c0.567,0.167,0.983,0.55,1.25,1.15S23.55,17.617,23.35,18.35z"/>
		
			<linearGradient id="SVGID_2_" gradientUnits="userSpaceOnUse" x1="18.543" y1="-33.9058" x2="23.444" y2="-33.9058" gradientTransform="matrix(0.0189 0.9998 -0.9998 0.0189 -3.637448e-004 -3.644023e-004)">
			<stop  offset="0" style="stop-color:#92979C"/>
			<stop  offset="1" style="stop-color:#E3E4E6"/>
		</linearGradient>
		<path style="fill-rule:evenodd;clip-rule:evenodd;fill:url(#SVGID_2_);" d="M36.6,20.75c-0.067,0.9-0.35,1.65-0.85,2.25
			s-1.067,0.866-1.7,0.8c-0.633-0.033-1.15-0.383-1.55-1.05S31.933,21.3,32,20.4s0.35-1.65,0.85-2.25
			c0.467-0.566,1.033-0.833,1.7-0.8c0.633,0.066,1.15,0.433,1.55,1.1C36.5,19.117,36.667,19.883,36.6,20.75z"/>
		
			<linearGradient id="SVGID_3_" gradientUnits="userSpaceOnUse" x1="26.7905" y1="-35.6816" x2="30.4677" y2="-35.6816" gradientTransform="matrix(0.0326 0.9995 -0.9995 0.0326 4.608706e-004 -4.199930e-004)">
			<stop  offset="0" style="stop-color:#92979C"/>
			<stop  offset="1" style="stop-color:#E3E4E6"/>
		</linearGradient>
		<path style="fill-rule:evenodd;clip-rule:evenodd;fill:url(#SVGID_3_);" d="M38.35,27.7c-0.033,0.633-0.25,1.149-0.65,1.55
			c-0.367,0.434-0.784,0.634-1.25,0.6c-0.467-0.033-0.85-0.283-1.15-0.75c-0.333-0.466-0.483-1.017-0.45-1.649
			c0.066-0.601,0.283-1.101,0.65-1.5c0.367-0.434,0.783-0.634,1.25-0.601c0.467,0.034,0.867,0.284,1.2,0.75
			C38.25,26.533,38.383,27.066,38.35,27.7z"/>
		
			<linearGradient id="SVGID_4_" gradientUnits="userSpaceOnUse" x1="2.335" y1="-32.7964" x2="5.9312" y2="-32.7964" gradientTransform="matrix(-0.1607 0.987 -0.987 -0.1607 -4.025400e-004 -9.347498e-005)">
			<stop  offset="0" style="stop-color:#92979C"/>
			<stop  offset="1" style="stop-color:#E3E4E6"/>
		</linearGradient>
		<path style="fill-rule:evenodd;clip-rule:evenodd;fill:url(#SVGID_4_);" d="M33.3,9.95c-0.167,0.667-0.466,1.183-0.9,1.55
			c-0.433,0.367-0.883,0.483-1.35,0.35c-0.433-0.1-0.75-0.417-0.95-0.95c-0.2-0.533-0.217-1.133-0.05-1.8
			c0.133-0.633,0.434-1.15,0.9-1.55c0.433-0.367,0.883-0.483,1.35-0.35c0.467,0.1,0.784,0.417,0.95,0.95
			C33.45,8.717,33.467,9.317,33.3,9.95z"/>
		
			<linearGradient id="SVGID_5_" gradientUnits="userSpaceOnUse" x1="3.6069" y1="-63.2197" x2="7.405" y2="-63.2197" gradientTransform="matrix(-0.2771 0.9609 -0.9609 -0.2771 -1.543760e-004 -6.574392e-005)">
			<stop  offset="0" style="stop-color:#92979C"/>
			<stop  offset="1" style="stop-color:#E3E4E6"/>
		</linearGradient>
		<path style="fill-rule:evenodd;clip-rule:evenodd;fill:url(#SVGID_5_);" d="M60.85,23.65C60.583,24.283,60.2,24.767,59.7,25.1
			c-0.533,0.301-1.017,0.367-1.45,0.2c-0.467-0.166-0.767-0.55-0.9-1.149c-0.166-0.567-0.116-1.184,0.15-1.851
			c0.267-0.633,0.65-1.116,1.15-1.45s0.983-0.417,1.449-0.25c0.467,0.2,0.767,0.6,0.9,1.2C61.134,22.4,61.083,23.017,60.85,23.65z"
			/>
		
			<linearGradient id="SVGID_6_" gradientUnits="userSpaceOnUse" x1="9.0449" y1="-24.7378" x2="12.3609" y2="-24.7378" gradientTransform="matrix(-0.5794 0.815 -0.815 -0.5794 -8.339286e-004 1.379848e-004)">
			<stop  offset="0" style="stop-color:#92979C"/>
			<stop  offset="1" style="stop-color:#E3E4E6"/>
		</linearGradient>
		<path style="fill-rule:evenodd;clip-rule:evenodd;fill:url(#SVGID_6_);" d="M15.05,24.2c-0.433,0.467-0.9,0.767-1.4,0.899
			c-0.533,0.134-0.967,0.067-1.3-0.199c-0.333-0.267-0.467-0.667-0.4-1.2c0.066-0.566,0.316-1.084,0.75-1.55
			c0.4-0.467,0.867-0.767,1.4-0.9c0.5-0.134,0.917-0.066,1.25,0.2c0.333,0.267,0.483,0.684,0.45,1.25
			C15.733,23.233,15.483,23.733,15.05,24.2z"/>
	</g>
	<g>
		<path style="fill-rule:evenodd;clip-rule:evenodd;fill:#E3E4E6;" d="M40.85,0.4c0.566,0.2,1.266,0.617,2.1,1.25
			c0.967,0.733,1.733,1.483,2.3,2.25l3,4c-0.434,0-0.767-0.083-1-0.25c-0.233-0.133-0.866-0.316-1.9-0.55
			c-1.166-0.267-2.199-0.417-3.1-0.45l-2.4-0.15c-0.667-0.233-1.117-0.35-1.35-0.35c-2.333-0.5-3.883-0.75-4.65-0.75
			c-0.4,0-0.783,0.117-1.15,0.35c-0.633,0.367-1.25,0.667-1.85,0.9c-1.5,0.567-2.917,1.4-4.25,2.5c-1,0.733-2.167,1.65-3.5,2.75
			c-1.333,1.067-2.417,1.6-3.25,1.6l0.5-0.55c0.4-0.434,0.867-0.833,1.4-1.2c0.433-0.3,0.883-0.75,1.35-1.35
			c0.533-0.733,1.033-1.316,1.5-1.75c0.566-0.5,1.55-1.217,2.95-2.15c1.6-1.1,2.667-1.85,3.2-2.25c0.1-0.067,0.767-0.683,2-1.85
			c0.633-0.6,1.383-1.1,2.25-1.5c1.4-0.667,2.9-0.967,4.5-0.9L40.85,0.4z"/>
		<path style="fill-rule:evenodd;clip-rule:evenodd;fill:#E3E4E6;" d="M27.35,23.25c-0.934-0.033-1.684,0.017-2.25,0.15
			c-0.267,0.1-0.85,0.35-1.75,0.75c-0.567,0.267-1.3,0.699-2.2,1.3c-0.433,0.3-0.816,0.566-1.15,0.8c0.2-0.434,0.433-0.884,0.7-1.35
			c0.533-0.967,0.917-1.551,1.15-1.75c0.2-0.167,0.5-0.551,0.9-1.15c0.367-0.533,0.617-0.816,0.75-0.85
			c0.233-0.101,1.183-0.4,2.85-0.9c0.467-0.167,0.867-0.167,1.2,0c0.267,0.133,0.7,0.517,1.3,1.15c0.767,0.733,1.35,1.35,1.75,1.85
			C29.867,23.35,28.783,23.35,27.35,23.25z"/>
		<path style="fill-rule:evenodd;clip-rule:evenodd;fill:#E3E4E6;" d="M41.85,12.15v2c-0.233,0.333-0.767,0.617-1.6,0.85
			c-1.7,0.533-2.867,0.95-3.5,1.25c-0.467,0.2-0.883,0.25-1.25,0.15c-0.633-0.267-1.3-0.483-2-0.65c-0.933-0.2-1.817-0.267-2.65-0.2
			c-1.033,0.2-1.9,0.35-2.6,0.45c-0.9,0.167-1.367,0.2-1.4,0.1L29,14.55c1.4-0.933,2.517-1.45,3.35-1.55l7.5,0.25
			C40.95,13.25,41.617,12.883,41.85,12.15z"/>
		<path style="fill-rule:evenodd;clip-rule:evenodd;fill:#E3E4E6;" d="M40.75,4.9L40.5,7c0,0.5,0.183,1.05,0.55,1.65
			C41.15,8.783,41.467,9.2,42,9.9c0.167,0.2,0.667,0.767,1.5,1.7c0.833,0.967,1.45,1.733,1.85,2.3c0.4,0.567,0.601,1.05,0.601,1.45
			c-0.033,0.2-0.101,0.417-0.2,0.65c0,2.267-0.134,3.767-0.4,4.5c-0.166,0.467-0.283,0.7-0.35,0.7
			c-0.267-0.033-0.65,0.149-1.15,0.55c-1.8,1.5-2.8,2.717-3,3.65c-0.067,0.366-0.25,1.25-0.55,2.649
			c-0.333,1.267-0.65,2.084-0.95,2.45c-0.5,0.6-1.25,0.65-2.25,0.15c0.667-0.101,1.25-0.483,1.75-1.15s0.75-2.167,0.75-4.5l0.1-1
			c0.066-0.5,0.2-0.866,0.4-1.1c0.333-0.434,1.133-1.067,2.4-1.9c0.533-0.367,0.917-1,1.15-1.9c0.199-0.833,0.233-1.733,0.1-2.7
			c-0.1-0.867-0.4-1.933-0.9-3.2c-0.466-1.133-0.883-1.95-1.25-2.45c-0.233-0.333-0.583-0.717-1.05-1.15
			c-0.6-0.5-1.117-0.95-1.55-1.35c-1.133-1-2.017-2.083-2.65-3.25L40.75,4.9z"/>
		<path style="fill-rule:evenodd;clip-rule:evenodd;fill:#D3D4D6;" d="M40.85,0.4c1.033,0.2,2.117,0.95,3.25,2.25l2.65,3.1
			c-1.167,0-2-0.083-2.5-0.25s-1.884-0.25-4.15-0.25c-1.333,0-2.617-0.333-3.85-1c-0.6-0.3-1.633-0.25-3.1,0.15
			c-0.933,0.267-1.2,0.017-0.8-0.75c0.467-0.867,1.85-1.683,4.15-2.45C38.633,0.5,40.083,0.233,40.85,0.4z"/>
		<path style="fill-rule:evenodd;clip-rule:evenodd;fill:#8D9296;" d="M48.6,16.65c0.667,0.167,1.884,0.25,3.65,0.25l0.9,0.2
			c0.566,0.233,0.85,0.5,0.85,0.8c0,0.367-0.083,0.783-0.25,1.25c-0.167,0.434-0.333,0.717-0.5,0.85
			c-0.267,0.167-1.483,0.667-3.65,1.5c-2,0.267-3.116,0.4-3.35,0.4c-0.167,0-0.316-0.101-0.45-0.301l-0.2-0.35
			c-0.066-2.033-0.083-3.417-0.05-4.15l0.2-1.85l1.05,0.6C47.6,16.283,48.2,16.55,48.6,16.65z"/>
		<path style="fill-rule:evenodd;clip-rule:evenodd;fill:#8D9296;" d="M42.6,10.25l1.4-0.1c0.333,0,0.95,0.25,1.85,0.75
			c0.601,0.233,1.084,0.383,1.45,0.45c0.267,0.033,0.867,0.083,1.8,0.15c0.801,0.067,1.217,0.1,1.25,0.1
			c0.067,0.033,0.284,0.167,0.65,0.4c0.667,0.333,1.333,0.75,2,1.25c-1.333,0-2.134,0.05-2.4,0.15c-0.666,0.2-1.166,0.4-1.5,0.6
			c-0.233,0.167-1.267,0.217-3.1,0.15C45.9,13.817,44.767,12.517,42.6,10.25z"/>
		<path style="fill-rule:evenodd;clip-rule:evenodd;fill:#8D9296;" d="M52.25,26.75l0.65,1.55c0.399,1.167,0.6,2.066,0.6,2.7
			c0,0.6-0.1,0.934-0.3,1c-0.434,0.134-0.667,0.217-0.7,0.25c-0.366,0.4-1.783,0.15-4.25-0.75c-1.033-0.366-1.917-0.884-2.65-1.55
			L44.85,29l4.4-0.85c1.033-0.267,1.5-0.534,1.4-0.801l-0.4-0.85L52.25,26.75z"/>
		<path style="fill-rule:evenodd;clip-rule:evenodd;fill:#8D9296;" d="M66.1,26.65c1.5,1.233,1.967,1.983,1.4,2.25l-1,0.5
			c-0.366,0.199-0.717,0.25-1.05,0.149c-0.467-0.133-0.834-0.184-1.101-0.149c-0.5,0.033-0.883,0.017-1.149-0.051
			c-0.233-0.1-0.267-0.216-0.101-0.35c0.134-0.066,0.4-0.366,0.801-0.9C64.467,27.533,65.2,27.05,66.1,26.65z"/>
	</g>
</g>
</svg>
