<?xml version="1.0" encoding="iso-8859-1"?>
<!-- Generator: Adobe Illustrator 15.1.0, SVG Export Plug-In . SVG Version: 6.00 Build 0)  -->
<!DOCTYPE svg PUBLIC "-//W3C//DTD SVG 1.1//EN" "http://www.w3.org/Graphics/SVG/1.1/DTD/svg11.dtd">
<svg version="1.1" id="flash0.ai" xmlns="http://www.w3.org/2000/svg" xmlns:xlink="http://www.w3.org/1999/xlink" x="0px" y="0px"
	 width="107.2px" height="48.85px" viewBox="0 0 107.2 48.85" style="enable-background:new 0 0 107.2 48.85;" xml:space="preserve"
	>
<symbol  id="flash0.ai_x5F_9_x2F_Layer_64_x2F__x3C_Path_x3E__x5F_15" viewBox="0.05 -18.95 107.217 18.915">
	<g id="Layer_1_2_">
		<path style="fill-rule:evenodd;clip-rule:evenodd;" d="M104.7-2.95c0.733-0.3,1.15-0.966,1.25-2c0.066-0.9-0.067-1.517-0.4-1.85
			c-0.2-0.2-0.05-0.483,0.45-0.85c0.267-0.167,0.667-0.434,1.2-0.8c0.2-0.2-0.05-0.433-0.75-0.7c-1.267-0.533-2.184-0.967-2.75-1.3
			c-0.361-0.24-0.62-0.407-0.775-0.5c0.094,0.038,0.019-0.029-0.225-0.2c-0.333-0.233-0.633-0.483-0.9-0.75
			c-0.4-0.4-0.867-0.817-1.4-1.25c-0.633-0.467-1.2-0.717-1.7-0.75c-1.067-0.067-2.117-0.25-3.15-0.55
			c-1.566-0.433-2.483-0.733-2.75-0.9c-0.167-0.267-0.417-0.533-0.75-0.8c-0.6-0.5-1.017-0.783-1.25-0.85
			c-0.566-0.167-1.983-0.317-4.25-0.45c-2-0.133-3.017-0.15-3.05-0.05c0.267,0.133,0.233,0.2-0.1,0.2c-0.267,0-0.933-0.1-2-0.3
			c-1.4-0.3-2.9-0.533-4.5-0.7c-1.7-0.2-3.017-0.267-3.95-0.2c-1.7,0.133-2.784,0.2-3.25,0.2c-0.967,0-1.934-0.117-2.9-0.35
			c-0.933-0.2-2.3-0.3-4.1-0.3c-1.867,0-3.167,0.133-3.9,0.4c-0.667,0.2-1.3,0.283-1.9,0.25c-0.933-0.067-1.583-0.083-1.95-0.05
			c-0.7,0.033-1.117,0.05-1.25,0.05c-1.567,0-4.117,0.283-7.65,0.85c-2.133,0.333-3.216,0.5-3.25,0.5c-1.033,0.2-2.617,0.534-4.75,1
			c-2.466,0.5-3.983,0.667-4.55,0.5c-1.033-0.333-1.9-0.5-2.6-0.5c-1.5,0-2.433,0.1-2.8,0.3c-1.467,0.867-2.65,1.483-3.55,1.85
			c-1.9,0.767-3.483,1-4.75,0.7c-1.733-0.4-2.816-0.583-3.25-0.55c-1.667,0.133-3,0.2-4,0.2c-0.633,0-0.716,0.184-0.25,0.55
			c0.233,0.2,0.534,0.4,0.9,0.6h-2.65c-1.133,0-2.05,0.167-2.75,0.5c-0.333,0.167-0.7,0.45-1.1,0.85c-0.2,0.2-0.517,0.35-0.95,0.45
			L5.2-10.45c-1.867,0.867-3.25,1.467-4.15,1.8c-0.566,0.2-0.9,0.566-1,1.1v0.75L2.2-6.3c0.566,0.133,0.683,0.466,0.35,1
			c-0.9,0.333-1.183,0.667-0.85,1c0.433,0.433,1.933,0.65,4.5,0.65c0.7,0,2.5,0.5,5.4,1.5c2.933,1,5.033,1.5,6.3,1.5
			c2.4,0,7.067-0.267,14-0.8c1.6-0.133,7.434,0.1,17.5,0.7c10.7,0.667,19.533,0.867,26.5,0.6c8.2-0.3,15.1-0.767,20.7-1.4
			C100.867-2.05,103.567-2.517,104.7-2.95z"/>
	</g>
</symbol>
<use xlink:href="#flash0.ai_x5F_9_x2F_Layer_64_x2F__x3C_Path_x3E__x5F_15"  width="107.217" height="18.915" x="0.05" y="-18.95" transform="matrix(1 0 0 -1 -0.0498 29.9004)" style="overflow:visible;opacity:0.1406;enable-background:new    ;"/>
<path style="fill-rule:evenodd;clip-rule:evenodd;fill:#B0B1B3;" d="M88.05,19.45c0.5,0.566,1.384,1.783,2.65,3.65
	c0.866,1.3,2.083,2.65,3.649,4.05c1.7,1.5,3.184,3.383,4.45,5.649c0.667,1.101,1.15,2.066,1.45,2.9l0.45,4.5
	c-1.667,0.1-3.65,0.316-5.95,0.649c-4.6,0.7-8.5,1.7-11.7,3c-5.833,2.4-14.566,3.301-26.2,2.7c-3.333-0.166-6.966-0.6-10.899-1.3
	c-3.6-0.634-5.534-0.95-5.8-0.95c-1.2,0-3.917-1.666-8.15-5c-8.4,0.601-13.817,0.9-16.25,0.9c-2.4,0-4.65-0.3-6.75-0.9l-3.15-4.5
	c6.467-2.899,11.133-5.333,14-7.3c2.767-1.9,4.717-3.983,5.85-6.25c0.833-1.633,2-3.667,3.5-6.1c1.5-2.4,2.433-3.983,2.8-4.75
	c0.933-1.8,2.6-3.75,5-5.85L47.4,0l3.3,1.05c2.8,0.767,5.6,1.333,8.399,1.7c2.267,0.3,4.217,0.6,5.851,0.9
	c0.7,0.067,1.616-0.083,2.75-0.45c1.8-0.6,3.916-1.5,6.35-2.7l2.601,0.8c1.933,1.034,3.466,2.867,4.6,5.5
	c1.6,3.733,2.733,6.233,3.4,7.5C85.65,16.3,86.783,18.017,88.05,19.45z"/>
<path style="fill-rule:evenodd;clip-rule:evenodd;fill:#C3C4C7;" d="M29.35,24.25l4.25-0.5l-0.85,2.4c-0.8,1.8-1.767,3.166-2.9,4.1
	c-2.2,1.8-5.2,3.967-9,6.5c-1.5,1-3.583,1.8-6.25,2.4c-2.667,0.6-4.5,0.666-5.5,0.199c-0.8-0.366-1.583-1.233-2.35-2.6l-0.9-1.95
	c0-0.133,0.133-0.3,0.4-0.5c0.533-0.434,1.483-0.866,2.85-1.3c1.333-0.4,3.267-1.25,5.8-2.55c1.333-0.667,3.067-1.566,5.2-2.7
	c0.967-0.467,2.7-1.15,5.2-2.05C27.8,24.833,29.15,24.35,29.35,24.25z"/>
<path style="fill-rule:evenodd;clip-rule:evenodd;fill:#C3C4C7;" d="M81.25,6.8l0.5,1.15l-0.4,0.3c-1.899,1.7-3.166,2.767-3.8,3.2
	c-0.767,0.533-2.083,0.966-3.95,1.3c-1.767,0.3-3.8-0.183-6.1-1.45l-2.9-2.05c-1-1.167-2.166-1.833-3.5-2
	c-0.633-0.067-2.933-0.067-6.899,0c-4.267,0.1-7.133,0.1-8.6,0l-3.7-0.2c-0.5-0.066-1.433-0.333-2.8-0.8L37,4.55L47.4,0l3.3,1.05
	c2.8,0.767,5.6,1.333,8.399,1.7c2.267,0.3,4.217,0.6,5.851,0.9c0.7,0.067,1.616-0.083,2.75-0.45c1.8-0.6,3.916-1.5,6.35-2.7
	l2.601,0.8C78.583,2.333,80.116,4.167,81.25,6.8z"/>
<path style="fill-rule:evenodd;clip-rule:evenodd;fill:#C3C4C7;" d="M62,20.5c-0.733,0.067-1.566,0.233-2.5,0.5
	c-0.7,0.2-1.417,0.267-2.15,0.2c-0.833-0.067-1.633-0.4-2.399-1L54,19.35c-0.467-0.067-1.433-0.383-2.9-0.95
	c-1-0.367-2.817-0.55-5.45-0.55h-10l1.9-0.45c1.667-0.3,3.434-0.483,5.3-0.55c1.1-0.033,2.483-0.15,4.15-0.35
	c1.167-0.167,2.783-0.217,4.85-0.15c3.667,0.1,5.716,0.15,6.15,0.15c1.066,0,1.917,0.067,2.55,0.2C61.15,16.8,61.3,16.9,61,17
	c-0.2,0.1,0.217,0.333,1.25,0.7c0.5,0.167,1.033,0.333,1.6,0.5v1.1C63.65,20.033,63.033,20.433,62,20.5z"/>
<path style="fill-rule:evenodd;clip-rule:evenodd;fill:#9B9C9E;" d="M84.65,14.3c1,2,2.133,3.717,3.399,5.15
	c0.5,0.566,1.384,1.783,2.65,3.65c0.866,1.3,2.083,2.65,3.649,4.05c1.7,1.5,3.184,3.383,4.45,5.649c0.667,1.101,1.15,2.066,1.45,2.9
	l0.45,4.5c-1.667,0.1-3.65,0.316-5.95,0.649c-4.6,0.7-8.5,1.7-11.7,3c-5.833,2.4-14.566,3.301-26.2,2.7
	c-3.333-0.166-6.966-0.6-10.899-1.3c-3.6-0.634-5.534-0.95-5.8-0.95c-1.2,0-3.917-1.666-8.15-5c-8.4,0.601-13.817,0.9-16.25,0.9
	c-1.967,0-4.183-0.283-6.65-0.851c2.6,0.134,4.6-0.233,6-1.1c0.6-0.366,1.65-0.8,3.15-1.3c1.367-0.434,2.4-0.917,3.1-1.45
	c0.167-0.134,0.816-0.566,1.95-1.3c0.633-0.434,1.65-1.25,3.05-2.45c2.333-2,4.167-3.833,5.5-5.5l1.75-2.5l0.9,2.55
	c0.567,1.767,0.85,2.917,0.85,3.45c0,0.667,0.566,1.467,1.7,2.4c1.167,0.933,2.35,1.466,3.55,1.6c0.833,0.1,1.9,0.35,3.2,0.75
	c1.133,0.2,2.317-0.05,3.55-0.75c0.233-0.134,1.983-0.983,5.25-2.55c2-0.967,3-1.7,3-2.2v-6c0-1.333,0.334-2,1-2
	c0.334,0,1.267,0.05,2.801,0.15c1.433-0.1,2.416-0.566,2.949-1.4c0.9-1.433,1.434-2.333,1.601-2.7C64.384,16.117,64.6,15.1,64.6,14
	V9.25l2,0.4C68.033,9.883,68.95,10,69.35,10c0.7,0,1.75-0.183,3.15-0.55c1.7-0.467,2.983-1.034,3.85-1.7
	c0.134-0.1,0.817-0.733,2.051-1.9c0.767-0.7,1.383-1.033,1.85-1c0.4,0.633,0.733,1.283,1,1.95
	C82.85,10.533,83.983,13.033,84.65,14.3z"/>
<path style="fill-rule:evenodd;clip-rule:evenodd;fill:#8D8D8F;" d="M62,22.85l1.75-0.1c1.233,0,2.1,0.1,2.6,0.3
	c0.634,0.267,1.567,0.483,2.801,0.65c0.8,0.1,1.633-0.017,2.5-0.35l2.199,4.2c0.2,0.367,0.334,1.084,0.4,2.15
	c0.066,1.333,0.15,2.217,0.25,2.649c0.2,1.101,1.083,2.217,2.65,3.351c-1.667-0.233-2.834-0.566-3.5-1
	c-0.367-0.233-1.051-0.917-2.051-2.05c-1.866-2.134-3.449-3.9-4.75-5.301c-2-2.133-3.233-3.383-3.699-3.75
	C62.85,23.433,62.467,23.183,62,22.85z"/>
<path style="fill-rule:evenodd;clip-rule:evenodd;fill:#8D8D8F;" d="M90,24.85c-0.233,0.567-0.684,1.133-1.35,1.7
	c-0.4,0.334-0.617,0.767-0.65,1.3c0,0.334,0,0.95,0,1.851c-0.066,0.533-0.233,1.017-0.5,1.45c-0.233,0.366-0.35,0.716-0.35,1.05
	c0,0.666-0.101,1.55-0.301,2.649L85,34.05c-1-1.133-1.5-2.033-1.5-2.7c0-0.333,0.233-1,0.7-2c0.633-1.366,1.116-2.533,1.45-3.5
	L90,24.85z"/>
<path style="fill-rule:evenodd;clip-rule:evenodd;fill:#8D8D8F;" d="M87,21.35c-0.167,0.066-0.634,0.35-1.4,0.85
	c-0.566,0.4-1.1,0.566-1.6,0.5c-0.566-0.067-1.134-0.333-1.7-0.8l-1.8-1.85l0.55,0.2c0.566,0.067,1.334-0.117,2.3-0.55
	c0.967-0.4,1.867-0.25,2.7,0.45C86.45,20.517,86.767,20.917,87,21.35z"/>
<path style="fill-rule:evenodd;clip-rule:evenodd;fill:#838485;" d="M94.6,35.25c0.467,0.167,0.917,0.434,1.351,0.8
	c0.5,0.467,1.133,0.867,1.899,1.2c1.101,0.533,2,1.066,2.7,1.6l0.15,1.351c-1.667,0.1-3.65,0.316-5.95,0.649
	c-4.6,0.7-8.5,1.7-11.7,3c-5.833,2.4-14.566,3.301-26.2,2.7c-3.333-0.166-6.966-0.6-10.899-1.3c-3.6-0.634-5.534-0.95-5.8-0.95
	c-1.2,0-3.917-1.666-8.15-5c-7.267,0.533-12.383,0.834-15.35,0.9c2.567-0.5,5.383-1.483,8.45-2.95c2.6-1.233,4.467-2.267,5.6-3.1
	c0.566-0.434,0.867-0.733,0.9-0.9l1.2,2.7c1.067,2.066,2.333,3.666,3.8,4.8c3.733,2.934,9.983,4.517,18.75,4.75
	c5.067,0.134,8.601,0.15,10.601,0.05c2.633-0.166,4.35-0.6,5.149-1.3c2-1.7,3.667-3.033,5-4c1.167-0.833,2.584-1.75,4.25-2.75
	c1.067-0.7,1.617-1.066,1.65-1.1c0.9-0.4,1.767-0.45,2.6-0.15c0.034,0.033,0.983,0.417,2.851,1.15c0.967,0.399,1.6,0.6,1.899,0.6
	c0.267,0,0.817,0.05,1.65,0.15c0.833,0,1.45-0.217,1.85-0.65c0.233-0.233,0.467-0.8,0.7-1.7C93.684,35.233,94.033,35.05,94.6,35.25z
	"/>
<linearGradient id="SVGID_1_" gradientUnits="userSpaceOnUse" x1="19.2422" y1="-51.9229" x2="25.0448" y2="-51.9229" gradientTransform="matrix(-0.0302 0.9995 -0.9995 -0.0302 -1.288559e-004 -6.528944e-005)">
	<stop  offset="0" style="stop-color:#9BA1A6"/>
	<stop  offset="1" style="stop-color:#B7B8B8"/>
</linearGradient>
<path style="fill-rule:evenodd;clip-rule:evenodd;fill:url(#SVGID_1_);" d="M53.55,24.25c-0.1,0.833-0.416,1.517-0.95,2.05
	c-0.533,0.533-1.133,0.767-1.8,0.7c-0.633-0.066-1.133-0.434-1.5-1.1c-0.4-0.7-0.533-1.467-0.4-2.3c0.1-0.833,0.417-1.533,0.95-2.1
	c0.566-0.533,1.167-0.75,1.8-0.65c0.633,0.066,1.133,0.433,1.5,1.1C53.55,22.65,53.684,23.417,53.55,24.25z"/>
<linearGradient id="SVGID_2_" gradientUnits="userSpaceOnUse" x1="2.5728" y1="-38.8447" x2="7.5756" y2="-38.8447" gradientTransform="matrix(-0.1449 0.9894 -0.9894 -0.1449 -2.216101e-004 -1.654625e-004)">
	<stop  offset="0" style="stop-color:#9BA1A6"/>
	<stop  offset="1" style="stop-color:#B7B8B8"/>
</linearGradient>
<path style="fill-rule:evenodd;clip-rule:evenodd;fill:url(#SVGID_2_);" d="M39.55,11.35c-0.167,0.7-0.5,1.267-1,1.7
	c-0.5,0.4-1.017,0.534-1.55,0.4s-0.917-0.483-1.15-1.05c-0.233-0.6-0.25-1.267-0.05-2c0.167-0.733,0.5-1.3,1-1.7
	c0.467-0.434,0.967-0.583,1.5-0.45c0.534,0.133,0.917,0.5,1.15,1.1C39.683,9.95,39.717,10.617,39.55,11.35z"/>
<linearGradient id="SVGID_3_" gradientUnits="userSpaceOnUse" x1="14.7061" y1="-58.0386" x2="20.9624" y2="-58.0386" gradientTransform="matrix(0.0999 0.995 -0.995 0.0999 -4.747584e-004 -1.777112e-004)">
	<stop  offset="0" style="stop-color:#9BA1A6"/>
	<stop  offset="1" style="stop-color:#B7B8B8"/>
</linearGradient>
<path style="fill-rule:evenodd;clip-rule:evenodd;fill:url(#SVGID_3_);" d="M62.1,12.15c0,0.934-0.25,1.733-0.75,2.4
	c-0.5,0.667-1.1,1-1.8,1s-1.3-0.333-1.8-1c-0.5-0.667-0.75-1.466-0.75-2.4c0-0.933,0.25-1.717,0.75-2.35c0.5-0.667,1.1-1,1.8-1
	s1.3,0.333,1.8,1C61.85,10.433,62.1,11.217,62.1,12.15z"/>
<linearGradient id="SVGID_4_" gradientUnits="userSpaceOnUse" x1="15.353" y1="-45.4331" x2="19.9974" y2="-45.4331" gradientTransform="matrix(-0.1726 0.985 -0.985 -0.1726 -5.056113e-004 -1.295656e-004)">
	<stop  offset="0" style="stop-color:#9BA1A6"/>
	<stop  offset="1" style="stop-color:#B7B8B8"/>
</linearGradient>
<path style="fill-rule:evenodd;clip-rule:evenodd;fill:url(#SVGID_4_);" d="M43.4,25.95c-0.2,0.666-0.533,1.2-1,1.6
	c-0.5,0.4-0.983,0.517-1.45,0.351c-0.467-0.134-0.8-0.483-1-1.051c-0.2-0.6-0.2-1.233,0-1.899c0.167-0.667,0.5-1.2,1-1.6
	c0.466-0.4,0.933-0.533,1.4-0.4c0.467,0.167,0.8,0.533,1,1.1C43.55,24.617,43.567,25.25,43.4,25.95z"/>
<linearGradient id="SVGID_5_" gradientUnits="userSpaceOnUse" x1="12.958" y1="-34.0122" x2="16.7557" y2="-34.0122" gradientTransform="matrix(-0.1583 0.9874 -0.9874 -0.1583 -6.675273e-004 -2.739131e-004)">
	<stop  offset="0" style="stop-color:#9BA1A6"/>
	<stop  offset="1" style="stop-color:#B7B8B8"/>
</linearGradient>
<path style="fill-rule:evenodd;clip-rule:evenodd;fill:url(#SVGID_5_);" d="M32.8,20.6c-0.133,0.633-0.417,1.117-0.85,1.45
	c-0.434,0.367-0.883,0.483-1.35,0.35c-0.434-0.133-0.75-0.45-0.95-0.95c-0.167-0.5-0.183-1.05-0.05-1.65
	c0.133-0.633,0.417-1.117,0.85-1.45c0.433-0.367,0.867-0.483,1.3-0.35s0.767,0.45,1,0.95C32.95,19.45,32.967,20,32.8,20.6z"/>
<linearGradient id="SVGID_6_" gradientUnits="userSpaceOnUse" x1="12.9165" y1="-34.9937" x2="16.7514" y2="-34.9937" gradientTransform="matrix(-0.5409 0.8411 -0.8411 -0.5409 -1.055598e-004 -7.444620e-005)">
	<stop  offset="0" style="stop-color:#9BA1A6"/>
	<stop  offset="1" style="stop-color:#B7B8B8"/>
</linearGradient>
<path style="fill-rule:evenodd;clip-rule:evenodd;fill:url(#SVGID_6_);" d="M22.45,32.5c-0.467,0.566-0.967,0.967-1.5,1.2
	c-0.534,0.233-0.967,0.233-1.3,0c-0.333-0.267-0.45-0.7-0.35-1.3c0.1-0.601,0.383-1.184,0.85-1.75c0.467-0.567,0.967-0.967,1.5-1.2
	c0.567-0.233,1-0.233,1.3,0c0.333,0.267,0.45,0.7,0.35,1.3C23.2,31.35,22.917,31.934,22.45,32.5z"/>
</svg>
