<?xml version="1.0" encoding="iso-8859-1"?>
<!-- Generator: Adobe Illustrator 15.1.0, SVG Export Plug-In . SVG Version: 6.00 Build 0)  -->
<!DOCTYPE svg PUBLIC "-//W3C//DTD SVG 1.1//EN" "http://www.w3.org/Graphics/SVG/1.1/DTD/svg11.dtd">
<svg version="1.1" id="flash0.ai" xmlns="http://www.w3.org/2000/svg" xmlns:xlink="http://www.w3.org/1999/xlink" x="0px" y="0px"
	 width="178px" height="95.35px" viewBox="0 0 178 95.35" style="enable-background:new 0 0 178 95.35;" xml:space="preserve">
<symbol  id="flash0.ai_x5F_26_x2F_Layer_148_x2F__x3C_Path_x3E_" viewBox="0 -56.65 178 56.65">
	<g id="Layer_1_2_">
		
			<radialGradient id="SVGID_1_" cx="89" cy="-28.3252" r="80.4907" gradientTransform="matrix(1 0 0 -0.3255 0 -37.5459)" gradientUnits="userSpaceOnUse">
			<stop  offset="0" style="stop-color:#000000;stop-opacity:0.6196"/>
			<stop  offset="1" style="stop-color:#000000;stop-opacity:0"/>
		</radialGradient>
		<path style="fill-rule:evenodd;clip-rule:evenodd;fill:url(#SVGID_1_);" d="M151.95-8.3C169.317-13.833,178-20.517,178-28.35
			c0-7.8-8.683-14.467-26.05-20c-17.4-5.533-38.383-8.3-62.95-8.3c-24.6,0-45.583,2.767-62.95,8.3S0-36.15,0-28.35
			C0-20.517,8.683-13.833,26.05-8.3C43.417-2.767,64.4,0,89,0C113.567,0,134.55-2.767,151.95-8.3z"/>
	</g>
</symbol>
<symbol  id="flash0.ai_x5F_26_x2F_Layer_148_x2F__x3C_Path_x3E__x5F_0" viewBox="0 -39.49 133.533 39.429">
	<g id="Layer_1_3_">
		<path style="fill-rule:evenodd;clip-rule:evenodd;" d="M132.1-8.6c0.6-1,1-1.95,1.2-2.85l-0.5-1.85
			c-0.2-1.333-0.033-2.267,0.5-2.8c0.567-0.566,0.1-1.167-1.4-1.8c-1.933-0.7-3.233-1.217-3.9-1.55
			c-0.7-0.367-1.583-0.917-2.65-1.65c-1.434-0.933-2.667-1.717-3.7-2.35c-0.233-0.133-1.117-0.816-2.65-2.05
			c-0.6-0.467-1.833-0.9-3.7-1.3c-1.833-0.4-2.733-0.833-2.7-1.3c0.133-1.167,0.15-1.833,0.05-2c-0.367-0.733-1.717-1.3-4.05-1.7
			c-3.367-0.534-5.8-1.083-7.3-1.65c-3.066-1.167-5.033-1.867-5.9-2.1c-1.467-0.367-3.267-0.55-5.4-0.55c-2,0-4.317-0.15-6.95-0.45
			c-3.133-0.4-5.6-0.7-7.4-0.9c-3.9-0.6-6.85-1.066-8.85-1.4c-3.667-0.533-6.383-0.733-8.15-0.6c-1.667,0.133-3.2,0.684-4.6,1.65
			c-2.533,1.7-4.333,2.816-5.4,3.35c-2.2,1.1-4.75,1.784-7.65,2.05c-3.333,0.167-5.9,0.367-7.7,0.6c-1.9,0.233-3.4,0.983-4.5,2.25
			c-1.4,1.6-2.9,2.75-4.5,3.45c-2.133,0.934-4.1,1.283-5.9,1.05c-1.6-0.4-2.733-0.534-3.4-0.4c-0.833,0.133-1.867,0.667-3.1,1.6
			c-1.267,1.033-2.133,1.717-2.6,2.05c-0.533,0.4-1.367,0.75-2.5,1.05l-1.5,0.3L0-16.1c1.533,1.767,2.633,2.65,3.3,2.65
			c0.367,0,0.967,0.633,1.8,1.9C6.2-9.85,7.05-8.7,7.65-8.1C8.317-7.433,10.1-6.517,13-5.35c3.333,1.4,5.767,2.583,7.3,3.55
			c2.067,1.333,4.567,1.9,7.5,1.7c2.2-0.133,7.6-0.8,16.2-2c7.7-0.933,12.417-1.4,14.15-1.4c0.5,0,5.883,0.467,16.15,1.4
			c8.767,0.767,14.967,1.167,18.6,1.2c1.733,0,7.1-0.184,16.1-0.55c6.567-0.267,11.083-0.733,13.55-1.4
			c1.467-0.4,3.167-1.05,5.1-1.95C129.45-5.333,130.933-6.6,132.1-8.6z"/>
	</g>
</symbol>
<symbol  id="flash0.ai_x5F_26_x2F_Layer_148_x2F__x3C_Path_x3E__x5F_1" viewBox="0 -24.1 52.5 24.106">
	<g id="Layer_1_5_">
		<path style="fill-rule:evenodd;clip-rule:evenodd;fill:#147352;" d="M52.5-15.55l-0.85-3.5c-0.133-0.434-0.117-1.117,0.05-2.05
			c0.1-0.467,0.2-0.9,0.3-1.3c-2.333-0.2-5.45-0.583-9.35-1.15c-2.4-0.367-4.15-0.55-5.25-0.55l-0.9,0.05l-17.85,6
			c-1.767,0.433-4.933,1.216-9.5,2.35c-4.133,1-7.183,2.633-9.15,4.9c1.667-0.233,4.217-0.934,7.65-2.1c2.667-0.9,5.9-2.267,9.7-4.1
			c2.2-1.1,4.25-1.617,6.15-1.55c3.267,0.1,5.233,0.167,5.9,0.2c1.4,0.1,2.317,0.3,2.75,0.6c0.4,0.3,0.583,0.883,0.55,1.75
			c-0.167,1.233-0.284,2.267-0.35,3.1c-0.333,2.066-0.6,3.683-0.8,4.85c-0.333,2.066-0.3,3.35,0.1,3.85
			c0.667,0.767,1.283,1.767,1.85,3l0.9,0.9c1,0.466,2.45,0.4,4.35-0.2c0.367-0.433,0.567-0.733,0.6-0.9
			c0.1-0.667,0.7-2.883,1.8-6.65l1.7-1.2c1.467-1,2.967-1.983,4.5-2.95L52.5-15.55z"/>
	</g>
</symbol>
<symbol  id="flash0.ai_x5F_26_x2F_Layer_148_x2F__x3C_Path_x3E__x5F_2" viewBox="0 -17.985 35.65 17.988">
	<g id="Layer_1_4_">
		<path style="fill-rule:evenodd;clip-rule:evenodd;fill:#147352;" d="M31.45-4.6c1.133-1.2,2.533-2.2,4.2-3l-2.35-2.65
			c-1.9-0.233-4.45-0.4-7.65-0.5c-2.033-0.067-3.583-0.65-4.65-1.75c-0.567-0.533-0.917-1.067-1.05-1.6l-4.8-3.15
			c-1.2-0.767-2.367-0.933-3.5-0.5L10.3-16.9l-5.15,1c-1.566,0.333-3.183,0.333-4.85,0l-0.3,4l2.3-0.35c3-0.433,5.5-0.55,7.5-0.35
			c1.567,1.233,2.85,2.35,3.85,3.35s1.5,2.45,1.5,4.35l3.15,1l0.85,2.5l1.95,0.75c1.7,0.467,3.5,0.683,5.4,0.65l0.3-0.1l1.7-1.55
			C29.767-2.85,30.75-3.833,31.45-4.6z"/>
	</g>
</symbol>
<symbol  id="flash0.ai_x5F_26_x2F_Layer_148_x2F__x3C_Path_x3E__x5F_3" viewBox="0 -25.7 30.25 25.7">
	<g id="Layer_1_6_">
		<path style="fill-rule:evenodd;clip-rule:evenodd;fill:#147352;" d="M26.6-14.55c1.433-1.233,2.65-2.684,3.65-4.35l-0.35-1.25
			c-0.233-0.967-0.4-1.817-0.5-2.55c-0.066-0.966-0.316-1.617-0.75-1.95c-0.5-0.333-1.467-0.467-2.9-0.4c-2,0.1-5.05,0.15-9.15,0.15
			c-3.467,0-6.75-0.267-9.85-0.8L4.9-23.05c-2.233,2.633-3.867,4.6-4.9,5.9c1.833-0.633,3.25-1.383,4.25-2.25
			c1.633-1.4,2.617-2.217,2.95-2.45c0.8-0.533,1.533-0.717,2.2-0.55c1.8,0.433,2.7,0.883,2.7,1.35c0,0.233-0.217,0.833-0.65,1.8
			c-0.4,0.867-0.75,1.55-1.05,2.05c-0.267,0.434-0.566,1.434-0.9,3c-0.333,1.633-0.417,2.684-0.25,3.15
			C9.483-10.383,9.6-8.267,9.6-4.7C9.533-3.267,9.5-2.25,9.5-1.65c-0.033,1.066,0.05,1.6,0.25,1.6c0.1,0,0.683,0.017,1.75,0.05
			c1.2,0,2.267-0.05,3.2-0.15l0.4-0.25l0.3-3.8l1.85-3.35c0.233-0.567,2.067-2.017,5.5-4.35l1.1-0.65
			C24.783-13.117,25.7-13.783,26.6-14.55z"/>
	</g>
</symbol>
<g>
	<g>
		
			<use xlink:href="#flash0.ai_x5F_26_x2F_Layer_148_x2F__x3C_Path_x3E_"  width="178" height="56.65" y="-56.65" transform="matrix(1 0 0 -1 0 38.7002)" style="overflow:visible;opacity:0.6289;enable-background:new    ;"/>
	</g>
	<g>
		
			<use xlink:href="#flash0.ai_x5F_26_x2F_Layer_148_x2F__x3C_Path_x3E__x5F_0"  width="133.533" height="39.429" y="-39.49" transform="matrix(1 0 0 -1 21 48.25)" style="overflow:visible;opacity:0.1406;enable-background:new    ;"/>
	</g>
	<g>
		<path style="fill-rule:evenodd;clip-rule:evenodd;fill:#787049;" d="M138.65,42.7c0.833,5.133,2.866,9.95,6.1,14.45
			c1.6,2.233,3.116,3.966,4.55,5.199L128.65,75c-7.301,4.566-15.967,7.134-26,7.7c-1.233,0.066-5.601,0.434-13.101,1.1
			c-2.867,0.233-5.167,0.084-6.9-0.45c-1.367-0.433-2.967-1-4.8-1.699c-1.833-0.733-3.684-1.384-5.55-1.95
			c-1.767-0.566-4.466-1.233-8.1-2c-3.367-0.7-5.667-1.267-6.9-1.7c-3.767-1.333-6.533-2.884-8.3-4.65c-0.767-0.767-2.4-1.3-4.9-1.6
			c-3.333-0.4-5.483-0.75-6.45-1.05c-1.667-0.566-3.933-2.066-6.8-4.5L27,60.7c1.533-1.066,2.833-2.033,3.9-2.9
			c2-1.7,3.133-3.184,3.4-4.45c0.233-1.767,0.483-3.116,0.75-4.05c0.4-1.566,1.383-3.333,2.95-5.3c2-2.567,3.45-4.65,4.35-6.25
			C43.45,35.783,44,34.1,44,32.7c0-0.967,0.383-3.2,1.15-6.7c0.767-3.533,1.15-5.867,1.15-7c0-1.3,1.1-3.133,3.3-5.5
			c2.566-2.767,3.917-4.267,4.05-4.5c0.667-1.333,3.783-4.333,9.35-9l8.65,2.3c6.434,1.967,11.317,3.983,14.65,6.05
			c4,2.5,6.834,4.017,8.5,4.55c1.667,0.5,3.5,0.434,5.5-0.2c1.334-0.434,3.483-1.367,6.45-2.8c2.634-0.933,4.717-0.783,6.25,0.45
			c1.434,1.2,3.033,3.15,4.8,5.85c3.533,5.333,5.483,8.267,5.851,8.8c1.033,1.467,2.416,2.8,4.149,4c1,0.667,2.5,1.617,4.5,2.85
			C135.767,34.283,137.884,37.9,138.65,42.7z"/>
		<path style="fill-rule:evenodd;clip-rule:evenodd;fill:#877B54;" d="M128.7,29.6l-0.05,1.45c-2,1.233-4.134,2.65-6.4,4.25
			c-4.566,3.2-7.55,5.784-8.95,7.75c-1.833,2.567-3.533,5.566-5.1,9c-1.767,3.867-2.733,6.967-2.9,9.3
			c-0.133,2.101-0.833,3.351-2.1,3.75l-1.9-0.05l1.351-2c0.566-0.833,0.433-2.483-0.4-4.95c-1.066-2.699-1.717-4.5-1.95-5.399
			c-0.2-0.867-0.3-2.584-0.3-5.15s-0.116-4.3-0.35-5.2c-0.2-0.8-1.167-1.783-2.9-2.95c-2-1.333-3.483-2.9-4.45-4.7
			c-1.066-2-2.434-3.434-4.1-4.3c-2.534-1.3-3.833-1.983-3.9-2.05c-1.066-0.934-2.7-1.967-4.9-3.1c-2.033-1.067-3.5-1.7-4.4-1.9
			c-2-0.233-3.783-0.5-5.35-0.8c-3-0.566-5.117-1.4-6.35-2.5c-1.167-1.066-2.367-1.75-3.6-2.05c-2.333-0.6-3.8-1.033-4.4-1.3
			c-1.133-0.467-2.417-0.65-3.85-0.55c-0.667,0.033-2.117,0.233-4.35,0.6c0.633-1.067,1.833-2.533,3.6-4.4
			c1.733-1.767,2.716-2.883,2.95-3.35c0.667-1.333,3.783-4.333,9.35-9l8.65,2.3c6.434,1.967,11.317,3.983,14.65,6.05
			c4,2.5,6.834,4.017,8.5,4.55c1.667,0.5,3.5,0.434,5.5-0.2c1.334-0.434,3.483-1.367,6.45-2.8c2.634-0.933,4.717-0.783,6.25,0.45
			c1.434,1.2,3.033,3.15,4.8,5.85c3.533,5.333,5.483,8.267,5.851,8.8C124.85,26.7,126.533,28.233,128.7,29.6z"/>
		<path style="fill-rule:evenodd;clip-rule:evenodd;fill:#615A3B;" d="M125.65,27.3c1.633,1.534,4.199,3.317,7.699,5.35
			c2.801,2.267,4.567,5.617,5.301,10.05c0.833,5.133,2.866,9.95,6.1,14.45c1.6,2.233,3.116,3.966,4.55,5.199L128.65,75
			c-7.301,4.566-15.967,7.134-26,7.7c-1.233,0.066-5.601,0.434-13.101,1.1c-2.867,0.233-5.167,0.084-6.9-0.45
			c-1.367-0.433-2.967-1-4.8-1.699c-1.833-0.733-3.684-1.384-5.55-1.95c-1.767-0.566-4.466-1.233-8.1-2
			c-3.367-0.7-5.667-1.267-6.9-1.7c-3.767-1.333-6.533-2.884-8.3-4.65c-0.767-0.767-2.4-1.3-4.9-1.6
			c-3.333-0.4-5.483-0.75-6.45-1.05c-1.667-0.566-3.933-2.066-6.8-4.5L27,60.7c1.3,0.5,2.533,0.733,3.7,0.7
			c0.667-0.034,2.1-0.267,4.3-0.7c0.133-0.033,1.85-0.167,5.15-0.4c1.1-0.1,2.05-0.75,2.85-1.95c0.6-0.899,1-1.75,1.2-2.55
			c0.133-0.566,0.617-1.267,1.45-2.1c2.9-2.9,4.783-4.45,5.65-4.65c0.9-0.233,1.8-0.566,2.7-1L52.85,51.9
			c-0.8,2.767-1.2,4.699-1.2,5.8c0,1.3,0.2,2.483,0.6,3.55c0.367,1.033,1.05,2.3,2.05,3.8c1.167,1.767,2.1,2.917,2.8,3.45
			c1.1,0.866,2.95,1.6,5.55,2.2c3.033,0.733,5.733,1.1,8.1,1.1c2.633-0.033,4.267-0.517,4.9-1.45c0.934-1.366,1.617-2.316,2.05-2.85
			c0.767-0.9,1.533-1.5,2.3-1.8c0.433-0.167,1.383-0.351,2.85-0.55c1.267-0.167,2.2-0.434,2.8-0.801
			c1.233-0.767,2.6-1.399,4.1-1.899c2-0.667,3.3-0.7,3.9-0.101c1.333,1.334,2.233,2.167,2.699,2.5c1.267,0.9,2.25,1.067,2.95,0.5
			c0.566-0.433,1.5-0.55,2.8-0.35c1.034-0.167,1.551-1.384,1.551-3.65c0-0.166-0.167-3.366-0.5-9.6c-0.2-3.733-0.034-5.867,0.5-6.4
			c0.533-0.5,0.666-1.733,0.399-3.7c-0.333-2.3-0.467-3.617-0.399-3.95c0.133-0.567,0.949-0.967,2.449-1.2
			c1.934-0.3,3.334-0.783,4.2-1.45c1.066-0.8,1.434-2.917,1.101-6.35c-0.334-3.667-0.467-5.55-0.4-5.65
			c0.667-1,1.434-1.783,2.3-2.35c1.367-0.867,2.483-0.65,3.351,0.65C117.483,22.65,120.483,24.633,125.65,27.3z"/>
		<path style="fill-rule:evenodd;clip-rule:evenodd;fill:#524C32;" d="M112.3,65.25c1.667,1.3,2.9,2,3.7,2.1
			c3.5,0.467,5.6,0.467,6.3,0c0.334-0.199,0.816-0.783,1.45-1.75c0.7-1.133,1.333-1.983,1.9-2.55c0.566-0.566,1.55-1.7,2.949-3.399
			c1.467-1.467,3.034-2.334,4.7-2.601c1.334-0.233,2.25-0.6,2.75-1.1c0.167-0.167,0.584-0.033,1.25,0.399
			c0.934,0.634,2.3,1.367,4.101,2.2c2.199,1.033,4.416,1.9,6.649,2.601c0.5,0.533,0.917,0.933,1.25,1.199L128.65,75
			c-7.301,4.566-15.967,7.134-26,7.7c-1.233,0.066-5.601,0.434-13.101,1.1c-2.867,0.233-5.167,0.084-6.9-0.45
			c-1.367-0.433-2.967-1-4.8-1.699c-1.833-0.733-3.684-1.384-5.55-1.95c-1.767-0.566-4.466-1.233-8.1-2
			c-3.367-0.7-5.667-1.267-6.9-1.7c-3.767-1.333-6.533-2.884-8.3-4.65c-0.767-0.767-2.4-1.3-4.9-1.6
			c-3.333-0.4-5.483-0.75-6.45-1.05c-1.033-0.334-2.383-1.101-4.05-2.3c2.433,0.733,4.083,1.149,4.95,1.25
			c1.434,0.199,2.684,0,3.75-0.601c2-1.133,3.784-2.25,5.35-3.35L51.2,68.6c2.633,3.334,4.566,5.15,5.8,5.45
			c1,0.233,4.717,1.233,11.15,3c6.333,1.5,10.383,1.834,12.15,1c1.8-0.833,3.067-1.916,3.8-3.25c0.367-0.666,0.55-1.25,0.55-1.75
			l5-2L94.3,72.7l1.65,2.25c1.6,1.434,3.717,2.017,6.35,1.75c2.134-0.2,4.217-0.267,6.25-0.2c1.033-0.1,1.617-0.917,1.75-2.45
			c0.233-2.467,0.351-5.366,0.351-8.7C110.65,64.384,111.2,64.35,112.3,65.25z"/>
		<path style="fill-rule:evenodd;clip-rule:evenodd;fill:#877B54;" d="M43,42.7l1.65-1.05c1.434-0.566,2.983-0.433,4.65,0.4
			c2.667,1.333,4.667,2.667,6,4l-1.3,2c-0.833-0.066-1.75-0.216-2.75-0.45c-2-0.533-3.417-1.283-4.25-2.25s-1.75-1.7-2.75-2.2
			L43,42.7z"/>
		<path style="fill-rule:evenodd;clip-rule:evenodd;fill:#877B54;" d="M83.65,40.35c1,0.867,2.133,2.15,3.4,3.85
			c0.233,0.333,1.1,1.617,2.601,3.85c0.566,0.834,0.85,1.8,0.85,2.9c0,0.566-0.066,1.033-0.2,1.399c-3.767-2.666-6.533-5-8.3-7
			c-1.033-1.133-2.367-1.867-4-2.2c-2.733-0.533-4.633-1.017-5.7-1.45c-2-0.8-3.85-0.817-5.55-0.05
			c-2.067,1.267-3.983,2.167-5.75,2.7c-2.233,0.7-2.017-0.367,0.65-3.2c1.333-1.4,2.883-2.883,4.65-4.45l3.85-0.5
			c2.767-0.333,4.717-0.5,5.85-0.5s2.45,0.533,3.95,1.6C80.35,37.567,81.583,38.583,83.65,40.35z"/>
	</g>
	<g>
		<path style="fill-rule:evenodd;clip-rule:evenodd;fill:#615A3B;" d="M62.8,22.45c1.6-0.367,3.883-0.617,6.85-0.75
			c4.667-0.233,8.117-0.067,10.35,0.5l1,3.15c-1.8,0.9-3.467,1.35-5,1.35c-0.867,0-1.7,0.117-2.5,0.35
			c-1.1,0.333-1.933,0.55-2.5,0.65c-1,0.133-2.017,0.55-3.05,1.25c-1.067,0.833-1.833,1.417-2.3,1.75
			c-0.433,0.333-0.95,0.9-1.55,1.7c-0.6,0.833-1.2,1.483-1.8,1.95c-0.7,0.566-1.433,0.833-2.2,0.8c-0.967-0.2-1.783-0.35-2.45-0.45
			c-1.233-0.167-2.133-0.317-2.7-0.45c-1-0.167-1.983-0.467-2.95-0.9c-0.967-0.4-2.383-0.633-4.25-0.7L44,32.7l0.65-2.2l5.05-2.9
			c3.733-2.033,6.5-3.283,8.3-3.75C59.433,23.483,61.033,23.017,62.8,22.45z"/>
		<path style="fill-rule:evenodd;clip-rule:evenodd;fill:#524C32;" d="M90.3,64.35l2.25,2.75c1.733,2,3.217,3.417,4.45,4.25
			c2,1.334,4.434,2.667,7.3,4L104.65,80c-1.167,0.167-2.517,0.25-4.051,0.25c-3.066,0-5.5-0.417-7.3-1.25s-4.783-2.517-8.95-5.05
			l-5.7-3.601l-3.65-13l12.9-1.1c0.9,0.233,1.484,1.05,1.75,2.45C90.083,60.9,90.3,62.783,90.3,64.35z"/>
		<path style="fill-rule:evenodd;clip-rule:evenodd;fill:#524C32;" d="M127.25,29.35c2.467,1.233,4.384,2.35,5.75,3.35
			c0.866,0.667,2.2,2.333,4,5l-1,5.3c-2,0.667-3.783,1-5.35,1c-2.667,0-5.667-0.1-9-0.3c-2.067-0.133-3.851-0.133-5.351,0L114.65,44
			l-6.351-1.3c-1.533-3.133-2.633-5.583-3.3-7.35c-0.4-1.1-1.184-2.483-2.35-4.15L101,29l7.25-1.15c5.2-0.767,8.783-1.15,10.75-1.15
			C121,26.7,123.75,27.583,127.25,29.35z"/>
	</g>
	<g>
		
			<radialGradient id="SVGID_2_" cx="-56.5234" cy="117.1855" r="23.7728" gradientTransform="matrix(-0.0847 -0.9964 -0.9964 0.0847 233.53 -19.8413)" gradientUnits="userSpaceOnUse">
			<stop  offset="0.0235" style="stop-color:#74DEBE"/>
			<stop  offset="0.2353" style="stop-color:#78E0C0"/>
			<stop  offset="0.451" style="stop-color:#84E5C8"/>
			<stop  offset="0.6627" style="stop-color:#99EDD3"/>
			<stop  offset="0.8784" style="stop-color:#B5F9E4"/>
			<stop  offset="0.9765" style="stop-color:#C4FFED"/>
		</radialGradient>
		<path style="fill-rule:evenodd;clip-rule:evenodd;fill:url(#SVGID_2_);" d="M134.05,39.95c-0.5,0.333-1.467,0.466-2.899,0.4
			c-2-0.1-5.051-0.15-9.15-0.15c-2.167,0-4.45,0.133-6.85,0.4l-3,0.4l-1.851-2.65c-3-3.567-4.833-5.783-5.5-6.65
			c-0.366-0.5-1.083-1.05-2.149-1.65c-1.034-0.6-1.584-0.95-1.65-1.05c-0.134-0.2-0.15-0.867-0.05-2l0.2-1.65L104.8,23
			c0.334-1,0.617-2.217,0.851-3.65c0.133-0.9,0.267-2.067,0.399-3.5L106.15,14l4-2c1.767-0.767,3.216-1.267,4.35-1.5l2.3,2.85
			l3.7,2.35l0.3,3.8l1.851,3.35c0.233,0.566,2.066,2.017,5.5,4.35l1.1,0.65c0.934,0.566,1.85,1.233,2.75,2
			c1.434,1.233,2.65,2.683,3.65,4.35l-0.351,1.25c-0.233,0.966-0.399,1.816-0.5,2.55C134.733,38.967,134.483,39.617,134.05,39.95z"
			/>
		
			<radialGradient id="SVGID_3_" cx="-41.8438" cy="61.9824" r="23.9358" gradientTransform="matrix(-0.0846 -0.9964 -0.9964 0.0846 123.5206 -10.4882)" gradientUnits="userSpaceOnUse">
			<stop  offset="0.0235" style="stop-color:#74DEBE"/>
			<stop  offset="0.2353" style="stop-color:#78E0C0"/>
			<stop  offset="0.451" style="stop-color:#84E5C8"/>
			<stop  offset="0.6627" style="stop-color:#99EDD3"/>
			<stop  offset="0.8784" style="stop-color:#B5F9E4"/>
			<stop  offset="0.9765" style="stop-color:#C4FFED"/>
		</radialGradient>
		<path style="fill-rule:evenodd;clip-rule:evenodd;fill:url(#SVGID_3_);" d="M64.3,13.7c2.667,0.1,4.95,0.433,6.85,1l1.7,1.55
			c1.267,1.2,2.25,2.183,2.95,2.95c1.133,1.2,2.534,2.2,4.2,3l-2.35,2.65c-1.9,0.233-4.45,0.4-7.65,0.5
			c-2.033,0.066-3.583,0.65-4.65,1.75l-1.05,1.6l-4.8,3.15c-1.2,0.767-2.367,0.933-3.5,0.5l-1.35-0.85
			c-1.9-0.333-3.617-0.667-5.15-1c-0.967-0.2-2.067-0.267-3.3-0.2l-1.55,0.2c-0.1-2.667-0.316-5.1-0.65-7.3
			c-0.2-1.4-0.3-2.684-0.3-3.85L43.8,18c1.133-0.667,2.3-1.833,3.5-3.5c0.767-1.033,1.95-1.95,3.55-2.75c0.8-0.4,1.517-0.7,2.15-0.9
			l4.15,1.35C60.25,13.133,62.633,13.633,64.3,13.7z"/>
		
			<radialGradient id="SVGID_4_" cx="-96.104" cy="71.1904" r="35.0878" gradientTransform="matrix(-0.0844 -0.9964 -0.9964 0.0844 141.8724 -12.0211)" gradientUnits="userSpaceOnUse">
			<stop  offset="0.0235" style="stop-color:#74DEBE"/>
			<stop  offset="0.2353" style="stop-color:#78E0C0"/>
			<stop  offset="0.451" style="stop-color:#84E5C8"/>
			<stop  offset="0.6627" style="stop-color:#99EDD3"/>
			<stop  offset="0.8784" style="stop-color:#B5F9E4"/>
			<stop  offset="0.9765" style="stop-color:#C4FFED"/>
		</radialGradient>
		<path style="fill-rule:evenodd;clip-rule:evenodd;fill:url(#SVGID_4_);" d="M81.25,56.55c0.4,0.467,0.917,0.9,1.55,1.3
			c1.6,1.067,2.55,1.717,2.85,1.95c1.133,0.834,1.75,1.467,1.85,1.9c0.1,0.666,0.7,2.883,1.8,6.649l1.7,1.2
			c1.467,1,2.967,1.983,4.5,2.95l5.15,3.35l-0.851,3.5c-0.133,0.434-0.116,1.117,0.05,2.051c0.101,0.466,0.2,0.899,0.301,1.3
			c-2.334,0.2-5.45,0.583-9.351,1.149c-2.4,0.367-4.15,0.551-5.25,0.551l-0.9-0.051l-17.85-6c-1.767-0.433-4.933-1.216-9.5-2.35
			c-2.833-0.7-5.233-1.767-7.2-3.2L48,70.85L47.3,66.7l2-1.5c1.333-1,2.4-2.283,3.2-3.851l5.3-1.85c0.8-0.7,1.667-1.45,2.6-2.25
			c1.833-1.566,3.033-2.533,3.6-2.9c0.333-0.233,2-0.05,5,0.551c2.933,0.566,4.7,0.55,5.3-0.051c0.367-0.366,1.55-0.283,3.55,0.25
			c1.033,0.267,2.017,0.567,2.95,0.9L81.25,56.55z"/>
		<path style="fill-rule:evenodd;clip-rule:evenodd;fill:#D1FFF1;" d="M122.75,23c-0.333,1.233-0.5,2.15-0.5,2.75
			c0,0.933-0.833,2.55-2.5,4.85l-2.5,3.15c-0.7-0.667-1.434-1.467-2.2-2.4c-1.5-1.867-2.35-3.483-2.55-4.85
			c-0.167-1-0.134-2.783,0.1-5.35c0.2-2.367,0.167-4.083-0.1-5.15c-0.4-1.533-2.4-2.267-6-2.2c1.134-0.633,2.35-1.233,3.65-1.8
			c1.767-0.767,3.216-1.267,4.35-1.5l2.3,2.85l3.7,2.35l0.3,3.8l1.851,3.35L122.75,23z"/>
		
			<use xlink:href="#flash0.ai_x5F_26_x2F_Layer_148_x2F__x3C_Path_x3E__x5F_2"  width="35.65" height="17.988" y="-17.985" transform="matrix(1 0 0 -1 44.3501 14.6001)" style="overflow:visible;opacity:0.4297;enable-background:new    ;"/>
		
			<use xlink:href="#flash0.ai_x5F_26_x2F_Layer_148_x2F__x3C_Path_x3E__x5F_1"  width="52.5" height="24.106" y="-24.1" transform="matrix(1 0 0 -1 48.1499 60.2998)" style="overflow:visible;opacity:0.4297;enable-background:new    ;"/>
		
			<use xlink:href="#flash0.ai_x5F_26_x2F_Layer_148_x2F__x3C_Path_x3E__x5F_3"  width="30.25" height="25.7" y="-25.7" transform="matrix(1 0 0 -1 105.4004 15.2998)" style="overflow:visible;opacity:0.4297;enable-background:new    ;"/>
	</g>
	<g>
		<path style="fill-rule:evenodd;clip-rule:evenodd;fill:#D1FFF1;" d="M87.7,62.6l-2.05,1.75c-0.2,0.2-1.133,0.334-2.8,0.4
			c-1.7,0.066-2.717-0.017-3.05-0.25c-0.6-0.467-1.75-1.116-3.45-1.95c-2.3-1.1-4.417-1.866-6.35-2.3
			c-2.033-0.533-3.217-0.85-3.55-0.95c-0.333-0.066-0.9,0-1.7,0.2c-0.333,0.1-1.233,0.434-2.7,1c-1.167,0.467-2.433,0.8-3.8,1
			c-2.233,0.333-3.383,0.5-3.45,0.5c-0.7,0.167-1.716,0.583-3.05,1.25L50.8,63.8c0.434-0.533,0.85-1.1,1.25-1.7l0.45-0.75l5.3-1.85
			c0.8-0.7,1.667-1.45,2.6-2.25c1.833-1.566,3.033-2.533,3.6-2.9c0.333-0.233,2-0.05,5,0.551c2.933,0.566,4.7,0.55,5.3-0.051
			c0.367-0.366,1.55-0.283,3.55,0.25c1.033,0.267,2.017,0.567,2.95,0.9l0.45,0.55c0.4,0.467,0.917,0.9,1.55,1.3
			c1.6,1.067,2.55,1.717,2.85,1.95c1.133,0.834,1.75,1.467,1.85,1.9L87.7,62.6z"/>
		<path style="fill-rule:evenodd;clip-rule:evenodd;fill:#D1FFF1;" d="M72.95,16.35L65.5,17c-2.5-0.667-4.833-1.167-7-1.5
			c-1.367-0.2-3.233-0.35-5.6-0.45L49.75,15l0.75,1.25c0.5,0.833,2.75,1.833,6.75,3C54.75,19.083,51.667,19,48,19
			c-1.6,0-3.033,0.083-4.3,0.25L43.8,18c1.133-0.667,2.3-1.833,3.5-3.5c0.767-1.033,1.95-1.95,3.55-2.75c0.8-0.4,1.517-0.7,2.15-0.9
			l4.15,1.35c3.1,0.933,5.483,1.433,7.15,1.5c2.667,0.1,4.95,0.433,6.85,1L72.95,16.35z"/>
	</g>
</g>
</svg>
