<?xml version="1.0" encoding="iso-8859-1"?>
<!-- Generator: Adobe Illustrator 15.1.0, SVG Export Plug-In . SVG Version: 6.00 Build 0)  -->
<!DOCTYPE svg PUBLIC "-//W3C//DTD SVG 1.1//EN" "http://www.w3.org/Graphics/SVG/1.1/DTD/svg11.dtd">
<svg version="1.1" id="flash0.ai" xmlns="http://www.w3.org/2000/svg" xmlns:xlink="http://www.w3.org/1999/xlink" x="0px" y="0px"
	 width="188.3px" height="73.8px" viewBox="0 0 188.3 73.8" style="enable-background:new 0 0 188.3 73.8;" xml:space="preserve">
<symbol  id="flash0.ai_x5F_6_x2F_Layer_64_x2F__x3C_Path_x3E_" viewBox="0 -48.35 188.3 48.35">
	<g id="Layer_1_2_">
		
			<radialGradient id="SVGID_1_" cx="93.8501" cy="-24.4502" r="81.15" gradientTransform="matrix(1 0 0 -0.2498 0 -30.5591)" gradientUnits="userSpaceOnUse">
			<stop  offset="0" style="stop-color:#000000;stop-opacity:0.6196"/>
			<stop  offset="1" style="stop-color:#000000;stop-opacity:0"/>
		</radialGradient>
		<path style="fill-rule:evenodd;clip-rule:evenodd;fill:url(#SVGID_1_);" d="M160.75-7.1c18.367-4.733,27.55-10.433,27.55-17.1
			c0-6.667-9.183-12.367-27.55-17.1c-18.4-4.7-40.6-7.05-66.6-7.05S45.967-46,27.6-41.3C9.2-36.567,0-30.867,0-24.2
			c0,6.667,9.2,12.367,27.6,17.1C45.967-2.367,68.15,0,94.15,0S142.35-2.367,160.75-7.1z"/>
	</g>
</symbol>
<symbol  id="flash0.ai_x5F_6_x2F_Layer_64_x2F__x3C_Path_x3E__x5F_0" viewBox="-0.007 -31.7 135.157 31.628">
	<g id="Layer_1_3_">
		<path style="fill-rule:evenodd;clip-rule:evenodd;" d="M133.05-8.35c0.4-0.467,0.534-0.683,0.4-0.65
			c-0.367,0.1-0.6-0.017-0.7-0.35c-0.133-0.433,0.233-0.95,1.1-1.55c0.433-0.3,0.867-0.55,1.3-0.75l-1.2-1.3
			c-0.2-0.066-0.417-0.167-0.65-0.3c-0.5-0.3-0.883-0.65-1.15-1.05c-0.233-0.367-0.566-0.684-1-0.95c-0.7-0.433-1.183-0.767-1.45-1
			c-0.5-0.433-1.15-1.117-1.95-2.05l-1.05-1.25l-4.55-1.65c-1.7-0.633-3.133-1.283-4.3-1.95c-0.967-0.567-1.65-0.9-2.05-1
			c-1.2-0.267-1.933-0.45-2.2-0.55c-0.934-0.333-2.117-0.917-3.55-1.75c-1.433-0.833-2.75-1.316-3.95-1.45
			c-1.9-0.033-3.817-0.1-5.75-0.2c-2.067-0.1-4.184-0.433-6.35-1c-2.533-0.667-4.667-1.1-6.4-1.3c-2.233-0.267-3.85-0.35-4.85-0.25
			c-1.867,0.167-3.267,0.25-4.2,0.25h-9.4c-1.7,0-2.9-0.117-3.6-0.35c-0.7-0.2-1.617-0.3-2.75-0.3c-1.267,0-2.6-0.117-4-0.35
			c-1.433-0.2-2.633-0.3-3.6-0.3c-0.934,0-3.05,0.567-6.35,1.7c-3.434,1.167-5.95,1.8-7.55,1.9c-1.9,0.133-3.667,0.8-5.3,2
			c-1.4,1.3-2.267,2.067-2.6,2.3c-0.1,0.066-0.867,0.483-2.3,1.25c-1.2,0.633-2.033,1.2-2.5,1.7c-0.4,0.434-0.917,0.867-1.55,1.3
			c-0.6,0.433-1.1,0.867-1.5,1.3c-0.466,0.533-1.25,0.767-2.35,0.7c-1.6-0.067-2.534-0.067-2.8,0c-0.733,0.133-1.867,0.167-3.4,0.1
			l-2.05-0.1c-1.4,0.633-2.517,1.066-3.35,1.3c-0.867,0.233-1.417,0.4-1.65,0.5C9.383-15.483,8.833-15,8.3-14.3
			c-0.5,0.7-0.95,1.133-1.35,1.3L6.5-12.95L1.95-12c-1.9,0.4-2.417,0.967-1.55,1.7l1.85,0.95l1.8,1.3
			c3.233,2.867,5.65,4.633,7.25,5.3c1.633,0.633,3.55,1.483,5.75,2.55c0.667,0.267,2.167,0.117,4.5-0.45
			c3.1-0.767,6.05-1.15,8.85-1.15c10.733,0.267,20.533,0.466,29.4,0.6c17.133,0.2,29.133-0.1,36-0.9
			c6.133-0.733,11.517-1.2,16.15-1.4c3.667-0.133,6.25-0.333,7.75-0.6c1.933-0.333,4.033-0.783,6.3-1.35c1.7-0.4,2.733-0.6,3.1-0.6
			C130.333-6.05,131.65-6.817,133.05-8.35z"/>
	</g>
</symbol>
<g>
	<g>
		<g>
			
				<use xlink:href="#flash0.ai_x5F_6_x2F_Layer_64_x2F__x3C_Path_x3E_"  width="188.3" height="48.35" y="-48.35" transform="matrix(1 0 0 -1 0 25.4502)" style="overflow:visible;opacity:0.6289;enable-background:new    ;"/>
		</g>
		<g>
			
				<use xlink:href="#flash0.ai_x5F_6_x2F_Layer_64_x2F__x3C_Path_x3E__x5F_0"  width="135.157" height="31.628" x="-0.007" y="-31.7" transform="matrix(1 0 0 -1 31.3501 34.2002)" style="overflow:visible;opacity:0.1406;enable-background:new    ;"/>
		</g>
		<g>
			<path style="fill-rule:evenodd;clip-rule:evenodd;fill:#C9CACC;" d="M132.9,9.35c0.399,0.566,1.8,2.167,4.199,4.8
				c2.4,2.767,4.034,5,4.9,6.7c0.9,1.833,1.95,3.383,3.15,4.65c0.699,0.733,1.767,1.7,3.199,2.9c0.767,0.733,2.034,2.767,3.801,6.1
				c1.666,3.233,2.616,4.934,2.85,5.1c0.6,0.434,2.017,2.851,4.25,7.25c-3.333,2.233-7.184,4.5-11.55,6.801
				c-8.733,4.6-15.684,7.05-20.851,7.35c-3.899,0.2-7.6,0.533-11.1,1c-2.267,0.3-4.616,0.4-7.05,0.3c-0.2,0-2.117-0.233-5.75-0.7
				c-0.834-0.1-2.15,0.233-3.95,1c-2.033,0.9-4.417,1.267-7.15,1.101c-1.733-0.134-4.5-0.601-8.3-1.4
				c-3.867-0.833-8.816-2.583-14.85-5.25c-0.467-0.2-1.467-0.967-3-2.3c-1.367-1.167-2.684-1.934-3.95-2.3
				c-0.6-0.167-1.633-0.601-3.1-1.3c-0.9-0.4-2.283-0.733-4.15-1c-2.1-0.301-4.067-0.767-5.9-1.4c-0.767-0.233-2.133-0.767-4.1-1.6
				c-1.033-0.4-2.5-1.45-4.4-3.15l-2.6-2.45c0.5-0.967,1.467-2.399,2.9-4.3c1.6-2.133,2.867-3.983,3.8-5.55
				c1.566-2.667,4.216-5.417,7.95-8.25c4.233-3.2,7.733-4.717,10.5-4.55c3.033,0.167,5.55-0.066,7.55-0.7
				c2.033-0.633,3.35-1.617,3.95-2.95c0.533-1.133,2.15-2.85,4.85-5.15c2.3-1.967,3.917-3.2,4.85-3.7c0.4-0.2,1.8-1.083,4.2-2.65
				c2.567-1.467,4.8-2.35,6.7-2.65c1.667-0.233,3.783-0.217,6.35,0.05c2.7,0.3,4.517,0.4,5.45,0.3c0.233-0.034,1.483-0.434,3.75-1.2
				c1.2-0.433,2.584-0.25,4.15,0.55c1.3,0.633,3.05,1.35,5.25,2.15c1.733,0.633,2.8,1.117,3.2,1.45c0.267,0.233,1.933,0.983,5,2.25
				C130.767,7.817,132.434,8.717,132.9,9.35z"/>
			<path style="fill-rule:evenodd;clip-rule:evenodd;fill:#E3E4E6;" d="M132.9,9.35c0.399,0.566,1.8,2.167,4.199,4.8
				c2.4,2.767,4.034,5,4.9,6.7c0.9,1.833,1.95,3.383,3.15,4.65c0.699,0.733,1.767,1.7,3.199,2.9c0.467,0.467,1.051,1.267,1.75,2.4
				l-0.55,0.25c-2.233,1.2-6.333-0.8-12.3-6c-5.634-5.533-8.6-8.35-8.9-8.45c-0.833-0.1-1.716-0.283-2.649-0.55
				c-1.834-0.466-3.867-1.383-6.101-2.75c-2.033-1.233-4.017-1.767-5.949-1.6c-2.334,0.167-4.101,0.033-5.301-0.4
				c-1.666-0.6-3.25-0.783-4.75-0.55c-3.466,0.5-6.716,0.8-9.75,0.9c-4.233,0.133-6.567,0.35-7,0.65c-0.5,0.367-1.4,0.583-2.7,0.65
				c-2.1,0.133-3.25,0.367-3.45,0.7c-0.6,0.934-1.167,1.583-1.7,1.95c-1,0.667-1.417,0.983-1.25,0.95
				c0.433-0.066,0.45,0.167,0.05,0.7l-4.55,5.6c-1.2,0-2.217-0.233-3.05-0.7c-0.434-0.233-1.034-0.25-1.8-0.05
				c-1.1,0.267-2,0.4-2.7,0.4c-1,0-1.784,0.333-2.35,1c-0.567,0.867-1.1,1.517-1.6,1.95c-0.567,0.5-1.067,0.65-1.5,0.45
				c-0.967-0.433-1.783-0.683-2.45-0.75c-0.9-0.1-1.433-0.15-1.6-0.15c-0.434,0.1-1.417,0.15-2.95,0.15
				c-1.367,0-2.633,0.184-3.8,0.55c2.267-2.034,4.5-3.65,6.7-4.85c2.533-1.4,4.7-2.05,6.5-1.95c3.033,0.167,5.55-0.066,7.55-0.7
				c2.033-0.633,3.35-1.617,3.95-2.95c0.533-1.133,2.15-2.85,4.85-5.15c2.3-1.967,3.917-3.2,4.85-3.7c0.4-0.2,1.8-1.083,4.2-2.65
				c2.567-1.467,4.8-2.35,6.7-2.65c1.667-0.233,3.783-0.217,6.35,0.05c2.7,0.3,4.517,0.4,5.45,0.3c0.233-0.034,1.483-0.434,3.75-1.2
				c1.2-0.433,2.584-0.25,4.15,0.55c1.3,0.633,3.05,1.35,5.25,2.15c1.733,0.633,2.8,1.117,3.2,1.45c0.267,0.233,1.933,0.983,5,2.25
				C130.767,7.817,132.434,8.717,132.9,9.35z"/>
			<path style="fill-rule:evenodd;clip-rule:evenodd;fill:#B5B6B8;" d="M122.5,30.8c2.066-0.533,3.417-0.667,4.05-0.4
				c0.634,0.267,0.917,1,0.851,2.2c0,0.633-0.084,1.217-0.25,1.75c-2.834,3.5-4.551,5.25-5.15,5.25c-0.5,0-0.967-0.149-1.4-0.449
				c-0.466-0.334-0.699-0.733-0.699-1.2c0-0.4-0.351-0.467-1.051-0.2l-1.1,0.55c-2.833-0.434-4.75-0.883-5.75-1.35
				c-0.634-0.267-2.233-1.217-4.8-2.85l-3.65-2.4l11.7,0.8c-0.733-0.1-0.6-0.15,0.4-0.15c1.233,0,2.066-0.067,2.5-0.2
				c0.3-0.066,0.783-0.217,1.449-0.45L122.5,30.8z"/>
			<path style="fill-rule:evenodd;clip-rule:evenodd;fill:#B5B6B8;" d="M92.35,44.2c1.066-0.767,1.6-1.733,1.6-2.9
				c0-2.399,0.066-3.95,0.2-4.65l0.899-3.95l3.05,4.95c0.467,0.666,0.95,1.533,1.45,2.6c0.5,1.1,0.816,1.983,0.95,2.65
				c0.167,0.8,0.566,2.017,1.2,3.649c0.733,1.934,1.45,3.566,2.149,4.9c0.634,1.267,1.467,2.233,2.5,2.899
				c0.634,0.434,1.717,1,3.25,1.7c1.551,0.84,3.301,1.273,5.25,1.3c-3.128,0.014-5.395,0.347-6.8,1c-1.267,0.601-2.6,1.067-4,1.4
				c-1.967,0.434-4.467,0.733-7.5,0.9c-2.2,0.1-3.816,0.449-4.85,1.05c-0.867,0.5-2.267,0.7-4.2,0.6c-2.4-0.133-5.7-0.833-9.9-2.1
				l-5.55-1.851h6.65c0.633,0,1.5-0.116,2.6-0.35c0.6-0.134,1.45-0.35,2.55-0.65c0.566-0.1,1.117-0.716,1.65-1.85
				c0.767-1.566,1.333-2.583,1.7-3.05c0.633-0.834,0.966-1.45,1-1.851c-0.067-0.433-0.1-0.816-0.1-1.149
				c0-0.533,0.367-1.283,1.1-2.25C90.033,46.134,91.083,45.134,92.35,44.2z"/>
			<path style="fill-rule:evenodd;clip-rule:evenodd;fill:#B5B6B8;" d="M53.7,36.45l15-2.1c0,0.667-0.4,1.433-1.2,2.3
				c-0.5,0.534-1.15,2.017-1.95,4.45c-0.433,1.2-0.8,2.351-1.1,3.45l0.3,3.601c-2,0.233-3.817,0.35-5.45,0.35
				c-2,0.233-3.7,0.366-5.1,0.4c-2.6,0.1-4.833-0.267-6.7-1.101c-2.467-0.967-4.067-1.6-4.8-1.899c-1.1-0.467-2.017-1.034-2.75-1.7
				l-1.8-1.65l3.3-1.649c2.4,0.433,4.3,0.517,5.7,0.25c0.8-0.167,1.733-0.567,2.8-1.2c0.4-0.267,1.183-0.867,2.35-1.8
				c1-0.767,1.733-1.267,2.2-1.5S54.7,36.35,53.7,36.45z"/>
			<g>
				<path style="fill-rule:evenodd;clip-rule:evenodd;fill:#8D9296;" d="M122.3,14.3c0.101-0.066,0.8-0.6,2.101-1.6
					c0.633-0.534,1.25-0.667,1.85-0.4c0.467,0.2,1.2,0.367,2.2,0.5c0.833,0.1,1.399,0.267,1.7,0.5
					c0.199,0.133,0.483-0.216,0.85-1.05c0.333-0.8,0.967-0.9,1.9-0.3c0.733,0.5,2.433,2.733,5.1,6.7c2.667,3.934,4.6,6.317,5.8,7.15
					c1.167,0.8,2.617,1.6,4.351,2.4l0.199,0.2c0.767,0.733,2.034,2.767,3.801,6.1c1.666,3.233,2.616,4.934,2.85,5.1
					c0.6,0.434,2.017,2.851,4.25,7.25c-3.333,2.233-7.184,4.5-11.55,6.801c-8.733,4.6-15.684,7.05-20.851,7.35
					c-3.899,0.2-7.6,0.533-11.1,1c-2.267,0.3-4.616,0.4-7.05,0.3c-0.2,0-2.117-0.233-5.75-0.7c-0.834-0.1-2.15,0.233-3.95,1
					c-2.033,0.9-4.417,1.267-7.15,1.101c-1.733-0.134-4.5-0.601-8.3-1.4c-3.867-0.833-8.816-2.583-14.85-5.25
					c1.6,0.101,3.216,0.483,4.85,1.15c1.833,0.767,3.45,1.25,4.85,1.45c1.533,0.233,2.934,0.533,4.2,0.899
					c1.267,0.2,3.5,0.233,6.7,0.101c3.267-0.134,5.75-0.483,7.45-1.051c0.934-0.3,1.983-0.716,3.15-1.25
					c0.699-0.199,1.666-0.55,2.899-1.05c1.134-0.399,2.384-0.6,3.75-0.6c1.134,0,2.983,0.166,5.55,0.5c2.134,0.1,3.517-0.4,4.15-1.5
					c0.533-0.934,1.05-2.084,1.55-3.45c0.634-1.767,1.233-3.25,1.8-4.45c0.5-1.1,1.434-2.316,2.801-3.649
					c0.933-0.967,1.399-2.051,1.399-3.25c0-0.767,0.167-1.934,0.5-3.5c0.233-1.034,0.167-2.05-0.2-3.05
					c-0.267-0.8-0.933-1.533-2-2.2c-0.966-0.566-1.5-1.367-1.6-2.4c-0.066-0.633-0.233-1.7-0.5-3.2c-0.167-0.867-0.2-1.667-0.1-2.4
					c0.1-0.767,0.35-1.617,0.75-2.55c0.433-1.067,0.683-1.75,0.75-2.05c-0.034-1.167-0.067-2.083-0.101-2.75
					C121.233,15.5,121.566,14.667,122.3,14.3z"/>
				<path style="fill-rule:evenodd;clip-rule:evenodd;fill:#8D9296;" d="M48.6,48.75c-0.767-0.233-2.133-0.767-4.1-1.6
					c-0.7-0.267-1.633-0.867-2.8-1.801l1.55,0.5c2.233,0.667,4.233,1.284,6,1.851c0.833,0.233,1.767,0.267,2.8,0.1
					c3.767-0.467,6.083-0.783,6.95-0.95c0.433-0.1,1.217-0.333,2.35-0.699c1-0.267,1.7-0.367,2.1-0.301l0.7,1.301
					c0.633,1.1,1.283,2.233,1.95,3.399c0.4,0.767,0.667,1.5,0.8,2.2c0.1,0.533-0.117,1.366-0.65,2.5c-1.6-1.467-3.1-2.4-4.5-2.8
					c-0.6-0.167-1.633-0.601-3.1-1.3c-0.9-0.4-2.283-0.733-4.15-1C52.4,49.85,50.433,49.384,48.6,48.75z"/>
			</g>
			<path style="fill-rule:evenodd;clip-rule:evenodd;fill:#F7F8FA;" d="M132.9,11.95l1.649,2c0.733,1.3,0.084,1.95-1.95,1.95
				c-0.933,0-2.316,0.25-4.149,0.75l-0.101-0.05c-0.833-0.1-1.716-0.283-2.649-0.55c-1.834-0.466-3.867-1.383-6.101-2.75
				c-2.033-1.233-4.017-1.767-5.949-1.6c-2.334,0.167-4.101,0.033-5.301-0.4c-1.666-0.6-3.25-0.783-4.75-0.55
				c-3.466,0.5-6.716,0.8-9.75,0.9c-4.233,0.133-6.567,0.35-7,0.65c-0.5,0.367-1.4,0.583-2.7,0.65c-2.1,0.133-3.25,0.367-3.45,0.7
				c-0.6,0.934-1.167,1.583-1.7,1.95c-1,0.667-1.417,0.983-1.25,0.95c0.433-0.066,0.45,0.167,0.05,0.7l-4.55,5.6
				c-1.2,0-2.217-0.233-3.05-0.7c-0.434-0.233-1.034-0.25-1.8-0.05c-1.1,0.267-2,0.4-2.7,0.4c-1,0-1.784,0.333-2.35,1
				c-0.567,0.867-1.1,1.517-1.6,1.95c-0.4,0.367-0.733,0.566-1,0.6c-0.167,0-0.433-0.083-0.8-0.25c1.333-1.033,2.733-2.35,4.2-3.95
				l1.1-0.8c0.967-0.466,2.017-0.633,3.15-0.5c0.934,0.1,1.467,0.434,1.6,1c0.067,0.2,0.45-0.033,1.15-0.7
				c0.7-0.633,1.05-0.8,1.05-0.5c0,0.133,0.35-0.35,1.05-1.45c1.4-2.2,2.417-3.85,3.05-4.95l2.1-1.3c0.3-0.233,0.934-0.4,1.9-0.5
				c1.067-0.133,1.85-0.3,2.35-0.5c0.5-0.2,1-0.5,1.5-0.9c0.6-0.267,1.717-0.4,3.35-0.4c0.1,0,1.1,0.066,3,0.2
				c0.467,0.034,1.483-0.15,3.05-0.55c0.634-0.167,1.851-0.4,3.65-0.7c0.666-0.133,1.366-0.45,2.1-0.95
				C99.9,7.917,99.9,7.7,99.3,7.7c-0.2,0,0.4-0.217,1.8-0.65c1.434-0.433,3.084-0.917,4.95-1.45c1.334-0.4,2.316-0.8,2.95-1.2
				c-0.467,0.434-1.017,1.067-1.65,1.9c-1.3,1.733-0.85,2.534,1.351,2.4c2.333-0.133,3.934-0.1,4.8,0.1
				c0.533,0.133,1.15,0.417,1.85,0.85c0.5,0.233,0.834,0.567,1,1c0.301,0.267,1.384,0.267,3.25,0c3.967-0.566,6.584-0.667,7.851-0.3
				L132.9,11.95z"/>
		</g>
		<g>
			<path style="fill-rule:evenodd;clip-rule:evenodd;fill:#E3E4E6;" d="M93.85,33.2l1.2-0.5l-0.75,4.95H90
				c-1.467,0-2.283,0.033-2.45,0.1c-0.633,0.333-1.566,0.783-2.8,1.35c-1.633,0.801-2.6,1.233-2.9,1.301
				c-0.4-0.034-0.867-0.051-1.4-0.051c-0.9,0-4.083,0.25-9.55,0.75c-2.267,0.2-3.85,0.417-4.75,0.65l-0.7,0.3
				c0-0.633,0.3-1.866,0.9-3.7c0.367-1.133,1.2-2.45,2.5-3.95c0.667-0.767,1.283-1.417,1.85-1.95L72.35,33
				c1.267,0.367,2.217,0.6,2.85,0.7c0.466,0.066,1.466-0.034,3-0.3c1.833-0.3,3.566-0.45,5.2-0.45c1.567,0,2.8-0.117,3.7-0.35
				c0.9-0.267,2.017-0.4,3.35-0.4c1.7,0,2.767,0.167,3.2,0.5C93.883,32.867,93.95,33.033,93.85,33.2z"/>
			<path style="fill-rule:evenodd;clip-rule:evenodd;fill:#E3E4E6;" d="M93.85,43.05c-1.667,1.334-2.883,2.4-3.65,3.2
				c-0.467,0.533-0.983,0.9-1.55,1.1l-0.7,0.15l-2.3,1.25c-2.1,0-4.066-0.167-5.9-0.5c-1.133-0.2-2.483-0.55-4.05-1.05l-2.05-0.7
				L78.4,46c0.934-0.1,1.667-0.316,2.2-0.65c0.667-0.399,1.217-0.666,1.65-0.8c0.633-0.166,1.333-0.434,2.1-0.8
				c0.833-0.3,2.033-0.45,3.6-0.45c1.167,0,2.283-0.1,3.35-0.3C92.033,42.866,92.883,42.884,93.85,43.05z"/>
			<path style="fill-rule:evenodd;clip-rule:evenodd;fill:#E3E4E6;" d="M111.55,21.1c3.167,0,6.267,0.083,9.3,0.25l-0.949,2.8
				l0.1,1.35c0.066,1,0.05,1.75-0.05,2.25c-0.134,0.833,0.316,2.15,1.35,3.95c-1.8,0.333-3.684,0.55-5.649,0.65
				c-1.101,0.066-2.184,0.066-3.25,0c-1.434-0.1-2.617-0.15-3.551-0.15c-1.566,0-2.649-0.083-3.25-0.25c-0.267-0.067-0.933-0.4-2-1
				c-0.733-0.4-1.899-0.883-3.5-1.45l-2.149-0.75c-0.066-0.433-0.05-0.883,0.05-1.35c0.2-0.9,0.783-1.35,1.75-1.35
				c1.134,0,2.083-0.183,2.85-0.55c0.801-0.367,1.817-1.1,3.051-2.2c1.199-1.033,2.133-1.667,2.8-1.9
				C109.017,21.2,110.05,21.1,111.55,21.1z"/>
			<path style="fill-rule:evenodd;clip-rule:evenodd;fill:#E3E4E6;" d="M116.8,42.05l-4.35,4.7c-1.8-0.167-2.851-0.667-3.15-1.5
				c-0.2-0.5-0.533-0.9-1-1.2c-0.767-0.399-1.5-0.816-2.2-1.25c-0.899-0.566-0.933-1.1-0.1-1.6c0.634-0.4,1.5-0.684,2.6-0.851
				c0.667-0.1,1.784,0.034,3.351,0.4C112.884,40.983,114.5,41.417,116.8,42.05z"/>
			<path style="fill-rule:evenodd;clip-rule:evenodd;fill:#E3E4E6;" d="M87.95,16.4l0.6,0.95c0.267,0.867,0.067,1.867-0.6,3
				c-0.633,1.1-1.017,1.6-1.15,1.5c-0.066-0.333-0.216-0.5-0.45-0.5l-5.7,0.25l0.45-0.7c0.333-0.566,0.65-1,0.95-1.3
				c0.8-0.867,1.467-1.483,2-1.85C85.283,16.85,86.583,16.4,87.95,16.4z"/>
			<path style="fill-rule:evenodd;clip-rule:evenodd;fill:#E3E4E6;" d="M52.3,31.2l3.15,1.25c0.9,0.333,2.183,0.667,3.85,1
				c3.2,0.633,4.567,1.033,4.1,1.2c-0.2,0.067-1.867,0.317-5,0.75c-0.733,0.1-1.367,0.317-1.9,0.65c-0.533,0.4-0.95,0.684-1.25,0.85
				s-0.767,0.517-1.4,1.05c-1.167,0.967-2.367,1.934-3.6,2.899c-1.6,1.233-3.4,1.65-5.4,1.25l-2.55-1c0.767-0.666,1.667-1.5,2.7-2.5
				c0.5-0.466,1.05-1.166,1.65-2.1c0.533-0.867,1.117-1.567,1.75-2.1c0.333-0.267,1.017-0.983,2.05-2.15
				C51.05,31.55,51.667,31.2,52.3,31.2z"/>
			<path style="fill-rule:evenodd;clip-rule:evenodd;fill:#73777A;" d="M140.95,39.5c0.133,0.5,0.283,0.75,0.45,0.75
				c0.666,0,1.466-0.083,2.399-0.25c1.2-0.2,2-0.45,2.4-0.75c0.633-0.434,1.55-0.866,2.75-1.3l2,0.45
				c1.566,0.399,2.916,0.8,4.05,1.199c0.6,0.434,2.017,2.851,4.25,7.25c-3.333,2.233-7.184,4.5-11.55,6.801
				c-8.733,4.6-15.684,7.05-20.851,7.35c-3.899,0.2-7.6,0.533-11.1,1c-2.267,0.3-4.616,0.4-7.05,0.3c-0.2,0-2.117-0.233-5.75-0.7
				c-0.834-0.1-2.15,0.233-3.95,1c-1.6,0.733-3.384,1.117-5.35,1.15c-1.6,0.033-3.6-0.167-6-0.6c2.033-0.134,4.1-0.2,6.2-0.2
				c1.867,0,3.133-0.2,3.8-0.601c0.533-0.3,2.083-1.3,4.649-3c2.4-1.366,3.884-1.833,4.45-1.399c0.267,0.2,0.3,0.55,0.1,1.05h6.351
				c0.967,0,1.85-0.217,2.649-0.65c0.534-0.3,1.267-0.85,2.2-1.649c0.601-0.5,0.983-1.134,1.15-1.9c0.267-1.166,0.5-1.95,0.7-2.35
				L120.3,51.6c-0.066,0.233,0,0.184,0.2-0.149c0.2-0.334,0.8-0.55,1.8-0.65c1.233-0.133,2.15-0.366,2.75-0.7
				c0.733-0.399,1.7-1.6,2.9-3.6c0.633-1.066,1.366-2.384,2.2-3.95c0.3-0.399,0.733-1.233,1.3-2.5
				c0.533-1.267,1.017-2.184,1.45-2.75c0.633-0.867,1.316-1.316,2.05-1.35c0.866-0.067,2.1,0.383,3.7,1.35
				C139.95,38.066,140.717,38.8,140.95,39.5z"/>
			<path style="fill-rule:evenodd;clip-rule:evenodd;fill:#8D9296;" d="M140.75,43.9c1.7-0.167,2.967,0.3,3.8,1.399
				c0.834,1.101,0.884,2.384,0.15,3.851c-0.601,1.199-1.2,1.899-1.8,2.1c-0.9,0.134-1.817,0.417-2.75,0.85
				c-1.134,0.534-2.334,0.801-3.601,0.801c-1.233-0.101-2.05-0.15-2.45-0.15c-0.533,0-0.75-0.533-0.649-1.6
				c0.066-0.967,0.283-1.75,0.649-2.351c0.567-0.934,1.334-1.833,2.301-2.7C137.833,44.767,139.283,44.033,140.75,43.9z"/>
			<path style="fill-rule:evenodd;clip-rule:evenodd;fill:#8D9296;" d="M148.65,41.55c1.633-0.8,2.366-0.533,2.199,0.8
				c-0.133,1.334-0.966,2.167-2.5,2.5c-1.366,0.301-1.85-0.083-1.449-1.149C147.267,42.7,147.85,41.983,148.65,41.55z"/>
			<path style="fill-rule:evenodd;clip-rule:evenodd;fill:#959A9E;" d="M133.8,23.5c3.033,2.633,4.351,4.267,3.95,4.9
				c-0.233,0.4-0.884,0.717-1.95,0.95c-1.7,0.4-2.666,0.633-2.899,0.7c-0.767,0.267-1.767,0.117-3-0.45
				c-2.134-1.1-4.267-2.15-6.4-3.15c-2.634-1.233-3.783-1.883-3.45-1.95c0.2,0,0.65,0.1,1.351,0.3l1.8-0.3
				c1.5-0.167,3.017-0.183,4.55-0.05c1.5,0.133,2.517,0.133,3.05,0C131.2,24.35,132.2,24.033,133.8,23.5z"/>
			<path style="fill-rule:evenodd;clip-rule:evenodd;fill:#959A9E;" d="M145.6,30.7c1.733,0.333,2.917,1,3.551,2
				c0.566,0.9,0.6,1.883,0.1,2.95c-0.366,0.8-0.9,0.934-1.6,0.4c-1.334-1.133-2.717-2.15-4.15-3.05
				c-1.866-1.133-2.283-1.883-1.25-2.25C143.05,30.483,144.167,30.467,145.6,30.7z"/>
		</g>
		<g>
			
				<linearGradient id="SVGID_2_" gradientUnits="userSpaceOnUse" x1="19.0581" y1="-93.8164" x2="28.4689" y2="-93.8164" gradientTransform="matrix(0.0478 0.9989 -0.9989 0.0478 -2.246276e-004 2.059862e-004)">
				<stop  offset="0" style="stop-color:#92979C"/>
				<stop  offset="1" style="stop-color:#E3E4E6"/>
			</linearGradient>
			<path style="fill-rule:evenodd;clip-rule:evenodd;fill:url(#SVGID_2_);" d="M98.6,19.75c-0.066,1.333-0.483,2.45-1.25,3.35
				c-0.8,0.867-1.716,1.267-2.75,1.2c-1.033-0.066-1.883-0.6-2.55-1.6c-0.667-0.967-0.983-2.117-0.95-3.45
				c0.066-1.333,0.5-2.433,1.3-3.3c0.767-0.9,1.667-1.317,2.7-1.25c1.034,0.066,1.9,0.583,2.601,1.55
				C98.366,17.25,98.667,18.417,98.6,19.75z"/>
			
				<linearGradient id="SVGID_3_" gradientUnits="userSpaceOnUse" x1="18.6528" y1="-111.3174" x2="25.0848" y2="-111.3174" gradientTransform="matrix(0.0471 0.9989 -0.9989 0.0471 -3.557950e-004 3.068298e-004)">
				<stop  offset="0" style="stop-color:#92979C"/>
				<stop  offset="1" style="stop-color:#E3E4E6"/>
			</linearGradient>
			<path style="fill-rule:evenodd;clip-rule:evenodd;fill:url(#SVGID_3_);" d="M114.8,16.95c-0.033,0.933-0.333,1.733-0.899,2.4
				c-0.534,0.667-1.15,0.983-1.851,0.95c-0.7-0.033-1.283-0.417-1.75-1.15s-0.684-1.566-0.649-2.5
				c0.066-0.967,0.366-1.783,0.899-2.45c0.533-0.633,1.15-0.934,1.851-0.9c0.733,0.067,1.333,0.45,1.8,1.15
				C114.667,15.15,114.866,15.983,114.8,16.95z"/>
			
				<linearGradient id="SVGID_4_" gradientUnits="userSpaceOnUse" x1="21.5845" y1="-77.4434" x2="29.0637" y2="-77.4434" gradientTransform="matrix(-0.0321 0.9995 -0.9995 -0.0321 -4.145056e-004 7.509068e-005)">
				<stop  offset="0" style="stop-color:#92979C"/>
				<stop  offset="1" style="stop-color:#E3E4E6"/>
			</linearGradient>
			<path style="fill-rule:evenodd;clip-rule:evenodd;fill:url(#SVGID_4_);" d="M79.55,28.45C79.417,29.583,79,30.5,78.3,31.2
				c-0.667,0.733-1.417,1.033-2.25,0.9c-0.833-0.133-1.483-0.633-1.95-1.5s-0.633-1.883-0.5-3.05c0.167-1.133,0.583-2.05,1.25-2.75
				c0.667-0.733,1.417-1.033,2.25-0.9c0.833,0.133,1.483,0.65,1.95,1.55C79.55,26.317,79.717,27.317,79.55,28.45z"/>
			
				<linearGradient id="SVGID_5_" gradientUnits="userSpaceOnUse" x1="57.6162" y1="-63.667" x2="64.6873" y2="-63.667" gradientTransform="matrix(0.1412 0.99 -0.99 0.1412 2.042055e-004 -3.424287e-005)">
				<stop  offset="0" style="stop-color:#92979C"/>
				<stop  offset="1" style="stop-color:#E3E4E6"/>
			</linearGradient>
			<path style="fill-rule:evenodd;clip-rule:evenodd;fill:url(#SVGID_5_);" d="M73.6,48.65c0.566,0.833,0.867,1.85,0.9,3.05
				c0.067,1.2-0.167,2.233-0.7,3.1c-0.533,0.867-1.183,1.316-1.95,1.351c-0.767,0.033-1.45-0.367-2.05-1.2
				c-0.566-0.834-0.867-1.851-0.9-3.05c-0.033-1.2,0.2-2.233,0.7-3.101c0.533-0.866,1.183-1.316,1.95-1.35
				C72.317,47.417,73,47.816,73.6,48.65z"/>
			
				<linearGradient id="SVGID_6_" gradientUnits="userSpaceOnUse" x1="23.9473" y1="-66.2559" x2="30.6745" y2="-66.2559" gradientTransform="matrix(-0.0249 0.9997 -0.9997 -0.0249 -7.063597e-004 -2.237037e-004)">
				<stop  offset="0" style="stop-color:#92979C"/>
				<stop  offset="1" style="stop-color:#E3E4E6"/>
			</linearGradient>
			<path style="fill-rule:evenodd;clip-rule:evenodd;fill:url(#SVGID_6_);" d="M68.2,29.55c-0.133,1.034-0.5,1.867-1.1,2.5
				c-0.6,0.667-1.267,0.95-2,0.85s-1.317-0.55-1.75-1.35c-0.434-0.8-0.583-1.716-0.45-2.75c0.133-1.033,0.5-1.883,1.1-2.55
				s1.267-0.95,2-0.85c0.733,0.133,1.317,0.6,1.75,1.4C68.183,27.6,68.333,28.517,68.2,29.55z"/>
		</g>
	</g>
	<g>
		<path style="fill-rule:evenodd;clip-rule:evenodd;fill:#73777A;" d="M100.65,37.95c0.8,0.566,1.183,1.267,1.149,2.1
			c-0.033,0.434-0.133,0.8-0.3,1.101l0.65,0.55c0.5,0.467,0.883,0.95,1.149,1.45L104,44.3l1.25,1.25
			c0.866,0.934,1.333,1.684,1.4,2.25l0.149,1.351l0.95,1.149c0.634,0.834,0.983,1.384,1.05,1.65l0.2,0.7l1.65,1.649
			c0.333,0.334,0.783,0.316,1.35-0.05l1.35,0.5c0.9,0.467,1.384,0.983,1.45,1.55l0.2,1.351l2.3,0.8l0.7,0.5
			c1.767,0.233,2.533,0.633,2.3,1.2c0.101,0.533,0.101,0.883,0,1.05c-0.133,0.267-1.017,0.35-2.649,0.25
			c-1.9-0.066-4.834-0.601-8.801-1.601c-3.966-0.966-6.199-1.699-6.699-2.199c-0.767-0.767-1.567-1.851-2.4-3.25
			c-1.1-1.9-1.684-3.551-1.75-4.95l-1-12l1.2-0.2C99.134,37.25,99.95,37.483,100.65,37.95z"/>
		<path style="fill-rule:evenodd;clip-rule:evenodd;fill:#73777A;" d="M91.7,34.1c0.367,0.1,0.333,0.367-0.1,0.8
			c-0.4,0.367-0.867,0.667-1.4,0.9c-0.4,0.2-0.767,0.2-1.1,0l-0.4-0.35l-1.35,0.7c-0.3,0.133-0.667,0.184-1.1,0.15l-0.5-0.05
			c-1.1,0.934-2.233,1.45-3.4,1.55l-0.9,1.15L84,39.5l1.05-0.4c0.8-0.3,1.35-0.433,1.65-0.399c0.5,0.033,0.55,0.267,0.15,0.7
			c-0.5,0.666-1.05,1.133-1.65,1.399l-0.45,0.25c0,0.033-0.15,0.15-0.45,0.351c-0.333,0.199-0.667,0.3-1,0.3
			c-0.433-0.033-0.7-0.033-0.8,0c-0.2,0.033-0.417,0.149-0.65,0.35c-0.3,0.233-0.65,0.45-1.05,0.65c-0.5,0.233-0.983,0.3-1.45,0.2
			l-0.55-0.2c0,0.467-0.45,1.033-1.35,1.7c-0.567,0.433-1.233,0.566-2,0.399l-1-0.35c-0.233,0.333-0.534,0.616-0.9,0.85
			c-0.233,0.167-0.6,0.184-1.1,0.05l-0.7-0.3v0.25l-0.5,0.9c-0.467,0.8-1.2,1.217-2.2,1.25c-0.667,0.033-1.316-0.084-1.95-0.351
			L66.35,46.7l0.65-3l-1.9,0.5c-0.567,0.133-1.033,0.066-1.4-0.2l-0.4-0.45l1.55-1.75l1.8-1.3c1.267-1,2.15-1.866,2.65-2.6
			s1.55-1.333,3.15-1.8c0.933-0.267,2.483-0.667,4.65-1.2c1.4-0.433,3.167-0.7,5.3-0.8c0.7-0.033,2.267-0.05,4.7-0.05
			c0.833,0,1.8-0.017,2.9-0.05C90.8,34,91.367,34.033,91.7,34.1z"/>
		<path style="fill-rule:evenodd;clip-rule:evenodd;fill:#73777A;" d="M61.3,23.9c0.133-0.367,0.45-0.75,0.95-1.15
			c0.7-0.6,1.217-1.1,1.55-1.5c0.5-0.567,1.1-0.967,1.8-1.2c1.467-0.466,2.417-0.8,2.85-1c3.033-1.333,4.783-1.95,5.25-1.85
			c0.267,0.033,0.3,0.3,0.1,0.8c-0.167,0.467-0.35,0.767-0.55,0.9c-0.1,0.067-0.15,0.167-0.15,0.3c0,0.1,0,0.333,0,0.7
			c0,0.434-0.45,0.967-1.35,1.6c-0.367,0.233-0.883,0.45-1.55,0.65c-0.534,0.167-1.184,0.25-1.95,0.25
			c-0.3,0.167-0.767,0.367-1.4,0.6c-0.367,0.167-0.733,0.25-1.1,0.25l-0.4-0.1c-0.067,0.6-0.45,1.217-1.15,1.85l-0.6,1.45
			c-0.267,0.633-0.75,0.783-1.45,0.45l-0.8-0.6C61.083,25.367,61.067,24.567,61.3,23.9z"/>
		<path style="fill-rule:evenodd;clip-rule:evenodd;fill:#73777A;" d="M121.9,20.85L121.1,21.9c-0.833-0.367-1.35-0.85-1.55-1.45
			l-0.1-0.45l-0.375-0.75c-0.117-0.005-0.325-0.021-0.625-0.05c-1.3-0.167-1.95-0.467-1.95-0.9c0-0.233,0.667-0.533,2-0.9
			c1.467-0.4,2.634-0.4,3.5,0c1.3,0.567,1.967,0.867,2,0.9c0.3,0.2,0.167,0.5-0.4,0.9C123.066,19.567,122.5,20.117,121.9,20.85z"/>
		<path style="fill-rule:evenodd;clip-rule:evenodd;fill:#73777A;" d="M132.75,35.2c0.767,0.133,1.333,0.533,1.7,1.2
			c0.233,0.434,0.35,0.933,0.35,1.5c0,0.333-0.416,0.816-1.25,1.449c-0.8,0.567-1.333,0.867-1.6,0.9c-0.9,0.1-1.9-0.083-3-0.55
			c-0.7-0.3-1.2-0.601-1.5-0.9l-0.2-0.399l-3.4,1.35L123.2,39.4c-1.233,0.033-2.233-0.034-3-0.2c-0.5-0.101-0.8-0.25-0.9-0.45
			l-0.05-0.25c-0.434,0-1-0.066-1.7-0.2c-0.434-0.066-0.899-0.233-1.399-0.5L115.55,37.4c-0.333,0.366-0.783,0.616-1.35,0.75
			c-0.367,0.066-0.767-0.084-1.2-0.45l-0.5-0.55c-0.3,0.166-0.783,0.166-1.45,0c-0.399-0.101-0.666-0.234-0.8-0.4l-0.05-0.25
			l-0.9,0.2c-0.366,0.1-0.733,0.05-1.1-0.15l-0.45-0.3c-0.4,0.3-0.733,0.233-1-0.2c-0.2-0.267-0.267-0.533-0.2-0.8l0.15-0.35l5.6-1
			c1-0.233,4.634-0.2,10.9,0.1C124.9,34,128.083,34.4,132.75,35.2z"/>
	</g>
	<g>
		<path style="fill-rule:evenodd;clip-rule:evenodd;fill:#2E6E08;" d="M139.95,26.05c0.2,0.034,0.467,0.184,0.8,0.45
			c0.366-0.4,0.833-0.683,1.4-0.85c0.833-0.167,1.633,0.117,2.399,0.85c0.934-0.567,1.733-0.65,2.4-0.25
			c0.833,0.533,1.3,1.2,1.399,2c1.233,0.333,1.917,0.75,2.051,1.25c0.233,0.8,0.833,1.533,1.8,2.2c1.1,0.733,1.833,1.417,2.2,2.05
			c0.066,0.167-0.134,0.367-0.601,0.6l0.25,0.4L153.8,35c0.334,0.333,0.584,0.75,0.75,1.25v0.05c1,0.567,1.533,1.101,1.601,1.601
			c0.066,0.466,0.267,1.033,0.6,1.699c0.366,0.767,0.6,1.317,0.7,1.65c0.5,1.667,1.2,3.017,2.1,4.05c0.334,0.4,0.533,0.7,0.601,0.9
			c0.1,0.267,0.066,0.616-0.101,1.05c-0.2,0.467-0.633,0.7-1.3,0.7c-1.434,1.3-2.6,2.083-3.5,2.35c-0.267,0.8-0.733,1.316-1.4,1.55
			c-0.466,0.167-1.216,0.217-2.25,0.15c-0.5,0.566-0.949,0.95-1.35,1.15c-0.434,0.233-0.95,0.316-1.55,0.25
			c-0.4,0.633-0.95,1.033-1.65,1.199l-0.45,0.051c-0.233,0.199-0.566,0.3-1,0.3c-0.8-0.066-1.366-0.283-1.699-0.65
			c-0.267-0.3-0.334-0.684-0.2-1.149L143.6,52.85c-0.866-0.399-1.233-0.85-1.1-1.35c0.267-0.767,0.65-1.384,1.15-1.85
			c-0.5-0.267-0.867-0.617-1.101-1.051c-1.033-0.033-1.833-0.3-2.399-0.8c-0.634-0.6-0.834-1.434-0.601-2.5l0.5-1.5
			c-0.233-0.033-0.483-0.149-0.75-0.35c-0.633-0.2-1.116-0.5-1.45-0.9c-0.333-0.467-0.433-1-0.3-1.6l-0.05-0.05l-0.85-0.301
			c-0.267-0.166-0.483-0.416-0.65-0.75c-0.833,0.4-1.616,0.5-2.35,0.301c-0.767-0.233-1.2-0.767-1.301-1.601
			c-1.033,0.4-1.949,0.533-2.75,0.4c-0.966-0.134-1.6-0.617-1.899-1.45c-1.2,0.667-2.267,0.884-3.2,0.65
			c-0.767,0.666-1.583,0.949-2.45,0.85c-1.233-0.1-2.767-0.75-4.6-1.95l-0.55-0.15l-0.051-0.1h-0.1c-0.4-0.1-0.684-0.283-0.85-0.55
			l-0.5,0.05c-0.233,0.233-0.601,0.367-1.101,0.4c-0.533,0.066-1-0.034-1.399-0.3c-0.4,0.133-0.784,0.133-1.15,0
			c-0.4-0.133-0.7-0.383-0.9-0.75v-0.1L110.2,35.8c-0.267,0.133-0.566,0.167-0.9,0.1c-0.399,0.133-0.7,0.2-0.899,0.2
			c-0.434,0.1-0.7,0.033-0.801-0.2c-0.1-0.233-0.133-0.417-0.1-0.55c-0.3,0.1-0.616,0.1-0.95,0c-0.434-0.167-0.517-0.5-0.25-1
			c0.066-0.1,0.217-0.2,0.45-0.3l-0.05-0.1v-0.1c0-0.233,0.166-0.434,0.5-0.6c0.3-0.167,0.6-0.217,0.899-0.15
			c0.467-0.233,0.884-0.25,1.25-0.05c0.634-0.466,1.367-0.617,2.2-0.45c0.2,0.066,0.367,0.183,0.5,0.35h0.101L112.55,33
			c0.434-0.067,0.816,0,1.15,0.2c0.133,0,0.149,0.05,0.05,0.15c-0.033,0.1-0.017,0.283,0.05,0.55l0.45-0.5
			c0.434-0.633,1.434-1.1,3-1.4c0.634-0.133,1.3,0.033,2,0.5c0.4-0.233,0.866-0.383,1.4-0.45c0.399-0.033,0.75,0.017,1.05,0.15
			c0.733-0.333,1.434-0.4,2.1-0.2c0.367-0.167,0.717-0.3,1.05-0.4c0.5-0.1,0.9-0.133,1.2-0.1c1.334-0.267,2.533-0.15,3.601,0.35
			c0-0.567,0.149-1.083,0.449-1.55c0.233-0.333,0.551-0.566,0.95-0.7c0.4-0.133,0.783-0.1,1.15,0.1c0.133,0.066,0.3,0.2,0.5,0.4
			l0.85-0.55l0.3-0.1L134.45,29c0.566-1.167,0.899-1.783,1-1.85c0.233-0.2,0.899-0.467,2-0.8
			C138.45,26.083,139.283,25.983,139.95,26.05z"/>
		<path style="fill-rule:evenodd;clip-rule:evenodd;fill:#2E6E08;" d="M133.35,21.35l0.301,0.05l0.1-0.05l0.1-0.15L133.35,21.35z
			 M127.35,12.25c0.301-0.1,0.717-0.3,1.25-0.6l0.051-0.25c0.267-0.833,0.883-1.417,1.85-1.75c-0.066-0.133-0.017-0.3,0.15-0.5
			c1.433-1.7,3.35-1.2,5.75,1.5c0.866,0.934,1.583,1.767,2.149,2.5c0.533,0.633,0.8,1.1,0.8,1.4c0.034,0.434,0.301,0.967,0.801,1.6
			c0.533,0.633,0.833,1.167,0.899,1.6l-0.05,0.2l0.1,0.05c0.4,0.5,0.483,1.067,0.25,1.7c-0.267,0.633-0.699,1.05-1.3,1.25
			c-0.8,0.267-1.483,0.283-2.05,0.05c-0.733-0.467-1.283-0.733-1.65-0.8c-0.466,0.667-0.866,1.133-1.199,1.4
			c-0.534,0.433-1.217,0.683-2.051,0.75c-0.966,0-1.55-0.15-1.75-0.45c-0.166-0.2-0.25-0.467-0.25-0.8l-0.399-0.15
			c-0.434-0.3-0.834-0.717-1.2-1.25c-0.434,0.066-0.917,0.066-1.45,0c-0.6-0.1-1.066-0.184-1.399-0.25
			c-0.434-0.034-0.95,0.2-1.551,0.7c-0.6,0.6-1.017,1-1.25,1.2c-0.233,0.167-0.5,0.25-0.8,0.25c-0.267,0-0.483-0.083-0.649-0.25
			c-0.434,0.133-0.767,0.15-1,0.05c-0.267-0.167-0.483-0.4-0.65-0.7h-0.05c-0.667-0.233-1-0.7-1-1.4l-0.65-0.7
			c-1.033,0.2-1.85,0.233-2.45,0.1c-0.8-0.2-1.05-0.684-0.75-1.45c0-0.067,0.051-0.133,0.15-0.2l-0.05-0.15
			c0.1-0.3,0.483-0.5,1.149-0.6l0.5-0.05l0.15-0.1L117.7,16c0.066-1,0.55-1.533,1.45-1.6c0.433-0.033,0.816-0.033,1.149,0
			c0.2-0.033,0.483-0.267,0.851-0.7c0.533-0.633,1.449-1.05,2.75-1.25c0.466-0.067,1.183-0.034,2.149,0.1
			C126.45,12.55,126.884,12.45,127.35,12.25z"/>
		<path style="fill-rule:evenodd;clip-rule:evenodd;fill:#2E6E08;" d="M90.7,47.95l-0.15-0.4c-0.033-0.1,0.05-0.2,0.25-0.3
			c0.167-0.1,0.284-0.15,0.35-0.15L91.4,45.9c0.033-0.167,0.3-0.317,0.8-0.45c-0.034-1.334,0.566-2.117,1.8-2.351v-0.35
			c-0.033-0.134,0.1-0.25,0.4-0.35c0.566-0.301,0.8-0.634,0.699-1c-0.199-0.801-0.3-1.284-0.3-1.45c0-0.2,0.217-0.351,0.65-0.45
			c0.033-0.267,0.083-0.55,0.149-0.85c0.167-0.601,0.434-0.967,0.801-1.101c0.633-0.3,1.183-0.316,1.649-0.05
			c0.767,0.366,1.417,1.05,1.95,2.05c0.467,0.934,0.717,1.934,0.75,3c0.667,0.2,1.134,0.434,1.4,0.7
			c0.3,0.233,0.483,0.517,0.55,0.85l0.35,0.301c0.5,0.466,0.7,0.933,0.601,1.399c1.5,0.967,2.033,1.983,1.6,3.05l0.85,1.4l0.7,1.8
			c0.434,1.101,0.667,1.783,0.7,2.05c0.467,0.367,0.967,0.667,1.5,0.9c0.866-0.7,1.866-0.95,3-0.75c0.7,0.167,1.083,0.566,1.15,1.2
			c0.1,1,0.233,1.616,0.399,1.85c0.233,0.367,0.334,0.65,0.3,0.851l0.75,0.1c0.267,0.033,0.667,0.233,1.2,0.6
			c0.533,0.367,0.816,0.551,0.851,0.551c0.666-0.067,1.066-0.101,1.199-0.101c0.567,0.033,0.917,0.233,1.051,0.601
			c0.399,1.1,0.133,1.866-0.801,2.3c-1.3,0.3-2.25,0.533-2.85,0.7c-1.4,0.433-3.384,0.449-5.95,0.05c-3.066-0.434-5-0.617-5.8-0.55
			c-0.9,0.033-1.65,0.133-2.25,0.3c-0.733,0.366-1.667,0.633-2.8,0.8l-0.75,0.2c-0.233,0.066-0.733,0.066-1.5,0h-0.15
			c-0.967,0.6-2.1,0.983-3.4,1.149c-1.433,0.134-2.483-0.1-3.15-0.699C89.4,64.05,88.917,64,88.05,64
			c-0.9-0.033-1.433-0.083-1.6-0.15C85.217,63.483,84.433,63.2,84.1,63l-0.45-0.15c-0.367,0.167-0.667,0.217-0.9,0.15
			c-0.833-0.267-1.483-0.533-1.95-0.8c-0.767,0.166-1.4,0.066-1.9-0.3c-0.267-0.2-0.433-0.4-0.5-0.601
			c-0.367-0.1-0.65-0.316-0.85-0.649c-0.3-0.567-0.033-1.317,0.8-2.25l0.6-0.551c-0.233-0.399-0.3-0.833-0.2-1.3
			c0.133-0.7,0.583-1.2,1.35-1.5l-0.7-0.6c-0.4-0.334-0.55-0.75-0.45-1.25c0.066-0.4,0.3-0.783,0.7-1.15
			c0.667-0.6,1.7-0.833,3.1-0.7c0.467-0.699,1.2-1.083,2.2-1.149c0.8-0.101,1.466,0.166,2,0.8h0.1l0.1-0.05l1.2-0.75
			C88.817,48.967,89.6,48.217,90.7,47.95z"/>
		<path style="fill-rule:evenodd;clip-rule:evenodd;fill:#2E6E08;" d="M66.75,18.15l0.25,0.1c0.2-0.133,0.533-0.233,1-0.3
			c0.533-0.4,1.067-0.667,1.6-0.8c0.3-0.033,0.6-0.033,0.9,0c0.467-0.3,1.017-0.483,1.65-0.55c0.633-0.367,1.117-0.467,1.45-0.3
			c0.5,0.333,0.483,0.9-0.05,1.7c-0.566,0.7-0.867,1.1-0.9,1.2c-0.033,0.1-0.083,0.283-0.15,0.55s-0.133,0.433-0.2,0.5
			c-0.5,0.6-1.2,0.933-2.1,1c-0.3,0.467-1.017,0.7-2.15,0.7c-0.5,0.4-1.283,0.6-2.35,0.6h-0.65c-0.133,0.467-0.35,0.8-0.65,1
			c-0.867,0.5-1.4,0.917-1.6,1.25c-0.1,0.133-0.083,0.383,0.05,0.75c0.133,0.434,0.2,0.717,0.2,0.85c-0.033,0.233-0.333,0.4-0.9,0.5
			c-0.433,0.133-0.867,0.2-1.3,0.2c-0.6,0-0.983-0.15-1.15-0.45c-0.233-0.467-0.133-1.033,0.3-1.7c0.133-0.233,0.2-0.517,0.2-0.85
			c0-0.267,0.117-0.517,0.35-0.75c0.067-0.067,0.25-0.15,0.55-0.25c0.2-0.1,0.316-0.25,0.35-0.45c0.066-1.1,0.233-1.917,0.5-2.45
			c0.233-0.567,0.933-0.917,2.1-1.05C65.017,18.317,65.917,17.983,66.75,18.15z"/>
		<path style="fill-rule:evenodd;clip-rule:evenodd;fill:#2E6E08;" d="M66.4,40.1l0.15-0.449L66.3,40.1H66.4z M91.2,33.7
			c0.533,0,0.7,0.133,0.5,0.4c-0.267,0.4-0.667,0.667-1.2,0.8c-0.5,0.133-1,0.133-1.5,0c-0.367,0.167-0.7,0.184-1,0.05
			c-0.533,0.267-0.967,0.417-1.3,0.45c-0.267,0.233-0.517,0.367-0.75,0.4c-0.467,0.133-1.067,0.233-1.8,0.3
			c-0.8,0.066-1.417,0.117-1.85,0.15l-1.3,0.3v0.05c-0.133,0.8-0.883,1.3-2.25,1.5L79.1,38.2l0.6,0.3l0.15-0.05
			c1.367-0.4,2.35-0.334,2.95,0.2c0.2-0.067,0.35-0.084,0.45-0.051c0.567,0.067,0.983,0.284,1.25,0.65l0.3-0.05l0.05-0.05
			c0.066-0.367,0.433-0.584,1.1-0.65c0.633-0.1,0.917,0.033,0.85,0.4c-0.267,0.899-1.05,1.383-2.35,1.449
			c-0.467,0.334-1.034,0.5-1.7,0.5l-0.35-0.1c-0.367,0.434-1,0.75-1.9,0.95c-0.7,0.133-1.383,0.166-2.05,0.1
			c-0.034,0-0.217,0.267-0.55,0.8c-0.367,0.534-0.767,0.851-1.2,0.95c-0.867,0.233-1.633,0.2-2.3-0.1l-0.55-0.25
			c0,0.133-0.133,0.3-0.4,0.5c-0.267,0.166-0.85,0.25-1.75,0.25c-0.667,0-1.05,0.25-1.15,0.75c-0.4,1.8-1.65,2.533-3.75,2.2
			c-0.667-0.067-1.05-0.517-1.15-1.351c-0.033-1.066-0.133-1.833-0.3-2.3l-0.2,0.05c-0.533,0.3-0.883,0.483-1.05,0.55
			c-0.4,0.067-0.85-0.066-1.35-0.399c-0.767-0.5-1.017-1.084-0.75-1.75c0.233-0.601,0.717-1.017,1.45-1.25
			c-0.267-0.334-0.417-0.634-0.45-0.9c-0.1-0.866,0.367-1.5,1.4-1.899l0.25-0.5c0.167-0.267,0.467-0.517,0.9-0.75
			c-0.1-0.333-0.133-0.633-0.1-0.9c0.167-0.933,0.933-1.633,2.3-2.1l0.35-0.05c0.367-0.267,0.816-0.483,1.35-0.65
			c0.066-0.133,0.25-0.267,0.55-0.4s0.533-0.2,0.7-0.2c1.333-0.1,2.2,0,2.6,0.3c0.833-0.566,1.867-0.583,3.1-0.05
			c0.233,0.066,0.417,0.167,0.55,0.3H77l0.25-0.1c1.067-0.333,2.133-0.3,3.2,0.1h0.05c1.267-0.233,2.117-0.183,2.55,0.15l0.25,0.35
			l0.05,0.15l1.35-0.4c0.966-0.267,1.716-0.267,2.25,0l0.45,0.35c1,0,1.684,0.183,2.05,0.55c0.3,0,0.517,0.034,0.65,0.1l0.05,0.05
			C90.55,33.783,90.9,33.7,91.2,33.7z"/>
		<path style="fill-rule:evenodd;clip-rule:evenodd;fill:#2A6307;" d="M137.85,42.55c-0.333-0.467-0.433-1-0.3-1.6l-0.05-0.05
			l-0.85-0.301c-0.267-0.166-0.483-0.416-0.65-0.75c-0.833,0.4-1.616,0.5-2.35,0.301c-0.767-0.233-1.2-0.767-1.301-1.601
			c-1.5,0.566-2.716,0.584-3.649,0.05c1.3,0.067,2.533-0.316,3.7-1.149l0.35,0.6c0.366,0.4,0.917,0.601,1.65,0.601
			c1.166,0,2.449-0.317,3.85-0.95l-0.45,0.35c-0.033,0.233,0.55,0.316,1.75,0.25c1.233-0.066,2.267-0.483,3.101-1.25
			c0.433-0.367,0.733-0.733,0.899-1.1l0.601,0.65c0.566,0.4,1.233,0.5,2,0.3c1.233-0.333,1.949-0.733,2.149-1.2
			c1.233-0.5,1.767-1.217,1.601-2.15l-0.25-1.4l0.449-0.25c0.334-0.333,0.517-0.9,0.551-1.7v-0.1c0.267,0.533,0.866,1.117,1.8,1.75
			s1.583,1.267,1.95,1.9c0.066,0.167-0.134,0.367-0.601,0.6l0.25,0.4L153.8,35c0.334,0.333,0.584,0.75,0.75,1.25v0.05
			c1,0.567,1.533,1.101,1.601,1.601c0.066,0.466,0.267,1.033,0.6,1.699c0.366,0.767,0.6,1.317,0.7,1.65
			c0.5,1.667,1.2,3.017,2.1,4.05c0.334,0.4,0.533,0.7,0.601,0.9c0.1,0.267,0.066,0.616-0.101,1.05c-0.2,0.467-0.633,0.7-1.3,0.7
			c-1.434,1.3-2.6,2.083-3.5,2.35c-0.267,0.8-0.733,1.316-1.4,1.55c-0.466,0.167-1.216,0.217-2.25,0.15
			c-0.5,0.566-0.949,0.95-1.35,1.15c-0.434,0.233-0.95,0.316-1.55,0.25c-0.4,0.633-0.95,1.033-1.65,1.199l-0.45,0.051
			c-0.233,0.199-0.566,0.3-1,0.3c-0.8-0.066-1.366-0.283-1.699-0.65c-0.267-0.3-0.334-0.684-0.2-1.149L143.6,52.85
			c-0.866-0.399-1.233-0.85-1.1-1.35c0.267-0.767,0.65-1.384,1.15-1.85c-0.5-0.267-0.867-0.617-1.101-1.051
			c-1.033-0.033-1.833-0.3-2.399-0.8c-0.634-0.6-0.834-1.434-0.601-2.5l0.5-1.5c-0.233-0.033-0.483-0.149-0.75-0.35
			C138.667,43.25,138.184,42.95,137.85,42.55z"/>
	</g>
	<g>
		<g>
			<path style="fill-rule:evenodd;clip-rule:evenodd;fill:#408000;" d="M141.2,46.8c-0.566-0.166-0.884-0.533-0.95-1.1
				c-0.066-0.601,0.25-1.084,0.95-1.45h0.05l-0.3-0.6c-0.467-0.301-0.767-0.667-0.9-1.101c-0.2-0.533-0.149-1.116,0.15-1.75
				c0.333-0.666,0.783-0.967,1.35-0.899c0.167-0.667,0.584-1.134,1.25-1.4c0.634-0.233,1.3-0.267,2-0.1c0.2-0.334,0.5-0.567,0.9-0.7
				c0.434-0.134,1.1-0.2,2-0.2h0.05c0.134-0.5,0.45-0.75,0.95-0.75c0.533,0,1.066,0.167,1.6,0.5c0.167,0.134,0.283,0.283,0.351,0.45
				c0.133-0.334,0.399-0.65,0.8-0.95c0.566-0.4,1.149-0.4,1.75,0c0.533,0.366,0.899,0.917,1.1,1.65
				c-0.967,0.066-1.666,0.533-2.1,1.399c-0.8-0.066-1.434,0.167-1.9,0.7c-0.733,0.733-0.934,1.6-0.6,2.6
				c-0.667,0.667-0.9,1.45-0.7,2.351v0.05c-1.033,0.4-1.55,1.116-1.55,2.15c-0.667-0.134-1.167-0.584-1.5-1.351
				c-0.2-0.066-0.367-0.217-0.5-0.45h-0.101c-0.199,0.301-0.416,0.517-0.649,0.65c-0.367,0.267-0.733,0.233-1.101-0.1
				c-0.233,0.199-0.583,0.316-1.05,0.35l-0.3-0.05L142,46.8C141.733,46.9,141.467,46.9,141.2,46.8z"/>
			<path style="fill-rule:evenodd;clip-rule:evenodd;fill:#408000;" d="M122.55,32c0.367,0.2,0.533,0.5,0.5,0.9
				c-0.033,0.367-0.2,0.65-0.5,0.85c-0.2,0.567-0.533,0.817-1,0.75c-0.233,0-0.434-0.05-0.6-0.15l-0.05,0.05l-0.2,0.1
				c-0.233,0.1-0.533,0.183-0.9,0.25h-0.2c-0.133,0.3-0.35,0.5-0.649,0.6c-0.367,0.133-0.717,0.1-1.05-0.1
				c-0.534,0-1.017-0.117-1.45-0.35c-0.134,0.434-0.434,0.633-0.9,0.6c-0.467-0.067-0.833-0.183-1.1-0.35L114.1,35.2
				c-0.267,0.066-0.55,0.017-0.85-0.15c-0.434,0.333-0.884,0.45-1.35,0.35c-0.233-0.033-0.434-0.167-0.601-0.4
				c-0.3,0-0.616-0.133-0.95-0.4c-0.3,0.3-0.649,0.367-1.05,0.2l-0.05,0.05c-0.167,0.233-0.483,0.316-0.95,0.25l-0.25,0.05
				c-0.2,0-0.366-0.066-0.5-0.2L107.3,35c-0.633,0-0.95-0.333-0.95-1s0.317-1,0.95-1c0.167,0,0.351,0.067,0.55,0.2l0.2-0.05h0.101
				c0.466-0.367,1-0.467,1.6-0.3c0.066-0.567,0.384-0.85,0.95-0.85h0.1l0.351,0.1c0.566-0.2,1.066-0.133,1.5,0.2
				c0.233,0.167,0.316,0.434,0.25,0.8c0.166,0.033,0.3,0.133,0.399,0.3l0.25-0.1l0.851-0.1l0.899-0.95
				c0.9-0.433,1.667-0.55,2.3-0.35l0.25,0.2l0.351-0.05c0.434-0.267,0.816-0.233,1.149,0.1c0.134-0.333,0.4-0.533,0.801-0.6
				c0.366-0.033,0.666,0.1,0.899,0.4C121.483,31.717,121.983,31.733,122.55,32z"/>
		</g>
		<path style="fill-rule:evenodd;clip-rule:evenodd;fill:#408000;" d="M131.75,9.75c0.434,0.133,0.934,0.2,1.5,0.2
			c0.634,0,0.9,0.033,0.8,0.1c-0.2,0.133-0.25,0.25-0.149,0.35c0.233,0.2,0.449,0.583,0.649,1.15l1.25,1.5
			c0.267,0.267,0.351,0.483,0.25,0.65c-0.233,0.3-0.45,0.617-0.649,0.95c-0.233,0.4-0.5,0.567-0.801,0.5
			c-0.366-0.233-0.733-0.383-1.1-0.45c-0.434-0.067-0.55,0.033-0.35,0.3c0.333,0.5,0.5,0.767,0.5,0.8
			c0.066,0.333,0.017,0.6-0.15,0.8c-0.267,0.333-0.85,0.65-1.75,0.95c-0.833,0.267-1.3,0.15-1.4-0.35l0.051-0.8
			c-0.233,0.434-0.934,0.783-2.101,1.05c-0.733,0.2-1.184,0.133-1.35-0.2l-0.05-0.55c-0.334,0.566-1.051,0.883-2.15,0.95
			c-0.7,0.033-1.134-0.1-1.3-0.4l-0.05-0.45c-0.5,0.6-1.134,1.017-1.9,1.25c-0.533,0.167-0.917,0.15-1.15-0.05
			c-0.066-0.067-0.216-0.267-0.449-0.6c-0.101-0.167-0.301-0.183-0.601-0.05c-0.767,0.367-1.184,0.566-1.25,0.6
			c-0.767,0.3-1.533,0.183-2.3-0.35l0.1-0.35c0-0.067,0.051-0.133,0.15-0.2l-0.05-0.15c0.1-0.3,0.483-0.5,1.149-0.6l0.5-0.05
			l0.15-0.1L117.7,16c0.066-1,0.55-1.533,1.45-1.6c0.433-0.033,0.816-0.033,1.149,0c0.2-0.033,0.483-0.267,0.851-0.7
			c0.533-0.633,1.449-1.05,2.75-1.25c0.466-0.067,1.183-0.034,2.149,0.1c0.4,0,0.834-0.1,1.3-0.3c0.301-0.1,0.717-0.3,1.25-0.6
			l0.051-0.25c0.267-0.833,0.883-1.417,1.85-1.75c-0.066-0.066-0.066-0.15,0-0.25C130.833,9.433,131.25,9.55,131.75,9.75z"/>
		<path style="fill-rule:evenodd;clip-rule:evenodd;fill:#408000;" d="M90.7,47.95l-0.15-0.4c-0.033-0.1,0.05-0.2,0.25-0.3
			c0.167-0.1,0.284-0.15,0.35-0.15L91.4,45.9c0.033-0.167,0.3-0.317,0.8-0.45c-0.034-1.334,0.566-2.117,1.8-2.351v-0.35
			c-0.033-0.134,0.1-0.25,0.4-0.35c0.566-0.301,0.8-0.634,0.699-1c-0.199-0.801-0.3-1.284-0.3-1.45c0-0.2,0.217-0.351,0.65-0.45
			c0.033-0.267,0.083-0.55,0.149-0.85c0.167-0.601,0.434-0.967,0.801-1.101c0.633-0.3,1.183-0.316,1.649-0.05
			c0.767,0.366,1.417,1.05,1.95,2.05c0.467,0.934,0.717,1.934,0.75,3c0.667,0.2,1.134,0.434,1.4,0.7
			c0.3,0.233,0.483,0.517,0.55,0.85l0.35,0.301c0.5,0.466,0.7,0.933,0.601,1.399c1.5,0.967,2.033,1.983,1.6,3.05l0.85,1.4
			l0.601,1.45l-0.05,0.45c0.267,0.533,0.216,1.116-0.15,1.75c-0.4,0.6-1.017-0.101-1.85-2.101c0.433,1.834,0.267,2.95-0.5,3.351
			c-0.467,0.233-0.801-0.284-1-1.551L103,51.65l-0.6,0.149c-0.233,0.066-0.534-0.383-0.9-1.35l-0.5-1.5
			c0.033,0.399-0.217,0.967-0.75,1.7c-0.366,0.433-0.983,0.483-1.85,0.149l-1.25-0.6l0.199,0.55c0.134,0.5,0.15,1.1,0.051,1.8
			c-0.134,0.867-0.284,1.3-0.45,1.3c0.399,0.267,0.6,0.867,0.6,1.801c0,1-0.416,1.583-1.25,1.75c0.066,0.699-0.366,1.55-1.3,2.55
			c-0.6,0.633-1.1,0.833-1.5,0.6l-0.45-0.5c0,0.667-0.383,1.167-1.15,1.5c-0.467,0.2-0.85,0.134-1.15-0.2L90.5,60.8
			c-0.133,0.233-1.05,0.483-2.75,0.75c-1.067,0.167-1.8-0.05-2.2-0.649l-0.3-0.95c-0.4,0.467-1.133,0.833-2.2,1.1
			c-0.633,0.167-1.15-0.017-1.55-0.55l-0.35-0.85c-0.267,0.199-1.017,0.466-2.25,0.8c-0.733,0.233-1.217,0.05-1.45-0.55
			c0.066-0.4,0.367-0.9,0.9-1.5l0.6-0.551c-0.233-0.399-0.3-0.833-0.2-1.3c0.133-0.7,0.583-1.2,1.35-1.5l-0.7-0.6
			c-0.4-0.334-0.55-0.75-0.45-1.25c0.066-0.4,0.3-0.783,0.7-1.15c0.667-0.6,1.7-0.833,3.1-0.7c0.467-0.699,1.2-1.083,2.2-1.149
			c0.8-0.101,1.466,0.166,2,0.8h0.1l0.1-0.05l1.2-0.75C88.817,48.967,89.6,48.217,90.7,47.95z"/>
		<path style="fill-rule:evenodd;clip-rule:evenodd;fill:#408000;" d="M111.65,53.8c0.6-0.1,1.066,0.184,1.399,0.851
			c-0.1,0.267-0.283,0.533-0.55,0.8c-0.2,0.2-0.366,0.3-0.5,0.3l-0.2-0.05l-0.25,0.85c-0.166,0.566-0.383,0.934-0.649,1.101
			c0.566,0.767,0.733,1.433,0.5,2c-0.233,0.533-0.617,0.416-1.15-0.351c-0.134,0.4-0.5,0.7-1.1,0.9
			c-0.367,0.133-0.584,0.017-0.65-0.351V59.2c-0.233,0.333-0.783,0.267-1.65-0.2c-0.533-0.3-0.449-0.634,0.25-1
			c0.334-0.167,0.717-0.316,1.15-0.45L107.5,56.9c-0.3-0.301-0.25-0.667,0.15-1.101c0.233-0.233,0.483-0.434,0.75-0.6l0.199-0.351
			c0.167-0.3,0.434-0.533,0.801-0.699c0.566-0.301,0.983-0.25,1.25,0.149l0.149-0.2C111,53.967,111.283,53.866,111.65,53.8z"/>
		<path style="fill-rule:evenodd;clip-rule:evenodd;fill:#408000;" d="M81.5,32.5c0.8-0.033,1.433,0.117,1.9,0.45
			c0.733,0.533,0.35,0.617-1.15,0.25c0,0.3-0.4,0.617-1.2,0.95c-0.466,0.2-0.867,0.184-1.2-0.05l-0.35-0.45c0,0.267-0.333,0.4-1,0.4
			c-0.4,0-0.717,0.034-0.95,0.1L77.3,34.2c0.333,0.733,0.233,1.3-0.3,1.7c-0.367,0.233-0.983,0.283-1.85,0.15L73.9,35.8l0.3,0.45
			c0.167,0.4,0.2,0.833,0.1,1.3c-0.167,0.733-0.583,0.783-1.25,0.15c0.333,0.899,0.067,1.483-0.8,1.75c-0.567,0.2-0.9,0.116-1-0.25
			l0.05-0.55c-0.1,0.533-0.566,1.05-1.4,1.55c-0.533,0.3-0.9,0.166-1.1-0.4l-0.15-1c-0.333,0.566-0.883,0.851-1.65,0.851
			c-0.5,0-0.667-0.4-0.5-1.2l0.4-1.25l-1,0.75c-0.4,0.3-0.717,0.399-0.95,0.3l-0.2-0.3c-0.3-0.033-0.45-0.217-0.45-0.55
			c0-0.2,0.233-0.434,0.7-0.7c0.2-0.1,0.417-0.2,0.65-0.3l-0.25-0.45c-0.2-0.3-0.267-0.684-0.2-1.15
			c0.066-0.6,0.383-0.983,0.95-1.15c0.5-0.167,0.75-0.167,0.75,0l0.75-0.95c0.267-0.333,0.717-0.383,1.35-0.15l0.45-0.45
			c0.433-0.333,0.966-0.633,1.6-0.9c0.667-0.233,1.15-0.117,1.45,0.35c0.167,0.233,0.25,0.483,0.25,0.75l0.8-0.3
			c0.633-0.233,1.217-0.35,1.75-0.35c0.9,0,1.55,0.3,1.95,0.9l0.4-0.2c0.367-0.167,0.817-0.267,1.35-0.3
			c0.833-0.066,1.317,0.133,1.45,0.6L81.5,32.5z"/>
		<path style="fill-rule:evenodd;clip-rule:evenodd;fill:#408000;" d="M82.05,38.15c0.8,0.033,1.05,0.199,0.75,0.5
			c0.467,0.699,0.367,1.116-0.3,1.25c-0.4,0.066-0.767,0.017-1.1-0.15l-0.4-0.3c-0.167,0.333-0.533,0.616-1.1,0.85
			c-0.367,0.134-0.7,0.15-1,0.05l-0.4-0.199c-0.167,0.267-0.65,0.566-1.45,0.899c-0.466,0.2-0.8,0.233-1,0.101L75.9,40.9
			c-0.566,0.5-1.15,0.683-1.75,0.55c-0.367-0.066-0.4-0.217-0.1-0.45c0.167-0.134,0.367-0.25,0.6-0.35
			c0-0.067,0.017-0.167,0.05-0.301c0.066-0.267,0.167-0.533,0.3-0.8c0.133-0.233,0.483-0.383,1.05-0.45
			c0.3-0.033,0.583-0.05,0.85-0.05l0.7-0.399c0.566-0.267,1.066-0.417,1.5-0.45c0.367-0.033,0.767,0.05,1.2,0.25l0.45-0.2
			C81.15,38.15,81.583,38.116,82.05,38.15z"/>
		<path style="fill-rule:evenodd;clip-rule:evenodd;fill:#408000;" d="M66.65,17.55c0.733-0.1,1.033,0.017,0.9,0.35l0.25-0.3
			c0.233-0.267,0.55-0.533,0.95-0.8c0.6-0.433,1.117-0.35,1.55,0.25l0.95-0.1c0.467-0.034,0.817,0.066,1.05,0.3
			c0.233,0.233,0.233,0.533,0,0.9c-0.324,0.487-0.933,0.545-1.825,0.175c0.587,0.261,0.513,0.536-0.225,0.825
			c-0.5,0.167-1.017,0.2-1.55,0.1l-0.65-0.2c0.667,0.434,0.667,0.85,0,1.25c-0.4,0.267-0.933,0.35-1.6,0.25l-0.9-0.25
			c0.167,0.333-0.083,0.7-0.75,1.1c-0.4,0.233-0.767,0.35-1.1,0.35l-0.4-0.1c-0.033,0.333-0.2,0.75-0.5,1.25
			c-0.267,0.5-0.6,0.583-1,0.25c-0.5,0.767-0.933,0.95-1.3,0.55c-0.233-0.2-0.15-0.583,0.25-1.15c0.467-0.6,0.683-0.966,0.65-1.1
			c-0.066-0.267,0.033-0.65,0.3-1.15c0.233-0.533,0.55-1,0.95-1.4c0.533-0.533,1.067-0.767,1.6-0.7c0.267,0,0.483,0.066,0.65,0.2
			l0.45-0.35C65.75,17.783,66.183,17.617,66.65,17.55z"/>
		<path style="fill-rule:evenodd;clip-rule:evenodd;fill:#5B9400;" d="M94.65,45.15V44.55c0-0.3,0.1-0.467,0.3-0.5
			c0.133-0.066,0.533-0.1,1.2-0.1c0.733,0,0.616,0.366-0.351,1.1L96.65,44.9c0.433-0.101,0.783,0.033,1.05,0.399
			c0.267,0.334,0.217,0.617-0.15,0.851l-1.25,0.5c0.066,0.5-0.267,0.916-1,1.25c-0.434,0.199-0.633,0.416-0.6,0.649
			c0.033,0.101,0.1,0.184,0.2,0.25l0.149,0.351c0.101,0.3,0.101,0.649,0,1.05c-0.1,0.666-0.434,1-1,1c0.4,0.5,0.316,1.166-0.25,2
			c-0.333,0.533-0.6,0.6-0.8,0.2l-0.2-0.7c-0.1,1.066-0.45,1.633-1.05,1.7c-0.4,0.033-0.517-0.367-0.35-1.2l0.4-1.25
			c-0.533-0.2-0.883-0.667-1.05-1.4c-0.1-0.467,0.217-0.916,0.95-1.35c0.367-0.233,0.733-0.417,1.1-0.55l-0.9-0.25
			c-0.367-0.101-0.167-0.384,0.6-0.851c0.367-0.233,0.783-0.45,1.25-0.649c-0.4,0-0.817-0.2-1.25-0.601
			c-0.3-0.233-0.033-0.5,0.8-0.8C93.733,45.366,94.184,45.25,94.65,45.15z"/>
		<path style="fill-rule:evenodd;clip-rule:evenodd;fill:#5B9400;" d="M91.8,55.15c0.434,0.3,0.55,0.6,0.35,0.899
			c-0.267,0.434-0.633,0.434-1.1,0L90.8,57.15c-0.167,0.5-0.583,0.716-1.25,0.649c-0.1,0.601-0.483,1.017-1.15,1.25
			c-0.4,0.134-0.566,0.066-0.5-0.2l0.25-0.449c-0.4,0.199-0.85,0.116-1.35-0.25c-0.3-0.233-0.283-0.517,0.05-0.851
			c0.2-0.166,0.417-0.3,0.65-0.399c0.033-0.233-0.167-0.483-0.6-0.75c-0.367-0.233-0.316-0.567,0.15-1
			c0.434-0.434,0.967-0.584,1.6-0.45l0.05-0.45c0.133-0.267,0.4-0.333,0.8-0.2c0.6,0.233,0.85,0.7,0.75,1.4l0.5-0.4
			C91.017,54.85,91.367,54.884,91.8,55.15z"/>
		<g>
			<path style="fill-rule:evenodd;clip-rule:evenodd;fill:#5B9400;" d="M91.15,47.1l-0.25,1.45c-0.566,0.334-1.15,0.867-1.75,1.601
				C88.783,50.583,88.6,51,88.6,51.4c0.033,0.233,0.083,0.399,0.15,0.5c-0.4,0-0.917,0.183-1.55,0.55c-0.4,0.2-0.817,0.6-1.25,1.2
				l-0.55,0.8V53.7c0-0.3,0.167-0.667,0.5-1.101c0.167-0.199,0.333-0.383,0.5-0.55c-0.6-0.166-1.3-0.166-2.1,0L83,52.3
				c-0.133,0.033-0.283,0.117-0.45,0.25c-0.3,0.267-0.55,0.634-0.75,1.101c-0.267,0.699-0.183,1.25,0.25,1.649
				c-0.667,0.167-1.25,0.5-1.75,1c-0.3,0.3-0.466,0.767-0.5,1.4c0,0.333,0.034,0.616,0.1,0.85l-1.15,0.4
				c-0.5,0.166-0.917,0.517-1.25,1.05l-0.05-0.1c0.066-0.4,0.367-0.9,0.9-1.5l0.6-0.551c-0.233-0.399-0.3-0.833-0.2-1.3
				c0.133-0.7,0.583-1.2,1.35-1.5l-0.7-0.6c-0.4-0.334-0.55-0.75-0.45-1.25c0.066-0.4,0.3-0.783,0.7-1.15
				c0.667-0.6,1.7-0.833,3.1-0.7c0.467-0.699,1.2-1.083,2.2-1.149c0.8-0.101,1.466,0.166,2,0.8h0.1l0.1-0.05l1.2-0.75
				c0.467-1.233,1.25-1.983,2.35-2.25l-0.15-0.4c-0.033-0.1,0.05-0.2,0.25-0.3C90.967,47.15,91.083,47.1,91.15,47.1z"/>
		</g>
		<g>
			<path style="fill-rule:evenodd;clip-rule:evenodd;fill:#5B9400;" d="M96.55,40.55c-0.267,0.8-0.316,1.2-0.149,1.2l-0.851,0.3
				c-0.366,0.134-0.566,0.367-0.6,0.7c-0.033,0.167-0.017,0.316,0.05,0.45c-0.233,0-0.65,0.2-1.25,0.6c-0.4,0.267-0.733,0.65-1,1.15
				l-0.25,0.7l-0.45-0.15l0.15-0.05c-0.034-1.334,0.566-2.117,1.8-2.351v-0.35c-0.033-0.134,0.1-0.25,0.4-0.35
				c0.566-0.301,0.8-0.634,0.699-1c-0.199-0.801-0.3-1.284-0.3-1.45c0-0.2,0.217-0.351,0.65-0.45c0.033-0.267,0.083-0.55,0.149-0.85
				c0.167-0.601,0.434-0.967,0.801-1.101c0.633-0.3,1.183-0.316,1.649-0.05c0.101,0.033,0.283,0.134,0.55,0.3
				c-0.233,0.101-0.433,0.267-0.6,0.5l-0.2,0.351c-0.133,0.066-0.283,0.199-0.45,0.399C97.017,39.417,96.75,39.917,96.55,40.55z"/>
		</g>
	</g>
	<g>
		<path style="fill-rule:evenodd;clip-rule:evenodd;fill:#5B9400;" d="M74.9,33.45c0.133-0.2,0.25-0.383,0.35-0.55
			c-0.667,0-1.583,0.333-2.75,1c-0.733,0.434-1.067,0.85-1,1.25c0.033,0.2,0.133,0.367,0.3,0.5L70,35.7
			c-0.567,0.033-0.983,0.316-1.25,0.85l-0.2,0.75c0-0.4,0.15-0.933,0.45-1.6c0.167-0.4,0.483-0.717,0.95-0.95
			c0.2-0.1,0.4-0.167,0.6-0.2l0.35-0.75c0.133-0.3,0.4-0.617,0.8-0.95c0.2-0.167,0.383-0.3,0.55-0.4l-0.7-0.05
			c-0.267-0.033-0.6,0-1,0.1L70,32.7c-0.233,0-0.767,0.167-1.6,0.5c-0.533,0.2-0.8,0.5-0.8,0.9c0,0.2,0.05,0.383,0.15,0.55
			c-0.167,0-0.333,0.033-0.5,0.1c-0.367,0.067-0.6,0.2-0.7,0.4c-0.1,0.167-0.167,0.533-0.2,1.1c-0.033,0.3-0.05,0.567-0.05,0.8
			h-0.75c-0.233,0-0.65,0.134-1.25,0.4V37.4c0-0.2,0.233-0.434,0.7-0.7c0.2-0.1,0.417-0.2,0.65-0.3l-0.25-0.45
			c-0.2-0.3-0.267-0.684-0.2-1.15c0.066-0.6,0.383-0.983,0.95-1.15c0.5-0.167,0.75-0.167,0.75,0l0.75-0.95
			c0.267-0.333,0.717-0.383,1.35-0.15l0.45-0.45c0.433-0.333,0.966-0.633,1.6-0.9c0.667-0.233,1.15-0.117,1.45,0.35
			c0.167,0.233,0.25,0.483,0.25,0.75l0.8-0.3c0.633-0.233,1.217-0.35,1.75-0.35c0.733,0,1.383,0.283,1.95,0.85
			c-0.133,0.267-0.1,0.45,0.1,0.55c0.129,0.065,0.262,0.098,0.4,0.1c-0.308,0.002-0.758,0.085-1.35,0.25
			c-0.367,0.1-0.783,0.35-1.25,0.75l-0.6,0.55v-0.4C74.55,34.133,74.667,33.85,74.9,33.45z"/>
		<path style="fill-rule:evenodd;clip-rule:evenodd;fill:#5B9400;" d="M69.75,17.55c-0.5,0.067-0.933,0.333-1.3,0.8l-0.4,0.7
			l-0.4-0.6c-0.566-0.1-1.15-0.067-1.75,0.1c-0.367,0.1-0.717,0.35-1.05,0.75l-0.35,0.6l0.15-1.2c-0.433,0.066-0.983,0.433-1.65,1.1
			c-0.4,0.434-0.65,0.983-0.75,1.65c-0.033,0.333-0.033,0.617,0,0.85l-0.8,0.35c-0.233,0.1-0.6,0.35-1.1,0.75
			c0.033-0.233,0.217-0.583,0.55-1.05c0.367-0.467,0.533-0.767,0.5-0.9c-0.066-0.267,0.033-0.65,0.3-1.15
			c0.233-0.533,0.55-1,0.95-1.4c0.533-0.533,1.067-0.767,1.6-0.7c0.267,0,0.483,0.066,0.65,0.2l0.45-0.35
			c0.4-0.267,0.833-0.433,1.3-0.5c0.733-0.1,1.033,0.017,0.9,0.35l0.25-0.3c0.233-0.267,0.55-0.533,0.95-0.8
			c0.6-0.433,1.117-0.35,1.55,0.25L71.05,17l-0.15,0.4L69.75,17.55z"/>
		<path style="fill-rule:evenodd;clip-rule:evenodd;fill:#5B9400;" d="M147.4,38.3c0.6,0,0.733,0.3,0.399,0.9l0.25-0.3
			c0.233-0.2,0.566-0.351,1-0.45c0.733-0.167,1.233-0.017,1.5,0.45L151.4,38.8c0.6,0.033,0.933,0.25,1,0.65
			c0.1,0.666-0.567,0.866-2,0.6l-0.25,0.45c-0.2,0.434-0.334,0.917-0.4,1.45c-0.134,0.899-0.634,0.85-1.5-0.15
			c0.033,0.4-0.366,0.934-1.2,1.601c-0.533,0.433-0.967,0.416-1.3-0.051l-0.35-0.8c-0.101,0.667-0.567,1-1.4,1
			c-0.533,0-0.75-0.166-0.65-0.5l0.301-0.5c-0.434,0.267-0.851,0.184-1.25-0.25c-0.233-0.267,0-0.616,0.699-1.05
			c0.367-0.233,0.75-0.434,1.15-0.6l-0.5-0.351c-0.3-0.2-0.217-0.5,0.25-0.899c0.533-0.4,1.333-0.601,2.4-0.601l0.149-0.25
			C146.75,38.384,147.033,38.3,147.4,38.3z"/>
		<path style="fill-rule:evenodd;clip-rule:evenodd;fill:#2A6307;" d="M131.35,21.9c-0.166-0.2-0.25-0.467-0.25-0.8l-0.399-0.15
			c-0.334-0.2-0.65-0.517-0.95-0.95c0.833-0.1,1.417-0.367,1.75-0.8l0.3-0.5l0.3,0.2c0.301,0.133,0.733,0.15,1.301,0.05
			c0.933-0.1,1.466-0.284,1.6-0.55l0.65,0.4c0.533,0.2,1.033,0.083,1.5-0.35c0.767-0.667,0.983-1.434,0.649-2.3
			c0.733-0.167,1.101-0.583,1.101-1.25c0-0.4-0.184-0.867-0.551-1.4l-0.6-0.7l-0.05-0.7l0.85,1.05c0.533,0.633,0.8,1.1,0.8,1.4
			c0.034,0.434,0.301,0.967,0.801,1.6c0.533,0.633,0.833,1.167,0.899,1.6l-0.05,0.2l0.1,0.05c0.4,0.5,0.483,1.067,0.25,1.7
			c-0.267,0.633-0.699,1.05-1.3,1.25c-0.8,0.267-1.483,0.283-2.05,0.05c-0.733-0.467-1.283-0.733-1.65-0.8
			c-0.466,0.667-0.866,1.133-1.199,1.4c-0.534,0.433-1.217,0.683-2.051,0.75C132.134,22.35,131.55,22.2,131.35,21.9z"/>
	</g>
</g>
</svg>
