<?xml version="1.0" encoding="iso-8859-1"?>
<!-- Generator: Adobe Illustrator 15.1.0, SVG Export Plug-In . SVG Version: 6.00 Build 0)  -->
<!DOCTYPE svg PUBLIC "-//W3C//DTD SVG 1.1//EN" "http://www.w3.org/Graphics/SVG/1.1/DTD/svg11.dtd">
<svg version="1.1" id="flash0.ai" xmlns="http://www.w3.org/2000/svg" xmlns:xlink="http://www.w3.org/1999/xlink" x="0px" y="0px"
	 width="57.15px" height="21.15px" viewBox="0 0 57.15 21.15" style="enable-background:new 0 0 57.15 21.15;" xml:space="preserve"
	>
<symbol  id="flash0.ai_x5F_14_x2F_Layer_64_x2F__x3C_Path_x3E__x5F_9" viewBox="0.1 -10.072 57.126 10.027">
	<g id="Layer_1_2_">
		<path style="fill-rule:evenodd;clip-rule:evenodd;" d="M51.75-0.35c1.033-0.033,1.9-0.217,2.6-0.55
			c0.4-0.167,0.816-0.367,1.25-0.6c0.3-0.067,0.517-0.183,0.65-0.35c0.1-0.1,0.35-0.383,0.75-0.85c0.567-0.6,0.067-0.966-1.5-1.1
			c-1-0.333-1.733-0.534-2.2-0.6c-0.466-0.067-1.45-0.45-2.95-1.15c-0.567-0.3-1.167-0.483-1.8-0.55
			C47.683-6.167,46.833-6.25,46-6.35c-1.1-0.133-1.883-0.3-2.35-0.5c-0.733-0.367-1.566-0.767-2.5-1.2
			c-1.066-0.5-1.75-0.767-2.05-0.8c-0.633-0.1-1.133-0.2-1.5-0.3c-0.9-0.233-1.75-0.35-2.55-0.35c-1.133,0.1-2.233,0.183-3.3,0.25
			c-1.233,0.067-1.9,0.05-2-0.05c-0.333-0.267-0.617-0.434-0.85-0.5c-0.733-0.233-1.583-0.317-2.55-0.25c-0.7,0.033-2.1,0.2-4.2,0.5
			c-0.5,0.066-1.816,0.316-3.95,0.75c-1.067,0.2-2.117,0.316-3.15,0.35c-1.133,0.034-2.083,0.167-2.85,0.4
			c-0.833,0.267-1.5,0.466-2,0.6c-0.333,0.1-1.017,0.367-2.05,0.8c-0.9,0.367-1.8,0.633-2.7,0.8c-0.467,0.067-0.9,0.233-1.3,0.5
			C3.75-5.117,3.067-4.933,2.1-4.8c-1.133,0.167-1.8,0.517-2,1.05V-3c0.533,0.2,1.133,0.3,1.8,0.3c0.267,0,1.15,0.25,2.65,0.75
			C6.083-1.417,7.267-1.133,8.1-1.1C9.633-1.033,11.983-1,15.15-1c1.167,0,5.333,0.167,12.5,0.5c6.867,0.333,11.233,0.483,13.1,0.45
			L51.75-0.35z"/>
	</g>
</symbol>
<use xlink:href="#flash0.ai_x5F_14_x2F_Layer_64_x2F__x3C_Path_x3E__x5F_9"  width="57.126" height="10.027" x="0.1" y="-10.072" transform="matrix(1 0 0 -1 -0.1001 11.0996)" style="overflow:visible;opacity:0.1406;enable-background:new    ;"/>
<path style="fill-rule:evenodd;clip-rule:evenodd;fill:#9F9FA1;" d="M46.55,7.7l7.15,6.649c-3.467,0.801-6.717,1.4-9.75,1.801
	C43.417,16.217,41,16.8,36.7,17.9c-3.367,0.833-6.584,1.25-9.65,1.25c-3.233,0-8.216-0.801-14.95-2.4c-3.367-0.8-6.4-1.6-9.1-2.4
	l9.1-4.85c1.733-1.2,3.9-2.483,6.5-3.85c5.2-2.7,9.966-4.433,14.3-5.2c4.333-0.733,7.916,0.25,10.75,2.95
	C45.05,4.767,46.017,6.2,46.55,7.7z"/>
<path style="fill-rule:evenodd;clip-rule:evenodd;fill:#858687;" d="M41.4,2.9c0.366,0.033,0.783,0.1,1.25,0.2
	c0.3,0,0.949,0.333,1.949,1c0.4,0.267,0.967,1.283,1.7,3.05c0.134,0.367,0.316,0.617,0.55,0.75c0.367,0.233,0.717,0.55,1.051,0.95
	c0.533,0.667,0.833,1.033,0.899,1.1c0.101,0.066,0.584,0.367,1.45,0.9c1.2,0.7,2.35,1.867,3.45,3.5
	c-1.033,0.367-1.917,0.551-2.65,0.551c-0.467,0-0.833,0.033-1.1,0.1c-0.434,0.134-0.9,0.267-1.4,0.4
	c-2.767,0.767-4.934,1.149-6.5,1.149c-0.767,0-1.35,0.101-1.75,0.3c-0.533,0.334-1.066,0.634-1.6,0.9
	c-0.867,0.434-2.117,0.8-3.75,1.1c-1.8,0.334-3.65,0.5-5.55,0.5c-1.7,0-3.05-0.05-4.05-0.149l-1-0.15
	c0.333-0.467,0.566-1.033,0.7-1.7c0.1-0.399,0.417-0.866,0.95-1.399c0.267-0.267,0.533-0.483,0.8-0.65c-0.133-0.6-0.3-1.1-0.5-1.5
	c-0.133-0.233-0.466-0.483-1-0.75l-0.75-0.35l0.9-0.7c0.566-0.434,1.716-0.917,3.45-1.45c0.1-0.3,0.233-0.667,0.399-1.1
	c0.334-0.833,0.65-1.5,0.95-2c0.333-0.467,0.667-0.75,1-0.85c0.233-0.067,0.767-0.2,1.6-0.4c3.067-0.967,5.233-1.867,6.5-2.7
	C40.05,3.067,40.733,2.867,41.4,2.9z"/>
<path style="fill-rule:evenodd;clip-rule:evenodd;fill:#858687;" d="M16.6,12.9l2.1,0.5c-0.267,0.466-0.733,0.833-1.4,1.1
	c-0.4,0.167-0.8,0.167-1.2,0c-0.5-0.3-0.95-0.533-1.35-0.7c-0.767-0.333-1.667-0.566-2.7-0.7c-0.566-0.066-1.117-0.199-1.65-0.399
	l-0.6-0.3l3.25-0.101c0.667,0.033,1.083,0.066,1.25,0.101C14.5,12.467,15.267,12.634,16.6,12.9z"/>
<path style="fill-rule:evenodd;clip-rule:evenodd;fill:#858687;" d="M25.8,7.15c0.5,0.1,0.633,0.483,0.4,1.15
	c-0.233,0.667-0.617,1.05-1.15,1.15c-0.5,0.1-0.85,0.1-1.05,0c-0.1-0.067-0.283-0.233-0.55-0.5c-0.233-0.233-0.067-0.617,0.5-1.15
	C24.55,7.267,25.167,7.05,25.8,7.15z"/>
<path style="fill-rule:evenodd;clip-rule:evenodd;fill:#858687;" d="M21.05,7.25c0.5,0,0.733,0.15,0.7,0.45
	c-0.033,0.267-0.317,0.583-0.85,0.95c-0.566,0.367-0.816,0.217-0.75-0.45C20.217,7.567,20.517,7.25,21.05,7.25z"/>
<path style="fill-rule:evenodd;clip-rule:evenodd;fill:#B8B8BA;" d="M40.85,3.55c-0.866,0.067-1.699,0.383-2.5,0.95
	c-0.066,0.033-0.316,0.267-0.75,0.7c-0.233,0.2-0.6,0.333-1.1,0.4l-4.1,0.75C31.366,6.583,30.767,6.8,30.6,7L30,7.65L30.3,7
	c0.334-0.433,0.767-0.7,1.3-0.8c1.067-0.167,1.851-0.35,2.351-0.55c0.267-0.1,0.434-0.233,0.5-0.4c0.066-0.133,0.233-0.233,0.5-0.3
	c0.866-0.133,1.366-0.233,1.5-0.3c0.366-0.133,0.649-0.267,0.85-0.4c0.101-0.067,0.267-0.2,0.5-0.4
	c0.233-0.167,0.25-0.417,0.05-0.75c-0.166-0.333-0.399-0.55-0.699-0.65c-1.101-0.167-2.034-0.333-2.801-0.5
	c-1.033-0.2-1.866-0.333-2.5-0.4c-0.533-0.033-0.916-0.033-1.149,0C30.233,1.717,29.684,1.867,29.05,2
	c-0.633,0.133-1.566,0.45-2.8,0.95c-1.133,0.433-1.967,0.7-2.5,0.8c-1.567,0.3-2.65,0.683-3.25,1.15
	c-0.233,0.167-1.017,0.55-2.35,1.15l-1.9,0.85l3.9-2.1c1.733-1,3.667-1.883,5.8-2.65c0.2-0.066,0.6-0.183,1.2-0.35
	c0.367-0.1,0.7-0.233,1-0.4c0.267-0.133,0.633-0.316,1.1-0.55c0.434-0.2,0.934-0.283,1.5-0.25c0.5,0.033,1.167-0.05,2-0.25
	C33.65,0.117,34.3,0,34.7,0c1.666-0.067,2.899,0.083,3.7,0.45c0.233,0.1,0.649,0.233,1.25,0.4c0.5,0.133,1,0.333,1.5,0.6
	c0.633,0.333,1.3,0.783,2,1.35c0.633,0.5,1,0.817,1.1,0.95L44.4,4C42.8,3.633,41.616,3.483,40.85,3.55z"/>
<path style="fill-rule:evenodd;clip-rule:evenodd;fill:#9F9FA1;" d="M44.45,9.35c0.066,0,0.05,0.033-0.05,0.1
	C44.267,9.583,44.333,9.7,44.6,9.8c0.634,0.233,0.267,0.583-1.1,1.05c-0.434,0.2-0.75,0.333-0.95,0.4
	c-0.267,0.1-0.767,0.167-1.5,0.2s-1.033-0.101-0.899-0.4c0.3-0.3,0.466-0.5,0.5-0.6c0.166-0.267,0.533-0.6,1.1-1
	c0.167-0.133,0.517-0.167,1.05-0.1C43.467,9.417,44.017,9.417,44.45,9.35z"/>
<path style="fill-rule:evenodd;clip-rule:evenodd;fill:#9F9FA1;" d="M36.05,10.25c0.4-0.167,0.783-0.183,1.15-0.05
	c0.333,0.167,0.383,0.383,0.149,0.65c-0.199,0.233-0.366,0.367-0.5,0.4c-0.199-0.033-0.433-0.05-0.699-0.05
	c-0.301,0-0.5,0.017-0.601,0.05c-0.1,0.1-0.217,0.167-0.35,0.2c-0.4,0.434-0.967,0.75-1.7,0.95c-0.5,0.133-0.684,0.1-0.55-0.101
	l0.5-0.5C34.25,11.167,35.116,10.65,36.05,10.25z"/>
<path style="fill-rule:evenodd;clip-rule:evenodd;fill:#9F9FA1;" d="M35.7,15.85c0.533-0.066,0.816,0.084,0.85,0.45
	c0.033,0.367-0.25,0.684-0.85,0.95c-0.5,0.233-0.834,0.267-1,0.1c-0.334-0.3-0.517-0.449-0.55-0.449
	C33.816,16.8,33.884,16.6,34.35,16.3C34.816,16.033,35.267,15.884,35.7,15.85z"/>
</svg>
