<?xml version="1.0" encoding="iso-8859-1"?>
<!-- Generator: Adobe Illustrator 15.1.0, SVG Export Plug-In . SVG Version: 6.00 Build 0)  -->
<!DOCTYPE svg PUBLIC "-//W3C//DTD SVG 1.1//EN" "http://www.w3.org/Graphics/SVG/1.1/DTD/svg11.dtd">
<svg version="1.1" id="Layer_3" xmlns="http://www.w3.org/2000/svg" xmlns:xlink="http://www.w3.org/1999/xlink" x="0px" y="0px"
	 width="395.6px" height="259.65px" viewBox="0 0 395.6 259.65" style="enable-background:new 0 0 395.6 259.65;"
	 xml:space="preserve">
<g>
	<path style="fill-rule:evenodd;clip-rule:evenodd;fill:#E3E6E3;" d="M348.9,192.7c0,1.566-0.551,2.916-1.65,4.05
		c-1.134,1.1-2.483,1.65-4.05,1.65s-2.917-0.551-4.05-1.65c-1.101-1.134-1.65-2.483-1.65-4.05s0.55-2.917,1.65-4.05
		c1.133-1.101,2.483-1.65,4.05-1.65s2.916,0.55,4.05,1.65C348.35,189.783,348.9,191.134,348.9,192.7z"/>
	<path style="fill-rule:evenodd;clip-rule:evenodd;fill:#E3E6E3;" d="M73.2,171.05c0,1.566-0.55,2.917-1.65,4.05
		c-1.133,1.101-2.483,1.65-4.05,1.65s-2.917-0.55-4.05-1.65c-1.1-1.133-1.65-2.483-1.65-4.05s0.55-2.916,1.65-4.05
		c1.133-1.1,2.483-1.65,4.05-1.65s2.917,0.551,4.05,1.65C72.65,168.134,73.2,169.483,73.2,171.05z"/>
	<path style="fill-rule:evenodd;clip-rule:evenodd;fill:#E3E6E3;" d="M395.6,175.6c0,1.567-0.55,2.917-1.649,4.051
		c-1.134,1.1-2.483,1.649-4.05,1.649c-1.567,0-2.9-0.55-4-1.649c-1.134-1.134-1.7-2.483-1.7-4.051c0-1.566,0.566-2.916,1.7-4.05
		c1.1-1.1,2.433-1.649,4-1.649c1.566,0,2.916,0.55,4.05,1.649C395.05,172.684,395.6,174.033,395.6,175.6z"/>
	<path style="fill-rule:evenodd;clip-rule:evenodd;fill:#E3E6E3;" d="M180.3,70.8c0,1.567-0.55,2.917-1.65,4.05
		c-1.133,1.1-2.483,1.65-4.05,1.65c-1.567,0-2.917-0.55-4.05-1.65c-1.1-1.133-1.65-2.483-1.65-4.05c0-1.566,0.55-2.917,1.65-4.05
		c1.133-1.1,2.483-1.65,4.05-1.65c1.566,0,2.917,0.55,4.05,1.65C179.75,67.883,180.3,69.233,180.3,70.8z"/>
	<path style="fill-rule:evenodd;clip-rule:evenodd;fill:#E3E6E3;" d="M282.8,62.8c1.2,0,2.217,0.417,3.05,1.25
		c0.834,0.833,1.25,1.85,1.25,3.05c0,1.167-0.416,2.167-1.25,3c-0.833,0.833-1.85,1.25-3.05,1.25c-1.166,0-2.166-0.417-3-1.25
		c-0.833-0.833-1.25-1.833-1.25-3c0-1.2,0.417-2.217,1.25-3.05C280.634,63.217,281.634,62.8,282.8,62.8z"/>
	<path style="fill-rule:evenodd;clip-rule:evenodd;fill:#E3E6E3;" d="M80.95,124.6c0,0.9-0.317,1.667-0.95,2.3
		c-0.633,0.6-1.383,0.9-2.25,0.9c-0.9,0-1.65-0.3-2.25-0.9c-0.633-0.633-0.95-1.4-0.95-2.3c0-0.867,0.317-1.617,0.95-2.25
		c0.6-0.633,1.35-0.95,2.25-0.95c0.867,0,1.617,0.317,2.25,0.95S80.95,123.733,80.95,124.6z"/>
	<path style="fill-rule:evenodd;clip-rule:evenodd;fill:#E3E6E3;" d="M326.8,115.8c0,0.667-0.233,1.233-0.7,1.7
		c-0.466,0.467-1.033,0.7-1.699,0.7c-0.634,0-1.2-0.233-1.7-0.7c-0.467-0.467-0.7-1.033-0.7-1.7c0-0.667,0.233-1.233,0.7-1.7
		s1.033-0.7,1.7-0.7c0.666,0,1.233,0.233,1.699,0.7C326.566,114.567,326.8,115.133,326.8,115.8z"/>
	<path style="fill-rule:evenodd;clip-rule:evenodd;fill:#E3E6E3;" d="M342.05,213.2c0,0.666-0.233,1.233-0.7,1.7
		c-0.466,0.466-1.033,0.699-1.699,0.699c-0.667,0-1.233-0.233-1.7-0.699c-0.467-0.467-0.7-1.034-0.7-1.7
		c0-0.667,0.233-1.233,0.7-1.7s1.033-0.7,1.7-0.7c0.666,0,1.233,0.233,1.699,0.7C341.816,211.967,342.05,212.533,342.05,213.2z"/>
	<path style="fill-rule:evenodd;clip-rule:evenodd;fill:#E3E6E3;" d="M372.85,78.75c0,0.667-0.233,1.233-0.699,1.7
		c-0.467,0.466-1.034,0.7-1.7,0.7c-0.667,0-1.233-0.233-1.7-0.7c-0.467-0.467-0.7-1.034-0.7-1.7s0.233-1.233,0.7-1.7
		c0.467-0.466,1.033-0.7,1.7-0.7c0.666,0,1.233,0.233,1.7,0.7C372.616,77.55,372.85,78.117,372.85,78.75z"/>
	<path style="fill-rule:evenodd;clip-rule:evenodd;fill:#E3E6E3;" d="M204.35,31.05c0,0.667-0.233,1.233-0.699,1.7
		c-0.467,0.467-1.034,0.7-1.7,0.7c-0.667,0-1.233-0.233-1.7-0.7s-0.7-1.033-0.7-1.7c0-0.667,0.233-1.233,0.7-1.7s1.033-0.7,1.7-0.7
		c0.666,0,1.233,0.233,1.7,0.7C204.116,29.817,204.35,30.383,204.35,31.05z"/>
	<path style="fill-rule:evenodd;clip-rule:evenodd;fill:#E3E6E3;" d="M50.5,187c0,0.667-0.233,1.233-0.7,1.7
		c-0.466,0.467-1.033,0.7-1.7,0.7c-0.633,0-1.2-0.233-1.7-0.7c-0.467-0.467-0.7-1.033-0.7-1.7s0.233-1.233,0.7-1.7
		s1.033-0.7,1.7-0.7c0.667,0,1.233,0.233,1.7,0.7C50.267,185.767,50.5,186.333,50.5,187z"/>
	<path style="fill-rule:evenodd;clip-rule:evenodd;fill:#E3E6E3;" d="M147.5,102.7c0,0.667-0.233,1.233-0.7,1.7
		c-0.466,0.467-1.033,0.7-1.7,0.7c-0.667,0-1.233-0.233-1.7-0.7s-0.7-1.033-0.7-1.7c0-0.667,0.233-1.233,0.7-1.7s1.033-0.7,1.7-0.7
		c0.667,0,1.233,0.233,1.7,0.7C147.267,101.467,147.5,102.033,147.5,102.7z"/>
	<path style="fill-rule:evenodd;clip-rule:evenodd;fill:#E3E6E3;" d="M271.55,2.4c0,0.667-0.233,1.25-0.7,1.75
		c-0.466,0.467-1.033,0.7-1.699,0.7c-0.667,0-1.233-0.233-1.7-0.7c-0.467-0.5-0.7-1.083-0.7-1.75c0-0.667,0.233-1.233,0.7-1.7
		c0.467-0.467,1.033-0.7,1.7-0.7c0.666,0,1.233,0.233,1.699,0.7C271.316,1.167,271.55,1.733,271.55,2.4z"/>
	<path style="fill-rule:evenodd;clip-rule:evenodd;fill:#E3E6E3;" d="M4.85,236c0,0.667-0.233,1.233-0.7,1.7
		c-0.5,0.467-1.083,0.7-1.75,0.7c-0.633,0-1.2-0.233-1.7-0.7C0.233,237.233,0,236.667,0,236s0.233-1.233,0.7-1.7
		c0.466-0.467,1.033-0.7,1.7-0.7c0.667,0,1.25,0.233,1.75,0.7C4.617,234.767,4.85,235.333,4.85,236z"/>
	<path style="fill-rule:evenodd;clip-rule:evenodd;fill:#E3E6E3;" d="M379.65,255.35c0,1.167-0.417,2.184-1.25,3.051
		c-0.834,0.833-1.834,1.25-3,1.25c-1.167,0-2.184-0.417-3.051-1.25c-0.833-0.867-1.25-1.884-1.25-3.051c0-1.166,0.417-2.166,1.25-3
		c0.867-0.833,1.884-1.25,3.051-1.25c1.166,0,2.166,0.417,3,1.25C379.233,253.184,379.65,254.184,379.65,255.35z"/>
	<path style="fill-rule:evenodd;clip-rule:evenodd;fill:#E3E6E3;" d="M128.9,147.5c0.833,0.866,1.25,1.884,1.25,3.05
		c0,1.167-0.417,2.167-1.25,3c-0.833,0.834-1.833,1.25-3,1.25c-1.2,0-2.217-0.416-3.05-1.25c-0.833-0.833-1.25-1.833-1.25-3
		c0-1.166,0.417-2.184,1.25-3.05c0.833-0.833,1.85-1.25,3.05-1.25C127.067,146.25,128.067,146.667,128.9,147.5z"/>
	<path style="fill-rule:evenodd;clip-rule:evenodd;fill:#E3E6E3;" d="M156.05,155.1c0,1.167-0.417,2.167-1.25,3
		c-0.833,0.834-1.833,1.25-3,1.25c-1.167,0-2.167-0.416-3-1.25c-0.833-0.833-1.25-1.833-1.25-3c0-1.166,0.417-2.183,1.25-3.05
		c0.833-0.833,1.833-1.25,3-1.25c1.167,0,2.167,0.417,3,1.25C155.633,152.917,156.05,153.934,156.05,155.1z"/>
	<path style="fill-rule:evenodd;clip-rule:evenodd;fill:#E3E6E3;" d="M359.9,146.35c0.833,0.867,1.25,1.884,1.25,3.051
		c0,1.166-0.417,2.166-1.25,3c-0.834,0.833-1.834,1.25-3,1.25c-1.2,0-2.217-0.417-3.051-1.25c-0.833-0.834-1.25-1.834-1.25-3
		c0-1.167,0.417-2.184,1.25-3.051c0.834-0.833,1.851-1.25,3.051-1.25C358.066,145.1,359.066,145.517,359.9,146.35z"/>
</g>
</svg>
