<?xml version="1.0" encoding="iso-8859-1"?>
<!-- Generator: Adobe Illustrator 15.1.0, SVG Export Plug-In . SVG Version: 6.00 Build 0)  -->
<!DOCTYPE svg PUBLIC "-//W3C//DTD SVG 1.1//EN" "http://www.w3.org/Graphics/SVG/1.1/DTD/svg11.dtd">
<svg version="1.1" id="Layer_4" xmlns="http://www.w3.org/2000/svg" xmlns:xlink="http://www.w3.org/1999/xlink" x="0px" y="0px"
	 width="187.85px" height="141.5px" viewBox="0 0 187.85 141.5" style="enable-background:new 0 0 187.85 141.5;"
	 xml:space="preserve">
<symbol  id="flash2.ai_x5F_0_x2F_Layer_4_x2F__x3C_Compound_Path_x3E_" viewBox="0.039 -9.427 24.822 9.403">
	<g id="Layer_1_13_">
		
			<linearGradient id="SVGID_1_" gradientUnits="userSpaceOnUse" x1="15263.958" y1="816.5703" x2="15268.6875" y2="816.5703" gradientTransform="matrix(0.111 0.9938 -0.9938 0.111 -870.8887 -15268.415)">
			<stop  offset="0" style="stop-color:#BEC5B4"/>
			<stop  offset="1" style="stop-color:#9AB3A6"/>
		</linearGradient>
		<path style="fill-rule:evenodd;clip-rule:evenodd;fill:url(#SVGID_1_);" d="M14.45-6.25c1.4,0.233,2.133,0.683,2.2,1.35
			c0.067,0.633-0.55,1.283-1.85,1.95c-1.3,0.667-2.883,1.15-4.75,1.45c-1.9,0.267-3.533,0.283-4.9,0.05
			c-1.4-0.267-2.133-0.716-2.2-1.35c-0.034-0.667,0.583-1.333,1.85-2c1.3-0.667,2.883-1.133,4.75-1.4
			C11.45-6.5,13.083-6.517,14.45-6.25z M24.85-6.65c-0.1-1.167-1.417-1.983-3.95-2.45C18.4-9.567,15.433-9.533,12-9
			C8.6-8.467,5.717-7.6,3.35-6.4c-2.333,1.233-3.434,2.433-3.3,3.6C0.15-1.633,1.467-0.817,4-0.35s5.5,0.434,8.9-0.1
			c3.434-0.533,6.317-1.4,8.65-2.6C23.883-4.25,24.983-5.45,24.85-6.65z M21.65-7.45c0.033,0.3-0.183,0.583-0.65,0.85
			c-0.467,0.3-1.05,0.5-1.75,0.6c-0.667,0.133-1.267,0.133-1.8,0c-0.5-0.133-0.767-0.35-0.8-0.65c-0.033-0.3,0.184-0.6,0.65-0.9
			C17.767-7.817,18.35-8,19.05-8.1c0.667-0.133,1.25-0.133,1.75,0S21.583-7.75,21.65-7.45z"/>
	</g>
</symbol>
<symbol  id="flash2.ai_x5F_0_x2F_Layer_4_x2F__x3C_Compound_Path_x3E__x5F_1" viewBox="-0.163 -24.171 70.019 24.174">
	<g id="Layer_1_11_">
		
			<linearGradient id="SVGID_2_" gradientUnits="userSpaceOnUse" x1="16290.8506" y1="-150.9604" x2="16303.8516" y2="-150.9604" gradientTransform="matrix(-0.0115 0.9999 -0.9999 -0.0115 71.9858 -16313.1582)">
			<stop  offset="0" style="stop-color:#BEC5B4"/>
			<stop  offset="1" style="stop-color:#9AB3A6"/>
		</linearGradient>
		<path style="fill-rule:evenodd;clip-rule:evenodd;fill:url(#SVGID_2_);" d="M34.8-9.55c-3.167,1.233-7,1.867-11.5,1.9
			c-4.5,0-8.35-0.617-11.55-1.85c-3.167-1.233-4.767-2.717-4.8-4.45c0-1.733,1.6-3.233,4.8-4.5c3.167-1.233,7-1.867,11.5-1.9
			c4.5,0,8.35,0.617,11.55,1.85c3.167,1.233,4.75,2.717,4.75,4.45C39.55-12.317,37.967-10.817,34.8-9.55z M63.95-1.3
			c3.833-1.1,5.8-2.467,5.9-4.1c0.1-1.533-0.9-2.75-3-3.65c-2.5-1.034-6.65-1.684-12.45-1.95c-2.833-0.133-6.25,0.117-10.25,0.75
			c-1.033,0.133-1.583,0.133-1.65,0c-0.1-0.167,0.267-0.65,1.1-1.45c3.2-3.1,2.033-6-3.5-8.7c-5.5-2.7-12.65-3.95-21.45-3.75
			c-7.7,0.2-13.2,1.816-16.5,4.85c-3.1,2.867-3.083,5.633,0.05,8.3c2.6,2.2,6.633,3.833,12.1,4.9c4.034,0.767,7.717,1.1,11.05,1
			c4.133-0.133,7.983-0.85,11.55-2.15c1.434-0.533,2.167-0.8,2.2-0.8c0.267-0.067,0.233,0.183-0.1,0.75
			c-1.233,1.5-0.933,2.966,0.9,4.4c1.934,1.533,4.983,2.45,9.15,2.75C54.817,0.25,59.783-0.133,63.95-1.3z M66.4-5.3
			c0,0.933-1.033,1.733-3.1,2.4c-2.066,0.667-4.566,1.017-7.5,1.05c-2.933,0-5.433-0.333-7.5-1c-2.066-0.667-3.117-1.467-3.15-2.4
			c0-0.933,1.033-1.733,3.1-2.4c2.1-0.667,4.617-1,7.55-1c2.9-0.033,5.4,0.283,7.5,0.95C65.367-7.033,66.4-6.233,66.4-5.3z"/>
	</g>
</symbol>
<symbol  id="flash2.ai_x5F_0_x2F_Layer_4_x2F__x3C_Path_x3E_" viewBox="-0.018 -141.452 182.575 141.486">
	<g id="Layer_1_3_">
		
			<radialGradient id="SVGID_3_" cx="47.0103" cy="-114.9399" r="79.5591" gradientTransform="matrix(1 -0.0055 -0.0052 -0.9401 43.6348 -178.4956)" gradientUnits="userSpaceOnUse">
			<stop  offset="0.3216" style="stop-color:#2C240F;stop-opacity:0.5373"/>
			<stop  offset="1" style="stop-color:#2B170F;stop-opacity:0"/>
		</radialGradient>
		<path style="fill-rule:evenodd;clip-rule:evenodd;fill:url(#SVGID_3_);" d="M181.8-71.05c-0.833-3.434-2.45-7.517-4.85-12.25
			c-2.767-5.067-4.684-8.65-5.75-10.75c-2.534-5.067-6.083-9.633-10.65-13.7c-4.233-3.767-9.117-6.9-14.65-9.4
			c-2.933-1.333-6.45-3.7-10.55-7.1c-4.7-3.9-8.067-6.45-10.1-7.65c-5.767-3.467-11.95-6.033-18.55-7.7
			c-6.967-1.733-13.6-2.25-19.9-1.55c-3.2,0.367-6.066,1.167-8.6,2.4c-1.833,0.9-4.333,2.517-7.5,4.85
			c-2.567,1.9-5.983,3.816-10.25,5.75c-6.367,2.9-9.934,4.55-10.7,4.95c-4.967,2.633-10.567,6.75-16.8,12.35
			c-5.367,4.8-10.233,9.817-14.6,15.05C12.75-89.733,8.7-84.983,6.2-81.55C1.833-75.483-0.233-69.767,0-64.4
			c0.233,5,2.567,10.133,7,15.4c0.133,0.167,4.233,4.283,12.3,12.35c6.967,6.967,14.784,13.333,23.45,19.1
			c9.433,6.3,18.417,10.867,26.95,13.7c16.833,5.567,33.583,5.15,50.25-1.25c14.533-5.6,28.466-15.533,41.8-29.8
			c1.4-1.5,3.883-4.583,7.45-9.25c2.933-3.867,5.55-6.817,7.85-8.85C182.083-57.367,183.667-63.383,181.8-71.05z"/>
	</g>
</symbol>
<symbol  id="flash2.ai_x5F_0_x2F_Layer_4_x2F__x3C_Path_x3E__x5F_0" viewBox="0 -2.4 3.35 2.4">
	<g id="Layer_1_18_">
		
			<linearGradient id="SVGID_4_" gradientUnits="userSpaceOnUse" x1="16372.0381" y1="-181.293" x2="16373.3379" y2="-181.293" gradientTransform="matrix(-0.0192 0.9998 -0.9998 -0.0192 135.2227 -16374.6475)">
			<stop  offset="0" style="stop-color:#BEC5B4"/>
			<stop  offset="1" style="stop-color:#9AB3A6"/>
		</linearGradient>
		<path style="fill-rule:evenodd;clip-rule:evenodd;fill:url(#SVGID_4_);" d="M3.35-1.2c0-0.333-0.167-0.617-0.5-0.85
			C2.517-2.283,2.117-2.4,1.65-2.4c-0.433,0-0.816,0.117-1.15,0.35C0.167-1.817,0-1.533,0-1.2c0,0.333,0.167,0.617,0.5,0.85
			C0.8-0.117,1.183,0,1.65,0s0.867-0.117,1.2-0.35C3.183-0.583,3.35-0.867,3.35-1.2z"/>
	</g>
</symbol>
<symbol  id="flash2.ai_x5F_0_x2F_Layer_4_x2F__x3C_Path_x3E__x5F_1" viewBox="0 -95.45 187.844 95.408">
	<g id="Layer_1_2_">
		<path style="fill-rule:evenodd;clip-rule:evenodd;fill:#332E17;" d="M184.3-20.9l0.8-0.5c1.167-0.7,1.9-1.483,2.2-2.35
			c0.934-1.367,0.667-3.217-0.8-5.55l-2.15-3.2c-0.633-1.2-1.35-2.417-2.15-3.65c-0.534-0.9-1.05-1.65-1.55-2.25
			c-2.733-3.8-6.816-8.3-12.25-13.5c-0.467-0.434-1.333-1.383-2.6-2.85c-1.066-1.2-1.983-2.1-2.75-2.7
			c-0.433-0.333-1.7-1.233-3.8-2.7c-1.533-1.067-2.75-2-3.65-2.8c-1.434-1.333-2.583-2.917-3.45-4.75c-0.5-1.1-1.267-2.966-2.3-5.6
			c0.066,1.4,0.3,3.083,0.7,5.05c0.567,2.733,0.883,4.367,0.95,4.9c-1.567-0.933-2.867-2.667-3.9-5.2
			c-0.067,1.133-0.1,1.95-0.1,2.45c-1.233-0.267-2.833-0.867-4.8-1.8c-2.667-1.267-4.25-2-4.75-2.2
			c-0.633-0.267-3.017-0.95-7.15-2.05c-2.867-0.767-5.15-1.8-6.85-3.1c-1-0.8-2-1.217-3-1.25c-1.3,0.1-2.45,0.117-3.45,0.05
			c-1.367-0.1-2.55-0.566-3.55-1.4c-0.233-0.2-1.2-1.25-2.9-3.15c0.034,0.3,0.034,0.75,0,1.35c-0.033,0.667-0.05,1.133-0.05,1.4
			c-1.333-0.167-2.667-0.833-4-2c-1.733-1.5-2.917-2.417-3.55-2.75c-0.367-0.167-1-0.3-1.9-0.4c-0.8-0.067-1.433-0.283-1.9-0.65
			c-1.3-0.967-2.083-2.75-2.35-5.35c-0.333-3.167-0.75-5.184-1.25-6.05c-1.466,5.067-2.316,7.85-2.55,8.35
			c-1.133,2.934-2.683,5.167-4.65,6.7c-0.633,0.467-2.833,1.083-6.6,1.85c-3.8,0.8-5.683,0.983-5.65,0.55
			c0.033-0.233,0.217-1.083,0.55-2.55c0.233-1.034,0.3-1.917,0.2-2.65c-0.467,0.833-1.2,1.517-2.2,2.05
			c-1.2,0.5-2.083,0.95-2.65,1.35c-0.067,0.066-0.833,0.75-2.3,2.05c-1.067,0.933-1.883,1.433-2.45,1.5
			c-0.3,0.033-0.683-0.117-1.15-0.45c-0.467-0.367-0.883-0.517-1.25-0.45c-0.267,0.033-0.617,0.267-1.05,0.7
			c-0.533,0.467-0.883,0.75-1.05,0.85c-0.9,0.434-1.85,0.733-2.85,0.9c-1.066,0.167-2,0.15-2.8-0.05c0.367-0.567,0.967-1.5,1.8-2.8
			c0.667-1.167,1.05-2.2,1.15-3.1c-0.6,0.8-1.4,1.65-2.4,2.55c-1.133,1-1.983,1.767-2.55,2.3c-0.6,0.566-1.867,1.333-3.8,2.3
			c-1.667,0.833-2.8,1.683-3.4,2.55c0.333-0.6,0.533-1.5,0.6-2.7c-1.733,1.167-3.133,2.75-4.2,4.75c-1.9,0.133-3.966,0.967-6.2,2.5
			c-2.467,1.9-4.333,3.3-5.6,4.2c-4.233,2.934-8.35,5.667-12.35,8.2c-6.433,4-11.633,8.8-15.6,14.4C1.95-35.2,0.267-31.5,0-28.5
			l0.35-0.05c-0.233,1.833,0.2,3.233,1.3,4.2c0.833,0.934,2.083,1.667,3.75,2.2l5.5,1.7c1.7,0.534,4.5,1.684,8.4,3.45
			c3.5,1.633,6.333,2.717,8.5,3.25c1.067,0.267,3.133,0.65,6.2,1.15c2.6,0.4,4.667,0.867,6.2,1.4c2.066,0.7,4.3,1.217,6.7,1.55
			c1.567,0.2,3.85,0.4,6.85,0.6c1.8,0.1,4.383,0.8,7.75,2.1c3.367,1.3,5.933,2.017,7.7,2.15c0.933,0.066,2.1-0.067,3.5-0.4
			c1.867-0.433,3.017-0.683,3.45-0.75c1.233-0.133,2.633-0.083,4.2,0.15c0.933,0.133,2.316,0.383,4.15,0.75
			c0.767,0.133,1.883,0.333,3.35,0.6c1.267,0.267,2.333,0.684,3.2,1.25c0.7,0.4,1.65,1.1,2.85,2.1C94.967-0.333,96,0.017,97-0.05
			c1.533-0.133,3.683-1.083,6.45-2.85c2.9-1.833,5.1-2.85,6.6-3.05c3.633-0.5,8.317-0.55,14.05-0.15
			c3.8,0.233,8.367-0.283,13.7-1.55c3.067-0.733,7.567-1.95,13.5-3.65c3.8-1,9.383-2.2,16.75-3.6
			C174.517-16.367,179.933-18.367,184.3-20.9z"/>
	</g>
</symbol>
<symbol  id="flash2.ai_x5F_0_x2F_Layer_4_x2F__x3C_Path_x3E__x5F_10" viewBox="0 -3.3 5.65 3.3">
	<g id="Layer_1_6_">
		<path style="fill-rule:evenodd;clip-rule:evenodd;fill:#BEC5B4;" d="M5.65-1.65c0-0.467-0.267-0.85-0.8-1.15
			c-0.567-0.333-1.233-0.5-2-0.5s-1.434,0.167-2,0.5C0.283-2.5,0-2.117,0-1.65s0.283,0.867,0.85,1.2C1.383-0.15,2.05,0,2.85,0
			c0.767,0,1.433-0.15,2-0.45C5.383-0.783,5.65-1.183,5.65-1.65z"/>
	</g>
</symbol>
<symbol  id="flash2.ai_x5F_0_x2F_Layer_4_x2F__x3C_Path_x3E__x5F_12" viewBox="-0.066 -46.194 187.319 46.194">
	<g id="Layer_1_5_">
		
			<linearGradient id="SVGID_5_" gradientUnits="userSpaceOnUse" x1="-12.7319" y1="-16126.2275" x2="32.5431" y2="-16126.2275" gradientTransform="matrix(2.208725e-005 -1 1 -0.001 16219.8213 -30.1211)">
			<stop  offset="0" style="stop-color:#BEC5B4"/>
			<stop  offset="1" style="stop-color:#9AB3A6"/>
		</linearGradient>
		<path style="fill-rule:evenodd;clip-rule:evenodd;fill:url(#SVGID_5_);" d="M167.05-30.7c-5.966-2.3-11.45-4.083-16.45-5.35
			c-9.267-2.4-18.6-3.233-28-2.5c-6.967,0.533-12.75,1.867-17.35,4c-1.4,0.733-2.167,1.1-2.3,1.1c-0.067,0,0.233-0.517,0.9-1.55
			c1.633-2.533,0.617-4.9-3.05-7.1c-4.133-2.467-10.566-3.816-19.3-4.05c-10.167-0.267-19.65,0.667-28.45,2.8
			c-9.333,2.267-12.1,4.717-8.3,7.35c2.133,1.467,2.233,2.283,0.3,2.45c-0.566,0.066-3.867,0-9.9-0.2
			c-5.333-0.133-9.483-0.117-12.45,0.05c-5.267,0.333-9.733,1.167-13.4,2.5c-4.533,1.667-7.483,4.25-8.85,7.75
			c-1.434,3.733,0.117,6.317,4.65,7.75c7.667,2.4,14.05,4.233,19.15,5.5c9.267,2.3,17.433,3.667,24.5,4.1
			C53.717-5.767,58.9-5.067,64.3-4c4,0.8,8.133,1.117,12.4,0.95c4.767-0.2,9.017,0.25,12.75,1.35C93.35-0.567,95.5,0,95.9,0
			c1.067,0,3.633-0.317,7.7-0.95c4.467-0.7,8.367-1.133,11.7-1.3c5.534-0.333,11.383-0.583,17.55-0.75
			c4.667-0.2,9.75-0.717,15.25-1.55c10.867-1.667,19.017-3.317,24.45-4.95c4.167-1.267,8.25-3.083,12.25-5.45
			c3.167-1.867,3.267-4.233,0.3-7.1C181.933-25.117,175.917-28,167.05-30.7z"/>
	</g>
</symbol>
<symbol  id="flash2.ai_x5F_0_x2F_Layer_4_x2F__x3C_Path_x3E__x5F_14" viewBox="0.048 -43.941 182.641 43.941">
	<g id="Layer_1_4_">
		
			<linearGradient id="SVGID_6_" gradientUnits="userSpaceOnUse" x1="16280.1992" y1="-215.6729" x2="16304.126" y2="-215.6729" gradientTransform="matrix(-0.0125 0.9999 -0.9999 -0.0125 80.1855 -16321.1855)">
			<stop  offset="0" style="stop-color:#BEC5B4"/>
			<stop  offset="1" style="stop-color:#9AB3A6"/>
		</linearGradient>
		<path style="fill-rule:evenodd;clip-rule:evenodd;fill:url(#SVGID_6_);" d="M178.05-6.45c1.867-0.3,3.2-1,4-2.1
			c0.9-1.267,0.85-2.85-0.15-4.75c-1.1-2.133-1.683-3.25-1.75-3.35c-0.767-1.333-1.483-2.333-2.15-3c-0.9-0.9-2.117-1.717-3.65-2.45
			c-1.8-0.767-3.133-1.35-4-1.75c-2.167-1.267-3.8-2.2-4.9-2.8c-1.967-1.133-3.667-1.8-5.1-2c-0.667-0.1-1.967-0.2-3.9-0.3
			c-1.667-0.066-2.967-0.216-3.9-0.45c-1.066-0.267-2.767-1.033-5.1-2.3c-2.1-1.167-3.833-1.816-5.2-1.95
			c-0.833-0.1-1.833-0.317-3-0.65c-1.333-0.4-2.333-0.7-3-0.9c-1.5-0.466-3.333-0.383-5.5,0.25c-1.933,0.6-3.767,0.733-5.5,0.4
			c-0.467-0.1-1.167-0.367-2.1-0.8c-0.933-0.433-1.65-0.7-2.15-0.8c-0.433-0.067-1.067-0.033-1.9,0.1
			c-0.867,0.133-1.5,0.183-1.9,0.15c-2.467-0.133-4.483-0.467-6.05-1c-0.767-0.267-2.167-1.25-4.2-2.95
			c-1.6-1.333-3.05-1.9-4.35-1.7c-2.267,0.367-4.483,0.4-6.65,0.1c-1.833-0.2-3.217-0.367-4.15-0.5
			c-1.566-0.233-2.917-0.533-4.05-0.9c-0.967-0.367-1.717-0.633-2.25-0.8c-0.9-0.267-1.65-0.35-2.25-0.25
			c-0.333,0.066-0.65,0.217-0.95,0.45c-0.433,0.333-0.7,0.534-0.8,0.6c-0.433,0.233-1,0.4-1.7,0.5c-0.767,0.1-1.35,0.184-1.75,0.25
			c-1.767,0.333-2.767,0.517-3,0.55c-1.033,0.1-2.033,0.033-3-0.2c-0.633-0.233-1.117-0.383-1.45-0.45
			c-0.567-0.167-1.033-0.183-1.4-0.05c-0.3,0.1-0.7,0.35-1.2,0.75c-0.6,0.467-1,0.75-1.2,0.85c-2.3,1.3-4.433,2.066-6.4,2.3
			c-0.8,0.1-1.667,0-2.6-0.3c-1.066-0.434-1.9-0.75-2.5-0.95c-0.733-0.233-1.533-0.15-2.4,0.25c-0.967,0.567-1.733,0.967-2.3,1.2
			c-0.434,0.167-1.45,0.45-3.05,0.85c-1.267,0.3-2.267,0.633-3,1l-4.5,2.25c-0.466,0.167-1.066,0.233-1.8,0.2
			c-0.967-0.066-1.583-0.083-1.85-0.05c-0.467,0.066-0.917,0.3-1.35,0.7l-1.2,1c-0.4,0.267-1.5,0.767-3.3,1.5
			c-1.3,0.567-3.517,0.8-6.65,0.7c-2.967-0.133-5.133,0.217-6.5,1.05c-1.967,1.2-3.917,2.117-5.85,2.75
			c-4.233,1.567-7.466,4.217-9.7,7.95c-3.1,5.133-2.2,8.517,2.7,10.15c3.267,1.067,9.434,1.383,18.5,0.95
			C34.783-7.717,42.7-7.867,46.8-7.6C52-7.267,56.95-6.317,61.65-4.75c3.934,1.3,7.883,1.867,11.85,1.7c4.6-0.2,8.7,0.25,12.3,1.35
			C89.567-0.567,91.65,0,92.05,0c0.934,0,3.367-0.5,7.3-1.5c4.133-1.067,7.867-1.7,11.2-1.9c2.967-0.2,6.767-0.25,11.4-0.15
			c4.933-0.2,11.55-1.167,19.85-2.9c5.067-1.133,10.1-1.716,15.1-1.75c2.167-0.033,4.817,0.184,7.95,0.65
			c1.767,0.267,4.417,0.683,7.95,1.25C174.433-6.067,176.183-6.117,178.05-6.45z"/>
	</g>
</symbol>
<symbol  id="flash2.ai_x5F_0_x2F_Layer_4_x2F__x3C_Path_x3E__x5F_1_x5F_0" viewBox="0 -7.25 13.95 7.25">
	<g id="Layer_1_17_">
		
			<linearGradient id="SVGID_7_" gradientUnits="userSpaceOnUse" x1="16315.9033" y1="-133.0273" x2="16319.8291" y2="-133.0273" gradientTransform="matrix(-0.0127 0.9999 -0.9999 -0.0127 81.8237 -16322.7861)">
			<stop  offset="0" style="stop-color:#BEC5B4"/>
			<stop  offset="1" style="stop-color:#9AB3A6"/>
		</linearGradient>
		<path style="fill-rule:evenodd;clip-rule:evenodd;fill:url(#SVGID_7_);" d="M13.95-3.65c0-1-0.684-1.85-2.05-2.55
			c-1.367-0.7-3.017-1.05-4.95-1.05c-1.934,0-3.567,0.35-4.9,1.05C0.683-5.5,0-4.65,0-3.65S0.683-1.8,2.05-1.1
			C3.383-0.367,5.017,0,6.95,0c1.933,0,3.583-0.367,4.95-1.1C13.267-1.8,13.95-2.65,13.95-3.65z"/>
	</g>
</symbol>
<symbol  id="flash2.ai_x5F_0_x2F_Layer_4_x2F__x3C_Path_x3E__x5F_2" viewBox="0 -4.5 7.75 4.5">
	<g id="Layer_1_16_">
		
			<linearGradient id="SVGID_8_" gradientUnits="userSpaceOnUse" x1="16297.2637" y1="-108.291" x2="16299.7393" y2="-108.291" gradientTransform="matrix(-0.0101 0.9999 -0.9999 -0.0101 60.2188 -16301.6123)">
			<stop  offset="0" style="stop-color:#BEC5B4"/>
			<stop  offset="1" style="stop-color:#9AB3A6"/>
		</linearGradient>
		<path style="fill-rule:evenodd;clip-rule:evenodd;fill:url(#SVGID_8_);" d="M7.75-2.25c0-0.633-0.383-1.167-1.15-1.6
			C5.867-4.283,4.967-4.5,3.9-4.5c-1.066,0-1.983,0.217-2.75,0.65C0.383-3.417,0-2.883,0-2.25s0.383,1.167,1.15,1.6
			C1.917-0.217,2.833,0,3.9,0c1.067,0,1.967-0.217,2.7-0.65C7.367-1.083,7.75-1.617,7.75-2.25z"/>
	</g>
</symbol>
<symbol  id="flash2.ai_x5F_0_x2F_Layer_4_x2F__x3C_Path_x3E__x5F_3" viewBox="-0.002 -9.359 32.404 9.348">
	<g id="Layer_1_15_">
		
			<linearGradient id="SVGID_9_" gradientUnits="userSpaceOnUse" x1="16856.418" y1="-742.5493" x2="16862.3398" y2="-742.5493" gradientTransform="matrix(-0.0833 0.9965 -0.9965 -0.0833 681.04 -16868.4727)">
			<stop  offset="0" style="stop-color:#BEC5B4"/>
			<stop  offset="1" style="stop-color:#9AB3A6"/>
		</linearGradient>
		<path style="fill-rule:evenodd;clip-rule:evenodd;fill:url(#SVGID_9_);" d="M32.4-3.3c0.067-1.233-1.45-2.434-4.55-3.6
			c-3.1-1.133-6.9-1.883-11.4-2.25S8.117-9.4,4.95-8.8C1.717-8.2,0.067-7.283,0-6.05C-0.067-4.817,1.45-3.633,4.55-2.5
			c3.133,1.133,6.934,1.883,11.4,2.25c4.466,0.4,8.316,0.3,11.55-0.3C30.7-1.15,32.333-2.067,32.4-3.3z"/>
	</g>
</symbol>
<symbol  id="flash2.ai_x5F_0_x2F_Layer_4_x2F__x3C_Path_x3E__x5F_4" viewBox="0 -3.3 9.8 3.3">
	<g id="Layer_1_14_">
		
			<linearGradient id="SVGID_10_" gradientUnits="userSpaceOnUse" x1="16328.624" y1="-140.438" x2="16330.4238" y2="-140.438" gradientTransform="matrix(-0.0139 0.9999 -0.9999 -0.0139 91.2588 -16332)">
			<stop  offset="0" style="stop-color:#BEC5B4"/>
			<stop  offset="1" style="stop-color:#9AB3A6"/>
		</linearGradient>
		<path style="fill-rule:evenodd;clip-rule:evenodd;fill:url(#SVGID_10_);" d="M9.8-1.65c0-0.467-0.483-0.867-1.45-1.2
			C7.417-3.15,6.267-3.3,4.9-3.3S2.383-3.15,1.45-2.85C0.483-2.517,0-2.117,0-1.65S0.483-0.8,1.45-0.5C2.417-0.167,3.567,0,4.9,0
			c1.333,0,2.483-0.167,3.45-0.5C9.317-0.8,9.8-1.183,9.8-1.65z"/>
	</g>
</symbol>
<symbol  id="flash2.ai_x5F_0_x2F_Layer_4_x2F__x3C_Path_x3E__x5F_5" viewBox="0.03 -7.113 13.581 7.126">
	<g id="Layer_1_12_">
		
			<linearGradient id="SVGID_11_" gradientUnits="userSpaceOnUse" x1="14923.9668" y1="1085.8037" x2="14926.7744" y2="1085.8037" gradientTransform="matrix(0.1483 0.9889 -0.9889 0.1483 -1133.5732 -14925.707)">
			<stop  offset="0" style="stop-color:#BEC5B4"/>
			<stop  offset="1" style="stop-color:#9AB3A6"/>
		</linearGradient>
		<path style="fill-rule:evenodd;clip-rule:evenodd;fill:url(#SVGID_11_);" d="M13.6-4.9c-0.133-0.9-0.9-1.533-2.3-1.9
			C9.867-7.2,8.217-7.217,6.35-6.85s-3.417,1-4.65,1.9C0.467-4.05-0.083-3.133,0.05-2.2C0.15-1.3,0.9-0.667,2.3-0.3
			c1.434,0.4,3.083,0.417,4.95,0.05s3.417-1,4.65-1.9S13.7-3.967,13.6-4.9z"/>
	</g>
</symbol>
<symbol  id="flash2.ai_x5F_0_x2F_Layer_4_x2F__x3C_Path_x3E__x5F_6" viewBox="0 -2.905 5.9 2.91">
	<g id="Layer_1_10_">
		<path style="fill-rule:evenodd;clip-rule:evenodd;fill:#BEC5B4;" d="M5.9-1.5c0-0.4-0.283-0.733-0.85-1
			c-0.6-0.3-1.3-0.433-2.1-0.4c-0.8,0-1.5,0.15-2.1,0.45C0.283-2.15,0-1.8,0-1.4s0.3,0.733,0.9,1C1.467-0.1,2.15,0.033,2.95,0
			c0.833,0,1.533-0.15,2.1-0.45C5.617-0.75,5.9-1.1,5.9-1.5z"/>
	</g>
</symbol>
<symbol  id="flash2.ai_x5F_0_x2F_Layer_4_x2F__x3C_Path_x3E__x5F_7" viewBox="-0.005 -2.439 3.822 2.403">
	<g id="Layer_1_9_">
		<path style="fill-rule:evenodd;clip-rule:evenodd;fill:#BEC5B4;" d="M3.8-1.75c-0.033-0.3-0.267-0.5-0.7-0.6
			C2.7-2.483,2.233-2.467,1.7-2.3C1.167-2.167,0.733-1.933,0.4-1.6C0.1-1.267-0.033-0.95,0-0.65C0.067-0.383,0.3-0.2,0.7-0.1
			C1.1,0,1.567-0.017,2.1-0.15c0.533-0.167,0.967-0.4,1.3-0.7C3.733-1.15,3.867-1.45,3.8-1.75z"/>
	</g>
</symbol>
<symbol  id="flash2.ai_x5F_0_x2F_Layer_4_x2F__x3C_Path_x3E__x5F_8" viewBox="0 -1.75 2.95 1.75">
	<g id="Layer_1_8_">
		<path style="fill-rule:evenodd;clip-rule:evenodd;fill:#BEC5B4;" d="M2.95-0.9c0-0.233-0.15-0.434-0.45-0.6
			C2.233-1.667,1.883-1.75,1.45-1.75c-0.4,0-0.733,0.083-1,0.25C0.15-1.333,0-1.133,0-0.9s0.15,0.45,0.45,0.65
			C0.717-0.083,1.05,0,1.45,0C1.883,0,2.233-0.083,2.5-0.25C2.8-0.417,2.95-0.633,2.95-0.9z"/>
	</g>
</symbol>
<symbol  id="flash2.ai_x5F_0_x2F_Layer_4_x2F__x3C_Path_x3E__x5F_9" viewBox="0 -4.45 8.95 4.45">
	<g id="Layer_1_7_">
		<path style="fill-rule:evenodd;clip-rule:evenodd;fill:#BEC5B4;" d="M8.95-2.25c0-0.6-0.434-1.117-1.3-1.55
			c-0.9-0.434-1.967-0.65-3.2-0.65c-1.233,0-2.284,0.217-3.15,0.65C0.433-3.367,0-2.85,0-2.25c0,0.633,0.433,1.167,1.3,1.6
			C2.167-0.217,3.217,0,4.45,0c1.267,0,2.333-0.217,3.2-0.65C8.517-1.083,8.95-1.617,8.95-2.25z"/>
	</g>
</symbol>
<g>
	
		<use xlink:href="#flash2.ai_x5F_0_x2F_Layer_4_x2F__x3C_Path_x3E__x5F_1"  width="187.844" height="95.408" y="-95.45" transform="matrix(1 0 0 -1 0 30.5)" style="overflow:visible;opacity:0.2617;enable-background:new    ;"/>
	
		<use xlink:href="#flash2.ai_x5F_0_x2F_Layer_4_x2F__x3C_Path_x3E_"  width="182.575" height="141.486" x="-0.018" y="-141.452" transform="matrix(1 0 0 -1 3.2998 0.0498)" style="overflow:visible;opacity:0.8906;enable-background:new    ;"/>
	<g>
		
			<linearGradient id="SVGID_12_" gradientUnits="userSpaceOnUse" x1="59.5557" y1="-75.2334" x2="71.0829" y2="-75.2334" gradientTransform="matrix(-0.4403 0.8979 -0.8979 -0.4403 -3.901720e-004 -5.295873e-005)">
			<stop  offset="0" style="stop-color:#816D3F"/>
			<stop  offset="0.6353" style="stop-color:#BCB9A6"/>
			<stop  offset="1" style="stop-color:#DFE6E2"/>
		</linearGradient>
		<path style="fill-rule:evenodd;clip-rule:evenodd;fill:url(#SVGID_12_);" d="M20.65,84.5c-6.433-4-11.633-8.8-15.6-14.4
			C1.95,65.7,0.267,62,0,59c16.9,3.033,31.3,5.45,43.2,7.25c2.633,0.4,7.55,0.833,14.75,1.3c6.7,0.467,11.783,1.017,15.25,1.65
			c11.4,2,17.883,6.6,19.45,13.8c1.567,7.134,0.167,12.917-4.2,17.35c-2.2,2.233-4.55,3.75-7.05,4.551
			c-11.9,0.166-23.816-2.184-35.75-7.051C38.817,95.05,30.483,90.6,20.65,84.5z"/>
		
			<linearGradient id="SVGID_13_" gradientUnits="userSpaceOnUse" x1="61.4873" y1="-79.7246" x2="74.12" y2="-79.7246" gradientTransform="matrix(-0.3819 0.9242 -0.9242 -0.3819 4.943311e-004 2.959371e-004)">
			<stop  offset="0" style="stop-color:#82715E"/>
			<stop  offset="0.7843" style="stop-color:#CACCC5"/>
			<stop  offset="1" style="stop-color:#DFE6E2"/>
		</linearGradient>
		<path style="fill-rule:evenodd;clip-rule:evenodd;fill:url(#SVGID_13_);" d="M9.15,65.6c3.4-0.067,7.533-0.017,12.4,0.15
			c9.767,0.3,18.367,1.017,25.8,2.15c2.633,0.4,7.55,0.833,14.75,1.3c6.7,0.466,11.783,1.017,15.25,1.65c11.4,2,17.9,6.6,19.5,13.8
			c1.567,7.133,0.301,12.783-3.8,16.949c-2.066,2.067-4.283,3.434-6.65,4.101c-10.167-0.101-20.1-2.033-29.8-5.8
			c-5.7-2.2-13.583-6.15-23.65-11.851c-6.4-3.633-12.117-8.133-17.15-13.5C11.867,70.417,9.65,67.433,9.15,65.6z"/>
		
			<linearGradient id="SVGID_14_" gradientUnits="userSpaceOnUse" x1="47.3428" y1="-94.1445" x2="68.6773" y2="-94.1445" gradientTransform="matrix(-0.4336 0.9011 -0.9011 -0.4336 9.243190e-004 -4.962087e-005)">
			<stop  offset="0" style="stop-color:#82715E"/>
			<stop  offset="0.7843" style="stop-color:#CACCC5"/>
			<stop  offset="1" style="stop-color:#DFE6E2"/>
		</linearGradient>
		<path style="fill-rule:evenodd;clip-rule:evenodd;fill:url(#SVGID_14_);" d="M90.5,70.85c10.434,1.833,16.434,6.333,18,13.5
			c1.566,7.134-0.467,12.967-6.1,17.5c-2.801,2.233-5.767,3.767-8.9,4.601c-9.2-0.233-18.267-2.017-27.2-5.351
			c-7.966-2.966-15.05-6.85-21.25-11.649c-6-4.634-11.183-9.601-15.55-14.9c-3.333-4.066-5.25-6.966-5.75-8.7
			c3.4-0.067,7.55-0.017,12.45,0.15c9.767,0.333,18.35,1.05,25.75,2.15c2.733,0.4,7.5,0.817,14.3,1.25
			C82.583,69.8,87.333,70.283,90.5,70.85z"/>
		
			<linearGradient id="SVGID_15_" gradientUnits="userSpaceOnUse" x1="39.2114" y1="-109.2773" x2="56.1459" y2="-109.2773" gradientTransform="matrix(-0.4886 0.8725 -0.8725 -0.4886 7.860661e-004 9.524822e-005)">
			<stop  offset="0" style="stop-color:#816D3F"/>
			<stop  offset="0.6353" style="stop-color:#BCB9A6"/>
			<stop  offset="1" style="stop-color:#DFE6E2"/>
		</linearGradient>
		<path style="fill-rule:evenodd;clip-rule:evenodd;fill:url(#SVGID_15_);" d="M91.35,75.95c4.167,0.133,7.016,0.366,8.55,0.7
			c2.533,0.566,4.5,1.716,5.899,3.449c1.601,1.967,2.851,5,3.75,9.101c1.566,7.133,1.934,11.684,1.101,13.649
			c-0.4,0.967-0.967,1.233-1.7,0.801c-9.033,3.166-17.233,3.75-24.6,1.75c-4.2-1.134-10.684-4.334-19.45-9.601
			c-6.333-3.8-11.983-8.45-16.95-13.95c-3.767-4.233-5.917-7.283-6.45-9.149l12.4,0.149c9.767,0.301,18.367,1.017,25.8,2.15
			C82.767,75.467,86.65,75.783,91.35,75.95z"/>
		<linearGradient id="SVGID_16_" gradientUnits="userSpaceOnUse" x1="129.4512" y1="91.3047" x2="134.8512" y2="80.3297">
			<stop  offset="0" style="stop-color:#816D3F"/>
			<stop  offset="0.6353" style="stop-color:#BCB9A6"/>
			<stop  offset="1" style="stop-color:#DFE6E2"/>
		</linearGradient>
		<path style="fill-rule:evenodd;clip-rule:evenodd;fill:url(#SVGID_16_);" d="M180.15,69.6c-4.801,6.567-10.867,12.583-18.2,18.05
			c-6.7,5.033-15.816,9.283-27.351,12.75c-12.899,3.866-25.767,5.716-38.6,5.55c-1-1.267-1.833-3.25-2.5-5.95
			c-1.367-5.4-1.267-11.667,0.3-18.8c1.566-7.167,8.05-11.767,19.45-13.8c3.5-0.6,8.6-1.133,15.3-1.6
			c7.2-0.5,12.117-0.95,14.75-1.35c11.867-1.767,26.267-4.167,43.2-7.2C186.233,60.117,184.116,64.233,180.15,69.6z"/>
		<linearGradient id="SVGID_17_" gradientUnits="userSpaceOnUse" x1="128.4199" y1="93.8555" x2="133.0199" y2="82.7055">
			<stop  offset="0" style="stop-color:#82715E"/>
			<stop  offset="0.7843" style="stop-color:#CACCC5"/>
			<stop  offset="1" style="stop-color:#DFE6E2"/>
		</linearGradient>
		<path style="fill-rule:evenodd;clip-rule:evenodd;fill:url(#SVGID_17_);" d="M175.1,63.05c-0.666,2.333-2.517,5.45-5.55,9.351
			c-4.399,5.666-9.75,10.3-16.05,13.899c-11.366,6.467-19.684,10.8-24.95,13c-10.733,4.5-21.1,6.8-31.1,6.9
			c-0.267-1.167-0.384-3.05-0.351-5.65c0.067-5.166,0.884-11.316,2.45-18.45c1.601-7.233,6.434-11.716,14.5-13.45
			c2.566-0.533,6.517-0.983,11.851-1.35c6.133-0.4,10.533-0.8,13.199-1.2c7.434-1.1,15.667-1.934,24.7-2.5
			C168.3,63.3,172.066,63.117,175.1,63.05z"/>
		<linearGradient id="SVGID_18_" gradientUnits="userSpaceOnUse" x1="119.3564" y1="100.0459" x2="125.9064" y2="79.6459">
			<stop  offset="0" style="stop-color:#816D3F"/>
			<stop  offset="0.6353" style="stop-color:#BCB9A6"/>
			<stop  offset="1" style="stop-color:#DFE6E2"/>
		</linearGradient>
		<path style="fill-rule:evenodd;clip-rule:evenodd;fill:url(#SVGID_18_);" d="M103.6,69.1c3.4-1.067,10.367-1.983,20.9-2.75
			c7.434-1.1,16.033-1.8,25.8-2.1c4.867-0.167,9-0.217,12.4-0.15c-0.5,1.7-2.417,4.583-5.75,8.65c-4.367,5.3-9.55,10.267-15.55,14.9
			c-15.233,11.8-30.717,17.899-46.45,18.3c-0.9-1.033-1.65-2.783-2.25-5.25c-1.167-4.934-0.967-10.967,0.6-18.101
			C94.934,75.233,98.366,70.733,103.6,69.1z"/>
		<linearGradient id="SVGID_19_" gradientUnits="userSpaceOnUse" x1="105.3242" y1="89.7344" x2="115.7742" y2="77.7094">
			<stop  offset="0" style="stop-color:#82715E"/>
			<stop  offset="0.7843" style="stop-color:#CACCC5"/>
			<stop  offset="1" style="stop-color:#DFE6E2"/>
		</linearGradient>
		<path style="fill-rule:evenodd;clip-rule:evenodd;fill:url(#SVGID_19_);" d="M104.05,74.75c7.434-1.134,16.033-1.85,25.8-2.15
			c4.867-0.166,9-0.216,12.4-0.149c-0.667,2.3-2.667,5.649-6,10.05c-4.733,6.134-10.217,11.066-16.45,14.8
			c-6.1,3.667-11.316,6.05-15.649,7.15c-3.101,0.8-6.867,1.133-11.3,1c-0.167-0.267-0.367-1.267-0.6-3
			c-0.5-3.5-0.917-8.934-1.25-16.3c-0.033-0.801-0.25-2.517-0.65-5.15c-0.2-1.366-0.1-2.333,0.3-2.9
			C91.45,77.066,95.917,75.95,104.05,74.75z"/>
		<linearGradient id="SVGID_20_" gradientUnits="userSpaceOnUse" x1="63.6626" y1="89.7637" x2="130.4376" y2="89.7637">
			<stop  offset="0" style="stop-color:#DFE6E2"/>
			<stop  offset="0.2" style="stop-color:#BBB9AF"/>
			<stop  offset="0.498" style="stop-color:#82715E"/>
			<stop  offset="0.6118" style="stop-color:#948878"/>
			<stop  offset="0.8627" style="stop-color:#C3C3BA"/>
			<stop  offset="1" style="stop-color:#DFE6E2"/>
		</linearGradient>
		<path style="fill-rule:evenodd;clip-rule:evenodd;fill:url(#SVGID_20_);" d="M99.35,72.95l28.15,6.35
			c-5.8,10-11.983,17.384-18.55,22.15c-6.667,4.833-12.8,6.25-18.4,4.25c-4.7-1.7-10.233-5.601-16.6-11.7l-8.2-8.6L99.35,72.95z"/>
		<linearGradient id="SVGID_21_" gradientUnits="userSpaceOnUse" x1="79.3877" y1="89.5137" x2="114.1127" y2="89.5137">
			<stop  offset="0" style="stop-color:#DFE6E2"/>
			<stop  offset="0.2" style="stop-color:#BBB9AF"/>
			<stop  offset="0.498" style="stop-color:#82715E"/>
			<stop  offset="0.6118" style="stop-color:#948878"/>
			<stop  offset="0.8627" style="stop-color:#C3C3BA"/>
			<stop  offset="1" style="stop-color:#DFE6E2"/>
		</linearGradient>
		<path style="fill-rule:evenodd;clip-rule:evenodd;fill:url(#SVGID_21_);" d="M97.95,72.7l14.649,6.35
			c-3.033,10.033-6.25,17.417-9.649,22.15c-3.467,4.833-6.667,6.25-9.601,4.25c-2.433-1.7-5.316-5.601-8.649-11.7l-4.25-8.6
			L97.95,72.7z"/>
		
			<use xlink:href="#flash2.ai_x5F_0_x2F_Layer_4_x2F__x3C_Path_x3E__x5F_14"  width="182.641" height="43.941" x="0.048" y="-43.941" transform="matrix(1 0 0 -1 2.2002 49.75)" style="overflow:visible;opacity:0.3984;enable-background:new    ;"/>
		<linearGradient id="SVGID_22_" gradientUnits="userSpaceOnUse" x1="0.2969" y1="67.6914" x2="187.8652" y2="67.6914">
			<stop  offset="0" style="stop-color:#40214D"/>
			<stop  offset="0.0588" style="stop-color:#4F2755"/>
			<stop  offset="0.2431" style="stop-color:#78386C"/>
			<stop  offset="0.3922" style="stop-color:#92437B"/>
			<stop  offset="0.4784" style="stop-color:#9B4780"/>
			<stop  offset="0.5922" style="stop-color:#8D4178"/>
			<stop  offset="0.8078" style="stop-color:#673163"/>
			<stop  offset="1" style="stop-color:#40214D"/>
		</linearGradient>
		<path style="fill-rule:evenodd;clip-rule:evenodd;fill:url(#SVGID_22_);" d="M186.5,59.8c-1.033,1.667-2.366,3.567-4,5.7
			c-0.667,0.833-1.5,1.45-2.5,1.85c-1.767,0.7-2.7,1.083-2.8,1.15c-2.667,1.467-4.351,2.35-5.05,2.65
			c-1.801,0.767-3.617,1.133-5.45,1.1c-1,0-1.851,0.233-2.55,0.7c-0.567,0.399-1.233,1.1-2,2.1c-0.634,1.033-1.134,1.75-1.5,2.15
			c-0.601,0.633-1.267,0.733-2,0.3c-0.2-0.134-0.684-0.684-1.45-1.65c-0.4-0.533-1.066-0.666-2-0.399c-1.5,0.399-3.017,1.3-4.55,2.7
			c-1.467,1.366-2.601,2.883-3.4,4.55c-0.6,1.233-0.967,1.95-1.1,2.149c-0.534,0.667-1.2,0.867-2,0.601
			c-0.667-0.2-1.034-0.75-1.101-1.65c-0.066-0.967-0.283-1.566-0.649-1.8c-0.267-0.167-0.567-0.083-0.9,0.25s-0.583,0.467-0.75,0.4
			c-0.366-0.167-0.583-0.5-0.65-1c-0.066-0.534-0.166-0.867-0.3-1c-0.8-0.834-2.333-0.817-4.6,0.05c-3.066,1.2-4.684,1.8-4.851,1.8
			c-1.033,0.134-2.216-0.017-3.55-0.45c-2.033-0.7-3.149-1.066-3.35-1.1c-0.733-0.167-1.816-0.101-3.25,0.2
			c-1.467,0.333-2.584,0.399-3.351,0.199c-0.433-0.1-1.216-0.416-2.35-0.949c-1-0.434-1.8-0.684-2.4-0.75
			c-0.899-0.101-1.483,0.05-1.75,0.449c-0.267,0.667-0.566,1.284-0.899,1.851c-0.667,1.166-1.816,1.967-3.45,2.399
			c-2.033,0.534-3.333,1.051-3.9,1.551c-0.166,0.133-0.649,0.767-1.449,1.899c-0.5,0.767-1.084,1.084-1.75,0.95
			c-0.434-0.066-1.101-0.333-2-0.8c-0.7-0.334-1.4-0.45-2.101-0.351c-1.867,0.267-3.7,0.733-5.5,1.4
			c-1.8,0.667-3.716,0.934-5.75,0.8c-2.367-0.3-4.267-0.517-5.7-0.649c-1.567-0.134-3.434-0.5-5.6-1.101
			c-3.133-0.866-4.983-1.366-5.55-1.5c-2.267-0.5-3.65-0.8-4.15-0.899c-1.566-0.267-2.95-0.384-4.15-0.351
			c-1.8,0.2-3.15,0.334-4.05,0.4c-1.5,0.133-2.85-0.033-4.05-0.5c-1.566-0.5-2.733-0.9-3.5-1.2c-1.367-0.5-2.5-1.116-3.4-1.85
			c-1.367-1.067-2.367-1.733-3-2c-0.833-0.367-1.983-0.567-3.45-0.601c-0.967-0.033-2.067-0.316-3.3-0.85
			c-1.533-0.667-2.6-1.066-3.2-1.2c-0.367-0.066-1.117-0.3-2.25-0.7c-0.967-0.333-1.733-0.517-2.3-0.55
			c-0.5,0-1.217,0.184-2.15,0.55c-0.9,0.334-1.617,0.483-2.15,0.45c-0.934-0.033-1.767-0.35-2.5-0.95
			c-1.033-0.866-1.767-1.399-2.2-1.6c-0.066-0.033-0.933-0.066-2.6-0.101c-0.966-0.033-1.583-0.649-1.85-1.85
			c-1.4,0.533-3.067,0.033-5-1.5c-1.567-1.233-2.883-2.717-3.95-4.45c-1.767-2.867-2.8-5.333-3.1-7.4
			c-0.467-2.967,0.65-4.867,3.35-5.7c3.367-1.067,9.733-1.383,19.1-0.95c12.066,0.533,20.233,0.667,24.5,0.4
			c5.4-0.333,10.517-1.283,15.35-2.85c4.066-1.3,8.133-1.867,12.2-1.7c4.767,0.2,9.017-0.25,12.75-1.35c3.9-1.133,6.05-1.7,6.45-1.7
			c0.967,0,3.483,0.517,7.551,1.55c4.3,1.066,8.149,1.7,11.55,1.9c3.066,0.167,7,0.2,11.8,0.1c5.066,0.2,11.884,1.183,20.45,2.95
			c5.3,1.067,10.5,1.65,15.6,1.75c2.267,0.034,5.017-0.2,8.25-0.7c1.834-0.267,4.566-0.684,8.2-1.25c3.167-0.4,5.8-0.117,7.9,0.85
			C188.267,54.033,188.634,56.4,186.5,59.8z"/>
		
			<use xlink:href="#flash2.ai_x5F_0_x2F_Layer_4_x2F__x3C_Path_x3E__x5F_12"  width="187.319" height="46.194" x="-0.066" y="-46.194" transform="matrix(1 0 0 -1 0.2998 36.9502)" style="overflow:visible;opacity:0.3008;enable-background:new    ;"/>
		
			<linearGradient id="SVGID_23_" gradientUnits="userSpaceOnUse" x1="37.6187" y1="-93.7813" x2="82.8937" y2="-93.7813" gradientTransform="matrix(2.208725e-005 1 -1 -0.001 1.736693e-004 9.336427e-005)">
			<stop  offset="0" style="stop-color:#82172B"/>
			<stop  offset="1" style="stop-color:#BF6659"/>
		</linearGradient>
		<path style="fill-rule:evenodd;clip-rule:evenodd;fill:url(#SVGID_23_);" d="M167.35,66.35c-8.533,2.6-14.3,4.233-17.3,4.9
			c-9.666,2.1-18.85,2.833-27.55,2.2c-6.533-0.434-12.533-1.584-18-3.45c-1.667-0.567-2.566-0.833-2.7-0.8
			c-0.267,0.066-0.05,0.65,0.65,1.75c1.666,2.566,0.633,5.017-3.101,7.35c-4.233,2.634-10.716,4.066-19.45,4.3
			c-9.833,0.267-18.533-0.75-26.1-3.05c-7.9-2.399-9.9-4.934-6-7.6c2.1-1.434,1.7-2.267-1.2-2.5c-0.934-0.067-4.717,0-11.35,0.2
			c-4.8,0.133-8.75,0.067-11.85-0.2c-4.8-0.367-9.05-1.233-12.75-2.6c-4.6-1.667-7.683-4.033-9.25-7.1c-1.7-3.3-0.3-5.667,4.2-7.1
			c11.1-3.467,17.3-5.383,18.6-5.75c9.066-2.5,17.066-3.967,24-4.4c5.033-0.3,10.216-1,15.55-2.1c4-0.8,8.133-1.1,12.4-0.9
			c4.767,0.2,9.017-0.25,12.75-1.35c3.9-1.133,6.05-1.7,6.45-1.7c1.067,0,3.634,0.316,7.7,0.95c4.5,0.7,8.417,1.133,11.75,1.3
			c5.533,0.333,11.367,0.583,17.5,0.75c4.667,0.2,9.75,0.716,15.25,1.55c10.834,1.633,18.983,3.283,24.45,4.95
			c4.2,1.267,8.3,3.083,12.3,5.45c3.167,1.867,3.4,4.117,0.7,6.75C182.066,60.95,176.184,63.683,167.35,66.35z"/>
		
			<use xlink:href="#flash2.ai_x5F_0_x2F_Layer_4_x2F__x3C_Path_x3E__x5F_10"  width="5.65" height="3.3" y="-3.3" transform="matrix(1 0 0 -1 127.7002 77.3496)" style="overflow:visible;opacity:0.3008;enable-background:new    ;"/>
		
			<use xlink:href="#flash2.ai_x5F_0_x2F_Layer_4_x2F__x3C_Path_x3E__x5F_9"  width="8.95" height="4.45" y="-4.45" transform="matrix(1 0 0 -1 80.75 83.5996)" style="overflow:visible;opacity:0.3008;enable-background:new    ;"/>
		
			<use xlink:href="#flash2.ai_x5F_0_x2F_Layer_4_x2F__x3C_Path_x3E__x5F_8"  width="2.95" height="1.75" y="-1.75" transform="matrix(1 0 0 -1 134 76.2002)" style="overflow:visible;opacity:0.3008;enable-background:new    ;"/>
		
			<use xlink:href="#flash2.ai_x5F_0_x2F_Layer_4_x2F__x3C_Path_x3E__x5F_7"  width="3.822" height="2.403" x="-0.005" y="-2.439" transform="matrix(1 0 0 -1 47.1499 80.1504)" style="overflow:visible;opacity:0.3008;enable-background:new    ;"/>
		
			<use xlink:href="#flash2.ai_x5F_0_x2F_Layer_4_x2F__x3C_Path_x3E__x5F_6"  width="5.9" height="2.91" y="-2.905" transform="matrix(1 0 0 -1 18.9502 71.4502)" style="overflow:visible;opacity:0.3008;enable-background:new    ;"/>
		
			<use xlink:href="#flash2.ai_x5F_0_x2F_Layer_4_x2F__x3C_Compound_Path_x3E__x5F_1"  width="70.019" height="24.174" x="-0.163" y="-24.171" transform="matrix(1 0 0 -1 63.3501 42.5)" style="overflow:visible;opacity:0.2695;enable-background:new    ;"/>
		
			<use xlink:href="#flash2.ai_x5F_0_x2F_Layer_4_x2F__x3C_Path_x3E__x5F_5"  width="13.581" height="7.126" x="0.03" y="-7.113" transform="matrix(1 0 0 -1 4.7998 56.7002)" style="overflow:visible;opacity:0.3008;enable-background:new    ;"/>
		
			<use xlink:href="#flash2.ai_x5F_0_x2F_Layer_4_x2F__x3C_Compound_Path_x3E_"  width="24.822" height="9.403" x="0.039" y="-9.427" transform="matrix(1 0 0 -1 155.5498 46.25)" style="overflow:visible;opacity:0.2188;enable-background:new    ;"/>
		
			<use xlink:href="#flash2.ai_x5F_0_x2F_Layer_4_x2F__x3C_Path_x3E__x5F_4"  width="9.8" height="3.3" y="-3.3" transform="matrix(1 0 0 -1 98.5 38.9502)" style="overflow:visible;opacity:0.2617;enable-background:new    ;"/>
		
			<use xlink:href="#flash2.ai_x5F_0_x2F_Layer_4_x2F__x3C_Path_x3E__x5F_3"  width="32.404" height="9.348" x="-0.002" y="-9.359" transform="matrix(1 0 0 -1 33.25 42.8999)" style="overflow:visible;opacity:0.2188;enable-background:new    ;"/>
		
			<use xlink:href="#flash2.ai_x5F_0_x2F_Layer_4_x2F__x3C_Path_x3E__x5F_2"  width="7.75" height="4.5" y="-4.5" transform="matrix(1 0 0 -1 156.5 61.2002)" style="overflow:visible;opacity:0.4805;enable-background:new    ;"/>
		
			<use xlink:href="#flash2.ai_x5F_0_x2F_Layer_4_x2F__x3C_Path_x3E__x5F_1_x5F_0"  width="13.95" height="7.25" y="-7.25" transform="matrix(1 0 0 -1 61.0498 73.0498)" style="overflow:visible;opacity:0.4805;enable-background:new    ;"/>
		
			<use xlink:href="#flash2.ai_x5F_0_x2F_Layer_4_x2F__x3C_Path_x3E__x5F_0"  width="3.35" height="2.4" y="-2.4" transform="matrix(1 0 0 -1 75.8501 77.4004)" style="overflow:visible;opacity:0.4805;enable-background:new    ;"/>
	</g>
</g>
</svg>
