<?xml version="1.0" encoding="iso-8859-1"?>
<!-- Generator: Adobe Illustrator 15.1.0, SVG Export Plug-In . SVG Version: 6.00 Build 0)  -->
<!DOCTYPE svg PUBLIC "-//W3C//DTD SVG 1.1//EN" "http://www.w3.org/Graphics/SVG/1.1/DTD/svg11.dtd">
<svg version="1.1" id="Layer_4" xmlns="http://www.w3.org/2000/svg" xmlns:xlink="http://www.w3.org/1999/xlink" x="0px" y="0px"
	 width="261.05px" height="253.3px" viewBox="0 0 261.05 253.3" style="enable-background:new 0 0 261.05 253.3;"
	 xml:space="preserve">
<symbol  id="flash2.ai_x5F_3_x2F_Layer_4_x2F__x3C_Path_x3E_" viewBox="0 -32.75 13.5 32.75">
	<g id="Layer_1_9_">
		
			<linearGradient id="SVGID_1_" gradientUnits="userSpaceOnUse" x1="18170.5469" y1="-13304.7656" x2="18181.1426" y2="-13304.7656" gradientTransform="matrix(-0.9533 0.302 -0.302 -0.9533 13311.5703 -18188.3438)">
			<stop  offset="0" style="stop-color:#A48058"/>
			<stop  offset="0.5608" style="stop-color:#6C4D2C"/>
			<stop  offset="1" style="stop-color:#45290D"/>
		</linearGradient>
		<path style="fill-rule:evenodd;clip-rule:evenodd;fill:url(#SVGID_1_);" d="M6.25-18.75c1.367,1.667,2.567,3.917,3.6,6.75
			c0.533,1.4,0.917,2.65,1.15,3.75c1,3,1.833,5.75,2.5,8.25c0-3.5-0.583-7.25-1.75-11.25c-0.7-2.433-2.133-5.383-4.3-8.85
			C6.317-21.967,4.833-24.35,3-27.25l-3-5.5c0.5,1.667,1.133,3.5,1.9,5.5C3.433-23.25,4.883-20.417,6.25-18.75z"/>
	</g>
</symbol>
<symbol  id="flash2.ai_x5F_3_x2F_Layer_4_x2F__x3C_Path_x3E__x5F_1" viewBox="0 -6 24.25 6">
	<g id="Layer_1_8_">
		
			<linearGradient id="SVGID_2_" gradientUnits="userSpaceOnUse" x1="18161.2051" y1="-13332.4355" x2="18208.9141" y2="-13332.4355" gradientTransform="matrix(-0.9537 0.3008 -0.3008 -0.9537 13324.8838 -18181.4277)">
			<stop  offset="0" style="stop-color:#A48058"/>
			<stop  offset="0.5608" style="stop-color:#6C4D2C"/>
			<stop  offset="1" style="stop-color:#45290D"/>
		</linearGradient>
		<path style="fill-rule:evenodd;clip-rule:evenodd;fill:url(#SVGID_2_);" d="M0-6c1,0.667,2.183,1.367,3.55,2.1
			C6.317-2.4,8.633-1.433,10.5-1c3,0.667,7.583,1,13.75,1C21.75-0.833,19-1.25,16-1.25c-1.867,0-5.1-0.8-9.7-2.4
			C4.033-4.417,1.933-5.2,0-6z"/>
	</g>
</symbol>
<symbol  id="flash2.ai_x5F_3_x2F_Layer_4_x2F__x3C_Path_x3E__x5F_2" viewBox="0 -29.25 54.5 29.25">
	<g id="Layer_1_7_">
		
			<linearGradient id="SVGID_3_" gradientUnits="userSpaceOnUse" x1="18140.1602" y1="-13326.374" x2="18236.7578" y2="-13326.374" gradientTransform="matrix(-0.9537 0.3007 -0.3007 -0.9537 13325.3643 -18181.1777)">
			<stop  offset="0" style="stop-color:#A48058"/>
			<stop  offset="0.5608" style="stop-color:#6C4D2C"/>
			<stop  offset="1" style="stop-color:#45290D"/>
		</linearGradient>
		<path style="fill-rule:evenodd;clip-rule:evenodd;fill:url(#SVGID_3_);" d="M50.35-5.65C52.15-3.583,53.533-1.7,54.5,0
			c-0.5-1.133-1.317-2.517-2.45-4.15c-2.3-3.3-5.066-6.25-8.3-8.85s-8.133-4.733-14.7-6.4c-6.767-1.333-11.033-2.2-12.8-2.6
			c-2.2-0.533-5.567-1.9-10.1-4.1C3.883-27.2,1.833-28.25,0-29.25c2.133,1.5,4.483,3.033,7.05,4.6c5.167,3.167,8.9,4.967,11.2,5.4
			c1.833,0.333,4.617,0.717,8.35,1.15c3.667,0.633,7.633,1.833,11.9,3.6S46.717-9.783,50.35-5.65z"/>
	</g>
</symbol>
<symbol  id="flash2.ai_x5F_3_x2F_Layer_4_x2F__x3C_Path_x3E__x5F_3" viewBox="0 -169.4 115 169.4">
	<g id="Layer_1_6_">
		
			<linearGradient id="SVGID_4_" gradientUnits="userSpaceOnUse" x1="15258.3301" y1="-16444.6133" x2="15408.252" y2="-16444.6133" gradientTransform="matrix(-0.9987 -0.0512 0.096 -0.9964 16887.3965 -15688.1934)">
			<stop  offset="0" style="stop-color:#A48058"/>
			<stop  offset="0.5608" style="stop-color:#6C4D2C"/>
			<stop  offset="1" style="stop-color:#45290D"/>
		</linearGradient>
		<path style="fill-rule:evenodd;clip-rule:evenodd;fill:url(#SVGID_4_);" d="M115,0c-1.133-3.933-2.733-8.433-4.8-13.5
			c-4.067-10.167-8.333-18.15-12.8-23.95c-4.533-5.933-9.1-10.716-13.7-14.35c-5.1-3.534-8.934-6.233-11.5-8.1
			c-7.267-5.4-12.034-9.017-14.3-10.85c-5.9-4.833-9.533-8.6-10.9-11.3c-1-2-2.05-5.65-3.15-10.95c-1.233-6-2.65-11.033-4.25-15.1
			c-2-5.066-4.633-9.783-7.9-14.15c-0.9-1.2-3.767-4.567-8.6-10.1c-2.633-3.066-4.684-5.783-6.15-8.15
			c-1.267-2.133-3.133-5.8-5.6-11c-2-4.2-4.483-8.433-7.45-12.7c-1.5-2.167-2.8-3.9-3.9-5.2c2.033,3.333,4.233,7.167,6.6,11.5
			c4.7,8.6,7.867,15.3,9.5,20.1c1.467,4.3,4.15,9.167,8.05,14.6c4.6,6.367,7.5,10.8,8.7,13.3c1,2,1.9,4.933,2.7,8.8
			c0.867,4.633,1.567,8.167,2.1,10.6c2,9.033,5.083,15.3,9.25,18.8c2.033,1.733,5.733,4.184,11.1,7.35
			c7.767,4.567,12.75,7.55,14.95,8.95c13.233,8.5,22.267,17.15,27.1,25.95c5,9.067,9,16.7,12,22.9C113.517-3.45,114.5-1.267,115,0z"
			/>
	</g>
</symbol>
<symbol  id="flash2.ai_x5F_3_x2F_Layer_4_x2F__x3C_Path_x3E__x5F_4" viewBox="0 -23.6 18.2 23.6">
	<g id="Layer_1_5_">
		
			<linearGradient id="SVGID_5_" gradientUnits="userSpaceOnUse" x1="15311.1133" y1="-16520.5391" x2="15360.8535" y2="-16520.5391" gradientTransform="matrix(-0.9987 -0.0513 0.0958 -0.9964 16885.625 -15687.6699)">
			<stop  offset="0" style="stop-color:#A89A8A"/>
			<stop  offset="0.3882" style="stop-color:#86776C"/>
			<stop  offset="1" style="stop-color:#4A3836"/>
		</linearGradient>
		<path style="fill-rule:evenodd;clip-rule:evenodd;fill:url(#SVGID_5_);" d="M18.2-18.7l-3.4-4.9C14.267-17,11.633-11.083,6.9-5.85
			C4.567-3.25,2.267-1.3,0,0c5.5-1.267,10.183-4.767,14.05-10.5C15.983-13.367,17.367-16.1,18.2-18.7z"/>
	</g>
</symbol>
<symbol  id="flash2.ai_x5F_3_x2F_Layer_4_x2F__x3C_Path_x3E__x5F_5" viewBox="0 -20.35 18.75 20.35">
	<g id="Layer_1_4_">
		
			<linearGradient id="SVGID_6_" gradientUnits="userSpaceOnUse" x1="15309.7451" y1="-16520.043" x2="15360.2354" y2="-16520.043" gradientTransform="matrix(-0.9987 -0.051 0.0958 -0.9964 16886.207 -15689.8926)">
			<stop  offset="0" style="stop-color:#A89A8A"/>
			<stop  offset="0.3882" style="stop-color:#86776C"/>
			<stop  offset="1" style="stop-color:#4A3836"/>
		</linearGradient>
		<path style="fill-rule:evenodd;clip-rule:evenodd;fill:url(#SVGID_6_);" d="M0,0c2.233-0.267,4.7-1.2,7.4-2.8
			c5.367-3.233,9.15-8.284,11.35-15.15l-0.7-2.4c-0.867,2.867-2.267,5.867-4.2,9C9.95-5.083,5.333-1.3,0,0z"/>
	</g>
</symbol>
<symbol  id="flash2.ai_x5F_3_x2F_Layer_4_x2F__x3C_Path_x3E__x5F_6" viewBox="0 -13 12.75 13.002">
	<g id="Layer_1_3_">
		
			<linearGradient id="SVGID_7_" gradientUnits="userSpaceOnUse" x1="15315.3535" y1="-16524.2266" x2="15350.124" y2="-16524.2266" gradientTransform="matrix(-0.9987 -0.051 0.0956 -0.9964 16884.3125 -15689.5674)">
			<stop  offset="0" style="stop-color:#A89A8A"/>
			<stop  offset="0.3882" style="stop-color:#86776C"/>
			<stop  offset="1" style="stop-color:#4A3836"/>
		</linearGradient>
		<path style="fill-rule:evenodd;clip-rule:evenodd;fill:url(#SVGID_7_);" d="M0,0c1.833,0.033,3.733-0.483,5.7-1.55
			C9.667-3.717,12.017-7.533,12.75-13c-0.467,1.533-1.35,3.233-2.65,5.1C7.5-4.167,4.133-1.533,0,0z"/>
	</g>
</symbol>
<symbol  id="flash2.ai_x5F_3_x2F_Layer_4_x2F__x3C_Path_x3E__x5F_7" viewBox="0.02 -212.35 131.93 212.351">
	<g id="Layer_1_2_">
		
			<linearGradient id="SVGID_8_" gradientUnits="userSpaceOnUse" x1="10841.1611" y1="-18854.2031" x2="10909.6113" y2="-18854.2031" gradientTransform="matrix(-0.8817 -0.4719 0.5113 -0.8606 19293.4043 -11201.2939)">
			<stop  offset="0" style="stop-color:#A48058"/>
			<stop  offset="0.5608" style="stop-color:#6C4D2C"/>
			<stop  offset="1" style="stop-color:#45290D"/>
		</linearGradient>
		<path style="fill-rule:evenodd;clip-rule:evenodd;fill:url(#SVGID_8_);" d="M131.95-0.15c-0.367-1.934-1.583-4.417-3.65-7.45
			c-2.533-3.733-4.05-6.15-4.55-7.25c-3.2-7.2-5.783-12.667-7.75-16.4c-2.867-5.4-6.533-10.5-11-15.3
			c-4.667-5.034-9.517-8.983-14.55-11.85c-6.9-3.434-12.083-6.1-15.55-8c-6.233-3.367-10.767-6.85-13.6-10.45
			c-2.767-3.566-6.85-8.667-12.25-15.3c-4.466-5.867-7.95-11.367-10.45-16.5c-2.8-5.7-6.184-10.8-10.15-15.3
			c-1.3-1.5-2.817-3.55-4.55-6.15c-2.1-3.066-3.566-5.15-4.4-6.25c-1.133-1.333-1.983-2.217-2.55-2.65
			c1.9-0.133,4.033,0.917,6.4,3.15c2.433,2.7,4.217,4.467,5.35,5.3c2.733,2.033,7.267,7.433,13.6,16.2
			c-0.1-1.333-1.583-4.483-4.45-9.45c-1.5-2.6-3.35-5.684-5.55-9.25c-0.566-1.034-1.783-2.583-3.65-4.65
			c-1.7-1.867-2.833-3.45-3.4-4.75c-0.433-1-2-5.1-4.7-12.3c-0.033-0.133-0.283-1.117-0.75-2.95c-0.267-1.233-0.617-2.15-1.05-2.75
			c-0.3-0.433-1.033-1.183-2.2-2.25c-0.867-0.8-1.45-1.65-1.75-2.55c-0.566-1.767-0.617-5.017-0.15-9.75
			c0.067-0.667,0.4-1.95,1-3.85c0.5-1.633,0.7-2.917,0.6-3.85c-0.1-0.867-0.5-2.167-1.2-3.9c-0.767-1.9-1.233-3.233-1.4-4
			c-0.367-1.633-0.833-4.25-1.4-7.85c-0.4-1.933-1.05-4.283-1.95-7.05c-1.2-3.8-1.9-6.083-2.1-6.85l-1.1,2.15
			c-2.033,22.5-3.567,39.383-4.6,50.65c-0.3,4.133-0.533,7.25-0.7,9.35c-0.3,3.733-0.733,6.85-1.3,9.35
			c-0.4,1.733-0.55,4.233-0.45,7.5c0.1,3.167,0.367,5.717,0.8,7.65c4.1,2.067,7.217,3.667,9.35,4.8c3.767,2,6.9,4.017,9.4,6.05
			c5.1,4.2,11.333,12.083,18.7,23.65c7.333,11.567,13.65,19.5,18.95,23.8c3,2.433,7.433,4.9,13.3,7.4
			c6.6,2.833,11.117,5.033,13.55,6.6c12.2,7.967,21.75,17.017,28.65,27.15c1.433,2.1,2.817,4.867,4.15,8.3
			c0.733,1.934,1.85,4.85,3.35,8.75c1.567,3.567,3,5.967,4.3,7.2C126.383-0.3,128.85,0.317,131.95-0.15z"/>
	</g>
</symbol>
<g>
	<g>
		
			<linearGradient id="SVGID_9_" gradientUnits="userSpaceOnUse" x1="-177.2715" y1="-83.0098" x2="-123.2932" y2="-83.0098" gradientTransform="matrix(-0.9999 -0.0111 0.0111 -0.9999 3.695674e-004 4.755668e-004)">
			<stop  offset="0" style="stop-color:#66542E"/>
			<stop  offset="0.1137" style="stop-color:#4F402F"/>
			<stop  offset="0.2392" style="stop-color:#3F3130"/>
			<stop  offset="0.3804" style="stop-color:#362930"/>
			<stop  offset="0.5725" style="stop-color:#332630"/>
		</linearGradient>
		<path style="fill-rule:evenodd;clip-rule:evenodd;fill:url(#SVGID_9_);" d="M162.65,69.25c1.466-2.567,2.383-4.517,2.75-5.85
			c0.1-0.233,0.6-0.217,1.5,0.05c0.466,0.133,0.916,0.283,1.35,0.45l-1.55,3.9c-1.467,3.2-3.283,6.267-5.45,9.2
			c-3.667,4.933-8.35,8.633-14.05,11.1c-3.533,1.533-9.434,3.167-17.7,4.9c-4.067,0.867-9.767,3.067-17.1,6.6
			c-7.033,3.633-11.167,5.683-12.4,6.15l15.8-19.2l3.85-0.5c3.3-0.367,6.733-0.566,10.3-0.6c5.899-0.1,10.6-0.617,14.1-1.55
			c3.7-1,7.267-2.783,10.7-5.35C157.684,76.383,160.316,73.283,162.65,69.25z"/>
		
			<linearGradient id="SVGID_10_" gradientUnits="userSpaceOnUse" x1="-87.748" y1="-85.7046" x2="-66.1466" y2="-85.7046" gradientTransform="matrix(-0.9999 -0.0116 0.0116 -0.9999 3.405642e-004 -4.471280e-004)">
			<stop  offset="0" style="stop-color:#66542E"/>
			<stop  offset="0.1137" style="stop-color:#4F402F"/>
			<stop  offset="0.2392" style="stop-color:#3F3130"/>
			<stop  offset="0.3804" style="stop-color:#362930"/>
			<stop  offset="0.5725" style="stop-color:#332630"/>
		</linearGradient>
		<path style="fill-rule:evenodd;clip-rule:evenodd;fill:url(#SVGID_10_);" d="M83,63.25c0.9,3.8,0.833,8.017-0.2,12.65
			c-1.066,4.733-3,9.184-5.8,13.35c-2.9,4.367-4.65,8.35-5.25,11.95c-0.3,1.8-0.3,3.15,0,4.05L56,110c0.3-4.3,3.167-9.617,8.6-15.95
			c0.033-0.066,2.267-2.566,6.7-7.5c2.534-2.833,4.35-5.1,5.45-6.8c2.3-3.533,3.617-7.383,3.95-11.55L80.5,63L83,63.25z"/>
		
			<linearGradient id="SVGID_11_" gradientUnits="userSpaceOnUse" x1="-27.7095" y1="-161.373" x2="62.4053" y2="-161.373" gradientTransform="matrix(-0.8817 0.4719 -0.5114 -0.8605 7.231236e-004 -1.965165e-004)">
			<stop  offset="0" style="stop-color:#373132"/>
			<stop  offset="0.1608" style="stop-color:#352B31"/>
			<stop  offset="0.4275" style="stop-color:#332630"/>
		</linearGradient>
		<path style="fill-rule:evenodd;clip-rule:evenodd;fill:url(#SVGID_11_);" d="M126.45,40.7c2.9,1.466,6.684,1.5,11.35,0.1
			c1.467-0.466,2.351-0.533,2.65-0.2c0.399,0.467,0.233,1.833-0.5,4.1c-2.434,7.533-5.816,15.7-10.15,24.5
			c-4.833,9.8-9.4,17.316-13.7,22.55c-2.867,3.533-6.617,7.217-11.25,11.05c-1,0.8-5.2,4.067-12.6,9.8
			c-10.6,8.167-17.867,15.784-21.8,22.85c-1.667,3-3.583,8.416-5.75,16.25c-2,7.233-4.15,12.583-6.45,16.05
			c-1.4,2.134-4.533,5.8-9.4,11c-4.1,4.4-6.967,8.316-8.6,11.75c-3.767,7.833-6.55,13.434-8.35,16.8
			c-3.267,5.967-6.6,11.217-10,15.75c-4.233,5.634-7.367,10.983-9.4,16.05c-0.833,2.134-2.267,6.867-4.3,14.2l-1.1-2.149
			c-2.033-22.5-3.567-39.384-4.6-50.65c-0.3-4.134-0.533-7.25-0.7-9.35c-0.3-3.733-0.733-6.851-1.3-9.351
			c-0.367-1.633-0.45-3.967-0.25-7c0.133-2.633,0.433-5.017,0.9-7.149c2.5-2.634,5.65-4.867,9.45-6.7
			c4.433-2.167,7.433-3.884,9-5.15c5.1-4.2,11.333-12.083,18.7-23.649c7.333-11.567,13.65-19.5,18.95-23.8
			c3-2.434,7.433-4.9,13.3-7.4c6.6-2.833,11.117-5.034,13.55-6.6c12.2-7.967,21.75-17.017,28.65-27.15
			c1.733-2.534,3.817-7.15,6.25-13.85C121.067,47.75,123.55,43.533,126.45,40.7z"/>
		
			<use xlink:href="#flash2.ai_x5F_3_x2F_Layer_4_x2F__x3C_Path_x3E__x5F_7"  width="131.93" height="212.351" x="0.02" y="-212.35" transform="matrix(1 0 0 -1 0 40.9502)" style="overflow:visible;opacity:0.1406;enable-background:new    ;"/>
		
			<use xlink:href="#flash2.ai_x5F_3_x2F_Layer_4_x2F__x3C_Path_x3E__x5F_6"  width="12.75" height="13.002" y="-13" transform="matrix(1 0 0 -1 56.2998 117.0498)" style="overflow:visible;opacity:0.4219;enable-background:new    ;"/>
		
			<use xlink:href="#flash2.ai_x5F_3_x2F_Layer_4_x2F__x3C_Path_x3E__x5F_5"  width="18.75" height="20.35" y="-20.35" transform="matrix(1 0 0 -1 48.75 123)" style="overflow:visible;opacity:0.4219;enable-background:new    ;"/>
		
			<use xlink:href="#flash2.ai_x5F_3_x2F_Layer_4_x2F__x3C_Path_x3E__x5F_4"  width="18.2" height="23.6" y="-23.6" transform="matrix(1 0 0 -1 26.5 163.5996)" style="overflow:visible;opacity:0.4219;enable-background:new    ;"/>
		
			<use xlink:href="#flash2.ai_x5F_3_x2F_Layer_4_x2F__x3C_Path_x3E__x5F_3"  width="115" height="169.4" y="-169.4" transform="matrix(1 0 0 -1 22.0498 48)" style="overflow:visible;opacity:0.1406;enable-background:new    ;"/>
		
			<use xlink:href="#flash2.ai_x5F_3_x2F_Layer_4_x2F__x3C_Path_x3E__x5F_2"  width="54.5" height="29.25" y="-29.25" transform="matrix(1 0 0 -1 110.5 70.5)" style="overflow:visible;opacity:0.1406;enable-background:new    ;"/>
		
			<use xlink:href="#flash2.ai_x5F_3_x2F_Layer_4_x2F__x3C_Path_x3E__x5F_1"  width="24.25" height="6" y="-6" transform="matrix(1 0 0 -1 118.75 85.5)" style="overflow:visible;opacity:0.1406;enable-background:new    ;"/>
		
			<use xlink:href="#flash2.ai_x5F_3_x2F_Layer_4_x2F__x3C_Path_x3E_"  width="13.5" height="32.75" y="-32.75" transform="matrix(1 0 0 -1 70 67.75)" style="overflow:visible;opacity:0.1406;enable-background:new    ;"/>
	</g>
	
		<radialGradient id="SVGID_12_" cx="65.1001" cy="108.75" r="61.8875" gradientTransform="matrix(1 0 0 -0.8166 0 197.5555)" gradientUnits="userSpaceOnUse">
		<stop  offset="0.2235" style="stop-color:#DED2C6"/>
		<stop  offset="0.3804" style="stop-color:#D4CABF"/>
		<stop  offset="0.6392" style="stop-color:#BAB3AA"/>
		<stop  offset="0.9725" style="stop-color:#8F8E8A"/>
		<stop  offset="1" style="stop-color:#8B8B87"/>
	</radialGradient>
	<path style="fill-rule:evenodd;clip-rule:evenodd;fill:url(#SVGID_12_);" d="M108.25,47.75c1.7,1.2,2.617,2.9,2.75,5.1
		c0.067,1.333-0.233,3.433-0.9,6.3c-0.683,2.794-1,4.836-0.95,6.125c-0.209-3.202-0.476-5.144-0.8-5.825
		c-0.352,5.155-0.535,8.764-0.55,10.825c-0.033-1.323-0.133-2.915-0.3-4.775c-0.267-2.6-0.467-4.533-0.6-5.8v5.15
		c-0.233-1.3-0.783-3.383-1.65-6.25c0,0.066-0.083,1.167-0.25,3.3c-0.094,1.259-0.203,2.293-0.325,3.1
		c-0.093-0.453-0.384-1.919-0.875-4.4c-0.2,1-0.35,2.05-0.45,3.15c-0.434-1.033-0.617-2.3-0.55-3.8
		c-0.233,0.433-0.917,1.35-2.05,2.75c-0.867,1.066-1.467,2.133-1.8,3.2c0.167-1.033,0.483-2.583,0.95-4.65
		c-0.933,2-1.433,3.067-1.5,3.2c-0.533,1.3-0.816,2.6-0.85,3.9V63.1c-0.566,2.233-0.95,4.75-1.15,7.55
		c-0.175,2.625-0.158,5.033,0.05,7.225c-0.242-2.121-0.392-4.646-0.45-7.575c-0.033-3.833-0.083-6.716-0.15-8.65
		c-0.1,0.267-0.35,1.017-0.75,2.25c-0.3,0.967-0.567,1.667-0.8,2.1c0-1.8-0.083-3.117-0.25-3.95c-0.5,0.934-0.883,1.617-1.15,2.05
		c-0.433,0.733-0.883,1.183-1.35,1.35c0-0.133-0.017-0.684-0.05-1.65c-0.667,0.667-1.183,1.917-1.55,3.75
		c-0.266,1.388-0.416,2.838-0.45,4.35c-0.003-1.108-0.104-2.575-0.3-4.4c-0.233-2.233-0.35-3.883-0.35-4.95
		c0,0.534-0.083,2.883-0.25,7.05c-0.064,1.382-0.073,2.64-0.025,3.775c-0.336-2.923-0.627-5.215-0.875-6.875
		c-0.133-0.933-0.45-1.767-0.95-2.5c-0.5-0.767-0.817-1.5-0.95-2.2c-0.367,0.8-0.733,1.383-1.1,1.75
		c-0.267-0.533-0.417-1.1-0.45-1.7c-0.367,0.7-0.65,1.35-0.85,1.95c-0.1-0.7-0.15-1.25-0.15-1.65c-0.133,0.367-0.433,1.017-0.9,1.95
		c-0.434,0.833-0.717,1.533-0.85,2.1c-0.2,0.733-0.333,1.783-0.4,3.15c-0.133,1.667-0.233,2.733-0.3,3.2
		c-0.1-0.367-0.15-1.233-0.15-2.6c-0.033-1.2-0.183-1.983-0.45-2.35c-0.233-0.3-0.55-0.184-0.95,0.35c-0.367,0.466-0.7,0.383-1-0.25
		c-0.2,0.333-0.667,0.767-1.4,1.3c-0.533,0.4-0.917,1.033-1.15,1.9c-1.1,3.533-1.583,8.067-1.45,13.6c-0.5-3.567-0.833-6.267-1-8.1
		c-0.033-1.467-0.067-2.667-0.1-3.6c-0.1-1.8-0.3-2.9-0.6-3.3c-0.6-0.833-0.933,0.017-1,2.55c-0.066,1.333-0.066,3.034,0,5.1
		c-0.3-0.767-0.517-2.066-0.65-3.9c-0.167-1.867-0.367-3.117-0.6-3.75c-0.4-1.033-0.683-0.917-0.85,0.35
		c-0.034,0.433-0.083,1.583-0.15,3.45c-0.066,2.2-0.133,5.5-0.2,9.9c-0.1,3.933-0.283,7.216-0.55,9.85
		c0.034-1.167-0.033-2.683-0.2-4.55c-0.2-2.3-0.317-3.817-0.35-4.55c-0.033-0.767,0.033-2.534,0.2-5.3c0.133-2.3,0.1-3.983-0.1-5.05
		c-0.405,0.623-0.605,1.04-0.6,1.25c-0.201-2.374-0.384-4.157-0.55-5.35c-0.034,0.233-0.167,0.667-0.4,1.3
		c-0.167-0.433-0.283-1.066-0.35-1.9c-0.1-1.133-0.167-1.783-0.2-1.95c-0.867,1.633-1.55,3.233-2.05,4.8
		c-0.267-0.633-0.383-1.3-0.35-2c-0.1,0.3-0.25,0.917-0.45,1.85c-0.2,0.833-0.367,1.433-0.5,1.8c-0.267-1.1-0.316-2.233-0.15-3.4
		c-0.533,1.6-0.883,3.55-1.05,5.85c-0.087,1.223-0.138,2.989-0.15,5.3c-0.018-0.892-0.084-2.042-0.2-3.45
		c-0.2-2.367-0.317-3.95-0.35-4.75c-0.167,1-0.25,1.733-0.25,2.2l-0.65-3.2c-0.167,0.233-0.434,0.783-0.8,1.65
		c-0.333,0.7-0.617,1.15-0.85,1.35l-0.05-1c-1.4,2.466-2.316,4.533-2.75,6.2c-0.1-0.967-0.183-1.7-0.25-2.2
		c-0.133-0.867-0.283-1.567-0.45-2.1c-0.167,0.233-0.383,0.7-0.65,1.4c-0.267,0.7-0.483,1.167-0.65,1.4l-0.05-1.3
		c-0.267,0.833-0.684,2.467-1.25,4.9c-0.533,2.4-0.95,4.05-1.25,4.95c-0.233-0.967-0.317-2.117-0.25-3.45
		c-0.267,1.567-0.317,3.717-0.15,6.45c0.2,3.133,0.267,5.267,0.2,6.4c-0.267-1-0.517-2.533-0.75-4.6
		c-0.167-2.3-0.316-3.933-0.45-4.9c-0.567-4.4-0.934-7.733-1.1-10c-0.267,1.233-0.4,2.917-0.4,5.05c0.033,1.2,0.05,3,0.05,5.4
		c-0.6-3.966-0.883-7.55-0.85-10.75c-0.133,0.2-0.367,0.467-0.7,0.8c-0.167-0.367-0.317-0.95-0.45-1.75
		c-0.167-1.067-0.283-1.717-0.35-1.95l-0.3,0.55c-0.3-1.833-0.417-3.983-0.35-6.45c-0.5,0.6-0.867,1.917-1.1,3.95
		c-0.167,1.133-0.35,2.7-0.55,4.7c-0.1-4.433-0.117-7.75-0.05-9.95c-0.5,1.466-0.8,2.383-0.9,2.75
		c-0.323,1.13-0.489,2.122-0.5,2.975l-0.05-3.575c-0.1,0.267-0.383,0.617-0.85,1.05l-0.1-1.2c-0.533,3.966-0.833,6.533-0.9,7.7
		c-0.3-1.267-0.45-3.833-0.45-7.7c-0.5,5.1-0.65,9.117-0.45,12.05c0.033,0.667,0.217,2.633,0.55,5.9
		c0.193,2.014,0.31,3.738,0.35,5.175c-0.043-0.655-0.144-1.464-0.3-2.425c-0.3-1.6-0.5-2.767-0.6-3.5
		c-0.133-1.066-0.25-2.467-0.35-4.2c-0.1-2.434-0.167-3.833-0.2-4.2c-0.167-2.967-0.3-5.2-0.4-6.7c-0.167-2.633-0.383-4.8-0.65-6.5
		c-0.5,0.8-0.733,2.833-0.7,6.1c0.034,1.767,0.083,4.067,0.15,6.9c-0.2-0.867-0.333-2-0.4-3.4c-0.133-2.033-0.216-3.217-0.25-3.55
		c-0.133-1.333-0.6-3.05-1.4-5.15c-1.133-2.9-1.733-4.483-1.8-4.75c-0.267-0.867-0.434-1.534-0.5-2c-0.1-0.667-0.1-1.383,0-2.15
		c0.267-2,0.917-3.833,1.95-5.5c0.833-1.333,1.784-2.4,2.85-3.2c4.8-3.633,9.667-5.983,14.6-7.05c3.033-0.667,6.583-1.033,10.65-1.1
		c2.367-0.034,5.934,0,10.7,0.1c5.333,0,10.7,0.333,16.1,1c3.6,0.467,6.583,1.117,8.95,1.95
		C101.5,43.567,104.783,45.317,108.25,47.75z"/>
	<g>
		
			<radialGradient id="SVGID_13_" cx="186.9004" cy="88.3501" r="170.2375" gradientTransform="matrix(-1 0 0 -0.6851 373.8008 148.8828)" gradientUnits="userSpaceOnUse">
			<stop  offset="0.4353" style="stop-color:#E0D4CA"/>
			<stop  offset="0.5725" style="stop-color:#D6CCC3"/>
			<stop  offset="0.8039" style="stop-color:#BCB7B1"/>
			<stop  offset="1" style="stop-color:#A0A09E"/>
		</radialGradient>
		<path style="fill-rule:evenodd;clip-rule:evenodd;fill:url(#SVGID_13_);" d="M251.3,14.7c8.634,5.533,11.134,11.983,7.5,19.35
			c-1.333,2.733-3.283,6.633-5.85,11.7c-1.967,4.4-3.184,8.6-3.65,12.6c-0.166,1.4-0.5,3.25-1,5.55
			c-0.633,2.833-1.033,4.684-1.2,5.55c0.534-4.534,0.9-8.1,1.101-10.7c0.399-4.733-0.066-8.083-1.4-10.05
			c-0.866,7.533-1.649,13.433-2.35,17.7c-1,6.434-2.184,12.25-3.55,17.45c-0.101-2.333,0.1-5.684,0.6-10.05
			c0.566-4.733,0.85-8.133,0.85-10.2c0-2.467-0.083-4.35-0.25-5.65c-0.267-1.9-0.783-3.684-1.55-5.35
			c0.033,2.1,0.017,3.633-0.05,4.6c-0.1,1.767-0.384,3.216-0.85,4.35c0.033-1.1-0.284-2.683-0.95-4.75
			c-0.134,0.067-0.316-0.017-0.55-0.25c0.033,1.267,0.083,3.25,0.149,5.95c0.033,2.4-0.1,4.367-0.399,5.9
			c-0.2,0.867-0.601,1.867-1.2,3c-0.8,1.4-1.316,2.4-1.55,3c-0.667,1.667-1.267,3.967-1.801,6.9c-0.733,3.867-1.216,6.233-1.449,7.1
			c-0.067-2.867,0.216-7.117,0.85-12.75c0.285-2.668,0.501-4.968,0.65-6.9c-0.146,1.388-0.347,2.821-0.601,4.3
			c-0.666,3.867-1.533,6.934-2.6,9.2l-0.351-1.15c0.067,2.3-0.216,5.283-0.85,8.95c-1.033,5.8-1.55,8.75-1.55,8.85
			c-0.066-2,0.017-6.117,0.25-12.35c0.2-5.133,0.133-9.267-0.2-12.4c-0.033-2.4-0.1-4.217-0.2-5.45c-0.166-2.2-0.767-3.85-1.8-4.95
			c-0.267,2.233-0.616,5.6-1.05,10.1c-0.4,4.066-0.95,7.417-1.65,10.05c0.033-2.733-0.217-5.9-0.75-9.5
			c-0.733-4.667-1.684-7.45-2.85-8.35c-1.834,9-3.267,17.733-4.3,26.2c-0.5-2.2-0.884-3.867-1.15-5
			c-0.434-2.067-0.616-3.783-0.55-5.15c-0.9,2.967-1.566,6.35-2,10.15c-0.269,2.167-0.428,4.176-0.476,6.025
			c-0.068-0.822-0.16-1.714-0.274-2.675c-0.434-3.767-1.066-5.983-1.9-6.65c-0.2-1-0.283-2.767-0.25-5.3
			c0.033-2.3-0.133-4.033-0.5-5.2c0.033,9.466-2.033,20.2-6.2,32.2c0.733-5.566,1.25-9.783,1.551-12.65
			c0.533-5.1,0.416-9.317-0.351-12.65c0.066,2.967-0.116,6.133-0.55,9.5c-0.434,3.533-1.05,6.617-1.85,9.25
			c0.033-9.567,0.017-15.3-0.051-17.2c-0.3-6.833-1.183-12.367-2.649-16.6c0.1,2.9-0.15,6.483-0.75,10.75
			c-0.334,2.4-0.867,5.95-1.601,10.65c-0.267-1.467-0.449-3.833-0.55-7.1c-0.1-3.167-0.316-5.533-0.649-7.1
			c0,2.467-0.017,3.933-0.051,4.4c-1.699-5.167-2.966-8.917-3.8-11.25c0.033,2.1-0.184,5.3-0.649,9.6
			c-0.534-2.9-1.784-6.35-3.75-10.35c-2.434-4.933-3.95-8.3-4.551-10.1c0,1.667,0.101,4.15,0.301,7.45
			c0.199,3.333,0.283,5.817,0.25,7.45c-0.634-1.233-1.317-2.983-2.051-5.25c-0.866-2.8-1.449-4.583-1.75-5.35
			c0.067,3.433,0.184,8.617,0.351,15.55c0,6.033-0.334,11.167-1,15.4c-0.566-2.367-0.983-5.8-1.25-10.3
			c-0.334-5.833-0.584-9.367-0.75-10.6c-0.167-1.333-0.617-3.25-1.351-5.75s-1.183-4.383-1.35-5.65
			c0.167,4.633-1.1,10.383-3.8,17.25c-0.033-2.967-0.084-5.2-0.15-6.7c-0.1-2.7-0.366-4.9-0.8-6.6c-1,1.566-1.884,3.917-2.65,7.05
			c-0.433,1.733-1.033,4.25-1.8,7.55c-1.133,3.867-1.916,7.983-2.35,12.35c-0.634-2.767-0.584-6.667,0.149-11.7
			c0.834-5.667,1.15-9.6,0.95-11.8c-0.133-2.667-0.283-4.783-0.45-6.35c-0.333-2.8-0.833-4.8-1.5-6
			c0.334,1.333,0.434,2.934,0.301,4.8c-0.134,1.7-0.434,3.25-0.9,4.65c-0.533-2.667-0.95-4.667-1.25-6c-0.5-2.367-1.2-4.267-2.1-5.7
			c-0.233,1.534-0.517,3.867-0.851,7c-0.8-1.733-1.533-4.066-2.2-7c-0.933-4.066-1.483-6.383-1.649-6.95
			c-0.033,3.333-0.55,7.45-1.55,12.35c-0.834-2.8-1.45-4.6-1.851-5.4c-0.767,2.967-1.5,6.917-2.2,11.85
			c-0.866,5.9-1.5,9.85-1.899,11.85c-0.134-5.267,0.233-11.883,1.1-19.85c0.267-2.167,0.084-4.816-0.55-7.95
			c-0.767-3.667-1.167-6.25-1.2-7.75c-0.2,0.566-0.583,2.433-1.149,5.6c-0.467,2.534-1.034,4.35-1.7,5.45l-2.75-10.05
			c-0.033,0.066-0.25,0.966-0.65,2.7c-0.267,1.133-0.816,1.684-1.649,1.65c-0.534-0.033-1.4-0.783-2.601-2.25
			c-1.2-1.633-1.934-2.633-2.2-3c-0.066,0.4-0.199,1.25-0.399,2.55c-0.167,1.066-0.334,1.883-0.5,2.45
			c-0.534-0.533-0.9-0.933-1.1-1.2c0.033,2.033-0.1,3.55-0.4,4.55c-0.467,1.567-1.333,1.583-2.6,0.05c-0.434,1.4-0.7,3.667-0.8,6.8
			c-0.1,3.167-0.35,5.433-0.75,6.8c-0.533-4.267-0.966-7.433-1.3-9.5c-0.567-3.633-1.55-6.633-2.95-9c-0.3,0.3-0.533,0.483-0.7,0.55
			c-0.467-0.667-1.033-1.717-1.7-3.15c-0.7-1.5-1.267-2.567-1.7-3.2c0.066,2.167-0.233,4.3-0.9,6.4
			c-0.667-0.333-1.283-1.066-1.85-2.2c-0.6-1.333-1.067-2.3-1.4-2.9c0.067,0.567,0.05,1.167-0.05,1.8
			c-0.033,0.367-0.133,0.917-0.3,1.65c-0.633-0.633-1-1.05-1.1-1.25c-0.3,0.8-0.667,2.017-1.1,3.65
			c-0.433,1.767-0.75,2.934-0.95,3.5c-0.066-1.267-0.25-2.533-0.55-3.8c-0.333-1.533-0.767-2.65-1.3-3.35
			c-1.034,3.567-1.833,7.15-2.4,10.75c-0.8-1.267-1.483-3.033-2.05-5.3c-0.867-3.434-1.333-5.25-1.4-5.45
			c-0.033,7.033-0.083,11.083-0.15,12.15c-0.167,4.934-0.617,8.833-1.35,11.7c-0.1-4.434-0.2-7.783-0.3-10.05
			c-0.2-3.966-0.716-7.233-1.55-9.8c-0.5,2.6-0.767,7.183-0.8,13.75c-0.034,6-0.467,10.517-1.3,13.55
			c-0.433-1.767-0.633-4.333-0.6-7.7c0.067-3.633-0.033-6.2-0.3-7.7c-0.367-2.2-1.183-4.967-2.45-8.3c-1.533-4-2.5-6.733-2.9-8.2
			c0.033,0.934-0.05,2.117-0.25,3.55c-0.233,1.867-0.367,3.033-0.4,3.5c-0.833-2.534-1.483-4.217-1.95-5.05
			c-0.033,1.1-0.05,2.767-0.05,5c0.033,2.233,0.017,3.9-0.05,5c-0.367-0.433-0.75-1.267-1.15-2.5c-0.466-1.367-0.833-2.267-1.1-2.7
			c-0.034,0.333,0.066,3.75,0.3,10.25c0.133,4.4-0.233,7.7-1.1,9.9c0.3-15.267-1.333-25.033-4.9-29.3
			c0.567,2.9,0.733,6.383,0.5,10.45c-1.733-3.533-4.1-7.2-7.1-11c0.6,1.4,0.9,2.85,0.9,4.35c-1.167-1.267-2.65-3.367-4.45-6.3
			c-0.033,1.233-0.317,2.483-0.85,3.75c-0.7-0.566-1.333-1.316-1.9-2.25c-0.567-0.966-0.95-1.933-1.15-2.9
			c-1,1.667-2.15,4.233-3.45,7.7c-0.2-0.733-0.333-1.75-0.4-3.05c-0.133-1.6-0.233-2.617-0.3-3.05c-2.3,5.2-3.583,9.617-3.85,13.25
			c-0.2,2.533-0.317,7.983-0.35,16.35c-0.067-3.9-0.5-8.017-1.3-12.35c-0.867-4.867-1.4-8.95-1.6-12.25
			c-0.3,1.767-0.883,4.667-1.75,8.7c-0.372,2.113-0.597,3.997-0.675,5.65c-0.063-2.527-0.155-4.561-0.275-6.1
			c-0.267-3.733-0.833-6.617-1.7-8.65c0,1.2-0.117,2.9-0.35,5.1c0.033-0.633-0.483-1.767-1.55-3.4c-1.433-2.167-2.167-3.3-2.2-3.4
			c-1.3-2.9-2.1-5.2-2.4-6.9L41.9,34.3c-0.267-3.233,0.483-6.1,2.25-8.6c1.434-2.034,3.617-3.9,6.55-5.6
			c0.566-0.3,3.117-1.567,7.65-3.8c7.233-3.5,15.5-6.333,24.8-8.5c7-1.667,15.6-3.15,25.8-4.45c11.233-1.4,23.816-2.1,37.75-2.1
			c6.366,0,15.934-0.117,28.7-0.35c10.133-0.1,19.066,0.167,26.8,0.8c9.6,0.767,18.416,2.15,26.45,4.15
			C238.316,8.25,245.866,11.2,251.3,14.7z"/>
		
			<radialGradient id="SVGID_14_" cx="170.9502" cy="105.6499" r="170.875" gradientTransform="matrix(-1 0 0 -0.4657 341.9004 154.8502)" gradientUnits="userSpaceOnUse">
			<stop  offset="0.4353" style="stop-color:#D7C8BA"/>
			<stop  offset="0.5882" style="stop-color:#CDC1B5"/>
			<stop  offset="0.8471" style="stop-color:#B3AEA8"/>
			<stop  offset="1" style="stop-color:#A0A09E"/>
		</radialGradient>
		<path style="fill-rule:evenodd;clip-rule:evenodd;fill:url(#SVGID_14_);" d="M247.95,12.4c2.8,1.2,5.316,2.833,7.55,4.9
			c2.8,2.534,4.583,5.317,5.35,8.35c0.301,1.2,0.301,2.317,0,3.35c-0.166,0.567-0.616,1.567-1.35,3c-0.2,0.4-1.8,2.8-4.8,7.2
			c-2.233,3.267-3.533,5.917-3.9,7.95c-0.033,0.2-0.217,1.983-0.55,5.35c-0.2,2.1-0.583,3.833-1.15,5.2
			c0.267-4.333,0.417-7.833,0.45-10.5c0.101-5-0.533-8.117-1.899-9.35c-0.7,2.566-1.284,5.883-1.75,9.95
			c-0.233,2.3-0.584,5.684-1.051,10.15c-0.066,0.466-0.267,2.617-0.6,6.45c-0.267,2.6-0.583,4.733-0.95,6.4
			c0,0.067-0.5,1.85-1.5,5.35c-0.402,1.399-0.661,2.583-0.774,3.55c0.11-2.147,0.436-4.731,0.975-7.75c0.8-4.7,1.267-7.7,1.4-9
			c0.433-4.167,0.033-10.3-1.2-18.4c0,3.034-0.033,5.05-0.101,6.05c-0.133,2.433-0.5,4.35-1.1,5.75c-0.233-2.267-1.033-6.2-2.4-11.8
			c0,0.534-0.116,1.15-0.35,1.85c-0.066-0.066-0.45-0.3-1.15-0.7c-0.6-0.367-0.966-0.667-1.1-0.9c-0.033,0.633-0.05,2.483-0.05,5.55
			c-0.033-1.333-0.5-2.883-1.4-4.65c-0.333-0.667-1.149-2.05-2.45-4.15c0.134,1.867,0.15,4.4,0.051,7.6
			c-0.134,3.767-0.184,6.283-0.15,7.55c-0.533-3.067-0.983-5.45-1.35-7.15c-0.7-3.1-1.7-5.117-3-6.05c0.066,3.933-0.25,7.2-0.95,9.8
			c-0.367-0.4-0.65-0.667-0.851-0.8c-0.1,0.233-0.399,1.217-0.899,2.95c-0.367,1.233-0.783,2.133-1.25,2.7
			c-0.167-0.2-0.467-0.417-0.9-0.65c-0.467-0.233-0.767-0.433-0.899-0.6c0.033,5.033-0.767,10.517-2.4,16.45
			c0.1-3.7,0.167-6.45,0.2-8.25c0.033-3.233-0.316-5.8-1.05-7.7c-0.267,2.1-0.717,4.65-1.351,7.65
			c-0.366,1.667-0.899,4.184-1.6,7.55c-0.267,1.467-0.667,3.967-1.2,7.5c-0.566,3.133-1.25,5.467-2.05,7
			c-0.167-1.667,0.017-4.917,0.55-9.75c0.5-4.167,0.384-7.434-0.35-9.8c0.066,2.1-0.15,3.833-0.65,5.2
			c-0.833-1.367-1.983-3.883-3.45-7.55c-1.467-3.7-2.566-6.184-3.3-7.45c0,0.433-0.017,1.1-0.05,2
			c-0.434-0.367-1.017-1.083-1.75-2.15c-0.733-1.067-1.316-1.783-1.75-2.15c-0.467,0.867-0.851,1.933-1.15,3.2
			c-0.2,0.767-0.434,1.883-0.7,3.35c-0.833-1.667-1.949-3.35-3.35-5.05c-0.934-1.133-2.3-2.6-4.1-4.4l-0.051,1.5
			c-0.6-0.267-1.35-0.95-2.25-2.05c-1.066-1.3-1.8-2.117-2.199-2.45c-0.367,0.967-0.934,2.583-1.7,4.85
			c-0.101-1.267-0.316-2.383-0.65-3.35c-0.066,1.034-0.383,3.467-0.95,7.3c-0.327,2.266-0.511,4.116-0.55,5.55
			c-0.026-3.708-0.159-6.508-0.399-8.4c-0.434-3.533-1.367-6.517-2.801-8.95c0.434,1.633,0.284,3.367-0.449,5.2
			c-0.334-0.5-0.75-1.433-1.25-2.8c-0.534-1.367-0.967-2.3-1.301-2.8c0.101,1.233-0.216,2.267-0.949,3.1
			c-1.034-2.033-2.834-4.5-5.4-7.4c-0.1,0.333-0.283,1.333-0.55,3c-0.233,1.267-0.533,2.233-0.9,2.9
			c-0.666-0.967-1.05-1.617-1.149-1.95c-0.2,0.867-0.434,2.25-0.7,4.15c-0.3,1.833-0.55,3.183-0.75,4.05
			c0.033-0.2-0.5-0.85-1.601-1.95c-0.533,1.6-0.6,4.167-0.199,7.7c0.466,4.267,0.649,6.967,0.55,8.1c-0.066,0.9-0.4,3.183-1,6.85
			c-0.467,2.833-0.65,5.167-0.55,7c-0.767-4-1.25-9-1.45-15c-0.134-6.7-0.3-11.733-0.5-15.1c-0.233-3.067-0.4-4.833-0.5-5.3
			c-0.434-1.933-1.2-2.1-2.3-0.5c-0.634,0.967-1.134,2.85-1.5,5.65c-0.367,2.833-0.934,4.816-1.7,5.95
			c0.133-3.133,0.133-5.717,0-7.75c-0.267-3.833-1.2-5.133-2.8-3.9c-0.834,0.633-1.351,2.317-1.551,5.05
			c-0.1,1.434-0.183,3.267-0.25,5.5c-0.233,1.5-0.666,3.567-1.3,6.2c-0.666,2.867-1.116,4.933-1.35,6.2
			c0.133-3.534-0.101-7.1-0.7-10.7c-0.7-4.033-1.767-7.383-3.2-10.05c-0.7-1.3-1.733-2.25-3.1-2.85c-1.934-0.9-3.167-1.567-3.7-2
			c-0.833,0.967-1.733,1.083-2.7,0.35c-1.1-0.833-1.967-1-2.6-0.5c-0.733,0.566-1.101,1.733-1.101,3.5c0,2.1-0.133,3.417-0.399,3.95
			c-0.2-0.733-0.467-2.35-0.8-4.85c-0.267-2.066-0.65-3.667-1.15-4.8c-0.4-0.9-1.133-1.95-2.2-3.15c-1.333-1.5-2.167-2.517-2.5-3.05
			c0.034,0.633-0.083,1.483-0.35,2.55c-0.567-0.967-1.317-1.95-2.25-2.95c-0.034,0.533-0.2,1-0.5,1.4
			c-0.467,0.667-0.733,1.067-0.8,1.2c-0.767-0.5-1.75-1.4-2.95-2.7c-0.3,1.1-1.133,2.217-2.5,3.35c-1.3,1.133-2.133,2.417-2.5,3.85
			c-0.434,1.7-0.983,4.267-1.65,7.7c-0.333,1.735-0.642,3.244-0.925,4.525c0.347-2.178,0.421-4.686,0.225-7.525
			c-0.434-5.606-0.667-9.048-0.7-10.325c-0.022,1.663-0.338,4.038-0.95,7.125c-0.555,2.717-0.846,4.925-0.875,6.625
			c-0.082-2.302-0.473-4.478-1.175-6.525c-0.933-2.8-2.3-4.7-4.1-5.7c0.167,0.1,0.1,0.917-0.2,2.45
			c-1.167-0.233-2.367-0.917-3.6-2.05c-1.3-1.4-2.317-2.433-3.05-3.1c-0.233,0.7-0.367,1.683-0.4,2.95c-0.1,1.467-0.2,2.467-0.3,3
			c-0.567-0.633-1.267-1.7-2.1-3.2c-1.033-1.867-1.683-3-1.95-3.4c-0.133,2.934-0.267,7.35-0.4,13.25
			c-0.192,4.223-0.567,7.898-1.125,11.025c0.487-3.222,0.496-6.714,0.025-10.475c-0.5-4.3-1.517-8.15-3.05-11.55V44
			c-0.1-1.933-0.867-3.9-2.3-5.9c-0.1-0.133-1.434-1.75-4-4.85c1.133,2.933,1.95,5.3,2.45,7.1c-0.9-1.667-2.483-3.317-4.75-4.95
			c-3.033-2.167-4.85-3.55-5.45-4.15c0.167,2.133-0.317,4.05-1.45,5.75c-0.5-2.333-0.933-3.933-1.3-4.8
			c-0.2,0.633-0.6,1.783-1.2,3.45c-0.482,1.384-0.841,2.517-1.075,3.4c-0.324-1.219-0.615-2.835-0.875-4.85
			c-0.333-2.7-0.567-4.367-0.7-5c-2.233,4.233-3.7,7.4-4.4,9.5v-7.8c-0.333,1.9-0.85,4.817-1.55,8.75
			c-0.492,2.955-0.768,5.48-0.825,7.575c0.006-2.295-0.152-4.953-0.475-7.975c-0.467-3.933-0.817-6.867-1.05-8.8
			c-0.633,0.8-1.133,2.25-1.5,4.35c-0.2,1.2-0.417,2.85-0.65,4.95c-2.033-4.667-3.1-8.067-3.2-10.2
			c-0.067,3.167-0.083,7.35-0.05,12.55c0,2.521,0.008,5.979,0.025,10.375c-0.087-2.629-0.362-5.838-0.825-9.625
			c-0.7-5.833-1.1-9.5-1.2-11c-0.4,1.5-0.633,3.45-0.7,5.85c0,0.966,0.033,2.966,0.1,6c-0.267-1.167-0.5-3.15-0.7-5.95
			c-0.2-2.633-0.483-4.583-0.85-5.85c0.033,0.934,0.067,2.367,0.1,4.3c0,1.575-0.117,2.892-0.35,3.95
			c0.187-0.966-0.097-1.716-0.85-2.25c-0.933-0.667-1.4-1.633-1.4-2.9c0-0.2-0.05-0.867-0.15-2c-0.033-0.633,0.017-1.3,0.15-2
			c0.133-0.567-0.2-1.417-1-2.55c-0.767-1.1-1.1-1.917-1-2.45c1.233-5.6,6.017-10.05,14.35-13.35c9.267-3.7,18.033-6.383,26.3-8.05
			c6.4-1.3,14.417-2.283,24.05-2.95c14.8-1.033,29.133-1.55,43-1.55c6.467,0,15.983-0.033,28.551-0.1
			c10.833,0.1,20.316,0.65,28.449,1.65C222.05,3.317,235.083,6.9,247.95,12.4z"/>
	</g>
	<path style="fill-rule:evenodd;clip-rule:evenodd;fill:#969694;" d="M108.5,13.25c0,0.9-1.2,1.667-3.6,2.3s-5.283,0.95-8.65,0.95
		S90,16.183,87.6,15.55s-3.6-1.4-3.6-2.3s1.2-1.667,3.6-2.3S92.883,10,96.25,10s6.25,0.317,8.65,0.95S108.5,12.35,108.5,13.25z"/>
	<path style="fill-rule:evenodd;clip-rule:evenodd;fill:#969694;" d="M157,5.75c0,1.233-2,2.283-6,3.15
		c-4.033,0.867-8.866,1.3-14.5,1.3c-5.667,0-10.5-0.434-14.5-1.3s-6-1.917-6-3.15s2-2.283,6-3.15s8.833-1.3,14.5-1.3
		c5.634,0,10.467,0.434,14.5,1.3C155,3.467,157,4.517,157,5.75z"/>
	<path style="fill-rule:evenodd;clip-rule:evenodd;fill:#969694;" d="M161.7,15.6c0,0.566-0.717,1.066-2.15,1.5
		c-1.434,0.4-3.166,0.6-5.2,0.6c-2.033,0-3.767-0.2-5.199-0.6c-1.434-0.434-2.15-0.934-2.15-1.5c0-0.6,0.717-1.1,2.15-1.5
		c1.433-0.434,3.166-0.65,5.199-0.65c2.034,0,3.767,0.216,5.2,0.65C160.983,14.5,161.7,15,161.7,15.6z"/>
	<path style="fill-rule:evenodd;clip-rule:evenodd;fill:#969694;" d="M214.85,10.6c0,0.767-1.05,1.433-3.149,2
		c-2.134,0.533-4.7,0.8-7.7,0.8s-5.55-0.267-7.65-0.8c-2.133-0.567-3.199-1.233-3.199-2s1.066-1.417,3.199-1.95
		c2.101-0.533,4.65-0.8,7.65-0.8s5.566,0.267,7.7,0.8C213.8,9.183,214.85,9.833,214.85,10.6z"/>
</g>
</svg>
