<?xml version="1.0" encoding="iso-8859-1"?>
<!-- Generator: Adobe Illustrator 15.1.0, SVG Export Plug-In . SVG Version: 6.00 Build 0)  -->
<!DOCTYPE svg PUBLIC "-//W3C//DTD SVG 1.1//EN" "http://www.w3.org/Graphics/SVG/1.1/DTD/svg11.dtd">
<svg version="1.1" xmlns="http://www.w3.org/2000/svg" xmlns:xlink="http://www.w3.org/1999/xlink" x="0px" y="0px" width="166.2px"
	 height="285.8px" viewBox="0 0 166.2 285.8" style="enable-background:new 0 0 166.2 285.8;" xml:space="preserve">
<symbol  id="flash0.ai_x5F_0_x2F_Layer_3_x2F__x3C_Compound_Path_x3E_" viewBox="-0.014 -9.701 6.01 9.705">
	<g id="Layer_1_11_">
		<path style="fill-rule:evenodd;clip-rule:evenodd;fill:#5C5A98;" d="M1.1,0c0.433-0.067,1.316-0.6,2.65-1.6
			c1.267-1,1.983-1.683,2.15-2.05c0.167-0.434,0.117-1.533-0.15-3.3c-0.3-1.867-0.667-2.783-1.1-2.75
			C4.25-9.667,3.433-9.133,2.2-8.1C0.933-7.033,0.233-6.267,0.1-5.8c-0.167,0.5-0.15,1.583,0.05,3.25C0.383-0.783,0.7,0.067,1.1,0z
			 M3.35-3.25c-0.7,0.6-1.167,0.917-1.4,0.95c-0.233,0.033-0.4-0.417-0.5-1.35C1.383-4.517,1.4-5.117,1.5-5.45
			c0.1-0.3,0.467-0.733,1.1-1.3C3.2-7.317,3.617-7.6,3.85-7.6c0.233-0.033,0.433,0.45,0.6,1.45c0.167,0.9,0.2,1.483,0.1,1.75
			C4.45-4.2,4.05-3.817,3.35-3.25z"/>
	</g>
</symbol>
<symbol  id="flash0.ai_x5F_0_x2F_Layer_3_x2F__x3C_Compound_Path_x3E__x5F_1" viewBox="-0.023 -11.201 6.861 11.204">
	<g id="Layer_1_10_">
		<path style="fill-rule:evenodd;clip-rule:evenodd;fill:#5C5A98;" d="M0.95,0c0.5-0.067,1.533-0.667,3.1-1.8
			c1.567-1.1,2.434-1.867,2.6-2.3C6.883-4.567,6.9-5.85,6.7-7.95c-0.167-2.2-0.5-3.283-1-3.25c-0.467,0-1.434,0.567-2.9,1.7
			C1.3-8.3,0.433-7.417,0.2-6.85c-0.233,0.533-0.284,1.8-0.15,3.8C0.183-0.95,0.483,0.067,0.95,0z M3.75-3.7
			c-0.833,0.633-1.4,0.967-1.7,1c-0.267,0.034-0.4-0.5-0.4-1.6c-0.033-1,0.017-1.684,0.15-2.05c0.167-0.367,0.617-0.867,1.35-1.5
			S4.383-8.8,4.65-8.8S5.1-8.217,5.2-7.05C5.3-5.95,5.283-5.267,5.15-5C5.05-4.767,4.583-4.333,3.75-3.7z"/>
	</g>
</symbol>
<symbol  id="flash0.ai_x5F_0_x2F_Layer_3_x2F__x3C_Compound_Path_x3E__x5F_2" viewBox="-0.017 -15.309 9.542 15.281">
	<g id="Layer_1_9_">
		<path style="fill-rule:evenodd;clip-rule:evenodd;fill:#5C5A98;" d="M1.05-3.55c0.867,2.533,1.6,3.7,2.2,3.5
			c0.633-0.233,1.8-1.25,3.5-3.05c1.7-1.8,2.617-2.983,2.75-3.55c0.133-0.633-0.25-2.233-1.15-4.8c-0.967-2.7-1.767-3.983-2.4-3.85
			c-0.6,0.133-1.717,1.117-3.35,2.95C1-10.483,0.133-9.167,0-8.4C-0.1-7.567,0.25-5.95,1.05-3.55z M3.85-3.65
			c-0.367,0.1-0.733-0.533-1.1-1.9C2.383-6.817,2.233-7.7,2.3-8.2c0.067-0.466,0.5-1.2,1.3-2.2c0.767-0.967,1.333-1.483,1.7-1.55
			c0.367-0.1,0.8,0.55,1.3,1.95c0.5,1.367,0.7,2.233,0.6,2.6c-0.067,0.333-0.55,1-1.45,2C4.85-4.367,4.217-3.783,3.85-3.65z"/>
	</g>
</symbol>
<symbol  id="flash0.ai_x5F_0_x2F_Layer_3_x2F__x3C_Compound_Path_x3E__x5F_3" viewBox="-0.076 -30.841 27.282 30.852">
	<g id="Layer_1_6_">
		<path style="fill-rule:evenodd;clip-rule:evenodd;fill:#5C5A98;" d="M12.7-9.45c-2.7,1.367-4.434,2.034-5.2,2
			c-0.733-0.033-0.583-1.667,0.45-4.9c1-3.066,1.833-5.033,2.5-5.9c0.667-0.9,2.417-2.183,5.25-3.85
			c2.867-1.667,4.617-2.433,5.25-2.3c0.7,0.133,0.433,2.033-0.8,5.7c-1.133,3.467-2,5.55-2.6,6.25
			C17.017-11.817,15.4-10.817,12.7-9.45z M20.8-8.8c1.133-1.267,2.667-5.1,4.6-11.5c2.033-6.7,2.35-10.2,0.95-10.5
			c-1.3-0.3-4.85,1.033-10.65,4c-5.833,2.933-9.383,5.216-10.65,6.85c-1.233,1.567-2.566,5.184-4,10.85c-1.466,5.967-1.5,9-0.1,9.1
			C2.483,0.133,5.933-1.017,11.3-3.45C16.633-5.85,19.8-7.633,20.8-8.8z"/>
	</g>
</symbol>
<symbol  id="flash0.ai_x5F_0_x2F_Layer_3_x2F__x3C_Compound_Path_x3E__x5F_4" viewBox="-0.022 -18.217 10.978 18.262">
	<g id="Layer_1_5_">
		<path style="fill-rule:evenodd;clip-rule:evenodd;fill:#5C5A98;" d="M0-8.2c0.2,0.934,1.183,2.6,2.95,5
			C4.817-0.667,6.033,0.383,6.6-0.05c0.6-0.5,1.5-2.083,2.7-4.75c1.167-2.633,1.717-4.3,1.65-5c-0.067-0.767-1.067-2.417-3-4.95
			c-2.034-2.633-3.383-3.767-4.05-3.4c-0.6,0.4-1.433,1.917-2.5,4.55C0.333-10.9-0.133-9.1,0-8.2z M5.9-4.35
			c-0.333,0.267-0.95-0.3-1.85-1.7C3.183-7.35,2.7-8.283,2.6-8.85c-0.1-0.533,0.083-1.5,0.55-2.9s0.883-2.2,1.25-2.4
			c0.367-0.233,1.1,0.333,2.2,1.7c1,1.3,1.533,2.184,1.6,2.65C8.267-9.367,7.983-8.433,7.35-7C6.75-5.533,6.267-4.65,5.9-4.35z"/>
	</g>
</symbol>
<symbol  id="flash0.ai_x5F_0_x2F_Layer_3_x2F__x3C_Compound_Path_x3E__x5F_5" viewBox="-0.003 -22.851 14.167 22.854">
	<g id="Layer_1_4_">
		<path style="fill-rule:evenodd;clip-rule:evenodd;fill:#5C5A98;" d="M1.15,0c1-0.133,3.15-1.3,6.45-3.5
			c3.3-2.2,5.167-3.717,5.6-4.55c0.533-0.967,0.85-3.617,0.95-7.95c0.1-4.533-0.316-6.817-1.25-6.85c-0.933-0.033-2.967,1.1-6.1,3.4
			c-3.2,2.333-5.083,4.083-5.65,5.25c-0.566,1.2-0.933,3.833-1.1,7.9C-0.15-2,0.217,0.1,1.15,0z M3.9-5.45
			C3.367-5.383,3.2-6.5,3.4-8.8c0.2-2.133,0.467-3.567,0.8-4.3c0.367-0.7,1.333-1.683,2.9-2.95c1.566-1.267,2.617-1.883,3.15-1.85
			c0.567,0,0.817,1.2,0.75,3.6c-0.033,2.233-0.2,3.633-0.5,4.2c-0.267,0.533-1.283,1.417-3.05,2.65C5.683-6.183,4.5-5.517,3.9-5.45z
			"/>
	</g>
</symbol>
<symbol  id="flash0.ai_x5F_0_x2F_Layer_3_x2F__x3C_Compound_Path_x3E__x5F_6" viewBox="0.038 -47.402 24.877 47.407">
	<g id="Layer_1_3_">
		<path style="fill-rule:evenodd;clip-rule:evenodd;fill:#5C5A98;" d="M1.6,0c1.8-0.233,5.7-2.867,11.7-7.9
			c5.934-5,9.3-8.4,10.1-10.2c0.867-2.033,1.367-7.333,1.5-15.9c0.133-9.033-0.65-13.5-2.35-13.4c-1.633,0.1-5.333,3.017-11.1,8.75
			C5.717-32.883,2.367-28.767,1.4-26.3c-0.833,2.167-1.283,7.083-1.35,14.75C-0.05-3.683,0.467,0.167,1.6,0z M13.7-14.6
			c-3.2,2.967-5.317,4.567-6.35,4.8c-1,0.2-1.45-2.133-1.35-7c0.1-4.567,0.433-7.583,1-9.05s2.467-3.883,5.7-7.25
			c3.233-3.4,5.316-5.133,6.25-5.2c1-0.067,1.4,2.65,1.2,8.15c-0.167,5.2-0.517,8.4-1.05,9.6C18.633-19.483,16.833-17.5,13.7-14.6z"
			/>
	</g>
</symbol>
<symbol  id="flash0.ai_x5F_0_x2F_Layer_3_x2F__x3C_Path_x3E_" viewBox="-0.026 -22.569 4.727 22.521">
	<g id="Layer_1_14_">
		<path style="fill-rule:evenodd;clip-rule:evenodd;fill:#5C5A98;" d="M0.75-0.1c0.233,0.267,0.567-0.483,1-2.25
			C2.383-4.917,3-6.85,3.6-8.15C3.967-8.917,4.317-9.533,4.65-10c0.1-0.233,0.05-0.75-0.15-1.55c-0.167-0.7-0.233-2.483-0.2-5.35
			c0.034-2.967,0-4.717-0.1-5.25c-0.167-0.9-0.7-0.35-1.6,1.65c-0.867,2.033-1.55,4.283-2.05,6.75C0.083-11.45-0.1-8.65,0-5.35
			C0.133-2.283,0.383-0.533,0.75-0.1z"/>
	</g>
</symbol>
<symbol  id="flash0.ai_x5F_0_x2F_Layer_3_x2F__x3C_Path_x3E__x5F_1" viewBox="0.007 -21.919 14.91 21.932">
	<g id="Layer_1_13_">
		<path style="fill-rule:evenodd;clip-rule:evenodd;fill:#5C5A98;" d="M4.6-2.35c1.5-1,3.4-2.267,5.7-3.8
			c0.9-0.567,1.583-1.417,2.05-2.55c0.367-0.867,0.767-2.3,1.2-4.3c0.567-2.467,0.967-4.617,1.2-6.45c0.333-2.4,0.167-3.05-0.5-1.95
			c-0.733,1.267-2.033,3.25-3.9,5.95c-1.867,2.733-3.333,4.767-4.4,6.1c-4.3,5.5-6.267,8.6-5.9,9.3C0.183,0.25,1.7-0.517,4.6-2.35z"
			/>
	</g>
</symbol>
<symbol  id="flash0.ai_x5F_0_x2F_Layer_3_x2F__x3C_Path_x3E__x5F_12" viewBox="0 -19.545 143.2 19.545">
	<g id="Layer_1_2_">
		<path style="fill-rule:evenodd;clip-rule:evenodd;fill:#0D5069;" d="M140.45-13.15c-3.067,0.433-5.467,0.55-7.2,0.35
			c-0.1,0-1.667-0.3-4.7-0.9c-2.367-0.533-5.267-0.683-8.7-0.45c-0.867,0.066-1.75-0.15-2.65-0.65c-1-0.733-1.784-1.267-2.35-1.6
			c-1.467-0.9-4.133-1.55-8-1.95c-1.167-0.133-2.767-0.167-4.8-0.1c-2.267,0.067-3.85,0.067-4.75,0c-3.233-0.2-6.216-0.533-8.95-1
			c0.4,0.267,1.1,0.65,2.1,1.15c0.466,0.233,1.216,0.533,2.25,0.9c1,0.333,1.75,0.633,2.25,0.9c-0.967,0.2-2.2,0.117-3.7-0.25
			c-1.833-0.433-3.067-0.65-3.7-0.65c-2.8-0.067-5.583,0.316-8.35,1.15l-5,1.5c-1.567,0.467-2.567,0.75-3,0.85
			c-1.133,0.2-2.15,0.183-3.05-0.05c-1-0.267-2.167-0.667-3.5-1.2c-1.467-0.7-2.583-1.2-3.35-1.5c-0.867-0.367-2.017-0.7-3.45-1
			c-1.867-0.367-3.017-0.617-3.45-0.75c-1.967-0.567-4.5-0.934-7.6-1.1c-1.566-0.1-4.333-0.033-8.3,0.2
			c-0.933-0.034-1.65-0.05-2.15-0.05c-0.9-0.033-1.6,0.067-2.1,0.3c0.467,0.533,1.283,1,2.45,1.4c1.566,0.533,2.483,0.867,2.75,1
			c-0.467,0.267-1.067,0.4-1.8,0.4c-0.833-0.1-1.45-0.15-1.85-0.15c-1.6-0.1-3.367-0.117-5.3-0.05
			c-3.533,0.034-7.017,0.333-10.45,0.9c-3.8,0.633-7.183,0.833-10.15,0.6c-2.367-0.267-4.217-0.517-5.55-0.75
			c-0.967-0.233-1.684-0.4-2.15-0.5c-0.9-0.2-1.633-0.267-2.2-0.2c0.133,0.566,0.883,1.133,2.25,1.7c0.7,0.267,1.65,0.6,2.85,1
			c1.467,0.667,3.333,1.117,5.6,1.35c0.933,0.1,2.267,0.367,4,0.8c1.767,0.433,3.083,0.7,3.95,0.8C22.983-10.317,26.5-9.4,29.2-8
			c2.1,1.1,3.566,2.133,4.4,3.1c0.267,0.267,0.933,1.8,2,4.6L119.925,0c-0.306-0.031-0.314-0.898-0.025-2.6
			c0.3-1.667,0.55-2.683,0.75-3.05c0.6-1,1.383-1.85,2.35-2.55c1.1-0.8,2.183-1.233,3.25-1.3c0.533-0.033,1.233,0.017,2.1,0.15
			c1.033,0.167,1.733,0.25,2.1,0.25c1.6,0.1,3.4-0.15,5.4-0.75c1-0.3,2.25-0.883,3.75-1.75c1.667-0.933,2.867-1.55,3.6-1.85
			C141.967-13.35,141.05-13.25,140.45-13.15z"/>
	</g>
</symbol>
<symbol  id="flash0.ai_x5F_0_x2F_Layer_3_x2F__x3C_Path_x3E__x5F_2" viewBox="0 -13.09 14.152 13.001">
	<g id="Layer_1_12_">
		<path style="fill-rule:evenodd;clip-rule:evenodd;fill:#5C5A98;" d="M0-0.1c0,0.133,1.083-0.967,3.25-3.3
			c3.233-3.5,6.8-6.65,10.7-9.45c1.167-0.833-2.733,0.5-11.7,4c-0.5,0.233-1.017,1.567-1.55,4C0.233-2.717,0-1.133,0-0.1z"/>
	</g>
</symbol>
<symbol  id="flash0.ai_x5F_0_x2F_Layer_3_x2F__x3C_Path_x3E__x5F_3" viewBox="-0.001 -24.054 21.858 24.08">
	<g id="Layer_1_8_">
		<path style="fill-rule:evenodd;clip-rule:evenodd;fill:#5C5A98;" d="M4.5-2.95c2.8-2.333,5.417-4.767,7.85-7.3
			c2.267-2.367,4.45-5.083,6.55-8.15c2.067-3,3.05-4.85,2.95-5.55c-0.067-0.333-0.95,0.133-2.65,1.4c-3.2,2.333-4.95,3.6-5.25,3.8
			c-1.934,1.267-4.467,2.683-7.6,4.25c-1.267,0.633-1.983,1.417-2.15,2.35C3.733-9.65,2.867-7,1.6-4.2C0.5-1.8-0.033-0.45,0-0.15
			C0.033,0.45,1.533-0.483,4.5-2.95z"/>
	</g>
</symbol>
<symbol  id="flash0.ai_x5F_0_x2F_Layer_3_x2F__x3C_Path_x3E__x5F_5" viewBox="0.025 -28.95 13.618 28.883">
	<g id="Layer_1_7_">
		<path style="fill-rule:evenodd;clip-rule:evenodd;fill:#5C5A98;" d="M6-2.15c2.4-1.133,4.15-2.133,5.25-3
			c1.4-1.1,2.15-2.217,2.25-3.35c0.333-3.633,0.083-8.2-0.75-13.7c-0.833-5.367-1.483-7.533-1.95-6.5
			c-0.767,3.034-1.566,5.983-2.4,8.85C6.767-14.15,5-9.7,3.1-6.5C0.867-2.767-0.15-0.683,0.05-0.25C0.283,0.283,2.267-0.35,6-2.15z"
			/>
	</g>
</symbol>
<g id="Layer_3">
</g>
<g id="Layer_3_1_">
	<g>
		
			<use xlink:href="#flash0.ai_x5F_0_x2F_Layer_3_x2F__x3C_Path_x3E__x5F_12"  width="143.2" height="19.545" y="-19.545" transform="matrix(1 0 0 -1 23 266.25)" style="overflow:visible;opacity:0.4688;enable-background:new    ;"/>
		
			<linearGradient id="SVGID_1_" gradientUnits="userSpaceOnUse" x1="188.5186" y1="-73.4766" x2="260.2184" y2="-73.4766" gradientTransform="matrix(0.0746 0.9972 -0.9972 0.0746 4.000291e-004 5.297363e-005)">
			<stop  offset="0" style="stop-color:#3A3866"/>
			<stop  offset="0.3608" style="stop-color:#302E49"/>
			<stop  offset="0.7608" style="stop-color:#27252E"/>
			<stop  offset="1" style="stop-color:#242224"/>
		</linearGradient>
		<path style="fill-rule:evenodd;clip-rule:evenodd;fill:url(#SVGID_1_);" d="M88.8,278.05c-1.833,0.834-3.217,1.434-4.149,1.8
			c-1.367,0.567-2.984,1.067-4.851,1.5c-0.2,0.034-2,0.4-5.4,1.101c-1.6,0.333-3.183,0.583-4.75,0.75
			c-2.533,0.3-4.05,0.233-4.55-0.2c-0.233-0.2,1.45-0.95,5.05-2.25c3.8-1.434,5.667-2.616,5.6-3.55c-0.067-0.267-0.683-0.2-1.85,0.2
			c-1.7,0.6-2.667,0.916-2.9,0.949c-3.267,0.567-5.317,0.884-6.15,0.95c-3.967,0.3-9.567,0.25-16.8-0.149
			c-3.6-0.2-7.483-0.067-11.65,0.399c-3.467,0.367-6.167,0.834-8.1,1.4c-1.867,0.533-1.566,0.217,0.9-0.95
			c2.4-1.1,4.75-1.917,7.05-2.45c0.833-0.2,3.367-0.684,7.6-1.45c3.066-0.533,5.533-1.116,7.4-1.75c2.067-0.666,3.8-2.25,5.2-4.75
			c0.767-1.366,1.6-3.416,2.5-6.149c56.133-0.2,84.25-0.283,84.35-0.25c-0.1-0.033-0.166,0.483-0.2,1.55c0,1.2,0.134,2.384,0.4,3.55
			c0.866,3.566,2.783,5.7,5.75,6.4c0.934,0.2,2.533,0.2,4.8,0c1.967-0.2,3.5-0.066,4.601,0.399c0.399,0.2,1,0.634,1.8,1.301
			c0.399,0.366,0.95,0.85,1.649,1.449c-0.666,0.067-1.116,0.067-1.35,0c-0.2-0.066-0.65-0.333-1.35-0.8c-0.7-0.467-3.034-0.467-7,0
			c-5.034,0.634-9.534,0.7-13.5,0.2c-2.467-0.3-4.983-0.917-7.551-1.85l-3.1-1.25l1.2,0.899c1.133,0.7,2.467,1.4,4,2.101
			c1.666,0.8,2.45,1.666,2.35,2.6c-0.1,1-1.25,1.783-3.45,2.35c-2.1,0.534-4.416,0.95-6.949,1.25
			c-2.134,0.233-4.051,0.351-5.75,0.351c-0.767,0,0.083-0.233,2.55-0.7c3.666-0.667,6.166-1.316,7.5-1.95
			c1.133-0.533,0.717-1.033-1.25-1.5c-0.733-0.2-2.233-0.467-4.5-0.8c-4.3-0.767-7.45-1.55-9.45-2.35
			c-0.634-0.334-1.116-0.584-1.45-0.75c-0.566-0.301-1.05-0.384-1.45-0.25c0.167,0.466,0.45,0.949,0.851,1.449
			c-0.134-0.166-1.033-0.399-2.7-0.699c-1.267-0.2-2.316-0.351-3.15-0.45c-0.833-0.101-1.517-0.05-2.05,0.149
			c-0.7,0.301-0.916,0.851-0.649,1.65c0.133,0.434,0.55,0.917,1.25,1.45c0.933,0.733,1.433,1.133,1.5,1.2
			c-2-0.233-3.634-0.567-4.9-1c-1.833-0.733-3.233-1.267-4.2-1.601c-1.7-0.633-3.149-0.883-4.35-0.75
			C91.9,276.934,90.434,277.35,88.8,278.05z"/>
		<linearGradient id="SVGID_2_" gradientUnits="userSpaceOnUse" x1="27.002" y1="221.0527" x2="42.427" y2="196.1777">
			<stop  offset="0" style="stop-color:#3A3866"/>
			<stop  offset="0.3608" style="stop-color:#302E49"/>
			<stop  offset="0.7608" style="stop-color:#27252E"/>
			<stop  offset="1" style="stop-color:#242224"/>
		</linearGradient>
		<path style="fill-rule:evenodd;clip-rule:evenodd;fill:url(#SVGID_2_);" d="M37.25,192.8c-0.733,0.4-1.2,1.917-1.4,4.55
			c-0.167,1.867-0.2,5.067-0.1,9.601c0.067,2.934,0.033,6.3-0.1,10.1c-0.167,4.4-0.25,7.15-0.25,8.25v11.8
			c-0.566-15.866-1.05-27.3-1.45-34.3c-0.3-5.133-0.934-9.566-1.9-13.3l-1.35-4L37.25,192.8z"/>
		<linearGradient id="SVGID_3_" gradientUnits="userSpaceOnUse" x1="19.8931" y1="200.1826" x2="32.5181" y2="179.8326">
			<stop  offset="0" style="stop-color:#3A3866"/>
			<stop  offset="0.3608" style="stop-color:#302E49"/>
			<stop  offset="0.7608" style="stop-color:#27252E"/>
			<stop  offset="1" style="stop-color:#242224"/>
		</linearGradient>
		<path style="fill-rule:evenodd;clip-rule:evenodd;fill:url(#SVGID_3_);" d="M29.4,180.95c-0.733,0.3-1.2,1.399-1.4,3.3
			c-0.133,1.3-0.15,3.583-0.05,6.85c0.066,2.101,0.033,4.517-0.1,7.25c-0.167,3.167-0.25,5.15-0.25,5.95v8.45
			c-0.567-11.4-1.05-19.616-1.45-24.65c-0.3-3.699-1.066-7.566-2.3-11.6l-1.7-4.95L29.4,180.95z"/>
		
			<linearGradient id="SVGID_4_" gradientUnits="userSpaceOnUse" x1="78.4893" y1="-118.4902" x2="102.7846" y2="-118.4902" gradientTransform="matrix(-0.5268 0.85 -0.85 -0.5268 -4.775524e-004 9.357929e-006)">
			<stop  offset="0" style="stop-color:#3A3866"/>
			<stop  offset="0.3608" style="stop-color:#302E49"/>
			<stop  offset="0.7608" style="stop-color:#27252E"/>
			<stop  offset="1" style="stop-color:#242224"/>
		</linearGradient>
		<path style="fill-rule:evenodd;clip-rule:evenodd;fill:url(#SVGID_4_);" d="M47.35,129.25l4.35-4l0.7,2.15
			c0.434,2.2,0.6,5.167,0.5,8.9c-0.133,5.067-0.566,13.283-1.3,24.65v-8.5c0.133-3,0.233-5.434,0.3-7.3c0.1-3.467,0-6.3-0.3-8.5
			c-0.6-4.033-0.934-6.133-1-6.3C50.267,129.583,49.183,129.217,47.35,129.25z"/>
		
			<linearGradient id="SVGID_5_" gradientUnits="userSpaceOnUse" x1="69.4487" y1="-118.2544" x2="86.5148" y2="-118.2544" gradientTransform="matrix(-0.5272 0.8498 -0.8498 -0.5272 7.013679e-004 -1.083612e-004)">
			<stop  offset="0" style="stop-color:#3A3866"/>
			<stop  offset="0.3608" style="stop-color:#302E49"/>
			<stop  offset="0.7608" style="stop-color:#27252E"/>
			<stop  offset="1" style="stop-color:#242224"/>
		</linearGradient>
		<path style="fill-rule:evenodd;clip-rule:evenodd;fill:url(#SVGID_5_);" d="M55.5,122.9l2.35-1.6c1.3-0.733,2.217-1.283,2.75-1.65
			c-0.2,0.367-0.517,0.9-0.95,1.6c-0.367,0.667-0.6,1.267-0.7,1.8c-0.2,0.867-0.217,2.25-0.05,4.15
			c-0.133,3.333-0.55,8.716-1.25,16.149v-5.55c0.067-2,0.1-3.633,0.1-4.9c0.033-2.333-0.017-4.25-0.15-5.75
			c-0.067-1.167-0.133-1.883-0.2-2.15c-0.1-0.733-0.316-1.25-0.65-1.55C56.183,123.217,55.767,123.033,55.5,122.9z"/>
		<linearGradient id="SVGID_6_" gradientUnits="userSpaceOnUse" x1="54.7402" y1="231.4619" x2="120.6652" y2="125.0869">
			<stop  offset="0" style="stop-color:#242224"/>
			<stop  offset="0.2392" style="stop-color:#27252E"/>
			<stop  offset="0.6392" style="stop-color:#302E49"/>
			<stop  offset="1" style="stop-color:#3A3866"/>
		</linearGradient>
		<path style="fill-rule:evenodd;clip-rule:evenodd;fill:url(#SVGID_6_);" d="M88.8,97.75c-2.899,4.933-7.966,9.667-15.2,14.2
			c-8.3,5.267-12.867,8.183-13.7,8.75c-8.533,6.367-13.683,10.466-15.45,12.3c-3.867,4.033-5.733,8.517-5.6,13.45
			c0.133,4.8,2.467,9.95,7,15.45c5.033,6.1,13.117,13.066,24.25,20.899c12.667,8.867,22.25,16.95,28.75,24.25
			c8.567,9.566,14.851,20.617,18.851,33.15c2.767,8.566,4.2,16.583,4.3,24.05c0.066,3.733-0.15,6.616-0.65,8.65l-66.5,1.1
			c2.467-4.667,4.033-10.783,4.7-18.35c1.3-15.134-2.566-29.934-11.6-44.4c-3.267-5.233-7.167-11.066-11.7-17.5
			c-5.167-7.333-8.283-11.816-9.35-13.45c-5.667-8.633-8.7-16.517-9.1-23.649c-0.566-9.2,2.767-17.417,10-24.65
			c1.434-1.733,5.45-6,12.05-12.8c5.066-5.233,8.483-9.35,10.25-12.35c3.233-5.434,5.2-11.483,5.9-18.15l0.1-8.35h2.55l0.25,3.55
			c0.067,3.133-0.2,6.667-0.8,10.6c-0.733,4.733-1.934,9.2-3.6,13.4c-1.4,3.567-3,6.6-4.8,9.1c1.1-0.6,2.95-1.683,5.55-3.25
			c2.1-1.267,3.7-2.183,4.8-2.75c6.267-3.2,10.534-8.883,12.8-17.05c1.967-7.133,2.25-15.3,0.85-24.5h4.1l1,13.75
			c0.1,10.167-1.216,17.733-3.95,22.7c2.633-1.633,4.566-2.833,5.8-3.6c2.1-1.4,3.617-2.667,4.55-3.8
			c2.7-3.333,4.45-6.933,5.25-10.8l0.35-4.8l1.851,0.15C92.384,88.917,91.1,93.817,88.8,97.75z"/>
		<g>
			
				<radialGradient id="SVGID_7_" cx="74" cy="-4.25" r="65.6" gradientTransform="matrix(-1 0 0 -0.5953 148 -6.7799)" gradientUnits="userSpaceOnUse">
				<stop  offset="0" style="stop-color:#8C80B3"/>
				<stop  offset="0.1647" style="stop-color:#7463A1"/>
				<stop  offset="0.3686" style="stop-color:#5B468E"/>
				<stop  offset="0.4863" style="stop-color:#523B87"/>
				<stop  offset="1" style="stop-color:#471A54"/>
			</radialGradient>
			<path style="fill-rule:evenodd;clip-rule:evenodd;fill:url(#SVGID_7_);" d="M107.5,12.4c10.066,8.567,16.033,18.167,17.9,28.8
				c1.5,8.733-3.067,16.216-13.7,22.45c-10.066,5.867-22.05,8.8-35.95,8.8c-13.7,0-25.167-2.934-34.4-8.8
				c-9.6-6.133-13.633-13.617-12.1-22.45c1.8-10.367,7.617-19.767,17.45-28.2c10-8.6,20.5-12.933,31.5-13
				C87.9-0.067,97.667,4.067,107.5,12.4z"/>
			
				<radialGradient id="SVGID_8_" cx="0.3955" cy="121.3208" r="26.0307" gradientTransform="matrix(0.8793 -0.4764 -0.4591 -0.5551 134.4977 162.6352)" gradientUnits="userSpaceOnUse">
				<stop  offset="0" style="stop-color:#9B80A7"/>
				<stop  offset="0.1647" style="stop-color:#846396"/>
				<stop  offset="0.3686" style="stop-color:#6C4684"/>
				<stop  offset="0.4863" style="stop-color:#633B7D"/>
				<stop  offset="1" style="stop-color:#471A54"/>
			</radialGradient>
			<path style="fill-rule:evenodd;clip-rule:evenodd;fill:url(#SVGID_8_);" d="M86.55,54.55c3.4,0.667,6.467,1.617,9.2,2.85
				c2.733,1.3,4.134,2.434,4.2,3.4c0.166,2.2,0.116,4.05-0.15,5.55c-0.333,2.1-1.283,5.433-2.85,10
				c-1.8,5.233-4.983,10.117-9.55,14.65c-3.934,3.867-6.567,5.667-7.9,5.4c-0.1-0.033,0.5-1.7,1.8-5c1.6-4.133,2.017-8,1.25-11.6
				c-0.933-4.3-3.167-8.883-6.7-13.75c-3-4.167-4.4-6.7-4.2-7.6C72.683,54.15,77.65,52.85,86.55,54.55z"/>
			
				<radialGradient id="SVGID_9_" cx="23.5728" cy="70.8086" r="27.2572" gradientTransform="matrix(0.9782 0.2077 0.2252 -0.6911 -38.0025 116.6392)" gradientUnits="userSpaceOnUse">
				<stop  offset="0" style="stop-color:#9B80A7"/>
				<stop  offset="0.1647" style="stop-color:#846396"/>
				<stop  offset="0.3686" style="stop-color:#6C4684"/>
				<stop  offset="0.4863" style="stop-color:#633B7D"/>
				<stop  offset="1" style="stop-color:#471A54"/>
			</radialGradient>
			<path style="fill-rule:evenodd;clip-rule:evenodd;fill:url(#SVGID_9_);" d="M26.75,48.35c2.033-5.167,3.55-8.017,4.55-8.55
				c4.8-2.566,9.25-0.267,13.35,6.9c1.6,2.733,2.667,5.466,3.2,8.2c0.566,2.767,0.4,4.55-0.5,5.35c-2.033,1.8-3.833,3.167-5.4,4.1
				c-2.267,1.367-6.083,3.267-11.45,5.7c-6.167,2.8-12.9,4.417-20.2,4.85C4.033,75.233,0.6,74.85,0,73.75
				c-0.033-0.067,1.95-0.917,5.95-2.55c4.966-2.067,8.933-4.733,11.9-8C21.383,59.333,24.35,54.383,26.75,48.35z"/>
			
				<radialGradient id="SVGID_10_" cx="-2.9053" cy="151.5547" r="34.6289" gradientTransform="matrix(0.7598 -0.6501 -0.7472 -0.5757 235.9009 181.7692)" gradientUnits="userSpaceOnUse">
				<stop  offset="0" style="stop-color:#9B80A7"/>
				<stop  offset="0.1647" style="stop-color:#846396"/>
				<stop  offset="0.3686" style="stop-color:#6C4684"/>
				<stop  offset="0.4863" style="stop-color:#633B7D"/>
				<stop  offset="1" style="stop-color:#471A54"/>
			</radialGradient>
			<path style="fill-rule:evenodd;clip-rule:evenodd;fill:url(#SVGID_10_);" d="M97.1,63c-1.1-3.967,2.534-5.25,10.9-3.85
				c3.233,0.5,6.283,1.3,9.15,2.4c2.933,1.133,4.666,2.15,5.199,3.05c1.167,2.066,1.983,3.767,2.45,5.1
				c0.667,1.933,1.384,4.983,2.15,9.15c0.899,4.867,0.45,9.4-1.351,13.6c-1.566,3.633-3,5.35-4.3,5.15
				c-0.066,0-0.316-1.533-0.75-4.6c-0.5-3.8-1.916-7.35-4.25-10.65c-2.767-3.934-6.8-8.1-12.1-12.5
				C99.7,66.117,97.333,63.833,97.1,63z"/>
			
				<radialGradient id="SVGID_11_" cx="-96.2471" cy="-108.8076" r="29.4546" gradientTransform="matrix(-0.8946 0.4469 -0.4418 -0.5801 19.0295 24.9883)" gradientUnits="userSpaceOnUse">
				<stop  offset="0" style="stop-color:#9B80A7"/>
				<stop  offset="0.1647" style="stop-color:#846396"/>
				<stop  offset="0.3686" style="stop-color:#6C4684"/>
				<stop  offset="0.4863" style="stop-color:#633B7D"/>
				<stop  offset="1" style="stop-color:#471A54"/>
			</radialGradient>
			<path style="fill-rule:evenodd;clip-rule:evenodd;fill:url(#SVGID_11_);" d="M123.8,40.05c-0.633-0.367-1.75-2.25-3.35-5.65
				c-2.066-4.3-3.816-7.517-5.25-9.65c-0.566-0.8,0.666,0.2,3.7,3c1.8,1.667,4.949,4.617,9.449,8.85
				c2.233,2.066,4.517,3.683,6.851,4.85c2.066,1.033,4.383,1.8,6.95,2.3c1.366,0.3,3.633,0.533,6.8,0.7
				c2.066,0.133,3.033,0.4,2.899,0.8c-0.633,1.667-2.883,3.1-6.75,4.3c-4.199,1.3-7.949,1.4-11.25,0.3
				c-2.767-0.934-5.066-2.717-6.899-5.35L123.8,40.05z"/>
			
				<radialGradient id="SVGID_12_" cx="18.0527" cy="52.644" r="38.7653" gradientTransform="matrix(0.9815 0.1912 0.1496 -0.5033 -22.9465 77.1964)" gradientUnits="userSpaceOnUse">
				<stop  offset="0" style="stop-color:#9B80A7"/>
				<stop  offset="0.1647" style="stop-color:#846396"/>
				<stop  offset="0.3686" style="stop-color:#6C4684"/>
				<stop  offset="0.4863" style="stop-color:#633B7D"/>
				<stop  offset="1" style="stop-color:#471A54"/>
			</radialGradient>
			<path style="fill-rule:evenodd;clip-rule:evenodd;fill:url(#SVGID_12_);" d="M36.15,26.15c-0.8,2.667-1.2,6.217-1.2,10.65
				c-0.034,3.667-0.284,5.717-0.75,6.15c-0.3,0.3-0.534,0.95-0.7,1.95c-0.267,1.767-0.433,2.817-0.5,3.15c-0.7,3-2.4,5.233-5.1,6.7
				c-3.267,1.8-7.717,2.483-13.35,2.05c-5.167-0.367-8.583-1.316-10.25-2.85c-0.4-0.367,0.583-0.817,2.95-1.35
				c3.6-0.867,6.117-1.567,7.55-2.1c6.767-2.633,11.217-6.267,13.35-10.9c1.367-2.9,2.883-5.617,4.55-8.15
				C34.733,28.383,35.883,26.617,36.15,26.15z"/>
			
				<radialGradient id="SVGID_13_" cx="157.5" cy="62.7998" r="46.45" gradientTransform="matrix(-1 0 0 -0.5953 315 100.1823)" gradientUnits="userSpaceOnUse">
				<stop  offset="0" style="stop-color:#9B80A7"/>
				<stop  offset="0.1647" style="stop-color:#846396"/>
				<stop  offset="0.3686" style="stop-color:#6C4684"/>
				<stop  offset="0.4863" style="stop-color:#633B7D"/>
				<stop  offset="1" style="stop-color:#471A54"/>
			</radialGradient>
			<path style="fill-rule:evenodd;clip-rule:evenodd;fill:url(#SVGID_13_);" d="M125.05,38.1c4.733,5.4,10.684,9.917,17.851,13.55
				c7.133,3.633,11.3,6.833,12.5,9.6c0.533,1.267,0.6,1.933,0.199,2c-0.267,0.033-0.767-0.2-1.5-0.7
				c-0.899-0.633-1.8-1.167-2.699-1.6c-1.7-0.8-3.684-1.284-5.95-1.45c-2.967,0.133-5.066,0.15-6.3,0.05
				c-1.967-0.133-4.117-1.183-6.45-3.15c-2.467-2.1-4.7-6.05-6.7-11.85c-0.733-2.167-1.217-3.933-1.45-5.3
				C124.35,37.883,124.517,37.5,125.05,38.1z"/>
			
				<radialGradient id="SVGID_14_" cx="-119.1313" cy="9.4795" r="24.7503" gradientTransform="matrix(-0.604 -0.797 0.7096 -0.3525 1.9144 -0.9519)" gradientUnits="userSpaceOnUse">
				<stop  offset="0" style="stop-color:#9B80A7"/>
				<stop  offset="0.1647" style="stop-color:#846396"/>
				<stop  offset="0.3686" style="stop-color:#6C4684"/>
				<stop  offset="0.4863" style="stop-color:#633B7D"/>
				<stop  offset="1" style="stop-color:#471A54"/>
			</radialGradient>
			<path style="fill-rule:evenodd;clip-rule:evenodd;fill:url(#SVGID_14_);" d="M89,56c-0.066,1.3-0.616,3.7-1.65,7.2
				c-1,3.333-1.5,6.4-1.5,9.2c-0.033,3.633-0.533,6.883-1.5,9.75c-0.866,2.633-2.016,4.684-3.45,6.15
				c-1.1,1.167-1.667,1.583-1.7,1.25c0.2-0.733,0.316-1.3,0.35-1.7c0.233-1.767,0.333-2.817,0.3-3.15
				c-0.067-1.833-0.684-3.7-1.85-5.6c-1.967-2.267-3.25-3.917-3.85-4.95c-1.033-1.667-1.083-4.017-0.15-7.05
				c1.067-3.4,3.867-6.583,8.4-9.55c1.8-1.2,3.333-1.966,4.6-2.3C88.366,54.917,89.033,55.167,89,56z"/>
			
				<radialGradient id="SVGID_15_" cx="149.7002" cy="84.25" r="48.45" gradientTransform="matrix(-1 0 0 -0.6146 299.4004 136.0259)" gradientUnits="userSpaceOnUse">
				<stop  offset="0" style="stop-color:#9B80A7"/>
				<stop  offset="0.1647" style="stop-color:#84639B"/>
				<stop  offset="0.3686" style="stop-color:#6C468F"/>
				<stop  offset="0.4863" style="stop-color:#633B8A"/>
				<stop  offset="1" style="stop-color:#471A54"/>
			</radialGradient>
			<path style="fill-rule:evenodd;clip-rule:evenodd;fill:url(#SVGID_15_);" d="M109.6,53.7c0.733-2.133,1.851-4.133,3.351-6
				c3.899-4.8,7.6-5.55,11.1-2.25c1.2,1.167,2.983,4.15,5.351,8.95c2.8,5.667,5.283,10,7.449,13c1.867,2.567,4.517,5.75,7.95,9.55
				c2.066,2.3,2.95,3.7,2.65,4.2c-0.667,1.1-3.217,1.017-7.65-0.25c-4.267-1.2-8.684-2.983-13.25-5.35
				c-5.333-2.767-9.483-5.983-12.45-9.65c-0.5-0.6-2.1-3.117-4.8-7.55C108.767,57.417,108.866,55.867,109.6,53.7z"/>
			
				<radialGradient id="SVGID_16_" cx="-16.5361" cy="92.938" r="62.3521" gradientTransform="matrix(0.9669 -0.2552 -0.1383 -0.4198 41.995 127.4446)" gradientUnits="userSpaceOnUse">
				<stop  offset="0" style="stop-color:#9B80A7"/>
				<stop  offset="0.1647" style="stop-color:#846396"/>
				<stop  offset="0.3686" style="stop-color:#6C4684"/>
				<stop  offset="0.4863" style="stop-color:#633B7D"/>
				<stop  offset="1" style="stop-color:#471A54"/>
			</radialGradient>
			<path style="fill-rule:evenodd;clip-rule:evenodd;fill:url(#SVGID_16_);" d="M39.4,77.4c-5,3.6-9.967,6.617-14.9,9.05
				c-5.2,2.566-8.35,3.466-9.45,2.7c-0.5-0.333,0.2-1.833,2.1-4.5c3.133-4.433,5.483-8.1,7.05-11
				c1.867-3.367,3.716-7.983,5.55-13.85c1.567-5.033,2.917-8.25,4.05-9.65c3.4-4.066,8.233-4.633,14.5-1.7
				c2.4,1.133,4.367,2.533,5.9,4.2c1.533,1.633,2.083,2.95,1.65,3.95c-1.867,4.533-3.1,7.283-3.7,8.25
				C49.483,69.05,45.233,73.233,39.4,77.4z"/>
			
				<radialGradient id="SVGID_17_" cx="152.75" cy="65.3999" r="39.9" gradientTransform="matrix(-1 0 0 -0.5952 305.5 104.3284)" gradientUnits="userSpaceOnUse">
				<stop  offset="0" style="stop-color:#9B80A7"/>
				<stop  offset="0.1647" style="stop-color:#846396"/>
				<stop  offset="0.3686" style="stop-color:#6C4684"/>
				<stop  offset="0.4863" style="stop-color:#633B7D"/>
				<stop  offset="1" style="stop-color:#471A54"/>
			</radialGradient>
			<path style="fill-rule:evenodd;clip-rule:evenodd;fill:url(#SVGID_17_);" d="M131.75,46.85c0.833,1.1,3.116,3.683,6.85,7.75
				c1.367,1.467,4.051,3.816,8.051,7.05c3.033,2.4,4.416,3.783,4.149,4.15c-0.733,1.034-4.517,0.617-11.35-1.25
				c-7.334-2-12.584-4.583-15.75-7.75c-2.834-2.867-5.101-6.033-6.8-9.5c-1.334-3.267-2.233-5.316-2.7-6.15
				c-0.233-0.433,0.166-1.1,1.2-2c1.5-1.3,2.517-2.367,3.05-3.2c2.399-3.733,1.217-8.867-3.55-15.4c2.8,2.133,6.633,8.05,11.5,17.75
				C128.1,41.667,129.884,44.517,131.75,46.85z"/>
			
				<radialGradient id="SVGID_18_" cx="-26.1567" cy="140.8457" r="34.1632" gradientTransform="matrix(0.6334 -0.7739 -0.5953 -0.3194 210.3123 112.847)" gradientUnits="userSpaceOnUse">
				<stop  offset="0" style="stop-color:#9B80A7"/>
				<stop  offset="0.1647" style="stop-color:#846396"/>
				<stop  offset="0.3686" style="stop-color:#6C4684"/>
				<stop  offset="0.4863" style="stop-color:#633B7D"/>
				<stop  offset="1" style="stop-color:#471A54"/>
			</radialGradient>
			<path style="fill-rule:evenodd;clip-rule:evenodd;fill:url(#SVGID_18_);" d="M103.85,50.2c6.567,0.367,10.684,2.5,12.351,6.4
				c0.3,0.633,1.033,2.183,2.2,4.65c1,2.8,1.283,5.9,0.85,9.3c-0.434,3.434-1.533,6.867-3.3,10.3c-1.767,3.367-3.45,5.333-5.05,5.9
				c-0.167,0.067-0.317-0.733-0.45-2.4c-0.167-2.367-0.533-4.434-1.101-6.2c-1.6-5.3-4.483-10.267-8.649-14.9
				c-2.934-3.267-4.601-5.167-5-5.7c-0.601-0.833-0.967-1.883-1.101-3.15c-0.166-1.433,0.7-2.533,2.601-3.3
				C98.967,50.367,101.184,50.067,103.85,50.2z"/>
			
				<radialGradient id="SVGID_19_" cx="-123.4795" cy="-25.1533" r="43.3706" gradientTransform="matrix(-0.72 -0.694 0.5776 -0.3928 -6.7218 4.5726)" gradientUnits="userSpaceOnUse">
				<stop  offset="0" style="stop-color:#9B80A7"/>
				<stop  offset="0.1647" style="stop-color:#84639B"/>
				<stop  offset="0.3686" style="stop-color:#6C468F"/>
				<stop  offset="0.4863" style="stop-color:#633B8A"/>
				<stop  offset="1" style="stop-color:#471A54"/>
			</radialGradient>
			<path style="fill-rule:evenodd;clip-rule:evenodd;fill:url(#SVGID_19_);" d="M80.25,55.9c0.667,1.8,0.833,3.4,0.5,4.8
				c-0.5,2.066-2.1,4.933-4.8,8.6c-4.567,6.167-7.534,12.483-8.9,18.95c-0.466,2.167-0.667,4.667-0.6,7.5
				c0.033,2-0.067,2.967-0.3,2.9c-2-0.433-4.25-2.517-6.75-6.25c-2.566-3.833-4.283-7.75-5.15-11.75c-0.867-3.9-0.867-7.6,0-11.1
				c1.167-3.1,1.867-5.05,2.1-5.85c2.033-6.833,6.066-11.15,12.1-12.95c2.6-0.767,4.95-0.733,7.05,0.1
				C77.767,51.75,79.35,53.433,80.25,55.9z"/>
			
				<radialGradient id="SVGID_20_" cx="-26.9136" cy="-127.8091" r="13.7201" gradientTransform="matrix(-0.5977 0.8017 -1.1006 -0.5375 -23.7995 -11.6238)" gradientUnits="userSpaceOnUse">
				<stop  offset="0" style="stop-color:#9B80A7"/>
				<stop  offset="0.1647" style="stop-color:#84639B"/>
				<stop  offset="0.3686" style="stop-color:#6C468F"/>
				<stop  offset="0.4863" style="stop-color:#633B8A"/>
				<stop  offset="1" style="stop-color:#471A54"/>
			</radialGradient>
			<path style="fill-rule:evenodd;clip-rule:evenodd;fill:url(#SVGID_20_);" d="M124.5,36.2c-3.467-0.467-6.017-1.417-7.65-2.85
				c-0.666-0.633-0.85-1.967-0.55-4c0.334-2.233,1.4-3.167,3.2-2.8c0.866,1.2,1.816,2.583,2.85,4.15
				c0.934,1.1,2.467,2.167,4.601,3.2c0.666,0.333,1.633,0.717,2.899,1.15c0.801,0.267,1.15,0.467,1.051,0.6
				C128.267,36.217,126.134,36.4,124.5,36.2z"/>
			
				<radialGradient id="SVGID_21_" cx="-97.8481" cy="-105.0537" r="33.3474" gradientTransform="matrix(-0.999 0.0457 -0.0618 -0.8756 0.9067 12.8362)" gradientUnits="userSpaceOnUse">
				<stop  offset="0" style="stop-color:#9B80A7"/>
				<stop  offset="0.1647" style="stop-color:#84639B"/>
				<stop  offset="0.3686" style="stop-color:#6C468F"/>
				<stop  offset="0.4863" style="stop-color:#633B8A"/>
				<stop  offset="1" style="stop-color:#471A54"/>
			</radialGradient>
			<path style="fill-rule:evenodd;clip-rule:evenodd;fill:url(#SVGID_21_);" d="M90.25,62.4c1.2-1.566,2.733-2.767,4.6-3.6
				c5.067-2.3,8.934-0.517,11.601,5.35c1.533,3.4,2.434,7.567,2.7,12.5c0.366,6.267-0.483,12.467-2.551,18.6
				c-0.533,1.533-0.916,2.517-1.149,2.95c-0.467,0.733-1.066,1.117-1.8,1.15c-0.334,0.033-1.384-1.533-3.15-4.7
				c-1.866-3.333-3.5-6.583-4.9-9.75c-1.699-3.833-3.116-7.85-4.25-12.05c-0.966-3.7-1.699-5.983-2.199-6.85
				C88.684,65.133,89.05,63.933,90.25,62.4z"/>
			
				<radialGradient id="SVGID_22_" cx="-93.0474" cy="-95.4575" r="22.1677" gradientTransform="matrix(-0.9755 0.2199 -0.318 -0.9248 0.8732 2.5364)" gradientUnits="userSpaceOnUse">
				<stop  offset="0" style="stop-color:#9B80A7"/>
				<stop  offset="0.1647" style="stop-color:#84639B"/>
				<stop  offset="0.3686" style="stop-color:#6C468F"/>
				<stop  offset="0.4863" style="stop-color:#633B8A"/>
				<stop  offset="1" style="stop-color:#471A54"/>
			</radialGradient>
			<path style="fill-rule:evenodd;clip-rule:evenodd;fill:url(#SVGID_22_);" d="M114.85,46.25c1,1.033,1.817,2.8,2.45,5.3
				c1.134,4.434,2.167,7.934,3.101,10.5c0.267,0.767,0.866,2.117,1.8,4.05c0.434,0.9,0.416,1.267-0.05,1.1
				c-4.301-1.567-8.284-4.1-11.95-7.6c-2.634-2.533-4.384-4.583-5.25-6.15c-0.601-1.5-1.084-2.65-1.45-3.45
				c-0.233-0.533-0.066-1.333,0.5-2.4c0.6-1.133,1.4-2.067,2.4-2.8C109.233,42.8,112.05,43.283,114.85,46.25z"/>
			
				<radialGradient id="SVGID_23_" cx="-129.0728" cy="5.3584" r="36.5459" gradientTransform="matrix(-0.7515 -0.6598 0.4953 -0.3663 1.7542 -1.2982)" gradientUnits="userSpaceOnUse">
				<stop  offset="0" style="stop-color:#9B80A7"/>
				<stop  offset="0.1647" style="stop-color:#846396"/>
				<stop  offset="0.3686" style="stop-color:#6C4684"/>
				<stop  offset="0.4863" style="stop-color:#633B7D"/>
				<stop  offset="1" style="stop-color:#471A54"/>
			</radialGradient>
			<path style="fill-rule:evenodd;clip-rule:evenodd;fill:url(#SVGID_23_);" d="M99,46.9c1.566,1.1,2.717,2.4,3.45,3.9
				c0.633,1.333,0.85,2.684,0.649,4.05c-0.033,0.233-0.366,1.483-1,3.75c-0.399,1.5-0.699,3.367-0.899,5.6
				c-0.134,1.267-0.316,3.183-0.55,5.75c-0.233,1.867-0.2,4.333,0.1,7.4c0.167,2.066,0.017,3.117-0.45,3.15
				c-1.267,0.133-3.75-1.85-7.45-5.95c-4.033-4.5-6.8-8.833-8.3-13c-0.8-2.233-1.267-3.767-1.399-4.6c-0.167-1-0.084-2.167,0.25-3.5
				c0.199-0.667,1.35-1.75,3.449-3.25c2.301-1.667,3.584-2.7,3.851-3.1c0.934-1.3,2.217-1.934,3.85-1.9
				C95.983,45.267,97.467,45.833,99,46.9z"/>
			
				<radialGradient id="SVGID_24_" cx="-89.7563" cy="-65.3994" r="32.2398" gradientTransform="matrix(-0.867 -0.4982 0.673 -0.7663 -0.0124 0.0136)" gradientUnits="userSpaceOnUse">
				<stop  offset="0" style="stop-color:#9B80A7"/>
				<stop  offset="0.1647" style="stop-color:#846396"/>
				<stop  offset="0.3686" style="stop-color:#6C4684"/>
				<stop  offset="0.4863" style="stop-color:#633B7D"/>
				<stop  offset="1" style="stop-color:#471A54"/>
			</radialGradient>
			<path style="fill-rule:evenodd;clip-rule:evenodd;fill:url(#SVGID_24_);" d="M38.45,81.3c3.767-8.767,6.433-15.566,8-20.4
				c0.3-0.867,1.45-1.583,3.45-2.15c2.067-0.6,4.117-0.767,6.15-0.5c5.467,0.733,7,3.933,4.6,9.6c-2.066,4.967-4.033,8.667-5.9,11.1
				c-4,5.333-9.583,9.583-16.75,12.75c-1.267,0.566-2.483,0.95-3.65,1.15c-1.033,0.2-1.633,0.2-1.8,0c-0.1-0.1,0.5-1.267,1.8-3.5
				C36.083,86.35,37.45,83.667,38.45,81.3z"/>
			
				<radialGradient id="SVGID_25_" cx="-63.999" cy="29.269" r="21.224" gradientTransform="matrix(0.2156 -0.9765 1.8305 0.265 -24.5315 -3.5522)" gradientUnits="userSpaceOnUse">
				<stop  offset="0" style="stop-color:#9B80A7"/>
				<stop  offset="0.1647" style="stop-color:#846396"/>
				<stop  offset="0.3686" style="stop-color:#6C4684"/>
				<stop  offset="0.4863" style="stop-color:#633B7D"/>
				<stop  offset="1" style="stop-color:#471A54"/>
			</radialGradient>
			<path style="fill-rule:evenodd;clip-rule:evenodd;fill:url(#SVGID_25_);" d="M35.55,43.65c4.167-1.633,8.6-0.917,13.3,2.15
				c1.867,1.2,3.117,2.483,3.75,3.85c0.667,1.434,0.383,2.55-0.85,3.35c-1.1,0.733-2.15,1.217-3.15,1.45
				c-0.767,0.167-3.367,0.55-7.8,1.15c-6.533,0.867-12.35,2.566-17.45,5.1c-1.767,0.833-3.633,1.966-5.6,3.4
				c-1.367,0.967-2.083,1.383-2.15,1.25c-0.633-1.133-0.233-3.2,1.2-6.2c1.467-3.066,3.4-5.8,5.8-8.2
				c2.367-2.333,4.983-4.15,7.85-5.45C31.983,44.833,33.683,44.217,35.55,43.65z"/>
			
				<radialGradient id="SVGID_26_" cx="18.8086" cy="75.0688" r="33.4051" gradientTransform="matrix(0.9976 -0.0692 -0.0531 -0.5033 11.8752 112.4834)" gradientUnits="userSpaceOnUse">
				<stop  offset="0" style="stop-color:#9B80A7"/>
				<stop  offset="0.1647" style="stop-color:#84639B"/>
				<stop  offset="0.3686" style="stop-color:#6C468F"/>
				<stop  offset="0.4863" style="stop-color:#633B8A"/>
				<stop  offset="1" style="stop-color:#471A54"/>
			</radialGradient>
			<path style="fill-rule:evenodd;clip-rule:evenodd;fill:url(#SVGID_26_);" d="M46.35,47.25c1.1-0.833,2.467-0.95,4.1-0.35
				c1.566,0.567,2.983,1.617,4.25,3.15c3.2,3.733,3.633,7.1,1.3,10.1c-0.367,0.467-1.267,1.684-2.7,3.65
				c-1.8,2.034-4.2,3.833-7.2,5.4c-3.067,1.6-6.483,2.816-10.25,3.65c-3.767,0.833-6.3,0.967-7.6,0.4
				c-0.133-0.067,0.45-0.567,1.75-1.5c1.867-1.333,3.383-2.633,4.55-3.9c3.5-3.7,6.067-7.9,7.7-12.6
				c1.133-3.267,1.833-5.167,2.1-5.7C44.717,48.783,45.383,48.017,46.35,47.25z"/>
			
				<radialGradient id="SVGID_27_" cx="-95.2075" cy="-95.6934" r="20.2823" gradientTransform="matrix(-0.9935 0.114 -0.236 -1.6936 -9.374 -67.2612)" gradientUnits="userSpaceOnUse">
				<stop  offset="0" style="stop-color:#9B80A7"/>
				<stop  offset="0.1647" style="stop-color:#84639B"/>
				<stop  offset="0.3686" style="stop-color:#6C468F"/>
				<stop  offset="0.4863" style="stop-color:#633B8A"/>
				<stop  offset="1" style="stop-color:#471A54"/>
			</radialGradient>
			<path style="fill-rule:evenodd;clip-rule:evenodd;fill:url(#SVGID_27_);" d="M102.8,48.05c0.8,1.4,1.267,3.017,1.4,4.85
				c0.133,1.7,0.116,5.3-0.05,10.8c-0.034,1-0.017,2.133,0.05,3.4c0.033,0.833-0.15,1.267-0.55,1.3c-0.2,0.033-1.184-0.9-2.95-2.8
				c-1.9-2.033-3.351-3.8-4.351-5.3c-3.3-5.066-4.683-8.816-4.149-11.25c0.366-1.633,1.7-2.917,4-3.85
				C98.9,44.067,101.1,45.017,102.8,48.05z"/>
			
				<radialGradient id="SVGID_28_" cx="-75.8545" cy="-114.3564" r="19.3494" gradientTransform="matrix(-0.9005 0.4348 -0.8954 -1.2158 -33.4013 -45.3549)" gradientUnits="userSpaceOnUse">
				<stop  offset="0" style="stop-color:#9B80A7"/>
				<stop  offset="0.1647" style="stop-color:#84639B"/>
				<stop  offset="0.3686" style="stop-color:#6C468F"/>
				<stop  offset="0.4863" style="stop-color:#633B8A"/>
				<stop  offset="1" style="stop-color:#471A54"/>
			</radialGradient>
			<path style="fill-rule:evenodd;clip-rule:evenodd;fill:url(#SVGID_28_);" d="M126.3,47.1c0.367,0.733,0.834,1.566,1.4,2.5
				c0.3,0.566,0.283,0.933-0.05,1.1c-0.167,0.1-1.417-0.25-3.75-1.05c-2.5-0.867-4.483-1.683-5.95-2.45
				c-4.934-2.6-7.601-4.867-8-6.8c-0.267-1.3,0.467-2.683,2.2-4.15c2.033-1.7,4.383-1.733,7.05-0.1
				c1.233,0.767,2.267,1.783,3.1,3.05C123.066,40.433,124.4,43.067,126.3,47.1z"/>
			
				<radialGradient id="SVGID_29_" cx="53.3721" cy="71.7075" r="22.2558" gradientTransform="matrix(0.9694 0.2454 0.6195 -1.5569 -71.1625 178.8414)" gradientUnits="userSpaceOnUse">
				<stop  offset="0" style="stop-color:#9B80A7"/>
				<stop  offset="0.1647" style="stop-color:#84639B"/>
				<stop  offset="0.3686" style="stop-color:#6C468F"/>
				<stop  offset="0.4863" style="stop-color:#633B8A"/>
				<stop  offset="1" style="stop-color:#471A54"/>
			</radialGradient>
			<path style="fill-rule:evenodd;clip-rule:evenodd;fill:url(#SVGID_29_);" d="M47.35,42.1c2.3,1.333,3.45,2.867,3.45,4.6
				c0,1.167-0.433,2.466-1.3,3.9c-1.167,1.933-3.183,4.283-6.05,7.05c-1.434,1.367-3.467,2.967-6.1,4.8
				c-2.4,1.667-3.717,2.483-3.95,2.45c-0.4-0.1-0.483-0.566-0.25-1.4c0.4-1.333,0.7-2.517,0.9-3.55
				c1.167-5.667,2.034-9.367,2.6-11.1c0.633-1.867,1.55-3.467,2.75-4.8C42,41.217,44.65,40.567,47.35,42.1z"/>
			
				<radialGradient id="SVGID_30_" cx="43.4233" cy="20.2266" r="15.2117" gradientTransform="matrix(0.7404 0.6722 1.3592 -0.9828 -44.2414 31.9908)" gradientUnits="userSpaceOnUse">
				<stop  offset="0" style="stop-color:#9B80A7"/>
				<stop  offset="0.1647" style="stop-color:#84639B"/>
				<stop  offset="0.3686" style="stop-color:#6C468F"/>
				<stop  offset="0.4863" style="stop-color:#633B8A"/>
				<stop  offset="1" style="stop-color:#471A54"/>
			</radialGradient>
			<path style="fill-rule:evenodd;clip-rule:evenodd;fill:url(#SVGID_30_);" d="M41.45,27.95c0.933,2.167,1.083,3.733,0.45,4.7
				c-0.333,0.5-1,0.9-2,1.2c-0.367,0.1-2.383,0.55-6.05,1.35c-1.367,0.3-3.2,0.383-5.5,0.25c-2.033-0.1-3.133-0.233-3.3-0.4
				c-0.2-0.167,0.167-0.466,1.1-0.9c1.467-0.7,2.583-1.333,3.35-1.9c1.867-1.367,3.4-2.883,4.6-4.55
				c0.933-1.267,1.767-2.017,2.5-2.25C38.8,24.717,40.417,25.55,41.45,27.95z"/>
			
				<radialGradient id="SVGID_31_" cx="-24.5049" cy="105.3965" r="27.2739" gradientTransform="matrix(0.8231 -0.5679 -0.5064 -0.4812 131.4471 124.9047)" gradientUnits="userSpaceOnUse">
				<stop  offset="0" style="stop-color:#9B80A7"/>
				<stop  offset="0.1647" style="stop-color:#846396"/>
				<stop  offset="0.3686" style="stop-color:#6C4684"/>
				<stop  offset="0.4863" style="stop-color:#633B7D"/>
				<stop  offset="1" style="stop-color:#471A54"/>
			</radialGradient>
			<path style="fill-rule:evenodd;clip-rule:evenodd;fill:url(#SVGID_31_);" d="M66.3,52.1c0.567-1.567,2.2-0.667,4.9,2.7
				c2.767,3.467,4.017,6.7,3.75,9.7c-0.233,2.7-1.034,4.617-2.4,5.75c-1.966,1.1-3.583,2.167-4.85,3.2
				c-1.567,1.333-2.684,2.75-3.35,4.25c-0.367,0.8-0.633,1.667-0.8,2.6c-0.1,0.333-0.183,0.833-0.25,1.5
				c-0.133,0.233-0.466-0.233-1-1.4c-0.7-1.533-0.983-3.467-0.85-5.8c0.167-2.567,0.833-5.333,2-8.3c0.933-2.3,1.533-4.933,1.8-7.9
				C65.55,55.3,65.9,53.2,66.3,52.1z"/>
			
				<radialGradient id="SVGID_32_" cx="58.1387" cy="75.2339" r="34.8688" gradientTransform="matrix(0.9941 0.1086 0.0534 -0.8837 -8.5633 141.667)" gradientUnits="userSpaceOnUse">
				<stop  offset="0" style="stop-color:#9B80A7"/>
				<stop  offset="0.1647" style="stop-color:#84639B"/>
				<stop  offset="0.3686" style="stop-color:#6C468F"/>
				<stop  offset="0.4863" style="stop-color:#633B8A"/>
				<stop  offset="1" style="stop-color:#471A54"/>
			</radialGradient>
			<path style="fill-rule:evenodd;clip-rule:evenodd;fill:url(#SVGID_32_);" d="M53.05,48.9c2.767-4.367,6.85-5.483,12.25-3.35
				c1.967,0.8,3.684,1.883,5.15,3.25c1.433,1.3,2.083,2.317,1.95,3.05c-0.2,1.1-0.417,2.7-0.65,4.8c-0.6,2.233-2.217,5.233-4.85,9
				c-3.7,5.2-8.233,9.15-13.6,11.85c-0.566,0.3-0.716-0.183-0.45-1.45c0.5-2.733,0.8-4.633,0.9-5.7
				c0.367-4.567,0.05-9.317-0.95-14.25C52.133,52.633,52.217,50.233,53.05,48.9z"/>
			
				<radialGradient id="SVGID_33_" cx="27.6528" cy="95.7935" r="41.0143" gradientTransform="matrix(0.9445 -0.3285 -0.3596 -0.676 79.9825 150.3401)" gradientUnits="userSpaceOnUse">
				<stop  offset="0" style="stop-color:#9B80A7"/>
				<stop  offset="0.1647" style="stop-color:#846396"/>
				<stop  offset="0.3686" style="stop-color:#6C4684"/>
				<stop  offset="0.4863" style="stop-color:#633B7D"/>
				<stop  offset="1" style="stop-color:#471A54"/>
			</radialGradient>
			<path style="fill-rule:evenodd;clip-rule:evenodd;fill:url(#SVGID_33_);" d="M86.5,40.65c1.866,1.267,2.8,2.417,2.8,3.45
				c0.066,2.333-0.05,4.267-0.35,5.8c-0.4,2.033-1.384,5.25-2.95,9.65c-1.8,5-4.767,9.267-8.9,12.8
				c-3.567,3.033-5.934,4.233-7.1,3.6c-0.067-0.034,0.533-1.6,1.8-4.7c1.6-3.9,2.15-7.817,1.65-11.75
				c-0.6-4.567-1.583-8.75-2.95-12.55c-0.967-2.667-1.317-4.5-1.05-5.5c1.1-4.2,4.7-5.434,10.8-3.7
				C82.617,38.383,84.7,39.35,86.5,40.65z"/>
			
				<radialGradient id="SVGID_34_" cx="-82.5439" cy="-61.7456" r="16.702" gradientTransform="matrix(-0.9684 -0.2492 0.6736 -1.6907 18.5512 -46.5621)" gradientUnits="userSpaceOnUse">
				<stop  offset="0" style="stop-color:#9B80A7"/>
				<stop  offset="0.1647" style="stop-color:#84639B"/>
				<stop  offset="0.3686" style="stop-color:#6C468F"/>
				<stop  offset="0.4863" style="stop-color:#633B8A"/>
				<stop  offset="1" style="stop-color:#471A54"/>
			</radialGradient>
			<path style="fill-rule:evenodd;clip-rule:evenodd;fill:url(#SVGID_34_);" d="M68.65,48.9c-0.033,1.333-0.383,2.733-1.05,4.2
				c-0.633,1.433-2.2,4.233-4.7,8.4c-0.433,0.767-0.9,1.667-1.4,2.7c-0.367,0.633-0.7,0.917-1,0.85c-0.167-0.066-0.5-1.1-1-3.1
				c-0.567-2.167-0.9-3.967-1-5.4c-0.3-4.9,0.283-8.25,1.75-10.05c0.967-1.133,2.533-1.733,4.7-1.8
				C67.45,44.633,68.683,46.033,68.65,48.9z"/>
			
				<radialGradient id="SVGID_35_" cx="-98.3101" cy="-69.834" r="14.1421" gradientTransform="matrix(-0.9899 0.1414 -0.4022 -1.7934 -12.7576 -56.8867)" gradientUnits="userSpaceOnUse">
				<stop  offset="0" style="stop-color:#9B80A7"/>
				<stop  offset="0.1647" style="stop-color:#84639B"/>
				<stop  offset="0.3686" style="stop-color:#6C468F"/>
				<stop  offset="0.4863" style="stop-color:#633B8A"/>
				<stop  offset="1" style="stop-color:#471A54;stop-opacity:0"/>
			</radialGradient>
			<path style="fill-rule:evenodd;clip-rule:evenodd;fill:url(#SVGID_35_);" d="M109.8,41.65c0.066,0.733,0.167,1.583,0.3,2.55
				c0.101,0.6,0,0.917-0.3,0.95c-0.133,0.033-0.883-0.633-2.25-2c-1.5-1.5-2.633-2.8-3.399-3.9c-2.667-3.667-3.9-6.417-3.7-8.25
				c0.166-1.2,1.033-2.167,2.6-2.9c1.8-0.867,3.4-0.184,4.8,2.05c0.634,1,1.067,2.184,1.301,3.55
				C109.35,34.967,109.566,37.617,109.8,41.65z"/>
			
				<radialGradient id="SVGID_36_" cx="52.3711" cy="44.7651" r="16.2414" gradientTransform="matrix(0.9274 0.374 0.9728 -1.5585 -67.6182 108.3281)" gradientUnits="userSpaceOnUse">
				<stop  offset="0" style="stop-color:#9B80A7"/>
				<stop  offset="0.1647" style="stop-color:#84639B"/>
				<stop  offset="0.3686" style="stop-color:#6C468F"/>
				<stop  offset="0.4863" style="stop-color:#633B8A"/>
				<stop  offset="1" style="stop-color:#471A54;stop-opacity:0"/>
			</radialGradient>
			<path style="fill-rule:evenodd;clip-rule:evenodd;fill:url(#SVGID_36_);" d="M45.15,32.9c1.467,1.2,2.067,2.467,1.8,3.8
				c-0.467,2-2.867,4.566-7.2,7.7c-1.3,0.934-3.067,2-5.3,3.2c-2.034,1.066-3.133,1.566-3.3,1.5c-0.3-0.133-0.3-0.5,0-1.1
				c0.533-1,0.95-1.883,1.25-2.65c1.8-4.233,3.05-6.983,3.75-8.25c0.767-1.367,1.7-2.5,2.8-3.4
				C41.35,31.733,43.417,31.467,45.15,32.9z"/>
			
				<radialGradient id="SVGID_37_" cx="-76.2451" cy="-33.7007" r="12.0198" gradientTransform="matrix(-0.8351 -0.5501 1.3613 -1.3166 21.0556 -20.3639)" gradientUnits="userSpaceOnUse">
				<stop  offset="0" style="stop-color:#9B80A7"/>
				<stop  offset="0.1647" style="stop-color:#84639B"/>
				<stop  offset="0.3686" style="stop-color:#6C468F"/>
				<stop  offset="0.4863" style="stop-color:#633B8A"/>
				<stop  offset="1" style="stop-color:#471A54"/>
			</radialGradient>
			<path style="fill-rule:evenodd;clip-rule:evenodd;fill:url(#SVGID_37_);" d="M56.55,49.2c-0.3,0.566-1.117,1.216-2.45,1.95
				c-1.8,1-3.467,2.233-5,3.7c-0.567,0.566-1.25,1.417-2.05,2.55c-0.533,0.7-0.883,0.983-1.05,0.85
				c-0.167-0.067-0.267-0.817-0.3-2.25c-0.034-1.6,0.15-2.883,0.55-3.85c1.233-3.2,3.017-5.383,5.35-6.55
				c0.933-0.5,2.167-0.45,3.7,0.15C57,46.417,57.417,47.567,56.55,49.2z"/>
			
				<radialGradient id="SVGID_38_" cx="67.3047" cy="61.5127" r="14.1088" gradientTransform="matrix(0.9985 0.0549 0.1453 -1.6187 -14.4408 160.8717)" gradientUnits="userSpaceOnUse">
				<stop  offset="0" style="stop-color:#9B80A7"/>
				<stop  offset="0.1647" style="stop-color:#84639B"/>
				<stop  offset="0.3686" style="stop-color:#6C468F"/>
				<stop  offset="0.4863" style="stop-color:#633B8A"/>
				<stop  offset="1" style="stop-color:#471A54"/>
			</radialGradient>
			<path style="fill-rule:evenodd;clip-rule:evenodd;fill:url(#SVGID_38_);" d="M63.55,40.55c0.867-1.833,2.284-2.5,4.25-2
				c1.733,0.467,2.75,1.184,3.05,2.15c0.7,2.433,0.033,5.3-2,8.6c-0.633,1-1.7,2.15-3.2,3.45c-1.333,1.1-2.117,1.65-2.35,1.65
				c-0.233,0-0.216-0.45,0.05-1.35c0.4-1.333,0.633-2.433,0.7-3.3c0.167-2.1,0.034-4.117-0.4-6.05
				C63.283,42.233,63.25,41.183,63.55,40.55z"/>
		</g>
		
			<use xlink:href="#flash0.ai_x5F_0_x2F_Layer_3_x2F__x3C_Compound_Path_x3E__x5F_6"  width="24.877" height="47.407" x="0.038" y="-47.402" transform="matrix(1 0 0 -1 75.4502 211.9004)" style="overflow:visible;opacity:0.3984;enable-background:new    ;"/>
		
			<use xlink:href="#flash0.ai_x5F_0_x2F_Layer_3_x2F__x3C_Compound_Path_x3E__x5F_5"  width="14.167" height="22.854" x="-0.003" y="-22.851" transform="matrix(1 0 0 -1 31.3999 153)" style="overflow:visible;opacity:0.3984;enable-background:new    ;"/>
		
			<use xlink:href="#flash0.ai_x5F_0_x2F_Layer_3_x2F__x3C_Compound_Path_x3E__x5F_4"  width="10.978" height="18.262" x="-0.022" y="-18.217" transform="matrix(1 0 0 -1 27.1001 132.7998)" style="overflow:visible;opacity:0.3984;enable-background:new    ;"/>
		
			<use xlink:href="#flash0.ai_x5F_0_x2F_Layer_3_x2F__x3C_Compound_Path_x3E__x5F_3"  width="27.282" height="30.852" x="-0.076" y="-30.841" transform="matrix(1 0 0 -1 46.25 177.5498)" style="overflow:visible;opacity:0.3984;enable-background:new    ;"/>
		
			<use xlink:href="#flash0.ai_x5F_0_x2F_Layer_3_x2F__x3C_Path_x3E__x5F_5"  width="13.618" height="28.883" x="0.025" y="-28.95" transform="matrix(1 0 0 -1 55.4502 208.5996)" style="overflow:visible;opacity:0.3984;enable-background:new    ;"/>
		
			<linearGradient id="SVGID_39_" gradientUnits="userSpaceOnUse" x1="188.8887" y1="4.6841" x2="268.8582" y2="4.6841" gradientTransform="matrix(0.5268 0.85 -0.85 0.5268 -2.592206e-004 -2.371073e-004)">
			<stop  offset="0" style="stop-color:#3A3866"/>
			<stop  offset="0.3608" style="stop-color:#302E49"/>
			<stop  offset="0.7608" style="stop-color:#27252E"/>
			<stop  offset="1" style="stop-color:#242224"/>
		</linearGradient>
		<path style="fill-rule:evenodd;clip-rule:evenodd;fill:url(#SVGID_39_);" d="M125.75,142.7l2.05,0.2l0.8,4.3
			c0.233,3.866-0.366,8.383-1.8,13.55c-0.967,3.566-2.866,9.217-5.7,16.95c-2.133,6.866-2.783,12.399-1.949,16.6
			c0.767,3.767,2.649,8.101,5.649,13c4.167,6.767,7.101,12.05,8.8,15.851c5.101,11.5,8.217,23.183,9.351,35.05
			c0.6,5.934,0.666,10.717,0.2,14.35l-24.45,0.101c1.399-3.667,2.55-8.367,3.45-14.101c1.833-11.399,1.517-22.149-0.95-32.25
			c-0.667-2.833-1.917-6.399-3.75-10.7c-2.2-5.166-3.566-8.6-4.101-10.3c-2.699-8.2-2.35-16.116,1.051-23.75l0.05-0.1
			c0.366-2.467,0.583-4.066,0.649-4.8c0.233-2.434,0.267-4.551,0.101-6.351c-0.2-2.1-1.334-6.316-3.4-12.649
			c-1.733-5.2-2.366-9.667-1.899-13.4l1.899,0.5l-0.05,3.75c0.333,3.1,1.316,6.217,2.95,9.35c1.533,2.967,3.05,7.117,4.55,12.45
			c3.233-7.899,5.167-12.883,5.8-14.95C126.45,150.55,126.684,146.333,125.75,142.7z"/>
		
			<use xlink:href="#flash0.ai_x5F_0_x2F_Layer_3_x2F__x3C_Path_x3E__x5F_3"  width="21.858" height="24.08" x="-0.001" y="-24.054" transform="matrix(1 0 0 -1 77.1001 192.3496)" style="overflow:visible;opacity:0.3984;enable-background:new    ;"/>
		
			<use xlink:href="#flash0.ai_x5F_0_x2F_Layer_3_x2F__x3C_Compound_Path_x3E__x5F_2"  width="9.542" height="15.281" x="-0.017" y="-15.309" transform="matrix(1 0 0 -1 124.5 221.7998)" style="overflow:visible;opacity:0.3984;enable-background:new    ;"/>
		
			<use xlink:href="#flash0.ai_x5F_0_x2F_Layer_3_x2F__x3C_Compound_Path_x3E__x5F_1"  width="6.861" height="11.204" x="-0.023" y="-11.201" transform="matrix(1 0 0 -1 120.4502 208.7002)" style="overflow:visible;opacity:0.3984;enable-background:new    ;"/>
		
			<use xlink:href="#flash0.ai_x5F_0_x2F_Layer_3_x2F__x3C_Compound_Path_x3E_"  width="6.01" height="9.705" x="-0.014" y="-9.701" transform="matrix(1 0 0 -1 115.0996 197.3496)" style="overflow:visible;opacity:0.3984;enable-background:new    ;"/>
		
			<use xlink:href="#flash0.ai_x5F_0_x2F_Layer_3_x2F__x3C_Path_x3E__x5F_2"  width="14.152" height="13.001" y="-13.09" transform="matrix(1 0 0 -1 47.8501 165.6504)" style="overflow:visible;opacity:0.3984;enable-background:new    ;"/>
		
			<use xlink:href="#flash0.ai_x5F_0_x2F_Layer_3_x2F__x3C_Path_x3E__x5F_1"  width="14.91" height="21.932" x="0.007" y="-21.919" transform="matrix(1 0 0 -1 29.6001 172.5498)" style="overflow:visible;opacity:0.3984;enable-background:new    ;"/>
		
			<use xlink:href="#flash0.ai_x5F_0_x2F_Layer_3_x2F__x3C_Path_x3E_"  width="4.727" height="22.521" x="-0.026" y="-22.569" transform="matrix(1 0 0 -1 22.75 143.75)" style="overflow:visible;opacity:0.3984;enable-background:new    ;"/>
		<g>
			
				<radialGradient id="SVGID_40_" cx="118.4004" cy="96.3501" r="40.1875" gradientTransform="matrix(-1 0 0 -0.6134 236.8008 155.4488)" gradientUnits="userSpaceOnUse">
				<stop  offset="0" style="stop-color:#8C80B3"/>
				<stop  offset="0.1647" style="stop-color:#7463A1"/>
				<stop  offset="0.3686" style="stop-color:#5B468E"/>
				<stop  offset="0.4863" style="stop-color:#523B87"/>
				<stop  offset="1" style="stop-color:#471A54"/>
			</radialGradient>
			<path style="fill-rule:evenodd;clip-rule:evenodd;fill:url(#SVGID_40_);" d="M137.25,108.2c4.5,5.233,7.7,11.417,9.6,18.55
				c1.334,4.933-0.933,9.367-6.8,13.3c-5.633,3.767-12.267,5.65-19.899,5.65c-7.567,0-14.084-1.867-19.551-5.6
				c-5.666-3.833-8.033-8.283-7.1-13.35c1.333-7.367,4.25-13.65,8.75-18.85c5-5.8,10.833-8.733,17.5-8.8
				C126.116,99,131.95,102.033,137.25,108.2z"/>
			
				<radialGradient id="SVGID_41_" cx="-34.0103" cy="197.7471" r="13.1702" gradientTransform="matrix(0.7878 -0.616 -0.5438 -0.4916 256.4348 231.8207)" gradientUnits="userSpaceOnUse">
				<stop  offset="0" style="stop-color:#9B80A7"/>
				<stop  offset="0.1647" style="stop-color:#846396"/>
				<stop  offset="0.3686" style="stop-color:#6C4684"/>
				<stop  offset="0.4863" style="stop-color:#633B7D"/>
				<stop  offset="1" style="stop-color:#471A54"/>
			</radialGradient>
			<path style="fill-rule:evenodd;clip-rule:evenodd;fill:url(#SVGID_41_);" d="M122.35,134.2c4.534,0.167,6.95,0.883,7.25,2.15
				c0.267,1.133,0.4,2.083,0.4,2.85c0,1.133-0.2,2.917-0.6,5.35c-0.467,2.834-1.65,5.584-3.551,8.25c-1.633,2.3-2.8,3.417-3.5,3.351
				c-0.133,0-0.183-0.884-0.149-2.65c0.033-2.3-0.283-4.316-0.95-6.05c-0.8-2.066-2.083-4.25-3.85-6.55
				c-1.467-1.833-2.184-3.017-2.15-3.55C115.417,135.083,117.783,134.033,122.35,134.2z"/>
			
				<radialGradient id="SVGID_42_" cx="99.9844" cy="136.3013" r="21.7344" gradientTransform="matrix(0.9955 0.0943 0.0886 -0.651 -30.4607 223.9068)" gradientUnits="userSpaceOnUse">
				<stop  offset="0" style="stop-color:#9B80A7"/>
				<stop  offset="0.1647" style="stop-color:#846396"/>
				<stop  offset="0.3686" style="stop-color:#6C4684"/>
				<stop  offset="0.4863" style="stop-color:#633B7D"/>
				<stop  offset="1" style="stop-color:#471A54"/>
			</radialGradient>
			<path style="fill-rule:evenodd;clip-rule:evenodd;fill:url(#SVGID_42_);" d="M89.35,138.9c1.5-2.133,2.733-4.833,3.7-8.1
				c0.8-2.767,1.45-4.316,1.95-4.65c2.366-1.566,4.917-0.633,7.65,2.8c1.066,1.3,1.85,2.65,2.35,4.05c0.533,1.4,0.6,2.317,0.2,2.75
				c-0.934,1.033-1.783,1.85-2.55,2.45c-1.067,0.8-2.95,1.966-5.65,3.5c-3.1,1.767-6.616,2.95-10.55,3.55
				c-3.367,0.533-5.284,0.533-5.75,0c-0.034-0.033,0.966-0.583,3-1.65C86.2,142.3,88.083,140.733,89.35,138.9z"/>
			
				<radialGradient id="SVGID_43_" cx="-47.2319" cy="212.2412" r="19.4986" gradientTransform="matrix(0.7045 -0.7097 -0.7212 -0.4988 330.3964 228.4871)" gradientUnits="userSpaceOnUse">
				<stop  offset="0" style="stop-color:#9B80A7"/>
				<stop  offset="0.1647" style="stop-color:#846396"/>
				<stop  offset="0.3686" style="stop-color:#6C4684"/>
				<stop  offset="0.4863" style="stop-color:#633B7D"/>
				<stop  offset="1" style="stop-color:#471A54"/>
			</radialGradient>
			<path style="fill-rule:evenodd;clip-rule:evenodd;fill:url(#SVGID_43_);" d="M131.15,138.8c-0.667-2.133,1.25-3.033,5.75-2.7
				c4.399,0.333,6.966,1.1,7.699,2.3c0.667,1.033,1.134,1.917,1.4,2.65c0.366,1.034,0.8,2.7,1.3,5
				c0.533,2.667,0.351,5.217-0.55,7.65c-0.8,2.1-1.55,3.116-2.25,3.05c-0.033,0-0.184-0.833-0.45-2.5c-0.333-2.1-1.133-4-2.399-5.7
				c-1.534-2.033-3.733-4.133-6.601-6.3C132.583,140.383,131.283,139.233,131.15,138.8z"/>
			
				<radialGradient id="SVGID_44_" cx="-86.0728" cy="-176.1968" r="16.8008" gradientTransform="matrix(-0.9449 0.3274 -0.314 -0.6317 23.7498 47.7796)" gradientUnits="userSpaceOnUse">
				<stop  offset="0" style="stop-color:#9B80A7"/>
				<stop  offset="0.1647" style="stop-color:#846396"/>
				<stop  offset="0.3686" style="stop-color:#6C4684"/>
				<stop  offset="0.4863" style="stop-color:#633B7D"/>
				<stop  offset="1" style="stop-color:#471A54"/>
			</radialGradient>
			<path style="fill-rule:evenodd;clip-rule:evenodd;fill:url(#SVGID_44_);" d="M141.75,116.6c-0.2-0.5,0.384,0.15,1.75,1.95
				c0.8,1.067,2.2,2.967,4.2,5.7c1.833,2.433,4.1,4.133,6.8,5.1c0.7,0.233,1.917,0.533,3.65,0.9c1.133,0.2,1.633,0.417,1.5,0.65
				c-0.534,0.9-1.917,1.55-4.15,1.95c-2.434,0.4-4.517,0.167-6.25-0.7c-1.4-0.733-2.45-1.9-3.15-3.5l-1.25-2.8
				c-0.3-0.267-0.716-1.4-1.25-3.4C142.934,119.85,142.316,117.9,141.75,116.6z"/>
			
				<radialGradient id="SVGID_45_" cx="112.8516" cy="115.9653" r="26.2526" gradientTransform="matrix(0.9804 0.1971 0.1495 -0.5185 -49.5752 171.9342)" gradientUnits="userSpaceOnUse">
				<stop  offset="0" style="stop-color:#9B80A7"/>
				<stop  offset="0.1647" style="stop-color:#846396"/>
				<stop  offset="0.3686" style="stop-color:#6C4684"/>
				<stop  offset="0.4863" style="stop-color:#633B7D"/>
				<stop  offset="1" style="stop-color:#471A54"/>
			</radialGradient>
			<path style="fill-rule:evenodd;clip-rule:evenodd;fill:url(#SVGID_45_);" d="M95.4,120.4c0.333-0.933,0.733-1.65,1.199-2.15
				c-0.833,1.9,0,3.95,2.5,6.15c2.467,2.133,3.684,3.233,3.65,3.3c-0.934,1.867-1.917,3.283-2.95,4.25
				c-1.3,1.167-3.149,2.2-5.55,3.1c-2.033,0.733-4.783,0.95-8.25,0.65c-3.367-0.267-5.483-0.817-6.35-1.65
				c-0.233-0.233,0.3-0.5,1.6-0.8c2.033-0.467,3.45-0.867,4.25-1.2c1.634-0.633,3.167-1.5,4.6-2.6c1.733-1.333,2.9-2.717,3.5-4.15
				C94.134,124.033,94.733,122.4,95.4,120.4z"/>
			
				<radialGradient id="SVGID_46_" cx="157.7002" cy="148.3496" r="26.8875" gradientTransform="matrix(-1 0 0 -0.6053 315.4004 238.1456)" gradientUnits="userSpaceOnUse">
				<stop  offset="0" style="stop-color:#9B80A7"/>
				<stop  offset="0.1647" style="stop-color:#84639B"/>
				<stop  offset="0.3686" style="stop-color:#6C468F"/>
				<stop  offset="0.4863" style="stop-color:#633B8A"/>
				<stop  offset="1" style="stop-color:#471A54"/>
			</radialGradient>
			<path style="fill-rule:evenodd;clip-rule:evenodd;fill:url(#SVGID_46_);" d="M135.3,134.2c-0.8-1.3-0.133-3.233,2-5.8
				c2.167-2.633,4.217-3.05,6.15-1.25c0.666,0.633,1.666,2.267,3,4.9c1.533,3.1,2.899,5.467,4.1,7.1
				c1.066,1.467,2.533,3.217,4.4,5.25c1.166,1.233,1.666,1.983,1.5,2.25c-0.367,0.6-1.783,0.566-4.25-0.101
				c-2.367-0.666-4.816-1.649-7.351-2.95c-2.966-1.5-5.283-3.25-6.949-5.25C137.467,137.817,136.6,136.433,135.3,134.2z"/>
			
				<radialGradient id="SVGID_47_" cx="160.1504" cy="139.1001" r="22.85" gradientTransform="matrix(-1 0 0 -0.6132 320.3008 224.4016)" gradientUnits="userSpaceOnUse">
				<stop  offset="0" style="stop-color:#9B80A7"/>
				<stop  offset="0.1647" style="stop-color:#846396"/>
				<stop  offset="0.3686" style="stop-color:#6C4684"/>
				<stop  offset="0.4863" style="stop-color:#633B7D"/>
				<stop  offset="1" style="stop-color:#471A54"/>
			</radialGradient>
			<path style="fill-rule:evenodd;clip-rule:evenodd;fill:url(#SVGID_47_);" d="M141.7,124.65c2.2-2.767,1.967-6.017-0.7-9.75
				c0.833,0.667,1.85,1.967,3.05,3.9c1.167,1.867,2.283,3.967,3.351,6.3c0.899,1.933,1.883,3.566,2.949,4.9
				c0.267,0.367,1.551,1.833,3.851,4.4c0.8,0.9,1.95,1.967,3.45,3.2c1.033,0.8,1.483,1.3,1.35,1.5
				c-0.467,0.633-2.25,0.683-5.35,0.15c-3.434-0.6-6.017-1.8-7.75-3.6c-1.301-1.333-2.983-2.833-5.051-4.5
				c-1.633-1.267-2.566-2.133-2.8-2.6c-0.133-0.233,0.217-0.7,1.05-1.4C140.333,126.117,141.2,125.283,141.7,124.65z"/>
			
				<radialGradient id="SVGID_48_" cx="-203.1094" cy="-29.2251" r="25.509" gradientTransform="matrix(-0.7047 -0.7096 0.5366 -0.3709 -8.7398 6.0429)" gradientUnits="userSpaceOnUse">
				<stop  offset="0" style="stop-color:#9B80A7"/>
				<stop  offset="0.1647" style="stop-color:#84639B"/>
				<stop  offset="0.3686" style="stop-color:#6C468F"/>
				<stop  offset="0.4863" style="stop-color:#633B8A"/>
				<stop  offset="1" style="stop-color:#471A54"/>
			</radialGradient>
			<path style="fill-rule:evenodd;clip-rule:evenodd;fill:url(#SVGID_48_);" d="M125.8,137.7c0,0.833-0.149,1.55-0.45,2.15
				c-0.233,0.433-1.166,1.783-2.8,4.05c-2.3,3.366-3.767,6.833-4.399,10.399c-0.2,1.2-0.267,2.601-0.2,4.2
				c0.066,1.1,0.033,1.634-0.101,1.6c-1.066-0.267-2.3-1.466-3.699-3.6c-1.467-2.167-2.467-4.366-3-6.6c-0.601-2.5-1-4.884-1.2-7.15
				c-0.233-2.067-0.25-3.45-0.05-4.15c0.767-2.667,3.616-4.017,8.55-4.05c1.967,0,3.649,0.267,5.05,0.8
				C125.033,135.95,125.8,136.733,125.8,137.7z"/>
			
				<radialGradient id="SVGID_49_" cx="43.2793" cy="-196.0381" r="7.5185" gradientTransform="matrix(-0.5869 0.8097 -1.079 -0.5437 -34.1756 -17.2199)" gradientUnits="userSpaceOnUse">
				<stop  offset="0" style="stop-color:#9B80A7"/>
				<stop  offset="0.1647" style="stop-color:#84639B"/>
				<stop  offset="0.3686" style="stop-color:#6C468F"/>
				<stop  offset="0.4863" style="stop-color:#633B8A"/>
				<stop  offset="1" style="stop-color:#471A54"/>
			</radialGradient>
			<path style="fill-rule:evenodd;clip-rule:evenodd;fill:url(#SVGID_49_);" d="M144.05,119.1c0.834,1.2,1.434,2,1.8,2.4
				c0.634,0.633,1.567,1.25,2.801,1.85c0.399,0.2,0.949,0.417,1.649,0.65c0.434,0.167,0.617,0.283,0.55,0.35
				c-1.433,0.333-2.616,0.433-3.55,0.3c-1.899-0.233-3.316-0.767-4.25-1.6c-0.366-0.433-0.55-1.216-0.55-2.35
				C142.533,119.433,143.05,118.9,144.05,119.1z"/>
			
				<radialGradient id="SVGID_50_" cx="-105.1528" cy="-180.1221" r="20.0054" gradientTransform="matrix(-0.986 0.1668 -0.1531 -0.7985 6.3464 33.109)" gradientUnits="userSpaceOnUse">
				<stop  offset="0" style="stop-color:#9B80A7"/>
				<stop  offset="0.1647" style="stop-color:#84639B"/>
				<stop  offset="0.3686" style="stop-color:#6C468F"/>
				<stop  offset="0.4863" style="stop-color:#633B8A"/>
				<stop  offset="1" style="stop-color:#471A54"/>
			</radialGradient>
			<path style="fill-rule:evenodd;clip-rule:evenodd;fill:url(#SVGID_50_);" d="M136.1,139.3c1.134,1.767,1.934,4,2.4,6.7
				c0.634,3.434,0.517,6.917-0.35,10.45c-0.233,0.934-0.4,1.517-0.5,1.75c-0.233,0.434-0.567,0.684-1,0.75
				c-0.2,0.033-0.917-0.75-2.15-2.351c-1.366-1.699-2.55-3.383-3.55-5.05c-1.267-2-2.367-4.116-3.3-6.35
				c-0.834-1.967-1.4-3.167-1.7-3.6c-0.334-0.434-0.2-1.117,0.399-2.05c0.634-0.966,1.467-1.75,2.5-2.35
				C131.75,135.567,134.167,136.267,136.1,139.3z"/>
			
				<radialGradient id="SVGID_51_" cx="-93.0171" cy="-172.5352" r="13.3595" gradientTransform="matrix(-0.974 0.2264 -0.3181 -0.9516 0.0616 0.1827)" gradientUnits="userSpaceOnUse">
				<stop  offset="0" style="stop-color:#9B80A7"/>
				<stop  offset="0.1647" style="stop-color:#84639B"/>
				<stop  offset="0.3686" style="stop-color:#6C468F"/>
				<stop  offset="0.4863" style="stop-color:#633B8A"/>
				<stop  offset="1" style="stop-color:#471A54"/>
			</radialGradient>
			<path style="fill-rule:evenodd;clip-rule:evenodd;fill:url(#SVGID_51_);" d="M134.7,131.75c-0.367-0.867,0.316-1.833,2.05-2.9
				c1.866-1.1,3.583-0.8,5.15,0.9c0.466,0.5,0.767,1.5,0.899,3c0.167,2.067,0.601,4.05,1.3,5.95c0.134,0.367,0.467,1.133,1,2.3
				c0.233,0.5,0.217,0.717-0.05,0.65c-2.434-0.933-4.633-2.4-6.6-4.4c-1.467-1.433-2.45-2.6-2.95-3.5
				C135.167,132.883,134.9,132.217,134.7,131.75z"/>
			
				<radialGradient id="SVGID_52_" cx="-201.5254" cy="-25.1621" r="16.7108" gradientTransform="matrix(-0.7548 -0.656 0.5887 -0.472 -5.1391 4.1197)" gradientUnits="userSpaceOnUse">
				<stop  offset="0" style="stop-color:#9B80A7"/>
				<stop  offset="0.1647" style="stop-color:#846396"/>
				<stop  offset="0.3686" style="stop-color:#6C4684"/>
				<stop  offset="0.4863" style="stop-color:#633B7D"/>
				<stop  offset="1" style="stop-color:#471A54"/>
			</radialGradient>
			<path style="fill-rule:evenodd;clip-rule:evenodd;fill:url(#SVGID_52_);" d="M134.4,134.15c-0.034,0.2-0.267,0.867-0.7,2
				c-0.267,0.8-0.517,1.783-0.75,2.95c-0.134,0.667-0.316,1.667-0.55,3c-0.2,0.966-0.317,2.233-0.351,3.8
				c-0.033,1.066-0.166,1.616-0.399,1.649c-0.634,0.134-1.784-0.75-3.45-2.649c-1.767-2.101-2.934-4.184-3.5-6.25
				c-0.3-1.1-0.467-1.867-0.5-2.3c0-0.5,0.116-1.117,0.35-1.85c0.101-0.367,0.733-0.983,1.9-1.85c1.233-0.967,1.934-1.566,2.1-1.8
				c0.533-0.733,1.217-1.117,2.05-1.15c0.733-0.067,1.45,0.133,2.15,0.6c0.733,0.467,1.25,1.083,1.55,1.85
				C134.533,132.783,134.566,133.45,134.4,134.15z"/>
			
				<radialGradient id="SVGID_53_" cx="-171.3042" cy="-73.8032" r="25.6058" gradientTransform="matrix(-0.8235 -0.5673 0.5243 -0.6732 -6.7321 8.6441)" gradientUnits="userSpaceOnUse">
				<stop  offset="0" style="stop-color:#9B80A7"/>
				<stop  offset="0.1647" style="stop-color:#846396"/>
				<stop  offset="0.3686" style="stop-color:#6C4684"/>
				<stop  offset="0.4863" style="stop-color:#633B7D"/>
				<stop  offset="1" style="stop-color:#471A54"/>
			</radialGradient>
			<path style="fill-rule:evenodd;clip-rule:evenodd;fill:url(#SVGID_53_);" d="M112.55,136.95c-1.1,3.633-2.2,6.316-3.3,8.05
				c-2.434,3.767-6.066,6.583-10.9,8.45c-0.833,0.333-1.649,0.533-2.449,0.6c-0.733,0.033-1.167-0.017-1.301-0.149
				c-0.066-0.067,0.267-0.917,1-2.551c0.967-2.199,1.717-4.149,2.25-5.85c1.867-6.033,3.233-11.033,4.101-15
				c0.133-0.633,0.883-1.1,2.25-1.4c1.434-0.267,2.866-0.217,4.3,0.15C112.434,130.217,113.783,132.783,112.55,136.95z"/>
			
				<radialGradient id="SVGID_54_" cx="76.7915" cy="151.3926" r="23.4973" gradientTransform="matrix(0.9975 -0.0713 -0.0532 -0.5187 23.5077 229.1979)" gradientUnits="userSpaceOnUse">
				<stop  offset="0" style="stop-color:#9B80A7"/>
				<stop  offset="0.1647" style="stop-color:#84639B"/>
				<stop  offset="0.3686" style="stop-color:#6C468F"/>
				<stop  offset="0.4863" style="stop-color:#633B8A"/>
				<stop  offset="1" style="stop-color:#471A54"/>
			</radialGradient>
			<path style="fill-rule:evenodd;clip-rule:evenodd;fill:url(#SVGID_54_);" d="M96.45,142c1.899-2.067,3.316-4.467,4.25-7.2
				c0.666-1.933,1.05-3.033,1.149-3.3c0.233-0.433,0.617-0.867,1.15-1.3c1.333-1.067,2.884-0.534,4.65,1.6
				c1.767,2.167,2,4.1,0.699,5.8c-0.199,0.267-0.699,0.95-1.5,2.05c-1,1.167-2.333,2.2-4,3.1c-1.699,0.9-3.6,1.6-5.699,2.1
				c-2.101,0.5-3.5,0.584-4.2,0.25c-0.066-0.033,0.25-0.316,0.95-0.85C94.934,143.45,95.783,142.7,96.45,142z"/>
			
				<radialGradient id="SVGID_55_" cx="-124.7451" cy="-153.5356" r="11.251" gradientTransform="matrix(-0.9988 0.0489 -0.0967 -1.3899 -4.1868 -60.1988)" gradientUnits="userSpaceOnUse">
				<stop  offset="0" style="stop-color:#9B80A7"/>
				<stop  offset="0.1647" style="stop-color:#84639B"/>
				<stop  offset="0.3686" style="stop-color:#6C468F"/>
				<stop  offset="0.4863" style="stop-color:#633B8A"/>
				<stop  offset="1" style="stop-color:#471A54"/>
			</radialGradient>
			<path style="fill-rule:evenodd;clip-rule:evenodd;fill:url(#SVGID_55_);" d="M134.65,133c0.033,0.8-0.134,2.417-0.5,4.85
				c0,0.033-0.034,0.55-0.101,1.55c-0.033,0.367-0.149,0.567-0.35,0.6c-0.134,0-0.65-0.45-1.55-1.35
				c-0.967-0.967-1.684-1.8-2.15-2.5c-1.6-2.4-2.2-4.133-1.8-5.2c0.267-0.733,1.066-1.284,2.399-1.65
				c1.567-0.433,2.733,0.05,3.5,1.45C134.467,131.417,134.65,132.167,134.65,133z"/>
			
				<radialGradient id="SVGID_56_" cx="156.5654" cy="43.2539" r="11.3643" gradientTransform="matrix(0.7304 0.6831 1.3408 -0.9987 -93.245 69.4556)" gradientUnits="userSpaceOnUse">
				<stop  offset="0" style="stop-color:#9B80A7"/>
				<stop  offset="0.1647" style="stop-color:#84639B"/>
				<stop  offset="0.3686" style="stop-color:#6C468F"/>
				<stop  offset="0.4863" style="stop-color:#633B8A"/>
				<stop  offset="1" style="stop-color:#471A54"/>
			</radialGradient>
			<path style="fill-rule:evenodd;clip-rule:evenodd;fill:url(#SVGID_56_);" d="M95.3,120.65c1.2-0.4,1.967,0.5,2.3,2.7
				c0.301,1.967,0.267,3.267-0.1,3.9c-0.733,1.2-2.35,2.1-4.85,2.7c-0.767,0.167-1.784,0.216-3.051,0.15
				c-1.133-0.067-1.75-0.15-1.85-0.25s0.1-0.283,0.6-0.55c0.867-0.466,1.483-0.816,1.851-1.05c2.2-1.467,3.583-3.15,4.149-5.05
				C94.85,121.567,95.167,120.717,95.3,120.65z"/>
			
				<radialGradient id="SVGID_57_" cx="-31.7334" cy="188.7646" r="15.2924" gradientTransform="matrix(0.8149 -0.5795 -0.5019 -0.4913 231.7984 226.8911)" gradientUnits="userSpaceOnUse">
				<stop  offset="0" style="stop-color:#9B80A7"/>
				<stop  offset="0.1647" style="stop-color:#846396"/>
				<stop  offset="0.3686" style="stop-color:#6C4684"/>
				<stop  offset="0.4863" style="stop-color:#633B7D"/>
				<stop  offset="1" style="stop-color:#471A54"/>
			</radialGradient>
			<path style="fill-rule:evenodd;clip-rule:evenodd;fill:url(#SVGID_57_);" d="M115.85,131.95c0.301-0.9,1.2-0.383,2.7,1.55
				c1.533,1.967,2.233,3.8,2.101,5.5c-0.134,1.567-0.584,2.683-1.351,3.35c-0.467,0.4-1.366,1-2.7,1.8
				c-0.866,0.767-1.483,1.583-1.85,2.449c-0.1,0.2-0.25,0.7-0.45,1.5c-0.033,0.2-0.066,0.483-0.1,0.851
				c-0.066,0.133-0.267-0.134-0.601-0.8c-0.866-2.034-0.633-4.733,0.7-8.101c0.5-1.3,0.816-2.8,0.95-4.5
				C115.417,133.817,115.616,132.617,115.85,131.95z"/>
			
				<radialGradient id="SVGID_58_" cx="98.0566" cy="164.626" r="19.6808" gradientTransform="matrix(0.987 -0.1607 -0.0718 -0.9222 24.6331 316.5284)" gradientUnits="userSpaceOnUse">
				<stop  offset="0" style="stop-color:#9B80A7"/>
				<stop  offset="0.1647" style="stop-color:#84639B"/>
				<stop  offset="0.3686" style="stop-color:#6C468F"/>
				<stop  offset="0.4863" style="stop-color:#633B8A"/>
				<stop  offset="1" style="stop-color:#471A54"/>
			</radialGradient>
			<path style="fill-rule:evenodd;clip-rule:evenodd;fill:url(#SVGID_58_);" d="M113.4,126.25c1.166,0.133,2.216,0.483,3.149,1.05
				c0.867,0.534,1.3,1.034,1.3,1.5c-0.033,0.667-0.033,1.617,0,2.85c-0.133,1.4-0.783,3.4-1.949,6
				c-1.667,3.633-3.867,6.617-6.601,8.95c-0.3,0.233-0.416-0.017-0.35-0.75c0.066-1.699,0.083-2.85,0.05-3.45
				c-0.167-2.733-0.717-5.433-1.65-8.1c-0.666-1.9-0.816-3.3-0.449-4.2C108.066,127.133,110.233,125.85,113.4,126.25z"/>
			
				<radialGradient id="SVGID_59_" cx="36.9067" cy="177.2617" r="20.8944" gradientTransform="matrix(0.9398 -0.3416 -0.341 -0.6527 143.2596 274.2039)" gradientUnits="userSpaceOnUse">
				<stop  offset="0" style="stop-color:#9B80A7"/>
				<stop  offset="0.1647" style="stop-color:#846396"/>
				<stop  offset="0.3686" style="stop-color:#6C4684"/>
				<stop  offset="0.4863" style="stop-color:#633B7D"/>
				<stop  offset="1" style="stop-color:#471A54"/>
			</radialGradient>
			<path style="fill-rule:evenodd;clip-rule:evenodd;fill:url(#SVGID_59_);" d="M122.25,126.45c3,0.767,4.5,1.8,4.5,3.1
				c-0.033,1.233-0.116,2.2-0.25,2.9c-0.233,1.033-0.767,2.633-1.6,4.8c-0.934,2.533-2.467,4.7-4.601,6.5
				c-1.833,1.533-3.05,2.15-3.649,1.85c-0.034,0,0.3-0.783,1-2.35c0.833-1.967,1.149-3.917,0.949-5.85
				c-0.267-2.3-0.716-4.383-1.35-6.25c-0.467-1.3-0.634-2.2-0.5-2.7C117.35,126.35,119.184,125.683,122.25,126.45z"/>
			
				<radialGradient id="SVGID_60_" cx="-155.8994" cy="-106.0103" r="9.2772" gradientTransform="matrix(-0.9634 -0.2681 0.578 -1.4498 21.7868 -54.6436)" gradientUnits="userSpaceOnUse">
				<stop  offset="0" style="stop-color:#9B80A7"/>
				<stop  offset="0.1647" style="stop-color:#84639B"/>
				<stop  offset="0.3686" style="stop-color:#6C468F"/>
				<stop  offset="0.4863" style="stop-color:#633B8A"/>
				<stop  offset="1" style="stop-color:#471A54"/>
			</radialGradient>
			<path style="fill-rule:evenodd;clip-rule:evenodd;fill:url(#SVGID_60_);" d="M116.3,126.8c0.033,0.633-0.116,1.3-0.45,2
				c-0.3,0.633-1.083,1.95-2.35,3.95c-0.2,0.367-0.434,0.8-0.7,1.3c-0.166,0.3-0.333,0.434-0.5,0.4
				c-0.1-0.034-0.316-0.55-0.649-1.55c-0.367-1.1-0.584-2-0.65-2.7c-0.3-2.4-0.083-4,0.65-4.8c0.5-0.533,1.333-0.783,2.5-0.75
				C115.517,124.683,116.233,125.4,116.3,126.8z"/>
			
				<radialGradient id="SVGID_61_" cx="-106.0918" cy="-152.6704" r="7.8462" gradientTransform="matrix(-0.9877 0.1561 -0.325 -1.4322 -15.7589 -69.444)" gradientUnits="userSpaceOnUse">
				<stop  offset="0" style="stop-color:#9B80A7"/>
				<stop  offset="0.1647" style="stop-color:#84639B"/>
				<stop  offset="0.3686" style="stop-color:#6C468F"/>
				<stop  offset="0.4863" style="stop-color:#633B8A"/>
				<stop  offset="1" style="stop-color:#471A54;stop-opacity:0"/>
			</radialGradient>
			<path style="fill-rule:evenodd;clip-rule:evenodd;fill:url(#SVGID_61_);" d="M133.95,121.05c1.033-0.433,1.899-0.167,2.6,0.8
				c0.334,0.433,0.55,0.95,0.65,1.55c0.066,0.533,0.133,1.733,0.2,3.6c0,0.033,0.033,0.4,0.1,1.1c0.033,0.267-0.033,0.417-0.2,0.45
				c-0.066,0-0.467-0.283-1.2-0.85c-0.767-0.633-1.366-1.184-1.8-1.65c-1.366-1.667-1.967-2.883-1.8-3.65
				C132.566,121.867,133.05,121.417,133.95,121.05z"/>
			
				<radialGradient id="SVGID_62_" cx="150.8379" cy="85.1797" r="9.0342" gradientTransform="matrix(0.916 0.4013 0.8136 -1.2951 -115.1123 183.2405)" gradientUnits="userSpaceOnUse">
				<stop  offset="0" style="stop-color:#9B80A7"/>
				<stop  offset="0.1647" style="stop-color:#84639B"/>
				<stop  offset="0.3686" style="stop-color:#6C468F"/>
				<stop  offset="0.4863" style="stop-color:#633B8A"/>
				<stop  offset="1" style="stop-color:#471A54;stop-opacity:0"/>
			</radialGradient>
			<path style="fill-rule:evenodd;clip-rule:evenodd;fill:url(#SVGID_62_);" d="M97.7,123.65c0.333-0.633,0.783-1.15,1.35-1.55
				c1.2-0.833,2.283-0.867,3.25-0.1c0.867,0.633,1.25,1.267,1.15,1.9c-0.134,0.967-1.316,2.133-3.55,3.5
				c-0.601,0.4-1.483,0.833-2.65,1.3c-1.066,0.433-1.634,0.633-1.7,0.6c-0.166-0.066-0.184-0.25-0.05-0.55
				c0.233-0.433,0.417-0.833,0.55-1.2C96.816,125.55,97.366,124.25,97.7,123.65z"/>
			
				<radialGradient id="SVGID_63_" cx="-158.439" cy="-102.834" r="9.1276" gradientTransform="matrix(-0.9518 -0.3068 0.6204 -1.1764 15.0955 -28.6244)" gradientUnits="userSpaceOnUse">
				<stop  offset="0" style="stop-color:#9B80A7"/>
				<stop  offset="0.1647" style="stop-color:#84639B"/>
				<stop  offset="0.3686" style="stop-color:#6C468F"/>
				<stop  offset="0.4863" style="stop-color:#633B8A"/>
				<stop  offset="1" style="stop-color:#471A54"/>
			</radialGradient>
			<path style="fill-rule:evenodd;clip-rule:evenodd;fill:url(#SVGID_63_);" d="M108.35,129.55c0,0.333-0.333,0.784-1,1.35
				c-0.833,0.767-1.517,1.65-2.05,2.65c-0.233,0.4-0.434,0.95-0.6,1.65c-0.101,0.466-0.233,0.667-0.4,0.6
				c-1.066-1.433-1.649-2.6-1.75-3.5c-0.2-1.933,0.267-3.383,1.4-4.35c0.467-0.367,1.3-0.45,2.5-0.25
				C107.75,127.9,108.384,128.517,108.35,129.55z"/>
			
				<radialGradient id="SVGID_64_" cx="-140.4473" cy="-125.0991" r="7.2271" gradientTransform="matrix(-0.9963 -0.0865 0.0934 -1.3214 2.8626 -40.5043)" gradientUnits="userSpaceOnUse">
				<stop  offset="0" style="stop-color:#9B80A7"/>
				<stop  offset="0.1647" style="stop-color:#84639B"/>
				<stop  offset="0.3686" style="stop-color:#6C468F"/>
				<stop  offset="0.4863" style="stop-color:#633B8A"/>
				<stop  offset="1" style="stop-color:#471A54"/>
			</radialGradient>
			<path style="fill-rule:evenodd;clip-rule:evenodd;fill:url(#SVGID_64_);" d="M131.75,128.1c-0.4,0.767-0.634,1.583-0.7,2.45
				c0,0.333,0.05,0.8,0.15,1.4c0.066,0.4,0.033,0.583-0.101,0.55c-0.1,0-0.449-0.283-1.05-0.85c-0.666-0.6-1.116-1.133-1.35-1.6
				c-0.767-1.466-0.9-2.7-0.4-3.7c0.2-0.4,0.767-0.617,1.7-0.65c1.033-0.067,1.7,0.3,2,1.1
				C132.1,127.067,132.017,127.5,131.75,128.1z"/>
		</g>
	</g>
</g>
</svg>
