<?xml version="1.0" encoding="iso-8859-1"?>
<!-- Generator: Adobe Illustrator 15.1.0, SVG Export Plug-In . SVG Version: 6.00 Build 0)  -->
<!DOCTYPE svg PUBLIC "-//W3C//DTD SVG 1.1//EN" "http://www.w3.org/Graphics/SVG/1.1/DTD/svg11.dtd">
<svg version="1.1" xmlns="http://www.w3.org/2000/svg" xmlns:xlink="http://www.w3.org/1999/xlink" x="0px" y="0px"
	 width="223.25px" height="122.9px" viewBox="0 0 223.25 122.9" style="enable-background:new 0 0 223.25 122.9;"
	 xml:space="preserve">
<symbol  id="flash2.ai_x5F_0_x2F_Layer_4_x2F__x3C_Path_x3E__x5F_11" viewBox="0 -114.45 221.723 114.45">
	<g id="Layer_1_2_">
		<path style="fill-rule:evenodd;clip-rule:evenodd;fill:#332E17;" d="M163.25-39.7c1.5-0.233,2.767-0.983,3.8-2.25
			c1.3-1.6,2.233-2.55,2.8-2.85c0.4-0.233,1.283-0.417,2.65-0.55c1.567-0.167,2.533-0.3,2.9-0.4c0.667-0.2,1.617-0.483,2.85-0.85
			c1.033-0.333,1.917-0.783,2.65-1.35c1.067-0.833,1.883-1.867,2.45-3.1c0.333-0.7,0.75-1.967,1.25-3.8
			c0.467-1.867,1.367-3.117,2.7-3.75c2.267-1.066,3.684-1.867,4.25-2.4c1.333-1.2,2.15-2.717,2.45-4.55
			c0.167-1.067,0.433-2.767,0.8-5.1c0.934-0.067,1.883-0.667,2.85-1.8c0.533-0.6,1.25-1.483,2.15-2.65
			c0.534-0.566,1.35-1.35,2.45-2.35c0.833-0.933,1.267-1.917,1.3-2.95c2.467,0.033,4.55-0.483,6.25-1.55
			c1.534-0.933,3.017-2.483,4.45-4.65c0.7-1.033,1.617-2.683,2.75-4.95c3.833-5.167,5.333-7.784,4.5-7.85
			c-2.033-0.167-4.467,0.233-7.3,1.2c-3.233,1.3-5.583,2.233-7.05,2.8c-1.066,0.433-2.767,1.267-5.1,2.5
			c-2.133,1.133-3.833,1.917-5.1,2.35c-3.167,1.133-7,2.15-11.5,3.05c-5.167,0.967-9.05,1.7-11.65,2.2c-4.8,0.933-7.8,1.5-9,1.7
			c-3.4,0.567-6.466,0.833-9.2,0.8c-4.934-0.067-10.833-0.467-17.7-1.2c-7.867-0.967-13.75-1.667-17.65-2.1
			C98.95-88.567,88.2-89.8,88-89.8c-12.2-1.267-22.967-1.95-32.3-2.05c-5.233-0.066-10.767-0.867-16.6-2.4
			c-4.767-1.233-10.067-3.067-15.9-5.5c-5.934-2.5-10.15-4.433-12.65-5.8c-4.933-2.767-8.45-5.733-10.55-8.9
			c0.5,3.2,0.867,5.217,1.1,6.05c0.6,2.333,1.483,4.15,2.65,5.45c1.333,1.267,2.267,2.184,2.8,2.75
			c0.934,0.934,1.667,1.983,2.2,3.15c0.8,1.833,1.5,3.2,2.1,4.1c0.9,1.367,2,2.417,3.3,3.15c0.533,0.3,1.2,0.517,2,0.65
			c1.067,0.2,1.733,0.35,2,0.45c0.167,0.067,0.817,0.434,1.95,1.1c0.767,0.467,1.483,0.7,2.15,0.7c0.267,0.867,0.783,1.767,1.55,2.7
			c1.034,1.3,1.65,2.117,1.85,2.45c0.2,0.3,0.6,1.233,1.2,2.8c0.433,1.167,0.967,2.034,1.6,2.6c1.367,1.2,3.35,1.917,5.95,2.15
			c1.467,0.133,3.617,0.3,6.45,0.5c0.6,0.133,1.566,0.5,2.9,1.1c1.233,0.567,2.25,0.9,3.05,1c0.567,1.667,1.934,3.15,4.1,4.45
			c2.4,1.533,3.95,2.833,4.65,3.9c0.767,1.233,1.6,3,2.5,5.3c1,2.6,1.75,4.367,2.25,5.3c1,1.9,2.55,3.25,4.65,4.05
			c1.066,0.434,3.1,0.9,6.1,1.4c1.167,0.2,2,0.467,2.5,0.8c0.4,0.233,1.083,0.816,2.05,1.75c0.633,0.533,1.566,0.967,2.8,1.3
			c1.367,0.333,2.3,0.667,2.8,1c0.533,0.333,1.167,1.117,1.9,2.35c0.667,1.1,1.4,1.817,2.2,2.15c1,0.4,2.367,0.517,4.1,0.35
			c1.367-0.133,2.733-0.417,4.1-0.85c0.433,1,1.083,2.017,1.95,3.05c0.167,0.2,0.95,1.017,2.35,2.45c1,1.033,1.7,1.934,2.1,2.7
			c0.467,0.8,1.1,2.1,1.9,3.9c0.767,1.5,1.684,2.567,2.75,3.2c0.467,0.267,1.25,0.433,2.35,0.5c1.067,0.1,1.8,0.267,2.2,0.5
			c0.667,0.367,1.133,0.95,1.4,1.75c0.4,1.1,0.717,1.816,0.95,2.15c0.267,0.367,0.816,0.816,1.65,1.35c0.833,0.566,1.35,1,1.55,1.3
			c0.4,0.6,0.717,1.667,0.95,3.2c0.233,1.633,0.517,2.75,0.85,3.35c0-2.966,0.216-5.117,0.65-6.45c0.9,1.7,1.533,3.983,1.9,6.85
			c0.433,3.733,0.95,6.583,1.55,8.55c0.233-0.9,0.4-2.65,0.5-5.25c0.1-2.133,0.45-3.817,1.05-5.05
			c1.367-2.767,3.217-5.684,5.55-8.75c1-1.3,1.883-2.833,2.65-4.6c0.434-1.067,1.083-2.717,1.95-4.95c0.5-1.233,1.3-2.4,2.4-3.5
			c0.633-0.6,1.767-1.533,3.4-2.8c1-0.733,2.534-1.367,4.6-1.9c2.333-0.567,3.967-1.117,4.9-1.65c1-0.533,2.184-1.3,3.55-2.3
			c1.233-0.7,2.6-1,4.1-0.9c0.8,0.066,2.117,0.483,3.95,1.25C160.75-39.733,162.117-39.5,163.25-39.7z"/>
	</g>
</symbol>
<g id="Layer_4">
</g>
<g id="Layer_4_1_">
	<g>
		<path style="fill-rule:evenodd;clip-rule:evenodd;fill:#1A2B0F;" d="M106.7,35.55l-2.25,1.3c0.633-11.533-0.15-21.3-2.35-29.3
			c-0.928-3.301-1.886-5.818-2.875-7.55c2.852,4.732,4.943,11.898,6.275,21.5C106.233,26.667,106.633,31.35,106.7,35.55z"/>
		
			<use xlink:href="#flash2.ai_x5F_0_x2F_Layer_4_x2F__x3C_Path_x3E__x5F_11"  width="221.723" height="114.45" y="-114.45" transform="matrix(1 0 0 -1 0.75 7)" style="overflow:visible;opacity:0.2617;enable-background:new    ;"/>
		<path style="fill-rule:evenodd;clip-rule:evenodd;fill:#1A2B0F;" d="M45.8,84.7L44,85.2c0.633-4.267,0.1-7.867-1.6-10.8
			l-2.75-3.15c2.533,1.7,4.317,4.45,5.35,8.25C45.533,81.4,45.8,83.134,45.8,84.7z"/>
		<path style="fill-rule:evenodd;clip-rule:evenodd;fill:#1A2B0F;" d="M53.35,79.6l-1.8,0.851c0.567-7.467-0.033-13.783-1.8-18.95
			c-0.533-1.6-1.167-3-1.9-4.2l-0.9-1.3c2.566,3.033,4.4,7.866,5.5,14.5C53.017,73.833,53.317,76.866,53.35,79.6z"/>
		<path style="fill-rule:evenodd;clip-rule:evenodd;fill:#1A2B0F;" d="M106.7,35.75c-0.1-2.633,0.083-5.567,0.55-8.8
			c0.819-5.914,2.394-10.406,4.725-13.475c-0.781,1.104-1.506,2.646-2.175,4.625c-1.7,5.066-2.033,11.183-1,18.35L106.7,35.75z"/>
		<path style="fill-rule:evenodd;clip-rule:evenodd;fill:#1A2B0F;" d="M133.3,41.6c-0.066-1.533,0.084-3.25,0.45-5.15
			c0.767-3.767,2.25-6.55,4.45-8.35l-2.351,3.2c-1.399,2.967-1.699,6.534-0.899,10.7L133.3,41.6z"/>
		<g>
			<path style="fill-rule:evenodd;clip-rule:evenodd;fill:#1A2B0F;" d="M185.15,67.7c4.1-0.967,6.783,0.116,8.05,3.25
				c0.633,1.566,1,4.916,1.1,10.05c1.7-0.2,2.834,0.15,3.4,1.05c0.333,0.533,0.816,1.601,1.45,3.2c0.433,0.7,1.017,1.3,1.75,1.8
				c0.133,0.101,0.866,0.533,2.199,1.3c0.334,0.2,0.601,0.483,0.801,0.851c0.066,0.2,0.55,0.35,1.449,0.45
				c0.301,0.033,0.801-0.051,1.5-0.25c0.7-0.233,1.25-0.317,1.65-0.25c2.634,0.3,4.767,1.85,6.4,4.649
				c1.399,2.4,2.116,5.033,2.149,7.9c2.2,0.333,3.783,1.033,4.75,2.1c1.101,1.167,1.584,2.834,1.45,5
				c-0.533,0.033-1.4-0.017-2.6-0.149l-3.301-0.551c-19.199-2.166-36.433-3.233-51.699-3.199c-15.967,0.1-34.917,1.1-56.851,3
				c-18.466,1.6-35.867,3.5-52.2,5.699c-11.633,1.5-24.733,3.45-39.3,5.851c-3.133,0.533-8.9,1.633-17.3,3.3
				c0.067-1.434,0.467-2.767,1.2-4c0.867-1.434,1.45-2.967,1.75-4.6c0.2-1.034,1.216-2,3.05-2.9c2-1,3.217-1.884,3.65-2.65
				c2.167-4.033,3.5-6.333,4-6.899c2.133-2.566,4.517-3.15,7.15-1.75c-0.233-1.7,0.4-2.934,1.9-3.7
				c0.867-0.467,2.283-0.95,4.25-1.45c-1.5-0.899-1.083-2.8,1.25-5.7c1.9-2.366,3.683-4.033,5.35-5
				c1.767-1.033,3.75-1.616,5.95-1.75c2.167-0.1,4.183,0.267,6.05,1.101c0.867-2.233,2.133-3.717,3.8-4.45
				c0.467-0.2,1.217-0.35,2.25-0.45c0.767-0.066,1.333-0.3,1.7-0.7c0.333-0.333,0.684-1.116,1.05-2.35
				c0.333-1.2,0.767-2.033,1.3-2.5c0.967-0.866,2.667-1.65,5.1-2.35c0.067-3.667,0.65-6.351,1.75-8.051
				c1.233-1.966,3.517-3.383,6.85-4.25c0.133-0.033,2.1-1.133,5.9-3.3c2.367-1.333,4.533-1.35,6.5-0.05
				c-0.133-1.2,0.133-2.35,0.8-3.45c0.667-1.033,1.567-1.833,2.7-2.4c3.5-1.7,6.167-1.533,8,0.5c0.5-2.066,1.433-3.683,2.8-4.85
				c1.6-1.367,3.267-1.517,5-0.45c0.1-3.867,1.15-6.533,3.15-8c1.966-1.434,4.716-1.55,8.25-0.35c0.7-3.833,1.316-6.45,1.85-7.85
				c0.9-2.4,3.066-3.25,6.5-2.55c3.3,0.667,6.033,2.617,8.2,5.85c2.1,3.133,3.017,6.45,2.75,9.95c2.533-0.633,4.884,0.25,7.05,2.65
				c0.967,1.067,1.717,1.75,2.25,2.05c0.167,0.066,1.117,0.417,2.851,1.05c0.8,0.3,1.8,0.75,3,1.35
				c1.066,0.433,2.149,0.617,3.25,0.55c0.966-0.033,2.083-0.15,3.35-0.35c0.934,0.1,1.767,0.816,2.5,2.15c2.467-1.9,4-3,4.6-3.3
				c1.834-0.867,3.534-0.716,5.101,0.45c0.6,0.433,1.166,1.333,1.7,2.7c0.566,1.367,1.116,2.25,1.649,2.65
				c0.767,0.566,1.75,0.733,2.95,0.5c1.533-0.3,2.616-0.383,3.25-0.25c3,0.667,5.25,2.533,6.75,5.6
				C182.9,60.967,183.95,63.8,185.15,67.7z"/>
			
				<radialGradient id="SVGID_1_" cx="101.1987" cy="151.291" r="117.6754" gradientTransform="matrix(1 0.0025 -0.0016 -0.8007 0.5421 272.4343)" gradientUnits="userSpaceOnUse">
				<stop  offset="0" style="stop-color:#1B2C0F"/>
				<stop  offset="1" style="stop-color:#233211"/>
			</radialGradient>
			<path style="fill-rule:evenodd;clip-rule:evenodd;fill:url(#SVGID_1_);" d="M187.4,67.55c2.6,0,4.416,1.217,5.449,3.65
				c0.601,1.467,0.967,3.6,1.101,6.399l0.05,3.25c0.967-0.033,1.717,0.101,2.25,0.4c0.5,0.267,0.934,0.8,1.3,1.6
				c0.667,1.467,1.05,2.267,1.15,2.4c0.434,0.667,1,1.267,1.7,1.8c0.267,0.2,0.983,0.65,2.149,1.351
				c0.334,0.199,0.601,0.483,0.8,0.85c0.134,0.167,0.601,0.3,1.4,0.4c0.333,0.066,0.85,0,1.55-0.2c0.7-0.167,1.233-0.233,1.601-0.2
				c0.933,0.134,2.017,0.533,3.25,1.2c1.166,0.666,2.166,1.566,3,2.7c1,1.3,1.75,3,2.25,5.1c0.199,0.866,0.3,2,0.3,3.4l1.05,0.3
				c2.1,0.6,3.5,1.416,4.2,2.45c0.899,1.267,1.25,2.75,1.05,4.449h-0.9l-4.899-0.699c-19.233-2.2-36.434-3.25-51.601-3.15
				c-15.1,0.033-34.033,1.017-56.8,2.95c-18.2,1.566-35.566,3.45-52.1,5.649l-1.15,0.15c-12.5,1.667-25.2,3.566-38.1,5.7l-2,0.35
				c-5.333,0.967-10.417,1.95-15.25,2.95c0.033-1.434,0.4-2.7,1.1-3.8c0.934-1.467,1.55-2.733,1.85-3.8l0.2-0.851
				c0.2-0.934,0.9-1.767,2.1-2.5c1.167-0.566,2.033-1,2.6-1.3c0.967-0.533,1.65-1.116,2.05-1.75c1.3-3.3,2.617-5.684,3.95-7.15
				c0.934-1,1.967-1.633,3.1-1.899c1.333-0.3,2.617-0.066,3.85,0.7c-0.133-1.7,0.533-2.95,2-3.75
				c1.933-0.667,3.317-1.184,4.15-1.551c-0.6-0.433-0.767-1.133-0.5-2.1c0.1-1.3,1.033-2.967,2.8-5c1.5-1.667,2.816-2.85,3.95-3.55
				c1.733-1.066,3.767-1.65,6.1-1.75c2.033-0.066,3.967,0.35,5.8,1.25l0.65-1.101c0.867-1.533,1.883-2.583,3.05-3.149
				c0.433-0.233,0.933-0.4,1.5-0.5c0.333-0.033,0.767-0.101,1.3-0.2c0.367-0.1,0.717-0.3,1.05-0.6
				c0.333-0.334,0.717-1.084,1.15-2.25c0.433-1.101,0.917-1.851,1.45-2.25c0.5-0.4,1.117-0.733,1.85-1
				c0.7-0.4,1.684-0.851,2.95-1.351c0.033-1.5,0.217-2.883,0.55-4.149c0.6-2.634,2.083-4.684,4.45-6.15
				c1.333-0.8,2.55-1.383,3.65-1.75c0.533-0.233,1.133-0.567,1.8-1c0.833-0.567,2.117-1.467,3.85-2.7
				c1.534-0.933,2.983-1.25,4.35-0.95c0.633,0.1,1.267,0.35,1.9,0.75c-0.033-1.1,0.317-2.167,1.05-3.2c0.7-0.967,1.6-1.75,2.7-2.35
				c1.967-1.033,3.684-1.466,5.15-1.3c1.133,0.1,2.1,0.583,2.9,1.45c0.2-0.633,0.467-1.2,0.8-1.7c1.267-2.433,2.85-3.7,4.75-3.8
				c0.8-0.1,1.567,0.017,2.3,0.35c0.1-1.133,0.283-2.183,0.55-3.15c0.6-2.1,1.717-3.6,3.35-4.5c1.733-1.467,4.267-1.75,7.6-0.85
				c0.666-1.533,1.366-3.667,2.1-6.4c0.4-1.267,0.867-2.183,1.4-2.75c0.733-0.8,1.767-1.217,3.1-1.25c0.5-0.033,1.101-0.033,1.8,0
				c1.534,0.167,2.95,0.65,4.25,1.45c2.233,1.4,4,3.5,5.301,6.3c1.1,2.367,1.6,4.934,1.5,7.7l1.449-0.05
				c1.167,0.067,2.184,0.3,3.051,0.7c0.767,0.4,1.633,1.117,2.6,2.15c0.833,0.9,1.533,1.517,2.1,1.85c0.167,0.1,0.9,0.417,2.2,0.95
				l0.8,0.4c0.434,0.167,1.034,0.45,1.801,0.85c1.466,0.633,2.933,0.917,4.399,0.85l3.3-0.15c0.867,0.133,1.634,0.883,2.301,2.25
				l0.949-0.6c1.867-1.466,3.233-2.383,4.101-2.75c1.6-0.667,3.116-0.566,4.55,0.3c0.533,0.333,1.083,1,1.65,2
				c0.199,0.4,0.466,0.983,0.8,1.75c0.3,0.667,0.649,1.15,1.05,1.45c0.733,0.567,1.75,0.733,3.05,0.5c1.601-0.333,2.7-0.433,3.3-0.3
				c1.733,0.367,3.184,1.1,4.351,2.2c0.899,0.867,1.767,2.1,2.6,3.7c0.834,1.7,1.851,4.367,3.05,8
				C185.85,67.483,186.7,67.45,187.4,67.55z"/>
			
				<radialGradient id="SVGID_2_" cx="100.9722" cy="151.2441" r="116.7024" gradientTransform="matrix(1 0.0064 -0.0042 -1.0029 1.2617 302.9295)" gradientUnits="userSpaceOnUse">
				<stop  offset="0" style="stop-color:#1B2C10"/>
				<stop  offset="1" style="stop-color:#2C3A13"/>
			</radialGradient>
			<path style="fill-rule:evenodd;clip-rule:evenodd;fill:url(#SVGID_2_);" d="M183.1,63.6c0.334,0.867,0.817,2.184,1.45,3.95
				c0.867-0.033,1.65,0.017,2.351,0.15c2.566,0,4.416,1.166,5.55,3.5c0.666,1.434,1.066,3.517,1.2,6.25l0.05,3.25
				c0.8,0.033,1.5,0.217,2.1,0.55c0.467,0.3,0.9,0.85,1.3,1.65c0.634,1.3,1.017,2.066,1.15,2.3c0.434,0.7,0.983,1.316,1.65,1.85
				c0.399,0.334,1.1,0.8,2.1,1.4c0.267,0.166,0.533,0.45,0.8,0.85c0.134,0.167,0.584,0.3,1.351,0.4
				c0.333,0.033,0.85-0.017,1.55-0.15c0.7-0.166,1.233-0.217,1.6-0.149c0.601,0.1,1.684,0.5,3.25,1.199
				c1.101,0.467,2.167,1.284,3.2,2.45c1.134,1.367,1.917,3.066,2.35,5.101c0.2,0.866,0.301,2.017,0.301,3.449l0.899,0.45
				c2.3,0.767,3.75,1.55,4.351,2.351c0.399,0.533,0.716,1.216,0.949,2.05c0.267,0.899,0.334,1.717,0.2,2.45
				c-0.3,0-0.583-0.017-0.85-0.051L217,108.2c-18.8-2.134-35.934-3.184-51.4-3.15c-15.633,0.101-34.583,1.084-56.85,2.95
				c-18.1,1.566-35.433,3.45-52,5.65L55.6,113.8c-12.167,1.566-24.833,3.45-38,5.65l-2,0.35c-6.967,1.2-12.033,2.184-15.2,2.95
				c0-1.434,0.367-2.7,1.1-3.8c1.033-1.5,1.7-2.717,2-3.65l0.25-0.85c0.3-1.033,1-1.884,2.1-2.55c1.133-0.567,1.983-1,2.55-1.301
				c1-0.533,1.7-1.1,2.1-1.699c0.867-3.034,2.117-5.417,3.75-7.15c0.9-0.934,1.983-1.517,3.25-1.75c1.367-0.233,2.6,0.033,3.7,0.8
				c-0.1-1.666,0.583-2.916,2.05-3.75c1.9-0.7,3.283-1.233,4.15-1.6c-0.533-0.434-0.617-1.101-0.25-2c-0.1-1.3,0.65-2.95,2.25-4.95
				c1.333-1.7,2.617-2.934,3.85-3.7c1.767-1.066,3.783-1.633,6.05-1.7c2.067-0.066,3.983,0.4,5.75,1.4l0.65-0.9
				c0.933-1.533,1.9-2.616,2.9-3.25c0.433-0.233,0.917-0.416,1.45-0.55c0.3-0.066,0.717-0.166,1.25-0.3
				c0.333-0.066,0.684-0.267,1.05-0.6c0.333-0.301,0.767-1,1.3-2.101c0.5-0.967,1.033-1.633,1.6-2c0.333-0.233,0.967-0.517,1.9-0.85
				c0.667-0.533,1.533-1.05,2.6-1.55c0.1-1.467,0.333-2.817,0.7-4.051c0.667-2.3,2.25-4.216,4.75-5.75c0.7-0.433,1.767-1.1,3.2-2
				c0.5-0.267,1.033-0.633,1.6-1.1c1.9-1.6,3.1-2.55,3.6-2.85c1.467-0.933,2.9-1.3,4.3-1.1c0.467,0.034,1.117,0.233,1.95,0.6
				c0.2-2,1.55-3.717,4.05-5.15c1.8-1.133,3.5-1.65,5.1-1.55c1.167,0.066,2.15,0.5,2.95,1.3c0.2-0.467,0.483-0.917,0.85-1.35
				c1.4-2.333,3.034-3.566,4.9-3.7c0.733-0.167,1.45-0.15,2.15,0.05c0.133-0.933,0.383-1.967,0.75-3.1
				c0.733-1.933,1.95-3.267,3.65-4c1.467-1.7,3.85-2.217,7.15-1.55c1.533-3,2.449-4.934,2.75-5.8c0.433-1.333,0.85-2.267,1.25-2.8
				c0.633-0.9,1.55-1.433,2.75-1.6l1.75-0.15c1.6,0,3,0.333,4.199,1c2.301,1.3,4.117,3.383,5.45,6.25c1,2.133,1.5,4.75,1.5,7.85
				l1.4,0.05c1.434,0.133,2.467,0.35,3.1,0.65c0.601,0.3,1.467,1.017,2.601,2.15c0.8,0.833,1.533,1.433,2.199,1.8
				c0.4,0.233,1.134,0.6,2.2,1.1l0.75,0.4c0.934,0.533,1.517,0.85,1.75,0.95c1.134,0.5,2.617,0.7,4.45,0.6
				c1.767-0.133,2.833-0.133,3.2,0c0.767,0.267,1.45,1.083,2.05,2.45l0.85-0.4c2.034-1.533,3.4-2.467,4.101-2.8
				c1.633-0.767,3.166-0.8,4.6-0.1c0.7,0.367,1.283,0.966,1.75,1.8l0.851,1.75c0.333,0.667,0.683,1.15,1.05,1.45
				c0.767,0.566,1.8,0.733,3.1,0.5c1.667-0.333,2.8-0.434,3.4-0.3c1.7,0.333,3.133,1.067,4.3,2.2c0.833,0.8,1.7,2.017,2.6,3.65
				C181.917,60.75,182.5,62.033,183.1,63.6z"/>
			
				<radialGradient id="SVGID_3_" cx="100.7549" cy="151.3486" r="115.8975" gradientTransform="matrix(0.9999 0.0132 -0.0085 -1.3519 2.2437 355.9903)" gradientUnits="userSpaceOnUse">
				<stop  offset="0" style="stop-color:#1C2D10"/>
				<stop  offset="1" style="stop-color:#354115"/>
			</radialGradient>
			<path style="fill-rule:evenodd;clip-rule:evenodd;fill:url(#SVGID_3_);" d="M182.8,63.6c0.367,0.867,0.867,2.167,1.5,3.9
				c0.767,0,1.467,0.134,2.101,0.4c1.267-0.034,2.399,0.267,3.399,0.899c0.934,0.566,1.667,1.351,2.2,2.351
				c0.733,1.399,1.2,3.466,1.4,6.199v3.2c0.666,0.066,1.3,0.316,1.899,0.75c0.467,0.3,0.9,0.834,1.3,1.601
				c0.233,0.466,0.634,1.233,1.2,2.3c0.634,1.066,1.851,2.166,3.65,3.3c0.233,0.167,0.517,0.434,0.85,0.8
				c0.134,0.2,0.55,0.351,1.25,0.45c0.3,0.033,0.816-0.017,1.55-0.15c0.667-0.1,1.184-0.116,1.551-0.05
				c0.933,0.2,2.033,0.601,3.3,1.2c1.333,0.5,2.467,1.25,3.399,2.25c1.134,1.2,1.967,2.9,2.5,5.1c0.2,0.834,0.267,2,0.2,3.5
				l0.851,0.5l2.449,0.95c0.934,0.434,1.601,0.9,2,1.4c0.4,0.5,0.733,1.184,1,2.05c0.301,1,0.367,1.816,0.2,2.45
				c-0.233,0-0.5-0.017-0.8-0.05l-4.9-0.7c-18.933-2.101-36.033-3.134-51.3-3.101c-15.967,0.101-34.916,1.101-56.85,3
				c-17.333,1.467-34.617,3.317-51.85,5.551L55.7,113.8c-13,1.733-25.65,3.601-37.95,5.601l-2,0.35
				c-7.733,1.333-12.783,2.35-15.15,3.05c-0.033-1.434,0.35-2.7,1.15-3.8c1.133-1.566,1.85-2.75,2.15-3.55l0.25-0.9
				c0.3-1,0.983-1.833,2.05-2.5c1.167-0.6,2.033-1.05,2.6-1.35c1-0.566,1.717-1.134,2.15-1.7c0.167-1.1,0.55-2.283,1.15-3.55
				c0.7-1.5,1.5-2.7,2.4-3.601c0.867-0.866,1.967-1.383,3.3-1.55c1.467-0.2,2.667,0.117,3.6,0.95c0-1.667,0.717-2.934,2.15-3.8
				c1.833-0.733,3.184-1.283,4.05-1.65c-0.367-0.434-0.367-1.083,0-1.95c-0.3-1.267,0.267-2.899,1.7-4.899
				c1.233-1.7,2.483-2.95,3.75-3.75c1.733-1.101,3.767-1.684,6.1-1.75c1.867-0.066,3.767,0.45,5.7,1.55l0.6-0.6
				c0.867-1.601,1.8-2.717,2.8-3.351c0.4-0.267,0.85-0.483,1.35-0.649c0.3-0.067,0.717-0.184,1.25-0.351
				c0.4-0.166,0.733-0.383,1-0.649c0.367-0.301,0.867-0.95,1.5-1.95C53.883,76.583,54.433,76,55,75.7l1.95-0.7
				c0.566-0.566,1.333-1.15,2.3-1.75c0.1-1.3,0.383-2.616,0.85-3.95c0.433-1.166,1.117-2.2,2.05-3.1c0.633-0.634,1.633-1.384,3-2.25
				c0.7-0.467,1.633-1.217,2.8-2.25l1.35-1.2c1.5-1.5,2.633-2.5,3.4-3c1.433-1,2.85-1.417,4.25-1.25
				c0.633,0.067,1.283,0.233,1.95,0.5c0.333-1.6,1.767-3.217,4.3-4.85c1.767-1.167,3.45-1.75,5.05-1.75c1.233,0,2.233,0.383,3,1.15
				c0.333-0.466,0.65-0.8,0.95-1c0.767-1.133,1.483-1.966,2.15-2.5c0.867-0.667,1.833-1.017,2.9-1.05c0.633-0.3,1.3-0.4,2-0.3
				c0.267-1.3,0.583-2.3,0.95-3c0.8-1.767,2.117-2.95,3.95-3.55c0.567-0.9,1.434-1.55,2.6-1.95c1.2-0.434,2.583-0.534,4.15-0.3
				c0.3-0.533,0.9-1.417,1.8-2.65c0.733-1,1.233-1.85,1.5-2.55c0.566-1.6,0.95-2.567,1.149-2.9c0.567-0.966,1.384-1.583,2.45-1.85
				l1.601-0.35c1.6-0.233,3-0.05,4.199,0.55c1.134,0.533,2.217,1.417,3.25,2.65c0.967,1.1,1.75,2.3,2.351,3.6
				c0.934,1.9,1.434,4.533,1.5,7.9l1.399,0.2c0.334,0.067,0.851,0.133,1.551,0.2c0.633,0.066,1.149,0.2,1.55,0.4
				c0.467,0.2,0.934,0.517,1.399,0.95c0.267,0.267,0.667,0.684,1.2,1.25c0.767,0.767,1.517,1.35,2.25,1.75
				c1.3,0.667,2.033,1.05,2.2,1.15l0.75,0.5c0.934,0.6,1.5,0.933,1.7,1c0.6,0.233,1.3,0.367,2.1,0.4
				c0.434,0.033,1.217,0.017,2.351-0.05c1.6-0.133,2.649-0.083,3.149,0.15c0.7,0.333,1.316,1.2,1.851,2.6l0.75-0.2
				c2.267-1.633,3.616-2.567,4.05-2.8c1.666-0.867,3.2-1.033,4.6-0.5c0.767,0.3,1.4,0.85,1.9,1.65c0.1,0.133,0.399,0.7,0.899,1.7
				c0.334,0.7,0.684,1.184,1.051,1.45c0.767,0.566,1.833,0.733,3.199,0.5c1.7-0.333,2.851-0.434,3.45-0.3
				c1.7,0.333,3.117,1.05,4.25,2.15c0.7,0.667,1.584,1.867,2.65,3.6C181.583,60.833,182.2,62.1,182.8,63.6z"/>
			
				<radialGradient id="SVGID_4_" cx="100.6021" cy="151.7373" r="115.3187" gradientTransform="matrix(0.9996 0.0275 -0.0178 -2.0987 3.9837 470.2888)" gradientUnits="userSpaceOnUse">
				<stop  offset="0" style="stop-color:#1D2E10"/>
				<stop  offset="1" style="stop-color:#3E4817"/>
			</radialGradient>
			<path style="fill-rule:evenodd;clip-rule:evenodd;fill:url(#SVGID_4_);" d="M184,67.4c0.767,0.166,1.4,0.383,1.9,0.649
				c1.233-0.033,2.366,0.25,3.399,0.851c0.967,0.566,1.717,1.316,2.25,2.25c0.867,1.399,1.384,3.433,1.55,6.1v3.15
				c0.467,0.133,1.034,0.433,1.7,0.899c0.467,0.334,0.9,0.884,1.3,1.65c0.267,0.434,0.667,1.166,1.2,2.2
				c0.733,1.166,1.95,2.316,3.65,3.449c0.066,0.067,0.333,0.317,0.8,0.75c0.167,0.167,0.583,0.301,1.25,0.4
				c0.3,0.033,0.8,0.017,1.5-0.05c0.667-0.101,1.184-0.101,1.55,0c0.5,0.133,1.066,0.35,1.7,0.649
				c0.667,0.267,1.217,0.467,1.65,0.601c1.267,0.333,2.433,0.983,3.5,1.95c1.267,1.166,2.149,2.866,2.649,5.1
				c0.134,0.566,0.2,1.75,0.2,3.55c0.2,0.267,0.45,0.467,0.75,0.601c0.467,0.233,1.283,0.55,2.45,0.949c1,0.434,1.7,0.884,2.1,1.351
				c0.4,0.5,0.75,1.2,1.05,2.1c0.367,1.066,0.45,1.867,0.25,2.4c-0.066,0-0.333-0.017-0.8-0.05l-4.85-0.65
				c-19.033-2.134-36.084-3.15-51.15-3.05c-15.133,0.033-34.083,1.017-56.85,2.95c-17.4,1.466-34.667,3.316-51.8,5.55l-1.15,0.149
				c-12.567,1.634-25.183,3.483-37.85,5.551l-2,0.35c-3.4,0.566-5.983,1-7.75,1.3c-3.167,0.601-5.617,1.184-7.35,1.75
				c-0.066-1.434,0.317-2.7,1.15-3.8c1.267-1.667,2.033-2.816,2.3-3.45l0.3-0.85c0.367-1.101,1.05-1.95,2.05-2.55
				c0.167-0.134,1.017-0.584,2.55-1.351c1.033-0.533,1.783-1.083,2.25-1.649c0.067-1.067,0.383-2.267,0.95-3.601
				c0.633-1.467,1.417-2.649,2.35-3.55c0.833-0.8,1.983-1.267,3.45-1.4c1.533-0.133,2.7,0.233,3.5,1.101
				c0.067-1.7,0.783-2.983,2.15-3.851c1.8-0.767,3.133-1.35,4-1.75c-0.267-0.399-0.167-1.017,0.3-1.85
				c-0.567-1.233-0.2-2.85,1.1-4.85c1.1-1.733,2.333-3.017,3.7-3.851c1.767-1.133,3.8-1.7,6.1-1.7
				c0.767-0.033,1.683,0.117,2.75,0.45c1.1,0.3,2.05,0.7,2.85,1.2c0.3-0.1,0.5-0.217,0.6-0.35c0.867-1.601,1.75-2.733,2.65-3.4
				c0.367-0.3,0.8-0.55,1.3-0.75c0.267-0.1,0.667-0.25,1.2-0.45l1.05-0.6c0.3-0.267,0.833-0.867,1.6-1.8
				c0.6-0.733,1.2-1.233,1.8-1.5c0.5-0.233,1.15-0.434,1.95-0.601c0.4-0.533,1.067-1.184,2-1.95c0.133-1.366,0.483-2.666,1.05-3.899
				c0.467-1.033,1.217-1.983,2.25-2.851c0.233-0.199,1.25-0.899,3.05-2.1c0.433-0.3,0.867-0.684,1.3-1.15
				c0.233-0.3,0.6-0.733,1.1-1.3l1.1-1.35c1.2-1.434,2.25-2.483,3.15-3.15c1.367-0.966,2.767-1.417,4.2-1.35
				c0.6,0,1.25,0.133,1.95,0.4c0.5-1.2,2.033-2.717,4.6-4.55c1.7-1.2,3.383-1.85,5.05-1.95c1.267-0.067,2.284,0.283,3.05,1.05
				c0.267-0.3,0.617-0.533,1.05-0.7c0.8-1.133,1.533-1.95,2.2-2.45c0.867-0.633,1.85-0.967,2.95-1c0.467-0.367,1.1-0.55,1.9-0.55
				c0.233-1.2,0.6-2.2,1.1-3c0.5-0.934,1.133-1.65,1.9-2.15c0.566-0.367,1.35-0.683,2.35-0.95c0.434-0.967,1.2-1.717,2.3-2.25
				c1.167-0.533,2.517-0.75,4.05-0.65c0.367-0.567,1.067-1.35,2.1-2.35c0.9-0.867,1.483-1.617,1.75-2.25
				c0.434-1.333,0.783-2.317,1.05-2.95c0.5-1.1,1.2-1.816,2.101-2.15c0.3-0.1,0.816-0.283,1.55-0.55c1.5-0.467,2.899-0.417,4.2,0.15
				c1.1,0.467,2.199,1.316,3.3,2.55c0.967,1.1,1.767,2.3,2.399,3.6c0.733,1.433,1.25,4.1,1.551,8l1.3,0.4
				c0.333,0.067,0.866,0.117,1.6,0.15c0.667,0.067,1.184,0.184,1.55,0.35c0.467,0.2,0.934,0.533,1.4,1
				c0.267,0.267,0.667,0.684,1.2,1.25c0.7,0.7,1.483,1.25,2.35,1.65c1,0.5,1.733,0.917,2.2,1.25l0.65,0.55
				c0.767,0.6,1.333,0.983,1.699,1.15c0.601,0.2,1.301,0.283,2.101,0.25c0.5-0.033,1.283-0.117,2.35-0.25
				c1.5-0.133,2.533,0,3.101,0.4c0.6,0.367,1.149,1.283,1.649,2.75h0.65c0.833-0.566,2.184-1.517,4.05-2.85
				c1.667-0.966,3.2-1.267,4.6-0.9c0.801,0.267,1.467,0.75,2,1.45c0.2,0.267,0.517,0.833,0.95,1.7c0.334,0.733,0.684,1.233,1.05,1.5
				c0.767,0.6,1.867,0.767,3.301,0.5c1.8-0.333,2.983-0.45,3.55-0.35c1.666,0.3,3.05,1.017,4.149,2.15
				c0.601,0.566,1.483,1.75,2.65,3.55C181.6,61.5,182.767,64,184,67.4z"/>
			
				<radialGradient id="SVGID_5_" cx="100.6851" cy="153.0176" r="115.2573" gradientTransform="matrix(0.9968 0.08 -0.0514 -4.8216 9.5042 891.4318)" gradientUnits="userSpaceOnUse">
				<stop  offset="0" style="stop-color:#1D2F10"/>
				<stop  offset="1" style="stop-color:#474F19"/>
			</radialGradient>
			<path style="fill-rule:evenodd;clip-rule:evenodd;fill:url(#SVGID_5_);" d="M183.7,67.35c0.633,0.2,1.2,0.5,1.7,0.9
				c1.166-0.033,2.283,0.233,3.35,0.8c1.033,0.533,1.833,1.233,2.4,2.101c0.899,1.333,1.449,3.316,1.649,5.949v3.15
				c0.3,0.167,0.816,0.533,1.55,1.1c0.434,0.367,0.867,0.9,1.301,1.601c0.267,0.434,0.666,1.149,1.199,2.149
				c0.767,1.267,1.95,2.45,3.551,3.551c0.066,0.066,0.35,0.316,0.85,0.75c0.167,0.166,0.55,0.3,1.15,0.399
				c0.267,0.033,0.767,0.017,1.5-0.05c0.633-0.033,1.149,0,1.55,0.1c0.467,0.134,1.033,0.351,1.7,0.65
				c0.6,0.267,1.149,0.467,1.649,0.6c1.434,0.334,2.667,0.917,3.7,1.75c1.333,1.067,2.267,2.75,2.8,5.051
				c0.134,0.6,0.167,1.8,0.101,3.6c0.233,0.333,0.449,0.566,0.649,0.7c0.233,0.133,1.05,0.467,2.45,1
				c1.1,0.399,1.833,0.816,2.2,1.25c0.399,0.467,0.783,1.184,1.149,2.149c0.434,1.134,0.534,1.934,0.301,2.4
				c-0.067,0-0.317-0.017-0.75-0.05l-4.9-0.7c-18.733-2.033-35.733-3.033-51-3c-15.634,0.1-34.583,1.083-56.85,2.95
				c-18,1.5-35.233,3.333-51.7,5.5l-1.1,0.149c-12.4,1.634-25,3.483-37.8,5.551l-2,0.3c-3.367,0.533-5.95,0.967-7.75,1.3
				c-3.167,0.566-5.583,1.167-7.25,1.8c-0.1-1.434,0.267-2.684,1.1-3.75c1.4-1.767,2.217-2.883,2.45-3.35l0.35-0.851
				c0.367-1.1,1.05-1.966,2.05-2.6c0.333-0.233,1.2-0.684,2.6-1.35c1.033-0.534,1.783-1.067,2.25-1.601
				c-0.067-1.066,0.183-2.283,0.75-3.649c0.6-1.467,1.383-2.65,2.35-3.551c0.8-0.733,1.983-1.116,3.55-1.149
				c1.633-0.066,2.75,0.333,3.35,1.2c0.167-1.7,0.9-3,2.2-3.9c0.067-0.033,1.383-0.634,3.95-1.8c-0.133-0.4,0.067-0.983,0.6-1.75
				c-0.8-1.2-0.633-2.8,0.5-4.8c1-1.767,2.217-3.101,3.65-4c1.733-1.134,3.75-1.7,6.05-1.7c0.733,0,1.65,0.184,2.75,0.55
				c1.1,0.366,2.05,0.8,2.85,1.3l0.55-0.149c0.966-1.733,1.8-2.9,2.5-3.5c0.4-0.334,1.216-0.767,2.45-1.301l1-0.649
				c0.067-0.066,0.65-0.617,1.75-1.65c0.633-0.6,1.283-1.017,1.95-1.25c0.133-0.066,0.783-0.217,1.95-0.45
				c0.267-0.566,0.817-1.267,1.65-2.1c0.167-1.3,0.583-2.583,1.25-3.85c0.533-0.934,1.367-1.784,2.5-2.551
				c0.667-0.466,1.716-1.133,3.15-2c0.433-0.3,0.8-0.716,1.1-1.25c0.367-0.633,0.633-1.116,0.8-1.449l0.9-1.45
				c2.133-3.2,4.483-4.8,7.05-4.8c0.633,0,1.3,0.1,2,0.3c0.4-0.667,1.1-1.383,2.1-2.15c0.567-0.466,1.5-1.167,2.8-2.1
				c1.566-1.233,3.217-1.95,4.95-2.15c1.3-0.133,2.35,0.167,3.15,0.9c0.333-0.233,0.7-0.35,1.1-0.35
				c0.867-1.133,1.633-1.934,2.3-2.4c0.867-0.6,1.883-0.917,3.05-0.95c0.367-0.4,0.934-0.683,1.7-0.85c0.3-1.2,0.733-2.183,1.3-2.95
				c0.567-0.9,1.25-1.534,2.05-1.9c0.566-0.3,1.4-0.533,2.5-0.7c0.267-1.033,0.933-1.883,2-2.55c1.1-0.667,2.4-1.033,3.9-1.1
				c0.433-0.534,1.25-1.2,2.45-2c1.066-0.7,1.733-1.367,2-2c0.4-1.3,0.717-2.3,0.95-3c0.434-1.2,1.033-2,1.8-2.4
				c0.934-0.533,1.417-0.8,1.45-0.8c1.533-0.633,2.917-0.717,4.15-0.25c1.133,0.433,2.267,1.267,3.399,2.5
				c1,1.133,1.816,2.35,2.45,3.65c0.434,0.9,0.783,2.2,1.05,3.9c0.167,0.967,0.334,2.35,0.5,4.15L131.3,43
				c0.2,0.033,0.733,0.083,1.601,0.15c0.699,0.033,1.233,0.133,1.6,0.3c0.467,0.2,0.934,0.533,1.4,1
				c0.267,0.267,0.666,0.683,1.199,1.25c0.7,0.667,1.5,1.216,2.4,1.65c0.967,0.433,1.717,0.883,2.25,1.35l0.6,0.6
				c0.733,0.667,1.284,1.067,1.65,1.2c0.566,0.2,1.283,0.233,2.15,0.1c0.5-0.067,1.283-0.184,2.35-0.35
				c1.434-0.133,2.434,0.05,3,0.55c0.533,0.434,1.017,1.4,1.45,2.9l0.55,0.25c0.833-0.534,2.167-1.5,4-2.9
				c1.733-1.066,3.267-1.483,4.6-1.25c0.867,0.167,1.584,0.567,2.15,1.2c0.233,0.267,0.55,0.833,0.95,1.7
				c0.366,0.733,0.733,1.233,1.1,1.5c0.767,0.6,1.884,0.767,3.351,0.5c1.866-0.333,3.083-0.45,3.649-0.35c1.634,0.3,3,1,4.101,2.1
				c0.3,0.333,1.199,1.517,2.699,3.55C181.3,61.667,182.5,64.116,183.7,67.35z"/>
			
				<radialGradient id="SVGID_6_" cx="-124.7725" cy="-198.186" r="118.855" gradientTransform="matrix(-0.9599 0.2804 -0.1815 -13.92 -33.2932 -2553.0667)" gradientUnits="userSpaceOnUse">
				<stop  offset="0" style="stop-color:#1E2F11"/>
				<stop  offset="1" style="stop-color:#51571C"/>
			</radialGradient>
			<path style="fill-rule:evenodd;clip-rule:evenodd;fill:url(#SVGID_6_);" d="M183.4,67.25c0.566,0.3,1.066,0.684,1.5,1.15
				c1.133-0.034,2.25,0.216,3.35,0.75c1.033,0.5,1.85,1.166,2.45,2c1.033,1.333,1.633,3.283,1.8,5.85v3.1
				c0.333,0.233,0.783,0.65,1.35,1.25c0.567,0.534,1.417,1.784,2.551,3.75c0.833,1.367,1.983,2.567,3.449,3.601
				c0.334,0.233,0.617,0.483,0.851,0.75c0.2,0.166,0.566,0.283,1.1,0.35c0.267,0.066,0.75,0.084,1.45,0.05
				c0.667-0.033,1.2,0.017,1.6,0.15c0.367,0.134,0.934,0.366,1.7,0.7c0.533,0.267,1.101,0.45,1.7,0.55c1.6,0.3,2.884,0.8,3.85,1.5
				c1.434,1.134,2.4,2.833,2.9,5.1c0.1,0.467,0.116,1.684,0.05,3.65c0.167,0.366,0.367,0.634,0.601,0.8
				c0.267,0.167,1.083,0.483,2.449,0.95c1.167,0.4,1.934,0.816,2.301,1.25c0.399,0.434,0.8,1.167,1.199,2.2
				c0.5,1.166,0.601,1.95,0.301,2.35c-0.034,0-0.267-0.033-0.7-0.1l-4.851-0.65c-18.666-2.033-35.633-3.033-50.899-3
				c-15.566,0.066-34.517,1.05-56.85,2.95c-17.967,1.5-35.15,3.333-51.55,5.5l-1.15,0.15c-11.5,1.466-24.066,3.283-37.7,5.449
				l-2,0.351c-3.367,0.5-5.934,0.916-7.7,1.25c-3.2,0.533-5.617,1.149-7.25,1.85c-0.167-1.434,0.217-2.684,1.15-3.75
				c1.567-1.833,2.434-2.916,2.6-3.25l0.35-0.8c0.467-1.2,1.133-2.083,2-2.65c0.4-0.267,1.267-0.716,2.6-1.35
				c1.066-0.533,1.833-1.05,2.3-1.55c-0.167-1.066,0.017-2.3,0.55-3.7c0.567-1.434,1.35-2.6,2.35-3.5
				c0.767-0.7,1.983-1.05,3.65-1.05c1.7,0.033,2.784,0.483,3.25,1.35c0.233-1.7,1-3,2.3-3.899c0.1-0.067,1.383-0.684,3.85-1.851
				c0-0.333,0.283-0.899,0.85-1.7c-1-1.166-1.017-2.75-0.05-4.75c0.867-1.767,2.067-3.133,3.6-4.1c1.733-1.134,3.75-1.7,6.05-1.7
				c0.667,0,1.567,0.2,2.7,0.601c1.133,0.399,2.066,0.866,2.8,1.399l0.55,0.101c1-1.801,1.8-2.983,2.4-3.551
				c0.467-0.466,1.233-0.966,2.3-1.5l1-0.6c0.9-0.733,1.533-1.25,1.9-1.55c0.7-0.5,1.383-0.834,2.05-1c0.1-0.033,0.767-0.134,2-0.3
				c0.2-0.7,0.65-1.467,1.35-2.301c0.233-1.333,0.7-2.583,1.4-3.75c0.533-0.833,1.433-1.616,2.7-2.35
				c2.133-1.2,3.217-1.816,3.25-1.85c0.434-0.301,0.767-0.733,1-1.301c0.2-0.699,0.367-1.233,0.5-1.6
				c0.167-0.533,0.383-1.05,0.65-1.55c1.7-3.267,3.966-4.967,6.8-5.1c0.633-0.033,1.3,0.017,2,0.15
				c0.433-0.467,1.217-1.083,2.35-1.85c1.367-0.933,2.3-1.6,2.8-2c1.5-1.3,3.15-2.1,4.95-2.4c1.333-0.2,2.4,0.05,3.2,0.75
				c0.367-0.167,0.75-0.167,1.15,0c0.966-1.133,1.767-1.917,2.4-2.35c0.867-0.533,1.9-0.816,3.1-0.85
				c0.333-0.533,0.85-0.933,1.55-1.2c0.4-1.133,0.883-2.1,1.45-2.9c0.633-0.833,1.4-1.4,2.3-1.7c0.5-0.167,1.367-0.3,2.6-0.4
				c0.167-1.133,0.733-2.1,1.7-2.9c1.034-0.8,2.3-1.284,3.8-1.45c0.467-0.533,1.383-1.1,2.75-1.7c1.233-0.533,2-1.1,2.301-1.7
				c0.133-0.233,0.416-1.25,0.85-3.05c0.3-1.367,0.767-2.267,1.4-2.7c0.3-0.2,0.75-0.533,1.35-1c1.5-0.867,2.884-1.1,4.15-0.7
				c1.133,0.367,2.3,1.2,3.5,2.5c1.033,1.1,1.866,2.3,2.5,3.6c0.433,0.867,0.783,2.183,1.05,3.95c0.133,0.966,0.3,2.367,0.5,4.2
				c0.366,0.333,0.767,0.567,1.2,0.7c0.3,0.1,0.85,0.15,1.649,0.15c0.733,0.033,1.267,0.117,1.601,0.25
				c0.466,0.2,0.933,0.533,1.399,1c0.267,0.3,0.667,0.733,1.2,1.3c0.667,0.633,1.5,1.15,2.5,1.55c0.967,0.4,1.717,0.883,2.25,1.45
				l0.55,0.65c0.5,0.7,1.017,1.133,1.55,1.3c0.567,0.167,1.301,0.167,2.2,0c1.434-0.333,2.217-0.5,2.351-0.5
				c1.399-0.133,2.399,0.1,3,0.7c0.433,0.466,0.833,1.5,1.199,3.1l0.45,0.45c0.834-0.533,2.184-1.517,4.05-2.95
				c1.733-1.167,3.25-1.716,4.551-1.65c0.899,0.067,1.649,0.4,2.25,1c0.3,0.3,0.649,0.867,1.05,1.7
				c0.366,0.767,0.717,1.283,1.05,1.55c0.733,0.6,1.866,0.75,3.4,0.45c1.933-0.333,3.183-0.45,3.75-0.35
				c1.633,0.267,3,0.967,4.1,2.1c0.667,0.667,1.566,1.816,2.7,3.45C181.167,61.917,182.4,64.316,183.4,67.25z"/>
			
				<radialGradient id="SVGID_7_" cx="-120.0747" cy="-149.5308" r="114.6373" gradientTransform="matrix(-0.9977 0.0676 -0.0436 -2.8394 -4.2217 -274.8582)" gradientUnits="userSpaceOnUse">
				<stop  offset="0" style="stop-color:#1E3011"/>
				<stop  offset="1" style="stop-color:#5A5E1E"/>
			</radialGradient>
			<path style="fill-rule:evenodd;clip-rule:evenodd;fill:url(#SVGID_7_);" d="M183.15,67.2c0.399,0.267,0.833,0.733,1.3,1.399
				c1.033-0.033,2.133,0.2,3.3,0.7c1.066,0.467,1.917,1.066,2.55,1.8c1.033,1.267,1.684,3.2,1.95,5.801
				c0.033,0.699,0.017,1.716-0.05,3.05l1.149,1.45c0.733,0.733,1.601,1.949,2.601,3.649c0.833,1.434,1.95,2.667,3.35,3.7
				c0.3,0.233,0.584,0.467,0.851,0.7c0.233,0.166,0.6,0.3,1.1,0.399c0.267,0.067,0.75,0.101,1.45,0.101c0.6,0,1.1,0.066,1.5,0.2
				c0.399,0.133,0.967,0.399,1.7,0.8c0.533,0.267,1.116,0.434,1.75,0.5c1.699,0.166,3.05,0.583,4.05,1.25
				c1.467,0.967,2.483,2.649,3.05,5.05c0.1,0.4,0.1,1.634,0,3.7c0.1,0.434,0.267,0.733,0.5,0.899c0.3,0.233,1.116,0.567,2.45,1
				c1.233,0.4,2.033,0.784,2.399,1.15c0.4,0.434,0.817,1.184,1.25,2.25c0.534,1.233,0.65,2.017,0.351,2.35
				c-0.2,0.034-0.3,0.034-0.3,0c0-0.033-0.117-0.066-0.351-0.1l-4.899-0.65c-18.733-2.066-35.634-3.05-50.7-2.949
				c-15.533,0.033-34.483,1-56.85,2.899c-17.533,1.467-34.7,3.283-51.5,5.45L56,113.9c-12.9,1.699-25.45,3.517-37.65,5.449l-2,0.351
				c-3.333,0.467-5.9,0.866-7.7,1.2c-3.167,0.533-5.566,1.183-7.2,1.949c-0.2-1.466,0.183-2.733,1.15-3.8
				c1.767-1.967,2.683-3,2.75-3.1l0.4-0.8c0.533-1.267,1.2-2.167,2-2.7c0.433-0.334,1.283-0.783,2.55-1.351
				c1.1-0.533,1.9-1.033,2.4-1.5c-0.3-1.066-0.184-2.316,0.35-3.75c0.534-1.433,1.317-2.583,2.35-3.449
				c0.733-0.667,1.967-0.967,3.7-0.9c1.833,0.066,2.883,0.566,3.15,1.5c0.333-1.7,1.117-3,2.35-3.9
				c0.267-0.199,1.55-0.85,3.85-1.949c0.066-0.334,0.433-0.884,1.1-1.65c-1.233-1.134-1.433-2.684-0.6-4.65
				c0.733-1.767,1.9-3.183,3.5-4.25c1.7-1.166,3.7-1.716,6-1.649c0.633,0,1.517,0.217,2.65,0.649c1.167,0.434,2.1,0.934,2.8,1.5
				c0.358,0.12,0.533,0.212,0.525,0.275c0.486-0.82,0.844-1.445,1.075-1.875c0.433-0.733,0.833-1.316,1.2-1.75
				c0.533-0.566,1.267-1.1,2.2-1.6l1.05-0.65c1.267-0.866,1.95-1.316,2.05-1.35c0.7-0.4,1.417-0.65,2.15-0.75l2-0.15
				c0.1-0.833,0.45-1.684,1.05-2.55c0.267-1.4,0.8-2.617,1.6-3.65c0.567-0.767,1.534-1.467,2.9-2.1c1.8-0.834,2.9-1.4,3.3-1.7
				c0.433-0.333,0.717-0.8,0.85-1.4c0.1-0.767,0.167-1.35,0.2-1.75c0.133-0.733,0.284-1.283,0.45-1.649
				c0.567-1.467,1.383-2.667,2.45-3.6c1.167-1.033,2.517-1.633,4.05-1.8c0.733-0.066,1.4-0.05,2,0.05c0.4-0.3,1.267-0.833,2.6-1.6
				c1.267-0.733,2.217-1.383,2.85-1.95c1.5-1.367,3.15-2.233,4.95-2.6c1.434-0.267,2.517-0.067,3.25,0.6
				c0.3-0.033,0.717,0.083,1.25,0.35c0.967-1.1,1.783-1.85,2.45-2.25c0.833-0.533,1.883-0.816,3.15-0.85
				c0.2-0.533,0.667-1.033,1.4-1.5c0.434-1.1,0.983-2.05,1.65-2.85c0.7-0.767,1.517-1.25,2.45-1.45c0.467-0.1,1.383-0.15,2.75-0.15
				c0-1.2,0.467-2.267,1.4-3.2c0.934-0.933,2.15-1.55,3.65-1.85c0.5-0.5,1.534-0.966,3.101-1.4c1.399-0.367,2.25-0.833,2.55-1.4
				c0.2-0.4,0.434-1.45,0.7-3.15c0.233-1.5,0.616-2.483,1.149-2.95c0.733-0.733,1.15-1.133,1.25-1.2c1.334-1.1,2.7-1.483,4.101-1.15
				c1.166,0.333,2.366,1.15,3.6,2.45c1.033,1.133,1.884,2.35,2.55,3.65c0.434,0.833,0.767,2.15,1,3.95
				c0.134,1,0.316,2.417,0.55,4.25c0.301,0.333,0.684,0.617,1.15,0.85c0.3,0.1,0.85,0.15,1.65,0.15c0.767,0,1.316,0.066,1.649,0.2
				c0.5,0.2,0.967,0.55,1.4,1.05c0.267,0.267,0.666,0.7,1.2,1.3c0.6,0.533,1.449,1.017,2.55,1.45c0.967,0.4,1.717,0.933,2.25,1.6
				l0.55,0.7c0.467,0.733,0.967,1.184,1.5,1.35c0.566,0.167,1.316,0.117,2.25-0.15c1.267-0.367,2.05-0.567,2.35-0.6
				c1.367-0.167,2.334,0.117,2.9,0.85c0.366,0.533,0.7,1.617,1,3.25c0.134,0.333,0.25,0.55,0.35,0.65c0.801-0.467,2.134-1.467,4-3
				c1.767-1.3,3.284-1.967,4.551-2c0.933-0.033,1.733,0.233,2.399,0.8c0.367,0.3,0.733,0.85,1.101,1.65
				c0.366,0.8,0.716,1.333,1.05,1.6c0.733,0.6,1.899,0.767,3.5,0.5c2-0.367,3.267-0.5,3.8-0.4c1.6,0.267,2.95,0.967,4.05,2.1
				c0.634,0.667,1.533,1.8,2.7,3.4C180.917,62.083,182.217,64.434,183.15,67.2z"/>
			
				<radialGradient id="SVGID_8_" cx="-119.6655" cy="-149.0151" r="114.6808" gradientTransform="matrix(-0.9991 0.0429 -0.0277 -1.5602 -1.4811 -83.4543)" gradientUnits="userSpaceOnUse">
				<stop  offset="0" style="stop-color:#1F3111"/>
				<stop  offset="1" style="stop-color:#636520"/>
			</radialGradient>
			<path style="fill-rule:evenodd;clip-rule:evenodd;fill:url(#SVGID_8_);" d="M182.85,67.1c0.5,0.601,0.867,1.15,1.101,1.65
				c1-0.033,2.083,0.184,3.25,0.65c1.166,0.466,2.05,1.033,2.649,1.699c1.134,1.233,1.834,3.117,2.101,5.65
				c0.066,0.7,0.05,1.717-0.05,3.05c0.466,0.867,0.8,1.417,1,1.65c0.933,1.066,1.8,2.25,2.6,3.55c0.8,1.434,1.884,2.7,3.25,3.8
				c0.3,0.233,0.6,0.467,0.9,0.7c0.233,0.167,0.566,0.3,1,0.4c0.199,0.033,0.683,0.083,1.449,0.149c0.601,0,1.101,0.084,1.5,0.25
				c0.334,0.134,0.9,0.417,1.7,0.851c0.467,0.267,1.05,0.416,1.75,0.449c1.9,0.134,3.3,0.467,4.2,1
				c1.566,0.934,2.634,2.617,3.2,5.051c0.1,0.399,0.133,1,0.1,1.8c-0.033,0.434-0.083,1.083-0.149,1.95c0.1,0.5,0.233,0.833,0.399,1
				c0.3,0.267,1.117,0.6,2.45,1c1.333,0.399,2.184,0.783,2.55,1.149c0.367,0.367,0.8,1.134,1.3,2.3
				c0.601,1.301,0.717,2.067,0.351,2.301h-0.25c0.033-0.067-0.084-0.117-0.351-0.15l-4.85-0.65
				c-18.467-1.966-35.333-2.933-50.6-2.899c-15.301,0.066-34.25,1.033-56.851,2.899c-17.633,1.5-34.75,3.317-51.35,5.45l-1.15,0.101
				c-13.033,1.699-25.55,3.517-37.55,5.449l-2,0.301c-3.333,0.466-5.883,0.85-7.65,1.149c-3.167,0.533-5.567,1.217-7.2,2.05
				c-0.233-1.433,0.184-2.683,1.25-3.75c1.367-1.166,2.317-2.166,2.85-3l0.45-0.85c0.5-1.233,1.133-2.134,1.9-2.7
				c0.5-0.366,1.367-0.833,2.6-1.399c1.133-0.5,1.95-0.967,2.45-1.4c-0.433-1.1-0.4-2.384,0.1-3.85c0.5-1.434,1.283-2.567,2.35-3.4
				c0.767-0.6,2.05-0.816,3.85-0.65c1.9,0.134,2.9,0.667,3,1.601c0.4-1.7,1.2-3.017,2.4-3.95c0.3-0.233,1.566-0.917,3.8-2.05
				c0.167-0.267,0.617-0.767,1.35-1.5c-1.467-1.101-1.85-2.65-1.15-4.65c0.6-1.767,1.733-3.217,3.4-4.35
				c1.767-1.167,3.783-1.717,6.05-1.65c0.567,0.033,1.417,0.267,2.55,0.7c1.233,0.5,2.183,1.033,2.85,1.6
				c0.4,0.233,0.55,0.434,0.45,0.601c1.233-2.2,1.967-3.45,2.2-3.75c0.533-0.667,1.233-1.267,2.1-1.8l1-0.65
				c1.6-1.033,3.1-1.6,4.5-1.7c0.6-0.066,1.267-0.066,2,0c-0.034-0.833,0.216-1.75,0.75-2.75c0.3-1.399,0.883-2.583,1.75-3.55
				c0.6-0.667,1.65-1.283,3.15-1.85c1.7-0.667,2.816-1.2,3.35-1.601c0.4-0.333,0.633-0.816,0.7-1.45c0-0.133-0.017-0.767-0.05-1.899
				c0-0.8,0.066-1.4,0.2-1.8c0.434-1.534,1.184-2.784,2.25-3.75c1.1-1.033,2.434-1.667,4-1.9c0.567-0.1,1.233-0.117,2-0.05
				c0.567-0.3,1.517-0.75,2.85-1.35c1.233-0.6,2.184-1.233,2.85-1.9c1.467-1.4,3.1-2.333,4.9-2.8c1.434-0.333,2.55-0.183,3.35,0.45
				c0.333,0.033,0.767,0.267,1.3,0.7c1.067-1.1,1.917-1.833,2.55-2.2c0.833-0.5,1.9-0.767,3.2-0.8c0.167-0.633,0.583-1.233,1.25-1.8
				c0.5-1.133,1.117-2.067,1.85-2.8c0.767-0.7,1.65-1.117,2.65-1.25c0.233,0,1.184,0.033,2.85,0.1c-0.133-1.267,0.25-2.433,1.15-3.5
				c0.867-1.033,2.034-1.767,3.5-2.2c0.534-0.467,1.667-0.817,3.4-1.05c1.533-0.233,2.467-0.633,2.8-1.2
				c0.267-0.434,0.483-1.5,0.65-3.2c0.1-1.667,0.35-2.75,0.75-3.25c0.233-0.267,0.616-0.733,1.149-1.4
				c1.4-1.333,2.767-1.833,4.101-1.5c1.166,0.267,2.399,1.05,3.699,2.35c1.067,1.133,1.934,2.35,2.601,3.65
				c0.399,0.8,0.733,2.133,1,4c0.333,2.567,0.533,4.017,0.6,4.35c0.334,0.467,0.7,0.783,1.101,0.95c0.3,0.133,0.85,0.184,1.649,0.15
				c0.8,0,1.351,0.05,1.65,0.15c0.5,0.2,0.983,0.55,1.45,1.05c0.733,0.867,1.133,1.317,1.199,1.35c0.567,0.5,1.434,0.967,2.601,1.4
				c0.967,0.367,1.717,0.917,2.25,1.65l0.45,0.75c0.233,0.434,0.416,0.733,0.55,0.9c0.233,0.267,0.55,0.45,0.95,0.55
				c0.566,0.167,1.316,0.067,2.25-0.3c1.199-0.434,1.983-0.667,2.35-0.7c1.366-0.167,2.316,0.183,2.85,1.05
				c0.301,0.534,0.567,1.667,0.801,3.4l0.25,0.85c0.066-0.033,1.399-1.066,4-3.1c1.8-1.4,3.316-2.184,4.55-2.35
				c1-0.1,1.85,0.117,2.55,0.65c0.366,0.267,0.733,0.8,1.1,1.6c0.367,0.833,0.717,1.383,1.051,1.65c0.733,0.6,1.916,0.75,3.55,0.45
				c2.066-0.367,3.383-0.5,3.95-0.4c1.6,0.267,2.916,0.95,3.949,2.05c0.634,0.667,1.551,1.8,2.75,3.4
				C180.684,62.283,182.017,64.566,182.85,67.1z"/>
			
				<radialGradient id="SVGID_9_" cx="-119.3062" cy="-149.3594" r="115.0519" gradientTransform="matrix(-0.9994 0.0335 -0.0215 -1.067 -0.2018 -10.0265)" gradientUnits="userSpaceOnUse">
				<stop  offset="0" style="stop-color:#203211"/>
				<stop  offset="1" style="stop-color:#6C6C22"/>
			</radialGradient>
			<path style="fill-rule:evenodd;clip-rule:evenodd;fill:url(#SVGID_9_);" d="M182.55,67.05c0.334,0.533,0.634,1.167,0.9,1.9
				c0.934-0.066,2.017,0.116,3.25,0.55c1.166,0.434,2.083,0.967,2.75,1.6c1.2,1.167,1.934,3.017,2.2,5.551
				c0.066,0.699,0.05,1.699-0.051,3c0.301,0.933,0.567,1.533,0.801,1.8c0.267,0.333,0.699,0.883,1.3,1.649
				c0.566,0.7,1.017,1.334,1.35,1.9c0.9,1.6,1.967,2.884,3.2,3.85c0.667,0.567,1.267,0.917,1.8,1.051
				c0.233,0.066,0.717,0.133,1.45,0.199c0.6,0.067,1.1,0.184,1.5,0.351c0.2,0.066,0.767,0.366,1.7,0.899
				c0.434,0.233,1.033,0.367,1.8,0.4c2,0.066,3.45,0.333,4.35,0.8c1.667,0.9,2.784,2.584,3.351,5.05
				c0.066,0.367,0.083,0.95,0.05,1.75c-0.033,0.467-0.083,1.15-0.15,2.051c0,0.5,0.101,0.85,0.301,1.05
				c0.267,0.3,1.083,0.633,2.449,1c1.4,0.399,2.284,0.767,2.65,1.1c0.366,0.367,0.833,1.15,1.4,2.351
				c0.633,1.366,0.75,2.133,0.35,2.3H221c0.066-0.066-0.033-0.117-0.3-0.15l-4.851-0.649c-18.466-1.967-35.283-2.934-50.449-2.9
				c-15.634,0.1-34.584,1.083-56.851,2.95c-16.767,1.366-33.867,3.149-51.3,5.35l-1.1,0.15c-12.3,1.566-24.8,3.366-37.5,5.399
				l-2,0.301c-3.333,0.433-5.883,0.8-7.65,1.1c-3.167,0.533-5.55,1.233-7.15,2.1C1.583,121.45,2,120.2,3.1,119.1
				c1.433-1.133,2.433-2.1,3-2.899l0.5-0.8c0.6-1.367,1.233-2.284,1.9-2.75c0.533-0.4,1.4-0.851,2.6-1.351
				c1.167-0.533,2-1,2.5-1.399c-0.533-1.101-0.567-2.4-0.1-3.9c0.467-1.434,1.25-2.55,2.35-3.35c0.733-0.534,2.05-0.7,3.95-0.5
				c1.967,0.233,2.934,0.816,2.9,1.75c0.466-1.733,1.283-3.067,2.45-4c0.467-0.367,1.7-1.067,3.7-2.101l1.65-1.45
				c-1.733-1.066-2.317-2.6-1.75-4.6c0.5-1.767,1.617-3.25,3.35-4.45c1.8-1.166,3.8-1.7,6-1.6c0.533,0,1.383,0.25,2.55,0.75
				c1.233,0.533,2.167,1.083,2.8,1.649c0.401,0.309,0.559,0.575,0.475,0.801c0.822-1.741,1.497-2.991,2.025-3.75
				c0.566-0.801,1.233-1.467,2-2L49,82.55c1.5-0.934,3.067-1.383,4.7-1.35l2.05,0.149c-0.2-0.899-0.05-1.866,0.45-2.899
				c0.3-1.367,0.933-2.533,1.9-3.5c0.633-0.634,1.767-1.184,3.4-1.65c1.733-0.5,2.867-0.967,3.4-1.399
				c0.4-0.334,0.583-0.851,0.55-1.551c-0.133-0.899-0.233-1.583-0.3-2.05c-0.167-0.666-0.2-1.3-0.1-1.899
				c0.333-1.601,1.017-2.917,2.05-3.95c1.033-1,2.35-1.667,3.95-2c0.567-0.133,1.25-0.2,2.05-0.2c0.667-0.233,1.717-0.583,3.15-1.05
				c1.233-0.5,2.183-1.117,2.85-1.85c1.367-1.467,2.983-2.45,4.85-2.95c1.433-0.433,2.55-0.35,3.35,0.25
				c0.4,0.133,0.867,0.483,1.4,1.05c1.1-1.1,1.966-1.817,2.6-2.15c0.833-0.433,1.95-0.667,3.35-0.7c0-0.6,0.35-1.317,1.05-2.15
				c0.667-1.2,1.35-2.1,2.05-2.7c0.833-0.7,1.783-1.05,2.85-1.05c0.033,0,1.017,0.117,2.95,0.35c-0.267-1.333,0.017-2.6,0.85-3.8
				c0.8-1.167,1.917-2.033,3.35-2.6c0.567-0.433,1.8-0.683,3.7-0.75c1.733-0.066,2.783-0.367,3.149-0.9
				c0.267-0.433,0.417-1.533,0.45-3.3c0-1.833,0.167-3,0.5-3.5c0.533-0.867,0.884-1.4,1.05-1.6c1.233-1.567,2.584-2.217,4.051-1.95
				c1.199,0.2,2.449,0.983,3.75,2.35c1.1,1.1,2,2.317,2.699,3.65c0.367,0.733,0.684,2.067,0.95,4c0.267,2.367,0.483,3.833,0.65,4.4
				c0.333,0.567,0.684,0.934,1.05,1.1c0.3,0.167,0.85,0.217,1.65,0.15c0.833-0.033,1.399,0,1.699,0.1c0.5,0.2,0.983,0.567,1.45,1.1
				c0.601,0.733,1,1.167,1.2,1.3c0.533,0.467,1.417,0.917,2.65,1.35c1.033,0.367,1.8,0.95,2.3,1.75L141.1,51
				c0.2,0.467,0.367,0.767,0.5,0.9c0.2,0.3,0.517,0.5,0.95,0.6c0.566,0.167,1.334,0.033,2.3-0.4c1.233-0.567,2.017-0.867,2.351-0.9
				c1.366-0.167,2.283,0.25,2.75,1.25c0.3,0.6,0.5,1.783,0.6,3.55l0.101,1.1c0.433-0.233,1.767-1.283,4-3.15
				c1.866-1.567,3.383-2.483,4.55-2.75c1.066-0.2,1.967-0.05,2.7,0.45c0.399,0.267,0.783,0.8,1.149,1.6
				c0.4,0.833,0.75,1.383,1.05,1.65c0.733,0.6,1.95,0.767,3.65,0.5c2.134-0.4,3.467-0.55,4-0.45c1.566,0.233,2.866,0.9,3.9,2
				c0.633,0.667,1.566,1.783,2.8,3.35C180.45,62.333,181.816,64.583,182.55,67.05z"/>
			
				<radialGradient id="SVGID_10_" cx="122.3496" cy="146.0996" r="115.6967" gradientTransform="matrix(-0.9997 0.0256 -0.0206 -0.806 247.6745 260.7299)" gradientUnits="userSpaceOnUse">
				<stop  offset="0" style="stop-color:#203212"/>
				<stop  offset="1" style="stop-color:#757424"/>
			</radialGradient>
			<path style="fill-rule:evenodd;clip-rule:evenodd;fill:url(#SVGID_10_);" d="M182.25,66.95c0.333,0.733,0.566,1.45,0.7,2.149
				c0.899-0.066,1.967,0.101,3.2,0.5c1.233,0.434,2.183,0.934,2.85,1.5c1.3,1.101,2.083,2.9,2.35,5.4c0.101,0.7,0.084,1.7-0.05,3
				c0.066,0.767,0.267,1.434,0.601,2c0.133,0.2,0.566,0.733,1.3,1.6c0.6,0.7,1.05,1.317,1.35,1.851c0.834,1.5,1.884,2.833,3.15,4
				c0.6,0.5,1.2,0.833,1.8,1c0.167,0.033,0.634,0.116,1.4,0.25c0.566,0.1,1.05,0.233,1.449,0.399c0.267,0.101,0.834,0.417,1.7,0.95
				c0.434,0.267,1.05,0.4,1.851,0.4c2.166-0.066,3.683,0.1,4.55,0.5c1.666,0.833,2.833,2.517,3.5,5.05c0.1,0.366,0.1,0.967,0,1.8
				c-0.033,0.467-0.101,1.15-0.2,2.05c0,0.601,0.083,0.983,0.25,1.15c0.267,0.333,1.083,0.684,2.45,1.05
				c1.434,0.367,2.333,0.7,2.7,1c0.366,0.267,0.866,1.066,1.5,2.4c0.699,1.399,0.833,2.149,0.399,2.25h-0.25
				c0.134-0.033,0.033-0.066-0.3-0.101l-4.85-0.699c-18.667-1.967-35.434-2.9-50.301-2.801c-16.066,0.101-35.017,1.067-56.85,2.9
				c-17.8,1.467-34.85,3.25-51.15,5.35l-1.15,0.101c-11.833,1.5-24.3,3.283-37.4,5.35l-2,0.351c-3.3,0.399-5.833,0.75-7.6,1.05
				c-3.167,0.5-5.55,1.233-7.15,2.2c-0.267-1.4,0.167-2.65,1.3-3.75c1.5-1.134,2.533-2.067,3.1-2.801l0.55-0.8
				c0.3-0.666,0.533-1.149,0.7-1.45c0.3-0.533,0.7-0.983,1.2-1.35c0.567-0.434,1.417-0.9,2.55-1.4c1.2-0.5,2.05-0.933,2.55-1.3
				c-0.633-1.1-0.717-2.416-0.25-3.95c0.433-1.466,1.2-2.583,2.3-3.35c0.7-0.5,2.05-0.6,4.05-0.3c2.066,0.3,3,0.916,2.8,1.85
				c0.567-1.733,1.4-3.066,2.5-4c0.533-0.434,1.75-1.149,3.65-2.149l1.9-1.351c-1.934-1.066-2.7-2.583-2.3-4.55
				c0.367-1.8,1.467-3.316,3.3-4.55c1.7-1.2,3.7-1.75,6-1.65c0.466,0.033,1.283,0.316,2.45,0.851c1.267,0.566,2.2,1.149,2.8,1.75
				c0.415,0.331,0.59,0.632,0.525,0.899c0.765-1.691,1.39-2.941,1.875-3.75c0.5-0.866,1.117-1.566,1.85-2.1l1.05-0.65
				c1.4-0.8,3.067-1.116,5-0.95l2.05,0.301c-0.333-0.934-0.283-1.967,0.15-3.101c0.367-1.399,1.066-2.533,2.1-3.399
				c0.633-0.567,1.817-1.034,3.55-1.4c1.767-0.4,2.933-0.833,3.5-1.3c0.4-0.334,0.55-0.867,0.45-1.601
				c-0.033-0.166-0.25-0.899-0.65-2.199c-0.233-0.801-0.333-1.467-0.3-2c0.4-3.301,2.316-5.384,5.75-6.25
				c0.667-0.167,1.35-0.267,2.05-0.3C72.883,60.683,74,60.4,75.5,60c1.267-0.4,2.233-0.983,2.9-1.75
				c1.333-1.533,2.934-2.583,4.8-3.15c1.566-0.5,2.716-0.467,3.45,0.1c0.4,0.2,0.9,0.683,1.5,1.45c1.167-1.1,2.067-1.816,2.7-2.15
				c0.833-0.4,1.95-0.617,3.35-0.65c-0.034-0.733,0.283-1.55,0.95-2.45c0.633-1.167,1.367-2.05,2.2-2.65c0.9-0.633,1.9-0.9,3-0.8
				c0.667,0.066,1.7,0.267,3.1,0.6c-0.4-1.4-0.217-2.783,0.55-4.15c0.733-1.267,1.817-2.25,3.25-2.95c0.6-0.4,1.933-0.55,4-0.45
				c1.9,0.1,3.033-0.1,3.4-0.6c0.3-0.433,0.416-1.566,0.35-3.4c-0.134-1.967-0.083-3.217,0.15-3.75c0.399-0.8,0.733-1.4,1-1.8
				c1.133-1.767,2.466-2.567,4-2.4c1.166,0.167,2.449,0.934,3.85,2.3c1.1,1.1,2.017,2.316,2.75,3.65c0.366,0.7,0.667,2.05,0.9,4.05
				c0.267,2.3,0.5,3.784,0.699,4.45c0.267,0.567,0.601,0.983,1,1.25c0.301,0.167,0.851,0.217,1.65,0.15
				c0.866-0.066,1.45-0.05,1.75,0.05c0.5,0.2,0.983,0.566,1.45,1.1c0.633,0.767,1.033,1.217,1.2,1.35
				c0.5,0.434,1.416,0.867,2.75,1.3c1.033,0.333,1.8,0.95,2.3,1.85l0.35,0.85c0.167,0.533,0.3,0.867,0.4,1
				c0.233,0.333,0.566,0.55,1,0.65c0.533,0.133,1.316-0.066,2.35-0.6c1.167-0.6,1.934-0.934,2.3-1c1.367-0.2,2.267,0.267,2.7,1.4
				c0.267,0.667,0.4,1.917,0.4,3.75v1.3c0.566-0.3,1.899-1.383,4-3.25c1.899-1.667,3.416-2.683,4.55-3.05
				c1.033-0.367,1.967-0.3,2.8,0.2c0.434,0.267,0.851,0.8,1.25,1.6c0.4,0.867,0.75,1.434,1.05,1.7c0.733,0.6,1.967,0.75,3.7,0.45
				c2.2-0.367,3.55-0.517,4.05-0.45c1.567,0.233,2.851,0.9,3.851,2c0.6,0.667,1.533,1.767,2.8,3.3
				C180.167,62.467,181.583,64.65,182.25,66.95z"/>
			
				<radialGradient id="SVGID_11_" cx="122.4004" cy="146.5498" r="116.5873" gradientTransform="matrix(-0.9997 0.0253 -0.0163 -0.6445 247.1511 237.9017)" gradientUnits="userSpaceOnUse">
				<stop  offset="0" style="stop-color:#213312"/>
				<stop  offset="1" style="stop-color:#7E7B26"/>
			</radialGradient>
			<path style="fill-rule:evenodd;clip-rule:evenodd;fill:url(#SVGID_11_);" d="M182.45,69.3c0.833-0.1,1.899,0.05,3.2,0.45
				c1.267,0.366,2.25,0.816,2.949,1.35c1.334,0.967,2.167,2.733,2.5,5.301c0.034,0.3,0,1.199-0.1,2.699
				c-0.066,1.034,0.083,1.834,0.45,2.4c0.2,0.3,0.633,0.85,1.3,1.65c0.634,0.733,1.083,1.333,1.35,1.8
				c0.967,1.666,1.983,3.017,3.051,4.05c0.566,0.533,1.316,0.9,2.25,1.1c1.233,0.267,2.017,0.467,2.35,0.601
				c0.1,0.033,0.667,0.383,1.7,1.05c0.399,0.267,1.033,0.384,1.899,0.35l2.351-0.149c0.866,0,1.649,0.149,2.35,0.45
				c1.767,0.767,2.967,2.433,3.601,5c0.1,0.399,0.066,1.333-0.101,2.8c-0.166,1.333-0.166,2.133,0,2.399
				c0.233,0.334,1.05,0.667,2.45,1c1.533,0.367,2.483,0.7,2.85,1c0.334,0.267,0.851,1.084,1.551,2.45
				c0.733,1.434,0.866,2.167,0.399,2.2h-0.2c0.134-0.033,0.034-0.083-0.3-0.15l-3.3-0.5c-19.1-2.066-36.333-3.05-51.7-2.949
				c-15.233,0.066-34.184,1.033-56.85,2.899c-17.833,1.5-35.217,3.316-52.15,5.45c-12.1,1.533-25.2,3.4-39.3,5.6
				c-3.3,0.367-5.833,0.7-7.6,1c-3.167,0.5-5.55,1.267-7.15,2.301c-0.333-1.4,0.117-2.65,1.35-3.75c1.566-1.101,2.65-2,3.25-2.7
				c0.267-0.3,0.617-0.9,1.05-1.8c0.367-0.801,0.817-1.4,1.35-1.801c0.567-0.433,1.433-0.899,2.6-1.399
				c1.233-0.5,2.1-0.917,2.6-1.25c-0.767-1.134-0.934-2.467-0.5-4c0.4-1.467,1.183-2.566,2.35-3.3c0.667-0.467,2.034-0.517,4.1-0.15
				c2.132,0.394,3.04,1.044,2.725,1.95c0.761-2.041,1.869-3.574,3.325-4.601c2-1.066,3.667-2.033,5-2.899c-2.2-1-3.167-2.5-2.9-4.5
				c0.267-1.8,1.35-3.351,3.25-4.65c1.733-1.233,3.717-1.767,5.95-1.6c0.733,0.033,1.9,0.517,3.5,1.45
				c1.702,0.977,2.435,1.793,2.2,2.449c0.642-1.419,1.125-2.503,1.45-3.25c0.633-1.366,1.333-2.333,2.1-2.899
				c1.267-0.967,2.65-1.434,4.15-1.4c0.6,0,2,0.217,4.2,0.65c-0.533-1.066-0.55-2.267-0.05-3.601c0.434-1.267,1.15-2.283,2.15-3.05
				c0.667-0.467,1.933-0.833,3.8-1.1c1.8-0.267,2.983-0.65,3.55-1.15c0.5-0.434,0.467-1.333-0.1-2.7
				c-0.7-1.767-1.05-2.916-1.05-3.449c0.1-3.267,1.917-5.45,5.45-6.55c0.967-0.267,2.517-0.517,4.65-0.75
				c1.867-0.333,3.183-0.967,3.95-1.9c1.3-1.633,2.9-2.767,4.8-3.4c1.267-0.466,2.25-0.566,2.95-0.3
				c0.667,0.233,1.367,0.917,2.1,2.05c1.233-1.1,2.167-1.8,2.8-2.1c0.8-0.367,1.933-0.567,3.4-0.6c-0.133-0.8,0.183-1.8,0.95-3
				c0.733-1.1,1.483-1.883,2.25-2.35c0.933-0.567,2-0.75,3.2-0.55c0.7,0.133,1.75,0.4,3.15,0.8c-0.5-1.467-0.4-2.933,0.3-4.4
				c0.667-1.4,1.7-2.517,3.1-3.35c0.667-0.367,2.117-0.417,4.35-0.15c2.033,0.267,3.25,0.167,3.65-0.3
				c0.333-0.4,0.399-1.566,0.2-3.5c-0.233-2.133-0.267-3.466-0.101-4c0.434-1.367,1.017-2.466,1.75-3.3
				c0.9-1.133,1.934-1.65,3.101-1.55c1.199,0.1,2.5,0.85,3.899,2.25c1.167,1.133,2.117,2.367,2.851,3.7
				c0.333,0.6,0.666,2.383,1,5.35c0.3,2.6,0.816,4.133,1.55,4.6c0.3,0.2,0.866,0.25,1.7,0.15c0.866-0.1,1.449-0.1,1.75,0
				c0.533,0.2,1.017,0.567,1.449,1.1c0.634,0.8,1.034,1.267,1.2,1.4c0.467,0.367,1.417,0.767,2.851,1.2
				c1.066,0.333,1.833,0.983,2.3,1.95c0.2,0.4,0.366,0.95,0.5,1.65c0.166,0.534,0.533,0.867,1.1,1c0.566,0.1,1.367-0.15,2.4-0.75
				c1.166-0.667,1.934-1.033,2.3-1.1c1.634-0.267,2.566,0.5,2.8,2.3c0.033,0.1,0.017,1.65-0.05,4.65
				c0.1-0.066,1.917-1.617,5.45-4.65c2.533-2.167,4.533-2.85,6-2.05c0.467,0.267,0.883,0.8,1.25,1.6c0.434,0.9,0.8,1.467,1.1,1.7
				c0.7,0.6,1.95,0.75,3.75,0.45c2.267-0.367,3.65-0.517,4.15-0.45c1.566,0.2,2.85,0.867,3.85,2c0.566,0.633,1.5,1.7,2.8,3.2
				c1.467,1.3,2.567,2.583,3.301,3.85C181.7,65.7,182.217,67.366,182.45,69.3z"/>
		</g>
		<path style="fill-rule:evenodd;clip-rule:evenodd;fill:#1F330F;" d="M177.1,85.6c-0.033-0.533,0.167-0.983,0.601-1.35
			s0.967-0.566,1.6-0.6c0.601,0,1.134,0.183,1.601,0.55c0.433,0.333,0.649,0.767,0.649,1.3c0.033,0.533-0.166,0.983-0.6,1.35
			c-0.434,0.367-0.967,0.567-1.601,0.601c-0.6,0-1.116-0.184-1.55-0.55C177.333,86.566,177.1,86.134,177.1,85.6z"/>
		<path style="fill-rule:evenodd;clip-rule:evenodd;fill:#1F330F;" d="M74.45,94.6c0-0.333,0.15-0.633,0.45-0.899
			c0.267-0.233,0.6-0.367,1-0.4c0.4,0,0.75,0.117,1.05,0.351c0.3,0.233,0.45,0.517,0.45,0.85c0,0.366-0.133,0.667-0.4,0.9
			s-0.617,0.366-1.05,0.399c-0.4,0-0.75-0.116-1.05-0.35C74.633,95.217,74.483,94.934,74.45,94.6z"/>
		<path style="fill-rule:evenodd;clip-rule:evenodd;fill:#1F330F;" d="M32,105.45c-0.033-0.733,0.25-1.351,0.85-1.851
			c0.566-0.533,1.283-0.816,2.15-0.85c0.867,0,1.6,0.25,2.2,0.75c0.6,0.467,0.917,1.066,0.95,1.8c0.033,0.7-0.25,1.316-0.85,1.851
			c-0.6,0.5-1.316,0.767-2.15,0.8c-0.833,0.033-1.566-0.2-2.2-0.7C32.35,106.75,32.033,106.15,32,105.45z"/>
		<path style="fill-rule:evenodd;clip-rule:evenodd;fill:#1F330F;" d="M42.45,96.4c0.767-0.7,1.716-1.067,2.85-1.101
			s2.1,0.283,2.9,0.95c0.8,0.667,1.216,1.467,1.25,2.4c0.033,0.933-0.35,1.75-1.15,2.449c-0.767,0.667-1.716,1.017-2.85,1.051
			c-1.1,0.033-2.05-0.284-2.85-0.95c-0.8-0.634-1.217-1.417-1.25-2.351C41.317,97.884,41.683,97.066,42.45,96.4z"/>
		<path style="fill-rule:evenodd;clip-rule:evenodd;fill:#1F330F;" d="M168.15,77.25c-0.034-0.934,0.333-1.717,1.1-2.35
			c0.733-0.667,1.65-1.017,2.75-1.051c1.066-0.033,2,0.267,2.8,0.9c0.767,0.6,1.167,1.366,1.2,2.3c0,0.9-0.366,1.684-1.1,2.351
			c-0.767,0.633-1.684,0.966-2.75,1c-1.067,0.066-2-0.217-2.801-0.851C168.583,78.917,168.184,78.15,168.15,77.25z"/>
		<path style="fill-rule:evenodd;clip-rule:evenodd;fill:#1F330F;" d="M114.2,62.85c0-0.5,0.2-0.933,0.6-1.3
			c0.434-0.367,0.934-0.55,1.5-0.55c0.601-0.033,1.117,0.133,1.55,0.5c0.434,0.333,0.65,0.75,0.65,1.25
			c0.033,0.5-0.167,0.934-0.6,1.3c-0.4,0.367-0.9,0.55-1.5,0.55c-0.567,0.034-1.067-0.133-1.5-0.5
			C114.467,63.767,114.233,63.35,114.2,62.85z"/>
		
			<radialGradient id="SVGID_12_" cx="122.8496" cy="152.4502" r="164.8779" gradientTransform="matrix(-0.9997 0.0253 -0.0163 -0.6445 248.1467 247.5947)" gradientUnits="userSpaceOnUse">
			<stop  offset="0" style="stop-color:#213312"/>
			<stop  offset="1" style="stop-color:#7E7B26"/>
		</radialGradient>
		<path style="fill-rule:evenodd;clip-rule:evenodd;fill:url(#SVGID_12_);" d="M162.85,91.85c1.334,0.5,2.534,1.351,3.601,2.551
			c0.633,0.666,1.566,1.8,2.8,3.399c1.366-0.866,2.517-1.283,3.45-1.25c0.967,0,2.05,0.5,3.25,1.5c2.399-3.366,5.75-4.5,10.05-3.399
			c4.3,1.1,6.7,3.75,7.2,7.949c1.033-1.1,2.616-1.5,4.75-1.199c0.566,0.066,1.517,0.133,2.85,0.199
			c1.267,0.101,2.217,0.284,2.851,0.551c0.233,0.1,0.616,0.333,1.149,0.699c0.233,0.2,0.634,0.284,1.2,0.25
			c0.467,0,1.184-0.183,2.15-0.55c0.933-0.333,1.666-0.517,2.199-0.55c1.067-0.066,2.134,0.017,3.2,0.25
			c1.2,0.3,2.15,0.733,2.851,1.3c0.466,0.4,1.166,1.4,2.1,3c0.967,1.634,1.25,2.467,0.85,2.5h-0.199
			c0.133-0.066,0.033-0.116-0.301-0.149c-1.5-0.267-2.6-0.434-3.3-0.5c-19.1-2.067-36.333-3.051-51.7-2.95
			c-16.066,0.1-35.017,1.066-56.85,2.899c-17.733,1.434-35.133,3.25-52.2,5.45c-12,1.5-25.1,3.367-39.3,5.601
			c-3.3,0.366-5.817,0.699-7.55,1c-3.167,0.5-5.55,1.25-7.15,2.25c2.967-2.9,5.017-4.834,6.15-5.801
			c1.733-1.5,3.316-2.383,4.75-2.649c0.833-0.167,1.883-0.483,3.15-0.95c1.1-0.233,2.183,0.017,3.25,0.75
			c1.4-1.167,3.066-2.066,5-2.7c1.367-0.467,3.25-0.883,5.65-1.25c0.533-0.066,1.3,0.05,2.3,0.351c1,0.3,1.75,0.399,2.25,0.3
			c0.5-0.066,1.3-0.417,2.4-1.05c1-0.567,1.85-0.834,2.55-0.801c0.267,0,0.933,0.15,2,0.45c0.6,0.167,1.2,0.066,1.8-0.3
			c1.133-0.9,1.95-1.533,2.45-1.9c0.833-0.6,1.817-0.8,2.95-0.6c1,0.2,1.933,0.4,2.8,0.6c0.567,0,1.433-0.366,2.6-1.1
			c1.566-1.033,2.917-1.733,4.05-2.1c1.7-0.534,3.133-0.45,4.3,0.25c0.2,0.1,0.583,0.5,1.15,1.199c0.5,0.567,0.9,0.867,1.2,0.9
			c0.167,0.033,0.567-0.167,1.2-0.6c0.7-0.467,1.117-0.717,1.25-0.75c0.4-0.101,1.267-0.117,2.6-0.051
			c1.1,0.067,1.883-0.066,2.35-0.399c0.066-0.033,0.466-0.684,1.2-1.95c0.5-0.833,1.1-1,1.8-0.5c3.133-3.066,4.783-4.667,4.95-4.8
			c1.867-1.566,3.934-2.584,6.2-3.05c1.566-0.334,3.167-0.384,4.8-0.15c1.667,0.233,3.2,0.733,4.6,1.5
			c4.633,3.1,6.933,4.667,6.9,4.7c1.333-1.9,2.917-3.267,4.75-4.101c1.033-0.533,2.067-0.816,3.1-0.85c0.167,0,0.667,0.066,1.5,0.2
			c0.7,0.1,1.15,0.116,1.35,0.05c0.467-0.167,1.134-0.866,2-2.1c0.9-1.334,1.617-2.15,2.15-2.45c1.366-0.834,3.1-1.017,5.2-0.55
			c0.733-2.767,2.434-4.917,5.1-6.45c2.4-1.367,5.066-1.983,8-1.851c2.667,0.101,5.066,1.2,7.2,3.301
			c1.833,1.833,3.267,4.199,4.3,7.1c1.533-1.167,2.8-1.483,3.8-0.95c0.134,0.033,1.15,0.95,3.051,2.75
			c0.6-1.6,2.066-2.583,4.399-2.95C159.3,91.05,161.15,91.217,162.85,91.85z"/>
	</g>
</g>
</svg>
