<?xml version="1.0" encoding="iso-8859-1"?>
<!-- Generator: Adobe Illustrator 15.1.0, SVG Export Plug-In . SVG Version: 6.00 Build 0)  -->
<!DOCTYPE svg PUBLIC "-//W3C//DTD SVG 1.1//EN" "http://www.w3.org/Graphics/SVG/1.1/DTD/svg11.dtd">
<svg version="1.1" id="Layer_4" xmlns="http://www.w3.org/2000/svg" xmlns:xlink="http://www.w3.org/1999/xlink" x="0px" y="0px"
	 width="65.4px" height="135.9px" viewBox="0 0 65.4 135.9" style="enable-background:new 0 0 65.4 135.9;" xml:space="preserve">
<symbol  id="flash2.ai_x2F_Layer_4_x2F__x3C_Path_x3E__x5F_16" viewBox="0 -40 21.418 39.973">
	<g id="Layer_1_3_">
		<path style="fill-rule:evenodd;clip-rule:evenodd;fill:#332E17;" d="M21.1-19.1c0.367-1.467,0.417-2.667,0.15-3.6
			c-0.267-1.066-1.033-2.35-2.3-3.85c-1.534-1.867-2.467-3.1-2.8-3.7c-0.233-0.467-0.65-1.533-1.25-3.2
			c-0.467-1.4-0.95-2.417-1.45-3.05c-0.167,1.167-0.35,1.9-0.55,2.2c-0.033-0.5-0.05-1.483-0.05-2.95
			c-0.033-1.333-0.184-2.25-0.45-2.75c-0.066,1.733-0.283,3.133-0.65,4.2c-0.5,1.466-1.333,2.533-2.5,3.2
			c-0.9,0.533-1.55,0.967-1.95,1.3c-0.6,0.533-1.066,1.183-1.4,1.95c-0.267,0.733-0.583,1.283-0.95,1.65
			c-0.5,0.367-0.967,0.784-1.4,1.25c-0.133,0.167-0.267,0.434-0.4,0.8c-0.167,0.367-0.316,0.633-0.45,0.8
			c-1.167,1.367-1.8,2.117-1.9,2.25c-0.533,0.833-0.8,1.833-0.8,3c0.033,0.934,0.3,2,0.8,3.2c0.667,1.367,1.133,2.383,1.4,3.05
			c0.8,1.733,1.267,2.684,1.4,2.85c0.566,1.133,1.167,2,1.8,2.6c0.167,0.167,0.483,0.433,0.95,0.8C6.783-6.767,7.1-6.467,7.3-6.2
			c0.2,0.3,0.617,1.417,1.25,3.35c0.434,1.367,1.133,2.233,2.1,2.6c1.633,0.633,2.883-0.083,3.75-2.15
			c0.5-1.133,1.184-2.783,2.05-4.95c1.1-1.333,1.966-2.867,2.6-4.6c0.3-0.767,0.8-2.466,1.5-5.1L21.1-19.1z"/>
	</g>
</symbol>
<symbol  id="flash2.ai_x2F_Layer_4_x2F__x3C_Path_x3E__x5F_17" viewBox="-0.007 -109.1 59.126 109.1">
	<g id="Layer_1_2_">
		<path style="fill-rule:evenodd;clip-rule:evenodd;fill:#332E17;" d="M40.75-1.75c0.3,0.8,0.633,1.383,1,1.75
			c1.733-1.9,3.317-4.867,4.75-8.9c1.733-4.9,3-8.05,3.8-9.45c1.367-2.4,2.4-5.25,3.1-8.55c0.4-1.967,0.9-5,1.5-9.1
			c0.767-4.1,1.733-8.117,2.9-12.05c0.667-2.2,1.05-3.633,1.15-4.3c0.267-1.533,0.216-3.05-0.15-4.55
			c-0.1-0.434-0.466-1.217-1.1-2.35c-0.534-1-0.817-1.75-0.85-2.25c0-0.367,0.117-1.033,0.35-2c0.2-0.8,0.216-1.5,0.05-2.1
			c-0.333-1.133-0.567-2.683-0.7-4.65c-0.133-2.333-0.267-3.883-0.4-4.65c-0.1-0.633-0.283-1.2-0.55-1.7
			c-0.1-0.2-0.4-0.683-0.9-1.45c-0.267-0.434-0.5-0.983-0.7-1.65c-0.133-0.4-0.317-0.983-0.55-1.75
			c-0.067-0.167-0.267-0.517-0.6-1.05c-0.267-0.467-0.417-0.833-0.45-1.1c-0.033-0.4-0.017-0.917,0.05-1.55
			c0.066-0.967,0.1-1.533,0.1-1.7c0-0.633-0.133-1.25-0.4-1.85c-0.367-0.833-0.983-1.683-1.85-2.55c-1.367-1.3-2.133-2.05-2.3-2.25
			c-0.8-0.9-1.683-1.55-2.65-1.95c0.1-1.466-0.6-2.75-2.1-3.85c-0.833-0.6-2.15-1.417-3.95-2.45c-0.8-0.6-1.683-1.417-2.65-2.45
			c-1.467-1.566-2.283-2.433-2.45-2.6c-0.233,0.367-0.367,0.7-0.4,1c-0.733-0.867-1.633-0.75-2.7,0.35
			c-0.984,1.083-1.343,2.008-1.075,2.775c-0.285-0.771-0.477-1.83-0.575-3.175c-0.133-1.566-0.284-2.65-0.45-3.25
			c-0.267,1.167-0.55,3.6-0.85,7.3c0,0.133,0,0.716,0,1.75c0.033,0.8-0.033,1.35-0.2,1.65c-0.1,0.167-0.284,0.35-0.55,0.55
			c-0.3,0.2-0.483,0.367-0.55,0.5c-0.367,0.867-0.6,1.367-0.7,1.5c-0.167,0.2-0.55,0.55-1.15,1.05c-0.5,0.433-0.85,0.833-1.05,1.2
			c-0.067,0.1-0.233,0.517-0.5,1.25c-0.133,0.333-0.45,0.667-0.95,1c-0.267,0.167-0.767,0.383-1.5,0.65
			c-0.633,0.233-1.1,0.483-1.4,0.75c-0.467,0.4-0.767,0.867-0.9,1.4c-0.133,0.633-0.284,1.167-0.45,1.6
			c-0.133,0.4-0.417,0.867-0.85,1.4c-0.467,0.6-0.767,1.033-0.9,1.3c-0.433,1.333-0.767,2.367-1,3.1
			c-0.433,1.367-1.033,2.183-1.8,2.45c-1.6,0.6-2.717,1.1-3.35,1.5c-1.1,0.7-1.883,1.633-2.35,2.8
			c-0.367,0.867-0.55,1.816-0.55,2.85c0,1.224,0.325,2.074,0.975,2.55c-0.929-0.652-2.521,0.332-4.775,2.95
			c-2.1,2.367-3.283,4.117-3.55,5.25c-0.4,1.633,0.316,3.45,2.15,5.45c2.2,2.067,3.6,3.6,4.2,4.6c0.3,0.533,0.65,1.467,1.05,2.8
			c0.367,1.3,0.75,2.267,1.15,2.9c0.467,0.7,0.85,1.5,1.15,2.4c0.367,1.066,0.65,1.917,0.85,2.55c0.167,0.533,0.3,1.65,0.4,3.35
			c0.1,1.533,0.317,2.7,0.65,3.5c0.833,1.9,2.133,3.8,3.9,5.7c0.7,0.733,1.833,1.633,3.4,2.7c1.5,1,2.55,1.85,3.15,2.55
			c0.767,0.833,1.467,1.75,2.1,2.75c0.567,0.6,1.7,1.033,3.4,1.3c0.5,0.067,1.167,0.017,2-0.15c0.533-0.1,1.133,0.05,1.8,0.45
			c0.367,0.2,0.833,0.75,1.4,1.65c0.667,1,1.117,1.617,1.35,1.85c-0.667,1.3-0.6,2.717,0.2,4.25c0.333,0.7,1.25,1.95,2.75,3.75
			c0.533,0.667,1.467,1.65,2.8,2.95C40.183-3.2,40.45-2.617,40.75-1.75z"/>
	</g>
</symbol>
<g>
	
		<use xlink:href="#flash2.ai_x2F_Layer_4_x2F__x3C_Path_x3E__x5F_17"  width="59.126" height="109.1" x="-0.007" y="-109.1" transform="matrix(1 0 0 -1 0 4.2998)" style="overflow:visible;opacity:0.2617;enable-background:new    ;"/>
	
		<use xlink:href="#flash2.ai_x2F_Layer_4_x2F__x3C_Path_x3E__x5F_16"  width="21.418" height="39.973" y="-40" transform="matrix(1 0 0 -1 44 95.9004)" style="overflow:visible;opacity:0.2617;enable-background:new    ;"/>
	<g>
		<path style="fill-rule:evenodd;clip-rule:evenodd;fill:#1A2B0F;" d="M43.5,19.15c1.267,0.467,2.267,1.267,3,2.4
			c0.467,0.733,0.767,1.917,0.9,3.55c0.133,1.667,0.399,2.816,0.8,3.45c0.2,0.333,0.616,0.85,1.25,1.55
			c0.5,0.633,0.85,1.183,1.05,1.65c0.134,0.367,0.316,1.017,0.55,1.95c0.233,0.867,0.434,1.517,0.601,1.95
			c0.433,1.1,0.85,2.467,1.25,4.1c0.199,0.933,0.517,2.333,0.949,4.2c0.233,1.1,0.367,1.733,0.4,1.9c0,0.566-0.233,1.15-0.7,1.75
			c1.134,0.967,1.783,1.566,1.95,1.8c0.7,0.867,0.85,1.667,0.45,2.4c1.2,0.3,1.916,1.65,2.149,4.05c0.167,1.9,0.067,3.55-0.3,4.95
			c-0.1,0.4-0.45,1.167-1.05,2.3c-0.533,0.967-0.8,1.683-0.8,2.15c0,0.333,0.116,0.967,0.35,1.9c0.167,0.767,0.167,1.433,0,2
			c-0.333,1.1-0.55,2.6-0.649,4.5c-0.101,2.233-0.217,3.716-0.351,4.449c-0.1,0.601-0.283,1.15-0.55,1.65
			c-0.167,0.3-0.45,0.75-0.85,1.35c-0.267,0.4-0.5,0.934-0.7,1.601c-0.134,0.366-0.316,0.934-0.55,1.7
			c-0.034,0.166-0.217,0.5-0.551,1c-0.233,0.433-0.366,0.783-0.399,1.05c-0.033,0.566-0.033,1.066,0,1.5
			c0.066,0.934,0.1,1.483,0.1,1.649c0,0.601-0.116,1.184-0.35,1.75c-0.367,0.834-0.967,1.65-1.8,2.45
			c-1.334,1.3-2.067,2.017-2.2,2.15c-0.767,0.866-1.617,1.483-2.55,1.85c0.1,1.467-0.601,2.75-2.101,3.851
			c-0.8,0.6-2.1,1.383-3.899,2.35c-0.5,0.333-1.367,1.2-2.601,2.6c-1.233,1.167-2.267,1.65-3.1,1.45c-0.434-0.1-0.917-0.6-1.45-1.5
			c-0.133-0.2-0.467-0.85-1-1.95c-0.2-0.433-0.583-1.066-1.15-1.899c-0.533-0.834-0.917-1.483-1.15-1.95
			c-0.034-0.1-0.333-0.934-0.9-2.5c-0.367-0.967-0.833-1.717-1.4-2.25c-0.3-0.267-0.867-0.583-1.7-0.95
			c-0.767-0.333-1.317-0.684-1.65-1.05c-0.533-0.634-0.833-1.417-0.9-2.35c0-0.134,0.067-0.5,0.2-1.101
			c0.1-0.533,0.117-0.85,0.05-0.95c-0.167-0.333-0.8-0.633-1.9-0.899c-1.167-0.3-1.9-0.65-2.2-1.05
			c-0.233-0.301-0.517-0.801-0.85-1.5c-0.367-0.767-0.633-1.284-0.8-1.551c-0.133-0.233-0.333-0.816-0.6-1.75
			c-0.167-0.5-0.566-0.866-1.2-1.1c-1.533-0.566-2.617-1.05-3.25-1.45c-1.033-0.666-1.783-1.566-2.25-2.7
			C8.767,76.8,8.6,75.9,8.6,74.9c0-1.195,0.3-2.013,0.9-2.45c-0.473,0.328-1.374-0.039-2.7-1.101C5.7,70.45,4.95,69.7,4.55,69.1
			c-0.367-0.6-0.7-1.35-1-2.25c-0.3-0.934-0.433-1.717-0.4-2.35c0.033-1.4,0.767-3.017,2.2-4.85c1.767-2.3,2.8-3.816,3.1-4.55
			c0.4-1.033,0.933-1.883,1.6-2.55c0.9-0.733,1.633-1.417,2.2-2.05c0.733-0.8,1.1-1.9,1.1-3.3c-0.1-1.567-0.1-2.767,0-3.6
			c0.8-5.833,4.65-9.217,11.55-10.15c1.2-0.167,2.217-0.617,3.05-1.35c0.5-0.434,1.333-1.2,2.5-2.3c1.233-0.966,2-1.667,2.3-2.1
			c0.3-0.4,0.717-1.35,1.25-2.85c0.4-1.033,1.217-2.1,2.45-3.2c1-0.933,2.116-1.733,3.35-2.4C40.9,18.617,42.134,18.583,43.5,19.15z
			"/>
		
			<radialGradient id="SVGID_1_" cx="33.4502" cy="59.4502" r="46" gradientTransform="matrix(1 0 0 -1.9489 0 175.3135)" gradientUnits="userSpaceOnUse">
			<stop  offset="0.0118" style="stop-color:#233211"/>
			<stop  offset="0.7647" style="stop-color:#1E2E10"/>
			<stop  offset="1" style="stop-color:#1B2C0F"/>
		</radialGradient>
		<path style="fill-rule:evenodd;clip-rule:evenodd;fill:url(#SVGID_1_);" d="M43.6,19.55c1.2,0.467,2.15,1.25,2.851,2.35
			c0.399,0.6,0.666,1.417,0.8,2.45c0.066,0.566,0.134,1.433,0.2,2.6c0.133,0.8,0.333,1.417,0.6,1.85c0.2,0.333,0.566,0.8,1.101,1.4
			c0.533,0.566,0.899,1.066,1.1,1.5l0.1,0.25c0.301,0.8,0.684,2.066,1.15,3.8c0.4,1.1,0.8,2.45,1.2,4.05
			c0.2,0.934,0.5,2.317,0.899,4.15L53.9,45.4c0.1,0.767-0.084,1.467-0.551,2.1c0.867,0.7,1.517,1.317,1.95,1.85
			c0.634,0.833,0.8,1.617,0.5,2.35c0.634,0.167,1.15,0.75,1.55,1.75c0.367,1,0.567,2.3,0.601,3.9c0,1.267-0.101,2.333-0.3,3.2
			c-0.101,0.434-0.434,1.184-1,2.25c-0.5,0.967-0.767,1.7-0.801,2.2c0,0.3,0.084,0.933,0.25,1.9c0.134,0.733,0.117,1.4-0.05,2
			c-0.233,0.966-0.399,2.25-0.5,3.85c-0.133,2.033-0.233,3.316-0.3,3.85L55,77.85c-0.134,0.601-0.333,1.134-0.6,1.601
			c-0.034,0.066-0.334,0.517-0.9,1.35c-0.333,0.5-0.583,0.983-0.75,1.45L52.3,83.9c-0.066,0.166-0.233,0.517-0.5,1.05
			c-0.2,0.434-0.316,0.783-0.35,1.05l-0.101,1.85c0.2,1.167,0.101,2.167-0.3,3c-0.366,0.834-0.967,1.65-1.8,2.45
			c-0.5,0.434-1.267,1.101-2.3,2c-0.601,0.867-1.367,1.517-2.3,1.95c0.066,1.434-0.601,2.717-2,3.85
			c-0.101,0.067-1.384,0.851-3.851,2.351c-0.533,0.333-1.434,1.1-2.7,2.3c-1.199,0.967-2.199,1.3-3,1
			c-0.133-0.033-0.3-0.15-0.5-0.35c-0.633-0.5-1.3-1.483-2-2.95c-0.667-1.066-1.15-1.867-1.45-2.4l-0.75-1.5
			c-0.367-1.166-0.7-2.066-1-2.7c-0.467-0.899-0.8-1.483-1-1.75l-0.25-0.3c-0.3-0.3-0.733-0.583-1.3-0.85
			c-0.767-0.367-1.25-0.617-1.45-0.75c-0.133-0.066-0.316-0.217-0.55-0.45c-0.533-0.533-0.9-1.267-1.1-2.2
			c0.2-1.033,0.217-1.666,0.05-1.899c-0.2-0.267-0.85-0.551-1.95-0.851c-1.067-0.3-1.767-0.666-2.1-1.1
			c-0.233-0.334-0.517-0.816-0.85-1.45c-0.367-0.767-0.617-1.25-0.75-1.45c-0.133-0.233-0.35-0.8-0.65-1.7
			c-0.167-0.466-0.55-0.833-1.15-1.1l-1.1-0.45c-2.033-0.934-3.367-2.149-4-3.649c-0.233-0.601-0.383-1.267-0.45-2
			C8.7,74,8.767,73.267,9,72.7c0.1-0.233,0.267-0.483,0.5-0.75C9.033,72.217,8.2,71.833,7,70.8c-1.067-0.899-1.767-1.633-2.1-2.2
			c-0.9-1.7-1.3-3.183-1.2-4.45c0.1-1.033,0.5-2.133,1.2-3.3c0.267-0.4,1-1.383,2.2-2.95c0.967-1.267,1.6-2.25,1.9-2.95
			c0.467-1.067,1.217-2.117,2.25-3.15c0.767-0.767,1.233-1.25,1.4-1.45c0.7-0.767,1.083-1.833,1.15-3.2
			c0.1-2.333,0.15-3.517,0.15-3.55c0.566-2.767,1.783-4.934,3.65-6.5c1.6-1.3,3.2-2.217,4.8-2.75c0.833-0.3,1.883-0.533,3.15-0.7
			c1.167-0.167,2.133-0.583,2.9-1.25c0.2-0.2,0.583-0.583,1.15-1.15c0.533-0.567,1-1.017,1.4-1.35c1.2-1.033,1.934-1.75,2.2-2.15
			c0.333-0.433,0.767-1.367,1.3-2.8c0.4-1,1.184-2.017,2.35-3.05c0.967-0.867,2.051-1.617,3.25-2.25
			C41.167,19.083,42.333,19.05,43.6,19.55z"/>
		
			<radialGradient id="SVGID_2_" cx="33.5996" cy="59.1001" r="45.175" gradientTransform="matrix(1 0 0 -1.9488 0 174.275)" gradientUnits="userSpaceOnUse">
			<stop  offset="0.0118" style="stop-color:#2C3A13"/>
			<stop  offset="0.502" style="stop-color:#273612"/>
			<stop  offset="1" style="stop-color:#1B2C10"/>
		</radialGradient>
		<path style="fill-rule:evenodd;clip-rule:evenodd;fill:url(#SVGID_2_);" d="M43.7,19.95c1.133,0.466,2.05,1.216,2.75,2.25
			c0.399,0.633,0.649,1.45,0.75,2.45c0.033,0.567,0.066,1.417,0.1,2.55c0.101,0.767,0.283,1.383,0.55,1.85
			c0.2,0.3,0.584,0.75,1.15,1.35c0.5,0.533,0.85,1.017,1.05,1.45l0.15,0.25c0.133,0.367,0.316,0.967,0.55,1.8
			c0.233,0.833,0.434,1.467,0.6,1.9c0.4,1.1,0.784,2.45,1.15,4.05c0.2,0.9,0.483,2.25,0.85,4.05l0.301,1.45
			c0.1,0.733-0.051,1.433-0.45,2.1c1.033,0.933,1.649,1.533,1.85,1.8c0.634,0.8,0.816,1.567,0.55,2.3
			c0.634,0.267,1.134,0.883,1.5,1.85c0.4,0.967,0.617,2.217,0.65,3.75c0.033,1.267-0.05,2.333-0.25,3.2
			c-0.1,0.433-0.4,1.167-0.9,2.2c-0.466,0.967-0.733,1.684-0.8,2.15c-0.033,0.333,0,0.966,0.101,1.9
			c0.066,0.767,0.033,1.433-0.101,2c-0.233,0.934-0.383,2.233-0.45,3.9c-0.1,1.9-0.199,3.2-0.3,3.9l-0.3,1.199
			c-0.267,0.867-0.816,1.817-1.65,2.851l-0.85,1.3l-0.3,1.7c-0.033,0.2-0.167,0.566-0.4,1.1c-0.2,0.467-0.316,0.816-0.35,1.05
			l-0.25,1.7c0.166,1.2,0.083,2.217-0.25,3.05c-0.367,0.867-1,1.684-1.9,2.45c-0.5,0.434-1.283,1.066-2.35,1.9
			c-0.5,0.866-1.184,1.533-2.05,2c0.066,1.434-0.567,2.717-1.9,3.85c-0.5,0.4-1.767,1.184-3.8,2.351
			c-0.566,0.333-1.483,0.983-2.75,1.949c-1.2,0.767-2.184,0.967-2.95,0.601c-0.1-0.033-0.25-0.15-0.45-0.351
			c-0.5-0.333-1.216-1.267-2.15-2.8c-0.667-1.1-1.133-1.916-1.4-2.45c-0.3-0.533-0.517-1.033-0.65-1.5
			c-0.267-1.1-0.583-1.983-0.95-2.649c-0.4-0.8-0.75-1.4-1.05-1.8l-0.2-0.301c-0.267-0.333-0.683-0.633-1.25-0.899
			c-0.933-0.5-1.417-0.767-1.45-0.8c-0.233-0.101-0.417-0.25-0.55-0.45c-0.5-0.467-0.917-1.117-1.25-1.95
			c-0.033-0.134-0.05-0.45-0.05-0.95c0.033-0.434,0-0.7-0.1-0.8c-0.233-0.233-0.9-0.517-2-0.85c-1.067-0.334-1.767-0.733-2.1-1.2
			c-0.233-0.3-0.5-0.75-0.8-1.351c-0.333-0.699-0.583-1.166-0.75-1.399c-0.133-0.233-0.35-0.767-0.65-1.601
			c-0.167-0.466-0.517-0.816-1.05-1.05l-1-0.5c-1.9-0.967-3.133-2.184-3.7-3.649c-0.233-0.534-0.4-1.167-0.5-1.9
			c-0.1-0.8-0.067-1.483,0.1-2.05c0.1-0.334,0.267-0.584,0.5-0.75c-0.466,0.2-1.25-0.2-2.35-1.2c-0.967-0.866-1.617-1.583-1.95-2.15
			c-0.8-1.8-1.133-3.216-1-4.25S4.8,61.733,5.5,60.6c0.033-0.067,0.75-1.05,2.15-2.95c0.934-1.167,1.567-2.133,1.9-2.9
			c0.367-0.8,1.1-1.817,2.2-3.05l1.35-1.5c0.633-0.767,1-1.8,1.1-3.1c0.167-1.934,0.3-3.083,0.4-3.45
			c0.7-2.667,2.017-4.717,3.95-6.15c2-1.5,3.534-2.467,4.6-2.9c0.767-0.333,1.8-0.583,3.1-0.75c1.167-0.167,2.117-0.6,2.85-1.3
			c0.933-1.1,1.733-1.95,2.4-2.55c1.134-1.1,1.85-1.833,2.15-2.2c0.366-0.533,0.816-1.45,1.35-2.75c0.434-0.966,1.2-1.933,2.3-2.9
			c0.934-0.833,1.95-1.533,3.05-2.1C41.384,19.517,42.5,19.483,43.7,19.95z"/>
		
			<radialGradient id="SVGID_3_" cx="33.75" cy="58.8501" r="44.3875" gradientTransform="matrix(1 0 0 -1.9487 0 173.534)" gradientUnits="userSpaceOnUse">
			<stop  offset="0.0118" style="stop-color:#354115"/>
			<stop  offset="0.4039" style="stop-color:#303D14"/>
			<stop  offset="0.8667" style="stop-color:#223111"/>
			<stop  offset="1" style="stop-color:#1C2D10"/>
		</radialGradient>
		<path style="fill-rule:evenodd;clip-rule:evenodd;fill:url(#SVGID_3_);" d="M40.65,20.45c0.966-0.5,2.017-0.517,3.149-0.05
			c1.066,0.4,1.934,1.117,2.601,2.15c0.399,0.633,0.633,1.434,0.699,2.4c0.067,0.566,0.101,1.4,0.101,2.5
			c0.066,0.733,0.233,1.35,0.5,1.85c0.166,0.3,0.533,0.733,1.1,1.3c0.533,0.533,0.9,1.017,1.101,1.45l0.1,0.2
			c0.333,0.767,0.733,1.983,1.2,3.65c0.399,1.1,0.767,2.434,1.1,4c0.2,0.9,0.467,2.233,0.8,4l0.301,1.4
			c0.1,0.733-0.017,1.417-0.351,2.05c0.334,0.367,0.934,0.983,1.8,1.85c0.634,0.767,0.817,1.517,0.551,2.25
			c0.533,0.233,1,0.85,1.399,1.85c0.4,0.967,0.65,2.184,0.75,3.65c0.033,1.233-0.033,2.3-0.2,3.2c-0.066,0.467-0.333,1.184-0.8,2.15
			c-0.467,0.967-0.733,1.684-0.8,2.15c-0.033,0.333-0.033,0.966,0,1.9c0,0.733-0.066,1.4-0.2,2c-0.166,0.867-0.283,2.167-0.35,3.9
			c-0.101,1.767-0.217,3.066-0.351,3.9c-0.033,0.166-0.149,0.566-0.35,1.199c-0.333,0.834-0.917,1.767-1.75,2.801L51.8,81.3L51.6,83
			c-0.066,0.467-0.283,1.184-0.649,2.15c-0.033,0.3-0.134,0.75-0.3,1.35l-0.101,0.25c0.233,1.134,0.15,2.15-0.25,3.05
			c-0.399,0.9-1.033,1.717-1.899,2.45c-0.301,0.267-1.117,0.866-2.45,1.8c-0.434,0.867-1.033,1.566-1.8,2.101
			c0.033,1.433-0.584,2.716-1.851,3.85c-0.666,0.566-1.899,1.35-3.7,2.35c-1.233,0.801-2.183,1.351-2.85,1.65
			c-1.134,0.566-2.083,0.634-2.85,0.2l-0.4-0.45c-0.7-0.333-1.467-1.217-2.3-2.65c-0.667-1.066-1.117-1.883-1.35-2.449
			c-0.267-0.634-0.45-1.134-0.55-1.5c-0.133-0.567-0.233-1-0.3-1.301c-0.133-0.466-0.35-0.916-0.65-1.35
			c-0.367-0.767-0.7-1.366-1-1.8l-0.2-0.3c-0.3-0.367-0.7-0.7-1.2-1c-0.6-0.301-1.067-0.551-1.4-0.75l-0.6-0.45
			c-0.534-0.4-1-1-1.4-1.8c-0.066-0.101-0.117-0.384-0.15-0.851c-0.066-0.366-0.15-0.6-0.25-0.7c-0.2-0.199-0.867-0.483-2-0.85
			c-1.033-0.333-1.717-0.75-2.05-1.25c-0.667-1.2-1.184-2.083-1.55-2.65c-0.1-0.166-0.3-0.666-0.6-1.5
			c-0.167-0.433-0.5-0.783-1-1.05L13,79.05c-1.7-1-2.817-2.2-3.35-3.6c-0.533-1.5-0.7-2.767-0.5-3.8
			c0.133-0.334,0.267-0.567,0.4-0.7c-0.466,0.1-1.2-0.316-2.2-1.25c-0.934-0.867-1.5-1.566-1.7-2.1c-0.733-1.567-1-2.934-0.8-4.1
			c0.167-1,0.6-2.05,1.3-3.15c0.1-0.133,0.8-1.1,2.1-2.9c0.933-1.233,1.567-2.184,1.9-2.85c0.367-0.7,1.083-1.7,2.15-3l1.2-1.55
			c0.567-0.733,0.933-1.75,1.1-3.05c0.2-1.7,0.4-2.817,0.6-3.35c0.9-2.533,2.316-4.45,4.25-5.75c0.233-0.167,0.95-0.7,2.15-1.6
			c0.767-0.6,1.517-1.083,2.25-1.45c0.667-0.3,1.7-0.583,3.1-0.85c1.2-0.2,2.133-0.633,2.8-1.3c0.9-1.133,1.65-2.017,2.25-2.65
			c0.9-0.833,1.583-1.566,2.05-2.2c0.334-0.434,0.816-1.333,1.45-2.7c0.434-0.867,1.167-1.767,2.2-2.7
			C38.634,21.65,39.616,20.983,40.65,20.45z"/>
		
			<radialGradient id="SVGID_4_" cx="33.9004" cy="58.5498" r="43.6125" gradientTransform="matrix(1 0 0 -1.949 0 172.6624)" gradientUnits="userSpaceOnUse">
			<stop  offset="0.0118" style="stop-color:#3E4817"/>
			<stop  offset="0.3451" style="stop-color:#394416"/>
			<stop  offset="0.7412" style="stop-color:#2B3913"/>
			<stop  offset="1" style="stop-color:#1D2E10"/>
		</radialGradient>
		<path style="fill-rule:evenodd;clip-rule:evenodd;fill:url(#SVGID_4_);" d="M40.95,20.85c0.934-0.467,1.934-0.483,3-0.05
			c1,0.434,1.816,1.133,2.45,2.1c0.399,0.667,0.616,1.467,0.649,2.4c0.033,0.534,0.033,1.35,0,2.45
			c0.066,0.733,0.233,1.317,0.5,1.75c0.167,0.3,0.533,0.733,1.101,1.3c0.5,0.5,0.866,0.967,1.1,1.4l0.1,0.2
			c0.334,0.733,0.733,1.934,1.2,3.6c0.367,1.067,0.717,2.383,1.05,3.95c0.2,0.867,0.45,2.167,0.75,3.9l0.301,1.4
			c0.1,0.733,0.017,1.417-0.25,2.05c0.3,0.333,0.866,0.934,1.699,1.8c0.634,0.8,0.834,1.55,0.601,2.25
			c0.5,0.267,0.95,0.883,1.35,1.85c0.4,0.966,0.65,2.15,0.75,3.55c0.101,1.167,0.066,2.217-0.1,3.15
			c-0.066,0.5-0.316,1.217-0.75,2.15c-0.434,1-0.684,1.7-0.75,2.1c-0.066,0.367-0.117,1-0.15,1.9c-0.066,0.767-0.149,1.434-0.25,2
			C55.167,68.884,55.066,70.2,55,72c-0.066,1.7-0.184,3-0.35,3.9c-0.034,0.133-0.184,0.517-0.45,1.149
			c-0.334,0.867-0.95,1.8-1.851,2.8l-1,1c-0.033,0.101-0.083,0.667-0.149,1.7c-0.033,0.5-0.2,1.233-0.5,2.2
			c-0.066,0.634-0.2,1.05-0.4,1.25l-0.149,0.25c0.233,1.167,0.149,2.184-0.25,3.05c-0.4,0.9-1.034,1.717-1.9,2.45
			c-0.566,0.467-1.417,1.017-2.55,1.65c-0.334,0.899-0.834,1.633-1.5,2.199c0,1.4-0.601,2.684-1.8,3.851
			c-0.834,0.767-2.051,1.55-3.65,2.35c-1.733,0.834-2.717,1.283-2.95,1.351c-1.1,0.366-2,0.283-2.7-0.25
			c-0.166-0.101-0.3-0.25-0.399-0.45c-0.8-0.3-1.6-1.134-2.4-2.5c-0.6-0.9-1.066-1.733-1.4-2.5l-0.45-1.5
			c-0.067-0.566-0.133-0.983-0.2-1.25c-0.1-0.434-0.333-0.884-0.7-1.351c-0.367-0.767-0.683-1.383-0.95-1.85l-0.2-0.3
			c-0.267-0.4-0.65-0.75-1.15-1.05c-0.133-0.101-0.6-0.367-1.4-0.801L23,88.95c-0.533-0.4-1.05-0.95-1.55-1.65
			c-0.067-0.066-0.15-0.3-0.25-0.7c-0.1-0.366-0.233-0.6-0.4-0.699c-0.2-0.134-0.867-0.4-2-0.801c-1-0.366-1.683-0.8-2.05-1.3
			c-0.633-1.166-1.117-2.017-1.45-2.55c-0.133-0.2-0.35-0.667-0.65-1.4c-0.2-0.433-0.517-0.783-0.95-1.05l-0.85-0.5
			c-1.467-1.033-2.467-2.217-3-3.55c-0.533-1.366-0.733-2.566-0.6-3.6c0.033-0.267,0.133-0.5,0.3-0.7
			c-0.466,0.033-1.15-0.4-2.05-1.3C6.667,68.316,6.167,67.633,6,67.1c-0.6-1.667-0.8-2.967-0.6-3.9c0.2-0.967,0.65-2,1.35-3.1
			c0.9-1.267,1.583-2.233,2.05-2.9c0.934-1.2,1.567-2.117,1.9-2.75c0.3-0.5,0.667-1.034,1.1-1.6c0.5-0.7,0.833-1.167,1-1.4l1.1-1.55
			c0.5-0.7,0.867-1.7,1.1-3c0.267-1.533,0.533-2.6,0.8-3.2c1.067-2.4,2.583-4.217,4.55-5.45c0.566-0.333,1.283-0.867,2.15-1.6
			c0.767-0.7,1.467-1.217,2.1-1.55c0.6-0.333,1.6-0.633,3-0.9c1.2-0.2,2.133-0.65,2.8-1.35c0.833-1.167,1.55-2.067,2.15-2.7
			c0.566-0.6,1.217-1.367,1.95-2.3c0.467-0.633,0.967-1.5,1.5-2.6c0.434-0.833,1.15-1.683,2.15-2.55
			C39.05,21.933,39.983,21.317,40.95,20.85z"/>
		
			<radialGradient id="SVGID_5_" cx="34" cy="58.2998" r="42.875" gradientTransform="matrix(1 0 0 -1.949 0 171.9249)" gradientUnits="userSpaceOnUse">
			<stop  offset="0.0118" style="stop-color:#474F19"/>
			<stop  offset="0.302" style="stop-color:#424B18"/>
			<stop  offset="0.6471" style="stop-color:#344015"/>
			<stop  offset="1" style="stop-color:#1D2F10"/>
		</radialGradient>
		<path style="fill-rule:evenodd;clip-rule:evenodd;fill:url(#SVGID_5_);" d="M41.2,21.25c0.899-0.4,1.85-0.4,2.85,0
			c0.934,0.367,1.717,1.033,2.351,2C46.8,23.917,47,24.7,47,25.6c0,0.533-0.017,1.333-0.05,2.4c0.066,0.8,0.217,1.383,0.45,1.75
			c0.166,0.3,0.517,0.7,1.05,1.2c0.533,0.533,0.916,1.017,1.149,1.45l0.101,0.2c0.166,0.333,0.566,1.5,1.2,3.5
			c0.399,1.233,0.966,3.8,1.699,7.7l0.25,1.4c0.101,0.767,0.067,1.433-0.1,2c0.3,0.367,0.85,0.983,1.65,1.85
			c0.566,0.733,0.783,1.45,0.649,2.15c0.467,0.4,0.884,1.033,1.25,1.9c0.434,0.967,0.7,2.117,0.8,3.45
			c0.101,1.167,0.084,2.217-0.05,3.15c-0.066,0.466-0.3,1.167-0.7,2.1c-0.399,0.967-0.633,1.667-0.699,2.1
			c-0.034,0.267-0.217,1.55-0.551,3.85c-0.1,0.733-0.183,2.05-0.25,3.95c-0.033,1.7-0.166,3.017-0.399,3.95
			c-0.033,0.233-0.2,0.616-0.5,1.149c-0.5,1.033-1.167,1.934-2,2.7c-0.566,0.566-0.934,0.85-1.101,0.85v1.75
			c0,0.5-0.116,1.233-0.35,2.2c-0.1,0.634-0.3,1.033-0.6,1.2l-0.15,0.2c0.267,1.1,0.184,2.133-0.25,3.1
			c-0.667,1.533-2.184,2.867-4.55,4c-0.2,0.834-0.617,1.584-1.25,2.25c0,2.5-1.767,4.55-5.3,6.15c-1.267,0.6-2.267,0.967-3,1.1
			c-1.101,0.167-1.983-0.066-2.65-0.7l-0.35-0.449c-0.767-0.233-1.617-1.017-2.55-2.351c-0.6-0.866-1.05-1.7-1.35-2.5
			c-0.167-0.533-0.283-1.05-0.35-1.55c0-0.566-0.033-0.967-0.1-1.2c-0.1-0.399-0.35-0.866-0.75-1.399
			c-0.2-0.233-0.383-0.517-0.55-0.851c-0.267-0.633-0.417-0.967-0.45-1L26.15,90c-0.4-0.634-1.233-1.283-2.5-1.95l-0.6-0.35
			c-0.466-0.3-1.033-0.783-1.7-1.45c-0.1-0.1-0.233-0.316-0.4-0.65c-0.167-0.3-0.317-0.5-0.45-0.6
			c-0.067-0.033-0.75-0.316-2.05-0.85c-0.967-0.367-1.633-0.817-2-1.351c-0.633-1.066-1.117-1.85-1.45-2.35
			c-0.133-0.167-0.35-0.601-0.65-1.3c-0.167-0.434-0.45-0.784-0.85-1.051l-0.75-0.55c-1.333-1.133-2.233-2.316-2.7-3.55
			c-0.5-1.233-0.733-2.366-0.7-3.4c0-0.166,0.066-0.383,0.2-0.649C9.117,69.917,8.5,69.467,7.7,68.6c-0.767-0.833-1.217-1.5-1.35-2
			c-0.5-1.5-0.617-2.733-0.35-3.7s0.733-1.983,1.4-3.05c0.867-1.233,1.517-2.184,1.95-2.85c0.9-1.2,1.533-2.1,1.9-2.7
			c0.967-1.3,1.667-2.283,2.1-2.95l1-1.55c0.433-0.7,0.783-1.683,1.05-2.95c0.3-1.4,0.633-2.45,1-3.15
			c0.667-1.233,1.383-2.233,2.15-3c0.733-0.767,1.65-1.45,2.75-2.05c0.667-0.367,1.35-0.9,2.05-1.6c0.767-0.8,1.417-1.367,1.95-1.7
			c0.6-0.367,1.6-0.684,3-0.95c1.267-0.267,2.184-0.733,2.75-1.4c0.8-1.2,1.467-2.117,2-2.75l1.9-2.35c0.3-0.4,0.816-1.25,1.55-2.55
			c0.467-0.8,1.15-1.6,2.05-2.4C39.417,22.25,40.3,21.683,41.2,21.25z"/>
		
			<radialGradient id="SVGID_6_" cx="34.1504" cy="58.1499" r="42.1875" gradientTransform="matrix(1 0 0 -1.9487 0 171.469)" gradientUnits="userSpaceOnUse">
			<stop  offset="0.0118" style="stop-color:#51571C"/>
			<stop  offset="0.2706" style="stop-color:#4C531B"/>
			<stop  offset="0.5804" style="stop-color:#3E4818"/>
			<stop  offset="0.9137" style="stop-color:#263513"/>
			<stop  offset="1" style="stop-color:#1E2F11"/>
		</radialGradient>
		<path style="fill-rule:evenodd;clip-rule:evenodd;fill:url(#SVGID_6_);" d="M41.5,21.65c0.833-0.367,1.717-0.367,2.65,0
			c0.866,0.4,1.6,1.05,2.199,1.95c0.4,0.667,0.601,1.45,0.601,2.35c0,0.5-0.05,1.267-0.15,2.3c0.066,0.8,0.217,1.383,0.45,1.75
			c0.167,0.3,0.5,0.7,1,1.2c0.533,0.5,0.934,0.95,1.2,1.35l0.1,0.2c0.167,0.367,0.566,1.517,1.2,3.45
			c0.366,1.066,0.917,3.6,1.65,7.6l0.199,1.35c0.101,0.867,0.084,1.533-0.05,2c0.3,0.367,0.834,0.967,1.601,1.8
			c0.566,0.733,0.8,1.45,0.699,2.15c0.334,0.333,0.717,0.967,1.15,1.9c0.434,0.967,0.733,2.1,0.9,3.4c0.133,1.133,0.133,2.15,0,3.05
			c-0.067,0.5-0.267,1.2-0.601,2.1c-0.399,1.034-0.633,1.733-0.7,2.1c0,0.067-0.133,0.684-0.399,1.85
			c-0.167,0.733-0.283,1.4-0.351,2c-0.1,0.667-0.166,1.983-0.199,3.95c-0.034,1.666-0.167,2.983-0.4,3.95L53.7,76.55
			c-0.566,0.967-1.267,1.851-2.101,2.65c-0.6,0.566-1,0.8-1.199,0.7l0.1,1.75c0.033,0.3-0.05,1.05-0.25,2.25
			c-0.1,0.6-0.333,0.966-0.7,1.1c-0.033,0.1-0.1,0.15-0.2,0.15c0.267,1.133,0.2,2.183-0.199,3.149
			c-0.767,1.733-2.334,3.017-4.7,3.851c-0.167,0.933-0.5,1.716-1,2.35c-0.033,1.4-0.584,2.684-1.65,3.85
			c-0.899,0.934-2.066,1.7-3.5,2.301c-2.6,1.1-4.483,0.983-5.649-0.351l-0.301-0.5c-0.899-0.166-1.783-0.899-2.649-2.2
			c-0.667-0.899-1.117-1.733-1.35-2.5l-0.25-1.55c0-0.767,0-1.166,0-1.2c-0.1-0.366-0.383-0.816-0.85-1.35
			c-0.233-0.267-0.417-0.566-0.55-0.9c-0.133-0.366-0.267-0.683-0.4-0.949L26.15,88.8c-0.433-0.8-1.25-1.467-2.45-2l-0.6-0.35
			c-0.434-0.267-1.067-0.7-1.9-1.3c-0.4-0.567-0.75-0.934-1.05-1.101c-0.867-0.3-1.55-0.566-2.05-0.8
			c-0.9-0.366-1.55-0.833-1.95-1.4L14.7,79.6c-0.133-0.199-0.333-0.616-0.6-1.25c-0.2-0.399-0.467-0.733-0.8-1l-0.7-0.55
			c-1.167-1.166-1.967-2.333-2.4-3.5c-0.467-1.3-0.717-2.366-0.75-3.2c0-0.3,0.033-0.517,0.1-0.649
			c-0.433-0.134-0.983-0.601-1.65-1.4c-0.667-0.8-1.066-1.45-1.2-1.95c-0.367-1.5-0.417-2.684-0.15-3.55
			c0.3-0.9,0.784-1.883,1.45-2.95c0.833-1.2,1.467-2.133,1.9-2.8c0.9-1.2,1.533-2.083,1.9-2.65c1-1.267,1.684-2.233,2.05-2.9
			l0.9-1.6c0.367-0.633,0.717-1.6,1.05-2.9c0.333-1.267,0.733-2.267,1.2-3c0.767-1.167,1.55-2.1,2.35-2.8
			c0.733-0.667,1.683-1.3,2.85-1.9c0.733-0.367,1.4-0.917,2-1.65c0.733-0.833,1.35-1.433,1.85-1.8c0.467-0.333,1.434-0.684,2.9-1.05
			c1.2-0.2,2.117-0.667,2.75-1.4c0.267-0.3,0.583-0.75,0.95-1.35c0.399-0.7,0.699-1.183,0.899-1.45l1.8-2.4
			c0.4-0.467,0.95-1.3,1.65-2.5c0.467-0.767,1.134-1.517,2-2.25C39.833,22.533,40.667,22.017,41.5,21.65z"/>
		
			<radialGradient id="SVGID_7_" cx="34.2998" cy="58" r="41.5625" gradientTransform="matrix(1 0 0 -1.9489 0 171.0346)" gradientUnits="userSpaceOnUse">
			<stop  offset="0.0118" style="stop-color:#5A5E1E"/>
			<stop  offset="0.2471" style="stop-color:#555A1D"/>
			<stop  offset="0.5294" style="stop-color:#474F1A"/>
			<stop  offset="0.8314" style="stop-color:#2F3D15"/>
			<stop  offset="1" style="stop-color:#1E3011"/>
		</radialGradient>
		<path style="fill-rule:evenodd;clip-rule:evenodd;fill:url(#SVGID_7_);" d="M41.8,22.05c0.8-0.333,1.617-0.316,2.45,0.05
			c0.866,0.333,1.566,0.95,2.1,1.85c0.4,0.667,0.584,1.433,0.551,2.3c-0.034,0.5-0.101,1.267-0.2,2.3c0,0.7,0.116,1.267,0.35,1.7
			c0.167,0.267,0.517,0.633,1.05,1.1c0.534,0.467,0.934,0.917,1.2,1.35l0.101,0.2c0.166,0.3,0.566,1.417,1.199,3.35
			c0.334,1.033,0.65,2.3,0.95,3.8c0.134,0.867,0.334,2.1,0.601,3.7l0.199,1.35c0.101,0.867,0.117,1.517,0.051,1.95l1.55,1.85
			c0.5,0.667,0.733,1.367,0.7,2.1c0.3,0.333,0.666,0.967,1.1,1.9c0.934,1.967,1.267,4.083,1,6.35c-0.066,0.9-0.467,2.267-1.2,4.1
			c-0.033,0.233-0.217,0.867-0.55,1.9c-0.233,0.733-0.366,1.383-0.4,1.95c-0.033,0.4-0.066,1.733-0.1,4c0,1.633-0.15,2.967-0.45,4
			L53.4,76.3c-0.634,1.033-1.367,1.884-2.2,2.55c-0.667,0.534-1.084,0.717-1.25,0.551c0,0.3,0.066,0.883,0.2,1.75
			c0.033,0.6-0.017,1.383-0.15,2.35c-0.1,0.5-0.366,0.85-0.8,1.05l-0.25,0.101c0.3,1.033,0.233,2.066-0.2,3.1
			c-0.8,1.934-2.384,3.184-4.75,3.75c-0.1,0.934-0.366,1.75-0.8,2.45c-0.033,1.399-0.566,2.684-1.601,3.85
			c-0.899,1.033-2.033,1.8-3.399,2.3c-2.533,0.967-4.4,0.617-5.601-1.05l-0.3-0.55c-0.867-0.066-1.8-0.75-2.8-2.05
			c-0.667-0.9-1.1-1.75-1.3-2.55c-0.1-0.434-0.15-0.95-0.15-1.551c0.067-0.733,0.1-1.116,0.1-1.149
			c-0.066-0.367-0.367-0.834-0.9-1.4c-0.267-0.267-0.467-0.55-0.6-0.85c-0.133-0.4-0.25-0.733-0.35-1L26.15,87.6
			c-0.433-0.866-1.217-1.566-2.35-2.1l-2.7-1.45c-0.5-0.467-0.917-0.767-1.25-0.899c-0.934-0.301-1.633-0.567-2.1-0.801
			c-0.867-0.366-1.517-0.85-1.95-1.449l-1.35-2.15c-0.4-1-0.867-1.7-1.4-2.1l-0.6-0.601c-0.934-1.1-1.617-2.25-2.05-3.45
			c-0.433-1.199-0.717-2.216-0.85-3.05c-0.033-0.2-0.033-0.399,0-0.6c-0.433-0.2-0.933-0.684-1.5-1.45c-0.566-0.767-0.9-1.4-1-1.9
			c-0.267-1.4-0.25-2.517,0.05-3.35c0.333-0.867,0.85-1.833,1.55-2.9c0.8-1.167,1.4-2.1,1.8-2.8c0.9-1.133,1.55-1.983,1.95-2.55
			c0.967-1.2,1.633-2.167,2-2.9l0.8-1.6c0.233-0.467,0.566-1.417,1-2.85c0.367-1.167,0.833-2.133,1.4-2.9
			c0.8-1.067,1.633-1.933,2.5-2.6c0.767-0.6,1.767-1.183,3-1.75c0.8-0.367,1.467-0.917,2-1.65c0.667-0.933,1.217-1.567,1.65-1.9
			c0.5-0.367,1.467-0.733,2.9-1.1c1.233-0.267,2.133-0.75,2.7-1.45c0.267-0.333,0.567-0.8,0.9-1.4c0.434-0.767,0.717-1.267,0.85-1.5
			c0.567-0.867,1.134-1.667,1.7-2.4l1.7-2.45C38.533,23.983,39.967,22.817,41.8,22.05z"/>
		
			<radialGradient id="SVGID_8_" cx="34.4004" cy="57.8999" r="40.975" gradientTransform="matrix(1 0 0 -1.9487 0 170.7323)" gradientUnits="userSpaceOnUse">
			<stop  offset="0.0118" style="stop-color:#636520"/>
			<stop  offset="0.2314" style="stop-color:#5E611F"/>
			<stop  offset="0.4941" style="stop-color:#4F561C"/>
			<stop  offset="0.7725" style="stop-color:#384416"/>
			<stop  offset="1" style="stop-color:#1F3111"/>
		</radialGradient>
		<path style="fill-rule:evenodd;clip-rule:evenodd;fill:url(#SVGID_8_);" d="M42.05,22.45c0.8-0.267,1.566-0.25,2.3,0.05
			c0.767,0.333,1.417,0.917,1.95,1.75c0.434,0.667,0.617,1.433,0.55,2.3c-0.033,0.5-0.133,1.25-0.3,2.25
			c0,0.7,0.117,1.267,0.351,1.7c0.133,0.267,0.466,0.617,1,1.05c0.533,0.467,0.933,0.917,1.199,1.35l0.15,0.15
			c0.366,0.667,0.767,1.767,1.2,3.3c0.434,1.333,0.916,3.8,1.45,7.4L52.25,47c0.233,0.367,0.717,0.967,1.45,1.8
			c0.467,0.633,0.733,1.333,0.8,2.1c0.233,0.333,0.566,0.967,1,1.9c0.934,2,1.316,4.067,1.15,6.2c-0.067,0.567-0.233,1.25-0.5,2.05
			c-0.134,0.467-0.351,1.15-0.65,2.05c-0.033,0.167-0.267,0.783-0.7,1.85c-0.267,0.733-0.416,1.4-0.45,2c-0.033,0.9-0.033,2.233,0,4
			c0,1.6-0.166,2.934-0.5,4l-0.699,1.1c-0.767,1.033-1.551,1.867-2.351,2.5c-0.7,0.601-1.133,0.733-1.3,0.4l0.25,1.75
			c0.134,0.7,0.134,1.483,0,2.35c-0.1,0.566-0.4,0.9-0.9,1l-0.3,0.05c0.334,1,0.267,2.051-0.2,3.15c-0.399,0.967-1.066,1.783-2,2.45
			c-0.899,0.633-1.85,1.033-2.85,1.2c0,0.833-0.184,1.666-0.55,2.5c-0.033,1.399-0.533,2.683-1.5,3.85
			c-0.9,1.066-2.017,1.833-3.351,2.3c-1.133,0.434-2.216,0.483-3.25,0.15c-1-0.334-1.783-0.983-2.35-1.95l-0.25-0.55
			c-0.933-0.033-1.917-0.667-2.95-1.9c-0.7-0.934-1.117-1.783-1.25-2.55c-0.1-0.634-0.117-1.184-0.05-1.65
			c0.167-0.533,0.233-0.899,0.2-1.1c-0.067-0.333-0.4-0.783-1-1.35c-0.267-0.267-0.467-0.551-0.6-0.851
			c-0.133-0.399-0.25-0.75-0.35-1.05l-0.1-0.35c-0.5-1.034-1.267-1.767-2.3-2.2L21,82.95c-0.633-0.367-1.133-0.601-1.5-0.7
			c-1.167-0.4-1.867-0.667-2.1-0.8c-0.833-0.4-1.467-0.917-1.9-1.55c-0.567-0.9-1.017-1.567-1.35-2c-0.433-0.9-0.867-1.567-1.3-2
			c-0.267-0.267-0.434-0.467-0.5-0.601c-0.667-0.934-1.25-2.083-1.75-3.45l-0.95-2.8c-0.066-0.133-0.1-0.333-0.1-0.6
			c-0.433-0.267-0.883-0.767-1.35-1.5c-0.467-0.7-0.733-1.317-0.8-1.85c-0.133-1.333-0.033-2.4,0.3-3.2
			c0.367-0.833,0.883-1.767,1.55-2.8c0.767-1.167,1.35-2.083,1.75-2.75c0.133-0.233,0.783-1.067,1.95-2.5
			c0.5-0.633,0.867-1.1,1.1-1.4c0.367-0.5,0.65-0.983,0.85-1.45l0.7-1.65c0.467-1.267,0.8-2.2,1-2.8c0.4-1.066,0.95-2,1.65-2.8
			c0.867-1,1.75-1.8,2.65-2.4c0.733-0.467,1.767-0.983,3.1-1.55c0.867-0.367,1.517-0.917,1.95-1.65c0.633-1,1.15-1.683,1.55-2.05
			c0.6-0.5,1.55-0.883,2.85-1.15c1.233-0.3,2.1-0.8,2.6-1.5c0.267-0.333,0.55-0.817,0.85-1.45c0.4-0.8,0.667-1.3,0.8-1.5
			c0.634-1.067,1.167-1.9,1.601-2.5l1.8-2.35C39.066,24.15,40.417,23.083,42.05,22.45z"/>
		
			<radialGradient id="SVGID_9_" cx="34.5" cy="57.8501" r="40.425" gradientTransform="matrix(1 0 0 -1.949 0 170.5988)" gradientUnits="userSpaceOnUse">
			<stop  offset="0.0118" style="stop-color:#6C6C22"/>
			<stop  offset="0.2196" style="stop-color:#676821"/>
			<stop  offset="0.4627" style="stop-color:#595D1E"/>
			<stop  offset="0.7294" style="stop-color:#414B18"/>
			<stop  offset="1" style="stop-color:#203211"/>
		</radialGradient>
		<path style="fill-rule:evenodd;clip-rule:evenodd;fill:url(#SVGID_9_);" d="M42.35,22.85c0.733-0.233,1.434-0.2,2.101,0.1
			c0.733,0.3,1.35,0.85,1.85,1.65c0.4,0.667,0.55,1.417,0.45,2.25c-0.033,0.5-0.134,1.233-0.3,2.2
			c-0.033,0.767,0.066,1.317,0.3,1.65c0.134,0.267,0.45,0.617,0.95,1.05c0.566,0.433,0.983,0.867,1.25,1.3l0.1,0.2
			c0.4,0.6,0.816,1.667,1.25,3.2c0.434,1.5,0.884,3.917,1.351,7.25l0.449,3.2c0.101,0.167,0.567,0.783,1.4,1.85
			c0.434,0.567,0.7,1.233,0.8,2l0.9,1.95c1,1.833,1.434,3.867,1.3,6.1c-0.066,0.833-0.417,2.167-1.05,4
			c-0.066,0.233-0.334,0.867-0.8,1.9c-0.334,0.733-0.517,1.383-0.551,1.95c-0.033,0.934,0,2.284,0.101,4.05
			c0.033,1.6-0.15,2.934-0.55,4l-0.75,1.1c-0.867,1.066-1.684,1.867-2.45,2.4c-0.8,0.566-1.283,0.649-1.45,0.25l0.4,1.8
			c0.233,0.866,0.267,1.667,0.1,2.4c-0.1,0.633-0.434,0.933-1,0.899h-0.35c0.333,1.101,0.283,2.167-0.15,3.2
			c-0.434,1-1.116,1.816-2.05,2.45c-0.934,0.666-1.917,1.017-2.95,1.05c0.1,0.833,0.017,1.7-0.25,2.6c-0.1,1.4-0.6,2.667-1.5,3.801
			c-0.866,1.133-1.934,1.916-3.2,2.35c-1.2,0.4-2.316,0.35-3.35-0.15c-1-0.5-1.767-1.3-2.3-2.399l-0.2-0.601
			c-1.067,0.101-2.083-0.466-3.05-1.699c-0.733-0.9-1.15-1.767-1.25-2.601c-0.066-0.633-0.05-1.184,0.05-1.649
			c0.2-0.5,0.3-0.851,0.3-1.051c-0.067-0.333-0.433-0.8-1.1-1.399c-0.3-0.267-0.5-0.55-0.6-0.851c-0.1-0.399-0.2-0.75-0.3-1.05
			l-0.1-0.35c-0.467-1.101-1.217-1.867-2.25-2.3l-3-1c-0.767-0.267-1.35-0.467-1.75-0.601c-1.967-0.5-3.3-1.283-4-2.35L13.9,77.1
			c-0.5-0.866-0.933-1.517-1.3-1.949l-0.4-0.601c-0.4-0.7-0.867-1.833-1.4-3.399c-0.167-0.534-0.533-1.417-1.1-2.65L9.55,68
			c-0.433-0.433-0.816-0.967-1.15-1.6c-0.4-0.667-0.617-1.267-0.65-1.8c-0.067-1.2,0.1-2.2,0.5-3c0.4-0.767,0.933-1.684,1.6-2.75
			c0.833-1.3,1.4-2.2,1.7-2.7c0.2-0.367,0.85-1.183,1.95-2.45c1.033-1.133,1.683-2.067,1.95-2.8l0.6-1.7
			c0.6-1.733,0.917-2.65,0.95-2.75c0.4-0.934,1.017-1.817,1.85-2.65c0.9-0.933,1.85-1.667,2.85-2.2c0.6-0.333,1.683-0.817,3.25-1.45
			c0.9-0.333,1.533-0.883,1.9-1.65c0.533-1.033,1-1.75,1.4-2.15c0.5-0.5,1.417-0.917,2.75-1.25c1.267-0.3,2.134-0.783,2.6-1.45
			c0.267-0.367,0.551-0.867,0.851-1.5c0.399-0.9,0.633-1.417,0.7-1.55c0.533-1.133,1.033-1.983,1.5-2.55l1.8-2.3
			C39.65,24.35,40.95,23.383,42.35,22.85z"/>
		
			<radialGradient id="SVGID_10_" cx="34.5498" cy="57.7998" r="39.8875" gradientTransform="matrix(1 0 0 -1.9489 0 170.4469)" gradientUnits="userSpaceOnUse">
			<stop  offset="0.0118" style="stop-color:#757424"/>
			<stop  offset="0.2039" style="stop-color:#707023"/>
			<stop  offset="0.4353" style="stop-color:#616520"/>
			<stop  offset="0.6824" style="stop-color:#49521B"/>
			<stop  offset="0.9451" style="stop-color:#283814"/>
			<stop  offset="1" style="stop-color:#203212"/>
		</radialGradient>
		<path style="fill-rule:evenodd;clip-rule:evenodd;fill:url(#SVGID_10_);" d="M46.25,24.95c0.434,0.667,0.583,1.4,0.45,2.2
			c-0.066,0.467-0.2,1.2-0.4,2.2c0,0.733,0.101,1.267,0.3,1.6c0.134,0.267,0.45,0.6,0.95,1c0.533,0.433,0.95,0.867,1.25,1.3
			L48.9,33.4c0.399,0.633,0.816,1.684,1.25,3.15c0.433,1.467,0.85,3.833,1.25,7.1l0.149,1.3c0.101,0.8,0.233,1.433,0.4,1.9
			c0.2,0.367,0.633,0.983,1.3,1.85c0.4,0.533,0.684,1.183,0.85,1.95c0.334,0.867,0.617,1.517,0.851,1.95
			c1.033,1.867,1.5,3.85,1.399,5.95c-0.1,1.2-0.416,2.534-0.949,4c-0.067,0.233-0.384,0.85-0.95,1.85
			c-0.4,0.767-0.601,1.417-0.601,1.95c0,0.933,0.067,2.317,0.2,4.15c0.066,1.566-0.133,2.884-0.6,3.95L52.6,75.5
			c-0.866,1.033-1.716,1.833-2.55,2.4c-0.8,0.566-1.3,0.6-1.5,0.1l0.5,1.8c0.267,1.066,0.334,1.867,0.2,2.4
			c-0.1,0.6-0.467,0.883-1.1,0.85h-0.4c0.4,1,0.35,2.066-0.15,3.2c-0.433,0.967-1.133,1.783-2.1,2.45
			c-0.967,0.633-1.967,0.934-3,0.899c0.167,0.867,0.167,1.767,0,2.7c-0.134,1.4-0.6,2.667-1.4,3.8
			c-0.866,1.167-1.916,1.95-3.149,2.351c-1.233,0.366-2.367,0.2-3.4-0.5c-1-0.634-1.733-1.566-2.2-2.8L32.15,94.55
			c-1.101,0.134-2.167-0.399-3.2-1.6c-0.7-0.8-1.1-1.667-1.2-2.601c-0.033-0.566,0.017-1.116,0.15-1.649
			c0.267-0.5,0.4-0.851,0.4-1.05c-0.033-0.301-0.417-0.767-1.15-1.4c-0.333-0.267-0.55-0.55-0.65-0.85
			c-0.067-0.4-0.15-0.75-0.25-1.051L26.1,84c-0.367-1.2-1.067-1.983-2.1-2.35l-0.7-0.25c-0.533-0.2-1.367-0.4-2.5-0.601L18.85,80.4
			c-1.934-0.434-3.267-1.233-4-2.4l-2.45-3.55l-0.35-0.65c-0.133-0.333-0.483-1.45-1.05-3.35c-0.3-0.834-0.7-1.65-1.2-2.45
			l-0.25-0.5c-0.966-1.233-1.45-2.367-1.45-3.4s0.25-1.983,0.75-2.85c1.433-2.2,2.517-3.983,3.25-5.35
			c0.267-0.433,0.917-1.217,1.95-2.35c1.034-1.1,1.667-2.033,1.9-2.8l0.5-1.7c0.367-1.3,0.683-2.2,0.95-2.7
			c0.434-0.833,1.117-1.684,2.05-2.55c0.966-0.867,1.983-1.533,3.05-2c0.433-0.2,1.55-0.617,3.35-1.25
			c0.967-0.333,1.6-0.883,1.9-1.65c0.467-1.167,0.867-1.933,1.2-2.3c0.5-0.533,1.417-0.967,2.75-1.3c1.267-0.3,2.116-0.8,2.55-1.5
			c0.2-0.3,0.667-1.35,1.4-3.15c0.399-1.066,0.866-1.917,1.399-2.55l1.9-2.25c1.233-1.367,2.467-2.233,3.7-2.6
			C44.116,22.817,45.316,23.383,46.25,24.95z"/>
		
			<radialGradient id="SVGID_11_" cx="34.6504" cy="57.75" r="39.3625" gradientTransform="matrix(1 0 0 -1.9489 0 170.2974)" gradientUnits="userSpaceOnUse">
			<stop  offset="0.0118" style="stop-color:#7E7B26"/>
			<stop  offset="0.1961" style="stop-color:#797725"/>
			<stop  offset="0.4118" style="stop-color:#6A6C22"/>
			<stop  offset="0.651" style="stop-color:#52591D"/>
			<stop  offset="0.898" style="stop-color:#314015"/>
			<stop  offset="1" style="stop-color:#213312"/>
		</radialGradient>
		<path style="fill-rule:evenodd;clip-rule:evenodd;fill:url(#SVGID_11_);" d="M46.25,25.3c0.4,0.7,0.533,1.434,0.4,2.2
			c-0.101,0.467-0.25,1.167-0.45,2.1c-0.066,0.967,0.149,1.683,0.649,2.15c1.101,0.967,1.7,1.517,1.801,1.65
			c1.166,1.7,2.05,5.533,2.649,11.5c0.066,0.8,0.233,1.45,0.5,1.95c0.167,0.267,0.584,0.85,1.25,1.75
			c0.334,0.433,0.634,1.083,0.9,1.95c0.267,0.967,0.5,1.633,0.7,2c1.767,3,2,6.25,0.699,9.75c-0.066,0.2-0.433,0.817-1.1,1.85
			c-0.467,0.733-0.684,1.383-0.65,1.95c0.034,0.933,0.15,2.317,0.351,4.15c0.033,1.6-0.217,2.934-0.75,4
			c-3.033,3.434-4.733,4.533-5.101,3.3c0.101,0.4,0.4,1.483,0.9,3.25c0.233,1.5-0.316,2.066-1.65,1.7c0.601,1.6,0.267,3.134-1,4.6
			C45.15,88.533,43.7,89.167,42,89c0.533,1.667,0.4,3.434-0.4,5.3c-0.8,1.934-2.05,3.134-3.75,3.601
			c-1.333,0.366-2.583,0.033-3.75-1c-1.033-0.934-1.699-2.15-2-3.65c-1.033,0.2-2.033-0.184-3-1.15
			c-0.934-0.899-1.434-1.883-1.5-2.949c-0.033-0.7,0.183-1.483,0.65-2.351c0.167-0.366-0.217-0.934-1.15-1.7
			c-0.333-0.267-0.55-0.55-0.65-0.85c-0.067-0.4-0.15-0.75-0.25-1.05c-0.167-0.8-0.383-1.4-0.65-1.8
			c-0.333-0.467-0.833-0.817-1.5-1.051c-0.167-0.066-1.883-0.333-5.15-0.8c-2.033-0.3-3.5-1.149-4.4-2.55l-1.4-1.9
			c-0.6-0.8-0.983-1.483-1.15-2.05c-0.3-1.434-0.517-2.416-0.65-2.95c-0.233-0.899-0.7-1.783-1.4-2.649
			c-1.733-2.233-1.9-4.4-0.5-6.5c1.633-2.467,2.717-4.217,3.25-5.25c0.3-0.567,1-1.383,2.1-2.45c0.933-0.9,1.5-1.767,1.7-2.6
			c0.533-2.167,0.883-3.417,1.05-3.75c0.433-1.033,1.283-2.05,2.55-3.05c1.034-0.8,2.117-1.417,3.25-1.85
			c0.1-0.033,1.25-0.383,3.45-1.05c1-0.333,1.617-0.883,1.85-1.65c0.367-1.2,0.733-2.017,1.1-2.45c0.466-0.533,1.367-0.983,2.7-1.35
			c1.233-0.367,2.066-0.883,2.5-1.55c0.333-0.5,0.716-1.467,1.149-2.9c0.434-1.267,0.917-2.233,1.45-2.9
			c0.833-1,1.483-1.733,1.95-2.2C42.483,23.017,44.75,22.8,46.25,25.3z"/>
	</g>
	<g>
		<path style="fill-rule:evenodd;clip-rule:evenodd;fill:#1A2B0F;" d="M55.1,96.85c0.534-0.233,1.217,0.45,2.051,2.051
			c0.466,0.866,1.1,2.183,1.899,3.949c0.3,0.567,1.05,1.584,2.25,3.051c1,1.233,1.634,2.35,1.9,3.35
			c0.133,0.434,0.166,0.967,0.1,1.6c-0.066,0.834-0.1,1.351-0.1,1.551c0.033,0.433,0.2,0.916,0.5,1.449
			c0.399,0.733,0.633,1.2,0.7,1.4c0.433,1.233,0.25,2.566-0.551,4c-0.466,0.833-1.416,2.066-2.85,3.7
			c-1.267,1.434-2.083,2.55-2.45,3.35c-0.399,0.834-0.649,1.334-0.75,1.5c-0.333,0.4-0.833,0.55-1.5,0.45
			c-0.6-0.1-1.633-0.7-3.1-1.8c-0.8-0.533-1.384-0.95-1.75-1.25c-0.634-0.5-1.066-1.033-1.3-1.601l-0.301-0.75
			c-0.133-0.233-0.283-0.466-0.449-0.699c-0.567-0.867-1-1.434-1.301-1.7c-0.1-0.066-0.433-0.25-1-0.55
			c-0.399-0.2-0.683-0.483-0.85-0.851c-0.3-0.8-0.25-1.366,0.15-1.7c-0.167,0.134-0.45,0.017-0.851-0.35
			c-0.366-0.3-0.616-0.55-0.75-0.75c-0.333-0.467-0.5-0.967-0.5-1.5c0.033-0.434,0.283-0.967,0.75-1.6c0.566-0.733,0.9-1.233,1-1.5
			c0.134-0.334,0.316-0.601,0.55-0.801c0.301-0.267,0.534-0.5,0.7-0.699c0.233-0.267,0.351-0.617,0.351-1.051
			c0.033-0.767,0.05-1.166,0.05-1.199c0.1-1,0.434-1.867,1-2.601c0.633-0.866,1.416-1.316,2.35-1.35
			c0.566-1.767,1.05-3.084,1.45-3.95C53.167,98.434,54.033,97.384,55.1,96.85z"/>
		
			<radialGradient id="SVGID_12_" cx="55.4004" cy="111.25" r="16.325" gradientTransform="matrix(1 0 0 -1.9487 0 328.0427)" gradientUnits="userSpaceOnUse">
			<stop  offset="0.0118" style="stop-color:#233211"/>
			<stop  offset="0.7647" style="stop-color:#1E2E10"/>
			<stop  offset="1" style="stop-color:#1B2C0F"/>
		</radialGradient>
		<path style="fill-rule:evenodd;clip-rule:evenodd;fill:url(#SVGID_12_);" d="M61.15,105.9c0.966,1.199,1.6,2.3,1.899,3.3
			c0.134,0.434,0.15,0.967,0.05,1.6c-0.1,0.867-0.149,1.384-0.149,1.55c0,0.434,0.133,0.917,0.399,1.45
			c0.434,0.767,0.667,1.217,0.7,1.351c0.167,0.466,0.25,1,0.25,1.6c-0.033,0.8-0.316,1.634-0.85,2.5c-0.334,0.566-0.9,1.35-1.7,2.35
			l-0.9,1.051c-1.3,1.633-2.1,2.716-2.399,3.25c-0.367,0.866-0.601,1.35-0.7,1.449c-0.3,0.467-0.783,0.65-1.45,0.551
			c-0.5-0.034-1.05-0.301-1.649-0.801c-0.367-0.199-0.784-0.5-1.25-0.899l-0.2-0.2l-1.601-1.3c-0.8-0.566-1.333-1.117-1.6-1.65
			c-0.333-0.767-0.566-1.217-0.7-1.35c-0.533-0.8-0.95-1.334-1.25-1.601l-0.35-0.25c-0.334-0.166-0.566-0.3-0.7-0.399
			c-0.267-0.167-0.467-0.4-0.6-0.7c-0.101-0.233-0.15-0.517-0.15-0.85c0-0.367,0.083-0.617,0.25-0.75
			c-0.2,0.133-0.566-0.067-1.1-0.601L45,116.1c-0.366-0.5-0.517-0.983-0.45-1.449c0-0.434,0.217-0.934,0.65-1.5
			c0.533-0.7,0.85-1.167,0.95-1.4c0.133-0.333,0.3-0.616,0.5-0.85c0.3-0.267,0.533-0.5,0.699-0.7l0.15-0.15
			c0.167-0.267,0.25-0.6,0.25-1c0-0.467,0.017-0.816,0.05-1.05l0.05-0.2c0.167-1.066,0.551-1.916,1.15-2.55
			c0.634-0.733,1.366-1.1,2.2-1.1l1-2.95c0.8-2.233,1.783-3.601,2.95-4.101c0.533-0.199,1.183,0.434,1.949,1.9
			c0.467,0.8,1.067,2.017,1.801,3.65c0.399,0.767,0.85,1.466,1.35,2.1C60.417,105.017,60.717,105.4,61.15,105.9z"/>
		
			<radialGradient id="SVGID_13_" cx="55.2998" cy="111.2002" r="15.9875" gradientTransform="matrix(1 0 0 -1.9492 0 327.9493)" gradientUnits="userSpaceOnUse">
			<stop  offset="0.0118" style="stop-color:#2C3A13"/>
			<stop  offset="0.502" style="stop-color:#273612"/>
			<stop  offset="1" style="stop-color:#1B2C10"/>
		</radialGradient>
		<path style="fill-rule:evenodd;clip-rule:evenodd;fill:url(#SVGID_13_);" d="M62.85,109.1c0.134,0.5,0.167,1.051,0.101,1.65
			c-0.033,0.333-0.117,0.85-0.25,1.55c-0.033,0.434,0.083,0.917,0.35,1.45c0.134,0.267,0.351,0.7,0.65,1.3
			c0.2,0.5,0.3,1.017,0.3,1.55c-0.033,0.767-0.3,1.584-0.8,2.45c-0.2,0.334-0.75,1.101-1.65,2.3L58.4,125.45
			c-0.301,0.833-0.517,1.35-0.65,1.55c-0.333,0.434-0.816,0.634-1.45,0.6c-0.5-0.033-1.066-0.333-1.7-0.899
			c-0.466-0.2-0.883-0.517-1.25-0.95l-0.199-0.25l-0.9-0.85c-0.267-0.267-0.483-0.45-0.65-0.551c-0.933-0.6-1.517-1.133-1.75-1.6
			c-0.399-0.767-0.616-1.184-0.649-1.25c-0.5-0.767-0.884-1.283-1.15-1.55l-0.35-0.2c-0.3-0.167-0.517-0.3-0.65-0.4
			c-0.233-0.166-0.416-0.383-0.55-0.649c-0.267-0.7-0.233-1.2,0.1-1.5c-0.199,0.1-0.55-0.101-1.05-0.601L45.2,115.9
			c-0.3-0.434-0.45-0.884-0.45-1.351c0-0.399,0.2-0.866,0.6-1.399c0.5-0.7,0.784-1.15,0.851-1.351c0.133-0.333,0.316-0.6,0.55-0.8
			c0.267-0.267,0.483-0.5,0.65-0.7l0.149-0.2c0.167-0.267,0.267-0.583,0.3-0.949c0.034-0.434,0.067-0.784,0.101-1.051L48,107.95
			c0.167-1,0.55-1.851,1.15-2.55c0.566-0.667,1.283-1.034,2.149-1.101l0.2-0.399l0.85-2.5c0.767-2.233,1.717-3.584,2.851-4.051
			c0.5-0.199,1.116,0.367,1.85,1.7c0.434,0.767,0.983,1.9,1.65,3.4c0.267,0.533,0.7,1.267,1.3,2.2l0.95,1.149
			C61.983,107.066,62.616,108.167,62.85,109.1z"/>
		
			<radialGradient id="SVGID_14_" cx="55.25" cy="111.2002" r="15.65" gradientTransform="matrix(1 0 0 -1.9489 0 327.9163)" gradientUnits="userSpaceOnUse">
			<stop  offset="0.0118" style="stop-color:#354115"/>
			<stop  offset="0.4039" style="stop-color:#303D14"/>
			<stop  offset="0.8667" style="stop-color:#223111"/>
			<stop  offset="1" style="stop-color:#1C2D10"/>
		</radialGradient>
		<path style="fill-rule:evenodd;clip-rule:evenodd;fill:url(#SVGID_14_);" d="M62.65,109.05c0.133,0.533,0.166,1.084,0.1,1.65
			c-0.033,0.366-0.134,0.899-0.3,1.6c-0.066,0.434,0.017,0.884,0.25,1.351c0.166,0.3,0.399,0.733,0.7,1.3
			c0.133,0.434,0.233,0.916,0.3,1.45c0,0.767-0.25,1.566-0.75,2.399c-0.3,0.5-0.834,1.25-1.601,2.25l-0.75,1.05
			c-1.066,1.467-1.833,2.45-2.3,2.95c-0.233,0.767-0.434,1.283-0.6,1.55c-0.334,0.5-0.8,0.717-1.4,0.65
			c-0.6-0.033-1.166-0.35-1.7-0.95c-0.433-0.166-0.866-0.5-1.3-1l-0.149-0.25c-0.167-0.267-0.334-0.467-0.5-0.6L52.3,124.1
			c-0.166-0.199-0.399-0.399-0.7-0.6c-0.466-0.267-0.816-0.467-1.05-0.6c-0.366-0.267-0.649-0.567-0.85-0.9
			c-0.233-0.6-0.434-1-0.601-1.2c-0.466-0.7-0.833-1.184-1.1-1.45l-0.3-0.199c-0.267-0.167-0.467-0.301-0.601-0.4
			c-0.199-0.134-0.35-0.333-0.449-0.6c-0.267-0.667-0.25-1.15,0.05-1.45c-0.167,0.1-0.483-0.084-0.95-0.55l-0.35-0.4
			c-0.301-0.434-0.45-0.85-0.45-1.25s0.184-0.85,0.55-1.35c0.467-0.733,0.733-1.167,0.8-1.301c0.134-0.3,0.316-0.566,0.55-0.8
			c0.334-0.399,0.534-0.633,0.601-0.7l0.149-0.199c0.167-0.233,0.284-0.534,0.351-0.9c0.066-0.434,0.116-0.783,0.149-1.05
			l0.051-0.15c0.166-1,0.55-1.833,1.149-2.5c0.566-0.633,1.283-1,2.15-1.1l0.2-0.351c0.366-1.1,0.649-1.916,0.85-2.449
			c0.7-2.267,1.616-3.634,2.75-4.101c0.5-0.166,1.083,0.367,1.75,1.601c0.4,0.666,0.917,1.699,1.55,3.1
			c0.367,0.8,0.767,1.55,1.2,2.25l0.95,1.2C61.733,106.9,62.384,108.017,62.65,109.05z"/>
		
			<radialGradient id="SVGID_15_" cx="55.1504" cy="111.1504" r="15.3125" gradientTransform="matrix(1 0 0 -1.9486 0 327.7349)" gradientUnits="userSpaceOnUse">
			<stop  offset="0.0118" style="stop-color:#3E4817"/>
			<stop  offset="0.3451" style="stop-color:#394416"/>
			<stop  offset="0.7412" style="stop-color:#2B3913"/>
			<stop  offset="1" style="stop-color:#1D2E10"/>
		</radialGradient>
		<path style="fill-rule:evenodd;clip-rule:evenodd;fill:url(#SVGID_15_);" d="M62.5,109c0.134,0.566,0.167,1.134,0.1,1.7
			c-0.066,0.333-0.199,0.85-0.399,1.55c-0.066,0.434,0,0.884,0.2,1.35c0.133,0.267,0.35,0.667,0.649,1.2c0.2,0.5,0.3,0.983,0.3,1.45
			c0.034,0.767-0.183,1.55-0.649,2.35c-0.3,0.5-0.816,1.217-1.55,2.15l-0.7,1.05c-0.867,1.4-1.617,2.334-2.25,2.8
			c-0.167,0.801-0.334,1.334-0.5,1.601c-0.3,0.5-0.767,0.733-1.4,0.7c-0.7-0.034-1.283-0.384-1.75-1.051c-0.5-0.1-0.934-0.433-1.3-1
			l-0.15-0.3c-0.1-0.233-0.25-0.434-0.449-0.6l-0.351-0.4c-0.133-0.233-0.35-0.45-0.649-0.649c-0.534-0.233-0.917-0.417-1.15-0.551
			c-0.434-0.233-0.733-0.533-0.9-0.899c-0.199-0.467-0.399-0.834-0.6-1.101c-0.434-0.666-0.767-1.116-1-1.35l-0.25-0.2
			c-0.267-0.166-0.45-0.3-0.55-0.399c-0.2-0.134-0.351-0.317-0.45-0.551c-0.2-0.566-0.2-1.017,0-1.35
			c-0.134,0.066-0.417-0.116-0.85-0.55l-0.301-0.4c-0.267-0.399-0.399-0.783-0.399-1.149c-0.033-0.367,0.116-0.784,0.45-1.25
			c0.466-0.733,0.716-1.15,0.75-1.25c0.133-0.301,0.3-0.567,0.5-0.801c0.267-0.267,0.483-0.5,0.649-0.699l0.101-0.2
			c0.199-0.3,0.399-0.917,0.6-1.851V108.2c0.233-1.066,0.634-1.9,1.2-2.5c0.467-0.533,1.184-0.884,2.149-1.05l0.2-0.4
			c0.066-0.134,0.334-0.934,0.8-2.4c0.367-1.133,0.684-1.933,0.95-2.399c0.467-0.867,1.05-1.417,1.75-1.65
			c0.5-0.166,1.066,0.3,1.7,1.4c0.333,0.633,0.783,1.6,1.35,2.899c0.601,1.2,1,1.967,1.2,2.301c0.2,0.366,0.517,0.767,0.95,1.199
			C61.5,106.767,62.167,107.9,62.5,109z"/>
		
			<radialGradient id="SVGID_16_" cx="55.0996" cy="111.0996" r="14.9875" gradientTransform="matrix(1 0 0 -1.9491 0 327.6465)" gradientUnits="userSpaceOnUse">
			<stop  offset="0.0118" style="stop-color:#474F19"/>
			<stop  offset="0.302" style="stop-color:#424B18"/>
			<stop  offset="0.6471" style="stop-color:#344015"/>
			<stop  offset="1" style="stop-color:#1D2F10"/>
		</radialGradient>
		<path style="fill-rule:evenodd;clip-rule:evenodd;fill:url(#SVGID_16_);" d="M62.3,108.95c0.167,0.566,0.2,1.133,0.101,1.7
			c-0.034,0.1-0.167,0.616-0.4,1.55c-0.134,0.434-0.1,0.883,0.1,1.35c0.134,0.233,0.334,0.617,0.601,1.15
			c0.166,0.399,0.283,0.866,0.35,1.399c0.066,0.733-0.149,1.5-0.649,2.301c-0.267,0.466-0.75,1.149-1.45,2.05l-0.65,1.05
			c-0.767,1.333-1.483,2.233-2.149,2.7c-0.134,0.7-0.301,1.217-0.5,1.55c-0.301,0.5-0.75,0.767-1.351,0.8
			c-0.7,0.066-1.283-0.3-1.75-1.1c-0.633-0.101-1.083-0.45-1.35-1.05L53.1,124.1c-0.033-0.166-0.066-0.267-0.1-0.3
			c-0.033-0.1-0.15-0.217-0.35-0.35L52.35,123c-0.199-0.333-0.433-0.566-0.699-0.7c-0.567-0.2-0.983-0.366-1.25-0.5
			c-0.434-0.233-0.75-0.533-0.95-0.899c-0.3-0.567-0.483-0.9-0.55-1c-0.4-0.601-0.717-1.017-0.95-1.25l-0.2-0.2
			c-0.233-0.167-0.4-0.283-0.5-0.351c-0.167-0.166-0.283-0.35-0.35-0.55c-0.233-0.566-0.25-0.983-0.051-1.25
			c-0.1,0-0.366-0.184-0.8-0.55l-0.25-0.35c-0.267-0.4-0.399-0.767-0.399-1.101c-0.034-0.333,0.1-0.717,0.399-1.149
			c0.4-0.7,0.617-1.084,0.65-1.15c0.033-0.033,0.416-0.55,1.149-1.55l0.101-0.15c0.333-0.633,0.566-1.25,0.7-1.85v-0.15
			c0.233-1.1,0.633-1.916,1.199-2.45c0.4-0.433,1.101-0.783,2.101-1.05l0.25-0.35c0.233-0.467,0.5-1.267,0.8-2.4
			c0.434-1.3,0.717-2.083,0.85-2.35c0.467-0.867,1.051-1.417,1.75-1.65c0.467-0.133,1,0.283,1.601,1.25
			c0.066,0.134,0.483,1,1.25,2.601l1.1,2.35c0.167,0.366,0.483,0.8,0.95,1.3C61.35,106.783,62.033,107.917,62.3,108.95z"/>
		
			<radialGradient id="SVGID_17_" cx="55.0498" cy="111.0996" r="14.65" gradientTransform="matrix(1 0 0 -1.9488 0 327.6111)" gradientUnits="userSpaceOnUse">
			<stop  offset="0.0118" style="stop-color:#51571C"/>
			<stop  offset="0.2706" style="stop-color:#4C531B"/>
			<stop  offset="0.5804" style="stop-color:#3E4818"/>
			<stop  offset="0.9137" style="stop-color:#263513"/>
			<stop  offset="1" style="stop-color:#1E2F11"/>
		</radialGradient>
		<path style="fill-rule:evenodd;clip-rule:evenodd;fill:url(#SVGID_17_);" d="M62.1,108.9c0.167,0.6,0.2,1.183,0.101,1.75
			c-0.033,0.199-0.184,0.716-0.45,1.55c-0.134,0.434-0.116,0.866,0.05,1.3c0.101,0.233,0.283,0.6,0.55,1.1
			c0.233,0.434,0.367,0.884,0.4,1.351c0.1,0.733-0.083,1.467-0.55,2.2c-0.3,0.466-0.783,1.149-1.45,2.05l-0.55,1
			c-0.7,1.366-1.417,2.217-2.15,2.55c-0.133,1.566-0.717,2.4-1.75,2.5c-0.733,0.066-1.333-0.333-1.8-1.2
			c-0.267-0.033-0.533-0.166-0.8-0.399s-0.45-0.467-0.55-0.7L53.1,123.6c0-0.166-0.017-0.283-0.05-0.35s-0.149-0.184-0.35-0.35
			c-0.134-0.101-0.25-0.25-0.351-0.45c-0.166-0.334-0.399-0.566-0.699-0.7c-0.601-0.233-1.034-0.4-1.301-0.5
			c-0.5-0.2-0.85-0.5-1.05-0.9c-0.3-0.5-0.483-0.8-0.55-0.899l-0.8-1.15l-0.2-0.2c-0.434-0.433-0.684-0.733-0.75-0.899
			c-0.167-0.5-0.184-0.884-0.05-1.15c-0.134,0-0.367-0.166-0.7-0.5l-0.3-0.35c-0.167-0.267-0.283-0.601-0.351-1
			c-0.033-0.334,0.067-0.7,0.301-1.101c0.3-0.433,0.517-0.783,0.649-1.05c0.101-0.166,0.467-0.684,1.101-1.55l0.1-0.15
			c0.4-0.733,0.65-1.333,0.75-1.8l0.05-0.149c0.233-1.067,0.634-1.867,1.2-2.4c0.366-0.333,1.066-0.684,2.1-1.05l0.25-0.3
			c0.233-0.367,0.5-1.167,0.801-2.4c0.399-1.3,0.666-2.083,0.8-2.35c0.434-0.9,1-1.45,1.7-1.65c0.466-0.134,0.949,0.25,1.449,1.15
			c0.167,0.267,0.551,1.033,1.15,2.3l1.05,2.45c0.101,0.199,0.417,0.633,0.95,1.3C61.1,106.616,61.8,107.767,62.1,108.9z"/>
		
			<radialGradient id="SVGID_18_" cx="54.9502" cy="111.0498" r="14.325" gradientTransform="matrix(1 0 0 -1.9485 0 327.4322)" gradientUnits="userSpaceOnUse">
			<stop  offset="0.0118" style="stop-color:#5A5E1E"/>
			<stop  offset="0.2471" style="stop-color:#555A1D"/>
			<stop  offset="0.5294" style="stop-color:#474F1A"/>
			<stop  offset="0.8314" style="stop-color:#2F3D15"/>
			<stop  offset="1" style="stop-color:#1E3011"/>
		</radialGradient>
		<path style="fill-rule:evenodd;clip-rule:evenodd;fill:url(#SVGID_18_);" d="M61.95,108.85c0.166,0.601,0.2,1.184,0.1,1.75
			c-0.066,0.301-0.25,0.817-0.55,1.551c-0.167,0.433-0.184,0.85-0.05,1.25c0.1,0.233,0.283,0.6,0.55,1.1
			c0.2,0.434,0.35,0.866,0.45,1.3c0.133,0.7-0.05,1.417-0.55,2.15c-0.267,0.434-0.717,1.083-1.351,1.95l-0.5,1
			c-0.333,0.699-0.6,1.183-0.8,1.449c-0.333,0.467-0.75,0.801-1.25,1c-0.066,1.534-0.634,2.384-1.7,2.551
			c-0.8,0.1-1.399-0.317-1.8-1.25c-0.3-0.034-0.583-0.167-0.85-0.4c-0.301-0.267-0.483-0.533-0.551-0.8l-0.05-0.3
			c0.033-0.167,0.033-0.284,0-0.351c0-0.1-0.116-0.233-0.35-0.399c-0.167-0.101-0.267-0.267-0.3-0.5
			c-0.167-0.367-0.4-0.617-0.7-0.75c-0.634-0.2-1.101-0.351-1.4-0.45c-0.533-0.2-0.916-0.5-1.149-0.9
			c-0.167-0.333-0.334-0.6-0.5-0.8l-0.9-1.25c-0.4-0.467-0.616-0.75-0.65-0.85c-0.133-0.434-0.149-0.784-0.05-1.051
			c-0.1,0-0.316-0.166-0.649-0.5l-0.25-0.3c-0.2-0.366-0.317-0.684-0.351-0.95c-0.033-0.3,0.05-0.633,0.25-1
			c0.267-0.433,0.45-0.767,0.55-1c0.467-0.633,0.834-1.133,1.101-1.5l0.1-0.199c0.533-1,0.816-1.567,0.851-1.7l0.05-0.2
			c0.233-1.066,0.616-1.85,1.149-2.35c0.301-0.267,1-0.601,2.101-1l0.3-0.301c0.167-0.267,0.434-1.05,0.8-2.35
			c0.367-1.333,0.617-2.134,0.75-2.4c0.4-0.899,0.95-1.433,1.65-1.6c0.434-0.1,0.883,0.217,1.35,0.95
			c0.233,0.333,0.584,1.017,1.05,2.05l1,2.5c0.134,0.333,0.45,0.783,0.95,1.35C60.9,106.517,61.616,107.684,61.95,108.85z"/>
		
			<radialGradient id="SVGID_19_" cx="54.9004" cy="111.0498" r="14" gradientTransform="matrix(1 0 0 -1.9491 0 327.4978)" gradientUnits="userSpaceOnUse">
			<stop  offset="0.0118" style="stop-color:#636520"/>
			<stop  offset="0.2314" style="stop-color:#5E611F"/>
			<stop  offset="0.4941" style="stop-color:#4F561C"/>
			<stop  offset="0.7725" style="stop-color:#384416"/>
			<stop  offset="1" style="stop-color:#1F3111"/>
		</radialGradient>
		<path style="fill-rule:evenodd;clip-rule:evenodd;fill:url(#SVGID_19_);" d="M61.75,108.8c0.167,0.634,0.2,1.217,0.1,1.75
			c-0.066,0.367-0.267,0.884-0.6,1.55c-0.2,0.434-0.233,0.851-0.1,1.25c0.033,0.067,0.216,0.417,0.55,1.051
			c0.2,0.366,0.35,0.767,0.45,1.199c0.133,0.733-0.034,1.45-0.5,2.15c-0.267,0.4-0.7,1.017-1.301,1.85l-0.449,1
			c-0.267,0.7-0.5,1.184-0.7,1.45c-0.3,0.434-0.733,0.717-1.3,0.851c0,1.6-0.534,2.483-1.601,2.649c-0.833,0.134-1.45-0.3-1.85-1.3
			c-0.3,0-0.584-0.134-0.851-0.4c-0.3-0.267-0.483-0.55-0.55-0.85v-0.35c0.033-0.167,0.05-0.284,0.05-0.351
			c-0.033-0.1-0.166-0.233-0.399-0.399c-0.101-0.101-0.2-0.284-0.3-0.551c-0.167-0.399-0.4-0.666-0.7-0.8
			c-0.667-0.166-1.15-0.3-1.45-0.399c-0.566-0.167-0.967-0.45-1.2-0.851c-0.166-0.333-0.333-0.583-0.5-0.75l-0.8-1.149
			c-0.3-0.467-0.467-0.733-0.5-0.801c-0.134-0.366-0.167-0.683-0.1-0.949c-0.034,0-0.217-0.167-0.551-0.5l-0.25-0.301
			c-0.133-0.233-0.233-0.517-0.3-0.85c-0.066-0.366,0.15-0.967,0.65-1.8c0.434-0.634,0.783-1.15,1.05-1.55l0.1-0.2
			c0.233-0.367,0.417-0.634,0.551-0.8c0.199-0.301,0.333-0.584,0.399-0.851l0.05-0.149c0.134-0.601,0.25-1.017,0.351-1.25
			c0.166-0.4,0.434-0.767,0.8-1.101c0.233-0.2,0.566-0.383,1-0.55c0.267-0.1,0.634-0.25,1.1-0.45L52.4,105
			c0.199-0.233,0.366-0.6,0.5-1.1c0.133-0.567,0.233-0.967,0.3-1.2c0.333-1.3,0.55-2.084,0.649-2.351c0.4-0.899,0.95-1.433,1.65-1.6
			c0.667-0.167,1.384,0.7,2.15,2.6c0.267,0.601,0.583,1.45,0.949,2.551c0.067,0.199,0.384,0.649,0.95,1.35
			C60.75,106.583,61.483,107.767,61.75,108.8z"/>
		
			<radialGradient id="SVGID_20_" cx="54.8496" cy="111" r="13.675" gradientTransform="matrix(1 0 0 -1.9488 0 327.3181)" gradientUnits="userSpaceOnUse">
			<stop  offset="0.0118" style="stop-color:#6C6C22"/>
			<stop  offset="0.2196" style="stop-color:#676821"/>
			<stop  offset="0.4627" style="stop-color:#595D1E"/>
			<stop  offset="0.7294" style="stop-color:#414B18"/>
			<stop  offset="1" style="stop-color:#203211"/>
		</radialGradient>
		<path style="fill-rule:evenodd;clip-rule:evenodd;fill:url(#SVGID_20_);" d="M61.55,108.75c0.167,0.667,0.2,1.25,0.101,1.75
			c-0.067,0.434-0.284,0.967-0.65,1.6c-0.233,0.4-0.283,0.801-0.15,1.2c0.034,0.066,0.2,0.4,0.5,1l0.5,1.15
			c0.167,0.733,0.017,1.434-0.449,2.1c-0.801,1.167-1.217,1.767-1.25,1.8l-0.4,0.95c-0.2,0.667-0.384,1.134-0.55,1.4
			c-0.334,0.434-0.783,0.7-1.351,0.8c0.067,1.566-0.449,2.467-1.55,2.7c-0.434,0.1-0.816,0-1.149-0.3
			c-0.334-0.301-0.567-0.667-0.7-1.101c-0.3,0.033-0.617-0.083-0.95-0.35c-0.267-0.267-0.434-0.566-0.5-0.9v-0.35
			c0.066-0.2,0.1-0.334,0.1-0.4c0-0.1-0.116-0.25-0.35-0.45c-0.134-0.1-0.25-0.283-0.35-0.55c-0.101-0.434-0.334-0.717-0.7-0.85
			c-0.667-0.167-1.184-0.283-1.55-0.351c-0.601-0.133-1.017-0.416-1.25-0.85c-0.2-0.333-0.351-0.55-0.45-0.65l-0.7-1.05
			c-0.2-0.3-0.333-0.55-0.4-0.75L47.2,115.4l-0.65-0.7l-0.3-0.75c-0.066-0.4,0.116-0.967,0.55-1.7l1.101-1.7
			c0.566-0.666,0.916-1.217,1.05-1.649l0.05-0.15c0.134-0.6,0.25-1.017,0.35-1.25c0.134-0.366,0.4-0.717,0.801-1.05
			c0.233-0.2,0.566-0.384,1-0.55c0.267-0.101,0.633-0.233,1.1-0.4l0.25-0.3c0.2-0.233,0.384-0.601,0.55-1.101
			c0.134-0.566,0.233-0.966,0.3-1.199c0.301-1.334,0.5-2.117,0.601-2.351c0.333-0.899,0.866-1.416,1.6-1.55
			c0.667-0.134,1.316,0.583,1.95,2.15c0.233,0.6,0.517,1.483,0.85,2.649c0.101,0.267,0.434,0.717,1,1.351
			C60.55,106.483,61.283,107.684,61.55,108.75z"/>
		
			<radialGradient id="SVGID_21_" cx="54.75" cy="111" r="13.35" gradientTransform="matrix(1 0 0 -1.9485 0 327.2837)" gradientUnits="userSpaceOnUse">
			<stop  offset="0.0118" style="stop-color:#757424"/>
			<stop  offset="0.2039" style="stop-color:#707023"/>
			<stop  offset="0.4353" style="stop-color:#616520"/>
			<stop  offset="0.6824" style="stop-color:#49521B"/>
			<stop  offset="0.9451" style="stop-color:#283814"/>
			<stop  offset="1" style="stop-color:#203212"/>
		</radialGradient>
		<path style="fill-rule:evenodd;clip-rule:evenodd;fill:url(#SVGID_21_);" d="M61.35,108.7c0.2,0.666,0.233,1.267,0.101,1.8
			c-0.066,0.4-0.3,0.917-0.7,1.55c-0.233,0.434-0.316,0.816-0.25,1.15c0.066,0.2,0.233,0.517,0.5,0.95
			c0.267,0.466,0.434,0.85,0.5,1.149c0.2,0.7,0.083,1.367-0.35,2c-0.767,1.134-1.167,1.717-1.2,1.75
			c-0.134,0.3-0.233,0.617-0.3,0.95c-0.2,0.667-0.384,1.116-0.551,1.35c-0.267,0.4-0.716,0.634-1.35,0.7
			c0.1,0.634,0.033,1.2-0.2,1.7c-0.267,0.6-0.684,0.967-1.25,1.1c-0.434,0.134-0.833,0.034-1.2-0.3
			c-0.333-0.3-0.566-0.684-0.699-1.149c-0.301,0.033-0.617-0.084-0.95-0.351c-0.267-0.3-0.434-0.616-0.5-0.95L53,121.7
			c0.066-0.2,0.1-0.334,0.1-0.4c0.034-0.1-0.083-0.25-0.35-0.45c-0.167-0.133-0.267-0.333-0.3-0.6c-0.101-0.467-0.334-0.767-0.7-0.9
			c-0.033,0-0.583-0.1-1.65-0.3c-0.633-0.133-1.083-0.416-1.35-0.85l-0.9-1.3l-0.1-0.2l-0.45-1.5l-0.35-0.5l-0.2-0.2l-0.3-0.65
			c-0.066-0.399,0.066-0.916,0.399-1.55l1.101-1.7c0.1-0.199,0.3-0.466,0.6-0.8c0.267-0.3,0.45-0.566,0.55-0.8v-0.15
			c0.167-0.633,0.284-1.033,0.351-1.199c0.166-0.367,0.45-0.717,0.85-1.051c0.233-0.199,0.566-0.383,1-0.55
			c0.566-0.2,0.917-0.333,1.05-0.399l0.301-0.25c0.199-0.233,0.383-0.601,0.55-1.101c0.133-0.566,0.233-0.967,0.3-1.2
			c0.167-1.033,0.35-1.8,0.55-2.3c0.3-0.934,0.816-1.467,1.55-1.6c0.7-0.066,1.267,0.517,1.7,1.75
			c0.233,0.633,0.517,1.533,0.851,2.7c0.066,0.3,0.383,0.767,0.949,1.399C60.333,106.35,61.083,107.566,61.35,108.7z"/>
		
			<radialGradient id="SVGID_22_" cx="54.7002" cy="111" r="13.0375" gradientTransform="matrix(1 0 0 -1.9492 0 327.3596)" gradientUnits="userSpaceOnUse">
			<stop  offset="0.0118" style="stop-color:#7E7B26"/>
			<stop  offset="0.1961" style="stop-color:#797725"/>
			<stop  offset="0.4118" style="stop-color:#6A6C22"/>
			<stop  offset="0.651" style="stop-color:#52591D"/>
			<stop  offset="0.898" style="stop-color:#314015"/>
			<stop  offset="1" style="stop-color:#213312"/>
		</radialGradient>
		<path style="fill-rule:evenodd;clip-rule:evenodd;fill:url(#SVGID_22_);" d="M61.2,108.65c0.166,0.699,0.2,1.3,0.1,1.8
			c-0.1,0.434-0.366,0.95-0.8,1.55c-0.366,0.533-0.417,1.05-0.15,1.55c0.167,0.3,0.45,0.834,0.851,1.601
			c0.233,0.699,0.133,1.35-0.3,1.949c-0.733,0.967-1.117,1.517-1.15,1.65c-0.167,0.434-0.333,1.066-0.5,1.9
			c-0.233,0.633-0.75,0.966-1.55,1c0.1,0.633,0.033,1.216-0.2,1.75c-0.233,0.6-0.634,0.983-1.2,1.149
			c-0.434,0.134-0.85,0.017-1.25-0.35c-0.333-0.3-0.55-0.7-0.649-1.2c-0.334,0.066-0.667-0.05-1-0.35
			c-0.301-0.301-0.467-0.634-0.5-1c0-0.2,0.083-0.45,0.25-0.75c0.066-0.134-0.067-0.334-0.4-0.601c-0.1-0.066-0.2-0.267-0.3-0.6
			c-0.101-0.467-0.334-0.783-0.7-0.95c-0.066-0.033-0.634-0.116-1.7-0.25c-0.666-0.1-1.149-0.384-1.45-0.85
			c-0.466-0.534-0.75-0.967-0.85-1.301c-0.1-0.466-0.167-0.783-0.2-0.949c-0.066-0.301-0.217-0.601-0.45-0.9
			c-0.566-0.733-0.616-1.434-0.149-2.1l1.05-1.75c0.1-0.2,0.333-0.467,0.7-0.801c0.3-0.3,0.483-0.583,0.55-0.85
			c0.167-0.7,0.283-1.116,0.35-1.25c0.134-0.333,0.417-0.667,0.851-1c0.2-0.167,0.6-0.35,1.2-0.55c0.566-0.2,0.949-0.417,1.149-0.65
			c0.367-0.333,0.634-1.066,0.8-2.2c0.167-1.033,0.334-1.816,0.5-2.35c0.334-0.934,0.867-1.45,1.601-1.55
			c0.566-0.066,1.05,0.366,1.45,1.3l0.75,2.8c0.133,0.4,0.466,0.867,1,1.4C60.134,106.217,60.9,107.45,61.2,108.65z"/>
	</g>
	<path style="fill-rule:evenodd;clip-rule:evenodd;fill:#1F330F;" d="M27.8,43.65c0,0.9-0.333,1.667-1,2.3
		c-0.7,0.633-1.55,0.95-2.55,0.95c-0.967,0-1.8-0.316-2.5-0.95s-1.05-1.4-1.05-2.3s0.35-1.667,1.05-2.3s1.533-0.95,2.5-0.95
		c1,0,1.85,0.317,2.55,0.95C27.467,41.983,27.8,42.75,27.8,43.65z"/>
	<path style="fill-rule:evenodd;clip-rule:evenodd;fill:#1F330F;" d="M32.1,82.5c0,0.366-0.116,0.684-0.35,0.95
		c-0.267,0.267-0.583,0.399-0.95,0.399s-0.667-0.133-0.9-0.399c-0.267-0.267-0.4-0.584-0.4-0.95s0.133-0.7,0.4-1
		c0.267-0.267,0.567-0.4,0.9-0.4c0.367,0,0.684,0.134,0.95,0.4C31.983,81.8,32.1,82.134,32.1,82.5z"/>
	<path style="fill-rule:evenodd;clip-rule:evenodd;fill:#1F330F;" d="M54.45,117.15c0,0.366-0.134,0.683-0.4,0.949
		s-0.583,0.4-0.95,0.4c-0.366,0-0.666-0.134-0.899-0.4c-0.267-0.267-0.4-0.583-0.4-0.949c0-0.367,0.134-0.7,0.4-1
		c0.267-0.267,0.566-0.4,0.899-0.4c0.367,0,0.684,0.134,0.95,0.4C54.316,116.45,54.45,116.783,54.45,117.15z"/>
	<path style="fill-rule:evenodd;clip-rule:evenodd;fill:#1F330F;" d="M25.55,38.4c0,0.3-0.1,0.55-0.3,0.75
		c-0.233,0.2-0.5,0.3-0.8,0.3c-0.3,0-0.55-0.1-0.75-0.3c-0.233-0.2-0.35-0.45-0.35-0.75c0-0.267,0.117-0.5,0.35-0.7
		c0.2-0.2,0.45-0.3,0.75-0.3c0.3,0,0.566,0.1,0.8,0.3C25.45,37.9,25.55,38.133,25.55,38.4z"/>
	<path style="fill-rule:evenodd;clip-rule:evenodd;fill:#1F330F;" d="M48.5,67.5c0,0.6-0.233,1.116-0.7,1.55s-1.033,0.65-1.7,0.65
		c-0.666,0-1.233-0.217-1.699-0.65c-0.467-0.434-0.7-0.95-0.7-1.55c0-0.633,0.233-1.167,0.7-1.6c0.466-0.433,1.033-0.65,1.699-0.65
		c0.667,0,1.233,0.217,1.7,0.65C48.267,66.333,48.5,66.867,48.5,67.5z"/>
	<path style="fill-rule:evenodd;clip-rule:evenodd;fill:#1F330F;" d="M61.15,110.15c0,0.6-0.233,1.116-0.7,1.55
		c-0.5,0.434-1.084,0.649-1.75,0.649c-0.667,0-1.233-0.216-1.7-0.649s-0.7-0.95-0.7-1.55c0-0.634,0.233-1.15,0.7-1.551
		c0.467-0.433,1.033-0.649,1.7-0.649c0.666,0,1.25,0.217,1.75,0.649C60.917,109,61.15,109.517,61.15,110.15z"/>
	<path style="fill-rule:evenodd;clip-rule:evenodd;fill:#1F330F;" d="M50.5,62.75c0,0.233-0.083,0.417-0.25,0.55
		c-0.167,0.167-0.384,0.25-0.65,0.25c-0.233,0-0.433-0.083-0.6-0.25c-0.167-0.133-0.25-0.316-0.25-0.55s0.083-0.417,0.25-0.55
		c0.167-0.167,0.366-0.25,0.6-0.25c0.267,0,0.483,0.083,0.65,0.25C50.417,62.333,50.5,62.517,50.5,62.75z"/>
	<path style="fill-rule:evenodd;clip-rule:evenodd;fill:#1F330F;" d="M56.5,106.5c0,0.233-0.083,0.417-0.25,0.55
		c-0.167,0.167-0.366,0.25-0.6,0.25s-0.45-0.083-0.65-0.25c-0.167-0.133-0.25-0.316-0.25-0.55s0.083-0.417,0.25-0.55
		c0.2-0.167,0.417-0.25,0.65-0.25s0.433,0.083,0.6,0.25C56.417,106.083,56.5,106.267,56.5,106.5z"/>
	<path style="fill-rule:evenodd;clip-rule:evenodd;fill:#1F330F;" d="M16.65,74.4c0,0.533-0.283,0.8-0.85,0.8
		c-0.6,0-0.9-0.267-0.9-0.8c0-0.2,0.083-0.384,0.25-0.551c0.2-0.166,0.417-0.25,0.65-0.25c0.233,0,0.434,0.084,0.6,0.25
		C16.567,74.017,16.65,74.2,16.65,74.4z"/>
	<path style="fill-rule:evenodd;clip-rule:evenodd;fill:#1A2B0F;" d="M28.2,99.7l1.15,2.45v9.649c-0.1,2.3,0.05,6.5,0.45,12.601
		c-0.4-3.801-0.7-7.067-0.9-9.801c-0.167-1.966-0.25-4.883-0.25-8.75c0-1.3-0.066-2.716-0.2-4.25L28.2,99.7z"/>
	<path style="fill-rule:evenodd;clip-rule:evenodd;fill:#1A2B0F;" d="M30.9,103.95l0.55,1.35l-0.65,9.4
		c-0.1-1.267-0.15-2.767-0.15-4.5L30.9,103.95z"/>
	<polygon style="fill-rule:evenodd;clip-rule:evenodd;fill:#1A2B0F;" points="47.45,95.95 48,95 47.35,101.6 	"/>
	<path style="fill-rule:evenodd;clip-rule:evenodd;fill:#1A2B0F;" d="M24.65,33.5c0.2-1,0.333-2.2,0.4-3.6
		c0.1-2.8-0.183-5.167-0.85-7.1l0.85,2.05c0.567,2.066,0.85,4.917,0.85,8.55L24.65,33.5z"/>
	<path style="fill-rule:evenodd;clip-rule:evenodd;fill:#1A2B0F;" d="M40.6,19.15c0.301-1.8,0.483-3.95,0.551-6.45
		c0.199-5-0.217-9.233-1.25-12.7c0.433,0.567,0.866,1.783,1.3,3.65c0.866,3.733,1.3,8.833,1.3,15.3L40.6,19.15z"/>
	<path style="fill-rule:evenodd;clip-rule:evenodd;fill:#1A2B0F;" d="M42.4,19.1c-0.101-0.733-0.101-1.55,0-2.45
		c0.166-1.833,0.767-3.217,1.8-4.15l-0.851,1.8c-0.399,1.633-0.199,3.5,0.601,5.6L42.4,19.1z"/>
	<path style="fill-rule:evenodd;clip-rule:evenodd;fill:#1A2B0F;" d="M11.2,44.95c-0.233-0.2-0.483-0.217-0.75-0.05
		c-0.133,0.1-0.25,0.2-0.35,0.3c0.933-1.133,1.75-0.667,2.45,1.4c0.367,1.033,0.633,2.183,0.8,3.45l-1,1.2
		C12.317,47.583,11.933,45.483,11.2,44.95z"/>
</g>
</svg>
