<?xml version="1.0" encoding="iso-8859-1"?>
<!-- Generator: Adobe Illustrator 15.1.0, SVG Export Plug-In . SVG Version: 6.00 Build 0)  -->
<!DOCTYPE svg PUBLIC "-//W3C//DTD SVG 1.1//EN" "http://www.w3.org/Graphics/SVG/1.1/DTD/svg11.dtd">
<svg version="1.1" id="Layer_4" xmlns="http://www.w3.org/2000/svg" xmlns:xlink="http://www.w3.org/1999/xlink" x="0px" y="0px"
	 width="69.05px" height="150.5px" viewBox="0 0 69.05 150.5" style="enable-background:new 0 0 69.05 150.5;" xml:space="preserve"
	>
<symbol  id="flash2.ai_x2F_Layer_4_x2F__x3C_Path_x3E__x5F_11" viewBox="-0.018 -138.05 69.068 138.05">
	<g id="Layer_1_2_">
		<path style="fill-rule:evenodd;clip-rule:evenodd;fill:#332E17;" d="M41-13.6c1.133-0.267,1.95-0.583,2.45-0.95
			c1.433-1,2.4-1.733,2.9-2.2c1-0.967,1.633-1.983,1.9-3.05c0.067-0.333,0.117-0.784,0.15-1.35c0.067-0.533,0.217-0.967,0.45-1.3
			c0.3-0.4,0.85-0.9,1.65-1.5c0.833-0.6,1.4-1.1,1.7-1.5c0.633-0.867,1.033-2.233,1.2-4.1c0.167-1.867,0.55-3.2,1.15-4
			c0.333-0.434,0.767-1.017,1.3-1.75c0.433-0.667,0.7-1.35,0.8-2.05c0.067-0.433,0.117-1.05,0.15-1.85c0.067-0.7,0.233-1.3,0.5-1.8
			c0.2-0.333,0.684-0.95,1.45-1.85c0.6-0.7,1.017-1.35,1.25-1.95c0.167-0.467,0.383-1.217,0.65-2.25c0.267-1,0.5-1.767,0.7-2.3
			c0.5-1.3,0.983-2.917,1.45-4.85c0.267-1.1,0.65-2.75,1.15-4.95c0.3-1.167,0.45-1.917,0.45-2.25c0-0.667-0.267-1.35-0.8-2.05
			c1.267-1.1,2.05-1.816,2.35-2.15c0.8-1,0.966-1.933,0.5-2.8c1.4-0.3,2.233-1.883,2.5-4.75c0.2-2.167,0.1-4.117-0.3-5.85
			c-0.133-0.5-0.55-1.4-1.25-2.7c-0.633-1.133-0.967-1.966-1-2.5c0-0.4,0.133-1.15,0.4-2.25c0.233-0.933,0.25-1.733,0.05-2.4
			c-0.367-1.267-0.617-3.017-0.75-5.25c-0.133-2.6-0.283-4.367-0.45-5.3c-0.133-0.7-0.35-1.333-0.65-1.9
			c-0.067-0.133-0.4-0.667-1-1.6c-0.3-0.5-0.567-1.133-0.8-1.9c-0.133-0.434-0.333-1.083-0.6-1.95c-0.067-0.2-0.283-0.6-0.65-1.2
			c-0.333-0.5-0.517-0.917-0.55-1.25c-0.033-0.466-0.017-1.066,0.05-1.8c0.1-1.167,0.15-1.8,0.15-1.9
			c-0.033-0.733-0.184-1.434-0.45-2.1c-0.433-0.933-1.15-1.883-2.15-2.85c-1.533-1.467-2.4-2.316-2.6-2.55c-0.9-1.067-1.9-1.8-3-2.2
			c0.1-1.7-0.683-3.167-2.35-4.4c-0.933-0.7-2.433-1.617-4.5-2.75c-0.933-0.667-1.933-1.583-3-2.75c-1.8-1.967-2.716-2.967-2.75-3
			c-0.267,0.433-0.4,0.817-0.4,1.15c-0.867-0.967-1.883-0.816-3.05,0.45c-1.167,1.2-1.583,2.25-1.25,3.15
			c-0.333-0.833-0.567-2.033-0.7-3.6c-0.133-1.8-0.3-3.033-0.5-3.7c-0.233,1.2-0.55,3.95-0.95,8.25c0,0.1,0.017,0.75,0.05,1.95
			c0,0.9-0.083,1.533-0.25,1.9c-0.1,0.2-0.317,0.417-0.65,0.65c-0.333,0.233-0.55,0.417-0.65,0.55l-0.75,1.7
			c-0.2,0.233-0.633,0.633-1.3,1.2c-0.566,0.467-0.967,0.9-1.2,1.3c-0.1,0.167-0.3,0.65-0.6,1.45c-0.133,0.4-0.483,0.783-1.05,1.15
			c-0.267,0.167-0.816,0.4-1.65,0.7c-0.7,0.267-1.233,0.567-1.6,0.9c-0.533,0.434-0.883,0.95-1.05,1.55
			c-0.133,0.733-0.283,1.333-0.45,1.8c-0.2,0.467-0.533,1-1,1.6c-0.533,0.667-0.883,1.15-1.05,1.45c-0.467,1.5-0.833,2.667-1.1,3.5
			c-0.467,1.534-1.133,2.467-2,2.8c-1.8,0.633-3.083,1.2-3.85,1.7c-1.2,0.767-2.083,1.817-2.65,3.15c-0.4,0.966-0.6,2.033-0.6,3.2
			c0,1.4,0.367,2.367,1.1,2.9C9.083-92.1,7-90.617,5.4-88.25C3.933-86.117,3.133-83.667,3-80.9c-0.033,0.833,0.05,1.833,0.25,3
			c0.333,1.7,0.517,2.667,0.55,2.9c0.067,0.533,0.034,0.983-0.1,1.35c-0.233,0.467-0.434,0.9-0.6,1.3c-0.3,0.833-0.2,1.983,0.3,3.45
			c0.467,1.467,0.533,2.533,0.2,3.2c-0.2,0.367-0.617,0.867-1.25,1.5c-0.667,0.633-1.1,1.133-1.3,1.5
			c-1.033,1.767-1.316,3.833-0.85,6.2c0.733,3.533,2.683,6.933,5.85,10.2c0.8,0.833,1.317,1.417,1.55,1.75
			c0.433,0.6,0.783,1.3,1.05,2.1c0.434,1.3,0.767,2.25,1,2.85c0.4,1.067,0.883,1.934,1.45,2.6c0.867,0.933,1.783,1.567,2.75,1.9
			c0.7,0.233,1.767,0.383,3.2,0.45c0.133,0.867,0.617,1.7,1.45,2.5c0.867,0.867,1.383,1.617,1.55,2.25
			c0.1,0.333,0.184,1.066,0.25,2.2c0.067,1.2,0.267,2.1,0.6,2.7c0.333,0.667,0.883,1.317,1.65,1.95c0.434,0.333,1.1,0.85,2,1.55
			c0.5,0.433,0.85,0.917,1.05,1.45c0.1,0.233,0.267,0.816,0.5,1.75c0.367,1.4,1.417,3.233,3.15,5.5c1.767,2.3,2.833,4.15,3.2,5.55
			c0.2,0.733,0.45,1.933,0.75,3.6c0.266,1.629,0.516,2.846,0.75,3.65c-0.064-0.241,0.086-0.875,0.45-1.9
			c0.434-1.167,0.667-1.833,0.7-2c0.133-0.567,0.316-1.4,0.55-2.5c0.2-0.967,0.417-1.767,0.65-2.4c0.7-1.934,1.467-3.217,2.3-3.85
			C39.1-13.017,39.9-13.333,41-13.6z"/>
	</g>
</symbol>
<g>
	
		<use xlink:href="#flash2.ai_x2F_Layer_4_x2F__x3C_Path_x3E__x5F_11"  width="69.068" height="138.05" x="-0.018" y="-138.05" transform="matrix(1 0 0 -1 0 0)" style="overflow:visible;opacity:0.2617;enable-background:new    ;"/>
	<g>
		<path style="fill-rule:evenodd;clip-rule:evenodd;fill:#1A2B0F;" d="M40.9,15.65c1.033,0.267,1.85,0.617,2.449,1.05
			c1.4,0.966,2.334,1.667,2.801,2.1c0.966,0.9,1.566,1.867,1.8,2.9c0.033,0.133,0.1,0.583,0.2,1.35
			c0.066,0.5,0.199,0.917,0.399,1.25c0.267,0.367,0.8,0.833,1.601,1.4c0.767,0.566,1.3,1.05,1.6,1.45
			c0.634,0.833,1.017,2.15,1.15,3.95c0.166,1.8,0.533,3.083,1.1,3.85c0.8,1.033,1.217,1.6,1.25,1.7c0.4,0.6,0.65,1.25,0.75,1.95
			c0.066,0.433,0.116,1.033,0.15,1.8c0.066,0.667,0.233,1.233,0.5,1.7c0.199,0.3,0.666,0.883,1.399,1.75
			c0.566,0.667,0.967,1.283,1.2,1.85c0.2,0.5,0.417,1.233,0.65,2.2c0.233,1,0.433,1.733,0.6,2.2c0.5,1.3,0.967,2.85,1.4,4.65
			c0.267,1.033,0.633,2.617,1.1,4.75c0.3,1.133,0.45,1.85,0.45,2.15c0,0.633-0.25,1.283-0.75,1.95c1.3,1.167,2.05,1.867,2.25,2.1
			c0.767,0.933,0.934,1.816,0.5,2.65c1.333,0.333,2.116,1.867,2.35,4.6c0.2,2.133,0.101,4-0.3,5.6c-0.1,0.467-0.5,1.334-1.2,2.601
			c-0.566,1.1-0.866,1.916-0.899,2.449c0,0.367,0.116,1.084,0.35,2.15C65.983,86.616,66,87.366,65.8,88
			c-0.366,1.233-0.6,2.917-0.7,5.05c-0.133,2.533-0.283,4.233-0.449,5.101c-0.134,0.666-0.334,1.267-0.601,1.8
			c-0.033,0.066-0.35,0.6-0.95,1.6c-0.3,0.467-0.566,1.066-0.8,1.8c-0.133,0.4-0.333,1.034-0.6,1.9
			c-0.066,0.2-0.267,0.583-0.601,1.15c-0.3,0.466-0.466,0.85-0.5,1.149c-0.033,0.634-0.033,1.217,0,1.75
			c0.101,0.9,0.15,1.517,0.15,1.851c0,0.666-0.15,1.316-0.45,1.949c-0.399,0.934-1.066,1.867-2,2.801
			c-1.6,1.533-2.434,2.333-2.5,2.399c-0.833,0.967-1.8,1.667-2.899,2.101c0.1,1.633-0.684,3.083-2.351,4.35
			c-0.934,0.7-2.416,1.583-4.45,2.65c-0.533,0.399-1.517,1.383-2.949,2.949c-1.367,1.334-2.534,1.884-3.5,1.65
			c-0.667-0.167-1.584-1.467-2.75-3.9c-0.233-0.5-0.667-1.216-1.301-2.149c-0.6-0.934-1.033-1.667-1.3-2.2
			c-0.033-0.1-0.383-1.05-1.05-2.85c-0.367-1.067-0.883-1.9-1.55-2.5c-0.333-0.334-0.983-0.7-1.95-1.101
			c-0.867-0.366-1.483-0.767-1.85-1.2c-0.566-0.666-0.917-1.55-1.05-2.649c0-0.134,0.083-0.55,0.25-1.25
			c0.133-0.566,0.167-0.934,0.1-1.101c-0.2-0.333-0.934-0.666-2.2-1c-1.3-0.333-2.117-0.733-2.45-1.199
			c-0.267-0.367-0.583-0.917-0.95-1.65c-0.434-0.9-0.733-1.483-0.9-1.75c-0.167-0.267-0.417-0.934-0.75-2
			c-0.167-0.566-0.617-0.983-1.35-1.25c-1.733-0.667-2.95-1.217-3.65-1.65c-1.167-0.767-2.017-1.783-2.55-3.05
			c-0.367-0.899-0.55-1.916-0.55-3.05c0-1.333,0.35-2.267,1.05-2.8c-2.467-0.566-4.467-1.983-6-4.25
			c-1.433-2.101-2.2-4.467-2.3-7.101c-0.033-0.8,0.05-1.733,0.25-2.8c0.333-1.733,0.5-2.667,0.5-2.8c0.066-0.5,0.033-0.95-0.1-1.35
			c-0.233-0.433-0.417-0.833-0.55-1.2c-0.3-0.8-0.217-1.917,0.25-3.35c0.466-1.367,0.533-2.383,0.2-3.05
			C4.983,65.4,4.6,64.917,4,64.35c-0.633-0.6-1.05-1.067-1.25-1.4c-0.967-1.667-1.25-3.667-0.85-6c0.7-3.367,2.567-6.633,5.6-9.8
			c0.733-0.733,1.233-1.3,1.5-1.7c0.4-0.567,0.733-1.233,1-2c0.4-1.233,0.717-2.15,0.95-2.75c0.367-1.034,0.833-1.85,1.4-2.45
			c0.8-0.933,1.667-1.55,2.6-1.85c0.7-0.233,1.733-0.367,3.1-0.4c0.133-0.833,0.6-1.633,1.4-2.4c0.833-0.833,1.333-1.55,1.5-2.15
			c0.133-0.667,0.2-1.383,0.2-2.15c0.067-1.066,0.267-1.933,0.6-2.6c0.333-0.633,0.867-1.233,1.6-1.8c0.4-0.333,1.033-0.85,1.9-1.55
			c0.467-0.434,0.8-0.9,1-1.4c0.1-0.233,0.25-0.784,0.45-1.65c0.5-2,1.483-3.633,2.95-4.9c1.967-1.633,3.85-2.333,5.65-2.1
			c0.533,0.067,1.084,0.284,1.65,0.65c0.934,0.6,1.416,0.9,1.45,0.9C38.866,15.083,39.7,15.35,40.9,15.65z"/>
		
			<radialGradient id="SVGID_1_" cx="38.0498" cy="67.4502" r="60.4125" gradientTransform="matrix(1 0 0 -1.9489 0 198.9034)" gradientUnits="userSpaceOnUse">
			<stop  offset="0" style="stop-color:#233211"/>
			<stop  offset="0.7608" style="stop-color:#1E2E10"/>
			<stop  offset="1" style="stop-color:#1B2C0F"/>
		</radialGradient>
		<path style="fill-rule:evenodd;clip-rule:evenodd;fill:url(#SVGID_1_);" d="M41.75,16.5c0.667,0.267,1.217,0.567,1.65,0.9
			c1.066,0.8,1.783,1.367,2.149,1.7c0.733,0.7,1.25,1.4,1.55,2.1c0.267,0.433,0.467,0.85,0.601,1.25c0.066,0.2,0.149,0.55,0.25,1.05
			c0.066,0.433,0.166,0.767,0.3,1l0.2,0.35c0.267,0.367,0.8,0.833,1.6,1.4c0.767,0.567,1.283,1.05,1.55,1.45
			c0.367,0.533,0.634,1.15,0.801,1.85c0.1,0.333,0.199,0.95,0.3,1.85c0.133,1.4,0.434,2.567,0.899,3.5l0.301,0.5
			c0.666,0.867,1.066,1.417,1.199,1.65c0.367,0.633,0.617,1.284,0.75,1.95l0.101,0.45c0.066,0.367,0.133,0.867,0.2,1.5
			c0.066,0.533,0.233,1.017,0.5,1.45c0.199,0.333,0.55,0.783,1.05,1.35c0.467,0.6,0.8,1.05,1,1.35l0.45,0.9
			c0.166,0.467,0.366,1.2,0.6,2.2c0.233,0.966,0.434,1.683,0.6,2.15l0.45,1.3c0.267,0.833,0.851,3.217,1.75,7.15l0.2,0.9
			c0.3,1.133,0.467,1.833,0.5,2.1c0.033,0.6-0.167,1.233-0.6,1.9c1.166,1.1,1.866,1.8,2.1,2.1c0.733,0.934,0.917,1.817,0.55,2.65
			c1.3,0.433,2.066,1.983,2.3,4.65c0.2,2.1,0.101,3.933-0.3,5.5l-0.35,0.95c-0.2,0.467-0.566,1.167-1.101,2.101
			c-0.433,0.8-0.666,1.449-0.699,1.949V84.2c0.066,0.434,0.199,1.05,0.399,1.85c0.167,0.733,0.167,1.4,0,2
			c-0.3,1.101-0.55,3.033-0.75,5.8c-0.133,1.7-0.333,3.084-0.6,4.15c-0.167,0.634-0.417,1.217-0.75,1.75
			c-0.033,0.066-0.351,0.533-0.95,1.4c-0.267,0.466-0.5,1.066-0.7,1.8c-0.1,0.434-0.25,1.083-0.45,1.95
			c-0.066,0.233-0.267,0.616-0.6,1.149c-0.3,0.5-0.483,0.867-0.55,1.101l-0.101,0.8l0.101,0.85c0.066,0.967,0.1,1.584,0.1,1.851
			c0,0.699-0.149,1.35-0.45,1.949c-0.433,0.934-1.116,1.851-2.05,2.75c-0.566,0.5-1.416,1.25-2.55,2.25
			c-0.7,0.9-1.566,1.601-2.6,2.101c0.1,1.566-0.617,2.967-2.15,4.2c-0.866,0.666-2.25,1.55-4.15,2.649
			c-0.533,0.4-1.483,1.334-2.85,2.8c-1.3,1.233-2.417,1.767-3.35,1.601c-0.834-0.134-1.834-1.384-3-3.75l-1.15-2
			c-0.866-1.101-1.417-1.884-1.65-2.351c-0.366-0.666-0.716-1.566-1.05-2.699c-0.2-0.7-0.367-1.2-0.5-1.5
			c-0.2-0.5-0.517-0.95-0.95-1.351l-0.7-0.5L29.5,115.9c-0.533-0.334-0.983-0.7-1.35-1.101c-0.367-0.5-0.633-0.934-0.8-1.3
			c-0.133-0.3-0.267-0.717-0.4-1.25c-0.034-0.134-0.017-0.517,0.05-1.15c0.067-0.533,0.05-0.866-0.05-1c-0.233-0.3-1-0.633-2.3-1
			c-1.267-0.333-2.083-0.767-2.45-1.3c-0.267-0.366-0.583-0.899-0.95-1.6c-0.433-0.9-0.733-1.467-0.9-1.7
			c-0.233-0.333-0.467-0.95-0.7-1.85c-0.167-0.534-0.55-0.95-1.15-1.25l-0.15-0.051c-1.367-0.6-2.35-1.1-2.95-1.5
			c-0.967-0.633-1.75-1.399-2.35-2.3l-0.5-0.95c-0.4-0.866-0.633-1.816-0.7-2.85c-0.1-1.233,0.15-2.1,0.75-2.6l-0.8-0.2
			c-2.433-0.867-4.283-2.566-5.55-5.101c-0.9-1.733-1.383-3.666-1.45-5.8c-0.033-0.533,0-1.1,0.1-1.7c0.3-1.666,0.5-2.933,0.6-3.8
			c0.067-0.466,0.033-0.883-0.1-1.25c-0.233-0.466-0.417-0.883-0.55-1.25C4.583,71.317,4.633,70.333,5,69.1
			c0.433-1.333,0.6-2.25,0.5-2.75L5.3,65.7c-0.167-0.333-0.55-0.817-1.15-1.45C3.583,63.65,3.2,63.167,3,62.8
			c-0.967-1.7-1.25-3.683-0.85-5.95c0.333-1.667,1-3.333,2-5c0.8-1.434,2-3,3.6-4.7c1.2-1.267,1.983-2.35,2.35-3.25l0.15-0.45
			c0.4-1.233,0.717-2.133,0.95-2.7c0.4-1,0.883-1.817,1.45-2.45c0.767-0.9,1.667-1.5,2.7-1.8c0.333-0.1,1.316-0.25,2.95-0.45
			c0.133-0.633,0.417-1.2,0.85-1.7c0.567-0.533,0.983-0.934,1.25-1.2c0.5-0.4,0.817-0.867,0.95-1.4c0.1-0.4,0.15-0.8,0.15-1.2
			l0.05-0.9c0-1.133,0.133-2,0.4-2.6c0.3-0.667,0.8-1.316,1.5-1.95c0.4-0.333,1.017-0.85,1.85-1.55c0.567-0.533,1.017-1.3,1.35-2.3
			l0.2-0.8c0.6-2.1,1.583-3.733,2.95-4.9l1-0.7c1.667-1.067,3.25-1.483,4.75-1.25c0.3,0.066,0.684,0.2,1.15,0.4
			c0.467,0.233,1.1,0.65,1.899,1.25c0.367,0.233,0.834,0.45,1.4,0.65C40.4,16.067,40.983,16.267,41.75,16.5z"/>
		
			<radialGradient id="SVGID_2_" cx="38.0498" cy="67.1499" r="59.775" gradientTransform="matrix(1 0 0 -1.9488 0 198.0094)" gradientUnits="userSpaceOnUse">
			<stop  offset="0" style="stop-color:#2C3A13"/>
			<stop  offset="0.4941" style="stop-color:#273612"/>
			<stop  offset="1" style="stop-color:#1B2C10"/>
		</radialGradient>
		<path style="fill-rule:evenodd;clip-rule:evenodd;fill:url(#SVGID_2_);" d="M41.85,17.15c0.667,0.267,1.217,0.583,1.65,0.95
			c1.8,1.467,2.9,2.767,3.3,3.9l0.65,1.2c0.033,0.1,0.133,0.433,0.3,1c0.1,0.367,0.217,0.667,0.35,0.9l0.25,0.35
			c0.267,0.3,0.784,0.75,1.551,1.35c0.733,0.567,1.25,1.067,1.55,1.5c0.366,0.5,0.616,1.1,0.75,1.8c0.1,0.433,0.2,1.05,0.3,1.85
			c0.167,1.333,0.5,2.45,1,3.35l0.3,0.5c0.634,0.934,1.017,1.517,1.15,1.75c0.333,0.6,0.583,1.217,0.75,1.85l0.1,0.45
			c0.066,0.333,0.167,0.816,0.3,1.45c0.101,0.534,0.284,1,0.551,1.4c0.199,0.333,0.533,0.783,1,1.35c0.466,0.567,0.8,1.034,1,1.4
			l0.399,0.85c0.167,0.5,0.351,1.217,0.55,2.15c0.233,1,0.417,1.716,0.551,2.15l0.449,1.3c0.467,1.567,1.034,3.917,1.7,7.05l0.2,0.9
			c0.333,1.333,0.5,2.017,0.5,2.05c0.066,0.633-0.066,1.267-0.4,1.9c1.067,1.034,1.733,1.733,2,2.1c0.667,0.934,0.851,1.8,0.551,2.6
			c1.267,0.533,2.017,2.083,2.25,4.65c0.199,2.1,0.083,3.95-0.351,5.55c-0.033,0.133-0.149,0.45-0.35,0.95
			c-0.033,0.033-0.4,0.716-1.101,2.05c-0.433,0.8-0.666,1.45-0.699,1.95l0.05,0.55c0,0.1,0.116,0.717,0.35,1.85
			c0.134,0.767,0.134,1.434,0,2c-0.166,0.767-0.416,2.7-0.75,5.8c-0.1,1.301-0.383,2.634-0.85,4c-0.2,0.634-0.467,1.217-0.8,1.75
			c-0.067,0.067-0.4,0.467-1,1.2c-0.367,0.7-0.684,1.934-0.95,3.7c-0.066,0.3-0.25,0.7-0.55,1.2c-0.301,0.5-0.483,0.85-0.551,1.05
			l-0.149,0.7l0.05,0.85c0.2,1.566,0.083,2.834-0.35,3.8c-0.434,0.934-1.134,1.834-2.101,2.7c-0.566,0.467-1.434,1.167-2.6,2.101
			c-0.7,0.933-1.483,1.616-2.351,2.05c0.101,1.467-0.55,2.816-1.949,4.05c-0.801,0.7-2.084,1.583-3.851,2.65
			c-0.5,0.399-1.399,1.283-2.7,2.649c-1.267,1.167-2.35,1.7-3.25,1.601c-0.966-0.101-2.033-1.317-3.199-3.65l-1.15-2.05
			c-0.733-0.667-1.333-1.4-1.8-2.2c-0.467-0.833-0.85-1.767-1.15-2.8c-0.2-0.967-0.333-1.5-0.4-1.601
			c-0.133-0.466-0.417-0.916-0.85-1.35l-2.35-1.55c-0.567-0.5-0.983-0.9-1.25-1.2c-0.333-0.366-0.633-0.8-0.9-1.3
			c-0.133-0.2-0.316-0.584-0.55-1.15c-0.067-0.133-0.1-0.483-0.1-1.05c0-0.5-0.066-0.816-0.2-0.95
			c-0.267-0.233-1.067-0.533-2.4-0.899c-1.267-0.367-2.1-0.834-2.5-1.4c-0.767-1.467-1.367-2.533-1.8-3.2
			c-0.2-0.3-0.45-0.899-0.75-1.8c-0.167-0.533-0.517-0.95-1.05-1.25l-0.15-0.05c-1.167-0.634-2.05-1.184-2.65-1.65
			c-0.867-0.633-1.583-1.383-2.15-2.25L12.7,95.65c-0.434-0.834-0.717-1.717-0.85-2.65c-0.133-1.1,0.033-1.884,0.5-2.35L11.6,90.4
			c-2.333-0.867-4.117-2.551-5.35-5.051c-0.8-1.666-1.233-3.55-1.3-5.649c0-0.533,0.05-1.084,0.15-1.65
			c0.367-2.333,0.55-3.55,0.55-3.65c0.033-0.433-0.017-0.85-0.15-1.25c-0.2-0.433-0.367-0.833-0.5-1.2
			c-0.267-0.733-0.217-1.7,0.15-2.9c0.434-1.333,0.6-2.25,0.5-2.75L5.4,65.65c-0.167-0.4-0.517-0.9-1.05-1.5
			c-0.567-0.633-0.934-1.117-1.1-1.45C2.283,60.9,2,58.917,2.4,56.75c0.3-1.633,0.95-3.3,1.95-5c0.767-1.233,2-2.767,3.7-4.6
			c1.167-1.2,1.917-2.283,2.25-3.25l0.2-0.45c0.5-1.534,0.8-2.434,0.9-2.7c0.4-1,0.9-1.8,1.5-2.4c0.833-0.867,1.75-1.434,2.75-1.7
			c0.667-0.167,1.633-0.333,2.9-0.5c0.167-0.633,0.467-1.183,0.9-1.65c0.167-0.167,0.617-0.533,1.35-1.1
			c0.534-0.467,0.867-0.917,1-1.35l0.1-2.1c-0.066-1.034,0.033-1.883,0.3-2.55c0.267-0.7,0.716-1.383,1.35-2.05
			c0.8-0.667,1.4-1.2,1.8-1.6c0.6-0.567,1.066-1.333,1.4-2.3l0.25-0.8c0.667-2.2,1.65-3.85,2.95-4.95L31,14.95
			c1.633-0.967,3.217-1.3,4.75-1c0.533,0.133,0.934,0.267,1.2,0.4c0.5,0.267,1.116,0.7,1.85,1.3l1.351,0.8
			C40.517,16.617,41.083,16.85,41.85,17.15z"/>
		
			<radialGradient id="SVGID_3_" cx="38.0498" cy="66.7998" r="59.1375" gradientTransform="matrix(1 0 0 -1.9488 0 196.9825)" gradientUnits="userSpaceOnUse">
			<stop  offset="0" style="stop-color:#354115"/>
			<stop  offset="0.3961" style="stop-color:#303D14"/>
			<stop  offset="0.8667" style="stop-color:#223111"/>
			<stop  offset="1" style="stop-color:#1C2D10"/>
		</radialGradient>
		<path style="fill-rule:evenodd;clip-rule:evenodd;fill:url(#SVGID_3_);" d="M41.95,17.75c0.666,0.333,1.2,0.683,1.6,1.05
			c1.7,1.567,2.684,2.9,2.95,4l0.7,1.15c0.2,0.433,0.467,1.017,0.8,1.75l0.25,0.35c0.233,0.267,0.75,0.717,1.55,1.35
			c0.733,0.533,1.25,1.017,1.55,1.45c0.334,0.5,0.567,1.117,0.7,1.85c0.066,0.4,0.15,1,0.25,1.8c0.134,0.933,0.5,2.017,1.101,3.25
			l0.3,0.5c0.934,1.467,1.55,2.667,1.85,3.6l0.101,0.4c0.1,0.333,0.233,0.8,0.399,1.4c0.134,0.533,0.316,0.983,0.55,1.35
			c0.134,0.2,0.467,0.65,1,1.35c0.434,0.533,0.767,1,1,1.4l0.351,0.85c0.166,0.5,0.35,1.217,0.55,2.15c0.2,1,0.366,1.717,0.5,2.15
			l0.4,1.3c0.466,1.5,1.033,3.816,1.699,6.95l0.15,0.9c0.134,0.534,0.3,1.2,0.5,2c0.1,0.6,0.033,1.217-0.2,1.85
			c0.967,0.967,1.601,1.667,1.9,2.1c0.633,0.933,0.833,1.8,0.6,2.6c1.233,0.633,1.967,2.2,2.2,4.7c0.167,2,0.033,3.816-0.4,5.45
			L66.5,79.7c-0.033,0.033-0.4,0.717-1.1,2.05c-0.434,0.8-0.667,1.45-0.7,1.95c-0.033,0.2-0.033,0.383,0,0.55
			c0,0.1,0.116,0.717,0.35,1.85c0.134,0.767,0.134,1.434,0,2c-0.166,0.767-0.316,1.717-0.45,2.851l-0.3,2.85
			c-0.166,1.334-0.517,2.65-1.05,3.95c-0.366,0.866-1.017,1.767-1.95,2.7c-0.333,0.666-0.566,1.899-0.7,3.7
			c-0.133,0.566-0.5,1.3-1.1,2.199L59.25,107l0.1,0.8c0.167,1.5,0.017,2.75-0.449,3.75c-0.434,0.967-1.15,1.851-2.15,2.65
			c-0.566,0.467-1.45,1.116-2.65,1.95c-0.466,0.833-1.133,1.533-2,2.1c0.101,1.4-0.5,2.7-1.8,3.9
			c-0.733,0.666-1.916,1.55-3.55,2.649c-0.467,0.4-1.316,1.233-2.55,2.5c-1.2,1.101-2.233,1.617-3.101,1.55
			c-1.133-0.066-2.283-1.233-3.449-3.5L36.5,123.2c-0.8-0.566-1.467-1.267-2-2.101c-0.567-0.933-0.967-1.883-1.2-2.85
			c-0.1-0.833-0.183-1.4-0.25-1.7c-0.133-0.467-0.417-0.916-0.85-1.35l-0.7-0.55c-0.767-0.534-1.283-0.934-1.55-1.2
			c-0.667-0.667-1.067-1.084-1.2-1.25l-1-1.3c-0.3-0.5-0.517-0.851-0.65-1.051c-0.067-0.133-0.167-0.449-0.3-0.949
			c-0.1-0.467-0.216-0.75-0.35-0.851c-0.233-0.166-1.067-0.483-2.5-0.95c-1.233-0.366-2.067-0.85-2.5-1.449
			c-0.767-1.4-1.367-2.434-1.8-3.101c-0.2-0.3-0.45-0.866-0.75-1.7c-0.2-0.533-0.533-0.949-1-1.25l-0.1-0.1
			c-1.9-1.1-3.367-2.417-4.4-3.95l-0.5-0.85c-0.467-0.8-0.8-1.601-1-2.4c-0.233-1-0.167-1.733,0.2-2.2l-0.75-0.25
			c-2.267-0.866-3.95-2.533-5.05-5c-0.767-1.666-1.15-3.5-1.15-5.5l0.15-1.6C5.6,76.184,5.767,75,5.8,74.2
			c0.034-0.4-0.017-0.784-0.15-1.15c-0.2-0.433-0.367-0.833-0.5-1.2c-0.267-0.733-0.217-1.7,0.15-2.9c0.4-1.3,0.55-2.217,0.45-2.75
			l-0.2-0.65c-0.167-0.367-0.5-0.867-1-1.5c-0.533-0.633-0.883-1.133-1.05-1.5c-0.933-1.8-1.217-3.767-0.85-5.9
			c0.3-1.7,0.95-3.35,1.95-4.95c0.8-1.3,2.033-2.817,3.7-4.55c1.167-1.2,1.917-2.283,2.25-3.25l0.15-0.45
			c0.6-1.7,0.917-2.6,0.95-2.7c0.434-1,0.934-1.783,1.5-2.35c0.833-0.8,1.767-1.333,2.8-1.6c1.733-0.3,2.683-0.483,2.85-0.55
			c0.2-0.6,0.534-1.133,1-1.6c0.167-0.167,0.617-0.517,1.35-1.05c0.6-0.4,0.95-0.817,1.05-1.25c0.066-0.233,0.1-0.617,0.1-1.15
			l-0.05-0.9c-0.133-1.033-0.083-1.883,0.15-2.55c0.267-0.733,0.7-1.433,1.3-2.1c0.733-0.733,1.3-1.316,1.7-1.75
			c0.6-0.6,1.083-1.35,1.45-2.25l0.25-0.8c0.8-2.4,1.816-4.067,3.05-5l1-0.75c1.633-0.934,3.25-1.217,4.85-0.85
			c0.467,0.1,0.866,0.25,1.2,0.45c0.3,0.167,0.916,0.633,1.85,1.4l1.25,0.85C40.4,17.017,40.95,17.283,41.95,17.75z"/>
		
			<radialGradient id="SVGID_4_" cx="38.0498" cy="66.5" r="58.5125" gradientTransform="matrix(1 0 0 -1.9489 0 196.1047)" gradientUnits="userSpaceOnUse">
			<stop  offset="0" style="stop-color:#3E4817"/>
			<stop  offset="0.3373" style="stop-color:#394416"/>
			<stop  offset="0.7373" style="stop-color:#2B3913"/>
			<stop  offset="1" style="stop-color:#1D2E10"/>
		</radialGradient>
		<path style="fill-rule:evenodd;clip-rule:evenodd;fill:url(#SVGID_4_);" d="M42,18.35c0.7,0.4,1.233,0.783,1.6,1.15
			c1.534,1.533,2.4,2.9,2.601,4.1l0.75,1.1c0.233,0.367,0.55,0.9,0.95,1.6l0.25,0.3c0.199,0.2,0.733,0.65,1.6,1.35
			c0.667,0.533,1.15,1.033,1.45,1.5c0.3,0.466,0.517,1.066,0.649,1.8c0.067,0.4,0.15,1,0.25,1.8c0.167,0.867,0.584,1.917,1.25,3.15
			l0.25,0.5c0.867,1.466,1.467,2.65,1.801,3.55l0.149,0.4c0.4,1.3,0.75,2.184,1.05,2.65c0.034,0.067,0.367,0.517,1,1.35
			c0.4,0.533,0.7,1,0.9,1.4l0.4,0.85c0.267,0.934,0.566,2.35,0.899,4.25l0.4,1.3c0.566,1.833,1.116,4.133,1.649,6.9L62,60.2
			c0.134,0.533,0.316,1.183,0.55,1.95c0.101,0.633,0.066,1.267-0.1,1.9c1.899,1.8,2.717,3.333,2.45,4.6
			c1.199,0.733,1.916,2.317,2.149,4.75c0.167,2,0.017,3.817-0.45,5.45l-0.3,0.9c-0.066,0.134-0.434,0.8-1.1,2
			c-0.467,0.8-0.717,1.45-0.75,1.95v0.6c0,0.134,0.1,0.75,0.3,1.851c0.134,0.733,0.15,1.383,0.05,1.949
			c-0.2,1.267-0.45,3.167-0.75,5.7c-0.166,1.134-0.6,2.4-1.3,3.8c-0.5,1.034-1.184,1.851-2.05,2.45
			c-0.134,0.367-0.233,0.95-0.3,1.75c-0.067,1-0.134,1.667-0.2,2c-0.066,0.4-0.434,1.117-1.101,2.15l-0.3,0.55l0.101,0.8
			c0.199,1.533,0.05,2.783-0.45,3.75c-0.467,0.934-1.184,1.8-2.15,2.601c-0.5,0.399-1.416,1-2.75,1.8
			c-0.467,0.866-1.033,1.55-1.7,2.05c0.067,1.333-0.483,2.583-1.649,3.75c-0.667,0.667-1.75,1.55-3.25,2.65
			c-0.434,0.399-1.25,1.25-2.45,2.55c-1.1,1.033-2.083,1.483-2.95,1.35c-0.666-0.1-1.366-0.533-2.1-1.3
			c-0.634-0.6-1.167-1.3-1.601-2.1c-0.5-0.867-0.866-1.601-1.1-2.2c-0.866-0.434-1.6-1.101-2.2-2c-0.6-0.834-1.017-1.8-1.25-2.9
			c-0.066-0.899-0.117-1.5-0.15-1.8c-0.066-0.467-0.316-0.917-0.75-1.35l-0.75-0.601c-0.6-0.399-1.1-0.833-1.5-1.3l-3-3.6
			c-0.066-0.101-0.2-0.384-0.4-0.851c-0.167-0.399-0.35-0.649-0.55-0.75c-0.2-0.133-1.05-0.45-2.55-0.95
			c-1.233-0.399-2.083-0.916-2.55-1.55c-0.767-1.366-1.367-2.35-1.8-2.95c-0.2-0.3-0.45-0.85-0.75-1.649
			c-0.167-0.533-0.466-0.95-0.9-1.25L17.5,98.6c-1.367-1-2.683-2.366-3.95-4.1l-0.5-0.8c-0.5-0.733-0.867-1.45-1.1-2.15
			c-0.3-0.899-0.333-1.55-0.1-1.95l-0.75-0.25c-2.133-0.866-3.717-2.517-4.75-4.949c-0.733-1.567-1.067-3.367-1-5.4l0.2-1.55
			c0.267-1.4,0.4-2.55,0.4-3.45c0.033-0.4-0.017-0.767-0.15-1.1c-0.2-0.433-0.367-0.816-0.5-1.15c-0.233-0.733-0.167-1.7,0.2-2.9
			c0.4-1.267,0.533-2.184,0.4-2.75l-0.2-0.65c-0.167-0.4-0.5-0.9-1-1.5c-0.5-0.667-0.833-1.167-1-1.5c-0.9-1.934-1.167-3.9-0.8-5.9
			c0.267-1.633,0.917-3.283,1.95-4.95c0.633-1.033,1.883-2.517,3.75-4.45c1.1-1.167,1.833-2.25,2.2-3.25l0.15-0.45
			c0.6-1.7,0.917-2.6,0.95-2.7c0.434-0.967,0.934-1.733,1.5-2.3c0.867-0.8,1.8-1.3,2.8-1.5c1.367-0.233,2.316-0.45,2.85-0.65
			c0.233-0.566,0.583-1.066,1.05-1.5c0.267-0.233,0.733-0.55,1.4-0.95c0.633-0.4,1-0.8,1.1-1.2c0.066-0.2,0.1-0.583,0.1-1.15
			l-0.1-0.85c-0.133-1.1-0.117-1.95,0.05-2.55c0.2-0.767,0.583-1.5,1.15-2.2c0.067-0.066,0.633-0.667,1.7-1.8
			c0.633-0.667,1.117-1.417,1.45-2.25l0.3-0.8c0.467-1.333,0.85-2.25,1.15-2.75c0.5-0.966,1.133-1.75,1.9-2.35l0.7-0.5l0.35-0.2
			c1.633-0.867,3.266-1.083,4.9-0.65c0.467,0.1,0.866,0.25,1.2,0.45c0.366,0.2,0.967,0.684,1.8,1.45l1.15,0.95
			C40.6,17.583,41.134,17.883,42,18.35z"/>
		
			<radialGradient id="SVGID_5_" cx="38.0498" cy="66.1499" r="57.8875" gradientTransform="matrix(1 0 0 -1.9488 0 195.0644)" gradientUnits="userSpaceOnUse">
			<stop  offset="0" style="stop-color:#474F19"/>
			<stop  offset="0.2941" style="stop-color:#424B18"/>
			<stop  offset="0.6431" style="stop-color:#344015"/>
			<stop  offset="1" style="stop-color:#1D2F10"/>
		</radialGradient>
		<path style="fill-rule:evenodd;clip-rule:evenodd;fill:url(#SVGID_5_);" d="M40.55,18c0.233,0.2,0.75,0.533,1.55,1
			c0.667,0.4,1.184,0.8,1.551,1.2c1.433,1.533,2.183,2.933,2.25,4.2c0.133,0.2,0.383,0.533,0.75,1c0.3,0.367,0.683,0.867,1.149,1.5
			l0.25,0.3c0.334,0.3,0.867,0.733,1.601,1.3c0.6,0.533,1.066,1.05,1.399,1.55c0.3,0.467,0.5,1.067,0.601,1.8
			c0.066,0.4,0.149,0.983,0.25,1.75c0.1,0.433,0.283,0.933,0.55,1.5c0.166,0.333,0.434,0.85,0.8,1.55l0.25,0.5
			c0.8,1.434,1.384,2.6,1.75,3.5l0.15,0.4c0.666,1.467,1.066,2.317,1.199,2.55c1.067,1.467,1.684,2.383,1.851,2.75l0.35,0.85
			c0.134,0.466,0.283,1.167,0.45,2.1c0.134,0.934,0.267,1.633,0.4,2.1L60,52.7c0.667,2.3,1.2,4.566,1.6,6.8l0.15,0.9
			c0.134,0.533,0.316,1.167,0.55,1.9c0.134,0.633,0.167,1.25,0.101,1.85c1.733,1.733,2.517,3.267,2.35,4.6
			c1.167,0.833,1.85,2.417,2.05,4.75c0.2,1.933,0.066,3.733-0.399,5.4L66.05,79.85c-0.1,0.233-0.45,0.884-1.05,1.95
			c-0.467,0.8-0.733,1.45-0.8,1.95v0.6c0,0.101,0.1,0.717,0.3,1.851c0.1,0.733,0.116,1.383,0.05,1.95
			c-0.166,1.233-0.416,3.116-0.75,5.649c-0.166,1.066-0.666,2.283-1.5,3.65c-0.666,1.2-1.399,1.95-2.2,2.25
			c-0.1,0.333-0.166,0.916-0.199,1.75c0,1.033-0.017,1.7-0.051,2c-0.066,0.7-0.433,1.416-1.1,2.149l-0.4,0.4l0.101,0.8
			c0.233,1.367,0.083,2.617-0.45,3.75c-0.767,1.5-2.434,2.9-5,4.2c-0.3,0.767-0.783,1.434-1.45,2
			c0.066,1.267-0.399,2.483-1.399,3.65c-0.167,0.166-1.15,1.05-2.95,2.649c-0.434,0.4-1.217,1.2-2.351,2.4c-1.066,1-2,1.434-2.8,1.3
			c-0.733-0.1-1.483-0.483-2.25-1.15c-0.666-0.6-1.233-1.3-1.7-2.1c-0.533-1-0.899-1.767-1.1-2.3c-0.866-0.3-1.65-0.934-2.35-1.9
			c-0.7-0.899-1.134-1.883-1.3-2.95l-0.1-1.899c0-0.467-0.233-0.917-0.7-1.351l-0.75-0.6c-0.533-0.366-1-0.85-1.4-1.45l-2.25-2.7
			l-0.95-0.899c-0.434-0.8-0.85-1.283-1.25-1.45c-1.133-0.333-2.017-0.616-2.65-0.85c-1.2-0.434-2.05-1-2.55-1.7
			c-0.767-1.3-1.367-2.25-1.8-2.851c-0.2-0.3-0.45-0.816-0.75-1.55c-0.2-0.533-0.483-0.95-0.85-1.25l-0.1-0.1
			c-0.933-0.834-2.1-2.233-3.5-4.2l-0.55-0.75c-1.3-1.767-1.85-3-1.65-3.7l-0.7-0.25c-2-0.866-3.5-2.5-4.5-4.899
			c-0.633-1.567-0.9-3.317-0.8-5.25l0.2-1.45c0.267-1.267,0.383-2.383,0.35-3.35c0-0.367-0.067-0.733-0.2-1.1l-0.45-1.1
			c-0.233-0.733-0.167-1.7,0.2-2.9c0.367-1.233,0.483-2.133,0.35-2.7L5.8,65.4c-0.167-0.367-0.466-0.883-0.9-1.55
			c-0.467-0.7-0.783-1.217-0.95-1.55c-0.833-1.9-1.117-3.85-0.85-5.85c0.267-1.667,0.917-3.3,1.95-4.9c0.6-0.933,1.867-2.4,3.8-4.4
			c1.1-1.133,1.833-2.217,2.2-3.25l0.15-0.45c0.4-1.267,0.716-2.167,0.95-2.7c0.434-0.933,0.95-1.683,1.55-2.25
			c0.8-0.733,1.733-1.2,2.8-1.4c0.433-0.067,0.917-0.133,1.45-0.2c0.4-0.1,0.85-0.267,1.35-0.5c0.233-0.566,0.6-1.05,1.1-1.45
			c0.267-0.2,0.75-0.5,1.45-0.9c0.433-0.233,0.683-0.383,0.75-0.45c0.233-0.2,0.383-0.417,0.45-0.65c0.1-0.3,0.1-0.684,0-1.15
			l-0.1-0.85c-0.2-1.034-0.233-1.867-0.1-2.5c0.167-0.833,0.517-1.6,1.05-2.3c0.233-0.333,0.783-0.95,1.65-1.85
			c0.6-0.667,1.1-1.433,1.5-2.3c0.133-0.167,0.25-0.417,0.35-0.75c0.567-1.5,0.95-2.433,1.15-2.8c0.5-0.967,1.133-1.75,1.9-2.35
			l0.7-0.5l0.35-0.2c1.567-0.8,3.233-0.967,5-0.5c0.533,0.167,0.934,0.333,1.2,0.5c0.366,0.2,0.95,0.7,1.75,1.5L40.55,18z"/>
		
			<radialGradient id="SVGID_6_" cx="38.0498" cy="65.7998" r="57.2625" gradientTransform="matrix(1 0 0 -1.9489 0 194.0383)" gradientUnits="userSpaceOnUse">
			<stop  offset="0" style="stop-color:#51571C"/>
			<stop  offset="0.2627" style="stop-color:#4C531B"/>
			<stop  offset="0.5725" style="stop-color:#3E4818"/>
			<stop  offset="0.9098" style="stop-color:#263513"/>
			<stop  offset="1" style="stop-color:#1E2F11"/>
		</radialGradient>
		<path style="fill-rule:evenodd;clip-rule:evenodd;fill:url(#SVGID_6_);" d="M40.7,18.5c0.233,0.267,0.733,0.65,1.5,1.15
			c0.666,0.434,1.166,0.85,1.5,1.25c1.333,1.567,1.95,3,1.85,4.3l2.101,2.3l0.3,0.25c0.366,0.3,0.883,0.733,1.55,1.3
			c0.6,0.5,1.066,1.017,1.4,1.55c0.267,0.467,0.449,1.066,0.55,1.8c0.133,1.033,0.217,1.617,0.25,1.75
			c0.166,0.667,0.649,1.65,1.45,2.95l0.25,0.5c0.466,0.833,1.033,2,1.699,3.5l0.2,0.35c0.566,1.167,1,1.983,1.3,2.45
			c0.967,1.333,1.567,2.25,1.801,2.75l0.3,0.85c0.133,0.467,0.267,1.167,0.399,2.1c0.134,0.967,0.25,1.667,0.351,2.1l0.35,1.25
			c0.733,2.433,1.25,4.683,1.55,6.75l0.15,0.85c0.033,0.2,0.217,0.833,0.55,1.9c0.2,0.633,0.3,1.233,0.3,1.8
			c1.534,1.667,2.301,3.183,2.301,4.55c1.1,0.967,1.75,2.567,1.949,4.8c0.2,1.9,0.051,3.683-0.449,5.35L65.85,79.9
			c-0.1,0.267-0.449,0.916-1.05,1.949c-0.467,0.801-0.733,1.45-0.8,1.95l-0.05,0.55c0,0.134,0.083,0.767,0.25,1.9
			c0.133,0.733,0.166,1.366,0.1,1.9c-0.3,2.8-0.55,4.683-0.75,5.649c-0.166,0.9-0.733,2.084-1.7,3.55
			c-0.933,1.367-1.716,2.017-2.35,1.95c-0.066,0.3-0.083,0.884-0.05,1.75c0.033,0.934,0.033,1.617,0,2.05
			c-0.033,0.801-0.384,1.5-1.05,2.101c-0.267,0.2-0.434,0.3-0.5,0.3l0.149,0.8c0.167,1.434-0.017,2.667-0.55,3.7
			c-0.866,1.733-2.55,3.066-5.05,4c-0.233,0.733-0.617,1.417-1.15,2.05c0.066,1.2-0.35,2.351-1.25,3.45
			c-0.166,0.233-1.05,1.116-2.649,2.65c-0.4,0.399-1.134,1.166-2.2,2.3c-0.967,0.934-1.851,1.35-2.65,1.25
			c-0.833-0.066-1.649-0.417-2.45-1.05c-0.699-0.567-1.283-1.25-1.75-2.051c-0.5-0.866-0.883-1.649-1.149-2.35
			c-0.9-0.233-1.733-0.85-2.5-1.85c-0.8-0.967-1.25-1.967-1.35-3c-0.067-0.367-0.067-1.051,0-2.051c0.033-0.433-0.167-0.866-0.6-1.3
			l-0.8-0.649c-0.467-0.334-0.9-0.851-1.3-1.551l-1.1-1.55c-0.3-0.399-0.7-0.816-1.2-1.25c-0.467-0.399-0.817-0.666-1.05-0.8
			c-0.633-0.667-1.167-1.083-1.6-1.25c-1.2-0.333-2.117-0.616-2.75-0.85c-1.2-0.434-2.067-1.034-2.6-1.801l-1.7-2.75
			c-0.233-0.333-0.5-0.816-0.8-1.449c-0.233-0.534-0.5-0.95-0.8-1.25l-0.1-0.101c-0.434-0.5-0.934-1.166-1.5-2
			c-0.7-1.1-1.217-1.866-1.55-2.3l-0.55-0.7c-1.367-1.6-2.05-2.7-2.05-3.3l-0.65-0.25C8.717,87.384,7.3,85.767,6.4,83.4
			c-0.6-1.5-0.816-3.184-0.65-5.051L6,76.9c0.267-1.134,0.367-2.217,0.3-3.25c-0.033-0.3-0.117-0.633-0.25-1
			c-0.267-0.633-0.417-1-0.45-1.1c-0.233-0.733-0.167-1.683,0.2-2.85c0.367-1.267,0.483-2.184,0.35-2.75l-0.2-0.65
			c-0.167-0.4-0.45-0.917-0.85-1.55c-0.467-0.733-0.767-1.25-0.9-1.55c-0.833-1.967-1.117-3.917-0.85-5.85
			c0.267-1.7,0.917-3.333,1.95-4.9c0.467-0.7,1.083-1.45,1.85-2.25c0.9-0.9,1.567-1.583,2-2.05c1.033-1.1,1.75-2.183,2.15-3.25
			l0.15-0.45c0.767-2.434,1.6-4.067,2.5-4.9c0.9-0.733,1.85-1.167,2.85-1.3c0.833-0.1,1.317-0.167,1.45-0.2
			c0.333-0.066,0.767-0.25,1.3-0.55c0.267-0.533,0.65-1,1.15-1.4c0.267-0.167,0.767-0.45,1.5-0.85c0.733-0.333,1.15-0.667,1.25-1
			c0.1-0.267,0.1-0.633,0-1.1L23.3,31.3c-0.267-1.066-0.35-1.9-0.25-2.5c0.167-0.867,0.5-1.667,1-2.4
			c0.233-0.333,0.75-0.967,1.55-1.9c0.7-0.833,1.233-1.6,1.6-2.3l0.3-0.75c0.5-1.3,0.9-2.25,1.2-2.85c0.5-1,1.133-1.783,1.9-2.35
			l1.1-0.7c1.566-0.767,3.25-0.883,5.05-0.35l1.2,0.55c0.434,0.267,1.017,0.8,1.75,1.6L40.7,18.5z"/>
		
			<radialGradient id="SVGID_7_" cx="38.0498" cy="65.4502" r="56.6625" gradientTransform="matrix(1 0 0 -1.9488 0 193.0009)" gradientUnits="userSpaceOnUse">
			<stop  offset="0" style="stop-color:#5A5E1E"/>
			<stop  offset="0.2392" style="stop-color:#555A1D"/>
			<stop  offset="0.5216" style="stop-color:#474F1A"/>
			<stop  offset="0.8314" style="stop-color:#2F3D15"/>
			<stop  offset="1" style="stop-color:#1E3011"/>
		</radialGradient>
		<path style="fill-rule:evenodd;clip-rule:evenodd;fill:url(#SVGID_7_);" d="M40.8,19c0.267,0.333,0.75,0.75,1.45,1.25
			s1.2,0.933,1.5,1.3c1.233,1.633,1.733,3.1,1.5,4.4c0.066,0.1,0.366,0.417,0.9,0.95l1.699,1.45c0.867,0.667,1.4,1.083,1.601,1.25
			c0.533,0.5,0.967,1.033,1.3,1.6c0.233,0.433,0.4,1.017,0.5,1.75c0.1,0.9,0.184,1.466,0.25,1.7c0.1,0.367,0.333,0.833,0.7,1.4
			c0.434,0.733,0.717,1.233,0.85,1.5l0.25,0.5c0.434,0.833,0.983,1.983,1.65,3.45l0.2,0.35c0.767,1.3,1.25,2.083,1.449,2.35
			c0.967,1.466,1.534,2.383,1.7,2.75c0.134,0.233,0.233,0.517,0.3,0.85c0.267,0.9,0.483,2.284,0.65,4.15l0.35,1.25
			c0.801,2.933,1.301,5.15,1.5,6.65l0.15,0.85c0.1,0.4,0.3,1.017,0.6,1.85c0.233,0.667,0.384,1.267,0.45,1.8
			c1.334,1.433,2.066,2.95,2.2,4.55c1.066,1.067,1.717,2.667,1.95,4.8c0.166,1.9,0,3.684-0.5,5.35l-0.3,0.9
			c-0.134,0.3-0.5,0.95-1.101,1.95c-0.467,0.767-0.733,1.399-0.8,1.899L63.7,84.4c0,0.133,0.083,0.75,0.25,1.85
			c0.1,0.767,0.133,1.417,0.1,1.95c-0.1,2.1-0.35,3.967-0.75,5.6c-0.166,0.767-0.816,1.9-1.95,3.4
			c-1.066,1.399-1.883,1.983-2.449,1.75c-0.067,0.3-0.051,0.866,0.05,1.7c0.133,0.966,0.184,1.666,0.149,2.1
			c-0.033,0.9-0.399,1.583-1.1,2.05l-0.55,0.25c0.1,0.267,0.149,0.533,0.149,0.8c0.233,1.367,0.051,2.584-0.55,3.65
			c-1,1.866-2.733,3.134-5.2,3.8c-0.166,0.8-0.449,1.467-0.85,2c0.066,1.134-0.283,2.25-1.05,3.351
			c-0.334,0.5-1.117,1.383-2.351,2.649c-1.1,1.167-1.783,1.867-2.05,2.101c-0.934,0.767-1.783,1.199-2.55,1.3
			c-0.866,0.066-1.717-0.217-2.55-0.851c-0.733-0.566-1.351-1.3-1.851-2.199c-0.366-0.567-0.75-1.367-1.149-2.4
			c-1-0.167-1.9-0.733-2.7-1.7c-0.833-1.066-1.3-2.1-1.4-3.1c-0.067-0.5-0.017-1.2,0.15-2.101c0.067-0.466-0.133-0.916-0.6-1.35
			l-0.75-0.65c-0.467-0.366-0.9-0.933-1.3-1.699c-0.367-0.7-0.7-1.25-1-1.65c-0.333-0.434-0.767-0.833-1.3-1.2l-1.2-0.8
			c-0.767-0.533-1.4-0.884-1.9-1.05c-1.267-0.3-2.217-0.566-2.85-0.8c-1.167-0.434-2.033-1.067-2.6-1.9l-1.7-2.6
			c-0.233-0.334-0.483-0.801-0.75-1.4c-0.267-0.533-0.533-0.95-0.8-1.25l-0.05-0.1c-0.333-0.434-0.75-1.134-1.25-2.101
			c-0.5-1-0.95-1.767-1.35-2.3l-0.6-0.65c-0.667-0.666-1.167-1.166-1.5-1.5c-0.533-0.6-0.85-1.05-0.95-1.35
			c-0.367-0.134-0.583-0.233-0.65-0.3c-1.833-0.867-3.167-2.467-4-4.8c-0.5-1.534-0.65-3.167-0.45-4.9l0.25-1.4
			c0.267-1.033,0.35-2.083,0.25-3.149c-0.034-0.267-0.117-0.583-0.25-0.95c-0.233-0.567-0.383-0.933-0.45-1.1
			c-0.2-0.7-0.133-1.633,0.2-2.8c0.367-1.233,0.466-2.15,0.3-2.75l-0.2-0.65c-0.133-0.4-0.4-0.917-0.8-1.55
			c-0.4-0.733-0.667-1.267-0.8-1.6c-0.8-2-1.083-3.933-0.85-5.8c0.233-1.733,0.883-3.35,1.95-4.85c0.467-0.7,1.083-1.45,1.85-2.25
			c0.9-0.867,1.567-1.533,2-2c1.033-1.1,1.75-2.183,2.15-3.25l0.1-0.4c0.434-1.3,0.767-2.2,1-2.7c0.434-0.933,0.95-1.65,1.55-2.15
			c0.833-0.7,1.8-1.117,2.9-1.25c0.8-0.1,1.283-0.167,1.45-0.2c0.3-0.067,0.717-0.267,1.25-0.6c0.467-0.833,1.383-1.533,2.75-2.1
			c0.8-0.333,1.25-0.633,1.35-0.9c0.067-0.333,0.05-0.717-0.05-1.15l-0.2-0.85c-0.3-1.133-0.417-1.95-0.35-2.45
			c0.1-0.9,0.367-1.733,0.8-2.5c0.3-0.467,0.816-1.117,1.55-1.95c0.633-0.7,1.184-1.467,1.65-2.3l0.35-0.75
			c0.533-1.3,0.934-2.25,1.2-2.85c0.533-1.033,1.183-1.85,1.95-2.45l0.7-0.45l0.4-0.2c1.6-0.733,3.284-0.784,5.05-0.15l1.25,0.55
			c0.566,0.333,1.133,0.883,1.7,1.65L40.8,19z"/>
		
			<radialGradient id="SVGID_8_" cx="38.0498" cy="65.1001" r="56.0625" gradientTransform="matrix(1 0 0 -1.9489 0 191.9763)" gradientUnits="userSpaceOnUse">
			<stop  offset="0" style="stop-color:#636520"/>
			<stop  offset="0.2235" style="stop-color:#5E611F"/>
			<stop  offset="0.4863" style="stop-color:#4F561C"/>
			<stop  offset="0.7725" style="stop-color:#384416"/>
			<stop  offset="1" style="stop-color:#1F3111"/>
		</radialGradient>
		<path style="fill-rule:evenodd;clip-rule:evenodd;fill:url(#SVGID_8_);" d="M40.95,19.55c0.233,0.333,0.7,0.767,1.399,1.3
			c0.7,0.533,1.184,1,1.45,1.4c1.134,1.633,1.517,3.133,1.15,4.5c0.2,0.3,0.517,0.6,0.95,0.9l1.55,1.05l0.3,0.25
			c1.434,1.033,2.384,1.966,2.85,2.8c0.233,0.433,0.384,1.033,0.45,1.8c0.066,0.867,0.15,1.417,0.25,1.65
			c0.101,0.333,0.367,0.783,0.8,1.35c0.434,0.633,0.733,1.117,0.9,1.45l0.2,0.5c0.066,0.167,0.316,0.733,0.75,1.7
			c0.267,0.667,0.55,1.233,0.85,1.7l0.2,0.35c0.4,0.533,0.934,1.283,1.6,2.25c0.834,1.167,1.384,2.083,1.65,2.75l0.3,0.85
			c0.2,0.9,0.384,2.267,0.55,4.1c0.034,0.433,0.134,0.85,0.301,1.25c0.8,2.833,1.283,5.033,1.449,6.6L61,60.9
			c0.1,0.533,0.3,1.133,0.6,1.8c0.334,0.767,0.551,1.35,0.65,1.75c1.066,1.2,1.767,2.7,2.1,4.5c1.034,1.2,1.65,2.816,1.851,4.85
			c0.2,1.8,0.05,3.566-0.45,5.3l-0.35,0.95c-0.134,0.334-0.483,0.967-1.051,1.9c-0.5,0.767-0.783,1.399-0.85,1.899v0.601
			c0,0.3,0.066,0.916,0.2,1.85c0.1,0.767,0.133,1.4,0.1,1.9c-0.066,2.2-0.316,4.05-0.75,5.55c-0.2,0.8-0.916,1.9-2.149,3.3
			c-0.534,0.634-1.034,1.101-1.5,1.4c-0.5,0.3-0.867,0.35-1.101,0.149c0,0.267,0.066,0.834,0.2,1.7c0.134,0.934,0.2,1.634,0.2,2.101
			c0,1.033-0.351,1.699-1.05,2c-0.4,0.1-0.617,0.149-0.65,0.149l0.2,0.8c0.2,1.233,0,2.45-0.601,3.65c-1.133,2-2.899,3.2-5.3,3.6
			c-0.066,0.667-0.25,1.317-0.55,1.95c0.033,1.066-0.267,2.15-0.9,3.25c-0.399,0.667-1.083,1.533-2.05,2.601
			c-1.666,2-3.1,3.083-4.3,3.25c-0.9,0.133-1.8-0.117-2.7-0.75c-0.767-0.534-1.434-1.25-2-2.15c-0.5-0.9-0.866-1.733-1.1-2.5
			c-1-0.033-1.95-0.566-2.851-1.6c-0.899-1-1.399-2.051-1.5-3.15c-0.067-0.667,0.017-1.417,0.25-2.25
			c0.133-0.434-0.033-0.884-0.5-1.35l-0.8-0.65c-0.367-0.267-0.617-0.533-0.75-0.8c-0.066-0.101-0.216-0.434-0.45-1
			c-0.367-0.8-0.7-1.384-1-1.75c-0.333-0.434-0.783-0.834-1.35-1.2l-1.35-0.7c-1.167-0.5-1.883-0.783-2.15-0.85
			c-1.667-0.4-2.667-0.667-3-0.8c-1.167-0.434-2.033-1.084-2.6-1.95l-1.7-2.55c-0.267-0.367-0.534-0.801-0.8-1.301
			c-0.3-0.6-0.517-1.017-0.65-1.25l-0.1-0.149c-0.2-0.334-0.5-1.066-0.9-2.2c-0.367-0.934-0.783-1.684-1.25-2.25l-0.6-0.6
			c-0.267-0.267-0.8-0.7-1.6-1.301c-0.633-0.5-1.05-0.883-1.25-1.149l-0.65-0.25c-1.667-0.867-2.9-2.467-3.7-4.8
			c-0.467-1.4-0.567-2.983-0.3-4.75l0.3-1.351c0.267-1,0.316-2,0.15-3c-0.3-0.733-0.533-1.4-0.7-2c-0.2-0.7-0.133-1.633,0.2-2.8
			c0.367-1.2,0.467-2.1,0.3-2.7l-0.2-0.65c-0.167-0.433-0.417-0.983-0.75-1.65c-0.4-0.8-0.65-1.317-0.75-1.55
			c-0.8-2.133-1.083-4.067-0.85-5.8c0.2-1.633,0.833-3.25,1.9-4.85c0.467-0.633,1.1-1.35,1.9-2.15c0.934-0.867,1.617-1.533,2.05-2
			c1.066-1.1,1.75-2.183,2.05-3.25l0.15-0.4c0.733-2.433,1.6-4.033,2.6-4.8c0.833-0.667,1.8-1.05,2.9-1.15
			c0.833-0.1,1.317-0.167,1.45-0.2c0.267-0.067,0.65-0.3,1.15-0.7c0.5-0.767,1.483-1.417,2.95-1.95c0.8-0.267,1.25-0.534,1.35-0.8
			c0.067-0.167,0.05-0.55-0.05-1.15L24,31.95c-0.367-1.133-0.533-1.95-0.5-2.45c0.067-0.933,0.317-1.8,0.75-2.6
			c0.267-0.533,0.75-1.2,1.45-2c0.733-0.833,1.3-1.6,1.7-2.3l0.4-0.75c0.534-1.333,0.934-2.3,1.2-2.9c0.5-1.034,1.15-1.85,1.95-2.45
			L31.7,16l0.35-0.15c1.534-0.7,3.25-0.7,5.15,0l1.2,0.6c0.6,0.367,1.166,0.933,1.699,1.7L40.95,19.55z"/>
		
			<radialGradient id="SVGID_9_" cx="38.0498" cy="64.7002" r="55.475" gradientTransform="matrix(1 0 0 -1.9489 0 190.7912)" gradientUnits="userSpaceOnUse">
			<stop  offset="0" style="stop-color:#6C6C22"/>
			<stop  offset="0.2078" style="stop-color:#676821"/>
			<stop  offset="0.4549" style="stop-color:#595D1E"/>
			<stop  offset="0.7255" style="stop-color:#414B18"/>
			<stop  offset="1" style="stop-color:#203211"/>
		</radialGradient>
		<path style="fill-rule:evenodd;clip-rule:evenodd;fill:url(#SVGID_9_);" d="M41.1,20.05c0.233,0.4,0.684,0.883,1.351,1.45
			c0.7,0.567,1.166,1.05,1.399,1.45c1.034,1.7,1.301,3.233,0.801,4.6c0.199,0.267,0.533,0.55,1,0.85l1.699,0.9l0.301,0.2
			c1.267,0.833,2.199,1.783,2.8,2.85c0.233,0.433,0.366,1.017,0.399,1.75c0.034,0.833,0.101,1.383,0.2,1.65
			c0.134,0.333,0.417,0.767,0.851,1.3c0.5,0.567,0.833,1.017,1,1.35l0.199,0.5c0.2,0.434,0.417,1.033,0.65,1.8
			c0.267,0.633,0.566,1.183,0.9,1.65l1.949,2.5c0.801,1.066,1.334,1.967,1.601,2.7l0.25,0.85c0.2,0.9,0.35,2.25,0.45,4.05
			c0.166,0.733,0.267,1.15,0.3,1.25c0.8,3.1,1.283,5.267,1.45,6.5l0.1,0.85c0.134,0.567,0.333,1.15,0.6,1.75
			c0.167,0.367,0.45,0.95,0.851,1.75c0.467,0.567,0.883,1.284,1.25,2.15c0.133,0.367,0.399,1.15,0.8,2.35
			c1,1.333,1.583,2.95,1.75,4.85c0.2,1.8,0.033,3.567-0.5,5.3L65.2,80.1C65.1,80.366,64.733,81,64.1,82
			c-0.466,0.733-0.733,1.366-0.8,1.9l-0.05,0.55c0.033,0.866,0.134,2.133,0.3,3.8c0,2.233-0.25,4.066-0.75,5.5
			c-0.233,0.767-1.033,1.833-2.399,3.2c-1.4,1.467-2.301,1.883-2.7,1.25c0,0.2,0.116,0.767,0.35,1.7
			c0.167,0.899,0.267,1.616,0.3,2.149c0.067,1.101-0.283,1.75-1.05,1.95c-0.267,0.066-0.5,0.083-0.7,0.05l0.15,0.8
			c0.2,1.267-0.017,2.467-0.65,3.601c-0.533,0.967-1.3,1.767-2.3,2.399c-0.967,0.601-1.983,0.934-3.05,1c0,0.801-0.083,1.467-0.25,2
			c0.066,1.7-0.75,3.601-2.45,5.7c-1.434,1.8-2.8,2.816-4.1,3.05c-0.967,0.2-1.9,0-2.8-0.6c-0.834-0.5-1.534-1.233-2.101-2.2
			c-0.467-0.767-0.833-1.616-1.1-2.55c-1.033,0.033-2.05-0.467-3.05-1.5c-0.934-0.967-1.45-2.033-1.55-3.2
			c-0.067-0.733,0.066-1.517,0.4-2.35c0.167-0.434,0-0.884-0.5-1.351l-0.8-0.649c-0.333-0.3-0.583-0.584-0.75-0.851
			c0-0.033-0.133-0.399-0.4-1.1c-0.3-0.866-0.6-1.483-0.9-1.85c-0.333-0.434-0.816-0.834-1.45-1.2L27.5,102.6L25,101.9
			c-1.433-0.267-2.467-0.517-3.1-0.75c-1.133-0.434-2-1.117-2.6-2.051L17.6,96.7c-0.633-1.134-1.1-1.967-1.4-2.5l-0.05-0.15
			c-0.133-0.267-0.35-1.033-0.65-2.3c-0.267-0.967-0.633-1.717-1.1-2.25l-0.55-0.6c-0.367-0.301-0.967-0.65-1.8-1.051
			c-0.767-0.433-1.283-0.75-1.55-0.949l-0.6-0.25c-1.6-0.9-2.733-2.483-3.4-4.75c-0.433-1.334-0.483-2.867-0.15-4.601l0.3-1.3
			c0.3-0.967,0.333-1.933,0.1-2.9c-0.3-0.7-0.533-1.333-0.7-1.9c-0.2-0.667-0.117-1.6,0.25-2.8c0.3-1.167,0.367-2.066,0.2-2.7
			l-0.2-0.65c-0.133-0.433-0.35-0.983-0.65-1.65c-0.367-0.767-0.6-1.3-0.7-1.6c-0.767-2.267-1.05-4.183-0.85-5.75
			c0.167-1.6,0.8-3.2,1.9-4.8c0.467-0.667,1.1-1.4,1.9-2.2c0.934-0.833,1.617-1.466,2.05-1.9c1.066-1.1,1.75-2.183,2.05-3.25
			l0.15-0.4c0.733-2.433,1.6-4.017,2.6-4.75c0.8-0.6,1.767-0.95,2.9-1.05c0.833-0.067,1.333-0.117,1.5-0.15
			c0.2-0.066,0.567-0.333,1.1-0.8c0.633-0.767,1.65-1.383,3.05-1.85c0.267-0.066,0.583-0.167,0.95-0.3
			c0.233-0.1,0.383-0.233,0.45-0.4c0.066-0.2,0.05-0.567-0.05-1.1l-0.3-0.85c-0.434-1.067-0.633-1.867-0.6-2.4
			c0-0.967,0.2-1.85,0.6-2.65c0.267-0.567,0.733-1.267,1.4-2.1c0.7-0.8,1.283-1.567,1.75-2.3l0.4-0.75c0.567-1.333,1-2.3,1.3-2.9
			c0.5-1.1,1.133-1.933,1.9-2.5l0.75-0.5l0.4-0.15c1.533-0.7,3.267-0.633,5.2,0.2c0.467,0.167,0.866,0.367,1.2,0.6
			c0.733,0.434,1.283,1.034,1.649,1.8L41.1,20.05z"/>
		
			<radialGradient id="SVGID_10_" cx="38.0996" cy="64.3501" r="54.8875" gradientTransform="matrix(1 0 0 -1.9488 0 189.7529)" gradientUnits="userSpaceOnUse">
			<stop  offset="0" style="stop-color:#757424"/>
			<stop  offset="0.1961" style="stop-color:#707023"/>
			<stop  offset="0.4275" style="stop-color:#616520"/>
			<stop  offset="0.6784" style="stop-color:#49521B"/>
			<stop  offset="0.9451" style="stop-color:#283814"/>
			<stop  offset="1" style="stop-color:#203212"/>
		</radialGradient>
		<path style="fill-rule:evenodd;clip-rule:evenodd;fill:url(#SVGID_10_);" d="M40.55,19l0.65,1.55
			c0.233,0.434,0.684,0.95,1.35,1.55c0.667,0.633,1.117,1.15,1.351,1.55c1,1.767,1.149,3.333,0.449,4.7
			c0.2,0.267,0.551,0.517,1.051,0.75c0.399,0.2,1,0.467,1.8,0.8l0.35,0.2c1.233,0.733,2.15,1.667,2.75,2.8
			c0.233,0.434,0.351,1.033,0.351,1.8c0.033,0.8,0.1,1.333,0.199,1.6c0.134,0.3,0.45,0.7,0.95,1.2c0.5,0.533,0.834,0.983,1,1.35
			l0.2,0.5c0.167,0.433,0.366,1.033,0.6,1.8c0.233,0.6,0.534,1.133,0.9,1.6l0.25,0.35c0.434,0.433,1.05,1.117,1.85,2.05
			c0.7,0.9,1.2,1.8,1.5,2.7l0.25,0.85c0.2,0.9,0.334,2.25,0.4,4.05l0.2,1.25c0.767,2.667,1.25,4.8,1.45,6.4l0.1,0.85
			c0.134,0.6,0.35,1.167,0.65,1.7c0.166,0.333,0.5,0.9,1,1.7c0.433,0.533,0.816,1.25,1.149,2.15c0.5,1.467,0.767,2.233,0.8,2.3
			c0.967,1.467,1.551,3.117,1.75,4.95c0.167,1.733-0.017,3.467-0.55,5.2l-0.35,0.9c-0.134,0.333-0.483,0.966-1.05,1.899
			c-0.467,0.767-0.75,1.384-0.851,1.851L63,84.5c0.033,0.833,0.134,2.083,0.3,3.75c0.101,2.167-0.133,4-0.7,5.5
			c-0.366,0.767-1.25,1.783-2.649,3.05c-1.601,1.467-2.55,1.816-2.851,1.05c0.067,0.233,0.217,0.784,0.45,1.65
			c0.233,0.9,0.367,1.634,0.4,2.2c0.133,1.166-0.217,1.8-1.05,1.899c-0.2,0.067-0.45,0.067-0.75,0l0.199,0.75
			c0.2,1.267-0.033,2.467-0.699,3.601c-0.567,0.967-1.351,1.75-2.351,2.35c-1,0.601-2.033,0.884-3.1,0.851
			c0.1,0.666,0.1,1.316,0,1.949c0.1,1.767-0.55,3.617-1.95,5.551c-1.2,1.6-2.467,2.566-3.8,2.899c-1,0.233-1.983,0.084-2.95-0.45
			c-0.833-0.5-1.566-1.233-2.2-2.199c-0.533-0.834-0.899-1.717-1.1-2.65c-1.134,0.134-2.217-0.333-3.25-1.4
			c-1-1-1.534-2.083-1.6-3.25c-0.033-0.833,0.133-1.633,0.5-2.399c0.2-0.467,0.066-0.934-0.4-1.4l-0.85-0.7
			c-0.367-0.3-0.617-0.6-0.75-0.899c-0.1-0.434-0.2-0.816-0.3-1.15c-0.233-0.866-0.533-1.517-0.9-1.95
			c-0.333-0.466-0.85-0.85-1.55-1.149c-0.367-0.2-0.883-0.384-1.55-0.55c-1.3-0.267-2.233-0.434-2.8-0.5
			c-1.4-0.2-2.467-0.45-3.2-0.75c-1.133-0.467-2.017-1.184-2.65-2.15c-0.367-0.634-0.917-1.4-1.65-2.3
			c-0.467-0.634-0.917-1.434-1.35-2.4l-0.05-0.149c-0.1-0.267-0.233-1.067-0.4-2.4c-0.1-0.967-0.383-1.717-0.85-2.25L14,87.95
			c-0.4-0.267-1.033-0.55-1.9-0.851c-0.934-0.3-1.55-0.533-1.85-0.699L9.7,86.1c-1.5-0.866-2.567-2.416-3.2-4.649
			c-0.333-1.367-0.317-2.867,0.05-4.5l0.35-1.2c0.3-1,0.3-1.933,0-2.8c-0.3-0.7-0.533-1.317-0.7-1.85c-0.2-0.667-0.117-1.6,0.25-2.8
			c0.3-1.167,0.367-2.066,0.2-2.7L5.2,61.7c-0.733-2.2-1.034-4.117-0.9-5.75c0.233-1.7,0.867-3.3,1.9-4.8
			c0.466-0.633,1.133-1.333,2-2.1c1.3-1.2,1.983-1.833,2.05-1.9c1.033-1.167,1.7-2.25,2-3.25l0.15-0.4
			c0.733-2.367,1.6-3.933,2.6-4.7c0.867-0.6,1.85-0.917,2.95-0.95c0.867-0.067,1.367-0.117,1.5-0.15
			c0.167-0.067,0.517-0.35,1.05-0.85c0.667-0.733,1.717-1.3,3.15-1.7c0.3-0.066,0.633-0.167,1-0.3c0.267-0.067,0.434-0.184,0.5-0.35
			c0.067-0.267,0.033-0.633-0.1-1.1l-0.3-0.8c-0.5-1.1-0.767-1.9-0.8-2.4c-0.034-1.667,0.6-3.3,1.9-4.9
			c0.767-0.966,1.35-1.75,1.75-2.35c0.066-0.034,0.217-0.267,0.45-0.7c0.567-1.333,1-2.317,1.3-2.95c0.467-1.1,1.1-1.95,1.9-2.55
			l1.15-0.65c1.5-0.633,3.267-0.5,5.3,0.4c0.633,0.333,1.033,0.55,1.2,0.65C39.7,17.65,40.25,18.267,40.55,19z"/>
		
			<radialGradient id="SVGID_11_" cx="38.0996" cy="64" r="54.325" gradientTransform="matrix(1 0 0 -1.9489 0 188.7308)" gradientUnits="userSpaceOnUse">
			<stop  offset="0" style="stop-color:#7E7B26"/>
			<stop  offset="0.1843" style="stop-color:#797725"/>
			<stop  offset="0.4078" style="stop-color:#6A6C22"/>
			<stop  offset="0.6471" style="stop-color:#52591D"/>
			<stop  offset="0.8941" style="stop-color:#314015"/>
			<stop  offset="1" style="stop-color:#213312"/>
		</radialGradient>
		<path style="fill-rule:evenodd;clip-rule:evenodd;fill:url(#SVGID_11_);" d="M40.65,19.1c0.166,0.367,0.399,1.033,0.699,2
			c0.2,0.433,0.634,0.983,1.301,1.65c0.666,0.633,1.1,1.167,1.3,1.6c0.934,1.8,0.95,3.4,0.05,4.8c0.267,0.333,0.75,0.617,1.45,0.85
			c0.399,0.1,0.95,0.267,1.649,0.5c1.334,0.633,2.351,1.633,3.051,3c0.233,0.4,0.35,0.983,0.35,1.75c0,0.8,0.05,1.333,0.15,1.6
			c0.133,0.267,0.466,0.65,1,1.15c0.533,0.5,0.883,0.933,1.05,1.3c0,0.034,0.233,0.784,0.7,2.25c0.267,0.767,0.683,1.417,1.25,1.95
			c0.933,0.867,1.616,1.55,2.05,2.05c0.6,0.8,1.05,1.667,1.35,2.6c0.233,0.733,0.367,1.75,0.4,3.05c0.033,1.4,0.133,2.417,0.3,3.05
			c0.833,3.067,1.3,5.183,1.4,6.35c0.1,0.9,0.3,1.633,0.6,2.2c0.167,0.333,0.616,0.983,1.35,1.95c0.4,0.5,0.733,1.233,1,2.2
			c0.367,1.1,0.65,1.85,0.851,2.25c2,3.433,2.267,7.116,0.8,11.05c-0.1,0.233-0.5,0.934-1.2,2.1c-0.566,0.834-0.833,1.567-0.8,2.2
			c0.033,1.066,0.15,2.634,0.35,4.7c0.067,1.767-0.183,3.267-0.75,4.5c-3.427,3.855-5.352,5.122-5.774,3.8
			c0.136,0.468,0.478,1.668,1.024,3.601c0.233,1.733-0.399,2.383-1.899,1.949c0.666,1.801,0.283,3.534-1.15,5.2
			c-1.399,1.601-3.05,2.316-4.95,2.15c0.601,1.899,0.467,3.883-0.399,5.95c-0.934,2.166-2.367,3.533-4.3,4.1
			c-1.5,0.434-2.9,0.066-4.2-1.1c-1.167-1.067-1.934-2.45-2.3-4.15c-1.167,0.233-2.301-0.184-3.4-1.25
			c-1.033-1.033-1.583-2.15-1.65-3.35c-0.033-0.801,0.2-1.7,0.7-2.7c0.233-0.4-0.183-1.033-1.25-1.9
			c-0.4-0.333-0.65-0.649-0.75-0.95c-0.066-0.466-0.15-0.883-0.25-1.25c-0.233-0.899-0.5-1.55-0.8-1.949
			c-0.367-0.567-0.933-0.983-1.7-1.25c-0.2-0.067-2.133-0.367-5.8-0.9c-2.3-0.333-3.95-1.283-4.95-2.85
			c-0.1-0.167-0.633-0.884-1.6-2.15c-0.7-0.9-1.15-1.684-1.35-2.35c-0.067-0.301-0.1-1.15-0.1-2.551c0-1.066-0.25-1.85-0.75-2.35
			c-0.467-0.5-1.317-0.866-2.55-1.1c-1.4-0.267-2.317-0.534-2.75-0.801c-1.434-0.899-2.4-2.449-2.9-4.649
			c-0.333-1.467-0.15-3.3,0.55-5.5c0.3-0.9,0.333-1.667,0.1-2.3C6.833,72.383,6.55,71.667,6.35,71
			c-0.167-0.667-0.083-1.583,0.25-2.75c0.333-1.167,0.4-2.067,0.2-2.7c-1.367-4.367-2.083-6.8-2.15-7.3
			c-0.367-2.6,0.233-4.983,1.8-7.15c0.333-0.467,1.466-1.567,3.4-3.3c1.367-1.267,2.25-2.566,2.65-3.9
			c0.567-1.967,1.167-3.333,1.8-4.1c0.9-1.133,2.217-1.733,3.95-1.8c0.833-0.033,1.317-0.083,1.45-0.15
			c0.1-0.033,0.45-0.333,1.05-0.9c0.733-0.733,1.817-1.267,3.25-1.6c0.867-0.167,1.35-0.283,1.45-0.35c0.2-0.167,0.183-0.6-0.05-1.3
			c-0.066-0.233-0.3-0.733-0.7-1.5c-0.3-0.6-0.467-1.15-0.5-1.65c-0.1-1.466,0.233-2.816,1-4.05c1.066-1.4,1.9-2.517,2.5-3.35
			c0.267-0.367,0.85-1.583,1.75-3.65c0.633-1.433,1.55-2.45,2.75-3.05l0.4-0.2c1.9-0.733,4.083-0.317,6.55,1.25
			C39.85,17.933,40.35,18.467,40.65,19.1z"/>
	</g>
	<path style="fill-rule:evenodd;clip-rule:evenodd;fill:#1F330F;" d="M20.7,56.35c0,1.033-0.4,1.9-1.2,2.6
		c-0.767,0.733-1.717,1.1-2.85,1.1c-1.1,0-2.033-0.367-2.8-1.1c-0.8-0.7-1.2-1.567-1.2-2.6c0-1,0.4-1.85,1.2-2.55
		c0.767-0.733,1.7-1.1,2.8-1.1c1.133,0,2.083,0.367,2.85,1.1C20.3,54.5,20.7,55.35,20.7,56.35z"/>
	<path style="fill-rule:evenodd;clip-rule:evenodd;fill:#1F330F;" d="M40.25,21.55c0,0.333-0.134,0.6-0.4,0.8
		c-0.233,0.233-0.533,0.35-0.899,0.35c-0.334,0-0.634-0.117-0.9-0.35c-0.233-0.2-0.35-0.467-0.35-0.8c0-0.3,0.116-0.566,0.35-0.8
		c0.267-0.233,0.566-0.35,0.9-0.35c0.333,0,0.633,0.117,0.899,0.35S40.25,21.25,40.25,21.55z"/>
	<path style="fill-rule:evenodd;clip-rule:evenodd;fill:#1F330F;" d="M57,86.1c0,0.7-0.267,1.301-0.8,1.801
		c-0.5,0.466-1.134,0.699-1.9,0.699s-1.416-0.233-1.95-0.699c-0.533-0.5-0.8-1.101-0.8-1.801c0-0.666,0.267-1.25,0.8-1.75
		c0.534-0.5,1.184-0.75,1.95-0.75c0.733,0,1.367,0.25,1.9,0.75S57,85.434,57,86.1z"/>
	<path style="fill-rule:evenodd;clip-rule:evenodd;fill:#1F330F;" d="M59.2,80.75c0,0.267-0.084,0.483-0.25,0.65
		c-0.2,0.166-0.434,0.25-0.7,0.25s-0.5-0.084-0.7-0.25c-0.2-0.167-0.3-0.384-0.3-0.65c0-0.233,0.1-0.45,0.3-0.65
		c0.2-0.166,0.434-0.25,0.7-0.25s0.5,0.084,0.7,0.25C59.116,80.267,59.2,80.483,59.2,80.75z"/>
	<path style="fill-rule:evenodd;clip-rule:evenodd;fill:#1F330F;" d="M20.95,93.95c0,0.6-0.317,0.899-0.95,0.899
		c-0.267,0-0.5-0.083-0.7-0.25c-0.2-0.166-0.3-0.383-0.3-0.649c0-0.233,0.1-0.45,0.3-0.65c0.2-0.166,0.434-0.25,0.7-0.25
		C20.633,93.05,20.95,93.35,20.95,93.95z"/>
	<path style="fill-rule:evenodd;clip-rule:evenodd;fill:#1A2B0F;" d="M34.05,122.55l1.25,2.8l0.05,3.95
		c0.034,2.967,0.017,5.267-0.05,6.9c-0.1,2.633,0.066,7.399,0.5,14.3c-0.434-4.3-0.767-8-1-11.1c-0.166-2-0.25-3.801-0.25-5.4
		c0-1.8,0-3.3,0-4.5c0-1.467-0.083-3.066-0.25-4.8L34.05,122.55z"/>
	<path style="fill-rule:evenodd;clip-rule:evenodd;fill:#1A2B0F;" d="M37.05,127.35l0.65,1.551l-0.75,10.6
		c-0.101-1.434-0.15-3.116-0.15-5.05L37.05,127.35z"/>
	<polygon style="fill-rule:evenodd;clip-rule:evenodd;fill:#1A2B0F;" points="55.8,118.3 56.45,117.25 55.65,124.7 	"/>
	<path style="fill-rule:evenodd;clip-rule:evenodd;fill:#1A2B0F;" d="M33.4,13.45c0.2-1.133,0.333-2.483,0.4-4.05
		c0.133-3.167-0.167-5.867-0.9-8.1c0.333,0.367,0.65,1.133,0.95,2.3c0.633,2.367,0.95,5.617,0.95,9.75L33.4,13.45z"/>
	<path style="fill-rule:evenodd;clip-rule:evenodd;fill:#1A2B0F;" d="M34.65,13.2c-0.134-0.8-0.134-1.717,0-2.75
		c0.199-2.067,0.883-3.633,2.05-4.7c-0.4,0.433-0.717,1.117-0.95,2.05c-0.434,1.833-0.2,3.934,0.7,6.3L34.65,13.2z"/>
	<path style="fill-rule:evenodd;clip-rule:evenodd;fill:#1A2B0F;" d="M19.35,33.85l-1.15,1.4c-0.034-4.167-0.467-6.55-1.3-7.15
		c-0.233-0.2-0.5-0.217-0.8-0.05c-0.123,0.074-0.23,0.157-0.325,0.25c1.006-1.167,1.898-0.617,2.675,1.65
		C18.85,31.117,19.15,32.417,19.35,33.85z"/>
</g>
</svg>
