<?xml version="1.0" encoding="iso-8859-1"?>
<!-- Generator: Adobe Illustrator 15.1.0, SVG Export Plug-In . SVG Version: 6.00 Build 0)  -->
<!DOCTYPE svg PUBLIC "-//W3C//DTD SVG 1.1//EN" "http://www.w3.org/Graphics/SVG/1.1/DTD/svg11.dtd">
<svg version="1.1" id="Layer_3" xmlns="http://www.w3.org/2000/svg" xmlns:xlink="http://www.w3.org/1999/xlink" x="0px" y="0px"
	 width="94.4px" height="114.35px" viewBox="0 0 94.4 114.35" style="enable-background:new 0 0 94.4 114.35;" xml:space="preserve"
	>
<symbol  id="flash0.ai_x5F_0_x2F_Layer_3_x2F__x3C_Group_x3E__x5F_19" viewBox="0 -11.033 28.606 11.089">
	<g id="Layer_1_16_">
		<g>
			<path style="fill-rule:evenodd;clip-rule:evenodd;fill:#FBD9C3;" d="M28.05-4c0.067-0.433,0.15-1.083,0.25-1.95
				c0.233-1.133,0.333-1.933,0.3-2.4c-0.067-0.967-0.533-1.45-1.4-1.45c-0.367,0-0.75-0.133-1.15-0.4
				c-0.667-0.433-1.017-0.65-1.05-0.65c-0.8-0.367-1.533-0.183-2.2,0.55c-0.867,1.033-1.466,1.633-1.8,1.8
				c-0.433,0.2-0.817,0.283-1.15,0.25l-0.7-0.15c-0.267-0.067-0.483-0.067-0.65,0c-0.267,0.333-0.517,0.533-0.75,0.6
				C17.383-7.9,17.133-7.967,17-8c-1.2-0.333-2.117-0.383-2.75-0.15c-0.333,0.133-0.567,0.217-0.7,0.25
				C13.25-7.8,13-7.783,12.8-7.85c-0.2-0.033-0.667-0.267-1.4-0.7c-0.6-0.333-1.117-0.434-1.55-0.3
				C9.683-8.783,9.383-8.567,8.95-8.2c-0.367,0.267-0.7,0.383-1,0.35c-0.067,0-0.434-0.217-1.1-0.65C6.35-8.8,5.8-8.817,5.2-8.55
				c-0.1,0.033-0.35,0.433-0.75,1.2C4.117-6.75,3.8-6.567,3.5-6.8L2.75-7.45c-0.6-0.566-1.117-0.633-1.55-0.2
				C1.033-7.517,0.9-7.267,0.8-6.9C0.667-6.533,0.55-6.283,0.45-6.15C0.217-5.983,0.067-5.833,0-5.7c0,0.034,0.05,0.317,0.15,0.85
				c0.434,1.533,1.033,2.783,1.8,3.75C3.117,0.333,7.767,0.433,15.9-0.8C23.9-2.033,27.95-3.1,28.05-4z"/>
		</g>
	</g>
</symbol>
<symbol  id="flash0.ai_x5F_0_x2F_Layer_3_x2F__x3C_Group_x3E__x5F_20" viewBox="0.063 -29.76 88.838 29.785">
	<g id="Layer_1_15_">
		<g>
			<path style="fill-rule:evenodd;clip-rule:evenodd;fill:#FBD9C3;" d="M87.4-16.1c1.033-1.2,1.533-3.05,1.5-5.55
				c0-2.7-0.7-4.817-2.1-6.35c-0.533-0.567-1.383-0.7-2.55-0.4c-1.467,0.367-2.383,0.517-2.75,0.45
				c-0.333-0.066-1.017-0.466-2.05-1.2c-0.833-0.533-1.583-0.717-2.25-0.55c-0.5,0.133-1.034,0.617-1.6,1.45
				c-0.567,0.933-0.95,1.567-1.15,1.9c-0.567,1.1-1.034,1.917-1.4,2.45c-0.6,0.967-1.25,1.633-1.95,2
				c-1.167,0.566-2.533-0.083-4.1-1.95c-1.6-1.933-3.017-2.667-4.25-2.2c-0.367,0.167-0.783,0.617-1.25,1.35
				c-0.333,0.534-0.833,0.75-1.5,0.65c-0.733-0.1-1.333-0.017-1.8,0.25c-0.1,0.066-0.567,0.5-1.4,1.3
				c-1.2,1.167-2.75,1.367-4.65,0.6c-2.7-1.067-4.3-1.6-4.8-1.6c-0.567,0.067-1.017,0.083-1.35,0.05c-0.467-0.1-0.933-0.3-1.4-0.6
				c-0.567-0.4-1-0.7-1.3-0.9c-1.033-0.733-1.833-1.183-2.4-1.35c-0.933-0.3-1.783-0.15-2.55,0.45c-0.4,0.434-0.717,0.75-0.95,0.95
				c-0.433,0.333-0.85,0.483-1.25,0.45c-0.333-0.033-0.767-0.267-1.3-0.7c-0.633-0.467-1.067-0.75-1.3-0.85
				c-1.333-0.567-2.633-0.6-3.9-0.1c-0.9,0.333-2,1.083-3.3,2.25c-0.867,0.767-1.333,1.184-1.4,1.25
				c-0.6,0.434-1.167,0.684-1.7,0.75c-0.533,0.1-1.083-0.033-1.65-0.4c-0.667-0.433-1.167-0.667-1.5-0.7
				c-0.233,0-0.467,0.083-0.7,0.25c-0.233,0.167-0.45,0.25-0.65,0.25s-0.633-0.283-1.3-0.85c-0.267-0.267-0.667-0.667-1.2-1.2
				c-0.467-0.433-0.933-0.717-1.4-0.85c-1.233-0.367-2.184-0.183-2.85,0.55c-0.333,0.5-0.6,0.883-0.8,1.15
				C10.833-23.217,10.417-23,9.95-23c-0.767,0-1.5-0.7-2.2-2.1c-0.367-0.733-0.667-1.25-0.9-1.55c-0.434-0.533-0.934-0.833-1.5-0.9
				c-0.6-0.067-1.133,0.05-1.6,0.35c-1,0.534-1.733,1.167-2.2,1.9c-0.2,0.3-0.466,1-0.8,2.1c-1.667,4.9-0.3,11.3,4.1,19.2
				c0.767,1.367,2.267,2.35,4.5,2.95c1.3,0.367,3.133,0.65,5.5,0.85c5.133,0.4,10.917,0.267,17.35-0.4C36-1,41.733-1.817,49.4-3.05
				c1.967-0.3,4.6-0.883,7.9-1.75c3.8-0.967,6.434-1.6,7.9-1.9C76.567-8.867,83.967-12,87.4-16.1z"/>
		</g>
	</g>
</symbol>
<symbol  id="flash0.ai_x5F_0_x2F_Layer_3_x2F__x3C_Path_x3E_" viewBox="0.015 -11.515 21.241 11.515">
	<g id="Layer_1_18_">
		
			<linearGradient id="SVGID_1_" gradientUnits="userSpaceOnUse" x1="19616.4063" y1="-7644.5332" x2="19638.7168" y2="-7644.5332" gradientTransform="matrix(-0.6767 0.7362 -0.7362 -0.6767 7668.4663 -19635.125)">
			<stop  offset="0" style="stop-color:#000000"/>
			<stop  offset="1" style="stop-color:#FFFFFF"/>
		</linearGradient>
		<path style="fill-rule:evenodd;clip-rule:evenodd;fill:url(#SVGID_1_);" d="M20.45-3.3c0.733-0.934,0.966-1.75,0.7-2.45
			c-0.267-0.8-1.083-1.3-2.45-1.5c-0.934-0.167-2.983-0.433-6.15-0.8c-2.333-0.3-4.117-0.6-5.35-0.9
			c-0.467-0.1-1.934-0.716-4.4-1.85c-1.767-0.767-2.683-0.917-2.75-0.45c-0.133,0.767,0.117,1.833,0.75,3.2
			c0.767,1.6,1.817,2.966,3.15,4.1c1.367,1.167,2.983,2.133,4.85,2.9c1.633,0.7,2.967,1.05,4,1.05C16.167,0,18.717-1.1,20.45-3.3z"
			/>
	</g>
</symbol>
<symbol  id="flash0.ai_x5F_0_x2F_Layer_3_x2F__x3C_Path_x3E__x5F_0" viewBox="-0.193 -4.155 8.919 4.191">
	<g id="Layer_1_24_">
		<path style="fill-rule:evenodd;clip-rule:evenodd;fill:#459691;" d="M6.85-1.85c-2.467-1.433-4.483-2.2-6.05-2.3
			c-1.5-0.067-1.3,0.566,0.6,1.9S5.183-0.167,7.05,0C9.35,0.2,9.283-0.417,6.85-1.85z"/>
	</g>
</symbol>
<symbol  id="flash0.ai_x5F_0_x2F_Layer_3_x2F__x3C_Path_x3E__x5F_1" viewBox="0.007 -38.576 47.846 38.702">
	<g id="Layer_1_17_">
		
			<linearGradient id="SVGID_2_" gradientUnits="userSpaceOnUse" x1="19029.4102" y1="-11671.0098" x2="19080.3496" y2="-11671.0098" gradientTransform="matrix(-0.8908 0.4545 -0.4545 -0.8908 11703.6924 -19081.084)">
			<stop  offset="0" style="stop-color:#000000"/>
			<stop  offset="1" style="stop-color:#FFFFFF"/>
		</linearGradient>
		<path style="fill-rule:evenodd;clip-rule:evenodd;fill:url(#SVGID_2_);" d="M47.4-2.05c0.833-1.2,0.517-2.7-0.95-4.5
			c-1.5-1.833-3.967-3.65-7.4-5.45c-2.533-1.333-7.2-3.6-14-6.8c-5.066-2.367-9-4.45-11.8-6.25c-1.7-1.1-4.267-4.083-7.7-8.95
			c-2.7-3.8-4.333-5.233-4.9-4.3c-0.933,1.433-0.85,3.933,0.25,7.5c1.067,3.566,2.917,7.483,5.55,11.75
			c2.4,3.933,6.017,7.716,10.85,11.35c4.267,3.233,7.767,5.184,10.5,5.85C38.867,0.85,45.4,0.783,47.4-2.05z"/>
	</g>
</symbol>
<symbol  id="flash0.ai_x5F_0_x2F_Layer_3_x2F__x3C_Path_x3E__x5F_15" viewBox="0.01 -1.969 2.775 1.975">
	<g id="Layer_1_14_">
		<path style="fill-rule:evenodd;clip-rule:evenodd;fill:#499F9F;" d="M1.45-0.05c1.033-0.2,1.466-0.617,1.3-1.25
			S2.033-2.117,1.1-1.85c-0.867,0.233-1.217,0.633-1.05,1.2C0.217-0.083,0.683,0.117,1.45-0.05z"/>
	</g>
</symbol>
<symbol  id="flash0.ai_x5F_0_x2F_Layer_3_x2F__x3C_Path_x3E__x5F_16" viewBox="-0.001 -2.778 3.884 2.805">
	<g id="Layer_1_13_">
		<path style="fill-rule:evenodd;clip-rule:evenodd;fill:#499F9F;" d="M2.3-0.25c1.667-1.1,2.017-1.867,1.05-2.3
			C2.35-2.983,1.417-2.8,0.55-2c-0.7,0.633-0.733,1.183-0.1,1.65C1.05,0.117,1.667,0.15,2.3-0.25z"/>
	</g>
</symbol>
<symbol  id="flash0.ai_x5F_0_x2F_Layer_3_x2F__x3C_Path_x3E__x5F_17" viewBox="-0.054 -1.952 4.568 1.954">
	<g id="Layer_1_12_">
		<path style="fill-rule:evenodd;clip-rule:evenodd;fill:#499F9F;" d="M3.5-0.15c1.3-0.4,1.35-0.867,0.15-1.4
			c-1.2-0.5-2.25-0.534-3.15-0.1c-0.8,0.4-0.733,0.816,0.2,1.25C1.633,0.033,2.567,0.117,3.5-0.15z"/>
	</g>
</symbol>
<symbol  id="flash0.ai_x5F_0_x2F_Layer_3_x2F__x3C_Path_x3E__x5F_18" viewBox="-0.028 -2.508 2.401 2.48">
	<g id="Layer_1_11_">
		<path style="fill-rule:evenodd;clip-rule:evenodd;fill:#499F9F;" d="M1.55-0.1c0.833,0.233,1.034-0.1,0.6-1
			c-0.467-0.867-1-1.333-1.6-1.4c-0.6-0.067-0.733,0.283-0.4,1.05C0.45-0.717,0.917-0.267,1.55-0.1z"/>
	</g>
</symbol>
<symbol  id="flash0.ai_x5F_0_x2F_Layer_3_x2F__x3C_Path_x3E__x5F_19" viewBox="-0.095 -5.479 6.257 5.48">
	<g id="Layer_1_10_">
		<path style="fill-rule:evenodd;clip-rule:evenodd;fill:#499F9F;" d="M5.45,0c1.2-0.033,0.883-1-0.95-2.9
			C2.633-4.8,1.25-5.65,0.35-5.45c-0.867,0.233-0.467,1.2,1.2,2.9C3.183-0.817,4.483,0.033,5.45,0z"/>
	</g>
</symbol>
<symbol  id="flash0.ai_x5F_0_x2F_Layer_3_x2F__x3C_Path_x3E__x5F_1_x5F_0" viewBox="0.05 -2.738 9.401 2.738">
	<g id="Layer_1_23_">
		<path style="fill-rule:evenodd;clip-rule:evenodd;fill:#459691;" d="M3.85-0.2c3.767-0.533,5.633-1.183,5.6-1.95
			c-0.034-0.8-1.9-0.783-5.6,0.05c-2.533,0.567-3.8,1.117-3.8,1.65C0.05,0.05,1.317,0.133,3.85-0.2z"/>
	</g>
</symbol>
<symbol  id="flash0.ai_x5F_0_x2F_Layer_3_x2F__x3C_Path_x3E__x5F_2" viewBox="-0.031 -5.266 7.631 5.337">
	<g id="Layer_1_22_">
		<path style="fill-rule:evenodd;clip-rule:evenodd;fill:#459691;" d="M4.9-0.45C7.3-1.217,8.1-2.4,7.3-4
			C6.533-5.6,4.833-5.683,2.2-4.25c-1.967,1.067-2.633,2.167-2,3.3C0.833,0.217,2.4,0.383,4.9-0.45z"/>
	</g>
</symbol>
<symbol  id="flash0.ai_x5F_0_x2F_Layer_3_x2F__x3C_Path_x3E__x5F_20" viewBox="-0.032 -1.894 4.37 1.944">
	<g id="Layer_1_9_">
		<path style="fill-rule:evenodd;clip-rule:evenodd;fill:#499F9F;" d="M3.4-0.35C4.633-1.117,4.65-1.6,3.45-1.8
			C2.217-2.033,1.2-1.833,0.4-1.2c-0.7,0.534-0.55,0.917,0.45,1.15C1.883,0.15,2.733,0.05,3.4-0.35z"/>
	</g>
</symbol>
<symbol  id="flash0.ai_x5F_0_x2F_Layer_3_x2F__x3C_Path_x3E__x5F_21" viewBox="-0.017 -4.174 7.307 4.174">
	<g id="Layer_1_8_">
		<path style="fill-rule:evenodd;clip-rule:evenodd;fill:#499F9F;" d="M3.4,0c1.733,0,2.917-0.433,3.55-1.3S7.333-2.9,6.2-3.5
			C5.167-4.033,4-4.25,2.7-4.15c-1.1,0.1-1.934,0.367-2.5,0.8C-0.233-2.983-0.017-2.333,0.85-1.4C1.75-0.467,2.6,0,3.4,0z"/>
	</g>
</symbol>
<symbol  id="flash0.ai_x5F_0_x2F_Layer_3_x2F__x3C_Path_x3E__x5F_22" viewBox="-0.028 -3.053 8.185 3.053">
	<g id="Layer_1_7_">
		<path style="fill-rule:evenodd;clip-rule:evenodd;fill:#499F9F;" d="M4.15,0C5.183,0,6.133-0.25,7-0.75
			c0.833-0.5,1.217-1.033,1.15-1.6c-0.033-0.5-0.933-0.733-2.7-0.7C3.783-3.017,2.267-2.8,0.9-2.4c-1.167,0.3-1.233,0.783-0.2,1.45
			C1.733-0.317,2.883,0,4.15,0z"/>
	</g>
</symbol>
<symbol  id="flash0.ai_x5F_0_x2F_Layer_3_x2F__x3C_Path_x3E__x5F_23" viewBox="-0.047 -5.74 9.451 5.788">
	<g id="Layer_1_6_">
		<path style="fill-rule:evenodd;clip-rule:evenodd;fill:#499F9F;" d="M9.35-0.45C9.55-0.917,9.2-1.6,8.3-2.5
			C6.033-4.9,3.783-5.967,1.55-5.7C-0.417-5.467-0.567-4.6,1.1-3.1c1.6,1.434,3.417,2.4,5.45,2.9C8.183,0.2,9.117,0.117,9.35-0.45z"
			/>
	</g>
</symbol>
<symbol  id="flash0.ai_x5F_0_x2F_Layer_3_x2F__x3C_Path_x3E__x5F_25" viewBox="-0.045 -2.416 3.058 2.499">
	<g id="Layer_1_5_">
		<path style="fill-rule:evenodd;clip-rule:evenodd;fill:#499F9F;" d="M1.85-0.15c1.066-0.6,1.4-1.2,1-1.8
			C2.417-2.517,1.733-2.567,0.8-2.1c-0.833,0.467-1.05,1-0.65,1.6C0.583,0.133,1.15,0.25,1.85-0.15z"/>
	</g>
</symbol>
<symbol  id="flash0.ai_x5F_0_x2F_Layer_3_x2F__x3C_Path_x3E__x5F_26" viewBox="-0.025 -3.073 4.047 3.085">
	<g id="Layer_1_4_">
		<path style="fill-rule:evenodd;clip-rule:evenodd;fill:#499F9F;" d="M3.8-1.6C3.167-2.8,2.267-3.267,1.1-3
			c-1,0.233-1.333,0.783-1,1.65C0.467-0.483,1.083-0.033,1.95,0C3.783,0.1,4.4-0.433,3.8-1.6z"/>
	</g>
</symbol>
<symbol  id="flash0.ai_x5F_0_x2F_Layer_3_x2F__x3C_Path_x3E__x5F_27" viewBox="-0.006 -2.375 2.719 2.425">
	<g id="Layer_1_3_">
		<path style="fill-rule:evenodd;clip-rule:evenodd;fill:#499F9F;" d="M1.15-0.05C2.283-0.55,2.8-1.1,2.7-1.7
			C2.567-2.3,2.017-2.5,1.05-2.3c-0.867,0.2-1.2,0.683-1,1.45C0.217-0.05,0.583,0.217,1.15-0.05z"/>
	</g>
</symbol>
<symbol  id="flash0.ai_x5F_0_x2F_Layer_3_x2F__x3C_Path_x3E__x5F_28" viewBox="-0.025 -4.216 4.147 4.232">
	<g id="Layer_1_2_">
		<path style="fill-rule:evenodd;clip-rule:evenodd;fill:#499F9F;" d="M3.45-2.1c-1-1.533-1.95-2.233-2.85-2.1
			c-0.833,0.133-0.833,0.833,0,2.1c0.833,1.3,1.667,2,2.5,2.1C4.333,0.133,4.45-0.567,3.45-2.1z"/>
	</g>
</symbol>
<symbol  id="flash0.ai_x5F_0_x2F_Layer_3_x2F__x3C_Path_x3E__x5F_3" viewBox="-0.023 -3.408 4.631 3.372">
	<g id="Layer_1_21_">
		<path style="fill-rule:evenodd;clip-rule:evenodd;fill:#459691;" d="M2.4-0.05c1.333-0.067,2.067-0.7,2.2-1.9
			c0.1-1.167-0.684-1.633-2.35-1.4S-0.167-2.483,0-1.45C0.2-0.417,1,0.05,2.4-0.05z"/>
	</g>
</symbol>
<symbol  id="flash0.ai_x5F_0_x2F_Layer_3_x2F__x3C_Path_x3E__x5F_4" viewBox="-0.163 -5.152 13.281 5.235">
	<g id="Layer_1_20_">
		<path style="fill-rule:evenodd;clip-rule:evenodd;fill:#459691;" d="M9.4-0.5c2.3-0.867,3.533-1.667,3.7-2.4
			c0.133-0.667-0.5-1.2-1.9-1.6c-3.434-1-6.6-0.85-9.5,0.45c-2.534,1.1-2.483,2.183,0.15,3.25C4.483,0.267,7,0.367,9.4-0.5z"/>
	</g>
</symbol>
<symbol  id="flash0.ai_x5F_0_x2F_Layer_3_x2F__x3C_Path_x3E__x5F_5" viewBox="-0.105 -3.668 8.797 3.684">
	<g id="Layer_1_19_">
		<path style="fill-rule:evenodd;clip-rule:evenodd;fill:#459691;" d="M5.75-0.05c3.333-0.4,3.833-1.184,1.5-2.35
			c-2.4-1.233-4.45-1.567-6.15-1c-1.5,0.5-1.6,1.233-0.3,2.2C2.133-0.2,3.783,0.183,5.75-0.05z"/>
	</g>
</symbol>
<g>
	
		<radialGradient id="SVGID_3_" cx="54.75" cy="71.6504" r="29" gradientTransform="matrix(-1 0 0 -0.7974 109.5 128.7854)" gradientUnits="userSpaceOnUse">
		<stop  offset="0.4235" style="stop-color:#228B8F"/>
		<stop  offset="0.651" style="stop-color:#258D91"/>
		<stop  offset="0.8471" style="stop-color:#309396"/>
		<stop  offset="1" style="stop-color:#3E9A9D"/>
	</radialGradient>
	<path style="fill-rule:evenodd;clip-rule:evenodd;fill:url(#SVGID_3_);" d="M37.6,98.2c0.233-1.5,1.066-3.25,2.5-5.25
		c1.733-2.134,2.917-3.684,3.55-4.65c0.5-0.733,1.4-2.316,2.7-4.75c1.1-2,2.1-3.533,3-4.6c1.667-2,3.233-3.15,4.7-3.45
		c1.434-0.333,3.134,0.1,5.101,1.3c1.133,0.667,2.25,1.917,3.35,3.75c0.634,1,1.5,2.5,2.6,4.5c2.233,3.5,4,6.767,5.301,9.8
		c0.366,0.801,0.75,1.784,1.149,2.95c0.167,0.467,0.434,1.184,0.8,2.15c0.233,0.866,0.334,1.633,0.301,2.3
		c-0.634,0.233-1.434,0.283-2.4,0.15c-1.1-0.233-1.9-0.384-2.4-0.45c-0.833-0.134-2.033-0.233-3.6-0.3
		c-1.7-0.067-2.917-0.15-3.65-0.25c-0.433-0.067-2.05-0.434-4.85-1.101c-2.066-0.5-3.7-0.7-4.9-0.6
		c-0.6,0.066-1.483,0.233-2.649,0.5c-1.2,0.267-2.1,0.416-2.7,0.45c-2.267,0.233-3.9,0.3-4.9,0.199
		C38.333,100.65,37.333,99.767,37.6,98.2z"/>
	
		<use xlink:href="#flash0.ai_x5F_0_x2F_Layer_3_x2F__x3C_Path_x3E__x5F_28"  width="4.147" height="4.232" x="-0.025" y="-4.216" transform="matrix(1 0 0 -1 48.9502 77.2998)" style="overflow:visible;opacity:0.1914;enable-background:new    ;"/>
	
		<use xlink:href="#flash0.ai_x5F_0_x2F_Layer_3_x2F__x3C_Path_x3E__x5F_27"  width="2.719" height="2.425" x="-0.006" y="-2.375" transform="matrix(1 0 0 -1 55.6504 76.7002)" style="overflow:visible;opacity:0.1914;enable-background:new    ;"/>
	
		<use xlink:href="#flash0.ai_x5F_0_x2F_Layer_3_x2F__x3C_Path_x3E__x5F_26"  width="4.047" height="3.085" x="-0.025" y="-3.073" transform="matrix(1 0 0 -1 50.3496 81.75)" style="overflow:visible;opacity:0.1914;enable-background:new    ;"/>
	
		<use xlink:href="#flash0.ai_x5F_0_x2F_Layer_3_x2F__x3C_Path_x3E__x5F_25"  width="3.058" height="2.499" x="-0.045" y="-2.416" transform="matrix(1 0 0 -1 55.75 81.4004)" style="overflow:visible;opacity:0.1914;enable-background:new    ;"/>
	
		<radialGradient id="SVGID_4_" cx="41" cy="79.25" r="61.725" gradientTransform="matrix(1 0 0 -0.4583 0 115.5689)" gradientUnits="userSpaceOnUse">
		<stop  offset="0.4235" style="stop-color:#228B8F"/>
		<stop  offset="0.651" style="stop-color:#258D91"/>
		<stop  offset="0.8471" style="stop-color:#309396"/>
		<stop  offset="1" style="stop-color:#3E9A9D"/>
	</radialGradient>
	<path style="fill-rule:evenodd;clip-rule:evenodd;fill:url(#SVGID_4_);" d="M40,89.25c1.867,0.967,4.033,1.184,6.5,0.65
		c3.6-0.767,5.8-1.15,6.6-1.15c1.567,0.033,2.934,0.45,4.101,1.25c0.833,0.533,1.8,1.483,2.899,2.85c1,1.233,1.733,2.051,2.2,2.45
		c1,0.867,2.05,1.384,3.15,1.55c0.533,0.067,1.783-0.033,3.75-0.3c1.434-0.2,2.616-0.017,3.55,0.55c2.233,1.4,4.283,3.367,6.15,5.9
		c0.966,1.267,1.483,2.116,1.55,2.55c0.133,0.8-0.566,1.25-2.101,1.351c-1.333,0.1-2.949,0.116-4.85,0.05
		c-2.2-0.101-3.833-0.167-4.9-0.2c-7.3-0.066-12.767-0.2-16.399-0.4c-1.5-0.066-3.7,0.051-6.6,0.351
		c-2.967,0.333-5.2,0.467-6.7,0.399c-7.2-0.267-12.617-0.517-16.25-0.75c-6.267-0.366-11.683-0.933-16.25-1.699
		c-4.7-0.9-6.816-1.9-6.35-3C1.617,97.783,4.8,94.017,9.6,90.35c6.5-5.033,12.333-7.616,17.5-7.75c2.3-0.033,4.633,0.784,7,2.45
		C35.4,85.95,37.367,87.35,40,89.25z"/>
	
		<use xlink:href="#flash0.ai_x5F_0_x2F_Layer_3_x2F__x3C_Path_x3E__x5F_23"  width="9.451" height="5.788" x="-0.047" y="-5.74" transform="matrix(1 0 0 -1 13.7998 84.8496)" style="overflow:visible;opacity:0.1914;enable-background:new    ;"/>
	
		<use xlink:href="#flash0.ai_x5F_0_x2F_Layer_3_x2F__x3C_Path_x3E__x5F_22"  width="8.185" height="3.053" x="-0.028" y="-3.053" transform="matrix(1 0 0 -1 24.2998 83.4004)" style="overflow:visible;opacity:0.1914;enable-background:new    ;"/>
	
		<use xlink:href="#flash0.ai_x5F_0_x2F_Layer_3_x2F__x3C_Path_x3E__x5F_21"  width="7.307" height="4.174" x="-0.017" y="-4.174" transform="matrix(1 0 0 -1 21.3999 86.9004)" style="overflow:visible;opacity:0.1914;enable-background:new    ;"/>
	
		<use xlink:href="#flash0.ai_x5F_0_x2F_Layer_3_x2F__x3C_Path_x3E__x5F_20"  width="4.37" height="1.944" x="-0.032" y="-1.894" transform="matrix(1 0 0 -1 31.2998 87.4502)" style="overflow:visible;opacity:0.1914;enable-background:new    ;"/>
	
		<use xlink:href="#flash0.ai_x5F_0_x2F_Layer_3_x2F__x3C_Path_x3E__x5F_19"  width="6.257" height="5.48" x="-0.095" y="-5.479" transform="matrix(1 0 0 -1 5.5 90.7998)" style="overflow:visible;opacity:0.1914;enable-background:new    ;"/>
	
		<use xlink:href="#flash0.ai_x5F_0_x2F_Layer_3_x2F__x3C_Path_x3E__x5F_18"  width="2.401" height="2.48" x="-0.028" y="-2.508" transform="matrix(1 0 0 -1 11.5 91.9004)" style="overflow:visible;opacity:0.1914;enable-background:new    ;"/>
	
		<use xlink:href="#flash0.ai_x5F_0_x2F_Layer_3_x2F__x3C_Path_x3E__x5F_17"  width="4.568" height="1.954" x="-0.054" y="-1.952" transform="matrix(1 0 0 -1 49.0996 88.9004)" style="overflow:visible;opacity:0.1914;enable-background:new    ;"/>
	
		<use xlink:href="#flash0.ai_x5F_0_x2F_Layer_3_x2F__x3C_Path_x3E__x5F_16"  width="3.884" height="2.805" x="-0.001" y="-2.778" transform="matrix(1 0 0 -1 54 90.1504)" style="overflow:visible;opacity:0.1914;enable-background:new    ;"/>
	
		<use xlink:href="#flash0.ai_x5F_0_x2F_Layer_3_x2F__x3C_Path_x3E__x5F_15"  width="2.775" height="1.975" x="0.01" y="-1.969" transform="matrix(1 0 0 -1 51.75 92.2002)" style="overflow:visible;opacity:0.1914;enable-background:new    ;"/>
	
		<linearGradient id="SVGID_5_" gradientUnits="userSpaceOnUse" x1="73.7646" y1="-66.4106" x2="89.5864" y2="-66.4106" gradientTransform="matrix(-0.1469 0.9891 -0.9891 -0.1469 -2.381057e-004 -2.661049e-004)">
		<stop  offset="0" style="stop-color:#242224"/>
		<stop  offset="0.2118" style="stop-color:#27252E"/>
		<stop  offset="0.5765" style="stop-color:#302E49"/>
		<stop  offset="0.6353" style="stop-color:#32304E"/>
		<stop  offset="1" style="stop-color:#617D84"/>
	</linearGradient>
	<path style="fill-rule:evenodd;clip-rule:evenodd;fill:url(#SVGID_5_);" d="M53.4,86.6c0.066-0.333,0.283-0.666,0.649-1
		c0.367-0.333,0.75-0.517,1.15-0.55c0.566-0.033,1.116,0.233,1.649,0.8c-0.1-0.033-0.233-0.05-0.399-0.05
		c-0.334-0.033-0.601-0.017-0.8,0.05c-0.233,0.101-0.467,0.334-0.7,0.7c-0.101,0.2-0.184,0.384-0.25,0.55l1.05-0.5
		c0.467-0.199,0.917-0.166,1.35,0.101c0.5,0.3,0.784,0.866,0.851,1.7c0.1,1.233-0.134,2.1-0.7,2.6c0.066-0.134,0.066-0.4,0-0.8
		c-0.1-0.434-0.217-0.767-0.35-1c-0.134-0.334-0.267-0.584-0.4-0.75c-0.2-0.267-0.483-0.351-0.85-0.25
		c-0.367,0.066-0.634,0.399-0.801,1c-0.1,0.3-0.166,0.583-0.199,0.85c0.033-0.1,0.116-0.217,0.25-0.35
		c0.199-0.233,0.466-0.367,0.8-0.4c0.533-0.033,0.833,0.334,0.899,1.101c-0.033-0.101-0.1-0.167-0.199-0.2
		c-0.2-0.101-0.434-0.033-0.7,0.2c-0.367,0.366-0.316,1.25,0.149,2.649c-0.933,0.134-1.633,0.084-2.1-0.149l-1.95-0.7
		c0.634-0.434,1.017-1.134,1.15-2.101c0.133-0.666-0.117-1.283-0.75-1.85c-0.334-0.333-0.566-0.55-0.7-0.65
		c-0.233-0.199-0.483-0.283-0.75-0.25c-0.233,0.034-0.417,0.134-0.55,0.301c-0.066,0.066-0.117,0.133-0.15,0.199
		c-0.1-0.033-0.017-0.383,0.25-1.05c0.3-0.733,0.934-0.95,1.9-0.649c0.6,0.166,0.95,0.649,1.05,1.449
		C53.25,87.366,53.3,87.033,53.4,86.6z"/>
	<g>
		
			<use xlink:href="#flash0.ai_x5F_0_x2F_Layer_3_x2F__x3C_Group_x3E__x5F_20"  width="88.838" height="29.785" x="0.063" y="-29.76" transform="matrix(1 0 0 -1 5.0498 27.3501)" style="overflow:visible;opacity:0.7617;enable-background:new    ;"/>
		
			<use xlink:href="#flash0.ai_x5F_0_x2F_Layer_3_x2F__x3C_Group_x3E__x5F_19"  width="28.606" height="11.089" y="-11.033" transform="matrix(1 0 0 -1 55.2002 72.5498)" style="overflow:visible;opacity:0.5508;enable-background:new    ;"/>
		
			<linearGradient id="SVGID_6_" gradientUnits="userSpaceOnUse" x1="32.1812" y1="-72.3555" x2="73.0801" y2="-72.3555" gradientTransform="matrix(-0.4401 0.8979 -0.8979 -0.4401 -2.205372e-004 1.784563e-004)">
			<stop  offset="0" style="stop-color:#242224"/>
			<stop  offset="0.2118" style="stop-color:#27252E"/>
			<stop  offset="0.5765" style="stop-color:#302E49"/>
			<stop  offset="0.6353" style="stop-color:#32304E"/>
			<stop  offset="1" style="stop-color:#617D84"/>
		</linearGradient>
		<path style="fill-rule:evenodd;clip-rule:evenodd;fill:url(#SVGID_6_);" d="M50.65,31.6v1.5c0,5.733-0.483,11.017-1.45,15.85
			c0.333,0.033,0.833-0.1,1.5-0.4c1.1-0.4,2.083-1.183,2.95-2.35c0.333-0.434,0.649-1.017,0.949-1.75
			c0.4-0.967,0.667-1.583,0.801-1.85c0.033,0,0.267,0.05,0.699,0.15c0.301,0.067,0.483,0.167,0.551,0.3
			c0.1,0.2-0.067,0.817-0.5,1.85c-0.5,1.6-1.134,2.883-1.9,3.85c-0.866,1.067-2.15,2.083-3.85,3.05
			c-2.867,1.633-4.784,4.35-5.75,8.15c-0.867,3.467-0.767,6.833,0.3,10.1c1.167,3.533,2.1,6.7,2.8,9.5
			c0.267,1.066,0.616,2.684,1.05,4.851c0.434,1.933,0.851,3.533,1.25,4.8c0.634,2,2.017,3.05,4.15,3.149
			c1.566,0.101,3.184-0.466,4.85-1.699c1.134-0.801,2.4-2.017,3.8-3.65c1-1.167,1.7-2.083,2.101-2.75c0.666-1.134,1-2.217,1-3.25
			c0-1.134,0.217-2.517,0.649-4.15c0.567-1.833,0.967-3.183,1.2-4.05l2.55,1.4l-0.75,1.2c-0.566,0.933-0.966,1.75-1.199,2.449
			c-0.2,0.7-0.301,1.483-0.301,2.351c0,1,0.167,1.533,0.5,1.6c0.934,0.233,1.917,0,2.95-0.7c1.267-0.866,2.066-2.267,2.4-4.199
			c0.267,0.066,0.55,0.216,0.85,0.449C74.434,78.783,73.884,80,73.15,81c-0.5,0.667-1.25,1.366-2.25,2.1
			c-0.534,0.4-1.217,0.884-2.051,1.45c-1.199,1.134-1.933,1.851-2.199,2.15c-0.733,0.767-1.434,1.666-2.101,2.7
			c-1.066,1.6-1.767,3.383-2.1,5.35c-0.233,1.267,0.066,2.267,0.899,3c0.467,0.434,1.45,0.95,2.95,1.55
			c0.767,0.334,0.184,0.25-1.75-0.25c-0.5-0.166-1.916-0.383-4.25-0.649c-4.133-0.434-7.233-0.767-9.3-1l-4.3-0.5
			c-2.4-0.367-5.184-0.417-8.35-0.15c-1.797,0.189-4.389,0.556-7.775,1.1c1.545-0.32,3.087-1.221,4.625-2.699
			c1.533-1.467,2.7-3.101,3.5-4.9c1.533-3.4,2.167-7.05,1.9-10.95c-0.7-4.866-1.2-8.883-1.5-12.05c-0.167-2.267-0.667-4.167-1.5-5.7
			c-0.767-1.6-1.517-3.149-2.25-4.65c-0.8-1.667-1.7-3.767-2.7-6.3c-2.066-5.3-3.55-10.217-4.45-14.75l3.75-0.4
			c-0.067,0,0.05,0.883,0.35,2.65c0.233,1.4,0.4,2.35,0.5,2.85c0.067,0.3,0.2,1.183,0.4,2.65c0.167,1.066,0.35,1.933,0.55,2.6
			c0.5,1.466,1.383,3.417,2.65,5.85c1.133,2.1,2.3,3.517,3.5,4.25c0.934,0.534,2.067-0.1,3.4-1.9c0.967-1.4,1.733-2.883,2.3-4.45
			c0.967-2.567,1.45-6,1.45-10.3L46.8,34L50.65,31.6z"/>
		<g>
			<path style="fill-rule:evenodd;clip-rule:evenodd;fill:#FBE6C3;" d="M83.25,75.55c0.066,0.601,0.2,1.517,0.4,2.75
				c0.133,1.066,0.149,1.967,0.05,2.7c0,0.4-0.066,0.684-0.2,0.85c-0.134,0.167-0.233,0.051-0.3-0.35
				c-0.066-0.467-0.167-0.7-0.3-0.7c-0.067,0.033-0.217,0.217-0.45,0.55c-0.167,0.233-0.351,0.334-0.55,0.301
				c-0.167-0.034-0.483-0.217-0.95-0.551c-0.4-0.3-0.767-0.416-1.101-0.35c-0.133,0.033-0.283,0.15-0.449,0.35
				c-0.167,0.2-0.284,0.317-0.351,0.351c-0.566,0.467-1.316,0.2-2.25-0.8c-0.233-0.434-0.434-0.784-0.6-1.051
				c-0.3-0.433-0.584-0.55-0.851-0.35c-0.066,0.033-0.116,0.134-0.149,0.3c-0.066,0.134-0.15,0.233-0.25,0.3
				c-0.101,0.067-0.283,0.034-0.55-0.1c-0.233-0.134-0.4-0.217-0.5-0.25c-0.2-0.1-0.4-0.116-0.601-0.05
				c-0.166,0.066-0.434,0.25-0.8,0.55c-0.333,0.233-0.616,0.384-0.85,0.45c-0.567,0.166-1.217-0.134-1.95-0.9
				c-0.8-0.8-1.467-1.2-2-1.2c-0.467,0.034-1.033,0.317-1.7,0.851c-0.366,0.3-0.85,0.717-1.45,1.25
				c-0.5,0.434-0.967,0.633-1.399,0.6c-0.233-0.033-0.45-0.149-0.65-0.35c-0.233-0.267-0.4-0.434-0.5-0.5
				c-0.2-0.101-0.566-0.101-1.1,0c-0.434,0.066-0.767-0.05-1-0.351c-0.167-0.267-0.301-0.933-0.4-2c0-0.166-0.017-0.316-0.05-0.449
				c-0.033-0.167-0.117-0.267-0.25-0.301c-0.101,0-0.351,0.2-0.75,0.601c-0.066,0.066-0.334,0.366-0.8,0.899
				c-0.334,0.4-0.634,0.684-0.9,0.851c-0.366,0.233-0.616,0.166-0.75-0.2c-0.1-0.5-0.167-0.85-0.2-1.05
				c-0.267,0.3-0.467,0.316-0.6,0.05c-0.066-0.2-0.084-0.467-0.05-0.8c0.033-1.634,0.699-3.233,2-4.8
				c1.133-1.434,5.783-1.534,13.949-0.301C79.066,73.583,83.116,74.65,83.25,75.55z"/>
		</g>
		<g>
			<path style="fill-rule:evenodd;clip-rule:evenodd;fill:#FBE6C3;" d="M88.8,38.8c2.033,2.934,3.367,5.317,4,7.15
				c0.467,1.367,0.75,2.4,0.851,3.1c0.1,0.934,0.017,1.983-0.25,3.15c-0.301,1.3-0.784,2.233-1.45,2.8c-0.8,0.6-1.566,0.367-2.3-0.7
				c-0.767-1.167-1.25-1.85-1.45-2.05c-0.667-0.6-1.384-0.633-2.15-0.1c-0.666,0.533-1.2,0.8-1.6,0.8c-0.3,0-0.783-0.2-1.45-0.6
				c-0.634-0.4-1.134-0.55-1.5-0.45c-0.233,0.067-0.667,0.517-1.3,1.35c-0.467,0.633-1.05,0.817-1.75,0.55
				c-0.8-0.267-1.634-1-2.5-2.2c-0.967-1.367-1.717-2.217-2.25-2.55c-1-0.633-2.134-0.566-3.4,0.2c-1.467,0.9-2.583,1.283-3.35,1.15
				c-0.9-0.167-1.65-0.733-2.25-1.7c-0.267-0.4-0.667-1.3-1.2-2.7c-0.6-1.433-1.283-2.1-2.05-2c-0.533,0.033-1.867,0.717-4,2.05
				c-1.634,1.034-2.8,1.117-3.5,0.25c-0.533-1.267-0.967-2.1-1.3-2.5c-0.334-0.433-1.051-0.033-2.15,1.2
				c-1.566,1.733-2.833,2.867-3.8,3.4c-1.3,0.733-2.65,0.4-4.05-1c-1.333-1.7-2.2-2.75-2.6-3.15c-0.5-0.5-1.233-0.467-2.2,0.1
				C36.317,45.417,34.9,46.3,33.6,47c-1.567,0.9-2.867,1.083-3.9,0.55c-0.967-0.833-1.817-1.333-2.55-1.5
				c-0.7-0.167-1.783,0.667-3.25,2.5c-1.467,1.8-2.617,2.617-3.45,2.45c-0.7-0.133-1.284-0.583-1.75-1.35
				c-0.3-0.633-0.55-1.1-0.75-1.4c-0.367-0.533-0.767-0.617-1.2-0.25c-0.4,0.3-0.883,1.067-1.45,2.3
				c-0.533,1.233-1.267,2.184-2.2,2.85c-0.533,0.4-1.033,0.55-1.5,0.45c-0.367-0.067-0.717-0.283-1.05-0.65
				c-0.367-0.4-0.65-0.7-0.85-0.9c-0.367-0.3-0.617-0.267-0.75,0.1c-0.067,0.233-0.117,0.617-0.15,1.15c-0.167,0.9-0.65,1-1.45,0.3
				c-0.967-0.833-1.567-2.033-1.8-3.6c-0.5-3.167-0.316-6.883,0.55-11.15c0.8-4.233,1.9-7.6,3.3-10.1c0.8-1.4,2.383-2.4,4.75-3
				c1.233-0.333,3.167-0.6,5.8-0.8c5.4-0.467,11.466-0.35,18.2,0.35c5.133,0.534,11.133,1.5,18,2.9c5.166,1.066,7.8,1.6,7.899,1.6
				c3.033,0.7,5.601,1.467,7.7,2.3c1.733,0.7,4.783,1.417,9.15,2.15C84.733,35.183,87.366,36.7,88.8,38.8z"/>
		</g>
		<g>
			
				<linearGradient id="SVGID_7_" gradientUnits="userSpaceOnUse" x1="-61.5576" y1="5.6182" x2="-7.2071" y2="5.6182" gradientTransform="matrix(-0.7291 -0.6844 0.6844 -0.7291 -2.285242e-004 5.443096e-004)">
				<stop  offset="0" style="stop-color:#E04A43"/>
				<stop  offset="1" style="stop-color:#E25F63"/>
			</linearGradient>
			<path style="fill-rule:evenodd;clip-rule:evenodd;fill:url(#SVGID_7_);" d="M82.3,48.5c-0.566,0.733-1.366,0.783-2.399,0.15
				c-0.2-0.133-0.9-0.733-2.101-1.8l-1.05-0.9c-0.366-0.3-0.7-0.5-1-0.6c-0.267-0.067-0.767-0.1-1.5-0.1
				c-1.533,0-2.583-0.117-3.15-0.35c-0.833-0.367-1.55-1.15-2.149-2.35c-0.634-1.2-1.017-1.883-1.15-2.05l-0.7-1.15
				c-0.199-0.434-0.449-0.633-0.75-0.6c-0.233,0.067-0.483,0.233-0.75,0.5c-0.666,0.5-1.333,0.95-2,1.35
				c-0.5,0.367-0.966,0.566-1.399,0.6c-1.334,0.167-2.367-1.083-3.101-3.75L59,37.2c-0.233-0.867-0.6-1.267-1.1-1.2
				c-0.601,0.1-1.584,1.333-2.95,3.7c-0.834,1.367-1.783,2.15-2.851,2.35c-0.699,0.1-1.666-0.183-2.899-0.85L49.1,41.15l-0.6-0.5
				c-0.7-0.633-1.384-0.9-2.05-0.8c-0.534,0.033-1.2,0.283-2,0.75c-0.267,0.167-0.567,0.283-0.9,0.35c-1.3,0.167-2.466-1.167-3.5-4
				c-0.167-0.567-0.383-0.833-0.65-0.8c-0.167,0.033-0.333,0.25-0.5,0.65c-0.467,1.167-0.983,2.15-1.55,2.95
				c-0.7,1.033-1.583,1.633-2.65,1.8c-0.567,0.1-1.1,0.034-1.6-0.2c-0.467-0.2-0.817-0.483-1.05-0.85
				c-0.133-0.2-0.316-0.633-0.55-1.3c-0.267-0.967-0.633-1.417-1.1-1.35c-0.467,0.066-1.117,0.917-1.95,2.55
				c-1.2,2.4-2.65,3.767-4.35,4.1c-0.7,0.067-1.25-0.083-1.65-0.45c-0.167-0.167-0.467-0.683-0.9-1.55
				c-0.267-0.733-0.566-1.083-0.9-1.05c-0.333,0.033-0.617,0.517-0.85,1.45c-0.2,0.9-0.533,1.367-1,1.4
				c-0.4,0.067-1.05-0.233-1.95-0.9c-0.267-0.2-0.567-0.283-0.9-0.25c-0.5,0.067-1.833,1.4-4,4c-1.833,2.233-3.2,2.867-4.1,1.9
				c-0.133-0.133-0.317-0.9-0.55-2.3c-0.167-1.133-0.4-1.467-0.7-1c-0.367,0.667-0.633,1.583-0.8,2.75
				c-0.133,0.7-0.133,1.383,0,2.05c0.167,1.034,0.25,1.567,0.25,1.6c-0.333-0.533-0.617-1.383-0.85-2.55
				c-0.367-1.934-0.4-4.15-0.1-6.65c0.2-1.633,0.6-3.833,1.2-6.6c1.733-7.934,5.267-15.1,10.6-21.5c6.8-8.133,15.3-12.934,25.5-14.4
				C50.667-0.717,58.533,0.333,66,3.6c7.3,3.167,13.45,8.15,18.45,14.95c2.7,3.6,4.833,7.333,6.399,11.2
				c0.9,2.2,1.667,4.667,2.301,7.4c0.666,2.767,1.066,5.333,1.199,7.7c0.067,1.167,0.067,2.316,0,3.45
				c-0.133,2.133-0.449,3.4-0.949,3.8c-0.167,0.2-0.25-0.367-0.25-1.7c0-1.767-0.2-3.017-0.601-3.75c-0.467-0.8-0.866-1-1.2-0.6
				c-0.399,0.833-0.75,1.517-1.05,2.05c-0.467,0.833-1,1.367-1.6,1.6c-0.667,0.233-1.3,0.066-1.9-0.5
				c-0.434-0.434-0.899-1.3-1.399-2.6c-0.167-0.5-0.317-0.917-0.45-1.25c-0.267-0.633-0.55-0.934-0.851-0.9
				c-0.5,0.033-0.883,0.617-1.149,1.75C82.583,47.633,82.366,48.4,82.3,48.5z"/>
		</g>
		<g>
			
				<radialGradient id="SVGID_8_" cx="50.5908" cy="72.5928" r="43.0487" gradientTransform="matrix(0.9902 -0.1399 -0.1171 -0.8284 18.6538 132.0159)" gradientUnits="userSpaceOnUse">
				<stop  offset="0" style="stop-color:#E04A43"/>
				<stop  offset="1" style="stop-color:#C62A33"/>
			</radialGradient>
			<path style="fill-rule:evenodd;clip-rule:evenodd;fill:url(#SVGID_8_);" d="M82.15,80.9c-0.534,0.433-1.167-0.084-1.9-1.551
				c-0.5-0.833-0.917-1.017-1.25-0.55c-0.667,0.834-1.15,1.3-1.45,1.4c-0.5,0.166-0.883-0.334-1.149-1.5
				c-0.233-1.134-0.617-1.634-1.15-1.5c-0.333,0.1-0.9,0.583-1.7,1.45c-0.6,0.733-1.316,1.017-2.149,0.85
				c-0.534-0.066-1.301-0.467-2.301-1.2c-0.767-0.566-1.316-0.717-1.649-0.45c-2.967,2.5-4.917,3-5.851,1.5
				c-0.199-0.366-0.366-0.916-0.5-1.649c-0.133-0.767-0.283-1.316-0.449-1.65c-0.101-0.233-0.167-0.35-0.2-0.35
				c-0.066-0.033-0.2,0-0.4,0.1c-0.3,0.134-0.883,0.634-1.75,1.5c-0.566,0.533-0.95,0.851-1.149,0.95
				c-0.534,0.3-0.884,0.167-1.051-0.4c-0.066-0.267-0.083-0.649-0.05-1.149c0-0.581,0.066-0.956,0.2-1.125
				c-0.141,0.171-0.324,0.579-0.55,1.225c-0.167,0.533-0.3,0.75-0.4,0.65c-0.1-0.3-0.133-0.634-0.1-1c0.033-0.334,0.2-0.967,0.5-1.9
				l0.8-2.149c1.2-2.967,2.717-5.301,4.55-7c2.634-2.434,5.851-3.65,9.65-3.65c2,0,4.05,0.684,6.149,2.05
				c2.9,1.867,4.9,4.717,6,8.55c0.467,1.601,0.75,2.9,0.851,3.9l0.1,1.95c0,0.133,0.017,0.583,0.05,1.35
				c0,0.7-0.066,1.117-0.199,1.25c-0.2,0.134-0.334-0.149-0.4-0.85c-0.066-0.667-0.134-0.967-0.2-0.9
				c-0.133,0.134-0.283,0.45-0.45,0.95C82.467,80.467,82.316,80.767,82.15,80.9z"/>
		</g>
		
			<linearGradient id="SVGID_9_" gradientUnits="userSpaceOnUse" x1="-19.3999" y1="-28.5801" x2="-12.0402" y2="-28.5801" gradientTransform="matrix(-0.9783 -0.2072 0.2072 -0.9783 -7.349253e-005 -6.938279e-004)">
			<stop  offset="0" style="stop-color:#D03D42"/>
			<stop  offset="1" style="stop-color:#E25F63"/>
		</linearGradient>
		<path style="fill-rule:evenodd;clip-rule:evenodd;fill:url(#SVGID_9_);" d="M12.95,27.05c1.3-1.133,2.283-1.233,2.95-0.3
			c0.6,0.9,0.617,2.083,0.05,3.55c-0.6,1.534-1.583,3.1-2.95,4.7c-1.5,1.767-2.717,2.583-3.65,2.45C8.283,37.283,8.167,35.9,9,33.3
			C9.833,30.667,11.15,28.583,12.95,27.05z"/>
		
			<radialGradient id="SVGID_10_" cx="2.4595" cy="30.8472" r="10.0621" gradientTransform="matrix(0.9902 -0.1399 -0.1421 -1.0062 8.6985 61.5815)" gradientUnits="userSpaceOnUse">
			<stop  offset="0" style="stop-color:#FBE6C3"/>
			<stop  offset="1" style="stop-color:#E25F63"/>
		</radialGradient>
		<path style="fill-rule:evenodd;clip-rule:evenodd;fill:url(#SVGID_10_);" d="M12.1,27.3c1.233-1.066,2.15-1.15,2.75-0.25
			c0.566,0.867,0.583,1.983,0.05,3.35c-0.533,1.434-1.433,2.917-2.7,4.45c-1.434,1.667-2.583,2.433-3.45,2.3
			c-0.967-0.133-1.067-1.433-0.3-3.9C9.217,30.717,10.433,28.733,12.1,27.3z"/>
		
			<linearGradient id="SVGID_11_" gradientUnits="userSpaceOnUse" x1="-24.0796" y1="-13.0313" x2="-14.049" y2="-13.0313" gradientTransform="matrix(-0.9745 -0.2243 0.2243 -0.9745 3.789663e-004 8.671433e-004)">
			<stop  offset="0" style="stop-color:#D03D42"/>
			<stop  offset="1" style="stop-color:#E25F63"/>
		</linearGradient>
		<path style="fill-rule:evenodd;clip-rule:evenodd;fill:url(#SVGID_11_);" d="M18.6,16.6c2.333-2.434,3.483-2.8,3.45-1.1
			c-0.033,1.733-0.9,3.35-2.6,4.85c-1.467,1.3-2.267,1.3-2.4,0C16.95,19.05,17.467,17.8,18.6,16.6z"/>
		
			<radialGradient id="SVGID_12_" cx="11.8101" cy="18.2808" r="9.2278" gradientTransform="matrix(0.9902 -0.1398 -0.1419 -1.0052 5.151 36.4761)" gradientUnits="userSpaceOnUse">
			<stop  offset="0" style="stop-color:#FBE6C3"/>
			<stop  offset="1" style="stop-color:#E25F63"/>
		</radialGradient>
		<path style="fill-rule:evenodd;clip-rule:evenodd;fill:url(#SVGID_12_);" d="M18.05,17.25c1.934-2.033,2.9-2.333,2.9-0.9
			c-0.034,1.433-0.767,2.767-2.2,4c-1.2,1.066-1.867,1.066-2,0C16.65,19.283,17.083,18.25,18.05,17.25z"/>
		
			<linearGradient id="SVGID_13_" gradientUnits="userSpaceOnUse" x1="-34.5576" y1="-15.5195" x2="-21.6704" y2="-15.5195" gradientTransform="matrix(-0.9525 -0.3046 0.3046 -0.9525 -1.721978e-004 4.580617e-004)">
			<stop  offset="0" style="stop-color:#D03D42"/>
			<stop  offset="1" style="stop-color:#E25F63"/>
		</linearGradient>
		<path style="fill-rule:evenodd;clip-rule:evenodd;fill:url(#SVGID_13_);" d="M24.45,19.5c2.633-1.633,4.466-1.95,5.5-0.95
			c0.867,0.867,1.017,2.35,0.45,4.45c-0.533,2-2.033,3.917-4.5,5.75c-2.667,1.967-4.683,2.367-6.05,1.2
			c-1.133-0.967-1.15-2.65-0.05-5.05C20.867,22.567,22.417,20.767,24.45,19.5z"/>
		
			<radialGradient id="SVGID_14_" cx="15.8691" cy="24.5171" r="9.3824" gradientTransform="matrix(0.9901 -0.1402 -0.1423 -1.0049 6.9262 48.9113)" gradientUnits="userSpaceOnUse">
			<stop  offset="0" style="stop-color:#FBE6C3"/>
			<stop  offset="1" style="stop-color:#E25F63"/>
		</radialGradient>
		<path style="fill-rule:evenodd;clip-rule:evenodd;fill:url(#SVGID_14_);" d="M23.7,19.8c2.4-1.533,4.066-1.833,5-0.9
			c0.8,0.8,0.95,2.184,0.45,4.15c-0.467,1.8-1.833,3.567-4.1,5.3c-2.433,1.833-4.267,2.217-5.5,1.15c-1.066-0.9-1.1-2.467-0.1-4.7
			C20.417,22.633,21.833,20.967,23.7,19.8z"/>
		<g>
			
				<linearGradient id="SVGID_15_" gradientUnits="userSpaceOnUse" x1="-88.5425" y1="-34.0776" x2="-82.0663" y2="-34.0776" gradientTransform="matrix(-0.9072 -0.4208 0.4208 -0.9072 1.924634e-004 -6.650090e-004)">
				<stop  offset="0" style="stop-color:#D8242B"/>
				<stop  offset="1" style="stop-color:#E25F63"/>
			</linearGradient>
			<path style="fill-rule:evenodd;clip-rule:evenodd;fill:url(#SVGID_15_);" d="M64.25,65.5c1.1-0.6,1.85-0.733,2.25-0.4
				c0.366,0.267,0.417,0.767,0.15,1.5c-0.233,0.667-0.917,1.417-2.051,2.25c-1.233,0.867-2.133,1.117-2.699,0.75
				c-0.467-0.3-0.4-0.949,0.199-1.949C62.7,66.65,63.417,65.934,64.25,65.5z"/>
			
				<radialGradient id="SVGID_16_" cx="47.5352" cy="73.4365" r="8.609" gradientTransform="matrix(0.9903 -0.1393 -0.1133 -0.8058 18.552 131.8976)" gradientUnits="userSpaceOnUse">
				<stop  offset="0" style="stop-color:#FBE6C3"/>
				<stop  offset="1" style="stop-color:#E25F63"/>
			</radialGradient>
			<path style="fill-rule:evenodd;clip-rule:evenodd;fill:url(#SVGID_16_);" d="M63.65,65.65c1-0.534,1.699-0.65,2.1-0.351
				c0.3,0.267,0.333,0.733,0.1,1.4c-0.233,0.6-0.816,1.2-1.75,1.8c-1.033,0.667-1.8,0.816-2.3,0.45
				c-0.434-0.3-0.416-0.816,0.05-1.55C62.25,66.634,62.85,66.05,63.65,65.65z"/>
		</g>
		<g>
			
				<linearGradient id="SVGID_17_" gradientUnits="userSpaceOnUse" x1="-101.7773" y1="32.7021" x2="-89.3536" y2="32.7021" gradientTransform="matrix(-0.4648 -0.8854 0.8854 -0.4648 2.242029e-004 -8.867979e-004)">
				<stop  offset="0" style="stop-color:#D8242B"/>
				<stop  offset="1" style="stop-color:#DE4A4F"/>
			</linearGradient>
			<path style="fill-rule:evenodd;clip-rule:evenodd;fill:url(#SVGID_17_);" d="M76.95,70.3c1.366,0.9,1.783,1.9,1.25,3
				c-0.5,0.934-1.3,1.467-2.4,1.601c-1.6,0.166-2.85-0.233-3.75-1.2c-0.8-0.9-0.967-1.8-0.5-2.7c0.533-0.967,1.367-1.483,2.5-1.55
				C75.017,69.417,75.983,69.7,76.95,70.3z"/>
			
				<radialGradient id="SVGID_18_" cx="91.2939" cy="-37.3804" r="9.3189" gradientTransform="matrix(0.4519 0.8921 0.9536 -0.4831 68.993 -34.948)" gradientUnits="userSpaceOnUse">
				<stop  offset="0" style="stop-color:#FBE6C3"/>
				<stop  offset="0.2863" style="stop-color:#F1B19D"/>
				<stop  offset="0.6157" style="stop-color:#E77A75"/>
				<stop  offset="0.8667" style="stop-color:#E0575B"/>
				<stop  offset="1" style="stop-color:#DE4A52"/>
			</radialGradient>
			<path style="fill-rule:evenodd;clip-rule:evenodd;fill:url(#SVGID_18_);" d="M77.4,70.7c0.533,0.767,0.6,1.517,0.199,2.25
				c-0.399,0.733-1.149,1.116-2.25,1.149c-0.866,0.034-1.683-0.3-2.449-1c-0.867-0.8-1.051-1.649-0.551-2.55
				c0.367-0.633,1.084-1,2.15-1.1C75.733,69.316,76.7,69.733,77.4,70.7z"/>
		</g>
		<g>
			
				<linearGradient id="SVGID_19_" gradientUnits="userSpaceOnUse" x1="-54.5698" y1="32.3477" x2="-23.4248" y2="32.3477" gradientTransform="matrix(-0.595 -0.8038 0.8038 -0.595 6.169081e-005 -3.709793e-004)">
				<stop  offset="0" style="stop-color:#D03D42"/>
				<stop  offset="1" style="stop-color:#E25F63"/>
			</linearGradient>
			<path style="fill-rule:evenodd;clip-rule:evenodd;fill:url(#SVGID_19_);" d="M61.8,17.55c4.033,1.767,5.601,4.067,4.7,6.9
				c-0.767,2.533-2.583,4.183-5.45,4.95c-4.233,1.133-7.633,0.684-10.2-1.35c-2.333-1.9-3.033-4.083-2.1-6.55
				c0.866-2.333,2.65-3.867,5.35-4.6C56.667,16.2,59.233,16.417,61.8,17.55z"/>
			
				<radialGradient id="SVGID_20_" cx="34.2388" cy="-41.8354" r="24.9308" gradientTransform="matrix(0.5827 0.8127 0.9091 -0.6517 72.0315 -51.642)" gradientUnits="userSpaceOnUse">
				<stop  offset="0" style="stop-color:#FBE6C3"/>
				<stop  offset="1" style="stop-color:#E25F63"/>
			</radialGradient>
			<path style="fill-rule:evenodd;clip-rule:evenodd;fill:url(#SVGID_20_);" d="M64.15,19.15c1.8,1.8,2.233,3.633,1.3,5.5
				c-0.967,1.867-3.017,3.167-6.15,3.9c-2.533,0.567-4.95,0.083-7.25-1.45c-2.5-1.7-3.184-3.917-2.05-6.65
				c0.767-1.833,2.65-3.067,5.65-3.7C59.017,16.083,61.85,16.883,64.15,19.15z"/>
		</g>
		<g>
			
				<linearGradient id="SVGID_21_" gradientUnits="userSpaceOnUse" x1="-98.4014" y1="67.1113" x2="-86.3667" y2="67.1113" gradientTransform="matrix(-0.3864 -0.9223 0.6172 -1.1147 -2.013445e-004 1.531243e-004)">
				<stop  offset="0" style="stop-color:#D03D42"/>
				<stop  offset="1" style="stop-color:#E25F63"/>
			</linearGradient>
			<path style="fill-rule:evenodd;clip-rule:evenodd;fill:url(#SVGID_21_);" d="M82.4,19.1c0.066,0.8-0.184,1.15-0.75,1.05
				c-0.834-0.133-1.684-0.717-2.551-1.75c-0.767-0.933-1.199-1.75-1.3-2.45c-0.066-0.733,0.2-1.017,0.8-0.85
				c0.534,0.133,1.184,0.533,1.95,1.2C81.684,17.3,82.3,18.233,82.4,19.1z"/>
			
				<radialGradient id="SVGID_22_" cx="52.2158" cy="-56.2705" r="9.9624" gradientTransform="matrix(0.5821 0.8131 0.3488 -0.2497 65.38 -46.8081)" gradientUnits="userSpaceOnUse">
				<stop  offset="0" style="stop-color:#FBE6C3"/>
				<stop  offset="1" style="stop-color:#E25F63"/>
			</radialGradient>
			<path style="fill-rule:evenodd;clip-rule:evenodd;fill:url(#SVGID_22_);" d="M81,16.75c0.634,0.767,0.983,1.45,1.05,2.05
				c0.033,0.6-0.267,0.817-0.899,0.65c-0.5-0.133-1.117-0.567-1.851-1.3c-0.833-0.867-1.267-1.65-1.3-2.35
				c-0.033-0.5,0.25-0.7,0.85-0.6C79.517,15.3,80.233,15.817,81,16.75z"/>
		</g>
		<g>
			
				<linearGradient id="SVGID_23_" gradientUnits="userSpaceOnUse" x1="-82.1816" y1="58.6709" x2="-57.2562" y2="58.6709" gradientTransform="matrix(-0.4303 -0.9027 0.6729 -0.9124 -2.139807e-005 -5.273223e-004)">
				<stop  offset="0" style="stop-color:#D03D42"/>
				<stop  offset="1" style="stop-color:#E25F63"/>
			</linearGradient>
			<path style="fill-rule:evenodd;clip-rule:evenodd;fill:url(#SVGID_23_);" d="M78.9,28.3c-2.034-0.033-3.95-1.1-5.75-3.2
				c-1.667-1.934-2.483-3.65-2.45-5.15c0-1.667,0.733-2.434,2.2-2.3c1.267,0.133,2.767,0.867,4.5,2.2
				c2.466,1.933,3.683,3.883,3.649,5.85C81.017,27.467,80.3,28.333,78.9,28.3z"/>
			
				<radialGradient id="SVGID_24_" cx="44.9277" cy="-51.9531" r="20.4523" gradientTransform="matrix(0.5826 0.8128 0.4535 -0.3251 65.7896 -47.1548)" gradientUnits="userSpaceOnUse">
				<stop  offset="0" style="stop-color:#FBE6C3"/>
				<stop  offset="1" style="stop-color:#E25F63"/>
			</radialGradient>
			<path style="fill-rule:evenodd;clip-rule:evenodd;fill:url(#SVGID_24_);" d="M78.3,20.8c1.334,1.534,1.983,2.967,1.95,4.3
				c-0.033,1.333-0.816,1.917-2.35,1.75c-1.2-0.1-2.601-0.917-4.2-2.45c-1.767-1.7-2.617-3.333-2.55-4.9
				c0.066-1.1,0.816-1.633,2.25-1.6C75.033,17.933,76.667,18.9,78.3,20.8z"/>
		</g>
		<g>
			
				<linearGradient id="SVGID_25_" gradientUnits="userSpaceOnUse" x1="-86.0977" y1="42.7129" x2="-60.0402" y2="42.7129" gradientTransform="matrix(-0.7023 -0.7119 0.1319 -1.2902 4.829466e-004 7.393360e-004)">
				<stop  offset="0" style="stop-color:#D03D42"/>
				<stop  offset="1" style="stop-color:#E25F63"/>
			</linearGradient>
			<path style="fill-rule:evenodd;clip-rule:evenodd;fill:url(#SVGID_25_);" d="M68.15,5.9c3.133,1.1,5.233,2.517,6.3,4.25
				c0.934,1.467,0.967,2.3,0.1,2.5c-1.833,0.434-4.033,0.033-6.6-1.2C65.55,10.317,64,9.1,63.3,7.8
				c-0.866-1.533-0.783-2.433,0.25-2.7C64.45,4.867,65.983,5.133,68.15,5.9z"/>
			
				<radialGradient id="SVGID_26_" cx="43.0576" cy="-32.4106" r="22.8934" gradientTransform="matrix(0.8469 0.5318 0.2211 -0.3522 24.4033 -38.862)" gradientUnits="userSpaceOnUse">
				<stop  offset="0" style="stop-color:#FBE6C3"/>
				<stop  offset="1" style="stop-color:#E25F63"/>
			</radialGradient>
			<path style="fill-rule:evenodd;clip-rule:evenodd;fill:url(#SVGID_26_);" d="M70.15,6.25c2,1.067,3.316,2.2,3.949,3.4
				c0.667,1.2,0.267,1.9-1.199,2.1c-1.2,0.133-2.9-0.283-5.101-1.25c-2.5-1.133-4.116-2.417-4.85-3.85
				c-0.5-0.967-0.084-1.6,1.25-1.9C65.7,4.383,67.684,4.883,70.15,6.25z"/>
		</g>
		<g>
			
				<linearGradient id="SVGID_27_" gradientUnits="userSpaceOnUse" x1="-115.7988" y1="43.7358" x2="-106.4881" y2="43.7358" gradientTransform="matrix(-0.4081 -0.9129 0.7333 -0.81 2.414882e-004 7.405877e-004)">
				<stop  offset="0" style="stop-color:#D8242B"/>
				<stop  offset="1" style="stop-color:#DE4A4F"/>
			</linearGradient>
			<path style="fill-rule:evenodd;clip-rule:evenodd;fill:url(#SVGID_27_);" d="M79.2,67.3c0.934,0.733,1.366,1.467,1.3,2.2
				c-0.033,0.634-0.333,0.95-0.9,0.95c-0.8-0.033-1.55-0.434-2.25-1.2c-0.633-0.7-0.916-1.333-0.85-1.9
				c0.066-0.633,0.4-0.933,1-0.899C78,66.517,78.566,66.8,79.2,67.3z"/>
			
				<radialGradient id="SVGID_28_" cx="94.8311" cy="-32.0474" r="7.3956" gradientTransform="matrix(0.5423 0.8402 1.0612 -0.6849 60.9355 -39.3271)" gradientUnits="userSpaceOnUse">
				<stop  offset="0" style="stop-color:#FBE6C3"/>
				<stop  offset="0.0588" style="stop-color:#F7D3B5"/>
				<stop  offset="0.2078" style="stop-color:#F0A997"/>
				<stop  offset="0.3608" style="stop-color:#E9877E"/>
				<stop  offset="0.5137" style="stop-color:#E46C6B"/>
				<stop  offset="0.6706" style="stop-color:#E1595D"/>
				<stop  offset="0.8314" style="stop-color:#DF4E55"/>
				<stop  offset="1" style="stop-color:#DE4A52"/>
			</radialGradient>
			<path style="fill-rule:evenodd;clip-rule:evenodd;fill:url(#SVGID_28_);" d="M79.55,67.6c0.434,0.567,0.634,1.101,0.601,1.601
				c-0.067,0.467-0.384,0.684-0.95,0.649c-0.467-0.066-0.983-0.383-1.55-0.949c-0.634-0.634-0.9-1.25-0.801-1.851
				c0.067-0.399,0.367-0.583,0.9-0.55C78.384,66.5,78.983,66.866,79.55,67.6z"/>
		</g>
		<g>
			
				<linearGradient id="SVGID_29_" gradientUnits="userSpaceOnUse" x1="-98.7715" y1="-17.7437" x2="-89.2436" y2="-17.7437" gradientTransform="matrix(-0.8396 -0.5431 0.5431 -0.8396 3.955960e-004 -2.045035e-004)">
				<stop  offset="0" style="stop-color:#D8242B"/>
				<stop  offset="1" style="stop-color:#E25F63"/>
			</linearGradient>
			<path style="fill-rule:evenodd;clip-rule:evenodd;fill:url(#SVGID_29_);" d="M72.9,65.4c1.033,0.399,1.483,0.983,1.35,1.75
				c-0.134,0.666-0.583,1.133-1.35,1.399c-1.434,0.467-2.717,0.5-3.851,0.101c-1.166-0.4-1.633-1.051-1.399-1.95
				c0.166-0.7,0.75-1.217,1.75-1.55C70.5,64.816,71.667,64.9,72.9,65.4z"/>
			
				<radialGradient id="SVGID_30_" cx="91.5879" cy="-5.2227" r="7.9992" gradientTransform="matrix(0.7094 0.7048 0.7594 -0.7642 7.6469 -7.6963)" gradientUnits="userSpaceOnUse">
				<stop  offset="0" style="stop-color:#FBE6C3"/>
				<stop  offset="1" style="stop-color:#E25F63"/>
			</radialGradient>
			<path style="fill-rule:evenodd;clip-rule:evenodd;fill:url(#SVGID_30_);" d="M72.2,65.1c0.967,0.334,1.434,0.851,1.399,1.551
				c-0.066,0.633-0.416,1.116-1.05,1.449c-1.133,0.5-2.184,0.467-3.149-0.1c-0.967-0.566-1.25-1.2-0.851-1.9
				c0.3-0.566,0.816-0.933,1.55-1.1C70.767,64.8,71.467,64.833,72.2,65.1z"/>
		</g>
		<g>
			
				<linearGradient id="SVGID_31_" gradientUnits="userSpaceOnUse" x1="-70.9004" y1="-73.7524" x2="-67.0234" y2="-73.7524" gradientTransform="matrix(-0.9995 0.0322 0.0065 -1.0007 4.844768e-004 1.102164e-004)">
				<stop  offset="0" style="stop-color:#D8242B"/>
				<stop  offset="1" style="stop-color:#E25F63"/>
			</linearGradient>
			<path style="fill-rule:evenodd;clip-rule:evenodd;fill:url(#SVGID_31_);" d="M69.55,70.55c0.434-0.1,0.7-0.017,0.8,0.25
				c0.101,0.267,0.067,0.533-0.1,0.8c-0.366,0.5-0.783,0.817-1.25,0.95c-0.467,0.134-0.767,0.017-0.9-0.35
				c-0.1-0.267-0.017-0.566,0.25-0.9C68.616,70.934,69.017,70.684,69.55,70.55z"/>
			
				<radialGradient id="SVGID_32_" cx="79.4746" cy="55.4897" r="3.1991" gradientTransform="matrix(0.9807 0.1954 0.2188 -1.098 -22.9822 115.346)" gradientUnits="userSpaceOnUse">
				<stop  offset="0" style="stop-color:#FBE6C3"/>
				<stop  offset="1" style="stop-color:#E25F63"/>
			</radialGradient>
			<path style="fill-rule:evenodd;clip-rule:evenodd;fill:url(#SVGID_32_);" d="M69.25,70.6c0.4-0.1,0.667-0.033,0.8,0.2
				c0.134,0.233,0.117,0.483-0.05,0.75c-0.267,0.434-0.616,0.667-1.05,0.7s-0.667-0.116-0.7-0.45
				C68.184,71.167,68.517,70.767,69.25,70.6z"/>
		</g>
		<g>
			
				<linearGradient id="SVGID_33_" gradientUnits="userSpaceOnUse" x1="-74.604" y1="-68.9053" x2="-60.6075" y2="-68.9053" gradientTransform="matrix(-0.9985 -0.0554 0.1161 -0.9951 -6.598234e-005 -9.375624e-004)">
				<stop  offset="0" style="stop-color:#D8242B"/>
				<stop  offset="1" style="stop-color:#E25F63"/>
			</linearGradient>
			<path style="fill-rule:evenodd;clip-rule:evenodd;fill:url(#SVGID_33_);" d="M63.25,71.15c0.967-0.934,1.75-1.301,2.35-1.101
				c0.5,0.167,0.767,0.667,0.801,1.5C66.467,72.283,66.1,73.1,65.3,74c-0.833,0.934-1.633,1.3-2.399,1.1
				c-0.667-0.166-0.95-0.683-0.851-1.55C62.15,72.684,62.55,71.884,63.25,71.15z"/>
			
				<radialGradient id="SVGID_34_" cx="14.5352" cy="89.7109" r="5.1707" gradientTransform="matrix(0.9138 -0.4061 -0.4642 -0.7712 88.2577 146.6364)" gradientUnits="userSpaceOnUse">
				<stop  offset="0" style="stop-color:#FBE6C3"/>
				<stop  offset="1" style="stop-color:#E25F63"/>
			</radialGradient>
			<path style="fill-rule:evenodd;clip-rule:evenodd;fill:url(#SVGID_34_);" d="M62.45,71.2c0.8-0.834,1.6-1.167,2.399-1
				c0.7,0.133,1.084,0.533,1.15,1.2c0.066,0.666-0.283,1.433-1.05,2.3c-0.767,0.866-1.5,1.2-2.2,1c-0.6-0.2-0.934-0.684-1-1.45
				C61.65,72.483,61.884,71.8,62.45,71.2z"/>
		</g>
		<g>
			
				<linearGradient id="SVGID_35_" gradientUnits="userSpaceOnUse" x1="-85.9512" y1="-36.1895" x2="-79.7349" y2="-36.1895" gradientTransform="matrix(-0.8928 -0.4504 0.4504 -0.8928 -3.206730e-005 -5.978644e-004)">
				<stop  offset="0" style="stop-color:#D8242B"/>
				<stop  offset="1" style="stop-color:#E25F63"/>
			</linearGradient>
			<path style="fill-rule:evenodd;clip-rule:evenodd;fill:url(#SVGID_35_);" d="M59.2,70.1c0.467-0.533,0.85-0.816,1.149-0.85
				c0.267,0,0.4,0.167,0.4,0.5c0.033,0.3-0.167,0.717-0.6,1.25c-0.467,0.6-0.884,0.917-1.25,0.95
				c-0.334,0.033-0.45-0.167-0.351-0.601C58.616,70.917,58.833,70.5,59.2,70.1z"/>
			
				<radialGradient id="SVGID_36_" cx="-9.3911" cy="89.3945" r="7.4171" gradientTransform="matrix(0.8207 -0.5713 -0.3842 -0.3994 97.1068 100.9399)" gradientUnits="userSpaceOnUse">
				<stop  offset="0" style="stop-color:#FBE6C3"/>
				<stop  offset="1" style="stop-color:#E25F63"/>
			</radialGradient>
			<path style="fill-rule:evenodd;clip-rule:evenodd;fill:url(#SVGID_36_);" d="M58.9,70.2c0.433-0.467,0.783-0.717,1.05-0.75
				c0.233,0,0.35,0.149,0.35,0.45c0.033,0.267-0.149,0.649-0.55,1.149c-0.4,0.533-0.783,0.816-1.15,0.851
				c-0.3,0.033-0.399-0.15-0.3-0.551C58.366,70.983,58.566,70.6,58.9,70.2z"/>
		</g>
		<g>
			
				<linearGradient id="SVGID_37_" gradientUnits="userSpaceOnUse" x1="-87.1689" y1="56.2832" x2="-80.8586" y2="56.2832" gradientTransform="matrix(-0.1862 -0.9825 0.9458 -0.3798 -1.920313e-004 3.017783e-004)">
				<stop  offset="0" style="stop-color:#D8242B"/>
				<stop  offset="1" style="stop-color:#E25F63"/>
			</linearGradient>
			<path style="fill-rule:evenodd;clip-rule:evenodd;fill:url(#SVGID_37_);" d="M69.55,62.75c0.867-0.167,1.417-0.134,1.65,0.1
				c0.166,0.2,0.1,0.467-0.2,0.801c-0.3,0.333-0.866,0.6-1.7,0.8c-0.899,0.2-1.5,0.166-1.8-0.101
				c-0.233-0.233-0.116-0.517,0.35-0.85C68.35,63.134,68.917,62.884,69.55,62.75z"/>
			
				<radialGradient id="SVGID_38_" cx="76.1367" cy="53.9087" r="8.3939" gradientTransform="matrix(0.9963 0.0864 0.1147 -0.6329 -15.8334 87.3929)" gradientUnits="userSpaceOnUse">
				<stop  offset="0" style="stop-color:#FBE6C3"/>
				<stop  offset="1" style="stop-color:#E25F63"/>
			</radialGradient>
			<path style="fill-rule:evenodd;clip-rule:evenodd;fill:url(#SVGID_38_);" d="M69.25,62.6c0.767-0.133,1.267-0.1,1.5,0.101
				c0.167,0.2,0.1,0.45-0.2,0.75C70.283,63.75,69.767,64,69,64.2c-0.8,0.2-1.333,0.166-1.6-0.101c-0.233-0.199-0.134-0.466,0.3-0.8
				C68.1,62.967,68.616,62.733,69.25,62.6z"/>
		</g>
		<g>
			
				<linearGradient id="SVGID_39_" gradientUnits="userSpaceOnUse" x1="-40.0713" y1="98.0947" x2="-34.6224" y2="98.0947" gradientTransform="matrix(0.679 -0.7341 1.0345 0.3543 2.049208e-004 2.159476e-004)">
				<stop  offset="0" style="stop-color:#D8242B"/>
				<stop  offset="1" style="stop-color:#E25F63"/>
			</linearGradient>
			<path style="fill-rule:evenodd;clip-rule:evenodd;fill:url(#SVGID_39_);" d="M75.2,63.55c0.6,0.367,0.866,0.684,0.8,0.95
				c-0.033,0.2-0.267,0.35-0.7,0.45c-0.366,0.066-0.866-0.066-1.5-0.4c-0.666-0.333-0.983-0.666-0.95-1
				c0.034-0.3,0.317-0.45,0.851-0.45C74.233,63.134,74.733,63.283,75.2,63.55z"/>
			
				<radialGradient id="SVGID_40_" cx="92.2939" cy="-20.0044" r="6.4899" gradientTransform="matrix(0.6375 0.7704 0.6876 -0.468 30.3645 -20.668)" gradientUnits="userSpaceOnUse">
				<stop  offset="0" style="stop-color:#FBE6C3"/>
				<stop  offset="1" style="stop-color:#E25F63"/>
			</radialGradient>
			<path style="fill-rule:evenodd;clip-rule:evenodd;fill:url(#SVGID_40_);" d="M75.1,63.3c0.567,0.334,0.817,0.617,0.75,0.851
				c-0.033,0.199-0.25,0.333-0.649,0.399c-0.367,0.066-0.834-0.05-1.4-0.35c-0.6-0.3-0.883-0.617-0.85-0.95
				c0.033-0.233,0.3-0.35,0.8-0.35S74.7,63.033,75.1,63.3z"/>
		</g>
		<g>
			
				<linearGradient id="SVGID_41_" gradientUnits="userSpaceOnUse" x1="-90.6396" y1="5.6689" x2="-87.0458" y2="5.6689" gradientTransform="matrix(-0.6678 -0.7443 0.8788 -0.5179 -2.049804e-004 5.717874e-004)">
				<stop  offset="0" style="stop-color:#D8242B"/>
				<stop  offset="1" style="stop-color:#E25F63"/>
			</linearGradient>
			<path style="fill-rule:evenodd;clip-rule:evenodd;fill:url(#SVGID_41_);" d="M65,63.7c0.967-0.367,1.3-0.334,1,0.1
				c-0.1,0.167-0.384,0.351-0.85,0.55c-0.467,0.2-0.801,0.284-1,0.25c-0.2-0.033-0.2-0.149,0-0.35
				C64.35,64.05,64.634,63.866,65,63.7z"/>
			
				<radialGradient id="SVGID_42_" cx="46.1523" cy="74.8516" r="4.4324" gradientTransform="matrix(0.9786 -0.2059 -0.0931 -0.3864 24.5019 101.7203)" gradientUnits="userSpaceOnUse">
				<stop  offset="0" style="stop-color:#FBE6C3"/>
				<stop  offset="1" style="stop-color:#E25F63"/>
			</radialGradient>
			<path style="fill-rule:evenodd;clip-rule:evenodd;fill:url(#SVGID_42_);" d="M64.65,63.7c0.733-0.267,1-0.233,0.8,0.1
				c-0.101,0.134-0.316,0.267-0.65,0.4c-0.366,0.166-0.633,0.233-0.8,0.2c-0.167-0.034-0.167-0.117,0-0.25
				C64.134,63.983,64.35,63.833,64.65,63.7z"/>
		</g>
		<g>
			
				<linearGradient id="SVGID_43_" gradientUnits="userSpaceOnUse" x1="-49.1123" y1="10.8052" x2="-41.7134" y2="10.8052" gradientTransform="matrix(-0.8718 -0.4899 0.4899 -0.8718 8.070469e-005 -3.206134e-004)">
				<stop  offset="0" style="stop-color:#D03D42"/>
				<stop  offset="1" style="stop-color:#E25F63"/>
			</linearGradient>
			<path style="fill-rule:evenodd;clip-rule:evenodd;fill:url(#SVGID_43_);" d="M49.7,14c0.733,0.267,1.066,0.6,1,1
				c-0.033,0.333-0.316,0.65-0.851,0.95c-0.5,0.233-1.133,0.267-1.899,0.1c-0.8-0.233-1.184-0.6-1.15-1.1
				c0.034-0.434,0.4-0.75,1.101-0.95C48.533,13.8,49.134,13.8,49.7,14z"/>
			
				<radialGradient id="SVGID_44_" cx="46.3071" cy="-18.2422" r="2.9641" gradientTransform="matrix(0.7675 0.641 0.6073 -0.873 21.5358 -30.9579)" gradientUnits="userSpaceOnUse">
				<stop  offset="0" style="stop-color:#FBE6C3"/>
				<stop  offset="1" style="stop-color:#E25F63"/>
			</radialGradient>
			<path style="fill-rule:evenodd;clip-rule:evenodd;fill:url(#SVGID_44_);" d="M49,14.1c0.566,0.133,0.85,0.35,0.85,0.65
				c0.034,0.233-0.133,0.467-0.5,0.7c-0.366,0.233-0.833,0.3-1.399,0.2c-0.601-0.1-0.917-0.333-0.95-0.7
				c-0.033-0.3,0.2-0.55,0.7-0.75C48.167,14,48.6,13.967,49,14.1z"/>
		</g>
		
			<linearGradient id="SVGID_45_" gradientUnits="userSpaceOnUse" x1="-34.5796" y1="10.0078" x2="-28.0748" y2="10.0078" gradientTransform="matrix(-0.8225 -0.5688 0.5688 -0.8225 -4.853010e-004 7.387996e-004)">
			<stop  offset="0" style="stop-color:#D03D42"/>
			<stop  offset="1" style="stop-color:#E25F63"/>
		</linearGradient>
		<path style="fill-rule:evenodd;clip-rule:evenodd;fill:url(#SVGID_45_);" d="M31.15,6.45c2.7-1.067,4.483-1.133,5.35-0.2
			c0.833,0.9,0.417,1.95-1.25,3.15c-1.533,1.1-3.217,2-5.05,2.7c-2.034,0.8-3.45,0.983-4.25,0.55c-0.8-0.433-0.467-1.45,1-3.05
			C28.35,8.067,29.75,7.017,31.15,6.45z"/>
		
			<radialGradient id="SVGID_46_" cx="24.5918" cy="10.3833" r="7.4229" gradientTransform="matrix(0.9902 -0.1396 -0.1417 -1.0053 2.9202 20.7202)" gradientUnits="userSpaceOnUse">
			<stop  offset="0" style="stop-color:#FBE6C3"/>
			<stop  offset="1" style="stop-color:#E25F63"/>
		</radialGradient>
		<path style="fill-rule:evenodd;clip-rule:evenodd;fill:url(#SVGID_46_);" d="M30,6.35c2.6-1,4.317-1.083,5.15-0.25
			c0.767,0.767,0.417,1.733-1.05,2.9c-1.4,1.133-2.95,2.1-4.65,2.9c-1.934,0.867-3.3,1.117-4.1,0.75
			c-0.867-0.4-0.733-1.383,0.4-2.95C26.85,8.133,28.267,7.017,30,6.35z"/>
		
			<linearGradient id="SVGID_47_" gradientUnits="userSpaceOnUse" x1="-32.7759" y1="21.2529" x2="-26.8323" y2="21.2529" gradientTransform="matrix(-0.8202 -0.572 0.5823 -0.8131 -4.019141e-004 -6.279945e-004)">
			<stop  offset="0" style="stop-color:#D03D42"/>
			<stop  offset="1" style="stop-color:#E25F63"/>
		</linearGradient>
		<path style="fill-rule:evenodd;clip-rule:evenodd;fill:url(#SVGID_47_);" d="M42,1.4c2.667-0.333,3.717-0.283,3.15,0.15
			c-0.6,0.4-2.4,0.983-5.4,1.75c-3.1,0.767-4.167,0.717-3.2-0.15C37.55,2.283,39.367,1.7,42,1.4z"/>
		
			<radialGradient id="SVGID_48_" cx="33.1362" cy="6.7119" r="6.4135" gradientTransform="matrix(0.9901 -0.1402 -0.1424 -1.0057 1.8965 13.3956)" gradientUnits="userSpaceOnUse">
			<stop  offset="0" style="stop-color:#FBE6C3"/>
			<stop  offset="1" style="stop-color:#E25F63"/>
		</radialGradient>
		<path style="fill-rule:evenodd;clip-rule:evenodd;fill:url(#SVGID_48_);" d="M41.8,1.35c2.167-0.233,2.983-0.167,2.45,0.2
			c-0.533,0.333-2.1,0.833-4.7,1.5c-2.6,0.667-3.466,0.65-2.6-0.05C38.017,2.133,39.633,1.583,41.8,1.35z"/>
		
			<linearGradient id="SVGID_49_" gradientUnits="userSpaceOnUse" x1="-42.9736" y1="5.1079" x2="-31.1887" y2="5.1079" gradientTransform="matrix(-0.8888 -0.4582 0.4582 -0.8888 -2.658367e-004 1.982749e-004)">
			<stop  offset="0" style="stop-color:#D03D42"/>
			<stop  offset="1" style="stop-color:#E25F63"/>
		</linearGradient>
		<path style="fill-rule:evenodd;clip-rule:evenodd;fill:url(#SVGID_49_);" d="M41.3,10.35c1.733,0.6,2.483,1.6,2.25,3
			c-0.233,1.367-1.333,2.566-3.3,3.6c-1.967,1.033-3.65,1.267-5.05,0.7c-1.3-0.533-1.817-1.583-1.55-3.15
			c0.267-1.433,0.983-2.533,2.15-3.3C37.633,10.033,39.467,9.75,41.3,10.35z"/>
		
			<radialGradient id="SVGID_50_" cx="27.709" cy="17.209" r="10.5165" gradientTransform="matrix(0.9901 -0.1403 -0.1425 -1.0056 4.868 34.3436)" gradientUnits="userSpaceOnUse">
			<stop  offset="0" style="stop-color:#FBE6C3"/>
			<stop  offset="1" style="stop-color:#E25F63"/>
		</radialGradient>
		<path style="fill-rule:evenodd;clip-rule:evenodd;fill:url(#SVGID_50_);" d="M35.1,11.6c1.633-1.167,3.3-1.55,5-1.15
			c1.667,0.4,2.433,1.25,2.3,2.55c-0.133,1.233-1.066,2.383-2.8,3.45c-1.767,1.1-3.317,1.433-4.65,1
			c-1.267-0.367-1.817-1.267-1.65-2.7C33.467,13.417,34.067,12.367,35.1,11.6z"/>
		
			<linearGradient id="SVGID_51_" gradientUnits="userSpaceOnUse" x1="-39.5537" y1="26.1343" x2="-29.9761" y2="26.1343" gradientTransform="matrix(-0.7857 -0.6186 0.6186 -0.7857 -1.661181e-004 -3.212094e-004)">
			<stop  offset="0" style="stop-color:#D03D42"/>
			<stop  offset="1" style="stop-color:#E25F63"/>
		</linearGradient>
		<path style="fill-rule:evenodd;clip-rule:evenodd;fill:url(#SVGID_51_);" d="M44.7,4.35c4.233-2.133,7.983-2.283,11.25-0.45
			c1.3,0.733,2.033,1.567,2.2,2.5c0.166,1-0.367,1.817-1.601,2.45c-1.366,0.7-3.166,1.066-5.399,1.1c-2.567,0.066-4.8-0.367-6.7-1.3
			c-0.9-0.433-1.333-1.117-1.3-2.05C43.183,5.6,43.7,4.85,44.7,4.35z"/>
		
			<radialGradient id="SVGID_52_" cx="41.1519" cy="4.707" r="13.3289" gradientTransform="matrix(0.982 -0.1889 -0.1919 -0.9977 1.792 9.3183)" gradientUnits="userSpaceOnUse">
			<stop  offset="0" style="stop-color:#FBE6C3"/>
			<stop  offset="1" style="stop-color:#E25F63"/>
		</radialGradient>
		<path style="fill-rule:evenodd;clip-rule:evenodd;fill:url(#SVGID_52_);" d="M43.95,4.4c3.934-2.267,7.533-2.6,10.8-1
			c1.267,0.633,2,1.4,2.2,2.3c0.2,0.966-0.283,1.783-1.45,2.45c-1.2,0.667-3.017,1.033-5.45,1.1c-2.6,0.1-4.683-0.2-6.25-0.9
			c-1.033-0.434-1.5-1.067-1.4-1.9C42.467,5.65,42.983,4.967,43.95,4.4z"/>
		
			<linearGradient id="SVGID_53_" gradientUnits="userSpaceOnUse" x1="-43.7573" y1="-14.3223" x2="-34.6221" y2="-14.3223" gradientTransform="matrix(-0.9387 -0.3448 0.3448 -0.9387 -3.412962e-004 -8.892119e-004)">
			<stop  offset="0" style="stop-color:#D03D42"/>
			<stop  offset="1" style="stop-color:#E25F63"/>
		</linearGradient>
		<path style="fill-rule:evenodd;clip-rule:evenodd;fill:url(#SVGID_53_);" d="M34.8,27.15c2-1.6,3.35-1.583,4.05,0.05
			c0.733,1.633,0.233,2.883-1.5,3.75c-1.5,0.767-2.567,0.533-3.2-0.7C33.517,29.05,33.733,28.017,34.8,27.15z"/>
		
			<radialGradient id="SVGID_54_" cx="26.0391" cy="29.1211" r="8.2184" gradientTransform="matrix(0.9902 -0.1396 -0.1418 -1.0053 8.1943 58.1122)" gradientUnits="userSpaceOnUse">
			<stop  offset="0" style="stop-color:#FBE6C3"/>
			<stop  offset="1" style="stop-color:#E25F63"/>
		</radialGradient>
		<path style="fill-rule:evenodd;clip-rule:evenodd;fill:url(#SVGID_54_);" d="M34.7,26.95c1.767-1.4,2.95-1.4,3.55,0
			c0.633,1.433,0.2,2.517-1.3,3.25c-1.3,0.667-2.233,0.466-2.8-0.6C33.583,28.567,33.767,27.683,34.7,26.95z"/>
		
			<linearGradient id="SVGID_55_" gradientUnits="userSpaceOnUse" x1="-8.4189" y1="-42.6914" x2="0.4688" y2="-42.6914" gradientTransform="matrix(-0.9986 0.0534 -0.0534 -0.9986 8.554757e-005 -1.926571e-004)">
			<stop  offset="0" style="stop-color:#D03D42"/>
			<stop  offset="1" style="stop-color:#E25F63"/>
		</linearGradient>
		<path style="fill-rule:evenodd;clip-rule:evenodd;fill:url(#SVGID_55_);" d="M10.65,42.2c1-2.1,1.75-2.767,2.25-2
			c0.467,0.8,0.35,1.816-0.35,3.05c-0.6,1.033-1.167,1.333-1.7,0.9C10.283,43.717,10.217,43.067,10.65,42.2z"/>
		
			<radialGradient id="SVGID_56_" cx="2.1699" cy="42.5225" r="4.103" gradientTransform="matrix(0.9902 -0.14 -0.1464 -1.0358 12.1776 86.1487)" gradientUnits="userSpaceOnUse">
			<stop  offset="0" style="stop-color:#FBE6C3"/>
			<stop  offset="1" style="stop-color:#E25F63"/>
		</radialGradient>
		<path style="fill-rule:evenodd;clip-rule:evenodd;fill:url(#SVGID_56_);" d="M10.55,42.2c0.833-1.733,1.45-2.284,1.85-1.65
			c0.367,0.667,0.267,1.517-0.3,2.55c-0.467,0.867-0.917,1.117-1.35,0.75C10.283,43.483,10.217,42.933,10.55,42.2z"/>
		
			<use xlink:href="#flash0.ai_x5F_0_x2F_Layer_3_x2F__x3C_Path_x3E__x5F_1"  width="47.846" height="38.702" x="0.007" y="-38.576" transform="matrix(1 0 0 -1 7.3999 0.7002)" style="overflow:visible;opacity:0.2109;enable-background:new    ;"/>
		
			<use xlink:href="#flash0.ai_x5F_0_x2F_Layer_3_x2F__x3C_Path_x3E_"  width="21.241" height="11.515" x="0.015" y="-11.515" transform="matrix(1 0 0 -1 57.25 61.7998)" style="overflow:visible;opacity:0.2695;enable-background:new    ;"/>
	</g>
	
		<linearGradient id="SVGID_57_" gradientUnits="userSpaceOnUse" x1="47.8848" y1="-108.4644" x2="60.1387" y2="-108.4644" gradientTransform="matrix(-0.4407 0.8977 -0.8977 -0.4407 4.836917e-004 8.821487e-006)">
		<stop  offset="0" style="stop-color:#242224"/>
		<stop  offset="0.2118" style="stop-color:#27252E"/>
		<stop  offset="0.5765" style="stop-color:#302E49"/>
		<stop  offset="0.6353" style="stop-color:#32304E"/>
		<stop  offset="1" style="stop-color:#617D84"/>
	</linearGradient>
	<path style="fill-rule:evenodd;clip-rule:evenodd;fill:url(#SVGID_57_);" d="M70.25,95.45l-0.5,0.45
		c0.066-0.267,0.184-0.534,0.35-0.801c0.367-0.5,0.817-0.716,1.351-0.649c0.767,0.1,1.25,0.767,1.45,2
		c0.199-1.634,0-2.717-0.601-3.25c-0.533-0.5-1.166-0.5-1.899,0c-0.567,0.366-1.067,1.017-1.5,1.95c-0.2,0.466-0.351,0.899-0.45,1.3
		c-0.434-1.467-0.434-2.867,0-4.2c0.467-1.366,1.217-2.184,2.25-2.45c0.899-0.233,1.767,0.033,2.6,0.8c0.434,0.4,0.767,0.817,1,1.25
		c-0.066-1.5-0.533-2.483-1.399-2.949L71.6,88.6L72.95,88.2c1.066-0.134,1.95,0.184,2.649,0.95c0.7,0.767,1.017,1.699,0.95,2.8
		c-0.033,0.533-0.133,1-0.3,1.399c0.767-1.199,1.717-1.666,2.85-1.399c1,0.233,1.634,0.767,1.9,1.6c0.3,0.867,0.283,1.617-0.05,2.25
		c0.133-0.6-0.117-1.066-0.75-1.399c-0.467-0.267-0.95-0.317-1.45-0.15c-0.233,0.066-0.667,0.283-1.3,0.65
		c-0.634,0.366-1.05,0.666-1.25,0.899c-0.434,0.5-0.717,1.233-0.851,2.2c-0.199,1.467,0.084,2.667,0.851,3.6
		c-1.267-0.166-2.367-0.199-3.3-0.1c-0.601,0.066-1.317-0.083-2.15-0.45l-1.1-0.55c1.399-2.233,1.949-3.667,1.649-4.3
		C71,95.566,70.65,95.316,70.25,95.45z"/>
	
		<linearGradient id="SVGID_58_" gradientUnits="userSpaceOnUse" x1="-89.8716" y1="62.875" x2="-7.9967" y2="62.875" gradientTransform="matrix(0.1634 -0.9866 0.9866 0.1634 -1.758188e-004 3.750026e-004)">
		<stop  offset="0" style="stop-color:#20141B"/>
		<stop  offset="1" style="stop-color:#303B3B"/>
	</linearGradient>
	<path style="fill-rule:evenodd;clip-rule:evenodd;fill:url(#SVGID_58_);" d="M55.7,65.75c-0.233,3.533-1.167,6.9-2.8,10.1
		c-0.301,0.567-0.983,1.684-2.051,3.351c-0.866,1.399-1.483,2.566-1.85,3.5c-1.033,2.733-1.4,5.383-1.1,7.95
		c0.233,1.733,0.716,3.483,1.449,5.25L46.2,95.75c-0.133,0-0.25-0.517-0.35-1.55c-0.067-0.767-0.1-1.351-0.1-1.75
		c0-1.267,0.1-2.5,0.3-3.7c0.5-2.667,1.483-5.233,2.95-7.7c1.2-1.7,2.1-2.983,2.7-3.85c0.233-0.367,0.666-1.134,1.3-2.3
		c0.7-1.334,1.434-3.467,2.2-6.4L55.7,65.75z"/>
	
		<linearGradient id="SVGID_59_" gradientUnits="userSpaceOnUse" x1="-90.6934" y1="68.8086" x2="-26.2873" y2="68.8086" gradientTransform="matrix(0.2567 -0.9665 0.9665 0.2567 -3.504157e-004 4.762411e-004)">
		<stop  offset="0" style="stop-color:#20141B"/>
		<stop  offset="1" style="stop-color:#303B3B"/>
	</linearGradient>
	<path style="fill-rule:evenodd;clip-rule:evenodd;fill:url(#SVGID_59_);" d="M44.85,95.7c-2.367-4.533-1.55-8.684,2.45-12.45
		c1.267-1.167,2.767-2.217,4.5-3.15l2.25-1.1l-2.2,1.3c-1.666,1.134-3.083,2.334-4.25,3.601c-3.667,4.066-3.966,8.083-0.899,12.05
		L44.85,95.7z"/>
	<linearGradient id="SVGID_60_" gradientUnits="userSpaceOnUse" x1="24.7036" y1="95.2285" x2="32.6332" y2="79.0558">
		<stop  offset="0" style="stop-color:#617D84"/>
		<stop  offset="0.3647" style="stop-color:#32304E"/>
		<stop  offset="0.4235" style="stop-color:#302E49"/>
		<stop  offset="0.7882" style="stop-color:#27252E"/>
		<stop  offset="1" style="stop-color:#242224"/>
	</linearGradient>
	<path style="fill-rule:evenodd;clip-rule:evenodd;fill:url(#SVGID_60_);" d="M19.5,91.1c-0.433-0.899-0.45-2.017-0.05-3.35
		c0.4-1.333,1.1-2.283,2.1-2.85c1.2-0.7,2.333-0.317,3.4,1.149c-0.333-0.633-0.583-1.383-0.75-2.25
		c-0.333-1.733-0.034-3.184,0.9-4.35c0.933-1.167,2.05-1.816,3.35-1.95c0.633-0.066,1.183-0.017,1.65,0.15l-1.9,0.85
		c-1.133,1.066-1.4,2.816-0.8,5.25c0.233-0.634,0.567-1.25,1-1.85c0.934-1.2,2.017-1.767,3.25-1.7c1.567,0.1,2.684,1.033,3.35,2.8
		c0.6,1.566,0.733,3.4,0.4,5.5c-0.1-0.5-0.3-1.05-0.6-1.65c-0.6-1.166-1.433-2.017-2.5-2.55c-1.066-0.533-1.966-0.3-2.7,0.7
		c-0.833,1.167-1.133,3-0.9,5.5c0.066-0.533,0.2-1.083,0.4-1.65c0.367-1.166,0.833-1.883,1.4-2.149c0.767-0.367,1.483-0.367,2.15,0
		c0.333,0.2,0.6,0.434,0.8,0.7c-0.3-0.067-0.65-0.051-1.05,0.05c-0.767,0.233-1.35,0.833-1.75,1.8
		c-0.733,1.733,0.067,4.184,2.4,7.35c-1.633,1.2-3.083,1.717-4.35,1.551c-0.8-0.101-1.784-0.101-2.95,0l-1.5,0.149
		c0.267-0.366,0.517-0.866,0.75-1.5c0.467-1.267,0.617-2.583,0.45-3.95c-0.2-1.566-0.483-2.699-0.85-3.399
		c-0.267-0.601-0.717-1.101-1.35-1.5c-1.033-0.767-1.983-0.684-2.85,0.25c-0.4,0.399-0.667,0.967-0.8,1.7
		C19.5,90.434,19.467,90.833,19.5,91.1z"/>
	
		<linearGradient id="SVGID_61_" gradientUnits="userSpaceOnUse" x1="-72.917" y1="91.877" x2="-31.41" y2="91.877" gradientTransform="matrix(0.3584 -0.9336 0.9336 0.3584 -2.146661e-004 2.376437e-004)">
		<stop  offset="0" style="stop-color:#20141B"/>
		<stop  offset="1" style="stop-color:#303B3B"/>
	</linearGradient>
	<path style="fill-rule:evenodd;clip-rule:evenodd;fill:url(#SVGID_61_);" d="M59.9,97.15c0.366-1.4,0.933-2.95,1.699-4.65
		c1.567-3.434,3.434-5.967,5.601-7.6l-2.65,3.149c-1.833,2.767-2.899,5.917-3.2,9.45L59.9,97.15z"/>
	
		<linearGradient id="SVGID_62_" gradientUnits="userSpaceOnUse" x1="-90.4028" y1="30.6367" x2="-63.703" y2="30.6367" gradientTransform="matrix(-0.1056 -0.9944 0.9944 -0.1056 -1.663044e-004 7.948577e-004)">
		<stop  offset="0" style="stop-color:#20141B"/>
		<stop  offset="1" style="stop-color:#303B3B"/>
	</linearGradient>
	<path style="fill-rule:evenodd;clip-rule:evenodd;fill:url(#SVGID_62_);" d="M37.875,79.225L39.6,83.15
		c1.667,4.5,2.533,8.649,2.6,12.449L40,95.9c0.367-1.2,0.517-2.867,0.45-5C40.362,87.147,39.504,83.255,37.875,79.225z"/>
	<linearGradient id="SVGID_63_" gradientUnits="userSpaceOnUse" x1="65.0439" y1="83.2188" x2="60.6248" y2="93.7712">
		<stop  offset="0" style="stop-color:#20141B"/>
		<stop  offset="1" style="stop-color:#303B3B"/>
	</linearGradient>
	<path style="fill-rule:evenodd;clip-rule:evenodd;fill:url(#SVGID_63_);" d="M60.2,97.25l-0.851-0.3
		c0.101-2.101,0.5-3.917,1.2-5.45l0.75-1.3c-0.614,1.149-0.98,2.616-1.1,4.399C60.134,95.6,60.134,96.483,60.2,97.25z"/>
	
		<radialGradient id="SVGID_64_" cx="47.4004" cy="92.8496" r="69.4375" gradientTransform="matrix(1 0 0 -0.2653 0 117.4869)" gradientUnits="userSpaceOnUse">
		<stop  offset="0.4235" style="stop-color:#228B8F"/>
		<stop  offset="0.651" style="stop-color:#258D91"/>
		<stop  offset="0.8471" style="stop-color:#309396"/>
		<stop  offset="1" style="stop-color:#3E9A9D"/>
	</radialGradient>
	<path style="fill-rule:evenodd;clip-rule:evenodd;fill:url(#SVGID_64_);" d="M69.65,98.75c9.3,2.434,16.183,6.15,20.649,11.15
		c0.101,1.767-4.383,3.033-13.45,3.8c-6.966,0.566-13.899,0.75-20.8,0.55c-9.867-0.2-17.283-0.384-22.25-0.55
		c-8.566-0.3-15.983-0.75-22.25-1.351c-6.4-0.699-9.283-1.5-8.65-2.399c2.2-3.101,6.733-6.167,13.6-9.2
		c9.2-4.066,19.033-5.816,29.5-5.25C55.434,96.033,63.316,97.116,69.65,98.75z"/>
	
		<use xlink:href="#flash0.ai_x5F_0_x2F_Layer_3_x2F__x3C_Path_x3E__x5F_5"  width="8.797" height="3.684" x="-0.105" y="-3.668" transform="matrix(1 0 0 -1 30.6001 96.8496)" style="overflow:visible;opacity:0.3711;enable-background:new    ;"/>
	
		<use xlink:href="#flash0.ai_x5F_0_x2F_Layer_3_x2F__x3C_Path_x3E__x5F_4"  width="13.281" height="5.235" x="-0.163" y="-5.152" transform="matrix(1 0 0 -1 40.2002 96.5)" style="overflow:visible;opacity:0.3711;enable-background:new    ;"/>
	
		<use xlink:href="#flash0.ai_x5F_0_x2F_Layer_3_x2F__x3C_Path_x3E__x5F_3"  width="4.631" height="3.372" x="-0.023" y="-3.408" transform="matrix(1 0 0 -1 48.2998 102.2002)" style="overflow:visible;opacity:0.3711;enable-background:new    ;"/>
	
		<use xlink:href="#flash0.ai_x5F_0_x2F_Layer_3_x2F__x3C_Path_x3E__x5F_2"  width="7.631" height="5.337" x="-0.031" y="-5.266" transform="matrix(1 0 0 -1 53.6504 100.7998)" style="overflow:visible;opacity:0.3711;enable-background:new    ;"/>
	
		<use xlink:href="#flash0.ai_x5F_0_x2F_Layer_3_x2F__x3C_Path_x3E__x5F_1_x5F_0"  width="9.401" height="2.738" x="0.05" y="-2.738" transform="matrix(1 0 0 -1 57.8496 97.2998)" style="overflow:visible;opacity:0.3711;enable-background:new    ;"/>
	
		<use xlink:href="#flash0.ai_x5F_0_x2F_Layer_3_x2F__x3C_Path_x3E__x5F_0"  width="8.919" height="4.191" x="-0.193" y="-4.155" transform="matrix(1 0 0 -1 18.8999 99.0996)" style="overflow:visible;opacity:0.3711;enable-background:new    ;"/>
</g>
</svg>
