<?xml version="1.0" encoding="iso-8859-1"?>
<!-- Generator: Adobe Illustrator 15.1.0, SVG Export Plug-In . SVG Version: 6.00 Build 0)  -->
<!DOCTYPE svg PUBLIC "-//W3C//DTD SVG 1.1//EN" "http://www.w3.org/Graphics/SVG/1.1/DTD/svg11.dtd">
<svg version="1.1" id="Layer_3" xmlns="http://www.w3.org/2000/svg" xmlns:xlink="http://www.w3.org/1999/xlink" x="0px" y="0px"
	 width="264.4px" height="244.4px" viewBox="0 0 264.4 244.4" style="enable-background:new 0 0 264.4 244.4;" xml:space="preserve"
	>
<symbol  id="flash0.ai_x2F_Layer_3_x2F__x3C_Path_x3E__x5F_14" viewBox="0.018 -9.6 3.562 9.6">
	<g id="Layer_1_11_">
		<path style="fill-rule:evenodd;clip-rule:evenodd;fill:#BD94CF;" d="M2.5,0c0.5-1,0.833-2.133,1-3.4C3.833-6,3.133-8.067,1.4-9.6
			c0.267,0.3,0.45,0.65,0.55,1.05c0.2,0.833-0.1,1.566-0.9,2.2C0.117-5.617-0.183-4.533,0.15-3.1C0.45-1.667,1.233-0.633,2.5,0z"/>
	</g>
</symbol>
<symbol  id="flash0.ai_x2F_Layer_3_x2F__x3C_Path_x3E__x5F_17" viewBox="-0.008 -8.8 2.658 8.8">
	<g id="Layer_1_10_">
		<path style="fill-rule:evenodd;clip-rule:evenodd;fill:#BD94CF;" d="M2.25,0c0.267-1.067,0.4-2.233,0.4-3.5
			c0-2.533-0.717-4.3-2.15-5.3C0.733-8.6,0.9-8.317,1-7.95C1.233-7.183,1.083-6.4,0.55-5.6c-0.6,0.967-0.716,2.083-0.35,3.35
			C0.6-0.983,1.283-0.233,2.25,0z"/>
	</g>
</symbol>
<symbol  id="flash0.ai_x2F_Layer_3_x2F__x3C_Path_x3E__x5F_19" viewBox="-0.036 -6.272 12.486 6.279">
	<g id="Layer_1_9_">
		<path style="fill-rule:evenodd;clip-rule:evenodd;fill:#BD94CF;" d="M0.65-3.1c-0.8,1.267-0.9,2.2-0.3,2.8
			C1.15-0.067,2.033,0.033,3,0c1.967-0.1,3.4-0.9,4.3-2.4c1.133-1.833,2.517-2.717,4.15-2.65c0.361,0.014,0.694,0.064,1,0.15
			c-0.623-0.26-1.306-0.494-2.05-0.7C8-6.333,6.033-6.467,4.5-6C2.8-5.467,1.517-4.5,0.65-3.1z"/>
	</g>
</symbol>
<symbol  id="flash0.ai_x2F_Layer_3_x2F__x3C_Path_x3E__x5F_2" viewBox="-0.038 -4.336 1.89 4.41">
	<g id="Layer_1_14_">
		<path style="fill-rule:evenodd;clip-rule:evenodd;fill:#BD94CF;" d="M1.5-0.95C1.933-2.017,1.967-2.967,1.6-3.8
			C1.2-4.667,0.767-4.483,0.3-3.25c-0.466,1.2-0.45,2.2,0.05,3C0.717,0.35,1.1,0.117,1.5-0.95z"/>
	</g>
</symbol>
<symbol  id="flash0.ai_x2F_Layer_3_x2F__x3C_Path_x3E__x5F_20" viewBox="-0.022 -12.575 6.344 12.611">
	<g id="Layer_1_8_">
		<path style="fill-rule:evenodd;clip-rule:evenodd;fill:#BD94CF;" d="M3.25-0.65c1.267,0.8,2.2,0.9,2.8,0.3
			C6.283-1.15,6.367-2.033,6.3-3C6.167-4.967,5.333-6.4,3.8-7.3c-1.833-1.1-2.733-2.467-2.7-4.1c0-0.42,0.05-0.812,0.15-1.175
			c-0.263,0.682-0.497,1.44-0.7,2.275C-0.117-7.867-0.2-5.9,0.3-4.4C0.867-2.733,1.85-1.483,3.25-0.65z"/>
	</g>
</symbol>
<symbol  id="flash0.ai_x2F_Layer_3_x2F__x3C_Path_x3E__x5F_21" viewBox="0.029 -12.45 6.344 12.486">
	<g id="Layer_1_7_">
		<path style="fill-rule:evenodd;clip-rule:evenodd;fill:#BD94CF;" d="M3.3-0.65c1.267,0.8,2.2,0.9,2.8,0.3
			C6.333-1.15,6.417-2.033,6.35-3c-0.133-1.967-0.967-3.4-2.5-4.3C1.983-8.4,1.067-9.767,1.1-11.4
			c0.016-0.376,0.065-0.726,0.15-1.05c-0.242,0.645-0.458,1.362-0.65,2.15c-0.667,2.433-0.75,4.4-0.25,5.9
			C0.917-2.733,1.9-1.483,3.3-0.65z"/>
	</g>
</symbol>
<symbol  id="flash0.ai_x2F_Layer_3_x2F__x3C_Path_x3E__x5F_22" viewBox="-0.017 -8.125 6.142 8.125">
	<g id="Layer_1_6_">
		<path style="fill-rule:evenodd;clip-rule:evenodd;fill:#BD94CF;" d="M1.05,0c0.6-0.267,1.167-0.633,1.7-1.1
			c1.133-1,1.633-2.1,1.5-3.3C4.083-5.867,4.5-6.967,5.5-7.7c0.201-0.172,0.409-0.313,0.625-0.425C5.64-7.954,5.132-7.746,4.6-7.5
			C2.867-6.733,1.667-5.867,1-4.9C0.233-3.8-0.1-2.7,0-1.6C0.1-0.567,0.45-0.033,1.05,0z"/>
	</g>
</symbol>
<symbol  id="flash0.ai_x2F_Layer_3_x2F__x3C_Path_x3E__x5F_23" viewBox="-0.038 -9.15 4.363 9.174">
	<g id="Layer_1_5_">
		<path style="fill-rule:evenodd;clip-rule:evenodd;fill:#BD94CF;" d="M0.3-4.7c-0.433,1.267-0.45,2.417-0.05,3.45
			C0.617-0.283,1.1,0.133,1.7,0c0.5-0.4,0.95-0.917,1.35-1.55C3.85-2.783,4.033-3.967,3.6-5.1C3.067-6.467,3.167-7.65,3.9-8.65
			c0.137-0.187,0.279-0.354,0.425-0.5C3.936-8.867,3.528-8.55,3.1-8.2C1.633-6.967,0.7-5.8,0.3-4.7z"/>
	</g>
</symbol>
<symbol  id="flash0.ai_x2F_Layer_3_x2F__x3C_Path_x3E__x5F_24" viewBox="-0.038 -9.1 4.363 9.124">
	<g id="Layer_1_4_">
		<path style="fill-rule:evenodd;clip-rule:evenodd;fill:#BD94CF;" d="M0.3-4.65c-0.433,1.233-0.45,2.367-0.05,3.4
			C0.65-0.283,1.133,0.133,1.7,0c0.5-0.4,0.95-0.9,1.35-1.5c0.8-1.267,0.983-2.467,0.55-3.6C3.067-6.467,3.167-7.633,3.9-8.6
			c0.137-0.187,0.279-0.354,0.425-0.5C3.936-8.816,3.528-8.5,3.1-8.15C1.633-6.917,0.7-5.75,0.3-4.65z"/>
	</g>
</symbol>
<symbol  id="flash0.ai_x2F_Layer_3_x2F__x3C_Path_x3E__x5F_25" viewBox="0.575 -8.575 16.125 8.56">
	<g id="Layer_1_3_">
		<path style="fill-rule:evenodd;clip-rule:evenodd;fill:#BD94CF;" d="M16.7-3c-0.5-0.933-1.25-1.8-2.25-2.6
			c-1.967-1.566-4.133-1.967-6.5-1.2C5.083-5.9,2.9-6.167,1.4-7.6C1.075-7.911,0.8-8.236,0.575-8.575
			C0.935-7.782,1.36-6.958,1.85-6.1C3.45-3.333,5.2-1.55,7.1-0.75c2.133,0.867,4.3,0.967,6.5,0.3C15.633-1.05,16.667-1.9,16.7-3z"/>
	</g>
</symbol>
<symbol  id="flash0.ai_x2F_Layer_3_x2F__x3C_Path_x3E__x5F_26" viewBox="-0.039 -14.85 10.107 14.904">
	<g id="Layer_1_2_">
		<path style="fill-rule:evenodd;clip-rule:evenodd;fill:#BD94CF;" d="M4.05-0.45c2.133-0.8,3.767-2.2,4.9-4.2
			c1.033-1.8,1.35-4.283,0.95-7.45c-0.124-0.988-0.29-1.905-0.5-2.75c0.04,0.413,0.023,0.846-0.05,1.3
			c-0.3,2.033-1.867,3.566-4.7,4.6c-2.3,0.833-3.767,2.467-4.4,4.9c-0.3,1.2-0.367,2.333-0.2,3.4C0.75,0.217,2.083,0.283,4.05-0.45z
			"/>
	</g>
</symbol>
<symbol  id="flash0.ai_x2F_Layer_3_x2F__x3C_Path_x3E__x5F_6" viewBox="-0.029 -4.033 2.401 4.029">
	<g id="Layer_1_13_">
		<path style="fill-rule:evenodd;clip-rule:evenodd;fill:#BD94CF;" d="M1.65-0.1C2.283,0.2,2.5-0.2,2.3-1.3
			C2.1-2.433,1.633-3.267,0.9-3.8C0.1-4.333-0.183-3.95,0.05-2.65C0.283-1.383,0.817-0.533,1.65-0.1z"/>
	</g>
</symbol>
<symbol  id="flash0.ai_x2F_Layer_3_x2F__x3C_Path_x3E__x5F_7" viewBox="-0.032 -3.983 2.404 4.029">
	<g id="Layer_1_12_">
		<path style="fill-rule:evenodd;clip-rule:evenodd;fill:#BD94CF;" d="M2.3-1.25c-0.2-1.133-0.683-1.967-1.45-2.5
			S-0.183-3.9,0.05-2.6c0.233,1.3,0.767,2.15,1.6,2.55C2.283,0.25,2.5-0.15,2.3-1.25z"/>
	</g>
</symbol>
<g>
	
		<linearGradient id="SVGID_1_" gradientUnits="userSpaceOnUse" x1="-292.1924" y1="115.1938" x2="-88.4666" y2="115.1938" gradientTransform="matrix(-0.2653 -0.9642 0.9642 -0.2653 0 -8.737445e-004)">
		<stop  offset="0" style="stop-color:#BFAD8F"/>
		<stop  offset="0.2078" style="stop-color:#4BABA7"/>
		<stop  offset="0.5922" style="stop-color:#217387"/>
		<stop  offset="1" style="stop-color:#00140C"/>
	</linearGradient>
	<path style="fill-rule:evenodd;clip-rule:evenodd;fill:url(#SVGID_1_);" d="M188.7,184.6c2.399-16.633-2.584-25.449-14.95-26.449
		c-4.6-0.367-10.434,0.333-17.5,2.1c-3.467,0.866-9.316,2.65-17.55,5.35c-10.967,3.567-18.934,5.301-23.9,5.2
		c-8.3-0.166-14.6-3.1-18.9-8.8c-4.3-5.7-5.967-13.283-5-22.75c0.833-5.134,1.35-9.15,1.55-12.05c0.4-5.267-0.217-9.067-1.85-11.4
		c-1.233-1.7-3.133-3.083-5.7-4.15c-1.133-0.467-3.533-1.217-7.2-2.25c-5.367-1.233-10.133-3.633-14.3-7.2
		c-4.3-3.7-6.717-7.95-7.25-12.75c-0.566-5.367,1.3-11.067,5.6-17.1c3.267-4.533,5.5-8.567,6.7-12.1l0.8-3.95l1.65-0.25l-1.4,4.6
		C68,64.683,65.783,69.133,62.85,74c-2.033,3.433-3.083,6.767-3.15,10c-0.067,2.733,0.566,5.267,1.9,7.6
		c-0.067-1.7,0.167-3.333,0.7-4.9c1-3.267,3.75-6.883,8.25-10.85c5.3-4.667,8.55-7.95,9.75-9.85c0.833-1.367,1.383-2.333,1.65-2.9
		c0.433-0.934,0.733-1.983,0.9-3.15c2.033,0.3,1.6,2.816-1.3,7.55c-0.867,1.4-2.783,4.067-5.75,8c-3.267,4.267-5.35,7.833-6.25,10.7
		c-1.367,4.5-0.316,8.05,3.15,10.65c-0.3-2.267,1.15-5.217,4.35-8.85c1.633-1.867,6.483-5.85,14.55-11.95
		c5.267-4.033,7.75-7.633,7.45-10.8l1.95-1.2l-0.1,1.45c-0.2,1.2-0.566,2.467-1.1,3.8c-1.767,4.267-5.033,8.267-9.8,12
		c-5.367,4.267-8.65,7.567-9.85,9.9c-1.867,3.733-0.3,6.933,4.7,9.6c6.333,0.967,10.533,1.867,12.6,2.7
		c4.233,1.767,6.966,4.817,8.2,9.15c0.867,3.067,1.267,8.1,1.2,15.1c-0.067,6.7,0.45,11.634,1.55,14.8
		c2.2,6.334,7.317,8.15,15.35,5.45c2.667-0.9,5.867-2.4,9.6-4.5c2-1.134,4.517-2.6,7.551-4.4c3.767-2.1,7.267-3.933,10.5-5.5
		c-3.367-0.267-6.267-1.283-8.7-3.05c-2.634-1.934-4.334-4.5-5.101-7.7c-1.133-4.733-0.55-10.684,1.75-17.85
		c2.867-8.867,4.384-14.717,4.551-17.55c0.3-4.9,0.033-8.817-0.801-11.75c0.301-0.167,0.784-0.35,1.45-0.55
		c0.667-0.167,1.167-0.25,1.5-0.25c0.533,6.233,0.617,11.25,0.25,15.05c-0.296,2.965-1.18,7.506-2.649,13.625
		c0.173-0.525,0.724-1.367,1.649-2.525c1.367-1.667,2.084-2.566,2.15-2.7c0.434-0.633,1.533-2.133,3.3-4.5
		c1.434-1.934,2.467-3.483,3.1-4.65c2.867-5.333,4.551-11.217,5.051-17.65l-0.051-8.05l1.2,0.5l0.4,7.3
		c-0.167,5.967-1.384,11.717-3.65,17.25c-1.8,4.434-5.1,11.017-9.899,19.75c-3.2,7.1-3.067,11.983,0.399,14.65
		c3.4,2.633,9.634,4.149,18.7,4.55c15.566-5.367,30.134-6.167,43.7-2.4c11.866,3.334,22.55,11.367,32.05,24.101
		c8.467,11.399,14.134,23.767,17,37.1c1.566,7.367,2.717,17.033,3.45,29c0.934,15.033,1.666,24.7,2.2,29
		c-18.034-0.5-34.934-0.75-50.7-0.75c-16,0.033-33.9,0.316-53.7,0.851c1.7-3.534,4.283-8.233,7.75-14.101
		c5.033-8.533,7.967-13.517,8.8-14.95C183.45,203.017,187.5,192.767,188.7,184.6z"/>
	
		<linearGradient id="SVGID_2_" gradientUnits="userSpaceOnUse" x1="-108.9102" y1="-152.8213" x2="47.3159" y2="-152.8213" gradientTransform="matrix(-0.2912 0.9567 -0.9567 -0.2912 -5.044937e-004 -2.695322e-004)">
		<stop  offset="0" style="stop-color:#471A54"/>
		<stop  offset="0.3765" style="stop-color:#633B7D"/>
		<stop  offset="1" style="stop-color:#AB94B5"/>
	</linearGradient>
	<path style="fill-rule:evenodd;clip-rule:evenodd;fill:url(#SVGID_2_);" d="M217.9,48.4c2.433,3.434,4.333,6.95,5.699,10.55
		c2,5.267,2.667,10.283,2,15.05c0.2-1.833,0.117-3.583-0.25-5.25c-0.399-1.5-0.649-2.467-0.75-2.9c-0.066,0.667-0.116,1.7-0.149,3.1
		c-0.066,1.3-0.25,2.316-0.55,3.05l-0.101-0.65c-0.133,0.667-0.434,1.75-0.899,3.25c-0.367,1.233-0.617,2.35-0.75,3.35
		c-0.101-0.4-0.134-1.067-0.101-2c0.033-1.1,0.033-1.784,0-2.05c-0.233,0.5-0.566,1.017-1,1.55c-0.566,0.733-0.95,1.267-1.149,1.6
		c-0.601,1-1.101,2.517-1.5,4.55c0-1.067-0.15-2.383-0.45-3.95c-0.566,1.467-0.95,2.633-1.15,3.5c-0.267,1.2-0.517,2.917-0.75,5.15
		c-0.2-0.367-0.283-1.066-0.25-2.1c0.033-1.267,0.033-2.017,0-2.25c-0.066-0.434-0.267-0.983-0.6-1.65
		c-0.3-0.667-0.483-1.233-0.55-1.7c-0.134,0.633-0.417,1.683-0.851,3.15c-0.133-0.933-0.416-2.017-0.85-3.25
		c-0.066-0.167-0.5-1.233-1.3-3.2c-0.467,0.633-0.767,1.4-0.9,2.3c-0.5-1.233-0.733-2.267-0.7-3.1c-0.366,0.367-1.033,0.95-2,1.75
		c-0.866,0.7-1.517,1.3-1.95,1.8c0-0.8,0.084-1.45,0.25-1.95c-0.666,0.4-1.166,1.066-1.5,2c-0.133-0.4-0.233-0.917-0.3-1.55
		c-0.1-0.867-0.166-1.4-0.2-1.6c-0.899,2-1.35,3.767-1.35,5.3c-0.167-0.333-0.366-0.817-0.6-1.45c-0.233-0.7-0.417-1.2-0.551-1.5
		c-0.066-0.167-0.399-0.65-1-1.45c-0.399-0.6-0.633-1.117-0.699-1.55c0,0.8-0.134,1.6-0.4,2.4c-0.167-0.534-0.65-1.667-1.45-3.4
		c-0.267,1.067-0.934,2.217-2,3.45c-1.233,1.367-2.116,2.4-2.649,3.1c0.166-0.4,0.25-0.8,0.25-1.2
		c-0.967,0.967-1.551,1.667-1.75,2.1c-0.167-1.867-0.25-3.267-0.25-4.2c-0.067,0.9-0.467,2.217-1.2,3.95
		c-0.134,0.333-0.367,0.783-0.7,1.35c-0.366,0.6-0.616,1.05-0.75,1.35l-0.45-1.9c-0.3,0.567-0.517,0.967-0.649,1.2
		c-0.267-0.667-0.434-1.333-0.5-2c-0.233,0.7-0.684,1.55-1.351,2.55c-0.666,1.034-1.267,1.767-1.8,2.2
		c-0.066-0.833-0.134-1.483-0.2-1.95c-0.1-0.8-0.25-1.4-0.45-1.8c-0.166,0.2-0.333,0.833-0.5,1.9c-0.566-1.133-0.899-2.2-1-3.2
		c-0.333,1.066-0.899,2.466-1.699,4.2c-0.9,1.967-1.5,3.367-1.801,4.2c-0.333-1.533-0.55-3.017-0.649-4.45
		c-1.033,1.567-1.8,3.3-2.3,5.2c-0.233-1.1-0.367-2.15-0.4-3.15c-1,1.367-1.616,2.5-1.85,3.4c-0.367,1.533-0.601,4.633-0.7,9.3
		c-0.066-1.733-0.334-3.867-0.8-6.4c-0.534-2.867-0.917-5-1.15-6.4c-0.3,0.867-0.566,1.5-0.8,1.9c-0.066-1.567-0.4-2.817-1-3.75
		c-0.101,0.4-0.233,1.017-0.4,1.85c-0.033-0.133-0.483-1.9-1.35-5.3c-0.066,0.567-0.434,1.717-1.101,3.45
		c-0.566,1.5-0.866,3.117-0.899,4.85c-0.2-0.667-0.4-1.783-0.601-3.35c-0.199-1.5-0.416-2.633-0.649-3.4
		c0.033,1.066-0.05,2.583-0.25,4.55c-0.224,2.141-0.357,3.791-0.4,4.95c-0.269-0.919-0.418-2.169-0.45-3.75
		c-0.066-2.667-0.1-4.017-0.1-4.05c-0.1-1-0.333-2.6-0.7-4.8c-0.333-2.067-0.55-3.65-0.649-4.75c-0.134,0.967-0.567,2.15-1.301,3.55
		c-0.233-2-0.449-3.25-0.649-3.75c-0.601,1.434-0.967,2.5-1.101,3.2c-0.033,0.267-0.183,0.867-0.449,1.8
		c-0.233,0.9-0.301,1.483-0.2,1.75c-0.267-0.633-0.55-1.617-0.851-2.95c-0.333-1.4-0.616-2.4-0.85-3c-0.1,0.4-0.167,1.033-0.2,1.9
		c-0.066-0.567-0.416-1.417-1.05-2.55c-0.434-1.4-0.833-2.267-1.2-2.6c-0.733,1.3-1.333,2.267-1.8,2.9
		c-0.634,0.8-1.033,1.333-1.2,1.6c-0.374,0.547-0.599,1.08-0.675,1.6c0.027-0.424-0.014-0.94-0.125-1.55
		c-0.2-1.033-0.3-1.633-0.3-1.8c-0.233,0.233-0.417,0.633-0.55,1.2c-0.067,0.3-0.15,0.75-0.25,1.35
		c-0.167-0.533-0.267-1.367-0.301-2.5c-0.066-1.167-0.166-2-0.3-2.5c-0.166,0.667-0.416,1.684-0.75,3.05
		c-0.3,1.2-0.633,2.183-1,2.95c-0.366,0.767-1,1.9-1.899,3.4c-0.733,1.4-1.15,2.633-1.25,3.7c-0.5-2.267-0.834-3.917-1-4.95
		c-0.134,1.633-0.417,4.133-0.851,7.5c-0.033,0.767-0.267,2.4-0.7,4.9c-0.333,2.033-0.466,3.65-0.399,4.85
		c-0.167-0.6-0.283-1.35-0.351-2.25c-0.066-1.2-0.116-1.917-0.149-2.15l-0.3-2.85c-0.134-1.167-0.284-2.117-0.45-2.85
		c-0.134,0.433-0.4,1.617-0.8,3.55c-0.301-1.267-0.434-2.117-0.4-2.55c-0.134,0.466-0.233,1.183-0.3,2.15
		c-0.101,0.967-0.2,1.667-0.3,2.1c0.033-0.6-0.084-1.383-0.351-2.35c-0.399-1.533-0.6-2.333-0.6-2.4c-0.101-1.034-0.2-1.833-0.3-2.4
		c-0.167-1-0.45-1.733-0.851-2.2c-0.8,0.3-1.483,1.1-2.05,2.4c-0.333,0.7-0.75,1.7-1.25,3c-0.2-1.467-0.433-2.633-0.7-3.5
		c-0.466-1.633-0.983-1.95-1.55-0.95c-0.033-0.3-0.15-0.75-0.35-1.35c-0.533,0.6-0.983,1.1-1.35,1.5
		c-0.7,0.833-1.017,1.367-0.95,1.6c-0.1-0.433-0.233-1.216-0.4-2.35l-0.5,1.25c-0.333-1.2-0.517-2.15-0.55-2.85
		c-0.4,0.767-1.35,1.633-2.85,2.6c-1.433,0.933-2.483,2.2-3.15,3.8c-0.1-0.333-0.133-0.583-0.1-0.75c-0.4,0.5-0.733,1.05-1,1.65
		c-0.4-1.133-0.617-1.917-0.65-2.35c-0.167,0.467-0.467,1.934-0.9,4.4c0.033-0.667-0.117-1.483-0.45-2.45
		c-0.367-1.067-0.633-1.867-0.8-2.4c-0.333,1.1-0.583,2.083-0.75,2.95c-0.167,0.8-0.383,2.317-0.65,4.55
		c-0.167-2.3-0.3-3.917-0.4-4.85c-0.2-1.567-0.667-2.817-1.4-3.75c0.034,0.667-0.2,1.567-0.7,2.7
		c-0.233,0.633-0.617,1.483-1.15,2.55c-0.333-1.3-0.517-2.367-0.55-3.2c-0.3,1.067-0.467,2.483-0.5,4.25
		c-0.033,2.567-0.066,4.017-0.1,4.35c-0.6-2.6-1.033-4.566-1.3-5.9c-0.467-2.4-0.633-4.383-0.5-5.95c-0.267,1.167-0.4,2.65-0.4,4.45
		c0,2.667-0.017,4.183-0.05,4.55c-0.066-0.333-0.333-2.7-0.8-7.1c-0.333-2.934-0.883-5.2-1.65-6.8c-0.267,1.6-0.483,3.75-0.65,6.45
		c-0.233,3.233-0.417,5.383-0.55,6.45c-0.167-0.6-0.55-2.816-1.15-6.65c-0.3-2.033-0.467-3.8-0.5-5.3c0-0.167,0.067-0.85,0.2-2.05
		c0.1-0.833,0.083-1.466-0.05-1.9c-0.566,1.133-0.816,2.833-0.75,5.1c-0.1-2-0.217-3.533-0.35-4.6c-0.2-1.9-0.517-3.383-0.95-4.45
		c-0.233,1.367-0.717,3.2-1.45,5.5c-0.133,0.4-0.367,1.3-0.7,2.7c-0.267,1.133-0.55,2-0.85,2.6c-0.133-0.767-0.3-2.867-0.5-6.3
		c-0.167-2.567-0.533-4.65-1.1-6.25c-0.2,0.4-0.4,0.95-0.6,1.65c-0.1,0.367-0.267,0.917-0.5,1.65c-0.033-0.533,0-1.35,0.1-2.45
		c0.133-1.1,0.167-1.933,0.1-2.5c-0.567,0.434-1.167,1.2-1.8,2.3c-0.633,1.3-1.083,2.183-1.35,2.65
		c-0.567,0.967-1.217,2.55-1.95,4.75c0-3.033-0.017-4.733-0.05-5.1c-0.133-2.2-0.567-3.783-1.3-4.75c-0.2,0.267-0.3,0.7-0.3,1.3
		c0,0.333,0.017,0.816,0.05,1.45c-0.1-1.267-0.217-2.267-0.35-3c-0.2-1.367-0.55-2.283-1.05-2.75c-0.333,0.367-0.567,0.983-0.7,1.85
		c-0.1,0.5-0.216,1.183-0.35,2.05c-0.5,1.7-0.784,2.867-0.85,3.5l-0.55-3c-0.267-1.333-0.65-2.25-1.15-2.75l-0.4,1.2
		c-0.1-0.5-0.183-0.867-0.25-1.1c-0.1-0.433-0.267-0.767-0.5-1c-0.067,0.133-0.233,0.367-0.5,0.7v-0.4
		c-0.367,0.333-0.783,0.883-1.25,1.65c-0.7,1.167-1.067,1.767-1.1,1.8c0.2-0.8,0.283-1.433,0.25-1.9c-0.066-0.567-0.3-1.167-0.7-1.8
		c0,0.1-0.117,0.483-0.35,1.15v-1.4l-0.45,0.4c-0.367-0.4-0.767-1.117-1.2-2.15c-0.434-1-0.85-1.7-1.25-2.1
		c-0.567,1.7-0.917,4.417-1.05,8.15c-0.167-1.767-0.45-3.083-0.85-3.95c-0.466-0.733-0.816-1.3-1.05-1.7
		c-0.4-0.7-0.567-1.333-0.5-1.9c-0.3,0.733-0.633,2.4-1,5c-0.3,2.167-0.783,3.7-1.45,4.6c-0.033-0.1-0.117-1.333-0.25-3.7
		c-0.1-1.934-0.4-2.95-0.9-3.05c-0.066,0.8-0.4,1.867-1,3.2c-0.767,1.633-1.217,2.7-1.35,3.2c-0.3,1.133-0.533,2.65-0.7,4.55
		c-0.2,2.5-0.35,4.05-0.45,4.65c-0.066-0.333-0.283-1.816-0.65-4.45c-0.233-1.833-0.617-3.25-1.15-4.25
		c-0.267,0.267-0.5,0.7-0.7,1.3c-0.267,0.8-0.433,1.267-0.5,1.4c0.067-0.833,0.1-1.5,0.1-2c0-0.867-0.167-1.45-0.5-1.75
		c-0.6,0.7-1.1,1.934-1.5,3.7c-0.233,0.967-0.517,2.316-0.85,4.05c-0.233-0.733-0.35-1.75-0.35-3.05c0-1.767-0.017-2.817-0.05-3.15
		c-0.333-2.8-0.633-4.883-0.9-6.25c-1.333,1.333-2.5,1.216-3.5-0.35c-0.833-1.267-1.267-2.733-1.3-4.4
		c-0.033-1.567,0.45-3.383,1.45-5.45c0.5-1.1,1.45-2.75,2.85-4.95c4.7-7.433,11.417-13.583,20.15-18.45
		c3.767-2.133,7.167-3.667,10.2-4.6c3.933-1.233,7.617-1.617,11.05-1.15c0.533,0.066,2.9,0.583,7.1,1.55
		c2.867,0.633,5.267,0.867,7.2,0.7c0.434-0.033,1.4-0.2,2.9-0.5c1.167-0.233,2.133-0.333,2.9-0.3c1.433,0,3.2-0.117,5.3-0.35
		c0.5-0.067,1.267-0.067,2.3,0c1,0.066,1.75,0.066,2.25,0c1.267-0.133,2.6-0.583,4-1.35c0.833-0.434,2.033-1.167,3.6-2.2
		c2.3-1.4,5.384-2.6,9.25-3.6c6.634-1.633,14.117-2,22.45-1.1c7.467,0.8,14.767,2.517,21.9,5.15c7.267,2.7,13.583,6.55,18.949,11.55
		C211.533,40.133,214.634,43.8,217.9,48.4z M163.55,91.85c0.018,0.052,0.035,0.102,0.05,0.15c-0.033,0.067-0.05,0.067-0.05,0
		C163.552,91.952,163.552,91.902,163.55,91.85z"/>
	
		<linearGradient id="SVGID_3_" gradientUnits="userSpaceOnUse" x1="-121.9468" y1="175.9688" x2="-65.064" y2="175.9688" gradientTransform="matrix(-0.0615 -0.9981 0.9981 -0.0615 1.636744e-004 7.940494e-004)">
		<stop  offset="0" style="stop-color:#471A54"/>
		<stop  offset="0.3843" style="stop-color:#6B4677;stop-opacity:0.6353"/>
		<stop  offset="1" style="stop-color:#AB94B5;stop-opacity:0"/>
	</linearGradient>
	<path style="fill-rule:evenodd;clip-rule:evenodd;fill:url(#SVGID_3_);" d="M212.6,44.85c0.534,0.367,1.034,1.117,1.5,2.25
		c0.267,0.633,0.634,1.517,1.101,2.65c1.767,3.467,2.783,5.5,3.05,6.1c1.5,3.433,2.517,6.367,3.05,8.8
		c-0.366-0.633-0.7-1.183-1-1.65c-0.533-0.833-0.934-1.233-1.2-1.2c-0.3,0.034-0.533,0.367-0.699,1
		c-0.101,0.367-0.2,0.833-0.301,1.4c-0.066-0.1-0.316-0.583-0.75-1.45c-0.267-0.567-0.583-0.967-0.949-1.2
		c-0.2,1.3-0.367,3.317-0.5,6.05c-0.233-0.467-0.467-1.184-0.7-2.15c-0.3-1.2-0.517-1.967-0.65-2.3
		c-0.366,0.567-0.783,2.017-1.25,4.35c-0.399,2.033-1.033,3.383-1.899,4.05c-0.067-1.566-0.117-2.733-0.15-3.5
		c-0.1-1.333-0.267-2.483-0.5-3.45c-0.1,0.6-0.3,1.533-0.6,2.8c0.066-0.7,0-1.35-0.2-1.95c-0.267,0.167-0.533,0.517-0.8,1.05
		c-0.301,0.567-0.534,0.933-0.7,1.1c-0.101-0.333-0.2-1.083-0.3-2.25c-0.067-1.033-0.233-1.8-0.5-2.3
		c-0.634,2.167-1.233,3.717-1.801,4.65c0.101-0.967,0.051-2.034-0.149-3.2c-0.233-1.267-0.584-2.233-1.05-2.9
		c-0.367,0.4-0.7,1.133-1,2.2c-0.467,1.534-0.717,2.35-0.75,2.45c-0.567,1.233-1.467,2.633-2.7,4.2c0.434-1.4,0.717-2.45,0.85-3.15
		c0.3-1.2,0.316-2.267,0.05-3.2c-0.6,0.167-1.383,1.167-2.35,3c-1.066,2.033-1.85,3.25-2.35,3.65c0-0.1,0.066-0.883,0.199-2.35
		c0.101-1-0.066-1.717-0.5-2.15c-0.166,0.3-0.416,0.85-0.75,1.65c-0.267,0.7-0.533,1.233-0.8,1.6
		c-0.033-0.333-0.184-1.017-0.45-2.05c-0.199-0.867-0.316-1.583-0.35-2.15c0-0.133-0.233-0.017-0.7,0.35
		c-0.434,0.367-0.684,0.6-0.75,0.7c-0.233,0.267-0.399,0.6-0.5,1c-0.066,0.2-0.166,0.533-0.3,1c-0.697,2.014-1.23,3.48-1.6,4.4
		c0.168-0.461,0.317-0.978,0.449-1.55c0.167-1,0.301-1.767,0.4-2.3c-0.9,0.733-2.2,2.283-3.9,4.65c0.067-0.3,0.101-0.8,0.101-1.5
		c0-0.667,0.017-1.167,0.05-1.5c-1.4,1.567-2.667,3.667-3.8,6.3c0.133-1.8,0.2-4.45,0.2-7.95c-0.067,0.1-1.517,2.533-4.351,7.3
		c-1.833,3.1-3.033,5.466-3.6,7.1c0.434-2.7,0.75-4.733,0.95-6.1c0.333-2.4,0.3-4.434-0.101-6.1c-0.533,0.667-1.184,1.683-1.95,3.05
		c-1,1.733-1.583,2.733-1.75,3c-0.133-1.767-0.149-3.117-0.05-4.05c-0.166,0.4-0.566,1.233-1.2,2.5
		c0.067-2.6-0.083-4.517-0.449-5.75c-0.601,1.3-1.034,2.9-1.301,4.8c-0.066,0.434-0.233,2.133-0.5,5.1
		c-0.633-1.433-1.233-3.167-1.8-5.2c-0.566-2.367-1-4.1-1.3-5.2c-0.533,1-1.4,3.05-2.6,6.15c-0.5-0.667-0.967-1.617-1.4-2.85
		c-0.667-1.767-1.017-2.7-1.05-2.8l-0.7,2.25c-0.9-1.533-1.333-3.15-1.3-4.85c-0.167,0.267-0.4,0.767-0.7,1.5
		c-0.333-1.5-0.483-2.7-0.45-3.6c-0.166,1.1-0.467,2.733-0.899,4.9c-1.167-1.167-2.184-2.95-3.051-5.35
		c-0.699-1.967-1.183-3.95-1.449-5.95c-0.834,1.467-1.184,3.983-1.051,7.55c-1-1.833-1.833-3.966-2.5-6.4
		c-0.366-1.4-0.866-3.633-1.5-6.7c-0.066,0.9-0.35,2.183-0.85,3.85c-0.6-1.466-0.833-3.483-0.7-6.05
		c-0.066,0.667-0.267,1.517-0.6,2.55v0.025c-0.305-1.028-0.771-2.303-1.4-3.825c-0.7-1.633-1.633-3.417-2.8-5.35
		c-1.4-2.3-2.5-4.083-3.3-5.35c1.967,0.1,5.316,1.867,10.05,5.3c4.718,3.431,7.326,6.031,7.825,7.8
		c-0.588-2.307-1.129-3.873-1.625-4.7c0.8,0.8,2.899,2.667,6.3,5.6c0.1,0,0.233-0.083,0.4-0.25c0.166-0.167,0.283-0.25,0.35-0.25
		c2.467,1.967,4.566,3.284,6.3,3.95c2.869,1.121,4.369,0.221,4.5-2.7c-0.038,1.979,0.828,3.328,2.601,4.05
		c1.633,0.667,3.383,0.6,5.25-0.2c0.366-0.167,1.066-0.65,2.1-1.45c0.733-0.567,1.55-0.867,2.45-0.9c0.233,0,1.166,0.1,2.8,0.3
		c1.134,0.167,2.05,0.1,2.75-0.2c0.6-0.267,1.167-0.55,1.7-0.85c0.366-0.133,1-0.117,1.899,0.05c0.834,0.133,1.367,0.083,1.601-0.15
		c0.166-0.167,0.55-0.583,1.149-1.25l0.45,0.75c0.467,0,0.917,0.216,1.351,0.65c0.6,0.667,0.966,1.033,1.1,1.1
		c0.667-0.8,1.116-1.217,1.35-1.25c0.267-0.034,0.733,0.333,1.4,1.1c0.667-0.867,1.85-0.667,3.55,0.6
		c0.367,0.267,1.434,1.25,3.2,2.95c1.733,1.5,2.6,1.3,2.6-0.6c0-0.367-0.25-2.067-0.75-5.1c0.5,0.434,1.15,1.15,1.95,2.15
		c0.601,0.567,1.084,0.217,1.45-1.05c0.3-1.133,0.2-2.733-0.3-4.8C212.884,47.267,212.6,45.65,212.6,44.85z"/>
	
		<linearGradient id="SVGID_4_" gradientUnits="userSpaceOnUse" x1="-85.2095" y1="-91.5557" x2="130.0421" y2="-91.5557" gradientTransform="matrix(-0.2912 0.9567 -0.9567 -0.2912 -3.849864e-004 -2.432466e-004)">
		<stop  offset="0" style="stop-color:#471A54"/>
		<stop  offset="0.3765" style="stop-color:#633B7D"/>
		<stop  offset="1" style="stop-color:#AB94B5"/>
	</linearGradient>
	<path style="fill-rule:evenodd;clip-rule:evenodd;fill:url(#SVGID_4_);" d="M156.55,47.95c1.367,6.2,1.55,12.65,0.55,19.35
		c0.067-1.566-0.133-3.867-0.6-6.9c-0.167,1.833-0.267,3.517-0.3,5.05c-0.233-1.633-0.417-2.85-0.55-3.65
		c-0.267-1.4-0.617-2.583-1.051-3.55c0.034,2.467,0.034,4.067,0,4.8c-0.033,1.8-0.233,3.367-0.6,4.7c-0.1-0.9-0.3-1.967-0.6-3.2
		c-0.367-1.433-0.784-2.6-1.25-3.5c0.366,1.667,0.316,3.55-0.15,5.65c-0.233,1.2-0.684,3.05-1.35,5.55
		c-0.101-1.8-0.417-3.333-0.95-4.6c0.133,2.1-0.05,4.684-0.55,7.75c-0.267,1.7-0.7,4.233-1.301,7.6c0.067-2.4-0.133-4.483-0.6-6.25
		c-0.6,1.933-1.116,4.617-1.55,8.05c-0.566,4.4-0.95,7.1-1.15,8.1c0.467-2.833,0.55-6.217,0.25-10.15
		c-0.366-4.2-1.083-7.467-2.149-9.8c-0.067,0.633-0.551,2.917-1.45,6.85c-1.167-6.466-2.066-9.45-2.7-8.95c-0.4,0.333-0.95,3-1.65,8
		c-0.233-0.4-0.466-0.7-0.699-0.9c-0.634,1.833-0.967,2.767-1,2.8c-0.452,1.485-0.603,2.427-0.45,2.825
		c-0.605-1.435-1.188-3.193-1.75-5.275c-0.634-2.4-1.117-4.183-1.45-5.35c-0.567,1.667-1.6,4.216-3.1,7.65
		c-1.2-1.4-1.883-3.2-2.05-5.4c-0.567,1.133-1.267,2.917-2.1,5.35c-0.3-1.667-0.483-2.917-0.55-3.75
		c-0.158-1.389-0.117-2.581,0.125-3.575c-0.268,0.959-0.843,2.102-1.725,3.425c-1.2,1.767-1.917,2.883-2.15,3.35
		c-0.3-1.167-0.434-2.1-0.4-2.8c-1.233,2.233-1.966,4.6-2.2,7.1c-0.633-1.8-1.017-3.3-1.15-4.5c-1,2.167-1.567,4.934-1.7,8.3
		c-0.033,1.933,0,4.8,0.1,8.6c-0.633-2.467-1.184-5.65-1.65-9.55c-0.534-4.533-0.8-8.867-0.8-13c-0.533,0.133-0.95,2.5-1.25,7.1
		c-0.267,4-0.35,6.833-0.25,8.5c-0.566-3.2-1-5.617-1.3-7.25c-0.567-2.867-1.167-5.25-1.8-7.15c0.034,0.333,0,1.783-0.1,4.35
		c-0.891-2.869-1.974-5.169-3.25-6.9c0.258,0.386,0.309,1.103,0.15,2.15c-0.133,0.767-0.317,1.517-0.55,2.25
		c-0.9-1-1.733-2.483-2.5-4.45c-0.966-2.5-1.633-4.067-2-4.7c-0.1,1-0.233,2.517-0.4,4.55c-0.167,1.8-0.367,3.316-0.6,4.55
		c-0.466-1.566-0.883-3.566-1.25-6c-0.4-2.8-0.716-4.867-0.95-6.2c-0.133,0.533-0.517,1.566-1.15,3.1
		c-0.667-1.533-0.867-3.05-0.6-4.55c-0.133,0.567-0.25,1.433-0.35,2.6c-0.1,1.3-0.183,2.133-0.25,2.5
		c-0.067-2.367-0.5-4.483-1.3-6.35c-0.567,3.533-0.9,6.167-1,7.9c-0.633-2.267-1.15-4-1.55-5.2c-0.733-2.167-1.633-3.7-2.7-4.6
		c-0.034,0.333-0.2,0.933-0.5,1.8c-0.267,0.767-0.417,1.383-0.45,1.85c-0.567-1.367-0.85-2.1-0.85-2.2c0,0.4-0.05,1-0.15,1.8
		c-0.133,0.8-0.2,1.417-0.2,1.85c-2-2.167-3.216-4.667-3.65-7.5c-0.133,0.867-0.433,2.05-0.9,3.55c-0.467,1.733-0.767,2.867-0.9,3.4
		c0.033-1.333-0.117-3.083-0.45-5.25c-0.381-2.495-0.623-4.12-0.725-4.875c0.086,0.983-0.222,2.208-0.925,3.675
		c-0.633,1.3-1.367,2.417-2.2,3.35c-0.1-1.5-0.117-2.617-0.05-3.35c-0.233,0.767-0.733,1.9-1.5,3.4
		c0.167-1.133,0.217-2.517,0.15-4.15c-1.367,0.633-2.667,1.733-3.9,3.3c-0.733,0.967-1.667,2.433-2.8,4.4
		c0.333-0.733,0.6-1.7,0.8-2.9c0.167-1.367,0.3-2.367,0.4-3c-0.867,1.133-2.167,2.85-3.9,5.15l1.05-2.75
		c-0.167,0.233-0.683,0.983-1.55,2.25c-0.667,0.934-1.233,1.667-1.7,2.2c0.067-0.333,0.117-0.867,0.15-1.6
		c0-0.733,0.033-1.283,0.1-1.65c-2.7,3.733-4.833,8.2-6.4,13.4c-0.066-1.067-0.017-2.7,0.15-4.9c0.2-2.167,0.25-3.733,0.15-4.7
		c-1.5,2.7-2.233,6.733-2.2,12.1c0,6.733-0.283,11.4-0.85,14c0.2-2.967,0.083-6.767-0.35-11.4c-0.6-5.2-1.017-9-1.25-11.4
		c-0.933,1.9-1.533,4.867-1.8,8.9c-0.117,1.954-0.217,4.612-0.3,7.975c-0.03-3.861-0.163-6.902-0.4-9.125
		c-0.433-4.233-1.3-7.534-2.6-9.9c-0.534,1.333-1.1,3.75-1.7,7.25c-0.233-1.7-0.383-2.667-0.45-2.9
		c-0.23-1.022-0.639-1.897-1.225-2.625c0.116,0.183-0.209,0.641-0.975,1.375c-0.633-1.066-1.2-1.5-1.7-1.3
		c-0.6,0.433-1.15,0.65-1.65,0.65c-0.1,0.467-0.317,1.117-0.65,1.95c-0.367,0.867-0.6,1.5-0.7,1.9
		c-0.267-2.033-0.383-3.25-0.35-3.65c-0.2,0.867-0.533,2.216-1,4.05c-0.367,1.633-0.517,3.05-0.45,4.25
		c-0.267-2.267-0.467-3.95-0.6-5.05c-0.5,0.833-0.933,1.95-1.3,3.35c-0.2,0.767-0.467,1.867-0.8,3.3
		c-0.133-2.2-0.183-3.817-0.15-4.85c-1.152,2.952-1.835,5.694-2.05,8.225c-0.023-0.604-0.056-1.278-0.1-2.025
		c-0.167-2.633-0.25-4.417-0.25-5.35c-1,4-1.417,9.367-1.25,16.1c0.233,9.8,0.316,15.283,0.25,16.45c-0.5-2.967-0.95-8.1-1.35-15.4
		c-0.333-6.733-0.883-11.883-1.65-15.45c-0.7,1.633-1.15,3.6-1.35,5.9c-0.133,1.367-0.183,3.433-0.15,6.2
		c-0.6-2-0.983-4.316-1.15-6.95c-0.066-1.148-0.099-3.474-0.1-6.975C23.823,77.66,23.54,80.568,23,85.2
		c-0.5,3.966-0.533,7.133-0.1,9.5c-2.033-8.934-2.85-15.85-2.45-20.75c-0.2,0.7-0.367,1.75-0.5,3.15
		c-0.167,1.433-0.333,2.483-0.5,3.15c-0.434-1.6-0.817-4.15-1.15-7.65l-0.35,1.55c-0.034-0.133-0.25-0.533-0.65-1.2
		c-0.333-0.6-0.533-1.117-0.6-1.55l-1.2,1.3c-0.4-0.633-0.667-1.083-0.8-1.35c-0.122-0.214-0.214-0.447-0.275-0.7
		c0.062,0.751,0.103,1.701,0.125,2.85c-1-0.833-1.883-1.967-2.65-3.4c-0.7-1.4-1.133-2.783-1.3-4.15c0,0.5-0.017,1.283-0.05,2.35
		c-1.1-1.367-2.083-3.583-2.95-6.65c0,0.3-0.017,0.833-0.05,1.6c-0.033,0.7-0.033,1.233,0,1.6C7.083,64.183,6.7,63.3,6.4,62.2
		c-0.333-1.267-0.583-2.217-0.75-2.85l-0.6,2.1c-0.555-1.79-0.855-3.406-0.9-4.85c0.004,0.854,0.021,2.054,0.05,3.6
		c0,1.533-0.117,2.767-0.35,3.7C2.65,62.133,2,59.733,1.9,56.7c0.167-3.534,0.267-6.1,0.3-7.7c-0.367,1.2-0.65,2.783-0.85,4.75
		c-0.233,2.4-0.434,4-0.6,4.8c-0.9-4.167-1-8.583-0.3-13.25c0.2-1.566,0.533-3.117,1-4.65C3.083,35.383,6.8,30,12.6,24.5
		c5-4.8,10.367-8.633,16.1-11.5C40.033,7.3,53.783,3.317,69.95,1.05c8.833-1.267,17.716-1.367,26.65-0.3
		c8.033,0.967,15.683,2.817,22.95,5.55c9.133,3.434,16.851,8.4,23.15,14.9c3.166,3.233,5.416,6.133,6.75,8.7
		C152.95,36.4,155.316,42.417,156.55,47.95z"/>
	<path style="fill-rule:evenodd;clip-rule:evenodd;fill:#4BABA7;" d="M225.65,134.85c-14.233-9.133-31.434-12.083-51.601-8.85
		l6.7-1.7c5.6-1.033,11.2-1.316,16.8-0.85c15.218,1.249,27.968,7.732,38.25,19.45C233.068,140.116,229.685,137.433,225.65,134.85z
		 M235.8,142.9c2.102,2.141,3.818,4.341,5.15,6.6C239.31,147.143,237.593,144.942,235.8,142.9z"/>
	<path style="fill-rule:evenodd;clip-rule:evenodd;fill:#4BABA7;" d="M106.55,133.2l-0.05,3.55c0.167,2.8,0.717,5.184,1.65,7.15
		c2.934,6.366,9.133,7.583,18.6,3.649c-1.967,1.167-4.233,2.066-6.8,2.7c-5.067,1.233-8.983,0.517-11.75-2.15
		c-2.1-2.033-3-5.116-2.7-9.25L106.55,133.2z"/>
	
		<linearGradient id="SVGID_5_" gradientUnits="userSpaceOnUse" x1="-116.5771" y1="111.0107" x2="-60.1965" y2="111.0107" gradientTransform="matrix(-0.1658 -0.9862 0.9862 -0.1658 -1.170039e-004 4.589111e-004)">
		<stop  offset="0" style="stop-color:#381A87"/>
		<stop  offset="0.3529" style="stop-color:#64439F;stop-opacity:0.6667"/>
		<stop  offset="1" style="stop-color:#BD94CF;stop-opacity:0"/>
	</linearGradient>
	<path style="fill-rule:evenodd;clip-rule:evenodd;fill:url(#SVGID_5_);" d="M117.1,51.7c0.667-0.867,2-0.934,4-0.2
		c2.133,0.8,3.767,2.2,4.9,4.2c1.033,1.8,1.333,4.283,0.9,7.45c-0.121,0.97-0.279,1.87-0.475,2.7c0.04-0.396,0.032-0.813-0.025-1.25
		c-0.333-2.033-1.9-3.567-4.7-4.6c-2.3-0.833-3.767-2.467-4.4-4.9L117.1,51.7z"/>
	
		<use xlink:href="#flash0.ai_x2F_Layer_3_x2F__x3C_Path_x3E__x5F_26"  width="10.107" height="14.904" x="-0.039" y="-14.85" transform="matrix(1 0 0 -1 16.3999 51.0498)" style="overflow:visible;opacity:0.2305;enable-background:new    ;"/>
	
		<use xlink:href="#flash0.ai_x2F_Layer_3_x2F__x3C_Path_x3E__x5F_25"  width="16.125" height="8.56" x="0.575" y="-8.575" transform="matrix(1 0 0 -1 55.5 44.6499)" style="overflow:visible;opacity:0.2305;enable-background:new    ;"/>
	
		<use xlink:href="#flash0.ai_x2F_Layer_3_x2F__x3C_Path_x3E__x5F_24"  width="4.363" height="9.124" x="-0.038" y="-9.1" transform="matrix(1 0 0 -1 133.4502 58.6001)" style="overflow:visible;opacity:0.2305;enable-background:new    ;"/>
	
		<use xlink:href="#flash0.ai_x2F_Layer_3_x2F__x3C_Path_x3E__x5F_23"  width="4.363" height="9.174" x="-0.038" y="-9.15" transform="matrix(1 0 0 -1 46.3501 57.3501)" style="overflow:visible;opacity:0.2305;enable-background:new    ;"/>
	
		<use xlink:href="#flash0.ai_x2F_Layer_3_x2F__x3C_Path_x3E__x5F_22"  width="6.142" height="8.125" x="-0.017" y="-8.125" transform="matrix(1 0 0 -1 89.75 53.2998)" style="overflow:visible;opacity:0.2305;enable-background:new    ;"/>
	
		<use xlink:href="#flash0.ai_x2F_Layer_3_x2F__x3C_Path_x3E__x5F_21"  width="6.344" height="12.486" x="0.029" y="-12.45" transform="matrix(1 0 0 -1 116.1001 62.8501)" style="overflow:visible;opacity:0.2305;enable-background:new    ;"/>
	
		<use xlink:href="#flash0.ai_x2F_Layer_3_x2F__x3C_Path_x3E__x5F_20"  width="6.344" height="12.611" x="-0.022" y="-12.575" transform="matrix(1 0 0 -1 31.5 42.8501)" style="overflow:visible;opacity:0.2305;enable-background:new    ;"/>
	
		<use xlink:href="#flash0.ai_x2F_Layer_3_x2F__x3C_Path_x3E__x5F_19"  width="12.486" height="6.279" x="-0.036" y="-6.272" transform="matrix(1 0 0 -1 81.1499 42.7998)" style="overflow:visible;opacity:0.2305;enable-background:new    ;"/>
	
		<linearGradient id="SVGID_6_" gradientUnits="userSpaceOnUse" x1="-84.0586" y1="126.4463" x2="-67.8324" y2="126.4463" gradientTransform="matrix(-0.1664 -0.9861 0.9861 -0.1664 2.757907e-004 4.201233e-004)">
		<stop  offset="0" style="stop-color:#381A87"/>
		<stop  offset="0.3529" style="stop-color:#64439F;stop-opacity:0.6667"/>
		<stop  offset="1" style="stop-color:#BD94CF;stop-opacity:0"/>
	</linearGradient>
	<path style="fill-rule:evenodd;clip-rule:evenodd;fill:url(#SVGID_6_);" d="M134.5,51.75c-1.134-0.667-1.7-1.5-1.7-2.5l3.5,0.4
		c2.467,0.6,4.017,1.7,4.65,3.3c-0.167-0.267-0.417-0.5-0.75-0.7c-0.667-0.367-1.45-0.4-2.351-0.1
		C136.783,52.55,135.667,52.417,134.5,51.75z"/>
	
		<use xlink:href="#flash0.ai_x2F_Layer_3_x2F__x3C_Path_x3E__x5F_17"  width="2.658" height="8.8" x="-0.008" y="-8.8" transform="matrix(1 0 0 -1 23.75 35)" style="overflow:visible;opacity:0.2305;enable-background:new    ;"/>
	
		<linearGradient id="SVGID_7_" gradientUnits="userSpaceOnUse" x1="-75.2324" y1="70.4863" x2="-59.0062" y2="70.4863" gradientTransform="matrix(-0.1664 -0.9861 0.9861 -0.1664 2.757907e-004 4.201233e-004)">
		<stop  offset="0" style="stop-color:#381A87"/>
		<stop  offset="0.3529" style="stop-color:#64439F;stop-opacity:0.6667"/>
		<stop  offset="1" style="stop-color:#BD94CF;stop-opacity:0"/>
	</linearGradient>
	<path style="fill-rule:evenodd;clip-rule:evenodd;fill:url(#SVGID_7_);" d="M81.25,52.8c-1.067,0.367-2.183,0.217-3.35-0.45
		c-1.167-0.667-1.75-1.5-1.75-2.5l3.5,0.4c2.467,0.6,4.017,1.7,4.65,3.3c-0.133-0.267-0.367-0.483-0.7-0.65
		C82.933,52.5,82.15,52.467,81.25,52.8z"/>
	
		<linearGradient id="SVGID_8_" gradientUnits="userSpaceOnUse" x1="77.7739" y1="132.7031" x2="93.9992" y2="132.7031" gradientTransform="matrix(0.8151 -0.5793 0.5793 0.8151 -1.911521e-004 1.527667e-004)">
		<stop  offset="0" style="stop-color:#381A87"/>
		<stop  offset="0.3529" style="stop-color:#64439F;stop-opacity:0.6667"/>
		<stop  offset="1" style="stop-color:#BD94CF;stop-opacity:0"/>
	</linearGradient>
	<path style="fill-rule:evenodd;clip-rule:evenodd;fill:url(#SVGID_8_);" d="M150.6,51.4l1,3.4c0.334,2.6-0.366,4.667-2.1,6.2
		c0.267-0.3,0.45-0.65,0.55-1.05c0.2-0.833-0.1-1.567-0.899-2.2c-0.967-0.733-1.284-1.817-0.95-3.25
		C148.533,53.067,149.333,52.033,150.6,51.4z"/>
	
		<use xlink:href="#flash0.ai_x2F_Layer_3_x2F__x3C_Path_x3E__x5F_14"  width="3.562" height="9.6" x="0.018" y="-9.6" transform="matrix(1 0 0 -1 10.2002 49.5498)" style="overflow:visible;opacity:0.2305;enable-background:new    ;"/>
	
		<linearGradient id="SVGID_9_" gradientUnits="userSpaceOnUse" x1="-89.6597" y1="91.6777" x2="-54.8276" y2="91.6777" gradientTransform="matrix(-0.1658 -0.9862 0.9862 -0.1658 2.485514e-005 -3.057569e-004)">
		<stop  offset="0" style="stop-color:#381A87"/>
		<stop  offset="0.3529" style="stop-color:#64439F;stop-opacity:0.6667"/>
		<stop  offset="1" style="stop-color:#BD94CF;stop-opacity:0"/>
	</linearGradient>
	<path style="fill-rule:evenodd;clip-rule:evenodd;fill:url(#SVGID_9_);" d="M103.7,44.3c1.033,0.467,1.117,1.55,0.25,3.25
		c-0.833,1.633-1.95,2.867-3.35,3.7c-1.067,0.633-1.684,1.617-1.85,2.95c-0.1,0.667-0.083,1.267,0.05,1.8
		c-0.167-0.133-0.316-0.467-0.45-1c-0.333-1.067-0.5-2.533-0.5-4.4s0.983-3.467,2.95-4.8C101.767,45.1,102.733,44.6,103.7,44.3z"/>
	
		<linearGradient id="SVGID_10_" gradientUnits="userSpaceOnUse" x1="-91.7588" y1="24.2383" x2="-56.9267" y2="24.2383" gradientTransform="matrix(-0.1658 -0.9862 0.9862 -0.1658 2.485514e-005 -3.057569e-004)">
		<stop  offset="0" style="stop-color:#381A87"/>
		<stop  offset="0.3529" style="stop-color:#64439F;stop-opacity:0.6667"/>
		<stop  offset="1" style="stop-color:#BD94CF;stop-opacity:0"/>
	</linearGradient>
	<path style="fill-rule:evenodd;clip-rule:evenodd;fill:url(#SVGID_10_);" d="M37.55,57.55c1.034,0.434,1.117,1.517,0.25,3.25
		c-0.833,1.633-1.95,2.85-3.35,3.65c-1.067,0.633-1.7,1.633-1.9,3c-0.1,0.667-0.083,1.267,0.05,1.8
		c-0.133-0.167-0.283-0.517-0.45-1.05c-0.3-1.034-0.45-2.483-0.45-4.35s0.983-3.467,2.95-4.8L37.55,57.55z"/>
	
		<linearGradient id="SVGID_11_" gradientUnits="userSpaceOnUse" x1="-66.728" y1="71.6318" x2="-31.922" y2="71.6318" gradientTransform="matrix(0.2636 -0.9646 0.9646 0.2636 3.379583e-005 1.157820e-004)">
		<stop  offset="0" style="stop-color:#381A87"/>
		<stop  offset="0.3529" style="stop-color:#64439F;stop-opacity:0.6667"/>
		<stop  offset="1" style="stop-color:#BD94CF;stop-opacity:0"/>
	</linearGradient>
	<path style="fill-rule:evenodd;clip-rule:evenodd;fill:url(#SVGID_11_);" d="M62.2,56.4c0.767,0.8,0.4,1.8-1.1,3
		c-1.434,1.133-2.967,1.783-4.6,1.95c-1.233,0.133-2.217,0.767-2.95,1.9c-0.367,0.567-0.6,1.117-0.7,1.65
		c-0.067-0.2-0.067-0.566,0-1.1c0.167-1.066,0.633-2.45,1.4-4.15c0.8-1.7,2.367-2.75,4.7-3.15C60.117,56.3,61.2,56.267,62.2,56.4z"
		/>
	
		<linearGradient id="SVGID_12_" gradientUnits="userSpaceOnUse" x1="-64.7725" y1="25.1196" x2="-29.9423" y2="25.1196" gradientTransform="matrix(0.2634 -0.9647 0.9647 0.2634 1.478195e-004 -3.948808e-004)">
		<stop  offset="0" style="stop-color:#381A87"/>
		<stop  offset="0.3529" style="stop-color:#64439F;stop-opacity:0.6667"/>
		<stop  offset="1" style="stop-color:#BD94CF;stop-opacity:0"/>
	</linearGradient>
	<path style="fill-rule:evenodd;clip-rule:evenodd;fill:url(#SVGID_12_);" d="M17.9,42.2c0.733,0.833,0.35,1.85-1.15,3.05
		c-1.433,1.133-2.95,1.783-4.55,1.95c-1.233,0.133-2.217,0.767-2.95,1.9c-0.367,0.566-0.617,1.117-0.75,1.65
		c-0.067-0.2-0.067-0.567,0-1.1c0.167-1.066,0.65-2.45,1.45-4.15c0.767-1.7,2.316-2.75,4.65-3.15C15.8,42.117,16.9,42.067,17.9,42.2
		z"/>
	
		<linearGradient id="SVGID_13_" gradientUnits="userSpaceOnUse" x1="-106.6602" y1="96.5566" x2="-68.051" y2="96.5566" gradientTransform="matrix(-0.1658 -0.9862 0.9862 -0.1658 -1.555085e-004 3.032684e-004)">
		<stop  offset="0" style="stop-color:#381A87"/>
		<stop  offset="0.3529" style="stop-color:#64439F;stop-opacity:0.6667"/>
		<stop  offset="1" style="stop-color:#BD94CF;stop-opacity:0"/>
	</linearGradient>
	<path style="fill-rule:evenodd;clip-rule:evenodd;fill:url(#SVGID_13_);" d="M106.95,58.45c1.2-1.434,2.216-1.2,3.05,0.7
		c0.8,1.8,0.9,3.467,0.3,5c-0.7,1.867-1.15,3.667-1.35,5.4c-0.333-1.933-1.117-3.833-2.35-5.7c-0.733-1.133-0.9-2.383-0.5-3.75
		L106.95,58.45z"/>
	
		<linearGradient id="SVGID_14_" gradientUnits="userSpaceOnUse" x1="-80.9912" y1="93.9453" x2="-69.101" y2="93.9453" gradientTransform="matrix(-0.1661 -0.9861 0.9861 -0.1661 6.157160e-005 -6.167293e-004)">
		<stop  offset="0" style="stop-color:#381A87"/>
		<stop  offset="0.3529" style="stop-color:#64439F;stop-opacity:0.6667"/>
		<stop  offset="1" style="stop-color:#BD94CF;stop-opacity:0"/>
	</linearGradient>
	<path style="fill-rule:evenodd;clip-rule:evenodd;fill:url(#SVGID_14_);" d="M105.25,54.45c0.633-0.3,0.85,0.117,0.65,1.25
		c-0.2,1.133-0.683,1.95-1.45,2.45c-0.767,0.567-1.034,0.2-0.8-1.1C103.883,55.717,104.417,54.85,105.25,54.45z"/>
	
		<use xlink:href="#flash0.ai_x2F_Layer_3_x2F__x3C_Path_x3E__x5F_7"  width="2.404" height="4.029" x="-0.032" y="-3.983" transform="matrix(1 0 0 -1 10.6499 31.9502)" style="overflow:visible;opacity:0.2305;enable-background:new    ;"/>
	
		<use xlink:href="#flash0.ai_x2F_Layer_3_x2F__x3C_Path_x3E__x5F_6"  width="2.401" height="4.029" x="-0.029" y="-4.033" transform="matrix(1 0 0 -1 38.6499 61.1499)" style="overflow:visible;opacity:0.2305;enable-background:new    ;"/>
	
		<linearGradient id="SVGID_15_" gradientUnits="userSpaceOnUse" x1="33.2056" y1="80.4424" x2="45.1018" y2="80.4424" gradientTransform="matrix(0.891 -0.4539 0.4539 0.891 -1.372397e-004 -1.986623e-004)">
		<stop  offset="0" style="stop-color:#381A87"/>
		<stop  offset="0.3529" style="stop-color:#64439F;stop-opacity:0.6667"/>
		<stop  offset="1" style="stop-color:#BD94CF;stop-opacity:0"/>
	</linearGradient>
	<path style="fill-rule:evenodd;clip-rule:evenodd;fill:url(#SVGID_15_);" d="M75.15,52.85c0.533,0.533,0.217,0.867-0.95,1
		c-1.133,0.167-2.067-0.033-2.8-0.6c-0.733-0.6-0.45-0.983,0.85-1.15C73.55,51.933,74.517,52.183,75.15,52.85z"/>
	
		<linearGradient id="SVGID_16_" gradientUnits="userSpaceOnUse" x1="-149.6978" y1="68.8838" x2="-137.8045" y2="68.8838" gradientTransform="matrix(-0.6537 -0.7567 0.7567 -0.6537 -1.827478e-004 0)">
		<stop  offset="0" style="stop-color:#381A87"/>
		<stop  offset="0.3529" style="stop-color:#64439F;stop-opacity:0.6667"/>
		<stop  offset="1" style="stop-color:#BD94CF;stop-opacity:0"/>
	</linearGradient>
	<path style="fill-rule:evenodd;clip-rule:evenodd;fill:url(#SVGID_16_);" d="M144.2,60.35c0.399-0.6,0.8-0.367,1.2,0.7
		c0.399,1.067,0.416,2.017,0.05,2.85c-0.4,0.867-0.834,0.684-1.3-0.55C143.684,62.15,143.7,61.15,144.2,60.35z"/>
	
		<linearGradient id="SVGID_17_" gradientUnits="userSpaceOnUse" x1="-77.9517" y1="-0.083" x2="-66.0584" y2="-0.083" gradientTransform="matrix(-0.6537 -0.7567 0.7567 -0.6537 -1.827478e-004 0)">
		<stop  offset="0" style="stop-color:#381A87"/>
		<stop  offset="0.3529" style="stop-color:#64439F;stop-opacity:0.6667"/>
		<stop  offset="1" style="stop-color:#BD94CF;stop-opacity:0"/>
	</linearGradient>
	<path style="fill-rule:evenodd;clip-rule:evenodd;fill:url(#SVGID_17_);" d="M45.1,51.1c0.367-0.6,0.75-0.367,1.15,0.7
		c0.433,1.067,0.467,2.017,0.1,2.85c-0.367,0.9-0.8,0.733-1.3-0.5C44.583,52.917,44.6,51.9,45.1,51.1z"/>
	
		<use xlink:href="#flash0.ai_x2F_Layer_3_x2F__x3C_Path_x3E__x5F_2"  width="1.89" height="4.41" x="-0.038" y="-4.336" transform="matrix(1 0 0 -1 106 67.7998)" style="overflow:visible;opacity:0.2305;enable-background:new    ;"/>
	
		<linearGradient id="SVGID_18_" gradientUnits="userSpaceOnUse" x1="-62.4204" y1="-8.1904" x2="-49.551" y2="-8.1904" gradientTransform="matrix(-0.6527 -0.7576 0.7576 -0.6527 4.559755e-005 4.405975e-004)">
		<stop  offset="0" style="stop-color:#381A87"/>
		<stop  offset="0.3529" style="stop-color:#64439F;stop-opacity:0.6667"/>
		<stop  offset="1" style="stop-color:#BD94CF;stop-opacity:0"/>
	</linearGradient>
	<path style="fill-rule:evenodd;clip-rule:evenodd;fill:url(#SVGID_18_);" d="M27.55,44.65c1.167-1.233,1.684-1.083,1.55,0.45
		l-0.3,3.1c-0.2-0.225-0.399-0.475-0.6-0.75C27.233,46.15,27.017,45.217,27.55,44.65z"/>
	
		<linearGradient id="SVGID_19_" gradientUnits="userSpaceOnUse" x1="-61.2925" y1="47.6504" x2="-49.3878" y2="47.6504" gradientTransform="matrix(-0.1323 -0.9912 0.9912 -0.1323 6.920099e-005 -5.621314e-004)">
		<stop  offset="0" style="stop-color:#381A87"/>
		<stop  offset="0.3529" style="stop-color:#64439F;stop-opacity:0.6667"/>
		<stop  offset="1" style="stop-color:#BD94CF;stop-opacity:0"/>
	</linearGradient>
	<path style="fill-rule:evenodd;clip-rule:evenodd;fill:url(#SVGID_19_);" d="M54.85,44.65c0.633-0.3,0.833,0.117,0.6,1.25
		c-0.233,1.1-0.733,1.9-1.5,2.4c-0.833,0.534-1.1,0.15-0.8-1.15C53.417,45.85,53.983,45.017,54.85,44.65z"/>
</g>
</svg>
