<?xml version="1.0" encoding="iso-8859-1"?>
<!-- Generator: Adobe Illustrator 15.1.0, SVG Export Plug-In . SVG Version: 6.00 Build 0)  -->
<!DOCTYPE svg PUBLIC "-//W3C//DTD SVG 1.1//EN" "http://www.w3.org/Graphics/SVG/1.1/DTD/svg11.dtd">
<svg version="1.1" id="Layer_3" xmlns="http://www.w3.org/2000/svg" xmlns:xlink="http://www.w3.org/1999/xlink" x="0px" y="0px"
	 width="254.3px" height="118.2px" viewBox="0 0 254.3 118.2" style="enable-background:new 0 0 254.3 118.2;" xml:space="preserve"
	>
<symbol  id="flash0.ai_x2F_Layer_3_x2F__x3C_Group_x3E_">
	<g id="Layer_1_15_">
	</g>
</symbol>
<symbol  id="flash0.ai_x2F_Layer_3_x2F__x3C_Group_x3E__x5F_0" viewBox="0.025 -118.202 254.275 118.152">
	<g id="Layer_1_17_">
		<g>
			
				<use xlink:href="#flash0.ai_x2F_Layer_3_x2F__x3C_Path_x3E__x5F_1_x5F_0"  width="254.275" height="118.152" x="0.025" y="-118.202" style="overflow:visible;opacity:0.6406;enable-background:new    ;"/>
		</g>
	</g>
</symbol>
<symbol  id="flash0.ai_x2F_Layer_3_x2F__x3C_Path_x3E_" viewBox="-0.063 -12.45 30.013 12.434">
	<g id="Layer_1_14_">
		
			<linearGradient id="SVGID_1_" gradientUnits="userSpaceOnUse" x1="15841.1396" y1="252.1777" x2="15852.4492" y2="252.1777" gradientTransform="matrix(0.042 0.9991 -0.9991 0.042 -398.541 -15848.3535)">
			<stop  offset="0" style="stop-color:#A88F56"/>
			<stop  offset="0.702" style="stop-color:#321F26"/>
			<stop  offset="1" style="stop-color:#2E1312"/>
		</linearGradient>
		<path style="fill-rule:evenodd;clip-rule:evenodd;fill:url(#SVGID_1_);" d="M4.75-0.05c7.567-0.567,14.033-2.8,19.4-6.7
			c2.7-1.967,4.633-3.867,5.8-5.7c-2.567,1.367-5.267,2.417-8.1,3.15l-3.5,0.7c-1.1,1.367-3.233,2.483-6.4,3.35
			c-2.034,0.567-5,1.117-8.9,1.65c-2.733,0.367-3.667,1.1-2.8,2.2C1.083-0.333,2.583,0.117,4.75-0.05z"/>
	</g>
</symbol>
<symbol  id="flash0.ai_x2F_Layer_3_x2F__x3C_Path_x3E__x5F_1" viewBox="0.027 -37.748 19.248 37.75">
	<g id="Layer_1_13_">
		
			<linearGradient id="SVGID_2_" gradientUnits="userSpaceOnUse" x1="13424.8447" y1="1959.5654" x2="13457.4482" y2="1959.5654" gradientTransform="matrix(0.2952 0.9554 -0.9554 0.2952 -2085.4844 -13436.8379)">
			<stop  offset="0" style="stop-color:#A88F56"/>
			<stop  offset="0.702" style="stop-color:#321F26"/>
			<stop  offset="1" style="stop-color:#2E1312"/>
		</linearGradient>
		<path style="fill-rule:evenodd;clip-rule:evenodd;fill:url(#SVGID_2_);" d="M5.45-3.1c0.6-0.767,1.466-2.033,2.6-3.8
			c2.333-3.667,4.483-7.75,6.45-12.25c1.933-4.467,3.433-8.8,4.5-13c0.767-3.133-0.067-4.95-2.5-5.45
			c-1.767-0.367-4.233-0.05-7.4,0.95c-2.4,0.767-4.133,2.25-5.2,4.45c-0.867,1.733-1.367,4.083-1.5,7.05
			C1.433-17.883,0.75-12.433,0.35-8.8C-0.383-2.3,0.133,0.6,1.9-0.1C3.033-0.567,4.217-1.567,5.45-3.1z"/>
	</g>
</symbol>
<symbol  id="flash0.ai_x2F_Layer_3_x2F__x3C_Path_x3E__x5F_10" viewBox="-0.005 -91.05 94.387 91.104">
	<g id="Layer_1_2_">
		
			<linearGradient id="SVGID_3_" gradientUnits="userSpaceOnUse" x1="15767.8867" y1="221.3496" x2="15861.8213" y2="221.3496" gradientTransform="matrix(0.0423 0.9991 -0.9991 0.0423 -401.001 -15845.6543)">
			<stop  offset="0" style="stop-color:#A85756"/>
			<stop  offset="0.702" style="stop-color:#321F26"/>
			<stop  offset="1" style="stop-color:#2E1312"/>
		</linearGradient>
		<path style="fill-rule:evenodd;clip-rule:evenodd;fill:url(#SVGID_3_);" d="M92.8-0.45c1.5-0.3,1.934-0.667,1.3-1.1
			c-0.7-0.467-2.583-0.85-5.65-1.15c-4.133-0.4-7.767-1.133-10.9-2.2c-1.5-0.533-5.816-2.317-12.95-5.35
			c-5.233-2.267-10.383-5.45-15.45-9.55c-1.867-1.534-3.083-2.667-3.65-3.4c-0.567-0.8-0.2-0.833,1.1-0.1
			c4,2.167,8.117,4.15,12.35,5.95C64.983-14.75,69.6-13.3,72.8-13c3.367,0.3,4.617,0,3.75-0.9c-0.8-0.833-2.517-1.583-5.15-2.25
			c-2.6-0.667-5.967-2-10.1-4c-5-2.367-10.233-5.317-15.7-8.85c-5.167-3.333-10.5-8.733-16-16.2c-3.8-5.133-6.717-9.716-8.75-13.75
			c-2.7-5.3-5.717-12.716-9.05-22.25c-2.3-6.566-3.966-9.85-5-9.85c-1.367,0.033-1.716,1.367-1.05,4
			c0.467,1.733,2.067,6.05,4.8,12.95c2.333,5.9,5.034,11.917,8.1,18.05c3,6,5.667,10.783,8,14.35c1.1,1.667,1.567,2.883,1.4,3.65
			c-0.167,0.733-0.816,0.966-1.95,0.7c-2.667-0.6-5.65-2.8-8.95-6.6c-5-5.7-8.667-11.183-11-16.45C5.583-61.633,4.9-63.167,4.1-65
			c-0.667-1.333-1.5-2.383-2.5-3.15c-1.033-0.8-1.567,0-1.6,2.4c-0.067,2.567,0.583,5.883,1.95,9.95
			c3.867,11.433,11.233,22.583,22.1,33.45c6.467,6.434,15.85,11.6,28.15,15.5c5.433,1.733,13.733,3.667,24.9,5.8
			C83.633,0.183,88.867,0.383,92.8-0.45z"/>
	</g>
</symbol>
<symbol  id="flash0.ai_x2F_Layer_3_x2F__x3C_Path_x3E__x5F_10_x5F_0" viewBox="0 -77.55 192.15 77.55">
	<g id="Layer_1_4_">
		
			<linearGradient id="SVGID_4_" gradientUnits="userSpaceOnUse" x1="16634.5547" y1="-694.1943" x2="16705.1094" y2="-694.1943" gradientTransform="matrix(-0.0638 0.998 -0.998 -0.0638 464.2256 -16699.4883)">
			<stop  offset="0" style="stop-color:#7573A8"/>
			<stop  offset="1" style="stop-color:#A6DFC9"/>
		</linearGradient>
		<path style="fill-rule:evenodd;clip-rule:evenodd;fill:url(#SVGID_4_);" d="M168.35-18.45c0.352-0.096,0.919-0.204,1.7-0.325
			c-0.091,0-0.175-0.025-0.25-0.075c0.233-0.5,0.767-0.933,1.6-1.3c0.967-0.4,1.583-0.75,1.85-1.05
			c-0.567-0.066-1.05-0.05-1.45,0.05c0.233-0.167,0.6-0.35,1.1-0.55c0.533-0.2,0.917-0.367,1.15-0.5l-1.35-0.3
			c1.4-0.233,2.45-0.617,3.15-1.15c-0.067,0.066-0.434,0.017-1.1-0.15c0.5-0.667,1.233-1.367,2.2-2.1
			c0.533-0.4,1.333-0.983,2.4-1.75c-0.067,0-0.583,0.1-1.55,0.3c0.3-0.233,1.083-0.783,2.35-1.65c0.934-0.633,1.667-1.217,2.2-1.75
			l-1.2,0.3c0.367-0.1,0.767-0.383,1.2-0.85c0.267-0.267,0.6-0.65,1-1.15c0.3-0.3,1.033-0.933,2.2-1.9l-0.375-0.15
			c0.364,0.105,1.973-1.57,4.825-5.025c-0.512,0.594-1.329,1.019-2.45,1.275c1.667-1.8,2.883-3.317,3.65-4.55
			c-0.267,0.267-0.684,0.533-1.25,0.8c-0.667,0.333-1.1,0.567-1.3,0.7c0.633-0.467,1.133-1.217,1.5-2.25
			c0.567-1.534,0.917-2.4,1.05-2.6c-0.267,0.133-0.784,0.5-1.55,1.1c0.9-1.7,1.733-3.117,2.5-4.25c-1.1,1.133-1.717,1.767-1.85,1.9
			c-0.833,0.767-1.583,1.217-2.25,1.35c0.7-1.267,1.167-2.05,1.4-2.35c-0.767,0.9-1.917,1.867-3.45,2.9c-1.8,1.2-3.017,2.1-3.65,2.7
			c0.2-0.434,0.533-1.083,1-1.95c0.4-0.8,0.633-1.467,0.7-2c-0.466,0.4-1.667,1.633-3.6,3.7c-1.5,1.633-2.8,2.733-3.9,3.3
			c0.133-0.4,0.517-1.2,1.15-2.4c-0.167,0.1-0.784,0.566-1.85,1.4c-0.767,0.6-1.4,0.967-1.9,1.1c1.6-2.4,3.933-6.033,7-10.9
			c-0.2,0.133-1.383,1.183-3.55,3.15c-1.367,1.267-2.717,2.05-4.05,2.35c0.233-0.434,0.816-1.184,1.75-2.25
			c0.833-0.9,1.35-1.7,1.55-2.4c-0.5,0.733-1.383,1.5-2.65,2.3c-1.467,0.867-2.417,1.533-2.85,2c0-0.2,0.133-1.05,0.4-2.55
			c-0.3,0.6-0.55,1.05-0.75,1.35c-0.3,0.533-0.6,0.917-0.9,1.15c0.033-1.966,0.25-4.083,0.65-6.35c-0.733,2.066-1.233,3.367-1.5,3.9
			c-0.7,1.333-1.583,2.3-2.65,2.9c0.067-0.467,0.2-1.15,0.4-2.05c-0.2,0.2-0.483,0.583-0.85,1.15c-0.333,0.5-0.684,0.867-1.05,1.1
			c-0.033,0-1.233,0.417-3.6,1.25c-1.966,0.7-3.05,1.283-3.25,1.75c0.367-0.9,0.583-2.55,0.65-4.95
			c-0.233,0.333-0.434,0.883-0.6,1.65c-0.167,0.8-0.35,1.367-0.55,1.7c-0.733,1.367-1.783,2.433-3.15,3.2
			c0.5-1.533,0.95-3.417,1.35-5.65c0.2-1.3,0.5-3.233,0.9-5.8c-0.367,1.767-1.1,4.267-2.2,7.5c-0.333,0.9-0.917,2.017-1.75,3.35
			c-0.934,1.566-1.55,2.65-1.85,3.25c0.133-1.034,0.733-3,1.8-5.9c-0.433,0.633-1.05,1.95-1.85,3.95
			c-0.7,1.733-1.417,2.967-2.15,3.7c-0.5,0.533-1.233,1-2.2,1.4c-1.1,0.367-1.917,0.65-2.45,0.85c-1,0.333-1.567,0.417-1.7,0.25
			c-0.133-0.167-0.033-0.784,0.3-1.85c-0.833,0.667-1.467,1.15-1.9,1.45c-0.8,0.534-1.517,0.85-2.15,0.95
			c-0.066-0.233-0.233-0.533-0.5-0.9l-0.1,1c-0.534-0.333-1.017-0.75-1.45-1.25c0.067,0.6,0.233,1.05,0.5,1.35
			c-1.433-0.233-2.533-0.467-3.3-0.7c-1.367-0.367-2.233-0.967-2.6-1.8c-0.233,0.767-0.25,1.483-0.05,2.15
			c-0.267-0.2-0.883-0.9-1.85-2.1c0.1,1.167,0.133,1.867,0.1,2.1c-0.533-0.333-1.333-0.517-2.4-0.55
			c-1.433-0.033-2.3-0.083-2.6-0.15c-0.867-0.233-1.667-0.517-2.4-0.85c-1.091-0.562-1.675-1.137-1.75-1.725
			c0.103,1.019,0.486,1.777,1.15,2.275c-1.133-0.167-2.117-0.467-2.95-0.9c-1.167-0.567-1.833-1.3-2-2.2
			c-0.267,0.933-0.35,1.683-0.25,2.25c-0.633-0.967-0.85-2.467-0.65-4.5c-0.233,0.433-0.517,1.383-0.85,2.85
			c-0.3,1.233-0.684,2.1-1.15,2.6c0.033-0.333,0-0.767-0.1-1.3c-0.067,0.067-0.217,0.45-0.45,1.15c-0.167,0.534-0.4,0.817-0.7,0.85
			c-0.434,0.033-0.667-0.183-0.7-0.65s0.15-0.767,0.55-0.9c-0.5,0.133-1.183,0.483-2.05,1.05c-0.9,0.6-1.567,0.983-2,1.15
			c0.1-0.167,0.2-0.333,0.3-0.5c0.1-0.133,0.267-0.25,0.5-0.35c-0.8,0.267-1.4,0.466-1.8,0.6c-0.733,0.3-1.283,0.65-1.65,1.05
			c0.033-0.233,0.017-0.55-0.05-0.95c-0.533-0.066-1.083,0.217-1.65,0.85c0.333-0.8,0.5-1.467,0.5-2c-0.367,0.5-0.967,0.967-1.8,1.4
			c-1.033,0.467-1.7,0.833-2,1.1c-0.4-0.767-0.417-1.45-0.05-2.05l-2.3,1l1.05-1.8c-0.267,0.1-0.833,0.383-1.7,0.85
			c-0.7,0.4-1.3,0.65-1.8,0.75c-0.4,0.133-1,0.217-1.8,0.25c-0.833,0.033-1.433,0.1-1.8,0.2c0.167-0.267,0.45-0.583,0.85-0.95
			c0.434-0.4,0.717-0.683,0.85-0.85c-0.8,0.033-1.75,0.233-2.85,0.6c-1.2,0.5-2.1,0.85-2.7,1.05c0.1-0.133,0.566-0.566,1.4-1.3
			c-1.833,0.9-3.8,0.817-5.9-0.25c-2.233-1.1-3.3-2.783-3.2-5.05c-0.167,1.733-0.233,3.05-0.2,3.95c-0.6-0.7-1.167-1.75-1.7-3.15
			c0.167,1.2,0.317,2.033,0.45,2.5c0.267,0.967,0.683,1.683,1.25,2.15c-2.167-1-3.75-1.783-4.75-2.35c-1.767-1-3.067-2.233-3.9-3.7
			c0.267,0.8,0.467,1.4,0.6,1.8c0.258,0.71,0.583,1.219,0.975,1.525c-2.254-1.694-3.779-3.502-4.575-5.425
			c0.133,1.333,0.267,2.317,0.4,2.95c-1.133-2.367-2.167-4.284-3.1-5.75c0.467,1.133,0.85,2.283,1.15,3.45
			c-0.633-0.967-1.433-1.85-2.4-2.65c-0.567-0.433-1.55-1.1-2.95-2c-1.667-0.967-2.683-1.583-3.05-1.85
			c-1.313-0.952-2.079-1.818-2.3-2.6c0.437,1.705,0.853,2.872,1.25,3.5c-1.267-1.466-2.2-2.566-2.8-3.3
			c-1.067-1.267-1.883-2.467-2.45-3.6c0.167,0.833,0.517,1.867,1.05,3.1c0.709,1.583,1.126,2.533,1.25,2.85
			c-0.722-0.859-2.421-2.31-5.1-4.35c-2.233-1.733-3.717-3.483-4.45-5.25c-0.033,0.933,0.15,1.983,0.55,3.15
			c0.033,0.1,0.417,1.067,1.15,2.9l-1.8-1.65c-0.667-0.7-1.117-1.4-1.35-2.1c0.133,1.233,0.533,2.317,1.2,3.25
			c-1.033-0.933-1.767-1.667-2.2-2.2c-0.84-1.066-1.198-1.974-1.075-2.725c-0.249,1.278-0.34,2.67-0.275,4.175
			c0.133,1.767,0.483,3.117,1.05,4.05c-0.833-1.033-1.466-2.283-1.9-3.75c-0.167,1.233,0.25,2.867,1.25,4.9
			c0.3,0.533,0.633,1.3,1,2.3c0.4,1.067,0.7,1.817,0.9,2.25c-0.566-1-1.8-2.267-3.7-3.8c-1.833-1.433-3-2.7-3.5-3.8
			c0.667,1.8,1.383,3.033,2.15,3.7c-3.167-2.267-5.367-4.983-6.6-8.15c0.267,2.033,0.633,3.467,1.1,4.3
			c-1.633-2.3-2.833-4.667-3.6-7.1l-0.15,2.75c-0.433-1.434-0.783-2.434-1.05-3c0.2,0.8,0.233,1.583,0.1,2.35
			c-0.966-2.1-2-3.75-3.1-4.95c-0.333-0.4-0.934-1-1.8-1.8c-0.646-0.743-0.962-1.467-0.95-2.175
			c-0.056,1.473,0.135,2.656,0.575,3.55c-0.54-0.722-1.349-1.764-2.425-3.125c-0.934-1.267-1.55-2.483-1.85-3.65
			c-0.2,1.567-0.15,2.783,0.15,3.65c-0.7-1.3-1.316-3.233-1.85-5.8c-0.066,1.267-0.1,2.233-0.1,2.9c0,1.133,0.133,2.067,0.4,2.8
			c-0.3-0.667-0.967-1.483-2-2.45c-1.066-1.035-1.774-1.818-2.125-2.35c0.627,1.027,1.102,1.96,1.425,2.8
			c-1.133-1.667-3.066-3.167-5.8-4.5c1.4,1.167,2.183,2.483,2.35,3.95c-0.534-0.7-2.083-1.767-4.65-3.2
			c-1.97-1.081-3.169-2.355-3.6-3.825c0.273,1.036,0.924,2.877,1.95,5.525c-2.405-3.151-4.038-6.385-4.9-9.7
			c0.667,4.966,2.333,9.667,5,14.1c-1.2-1.5-1.85-2.316-1.95-2.45c-0.667-0.967-1.167-1.883-1.5-2.75c0.6,1.667,1.517,3.5,2.75,5.5
			c0.1,0.2,1.217,1.9,3.35,5.1l1.5,2.45c-0.933-0.9-1.75-1.783-2.45-2.65c0.566,1.233,1.617,2.583,3.15,4.05
			c2.133,2.067,3.35,3.284,3.65,3.65c-0.743-0.226-1.426-0.484-2.05-0.775c1.086,0.543,2.187,1.535,3.3,2.975
			c0.633,0.8,1.5,2.083,2.6,3.85c-0.2-0.067-0.684-0.35-1.45-0.85c1.733,1.533,2.934,2.733,3.6,3.6
			c-0.438-0.063-0.754-0.138-0.95-0.225c1.272,0.621,2.172,1.129,2.7,1.525l-1.6-0.05c0.233,0.167,0.533,0.35,0.9,0.55
			c0.6,0.267,0.934,0.417,1,0.45H20.9c0.3,0.333,2.133,2.333,5.5,6c1.767,1.9,2.883,3.067,3.35,3.5c1.333,1.3,2.583,2.283,3.75,2.95
			c-0.667,0.133-1.1,0.2-1.3,0.2c0.466,0.133,1.15,0.3,2.05,0.5l-0.75,0.3c1.133,0.267,1.717,0.417,1.75,0.45l-0.55,0.4
			c1.1,0.467,2.4,1.267,3.9,2.4c2.4,1.767,3.65,2.683,3.75,2.75c1.8,1.233,3.8,2.5,6,3.8c0.6,0.333,1.533,0.883,2.8,1.65
			c0.133,0.067,0.517,0.2,1.15,0.4c0.5,0.133,0.883,0.317,1.15,0.55c-0.467,0.267-0.8,0.433-1,0.5c1.066-0.167,1.683-0.25,1.85-0.25
			c-0.566,0.5-0.966,0.9-1.2,1.2c1.267-0.4,2.15-0.6,2.65-0.6c-0.2,0.4-0.383,0.683-0.55,0.85c0.533-0.5,1.7-0.333,3.5,0.5
			c1.767,0.833,2.617,1.617,2.55,2.35c0.167-0.133,0.483-0.233,0.95-0.3c-0.034,0.367-0.083,0.617-0.15,0.75
			c0.733-0.133,1.317-0.184,1.75-0.15c-0.233,0.566-0.45,0.966-0.65,1.2c0.867-0.967,2.4-1.017,4.6-0.15
			c1.867,0.767,3.267,1.683,4.2,2.75c-0.233-0.567-0.333-1.067-0.3-1.5c0.2,0.467,0.617,0.95,1.25,1.45l-0.35-1
			c1.167,1.066,2.934,1.883,5.3,2.45c-0.367-0.367-0.717-0.8-1.05-1.3c0.367,0.4,0.983,0.767,1.85,1.1c1,0.433,1.65,0.767,1.95,1
			c-0.033-0.233-0.033-0.617,0-1.15l0.325,0.475C80.84-3.624,81.099-3.682,81.7-3.65c0.3,0.033,0.633,0.083,1,0.15l3,0.6
			c0.6,0.066,1.95,0.15,4.05,0.25c1.9,0.2,3.083,0.633,3.55,1.3c0.2-0.233,0.55-0.4,1.05-0.5l-0.3,0.75
			c0.867-0.533,1.567-0.783,2.1-0.75C96.083-1.65,96.033-1.5,96-1.4c-0.067,0.2-0.167,0.367-0.3,0.5c2.5-0.733,3.716-0.6,3.65,0.4
			c0.633-0.367,1.433-0.55,2.4-0.55c0.033,0,0.867,0.05,2.5,0.15c0.667,0.033,1.933,0,3.8-0.1c1.7,0.033,2.867,0.367,3.5,1
			c-0.2-0.5-0.35-0.833-0.45-1c0.8,0.3,1.45,0.6,1.95,0.9c-0.233-0.367-0.4-0.6-0.5-0.7c0.267,0.033,0.7,0.15,1.3,0.35
			c0.533,0.167,0.967,0.25,1.3,0.25l-0.5-0.6c0.733,0.733,1.95,0.767,3.65,0.1c1.767-0.733,2.95-0.85,3.55-0.35l-0.5,0.3
			c0.733-0.4,1.15-0.633,1.25-0.7c0.467-0.2,0.9-0.283,1.3-0.25c-0.19,0.445-0.399,0.77-0.625,0.975
			c0.871-0.751,2.112-1.193,3.725-1.325c0.933-0.067,2.267-0.1,4-0.1l-0.95-0.45c1.4,0,2.284-0.066,2.65-0.2
			c-0.467-0.167-0.8-0.267-1-0.3c0.4-0.066,1.017-0.2,1.85-0.4c0.733-0.167,1.333-0.233,1.8-0.2l-0.45-0.05
			c0.333-0.133,1.367-0.367,3.1-0.7l-0.35-0.3c0.3,0.2,1.15,0.067,2.55-0.4c0.733-0.267,1.6-0.6,2.6-1
			c1.067-0.434,2.534-0.85,4.4-1.25l-1-0.55l1.45,0.4l-0.25-0.7c0.3-0.1,0.817,0.033,1.55,0.4c-0.067-0.233-0.083-0.633-0.05-1.2
			c0.067,0.267,0.8,0.083,2.2-0.55c0.733-0.333,1.55-0.717,2.45-1.15l-0.1,0.85l2.8-2.45c-0.167,0.5-0.383,0.967-0.65,1.4
			c0.533-0.7,1.033-1.2,1.5-1.5c-0.067,0.467-0.15,0.817-0.25,1.05c0.233-0.3,0.566-0.733,1-1.3c0.4-0.533,0.767-0.933,1.1-1.2
			l-0.1,1.625c0.057-0.696,1.023-1.554,2.9-2.575c0.931-0.528,2.098-1.103,3.5-1.725c0.124,0.138,0.307,0.313,0.55,0.525
			c0.034-0.3,0.15-0.7,0.35-1.2l0.3,0.55c0.033-0.466,0.367-0.733,1-0.8c0.867-0.1,1.383-0.2,1.55-0.3L168.35-18.45z"/>
	</g>
</symbol>
<symbol  id="flash0.ai_x2F_Layer_3_x2F__x3C_Path_x3E__x5F_1_x5F_0" viewBox="0.025 -118.202 254.275 118.152">
	<g id="Layer_1_16_">
		<path style="fill-rule:evenodd;clip-rule:evenodd;fill:#ABABB0;" d="M244.4-35.05l-0.35-4.05c-0.5-3.066-1.417-5.566-2.75-7.5
			c3.867-1.233,7.184-4.15,9.95-8.75c1.4-2.3,2.417-4.467,3.05-6.5c-1.033,1.033-1.966,1.8-2.8,2.3c-1.767,1.1-3.717,1.633-5.85,1.6
			c-3.967,0-6.5,0.067-7.6,0.2c-2.733,0.333-4.65,1.15-5.75,2.45c-1.333,1.566-2.167,3.333-2.5,5.3
			c-0.933-0.233-2.667-0.433-5.2-0.6c-1.7-0.066-2.8-0.1-3.3-0.1c-1.607,0.066-2.633,0.291-3.075,0.675
			c0.535-0.496,1.526-1.254,2.975-2.275c1.667-1.2,3.966-2.517,6.9-3.95c0.867-0.4,1.883-0.75,3.05-1.05
			c1.2-0.267,2.067-0.534,2.6-0.8c-1.333-0.133-3.167,0.083-5.5,0.65c-5.5,1.367-10.7,3.75-15.6,7.15l-1.9,1.45l2.55-3.7l1.2-0.95
			v0.05l0.1-0.15l0.1-0.05c-0.233,0.867-0.4,1.517-0.5,1.95c0.367-0.367,0.816-0.983,1.35-1.85c0.567-0.967,1-1.633,1.3-2
			c0,0.066,0.05,0.5,0.15,1.3c-0.033-0.667,0.283-1.483,0.95-2.45c0.333-0.566,0.833-1.333,1.5-2.3l0.55,1.3
			c-0.167-0.6-0.183-1.383-0.05-2.35c0.1,0.133,0.333,0.367,0.7,0.7c-0.167-0.4-0.217-0.883-0.15-1.45l0.5,0.2
			c-0.367-0.167-0.133-1.133,0.7-2.9c0.433-0.9,0.933-1.867,1.5-2.9c-0.5,0.267-0.85,0.467-1.05,0.6
			c0.067-0.167,0.333-0.717,0.8-1.65c0.333-0.667,0.583-1.216,0.75-1.65l-0.8,0.5l0.35-0.75l-0.2,0.15c0.133-0.5,0.2-1.133,0.2-1.9
			c2.1-4.8,4.033-10.066,5.8-15.8c1.434-4.8,2.567-9.283,3.4-13.45c0.333-1.6,0.767-3.667,1.3-6.2c0.4-1.967,0.567-3.5,0.5-4.6
			c-0.033-1.167-0.317-1.917-0.85-2.25c-0.467-0.267-1.316-0.35-2.55-0.25c-1.533,0.133-2.35-0.033-2.45-0.5
			c0.133-0.667,0.067-1.133-0.2-1.4c-0.767-0.2-1.9-0.184-3.4,0.05c-2,0.333-3.15,0.5-3.45,0.5c-4.367,0.1-8-0.167-10.9-0.8
			c-1.034-0.367-1.95-0.667-2.75-0.9c-1.5-0.433-2.35-0.5-2.55-0.2c-0.3,0.467,0.167,1.133,1.4,2c0.633,0.433,1.434,0.933,2.4,1.5
			c-1.067,0.1-2.367-0.167-3.9-0.8c-2.233-0.966-3.483-1.483-3.75-1.55c-2.367-0.667-3.966-1.083-4.8-1.25
			c-2.133-0.4-3.767-0.45-4.9-0.15c-0.633,0.167-0.633,0.7,0,1.6c0.933,1.367,1.433,2.15,1.5,2.35c0.167,0.767,0.183,2.1,0.05,4
			c-0.267,3.034-0.95,6.267-2.05,9.7c-1.733,5.633-4.417,11.683-8.05,18.15c-3.433,6.033-7.517,11.434-12.25,16.2l0.05-0.15
			c0.433-1.934,0.433-4.483,0-7.65c-0.4-3.066-0.967-5.216-1.7-6.45c-0.333,4.133-0.717,7.4-1.15,9.8
			c-0.767,4.367-2.017,7.633-3.75,9.8l-1.1,1.3c-4.467,3.333-9.133,6.033-14,8.1c-1.8,0.733-3.683,1.383-5.65,1.95l-1.6,0.25
			l-0.15,0.2c-11,2.667-22.55,1.933-34.65-2.2c-12.033-4.1-22.184-10.683-30.45-19.75c-5.6-6.2-10.967-14.833-16.1-25.9
			C57.717-102.083,56-106,55.4-107.6c-0.867-2.4-1.417-5.017-1.65-7.85c-0.133-1.767-0.517-2.683-1.15-2.75
			c-0.467-0.033-3.333,0.45-8.6,1.45c-5.267,1.033-9.15,1.4-11.65,1.1c0.233-0.267,0.533-0.767,0.9-1.5
			c-1.667-0.033-3.917,0.033-6.75,0.2c-3.4,0.167-5.65,0.267-6.75,0.3c-1.5,0.033-3.217,0-5.15-0.1c-2.233-0.2-3.934-0.333-5.1-0.4
			c0.167,0.667,0.667,1.233,1.5,1.7c1.033,0.434,1.767,0.817,2.2,1.15c-1.333,0.4-3.267,0.45-5.8,0.15
			c-2.6-0.267-4.45-0.283-5.55-0.05c-1.067,0.233-1.667,0.517-1.8,0.85c-0.133,0.333,0.267,1.25,1.2,2.75
			c1.667,2.733,3.4,6.55,5.2,11.45c2.5,6.933,3.966,10.9,4.4,11.9c2.867,6.767,4.933,11.383,6.2,13.85l1.25,2.35
			c0.967,3.533,2.4,6.816,4.3,9.85c-1.1-1.3-1.75-2.083-1.95-2.35c-0.667-0.9-1.167-1.767-1.5-2.6c0.6,1.6,1.517,3.35,2.75,5.25
			c1.5,2.2,2.617,3.85,3.35,4.95c0.6,0.8,1.1,1.567,1.5,2.3c-1.133-1.067-1.95-1.9-2.45-2.5c0.6,1.2,1.667,2.5,3.2,3.9
			c2.2,2.033,3.417,3.2,3.65,3.5c-0.813-0.25-1.479-0.5-2-0.75c1.742,0.901,3.692,3.084,5.85,6.55
			c-0.167-0.033-0.633-0.316-1.4-0.85c0.3,0.3,0.917,0.883,1.85,1.75c0.767,0.7,1.333,1.283,1.7,1.75l-1-0.25
			c0.233,0.167,0.7,0.417,1.4,0.75c0.6,0.267,1.05,0.517,1.35,0.75l-1.6-0.05c0.4,0.267,1.034,0.583,1.9,0.95h-0.65
			c1.133,1.3,2.967,3.217,5.5,5.75c1.567,1.633,2.684,2.767,3.35,3.4c1.333,1.2,2.6,2.133,3.8,2.8l-1.3,0.25
			c1.3,0.267,1.983,0.417,2.05,0.45l-0.75,0.3c0.1,0.034,0.4,0.083,0.9,0.15c0.4,0.066,0.7,0.15,0.9,0.25l-0.6,0.4
			c1.1,0.467,2.4,1.233,3.9,2.3c2.4,1.733,3.65,2.633,3.75,2.7c2.133,1.333,4.15,2.533,6.05,3.6c0.6,0.333,1.517,0.867,2.75,1.6
			c0.133,0.067,0.533,0.184,1.2,0.35c0.5,0.167,0.867,0.35,1.1,0.55l-0.95,0.5c0.933-0.167,1.533-0.233,1.8-0.2
			c-0.5,0.367-0.883,0.733-1.15,1.1c1.467-0.367,2.35-0.55,2.65-0.55c-0.197,0.361-0.397,0.628-0.6,0.8
			c0.577-0.462,1.743-0.296,3.5,0.5c1.767,0.8,2.617,1.55,2.55,2.25c0.2-0.1,0.517-0.184,0.95-0.25c0,0.333-0.033,0.566-0.1,0.7
			c0.733-0.133,1.3-0.183,1.7-0.15c-0.254,0.603-0.446,0.978-0.575,1.125c0.867-0.91,2.392-0.935,4.575-0.075
			c1.833,0.7,3.233,1.566,4.2,2.6c-0.233-0.5-0.333-0.966-0.3-1.4c0.233,0.434,0.65,0.9,1.25,1.4L90.3-5.9
			c1.267,1.066,3.034,1.833,5.3,2.3c-0.4-0.367-0.75-0.767-1.05-1.2c0.367,0.367,0.983,0.716,1.85,1.05c1,0.433,1.65,0.75,1.95,0.95
			c-0.033-0.2-0.033-0.567,0-1.1l0.325,0.475C98.59-3.573,98.849-3.632,99.45-3.6c0.3,0.033,0.633,0.083,1,0.15l3.05,0.55
			c0.6,0.1,1.933,0.2,4,0.3c1.933,0.2,3.117,0.6,3.55,1.2c0.233-0.167,0.583-0.317,1.05-0.45c-0.1,0.333-0.2,0.567-0.3,0.7
			c0.934-0.5,1.633-0.733,2.1-0.7c-0.066,0.2-0.117,0.35-0.15,0.45c-0.067,0.2-0.167,0.367-0.3,0.5c0.767-0.267,1.5-0.434,2.2-0.5
			c1.033-0.067,1.533,0.217,1.5,0.85c0.6-0.333,1.383-0.5,2.35-0.5c0.567,0,1.4,0.05,2.5,0.15c0.667,0.033,1.933,0.017,3.8-0.05
			c1.7,0.034,2.867,0.333,3.5,0.9c-0.2-0.434-0.35-0.75-0.45-0.95l1.95,0.9c-0.233-0.333-0.4-0.566-0.5-0.7
			c0.267,0.033,0.7,0.15,1.3,0.35c0.533,0.167,0.967,0.25,1.3,0.25l-0.5-0.55c0.733,0.7,1.95,0.717,3.65,0.05
			c1.767-0.667,2.95-0.767,3.55-0.3l-0.2,0.15c1-0.566,1.75-0.833,2.25-0.8c-0.173,0.432-0.356,0.741-0.55,0.925
			c0.858-0.688,2.075-1.096,3.65-1.225c0.9-0.066,2.233-0.1,4-0.1l-1-0.45c0.3,0,0.75,0.017,1.35,0.05c0.566,0,1.017-0.066,1.35-0.2
			c-0.5-0.167-0.833-0.267-1-0.3c0.167-0.033,0.783-0.15,1.85-0.35c0.733-0.167,1.333-0.233,1.8-0.2l-0.5-0.05
			c0.1-0.034,1.15-0.25,3.15-0.65l-0.35-0.3c0.367,0.233,2.083-0.217,5.15-1.35c0.6-0.233,2.05-0.617,4.35-1.15l-0.95-0.55
			c0.667,0.133,1.15,0.267,1.45,0.4l-0.3-0.7c0.333-0.066,0.867,0.05,1.6,0.35c-0.067-0.2-0.1-0.567-0.1-1.1
			c0.066,0.233,0.816,0.05,2.25-0.55c0.733-0.333,1.55-0.7,2.45-1.1c-0.033,0.4-0.083,0.683-0.15,0.85l2.85-2.35
			c-0.133,0.433-0.367,0.867-0.7,1.3c0.667-0.733,1.184-1.2,1.55-1.4l-0.25,1c1.1-1.333,1.783-2.133,2.05-2.4l-0.05,1.575
			c0.034-0.602,0.901-1.36,2.6-2.275c0.9-0.533,2.15-1.15,3.75-1.85l0.55,0.55l0.4-1.2l0.25,0.55c0.033-0.434,0.367-0.684,1-0.75
			c0.9-0.1,1.417-0.2,1.55-0.3c-0.3-0.333-0.517-0.533-0.65-0.6l1.7-0.35l-0.25-0.05c0.233-0.5,0.767-0.917,1.6-1.25
			c0.933-0.367,1.533-0.7,1.8-1c-0.533-0.066-1-0.05-1.4,0.05c0.233-0.167,0.6-0.333,1.1-0.5c0.5-0.2,0.867-0.367,1.1-0.5l-1.35-0.3
			c1.42-0.264,2.479-0.631,3.175-1.1c-0.1,0.063-0.275,0.063-0.525,0c-0.233-0.034-0.417-0.083-0.55-0.15
			c0.5-0.633,1.216-1.283,2.15-1.95c0.533-0.4,1.35-0.983,2.45-1.75c-0.7,0.133-1.233,0.233-1.6,0.3
			c0.333-0.233,1.117-0.75,2.35-1.55c1-0.633,1.75-1.2,2.25-1.7c-0.54,0.127-0.94,0.227-1.2,0.3c0.38-0.115,0.78-0.398,1.2-0.85
			c0.233-0.267,0.55-0.633,0.95-1.1c0.233-0.233,0.983-0.833,2.25-1.8l-0.425-0.15c0.401,0.098,1.968-1.469,4.7-4.7
			c-0.454,0.49-1.229,0.856-2.325,1.1c1.566-1.567,2.783-3,3.65-4.3c-0.267,0.233-0.883,0.567-1.85,1
			c2.467-2.167,4.117-3.566,4.95-4.2c1.933-1.5,4.767-2.684,8.5-3.55c1.566-0.367,4.6-0.9,9.1-1.6c-0.3,1.867-0.117,3.617,0.55,5.25
			c0.5,1.233,1.7,2.2,3.6,2.9c0.833,0.3,2.633,0.767,5.4,1.4C241.367-39.117,243.133-37.583,244.4-35.05z"/>
	</g>
</symbol>
<symbol  id="flash0.ai_x2F_Layer_3_x2F__x3C_Path_x3E__x5F_2" viewBox="-0.066 -28.702 17.976 28.721">
	<g id="Layer_1_12_">
		
			<linearGradient id="SVGID_5_" gradientUnits="userSpaceOnUse" x1="15821.8867" y1="262.0752" x2="15849.5117" y2="262.0752" gradientTransform="matrix(0.0425 0.9991 -0.9991 0.0425 -402.6768 -15843.8164)">
			<stop  offset="0" style="stop-color:#553735"/>
			<stop  offset="0.702" style="stop-color:#321F26"/>
			<stop  offset="1" style="stop-color:#2E1312"/>
		</linearGradient>
		<path style="fill-rule:evenodd;clip-rule:evenodd;fill:url(#SVGID_5_);" d="M0.8,0c1.434-0.233,3.633-2.4,6.6-6.5
			c2.833-3.933,5.45-8.333,7.85-13.2c2.133-4.367,2.983-7.183,2.55-8.45c-0.433-1.233-1.35-0.4-2.75,2.5
			c-2.2,4.6-5.233,9.2-9.1,13.8C4.017-9.583,2.383-7.033,1.05-4.2C-0.35-1.2-0.433,0.2,0.8,0z"/>
	</g>
</symbol>
<symbol  id="flash0.ai_x2F_Layer_3_x2F__x3C_Path_x3E__x5F_3" viewBox="-0.009 -12.904 6.973 12.84">
	<g id="Layer_1_11_">
		
			<linearGradient id="SVGID_6_" gradientUnits="userSpaceOnUse" x1="15839.5078" y1="264.0527" x2="15851.9941" y2="264.0527" gradientTransform="matrix(0.042 0.9991 -0.9991 0.042 -398.917 -15847.9424)">
			<stop  offset="0" style="stop-color:#553735"/>
			<stop  offset="0.702" style="stop-color:#321F26"/>
			<stop  offset="1" style="stop-color:#2E1312"/>
		</linearGradient>
		<path style="fill-rule:evenodd;clip-rule:evenodd;fill:url(#SVGID_6_);" d="M0.1-0.5C0.533,0.3,1.167,0,2-1.4
			c1.233-2.4,2.35-4.434,3.35-6.1c1.467-2.433,1.933-4.1,1.4-5c-0.567-0.933-1.417-0.25-2.55,2.05c-1.534,2.9-2.583,4.934-3.15,6.1
			C0.117-2.417-0.2-1.133,0.1-0.5z"/>
	</g>
</symbol>
<symbol  id="flash0.ai_x2F_Layer_3_x2F__x3C_Path_x3E__x5F_4" viewBox="0 -70.876 80.59 70.908">
	<g id="Layer_1_10_">
		
			<linearGradient id="SVGID_7_" gradientUnits="userSpaceOnUse" x1="15788.1113" y1="228.457" x2="15856.0225" y2="228.457" gradientTransform="matrix(0.0423 0.9991 -0.9991 0.0423 -401.1396 -15845.502)">
			<stop  offset="0" style="stop-color:#A88F56"/>
			<stop  offset="0.702" style="stop-color:#321F26"/>
			<stop  offset="1" style="stop-color:#2E1312"/>
		</linearGradient>
		<path style="fill-rule:evenodd;clip-rule:evenodd;fill:url(#SVGID_7_);" d="M43.15-13.9c5.867-6.033,9.133-9.434,9.8-10.2
			c3.433-3.967,5.466-7.217,6.1-9.75c0.233-0.967,0.1-1.433-0.4-1.4c-0.5,0.067-1.25,0.717-2.25,1.95
			c-3.6,4.4-6.417,7.683-8.45,9.85c-4.233,4.4-8.367,7.85-12.4,10.35c-4.167,2.533-10.367,4.717-18.6,6.55
			C10.55-5.083,4.9-4.183,0-3.85c2.033,1.233,4.85,2.233,8.45,3c7.2,1.533,14.716,1.067,22.55-1.4c8.233-2.6,14.933-5.95,20.1-10.05
			c2.367-1.9,5.9-5.534,10.6-10.9c2.566-2.933,5.2-6.8,7.9-11.6c1.5-2.7,3.65-6.65,6.45-11.85c2.067-3.567,3.434-6.583,4.1-9.05
			c0.633-2.3,0.583-3.883-0.15-4.75c-0.567-0.633-1.35,0.067-2.35,2.1l-2.55,5.3c-0.934,1.433-1.267,1.267-1-0.5
			c0.267-1.934,1.267-5.117,3-9.55c1.633-4.267,2.066-6.8,1.3-7.6c-0.3-0.3-0.683-0.216-1.15,0.25c-0.5,0.467-0.9,1.167-1.2,2.1
			c-0.433,1.333-1.233,3.267-2.4,5.8c-1.4,3.033-2.4,5.333-3,6.9c-0.867,2.2-2.367,4.8-4.5,7.8L63.2-44l2.25-1.8
			c1.8-1.233,3.383-1.967,4.75-2.2c1.533-0.267,1.25,1.717-0.85,5.95c-1.767,3.6-4.317,7.833-7.65,12.7
			c-2.867,4.3-6.1,8.167-9.7,11.6c-3.667,3.467-6.767,5.6-9.3,6.4C40.7-10.717,40.85-11.567,43.15-13.9z"/>
	</g>
</symbol>
<symbol  id="flash0.ai_x2F_Layer_3_x2F__x3C_Path_x3E__x5F_5" viewBox="-0.112 -16.613 8.859 16.6">
	<g id="Layer_1_9_">
		
			<linearGradient id="SVGID_8_" gradientUnits="userSpaceOnUse" x1="20339.2539" y1="-229.3276" x2="20388.5625" y2="-229.3276" gradientTransform="matrix(-0.0193 0.9998 -0.99 -0.5265 169.3838 -20477.3867)">
			<stop  offset="0" style="stop-color:#A85756"/>
			<stop  offset="0.702" style="stop-color:#321F26"/>
			<stop  offset="1" style="stop-color:#2E1312"/>
		</linearGradient>
		<path style="fill-rule:evenodd;clip-rule:evenodd;fill:url(#SVGID_8_);" d="M2.7-5.05c1.367,2.466,2.6,4.033,3.7,4.7
			c0.967,0.6,1.633,0.4,2-0.6C9.333-3.383,8.383-7.1,5.55-12.1c-1.3-2.333-2.466-3.767-3.5-4.3c-0.9-0.467-1.517-0.167-1.85,0.9
			C-0.633-12.933,0.2-9.45,2.7-5.05z"/>
	</g>
</symbol>
<symbol  id="flash0.ai_x2F_Layer_3_x2F__x3C_Path_x3E__x5F_6" viewBox="0.012 -10.866 6.382 11.068">
	<g id="Layer_1_8_">
		
			<linearGradient id="SVGID_9_" gradientUnits="userSpaceOnUse" x1="16858.5684" y1="-810.8643" x2="16882.6094" y2="-810.8643" gradientTransform="matrix(-0.0873 0.9962 -0.9962 -0.0873 668.5391 -16876.4844)">
			<stop  offset="0" style="stop-color:#A85756"/>
			<stop  offset="0.702" style="stop-color:#321F26"/>
			<stop  offset="1" style="stop-color:#2E1312"/>
		</linearGradient>
		<path style="fill-rule:evenodd;clip-rule:evenodd;fill:url(#SVGID_9_);" d="M6.35-0.95c0.267-1.966-0.684-4.433-2.85-7.4
			c-2.1-2.867-3.25-3.283-3.45-1.25c-0.233,2.033,0.6,4.367,2.5,7C4.783,0.467,6.05,1.017,6.35-0.95z"/>
	</g>
</symbol>
<symbol  id="flash0.ai_x2F_Layer_3_x2F__x3C_Path_x3E__x5F_7" viewBox="-0.173 -3.002 12.28 3.003">
	<g id="Layer_1_7_">
		
			<linearGradient id="SVGID_10_" gradientUnits="userSpaceOnUse" x1="15876.0029" y1="235.8848" x2="15879.2305" y2="235.8848" gradientTransform="matrix(0.0387 0.9992 -0.9992 0.0387 -373.2607 -15875.9912)">
			<stop  offset="0" style="stop-color:#553735"/>
			<stop  offset="0.702" style="stop-color:#321F26"/>
			<stop  offset="1" style="stop-color:#2E1312"/>
		</linearGradient>
		<path style="fill-rule:evenodd;clip-rule:evenodd;fill:url(#SVGID_10_);" d="M11.4-1.45C9.8-2.45,7.15-2.967,3.45-3
			c-3.567-0.033-4.5,0.45-2.8,1.45C2.35-0.583,4.817-0.067,8.05,0C11.883,0.033,13-0.45,11.4-1.45z"/>
	</g>
</symbol>
<symbol  id="flash0.ai_x2F_Layer_3_x2F__x3C_Path_x3E__x5F_8" viewBox="-0.003 -39.1 21.703 39.05">
	<g id="Layer_1_5_">
		
			<linearGradient id="SVGID_11_" gradientUnits="userSpaceOnUse" x1="15646.8848" y1="410.3828" x2="15766.4902" y2="410.3828" gradientTransform="matrix(0.0621 0.9981 -0.9981 0.0621 -551.9814 -15676.6182)">
			<stop  offset="0" style="stop-color:#7573A8"/>
			<stop  offset="1" style="stop-color:#A6DFC9"/>
		</linearGradient>
		<path style="fill-rule:evenodd;clip-rule:evenodd;fill:url(#SVGID_11_);" d="M21.7-23.9c-0.165,0.165-0.557,0.423-1.175,0.775
			c0.746-0.452,0.887-2.443,0.425-5.975c-0.067-0.533-0.233-1.3-0.5-2.3c-0.166-0.743-0.182-1.393-0.05-1.95
			c-0.388,1.289-0.705,2.256-0.95,2.9v-4.95c-0.267,1.033-0.483,1.816-0.65,2.35c-0.267,0.966-0.6,1.716-1,2.25
			c-0.1-0.833,0.133-2.15,0.7-3.95c0.6-1.833,0.85-3.283,0.75-4.35c-0.367,1.4-1.333,3.067-2.9,5
			c-1.777,2.139-2.885,3.689-3.325,4.65c0.222-0.527,0.447-1.36,0.675-2.5c0.132-0.752,0.283-1.377,0.45-1.875
			c-0.594,1.457-1.411,3.064-2.45,4.825c-0.633,0.933-1.1,1.633-1.4,2.1c-0.533,0.767-0.85,1.517-0.95,2.25
			c-0.033-0.767-0.133-1.95-0.3-3.55c-0.133-1.433-0.1-2.633,0.1-3.6C8.117-28.067,7.4-25.233,7-23.3
			c0.033-0.633,0.05-1.534,0.05-2.7c0.029-0.893,0.121-1.676,0.275-2.35C6.635-25.592,6.193-23.875,6-23.2
			c-0.133,0.467-0.533,1.383-1.2,2.75c-0.566,1.167-0.883,2.1-0.95,2.8c-0.133-0.434-0.167-1.05-0.1-1.85
			c-0.7,0.9-1.133,2.017-1.3,3.35c-0.1-0.5-0.083-1.15,0.05-1.95c-0.7,1.133-1.283,2.383-1.75,3.75
			c-0.533,1.567-0.783,2.934-0.75,4.1c1.4-1.2,2.2-2.167,2.4-2.9C2.033-11.617,1.767-10.4,1.6-9.5c0.2-0.167,0.6-0.683,1.2-1.55
			c-0.066,0.933-0.367,2.1-0.9,3.5c-0.667,1.733-1.066,2.867-1.2,3.4c0.533-0.367,1.316-0.967,2.35-1.8
			C2.983-5.617,2.833-5.217,2.6-4.75L2.075-3.675C2.662-4.35,3.237-4.875,3.8-5.25c-0.066,0.933-0.583,2.667-1.55,5.2
			c0.4-0.434,1.183-1.333,2.35-2.7c1.133-1.2,2.066-1.833,2.8-1.9c-0.1,0.533-0.283,1.133-0.55,1.8c0.267-0.133,0.867-0.467,1.8-1
			C9.617-4.417,11.067-5.533,13-7.2c-0.233,0.934-0.4,1.633-0.5,2.1c0.333-0.367,0.767-1.033,1.3-2c0.534-1.033,0.967-1.75,1.3-2.15
			c0,0.033,0.05,0.5,0.15,1.4c-0.033-0.7,0.267-1.6,0.9-2.7c0.333-0.567,0.833-1.4,1.5-2.5c0.033,0.2,0.217,0.667,0.55,1.4
			c-0.133-0.533-0.167-1.367-0.1-2.5l0.7,0.7c-0.167-0.4-0.216-0.9-0.15-1.5l0.5,0.2c-0.367-0.167-0.15-1.2,0.65-3.1
			c0.434-0.967,0.917-2.017,1.45-3.15c-0.5,0.267-0.85,0.483-1.05,0.65C20.5-21.117,21-22.3,21.7-23.9z"/>
	</g>
</symbol>
<symbol  id="flash0.ai_x2F_Layer_3_x2F__x3C_Path_x3E__x5F_8_x5F_0" viewBox="-0.016 -80.35 77.532 80.449">
	<g id="Layer_1_6_">
		
			<linearGradient id="SVGID_12_" gradientUnits="userSpaceOnUse" x1="15777.5381" y1="229.5889" x2="15860.3125" y2="229.5889" gradientTransform="matrix(0.0423 0.9991 -0.9991 0.0423 -400.7461 -15845.9355)">
			<stop  offset="0" style="stop-color:#A85756"/>
			<stop  offset="0.702" style="stop-color:#321F26"/>
			<stop  offset="1" style="stop-color:#2E1312"/>
		</linearGradient>
		<path style="fill-rule:evenodd;clip-rule:evenodd;fill:url(#SVGID_12_);" d="M77.3-1.35c-0.566-0.433-2.133-0.767-4.7-1
			c-3.467-0.333-6.517-0.983-9.15-1.95c-1.133-0.4-4.733-1.967-10.8-4.7c-4.367-1.967-8.667-4.767-12.9-8.4
			c-1.533-1.333-2.55-2.35-3.05-3.05c-0.467-0.667-0.15-0.683,0.95-0.05c3.233,1.9,6.667,3.667,10.3,5.3
			c5.033,2.267,8.9,3.517,11.6,3.75c2.8,0.267,3.833,0,3.1-0.8c-0.667-0.733-2.1-1.383-4.3-1.95c-2.167-0.566-4.983-1.733-8.45-3.5
			c-4.167-2.1-8.533-4.716-13.1-7.85c-4.3-2.9-8.733-7.65-13.3-14.25c-3.133-4.5-5.567-8.567-7.3-12.2
			c-2.2-4.667-4.7-11.233-7.5-19.7c-1.9-5.8-3.284-8.683-4.15-8.65c-1.167,0-1.45,1.167-0.85,3.5
			c0.367,1.567,1.683,5.383,3.95,11.45c1.934,5.233,4.167,10.566,6.7,16c2.467,5.3,4.683,9.533,6.65,12.7
			c1.9,3.067,2.017,4.284,0.35,3.65c-1.7-0.633-3.95-2.633-6.75-6c-4.2-5.067-7.367-10.333-9.5-15.8
			c-1.867-4.667-3.25-7.367-4.15-8.1c-0.867-0.7-1.15,0-0.85,2.1c0.333,2.267,1.267,5.184,2.8,8.75c4.3,10.067,11,19.9,20.1,29.5
			c5.6,5.934,12.717,11,21.35,15.2c6.633,3.2,12.883,5.383,18.75,6.55c5.433,1.067,9.8,1.233,13.1,0.5
			C77.433-0.65,77.8-0.983,77.3-1.35z"/>
	</g>
</symbol>
<symbol  id="flash0.ai_x2F_Layer_3_x2F__x3C_Path_x3E__x5F_9" viewBox="-0.025 -31.652 11.975 31.69">
	<g id="Layer_1_3_">
		
			<linearGradient id="SVGID_13_" gradientUnits="userSpaceOnUse" x1="13818.0781" y1="1747.2695" x2="13845.7129" y2="1747.2695" gradientTransform="matrix(0.2578 0.9662 -0.9662 0.2578 -1871.4668 -13827.6367)">
			<stop  offset="0" style="stop-color:#A88F56"/>
			<stop  offset="0.702" style="stop-color:#321F26"/>
			<stop  offset="1" style="stop-color:#2E1312"/>
		</linearGradient>
		<path style="fill-rule:evenodd;clip-rule:evenodd;fill:url(#SVGID_13_);" d="M1.05-0.05c1.333-0.567,3-3.15,5-7.75
			c1.967-4.467,3.583-9.333,4.85-14.6c1.133-4.733,1.35-7.667,0.65-8.8c-0.7-1.133-1.417-0.133-2.15,3
			c-1.2,5-3.183,10.167-5.95,15.5C2.083-10.033,1.067-7.2,0.4-4.2C-0.333-0.967-0.117,0.417,1.05-0.05z"/>
	</g>
</symbol>
<g>
	<g>
		<g>
			
				<linearGradient id="SVGID_14_" gradientUnits="userSpaceOnUse" x1="-133.9585" y1="125.8555" x2="-114.3725" y2="125.8555" gradientTransform="matrix(-0.4059 -0.9139 0.9079 -0.4196 -2.533793e-004 -6.693602e-004)">
				<stop  offset="0" style="stop-color:#553735"/>
				<stop  offset="0.702" style="stop-color:#321F26"/>
				<stop  offset="1" style="stop-color:#2E1312"/>
			</linearGradient>
			<path style="fill-rule:evenodd;clip-rule:evenodd;fill:url(#SVGID_14_);" d="M165.45,54.95c0.8,1.233,1.866,2.883,3.2,4.95
				c1.033,1.734,1.767,3.534,2.199,5.4c0.434,1.934,0.434,4.483,0,7.65c-0.399,3.066-0.966,5.217-1.699,6.45
				c-0.334-4.134-0.717-7.4-1.15-9.801c-0.767-4.366-2.017-7.633-3.75-9.8c-1.066-1.367-2.833-3.333-5.3-5.9l-3.351-3.5
				c-0.666-3.133-0.883-4.983-0.649-5.55c0.366-0.934,0.55-1.417,0.55-1.45c2.366,2.233,3.9,3.767,4.6,4.6
				C163,51.567,164.783,53.883,165.45,54.95z"/>
			
				<linearGradient id="SVGID_15_" gradientUnits="userSpaceOnUse" x1="182.9258" y1="113.9971" x2="202.9359" y2="113.9971" gradientTransform="matrix(0.9458 -0.3248 0.2865 0.9589 4.695058e-004 -1.254678e-004)">
				<stop  offset="0" style="stop-color:#553735"/>
				<stop  offset="0.702" style="stop-color:#321F26"/>
				<stop  offset="1" style="stop-color:#2E1312"/>
			</linearGradient>
			<path style="fill-rule:evenodd;clip-rule:evenodd;fill:url(#SVGID_15_);" d="M203.25,42.45c-1.3-1.267-2.283-2.167-2.95-2.7
				c-0.8-0.633-2.316-2.067-4.55-4.3c0.066,0,0.55-0.133,1.45-0.4c0.6-0.167,2.45,0.133,5.55,0.9l3.4,3.15
				c2.533,2.267,4.466,3.917,5.8,4.95c2.133,1.667,5.366,2.95,9.7,3.85c2.399,0.5,5.633,1.017,9.699,1.55
				c-1.3,0.633-3.55,1.017-6.75,1.15c-1.699,0.066-2.8,0.1-3.3,0.1c-1.607-0.066-2.633-0.291-3.075-0.675
				c0.535,0.496,1.526,1.254,2.976,2.275c1.666,1.2,3.967,2.517,6.899,3.95c0.867,0.4,1.884,0.75,3.051,1.05
				c1.199,0.267,2.066,0.534,2.6,0.8c-1.333,0.133-3.167-0.083-5.5-0.65c-5.5-1.367-10.7-3.75-15.6-7.15
				c-0.834-0.566-1.917-1.433-3.25-2.6c-1.5-1.233-2.584-2.1-3.25-2.6C205.417,44.567,204.45,43.683,203.25,42.45z"/>
			
				<linearGradient id="SVGID_16_" gradientUnits="userSpaceOnUse" x1="-104.0366" y1="121.793" x2="12.5935" y2="121.793" gradientTransform="matrix(0.0424 -0.9991 0.9991 0.0424 1.597740e-004 4.092306e-004)">
				<stop  offset="0" style="stop-color:#553735"/>
				<stop  offset="0.702" style="stop-color:#321F26"/>
				<stop  offset="1" style="stop-color:#2E1312"/>
			</linearGradient>
			<path style="fill-rule:evenodd;clip-rule:evenodd;fill:url(#SVGID_16_);" d="M183.05,81.35
				c-3.934-6.966-8.733-13.066-14.399-18.3c-5.867-5.4-12.367-9.617-19.5-12.65c-11.467-4.833-24.15-5.316-38.05-1.45
				c-13.667,3.8-25.15,10.8-34.45,21c-5.6,6.2-10.967,14.833-16.1,25.899C57.717,102.083,56,106,55.4,107.6
				c-0.867,2.4-1.417,5.017-1.65,7.851c-0.133,1.767-0.517,2.684-1.15,2.75c-0.467,0.033-3.333-0.45-8.6-1.45
				c-5.267-1.033-9.15-1.4-11.65-1.1c0.233,0.267,0.533,0.767,0.9,1.5c-1.667,0.033-3.917-0.034-6.75-0.2
				c-3.4-0.167-5.65-0.267-6.75-0.3c-1.5-0.034-3.217,0-5.15,0.1c-2.233,0.2-3.934,0.333-5.1,0.4c0.167-0.667,0.667-1.233,1.5-1.7
				c1.033-0.434,1.767-0.816,2.2-1.15c-1.333-0.399-3.267-0.45-5.8-0.149c-2.6,0.267-4.45,0.283-5.55,0.05
				c-1.067-0.233-1.667-0.517-1.8-0.851c-0.133-0.333,0.267-1.25,1.2-2.75c1.667-2.733,3.4-6.55,5.2-11.449
				c2.5-6.934,3.966-10.9,4.4-11.9c2.867-6.767,4.933-11.384,6.2-13.85c3.367-6.534,8.6-14.417,15.7-23.65
				c9.8-12.667,21.367-22.667,34.7-30C80.683,12.483,95.467,7.933,111.8,6.1c20.033-2.233,37.2-0.75,51.5,4.45
				c17.667,6.4,33.384,19.05,47.15,37.95c7.866,10.733,14.066,23.533,18.6,38.4c1.434,4.8,2.566,9.283,3.4,13.449
				c0.333,1.601,0.767,3.667,1.3,6.2c0.4,1.967,0.566,3.5,0.5,4.601c-0.033,1.166-0.316,1.916-0.85,2.25
				c-0.467,0.267-1.317,0.35-2.551,0.25c-1.533-0.134-2.35,0.033-2.449,0.5c0.133,0.666,0.066,1.133-0.2,1.399
				c-0.767,0.2-1.9,0.184-3.4-0.05c-2-0.333-3.149-0.5-3.45-0.5c-4.366-0.1-8,0.167-10.899,0.8c-1.033,0.367-1.95,0.667-2.75,0.9
				c-1.5,0.434-2.351,0.5-2.55,0.2c-0.301-0.467,0.166-1.134,1.399-2c0.634-0.434,1.434-0.934,2.4-1.5
				c-1.066-0.101-2.367,0.166-3.9,0.8c-2.233,0.967-3.483,1.483-3.75,1.55c-2.366,0.667-3.967,1.083-4.8,1.25
				c-2.134,0.4-3.767,0.45-4.9,0.15c-0.633-0.167-0.633-0.7,0-1.601c0.934-1.366,1.434-2.149,1.5-2.35
				c0.167-0.767,0.184-2.101,0.051-4c-0.267-3.033-0.95-6.267-2.051-9.7C189.366,93.866,186.684,87.816,183.05,81.35z"/>
			
				<use xlink:href="#flash0.ai_x2F_Layer_3_x2F__x3C_Path_x3E__x5F_10"  width="94.387" height="91.104" x="-0.005" y="-91.05" transform="matrix(1 0 0 -1 28.8501 15.1001)" style="overflow:visible;opacity:0.1484;enable-background:new    ;"/>
			
				<use xlink:href="#flash0.ai_x2F_Layer_3_x2F__x3C_Path_x3E__x5F_9"  width="11.975" height="31.69" x="-0.025" y="-31.652" transform="matrix(1 0 0 -1 216.9502 64.9004)" style="overflow:visible;opacity:0.1484;enable-background:new    ;"/>
			<g>
				
					<use xlink:href="#flash0.ai_x2F_Layer_3_x2F__x3C_Path_x3E__x5F_10_x5F_0"  width="192.15" height="77.55" y="-77.55" transform="matrix(1 0 0 -1 17.1001 1.7998)" style="overflow:visible;opacity:0.3281;enable-background:new    ;"/>
				
					<linearGradient id="SVGID_17_" gradientUnits="userSpaceOnUse" x1="-49.5259" y1="109.5664" x2="-6.3382" y2="109.5664" gradientTransform="matrix(-0.0637 -0.998 0.998 -0.0637 -2.324358e-004 -4.167557e-004)">
					<stop  offset="0" style="stop-color:#7573A8"/>
					<stop  offset="1" style="stop-color:#A6DFC9"/>
				</linearGradient>
				<path style="fill-rule:evenodd;clip-rule:evenodd;fill:url(#SVGID_17_);" d="M202.825,32.95c0.399-0.1,1.966,1.467,4.7,4.7
					c-0.453-0.489-1.229-0.856-2.325-1.1c1.566,1.567,2.783,3,3.649,4.3c-0.267-0.233-0.683-0.483-1.25-0.75
					c-0.603-0.254-1.028-0.462-1.274-0.625c0.623,0.435,1.115,1.143,1.475,2.125c0.533,1.433,0.867,2.267,1,2.5
					c-0.133-0.067-0.649-0.417-1.55-1.05c1.167,1.967,2.017,3.317,2.55,4.05c-0.767-0.8-1.399-1.4-1.899-1.8
					c-0.834-0.733-1.567-1.167-2.2-1.3c0.533,0.967,1,1.717,1.399,2.25c-0.767-0.833-1.933-1.75-3.5-2.75
					c-1.733-1.133-2.933-2-3.6-2.6c0.033,0.067,0.35,0.684,0.95,1.85c0.399,0.8,0.633,1.45,0.7,1.95
					c-0.5-0.4-1.684-1.583-3.551-3.55c-1.5-1.566-2.8-2.617-3.899-3.15c0.066,0.2,0.45,0.967,1.149,2.3
					c-0.199-0.1-0.816-0.55-1.85-1.35c-0.767-0.567-1.4-0.917-1.9-1.05c1.601,2.3,3.917,5.783,6.95,10.45
					c-0.066-0.033-1.233-1.05-3.5-3.05c-1.366-1.2-2.733-1.95-4.1-2.25c0.233,0.434,0.833,1.167,1.8,2.2
					c0.833,0.867,1.35,1.633,1.55,2.3c-0.5-0.7-1.399-1.433-2.7-2.2c-1.466-0.867-2.416-1.517-2.85-1.95
					c0,0.233,0.134,1.067,0.4,2.5c-0.301-0.566-0.534-1-0.7-1.3c-0.3-0.533-0.617-0.9-0.95-1.1c0.033,1.867,0.25,3.883,0.65,6.05
					c-0.801-2.1-1.301-3.333-1.5-3.7c-0.667-1.333-1.551-2.267-2.65-2.8c0.066,0.467,0.2,1.117,0.4,1.95
					c-0.167-0.167-0.45-0.533-0.851-1.1c-0.333-0.467-0.684-0.8-1.05-1c-0.134-0.066-1.316-0.483-3.55-1.25
					c-1.951-0.628-3.035-1.178-3.25-1.65c0.367,0.876,0.583,2.459,0.649,4.75c-0.233-0.333-0.433-0.867-0.6-1.6
					c-0.2-0.767-0.384-1.3-0.55-1.6c-0.767-1.333-1.816-2.35-3.15-3.05c0.5,1.467,0.934,3.283,1.3,5.45c0.2,1.2,0.5,3.05,0.9,5.55
					c-0.366-1.9-1.1-4.3-2.2-7.2c-0.333-0.867-0.899-1.95-1.7-3.25c-0.966-1.533-1.583-2.566-1.85-3.1
					c0.1,0.833,0.35,1.783,0.75,2.85c0.2,0.633,0.55,1.567,1.05,2.8c-0.434-0.567-1.05-1.833-1.85-3.8
					c-0.667-1.667-1.384-2.85-2.15-3.55c-0.5-0.5-1.217-0.933-2.149-1.3c-0.2-0.067-1.017-0.333-2.45-0.8
					c-1.033-0.3-1.617-0.367-1.75-0.2c-0.101,0.133,0,0.7,0.3,1.7c-0.833-0.6-1.467-1.05-1.9-1.35c-0.8-0.533-1.5-0.85-2.1-0.95
					c-0.1,0.233-0.283,0.533-0.55,0.9c-0.066-0.433-0.101-0.75-0.101-0.95c-0.466,0.3-0.933,0.7-1.399,1.2
					c0-0.533,0.149-0.967,0.45-1.3c-1.4,0.233-2.483,0.45-3.25,0.65c-1.4,0.367-2.284,0.95-2.65,1.75
					c-0.167-0.767-0.184-1.45-0.05-2.05c-0.2,0.133-0.816,0.8-1.851,2c0.134-0.9,0.184-1.566,0.15-2c-0.5,0.333-1.316,0.5-2.45,0.5
					c-1.366,0.034-2.233,0.1-2.6,0.2c-0.8,0.167-1.601,0.433-2.4,0.8c-1.085,0.526-1.669,1.068-1.75,1.625
					c0.105-0.954,0.488-1.662,1.15-2.125c-1.134,0.167-2.117,0.45-2.95,0.85c-1.134,0.567-1.783,1.267-1.95,2.1
					c-0.333-0.833-0.416-1.55-0.25-2.15c-0.399,0.6-0.633,1.3-0.7,2.1c-0.066,0.466-0.066,1.2,0,2.2
					c-0.233-0.4-0.517-1.316-0.85-2.75c-0.267-1.167-0.65-1.983-1.15-2.45c0,0.133-0.033,0.55-0.1,1.25
					c-0.033-0.034-0.167-0.4-0.4-1.1c-0.199-0.5-0.433-0.767-0.699-0.8c-0.434-0.033-0.684,0.167-0.75,0.6
					c-0.031,0.436,0.135,0.711,0.5,0.825c-0.509-0.144-1.159-0.469-1.95-0.975c-0.9-0.567-1.567-0.933-2-1.1
					c0.1,0.167,0.2,0.333,0.3,0.5c0.067,0.133,0.217,0.25,0.45,0.35c-0.8-0.267-1.4-0.467-1.8-0.6c-0.733-0.267-1.267-0.6-1.6-1
					c0.034,0.233,0.017,0.533-0.05,0.9c-0.567,0.067-1.117-0.2-1.65-0.8c0.333,0.9,0.483,1.55,0.45,1.95
					c-0.333-0.467-0.933-0.917-1.8-1.35c-1-0.467-1.65-0.833-1.95-1.1c-0.433,0.8-0.466,1.467-0.1,2l-2.25-0.95
					c0.1,0.233,0.433,0.8,1,1.7c-0.3-0.1-0.867-0.367-1.7-0.8c-0.7-0.367-1.283-0.6-1.75-0.7c-0.433-0.133-1.033-0.217-1.8-0.25
					c-0.833-0.033-1.434-0.083-1.8-0.15c0.133,0.233,0.4,0.517,0.8,0.85c0.433,0.367,0.716,0.65,0.85,0.85
					c-0.767-0.033-1.7-0.233-2.8-0.6c-1.233-0.434-2.133-0.75-2.7-0.95c0.167,0.2,0.633,0.6,1.4,1.2
					c-1.867-0.833-3.85-0.733-5.95,0.3c-2.233,1.067-3.3,2.667-3.2,4.8c-0.133-1.667-0.183-2.933-0.15-3.8
					c-0.633,0.7-1.217,1.717-1.75,3.05c0.3-2.267,0.883-3.75,1.75-4.45c-2.2,0.967-3.8,1.717-4.8,2.25
					c-1.7,0.967-2.983,2.167-3.85,3.6c0.233-0.767,0.433-1.35,0.6-1.75c0.267-0.667,0.6-1.167,1-1.5
					c-2.267,1.6-3.817,3.35-4.65,5.25l0.4-2.85c-0.9,1.867-1.934,3.7-3.1,5.5c0.6-1.367,0.983-2.467,1.15-3.3
					c-0.633,0.934-1.433,1.784-2.4,2.55c-0.567,0.433-1.55,1.083-2.95,1.95c-2,1.167-3.017,1.767-3.05,1.8
					c-1.313,0.886-2.08,1.711-2.3,2.475c0.4-1.518,0.784-2.592,1.15-3.225c-1.216,1.352-2.116,2.368-2.7,3.05
					c-1.066,1.2-1.9,2.35-2.5,3.45c0.167-0.8,0.533-1.783,1.1-2.95c0.833-1.8,1.267-2.75,1.3-2.85c-0.667,0.867-2.383,2.3-5.15,4.3
					c-2.267,1.667-3.767,3.333-4.5,5C62.617,53.983,62.8,53,63.2,51.9c0.1-0.367,0.5-1.316,1.2-2.85c-1.1,0.967-1.7,1.5-1.8,1.6
					c-0.667,0.667-1.117,1.35-1.35,2.05c0.133-1.233,0.533-2.284,1.2-3.15c-2.414,2.083-3.497,3.674-3.25,4.775
					c-0.299-1.162-0.399-2.504-0.3-4.025c0.1-1.7,0.434-3,1-3.9c-0.8,0.934-1.417,2.133-1.85,3.6c-0.167-1.2,0.25-2.767,1.25-4.7
					c0.534-0.966,1.167-2.417,1.9-4.35c-0.567,0.966-1.8,2.167-3.7,3.6c-1.8,1.4-2.967,2.633-3.5,3.7
					c0.667-1.767,1.383-2.95,2.15-3.55c-3.167,2.133-5.367,4.75-6.6,7.85c0.267-1.966,0.633-3.35,1.1-4.15
					c-1.733,2.3-2.933,4.583-3.6,6.85l-0.2-2.7c-0.3,1.233-0.65,2.2-1.05,2.9c0.233-0.767,0.267-1.517,0.1-2.25
					c-1,2.033-2.017,3.617-3.05,4.75c-0.333,0.367-0.934,0.95-1.8,1.75c-0.678,0.71-1.011,1.402-1,2.075
					c-0.055-1.421,0.128-2.554,0.55-3.4c-0.536,0.731-1.335,1.723-2.4,2.975c-0.934,1.233-1.55,2.417-1.85,3.551
					c-0.167-1.434-0.117-2.601,0.15-3.5c-0.733,1.267-1.35,3.116-1.85,5.55c-0.066-1.2-0.1-2.117-0.1-2.75
					c0-1.101,0.133-2.017,0.4-2.75c-0.3,0.666-0.967,1.467-2,2.399c-1.088,0.995-1.813,1.745-2.175,2.25
					c0.693-1.026,1.185-1.927,1.475-2.699c-1.133,1.566-3.083,3.017-5.85,4.35c1.367-1.033,2.167-2.3,2.4-3.8
					c-0.533,0.666-2.1,1.684-4.7,3.05c-1.904,1.013-3.07,2.205-3.5,3.575c0.274-0.967,0.924-2.726,1.95-5.275
					c-2.4,3.033-4.066,6.167-5,9.4c0.733-4.8,2.417-9.3,5.05-13.5c-1.1,1.3-1.75,2.083-1.95,2.35c-0.667,0.9-1.167,1.767-1.5,2.601
					c0.6-1.601,1.517-3.351,2.75-5.25c1.5-2.2,2.617-3.851,3.35-4.95c0.6-0.8,1.1-1.567,1.5-2.3c-1.133,1.067-1.95,1.9-2.45,2.5
					c0.567-1.167,1.617-2.467,3.15-3.9c2.233-2.033,3.466-3.2,3.7-3.5c-0.813,0.25-1.479,0.5-2,0.75
					c1.742-0.901,3.692-3.084,5.85-6.55c-0.167,0.033-0.633,0.316-1.4,0.85c0.3-0.3,0.917-0.883,1.85-1.75
					c0.767-0.7,1.333-1.283,1.7-1.75l-1,0.25c0.233-0.167,0.7-0.417,1.4-0.75c0.6-0.267,1.05-0.517,1.35-0.75l-1.6,0.05
					c0.4-0.267,1.034-0.583,1.9-0.95h-0.65c1.133-1.3,2.967-3.217,5.5-5.75c1.567-1.633,2.684-2.767,3.35-3.4
					c1.333-1.2,2.6-2.133,3.8-2.8l-1.3-0.25c1.3-0.267,1.983-0.417,2.05-0.45c-0.333-0.167-0.583-0.267-0.75-0.3
					c0.1-0.034,0.4-0.083,0.9-0.15c0.4-0.066,0.7-0.15,0.9-0.25l-0.6-0.4c1.1-0.467,2.4-1.233,3.9-2.3
					c2.4-1.733,3.65-2.633,3.75-2.7c2.133-1.333,4.15-2.533,6.05-3.6c0.6-0.333,1.517-0.867,2.75-1.6
					c0.133-0.067,0.533-0.184,1.2-0.35c0.5-0.167,0.867-0.35,1.1-0.55l-0.95-0.5c0.933,0.167,1.533,0.233,1.8,0.2
					c-0.5-0.367-0.883-0.733-1.15-1.1c1.467,0.367,2.35,0.55,2.65,0.55c-0.197-0.361-0.397-0.628-0.6-0.8
					c0.577,0.462,1.743,0.296,3.5-0.5c1.767-0.8,2.617-1.55,2.55-2.25c0.2,0.1,0.517,0.184,0.95,0.25c0-0.333-0.033-0.566-0.1-0.7
					c0.733,0.133,1.3,0.183,1.7,0.15c-0.254-0.603-0.446-0.978-0.575-1.125c0.867,0.91,2.392,0.935,4.575,0.075
					c1.833-0.7,3.233-1.566,4.2-2.6c-0.233,0.5-0.333,0.966-0.3,1.4c0.233-0.434,0.65-0.9,1.25-1.4L90.3,5.9
					c1.267-1.066,3.034-1.833,5.3-2.3c-0.4,0.367-0.75,0.767-1.05,1.2c0.367-0.367,0.983-0.716,1.85-1.05
					c1-0.433,1.65-0.75,1.95-0.95c-0.033,0.2-0.033,0.567,0,1.1l0.325-0.475C98.59,3.573,98.849,3.632,99.45,3.6
					c0.3-0.033,0.633-0.083,1-0.15l3.05-0.55c0.6-0.1,1.933-0.2,4-0.3c1.933-0.2,3.117-0.6,3.55-1.2
					c0.233,0.167,0.583,0.317,1.05,0.45c-0.1-0.333-0.2-0.567-0.3-0.7c0.934,0.5,1.633,0.733,2.1,0.7
					c-0.066-0.2-0.117-0.35-0.15-0.45c-0.067-0.2-0.167-0.367-0.3-0.5c0.767,0.267,1.5,0.434,2.2,0.5
					c1.033,0.067,1.533-0.217,1.5-0.85c0.6,0.333,1.383,0.5,2.35,0.5c0.567,0,1.4-0.05,2.5-0.15c0.667-0.033,1.933-0.017,3.8,0.05
					c1.7-0.034,2.867-0.333,3.5-0.9c-0.2,0.434-0.35,0.75-0.45,0.95c0.7-0.233,1.351-0.533,1.95-0.9l-0.5,0.7
					c0.267-0.033,0.7-0.15,1.3-0.35c0.534-0.167,0.967-0.25,1.301-0.25l-0.5,0.55c0.733-0.7,1.949-0.717,3.649-0.05
					c1.767,0.667,2.95,0.767,3.55,0.3l-0.5-0.3c1.167,0.667,2.017,0.983,2.551,0.95c-0.173-0.432-0.356-0.741-0.551-0.925
					c0.858,0.688,2.075,1.096,3.65,1.225c0.9,0.066,2.233,0.1,4,0.1l-1,0.45c0.3,0,0.75-0.017,1.35-0.05
					c0.567,0,1.017,0.066,1.351,0.2c-0.5,0.167-0.834,0.267-1,0.3c0.166,0.033,0.783,0.15,1.85,0.35
					c0.733,0.167,1.334,0.233,1.8,0.2l-0.5,0.05c0.101,0.034,1.15,0.25,3.15,0.65l-0.35,0.3c0.366-0.233,2.083,0.217,5.149,1.35
					C161.15,6.083,162.6,6.467,164.9,7l-0.95,0.55c0.666-0.133,1.149-0.267,1.45-0.4l-0.301,0.7c0.334,0.066,0.867-0.05,1.601-0.35
					c-0.066,0.2-0.101,0.567-0.101,1.1c0.067-0.233,0.817-0.05,2.25,0.55c0.733,0.333,1.551,0.7,2.45,1.1
					c-0.033-0.4-0.083-0.683-0.149-0.85l2.85,2.35c-0.134-0.433-0.366-0.867-0.7-1.3c0.667,0.733,1.184,1.2,1.55,1.4l-0.25-1
					c1.101,1.333,1.784,2.133,2.051,2.4L176.6,11.7c0.038,0.62,0.988,1.42,2.851,2.4c0.924,0.493,2.074,1.06,3.45,1.7
					c0.133-0.133,0.333-0.316,0.6-0.55l0.4,1.2l0.25-0.55c0.033,0.434,0.366,0.684,1,0.75c0.899,0.1,1.416,0.2,1.55,0.3
					c-0.3,0.333-0.517,0.533-0.65,0.6c0.331,0.09,0.848,0.207,1.55,0.35c-0.038,0.005-0.071,0.022-0.1,0.05
					c0.233,0.5,0.767,0.917,1.6,1.25c0.934,0.367,1.534,0.7,1.801,1c-0.534,0.066-1,0.05-1.4-0.05c0.233,0.167,0.6,0.333,1.1,0.5
					c0.5,0.2,0.867,0.367,1.101,0.5l-1.351,0.3c1.421,0.264,2.479,0.631,3.176,1.1c-0.101-0.063-0.275-0.063-0.525,0
					c-0.233,0.034-0.417,0.083-0.55,0.15c0.5,0.633,1.217,1.283,2.149,1.95c0.534,0.4,1.351,0.983,2.45,1.75
					c-0.7-0.133-1.233-0.233-1.6-0.3c0.333,0.233,1.116,0.75,2.35,1.55c1,0.633,1.75,1.2,2.25,1.7c-0.54-0.127-0.939-0.227-1.2-0.3
					c0.381,0.115,0.781,0.398,1.2,0.85c0.233,0.267,0.55,0.633,0.95,1.1c0.233,0.233,0.983,0.833,2.25,1.8L202.825,32.95z"/>
				
					<use xlink:href="#flash0.ai_x2F_Layer_3_x2F__x3C_Path_x3E__x5F_8"  width="21.703" height="39.05" x="-0.003" y="-39.1" transform="matrix(1 0 0 -1 202 48.3501)" style="overflow:visible;opacity:0.3281;enable-background:new    ;"/>
				
					<linearGradient id="SVGID_18_" gradientUnits="userSpaceOnUse" x1="-70.0933" y1="215.2266" x2="41.4069" y2="215.2266" gradientTransform="matrix(0.0424 -0.9991 0.9991 0.0424 -3.882758e-004 4.304051e-004)">
					<stop  offset="0" style="stop-color:#7573A8"/>
					<stop  offset="1" style="stop-color:#A6DFC9"/>
				</linearGradient>
				<path style="fill-rule:evenodd;clip-rule:evenodd;fill:url(#SVGID_18_);" d="M222.95,67.45c0.333,0.666,0.583,1.217,0.75,1.649
					c-0.132-0.131-0.523-0.372-1.175-0.725c0.483,0.281,0.725,1.156,0.725,2.625c0,0.4-0.066,1.384-0.2,2.95
					c-0.066,0.5-0.233,1.233-0.5,2.2c-0.147,0.737-0.139,1.388,0.025,1.949c-0.431-1.268-0.772-2.218-1.025-2.85l0.101,4.65
					c-0.301-0.967-0.534-1.7-0.7-2.2c-0.3-0.867-0.65-1.55-1.05-2.05c-0.067,0.767,0.199,1.983,0.8,3.649
					c0.6,1.7,0.866,3.05,0.8,4.05c-0.4-1.267-1.4-2.783-3-4.55c-1.8-2-2.934-3.467-3.4-4.399c0.233,0.5,0.467,1.3,0.7,2.399
					c0.153,0.7,0.312,1.275,0.476,1.726c-0.661-1.46-1.502-2.935-2.525-4.426c-0.667-0.866-1.15-1.517-1.45-1.949
					c-0.533-0.733-0.85-1.434-0.95-2.101c0,0.733-0.083,1.851-0.25,3.351c-0.1,1.333-0.033,2.449,0.2,3.35
					c-1.033-3-1.816-5.634-2.35-7.9c0.066,0.567,0.116,1.4,0.149,2.5c0.06,0.884,0.168,1.634,0.325,2.25
					c-0.596-2.139-1.071-3.739-1.425-4.8c-0.134-0.434-0.55-1.283-1.25-2.55c-0.6-1.066-0.934-1.934-1-2.6
					c-0.134,0.433-0.167,1.017-0.1,1.75c-0.7-0.867-1.134-1.9-1.301-3.101c-0.133,0.5-0.1,1.101,0.101,1.8
					c-0.7-1.033-1.3-2.199-1.8-3.5c-0.567-1.466-0.851-2.733-0.851-3.8c1.396,1.079,2.205,1.946,2.425,2.6
					c-0.324-1.1-0.615-2.217-0.875-3.35c0.4,0.367,0.817,0.85,1.25,1.45c-0.066-0.867-0.383-1.95-0.949-3.25
					c-0.7-1.6-1.117-2.65-1.25-3.15l2.399,1.65c-0.066-0.3-0.233-0.683-0.5-1.15c-0.293-0.48-0.493-0.814-0.6-1
					c0.682,0.675,1.281,1.158,1.8,1.45c-0.066-0.833-0.6-2.433-1.6-4.8c0.399,0.367,1.199,1.183,2.399,2.45
					c1.134,1.1,2.066,1.683,2.8,1.75c-0.033-0.233-0.216-0.8-0.55-1.7l1.8,0.9c1.134,0.567,2.584,1.567,4.351,3
					c-0.233-0.867-0.4-1.517-0.5-1.95c0.366,0.367,0.816,0.983,1.35,1.85c0.566,0.967,1,1.633,1.3,2c0-0.066,0.051-0.5,0.15-1.3
					c-0.033,0.667,0.283,1.483,0.95,2.45c0.333,0.566,0.833,1.333,1.5,2.3l0.55-1.3c-0.167,0.6-0.184,1.383-0.05,2.35
					c0.1-0.133,0.333-0.367,0.7-0.7c-0.167,0.4-0.217,0.883-0.15,1.45l0.5-0.2c-0.366,0.167-0.134,1.134,0.7,2.9
					c0.434,0.9,0.934,1.866,1.5,2.9c-0.5-0.267-0.851-0.467-1.05-0.601C222.217,65.967,222.483,66.517,222.95,67.45z"/>
				
					<linearGradient id="SVGID_19_" gradientUnits="userSpaceOnUse" x1="-60.4268" y1="34" x2="-40.8164" y2="34" gradientTransform="matrix(-0.0637 -0.998 0.998 -0.0637 -1.435429e-004 -4.875362e-004)">
					<stop  offset="0" style="stop-color:#5F5C9A"/>
					<stop  offset="0.1373" style="stop-color:#64629D;stop-opacity:0.7529"/>
					<stop  offset="0.5843" style="stop-color:#716FA5;stop-opacity:0.1882"/>
					<stop  offset="1" style="stop-color:#7573A8;stop-opacity:0"/>
				</linearGradient>
				<path style="fill-rule:evenodd;clip-rule:evenodd;fill:url(#SVGID_19_);" d="M40.6,48.75c0.767-0.333,1.7-0.85,2.8-1.55
					c-0.733,0.733-0.933,1.3-0.6,1.7c0.333,0.367,0.967,0.367,1.9,0c0.966-0.333,2.367-1.233,4.2-2.7c-0.867,0.833-2.2,2.417-4,4.75
					c-1.6,2.1-3,3.633-4.2,4.6c-0.633,0.534-1.717,1.333-3.25,2.4c-1.333,0.966-2.284,1.867-2.85,2.7
					c0.133-0.334,0.367-1.134,0.7-2.4c-0.167,0.167-1.183,0.967-3.05,2.4c-1.3,1-2.15,1.866-2.55,2.6c0.133-0.3,0.466-1,1-2.1
					c0.466-0.867,0.75-1.583,0.85-2.15c-0.5,0.733-1.333,1.55-2.5,2.45c-1.633,1.233-2.566,1.95-2.8,2.149
					c0.667-0.666,1.4-1.966,2.2-3.899c0.767-1.867,1.55-3.15,2.35-3.85c-0.7,0.467-1.8,1.517-3.3,3.15c0.433-1.7,1.4-3.433,2.9-5.2
					c1-1.2,2.45-2.6,4.35-4.2c-0.567,0.1-1.217,0.383-1.95,0.85c-0.433,0.233-1.033,0.617-1.8,1.15c1-1.4,2.6-2.833,4.8-4.3
					c0.2-0.133,1.167-0.933,2.9-2.4c1.167-0.933,2.233-1.583,3.2-1.95c-0.767,0.667-1.583,1.566-2.45,2.7
					c-1.133,1.5-1.6,2.517-1.4,3.05C38.317,49.367,39.167,49.383,40.6,48.75z"/>
				
					<linearGradient id="SVGID_20_" gradientUnits="userSpaceOnUse" x1="-50.0308" y1="68.7471" x2="-39.6604" y2="68.7471" gradientTransform="matrix(-0.0627 -0.998 0.998 -0.0627 1.334101e-004 3.135502e-004)">
					<stop  offset="0" style="stop-color:#7573A8"/>
					<stop  offset="0.0353" style="stop-color:#7573A8;stop-opacity:0.9216"/>
					<stop  offset="1" style="stop-color:#7573A8;stop-opacity:0"/>
				</linearGradient>
				<path style="fill-rule:evenodd;clip-rule:evenodd;fill:url(#SVGID_20_);" d="M67.1,41.3c0.833-1,1.65-1.767,2.45-2.3
					c-2.4,4.033-1.716,5.4,2.05,4.1c3.433-1.167,6.717-3.184,9.85-6.05c-1.3,2-2.967,3.717-5,5.15c-1.4,0.767-2.5,1.35-3.3,1.75
					c-1.334,0.745-2.209,1.428-2.625,2.05c0.168-0.299,0.394-0.899,0.675-1.8c-0.267,0.2-1.333,0.883-3.2,2.05
					c-1.367,0.833-2.267,1.55-2.7,2.15c0.133-0.233,0.5-0.816,1.1-1.75c0.467-0.733,0.767-1.333,0.9-1.8
					c-0.533,0.633-1.417,1.316-2.65,2.05c-1.68,0.996-2.664,1.596-2.95,1.8c0.681-0.525,1.314-1.292,1.9-2.3
					c0.767-1.367,1.267-2.2,1.5-2.5C65.567,43.367,66.233,42.5,67.1,41.3z"/>
				
					<linearGradient id="SVGID_21_" gradientUnits="userSpaceOnUse" x1="-172.6499" y1="87.1748" x2="-148.9437" y2="87.1748" gradientTransform="matrix(-0.7709 -0.637 0.637 -0.7709 2.249479e-004 5.106330e-004)">
					<stop  offset="0" style="stop-color:#7573A8"/>
					<stop  offset="1" style="stop-color:#7573A8;stop-opacity:0"/>
				</linearGradient>
				<path style="fill-rule:evenodd;clip-rule:evenodd;fill:url(#SVGID_21_);" d="M174.9,33.15c1.233,0.733,3.05,1.367,5.449,1.9
					l0.101-0.1c-0.7-0.8-1.217-1.417-1.55-1.85c-0.601-0.767-0.967-1.467-1.101-2.1c1.867,1.767,4.101,3.1,6.7,4
					c-0.133-0.366-0.566-1.116-1.3-2.25c0.143,0.206,0.526,0.489,1.149,0.85c0.733,0.367,1.184,0.633,1.351,0.8
					c0.533,0.5,1.233,1.317,2.1,2.45c0.5,0.566,1.316,1.4,2.45,2.5c0.1,0.133,0.417,0.583,0.95,1.35
					c0.317,0.416,0.602,0.741,0.85,0.975c-1.918-1.651-3.468-2.493-4.649-2.525c0.466,0.667,1.283,1.567,2.449,2.7
					c-0.8-0.533-2.083-1.017-3.85-1.45c-1.866-0.5-3.167-0.95-3.9-1.35c0.634,0.633,1.25,1.434,1.851,2.4
					c-1.767-1.1-2.851-1.733-3.25-1.9c-0.867-0.333-1.517-0.6-1.95-0.8c-0.8-0.333-1.384-0.717-1.75-1.15
					c0.233,0.467,0.517,1.2,0.85,2.2c-0.466-0.333-1.05-0.833-1.75-1.5l-1.699-1.65c-0.7-0.633-1.483-1.783-2.351-3.45
					c-0.733-1.467-1.267-2.417-1.6-2.85C171.517,30.783,173,31.717,174.9,33.15z"/>
				
					<linearGradient id="SVGID_22_" gradientUnits="userSpaceOnUse" x1="-178.8501" y1="110.1816" x2="-150.3901" y2="110.1816" gradientTransform="matrix(-0.7309 -0.6825 0.6825 -0.7309 8.034706e-005 7.796288e-005)">
					<stop  offset="0" style="stop-color:#7573A8"/>
					<stop  offset="1" style="stop-color:#7573A8;stop-opacity:0"/>
				</linearGradient>
				<path style="fill-rule:evenodd;clip-rule:evenodd;fill:url(#SVGID_22_);" d="M202.7,35.1c0.467,0.533,0.783,1,0.95,1.4
					c-0.367-0.2-0.884-0.567-1.551-1.1c-0.699-0.5-1.233-0.867-1.6-1.1c0.134,0.5,0.566,1.133,1.3,1.9
					c0.434,0.4,1.017,0.966,1.75,1.7c0.233,0.267,0.7,0.75,1.4,1.45c0.633,0.633,0.983,1.183,1.05,1.65
					c-0.033-0.167-0.667-0.467-1.9-0.9c-1.3-0.434-2.033-0.7-2.199-0.8c-1.634-0.533-2.851-1-3.65-1.4
					c-1.934-1.066-4.2-2.816-6.8-5.25c1.833,0.9,3.017,1.45,3.55,1.65c0.3,0.133,0.75,0.383,1.35,0.75
					c0.567,0.267,1.051,0.4,1.45,0.4c0.066-0.767-0.267-1.65-1-2.65c-0.333-0.466-0.983-1.2-1.95-2.2
					c-0.433-0.5-1.149-1.184-2.149-2.05c-1.3-1.167-2.184-2.1-2.65-2.8c0.334,0.233,0.834,0.583,1.5,1.05
					c0.634,0.434,1.184,0.733,1.65,0.9c-0.533-1-1.4-2.2-2.601-3.6c-1.366-1.533-2.35-2.65-2.949-3.35
					c3.133,2.4,5.6,4.417,7.399,6.05c2.634,2.367,4.8,4.7,6.5,7C201.583,33.833,201.967,34.267,202.7,35.1z"/>
				
					<linearGradient id="SVGID_23_" gradientUnits="userSpaceOnUse" x1="-22.3525" y1="135.4258" x2="-10.276" y2="135.4258" gradientTransform="matrix(0.0662 -0.9978 0.9978 0.0662 -2.693310e-004 4.220009e-004)">
					<stop  offset="0" style="stop-color:#7573A8"/>
					<stop  offset="1" style="stop-color:#7573A8;stop-opacity:0"/>
				</linearGradient>
				<path style="fill-rule:evenodd;clip-rule:evenodd;fill:url(#SVGID_23_);" d="M143.45,22.8c1.2-0.066,3.8-0.083,7.8-0.05
					c-2.4,0.767-3.9,1.233-4.5,1.4c0.366,0,1.366-0.1,3-0.3c1.2-0.133,2.184-0.15,2.95-0.05c0.7,0.1,1.566,0.3,2.6,0.6
					c0.566,0.133,1.417,0.367,2.55,0.7c-0.133,0.033-0.899,0.183-2.3,0.45c-0.967,0.167-1.7,0.4-2.2,0.7l4.301,0.35
					c-1.834,1.033-3.667,1.75-5.5,2.15c-1.4,0.167-2.5,0.317-3.301,0.45c-1.533,0.233-2.55,0.6-3.05,1.1
					c0.101-0.1,0.5-0.566,1.2-1.4c0.5-0.566,0.95-0.983,1.35-1.25c-2.699,0.7-4.699,1.233-6,1.6c-2.3,0.633-4.116,1.6-5.449,2.9
					c0.199-0.9,0.75-2.066,1.649-3.5c-1.033,0.367-2.399,1.3-4.1,2.8c-0.033-0.534,0.05-1.067,0.25-1.6
					c-0.601,0.533-1.134,1.55-1.601,3.05c-0.399-1.1-0.75-1.933-1.05-2.5c-0.533-1-1.184-1.566-1.95-1.7c0.301,1,0.4,1.9,0.301,2.7
					c-1-1.033-2.051-1.933-3.15-2.7l0.45,1.05c-1.767-0.867-3.117-1.4-4.05-1.6c0.167,0.367,0.467,0.75,0.9,1.15
					c0.267,0.233,0.65,0.567,1.15,1c-1.867-0.767-3.217-1.367-4.05-1.8c-1.467-0.733-2.683-1.533-3.65-2.4
					c0.033,0.3,0.2,0.75,0.5,1.35c0.3,0.6,0.467,1.066,0.5,1.4c-0.867-0.833-1.517-1.45-1.95-1.85c-0.767-0.7-1.466-1.267-2.1-1.7
					c-0.567-0.4-1.317-0.7-2.25-0.9c-1.267-0.3-2.05-0.5-2.35-0.6c2.367-1.1,4.5-1.55,6.4-1.35c0.667,0.066,1.9,0.316,3.7,0.75
					c1.533,0.333,2.767,0.517,3.7,0.55c-0.333-0.133-0.683-0.383-1.05-0.75l-0.95-0.95c2.2,0.9,3.9,1.45,5.1,1.65
					c0.967,0.2,1.917,0.25,2.85,0.15c-0.164-0.427-0.313-0.71-0.449-0.85c0.275,0.271,1.009,0.688,2.199,1.25
					c0.634-0.8,1.884-1.483,3.75-2.05c2.601-0.767,4-1.2,4.2-1.3c-1.7,0.934-3.033,2-4,3.2
					C137.934,23.367,140.483,22.933,143.45,22.8z"/>
				
					<linearGradient id="SVGID_24_" gradientUnits="userSpaceOnUse" x1="-28.083" y1="100.0469" x2="-19.1628" y2="100.0469" gradientTransform="matrix(0.0673 -0.9977 0.9977 0.0673 -3.317073e-004 -3.377497e-004)">
					<stop  offset="0" style="stop-color:#7573A8"/>
					<stop  offset="1" style="stop-color:#7573A8;stop-opacity:0"/>
				</linearGradient>
				<path style="fill-rule:evenodd;clip-rule:evenodd;fill:url(#SVGID_24_);" d="M92.25,29.6c1.1-0.9,2.267-1.5,3.5-1.8
					c2.9-0.667,5.45-0.9,7.65-0.7c0.7,0.066,1.35,0.167,1.95,0.3l0.65,0.25c0.267,0.1,0.65,0.383,1.15,0.85
					c0.459,0.394,0.826,0.644,1.1,0.75c-0.476-0.168-1.226-0.335-2.25-0.5c-1-0.167-1.733-0.333-2.2-0.5l0.5,1.65
					c-0.433-0.6-0.8-0.933-1.1-1c-0.233-0.066-0.633,0.033-1.2,0.3c-1.6,0.833-2.8,1.716-3.6,2.65c0.633-1.2,1.333-1.917,2.1-2.15
					c-1.9,0.367-3.983,1.1-6.25,2.2c-1.433,0.667-3.533,1.783-6.3,3.35c0.733-0.833,1.6-1.85,2.6-3.05
					c0.8-0.867,1.65-1.583,2.55-2.15c-0.867,0.434-1.533,0.767-2,1c-0.473,0.237-0.873,0.487-1.2,0.75
					C91.062,30.651,91.845,29.918,92.25,29.6z"/>
				
					<linearGradient id="SVGID_25_" gradientUnits="userSpaceOnUse" x1="-60.439" y1="216.3164" x2="-45.7972" y2="216.3164" gradientTransform="matrix(0.0478 -0.9989 0.9989 0.0478 -2.290122e-004 3.008842e-004)">
					<stop  offset="0" style="stop-color:#5F5C9A"/>
					<stop  offset="0.1373" style="stop-color:#64629D;stop-opacity:0.7529"/>
					<stop  offset="0.5843" style="stop-color:#716FA5;stop-opacity:0.1882"/>
					<stop  offset="1" style="stop-color:#7573A8;stop-opacity:0"/>
				</linearGradient>
				<path style="fill-rule:evenodd;clip-rule:evenodd;fill:url(#SVGID_25_);" d="M210.5,60.75l0.6,1l-0.25-2.65
					c0.067,0.533,0.267,1.067,0.601,1.6l0.85,1.45c0.334,0.666,0.667,1.75,1,3.25c0.8,1.933,1.483,3.25,2.05,3.949
					c-0.133-0.566-0.199-1.366-0.199-2.399c0.033-1.2,0.017-1.983-0.051-2.351c1.034,2.601,2.267,4.784,3.7,6.551
					c0.5-0.5,0.8-1.417,0.9-2.75c0.1-1.167,0.017-2.167-0.25-3c0.366,1.066,0.616,2.35,0.75,3.85c0.066,0.9,0.149,2.233,0.25,4
					c-0.267-0.566-0.45-1.083-0.55-1.55c-0.233,0.5-0.284,1.217-0.15,2.149l-1.05-1.399v1.75c0,0.8,0.166,1.934,0.5,3.399
					c-0.334-0.8-1.066-1.866-2.2-3.199c-1.083-1.307-1.816-2.356-2.2-3.15c0.019,0.962,0.269,1.829,0.75,2.6
					c-1.633-1.6-2.717-3.683-3.25-6.25c-0.133,0.367-0.133,0.817,0,1.351c0.066,0.3,0.167,0.75,0.3,1.35
					c-0.854-1.436-1.43-2.719-1.725-3.85c0.176,0.835,0.234,2.035,0.175,3.6c-0.666-1.467-1.166-2.6-1.5-3.399
					c-0.6-1.4-1.05-2.567-1.35-3.5l0.2,2.699c-1.867-3.833-2.417-6.399-1.65-7.7c0.6,1.233,0.967,1.917,1.1,2.05
					c-0.1-0.767-0.283-1.684-0.55-2.75c-0.333-1.167-0.583-2.05-0.75-2.65C207.35,56.133,208.667,58.117,210.5,60.75z"/>
			</g>
			
				<use xlink:href="#flash0.ai_x2F_Layer_3_x2F__x3C_Path_x3E__x5F_8_x5F_0"  width="77.532" height="80.449" x="-0.016" y="-80.35" transform="matrix(1 0 0 -1 44.9502 36.7998)" style="overflow:visible;opacity:0.1484;enable-background:new    ;"/>
			
				<use xlink:href="#flash0.ai_x2F_Layer_3_x2F__x3C_Path_x3E__x5F_7"  width="12.28" height="3.003" x="-0.173" y="-3.002" transform="matrix(1 0 0 -1 107.7998 42.8999)" style="overflow:visible;opacity:0.1484;enable-background:new    ;"/>
			
				<use xlink:href="#flash0.ai_x2F_Layer_3_x2F__x3C_Path_x3E__x5F_6"  width="6.382" height="11.068" x="0.012" y="-10.866" transform="matrix(1 0 0 -1 31.7002 81.4502)" style="overflow:visible;opacity:0.1484;enable-background:new    ;"/>
			
				<use xlink:href="#flash0.ai_x2F_Layer_3_x2F__x3C_Path_x3E__x5F_5"  width="8.859" height="16.6" x="-0.112" y="-16.613" transform="matrix(1 0 0 -1 12.5 85.4004)" style="overflow:visible;opacity:0.1484;enable-background:new    ;"/>
			
				<use xlink:href="#flash0.ai_x2F_Layer_3_x2F__x3C_Path_x3E__x5F_4"  width="80.59" height="70.908" y="-70.876" transform="matrix(1 0 0 -1 115.8501 30.0498)" style="overflow:visible;opacity:0.1484;enable-background:new    ;"/>
			
				<use xlink:href="#flash0.ai_x2F_Layer_3_x2F__x3C_Path_x3E__x5F_3"  width="6.973" height="12.84" x="-0.009" y="-12.904" transform="matrix(1 0 0 -1 192.4502 65.4004)" style="overflow:visible;opacity:0.1484;enable-background:new    ;"/>
			
				<use xlink:href="#flash0.ai_x2F_Layer_3_x2F__x3C_Path_x3E__x5F_2"  width="17.976" height="28.721" x="-0.066" y="-28.702" transform="matrix(1 0 0 -1 183.1504 41.4502)" style="overflow:visible;opacity:0.1484;enable-background:new    ;"/>
			
				<use xlink:href="#flash0.ai_x2F_Layer_3_x2F__x3C_Path_x3E__x5F_1"  width="19.248" height="37.75" x="0.027" y="-37.748" transform="matrix(1 0 0 -1 203.5 75.9004)" style="overflow:visible;opacity:0.1484;enable-background:new    ;"/>
			
				<use xlink:href="#flash0.ai_x2F_Layer_3_x2F__x3C_Path_x3E_"  width="30.013" height="12.434" x="-0.063" y="-12.45" transform="matrix(1 0 0 -1 123.5498 39.6001)" style="overflow:visible;opacity:0.1484;enable-background:new    ;"/>
			<g>
				
					<linearGradient id="SVGID_26_" gradientUnits="userSpaceOnUse" x1="70.0781" y1="-225.0313" x2="110.1763" y2="-225.0313" gradientTransform="matrix(0.1858 0.9826 -0.9826 0.1858 3.468096e-004 2.464652e-004)">
					<stop  offset="0" style="stop-color:#81C48F"/>
					<stop  offset="0.2078" style="stop-color:#4BABA7"/>
					<stop  offset="0.5922" style="stop-color:#217387"/>
					<stop  offset="1" style="stop-color:#00140C"/>
				</linearGradient>
				<path style="fill-rule:evenodd;clip-rule:evenodd;fill:url(#SVGID_26_);" d="M244.4,35.05l-0.75,5.85
					c-1,4.2-2.801,7.083-5.4,8.65c-1.634,0.967-3.566,1.217-5.8,0.75l-2.851-0.95c-0.1-0.434-0.166-0.983-0.199-1.65
					c0-1.333,0.233-2.583,0.699-3.75c0.5-1.233,1.7-2.2,3.601-2.9c0.833-0.3,2.633-0.767,5.399-1.4
					C241.366,39.117,243.134,37.583,244.4,35.05z"/>
				<path style="fill-rule:evenodd;clip-rule:evenodd;fill:#4BABA7;" d="M231,45.5c0.4-1.633,1.366-2.833,2.9-3.6
					c1.066-0.566,2.449-1.017,4.149-1.35c1.601-0.333,2.65-0.65,3.15-0.95c1.133-0.7,2-1.5,2.6-2.4c-0.467,3.2-1.233,5.633-2.3,7.3
					c-2.134,3.167-4.717,4.667-7.75,4.5c-1.134-0.1-1.616-0.25-1.45-0.45c0.134-0.133,0.601-0.417,1.4-0.85
					c1.066-0.7,2.233-1.633,3.5-2.8c0.967-0.9,1.583-1.533,1.85-1.9c-1.733,1-3.116,1.867-4.149,2.6l-1.95,1.55l0.8-1.1
					c0.634-0.833,1.217-1.483,1.75-1.95c-0.5,0.2-1.066,0.5-1.7,0.9c-1.3,0.767-2.3,1.667-3,2.7C230.7,47.033,230.767,46.3,231,45.5
					z"/>
			</g>
			<g>
				
					<linearGradient id="SVGID_27_" gradientUnits="userSpaceOnUse" x1="195.8496" y1="-132.0254" x2="248.1932" y2="-132.0254" gradientTransform="matrix(0.7078 0.7064 -0.6231 0.7909 1.397729e-004 -3.823042e-004)">
					<stop  offset="0" style="stop-color:#81C48F"/>
					<stop  offset="0.2078" style="stop-color:#4BABA7"/>
					<stop  offset="0.5922" style="stop-color:#217387"/>
					<stop  offset="1" style="stop-color:#00140C"/>
				</linearGradient>
				<path style="fill-rule:evenodd;clip-rule:evenodd;fill:url(#SVGID_27_);" d="M254.3,61.85c-1.033-1.033-1.967-1.8-2.8-2.3
					c-1.767-1.1-3.717-1.633-5.85-1.6c-3.967,0-6.5-0.067-7.601-0.2c-2.733-0.333-4.649-1.15-5.75-2.45
					c-1.066-1.233-1.833-2.633-2.3-4.2l-0.35-2l3.35-1.95c2.767-1.167,5.384-1.4,7.85-0.7c4,1.133,7.45,4.05,10.351,8.75
					C252.634,57.533,253.667,59.75,254.3,61.85z"/>
				<path style="fill-rule:evenodd;clip-rule:evenodd;fill:#4BABA7;" d="M246.95,51.55c2.033,1.633,3.95,4.284,5.75,7.95
					c-1.101-0.9-2.517-1.6-4.25-2.1c-0.8-0.233-2.3-0.316-4.5-0.25c-2.334,0.067-4.3-0.083-5.9-0.45c-2.467-0.5-4.267-1.8-5.399-3.9
					c-0.5-0.933-0.717-1.633-0.65-2.1c0.1-0.434,0.417-0.717,0.95-0.85c0.8-0.167,1.866-0.033,3.2,0.4
					c0.3,0.067,1.316,0.45,3.05,1.15l2.7,1.15c-0.7-0.633-1.95-1.383-3.75-2.25c-0.667-0.267-1.167-0.466-1.5-0.6
					c-0.667-0.267-1.134-0.534-1.4-0.8c-0.4-0.367-0.3-0.6,0.3-0.7c0.3-0.067,0.733-0.117,1.3-0.15c1.467-0.1,2.717-0.033,3.75,0.2
					C242.833,48.783,244.95,49.883,246.95,51.55z"/>
			</g>
		</g>
		
			<use xlink:href="#flash0.ai_x2F_Layer_3_x2F__x3C_Group_x3E_"  width="-32766" height="-32766" x="16383" y="16383" transform="matrix(1 0 0 -1 24.2998 0)" style="overflow:visible;opacity:0.2188;enable-background:new    ;"/>
	</g>
	
		<use xlink:href="#flash0.ai_x2F_Layer_3_x2F__x3C_Group_x3E__x5F_0"  width="254.275" height="118.152" x="0.025" y="-118.202" transform="matrix(1 0 0 -1 0 0)" style="overflow:visible;opacity:0.3008;enable-background:new    ;"/>
</g>
</svg>
