<?xml version="1.0" encoding="iso-8859-1"?>
<!-- Generator: Adobe Illustrator 15.1.0, SVG Export Plug-In . SVG Version: 6.00 Build 0)  -->
<!DOCTYPE svg PUBLIC "-//W3C//DTD SVG 1.1//EN" "http://www.w3.org/Graphics/SVG/1.1/DTD/svg11.dtd">
<svg version="1.1" id="Layer_3" xmlns="http://www.w3.org/2000/svg" xmlns:xlink="http://www.w3.org/1999/xlink" x="0px" y="0px"
	 width="338.05px" height="129.6px" viewBox="0 0 338.05 129.6" style="enable-background:new 0 0 338.05 129.6;"
	 xml:space="preserve">
<symbol  id="flash0.ai_x2F_Layer_3_x2F__x3C_Clip_Group_0_x3E_" viewBox="0 -36.905 83 36.912">
	<g id="Layer_1_19_">
	</g>
	<g>
		<defs>
			<path id="SVGID_1_" d="M78.9-13.75c-2.233,5.2-7.733,8.817-16.5,10.85c-8.833,2.033-16.433,3-22.8,2.9
				c-5.9-0.1-11.65-1.167-17.25-3.2c-4.167-1.5-8-3.6-11.5-6.3c-3.867-3-6.2-5.933-7-8.8c-0.867-3.167-0.684-5.567,0.55-7.2
				c1.333-1.733,4.017-2.833,8.05-3.3c3.433-0.4,7.233-1.217,11.4-2.45c2.467-0.733,6.583-2.017,12.35-3.85
				c4.9-1.433,11.25-1.367,19.05,0.2c8.067,1.6,14.483,4.217,19.25,7.85C79.6-23.15,81.067-18.717,78.9-13.75z"/>
		</defs>
		<clipPath id="SVGID_2_">
			<use xlink:href="#SVGID_1_"  style="overflow:visible;"/>
		</clipPath>
		<g id="Layer_3_1_" style="clip-path:url(#SVGID_2_);">
			
				<use xlink:href="#flash0.ai_x2F_Layer_3_x2F__x3C_Path_x3E__x5F_3_x5F_0"  width="81.66" height="19.121" x="-0.01" y="-19.15" transform="matrix(1 0 0 1 1.0498 -1.6499)" style="overflow:visible;opacity:0.1914;enable-background:new    ;"/>
			
				<use xlink:href="#flash0.ai_x2F_Layer_3_x2F__x3C_Path_x3E__x5F_2_x5F_0"  width="32.8" height="13.775" y="-13.768" transform="matrix(1 0 0 1 0 -16.2998)" style="overflow:visible;opacity:0.1914;enable-background:new    ;"/>
			
				<use xlink:href="#flash0.ai_x2F_Layer_3_x2F__x3C_Path_x3E__x5F_1_x5F_2"  width="82.784" height="19.868" x="0.015" y="-19.855" transform="matrix(1 0 0 1 0.2002 -17.0498)" style="overflow:visible;opacity:0.1914;enable-background:new    ;"/>
			
				<use xlink:href="#flash0.ai_x2F_Layer_3_x2F__x3C_Path_x3E__x5F_8"  width="67.5" height="12.99" x="-0.004" y="-13.01" transform="matrix(1 0 0 1 13.6499 -20.5498)" style="overflow:visible;opacity:0.1914;enable-background:new    ;"/>
		</g>
	</g>
	<g id="Layer_4_1_">
	</g>
</symbol>
<symbol  id="flash0.ai_x2F_Layer_3_x2F__x3C_Compound_Path_x3E_" viewBox="0.016 -10.392 17.185 10.434">
	<g id="Layer_1_11_">
		
			<linearGradient id="SVGID_3_" gradientUnits="userSpaceOnUse" x1="-118.1289" y1="-123.5796" x2="-101.0771" y2="-123.5796" gradientTransform="matrix(0.9999 -0.0147 0.0147 0.9999 120.0132 116.7529)">
			<stop  offset="0" style="stop-color:#E3DDD9"/>
			<stop  offset="0.0863" style="stop-color:#CAC5C1"/>
			<stop  offset="0.3333" style="stop-color:#888480"/>
			<stop  offset="0.5569" style="stop-color:#54514D"/>
			<stop  offset="0.749" style="stop-color:#2E2C29"/>
			<stop  offset="0.902" style="stop-color:#171512"/>
			<stop  offset="1" style="stop-color:#0F0D0A"/>
		</linearGradient>
		<path style="fill-rule:evenodd;clip-rule:evenodd;fill:url(#SVGID_3_);" d="M15.7-1c1.633-0.967,1.933-2.2,0.9-3.7
			c-1.833-2.667-6.017-4.483-12.55-5.45c-2.433-0.367-3.767-0.317-4,0.15c-0.2,0.467,0.483,1.633,2.05,3.5
			C5.567-2.367,8.333-0.2,10.4,0C12.467,0.167,14.233-0.167,15.7-1z M11.6-6.05c1.367,0.933,1.65,1.917,0.85,2.95
			c-0.8,1.033-1.983,1.35-3.55,0.95C7.7-2.45,6.4-3.383,5-4.95C3.6-6.517,3.133-7.5,3.6-7.9C4.1-8.3,5.183-8.333,6.85-8
			C8.683-7.633,10.267-6.983,11.6-6.05z"/>
	</g>
</symbol>
<symbol  id="flash0.ai_x2F_Layer_3_x2F__x3C_Group_x3E_" viewBox="0 -13.504 45.553 13.506">
	<g id="Layer_1_6_">
		<g>
			
				<linearGradient id="SVGID_4_" gradientUnits="userSpaceOnUse" x1="-123.8359" y1="-122.562" x2="-97.7083" y2="-122.562" gradientTransform="matrix(0.9999 -0.0144 0.0144 0.9999 117.4697 114.3135)">
				<stop  offset="0" style="stop-color:#E3DDD9"/>
				<stop  offset="0.0863" style="stop-color:#CAC5C1"/>
				<stop  offset="0.3333" style="stop-color:#888480"/>
				<stop  offset="0.5569" style="stop-color:#54514D"/>
				<stop  offset="0.749" style="stop-color:#2E2C29"/>
				<stop  offset="0.902" style="stop-color:#171512"/>
				<stop  offset="1" style="stop-color:#0F0D0A"/>
			</linearGradient>
			<path style="fill-rule:evenodd;clip-rule:evenodd;fill:url(#SVGID_4_);" d="M42.2-5.9c-0.833,0.467-2.15,0.816-3.95,1.05
				c-2.467,0.367-3.817,0.583-4.05,0.65c-0.6,0.167-1.65,0.5-3.15,1c-1.333,0.434-2.4,0.733-3.2,0.9c-1,0.2-2.2,0.283-3.6,0.25
				c-1.633-0.067-2.85-0.1-3.65-0.1c-2.067,0-3.633,0-4.7,0c-1.867-0.033-3.433-0.2-4.7-0.5C9.567-3.05,8.283-3.8,7.35-4.9
				C6.383-6.433,5.567-7.683,4.9-8.65c-0.167-0.233,1.283-0.3,4.35-0.2c0.6,0.067,1.5,0.25,2.7,0.55
				c1.033,0.233,1.917,0.267,2.65,0.1c0.733-0.167,1.167-0.466,1.3-0.9c0.167-0.6,0.4-1,0.7-1.2c0.367-0.267,0.967-0.434,1.8-0.5
				c1.367-0.067,3.5,0.233,6.4,0.9c1.167,0.267,3.15,0.467,5.95,0.6c2.6,0.133,4.6,0.4,6,0.8c0.133,0.033,1.417,0.3,3.85,0.8
				C42.767-7.1,43.3-6.5,42.2-5.9z M45.55-6.85c0.1-1.367-2.45-2.583-7.65-3.65c-3.233-0.667-6.333-1.1-9.3-1.3
				c-0.867-0.067-2.85-0.333-5.95-0.8c-2.4-0.367-4.383-0.55-5.95-0.55c-4.233-0.167-7.4-0.283-9.5-0.35
				c-0.767-0.033-1.633,0.167-2.6,0.6l-2.5,1.05c-2.367,0.7-2.733,1.934-1.1,3.7c3.567,4,6.75,6.433,9.55,7.3
				c1.9,0.6,4.267,0.883,7.1,0.85c0.9-0.033,3.283-0.2,7.15-0.5c3.3-0.267,7.367-1.2,12.2-2.8l0.3-0.1c0.6-0.2,2.184-0.533,4.75-1
				C44.317-5,45.483-5.817,45.55-6.85z"/>
		</g>
	</g>
</symbol>
<symbol  id="flash0.ai_x2F_Layer_3_x2F__x3C_Path_x3E_" viewBox="-0.006 -20.472 295.923 20.501">
	<g id="Layer_1_3_">
		<path style="fill-rule:evenodd;clip-rule:evenodd;fill:#40454D;" d="M293.5-11.8c-2.167-0.133-5.517-0.583-10.05-1.35
			c-4.434-0.767-7.784-1.2-10.05-1.3c-1.667-0.1-4.167-0.066-7.5,0.1c-3.367,0.167-5.883,0.217-7.55,0.15
			c-0.533-0.033-1.25-0.183-2.15-0.45c-1-0.267-1.733-0.417-2.2-0.45c-1.433-0.1-3.95-0.033-7.55,0.2
			c-1.733,0.1-3.517,0.15-5.35,0.15c-3.167,0.033-7.434-0.133-12.8-0.5c-6.367-0.433-10.6-0.683-12.7-0.75
			c-4.567-0.2-8-0.333-10.3-0.4c-4.033-0.133-7.45-0.1-10.25,0.1c-1.833,0.1-4.233,0.333-7.2,0.7c-3.633,0.467-6.033,0.75-7.2,0.85
			c-7.467,0.967-13.083,1.6-16.85,1.9c-6.566,0.5-12.167,0.2-16.8-0.9l-9.45-2.3c-2.033-0.5-3.2-0.784-3.5-0.85
			c-1.566-0.233-2.7-0.067-3.4,0.5c-0.633,0.5-0.3,0.967,1,1.4c1.3,0.433,1.7,0.867,1.2,1.3c-1.167,0.434-2.8,0.45-4.9,0.05
			c-3.267-0.633-4.917-0.95-4.95-0.95c-7.7-0.6-14.883-0.4-21.55,0.6c-5.534,0.833-10.684,0.667-15.45-0.5c-2-0.5-4.5-0.733-7.5-0.7
			c-3.467,0.133-6.033,0.233-7.7,0.3c-2.9,0.066-6.2-0.067-9.9-0.4c-1.333-0.133-4.633-0.517-9.9-1.15
			c-8.8-1.066-13.75-1.65-14.85-1.75c-3.867-0.167-6.733-0.417-8.6-0.75L18.4-20.3c-2.1-0.333-3.4-0.184-3.9,0.45
			c-0.467,0.533,0.133,1.25,1.8,2.15c0.567,0.3,0.784,0.5,0.65,0.6c-0.2,0.1-1.034,0.133-2.5,0.1c-2.467-0.1-4.6-0.35-6.4-0.75
			c-1.767-0.367-2.867-0.583-3.3-0.65c-1.3-0.2-2.417-0.2-3.35,0c-1,0.2-1.467,0.583-1.4,1.15c0.033,0.5,0.483,1,1.35,1.5
			c1.333,0.8,3.417,1.533,6.25,2.2c3.1,0.8,6.1,1.216,9,1.25c0.3,0,1.033-0.017,2.2-0.05c0.9-0.033,1.617-0.017,2.15,0.05
			c0.3,0.033,0.85,0.133,1.65,0.3c0.733,0.167,1.316,0.267,1.75,0.3c1.5,0.133,3.367,0.167,5.6,0.1c1.267-0.066,3.15-0.133,5.65-0.2
			c1.233-0.034,2.65,0.15,4.25,0.55c0.933,0.2,2.333,0.55,4.2,1.05c3.267,0.733,8.233,1.5,14.9,2.3C65.45-7.1,70.6-6.133,74.4-5
			c2,0.6,4.5,0.95,7.5,1.05c1.7,0.034,4.25,0.067,7.65,0.1c2.067,0.067,7.267,0.067,15.6,0c2.167,0,5.333-0.066,9.5-0.2
			c3.7-0.067,6.867,0.066,9.5,0.4c0.867,0.1,3.267,0.417,7.2,0.95c2.967,0.367,5.383,0.633,7.25,0.8c1.333,0.1,3.333,0.383,6,0.85
			c2.6,0.466,4.617,0.75,6.05,0.85c8.8,0.534,18.05,0.133,27.75-1.2c4.967-0.667,10.45-1.583,16.45-2.75
			c3.633-0.7,9.117-1.75,16.45-3.15c6.367-1.167,11.883-1.95,16.55-2.35c3.7-0.333,8.333-0.083,13.9,0.75
			c8.3,1.267,12.917,1.933,13.85,2c4.5,0.367,9.55,0.517,15.15,0.45c1.667,0,4.167-0.033,7.5-0.1c0.367,0,1.283,0.083,2.75,0.25
			c1.067,0.1,1.983,0.117,2.75,0.05c2.9-0.267,5.533-0.817,7.9-1.65c0.267-0.1,1.033-0.333,2.3-0.7c1.167-0.4,1.8-0.8,1.9-1.2
			c0.133-0.633,0.066-1.1-0.2-1.4C295.35-11.533,294.633-11.733,293.5-11.8z"/>
	</g>
</symbol>
<symbol  id="flash0.ai_x2F_Layer_3_x2F__x3C_Path_x3E__x5F_0" viewBox="0.07 -7.075 22.414 7.099">
	<g id="Layer_1_14_">
		
			<linearGradient id="SVGID_5_" gradientUnits="userSpaceOnUse" x1="-117.1255" y1="-120.7139" x2="-94.7481" y2="-120.7139" gradientTransform="matrix(0.9999 -0.0145 0.0145 0.9999 118.8799 115.6641)">
			<stop  offset="0" style="stop-color:#E3DDD9"/>
			<stop  offset="0.0863" style="stop-color:#CAC5C1"/>
			<stop  offset="0.3333" style="stop-color:#888480"/>
			<stop  offset="0.5569" style="stop-color:#54514D"/>
			<stop  offset="0.749" style="stop-color:#2E2C29"/>
			<stop  offset="0.902" style="stop-color:#171512"/>
			<stop  offset="1" style="stop-color:#0F0D0A"/>
		</linearGradient>
		<path style="fill-rule:evenodd;clip-rule:evenodd;fill:url(#SVGID_5_);" d="M8.25-5.15C6.596-5.85,5.246-6.491,4.2-7.075
			C4.192-7.038,4.142-6.996,4.05-6.95c-0.4,0.2-1.6,0.483-3.6,0.85C-0.417-5.933,0.2-5.533,2.3-4.9c3.534,1.1,5.784,1.85,6.75,2.25
			c1.733,0.733,3.617,1.267,5.65,1.6c1.167,0.2,2.966,0.483,5.4,0.85c1.967,0.367,2.717,0.284,2.25-0.25
			c-0.5-0.533-1.817-1.017-3.95-1.45C15.067-2.6,11.683-3.683,8.25-5.15z"/>
	</g>
</symbol>
<symbol  id="flash0.ai_x2F_Layer_3_x2F__x3C_Path_x3E__x5F_1" viewBox="0.018 -33.75 315.159 33.75">
	<g id="Layer_1_2_">
		<path style="fill-rule:evenodd;clip-rule:evenodd;fill:#40454D;" d="M314.45-22.45c0.833-0.8,0.95-1.583,0.35-2.35
			c-0.4-0.467-1.117-0.633-2.15-0.5c-1.133,0.233-1.917,0.367-2.35,0.4c-1.966,0.066-4.4,0.05-7.3-0.05
			c-3.233-0.1-5.667-0.167-7.3-0.2c-5.833-0.067-10.184-0.217-13.05-0.45c-1.533-0.066-2.667-0.15-3.4-0.25
			c-1.4-0.2-1.6-0.533-0.6-1c0.033-0.033,0.867-0.233,2.5-0.6c1.133-0.267,1.633-0.7,1.5-1.3c-0.2-1.233-2.25-1.783-6.15-1.65
			c-0.833,0.033-3.183,0.267-7.05,0.7c-6.667,0.9-13.15,1.333-19.45,1.3c-0.933,0-2.517,0.15-4.75,0.45
			c-2.033,0.267-3.633,0.35-4.8,0.25c-4.6-0.4-8.083-0.65-10.45-0.75c-7.7-0.333-16.1-0.466-25.2-0.4
			c-3.3,0.033-7.25-0.25-11.85-0.85c-5.233-0.767-9.167-1.316-11.8-1.65c-2.367-0.3-4.05-0.45-5.05-0.45
			c-2.7,0-4.017,0.533-3.95,1.6c0.033,0.6,1.267,1.284,3.7,2.05c2.066,0.667,2.733,1.4,2,2.2c-0.567,0.6-2.15,0.633-4.75,0.1
			c-2.733-0.7-4.367-1.1-4.9-1.2c-3.6-0.833-6-1.35-7.2-1.55c-2.833-0.533-5.267-0.8-7.3-0.8c-2.133,0-6.233-0.184-12.3-0.55
			c-5.167-0.333-9.283-0.417-12.35-0.25c-1.867,0.1-4,0.367-6.4,0.8c-0.133,0.033-2.25,0.483-6.35,1.35
			c-2.167,0.6-3.883,1.017-5.15,1.25c-2.233,0.4-3.883,0.267-4.95-0.4c0.3-0.167,0.733-0.367,1.3-0.6c0.467-0.233,0.85-0.5,1.15-0.8
			c-0.7-0.533-1.683-0.883-2.95-1.05c-0.4-0.033-1.483-0.1-3.25-0.2c-2.833-0.167-6.383,0.067-10.65,0.7
			c-6.4,0.9-9.933,1.383-10.6,1.45c-2.7,0.267-5.784,0.15-9.25-0.35c-3.4-0.5-6.434-1.25-9.1-2.25c-2.333-1.034-4.1-1.784-5.3-2.25
			c-2.066-0.8-3.95-1.2-5.65-1.2c-1.9,0-2.967,0.3-3.2,0.9c-0.167,0.5,0.117,0.867,0.85,1.1c0.4,0.1,0.95,0.25,1.65,0.45
			c0.8,0.433,1.117,0.816,0.95,1.15c-0.1,0.3-0.583,0.55-1.45,0.75c-1.133,0.233-2.65,0.2-4.55-0.1
			c-2.167-0.333-3.683-0.467-4.55-0.4c-1.1,0.066-2.383-0.017-3.85-0.25c-1.7-0.333-3-0.55-3.9-0.65c-1.934-0.2-3.4-0.35-4.4-0.45
			c-1.767-0.167-3.233-0.383-4.4-0.65c-2.833-0.633-4.55-0.983-5.15-1.05c-2.9-0.4-4.417-0.167-4.55,0.7c-0.1,0.6,0.566,1.25,2,1.95
			c1.467,0.733,2.2,1.3,2.2,1.7c0.034,0.733-2.566,0.983-7.8,0.75c-2.7-0.133-5.717-0.333-9.05-0.6c-3,0.067-3.483,1-1.45,2.8
			c1.3,1.133,3.1,2.283,5.4,3.45c1.733,0.867,3.7,1.617,5.9,2.25c0.733,0.2,1.934,0.517,3.6,0.95c1.167,0.433,1.3,0.867,0.4,1.3
			c-0.9,0.4-1.333,0.817-1.3,1.25c0,0.434,0.533,0.917,1.6,1.45c1,0.5,3.183,1,6.55,1.5c3.467,0.5,5.667,0.95,6.6,1.35
			c0.933,0.433,2.083,1.5,3.45,3.2c1.233,1.534,2.45,2.417,3.65,2.65c3.133,0.6,7.983,1.267,14.55,2
			c15.667,1.833,33.783,3,54.35,3.5c10.733,0.267,28.85,0.4,54.35,0.4c4.8,0,12.267,0.133,22.4,0.4c8.933,0,16.35-0.65,22.25-1.95
			c1.633-0.367,3.933-0.867,6.9-1.5c2.533-0.433,4.9-0.566,7.1-0.4c2.533,0.167,6.333,0.6,11.4,1.3c4.467,0.4,8.25,0.15,11.35-0.75
			c0.8-0.233,1.633-0.7,2.5-1.4c0.867-0.7,1.367-1.066,1.5-1.1c3.233-1.167,7.967-1.717,14.2-1.65c7.6,0.1,12.466,0,14.6-0.3
			c0.333-0.067,3.333-0.383,9-0.95c3.633-0.333,6.567-0.883,8.8-1.65c1.833-0.633,4.566-1.5,8.2-2.6
			c3.133-1.033,5.784-2.15,7.95-3.35c0.233-0.1,0.683-0.3,1.35-0.6c0.633-0.3,1.017-0.583,1.15-0.85
			c0.267-0.567,0.217-0.933-0.15-1.1c-0.533-0.133-0.967-0.25-1.3-0.35c-1.367-0.5-1.566-0.933-0.6-1.3
			c0.566-0.2,1.55-0.433,2.95-0.7C312.967-21.533,313.817-21.95,314.45-22.45z"/>
	</g>
</symbol>
<symbol  id="flash0.ai_x2F_Layer_3_x2F__x3C_Path_x3E__x5F_1_x5F_0" viewBox="-0.008 -100.55 52.09 100.55">
	<g id="Layer_1_4_">
		
			<radialGradient id="SVGID_6_" cx="8.3999" cy="-61.5" r="73.4875" gradientTransform="matrix(1 0 0 -1.6841 0 -165.0737)" gradientUnits="userSpaceOnUse">
			<stop  offset="0.3137" style="stop-color:#FFFFFF"/>
			<stop  offset="0.3686" style="stop-color:#EDEBEB"/>
			<stop  offset="0.4784" style="stop-color:#BEB7B6"/>
			<stop  offset="0.6353" style="stop-color:#746462"/>
			<stop  offset="0.7882" style="stop-color:#270D0A"/>
		</radialGradient>
		<path style="fill-rule:evenodd;clip-rule:evenodd;fill:url(#SVGID_6_);" d="M24.55-7.05c5.233-1.467,10.284-4.067,15.15-7.8
			c5.8-4.433,9.333-9.233,10.6-14.4c1.7-6.733,2.184-16.167,1.45-28.3c-0.867-13.7-3.217-22.934-7.05-27.7
			C41.267-89.483,36.1-93,29.2-95.8c-3.434-1.4-6.867-2.717-10.3-3.95c-0.433-0.433-0.816-0.7-1.15-0.8
			c-0.5,0.367-0.567,0.85-0.2,1.45c0.133,0.233,0.817,1.033,2.05,2.4c0.8,0.867,1.483,1.983,2.05,3.35
			c0.6,1.667,1.067,2.95,1.4,3.85c0.767,1.967,1.017,3.483,0.75,4.55c-0.267,1.034-1.167,2.367-2.7,4
			c-2.467,2.667-3.717,5.45-3.75,8.35c-0.033,2.533,0.917,5.567,2.85,9.1c2,3.1,3.267,5.367,3.8,6.8
			c0.833,2.333,0.583,4.767-0.75,7.3c-0.9,1.633-2.417,3.467-4.55,5.5c-2.467,2.333-4.083,4.017-4.85,5.05l-0.3,0.4
			c-1,1.467-1.3,3.5-0.9,6.1c0.367,2.733,0.25,4.684-0.35,5.85c-0.533,1.067-1.683,2.333-3.45,3.8c-2.1,1.733-3.4,2.9-3.9,3.5
			C1.75-15.267,0.1-11.333,0-7.4C-0.1-4.2,0.717-1.733,2.45,0C2.85-0.233,3.367-0.45,4-0.65c1.4-0.4,4.417-1.367,9.05-2.9
			C17.383-4.983,21.217-6.15,24.55-7.05z"/>
	</g>
</symbol>
<symbol  id="flash0.ai_x2F_Layer_3_x2F__x3C_Path_x3E__x5F_1_x5F_1" viewBox="0.087 -18.95 45.753 18.972">
	<g id="Layer_1_13_">
		
			<linearGradient id="SVGID_7_" gradientUnits="userSpaceOnUse" x1="-119.0684" y1="-128.6631" x2="-73.4448" y2="-128.6631" gradientTransform="matrix(0.9999 -0.0148 0.0148 0.9999 121.0332 117.7305)">
			<stop  offset="0" style="stop-color:#E3DDD9"/>
			<stop  offset="0.0863" style="stop-color:#CAC5C1"/>
			<stop  offset="0.3333" style="stop-color:#888480"/>
			<stop  offset="0.5569" style="stop-color:#54514D"/>
			<stop  offset="0.749" style="stop-color:#2E2C29"/>
			<stop  offset="0.902" style="stop-color:#171512"/>
			<stop  offset="1" style="stop-color:#0F0D0A"/>
		</linearGradient>
		<path style="fill-rule:evenodd;clip-rule:evenodd;fill:url(#SVGID_7_);" d="M44.9-5.7c-0.667-0.233-2.45-0.117-5.35,0.35
			c-3.066,0.5-4.917,0.7-5.55,0.6c-4.033-0.7-6.2-1.083-6.5-1.15c-2.4-0.5-4.45-1.167-6.15-2c-1.033-0.533-2.617-1.517-4.75-2.95
			c-2-1.333-3.6-2.283-4.8-2.85c-2.633-1.2-5.3-2.95-8-5.25c-1.3,3-2.517,4.9-3.65,5.7c-0.333,0.267,0.65,0.433,2.95,0.5
			c3.167,0.1,5.517,0.55,7.05,1.35c0.934,0.467,2.533,1.633,4.8,3.5C16.917-6.3,19.133-5,21.6-4c3.566,1.4,6.45,2.383,8.65,2.95
			c3.4,0.9,6.383,1.233,8.95,1c1.433-0.167,3.083-0.983,4.95-2.45C46.117-4.1,46.367-5.167,44.9-5.7z"/>
	</g>
</symbol>
<symbol  id="flash0.ai_x2F_Layer_3_x2F__x3C_Path_x3E__x5F_1_x5F_2" viewBox="0.015 -19.855 82.784 19.868">
	<g id="Layer_1_17_">
		
			<linearGradient id="SVGID_8_" gradientUnits="userSpaceOnUse" x1="-116.8623" y1="-126.8564" x2="-34.2329" y2="-126.8564" gradientTransform="matrix(0.9999 -0.0145 0.0145 0.9999 118.8291 115.6172)">
			<stop  offset="0" style="stop-color:#E3DDD9"/>
			<stop  offset="0.0863" style="stop-color:#CAC5C1"/>
			<stop  offset="0.3333" style="stop-color:#888480"/>
			<stop  offset="0.5569" style="stop-color:#54514D"/>
			<stop  offset="0.749" style="stop-color:#2E2C29"/>
			<stop  offset="0.902" style="stop-color:#171512"/>
			<stop  offset="1" style="stop-color:#0F0D0A"/>
		</linearGradient>
		<path style="fill-rule:evenodd;clip-rule:evenodd;fill:url(#SVGID_8_);" d="M82.8-7.85c-1.333,0.267-3.066,0.767-5.2,1.5
			c-2.633,0.867-4.35,1.417-5.15,1.65c-1.467,0.367-3.217,0.733-5.25,1.1c-2.3,0.367-4.05,0.65-5.25,0.85
			c-2.5,0.433-4.367,0.75-5.6,0.95c-2.133,0.3-4.017,0.4-5.65,0.3c-2.6-0.167-5.483-0.817-8.65-1.95c-3.6-1.5-6.333-2.617-8.2-3.35
			c-0.767-0.3-3.333-1.1-7.7-2.4c-3.133-0.933-5.617-2.017-7.45-3.25c-2.467-1.633-6.167-3.45-11.1-5.45
			c-1.233-0.533-2.184-0.934-2.85-1.2c-1.2-0.467-2.2-0.717-3-0.75c-0.467-0.033-0.85,0.1-1.15,0.4c-0.3,0.267-0.483,0.633-0.55,1.1
			c-0.1,0.633,0.017,1.083,0.35,1.35c0.233,0.2,0.684,0.35,1.35,0.45L2.9-16.4c0.8,0.1,2.017,0.25,3.65,0.45
			c1.4,0.233,2.583,0.55,3.55,0.95c0.867,0.367,2.633,1.333,5.3,2.9c2.133,1.267,3.967,2.117,5.5,2.55c2.467,0.7,5.9,2,10.3,3.9
			c4.633,1.967,8.05,3.3,10.25,4c2.733,0.867,5.633,1.4,8.7,1.6c3.033,0.167,5.983,0,8.85-0.5c4.1-0.7,8.367-1.684,12.8-2.95
			l6.35-1.95c0.567-0.167,1.533-0.4,2.9-0.7C82.15-6.517,82.733-7.083,82.8-7.85z"/>
	</g>
</symbol>
<symbol  id="flash0.ai_x2F_Layer_3_x2F__x3C_Path_x3E__x5F_2" viewBox="-0.01 -17.65 44.71 17.65">
	<g id="Layer_1_12_">
		
			<linearGradient id="SVGID_9_" gradientUnits="userSpaceOnUse" x1="-117.749" y1="-126.666" x2="-73.2777" y2="-126.666" gradientTransform="matrix(0.9999 -0.0146 0.0146 0.9999 119.6885 116.4404)">
			<stop  offset="0" style="stop-color:#E3DDD9"/>
			<stop  offset="0.0863" style="stop-color:#CAC5C1"/>
			<stop  offset="0.3333" style="stop-color:#888480"/>
			<stop  offset="0.5569" style="stop-color:#54514D"/>
			<stop  offset="0.749" style="stop-color:#2E2C29"/>
			<stop  offset="0.902" style="stop-color:#171512"/>
			<stop  offset="1" style="stop-color:#0F0D0A"/>
		</linearGradient>
		<path style="fill-rule:evenodd;clip-rule:evenodd;fill:url(#SVGID_9_);" d="M34-1.8c4.433,1.1,8,1.7,10.7,1.8
			c-6.034-1.1-10.05-2.2-12.05-3.3c-1.7-0.934-6.333-3.15-13.9-6.65c-1.467-0.667-3.317-1.35-5.55-2.05
			c-2.133-0.667-3.717-1.25-4.75-1.75c-2.1-1-4.517-2.3-7.25-3.9c-1.1,1-1.45,1.65-1.05,1.95c0.233,0.167,1.667,0.817,4.3,1.95
			c2.633,1.167,4.017,1.783,4.15,1.85c0.5,0.333,0.917,0.75,1.25,1.25c0.4,0.7,0.083,0.983-0.95,0.85c-5.566-0.7-8.133-0.9-7.7-0.6
			c0.7,0.433,2.683,0.8,5.95,1.1c3.867,0.367,6.667,0.8,8.4,1.3c1.434,0.4,4.333,1.417,8.7,3.05C28.283-3.45,31.533-2.4,34-1.8z"/>
	</g>
</symbol>
<symbol  id="flash0.ai_x2F_Layer_3_x2F__x3C_Path_x3E__x5F_2_x5F_0" viewBox="0 -13.768 32.8 13.775">
	<g id="Layer_1_16_">
		
			<linearGradient id="SVGID_10_" gradientUnits="userSpaceOnUse" x1="-117.186" y1="-124.1074" x2="-84.4871" y2="-124.1074" gradientTransform="matrix(0.9999 -0.0145 0.0145 0.9999 118.9785 115.7598)">
			<stop  offset="0" style="stop-color:#E3DDD9"/>
			<stop  offset="0.0863" style="stop-color:#CAC5C1"/>
			<stop  offset="0.3333" style="stop-color:#888480"/>
			<stop  offset="0.5569" style="stop-color:#54514D"/>
			<stop  offset="0.749" style="stop-color:#2E2C29"/>
			<stop  offset="0.902" style="stop-color:#171512"/>
			<stop  offset="1" style="stop-color:#0F0D0A"/>
		</linearGradient>
		<path style="fill-rule:evenodd;clip-rule:evenodd;fill:url(#SVGID_10_);" d="M29-0.25c1.467,0.2,2.733,0.283,3.8,0.25
			c-0.066-0.033-1.267-0.617-3.6-1.75c-1.233-0.633-2.284-1.083-3.15-1.35c-3.333-0.967-5.816-1.816-7.45-2.55L9.05-9.6
			c-0.233-0.1-1.517-0.883-3.85-2.35c-2.067-1.333-3.184-1.933-3.35-1.8c-1.1,1-1.45,1.65-1.05,1.95
			c0.567,0.433,1.383,0.867,2.45,1.3c1.5,0.567,2.367,0.917,2.6,1.05c0.433,0.2,1.467,0.75,3.1,1.65
			c1.267,0.667,2.316,1.167,3.15,1.5c0.867,0.333,2.367,0.767,4.5,1.3c1.933,0.567,3.333,1.233,4.2,2l-7.55-1.5
			c-2.533-0.567-4.433-0.983-5.7-1.25c-2.233-0.467-4.133-0.767-5.7-0.9L0-6.7c0.033,1.3,0.95,1.983,2.75,2.05
			c1.433,0.066,3.9,0.417,7.4,1.05c0.967,0.167,3.483,0.65,7.55,1.45c3.066,0.6,5.583,1.05,7.55,1.35
			C26.083-0.7,27.333-0.517,29-0.25z"/>
	</g>
</symbol>
<symbol  id="flash0.ai_x2F_Layer_3_x2F__x3C_Path_x3E__x5F_3" viewBox="0 -18.35 39.371 18.366">
	<g id="Layer_1_10_">
		
			<linearGradient id="SVGID_11_" gradientUnits="userSpaceOnUse" x1="-118.4497" y1="-127.8022" x2="-79.3425" y2="-127.8022" gradientTransform="matrix(0.9999 -0.0147 0.0147 0.9999 120.4463 117.168)">
			<stop  offset="0" style="stop-color:#E3DDD9"/>
			<stop  offset="0.0863" style="stop-color:#CAC5C1"/>
			<stop  offset="0.3333" style="stop-color:#888480"/>
			<stop  offset="0.5569" style="stop-color:#54514D"/>
			<stop  offset="0.749" style="stop-color:#2E2C29"/>
			<stop  offset="0.902" style="stop-color:#171512"/>
			<stop  offset="1" style="stop-color:#0F0D0A"/>
		</linearGradient>
		<path style="fill-rule:evenodd;clip-rule:evenodd;fill:url(#SVGID_11_);" d="M23.55-4.9c-1.466-1.4-3.333-3-5.6-4.8
			c-2.6-2.033-4.55-3.367-5.85-4c-1.934-0.9-5.867-2.45-11.8-4.65c-0.2,0.167-0.3,0.4-0.3,0.7c0,0.6,0.5,1.217,1.5,1.85
			c1.6,1,2.55,1.75,2.85,2.25c0.7,0.333,1.617,0.9,2.75,1.7c1.467,1.033,2.417,1.684,2.85,1.95c0.533,0.3,1.033,0.816,1.5,1.55
			c0.233,0.4,0.7,0.483,1.4,0.25c0.967-0.333,2.017-0.283,3.15,0.15c1.3,0.467,2.817,1.434,4.55,2.9
			c3.667,3.066,7.034,4.216,10.1,3.45c1.233-0.3,2.567-0.233,4,0.2c0.833,0.233,2.167,0.667,4,1.3c1.333,0.333,0.817-0.05-1.55-1.15
			c-2.2-1-3.9-1.717-5.1-2.15c-0.133-0.067-1.417-0.1-3.85-0.1C26.117-3.5,24.583-3.967,23.55-4.9z"/>
	</g>
</symbol>
<symbol  id="flash0.ai_x2F_Layer_3_x2F__x3C_Path_x3E__x5F_3_x5F_0" viewBox="-0.01 -19.15 81.66 19.121">
	<g id="Layer_1_15_">
		
			<linearGradient id="SVGID_12_" gradientUnits="userSpaceOnUse" x1="-118.4229" y1="-127.9897" x2="-36.8116" y2="-127.9897" gradientTransform="matrix(0.9999 -0.0147 0.0147 0.9999 120.4063 117.1289)">
			<stop  offset="0" style="stop-color:#E3DDD9"/>
			<stop  offset="0.0863" style="stop-color:#CAC5C1"/>
			<stop  offset="0.3333" style="stop-color:#888480"/>
			<stop  offset="0.5569" style="stop-color:#54514D"/>
			<stop  offset="0.749" style="stop-color:#2E2C29"/>
			<stop  offset="0.902" style="stop-color:#171512"/>
			<stop  offset="1" style="stop-color:#0F0D0A"/>
		</linearGradient>
		<path style="fill-rule:evenodd;clip-rule:evenodd;fill:url(#SVGID_12_);" d="M81.65-14.8c-1.367,0.2-3.133,0.617-5.3,1.25
			c-3.167,0.9-4.934,1.4-5.3,1.5C61.483-9.617,51.367-8.767,40.7-9.5c-9.367-0.667-14.85-1.117-16.45-1.35
			c-6.1-0.8-11.367-2.25-15.8-4.35c-2.133-1.033-4.55-2.35-7.25-3.95c-1.1,1-1.45,1.65-1.05,1.95c0.233,0.167,1.667,0.817,4.3,1.95
			c2.633,1.167,4.017,1.783,4.15,1.85c0.5,0.333,0.9,0.75,1.2,1.25c0.434,0.7,0.133,0.983-0.9,0.85c-5.566-0.7-8.133-0.9-7.7-0.6
			c0.667,0.433,2.633,0.8,5.9,1.1c3.933,0.367,6.75,0.8,8.45,1.3c1.667,0.467,3.717,1.167,6.15,2.1c1.367,0.5,3.4,1.25,6.1,2.25
			c1.633,0.566,3.7,1.2,6.2,1.9c1.4,0.367,3.5,0.933,6.3,1.7c4.333,1.233,10.333,1.716,18,1.45c1.367-0.033,4.034-0.017,8,0.05
			c3.5-0.267,5.867-1.3,7.1-3.1c-0.967-0.067-2.333,0-4.1,0.2c-1.966,0.2-3.35,0.3-4.15,0.3c-3.9,0-10.267-0.417-19.1-1.25
			c-1.733-0.167-4.517-0.483-8.35-0.95c-2-0.267-3.1-0.433-3.3-0.5c-1.367-0.267-2.367-0.667-3-1.2c1.033-0.333,2.5-0.434,4.4-0.3
			c1.067,0.067,2.583,0.167,4.55,0.3c0.233,0,2.267,0.05,6.1,0.15c2.433,0.1,4.45,0.066,6.05-0.1c2.033-0.167,4.45-0.483,7.25-0.95
			c1.6-0.267,3.983-0.683,7.15-1.25c0.467-0.066,2.367-0.483,5.7-1.25c2.333-0.566,4.25-0.833,5.75-0.8
			c1.4,0.033,2.283-0.283,2.65-0.95C81.067-11.833,81.283-12.867,81.65-14.8z"/>
	</g>
</symbol>
<symbol  id="flash0.ai_x2F_Layer_3_x2F__x3C_Path_x3E__x5F_4" viewBox="0 -14.1 38.95 14.109">
	<g id="Layer_1_9_">
		
			<linearGradient id="SVGID_13_" gradientUnits="userSpaceOnUse" x1="-119.3203" y1="-126.4414" x2="-80.5217" y2="-126.4414" gradientTransform="matrix(0.9999 -0.0148 0.0148 0.9999 121.2275 117.916)">
			<stop  offset="0" style="stop-color:#E3DDD9"/>
			<stop  offset="0.0863" style="stop-color:#CAC5C1"/>
			<stop  offset="0.3333" style="stop-color:#888480"/>
			<stop  offset="0.5569" style="stop-color:#54514D"/>
			<stop  offset="0.749" style="stop-color:#2E2C29"/>
			<stop  offset="0.902" style="stop-color:#171512"/>
			<stop  offset="1" style="stop-color:#0F0D0A"/>
		</linearGradient>
		<path style="fill-rule:evenodd;clip-rule:evenodd;fill:url(#SVGID_13_);" d="M30.5-1.8c-3.3-1.2-5.233-1.917-5.8-2.15
			c-2.467-1-4.467-2.066-6-3.2c-5.1-3.8-8.417-5.617-9.95-5.45c-0.633,0.067-1.317,0.617-2.05,1.65c-0.6,0.9-1.1,1.233-1.5,1
			c-0.8-0.466-1.8-1.85-3-4.15c0.066,0.233,0.033,0.6-0.1,1.1c-0.3,0.933-1,1.95-2.1,3.05C0.667-9.283,1.367-8.667,2.1-8.1
			c1.533,1.167,2.566,1.55,3.1,1.15c1.333-1.033,2.3-1.633,2.9-1.8c1.667-0.467,3.733-0.033,6.2,1.3
			c6.233,3.434,11.733,5.617,16.5,6.55c3.434,0.667,6.15,0.967,8.15,0.9C35.517-0.4,32.7-1,30.5-1.8z"/>
	</g>
</symbol>
<symbol  id="flash0.ai_x2F_Layer_3_x2F__x3C_Path_x3E__x5F_5" viewBox="0 -7.95 38.174 7.95">
	<g id="Layer_1_8_">
		
			<linearGradient id="SVGID_14_" gradientUnits="userSpaceOnUse" x1="-116.3149" y1="-120.2642" x2="-78.2219" y2="-120.2642" gradientTransform="matrix(0.9999 -0.0144 0.0144 0.9999 118.0635 114.8838)">
			<stop  offset="0" style="stop-color:#E3DDD9"/>
			<stop  offset="0.0863" style="stop-color:#CAC5C1"/>
			<stop  offset="0.3333" style="stop-color:#888480"/>
			<stop  offset="0.5569" style="stop-color:#54514D"/>
			<stop  offset="0.749" style="stop-color:#2E2C29"/>
			<stop  offset="0.902" style="stop-color:#171512"/>
			<stop  offset="1" style="stop-color:#0F0D0A"/>
		</linearGradient>
		<path style="fill-rule:evenodd;clip-rule:evenodd;fill:url(#SVGID_14_);" d="M30.75-0.85c2.967,0.567,4.967,0.85,6,0.85
			c1.167,0,1.617-0.067,1.35-0.2c-0.1-0.033-0.917-0.233-2.45-0.6c-9.333-2.333-14.533-3.567-15.6-3.7
			c-2.2-0.4-3.983-0.683-5.35-0.85c-2.534-0.3-3.35-0.083-2.45,0.65c1.6,1.2,0.333,1.167-3.8-0.1C6.683-5.333,4.733-6.383,2.6-7.95
			L0-5.5c0.867,0.4,2.117,0.833,3.75,1.3c2.367,0.667,4.467,1.067,6.3,1.2c0.7,0.033,2.717,0.05,6.05,0.05
			c2.5,0,4.75,0.184,6.75,0.55L30.75-0.85z"/>
	</g>
</symbol>
<symbol  id="flash0.ai_x2F_Layer_3_x2F__x3C_Path_x3E__x5F_6" viewBox="0 -7.4 22.54 7.4">
	<g id="Layer_1_7_">
		
			<linearGradient id="SVGID_15_" gradientUnits="userSpaceOnUse" x1="-116.6782" y1="-119.5532" x2="-90.5505" y2="-119.5532" gradientTransform="matrix(0.9999 -0.0144 0.0144 0.9999 117.4697 114.3135)">
			<stop  offset="0" style="stop-color:#E3DDD9"/>
			<stop  offset="0.0863" style="stop-color:#CAC5C1"/>
			<stop  offset="0.3333" style="stop-color:#888480"/>
			<stop  offset="0.5569" style="stop-color:#54514D"/>
			<stop  offset="0.749" style="stop-color:#2E2C29"/>
			<stop  offset="0.902" style="stop-color:#171512"/>
			<stop  offset="1" style="stop-color:#0F0D0A"/>
		</linearGradient>
		<path style="fill-rule:evenodd;clip-rule:evenodd;fill:url(#SVGID_15_);" d="M22.05-0.25c0.934-0.2,0.534-0.367-1.2-0.5
			c-2.133-0.167-4.033-0.5-5.7-1c-2.133-0.667-4.35-1.7-6.65-3.1C7.333-5.55,5.683-6.1,3.55-6.5C1.517-6.867,0.333-7.167,0-7.4
			l0.3,2.7c3.233,0.2,5.55,0.65,6.95,1.35c1.3,0.633,3.117,1.317,5.45,2.05C15.367-0.433,17.283,0,18.45,0
			C19.95,0,21.15-0.083,22.05-0.25z"/>
	</g>
</symbol>
<symbol  id="flash0.ai_x2F_Layer_3_x2F__x3C_Path_x3E__x5F_7" viewBox="0 -7.15 56.606 7.15">
	<g id="Layer_1_5_">
		
			<linearGradient id="SVGID_16_" gradientUnits="userSpaceOnUse" x1="-113.6279" y1="-119.5552" x2="-87.5002" y2="-119.5552" gradientTransform="matrix(0.9999 -0.0144 0.0144 0.9999 117.4697 114.3135)">
			<stop  offset="0" style="stop-color:#E3DDD9"/>
			<stop  offset="0.0863" style="stop-color:#CAC5C1"/>
			<stop  offset="0.3333" style="stop-color:#888480"/>
			<stop  offset="0.5569" style="stop-color:#54514D"/>
			<stop  offset="0.749" style="stop-color:#2E2C29"/>
			<stop  offset="0.902" style="stop-color:#171512"/>
			<stop  offset="1" style="stop-color:#0F0D0A"/>
		</linearGradient>
		<path style="fill-rule:evenodd;clip-rule:evenodd;fill:url(#SVGID_16_);" d="M45.15-3.15c4-0.367,7.817-0.783,11.45-1.25
			c0.033-0.333-0.083-0.65-0.35-0.95C55.717-5.983,54.683-6.2,53.15-6c-5.667,0.633-8.917,0.983-9.75,1.05
			c-5.233,0.434-9.3,0.483-12.2,0.15c-2.934-0.333-6.45-0.417-10.55-0.25c-1.3,0.066-4.433,0.283-9.4,0.65
			C9.017-4.233,6.967-4.45,5.1-5.05c-2.133-0.9-3.833-1.6-5.1-2.1C0.1-6.783,0.35-6.267,0.75-5.6L1.3-4.7l9.15,1.9
			C7.65-2.267,4.367-2.067,0.6-2.2L1,0l18.55-3.2c1.567-0.3,3.167-0.4,4.8-0.3c1.566,0.1,3.517,0.4,5.85,0.9
			C32.133-2.2,37.117-2.383,45.15-3.15z"/>
	</g>
</symbol>
<symbol  id="flash0.ai_x2F_Layer_3_x2F__x3C_Path_x3E__x5F_8" viewBox="-0.004 -13.01 67.5 12.99">
	<g id="Layer_1_18_">
		
			<linearGradient id="SVGID_17_" gradientUnits="userSpaceOnUse" x1="-116.5835" y1="-123.0151" x2="-49.1954" y2="-123.0151" gradientTransform="matrix(0.9999 -0.0145 0.0145 0.9999 118.4351 115.2383)">
			<stop  offset="0" style="stop-color:#E3DDD9"/>
			<stop  offset="0.0863" style="stop-color:#CAC5C1"/>
			<stop  offset="0.3333" style="stop-color:#888480"/>
			<stop  offset="0.5569" style="stop-color:#54514D"/>
			<stop  offset="0.749" style="stop-color:#2E2C29"/>
			<stop  offset="0.902" style="stop-color:#171512"/>
			<stop  offset="1" style="stop-color:#0F0D0A"/>
		</linearGradient>
		<path style="fill-rule:evenodd;clip-rule:evenodd;fill:url(#SVGID_17_);" d="M66.6-2.75c1.633-2.467,1.033-3.6-1.8-3.4
			c-3.5,0.733-5.633,1.167-6.4,1.3c-1.467,0.267-4.283,0.617-8.45,1.05c-2,0.267-3.517,0.45-4.55,0.55
			c-1.7,0.167-3.217,0.217-4.55,0.15c-2.1-0.1-4.417-0.45-6.95-1.05c-2.9-0.8-5.1-1.4-6.6-1.8c-0.566-0.167-2.65-0.6-6.25-1.3
			c-2.5-0.5-4.5-1.083-6-1.75c-1.9-0.867-4.883-1.85-8.95-2.95C3.733-12.617,2.167-12.967,1.4-13c-0.8-0.067-1.267,0.2-1.4,0.8
			c-0.1,0.5,1.75,1.417,5.55,2.75c1.967,0.7,4.267,1.483,6.9,2.35c4.066,1.633,8.617,2.833,13.65,3.6c1.5,0.233,3.733,0.733,6.7,1.5
			c2.9,0.767,5.1,1.267,6.6,1.5c1.133,0.167,2.434,0.233,3.9,0.2c0.333,0,1.617-0.067,3.85-0.2c1.133-0.1,2.45-0.1,3.95,0
			c0.867,0.033,2.167,0.133,3.9,0.3c2.933,0.2,5.033,0.233,6.3,0.1C63.867-0.4,65.633-1.283,66.6-2.75z"/>
	</g>
</symbol>
<g>
	
		<linearGradient id="SVGID_18_" gradientUnits="userSpaceOnUse" x1="94.873" y1="-168.2422" x2="122.6236" y2="-168.2422" gradientTransform="matrix(0.0065 1 -1 0.0065 4.328121e-004 -2.239295e-004)">
		<stop  offset="0" style="stop-color:#238B8F"/>
		<stop  offset="1" style="stop-color:#3E9A9D"/>
	</linearGradient>
	<path style="fill-rule:evenodd;clip-rule:evenodd;fill:url(#SVGID_18_);" d="M336.35,120.45c-2.133,1.333-6.866,2.366-14.199,3.1
		c-5.434,0.566-12.601,1.066-21.5,1.5c-11.834,0.566-19.017,0.934-21.551,1.101c-6.966,0.466-15.05,0.616-24.25,0.449
		c-10.767-0.333-18.883-0.583-24.35-0.75c-4.6-0.166-13.5-0.166-26.7,0c-11.233,0.134-20.116-0.05-26.649-0.55
		c-6.567-0.467-16.017-0.25-28.351,0.65c-13.066,1-22.583,1.366-28.55,1.1c-10.067-0.434-26.833,0.05-50.3,1.45
		c-21.6,1.3-38.633,1.434-51.1,0.4c-6.934-0.567-11.983-1.65-15.15-3.25c-4.333-2.167-4.85-5.2-1.55-9.101
		c4.367-5.1,11.5-9.5,21.4-13.2c8.067-3.033,15.717-4.916,22.95-5.649c3.267-0.334,6.717-0.533,10.35-0.601
		c2.167-0.033,5.6-0.05,10.3-0.05c3.434-0.033,8-0.35,13.7-0.95c7-0.699,11.55-1.116,13.65-1.25c21.933-1.399,45.933-2.216,72-2.449
		c28.1-0.134,47.767-0.334,59-0.601c1.733-0.033,9.083-0.483,22.05-1.35c8.967-0.601,16.334-0.617,22.101-0.05
		c5.466,0.533,10.899,1.416,16.3,2.649c4.434,1,9.767,2.467,16,4.4c5.866,1.8,9.283,2.866,10.25,3.2
		c3.767,1.233,7.316,2.649,10.649,4.25c1.7,0.899,3.134,1.699,4.301,2.399c2.866,1.733,5.199,3.384,7,4.95
		C338.45,115.884,339.184,118.616,336.35,120.45z"/>
	
		<use xlink:href="#flash0.ai_x2F_Layer_3_x2F__x3C_Path_x3E__x5F_1"  width="315.159" height="33.75" x="0.018" y="-33.75" transform="matrix(1 0 0 -1 10.7998 90.0996)" style="overflow:visible;opacity:0.2305;enable-background:new    ;"/>
	
		<use xlink:href="#flash0.ai_x2F_Layer_3_x2F__x3C_Path_x3E_"  width="295.923" height="20.501" x="-0.006" y="-20.472" transform="matrix(1 0 0 -1 19.8999 97.4004)" style="overflow:visible;opacity:0.2305;enable-background:new    ;"/>
	<g>
		
			<linearGradient id="SVGID_19_" gradientUnits="userSpaceOnUse" x1="13.9517" y1="57.8237" x2="28.9147" y2="57.8237" gradientTransform="matrix(0.9991 0.0418 -0.0418 0.9991 1.099817e-004 -2.996400e-004)">
			<stop  offset="0" style="stop-color:#ACA7A2"/>
			<stop  offset="1" style="stop-color:#303B3B"/>
		</linearGradient>
		<path style="fill-rule:evenodd;clip-rule:evenodd;fill:url(#SVGID_19_);" d="M15.1,7.45c1.333-1.233,2.467-1.8,3.4-1.7
			c1.067,0.1,2.15,0.967,3.25,2.6c0.967,1.433,3.117,8.583,6.45,21.45c3.667,14.233,5.9,22.434,6.7,24.6
			c1.733,4.6,3.467,11.284,5.2,20.05c1.933,9.733,2.667,16.566,2.2,20.5c-0.767,6.833-1.167,10.383-1.2,10.649
			c-0.467,2.834-1.117,4.301-1.95,4.4c-1.967,0.267-3.2,0.467-3.7,0.6c-1.467,0.4-1.917,0.934-1.35,1.601l-1-0.45
			c-1.1-0.467-1.95-1.066-2.55-1.8c-0.867-1-1.117-2.117-0.75-3.351c0.267-1,0.934-1.899,2-2.699c1-0.801,1.567-1.534,1.7-2.2
			c0.167-0.8-0.283-1.367-1.35-1.7c-2.233-0.7-3.883-1.366-4.95-2c-1.867-1.033-3.45-2.533-4.75-4.5
			c-1.167-2.167-1.95-3.616-2.35-4.35c-1.3-1.934-2.317-3.634-3.05-5.101c-1.367-2.7-1.917-5.066-1.65-7.1
			c0.2-1.3,0.567-2.467,1.1-3.5l0.75-1.2c-0.533-0.333-1.433-1.2-2.7-2.6c-0.767-0.801-1.1-1.567-1-2.301
			c0.067-0.767,0.667-1.533,1.8-2.3c1.5-0.867,2.517-1.5,3.05-1.9c0.867-0.667,1.383-1.467,1.55-2.4c0.233-1.067-0.067-2.3-0.9-3.7
			c-0.867-1.433-2.167-2.833-3.9-4.2c-2.4-1.733-4.083-2.983-5.05-3.75c-1.6-1.3-2.533-2.467-2.8-3.5
			c-0.2-0.867-0.133-1.717,0.2-2.55c0.3-0.9,0.4-1.7,0.3-2.4c-0.233-1.367,0.2-3.233,1.3-5.6c1.133-2.533,1.667-4.417,1.6-5.65
			c-0.067-0.867-0.117-1.533-0.15-2c-0.066-0.767-0.017-1.433,0.15-2c0.333-1,0.517-1.583,0.55-1.75c0.067-0.5,0.05-1.117-0.05-1.85
			c-0.6-3.933-0.467-7.05,0.4-9.35c0.7-1.767,1.35-2.95,1.95-3.55C14.483,8.1,15,7.617,15.1,7.45z"/>
		
			<linearGradient id="SVGID_20_" gradientUnits="userSpaceOnUse" x1="-56.8877" y1="-60.3789" x2="-2.8127" y2="-60.3789" gradientTransform="matrix(-1 0 0 -1 0 0)">
			<stop  offset="0" style="stop-color:#20141B"/>
			<stop  offset="0.6157" style="stop-color:#303B3B"/>
			<stop  offset="1" style="stop-color:#5F5952"/>
		</linearGradient>
		<path style="fill-rule:evenodd;clip-rule:evenodd;fill:url(#SVGID_20_);" d="M81.1,41.5c3.133,8.633,4.6,17.85,4.4,27.65
			c-0.067,3.466-2.1,7.25-6.1,11.35c-5.7,5.833-8.883,9.267-9.55,10.3c-2,3.167-3.7,5.65-5.1,7.45c-1.933,2.533-3.983,4.7-6.15,6.5
			c-4.967,4.2-9.833,6.4-14.6,6.6c-1.9,0.067-4.25-0.233-7.05-0.899c-3.7-0.867-5.3-2.033-4.8-3.5c0.167-0.5,0.934-1.483,2.3-2.95
			c1.333-1.4,2.066-2.45,2.2-3.15c0.2-0.933-0.15-1.699-1.05-2.3c-0.767-0.5-2.184-1.017-4.25-1.55c-2.333-0.566-4.3-1.816-5.9-3.75
			c-0.767-0.9-1.717-2.45-2.85-4.65c-1.6-2.399-2.7-4.083-3.3-5.05c-1.033-1.566-1.517-3.184-1.45-4.85
			c0.066-1.8,0.717-3.367,1.95-4.7c0.767-0.833,1.684-1.517,2.75-2.05c0.367-0.2,0.233-0.384-0.4-0.55
			c-1.3-0.301-2.417-0.717-3.35-1.25c-1.3-0.767-1.883-1.467-1.75-2.101c0.133-0.533,0.883-1.316,2.25-2.35
			c1.6-1.167,2.534-1.883,2.8-2.15c0.566-0.5,0.833-0.95,0.8-1.35c-0.066-0.367,0.017-0.833,0.25-1.4c0.333-0.8,0.617-1.466,0.85-2
			c0.567-1.267-1.8-4.167-7.1-8.7c-1.267-1.033-2.2-1.817-2.8-2.35c-1.067-0.933-1.934-1.8-2.6-2.6c-0.9-1.1-1.367-1.816-1.4-2.15
			c-0.033-0.3,0.083-0.767,0.35-1.4c0.333-0.7,0.65-1.05,0.95-1.05c-0.433-0.167-0.75-0.267-0.95-0.3
			c0.066-3.633,0.85-6.317,2.35-8.05c0.133-0.167,0.467-0.434,1-0.8c0.4-0.3,0.633-0.617,0.7-0.95c-0.333-0.167-0.6-0.267-0.8-0.3
			c0.066-0.5,0.033-1.167-0.1-2c-0.167-1.033-0.25-1.7-0.25-2c0-0.733,0.133-1.917,0.4-3.55c0.233-1.467,0.3-2.617,0.2-3.45
			c-0.3-2.8-0.1-4.933,0.6-6.4c0.833-1.833,2.467-2.917,4.9-3.25c2.333-0.3,5.35,0.067,9.05,1.1c1.267,0.333,3.85,1.183,7.75,2.55
			c2.167,0.733,7.267,1.783,15.3,3.15c6.367,1.067,11.3,2.684,14.8,4.85C72.717,25.05,77.633,31.833,81.1,41.5z"/>
		<g>
			
				<use xlink:href="#flash0.ai_x2F_Layer_3_x2F__x3C_Path_x3E__x5F_1_x5F_0"  width="52.09" height="100.55" x="-0.008" y="-100.55" transform="matrix(1 0 0 -1 17.7998 9.4502)" style="overflow:visible;enable-background:new    ;"/>
			
				<linearGradient id="SVGID_21_" gradientUnits="userSpaceOnUse" x1="-9.0166" y1="-165.3584" x2="226.0371" y2="-165.3584" gradientTransform="matrix(0.0214 0.9998 -0.9998 0.0214 4.269015e-004 3.756564e-004)">
				<stop  offset="0" style="stop-color:#20141B"/>
				<stop  offset="1" style="stop-color:#303B3B"/>
			</linearGradient>
			<path style="fill-rule:evenodd;clip-rule:evenodd;fill:url(#SVGID_21_);" d="M284.55,6.1c0.066,0.2,0.101,0.683,0.101,1.45
				c0,0.567,0.116,1.034,0.35,1.4c0.366,0.533,1,1,1.9,1.4c0.166,0.066,0.916,0.333,2.25,0.8c1.366,0.5,3.449,1.217,6.25,2.15
				c2.5,0.867,4.533,1.733,6.1,2.6c3.267,1.767,3.35,3.434,0.25,5c-1.934,0.867-3.366,1.517-4.3,1.95
				c-1.601,0.767-2.55,1.5-2.851,2.2c-1,2.267,1.233,4.534,6.7,6.8c1.3,0.566,3.283,1.283,5.95,2.15
				c2.233,0.933,3.833,2.25,4.8,3.95c1.4,2.333,2.066,5.617,2,9.85c-0.033,1.467-0.2,3.534-0.5,6.2c-0.333,2.8-0.517,4.75-0.55,5.85
				c-0.033,0.566,0,1.517,0.1,2.85c0.101,1.2,0.117,2.133,0.051,2.8c-0.101,1.2-0.5,2.134-1.2,2.8c-1,0.7-1.816,1.367-2.45,2
				c-0.934,0.934-2.15,2.667-3.65,5.2c-1.433,2.333-2.716,4.017-3.85,5.05c-3.767,2.334-6.6,4.316-8.5,5.95
				c-3.533,3-3.866,5.616-1,7.85c0.8,0.634,2.167,1.267,4.1,1.9c1.934,0.667,3.301,1.3,4.101,1.9c1,0.699,1.383,1.649,1.149,2.85
				c-0.133,0.767-0.616,1.816-1.449,3.15c-1.434,2.199-3.551,3.699-6.351,4.5c-1.866,0.566-4.166,0.816-6.899,0.75
				c-3.101-0.167-5.434-0.267-7-0.301c-9.733-0.066-15.567-0.133-17.5-0.199c-10.034-0.334-16.134-0.517-18.301-0.551
				c-6.933-0.166-13.05-0.199-18.35-0.1c-4.233,0.066-9.15-0.233-14.75-0.9c-6.467-0.866-11.333-1.517-14.6-1.949
				c-0.867,0.033-1.5,0.066-1.9,0.1c-0.667,0.033-1.3-0.017-1.9-0.15c-2.633-0.366-4.616-0.666-5.949-0.899
				c-6.034-1-10.367-1.934-13-2.8c-1.267-0.4-3.034-1.034-5.3-1.9c-2.467-0.9-4.25-1.533-5.35-1.9
				c-5.5-1.833-11.483-2.716-17.95-2.649c-2.4,0.033-5.25,0.316-8.55,0.85c-3.733,0.7-6.567,1.184-8.5,1.45
				c-3.8,0.533-5.8,0.816-6,0.85c-2.3,0.367-4.25,0.834-5.85,1.4c-2.7,0.9-6.017,1.667-9.95,2.3c-4.434,0.634-7.8,1.15-10.1,1.55
				c-3.8,0.7-7.733,1.351-11.8,1.95c-7.3,1.167-14.233,2.15-20.8,2.95l-9.7,1.35c-1.367,0.167-2.65,0.117-3.85-0.149
				c-1.5-0.334-2.55-0.983-3.15-1.95c-0.667-1.1-0.2-2.15,1.4-3.15c2.033-0.933,3.3-1.533,3.8-1.8c4.033-1.967,7.45-4.666,10.25-8.1
				c3.833-4.767,6.183-14,7.05-27.7c0.733-12.133,0.25-21.567-1.45-28.3c-1.267-5.167-4.8-9.967-10.6-14.4
				c-4.867-3.733-9.917-6.333-15.15-7.8c-3.333-0.9-7.167-2.067-11.5-3.5c-4.633-1.533-7.65-2.5-9.05-2.9
				c-0.633-0.2-1.15-0.417-1.55-0.65c-1.8-1.034-2.583-2.6-2.35-4.7C18.133,2.783,19.033,1.2,20.6,0c5.633,0.6,11.633,1.167,18,1.7
				c12.767,1.066,21.083,1.45,24.95,1.15c3.133-0.267,12.85-0.067,29.15,0.6c16.867,0.7,27.183,0.95,30.95,0.75
				c5.333-0.267,14.55,0.517,27.65,2.35c12.133,1.667,19.851,3.05,23.15,4.15c2.733,0.9,5.333,1.367,7.8,1.4
				c2.333,0.066,5.116-0.25,8.35-0.95c1.967-0.4,4.967-1.15,9-2.25c3.667-0.9,6.717-1.367,9.15-1.4c1.066,0,2.634,0.367,4.7,1.1
				c1.2,0.433,2.8,1.3,4.8,2.6c2.033,1.333,3.6,2.216,4.7,2.65c3.434,1.3,7.05,1.383,10.85,0.25c1.4-0.434,4.767-1.9,10.101-4.4
				c0.5-0.233,1.066-0.567,1.699-1c0.334-0.233,0.851-0.583,1.551-1.05c1.767-1.1,5.066-2.083,9.899-2.95
				c0.934-0.133,2.267-0.317,4-0.55c1.533-0.233,2.834-0.517,3.9-0.85c3.233-1.066,6.2-1.4,8.899-1c1,0.167,3.051,0.383,6.15,0.65
				C282.667,3.45,284.184,4.5,284.55,6.1z"/>
		</g>
		
			<linearGradient id="SVGID_22_" gradientUnits="userSpaceOnUse" x1="76.7563" y1="-150.5098" x2="96.1802" y2="-150.5098" gradientTransform="matrix(-0.1236 0.9923 -0.9923 -0.1236 8.502379e-004 -1.552701e-005)">
			<stop  offset="0" style="stop-color:#20141B"/>
			<stop  offset="1" style="stop-color:#303B3B"/>
		</linearGradient>
		<path style="fill-rule:evenodd;clip-rule:evenodd;fill:url(#SVGID_22_);" d="M135.3,88.8c2.7-0.666,5.267-0.717,7.7-0.149
			c3.3,0.767,5.167,1.233,5.6,1.399c2.233,0.733,3.85,1.717,4.85,2.95c1.033,1.267,1.583,3.134,1.65,5.6
			c0.066,2.733-0.783,4.134-2.55,4.2c-1.2-1.066-2.283-1.883-3.25-2.45c-1.8-1-4.15-1.55-7.05-1.649
			c-7.067-0.2-12.333,1.566-15.8,5.3c-2.067,0.233-3.167-0.267-3.3-1.5c-0.1-1.333,0.85-3.783,2.85-7.35
			c0.933-1.601,2.233-2.95,3.9-4.051C131.5,90.033,133.3,89.267,135.3,88.8z"/>
		
			<linearGradient id="SVGID_23_" gradientUnits="userSpaceOnUse" x1="70.5127" y1="-219.6929" x2="89.5334" y2="-219.6929" gradientTransform="matrix(-0.1235 0.9923 -0.9923 -0.1235 -5.440637e-004 -1.691580e-004)">
			<stop  offset="0" style="stop-color:#20141B"/>
			<stop  offset="1" style="stop-color:#303B3B"/>
		</linearGradient>
		<path style="fill-rule:evenodd;clip-rule:evenodd;fill:url(#SVGID_23_);" d="M204.95,91.25c2.7-0.634,5.267-0.667,7.7-0.1
			c3.399,0.8,5.267,1.267,5.6,1.399c2.233,0.7,3.85,1.667,4.85,2.9c0.9,1.133,1.584,2.583,2.051,4.35
			c0.566,2.134,0.366,3.617-0.601,4.45c-0.7,0.6-1.816,1.167-3.35,1.7c-1.9,0.633-3.267,1.184-4.101,1.649
			c-1.6,0.967-4.083,1-7.449,0.101c-4.5-1.167-7.867-1.717-10.101-1.65c-2.267,0.2-3.816,0.25-4.649,0.15
			c-1.4-0.167-2.317-0.9-2.75-2.2c-0.867-2.634,0.383-5.333,3.75-8.1C198.7,93.566,201.717,92.017,204.95,91.25z"/>
		
			<linearGradient id="SVGID_24_" gradientUnits="userSpaceOnUse" x1="82.6968" y1="-203.874" x2="99.876" y2="-203.874" gradientTransform="matrix(0.3202 0.9474 -0.9474 0.3202 3.683567e-005 2.635717e-004)">
			<stop  offset="0" style="stop-color:#BD986B"/>
			<stop  offset="0.6471" style="stop-color:#6F4D3B"/>
			<stop  offset="1" style="stop-color:#59382D"/>
		</linearGradient>
		<path style="fill-rule:evenodd;clip-rule:evenodd;fill:url(#SVGID_24_);" d="M247.35,1.45c4.267-1.133,6.601,0.066,7,3.6
			c0.067,0.467,0.084,2.034,0.051,4.7c0,1.9,0.216,3.217,0.649,3.95c2.367,4.2,2.367,10.2,0,18c-1.7,5.6-4.517,11.816-8.45,18.65
			c-1.466,2.566-1.399,4.65,0.2,6.25c0.767,0.767,1.2,1.45,1.3,2.05c0.134,1-0.333,2.333-1.399,4c-2.066,3.234-3.767,5.7-5.101,7.4
			c-1.966,2.566-4.017,4.75-6.149,6.55c-5,4.2-9.867,6.384-14.601,6.551c-1.6,0.066-3.149,0.017-4.649-0.15
			c-2.101-0.2-3.55-0.6-4.351-1.2c-1.933-1.399-2.666-2.383-2.199-2.95c1.366-1.666,2.149-2.899,2.35-3.699
			c0.634-2.601,0.7-4.334,0.2-5.2c-0.4-0.7-1.316-1.033-2.75-1c-2.667,0.033-4.084,0.05-4.25,0.05c-1.8-0.2-3.283-0.917-4.45-2.15
			c-1.866-1.933-2.467-5.8-1.8-11.6c1.1-6.3,1.717-10.383,1.85-12.25c0.367-5.133,0.15-9.25-0.649-12.35
			c-1.134-4.367-3.534-7.517-7.2-9.45c1.6-2.034,4.399-3.333,8.399-3.9c0.967-0.133,2.551-0.267,4.75-0.4
			c7.834-0.533,17.817-3.283,29.95-8.25c1.267-0.533,3.117-1.8,5.55-3.8C243.8,3.017,245.717,1.883,247.35,1.45z"/>
		
			<linearGradient id="SVGID_25_" gradientUnits="userSpaceOnUse" x1="155.0977" y1="-152.54" x2="173.2747" y2="-152.54" gradientTransform="matrix(0.612 0.7908 -0.7908 0.612 4.521608e-004 -6.926060e-005)">
			<stop  offset="0" style="stop-color:#5C4C3A"/>
			<stop  offset="0.5686" style="stop-color:#331C13"/>
			<stop  offset="1" style="stop-color:#250C09"/>
		</linearGradient>
		<path style="fill-rule:evenodd;clip-rule:evenodd;fill:url(#SVGID_25_);" d="M243.5,4.1c1.233-1.3,2.934-1.7,5.1-1.2
			c2.167,0.5,3.801,1.717,4.9,3.65c3,5.333,4.967,11.883,5.9,19.65c1.1,8.767,0.25,15.566-2.551,20.4
			c-1.6,2.767-4.149,6.4-7.649,10.9c-3.934,4.967-6.601,8.55-8,10.75c-2,3.167-3.7,5.65-5.101,7.45
			c-1.933,2.533-3.983,4.7-6.149,6.5c-4.967,4.2-9.834,6.399-14.601,6.6c-2.133,0.101-4.333-0.083-6.6-0.55
			c-3.2-0.6-4.967-1.6-5.3-3c-0.2-0.9,0.066-1.85,0.8-2.85c0.467-0.601,1.267-1.45,2.4-2.551c1.899-2.066,1.75-4.017-0.45-5.85
			c-1.066-0.9-3.25-1.384-6.55-1.45c-2.9-0.033-5.067-1.083-6.5-3.149c-1.934-2.767-2-7.634-0.2-14.601
			c2.467-7.566,3.967-12.533,4.5-14.9c0.399-1.767-0.334-4.833-2.2-9.2c-1.434-3.333-1.066-5.667,1.1-7
			c1.067-0.667,2.483-1.067,4.25-1.2c4.2-0.3,9.284-1.65,15.25-4.05c3.367-1.367,8.25-3.5,14.65-6.4c2.767-1.133,5-2.183,6.7-3.15
			C239.733,7.467,241.833,5.867,243.5,4.1z"/>
		
			<linearGradient id="SVGID_26_" gradientUnits="userSpaceOnUse" x1="-1.5508" y1="-219.0244" x2="215.1486" y2="-219.0244" gradientTransform="matrix(0.0213 0.9998 -0.9998 0.0213 3.918167e-004 3.996398e-004)">
			<stop  offset="0" style="stop-color:#20141B"/>
			<stop  offset="1" style="stop-color:#303B3B"/>
		</linearGradient>
		<path style="fill-rule:evenodd;clip-rule:evenodd;fill:url(#SVGID_26_);" d="M244.7,5.2c1.467-1.167,3.066-1.617,4.8-1.35
			c1.833,0.3,3.267,1.383,4.3,3.25c3,5.3,4.983,11.85,5.95,19.65c1.1,8.767,0.25,15.567-2.55,20.4c-1.4,2.4-3,6.133-4.8,11.2
			c-1.7,4.8-3.384,8.5-5.051,11.1c-1.3,2.033-3.966,4.399-8,7.1c-5.433,3.601-8.449,5.667-9.05,6.2c-5.033,4.2-9.899,6.4-14.6,6.6
			c-3.2,0.434-5.45,0.7-6.75,0.801c-2.2,0.199-4.117-0.284-5.75-1.45c-0.667-0.467-1.783-1.566-3.351-3.3
			c-1.533-1.733-2.649-2.851-3.35-3.351c-2-1.399-3.4-3.733-4.2-7c-0.899-3.767-1.85-6.25-2.85-7.45
			c-0.566-0.666-2.184-2.05-4.851-4.149c-2.033-1.633-3.399-3.25-4.1-4.85c-0.6-1.4-0.8-2.9-0.6-4.5c0.066-0.633,0.399-2.133,1-4.5
			c0.399-1.8,0.55-4.567,0.449-8.3c-0.1-3.7,0.084-6.466,0.551-8.3c1.366-5.3,6.116-8.483,14.25-9.55
			c1.1-0.133,2.683-0.267,4.75-0.4c4.433-0.3,9.6-1.533,15.5-3.7c3.399-1.233,8.166-3.2,14.3-5.9c2.533-1.034,4.666-2.034,6.399-3
			C239.434,9.117,241.967,7.367,244.7,5.2z"/>
		
			<linearGradient id="SVGID_27_" gradientUnits="userSpaceOnUse" x1="37.2534" y1="-127.8584" x2="59.5844" y2="-127.8584" gradientTransform="matrix(0.0526 0.9986 -0.9996 0.0345 3.512204e-005 3.152154e-004)">
			<stop  offset="0" style="stop-color:#20141B"/>
			<stop  offset="1" style="stop-color:#303B3B"/>
		</linearGradient>
		<path style="fill-rule:evenodd;clip-rule:evenodd;fill:url(#SVGID_27_);" d="M122.25,44.75c-1.633-0.2-3.867-0.7-6.7-1.5
			c-2.167-0.6-3.7-0.833-4.6-0.7c-1.733,0.4-2.883,0.617-3.45,0.65c-0.933,0.1-1.083-0.317-0.45-1.25
			c0.767-1.167,1.967-2.534,3.6-4.1c2.5-2.4,4.983-4.133,7.45-5.2c5.267-2.3,10.867-3.083,16.8-2.35l13.7,1.65
			c1.433,0.167,2.6,0.483,3.5,0.95c1.033,0.5,1.483,1.067,1.35,1.7c-0.167,1.233-1.883,2.683-5.15,4.35
			c-0.867,0.433-2.466,0.983-4.8,1.65c-2.5,0.667-4.2,1.2-5.1,1.6c-0.933,0.4-1.85,1.066-2.75,2c-0.833,0.9-1.75,1.517-2.75,1.85
			c-0.8,0.3-2.167,0.267-4.1-0.1C125.333,45.25,123.15,44.85,122.25,44.75z"/>
		
			<linearGradient id="SVGID_28_" gradientUnits="userSpaceOnUse" x1="27.5029" y1="-187.1387" x2="51.0752" y2="-187.1387" gradientTransform="matrix(0.0401 0.9992 -0.9992 0.0401 4.375763e-004 -1.834705e-004)">
			<stop  offset="0" style="stop-color:#20141B"/>
			<stop  offset="1" style="stop-color:#303B3B"/>
		</linearGradient>
		<path style="fill-rule:evenodd;clip-rule:evenodd;fill:url(#SVGID_28_);" d="M203.55,21.35c2.233,0.8,4.2,1.1,5.9,0.9
			c1.833-0.167,3.7-0.033,5.6,0.4c1.9,0.467,2.316,0.75,1.25,0.85c-1.133,0.067-2.767,0.333-4.899,0.8
			c-2.5,0.567-4.2,1.133-5.101,1.7c-0.934,0.6-2.083,1.133-3.45,1.6c-1.166,0.4-2.883,0.867-5.149,1.4
			c-3.3,0.8-7.917,1.467-13.851,2c-5.233,0.467-9.033,0.733-11.399,0.8c-4.867,0.1-8.317-0.3-10.35-1.2c-2-0.9-2.717-2.15-2.15-3.75
			c0.466-1.267,1.15-2.083,2.05-2.45c0.267-0.1,0.7-0.5,1.3-1.2c0.9-1.034,1.867-2,2.9-2.9c2.167-1.933,5.517-3.433,10.05-4.5
			c2.434-0.533,5.684-0.5,9.75,0.1c3.634,0.567,7.066,1.434,10.3,2.6C198.3,19.233,200.717,20.183,203.55,21.35z"/>
		
			<linearGradient id="SVGID_29_" gradientUnits="userSpaceOnUse" x1="-96.7432" y1="242.6934" x2="-12.6384" y2="242.6934" gradientTransform="matrix(0.1522 -0.9884 0.9868 0.1626 -4.547089e-004 2.267957e-005)">
			<stop  offset="0" style="stop-color:#303B3B"/>
			<stop  offset="1" style="stop-color:#20141B"/>
		</linearGradient>
		<path style="fill-rule:evenodd;clip-rule:evenodd;fill:url(#SVGID_29_);" d="M273.15,56.95c2.166,4.966,0.699,9.399-4.4,13.3
			c-4.767,3.634-11.184,6.25-19.25,7.85c-7.8,1.567-14.15,1.634-19.05,0.2c-5.767-1.833-9.884-3.116-12.351-3.85
			c-4.166-1.233-7.966-2.05-11.399-2.45c-4.033-0.467-6.717-1.566-8.05-3.3c-1.233-1.634-1.417-4.034-0.551-7.2
			c0.801-2.867,3.134-5.8,7-8.8c3.5-2.7,7.334-4.8,11.5-6.3c5.601-2.033,11.351-3.1,17.25-3.2c6.367-0.1,13.967,0.867,22.801,2.9
			C265.417,48.133,270.917,51.75,273.15,56.95z"/>
		
			<use xlink:href="#flash0.ai_x2F_Layer_3_x2F__x3C_Path_x3E__x5F_7"  width="56.606" height="7.15" y="-7.15" transform="matrix(1 0 0 -1 10.1001 35.8501)" style="overflow:visible;opacity:0.1094;enable-background:new    ;"/>
		
			<use xlink:href="#flash0.ai_x2F_Layer_3_x2F__x3C_Group_x3E_"  width="45.553" height="13.506" x="0" y="-13.504" transform="matrix(1 0 0 -1 20.5 23.2002)" style="overflow:visible;opacity:0.1094;enable-background:new    ;"/>
		
			<use xlink:href="#flash0.ai_x2F_Layer_3_x2F__x3C_Path_x3E__x5F_6"  width="22.54" height="7.4" y="-7.4" transform="matrix(1 0 0 -1 13.3999 19.5)" style="overflow:visible;opacity:0.1094;enable-background:new    ;"/>
		
			<use xlink:href="#flash0.ai_x2F_Layer_3_x2F__x3C_Path_x3E__x5F_5"  width="38.174" height="7.95" y="-7.95" transform="matrix(1 0 0 -1 15.5498 43.3999)" style="overflow:visible;opacity:0.1094;enable-background:new    ;"/>
		
			<use xlink:href="#flash0.ai_x2F_Layer_3_x2F__x3C_Path_x3E__x5F_4"  width="38.95" height="14.109" y="-14.1" transform="matrix(1 0 0 -1 21.7998 44.7002)" style="overflow:visible;opacity:0.1094;enable-background:new    ;"/>
		
			<use xlink:href="#flash0.ai_x2F_Layer_3_x2F__x3C_Path_x3E__x5F_3"  width="39.371" height="18.366" y="-18.35" transform="matrix(1 0 0 -1 17.0498 50.7002)" style="overflow:visible;opacity:0.1094;enable-background:new    ;"/>
		
			<use xlink:href="#flash0.ai_x2F_Layer_3_x2F__x3C_Compound_Path_x3E_"  width="17.185" height="10.434" x="0.016" y="-10.392" transform="matrix(1 0 0 -1 34.6001 55.4502)" style="overflow:visible;opacity:0.1094;enable-background:new    ;"/>
		
			<use xlink:href="#flash0.ai_x2F_Layer_3_x2F__x3C_Path_x3E__x5F_2"  width="44.71" height="17.65" x="-0.01" y="-17.65" transform="matrix(1 0 0 -1 17.9502 65)" style="overflow:visible;opacity:0.1094;enable-background:new    ;"/>
		
			<use xlink:href="#flash0.ai_x2F_Layer_3_x2F__x3C_Path_x3E__x5F_1_x5F_1"  width="45.753" height="18.972" x="0.087" y="-18.95" transform="matrix(1 0 0 -1 20.0498 71.8496)" style="overflow:visible;opacity:0.1094;enable-background:new    ;"/>
		
			<use xlink:href="#flash0.ai_x2F_Layer_3_x2F__x3C_Path_x3E__x5F_0"  width="22.414" height="7.099" x="0.07" y="-7.075" transform="matrix(1 0 0 -1 30.2002 90.4502)" style="overflow:visible;opacity:0.1094;enable-background:new    ;"/>
		
			<use xlink:href="#flash0.ai_x2F_Layer_3_x2F__x3C_Clip_Group_0_x3E_"  width="83" height="36.912" y="-36.905" transform="matrix(1 0 0 -1 194.25 43.2002)" style="overflow:visible;"/>
	</g>
</g>
</svg>
