<?xml version="1.0" encoding="iso-8859-1"?>
<!-- Generator: Adobe Illustrator 15.1.0, SVG Export Plug-In . SVG Version: 6.00 Build 0)  -->
<!DOCTYPE svg PUBLIC "-//W3C//DTD SVG 1.1//EN" "http://www.w3.org/Graphics/SVG/1.1/DTD/svg11.dtd">
<svg version="1.1" id="Layer_3" xmlns="http://www.w3.org/2000/svg" xmlns:xlink="http://www.w3.org/1999/xlink" x="0px" y="0px"
	 width="225.3px" height="204.85px" viewBox="0 0 225.3 204.85" style="enable-background:new 0 0 225.3 204.85;"
	 xml:space="preserve">
<symbol  id="flash0.ai_x2F_Layer_3_x2F__x3C_Path_x3E_" viewBox="-0.045 -5.915 11.953 5.927">
	<g id="Layer_1_12_">
		<path style="fill-rule:evenodd;clip-rule:evenodd;fill:#0D5069;" d="M8.7-3c-4.233-2.233-7-3.183-8.3-2.85
			c-1.066,0.3-0.217,1.333,2.55,3.1C5.683-0.983,7.8-0.067,9.3,0C12.967,0.133,12.767-0.867,8.7-3z"/>
	</g>
</symbol>
<symbol  id="flash0.ai_x2F_Layer_3_x2F__x3C_Path_x3E__x5F_1" viewBox="-0.05 -3.104 9.476 3.104">
	<g id="Layer_1_11_">
		<path style="fill-rule:evenodd;clip-rule:evenodd;fill:#0D5069;" d="M3.7-0.25c2-0.5,3.6-1.1,4.8-1.8
			C9.7-2.717,9.733-3.067,8.6-3.1C7.5-3.133,6.017-2.933,4.15-2.5C2.45-2.1,1.233-1.7,0.5-1.3c-0.733,0.4-0.733,0.75,0,1.05
			C1.233,0.083,2.3,0.083,3.7-0.25z"/>
	</g>
</symbol>
<symbol  id="flash0.ai_x2F_Layer_3_x2F__x3C_Path_x3E__x5F_12" viewBox="-0.008 -18.545 93.265 18.559">
	<g id="Layer_1_3_">
		<path style="fill-rule:evenodd;clip-rule:evenodd;fill:#0D5069;" d="M87.05-15.75c-4.367,1.833-8.033,3.117-11,3.85
			c-2.8,0.867-4.85,1.467-6.15,1.8c-1.233,0.367-2.133,0.617-2.7,0.75c-1,0.233-1.434,0.117-1.3-0.35
			c0.133-0.2,0.583-0.55,1.35-1.05c0.433-0.433,0.167-0.633-0.8-0.6c-2.9,0.467-4.817,0.717-5.75,0.75c-2.633,0.1-4.6,0.167-5.9,0.2
			c-2.167,0.033-4.583-0.083-7.25-0.35L39.4-11.4c-3.433-0.3-8.183-1.05-14.25-2.25c-1.066-0.367-1.767-0.583-2.1-0.65
			c-0.5-0.1-0.433,0.267,0.2,1.1c0.433,0.534,0.967,1.067,1.6,1.6c0.333,0.333,0.9,0.833,1.7,1.5c-1.133-0.3-3.1-0.7-5.9-1.2
			c-2.467-0.4-4.417-0.85-5.85-1.35c-2.167-0.733-3.85-1.333-5.05-1.8c-2.133-0.767-4.083-1.566-5.85-2.4
			c-0.066-0.033-0.583-0.3-1.55-0.8c-0.633-0.3-1.133-0.5-1.5-0.6c-0.067,0-0.25-0.083-0.55-0.25c-0.133-0.1-0.233-0.033-0.3,0.2
			c-0.033,0.167,0.033,0.433,0.2,0.8c0.3,0.6,1.033,1.4,2.2,2.4c3.533,2.967,5.917,4.883,7.15,5.75c2.333,1.7,4.684,3,7.05,3.9
			C24.667-2.283,32.067-0.5,38.8-0.1c3.333,0.167,7,0.15,11-0.05c0.667-0.033,1.717-0.067,3.15-0.1c1.267-0.1,2.316-0.283,3.15-0.55
			c2.267-0.8,3.767-1.267,4.5-1.4C66.367-3,70.917-3.95,74.25-5.05c3.433-1.1,7.95-3.733,13.55-7.9c3.534-2.633,5.333-4.3,5.4-5
			C93.633-18.383,91.583-17.65,87.05-15.75z"/>
	</g>
</symbol>
<symbol  id="flash0.ai_x2F_Layer_3_x2F__x3C_Path_x3E__x5F_15" viewBox="0 -52.512 158.95 52.485">
	<g id="Layer_1_2_">
		<path style="fill-rule:evenodd;clip-rule:evenodd;fill:#578A73;" d="M127.2-13.65c2.4-3.2,4.966-6.017,7.7-8.45
			c3.133-2.833,7.8-6.267,14-10.3c2.6-1.7,4.434-2.783,5.5-3.25c1.3-0.633,2.167-1.1,2.6-1.4c1.033-0.633,1.683-1.333,1.95-2.1
			c-1.367-0.167-3.2,0.05-5.5,0.65c-3.267,0.8-5.117,1.233-5.55,1.3c-1.133,0.167-1.783,0.133-1.95-0.1
			c-0.167-0.2-0.317-0.817-0.45-1.85c-0.3-1.2-1.233-1.6-2.8-1.2c-1.833,0.733-3.083,1.167-3.75,1.3c-2,0.433-3.167,0.667-3.5,0.7
			c-1.567,0.133-2.55-0.233-2.95-1.1c-0.133-0.333-0.183-1.466-0.15-3.4c0-1.333-0.55-2.133-1.65-2.4
			c-0.8-0.2-1.817-0.083-3.05,0.35c-1.367,0.566-2.333,0.967-2.9,1.2c-1.4,0.667-2.433,1.083-3.1,1.25
			c-1.167,0.267-2.066-0.1-2.7-1.1c-0.2-0.534-0.35-0.9-0.45-1.1c-0.133-0.3-0.433-0.517-0.9-0.65c-0.5-0.133-1.2,0.017-2.1,0.45
			c-1.2,0.6-1.867,0.917-2,0.95c-0.6,0.2-0.95,0.3-1.05,0.3c-0.133-0.033-0.267-0.283-0.4-0.75c-0.1-0.367-0.066-1.017,0.1-1.95
			c0.233-1.2,0.35-1.883,0.35-2.05c0.067-1.566-0.133-2.65-0.6-3.25c-0.533-0.767-1.533-1.05-3-0.85c-2,0.267-4.167,0.983-6.5,2.15
			c-2.633,1.466-4.65,2.566-6.05,3.3c-2.4,1.267-4.383,1.55-5.95,0.85c-0.667-0.3-1.3-1.117-1.9-2.45c-0.567-1.267-1.167-2-1.8-2.2
			c-1.034-0.333-2.434,0.1-4.2,1.3c-0.667,0.433-1.883,1.4-3.65,2.9c-1.367,1.2-2.383,1.9-3.05,2.1
			c-0.966,0.267-2.133-0.017-3.5-0.85c-1.133-0.7-2.083-0.85-2.85-0.45c-0.534,0.233-1.3,0.983-2.3,2.25
			c-0.9,1.1-1.767,1.633-2.6,1.6c-0.767-0.033-1.75-0.55-2.95-1.55c-2.067-1.733-3.7-2.9-4.9-3.5c-2.133-1.033-4.083-1.133-5.85-0.3
			c-0.867,0.4-1.7,1.25-2.5,2.55c-0.967,1.5-1.717,2.467-2.25,2.9c-0.934,0.733-2.35,0.717-4.25-0.05c-1.867-0.733-3.2-0.75-4-0.05
			c-0.4,0.333-0.85,1.083-1.35,2.25c-0.467,1.067-0.983,1.784-1.55,2.15c-1.267,0.9-3.133,0.933-5.6,0.1c-3-1-4.95-1.45-5.85-1.35
			c-0.867,0.066-1.3,0.283-1.3,0.65c0.167,0.566,0.2,1.117,0.1,1.65c-0.133,0.767-0.233,1.183-0.3,1.25
			c-0.133,0.133-0.633,0.267-1.5,0.4c-0.467,0.067-1.05,0.067-1.75,0C17.617-34.95,17.033-35,17-35c-3.6-0.267-6,0.167-7.2,1.3
			c-0.833,0.767-1.133,1.684-0.9,2.75c0.5,1.2,0.783,2.15,0.85,2.85c0.1,1-0.25,1.667-1.05,2c-1.067,0.2-1.867,0.367-2.4,0.5
			c-0.433,0.1-2.533,0.783-6.3,2.05c0.767,0.8,2.433,1.783,5,2.95l1.45,0.65c1.767,0.867,4.917,2.15,9.45,3.85
			c4.033,1.5,7.117,2.867,9.25,4.1c0.833,0.5,3.767,2.667,8.8,6.5c3.433,2.633,6.667,4.283,9.7,4.95
			c4.3,0.933,9.05,0.617,14.25-0.95c2.934-0.867,7.483-2.267,13.65-4.2c2.767-0.566,6.167-1.15,10.2-1.75
			c2.3-0.367,5.683-0.867,10.15-1.5c2.8-0.433,6.55-0.117,11.25,0.95c2.6,0.6,6.35,1.467,11.25,2.6c2.6,0.4,5.033-0.283,7.3-2.05
			C123.2-8.617,125.033-10.683,127.2-13.65z"/>
	</g>
</symbol>
<symbol  id="flash0.ai_x2F_Layer_3_x2F__x3C_Path_x3E__x5F_2" viewBox="-0.095 -3.554 18.031 3.541">
	<g id="Layer_1_10_">
		<path style="fill-rule:evenodd;clip-rule:evenodd;fill:#0D5069;" d="M10.7-0.05c3.1-0.2,5.267-0.684,6.5-1.45
			c1.2-0.767,0.933-1.3-0.8-1.6c-1.9-0.333-4.433-0.483-7.6-0.45c-3.633,0-6.316,0.3-8.05,0.9c-1.7,0.6-0.833,1.233,2.6,1.9
			C6.583-0.15,9.033,0.083,10.7-0.05z"/>
	</g>
</symbol>
<symbol  id="flash0.ai_x2F_Layer_3_x2F__x3C_Path_x3E__x5F_3" viewBox="0 -16.5 79.75 16.5">
	<g id="Layer_1_9_">
		<path style="fill-rule:evenodd;clip-rule:evenodd;fill:#50B497;" d="M72.05-4.95c-0.1,1.267-0.167,2.233-0.2,2.9
			c-0.033,1.2,0.383,1.867,1.25,2c0.9,0.167,2-0.083,3.3-0.75c0.633-0.333,1.184-0.684,1.65-1.05l1.7-1.5
			c-1.467,0.867-2.6,1.083-3.4,0.65c-0.867-0.433-1.2-1.583-1-3.45c0.2-1.967-0.717-2.867-2.75-2.7c-1.5,0.133-3.8,0.9-6.9,2.3
			c-0.867,0.4-1.483-0.4-1.85-2.4c-0.533-2.867-1.45-4.966-2.75-6.3c-1.633-1.667-5.133-1.667-10.5,0
			c-1.8,0.567-5.583,2.067-11.35,4.5c-2.233,0.933-4.767,1.25-7.6,0.95c-1.7-0.2-4.3-0.784-7.8-1.75c-2.2-0.6-4.983-0.017-8.35,1.75
			c-3.467,2.133-5.767,3.483-6.9,4.05c-1.4,0.7-3.25,1.133-5.55,1.3C1.883-4.383,0.867-4.367,0-4.4l2.15,2.45
			c2.8,0.5,5.333,0.034,7.6-1.4c1.333-0.8,3.167-2.3,5.5-4.5c2.1-1.7,3.733-2.7,4.9-3c1.633-0.4,3.8-0.05,6.5,1.05
			c5.067,2.033,11.633,2.017,19.7-0.05c3.1-0.8,5.3-0.533,6.6,0.8c0.767,0.8,1.3,2.333,1.6,4.6c0.434,3.467,4.133,3.7,11.1,0.7
			c2.467-1.067,4.033-1.683,4.7-1.85C71.417-5.867,71.983-5.65,72.05-4.95z"/>
	</g>
</symbol>
<symbol  id="flash0.ai_x2F_Layer_3_x2F__x3C_Path_x3E__x5F_4" viewBox="0 -11.176 58.55 11.176">
	<g id="Layer_1_8_">
		<path style="fill-rule:evenodd;clip-rule:evenodd;fill:#50B497;" d="M49.3-8.85c-0.267,0-3.283,0.533-9.05,1.6
			c-4.667,0.867-7.65,0.933-8.95,0.2c-2.133-1.733-3.933-2.9-5.4-3.5c-2.6-1.1-5.6-0.75-9,1.05c-1.566,0.833-3.183,1.917-4.85,3.25
			c-2,1.6-3.15,2.5-3.45,2.7C6.333-2.083,3.467-2.133,0-3.7l2.8,3.2c0.567,0.167,1.25,0.3,2.05,0.4C6.483,0.1,7.917,0,9.15-0.4
			c1-0.333,3.05-1.367,6.15-3.1c3.067-1.3,5.6-1.383,7.6-0.25c2.4,1.333,4.367,2,5.9,2c1.4,0,3.534-0.617,6.4-1.85
			c4.133-1.8,7.566-2.95,10.3-3.45c4.033-0.733,6,0.083,5.9,2.45c-0.1,2.333,0.417,3.583,1.55,3.75c0.6,0.067,1.583-0.283,2.95-1.05
			l2.65-2.25c-0.733,0.433-1.5,0.8-2.3,1.1c-1.633,0.6-2.6,0.6-2.9,0C53.017-4.517,52.7-5.667,52.4-6.5
			C51.8-8.067,50.767-8.85,49.3-8.85z"/>
	</g>
</symbol>
<symbol  id="flash0.ai_x2F_Layer_3_x2F__x3C_Path_x3E__x5F_5" viewBox="0 -10.104 43.1 10.08">
	<g id="Layer_1_7_">
		<path style="fill-rule:evenodd;clip-rule:evenodd;fill:#50B497;" d="M21.05-1.05c1.367-0.7,3.417-1.883,6.15-3.55
			c2.267-1.233,3.933-1.566,5-1c1.7,0.9,2.833,2,3.4,3.3c3.4-1.633,5.9-3.1,7.5-4.4c-1.067,0.534-2,0.667-2.8,0.4
			c-0.667-0.167-2.083-0.917-4.25-2.25c-1.5-0.967-2.85-1.483-4.05-1.55c-1.967-0.066-4.483,0.733-7.55,2.4
			c-2.3,1.434-4.133,2.483-5.5,3.15c-2.4,1.167-4.833,1.716-7.3,1.65C8.517-2.967,5.633-3.517,3-4.55C1.7-5.083,0.7-5.6,0-6.1
			c1.333,1.167,2.933,2.283,4.8,3.35c2.7,1.333,5.534,2.183,8.5,2.55C16.467,0.2,19.05-0.083,21.05-1.05z"/>
	</g>
</symbol>
<symbol  id="flash0.ai_x2F_Layer_3_x2F__x3C_Path_x3E__x5F_6" viewBox="-0.006 -4.515 13.211 4.542">
	<g id="Layer_1_6_">
		<path style="fill-rule:evenodd;clip-rule:evenodd;fill:#50B497;" d="M8.45,0l0.4-0.05c0.933-0.133,1.833-0.4,2.7-0.8
			c1.167-0.533,1.717-1.183,1.65-1.95C13.1-4.167,11.367-4.717,8-4.45C6.967-4.383,5.867-4.1,4.7-3.6C3.367-3,2.317-2.533,1.55-2.2
			C-0.017-1.533-0.4-1,0.4-0.6c0.267,0.133,0.717,0.167,1.35,0.1C2.483-0.6,2.967-0.617,3.2-0.55C5.5-0.083,7.25,0.1,8.45,0z"/>
	</g>
</symbol>
<symbol  id="flash0.ai_x2F_Layer_3_x2F__x3C_Path_x3E__x5F_7" viewBox="-0.009 -3.508 8.16 3.518">
	<g id="Layer_1_5_">
		<path style="fill-rule:evenodd;clip-rule:evenodd;fill:#50B497;" d="M4.35-0.05c2.566-0.167,3.833-0.833,3.8-2
			C8.117-3.217,6.733-3.683,4-3.45C1.2-3.217-0.133-2.533,0-1.4S1.583,0.183,4.35-0.05z"/>
	</g>
</symbol>
<symbol  id="flash0.ai_x2F_Layer_3_x2F__x3C_Path_x3E__x5F_9" viewBox="0 -35.538 133.42 35.496">
	<g id="Layer_1_4_">
		<path style="fill-rule:evenodd;clip-rule:evenodd;fill:#9C3030;" d="M129.5-17.4c2.8-1.267,4.1-2.2,3.9-2.8
			c-0.1-0.267-0.533-0.35-1.3-0.25c-0.934,0.1-1.434,0.133-1.5,0.1c-0.733-0.2-0.95-0.75-0.65-1.65c0.267-1,0.133-1.667-0.4-2
			c-0.5-0.3-0.433-1.067,0.2-2.3c0.633-1.167,0.9-1.767,0.8-1.8c-1.333,1.1-2.483,2.133-3.45,3.1c0.433-0.667,0.483-1.267,0.15-1.8
			c-0.3-0.534-1.017-0.434-2.15,0.3c-1.233,0.833-2.017,1.15-2.35,0.95c-0.267-0.167-0.417-0.867-0.45-2.1
			c0-0.667-0.017-1.467-0.05-2.4c-0.167-1.267-0.467-2.034-0.9-2.3c-0.267-0.2-0.6-0.267-1-0.2c-0.434,0.1-0.783,0.15-1.05,0.15
			c-0.566,0-1.05-0.383-1.45-1.15c-0.4-0.833-0.934-1.267-1.6-1.3c-1.4-0.1-3.133,0.7-5.2,2.4c-2.3,1.867-4,2.883-5.1,3.05
			c-1.233,0.167-2-0.617-2.3-2.35c-0.333-1.867-0.983-2.883-1.95-3.05c-1.1-0.167-2.45,0.083-4.05,0.75
			c-0.533,0.233-1.767,0.883-3.7,1.95c-2.2,1.367-3.883,2.4-5.05,3.1c-2.1,1.233-3.917,1.917-5.45,2.05
			c-0.733,0.067-1.233-0.25-1.5-0.95c-0.333-0.733-0.833-1.133-1.5-1.2c-1.133,0.133-1.9,0.2-2.3,0.2
			c-0.633,0.033-1.133-0.417-1.5-1.35c-0.733-1.867-1.467-3.05-2.2-3.55c-0.633-0.367-1.817-0.6-3.55-0.7
			c-3.066-0.167-5.933,0.517-8.6,2.05c-1.133,0.5-1.966,0.9-2.5,1.2c-0.933,0.733-1.667,1.217-2.2,1.45
			c-0.833,0.367-1.3,0.216-1.4-0.45c-0.067-0.367-0.083-1.017-0.05-1.95c-0.167-1.333-0.9-2.3-2.2-2.9
			c-1.267-0.566-2.5-0.583-3.7-0.05c-1.733,0.733-3.583,2.083-5.55,4.05c-0.767-0.8-1.534-0.833-2.3-0.1
			c-0.2,0.2-0.717,0.95-1.55,2.25c-0.333,0.467-0.617,0.767-0.85,0.9c-0.267,0.133-0.65,0.133-1.15,0c-0.8-0.233-1.783-0.7-2.95-1.4
			c-1.7-1.033-2.65-1.6-2.85-1.7c-1.6-0.8-3.117-1.167-4.55-1.1c-1.767,0.067-3.05,0.817-3.85,2.25c-0.2,0.5-0.35,0.85-0.45,1.05
			c-0.2,0.4-0.45,0.667-0.75,0.8c-0.467,0.2-1.233,0.117-2.3-0.25c-2.633-1.267-4.833-2.167-6.6-2.7c-3.3-1.066-5.25-0.667-5.85,1.2
			c-0.2,0.566-0.2,1.267,0,2.1c0.033,0.267,0.233,0.983,0.6,2.15c0.3,0.967,0.45,1.633,0.45,2C9.683-23.017,9.233-22.7,8.4-22.7
			c-1.1-0.133-1.967-0.216-2.6-0.25c-1.167-0.066-1.867,0.217-2.1,0.85c-0.067,0.133-0.1,0.317-0.1,0.55
			c0.167,0.5,0.233,0.883,0.2,1.15c-0.1,0.933-0.55,1.533-1.35,1.8c-1.6,0.033-2.417,0.017-2.45-0.05
			c0.533,0.7,1.967,1.316,4.3,1.85c3.1,0.667,6.184,1.716,9.25,3.15c1.1,0.533,2.767,0.7,5,0.5c2.633-0.267,4.333-0.333,5.1-0.2
			c4.867,0.733,13.583,3.267,26.15,7.6c10.733,3.7,19.583,5.6,26.55,5.7c3.6,0.033,6.25-0.034,7.95-0.2
			c3.133-0.267,5.667-0.917,7.6-1.95c1.467-0.767,3.65-1.883,6.55-3.35c2.4-1.367,4.283-2.883,5.65-4.55
			c1.7-2.033,3.75-3.733,6.15-5.1c0.833-0.433,1.95-0.767,3.35-1c0.8-0.1,1.983-0.233,3.55-0.4c1.567-0.267,3.667-0.183,6.3,0.25
			C125.383-16.083,127.4-16.433,129.5-17.4z"/>
	</g>
</symbol>
<g>
	
		<linearGradient id="SVGID_1_" gradientUnits="userSpaceOnUse" x1="10.3174" y1="-145.8428" x2="75.609" y2="-145.8428" gradientTransform="matrix(-0.0597 0.9982 -0.9982 -0.0597 8.752346e-004 5.447492e-005)">
		<stop  offset="0" style="stop-color:#3D3D73"/>
		<stop  offset="0.0667" style="stop-color:#3C457D"/>
		<stop  offset="0.1843" style="stop-color:#385996"/>
		<stop  offset="0.1922" style="stop-color:#385B99"/>
		<stop  offset="0.3059" style="stop-color:#40659C"/>
		<stop  offset="0.4941" style="stop-color:#567EA6"/>
		<stop  offset="0.7333" style="stop-color:#79A9B5"/>
		<stop  offset="1" style="stop-color:#A6DFC9"/>
	</linearGradient>
	<path style="fill-rule:evenodd;clip-rule:evenodd;fill:url(#SVGID_1_);" d="M189.95,44.55c1.666,1.267,3.733,3.55,6.2,6.85
		c5.399,7.267,12.55,13.5,21.449,18.7c2.567,1.467,4.65,2.816,6.25,4.05c0.867,0.667,1.351,1.2,1.45,1.6
		c0.134,0.533-0.316,0.933-1.35,1.2c-1.033,0.3-2.533,0.35-4.5,0.15c-2.2-0.3-3.717-0.5-4.55-0.6c-2.4-0.233-3.784,0.3-4.15,1.6
		c-0.2,0.7,0.033,1.633,0.7,2.8c0.8,1.367,1.217,2.267,1.25,2.7c0.3,2.2-1.717,3-6.05,2.4c-4.767-1.067-7.551-1.65-8.351-1.75
		c-2.2-0.5-3.934-0.85-5.2-1.05c-2.3-0.367-4-0.184-5.1,0.55c-0.934,0.633-1.233,1.6-0.9,2.9c0.434,1.733,0.584,2.817,0.45,3.25
		c-0.399,1.467-1.783,2.317-4.149,2.55c-1.834,0.167-3.634,0-5.4-0.5c-1.8-0.767-3.267-1.333-4.4-1.7
		c-2.133-0.667-3.483-0.467-4.05,0.6c-0.1,0.167-0.166,0.85-0.2,2.05c0,0.567-0.55,0.767-1.649,0.6c-0.967-0.167-2.117-0.833-3.45-2
		c-1.733-1.567-2.783-2.45-3.15-2.65c-1.666-0.967-2.666-0.667-3,0.9c-0.666,2.9-1.017,4.383-1.05,4.45
		c-1.399,2.066-3.316,2.5-5.75,1.3c-0.5-0.267-2.416-1.667-5.75-4.2c-0.767-0.566-1.85-1.5-3.25-2.8
		c-1.399-1.3-2.483-2.233-3.25-2.8c-3.934-3-7.649-3.684-11.149-2.05c-1.801,0.867-4.034,1.65-6.7,2.35
		c-3.134,0.733-5.467,1.283-7,1.65c-4.167,0.867-6.55,0.65-7.15-0.65c-0.133-0.333,0.583-1.817,2.15-4.45
		c1.167-1.966,0.55-3.017-1.85-3.15c-0.7-0.033-2.767,0.333-6.2,1.1c-2.7,0.567-4.733,0.517-6.1-0.15
		c-0.667-0.333-0.966-0.6-0.9-0.8c0.233-0.267,0.4-0.583,0.5-0.95c0.067-0.167,0.367-0.5,0.9-1c0.4-0.5,0.417-0.934,0.05-1.3
		c-0.133-0.133-0.833-0.033-2.1,0.3c-1.3,0.367-2.05,0.566-2.25,0.6c-2.7,0.367-4.617,0.517-5.75,0.45c-1.633-0.1-2.7-0.2-3.2-0.3
		c-1.367-0.3-2.2-0.883-2.5-1.75c-0.233-0.667-0.133-1.25,0.3-1.75c0.233-0.3,0.683-0.75,1.35-1.35
		c-0.567-0.367-1.717-0.617-3.45-0.75c-2.133-0.067-3.717-0.15-4.75-0.25c-3.867-0.433-5.45-1.967-4.75-4.6
		c0.3-0.6,0.517-1.05,0.65-1.35c0.267-0.533,0.283-1.017,0.05-1.45c-0.133-0.3-0.5-0.583-1.1-0.85c-0.7-0.267-1.167-0.45-1.4-0.55
		c-3.8-1.167-6.25-2.217-7.35-3.15c-0.467-0.433-0.617-0.85-0.45-1.25c0.133-0.267,0.9-0.583,2.3-0.95
		c0.733-0.2,1.633-0.434,2.7-0.7c1.5-0.533,3.75-1.4,6.75-2.6c1.233-0.466,3.1-1.183,5.6-2.15c2.167-0.867,3.967-1.717,5.4-2.55
		c1.033-0.567,4.317-2.95,9.85-7.15c3.833-2.9,7.45-4.717,10.85-5.45c4.833-1.033,10.167-0.683,16,1.05
		c0.534,0.167,3.017,0.983,7.45,2.45c3.066,1.033,5.7,1.783,7.9,2.25c3,0.6,6.8,1.25,11.399,1.95c2.601,0.4,6.4,0.966,11.4,1.7
		c3.167,0.467,7.384,0.117,12.65-1.05c2.866-0.633,7.066-1.583,12.6-2.85C184.65,41.817,187.384,42.583,189.95,44.55z"/>
	
		<use xlink:href="#flash0.ai_x2F_Layer_3_x2F__x3C_Path_x3E__x5F_15"  width="158.95" height="52.485" y="-52.512" transform="matrix(1 0 0 -1 63.9502 35.3999)" style="overflow:visible;opacity:0.1992;enable-background:new    ;"/>
	
		<linearGradient id="SVGID_2_" gradientUnits="userSpaceOnUse" x1="15.2554" y1="-137.3057" x2="51.7633" y2="-137.3057" gradientTransform="matrix(0.0425 0.9991 -0.9991 0.0425 1.044273e-004 4.008077e-004)">
		<stop  offset="0" style="stop-color:#3D3D73"/>
		<stop  offset="0.0667" style="stop-color:#3C457D"/>
		<stop  offset="0.1843" style="stop-color:#385996"/>
		<stop  offset="0.1922" style="stop-color:#385B99"/>
		<stop  offset="0.3059" style="stop-color:#40659C"/>
		<stop  offset="0.4941" style="stop-color:#567EA6"/>
		<stop  offset="0.7333" style="stop-color:#79A9B5"/>
		<stop  offset="1" style="stop-color:#A6DFC9"/>
	</linearGradient>
	<path style="fill-rule:evenodd;clip-rule:evenodd;fill:url(#SVGID_2_);" d="M199.35,46.4c0.934,0.467,2.167,1.217,3.7,2.25
		c0.101,0.067,0.917,0.35,2.45,0.85c1.1,0.367,1.634,0.817,1.6,1.35c-1.267,0.733-1.933,1.7-2,2.9c-0.066,0.667,0.15,1.75,0.65,3.25
		c0.233,0.833,0.25,1.567,0.05,2.2c-0.233,0.733-0.733,1.2-1.5,1.4c-0.3,0.1-0.616,0.1-0.95,0c-0.233-0.033-0.517,0.066-0.85,0.3
		c-0.033,0.033-0.233,0.317-0.6,0.85c-0.233,0.367-0.534,0.483-0.9,0.35s-0.634-0.517-0.8-1.15c-0.267-0.934-0.4-1.417-0.4-1.45
		c-1.233,0.333-2.916,0.45-5.05,0.35c-2.467-0.1-4.167-0.083-5.1,0.05c-1.4,0.233-2.45,0.383-3.15,0.45
		c-1.134,0.133-2.184,0.15-3.15,0.05c-1.966-0.233-4.366-0.967-7.199-2.2c-3.667-1.6-6.017-2.55-7.051-2.85
		c-3.166-0.967-6.616-1.067-10.35-0.3c-2.566,0.534-5.866,1.667-9.9,3.4c-6.666,2.9-11.25,4.8-13.75,5.7
		c-5.233,1.934-10.033,3.184-14.399,3.75c-7.934,1.1-14.367-0.5-19.3-4.8c-2.133-1.833-4.05-3.25-5.75-4.25
		c-2.066-1.2-4.25-2.083-6.55-2.65c-3.033-0.733-7-1.25-11.9-1.55c-0.867,0-1.55-0.017-2.05-0.05c-0.867-0.1-1.45-0.35-1.75-0.75
		c-0.133-0.2,0.517-0.75,1.95-1.65c1.333-0.833,1.917-1.25,1.75-1.25c-1.9,0-3.283-0.184-4.15-0.55
		c-0.733-0.333-1.034-0.717-0.9-1.15c0.133-0.733,1.233-1.783,3.3-3.15c1.066-0.7,2.417-1.567,4.05-2.6c0.3-0.233,1.667-1.2,4.1-2.9
		c1.667-1.167,3.017-2.15,4.05-2.95c1.6-1.233,4-3.2,7.2-5.9c2.9-2.133,5.65-3.5,8.25-4.1c4.2-0.967,8.817-0.683,13.85,0.85
		c2.834,0.867,7.25,2.25,13.25,4.15c2.7,0.567,5.983,1.15,9.851,1.75c2.2,0.333,5.467,0.817,9.8,1.45
		c2.733,0.433,6.384,0.083,10.95-1.05c2.533-0.6,6.184-1.5,10.95-2.7c3.267-0.533,6.366,0.95,9.3,4.45c0.8,0.934,2,2.367,3.6,4.3
		c1.434,1.533,2.867,2.583,4.3,3.15c0.9,0.367,1.95,0.633,3.15,0.8c0.733,0.1,1.816,0.217,3.25,0.35
		C196.583,45.317,197.95,45.733,199.35,46.4z"/>
	
		<linearGradient id="SVGID_3_" gradientUnits="userSpaceOnUse" x1="-78.7412" y1="132.0039" x2="-51.5144" y2="132.0039" gradientTransform="matrix(0.0964 -0.9953 0.9953 0.0964 3.776550e-004 -1.269653e-004)">
		<stop  offset="0" style="stop-color:#242224"/>
		<stop  offset="0.2" style="stop-color:#25282E"/>
		<stop  offset="0.5412" style="stop-color:#293849"/>
		<stop  offset="0.9804" style="stop-color:#2E5274"/>
		<stop  offset="0.9882" style="stop-color:#2E5275"/>
	</linearGradient>
	<path style="fill-rule:evenodd;clip-rule:evenodd;fill:url(#SVGID_3_);" d="M120,86.15c-2.2-2.767-3.566-6.8-4.1-12.1
		c-0.367-3.9-0.284-7.35,0.25-10.35c0.3-1.633,1-2.284,2.1-1.95c0.566,0.2,1.1,0.55,1.6,1.05l-0.899,6.15
		c-0.134,4.8,0.899,8.966,3.1,12.5c1.967,3.133,4,4.433,6.101,3.9c2.267-0.567,4.199-3.217,5.8-7.95l0.95,4.1
		c0.267,3-0.467,5.267-2.2,6.8c-2.167,1.9-4.517,2.517-7.05,1.85C123.517,89.55,121.634,88.217,120,86.15z"/>
	
		<use xlink:href="#flash0.ai_x2F_Layer_3_x2F__x3C_Path_x3E__x5F_12"  width="93.265" height="18.559" x="-0.008" y="-18.545" transform="matrix(1 0 0 -1 0 186.1504)" style="overflow:visible;opacity:0.4688;enable-background:new    ;"/>
	
		<linearGradient id="SVGID_4_" gradientUnits="userSpaceOnUse" x1="-4.1875" y1="-139.7222" x2="155.9612" y2="-139.7222" gradientTransform="matrix(-0.6304 0.7763 -0.7763 -0.6304 -2.825856e-004 2.664328e-005)">
		<stop  offset="0" style="stop-color:#242224"/>
		<stop  offset="0.1333" style="stop-color:#26282E"/>
		<stop  offset="0.3647" style="stop-color:#2D3649"/>
		<stop  offset="0.5137" style="stop-color:#32425E"/>
		<stop  offset="1" style="stop-color:#617D84"/>
	</linearGradient>
	<path style="fill-rule:evenodd;clip-rule:evenodd;fill:url(#SVGID_4_);" d="M152.55,71.25c0.101,2.367-0.066,5.167-0.5,8.4
		c-0.1,0.867-0.517,3.633-1.25,8.3c-0.967,6.1-1.883,10.466-2.75,13.1c-1.7,5.033-3.934,7.717-6.7,8.05
		c-2.333,0.301-4.199-0.383-5.6-2.05l-1.4-2.6l-0.85,4.3c-0.767,3.566-1.75,7.1-2.95,10.6c-3.767,11.134-8.75,19.717-14.95,25.75
		c-7.033,6.801-13.899,8.184-20.6,4.15c-5.967-3.566-10.917-10.7-14.85-21.4c-3.1-8.366-5.633-17.267-7.6-26.7
		c-1.267-6.167-2.167-9.083-2.7-8.75l-0.7,2c-0.566,2.033-1.033,4.733-1.4,8.1c-1.233,10.8-1.417,26.384-0.55,46.75l0.7,17.4
		c0.067,1.833,0.133,4.616,0.2,8.35c0.167,3.267,0.633,6,1.4,8.2c1.133,3.233,2.667,5.566,4.6,7c0.5,0.366,2.816,1.866,6.95,4.5
		c3.467,2.233,5.434,3.633,5.9,4.2c0.466,0.6-0.817,0.416-3.85-0.551c-3.467-1.199-5.55-1.916-6.25-2.149
		c-4.833-1.7-9.684-2.867-14.55-3.5c-3.633-0.467-8.5-0.384-14.6,0.25c-6.267,0.7-10.917,1.434-13.95,2.2
		c-1.767,0.6-2.867,0.883-3.3,0.85c-1-0.434-0.267-1.267,2.2-2.5c1.067-0.533,2.934-1.333,5.6-2.4c-2,0.067-4,0.217-6,0.45
		c-9.333,1.3-16.583,3.066-21.75,5.3c-1.133,0.5-2.2,1-3.2,1.5c-0.4,0.2-0.583,0.067-0.55-0.399c0.4-0.601,1.067-1.267,2-2
		c1.1-0.767,1.867-1.334,2.3-1.7c0.5-0.366,2.2-1.467,5.1-3.3c2.033-1.3,3.6-2.55,4.7-3.75c2.433-2.733,4.367-8.117,5.8-16.15
		c3.934-22.666,6.917-39.666,8.95-51c4.267-24.167,10.267-40.5,18-49c6.5-7.133,13.717-8.35,21.65-3.65c4.9,2.9,8.8,9.633,11.7,20.2
		c1,3.6,2,8.1,3,13.5c0.533,2.966,1.267,7.016,2.2,12.15c1.434,7.3,3.45,12.917,6.05,16.85c2.733,4.2,5.75,5.917,9.05,5.15
		c4.9-1.1,9.417-5.583,13.55-13.45c2.967-5.633,5.55-12.583,7.75-20.85c2.167-8.2,4.3-19.9,6.4-35.1L140,65.3l-1.45,9.85
		c-1.066,7.333-1.816,12.867-2.25,16.6c-0.5,4.1-0.083,7.233,1.25,9.4c1.167,1.933,2.483,2.55,3.95,1.85c1.1-0.533,2.1-1.883,3-4.05
		c0.8-2.034,1.134-3.717,1-5.05c-0.033-0.5-0.267-1.117-0.7-1.85c-0.633-1.1-0.983-1.716-1.05-1.85c-0.7-1.667-1.134-3.383-1.3-5.15
		c-0.134-1.367-0.15-3.083-0.05-5.15c0.1-2.2,0.267-4.133,0.5-5.8c0.133-1.133,0.366-2.267,0.699-3.4c0.4-1.567,0.7-1.85,0.9-0.85
		c0.134,0.566,0.083,1.883-0.15,3.95c-0.3,2.6-0.449,4.517-0.449,5.75c-0.067,2.6,0.066,4.5,0.399,5.7
		c0.367,1.2,0.684,2.067,0.95,2.6c0.366,0.767,0.9,1.417,1.6,1.95c1.267-5.933,2-12.216,2.2-18.85
		C150.783,71.183,151.95,71.283,152.55,71.25z"/>
	<g>
		
			<linearGradient id="SVGID_5_" gradientUnits="userSpaceOnUse" x1="-72.2466" y1="157.291" x2="-46.0793" y2="157.291" gradientTransform="matrix(0.149 -0.9888 0.9888 0.149 2.774596e-004 0)">
			<stop  offset="0" style="stop-color:#242224"/>
			<stop  offset="0.2" style="stop-color:#25282E"/>
			<stop  offset="0.5412" style="stop-color:#293849"/>
			<stop  offset="0.9804" style="stop-color:#2E5274"/>
			<stop  offset="0.9882" style="stop-color:#2E5275"/>
		</linearGradient>
		<path style="fill-rule:evenodd;clip-rule:evenodd;fill:url(#SVGID_5_);" d="M142.9,74.1c0.133-1.133,0.366-2.267,0.699-3.4
			c0.4-1.567,0.7-1.85,0.9-0.85c0.134,0.566,0.083,1.883-0.15,3.95c-0.3,2.6-0.449,4.517-0.449,5.75c-0.067,2.6,0.066,4.5,0.399,5.7
			c0.367,1.2,0.684,2.067,0.95,2.6c0.366,0.767,0.9,1.417,1.6,1.95c1.267-5.933,2-12.216,2.2-18.85c1.733,0.233,2.9,0.333,3.5,0.3
			c0.101,2.367-0.066,5.167-0.5,8.4c-0.1,0.867-0.517,3.633-1.25,8.3c-0.833,5.533-1.7,9.733-2.6,12.6l-4.15-0.65
			c0.5-1.033,0.884-2.1,1.15-3.2c0.267-1.133,0.366-2.067,0.3-2.8c-0.033-0.5-0.267-1.117-0.7-1.85
			c-0.633-1.1-0.983-1.716-1.05-1.85c-0.7-1.667-1.134-3.383-1.3-5.15c-0.134-1.367-0.15-3.083-0.05-5.15
			C142.5,77.7,142.667,75.767,142.9,74.1z"/>
		
			<linearGradient id="SVGID_6_" gradientUnits="userSpaceOnUse" x1="-72.2695" y1="146.0938" x2="-46.1023" y2="146.0938" gradientTransform="matrix(0.149 -0.9888 0.9888 0.149 2.774596e-004 0)">
			<stop  offset="0" style="stop-color:#242224"/>
			<stop  offset="0.2" style="stop-color:#25282E"/>
			<stop  offset="0.5412" style="stop-color:#293849"/>
			<stop  offset="0.9804" style="stop-color:#2E5274"/>
			<stop  offset="0.9882" style="stop-color:#2E5275"/>
		</linearGradient>
		<path style="fill-rule:evenodd;clip-rule:evenodd;fill:url(#SVGID_6_);" d="M140,65.3l-1.45,9.85
			c-1.066,7.333-1.816,12.867-2.25,16.6c-0.333,2.7-0.25,5.017,0.25,6.95l-7.2-1.1c1.967-8.467,3.834-19.05,5.601-31.75L140,65.3z"
			/>
	</g>
	
		<linearGradient id="SVGID_7_" gradientUnits="userSpaceOnUse" x1="7.2529" y1="-148.9717" x2="96.0539" y2="-148.9717" gradientTransform="matrix(-0.134 0.991 -0.991 -0.134 -7.439852e-004 1.217872e-004)">
		<stop  offset="0" style="stop-color:#3D3D73"/>
		<stop  offset="0.1255" style="stop-color:#3C457D"/>
		<stop  offset="0.3333" style="stop-color:#385996"/>
		<stop  offset="0.3529" style="stop-color:#385B99"/>
		<stop  offset="0.4431" style="stop-color:#40659C"/>
		<stop  offset="0.5922" style="stop-color:#567EA6"/>
		<stop  offset="0.7882" style="stop-color:#79A9B5"/>
		<stop  offset="1" style="stop-color:#A6DFC9"/>
	</linearGradient>
	<path style="fill-rule:evenodd;clip-rule:evenodd;fill:url(#SVGID_7_);" d="M190.95,71.3c-0.4,0.167-0.634,0.717-0.7,1.65
		c-0.066,1.133-0.184,1.816-0.35,2.05c-0.5,0.8-1.4,1.133-2.7,1c-0.134,0-1.184-0.233-3.15-0.7c-2.767-0.733-5.666-2.167-8.7-4.3
		c-1.3-1.033-2.433-1.85-3.399-2.45c-1.8-1.133-3.05-1.433-3.75-0.9c-0.533,0.4-0.667,1.233-0.4,2.5
		c0.101,0.5,0.384,1.383,0.851,2.65c0.133,0.4,0.533,1.383,1.199,2.95c0.534,1.5,0.534,2.467,0,2.9c-0.566,0.467-1.433,0.4-2.6-0.2
		c-0.866-0.434-1.634-0.983-2.3-1.65c-0.634-0.966-1.15-1.733-1.55-2.3c-0.7-1.033-1.367-1.55-2-1.55c-0.767,0-1.417,0.7-1.95,2.1
		c-0.566,1.5-1.3,2.333-2.2,2.5c-1.467,0.3-3.384-0.15-5.75-1.35c-0.566-0.3-2.3-1.367-5.2-3.2c-1.866-1.533-3.3-2.717-4.3-3.55
		c-1.833-1.5-3.45-2.284-4.85-2.35c-0.867-0.033-1.517,0.2-1.95,0.7c-0.033,0.034-0.384,0.667-1.05,1.9
		c-0.5,0.933-1.134,1.683-1.9,2.25c-0.9,0.667-1.833,0.983-2.8,0.95c-1.533,0-3-0.667-4.4-2c-0.666-0.767-1.184-1.283-1.55-1.55
		c-0.566-0.467-1.25-0.667-2.05-0.6s-1.7,0.5-2.7,1.3c-1.1,0.934-1.917,1.583-2.45,1.95c-2.3,1.6-4.716,2.15-7.25,1.65
		c-0.966-0.2-1.667-0.566-2.1-1.1c-0.434-0.767-0.883-1.4-1.35-1.9c-0.533-0.633-1.15-0.85-1.85-0.65
		c-1.033,0.3-1.683,0.433-1.95,0.4c-0.5-0.066-0.933-0.433-1.3-1.1c-0.333-0.6-0.883-0.9-1.65-0.9
		c-0.833-0.033-1.95,0.184-3.35,0.65c-1.667,0.534-2.783,0.85-3.35,0.95c-3.967,0.633-7.35,0.217-10.15-1.25
		c-1.133-0.633-1.983-1.567-2.55-2.8c-0.133-0.267-0.217-0.75-0.25-1.45c-0.033-0.827,0.117-1.227,0.45-1.2
		c-2.7-0.268-3.966-1.335-3.8-3.2c-0.8-0.4-4.033-0.583-9.7-0.55c-4.833,0.034-7.267-0.55-7.3-1.75c0.967-0.5,2.183-1.017,3.65-1.55
		c0.833-0.333,2.05-0.8,3.65-1.4l2.1-0.95c0.467-0.233,3.283-1.833,8.45-4.8c3.4-2,6.333-3.35,8.8-4.05
		c1.233-0.367,2.867-0.45,4.9-0.25c2.267,0.2,3.9,0.217,4.9,0.05c4.867-0.733,13.567-3.267,26.101-7.6
		c10.767-3.7,19.633-5.6,26.6-5.7c8.7-0.133,16.934,1.5,24.7,4.9c6.7,2.933,13.783,7.517,21.25,13.75
		c3.033,2.533,7.55,6.417,13.55,11.65c5.333,4.5,10.083,8.05,14.25,10.65c0.167,0.1,0.583,0.333,1.25,0.7
		c0.634,0.367,0.95,0.667,0.95,0.9c0.033,1.267-1.783,1.15-5.45-0.35c-3.8-1.8-5.816-2.75-6.05-2.85
		c-1.134-0.467-2.101-0.717-2.9-0.75c-1.166-0.033-1.633,0.517-1.399,1.65c0.199,0.967,0.916,2,2.149,3.1c0.7,0.633,1.7,1.467,3,2.5
		c0.3,0.267,1.033,0.85,2.2,1.75c0.9,0.867,1.083,1.567,0.55,2.1c-0.8,0.8-2.733,0.75-5.8-0.15c-4.833-1.5-9.533-3.733-14.1-6.7
		c-0.967-0.8-1.801-1.467-2.5-2C192.35,71.433,191.45,71.067,190.95,71.3z"/>
	
		<use xlink:href="#flash0.ai_x2F_Layer_3_x2F__x3C_Path_x3E__x5F_9"  width="133.42" height="35.496" y="-35.538" transform="matrix(1 0 0 -1 73.0498 30.3501)" style="overflow:visible;opacity:0.1016;enable-background:new    ;"/>
	
		<linearGradient id="SVGID_8_" gradientUnits="userSpaceOnUse" x1="-81.8555" y1="136.2158" x2="22.9187" y2="136.2158" gradientTransform="matrix(-0.0654 -0.9979 0.9979 -0.0654 -4.941225e-005 -5.526319e-004)">
		<stop  offset="0" style="stop-color:#3D3D73"/>
		<stop  offset="0.1255" style="stop-color:#3C457D"/>
		<stop  offset="0.3333" style="stop-color:#385996"/>
		<stop  offset="0.3529" style="stop-color:#385B99"/>
		<stop  offset="0.4431" style="stop-color:#40659C"/>
		<stop  offset="0.5922" style="stop-color:#567EA6"/>
		<stop  offset="0.7882" style="stop-color:#79A9B5"/>
		<stop  offset="1" style="stop-color:#A6DFC9"/>
	</linearGradient>
	<path style="fill-rule:evenodd;clip-rule:evenodd;fill:url(#SVGID_8_);" d="M198.2,45.1c0.533,0.333,2.666,1.383,6.399,3.15
		c2.101,1,3,1.817,2.7,2.45c-0.267,0.133-1.55-0.067-3.85-0.6c-2.033-0.467-3-0.434-2.9,0.1c0.033,0.066,0.384,0.55,1.05,1.45
		c0.5,0.667,0.667,1.15,0.5,1.45c-0.199,0.333-0.816,0.433-1.85,0.3c-1.1-0.233-1.767-0.367-2-0.4c-1.366-0.3-2.417-0.517-3.15-0.65
		c-1.3-0.233-2.333-0.184-3.1,0.15c-0.866,0.433-1.434,1.383-1.7,2.85c-0.267,1.6-0.733,2.633-1.399,3.1
		C187.3,59.583,185,59.433,182,58c-3.2-1.933-5.35-3.133-6.45-3.6c-1.3-0.533-2.083-0.617-2.35-0.25c-0.033,0.067-0.167,0.9-0.4,2.5
		c-0.399,2.733-1.866,4-4.399,3.8c-1.134-0.067-2.584-0.5-4.351-1.3c-2.767-1.267-4.166-1.9-4.2-1.9c-1.366-0.6-2.466-1.033-3.3-1.3
		c-1.5-0.5-2.633-0.6-3.399-0.3c-0.334,0.133-0.95,0.617-1.851,1.45c-0.5,0.433-1.25,0.5-2.25,0.2c-0.934-0.4-1.583-0.65-1.95-0.75
		c-0.566-0.133-1.149,0.1-1.75,0.7c-0.3,0.333-0.699,1.05-1.199,2.15c-0.4,0.9-0.934,1.55-1.601,1.95c-1.7,1-3.767,1.017-6.2,0.05
		c-2.433-0.967-4.566-2.417-6.399-4.35c-0.733-1-1.334-1.733-1.8-2.2c-0.801-0.9-1.601-1.283-2.4-1.15
		c-1.033,0.167-2.083,1.367-3.15,3.6c-0.966,2-2.267,2.883-3.899,2.65c-0.934-0.133-1.7-0.6-2.3-1.4c-0.834-1.133-1.4-1.8-1.7-2
		c-0.566-0.4-1.167-0.55-1.8-0.45c-1.101,0.133-1.75,0.2-1.95,0.2c-1.233-0.066-2.067-0.066-2.5,0c-0.534,0.1-1.35,0.434-2.45,1
		c-1.1,0.6-1.917,0.983-2.45,1.15c-1.1,0.267-1.883,0-2.35-0.8c-0.2-0.333-0.233-1.217-0.1-2.65c0.1-0.833-0.5-1.2-1.8-1.1
		c-1.3,0.133-3.05,0.767-5.25,1.9c-2.466,1.333-4.183,2.117-5.15,2.35c-1.9,0.5-3.333,0.383-4.3-0.35
		c-1.067-0.833-0.85-2.05,0.65-3.65c0.233-0.233,0.883-0.767,1.95-1.6c0.933-0.8,1.283-1.433,1.05-1.9
		c-0.4-0.667-1.917-0.5-4.55,0.5c-2.6,1-4.217,0.8-4.85-0.6c-0.167-0.3,0.167-1.066,1-2.3c0.6-0.967,0.566-1.317-0.1-1.05
		c-0.633,0.033-2.25,0.55-4.85,1.55c-1.967,0.767-2.867,0.833-2.7,0.2c0.333-0.833,1.333-1.817,3-2.95
		c0.933-0.6,2.183-1.417,3.75-2.45c3.3-2.433,5.533-4.117,6.7-5.05c2.467-1.967,4.55-3.833,6.25-5.6
		c3.633-3.733,7.533-8.183,11.7-13.35c3.733-4.6,6.9-8.1,9.5-10.5c3.867-3.5,7.834-5.966,11.9-7.4c7.267-2.6,15.134-2.1,23.6,1.5
		c7.034,2.967,13.634,7.617,19.801,13.95c1.233,1.267,4.466,4.7,9.699,10.3c3.934,4.233,7.233,7.6,9.9,10.1
		C190.634,39.967,194.033,42.5,198.2,45.1z"/>
	
		<use xlink:href="#flash0.ai_x2F_Layer_3_x2F__x3C_Path_x3E__x5F_7"  width="8.16" height="3.518" x="-0.009" y="-3.508" transform="matrix(1 0 0 -1 140.4502 19.1499)" style="overflow:visible;opacity:0.4883;enable-background:new    ;"/>
	
		<use xlink:href="#flash0.ai_x2F_Layer_3_x2F__x3C_Path_x3E__x5F_6"  width="13.211" height="4.542" x="-0.006" y="-4.515" transform="matrix(1 0 0 -1 118.4502 8.8501)" style="overflow:visible;opacity:0.4883;enable-background:new    ;"/>
	
		<use xlink:href="#flash0.ai_x2F_Layer_3_x2F__x3C_Path_x3E__x5F_5"  width="43.1" height="10.08" y="-10.104" transform="matrix(1 0 0 -1 114.7998 1.5)" style="overflow:visible;opacity:0.4883;enable-background:new    ;"/>
	
		<use xlink:href="#flash0.ai_x2F_Layer_3_x2F__x3C_Path_x3E__x5F_4"  width="58.55" height="11.176" y="-11.176" transform="matrix(1 0 0 -1 107.7998 10.8999)" style="overflow:visible;opacity:0.4883;enable-background:new    ;"/>
	
		<use xlink:href="#flash0.ai_x2F_Layer_3_x2F__x3C_Path_x3E__x5F_3"  width="79.75" height="16.5" y="-16.5" transform="matrix(1 0 0 -1 97.2998 22.7998)" style="overflow:visible;opacity:0.4883;enable-background:new    ;"/>
	
		<use xlink:href="#flash0.ai_x2F_Layer_3_x2F__x3C_Path_x3E__x5F_2"  width="18.031" height="3.541" x="-0.095" y="-3.554" transform="matrix(1 0 0 -1 44.6001 197.5)" style="overflow:visible;opacity:0.4688;enable-background:new    ;"/>
	
		<use xlink:href="#flash0.ai_x2F_Layer_3_x2F__x3C_Path_x3E__x5F_1"  width="9.476" height="3.104" x="-0.05" y="-3.104" transform="matrix(1 0 0 -1 70.1001 197.8496)" style="overflow:visible;opacity:0.4688;enable-background:new    ;"/>
	
		<use xlink:href="#flash0.ai_x2F_Layer_3_x2F__x3C_Path_x3E_"  width="11.953" height="5.927" x="-0.045" y="-5.915" transform="matrix(1 0 0 -1 9.1001 198.9502)" style="overflow:visible;opacity:0.4688;enable-background:new    ;"/>
</g>
</svg>
