<?xml version="1.0" encoding="iso-8859-1"?>
<!-- Generator: Adobe Illustrator 15.1.0, SVG Export Plug-In . SVG Version: 6.00 Build 0)  -->
<!DOCTYPE svg PUBLIC "-//W3C//DTD SVG 1.1//EN" "http://www.w3.org/Graphics/SVG/1.1/DTD/svg11.dtd">
<svg version="1.1" id="Layer_3" xmlns="http://www.w3.org/2000/svg" xmlns:xlink="http://www.w3.org/1999/xlink" x="0px" y="0px"
	 width="140.25px" height="150.35px" viewBox="0 0 140.25 150.35" style="enable-background:new 0 0 140.25 150.35;"
	 xml:space="preserve">
<symbol  id="flash0.ai_x5F_0_x2F_Layer_3_x2F__x3C_Path_x3E_" viewBox="0 -2.75 8.003 2.8">
	<g id="Layer_1_26_">
		
			<linearGradient id="SVGID_1_" gradientUnits="userSpaceOnUse" x1="16070.5137" y1="163.4258" x2="16073.0146" y2="163.4258" gradientTransform="matrix(0.0201 0.9998 -0.9998 0.0201 -155.5889 -16073.2529)">
			<stop  offset="0" style="stop-color:#043840"/>
			<stop  offset="0.3255" style="stop-color:#00562E"/>
			<stop  offset="1" style="stop-color:#599D4A"/>
		</linearGradient>
		<path style="fill-rule:evenodd;clip-rule:evenodd;fill:url(#SVGID_1_);" d="M7.85-0.75c0.233-0.333,0.2-0.633-0.1-0.9
			C7.417-1.95,6.867-2.067,6.1-2C3.9-1.833,1.867-2.083,0-2.75C0.933-1.683,2.2-0.9,3.8-0.4C5.9,0.3,7.25,0.183,7.85-0.75z"/>
	</g>
</symbol>
<symbol  id="flash0.ai_x5F_0_x2F_Layer_3_x2F__x3C_Path_x3E__x5F_1" viewBox="-0.004 -10.553 21.188 10.569">
	<g id="Layer_1_25_">
		
			<linearGradient id="SVGID_2_" gradientUnits="userSpaceOnUse" x1="16035.3125" y1="183.2461" x2="16044.9902" y2="183.2461" gradientTransform="matrix(0.0234 0.9997 -0.9997 0.0234 -182.0898 -16045.5918)">
			<stop  offset="0" style="stop-color:#043840"/>
			<stop  offset="0.3255" style="stop-color:#00562E"/>
			<stop  offset="1" style="stop-color:#599D4A"/>
		</linearGradient>
		<path style="fill-rule:evenodd;clip-rule:evenodd;fill:url(#SVGID_2_);" d="M10.8-7.05C12.233-6.683,13.267-6,13.9-5
			s0.483,1.417-0.45,1.25C12.75-3.883,11.5-4.333,9.7-5.1C8.767-5.467,7.917-5.833,7.15-6.2c3.533,2.1,6.517,3.767,8.95,5
			c2.066,1,3.55,1.383,4.45,1.15c1-0.267,0.817-1.317-0.55-3.15c-1.433-1.966-3.567-3.633-6.4-5c-2.867-1.367-5.817-2.133-8.85-2.3
			c-2.833-0.2-4.4,0.167-4.7,1.1C-0.217-8.533,0.5-7.717,2.2-6.95l4.65,2.3c-1.767-1.133-1.967-1.934-0.6-2.4
			C7.483-7.483,9-7.483,10.8-7.05z"/>
	</g>
</symbol>
<symbol  id="flash0.ai_x5F_0_x2F_Layer_3_x2F__x3C_Path_x3E__x5F_10" viewBox="-0.043 -10.483 2.902 10.608">
	<g id="Layer_1_12_">
		
			<linearGradient id="SVGID_3_" gradientUnits="userSpaceOnUse" x1="1572.7866" y1="1310.1602" x2="1581.7802" y2="1310.1602" gradientTransform="matrix(0.984 0.1779 -0.1779 0.984 -1314.3242 -1574.4307)">
			<stop  offset="0" style="stop-color:#3A3866"/>
			<stop  offset="1" style="stop-color:#44828C"/>
		</linearGradient>
		<path style="fill-rule:evenodd;clip-rule:evenodd;fill:url(#SVGID_3_);" d="M2.7-2.1c0.367-2.333,0.1-4.65-0.8-6.95
			C1-11.383,0.4-10.867,0.1-7.5c-0.333,3.4-0.083,5.717,0.75,6.95C1.683,0.717,2.3,0.2,2.7-2.1z"/>
	</g>
</symbol>
<symbol  id="flash0.ai_x5F_0_x2F_Layer_3_x2F__x3C_Path_x3E__x5F_11" viewBox="-0.031 -18.166 6.566 18.257">
	<g id="Layer_1_11_">
		
			<linearGradient id="SVGID_4_" gradientUnits="userSpaceOnUse" x1="1555.7314" y1="1294.4375" x2="1576.7349" y2="1294.4375" gradientTransform="matrix(0.9844 0.1762 -0.1762 0.9844 -1302.709 -1557.707)">
			<stop  offset="0" style="stop-color:#3A3866"/>
			<stop  offset="1" style="stop-color:#44828C"/>
		</linearGradient>
		<path style="fill-rule:evenodd;clip-rule:evenodd;fill:url(#SVGID_4_);" d="M5.6-0.6c0.9-1.133,1.15-3.167,0.75-6.1
			c-0.434-3.433-1.333-6.483-2.7-9.15c-1.467-2.833-2.517-3.066-3.15-0.7c-0.633,2.466-0.7,5.333-0.2,8.6
			c0.467,3.2,1.25,5.483,2.35,6.85C3.75,0.3,4.733,0.467,5.6-0.6z"/>
	</g>
</symbol>
<symbol  id="flash0.ai_x5F_0_x2F_Layer_3_x2F__x3C_Path_x3E__x5F_12" viewBox="-0.002 -7.064 3.641 7.173">
	<g id="Layer_1_10_">
		
			<linearGradient id="SVGID_5_" gradientUnits="userSpaceOnUse" x1="1565.939" y1="1306.7363" x2="1577.3698" y2="1306.7363" gradientTransform="matrix(0.9842 0.1772 -0.1772 0.9842 -1309.3105 -1567.2041)">
			<stop  offset="0" style="stop-color:#3A3866"/>
			<stop  offset="1" style="stop-color:#44828C"/>
		</linearGradient>
		<path style="fill-rule:evenodd;clip-rule:evenodd;fill:url(#SVGID_5_);" d="M3.6-0.8c0.2-1.434-0.367-3.067-1.7-4.9
			C0.633-7.467,0-7.517,0-5.85c-0.033,1.633,0.417,3.1,1.35,4.4C2.683,0.383,3.433,0.6,3.6-0.8z"/>
	</g>
</symbol>
<symbol  id="flash0.ai_x5F_0_x2F_Layer_3_x2F__x3C_Path_x3E__x5F_13" viewBox="-0.023 -16.163 5.176 16.295">
	<g id="Layer_1_9_">
		
			<linearGradient id="SVGID_6_" gradientUnits="userSpaceOnUse" x1="1566.9004" y1="1303.2471" x2="1583.8185" y2="1303.2471" gradientTransform="matrix(0.9842 0.1773 -0.1773 0.9842 -1310.4531 -1568.8506)">
			<stop  offset="0" style="stop-color:#3A3866"/>
			<stop  offset="1" style="stop-color:#44828C"/>
		</linearGradient>
		<path style="fill-rule:evenodd;clip-rule:evenodd;fill:url(#SVGID_6_);" d="M5.15-4.85C5.083-9.617,4.233-13.133,2.6-15.4
			c-0.733-1-1.333-1.017-1.8-0.05C0.333-14.55,0.067-13.1,0-11.1c-0.167,5,0.583,8.4,2.25,10.2C4.25,1.3,5.217-0.017,5.15-4.85z"/>
	</g>
</symbol>
<symbol  id="flash0.ai_x5F_0_x2F_Layer_3_x2F__x3C_Path_x3E__x5F_14" viewBox="-0.005 -27.206 140.246 27.206">
	<g id="Layer_1_3_">
		<path style="fill-rule:evenodd;clip-rule:evenodd;fill:#0D5069;" d="M140.2-12.2c0.1-0.2,0.017-0.466-0.25-0.8
			c-0.3-0.4-1.284-0.667-2.95-0.8c-0.967-0.1-2.133-0.117-3.5-0.05c-1.567,0.1-2.733,0.184-3.5,0.25
			c-1.133,0.1-2.167,0.083-3.1-0.05c-1.267-0.133-1.983-0.283-2.15-0.45c-0.233-0.267-0.2-0.467,0.1-0.6
			c0.167-0.066,0.45-0.15,0.85-0.25c0.2-0.066,0.85-0.25,1.95-0.55c1.033-0.333,1.583-0.65,1.65-0.95c0.167-0.667-1.5-1.066-5-1.2
			c-3.733,0-5.767,0-6.1,0c-4.034-0.067-7.017-0.017-8.95,0.15c-1.033,0.167-1.917,0.267-2.65,0.3
			c-1.367,0.034-1.817-0.316-1.35-1.05c0.133-0.233,0.45-0.45,0.95-0.65c0.267-0.133,0.65-0.3,1.15-0.5
			c1.733-0.9,3.417-1.483,5.05-1.75c0.233-0.033,1.05-0.083,2.45-0.15c1.267-0.167,1.833-0.517,1.7-1.05
			c-0.066-0.367-0.8-0.633-2.2-0.8c-1.5-0.1-2.383-0.15-2.65-0.15c-3.434-0.434-6.017-0.75-7.75-0.95c-3-0.333-5.583-0.533-7.75-0.6
			c-2.167-0.033-3.784-0.066-4.85-0.1c-1.934-0.066-3.567-0.167-4.9-0.3c-0.967-0.133-2.6-0.417-4.9-0.85
			c-2.066-0.4-3.7-0.65-4.9-0.75c-3.9-0.367-7.7-0.45-11.4-0.25c-1.833,0.1-4.35,0.434-7.55,1c-3.5,0.667-6.017,1.067-7.55,1.2
			c-0.4,0.033-2.217,0.15-5.45,0.35c-1.667,0.133-2.6,0.267-2.8,0.4c-0.5,0.3-0.667,0.533-0.5,0.7c0.133,0.167,0.55,0.3,1.25,0.4
			c0.667,0.1,1.867,0.283,3.6,0.55c1.5,0.3,2.467,0.733,2.9,1.3c0.267,0.333-0.367,0.633-1.9,0.9c-1.367,0.233-2.667,0.333-3.9,0.3
			c-1.567-0.033-4.5-0.183-8.8-0.45c-3.667-0.2-6.6-0.3-8.8-0.3c-1,0-2.467-0.1-4.4-0.3c-0.7-0.1-2.233-0.184-4.6-0.25
			c-1.267-0.133-2.267-0.2-3-0.2c-1.267,0.033-2.15,0.35-2.65,0.95c-0.233,0.267-0.3,0.483-0.2,0.65c0.033,0.1,0.217,0.25,0.55,0.45
			c0.6,0.4,1.333,0.767,2.2,1.1c0.033,0,0.65,0.167,1.85,0.5c0.733,0.167,1.317,0.383,1.75,0.65c1.8,1.067,3.2,1.75,4.2,2.05
			c1.2,0.3,2,0.683,2.4,1.15c-0.934,0.167-2.083,0.217-3.45,0.15c-2-0.066-3.15-0.1-3.45-0.1c-1.233,0-2.967,0.05-5.2,0.15
			c-2.433,0.133-4.167,0.2-5.2,0.2c-1.7,0-3.133,0.117-4.3,0.35c-2.1,0.433-2.733,1.183-1.9,2.25c0.433,0.533,1.4,1.05,2.9,1.55
			c0.8,0.267,1.9,0.617,3.3,1.05c1.367,0.5,3.383,1.217,6.05,2.15c2.367,0.867,4.333,1.7,5.9,2.5c2.3,1.233,4.2,2.1,5.7,2.6
			c2.167,0.767,4.2,1.1,6.1,1c2.2-0.133,5.05-0.15,8.55-0.05C43.283-0.067,46.133,0,47.4,0c3.133-0.033,7.867-0.467,14.2-1.3
			c6.233-0.833,10.983-1.25,14.25-1.25c7.4,0,13.517-0.167,18.35-0.5c6.767-0.467,12.816-1.317,18.15-2.55
			c1.467-0.333,3.083-0.6,4.85-0.8c2.1-0.267,5.267-0.667,9.5-1.2c0.367-0.033,0.9-0.183,1.6-0.45c0.7-0.267,1.233-0.417,1.6-0.45
			c0.5-0.067,2.033-0.45,4.6-1.15c0.333-0.1,0.75-0.267,1.25-0.5c0.733-0.4,2.017-0.95,3.85-1.65
			C139.933-11.933,140.133-12.067,140.2-12.2z"/>
	</g>
</symbol>
<symbol  id="flash0.ai_x5F_0_x2F_Layer_3_x2F__x3C_Path_x3E__x5F_15" viewBox="0 -6.75 37.2 6.75">
	<g id="Layer_1_2_">
		<path style="fill-rule:evenodd;clip-rule:evenodd;fill:#A89676;" d="M37.2-3.4c0-0.934-1.817-1.717-5.45-2.35
			c-3.633-0.667-8.017-1-13.15-1s-9.517,0.333-13.15,1C1.817-5.117,0-4.333,0-3.4C0-2.467,1.817-1.667,5.45-1s8.017,1,13.15,1
			c5.167,0,9.55-0.333,13.15-1C35.383-1.667,37.2-2.467,37.2-3.4z"/>
	</g>
</symbol>
<symbol  id="flash0.ai_x5F_0_x2F_Layer_3_x2F__x3C_Path_x3E__x5F_19" viewBox="0 -37.005 7.606 37.005">
	<g id="Layer_1_8_">
		
			<linearGradient id="SVGID_7_" gradientUnits="userSpaceOnUse" x1="1555.6763" y1="1290.9082" x2="1566.5481" y2="1290.9082" gradientTransform="matrix(0.9842 0.1771 -0.1771 0.9842 -1308.7178 -1566.3516)">
			<stop  offset="0" style="stop-color:#242224"/>
			<stop  offset="0.1529" style="stop-color:#27252E"/>
			<stop  offset="0.4157" style="stop-color:#302E49"/>
			<stop  offset="0.6471" style="stop-color:#3A3866"/>
			<stop  offset="1" style="stop-color:#44828C"/>
		</linearGradient>
		<path style="fill-rule:evenodd;clip-rule:evenodd;fill:url(#SVGID_7_);" d="M2.65,0L6-18.9l0.45-5.2
			c0.333-3.867,0.667-6.75,1-8.65c0.333-1.867,0.133-3.133-0.6-3.8c-0.367-0.333-0.767-0.483-1.2-0.45
			c-1.633,0.433-2.8,0.917-3.5,1.45l-0.6,0.7c-0.267,0.3-0.517,0.767-0.75,1.4C0.267-32.217,0-30.817,0-29.25
			c0,4.067,0.517,8.85,1.55,14.35C2.283-11.167,2.65-6.2,2.65,0z"/>
	</g>
</symbol>
<symbol  id="flash0.ai_x5F_0_x2F_Layer_3_x2F__x3C_Path_x3E__x5F_2" viewBox="0 -3.276 22.8 3.276">
	<g id="Layer_1_24_">
		
			<linearGradient id="SVGID_8_" gradientUnits="userSpaceOnUse" x1="16029.5371" y1="194.8984" x2="16032.5635" y2="194.8984" gradientTransform="matrix(0.025 0.9997 -0.9997 0.025 -194.4648 -16032.6113)">
			<stop  offset="0" style="stop-color:#043840"/>
			<stop  offset="0.3255" style="stop-color:#00562E"/>
			<stop  offset="1" style="stop-color:#599D4A"/>
		</linearGradient>
		<path style="fill-rule:evenodd;clip-rule:evenodd;fill:url(#SVGID_8_);" d="M0,0c7.467-0.2,12.567-0.217,15.3-0.05
			c1.7,0.1,3.467-0.133,5.3-0.7c0.9-0.267,1.633-0.55,2.2-0.85c-0.867,0.067-1.966,0.067-3.3,0c-2.7-0.1-5.217-0.483-7.55-1.15
			c-2.567-0.733-5.117-0.7-7.65,0.1C2.133-1.983,0.7-1.1,0,0z"/>
	</g>
</symbol>
<symbol  id="flash0.ai_x5F_0_x2F_Layer_3_x2F__x3C_Path_x3E__x5F_20" viewBox="-0.063 -85.876 20.213 85.876">
	<g id="Layer_1_7_">
		
			<linearGradient id="SVGID_9_" gradientUnits="userSpaceOnUse" x1="1528.3633" y1="1262.8418" x2="1573.371" y2="1262.8418" gradientTransform="matrix(0.9843 0.1766 -0.1766 0.9843 -1305.8711 -1562.2563)">
			<stop  offset="0" style="stop-color:#242224"/>
			<stop  offset="0.1529" style="stop-color:#27252E"/>
			<stop  offset="0.4157" style="stop-color:#302E49"/>
			<stop  offset="0.6471" style="stop-color:#3A3866"/>
			<stop  offset="1" style="stop-color:#44828C"/>
		</linearGradient>
		<path style="fill-rule:evenodd;clip-rule:evenodd;fill:url(#SVGID_9_);" d="M13.95-39.85c-0.867-4.167-1.817-7.75-2.85-10.75
			c-1.8-5.1-2.867-10.867-3.2-17.3c-0.167-3.2,0.633-8.783,2.4-16.75c-1.6,0.267-3.2,0.433-4.8,0.5c-3.2,0.1-4.833-0.417-4.9-1.55
			c-0.867-1-0.883,2.267-0.05,9.8c0.867,7.7,1.983,13.566,3.35,17.6c1.467,4.233,3,9.216,4.6,14.95s2.733,10.333,3.4,13.8
			c0.533,2.833,1.267,5.9,2.2,9.2c1.033,3.267,1.717,5.533,2.05,6.8c0.7,2.466,1.417,6.983,2.15,13.55
			c1.067-4.967,1.684-9.05,1.85-12.25c-2.667-7.8-4.183-13.567-4.55-17.3C15.333-32.45,14.783-35.883,13.95-39.85z"/>
	</g>
</symbol>
<symbol  id="flash0.ai_x5F_0_x2F_Layer_3_x2F__x3C_Path_x3E__x5F_21" viewBox="0 -102.338 18.65 102.338">
	<g id="Layer_1_6_">
		
			<linearGradient id="SVGID_10_" gradientUnits="userSpaceOnUse" x1="1525.8755" y1="1256.501" x2="1575.4828" y2="1256.501" gradientTransform="matrix(0.9842 0.1769 -0.1769 0.9842 -1307.5566 -1564.6797)">
			<stop  offset="0" style="stop-color:#242224"/>
			<stop  offset="0.1529" style="stop-color:#27252E"/>
			<stop  offset="0.4157" style="stop-color:#302E49"/>
			<stop  offset="0.6471" style="stop-color:#3A3866"/>
			<stop  offset="1" style="stop-color:#44828C"/>
		</linearGradient>
		<path style="fill-rule:evenodd;clip-rule:evenodd;fill:url(#SVGID_10_);" d="M15.95-42.85c-2.1-6.9-4.4-15.6-6.9-26.1
			C8.283-72.15,7.867-78.6,7.8-88.3c-0.033-4.867,0-9.4,0.1-13.6c-3.133-0.567-5.767-0.583-7.9-0.05
			c0.533,3.133,0.983,5.75,1.35,7.85c0.667,3.934,1.1,7.35,1.3,10.25c0.434,5.467,2.033,13.55,4.8,24.25
			c1.167,4.233,2.017,7.417,2.55,9.55c0.933,3.733,1.5,6.667,1.7,8.8c0.167,1.567,0.4,5.4,0.7,11.5c0.233,5.6,0.45,8.95,0.65,10.05
			c0.367,2.133,1.167,8.7,2.4,19.7h3.2c-1.6-9.4-2.4-16.583-2.4-21.55c0-2.5,0.183-6.217,0.55-11.15
			C17-37,16.717-40.383,15.95-42.85z"/>
	</g>
</symbol>
<symbol  id="flash0.ai_x5F_0_x2F_Layer_3_x2F__x3C_Path_x3E__x5F_22" viewBox="0 -97.15 31.5 97.15">
	<g id="Layer_1_5_">
		
			<linearGradient id="SVGID_11_" gradientUnits="userSpaceOnUse" x1="1517.6509" y1="1255.2754" x2="1583.3333" y2="1255.2754" gradientTransform="matrix(0.9843 0.1766 -0.1766 0.9843 -1305.6787 -1561.9775)">
			<stop  offset="0" style="stop-color:#242224"/>
			<stop  offset="0.1529" style="stop-color:#27252E"/>
			<stop  offset="0.4157" style="stop-color:#302E49"/>
			<stop  offset="0.6471" style="stop-color:#3A3866"/>
			<stop  offset="1" style="stop-color:#44828C"/>
		</linearGradient>
		<path style="fill-rule:evenodd;clip-rule:evenodd;fill:url(#SVGID_11_);" d="M24.3-12.75c0.9,3.533,1.883,7.7,2.95,12.5L31.5,0
			c-0.667-2.3-1.35-4.917-2.05-7.85C28.017-13.683,27.2-18.167,27-21.3c-0.433-6.067-0.717-9.667-0.85-10.8
			c-0.4-4.033-1.017-7.967-1.85-11.8c-0.6-2.934-1.8-7.934-3.6-15c-1.5-6.267-2.25-10.85-2.25-13.75c0-4.8-0.167-11.017-0.5-18.65
			c0-1.934-0.367-3.7-1.1-5.3c-2.533-0.367-5.4-0.55-8.6-0.55c-2.667,0-5.417,0.033-8.25,0.1c1.367,0.966,3.25,3.716,5.65,8.25
			c3.067,5.767,5.3,11.85,6.7,18.25c0.933,4.3,2.2,10.617,3.8,18.95c1.167,6.067,2.033,10.05,2.6,11.95
			c0.933,2.7,1.583,4.6,1.95,5.7c0.566,1.8,1.066,4.167,1.5,7.1c0.167,1.067,0.483,3.633,0.95,7.7
			C23.417-16.983,23.8-14.85,24.3-12.75z"/>
	</g>
</symbol>
<symbol  id="flash0.ai_x5F_0_x2F_Layer_3_x2F__x3C_Path_x3E__x5F_23" viewBox="0.066 -90.25 29.084 90.25">
	<g id="Layer_1_4_">
		
			<linearGradient id="SVGID_12_" gradientUnits="userSpaceOnUse" x1="1522.9844" y1="1260.9482" x2="1583.6401" y2="1260.9482" gradientTransform="matrix(0.9842 0.1768 -0.1768 0.9842 -1307.0781 -1563.9917)">
			<stop  offset="0" style="stop-color:#242224"/>
			<stop  offset="0.1529" style="stop-color:#27252E"/>
			<stop  offset="0.4157" style="stop-color:#302E49"/>
			<stop  offset="0.6471" style="stop-color:#3A3866"/>
			<stop  offset="1" style="stop-color:#44828C"/>
		</linearGradient>
		<path style="fill-rule:evenodd;clip-rule:evenodd;fill:url(#SVGID_12_);" d="M19-1.3L29.15,0
			c-2.333-7.267-4.017-13.183-5.05-17.75c-0.467-2.1-0.95-5.433-1.45-10c-0.433-3.933-0.933-6.75-1.5-8.45
			c-1.733-5.233-3.333-12.6-4.8-22.1c-1-6.434-3.217-14.067-6.65-22.9c-1.6-4.066-2.75-7.083-3.45-9.05
			c-0.667,0.2-2.217,0.383-4.65,0.55c-1.5,0.133-1.9,0.4-1.2,0.8c0.733,0.4,1.75,1.783,3.05,4.15c1.767,3.233,2.783,5.033,3.05,5.4
			c0.767,1.1,1.367,2.75,1.8,4.95c0.567,3.1,1.117,5.8,1.65,8.1c0.833,3.867,1.433,6.566,1.8,8.1c0.567,2.5,1.3,5.133,2.2,7.9
			c0.9,2.767,1.55,7.883,1.95,15.35c0.3,8.3,0.533,13.833,0.7,16.6c0.267,3.967,0.633,7.567,1.1,10.8
			C18.133-4.517,18.567-2.433,19-1.3z"/>
	</g>
</symbol>
<symbol  id="flash0.ai_x5F_0_x2F_Layer_3_x2F__x3C_Path_x3E__x5F_3" viewBox="0 -2.211 14.95 2.191">
	<g id="Layer_1_23_">
		
			<linearGradient id="SVGID_13_" gradientUnits="userSpaceOnUse" x1="16036.6641" y1="192.7998" x2="16038.7393" y2="192.7998" gradientTransform="matrix(0.0242 0.9997 -0.9997 0.0242 -188.4619 -16038.9131)">
			<stop  offset="0" style="stop-color:#043840"/>
			<stop  offset="0.3255" style="stop-color:#00562E"/>
			<stop  offset="1" style="stop-color:#599D4A"/>
		</linearGradient>
		<path style="fill-rule:evenodd;clip-rule:evenodd;fill:url(#SVGID_13_);" d="M0-2.15C0.767-1.75,1.717-1.367,2.85-1
			c2.233,0.767,4.2,1.083,5.9,0.95c2.733-0.167,4.8-0.617,6.2-1.35C11.783-1.433,9.267-1.6,7.4-1.9C5.533-2.2,3.067-2.283,0-2.15z"
			/>
	</g>
</symbol>
<symbol  id="flash0.ai_x5F_0_x2F_Layer_3_x2F__x3C_Path_x3E__x5F_4" viewBox="0 -8.156 24.7 8.156">
	<g id="Layer_1_22_">
		
			<linearGradient id="SVGID_14_" gradientUnits="userSpaceOnUse" x1="16020.3271" y1="198.2236" x2="16027.2295" y2="198.2236" gradientTransform="matrix(0.0255 0.9997 -0.9997 0.0255 -198.792 -16028.0645)">
			<stop  offset="0" style="stop-color:#043840"/>
			<stop  offset="0.3255" style="stop-color:#00562E"/>
			<stop  offset="1" style="stop-color:#599D4A"/>
		</linearGradient>
		<path style="fill-rule:evenodd;clip-rule:evenodd;fill:url(#SVGID_14_);" d="M10.55-5.15c2.133,0.533,5.133,0.667,9,0.4
			c1.934-0.133,3.65-0.317,5.15-0.55c-0.9-0.5-2.083-1-3.55-1.5c-2.967-0.967-5.917-1.417-8.85-1.35C9.367-8.083,6.433-6.7,3.5-4
			C2.033-2.667,0.867-1.333,0,0c1.033-1.033,2.25-2.033,3.65-3C6.417-4.9,8.717-5.617,10.55-5.15z"/>
	</g>
</symbol>
<symbol  id="flash0.ai_x5F_0_x2F_Layer_3_x2F__x3C_Path_x3E__x5F_5" viewBox="-0.044 -22.788 50.928 22.816">
	<g id="Layer_1_21_">
		
			<linearGradient id="SVGID_15_" gradientUnits="userSpaceOnUse" x1="16017.4688" y1="174.6436" x2="16037.2246" y2="174.6436" gradientTransform="matrix(0.0242 0.9997 -0.9997 0.0242 -188.4053 -16038.9736)">
			<stop  offset="0" style="stop-color:#043840"/>
			<stop  offset="0.3255" style="stop-color:#00562E"/>
			<stop  offset="1" style="stop-color:#599D4A"/>
		</linearGradient>
		<path style="fill-rule:evenodd;clip-rule:evenodd;fill:url(#SVGID_15_);" d="M45.3-19.6c-3.167-1.3-6.033-2.217-8.6-2.75
			c-3-0.6-5.817-0.583-8.45,0.05c-2.567,0.6-4.533,1.683-5.9,3.25c-1.667,2.133-2.95,3.583-3.85,4.35c-1.5,1.3-3.133,1.6-4.9,0.9
			c-2.2-0.867-4.65-1.217-7.35-1.05c-2.9,0.2-4.767,0.95-5.6,2.25C-0.183-11.333-0.267-9.8,0.4-8C1-6.367,2.033-4.917,3.5-3.65
			c-0.433-0.667-0.8-1.4-1.1-2.2c-0.6-1.566-0.6-2.683,0-3.35c0.733-0.833,2.033-1.233,3.9-1.2c1.934,0.066,3.417,0.633,4.45,1.7
			c1.033,1.067,0.867,1.934-0.5,2.6C8.917-5.4,7.8-5.417,6.9-6.15C6.2-6.717,6.133-7.267,6.7-7.8C7-8.067,7.367-8.283,7.8-8.45
			c-0.667,0-1.316,0.083-1.95,0.25C4.583-7.8,4.1-7.1,4.4-6.1c0.467,1.5,1.283,2.783,2.45,3.85C8.35-0.917,10.267-0.167,12.6,0
			c3.1,0.2,5.816-0.667,8.15-2.6c2.6-2.1,4.683-3.25,6.25-3.45c2.567-0.333,4.517-0.333,5.85,0c0.267,0.066,1.367,0.55,3.3,1.45
			c2.233,1.033,4.9,1.583,8,1.65c3.533,0.067,5.684-0.716,6.45-2.35c0.833-1.7-0.167-3.45-3-5.25c-2.767-1.767-5.434-2.534-8-2.3
			l3.85,1.8C45.95-9.683,47-8.6,46.6-7.8c-0.467,0.933-1.983,1.083-4.55,0.45c-2.466-0.633-4.417-1.566-5.85-2.8
			c-1.534-1.367-2.267-3.133-2.2-5.3c0.067-2.333,1.267-3.6,3.6-3.8c3.4-0.333,7.3,0.15,11.7,1.45
			C48.233-18.367,46.9-18.967,45.3-19.6z"/>
	</g>
</symbol>
<symbol  id="flash0.ai_x5F_0_x2F_Layer_3_x2F__x3C_Path_x3E__x5F_6" viewBox="-0.126 -15.667 8.078 15.789">
	<g id="Layer_1_16_">
		
			<linearGradient id="SVGID_16_" gradientUnits="userSpaceOnUse" x1="1564.8403" y1="1301.7314" x2="1590.6737" y2="1301.7314" gradientTransform="matrix(0.9842 0.1771 -0.1771 0.9842 -1308.9365 -1566.666)">
			<stop  offset="0" style="stop-color:#3A3866"/>
			<stop  offset="1" style="stop-color:#44828C"/>
		</linearGradient>
		<path style="fill-rule:evenodd;clip-rule:evenodd;fill:url(#SVGID_16_);" d="M5.85-6.95c-2.6-6.066-4.417-8.966-5.45-8.7
			c-0.967,0.267-0.6,2.566,1.1,6.9c1.667,4.367,3.333,7.167,5,8.4C8.633,1.183,8.417-1.017,5.85-6.95z"/>
	</g>
</symbol>
<symbol  id="flash0.ai_x5F_0_x2F_Layer_3_x2F__x3C_Path_x3E__x5F_6_x5F_0" viewBox="0 -57.702 79.1 57.747">
	<g id="Layer_1_17_">
		
			<linearGradient id="SVGID_17_" gradientUnits="userSpaceOnUse" x1="16190.457" y1="-33.3896" x2="16240.707" y2="-33.3896" gradientTransform="matrix(1.990050e-005 1 -1 -0.001 5.8384 -16246.1162)">
			<stop  offset="0" style="stop-color:#043840"/>
			<stop  offset="0.3255" style="stop-color:#00562E"/>
			<stop  offset="1" style="stop-color:#599D4A"/>
		</linearGradient>
		<path style="fill-rule:evenodd;clip-rule:evenodd;fill:url(#SVGID_17_);" d="M73.55-46.8c-1-0.367-2.216-1.217-3.65-2.55
			c-1.467-1.333-2.6-2.15-3.4-2.45c-2.067-0.767-3.4-0.6-4,0.5c-0.6,1.1,0.05,2.216,1.95,3.35c-1.233-0.633-2.983-1.933-5.25-3.9
			c-2.133-1.9-3.883-3.133-5.25-3.7c-0.367-0.167-0.85,0.117-1.45,0.85c-0.6,0.767-1.1,1.133-1.5,1.1c-0.367-0.033-0.7-0.333-1-0.9
			c-0.133-0.3-0.333-0.733-0.6-1.3c-0.667-1.233-1.467-1.867-2.4-1.9c-0.767-0.033-1.733,0.35-2.9,1.15c-3.6,2-5.483,3.25-5.65,3.75
			c0.466-1.534,1.417-3,2.85-4.4c-1.066,0.333-2.2,1.017-3.4,2.05c-1.267,1.233-2.25,2.133-2.95,2.7
			c-1.833,1.434-4.167,2.284-7,2.55c-1.833,0.2-3.8-0.383-5.9-1.75c-2.667-1.7-4.483-2.667-5.45-2.9c1.6,0.5,2.467,1.25,2.6,2.25
			c-1.133-0.467-2.583-0.5-4.35-0.1c-2.5,0.733-4.35,1.2-5.55,1.4c-2.1,0.367-3.867,0.15-5.3-0.65c-0.533-0.3-1.183-1-1.95-2.1
			c-0.966-1.4-1.65-2.3-2.05-2.7c0.667,13.9,1.133,22.333,1.4,25.3c1.033,11.2,2.684,17.367,4.95,18.5
			c2.633,1.133,4.8,2.083,6.5,2.85c3.167,1.4,6.1,2.933,8.8,4.6c6.4,3.967,14.467,5.684,24.2,5.15c8.967-0.534,16.2-2.65,21.7-6.35
			c3-2,5.65-8.267,7.95-18.8c1.467-6.7,2.667-14.367,3.6-23c-1.533,0.934-2.883,1.333-4.05,1.2c-1.197-0.123-2.297-0.814-3.3-2.075
			c0.18,0.266,0.38,0.607,0.6,1.025C72.717-47.483,73.117-47.067,73.55-46.8z"/>
	</g>
</symbol>
<symbol  id="flash0.ai_x5F_0_x2F_Layer_3_x2F__x3C_Path_x3E__x5F_6_x5F_1" viewBox="0 -11.041 22.867 11.041">
	<g id="Layer_1_20_">
		
			<linearGradient id="SVGID_18_" gradientUnits="userSpaceOnUse" x1="16029.5957" y1="187.6914" x2="16039.5234" y2="187.6914" gradientTransform="matrix(0.0241 0.9997 -0.9997 0.0241 -187.3535 -16040.0752)">
			<stop  offset="0" style="stop-color:#043840"/>
			<stop  offset="0.3255" style="stop-color:#00562E"/>
			<stop  offset="1" style="stop-color:#599D4A"/>
		</linearGradient>
		<path style="fill-rule:evenodd;clip-rule:evenodd;fill:url(#SVGID_18_);" d="M0-3.6c1.833-0.867,3.967-1.633,6.4-2.3
			c4.867-1.333,8.783-1.533,11.75-0.6c2.2,0.7,3.583,2,4.15,3.9c0.267,0.934,0.317,1.8,0.15,2.6c0.333-1.3,0.466-2.683,0.4-4.15
			c-0.133-2.967-1.233-4.917-3.3-5.85c-3.933-1.8-8.367-1.267-13.3,1.6C3.783-7,1.7-5.4,0-3.6z"/>
	</g>
</symbol>
<symbol  id="flash0.ai_x5F_0_x2F_Layer_3_x2F__x3C_Path_x3E__x5F_7" viewBox="-0.014 -18.062 12.414 18.062">
	<g id="Layer_1_15_">
		
			<linearGradient id="SVGID_19_" gradientUnits="userSpaceOnUse" x1="1563.1724" y1="1299.1309" x2="1600.9172" y2="1299.1309" gradientTransform="matrix(0.9842 0.1768 -0.1768 0.9842 -1307.2607 -1564.2549)">
			<stop  offset="0" style="stop-color:#3A3866"/>
			<stop  offset="1" style="stop-color:#44828C"/>
		</linearGradient>
		<path style="fill-rule:evenodd;clip-rule:evenodd;fill:url(#SVGID_19_);" d="M2.8,0l9.6-0.25C11.3-4.017,9.417-8.1,6.75-12.5
			c-2.967-4.833-4.983-6.517-6.05-5.05c-1,1.333-0.95,4.65,0.15,9.95C1.417-4.933,2.067-2.4,2.8,0z"/>
	</g>
</symbol>
<symbol  id="flash0.ai_x5F_0_x2F_Layer_3_x2F__x3C_Path_x3E__x5F_7_x5F_0" viewBox="-0.155 -13.4 53.955 13.414">
	<g id="Layer_1_19_">
		
			<linearGradient id="SVGID_20_" gradientUnits="userSpaceOnUse" x1="16023.3965" y1="175.8311" x2="16035.7002" y2="175.8311" gradientTransform="matrix(0.0246 0.9997 -0.9997 0.0246 -191.0186 -16036.2314)">
			<stop  offset="0" style="stop-color:#043840"/>
			<stop  offset="0.3255" style="stop-color:#00562E"/>
			<stop  offset="1" style="stop-color:#599D4A"/>
		</linearGradient>
		<path style="fill-rule:evenodd;clip-rule:evenodd;fill:url(#SVGID_20_);" d="M53.8-9.55c-2.1-1.167-4.95-1.784-8.55-1.85
			c-3.633-0.067-7.683,0.433-12.15,1.5c-4.233,1-7.633,1.35-10.2,1.05c-2.133-0.2-4.333-0.95-6.6-2.25
			c0.434,0.567,1.017,1.167,1.75,1.8c1.534,1.3,3.117,2.1,4.75,2.4c0.467,0.1,2.9,0.316,7.3,0.65c2.833,0.2,4.2,0.65,4.1,1.35
			c-0.133,0.867-1.534,1.4-4.2,1.6c-2.6,0.233-5.033,0.033-7.3-0.6c-1.5-0.434-3.467-1.7-5.9-3.8c-2.733-2.333-5.05-3.933-6.95-4.8
			C6.75-13.9,4-13.667,1.6-11.8C-0.867-9.867-0.733-7.6,2-5c2.633,2.5,5.883,3.45,9.75,2.85c1.533-0.233,2.683-0.684,3.45-1.35
			c0.8-0.7,0.933-1.417,0.4-2.15c-0.9-1.3-2.367-2.25-4.4-2.85c-1-0.3-1.917-0.467-2.75-0.5c1,0.4,1.95,0.883,2.85,1.45
			c1.8,1.133,2.467,2.066,2,2.8c-0.5,0.833-1.633,0.967-3.4,0.4c-1.633-0.5-2.967-1.267-4-2.3c-0.967-1-1.1-1.983-0.4-2.95
			c0.733-1,1.983-1.383,3.75-1.15c1.433,0.167,3.267,1.1,5.5,2.8c3.533,2.7,5.417,4.117,5.65,4.25c2,1.233,4.333,2.184,7,2.85
			c2.8,0.733,5.483,1,8.05,0.8c3.333-0.267,6.167-1.133,8.5-2.6c2.466-1.567,2.867-2.983,1.2-4.25
			c-1.233-0.967-2.683-1.517-4.35-1.65L38.7-8.5l5.85-1.15C48.85-10.283,51.933-10.25,53.8-9.55z"/>
	</g>
</symbol>
<symbol  id="flash0.ai_x5F_0_x2F_Layer_3_x2F__x3C_Path_x3E__x5F_8" viewBox="-0.06 -6.414 2.842 6.503">
	<g id="Layer_1_14_">
		
			<linearGradient id="SVGID_21_" gradientUnits="userSpaceOnUse" x1="1559.875" y1="1302.875" x2="1568.2312" y2="1302.875" gradientTransform="matrix(0.9843 0.1765 -0.1765 0.9843 -1305.0664 -1561.0967)">
			<stop  offset="0" style="stop-color:#3A3866"/>
			<stop  offset="1" style="stop-color:#44828C"/>
		</linearGradient>
		<path style="fill-rule:evenodd;clip-rule:evenodd;fill:url(#SVGID_21_);" d="M2.65-0.7c0.333-1.133,0.033-2.617-0.9-4.45
			C0.883-6.883,0.317-6.833,0.05-5C-0.217-3.1,0-1.717,0.7-0.85C1.667,0.35,2.317,0.4,2.65-0.7z"/>
	</g>
</symbol>
<symbol  id="flash0.ai_x5F_0_x2F_Layer_3_x2F__x3C_Path_x3E__x5F_8_x5F_0" viewBox="-0.026 -24.4 67.606 24.395">
	<g id="Layer_1_18_">
		
			<linearGradient id="SVGID_22_" gradientUnits="userSpaceOnUse" x1="16018.4961" y1="164.125" x2="16040.0527" y2="164.125" gradientTransform="matrix(0.024 0.9997 -0.9997 0.024 -186.3242 -16041.1553)">
			<stop  offset="0" style="stop-color:#043840"/>
			<stop  offset="0.3255" style="stop-color:#00562E"/>
			<stop  offset="1" style="stop-color:#599D4A"/>
		</linearGradient>
		<path style="fill-rule:evenodd;clip-rule:evenodd;fill:url(#SVGID_22_);" d="M65.8-8.95c2.133-2.7,2.35-5.033,0.65-7
			c-1.633-1.9-4.784-2.367-9.45-1.4c-4,0.833-8.1,2.417-12.3,4.75c-3.733,2.033-6.767,3.3-9.1,3.8c-2.467,0.533-5.317,0.5-8.55-0.1
			c-3-0.567-3.466-1.467-1.4-2.7c1.7-1.033,4.75-2.117,9.15-3.25c3.133-0.8,6.383-2.633,9.75-5.5c1.7-1.433,3.083-2.783,4.15-4.05
			c-4.767,3.833-11.184,6.017-19.25,6.55c-1.567,0.1-3.95,0.033-7.15-0.2c-3.9-0.267-6.5-0.4-7.8-0.4
			c-6.267-0.1-10.567,1.2-12.9,3.9c-2.5,2.867-2.117,5.633,1.15,8.3c2.367,1.9,5.433,3.35,9.2,4.35
			c3.267,0.833,7.733,0.917,13.4,0.25c4.433-0.533,7.883-1.217,10.35-2.05c1.367-0.466,3.367-0.1,6,1.1
			c3.4,1.567,5.267,2.383,5.6,2.45c1.233,0.267,2.75,0.167,4.55-0.3c0.9-0.233,1.683-0.483,2.35-0.75
			c-2.467,0.567-4.583,0.284-6.35-0.85c-1.667-1.133-2.233-2.517-1.7-4.15c0.533-1.6,2.167-3.216,4.9-4.85
			c2.667-1.6,5.2-2.534,7.6-2.8c2.233-0.2,3.467,0.233,3.7,1.3c0.2,1-0.45,2.133-1.95,3.4c-1.367,1.133-2.7,1.867-4,2.2
			c-1.3,0.333-1.867,0.1-1.7-0.7c0.167-1.033,1.833-2.35,5-3.95c-0.833,0.167-1.8,0.45-2.9,0.85c-2.2,0.8-3.9,1.8-5.1,3
			c-1.467,1.467-1.55,2.65-0.25,3.55c1.367,0.967,3.517,1.067,6.45,0.3C61.133-4.7,63.767-6.383,65.8-8.95z"/>
	</g>
</symbol>
<symbol  id="flash0.ai_x5F_0_x2F_Layer_3_x2F__x3C_Path_x3E__x5F_9" viewBox="-0.014 -29.358 12.348 29.371">
	<g id="Layer_1_13_">
		
			<linearGradient id="SVGID_23_" gradientUnits="userSpaceOnUse" x1="1561.4346" y1="1292.6094" x2="1601.8717" y2="1292.6094" gradientTransform="matrix(0.9842 0.1768 -0.1768 0.9842 -1307.0781 -1563.9912)">
			<stop  offset="0" style="stop-color:#3A3866"/>
			<stop  offset="1" style="stop-color:#44828C"/>
		</linearGradient>
		<path style="fill-rule:evenodd;clip-rule:evenodd;fill:url(#SVGID_23_);" d="M4.8-5C5.667-4.333,6.4-4.383,7-5.15
			c0.667,2.6,1.6,4.233,2.8,4.9c1.333,0.733,2.15-0.067,2.45-2.4C12.483-4.783,12.233-7,11.5-9.3c-0.433-1.333-0.95-2.367-1.55-3.1
			c-0.534-0.633-1.083-0.967-1.65-1c-0.1-2.9-0.466-5.684-1.1-8.35c-1.3-5.233-2.867-7.767-4.7-7.6c-1.8,0.167-2.633,2.434-2.5,6.8
			c0.133,4.233,0.617,7.933,1.45,11.1C2.317-8.15,3.433-6,4.8-5z"/>
	</g>
</symbol>
<g>
	
		<use xlink:href="#flash0.ai_x5F_0_x2F_Layer_3_x2F__x3C_Path_x3E__x5F_15"  width="37.2" height="6.75" y="-6.75" transform="matrix(1 0 0 -1 27.0498 117.7002)" style="overflow:visible;opacity:0.2695;enable-background:new    ;"/>
	
		<use xlink:href="#flash0.ai_x5F_0_x2F_Layer_3_x2F__x3C_Path_x3E__x5F_14"  width="140.246" height="27.206" x="-0.005" y="-27.206" transform="matrix(1 0 0 -1 0 123.1504)" style="overflow:visible;opacity:0.4688;enable-background:new    ;"/>
	<g>
		<linearGradient id="SVGID_24_" gradientUnits="userSpaceOnUse" x1="20.9248" y1="93.6768" x2="127.5748" y2="93.6768">
			<stop  offset="0" style="stop-color:#3A3866"/>
			<stop  offset="0.0745" style="stop-color:#373557"/>
			<stop  offset="0.2745" style="stop-color:#2F2D36"/>
			<stop  offset="0.3804" style="stop-color:#2C2A29"/>
			<stop  offset="0.4627" style="stop-color:#2E2C33"/>
			<stop  offset="0.5961" style="stop-color:#34324E"/>
			<stop  offset="0.698" style="stop-color:#3A3866"/>
			<stop  offset="1" style="stop-color:#44828C"/>
		</linearGradient>
		<path style="fill-rule:evenodd;clip-rule:evenodd;fill:url(#SVGID_24_);" d="M110.2,43.55l-0.351,3.5
			c-0.1,2.9,0.134,5.75,0.7,8.55c0.634,3,1.05,6.5,1.25,10.5c0.134,2.367,0.2,5.85,0.2,10.45c0,3.2,0.217,6.566,0.65,10.101
			c0.399,3.233,0.883,5.899,1.449,8c0.467,1.666,1.034,4.416,1.7,8.25c0.4,2.366,1.134,6.716,2.2,13.05
			c0.833,4.7,2.55,8.383,5.15,11.05c2,2.033,4.783,3.667,8.35,4.9c2.866,1.033,4,1.8,3.4,2.3c-0.601,0.5-2.334,0.566-5.2,0.2
			c-1.533-0.2-3.584-0.167-6.15,0.1c-2.133,0.2-4.1,0.05-5.899-0.45c-2.4-0.666-3.434-0.666-3.101,0c0.334,0.7,1.601,1.417,3.8,2.15
			c2,0.666,2.301,1.133,0.9,1.399c-1.233,0.233-3.95,0.351-8.15,0.351c-1.633,0-5.133-0.566-10.5-1.7
			c-4.133-0.866-6.833-0.934-8.1-0.2c-1.066,0.867-0.566,1.9,1.5,3.101c1.233,0.733,3.517,1.716,6.85,2.949
			c0.467,0.167,1.351,0.4,2.65,0.7c0.967,0.267,1.25,0.483,0.85,0.65c-0.8,0.434-2.183,0.566-4.149,0.399
			c-2.2-0.267-3.717-0.399-4.55-0.399c-6.534,0-13.584,0.533-21.15,1.6c-1.5,0.2-3.8,0.134-6.9-0.2
			c-3.233-0.366-5.533-0.483-6.9-0.35c-2,0.333-3.617,0.55-4.85,0.65c-2.267,0.199-3.55-0.067-3.85-0.801
			c0.367-0.5,1.817-1.233,4.35-2.199c2.566-0.967,4.066-1.7,4.5-2.2c-0.2-0.634-1.367-0.816-3.5-0.55
			c-3.434,0.466-5.333,0.699-5.7,0.699c-6.5-0.1-11.783-0.083-15.85,0.051c-4.633,0.166-9.316,0.517-14.05,1.05l-1.1,0.25
			c-0.467,0.066-0.85,0.083-1.15,0.05c-1-0.167-0.9-0.6,0.3-1.3c0.5-0.3,1.583-0.816,3.25-1.55c1.7-0.733,2.784-1.25,3.25-1.551
			c0.8-0.5,1.5-1.166,2.1-2c0.167-1.267-1.433-2-4.8-2.199c-2.633-0.167-5.65-0.017-9.05,0.449c-2.566,0.334-4.15,0.233-4.75-0.3
			c-0.633-0.566,0.233-1.3,2.6-2.2c1.833-0.666,3.067-1.183,3.7-1.55c1.167-0.733,2.417-1.866,3.75-3.399
			c1.1-1.267,2.217-3.384,3.35-6.351c1.167-3.033,2.183-6.483,3.05-10.35c0.8-3.434,1.55-8.283,2.25-14.55
			c0.333-3.101,0.883-8.9,1.65-17.4c0.6-6.5,1.067-13.017,1.4-19.55c0.233-5.767,0.367-9.184,0.4-10.25
			c0.133-3.7,13.216-5.467,39.25-5.3C84.233,42.25,97.233,42.717,110.2,43.55z"/>
		
			<use xlink:href="#flash0.ai_x5F_0_x2F_Layer_3_x2F__x3C_Path_x3E__x5F_23"  width="29.084" height="90.25" x="0.066" y="-90.25" transform="matrix(1 0 0 -1 21.3501 43)" style="overflow:visible;opacity:0.2109;enable-background:new    ;"/>
		
			<use xlink:href="#flash0.ai_x5F_0_x2F_Layer_3_x2F__x3C_Path_x3E__x5F_22"  width="31.5" height="97.15" y="-97.15" transform="matrix(1 0 0 -1 40.7998 42.75)" style="overflow:visible;opacity:0.2109;enable-background:new    ;"/>
		
			<use xlink:href="#flash0.ai_x5F_0_x2F_Layer_3_x2F__x3C_Path_x3E__x5F_21"  width="18.65" height="102.338" y="-102.338" transform="matrix(1 0 0 -1 68.8501 42.75)" style="overflow:visible;opacity:0.2109;enable-background:new    ;"/>
		
			<use xlink:href="#flash0.ai_x5F_0_x2F_Layer_3_x2F__x3C_Path_x3E__x5F_20"  width="20.213" height="85.876" x="-0.063" y="-85.876" transform="matrix(1 0 0 -1 91.2998 51.25)" style="overflow:visible;opacity:0.2109;enable-background:new    ;"/>
		
			<use xlink:href="#flash0.ai_x5F_0_x2F_Layer_3_x2F__x3C_Path_x3E__x5F_19"  width="7.606" height="37.005" y="-37.005" transform="matrix(1 0 0 -1 112 97.0498)" style="overflow:visible;opacity:0.2109;enable-background:new    ;"/>
		
			<linearGradient id="SVGID_25_" gradientUnits="userSpaceOnUse" x1="71.7266" y1="112.5088" x2="95.8538" y2="112.5088" gradientTransform="matrix(0.9844 -0.1761 0.1761 0.9844 6.467104e-005 -9.986758e-005)">
			<stop  offset="0" style="stop-color:#3A3866"/>
			<stop  offset="1" style="stop-color:#44828C"/>
		</linearGradient>
		<path style="fill-rule:evenodd;clip-rule:evenodd;fill:url(#SVGID_25_);" d="M94.15,88.5c1.767-1.533,2.699-0.8,2.8,2.2
			c0.133,2.833-0.45,6.1-1.75,9.8c-1.3,3.767-2.483,6.017-3.55,6.75c-1.167,0.8-1.75-0.733-1.75-4.6c0-3.767,0.449-6.934,1.35-9.5
			C91.983,91.083,92.95,89.533,94.15,88.5z"/>
		
			<linearGradient id="SVGID_26_" gradientUnits="userSpaceOnUse" x1="72.1377" y1="85.5342" x2="99.7711" y2="85.5342" gradientTransform="matrix(0.9843 -0.1764 0.1764 0.9843 2.946854e-004 7.030368e-005)">
			<stop  offset="0" style="stop-color:#3A3866"/>
			<stop  offset="1" style="stop-color:#44828C"/>
		</linearGradient>
		<path style="fill-rule:evenodd;clip-rule:evenodd;fill:url(#SVGID_26_);" d="M94.65,60.3c1.833-1.267,3.283-0.816,4.35,1.35
			c1.134,2.267,1.116,5.184-0.05,8.75c-1.334,4.1-2.7,7-4.101,8.7c-1.566,1.867-2.6,1.367-3.1-1.5c-0.533-3.133-0.5-6.55,0.1-10.25
			C92.45,63.517,93.384,61.167,94.65,60.3z"/>
		
			<linearGradient id="SVGID_27_" gradientUnits="userSpaceOnUse" x1="82.9746" y1="91.875" x2="94.1505" y2="91.875" gradientTransform="matrix(0.9843 -0.1767 0.1767 0.9843 0 -1.240373e-004)">
			<stop  offset="0" style="stop-color:#3A3866"/>
			<stop  offset="1" style="stop-color:#44828C"/>
		</linearGradient>
		<path style="fill-rule:evenodd;clip-rule:evenodd;fill:url(#SVGID_27_);" d="M102.65,71.2c0.933-0.667,1.25,0.033,0.949,2.1
			c-0.3,2.1-0.966,3.8-2,5.101c-1.133,1.399-1.55,0.767-1.25-1.9C100.616,73.867,101.384,72.1,102.65,71.2z"/>
		
			<linearGradient id="SVGID_28_" gradientUnits="userSpaceOnUse" x1="58.9014" y1="129.5859" x2="77.1634" y2="129.5859" gradientTransform="matrix(0.9843 -0.1766 0.1766 0.9843 -9.357929e-005 1.498759e-004)">
			<stop  offset="0" style="stop-color:#3A3866"/>
			<stop  offset="1" style="stop-color:#44828C"/>
		</linearGradient>
		<path style="fill-rule:evenodd;clip-rule:evenodd;fill:url(#SVGID_28_);" d="M80.55,122.6c-0.467-2.833-0.583-5.6-0.35-8.3
			c0.267-3.2,1.017-5.316,2.25-6.35c1.533-1.3,2.616-0.4,3.25,2.7c0.633,2.933,0.6,6.466-0.101,10.6c-0.5,3-1.366,4.6-2.6,4.8
			S80.95,125.1,80.55,122.6z"/>
		
			<linearGradient id="SVGID_29_" gradientUnits="userSpaceOnUse" x1="59.4048" y1="145.4805" x2="69.6393" y2="145.4805" gradientTransform="matrix(0.9844 -0.1759 0.1759 0.9844 -3.649592e-004 7.110834e-005)">
			<stop  offset="0" style="stop-color:#3A3866"/>
			<stop  offset="1" style="stop-color:#44828C"/>
		</linearGradient>
		<path style="fill-rule:evenodd;clip-rule:evenodd;fill:url(#SVGID_29_);" d="M85.1,129c0.967-1.267,1.584-0.95,1.851,0.95
			c0.233,1.899-0.217,3.8-1.351,5.7c-1.133,1.899-1.733,1.566-1.8-1C83.733,132.083,84.167,130.2,85.1,129z"/>
		
			<use xlink:href="#flash0.ai_x5F_0_x2F_Layer_3_x2F__x3C_Path_x3E__x5F_13"  width="5.176" height="16.295" x="-0.023" y="-16.163" transform="matrix(1 0 0 -1 61.8501 99.5498)" style="overflow:visible;opacity:0.2813;enable-background:new    ;"/>
		
			<use xlink:href="#flash0.ai_x5F_0_x2F_Layer_3_x2F__x3C_Path_x3E__x5F_12"  width="3.641" height="7.173" x="-0.002" y="-7.064" transform="matrix(1 0 0 -1 69.8999 83.5996)" style="overflow:visible;opacity:0.2813;enable-background:new    ;"/>
		
			<use xlink:href="#flash0.ai_x5F_0_x2F_Layer_3_x2F__x3C_Path_x3E__x5F_11"  width="6.566" height="18.257" x="-0.031" y="-18.166" transform="matrix(1 0 0 -1 71.7998 51.2002)" style="overflow:visible;opacity:0.2813;enable-background:new    ;"/>
		
			<use xlink:href="#flash0.ai_x5F_0_x2F_Layer_3_x2F__x3C_Path_x3E__x5F_10"  width="2.902" height="10.608" x="-0.043" y="-10.483" transform="matrix(1 0 0 -1 64 117.7998)" style="overflow:visible;opacity:0.2813;enable-background:new    ;"/>
		
			<use xlink:href="#flash0.ai_x5F_0_x2F_Layer_3_x2F__x3C_Path_x3E__x5F_9"  width="12.348" height="29.371" x="-0.014" y="-29.358" transform="matrix(1 0 0 -1 41.7002 75)" style="overflow:visible;opacity:0.2813;enable-background:new    ;"/>
		
			<use xlink:href="#flash0.ai_x5F_0_x2F_Layer_3_x2F__x3C_Path_x3E__x5F_8"  width="2.842" height="6.503" x="-0.06" y="-6.414" transform="matrix(1 0 0 -1 57.5 63.9502)" style="overflow:visible;opacity:0.2813;enable-background:new    ;"/>
		
			<use xlink:href="#flash0.ai_x5F_0_x2F_Layer_3_x2F__x3C_Path_x3E__x5F_7"  width="12.414" height="18.062" x="-0.014" y="-18.062" transform="matrix(1 0 0 -1 49.7998 41.3999)" style="overflow:visible;opacity:0.2813;enable-background:new    ;"/>
		
			<use xlink:href="#flash0.ai_x5F_0_x2F_Layer_3_x2F__x3C_Path_x3E__x5F_6"  width="8.078" height="15.789" x="-0.126" y="-15.667" transform="matrix(1 0 0 -1 39.1499 117.3496)" style="overflow:visible;opacity:0.2813;enable-background:new    ;"/>
		
			<linearGradient id="SVGID_30_" gradientUnits="userSpaceOnUse" x1="78.8555" y1="130.376" x2="94.2732" y2="130.376" gradientTransform="matrix(0.9843 -0.1767 0.1767 0.9843 -2.402067e-004 6.616116e-006)">
			<stop  offset="0" style="stop-color:#3A3866"/>
			<stop  offset="1" style="stop-color:#44828C"/>
		</linearGradient>
		<path style="fill-rule:evenodd;clip-rule:evenodd;fill:url(#SVGID_30_);" d="M110.4,106.35c1.767-1.399,2.517,0.134,2.25,4.601
			s-1.117,7.2-2.551,8.2c-1.333,0.933-1.949-0.717-1.85-4.95C108.35,110,109.066,107.384,110.4,106.35z"/>
		
			<linearGradient id="SVGID_31_" gradientUnits="userSpaceOnUse" x1="69.7529" y1="143.1426" x2="86.9505" y2="143.1426" gradientTransform="matrix(0.9841 -0.1774 0.1774 0.9841 6.252527e-005 1.832843e-005)">
			<stop  offset="0" style="stop-color:#3A3866"/>
			<stop  offset="1" style="stop-color:#44828C"/>
		</linearGradient>
		<path style="fill-rule:evenodd;clip-rule:evenodd;fill:url(#SVGID_31_);" d="M102.15,121c0.933-1.566,1.899-2.116,2.899-1.65
			c0.867,0.4,1.617,1.467,2.25,3.2c1.533,4.2,1.584,7.584,0.15,10.15c-0.634,1.133-1.4,1.383-2.3,0.75
			c-0.801-0.533-1.551-1.634-2.25-3.3C101.167,126.083,100.917,123.033,102.15,121z"/>
		
			<linearGradient id="SVGID_32_" gradientUnits="userSpaceOnUse" x1="77.207" y1="116.8125" x2="94.6842" y2="116.8125" gradientTransform="matrix(0.9841 -0.1774 0.1774 0.9841 9.489059e-005 1.239479e-004)">
			<stop  offset="0" style="stop-color:#3A3866"/>
			<stop  offset="1" style="stop-color:#44828C"/>
		</linearGradient>
		<path style="fill-rule:evenodd;clip-rule:evenodd;fill:url(#SVGID_32_);" d="M106.9,94.9c0.899-1.067,1.683-1.45,2.35-1.15
			c0.634,0.233,1.05,0.95,1.25,2.15c0.533,2.933-0.134,5.533-2,7.8c-0.866,1.066-1.616,1.416-2.25,1.05
			c-0.566-0.3-0.934-1.066-1.1-2.3C104.684,99.384,105.267,96.866,106.9,94.9z"/>
		
			<linearGradient id="SVGID_33_" gradientUnits="userSpaceOnUse" x1="-56.9971" y1="-69.1597" x2="-40.0374" y2="-69.1597" gradientTransform="matrix(-0.9685 -0.2491 0.2491 -0.9685 -2.652407e-005 -1.589060e-004)">
			<stop  offset="0" style="stop-color:#3A3866"/>
			<stop  offset="1" style="stop-color:#44828C"/>
		</linearGradient>
		<path style="fill-rule:evenodd;clip-rule:evenodd;fill:url(#SVGID_33_);" d="M33.7,70.4c1.2-1.733,1.583,0.7,1.15,7.3
			c-0.467,6.6-1.283,10.566-2.45,11.899c-1.233,1.367-1.667-1-1.3-7.1C31.467,76.434,32.333,72.4,33.7,70.4z"/>
		
			<linearGradient id="SVGID_34_" gradientUnits="userSpaceOnUse" x1="-48.2456" y1="-47.6426" x2="-34.0901" y2="-47.6426" gradientTransform="matrix(-0.9784 -0.2066 0.2066 -0.9784 2.280474e-004 6.517768e-004)">
			<stop  offset="0" style="stop-color:#3A3866"/>
			<stop  offset="1" style="stop-color:#44828C"/>
		</linearGradient>
		<path style="fill-rule:evenodd;clip-rule:evenodd;fill:url(#SVGID_34_);" d="M34.25,51.25c0.8-1.3,1.25-0.617,1.35,2.05
			c0.133,2.633-0.15,4.967-0.85,7c-0.633,1.967-1.033,1.217-1.2-2.25C33.383,54.583,33.617,52.317,34.25,51.25z"/>
		
			<linearGradient id="SVGID_35_" gradientUnits="userSpaceOnUse" x1="-53.5381" y1="-105.9502" x2="-38.7401" y2="-105.9502" gradientTransform="matrix(-0.9782 -0.2078 0.2078 -0.9782 2.879500e-004 -4.249811e-005)">
			<stop  offset="0" style="stop-color:#3A3866"/>
			<stop  offset="1" style="stop-color:#44828C"/>
		</linearGradient>
		<path style="fill-rule:evenodd;clip-rule:evenodd;fill:url(#SVGID_35_);" d="M28.1,109c1.133-1.5,1.55-0.917,1.25,1.75
			c-0.3,2.667-1.15,5.283-2.55,7.85c-0.7,1.267-1.183,1.7-1.45,1.301c-0.233-0.334-0.25-1.217-0.05-2.65
			C25.767,113.684,26.7,110.934,28.1,109z"/>
	</g>
	
		<linearGradient id="SVGID_36_" gradientUnits="userSpaceOnUse" x1="-133.5347" y1="21.98" x2="-105.6097" y2="21.98" gradientTransform="matrix(3.581021e-005 -1 1 -0.001 -1.651163e-004 2.105520e-004)">
		<stop  offset="0" style="stop-color:#3A3866"/>
		<stop  offset="0.4" style="stop-color:#3B557C"/>
		<stop  offset="0.749" style="stop-color:#3B678A"/>
		<stop  offset="1" style="stop-color:#3B6E8F"/>
	</linearGradient>
	<path style="fill-rule:evenodd;clip-rule:evenodd;fill:url(#SVGID_36_);" d="M18.25,134.05c0.267-7.399,1.717-14.583,4.35-21.55
		l3.1-6.525c-1.896,4.38-3.08,10.171-3.55,17.375c-0.233,4.067-0.25,7.684-0.05,10.851c-0.8,0.566-1.684,0.717-2.65,0.45
		L18.25,134.05z"/>
	
		<linearGradient id="SVGID_37_" gradientUnits="userSpaceOnUse" x1="-137.8672" y1="54.5557" x2="-110.2422" y2="54.5557" gradientTransform="matrix(3.619910e-005 -1 1 -0.001 6.375284e-005 2.114968e-004)">
		<stop  offset="0" style="stop-color:#242224"/>
		<stop  offset="0.5412" style="stop-color:#31324A"/>
		<stop  offset="1" style="stop-color:#3B3D66"/>
	</linearGradient>
	<path style="fill-rule:evenodd;clip-rule:evenodd;fill:url(#SVGID_37_);" d="M51.65,140.6c0.2-7.399,1.35-14.583,3.45-21.55
		l2.35-6.35c-1.457,4.356-2.373,10.073-2.75,17.149c-0.2,4.101-0.217,7.733-0.05,10.9c-0.9,0.267-1.667,0.316-2.3,0.15L51.65,140.6z
		"/>
	<linearGradient id="SVGID_38_" gradientUnits="userSpaceOnUse" x1="46.8501" y1="101.2246" x2="46.8501" y2="138.5746">
		<stop  offset="0" style="stop-color:#365387"/>
		<stop  offset="0.3176" style="stop-color:#31456B"/>
		<stop  offset="1" style="stop-color:#242224"/>
	</linearGradient>
	<path style="fill-rule:evenodd;clip-rule:evenodd;fill:url(#SVGID_38_);" d="M50.1,140.1c-0.133,0.167-0.383,0.301-0.75,0.4
		c-0.7,0.167-1.567,0.083-2.6-0.25c0.2-3.866,0.167-8.283-0.1-13.25c-0.401-8.502-1.417-15.394-3.05-20.675l2.6,7.524
		C48.567,122.316,49.867,131.066,50.1,140.1z"/>
	
		<linearGradient id="SVGID_39_" gradientUnits="userSpaceOnUse" x1="-143.6489" y1="73.4561" x2="-117.6989" y2="73.4561" gradientTransform="matrix(3.853564e-005 -1 1 -0.001 0 2.114968e-004)">
		<stop  offset="0" style="stop-color:#242224"/>
		<stop  offset="0.0431" style="stop-color:#252329"/>
		<stop  offset="0.698" style="stop-color:#353670"/>
		<stop  offset="1" style="stop-color:#3B3D8C"/>
	</linearGradient>
	<path style="fill-rule:evenodd;clip-rule:evenodd;fill:url(#SVGID_39_);" d="M68.75,145.45c0.333-6.8,2.2-13.367,5.6-19.7
		L78.15,120c-2.356,3.962-3.822,9.179-4.4,15.65c-0.333,3.733-0.366,7.05-0.1,9.949c-1.2,0.934-2.367,1.184-3.5,0.75L68.75,145.45z"
		/>
	
		<linearGradient id="SVGID_40_" gradientUnits="userSpaceOnUse" x1="-144.873" y1="72.647" x2="-129.873" y2="72.647" gradientTransform="matrix(6.666667e-005 -1 1 -0.001 -4.623437e-005 2.096072e-004)">
		<stop  offset="0" style="stop-color:#242224"/>
		<stop  offset="0.0431" style="stop-color:#242629"/>
		<stop  offset="0.698" style="stop-color:#225F70"/>
		<stop  offset="1" style="stop-color:#21758C"/>
	</linearGradient>
	<path style="fill-rule:evenodd;clip-rule:evenodd;fill:url(#SVGID_40_);" d="M70.35,146.1c0.167-3.966,1.101-7.816,2.801-11.55
		l1.774-3.175c-1.136,2.302-1.844,5.293-2.125,8.975c-0.166,2.167-0.184,4.101-0.05,5.801C71.816,146.717,71.017,146.7,70.35,146.1z
		"/>
	<g>
		<linearGradient id="SVGID_41_" gradientUnits="userSpaceOnUse" x1="66.6753" y1="102.5996" x2="66.6753" y2="138.8996">
			<stop  offset="0" style="stop-color:#70A834"/>
			<stop  offset="0.2431" style="stop-color:#158434"/>
			<stop  offset="0.349" style="stop-color:#187231"/>
			<stop  offset="0.6392" style="stop-color:#1E472A"/>
			<stop  offset="0.8667" style="stop-color:#222C26"/>
			<stop  offset="1" style="stop-color:#242224"/>
		</linearGradient>
		<path style="fill-rule:evenodd;clip-rule:evenodd;fill:url(#SVGID_41_);" d="M63.05,108.9c0-1.634,0.617-2.75,1.85-3.351
			c1.2-0.633,2.45-0.5,3.75,0.4c1.033,0.7,1.484,1.583,1.35,2.649c-0.133,1-0.617,1.534-1.45,1.601
			c-0.5,0.033-0.816-0.017-0.95-0.15l-0.1-0.25c1.1,0.101,1.65-0.316,1.65-1.25c0-0.899-0.433-1.5-1.3-1.8
			c-0.934-0.3-1.817-0.2-2.65,0.3c-0.9,0.566-1.217,1.4-0.95,2.5c0.3,1.233,1.217,1.983,2.75,2.25c1.533,0.233,2.75-0.116,3.65-1.05
			c0.899-0.967,1.216-2.2,0.949-3.7c-0.3-1.566-1.133-2.767-2.5-3.6c-1.4-0.9-2.9-1.017-4.5-0.351c-1.633,0.667-2.567,1.834-2.8,3.5
			c-0.3,1.867,0.067,4.65,1.1,8.351c1.533,5.533,2.483,9.316,2.85,11.35c0.733,4.2,1.25,8.25,1.55,12.15
			c0.267,3.5,0.3,5.883,0.1,7.149c-0.367,0.5-1.133,0.717-2.3,0.65c-1.167-0.033-1.934-0.267-2.3-0.7c0-0.366,0.167-1.733,0.5-4.1
			c0.4-2.634,0.667-5.384,0.8-8.25c0.167-3.634-0.283-7.7-1.35-12.2c-1.233-4.6-2.017-7.866-2.35-9.8
			c-0.6-3.334-0.233-5.967,1.1-7.9c1.4-2,3.55-2.717,6.45-2.149c2.899,0.6,4.616,2.449,5.149,5.55c0.5,3.066-0.433,5.083-2.8,6.05
			c-2.033,0.8-3.767,0.767-5.2-0.1C63.733,111.816,63.05,110.566,63.05,108.9z"/>
		<path style="fill-rule:evenodd;clip-rule:evenodd;fill:#158434;" d="M63.6,119.4c0.4,0.333,0.617,0.933,0.65,1.8
			c0.033,0.833-0.133,1.184-0.5,1.05c-0.367-0.167-0.583-0.767-0.65-1.8C63.033,119.417,63.2,119.066,63.6,119.4z"/>
		<path style="fill-rule:evenodd;clip-rule:evenodd;fill:#158434;" d="M62.3,115.95c0.267,0.166,0.434,0.533,0.5,1.1
			c0.1,0.566,0.034,0.851-0.2,0.851s-0.417-0.384-0.55-1.15C61.917,116.017,62,115.75,62.3,115.95z"/>
		<path style="fill-rule:evenodd;clip-rule:evenodd;fill:#158434;" d="M61.6,111.4c0.267,0.366,0.417,0.866,0.45,1.5
			c0.034,0.699-0.117,1-0.45,0.899c-0.333-0.066-0.5-0.583-0.5-1.55C61.133,111.283,61.3,111,61.6,111.4z"/>
		<path style="fill-rule:evenodd;clip-rule:evenodd;fill:#158434;" d="M60.5,109c0.233,0.2,0.35,0.5,0.35,0.9
			c0,0.366-0.083,0.55-0.25,0.55c-0.167,0-0.283-0.283-0.35-0.851C60.217,109.033,60.3,108.833,60.5,109z"/>
		<path style="fill-rule:evenodd;clip-rule:evenodd;fill:#158434;" d="M65.25,124.65c0.133,0.466,0.133,0.85,0,1.149
			c-0.1,0.267-0.2,0.2-0.3-0.2c-0.2-0.8-0.25-1.333-0.15-1.6C64.9,123.7,65.05,123.917,65.25,124.65z"/>
		<path style="fill-rule:evenodd;clip-rule:evenodd;fill:#158434;" d="M64.25,122.85c0.167,0.2,0.233,0.534,0.2,1
			c-0.034,0.467-0.184,0.617-0.45,0.45c-0.3-0.166-0.417-0.533-0.35-1.1C63.717,122.634,63.917,122.517,64.25,122.85z"/>
		<path style="fill-rule:evenodd;clip-rule:evenodd;fill:#158434;" d="M64.85,126.95c0.167,0.333,0.233,0.684,0.2,1.05
			c-0.033,0.366-0.15,0.4-0.35,0.1c-0.2-0.3-0.25-0.633-0.15-1C64.617,126.7,64.717,126.65,64.85,126.95z"/>
	</g>
	<g>
		
			<linearGradient id="SVGID_42_" gradientUnits="userSpaceOnUse" x1="-131.9849" y1="54.5796" x2="-86.3177" y2="54.5796" gradientTransform="matrix(0.0542 -0.9985 0.9985 0.0542 -4.128218e-004 -1.643449e-004)">
			<stop  offset="0" style="stop-color:#242224"/>
			<stop  offset="0.1333" style="stop-color:#222C26"/>
			<stop  offset="0.3608" style="stop-color:#1E472A"/>
			<stop  offset="0.651" style="stop-color:#187231"/>
			<stop  offset="0.7569" style="stop-color:#158434"/>
			<stop  offset="1" style="stop-color:#70A834"/>
		</linearGradient>
		<path style="fill-rule:evenodd;clip-rule:evenodd;fill:url(#SVGID_42_);" d="M48.75,82.65c1.933,0.199,3.7,0.949,5.3,2.25
			c2.534,2.1,3.883,5.233,4.05,9.399c0.2,3.5-0.383,6.95-1.75,10.351c-2.133,5.866-3.5,11.883-4.1,18.05
			c-0.467,5.033-0.467,10.883,0,17.55c0,0.533-0.567,0.884-1.7,1.05c-0.633,0.101-1.316,0.066-2.05-0.1l-0.85-0.3
			c-0.167-2.5-0.083-6,0.25-10.5c0.667-9.2,2.65-18.267,5.95-27.2c2.9-7.634,2.333-13.15-1.7-16.55
			c-1.1-1.034-2.383-1.617-3.85-1.75c-1.566-0.134-2.8,0.383-3.7,1.55c-0.767,0.866-1.217,1.883-1.35,3.05
			c-0.067,0.9,0.033,2.217,0.3,3.95c0.633,1.733,1.534,3.083,2.7,4.05c1.233,1.033,2.417,1.267,3.55,0.7
			c1.133-0.533,1.917-1.45,2.35-2.75c0.434-1.267,0.417-2.45-0.05-3.55c-0.3-0.733-0.767-1.351-1.4-1.851
			c-0.667-0.533-1.4-0.833-2.2-0.899c-1.767-0.301-2.7,0.416-2.8,2.149c-0.034,1.566,0.65,2.834,2.05,3.8
			c0.767,0.5,1.533,0.45,2.3-0.149c0.614-0.521,1.005-1.196,1.175-2.025c0,0.172,0.025,0.447,0.075,0.825
			c-0.1,0.934-0.633,1.684-1.6,2.25c-0.6,0.267-1.317,0.233-2.15-0.1c-0.833-0.334-1.483-0.817-1.95-1.45
			c-0.633-0.834-1-1.783-1.1-2.851c-0.133-1.199,0.167-2.283,0.9-3.25c0.833-0.8,1.85-1.166,3.05-1.1
			c1.267,0.066,2.333,0.583,3.2,1.55c1.7,1.934,2.467,4.117,2.3,6.55c-0.133,1.567-0.7,2.834-1.7,3.801
			c-1.067,1-2.417,1.399-4.05,1.199c-1.7-0.3-3.067-0.949-4.1-1.949c-0.934-0.934-1.684-2.217-2.25-3.851
			c-0.567-1.6-0.833-2.983-0.8-4.149c0.067-1.5,0.55-3.134,1.45-4.9c0.567-0.934,1.417-1.667,2.55-2.2
			C46.283,82.7,47.517,82.483,48.75,82.65z"/>
		<path style="fill-rule:evenodd;clip-rule:evenodd;fill:#158434;" d="M53.85,105.2c0.533-0.667,0.8-0.533,0.8,0.399
			c0.033,0.9-0.2,1.634-0.7,2.2c-0.5,0.533-0.75,0.384-0.75-0.45C53.167,106.517,53.383,105.8,53.85,105.2z"/>
		<path style="fill-rule:evenodd;clip-rule:evenodd;fill:#158434;" d="M56,102.5c0.467-0.4,0.633-0.116,0.5,0.85
			c-0.167,1-0.417,1.517-0.75,1.551c-0.333,0.033-0.467-0.284-0.4-0.95C55.383,103.283,55.6,102.8,56,102.5z"/>
		<path style="fill-rule:evenodd;clip-rule:evenodd;fill:#158434;" d="M55.75,100.45c0.333-0.4,0.583-0.384,0.75,0.05
			c0.133,0.434,0.05,0.783-0.25,1.05c-0.267,0.233-0.467,0.15-0.6-0.25C55.55,100.934,55.583,100.65,55.75,100.45z"/>
		<path style="fill-rule:evenodd;clip-rule:evenodd;fill:#158434;" d="M54.1,103.25c0.2-0.2,0.3-0.15,0.3,0.15
			c0,0.333-0.117,0.6-0.35,0.8C53.717,104.5,53.733,104.184,54.1,103.25z"/>
		<path style="fill-rule:evenodd;clip-rule:evenodd;fill:#158434;" d="M54.15,108.25c0.367-0.267,0.55-0.116,0.55,0.45
			c0.033,0.566-0.1,0.916-0.4,1.05c-0.3,0.1-0.45-0.083-0.45-0.55C53.817,108.733,53.917,108.417,54.15,108.25z"/>
		<path style="fill-rule:evenodd;clip-rule:evenodd;fill:#158434;" d="M55.3,106.2c0.167-0.167,0.233-0.117,0.2,0.149
			s-0.133,0.567-0.3,0.9c-0.167,0.333-0.25,0.3-0.25-0.1C54.983,106.75,55.1,106.434,55.3,106.2z"/>
		<path style="fill-rule:evenodd;clip-rule:evenodd;fill:#158434;" d="M52.4,108.35c0.233-0.233,0.2,0.167-0.1,1.2
			c-0.3,1.033-0.533,1.566-0.7,1.601c-0.167,0.066-0.133-0.334,0.1-1.2C51.933,109.083,52.167,108.55,52.4,108.35z"/>
		<path style="fill-rule:evenodd;clip-rule:evenodd;fill:#158434;" d="M53,109.1c0.4-0.3,0.567-0.116,0.5,0.551
			c-0.1,0.633-0.3,0.916-0.6,0.85c-0.233-0.066-0.316-0.283-0.25-0.65C52.683,109.483,52.8,109.233,53,109.1z"/>
		<path style="fill-rule:evenodd;clip-rule:evenodd;fill:#158434;" d="M53.65,111.45c0.434-0.4,0.533-0.2,0.3,0.6
			c-0.1,0.367-0.217,0.851-0.35,1.45c-0.1,0.4-0.217,0.483-0.35,0.25c-0.2-0.3-0.25-0.7-0.15-1.2S53.383,111.684,53.65,111.45z"/>
		<path style="fill-rule:evenodd;clip-rule:evenodd;fill:#158434;" d="M52.1,113.05c0.167-0.166,0.333-0.166,0.5,0
			c0.133,0.2,0.183,0.5,0.15,0.9c-0.033,0.434-0.15,0.8-0.35,1.1c-0.2,0.3-0.4,0.384-0.6,0.25c-0.233-0.133-0.316-0.483-0.25-1.05
			C51.617,113.717,51.8,113.316,52.1,113.05z"/>
		<path style="fill-rule:evenodd;clip-rule:evenodd;fill:#158434;" d="M52.05,111.1c0.133-0.233,0.267-0.267,0.4-0.1
			c0.1,0.134,0.083,0.333-0.05,0.6c-0.133,0.233-0.267,0.25-0.4,0.051C51.9,111.483,51.917,111.3,52.05,111.1z"/>
		<path style="fill-rule:evenodd;clip-rule:evenodd;fill:#158434;" d="M51.05,113.75c0.367-0.333,0.434-0.033,0.2,0.9
			c-0.2,0.966-0.417,1.449-0.65,1.449c-0.2-0.033-0.217-0.383-0.05-1.05C50.683,114.384,50.85,113.95,51.05,113.75z"/>
		<path style="fill-rule:evenodd;clip-rule:evenodd;fill:#158434;" d="M51.25,112.05c0.167-0.3,0.267-0.35,0.3-0.149
			c0.067,0.166,0.017,0.399-0.15,0.699c-0.133,0.367-0.233,0.434-0.3,0.2C51.067,112.566,51.117,112.316,51.25,112.05z"/>
		<path style="fill-rule:evenodd;clip-rule:evenodd;fill:#158434;" d="M52.4,115.9c0.333-0.233,0.45,0,0.35,0.699
			c-0.133,0.733-0.317,1.051-0.55,0.95c-0.233-0.066-0.317-0.316-0.25-0.75C52.017,116.366,52.167,116.066,52.4,115.9z"/>
	</g>
	<g>
		
			<linearGradient id="SVGID_43_" gradientUnits="userSpaceOnUse" x1="-129.873" y1="22.7769" x2="-104.4109" y2="22.7769" gradientTransform="matrix(0.054 -0.9985 0.9985 0.054 -4.974753e-005 3.626198e-004)">
			<stop  offset="0" style="stop-color:#3A3866"/>
			<stop  offset="0.1608" style="stop-color:#35425F"/>
			<stop  offset="0.4353" style="stop-color:#285D4E"/>
			<stop  offset="0.7569" style="stop-color:#158434"/>
			<stop  offset="1" style="stop-color:#70A834"/>
		</linearGradient>
		<path style="fill-rule:evenodd;clip-rule:evenodd;fill:url(#SVGID_43_);" d="M21.1,113.9c-2.3,5.666-3.15,12.383-2.55,20.149
			c-0.1,0.267-0.5,0.45-1.2,0.55c-0.4,0.067-0.767,0.017-1.1-0.149l-0.35-0.3c-0.133-1.434-0.1-3.417,0.1-5.95
			c0.367-5.167,1.55-10.2,3.55-15.101c1.8-4.133,1.467-7.149-1-9.05c-0.667-0.566-1.45-0.883-2.35-0.95
			c-0.967-0.066-1.717,0.217-2.25,0.851c-0.467,0.467-0.75,1.017-0.85,1.649c-0.067,0.534,0,1.25,0.2,2.15
			c0.4,0.967,0.95,1.7,1.65,2.2c0.733,0.566,1.45,0.7,2.15,0.399c0.667-0.3,1.15-0.8,1.45-1.5c0.267-0.699,0.25-1.35-0.05-1.949
			c-0.433-0.9-1.167-1.4-2.2-1.5c-1.1-0.101-1.667,0.3-1.7,1.199c-0.033,0.801,0.383,1.483,1.25,2.051
			c0.467,0.3,0.933,0.283,1.4-0.051c0.37-0.309,0.612-0.691,0.725-1.149c-0.001,0.105,0.007,0.271,0.025,0.5
			c-0.067,0.5-0.383,0.899-0.95,1.2c-0.367,0.133-0.8,0.116-1.3-0.051c-0.533-0.166-0.933-0.433-1.2-0.8
			c-0.4-0.467-0.633-0.983-0.7-1.55c-0.067-0.667,0.133-1.267,0.6-1.8c0.5-0.434,1.1-0.634,1.8-0.601
			c0.767,0.034,1.417,0.317,1.95,0.851c1.066,1.066,1.55,2.267,1.45,3.6c-0.1,0.867-0.45,1.55-1.05,2.05
			c-0.667,0.601-1.483,0.834-2.45,0.7c-1.9-0.3-3.2-1.366-3.9-3.2c-0.333-0.866-0.483-1.616-0.45-2.25
			c0-0.833,0.284-1.733,0.85-2.699c0.333-0.5,0.85-0.9,1.55-1.2c0.767-0.334,1.517-0.45,2.25-0.351
			c1.167,0.101,2.25,0.517,3.25,1.25c1.533,1.134,2.35,2.834,2.45,5.101C22.283,110.1,21.933,112,21.1,113.9z"/>
		<path style="fill-rule:evenodd;clip-rule:evenodd;fill:#158434;" d="M19.55,114.2c0.333-0.367,0.5-0.3,0.5,0.2
			c0.034,0.5-0.1,0.899-0.4,1.199c-0.3,0.301-0.467,0.217-0.5-0.25C19.15,114.884,19.283,114.5,19.55,114.2z"/>
		<path style="fill-rule:evenodd;clip-rule:evenodd;fill:#158434;" d="M20.85,112.7c0.3-0.2,0.417-0.033,0.35,0.5
			c-0.1,0.533-0.25,0.816-0.45,0.85c-0.2,0-0.3-0.184-0.3-0.55C20.483,113.134,20.617,112.866,20.85,112.7z"/>
		<path style="fill-rule:evenodd;clip-rule:evenodd;fill:#158434;" d="M20.75,111.6c0.2-0.233,0.35-0.233,0.45,0
			c0.066,0.233,0.017,0.434-0.15,0.601c-0.2,0.1-0.316,0.05-0.35-0.15C20.633,111.85,20.65,111.7,20.75,111.6z"/>
		<path style="fill-rule:evenodd;clip-rule:evenodd;fill:#158434;" d="M19.75,113.1c0.1-0.1,0.15-0.066,0.15,0.101
			c0,0.166-0.066,0.316-0.2,0.45C19.5,113.816,19.517,113.634,19.75,113.1z"/>
		<path style="fill-rule:evenodd;clip-rule:evenodd;fill:#158434;" d="M19.75,115.85c0.233-0.133,0.35-0.05,0.35,0.25
			c0.033,0.301-0.05,0.483-0.25,0.551c-0.167,0.066-0.25-0.017-0.25-0.25C19.567,116.134,19.617,115.95,19.75,115.85z"/>
		<path style="fill-rule:evenodd;clip-rule:evenodd;fill:#158434;" d="M18.7,115.9c0.133-0.134,0.117,0.083-0.05,0.649
			c-0.2,0.566-0.35,0.867-0.45,0.9c-0.1,0.033-0.083-0.184,0.05-0.65C18.417,116.333,18.567,116.033,18.7,115.9z"/>
		<path style="fill-rule:evenodd;clip-rule:evenodd;fill:#158434;" d="M19.05,116.35c0.233-0.166,0.333-0.083,0.3,0.25
			c-0.033,0.367-0.15,0.534-0.35,0.5c-0.133-0.033-0.183-0.149-0.15-0.35S18.95,116.417,19.05,116.35z"/>
		<path style="fill-rule:evenodd;clip-rule:evenodd;fill:#158434;" d="M19.45,117.6c0.267-0.199,0.333-0.083,0.2,0.351
			c-0.033,0.066-0.117,0.333-0.25,0.8c-0.066,0.2-0.133,0.233-0.2,0.1c-0.1-0.133-0.117-0.35-0.05-0.649
			C19.183,117.934,19.283,117.733,19.45,117.6z"/>
		<path style="fill-rule:evenodd;clip-rule:evenodd;fill:#158434;" d="M18.5,118.5c0.1-0.1,0.2-0.1,0.3,0
			c0.067,0.1,0.1,0.267,0.1,0.5c-0.033,0.233-0.1,0.434-0.2,0.6c-0.133,0.167-0.25,0.217-0.35,0.15c-0.167-0.1-0.233-0.3-0.2-0.6
			C18.217,118.884,18.333,118.667,18.5,118.5z"/>
		<path style="fill-rule:evenodd;clip-rule:evenodd;fill:#158434;" d="M18.45,117.4c0.066-0.101,0.15-0.117,0.25-0.051
			c0.066,0.101,0.066,0.217,0,0.351c-0.1,0.133-0.184,0.149-0.25,0.05C18.383,117.616,18.383,117.5,18.45,117.4z"/>
		<path style="fill-rule:evenodd;clip-rule:evenodd;fill:#158434;" d="M17.85,118.85c0.233-0.166,0.283,0,0.15,0.5
			c-0.133,0.534-0.267,0.801-0.4,0.801c-0.1-0.034-0.117-0.233-0.05-0.601C17.65,119.184,17.75,118.95,17.85,118.85z"/>
		<path style="fill-rule:evenodd;clip-rule:evenodd;fill:#158434;" d="M18,117.95c0.067-0.167,0.117-0.2,0.15-0.101
			c0.033,0.101,0.017,0.233-0.05,0.4c-0.1,0.2-0.167,0.233-0.2,0.1C17.9,118.217,17.933,118.083,18,117.95z"/>
		<path style="fill-rule:evenodd;clip-rule:evenodd;fill:#158434;" d="M18.7,120.05c0.2-0.133,0.267,0,0.2,0.4
			c-0.066,0.399-0.183,0.566-0.35,0.5c-0.133-0.033-0.183-0.184-0.15-0.45C18.467,120.267,18.567,120.116,18.7,120.05z"/>
	</g>
	
		<linearGradient id="SVGID_44_" gradientUnits="userSpaceOnUse" x1="-139.8154" y1="52.5967" x2="-124.9904" y2="52.5967" gradientTransform="matrix(6.745363e-005 -1 1 -0.001 6.801740e-006 -2.819016e-004)">
		<stop  offset="0" style="stop-color:#242224"/>
		<stop  offset="0.0431" style="stop-color:#242629"/>
		<stop  offset="0.698" style="stop-color:#225F70"/>
		<stop  offset="1" style="stop-color:#21758C"/>
	</linearGradient>
	<path style="fill-rule:evenodd;clip-rule:evenodd;fill:url(#SVGID_44_);" d="M50.3,141.25c0.167-3.967,1.1-7.816,2.8-11.55
		l1.775-3.175c-1.136,2.301-1.845,5.259-2.125,8.875c-0.167,2.133-0.183,4.033-0.05,5.699C51.667,141.6,50.867,141.65,50.3,141.25z"
		/>
	<linearGradient id="SVGID_45_" gradientUnits="userSpaceOnUse" x1="38.9497" y1="116.4375" x2="38.9497" y2="140.0625">
		<stop  offset="0" style="stop-color:#365387"/>
		<stop  offset="0.3176" style="stop-color:#31456B"/>
		<stop  offset="1" style="stop-color:#242224"/>
	</linearGradient>
	<path style="fill-rule:evenodd;clip-rule:evenodd;fill:url(#SVGID_45_);" d="M38.35,122.5c2.4,5.733,3.717,11.667,3.95,17.8
		c-0.833,0.533-1.966,0.566-3.4,0.101c0.2-2.601,0.167-5.584-0.1-8.95c-0.438-5.9-1.504-10.65-3.2-14.25L38.35,122.5z"/>
	
		<use xlink:href="#flash0.ai_x5F_0_x2F_Layer_3_x2F__x3C_Path_x3E__x5F_6_x5F_0"  width="79.1" height="57.747" y="-57.702" transform="matrix(1 0 0 -1 31.2998 8.6499)" style="overflow:visible;opacity:0.2305;enable-background:new    ;"/>
	<g>
		
			<linearGradient id="SVGID_46_" gradientUnits="userSpaceOnUse" x1="-57.5903" y1="71.4971" x2="-7.1011" y2="71.4971" gradientTransform="matrix(0.024 -0.9997 0.9997 0.024 -3.573075e-004 5.607307e-005)">
			<stop  offset="0" style="stop-color:#00263D"/>
			<stop  offset="0.5451" style="stop-color:#00562E"/>
			<stop  offset="1" style="stop-color:#599D4A"/>
		</linearGradient>
		<path style="fill-rule:evenodd;clip-rule:evenodd;fill:url(#SVGID_46_);" d="M96.95,10.75c1.899,1.433,3.434,4.017,4.6,7.75
			c0.434,1.467,1.101,4.5,2,9.1c0.934,4.9,1.55,8.867,1.851,11.9c0.199,1.9,0.517,3.383,0.949,4.45
			c0.601,1.466,1.584,2.533,2.95,3.2c4.5,2.2,5.417,4.033,2.75,5.5c-1.3,0.733-3.45,0.417-6.45-0.95
			c-2.488-1.146-4.463-0.729-5.925,1.25c0.192-0.276,0.434-0.676,0.726-1.2c0.333-0.567,0.716-0.967,1.149-1.2
			c-0.866,0.3-2.066,1.167-3.6,2.6c-1.434,1.333-2.667,2.1-3.7,2.3c-1.634-0.167-2.866-0.284-3.7-0.35
			c-1.566-0.1-2.533,0.467-2.899,1.7c0.216-0.863,0.557-1.53,1.024-2c-0.905,0.853-1.613,1.502-2.125,1.95
			c-0.967,0.833-1.816,1.35-2.55,1.55c-0.733,0.2-1.366,0.017-1.9-0.55c-0.6-0.633-1.133-0.917-1.6-0.85
			c-0.467,0.1-0.934,0.567-1.4,1.4c-0.366,0.667-0.616,1.317-0.75,1.95c0.034-0.833,0.084-1.433,0.15-1.8
			c-0.434,0.066-1,0.383-1.7,0.95c-0.7,0.6-1.3,0.95-1.8,1.05c-1.033,0.167-2.05-0.1-3.05-0.8c-0.334-0.233-1.15-1-2.45-2.3
			c-1.767-1.7-3.933-3.083-6.5-4.15c-2.892-1.193-5.075-1.276-6.55-0.25c0.842-0.718,1.842-1.218,3-1.5
			c-0.867-0.267-1.95-0.15-3.25,0.35c-0.6,0.233-1.65,0.8-3.15,1.7c-1.267,0.767-2.333,1.25-3.2,1.45
			c-1.3,0.333-3.25-0.017-5.85-1.05c-2.467-0.967-4.433-1.167-5.9-0.6c-0.934,0.367-1.883,1.184-2.85,2.45
			c-1.133,1.533-1.967,2.5-2.5,2.9c-0.467,0.333-0.95,0.434-1.45,0.3c-0.667-0.2-1.117-0.284-1.35-0.25
			c-0.3,0.033-0.7,0.216-1.2,0.55c-0.6,0.367-1.067,0.6-1.4,0.7c-0.934-1.333-0.467-3.833,1.4-7.5c0.4-0.767,1.117-1.717,2.15-2.85
			c1.967-2.167,3.25-5.35,3.85-9.55c0.333-4.833,0.65-8.367,0.95-10.6c0.6-4.534,0.95-7.05,1.05-7.55c0.767-3.467,1.9-5.566,3.4-6.3
			c1.133-0.567,3.167-1.45,6.1-2.65c3-1.333,5.75-2.784,8.25-4.35C60.533,4.833,68.033,3.333,77,4.1
			C85.333,4.8,91.983,7.017,96.95,10.75z"/>
		
			<linearGradient id="SVGID_47_" gradientUnits="userSpaceOnUse" x1="-58.6187" y1="72.1821" x2="-3.6277" y2="72.1821" gradientTransform="matrix(0.0241 -0.9997 0.9997 0.0241 2.667494e-004 2.452284e-004)">
			<stop  offset="0" style="stop-color:#0D3F4D"/>
			<stop  offset="0.3255" style="stop-color:#186042"/>
			<stop  offset="1" style="stop-color:#76C261"/>
		</linearGradient>
		<path style="fill-rule:evenodd;clip-rule:evenodd;fill:url(#SVGID_47_);" d="M121.85,21.55c5.334,2.367,9.4,5.184,12.2,8.45
			c4.233,4.9,3.95,9.617-0.85,14.15c-1.634,1.533-4.3,2.917-8,4.15c-1.533,0.467-2.684,0.817-3.45,1.05
			c-1.434,0.467-2.5,1.017-3.2,1.65c-0.467,0.4-0.866,1.067-1.2,2c-0.399,1.1-0.733,1.817-1,2.15c-0.666,0.867-1.483,1.3-2.449,1.3
			c0.633-0.1,1.149-0.434,1.55-1c0.366-0.534,0.55-1.133,0.55-1.8c-0.366,0.667-0.667,1.15-0.9,1.45
			c-0.399,0.533-0.866,0.833-1.399,0.9c-0.667,0.067-1.084-0.433-1.25-1.5c-0.033-0.167-0.066-0.6-0.101-1.3
			c-0.033-0.733-0.033-1.117,0-1.15c-1,0.867-3.033,0.217-6.1-1.95c-2.889-2.036-4.973-2.21-6.25-0.525
			c0.197-0.272,0.447-0.681,0.75-1.225c0.333-0.533,0.7-0.917,1.1-1.15c-0.933,0.333-2.083,1.117-3.449,2.35
			c-1.367,1.3-2.417,2.083-3.15,2.35c-1.934,0.733-3.167,0.55-3.7-0.55c-0.566-1.1,0.05-2.2,1.851-3.3
			c-1.134,0.567-2.767,1.817-4.9,3.75c-2.033,1.8-3.684,2.967-4.95,3.5c-0.366,0.133-0.816-0.167-1.35-0.9
			c-0.533-0.767-0.983-1.133-1.351-1.1c-0.366,0.034-0.683,0.317-0.949,0.85c-0.233,0.667-0.417,1.1-0.551,1.3
			c-0.666,1.2-1.433,1.816-2.3,1.85c-0.7,0-1.583-0.4-2.649-1.2c-1.101-0.733-2.034-1.367-2.801-1.9
			c-1.455-0.992-2.222-1.643-2.3-1.95c0.336,1.436,1.169,2.902,2.5,4.4c-0.967-0.367-1.983-1.066-3.05-2.1
			c-1.167-1.233-2.067-2.133-2.7-2.7c-1.6-1.434-3.733-2.317-6.4-2.65c-1.7-0.233-3.55,0.283-5.55,1.55
			c-2.533,1.6-4.233,2.517-5.1,2.75c1.5-0.5,2.333-1.217,2.5-2.15c-1.033,0.4-2.383,0.4-4.05,0c-1.967-0.5-3.617-0.75-4.95-0.75
			c-1.7,0.033-3.283,0.467-4.75,1.3c-0.367,0.2-1.333,1.483-2.9,3.85c-1.267,1.9-2.417,2.65-3.45,2.25
			c-0.6-0.233-0.967-0.683-1.1-1.35c-0.1-0.633,0.034-1.233,0.4-1.8c-1.2,0.767-1.733,2.066-1.6,3.9
			c-0.3-0.667-0.367-1.417-0.2-2.25c0.133-0.8,0.417-1.5,0.85-2.1c-0.6,0.3-1.317,1.583-2.15,3.85c-0.733,2-1.483,2.95-2.25,2.85
			c-1-0.167-1.45-1.25-1.35-3.25c0.1-2.633,0.133-4.017,0.1-4.15c-0.267-0.8-2.167-1.9-5.7-3.3c-4.167-1.633-7.033-3.133-8.6-4.5
			C6.233,42.867,4.933,39.233,5.9,35c0.867-3.867,3.317-7.383,7.35-10.55c3.5-2.767,8.517-5.35,15.05-7.75
			c3.4-1.267,7.467-2.767,12.2-4.5c1.133-0.567,3.15-1.45,6.05-2.65c3-1.333,5.767-2.783,8.3-4.35c6.233-3.9,13.4-5.6,21.5-5.1
			C84.217,0.6,91.2,3.033,97.3,7.4c3.167,2.267,7.267,4.85,12.3,7.75C114.6,18.05,118.684,20.183,121.85,21.55z"/>
		<g>
			
				<use xlink:href="#flash0.ai_x5F_0_x2F_Layer_3_x2F__x3C_Path_x3E__x5F_8_x5F_0"  width="67.606" height="24.395" x="-0.026" y="-24.4" transform="matrix(1 0 0 -1 62.5 18.9502)" style="overflow:visible;opacity:0.1016;enable-background:new    ;"/>
			
				<use xlink:href="#flash0.ai_x5F_0_x2F_Layer_3_x2F__x3C_Path_x3E__x5F_7_x5F_0"  width="53.955" height="13.414" x="-0.155" y="-13.4" transform="matrix(1 0 0 -1 53.4502 7.0498)" style="overflow:visible;opacity:0.1016;enable-background:new    ;"/>
			
				<use xlink:href="#flash0.ai_x5F_0_x2F_Layer_3_x2F__x3C_Path_x3E__x5F_6_x5F_1"  width="22.867" height="11.041" y="-11.041" transform="matrix(1 0 0 -1 110.2002 32.8999)" style="overflow:visible;opacity:0.1016;enable-background:new    ;"/>
			
				<use xlink:href="#flash0.ai_x5F_0_x2F_Layer_3_x2F__x3C_Path_x3E__x5F_5"  width="50.928" height="22.816" x="-0.044" y="-22.788" transform="matrix(1 0 0 -1 8.7002 23.3999)" style="overflow:visible;opacity:0.1016;enable-background:new    ;"/>
			
				<use xlink:href="#flash0.ai_x5F_0_x2F_Layer_3_x2F__x3C_Path_x3E__x5F_4"  width="24.7" height="8.156" y="-8.156" transform="matrix(1 0 0 -1 61.2998 34.2998)" style="overflow:visible;opacity:0.1016;enable-background:new    ;"/>
			
				<use xlink:href="#flash0.ai_x5F_0_x2F_Layer_3_x2F__x3C_Path_x3E__x5F_3"  width="14.95" height="2.191" y="-2.211" transform="matrix(1 0 0 -1 85.9004 41)" style="overflow:visible;opacity:0.1016;enable-background:new    ;"/>
			
				<use xlink:href="#flash0.ai_x5F_0_x2F_Layer_3_x2F__x3C_Path_x3E__x5F_2"  width="22.8" height="3.276" y="-3.276" transform="matrix(1 0 0 -1 33.2998 23)" style="overflow:visible;opacity:0.1016;enable-background:new    ;"/>
			
				<use xlink:href="#flash0.ai_x5F_0_x2F_Layer_3_x2F__x3C_Path_x3E__x5F_1"  width="21.188" height="10.569" x="-0.004" y="-10.553" transform="matrix(1 0 0 -1 30.2998 9.75)" style="overflow:visible;opacity:0.1016;enable-background:new    ;"/>
			
				<use xlink:href="#flash0.ai_x5F_0_x2F_Layer_3_x2F__x3C_Path_x3E_"  width="8.003" height="2.8" y="-2.75" transform="matrix(1 0 0 -1 44.0498 18.7998)" style="overflow:visible;opacity:0.1016;enable-background:new    ;"/>
		</g>
	</g>
	
		<linearGradient id="SVGID_48_" gradientUnits="userSpaceOnUse" x1="-142.7451" y1="69.5908" x2="-108.5951" y2="69.5908" gradientTransform="matrix(2.928258e-005 -1 1 -0.001 4.012236e-005 2.105520e-004)">
		<stop  offset="0" style="stop-color:#242224"/>
		<stop  offset="0.6784" style="stop-color:#196853"/>
		<stop  offset="1" style="stop-color:#158466"/>
	</linearGradient>
	<path style="fill-rule:evenodd;clip-rule:evenodd;fill:url(#SVGID_48_);" d="M65.5,145.75c0.3-9.066,1.917-17.85,4.85-26.35
		l3.325-7.676c-2.06,5.3-3.335,12.259-3.825,20.875c-0.3,5-0.333,9.434-0.1,13.301c-0.9,0.699-1.883,0.883-2.95,0.55L65.5,145.75z"
		/>
	
		<linearGradient id="SVGID_49_" gradientUnits="userSpaceOnUse" x1="-144.5205" y1="70.4336" x2="-127.7205" y2="70.4336" gradientTransform="matrix(5.952382e-005 -1 1 -0.001 5.399737e-005 2.105520e-004)">
		<stop  offset="0" style="stop-color:#242224"/>
		<stop  offset="0.6784" style="stop-color:#196853"/>
		<stop  offset="1" style="stop-color:#158466"/>
	</linearGradient>
	<path style="fill-rule:evenodd;clip-rule:evenodd;fill:url(#SVGID_49_);" d="M68.6,145.95c0.133-4.467,0.85-8.783,2.15-12.95
		l1.5-3.775c-0.932,2.614-1.498,6.039-1.7,10.275c-0.133,2.467-0.149,4.65-0.05,6.55C69.867,146.583,69.233,146.55,68.6,145.95z"/>
	
		<linearGradient id="SVGID_50_" gradientUnits="userSpaceOnUse" x1="-142.229" y1="104.2285" x2="-111.679" y2="104.2285" gradientTransform="matrix(3.273323e-005 -1 1 -0.001 2.342719e-004 2.105520e-004)">
		<stop  offset="0" style="stop-color:#242224"/>
		<stop  offset="0.1529" style="stop-color:#283636"/>
		<stop  offset="0.7333" style="stop-color:#367D74"/>
		<stop  offset="1" style="stop-color:#3B998C"/>
	</linearGradient>
	<path style="fill-rule:evenodd;clip-rule:evenodd;fill:url(#SVGID_50_);" d="M98.6,137.25c0.534-8.9,2.567-16.05,6.101-21.45
		c1.767-2.7,3.483-4.517,5.149-5.45c-3.566,3.634-5.767,9.2-6.6,16.7c-0.4,3.733-0.45,7.101-0.15,10.101
		c-0.8,0.566-1.783,0.75-2.949,0.55L98.6,137.25z"/>
	
		<linearGradient id="SVGID_51_" gradientUnits="userSpaceOnUse" x1="-143.8525" y1="102.4023" x2="-101.7525" y2="102.4023" gradientTransform="matrix(2.375297e-005 -1 1 -0.001 5.053812e-005 2.105520e-004)">
		<stop  offset="0" style="stop-color:#242224"/>
		<stop  offset="0.1804" style="stop-color:#24373C"/>
		<stop  offset="0.7412" style="stop-color:#267483"/>
		<stop  offset="1" style="stop-color:#268C9F"/>
	</linearGradient>
	<path style="fill-rule:evenodd;clip-rule:evenodd;fill:url(#SVGID_51_);" d="M96,136.95c0.533-14.2,2.816-24.617,6.85-31.25
		c2.034-3.334,4.017-5.25,5.95-5.75c-4.233,2.533-6.95,9.55-8.149,21.05c-0.601,5.767-0.784,11.267-0.551,16.5
		c-1.267,0.333-2.333,0.35-3.199,0.05L96,136.95z"/>
	<linearGradient id="SVGID_52_" gradientUnits="userSpaceOnUse" x1="13.6001" y1="110.2373" x2="13.6001" y2="133.0623">
		<stop  offset="0" style="stop-color:#158466"/>
		<stop  offset="0.4039" style="stop-color:#236866"/>
		<stop  offset="1" style="stop-color:#3A3866"/>
	</linearGradient>
	<path style="fill-rule:evenodd;clip-rule:evenodd;fill:url(#SVGID_52_);" d="M16.25,133.75c-0.233,0.2-0.517,0.35-0.85,0.45
		c-0.667,0.233-1.283,0.133-1.85-0.3c0.167-2.334,0.15-5-0.05-8c-0.351-5.29-1.201-9.54-2.55-12.75l2.2,4.75
		C15.017,123,16.05,128.283,16.25,133.75z"/>
	<linearGradient id="SVGID_53_" gradientUnits="userSpaceOnUse" x1="62.0747" y1="111.5752" x2="62.0747" y2="144.0252">
		<stop  offset="0" style="stop-color:#158466"/>
		<stop  offset="0.3216" style="stop-color:#196853"/>
		<stop  offset="1" style="stop-color:#242224"/>
	</linearGradient>
	<path style="fill-rule:evenodd;clip-rule:evenodd;fill:url(#SVGID_53_);" d="M59.55,114.4l2.3,8.05
		c1.7,7.333,2.617,14.934,2.75,22.8c-1.1,0.634-2.017,0.75-2.75,0.35c0.133-3.366,0.117-7.216-0.05-11.55
		C61.511,125.704,60.761,119.153,59.55,114.4z"/>
</g>
</svg>
