<?xml version="1.0" encoding="iso-8859-1"?>
<!-- Generator: Adobe Illustrator 15.1.0, SVG Export Plug-In . SVG Version: 6.00 Build 0)  -->
<!DOCTYPE svg PUBLIC "-//W3C//DTD SVG 1.1//EN" "http://www.w3.org/Graphics/SVG/1.1/DTD/svg11.dtd">
<svg version="1.1" id="flash0.ai" xmlns="http://www.w3.org/2000/svg" xmlns:xlink="http://www.w3.org/1999/xlink" x="0px" y="0px"
	 width="117.5px" height="109.2px" viewBox="0 0 117.5 109.2" style="enable-background:new 0 0 117.5 109.2;" xml:space="preserve"
	>
<symbol  id="flash0.ai_x5F_18_x2F_Layer_114_x2F__x3C_Path_x3E_" viewBox="0 -41.25 117.5 41.25">
	<g id="Layer_1_2_">
		
			<radialGradient id="SVGID_1_" cx="58.75" cy="-20.625" r="55.1073" gradientTransform="matrix(1 0 0 -0.3387 0 -27.6113)" gradientUnits="userSpaceOnUse">
			<stop  offset="0" style="stop-color:#000000;stop-opacity:0.6196"/>
			<stop  offset="1" style="stop-color:#000000;stop-opacity:0"/>
		</radialGradient>
		<path style="fill-rule:evenodd;clip-rule:evenodd;fill:url(#SVGID_1_);" d="M117.5-20.65c0-5.7-5.733-10.567-17.2-14.6
			c-11.466-4-25.316-6-41.55-6s-30.083,2-41.55,6C5.733-31.217,0-26.35,0-20.65c0,5.7,5.733,10.566,17.2,14.6
			C28.667-2.017,42.517,0,58.75,0s30.083-2.017,41.55-6.05C111.767-10.083,117.5-14.95,117.5-20.65z"/>
	</g>
</symbol>
<symbol  id="flash0.ai_x5F_18_x2F_Layer_114_x2F__x3C_Path_x3E__x5F_0" viewBox="0 -20.812 84 20.834">
	<g id="Layer_1_3_">
		<path style="fill-rule:evenodd;clip-rule:evenodd;" d="M81.75-3.5c1.033-0.1,1.6-0.417,1.7-0.95c0.033-0.3-0.034-0.566-0.2-0.8v-1
			c0-0.667,0.25-1.333,0.75-2l-2.5-1.5c-0.633-0.433-1.133-1.017-1.5-1.75c-0.233-0.433-0.567-0.7-1-0.8
			c-0.833-0.067-1.667-0.133-2.5-0.2c-1.067-0.1-1.633-0.2-1.7-0.3c-0.033-0.3-0.216-0.7-0.55-1.2
			c-0.367-0.567-2.05-1.083-5.05-1.55c-3.233-0.534-5.05-0.934-5.45-1.2c-0.633-0.433-1.5-0.75-2.6-0.95
			c-1.5-0.2-2.8-0.383-3.9-0.55c-2.167-0.667-4.05-1.217-5.65-1.65c-3.033-0.767-6.483-1.05-10.35-0.85
			c-3.967,0.2-6.233,0.3-6.8,0.3c-0.034-0.033-0.35-0.05-0.95-0.05c-1.167,0-2.467,0.067-3.9,0.2c-1.833,0.2-3.2,0.466-4.1,0.8
			c-0.833,0.3-1.783,0.583-2.85,0.85c-1.433,0.333-2.65,0.633-3.65,0.9c-0.967,0.233-2.367,0.967-4.2,2.2
			c-1.767,1.2-3.117,1.883-4.05,2.05c-0.167,0.033-0.8,0.133-1.9,0.3c-0.1,0-0.55,0.15-1.35,0.45c-0.867,0.333-1.567,0.717-2.1,1.15
			c-0.133,0.1-0.6,0.55-1.4,1.35c-0.333,0.333-1.667,1.333-4,3l1,3c2.667,1.833,4.75,3,6.25,3.5c0.8,0.267,6.533,0.383,17.2,0.35
			c12-0.033,19.183,0.017,21.55,0.15c3.633,0.233,6.717,0.317,9.25,0.25c1.133-0.033,4.467-0.2,10-0.5c3.6-0.2,6-0.483,7.2-0.85
			c3.066-0.9,4.667-1.367,4.8-1.4L80.7-3.5C80.767-3.5,81.117-3.5,81.75-3.5z"/>
	</g>
</symbol>
<symbol  id="flash0.ai_x5F_18_x2F_Layer_114_x2F__x3C_Path_x3E__x5F_1" viewBox="-0.009 -18.414 25.141 18.429">
	<g id="Layer_1_5_">
		
			<radialGradient id="SVGID_2_" cx="-2949.2422" cy="-11166.9902" r="7.0374" gradientTransform="matrix(0.4953 -0.8687 -1.7084 -0.974 -17604.3535 -13447.4316)" gradientUnits="userSpaceOnUse">
			<stop  offset="0" style="stop-color:#FFFFFF"/>
			<stop  offset="1" style="stop-color:#FFFFFF;stop-opacity:0"/>
		</radialGradient>
		<path style="fill-rule:evenodd;clip-rule:evenodd;fill:url(#SVGID_2_);" d="M16.05-15.3c-3.333-1.9-6.517-2.934-9.55-3.1
			c-3.033-0.133-5.033,0.65-6,2.35c-0.933,1.7-0.583,3.816,1.05,6.35c1.667,2.534,4.167,4.75,7.5,6.65
			C12.383-1.183,15.567-0.167,18.6,0c3.033,0.133,5.033-0.65,6-2.35c0.967-1.667,0.617-3.783-1.05-6.35
			C21.85-11.233,19.35-13.433,16.05-15.3z"/>
	</g>
</symbol>
<symbol  id="flash0.ai_x5F_18_x2F_Layer_114_x2F__x3C_Path_x3E__x5F_2" viewBox="-0.029 -34.672 24.758 34.694">
	<g id="Layer_1_4_">
		
			<radialGradient id="SVGID_3_" cx="-2980.4883" cy="-5245.8496" r="8.6595" gradientTransform="matrix(0.8624 -0.5062 -1.1335 -1.9311 -3363.4824 -11656.2568)" gradientUnits="userSpaceOnUse">
			<stop  offset="0" style="stop-color:#FFFFFF"/>
			<stop  offset="1" style="stop-color:#FFFFFF;stop-opacity:0"/>
		</radialGradient>
		<path style="fill-rule:evenodd;clip-rule:evenodd;fill:url(#SVGID_3_);" d="M19.85-21.7c-2.733-4.633-5.783-8.15-9.15-10.55
			c-3.4-2.433-6.133-3.033-8.2-1.8c-2.067,1.2-2.867,3.867-2.4,8c0.467,4.1,2.066,8.466,4.8,13.1C7.6-8.317,10.633-4.8,14-2.4
			c3.4,2.433,6.133,3.033,8.2,1.8c2.066-1.2,2.867-3.867,2.4-8C24.133-12.7,22.55-17.067,19.85-21.7z"/>
	</g>
</symbol>
<symbol  id="flash0.ai_x5F_18_x2F_Layer_114_x2F__x3C_Path_x3E__x5F_3" viewBox="-0.045 -17.678 17.462 17.679">
	<g id="Layer_1_6_">
		
			<radialGradient id="SVGID_4_" cx="-2987.4775" cy="-5238.7178" r="8.6673" gradientTransform="matrix(0.8625 -0.5061 -0.5179 -0.8825 -127.5449 -6144.1392)" gradientUnits="userSpaceOnUse">
			<stop  offset="0" style="stop-color:#FFFFFF"/>
			<stop  offset="1" style="stop-color:#FFFFFF;stop-opacity:0"/>
		</radialGradient>
		<path style="fill-rule:evenodd;clip-rule:evenodd;fill:url(#SVGID_4_);" d="M16.15-13.25c-1.233-2.1-3.017-3.467-5.35-4.1
			c-2.333-0.633-4.533-0.35-6.6,0.85c-2.067,1.233-3.383,3.017-3.95,5.35c-0.6,2.333-0.283,4.566,0.95,6.7
			c1.267,2.1,3.066,3.467,5.4,4.1c2.333,0.667,4.533,0.383,6.6-0.85c2.066-1.2,3.383-2.983,3.95-5.35
			C17.717-8.883,17.383-11.117,16.15-13.25z"/>
	</g>
</symbol>
<g>
	<g>
		
			<use xlink:href="#flash0.ai_x5F_18_x2F_Layer_114_x2F__x3C_Path_x3E_"  width="117.5" height="41.25" y="-41.25" transform="matrix(1 0 0 -1 0 67.9502)" style="overflow:visible;opacity:0.6289;enable-background:new    ;"/>
	</g>
	<g>
		
			<use xlink:href="#flash0.ai_x5F_18_x2F_Layer_114_x2F__x3C_Path_x3E__x5F_0"  width="84" height="20.834" y="-20.812" transform="matrix(1 0 0 -1 15.75 81.9502)" style="overflow:visible;opacity:0.1406;enable-background:new    ;"/>
	</g>
	<g>
		<path style="fill-rule:evenodd;clip-rule:evenodd;fill:#787049;" d="M87.25,47.9c0.333,4.9,0.917,8.6,1.75,11.1
			s1.783,6.7,2.85,12.6c0.567,3.101,1.184,6.784,1.851,11.051c0.434,2.666,0.983,4.55,1.649,5.649c-1,0.967-2.366,2-4.1,3.101
			c-3.5,2.233-7.134,3.767-10.9,4.6c-1.166,0.267-4.183,1.134-9.05,2.6C68.9,99.3,66.134,99.65,63,99.65
			c-1.333,0-4.3,0.133-8.9,0.399c-2.533,0.134-4.9,0-7.1-0.399c-2.033-0.367-4.483-1.034-7.35-2c-3.066-1.034-5.283-1.7-6.65-2
			c-2.333-0.5-4.883-1.801-7.65-3.9c-3.767-2.833-5.767-4.316-6-4.45c0-1.033,0.1-2.333,0.3-3.899c0.4-3.101,1.083-5.9,2.05-8.4
			c1.233-3.2,2.566-7.35,4-12.45C27.233,57.15,28,53.733,28,52.3c0-1.2,0.117-2.9,0.35-5.1c0.333-2.467,0.55-4.317,0.65-5.55
			c0.167-1.667,0.967-3.833,2.4-6.5c1.2-2.267,2.4-4.1,3.6-5.5c1.333-1.533,2.783-4.316,4.35-8.35l2-5l3.25-3.5
			c2.433-2.6,4.35-4.533,5.75-5.8c2.233-2,6.017-4.333,11.35-7l3.45,1.25c2.5,1.2,4.233,2.783,5.199,4.75
			c1.034,2.067,1.784,4.4,2.25,7c0.267,1.467,0.517,3.8,0.75,7c0.167,2.267,1,5.533,2.5,9.8c1.467,4.133,2.634,6.633,3.5,7.5
			c1.101,1.133,3.65,2.467,7.65,4L87.25,47.9z"/>
		<g>
			<path style="fill-rule:evenodd;clip-rule:evenodd;fill:#877B54;" d="M68.45,12.95c-1.533,1.233-2.783,2.917-3.75,5.05
				c-0.967,2.067-1.233,4.45-0.8,7.15c0.267,1.567,0.75,3.95,1.449,7.15c0.334,2.467,0.65,5.184,0.95,8.15
				c-0.166-0.333-1.149-1.034-2.95-2.1c-1.899-1.133-3.116-2.033-3.649-2.7c-0.7-0.833-1.601-2.133-2.7-3.9
				c-1.2-2.067-2.083-3.55-2.65-4.45c-0.7-1.1-1.184-2.533-1.45-4.3l-0.2-2.35l3.3-5c-3.1-0.233-5.317-0.35-6.65-0.35
				c-1.033,0-2.083,0.3-3.15,0.9c-1.167,0.6-2.567,1.633-4.2,3.1c-0.633,0.6-1.45,1.1-2.45,1.5l1.8-4.5l3.25-3.5
				c2.433-2.6,4.35-4.533,5.75-5.8c2.233-2,6.017-4.333,11.35-7l3.45,1.25c2.5,1.2,4.233,2.783,5.199,4.75
				c0.7,1.4,1.267,2.933,1.7,4.6L72,10.65C70.5,11.483,69.316,12.25,68.45,12.95z"/>
		</g>
		<path style="fill-rule:evenodd;clip-rule:evenodd;fill:#615A3B;" d="M83.95,45.3c1.633-1.667,2.649-2.683,3.05-3.05
			c0.134,7.533,0.8,13.116,2,16.75c0.833,2.5,1.783,6.7,2.85,12.6c0.567,3.101,1.184,6.784,1.851,11.051
			c0.434,2.666,0.983,4.55,1.649,5.649c-1,0.967-2.366,2-4.1,3.101c-3.5,2.233-7.134,3.767-10.9,4.6
			c-1.166,0.267-4.183,1.134-9.05,2.6C68.9,99.3,66.134,99.65,63,99.65c-1.333,0-4.3,0.133-8.9,0.399c-2.533,0.134-4.9,0-7.1-0.399
			c-2.033-0.367-4.483-1.034-7.35-2c-3.066-1.034-5.283-1.7-6.65-2c-2.333-0.5-4.883-1.801-7.65-3.9
			c-3.767-2.833-5.767-4.316-6-4.45V86.9l1.35,0.75c2.2,1.1,4.117,1.833,5.75,2.199c1.333,0.301,3.083,0.45,5.25,0.45
			c1.333,0,2.5,0.017,3.5,0.05c0.466-0.033,1.3-0.267,2.5-0.699c1.033-0.4,1.733-1,2.1-1.801c0.5-1.133,0.8-1.75,0.9-1.85
			c0.433-0.4,1.117-1.25,2.05-2.55l1.25-1.8L47,85c0.5,0.5,1.167,0.767,2,0.8c0.8,0.033,2.133-0.133,4-0.5
			c1.667-0.3,2.817-0.816,3.45-1.55c0.133-0.134,1.216-1.833,3.25-5.1c1.333-2.134,1.733-4.434,1.2-6.9
			c-0.9-2.833-1.417-5.2-1.551-7.1c-0.133-2.367,0.25-4.917,1.15-7.65c1.134-2.8,1.866-4.7,2.2-5.7
			c0.434-1.333,0.75-2.583,0.95-3.75c0.033-0.2,0.267-1.95,0.699-5.25c0.267-2.033-0.05-3.633-0.949-4.8
			c-1.034-0.9-1.601-1.517-1.7-1.85C60.3,33.483,59.1,31.4,58.1,29.4c-1.966-3.933-2.333-6.517-1.1-7.75c1.2-1.2,2-2.3,2.4-3.3
			c0.933-2.4,1.466-3.75,1.6-4.05c0.667-1.333,1.2-2.6,1.6-3.8C62.9,9.767,63.6,8.933,64.7,8c0.733-0.633,1.666-1.017,2.8-1.15
			c1.134-0.1,2.283,0.066,3.45,0.5c0.8,1.867,1.383,3.967,1.75,6.3c0.233,1.4,0.45,3.517,0.649,6.35c0.167,2.267,1,5.533,2.5,9.8
			c1.467,4.133,2.634,6.633,3.5,7.5l0.45,0.4c-0.934,0.333-1.633,0.767-2.1,1.3c-2.4,2.333-3.851,4.667-4.351,7
			c-0.267,1.267,0.051,3.417,0.95,6.45c0.434,1.533,0.9,2.934,1.4,4.2c-0.167-0.767-0.267-1.534-0.3-2.3
			c-0.067-1.5,0.25-2.184,0.949-2.05c0.601,0.133,1.2-0.233,1.801-1.1c0.899-1.333,1.75-2.3,2.55-2.9
			C81.467,47.7,82.55,46.7,83.95,45.3z"/>
		<path style="fill-rule:evenodd;clip-rule:evenodd;fill:#524C32;" d="M95.35,88.3c-1,0.967-2.366,2-4.1,3.101
			c-3.5,2.233-7.134,3.767-10.9,4.6c-1.166,0.267-4.183,1.134-9.05,2.6C68.9,99.3,66.134,99.65,63,99.65
			c-1.333,0-4.3,0.133-8.9,0.399c-2.533,0.134-4.9,0-7.1-0.399c-2.033-0.367-4.483-1.034-7.35-2c-3.066-1.034-5.283-1.7-6.65-2
			c-0.833-0.167-1.683-0.45-2.55-0.851c2.3,0.3,4.167,0.45,5.6,0.45c0.8,0,1.9-0.083,3.3-0.25c0.9-0.1,1.816-0.15,2.75-0.15
			c0.7-0.033,1.45-0.316,2.25-0.85c0.667-0.434,1.133-0.583,1.4-0.45c0.067,0.066,0.267-0.233,0.6-0.899l1-2l1,1.8
			c0.767,1.3,1.433,2.149,2,2.55l1.35,1l0.6,0.35c0.733,0.2,1.867,0.301,3.4,0.301c2.167,0,4.3-0.267,6.399-0.801
			c2.5-0.633,4.134-1.483,4.9-2.55l1.7-2.3l1.85,0.15c1.4,0.1,2.45,0.149,3.15,0.149h2.25c0.7-0.2,1.05-0.866,1.05-2l0.35-13
			l0.801,3.25c0.633,2.334,1.149,3.917,1.55,4.75c0.333,0.667,0.566,1.467,0.7,2.4c0.199,0.533,0.85,0.733,1.949,0.6
			c1.101-0.133,2.2-0.616,3.301-1.45c0.566-0.399,1.017-0.8,1.35-1.199l1-0.801c0.733-0.5,1.3-0.683,1.7-0.55
			c1.5,0.5,3.066,1.334,4.7,2.5C94.733,86.934,95.05,87.767,95.35,88.3z"/>
		<path style="fill-rule:evenodd;clip-rule:evenodd;fill:#877B54;" d="M42.35,38l2.1,0.8c1.533,0.7,2.716,1.534,3.55,2.5
			c1.333,1.567,2.567,4.017,3.7,7.35c-0.9-0.9-1.567-1.683-2-2.35c-0.3-0.4-1.117-1.133-2.45-2.2l-1.9-1.45
			c-1.333-0.233-2.55-0.683-3.65-1.35c-0.733-0.433-1.617-0.583-2.65-0.45c-1.566,0.333-3.017,0.6-4.35,0.8
			c-1.644,0.263-2.802,0.671-3.475,1.225c0.849-1.186,2.007-2.595,3.475-4.225c1.267-1.433,2.3-2.167,3.1-2.2
			C38.367,36.417,39.883,36.933,42.35,38z"/>
		<path style="fill-rule:evenodd;clip-rule:evenodd;fill:#877B54;" d="M40.35,76.3c-1.767-0.2-3.883-0.533-6.35-1
			c-1.533-0.267-3.317,0.101-5.35,1.101L26,78l5-5.35L34.35,68c0.233-0.233,0.583-0.483,1.05-0.75c0.967-0.566,2.067-0.983,3.3-1.25
			c0.9-0.2,1.9-0.333,3-0.4c1.1-0.033,2.433-0.233,4-0.6c1.667-0.4,2.667-0.9,3-1.5c0.4-0.833,0.733-1.333,1-1.5
			c1.367-0.833,2.667-1.083,3.9-0.75c0.6,0.167,1.066,0.417,1.4,0.75l-1.05,2.1c-1.034,1.534-2.45,2.717-4.25,3.551
			c-1.8,0.833-2.967,1.533-3.5,2.1c-0.233,0.267-0.3,0.45-0.2,0.55l-1.05,1c-0.8,0.9-1.55,1.9-2.25,3
			c-0.7,1.101-1.034,1.884-1,2.351c0.017,0.119,0.05,0.211,0.1,0.274L40.35,76.3z"/>
		<path style="fill-rule:evenodd;clip-rule:evenodd;fill:#877B54;" d="M61.35,72l0.101,1.05c0,1-0.15,2.2-0.45,3.601
			c-0.267,1.399-1.233,2.699-2.9,3.899c-0.899,0.634-2.033,1.334-3.399,2.101c-0.567,0.433-1.4,0.449-2.5,0.05L50.7,82
			c-1.567-2.9-2.684-4.684-3.35-5.35c-0.4-0.4,0.033-0.967,1.3-1.7L50.7,74l2.1,0.25c1.567-0.066,2.75-0.6,3.55-1.6
			c0.566-0.7,1.566-1.017,3-0.95C60.083,71.733,60.75,71.833,61.35,72z"/>
	</g>
	<g>
		<path style="fill-rule:evenodd;clip-rule:evenodd;fill:#6E6543;" d="M35.7,48.65c-0.667-0.767-1-1.483-1-2.15
			c0-0.4,0.433-0.65,1.3-0.75c0.567-0.033,1.733-0.117,3.5-0.25c0.9-0.133,1.683,0.967,2.35,3.3l-2.15,0.7L35.7,48.65z"/>
		<path style="fill-rule:evenodd;clip-rule:evenodd;fill:#6E6543;" d="M44.35,45.65c0.933-0.1,1.35,0.217,1.25,0.95
			c-0.1,0.7-0.633,1.05-1.6,1.05c-0.9,0-1.167-0.333-0.8-1C43.533,46.017,43.917,45.683,44.35,45.65z"/>
		<path style="fill-rule:evenodd;clip-rule:evenodd;fill:#6E6543;" d="M38.2,58.5c-0.633-0.4-2.067-0.85-4.3-1.35l-3.2-0.65
			l1.9-0.35c1.533-0.267,2.95-0.434,4.25-0.5c0.667-0.034,1.55-0.051,2.65-0.051c0.733,0,1.967-0.1,3.7-0.3
			c1.667-0.2,2.65-0.566,2.95-1.1c0.434-0.733,1.05-1.25,1.85-1.55c1.133-0.467,1.9-0.95,2.3-1.45c0.467-0.633,0.867-1.034,1.2-1.2
			l3,1.45c2,1.133,3,2.15,3,3.05c0,0.767-0.517,1.333-1.55,1.7c-1.434,0.5-2.417,1.033-2.95,1.6c-0.667,0.7-1.767,1.233-3.3,1.601
			c-1.7,0.366-2.817,0.733-3.35,1.1c-0.767,0.533-1.45,0.767-2.05,0.7c-0.633-0.2-1.167-0.334-1.6-0.4
			C41.867,60.7,40.367,59.934,38.2,58.5z"/>
		<path style="fill-rule:evenodd;clip-rule:evenodd;fill:#6E6543;" d="M37.5,66.8C30.967,73.366,27.133,77.1,26,78
			c-0.933,0.733-1.517,1.283-1.75,1.65c-0.067,0.166-0.25,0.783-0.55,1.85l-1.2,4.15c-0.2-0.434-0.35-1-0.45-1.7
			c-0.2-1.434-0.1-2.816,0.3-4.15c0.433-1.333,1-2.533,1.7-3.6c0.067-0.134,0.617-0.867,1.65-2.2c0.667-1,1.183-1.75,1.55-2.25
			c0.633-0.9,1.217-1.483,1.75-1.75c1.467-0.566,2.467-1.017,3-1.35c0.367-0.2,1.383-0.567,3.05-1.101
			C35.917,67.283,36.733,67.033,37.5,66.8z"/>
		<path style="fill-rule:evenodd;clip-rule:evenodd;fill:#6E6543;" d="M60,39.5c-0.333-0.967-0.45-1.85-0.35-2.65
			c0.066-0.8,0.35-1.083,0.85-0.85c1.6,0.8,2.833,1.633,3.7,2.5c0.233,0.233,0.316,0.35,0.25,0.35
			c-0.167,0.033-0.25,0.183-0.25,0.45c0,0.233,0.083,1.017,0.25,2.35c0.166,1.3,0.25,2.184,0.25,2.65
			c0,0.667-0.033,1.117-0.101,1.35c-0.1,0.2-0.399,0.583-0.899,1.15c-0.101,0.1-0.65,0.467-1.65,1.1c-0.666,0.4-1.066,1.1-1.2,2.1
			c-0.133,1.033-0.366,1.517-0.699,1.45L59.7,51c-1-0.667-1.9-1.45-2.7-2.35c-0.533-0.633-0.867-1.467-1-2.5
			c-0.133-0.967-0.067-1.583,0.2-1.85c0.167-0.167,0.433-0.233,0.8-0.2c0.667,0.033,1.333,0,2-0.1c1.1-0.167,1.717-0.517,1.85-1.05
			C60.95,42.45,60.667,41.3,60,39.5z"/>
		<path style="fill-rule:evenodd;clip-rule:evenodd;fill:#6E6543;" d="M68.7,49.8c0.866,0,1.083,0.983,0.649,2.95
			c-0.433,1.933-1.05,3.116-1.85,3.55c-0.667,0.367-1.233,0.351-1.7-0.05c-0.233-0.167-0.6-0.65-1.1-1.45
			c-0.4-0.566-0.117-1.517,0.85-2.85C66.55,50.517,67.6,49.8,68.7,49.8z"/>
		<path style="fill-rule:evenodd;clip-rule:evenodd;fill:#6E6543;" d="M65.5,65.5c0.866-0.8,2.15-1.066,3.85-0.8
			c1.667,0.233,2.5,0.717,2.5,1.45c0,0.466-0.199,0.983-0.6,1.55c-0.533,0.733-0.884,1.333-1.05,1.8c-0.467,1.1-1.634,2.533-3.5,4.3
			c-1.334-1.767-2.334-3.2-3-4.3c-0.434-0.767-0.483-1.45-0.15-2.05C63.75,67.116,64.4,66.467,65.5,65.5z"/>
		<path style="fill-rule:evenodd;clip-rule:evenodd;fill:#6E6543;" d="M69.2,75.3c1.366-0.467,2.066-0.2,2.1,0.8
			c0.066,0.967-0.467,1.934-1.6,2.9c-1.733,1.4-2.733,2.566-3,3.5c-0.101,0.267-0.283-0.1-0.55-1.1
			c-0.301-1.034-0.45-1.95-0.45-2.75C65.7,77.25,66.866,76.134,69.2,75.3z"/>
		<path style="fill-rule:evenodd;clip-rule:evenodd;fill:#6E6543;" d="M57.7,88c0.866,0.066,0.733,0.517-0.4,1.35
			c-1.1,0.834-1.966,1.217-2.6,1.15c-0.667-0.1-0.583-0.566,0.25-1.4C55.817,88.267,56.733,87.9,57.7,88z"/>
		<path style="fill-rule:evenodd;clip-rule:evenodd;fill:#6E6543;" d="M69.2,21.15c0.267-0.2,1.033-0.15,2.3,0.15
			c0.667,0.133,1.283,0.3,1.85,0.5l-0.3,1.25c-0.267,0.934-0.5,1.633-0.7,2.1c-0.133,0.333-0.416,0.733-0.85,1.2
			c-0.4,0.5-0.733,1.05-1,1.65c-0.267,0.7-0.767,1.067-1.5,1.1c-0.934-0.067-1.65-0.1-2.15-0.1c-0.6,0-1.149-0.283-1.649-0.85
			c-0.5-0.7-0.9-1.2-1.2-1.5c-0.6-0.667-2.2-1.833-4.8-3.5c-0.4-0.3-0.467-0.533-0.2-0.7c0.134-0.067,0.3-0.117,0.5-0.15h5.7
			C65.733,22.3,67.066,21.917,69.2,21.15z"/>
	</g>
	<g>
		<path style="fill-rule:evenodd;clip-rule:evenodd;fill:#615A3B;" d="M54.2,5.1c1.3-0.633,2.183-0.9,2.65-0.8
			c0.267,0.067,0.233,0.284-0.1,0.65C56.017,5.717,55.6,6.167,55.5,6.3c-0.533,0.733-0.8,1.733-0.8,3c0,0.434,0.05,1.05,0.15,1.85
			l0.85,3.65c0.1,0.333-0.184,0.833-0.85,1.5c-0.4,0.4-1.283,0.967-2.65,1.7c-0.534,0.267-0.8,0.533-0.8,0.8l0.1,1.2
			c-0.067,0.433-0.217,0.817-0.45,1.15c-0.466,0.567-0.75,0.95-0.85,1.15c-0.267,0.434-0.3,0.967-0.1,1.6c0.6,2,1.066,3.75,1.4,5.25
			c0.533,2.434,0.75,3.65,0.65,3.65c-0.063,0-0.114-0.042-0.15-0.125c0.239,0.657,0.856,1.532,1.85,2.625
			c0.133,0.2,0.4,1.017,0.8,2.45c0.434,1.433,1,2.733,1.7,3.9c0.767,1.267,0.933,1.783,0.5,1.55L56,42.5
			c-1.767,0.433-3.6,0.367-5.5-0.2c-1.067-0.333-2.067-0.716-3-1.15c-1.433-0.7-2.533-1.2-3.3-1.5
			c-1.434-0.566-2.383-0.767-2.85-0.6c-0.434,0.4-0.883,0.717-1.35,0.95c-0.5,0.233-1.317,0.533-2.45,0.9
			c-1.767,0.567-3.167,1.033-4.2,1.4c-1.533,0.567-2.717,1.067-3.55,1.5c-0.4,0.233-0.667,0.4-0.8,0.5L28.7,43
			c2.667-3.9,4.167-6.233,4.5-7c0.167-0.433,1.15-1.467,2.95-3.1c2.133-1.933,3.483-3.233,4.05-3.9c0.633-0.733,1.417-2.7,2.35-5.9
			c1-3.4,1.983-5.833,2.95-7.3c0.867-1.267,1.7-2.7,2.5-4.3c0.567-1.233,1.3-2.35,2.2-3.35C51.3,6.883,52.633,5.867,54.2,5.1z"/>
		<path style="fill-rule:evenodd;clip-rule:evenodd;fill:#615A3B;" d="M34.35,69.8c1.7-0.866,2.816-1.399,3.35-1.6
			c1.767-0.634,3.867-0.983,6.3-1.05c2.233-0.067,3.733-0.7,4.5-1.9c1.1-1.7,1.767-2.616,2-2.75c0.833-0.467,1.7-1.267,2.6-2.4
			c1.066-1.3,1.983-2.233,2.75-2.8c1.667-1.233,3.05-2.5,4.15-3.8l0.7,0.3l-0.5,3.851c-0.233,1.1-0.634,2.6-1.2,4.5
			c-0.533,0.333-1.033,0.716-1.5,1.149c-0.267,0.267-0.4,0.533-0.4,0.8c0,0.167,0.033,0.517,0.1,1.051
			c0,0.366-0.583,1.166-1.75,2.399c-1.233,1.267-1.883,2.017-1.95,2.25c-0.1,0.566-0.317,1.184-0.65,1.851
			c-0.667,0.433-1.55,0.716-2.65,0.85c-0.767,0.066-1.45,0.066-2.05,0c-0.333-0.033-1.217-0.2-2.65-0.5
			c-1.033-0.2-1.85-0.3-2.45-0.3c-0.566,0.066-1.017,0.1-1.35,0.1c-0.7,0-1.6,0.167-2.7,0.5c-0.3,0.101-0.65,0.384-1.05,0.851
			c-0.567,0.699-1.317,1.416-2.25,2.149c-1.133,0.9-2.133,1.45-3,1.65l-1,0.05c-1.2,0.2-2.284,0.184-3.25-0.05l-1.1-0.45
			c0.9-0.967,1.867-1.983,2.9-3.05C32.283,71.384,33.65,70.167,34.35,69.8z"/>
		<path style="fill-rule:evenodd;clip-rule:evenodd;fill:#615A3B;" d="M85.85,66.5c1-0.233,2.084-0.25,3.25-0.05
			c1.5,0.2,2.467,0.717,2.9,1.55c0.667,1.2,0.9,3.634,0.7,7.3c-1.8-0.333-3.084-0.333-3.851,0c-0.433,0.2-1.116,0.134-2.05-0.2
			c-1.399-0.433-2.383-0.699-2.95-0.8c-0.966-0.133-1.517-0.316-1.649-0.55l0.149-0.25c-0.566-0.833-1.316-2.2-2.25-4.1L78.85,66.8
			l0.65,0.351C80.066,67.45,82.184,67.233,85.85,66.5z"/>
	</g>
	<g>
		
			<radialGradient id="SVGID_5_" cx="42.1138" cy="23.5781" r="17.1407" gradientTransform="matrix(1 0 0 -1 0 47.1563)" gradientUnits="userSpaceOnUse">
			<stop  offset="0" style="stop-color:#E5F1F7"/>
			<stop  offset="1" style="stop-color:#96BDD6"/>
		</radialGradient>
		<path style="fill-rule:evenodd;clip-rule:evenodd;fill:url(#SVGID_5_);" d="M51.05,5.45c1.5-0.4,2.317-0.617,2.45-0.65
			c0.633-0.2,1.333-0.466,2.1-0.8c0.5-0.167,0.75-0.117,0.75,0.15c0,0.3-0.184,0.65-0.55,1.05c-0.167,0.133-0.816,0.733-1.95,1.8
			c-0.7,0.633-0.95,1.05-0.75,1.25c0.4,0.533,0.6,1.05,0.6,1.55c0,0.667-0.034,1.233-0.1,1.7c0,0.367,0.133,1.033,0.4,2
			c0.3,0.967,0.55,1.5,0.75,1.6c0.033,0.016,0.066,0.024,0.1,0.025L54.2,15.65c-0.3,0.233-0.767,0.417-1.4,0.55
			c-0.566,0.133-0.933,0.283-1.1,0.45c-0.7,0.7-1.817,2.533-3.35,5.5c-0.867,1.633-1.217,2.633-1.05,3
			c0.567,1.133,0.867,1.85,0.9,2.15c0.1,1.1,0.417,1.95,0.95,2.55c0.533,0.566,0.817,1.117,0.85,1.65
			c0.1,0.767,0.367,1.583,0.8,2.45c0.267,0.466,0.617,1.033,1.05,1.7c0.167,0.267,0.517,0.684,1.05,1.25
			c0.6,0.633,1.083,1.217,1.45,1.75c0.333,0.5,0.45,0.733,0.35,0.7c-0.333-0.133-0.567-0.033-0.7,0.3
			c-0.133,0.5-0.533,0.934-1.2,1.3c-0.667,0.367-1.367,0.55-2.1,0.55c-0.3,0-1.7-0.717-4.2-2.15c-2.433-1.367-4.267-1.983-5.5-1.85
			c-1,0.1-1.867,0.533-2.6,1.3c-0.8,0.833-1.933,1.4-3.4,1.7c-1.767,0.333-2.867,0.6-3.3,0.8c-0.6,0.367-1.383,0.767-2.35,1.2
			c-0.248,0.11-0.464,0.21-0.65,0.3c0,0.065,0,0.131,0,0.2c-0.367,0.133-0.617,0.217-0.75,0.25c-0.212,0.026,0.038-0.124,0.75-0.45
			c0.012-1.072,0.112-2.172,0.3-3.3c0.167-0.833,0.7-2.017,1.6-3.55c0.733-1.267,1.367-2.25,1.9-2.95l2-2.5l2.85-6.35
			c0.2-0.333,0.917-2.5,2.15-6.5c0.3-0.566,0.5-0.917,0.6-1.05c0.433-0.5,1.183-1.15,2.25-1.95c0.967-0.733,1.45-1.2,1.45-1.4
			c0-0.567,0.067-0.983,0.2-1.25c0.733-1.467,2.3-3.25,4.7-5.35C49.367,6.05,50.15,5.65,51.05,5.45z"/>
		
			<radialGradient id="SVGID_6_" cx="43.75" cy="65" r="14.175" gradientTransform="matrix(1 0 0 -1 0 130)" gradientUnits="userSpaceOnUse">
			<stop  offset="0" style="stop-color:#E5F1F7"/>
			<stop  offset="1" style="stop-color:#96BDD6"/>
		</radialGradient>
		<path style="fill-rule:evenodd;clip-rule:evenodd;fill:url(#SVGID_6_);" d="M40.15,69.45c0.033,0.133-0.066,0.25-0.3,0.35
			c-0.967,0.467-2.8,1.8-5.5,4c-1.2,0.967-2.717,1.717-4.55,2.25l-2.45,0.45L30,73.3c0.9-1.533,1.733-2.75,2.5-3.649
			c0.8-0.9,1.217-1.367,1.25-1.4c0.333-0.333,0.75-0.65,1.25-0.95c0.367-0.2,0.767-0.517,1.2-0.95c0.433-0.5,0.983-0.949,1.65-1.35
			c1-0.667,1.583-1.033,1.75-1.1c0.333-0.167,1.083-0.367,2.25-0.601c0.967-0.2,1.583-0.3,1.85-0.3c0.733,0.033,1.333,0.033,1.8,0
			c0.967-0.066,1.6-0.384,1.9-0.95c0.5-1.033,0.867-1.666,1.1-1.899c0.833-0.967,1.483-1.667,1.95-2.101
			c0.8-0.733,1.883-1.316,3.25-1.75l4.5-2.15L60,53.5l0.05,1.55c0.033,1.167,0.084,2.033,0.15,2.601
			c0.066,0.533-0.017,1.033-0.25,1.5c-0.367,0.767-0.566,1.216-0.601,1.35c-0.133,0.467-0.316,0.733-0.55,0.8
			c-0.3-0.033-0.566-0.033-0.8,0c-0.3,0.066-0.717,0.384-1.25,0.95c-0.5,0.566-0.8,0.983-0.9,1.25c-0.434,1.1-0.717,1.767-0.85,2
			c-0.633,1.167-1.4,2-2.3,2.5c-0.867,0.467-1.383,0.866-1.55,1.2c-0.267,0.6-0.483,0.967-0.65,1.1c-0.4,0.4-1.167,0.5-2.3,0.3
			c-1.4-0.199-2.133-0.3-2.2-0.3c-0.333,0.066-0.817,0.033-1.45-0.1c-0.966-0.2-1.867-0.384-2.7-0.55
			C40.817,69.45,40.25,69.384,40.15,69.45z"/>
		
			<radialGradient id="SVGID_7_" cx="85.7432" cy="65.9102" r="7.5987" gradientTransform="matrix(1 0 0 -1 0 131.8203)" gradientUnits="userSpaceOnUse">
			<stop  offset="0" style="stop-color:#E5F1F7"/>
			<stop  offset="1" style="stop-color:#96BDD6"/>
		</radialGradient>
		<path style="fill-rule:evenodd;clip-rule:evenodd;fill:url(#SVGID_7_);" d="M88.85,58l0.95,1.55
			c0.667,1.167,1.066,2.033,1.2,2.601c0.134,0.466,0.283,1.033,0.45,1.699c0.166,0.601,0.467,1.25,0.899,1.95
			c0.4,0.667,0.617,1.417,0.65,2.25c0,0.467,0,1.167,0,2.101c0.066,0.533-0.15,0.8-0.65,0.8c-0.866,0-1.583,0.184-2.149,0.55
			c-1.566,1.1-2.634,1.816-3.2,2.15c-0.4,0.233-0.95,0.233-1.65,0c-0.666-0.233-1.166-0.567-1.5-1L81.7,70
			c-1.134-0.9-2.084-1.733-2.851-2.5c-0.5-0.5-0.5-1.233,0-2.2L79.7,64l1.05-0.65c0.833-0.466,1.533-0.699,2.1-0.699
			c0.867,0,1.75-0.45,2.65-1.351l1.3-1.7C87.767,58.467,88.45,57.934,88.85,58z"/>
		<g>
			<path style="fill-rule:evenodd;clip-rule:evenodd;fill:#97B4C4;" d="M51.2,6.65c0.433-0.167,1.167-0.183,2.2-0.05
				c1-0.133,1.983-0.95,2.95-2.45c0,0.3-0.184,0.65-0.55,1.05c-0.167,0.133-0.816,0.733-1.95,1.8c-0.7,0.633-0.95,1.05-0.75,1.25
				c0.4,0.533,0.6,1.05,0.6,1.55c0,0.667-0.034,1.233-0.1,1.7c0,0.367,0.133,1.033,0.4,2c0.333,1.067,0.617,1.6,0.85,1.6l-0.65,0.55
				c-0.3,0.233-0.767,0.417-1.4,0.55c-0.566,0.133-0.933,0.283-1.1,0.45c-0.7,0.7-1.817,2.533-3.35,5.5
				c-0.867,1.633-1.217,2.633-1.05,3c0.567,1.133,0.867,1.85,0.9,2.15c0.1,1.1,0.417,1.95,0.95,2.55
				c0.533,0.566,0.817,1.117,0.85,1.65c0.1,0.767,0.367,1.583,0.8,2.45c0.267,0.466,0.617,1.033,1.05,1.7
				c0.167,0.267,0.517,0.684,1.05,1.25c0.6,0.633,1.083,1.217,1.45,1.75c0.333,0.5,0.45,0.733,0.35,0.7
				c-0.333-0.133-0.567-0.033-0.7,0.3c-0.133,0.5-0.533,0.934-1.2,1.3c-0.667,0.367-1.367,0.55-2.1,0.55c-0.3,0-1.7-0.717-4.2-2.15
				c-2.433-1.367-4.267-1.983-5.5-1.85c-1,0.1-1.867,0.533-2.6,1.3c-0.8,0.833-1.933,1.4-3.4,1.7c-1.767,0.333-2.867,0.6-3.3,0.8
				c-0.6,0.367-1.383,0.767-2.35,1.2l-0.65,0.3c0-0.833,0.05-1.6,0.15-2.3c1.9-0.3,3.033-0.5,3.4-0.6
				c1.133-0.3,1.95-0.717,2.45-1.25l2.65-2.85l1.4-0.4c1-0.267,1.7-0.4,2.1-0.4c0.333,0,1.117,0.033,2.35,0.1
				c1.133,0.066,1.8,0.033,2-0.1c0.333-0.233,0.617-0.783,0.85-1.65c0.267-1.033,0.25-1.883-0.05-2.55c-0.433-1-0.7-2.5-0.8-4.5
				c-0.1-2.367,0.233-4.033,1-5c0.566-0.7,1.333-1.6,2.3-2.7c0.667-0.8,0.9-1.4,0.7-1.8c-0.167-0.367-0.333-0.933-0.5-1.7
				c-0.133-0.767-0.25-1.25-0.35-1.45L48,13l1-1.7c0.133-0.167,0.2-0.417,0.2-0.75c0.033-0.333,0.2-0.683,0.5-1.05
				c0.2-0.233,0.383-0.767,0.55-1.6C50.383,7.267,50.7,6.85,51.2,6.65z"/>
		</g>
		<path style="fill-rule:evenodd;clip-rule:evenodd;fill:#97B4C4;" d="M40.15,69.45c0.033,0.133-0.066,0.25-0.3,0.35
			c-0.967,0.467-2.8,1.8-5.5,4c-1.2,0.967-2.717,1.717-4.55,2.25l-2.45,0.45l1.7-2.05c1.8-0.601,3.017-1.2,3.65-1.8
			c0.267-0.267,0.667-0.601,1.2-1c0.533-0.434,0.967-0.817,1.3-1.15c1.333-1.333,2.433-2.233,3.3-2.7l0.7-0.3l0.7-0.15
			c0.5-0.133,0.934-0.199,1.3-0.199H44c2.467,0.566,3.75,0.566,3.85,0c0.066-0.367,0.283-0.784,0.65-1.25L49,65.3
			c-1.2-1.2-1.75-2.083-1.65-2.649l0.2-1c0.3-0.667,0.617-1.167,0.95-1.5l0.4-0.4l1.1,0.9L52.5,60c0.233-0.066,0.717-0.15,1.45-0.25
			c0.7-0.167,1.333-0.417,1.9-0.75c0.367-0.233,0.85-0.434,1.45-0.6c0.4-0.134,0.75-0.384,1.05-0.75c0.5-0.601,0.801-1,0.9-1.2
			C59.45,55.983,59.7,55,60,53.5l0.05,1.55c0.033,1.167,0.084,2.033,0.15,2.601c0.066,0.533-0.017,1.033-0.25,1.5
			c-0.367,0.767-0.566,1.216-0.601,1.35c-0.133,0.467-0.316,0.733-0.55,0.8c-0.3-0.033-0.566-0.033-0.8,0
			c-0.3,0.066-0.717,0.384-1.25,0.95c-0.5,0.566-0.8,0.983-0.9,1.25c-0.434,1.1-0.717,1.767-0.85,2c-0.633,1.167-1.4,2-2.3,2.5
			c-0.867,0.467-1.383,0.866-1.55,1.2c-0.267,0.6-0.483,0.967-0.65,1.1c-0.4,0.4-1.167,0.5-2.3,0.3c-1.4-0.199-2.133-0.3-2.2-0.3
			c-0.333,0.066-0.817,0.033-1.45-0.1c-0.966-0.2-1.867-0.384-2.7-0.55C40.817,69.45,40.25,69.384,40.15,69.45z"/>
		<path style="fill-rule:evenodd;clip-rule:evenodd;fill:#97B4C4;" d="M88,62.95c0.066,0.033,0.233-0.117,0.5-0.45
			c0.8-1.033,1.467-1.583,2-1.65c0.2,0.4,0.366,0.834,0.5,1.301c0.134,0.466,0.283,1.033,0.45,1.699
			c0.166,0.601,0.467,1.25,0.899,1.95c0.4,0.667,0.617,1.417,0.65,2.25c0,0.467,0,1.167,0,2.101c0.066,0.533-0.15,0.8-0.65,0.8
			c-0.866,0-1.583,0.184-2.149,0.55c-1.566,1.1-2.634,1.816-3.2,2.15c-0.4,0.233-0.95,0.233-1.65,0c-0.666-0.233-1.166-0.567-1.5-1
			L81.7,70c-1.134-0.9-2.084-1.733-2.851-2.5l-0.05-0.1c1.233,0.566,2.867,1.033,4.9,1.399c0.8,0.167,1.55,0.233,2.25,0.2
			c1-0.066,1.35-0.35,1.05-0.85S86.517,67,86.45,66.2c-0.066-0.634-0.05-1.15,0.05-1.55c-0.033-0.4-0.066-0.7-0.1-0.9
			c0-0.3,0.267-0.55,0.8-0.75C87.634,62.833,87.9,62.816,88,62.95z"/>
	</g>
	<g>
		<g>
			<path style="fill-rule:evenodd;clip-rule:evenodd;fill:#FFFFFF;" d="M42,19c-0.633,0-0.95-0.333-0.95-1s0.317-1,0.95-1
				c0.667,0,1,0.333,1,1S42.667,19,42,19z"/>
			<path style="fill-rule:evenodd;clip-rule:evenodd;fill:#FFFFFF;" d="M39.05,21.85v0.05l0.1-0.15
				C39.117,21.785,39.084,21.818,39.05,21.85z M40.95,22.4c-0.034,0.267-0.167,0.533-0.4,0.8c-0.433,0.466-0.883,0.466-1.35,0
				c-0.432-0.462-0.482-0.913-0.15-1.35c0.148-0.596,0.532-0.813,1.15-0.65C40.867,21.367,41.117,21.767,40.95,22.4z"/>
			<path style="fill-rule:evenodd;clip-rule:evenodd;fill:#FFFFFF;" d="M43.75,21.75c-0.467,0.133-0.817,0-1.05-0.4
				c-0.233-0.4-0.217-0.783,0.05-1.15c0.133-0.5,0.483-0.717,1.05-0.65c0.6,0.034,0.9,0.35,0.9,0.95
				C44.633,21.2,44.317,21.617,43.75,21.75z"/>
			<path style="fill-rule:evenodd;clip-rule:evenodd;fill:#FFFFFF;" d="M46.2,16.5c0.333,0,0.566,0.117,0.7,0.35
				c0.434,0.267,0.55,0.667,0.35,1.2c-0.233,0.5-0.617,0.684-1.15,0.55s-0.833-0.5-0.9-1.1c-0.034-0.267,0.05-0.5,0.25-0.7
				C45.65,16.6,45.9,16.5,46.2,16.5z"/>
			<path style="fill-rule:evenodd;clip-rule:evenodd;fill:#FFFFFF;" d="M44.5,16.15c-0.633,0-0.95-0.333-0.95-1
				c0-0.667,0.317-1,0.95-1c0.667,0,1,0.333,1,1C45.5,15.817,45.167,16.15,44.5,16.15z"/>
			<path style="fill-rule:evenodd;clip-rule:evenodd;fill:#FFFFFF;" d="M46,13.15c-0.633,0-0.95-0.333-0.95-1
				c0-0.667,0.317-1,0.95-1c0.667,0,1,0.333,1,1C47,12.817,46.667,13.15,46,13.15z"/>
			<path style="fill-rule:evenodd;clip-rule:evenodd;fill:#FFFFFF;" d="M47.5,12.65c0.667,0,1,0.333,1,1c0,0.667-0.333,1-1,1h-0.15
				c-0.633,0-0.95-0.333-0.95-1c0-0.667,0.317-1,0.95-1H47.5z"/>
			<path style="fill-rule:evenodd;clip-rule:evenodd;fill:#FFFFFF;" d="M48.85,9.15c0.667,0,1,0.333,1,1c0,0.667-0.333,1-1,1
				c-0.633,0-0.95-0.333-0.95-1C47.9,9.483,48.217,9.15,48.85,9.15z"/>
			<path style="fill-rule:evenodd;clip-rule:evenodd;fill:#FFFFFF;" d="M46.35,10.3c-0.633,0-0.95-0.333-0.95-1
				c0-0.667,0.317-1,0.95-1c0.667,0,1,0.333,1,1C47.35,9.967,47.017,10.3,46.35,10.3z"/>
			<path style="fill-rule:evenodd;clip-rule:evenodd;fill:#FFFFFF;" d="M48.5,9c-0.633,0-0.95-0.333-0.95-1s0.317-1,0.95-1
				c0.667,0,1,0.333,1,1S49.167,9,48.5,9z"/>
			<path style="fill-rule:evenodd;clip-rule:evenodd;fill:#FFFFFF;" d="M41,19c0.667,0,1,0.333,1,1s-0.333,1-1,1
				c-0.633,0-0.95-0.333-0.95-1S40.367,19,41,19z"/>
			<path style="fill-rule:evenodd;clip-rule:evenodd;fill:#FFFFFF;" d="M36.7,29.3c-0.633,0-0.95-0.333-0.95-1
				c0-0.667,0.317-1,0.95-1s0.95,0.333,0.95,1C37.65,28.967,37.333,29.3,36.7,29.3z"/>
			<path style="fill-rule:evenodd;clip-rule:evenodd;fill:#FFFFFF;" d="M33.9,33.25c-0.3-0.3-0.4-0.667-0.3-1.1
				c0.133-0.433,0.433-0.65,0.9-0.65c0.7,0,1.017,0.35,0.95,1.05c0.333,0.267,0.433,0.617,0.3,1.05c-0.133,0.467-0.433,0.7-0.9,0.7
				c-0.333,0-0.583-0.117-0.75-0.35C33.933,33.75,33.867,33.517,33.9,33.25z"/>
			<path style="fill-rule:evenodd;clip-rule:evenodd;fill:#FFFFFF;" d="M37.35,31.65c-0.633,0-0.95-0.333-0.95-1
				c0-0.667,0.317-1,0.95-1c0.667,0,1,0.333,1,1C38.35,31.317,38.017,31.65,37.35,31.65z"/>
			<path style="fill-rule:evenodd;clip-rule:evenodd;fill:#FFFFFF;" d="M37.5,32.15c0.667,0,1,0.333,1,1c0,0.667-0.333,1-1,1
				c-0.633,0-0.95-0.333-0.95-1C36.55,32.483,36.867,32.15,37.5,32.15z"/>
			<path style="fill-rule:evenodd;clip-rule:evenodd;fill:#FFFFFF;" d="M39.85,31.8c-0.633,0-0.95-0.333-0.95-1
				c0-0.667,0.317-1,0.95-1c0.667,0,1,0.333,1,1C40.85,31.467,40.517,31.8,39.85,31.8z"/>
			<path style="fill-rule:evenodd;clip-rule:evenodd;fill:#FFFFFF;" d="M41.5,32.65c0.667,0,1,0.333,1,1c0,0.667-0.333,1-1,1
				c-0.633,0-0.95-0.333-0.95-1C40.55,32.983,40.867,32.65,41.5,32.65z"/>
			<path style="fill-rule:evenodd;clip-rule:evenodd;fill:#FFFFFF;" d="M41.85,29.5c0.433,0,0.717,0.183,0.85,0.55
				c0.167,0.333,0.15,0.667-0.05,1L43,31c0.667,0,1,0.333,1,1s-0.333,1-1,1c-0.433,0-0.717-0.183-0.85-0.55
				c-0.167-0.367-0.15-0.717,0.05-1.05l-0.35,0.1c-0.633,0-0.95-0.333-0.95-1S41.217,29.5,41.85,29.5z"/>
			<path style="fill-rule:evenodd;clip-rule:evenodd;fill:#FFFFFF;" d="M39.85,29.65c-0.633,0-0.95-0.333-0.95-1
				c0-0.667,0.317-1,0.95-1c0.667,0,1,0.333,1,1C40.85,29.317,40.517,29.65,39.85,29.65z"/>
			<path style="fill-rule:evenodd;clip-rule:evenodd;fill:#FFFFFF;" d="M43.7,28.5c0.633,0,0.95,0.333,0.95,1s-0.316,1-0.95,1
				s-0.95-0.333-0.95-1S43.067,28.5,43.7,28.5z"/>
			<path style="fill-rule:evenodd;clip-rule:evenodd;fill:#FFFFFF;" d="M45,34c-0.633,0-0.95-0.333-0.95-1s0.317-1,0.95-1
				c0.667,0,1,0.333,1,1S45.667,34,45,34z"/>
			<path style="fill-rule:evenodd;clip-rule:evenodd;fill:#FFFFFF;" d="M35.85,36.3c-0.633,0-0.95-0.333-0.95-1
				c0-0.667,0.317-1,0.95-1c0.667,0,1,0.333,1,1C36.85,35.967,36.517,36.3,35.85,36.3z"/>
			<path style="fill-rule:evenodd;clip-rule:evenodd;fill:#FFFFFF;" d="M33,34.15c0.667,0,1,0.333,1,1c0,0.667-0.333,1-1,1
				c-0.633,0-0.95-0.333-0.95-1C32.05,34.483,32.367,34.15,33,34.15z"/>
			<path style="fill-rule:evenodd;clip-rule:evenodd;fill:#FFFFFF;" d="M31.2,36.5c0.633,0,0.95,0.333,0.95,1s-0.316,1-0.95,1
				s-0.95-0.333-0.95-1S30.567,36.5,31.2,36.5z"/>
			<path style="fill-rule:evenodd;clip-rule:evenodd;fill:#FFFFFF;" d="M34,36.8c0.667,0,1,0.333,1,1c0,0.667-0.333,1-1,1
				c-0.633,0-0.95-0.333-0.95-1C33.05,37.133,33.367,36.8,34,36.8z"/>
			<path style="fill-rule:evenodd;clip-rule:evenodd;fill:#FFFFFF;" d="M41.7,26c-0.633,0-0.95-0.333-0.95-1s0.317-1,0.95-1
				s0.95,0.333,0.95,1S42.333,26,41.7,26z"/>
			<path style="fill-rule:evenodd;clip-rule:evenodd;fill:#FFFFFF;" d="M39,65.65c0.667,0,1,0.333,1,1c0,0.666-0.333,1-1,1
				c-0.633,0-0.95-0.334-0.95-1C38.05,65.983,38.367,65.65,39,65.65z"/>
			<path style="fill-rule:evenodd;clip-rule:evenodd;fill:#FFFFFF;" d="M40.35,66c-0.633,0-0.95-0.333-0.95-1s0.317-1,0.95-1
				c0.667,0,1,0.333,1,1S41.017,66,40.35,66z"/>
			<path style="fill-rule:evenodd;clip-rule:evenodd;fill:#FFFFFF;" d="M42.7,66.5c0.633,0,0.95,0.333,0.95,1s-0.316,1-0.95,1
				s-0.95-0.333-0.95-1S42.067,66.5,42.7,66.5z"/>
			<path style="fill-rule:evenodd;clip-rule:evenodd;fill:#FFFFFF;" d="M43.35,63.15c0.667,0,1,0.333,1,1c0,0.666-0.333,1-1,1
				c-0.633,0-0.95-0.334-0.95-1C42.4,63.483,42.717,63.15,43.35,63.15z"/>
			<path style="fill-rule:evenodd;clip-rule:evenodd;fill:#FFFFFF;" d="M45.35,65.5c0.667,0,1,0.333,1,1s-0.333,1-1,1
				c-0.633,0-0.95-0.333-0.95-1S44.717,65.5,45.35,65.5z"/>
			<path style="fill-rule:evenodd;clip-rule:evenodd;fill:#FFFFFF;" d="M46.7,63.15c0.633,0,0.95,0.333,0.95,1
				c0,0.666-0.316,1-0.95,1s-0.95-0.334-0.95-1C45.75,63.483,46.067,63.15,46.7,63.15z"/>
			<path style="fill-rule:evenodd;clip-rule:evenodd;fill:#FFFFFF;" d="M36,67.15c0.667,0,1,0.333,1,1c0,0.666-0.333,1-1,1
				c-0.633,0-0.95-0.334-0.95-1C35.05,67.483,35.367,67.15,36,67.15z"/>
			<path style="fill-rule:evenodd;clip-rule:evenodd;fill:#FFFFFF;" d="M33.7,69.15c0.633,0,0.95,0.333,0.95,1
				c0,0.666-0.316,1-0.95,1s-0.95-0.334-0.95-1C32.75,69.483,33.067,69.15,33.7,69.15z"/>
			<path style="fill-rule:evenodd;clip-rule:evenodd;fill:#FFFFFF;" d="M53.5,57.65c0.667,0,1,0.333,1,1c0,0.666-0.333,1-1,1
				c-0.433,0-0.717-0.184-0.85-0.551c-0.167-0.333-0.15-0.666,0.05-1c-0.333,0.233-0.684,0.25-1.05,0.051c0,0.666-0.316,1-0.95,1
				s-0.95-0.334-0.95-1c0-0.667,0.317-1,0.95-1L51,57.2c0-0.4,0.2-0.717,0.6-0.95s0.767-0.167,1.1,0.2l0.2,0.149
				c0.367,0.4,0.4,0.801,0.1,1.2C53.167,57.7,53.333,57.65,53.5,57.65z"/>
			<path style="fill-rule:evenodd;clip-rule:evenodd;fill:#FFFFFF;" d="M54.85,55.15c0.367,0,0.633,0.133,0.8,0.399
				c0.133,0.233,0.167,0.517,0.1,0.851l0.15-0.051l-0.05-0.199V56c0-0.634,0.333-0.95,1-0.95c0.667,0,1,0.316,1,0.95v0.15
				c0,0.466-0.25,0.767-0.75,0.899c0.066,0.334,0.033,0.617-0.1,0.851c-0.167,0.267-0.433,0.399-0.8,0.399s-0.65-0.133-0.85-0.399
				c-0.133-0.233-0.167-0.517-0.1-0.851l-0.4,0.101c-0.633,0-0.95-0.334-0.95-1C53.9,55.483,54.217,55.15,54.85,55.15z"/>
			<path style="fill-rule:evenodd;clip-rule:evenodd;fill:#FFFFFF;" d="M81.2,65.15c0.633,0,0.95,0.333,0.95,1
				c0,0.666-0.317,1-0.95,1c-0.634,0-0.95-0.334-0.95-1C80.25,65.483,80.566,65.15,81.2,65.15z"/>
			<path style="fill-rule:evenodd;clip-rule:evenodd;fill:#FFFFFF;" d="M83.2,63.5c0.633,0,0.95,0.333,0.95,1s-0.317,1-0.95,1
				c-0.634,0-0.95-0.333-0.95-1S82.566,63.5,83.2,63.5z"/>
			<path style="fill-rule:evenodd;clip-rule:evenodd;fill:#FFFFFF;" d="M86,65.65V65.8c0,0.434-0.184,0.717-0.55,0.851
				c0.033,0.3-0.033,0.566-0.2,0.8s-0.417,0.35-0.75,0.35c-0.533,0-0.85-0.25-0.95-0.75c-0.066-0.533,0.101-0.899,0.5-1.1L84,65.8
				V65.65c0-0.634,0.333-0.95,1-0.95S86,65.017,86,65.65z"/>
			<path style="fill-rule:evenodd;clip-rule:evenodd;fill:#FFFFFF;" d="M86.2,62c0.633,0,0.95,0.333,0.95,1s-0.317,1-0.95,1
				c-0.634,0-0.95-0.333-0.95-1S85.566,62,86.2,62z"/>
			<path style="fill-rule:evenodd;clip-rule:evenodd;fill:#FFFFFF;" d="M87.5,60.3c0.667,0,1,0.334,1,1c0,0.667-0.333,1-1,1
				c-0.634,0-0.95-0.333-0.95-1C86.55,60.634,86.866,60.3,87.5,60.3z"/>
		</g>
	</g>
	<g>
		<g>
			<path style="fill-rule:evenodd;clip-rule:evenodd;fill:#C1DAE8;" d="M47.85,35.3c-0.633,0-0.95-0.333-0.95-1
				c0-0.667,0.317-1,0.95-1c0.667,0,1,0.333,1,1C48.85,34.967,48.517,35.3,47.85,35.3z"/>
			<path style="fill-rule:evenodd;clip-rule:evenodd;fill:#C1DAE8;" d="M49.5,37.5c0,0.633-0.333,0.95-1,0.95s-1-0.317-1-0.95v-0.2
				c0-0.633,0.333-0.95,1-0.95s1,0.316,1,0.95V37.5z"/>
			<path style="fill-rule:evenodd;clip-rule:evenodd;fill:#C1DAE8;" d="M50.85,35.5c0.667,0,1,0.333,1,1s-0.333,1-1,1
				c-0.633,0-0.95-0.333-0.95-1S50.217,35.5,50.85,35.5z"/>
			<path style="fill-rule:evenodd;clip-rule:evenodd;fill:#C1DAE8;" d="M51.85,38c0.667,0,1,0.333,1,1s-0.333,1-1,1
				c-0.633,0-0.95-0.333-0.95-1S51.217,38,51.85,38z"/>
			<path style="fill-rule:evenodd;clip-rule:evenodd;fill:#C1DAE8;" d="M43.85,35.8c0.667,0,1,0.333,1,1c0,0.667-0.333,1-1,1
				c-0.633,0-0.95-0.333-0.95-1C42.9,36.133,43.217,35.8,43.85,35.8z"/>
			<path style="fill-rule:evenodd;clip-rule:evenodd;fill:#C1DAE8;" d="M40.7,35.5c0.633,0,0.95,0.333,0.95,1s-0.316,1-0.95,1
				s-0.95-0.333-0.95-1S40.067,35.5,40.7,35.5z"/>
			<path style="fill-rule:evenodd;clip-rule:evenodd;fill:#C1DAE8;" d="M36.15,38.55c0.3,0.3,0.383,0.667,0.25,1.1
				c-0.133,0.434-0.433,0.65-0.9,0.65c-0.633,0-0.95-0.333-0.95-1c0-0.667,0.317-1,0.95-1l0.35,0.1c-0.3-0.3-0.383-0.667-0.25-1.1
				c0.133-0.433,0.433-0.65,0.9-0.65c0.667,0,1,0.333,1,1c0,0.667-0.333,1-1,1L36.15,38.55z"/>
			<path style="fill-rule:evenodd;clip-rule:evenodd;fill:#C1DAE8;" d="M47.35,29.65c0.667,0,1,0.333,1,1c0,0.667-0.333,1-1,1
				c-0.633,0-0.95-0.333-0.95-1C46.4,29.983,46.717,29.65,47.35,29.65z"/>
			<path style="fill-rule:evenodd;clip-rule:evenodd;fill:#C1DAE8;" d="M47,24.5c0.667,0,1,0.333,1,1s-0.333,1-1,1
				c-0.633,0-0.95-0.333-0.95-1S46.367,24.5,47,24.5z"/>
			<path style="fill-rule:evenodd;clip-rule:evenodd;fill:#C1DAE8;" d="M47.2,22.5c-0.633,0-0.95-0.333-0.95-1s0.317-1,0.95-1
				s0.95,0.333,0.95,1S47.833,22.5,47.2,22.5z"/>
			<path style="fill-rule:evenodd;clip-rule:evenodd;fill:#C1DAE8;" d="M50,19.15c-0.633,0-0.95-0.333-0.95-1
				c0-0.667,0.317-1,0.95-1c0.667,0,1,0.333,1,1C51,18.817,50.667,19.15,50,19.15z"/>
			<path style="fill-rule:evenodd;clip-rule:evenodd;fill:#C1DAE8;" d="M49.2,16c-0.633,0-0.95-0.333-0.95-1s0.317-1,0.95-1
				s0.95,0.333,0.95,1S49.833,16,49.2,16z"/>
			<path style="fill-rule:evenodd;clip-rule:evenodd;fill:#C1DAE8;" d="M51.5,13.3c0.3,0,0.55,0.117,0.75,0.35
				c0.167,0.2,0.233,0.434,0.2,0.7l0.25-0.05c0.633,0,0.95,0.333,0.95,1c0,0.667-0.316,1-0.95,1c-0.667,0-1-0.35-1-1.05l-0.2,0.05
				c-0.633,0-0.95-0.333-0.95-1C50.55,13.633,50.867,13.3,51.5,13.3z"/>
			<path style="fill-rule:evenodd;clip-rule:evenodd;fill:#C1DAE8;" d="M51,10.3c0.233,0,0.483,0.1,0.75,0.3
				c-0.067-0.267-0.017-0.517,0.15-0.75c0.167-0.233,0.434-0.35,0.8-0.35c0.633,0,0.95,0.333,0.95,1s-0.316,1-0.95,1
				c-0.333,0-0.583-0.117-0.75-0.35c0.033,0.3-0.034,0.567-0.2,0.8c-0.167,0.233-0.417,0.35-0.75,0.35c-0.633,0-0.95-0.333-0.95-1
				C50.05,10.633,50.367,10.3,51,10.3z"/>
			<path style="fill-rule:evenodd;clip-rule:evenodd;fill:#C1DAE8;" d="M51.35,8.5c-0.633,0-0.95-0.333-0.95-1s0.317-1,0.95-1
				c0.667,0,1,0.333,1,1S52.017,8.5,51.35,8.5z"/>
			<path style="fill-rule:evenodd;clip-rule:evenodd;fill:#C1DAE8;" d="M47.35,67.8c0.667,0,1,0.334,1,1c0,0.667-0.333,1-1,1
				c-0.633,0-0.95-0.333-0.95-1C46.4,68.134,46.717,67.8,47.35,67.8z"/>
			<path style="fill-rule:evenodd;clip-rule:evenodd;fill:#C1DAE8;" d="M49,64.65c0.667,0,1,0.333,1,1c0,0.666-0.333,1-1,1
				c-0.633,0-0.95-0.334-0.95-1C48.05,64.983,48.367,64.65,49,64.65z"/>
			<path style="fill-rule:evenodd;clip-rule:evenodd;fill:#C1DAE8;" d="M49,64.15c-0.633,0-0.95-0.334-0.95-1
				c0-0.667,0.317-1,0.95-1c0.367,0,0.633,0.149,0.8,0.449c0.3-0.267,0.65-0.333,1.05-0.199c0.433,0.133,0.65,0.433,0.65,0.899v0.2
				c0,0.533-0.267,0.85-0.8,0.95c-0.534,0.066-0.9-0.117-1.1-0.55C49.433,64.066,49.233,64.15,49,64.15z"/>
			<path style="fill-rule:evenodd;clip-rule:evenodd;fill:#C1DAE8;" d="M50.3,67.65c-0.133-0.267-0.167-0.517-0.1-0.75l0.2-0.351
				c-0.2-0.333-0.233-0.666-0.1-1c0.167-0.366,0.467-0.55,0.9-0.55c0.367,0,0.65,0.15,0.85,0.45c0.133,0.267,0.15,0.566,0.05,0.899
				c0.4,0.334,0.517,0.684,0.35,1.051v0.1c-0.233,0.5-0.55,0.733-0.95,0.7L50.9,68.1C50.633,68.066,50.433,67.917,50.3,67.65z"/>
			<path style="fill-rule:evenodd;clip-rule:evenodd;fill:#C1DAE8;" d="M52.5,63.8c0-0.633,0.333-0.95,1-0.95s1,0.317,1,0.95V64
				c0,0.634-0.333,0.95-1,0.95s-1-0.316-1-0.95V63.8z"/>
			<path style="fill-rule:evenodd;clip-rule:evenodd;fill:#C1DAE8;" d="M53,62.3c-0.633,0-0.95-0.333-0.95-1c0-0.666,0.317-1,0.95-1
				c0.667,0,1,0.334,1,1C54,61.967,53.667,62.3,53,62.3z"/>
			<path style="fill-rule:evenodd;clip-rule:evenodd;fill:#C1DAE8;" d="M56.2,60.3c0.633,0,0.95,0.334,0.95,1
				c0,0.667-0.316,1-0.95,1s-0.95-0.333-0.95-1C55.25,60.634,55.567,60.3,56.2,60.3z"/>
			<path style="fill-rule:evenodd;clip-rule:evenodd;fill:#C1DAE8;" d="M58.35,59c0.667,0,1,0.333,1,1s-0.333,1-1,1
				c-0.633,0-0.95-0.333-0.95-1S57.717,59,58.35,59z"/>
			<path style="fill-rule:evenodd;clip-rule:evenodd;fill:#C1DAE8;" d="M36.7,69.15c0.633,0,0.95,0.333,0.95,1
				c0,0.666-0.316,1-0.95,1s-0.95-0.334-0.95-1C35.75,69.483,36.067,69.15,36.7,69.15z"/>
			<path style="fill-rule:evenodd;clip-rule:evenodd;fill:#C1DAE8;" d="M34,71.65c0.667,0,1,0.333,1,1c0,0.666-0.333,1-1,1
				c-0.633,0-0.95-0.334-0.95-1C33.05,71.983,33.367,71.65,34,71.65z"/>
			<path style="fill-rule:evenodd;clip-rule:evenodd;fill:#C1DAE8;" d="M32,73c0.667,0,1,0.333,1,1s-0.333,1-1,1
				c-0.633,0-0.95-0.333-0.95-1S31.367,73,32,73z"/>
			<path style="fill-rule:evenodd;clip-rule:evenodd;fill:#C1DAE8;" d="M86.5,70.15V70.3c0,0.667-0.333,1-1,1s-1-0.333-1-1V70.15
				c0-0.634,0.333-0.95,1-0.95S86.5,69.517,86.5,70.15z"/>
			<path style="fill-rule:evenodd;clip-rule:evenodd;fill:#C1DAE8;" d="M86.8,70.75c0.467-0.467,0.934-0.45,1.4,0.05
				c0.467,0.467,0.467,0.934,0,1.4l-0.15,0.149c-0.467,0.467-0.934,0.467-1.399,0c-0.467-0.5-0.467-0.966,0-1.399L86.8,70.75z"/>
			<path style="fill-rule:evenodd;clip-rule:evenodd;fill:#C1DAE8;" d="M88.35,69.3c0-0.633,0.334-0.95,1-0.95
				c0.667,0,1,0.317,1,0.95v0.2c0,0.634-0.333,0.95-1,0.95c-0.666,0-1-0.316-1-0.95V69.3z"/>
			<path style="fill-rule:evenodd;clip-rule:evenodd;fill:#C1DAE8;" d="M88.5,67.15c-0.634,0-0.95-0.334-0.95-1
				c0-0.667,0.316-1,0.95-1c0.667,0,1,0.333,1,1C89.5,66.816,89.167,67.15,88.5,67.15z"/>
			<path style="fill-rule:evenodd;clip-rule:evenodd;fill:#C1DAE8;" d="M91.35,66.8c0.4,0.233,0.551,0.601,0.45,1.101
				c-0.1,0.5-0.416,0.75-0.95,0.75c-0.399,0-0.683-0.167-0.85-0.5c-0.167-0.334-0.167-0.667,0-1c-0.4-0.233-0.55-0.601-0.45-1.101
				c0.101-0.5,0.417-0.75,0.95-0.75c0.4,0,0.684,0.184,0.85,0.55C91.517,66.15,91.517,66.467,91.35,66.8z"/>
			<path style="fill-rule:evenodd;clip-rule:evenodd;fill:#C1DAE8;" d="M89.85,64.5c-0.633,0-0.949-0.333-0.949-1s0.316-1,0.949-1
				c0.667,0,1,0.333,1,1S90.517,64.5,89.85,64.5z"/>
			<path style="fill-rule:evenodd;clip-rule:evenodd;fill:#C1DAE8;" d="M92.85,68.65c0.667,0,1,0.333,1,1c0,0.666-0.333,1-1,1
				c-0.633,0-0.949-0.334-0.949-1C91.9,68.983,92.217,68.65,92.85,68.65z"/>
		</g>
	</g>
	<g>
		
			<use xlink:href="#flash0.ai_x5F_18_x2F_Layer_114_x2F__x3C_Path_x3E__x5F_2"  width="24.758" height="34.694" x="-0.029" y="-34.672" transform="matrix(1 0 0 -1 29.8501 4.5)" style="overflow:visible;opacity:0.5898;enable-background:new    ;"/>
		
			<use xlink:href="#flash0.ai_x5F_18_x2F_Layer_114_x2F__x3C_Path_x3E__x5F_1"  width="25.141" height="18.429" x="-0.009" y="-18.414" transform="matrix(1 0 0 -1 30.3501 57.7998)" style="overflow:visible;opacity:0.5898;enable-background:new    ;"/>
		
			<use xlink:href="#flash0.ai_x5F_18_x2F_Layer_114_x2F__x3C_Path_x3E__x5F_3"  width="17.462" height="17.679" x="-0.045" y="-17.678" transform="matrix(1 0 0 -1 79 54.8999)" style="overflow:visible;opacity:0.5898;enable-background:new    ;"/>
	</g>
</g>
</svg>
