<?xml version="1.0" encoding="iso-8859-1"?>
<!-- Generator: Adobe Illustrator 15.1.0, SVG Export Plug-In . SVG Version: 6.00 Build 0)  -->
<!DOCTYPE svg PUBLIC "-//W3C//DTD SVG 1.1//EN" "http://www.w3.org/Graphics/SVG/1.1/DTD/svg11.dtd">
<svg version="1.1" id="Layer_4" xmlns="http://www.w3.org/2000/svg" xmlns:xlink="http://www.w3.org/1999/xlink" x="0px" y="0px"
	 width="130.95px" height="75.15px" viewBox="0 0 130.95 75.15" style="enable-background:new 0 0 130.95 75.15;"
	 xml:space="preserve">
<symbol  id="flash2.ai_x2F_Layer_4_x2F__x3C_Clip_Group_0_x3E_" viewBox="0.038 -74.8 26.762 74.8">
	<g id="Layer_1_33_">
	</g>
	<g>
		<defs>
			<path id="SVGID_1_" d="M25.95-46.35c-0.534,3.9-0.9,6.583-1.1,8.05c-0.2,1.333-0.333,2.983-0.4,4.95
				c-0.067,2.5-0.184,4.517-0.35,6.05c-0.133,1.633-0.033,3.8,0.3,6.5c0.367,3.133,0.55,5.283,0.55,6.45
				c0,2.233,0.05,4.45,0.15,6.65c0.033,0.367,0.133,2.85,0.3,7.45H0.6L0.55-7.6c0.034-1.233,0.133-3.15,0.3-5.75
				c0.167-2.433,0.25-4.333,0.25-5.7c0-1.667-0.3-4.967-0.9-9.9c-0.3-2.4-0.184-5.65,0.35-9.75c0.633-4.833,0.95-8.066,0.95-9.7
				c0-0.934-0.267-3.217-0.8-6.85c-0.4-2.767-0.383-5.033,0.05-6.8c0.333-1.5,0.4-3.55,0.2-6.15c-0.267-3.2-0.383-5.283-0.35-6.25
				h24.8c-0.1,3.133-0.15,5.483-0.15,7.05c-0.067,2.8,0.067,5.15,0.4,7.05c0.1,0.667,0.15,1.684,0.15,3.05
				c-0.033,1.333,0.017,2.35,0.15,3.05C26.35-52.483,26.35-49.85,25.95-46.35z"/>
		</defs>
		<clipPath id="SVGID_2_">
			<use xlink:href="#SVGID_1_"  style="overflow:visible;"/>
		</clipPath>
		<g id="Layer_3_1_" style="clip-path:url(#SVGID_2_);">
			<g>
				
					<use xlink:href="#flash2.ai_x2F_Layer_4_x2F__x3C_Path_x3E__x5F_9_x5F_0"  width="13.075" height="74.8" x="0.033" y="-74.8" transform="matrix(1 0 0 1 0.7002 0)" style="overflow:visible;opacity:0.4414;enable-background:new    ;"/>
				
					<use xlink:href="#flash2.ai_x2F_Layer_4_x2F__x3C_Path_x3E__x5F_8_x5F_0"  width="7.763" height="74.267" x="0.037" y="-74.25" transform="matrix(1 0 0 1 19 -0.2002)" style="overflow:visible;opacity:0.25;enable-background:new    ;"/>
				<linearGradient id="SVGID_3_" gradientUnits="userSpaceOnUse" x1="0.7886" y1="-15.6299" x2="2.1136" y2="-15.6299">
					<stop  offset="0" style="stop-color:#B78038"/>
					<stop  offset="1" style="stop-color:#B5A680"/>
				</linearGradient>
				<path style="fill-rule:evenodd;clip-rule:evenodd;fill:url(#SVGID_3_);" d="M1.5-22.15c0.1,1.833-0.033,5-0.4,9.5
					C0.8-8.483,0.717-5.367,0.85-3.3l0.8-5.3C1.817-9.7,1.933-11.467,2-13.9c0.067-1.4,0.117-3.367,0.15-5.9
					c0.033-1.467-0.167-3.333-0.6-5.6c-0.466-2.3-0.7-3.05-0.7-2.25c0,0.367,0.083,1.1,0.25,2.2C1.3-24.117,1.433-23.017,1.5-22.15z
					"/>
				<linearGradient id="SVGID_4_" gradientUnits="userSpaceOnUse" x1="1.1626" y1="-63.9502" x2="2.0376" y2="-63.9502">
					<stop  offset="0" style="stop-color:#B78038"/>
					<stop  offset="1" style="stop-color:#B5A680"/>
				</linearGradient>
				<path style="fill-rule:evenodd;clip-rule:evenodd;fill:url(#SVGID_4_);" d="M1.4-55.3l0.55-3.95
					C2.183-60.683,2.1-65.133,1.7-72.6c-0.567,3.767-0.7,7.017-0.4,9.75c0.1,0.767,0.117,2.2,0.05,4.3
					C1.283-56.717,1.3-55.633,1.4-55.3z"/>
				
					<use xlink:href="#flash2.ai_x2F_Layer_4_x2F__x3C_Path_x3E__x5F_5_x5F_0"  width="8.954" height="74.3" y="-74.3" transform="matrix(1 0 0 1 1.9502 -0.1499)" style="overflow:visible;opacity:0.3711;enable-background:new    ;"/>
				
					<use xlink:href="#flash2.ai_x2F_Layer_4_x2F__x3C_Compound_Path_x3E__x5F_1"  width="6.852" height="57.95" x="-0.048" y="-57.95" transform="matrix(1 0 0 1 12.75 -0.5498)" style="overflow:visible;opacity:0.3711;enable-background:new    ;"/>
				
					<use xlink:href="#flash2.ai_x2F_Layer_4_x2F__x3C_Path_x3E__x5F_4_x5F_0"  width="7.514" height="66.95" x="0.036" y="-66.95" transform="matrix(1 0 0 1 16 -6.8501)" style="overflow:visible;opacity:0.3711;enable-background:new    ;"/>
				
					<use xlink:href="#flash2.ai_x2F_Layer_4_x2F__x3C_Path_x3E__x5F_3_x5F_0"  width="1.222" height="17.65" x="-0.008" y="-17.65" transform="matrix(1 0 0 1 9.0498 -3.5498)" style="overflow:visible;opacity:0.3711;enable-background:new    ;"/>
				
					<use xlink:href="#flash2.ai_x2F_Layer_4_x2F__x3C_Path_x3E__x5F_2_x5F_0"  width="1.037" height="15.15" x="0.017" y="-15.15" transform="matrix(1 0 0 1 20.5498 -9.8999)" style="overflow:visible;opacity:0.3984;enable-background:new    ;"/>
				
					<use xlink:href="#flash2.ai_x2F_Layer_4_x2F__x3C_Path_x3E__x5F_1_x5F_0"  width="3.852" height="36.75" x="0.048" y="-36.75" transform="matrix(1 0 0 1 6.9502 -2.25)" style="overflow:visible;opacity:0.3984;enable-background:new    ;"/>
				
					<use xlink:href="#flash2.ai_x2F_Layer_4_x2F__x3C_Compound_Path_x3E_"  width="3.291" height="14.9" x="-0.012" y="-14.9" transform="matrix(1 0 0 1 4.7998 -32.3999)" style="overflow:visible;opacity:0.3711;enable-background:new    ;"/>
				
					<use xlink:href="#flash2.ai_x2F_Layer_4_x2F__x3C_Path_x3E__x5F_0"  width="2.788" height="26.011" x="-0.03" y="-25.95" transform="matrix(1 0 0 1 12.5498 -45.0498)" style="overflow:visible;opacity:0.3008;enable-background:new    ;"/>
			</g>
		</g>
	</g>
	<g id="Layer_4_1_">
	</g>
</symbol>
<symbol  id="flash2.ai_x2F_Layer_4_x2F__x3C_Clip_Group_0_x3E__x5F_0" viewBox="0.04 -74.95 27.51 74.95">
	<g id="Layer_1_34_">
	</g>
	<g>
		<defs>
			<path id="SVGID_5_" d="M26.15-68.2c-0.267,3.267-0.417,5.4-0.45,6.4c-0.034,1.133,0.066,3.45,0.3,6.95c0.2,2.967,0.2,5.3,0,7
				c-0.533,4.333-0.917,7.533-1.15,9.6c-0.4,3.5-0.617,6.717-0.65,9.65c-0.067,4.733,0.2,8.9,0.8,12.5l0.8,5.75
				c0.067,0.5,0.217,3.833,0.45,10H1.55c0.034-2.2-0.133-4.8-0.5-7.8c-0.466-3.8-0.4-7.017,0.2-9.65c0.3-1.367,0.45-3.133,0.45-5.3
				c0-2.133,0.167-3.917,0.5-5.35c0.667-3.1,0.55-7.633-0.35-13.6C0.883-48.217,0.633-52.733,1.1-55.6
				c0.433-2.633,0.633-5.8,0.6-9.5c0-2.133-0.05-5.3-0.15-9.5h24.8C26.45-72.967,26.383-70.833,26.15-68.2z"/>
		</defs>
		<clipPath id="SVGID_6_">
			<use xlink:href="#SVGID_5_"  style="overflow:visible;"/>
		</clipPath>
		<g id="Layer_3_2_" style="clip-path:url(#SVGID_6_);">
			<g>
				
					<use xlink:href="#flash2.ai_x2F_Layer_4_x2F__x3C_Path_x3E__x5F_11"  width="11.933" height="74.95" x="-0.033" y="-74.95" transform="matrix(1 0 0 1 1.5 0)" style="overflow:visible;opacity:0.4414;enable-background:new    ;"/>
				
					<use xlink:href="#flash2.ai_x2F_Layer_4_x2F__x3C_Path_x3E__x5F_10_x5F_0"  width="6.904" height="74.2" x="-0.004" y="-74.25" transform="matrix(1 0 0 1 19.3501 -0.2998)" style="overflow:visible;opacity:0.25;enable-background:new    ;"/>
				<linearGradient id="SVGID_7_" gradientUnits="userSpaceOnUse" x1="1.0752" y1="-13.375" x2="2.3252" y2="-13.375">
					<stop  offset="0" style="stop-color:#B78038"/>
					<stop  offset="1" style="stop-color:#B5A680"/>
				</linearGradient>
				<path style="fill-rule:evenodd;clip-rule:evenodd;fill:url(#SVGID_7_);" d="M2.35-1.65c-0.467-5.633-0.6-9.383-0.4-11.25
					c0.167-1.867,0.216-5.934,0.15-12.2c-0.167,0.7-0.3,2.033-0.4,4c-0.3,3.367-0.5,6.25-0.6,8.65c-0.067,1.434,0.1,3.467,0.5,6.1
					C1.833-4.983,2.083-3.417,2.35-1.65z"/>
				<linearGradient id="SVGID_8_" gradientUnits="userSpaceOnUse" x1="0.8877" y1="-45.8496" x2="2.7143" y2="-45.8496">
					<stop  offset="0" style="stop-color:#B78038"/>
					<stop  offset="1" style="stop-color:#B5A680"/>
				</linearGradient>
				<path style="fill-rule:evenodd;clip-rule:evenodd;fill:url(#SVGID_8_);" d="M2.5-33.15l0.2-1.9c0.066-1.6-0.05-3.167-0.35-4.7
					C1.783-42.717,1.5-45.767,1.5-48.9c0-2.467,0.05-5.684,0.15-9.65c-0.1,1.3-0.283,2.283-0.55,2.95
					c-0.167,0.4-0.233,1.184-0.2,2.35c0.033,1.5,0.05,2.683,0.05,3.55c0,0.767,0.083,2.083,0.25,3.95c0.133,1.833,0.2,3.4,0.2,4.7
					c0,1.533,0.133,3.033,0.4,4.5C2.133-35.05,2.367-33.917,2.5-33.15z"/>
				
					<use xlink:href="#flash2.ai_x2F_Layer_4_x2F__x3C_Path_x3E__x5F_7_x5F_0"  width="4.556" height="74.7" x="-0.005" y="-74.7" transform="matrix(1 0 0 1 5.3999 -0.1001)" style="overflow:visible;opacity:0.4297;enable-background:new    ;"/>
				
					<use xlink:href="#flash2.ai_x2F_Layer_4_x2F__x3C_Path_x3E__x5F_6_x5F_0"  width="5.728" height="31.95" x="0.04" y="-31.95" transform="matrix(1 0 0 1 0 -20.9502)" style="overflow:visible;opacity:0.4297;enable-background:new    ;"/>
				
					<use xlink:href="#flash2.ai_x2F_Layer_4_x2F__x3C_Path_x3E__x5F_5_x5F_1"  width="11.116" height="70.75" x="-0.016" y="-70.75" transform="matrix(1 0 0 1 11.2998 -3.8999)" style="overflow:visible;opacity:0.3594;enable-background:new    ;"/>
				
					<use xlink:href="#flash2.ai_x2F_Layer_4_x2F__x3C_Path_x3E__x5F_4_x5F_1"  width="3.5" height="28" y="-28" transform="matrix(1 0 0 1 15.8501 -0.25)" style="overflow:visible;opacity:0.3594;enable-background:new    ;"/>
				
					<use xlink:href="#flash2.ai_x2F_Layer_4_x2F__x3C_Path_x3E__x5F_3_x5F_1"  width="4.684" height="28.05" x="0.017" y="-28.05" transform="matrix(1 0 0 1 22.8501 -19)" style="overflow:visible;opacity:0.2617;enable-background:new    ;"/>
				
					<use xlink:href="#flash2.ai_x2F_Layer_4_x2F__x3C_Path_x3E__x5F_2_x5F_1"  width="3.473" height="21.65" x="0.027" y="-21.65" transform="matrix(1 0 0 1 22.3501 -2.3999)" style="overflow:visible;opacity:0.2617;enable-background:new    ;"/>
				
					<use xlink:href="#flash2.ai_x2F_Layer_4_x2F__x3C_Path_x3E__x5F_1_x5F_1"  width="1.71" height="36.3" y="-36.45" transform="matrix(1 0 0 1 8.6499 -36.25)" style="overflow:visible;opacity:0.3984;enable-background:new    ;"/>
				
					<use xlink:href="#flash2.ai_x2F_Layer_4_x2F__x3C_Path_x3E__x5F_12"  width="2.39" height="20.338" x="-0.026" y="-20.35" transform="matrix(1 0 0 1 13.9502 -10.5)" style="overflow:visible;opacity:0.3008;enable-background:new    ;"/>
			</g>
		</g>
	</g>
	<g id="Layer_4_2_">
	</g>
</symbol>
<symbol  id="flash2.ai_x2F_Layer_4_x2F__x3C_Compound_Path_x3E_" viewBox="-0.012 -14.9 3.291 14.9">
	<g id="Layer_1_21_">
		
			<linearGradient id="SVGID_9_" gradientUnits="userSpaceOnUse" x1="289.3965" y1="285.7363" x2="326.1213" y2="285.7363" gradientTransform="matrix(0.9993 0.0368 -0.0368 0.9993 -294.2471 -304.2593)">
			<stop  offset="0" style="stop-color:#270D0A"/>
			<stop  offset="0.0157" style="stop-color:#2E1410"/>
			<stop  offset="0.1804" style="stop-color:#684D40"/>
			<stop  offset="0.3216" style="stop-color:#937663"/>
			<stop  offset="0.4314" style="stop-color:#AD9078"/>
			<stop  offset="0.498" style="stop-color:#B79980"/>
			<stop  offset="0.5647" style="stop-color:#AF927A"/>
			<stop  offset="0.6627" style="stop-color:#997E69"/>
			<stop  offset="0.7882" style="stop-color:#765E4C"/>
			<stop  offset="0.9333" style="stop-color:#453226"/>
			<stop  offset="1" style="stop-color:#2B1A11"/>
		</linearGradient>
		<path style="fill-rule:evenodd;clip-rule:evenodd;fill:url(#SVGID_9_);" d="M0.05,0C1.017-3.133,1.767-5.633,2.3-7.5
			c1-3.5,1.233-5.967,0.7-7.4c-1.367,2.267-2.2,4.383-2.5,6.35L0.1-5.3C0-4.633-0.033-3.767,0-2.7C0.033-1.5,0.05-0.6,0.05,0z
			 M2.4-12.05c0.2-0.4,0.283-0.184,0.25,0.65c-0.066,0.833-0.233,1.683-0.5,2.55L0.45-3.4C0.65-6.1,0.9-7.917,1.2-8.85
			C1.9-10.817,2.3-11.883,2.4-12.05z"/>
	</g>
</symbol>
<symbol  id="flash2.ai_x2F_Layer_4_x2F__x3C_Compound_Path_x3E__x5F_1" viewBox="-0.048 -57.95 6.852 57.95">
	<g id="Layer_1_16_">
		<linearGradient id="SVGID_10_" gradientUnits="userSpaceOnUse" x1="-11.6064" y1="-29.5464" x2="14.5186" y2="-28.5714">
			<stop  offset="0" style="stop-color:#270D0A"/>
			<stop  offset="0.0157" style="stop-color:#2E1410"/>
			<stop  offset="0.1804" style="stop-color:#684D40"/>
			<stop  offset="0.3216" style="stop-color:#937663"/>
			<stop  offset="0.4314" style="stop-color:#AD9078"/>
			<stop  offset="0.498" style="stop-color:#B79980"/>
			<stop  offset="0.5647" style="stop-color:#AF927A"/>
			<stop  offset="0.6627" style="stop-color:#997E69"/>
			<stop  offset="0.7882" style="stop-color:#765E4C"/>
			<stop  offset="0.9333" style="stop-color:#453226"/>
			<stop  offset="1" style="stop-color:#2B1A11"/>
		</linearGradient>
		<path style="fill-rule:evenodd;clip-rule:evenodd;fill:url(#SVGID_10_);" d="M1.4-12.2c0.633,2.233,1.067,3.85,1.3,4.85
			C2.967-6.217,3.15-5.133,3.25-4.1C3.383-2.933,3.617-1.567,3.95,0C5.75-8.233,6.7-14.467,6.8-18.7
			c0.034-2.6-0.117-4.983-0.45-7.15c-0.233-1.367-0.667-3.967-1.3-7.8c-0.367-2.6-0.55-5.767-0.55-9.5
			c0-3.567-0.117-6.017-0.35-7.35c-0.467-2.967-0.7-5.45-0.7-7.45c-0.7,3.233-1.233,7.017-1.6,11.35c-0.3,2.167-0.65,5.15-1.05,8.95
			c-0.9,9.3-1.083,15.816-0.55,19.55C0.483-16.3,0.867-14.333,1.4-12.2z M4.65-11c-0.267,1.633-0.533,3.2-0.8,4.7
			c0,0.533-0.633-1.767-1.9-6.9c-0.5-2.066-0.733-4.117-0.7-6.15c0.033-1.167,0.133-2.9,0.3-5.2c0.067-1.467,0.083-3.017,0.05-4.65
			c0-0.9-0.017-2.233-0.05-4c0-1.5,0.15-3.483,0.45-5.95c0.3-2.633,0.633-4.467,1-5.5c0.2,5.9,0.483,10.767,0.85,14.6
			c0.167,1.633,0.517,3.683,1.05,6.15c0.367,1.833,0.55,3.566,0.55,5.2C5.45-16.9,5.183-14.333,4.65-11z"/>
	</g>
</symbol>
<symbol  id="flash2.ai_x2F_Layer_4_x2F__x3C_Path_x3E_" viewBox="0 -5.5 19.3 5.5">
	<g id="Layer_1_12_">
		
			<linearGradient id="SVGID_11_" gradientUnits="userSpaceOnUse" x1="77.9351" y1="-16392.6191" x2="101.1377" y2="-16392.6191" gradientTransform="matrix(-0.015 -0.9999 0.9999 -0.015 16401.9004 -150.1353)">
			<stop  offset="0.0196" style="stop-color:#270D0A"/>
			<stop  offset="0.0275" style="stop-color:#2C1310"/>
			<stop  offset="0.1216" style="stop-color:#635452"/>
			<stop  offset="0.2118" style="stop-color:#918B88"/>
			<stop  offset="0.2941" style="stop-color:#B5B5B3"/>
			<stop  offset="0.3686" style="stop-color:#CFD4D2"/>
			<stop  offset="0.4353" style="stop-color:#DEE6E4"/>
			<stop  offset="0.4784" style="stop-color:#E4EDEB"/>
			<stop  offset="0.5294" style="stop-color:#DEE5E3"/>
			<stop  offset="0.6039" style="stop-color:#CCD0CE"/>
			<stop  offset="0.6941" style="stop-color:#AFAEAC"/>
			<stop  offset="0.7961" style="stop-color:#877E7C"/>
			<stop  offset="0.9098" style="stop-color:#54423F"/>
			<stop  offset="1" style="stop-color:#270D0A"/>
		</linearGradient>
		<path style="fill-rule:evenodd;clip-rule:evenodd;fill:url(#SVGID_11_);" d="M0-5.5c0.567,0.6,1.383,1.25,2.45,1.95
			c2.167,1.4,4.6,2.283,7.3,2.65c4.3,0.566,7.483,0.867,9.55,0.9l-1.55-2.1c-2,0-4.15-0.15-6.45-0.45
			C6.733-3.083,3.767-4.033,2.4-5.4L0-5.5z"/>
	</g>
</symbol>
<symbol  id="flash2.ai_x2F_Layer_4_x2F__x3C_Path_x3E__x5F_0" viewBox="-0.03 -25.95 2.788 26.011">
	<g id="Layer_1_22_">
		<path style="fill-rule:evenodd;clip-rule:evenodd;fill:#C4AC96;" d="M2.55-25.95c-0.267,2.9-0.517,5.017-0.75,6.35
			C1.5-18.267,1.233-17.067,1-16c-0.5,2.5-0.817,5.95-0.95,10.35c-0.133,4.2-0.1,6.083,0.1,5.65C0.917-2.033,1.233-4.217,1.1-6.55
			c-0.167-2.633-0.167-4.3,0-5c1-4.067,1.55-7.684,1.65-10.85C2.783-24,2.717-25.183,2.55-25.95z"/>
	</g>
</symbol>
<symbol  id="flash2.ai_x2F_Layer_4_x2F__x3C_Path_x3E__x5F_1" viewBox="0 -12.7 73.15 12.7">
	<g id="Layer_1_11_">
		
			<linearGradient id="SVGID_12_" gradientUnits="userSpaceOnUse" x1="86.1968" y1="-16366.4414" x2="108.4242" y2="-16366.4414" gradientTransform="matrix(-0.0151 -0.9999 0.9999 -0.0151 16402.707 -150.9688)">
			<stop  offset="0.0196" style="stop-color:#270D0A"/>
			<stop  offset="0.0275" style="stop-color:#2C1310"/>
			<stop  offset="0.1216" style="stop-color:#635452"/>
			<stop  offset="0.2118" style="stop-color:#918B88"/>
			<stop  offset="0.2941" style="stop-color:#B5B5B3"/>
			<stop  offset="0.3686" style="stop-color:#CFD4D2"/>
			<stop  offset="0.4353" style="stop-color:#DEE6E4"/>
			<stop  offset="0.4784" style="stop-color:#E4EDEB"/>
			<stop  offset="0.5294" style="stop-color:#DEE5E3"/>
			<stop  offset="0.6039" style="stop-color:#CCD0CE"/>
			<stop  offset="0.6941" style="stop-color:#AFAEAC"/>
			<stop  offset="0.7961" style="stop-color:#877E7C"/>
			<stop  offset="0.9098" style="stop-color:#54423F"/>
			<stop  offset="1" style="stop-color:#270D0A"/>
		</linearGradient>
		<path style="fill-rule:evenodd;clip-rule:evenodd;fill:url(#SVGID_12_);" d="M48.1-3.7c-4.267,0.867-9.767,0.417-16.5-1.35
			c-3.067-0.8-7.55-1.15-13.45-1.05C12.083-6,8.05-5.467,6.05-4.5L0-1.5L0.25,0c0.1-0.333,0.483-0.7,1.15-1.1
			c1.333-0.8,3.4-1.383,6.2-1.75c3.367-0.433,8-0.583,13.9-0.45s9.55,0.466,10.95,1c3.867,1.566,9.117,1.6,15.75,0.1
			c3.3-0.767,8.45-2.75,15.45-5.95c3.5-1.6,6.667-3.117,9.5-4.55l-5.2,0.45C65.517-11.017,62.867-9.733,60-8.4
			C54.267-5.733,50.3-4.167,48.1-3.7z"/>
	</g>
</symbol>
<symbol  id="flash2.ai_x2F_Layer_4_x2F__x3C_Path_x3E__x5F_10" viewBox="0 -6.463 128.65 6.463">
	<g id="Layer_1_2_">
		
			<linearGradient id="SVGID_13_" gradientUnits="userSpaceOnUse" x1="455.0933" y1="-16684.5742" x2="469.0926" y2="-16684.5742" gradientTransform="matrix(-0.0591 -0.9983 0.9983 -0.0591 16747.1797 -523.249)">
			<stop  offset="0" style="stop-color:#AE915E"/>
			<stop  offset="1" style="stop-color:#856040"/>
		</linearGradient>
		<path style="fill-rule:evenodd;clip-rule:evenodd;fill:url(#SVGID_13_);" d="M122.95-5.4c1.7-0.2,3.017-0.15,3.95,0.15
			c0.2,0.033,0.5,0.6,0.9,1.7c0.367,0.966,0.65,1.867,0.85,2.7c-0.133-1.467-0.217-2.333-0.25-2.6c-0.233-1.267-0.633-2.2-1.2-2.8
			c-0.133-0.267-2.133-0.283-6-0.05l-6.75,0.5c-3.667,0.267-5.833,0.4-6.5,0.4c-2.5,0.1-4.684,0.05-6.55-0.15
			c-8.867-1.067-21.033-0.733-36.5,1C58-3.75,48.5-3.167,36.4-2.8C21.333-2.367,13.367-2.117,12.5-2.05
			C8.367-1.85,5.267-1.667,3.2-1.5C2.033-1.4,1.433-1.35,1.4-1.35C0.7-1.183,0.233-0.817,0-0.25l1.1,0.2
			C2.567,0.05,4.817,0,7.85-0.2C8.717-0.267,10-0.3,11.7-0.3c1.733,0,3.017-0.034,3.85-0.1c7.633-0.533,11.867-0.85,12.7-0.95
			c3.4-0.4,8.233-0.533,14.5-0.4c4.833,0.1,12.217-0.433,22.15-1.6c8.3-0.9,14.55-1.533,18.75-1.9c1.333-0.133,2.917-0.133,4.75,0
			c2.8,0.233,4.383,0.35,4.75,0.35c2.167,0.066,5.434,0.217,9.8,0.45c3.867,0.2,7.133,0.284,9.8,0.25c1.033,0,2.233-0.083,3.6-0.25
			c0.767-0.1,1.95-0.25,3.55-0.45C120.267-4.967,121.283-5.133,122.95-5.4z"/>
	</g>
</symbol>
<symbol  id="flash2.ai_x2F_Layer_4_x2F__x3C_Path_x3E__x5F_10_x5F_0" viewBox="-0.004 -74.25 6.904 74.2">
	<g id="Layer_1_24_">
		<path style="fill-rule:evenodd;clip-rule:evenodd;fill:#C4AC96;" d="M1.6-39.35C0.633-32.55,0.1-28.3,0-26.6
			c-0.033,0.9,0.133,5.517,0.5,13.85c0.2,4.2,0.4,8.433,0.6,12.7h5.8v-74.2H1.1c0,3.2-0.083,5.95-0.25,8.25
			c-0.133,1.867,0,4.167,0.4,6.9c0.5,3.1,0.833,5.417,1,6.95C2.583-48.817,2.367-44.55,1.6-39.35z"/>
	</g>
</symbol>
<symbol  id="flash2.ai_x2F_Layer_4_x2F__x3C_Path_x3E__x5F_11" viewBox="-0.033 -74.95 11.933 74.95">
	<g id="Layer_1_23_">
		<linearGradient id="SVGID_14_" gradientUnits="userSpaceOnUse" x1="0.0249" y1="-37.4751" x2="13.4749" y2="-37.4751">
			<stop  offset="0" style="stop-color:#270D0A"/>
			<stop  offset="0.102" style="stop-color:#2C1210"/>
			<stop  offset="0.2314" style="stop-color:#3A221F"/>
			<stop  offset="0.3725" style="stop-color:#513C3A"/>
			<stop  offset="0.5294" style="stop-color:#72605E"/>
			<stop  offset="0.6941" style="stop-color:#9B8F8D"/>
			<stop  offset="0.8627" style="stop-color:#CDC7C5"/>
			<stop  offset="1" style="stop-color:#FBFAF9"/>
		</linearGradient>
		<path style="fill-rule:evenodd;clip-rule:evenodd;fill:url(#SVGID_14_);" d="M1.15-0.3L11.7,0c0.233-4.7-0.267-8.8-1.5-12.3
			c-0.3-0.934-0.534-2.133-0.7-3.6c-0.1-0.934-0.25-2.533-0.45-4.8c-0.333-3.466-0.5-5.333-0.5-5.6c-0.1-1.733-0.033-3.6,0.2-5.6
			c0.7-5.6,1.05-11.25,1.05-16.95c0-1.467-0.167-3.65-0.5-6.55c-0.033-0.8,0.133-1.833,0.5-3.1c0.5-1.633,0.784-2.65,0.85-3.05
			c0.267-1.3,0.5-3.65,0.7-7.05c0-1.033,0.033-2.15,0.1-3.35c0.1-1.966,0.25-2.966,0.45-3L1.25-74.9c0,3.233-0.133,6.717-0.4,10.45
			c-0.333,4.233-0.583,7.567-0.75,10c-0.267,5.034-0.133,9.6,0.4,13.7c0.633,5.3,0.75,9.617,0.35,12.95
			c-0.567,5.066-0.684,9.066-0.35,12C0.833-7.067,1.05-1.9,1.15-0.3z"/>
	</g>
</symbol>
<symbol  id="flash2.ai_x2F_Layer_4_x2F__x3C_Path_x3E__x5F_12" viewBox="-0.026 -20.35 2.39 20.338">
	<g id="Layer_1_32_">
		<path style="fill-rule:evenodd;clip-rule:evenodd;fill:#C4AC96;" d="M2.2-20.35c-0.6,0.567-1.117,1.517-1.55,2.85
			c-0.867,2.633-0.9,5.883-0.1,9.75c0.434,2.4,0.75,4.133,0.95,5.2c0.367,1.9,0.617,2.733,0.75,2.5c0.167-0.3,0.15-1.667-0.05-4.1
			c-0.167-2.5-0.45-5.083-0.85-7.75c-0.3-2.267-0.25-4.35,0.15-6.25C1.7-19.117,1.933-19.85,2.2-20.35z"/>
	</g>
</symbol>
<symbol  id="flash2.ai_x2F_Layer_4_x2F__x3C_Path_x3E__x5F_1_x5F_0" viewBox="0.048 -36.75 3.852 36.75">
	<g id="Layer_1_20_">
		<path style="fill-rule:evenodd;clip-rule:evenodd;fill:#C4AC96;" d="M3.9-36.75C2.4-30.483,1.333-25.167,0.7-20.8
			C-0.467-12.733-0.067-5.8,1.9,0C0.4-4.767,0.167-10.917,1.2-18.45C1.733-22.65,2.633-28.75,3.9-36.75z"/>
	</g>
</symbol>
<symbol  id="flash2.ai_x2F_Layer_4_x2F__x3C_Path_x3E__x5F_1_x5F_1" viewBox="0 -36.45 1.71 36.3">
	<g id="Layer_1_31_">
		<path style="fill-rule:evenodd;clip-rule:evenodd;fill:#C4AC96;" d="M1.55-23.55c-0.1-1.267-0.367-3.467-0.8-6.6
			c-0.341-2.573-0.566-4.673-0.675-6.3c0.041,0.843,0.033,2.06-0.025,3.65C0.017-30.7,0-29.3,0-28.6c0.033,1.467,0.233,3.7,0.6,6.7
			C0.9-19.233,1.033-17,1-15.2c0,0.733-0.133,2.133-0.4,4.2C0.367-9.1,0.267-7.717,0.3-6.85c0.129,3.06,0.162,5.293,0.1,6.7
			C0.451-0.963,0.768-4.847,1.35-11.8C1.75-16.6,1.817-20.517,1.55-23.55z"/>
	</g>
</symbol>
<symbol  id="flash2.ai_x2F_Layer_4_x2F__x3C_Path_x3E__x5F_2" viewBox="0 -3.892 28.003 3.892">
	<g id="Layer_1_10_">
		
			<linearGradient id="SVGID_15_" gradientUnits="userSpaceOnUse" x1="88.5913" y1="-16388.9727" x2="111.669" y2="-16388.9727" gradientTransform="matrix(-0.0151 -0.9999 0.9999 -0.0151 16402.5859 -150.8423)">
			<stop  offset="0.0196" style="stop-color:#270D0A"/>
			<stop  offset="0.0275" style="stop-color:#2C1310"/>
			<stop  offset="0.1216" style="stop-color:#635452"/>
			<stop  offset="0.2118" style="stop-color:#918B88"/>
			<stop  offset="0.2941" style="stop-color:#B5B5B3"/>
			<stop  offset="0.3686" style="stop-color:#CFD4D2"/>
			<stop  offset="0.4353" style="stop-color:#DEE6E4"/>
			<stop  offset="0.4784" style="stop-color:#E4EDEB"/>
			<stop  offset="0.5294" style="stop-color:#DEE5E3"/>
			<stop  offset="0.6039" style="stop-color:#CCD0CE"/>
			<stop  offset="0.6941" style="stop-color:#AFAEAC"/>
			<stop  offset="0.7961" style="stop-color:#877E7C"/>
			<stop  offset="0.9098" style="stop-color:#54423F"/>
			<stop  offset="1" style="stop-color:#270D0A"/>
		</linearGradient>
		<path style="fill-rule:evenodd;clip-rule:evenodd;fill:url(#SVGID_15_);" d="M0,0c5.667-0.367,10.883-0.833,15.65-1.4
			c4.7-0.6,8.567-1.067,11.6-1.4c1.6-0.233,0.65-0.534-2.85-0.9c-3.4-0.333-6.117-0.233-8.15,0.3C13.25-2.633,7.833-1.5,0,0z"/>
	</g>
</symbol>
<symbol  id="flash2.ai_x2F_Layer_4_x2F__x3C_Path_x3E__x5F_2_x5F_0" viewBox="0.017 -15.15 1.037 15.15">
	<g id="Layer_1_19_">
		<path style="fill-rule:evenodd;clip-rule:evenodd;fill:#C4AC96;" d="M0.15-15.15C-0.117-8.917,0.017-3.867,0.55,0
			c0.367-3.8,0.534-6.283,0.5-7.45C1.017-8.85,0.717-11.417,0.15-15.15z"/>
	</g>
</symbol>
<symbol  id="flash2.ai_x2F_Layer_4_x2F__x3C_Path_x3E__x5F_2_x5F_1" viewBox="0.027 -21.65 3.473 21.65">
	<g id="Layer_1_30_">
		<linearGradient id="SVGID_16_" gradientUnits="userSpaceOnUse" x1="-18.5229" y1="-11.5552" x2="4.1023" y2="-10.7625">
			<stop  offset="0" style="stop-color:#270D0A"/>
			<stop  offset="0.0157" style="stop-color:#2E1410"/>
			<stop  offset="0.1804" style="stop-color:#684D40"/>
			<stop  offset="0.3216" style="stop-color:#937663"/>
			<stop  offset="0.4314" style="stop-color:#AD9078"/>
			<stop  offset="0.498" style="stop-color:#B79980"/>
			<stop  offset="0.5647" style="stop-color:#AF927A"/>
			<stop  offset="0.6627" style="stop-color:#997E69"/>
			<stop  offset="0.7882" style="stop-color:#765E4C"/>
			<stop  offset="0.9333" style="stop-color:#453226"/>
			<stop  offset="1" style="stop-color:#2B1A11"/>
		</linearGradient>
		<path style="fill-rule:evenodd;clip-rule:evenodd;fill:url(#SVGID_16_);" d="M3-11.7c-0.267-1.1-0.4-2.95-0.4-5.55L2.5-19.4
			c0-0.067,0.067-0.45,0.2-1.15c0.066-0.5,0.033-0.867-0.1-1.1C2.033-20.75,1.667-20.2,1.5-20c-1.2,1.567-1.667,3.317-1.4,5.25
			c0.133,0.933,0.5,2.217,1.1,3.85C1.867-9.033,2.283-7.733,2.45-7c0.233,0.9,0.1,3.233-0.4,7L3.5-7.75
			C3.233-10.117,3.067-11.433,3-11.7z"/>
	</g>
</symbol>
<symbol  id="flash2.ai_x2F_Layer_4_x2F__x3C_Path_x3E__x5F_3" viewBox="0.024 -10.28 127.626 10.334">
	<g id="Layer_1_9_">
		
			<linearGradient id="SVGID_17_" gradientUnits="userSpaceOnUse" x1="94.0498" y1="-16339.5225" x2="112.2769" y2="-16339.5225" gradientTransform="matrix(-0.0151 -0.9999 0.9999 -0.0151 16403.0137 -151.2847)">
			<stop  offset="0.0196" style="stop-color:#270D0A"/>
			<stop  offset="0.0275" style="stop-color:#2C1310"/>
			<stop  offset="0.1216" style="stop-color:#635452"/>
			<stop  offset="0.2118" style="stop-color:#918B88"/>
			<stop  offset="0.2941" style="stop-color:#B5B5B3"/>
			<stop  offset="0.3686" style="stop-color:#CFD4D2"/>
			<stop  offset="0.4353" style="stop-color:#DEE6E4"/>
			<stop  offset="0.4784" style="stop-color:#E4EDEB"/>
			<stop  offset="0.5294" style="stop-color:#DEE5E3"/>
			<stop  offset="0.6039" style="stop-color:#CCD0CE"/>
			<stop  offset="0.6941" style="stop-color:#AFAEAC"/>
			<stop  offset="0.7961" style="stop-color:#877E7C"/>
			<stop  offset="0.9098" style="stop-color:#54423F"/>
			<stop  offset="1" style="stop-color:#270D0A"/>
		</linearGradient>
		<path style="fill-rule:evenodd;clip-rule:evenodd;fill:url(#SVGID_17_);" d="M125.95-9.15c-2.133,0.267-4.184,0.517-6.15,0.75
			c-3.867,0.4-7.033,0.55-9.5,0.45c-6-0.767-11.133-1.367-15.4-1.8c-8.1-0.833-14.017-0.683-17.75,0.45
			C72.783-8,66.1-6.65,57.1-5.25c-8.434,1.3-15.283,2.117-20.55,2.45c-3.4,0.233-10.6,0.4-21.6,0.5C5.35-2.233,0.433-2.117,0.2-1.95
			C-0.1-1.75-0.017-1.6,0.45-1.5c0.867,0.133,1.6,0.25,2.2,0.35c10.533,1.133,18.217,1.467,23.05,1
			c2.433-0.233,6.017-0.633,10.75-1.2c4.2-0.467,7.65-0.733,10.35-0.8c3.667-0.1,6.534-0.283,8.6-0.55c2.667-0.333,6.333-1,11-2
			c5.567-1.2,10.05-2.05,13.45-2.55C84.05-7.85,87.867-8.1,91.3-8c2.8,0.067,5.917,0.283,9.35,0.65c3.7,0.4,5.967,0.617,6.8,0.65
			c8,0.4,13.167,0.284,15.5-0.35c2.033-0.534,3.6-0.85,4.7-0.95c0-0.2-0.083-0.4-0.25-0.6C127.133-9,126.65-9.183,125.95-9.15z"/>
	</g>
</symbol>
<symbol  id="flash2.ai_x2F_Layer_4_x2F__x3C_Path_x3E__x5F_3_x5F_0" viewBox="-0.008 -17.65 1.222 17.65">
	<g id="Layer_1_18_">
		<linearGradient id="SVGID_18_" gradientUnits="userSpaceOnUse" x1="-4.918" y1="-9.0288" x2="10.107" y2="-8.4788">
			<stop  offset="0" style="stop-color:#270D0A"/>
			<stop  offset="0.0157" style="stop-color:#2E1410"/>
			<stop  offset="0.1804" style="stop-color:#684D40"/>
			<stop  offset="0.3216" style="stop-color:#937663"/>
			<stop  offset="0.4314" style="stop-color:#AD9078"/>
			<stop  offset="0.498" style="stop-color:#B79980"/>
			<stop  offset="0.5647" style="stop-color:#AF927A"/>
			<stop  offset="0.6627" style="stop-color:#997E69"/>
			<stop  offset="0.7882" style="stop-color:#765E4C"/>
			<stop  offset="0.9333" style="stop-color:#453226"/>
			<stop  offset="1" style="stop-color:#2B1A11"/>
		</linearGradient>
		<path style="fill-rule:evenodd;clip-rule:evenodd;fill:url(#SVGID_18_);" d="M0.25-17.65c-0.1,3.9-0.183,6.833-0.25,8.8
			C-0.067-5.25,0.283-2.3,1.05,0c0.2-1.167,0.217-2.233,0.05-3.2C1-3.733,0.85-4.433,0.65-5.3c-0.066-0.567,0-1.45,0.2-2.65
			c0.2-1.2,0.267-2.066,0.2-2.6C1.017-10.817,0.917-12,0.75-14.1C0.65-15.467,0.483-16.65,0.25-17.65z"/>
	</g>
</symbol>
<symbol  id="flash2.ai_x2F_Layer_4_x2F__x3C_Path_x3E__x5F_3_x5F_1" viewBox="0.017 -28.05 4.684 28.05">
	<g id="Layer_1_29_">
		<linearGradient id="SVGID_19_" gradientUnits="userSpaceOnUse" x1="-25.4658" y1="-15.0493" x2="5.8344" y2="-13.9547">
			<stop  offset="0" style="stop-color:#270D0A"/>
			<stop  offset="0.0157" style="stop-color:#2E1410"/>
			<stop  offset="0.1804" style="stop-color:#684D40"/>
			<stop  offset="0.3216" style="stop-color:#937663"/>
			<stop  offset="0.4314" style="stop-color:#AD9078"/>
			<stop  offset="0.498" style="stop-color:#B79980"/>
			<stop  offset="0.5647" style="stop-color:#AF927A"/>
			<stop  offset="0.6627" style="stop-color:#997E69"/>
			<stop  offset="0.7882" style="stop-color:#765E4C"/>
			<stop  offset="0.9333" style="stop-color:#453226"/>
			<stop  offset="1" style="stop-color:#2B1A11"/>
		</linearGradient>
		<path style="fill-rule:evenodd;clip-rule:evenodd;fill:url(#SVGID_19_);" d="M3.25-4.35C3.55-2.85,3.783-1.4,3.95,0L4.7-5.55
			c0-0.034-0.067-1.1-0.2-3.2c-0.1-1.267-0.233-2.317-0.4-3.15c-0.267-1.3-0.417-2.783-0.45-4.45c-0.033-0.5-0.05-2-0.05-4.5
			L3.5-24.4c0-0.133,0.083-0.75,0.25-1.85c0.133-0.8,0.117-1.4-0.05-1.8c-0.7,1.3-1.233,2.216-1.6,2.75
			c-1.667,2.466-2.333,5.283-2,8.45c0.167,1.533,0.65,3.617,1.45,6.25C2.483-7.567,3.05-5.483,3.25-4.35z"/>
	</g>
</symbol>
<symbol  id="flash2.ai_x2F_Layer_4_x2F__x3C_Path_x3E__x5F_4" viewBox="0 -11.096 130.2 11.132">
	<g id="Layer_1_8_">
		
			<linearGradient id="SVGID_20_" gradientUnits="userSpaceOnUse" x1="95.0088" y1="-16337.7588" x2="126.8373" y2="-16337.7588" gradientTransform="matrix(-0.0151 -0.9999 0.9999 -0.0151 16402.502 -150.7559)">
			<stop  offset="0.0196" style="stop-color:#270D0A"/>
			<stop  offset="0.0275" style="stop-color:#2C1310"/>
			<stop  offset="0.1216" style="stop-color:#635452"/>
			<stop  offset="0.2118" style="stop-color:#918B88"/>
			<stop  offset="0.2941" style="stop-color:#B5B5B3"/>
			<stop  offset="0.3686" style="stop-color:#CFD4D2"/>
			<stop  offset="0.4353" style="stop-color:#DEE6E4"/>
			<stop  offset="0.4784" style="stop-color:#E4EDEB"/>
			<stop  offset="0.5294" style="stop-color:#DEE5E3"/>
			<stop  offset="0.6039" style="stop-color:#CCD0CE"/>
			<stop  offset="0.6941" style="stop-color:#AFAEAC"/>
			<stop  offset="0.7961" style="stop-color:#877E7C"/>
			<stop  offset="0.9098" style="stop-color:#54423F"/>
			<stop  offset="1" style="stop-color:#270D0A"/>
		</linearGradient>
		<path style="fill-rule:evenodd;clip-rule:evenodd;fill:url(#SVGID_20_);" d="M129.05-11c-0.066-0.333-3.767,0.2-11.1,1.6
			c-8.2,1.566-13.7,2.15-16.5,1.75c-3.4-0.467-7-0.517-10.8-0.15c-2.767,0.233-5.967,0.733-9.6,1.5c-2.5,0.533-5.316,0.85-8.45,0.95
			L68.65-5.3C57.55-5.467,50.233-5.5,46.7-5.4c-1.767,0.033-5.833,0.316-12.2,0.85c-6.367,0.566-10.433,0.867-12.2,0.9
			C18.8-3.55,11.367-3.567,0-3.7l0.4,3.2c1.733,0.5,6.4,0.65,14,0.45c8.767-0.267,15.45-1.067,20.05-2.4c4.4-1.3,9.7-1.933,15.9-1.9
			C54.017-4.317,59.9-4.117,68-3.75c5.467,0.1,10.083-0.05,13.85-0.45c2.167-0.233,5.017-0.633,8.55-1.2
			c2.2-0.3,7.15-0.233,14.85,0.2c8.633,0.5,13.633,0.733,15,0.7c4-0.133,7.317-0.067,9.95,0.2C129.933-6.667,129.55-8.9,129.05-11z"
			/>
	</g>
</symbol>
<symbol  id="flash2.ai_x2F_Layer_4_x2F__x3C_Path_x3E__x5F_4_x5F_0" viewBox="0.036 -66.95 7.514 66.95">
	<g id="Layer_1_17_">
		<linearGradient id="SVGID_21_" gradientUnits="userSpaceOnUse" x1="-11.2373" y1="-34.0498" x2="10.9627" y2="-33.2248">
			<stop  offset="0" style="stop-color:#270D0A"/>
			<stop  offset="0.0157" style="stop-color:#2E1410"/>
			<stop  offset="0.1804" style="stop-color:#684D40"/>
			<stop  offset="0.3216" style="stop-color:#937663"/>
			<stop  offset="0.4314" style="stop-color:#AD9078"/>
			<stop  offset="0.498" style="stop-color:#B79980"/>
			<stop  offset="0.5647" style="stop-color:#AF927A"/>
			<stop  offset="0.6627" style="stop-color:#997E69"/>
			<stop  offset="0.7882" style="stop-color:#765E4C"/>
			<stop  offset="0.9333" style="stop-color:#453226"/>
			<stop  offset="1" style="stop-color:#2B1A11"/>
		</linearGradient>
		<path style="fill-rule:evenodd;clip-rule:evenodd;fill:url(#SVGID_21_);" d="M4.15-46c-0.1-1-0.683-4.15-1.75-9.45
			c-0.933-4.433-1.433-8.267-1.5-11.5c-0.733,1.467-1,5.25-0.8,11.35c0.066,1.5,0.433,3.383,1.1,5.65
			c0.8,2.733,1.283,4.567,1.45,5.5c0.133,0.7,0.6,4.367,1.4,11c0.367,2.867,0.767,6.95,1.2,12.25c0.5,6.1,0.817,9.817,0.95,11.15
			C6.633-6.017,7.083-2.667,7.55,0c0-3.433-0.1-7.35-0.3-11.75c-0.133-3.7-0.533-9.883-1.2-18.55c-0.133-1.967-0.433-4.583-0.9-7.85
			C4.617-42.017,4.283-44.633,4.15-46z"/>
	</g>
</symbol>
<symbol  id="flash2.ai_x2F_Layer_4_x2F__x3C_Path_x3E__x5F_4_x5F_1" viewBox="0 -28 3.5 28">
	<g id="Layer_1_28_">
		<path style="fill-rule:evenodd;clip-rule:evenodd;fill:#C4AC96;" d="M0.7-4.9C0.4-2.8,0.167-1.167,0,0h2
			c0.2-2.367,0.45-4.117,0.75-5.25l0.55-2.1C3.433-7.883,3.5-8.467,3.5-9.1c0-0.3-0.067-1.217-0.2-2.75
			c-0.066-1.167-0.566-3.633-1.5-7.4C1-22.55,0.633-25.467,0.7-28c-0.434,2.833-0.5,6.033-0.2,9.6c0.367,4.5,0.55,6.967,0.55,7.4
			C1.017-8.833,0.9-6.8,0.7-4.9z"/>
	</g>
</symbol>
<symbol  id="flash2.ai_x2F_Layer_4_x2F__x3C_Path_x3E__x5F_5" viewBox="0 -2.854 50.15 2.854">
	<g id="Layer_1_7_">
		
			<linearGradient id="SVGID_22_" gradientUnits="userSpaceOnUse" x1="-461.5635" y1="-488.0034" x2="-411.3619" y2="-488.0034" gradientTransform="matrix(0.9983 -0.0583 0.0583 0.9983 489.2104 459.9424)">
			<stop  offset="0" style="stop-color:#B78038"/>
			<stop  offset="1" style="stop-color:#B5A680"/>
		</linearGradient>
		<path style="fill-rule:evenodd;clip-rule:evenodd;fill:url(#SVGID_22_);" d="M0,0c4.367-0.5,9.733-0.967,16.1-1.4
			c12.733-0.867,24.083-1.184,34.05-0.95c-4.267-0.367-9.55-0.533-15.85-0.5C21.7-2.817,10.267-1.867,0,0z"/>
	</g>
</symbol>
<symbol  id="flash2.ai_x2F_Layer_4_x2F__x3C_Path_x3E__x5F_5_x5F_0" viewBox="0 -74.3 8.954 74.3">
	<g id="Layer_1_15_">
		<path style="fill-rule:evenodd;clip-rule:evenodd;fill:#C4AC96;" d="M1.8-18.55c-0.133,1.733-0.167,3.333-0.1,4.8
			c0.066,1.5,0.1,2.717,0.1,3.65C1.8-8.267,1.933-4.9,2.2,0h1.9L4.05-2.4C3.917-6.2,3.817-10,3.75-13.8
			c0-3.767,0.017-5.883,0.05-6.35c0.133-2.133,0.367-4.117,0.7-5.95c0.033-0.133,0.15-1.066,0.35-2.8c0.1-1.133,0.267-2.067,0.5-2.8
			c0.333-1.066,1.05-3,2.15-5.8c0.8-2.067,1.267-3.833,1.4-5.3c0.167-1.767-0.05-3.55-0.65-5.35c-0.833-2.533-1.183-6.033-1.05-10.5
			c0.133-5,0-8.517-0.4-10.55c-0.167,1.067-0.283,2.5-0.35,4.3c-0.1,2.2-0.184,3.617-0.25,4.25c-0.333,3.5-0.333,6.117,0,7.85
			c0.7,3.133,1.117,5.35,1.25,6.65c0.167,1.3,0.083,2.7-0.25,4.2c-0.133,0.567-0.567,1.934-1.3,4.1c-1.2,3.667-1.867,5.8-2,6.4
			c-0.233,2.133-0.583,3.7-1.05,4.7c-0.3-0.567-0.533-1.3-0.7-2.2c-0.267-1.333-0.417-2.066-0.45-2.2c-0.3-1.067-0.4-2.333-0.3-3.8
			c0-0.3,0.133-1.55,0.4-3.75c0.133-1.233,0.5-2.767,1.1-4.6c0-0.034,0.383-0.983,1.15-2.85C4.517-47.317,4.8-48.3,4.9-49.1
			c0.167-1.167-0.1-2.667-0.8-4.5c-0.733-2.2-1.2-3.85-1.4-4.95c-0.067-0.3,0.183-2.767,0.75-7.4c0.566-4.667,0.783-7.45,0.65-8.35
			h-2c0.1,1.433-0.133,4.45-0.7,9.05c-0.467,3.7-0.367,6.583,0.3,8.65c0.133,0.367,0.517,1.233,1.15,2.6
			c0.433,0.867,0.667,1.733,0.7,2.6c0.034,1-0.183,2.2-0.65,3.6c-0.533,1.533-0.9,2.7-1.1,3.5C0.6-39.833,0-36.417,0-34.05
			c0,1.533,0.35,4.1,1.05,7.7C1.683-23.05,1.933-20.45,1.8-18.55z"/>
	</g>
</symbol>
<symbol  id="flash2.ai_x2F_Layer_4_x2F__x3C_Path_x3E__x5F_5_x5F_1" viewBox="-0.016 -70.75 11.116 70.75">
	<g id="Layer_1_27_">
		<path style="fill-rule:evenodd;clip-rule:evenodd;fill:#C4AC96;" d="M1.6-7.85c0.066-4.333,0.05-6.967-0.05-7.9
			c-0.167-1.867-0.05-3.9,0.35-6.1c0.267-1.4,0.783-3.4,1.55-6C5.083-33.283,5.933-36.367,6-37.1c-0.033,0.767,0.133,1.867,0.5,3.3
			c0.467,1.6,0.767,2.75,0.9,3.45c0.867,4.267,1.3,8.117,1.3,11.55c-0.034,1.9-0.034,3.316,0,4.25c0.066,1.6,0.3,2.95,0.7,4.05
			c0.033-0.467-0.033-1.633-0.2-3.5c-0.1-1.433-0.017-2.617,0.25-3.55c0.033-0.067,0.367-1.1,1-3.1c0.4-1.2,0.617-2.233,0.65-3.1
			c0-0.7-0.15-1.55-0.45-2.55c-0.5-1.534-0.767-2.367-0.8-2.5c-0.067-0.4-0.167-1.133-0.3-2.2c-0.133-0.9-0.267-1.633-0.4-2.2
			c-1.333-4.966-2.167-8.483-2.5-10.55c-0.633-3.767-0.967-5.883-1-6.35c-0.433-2.933-0.633-5.467-0.6-7.6
			c0.034-2.1,0.267-4.466,0.7-7.1c0.2-1.467,0.517-3.434,0.95-5.9l-2.05-0.05c-0.167,2.833-0.35,4.6-0.55,5.3L3.55-63.4
			C3.217-61.7,3-60.467,2.9-59.7c-0.167,1.467-0.133,3.117,0.1,4.95c0.367,2.167,0.633,3.817,0.8,4.95
			c0.434,2.8,0.184,6.2-0.75,10.2c-0.167,0.833-0.333,2.117-0.5,3.85c-0.133,1.7-0.3,2.983-0.5,3.85C0.55-25.7-0.133-20.917,0-17.55
			c0.067,1.233,0.183,2.383,0.35,3.45c0.2,1.133,0.35,2.083,0.45,2.85c0.1,0.7,0.133,1.633,0.1,2.8
			c-0.066,1.333-0.083,2.267-0.05,2.8C1.05-3.317,1.567-1.433,2.4,0C1.8-1.9,1.533-4.517,1.6-7.85z"/>
	</g>
</symbol>
<symbol  id="flash2.ai_x2F_Layer_4_x2F__x3C_Path_x3E__x5F_6" viewBox="-0.01 -23.307 29.514 23.323">
	<g id="Layer_1_6_">
		<g>
			
				<linearGradient id="SVGID_23_" gradientUnits="userSpaceOnUse" x1="-381.5713" y1="-410.562" x2="-352.8633" y2="-410.562" gradientTransform="matrix(0.9988 -0.048 0.048 0.9988 401.0659 380.9736)">
				<stop  offset="0" style="stop-color:#E4EDEB"/>
				<stop  offset="0.0039" style="stop-color:#DEE6E4"/>
				<stop  offset="0.0353" style="stop-color:#B8B9B7"/>
				<stop  offset="0.0706" style="stop-color:#95908D"/>
				<stop  offset="0.1098" style="stop-color:#786C6A"/>
				<stop  offset="0.149" style="stop-color:#5E4F4C"/>
				<stop  offset="0.1922" style="stop-color:#4A3634"/>
				<stop  offset="0.2431" style="stop-color:#3A2421"/>
				<stop  offset="0.302" style="stop-color:#2F1714"/>
				<stop  offset="0.3765" style="stop-color:#290F0C"/>
				<stop  offset="0.5255" style="stop-color:#270D0A"/>
				<stop  offset="0.6118" style="stop-color:#2A100D"/>
				<stop  offset="0.6745" style="stop-color:#331A17"/>
				<stop  offset="0.6745" style="stop-color:#331A17;stop-opacity:0"/>
				<stop  offset="1" style="stop-color:#000000;stop-opacity:0"/>
			</linearGradient>
			<path style="fill-rule:evenodd;clip-rule:evenodd;fill:url(#SVGID_23_);" d="M29.15-0.25c0.233-1.567,0.35-2.6,0.35-3.1
				c0.033-1-0.133-2.05-0.5-3.15c-0.633-1.933-0.933-3.9-0.9-5.9c0.033-1.633,0.3-3.6,0.8-5.9c0.434-2.1,0.633-3.35,0.6-3.75
				c-0.067-0.9-0.65-1.317-1.75-1.25c-0.833,0.033-2.217,0.15-4.15,0.35c-1.867,0.2-3.267,0.317-4.2,0.35
				c-1.333,0.033-3.217-0.1-5.65-0.4c-2.233-0.233-4.117-0.3-5.65-0.2c-1.533,0.1-2.617,0.167-3.25,0.2
				c-1.033,0.067-2.167,0.1-3.4,0.1c-0.633,2.133-1.067,4.65-1.3,7.55c-0.267,3.033-0.2,5.633,0.2,7.8
				c0.333,1.867,0.6,3.216,0.8,4.05c0.4,1.5,0.934,2.533,1.6,3.1C4.25-0.067,6.2,0.067,8.6,0c2.267-0.067,5.667-0.233,10.2-0.5
				c0.667-0.033,2.2,0.083,4.6,0.35C25.5,0.083,27.417,0.05,29.15-0.25z"/>
			
				<linearGradient id="SVGID_24_" gradientUnits="userSpaceOnUse" x1="-381.5713" y1="-410.562" x2="-352.8633" y2="-410.562" gradientTransform="matrix(0.9988 -0.048 0.048 0.9988 401.0659 380.9736)">
				<stop  offset="0" style="stop-color:#000000;stop-opacity:0"/>
				<stop  offset="0.6745" style="stop-color:#331A17;stop-opacity:0"/>
				<stop  offset="0.6745" style="stop-color:#331A17"/>
				<stop  offset="0.7373" style="stop-color:#422B27"/>
				<stop  offset="0.7922" style="stop-color:#57423F"/>
				<stop  offset="0.8431" style="stop-color:#72605D"/>
				<stop  offset="0.8941" style="stop-color:#948582"/>
				<stop  offset="0.9451" style="stop-color:#BCB1AD"/>
				<stop  offset="0.9922" style="stop-color:#E9E3DF"/>
				<stop  offset="1" style="stop-color:#F2EDE9"/>
			</linearGradient>
			<path style="fill-rule:evenodd;clip-rule:evenodd;fill:url(#SVGID_24_);" d="M29.15-0.25c0.233-1.567,0.35-2.6,0.35-3.1
				c0.033-1-0.133-2.05-0.5-3.15c-0.633-1.933-0.933-3.9-0.9-5.9c0.033-1.633,0.3-3.6,0.8-5.9c0.434-2.1,0.633-3.35,0.6-3.75
				c-0.067-0.9-0.65-1.317-1.75-1.25c-0.833,0.033-2.217,0.15-4.15,0.35c-1.867,0.2-3.267,0.317-4.2,0.35
				c-1.333,0.033-3.217-0.1-5.65-0.4c-2.233-0.233-4.117-0.3-5.65-0.2c-1.533,0.1-2.617,0.167-3.25,0.2
				c-1.033,0.067-2.167,0.1-3.4,0.1c-0.633,2.133-1.067,4.65-1.3,7.55c-0.267,3.033-0.2,5.633,0.2,7.8
				c0.333,1.867,0.6,3.216,0.8,4.05c0.4,1.5,0.934,2.533,1.6,3.1C4.25-0.067,6.2,0.067,8.6,0c2.267-0.067,5.667-0.233,10.2-0.5
				c0.667-0.033,2.2,0.083,4.6,0.35C25.5,0.083,27.417,0.05,29.15-0.25z"/>
		</g>
	</g>
</symbol>
<symbol  id="flash2.ai_x2F_Layer_4_x2F__x3C_Path_x3E__x5F_6_x5F_0" viewBox="0.04 -31.95 5.728 31.95">
	<g id="Layer_1_26_">
		<path style="fill-rule:evenodd;clip-rule:evenodd;fill:#C4AC96;" d="M1.75-7.6C0.917-5.8,0.4-4.35,0.2-3.25
			C-0.067-1.75,0-0.667,0.4,0c0.133-2.733,0.95-5.45,2.45-8.15c0.333-0.6,0.85-1.467,1.55-2.6C5-11.783,5.383-12.7,5.55-13.5
			c0.4-2.033,0.25-4.283-0.45-6.75c-0.067-0.2-0.833-2.1-2.3-5.7c-0.933-2.333-1.4-4.333-1.4-6c-0.066,1.934-0.066,3.383,0,4.35
			c0.067,1,0.434,2.283,1.1,3.85c0.733,1.833,1.183,3.117,1.35,3.85c0.5,2.267,0.35,4.933-0.45,8C3.167-11.033,2.617-9.6,1.75-7.6z"
			/>
	</g>
</symbol>
<symbol  id="flash2.ai_x2F_Layer_4_x2F__x3C_Path_x3E__x5F_7" viewBox="0.033 -23.575 35.848 23.615">
	<g id="Layer_1_5_">
		<g>
			
				<linearGradient id="SVGID_25_" gradientUnits="userSpaceOnUse" x1="-382.8584" y1="-412.2495" x2="-348.0431" y2="-412.2495" gradientTransform="matrix(0.9988 -0.0482 0.0482 0.9988 402.6006 382.3623)">
				<stop  offset="0" style="stop-color:#E4EDEB"/>
				<stop  offset="0.0039" style="stop-color:#DEE6E4"/>
				<stop  offset="0.0353" style="stop-color:#B8B9B7"/>
				<stop  offset="0.0706" style="stop-color:#95908D"/>
				<stop  offset="0.1098" style="stop-color:#786C6A"/>
				<stop  offset="0.149" style="stop-color:#5E4F4C"/>
				<stop  offset="0.1922" style="stop-color:#4A3634"/>
				<stop  offset="0.2431" style="stop-color:#3A2421"/>
				<stop  offset="0.302" style="stop-color:#2F1714"/>
				<stop  offset="0.3765" style="stop-color:#290F0C"/>
				<stop  offset="0.5255" style="stop-color:#270D0A"/>
				<stop  offset="0.6118" style="stop-color:#2A100D"/>
				<stop  offset="0.6745" style="stop-color:#331A17"/>
				<stop  offset="0.6745" style="stop-color:#331A17;stop-opacity:0"/>
				<stop  offset="1" style="stop-color:#000000;stop-opacity:0"/>
			</linearGradient>
			<path style="fill-rule:evenodd;clip-rule:evenodd;fill:url(#SVGID_25_);" d="M34.4-4.05c-0.167-0.967-0.533-2.15-1.1-3.55
				c-0.667-1.733-0.85-3.383-0.55-4.95c0.233-0.967,0.75-2.617,1.55-4.95c0.3-1.067,0.8-2.45,1.5-4.15c0.3-1.2-0.233-1.833-1.6-1.9
				c-1.233-0.067-2.9,0-5,0.2C26.733-23.117,25.05-23,24.15-23c-1.566,0.033-3.7-0.017-6.4-0.15c-2.367-0.133-4.5-0.133-6.4,0
				c-1.333,0.066-2.817,0.083-4.45,0.05c-2-0.066-3.75-0.1-5.25-0.1c-0.767,2.067-1.267,4.75-1.5,8.05
				c-0.233,3.3-0.117,6.066,0.35,8.3C1.033-4.35,1.333-3,1.4-2.8C1.7-2,1.9-1.517,2-1.35c0.2,0.4,0.5,0.733,0.9,1
				c2.434,0.3,5.117,0.383,8.05,0.25c1.133-0.033,3.133,0,6,0.1c2.466,0.067,4.466,0.05,6-0.05c0.566-0.034,2.25-0.067,5.05-0.1
				c2.1,0,4.25-0.15,6.45-0.45C34.65-1.733,34.633-2.883,34.4-4.05z"/>
			
				<linearGradient id="SVGID_26_" gradientUnits="userSpaceOnUse" x1="-382.8584" y1="-412.2495" x2="-348.0431" y2="-412.2495" gradientTransform="matrix(0.9988 -0.0482 0.0482 0.9988 402.6006 382.3623)">
				<stop  offset="0" style="stop-color:#000000;stop-opacity:0"/>
				<stop  offset="0.6745" style="stop-color:#331A17;stop-opacity:0"/>
				<stop  offset="0.6745" style="stop-color:#331A17"/>
				<stop  offset="0.7373" style="stop-color:#422B27"/>
				<stop  offset="0.7922" style="stop-color:#57423F"/>
				<stop  offset="0.8431" style="stop-color:#72605D"/>
				<stop  offset="0.8941" style="stop-color:#948582"/>
				<stop  offset="0.9451" style="stop-color:#BCB1AD"/>
				<stop  offset="0.9922" style="stop-color:#E9E3DF"/>
				<stop  offset="1" style="stop-color:#F2EDE9"/>
			</linearGradient>
			<path style="fill-rule:evenodd;clip-rule:evenodd;fill:url(#SVGID_26_);" d="M34.4-4.05c-0.167-0.967-0.533-2.15-1.1-3.55
				c-0.667-1.733-0.85-3.383-0.55-4.95c0.233-0.967,0.75-2.617,1.55-4.95c0.3-1.067,0.8-2.45,1.5-4.15c0.3-1.2-0.233-1.833-1.6-1.9
				c-1.233-0.067-2.9,0-5,0.2C26.733-23.117,25.05-23,24.15-23c-1.566,0.033-3.7-0.017-6.4-0.15c-2.367-0.133-4.5-0.133-6.4,0
				c-1.333,0.066-2.817,0.083-4.45,0.05c-2-0.066-3.75-0.1-5.25-0.1c-0.767,2.067-1.267,4.75-1.5,8.05
				c-0.233,3.3-0.117,6.066,0.35,8.3C1.033-4.35,1.333-3,1.4-2.8C1.7-2,1.9-1.517,2-1.35c0.2,0.4,0.5,0.733,0.9,1
				c2.434,0.3,5.117,0.383,8.05,0.25c1.133-0.033,3.133,0,6,0.1c2.466,0.067,4.466,0.05,6-0.05c0.566-0.034,2.25-0.067,5.05-0.1
				c2.1,0,4.25-0.15,6.45-0.45C34.65-1.733,34.633-2.883,34.4-4.05z"/>
		</g>
	</g>
</symbol>
<symbol  id="flash2.ai_x2F_Layer_4_x2F__x3C_Path_x3E__x5F_7_x5F_0" viewBox="-0.005 -74.7 4.556 74.7">
	<g id="Layer_1_25_">
		<path style="fill-rule:evenodd;clip-rule:evenodd;fill:#C4AC96;" d="M0.2-16.6c-0.2,1.467-0.2,3.117,0,4.95
			C0.6-8.417,0.583-4.533,0.15,0l2.7-0.05c-0.167-4.434-0.333-8.034-0.5-10.8C2.183-13.383,2.1-15.2,2.1-16.3
			c0.033-1.833,0.25-3.95,0.65-6.35c0.633-3.767,1.033-6.283,1.2-7.55c0.367-2.8,0.566-5.566,0.6-8.3
			c0.034-4.867-0.633-10.483-2-16.85C2.017-57.783,1.933-61.733,2.3-67.2c0.167-2.733,0.383-5.233,0.65-7.5L0.3-74.6
			c-0.2,1.267-0.3,3-0.3,5.2c-0.033,2.767,0.1,5.6,0.4,8.5c0.6,4.967,1.05,8.733,1.35,11.3c0.5,4.7,0.633,7.733,0.4,9.1
			c-0.3,1.6-0.583,4.283-0.85,8.05c-0.267,3.467-0.45,6.817-0.55,10.05C0.717-20.9,0.533-18.967,0.2-16.6z"/>
	</g>
</symbol>
<symbol  id="flash2.ai_x2F_Layer_4_x2F__x3C_Path_x3E__x5F_8" viewBox="0 -23.7 31.75 23.668">
	<g id="Layer_1_4_">
		<g>
			
				<linearGradient id="SVGID_27_" gradientUnits="userSpaceOnUse" x1="-381.3545" y1="-410.8618" x2="-350.644" y2="-410.8618" gradientTransform="matrix(0.9988 -0.048 0.048 0.9988 401.0083 380.9209)">
				<stop  offset="0" style="stop-color:#E4EDEB"/>
				<stop  offset="0.0039" style="stop-color:#DEE6E4"/>
				<stop  offset="0.0353" style="stop-color:#B8B9B7"/>
				<stop  offset="0.0706" style="stop-color:#95908D"/>
				<stop  offset="0.1098" style="stop-color:#786C6A"/>
				<stop  offset="0.149" style="stop-color:#5E4F4C"/>
				<stop  offset="0.1922" style="stop-color:#4A3634"/>
				<stop  offset="0.2431" style="stop-color:#3A2421"/>
				<stop  offset="0.302" style="stop-color:#2F1714"/>
				<stop  offset="0.3765" style="stop-color:#290F0C"/>
				<stop  offset="0.5255" style="stop-color:#270D0A"/>
				<stop  offset="0.6118" style="stop-color:#2A100D"/>
				<stop  offset="0.6745" style="stop-color:#331A17"/>
				<stop  offset="0.6745" style="stop-color:#331A17;stop-opacity:0"/>
				<stop  offset="1" style="stop-color:#000000;stop-opacity:0"/>
			</linearGradient>
			<path style="fill-rule:evenodd;clip-rule:evenodd;fill:url(#SVGID_27_);" d="M31.5-1.65c0.167-1.233,0.25-2.05,0.25-2.45
				c-0.067-0.467-0.3-1.3-0.7-2.5c-0.667-1.9-0.966-3.867-0.9-5.9c0.033-1.6,0.317-3.567,0.85-5.9c0.5-2.233,0.75-3.483,0.75-3.75
				c-0.067-0.9-0.733-1.4-2-1.5c-1.133-0.067-2.583-0.067-4.35,0c-2.633,0.133-4.083,0.2-4.35,0.2c-7.2,0.167-11.783,0.3-13.75,0.4
				c-1.566,0.066-2.633,0.117-3.2,0.15c-0.9,0.066-1.967,0.233-3.2,0.5C0.3-20.467,0-18.033,0-15.1c0,2.6,0.233,5.117,0.7,7.55
				C1.033-5.65,1.317-4.3,1.55-3.5C1.95-2,2.5-0.967,3.2-0.4c1.433,0.3,3.5,0.417,6.2,0.35c1.6-0.034,5.2-0.2,10.8-0.5
				C25.767-0.983,29.533-1.35,31.5-1.65z"/>
			
				<linearGradient id="SVGID_28_" gradientUnits="userSpaceOnUse" x1="-381.3545" y1="-410.8618" x2="-350.644" y2="-410.8618" gradientTransform="matrix(0.9988 -0.048 0.048 0.9988 401.0083 380.9209)">
				<stop  offset="0" style="stop-color:#000000;stop-opacity:0"/>
				<stop  offset="0.6745" style="stop-color:#331A17;stop-opacity:0"/>
				<stop  offset="0.6745" style="stop-color:#331A17"/>
				<stop  offset="0.7373" style="stop-color:#422B27"/>
				<stop  offset="0.7922" style="stop-color:#57423F"/>
				<stop  offset="0.8431" style="stop-color:#72605D"/>
				<stop  offset="0.8941" style="stop-color:#948582"/>
				<stop  offset="0.9451" style="stop-color:#BCB1AD"/>
				<stop  offset="0.9922" style="stop-color:#E9E3DF"/>
				<stop  offset="1" style="stop-color:#F2EDE9"/>
			</linearGradient>
			<path style="fill-rule:evenodd;clip-rule:evenodd;fill:url(#SVGID_28_);" d="M31.5-1.65c0.167-1.233,0.25-2.05,0.25-2.45
				c-0.067-0.467-0.3-1.3-0.7-2.5c-0.667-1.9-0.966-3.867-0.9-5.9c0.033-1.6,0.317-3.567,0.85-5.9c0.5-2.233,0.75-3.483,0.75-3.75
				c-0.067-0.9-0.733-1.4-2-1.5c-1.133-0.067-2.583-0.067-4.35,0c-2.633,0.133-4.083,0.2-4.35,0.2c-7.2,0.167-11.783,0.3-13.75,0.4
				c-1.566,0.066-2.633,0.117-3.2,0.15c-0.9,0.066-1.967,0.233-3.2,0.5C0.3-20.467,0-18.033,0-15.1c0,2.6,0.233,5.117,0.7,7.55
				C1.033-5.65,1.317-4.3,1.55-3.5C1.95-2,2.5-0.967,3.2-0.4c1.433,0.3,3.5,0.417,6.2,0.35c1.6-0.034,5.2-0.2,10.8-0.5
				C25.767-0.983,29.533-1.35,31.5-1.65z"/>
		</g>
	</g>
</symbol>
<symbol  id="flash2.ai_x2F_Layer_4_x2F__x3C_Path_x3E__x5F_8_x5F_0" viewBox="0.037 -74.25 7.763 74.267">
	<g id="Layer_1_14_">
		<path style="fill-rule:evenodd;clip-rule:evenodd;fill:#C4AC96;" d="M2.6-47.25c0.066,1.333-0.167,3.483-0.7,6.45
			c-0.6,3.333-1.117,7.9-1.55,13.7c-0.4,5.5-0.417,9.617-0.05,12.35L1.1-8.8c0.333,1.7,0.517,2.983,0.55,3.85L1.5-0.05
			C1.5,0.017,2.367,0.033,4.1,0c0.833,0,1.683-0.017,2.55-0.05l1.15-49.7l-1.15-24.5H1.5c-0.233,4.367-0.283,7.617-0.15,9.75
			c0.167,3.167,0.667,7.05,1.5,11.65c0.133,0.667,0.133,1.583,0,2.75C2.683-48.667,2.6-47.717,2.6-47.25z"/>
	</g>
</symbol>
<symbol  id="flash2.ai_x2F_Layer_4_x2F__x3C_Path_x3E__x5F_9" viewBox="-0.003 -24.888 56.209 24.895">
	<g id="Layer_1_3_">
		
			<linearGradient id="SVGID_29_" gradientUnits="userSpaceOnUse" x1="-380.9102" y1="-410.5234" x2="-335.6828" y2="-410.5234" gradientTransform="matrix(0.9988 -0.048 0.048 0.9988 400.7358 380.6758)">
			<stop  offset="0" style="stop-color:#E4EDEB"/>
			<stop  offset="0.0039" style="stop-color:#DEE6E4"/>
			<stop  offset="0.0353" style="stop-color:#B8B9B7"/>
			<stop  offset="0.0706" style="stop-color:#95908D"/>
			<stop  offset="0.1098" style="stop-color:#786C6A"/>
			<stop  offset="0.149" style="stop-color:#5E4F4C"/>
			<stop  offset="0.1922" style="stop-color:#4A3634"/>
			<stop  offset="0.2431" style="stop-color:#3A2421"/>
			<stop  offset="0.302" style="stop-color:#2F1714"/>
			<stop  offset="0.3765" style="stop-color:#290F0C"/>
			<stop  offset="0.5255" style="stop-color:#270D0A"/>
			<stop  offset="0.5882" style="stop-color:#3A221F"/>
			<stop  offset="0.7098" style="stop-color:#6B5855"/>
			<stop  offset="0.7098" style="stop-color:#6B5855;stop-opacity:0"/>
			<stop  offset="1" style="stop-color:#000000;stop-opacity:0"/>
		</linearGradient>
		<path style="fill-rule:evenodd;clip-rule:evenodd;fill:url(#SVGID_29_);" d="M41.95-19.65c2.066-0.8,6.75-2.434,14.05-4.9
			c1-0.434-1.633-0.45-7.9-0.05c-7.5,0.467-11.633,0.684-12.4,0.65c-1.367-0.066-3.1-0.05-5.2,0.05c-2.3,0.133-4.033,0.217-5.2,0.25
			c-8.233,0.233-13.733,0.433-16.5,0.6c-1.833,0.1-3.1,0.167-3.8,0.2c-1.1,0.067-2.367,0.233-3.8,0.5
			C0.433-20.417,0.033-17.967,0-15c-0.033,2.567,0.217,5.083,0.75,7.55c0.433,1.934,0.767,3.284,1,4.05
			C2.217-1.933,2.867-0.917,3.7-0.35c2.066,0.333,4.533,0.434,7.4,0.3c3.767-0.133,8.083-0.367,12.95-0.7
			c4.3-0.267,7.85-0.6,10.65-1c0.033-0.233,0.033-1.967,0-5.2c-0.067-2.733,0.267-5.033,1-6.9
			C36.8-16.583,38.883-18.517,41.95-19.65z"/>
		
			<linearGradient id="SVGID_30_" gradientUnits="userSpaceOnUse" x1="-380.9102" y1="-410.5234" x2="-335.6828" y2="-410.5234" gradientTransform="matrix(0.9988 -0.048 0.048 0.9988 400.7358 380.6758)">
			<stop  offset="0" style="stop-color:#000000;stop-opacity:0"/>
			<stop  offset="0.7098" style="stop-color:#6B5855;stop-opacity:0"/>
			<stop  offset="0.7098" style="stop-color:#6B5855"/>
			<stop  offset="0.8824" style="stop-color:#B9AEAB"/>
			<stop  offset="1" style="stop-color:#F2EDE9"/>
		</linearGradient>
		<path style="fill-rule:evenodd;clip-rule:evenodd;fill:url(#SVGID_30_);" d="M41.95-19.65c2.066-0.8,6.75-2.434,14.05-4.9
			c1-0.434-1.633-0.45-7.9-0.05c-7.5,0.467-11.633,0.684-12.4,0.65c-1.367-0.066-3.1-0.05-5.2,0.05c-2.3,0.133-4.033,0.217-5.2,0.25
			c-8.233,0.233-13.733,0.433-16.5,0.6c-1.833,0.1-3.1,0.167-3.8,0.2c-1.1,0.067-2.367,0.233-3.8,0.5
			C0.433-20.417,0.033-17.967,0-15c-0.033,2.567,0.217,5.083,0.75,7.55c0.433,1.934,0.767,3.284,1,4.05
			C2.217-1.933,2.867-0.917,3.7-0.35c2.066,0.333,4.533,0.434,7.4,0.3c3.767-0.133,8.083-0.367,12.95-0.7
			c4.3-0.267,7.85-0.6,10.65-1c0.033-0.233,0.033-1.967,0-5.2c-0.067-2.733,0.267-5.033,1-6.9
			C36.8-16.583,38.883-18.517,41.95-19.65z"/>
	</g>
</symbol>
<symbol  id="flash2.ai_x2F_Layer_4_x2F__x3C_Path_x3E__x5F_9_x5F_0" viewBox="0.033 -74.8 13.075 74.8">
	<g id="Layer_1_13_">
		<linearGradient id="SVGID_31_" gradientUnits="userSpaceOnUse" x1="-3.0127" y1="-37.3999" x2="14.4123" y2="-37.3999">
			<stop  offset="0" style="stop-color:#270D0A"/>
			<stop  offset="0.102" style="stop-color:#2C1210"/>
			<stop  offset="0.2314" style="stop-color:#3A221F"/>
			<stop  offset="0.3725" style="stop-color:#513C3A"/>
			<stop  offset="0.5294" style="stop-color:#72605E"/>
			<stop  offset="0.6941" style="stop-color:#9B8F8D"/>
			<stop  offset="0.8627" style="stop-color:#CDC7C5"/>
			<stop  offset="1" style="stop-color:#FBFAF9"/>
		</linearGradient>
		<path style="fill-rule:evenodd;clip-rule:evenodd;fill:url(#SVGID_31_);" d="M1-0.1L11.8,0c0.633-5.833,1.067-12.983,1.3-21.45
			c0.066-2.033-0.25-6.4-0.95-13.1c-0.633-6.133-0.816-10.5-0.55-13.1c0.133-1.233,0.183-5.05,0.15-11.45
			c-0.033-7.7-0.017-12.933,0.05-15.7L1-74.5c0.033,0.533,0.033,1.133,0,1.8c-0.033,0.767-0.05,1.434-0.05,2
			c0.1,3.467-0.017,7.267-0.35,11.4c-0.233,2.5-0.133,5.05,0.3,7.65c0.434,2.7,0.6,4.767,0.5,6.2c-0.033,0.934-0.25,2.967-0.65,6.1
			s-0.633,5.184-0.7,6.15c-0.066,1.3,0.067,3.184,0.4,5.65c0.433,2.867,0.667,4.716,0.7,5.55c0.1,2.2,0.083,4.883-0.05,8.05
			C0.867-9.217,0.75-6.767,0.75-6.6c-0.033,0.867,0,1.95,0.1,3.25C0.95-1.817,1-0.733,1-0.1z"/>
	</g>
</symbol>
<g>
	<g>
		<g>
			
				<radialGradient id="SVGID_32_" cx="58.4531" cy="54.3584" r="35.2798" gradientTransform="matrix(0.9967 0.0815 0.033 -0.4819 -5.5001 80.4301)" gradientUnits="userSpaceOnUse">
				<stop  offset="0.4353" style="stop-color:#D7C8BA"/>
				<stop  offset="0.5882" style="stop-color:#CDC1B5"/>
				<stop  offset="0.8471" style="stop-color:#B3AEA8"/>
				<stop  offset="1" style="stop-color:#A0A09E"/>
			</radialGradient>
			<path style="fill-rule:evenodd;clip-rule:evenodd;fill:url(#SVGID_32_);" d="M81.25,47.75c2.467-0.033,4.5,0.316,6.1,1.05
				c-0.566,0.101-1.533,0.167-2.899,0.2c-1.267,0.033-2.233,0.116-2.9,0.25c-0.1,0.033-0.267,0.134-0.5,0.3
				c-0.2,0.167-0.434,0.267-0.7,0.3c-1.5,0.101-2.433,0.15-2.8,0.15c-0.866-0.066-1.45,0.1-1.75,0.5
				c-0.434,0.667-0.783,2.267-1.05,4.8c-0.033-0.399-0.1-1.75-0.2-4.05c-0.033-0.767-0.233-1.283-0.6-1.55
				c-0.267-0.167-0.75-0.25-1.45-0.25s-1.167,0.083-1.4,0.25c-0.1,0.066-0.25,0.3-0.449,0.7c-0.2,0.366-0.351,0.566-0.45,0.6
				c-0.334,0.1-0.517,0.083-0.55-0.05c-0.067-0.267-0.217-0.45-0.45-0.55c-0.533-0.233-1.017-0.351-1.45-0.351
				c-0.033,0-0.583,0.017-1.65,0.05L65.9,49.6c-0.434,0.067-0.801,0.384-1.101,0.95L64.15,51.9l-0.65-1.75
				c-0.267,0.466-0.383,1.25-0.35,2.35c0,0.634,0.033,1.5,0.1,2.6v6.75c-0.067-0.433-0.183-1.816-0.35-4.149
				c-0.1-1.733-0.316-3.084-0.65-4.05c-0.1,0.133-0.183,0.199-0.25,0.199c-0.067-0.866-0.15-1.55-0.25-2.05
				c-0.2-0.899-0.55-1.283-1.05-1.149c-0.367,0.1-0.617,0.6-0.75,1.5c-0.1,0.466-0.167,1.1-0.2,1.899
				c-0.233-0.366-0.45-1.066-0.65-2.1c-0.2-1-0.467-1.7-0.8-2.101c-0.667,0.334-1.233,0.467-1.7,0.4c-0.267-0.033-0.8-0.267-1.6-0.7
				c-0.967-0.467-1.567-0.733-1.8-0.8c-0.434-0.066-1.05,0.066-1.85,0.4c-0.8,0.3-1.317,0.35-1.55,0.149c-0.833-0.6-1.3-0.934-1.4-1
				c-0.667-0.333-1.283-0.45-1.85-0.35c-0.633,0.1-1.083,0.45-1.35,1.05c-0.034-0.533-0.133-1.083-0.3-1.65
				c-0.433-0.033-1.083,0.051-1.95,0.25c0,0.301-0.133,0.667-0.4,1.101c-0.066-0.2-0.183-0.417-0.35-0.65
				c-0.3-0.366-0.45-0.566-0.45-0.6c-0.067,0.2-0.217,0.483-0.45,0.85c-0.2-0.6-0.316-1.066-0.35-1.399
				c-0.934,0.1-2.383-0.217-4.35-0.95c-1.934-0.767-3.45-1.101-4.55-1c0.667-0.3,1.7-0.334,3.1-0.101
				c0.733,0.134,1.75,0.334,3.05,0.601c1,0.133,2.483,0.166,4.45,0.1c3.533-0.066,5.733-0.066,6.6,0
				c1.933,0.2,4.833,0.483,8.7,0.851c2.267,0.333,5.1,0.616,8.5,0.85c1.899,0.134,4.75,0.316,8.55,0.55
				C76.4,47.9,78.483,47.884,81.25,47.75z"/>
			
				<radialGradient id="SVGID_33_" cx="15.2334" cy="54.7295" r="17.4583" gradientTransform="matrix(0.9967 0.0816 0.0329 -0.4819 -5.5348 80.9791)" gradientUnits="userSpaceOnUse">
				<stop  offset="0.4353" style="stop-color:#D7C8BA"/>
				<stop  offset="0.5882" style="stop-color:#CDC1B5"/>
				<stop  offset="0.8471" style="stop-color:#B3AEA8"/>
				<stop  offset="1" style="stop-color:#A0A09E"/>
			</radialGradient>
			<path style="fill-rule:evenodd;clip-rule:evenodd;fill:url(#SVGID_33_);" d="M5.7,49.45c0.133-1.434,0.033-2.334-0.3-2.7
				c-0.1,0.134-0.316,0.316-0.65,0.55C4.517,45.934,4,45.5,3.2,46c0.066-1.233,0-2.1-0.2-2.6c-0.333-0.767-1.05-1.101-2.15-1
				C1.517,42.1,2.533,42.083,3.9,42.35c0.767,0.134,1.8,0.334,3.1,0.601c1.2,0.133,2.683,0.166,4.45,0.1
				c3.1-0.133,5.283-0.133,6.55,0c0.833,0.066,2.467,0.117,4.9,0.15c2.167,0.2,3.633,0.783,4.4,1.75c0.967,1.2,0.85,1.983-0.35,2.35
				c-1.067,0.367-2.133,0.283-3.2-0.25c-0.967-0.467-1.567-0.733-1.8-0.8c-0.434-0.066-1.05,0.05-1.85,0.35
				c-0.767,0.334-1.267,0.4-1.5,0.2c-0.867-0.666-1.333-1.017-1.4-1.05c-0.667-0.3-1.284-0.417-1.85-0.35
				c-0.667,0.1-1.117,0.449-1.35,1.05c-0.2-1.767-1.133-2-2.8-0.7c-1.333,1.066-2.333,2.25-3,3.55
				c-1.368,2.532-2.143,4.94-2.325,7.226c0.053-1.024,0.178-2.3,0.375-3.825c0.3-2.134,0.45-3.717,0.45-4.75
				c-0.333,0.566-0.6,1.3-0.8,2.2c-0.1,0.5-0.267,1.267-0.5,2.3C5.533,51.217,5.633,50.217,5.7,49.45z"/>
			<g>
				
					<linearGradient id="SVGID_34_" gradientUnits="userSpaceOnUse" x1="3.3433" y1="-67.2534" x2="25.0058" y2="-67.2534" gradientTransform="matrix(-0.0587 0.9983 -0.9983 -0.0587 5.505271e-004 7.634610e-005)">
					<stop  offset="0" style="stop-color:#AE915E"/>
					<stop  offset="0.4784" style="stop-color:#856040"/>
					<stop  offset="1" style="stop-color:#3D2400"/>
				</linearGradient>
				<path style="fill-rule:evenodd;clip-rule:evenodd;fill:url(#SVGID_34_);" d="M129.6,26.45c0.5,0.5,0.834,1.25,1,2.25
					c-0.1,1.167-0.316,2.383-0.649,3.65c-0.334,1.3-0.533,2.2-0.601,2.7c0-0.367-1.35-0.55-4.05-0.55s-4.066,0.133-4.1,0.4
					c-0.033,0.2,1.184,0.567,3.649,1.1c2.733,0.567,4.184,0.883,4.351,0.95c0.033,0.066,0.05,0.3,0.05,0.7
					c-0.033,0.5,0.033,1,0.2,1.5c-1.033,4.966-1.767,7.566-2.2,7.8c-0.467,0.2-4.05,0.05-10.75-0.45
					c-7.333-0.533-12.283-0.65-14.85-0.35C92.717,47.217,80.533,46.866,65.1,45.1c-6.833-0.8-16.333-1.366-28.5-1.699
					c-14.567-0.434-22.533-0.7-23.9-0.801c-6-0.366-9.133-0.6-9.4-0.699c-0.7-0.233-1.367-1.4-2-3.5c-0.433-1.4-0.633-3.333-0.6-5.8
					c0-1.133,0.1-3.75,0.3-7.85c0.033-0.7,0.25-1.333,0.65-1.9l0.6-0.6C4.317,20.817,14.8,20.8,33.7,22.2
					c26.066,1.933,39.45,2.9,40.149,2.9c6.601,0.133,18,0.066,34.2-0.2C121.217,24.8,128.4,25.317,129.6,26.45z"/>
				
					<linearGradient id="SVGID_35_" gradientUnits="userSpaceOnUse" x1="0.6641" y1="-67.3369" x2="45.1401" y2="-67.3369" gradientTransform="matrix(-0.0585 0.9983 -0.9983 -0.0585 -4.901215e-004 -1.578555e-004)">
					<stop  offset="0" style="stop-color:#AE915E"/>
					<stop  offset="0.4784" style="stop-color:#856040"/>
					<stop  offset="1" style="stop-color:#3D2400"/>
				</linearGradient>
				<path style="fill-rule:evenodd;clip-rule:evenodd;fill:url(#SVGID_35_);" d="M130.65,27.85c0.366,0.333,0.416,1.467,0.149,3.4
					c-0.066,0.433-0.283,1.617-0.649,3.55c-0.2,1.1-0.334,2.567-0.4,4.4c-0.134,2.333-0.233,3.816-0.3,4.45
					c-0.267,2.166-0.4,3.283-0.4,3.35c-0.333,1.7-0.783,2.684-1.35,2.95c-0.467,0.233-4.066,0.1-10.8-0.4
					c-7.334-0.566-12.284-0.7-14.851-0.399c-8.866,1.066-21.033,0.733-36.5-1c-6.9-0.801-16.4-1.384-28.5-1.75
					c-15.066-0.434-23.033-0.684-23.9-0.75C9.417,45.417,5.967,45.2,2.8,45c-1.267-0.134-1.95-0.55-2.05-1.25
					c-0.533-4.066-0.633-8.633-0.3-13.7l0.65-6.4c2.1-1.4,12.9-1.383,32.4,0.05c26.567,1.966,40.217,2.95,40.95,2.95
					c0.166,0,11.633-0.1,34.399-0.3C122.184,26.217,129.45,26.717,130.65,27.85z"/>
				
					<use xlink:href="#flash2.ai_x2F_Layer_4_x2F__x3C_Path_x3E__x5F_10"  width="128.65" height="6.463" y="-6.463" transform="matrix(1 0 0 -1 0.6499 43.5996)" style="overflow:visible;opacity:0.4805;enable-background:new    ;"/>
				
					<use xlink:href="#flash2.ai_x2F_Layer_4_x2F__x3C_Path_x3E__x5F_9"  width="56.209" height="24.895" x="-0.003" y="-24.888" transform="matrix(1 0 0 -1 2.7998 22.5)" style="overflow:visible;opacity:0.4414;enable-background:new    ;"/>
				
					<use xlink:href="#flash2.ai_x2F_Layer_4_x2F__x3C_Path_x3E__x5F_8"  width="31.75" height="23.668" y="-23.7" transform="matrix(1 0 0 -1 5 22.5498)" style="overflow:visible;opacity:0.4414;enable-background:new    ;"/>
				
					<use xlink:href="#flash2.ai_x2F_Layer_4_x2F__x3C_Path_x3E__x5F_7"  width="35.848" height="23.615" x="0.033" y="-23.575" transform="matrix(1 0 0 -1 91.4502 26.5)" style="overflow:visible;opacity:0.4414;enable-background:new    ;"/>
				
					<use xlink:href="#flash2.ai_x2F_Layer_4_x2F__x3C_Path_x3E__x5F_6"  width="29.514" height="23.323" x="-0.01" y="-23.307" transform="matrix(1 0 0 -1 94.8496 26.5498)" style="overflow:visible;opacity:0.4414;enable-background:new    ;"/>
				
					<use xlink:href="#flash2.ai_x2F_Layer_4_x2F__x3C_Path_x3E__x5F_5"  width="50.15" height="2.854" y="-2.854" transform="matrix(1 0 0 -1 41.4502 24.2998)" style="overflow:visible;enable-background:new    ;"/>
				
					<use xlink:href="#flash2.ai_x2F_Layer_4_x2F__x3C_Path_x3E__x5F_4"  width="130.2" height="11.132" y="-11.096" transform="matrix(1 0 0 -1 0.3501 26.6001)" style="overflow:visible;opacity:0.4414;enable-background:new    ;"/>
				
					<use xlink:href="#flash2.ai_x2F_Layer_4_x2F__x3C_Path_x3E__x5F_3"  width="127.626" height="10.334" x="0.024" y="-10.28" transform="matrix(1 0 0 -1 2.2998 32.6001)" style="overflow:visible;opacity:0.4414;enable-background:new    ;"/>
				
					<use xlink:href="#flash2.ai_x2F_Layer_4_x2F__x3C_Path_x3E__x5F_2"  width="28.003" height="3.892" y="-3.892" transform="matrix(1 0 0 -1 67.25 34.2002)" style="overflow:visible;opacity:0.4414;enable-background:new    ;"/>
				
					<use xlink:href="#flash2.ai_x2F_Layer_4_x2F__x3C_Path_x3E__x5F_1"  width="73.15" height="12.7" y="-12.7" transform="matrix(1 0 0 -1 0 36.1499)" style="overflow:visible;opacity:0.2305;enable-background:new    ;"/>
				
					<use xlink:href="#flash2.ai_x2F_Layer_4_x2F__x3C_Path_x3E_"  width="19.3" height="5.5" y="-5.5" transform="matrix(1 0 0 -1 83.75 44.25)" style="overflow:visible;opacity:0.2305;enable-background:new    ;"/>
			</g>
		</g>
		<g>
			
				<linearGradient id="SVGID_36_" gradientUnits="userSpaceOnUse" x1="-32.5498" y1="-37.3501" x2="-6.3384" y2="-37.3501" gradientTransform="matrix(-1 0 0 -1 0 0)">
				<stop  offset="0" style="stop-color:#AE915E"/>
				<stop  offset="0.4784" style="stop-color:#856040"/>
				<stop  offset="1" style="stop-color:#704C2E"/>
			</linearGradient>
			<path style="fill-rule:evenodd;clip-rule:evenodd;fill:url(#SVGID_36_);" d="M30.7,20.8c-0.333,2.7-0.434,4.867-0.3,6.5
				c0.167,1.534,0.283,3.55,0.35,6.05c0.067,1.967,0.2,3.617,0.4,4.95c0.2,1.467,0.567,4.15,1.1,8.05c0.4,3.5,0.4,6.134,0,7.9
				c-0.133,0.7-0.183,1.717-0.15,3.05c0,1.367-0.05,2.384-0.15,3.05c-0.333,1.9-0.467,4.25-0.4,7.051c0,1.566,0.05,3.916,0.15,7.05
				H6.9c-0.1-1.101,0-3.184,0.3-6.25c0.233-2.634,0.183-4.684-0.15-6.15C6.617,60.283,6.6,58.017,7,55.25
				c0.533-3.634,0.8-5.917,0.8-6.85c0-1.634-0.316-4.867-0.95-9.7c-0.533-4.1-0.65-7.35-0.35-9.75c0.6-4.934,0.9-8.233,0.9-9.9
				c0-1.367-0.083-3.267-0.25-5.7c-0.167-2.6-0.267-4.517-0.3-5.75L6.9,0.25h24.8c-0.167,4.6-0.267,7.083-0.3,7.45
				c-0.1,2.2-0.15,4.417-0.15,6.65C31.25,15.517,31.067,17.667,30.7,20.8z"/>
			
				<use xlink:href="#flash2.ai_x2F_Layer_4_x2F__x3C_Clip_Group_0_x3E_"  width="26.762" height="74.8" x="0.038" y="-74.8" transform="matrix(1 0 0 -1 6.2998 0)" style="overflow:visible;"/>
		</g>
		<g>
			
				<linearGradient id="SVGID_37_" gradientUnits="userSpaceOnUse" x1="-122.895" y1="-37.6748" x2="-97.295" y2="-37.6748" gradientTransform="matrix(-1 0 0 -1 0 0)">
				<stop  offset="0" style="stop-color:#AE915E"/>
				<stop  offset="0.4784" style="stop-color:#856040"/>
				<stop  offset="1" style="stop-color:#704C2E"/>
			</linearGradient>
			<path style="fill-rule:evenodd;clip-rule:evenodd;fill:url(#SVGID_37_);" d="M121.5,16.3c-0.6,3.6-0.866,7.767-0.8,12.5
				c0.033,2.934,0.25,6.15,0.649,9.65c0.233,2.066,0.617,5.267,1.15,9.6c0.2,1.7,0.2,4.033,0,7c-0.233,3.5-0.333,5.816-0.3,6.95
				c0.033,1,0.184,3.134,0.45,6.4c0.233,2.633,0.3,4.767,0.199,6.399h-3.199c-1.134,0-8.334,0-21.601,0
				c0.101-4.2,0.15-7.366,0.15-9.5c0.033-3.7-0.167-6.866-0.601-9.5c-0.466-2.866-0.216-7.383,0.75-13.55
				c0.9-5.967,1.017-10.5,0.351-13.6c-0.334-1.433-0.5-3.217-0.5-5.35c0-2.167-0.15-3.933-0.45-5.3c-0.6-2.633-0.667-5.85-0.2-9.65
				c0.367-3,0.533-5.6,0.5-7.8h24.7c0.033,0.3-0.017,1.95-0.15,4.95c-0.133,2.967-0.233,4.65-0.3,5.05L121.5,16.3z"/>
			
				<use xlink:href="#flash2.ai_x2F_Layer_4_x2F__x3C_Clip_Group_0_x3E__x5F_0"  width="27.51" height="74.95" x="0.04" y="-74.95" transform="matrix(1 0 0 -1 96.5 0.2002)" style="overflow:visible;"/>
		</g>
	</g>
	<g>
		
			<radialGradient id="SVGID_38_" cx="-138.6499" cy="-32.6499" r="28.1125" gradientTransform="matrix(-1 0 0 1.3188 0 75.7089)" gradientUnits="userSpaceOnUse">
			<stop  offset="0.0078" style="stop-color:#7E7B70"/>
			<stop  offset="0.4353" style="stop-color:#2B2B12"/>
			<stop  offset="1" style="stop-color:#242B26"/>
		</radialGradient>
		<path style="fill-rule:evenodd;clip-rule:evenodd;fill:url(#SVGID_38_);" d="M121.6,21.7c0.567,1.033,0.9,1.75,1,2.15
			c0.101,0.4,0.15,0.85,0.15,1.35c0.066-1.2,0.184-2.1,0.35-2.7c-0.033,1.233-0.05,1.883-0.05,1.95
			c0.033,0.733,0.184,1.367,0.45,1.9c0-0.067,0.033-0.317,0.1-0.75c0.034,0.3,0.167,0.75,0.4,1.35l0.2,1.45
			c0.133-0.033,0.35-0.167,0.649-0.4c-0.199,0.433-0.316,0.7-0.35,0.8l0.45-0.05c-0.167,0.367-0.05,0.867,0.35,1.5
			c0.467,0.8,0.717,1.333,0.75,1.6c-0.2-0.2-0.483-0.333-0.85-0.4c0.033,0.1,0.116,0.267,0.25,0.5c0.166,0.2,0.25,0.367,0.25,0.5
			l-0.45-0.05c0.1,0.2,0.333,0.417,0.7,0.65c0.366,0.233,0.6,0.417,0.7,0.55c-0.801,0-1.233,0.183-1.301,0.55
			c-0.033,0.167,0.034,0.383,0.2,0.65c0.2,0.333,0.316,0.55,0.351,0.65c-0.367-0.3-0.634-0.267-0.801,0.1
			c-0.166,0.4-0.116,0.667,0.15,0.8c-0.233-0.1-0.35-0.117-0.35-0.05c0,0.067,0.017,0.15,0.05,0.25c-0.033,0.1-0.084,0.3-0.15,0.6
			l0.55,0.4L124.9,37.8c-0.167,0.067-0.334,0.067-0.5,0c0,0.566,0.05,0.95,0.149,1.15l-0.3-0.2v0.85l-0.35-0.3
			c0.133,0.4,0.1,0.917-0.101,1.55c-0.242,0.787-0.375,1.287-0.399,1.5c0.063-0.973-0.004-1.622-0.2-1.949
			c-0.101,0.8-0.15,1.216-0.15,1.25c-0.133-0.5-0.233-0.884-0.3-1.15c0,0.366-0.15,0.816-0.45,1.35
			c-0.166,0.4-0.283,1.017-0.35,1.851V47c0,0.415,0.041,0.74,0.125,0.975c-0.318-0.767-0.526-1.791-0.625-3.074
			c-0.066-1.467-0.15-2.534-0.25-3.2c-0.101,0.666-0.15,1.666-0.15,3c-0.166-0.4-0.3-0.967-0.399-1.7
			c-0.034-0.8-0.084-1.384-0.15-1.75s-0.267-0.65-0.6-0.85c-0.4-0.034-0.667-0.101-0.801-0.2c-0.066-0.033-0.116-0.15-0.149-0.351
			c-0.033-0.1-0.134-0.133-0.3-0.1c-0.167,0.033-0.301,0.233-0.4,0.6c-0.066,0.367-0.066,0.601,0,0.7c-0.167-0.2-0.3-0.483-0.4-0.85
			c-0.133-0.467-0.216-0.75-0.25-0.851c-0.166-0.399-0.533-0.75-1.1-1.05c-0.8-0.4-1.217-0.6-1.25-0.6c0.2-0.067,0.533-0.117,1-0.15
			c-0.134-0.2-0.417-0.35-0.85-0.45c-0.534-0.1-0.867-0.2-1-0.3l0.649-0.2c-0.434,0-0.75-0.017-0.95-0.05
			c0.334-0.133,0.5-0.5,0.5-1.1c-0.066,0.1-0.216,0.183-0.449,0.25c-0.101-0.434-0.051-0.867,0.149-1.3
			c-0.366,0.434-0.533,0.8-0.5,1.1c-0.267-0.7-0.1-1.9,0.5-3.6c-0.233,0.233-0.399,0.467-0.5,0.7c0.101-0.4,0.267-0.85,0.5-1.35
			c0.167-0.3,0.4-0.733,0.7-1.3c-0.233,0-0.417,0.033-0.55,0.1l0.5-0.75c-0.261,0.116-0.469,0.208-0.625,0.275
			c0.196-0.107,0.354-0.416,0.475-0.925c0.101-0.566,0.167-0.933,0.2-1.1c0.033-0.267,0.134-0.55,0.3-0.85
			c0.2-0.367,0.334-0.65,0.4-0.85c0.132-0.331,0.165-0.789,0.1-1.375c0.04,0.308,0.273,0.183,0.7-0.375
			c0.167-0.333,0.217-0.733,0.15-1.2c-0.134-0.433-0.2-0.75-0.2-0.95c0.366,0.167,0.6,0.167,0.7,0c0-0.034,0.017-0.284,0.05-0.75
			l0.3-1.4c0.566,0.067,1.083-0.25,1.55-0.95c0.066-0.1,0.384-0.684,0.95-1.75c0.5-1.067,0.833-1.733,1-2
			c-0.1,0.533-0.333,1.25-0.7,2.15c-0.366,1-0.6,1.717-0.7,2.15c0.034-0.066,0.167-0.35,0.4-0.85c0.167-0.4,0.333-0.683,0.5-0.85
			c-0.267,1.167-0.217,2.333,0.15,3.5c0.1-0.967,0.183-1.55,0.25-1.75C120.9,20.083,121.134,20.833,121.6,21.7z"/>
		
			<radialGradient id="SVGID_39_" cx="-114.1431" cy="-35.7085" r="11.0092" gradientTransform="matrix(-0.9992 0.0409 0.0988 1.1717 6.529 77.4569)" gradientUnits="userSpaceOnUse">
			<stop  offset="0.4353" style="stop-color:#D7C8BA"/>
			<stop  offset="0.5647" style="stop-color:#CDC0B4"/>
			<stop  offset="0.7804" style="stop-color:#B3ABA4"/>
			<stop  offset="1" style="stop-color:#91918F"/>
		</radialGradient>
		<path style="fill-rule:evenodd;clip-rule:evenodd;fill:url(#SVGID_39_);" d="M121.85,20.9c-0.333,0.167-0.35,0.75-0.05,1.75
			c0.134,0.5,0.3,0.8,0.5,0.9c0.233,0.1,0.601,0.034,1.101-0.2c-0.267,0.333-0.384,0.617-0.351,0.85
			c0.167-0.067,0.283-0.15,0.351-0.25c-0.134,0.466-0.2,0.816-0.2,1.05l1.45-0.85c-0.034,0.133-0.2,0.383-0.5,0.75
			c-0.233,0.3-0.334,0.567-0.301,0.8c0.334-0.067,0.601-0.05,0.801,0.05c-0.134,0.133-0.233,0.3-0.301,0.5
			c0.267,0.067,0.417,0.533,0.45,1.4l0.25,0.85c0.033,0.167,0.066,0.417,0.101,0.75l0.55,0.05l-0.55,2.05
			c-0.2,0.367-0.233,0.667-0.101,0.9c0.101,0.167,0.351,0.433,0.75,0.8l-0.6,0.1l0.2,0.35c-0.334,0.2-0.517,0.6-0.551,1.2
			c-0.064,0.548,0.061,0.939,0.375,1.175L124.55,35.4l-0.149,1.7c-0.101,0.933-0.117,1.483-0.051,1.65l-0.3-0.7
			c0,1.533,0.033,2.45,0.101,2.75c-0.301-0.767-0.517-1.333-0.65-1.7l-0.25,1.2c0.032-0.256-0.118-0.989-0.45-2.2
			c0.057,0.293,0.057,0.776,0,1.45c-0.066,0.533-0.3,1.334-0.7,2.4c-0.133,0.6-0.267,1.483-0.399,2.649
			c-0.066-0.3-0.084-0.699-0.05-1.199l0.05-1.2c0-0.3-0.066-0.7-0.2-1.2c-0.134-0.533-0.2-0.934-0.2-1.2
			c-0.422,0.617-0.605,1.393-0.55,2.325c-0.072-0.762-0.188-1.319-0.35-1.675c-0.567-0.8-0.95-1.4-1.15-1.8
			c0,0.633,0.033,1.033,0.1,1.199c-0.1-0.233-0.35-0.6-0.75-1.1c-0.333-0.434-0.55-0.8-0.649-1.1v0.75
			c-0.4-0.667-0.634-1.267-0.7-1.8c-0.366,0.367-0.533,0.7-0.5,1c-0.167-0.233-0.3-0.817-0.4-1.75c-0.199,0-0.3,0.017-0.3,0.05
			l0.101-0.7c-0.101,0-0.317,0.083-0.65,0.25c0.2-0.4,0.233-0.733,0.1-1c-0.233-0.067-0.416-0.15-0.55-0.25
			c-0.033-0.067-0.033-0.184,0-0.35c0-0.2,0.066-0.583,0.2-1.15c0.134-0.467,0.167-0.85,0.1-1.15
			c-0.166-0.333-0.216-0.583-0.149-0.75c0.233-0.233,0.366-0.45,0.399-0.65c-0.199-0.033-0.35-0.033-0.449,0
			c0.166-0.467,0.283-0.816,0.35-1.05c0.1-0.4,0.1-0.75,0-1.05c-0.066-0.3-0.05-0.55,0.05-0.75c0.167-0.2,0.283-0.4,0.351-0.6
			c0.066-0.1,0.1-0.417,0.1-0.95c0.033-0.533,0.017-0.817-0.05-0.85l0.45,0.15c-0.2-0.867-0.267-1.5-0.2-1.9
			c0.3,0.2,0.5,0.483,0.6,0.85c0.233-0.1,0.384-0.433,0.45-1c0.033-0.567-0.05-0.933-0.25-1.1l0.55,0.2c0-0.2-0.033-0.35-0.1-0.45
			c0.233,0.133,0.366,0.15,0.399,0.05c0.034-0.1-0.017-0.25-0.149-0.45l-1-0.95c0.333,0.233,0.8,0.434,1.399,0.6
			c-0.3-0.4-0.449-1.133-0.449-2.2l0.8,1.45c-0.101-0.433-0.017-0.867,0.25-1.3c0.133,0.367,0.383,0.816,0.75,1.35
			c0.434,0.6,0.7,1.033,0.8,1.3c0.4-0.167,0.783-0.467,1.15-0.9c-0.4,0.6-0.584,1.066-0.551,1.4
			C121.184,21.4,121.517,21.033,121.85,20.9z"/>
		<path style="fill-rule:evenodd;clip-rule:evenodd;fill:#2B3321;" d="M117.9,34.4c0-0.566,0.267-0.85,0.8-0.85
			c0.5,0,0.75,0.284,0.75,0.85c0,0.533-0.25,0.8-0.75,0.8C118.167,35.2,117.9,34.933,117.9,34.4z"/>
		<path style="fill-rule:evenodd;clip-rule:evenodd;fill:#2B3321;" d="M118.7,25.1c0-0.367,0.1-0.684,0.3-0.95s0.45-0.4,0.75-0.4
			c0.267,0,0.5,0.133,0.7,0.4s0.3,0.583,0.3,0.95s-0.1,0.683-0.3,0.95c-0.2,0.267-0.434,0.4-0.7,0.4c-0.3,0-0.55-0.133-0.75-0.4
			C118.8,25.783,118.7,25.467,118.7,25.1z"/>
		<path style="fill-rule:evenodd;clip-rule:evenodd;fill:#2B3321;" d="M121,26.6c0-0.3,0.134-0.45,0.4-0.45s0.399,0.15,0.399,0.45
			c0,0.3-0.133,0.45-0.399,0.45S121,26.9,121,26.6z"/>
	</g>
</g>
</svg>
