<?xml version="1.0" encoding="iso-8859-1"?>
<!-- Generator: Adobe Illustrator 15.1.0, SVG Export Plug-In . SVG Version: 6.00 Build 0)  -->
<!DOCTYPE svg PUBLIC "-//W3C//DTD SVG 1.1//EN" "http://www.w3.org/Graphics/SVG/1.1/DTD/svg11.dtd">
<svg version="1.1" id="Layer_1" xmlns="http://www.w3.org/2000/svg" xmlns:xlink="http://www.w3.org/1999/xlink" x="0px" y="0px"
	 width="164.05px" height="52.4px" viewBox="0 0 164.05 52.4" style="enable-background:new 0 0 164.05 52.4;" xml:space="preserve"
	>
<symbol  id="flash0.ai_x2F_Layer_1_x2F__x3C_Path_x3E_" viewBox="0 -52.413 164.05 52.413">
	<g id="Layer_1_2_">
		<path style="fill-rule:evenodd;clip-rule:evenodd;fill:#E4EBEB;" d="M135.25-21c0.967-0.667,2.45-1.2,4.45-1.6
			c2.1-0.467,3.4-1.066,3.9-1.8c0.566-0.867-0.667-1.4-3.7-1.6c-3.566-0.267-6.133-1.083-7.7-2.45c-1.6-1.4-0.85-2.466,2.25-3.2
			c2.367-0.567,4.7-0.733,7-0.5c3.333,0.3,6.183,0.383,8.55,0.25c3.533-0.2,6.933-0.75,10.2-1.65c1.633-0.434,2.917-0.85,3.85-1.25
			c-2.533,0.367-5.55,0.517-9.05,0.45c-7-0.1-12.85-1.183-17.55-3.25c-7.367-3.6-12.85-6.25-16.45-7.95
			c-6.367-3.034-11.85-5.034-16.45-6C99.183-52.683,94.333-52.7,90-51.6c-4.433,1.133-8.183,3.434-11.25,6.9
			c-2.5,2.833-5.05,4.05-7.65,3.65c-3.167-1.1-5.883-1.684-8.15-1.75c-5.7-0.133-9.934,2.783-12.7,8.75
			c-0.133-1.333-0.7-2.633-1.7-3.9c-1.966-2.566-5.133-3.75-9.5-3.55c-4.1,0.167-7.233,1.65-9.4,4.45
			c-1.1,1.633-1.95,2.867-2.55,3.7c-1.033,1.434-2.133,2.55-3.3,3.35c-2.333,1.567-4.483,2.3-6.45,2.2
			c-2.467-0.467-4.75-0.684-6.85-0.65c-2.633,0.034-5.167,0.483-7.6,1.35c-1.233,0.434-2.2,0.867-2.9,1.3
			c0.933-0.233,2.05-0.333,3.35-0.3c2.6,0.033,4.767,0.684,6.5,1.95c2.8,2.033,5.2,3.333,7.2,3.9c3.034,0.9,5.867,0.5,8.5-1.2
			c1,1.567,2.367,3.05,4.1,4.45c3.467,2.833,7.017,3.85,10.65,3.05c5.267-1.167,8.467-1.75,9.6-1.75c2.1,0.034,3.733,1.133,4.9,3.3
			c1.667,3.033,4.2,5.7,7.6,8c4.4,2.967,9.283,4.433,14.65,4.4c5.4,0,10.233-1.2,14.5-3.6c1.633-0.9,2.717-1.75,3.25-2.55
			c0.534-0.8,0.333-1.267-0.6-1.4c-2.1-0.3-3.267-0.9-3.5-1.8c-0.267-1.033,0.933-1.983,3.6-2.85c2.8-0.9,4.767-1.267,5.9-1.1
			c0.966,0.133,3.3,1.033,7,2.7c9.033,4.033,16.2,2.85,21.5-3.55C131.567-17.683,133.75-19.967,135.25-21z"/>
	</g>
</symbol>
<use xlink:href="#flash0.ai_x2F_Layer_1_x2F__x3C_Path_x3E_"  width="164.05" height="52.413" y="-52.413" transform="matrix(1 0 0 -1 0 0)" style="overflow:visible;opacity:0.6484;enable-background:new    ;"/>
</svg>
