<?xml version="1.0" encoding="iso-8859-1"?>
<!-- Generator: Adobe Illustrator 15.1.0, SVG Export Plug-In . SVG Version: 6.00 Build 0)  -->
<!DOCTYPE svg PUBLIC "-//W3C//DTD SVG 1.1//EN" "http://www.w3.org/Graphics/SVG/1.1/DTD/svg11.dtd">
<svg version="1.1" id="Layer_3" xmlns="http://www.w3.org/2000/svg" xmlns:xlink="http://www.w3.org/1999/xlink" x="0px" y="0px"
	 width="41.2px" height="53.35px" viewBox="0 0 41.2 53.35" style="enable-background:new 0 0 41.2 53.35;" xml:space="preserve">
<symbol  id="flash0.ai_x2F_Layer_3_x2F__x3C_Path_x3E_" viewBox="0 -4.7 16.3 4.7">
	<g id="Layer_1_2_">
		<path style="fill-rule:evenodd;clip-rule:evenodd;fill:#0D5069;" d="M16.3-2.35c0-0.667-0.8-1.217-2.4-1.65
			c-1.566-0.467-3.483-0.7-5.75-0.7S3.967-4.467,2.4-4C0.8-3.567,0-3.017,0-2.35C0-1.717,0.8-1.167,2.4-0.7
			C3.967-0.233,5.883,0,8.15,0s4.184-0.233,5.75-0.7C15.5-1.167,16.3-1.717,16.3-2.35z"/>
	</g>
</symbol>
<symbol  id="flash0.ai_x2F_Layer_3_x2F__x3C_Path_x3E__x5F_0" viewBox="0.009 -5.451 6.641 5.436">
	<g id="Layer_1_3_">
		<path style="fill-rule:evenodd;clip-rule:evenodd;fill:#2C6952;" d="M6.05-1.7c-0.333,0.133-0.7,0.117-1.1-0.05
			C4.583-1.817,4.167-2.167,3.7-2.8C3.467-3.133,3.15-3.633,2.75-4.3c-0.367-0.534-0.717-0.867-1.05-1
			C0.833-5.633,0.333-5.417,0.2-4.65c-0.1,0.667,0.1,1.3,0.6,1.9C0.833-2.717,1.117-2.5,1.65-2.1c0.434,0.3,0.633,0.533,0.6,0.7
			C1.65-1.333,0.933-1.533,0.1-2c0.066,0.133,0.25,0.3,0.55,0.5c0.367,0.2,0.6,0.367,0.7,0.5C0.983-1.367,0.567-1.483,0.1-1.35
			c-0.333,0.1,0.25,0.533,1.75,1.3c0.767,0.1,1.633-0.017,2.6-0.35c0.6-0.233,1.1-0.483,1.5-0.75c0.167-0.1,0.333-0.3,0.5-0.6
			c0.133-0.233,0.2-0.4,0.2-0.5c0-0.067-0.066-0.017-0.2,0.15C6.283-1.867,6.15-1.733,6.05-1.7z"/>
	</g>
</symbol>
<symbol  id="flash0.ai_x2F_Layer_3_x2F__x3C_Path_x3E__x5F_1" viewBox="-0.004 -15.025 15.664 14.988">
	<g id="Layer_1_4_">
		<path style="fill-rule:evenodd;clip-rule:evenodd;fill:#2C6952;" d="M10.2-8.4c0.367-0.767,0.6-1.4,0.7-1.9
			c0.333-1.3,0.083-2.517-0.75-3.65c-1.033-1.433-2.183-1.433-3.45,0c-0.5,0.567-0.85,1.65-1.05,3.25
			c-0.167,1.934-0.333,3.383-0.5,4.35c-0.3,1.934-0.767,3.133-1.4,3.6C3.183-2.017,2.5-1.65,1.7-1.65
			c-0.2,0.033-0.583-0.133-1.15-0.5C0.15-2.417-0.033-2.483,0-2.35C0.133-2.083,0.45-1.733,0.95-1.3
			c0.533,0.466,1.033,0.767,1.5,0.9C3.15-0.2,3.667-0.083,4-0.05c0.467,0.033,1.117,0,1.95-0.1c1.066-0.133,1.933-0.333,2.6-0.6
			c0.934-0.333,1.983-0.883,3.15-1.65c2.066-1.333,3.333-3.167,3.8-5.5c0.267-1.434,0.2-2.417-0.2-2.95
			c-0.3-0.433-0.767-0.583-1.4-0.45c-0.233,0.066-0.533,0.433-0.9,1.1c-0.533,0.967-0.817,1.467-0.85,1.5
			c-0.167,0.267-0.183-0.017-0.05-0.85c0.167-1.1,0.25-1.684,0.25-1.75c0-0.167-0.15,0.133-0.45,0.9c-0.4,1.033-0.75,1.8-1.05,2.3
			c-0.4,0.6-0.75,1.017-1.05,1.25c-0.3,0.2-0.383,0.133-0.25-0.2C9.617-7.217,9.833-7.667,10.2-8.4z"/>
	</g>
</symbol>
<g>
	
		<use xlink:href="#flash0.ai_x2F_Layer_3_x2F__x3C_Path_x3E_"  width="16.3" height="4.7" y="-4.7" transform="matrix(1 0 0 -1 8 48.6504)" style="overflow:visible;opacity:0.3086;enable-background:new    ;"/>
	<g>
		<g>
			<g>
				<linearGradient id="SVGID_1_" gradientUnits="userSpaceOnUse" x1="25.3145" y1="13.3374" x2="-1.9355" y2="-3.0626">
					<stop  offset="0" style="stop-color:#7AA130"/>
					<stop  offset="1" style="stop-color:#387318"/>
				</linearGradient>
				<path style="fill-rule:evenodd;clip-rule:evenodd;fill:url(#SVGID_1_);" d="M23.45,14.25c-0.4,0.733-0.967,1.217-1.7,1.45
					c-0.634,0.2-1.267,0.167-1.9-0.1c-0.7-0.3-1.083-0.75-1.15-1.35c-0.067-0.7-0.133-1.067-0.2-1.1c-0.4-0.167-0.717-0.3-0.95-0.4
					c-0.433-0.2-0.716-0.55-0.85-1.05c-0.233-0.833,0.233-1.684,1.4-2.55c1.2-0.867,2.6-1.35,4.2-1.45
					c1.467-0.1,2.834,0.15,4.101,0.75c1.1,0.533,1.8,1.117,2.1,1.75c0.267,0.566,0.3,1.033,0.1,1.4
					c-0.267,0.367-0.649,0.4-1.149,0.1c-0.533-0.333-1.184-0.25-1.95,0.25C24.733,12.417,24.05,13.183,23.45,14.25z"/>
				<linearGradient id="SVGID_2_" gradientUnits="userSpaceOnUse" x1="16.4248" y1="11.75" x2="28.9751" y2="11.75">
					<stop  offset="0" style="stop-color:#7A8730"/>
					<stop  offset="1" style="stop-color:#549638"/>
				</linearGradient>
				<path style="fill-rule:evenodd;clip-rule:evenodd;fill:url(#SVGID_2_);" d="M22.85,7.4c1.434,0.033,2.733,0.333,3.9,0.9
					c1.033,0.534,1.7,1.133,2,1.8c0.134,0.267,0.2,0.566,0.2,0.9c0,0.767-0.3,1.15-0.9,1.15c-0.233,0-0.483-0.083-0.75-0.25
					c-0.133-0.1-0.316-0.15-0.55-0.15c-0.434,0-0.934,0.233-1.5,0.7c-0.6,0.5-1.116,1.15-1.55,1.95c-0.634,1.133-1.55,1.7-2.75,1.7
					c-0.4,0-0.8-0.083-1.2-0.25c-0.8-0.367-1.233-0.9-1.3-1.6l-0.1-0.85c-0.367-0.133-0.684-0.267-0.95-0.4
					c-0.467-0.233-0.783-0.633-0.95-1.2l-0.05-0.45c0.033-0.934,0.633-1.783,1.8-2.55c1.167-0.8,2.517-1.25,4.05-1.35L22.85,7.4z
					 M22.3,7.95C20.9,8.017,19.633,8.433,18.5,9.2c-1.1,0.733-1.633,1.45-1.6,2.15l0.05,0.3c0.133,0.434,0.367,0.733,0.7,0.9
					c0.2,0.067,0.533,0.2,1,0.4c0.2,0.167,0.3,0.383,0.3,0.65c0,0.133,0,0.333,0,0.6c0.066,0.533,0.4,0.917,1,1.15
					c0.333,0.167,0.666,0.25,1,0.25c1-0.067,1.767-0.55,2.3-1.45c1.1-1.933,2.267-2.9,3.5-2.9c0.3,0,0.566,0.067,0.8,0.2
					c0.167,0.133,0.334,0.2,0.5,0.2c0.267-0.066,0.4-0.283,0.4-0.65l-0.15-0.7c-0.233-0.533-0.833-1.05-1.8-1.55
					c-1.134-0.567-2.35-0.85-3.65-0.85L22.3,7.95z"/>
			</g>
			
				<use xlink:href="#flash0.ai_x2F_Layer_3_x2F__x3C_Path_x3E__x5F_0"  width="6.641" height="5.436" x="0.009" y="-5.451" transform="matrix(1 0 0 -1 20.2998 8.3999)" style="overflow:visible;opacity:0.3594;enable-background:new    ;"/>
		</g>
		<g>
			<linearGradient id="SVGID_3_" gradientUnits="userSpaceOnUse" x1="1.6938" y1="-17.5244" x2="18.0938" y2="34.4756">
				<stop  offset="0" style="stop-color:#1B5230"/>
				<stop  offset="1" style="stop-color:#2C6652"/>
			</linearGradient>
			<path style="fill-rule:evenodd;clip-rule:evenodd;fill:url(#SVGID_3_);" d="M15.45,1.5c0.4,0.333,0.633,1,0.7,2
				c0.333-0.433,0.5-0.917,0.5-1.45c-0.066-0.8,0.033-1.316,0.3-1.55c0.433-0.367,0.833-0.383,1.2-0.05
				c0.233,0.2,0.317,0.633,0.25,1.3c-0.1,0.733-0.467,1.35-1.1,1.85c-0.267,0.233-0.383,0.5-0.35,0.8c0,0.167,0.066,0.483,0.2,0.95
				l0.65,1.7c0.233,0.633,0.434,1.317,0.6,2.05c0.6,2.267,0.633,5.433,0.1,9.5c-0.4,3.066-1.217,6.167-2.45,9.3
				c-1.267,3.166-1.716,7-1.35,11.5c0.2,2.267,0.517,4.199,0.95,5.8c0.467,1.5,1,2.733,1.6,3.7c0.033,0.066,0.25,0.35,0.65,0.85
				c0.267,0.4,0.434,0.7,0.5,0.9c0.067,0.233,0.133,0.383,0.2,0.449c0,0.034-0.15,0.117-0.45,0.25c-0.5,0.233-1.816,0.117-3.95-0.35
				l1.3-0.6c-0.933-0.267-2.033-0.301-3.3-0.101c0.733-0.733,1.017-1.8,0.85-3.2c-0.333-1.6-0.566-2.75-0.7-3.449
				c-0.5-2.601-0.667-5.517-0.5-8.75c0.167-2.801,0.633-5.334,1.4-7.601c0.933-2.367,1.617-4.15,2.05-5.35
				c0.733-2.034,1.2-4.184,1.4-6.45l0.05-1.2c0.133-0.333,0.183-0.583,0.15-0.75c0-0.175-0.042-0.409-0.125-0.7
				c0.003,0.415-0.005,0.832-0.025,1.25l-0.05,0.25c0-0.733-0.217-1.417-0.65-2.05c-0.767-0.833-1.3-1.5-1.6-2
				c-0.167-0.333-0.167-0.7,0-1.1c0.2-0.434,0.5-0.517,0.9-0.25c0.267,0.2,0.45,0.6,0.55,1.2c0.167,0.767,0.267,1.2,0.3,1.3
				c0.262,0.561,0.453,1.027,0.575,1.4c-0.03-0.975-0.138-1.942-0.325-2.9l-0.2-1.25c-0.3-1.333-0.633-2.233-1-2.7
				c-0.233-0.3-0.517-0.467-0.85-0.5c-0.3-0.033-0.533,0.1-0.7,0.4c-0.167,0.267-0.15,0.533,0.05,0.8c0.267,0.367,0.4,0.566,0.4,0.6
				c0.1,0.233-0.05,0.367-0.45,0.4c-0.367,0.033-0.684-0.1-0.95-0.4c-0.2-0.267-0.317-0.583-0.35-0.95
				c-0.066-0.867,0.15-1.45,0.65-1.75c0.6-0.367,0.883-0.617,0.85-0.75c-0.4,0.2-0.733,0.283-1,0.25
				c0.033-0.267,0.25-0.517,0.65-0.75c0.067-0.033,0.467-0.133,1.2-0.3c0-0.7-0.483-1.017-1.45-0.95c-0.566,0-0.767-0.167-0.6-0.5
				c0.133-0.333,0.417-0.533,0.85-0.6C14.317,0.867,14.95,1.033,15.45,1.5z"/>
			<path style="fill-rule:evenodd;clip-rule:evenodd;fill:#2C6952;" d="M18.2,1.3c0-0.333-0.083-0.55-0.25-0.65
				C17.917,0.55,17.8,0.5,17.6,0.5c-0.2,0-0.35,0.05-0.45,0.15c-0.2,0.167-0.3,0.434-0.3,0.8l0.05,0.6v0.1
				c0,0.533-0.183,1.033-0.55,1.5l-0.4,0.45L15.9,3.5c-0.066-0.9-0.267-1.5-0.6-1.8c-0.4-0.333-0.883-0.5-1.45-0.5L13.6,1.25
				c-0.233,0-0.4,0.083-0.5,0.25l-0.2,0.25l0.05,0.05h0.3l0.05,0.05l0.1-0.05c0.4,0,0.75,0.083,1.05,0.25
				c0.4,0.267,0.583,0.6,0.55,1V3.2l-0.05,0.1H14.8c-0.633,0.133-1,0.217-1.1,0.25l-0.3,0.2l0.5-0.15l0.25-0.05V3.9
				c0,0.167-0.15,0.367-0.45,0.6l-0.5,0.3c-0.367,0.3-0.55,0.667-0.55,1.1v0.4c0.067,0.767,0.4,1.15,1,1.15h0.05l0.2-0.05
				c0-0.133-0.117-0.316-0.35-0.55c-0.133-0.167-0.2-0.367-0.2-0.6c0-0.267,0.1-0.5,0.3-0.7c0.2-0.2,0.434-0.3,0.7-0.3h0.1
				c0.433,0.033,0.767,0.233,1,0.6c0.4,0.5,0.75,1.433,1.05,2.8l0.25,1.25L17,12.6l0.2,0.95l-0.2,0.8l-0.05,1.2
				c-0.2,2.133-0.684,4.284-1.45,6.45c-0.4,1.2-1.067,2.983-2,5.35c-0.767,2.301-1.233,4.817-1.4,7.551l-0.05,2.35
				c0,2.7,0.25,5.134,0.75,7.3c0.034,0.2,0.184,0.667,0.45,1.4c0.167,0.6,0.267,1.066,0.3,1.399c0,1.101-0.417,2.017-1.25,2.75
				c0.633-0.267,1.784-0.183,3.45,0.25c-0.133,0.134-0.317,0.25-0.55,0.351l-0.65,0.25c0.534,0.3,1.15,0.467,1.85,0.5
				c0.7,0.033,1.333-0.066,1.9-0.3l0.05-0.051c-1.533-2.433-2.517-4.383-2.95-5.85c-0.7-2.634-1.05-5.566-1.05-8.8
				c0-3.3,0.483-6.184,1.45-8.65c1.233-3.033,2.05-6.117,2.45-9.25c0.267-2.2,0.4-3.9,0.4-5.1c0-1.467-0.15-2.9-0.45-4.3L16.9,5.4
				c-0.167-0.566-0.25-0.917-0.25-1.05c0-0.4,0.167-0.717,0.5-0.95c0.6-0.5,0.934-1.05,1-1.65L18.2,1.3z M18.65,1.8
				c-0.066,0.733-0.467,1.4-1.2,2c-0.2,0.2-0.3,0.383-0.3,0.55c0,0.2,0.083,0.5,0.25,0.9l0.6,1.7c0.267,0.633,0.483,1.333,0.65,2.1
				c0.333,1.333,0.5,2.8,0.5,4.4c0,1.667-0.133,3.383-0.4,5.15c-0.4,3.167-1.217,6.3-2.45,9.4c-0.966,2.366-1.45,5.184-1.45,8.45
				c0,3.2,0.35,6.083,1.05,8.649c0.567,1.733,1.217,3.167,1.95,4.301c0.133,0.233,0.367,0.583,0.7,1.05
				c0.2,0.3,0.317,0.533,0.35,0.7l-0.1,0.3c-0.333,0.366-1.25,0.45-2.75,0.25c-1.367-0.167-2.216-0.384-2.55-0.65
				c0.3-0.3,0.533-0.5,0.7-0.6c-0.667-0.033-1.667,0.05-3,0.25c0.066-0.267,0.283-0.55,0.65-0.851c0.4-0.399,0.65-0.699,0.75-0.899
				c0.3-0.634,0.333-1.517,0.1-2.65c-0.3-1.267-0.5-2.166-0.6-2.7c-0.367-1.933-0.55-4.05-0.55-6.35l0.05-2.4
				c0.167-2.8,0.633-5.366,1.4-7.699c0.967-2.367,1.65-4.134,2.05-5.3c0.667-1.9,1.083-3.667,1.25-5.3l-0.25-0.05
				c0.267-1.067,0.4-1.783,0.4-2.15c0-0.7-0.2-1.333-0.6-1.9c-0.133-0.2-0.4-0.517-0.8-0.95c-0.367-0.4-0.633-0.75-0.8-1.05
				c-0.1-0.2-0.15-0.434-0.15-0.7c0-0.767,0.283-1.167,0.85-1.2c0.167,0,0.35,0.067,0.55,0.2c0.3,0.267,0.517,0.683,0.65,1.25
				c0.067,0.333,0.15,0.75,0.25,1.25L16,8.75c-0.2-1.233-0.517-2.1-0.95-2.6c-0.2-0.267-0.417-0.4-0.65-0.4h-0.05
				c-0.333,0-0.5,0.167-0.5,0.5l0.1,0.3c0.333,0.467,0.5,0.767,0.5,0.9c0,0.333-0.233,0.5-0.7,0.5h-0.1c-0.433,0-0.8-0.167-1.1-0.5
				c-0.233-0.3-0.367-0.667-0.4-1.1V5.9c0-0.667,0.25-1.183,0.75-1.55L12.65,4.3V4.05c0.033-0.3,0.3-0.617,0.8-0.95
				c0.333-0.167,0.683-0.25,1.05-0.25c-0.033-0.133-0.133-0.25-0.3-0.35c-0.2-0.1-0.467-0.15-0.8-0.15h-0.15
				c-0.233,0-0.433-0.05-0.6-0.15c-0.167-0.1-0.25-0.25-0.25-0.45c0.067-0.533,0.434-0.867,1.1-1l0.35-0.05
				c0.667,0,1.267,0.216,1.8,0.65c0.3,0.267,0.517,0.733,0.65,1.4l0.1-0.6v-0.1l-0.05-0.6c0-0.5,0.15-0.883,0.45-1.15
				C17.067,0.1,17.333,0,17.6,0c0.3,0,0.533,0.083,0.7,0.25c0.267,0.233,0.4,0.583,0.4,1.05L18.65,1.8z M14.7,9.25l-0.1,0.5
				l0.1,0.45c0.233,0.433,0.75,1.066,1.55,1.9L16,11.55c-0.067-0.167-0.183-0.633-0.35-1.4C15.55,9.617,15.4,9.3,15.2,9.2
				l-0.25-0.15C14.883,9.05,14.8,9.117,14.7,9.25z"/>
		</g>
		<g>
			<g>
				<linearGradient id="SVGID_4_" gradientUnits="userSpaceOnUse" x1="13.271" y1="35.6621" x2="46.621" y2="45.8121">
					<stop  offset="0" style="stop-color:#7A8730"/>
					<stop  offset="1" style="stop-color:#549638"/>
				</linearGradient>
				<path style="fill-rule:evenodd;clip-rule:evenodd;fill:url(#SVGID_4_);" d="M12.85,45.6c-1.167-0.333-2.083-1.166-2.75-2.5
					C9.033,40.8,9.767,38,12.3,34.7c2.6-3.367,5.917-5.717,9.95-7.05c3.767-1.267,7.483-1.434,11.15-0.5
					c3.166,0.833,5.316,2.1,6.449,3.8c1,1.533,1.317,2.899,0.95,4.1c-0.399,1.233-1.366,1.566-2.899,1
					c-1.567-0.6-3.184,0.066-4.851,2c-1.666,1.934-2.983,4.65-3.95,8.15c-0.666,2.434-1.866,4.217-3.6,5.35
					c-1.566,1.033-3.233,1.351-5,0.95c-2-0.467-3.267-1.566-3.8-3.3c-0.567-1.9-0.934-2.9-1.1-3C14.433,46,13.517,45.8,12.85,45.6z"
					/>
				<linearGradient id="SVGID_5_" gradientUnits="userSpaceOnUse" x1="9.4502" y1="39.5996" x2="41.2002" y2="39.5996">
					<stop  offset="0" style="stop-color:#549638"/>
					<stop  offset="1" style="stop-color:#7A8730"/>
				</linearGradient>
				<path style="fill-rule:evenodd;clip-rule:evenodd;fill:url(#SVGID_5_);" d="M40.65,35.8c-0.4,0.5-0.917,0.75-1.551,0.75
					c-0.3,0-0.733-0.083-1.3-0.25c-0.267-0.133-0.583-0.2-0.95-0.2c-1.366-0.033-2.733,0.884-4.1,2.75
					c-1.467,1.934-2.6,4.417-3.4,7.45c-0.566,2.134-1.566,3.783-3,4.95c-1.333,1.1-2.816,1.65-4.449,1.65
					c-0.567,0-1.051-0.067-1.45-0.2c-2.133-0.434-3.467-1.584-4-3.45c-0.167-0.866-0.3-1.483-0.4-1.85
					c-0.133-0.534-0.316-0.851-0.55-0.95c-1.1-0.2-2-0.4-2.7-0.601c-1.267-0.366-2.233-1.25-2.9-2.649
					c-0.3-0.634-0.45-1.351-0.45-2.15c0-2.467,1.216-5.033,3.65-7.7c2.533-2.8,5.55-4.783,9.05-5.949
					c2.199-0.734,4.366-1.101,6.5-1.101c2.6,0.034,5,0.517,7.199,1.45c2,0.833,3.4,1.85,4.2,3.05c0.7,1.101,1.084,2.2,1.15,3.3
					C41.2,34.8,41.017,35.366,40.65,35.8z M12.95,45.35c0.6,0.167,1.517,0.384,2.75,0.65c0.4,0.233,0.683,0.667,0.85,1.3
					c0.1,0.367,0.233,0.983,0.4,1.851c0.5,1.6,1.7,2.633,3.6,3.1c0.467,0.1,0.917,0.15,1.351,0.15c1.533,0,2.899-0.5,4.1-1.5
					c1.366-1.134,2.316-2.717,2.85-4.75c0.867-3.167,2.017-5.7,3.45-7.601c1.467-1.934,2.983-2.916,4.55-2.95
					c0.4,0,0.784,0.067,1.15,0.2c0.434,0.167,0.8,0.25,1.1,0.25c1.034-0.033,1.551-0.684,1.551-1.95c0-1-0.334-2-1-3
					c-0.733-1.133-2.067-2.1-4-2.899c-2.167-0.934-4.5-1.383-7-1.35c-2.101,0-4.2,0.333-6.301,1
					c-3.433,1.134-6.383,3.067-8.85,5.801c-2.4,2.633-3.583,5.1-3.55,7.399c0,0.767,0.133,1.417,0.4,1.95
					C10.95,44.267,11.817,45.05,12.95,45.35z"/>
			</g>
			<path style="fill-rule:evenodd;clip-rule:evenodd;fill:#85A169;" d="M16.8,40.3c-0.733,0.834-1.283,1.25-1.65,1.25
				c-0.967,0-1.617-0.35-1.95-1.05c-0.467-0.9-0.267-2.3,0.6-4.2c1.333-3.066,3.733-5.283,7.2-6.649
				c1.967-0.767,3.684-1.25,5.15-1.45c1.033-0.167,2.366-0.2,4-0.101c1.233,0.101,2.199,0.267,2.899,0.5
				c0.367,0.101,1.066,0.4,2.101,0.9c0.633,0.333,1.283,0.9,1.949,1.7c0.601,0.733,0.95,1.3,1.051,1.7
				c0.033,0.199-0.217,0.066-0.75-0.4c-0.667-0.634-1.167-0.983-1.5-1.05c-1.167-0.2-2.267,0.116-3.301,0.95
				c-0.267,0.133-0.6,0.416-1,0.85c-0.8,0.934-1.517,2.217-2.149,3.85c-0.5,1.334-1.15,3.334-1.95,6c-0.8,2.2-1.667,3.634-2.6,4.301
				c-2.334,1.666-4.034,1.333-5.101-1c-0.5-1.034-0.716-2-0.65-2.9c0-0.733,0.217-1.55,0.65-2.45c0.3-0.666,0.834-1.5,1.601-2.5
				c0.8-0.934,1.267-1.517,1.399-1.75c0.267-0.399,0.15-0.5-0.35-0.3s-1.134,0.684-1.9,1.45c-0.6,0.566-1.35,1.55-2.25,2.95
				c-0.633,0.966-0.933,1.333-0.9,1.1c0.033-0.1,0.333-0.9,0.9-2.4c0.467-1.1,0.517-1.483,0.15-1.149
				C18.45,38.483,17.9,39.1,16.8,40.3z"/>
		</g>
		<g>
			<g>
				<linearGradient id="SVGID_6_" gradientUnits="userSpaceOnUse" x1="10.8359" y1="14.3828" x2="7.5359" y2="23.0078">
					<stop  offset="0" style="stop-color:#7A8730"/>
					<stop  offset="1" style="stop-color:#549638"/>
				</linearGradient>
				<path style="fill-rule:evenodd;clip-rule:evenodd;fill:url(#SVGID_6_);" d="M6.2,8.3c2.5-0.133,4.9,0.467,7.2,1.8
					c2.467,1.467,4.317,3.517,5.55,6.15c1.2,2.567,1.283,4.567,0.25,6c-0.6,0.833-1.317,1.283-2.15,1.35
					c-0.867-0.067-1.483-0.05-1.85,0.05c-0.133,0.033-0.517,0.65-1.15,1.85c-0.6,1.1-1.583,1.684-2.95,1.75
					c-1.2,0.033-2.25-0.4-3.15-1.3c-0.967-1-1.5-2.367-1.6-4.1c-0.133-2.5-0.617-4.533-1.45-6.1c-0.833-1.533-1.8-2.2-2.9-2
					c-1.067,0.167-1.65-0.2-1.75-1.1C0.183,11.783,0.583,10.9,1.45,10C2.45,9,4.033,8.433,6.2,8.3z"/>
				<linearGradient id="SVGID_7_" gradientUnits="userSpaceOnUse" x1="0" y1="17.75" x2="20.0996" y2="17.75">
					<stop  offset="0" style="stop-color:#7A8730"/>
					<stop  offset="1" style="stop-color:#549638"/>
				</linearGradient>
				<path style="fill-rule:evenodd;clip-rule:evenodd;fill:url(#SVGID_7_);" d="M1.65,10.2c-0.767,0.767-1.15,1.533-1.15,2.3
					c0.067,0.667,0.417,1,1.05,1h0.4l0.4-0.05c1.167,0.033,2.133,0.833,2.9,2.4c0.767,1.533,1.217,3.517,1.35,5.95
					c0.1,1.667,0.6,2.967,1.5,3.9C8.9,26.567,9.867,27,11,27h0.1c1.3-0.067,2.2-0.6,2.7-1.6c0.233-0.566,0.4-0.967,0.5-1.2
					c0.2-0.434,0.467-0.7,0.8-0.8c0.167-0.066,0.4-0.1,0.7-0.1l0.95,0.05c0.467-0.033,0.833-0.117,1.1-0.25
					c0.4-0.167,0.783-0.5,1.15-1c0.4-0.6,0.6-1.333,0.6-2.2c0-1.566-0.567-3.267-1.7-5.1c-1.233-1.9-2.767-3.4-4.6-4.5
					c-1.933-1.133-4.066-1.733-6.4-1.8C5.733,8.5,4.667,8.667,3.7,9C2.8,9.333,2.117,9.733,1.65,10.2z M6.9,8
					c2.267,0,4.483,0.617,6.65,1.85c1.934,1.167,3.517,2.733,4.75,4.7c1.2,1.9,1.8,3.684,1.8,5.35c0,1.033-0.233,1.85-0.7,2.45
					c-0.733,1-1.617,1.5-2.65,1.5L15.8,23.8l-0.55,0.05c-0.133,0.033-0.283,0.217-0.45,0.55c-0.1,0.233-0.283,0.65-0.55,1.25
					c-0.633,1.2-1.667,1.817-3.1,1.85h-0.2c-1.233,0-2.317-0.483-3.25-1.45c-0.967-1.066-1.5-2.466-1.6-4.2
					c-0.1-2.3-0.533-4.217-1.3-5.75c-0.733-1.467-1.55-2.184-2.45-2.15l-0.8,0.1c-0.5,0-0.883-0.15-1.15-0.45
					C0.133,13.267,0,12.9,0,12.5c0-0.867,0.417-1.75,1.25-2.65C2.483,8.617,4.367,8,6.9,8z"/>
			</g>
			
				<use xlink:href="#flash0.ai_x2F_Layer_3_x2F__x3C_Path_x3E__x5F_1"  width="15.664" height="14.988" x="-0.004" y="-15.025" transform="matrix(1 0 0 -1 1.7998 9.1499)" style="overflow:visible;opacity:0.5;enable-background:new    ;"/>
		</g>
	</g>
</g>
</svg>
