<?xml version="1.0" encoding="iso-8859-1"?>
<!-- Generator: Adobe Illustrator 15.1.0, SVG Export Plug-In . SVG Version: 6.00 Build 0)  -->
<!DOCTYPE svg PUBLIC "-//W3C//DTD SVG 1.1//EN" "http://www.w3.org/Graphics/SVG/1.1/DTD/svg11.dtd">
<svg version="1.1" id="Layer_1" xmlns="http://www.w3.org/2000/svg" xmlns:xlink="http://www.w3.org/1999/xlink" x="0px" y="0px"
	 width="70.85px" height="50px" viewBox="0 0 70.85 50" style="enable-background:new 0 0 70.85 50;" xml:space="preserve">
<symbol  id="flash0.ai_x5F_1_x2F_Layer_1_x2F__x3C_Clip_Group_0_x3E_" viewBox="0.033 -49.95 15.166 49.967">
	<g id="Layer_1_28_">
	</g>
	<g>
		<defs>
			<path id="SVGID_1_" d="M14.1-31.1c-0.067,0.533-0.283,2.333-0.65,5.4c-0.1,0.867-0.167,1.967-0.2,3.3
				c-0.033,1.566-0.1,2.917-0.2,4.05c-0.066,1.067,0,2.517,0.2,4.35c0.2,2.067,0.3,3.5,0.3,4.3l0.2,9.65H0.4l-0.1-5.1
				c0.034-1.767,0.133-4.317,0.3-7.65c0-1.5-0.167-3.717-0.5-6.65c-0.133-1.566-0.067-3.733,0.2-6.5c0.333-3.167,0.5-5.35,0.5-6.55
				c0-0.633-0.133-2.167-0.4-4.6c-0.2-1.833-0.2-3.35,0-4.55c0.2-1,0.25-2.367,0.15-4.1c-0.167-2.2-0.233-3.6-0.2-4.2H13.7
				c-0.034,2.1-0.05,3.684-0.05,4.75c0,1.867,0.083,3.434,0.25,4.7c0.067,0.433,0.1,1.117,0.1,2.05c-0.033,0.9,0,1.583,0.1,2.05
				C14.3-35.2,14.3-33.433,14.1-31.1z"/>
		</defs>
		<clipPath id="SVGID_2_">
			<use xlink:href="#SVGID_1_"  style="overflow:visible;"/>
		</clipPath>
		<g id="Layer_3_1_" style="clip-path:url(#SVGID_2_);">
			<g>
				
					<use xlink:href="#flash0.ai_x5F_1_x2F_Layer_1_x2F__x3C_Path_x3E__x5F_6"  width="7.154" height="49.9" y="-49.9" transform="matrix(1 0 0 1 0.3501 -0.0498)" style="overflow:visible;opacity:0.4414;enable-background:new    ;"/>
				
					<use xlink:href="#flash0.ai_x5F_1_x2F_Layer_1_x2F__x3C_Path_x3E__x5F_5"  width="4.85" height="49.967" x="0.05" y="-49.95" transform="matrix(1 0 0 1 10.2998 0)" style="overflow:visible;opacity:0.25;enable-background:new    ;"/>
				<path style="fill-rule:evenodd;clip-rule:evenodd;fill:#69AAC5;" d="M0.45-2.25l0.45-3.6c0.067-0.6,0.15-3.083,0.25-7.45
					c0.033-1.5-0.2-3.267-0.7-5.3c0.167,1.333,0.283,2.567,0.35,3.7c0.067,1.066,0,3.183-0.2,6.35
					C0.433-5.917,0.383-3.817,0.45-2.25z"/>
				<path style="fill-rule:evenodd;clip-rule:evenodd;fill:#456670;" d="M0.75-37.1l0.3-2.65c0.133-0.967,0.017-3.083-0.35-6.35
					v3.95C0.7-38.95,0.717-37.267,0.75-37.1z"/>
				
					<use xlink:href="#flash0.ai_x5F_1_x2F_Layer_1_x2F__x3C_Path_x3E__x5F_2_x5F_1"  width="0.567" height="10.15" x="0.033" y="-10.15" transform="matrix(1 0 0 1 8.25 -9.8999)" style="overflow:visible;opacity:0.3984;enable-background:new    ;"/>
				
					<use xlink:href="#flash0.ai_x5F_1_x2F_Layer_1_x2F__x3C_Path_x3E__x5F_1_x5F_1"  width="1.971" height="14.95" x="0.029" y="-14.95" transform="matrix(1 0 0 1 3.8999 -11.25)" style="overflow:visible;opacity:0.3984;enable-background:new    ;"/>
				
					<use xlink:href="#flash0.ai_x5F_1_x2F_Layer_1_x2F__x3C_Path_x3E__x5F_7"  width="1.469" height="17.4" x="0.07" y="-17.4" transform="matrix(1 0 0 1 6.7998 -30.25)" style="overflow:visible;opacity:0.3008;enable-background:new    ;"/>
			</g>
		</g>
	</g>
	<g id="Layer_4_1_">
	</g>
</symbol>
<symbol  id="flash0.ai_x5F_1_x2F_Layer_1_x2F__x3C_Clip_Group_0_x3E__x5F_0" viewBox="-0.028 -49.95 13.878 49.9">
	<g id="Layer_1_29_">
	</g>
	<g>
		<defs>
			<path id="SVGID_3_" d="M13.05-25.8c-0.233,2.4-0.35,4.55-0.35,6.45c-0.067,2.967,0.066,5.767,0.4,8.4c0,0.1,0.15,1.383,0.45,3.85
				l0.3,7.05H0.7c-0.167-1.733-0.35-3.6-0.55-5.6c-0.267-2.5-0.233-4.65,0.1-6.45c0.167-0.933,0.25-2.117,0.25-3.55
				c0-1.434,0.083-2.617,0.25-3.55c0.367-2.1,0.3-5.133-0.2-9.1c-0.5-4.167-0.633-7.2-0.4-9.1c0.233-1.767,0.35-3.867,0.35-6.3
				c0-1.367-0.033-3.45-0.1-6.25h13c0.133,2.4,0.167,5.2,0.1,8.4c0,0.7,0.05,2.25,0.15,4.65c0.1,1.967,0.1,3.533,0,4.7
				C13.35-29.3,13.15-27.167,13.05-25.8z"/>
		</defs>
		<clipPath id="SVGID_4_">
			<use xlink:href="#SVGID_3_"  style="overflow:visible;"/>
		</clipPath>
		<g id="Layer_3_2_" style="clip-path:url(#SVGID_4_);">
			<g>
				
					<use xlink:href="#flash0.ai_x5F_1_x2F_Layer_1_x2F__x3C_Path_x3E__x5F_7_x5F_0"  width="6.467" height="49.9" x="-0.017" y="-49.9" transform="matrix(1 0 0 1 0.3999 -0.0498)" style="overflow:visible;opacity:0.4414;enable-background:new    ;"/>
				
					<use xlink:href="#flash0.ai_x5F_1_x2F_Layer_1_x2F__x3C_Path_x3E__x5F_6_x5F_0"  width="3.8" height="49.9" y="-49.95" transform="matrix(1 0 0 1 10.0498 0)" style="overflow:visible;opacity:0.25;enable-background:new    ;"/>
				<path style="fill-rule:evenodd;clip-rule:evenodd;fill:#4EAA95;" d="M0.7-16.95l-0.55,8.4c-0.033,1.6,0.2,4.017,0.7,7.25
					c-0.233-3.767-0.3-6.267-0.2-7.5C0.75-10.067,0.767-12.783,0.7-16.95z"/>
				<path style="fill-rule:evenodd;clip-rule:evenodd;fill:#4EAA95;" d="M0.95-22.35l0.1-1.3c0.034-1.033-0.033-2.067-0.2-3.1
					c-0.3-2.133-0.45-4.183-0.45-6.15l0.1-6.45c-0.067,0.867-0.183,1.517-0.35,1.95c-0.066,0.267-0.1,0.8-0.1,1.6
					c0.034,1,0.05,1.783,0.05,2.35c0.133,2.233,0.2,4.167,0.2,5.8c0,1.033,0.083,2.033,0.25,3C0.75-23.617,0.883-22.85,0.95-22.35z"
					/>
				
					<use xlink:href="#flash0.ai_x5F_1_x2F_Layer_1_x2F__x3C_Path_x3E__x5F_2_x5F_2"  width="0.567" height="10.1" y="-10.1" transform="matrix(1 0 0 1 7.5 -1.6001)" style="overflow:visible;opacity:0.3984;enable-background:new    ;"/>
				
					<use xlink:href="#flash0.ai_x5F_1_x2F_Layer_1_x2F__x3C_Path_x3E__x5F_1_x5F_2"  width="0.939" height="14.6" x="-0.025" y="-14.7" transform="matrix(1 0 0 1 5.9502 -15.8501)" style="overflow:visible;opacity:0.3984;enable-background:new    ;"/>
				
					<use xlink:href="#flash0.ai_x5F_1_x2F_Layer_1_x2F__x3C_Path_x3E__x5F_8"  width="1.345" height="13.629" x="-0.013" y="-13.65" transform="matrix(1 0 0 1 8.9502 -32.2998)" style="overflow:visible;opacity:0.3984;enable-background:new    ;"/>
			</g>
		</g>
	</g>
	<g id="Layer_4_2_">
	</g>
</symbol>
<symbol  id="flash0.ai_x5F_1_x2F_Layer_1_x2F__x3C_Path_x3E_" viewBox="0 -2.664 27.2 2.664">
	<g id="Layer_1_6_">
		<linearGradient id="SVGID_5_" gradientUnits="userSpaceOnUse" x1="27.1445" y1="-2.8247" x2="-0.0471" y2="-0.4039">
			<stop  offset="0" style="stop-color:#B57F39"/>
			<stop  offset="1" style="stop-color:#B3A480"/>
		</linearGradient>
		<path style="fill-rule:evenodd;clip-rule:evenodd;fill:url(#SVGID_5_);" d="M27.2-2.65C21.533-2.75,15.3-2.333,8.5-1.4
			C5.1-0.967,2.267-0.5,0,0C8.567-1.367,17.633-2.25,27.2-2.65z"/>
	</g>
</symbol>
<symbol  id="flash0.ai_x5F_1_x2F_Layer_1_x2F__x3C_Path_x3E__x5F_0" viewBox="0 -2.103 27.2 2.103">
	<g id="Layer_1_11_">
		<path style="fill-rule:evenodd;clip-rule:evenodd;fill:#4EAA95;" d="M0-2c2.4,0.033,5.317,0.15,8.75,0.35
			C15.683-1.283,21.833-0.733,27.2,0c-2.267-0.433-5.1-0.85-8.5-1.25C11.867-2.017,5.633-2.267,0-2z"/>
	</g>
</symbol>
<symbol  id="flash0.ai_x5F_1_x2F_Layer_1_x2F__x3C_Path_x3E__x5F_1" viewBox="-0.003 -13.55 19.103 13.55">
	<g id="Layer_1_5_">
		<g>
			<linearGradient id="SVGID_6_" gradientUnits="userSpaceOnUse" x1="17.4067" y1="-7.3008" x2="0.6859" y2="-5.9962">
				<stop  offset="0" style="stop-color:#E2EBE9"/>
				<stop  offset="0.0039" style="stop-color:#DDE5E3"/>
				<stop  offset="0.0353" style="stop-color:#B7B8B6"/>
				<stop  offset="0.0706" style="stop-color:#958F8D"/>
				<stop  offset="0.1059" style="stop-color:#776C69"/>
				<stop  offset="0.149" style="stop-color:#5E4E4B"/>
				<stop  offset="0.1922" style="stop-color:#493633"/>
				<stop  offset="0.2431" style="stop-color:#3A2320"/>
				<stop  offset="0.302" style="stop-color:#2E1613"/>
				<stop  offset="0.3765" style="stop-color:#280E0C"/>
				<stop  offset="0.5255" style="stop-color:#260C0A"/>
				<stop  offset="0.6118" style="stop-color:#290F0C"/>
				<stop  offset="0.6784" style="stop-color:#321916"/>
				<stop  offset="0.6784" style="stop-color:#321916;stop-opacity:0"/>
				<stop  offset="1" style="stop-color:#000000;stop-opacity:0"/>
			</linearGradient>
			<path style="fill-rule:evenodd;clip-rule:evenodd;fill:url(#SVGID_6_);" d="M16.65-3.7c-0.1-0.867-0.1-1.933,0-3.2
				c0.067-1.367,0.233-2.467,0.5-3.3c0.367-1.2,1.017-2.316,1.95-3.35c-2.3,0.367-4.867,0.683-7.7,0.95
				c-0.833,0.067-1.833,0.233-3,0.5c-1.3,0.333-2.3,0.55-3,0.65c-0.467,0.034-1.217,0.067-2.25,0.1s-1.8,0.083-2.3,0.15
				c-0.6,0.067-0.883,0.317-0.85,0.75c0,0.233,0.2,0.817,0.6,1.75c0.9,2.1,1.183,3.983,0.85,5.65c-0.1,0.566-0.117,1.1-0.05,1.6
				C1.433-1.25,1.567-0.767,1.8,0c0.967,0,2.017-0.133,3.15-0.4C6.217-0.733,7.033-0.917,7.4-0.95l5.55-0.5
				c1.4-0.167,2.867-0.5,4.4-1C17.317-2.683,17.2-2.9,17-3.1C16.8-3.3,16.683-3.5,16.65-3.7z"/>
			<linearGradient id="SVGID_7_" gradientUnits="userSpaceOnUse" x1="17.4067" y1="-7.3008" x2="0.6859" y2="-5.9962">
				<stop  offset="0" style="stop-color:#000000;stop-opacity:0"/>
				<stop  offset="0.6784" style="stop-color:#321916;stop-opacity:0"/>
				<stop  offset="0.6784" style="stop-color:#321916"/>
				<stop  offset="0.7373" style="stop-color:#412A27"/>
				<stop  offset="0.7922" style="stop-color:#56413E"/>
				<stop  offset="0.8431" style="stop-color:#725F5C"/>
				<stop  offset="0.8941" style="stop-color:#938481"/>
				<stop  offset="0.9451" style="stop-color:#BBB0AD"/>
				<stop  offset="0.9922" style="stop-color:#E8E2DE"/>
				<stop  offset="1" style="stop-color:#F0EBE7"/>
			</linearGradient>
			<path style="fill-rule:evenodd;clip-rule:evenodd;fill:url(#SVGID_7_);" d="M16.65-3.7c-0.1-0.867-0.1-1.933,0-3.2
				c0.067-1.367,0.233-2.467,0.5-3.3c0.367-1.2,1.017-2.316,1.95-3.35c-2.3,0.367-4.867,0.683-7.7,0.95
				c-0.833,0.067-1.833,0.233-3,0.5c-1.3,0.333-2.3,0.55-3,0.65c-0.467,0.034-1.217,0.067-2.25,0.1s-1.8,0.083-2.3,0.15
				c-0.6,0.067-0.883,0.317-0.85,0.75c0,0.233,0.2,0.817,0.6,1.75c0.9,2.1,1.183,3.983,0.85,5.65c-0.1,0.566-0.117,1.1-0.05,1.6
				C1.433-1.25,1.567-0.767,1.8,0c0.967,0,2.017-0.133,3.15-0.4C6.217-0.733,7.033-0.917,7.4-0.95l5.55-0.5
				c1.4-0.167,2.867-0.5,4.4-1C17.317-2.683,17.2-2.9,17-3.1C16.8-3.3,16.683-3.5,16.65-3.7z"/>
		</g>
	</g>
</symbol>
<symbol  id="flash0.ai_x5F_1_x2F_Layer_1_x2F__x3C_Path_x3E__x5F_10" viewBox="0 -5.415 1.852 5.463">
	<g id="Layer_1_26_">
		<path style="fill-rule:evenodd;clip-rule:evenodd;fill:#4EAA95;" d="M0.45-0.5L0.7-0.4c0.7,0.767,1.083,0.55,1.15-0.65
			c0.033-1.2-0.283-2.434-0.95-3.7C0.3-5.817,0-5.6,0-4.1C0-2.733,0.15-1.533,0.45-0.5z"/>
	</g>
</symbol>
<symbol  id="flash0.ai_x5F_1_x2F_Layer_1_x2F__x3C_Path_x3E__x5F_17" viewBox="0.003 -1.3 2.949 1.325">
	<g id="Layer_1_25_">
		<path style="fill-rule:evenodd;clip-rule:evenodd;fill:#4EAA95;" d="M2.95-0.6C2.983-1.067,2.567-1.3,1.7-1.3
			c-0.8,0-1.333,0.2-1.6,0.6C-0.167-0.3,0.117-0.067,0.95,0C2.217,0.1,2.883-0.1,2.95-0.6z"/>
	</g>
</symbol>
<symbol  id="flash0.ai_x5F_1_x2F_Layer_1_x2F__x3C_Path_x3E__x5F_19" viewBox="-0.016 -2.129 6.527 2.145">
	<g id="Layer_1_24_">
		<path style="fill-rule:evenodd;clip-rule:evenodd;fill:#4EAA95;" d="M6.5-1.1c-0.1-0.8-1.317-1.133-3.65-1
			C0.65-1.967-0.283-1.6,0.05-1C0.383-0.4,1.467-0.067,3.3,0C5.567,0.1,6.633-0.267,6.5-1.1z"/>
	</g>
</symbol>
<symbol  id="flash0.ai_x5F_1_x2F_Layer_1_x2F__x3C_Path_x3E__x5F_1_x5F_0" viewBox="-0.018 -12.6 16.621 12.606">
	<g id="Layer_1_10_">
		<g>
			
				<linearGradient id="SVGID_8_" gradientUnits="userSpaceOnUse" x1="592.1001" y1="544.7266" x2="607.689" y2="544.7266" gradientTransform="matrix(0.9975 0.0701 -0.0701 0.9975 -552.2949 -591.7295)">
				<stop  offset="0" style="stop-color:#E2EBE9"/>
				<stop  offset="0.0039" style="stop-color:#DDE5E3"/>
				<stop  offset="0.0353" style="stop-color:#B7B8B6"/>
				<stop  offset="0.0706" style="stop-color:#958F8D"/>
				<stop  offset="0.1059" style="stop-color:#776C69"/>
				<stop  offset="0.149" style="stop-color:#5E4E4B"/>
				<stop  offset="0.1922" style="stop-color:#493633"/>
				<stop  offset="0.2431" style="stop-color:#3A2320"/>
				<stop  offset="0.302" style="stop-color:#2E1613"/>
				<stop  offset="0.3765" style="stop-color:#280E0C"/>
				<stop  offset="0.5255" style="stop-color:#260C0A"/>
				<stop  offset="0.6118" style="stop-color:#290F0C"/>
				<stop  offset="0.6784" style="stop-color:#321916"/>
				<stop  offset="0.6784" style="stop-color:#321916;stop-opacity:0"/>
				<stop  offset="1" style="stop-color:#000000;stop-opacity:0"/>
			</linearGradient>
			<path style="fill-rule:evenodd;clip-rule:evenodd;fill:url(#SVGID_8_);" d="M15.15,0c0.2-0.8,0.317-1.283,0.35-1.45
				c0.067-0.466,0.033-0.983-0.1-1.55c-0.333-1.633-0.117-3.533,0.65-5.7c0.367-0.966,0.55-1.55,0.55-1.75
				c0.033-0.466-0.25-0.716-0.85-0.75c-2.067,0-3.583-0.05-4.55-0.15c-0.7-0.066-1.7-0.25-3-0.55c-1.2-0.233-2.217-0.383-3.05-0.45
				c-2.3-0.167-3.5-0.25-3.6-0.25c-0.5,0.967-0.9,2.15-1.2,3.55C0.05-7.617-0.067-6.367,0-5.3l0.2,2C0.367-2.533,0.6-2,0.9-1.7
				C1.533-1.5,2.567-1.317,4-1.15l5.55,0.4c0.333,0.033,1.167,0.183,2.5,0.45C13.15-0.067,14.183,0.033,15.15,0z"/>
			
				<linearGradient id="SVGID_9_" gradientUnits="userSpaceOnUse" x1="592.1001" y1="544.7266" x2="607.689" y2="544.7266" gradientTransform="matrix(0.9975 0.0701 -0.0701 0.9975 -552.2949 -591.7295)">
				<stop  offset="0" style="stop-color:#000000;stop-opacity:0"/>
				<stop  offset="0.6784" style="stop-color:#321916;stop-opacity:0"/>
				<stop  offset="0.6784" style="stop-color:#321916"/>
				<stop  offset="0.7373" style="stop-color:#412A27"/>
				<stop  offset="0.7922" style="stop-color:#56413E"/>
				<stop  offset="0.8431" style="stop-color:#725F5C"/>
				<stop  offset="0.8941" style="stop-color:#938481"/>
				<stop  offset="0.9451" style="stop-color:#BBB0AD"/>
				<stop  offset="0.9922" style="stop-color:#E8E2DE"/>
				<stop  offset="1" style="stop-color:#F0EBE7"/>
			</linearGradient>
			<path style="fill-rule:evenodd;clip-rule:evenodd;fill:url(#SVGID_9_);" d="M15.15,0c0.2-0.8,0.317-1.283,0.35-1.45
				c0.067-0.466,0.033-0.983-0.1-1.55c-0.333-1.633-0.117-3.533,0.65-5.7c0.367-0.966,0.55-1.55,0.55-1.75
				c0.033-0.466-0.25-0.716-0.85-0.75c-2.067,0-3.583-0.05-4.55-0.15c-0.7-0.066-1.7-0.25-3-0.55c-1.2-0.233-2.217-0.383-3.05-0.45
				c-2.3-0.167-3.5-0.25-3.6-0.25c-0.5,0.967-0.9,2.15-1.2,3.55C0.05-7.617-0.067-6.367,0-5.3l0.2,2C0.367-2.533,0.6-2,0.9-1.7
				C1.533-1.5,2.567-1.317,4-1.15l5.55,0.4c0.333,0.033,1.167,0.183,2.5,0.45C13.15-0.067,14.183,0.033,15.15,0z"/>
		</g>
	</g>
</symbol>
<symbol  id="flash0.ai_x5F_1_x2F_Layer_1_x2F__x3C_Path_x3E__x5F_1_x5F_1" viewBox="0.029 -14.95 1.971 14.95">
	<g id="Layer_1_15_">
		<path style="fill-rule:evenodd;clip-rule:evenodd;fill:#5DC6D2;" d="M2-14.95c-0.733,3.267-1.267,5.733-1.6,7.4
			C-0.167-4.583-0.083-2.067,0.65,0c-0.367-1.933-0.333-4.1,0.1-6.5C1.45-10.367,1.867-13.183,2-14.95z"/>
	</g>
</symbol>
<symbol  id="flash0.ai_x5F_1_x2F_Layer_1_x2F__x3C_Path_x3E__x5F_1_x5F_2" viewBox="-0.025 -14.7 0.939 14.6">
	<g id="Layer_1_20_">
		<path style="fill-rule:evenodd;clip-rule:evenodd;fill:#69AAC5;" d="M0.35-4.4c-0.133,0.767-0.2,1.316-0.2,1.65
			C0.212-1.563,0.229-0.679,0.2-0.1c0.077-1.04,0.26-2.573,0.55-4.6c0.2-1.9,0.217-3.466,0.05-4.7c-0.066-0.533-0.2-1.417-0.4-2.65
			c-0.2-1.1-0.333-1.983-0.4-2.65c-0.033,1.5-0.033,2.6,0,3.3c0,0.566,0.1,1.45,0.3,2.65c0.167,1.067,0.233,1.967,0.2,2.7
			C0.5-5.75,0.45-5.2,0.35-4.4z"/>
	</g>
</symbol>
<symbol  id="flash0.ai_x5F_1_x2F_Layer_1_x2F__x3C_Path_x3E__x5F_2" viewBox="0.016 -14.25 28.085 14.25">
	<g id="Layer_1_4_">
		<g>
			<linearGradient id="SVGID_10_" gradientUnits="userSpaceOnUse" x1="23.0313" y1="-7.7324" x2="0.3623" y2="-5.9542">
				<stop  offset="0" style="stop-color:#E2EBE9"/>
				<stop  offset="0.0039" style="stop-color:#DDE5E3"/>
				<stop  offset="0.0353" style="stop-color:#B7B8B6"/>
				<stop  offset="0.0706" style="stop-color:#958F8D"/>
				<stop  offset="0.1059" style="stop-color:#776C69"/>
				<stop  offset="0.149" style="stop-color:#5E4E4B"/>
				<stop  offset="0.1922" style="stop-color:#493633"/>
				<stop  offset="0.2431" style="stop-color:#3A2320"/>
				<stop  offset="0.302" style="stop-color:#2E1613"/>
				<stop  offset="0.3765" style="stop-color:#280E0C"/>
				<stop  offset="0.5255" style="stop-color:#260C0A"/>
				<stop  offset="0.6118" style="stop-color:#290F0C"/>
				<stop  offset="0.6784" style="stop-color:#321916"/>
				<stop  offset="0.6784" style="stop-color:#321916;stop-opacity:0"/>
				<stop  offset="1" style="stop-color:#000000;stop-opacity:0"/>
			</linearGradient>
			<path style="fill-rule:evenodd;clip-rule:evenodd;fill:url(#SVGID_10_);" d="M21.55-10.1c1.233-2.033,3.417-3.417,6.55-4.15
				c-2.1,0.033-5.017,0.317-8.75,0.85c-3.5,0.5-5.567,0.783-6.2,0.85c-1,0.1-2.133,0.267-3.4,0.5C8.35-11.783,7.2-11.6,6.3-11.5
				c-2.466,0.1-4.283,0.267-5.45,0.5c-0.733,0.133-0.983,0.483-0.75,1.05C0.633-9.217,1.017-8.6,1.25-8.1
				c0.6,1.067,1,1.817,1.2,2.25C2.75-5.117,2.767-4.3,2.5-3.4C2.167-1.933,2.133-0.8,2.4,0c2.067-0.033,4.15-0.233,6.25-0.6
				c1.5-0.133,3.667-0.433,6.5-0.9c0.267-0.033,1.717-0.367,4.35-1c0.233-0.2,0.367-0.35,0.4-0.45c0.067-0.066,0.117-0.25,0.15-0.55
				c0.034-0.133,0.1-0.817,0.2-2.05C20.417-7.45,20.85-8.967,21.55-10.1z"/>
			<linearGradient id="SVGID_11_" gradientUnits="userSpaceOnUse" x1="23.0313" y1="-7.7324" x2="0.3623" y2="-5.9542">
				<stop  offset="0" style="stop-color:#000000;stop-opacity:0"/>
				<stop  offset="0.6784" style="stop-color:#321916;stop-opacity:0"/>
				<stop  offset="0.6784" style="stop-color:#321916"/>
				<stop  offset="0.7373" style="stop-color:#412A27"/>
				<stop  offset="0.7922" style="stop-color:#56413E"/>
				<stop  offset="0.8431" style="stop-color:#725F5C"/>
				<stop  offset="0.8941" style="stop-color:#938481"/>
				<stop  offset="0.9451" style="stop-color:#BBB0AD"/>
				<stop  offset="0.9922" style="stop-color:#E8E2DE"/>
				<stop  offset="1" style="stop-color:#F0EBE7"/>
			</linearGradient>
			<path style="fill-rule:evenodd;clip-rule:evenodd;fill:url(#SVGID_11_);" d="M21.55-10.1c1.233-2.033,3.417-3.417,6.55-4.15
				c-2.1,0.033-5.017,0.317-8.75,0.85c-3.5,0.5-5.567,0.783-6.2,0.85c-1,0.1-2.133,0.267-3.4,0.5C8.35-11.783,7.2-11.6,6.3-11.5
				c-2.466,0.1-4.283,0.267-5.45,0.5c-0.733,0.133-0.983,0.483-0.75,1.05C0.633-9.217,1.017-8.6,1.25-8.1
				c0.6,1.067,1,1.817,1.2,2.25C2.75-5.117,2.767-4.3,2.5-3.4C2.167-1.933,2.133-0.8,2.4,0c2.067-0.033,4.15-0.233,6.25-0.6
				c1.5-0.133,3.667-0.433,6.5-0.9c0.267-0.033,1.717-0.367,4.35-1c0.233-0.2,0.367-0.35,0.4-0.45c0.067-0.066,0.117-0.25,0.15-0.55
				c0.034-0.133,0.1-0.817,0.2-2.05C20.417-7.45,20.85-8.967,21.55-10.1z"/>
		</g>
	</g>
</symbol>
<symbol  id="flash0.ai_x5F_1_x2F_Layer_1_x2F__x3C_Path_x3E__x5F_20" viewBox="-0.013 -10.411 1.963 10.55">
	<g id="Layer_1_23_">
		<path style="fill-rule:evenodd;clip-rule:evenodd;fill:#4EAA95;" d="M1.75-2.65c0.333-2.967,0.25-5.3-0.25-7
			C1.033-11.183,0.617-10.4,0.25-7.3C-0.117-4.2-0.1-2.05,0.3-0.85C0.933,0.917,1.417,0.317,1.75-2.65z"/>
	</g>
</symbol>
<symbol  id="flash0.ai_x5F_1_x2F_Layer_1_x2F__x3C_Path_x3E__x5F_21" viewBox="0.05 -4.493 1 4.643">
	<g id="Layer_1_22_">
		<path style="fill-rule:evenodd;clip-rule:evenodd;fill:#4EAA95;" d="M1-0.75C1.133-1.95,1-3,0.6-3.9
			C0.233-4.767,0.05-4.683,0.05-3.65c0,0.967,0.1,1.933,0.3,2.9C0.617,0.45,0.833,0.45,1-0.75z"/>
	</g>
</symbol>
<symbol  id="flash0.ai_x5F_1_x2F_Layer_1_x2F__x3C_Path_x3E__x5F_2_x5F_0" viewBox="-0.041 -12.506 19.444 12.513">
	<g id="Layer_1_9_">
		<g>
			
				<linearGradient id="SVGID_12_" gradientUnits="userSpaceOnUse" x1="588.3765" y1="542.2129" x2="607.9498" y2="542.2129" gradientTransform="matrix(0.9976 0.0698 -0.0698 0.9976 -549.8809 -588.9565)">
				<stop  offset="0" style="stop-color:#E2EBE9"/>
				<stop  offset="0.0039" style="stop-color:#DDE5E3"/>
				<stop  offset="0.0353" style="stop-color:#B7B8B6"/>
				<stop  offset="0.0706" style="stop-color:#958F8D"/>
				<stop  offset="0.1059" style="stop-color:#776C69"/>
				<stop  offset="0.149" style="stop-color:#5E4E4B"/>
				<stop  offset="0.1922" style="stop-color:#493633"/>
				<stop  offset="0.2431" style="stop-color:#3A2320"/>
				<stop  offset="0.302" style="stop-color:#2E1613"/>
				<stop  offset="0.3765" style="stop-color:#280E0C"/>
				<stop  offset="0.5255" style="stop-color:#260C0A"/>
				<stop  offset="0.6118" style="stop-color:#290F0C"/>
				<stop  offset="0.6784" style="stop-color:#321916"/>
				<stop  offset="0.6784" style="stop-color:#321916;stop-opacity:0"/>
				<stop  offset="1" style="stop-color:#000000;stop-opacity:0"/>
			</linearGradient>
			<path style="fill-rule:evenodd;clip-rule:evenodd;fill:url(#SVGID_12_);" d="M16.85-1.75c0.333-0.733,0.433-1.35,0.3-1.85
				c-0.267-0.9-0.267-1.717,0-2.45c0.167-0.434,0.533-1.184,1.1-2.25c0.233-0.5,0.583-1.15,1.05-1.95
				c0.267-0.533,0.017-0.867-0.75-1c-0.633-0.1-1.533-0.167-2.7-0.2c-1.3-0.033-2.217-0.083-2.75-0.15
				c-0.833-0.066-1.983-0.217-3.45-0.45c-1.267-0.2-2.417-0.333-3.45-0.4c-1.434-0.1-2.934-0.066-4.5,0.1
				c-0.5,0.067-0.767,0.217-0.8,0.45C1-11.467,1.033-11.033,1-10.6c0,0.467-0.133,1.4-0.4,2.8C0.4-7,0.25-6.367,0.15-5.9
				C-0.017-5.133-0.067-4.45,0-3.85c-0.1,1-0.017,1.617,0.25,1.85C1.717-1.667,3.167-1.467,4.6-1.4C5.2-1.333,6.283-1.2,7.85-1
				c1.333,0.2,2.417,0.317,3.25,0.35c0.467,0.033,1.15,0.167,2.05,0.4C13.883-0.05,14.833,0.033,16,0
				C16.133-0.367,16.417-0.95,16.85-1.75z"/>
			
				<linearGradient id="SVGID_13_" gradientUnits="userSpaceOnUse" x1="588.3765" y1="542.2129" x2="607.9498" y2="542.2129" gradientTransform="matrix(0.9976 0.0698 -0.0698 0.9976 -549.8809 -588.9565)">
				<stop  offset="0" style="stop-color:#000000;stop-opacity:0"/>
				<stop  offset="0.6784" style="stop-color:#321916;stop-opacity:0"/>
				<stop  offset="0.6784" style="stop-color:#321916"/>
				<stop  offset="0.7373" style="stop-color:#412A27"/>
				<stop  offset="0.7922" style="stop-color:#56413E"/>
				<stop  offset="0.8431" style="stop-color:#725F5C"/>
				<stop  offset="0.8941" style="stop-color:#938481"/>
				<stop  offset="0.9451" style="stop-color:#BBB0AD"/>
				<stop  offset="0.9922" style="stop-color:#E8E2DE"/>
				<stop  offset="1" style="stop-color:#F0EBE7"/>
			</linearGradient>
			<path style="fill-rule:evenodd;clip-rule:evenodd;fill:url(#SVGID_13_);" d="M16.85-1.75c0.333-0.733,0.433-1.35,0.3-1.85
				c-0.267-0.9-0.267-1.717,0-2.45c0.167-0.434,0.533-1.184,1.1-2.25c0.233-0.5,0.583-1.15,1.05-1.95
				c0.267-0.533,0.017-0.867-0.75-1c-0.633-0.1-1.533-0.167-2.7-0.2c-1.3-0.033-2.217-0.083-2.75-0.15
				c-0.833-0.066-1.983-0.217-3.45-0.45c-1.267-0.2-2.417-0.333-3.45-0.4c-1.434-0.1-2.934-0.066-4.5,0.1
				c-0.5,0.067-0.767,0.217-0.8,0.45C1-11.467,1.033-11.033,1-10.6c0,0.467-0.133,1.4-0.4,2.8C0.4-7,0.25-6.367,0.15-5.9
				C-0.017-5.133-0.067-4.45,0-3.85c-0.1,1-0.017,1.617,0.25,1.85C1.717-1.667,3.167-1.467,4.6-1.4C5.2-1.333,6.283-1.2,7.85-1
				c1.333,0.2,2.417,0.317,3.25,0.35c0.467,0.033,1.15,0.167,2.05,0.4C13.883-0.05,14.833,0.033,16,0
				C16.133-0.367,16.417-0.95,16.85-1.75z"/>
		</g>
	</g>
</symbol>
<symbol  id="flash0.ai_x5F_1_x2F_Layer_1_x2F__x3C_Path_x3E__x5F_2_x5F_1" viewBox="0.033 -10.15 0.567 10.15">
	<g id="Layer_1_14_">
		<path style="fill-rule:evenodd;clip-rule:evenodd;fill:#86C6B7;" d="M0.1-10.15C-0.033-5.95,0.033-2.567,0.3,0
			c0.2-2.533,0.3-4.183,0.3-4.95C0.567-5.883,0.4-7.617,0.1-10.15z"/>
	</g>
</symbol>
<symbol  id="flash0.ai_x5F_1_x2F_Layer_1_x2F__x3C_Path_x3E__x5F_2_x5F_2" viewBox="0 -10.1 0.567 10.1">
	<g id="Layer_1_19_">
		<path style="fill-rule:evenodd;clip-rule:evenodd;fill:#69AAC5;" d="M0.5-10.1C0.2-7.6,0.033-5.883,0-4.95C0-4.15,0.1-2.5,0.3,0
			C0.567-2.567,0.633-5.933,0.5-10.1z"/>
	</g>
</symbol>
<symbol  id="flash0.ai_x5F_1_x2F_Layer_1_x2F__x3C_Path_x3E__x5F_3" viewBox="-0.009 -12.258 17.523 12.258">
	<g id="Layer_1_3_">
		<g>
			<linearGradient id="SVGID_14_" gradientUnits="userSpaceOnUse" x1="17.2441" y1="-6.7354" x2="1.0476" y2="-5.4651">
				<stop  offset="0" style="stop-color:#E2EBE9"/>
				<stop  offset="0.0039" style="stop-color:#DDE5E3"/>
				<stop  offset="0.0353" style="stop-color:#B7B8B6"/>
				<stop  offset="0.0706" style="stop-color:#958F8D"/>
				<stop  offset="0.1059" style="stop-color:#776C69"/>
				<stop  offset="0.149" style="stop-color:#5E4E4B"/>
				<stop  offset="0.1922" style="stop-color:#493633"/>
				<stop  offset="0.2431" style="stop-color:#3A2320"/>
				<stop  offset="0.302" style="stop-color:#2E1613"/>
				<stop  offset="0.3765" style="stop-color:#280E0C"/>
				<stop  offset="0.5255" style="stop-color:#260C0A"/>
				<stop  offset="0.6118" style="stop-color:#290F0C"/>
				<stop  offset="0.6784" style="stop-color:#321916"/>
				<stop  offset="0.6784" style="stop-color:#321916;stop-opacity:0"/>
				<stop  offset="1" style="stop-color:#000000;stop-opacity:0"/>
			</linearGradient>
			<path style="fill-rule:evenodd;clip-rule:evenodd;fill:url(#SVGID_14_);" d="M17.5-3.15c0-0.434-0.1-1.067-0.3-1.9
				c-0.233-0.867-0.35-1.434-0.35-1.7c0.267-3.633,0.183-5.467-0.25-5.5c-0.567-0.033-1.733,0.033-3.5,0.2
				c-1.767,0.133-4.25,0.4-7.45,0.8c-2.133,0.167-3.7,0.35-4.7,0.55C0.25-10.533-0.067-10.233,0-9.8c0,0.133,0.233,0.716,0.7,1.75
				c0.466,1.1,0.767,2.017,0.9,2.75c0.167,0.966,0.15,1.933-0.05,2.9c-0.133,0.6-0.2,1.017-0.2,1.25c0,0.167,0.1,0.55,0.3,1.15
				c1.333,0,3.4-0.117,6.2-0.35c2.6-0.2,4.55-0.383,5.85-0.55c1.4-0.133,2.5-0.35,3.3-0.65C17.4-1.883,17.567-2.417,17.5-3.15z"/>
			<linearGradient id="SVGID_15_" gradientUnits="userSpaceOnUse" x1="17.2441" y1="-6.7354" x2="1.0476" y2="-5.4651">
				<stop  offset="0" style="stop-color:#000000;stop-opacity:0"/>
				<stop  offset="0.6784" style="stop-color:#321916;stop-opacity:0"/>
				<stop  offset="0.6784" style="stop-color:#321916"/>
				<stop  offset="0.7373" style="stop-color:#412A27"/>
				<stop  offset="0.7922" style="stop-color:#56413E"/>
				<stop  offset="0.8431" style="stop-color:#725F5C"/>
				<stop  offset="0.8941" style="stop-color:#938481"/>
				<stop  offset="0.9451" style="stop-color:#BBB0AD"/>
				<stop  offset="0.9922" style="stop-color:#E8E2DE"/>
				<stop  offset="1" style="stop-color:#F0EBE7"/>
			</linearGradient>
			<path style="fill-rule:evenodd;clip-rule:evenodd;fill:url(#SVGID_15_);" d="M17.5-3.15c0-0.434-0.1-1.067-0.3-1.9
				c-0.233-0.867-0.35-1.434-0.35-1.7c0.267-3.633,0.183-5.467-0.25-5.5c-0.567-0.033-1.733,0.033-3.5,0.2
				c-1.767,0.133-4.25,0.4-7.45,0.8c-2.133,0.167-3.7,0.35-4.7,0.55C0.25-10.533-0.067-10.233,0-9.8c0,0.133,0.233,0.716,0.7,1.75
				c0.466,1.1,0.767,2.017,0.9,2.75c0.167,0.966,0.15,1.933-0.05,2.9c-0.133,0.6-0.2,1.017-0.2,1.25c0,0.167,0.1,0.55,0.3,1.15
				c1.333,0,3.4-0.117,6.2-0.35c2.6-0.2,4.55-0.383,5.85-0.55c1.4-0.133,2.5-0.35,3.3-0.65C17.4-1.883,17.567-2.417,17.5-3.15z"/>
		</g>
	</g>
</symbol>
<symbol  id="flash0.ai_x5F_1_x2F_Layer_1_x2F__x3C_Path_x3E__x5F_3_x5F_0" viewBox="-0.014 -11.967 17.717 11.927">
	<g id="Layer_1_8_">
		<g>
			
				<linearGradient id="SVGID_16_" gradientUnits="userSpaceOnUse" x1="589.707" y1="543.041" x2="606.3735" y2="543.041" gradientTransform="matrix(0.9976 0.0698 -0.0698 0.9976 -550.2695 -589.4033)">
				<stop  offset="0" style="stop-color:#E2EBE9"/>
				<stop  offset="0.0039" style="stop-color:#DDE5E3"/>
				<stop  offset="0.0353" style="stop-color:#B7B8B6"/>
				<stop  offset="0.0706" style="stop-color:#958F8D"/>
				<stop  offset="0.1059" style="stop-color:#776C69"/>
				<stop  offset="0.149" style="stop-color:#5E4E4B"/>
				<stop  offset="0.1922" style="stop-color:#493633"/>
				<stop  offset="0.2431" style="stop-color:#3A2320"/>
				<stop  offset="0.302" style="stop-color:#2E1613"/>
				<stop  offset="0.3765" style="stop-color:#280E0C"/>
				<stop  offset="0.5255" style="stop-color:#260C0A"/>
				<stop  offset="0.6118" style="stop-color:#290F0C"/>
				<stop  offset="0.6784" style="stop-color:#321916"/>
				<stop  offset="0.6784" style="stop-color:#321916;stop-opacity:0"/>
				<stop  offset="1" style="stop-color:#000000;stop-opacity:0"/>
			</linearGradient>
			<path style="fill-rule:evenodd;clip-rule:evenodd;fill:url(#SVGID_16_);" d="M10.2-0.2c2.333,0.133,4.383,0.184,6.15,0.15
				C16.517-0.617,16.6-1,16.6-1.2c0.033-0.2-0.033-0.617-0.2-1.25c-0.4-1.633-0.183-3.533,0.65-5.7c0.4-1,0.617-1.583,0.65-1.75
				c0.033-0.434-0.3-0.717-1-0.85c-2.1-0.2-3.667-0.35-4.7-0.45c-3.3-0.333-5.783-0.533-7.45-0.6
				c-0.833-0.067-1.417-0.117-1.75-0.15c-0.466-0.033-1.05-0.017-1.75,0.05C0.617-11,0.3-9.85,0.1-8.45
				C-0.033-7.183-0.05-5.967,0.05-4.8C0.117-3.833,0.2-3.15,0.3-2.75C0.433-2.017,0.667-1.5,1-1.2c0.8,0.267,1.9,0.467,3.3,0.6
				L10.2-0.2z"/>
			
				<linearGradient id="SVGID_17_" gradientUnits="userSpaceOnUse" x1="589.707" y1="543.041" x2="606.3735" y2="543.041" gradientTransform="matrix(0.9976 0.0698 -0.0698 0.9976 -550.2695 -589.4033)">
				<stop  offset="0" style="stop-color:#000000;stop-opacity:0"/>
				<stop  offset="0.6784" style="stop-color:#321916;stop-opacity:0"/>
				<stop  offset="0.6784" style="stop-color:#321916"/>
				<stop  offset="0.7373" style="stop-color:#412A27"/>
				<stop  offset="0.7922" style="stop-color:#56413E"/>
				<stop  offset="0.8431" style="stop-color:#725F5C"/>
				<stop  offset="0.8941" style="stop-color:#938481"/>
				<stop  offset="0.9451" style="stop-color:#BBB0AD"/>
				<stop  offset="0.9922" style="stop-color:#E8E2DE"/>
				<stop  offset="1" style="stop-color:#F0EBE7"/>
			</linearGradient>
			<path style="fill-rule:evenodd;clip-rule:evenodd;fill:url(#SVGID_17_);" d="M10.2-0.2c2.333,0.133,4.383,0.184,6.15,0.15
				C16.517-0.617,16.6-1,16.6-1.2c0.033-0.2-0.033-0.617-0.2-1.25c-0.4-1.633-0.183-3.533,0.65-5.7c0.4-1,0.617-1.583,0.65-1.75
				c0.033-0.434-0.3-0.717-1-0.85c-2.1-0.2-3.667-0.35-4.7-0.45c-3.3-0.333-5.783-0.533-7.45-0.6
				c-0.833-0.067-1.417-0.117-1.75-0.15c-0.466-0.033-1.05-0.017-1.75,0.05C0.617-11,0.3-9.85,0.1-8.45
				C-0.033-7.183-0.05-5.967,0.05-4.8C0.117-3.833,0.2-3.15,0.3-2.75C0.433-2.017,0.667-1.5,1-1.2c0.8,0.267,1.9,0.467,3.3,0.6
				L10.2-0.2z"/>
		</g>
	</g>
</symbol>
<symbol  id="flash0.ai_x5F_1_x2F_Layer_1_x2F__x3C_Path_x3E__x5F_4" viewBox="0.064 -12.687 23.398 12.66">
	<g id="Layer_1_2_">
		<linearGradient id="SVGID_18_" gradientUnits="userSpaceOnUse" x1="23.2441" y1="-7.0386" x2="2.9491" y2="-5.4495">
			<stop  offset="0" style="stop-color:#E2EBE9"/>
			<stop  offset="0.0039" style="stop-color:#DDE5E3"/>
			<stop  offset="0.0353" style="stop-color:#B7B8B6"/>
			<stop  offset="0.0706" style="stop-color:#958F8D"/>
			<stop  offset="0.1059" style="stop-color:#776C69"/>
			<stop  offset="0.149" style="stop-color:#5E4E4B"/>
			<stop  offset="0.1922" style="stop-color:#493633"/>
			<stop  offset="0.2431" style="stop-color:#3A2320"/>
			<stop  offset="0.302" style="stop-color:#2E1613"/>
			<stop  offset="0.3765" style="stop-color:#280E0C"/>
			<stop  offset="0.5255" style="stop-color:#260C0A"/>
			<stop  offset="0.5882" style="stop-color:#39211E"/>
			<stop  offset="0.7098" style="stop-color:#6A5754"/>
			<stop  offset="0.7098" style="stop-color:#6A5754;stop-opacity:0"/>
			<stop  offset="1" style="stop-color:#000000;stop-opacity:0"/>
		</linearGradient>
		<path style="fill-rule:evenodd;clip-rule:evenodd;fill:url(#SVGID_18_);" d="M23.45-3.45c-0.034-0.933-0.317-2.233-0.85-3.9
			c-0.033-0.133,0.066-1,0.3-2.6c0.167-1.267,0.067-2.066-0.3-2.4c-0.3-0.3-0.983-0.4-2.05-0.3c-1.167,0.2-1.917,0.316-2.25,0.35
			c-2,0.167-4.966,0.483-8.9,0.95c-3.333,0.333-5.217,0.55-5.65,0.65c-0.433,0.067-1.4,0.15-2.9,0.25
			c-0.867,0.034-1.017,0.117-0.45,0.25c1,0.2,1.783,0.583,2.35,1.15c0.5,0.5,0.983,1.3,1.45,2.4C4.3-6.417,4.517-5.267,4.85-3.2
			c0.233,1.567,0.7,2.55,1.4,2.95c0.467,0.233,1.367,0.283,2.7,0.15c0.733-0.066,1.683-0.183,2.85-0.35l7-0.65
			c1.667-0.2,3-0.433,4-0.7C23.3-1.967,23.517-2.517,23.45-3.45z"/>
		<linearGradient id="SVGID_19_" gradientUnits="userSpaceOnUse" x1="23.2441" y1="-7.0386" x2="2.9491" y2="-5.4495">
			<stop  offset="0" style="stop-color:#000000;stop-opacity:0"/>
			<stop  offset="0.7098" style="stop-color:#6A5754;stop-opacity:0"/>
			<stop  offset="0.7098" style="stop-color:#6A5754"/>
			<stop  offset="0.8824" style="stop-color:#B8ADAA"/>
			<stop  offset="1" style="stop-color:#F0EBE7"/>
		</linearGradient>
		<path style="fill-rule:evenodd;clip-rule:evenodd;fill:url(#SVGID_19_);" d="M23.45-3.45c-0.034-0.933-0.317-2.233-0.85-3.9
			c-0.033-0.133,0.066-1,0.3-2.6c0.167-1.267,0.067-2.066-0.3-2.4c-0.3-0.3-0.983-0.4-2.05-0.3c-1.167,0.2-1.917,0.316-2.25,0.35
			c-2,0.167-4.966,0.483-8.9,0.95c-3.333,0.333-5.217,0.55-5.65,0.65c-0.433,0.067-1.4,0.15-2.9,0.25
			c-0.867,0.034-1.017,0.117-0.45,0.25c1,0.2,1.783,0.583,2.35,1.15c0.5,0.5,0.983,1.3,1.45,2.4C4.3-6.417,4.517-5.267,4.85-3.2
			c0.233,1.567,0.7,2.55,1.4,2.95c0.467,0.233,1.367,0.283,2.7,0.15c0.733-0.066,1.683-0.183,2.85-0.35l7-0.65
			c1.667-0.2,3-0.433,4-0.7C23.3-1.967,23.517-2.517,23.45-3.45z"/>
	</g>
</symbol>
<symbol  id="flash0.ai_x5F_1_x2F_Layer_1_x2F__x3C_Path_x3E__x5F_4_x5F_0" viewBox="0.011 -11.963 31.073 11.963">
	<g id="Layer_1_7_">
		
			<linearGradient id="SVGID_20_" gradientUnits="userSpaceOnUse" x1="592.1919" y1="545.0088" x2="616.7526" y2="545.0088" gradientTransform="matrix(0.9975 0.0701 -0.0701 0.9975 -552.3379 -591.7808)">
			<stop  offset="0" style="stop-color:#E2EBE9"/>
			<stop  offset="0.0039" style="stop-color:#DDE5E3"/>
			<stop  offset="0.0353" style="stop-color:#B7B8B6"/>
			<stop  offset="0.0706" style="stop-color:#958F8D"/>
			<stop  offset="0.1059" style="stop-color:#776C69"/>
			<stop  offset="0.149" style="stop-color:#5E4E4B"/>
			<stop  offset="0.1922" style="stop-color:#493633"/>
			<stop  offset="0.2431" style="stop-color:#3A2320"/>
			<stop  offset="0.302" style="stop-color:#2E1613"/>
			<stop  offset="0.3765" style="stop-color:#280E0C"/>
			<stop  offset="0.5255" style="stop-color:#260C0A"/>
			<stop  offset="0.5882" style="stop-color:#39211E"/>
			<stop  offset="0.7098" style="stop-color:#6A5754"/>
			<stop  offset="0.7098" style="stop-color:#6A5754;stop-opacity:0"/>
			<stop  offset="1" style="stop-color:#000000;stop-opacity:0"/>
		</linearGradient>
		<path style="fill-rule:evenodd;clip-rule:evenodd;fill:url(#SVGID_20_);" d="M30.95-9.65c0.6-0.133-0.817-0.3-4.25-0.5
			c-4.2-0.267-6.45-0.417-6.75-0.45c-0.333-0.066-2.217-0.233-5.65-0.5l-8.9-0.75c-2.033-0.1-3.433-0.133-4.2-0.1
			c-0.5,0.867-0.85,2-1.05,3.4c-0.167,1.267-0.183,2.5-0.05,3.7c0.1,0.9,0.2,1.567,0.3,2c0.167,0.767,0.45,1.3,0.85,1.6
			c1,0.267,2.333,0.467,4,0.6l7.05,0.5C14.4-0.05,16.333,0,18.1,0c0.033-0.133,0.133-0.967,0.3-2.5
			c0.133-1.333,0.45-2.417,0.95-3.25c0.767-1.267,2-2.083,3.7-2.45C24.217-8.433,26.85-8.917,30.95-9.65z"/>
		
			<linearGradient id="SVGID_21_" gradientUnits="userSpaceOnUse" x1="592.1919" y1="545.0088" x2="616.7526" y2="545.0088" gradientTransform="matrix(0.9975 0.0701 -0.0701 0.9975 -552.3379 -591.7808)">
			<stop  offset="0" style="stop-color:#000000;stop-opacity:0"/>
			<stop  offset="0.7098" style="stop-color:#6A5754;stop-opacity:0"/>
			<stop  offset="0.7098" style="stop-color:#6A5754"/>
			<stop  offset="0.8824" style="stop-color:#B8ADAA"/>
			<stop  offset="1" style="stop-color:#F0EBE7"/>
		</linearGradient>
		<path style="fill-rule:evenodd;clip-rule:evenodd;fill:url(#SVGID_21_);" d="M30.95-9.65c0.6-0.133-0.817-0.3-4.25-0.5
			c-4.2-0.267-6.45-0.417-6.75-0.45c-0.333-0.066-2.217-0.233-5.65-0.5l-8.9-0.75c-2.033-0.1-3.433-0.133-4.2-0.1
			c-0.5,0.867-0.85,2-1.05,3.4c-0.167,1.267-0.183,2.5-0.05,3.7c0.1,0.9,0.2,1.567,0.3,2c0.167,0.767,0.45,1.3,0.85,1.6
			c1,0.267,2.333,0.467,4,0.6l7.05,0.5C14.4-0.05,16.333,0,18.1,0c0.033-0.133,0.133-0.967,0.3-2.5
			c0.133-1.333,0.45-2.417,0.95-3.25c0.767-1.267,2-2.083,3.7-2.45C24.217-8.433,26.85-8.917,30.95-9.65z"/>
	</g>
</symbol>
<symbol  id="flash0.ai_x5F_1_x2F_Layer_1_x2F__x3C_Path_x3E__x5F_5" viewBox="0.05 -49.95 4.85 49.967">
	<g id="Layer_1_13_">
		<path style="fill-rule:evenodd;clip-rule:evenodd;fill:#D4DDB4;" d="M2.1,0c0.467,0,0.917-0.017,1.35-0.05l1.45-49.9H0.65
			c0,2.934,0.033,5.117,0.1,6.55c0.067,1.733,0.333,4.333,0.8,7.8c0.067,0.467,0.067,1.083,0,1.85c-0.1,1-0.15,1.633-0.15,1.9
			c0.033,0.9-0.083,2.333-0.35,4.3c-0.3,2.066-0.583,5.133-0.85,9.2C0-14.517,0-11.767,0.2-10.1l0.4,4c0.2,1.667,0.3,2.533,0.3,2.6
			L0.75-0.05C0.75,0.017,1.2,0.033,2.1,0z"/>
	</g>
</symbol>
<symbol  id="flash0.ai_x5F_1_x2F_Layer_1_x2F__x3C_Path_x3E__x5F_6" viewBox="0 -49.9 7.154 49.9">
	<g id="Layer_1_12_">
		<linearGradient id="SVGID_22_" gradientUnits="userSpaceOnUse" x1="-1.7124" y1="-24.9502" x2="7.8126" y2="-24.9502">
			<stop  offset="0" style="stop-color:#260C0A"/>
			<stop  offset="0.102" style="stop-color:#2B120F"/>
			<stop  offset="0.2314" style="stop-color:#39211F"/>
			<stop  offset="0.3765" style="stop-color:#503B39"/>
			<stop  offset="0.5294" style="stop-color:#71605D"/>
			<stop  offset="0.6941" style="stop-color:#9A8E8C"/>
			<stop  offset="0.8667" style="stop-color:#CCC6C5"/>
			<stop  offset="1" style="stop-color:#F9F8F7"/>
		</linearGradient>
		<path style="fill-rule:evenodd;clip-rule:evenodd;fill:url(#SVGID_22_);" d="M0.05,0h6.3c0.4-3.933,0.667-8.733,0.8-14.4
			C7.183-15.7,7-18.617,6.6-23.15c-0.333-4.1-0.417-7.033-0.25-8.8c0.066-0.767,0.066-3.283,0-7.55
			c-0.067-4.867-0.083-8.333-0.05-10.4H0c0.133,0.7,0.2,1.467,0.2,2.3c0.033,1.033,0.133,2.533,0.3,4.5
			c0.167,1.8,0.25,2.75,0.25,2.85c-0.1,1.667-0.033,3.583,0.2,5.75c0.233,2.233,0.333,3.817,0.3,4.75c0,0.667-0.2,1.917-0.6,3.75
			c-0.367,1.867-0.566,3.117-0.6,3.75C0.017-21.383,0.1-20.133,0.3-18.5c0.233,1.867,0.35,3.117,0.35,3.75
			c0.067,1.467,0.067,3.267,0,5.4c-0.133,3.2-0.2,4.833-0.2,4.9c0,0.467-0.083,1.217-0.25,2.25C0.067-1.267,0.017-0.533,0.05,0z"/>
	</g>
</symbol>
<symbol  id="flash0.ai_x5F_1_x2F_Layer_1_x2F__x3C_Path_x3E__x5F_6_x5F_0" viewBox="0 -49.95 3.8 49.9">
	<g id="Layer_1_18_">
		<path style="fill-rule:evenodd;clip-rule:evenodd;fill:#D4DDB4;" d="M0.5-44.55c-0.067,1.233,0,2.783,0.2,4.65
			c0.267,2.066,0.433,3.617,0.5,4.65c0.2,2.233,0.1,5.067-0.3,8.5C0.333-22.117,0.033-19.267,0-18.2C0.433-6.4,0.65-0.35,0.65-0.05
			H3.8l-0.05-49.9H0.6C0.6-47.583,0.567-45.783,0.5-44.55z"/>
	</g>
</symbol>
<symbol  id="flash0.ai_x5F_1_x2F_Layer_1_x2F__x3C_Path_x3E__x5F_7" viewBox="0.07 -17.4 1.469 17.4">
	<g id="Layer_1_16_">
		<path style="fill-rule:evenodd;clip-rule:evenodd;fill:#86C6B7;" d="M1.4-17.4C1.267-15.433,1.133-14,1-13.1
			c-0.167,0.9-0.317,1.7-0.45,2.4C0.15-8.133,0-4.567,0.1,0c0.433-1.367,0.6-2.833,0.5-4.4c-0.067-1.767-0.067-2.867,0-3.3
			C1.467-12.067,1.733-15.3,1.4-17.4z"/>
	</g>
</symbol>
<symbol  id="flash0.ai_x5F_1_x2F_Layer_1_x2F__x3C_Path_x3E__x5F_7_x5F_0" viewBox="-0.017 -49.9 6.467 49.9">
	<g id="Layer_1_17_">
		<linearGradient id="SVGID_23_" gradientUnits="userSpaceOnUse" x1="0.0127" y1="-24.9502" x2="7.2877" y2="-24.9502">
			<stop  offset="0" style="stop-color:#260C0A"/>
			<stop  offset="0.102" style="stop-color:#2B120F"/>
			<stop  offset="0.2314" style="stop-color:#39211F"/>
			<stop  offset="0.3765" style="stop-color:#503B39"/>
			<stop  offset="0.5294" style="stop-color:#71605D"/>
			<stop  offset="0.6941" style="stop-color:#9A8E8C"/>
			<stop  offset="0.8667" style="stop-color:#CCC6C5"/>
			<stop  offset="1" style="stop-color:#F9F8F7"/>
		</linearGradient>
		<path style="fill-rule:evenodd;clip-rule:evenodd;fill:url(#SVGID_23_);" d="M0.3,0h6.05C6.483-3.2,6.2-6,5.5-8.4
			C5.333-9,5.217-9.8,5.15-10.8C5.083-11.4,5-12.467,4.9-14c-0.167-2.167-0.267-3.417-0.3-3.75c-0.033-1.133,0.017-2.367,0.15-3.7
			C5.117-25.383,5.3-29.167,5.3-32.8c0-0.034-0.1-1.5-0.3-4.4c-0.033-0.533,0.067-1.233,0.3-2.1c0.267-1.1,0.417-1.784,0.45-2.05
			c0.1-0.7,0.233-2.25,0.4-4.65c0-2.567,0.1-3.867,0.3-3.9c-0.133,0.033-2.083,0.033-5.85,0c0,2.2-0.067,4.467-0.2,6.8
			c-0.133,2.733-0.25,4.917-0.35,6.55c-0.133,3.333-0.066,6.383,0.2,9.15c0.333,3.3,0.4,6.2,0.2,8.7c-0.3,3.367-0.367,6.034-0.2,8
			C0.217-4.633,0.233-1.067,0.3,0z"/>
	</g>
</symbol>
<symbol  id="flash0.ai_x5F_1_x2F_Layer_1_x2F__x3C_Path_x3E__x5F_8" viewBox="-0.013 -13.65 1.345 13.629">
	<g id="Layer_1_21_">
		<path style="fill-rule:evenodd;clip-rule:evenodd;fill:#69AAC5;" d="M1.2-13.65c-0.333,0.367-0.617,1-0.85,1.9
			C-0.117-9.983-0.133-7.8,0.3-5.2c0.233,1.6,0.417,2.767,0.55,3.5c0.2,1.267,0.333,1.817,0.4,1.65c0.2-0.467,0.033-3.1-0.5-7.9
			C0.483-10.417,0.633-12.317,1.2-13.65z"/>
	</g>
</symbol>
<symbol  id="flash0.ai_x5F_1_x2F_Layer_1_x2F__x3C_Path_x3E__x5F_9" viewBox="-0.081 -2.357 6.92 2.384">
	<g id="Layer_1_27_">
		<path style="fill-rule:evenodd;clip-rule:evenodd;fill:#4EAA95;" d="M6.25-1.1C5.117-2,3.567-2.417,1.6-2.35
			c-1.833,0.033-2.167,0.417-1,1.15C1.733-0.5,3.05-0.1,4.55,0C6.85,0.133,7.417-0.233,6.25-1.1z"/>
	</g>
</symbol>
<g>
	
		<linearGradient id="SVGID_24_" gradientUnits="userSpaceOnUse" x1="-50.0679" y1="44.7773" x2="-40.9427" y2="44.7773" gradientTransform="matrix(0.0055 -1 1 0.0055 2.367091e-004 4.143883e-004)">
		<stop  offset="0.0118" style="stop-color:#68B389"/>
		<stop  offset="1" style="stop-color:#022B3E"/>
	</linearGradient>
	<path style="fill-rule:evenodd;clip-rule:evenodd;fill:url(#SVGID_24_);" d="M48.8,43.3c-0.399-0.233-0.733-0.3-1-0.2
		c-0.2,0.101-0.366,0.317-0.5,0.65c-0.133,0.366-0.25,0.6-0.35,0.7c-0.334-0.8-0.584-1.316-0.75-1.55C46.1,42.7,46.033,42.6,46,42.6
		c-0.033-0.033-0.15,0.017-0.35,0.15c-0.2,0.167-0.367,0.5-0.5,1c-0.067,0.3-0.15,0.684-0.25,1.15l-0.45,2.649
		c-0.134,0.9-0.316,0.483-0.55-1.25c-0.334-2.333-0.551-3.633-0.65-3.899c-0.2-0.567-0.483-0.617-0.85-0.15
		c-0.367,0.434-0.584,1.017-0.65,1.75c-0.066,0.566-0.217,0.55-0.45-0.05c-0.434-1.134-0.649-1.717-0.649-1.75
		c-0.167-0.267-0.617-0.4-1.351-0.4c-0.033,0-0.566-0.083-1.6-0.25c-0.834-0.1-1.3-0.184-1.4-0.25c0.334-0.166,0.95-0.25,1.851-0.25
		h0.399c0.867-0.066,1.5-0.1,1.9-0.1L51.35,42.1c0.301,0.034,0.784,0.101,1.45,0.2c-0.033,0-0.133,0.084-0.3,0.25
		c-0.167,0.134-0.4,0.2-0.7,0.2c-0.267,0-0.767,0.116-1.5,0.35C49.667,43.333,49.167,43.4,48.8,43.3z"/>
	
		<linearGradient id="SVGID_25_" gradientUnits="userSpaceOnUse" x1="-27.5322" y1="25.915" x2="-17.6071" y2="25.915" gradientTransform="matrix(0.005 -1 1 0.005 -3.052941e-004 4.819809e-004)">
		<stop  offset="0.0118" style="stop-color:#625AEF"/>
		<stop  offset="1" style="stop-color:#022B3E"/>
	</linearGradient>
	<path style="fill-rule:evenodd;clip-rule:evenodd;fill:url(#SVGID_25_);" d="M21.2,18.2h0.4c0.867-0.067,1.517-0.083,1.95-0.05
		c0.367,0,0.934,0.017,1.7,0.05l1.2-0.25l5.8-0.35c-1.1,0.3-1.833,1-2.2,2.1c-0.2,0.533-0.367,0.466-0.5-0.2
		c-0.033-0.233-0.1-0.367-0.2-0.4c-0.1,0-0.25,0.083-0.45,0.25c-0.4,0.4-0.617,0.767-0.65,1.1l-0.75,4.3
		c-0.1,0.9-0.283,0.483-0.55-1.25c-0.333-2.367-0.534-3.667-0.6-3.9c-0.2-0.6-0.5-0.667-0.9-0.2c-0.367,0.434-0.583,1.033-0.65,1.8
		c-0.066,0.566-0.2,0.533-0.4-0.1c-0.4-1.067-0.633-1.65-0.7-1.75c-0.167-0.267-0.6-0.4-1.3-0.4c-0.3,0.033-0.833-0.05-1.6-0.25
		c-0.8-0.1-1.267-0.184-1.4-0.25C19.567,18.383,20.167,18.3,21.2,18.2z"/>
	
		<linearGradient id="SVGID_26_" gradientUnits="userSpaceOnUse" x1="-20.626" y1="49.3926" x2="-16.1259" y2="49.3926" gradientTransform="matrix(0.0056 -1 1 0.0056 -4.873732e-004 -6.695697e-005)">
		<stop  offset="0.0118" style="stop-color:#41928F"/>
		<stop  offset="1" style="stop-color:#022B3E"/>
	</linearGradient>
	<path style="fill-rule:evenodd;clip-rule:evenodd;fill:url(#SVGID_26_);" d="M50.5,18.05c-0.233,0.133-0.4,0.3-0.5,0.5
		c-0.066,0.1-0.1,0.317-0.1,0.65c-0.034,0.3-0.117,0.5-0.25,0.6c-0.2-0.533-0.367-0.966-0.5-1.3
		c-0.233-0.633-0.517-0.983-0.851-1.05c-0.6-0.167-0.983,0.483-1.149,1.95c-0.067,0.767-0.267,0.583-0.601-0.55
		c-0.066-0.267-0.133-0.45-0.2-0.55c-0.066-0.167-0.199-0.3-0.399-0.4c-0.233-0.033-0.417-0.083-0.55-0.15
		c-0.233-0.067-0.367-0.167-0.4-0.3c0.366-0.167,1.417-0.367,3.15-0.6c0.566-0.1,1.433-0.2,2.6-0.3c0.634-0.033,1.583-0.1,2.85-0.2
		c-0.633,0.566-1,0.967-1.1,1.2c-0.267,0.767-0.467,0.833-0.6,0.2c-0.034-0.267-0.134-0.383-0.301-0.35
		c-0.066,0-0.216,0.083-0.449,0.25C50.85,17.817,50.634,17.95,50.5,18.05z"/>
	<g>
		<g>
			<linearGradient id="SVGID_27_" gradientUnits="userSpaceOnUse" x1="35.5225" y1="31.959" x2="36.4352" y2="21.6372">
				<stop  offset="0" style="stop-color:#022B3E"/>
				<stop  offset="0.4784" style="stop-color:#74C3C5"/>
				<stop  offset="1" style="stop-color:#1F203E"/>
			</linearGradient>
			<path style="fill-rule:evenodd;clip-rule:evenodd;fill:url(#SVGID_27_);" d="M69.35,36.9c-0.666,1.166-0.833,2.149-0.5,2.949
				c0.101,0.301,0.317,0.717,0.65,1.25c0.033,0.134-0.033,0.4-0.2,0.801c-0.133,0.333-0.267,0.583-0.399,0.75
				c-0.2,0.267-0.467,0.399-0.801,0.399c-1.066-0.1-1.866-0.166-2.399-0.2l-2.55-0.25C62.616,42.566,58.3,42.1,50.2,41.2
				c-6.566-0.733-11.733-1.167-15.5-1.3c-8.4-0.367-14.983-1.117-19.75-2.25c-0.667-0.167-1.7-0.351-3.1-0.551
				c-1.533-0.166-3.833-0.35-6.9-0.55C2.85,36.417,1.333,36.2,0.4,35.9c0-0.167-0.05-0.434-0.15-0.801c-0.1-0.333-0.133-0.6-0.1-0.8
				c0.233-0.899,0.367-1.717,0.4-2.45c-0.1-1.133-0.15-2-0.15-2.6c0-0.967,0.083-1.684,0.25-2.15c0.233-0.5,0.483-0.833,0.75-1
				c0.733-0.433,4.65-0.133,11.75,0.9c3.967,0.566,10.1,1.45,18.4,2.65c0.534,0.066,7.8,0.616,21.8,1.649
				c10.301,0.733,15.967,1.517,17,2.351l0.15,0.5c0.134,0.366,0.184,0.716,0.15,1.05c-0.034,0.267-0.217,0.55-0.551,0.85
				C69.7,36.417,69.45,36.7,69.35,36.9z"/>
			<linearGradient id="SVGID_28_" gradientUnits="userSpaceOnUse" x1="34.8198" y1="41.6611" x2="36.718" y2="20.2425">
				<stop  offset="0" style="stop-color:#022B3E"/>
				<stop  offset="0.4784" style="stop-color:#74C3C5"/>
				<stop  offset="1" style="stop-color:#1F203E"/>
			</linearGradient>
			<path style="fill-rule:evenodd;clip-rule:evenodd;fill:url(#SVGID_28_);" d="M70.15,38.6c-0.067,0.2-0.067,0.617,0,1.25v2.301
				c-0.067,0.433-0.284,1.066-0.65,1.899c-0.1,0.334-0.5,0.483-1.2,0.45c-1.7-0.134-3.566-0.283-5.6-0.45
				c-0.634-0.066-4.95-0.55-12.95-1.45c-6.566-0.733-11.733-1.166-15.5-1.3C25.783,41,19.2,40.25,14.5,39.05
				c-1.333-0.333-4-0.649-8-0.95c-3.667-0.267-5.617-0.466-5.85-0.6C0.217,36.233,0,35.066,0,34c0.1-1.066,0.133-1.833,0.1-2.3
				c0-0.167,0.117-0.783,0.35-1.851c0.033-0.199,0.033-0.6,0-1.199c0-0.534,0.05-0.934,0.15-1.2c0.133-0.233,0.6-0.483,1.4-0.75
				c0.4-0.2,0.817-0.3,1.25-0.3c0.533-0.034,1.333,0.083,2.4,0.35c0.333,0.033,1.267,0.134,2.8,0.3c1.167,0.134,2.1,0.267,2.8,0.4
				l6.65,0.95c4.7,0.8,9.1,1.433,13.2,1.899c0.533,0.066,7.917,0.617,22.15,1.65c10.566,0.767,16.35,1.566,17.35,2.399
				c0,0.534,0.084,1.367,0.25,2.5C70.816,37.35,70.583,37.934,70.15,38.6z"/>
			<linearGradient id="SVGID_29_" gradientUnits="userSpaceOnUse" x1="34.584" y1="41.6143" x2="35.177" y2="34.8908">
				<stop  offset="0" style="stop-color:#022B3E"/>
				<stop  offset="0.4784" style="stop-color:#74C3C5"/>
				<stop  offset="1" style="stop-color:#1F203E"/>
			</linearGradient>
			<path style="fill-rule:evenodd;clip-rule:evenodd;fill:url(#SVGID_29_);" d="M54.25,42.55l6.9,0.45
				c0.933,0.066,2.316,0.233,4.149,0.5c1.601,0.134,2.816,0.283,3.65,0.45l0.399,0.2C69.15,44.417,68.9,44.55,68.6,44.55
				c-0.366-0.033-0.649-0.05-0.85-0.05l-5.05-0.45c-0.634-0.066-4.95-0.55-12.95-1.45c-6.566-0.733-11.733-1.166-15.5-1.3
				C25.783,41,19.2,40.25,14.5,39.05c-1.467-0.366-3.817-0.649-7.05-0.85L3.8,37.9c-2.1-0.101-3.183-0.25-3.25-0.45
				c-0.133-0.267-0.233-0.717-0.3-1.351c-0.067-0.566-0.083-1.017-0.05-1.35c0.2,1.4,0.4,2.15,0.6,2.25c0.5,0.2,1.2,0.316,2.1,0.35
				c0.5,0.034,1.067,0.034,1.7,0c2.3,0.101,3.6,0.167,3.9,0.2c1.433,0.167,3.2,0.45,5.3,0.851c1.167,0.199,2.9,0.517,5.2,0.949
				c0.367,0.067,1.217,0.233,2.55,0.5c1,0.2,1.85,0.334,2.55,0.4c2.767,0.167,6.183,0.316,10.25,0.45
				c5.5,0.2,9.516,0.517,12.05,0.95C49.767,42.184,52.384,42.483,54.25,42.55z"/>
			
				<use xlink:href="#flash0.ai_x5F_1_x2F_Layer_1_x2F__x3C_Path_x3E__x5F_4"  width="23.398" height="12.66" x="0.064" y="-12.687" transform="matrix(1 0 0 -1 45.2002 31.7998)" style="overflow:visible;opacity:0.4414;enable-background:new    ;"/>
			
				<use xlink:href="#flash0.ai_x5F_1_x2F_Layer_1_x2F__x3C_Path_x3E__x5F_3"  width="17.523" height="12.258" x="-0.009" y="-12.258" transform="matrix(1 0 0 -1 50.0498 32)" style="overflow:visible;opacity:0.4414;enable-background:new    ;"/>
			
				<use xlink:href="#flash0.ai_x5F_1_x2F_Layer_1_x2F__x3C_Path_x3E__x5F_2"  width="28.085" height="14.25" x="0.016" y="-14.25" transform="matrix(1 0 0 -1 0.8999 26.7002)" style="overflow:visible;opacity:0.4414;enable-background:new    ;"/>
			
				<use xlink:href="#flash0.ai_x5F_1_x2F_Layer_1_x2F__x3C_Path_x3E__x5F_1"  width="19.103" height="13.55" x="-0.003" y="-13.55" transform="matrix(1 0 0 -1 2.5498 26.6504)" style="overflow:visible;opacity:0.4414;enable-background:new    ;"/>
			
				<use xlink:href="#flash0.ai_x5F_1_x2F_Layer_1_x2F__x3C_Path_x3E_"  width="27.2" height="2.664" y="-2.664" transform="matrix(1 0 0 -1 21.8501 29.0498)" style="overflow:visible;enable-background:new    ;"/>
		</g>
	</g>
	<g>
		<g>
			
				<linearGradient id="SVGID_30_" gradientUnits="userSpaceOnUse" x1="0.2769" y1="-34.7461" x2="10.6707" y2="-34.7461" gradientTransform="matrix(0.0594 0.9982 -0.9982 0.0594 2.037361e-004 -1.716986e-004)">
				<stop  offset="0" style="stop-color:#022B3E"/>
				<stop  offset="0.4784" style="stop-color:#74C3C5"/>
				<stop  offset="1" style="stop-color:#1F203E"/>
			</linearGradient>
			<path style="fill-rule:evenodd;clip-rule:evenodd;fill:url(#SVGID_30_);" d="M69.7,3.65c0.3,0.167,0.517,0.6,0.649,1.3
				c0.034,0.433-0.116,1.283-0.449,2.55c0,0.233,0.083,0.5,0.25,0.8c0.166,0.3,0.233,0.567,0.199,0.8
				c-0.033,0.333-0.017,0.783,0.051,1.35c-0.101,0.966-0.15,1.483-0.15,1.55c-0.066,0.233-0.1,0.583-0.1,1.05
				c-0.134,0.267-0.417,0.45-0.851,0.55c-0.467,0.066-0.8,0.117-1,0.15c-0.399,0.1-1.233,0.183-2.5,0.25
				c-3.066,0.133-5.366,0.267-6.899,0.4c-1.4,0.133-2.45,0.283-3.15,0.45C51.217,15.883,44.634,16.467,36,16.6
				c-3.8,0.033-8.967,0.333-15.5,0.9c-8.2,0.7-12.517,1.067-12.95,1.1c-3.267,0.2-4.983,0.283-5.15,0.25
				c-0.367-0.067-0.783-0.583-1.25-1.55c-0.433-0.933-0.75-3.117-0.95-6.55c-0.034-0.367,0.05-0.683,0.25-0.95L0.7,9.45
				C1.733,8.65,7.4,8,17.7,7.5c13.867-0.667,21.133-1.033,21.8-1.1c3.6-0.333,9.767-1.066,18.5-2.2C65.1,3.367,69,3.183,69.7,3.65z"
				/>
			
				<linearGradient id="SVGID_31_" gradientUnits="userSpaceOnUse" x1="-1.1172" y1="-34.6489" x2="20.4705" y2="-34.6489" gradientTransform="matrix(0.0594 0.9982 -0.9982 0.0594 6.966665e-005 7.560477e-005)">
				<stop  offset="0" style="stop-color:#022B3E"/>
				<stop  offset="0.4784" style="stop-color:#74C3C5"/>
				<stop  offset="1" style="stop-color:#1F203E"/>
			</linearGradient>
			<path style="fill-rule:evenodd;clip-rule:evenodd;fill:url(#SVGID_31_);" d="M68.45,4.25c0.166,0.067,0.45,0.167,0.85,0.3
				c0.367,0.167,0.617,0.317,0.75,0.45c0.267,0.3,0.4,0.7,0.4,1.2c0,0.066-0.017,0.517-0.05,1.35c-0.034,0.567,0.066,1.417,0.3,2.55
				c0,0.2-0.066,0.617-0.2,1.25c-0.1,0.566-0.134,0.983-0.1,1.25l0.05,0.55c0,0.567-0.101,1.033-0.3,1.4
				c-0.101,0.133-0.351,0.267-0.75,0.4c-0.4,0.133-0.7,0.183-0.9,0.15c-0.333-0.033-0.616,0-0.85,0.1
				c-0.334,0.167-0.634,0.25-0.9,0.25c-1.566,0-2.733,0.033-3.5,0.1l-3.7,0.25c-0.833,0.034-1.967,0.184-3.399,0.45
				C51.384,17.317,44.8,17.9,36.4,18c-3.767,0.067-8.934,0.383-15.5,0.95c-8,0.7-12.316,1.066-12.95,1.1
				c-2.034,0.133-3.9,0.25-5.6,0.35c-0.7,0-1.1-0.167-1.2-0.5c-0.867-3.1-1.2-6.333-1-9.7c1.067-0.8,6.9-1.467,17.5-2
				c14.2-0.667,21.633-1.034,22.3-1.1c4.233-0.4,8.416-0.9,12.55-1.5c1.434-0.2,3.583-0.467,6.45-0.8c1.233-0.2,3.1-0.383,5.6-0.55
				c0.267-0.033,0.684-0.1,1.25-0.2c0.5-0.1,0.917-0.133,1.25-0.1C67.384,3.95,67.85,4.05,68.45,4.25z"/>
			
				<linearGradient id="SVGID_32_" gradientUnits="userSpaceOnUse" x1="14.3921" y1="-34.7012" x2="20.4522" y2="-34.7012" gradientTransform="matrix(0.0588 0.9983 -0.9983 0.0588 -4.175007e-004 -2.528653e-004)">
				<stop  offset="0" style="stop-color:#022B3E"/>
				<stop  offset="0.4784" style="stop-color:#74C3C5"/>
				<stop  offset="1" style="stop-color:#1F203E"/>
			</linearGradient>
			<path style="fill-rule:evenodd;clip-rule:evenodd;fill:url(#SVGID_32_);" d="M66.9,15.4c-1.601,0.067-2.817,0.133-3.65,0.2
				c-3.4,0.133-5.767,0.35-7.1,0.65C51.384,17.317,44.8,17.9,36.4,18c-3.767,0.067-8.934,0.383-15.5,0.95
				c-8,0.7-12.316,1.066-12.95,1.1c-2.233,0.167-3.917,0.267-5.05,0.3c-0.5,0.033-0.816,0.05-0.95,0.05
				c-0.4-0.033-0.684-0.183-0.85-0.45l0.6-0.15c0.3-0.066,1.517-0.183,3.65-0.35c0.933-0.034,2.316-0.167,4.15-0.4l6.9-0.3
				c2.133-0.033,4.75-0.267,7.85-0.7c2.633-0.333,6.667-0.533,12.1-0.6c4.5-0.067,7.9-0.15,10.2-0.25
				c1.233-0.034,2.934-0.284,5.101-0.75c2.333-0.333,5.85-0.85,10.55-1.55c0.6-0.066,1.899-0.1,3.899-0.1
				c0.2,0,0.767,0.017,1.7,0.05c0.934,0,1.634-0.1,2.101-0.3c0.133-0.066,0.283-0.65,0.449-1.75c0.067,0.967,0,1.7-0.199,2.2
				C70.083,15.133,69,15.267,66.9,15.4z"/>
			
				<use xlink:href="#flash0.ai_x5F_1_x2F_Layer_1_x2F__x3C_Path_x3E__x5F_4_x5F_0"  width="31.073" height="11.963" x="0.011" y="-11.963" transform="matrix(1 0 0 -1 1.75 8.25)" style="overflow:visible;opacity:0.4414;enable-background:new    ;"/>
			
				<use xlink:href="#flash0.ai_x5F_1_x2F_Layer_1_x2F__x3C_Path_x3E__x5F_3_x5F_0"  width="17.717" height="11.927" x="-0.014" y="-11.967" transform="matrix(1 0 0 -1 2.9502 8.25)" style="overflow:visible;opacity:0.4414;enable-background:new    ;"/>
			
				<use xlink:href="#flash0.ai_x5F_1_x2F_Layer_1_x2F__x3C_Path_x3E__x5F_2_x5F_0"  width="19.444" height="12.513" x="-0.041" y="-12.506" transform="matrix(1 0 0 -1 50.4004 4)" style="overflow:visible;opacity:0.4414;enable-background:new    ;"/>
			
				<use xlink:href="#flash0.ai_x5F_1_x2F_Layer_1_x2F__x3C_Path_x3E__x5F_1_x5F_0"  width="16.621" height="12.606" x="-0.018" y="-12.6" transform="matrix(1 0 0 -1 51.5498 4.1499)" style="overflow:visible;opacity:0.4414;enable-background:new    ;"/>
			
				<use xlink:href="#flash0.ai_x5F_1_x2F_Layer_1_x2F__x3C_Path_x3E__x5F_0"  width="27.2" height="2.103" y="-2.103" transform="matrix(1 0 0 -1 22 6.0498)" style="overflow:visible;enable-background:new    ;"/>
		</g>
	</g>
	<g>
		<g>
			
				<linearGradient id="SVGID_33_" gradientUnits="userSpaceOnUse" x1="-18.6504" y1="-25" x2="-4.4504" y2="-25" gradientTransform="matrix(-1 0 0 -1 0 0)">
				<stop  offset="0" style="stop-color:#022B3E"/>
				<stop  offset="0.4784" style="stop-color:#74C3C5"/>
				<stop  offset="1" style="stop-color:#1F203E"/>
			</linearGradient>
			<path style="fill-rule:evenodd;clip-rule:evenodd;fill:url(#SVGID_33_);" d="M17.95,9.7c0,0.8-0.1,2.233-0.3,4.3
				c-0.2,1.833-0.267,3.283-0.2,4.35c0.1,1.133,0.167,2.483,0.2,4.05c0.033,1.333,0.1,2.434,0.2,3.3
				c0.367,3.066,0.583,4.866,0.65,5.399c0.2,2.334,0.2,4.101,0,5.301c-0.1,0.466-0.133,1.149-0.1,2.05c0,0.934-0.033,1.616-0.1,2.05
				c-0.167,1.267-0.25,2.833-0.25,4.7c0,1.066,0.017,2.649,0.05,4.75H4.75c-0.067-0.733-0.017-2.134,0.15-4.2
				c0.133-1.767,0.1-3.134-0.1-4.1c-0.2-1.2-0.2-2.717,0-4.551c0.267-2.433,0.4-3.966,0.4-4.6c0-1.2-0.167-3.384-0.5-6.55
				c-0.267-2.767-0.333-4.934-0.2-6.5C4.833,16.517,5,14.3,5,12.8C4.833,9.467,4.733,6.917,4.7,5.15l0.1-5.1h13.35L17.95,9.7z"/>
			
				<use xlink:href="#flash0.ai_x5F_1_x2F_Layer_1_x2F__x3C_Clip_Group_0_x3E_"  width="15.166" height="49.967" x="0.033" y="-49.95" transform="matrix(1 0 0 -1 4.3999 0)" style="overflow:visible;"/>
		</g>
	</g>
	<g>
		
			<linearGradient id="SVGID_34_" gradientUnits="userSpaceOnUse" x1="-67.4624" y1="-25" x2="-53.6374" y2="-25" gradientTransform="matrix(-1 0 0 -1 0 0)">
			<stop  offset="0" style="stop-color:#022B3E"/>
			<stop  offset="0.4784" style="stop-color:#74C3C5"/>
			<stop  offset="1" style="stop-color:#1F203E"/>
		</linearGradient>
		<path style="fill-rule:evenodd;clip-rule:evenodd;fill:url(#SVGID_34_);" d="M66.35,19.35c0,1.9,0.117,4.05,0.351,6.45
			c0.1,1.367,0.3,3.5,0.6,6.4c0.101,1.166,0.101,2.733,0,4.7C67.2,39.3,67.15,40.85,67.15,41.55c0.066,4.667,0.083,7.467,0.05,8.4
			H54.05c0.066-2.8,0.101-4.884,0.101-6.25c0-2.434-0.117-4.533-0.351-6.3c-0.233-1.9-0.1-4.934,0.4-9.101
			c0.5-3.966,0.566-7,0.2-9.1c-0.167-0.934-0.25-2.117-0.25-3.55c0-1.433-0.084-2.617-0.25-3.55c-0.334-1.8-0.367-3.95-0.101-6.45
			c0.2-2,0.384-3.867,0.55-5.6H67.5L67.2,7.1c-0.3,2.467-0.45,3.75-0.45,3.85C66.417,13.583,66.283,16.383,66.35,19.35z"/>
		
			<use xlink:href="#flash0.ai_x5F_1_x2F_Layer_1_x2F__x3C_Clip_Group_0_x3E__x5F_0"  width="13.878" height="49.9" x="-0.028" y="-49.95" transform="matrix(1 0 0 -1 53.6504 0)" style="overflow:visible;"/>
	</g>
	
		<linearGradient id="SVGID_35_" gradientUnits="userSpaceOnUse" x1="-38.126" y1="61.9463" x2="-26.9476" y2="61.9463" gradientTransform="matrix(0.0246 -0.9997 0.9997 0.0246 -3.207773e-004 4.807562e-004)">
		<stop  offset="0" style="stop-color:#74C3C5"/>
		<stop  offset="1" style="stop-color:#1F203E"/>
	</linearGradient>
	<path style="fill-rule:evenodd;clip-rule:evenodd;fill:url(#SVGID_35_);" d="M60.85,29.4c1.101-1.267,1.7-0.601,1.801,2
		c0.133,2.566-0.367,4.633-1.5,6.199C60.116,39.1,59.6,38.366,59.6,35.4C59.6,32.4,60.017,30.4,60.85,29.4z"/>
	
		<linearGradient id="SVGID_36_" gradientUnits="userSpaceOnUse" x1="-24.9028" y1="64.5332" x2="-20.3017" y2="64.5332" gradientTransform="matrix(0.0217 -0.9998 0.9998 0.0217 -4.508868e-004 -4.391856e-004)">
		<stop  offset="0" style="stop-color:#74C3C5"/>
		<stop  offset="1" style="stop-color:#1F203E"/>
	</linearGradient>
	<path style="fill-rule:evenodd;clip-rule:evenodd;fill:url(#SVGID_36_);" d="M63.5,22.35c0.2-0.8,0.5-0.767,0.9,0.1
		c0.399,0.833,0.449,1.716,0.149,2.649c-0.333,0.934-0.649,0.95-0.95,0.051C63.267,24.217,63.233,23.283,63.5,22.35z"/>
	
		<linearGradient id="SVGID_37_" gradientUnits="userSpaceOnUse" x1="-11.7583" y1="65.7637" x2="-2.956" y2="65.7637" gradientTransform="matrix(0.0227 -0.9997 0.9997 0.0227 -2.184510e-004 6.072409e-005)">
		<stop  offset="0" style="stop-color:#74C3C5"/>
		<stop  offset="1" style="stop-color:#1F203E"/>
	</linearGradient>
	<path style="fill-rule:evenodd;clip-rule:evenodd;fill:url(#SVGID_37_);" d="M65.3,5.2c0.601-1.133,1-0.567,1.2,1.7
		s-0.066,3.883-0.8,4.85c-0.667,0.933-1.033,0.3-1.101-1.9C64.566,7.617,64.8,6.067,65.3,5.2z"/>
	
		<linearGradient id="SVGID_38_" gradientUnits="userSpaceOnUse" x1="-14.9341" y1="60.7012" x2="-9.6826" y2="60.7012" gradientTransform="matrix(0.0238 -0.9997 0.9997 0.0238 -8.431077e-005 -2.813898e-004)">
		<stop  offset="0" style="stop-color:#74C3C5"/>
		<stop  offset="1" style="stop-color:#1F203E"/>
	</linearGradient>
	<path style="fill-rule:evenodd;clip-rule:evenodd;fill:url(#SVGID_38_);" d="M59.7,11.85c0.233-0.934,0.616-0.867,1.149,0.2
		c0.5,1.034,0.534,2.05,0.101,3.05c-0.434,0.967-0.816,0.9-1.15-0.2C59.5,13.8,59.467,12.783,59.7,11.85z"/>
	
		<linearGradient id="SVGID_39_" gradientUnits="userSpaceOnUse" x1="-7.6216" y1="58.6875" x2="0.7308" y2="58.6875" gradientTransform="matrix(0.0239 -0.9997 0.9997 0.0239 -1.799483e-004 -8.376688e-005)">
		<stop  offset="0" style="stop-color:#74C3C5"/>
		<stop  offset="1" style="stop-color:#1F203E"/>
	</linearGradient>
	<path style="fill-rule:evenodd;clip-rule:evenodd;fill:url(#SVGID_39_);" d="M58.2,1.55c0.8-1.233,1.316-0.867,1.55,1.1
		s-0.066,3.55-0.9,4.75c-0.8,1.167-1.283,0.733-1.449-1.3C57.267,4.067,57.533,2.55,58.2,1.55z"/>
	
		<linearGradient id="SVGID_40_" gradientUnits="userSpaceOnUse" x1="-47.7168" y1="58.8125" x2="-38.0642" y2="58.8125" gradientTransform="matrix(0.0233 -0.9997 0.9997 0.0233 2.028327e-004 1.989845e-004)">
		<stop  offset="0" style="stop-color:#74C3C5"/>
		<stop  offset="1" style="stop-color:#1F203E"/>
	</linearGradient>
	<path style="fill-rule:evenodd;clip-rule:evenodd;fill:url(#SVGID_40_);" d="M56.6,40.75c0.5-1.833,1.15-1.566,1.95,0.8
		c0.834,2.334,0.867,4.217,0.101,5.65c-0.7,1.333-1.301,0.85-1.801-1.45C56.384,43.55,56.3,41.884,56.6,40.75z"/>
	
		<use xlink:href="#flash0.ai_x5F_1_x2F_Layer_1_x2F__x3C_Path_x3E__x5F_21"  width="1" height="4.643" x="0.05" y="-4.493" transform="matrix(1 0 0 -1 64.5996 14.7002)" style="overflow:visible;opacity:0.3516;enable-background:new    ;"/>
	
		<use xlink:href="#flash0.ai_x5F_1_x2F_Layer_1_x2F__x3C_Path_x3E__x5F_20"  width="1.963" height="10.55" x="-0.013" y="-10.411" transform="matrix(1 0 0 -1 56.2998 20.5)" style="overflow:visible;opacity:0.3516;enable-background:new    ;"/>
	
		<use xlink:href="#flash0.ai_x5F_1_x2F_Layer_1_x2F__x3C_Path_x3E__x5F_19"  width="6.527" height="2.145" x="-0.016" y="-2.129" transform="matrix(1 0 0 -1 40.2998 38.25)" style="overflow:visible;opacity:0.3516;enable-background:new    ;"/>
	
		<linearGradient id="SVGID_41_" gradientUnits="userSpaceOnUse" x1="-40.8877" y1="44.8105" x2="-36.8577" y2="44.8105" gradientTransform="matrix(-0.0496 -0.9988 0.9988 -0.0496 3.165752e-005 -8.165948e-004)">
		<stop  offset="0" style="stop-color:#74C3C5"/>
		<stop  offset="1" style="stop-color:#1F203E"/>
	</linearGradient>
	<path style="fill-rule:evenodd;clip-rule:evenodd;fill:url(#SVGID_41_);" d="M47,34.35c2.333,0.101,3.217,0.601,2.65,1.5
		c-0.567,0.9-1.884,1.25-3.95,1.051c-1.934-0.2-2.617-0.684-2.05-1.45C44.217,34.65,45.333,34.283,47,34.35z"/>
	
		<use xlink:href="#flash0.ai_x5F_1_x2F_Layer_1_x2F__x3C_Path_x3E__x5F_17"  width="2.949" height="1.325" x="0.003" y="-1.3" transform="matrix(1 0 0 -1 33.4502 33.1504)" style="overflow:visible;opacity:0.3516;enable-background:new    ;"/>
	
		<linearGradient id="SVGID_42_" gradientUnits="userSpaceOnUse" x1="-39.8286" y1="28.8926" x2="-34.8973" y2="28.8926" gradientTransform="matrix(-0.0507 -0.9987 0.9987 -0.0507 -2.496988e-004 -3.772825e-004)">
		<stop  offset="0" style="stop-color:#74C3C5"/>
		<stop  offset="1" style="stop-color:#1F203E"/>
	</linearGradient>
	<path style="fill-rule:evenodd;clip-rule:evenodd;fill:url(#SVGID_42_);" d="M30.9,34.45c3.333,0.166,4.4,0.8,3.2,1.899
		c-1.233,1.101-2.934,1.517-5.1,1.25c-1.9-0.199-2.483-0.8-1.75-1.8C28.017,34.833,29.233,34.384,30.9,34.45z"/>
	
		<linearGradient id="SVGID_43_" gradientUnits="userSpaceOnUse" x1="-40.5981" y1="40.5449" x2="-38.8465" y2="40.5449" gradientTransform="matrix(-0.0428 -0.9991 0.9991 -0.0428 -2.154335e-005 7.179119e-004)">
		<stop  offset="0" style="stop-color:#74C3C5"/>
		<stop  offset="1" style="stop-color:#1F203E"/>
	</linearGradient>
	<path style="fill-rule:evenodd;clip-rule:evenodd;fill:url(#SVGID_43_);" d="M42.25,37c0.667-0.1,1.05,0.066,1.15,0.5
		c0.066,0.434-0.334,0.634-1.2,0.6c-0.9-0.033-1.3-0.183-1.2-0.449C41.066,37.35,41.483,37.134,42.25,37z"/>
	
		<linearGradient id="SVGID_44_" gradientUnits="userSpaceOnUse" x1="-34.3843" y1="21.8428" x2="-30.1545" y2="21.8428" gradientTransform="matrix(-0.0473 -0.9989 0.9989 -0.0473 1.161769e-004 1.959428e-004)">
		<stop  offset="0" style="stop-color:#74C3C5"/>
		<stop  offset="1" style="stop-color:#1F203E"/>
	</linearGradient>
	<path style="fill-rule:evenodd;clip-rule:evenodd;fill:url(#SVGID_44_);" d="M23.15,29.6c1.1,0.034,2.017,0.25,2.75,0.65
		c0.667,0.366,0.9,0.7,0.7,1c-0.233,0.333-0.883,0.517-1.95,0.55c-1.2,0.033-2.367-0.166-3.5-0.6c-1.167-0.434-1.467-0.816-0.9-1.15
		C20.783,29.717,21.75,29.566,23.15,29.6z"/>
	
		<linearGradient id="SVGID_45_" gradientUnits="userSpaceOnUse" x1="-39.8286" y1="15.4443" x2="-35.6524" y2="15.4443" gradientTransform="matrix(0.0239 -0.9997 0.9997 0.0239 -1.799483e-004 -8.376688e-005)">
		<stop  offset="0" style="stop-color:#74C3C5"/>
		<stop  offset="1" style="stop-color:#1F203E"/>
	</linearGradient>
	<path style="fill-rule:evenodd;clip-rule:evenodd;fill:url(#SVGID_45_);" d="M14.05,36.85c0.267-0.866,0.583-1,0.95-0.399
		c0.333,0.6,0.3,1.399-0.1,2.399S14.2,39.967,14,39.2C13.8,38.467,13.817,37.684,14.05,36.85z"/>
	
		<linearGradient id="SVGID_46_" gradientUnits="userSpaceOnUse" x1="-31.7178" y1="8.8301" x2="-20.8899" y2="8.8301" gradientTransform="matrix(0.0231 -0.9997 0.9997 0.0231 4.496127e-004 4.762728e-004)">
		<stop  offset="0" style="stop-color:#74C3C5"/>
		<stop  offset="1" style="stop-color:#1F203E"/>
	</linearGradient>
	<path style="fill-rule:evenodd;clip-rule:evenodd;fill:url(#SVGID_46_);" d="M7.1,22.15c1.066-1.5,1.85-0.767,2.35,2.2
		c0.5,2.966,0.383,4.966-0.35,6c-0.633,0.867-1.267-0.1-1.9-2.899C6.6,24.65,6.567,22.883,7.1,22.15z"/>
	
		<linearGradient id="SVGID_47_" gradientUnits="userSpaceOnUse" x1="-27.8896" y1="13.7393" x2="-22.4882" y2="13.7393" gradientTransform="matrix(0.0231 -0.9997 0.9997 0.0231 1.161676e-004 1.520291e-004)">
		<stop  offset="0" style="stop-color:#022B3E"/>
		<stop  offset="0.4784" style="stop-color:#74C3C5"/>
		<stop  offset="1" style="stop-color:#1F203E"/>
	</linearGradient>
	<path style="fill-rule:evenodd;clip-rule:evenodd;fill:url(#SVGID_47_);" d="M12.7,22.3c0.4-0.633,0.8-0.4,1.2,0.7
		c0.367,1.133,0.217,2.167-0.45,3.1c-0.667,0.9-1.05,0.634-1.15-0.8C12.2,23.867,12.333,22.867,12.7,22.3z"/>
	
		<use xlink:href="#flash0.ai_x5F_1_x2F_Layer_1_x2F__x3C_Path_x3E__x5F_10"  width="1.852" height="5.463" y="-5.415" transform="matrix(1 0 0 -1 15.4502 10.9502)" style="overflow:visible;opacity:0.3516;enable-background:new    ;"/>
	
		<linearGradient id="SVGID_48_" gradientUnits="userSpaceOnUse" x1="-15.4824" y1="11.4331" x2="-6.4546" y2="11.4331" gradientTransform="matrix(0.0249 -0.9997 0.9997 0.0249 -4.320778e-004 1.612660e-004)">
		<stop  offset="0" style="stop-color:#022B3E"/>
		<stop  offset="0.4784" style="stop-color:#74C3C5"/>
		<stop  offset="1" style="stop-color:#1F203E"/>
	</linearGradient>
	<path style="fill-rule:evenodd;clip-rule:evenodd;fill:url(#SVGID_48_);" d="M10.5,6c0.8-1.233,1.367-0.717,1.7,1.55
		c0.3,2.233,0.083,3.917-0.65,5.05c-0.667,1.033-1.117,0.35-1.35-2.05C10,8.183,10.1,6.667,10.5,6z"/>
	
		<linearGradient id="SVGID_49_" gradientUnits="userSpaceOnUse" x1="-4.3237" y1="16.2451" x2="-0.5224" y2="16.2451" gradientTransform="matrix(0.0263 -0.9997 0.9997 0.0263 -4.765932e-004 -3.458858e-004)">
		<stop  offset="0" style="stop-color:#74C3C5"/>
		<stop  offset="1" style="stop-color:#1F203E"/>
	</linearGradient>
	<path style="fill-rule:evenodd;clip-rule:evenodd;fill:url(#SVGID_49_);" d="M15.75,1.4c0.433-0.6,0.783-0.483,1.05,0.35
		c0.3,0.833,0.25,1.55-0.15,2.15c-0.4,0.633-0.767,0.533-1.1-0.3C15.25,2.767,15.317,2.033,15.75,1.4z"/>
	
		<linearGradient id="SVGID_50_" gradientUnits="userSpaceOnUse" x1="-3.3457" y1="7.4312" x2="-0.6447" y2="7.4312" gradientTransform="matrix(0.0278 -0.9996 0.9996 0.0278 -2.768692e-004 3.227461e-004)">
		<stop  offset="0" style="stop-color:#74C3C5"/>
		<stop  offset="1" style="stop-color:#1F203E"/>
	</linearGradient>
	<path style="fill-rule:evenodd;clip-rule:evenodd;fill:url(#SVGID_50_);" d="M7.15,1.1c0.233-0.333,0.434-0.267,0.6,0.2
		c0.2,0.5,0.167,1.017-0.1,1.55C7.417,3.417,7.2,3.383,7,2.75C6.8,2.083,6.85,1.533,7.15,1.1z"/>
	
		<linearGradient id="SVGID_51_" gradientUnits="userSpaceOnUse" x1="-50.0928" y1="12.1846" x2="-38.2646" y2="12.1846" gradientTransform="matrix(0.0232 -0.9997 0.9997 0.0232 -1.506284e-004 3.023520e-004)">
		<stop  offset="0" style="stop-color:#74C3C5"/>
		<stop  offset="1" style="stop-color:#1F203E"/>
	</linearGradient>
	<path style="fill-rule:evenodd;clip-rule:evenodd;fill:url(#SVGID_51_);" d="M9.45,40.35c1.133-2.366,2.183-2,3.15,1.101
		c0.967,3.166,1.05,5.434,0.25,6.8c-0.833,1.434-1.817,0.917-2.95-1.55S8.617,42.116,9.45,40.35z"/>
	
		<linearGradient id="SVGID_52_" gradientUnits="userSpaceOnUse" x1="-14.1699" y1="34.7344" x2="-11.4421" y2="34.7344" gradientTransform="matrix(-0.0458 -0.9989 0.9989 -0.0458 -1.066402e-004 -8.928068e-004)">
		<stop  offset="0" style="stop-color:#022B3E"/>
		<stop  offset="0.4784" style="stop-color:#74C3C5"/>
		<stop  offset="1" style="stop-color:#1F203E"/>
	</linearGradient>
	<path style="fill-rule:evenodd;clip-rule:evenodd;fill:url(#SVGID_52_);" d="M34.9,9.75c1.067-0.267,1.7-0.117,1.9,0.45
		c0.2,0.566-0.233,0.966-1.3,1.2c-1.033,0.2-1.633,0.033-1.8-0.5C33.533,10.4,33.933,10.017,34.9,9.75z"/>
	
		<linearGradient id="SVGID_53_" gradientUnits="userSpaceOnUse" x1="-13.9351" y1="47.4326" x2="-9.9301" y2="47.4326" gradientTransform="matrix(-0.0499 -0.9988 0.9988 -0.0499 1.379475e-004 6.101802e-004)">
		<stop  offset="0" style="stop-color:#74C3C5"/>
		<stop  offset="1" style="stop-color:#1F203E"/>
	</linearGradient>
	<path style="fill-rule:evenodd;clip-rule:evenodd;fill:url(#SVGID_53_);" d="M47.5,7.35c2-0.233,3.167,0.066,3.5,0.9
		c0.333,0.8-0.634,1.333-2.9,1.6c-2.233,0.267-3.333-0.017-3.3-0.85C44.833,8.133,45.733,7.583,47.5,7.35z"/>
	
		<linearGradient id="SVGID_54_" gradientUnits="userSpaceOnUse" x1="-13.7808" y1="42.0107" x2="-12.1041" y2="42.0107" gradientTransform="matrix(-0.0447 -0.999 0.999 -0.0447 -1.830608e-005 4.247800e-004)">
		<stop  offset="0" style="stop-color:#74C3C5"/>
		<stop  offset="1" style="stop-color:#1F203E"/>
	</linearGradient>
	<path style="fill-rule:evenodd;clip-rule:evenodd;fill:url(#SVGID_54_);" d="M42.65,10.65c0.566-0.066,0.966,0.05,1.199,0.35
		c0.267,0.3,0,0.533-0.8,0.7c-0.934,0.167-1.533,0.083-1.8-0.25C40.95,11.117,41.417,10.85,42.65,10.65z"/>
	
		<linearGradient id="SVGID_55_" gradientUnits="userSpaceOnUse" x1="-17.7559" y1="44.6396" x2="-13.0505" y2="44.6396" gradientTransform="matrix(-0.0478 -0.9989 0.9989 -0.0478 6.842613e-005 1.894757e-004)">
		<stop  offset="0" style="stop-color:#74C3C5"/>
		<stop  offset="1" style="stop-color:#1F203E"/>
	</linearGradient>
	<path style="fill-rule:evenodd;clip-rule:evenodd;fill:url(#SVGID_55_);" d="M47.45,12.1c1.267-0.067,1.967,0.083,2.1,0.45
		c0.134,0.333-0.184,0.733-0.95,1.2c-1.899,1.267-3.883,1.767-5.949,1.5c-1.934-0.267-2.051-0.833-0.351-1.7
		C43.934,12.683,45.65,12.2,47.45,12.1z"/>
	
		<linearGradient id="SVGID_56_" gradientUnits="userSpaceOnUse" x1="-12.606" y1="22.3379" x2="-9.2514" y2="22.3379" gradientTransform="matrix(-0.0522 -0.9986 0.9986 -0.0522 -1.375005e-004 -9.737983e-004)">
		<stop  offset="0" style="stop-color:#74C3C5"/>
		<stop  offset="1" style="stop-color:#1F203E"/>
	</linearGradient>
	<path style="fill-rule:evenodd;clip-rule:evenodd;fill:url(#SVGID_56_);" d="M23.5,9c2.1,0.1,2.833,0.55,2.2,1.35
		c-0.667,0.8-1.95,1-3.85,0.6c-1.8-0.367-2.383-0.817-1.75-1.35C20.733,9.133,21.867,8.933,23.5,9z"/>
	
		<use xlink:href="#flash0.ai_x5F_1_x2F_Layer_1_x2F__x3C_Path_x3E__x5F_9"  width="6.92" height="2.384" x="-0.081" y="-2.357" transform="matrix(1 0 0 -1 23.1001 11)" style="overflow:visible;opacity:0.3516;enable-background:new    ;"/>
</g>
</svg>
