<?xml version="1.0" encoding="iso-8859-1"?>
<!-- Generator: Adobe Illustrator 15.1.0, SVG Export Plug-In . SVG Version: 6.00 Build 0)  -->
<!DOCTYPE svg PUBLIC "-//W3C//DTD SVG 1.1//EN" "http://www.w3.org/Graphics/SVG/1.1/DTD/svg11.dtd">
<svg version="1.1" id="Layer_3" xmlns="http://www.w3.org/2000/svg" xmlns:xlink="http://www.w3.org/1999/xlink" x="0px" y="0px"
	 width="234.25px" height="153.45px" viewBox="0 0 234.25 153.45" style="enable-background:new 0 0 234.25 153.45;"
	 xml:space="preserve">
<symbol  id="flash0.ai_x2F_Layer_3_x2F__x3C_Clip_Group_0_x3E_" viewBox="-0.054 -98.15 179.679 98.174">
	<g id="Layer_1_21_">
	</g>
	<g>
		<defs>
			<path id="SVGID_1_" d="M179.55-13.95l-0.15,0.55c-0.233,0.633-0.467,1.05-0.7,1.25c-0.467,0.367-0.684-0.6-0.65-2.9
				c0.067-2.934-0.3-5.8-1.1-8.6c-0.867-2.934-2.083-5.267-3.65-7c-3.1-3.467-4.716-5.283-4.85-5.45c0.4,2.267,0.55,4.65,0.45,7.15
				c0.8,3.833,1.317,6.1,1.55,6.8c0.9,2.8,1.2,5.417,0.9,7.85h-0.65c-0.034-2.5-0.417-4.7-1.15-6.6c-0.4-1.1-0.75-2.383-1.05-3.85
				c-0.2,1.5-0.5,2.967-0.9,4.4c-0.833,2.934-1.4,4.6-1.7,5c-0.3,0.333-0.267-0.5,0.1-2.5c0.633-3.433,0.967-5.733,1-6.9
				c0.1-3.467-0.583-7.067-2.05-10.8c-1.867-4.633-5.2-8.1-10-10.4c-6.167-2.933-13.25-2.716-21.25,0.65
				c-7.6,3.2-15.317,8.583-23.15,16.15c-7.933,8.433-13.75,14.267-17.45,17.5c-6.333,5.5-13.133,9.066-20.4,10.7
				C64.367,0.917,55.883,0.1,47.25-3.4c-8.2-3.3-15-8.3-20.4-15c-5.467-6.833-9.617-15.567-12.45-26.2
				c-1.167-4.267-2.066-9.25-2.7-14.95c-0.267-2.434-0.684-7.5-1.25-15.2L10-80.95c-0.033-0.6-0.067-1.583-0.1-2.95
				c-0.066-1.2-0.367-2.117-0.9-2.75c-0.4-0.467-1.033-0.883-1.9-1.25c-0.434-0.167-1.184-0.417-2.25-0.75c-0.033,0-0.7-0.15-2-0.45
				c-0.833-0.167-1.467-0.383-1.9-0.65c-1.167-0.733-1.317-1.05-0.45-0.95c4.133,0.367,7.833,0.284,11.1-0.25
				c2.733-0.466,5.383-0.6,7.95-0.4c1.534,0.1,2.217,0.067,2.05-0.1c-0.8-0.6-3.05-1.183-6.75-1.75
				c-2.733-0.466-3.583-0.95-2.55-1.45c1.633-0.067,3.733-0.383,6.3-0.95c2.5-0.533,4.633-0.816,6.4-0.85
				c3.7-0.066,7.267,0.083,10.7,0.45c4.7,0.533,7.083,0.8,7.15,0.8c0.8,0.034,2.5,0.067,5.1,0.1c2.033,0.033,2.716,0.217,2.05,0.55
				c-1.867,0.633-4.483,1.017-7.85,1.15c2.767,0,6.983-0.05,12.65-0.15c0.867,0.267,0.483,0.683-1.15,1.25
				c-2.267,0.8-3.483,1.267-3.65,1.4c-0.5,0.967,1.15,1.217,4.95,0.75c3.566-0.434,5-0.317,4.3,0.35
				c-3.933,1.433-6.717,5.066-8.35,10.9c-0.933,3.4-1.517,8.167-1.75,14.3c-0.467,11.967,0.517,21.083,2.95,27.35
				c2.233,5.7,6.017,9.817,11.35,12.35c6.633,3.167,13.9,2.35,21.8-2.45c2.567-1.6,6.05-4.15,10.45-7.65
				c5.233-4.2,8.883-7.017,10.95-8.45c18-12.633,33.483-16.45,46.45-11.45c2.7,1.066,5.05,2.417,7.05,4.05
				c1.767,1.467,3.383,3.267,4.85,5.4c5.033,6.067,8.783,11.25,11.25,15.55c1.7,2.9,2.733,5.933,3.1,9.1
				c0.1,2.867,0.167,4.566,0.2,5.1C179.65-15.033,179.65-14.45,179.55-13.95z"/>
		</defs>
		<clipPath id="SVGID_2_">
			<use xlink:href="#SVGID_1_"  style="overflow:visible;"/>
		</clipPath>
		<g id="Layer_3_1_" style="clip-path:url(#SVGID_2_);">
			
				<use xlink:href="#flash0.ai_x2F_Layer_3_x2F__x3C_Group_x3E_"  width="159.4" height="97.207" y="-97.2" transform="matrix(1 0 0 1 7.25 -0.9502)" style="overflow:visible;opacity:0.3516;enable-background:new    ;"/>
		</g>
	</g>
	<g id="Layer_4_1_">
	</g>
</symbol>
<symbol  id="flash0.ai_x2F_Layer_3_x2F__x3C_Group_x3E_" viewBox="0 -97.2 159.4 97.207">
	<g id="Layer_1_20_">
		<g>
			
				<use xlink:href="#flash0.ai_x2F_Layer_3_x2F__x3C_Group_x3E__x5F_16"  width="84.1" height="47.951" y="-47.95" transform="matrix(1 0 0 1 4 -5.8999)" style="overflow:visible;opacity:0.6484;enable-background:new    ;"/>
			
				<use xlink:href="#flash0.ai_x2F_Layer_3_x2F__x3C_Group_x3E__x5F_15"  width="66.8" height="20.673" y="-20.65" transform="matrix(1 0 0 1 14.3501 -3.5498)" style="overflow:visible;opacity:0.6484;enable-background:new    ;"/>
			
				<use xlink:href="#flash0.ai_x2F_Layer_3_x2F__x3C_Group_x3E__x5F_14"  width="28.75" height="3.207" y="-3.2" transform="matrix(1 0 0 1 38.7998 0)" style="overflow:visible;opacity:0.6484;enable-background:new    ;"/>
			
				<use xlink:href="#flash0.ai_x2F_Layer_3_x2F__x3C_Group_x3E__x5F_13"  width="100.8" height="55.096" y="-55.05" transform="matrix(1 0 0 1 2.6499 -12.3999)" style="overflow:visible;opacity:0.6484;enable-background:new    ;"/>
			
				<use xlink:href="#flash0.ai_x2F_Layer_3_x2F__x3C_Group_x3E__x5F_12"  width="23.088" height="34.677" y="-34.7" transform="matrix(1 0 0 1 2.75 -26.5498)" style="overflow:visible;opacity:0.6484;enable-background:new    ;"/>
			
				<use xlink:href="#flash0.ai_x2F_Layer_3_x2F__x3C_Group_x3E__x5F_11"  width="28.25" height="40.9" y="-40.9" transform="matrix(1 0 0 1 90.25 -13.8999)" style="overflow:visible;opacity:0.6484;enable-background:new    ;"/>
			
				<use xlink:href="#flash0.ai_x2F_Layer_3_x2F__x3C_Group_x3E__x5F_10"  width="24.2" height="35" y="-35" transform="matrix(1 0 0 1 99.2002 -21.7002)" style="overflow:visible;opacity:0.6484;enable-background:new    ;"/>
			
				<use xlink:href="#flash0.ai_x2F_Layer_3_x2F__x3C_Group_x3E__x5F_9"  width="22" height="26.75" y="-26.75" transform="matrix(1 0 0 1 108.2998 -31.5)" style="overflow:visible;opacity:0.6484;enable-background:new    ;"/>
			
				<use xlink:href="#flash0.ai_x2F_Layer_3_x2F__x3C_Group_x3E__x5F_8"  width="36.55" height="19.5" y="-19.5" transform="matrix(1 0 0 1 115 -35.5)" style="overflow:visible;opacity:0.6484;enable-background:new    ;"/>
			
				<use xlink:href="#flash0.ai_x2F_Layer_3_x2F__x3C_Group_x3E__x5F_7"  width="36.6" height="9.8" y="-9.8" transform="matrix(1 0 0 1 122.2002 -41.2002)" style="overflow:visible;opacity:0.6484;enable-background:new    ;"/>
			
				<use xlink:href="#flash0.ai_x2F_Layer_3_x2F__x3C_Group_x3E__x5F_6"  width="24.65" height="3.3" y="-3.3" transform="matrix(1 0 0 1 134.75 -43)" style="overflow:visible;opacity:0.6484;enable-background:new    ;"/>
			
				<use xlink:href="#flash0.ai_x2F_Layer_3_x2F__x3C_Group_x3E__x5F_5"  width="45.5" height="56.65" y="-56.65" transform="matrix(1 0 0 1 0.9502 -34.2002)" style="overflow:visible;opacity:0.6484;enable-background:new    ;"/>
			
				<use xlink:href="#flash0.ai_x2F_Layer_3_x2F__x3C_Group_x3E__x5F_4"  width="36.5" height="17.228" y="-17.25" transform="matrix(1 0 0 1 52 -17.3999)" style="overflow:visible;opacity:0.6484;enable-background:new    ;"/>
			
				<use xlink:href="#flash0.ai_x2F_Layer_3_x2F__x3C_Group_x3E__x5F_3"  width="36.95" height="34.826" y="-34.85" transform="matrix(1 0 0 1 6.6001 -56.3999)" style="overflow:visible;opacity:0.6484;enable-background:new    ;"/>
			
				<use xlink:href="#flash0.ai_x2F_Layer_3_x2F__x3C_Group_x3E__x5F_2"  width="51.656" height="60.973" y="-60.95" transform="matrix(1 0 0 1 0 -24.6001)" style="overflow:visible;opacity:0.6484;enable-background:new    ;"/>
			
				<use xlink:href="#flash0.ai_x2F_Layer_3_x2F__x3C_Group_x3E__x5F_1"  width="36.65" height="18.05" y="-18.05" transform="matrix(1 0 0 1 9.0498 -77.7998)" style="overflow:visible;opacity:0.6484;enable-background:new    ;"/>
			
				<use xlink:href="#flash0.ai_x2F_Layer_3_x2F__x3C_Group_x3E__x5F_0"  width="19.864" height="9.455" y="-9.45" transform="matrix(1 0 0 1 17.3999 -87.75)" style="overflow:visible;opacity:0.6484;enable-background:new    ;"/>
		</g>
	</g>
</symbol>
<symbol  id="flash0.ai_x2F_Layer_3_x2F__x3C_Group_x3E__x5F_0" viewBox="0 -9.45 19.864 9.455">
	<g id="Layer_1_19_">
		<g>
			<path style="fill-rule:evenodd;clip-rule:evenodd;fill:#5C5A98;" d="M14.7-0.9c-1.733-0.633-3.517-1.617-5.35-2.95L6.1-6.25
				C4.467-7.483,3.333-8.267,2.7-8.6C1.767-9.133,0.867-9.417,0-9.45v0.25c0.833,0.034,1.7,0.3,2.6,0.8
				c0.633,0.367,1.75,1.15,3.35,2.35L9.2-3.6c1.966,1.4,3.8,2.4,5.5,3c1.966,0.733,3.383,0.8,4.25,0.2
				c0.966-0.667,1.167-2.033,0.6-4.1l-0.3,0.1c0.567,1.933,0.417,3.183-0.45,3.75C18-0.083,16.633-0.167,14.7-0.9z"/>
		</g>
	</g>
</symbol>
<symbol  id="flash0.ai_x2F_Layer_3_x2F__x3C_Group_x3E__x5F_1" viewBox="0 -18.05 36.65 18.05">
	<g id="Layer_1_18_">
		<g>
			<path style="fill-rule:evenodd;clip-rule:evenodd;fill:#5C5A98;" d="M31.45-6.5c-0.767,0.167-1.8,0.567-3.1,1.2
				c-2.167,1.033-4.817,0.6-7.95-1.3c-2.267-1.333-4.967-3.566-8.1-6.7c-1.8-1.833-3.5-3.133-5.1-3.9
				c-1.233-0.566-2.534-0.85-3.9-0.85L0-17.8v0.55l1.35-0.1c1.833-0.2,3.316-0.133,4.45,0.2c1.867,0.566,3.917,1.967,6.15,4.2
				c3.2,3.2,5.966,5.5,8.3,6.9C23.517-4.117,26.3-3.7,28.6-4.8c1.267-0.6,2.217-0.983,2.85-1.15c0.833-0.2,1.5-0.167,2,0.1
				c1.1,0.567,1.983,2.517,2.65,5.85l0.55-0.15c-0.7-3.5-1.683-5.55-2.95-6.15C33.1-6.6,32.35-6.667,31.45-6.5z"/>
		</g>
	</g>
</symbol>
<symbol  id="flash0.ai_x2F_Layer_3_x2F__x3C_Group_x3E__x5F_10" viewBox="0 -35 24.2 35">
	<g id="Layer_1_9_">
		<g>
			<path style="fill-rule:evenodd;clip-rule:evenodd;fill:#5C5A98;" d="M4.2-12.75c-1,4.033-1.7,6.717-2.1,8.05
				C1.333-2.267,0.633-0.767,0-0.2L0.2,0c0.667-0.567,1.383-2.083,2.15-4.55c0.4-1.367,1.1-4.067,2.1-8.1v-0.1
				c1.267-5.167,3.233-9.5,5.9-13c3.533-4.6,8.15-7.583,13.85-8.95L24.15-35c-6.133,1.467-11.033,4.817-14.7,10.05
				C7.117-21.583,5.367-17.533,4.2-12.8V-12.75z"/>
		</g>
	</g>
</symbol>
<symbol  id="flash0.ai_x2F_Layer_3_x2F__x3C_Group_x3E__x5F_11" viewBox="0 -40.9 28.25 40.9">
	<g id="Layer_1_8_">
		<g>
			<path style="fill-rule:evenodd;clip-rule:evenodd;fill:#5C5A98;" d="M4.45-6.85C2.85-4.117,1.367-1.95,0-0.35L0.45,0
				c1.4-1.667,2.883-3.85,4.45-6.55c2.267-3.867,3.983-7.667,5.15-11.4c1.667-5.333,3.633-9.667,5.9-13
				c3.3-4.833,7.4-7.966,12.3-9.4L28.1-40.9c-5.033,1.5-9.217,4.7-12.55,9.6c-2.3,3.333-4.3,7.733-6,13.2
				C8.383-14.4,6.683-10.65,4.45-6.85z"/>
		</g>
	</g>
</symbol>
<symbol  id="flash0.ai_x2F_Layer_3_x2F__x3C_Group_x3E__x5F_12" viewBox="0 -34.7 23.088 34.677">
	<g id="Layer_1_7_">
		<g>
			<path style="fill-rule:evenodd;clip-rule:evenodd;fill:#5C5A98;" d="M22.45-7.15c-0.967-3.267-2.733-5.983-5.3-8.15
				c-2.467-2.1-5.667-5.45-9.6-10.05c-3.833-4.5-6.2-7.617-7.1-9.35L0-34.45c0.867,1.767,3.217,4.9,7.05,9.4
				c3.967,4.633,7.217,8.017,9.75,10.15c2.467,2.1,4.184,4.7,5.15,7.8c0.8,2.7,0.833,4.684,0.1,5.95c-0.333,0.533-0.767,0.7-1.3,0.5
				c-1.467-0.567-3.1-2.117-4.9-4.65c-1.8-2.567-3.617-5.867-5.45-9.9c-2.233-5-5.3-10.233-9.2-15.7l-0.45,0.35
				c0.633,0.733,1.817,2.483,3.55,5.25c2.3,3.7,4.167,7.133,5.6,10.3c3.934,8.7,7.483,13.65,10.65,14.85
				c0.833,0.3,1.483,0.066,1.95-0.7C23.3-2.217,23.283-4.317,22.45-7.15z"/>
		</g>
	</g>
</symbol>
<symbol  id="flash0.ai_x2F_Layer_3_x2F__x3C_Group_x3E__x5F_13" viewBox="0 -55.05 100.8 55.096">
	<g id="Layer_1_6_">
		<g>
			<path style="fill-rule:evenodd;clip-rule:evenodd;fill:#5C5A98;" d="M87.65-18.55c-3.633,4.767-6.4,8.167-8.3,10.2
				c-3.2,3.4-6.217,5.65-9.05,6.75c-5.566,2.167-11.283,1.733-17.15-1.3C47.317-5.933,42-11.25,37.2-18.85
				c-2.7-4.233-5.767-7.667-9.2-10.3c-2.1-1.567-5.2-3.35-9.3-5.35c-2.267-1.1-3.95-1.967-5.05-2.6
				c-6.133-3.5-10.6-9.483-13.4-17.95L0-54.95c2.767,8.5,7.267,14.534,13.5,18.1c1.5,0.833,3.2,1.7,5.1,2.6
				c4.133,2.033,7.217,3.817,9.25,5.35c3.433,2.6,6.483,6,9.15,10.2C41.833-11,47.2-5.617,53.1-2.55c5.867,3,11.633,3.4,17.3,1.2
				c2.867-1.133,5.9-3.4,9.1-6.8c1.933-2.033,4.717-5.434,8.35-10.2c2.767-3.633,4.867-6.283,6.3-7.95c2.4-2.8,4.617-4.967,6.65-6.5
				l-0.2-0.25c-2.033,1.566-4.25,3.75-6.65,6.55C92.517-24.833,90.417-22.183,87.65-18.55z"/>
		</g>
	</g>
</symbol>
<symbol  id="flash0.ai_x2F_Layer_3_x2F__x3C_Group_x3E__x5F_14" viewBox="0 -3.2 28.75 3.207">
	<g id="Layer_1_5_">
		<g>
			<path style="fill-rule:evenodd;clip-rule:evenodd;fill:#5C5A98;" d="M28.75-0.3c-1.4,0.1-4.383-0.333-8.95-1.3
				c-4.733-1.066-8.1-1.6-10.1-1.6C8-3.2,5.983-2.967,3.65-2.5C2.017-2.133,0.833-2.083,0.1-2.35L0-2.1
				c0.5,0.2,1.067,0.283,1.7,0.25C2.067-1.883,2.733-2,3.7-2.2c2.333-0.466,4.333-0.7,6-0.7c1.8,0,5.15,0.517,10.05,1.55
				c4.6,0.967,7.6,1.417,9,1.35V-0.3z"/>
		</g>
	</g>
</symbol>
<symbol  id="flash0.ai_x2F_Layer_3_x2F__x3C_Group_x3E__x5F_15" viewBox="0 -20.65 66.8 20.673">
	<g id="Layer_1_4_">
		<g>
			<path style="fill-rule:evenodd;clip-rule:evenodd;fill:#5C5A98;" d="M50.85-0.5c-5.1-0.667-9.667-2.4-13.7-5.2
				c-5.667-3.867-9.033-5.367-10.1-4.5C26.617-9.833,26.6-9.1,27-8c0.467,1.167,0.383,2.067-0.25,2.7
				c-0.733,0.667-1.95,0.883-3.65,0.65c-1.733-0.2-3.684-0.817-5.85-1.85c-3-1.467-6.433-3.9-10.3-7.3
				c-3.233-2.833-5.467-5.117-6.7-6.85L0-20.5c1.3,1.733,3.55,4.033,6.75,6.9c3.9,3.434,7.367,5.883,10.4,7.35
				c2.2,1.033,4.184,1.667,5.95,1.9c1.8,0.2,3.066-0.05,3.8-0.75c0.767-0.7,0.883-1.7,0.35-3c-0.367-0.933-0.383-1.55-0.05-1.85
				c0.466-0.367,1.566-0.167,3.3,0.6c1.733,0.8,3.9,2.1,6.5,3.9c4.067,2.8,8.667,4.534,13.8,5.2c5.8,0.767,11.133-0.083,16-2.55
				l-0.15-0.25C61.85-0.617,56.583,0.233,50.85-0.5z"/>
		</g>
	</g>
</symbol>
<symbol  id="flash0.ai_x2F_Layer_3_x2F__x3C_Group_x3E__x5F_16" viewBox="0 -47.95 84.1 47.951">
	<g id="Layer_1_3_">
		<g>
			<path style="fill-rule:evenodd;clip-rule:evenodd;fill:#5C5A98;" d="M83.75-5.8c-1.6,1.233-3.783,2.333-6.55,3.3
				c-5.5,2-11.217,2.467-17.15,1.4c-5.1-0.9-9.966-3.417-14.6-7.55c-2.733-2.467-6.317-6.567-10.75-12.3
				c-2.233-2.833-3.784-4.767-4.65-5.8c-2.066-2.433-3.617-3.35-4.65-2.75c-1.1,0.633-1.367,2.883-0.8,6.75
				c0.467,3.4,1.333,6.817,2.6,10.25c0.733,1.867,0.85,2.983,0.35,3.35c-0.667,0.4-2.316-0.45-4.95-2.55
				c-2.633-2.1-5.417-4.783-8.35-8.05c-3-3.4-6.183-9.1-9.55-17.1c-1.667-4-3.05-7.7-4.15-11.1L0-47.8c1.1,3.433,2.5,7.167,4.2,11.2
				c3.4,8.033,6.617,13.767,9.65,17.2c2.7,3.033,5.316,5.6,7.85,7.7c3.133,2.6,5.167,3.6,6.1,3c0.767-0.433,0.75-1.767-0.05-4
				c-1.3-3.4-2.183-6.8-2.65-10.2c-0.5-3.567-0.3-5.617,0.6-6.15c0.733-0.467,2.05,0.417,3.95,2.65c1.4,1.7,2.934,3.633,4.6,5.8
				c4.533,5.8,8.167,9.934,10.9,12.4c4.667,4.167,9.6,6.717,14.8,7.65c6.066,1.066,11.9,0.583,17.5-1.45c2.8-1,5.017-2.133,6.65-3.4
				L83.75-5.8z"/>
		</g>
	</g>
</symbol>
<symbol  id="flash0.ai_x2F_Layer_3_x2F__x3C_Group_x3E__x5F_2" viewBox="0 -60.95 51.656 60.973">
	<g id="Layer_1_17_">
		<g>
			<path style="fill-rule:evenodd;clip-rule:evenodd;fill:#5C5A98;" d="M50.75-0.4C50.217-0.1,49.433-0.3,48.4-1
				c-1.133-0.767-2.267-1.983-3.4-3.65L42.1-9.1c-2-3.2-3.567-5.5-4.7-6.9c-1.967-2.367-4.05-4.1-6.25-5.2
				c-1.833-0.9-3.183-1.566-4.05-2c-3-1.4-5.167-2.533-6.5-3.4c-2.2-1.433-4-3.183-5.4-5.25c-0.967-1.433-1.75-3.4-2.35-5.9
				c-0.333-1.433-0.717-3.75-1.15-6.95c-0.567-4.733-1.284-7.983-2.15-9.75c-0.933-1.867-2.117-3.267-3.55-4.2
				c-0.833-0.567-2.083-1.083-3.75-1.55c-1.267-0.433-1.983-0.683-2.15-0.75L0-60.7c0.6,0.267,1.317,0.517,2.15,0.75
				c1.667,0.467,2.917,0.967,3.75,1.5c1.333,0.9,2.467,2.284,3.4,4.15c0.534,1.066,0.983,2.5,1.35,4.3c0.2,1.033,0.467,2.8,0.8,5.3
				c0.4,3.167,0.783,5.517,1.15,7.05c0.566,2.5,1.367,4.483,2.4,5.95c1.433,2.067,3.233,3.833,5.4,5.3
				c1.367,0.9,3.567,2.05,6.6,3.45c0.867,0.434,2.217,1.1,4.05,2c2.167,1.1,4.2,2.8,6.1,5.1c1.133,1.367,2.717,3.667,4.75,6.9
				c1.167,1.934,2.133,3.434,2.9,4.5c1.133,1.633,2.267,2.85,3.4,3.65c1.1,0.8,1.983,1.017,2.65,0.65
				c1.167-0.633,1.066-2.55-0.3-5.75L50.3-5.8c0.6,1.4,0.934,2.6,1,3.6C51.4-1.267,51.217-0.667,50.75-0.4z"/>
		</g>
	</g>
</symbol>
<symbol  id="flash0.ai_x2F_Layer_3_x2F__x3C_Group_x3E__x5F_3" viewBox="0 -34.85 36.95 34.826">
	<g id="Layer_1_16_">
		<g>
			<path style="fill-rule:evenodd;clip-rule:evenodd;fill:#5C5A98;" d="M36.95-9.9c-0.7-2.934-1.9-5.517-3.6-7.75
				c-1.5-1.967-3.1-3.35-4.8-4.15c-1.533-0.667-2.85-0.717-3.95-0.15c-0.533,0.3-0.867,0.7-1,1.2c-0.167,0.7,0.083,1.65,0.75,2.85
				c0.367,0.7,1.15,1.917,2.35,3.65c1.6,2.167,2.667,3.883,3.2,5.15c0.7,1.633,1.1,3.217,1.2,4.75c0.133,1.667-0.15,2.833-0.85,3.5
				c-0.833,0.8-2.233,0.75-4.2-0.15c-2.333-1.1-4.367-3.033-6.1-5.8c-1.034-1.633-2.4-4.467-4.1-8.5
				c-1.267-2.967-2.083-4.8-2.45-5.5c-1.633-3.367-4.017-6.55-7.15-9.55c-2.6-2.467-4.65-3.967-6.15-4.5L0-34.55
				c1.433,0.466,3.45,1.95,6.05,4.45c3.133,3,5.5,6.15,7.1,9.45c0.6,1.167,1.4,2.983,2.4,5.45c1.733,4.067,3.117,6.934,4.15,8.6
				c1.767,2.8,3.833,4.75,6.2,5.85c2.1,0.933,3.617,0.967,4.55,0.1c0.767-0.733,1.083-1.983,0.95-3.75
				c-0.133-1.567-0.55-3.167-1.25-4.8c-0.433-1.033-1.5-2.783-3.2-5.25c-1.133-1.6-1.9-2.767-2.3-3.5
				c-0.667-1.2-0.917-2.117-0.75-2.75c0.1-0.4,0.383-0.733,0.85-1c0.967-0.533,2.2-0.483,3.7,0.15c1.667,0.767,3.233,2.117,4.7,4.05
				c1.667,2.2,2.85,4.75,3.55,7.65L36.95-9.9z"/>
		</g>
	</g>
</symbol>
<symbol  id="flash0.ai_x2F_Layer_3_x2F__x3C_Group_x3E__x5F_4" viewBox="0 -17.25 36.5 17.228">
	<g id="Layer_1_15_">
		<g>
			<path style="fill-rule:evenodd;clip-rule:evenodd;fill:#5C5A98;" d="M36.05-17.25c-5.2,6.9-9.566,11.583-13.1,14.05
				c-3.534,2.434-6.967,3.167-10.3,2.2c-2.5-0.733-4.833-2.05-7-3.95c-1.6-1.4-3.333-3.35-5.2-5.85L0-10.5
				c1.9,2.567,3.667,4.567,5.3,6c2.233,1.933,4.633,3.283,7.2,4.05c3.467,1,7,0.25,10.6-2.25c3.633-2.466,8.1-7.2,13.4-14.2
				L36.05-17.25z"/>
		</g>
	</g>
</symbol>
<symbol  id="flash0.ai_x2F_Layer_3_x2F__x3C_Group_x3E__x5F_5" viewBox="0 -56.65 45.5 56.65">
	<g id="Layer_1_14_">
		<g>
			<path style="fill-rule:evenodd;clip-rule:evenodd;fill:#5C5A98;" d="M45.5-0.2c-1.333-3.1-3.033-5.683-5.1-7.75
				c-1.333-1.367-3.8-3.316-7.4-5.85l-4.5-3.25c-3.033-2.267-5.783-5.65-8.25-10.15c-1.533-2.767-3.4-6.933-5.6-12.5l-2.45-5.9
				c-1.867-4.267-4.083-7.333-6.65-9.2c-1.7-1.233-3.417-1.85-5.15-1.85H0v0.55c1.667-0.066,3.317,0.45,4.95,1.55
				c2.6,1.767,4.85,4.816,6.75,9.15l2.45,5.9c2.267,5.7,4.15,9.9,5.65,12.6c2.5,4.566,5.284,8,8.35,10.3l4.55,3.25
				c3.566,2.533,6,4.45,7.3,5.75C42.067-5.533,43.733-3,45,0L45.5-0.2z"/>
		</g>
	</g>
</symbol>
<symbol  id="flash0.ai_x2F_Layer_3_x2F__x3C_Group_x3E__x5F_6" viewBox="0 -3.3 24.65 3.3">
	<g id="Layer_1_13_">
		<g>
			<path style="fill-rule:evenodd;clip-rule:evenodd;fill:#5C5A98;" d="M7.15-3.3c-2.2,0-4.583,0.333-7.15,1L0.05-2
				c5.067-1.367,9.833-1.317,14.3,0.15C17.983-0.617,21.417,0,24.65,0v-0.25c-3.1,0-6.517-0.617-10.25-1.85
				C12-2.9,9.583-3.3,7.15-3.3z"/>
		</g>
	</g>
</symbol>
<symbol  id="flash0.ai_x2F_Layer_3_x2F__x3C_Group_x3E__x5F_7" viewBox="0 -9.8 36.6 9.8">
	<g id="Layer_1_12_">
		<g>
			<path style="fill-rule:evenodd;clip-rule:evenodd;fill:#5C5A98;" d="M21.8-9.8C16.5-9.8,11.283-8.2,6.15-5
				C3.583-3.433,1.533-1.833,0-0.2L0.2,0c1.533-1.633,3.566-3.233,6.1-4.8c5.067-3.133,10.233-4.7,15.5-4.7
				c4.667,0,8.483,0.567,11.45,1.7c1.5,0.566,2.55,1.15,3.15,1.75l0.2-0.2c-0.633-0.633-1.7-1.25-3.2-1.85
				C30.4-9.233,26.533-9.8,21.8-9.8z"/>
		</g>
	</g>
</symbol>
<symbol  id="flash0.ai_x2F_Layer_3_x2F__x3C_Group_x3E__x5F_8" viewBox="0 -19.5 36.55 19.5">
	<g id="Layer_1_11_">
		<g>
			<path style="fill-rule:evenodd;clip-rule:evenodd;fill:#5C5A98;" d="M26.35-19.5c-2.3,0-4.6,0.333-6.9,1
				c-4.434,1.333-8.284,3.767-11.55,7.3C6.733-9.9,4.967-7.483,2.6-3.95C1.267-1.917,0.4-0.65,0-0.15L0.25,0
				c0.567-0.767,1.433-2.033,2.6-3.8c2.1-3.267,3.867-5.667,5.3-7.2c2.567-2.867,5.684-5.033,9.35-6.5
				c5.967-2.4,12.283-2.317,18.95,0.25l0.1-0.25C33.15-18.833,29.75-19.5,26.35-19.5z"/>
		</g>
	</g>
</symbol>
<symbol  id="flash0.ai_x2F_Layer_3_x2F__x3C_Group_x3E__x5F_9" viewBox="0 -26.75 22 26.75">
	<g id="Layer_1_10_">
		<g>
			<path style="fill-rule:evenodd;clip-rule:evenodd;fill:#5C5A98;" d="M5.8-5.75c2.4-2.867,3.983-5.15,4.75-6.85
				c0.8-1.767,0.95-2.9,0.45-3.4c-0.567-0.533-1.883-0.267-3.95,0.8c-1.233,0.7-1.983,0.8-2.25,0.3c-0.233-0.367,0-1,0.7-1.9
				c0.833-1,2.117-2.083,3.85-3.25c2.4-1.567,4.467-2.767,6.2-3.6c1.1-0.567,2.567-1.184,4.4-1.85L22-26.25l-0.2-0.5L19.75-26
				c-1.833,0.667-3.317,1.283-4.45,1.85c-1.733,0.867-3.816,2.083-6.25,3.65c-1.933,1.267-3.3,2.467-4.1,3.6
				c-0.733,0.967-0.934,1.733-0.6,2.3c0.433,0.767,1.417,0.733,2.95-0.1c1.833-0.966,2.934-1.267,3.3-0.9
				c0.333,0.267,0.15,1.184-0.55,2.75c-0.767,1.667-2.333,3.917-4.7,6.75C3.25-3.567,1.467-1.683,0-0.45L0.4,0
				C1.933-1.333,3.733-3.25,5.8-5.75z"/>
		</g>
	</g>
</symbol>
<symbol  id="flash0.ai_x2F_Layer_3_x2F__x3C_Path_x3E__x5F_3" viewBox="0.017 -18.232 68.591 18.24">
	<g id="Layer_1_2_">
		<path style="fill-rule:evenodd;clip-rule:evenodd;fill:#0D5069;" d="M65.7-10.2c-0.434-0.033-1.784,0.05-4.05,0.25
			C60.117-9.817,59.567-9.9,60-10.2c0.267-0.167,1.233-0.55,2.9-1.15c0.233-0.066,0.684-0.167,1.35-0.3
			c0.6-0.167,0.967-0.383,1.1-0.65c0.367-0.6-0.717-1.083-3.25-1.45c-0.934-0.067-1.65-0.167-2.15-0.3l0.95-0.3
			c0.367-0.1,0.65-0.25,0.85-0.45c0.133-0.233-0.417-0.383-1.65-0.45c-1.434-0.067-2.35-0.1-2.75-0.1
			c-2.833,0.067-4.967,0.05-6.4-0.05c-1.067-0.067-3.184-0.667-6.35-1.8c-2.6-0.933-4.934-1.233-7-0.9c-1,0.3-0.75,0.517,0.75,0.65
			c2.167,0.2,3.4,0.483,3.7,0.85c-1.2,0.067-3.55-0.066-7.05-0.4c-2.967-0.267-5.317-0.217-7.05,0.15l-7.5,1.75
			c-0.3,0.067-2.383,0.3-6.25,0.7c-3,0.333-4.467,0.7-4.4,1.1c0.167,0.767,1.883,1.3,5.15,1.6c-1.934,0.267-3.7,0.467-5.3,0.6
			c-2.066,0.133-3.833,0.283-5.3,0.45c-1.3,0.033-2.3,0.1-3,0.2c-1.333,0.2-1.667,0.633-1,1.3c0.566,0.533,1.967,1.066,4.2,1.6
			c3.967,0.933,6.733,1.733,8.3,2.4c0.667,0.267,1.767,0.917,3.3,1.95c1.367,0.9,2.517,1.483,3.45,1.75
			c1.967,0.567,4.283,0.95,6.95,1.15c1.4,0.133,3.733,0.233,7,0.3c3.767,0.067,7.434-0.25,11-0.95c2.767-0.533,6.35-1.5,10.75-2.9
			c1-0.333,2.467-0.917,4.4-1.75c2.233-1,3.7-1.633,4.4-1.9c2.867-1.133,4.367-1.817,4.5-2.05C68.7-9.883,67.733-10.1,65.7-10.2z"/>
	</g>
</symbol>
<g>
	<g>
		<g>
			
				<radialGradient id="SVGID_3_" cx="122.4502" cy="11.8501" r="35.6375" gradientTransform="matrix(-1 0 0 -0.7338 244.9004 20.5454)" gradientUnits="userSpaceOnUse">
				<stop  offset="0" style="stop-color:#8C80B3"/>
				<stop  offset="0.1647" style="stop-color:#7463A1"/>
				<stop  offset="0.3686" style="stop-color:#5B468E"/>
				<stop  offset="0.4863" style="stop-color:#523B87"/>
				<stop  offset="1" style="stop-color:#471A54"/>
			</radialGradient>
			<path style="fill-rule:evenodd;clip-rule:evenodd;fill:url(#SVGID_3_);" d="M123.65,14.8c6.533,0,11.983,3.233,16.35,9.7
				c3.3,4.9,5.866,11.433,7.7,19.6c1.166,5.267-0.851,9.983-6.05,14.15c-4.967,4-10.851,6-17.65,6c-6.7,0-12.483-1.983-17.35-5.95
				c-5-4.1-7.1-8.833-6.3-14.2c1.333-8.667,3.517-15.35,6.55-20.05C110.9,17.883,116.483,14.8,123.65,14.8z"/>
			
				<radialGradient id="SVGID_4_" cx="61.0923" cy="133.3643" r="13.5451" gradientTransform="matrix(0.831 -0.5562 -0.4332 -0.6473 131.9554 197.1519)" gradientUnits="userSpaceOnUse">
				<stop  offset="0" style="stop-color:#9B80A7"/>
				<stop  offset="0.1647" style="stop-color:#846396"/>
				<stop  offset="0.3686" style="stop-color:#6C4684"/>
				<stop  offset="0.4863" style="stop-color:#633B7D"/>
				<stop  offset="1" style="stop-color:#471A54"/>
			</radialGradient>
			<path style="fill-rule:evenodd;clip-rule:evenodd;fill:url(#SVGID_4_);" d="M135.1,59.4c-0.166,1.3-0.633,3.317-1.399,6.05
				c-0.9,3.167-2.483,6.117-4.75,8.85c-1.934,2.367-3.217,3.467-3.851,3.3c-0.066,0,0.217-1,0.851-3
				c0.8-2.533,1.017-4.883,0.649-7.05c-0.466-2.633-1.566-5.417-3.3-8.35c-1.5-2.534-2.2-4.067-2.1-4.6
				c0.533-2.6,2.983-3.383,7.35-2.35c1.667,0.4,3.167,0.967,4.5,1.7c1.367,0.8,2.066,1.483,2.101,2.05
				C135.25,57.367,135.233,58.5,135.1,59.4z"/>
			
				<radialGradient id="SVGID_5_" cx="95.4961" cy="50.0625" r="13.5859" gradientTransform="matrix(0.9936 0.1126 0.088 -0.7766 -10.0457 88.6214)" gradientUnits="userSpaceOnUse">
				<stop  offset="0" style="stop-color:#9B80A7"/>
				<stop  offset="0.1647" style="stop-color:#846396"/>
				<stop  offset="0.3686" style="stop-color:#6C4684"/>
				<stop  offset="0.4863" style="stop-color:#633B7D"/>
				<stop  offset="1" style="stop-color:#471A54"/>
			</radialGradient>
			<path style="fill-rule:evenodd;clip-rule:evenodd;fill:url(#SVGID_5_);" d="M101.55,40.95c2.1-1.667,4.367-0.667,6.8,3
				c2.4,3.6,3.15,6,2.25,7.2c-0.833,1.1-1.583,1.95-2.25,2.55c-0.967,0.867-2.633,2.117-5,3.75c-2.767,1.867-5.883,3.133-9.35,3.8
				c-3.033,0.533-4.75,0.517-5.15-0.05c-0.033-0.034,0.85-0.6,2.65-1.7c2.233-1.4,3.917-3.067,5.05-5
				c1.333-2.267,2.417-5.133,3.25-8.6C100.533,42.967,101.117,41.317,101.55,40.95z"/>
			
				<radialGradient id="SVGID_6_" cx="34.6172" cy="159.8584" r="19.0679" gradientTransform="matrix(0.6378 -0.7702 -0.6538 -0.5414 227.6289 188.5106)" gradientUnits="userSpaceOnUse">
				<stop  offset="0" style="stop-color:#9B80A7"/>
				<stop  offset="0.1647" style="stop-color:#846396"/>
				<stop  offset="0.3686" style="stop-color:#6C4684"/>
				<stop  offset="0.4863" style="stop-color:#633B7D"/>
				<stop  offset="1" style="stop-color:#471A54"/>
			</radialGradient>
			<path style="fill-rule:evenodd;clip-rule:evenodd;fill:url(#SVGID_6_);" d="M145.2,73.25c-0.3-2.2-1.017-4.2-2.15-6
				c-1.366-2.167-3.316-4.4-5.85-6.7c-2.167-1.966-3.316-3.183-3.45-3.65c-0.566-2.267,1.134-3.217,5.1-2.85
				c3.9,0.333,6.184,1.133,6.851,2.4c0.566,1.167,0.967,2.117,1.2,2.85c0.366,1.1,0.75,2.867,1.149,5.3c0.5,2.8,0.351,5.5-0.45,8.1
				c-0.699,2.233-1.366,3.316-2,3.25C145.566,75.95,145.434,75.05,145.2,73.25z"/>
			
				<radialGradient id="SVGID_7_" cx="159.7002" cy="48.5498" r="15.2212" gradientTransform="matrix(-0.9237 0.3832 -0.3067 -0.7393 322.0998 23.2419)" gradientUnits="userSpaceOnUse">
				<stop  offset="0" style="stop-color:#9B80A7"/>
				<stop  offset="0.1647" style="stop-color:#846396"/>
				<stop  offset="0.3686" style="stop-color:#6C4684"/>
				<stop  offset="0.4863" style="stop-color:#633B7D"/>
				<stop  offset="1" style="stop-color:#471A54"/>
			</radialGradient>
			<path style="fill-rule:evenodd;clip-rule:evenodd;fill:url(#SVGID_7_);" d="M143.15,33.35c-0.2-0.533,0.316,0.167,1.55,2.1
				c0.7,1.133,1.95,3.15,3.75,6.05c1.533,2.533,3.533,4.317,6,5.35c0.666,0.3,1.75,0.617,3.25,0.95c0.967,0.233,1.399,0.467,1.3,0.7
				c-0.434,0.967-1.667,1.65-3.7,2.05c-2.166,0.467-4,0.233-5.5-0.7c-1.233-0.767-2.166-2.017-2.8-3.75
				c-0.7-1.9-1.066-2.867-1.1-2.9c-0.267-0.267-0.634-1.483-1.101-3.65C144.2,36.817,143.65,34.75,143.15,33.35z"/>
			
				<radialGradient id="SVGID_8_" cx="96.9917" cy="30.1528" r="19.2581" gradientTransform="matrix(0.9723 0.2339 0.1479 -0.6147 -11.5104 47.8521)" gradientUnits="userSpaceOnUse">
				<stop  offset="0" style="stop-color:#9B80A7"/>
				<stop  offset="0.1647" style="stop-color:#846396"/>
				<stop  offset="0.3686" style="stop-color:#6C4684"/>
				<stop  offset="0.4863" style="stop-color:#633B7D"/>
				<stop  offset="1" style="stop-color:#471A54"/>
			</radialGradient>
			<path style="fill-rule:evenodd;clip-rule:evenodd;fill:url(#SVGID_8_);" d="M103.1,35.1c-0.733,1.967-0.917,4.183-0.55,6.65
				c0.3,2.133,0.383,3.283,0.25,3.45c-0.033,0.033-0.233,1.05-0.6,3.05c-0.367,1.833-1.2,3.2-2.5,4.1
				c-1.633,1.1-3.833,1.517-6.6,1.25c-2.533-0.233-4.217-0.817-5.05-1.75c-0.2-0.2,0.284-0.467,1.45-0.8
				c1.767-0.533,3.017-0.966,3.75-1.3c1.467-0.7,2.833-1.633,4.1-2.8c1.533-1.4,2.566-2.85,3.1-4.35c0.466-1.367,1-3.1,1.6-5.2
				C102.35,36.4,102.7,35.633,103.1,35.1z"/>
			
				<radialGradient id="SVGID_9_" cx="159.9004" cy="54.8999" r="20.4" gradientTransform="matrix(-1 0 0 -0.7341 319.8008 95.2002)" gradientUnits="userSpaceOnUse">
				<stop  offset="0" style="stop-color:#9B80A7"/>
				<stop  offset="0.1647" style="stop-color:#846396"/>
				<stop  offset="0.3686" style="stop-color:#6C4684"/>
				<stop  offset="0.4863" style="stop-color:#633B7D"/>
				<stop  offset="1" style="stop-color:#471A54"/>
			</radialGradient>
			<path style="fill-rule:evenodd;clip-rule:evenodd;fill:url(#SVGID_9_);" d="M146.3,42.1c0.566,0.367,1.517,1.25,2.851,2.65
				c1.267,1.3,2.533,2.333,3.8,3.1c3.233,2.066,5.233,4.15,6,6.25c0.267,0.733,0.316,1.066,0.149,1
				c-0.267-0.267-0.483-0.467-0.649-0.6c-0.7-0.567-1.15-0.9-1.351-1c-0.833-0.5-1.8-0.8-2.899-0.9c-1.467,0.1-2.5,0.117-3.101,0.05
				c-0.966-0.066-2.017-0.7-3.149-1.9c-1.267-1.333-2.066-3.267-2.4-5.8C145.217,42.483,145.467,41.533,146.3,42.1z"/>
			
				<radialGradient id="SVGID_10_" cx="125.6504" cy="74.1499" r="14.0466" gradientTransform="matrix(-0.5233 -0.8522 0.6154 -0.3779 145.7688 209.2463)" gradientUnits="userSpaceOnUse">
				<stop  offset="0" style="stop-color:#9B80A7"/>
				<stop  offset="0.1647" style="stop-color:#846396"/>
				<stop  offset="0.3686" style="stop-color:#6C4684"/>
				<stop  offset="0.4863" style="stop-color:#633B7D"/>
				<stop  offset="1" style="stop-color:#471A54"/>
			</radialGradient>
			<path style="fill-rule:evenodd;clip-rule:evenodd;fill:url(#SVGID_10_);" d="M129.75,53.1c0,0.833-0.267,2.3-0.8,4.4
				c-0.5,2.033-0.75,3.883-0.75,5.55c0,2.2-0.233,4.184-0.7,5.95c-0.434,1.567-1,2.8-1.7,3.7c-0.566,0.7-0.85,0.95-0.85,0.75
				c0.1-0.434,0.149-0.767,0.149-1c0.134-0.934,0.184-1.567,0.15-1.9c-0.033-1.133-0.333-2.267-0.9-3.4
				c-0.966-1.4-1.6-2.417-1.899-3.05c-0.5-1-0.517-2.417-0.05-4.25c0.5-2.033,1.866-3.967,4.1-5.8
				C128.7,52.25,129.783,51.933,129.75,53.1z"/>
			
				<radialGradient id="SVGID_11_" cx="159.5498" cy="68.1499" r="23.85" gradientTransform="matrix(-1 0 0 -0.7238 319.0996 117.4764)" gradientUnits="userSpaceOnUse">
				<stop  offset="0" style="stop-color:#9B80A7"/>
				<stop  offset="0.1647" style="stop-color:#84639B"/>
				<stop  offset="0.3686" style="stop-color:#6C468F"/>
				<stop  offset="0.4863" style="stop-color:#633B8A"/>
				<stop  offset="1" style="stop-color:#471A54"/>
			</radialGradient>
			<path style="fill-rule:evenodd;clip-rule:evenodd;fill:url(#SVGID_11_);" d="M146.95,45.65c0.6,0.667,1.483,2.4,2.649,5.2
				c1.367,3.3,2.584,5.816,3.65,7.55c0.934,1.5,2.233,3.35,3.9,5.55c1,1.3,1.433,2.1,1.3,2.4c-0.3,0.633-1.55,0.583-3.75-0.15
				c-2.101-0.7-4.283-1.733-6.55-3.1c-2.634-1.633-4.667-3.5-6.101-5.6c-0.333-0.467-1.116-1.933-2.35-4.4
				c-0.7-1.367-0.117-3.417,1.75-6.15C143.384,44.15,145.217,43.717,146.95,45.65z"/>
			
				<radialGradient id="SVGID_12_" cx="80.7607" cy="85.9648" r="26.8895" gradientTransform="matrix(0.9897 -0.1434 -0.0887 -0.6122 19.9471 137.7083)" gradientUnits="userSpaceOnUse">
				<stop  offset="0" style="stop-color:#9B80A7"/>
				<stop  offset="0.1647" style="stop-color:#846396"/>
				<stop  offset="0.3686" style="stop-color:#6C4684"/>
				<stop  offset="0.4863" style="stop-color:#633B7D"/>
				<stop  offset="1" style="stop-color:#471A54"/>
			</radialGradient>
			<path style="fill-rule:evenodd;clip-rule:evenodd;fill:url(#SVGID_12_);" d="M112.3,55.95c-1,2.5-1.667,4.017-2,4.55
				c-1.333,2.267-3.35,4.383-6.05,6.35c-2.3,1.667-4.583,3-6.85,4c-2.333,1.033-3.733,1.283-4.2,0.75
				c-0.2-0.233,0.183-1.067,1.15-2.5c1.533-2.333,2.717-4.317,3.55-5.95c0.967-1.833,1.983-4.417,3.05-7.75
				c0.933-2.867,1.683-4.667,2.25-5.4c1.633-2.1,3.733-1.967,6.3,0.4C111.967,52.7,112.9,54.55,112.3,55.95z"/>
			
				<radialGradient id="SVGID_13_" cx="159.3496" cy="57.25" r="17.7625" gradientTransform="matrix(-1 0 0 -0.7333 318.6992 99.2307)" gradientUnits="userSpaceOnUse">
				<stop  offset="0" style="stop-color:#9B80A7"/>
				<stop  offset="0.1647" style="stop-color:#846396"/>
				<stop  offset="0.3686" style="stop-color:#6C4684"/>
				<stop  offset="0.4863" style="stop-color:#633B7D"/>
				<stop  offset="1" style="stop-color:#471A54"/>
			</radialGradient>
			<path style="fill-rule:evenodd;clip-rule:evenodd;fill:url(#SVGID_13_);" d="M142.5,31.6c2.167,2,4.066,5.583,5.7,10.75
				c0.633,2.033,1.467,3.783,2.5,5.25c0.633,0.933,1.8,2.483,3.5,4.65c0.7,0.967,1.717,2.083,3.05,3.35
				c0.934,0.867,1.333,1.417,1.2,1.65c-0.367,0.667-1.934,0.717-4.7,0.15c-3.066-0.667-5.366-1.933-6.9-3.8
				c-1.399-1.733-2.517-3.65-3.35-5.75c-0.667-2-1.116-3.25-1.35-3.75c-0.101-0.267,0.1-0.667,0.6-1.2
				c0.733-0.8,1.233-1.45,1.5-1.95C145.45,38.683,144.866,35.567,142.5,31.6z"/>
			
				<radialGradient id="SVGID_14_" cx="16.8804" cy="156.8438" r="19.2689" gradientTransform="matrix(0.5526 -0.8335 -0.5193 -0.3443 212.1715 140.6699)" gradientUnits="userSpaceOnUse">
				<stop  offset="0" style="stop-color:#9B80A7"/>
				<stop  offset="0.1647" style="stop-color:#846396"/>
				<stop  offset="0.3686" style="stop-color:#6C4684"/>
				<stop  offset="0.4863" style="stop-color:#633B7D"/>
				<stop  offset="1" style="stop-color:#471A54"/>
			</radialGradient>
			<path style="fill-rule:evenodd;clip-rule:evenodd;fill:url(#SVGID_14_);" d="M144.65,61.95c-0.2,2.066-0.733,4.15-1.601,6.25
				c-0.866,2.033-1.7,3.233-2.5,3.6c-0.1,0.034-0.184-0.466-0.25-1.5c-0.066-1.433-0.233-2.683-0.5-3.75
				c-0.8-3.2-2.233-6.216-4.3-9.05c-1.4-1.933-2.217-3.083-2.45-3.45c-0.267-0.5-0.434-1.133-0.5-1.9c-0.2-1.9,1.316-2.75,4.55-2.55
				c3.233,0.233,5.25,1.517,6.051,3.85c0.133,0.4,0.5,1.35,1.1,2.85C144.717,58,144.85,59.883,144.65,61.95z"/>
			
				<radialGradient id="SVGID_15_" cx="123.0996" cy="79.0996" r="22.3345" gradientTransform="matrix(-0.638 -0.77 0.4861 -0.4028 163.1935 205.7453)" gradientUnits="userSpaceOnUse">
				<stop  offset="0" style="stop-color:#9B80A7"/>
				<stop  offset="0.1647" style="stop-color:#84639B"/>
				<stop  offset="0.3686" style="stop-color:#6C468F"/>
				<stop  offset="0.4863" style="stop-color:#633B8A"/>
				<stop  offset="1" style="stop-color:#471A54"/>
			</radialGradient>
			<path style="fill-rule:evenodd;clip-rule:evenodd;fill:url(#SVGID_15_);" d="M117.25,57.4c0.667-2.833,2.866-4.6,6.6-5.3
				c1.5-0.267,2.784-0.2,3.851,0.2c1.166,0.434,1.75,1.15,1.75,2.15c0,0.9-0.134,1.65-0.4,2.25c-0.2,0.433-1.017,1.883-2.45,4.35
				c-2.1,3.6-3.399,7.284-3.899,11.05c-0.167,1.267-0.233,2.75-0.2,4.45c0.033,1.167,0,1.733-0.1,1.7
				c-0.934-0.267-2.034-1.533-3.301-3.8c-1.267-2.3-2.133-4.65-2.6-7.05c-0.467-2.367-0.533-4.566-0.2-6.6
				C116.833,59,117.15,57.867,117.25,57.4z"/>
			
				<radialGradient id="SVGID_16_" cx="152.25" cy="41.5" r="7.8011" gradientTransform="matrix(-0.5166 0.8563 -0.9527 -0.5748 270.4335 -65.0124)" gradientUnits="userSpaceOnUse">
				<stop  offset="0" style="stop-color:#9B80A7"/>
				<stop  offset="0.1647" style="stop-color:#84639B"/>
				<stop  offset="0.3686" style="stop-color:#6C468F"/>
				<stop  offset="0.4863" style="stop-color:#633B8A"/>
				<stop  offset="1" style="stop-color:#471A54"/>
			</radialGradient>
			<path style="fill-rule:evenodd;clip-rule:evenodd;fill:url(#SVGID_16_);" d="M144.05,37.75c0.167-1.333,0.684-1.9,1.55-1.7
				c0.434,0.733,0.9,1.583,1.4,2.55c0.5,0.667,1.267,1.316,2.3,1.95c0.367,0.233,0.834,0.45,1.4,0.65
				c0.399,0.167,0.583,0.283,0.55,0.35c-0.033,0.067-0.417,0.167-1.15,0.3c-0.8,0.133-1.466,0.15-2,0.05
				c-1.8-0.3-3.066-0.867-3.8-1.7C144,39.8,143.917,38.983,144.05,37.75z"/>
			
				<radialGradient id="SVGID_17_" cx="137.5996" cy="77.5" r="16.4275" gradientTransform="matrix(-0.9983 0.0582 -0.0567 -0.9732 279.3622 144.9196)" gradientUnits="userSpaceOnUse">
				<stop  offset="0" style="stop-color:#9B80A7"/>
				<stop  offset="0.1647" style="stop-color:#84639B"/>
				<stop  offset="0.3686" style="stop-color:#6C468F"/>
				<stop  offset="0.4863" style="stop-color:#633B8A"/>
				<stop  offset="1" style="stop-color:#471A54"/>
			</radialGradient>
			<path style="fill-rule:evenodd;clip-rule:evenodd;fill:url(#SVGID_17_);" d="M138.35,57.65c0.733,1.934,1.167,4.217,1.301,6.85
				c0.166,3.433-0.284,6.817-1.351,10.15c-0.233,0.867-0.416,1.417-0.55,1.65c-0.2,0.4-0.5,0.617-0.9,0.65
				c-0.166,0-0.683-0.867-1.55-2.6c-0.899-1.8-1.684-3.567-2.35-5.3c-0.834-2.133-1.517-4.333-2.05-6.6
				c-0.5-2.034-0.851-3.267-1.051-3.7c-0.233-0.467-0.05-1.133,0.551-2c0.6-0.833,1.35-1.5,2.25-2
				C135.15,53.483,137.05,54.45,138.35,57.65z"/>
			
				<radialGradient id="SVGID_18_" cx="146.5" cy="61.6499" r="11.9884" gradientTransform="matrix(-0.9634 0.2682 -0.3135 -1.1262 306.9622 91.7839)" gradientUnits="userSpaceOnUse">
				<stop  offset="0" style="stop-color:#9B80A7"/>
				<stop  offset="0.1647" style="stop-color:#84639B"/>
				<stop  offset="0.3686" style="stop-color:#6C468F"/>
				<stop  offset="0.4863" style="stop-color:#633B8A"/>
				<stop  offset="1" style="stop-color:#471A54"/>
			</radialGradient>
			<path style="fill-rule:evenodd;clip-rule:evenodd;fill:url(#SVGID_18_);" d="M143.3,47.3c0.434,0.534,0.7,1.583,0.8,3.15
				c0.167,2.233,0.534,4.35,1.101,6.35c0.133,0.434,0.434,1.25,0.899,2.45c0.233,0.533,0.233,0.75,0,0.65
				c-2.133-0.967-4.1-2.5-5.899-4.6c-1.3-1.533-2.167-2.783-2.601-3.75c-0.267-0.9-0.5-1.6-0.699-2.1
				c-0.334-0.934,0.283-1.967,1.85-3.1C140.384,45.183,141.9,45.5,143.3,47.3z"/>
			
				<radialGradient id="SVGID_19_" cx="134.6504" cy="66.8999" r="16.1252" gradientTransform="matrix(-0.6925 -0.7214 0.5407 -0.519 191.721 198.7622)" gradientUnits="userSpaceOnUse">
				<stop  offset="0" style="stop-color:#9B80A7"/>
				<stop  offset="0.1647" style="stop-color:#846396"/>
				<stop  offset="0.3686" style="stop-color:#6C4684"/>
				<stop  offset="0.4863" style="stop-color:#633B7D"/>
				<stop  offset="1" style="stop-color:#471A54"/>
			</radialGradient>
			<path style="fill-rule:evenodd;clip-rule:evenodd;fill:url(#SVGID_19_);" d="M135.2,47.9c0.633,0.533,1.083,1.184,1.35,1.95
				c0.233,0.667,0.267,1.383,0.101,2.15c-0.034,0.167-0.233,0.867-0.601,2.1c-0.267,0.867-0.5,1.917-0.7,3.15
				c-0.133,0.7-0.3,1.75-0.5,3.15c-0.199,1.033-0.3,2.383-0.3,4.05c0,1.1-0.116,1.683-0.35,1.75c-0.566,0.133-1.584-0.817-3.05-2.85
				c-1.601-2.2-2.65-4.4-3.15-6.6c-0.267-1.167-0.4-1.983-0.4-2.45c-0.033-0.533,0.067-1.183,0.301-1.95
				c0.1-0.367,0.666-1.033,1.699-2c1.101-1.033,1.717-1.667,1.851-1.9c0.467-0.767,1.066-1.167,1.8-1.2
				C133.884,47.183,134.533,47.4,135.2,47.9z"/>
			
				<radialGradient id="SVGID_20_" cx="103.7998" cy="73.75" r="15.4115" gradientTransform="matrix(-0.813 -0.5822 0.6108 -0.853 143.1423 197.0916)" gradientUnits="userSpaceOnUse">
				<stop  offset="0" style="stop-color:#9B80A7"/>
				<stop  offset="0.1647" style="stop-color:#846396"/>
				<stop  offset="0.3686" style="stop-color:#6C4684"/>
				<stop  offset="0.4863" style="stop-color:#633B7D"/>
				<stop  offset="1" style="stop-color:#471A54"/>
			</radialGradient>
			<path style="fill-rule:evenodd;clip-rule:evenodd;fill:url(#SVGID_20_);" d="M115.5,59.45c-0.9,2.667-1.75,4.65-2.55,5.95
				c-1.733,2.833-4.184,5.067-7.35,6.7c-0.533,0.3-1.067,0.5-1.6,0.6c-0.433,0.1-0.7,0.1-0.8,0c-0.034-0.067,0.216-0.7,0.75-1.9
				c0.767-1.633,1.367-3.066,1.8-4.3c1.367-4.067,2.5-7.717,3.4-10.95c0.1-0.466,0.6-0.85,1.5-1.15c0.9-0.267,1.8-0.333,2.7-0.2
				C115.783,54.667,116.5,56.417,115.5,59.45z"/>
			
				<radialGradient id="SVGID_21_" cx="93.4502" cy="59.6001" r="12.7747" gradientTransform="matrix(0.1759 -0.9844 1.497 0.2675 -12.2105 135.651)" gradientUnits="userSpaceOnUse">
				<stop  offset="0" style="stop-color:#9B80A7"/>
				<stop  offset="0.1647" style="stop-color:#846396"/>
				<stop  offset="0.3686" style="stop-color:#6C4684"/>
				<stop  offset="0.4863" style="stop-color:#633B7D"/>
				<stop  offset="1" style="stop-color:#471A54"/>
			</radialGradient>
			<path style="fill-rule:evenodd;clip-rule:evenodd;fill:url(#SVGID_21_);" d="M110,46.9c2.3,1.833,2.783,3.3,1.45,4.4
				c-0.534,0.434-1.05,0.717-1.55,0.85c-0.333,0.1-1.617,0.333-3.85,0.7c-3.167,0.533-6.033,1.566-8.6,3.1
				c-0.867,0.533-1.784,1.216-2.75,2.05c-0.667,0.6-1.017,0.867-1.05,0.8c-0.333-0.7-0.133-1.966,0.6-3.8
				c0.7-1.833,1.65-3.483,2.85-4.95c1.167-1.433,2.45-2.533,3.85-3.3c0.733-0.433,1.566-0.817,2.5-1.15
				C105.517,44.633,107.7,45.067,110,46.9z"/>
			
				<radialGradient id="SVGID_22_" cx="93.2603" cy="71.9102" r="16.4721" gradientTransform="matrix(0.9964 -0.0852 -0.053 -0.6192 9.938 116.1784)" gradientUnits="userSpaceOnUse">
				<stop  offset="0" style="stop-color:#9B80A7"/>
				<stop  offset="0.1647" style="stop-color:#84639B"/>
				<stop  offset="0.3686" style="stop-color:#6C468F"/>
				<stop  offset="0.4863" style="stop-color:#633B8A"/>
				<stop  offset="1" style="stop-color:#471A54"/>
			</radialGradient>
			<path style="fill-rule:evenodd;clip-rule:evenodd;fill:url(#SVGID_22_);" d="M107.8,49.2c0.167-0.467,0.483-0.934,0.95-1.4
				c1.2-1.133,2.567-0.566,4.1,1.7c1.6,2.267,1.816,4.3,0.65,6.1c-0.4,0.833-0.833,1.583-1.3,2.25c-0.9,1.233-2.083,2.316-3.55,3.25
				c-1.5,0.967-3.183,1.717-5.05,2.25c-1.833,0.5-3.083,0.583-3.75,0.25c-0.067-0.033,0.233-0.35,0.9-0.95
				c0.9-0.8,1.633-1.583,2.2-2.35c1.733-2.233,3-4.783,3.8-7.65C107.283,50.683,107.633,49.533,107.8,49.2z"/>
			
				<radialGradient id="SVGID_23_" cx="137.4004" cy="65.75" r="9.9791" gradientTransform="matrix(-0.9983 0.0578 -0.0962 -1.6622 280.8961 167.1042)" gradientUnits="userSpaceOnUse">
				<stop  offset="0" style="stop-color:#9B80A7"/>
				<stop  offset="0.1647" style="stop-color:#84639B"/>
				<stop  offset="0.3686" style="stop-color:#6C468F"/>
				<stop  offset="0.4863" style="stop-color:#633B8A"/>
				<stop  offset="1" style="stop-color:#471A54"/>
			</radialGradient>
			<path style="fill-rule:evenodd;clip-rule:evenodd;fill:url(#SVGID_23_);" d="M136.4,48.4c0.333,0.7,0.483,1.483,0.449,2.35
				c0,0.8-0.149,2.517-0.449,5.15c-0.034,0.5-0.067,1.05-0.101,1.65c0,0.4-0.1,0.6-0.3,0.6c-0.1,0-0.55-0.467-1.35-1.4
				c-0.867-1.067-1.5-1.95-1.9-2.65c-1.467-2.567-2-4.4-1.6-5.5c0.233-0.767,0.933-1.35,2.1-1.75
				C134.65,46.383,135.7,46.9,136.4,48.4z"/>
			
				<radialGradient id="SVGID_24_" cx="153.5498" cy="55.9502" r="9.977" gradientTransform="matrix(-0.8591 0.5118 -0.8521 -1.4302 333.1372 57.3771)" gradientUnits="userSpaceOnUse">
				<stop  offset="0" style="stop-color:#9B80A7"/>
				<stop  offset="0.1647" style="stop-color:#84639B"/>
				<stop  offset="0.3686" style="stop-color:#6C468F"/>
				<stop  offset="0.4863" style="stop-color:#633B8A"/>
				<stop  offset="1" style="stop-color:#471A54"/>
			</radialGradient>
			<path style="fill-rule:evenodd;clip-rule:evenodd;fill:url(#SVGID_24_);" d="M144.65,41.05c0.6,0.467,1.1,1.083,1.5,1.85
				c0.399,0.767,1.066,2.367,2,4.8c0.166,0.466,0.383,0.966,0.649,1.5c0.167,0.367,0.167,0.6,0,0.7c-0.1,0.067-0.717-0.15-1.85-0.65
				c-1.233-0.5-2.217-0.983-2.95-1.45c-2.366-1.566-3.684-2.95-3.95-4.15c-0.133-0.8,0.233-1.65,1.101-2.55
				C142.15,40.067,143.316,40.05,144.65,41.05z"/>
			
				<radialGradient id="SVGID_25_" cx="114.438" cy="26.3569" r="11.1353" gradientTransform="matrix(0.9472 0.3206 0.4784 -1.4136 -21.0579 62.2249)" gradientUnits="userSpaceOnUse">
				<stop  offset="0" style="stop-color:#9B80A7"/>
				<stop  offset="0.1647" style="stop-color:#84639B"/>
				<stop  offset="0.3686" style="stop-color:#6C468F"/>
				<stop  offset="0.4863" style="stop-color:#633B8A"/>
				<stop  offset="1" style="stop-color:#471A54"/>
			</radialGradient>
			<path style="fill-rule:evenodd;clip-rule:evenodd;fill:url(#SVGID_25_);" d="M105.5,45.25c1.167-1.233,2.417-1.417,3.75-0.55
				c1.167,0.7,1.783,1.466,1.85,2.3c0.066,1.233-0.983,2.833-3.15,4.8c-0.633,0.6-1.534,1.267-2.7,2c-1.1,0.7-1.717,1.034-1.85,1
				c-0.2-0.066-0.267-0.3-0.2-0.7c0.167-0.6,0.283-1.133,0.35-1.6c0.367-2.667,0.65-4.383,0.85-5.15
				C104.633,46.483,105,45.783,105.5,45.25z"/>
			
				<radialGradient id="SVGID_26_" cx="96.3843" cy="-31.3818" r="11.0482" gradientTransform="matrix(0.666 0.746 1.2224 -1.0914 61.7722 -55.1488)" gradientUnits="userSpaceOnUse">
				<stop  offset="0" style="stop-color:#9B80A7"/>
				<stop  offset="0.1647" style="stop-color:#84639B"/>
				<stop  offset="0.3686" style="stop-color:#6C468F"/>
				<stop  offset="0.4863" style="stop-color:#633B8A"/>
				<stop  offset="1" style="stop-color:#471A54"/>
			</radialGradient>
			<path style="fill-rule:evenodd;clip-rule:evenodd;fill:url(#SVGID_26_);" d="M95.8,46.85c0.8-0.467,1.35-0.833,1.65-1.1
				c1.933-1.567,3.15-3.367,3.65-5.4c0.433-1.733,0.733-2.633,0.9-2.7c1.067-0.433,1.733,0.517,2,2.85
				c0.267,2.133,0.233,3.517-0.1,4.15c-0.667,1.333-2.1,2.3-4.3,2.9c-0.667,0.167-1.567,0.217-2.7,0.15
				c-1-0.067-1.55-0.15-1.65-0.25C95.15,47.35,95.333,47.15,95.8,46.85z"/>
			
				<radialGradient id="SVGID_27_" cx="41.9727" cy="129.6572" r="14.5073" gradientTransform="matrix(0.7611 -0.6487 -0.4682 -0.5493 144.8115 169.8993)" gradientUnits="userSpaceOnUse">
				<stop  offset="0" style="stop-color:#9B80A7"/>
				<stop  offset="0.1647" style="stop-color:#846396"/>
				<stop  offset="0.3686" style="stop-color:#6C4684"/>
				<stop  offset="0.4863" style="stop-color:#633B7D"/>
				<stop  offset="1" style="stop-color:#471A54"/>
			</radialGradient>
			<path style="fill-rule:evenodd;clip-rule:evenodd;fill:url(#SVGID_27_);" d="M120.85,62.6c-0.767,0.8-1.316,1.65-1.649,2.55
				c-0.167,0.5-0.3,1.033-0.4,1.6c-0.033,0.2-0.066,0.5-0.1,0.9c-0.066,0.167-0.233-0.117-0.5-0.85c-0.334-0.9-0.467-2.066-0.4-3.5
				c0.066-1.6,0.4-3.283,1-5.05c0.434-1.4,0.717-3,0.851-4.8c0.133-1.867,0.3-3.133,0.5-3.8c0.267-0.967,1.083-0.417,2.449,1.65
				c1.367,2.067,1.983,4.017,1.851,5.85c-0.134,1.633-0.533,2.8-1.2,3.5C122.283,61.317,121.483,61.967,120.85,62.6z"/>
			
				<radialGradient id="SVGID_28_" cx="106.144" cy="77.8379" r="17.1888" gradientTransform="matrix(0.9934 -0.1151 -0.0987 -0.8516 16.6444 143.6067)" gradientUnits="userSpaceOnUse">
				<stop  offset="0" style="stop-color:#9B80A7"/>
				<stop  offset="0.1647" style="stop-color:#84639B"/>
				<stop  offset="0.3686" style="stop-color:#6C468F"/>
				<stop  offset="0.4863" style="stop-color:#633B8A"/>
				<stop  offset="1" style="stop-color:#471A54"/>
			</radialGradient>
			<path style="fill-rule:evenodd;clip-rule:evenodd;fill:url(#SVGID_28_);" d="M117.2,47c2.633,0.367,3.95,1.083,3.95,2.15
				c0,0.533,0.033,1.3,0.1,2.3c-0.1,1.1-0.634,2.683-1.6,4.75c-1.367,2.867-3.217,5.216-5.55,7.05c-0.267,0.2-0.383-0.017-0.35-0.65
				c0-1.434-0.017-2.35-0.05-2.75c-0.2-2.2-0.75-4.4-1.65-6.6c-0.633-1.533-0.8-2.65-0.5-3.35C112.517,47.533,114.4,46.567,117.2,47
				z"/>
			
				<radialGradient id="SVGID_29_" cx="85.7959" cy="107.6348" r="18.9888" gradientTransform="matrix(0.9167 -0.3995 -0.332 -0.7618 78.7284 180.6735)" gradientUnits="userSpaceOnUse">
				<stop  offset="0" style="stop-color:#9B80A7"/>
				<stop  offset="0.1647" style="stop-color:#846396"/>
				<stop  offset="0.3686" style="stop-color:#6C4684"/>
				<stop  offset="0.4863" style="stop-color:#633B7D"/>
				<stop  offset="1" style="stop-color:#471A54"/>
			</radialGradient>
			<path style="fill-rule:evenodd;clip-rule:evenodd;fill:url(#SVGID_29_);" d="M125.85,43.85c2.667,0.8,4,1.883,4,3.25
				c-0.033,1.3-0.116,2.316-0.25,3.05c-0.199,1.133-0.666,2.85-1.399,5.15c-0.834,2.667-2.2,4.95-4.101,6.85
				c-1.6,1.633-2.666,2.3-3.199,2c-0.034-0.033,0.25-0.867,0.85-2.5c0.733-2.066,1.017-4.15,0.85-6.25c-0.199-2.4-0.6-4.6-1.199-6.6
				c-0.4-1.367-0.534-2.316-0.4-2.85C121.533,43.717,123.15,43.017,125.85,43.85z"/>
			
				<radialGradient id="SVGID_30_" cx="114.8501" cy="63.3999" r="8.3642" gradientTransform="matrix(-0.9487 -0.316 0.5681 -1.7056 187.7944 207.8305)" gradientUnits="userSpaceOnUse">
				<stop  offset="0" style="stop-color:#9B80A7"/>
				<stop  offset="0.1647" style="stop-color:#84639B"/>
				<stop  offset="0.3686" style="stop-color:#6C468F"/>
				<stop  offset="0.4863" style="stop-color:#633B8A"/>
				<stop  offset="1" style="stop-color:#471A54"/>
			</radialGradient>
			<path style="fill-rule:evenodd;clip-rule:evenodd;fill:url(#SVGID_30_);" d="M119.85,48.5c0.034,0.7-0.1,1.417-0.399,2.15
				c-0.267,0.7-0.967,2.1-2.101,4.2c-0.3,0.7-0.5,1.15-0.6,1.35c-0.167,0.333-0.317,0.466-0.45,0.4c-0.1-0.033-0.3-0.567-0.6-1.6
				c-0.3-1.133-0.5-2.083-0.6-2.85c-0.267-2.5-0.067-4.217,0.6-5.15c0.433-0.567,1.183-0.833,2.25-0.8
				C119.15,46.267,119.783,47.033,119.85,48.5z"/>
			
				<radialGradient id="SVGID_31_" cx="140.4004" cy="50.3999" r="6.9968" gradientTransform="matrix(-0.9825 0.1862 -0.3227 -1.7027 294.6083 110.0733)" gradientUnits="userSpaceOnUse">
				<stop  offset="0" style="stop-color:#9B80A7"/>
				<stop  offset="0.1647" style="stop-color:#84639B"/>
				<stop  offset="0.3686" style="stop-color:#6C468F"/>
				<stop  offset="0.4863" style="stop-color:#633B8A"/>
				<stop  offset="1" style="stop-color:#471A54;stop-opacity:0"/>
			</radialGradient>
			<path style="fill-rule:evenodd;clip-rule:evenodd;fill:url(#SVGID_31_);" d="M139.1,40.6c0.067,0.566,0.134,1.816,0.2,3.75
				c0,0.367,0.033,0.767,0.101,1.2c0,0.3-0.067,0.467-0.2,0.5c-0.066,0-0.417-0.316-1.05-0.95c-0.7-0.667-1.233-1.25-1.601-1.75
				c-1.2-1.667-1.733-2.95-1.6-3.85c0.066-0.567,0.5-1.033,1.3-1.4c0.9-0.467,1.667-0.184,2.3,0.85
				C138.85,39.417,139.033,39.967,139.1,40.6z"/>
			
				<radialGradient id="SVGID_32_" cx="111.7876" cy="-0.7026" r="8.2804" gradientTransform="matrix(0.8858 0.464 0.7855 -1.4995 0.8781 -1.6757)" gradientUnits="userSpaceOnUse">
				<stop  offset="0" style="stop-color:#9B80A7"/>
				<stop  offset="0.1647" style="stop-color:#84639B"/>
				<stop  offset="0.3686" style="stop-color:#6C468F"/>
				<stop  offset="0.4863" style="stop-color:#633B8A"/>
				<stop  offset="1" style="stop-color:#471A54;stop-opacity:0"/>
			</radialGradient>
			<path style="fill-rule:evenodd;clip-rule:evenodd;fill:url(#SVGID_32_);" d="M108.2,39.05c0.767,0.733,1.083,1.417,0.95,2.05
				c-0.066,1-1.1,2.233-3.1,3.7c-0.566,0.434-1.35,0.9-2.35,1.4c-0.934,0.466-1.45,0.683-1.55,0.65
				c-0.133-0.067-0.15-0.267-0.05-0.6c0.233-0.467,0.417-0.9,0.55-1.3c0.633-2.067,1.117-3.434,1.45-4.1
				c0.3-0.667,0.683-1.217,1.15-1.65C106.317,38.3,107.3,38.25,108.2,39.05z"/>
			
				<radialGradient id="SVGID_33_" cx="107.6001" cy="55.6499" r="6.3841" gradientTransform="matrix(-0.7471 -0.6647 0.919 -1.033 136.8503 184.6547)" gradientUnits="userSpaceOnUse">
				<stop  offset="0" style="stop-color:#9B80A7"/>
				<stop  offset="0.1647" style="stop-color:#84639B"/>
				<stop  offset="0.3686" style="stop-color:#6C468F"/>
				<stop  offset="0.4863" style="stop-color:#633B8A"/>
				<stop  offset="1" style="stop-color:#471A54"/>
			</radialGradient>
			<path style="fill-rule:evenodd;clip-rule:evenodd;fill:url(#SVGID_33_);" d="M114,48.7c-0.1,0.267-0.417,0.533-0.95,0.8
				c-0.7,0.367-1.316,0.85-1.85,1.45c-0.233,0.233-0.467,0.6-0.7,1.1c-0.167,0.3-0.3,0.417-0.4,0.35
				c-0.067-0.066-0.167-0.45-0.3-1.15c-0.133-0.833-0.15-1.483-0.05-1.95c0.333-1.533,0.95-2.483,1.85-2.85
				c0.367-0.167,0.9-0.034,1.6,0.4C113.967,47.35,114.233,47.967,114,48.7z"/>
			
				<radialGradient id="SVGID_34_" cx="133.7002" cy="54.3501" r="6.3946" gradientTransform="matrix(-0.997 -0.078 0.1077 -1.3761 261.1379 139.5779)" gradientUnits="userSpaceOnUse">
				<stop  offset="0" style="stop-color:#9B80A7"/>
				<stop  offset="0.1647" style="stop-color:#84639B"/>
				<stop  offset="0.3686" style="stop-color:#6C468F"/>
				<stop  offset="0.4863" style="stop-color:#633B8A"/>
				<stop  offset="1" style="stop-color:#471A54"/>
			</radialGradient>
			<path style="fill-rule:evenodd;clip-rule:evenodd;fill:url(#SVGID_34_);" d="M134.55,44.95c0.101,0.267,0.017,0.667-0.25,1.2
				c-0.333,0.7-0.533,1.45-0.6,2.25c-0.033,0.333,0,0.767,0.1,1.3c0.033,0.367,0,0.55-0.1,0.55c-1.101-0.867-1.8-1.617-2.101-2.25
				c-0.666-1.4-0.767-2.533-0.3-3.4c0.167-0.367,0.667-0.583,1.5-0.65C133.733,43.883,134.316,44.217,134.55,44.95z"/>
		</g>
		<g>
			
				<use xlink:href="#flash0.ai_x2F_Layer_3_x2F__x3C_Path_x3E__x5F_3"  width="68.591" height="18.24" x="0.017" y="-18.232" transform="matrix(1 0 0 -1 0 135.2002)" style="overflow:visible;opacity:0.4688;enable-background:new    ;"/>
			
				<linearGradient id="SVGID_35_" gradientUnits="userSpaceOnUse" x1="16.1006" y1="-157.7061" x2="103.3478" y2="-157.7061" gradientTransform="matrix(-0.316 0.9488 -0.9488 -0.316 -6.106198e-004 8.723140e-005)">
				<stop  offset="0" style="stop-color:#242224"/>
				<stop  offset="0.2392" style="stop-color:#27252E"/>
				<stop  offset="0.6392" style="stop-color:#302E49"/>
				<stop  offset="1" style="stop-color:#3A3866"/>
			</linearGradient>
			<path style="fill-rule:evenodd;clip-rule:evenodd;fill:url(#SVGID_35_);" d="M153.05,66.7c0.267,1.1,0.316,2.816,0.15,5.15
				c-0.167,2.4-0.533,4.967-1.101,7.7c-1,4.867-2.483,8.75-4.449,11.65c-1.4,2.1-3.417,3.717-6.051,4.85
				c-3.866,1.601-7.649,2.117-11.35,1.55l-4.4-1.3l-2.5-5.8c2.167,1.366,4.233,2.283,6.2,2.75c2.267,0.533,4.617,0.5,7.05-0.1
				c2.334-1,3.75-2.551,4.25-4.65c0.4-1.667,0.25-3.434-0.449-5.3c-0.5-1.434-1.5-3.283-3-5.55c-2.167-3.367-3.65-5.95-4.45-7.75
				c-0.8-1.7-1.2-3.183-1.2-4.45l0.15-0.15c0.133,0.034,0.316,0.467,0.55,1.3c0.833,3.066,2.434,6,4.8,8.8
				c5.533,6.667,7.717,11.767,6.55,15.3c1.7-1.367,2.8-3.117,3.3-5.25c0.867-3.767,0.9-7.75,0.101-11.95
				c-1.066-4.033-1.7-6.65-1.9-7.85l0.851,1.2c0.767,1.467,1.6,3.95,2.5,7.45c0.699,2.7,1.05,5.25,1.05,7.65
				c0.467-1.033,1-2.7,1.6-5c0.733-3,1.15-5.383,1.25-7.15c0.101-1.3,0.017-2.75-0.25-4.35l0.2-0.2
				C152.667,65.317,152.85,65.8,153.05,66.7z"/>
			
				<linearGradient id="SVGID_36_" gradientUnits="userSpaceOnUse" x1="1.668" y1="-119.2422" x2="96.7136" y2="-119.2422" gradientTransform="matrix(-0.4714 0.8819 -0.8819 -0.4714 -1.016259e-004 1.504421e-004)">
				<stop  offset="0" style="stop-color:#242224"/>
				<stop  offset="0.2392" style="stop-color:#27252E"/>
				<stop  offset="0.6392" style="stop-color:#302E49"/>
				<stop  offset="1" style="stop-color:#3A3866"/>
			</linearGradient>
			<path style="fill-rule:evenodd;clip-rule:evenodd;fill:url(#SVGID_36_);" d="M120.4,71.5c0.666-2.933,0.983-5.383,0.949-7.35
				l1.051-0.4l-0.15,5.15c-0.667,4.767-2.467,10.517-5.4,17.25c-3.4,7.866-7.567,12.183-12.5,12.949
				c-4.733,0.733-9.4-1.833-14-7.699c-4.7-6-8.567-9.917-11.6-11.75c-3.967-2.4-8.433-2.767-13.4-1.101l6.8-2.95
				c4.7-1.9,7.55-2.717,8.55-2.45c1.433,0.434,3.083,1.55,4.95,3.35c2.3,2.233,4.333,5.05,6.1,8.45
				c2.767,5.267,5.65,8.566,8.65,9.899c3.333,1.5,6.7,0.517,10.1-2.949c0.9-0.9,1.833-2.051,2.8-3.45
				c0.9-2.733,1.45-6.101,1.65-10.101c0.167-2.7,0.15-6.1-0.05-10.2l-0.4-5.35l1.2-0.75c0.1,0.267,0.183,0.883,0.25,1.85
				c0.133,2.033,0.25,3.567,0.35,4.6c0.133,1.3,0.35,3.333,0.65,6.1c0.166,2.5,0.066,4.983-0.3,7.45
				C118.283,78.75,119.533,75.233,120.4,71.5z"/>
			
				<linearGradient id="SVGID_37_" gradientUnits="userSpaceOnUse" x1="-29.9922" y1="-130.4922" x2="71.6783" y2="-130.4922" gradientTransform="matrix(-0.5267 0.8501 -0.8501 -0.5267 3.225207e-004 5.769730e-005)">
				<stop  offset="0" style="stop-color:#242224"/>
				<stop  offset="0.2392" style="stop-color:#27252E"/>
				<stop  offset="0.6392" style="stop-color:#302E49"/>
				<stop  offset="1" style="stop-color:#3A3866"/>
			</linearGradient>
			<path style="fill-rule:evenodd;clip-rule:evenodd;fill:url(#SVGID_37_);" d="M183.55,66.75l0.15,0.55c0.1,0.5,0.1,1.083,0,1.75
				c-0.033,0.534-0.101,2.233-0.2,5.1c-0.366,3.167-1.4,6.2-3.1,9.1c-2.467,4.3-6.217,9.483-11.25,15.55
				c-1.467,2.134-3.084,3.934-4.851,5.4c-2,1.633-4.35,2.983-7.05,4.05c-12.967,5-28.45,1.184-46.45-11.45
				c-2.066-1.434-5.716-4.25-10.95-8.45c-4.4-3.5-7.883-6.05-10.45-7.649c-7.9-4.8-15.167-5.617-21.8-2.45
				c-5.333,2.533-9.117,6.65-11.35,12.35c-2.433,6.267-3.417,15.384-2.95,27.351c0.233,6.133,0.817,10.899,1.75,14.3
				c1.633,5.833,4.417,9.467,8.35,10.9c0.7,0.666-0.733,0.783-4.3,0.35c-3.8-0.467-5.45-0.217-4.95,0.75
				c0.167,0.134,1.383,0.6,3.65,1.4c1.633,0.566,2.017,0.983,1.15,1.25c-5.667-0.101-9.883-0.15-12.65-0.15
				c3.367,0.134,5.983,0.517,7.85,1.15c0.667,0.333-0.017,0.517-2.05,0.55c-2.6,0.033-4.3,0.066-5.1,0.1
				c-0.067,0-2.45,0.267-7.15,0.8c-3.434,0.367-7,0.517-10.7,0.45c-1.767-0.033-3.9-0.316-6.4-0.85
				c-2.567-0.566-4.667-0.884-6.3-0.95c-1.034-0.5-0.184-0.983,2.55-1.45c3.7-0.566,5.95-1.149,6.75-1.75
				c0.167-0.166-0.517-0.2-2.05-0.1c-2.567,0.2-5.217,0.066-7.95-0.4c-3.267-0.533-6.967-0.616-11.1-0.25
				c-0.867,0.101-0.717-0.217,0.45-0.95c0.433-0.267,1.066-0.483,1.9-0.649c1.3-0.3,1.967-0.45,2-0.45c2.2-0.667,3.583-1.333,4.15-2
				c0.533-0.634,0.833-1.55,0.9-2.75c0.034-1.366,0.067-2.35,0.1-2.95l0.45-6.2c0.566-7.699,0.983-12.767,1.25-15.199
				c0.633-5.7,1.533-10.684,2.7-14.95c2.833-10.634,6.983-19.367,12.45-26.2c5.4-6.7,12.2-11.7,20.4-15
				c8.633-3.5,17.117-4.317,25.45-2.45c7.267,1.633,14.066,5.2,20.4,10.7c3.7,3.233,9.517,9.067,17.45,17.5
				c7.833,7.566,15.55,12.95,23.149,16.15c8,3.366,15.084,3.583,21.25,0.649c4.801-2.3,8.134-5.767,10-10.399
				c1.467-3.733,2.15-7.334,2.051-10.801c-0.034-1.167-0.367-3.466-1-6.899c-0.367-2-0.4-2.833-0.101-2.5c0.3,0.4,0.867,2.066,1.7,5
				c0.4,1.433,0.7,2.9,0.9,4.399c0.3-1.466,0.649-2.75,1.05-3.85c0.467-1.2,0.8-2.65,1-4.35l0.149-2.25h0.65l0.05,2.35
				c-0.066,1.933-0.383,3.767-0.95,5.5c-0.233,0.7-0.75,2.967-1.55,6.8c0.101,2.5-0.05,4.884-0.45,7.15
				c0.134-0.167,1.75-1.983,4.851-5.45c1.566-1.733,2.783-4.066,3.649-7c0.801-2.8,1.167-5.667,1.101-8.6
				c-0.033-2.3,0.184-3.267,0.649-2.9C183.083,65.7,183.316,66.117,183.55,66.75z"/>
			
				<use xlink:href="#flash0.ai_x2F_Layer_3_x2F__x3C_Clip_Group_0_x3E_"  width="179.679" height="98.174" x="-0.054" y="-98.15" transform="matrix(1 0 0 -1 4.1499 53.3501)" style="overflow:visible;"/>
		</g>
		<g>
			
				<radialGradient id="SVGID_38_" cx="182.2998" cy="-3.7998" r="47.75" gradientTransform="matrix(1 0 0 -0.7351 0 -6.593)" gradientUnits="userSpaceOnUse">
				<stop  offset="0" style="stop-color:#8C80B3"/>
				<stop  offset="0.1647" style="stop-color:#7463A1"/>
				<stop  offset="0.3686" style="stop-color:#5B468E"/>
				<stop  offset="0.4863" style="stop-color:#523B87"/>
				<stop  offset="1" style="stop-color:#471A54"/>
			</radialGradient>
			<path style="fill-rule:evenodd;clip-rule:evenodd;fill:url(#SVGID_38_);" d="M215.6,36c1.134,8.133-1.866,15.017-9,20.65
				c-6.866,5.434-15.399,8.15-25.6,8.15c-10.366,0-19.3-2.716-26.8-8.15C146.233,50.917,142.833,44.033,144,36
				c1.434-10.2,5.417-18.717,11.95-25.55C162.684,3.35,170.5-0.133,179.4,0C189.3,0.133,197.6,3.833,204.3,11.1
				C210.467,17.733,214.233,26.033,215.6,36z"/>
			
				<radialGradient id="SVGID_39_" cx="178.4004" cy="85.6504" r="20.517" gradientTransform="matrix(-0.8311 -0.5562 0.4338 -0.6482 289.503 240.3955)" gradientUnits="userSpaceOnUse">
				<stop  offset="0" style="stop-color:#9B80A7"/>
				<stop  offset="0.1647" style="stop-color:#846396"/>
				<stop  offset="0.3686" style="stop-color:#6C4684"/>
				<stop  offset="0.4863" style="stop-color:#633B7D"/>
				<stop  offset="1" style="stop-color:#471A54"/>
			</radialGradient>
			<path style="fill-rule:evenodd;clip-rule:evenodd;fill:url(#SVGID_39_);" d="M163,59.2c-0.167-1.4-0.184-3.117-0.05-5.15
				c0.066-0.9,1.116-1.933,3.149-3.1c2-1.133,4.267-2,6.801-2.6c6.633-1.567,10.333-0.383,11.1,3.55c0.167,0.833-0.884,3.167-3.15,7
				c-2.6,4.5-4.25,8.717-4.949,12.65c-0.567,3.3-0.25,6.851,0.949,10.65c0.967,3.066,1.417,4.6,1.351,4.6
				c-1,0.267-2.967-1.383-5.9-4.95c-3.434-4.166-5.816-8.667-7.149-13.5C163.983,64.15,163.267,61.1,163,59.2z"/>
			
				<radialGradient id="SVGID_40_" cx="232.4004" cy="60.8999" r="20.5431" gradientTransform="matrix(-0.9936 0.1126 -0.0882 -0.7789 468.6971 82.1718)" gradientUnits="userSpaceOnUse">
				<stop  offset="0" style="stop-color:#9B80A7"/>
				<stop  offset="0.1647" style="stop-color:#846396"/>
				<stop  offset="0.3686" style="stop-color:#6C4684"/>
				<stop  offset="0.4863" style="stop-color:#633B7D"/>
				<stop  offset="1" style="stop-color:#471A54"/>
			</radialGradient>
			<path style="fill-rule:evenodd;clip-rule:evenodd;fill:url(#SVGID_40_);" d="M214.85,31.35c0.634,0.5,1.334,2.967,2.101,7.4
				c0.899,5.167,2.366,9.5,4.399,13c1.7,2.9,4.25,5.417,7.65,7.55c2.7,1.7,4.033,2.583,4,2.65c-0.6,0.833-3.184,0.833-7.75,0
				c-5.3-0.967-10.017-2.867-14.15-5.7c-3.633-2.5-6.166-4.383-7.6-5.65c-1.033-0.967-2.15-2.267-3.35-3.9
				c-0.534-0.733-0.4-2.2,0.399-4.4c0.8-2.2,1.967-4.367,3.5-6.5C208.116,30.3,211.717,28.817,214.85,31.35z"/>
			
				<radialGradient id="SVGID_41_" cx="147.75" cy="83.2998" r="28.9061" gradientTransform="matrix(-0.6379 -0.7701 0.653 -0.5409 187.6042 242.1425)" gradientUnits="userSpaceOnUse">
				<stop  offset="0" style="stop-color:#9B80A7"/>
				<stop  offset="0.1647" style="stop-color:#846396"/>
				<stop  offset="0.3686" style="stop-color:#6C4684"/>
				<stop  offset="0.4863" style="stop-color:#633B7D"/>
				<stop  offset="1" style="stop-color:#471A54"/>
			</radialGradient>
			<path style="fill-rule:evenodd;clip-rule:evenodd;fill:url(#SVGID_41_);" d="M145.15,59.1c0.333-1.133,0.949-2.583,1.85-4.35
				c0.4-0.767,1.65-1.517,3.75-2.25s4.3-1.217,6.6-1.45c6.034-0.533,8.617,0.917,7.75,4.35c-0.166,0.7-1.916,2.55-5.25,5.55
				c-3.833,3.466-6.783,6.85-8.85,10.15c-1.733,2.733-2.816,5.783-3.25,9.15c-0.366,2.667-0.583,4-0.65,4
				c-0.899,0.1-1.883-1.533-2.949-4.9c-1.233-3.933-1.483-8.016-0.75-12.25C144.033,63.433,144.616,60.767,145.15,59.1z"/>
			
				<radialGradient id="SVGID_42_" cx="132.5576" cy="-8.7974" r="23.0606" gradientTransform="matrix(0.9236 0.3834 0.3072 -0.74 6.0756 -14.6343)" gradientUnits="userSpaceOnUse">
				<stop  offset="0" style="stop-color:#9B80A7"/>
				<stop  offset="0.1647" style="stop-color:#846396"/>
				<stop  offset="0.3686" style="stop-color:#6C4684"/>
				<stop  offset="0.4863" style="stop-color:#633B7D"/>
				<stop  offset="1" style="stop-color:#471A54"/>
			</radialGradient>
			<path style="fill-rule:evenodd;clip-rule:evenodd;fill:url(#SVGID_42_);" d="M148.5,22.9c1.833-2.933,2.6-4,2.3-3.2
				c-0.733,2.1-1.55,5.233-2.45,9.4c-0.699,3.267-1.25,5.1-1.649,5.5l-1.65,4.45c-0.967,2.633-2.399,4.534-4.3,5.7
				c-2.267,1.4-5.033,1.75-8.3,1.05c-3.033-0.633-4.917-1.683-5.65-3.15c-0.166-0.333,0.5-0.683,2-1.05
				c2.334-0.533,3.983-1,4.95-1.4c1.8-0.767,3.4-1.75,4.8-2.95c1.533-1.333,2.967-3.067,4.3-5.2C144.116,30.05,146,27,148.5,22.9z"
				/>
			
				<radialGradient id="SVGID_43_" cx="235.4502" cy="47.9502" r="29.16" gradientTransform="matrix(-0.9722 0.2341 -0.1483 -0.616 471.4709 22.3754)" gradientUnits="userSpaceOnUse">
				<stop  offset="0" style="stop-color:#9B80A7"/>
				<stop  offset="0.1647" style="stop-color:#846396"/>
				<stop  offset="0.3686" style="stop-color:#6C4684"/>
				<stop  offset="0.4863" style="stop-color:#633B7D"/>
				<stop  offset="1" style="stop-color:#471A54"/>
			</radialGradient>
			<path style="fill-rule:evenodd;clip-rule:evenodd;fill:url(#SVGID_43_);" d="M211.45,22.4c1.967,4.533,3.616,8.583,4.95,12.15
				c1.633,4.267,4.949,7.617,9.949,10.05c1.101,0.5,3,1.133,5.7,1.9c1.733,0.5,2.45,0.917,2.15,1.25
				c-1.233,1.4-3.783,2.283-7.65,2.65c-4.166,0.367-7.483-0.267-9.95-1.9c-2-1.367-3.267-3.433-3.8-6.2
				c-0.566-3.066-0.866-4.617-0.899-4.65c-0.301-0.367-0.317-2.233-0.051-5.6C212.184,28.117,212.05,24.9,211.45,22.4z"/>
			
				<radialGradient id="SVGID_44_" cx="125.4502" cy="52.3501" r="30.875" gradientTransform="matrix(1 0 0 -0.7352 0 90.8391)" gradientUnits="userSpaceOnUse">
				<stop  offset="0" style="stop-color:#9B80A7"/>
				<stop  offset="0.1647" style="stop-color:#846396"/>
				<stop  offset="0.3686" style="stop-color:#6C4684"/>
				<stop  offset="0.4863" style="stop-color:#633B7D"/>
				<stop  offset="1" style="stop-color:#471A54"/>
			</radialGradient>
			<path style="fill-rule:evenodd;clip-rule:evenodd;fill:url(#SVGID_44_);" d="M146.05,33c1.3-0.867,1.7,0.567,1.2,4.3
				c-0.5,3.8-1.717,6.717-3.65,8.75c-1.733,1.8-3.333,2.784-4.8,2.95c-1.8-0.167-3.366-0.2-4.7-0.1
				c-1.666,0.167-3.133,0.617-4.399,1.35c-1.066,0.833-1.733,1.333-2,1.5c-0.566,0.533-0.917,0.85-1.05,0.95
				c-0.233,0.1-0.15-0.4,0.25-1.5c0.5-1.4,1.5-2.9,3-4.5c1.633-1.767,3.666-3.434,6.1-5c1.9-1.2,3.816-2.784,5.75-4.75
				C143.783,34.883,145.217,33.567,146.05,33z"/>
			
				<radialGradient id="SVGID_45_" cx="23.3052" cy="193.7842" r="21.3119" gradientTransform="matrix(0.5231 -0.8523 -0.6146 -0.3772 284.2658 174.4611)" gradientUnits="userSpaceOnUse">
				<stop  offset="0" style="stop-color:#9B80A7"/>
				<stop  offset="0.1647" style="stop-color:#846396"/>
				<stop  offset="0.3686" style="stop-color:#6C4684"/>
				<stop  offset="0.4863" style="stop-color:#633B7D"/>
				<stop  offset="1" style="stop-color:#471A54"/>
			</radialGradient>
			<path style="fill-rule:evenodd;clip-rule:evenodd;fill:url(#SVGID_45_);" d="M172.3,56.3c-0.767-3.2-1.166-5.417-1.2-6.65
				c-0.066-1.767,1.567-1.3,4.9,1.4c3.366,2.767,5.45,5.7,6.25,8.8c0.7,2.8,0.667,4.967-0.1,6.5c-0.467,0.933-1.434,2.45-2.9,4.55
				c-0.833,1.733-1.283,3.45-1.35,5.15c-0.034,0.934,0.033,1.9,0.199,2.9c0.034,0.366,0.134,0.883,0.301,1.55
				c-0.034,0.3-0.467-0.083-1.301-1.15c-1.066-1.333-1.916-3.216-2.55-5.649c-0.733-2.667-1.1-5.65-1.1-8.95
				C173.45,62.183,173.066,59.367,172.3,56.3z"/>
			
				<radialGradient id="SVGID_46_" cx="126" cy="72.4502" r="36.1" gradientTransform="matrix(1 0 0 -0.7251 0 124.9816)" gradientUnits="userSpaceOnUse">
				<stop  offset="0" style="stop-color:#9B80A7"/>
				<stop  offset="0.1647" style="stop-color:#84639B"/>
				<stop  offset="0.3686" style="stop-color:#6C468F"/>
				<stop  offset="0.4863" style="stop-color:#633B8A"/>
				<stop  offset="1" style="stop-color:#471A54"/>
			</radialGradient>
			<path style="fill-rule:evenodd;clip-rule:evenodd;fill:url(#SVGID_46_);" d="M145.1,38.35c2.601-2.934,5.367-2.267,8.301,2
				c1.1,1.6,1.933,3.35,2.5,5.25c0.533,1.9,0.6,3.25,0.199,4.05c-1.833,3.667-3.017,5.883-3.55,6.65c-2.233,3.2-5.333,6.034-9.3,8.5
				c-3.434,2.1-6.717,3.667-9.85,4.7c-3.334,1.1-5.233,1.167-5.7,0.2c-0.233-0.434,0.416-1.65,1.95-3.65
				c2.566-3.333,4.533-6.133,5.899-8.4c1.634-2.633,3.483-6.45,5.55-11.45C142.9,41.967,144.233,39.35,145.1,38.35z"/>
			
				<radialGradient id="SVGID_47_" cx="227.9004" cy="80.5498" r="40.6958" gradientTransform="matrix(-0.9897 -0.1434 0.0888 -0.6131 446.2925 162.6069)" gradientUnits="userSpaceOnUse">
				<stop  offset="0" style="stop-color:#9B80A7"/>
				<stop  offset="0.1647" style="stop-color:#846396"/>
				<stop  offset="0.3686" style="stop-color:#6C4684"/>
				<stop  offset="0.4863" style="stop-color:#633B7D"/>
				<stop  offset="1" style="stop-color:#471A54"/>
			</radialGradient>
			<path style="fill-rule:evenodd;clip-rule:evenodd;fill:url(#SVGID_47_);" d="M198.3,50.15c0.867-1.733,2.033-3.283,3.5-4.65
				c3.834-3.567,7-3.75,9.5-0.55c0.867,1.1,2,3.816,3.4,8.15c1.633,5.1,3.166,9.033,4.6,11.8c1.233,2.367,3.05,5.35,5.45,8.95
				c1.434,2.167,1.983,3.433,1.65,3.8c-0.667,0.833-2.784,0.466-6.351-1.101c-3.366-1.5-6.8-3.517-10.3-6.05
				c-4.1-2.967-7.167-6.167-9.2-9.6c-0.434-0.733-1.45-3.05-3.05-6.95C197.167,53.117,197.434,51.85,198.3,50.15z"/>
			
				<radialGradient id="SVGID_48_" cx="126.3496" cy="55.8999" r="26.8875" gradientTransform="matrix(1 0 0 -0.735 0 96.9867)" gradientUnits="userSpaceOnUse">
				<stop  offset="0" style="stop-color:#9B80A7"/>
				<stop  offset="0.1647" style="stop-color:#846396"/>
				<stop  offset="0.3686" style="stop-color:#6C4684"/>
				<stop  offset="0.4863" style="stop-color:#633B7D"/>
				<stop  offset="1" style="stop-color:#471A54"/>
			</radialGradient>
			<path style="fill-rule:evenodd;clip-rule:evenodd;fill:url(#SVGID_48_);" d="M151.8,17c-3.533,6.033-4.416,10.767-2.649,14.2
				c0.399,0.767,1.166,1.75,2.3,2.95c0.767,0.8,1.05,1.4,0.85,1.8c-0.333,0.767-1,2.667-2,5.7c-1.267,3.167-2.95,6.067-5.05,8.7
				c-2.333,2.867-5.8,4.783-10.4,5.75c-4.166,0.867-6.55,0.8-7.149-0.2c-0.2-0.333,0.383-1.15,1.75-2.45
				c2.066-2,3.616-3.7,4.649-5.1c1.467-1.967,3.25-4.3,5.351-7c1.533-2.233,2.783-4.9,3.75-8c1.333-4.133,2.85-7.717,4.55-10.75
				C149.116,20.133,150.467,18.267,151.8,17z"/>
			
				<radialGradient id="SVGID_49_" cx="155.5" cy="79.2002" r="29.1947" gradientTransform="matrix(-0.5526 -0.8335 0.519 -0.3441 200.3162 236.0576)" gradientUnits="userSpaceOnUse">
				<stop  offset="0" style="stop-color:#9B80A7"/>
				<stop  offset="0.1647" style="stop-color:#846396"/>
				<stop  offset="0.3686" style="stop-color:#6C4684"/>
				<stop  offset="0.4863" style="stop-color:#633B7D"/>
				<stop  offset="1" style="stop-color:#471A54"/>
			</radialGradient>
			<path style="fill-rule:evenodd;clip-rule:evenodd;fill:url(#SVGID_49_);" d="M166.9,48.2c-0.101,1.167-0.367,2.117-0.801,2.85
				c-0.3,0.567-1.533,2.333-3.699,5.3c-3.134,4.3-5.301,8.867-6.5,13.7c-0.4,1.633-0.667,3.534-0.801,5.7
				c-0.1,1.533-0.216,2.267-0.35,2.2c-1.167-0.5-2.417-2.3-3.75-5.4c-1.333-3.2-2.15-6.367-2.45-9.5c-0.3-3.1-0.083-5.95,0.65-8.55
				c0.866-2.267,1.399-3.7,1.6-4.3c1.233-3.6,4.3-5.55,9.2-5.85c2-0.133,3.65,0.133,4.95,0.8
				C166.384,45.85,167.033,46.867,166.9,48.2z"/>
			
				<radialGradient id="SVGID_50_" cx="50.0962" cy="199.6504" r="33.8499" gradientTransform="matrix(0.638 -0.77 -0.4859 -0.4026 250.7501 207.7523)" gradientUnits="userSpaceOnUse">
				<stop  offset="0" style="stop-color:#9B80A7"/>
				<stop  offset="0.1647" style="stop-color:#84639B"/>
				<stop  offset="0.3686" style="stop-color:#6C468F"/>
				<stop  offset="0.4863" style="stop-color:#633B8A"/>
				<stop  offset="1" style="stop-color:#471A54"/>
			</radialGradient>
			<path style="fill-rule:evenodd;clip-rule:evenodd;fill:url(#SVGID_50_);" d="M178.65,48.1c1.633-0.6,3.583-0.684,5.85-0.25
				c5.667,1,9.017,3.65,10.05,7.95c0.167,0.7,0.634,2.434,1.4,5.2c0.533,3.1,0.45,6.433-0.25,10c-0.733,3.633-2.066,7.184-4,10.65
				c-1.9,3.433-3.566,5.366-5,5.8c-0.167,0.066-0.217-0.8-0.15-2.601c0.101-2.533,0.017-4.767-0.25-6.699
				c-0.866-5.833-2.85-11.417-5.95-16.75c-2.133-3.7-3.366-5.9-3.699-6.6c-0.4-0.9-0.601-2.033-0.601-3.4
				C176.05,49.867,176.917,48.767,178.65,48.1z"/>
			
				<radialGradient id="SVGID_51_" cx="98.2808" cy="-100.8193" r="11.827" gradientTransform="matrix(0.5167 0.8562 0.9511 -0.574 182.21 -109.9672)" gradientUnits="userSpaceOnUse">
				<stop  offset="0" style="stop-color:#9B80A7"/>
				<stop  offset="0.1647" style="stop-color:#84639B"/>
				<stop  offset="0.3686" style="stop-color:#6C468F"/>
				<stop  offset="0.4863" style="stop-color:#633B8A"/>
				<stop  offset="1" style="stop-color:#471A54"/>
			</radialGradient>
			<path style="fill-rule:evenodd;clip-rule:evenodd;fill:url(#SVGID_51_);" d="M138.6,32.15c-0.066-0.133,0.2-0.316,0.801-0.55
				c0.899-0.367,1.616-0.7,2.149-1c1.566-0.967,2.717-1.967,3.45-3c0.467-0.667,1.167-1.934,2.1-3.8
				c1.334-0.333,2.117,0.517,2.351,2.55c0.233,1.9,0.1,3.133-0.4,3.7c-1.133,1.333-3.017,2.2-5.649,2.6
				c-0.801,0.133-1.817,0.1-3.051-0.1C139.217,32.383,138.634,32.25,138.6,32.15z"/>
			
				<radialGradient id="SVGID_52_" cx="164.0049" cy="77.2168" r="24.8541" gradientTransform="matrix(0.9983 0.058 0.0567 -0.9752 -8.8549 152.3888)" gradientUnits="userSpaceOnUse">
				<stop  offset="0" style="stop-color:#9B80A7"/>
				<stop  offset="0.1647" style="stop-color:#84639B"/>
				<stop  offset="0.3686" style="stop-color:#6C468F"/>
				<stop  offset="0.4863" style="stop-color:#633B8A"/>
				<stop  offset="1" style="stop-color:#471A54"/>
			</radialGradient>
			<path style="fill-rule:evenodd;clip-rule:evenodd;fill:url(#SVGID_52_);" d="M166.7,52.15c1.399,0.7,2.55,1.717,3.45,3.05
				c0.899,1.267,1.183,2.25,0.85,2.95c-0.333,0.733-0.866,2.633-1.6,5.7c-0.801,3.467-1.834,6.8-3.101,10
				c-1.033,2.633-2.233,5.317-3.6,8.05c-1.334,2.6-2.117,3.899-2.351,3.899c-0.566-0.033-1-0.35-1.3-0.95
				c-0.2-0.333-0.5-1.166-0.899-2.5c-1.567-5.1-2.233-10.25-2-15.45c0.166-4.1,0.816-7.55,1.949-10.35
				C160.033,51.683,162.9,50.217,166.7,52.15z"/>
			
				<radialGradient id="SVGID_53_" cx="157.1992" cy="21.2153" r="18.1389" gradientTransform="matrix(0.9634 0.2682 0.3141 -1.1281 -12.3531 44.3724)" gradientUnits="userSpaceOnUse">
				<stop  offset="0" style="stop-color:#9B80A7"/>
				<stop  offset="0.1647" style="stop-color:#84639B"/>
				<stop  offset="0.3686" style="stop-color:#6C468F"/>
				<stop  offset="0.4863" style="stop-color:#633B8A"/>
				<stop  offset="1" style="stop-color:#471A54"/>
			</radialGradient>
			<path style="fill-rule:evenodd;clip-rule:evenodd;fill:url(#SVGID_53_);" d="M150.65,40.85c2.1-2.733,4.383-3.217,6.85-1.45
				c0.934,0.667,1.667,1.5,2.2,2.5c0.566,0.967,0.75,1.7,0.55,2.2c-0.267,0.733-0.616,1.783-1.05,3.15
				c-0.667,1.467-1.967,3.367-3.9,5.7c-2.8,3.267-5.767,5.6-8.899,7c-0.334,0.167-0.351-0.167-0.051-1
				c0.7-1.833,1.15-3.083,1.351-3.75c0.899-3.034,1.467-6.217,1.7-9.55C149.6,43.283,150.017,41.683,150.65,40.85z"/>
			
				<radialGradient id="SVGID_54_" cx="62.4268" cy="166.9668" r="24.4446" gradientTransform="matrix(0.6923 -0.7216 -0.5405 -0.5186 210.7209 202.1788)" gradientUnits="userSpaceOnUse">
				<stop  offset="0" style="stop-color:#9B80A7"/>
				<stop  offset="0.1647" style="stop-color:#846396"/>
				<stop  offset="0.3686" style="stop-color:#6C4684"/>
				<stop  offset="0.4863" style="stop-color:#633B7D"/>
				<stop  offset="1" style="stop-color:#471A54"/>
			</radialGradient>
			<path style="fill-rule:evenodd;clip-rule:evenodd;fill:url(#SVGID_54_);" d="M162.9,41.75c0.966-0.767,1.933-1.117,2.899-1.05
				c1.134,0.1,2.05,0.733,2.75,1.9c0.2,0.333,1.15,1.3,2.851,2.9c1.533,1.467,2.366,2.483,2.5,3.05c0.333,1.133,0.483,2.1,0.449,2.9
				c0,0.7-0.199,1.933-0.6,3.7c-0.767,3.333-2.35,6.684-4.75,10.05c-2.2,3.066-3.733,4.517-4.6,4.35c-0.334-0.1-0.517-1-0.551-2.7
				c-0.033-2.567-0.183-4.617-0.449-6.15c-0.334-2.133-0.584-3.733-0.75-4.8c-0.301-1.867-0.65-3.433-1.051-4.7
				c-0.566-1.9-0.866-2.983-0.899-3.25c-0.233-1.133-0.184-2.217,0.149-3.25C161.217,43.533,161.9,42.55,162.9,41.75z"/>
			
				<radialGradient id="SVGID_55_" cx="123.9307" cy="188.3701" r="23.3556" gradientTransform="matrix(0.8129 -0.5824 -0.6116 -0.8537 224.9203 313.9427)" gradientUnits="userSpaceOnUse">
				<stop  offset="0" style="stop-color:#9B80A7"/>
				<stop  offset="0.1647" style="stop-color:#846396"/>
				<stop  offset="0.3686" style="stop-color:#6C4684"/>
				<stop  offset="0.4863" style="stop-color:#633B7D"/>
				<stop  offset="1" style="stop-color:#471A54"/>
			</radialGradient>
			<path style="fill-rule:evenodd;clip-rule:evenodd;fill:url(#SVGID_55_);" d="M192.7,59.25c-1.533-4.6-0.45-7.233,3.25-7.9
				c1.333-0.267,2.684-0.167,4.05,0.3c1.366,0.434,2.134,1,2.3,1.7c1.334,4.867,3.05,10.4,5.15,16.6
				c0.666,1.933,1.566,4.117,2.7,6.55c0.833,1.833,1.216,2.783,1.149,2.85c-0.133,0.134-0.55,0.134-1.25,0
				c-0.767-0.166-1.566-0.466-2.399-0.899c-4.801-2.5-8.5-5.9-11.101-10.2C195.384,66.383,194.1,63.383,192.7,59.25z"/>
			
				<radialGradient id="SVGID_56_" cx="-98.3838" cy="212.0361" r="19.3655" gradientTransform="matrix(-0.1761 -0.9844 -1.4943 0.2674 525.5577 -94.0362)" gradientUnits="userSpaceOnUse">
				<stop  offset="0" style="stop-color:#9B80A7"/>
				<stop  offset="0.1647" style="stop-color:#846396"/>
				<stop  offset="0.3686" style="stop-color:#6C4684"/>
				<stop  offset="0.4863" style="stop-color:#633B7D"/>
				<stop  offset="1" style="stop-color:#471A54"/>
			</radialGradient>
			<path style="fill-rule:evenodd;clip-rule:evenodd;fill:url(#SVGID_56_);" d="M210.9,38.3c0.533,0.233,1.816,0.8,3.85,1.7
				c2.1,1.167,4.033,2.833,5.8,5c1.8,2.167,3.25,4.683,4.351,7.55c1.066,2.767,1.366,4.667,0.899,5.7
				c-0.066,0.133-0.616-0.25-1.649-1.15c-1.467-1.333-2.851-2.383-4.15-3.15c-3.767-2.3-8.1-3.867-13-4.7
				c-3.4-0.567-5.333-0.917-5.8-1.05c-0.8-0.2-1.584-0.633-2.351-1.3c-0.899-0.767-1.116-1.8-0.649-3.1
				c0.467-1.233,1.416-2.417,2.85-3.55C204.517,37.45,207.8,36.8,210.9,38.3z"/>
			
				<radialGradient id="SVGID_57_" cx="217.5498" cy="65.6499" r="24.9158" gradientTransform="matrix(-0.9964 -0.0853 0.0532 -0.6206 430.8168 124.9559)" gradientUnits="userSpaceOnUse">
				<stop  offset="0" style="stop-color:#9B80A7"/>
				<stop  offset="0.1647" style="stop-color:#84639B"/>
				<stop  offset="0.3686" style="stop-color:#6C468F"/>
				<stop  offset="0.4863" style="stop-color:#633B8A"/>
				<stop  offset="1" style="stop-color:#471A54"/>
			</radialGradient>
			<path style="fill-rule:evenodd;clip-rule:evenodd;fill:url(#SVGID_57_);" d="M205.95,48.95c1.166,4.3,3.066,8.167,5.7,11.6
				c0.866,1.133,2,2.317,3.399,3.55c0.967,0.9,1.4,1.383,1.3,1.45c-0.966,0.5-2.833,0.367-5.6-0.4c-2.833-0.767-5.4-1.883-7.7-3.35
				c-2.233-1.433-4.017-3.1-5.35-5c-1.033-1.8-1.7-2.917-2-3.35c-1.733-2.733-1.417-5.833,0.95-9.3c0.966-1.4,2.017-2.35,3.149-2.85
				c1.233-0.566,2.25-0.466,3.05,0.3c0.733,0.7,1.25,1.4,1.551,2.1C204.6,44.167,205.116,45.917,205.95,48.95z"/>
			
				<radialGradient id="SVGID_58_" cx="163.2705" cy="59.4341" r="15.1129" gradientTransform="matrix(0.9983 0.058 0.0966 -1.6642 -9.1898 158.2417)" gradientUnits="userSpaceOnUse">
				<stop  offset="0" style="stop-color:#9B80A7"/>
				<stop  offset="0.1647" style="stop-color:#84639B"/>
				<stop  offset="0.3686" style="stop-color:#6C468F"/>
				<stop  offset="0.4863" style="stop-color:#633B8A"/>
				<stop  offset="1" style="stop-color:#471A54"/>
			</radialGradient>
			<path style="fill-rule:evenodd;clip-rule:evenodd;fill:url(#SVGID_58_);" d="M165.8,40.15c1.767,0.6,2.834,1.483,3.2,2.65
				c0.533,1.733-0.267,4.5-2.4,8.3c-0.633,1.133-1.6,2.483-2.899,4.05c-1.2,1.434-1.884,2.15-2.05,2.15
				c-0.267-0.033-0.417-0.333-0.45-0.9c0-0.933-0.05-1.767-0.15-2.5c-0.467-3.967-0.717-6.583-0.75-7.85
				c0-1.333,0.25-2.517,0.75-3.55C162.15,40.233,163.733,39.45,165.8,40.15z"/>
			
				<radialGradient id="SVGID_59_" cx="143.6934" cy="-22.8086" r="15.1069" gradientTransform="matrix(0.8589 0.5121 0.854 -1.4322 31.1594 -52.2581)" gradientUnits="userSpaceOnUse">
				<stop  offset="0" style="stop-color:#9B80A7"/>
				<stop  offset="0.1647" style="stop-color:#84639B"/>
				<stop  offset="0.3686" style="stop-color:#6C468F"/>
				<stop  offset="0.4863" style="stop-color:#633B8A"/>
				<stop  offset="1" style="stop-color:#471A54"/>
			</radialGradient>
			<path style="fill-rule:evenodd;clip-rule:evenodd;fill:url(#SVGID_59_);" d="M153.85,31.45c1.301,1.333,1.851,2.6,1.65,3.8
				c-0.333,1.833-2.333,3.933-6,6.3c-1.066,0.7-2.533,1.45-4.4,2.25c-1.733,0.733-2.666,1.067-2.8,1
				c-0.267-0.167-0.267-0.517,0-1.05l1-2.3c1.434-3.767,2.434-6.184,3-7.25c0.601-1.2,1.367-2.15,2.3-2.85
				C150.6,29.817,152.35,29.85,153.85,31.45z"/>
			
				<radialGradient id="SVGID_60_" cx="216.2002" cy="62.6499" r="16.863" gradientTransform="matrix(-0.9473 0.3204 -0.4786 -1.4152 450.9897 82.0424)" gradientUnits="userSpaceOnUse">
				<stop  offset="0" style="stop-color:#9B80A7"/>
				<stop  offset="0.1647" style="stop-color:#84639B"/>
				<stop  offset="0.3686" style="stop-color:#6C468F"/>
				<stop  offset="0.4863" style="stop-color:#633B8A"/>
				<stop  offset="1" style="stop-color:#471A54"/>
			</radialGradient>
			<path style="fill-rule:evenodd;clip-rule:evenodd;fill:url(#SVGID_60_);" d="M210.75,48.7c0.1,0.733,0.267,1.55,0.5,2.45
				c0.134,0.6,0.033,0.95-0.3,1.05c-0.167,0.033-1.066-0.467-2.7-1.5c-1.8-1.133-3.184-2.133-4.15-3
				c-3.3-3.034-4.883-5.483-4.75-7.35c0.067-1.233,0.983-2.4,2.75-3.5c2.067-1.3,3.967-1.017,5.7,0.85
				c0.8,0.867,1.367,1.933,1.7,3.2C209.833,42.133,210.25,44.733,210.75,48.7z"/>
			
				<radialGradient id="SVGID_61_" cx="230.7998" cy="46.9502" r="12.4735" gradientTransform="matrix(-0.6662 0.7458 -1.2222 -1.0917 441.9349 -73.9245)" gradientUnits="userSpaceOnUse">
				<stop  offset="0" style="stop-color:#9B80A7"/>
				<stop  offset="0.1647" style="stop-color:#84639B"/>
				<stop  offset="0.3686" style="stop-color:#6C468F"/>
				<stop  offset="0.4863" style="stop-color:#633B8A"/>
				<stop  offset="1" style="stop-color:#471A54"/>
			</radialGradient>
			<path style="fill-rule:evenodd;clip-rule:evenodd;fill:url(#SVGID_61_);" d="M220,38.45c0.533,0.5,1.366,1.083,2.5,1.75
				c0.667,0.4,0.934,0.683,0.8,0.85c-0.133,0.133-0.95,0.25-2.45,0.35c-1.733,0.133-3.1,0.067-4.1-0.2
				c-3.366-0.9-5.533-2.367-6.5-4.4c-0.434-0.8-0.233-1.883,0.6-3.25c0.934-1.566,2.217-2.017,3.851-1.35
				c0.566,0.2,1.184,0.883,1.85,2.05C217.45,35.783,218.6,37.183,220,38.45z"/>
			
				<radialGradient id="SVGID_62_" cx="194.25" cy="79.1504" r="21.9901" gradientTransform="matrix(-0.761 -0.6488 0.4683 -0.5492 305.0069 248.6479)" gradientUnits="userSpaceOnUse">
				<stop  offset="0" style="stop-color:#9B80A7"/>
				<stop  offset="0.1647" style="stop-color:#846396"/>
				<stop  offset="0.3686" style="stop-color:#6C4684"/>
				<stop  offset="0.4863" style="stop-color:#633B7D"/>
				<stop  offset="1" style="stop-color:#471A54"/>
			</radialGradient>
			<path style="fill-rule:evenodd;clip-rule:evenodd;fill:url(#SVGID_62_);" d="M188,46.1c0.3,1,0.55,2.917,0.75,5.75
				c0.233,2.733,0.684,5.15,1.35,7.25c0.867,2.733,1.367,5.3,1.5,7.7c0.101,2.133-0.1,3.9-0.6,5.3c-0.4,1.1-0.65,1.533-0.75,1.3
				c-0.066-0.6-0.134-1.066-0.2-1.4c-0.3-1.4-0.483-2.2-0.55-2.4c-0.5-1.367-1.35-2.667-2.55-3.9
				c-1.733-1.333-2.934-2.317-3.601-2.95c-1.033-1.067-1.633-2.833-1.8-5.3c-0.2-2.767,0.733-5.733,2.8-8.9
				C186.35,45.417,187.566,44.6,188,46.1z"/>
			
				<radialGradient id="SVGID_63_" cx="194.3496" cy="67.8501" r="26.0345" gradientTransform="matrix(-0.9934 -0.1147 0.0985 -0.8527 380.7355 148.0004)" gradientUnits="userSpaceOnUse">
				<stop  offset="0" style="stop-color:#9B80A7"/>
				<stop  offset="0.1647" style="stop-color:#84639B"/>
				<stop  offset="0.3686" style="stop-color:#6C468F"/>
				<stop  offset="0.4863" style="stop-color:#633B8A"/>
				<stop  offset="1" style="stop-color:#471A54"/>
			</radialGradient>
			<path style="fill-rule:evenodd;clip-rule:evenodd;fill:url(#SVGID_63_);" d="M198.65,44.75c0.466,1.067,0.216,2.783-0.75,5.15
				c-1.334,3.333-2.167,6.667-2.5,10c-0.067,0.767-0.084,2.15-0.051,4.15c0,0.934-0.183,1.25-0.55,0.95
				c-3.6-2.8-6.399-6.35-8.399-10.65c-1.467-3.1-2.284-5.5-2.45-7.2c0.1-1.5,0.149-2.667,0.149-3.5c0-0.533,0.601-1.15,1.801-1.85
				c1.267-0.733,2.666-1.216,4.199-1.45C194.333,39.717,197.184,41.183,198.65,44.75z"/>
			
				<radialGradient id="SVGID_64_" cx="183.4004" cy="66.7998" r="28.7452" gradientTransform="matrix(-0.9167 -0.3996 0.3327 -0.7632 329.2977 191.0674)" gradientUnits="userSpaceOnUse">
				<stop  offset="0" style="stop-color:#9B80A7"/>
				<stop  offset="0.1647" style="stop-color:#846396"/>
				<stop  offset="0.3686" style="stop-color:#6C4684"/>
				<stop  offset="0.4863" style="stop-color:#633B7D"/>
				<stop  offset="1" style="stop-color:#471A54"/>
			</radialGradient>
			<path style="fill-rule:evenodd;clip-rule:evenodd;fill:url(#SVGID_64_);" d="M184.4,38.8c0.166,0.767-0.051,2.217-0.65,4.35
				c-0.866,3-1.467,6.333-1.8,10c-0.267,3.167,0.166,6.3,1.3,9.4c0.9,2.5,1.316,3.767,1.25,3.8c-0.767,0.533-2.384-0.467-4.85-3
				c-2.867-2.9-4.934-6.367-6.2-10.4c-1.101-3.534-1.8-6.133-2.101-7.8c-0.233-1.2-0.35-2.733-0.35-4.6c0-0.833,0.6-1.75,1.8-2.75
				c1.233-1,2.634-1.733,4.2-2.2C181.134,34.333,183.6,35.4,184.4,38.8z"/>
			
				<radialGradient id="SVGID_65_" cx="163.084" cy="123.1582" r="12.6491" gradientTransform="matrix(0.9487 -0.3161 -0.5695 -1.7095 109.065 327.3846)" gradientUnits="userSpaceOnUse">
				<stop  offset="0" style="stop-color:#9B80A7"/>
				<stop  offset="0.1647" style="stop-color:#84639B"/>
				<stop  offset="0.3686" style="stop-color:#6C468F"/>
				<stop  offset="0.4863" style="stop-color:#633B8A"/>
				<stop  offset="1" style="stop-color:#471A54"/>
			</radialGradient>
			<path style="fill-rule:evenodd;clip-rule:evenodd;fill:url(#SVGID_65_);" d="M186.15,42.7c0.066-2.267,1.017-3.434,2.85-3.5
				c1.566-0.067,2.7,0.333,3.4,1.2c1,1.333,1.3,3.934,0.899,7.8c-0.133,1.167-0.45,2.6-0.95,4.3c-0.433,1.6-0.716,2.417-0.85,2.45
				c-0.233,0.066-0.45-0.133-0.65-0.6c-0.333-0.8-0.649-1.483-0.949-2.05c-1.7-3.233-2.75-5.35-3.15-6.35
				C186.316,44.817,186.116,43.733,186.15,42.7z"/>
			
				<radialGradient id="SVGID_66_" cx="160.7236" cy="15.8838" r="10.5859" gradientTransform="matrix(0.9825 0.1863 0.324 -1.7086 -8.1054 42.7444)" gradientUnits="userSpaceOnUse">
				<stop  offset="0" style="stop-color:#9B80A7"/>
				<stop  offset="0.1647" style="stop-color:#84639B"/>
				<stop  offset="0.3686" style="stop-color:#6C468F"/>
				<stop  offset="0.4863" style="stop-color:#633B8A"/>
				<stop  offset="1" style="stop-color:#471A54;stop-opacity:0"/>
			</radialGradient>
			<path style="fill-rule:evenodd;clip-rule:evenodd;fill:url(#SVGID_66_);" d="M157.8,28.15c0.967-1.533,2.134-1.95,3.5-1.25
				c1.167,0.567,1.816,1.283,1.95,2.15c0.267,1.267-0.55,3.2-2.45,5.8c-0.533,0.767-1.333,1.667-2.399,2.7
				c-0.967,0.934-1.5,1.383-1.601,1.35c-0.2-0.033-0.283-0.267-0.25-0.7c0.066-0.667,0.101-1.267,0.101-1.8
				c0.066-2.933,0.166-4.85,0.3-5.75C157.083,29.683,157.366,28.85,157.8,28.15z"/>
			
				<radialGradient id="SVGID_67_" cx="217.0996" cy="46.7998" r="12.5466" gradientTransform="matrix(-0.8856 0.4644 -0.7868 -1.5005 446.1923 16.2026)" gradientUnits="userSpaceOnUse">
				<stop  offset="0" style="stop-color:#9B80A7"/>
				<stop  offset="0.1647" style="stop-color:#84639B"/>
				<stop  offset="0.3686" style="stop-color:#6C468F"/>
				<stop  offset="0.4863" style="stop-color:#633B8A"/>
				<stop  offset="1" style="stop-color:#471A54;stop-opacity:0"/>
			</radialGradient>
			<path style="fill-rule:evenodd;clip-rule:evenodd;fill:url(#SVGID_67_);" d="M208.15,28.55c0.733,0.633,1.333,1.467,1.8,2.5
				c0.467,1,1.2,3.083,2.2,6.25c0.199,0.6,0.449,1.25,0.75,1.95c0.199,0.467,0.183,0.767-0.051,0.9c-0.1,0.067-0.85-0.25-2.25-0.95
				c-1.566-0.8-2.767-1.517-3.6-2.15c-2.967-2.2-4.55-4.05-4.75-5.55c-0.134-1.033,0.366-2.083,1.5-3.15
				C205.083,27.117,206.55,27.183,208.15,28.55z"/>
			
				<radialGradient id="SVGID_68_" cx="117.2559" cy="176.0537" r="9.6769" gradientTransform="matrix(0.7468 -0.665 -0.92 -1.0331 279.0526 313.3659)" gradientUnits="userSpaceOnUse">
				<stop  offset="0" style="stop-color:#9B80A7"/>
				<stop  offset="0.1647" style="stop-color:#84639B"/>
				<stop  offset="0.3686" style="stop-color:#6C468F"/>
				<stop  offset="0.4863" style="stop-color:#633B8A"/>
				<stop  offset="1" style="stop-color:#471A54"/>
			</radialGradient>
			<path style="fill-rule:evenodd;clip-rule:evenodd;fill:url(#SVGID_68_);" d="M194.95,43c-0.367-1.133,0.033-2.083,1.2-2.85
				c1.066-0.667,1.883-0.867,2.449-0.6c1.367,0.6,2.284,2.05,2.75,4.35c0.134,0.7,0.101,1.667-0.1,2.9
				c-0.167,1.1-0.3,1.684-0.4,1.75c-0.133,0.1-0.316-0.083-0.55-0.55c-0.399-0.733-0.767-1.283-1.1-1.65
				c-0.834-0.934-1.783-1.667-2.851-2.2C195.55,43.75,195.083,43.367,194.95,43z"/>
			
				<radialGradient id="SVGID_69_" cx="160.6572" cy="64.1558" r="9.6666" gradientTransform="matrix(0.997 -0.0776 -0.1074 -1.3797 11.8637 152.4807)" gradientUnits="userSpaceOnUse">
				<stop  offset="0" style="stop-color:#9B80A7"/>
				<stop  offset="0.1647" style="stop-color:#84639B"/>
				<stop  offset="0.3686" style="stop-color:#6C468F"/>
				<stop  offset="0.4863" style="stop-color:#633B8A"/>
				<stop  offset="1" style="stop-color:#471A54"/>
			</radialGradient>
			<path style="fill-rule:evenodd;clip-rule:evenodd;fill:url(#SVGID_69_);" d="M163.85,37.3c0.367-1.133,1.25-1.65,2.65-1.55
				c1.2,0.133,1.967,0.467,2.3,1c0.7,1.3,0.55,3-0.45,5.1c-0.5,1-1.566,2.15-3.199,3.45c-0.167,0-0.217-0.267-0.15-0.8
				c0.134-0.833,0.184-1.483,0.15-1.95c-0.101-1.233-0.417-2.383-0.95-3.45C163.833,38.3,163.717,37.7,163.85,37.3z"/>
		</g>
	</g>
	<g>
		<path style="fill-rule:evenodd;clip-rule:evenodd;fill:#5C5A98;" d="M41.3,141.85c0.333,0,0.617,0.117,0.85,0.351
			c0.2,0.233,0.317,0.517,0.35,0.85c0,0.367-0.117,0.667-0.35,0.9c-0.2,0.267-0.467,0.399-0.8,0.399
			c-0.333,0.034-0.617-0.066-0.85-0.3s-0.35-0.533-0.35-0.899c-0.033-0.334,0.067-0.634,0.3-0.9
			C40.683,142.017,40.967,141.884,41.3,141.85z"/>
		<path style="fill-rule:evenodd;clip-rule:evenodd;fill:#5C5A98;" d="M43.5,147.8l0.1,0.2c-0.167-1.733-0.684-3-1.55-3.8l0.1-0.3
			c1.1,0.699,1.767,1.899,2,3.6c0.6-1.167,1.417-1.667,2.45-1.5c0.5,0.066,0.95,0.25,1.35,0.55c-1.333-0.7-2.267-0.399-2.8,0.9
			c-0.3,0.666-0.45,1.383-0.45,2.149c-0.434,0.167-0.75,0.25-0.95,0.25L42.9,149.7c0.1-1.5-0.133-2.4-0.7-2.7h-0.9
			c0.534-0.4,1.05-0.384,1.55,0.05C43.117,147.25,43.333,147.5,43.5,147.8z"/>
		<path style="fill-rule:evenodd;clip-rule:evenodd;fill:#5C5A98;" d="M41.2,141.95c0.233-0.3,0.55-0.566,0.95-0.8
			c0.833-0.467,1.65-0.5,2.45-0.101c-0.2,0-0.434,0.05-0.7,0.15c-0.467,0.166-0.767,0.434-0.9,0.8c-0.267,0.733-0.467,1.2-0.6,1.4
			c-0.133,0.199-0.316,0.25-0.55,0.149c-0.167-0.066-0.317-0.35-0.45-0.85L41.2,141.95z"/>
		<path style="fill-rule:evenodd;clip-rule:evenodd;fill:#5C5A98;" d="M41.25,143.05c-0.233,0.267-0.483,0.351-0.75,0.25
			c-0.267-0.133-0.433-0.383-0.5-0.75c-0.067-0.467,0.033-0.934,0.3-1.399l0.4-0.551c-0.067,0.467-0.017,0.767,0.15,0.9
			c0.267,0.2,0.417,0.333,0.45,0.4C41.4,142.3,41.383,142.684,41.25,143.05z"/>
		<path style="fill-rule:evenodd;clip-rule:evenodd;fill:#5C5A98;" d="M41.15,142.75l0.1,0.3c0.067,0.233,0.05,0.483-0.05,0.75
			c-0.2,0.634-0.917,0.884-2.15,0.75c-0.267-0.033-0.55,0.05-0.85,0.25c-0.167,0.101-0.3,0.2-0.4,0.3
			c0.233-0.466,0.55-0.866,0.95-1.199c0.367-0.267,0.567-0.434,0.6-0.5c0.333-0.467,0.667-0.717,1-0.75
			C40.417,142.65,40.683,142.684,41.15,142.75z"/>
		<path style="fill-rule:evenodd;clip-rule:evenodd;fill:#5C5A98;" d="M42,142.35c0.6,0.101,1.2,0.317,1.8,0.65
			c0.467,0.267,0.784,0.583,0.95,0.95c-0.167-0.134-0.35-0.233-0.55-0.3c-0.467-0.134-0.867-0.084-1.2,0.149
			c-0.967,0.667-1.65,0.783-2.05,0.351c-0.233-0.267-0.2-0.65,0.1-1.15C41.35,142.5,41.667,142.283,42,142.35z"/>
		<path style="fill-rule:evenodd;clip-rule:evenodd;fill:#5C5A98;" d="M40.65,143.5h0.55c0.4,0.066,0.617,0.267,0.65,0.6
			c0.033,0.367-0.117,0.667-0.45,0.9c-0.2,0.134-0.517,0.316-0.95,0.55c-0.233,0.134-0.383,0.434-0.45,0.9c0,0.2,0,0.399,0,0.6
			c-0.1-0.267-0.167-0.75-0.2-1.45C39.733,144.6,40.017,143.9,40.65,143.5z"/>
		<path style="fill-rule:evenodd;clip-rule:evenodd;fill:#7573A8;" d="M41.2,143.2c-0.5,0.467-0.817,0.566-0.95,0.3
			c-0.133-0.233,0.033-0.583,0.5-1.05c0.3-0.267,0.567-0.316,0.8-0.15C41.783,142.5,41.667,142.8,41.2,143.2z"/>
	</g>
	<path style="fill-rule:evenodd;clip-rule:evenodd;fill:#5C5A98;" d="M55,133.45l0.775-1c-1.156,2.058-1.848,4.724-2.075,8
		c-0.2,2.399-0.15,4.583,0.15,6.55c-0.867,0.1-1.733,0.1-2.6,0l-1-0.15c0.3-1.933,0.2-3.517-0.3-4.75l-0.85-1.25
		c1.133,0.667,1.816,1.867,2.05,3.601c0.1,0.866,0.083,1.666-0.05,2.399c0.367-1.767,0.333-4.1-0.1-7l-0.75-3.8
		c0.9,1.7,1.533,4.017,1.9,6.95c0.139,1.221,0.222,2.313,0.25,3.275C52.396,141.008,53.262,136.732,55,133.45z"/>
	<path style="fill-rule:evenodd;clip-rule:evenodd;fill:#5C5A98;" d="M58.85,141.6c-0.214-1.56-0.739-2.701-1.575-3.425l0.975,0.775
		c0.767,0.958,1.208,2.283,1.325,3.975c-0.036-0.812,0.022-1.737,0.175-2.774c0.367-2.301,1.2-4.101,2.5-5.4l-1.2,2.25
		c-0.767,2-0.966,4.35-0.6,7.05c-0.434,0.134-0.934,0.101-1.5-0.1C59.017,143.25,58.983,142.467,58.85,141.6z"/>
	<path style="fill-rule:evenodd;clip-rule:evenodd;fill:#5C5A98;" d="M18.3,142.6c-0.224-1.406-0.74-2.414-1.55-3.024l1,0.725
		c0.673,0.796,1.065,1.888,1.175,3.275c-0.023-0.673,0.035-1.414,0.175-2.226c0.333-1.966,1.083-3.517,2.25-4.649l-1.1,1.95
		c-0.667,1.733-0.85,3.767-0.55,6.1c-0.467,0.066-0.9,0.033-1.3-0.1C18.467,144.017,18.433,143.333,18.3,142.6z"/>
	<path style="fill-rule:evenodd;clip-rule:evenodd;fill:#5C5A98;" d="M59.2,143.8c-0.133-0.967-0.15-2.083-0.05-3.35
		c0.2-2.566,0.833-4.667,1.9-6.3c1.167-1.767,1.883-3.084,2.15-3.95c0.133-0.467,0.183-1.15,0.15-2.05L63.5,129
		c0,0.767-0.233,1.667-0.7,2.7c-0.4,0.934-1.066,2.2-2,3.8c-0.7,1.866-0.95,4.634-0.75,8.3H59.2z"/>
	<path style="fill-rule:evenodd;clip-rule:evenodd;fill:#5C5A98;" d="M57.25,134.9c-0.4,0.933-1.083,2.199-2.05,3.8
		c-0.7,1.833-0.95,4.583-0.75,8.25l-0.8,0.05c-0.133-0.967-0.15-2.083-0.05-3.35c0.167-2.601,0.783-4.717,1.85-6.351
		c1.167-1.733,1.883-3.05,2.15-3.95c0.133-0.466,0.183-1.133,0.15-2l0.15,0.851C57.9,132.967,57.683,133.866,57.25,134.9z"/>
</g>
</svg>
