<?xml version="1.0" encoding="iso-8859-1"?>
<!-- Generator: Adobe Illustrator 15.1.0, SVG Export Plug-In . SVG Version: 6.00 Build 0)  -->
<!DOCTYPE svg PUBLIC "-//W3C//DTD SVG 1.1//EN" "http://www.w3.org/Graphics/SVG/1.1/DTD/svg11.dtd">
<svg version="1.1" id="Layer_3" xmlns="http://www.w3.org/2000/svg" xmlns:xlink="http://www.w3.org/1999/xlink" x="0px" y="0px"
	 width="242.05px" height="107.65px" viewBox="0 0 242.05 107.65" style="enable-background:new 0 0 242.05 107.65;"
	 xml:space="preserve">
<symbol  id="flash0.ai_x2F_Layer_3_x2F__x3C_Path_x3E_" viewBox="-0.011 -6.225 9.411 6.225">
	<g id="Layer_1_6_">
		
			<linearGradient id="SVGID_1_" gradientUnits="userSpaceOnUse" x1="324.0913" y1="-16580.1621" x2="328.8466" y2="-16580.1621" gradientTransform="matrix(-0.0473 -0.9989 0.9989 -0.0473 16581.7676 -461.0913)">
			<stop  offset="0" style="stop-color:#E84A34"/>
			<stop  offset="0.2275" style="stop-color:#E4542C"/>
			<stop  offset="0.4863" style="stop-color:#DD651E"/>
			<stop  offset="1" style="stop-color:#DE7307"/>
		</linearGradient>
		<path style="fill-rule:evenodd;clip-rule:evenodd;fill:url(#SVGID_1_);" d="M5.2,0l4.2-2.4C8.9-3,8.233-3.6,7.4-4.2
			c-1.6-1.233-3.117-1.9-4.55-2C1.25-6.333,0.317-5.933,0.05-5c-0.233,0.933,0.2,1.65,1.3,2.15C2.717-2.183,4-1.233,5.2,0z"/>
	</g>
</symbol>
<symbol  id="flash0.ai_x2F_Layer_3_x2F__x3C_Path_x3E__x5F_1" viewBox="0 -4.513 6.603 4.538">
	<g id="Layer_1_5_">
		
			<linearGradient id="SVGID_2_" gradientUnits="userSpaceOnUse" x1="291.3398" y1="-16551.4746" x2="294.7931" y2="-16551.4746" gradientTransform="matrix(-0.0434 -0.9991 0.9991 -0.0434 16551.9004 -428.1099)">
			<stop  offset="0" style="stop-color:#E84A34"/>
			<stop  offset="0.2275" style="stop-color:#E4542C"/>
			<stop  offset="0.4863" style="stop-color:#DD651E"/>
			<stop  offset="1" style="stop-color:#DE7307"/>
		</linearGradient>
		<path style="fill-rule:evenodd;clip-rule:evenodd;fill:url(#SVGID_2_);" d="M6.6-1.85c0.066-1.5-1-2.367-3.2-2.6
			C1.167-4.717,0.033-4.133,0-2.7c0,1.467,1.117,2.35,3.35,2.65C5.417,0.25,6.5-0.35,6.6-1.85z"/>
	</g>
</symbol>
<symbol  id="flash0.ai_x2F_Layer_3_x2F__x3C_Path_x3E__x5F_2" viewBox="0 -9.873 30.788 9.873">
	<g id="Layer_1_4_">
		
			<linearGradient id="SVGID_3_" gradientUnits="userSpaceOnUse" x1="295.5293" y1="-16542.9609" x2="302.3609" y2="-16542.9609" gradientTransform="matrix(-0.0439 -0.999 0.999 -0.0439 16555.5762 -432.1558)">
			<stop  offset="0" style="stop-color:#E84A34"/>
			<stop  offset="0.2275" style="stop-color:#E4542C"/>
			<stop  offset="0.4863" style="stop-color:#DD651E"/>
			<stop  offset="1" style="stop-color:#DE7307"/>
		</linearGradient>
		<path style="fill-rule:evenodd;clip-rule:evenodd;fill:url(#SVGID_3_);" d="M5.8,0c1.367-0.8,3.117-1.6,5.25-2.4
			c4.267-1.633,8.367-2.517,12.3-2.65c3.367-0.133,5.6-0.617,6.7-1.45c0.8-0.633,0.95-1.267,0.45-1.9
			c-0.967-1.2-3.867-1.667-8.7-1.4C15.3-9.467,8.033-7.367,0-3.5L5.8,0z"/>
	</g>
</symbol>
<symbol  id="flash0.ai_x2F_Layer_3_x2F__x3C_Path_x3E__x5F_3" viewBox="0 -2.326 15.7 2.344">
	<g id="Layer_1_3_">
		
			<linearGradient id="SVGID_4_" gradientUnits="userSpaceOnUse" x1="280.7578" y1="-16537.4707" x2="282.5344" y2="-16537.4707" gradientTransform="matrix(-0.0422 -0.9991 0.9991 -0.0422 16542.4688 -417.7485)">
			<stop  offset="0" style="stop-color:#E84A34"/>
			<stop  offset="0.2275" style="stop-color:#E4542C"/>
			<stop  offset="0.4863" style="stop-color:#DD651E"/>
			<stop  offset="1" style="stop-color:#DE7307"/>
		</linearGradient>
		<path style="fill-rule:evenodd;clip-rule:evenodd;fill:url(#SVGID_4_);" d="M10.7-0.15c2-0.2,3.667-0.5,5-0.9
			c-3.4-1.167-7.034-1.534-10.9-1.1C2.867-1.917,1.267-1.567,0-1.1C3.2-0.067,6.767,0.25,10.7-0.15z"/>
	</g>
</symbol>
<symbol  id="flash0.ai_x2F_Layer_3_x2F__x3C_Path_x3E__x5F_4" viewBox="0 -4.247 34.25 4.247">
	<g id="Layer_1_2_">
		
			<linearGradient id="SVGID_5_" gradientUnits="userSpaceOnUse" x1="310.0757" y1="-16555.7305" x2="313.3541" y2="-16555.7305" gradientTransform="matrix(-0.0458 -0.999 0.999 -0.0458 16569.7539 -447.7949)">
			<stop  offset="0" style="stop-color:#E84A34"/>
			<stop  offset="0.2275" style="stop-color:#E4542C"/>
			<stop  offset="0.4863" style="stop-color:#DD651E"/>
			<stop  offset="1" style="stop-color:#DE7307"/>
		</linearGradient>
		<path style="fill-rule:evenodd;clip-rule:evenodd;fill:url(#SVGID_5_);" d="M1.85,0c2.467-1.1,5.617-1.933,9.45-2.5
			c7.633-1.2,14.817-0.533,21.55,2l1.4-0.85c-2.2-1.133-5.283-1.967-9.25-2.5C17.067-4.883,8.733-3.9,0-0.9L1.85,0z"/>
	</g>
</symbol>
<g>
	<g>
		
			<linearGradient id="SVGID_6_" gradientUnits="userSpaceOnUse" x1="-93.2588" y1="162.7197" x2="50.4858" y2="162.7197" gradientTransform="matrix(0.3044 -0.9526 0.9526 0.3044 3.030598e-004 -4.175901e-004)">
			<stop  offset="0" style="stop-color:#242224"/>
			<stop  offset="0.2392" style="stop-color:#27252E"/>
			<stop  offset="0.6392" style="stop-color:#302E49"/>
			<stop  offset="1" style="stop-color:#3A3866"/>
		</linearGradient>
		<path style="fill-rule:evenodd;clip-rule:evenodd;fill:url(#SVGID_6_);" d="M200.2,96.9c0.6-3.667-0.283-7.733-2.65-12.2
			c-2.733-5.267-7.983-9.783-15.75-13.55c-6.733-3.2-14.7-4.667-23.899-4.4c-9.301,0.267-18.367,2.267-27.2,6
			c-1.4,0.6-2.533,1.233-3.4,1.9c-1.133,0.899-2.116,2.1-2.95,3.6c-1,1.8-2.066,6.616-3.199,14.45
			c-0.567,3.899-1.034,7.616-1.4,11.149h-2.5c1.1-10.1,1.883-16.616,2.35-19.55c0.4-2.399,0.05-4.133-1.05-5.2
			c-1.167-1.1-2.983-1.333-5.45-0.699c-2.3,0.6-4.233,1.683-5.8,3.25c-1.133,1.166-2.667,3.316-4.6,6.449
			c-1.4,2.301-2.817,5.617-4.25,9.95c-0.733,2.167-1.317,4.101-1.75,5.8h-2.5c0.367-2.033,0.767-3.933,1.2-5.699
			c0.233-0.834,0.95-2.884,2.15-6.15c1.3-3.4,2.15-5.816,2.55-7.25c0.566-1.9,0.2-2.95-1.1-3.15c-1.1-0.166-2.617,0.284-4.55,1.351
			c-1.233,0.7-2.534,1.8-3.9,3.3c-1.767,1.967-3.283,4.283-4.55,6.95c-1.8,3.833-3.3,7.383-4.5,10.649H79
			c3.467-9.5,5.883-15.666,7.25-18.5c0.867-1.733,1.117-3.017,0.75-3.85c-0.2-0.4-0.75-0.85-1.65-1.35
			c-6.567-1.034-12.467-3.184-17.7-6.45c-6.233-3.9-10.816-9.584-13.75-17.05c-0.933-2.334-1.633-4.717-2.1-7.15l-0.45-2.9l6.5-0.45
			c2.033,8.933,7.517,15.716,16.45,20.35c9.967,5.134,20.9,5.35,32.8,0.65c16.7-6.601,28.983-10.817,36.85-12.65
			c15.233-3.567,29.633-3.817,43.2-0.75c7.6,1.767,14.366,4.533,20.3,8.3c8.267,5.233,15.05,12.434,20.35,21.601
			c1.9,3.3,3.4,6.433,4.5,9.399c0.967,2.733,2.4,5,4.3,6.8c0.667,0.667,1.851,1.567,3.551,2.7c1.199,0.8,1.833,1.417,1.899,1.851
			c-0.7,0.5-2.483,0.333-5.35-0.5c-2.733-0.801-4.3-0.934-4.7-0.4c0.066,0.233,0.55,0.816,1.45,1.75c0.633,0.667,0.8,1.233,0.5,1.7
			c-0.434,0.666-1.983,0.85-4.65,0.55c-2.866-0.467-4.566-0.75-5.1-0.85c-4.4-0.601-7.434-1.017-9.101-1.25
			c-2.767-0.334-4.966-0.517-6.6-0.551c-3.6,0-7.733,0.584-12.4,1.75c-1.533,0.4-2.333,0.351-2.399-0.149
			c-0.033-0.467,0.434-1.15,1.399-2.05c1.601-1.567,2.684-2.7,3.25-3.4C199.35,99.667,199.967,98.3,200.2,96.9z"/>
		<path style="fill-rule:evenodd;clip-rule:evenodd;fill:#3A3866;" d="M175.1,67.75c-4.666-1.033-9.149-1.566-13.449-1.6
			c-5.767-0.067-11.167,0.316-16.2,1.149c-1.767,0.334-2.834,0.517-3.2,0.55c-0.467,0.034-0.483-0.133-0.05-0.5
			c2.333-1.933,5.783-3.6,10.35-5c5.2-1.6,10.367-2.3,15.5-2.1c5.101,0.2,8.566,1.434,10.4,3.7c0.866,1.066,1.333,2.5,1.399,4.3
			C179.85,68.616,178.267,68.45,175.1,67.75z"/>
		<path style="fill-rule:evenodd;clip-rule:evenodd;fill:#3A3866;" d="M129.1,62.95c2.834-2.566,7.434-4.7,13.801-6.4
			c5.933-1.6,10.666-2.184,14.199-1.75c2.934,0.367,2.45,1.667-1.449,3.9c-3.334,1.899-7.067,3.467-11.2,4.7
			c-3.634,1.066-7.434,1.633-11.4,1.699C128.783,65.167,127.467,64.45,129.1,62.95z"/>
		<path style="fill-rule:evenodd;clip-rule:evenodd;fill:#3A3866;" d="M186,53.95c4.833,1.2,8.467,2.416,10.9,3.649
			c2.466,1.267,1.35,1.233-3.351-0.1c-2.899-0.833-7.616-1.667-14.149-2.5c-5.233-0.667-8.101-1.3-8.601-1.9
			c-0.633-0.8,1.2-1.017,5.5-0.65C180.2,52.783,183.434,53.283,186,53.95z"/>
		<path style="fill-rule:evenodd;clip-rule:evenodd;fill:#3A3866;" d="M114.85,75.7c-2.333,0.133-3.55-0.267-3.65-1.2
			c-0.133-1.066,1.433-2.316,4.7-3.75c3.633-1.634,6.517-2.75,8.65-3.35c2.334-0.667,4.217-0.851,5.65-0.551
			c3.033,0.634,2.383,2.184-1.95,4.65C123.917,74,119.45,75.4,114.85,75.7z"/>
		<path style="fill-rule:evenodd;clip-rule:evenodd;fill:#3A3866;" d="M107.4,69.75c2.167-0.566,3.7-0.75,4.6-0.55
			c0.933,0.2,0.65,0.75-0.85,1.649c-1.633,0.967-4.35,1.75-8.15,2.351c-3.933,0.6-6.383,0.533-7.35-0.2
			c-0.8-0.634,0.483-1.25,3.85-1.85C101.367,70.816,104,70.35,107.4,69.75z"/>
		<path style="fill-rule:evenodd;clip-rule:evenodd;fill:#3A3866;" d="M71.05,64.7L74.6,67.1c3.033,1.634,6.15,2.567,9.35,2.801
			c-1.367,0.399-2.934,0.483-4.7,0.25C75.75,69.65,73.017,67.833,71.05,64.7z"/>
		<path style="fill-rule:evenodd;clip-rule:evenodd;fill:#3A3866;" d="M61.3,60.6c-0.3-1.5,0.25-1.716,1.65-0.649
			c1.167,0.833,2.617,2.25,4.35,4.25c0.633,0.733,0.733,1.184,0.3,1.35c-0.4,0.134-1.05,0-1.95-0.399
			C63.15,64.083,61.7,62.566,61.3,60.6z"/>
		<path style="fill-rule:evenodd;clip-rule:evenodd;fill:#3A3866;" d="M89.55,72.95c2.1,0.6,3.25,1.2,3.45,1.8
			c0.133,0.5-0.417,0.917-1.65,1.25c-3.2,0.8-5.817,0.55-7.85-0.75c-1.733-1.134-1.617-1.95,0.35-2.45
			C85.683,72.366,87.583,72.417,89.55,72.95z"/>
		<path style="fill-rule:evenodd;clip-rule:evenodd;fill:#3A3866;" d="M101.45,76.8c2.033,0.167,1.966,0.617-0.2,1.351
			c-2.2,0.733-4.35,0.983-6.45,0.75c-2-0.233-1.783-0.667,0.65-1.301C97.883,76.967,99.883,76.7,101.45,76.8z"/>
		<path style="fill-rule:evenodd;clip-rule:evenodd;fill:#3A3866;" d="M67.6,68.7c0.066-0.667,0.65-0.816,1.75-0.45
			c0.467,0.167,1.667,0.733,3.6,1.7c1.9,1,3.3,1.8,4.2,2.399c1.6,1.101,2.8,2.284,3.6,3.551c0.833,1.3,0.083,1.649-2.25,1.05
			c-2.1-0.533-3.85-1.283-5.25-2.25c-1.267-0.9-2.5-1.95-3.7-3.15C68.217,70.217,67.567,69.267,67.6,68.7z"/>
		<path style="fill-rule:evenodd;clip-rule:evenodd;fill:#3A3866;" d="M54.65,53.65c0.167-1.033,0.817-0.467,1.95,1.7
			c1.133,2.167,1.717,3.867,1.75,5.101c0.033,1.333-0.633,0.883-2-1.351S54.417,55.05,54.65,53.65z"/>
		<path style="fill-rule:evenodd;clip-rule:evenodd;fill:#3A3866;" d="M61.25,66.9c0.067-0.567,1.267,0.199,3.6,2.3
			c2.333,2.1,3.35,3.25,3.05,3.45c-0.333,0.233-1.533-0.483-3.6-2.15C62.167,68.8,61.15,67.6,61.25,66.9z"/>
		<path style="fill-rule:evenodd;clip-rule:evenodd;fill:#3A3866;" d="M112.85,66.1c1.1-0.6,3.75-1.767,7.95-3.5
			c4.634-1.933,7.25-2.866,7.851-2.8c0.699,0.066,0.366,0.566-1,1.5c-1.334,0.967-2.884,1.767-4.65,2.4
			c-1.467,0.533-3.6,1.083-6.4,1.649L112.85,66.1z"/>
		<path style="fill-rule:evenodd;clip-rule:evenodd;fill:#3A3866;" d="M167.1,54.95c3.2,0.033,4.417,0.6,3.65,1.7
			c-0.8,1.133-2.65,1.566-5.55,1.3c-2.667-0.2-3.533-0.75-2.601-1.65C163.533,55.4,165.033,54.95,167.1,54.95z"/>
		<path style="fill-rule:evenodd;clip-rule:evenodd;fill:#3A3866;" d="M189.35,58.8c2.733-0.1,6.034,0.584,9.9,2.05
			c4.434,1.667,8.033,3.851,10.8,6.551c3.033,3,3.834,6.066,2.4,9.199c-1.434,3.167-4.084,3.95-7.95,2.351
			c-0.9-0.4-2.967-2.533-6.2-6.4c-3.233-3.866-6.333-6.45-9.3-7.75c-3.833-1.666-5.5-3.083-5-4.25
			C184.434,59.483,186.217,58.9,189.35,58.8z"/>
		<path style="fill-rule:evenodd;clip-rule:evenodd;fill:#3A3866;" d="M197.15,75.15c1.5,3.399,1.399,4.85-0.301,4.35
			c-1.133-0.333-2.333-1.1-3.6-2.3c-1.9-1.8-4.6-4.101-8.1-6.9c-1.834-1.434-2.417-2.2-1.75-2.3c2.633-0.434,5.449,0.233,8.449,2
			C194.55,71.566,196.316,73.283,197.15,75.15z"/>
		<path style="fill-rule:evenodd;clip-rule:evenodd;fill:#3A3866;" d="M201.45,86.1c-0.533-1.933,0-3.017,1.6-3.25
			c1.566-0.199,3.267,0.567,5.101,2.301c2.166,2.066,3.699,4.633,4.6,7.699c1.1,3.634,0.6,6.4-1.5,8.301
			c-1.366,1.233-2.95,1.633-4.75,1.199c-1.767-0.433-2.967-1.517-3.6-3.25l-0.25-0.699c-0.367-1.301-0.567-3.334-0.601-6.101
			C202.05,89.533,201.85,87.467,201.45,86.1z"/>
		<path style="fill-rule:evenodd;clip-rule:evenodd;fill:#3A3866;" d="M216,73.7c0.934-1.4,2.533-0.65,4.8,2.25
			c0.566,0.8,1.667,2.767,3.3,5.899c1.834,3.467,3.417,6.7,4.75,9.7c1.367,3.033,1.051,4.283-0.949,3.75
			c-1.9-0.5-4.101-2.149-6.601-4.95c-2.233-2.5-3.899-5.616-5-9.35C215.233,77.434,215.134,75,216,73.7z"/>
		<path style="fill-rule:evenodd;clip-rule:evenodd;fill:#3A3866;" d="M212.5,67.1c0.7-0.033,1.316,0.317,1.85,1.051
			c0.5,0.699,0.767,1.517,0.801,2.449c0.033,0.934-0.667,0.584-2.101-1.05C211.684,67.95,211.5,67.134,212.5,67.1z"/>
		<path style="fill-rule:evenodd;clip-rule:evenodd;fill:#3A3866;" d="M119.7,81.25l1.45,0.25c1.066,0,1.833-0.333,2.3-1l-0.7,2.4
			c-0.2,0.199-0.467,0.35-0.8,0.449c-0.667,0.233-1.383,0.184-2.15-0.149C119.8,82.434,119.767,81.783,119.7,81.25z"/>
		<path style="fill-rule:evenodd;clip-rule:evenodd;fill:#3A3866;" d="M119.55,85.05l1,0.3c0.767,0.167,1.4,0.067,1.9-0.3
			L121.85,87.4c-0.233,0.166-0.517,0.283-0.85,0.35c-0.667,0.1-1.267-0.1-1.8-0.6L119.55,85.05z"/>
		<path style="fill-rule:evenodd;clip-rule:evenodd;fill:#3A3866;" d="M119,88.55l0.95,0.3c0.733,0.134,1.3,0.051,1.7-0.25
			l-0.2,1.25c-0.2,0.167-0.45,0.284-0.75,0.351c-0.633,0.166-1.25,0.017-1.85-0.45L119,88.55z"/>
		<path style="fill-rule:evenodd;clip-rule:evenodd;fill:#3A3866;" d="M99.75,86.05l0.85,0.75c0.8,0.467,1.733,0.55,2.8,0.25
			l-0.7,1.05c-0.3,0.167-0.684,0.267-1.15,0.301c-0.867,0.1-1.65-0.117-2.35-0.65L99.75,86.05z"/>
		<path style="fill-rule:evenodd;clip-rule:evenodd;fill:#3A3866;" d="M98.7,89.05c0.6,0.7,1.283,1.017,2.05,0.95
			c0.4-0.033,0.733-0.134,1-0.3c-0.533,0.833-1.05,1.983-1.55,3.45c-0.867,0.333-1.583,0.316-2.15-0.051l-0.6-0.649L98.7,89.05z"/>
		<path style="fill-rule:evenodd;clip-rule:evenodd;fill:#3A3866;" d="M97.15,93.15l0.8,0.6c0.667,0.3,1.316,0.283,1.95-0.05
			l-0.2,0.55c-0.767,0.5-1.7,0.366-2.8-0.4L97.15,93.15z"/>
		<path style="fill-rule:evenodd;clip-rule:evenodd;fill:#3A3866;" d="M85.85,86l0.55,1.3c0.567,0.834,1.417,1.117,2.55,0.851
			L88,89.45c-1.167,0.366-2.217,0.116-3.15-0.75L85.85,86z"/>
	</g>
	<g>
		
			<linearGradient id="SVGID_7_" gradientUnits="userSpaceOnUse" x1="30.022" y1="-57.1567" x2="53.4796" y2="-57.1567" gradientTransform="matrix(-0.0256 0.9997 -0.9997 -0.0256 9.526629e-004 -2.142303e-004)">
			<stop  offset="0" style="stop-color:#E2A422"/>
			<stop  offset="0.1529" style="stop-color:#E2A82C"/>
			<stop  offset="0.4157" style="stop-color:#E4B247"/>
			<stop  offset="0.7529" style="stop-color:#E6C272"/>
			<stop  offset="1" style="stop-color:#F7EBD1"/>
		</linearGradient>
		<path style="fill-rule:evenodd;clip-rule:evenodd;fill:url(#SVGID_7_);" d="M84.35,23.45c3.566,1.867,7.383,3.917,11.45,6.15
			c3.267,1.833,6.767,3.25,10.5,4.25c1.667,0.5,2.617,0.783,2.85,0.85c1.2,0.466,2.05,1.017,2.55,1.65
			c0.833,1.133,0.95,2.367,0.35,3.7c-0.4,0.934-1.167,1.817-2.3,2.65c-1.2,0.9-2.017,1.75-2.45,2.55
			c-0.233,0.433-0.667,1.567-1.3,3.4c-0.667,1.533-1.3,2.15-1.9,1.85c-0.3-0.167-0.684-0.717-1.15-1.65
			c-0.467-0.967-0.9-1.567-1.3-1.8c-0.433-0.233-1.167-0.483-2.2-0.75c-0.967-0.233-1.684-0.5-2.15-0.8
			c0.133,0.3,0.317,0.767,0.55,1.4c0.133,0.567,0.1,1.067-0.1,1.5c-0.2,0.4-0.583,0.75-1.15,1.05c-0.767,0.367-1.217,0.6-1.35,0.7
			c-0.333,0.3-0.583,0.95-0.75,1.95c-0.167,0.833-0.433,1.217-0.8,1.15c-0.333-0.267-0.5-0.75-0.5-1.45
			c0-0.833-0.083-1.383-0.25-1.65c-0.4-0.833-0.95-1.1-1.65-0.8c-0.267,0.1-0.883,0.55-1.85,1.35c-0.867,0.733-1.95,1.183-3.25,1.35
			c-0.833-0.133-1.383-0.167-1.65-0.1c-0.1,0.033-0.3,0.2-0.6,0.5c-0.267,0.267-0.467,0.367-0.6,0.3
			c-0.167-0.067-0.317-0.383-0.45-0.95c-0.1-0.633-0.183-1.033-0.25-1.2c-0.167-0.4-0.3-0.717-0.4-0.95
			c-0.2-0.333-0.417-0.55-0.65-0.65c-0.233-0.067-0.45,0-0.65,0.2c-0.233,0.233-0.45,0.333-0.65,0.3c-0.433,0-0.95-0.383-1.55-1.15
			c-0.633-0.767-1.133-1.2-1.5-1.3c-1.133-0.267-1.85,0.217-2.15,1.45c-0.4,1.7-0.733,2.65-1,2.85c-0.367,0.3-0.667,0.3-0.9,0
			c-0.3-0.333-0.534-0.483-0.7-0.45c-0.433,0.067-0.717,0.434-0.85,1.1c-0.167,0.667-0.417,0.983-0.75,0.95
			c-0.233,0-0.5-0.267-0.8-0.8c-0.333-0.6-0.617-0.967-0.85-1.1c-0.1-0.066-0.333-0.1-0.7-0.1c-0.233,0-0.483-0.2-0.75-0.6
			c-0.133-0.2-0.283-0.567-0.45-1.1c-0.133-0.533-0.3-0.917-0.5-1.15c-0.633-0.733-1.3-0.7-2,0.1c-0.9,1-1.55,1.466-1.95,1.4
			c-0.267-0.033-0.767-0.367-1.5-1c-0.667-0.567-1.15-0.783-1.45-0.65c-0.2,0.066-0.367,0.383-0.5,0.95
			c-0.233,0.7-0.367,1.1-0.4,1.2c-0.466-0.2-0.917-0.75-1.35-1.65c-0.467-0.9-0.883-1.417-1.25-1.55c-0.567-0.233-0.95,0-1.15,0.7
			c-0.233,0.833-0.466,1.3-0.7,1.4s-0.567-0.467-1-1.7c-0.367-0.966-1.067-0.783-2.1,0.55c-0.467,0.633-1.267,1.933-2.4,3.9
			c-1.1,1.433-2.217,1.667-3.35,0.7c-0.3-0.233-0.717-0.9-1.25-2c-0.467-1-0.917-1.583-1.35-1.75c-0.433-0.167-1.233,0.117-2.4,0.85
			c-1.033,0.667-1.783,0.733-2.25,0.2c-0.067-0.1-0.4-0.833-1-2.2c-0.367-0.9-0.95-1.3-1.75-1.2c-0.4,0.066-0.867,0.45-1.4,1.15
			c-0.567,0.767-1.05,1.183-1.45,1.25c-0.433,0.1-0.816-0.133-1.15-0.7c-0.4-0.667-0.8-1.017-1.2-1.05
			c-0.566-0.033-1.183,0.433-1.85,1.4c-0.967,1.333-1.483,2.017-1.55,2.05c-0.633,0.566-1.133,0.716-1.5,0.45
			c-0.066-0.066-0.467-0.6-1.2-1.6c-0.567-0.767-0.95-1.216-1.15-1.35c-0.333-0.2-0.883-0.317-1.65-0.35
			c-1.066-0.033-1.633-0.083-1.7-0.15c-0.2-0.1-0.534-0.7-1-1.8c-0.867-1.933-2.217-2.733-4.05-2.4c-1.066,0.2-2.65,0.967-4.75,2.3
			c-0.2,0.133-0.633,0.467-1.3,1c-0.633,0.434-1.117,0.5-1.45,0.2c-0.2-0.2-0.333-0.667-0.4-1.4c-0.1-0.833-0.233-1.367-0.4-1.6
			c-0.367,0.333-0.533,1.483-0.5,3.45c0.033,1.8-0.217,2.683-0.75,2.65c-0.367-0.2-0.733-1.467-1.1-3.8
			c-0.1-1.733-0.3-2.883-0.6-3.45C3.483,42.267,3.233,42.067,2.9,42c-0.4-0.067-0.683-0.183-0.85-0.35
			c-0.233-0.3-0.316-0.75-0.25-1.35c0.1-0.667,0.117-1.117,0.05-1.35c-0.067-0.233-0.4-0.6-1-1.1c-0.533-0.434-0.8-0.867-0.8-1.3
			c-0.1-1.066,0.083-1.85,0.55-2.35c0.333-0.367,0.883-0.633,1.65-0.8c0.233-0.066,0.833,0.3,1.8,1.1c1,0.8,1.534,1.183,1.6,1.15
			c3.033-0.933,4.9-1.533,5.6-1.8c2.1-0.733,3.9-1.55,5.4-2.45l13.3-7.75c4.8-2.9,8.566-4.983,11.3-6.25
			c4.4-2.033,8.417-3.217,12.05-3.55c5.034-0.467,9.983,0.167,14.85,1.9c2.067,0.733,6.383,2.733,12.95,6L84.35,23.45z"/>
		
			<linearGradient id="SVGID_8_" gradientUnits="userSpaceOnUse" x1="-44.5479" y1="56.1406" x2="-32.7216" y2="56.1406" gradientTransform="matrix(-0.0148 -0.9999 0.9999 -0.0148 -1.634201e-004 4.710015e-004)">
			<stop  offset="0" style="stop-color:#E2A422"/>
			<stop  offset="0.298" style="stop-color:#E19A1C"/>
			<stop  offset="0.8039" style="stop-color:#DF7F0E"/>
			<stop  offset="1" style="stop-color:#DE7307"/>
		</linearGradient>
		<path style="fill-rule:evenodd;clip-rule:evenodd;fill:url(#SVGID_8_);" d="M95.3,22.35c0.934,0.533,3.317,1.316,7.15,2.35
			c3.167,0.867,5.4,2,6.7,3.4c0.4,0.433,0.983,1,1.75,1.7c0.733,0.9,1.467,2.417,2.2,4.55c0.433,1.333-0.1,1.85-1.6,1.55
			c-1.733-0.533-2.767-0.783-3.1-0.75c0.067,0.767-0.217,1.05-0.85,0.85c-0.833-0.267-1.316-0.35-1.45-0.25
			c-0.4,0.3-0.5,0.75-0.3,1.35c0.333,0.833,0.483,1.333,0.45,1.5c-0.033,0.667-0.3,1.1-0.8,1.3c-0.267,0.133-0.75,0.2-1.45,0.2
			c-0.733-0.067-2-0.283-3.8-0.65c-2.2-0.5-3.35-0.934-3.45-1.3c0.033,0.167,0.217,0.6,0.55,1.3c0.233,0.533,0.317,0.983,0.25,1.35
			c-0.167,0.8-0.733,1.2-1.7,1.2c-1.1-0.167-1.817-0.2-2.15-0.1c-0.233,0.367-0.5,0.567-0.8,0.6c-0.133,0.033-0.333-0.017-0.6-0.15
			c-0.3-0.167-0.5-0.267-0.6-0.3c-0.7-0.167-1.333,0.017-1.9,0.55c-0.8,0.733-1.367,1.167-1.7,1.3c-1.2,0.533-2.733,0.317-4.6-0.65
			c-1.667-1.167-2.917-2.033-3.75-2.6c-1.467-1.033-2.85-1.367-4.15-1c-0.633,0.167-1,0.667-1.1,1.5
			c-0.133,0.934-0.4,1.517-0.8,1.75c-0.434,0.233-1.05,0.133-1.85-0.3c-0.867-0.434-1.483-0.583-1.85-0.45
			c-0.167,0.067-0.333,0.233-0.5,0.5C69.367,42.883,69.133,43,68.8,43c-0.267,0-0.583-0.117-0.95-0.35c-0.4-0.3-0.7-0.5-0.9-0.6
			c-0.467-0.3-0.833-0.517-1.1-0.65c-0.5-0.233-0.9-0.3-1.2-0.2c-0.233,0.066-0.533,0.333-0.9,0.8c-0.3,0.367-0.667,0.5-1.1,0.4
			c-0.3-0.066-0.633-0.25-1-0.55c-0.433-0.367-0.75-0.6-0.95-0.7c-0.667-0.3-1.517-0.1-2.55,0.6c-1.066,0.733-1.917,1.017-2.55,0.85
			c-0.934-0.4-1.567-0.667-1.9-0.8c-0.567-0.167-1.25,0.067-2.05,0.7c-1.9,1.467-3.483,2.3-4.75,2.5
			c-1.733,0.267-3.217-0.517-4.45-2.35c-0.034-0.066-0.133-0.3-0.3-0.7c-0.066-0.2-0.25-0.333-0.55-0.4
			c-0.3-0.066-0.75,0.167-1.35,0.7c-0.567,0.533-1.017,0.767-1.35,0.7c-0.667-0.1-0.95-0.483-0.85-1.15c0.2-1.167,0.3-1.767,0.3-1.8
			c-0.133-0.667-0.583-0.833-1.35-0.5c-0.233,0.1-0.767,0.433-1.6,1c-0.433,0.333-1.066,0.783-1.9,1.35
			c-0.733,0.433-1.45,0.633-2.15,0.6c-0.533-0.034-1.517-0.25-2.95-0.65c-1.1-0.333-2.117-0.383-3.05-0.15
			c-0.8,0.333-1.45,0.55-1.95,0.65c-0.933,0.233-1.55,0.133-1.85-0.3c-0.167-0.3-0.25-0.933-0.25-1.9c0-0.833-0.2-1.417-0.6-1.75
			c-1.034-0.833-2.517-0.85-4.45-0.05c-2.1,1.1-3.567,1.767-4.4,2c-0.733,0.233-1.5,0-2.3-0.7c-0.867-0.733-1.633-1.05-2.3-0.95
			c-0.133,0.033-0.767,0.317-1.9,0.85c-0.867,0.433-1.517,0.517-1.95,0.25c-0.5-0.3-0.65-0.967-0.45-2
			c0.167-0.9-0.05-1.417-0.65-1.55c-0.7,0.1-1.216,0.15-1.55,0.15c-0.567-0.033-0.767-0.45-0.6-1.25
			c0.067-0.367,0.434-0.967,1.1-1.8c0.667-0.833,1.067-1.367,1.2-1.6c1.8-2.667,2.933-4.15,3.4-4.45c2.9-1.967,6.8-3.85,11.7-5.65
			c5.367-1.967,9.333-3.717,11.9-5.25c4.933-2.934,8.7-5.017,11.3-6.25c4.4-2.033,8.417-3.217,12.05-3.55
			c5.034-0.433,9.983,0.217,14.85,1.95c2.067,0.7,6.383,2.7,12.95,6l3.25,1.65C87.85,18.217,91.667,20.283,95.3,22.35z"/>
		
			<linearGradient id="SVGID_9_" gradientUnits="userSpaceOnUse" x1="1.6108" y1="-56.4834" x2="30.8379" y2="-56.4834" gradientTransform="matrix(-0.012 0.9999 -0.9999 -0.012 -2.478156e-004 2.044812e-005)">
			<stop  offset="0" style="stop-color:#E84A34"/>
			<stop  offset="0.2275" style="stop-color:#E4542C"/>
			<stop  offset="0.4863" style="stop-color:#DD651E"/>
			<stop  offset="1" style="stop-color:#DE7307"/>
		</linearGradient>
		<path style="fill-rule:evenodd;clip-rule:evenodd;fill:url(#SVGID_9_);" d="M82.25,37.05c-1.867-1.433-3.05-2.283-3.55-2.55
			c-1.2-0.567-2.367-0.367-3.5,0.6c-1.767,1.533-2.784,2.35-3.05,2.45c-1.3,0.5-2.867,0.284-4.7-0.65
			c-2.733-1.433-4.25-2.183-4.55-2.25c-0.7,0.3-1.2,0.434-1.5,0.4c-0.167-0.033-0.383-0.25-0.65-0.65
			c-0.267-0.367-0.483-0.55-0.65-0.55c-0.633,0-1.4,0.5-2.3,1.5c-0.867,0.867-1.75,1.2-2.65,1c-0.867-0.434-1.467-0.7-1.8-0.8
			c-0.533-0.2-1.167,0.017-1.9,0.65c-2,1.633-3.617,2.533-4.85,2.7c-1.733,0.2-3.217-0.816-4.45-3.05
			c-0.833-1.5-1.35-2.317-1.55-2.45c-0.5-0.333-1.417-0.217-2.75,0.35c-2.133,1.233-3.617,1.983-4.45,2.25
			c-1.267,0.4-2.733-0.017-4.4-1.25c-0.5-0.433-0.867-0.733-1.1-0.9c-0.367-0.267-0.767-0.417-1.2-0.45c-0.133,0-0.434,0.1-0.9,0.3
			c-0.4,0.2-0.7,0.25-0.9,0.15c-0.533-0.333-0.85-0.867-0.95-1.6c-0.067-0.633-0.517-1.067-1.35-1.3c-0.6-0.133-1.4-0.05-2.4,0.25
			c-1.1,0.433-1.867,0.733-2.3,0.9c-2.2,0.8-3.667,1.1-4.4,0.9c-1.1-0.333-0.983-1.683,0.35-4.05c-0.8-0.633-2.167,0.066-4.1,2.1
			c-1.933,2.067-3.533,2.617-4.8,1.65c0.2-0.934,0.683-1.817,1.45-2.65c0.934-0.867,1.617-1.566,2.05-2.1
			c-0.567,0.3-1.6,1.033-3.1,2.2c-1.333,0.934-2.367,1.217-3.1,0.85C1.683,30.333,2,29.417,3.2,28.25
			c1.6-1.333,2.716-2.283,3.35-2.85c0.5-0.433,1.75-1.383,3.75-2.85c2.534-1.9,5.833-4.05,9.9-6.45c6.4-3.833,9.767-5.85,10.1-6.05
			c4.8-3,8.383-5.066,10.75-6.2c4.2-2.067,8.017-3.25,11.45-3.55c4.767-0.466,9.467,0.167,14.1,1.9c2,0.733,6.083,2.733,12.25,6
			c6.633,3.533,12.566,6.917,17.8,10.15c10.133,6.267,14.617,10.2,13.45,11.8c-0.333,0.5-1.133,0.483-2.4-0.05
			c-1.534-0.667-2.4-0.983-2.6-0.95c-1.467,0.167-2.05,0.633-1.75,1.4c0.566,1.333,0.733,2.25,0.5,2.75
			c-0.467,1.1-2.1,1.184-4.9,0.25c-3.167-1.066-5-1.483-5.5-1.25c-0.034,0.733,0.433,1.917,1.4,3.55
			c0.566,0.933,0.117,1.45-1.35,1.55c-1,0.067-2.15-0.267-3.45-1c-1.867-1.066-2.95-1.65-3.25-1.75
			c-1.5-0.533-1.983-0.283-1.45,0.75c0.8,1.5,0.883,2.483,0.25,2.95C85.067,38.717,83.95,38.283,82.25,37.05z"/>
	</g>
	
		<use xlink:href="#flash0.ai_x2F_Layer_3_x2F__x3C_Path_x3E__x5F_4"  width="34.25" height="4.247" y="-4.247" transform="matrix(1 0 0 -1 39.3501 3.7998)" style="overflow:visible;opacity:0.4883;enable-background:new    ;"/>
	
		<use xlink:href="#flash0.ai_x2F_Layer_3_x2F__x3C_Path_x3E__x5F_3"  width="15.7" height="2.344" y="-2.326" transform="matrix(1 0 0 -1 48.25 0)" style="overflow:visible;opacity:0.4883;enable-background:new    ;"/>
	
		<use xlink:href="#flash0.ai_x2F_Layer_3_x2F__x3C_Path_x3E__x5F_2"  width="30.788" height="9.873" y="-9.873" transform="matrix(1 0 0 -1 30.9502 6.1001)" style="overflow:visible;opacity:0.4883;enable-background:new    ;"/>
	
		<use xlink:href="#flash0.ai_x2F_Layer_3_x2F__x3C_Path_x3E__x5F_1"  width="6.603" height="4.538" y="-4.513" transform="matrix(1 0 0 -1 63.1001 10.6001)" style="overflow:visible;opacity:0.4883;enable-background:new    ;"/>
	
		<use xlink:href="#flash0.ai_x2F_Layer_3_x2F__x3C_Path_x3E_"  width="9.411" height="6.225" x="-0.011" y="-6.225" transform="matrix(1 0 0 -1 71.2998 6.7998)" style="overflow:visible;opacity:0.4883;enable-background:new    ;"/>
</g>
</svg>
