<?xml version="1.0" encoding="iso-8859-1"?>
<!-- Generator: Adobe Illustrator 15.1.0, SVG Export Plug-In . SVG Version: 6.00 Build 0)  -->
<!DOCTYPE svg PUBLIC "-//W3C//DTD SVG 1.1//EN" "http://www.w3.org/Graphics/SVG/1.1/DTD/svg11.dtd">
<svg version="1.1" id="Layer_3" xmlns="http://www.w3.org/2000/svg" xmlns:xlink="http://www.w3.org/1999/xlink" x="0px" y="0px"
	 width="1777.25px" height="455.05px" viewBox="0 0 1777.25 455.05" style="enable-background:new 0 0 1777.25 455.05;"
	 xml:space="preserve">
<symbol  id="flash0.ai_x2F_Layer_3_x2F__x3C_Group_x3E_" viewBox="0 -455.05 1777.25 455.05">
	<g id="Layer_1_2_">
		<g>
			<path style="fill-rule:evenodd;clip-rule:evenodd;fill:#E6EDED;" d="M962.55-98.75c1.233-1.233,1.85-2.717,1.85-4.45
				c0-1.733-0.617-3.216-1.85-4.45c-1.2-1.233-2.667-1.85-4.4-1.85s-3.216,0.617-4.45,1.85s-1.85,2.717-1.85,4.45
				c0,1.733,0.617,3.217,1.85,4.45s2.716,1.85,4.45,1.85S961.35-97.517,962.55-98.75z"/>
			<path style="fill-rule:evenodd;clip-rule:evenodd;fill:#E6EDED;" d="M401.75-324c1.367,0,2.55-0.483,3.55-1.45
				c0.967-1,1.45-2.183,1.45-3.55s-0.483-2.55-1.45-3.55c-1-0.967-2.183-1.45-3.55-1.45s-2.55,0.483-3.55,1.45
				c-0.967,1-1.45,2.183-1.45,3.55s0.483,2.55,1.45,3.55C399.2-324.483,400.383-324,401.75-324z"/>
			<path style="fill-rule:evenodd;clip-rule:evenodd;fill:#E6EDED;" d="M1009.75-78c1.733,0,3.217-0.617,4.45-1.85
				s1.85-2.717,1.85-4.45c0-1.733-0.616-3.217-1.85-4.45s-2.717-1.85-4.45-1.85s-3.217,0.617-4.45,1.85
				c-1.233,1.2-1.85,2.683-1.85,4.45c0,1.733,0.616,3.216,1.85,4.45S1008.017-78,1009.75-78z"/>
			<path style="fill-rule:evenodd;clip-rule:evenodd;fill:#E6EDED;" d="M503.55-229.4c0-1.767-0.633-3.267-1.9-4.5
				c-1.233-1.267-2.733-1.9-4.5-1.9s-3.283,0.633-4.55,1.9c-1.233,1.233-1.85,2.733-1.85,4.5s0.617,3.283,1.85,4.55
				c1.267,1.233,2.783,1.85,4.55,1.85s3.267-0.617,4.5-1.85C502.917-226.117,503.55-227.633,503.55-229.4z"/>
			<path style="fill-rule:evenodd;clip-rule:evenodd;fill:#E6EDED;" d="M77.5-101.7c1.267,1.233,2.783,1.85,4.55,1.85
				c1.767,0,3.284-0.617,4.55-1.85c1.233-1.267,1.85-2.783,1.85-4.55s-0.617-3.283-1.85-4.55c-1.267-1.233-2.783-1.85-4.55-1.85
				c-1.767,0-3.283,0.617-4.55,1.85c-1.233,1.267-1.85,2.783-1.85,4.55S76.267-102.967,77.5-101.7z"/>
			<path style="fill-rule:evenodd;clip-rule:evenodd;fill:#E6EDED;" d="M566.55-122c0-1.333-0.466-2.467-1.4-3.4
				c-0.933-0.934-2.066-1.4-3.4-1.4s-2.467,0.466-3.4,1.4c-0.934,0.933-1.4,2.066-1.4,3.4s0.466,2.467,1.4,3.4
				c0.933,0.934,2.066,1.4,3.4,1.4s2.467-0.466,3.4-1.4C566.083-119.533,566.55-120.667,566.55-122z"/>
			<path style="fill-rule:evenodd;clip-rule:evenodd;fill:#E6EDED;" d="M1777.25-206.25c0-1.333-0.467-2.467-1.4-3.4
				c-0.934-0.934-2.067-1.4-3.4-1.4c-1.333,0-2.467,0.466-3.4,1.4c-0.933,0.933-1.4,2.066-1.4,3.4s0.467,2.467,1.4,3.4
				c0.934,0.934,2.067,1.4,3.4,1.4c1.333,0,2.466-0.466,3.4-1.4C1776.783-203.783,1777.25-204.917,1777.25-206.25z"/>
			<path style="fill-rule:evenodd;clip-rule:evenodd;fill:#E6EDED;" d="M1594.55-258c0-1.333-0.466-2.467-1.4-3.4
				c-0.933-0.934-2.066-1.4-3.4-1.4s-2.467,0.466-3.4,1.4c-0.934,0.933-1.4,2.066-1.4,3.4s0.466,2.467,1.4,3.4
				c0.933,0.934,2.066,1.4,3.4,1.4s2.467-0.466,3.4-1.4C1594.083-255.533,1594.55-256.667,1594.55-258z"/>
			<path style="fill-rule:evenodd;clip-rule:evenodd;fill:#E6EDED;" d="M413.55-288.25c0-0.767-0.267-1.433-0.8-2
				c-0.567-0.533-1.233-0.8-2-0.8s-1.433,0.267-2,0.8c-0.533,0.567-0.8,1.233-0.8,2s0.267,1.433,0.8,2c0.567,0.533,1.233,0.8,2,0.8
				s1.433-0.267,2-0.8C413.283-286.817,413.55-287.483,413.55-288.25z"/>
			<path style="fill-rule:evenodd;clip-rule:evenodd;fill:#E6EDED;" d="M668.05-279.9c0-0.767-0.267-1.4-0.8-1.9
				c-0.5-0.534-1.133-0.8-1.9-0.8c-0.733,0-1.367,0.267-1.9,0.8c-0.534,0.533-0.8,1.167-0.8,1.9s0.267,1.367,0.8,1.9
				c0.533,0.533,1.167,0.8,1.9,0.8s1.367-0.267,1.9-0.8S668.05-279.167,668.05-279.9z"/>
			<path style="fill-rule:evenodd;clip-rule:evenodd;fill:#E6EDED;" d="M523.35-415.7c0-0.767-0.267-1.4-0.8-1.9
				c-0.5-0.533-1.133-0.8-1.9-0.8c-0.733,0-1.367,0.267-1.9,0.8s-0.8,1.167-0.8,1.9c0,0.733,0.267,1.367,0.8,1.9
				c0.533,0.533,1.167,0.8,1.9,0.8s1.367-0.267,1.9-0.8C523.083-414.333,523.35-414.967,523.35-415.7z"/>
			<path style="fill-rule:evenodd;clip-rule:evenodd;fill:#E6EDED;" d="M956.85-125.85c0-0.733-0.25-1.35-0.75-1.85
				c-0.534-0.533-1.167-0.8-1.9-0.8s-1.35,0.267-1.85,0.8c-0.534,0.5-0.8,1.117-0.8,1.85s0.267,1.35,0.8,1.85
				c0.5,0.533,1.117,0.8,1.85,0.8s1.366-0.267,1.9-0.8C956.6-124.5,956.85-125.117,956.85-125.85z"/>
			<path style="fill-rule:evenodd;clip-rule:evenodd;fill:#E6EDED;" d="M719.75-238.35c0-0.767-0.267-1.4-0.8-1.9
				c-0.5-0.533-1.134-0.8-1.9-0.8c-0.733,0-1.366,0.267-1.9,0.8c-0.533,0.5-0.8,1.133-0.8,1.9c0,0.733,0.267,1.367,0.8,1.9
				c0.534,0.534,1.167,0.8,1.9,0.8c0.767,0,1.4-0.267,1.9-0.8C719.483-236.983,719.75-237.617,719.75-238.35z"/>
			<path style="fill-rule:evenodd;clip-rule:evenodd;fill:#E6EDED;" d="M643.75-14c0-0.767-0.267-1.4-0.8-1.9
				c-0.5-0.533-1.134-0.8-1.9-0.8c-0.733,0-1.366,0.267-1.9,0.8c-0.533,0.5-0.8,1.133-0.8,1.9c0,0.733,0.267,1.367,0.8,1.9
				c0.534,0.533,1.167,0.8,1.9,0.8c0.767,0,1.4-0.267,1.9-0.8C643.483-12.633,643.75-13.267,643.75-14z"/>
			<path style="fill-rule:evenodd;clip-rule:evenodd;fill:#E6EDED;" d="M525.95-182.85c0.533,0.533,1.167,0.8,1.9,0.8
				c0.767,0,1.4-0.267,1.9-0.8c0.533-0.533,0.8-1.167,0.8-1.9c0-0.767-0.267-1.4-0.8-1.9c-0.5-0.533-1.133-0.8-1.9-0.8
				c-0.733,0-1.367,0.267-1.9,0.8c-0.534,0.5-0.8,1.133-0.8,1.9C525.15-184.017,525.417-183.383,525.95-182.85z"/>
			<path style="fill-rule:evenodd;clip-rule:evenodd;fill:#E6EDED;" d="M223.15-232.95c0-0.767-0.267-1.4-0.8-1.9
				c-0.5-0.533-1.133-0.8-1.9-0.8c-0.733,0-1.367,0.267-1.9,0.8c-0.533,0.5-0.8,1.133-0.8,1.9c0,0.733,0.267,1.367,0.8,1.9
				c0.534,0.533,1.167,0.8,1.9,0.8c0.767,0,1.4-0.267,1.9-0.8C222.883-231.583,223.15-232.217,223.15-232.95z"/>
			<path style="fill-rule:evenodd;clip-rule:evenodd;fill:#E6EDED;" d="M1281.75-140c0-0.767-0.267-1.4-0.8-1.9
				c-0.5-0.533-1.134-0.8-1.9-0.8c-0.733,0-1.366,0.267-1.9,0.8c-0.533,0.5-0.8,1.133-0.8,1.9c0,0.733,0.267,1.367,0.8,1.9
				c0.534,0.533,1.167,0.8,1.9,0.8c0.767,0,1.4-0.267,1.9-0.8C1281.483-138.633,1281.75-139.267,1281.75-140z"/>
			<path style="fill-rule:evenodd;clip-rule:evenodd;fill:#E6EDED;" d="M836.45-2.7c0-0.767-0.267-1.4-0.8-1.9
				c-0.5-0.533-1.133-0.8-1.9-0.8c-0.733,0-1.367,0.267-1.9,0.8c-0.534,0.5-0.8,1.133-0.8,1.9c0,0.733,0.267,1.367,0.8,1.9
				c0.533,0.533,1.167,0.8,1.9,0.8c0.767,0,1.4-0.267,1.9-0.8C836.184-1.333,836.45-1.967,836.45-2.7z"/>
			<path style="fill-rule:evenodd;clip-rule:evenodd;fill:#E6EDED;" d="M386.85-343c0-0.6-0.2-1.1-0.6-1.5
				c-0.433-0.4-0.933-0.6-1.5-0.6c-0.6,0-1.1,0.2-1.5,0.6s-0.6,0.9-0.6,1.5c0,0.567,0.2,1.067,0.6,1.5c0.4,0.4,0.9,0.6,1.5,0.6
				c0.567,0,1.067-0.2,1.5-0.6C386.65-341.933,386.85-342.433,386.85-343z"/>
			<path style="fill-rule:evenodd;clip-rule:evenodd;fill:#E6EDED;" d="M471.95-269c0-0.6-0.2-1.1-0.6-1.5
				c-0.434-0.4-0.934-0.6-1.5-0.6c-0.567,0-1.067,0.2-1.5,0.6c-0.4,0.4-0.6,0.9-0.6,1.5c0,0.567,0.2,1.067,0.6,1.5
				c0.433,0.4,0.933,0.6,1.5,0.6c0.566,0,1.066-0.2,1.5-0.6C471.75-267.933,471.95-268.433,471.95-269z"/>
			<path style="fill-rule:evenodd;clip-rule:evenodd;fill:#E6EDED;" d="M634.6-106c0-0.6-0.2-1.1-0.6-1.5
				c-0.434-0.4-0.934-0.6-1.5-0.6c-0.6,0-1.1,0.2-1.5,0.6s-0.6,0.9-0.6,1.5c0,0.567,0.2,1.067,0.6,1.5c0.4,0.4,0.9,0.6,1.5,0.6
				c0.566,0,1.066-0.2,1.5-0.6C634.4-104.933,634.6-105.433,634.6-106z"/>
			<path style="fill-rule:evenodd;clip-rule:evenodd;fill:#E6EDED;" d="M386.55-432.15c0-0.567-0.2-1.067-0.6-1.5
				c-0.434-0.4-0.934-0.6-1.5-0.6c-0.567,0-1.067,0.2-1.5,0.6c-0.4,0.433-0.6,0.933-0.6,1.5c0,0.566,0.2,1.066,0.6,1.5
				c0.433,0.4,0.933,0.6,1.5,0.6c0.566,0,1.066-0.2,1.5-0.6C386.35-431.083,386.55-431.583,386.55-432.15z"/>
			<path style="fill-rule:evenodd;clip-rule:evenodd;fill:#E6EDED;" d="M256.55-130.35c0-0.6-0.2-1.1-0.6-1.5
				c-0.434-0.4-0.934-0.6-1.5-0.6c-0.567,0-1.067,0.2-1.5,0.6c-0.4,0.4-0.6,0.9-0.6,1.5c0,0.567,0.2,1.067,0.6,1.5
				c0.433,0.4,0.933,0.6,1.5,0.6c0.566,0,1.066-0.2,1.5-0.6C256.35-129.283,256.55-129.783,256.55-130.35z"/>
			<path style="fill-rule:evenodd;clip-rule:evenodd;fill:#E6EDED;" d="M400.5-311c0-0.6-0.2-1.1-0.6-1.5
				c-0.433-0.4-0.933-0.6-1.5-0.6c-0.6,0-1.1,0.2-1.5,0.6c-0.433,0.4-0.65,0.9-0.65,1.5c0,0.567,0.217,1.067,0.65,1.5
				c0.4,0.4,0.9,0.6,1.5,0.6c0.567,0,1.067-0.2,1.5-0.6C400.3-309.933,400.5-310.433,400.5-311z"/>
			<path style="fill-rule:evenodd;clip-rule:evenodd;fill:#E6EDED;" d="M802.85-337.9c0-0.6-0.2-1.1-0.6-1.5
				c-0.434-0.4-0.95-0.6-1.55-0.6c-0.567,0-1.067,0.2-1.5,0.6c-0.4,0.4-0.6,0.9-0.6,1.5c0,0.566,0.2,1.066,0.6,1.5
				c0.433,0.4,0.933,0.6,1.5,0.6c0.6,0,1.116-0.2,1.55-0.6C802.65-336.833,802.85-337.333,802.85-337.9z"/>
			<path style="fill-rule:evenodd;clip-rule:evenodd;fill:#E6EDED;" d="M1214.35-54.7c0.933-0.9,1.4-2,1.4-3.3
				s-0.467-2.417-1.4-3.35c-0.934-0.933-2.05-1.4-3.35-1.4s-2.4,0.467-3.3,1.4c-0.934,0.934-1.4,2.05-1.4,3.35s0.467,2.4,1.4,3.3
				c0.9,0.934,2,1.4,3.3,1.4S1213.417-53.767,1214.35-54.7z"/>
			<path style="fill-rule:evenodd;clip-rule:evenodd;fill:#E6EDED;" d="M505.75-324c0-1.3-0.467-2.417-1.4-3.35
				c-0.934-0.933-2.05-1.4-3.35-1.4s-2.4,0.467-3.3,1.4c-0.934,0.934-1.4,2.05-1.4,3.35s0.467,2.4,1.4,3.3c0.9,0.934,2,1.4,3.3,1.4
				s2.417-0.467,3.35-1.4C505.283-321.6,505.75-322.7,505.75-324z"/>
			<path style="fill-rule:evenodd;clip-rule:evenodd;fill:#E6EDED;" d="M1554.25-56.1c0-1.767-0.617-3.283-1.85-4.55
				c-1.267-1.233-2.783-1.85-4.55-1.85s-3.284,0.617-4.55,1.85c-1.233,1.267-1.85,2.783-1.85,4.55s0.616,3.267,1.85,4.5
				c1.267,1.267,2.784,1.9,4.55,1.9s3.283-0.633,4.55-1.9C1553.633-52.833,1554.25-54.333,1554.25-56.1z"/>
			<path style="fill-rule:evenodd;clip-rule:evenodd;fill:#E6EDED;" d="M1581.25-11.45c0-0.767-0.267-1.4-0.8-1.9
				c-0.5-0.533-1.134-0.8-1.9-0.8c-0.733,0-1.366,0.267-1.9,0.8c-0.533,0.5-0.8,1.133-0.8,1.9c0,0.733,0.267,1.367,0.8,1.9
				c0.534,0.533,1.167,0.8,1.9,0.8s1.367-0.267,1.9-0.8C1580.983-10.083,1581.25-10.717,1581.25-11.45z"/>
			<path style="fill-rule:evenodd;clip-rule:evenodd;fill:#E6EDED;" d="M1522.7-95.75c0-0.567-0.2-1.067-0.6-1.5
				c-0.434-0.4-0.95-0.6-1.55-0.6c-0.566,0-1.066,0.2-1.5,0.6c-0.4,0.433-0.6,0.933-0.6,1.5c0,0.6,0.2,1.1,0.6,1.5
				c0.434,0.433,0.934,0.65,1.5,0.65c0.6,0,1.117-0.217,1.55-0.65C1522.5-94.65,1522.7-95.15,1522.7-95.75z"/>
			<path style="fill-rule:evenodd;clip-rule:evenodd;fill:#E6EDED;" d="M1555.1-147.4c0.9-0.934,1.35-2.05,1.35-3.35
				s-0.45-2.417-1.35-3.35c-0.934-0.9-2.05-1.35-3.35-1.35s-2.417,0.45-3.35,1.35c-0.933,0.934-1.4,2.05-1.4,3.35
				s0.467,2.417,1.4,3.35c0.934,0.933,2.05,1.4,3.35,1.4S1554.167-146.467,1555.1-147.4z"/>
			<path style="fill-rule:evenodd;clip-rule:evenodd;fill:#E6EDED;" d="M1334.45-102.75c0-1.3-0.45-2.417-1.35-3.35
				c-0.934-0.9-2.05-1.35-3.35-1.35s-2.417,0.45-3.35,1.35c-0.933,0.934-1.4,2.05-1.4,3.35s0.467,2.417,1.4,3.35
				c0.934,0.933,2.05,1.4,3.35,1.4s2.417-0.467,3.35-1.4C1334-100.333,1334.45-101.45,1334.45-102.75z"/>
			<path style="fill-rule:evenodd;clip-rule:evenodd;fill:#E6EDED;" d="M337.3-18.65c0-1.233-0.433-2.283-1.3-3.15
				s-1.917-1.3-3.15-1.3s-2.283,0.434-3.15,1.3s-1.3,1.917-1.3,3.15s0.434,2.283,1.3,3.15s1.917,1.3,3.15,1.3s2.283-0.433,3.15-1.3
				S337.3-17.417,337.3-18.65z"/>
			<path style="fill-rule:evenodd;clip-rule:evenodd;fill:#E6EDED;" d="M8.9-172.7c0-1.233-0.433-2.283-1.3-3.15
				s-1.917-1.3-3.15-1.3c-1.233,0-2.284,0.433-3.15,1.3S0-173.933,0-172.7c0,1.233,0.433,2.284,1.3,3.15s1.917,1.3,3.15,1.3
				c1.233,0,2.283-0.433,3.15-1.3S8.9-171.467,8.9-172.7z"/>
			<path style="fill-rule:evenodd;clip-rule:evenodd;fill:#E6EDED;" d="M392.2-61.55c0-1.233-0.434-2.284-1.3-3.15
				s-1.917-1.3-3.15-1.3s-2.283,0.433-3.15,1.3s-1.3,1.917-1.3,3.15c0,1.233,0.434,2.283,1.3,3.15s1.917,1.3,3.15,1.3
				s2.283-0.433,3.15-1.3S392.2-60.317,392.2-61.55z"/>
			<path style="fill-rule:evenodd;clip-rule:evenodd;fill:#E6EDED;" d="M977.95-55.35c0-1.3-0.45-2.417-1.35-3.35
				c-0.934-0.933-2.05-1.4-3.35-1.4s-2.417,0.467-3.35,1.4c-0.933,0.934-1.4,2.05-1.4,3.35c0,1.3,0.467,2.4,1.4,3.3
				c0.934,0.933,2.05,1.4,3.35,1.4s2.417-0.467,3.35-1.4C977.5-52.95,977.95-54.05,977.95-55.35z"/>
			<path style="fill-rule:evenodd;clip-rule:evenodd;fill:#E6EDED;" d="M1455.75-211.05c1.233,1.233,2.717,1.85,4.45,1.85
				s3.2-0.617,4.4-1.85c1.233-1.233,1.85-2.717,1.85-4.45s-0.617-3.217-1.85-4.45c-1.2-1.233-2.667-1.85-4.4-1.85
				s-3.217,0.617-4.45,1.85c-1.233,1.2-1.85,2.684-1.85,4.45C1453.9-213.767,1454.517-212.283,1455.75-211.05z"/>
			<path style="fill-rule:evenodd;clip-rule:evenodd;fill:#E6EDED;" d="M1130-362.3c0-1.733-0.617-3.217-1.85-4.45
				c-1.2-1.233-2.667-1.85-4.4-1.85s-3.217,0.617-4.45,1.85c-1.233,1.2-1.85,2.683-1.85,4.45c0,1.733,0.616,3.216,1.85,4.45
				s2.717,1.85,4.45,1.85s3.2-0.617,4.4-1.85C1129.383-359.083,1130-360.567,1130-362.3z"/>
			<path style="fill-rule:evenodd;clip-rule:evenodd;fill:#E6EDED;" d="M1245.3-297.85c1.233,1.233,2.717,1.85,4.45,1.85
				s3.217-0.617,4.45-1.85s1.85-2.717,1.85-4.45c0-1.733-0.616-3.217-1.85-4.45s-2.717-1.85-4.45-1.85s-3.217,0.617-4.45,1.85
				c-1.233,1.2-1.85,2.683-1.85,4.45C1243.45-300.567,1244.066-299.083,1245.3-297.85z"/>
			<path style="fill-rule:evenodd;clip-rule:evenodd;fill:#E6EDED;" d="M1456.25-235.5c0.733,0,1.367-0.267,1.9-0.8
				c0.5-0.5,0.75-1.117,0.75-1.85c0-0.767-0.25-1.4-0.75-1.9s-1.133-0.75-1.9-0.75c-0.733,0-1.35,0.25-1.85,0.75
				c-0.533,0.533-0.8,1.167-0.8,1.9s0.267,1.35,0.8,1.85C1454.9-235.767,1455.517-235.5,1456.25-235.5z"/>
			<path style="fill-rule:evenodd;clip-rule:evenodd;fill:#E6EDED;" d="M390.3-197.75c0.534-0.5,0.8-1.117,0.8-1.85
				s-0.267-1.35-0.8-1.85c-0.5-0.533-1.117-0.8-1.85-0.8c-0.733,0-1.35,0.267-1.85,0.8c-0.533,0.5-0.8,1.117-0.8,1.85
				s0.267,1.35,0.8,1.85c0.5,0.533,1.117,0.8,1.85,0.8C389.183-196.95,389.8-197.217,390.3-197.75z"/>
			<path style="fill-rule:evenodd;clip-rule:evenodd;fill:#E6EDED;" d="M292.45-104.25c0-0.933-0.317-1.717-0.95-2.35
				c-0.667-0.633-1.45-0.95-2.35-0.95c-0.933,0-1.717,0.316-2.35,0.95c-0.667,0.633-1,1.417-1,2.35s0.333,1.717,1,2.35
				c0.633,0.633,1.417,0.95,2.35,0.95c0.9,0,1.684-0.316,2.35-0.95C292.133-102.533,292.45-103.317,292.45-104.25z"/>
			<path style="fill-rule:evenodd;clip-rule:evenodd;fill:#E6EDED;" d="M1495.75-280c1.3,0,2.417-0.467,3.35-1.4
				c0.9-0.934,1.35-2.05,1.35-3.35s-0.45-2.417-1.35-3.35c-0.934-0.9-2.05-1.35-3.35-1.35s-2.417,0.45-3.35,1.35
				c-0.933,0.934-1.4,2.05-1.4,3.35s0.467,2.417,1.4,3.35C1493.333-280.467,1494.45-280,1495.75-280z"/>
			<path style="fill-rule:evenodd;clip-rule:evenodd;fill:#E6EDED;" d="M1155.45-366.75c0-1.3-0.45-2.417-1.35-3.35
				c-0.934-0.9-2.05-1.35-3.35-1.35c-1.333,0-2.45,0.45-3.35,1.35c-0.933,0.934-1.4,2.05-1.4,3.35s0.467,2.417,1.4,3.35
				c0.9,0.933,2.017,1.4,3.35,1.4c1.3,0,2.417-0.467,3.35-1.4C1155-364.333,1155.45-365.45,1155.45-366.75z"/>
			<path style="fill-rule:evenodd;clip-rule:evenodd;fill:#E6EDED;" d="M1480-167.65c0-1.333-0.45-2.45-1.35-3.35
				c-0.933-0.933-2.05-1.4-3.35-1.4c-1.3,0-2.417,0.467-3.35,1.4c-0.934,0.9-1.4,2.017-1.4,3.35c0,1.3,0.467,2.4,1.4,3.3
				c0.933,0.934,2.05,1.4,3.35,1.4c1.3,0,2.417-0.466,3.35-1.4C1479.55-165.25,1480-166.35,1480-167.65z"/>
			<path style="fill-rule:evenodd;clip-rule:evenodd;fill:#E6EDED;" d="M1047.45-351.3c0-1.3-0.467-2.417-1.4-3.35
				c-0.9-0.9-2.017-1.35-3.35-1.35c-1.3,0-2.4,0.45-3.3,1.35c-0.933,0.933-1.4,2.05-1.4,3.35c0,1.3,0.467,2.4,1.4,3.3
				c0.9,0.933,2,1.4,3.3,1.4c1.333,0,2.45-0.467,3.35-1.4C1046.983-348.9,1047.45-350,1047.45-351.3z"/>
			<path style="fill-rule:evenodd;clip-rule:evenodd;fill:#E6EDED;" d="M1457.8-4.7c0.934-0.9,1.4-2,1.4-3.3s-0.467-2.417-1.4-3.35
				c-0.933-0.933-2.05-1.4-3.35-1.4c-1.3,0-2.4,0.467-3.3,1.4c-0.933,0.934-1.4,2.05-1.4,3.35s0.467,2.4,1.4,3.3
				c0.9,0.934,2,1.4,3.3,1.4C1455.75-3.3,1456.867-3.767,1457.8-4.7z"/>
			<path style="fill-rule:evenodd;clip-rule:evenodd;fill:#E6EDED;" d="M713.05-56c0-2.033-0.716-3.75-2.15-5.15
				c-1.4-1.434-3.117-2.15-5.15-2.15s-3.75,0.716-5.15,2.15c-1.434,1.4-2.15,3.117-2.15,5.15s0.716,3.75,2.15,5.15
				c1.4,1.434,3.117,2.15,5.15,2.15s3.75-0.716,5.15-2.15C712.333-52.25,713.05-53.967,713.05-56z"/>
			<path style="fill-rule:evenodd;clip-rule:evenodd;fill:#E6EDED;" d="M1131.75-234.7c2.033,0,3.75-0.716,5.15-2.15
				c1.434-1.4,2.15-3.117,2.15-5.15s-0.716-3.75-2.15-5.15c-1.4-1.434-3.117-2.15-5.15-2.15s-3.75,0.716-5.15,2.15
				c-1.434,1.4-2.15,3.117-2.15,5.15s0.716,3.75,2.15,5.15C1128-235.417,1129.717-234.7,1131.75-234.7z"/>
			<path style="fill-rule:evenodd;clip-rule:evenodd;fill:#E6EDED;" d="M272.5-143.85c1.433-1.4,2.15-3.117,2.15-5.15
				s-0.717-3.75-2.15-5.15c-1.433-1.434-3.15-2.15-5.15-2.15c-2.033,0-3.767,0.716-5.2,2.15c-1.433,1.4-2.15,3.117-2.15,5.15
				s0.717,3.75,2.15,5.15c1.434,1.434,3.167,2.15,5.2,2.15C269.35-141.7,271.067-142.417,272.5-143.85z"/>
			<path style="fill-rule:evenodd;clip-rule:evenodd;fill:#E6EDED;" d="M1626.25-78.5c0-2.933-1.017-5.417-3.05-7.45
				c-2.067-2.066-4.55-3.1-7.45-3.1s-5.367,1.033-7.4,3.1c-2.067,2.034-3.1,4.517-3.1,7.45c0,2.9,1.033,5.367,3.1,7.4
				c2.033,2.067,4.5,3.1,7.4,3.1s5.383-1.033,7.45-3.1C1625.233-73.133,1626.25-75.6,1626.25-78.5z"/>
			<path style="fill-rule:evenodd;clip-rule:evenodd;fill:#E6EDED;" d="M1110.5-450.25c0-1.333-0.467-2.467-1.4-3.4
				c-0.9-0.934-2.017-1.4-3.35-1.4s-2.467,0.466-3.4,1.4c-0.934,0.933-1.4,2.066-1.4,3.4s0.466,2.467,1.4,3.4
				c0.933,0.934,2.066,1.4,3.4,1.4s2.45-0.466,3.35-1.4C1110.033-447.783,1110.5-448.917,1110.5-450.25z"/>
			<path style="fill-rule:evenodd;clip-rule:evenodd;fill:#E6EDED;" d="M1308.55-449.05c0-1.333-0.466-2.45-1.4-3.35
				c-0.933-0.934-2.066-1.4-3.4-1.4s-2.467,0.466-3.4,1.4c-0.934,0.9-1.4,2.017-1.4,3.35c0,1.333,0.466,2.466,1.4,3.4
				c0.933,0.933,2.066,1.4,3.4,1.4s2.467-0.467,3.4-1.4C1308.083-446.583,1308.55-447.717,1308.55-449.05z"/>
			<path style="fill-rule:evenodd;clip-rule:evenodd;fill:#E6EDED;" d="M742.7-419.5c0-0.767-0.267-1.4-0.8-1.9
				c-0.5-0.533-1.133-0.8-1.9-0.8c-0.733,0-1.35,0.267-1.85,0.8c-0.533,0.533-0.8,1.167-0.8,1.9s0.267,1.367,0.8,1.9
				c0.5,0.533,1.117,0.8,1.85,0.8c0.767,0,1.4-0.267,1.9-0.8C742.434-418.133,742.7-418.767,742.7-419.5z"/>
			<path style="fill-rule:evenodd;clip-rule:evenodd;fill:#E6EDED;" d="M886.85-307.2c1.767,0,3.267-0.617,4.5-1.85
				c1.267-1.267,1.9-2.784,1.9-4.55s-0.633-3.283-1.9-4.55c-1.233-1.233-2.733-1.85-4.5-1.85s-3.284,0.617-4.55,1.85
				c-1.233,1.267-1.85,2.783-1.85,4.55s0.616,3.283,1.85,4.55C883.566-307.817,885.083-307.2,886.85-307.2z"/>
			<path style="fill-rule:evenodd;clip-rule:evenodd;fill:#E6EDED;" d="M920.25-268.95c0-0.767-0.267-1.4-0.8-1.9
				c-0.5-0.533-1.134-0.8-1.9-0.8c-0.733,0-1.366,0.267-1.9,0.8c-0.533,0.5-0.8,1.133-0.8,1.9c0,0.733,0.267,1.367,0.8,1.9
				c0.534,0.533,1.167,0.8,1.9,0.8s1.367-0.267,1.9-0.8C919.983-267.583,920.25-268.217,920.25-268.95z"/>
			<path style="fill-rule:evenodd;clip-rule:evenodd;fill:#E6EDED;" d="M861.65-353.25c0-0.567-0.2-1.067-0.6-1.5
				c-0.433-0.4-0.933-0.6-1.5-0.6c-0.566,0-1.066,0.2-1.5,0.6c-0.4,0.433-0.6,0.933-0.6,1.5c0,0.6,0.2,1.1,0.6,1.5
				c0.434,0.433,0.934,0.65,1.5,0.65c0.567,0,1.067-0.217,1.5-0.65C861.45-352.15,861.65-352.65,861.65-353.25z"/>
			<path style="fill-rule:evenodd;clip-rule:evenodd;fill:#E6EDED;" d="M895.45-408.25c0-1.3-0.467-2.417-1.4-3.35
				c-0.9-0.9-2.017-1.35-3.35-1.35c-1.3,0-2.4,0.45-3.3,1.35c-0.933,0.934-1.4,2.05-1.4,3.35c0,1.333,0.467,2.45,1.4,3.35
				c0.9,0.933,2,1.4,3.3,1.4c1.333,0,2.45-0.467,3.35-1.4C894.983-405.8,895.45-406.917,895.45-408.25z"/>
			<path style="fill-rule:evenodd;clip-rule:evenodd;fill:#E6EDED;" d="M798.15-265.5c0-1.3-0.45-2.417-1.35-3.35
				c-0.933-0.933-2.05-1.4-3.35-1.4c-1.3,0-2.417,0.467-3.35,1.4c-0.934,0.934-1.4,2.05-1.4,3.35s0.466,2.4,1.4,3.3
				c0.933,0.934,2.05,1.4,3.35,1.4c1.3,0,2.417-0.467,3.35-1.4C797.7-263.1,798.15-264.2,798.15-265.5z"/>
			<path style="fill-rule:evenodd;clip-rule:evenodd;fill:#E6EDED;" d="M374.45-188.25c0-1.3-0.45-2.417-1.35-3.35
				c-0.934-0.933-2.05-1.4-3.35-1.4c-1.333,0-2.45,0.467-3.35,1.4c-0.933,0.934-1.4,2.05-1.4,3.35s0.467,2.4,1.4,3.3
				c0.9,0.934,2.017,1.4,3.35,1.4c1.3,0,2.417-0.467,3.35-1.4C374-185.85,374.45-186.95,374.45-188.25z"/>
			<path style="fill-rule:evenodd;clip-rule:evenodd;fill:#E6EDED;" d="M844.8-384.6c2.034,2.067,4.5,3.1,7.4,3.1
				c2.9,0,5.383-1.033,7.45-3.1c2.034-2.033,3.05-4.5,3.05-7.4c0-2.933-1.017-5.417-3.05-7.45c-2.066-2.066-4.55-3.1-7.45-3.1
				c-2.9,0-5.367,1.033-7.4,3.1c-2.066,2.034-3.1,4.517-3.1,7.45C841.7-389.1,842.733-386.633,844.8-384.6z"/>
			<path style="fill-rule:evenodd;clip-rule:evenodd;fill:#E6EDED;" d="M384.15-222.5c0-2.9-1.017-5.383-3.05-7.45
				c-2.067-2.066-4.55-3.1-7.45-3.1s-5.367,1.033-7.4,3.1c-2.067,2.067-3.1,4.55-3.1,7.45s1.033,5.367,3.1,7.4
				c2.033,2.067,4.5,3.1,7.4,3.1s5.383-1.033,7.45-3.1C383.133-217.133,384.15-219.6,384.15-222.5z"/>
			<path style="fill-rule:evenodd;clip-rule:evenodd;fill:#E6EDED;" d="M515.75-23c0-1.4-0.483-2.6-1.45-3.6
				c-1-0.967-2.183-1.45-3.55-1.45c-1.4,0-2.583,0.483-3.55,1.45c-1,1-1.5,2.2-1.5,3.6c0,1.367,0.5,2.55,1.5,3.55
				c0.966,0.967,2.15,1.45,3.55,1.45c1.367,0,2.55-0.483,3.55-1.45C515.267-20.45,515.75-21.633,515.75-23z"/>
		</g>
	</g>
</symbol>
<use xlink:href="#flash0.ai_x2F_Layer_3_x2F__x3C_Group_x3E_"  width="1777.25" height="455.05" y="-455.05" transform="matrix(1 0 0 -1 0 0)" style="overflow:visible;opacity:0.6094;enable-background:new    ;"/>
</svg>
