<?xml version="1.0" encoding="iso-8859-1"?>
<!-- Generator: Adobe Illustrator 15.1.0, SVG Export Plug-In . SVG Version: 6.00 Build 0)  -->
<!DOCTYPE svg PUBLIC "-//W3C//DTD SVG 1.1//EN" "http://www.w3.org/Graphics/SVG/1.1/DTD/svg11.dtd">
<svg version="1.1" id="flash0.ai" xmlns="http://www.w3.org/2000/svg" xmlns:xlink="http://www.w3.org/1999/xlink" x="0px" y="0px"
	 width="154.25px" height="65.6px" viewBox="0 0 154.25 65.6" style="enable-background:new 0 0 154.25 65.6;" xml:space="preserve"
	>
<symbol  id="flash0.ai_x5F_17_x2F_Layer_114_x2F__x3C_Path_x3E_" viewBox="0 -41.25 154.25 41.25">
	<g id="Layer_1_2_">
		
			<radialGradient id="SVGID_1_" cx="77.125" cy="-20.625" r="72.3215" gradientTransform="matrix(1 0 0 -0.258 0 -25.9453)" gradientUnits="userSpaceOnUse">
			<stop  offset="0" style="stop-color:#000000;stop-opacity:0.6196"/>
			<stop  offset="1" style="stop-color:#000000;stop-opacity:0"/>
		</radialGradient>
		<path style="fill-rule:evenodd;clip-rule:evenodd;fill:url(#SVGID_1_);" d="M154.25-20.65c0-5.7-7.533-10.567-22.6-14.6
			c-15.066-4-33.25-6-54.55-6c-21.3,0-39.467,2-54.5,6C7.533-31.217,0-26.35,0-20.65c0,5.7,7.533,10.566,22.6,14.6
			C37.633-2.017,55.8,0,77.1,0c21.3,0,39.483-2.017,54.55-6.05C146.717-10.083,154.25-14.95,154.25-20.65z"/>
	</g>
</symbol>
<symbol  id="flash0.ai_x5F_17_x2F_Layer_114_x2F__x3C_Path_x3E__x5F_0" viewBox="0.014 -27.28 123.486 27.265">
	<g id="Layer_1_3_">
		<path style="fill-rule:evenodd;clip-rule:evenodd;" d="M109.95-4.1c1.9-0.4,3.75-0.8,5.55-1.2c0.867-0.1,1.617-0.267,2.25-0.5
			c0.767-0.3,1.267-0.467,1.5-0.5c0.833-0.167,0.833-0.667,0-1.5l4.25-1.75c-1.333-0.667-2.25-1.417-2.75-2.25
			c-0.5-0.833-1.5-1.5-3-2l-6-2.5c-1.1-0.467-2-0.983-2.7-1.55c-0.6-0.5-1.117-0.816-1.55-0.95c-3.833-1-6.25-1.75-7.25-2.25
			c-0.6-0.3-1.683-0.667-3.25-1.1c-2.033-0.567-3.117-0.867-3.25-0.9c-0.6-0.2-1.567-0.267-2.9-0.2c-2.3,0.133-3.583,0.2-3.85,0.2
			c-1.2,0-1.9-0.05-2.1-0.15c-0.333-0.233-0.8-0.517-1.4-0.85c-0.767-0.434-1.667-0.684-2.7-0.75h-4.55c-1.6,0-2.633-0.05-3.1-0.15
			c-0.467-0.066-0.933-0.1-1.4-0.1H66c-2.667,0-5.75-0.583-9.25-1.75c-1.2-0.4-2.183-0.55-2.95-0.45l-4.8,0.7
			c-2.2,0.2-3.35,0.25-3.45,0.15c0.233-0.2,0.133-0.333-0.3-0.4c-1.033-0.2-3.2,0.05-6.5,0.75c-2.333,0.4-3.983,0.7-4.95,0.9
			c-1.7,0.333-2.8,0.7-3.3,1.1c-0.267,0.2-0.933,0.617-2,1.25c-0.967,0.566-1.883,1.233-2.75,2c-0.833,0.733-1.8,1.1-2.9,1.1
			c-1.7,0-2.983,0.133-3.85,0.4c-1.3,0.367-2.117,0.5-2.45,0.4c-0.566-0.167-1.25-0.217-2.05-0.15c-1.333,0.1-2.017,0.167-2.05,0.2
			c-0.367,0.267-1.1,0.7-2.2,1.3C9.183-16.983,8.033-16.7,6.8-16.7c-1.333-0.033-2.683,0.267-4.05,0.9
			c-2.033,0.9-2.933,1.883-2.7,2.95c0.633,0.934,0.867,1.533,0.7,1.8c-0.2,0.3,0.233,0.533,1.3,0.7c1.3,0.267,2.034,0.45,2.2,0.55
			C4.45-9.667,4.9-9.233,5.6-8.5c0.7,0.767,1.333,1.333,1.9,1.7c1.267,1.066,2.583,2,3.95,2.8c2.6,1.5,5.783,2.567,9.55,3.2
			c3.9,0.633,6.5,0.883,7.8,0.75c1.1-0.1,3.6-0.534,7.5-1.3c3.6-0.533,8.817-0.717,15.65-0.55C55.817-1.8,61.5-1.6,69-1.3
			c5.033,0.133,9.333,0.117,12.9-0.05c3-0.1,7.867-0.417,14.6-0.95C101.667-2.7,106.15-3.3,109.95-4.1z"/>
	</g>
</symbol>
<symbol  id="flash0.ai_x5F_17_x2F_Layer_114_x2F__x3C_Path_x3E__x5F_1" viewBox="0 -13.15 36 13.15">
	<g id="Layer_1_6_">
		
			<radialGradient id="SVGID_2_" cx="-50.7583" cy="-16242.5801" r="6.5747" gradientTransform="matrix(0.0016 -1 -2.7376 -0.0045 -44448.1992 -130.4536)" gradientUnits="userSpaceOnUse">
			<stop  offset="0" style="stop-color:#FFFFFF"/>
			<stop  offset="1" style="stop-color:#FFFFFF;stop-opacity:0"/>
		</radialGradient>
		<path style="fill-rule:evenodd;clip-rule:evenodd;fill:url(#SVGID_2_);" d="M18-13.15c-4.967,0-9.2,0.633-12.7,1.9
			C1.767-9.983,0-8.433,0-6.6c0,1.833,1.75,3.383,5.25,4.65C8.783-0.65,13.033,0,18,0c5,0,9.25-0.633,12.75-1.9S36-4.717,36-6.55
			c0-1.8-1.75-3.35-5.25-4.65C27.217-12.5,22.967-13.15,18-13.15z"/>
	</g>
</symbol>
<symbol  id="flash0.ai_x5F_17_x2F_Layer_114_x2F__x3C_Path_x3E__x5F_2" viewBox="0.027 -27.311 27.284 27.284">
	<g id="Layer_1_5_">
		
			<radialGradient id="SVGID_3_" cx="-3324.5479" cy="-9215.0996" r="13.6364" gradientTransform="matrix(0.637 -0.7708 -0.7708 -0.637 -4971.9414 -8446.5947)" gradientUnits="userSpaceOnUse">
			<stop  offset="0" style="stop-color:#FFFFFF"/>
			<stop  offset="1" style="stop-color:#FFFFFF;stop-opacity:0"/>
		</radialGradient>
		<path style="fill-rule:evenodd;clip-rule:evenodd;fill:url(#SVGID_3_);" d="M22.35-24.15c-2.934-2.4-6.267-3.434-10-3.1
			c-3.733,0.367-6.8,2-9.2,4.9c-2.4,2.934-3.417,6.267-3.05,10c0.333,3.733,1.95,6.8,4.85,9.2c2.9,2.4,6.233,3.417,10,3.05
			c3.733-0.333,6.8-1.95,9.2-4.85c2.4-2.9,3.434-6.233,3.1-10C26.883-18.683,25.25-21.75,22.35-24.15z"/>
	</g>
</symbol>
<symbol  id="flash0.ai_x5F_17_x2F_Layer_114_x2F__x3C_Path_x3E__x5F_3" viewBox="-0.041 -31.119 32.808 31.133">
	<g id="Layer_1_4_">
		
			<radialGradient id="SVGID_4_" cx="-3321.2588" cy="-9215.1465" r="13.632" gradientTransform="matrix(0.637 -0.7709 -1.0173 -0.8406 -7243.0283 -10322.0352)" gradientUnits="userSpaceOnUse">
			<stop  offset="0" style="stop-color:#FFFFFF"/>
			<stop  offset="1" style="stop-color:#FFFFFF;stop-opacity:0"/>
		</radialGradient>
		<path style="fill-rule:evenodd;clip-rule:evenodd;fill:url(#SVGID_4_);" d="M25.05-26.1c-3.833-3.167-7.95-4.833-12.35-5
			c-4.4-0.2-7.8,1.15-10.2,4.05c-2.4,2.933-3.1,6.533-2.1,10.8c1,4.3,3.417,8.033,7.25,11.2C11.483-1.883,15.617-0.2,20.05,0
			c4.4,0.167,7.8-1.2,10.2-4.1s3.083-6.5,2.05-10.8C31.3-19.2,28.883-22.933,25.05-26.1z"/>
	</g>
</symbol>
<symbol  id="flash0.ai_x5F_17_x2F_Layer_114_x2F__x3C_Path_x3E__x5F_4" viewBox="-0.001 -18.421 17.652 18.421">
	<g id="Layer_1_7_">
		
			<radialGradient id="SVGID_5_" cx="-3330.7656" cy="-9219.2637" r="9.9714" gradientTransform="matrix(0.6368 -0.771 -0.6117 -0.5053 -3510.0098 -7235.3628)" gradientUnits="userSpaceOnUse">
			<stop  offset="0" style="stop-color:#FFFFFF"/>
			<stop  offset="1" style="stop-color:#FFFFFF;stop-opacity:0"/>
		</radialGradient>
		<path style="fill-rule:evenodd;clip-rule:evenodd;fill:url(#SVGID_5_);" d="M15.15-16.9c-1.667-1.4-3.717-1.833-6.15-1.3
			c-2.433,0.5-4.533,1.817-6.3,3.95C0.967-12.117,0.067-9.817,0-7.35C-0.033-4.85,0.783-2.9,2.45-1.5c1.7,1.367,3.767,1.8,6.2,1.3
			c2.434-0.5,4.517-1.816,6.25-3.95c1.767-2.133,2.684-4.434,2.75-6.9C17.683-13.55,16.85-15.5,15.15-16.9z"/>
	</g>
</symbol>
<g>
	<g>
		
			<use xlink:href="#flash0.ai_x5F_17_x2F_Layer_114_x2F__x3C_Path_x3E_"  width="154.25" height="41.25" y="-41.25" transform="matrix(1 0 0 -1 0 24.3501)" style="overflow:visible;opacity:0.6289;enable-background:new    ;"/>
	</g>
	<g>
		
			<use xlink:href="#flash0.ai_x5F_17_x2F_Layer_114_x2F__x3C_Path_x3E__x5F_0"  width="123.486" height="27.265" x="0.014" y="-27.28" transform="matrix(1 0 0 -1 17.5 28.7998)" style="overflow:visible;opacity:0.1406;enable-background:new    ;"/>
	</g>
	<g>
		<path style="fill-rule:evenodd;clip-rule:evenodd;fill:#787049;" d="M127.3,42.85c-5.533,2.5-10.533,4.101-15,4.801
			c-5.533,0.866-9.533,1.416-12,1.649c-2.866,0.267-7.2,0.483-13,0.65c-3.967,0.1-8.467,0.733-13.5,1.899
			c-4.3,0.967-7.8,1.334-10.5,1.101c-3.933-0.334-6.883-0.7-8.85-1.101c-1.9-0.433-3.617-1.066-5.15-1.899
			c-1.767-1.334-3.133-2.3-4.1-2.9c-1.733-1.066-3.7-1.533-5.9-1.399c-2.566,0.133-5.75-0.301-9.55-1.301
			c-3.7-1-6.067-2.017-7.1-3.05c2.167-1.6,4.417-3.383,6.75-5.35c4.667-3.967,7.417-6.85,8.25-8.65c1.233-2.7,2.233-4.583,3-5.65
			c1.233-1.7,2.9-3.15,5-4.35c1.567-0.867,2.983-1.683,4.25-2.45c0.733-0.367,1.983-0.767,3.75-1.2c2.1-0.533,3.733-0.883,4.9-1.05
			c1.333-0.2,2.817-0.3,4.45-0.3c3.767,0,7.533-0.667,11.3-2c1.5-0.533,3.767-1.417,6.8-2.65c2.467-1,3.983-1.566,4.551-1.7
			C86.75,5.75,90.533,5.2,97,4.3l5.05,1.6c3.8,1.633,6.884,3.767,9.25,6.4c1.9,2.133,4.233,4.917,7,8.35
			c2.4,2.833,4.967,5.267,7.7,7.3c2.767,2.1,4.983,4.617,6.65,7.55c0.833,1.467,1.383,2.733,1.649,3.8
			C132.434,40.4,130.1,41.583,127.3,42.85z"/>
		<path style="fill-rule:evenodd;clip-rule:evenodd;fill:#877B54;" d="M111.3,12.3c1.267,1.434,2.733,3.167,4.4,5.2
			c-0.101,0.1-1.367,1.117-3.8,3.05c-1.667,1.333-2.801,2.467-3.4,3.4c-0.9,1.367-3.816,4.133-8.75,8.3
			C94.184,36.783,90.6,39.733,89,41.1c-2.1,1.834-4.717,2.483-7.85,1.95c-1.101-0.2-1.884-0.483-2.351-0.85
			c-0.434-0.367-0.267-0.617,0.5-0.75c1.334-0.2,2.65-1.533,3.95-4c0.7-1.334,1.5-3.167,2.4-5.5c0.466-1,0.633-2.117,0.5-3.35
			c-0.233-2.533-0.351-3.917-0.351-4.15c0-2.8-0.883-4.3-2.649-4.5c-4.4-0.5-7.734-1.117-10-1.85c-1.333-0.434-2.633-0.717-3.9-0.85
			c-1.633-0.2-2.95-0.417-3.95-0.65c-1.5-0.333-3.117-0.567-4.85-0.7c-2.434-0.133-4.65-0.283-6.65-0.45
			c-2.2-0.167-4.783,0.367-7.75,1.6c1.4-0.8,2.7-1.55,3.9-2.25c0.733-0.333,1.966-0.716,3.7-1.15c2.1-0.533,3.733-0.883,4.9-1.05
			c1.333-0.2,2.817-0.3,4.45-0.3c3.767,0,7.533-0.667,11.3-2c1.5-0.533,3.767-1.417,6.8-2.65c2.467-1,3.983-1.566,4.551-1.7
			C86.75,5.75,90.533,5.2,97,4.3l5.05,1.6C105.85,7.533,108.934,9.667,111.3,12.3z"/>
		<path style="fill-rule:evenodd;clip-rule:evenodd;fill:#615A3B;" d="M126,27.95c2.767,2.1,4.983,4.617,6.65,7.55
			c0.833,1.467,1.383,2.733,1.649,3.8c-1.866,1.101-4.2,2.283-7,3.55c-5.533,2.5-10.533,4.101-15,4.801
			c-5.533,0.866-9.533,1.416-12,1.649c-2.866,0.267-7.2,0.483-13,0.65c-3.967,0.1-8.467,0.733-13.5,1.899
			c-4.3,0.967-7.8,1.334-10.5,1.101c-3.933-0.334-6.883-0.7-8.85-1.101c-1.9-0.433-3.617-1.066-5.15-1.899
			c-1.767-1.334-3.133-2.3-4.1-2.9c-1.733-1.066-3.7-1.533-5.9-1.399c-2.566,0.133-5.75-0.301-9.55-1.301
			c-3.7-1-6.067-2.017-7.1-3.05l0.65-0.5l0.2,0.05c1.333,0.667,4.167,1,8.5,1c0.967,0,1.717-0.149,2.25-0.449
			c0.767-0.534,1.517-1.051,2.25-1.551c0.267-0.166,1.067-0.883,2.4-2.149c0.8-0.767,1.833-1.3,3.1-1.601
			c1.367-0.3,2.1-0.149,2.2,0.45c0.066,0.334,0,0.684-0.2,1.05l0.4,2.801c0.333,2.1,0.7,3.666,1.1,4.699
			c0.4,1,0.95,1.601,1.65,1.801c0.4,0.133,1.184,0.366,2.35,0.699c1.567,0.767,4.983,0.601,10.25-0.5
			c1.633-0.333,3.267-0.816,4.9-1.449c1.533-0.634,2.9-1.067,4.1-1.301c1.5-0.3,2.417-0.699,2.75-1.199
			c0.733-1.101,1.15-1.7,1.25-1.801c0.533-0.466,1.217-1.3,2.05-2.5c0.7-1,1.267-1.583,1.7-1.75c0.533-0.199,1.017-0.017,1.45,0.551
			c0.233,0.3,0.416,0.616,0.55,0.949l2.5,1.5l1.4-1.199c1.066-1.067,2.017-2.167,2.85-3.301c0.767-1.066,1.267-2.716,1.5-4.95
			c0.333-3.5,0.583-5.6,0.75-6.3c0.4-1.833,1.6-3.15,3.6-3.95c1.067-0.433,2.45-0.95,4.15-1.55c0.733-0.533,1.616-1.667,2.65-3.4
			c0.6-1.034,1.55-2.733,2.85-5.1c0.533-0.9,1.533-1.383,3-1.45c1.267-0.066,2.816,0.184,4.65,0.75
			c0.966,0.7,1.933,1.583,2.899,2.65c1.9,2.133,4.233,4.917,7,8.35C120.7,23.483,123.267,25.917,126,27.95z"/>
		<g>
			<path style="fill-rule:evenodd;clip-rule:evenodd;fill:#524C32;" d="M129.25,37.6c0.934,0.367,2.6,0.95,5,1.75
				c-2.533,1.4-5.017,2.65-7.45,3.75c-5.366,2.367-10.2,3.884-14.5,4.551c-5.533,0.866-9.533,1.416-12,1.649
				c-2.866,0.267-7.2,0.483-13,0.65c-3.967,0.1-8.467,0.733-13.5,1.899c-4.3,0.967-7.8,1.334-10.5,1.101
				c-4-0.334-6.95-0.7-8.85-1.101c-1.934-0.399-3.65-1.033-5.15-1.899c2.333,0.7,4.883,1.217,7.65,1.55
				c3.233,0.4,5.917,0.434,8.05,0.1c2.4-0.366,4.7-0.966,6.9-1.8c2.133-0.833,3.667-1.316,4.6-1.45
				c1.467-0.199,2.65-1.017,3.55-2.449c0.467-0.7,0.783-1.384,0.95-2.051l0.75,0.9c0.934,0.7,2.434,1.316,4.5,1.85
				c3.066,0.767,5.1,1.233,6.1,1.4c1.7,0.233,3.167,0.184,4.4-0.15c3.033-0.833,4.616-1.267,4.75-1.3c2.066-0.733,3.9-1.8,5.5-3.2
				c1.233-1.066,2.434-2.283,3.6-3.649c0.767-0.9,1.4-1.434,1.9-1.601c1-0.333,3.167-0.5,6.5-0.5c1.1,0,2.967-0.1,5.6-0.3
				C126.9,37.2,128.45,37.3,129.25,37.6z"/>
			<path style="fill-rule:evenodd;clip-rule:evenodd;fill:#524C32;" d="M43.75,41.85l0.55,1.95c0.434,1.434,0.833,2.584,1.2,3.45
				c-1.833-1.233-3.9-1.767-6.2-1.6c-1.466,0.1-3.316-0.051-5.55-0.45c1.367,0.066,2.317,0.033,2.85-0.101
				c0.433-0.1,1.066-0.433,1.9-1C40,43.1,41.75,42.35,43.75,41.85z"/>
		</g>
		<path style="fill-rule:evenodd;clip-rule:evenodd;fill:#877B54;" d="M43.3,27.8c0.333-0.1,0.534-0.15,0.6-0.15
			c0.233,0.1,0.65,0.15,1.25,0.15c0.633,0,0.934,0.05,0.9,0.15c-0.1,0.333,0.1,0.716,0.6,1.15c0.633,0.566,0.483,1.15-0.45,1.75
			l-1.55,0.75l-0.15-1.3c-0.1-0.566-0.717-0.867-1.85-0.9c-1.667,0.1-3.05,0.167-4.15,0.2L43.3,27.8z"/>
		<path style="fill-rule:evenodd;clip-rule:evenodd;fill:#877B54;" d="M60.65,34.45c-1.233,0.133-2.25,0.184-3.05,0.149
			c-0.633-0.1-1.067-0.149-1.3-0.149h-5.8c-1.8,0-3.1,0.25-3.9,0.75L46,35.95c-0.367,0.133-0.5,1.483-0.4,4.05
			c0.033,1.3,0.1,2.566,0.2,3.8l-1-3.2c-0.4-1.3-0.683-2.5-0.85-3.6l-0.15-1.2l0.8-0.8c0.566-0.6,1.033-1,1.4-1.2
			c0.033-0.033,0.5-0.283,1.4-0.75c0.6-0.367,1.067-0.683,1.4-0.95c0.333-0.267,1.35-0.35,3.05-0.25
			c0.933,0.066,2.25,0.15,3.95,0.25c0.7,0,1.483,0.066,2.35,0.2c1.267,0.233,2.434,0.4,3.5,0.5c1.067,0.1,2.45,0.334,4.15,0.7
			c1.333,0.3,2.45,0.45,3.35,0.45c1.667,0,4.05,0.833,7.15,2.5C71.867,35.217,69.1,34.6,68,34.6L64.8,34.4
			C63.233,34.3,61.85,34.316,60.65,34.45z"/>
		<path style="fill-rule:evenodd;clip-rule:evenodd;fill:#877B54;" d="M70.15,22.3l9.5,1.3c1.166,0.233-0.117,0.35-3.851,0.35
			c-1.133,0-2.216-0.067-3.25-0.2c-1.033-0.133-1.833-0.233-2.4-0.3c-0.933-0.067-1.733-0.067-2.4,0
			c-0.867,0.1-2.117,0.383-3.75,0.85c-1.135,0.335-2.043,0.752-2.725,1.25c0.759-0.865,1.501-1.564,2.225-2.1
			c0.933-0.7,1.833-1.133,2.7-1.3C67.133,21.95,68.45,22,70.15,22.3z"/>
		<path style="fill-rule:evenodd;clip-rule:evenodd;fill:#787049;" d="M109,21.6l1.45,0.7c1.1,0.434,1.883,0.65,2.35,0.65
			c0.533,0,1.517,0.35,2.95,1.05c1.167,0.567,1.967,1,2.4,1.3c0.066,0.067-0.417,0.034-1.45-0.1c-1.334-0.167-2.134-0.083-2.4,0.25
			c-0.233,0.3-0.967,0.55-2.2,0.75c-1.433,0.2-2.366,0.4-2.8,0.6c-1.366,0.6-2.25,0.967-2.649,1.1c-1.134,0.333-2.017,0.4-2.65,0.2
			c-0.566-0.2-0.667-0.717-0.3-1.55c0.533-1.3,0.8-2.167,0.8-2.6c0-0.8,0.483-1.367,1.45-1.7
			C106.517,22.083,107.533,21.867,109,21.6z"/>
		<path style="fill-rule:evenodd;clip-rule:evenodd;fill:#787049;" d="M97.15,32.95c1.333-0.3,2.483-0.25,3.449,0.149
			c0.634,0.267,1.267,0.767,1.9,1.5c0.4,0.467,0.116,0.817-0.85,1.051c-1.667,0.433-2.617,0.699-2.851,0.8
			c-0.566,0.3-1.1,0.467-1.6,0.5c-0.434,0-0.834,0.116-1.2,0.35c-0.5,0.267-1.116,0.533-1.85,0.8l-1,0.351
			c-0.034-0.767,0.1-1.566,0.399-2.4C94.184,34.384,95.384,33.35,97.15,32.95z"/>
		<path style="fill-rule:evenodd;clip-rule:evenodd;fill:#787049;" d="M95.8,25.6c0.667-0.267,1.017,0.033,1.05,0.9
			c0.034,0.867-0.416,1.467-1.35,1.8c-0.733,0.233-1.167,0.45-1.3,0.65c-0.066,0.1-0.25,0.15-0.55,0.15
			c-0.601,0-0.684-0.45-0.25-1.35C93.833,26.817,94.634,26.1,95.8,25.6z"/>
	</g>
	<g>
		<path style="fill-rule:evenodd;clip-rule:evenodd;fill:#524C32;" d="M41.9,22.85c1.133-1.233,2.434-2.217,3.9-2.95
			c4.967-2.467,8.95-3.75,11.95-3.85c1.467-0.033,2.3,0.017,2.5,0.15c0.067,0.066,0,0.133-0.2,0.2l-0.4,1
			c-0.2,0.4-0.533,0.767-1,1.1c-0.867,0.533-1.733,1.083-2.6,1.65c-1.066,0.733-1.65,1.633-1.75,2.7c-0.033,0.633-0.033,1.65,0,3.05
			c-0.033,0.333-0.083,1.033-0.15,2.1c-0.066,0.567-0.183,1.283-0.35,2.15c-0.167,0.833-0.4,1.15-0.7,0.95
			c-0.733-0.434-1.3-0.65-1.7-0.65c-0.9,0-1.55-0.034-1.95-0.1c-0.467-0.067-1.434-0.283-2.9-0.65c-1.167-0.3-2-0.4-2.5-0.3
			c-1.066,0.2-1.867,0.3-2.4,0.3c-1.133,0.033-1.85,0.117-2.15,0.25c-0.467,0.2-0.833,0.316-1.1,0.35c-0.7,0.1-1.333,0.05-1.9-0.15
			l-0.65-0.3l3.65-4.05C40.033,25.233,40.833,24.25,41.9,22.85z"/>
		<path style="fill-rule:evenodd;clip-rule:evenodd;fill:#524C32;" d="M31.8,36.2c1.9-0.5,3.3-0.601,4.2-0.3
			c-0.4,0.767-1.3,1.35-2.7,1.75c-0.833,0.233-1.233,0.399-1.2,0.5c0.033,0.466,0.05,0.716,0.05,0.75
			c-0.167,0.466-0.433,0.783-0.8,0.949c-0.367,0.167-1.017,0.267-1.95,0.301c-0.6,0-1.167,0.05-1.7,0.149
			c-0.5,0.101-1.15,0.15-1.95,0.15c-0.833,0-1.283,0-1.35,0l0.1-0.05c0.6-0.567,1.4-1.217,2.4-1.95
			c0.867-0.601,1.517-1.017,1.95-1.25C29.55,36.866,30.533,36.533,31.8,36.2z"/>
		<path style="fill-rule:evenodd;clip-rule:evenodd;fill:#524C32;" d="M52.2,35.6c1.833-0.233,3.433-0.216,4.8,0.051
			c0.567,0.1,0.9,0.3,1,0.6c0,0.033,0,0.333,0,0.9c0,0.166-0.2,0.8-0.6,1.899c-0.167,0.434-0.4,0.667-0.7,0.7
			c-0.534,0-1.1,0.066-1.7,0.2c-0.7,0.2-1.1,0.333-1.2,0.399c-0.066,0.134-0.25,0.317-0.55,0.551c-0.433,0.3-0.733,0.616-0.9,0.949
			c-0.1,0.167-0.3,0.684-0.6,1.551c-0.067,0.233-0.25,0.466-0.55,0.699c-0.633,0.5-1.534,0.851-2.7,1.051
			c-1.2,0.166-2.083,0.1-2.65-0.2L45.3,44.4c0.467-1.967,1.167-4.034,2.1-6.2C48,36.8,49.6,35.934,52.2,35.6z"/>
		<path style="fill-rule:evenodd;clip-rule:evenodd;fill:#524C32;" d="M82.2,22.85c0.733-0.333,1.666-0.817,2.8-1.45
			c1.333-0.7,2-0.183,2,1.55c0,0.566-0.116,1.466-0.35,2.7c-0.267,1.233-0.4,2.167-0.4,2.8c0,0.667,0.066,1.316,0.2,1.95
			c0.133,0.667,0.2,1.267,0.2,1.8c0,0.7-0.184,1.066-0.551,1.1c-0.466-0.066-0.783-0.1-0.949-0.1c-0.367,0-1.617-0.267-3.75-0.8
			c-0.934-0.233-1.617-0.367-2.051-0.4c-0.399-0.033-0.85-0.133-1.35-0.3c-0.7-0.2-1.133-0.483-1.3-0.85
			c-0.133-0.533-0.317-1.017-0.55-1.45c-0.267-0.5-0.7-0.983-1.3-1.45c-0.667-0.467-1.117-0.817-1.35-1.05
			c-0.467-0.4-1.183-0.9-2.15-1.5L70,24.65l8.65-0.7C79.717,23.85,80.9,23.483,82.2,22.85z"/>
		<path style="fill-rule:evenodd;clip-rule:evenodd;fill:#524C32;" d="M91,43.65c-1.566-0.034-2.616-0.334-3.15-0.9l-0.3-0.85
			l1.5-0.5c0.4-0.134,1.184-0.301,2.351-0.5c1-0.167,1.75-0.367,2.25-0.601c4-1.934,6.8-2.934,8.399-3
			c0.667-0.033,1.8-0.166,3.4-0.399c1.5-0.233,2.566-0.351,3.2-0.351c0.833,0,1.3,0.084,1.399,0.25
			c0.066,0.066,0.017,0.233-0.149,0.5c-0.167,0.334-0.317,0.601-0.45,0.8c-0.233,0.4-0.533,0.717-0.9,0.95
			c-0.666,0.267-1.217,0.65-1.649,1.15c-0.233,0.3-0.417,0.6-0.551,0.899c-0.199,0.7-0.383,1.217-0.55,1.551
			c-0.267,0.633-0.517,0.983-0.75,1.05c-0.399-0.033-0.833,0-1.3,0.1c-0.566,0.134-1.017,0.167-1.35,0.101
			c-0.801-0.101-1.351-0.167-1.65-0.2c-1.833,0.066-3.417-0.017-4.75-0.25c-0.733-0.134-1.517-0.134-2.35,0
			C92.583,43.583,91.7,43.65,91,43.65z"/>
		<path style="fill-rule:evenodd;clip-rule:evenodd;fill:#524C32;" d="M96.75,31.15l3.65-0.35c1.666-0.133,3-0.083,4,0.15
			c0.6,0.167,0.899,0.383,0.899,0.65c0.033,0.233-0.184,0.417-0.649,0.55c-0.4,0.2-1.101,0.417-2.101,0.65
			c-0.666,0.167-1.166,0.233-1.5,0.2l-1.55-0.35c-1.134-0.3-1.934-0.633-2.4-1L96.75,31.15z"/>
		<path style="fill-rule:evenodd;clip-rule:evenodd;fill:#524C32;" d="M129.4,34.15c1.6,0.267,2.566,0.6,2.899,1
			c0.233,0.267,0.4,0.683,0.5,1.25c0.4,0.699,0.267,1.25-0.399,1.649c-0.233,0.101-0.567,0.134-1,0.101
			c-0.9-0.067-1.65-0.101-2.25-0.101c-1.101,0-2.067-0.033-2.9-0.1c-1-0.033-1.95-0.367-2.85-1c-0.334-0.2-0.601-0.3-0.801-0.3
			c-0.3,0-0.699-0.117-1.199-0.351c-0.967-0.366-1.717-0.666-2.25-0.899c-0.967-0.367-1.884-0.867-2.75-1.5
			c-0.534-0.4-1.084-0.717-1.65-0.95l-0.75-0.2l1.05-0.15c0.767-0.133,1.417-0.2,1.95-0.2c0.833,0,2.017,0.167,3.55,0.5
			C123.65,33.2,126.6,33.616,129.4,34.15z"/>
		<path style="fill-rule:evenodd;clip-rule:evenodd;fill:#524C32;" d="M113.75,21.2l-0.4-0.6l2.4,0.05c0.366,0,0.85,0,1.45,0
			c0.5,0.033,0.95,0.2,1.35,0.5c0.634,0.434,0.967,0.867,1,1.3H117.4C116.366,22.45,115.15,22.033,113.75,21.2z"/>
	</g>
	<g>
		
			<radialGradient id="SVGID_6_" cx="47.8066" cy="21.7373" r="10.2386" gradientTransform="matrix(1 0 0 -1 0 43.4746)" gradientUnits="userSpaceOnUse">
			<stop  offset="0" style="stop-color:#E5F1F7"/>
			<stop  offset="1" style="stop-color:#96BDD6"/>
		</radialGradient>
		<path style="fill-rule:evenodd;clip-rule:evenodd;fill:url(#SVGID_6_);" d="M47.5,15.5l1.3-0.65c1-0.467,1.817-0.8,2.45-1
			c1.267-0.434,2.55-0.434,3.85,0c0.833,0.3,1.717,0.667,2.65,1.1c1.233,0.566,1.9,1,2,1.3c0.1,0.233-0.35,0.583-1.35,1.05
			c-1.367,0.534-2.383,0.967-3.05,1.3c-0.8,0.4-1.35,1.033-1.65,1.9c-0.133,0.467-0.333,1.217-0.6,2.25
			c-0.233,0.6-0.333,1.267-0.3,2c0.067,1,0.083,1.583,0.05,1.75c-0.067,0.633-0.167,1.117-0.3,1.45c-0.2,0.433-0.55,0.816-1.05,1.15
			c-0.5,0.333-1.25,0.4-2.25,0.2c-0.433-0.066-1.35-0.333-2.75-0.8c-1.767-0.6-4.1-0.35-7,0.75c-1.1,0.433-2.033,0.667-2.8,0.7
			l-0.85-0.1c0.5-0.9,0.967-2.067,1.4-3.5c0.767-2.7,1.633-4.65,2.6-5.85c0.533-0.633,0.967-1.083,1.3-1.35
			c0.4-0.333,1.184-0.8,2.35-1.4c0.567-0.3,1.183-0.783,1.85-1.45C45.75,15.9,46.467,15.633,47.5,15.5z"/>
		
			<radialGradient id="SVGID_7_" cx="79.0996" cy="25.3501" r="8.3052" gradientTransform="matrix(1 0 0 -1 0 50.7002)" gradientUnits="userSpaceOnUse">
			<stop  offset="0" style="stop-color:#E5F1F7"/>
			<stop  offset="1" style="stop-color:#96BDD6"/>
		</radialGradient>
		<path style="fill-rule:evenodd;clip-rule:evenodd;fill:url(#SVGID_7_);" d="M83.25,18.6c0.866-0.067,2.017,0.033,3.45,0.3
			c1.5,0.233,2.184,0.467,2.05,0.7c-0.2,0.333-0.384,0.65-0.55,0.95c-0.3,0.534-0.584,1.184-0.851,1.95
			c-0.199,0.6-0.449,1.15-0.75,1.65c-0.267,0.4-0.466,0.883-0.6,1.45c-0.267,1.1-0.434,2.733-0.5,4.9
			c-0.167,1.133-0.434,1.633-0.8,1.5c-1.033-0.333-1.566-0.5-1.601-0.5c-0.533,0.033-1.017,0.017-1.449-0.05
			c-0.867-0.167-1.5-0.284-1.9-0.35c-0.866-0.1-1.483-0.35-1.85-0.75c-0.4-0.567-0.75-1.067-1.05-1.5
			c-0.367-0.533-0.8-0.95-1.3-1.25l-0.7-0.35l-1-0.75c-0.4-0.3-1.25-0.733-2.55-1.3l-1.8-0.7l0.6-0.5
			c0.467-0.333,0.85-0.55,1.15-0.65c0.267-0.067,0.683-0.15,1.25-0.25c0.567-0.133,1.017-0.383,1.35-0.75
			c0.133-0.1,0.933-0.483,2.4-1.15c1.1-0.5,1.6-1.034,1.5-1.6c-0.1-0.567,0.417-0.867,1.55-0.9C80,18.667,81.316,18.633,83.25,18.6z
			"/>
		
			<radialGradient id="SVGID_8_" cx="50.6499" cy="39.293" r="6.1317" gradientTransform="matrix(1 0 0 -1 0 78.5859)" gradientUnits="userSpaceOnUse">
			<stop  offset="0" style="stop-color:#E5F1F7"/>
			<stop  offset="1" style="stop-color:#96BDD6"/>
		</radialGradient>
		<path style="fill-rule:evenodd;clip-rule:evenodd;fill:url(#SVGID_8_);" d="M52.75,34.35c0.5,0.233,0.967,0.45,1.4,0.65
			c0.333,0.134,0.983,0.25,1.95,0.35c0.867,0.101,1.267,0.334,1.2,0.7c-0.167,0.9-0.233,1.467-0.2,1.7
			c0.167,0.634-0.117,0.983-0.85,1.05c-1.6,0.134-2.483,0.233-2.65,0.3c-0.833,0.267-1.283,0.5-1.35,0.7
			c-0.067,0.167-0.2,0.65-0.4,1.45c-0.5,1.066-1.117,2.1-1.85,3.1c-0.167,0.334-0.817,0.5-1.95,0.5
			c-1.033-0.033-1.85-0.149-2.45-0.35c-0.867-0.333-1.133-1.634-0.8-3.9c0.133-0.666,0-1.316-0.4-1.949
			c-0.367-0.534-0.467-1.051-0.3-1.551c0.2-0.6,0.667-1.166,1.4-1.699c1.133-0.834,1.8-1.351,2-1.551
			c0.133-0.133,0.85-0.149,2.15-0.05C51.017,33.9,52.05,34.083,52.75,34.35z"/>
		
			<radialGradient id="SVGID_9_" cx="30.1499" cy="37.498" r="4.5006" gradientTransform="matrix(1 0 0 -1 0 74.9961)" gradientUnits="userSpaceOnUse">
			<stop  offset="0" style="stop-color:#E5F1F7"/>
			<stop  offset="1" style="stop-color:#96BDD6"/>
		</radialGradient>
		<path style="fill-rule:evenodd;clip-rule:evenodd;fill:url(#SVGID_9_);" d="M35.25,35.5c0.767,0.167,0.9,0.366,0.4,0.6
			c-0.133,0.067-0.9,0.317-2.3,0.75c-0.934,0.334-1.5,0.567-1.7,0.7C31.483,37.684,31.267,38,31,38.5
			c-0.2,0.4-0.983,0.717-2.35,0.95c-1.933,0.3-2.983,0.483-3.15,0.55c-0.633,0.2-0.983,0.217-1.05,0.05l0.05-0.3
			c0.067-0.667,0.35-1.333,0.85-2c0.4-0.533,0.867-0.967,1.4-1.3c0.633-0.434,1.633-0.917,3-1.45
			C30.55,34.667,32.383,34.833,35.25,35.5z"/>
		
			<radialGradient id="SVGID_10_" cx="93.1748" cy="6.5498" r="10.4205" gradientTransform="matrix(1 0 0 -1 0 13.0996)" gradientUnits="userSpaceOnUse">
			<stop  offset="0" style="stop-color:#E5F1F7"/>
			<stop  offset="1" style="stop-color:#96BDD6"/>
		</radialGradient>
		<path style="fill-rule:evenodd;clip-rule:evenodd;fill:url(#SVGID_10_);" d="M102.85,5.35c1.5,0.433,3.134,1.6,4.9,3.5L104.5,8
			c-0.434-0.1-1.434-0.05-3,0.15c-1.866,0.233-3.083,0.35-3.65,0.35c-0.733,0-1.333-0.1-1.8-0.3c-0.633-0.267-1.283-0.467-1.95-0.6
			C93.366,7.5,92.4,7.583,91.2,7.85c-1.5,0.333-2.983,0.5-4.45,0.5c-1.767,0-3.65,0.117-5.65,0.35L78.6,9l1.45-1
			c1.3-0.733,2.783-1.367,4.45-1.9c1.333-0.4,2.333-0.667,3-0.8c0.333-0.066,0.833-0.25,1.5-0.55c1.366-0.6,3.783-0.767,7.25-0.5
			C98.45,4.383,100.65,4.75,102.85,5.35z"/>
		
			<radialGradient id="SVGID_11_" cx="123.1992" cy="31.7998" r="7.7006" gradientTransform="matrix(1 0 0 -1 0 63.5996)" gradientUnits="userSpaceOnUse">
			<stop  offset="0" style="stop-color:#E5F1F7"/>
			<stop  offset="1" style="stop-color:#96BDD6"/>
		</radialGradient>
		<path style="fill-rule:evenodd;clip-rule:evenodd;fill:url(#SVGID_11_);" d="M132.75,35.75c0.267,0.634,0.217,0.967-0.15,1
			c-0.733-0.134-1.483-0.217-2.25-0.25c-0.8-0.066-1.55-0.066-2.25,0c-0.767,0.033-1.433,0.033-2,0
			c-0.699-0.066-1.55-0.316-2.55-0.75c-1.7-0.767-2.85-1.267-3.45-1.5c-1.233-0.467-2.416-0.816-3.55-1.05
			c-1.166-0.167-2.017-0.317-2.55-0.45c-0.767-0.2-0.684-0.633,0.25-1.3c0.866-0.667,1.783-1.067,2.75-1.2c1.934-0.267,3.6-0.6,5-1
			c0.233-0.067,0.85-0.6,1.85-1.6c0.767-0.767,1.4-0.95,1.9-0.55c0.3,0.267,1.217,1.066,2.75,2.4c1.467,1.333,2.333,2.283,2.6,2.85
			C131.533,33.283,132.083,34.417,132.75,35.75z"/>
		
			<radialGradient id="SVGID_12_" cx="116.0996" cy="19.8501" r="2.6764" gradientTransform="matrix(1 0 0 -1 0 39.7002)" gradientUnits="userSpaceOnUse">
			<stop  offset="0" style="stop-color:#E5F1F7"/>
			<stop  offset="1" style="stop-color:#96BDD6"/>
		</radialGradient>
		<path style="fill-rule:evenodd;clip-rule:evenodd;fill:url(#SVGID_12_);" d="M116.6,18.1c0.534,0.367,1.117,0.95,1.75,1.75
			c0.7,0.9,1,1.483,0.9,1.75s-0.316,0.367-0.65,0.3c-0.566-0.133-1.1-0.233-1.6-0.3c-1.566-0.1-2.783-0.434-3.65-1
			c-0.399-0.233-0.5-0.467-0.3-0.7c0.134-0.133,0.4-0.4,0.8-0.8C114.717,17.8,115.634,17.467,116.6,18.1z"/>
		
			<radialGradient id="SVGID_13_" cx="98.3223" cy="38.6504" r="8.6102" gradientTransform="matrix(1 0 0 -1 0 77.3008)" gradientUnits="userSpaceOnUse">
			<stop  offset="0" style="stop-color:#E5F1F7"/>
			<stop  offset="1" style="stop-color:#96BDD6"/>
		</radialGradient>
		<path style="fill-rule:evenodd;clip-rule:evenodd;fill:url(#SVGID_13_);" d="M94.1,35.6c0.634-0.399,1.284-0.6,1.95-0.6
			c1.334-0.033,2.267-0.083,2.8-0.15c0.967-0.1,1.983-0.233,3.051-0.399c0.733-0.066,1.633-0.101,2.699-0.101l1.051,0.051
			c0.833,0.066,1.533,0.216,2.1,0.449c1.167,0.567,1.833,1.15,2,1.75c0.1,0.467-0.816,0.967-2.75,1.5
			c-0.533,0.167-0.983,0.534-1.35,1.101c-0.467,0.899-0.934,1.7-1.4,2.399c-0.566,0.9-1.066,1.351-1.5,1.351
			c-0.8-0.167-1.717-0.233-2.75-0.2c-1.2,0.033-2.083,0.017-2.65-0.05C96.65,42.634,96.066,42.6,95.6,42.6
			c-1.333,0.134-2.416,0.217-3.25,0.25c-1.533,0.101-2.983-0.017-4.35-0.35c-1.434-0.366-1.483-1.05-0.15-2.05
			c0.867-0.667,1.834-1.2,2.9-1.601c0.167-0.066,0.6-0.517,1.3-1.35C92.816,36.6,93.5,35.967,94.1,35.6z"/>
		
			<radialGradient id="SVGID_14_" cx="100.7998" cy="30.7998" r="3.2632" gradientTransform="matrix(1 0 0 -1 0 61.5996)" gradientUnits="userSpaceOnUse">
			<stop  offset="0" style="stop-color:#E5F1F7"/>
			<stop  offset="1" style="stop-color:#96BDD6"/>
		</radialGradient>
		<path style="fill-rule:evenodd;clip-rule:evenodd;fill:url(#SVGID_14_);" d="M97.8,29.45c0.733-0.233,1.634-0.35,2.7-0.35
			c0.6,0,1.517,0.2,2.75,0.6c1.4,0.466,2.017,0.9,1.85,1.3c-0.133,0.3-0.35,0.467-0.649,0.5c-0.467,0.067-0.834,0.183-1.101,0.35
			c-0.399,0.267-0.716,0.4-0.949,0.4c-0.667,0.033-1.101,0.067-1.301,0.1c-0.533,0.1-1.083,0.066-1.649-0.1
			c-0.9-0.3-1.517-0.467-1.851-0.5c-0.699-0.1-1.066-0.233-1.1-0.4c0.066-0.267,0.1-0.55,0.1-0.85C96.6,30.067,97,29.717,97.8,29.45
			z"/>
		<path style="fill-rule:evenodd;clip-rule:evenodd;fill:#97B4C4;" d="M48.8,23.8c0.067-1.966,0.167-3.15,0.3-3.55
			c0.3-0.833,1-1.5,2.1-2c0.566-0.267,1.583-0.6,3.05-1c0.7-0.167,1.317-0.417,1.85-0.75c0.367-0.233,1-0.7,1.9-1.4
			c1.033,0.533,1.617,0.917,1.75,1.15c0.1,0.233-0.35,0.583-1.35,1.05c-1.367,0.534-2.383,0.967-3.05,1.3
			c-0.8,0.4-1.35,1.033-1.65,1.9c-0.133,0.467-0.333,1.217-0.6,2.25c-0.233,0.6-0.333,1.267-0.3,2c0.067,1,0.083,1.583,0.05,1.75
			c-0.067,0.633-0.167,1.117-0.3,1.45c-0.2,0.433-0.55,0.816-1.05,1.15c-0.5,0.333-1.25,0.4-2.25,0.2
			c-0.433-0.066-1.35-0.333-2.75-0.8c-1.767-0.6-4.1-0.35-7,0.75c-1.1,0.433-2.033,0.667-2.8,0.7l-0.85-0.1l0.55-1.2
			c1.033,0.1,2.233-0.283,3.6-1.15c0.567-0.367,1.133-0.567,1.7-0.6c0.333,0,0.933,0.033,1.8,0.1c1.2,0,2.7-0.25,4.5-0.75
			C48.467,26.083,48.733,25.267,48.8,23.8z"/>
		<path style="fill-rule:evenodd;clip-rule:evenodd;fill:#97B4C4;" d="M35.7,35.65c0.367,0.133,0.283,0.3-0.25,0.5
			c-0.833,0.3-1.534,0.533-2.1,0.699c-0.934,0.334-1.5,0.567-1.7,0.7C31.483,37.684,31.267,38,31,38.5
			c-0.2,0.4-0.983,0.717-2.35,0.95c-1.933,0.3-2.983,0.483-3.15,0.55c-0.633,0.2-0.983,0.217-1.05,0.05l0.05-0.3V39.5
			c1.567,0.066,2.85-0.184,3.85-0.75c0.667-0.366,1.2-0.8,1.6-1.3c0.367-0.4,0.633-0.634,0.8-0.7
			C31.083,36.616,32.733,36.25,35.7,35.65z"/>
		<path style="fill-rule:evenodd;clip-rule:evenodd;fill:#97B4C4;" d="M52.25,36.5c0.333-0.033,0.383-0.333,0.15-0.9
			c-0.267-0.6-0.15-1.017,0.35-1.25l1.3,0.65l-0.2,0.5c-0.167,0.366-0.383,0.816-0.65,1.35c-0.133,0.4-0.034,0.65,0.3,0.75
			c0.467,0.167,0.783,0.25,0.95,0.25c0.267,0,0.566-0.116,0.9-0.35c0.433-0.267,0.7-0.55,0.8-0.85
			c0.167-0.334,0.15-0.767-0.05-1.301c0.867,0.101,1.267,0.334,1.2,0.7c-0.167,0.9-0.233,1.467-0.2,1.7
			c0.167,0.634-0.117,0.983-0.85,1.05c-1.6,0.134-2.483,0.233-2.65,0.3c-0.833,0.267-1.283,0.5-1.35,0.7
			c-0.067,0.167-0.2,0.65-0.4,1.45c-0.5,1.066-1.117,2.1-1.85,3.1c-0.167,0.334-0.817,0.5-1.95,0.5
			c-1.033-0.033-1.85-0.149-2.45-0.35c-0.4-0.134-0.684-0.517-0.85-1.15c0.833,0.134,1.483,0.15,1.95,0.051
			c0.233-0.034,0.617-0.167,1.15-0.4c0.3-0.134,0.633-0.25,1-0.35c0.233-0.067,0.4-0.284,0.5-0.65c0.1-0.3,0.066-0.45-0.1-0.45
			c-0.033,0,0.083-0.149,0.35-0.45c0.3-0.267,0.617-0.566,0.95-0.899c0.167-0.167,0.233-0.367,0.2-0.601
			c-0.1-0.3-0.183-0.517-0.25-0.649c-0.067-0.267-0.067-0.5,0-0.7v-1.5L52.25,36.5z"/>
		<path style="fill-rule:evenodd;clip-rule:evenodd;fill:#97B4C4;" d="M88.6,19.4l0.15,0.2c-0.2,0.333-0.384,0.65-0.55,0.95
			c-0.3,0.534-0.584,1.184-0.851,1.95c-0.199,0.6-0.449,1.15-0.75,1.65c-0.267,0.4-0.466,0.883-0.6,1.45
			c-0.267,1.1-0.434,2.733-0.5,4.9c-0.167,1.133-0.434,1.633-0.8,1.5c-1.033-0.333-1.566-0.5-1.601-0.5
			c-0.533,0.033-1.017,0.017-1.449-0.05c-0.867-0.167-1.5-0.284-1.9-0.35c-0.866-0.1-1.483-0.317-1.85-0.65
			c-0.101-0.1-0.417-0.567-0.95-1.4c1.3,0.667,2.149,1.067,2.55,1.2c0.9,0.267,1.384,0.417,1.45,0.45
			c0.2,0.033,0.583,0.05,1.149,0.05c0.434,0,0.917,0.033,1.45,0.1c0.367,0,0.55-0.083,0.55-0.25c0-0.033,0.101-0.2,0.301-0.5
			c0.133-0.233,0.116-0.517-0.051-0.85C84.116,28.65,84,28.067,84,27.5c0.066,0.067,0.184-0.517,0.35-1.75
			c0.101-1,0.184-1.633,0.25-1.9c0.067-0.367,0.2-0.733,0.4-1.1l1.85-2.5L88.6,19.4z"/>
		<path style="fill-rule:evenodd;clip-rule:evenodd;fill:#97B4C4;" d="M100,42.75c-1.2,0.033-2.083,0.017-2.65-0.05
			C96.65,42.634,96.066,42.6,95.6,42.6c-1.233,0.134-2.25,0.217-3.05,0.25c-1.434,0.134-2.783,0.051-4.05-0.25
			c1.467-0.033,2.684-0.149,3.65-0.35c0.199-0.033,0.983-0.25,2.35-0.65c1.233-0.333,2.1-0.5,2.6-0.5l-0.05,0.051
			c0.066,0.033,0.25,0.017,0.55-0.051c0.267-0.033,0.717-0.05,1.351-0.05c0.5-0.066,0.717-0.25,0.649-0.55
			c-0.033-0.3,0-0.634,0.101-1l0.149-0.4l1.25-1.1l1.5-0.65c0.134-0.033,0.417-0.033,0.851,0c0.366-0.033,0.633-0.149,0.8-0.35
			l0.35-0.5c1.5-0.333,2.301-0.8,2.4-1.4l0.05-0.449l0.7,0.199c1.167,0.567,1.833,1.15,2,1.75c0.1,0.467-0.816,0.967-2.75,1.5
			c-0.533,0.167-0.983,0.534-1.35,1.101c-0.467,0.899-0.934,1.7-1.4,2.399c-0.566,0.9-1.066,1.351-1.5,1.351
			C101.95,42.783,101.033,42.717,100,42.75z"/>
		<path style="fill-rule:evenodd;clip-rule:evenodd;fill:#97B4C4;" d="M132.75,35.75c0.267,0.634,0.217,0.967-0.15,1
			c-0.733-0.134-1.483-0.217-2.25-0.25c-0.8-0.066-1.55-0.066-2.25,0c-0.767,0.033-1.433,0.033-2,0
			c-0.699-0.066-1.55-0.316-2.55-0.75c-1.7-0.767-2.85-1.267-3.45-1.5c-1.133-0.434-2.233-0.75-3.3-0.95
			c-1.1-0.2-1.899-0.35-2.399-0.45c1.466-0.4,2.25-0.6,2.35-0.6c0.667-0.133,1.533-0.183,2.6-0.15c1.834,0.1,3.801,0.15,5.9,0.15
			l0.1-0.65c0.367-0.167,0.75-0.483,1.15-0.95c0.267-0.3,0.684-0.4,1.25-0.3c0.366,0.1,0.85,0.033,1.45-0.2
			c1.1,1.1,1.733,1.833,1.899,2.2C131.533,33.283,132.083,34.417,132.75,35.75z"/>
	</g>
	<g>
		<g>
			<path style="fill-rule:evenodd;clip-rule:evenodd;fill:#FFFFFF;" d="M42.9,21.65c0.667,0,1,0.333,1,1c0,0.667-0.333,1-1,1
				c-0.633,0-0.95-0.333-0.95-1C41.95,21.983,42.267,21.65,42.9,21.65z"/>
			<path style="fill-rule:evenodd;clip-rule:evenodd;fill:#FFFFFF;" d="M43.05,17.55c0.567,0,0.9,0.267,1,0.8
				c0.067,0.533-0.117,0.9-0.55,1.1c0.067,0.233,0.05,0.433-0.05,0.6c0.233-0.167,0.466-0.25,0.7-0.25c0.667,0,1,0.333,1,1
				c0,0.667-0.333,1-1,1c-0.367,0-0.633-0.15-0.8-0.45c-0.167-0.3-0.2-0.6-0.1-0.9c-0.233,0.167-0.467,0.25-0.7,0.25
				c-0.625,0-0.941-0.309-0.95-0.925c-0.005,0.255-0.089,0.464-0.25,0.625c0.1,0.167,0.15,0.333,0.15,0.5v0.15c0,0.667-0.333,1-1,1
				s-1-0.333-1-1V20.9c0-0.333,0.1-0.583,0.3-0.75c-0.167-0.333-0.167-0.65,0-0.95c0.167-0.333,0.45-0.5,0.85-0.5
				c0.627,0,0.944,0.308,0.95,0.925c0.006-0.386,0.189-0.661,0.55-0.825c-0.066-0.3-0.033-0.583,0.1-0.85
				C42.417,17.683,42.683,17.55,43.05,17.55z"/>
			<path style="fill-rule:evenodd;clip-rule:evenodd;fill:#FFFFFF;" d="M45.5,21.4c0.633,0,0.95,0.333,0.95,1
				c0,0.667-0.317,1-0.95,1s-0.95-0.333-0.95-1C44.55,21.733,44.867,21.4,45.5,21.4z"/>
			<path style="fill-rule:evenodd;clip-rule:evenodd;fill:#FFFFFF;" d="M46.75,19.2c0.633,0,0.95,0.333,0.95,1
				c0,0.667-0.317,1-0.95,1s-0.95-0.333-0.95-1C45.8,19.533,46.117,19.2,46.75,19.2z"/>
			<path style="fill-rule:evenodd;clip-rule:evenodd;fill:#FFFFFF;" d="M48.25,18.8c-0.633,0-0.95-0.333-0.95-1
				c0-0.667,0.317-1,0.95-1s0.95,0.333,0.95,1C49.2,18.467,48.883,18.8,48.25,18.8z"/>
			<path style="fill-rule:evenodd;clip-rule:evenodd;fill:#FFFFFF;" d="M50.05,18.25c-0.333-0.6-0.216-1.033,0.35-1.3l0.15-0.1
				l0.1-0.05c-0.4-0.2-0.55-0.55-0.45-1.05c0.1-0.533,0.417-0.8,0.95-0.8l0.2,0.05c-0.133-0.333-0.133-0.65,0-0.95
				c0.167-0.333,0.467-0.5,0.9-0.5s0.717,0.2,0.85,0.6c0.167,0.367,0.133,0.7-0.1,1h0.15c0.333,0,0.583,0.117,0.75,0.35
				c0.167-0.3,0.45-0.45,0.85-0.45c0.567,0,0.883,0.3,0.95,0.9c0-0.667,0.316-1,0.95-1c0.667,0,1,0.333,1,1c0,0.667-0.333,1-1,1
				c-0.566,0-0.883-0.3-0.95-0.9c0,0.667-0.317,1-0.95,1c-0.367,0-0.633-0.133-0.8-0.4c-0.2,0.333-0.467,0.5-0.8,0.5
				c-0.467,0-0.767-0.2-0.9-0.6c-0.133-0.367-0.083-0.716,0.15-1.05l-0.15,0.05L52,15.5c0.133,0.267,0.15,0.533,0.05,0.8
				c-0.1,0.267-0.283,0.467-0.55,0.6c0.333,0.2,0.517,0.467,0.55,0.8c0.034,0.367-0.133,0.65-0.5,0.85l-0.15,0.1
				C50.833,18.95,50.383,18.817,50.05,18.25z"/>
			<path style="fill-rule:evenodd;clip-rule:evenodd;fill:#FFFFFF;" d="M48.9,22.2c-0.633,0-0.95-0.333-0.95-1
				c0-0.667,0.316-1,0.95-1c0.667,0,1,0.333,1,1C49.9,21.867,49.567,22.2,48.9,22.2z"/>
			<path style="fill-rule:evenodd;clip-rule:evenodd;fill:#FFFFFF;" d="M47,24.05c0.633,0,0.95,0.333,0.95,1c0,0.667-0.317,1-0.95,1
				s-0.95-0.333-0.95-1C46.05,24.383,46.367,24.05,47,24.05z"/>
			<path style="fill-rule:evenodd;clip-rule:evenodd;fill:#FFFFFF;" d="M43.15,24.3c0.667,0,1,0.333,1,1c0,0.667-0.333,1-1,1
				c-0.633,0-0.95-0.333-0.95-1C42.2,24.633,42.517,24.3,43.15,24.3z"/>
			<path style="fill-rule:evenodd;clip-rule:evenodd;fill:#FFFFFF;" d="M40.65,23.8c0.667,0,1,0.333,1,1c0,0.667-0.333,1-1,1
				c-0.633,0-0.95-0.333-0.95-1c-0.333,0.067-0.617,0.034-0.85-0.1c-0.3-0.167-0.45-0.434-0.45-0.8v-0.1c0-0.633,0.333-0.95,1-0.95
				c0.667,0,1,0.316,1,0.95v0.05L40.65,23.8z"/>
			<path style="fill-rule:evenodd;clip-rule:evenodd;fill:#FFFFFF;" d="M38.15,25.95c0.667,0,1,0.333,1,1c0,0.667-0.333,1-1,1
				c-0.633,0-0.95-0.333-0.95-1C37.2,26.283,37.517,25.95,38.15,25.95z"/>
			<path style="fill-rule:evenodd;clip-rule:evenodd;fill:#FFFFFF;" d="M46.25,17.35c0.133,0.333,0.133,0.65,0,0.95
				c-0.167,0.333-0.45,0.5-0.85,0.5c-0.633,0-0.95-0.333-0.95-1c0-0.667,0.316-1,0.95-1h0.05c-0.133-0.333-0.133-0.633,0-0.9
				c0.167-0.333,0.45-0.5,0.85-0.5c0.667,0,1,0.333,1,1c0,0.667-0.333,1-1,1L46.25,17.35z"/>
			<path style="fill-rule:evenodd;clip-rule:evenodd;fill:#FFFFFF;" d="M49.15,16.15c-0.633,0-0.95-0.333-0.95-1
				c0-0.667,0.316-1,0.95-1c0.667,0,1,0.333,1,1C50.15,15.817,49.817,16.15,49.15,16.15z"/>
			<path style="fill-rule:evenodd;clip-rule:evenodd;fill:#FFFFFF;" d="M78.75,21.3c-0.634,0-0.95-0.333-0.95-1
				c0-0.667,0.316-1,0.95-1s0.95,0.333,0.95,1C79.7,20.967,79.384,21.3,78.75,21.3z"/>
			<path style="fill-rule:evenodd;clip-rule:evenodd;fill:#FFFFFF;" d="M79.6,21.3c0.167-0.267,0.434-0.4,0.801-0.4
				c0.666,0,1,0.333,1,1c0,0.667-0.334,1-1,1l-0.351-0.1c0.066,0.3,0.033,0.583-0.1,0.85c-0.167,0.267-0.434,0.4-0.8,0.4
				c-0.367,0-0.634-0.133-0.801-0.4c-0.166-0.233-0.216-0.5-0.149-0.8c-0.2,0.133-0.384,0.2-0.55,0.2c-0.634,0-0.95-0.333-0.95-1
				c0-0.667,0.316-1,0.95-1c0.333,0,0.583,0.133,0.75,0.4c0.166,0.233,0.233,0.5,0.199,0.8c0.134-0.133,0.317-0.2,0.551-0.2
				l0.3,0.05C79.384,21.8,79.434,21.533,79.6,21.3z"/>
			<path style="fill-rule:evenodd;clip-rule:evenodd;fill:#FFFFFF;" d="M74.5,22.9c-0.633,0-0.95-0.333-0.95-1
				c0-0.667,0.317-1,0.95-1h0.05c0.667,0,1,0.333,1,1c0,0.667-0.333,1-1,1H74.5z"/>
			<path style="fill-rule:evenodd;clip-rule:evenodd;fill:#FFFFFF;" d="M75.15,23.3c0.267,0,0.5,0.1,0.7,0.3
				c0.066-0.2,0.167-0.317,0.3-0.35c0.4-0.367,0.817-0.383,1.25-0.05c0.466,0.333,0.55,0.75,0.25,1.25
				C77.483,24.783,77.267,24.967,77,25c-0.4,0.1-0.717,0-0.95-0.3c-0.1,0.2-0.233,0.35-0.4,0.45c0.333,0.267,0.45,0.633,0.35,1.1
				c-0.133,0.467-0.45,0.7-0.95,0.7c-0.533,0-0.85-0.25-0.95-0.75s0.05-0.867,0.45-1.1c-0.133-0.1-0.233-0.233-0.3-0.4
				c-0.167,0.167-0.4,0.25-0.7,0.25c-0.333,0-0.583-0.133-0.75-0.4c-0.233,0.233-0.483,0.35-0.75,0.35c-0.633,0-0.95-0.333-0.95-1
				c0-0.667,0.316-1,0.95-1c0.3,0,0.567,0.117,0.8,0.35c0.2-0.2,0.433-0.3,0.7-0.3c0.467,0,0.767,0.216,0.9,0.65
				C74.617,23.4,74.85,23.3,75.15,23.3z"/>
			<path style="fill-rule:evenodd;clip-rule:evenodd;fill:#FFFFFF;" d="M82.85,20.75c0.467-0.467,0.934-0.45,1.4,0.05
				c0.467,0.467,0.467,0.917,0,1.35l-0.05,0.1c-0.467,0.433-0.934,0.433-1.4,0c-0.5-0.467-0.517-0.933-0.05-1.4L82.85,20.75z"/>
			<path style="fill-rule:evenodd;clip-rule:evenodd;fill:#FFFFFF;" d="M85.5,18.9c0.634,0,0.95,0.333,0.95,1
				c0,0.667-0.316,1-0.95,1s-0.95-0.333-0.95-1C84.55,19.233,84.866,18.9,85.5,18.9z"/>
			<path style="fill-rule:evenodd;clip-rule:evenodd;fill:#FFFFFF;" d="M83.35,24.2l-0.1,0.25c-0.033,0.167-0.116,0.316-0.25,0.45
				h0.15c0.666,0,1,0.333,1,1c0,0.667-0.334,1-1,1c-0.467,0-0.767-0.217-0.9-0.65s-0.05-0.8,0.25-1.1c-0.333,0.067-0.616,0-0.85-0.2
				c-0.2,0.133-0.367,0.2-0.5,0.2c-0.634,0-0.95-0.333-0.95-1c0-0.667,0.316-1,0.95-1c0.233,0,0.416,0.05,0.55,0.15
				c0.3-0.333,0.7-0.4,1.2-0.2C83.366,23.333,83.517,23.7,83.35,24.2z"/>
			<path style="fill-rule:evenodd;clip-rule:evenodd;fill:#FFFFFF;" d="M76.3,26.8c0.667,0,1,0.333,1,1c0,0.667-0.333,1-1,1
				c-0.633,0-0.95-0.333-0.95-1C75.35,27.133,75.667,26.8,76.3,26.8z"/>
			<path style="fill-rule:evenodd;clip-rule:evenodd;fill:#FFFFFF;" d="M80.25,28.15c-0.233,0.467-0.6,0.6-1.1,0.4
				c-0.467-0.167-0.717-0.483-0.75-0.95c-0.567-0.067-0.834-0.417-0.801-1.05c0.034-0.6,0.351-0.9,0.95-0.9
				c0.566,0,0.884,0.267,0.95,0.8c0.333,0.066,0.6,0.233,0.8,0.5c0.2,0.3,0.217,0.633,0.05,1L80.25,28.15z"/>
			<path style="fill-rule:evenodd;clip-rule:evenodd;fill:#FFFFFF;" d="M81.2,28.65l0.05,0.1c0.467,0.467,0.467,0.933,0,1.4
				s-0.934,0.467-1.4,0l-0.1-0.05c-0.434-0.467-0.417-0.934,0.05-1.4C80.267,28.233,80.733,28.217,81.2,28.65z"/>
			<path style="fill-rule:evenodd;clip-rule:evenodd;fill:#FFFFFF;" d="M47,35.05c0.633,0,0.95,0.334,0.95,1c0,0.667-0.317,1-0.95,1
				s-0.95-0.333-0.95-1C46.05,35.384,46.367,35.05,47,35.05z"/>
			<path style="fill-rule:evenodd;clip-rule:evenodd;fill:#FFFFFF;" d="M51.4,35c0.367,0.333,0.434,0.733,0.2,1.2
				c-0.1,0.267-0.283,0.45-0.55,0.55c-0.6,0.233-1.05,0.116-1.35-0.35c-0.133-0.2-0.167-0.467-0.1-0.801l-0.1-0.1
				c-0.2,0.267-0.45,0.4-0.75,0.4c-0.633,0-0.95-0.334-0.95-1c0-0.667,0.317-1,0.95-1c0.433,0,0.7,0.166,0.8,0.5
				c0.267-0.367,0.633-0.5,1.1-0.4c0.5,0.134,0.75,0.45,0.75,0.95V35z"/>
			<path style="fill-rule:evenodd;clip-rule:evenodd;fill:#FFFFFF;" d="M49.25,36.45c0.633,0,0.95,0.333,0.95,1
				c0,0.666-0.317,1-0.95,1s-0.95-0.334-0.95-1C48.3,36.783,48.617,36.45,49.25,36.45z"/>
			<path style="fill-rule:evenodd;clip-rule:evenodd;fill:#FFFFFF;" d="M48.05,38.15c0.667,0,1,0.333,1,1c0,0.666-0.333,1-1,1
				c-0.633,0-0.95-0.334-0.95-1C47.1,38.483,47.417,38.15,48.05,38.15z"/>
			<path style="fill-rule:evenodd;clip-rule:evenodd;fill:#FFFFFF;" d="M45.75,38.65c-0.633,0-0.95-0.334-0.95-1
				c0-0.667,0.317-1,0.95-1s0.95,0.333,0.95,1C46.7,38.316,46.383,38.65,45.75,38.65z"/>
			<path style="fill-rule:evenodd;clip-rule:evenodd;fill:#FFFFFF;" d="M45.75,39.2c0.633,0,0.95,0.333,0.95,1
				c0,0.666-0.317,1-0.95,1s-0.95-0.334-0.95-1C44.8,39.533,45.117,39.2,45.75,39.2z"/>
			<path style="fill-rule:evenodd;clip-rule:evenodd;fill:#FFFFFF;" d="M47.3,41.15c0.667,0,1,0.333,1,1c0,0.666-0.333,1-1,1
				c-0.633,0-0.95-0.334-0.95-1C46.35,41.483,46.667,41.15,47.3,41.15z"/>
			<path style="fill-rule:evenodd;clip-rule:evenodd;fill:#FFFFFF;" d="M28,36.4c0.633,0,0.95,0.333,0.95,1c0,0.666-0.317,1-0.95,1
				c-0.5,0-0.817-0.233-0.95-0.7H26.9c-0.633,0-0.95-0.334-0.95-1c0-0.667,0.316-1,0.95-1c0.467,0,0.767,0.233,0.9,0.7H28z"/>
			<path style="fill-rule:evenodd;clip-rule:evenodd;fill:#FFFFFF;" d="M25.4,37.4c0.667,0,1,0.333,1,1c0,0.666-0.333,1-1,1
				c-0.633,0-0.95-0.334-0.95-1C24.45,37.733,24.767,37.4,25.4,37.4z"/>
			<path style="fill-rule:evenodd;clip-rule:evenodd;fill:#FFFFFF;" d="M31.3,34.4h0.1c0.624,0,0.94,0.291,0.95,0.875
				c0.01-0.584,0.327-0.875,0.95-0.875h0.2c0.633,0,0.95,0.333,0.95,1c0,0.666-0.317,1-0.95,1h-0.2c-0.267,0-0.5-0.101-0.7-0.301
				c-0.164-0.196-0.248-0.413-0.25-0.649c-0.003,0.236-0.086,0.453-0.25,0.649c-0.167,0.2-0.4,0.301-0.7,0.301h-0.1
				c-0.533,0-0.833-0.267-0.9-0.801L30.3,35.7c0.067,0.3,0.034,0.583-0.1,0.85c-0.167,0.267-0.434,0.4-0.8,0.4
				c-0.4,0-0.683-0.167-0.85-0.5c-0.167-0.334-0.167-0.667,0-1c-0.066-0.3-0.033-0.584,0.1-0.851c0.2-0.267,0.483-0.399,0.85-0.399
				c0.533,0,0.833,0.267,0.9,0.8C30.567,34.6,30.867,34.4,31.3,34.4z"/>
			<path style="fill-rule:evenodd;clip-rule:evenodd;fill:#FFFFFF;" d="M83.9,7.8c-0.634,0-0.95-0.333-0.95-1
				c0-0.667,0.316-1,0.95-1H84c0.634,0,0.95,0.333,0.95,1c0,0.667-0.316,1-0.95,1H83.9z"/>
			<path style="fill-rule:evenodd;clip-rule:evenodd;fill:#FFFFFF;" d="M91.3,4.85c0.667,0,1,0.316,1,0.95v0.15
				c0,0.4-0.149,0.683-0.45,0.85c-0.3,0.133-0.616,0.15-0.949,0.05C90.833,7.417,90.533,7.7,90,7.7c-0.667,0-1-0.35-1-1.05
				c-0.4,0.067-0.733-0.017-1-0.25l-0.05,0.25c-0.2,0.6-0.617,0.817-1.25,0.65c-0.667-0.167-0.9-0.566-0.7-1.2l0.1-0.25
				c0.134-0.367,0.384-0.583,0.75-0.65c0.367-0.067,0.667,0.017,0.9,0.25c0.1-0.567,0.467-0.833,1.1-0.8c0.601,0.067,0.9,0.4,0.9,1
				V5.7L89.7,5.75L90,5.7l0.3,0.1C90.333,5.167,90.667,4.85,91.3,4.85z"/>
			<path style="fill-rule:evenodd;clip-rule:evenodd;fill:#FFFFFF;" d="M93.75,4l0.1,0.1c0.467,0.467,0.467,0.933,0,1.4
				c-0.466,0.467-0.933,0.467-1.399,0L92.35,5.4c-0.433-0.433-0.416-0.883,0.051-1.35C92.866,3.583,93.316,3.567,93.75,4z"/>
			<path style="fill-rule:evenodd;clip-rule:evenodd;fill:#FFFFFF;" d="M101.4,5.05c0.199,0.3,0.199,0.633,0,1
				c-0.101,0.2-0.284,0.35-0.551,0.45c-0.233,0.067-0.466,0.05-0.699-0.05C99.85,6.683,99.5,6.733,99.1,6.6
				c-0.399-0.133-0.6-0.434-0.6-0.9V5.65c0-0.367,0.134-0.65,0.4-0.85c0.233-0.133,0.517-0.167,0.85-0.1c0.2-0.2,0.45-0.3,0.75-0.3
				C100.934,4.4,101.233,4.617,101.4,5.05z"/>
			<path style="fill-rule:evenodd;clip-rule:evenodd;fill:#FFFFFF;" d="M96.8,3.9c0.601,0,0.917,0.3,0.95,0.9
				c0.066,0.567-0.167,0.917-0.7,1.05c0.4,0.2,0.55,0.566,0.45,1.1c-0.1,0.5-0.417,0.75-0.95,0.75c-0.5,0-0.816-0.284-0.95-0.85
				c-0.3,0.1-0.583,0.083-0.85-0.05c-0.3-0.2-0.45-0.483-0.45-0.85V5.8c0-0.433,0.184-0.716,0.55-0.85
				c0.334-0.167,0.667-0.15,1,0.05C95.783,4.267,96.1,3.9,96.8,3.9z"/>
			<path style="fill-rule:evenodd;clip-rule:evenodd;fill:#FFFFFF;" d="M105.15,6.3c0.666,0,1,0.333,1,1c0,0.667-0.334,1-1,1
				c-0.634,0-0.95-0.333-0.95-1c-0.066,0.6-0.384,0.9-0.95,0.9c-0.634,0-0.95-0.333-0.95-1c0-0.667,0.316-1,0.95-1
				s0.95,0.333,0.95,1C104.267,6.6,104.583,6.3,105.15,6.3z"/>
		</g>
		<path style="fill-rule:evenodd;clip-rule:evenodd;fill:#C1DAE8;" d="M49.8,24.7c-0.633,0-0.95-0.333-0.95-1
			c0-0.667,0.316-1,0.95-1c0.667,0,1,0.333,1,1C50.8,24.367,50.467,24.7,49.8,24.7z"/>
		<path style="fill-rule:evenodd;clip-rule:evenodd;fill:#C1DAE8;" d="M51.75,22.5c-0.433,0.467-0.883,0.467-1.35,0
			s-0.483-0.933-0.05-1.4l0.15-0.2c0.467-0.433,0.933-0.417,1.4,0.05c0.5,0.466,0.517,0.933,0.05,1.4L51.75,22.5z"/>
		<path style="fill-rule:evenodd;clip-rule:evenodd;fill:#C1DAE8;" d="M52.3,20.9c-0.633,0-0.95-0.333-0.95-1
			c0-0.667,0.316-1,0.95-1c0.667,0,1,0.333,1,1C53.3,20.567,52.967,20.9,52.3,20.9z"/>
		<path style="fill-rule:evenodd;clip-rule:evenodd;fill:#C1DAE8;" d="M51.65,24.2c-0.633,0-0.95-0.333-0.95-1
			c0-0.667,0.316-1,0.95-1c0.667,0,1,0.333,1,1C52.65,23.867,52.317,24.2,51.65,24.2z"/>
		<path style="fill-rule:evenodd;clip-rule:evenodd;fill:#C1DAE8;" d="M51.25,27.05c-0.633,0-0.95-0.333-0.95-1
			c0-0.667,0.317-1,0.95-1s0.95,0.333,0.95,1C52.2,26.717,51.883,27.05,51.25,27.05z"/>
		<path style="fill-rule:evenodd;clip-rule:evenodd;fill:#C1DAE8;" d="M50.25,28.45c-0.633,0-0.95-0.333-0.95-1
			c0-0.667,0.317-1,0.95-1s0.95,0.333,0.95,1C51.2,28.117,50.883,28.45,50.25,28.45z"/>
		<path style="fill-rule:evenodd;clip-rule:evenodd;fill:#C1DAE8;" d="M48.05,28.05c-0.633,0-0.95-0.333-0.95-1
			c0-0.667,0.316-1,0.95-1c0.667,0,1,0.333,1,1C49.05,27.717,48.717,28.05,48.05,28.05z"/>
		<path style="fill-rule:evenodd;clip-rule:evenodd;fill:#C1DAE8;" d="M45.3,28.55c-0.633,0-0.95-0.333-0.95-1
			c0-0.667,0.316-1,0.95-1c0.667,0,1,0.333,1,1C46.3,28.217,45.967,28.55,45.3,28.55z"/>
		<path style="fill-rule:evenodd;clip-rule:evenodd;fill:#C1DAE8;" d="M101.55,40.7c-0.633,0-0.95-0.334-0.95-1
			c0-0.667,0.317-1,0.95-1c0.667,0,1,0.333,1,1C102.55,40.366,102.217,40.7,101.55,40.7z"/>
		<path style="fill-rule:evenodd;clip-rule:evenodd;fill:#C1DAE8;" d="M101.5,42.55c-0.634,0-0.95-0.333-0.95-1
			c0-0.666,0.316-1,0.95-1s0.95,0.334,0.95,1C102.45,42.217,102.134,42.55,101.5,42.55z"/>
		<path style="fill-rule:evenodd;clip-rule:evenodd;fill:#C1DAE8;" d="M103.55,40.15c-0.633,0-0.95-0.334-0.95-1
			c0-0.667,0.317-1,0.95-1c0.667,0,1,0.333,1,1C104.55,39.816,104.217,40.15,103.55,40.15z"/>
		<path style="fill-rule:evenodd;clip-rule:evenodd;fill:#C1DAE8;" d="M107,38.2c-0.634,0-0.95-0.334-0.95-1c0-0.667,0.316-1,0.95-1
			s0.95,0.333,0.95,1C107.95,37.866,107.634,38.2,107,38.2z"/>
		<path style="fill-rule:evenodd;clip-rule:evenodd;fill:#C1DAE8;" d="M108.5,37.15c-0.634,0-0.95-0.334-0.95-1
			c0-0.667,0.316-1,0.95-1s0.95,0.333,0.95,1C109.45,36.816,109.134,37.15,108.5,37.15z"/>
		<path style="fill-rule:evenodd;clip-rule:evenodd;fill:#C1DAE8;" d="M51.9,39.95c-0.633,0-0.95-0.334-0.95-1
			c0-0.667,0.316-1,0.95-1c0.667,0,1,0.333,1,1C52.9,39.616,52.567,39.95,51.9,39.95z"/>
		<path style="fill-rule:evenodd;clip-rule:evenodd;fill:#C1DAE8;" d="M125.9,35.95c-0.634,0-0.95-0.334-0.95-1
			c0-0.667,0.316-1,0.95-1c0.666,0,1,0.333,1,1C126.9,35.616,126.566,35.95,125.9,35.95z"/>
		<path style="fill-rule:evenodd;clip-rule:evenodd;fill:#C1DAE8;" d="M128.05,33.7c-0.633,0-0.95-0.334-0.95-1
			c0-0.667,0.317-1,0.95-1c0.667,0,1,0.333,1,1C129.05,33.366,128.717,33.7,128.05,33.7z"/>
		<path style="fill-rule:evenodd;clip-rule:evenodd;fill:#C1DAE8;" d="M128.9,34.65c0-0.634,0.333-0.95,1-0.95
			c0.666,0,1,0.316,1,0.95v0.05c0,0.666-0.334,1-1,1c-0.667,0-1-0.334-1-1V34.65z"/>
		<path style="fill-rule:evenodd;clip-rule:evenodd;fill:#C1DAE8;" d="M131.15,35.8c-0.634,0-0.95-0.333-0.95-1
			c0-0.666,0.316-1,0.95-1c0.666,0,1,0.334,1,1C132.15,35.467,131.816,35.8,131.15,35.8z"/>
		<path style="fill-rule:evenodd;clip-rule:evenodd;fill:#C1DAE8;" d="M127.5,36.4c-0.634,0-0.95-0.334-0.95-1
			c0-0.667,0.316-1,0.95-1s0.95,0.333,0.95,1C128.45,36.066,128.134,36.4,127.5,36.4z"/>
		<path style="fill-rule:evenodd;clip-rule:evenodd;fill:#C1DAE8;" d="M122.25,33.15c0.634,0,0.95,0.333,0.95,1
			c0,0.666-0.316,1-0.95,1s-0.95-0.334-0.95-1C121.3,33.483,121.616,33.15,122.25,33.15z"/>
		<path style="fill-rule:evenodd;clip-rule:evenodd;fill:#C1DAE8;" d="M119.8,34.3c-0.633,0-0.95-0.333-0.95-1
			c0-0.667,0.317-1,0.95-1c0.667,0,1,0.333,1,1C120.8,33.967,120.467,34.3,119.8,34.3z"/>
	</g>
	<g>
		
			<use xlink:href="#flash0.ai_x5F_17_x2F_Layer_114_x2F__x3C_Path_x3E__x5F_3"  width="32.808" height="31.133" x="-0.041" y="-31.119" transform="matrix(1 0 0 -1 29.7002 7.4502)" style="overflow:visible;opacity:0.5898;enable-background:new    ;"/>
		
			<use xlink:href="#flash0.ai_x5F_17_x2F_Layer_114_x2F__x3C_Path_x3E__x5F_2"  width="27.284" height="27.284" x="0.027" y="-27.311" transform="matrix(1 0 0 -1 66.7998 11.3999)" style="overflow:visible;opacity:0.5898;enable-background:new    ;"/>
		
			<use xlink:href="#flash0.ai_x5F_17_x2F_Layer_114_x2F__x3C_Path_x3E__x5F_1"  width="36" height="13.15" y="-13.15" transform="matrix(1 0 0 -1 75.7998 0)" style="overflow:visible;opacity:0.5898;enable-background:new    ;"/>
		
			<use xlink:href="#flash0.ai_x5F_17_x2F_Layer_114_x2F__x3C_Path_x3E__x5F_4"  width="17.652" height="18.421" x="-0.001" y="-18.421" transform="matrix(1 0 0 -1 116.2998 22.7998)" style="overflow:visible;opacity:0.5898;enable-background:new    ;"/>
	</g>
</g>
</svg>
