<?xml version="1.0" encoding="iso-8859-1"?>
<!-- Generator: Adobe Illustrator 15.1.0, SVG Export Plug-In . SVG Version: 6.00 Build 0)  -->
<!DOCTYPE svg PUBLIC "-//W3C//DTD SVG 1.1//EN" "http://www.w3.org/Graphics/SVG/1.1/DTD/svg11.dtd">
<svg version="1.1" id="Layer_3" xmlns="http://www.w3.org/2000/svg" xmlns:xlink="http://www.w3.org/1999/xlink" x="0px" y="0px"
	 width="101.7px" height="93.95px" viewBox="0 0 101.7 93.95" style="enable-background:new 0 0 101.7 93.95;" xml:space="preserve"
	>
<symbol  id="flash0.ai_x2F_Layer_3_x2F__x3C_Path_x3E_" viewBox="-0.003 -23.077 31.343 23.072">
	<g id="Layer_1_2_">
		<path style="fill-rule:evenodd;clip-rule:evenodd;fill:#2E6A53;" d="M31.05-8.8c0.267-0.767,0.35-1.383,0.25-1.85
			c-0.167-0.533-0.633-0.6-1.4-0.2c0.1-0.233,0.317-0.683,0.65-1.35c0.2-0.6,0.017-0.917-0.55-0.95c-0.3-0.033-0.783,0.25-1.45,0.85
			c-0.7,0.667-1.15,1.083-1.35,1.25L21.3-6.7c0.267-0.966,1.25-2.3,2.95-4c0.133-0.133,0.633-0.566,1.5-1.3
			c0.667-0.533,1.1-1,1.3-1.4c-2.466,1.5-4.066,2.5-4.8,3c-1.233,1.033-2.283,1.85-3.15,2.45c-1.6,1.167-2.684,1.567-3.25,1.2
			c0.167-0.467,0.6-1,1.3-1.6c0.367-0.333,0.917-0.767,1.65-1.3c1.6-1.333,2.784-2.4,3.55-3.2c0.733-0.7,1.233-1.283,1.5-1.75
			c0.367-0.633,0.566-1.35,0.6-2.15c0-2.7-0.3-4.417-0.9-5.15c-1.267-1.5-3.1-1.567-5.5-0.2c-1.233,0.7-2.433,2.283-3.6,4.75
			c-1.3,3.033-2.35,5.3-3.15,6.8C10.333-8.683,9.317-7.267,8.25-6.3L6.9-5.4C5.467-4.5,4.05-4.217,2.65-4.55
			c-0.4-0.1-1-0.534-1.8-1.3C0.25-6.483-0.033-6.667,0-6.4c0.067,0.433,0.433,1.1,1.1,2c0.767,1.033,1.533,1.75,2.3,2.15
			C4.6-1.583,5.45-1.167,5.95-1c0.867,0.333,2.066,0.583,3.6,0.75c1.967,0.233,3.617,0.3,4.95,0.2c1.867-0.1,4.067-0.517,6.6-1.25
			c3.066-0.833,5.65-2.333,7.75-4.5C30.083-7.167,30.817-8.167,31.05-8.8z"/>
	</g>
</symbol>
<symbol  id="flash0.ai_x2F_Layer_3_x2F__x3C_Path_x3E__x5F_0" viewBox="-0.022 -9.954 12.322 9.94">
	<g id="Layer_1_3_">
		<path style="fill-rule:evenodd;clip-rule:evenodd;fill:#2E6A53;" d="M11.3-1.55c0.6-0.6,0.667-1,0.2-1.2
			c-0.167-0.067-0.467,0-0.9,0.2C9.867-2.15,9.467-1.933,9.4-1.9C9.433-1.933,9.917-2.3,10.85-3c0.733-0.533,1.217-1.183,1.45-1.95
			c-0.667,0.7-1.466,1.284-2.4,1.75C9-2.733,8.317-2.533,7.85-2.6c0.167-0.3,0.566-0.733,1.2-1.3c0.733-0.633,1.167-1.033,1.3-1.2
			c0.833-1.033,1.167-2.183,1-3.45c-0.2-1.333-1.05-1.717-2.55-1.15C8.233-9.5,7.633-8.9,7-7.9C6.3-6.667,5.75-5.75,5.35-5.15
			c-0.8,1.167-1.517,1.8-2.15,1.9C2.867-3.083,2.467-3,2-3C1.633-3.033,1.333-3.1,1.1-3.2C0.533-3.5,0.167-3.75,0-3.95
			c-0.067,0.167,0.017,0.434,0.25,0.8c0.2,0.367,0.467,0.717,0.8,1.05c0.867,0.767,2.067,1.35,3.6,1.75c1.5,0.367,2.8,0.434,3.9,0.2
			C9.75-0.417,10.667-0.883,11.3-1.55z"/>
	</g>
</symbol>
<symbol  id="flash0.ai_x2F_Layer_3_x2F__x3C_Path_x3E__x5F_1" viewBox="0.015 -16.183 20.289 16.167">
	<g id="Layer_1_4_">
		<path style="fill-rule:evenodd;clip-rule:evenodd;fill:#2E6A53;" d="M19.55-2.6c0.434-0.566,0.684-1.017,0.75-1.35
			C20.333-4.117,20.15-4,19.75-3.6c-0.567,0.5-0.967,0.783-1.2,0.85c-0.867,0.2-1.767-0.05-2.7-0.75c-0.2-0.1-0.467-0.317-0.8-0.65
			C14.383-4.883,13.767-5.9,13.2-7.2c-0.434-1.066-1.017-2.65-1.75-4.75c-0.667-1.733-1.383-2.867-2.15-3.4
			c-1.9-1.333-3.25-1.066-4.05,0.8C4.617-13.117,4.667-11.7,5.4-10.3c0.267,0.533,0.717,1.183,1.35,1.95
			c0.367,0.434,0.767,0.9,1.2,1.4c0.2,0.3,0.1,0.383-0.3,0.25C7.25-6.867,6.733-7.25,6.1-7.85c-0.5-0.467-1.133-1.233-1.9-2.3
			c-0.534-0.767-0.784-1.067-0.75-0.9c0.033,0.1,0.3,0.733,0.8,1.9C4.65-8.25,4.7-7.933,4.4-8.2L3.05-9.7c-0.633-0.667-1.1-1-1.4-1
			c-0.767,0.034-1.267,0.317-1.5,0.85C-0.15-9.117,0.05-8,0.75-6.5c1.2,2.467,3.183,4.217,5.95,5.25c1.6,0.6,3,0.967,4.2,1.1
			c0.8,0.133,1.85,0.167,3.15,0.1c0.967-0.067,1.733-0.2,2.3-0.4C16.617-0.517,17.167-0.767,18-1.2
			C18.5-1.467,19.017-1.933,19.55-2.6z"/>
	</g>
</symbol>
<symbol  id="flash0.ai_x2F_Layer_3_x2F__x3C_Path_x3E__x5F_2" viewBox="-0.006 -26.922 39.734 26.926">
	<g id="Layer_1_5_">
		<path style="fill-rule:evenodd;clip-rule:evenodd;fill:#2E6A53;" d="M32.1-10.55c-0.434,0-1.067-0.184-1.9-0.55
			c-1.633-0.767-3.367-2.1-5.2-4c-1.467-1.533-3.567-3.917-6.3-7.15c-2.367-2.533-4.4-4-6.1-4.4c-2.067-0.467-3.667-0.333-4.8,0.4
			c-1.167,0.733-1.783,2.033-1.85,3.9c-0.067,1.733,0.183,3.2,0.75,4.4C7.167-16.983,7.95-16,9.05-15c0.8,0.733,2.05,1.567,3.75,2.5
			c0.867,0.467,1.85,1,2.95,1.6c0.6,0.367,0.5,0.55-0.3,0.55c-0.867,0.033-2.05-0.233-3.55-0.8c-1.2-0.467-2.833-1.383-4.9-2.75
			c-1.467-0.967-2.1-1.317-1.9-1.05c0.1,0.167,1,1.083,2.7,2.75c1.233,1.267,1.517,1.8,0.85,1.6c-0.066-0.033-1.2-0.583-3.4-1.65
			c-1.533-0.733-2.567-1-3.1-0.8C0.783-12.483,0.067-11.633,0-10.5C-0.1-9,1-7.183,3.3-5.05C7-1.583,11.683,0.1,17.35,0
			c3.233-0.1,5.95-0.433,8.15-1c1.567-0.433,3.433-1.167,5.6-2.2c1.7-0.8,2.983-1.566,3.85-2.3c0.466-0.4,1.3-1.233,2.5-2.5
			c0.7-0.8,1.283-1.967,1.75-3.5c0.433-1.367,0.6-2.35,0.5-2.95c-0.034-0.3-0.3,0.05-0.8,1.05c-0.6,1.267-1.117,2.033-1.55,2.3
			C35.917-10.167,34.167-9.983,32.1-10.55z"/>
	</g>
</symbol>
<symbol  id="flash0.ai_x2F_Layer_3_x2F__x3C_Path_x3E__x5F_3" viewBox="0.02 -24.706 28.115 24.726">
	<g id="Layer_1_6_">
		<path style="fill-rule:evenodd;clip-rule:evenodd;fill:#2E6A53;" d="M21.35-4.4c3.667-2.367,5.85-5.434,6.55-9.2
			c0.434-2.333,0.267-3.95-0.5-4.85c-0.6-0.667-1.483-0.867-2.65-0.6c-0.433,0.1-0.95,0.716-1.55,1.85
			c-0.667,1.267-1.133,2.1-1.4,2.5c-0.333,0.434-0.4-0.017-0.2-1.35c0.267-1.8,0.4-2.75,0.4-2.85c-0.033-0.3-0.283,0.183-0.75,1.45
			c-0.7,1.767-1.3,3.05-1.8,3.85c-0.7,1-1.317,1.684-1.85,2.05c-0.533,0.333-0.7,0.25-0.5-0.25c0.133-0.267,0.517-1.017,1.15-2.25
			c0.6-1.3,0.983-2.35,1.15-3.15c0.233-1.1,0.267-2.066,0.1-2.9c-0.2-0.967-0.75-1.967-1.65-3c-0.934-1.133-1.95-1.667-3.05-1.6
			c-1.1,0.067-2.2,0.7-3.3,1.9c-0.9,0.966-1.483,2.75-1.75,5.35c-0.167,3.167-0.367,5.55-0.6,7.15C8.883-8.333,8.4-6.75,7.7-5.55
			l-0.95,1.2C5.783-3.183,4.583-2.533,3.15-2.4C2.75-2.367,2.033-2.617,1-3.15c-0.767-0.4-1.083-0.5-0.95-0.3
			c0.2,0.4,0.767,0.934,1.7,1.6C2.817-1.117,3.767-0.667,4.6-0.5C5.9-0.2,6.833-0.033,7.4,0c0.867,0.067,2.05-0.033,3.55-0.3
			c1.933-0.333,3.5-0.717,4.7-1.15C17.35-2.05,19.25-3.033,21.35-4.4z"/>
	</g>
</symbol>
<g>
	<g>
		<g>
			
				<linearGradient id="SVGID_1_" gradientUnits="userSpaceOnUse" x1="-52.6357" y1="-45.209" x2="33.1962" y2="-45.209" gradientTransform="matrix(-0.995 0.1002 -0.1002 -0.995 1.356676e-004 -3.399551e-004)">
				<stop  offset="0" style="stop-color:#1B3021"/>
				<stop  offset="1" style="stop-color:#2D5852"/>
			</linearGradient>
			<path style="fill-rule:evenodd;clip-rule:evenodd;fill:url(#SVGID_1_);" d="M51.4,48.4c-0.2,0.133-0.551,1.316-1.051,3.55
				c-0.466,2.033-1.933,3.399-4.399,4.1c-2.167,0.634-4.284,0.4-6.35-0.7c-2.3-1.166-3.983-3.133-5.05-5.899
				c-1.533-3.967-3.45-7-5.75-9.1c-2.3-2.1-4.4-2.75-6.3-1.95c-1.833,0.767-3.067,0.467-3.7-0.9c-0.6-1.367-0.35-2.967,0.75-4.8
				c1.267-2.067,3.833-3.7,7.7-4.9c4.467-1.367,9.117-1.483,13.95-0.35c5.2,1.233,9.583,3.683,13.149,7.35
				c3.5,3.633,4.7,6.817,3.601,9.55c-0.667,1.633-1.733,2.683-3.2,3.15C53.15,47.767,52.033,48.066,51.4,48.4z"/>
			<path style="fill-rule:evenodd;clip-rule:evenodd;fill:#2E6A53;" d="M57.5,40.55c-0.767-2.5-2.667-4.966-5.7-7.4
				c-3.233-2.566-6.8-4.316-10.7-5.25c-4.733-1.133-9.333-1.017-13.8,0.35c-1.767,0.533-3.35,1.267-4.75,2.2
				c-1.233,0.8-2.117,1.633-2.65,2.5c-0.9,1.5-1.167,2.85-0.8,4.05c0.4,1.167,1.316,1.55,2.75,1.15l0.5-0.15
				c0.033,0,0.167-0.05,0.4-0.15C24.817,37.217,27,38,29.3,40.2c2.233,2.133,4.117,5.167,5.65,9.1c1.033,2.634,2.633,4.517,4.8,5.65
				c1.967,1,4,1.217,6.1,0.649l0.25-0.1c1.267-0.4,2.217-0.95,2.85-1.65c0.466-0.533,0.783-1.233,0.95-2.1
				c0.133-0.967,0.234-1.667,0.3-2.1c0.166-0.767,0.5-1.317,1-1.65l0.8-0.35c0.566-0.167,1.417-0.367,2.55-0.601
				c1.4-0.433,2.384-1.4,2.95-2.9C57.967,43.117,57.967,41.917,57.5,40.55z M51.65,48.8C51.384,48.9,51.2,49.267,51.1,49.9
				c-0.066,0.366-0.183,1.066-0.35,2.1c-0.4,2.167-1.833,3.616-4.3,4.35L46.4,56.4l-0.3,0.05c-2.3,0.666-4.533,0.434-6.7-0.7
				c-2.4-1.233-4.15-3.267-5.25-6.1C32.717,45.917,30.9,43,28.7,40.9c-2.1-2.033-4-2.767-5.7-2.2l-0.3,0.15l-0.55,0.2
				c-0.9,0.3-1.733,0.284-2.5-0.05c-0.633-0.333-1.1-0.9-1.4-1.7c-0.433-1.5-0.117-3.117,0.95-4.85c0.6-1,1.566-1.934,2.9-2.8
				c1.367-0.9,3-1.65,4.9-2.25c4.567-1.467,9.317-1.6,14.25-0.4c4.1,1,7.783,2.8,11.05,5.4c3.167,2.533,5.184,5.167,6.05,7.9
				c0.467,1.6,0.467,3.017,0,4.25c-0.699,1.767-1.866,2.9-3.5,3.4c-1.233,0.233-2.1,0.434-2.6,0.6L51.65,48.8z"/>
		</g>
		
			<use xlink:href="#flash0.ai_x2F_Layer_3_x2F__x3C_Path_x3E_"  width="31.343" height="23.072" x="-0.003" y="-23.077" transform="matrix(1 0 0 -1 21 28.4502)" style="overflow:visible;opacity:0.3086;enable-background:new    ;"/>
	</g>
	<g>
		<g>
			
				<linearGradient id="SVGID_2_" gradientUnits="userSpaceOnUse" x1="37.3633" y1="16.6548" x2="91.8832" y2="16.6548" gradientTransform="matrix(0.9996 -0.0271 0.0271 0.9996 7.020310e-005 -1.441054e-004)">
				<stop  offset="0" style="stop-color:#1C3030"/>
				<stop  offset="1" style="stop-color:#2E6753"/>
			</linearGradient>
			<path style="fill-rule:evenodd;clip-rule:evenodd;fill:url(#SVGID_2_);" d="M44.65,22.55c-1.066,0.5-2.167,0.567-3.3,0.2
				c-1.233-0.4-2.2-1.267-2.9-2.6c-1.034-1.933-2.2-3.333-3.5-4.2c-1.3-0.9-2.4-1.067-3.3-0.5c-0.9,0.566-1.55,0.517-1.95-0.15
				c-0.4-0.667-0.383-1.533,0.05-2.6c0.533-1.167,1.75-2.217,3.65-3.15c2.2-1.1,4.55-1.566,7.05-1.4c2.733,0.2,5.117,1.1,7.15,2.7
				c2,1.566,2.817,3.117,2.45,4.65c-0.233,0.9-0.716,1.533-1.45,1.9c-0.8,0.267-1.35,0.517-1.65,0.75c-0.1,0.1-0.217,0.733-0.35,1.9
				C46.5,21.15,45.85,21.983,44.65,22.55z"/>
			<path style="fill-rule:evenodd;clip-rule:evenodd;fill:#2E6A53;" d="M47.45,10.15c2.033,1.434,3.066,2.983,3.1,4.65l-0.1,0.8
				c-0.267,1.033-0.817,1.767-1.65,2.2c-0.867,0.3-1.4,0.534-1.6,0.7c-0.034,0-0.083,0.533-0.15,1.6
				c-0.133,1.3-0.883,2.267-2.25,2.9c-0.633,0.3-1.316,0.45-2.05,0.45c-2.067,0-3.633-1.034-4.7-3.1
				c-0.767-1.467-1.667-2.65-2.7-3.55c-0.934-0.833-1.783-1.25-2.55-1.25c-0.333,0-0.65,0.1-0.95,0.3
				c-0.467,0.267-0.883,0.4-1.25,0.4c-0.5,0-0.9-0.217-1.2-0.65c-0.267-0.367-0.4-0.833-0.4-1.4c0-0.6,0.117-1.15,0.35-1.65
				c0.566-1.233,1.733-2.316,3.5-3.25c1.967-1.066,4.167-1.617,6.6-1.65c0.466,0,0.816,0.017,1.05,0.05
				C43.133,7.9,45.45,8.717,47.45,10.15z M48.4,16.95c0.6-0.3,1-0.833,1.2-1.6l0.05-0.55c0.067-1.267-0.833-2.566-2.7-3.9
				c-1.934-1.4-4.1-2.167-6.5-2.3l-1-0.05c-2.2,0-4.267,0.534-6.2,1.6c-1.667,0.9-2.7,1.817-3.1,2.75c-0.2,0.5-0.3,0.934-0.3,1.3
				c0.033,0.733,0.283,1.117,0.75,1.15c0.2,0,0.467-0.1,0.8-0.3c0.367-0.267,0.817-0.4,1.35-0.4h0.05
				c1.034,0.033,2.083,0.517,3.15,1.45c1.033,0.933,1.983,2.2,2.85,3.8c0.934,1.733,2.25,2.6,3.95,2.6c0.667,0,1.233-0.117,1.7-0.35
				c0.667-0.3,1.133-0.65,1.4-1.05c0.167-0.267,0.283-0.633,0.35-1.1c0-0.5,0-0.867,0-1.1c0.033-0.467,0.2-0.85,0.5-1.15
				C47.1,17.483,47.667,17.217,48.4,16.95z"/>
		</g>
		
			<use xlink:href="#flash0.ai_x2F_Layer_3_x2F__x3C_Path_x3E__x5F_0"  width="12.322" height="9.94" x="-0.022" y="-9.954" transform="matrix(1 0 0 -1 32.1499 9.3999)" style="overflow:visible;opacity:0.3594;enable-background:new    ;"/>
	</g>
	<g>
		<linearGradient id="SVGID_3_" gradientUnits="userSpaceOnUse" x1="48.8296" y1="56.4775" x2="98.4048" y2="68.6015">
			<stop  offset="0" style="stop-color:#1B3029"/>
			<stop  offset="0.7294" style="stop-color:#2D6453"/>
			<stop  offset="1" style="stop-color:#2C7353"/>
		</linearGradient>
		<path style="fill-rule:evenodd;clip-rule:evenodd;fill:url(#SVGID_3_);" d="M89.05,52.45c-0.467,2.066-1.833,2.7-4.1,1.899
			c-2.367-0.833-4.684,0.417-6.95,3.75c-2.3,3.301-3.983,7.851-5.05,13.65c-0.733,4-2.316,7-4.75,9c-2.2,1.8-4.617,2.45-7.25,1.95
			c-2.967-0.601-4.9-2.283-5.8-5.05c-0.334-1.4-0.584-2.384-0.75-2.95c-0.301-0.967-0.684-1.566-1.15-1.8
			c-1.733-0.267-3.083-0.517-4.05-0.75c-1.733-0.434-3.133-1.733-4.2-3.9c-1.767-3.667-0.95-8.3,2.45-13.9
			C50.95,48.65,55.6,44.533,61.4,42c5.399-2.4,10.8-2.983,16.199-1.75c4.7,1.067,7.95,2.95,9.75,5.65
			C88.95,48.267,89.517,50.45,89.05,52.45z"/>
		<path style="fill-rule:evenodd;clip-rule:evenodd;fill:none;stroke:#2E6A53;" d="M89.05,52.45c0.467-2-0.1-4.184-1.7-6.55
			c-1.8-2.7-5.05-4.583-9.75-5.65C72.2,39.017,66.8,39.6,61.4,42c-5.801,2.533-10.45,6.65-13.95,12.35
			c-3.4,5.601-4.217,10.233-2.45,13.9c1.067,2.167,2.467,3.467,4.2,3.9c0.967,0.233,2.316,0.483,4.05,0.75
			c0.467,0.233,0.85,0.833,1.15,1.8c0.166,0.566,0.416,1.55,0.75,2.95c0.899,2.767,2.833,4.449,5.8,5.05
			c2.633,0.5,5.05-0.15,7.25-1.95c2.434-2,4.017-5,4.75-9C74.017,65.95,75.7,61.4,78,58.1c2.267-3.333,4.583-4.583,6.95-3.75
			C87.217,55.15,88.583,54.517,89.05,52.45z"/>
		<path style="fill-rule:evenodd;clip-rule:evenodd;fill:#2E6A53;" d="M82.65,46.95c-1.733-0.2-3.317,0.434-4.75,1.899
			c-0.367,0.233-0.834,0.733-1.4,1.5c-1.066,1.534-2,3.667-2.8,6.4c-0.634,2.2-1.434,5.533-2.4,10c-0.934,3.634-2.05,6.033-3.35,7.2
			c-1.566,1.434-3,2.05-4.3,1.85c-1.301-0.2-2.384-1.2-3.25-3c-0.667-1.434-1.017-2.717-1.051-3.85
			c-0.033-1.167,0.267-2.467,0.9-3.9c0.434-1.033,1.1-2.316,2-3.85c1.233-2.101,1.95-3.351,2.15-3.75l2.649-4.5
			c0.634-0.934,1.316-2.117,2.05-3.55c-1.366,0.233-2.816,1.399-4.35,3.5c-0.866,1.133-1.983,2.733-3.35,4.8
			c0.066-1.033,0.283-2,0.649-2.9c0.367-0.899,1-2.05,1.9-3.45c-0.2-0.033-0.417,0.034-0.65,0.2c-0.267,0.2-0.75,0.667-1.45,1.4
			L60.4,54.6c-1.267,1.5-2.517,3.301-3.75,5.4c-0.733,1.2-1.667,0.95-2.801-0.75c-1.1-1.634-1.6-3.134-1.5-4.5
			c0.334-3.6,3.117-6.75,8.351-9.45c2.8-1.433,5.283-2.367,7.45-2.8c1.533-0.333,3.449-0.483,5.75-0.45c1.8,0,3.233,0.15,4.3,0.45
			c0.633,0.167,1.684,0.617,3.149,1.35c0.967,0.467,1.983,1.35,3.051,2.65c0.966,1.134,1.517,2.017,1.649,2.65
			c0.101,0.333-0.267,0.116-1.1-0.65C83.884,47.533,83.116,47.017,82.65,46.95z"/>
	</g>
	<g>
		<g>
			
				<linearGradient id="SVGID_4_" gradientUnits="userSpaceOnUse" x1="-5.2593" y1="68.9756" x2="5.6475" y2="68.9756" gradientTransform="matrix(0.5547 -0.8321 0.8321 0.5547 -6.657839e-005 -1.370907e-004)">
				<stop  offset="0" style="stop-color:#1C3030"/>
				<stop  offset="1" style="stop-color:#2E6753"/>
			</linearGradient>
			<path style="fill-rule:evenodd;clip-rule:evenodd;fill:url(#SVGID_4_);" d="M55.65,46.75c-1.567-0.367-2.534-1.233-2.9-2.6
				c-0.4-1.533-0.667-2.333-0.8-2.4c-0.9-0.167-1.617-0.333-2.15-0.5c-0.933-0.267-1.633-0.933-2.1-2c-0.8-1.833-0.133-4.05,2-6.65
				c2.166-2.667,4.883-4.517,8.149-5.55c3.034-1,6-1.1,8.9-0.3c2.5,0.667,4.167,1.683,5,3.05c0.767,1.233,0.967,2.317,0.6,3.25
				c-0.333,0.967-1.1,1.217-2.3,0.75c-1.233-0.466-2.55,0.067-3.95,1.6c-1.399,1.533-2.533,3.684-3.399,6.45
				c-0.601,1.933-1.601,3.333-3,4.2C58.434,46.85,57.083,47.083,55.65,46.75z"/>
			<path style="fill-rule:evenodd;clip-rule:evenodd;fill:#2E6A53;" d="M51.3,31.25c-1.867,1.767-3.017,3.533-3.45,5.3
				c-0.2,1.034-0.167,1.9,0.1,2.6c0.5,1.1,1.25,1.733,2.25,1.9l1.1,0.2l0.8,0.25c0.334,0.2,0.567,0.567,0.7,1.1
				c0.066,0.3,0.15,0.783,0.25,1.45c0.3,1.267,1.2,2.083,2.7,2.45h0.15c1.3,0.267,2.533,0.017,3.699-0.75
				c1.301-0.833,2.233-2.167,2.801-4c0.866-2.7,1.949-4.817,3.25-6.35c1.333-1.566,2.683-2.233,4.05-2l0.899,0.3
				c0.767,0.133,1.284-0.184,1.551-0.95c0.199-0.9-0.017-1.833-0.65-2.8c-0.4-0.633-1.083-1.233-2.05-1.8
				c-1.066-0.6-2.267-1.05-3.601-1.35c-2.6-0.5-5.25-0.333-7.949,0.5C55.467,28.067,53.267,29.383,51.3,31.25z M57.75,26.75
				c2.833-0.9,5.566-1.067,8.2-0.5c1.434,0.3,2.7,0.767,3.8,1.4c1.033,0.6,1.783,1.267,2.25,2c0.733,1.167,0.967,2.25,0.7,3.25
				c-0.101,0.467-0.351,0.85-0.75,1.15c-0.367,0.233-0.867,0.3-1.5,0.2L69.6,34c-1.066-0.267-2.216,0.333-3.449,1.8
				c-1.334,1.5-2.384,3.534-3.15,6.1c-0.6,1.967-1.616,3.417-3.05,4.35c-1.334,0.866-2.733,1.15-4.2,0.85l-0.2-0.05
				c-1.733-0.4-2.767-1.35-3.1-2.85c-0.134-0.7-0.217-1.184-0.25-1.45c-0.101-0.433-0.233-0.683-0.4-0.75l-0.649-0.2l-1.101-0.15
				c-1.267-0.267-2.15-1.033-2.65-2.3c-0.367-0.9-0.4-1.867-0.1-2.9c0.467-1.9,1.667-3.767,3.601-5.6
				C52.9,28.95,55.184,27.583,57.75,26.75z"/>
		</g>
		
			<use xlink:href="#flash0.ai_x2F_Layer_3_x2F__x3C_Path_x3E__x5F_1"  width="20.289" height="16.167" x="0.015" y="-16.183" transform="matrix(1 0 0 -1 50.5996 27.3999)" style="overflow:visible;opacity:0.5;enable-background:new    ;"/>
	</g>
	<g>
		
			<linearGradient id="SVGID_5_" gradientUnits="userSpaceOnUse" x1="-68.104" y1="35.2295" x2="29.2041" y2="35.2295" gradientTransform="matrix(-0.3008 -0.9537 0.9537 -0.3008 1.198053e-004 7.242560e-004)">
			<stop  offset="0" style="stop-color:#1C3030"/>
			<stop  offset="1" style="stop-color:#2E6753"/>
		</linearGradient>
		<path style="fill-rule:evenodd;clip-rule:evenodd;fill:url(#SVGID_5_);" d="M52.95,1.95c0.633-0.167,1.217-0.217,1.75-0.15
			c0.767,0.133,1.267,0.5,1.5,1.1c0.233,0.633-0.134,0.934-1.101,0.9c-0.6-0.066-1.149,0.05-1.649,0.35
			c-0.2,0.1-0.384,0.25-0.55,0.45c-0.2,0.233-0.284,0.433-0.25,0.6C52.717,5.4,53,5.5,53.5,5.5c0.634-0.033,0.983-0.033,1.05,0
			c0.4,0.133,0.767,0.383,1.101,0.75c0.366,0.467,0.433,0.85,0.199,1.15C55.816,7.433,55.7,7.533,55.5,7.7
			c-0.167,0.1-0.267,0.2-0.3,0.3c-0.033,0.233,0.217,0.467,0.75,0.7c0.533,0.566,0.767,1.517,0.7,2.85
			c-0.067,0.7-0.284,1.3-0.65,1.8c-0.4,0.5-0.934,0.733-1.6,0.7c-0.667-0.033-0.917-0.283-0.75-0.75
			c0.033-0.033,0.267-0.4,0.699-1.1c0.334-0.534,0.367-1.034,0.101-1.5c-0.267-0.467-0.684-0.684-1.25-0.65
			c-0.5,0-0.983,0.3-1.45,0.9c-0.7,0.9-1.267,2.533-1.7,4.9L49.7,18.1c-0.275,1.652-0.442,3.36-0.5,5.125
			c-0.185,0.586-0.285,1.062-0.3,1.425c0,0.367,0.1,0.833,0.3,1.4c0.005-0.067,0.014-0.134,0.025-0.2l0.425,4.45
			c-0.129-0.517-0.229-1.017-0.3-1.5c0.297,3.625,1.081,7.341,2.35,11.15c0.733,2.167,1.916,5.4,3.55,9.7
			c1.3,4.199,2.083,8.833,2.35,13.899c0,0.033,0.467,5.101,1.4,15.2c0.4,4.6,0.25,7.866-0.45,9.8c-0.267,0.7-1.116,1.3-2.55,1.8
			c-1.7,0.467-2.833,0.784-3.4,0.95c-0.8-0.166-1.55-0.333-2.25-0.5c-1.366-0.3-2.366-0.184-3,0.351
			c0.267-0.634,0.917-2.067,1.95-4.301c0.733-1.566,1.316-3.083,1.75-4.55c0.767-2.934,1.316-6.45,1.65-10.55
			c0.666-8.167-0.101-15.15-2.3-20.95c-2.101-5.533-3.5-11.183-4.2-16.95c-0.9-7.233-0.85-13,0.15-17.3
			c0.233-1.133,0.6-2.367,1.1-3.7l1.1-3.15c0.233-0.8,0.367-1.35,0.4-1.65c0-0.6-0.233-1.1-0.7-1.5c-1.1-1-1.733-2.1-1.9-3.3
			C46.217,2.117,46.367,1.3,46.8,0.8c0.3-0.267,0.65-0.383,1.05-0.35c0.367,0.033,0.7,0.183,1,0.45c0.333,0.3,0.533,0.733,0.6,1.3
			c0,0.233-0.017,0.75-0.05,1.55c-0.033,0.967,0.25,1.833,0.85,2.6c0.167-1.833,0.55-3.017,1.15-3.55
			C51.8,2.433,52.316,2.15,52.95,1.95z M50.15,20.85c0.1-0.2,0.267-1,0.5-2.4c0.199-1.067,0.517-1.767,0.949-2.1
			c0.7-0.533,1.217-0.4,1.551,0.4c0.3,0.733,0.283,1.417-0.051,2.05c-0.267,0.5-0.716,1.117-1.35,1.85c-0.7,0.8-1.167,1.4-1.4,1.8
			c-0.619,0.994-0.994,2.127-1.125,3.4l-0.025-0.2c-0.021-0.82-0.021-1.628,0-2.425C49.413,22.571,49.729,21.779,50.15,20.85z"/>
		<path style="fill-rule:evenodd;clip-rule:evenodd;fill:#2E6A53;" d="M55.8,3.2c0.101-0.1,0-0.267-0.3-0.5
			c-0.333-0.267-0.634-0.417-0.9-0.45L54.2,2.2c-0.566,0-0.983,0.033-1.25,0.1c-0.467,0.133-0.884,0.417-1.25,0.85
			c-0.566,0.667-0.917,1.75-1.05,3.25L50.55,7.5L49.9,6.65c-0.633-0.767-0.95-1.667-0.95-2.7L49,2.65c0-0.667-0.15-1.133-0.45-1.4
			c-0.233-0.233-0.5-0.35-0.8-0.35c-0.2,0-0.417,0.083-0.65,0.25c-0.233,0.233-0.35,0.65-0.35,1.25l0.05,0.75
			c0.067,0.667,0.25,1.233,0.55,1.7c0.233,0.4,0.633,0.85,1.2,1.35c0.534,0.4,0.8,0.983,0.8,1.75c0,0.466-0.133,1.1-0.4,1.9
			l-1.1,3.2c-0.367,0.934-0.733,2.133-1.1,3.6c-0.533,2.467-0.8,5.1-0.8,7.9c0,2.467,0.216,5.55,0.65,9.25
			c0.733,5.667,2.133,11.284,4.2,16.851c1.7,4.433,2.55,9.683,2.55,15.75c0,3.699-0.3,7.466-0.899,11.3
			c-0.334,1.934-0.65,3.5-0.95,4.7c-0.167,0.6-0.634,1.716-1.4,3.35c-0.566,1.5-0.733,2.634-0.5,3.4l0.35,0.5
			c0.733,0.8,2.05,1.149,3.95,1.05c1.899-0.134,3.017-0.65,3.35-1.55c0.259-0.672,0.484-1.363,0.675-2.075
			c0.17,0.154,0.278,0.263,0.325,0.325c1.066,1.133,1.783,1.8,2.15,2c1.466,0.933,2.466,1.699,3,2.3
			c-0.4,0.166-1.017,0.217-1.851,0.149c-0.3-0.033-0.95-0.149-1.95-0.35c-0.833-0.2-1.5-0.283-2-0.25
			c-0.633,0.066-0.216,0.434,1.25,1.1c1.334,0.601,1.551,0.884,0.65,0.851c-1.634,0.066-2.967,0.083-4,0.05
			c-0.167,0-1.083-0.15-2.75-0.45c-1.167-0.166-2.1-0.166-2.8,0c-1.5,0.7-2.633,1.084-3.4,1.15c-0.767,0.033-0.983-0.101-0.65-0.4
			c0.6-0.399,0.95-0.7,1.05-0.899l-0.1-0.051c-0.567-0.166-1.333-0.199-2.3-0.1c-1.233,0.134-2,0.2-2.3,0.2
			c-0.467,0-1.25-0.117-2.35-0.351c-1-0.199-1.783-0.283-2.35-0.25H35.4c-0.867-0.133-0.6-0.366,0.8-0.699
			c1.9-0.5,2.95-0.884,3.15-1.15c-0.267-0.267-0.667-0.434-1.2-0.5c-0.433-0.1-0.95-0.083-1.55,0.05l-1.55,0.351
			c-1.867,0.566-3.2,0.783-4,0.649C30.583,90.7,30.8,90.4,31.7,89.9c1.1-0.534,1.8-0.884,2.1-1.051l2.8-1.399
			c0.033,0,0.35-0.217,0.95-0.65c0.367-0.233,0.717-0.399,1.05-0.5c1.6-0.533,2.983-0.75,4.15-0.649c0.6,0.066,1.433,0.183,2.5,0.35
			c0.933,0.066,1.767-0.134,2.5-0.6c2.3-1.467,3.767-4.384,4.4-8.75c0.233-1.733,0.35-5.15,0.35-10.25
			c0-5.934-0.833-11.067-2.5-15.4c-2.1-5.6-3.517-11.3-4.25-17.1c-0.433-3.7-0.65-6.816-0.65-9.35c0-3.1,0.267-5.8,0.8-8.1
			c0.367-1.567,0.75-2.817,1.15-3.75l1.05-3.15c0.267-0.8,0.4-1.333,0.4-1.6c0-0.4-0.167-0.75-0.5-1.05
			c-1.233-1.066-1.917-2.267-2.05-3.6L45.9,2.4c0-0.867,0.2-1.517,0.6-1.95C46.867,0.15,47.283,0,47.75,0
			c0.533,0,0.983,0.183,1.35,0.55c0.533,0.5,0.8,1.2,0.8,2.1l-0.05,1.3C49.85,4.35,49.9,4.7,50,5c0.167-1.133,0.533-1.983,1.1-2.55
			C51.934,1.683,52.967,1.3,54.2,1.3l0.55,0.05c0.533,0.1,0.967,0.316,1.3,0.65c0.4,0.333,0.617,0.733,0.65,1.2
			c0,0.367-0.15,0.633-0.45,0.8c-0.233,0.167-0.583,0.25-1.05,0.25H55c-0.566,0-1.033,0.1-1.4,0.3C53.366,4.683,53.2,4.9,53.1,5.2
			c0.867-0.1,1.601,0,2.2,0.3c0.667,0.3,1.033,0.783,1.101,1.45c0.033,0.733-0.2,1.017-0.7,0.85c0.1,0.133,0.283,0.35,0.55,0.65
			c0.267,0.267,0.45,0.5,0.55,0.7c0.2,0.4,0.3,0.934,0.3,1.6l-0.05,0.85c-0.033,0.733-0.25,1.383-0.649,1.95
			c-0.5,0.633-1.117,0.95-1.851,0.95H54.4c-0.334,0-0.617-0.083-0.851-0.25c-0.267-0.167-0.383-0.4-0.35-0.7
			c0.033-0.333,0.149-0.667,0.35-1c0.101-0.167,0.25-0.383,0.45-0.65c0.066-0.066,0.134-0.25,0.2-0.55
			c-0.066-0.567-0.367-0.85-0.9-0.85h-0.05c-0.467,0-0.85,0.25-1.15,0.75c-0.633,0.8-1.166,2.35-1.6,4.65l-0.7,4.6
			c0.034-0.067,0.184-0.817,0.45-2.25c0.2-1.067,0.55-1.833,1.05-2.3c0.334-0.233,0.667-0.35,1-0.35
			c0.5,0.033,0.884,0.283,1.15,0.75c0.2,0.4,0.3,0.867,0.3,1.4s-0.083,0.967-0.25,1.3c-0.267,0.5-0.733,1.133-1.4,1.9
			c-0.666,0.8-1.116,1.383-1.35,1.75c-1,1.6-1.367,3.733-1.1,6.4c0.1,1.3,0.534,3.483,1.3,6.55c0.434,1.767,0.833,3.15,1.2,4.15
			c0.733,2.133,1.899,5.367,3.5,9.7c1.333,4.233,2.133,8.9,2.399,14l0.101,4.35c0,1.302-0.034,2.576-0.101,3.825
			c-0.479-3.424-0.779-6.133-0.899-8.125C56.884,58.517,56.1,53.934,54.8,49.8c-1.6-4.267-2.767-7.5-3.5-9.7
			c-1.3-4-2.1-7.934-2.4-11.8c-0.167-2.1-0.233-3.433-0.2-4c0.033-1.966,0.216-4.066,0.55-6.3l0.4-2.25c0.466-2.4,1.05-4.1,1.75-5.1
			c0.533-0.633,1.116-1,1.75-1.1H53.3c0.5,0,0.917,0.184,1.25,0.55c0.334,0.333,0.5,0.75,0.5,1.25c0,0.4-0.116,0.767-0.35,1.1
			l-0.65,1.05l0.351,0.1h0.149c0.467,0,0.851-0.217,1.15-0.65c0.267-0.367,0.434-0.85,0.5-1.45l0.05-0.75
			c-0.033-0.5-0.1-0.867-0.2-1.1c-0.133-0.333-0.383-0.633-0.75-0.9c-1-0.467-1.5-0.85-1.5-1.15c0-0.2,0.15-0.267,0.45-0.2
			c0.134,0.033,0.333,0.083,0.6,0.15c0.301,0.034,0.517-0.033,0.65-0.2c0.1-0.2,0.066-0.434-0.1-0.7C55.2,6.25,54.816,6,54.25,5.9
			c-0.7-0.2-1.233-0.183-1.6,0.05c-0.101,0.066-0.267,0.216-0.5,0.45c-0.267,0.267-0.4,0.434-0.4,0.5c0.066-1.6,0.55-2.65,1.45-3.15
			c0.366-0.233,0.967-0.383,1.8-0.45l0.1,0.05L55.2,3.3c0.2,0.034,0.366,0.017,0.5-0.05L55.8,3.2z M50.05,22.1
			c0.267-0.434,0.75-1.05,1.45-1.85c0.6-0.7,1.017-1.267,1.25-1.7c0.1-0.133,0.15-0.4,0.15-0.8c0-0.3-0.067-0.617-0.2-0.95
			c-0.134-0.2-0.267-0.3-0.4-0.3c-0.133,0-0.283,0.067-0.45,0.2c-0.333,0.2-0.583,0.816-0.75,1.85
			c-0.233,1.333-0.416,2.167-0.55,2.5L50.05,22.1z M57.5,77.55c0.268-1.893,0.451-3.852,0.55-5.875
			c0.191,1.335,0.408,2.777,0.65,4.325c0.411,4.09,0.153,7.781-0.775,11.075c-0.18-0.166-0.438-0.392-0.774-0.675
			c-0.5-0.434-0.817-0.801-0.95-1.101c-0.267-0.8-0.167-2.066,0.3-3.8C57.167,78.934,57.5,77.616,57.5,77.55z"/>
	</g>
	<g>
		<g>
			<linearGradient id="SVGID_6_" gradientUnits="userSpaceOnUse" x1="60.8926" y1="63.7217" x2="101.7145" y2="97.3755">
				<stop  offset="0" style="stop-color:#1B302C"/>
				<stop  offset="0.6824" style="stop-color:#2D5852"/>
				<stop  offset="1" style="stop-color:#2A9852"/>
			</linearGradient>
			<path style="fill-rule:evenodd;clip-rule:evenodd;fill:url(#SVGID_6_);" d="M94.2,63.95c4,2.967,6.3,5.95,6.899,8.95
				c0.567,2.666,0.217,4.716-1.05,6.149c-1.267,1.467-2.816,1.367-4.649-0.3c-1.867-1.7-4.551-1.717-8.051-0.05
				c-3.5,1.7-6.916,4.684-10.25,8.95c-2.333,2.966-5.05,4.733-8.149,5.3c-2.834,0.5-5.384-0.05-7.65-1.65
				c-2.566-1.8-3.7-4.033-3.399-6.7c0.233-1.3,0.399-2.216,0.5-2.75c0.133-0.933,0.017-1.6-0.351-2
				c-1.533-0.966-2.7-1.767-3.5-2.399c-1.5-1.134-2.316-2.816-2.45-5.05c-0.166-3.767,2.483-7.184,7.95-10.25
				c5.601-3.134,11.65-4.467,18.15-4C84.233,58.616,89.566,60.55,94.2,63.95z"/>
			<path style="fill-rule:evenodd;clip-rule:evenodd;fill:#2E6A53;" d="M101.5,73.05c0.333,1.8,0.233,3.4-0.3,4.8
				c-0.566,1.4-1.434,2.233-2.601,2.5c-1.133,0.2-2.283-0.233-3.449-1.3C94.05,77.983,92.5,77.634,90.5,78
				c-1.934,0.4-4.05,1.434-6.35,3.1c-2.367,1.767-4.634,4.034-6.801,6.801c-2.3,2.966-5.017,4.75-8.149,5.35
				c-3,0.566-5.7,0.017-8.101-1.65c-2-1.399-3.166-3.017-3.5-4.85c-0.166-0.967-0.116-2.15,0.15-3.55c0.267-1.367,0.366-2.2,0.3-2.5
				c-0.033-0.167-0.133-0.367-0.3-0.601c-1.3-0.866-2.35-1.566-3.15-2.1c-1.466-1.033-2.366-2.45-2.699-4.25l-0.15-1.3
				c-0.134-3.033,1.566-5.9,5.1-8.601c3.4-2.666,7.601-4.5,12.601-5.5c2.934-0.566,5.85-0.75,8.75-0.55
				c6.133,0.5,11.533,2.467,16.2,5.9c4.033,2.967,6.383,6.017,7.05,9.149L101.5,73.05z M100.75,73c-0.566-2.9-2.816-5.816-6.75-8.75
				c-4.6-3.4-9.884-5.3-15.85-5.7c-2.834-0.233-5.684-0.066-8.551,0.5c-4.866,0.967-8.966,2.75-12.3,5.351
				c-3.366,2.6-4.983,5.267-4.85,8L52.6,73.6c0.301,1.601,1.117,2.867,2.45,3.801c2.101,1.433,3.184,2.183,3.25,2.25
				c0.233,0.233,0.384,0.533,0.45,0.899c0.066,0.467-0.033,1.4-0.3,2.8c-0.267,1.334-0.316,2.417-0.15,3.25
				c0.3,1.667,1.367,3.134,3.2,4.4c2.3,1.566,4.816,2.083,7.55,1.55c2.967-0.6,5.55-2.3,7.75-5.1c2.233-2.8,4.55-5.101,6.95-6.9
				c2.333-1.733,4.533-2.816,6.6-3.25c2.2-0.434,3.967-0.033,5.301,1.2c1.033,0.934,1.983,1.316,2.85,1.15
				c0.866-0.2,1.533-0.884,2-2.051c0.5-1.267,0.6-2.733,0.3-4.399L100.75,73z"/>
		</g>
		
			<use xlink:href="#flash0.ai_x2F_Layer_3_x2F__x3C_Path_x3E__x5F_2"  width="39.734" height="26.926" x="-0.006" y="-26.922" transform="matrix(1 0 0 -1 57.7002 61.4502)" style="overflow:visible;opacity:0.3086;enable-background:new    ;"/>
	</g>
	<g>
		<g>
			
				<linearGradient id="SVGID_7_" gradientUnits="userSpaceOnUse" x1="-47.5132" y1="-70.0527" x2="6.4507" y2="-70.0527" gradientTransform="matrix(-0.9988 -0.0486 0.0486 -0.9988 -2.906993e-004 1.364797e-004)">
				<stop  offset="0" style="stop-color:#1C3030"/>
				<stop  offset="1" style="stop-color:#2D5852"/>
			</linearGradient>
			<path style="fill-rule:evenodd;clip-rule:evenodd;fill:url(#SVGID_7_);" d="M26.85,55.3c6.6,0.2,12.4,1.967,17.4,5.3
				c4.933,3.301,6.95,6.65,6.05,10.051c-0.533,2-1.65,3.433-3.35,4.3c-0.9,0.467-2.217,1.083-3.95,1.85
				c-0.433,0.334-0.667,0.917-0.7,1.75c-0.033,0.5-0.05,1.351-0.05,2.55c-0.2,2.4-1.75,4.284-4.65,5.65
				c-2.567,1.2-5.217,1.434-7.95,0.7c-3-0.8-5.383-2.634-7.15-5.5c-2.567-4.167-5.45-7.184-8.65-9.05
				c-3.2-1.867-5.883-2.117-8.05-0.75C3.667,73.483,2.1,73.434,1.1,72c-1-1.4-0.983-3.283,0.05-5.65
				c1.167-2.666,4.033-5.133,8.6-7.399C15.017,56.35,20.717,55.134,26.85,55.3z"/>
			<path style="fill-rule:evenodd;clip-rule:evenodd;fill:#2E6A53;" d="M5.55,71.9c0.467-0.301,1.034-0.534,1.7-0.7
				c2.367-0.566,4.983,0.116,7.85,2.05c2.833,1.934,5.417,4.767,7.75,8.5c1.5,2.434,3.45,4.116,5.85,5.05
				c2.167,0.834,4.4,0.95,6.7,0.351c0.667-0.134,1.35-0.367,2.05-0.7c1.633-0.767,2.8-1.65,3.5-2.65c0.5-0.767,0.8-1.684,0.9-2.75
				c0-1.166,0.017-2,0.05-2.5c0.033-0.899,0.317-1.566,0.85-2c1.8-0.8,3.15-1.434,4.05-1.899c1.567-0.801,2.617-2.15,3.15-4.051
				c0.2-0.899,0.184-1.8-0.05-2.699c-0.733-2.967-3.333-5.684-7.8-8.15c-4.667-2.6-9.767-3.967-15.3-4.1
				c-3.267-0.134-6.6,0.216-10,1.05c-3.833,0.967-7.233,2.45-10.2,4.45c-2.633,1.8-4.333,3.566-5.1,5.3
				c-0.7,1.6-0.883,3.017-0.55,4.25c0.433,1.666,1.433,2.3,3,1.899C4.45,72.5,4.983,72.267,5.55,71.9z M6,72.45
				c-0.567,0.366-1.183,0.633-1.85,0.8c-1.066,0.267-1.95,0.167-2.65-0.3c-0.633-0.434-1.083-1.117-1.35-2.05
				c-0.333-1.467-0.117-3.017,0.65-4.65c0.833-1.866,2.633-3.733,5.4-5.6c3-2.067,6.483-3.601,10.45-4.601
				c3.233-0.833,6.65-1.2,10.25-1.1c5.7,0.166,10.917,1.566,15.65,4.2c4.6,2.533,7.317,5.383,8.15,8.55c0.267,1,0.267,2,0,3
				c-0.533,2.066-1.717,3.583-3.55,4.55c-0.967,0.5-2.267,1.1-3.9,1.8c-0.333,0.2-0.517,0.7-0.55,1.5c0,0.467-0.017,1.3-0.05,2.5
				c-0.2,2.601-1.816,4.601-4.85,6c-0.7,0.334-1.433,0.601-2.2,0.8h-0.05c-2.466,0.601-4.867,0.45-7.2-0.449
				c-2.567-0.967-4.633-2.717-6.2-5.25c-2.233-3.634-4.767-6.417-7.6-8.351c-2.733-1.866-5.117-2.517-7.15-1.95
				C6.933,71.95,6.467,72.15,6,72.45z"/>
		</g>
		<path style="fill-rule:evenodd;clip-rule:evenodd;fill:#2E6A53;" d="M24.2,58.05c3.566,0.101,6.667,0.517,9.3,1.25
			c3.133,0.867,4.267,1.95,3.4,3.25c-0.233,0.334-1.517,0.167-3.85-0.5c-2.433-0.767-3.816-1.184-4.15-1.25
			c-1.767-0.267-2.467,0.066-2.1,1c0.4,1.066,0.05,1.617-1.05,1.65c-3.6,0.1-5.767,0.184-6.5,0.25c2.067,0.866,4.467,2.366,7.2,4.5
			c1,0.833,2.216,1.85,3.65,3.05c1.1,0.934,1.983,1.75,2.65,2.45c0.867,0.899,1.467,1.916,1.8,3.05c0.333,1.2,0.333,2.384,0,3.55
			c-0.433,1.467-1.283,2.384-2.55,2.75c-1.233,0.367-2.717,0.15-4.45-0.649c-1.5-0.7-3.167-2.301-5-4.801
			c-2.033-3.033-3.65-5.3-4.85-6.8c-1.5-1.833-2.983-3.149-4.45-3.95l-1.8-0.699c-1.934-0.733-3.717-0.717-5.35,0.05
			c-0.467,0.2-1.133,0.833-2,1.899c-0.667,0.801-1,1.067-1,0.801c0.033-0.534,0.383-1.384,1.05-2.551
			c0.767-1.3,1.583-2.283,2.45-2.949c1.333-0.967,2.45-1.684,3.35-2.15c1.267-0.7,2.816-1.316,4.65-1.85
			C17.8,58.4,21,57.95,24.2,58.05z"/>
	</g>
	<g>
		<g>
			
				<linearGradient id="SVGID_8_" gradientUnits="userSpaceOnUse" x1="-92.0088" y1="-44.561" x2="-46.2238" y2="-44.561" gradientTransform="matrix(-0.8709 -0.4914 0.5196 -0.855 -7.742643e-005 3.039241e-004)">
				<stop  offset="0" style="stop-color:#1B302C"/>
				<stop  offset="0.6824" style="stop-color:#2D5852"/>
				<stop  offset="1" style="stop-color:#2A9852"/>
			</linearGradient>
			<path style="fill-rule:evenodd;clip-rule:evenodd;fill:url(#SVGID_8_);" d="M39,61.1c4.6-0.066,8.95,1.101,13.05,3.5
				c4.4,2.534,7.65,5.983,9.75,10.351c2.033,4.3,2.066,7.566,0.101,9.8c-1.167,1.333-2.5,2.017-4,2.05
				c-1.567-0.166-2.7-0.184-3.4-0.05c-0.267,0.066-1,1.066-2.2,3c-1.1,1.767-2.917,2.634-5.45,2.6
				c-2.233-0.033-4.117-0.816-5.65-2.35c-1.733-1.7-2.633-3.967-2.7-6.8c-0.067-4.101-0.817-7.434-2.25-10s-3.167-3.733-5.2-3.5
				c-1.966,0.233-3-0.384-3.1-1.851c-0.133-1.433,0.633-2.85,2.3-4.25C32.083,62,35,61.167,39,61.1z"/>
			<path style="fill-rule:evenodd;clip-rule:evenodd;fill:#2E6A53;" d="M28.25,69.25c-0.633-0.667-0.783-1.55-0.45-2.65
				c0.333-1.1,1.034-2.133,2.1-3.1l0.15-0.1c1.934-1.634,4.917-2.483,8.95-2.551c4.633-0.066,9.033,1.101,13.2,3.5
				c1.934,1.101,3.717,2.5,5.35,4.2c2.733,2.8,4.55,5.767,5.45,8.9c0.934,3.2,0.634,5.7-0.9,7.5L61.4,85.7
				C60.3,86.634,59.033,87.1,57.6,87.1c-1.466-0.199-2.483-0.233-3.05-0.1c-0.166,0.033-0.316,0.116-0.45,0.25
				c-0.166,0.167-0.5,0.733-1,1.7s-1.05,1.7-1.649,2.2c-1.134,1-2.667,1.483-4.6,1.449c-2.3,0-4.3-0.85-6-2.55
				c-1.667-1.666-2.55-3.95-2.65-6.85c-0.034-2.634-0.383-5.017-1.05-7.15c-0.633-2.033-1.483-3.583-2.55-4.649
				c-1.067-1.134-2.233-1.617-3.5-1.45C29.8,70.083,28.85,69.85,28.25,69.25z M30.3,63.9c-1.033,0.933-1.683,1.866-1.95,2.8
				c-0.267,0.967-0.15,1.684,0.35,2.149c0.466,0.5,1.25,0.684,2.35,0.551c1.467-0.167,2.784,0.366,3.95,1.6
				c1.133,1.167,2.033,2.8,2.7,4.9c0.667,2.133,1.033,4.55,1.1,7.25c0.034,2.699,0.867,4.883,2.5,6.55
				c1.534,1.566,3.4,2.35,5.6,2.35c1.7,0.033,3.083-0.383,4.15-1.25c0.5-0.467,1-1.166,1.5-2.1c0.5-0.967,0.884-1.584,1.15-1.851
				c0.267-0.199,0.517-0.316,0.75-0.35c0.7-0.134,1.75-0.116,3.149,0.05c1.301,0,2.434-0.416,3.4-1.25l0.7-0.7
				c1.399-1.6,1.649-3.933,0.75-7c-0.9-3.1-2.667-6-5.3-8.699c-1.5-1.567-3.25-2.934-5.25-4.101c-4.034-2.366-8.333-3.5-12.9-3.399
				c-3.933,0.066-6.8,0.866-8.6,2.399L30.3,63.9z"/>
		</g>
		
			<use xlink:href="#flash0.ai_x2F_Layer_3_x2F__x3C_Path_x3E__x5F_3"  width="28.115" height="24.726" x="0.02" y="-24.706" transform="matrix(1 0 0 -1 31.1499 63.5996)" style="overflow:visible;opacity:0.3086;enable-background:new    ;"/>
	</g>
</g>
</svg>
