<?xml version="1.0" encoding="iso-8859-1"?>
<!-- Generator: Adobe Illustrator 15.1.0, SVG Export Plug-In . SVG Version: 6.00 Build 0)  -->
<!DOCTYPE svg PUBLIC "-//W3C//DTD SVG 1.1//EN" "http://www.w3.org/Graphics/SVG/1.1/DTD/svg11.dtd">
<svg version="1.1" id="Layer_3" xmlns="http://www.w3.org/2000/svg" xmlns:xlink="http://www.w3.org/1999/xlink" x="0px" y="0px"
	 width="700.1px" height="101.75px" viewBox="0 0 700.1 101.75" style="enable-background:new 0 0 700.1 101.75;"
	 xml:space="preserve">
<linearGradient id="SVGID_1_" gradientUnits="userSpaceOnUse" x1="14.4795" y1="-174.6265" x2="124.035" y2="-174.6265" gradientTransform="matrix(0.0201 1.9999 -1.9999 0.0201 0.0517 -0.0492)">
	<stop  offset="0" style="stop-color:#81C48F"/>
	<stop  offset="0.2078" style="stop-color:#4BABA7"/>
	<stop  offset="0.5922" style="stop-color:#217387"/>
	<stop  offset="1" style="stop-color:#00140C"/>
</linearGradient>
<path style="fill-rule:evenodd;clip-rule:evenodd;fill:url(#SVGID_1_);" d="M670.25,92.05c-29.2,5.867-71.101,9.101-125.7,9.7
	c-73.8-0.333-135.2-0.434-184.2-0.3c-21.8,0.066-58.267-1.3-109.399-4.1c-51.467-2.801-87.934-4.2-109.4-4.2
	c-20.2,0-47.1-2.667-80.7-8c-38.267-6.134-58.434-12.367-60.5-18.7c-2.467-7.667,7.667-14.9,30.4-21.7
	c4.333-1.333,21.666-5.333,52-12c20.066-4.399,40.3-9.866,60.7-16.399c19.8-6.4,34.833-10.667,45.1-12.801
	c15.267-3.267,30.5-4.267,45.7-3c16.733,1.267,36.467,5.434,59.2,12.5c12.6,3.867,31.233,9.7,55.899,17.5
	c21.134,6,39.533,9.367,55.2,10.101c14.866,0.666,35.1-1.967,60.7-7.9c13.8-3.267,32.434-7.733,55.899-13.399
	c19.134-3.4,38.267-1.5,57.4,5.699c4.733,1.801,13.167,5.5,25.3,11.101c11.2,5.133,20.533,9,28,11.6
	c6.2,2.134,19.101,6.167,38.7,12.101c17,5.6,26.4,10.333,28.2,14.199c2.134,4.601,1.733,7.9-1.2,9.9
	C694.083,86.417,684.983,89.117,670.25,92.05z"/>
</svg>
