<?xml version="1.0" encoding="iso-8859-1"?>
<!-- Generator: Adobe Illustrator 15.1.0, SVG Export Plug-In . SVG Version: 6.00 Build 0)  -->
<!DOCTYPE svg PUBLIC "-//W3C//DTD SVG 1.1//EN" "http://www.w3.org/Graphics/SVG/1.1/DTD/svg11.dtd">
<svg version="1.1" id="Layer_1" xmlns="http://www.w3.org/2000/svg" xmlns:xlink="http://www.w3.org/1999/xlink" x="0px" y="0px"
	 width="70.75px" height="50px" viewBox="0 0 70.75 50" style="enable-background:new 0 0 70.75 50;" xml:space="preserve">
<symbol  id="flash0.ai_x5F_1_x2F_Layer_1_x2F__x3C_Clip_Group_0_x3E_" viewBox="-0.022 -50 14.167 50">
	<g id="Layer_1_23_">
	</g>
	<g>
		<defs>
			<path id="SVGID_1_" d="M14.1-22.75c-0.2,4.8-0.3,7.233-0.3,7.3c0,6.3-0.066,11.417-0.2,15.35c-4.9,0.133-9.35,0.133-13.35,0
				C0.017-1.133-0.067-2.05,0-2.85c0.1-1,0.25-2.483,0.45-4.45L1-17.5c0.067-1.633,0.017-3.733-0.15-6.3
				c-0.2-3.133-0.3-5.117-0.3-5.95C0.383-38.483,0.283-45.2,0.25-49.9h5.1c1.133,0,2.867-0.033,5.2-0.1c1.2,0,2.2,0.033,3,0.1
				c-0.233,10.167-0.117,16.767,0.35,19.8C14.133-28.4,14.2-25.95,14.1-22.75z"/>
		</defs>
		<clipPath id="SVGID_2_">
			<use xlink:href="#SVGID_1_"  style="overflow:visible;"/>
		</clipPath>
		<g id="Layer_3_2_" style="clip-path:url(#SVGID_2_);">
			<g>
				<g>
					
						<use xlink:href="#flash0.ai_x5F_1_x2F_Layer_1_x2F__x3C_Path_x3E__x5F_4_x5F_1"  width="6.361" height="49.867" x="-0.056" y="-49.867" transform="matrix(1 0 0 1 0.2002 -0.1001)" style="overflow:visible;opacity:0.4688;enable-background:new    ;"/>
					
						<use xlink:href="#flash0.ai_x5F_1_x2F_Layer_1_x2F__x3C_Path_x3E__x5F_3_x5F_1"  width="0.93" height="12.25" y="-12.25" transform="matrix(1 0 0 1 12.3999 -32.75)" style="overflow:visible;opacity:0.3984;enable-background:new    ;"/>
					
						<use xlink:href="#flash0.ai_x5F_1_x2F_Layer_1_x2F__x3C_Path_x3E__x5F_2_x5F_1"  width="2.303" height="22" x="-0.004" y="-22" transform="matrix(1 0 0 1 10.8501 -11.8999)" style="overflow:visible;opacity:0.3984;enable-background:new    ;"/>
					
						<use xlink:href="#flash0.ai_x5F_1_x2F_Layer_1_x2F__x3C_Path_x3E__x5F_1_x5F_0"  width="0.567" height="10.7" x="-0.017" y="-10.7" transform="matrix(1 0 0 1 7.6001 -14.6499)" style="overflow:visible;opacity:0.3984;enable-background:new    ;"/>
					
						<use xlink:href="#flash0.ai_x5F_1_x2F_Layer_1_x2F__x3C_Path_x3E__x5F_0"  width="3.556" height="49.8" x="0.044" y="-49.8" transform="matrix(1 0 0 1 10.3501 -0.1001)" style="overflow:visible;opacity:0.25;enable-background:new    ;"/>
				</g>
			</g>
		</g>
	</g>
	<g id="Layer_4_2_">
	</g>
</symbol>
<symbol  id="flash0.ai_x5F_1_x2F_Layer_1_x2F__x3C_Clip_Group_0_x3E__x5F_1" viewBox="0.05 -50.025 14.135 50.025">
	<g id="Layer_1_22_">
	</g>
	<g>
		<defs>
			<path id="SVGID_3_" d="M12.8-31.65c-0.2,1.867-0.267,3.633-0.2,5.3c0.066,1.767,0.033,3.667-0.1,5.7
				c-0.167,2.4-0.25,4.1-0.25,5.1c0.033,2.633,0.433,7.816,1.2,15.55H0.3v-12.4c0-1.4-0.017-3.4-0.05-6
				c0.033-2.333,0.183-4.533,0.45-6.6c0.267-1.9,0.3-4.167,0.1-6.8c-0.367-4.767-0.566-7.583-0.6-8.45
				c-0.1-2.833-0.15-6.017-0.15-9.55h13.4c-0.1,4.233-0.184,8.316-0.25,12.25C13.167-35.883,13.033-33.917,12.8-31.65z"/>
		</defs>
		<clipPath id="SVGID_4_">
			<use xlink:href="#SVGID_3_"  style="overflow:visible;"/>
		</clipPath>
		<g id="Layer_3_1_" style="clip-path:url(#SVGID_4_);">
			<g>
				<g>
					<g>
						
							<use xlink:href="#flash0.ai_x5F_1_x2F_Layer_1_x2F__x3C_Path_x3E__x5F_4_x5F_0"  width="6.802" height="50.025" y="-50.025" transform="matrix(1 0 0 1 0.2998 0)" style="overflow:visible;opacity:0.4414;enable-background:new    ;"/>
						
							<use xlink:href="#flash0.ai_x5F_1_x2F_Layer_1_x2F__x3C_Path_x3E__x5F_3_x5F_0"  width="2.1" height="14.35" y="-14.35" transform="matrix(1 0 0 1 7.75 -24.3999)" style="overflow:visible;opacity:0.3008;enable-background:new    ;"/>
						
							<use xlink:href="#flash0.ai_x5F_1_x2F_Layer_1_x2F__x3C_Path_x3E__x5F_2_x5F_0"  width="1.726" height="14.311" x="-0.017" y="-14.35" transform="matrix(1 0 0 1 4.5498 -15.2998)" style="overflow:visible;opacity:0.3008;enable-background:new    ;"/>
						<path style="fill-rule:evenodd;clip-rule:evenodd;fill:#4EAA95;" d="M0.75-21.85c-0.033,5.2-0.1,8.55-0.2,10.05
							C0.517-10.967,0.533-9.2,0.6-6.5c0.066,2.7,0.1,4.217,0.1,4.55C0.9-7.083,1-10.583,1-12.45
							C1.033-14.35,0.95-17.483,0.75-21.85z"/>
						
							<use xlink:href="#flash0.ai_x5F_1_x2F_Layer_1_x2F__x3C_Path_x3E_"  width="4.37" height="49.8" x="0.015" y="-49.8" transform="matrix(1 0 0 1 9.7998 0)" style="overflow:visible;opacity:0.25;enable-background:new    ;"/>
					</g>
				</g>
			</g>
		</g>
	</g>
	<g id="Layer_4_1_">
	</g>
</symbol>
<symbol  id="flash0.ai_x5F_1_x2F_Layer_1_x2F__x3C_Path_x3E_" viewBox="0.015 -49.8 4.37 49.8">
	<g id="Layer_1_11_">
		<path style="fill-rule:evenodd;clip-rule:evenodd;fill:#D4DDB4;" d="M4.25-36.95c0.3-2.566,0.1-6.85-0.6-12.85h-3.2
			c-0.067,0.933,0.017,2.816,0.25,5.65c0.233,2.9,0.316,5,0.25,6.3C0.883-31.317,0.7-26.533,0.4-23.5
			C0.067-20.1-0.05-16.267,0.05-12l0.5,12h3.1c0-0.067-0.233-3.167-0.7-9.3c-0.467-5.967-0.633-9.8-0.5-11.5
			C2.65-23.633,3.25-29.017,4.25-36.95z"/>
	</g>
</symbol>
<symbol  id="flash0.ai_x5F_1_x2F_Layer_1_x2F__x3C_Path_x3E__x5F_0" viewBox="0.044 -49.8 3.556 49.8">
	<g id="Layer_1_16_">
		<path style="fill-rule:evenodd;clip-rule:evenodd;fill:#D4DDB4;" d="M0.35-19.25c-0.233,1.933-0.333,3.65-0.3,5.15
			c0.233,3.133,0.267,5.617,0.1,7.45C0.083-5.55,0.133-4.233,0.3-2.7C0.467-0.967,0.55-0.067,0.55,0h2.7
			C3.483-1.233,3.6-8.367,3.6-21.4c0-3.033-0.184-6.283-0.55-9.75c-0.2-1.667-0.183-4.8,0.05-9.4c0.033-0.633,0.017-1.583-0.05-2.85
			c-0.1-1.367-0.117-2.8-0.05-4.3l0.2-2.1H0.5c-0.333,8.133-0.4,13.233-0.2,15.3c0.3,2.333,0.5,4.017,0.6,5.05
			c0.133,1.7,0.133,3.383,0,5.05C0.9-24.2,0.717-22.483,0.35-19.25z"/>
	</g>
</symbol>
<symbol  id="flash0.ai_x5F_1_x2F_Layer_1_x2F__x3C_Path_x3E__x5F_1" viewBox="0.027 -13.65 16.272 13.672">
	<g id="Layer_1_7_">
		<g>
			
				<linearGradient id="SVGID_5_" gradientUnits="userSpaceOnUse" x1="218.1289" y1="205.2314" x2="233.5841" y2="205.2314" gradientTransform="matrix(0.9997 0.0264 -0.0264 0.9997 -212.5166 -217.9302)">
				<stop  offset="0" style="stop-color:#E2EBE9"/>
				<stop  offset="0.0039" style="stop-color:#DDE5E3"/>
				<stop  offset="0.0353" style="stop-color:#B7B8B6"/>
				<stop  offset="0.0706" style="stop-color:#958F8D"/>
				<stop  offset="0.1059" style="stop-color:#776C69"/>
				<stop  offset="0.149" style="stop-color:#5E4E4B"/>
				<stop  offset="0.1922" style="stop-color:#493633"/>
				<stop  offset="0.2431" style="stop-color:#3A2320"/>
				<stop  offset="0.302" style="stop-color:#2E1613"/>
				<stop  offset="0.3765" style="stop-color:#280E0C"/>
				<stop  offset="0.5255" style="stop-color:#260C0A"/>
				<stop  offset="0.6118" style="stop-color:#290F0C"/>
				<stop  offset="0.6784" style="stop-color:#321916"/>
				<stop  offset="0.6784" style="stop-color:#321916;stop-opacity:0"/>
				<stop  offset="1" style="stop-color:#000000;stop-opacity:0"/>
			</linearGradient>
			<path style="fill-rule:evenodd;clip-rule:evenodd;fill:url(#SVGID_5_);" d="M15.3,0c0.2-1.033,0.3-1.6,0.3-1.7
				c0.066-0.566,0.017-1.15-0.15-1.75c-0.467-1.8-0.333-3.95,0.4-6.45c0.3-1.133,0.45-1.8,0.45-2c0-0.5-0.3-0.767-0.9-0.8
				c-2.033,0.1-3.533,0.117-4.5,0.05c-0.733-0.033-1.733-0.184-3-0.45c-1.2-0.267-2.217-0.4-3.05-0.4
				c-2.067-0.067-3.267-0.117-3.6-0.15c-0.433,1.167-0.767,2.517-1,4.05C0.017-7.933-0.033-6.5,0.1-5.3
				c0.1,1.066,0.183,1.816,0.25,2.25C0.517-2.25,0.767-1.667,1.1-1.3c0.8,0.267,1.85,0.433,3.15,0.5c1.8,0.1,3.633,0.15,5.5,0.15
				c0.367,0,1.2,0.133,2.5,0.4C13.35-0.017,14.367,0.067,15.3,0z"/>
			
				<linearGradient id="SVGID_6_" gradientUnits="userSpaceOnUse" x1="218.1289" y1="205.2314" x2="233.5841" y2="205.2314" gradientTransform="matrix(0.9997 0.0264 -0.0264 0.9997 -212.5166 -217.9302)">
				<stop  offset="0" style="stop-color:#000000;stop-opacity:0"/>
				<stop  offset="0.6784" style="stop-color:#321916;stop-opacity:0"/>
				<stop  offset="0.6784" style="stop-color:#321916"/>
				<stop  offset="0.7373" style="stop-color:#412A27"/>
				<stop  offset="0.7922" style="stop-color:#56413E"/>
				<stop  offset="0.8431" style="stop-color:#725F5C"/>
				<stop  offset="0.8941" style="stop-color:#938481"/>
				<stop  offset="0.9451" style="stop-color:#BBB0AD"/>
				<stop  offset="0.9922" style="stop-color:#E8E2DE"/>
				<stop  offset="1" style="stop-color:#F0EBE7"/>
			</linearGradient>
			<path style="fill-rule:evenodd;clip-rule:evenodd;fill:url(#SVGID_6_);" d="M15.3,0c0.2-1.033,0.3-1.6,0.3-1.7
				c0.066-0.566,0.017-1.15-0.15-1.75c-0.467-1.8-0.333-3.95,0.4-6.45c0.3-1.133,0.45-1.8,0.45-2c0-0.5-0.3-0.767-0.9-0.8
				c-2.033,0.1-3.533,0.117-4.5,0.05c-0.733-0.033-1.733-0.184-3-0.45c-1.2-0.267-2.217-0.4-3.05-0.4
				c-2.067-0.067-3.267-0.117-3.6-0.15c-0.433,1.167-0.767,2.517-1,4.05C0.017-7.933-0.033-6.5,0.1-5.3
				c0.1,1.066,0.183,1.816,0.25,2.25C0.517-2.25,0.767-1.667,1.1-1.3c0.8,0.267,1.85,0.433,3.15,0.5c1.8,0.1,3.633,0.15,5.5,0.15
				c0.367,0,1.2,0.133,2.5,0.4C13.35-0.017,14.367,0.067,15.3,0z"/>
		</g>
	</g>
</symbol>
<symbol  id="flash0.ai_x5F_1_x2F_Layer_1_x2F__x3C_Path_x3E__x5F_17" viewBox="-0.03 -3.851 1.037 3.919">
	<g id="Layer_1_17_">
		<path style="fill-rule:evenodd;clip-rule:evenodd;fill:#4EAA95;" d="M0.95-0.3c0.133-0.667,0.033-1.583-0.3-2.75
			c-0.3-1.034-0.5-1.067-0.6-0.1c-0.133,0.967-0.1,1.733,0.1,2.3C0.55,0.15,0.817,0.333,0.95-0.3z"/>
	</g>
</symbol>
<symbol  id="flash0.ai_x5F_1_x2F_Layer_1_x2F__x3C_Path_x3E__x5F_1_x5F_0" viewBox="-0.017 -10.7 0.567 10.7">
	<g id="Layer_1_15_">
		<path style="fill-rule:evenodd;clip-rule:evenodd;fill:#68CFC7;" d="M0.05-10.7c-0.133,4.434-0.066,8,0.2,10.7
			c0.2-2.667,0.3-4.417,0.3-5.25C0.517-6.25,0.35-8.067,0.05-10.7z"/>
	</g>
</symbol>
<symbol  id="flash0.ai_x5F_1_x2F_Layer_1_x2F__x3C_Path_x3E__x5F_1_x5F_1" viewBox="-0.025 -5.935 1.308 6.148">
	<g id="Layer_1_21_">
		<path style="fill-rule:evenodd;clip-rule:evenodd;fill:#4EAA95;" d="M1.05-0.95c0.367-1.466,0.3-2.85-0.2-4.15
			C0.35-6.333,0.067-6.2,0-4.7c-0.067,1.3,0,2.567,0.2,3.8C0.433,0.6,0.717,0.583,1.05-0.95z"/>
	</g>
</symbol>
<symbol  id="flash0.ai_x5F_1_x2F_Layer_1_x2F__x3C_Path_x3E__x5F_2" viewBox="-0.004 -13.85 19.736 13.84">
	<g id="Layer_1_6_">
		<g>
			
				<linearGradient id="SVGID_7_" gradientUnits="userSpaceOnUse" x1="222.189" y1="208.9346" x2="240.9456" y2="208.9346" gradientTransform="matrix(0.9996 0.0269 -0.0269 0.9996 -216.373 -221.9907)">
				<stop  offset="0" style="stop-color:#E2EBE9"/>
				<stop  offset="0.0039" style="stop-color:#DDE5E3"/>
				<stop  offset="0.0353" style="stop-color:#B7B8B6"/>
				<stop  offset="0.0706" style="stop-color:#958F8D"/>
				<stop  offset="0.1059" style="stop-color:#776C69"/>
				<stop  offset="0.149" style="stop-color:#5E4E4B"/>
				<stop  offset="0.1922" style="stop-color:#493633"/>
				<stop  offset="0.2431" style="stop-color:#3A2320"/>
				<stop  offset="0.302" style="stop-color:#2E1613"/>
				<stop  offset="0.3765" style="stop-color:#280E0C"/>
				<stop  offset="0.5255" style="stop-color:#260C0A"/>
				<stop  offset="0.6118" style="stop-color:#290F0C"/>
				<stop  offset="0.6784" style="stop-color:#321916"/>
				<stop  offset="0.6784" style="stop-color:#321916;stop-opacity:0"/>
				<stop  offset="1" style="stop-color:#000000;stop-opacity:0"/>
			</linearGradient>
			<path style="fill-rule:evenodd;clip-rule:evenodd;fill:url(#SVGID_7_);" d="M11.95-0.3c0.233,0,1.133,0.066,2.7,0.2
				c1.133,0.1,2.3,0.117,3.5,0.05c0.233-1,0.117-2.284-0.35-3.85c-0.333-1-0.383-1.917-0.15-2.75c0.167-0.533,0.5-1.417,1-2.65
				c0.2-0.567,0.533-1.3,1-2.2c0.233-0.633-0.033-1-0.8-1.1c-0.667-0.1-1.567-0.15-2.7-0.15c-1.4,0.033-2.3,0.033-2.7,0
				c-0.867-0.033-2.017-0.15-3.45-0.35c-1.3-0.167-2.45-0.267-3.45-0.3c-1.867-0.167-3.6-0.317-5.2-0.45
				c-0.5,1.1-0.883,2.55-1.15,4.35C-0.033-7.733-0.067-6.233,0.1-5c0.233,1.467,0.35,2.217,0.35,2.25
				c0.2,0.733,0.433,1.217,0.7,1.45c1.167,0.233,2.6,0.383,4.3,0.45C5.917-0.817,7-0.7,8.7-0.5C10-0.367,11.083-0.3,11.95-0.3z"/>
			
				<linearGradient id="SVGID_8_" gradientUnits="userSpaceOnUse" x1="222.189" y1="208.9346" x2="240.9456" y2="208.9346" gradientTransform="matrix(0.9996 0.0269 -0.0269 0.9996 -216.373 -221.9907)">
				<stop  offset="0" style="stop-color:#000000;stop-opacity:0"/>
				<stop  offset="0.6784" style="stop-color:#321916;stop-opacity:0"/>
				<stop  offset="0.6784" style="stop-color:#321916"/>
				<stop  offset="0.7373" style="stop-color:#412A27"/>
				<stop  offset="0.7922" style="stop-color:#56413E"/>
				<stop  offset="0.8431" style="stop-color:#725F5C"/>
				<stop  offset="0.8941" style="stop-color:#938481"/>
				<stop  offset="0.9451" style="stop-color:#BBB0AD"/>
				<stop  offset="0.9922" style="stop-color:#E8E2DE"/>
				<stop  offset="1" style="stop-color:#F0EBE7"/>
			</linearGradient>
			<path style="fill-rule:evenodd;clip-rule:evenodd;fill:url(#SVGID_8_);" d="M11.95-0.3c0.233,0,1.133,0.066,2.7,0.2
				c1.133,0.1,2.3,0.117,3.5,0.05c0.233-1,0.117-2.284-0.35-3.85c-0.333-1-0.383-1.917-0.15-2.75c0.167-0.533,0.5-1.417,1-2.65
				c0.2-0.567,0.533-1.3,1-2.2c0.233-0.633-0.033-1-0.8-1.1c-0.667-0.1-1.567-0.15-2.7-0.15c-1.4,0.033-2.3,0.033-2.7,0
				c-0.867-0.033-2.017-0.15-3.45-0.35c-1.3-0.167-2.45-0.267-3.45-0.3c-1.867-0.167-3.6-0.317-5.2-0.45
				c-0.5,1.1-0.883,2.55-1.15,4.35C-0.033-7.733-0.067-6.233,0.1-5c0.233,1.467,0.35,2.217,0.35,2.25
				c0.2,0.733,0.433,1.217,0.7,1.45c1.167,0.233,2.6,0.383,4.3,0.45C5.917-0.817,7-0.7,8.7-0.5C10-0.367,11.083-0.3,11.95-0.3z"/>
		</g>
	</g>
</symbol>
<symbol  id="flash0.ai_x5F_1_x2F_Layer_1_x2F__x3C_Path_x3E__x5F_2_x5F_0" viewBox="-0.017 -14.35 1.726 14.311">
	<g id="Layer_1_10_">
		<path style="fill-rule:evenodd;clip-rule:evenodd;fill:#68CFC7;" d="M1.25-14.35c0.3,1.467,0.233,3.467-0.2,6
			C0.25-3.25-0.1-0.483,0-0.05C0.033,0.117,0.4-1.667,1.1-5.4c0.533-2.667,0.717-4.967,0.55-6.9
			C1.583-13.233,1.45-13.917,1.25-14.35z"/>
	</g>
</symbol>
<symbol  id="flash0.ai_x5F_1_x2F_Layer_1_x2F__x3C_Path_x3E__x5F_2_x5F_1" viewBox="-0.004 -22 2.303 22">
	<g id="Layer_1_14_">
		<path style="fill-rule:evenodd;clip-rule:evenodd;fill:#68CFC7;" d="M0.2-22c-0.1,0.6-0.167,1.35-0.2,2.25
			c-0.033,1.833,0.167,3.567,0.6,5.2C1.267-12.05,1.733-9.067,2-5.6L2.3,0c0-7.4-0.25-12.017-0.75-13.85
			C1.05-15.683,0.6-18.4,0.2-22z"/>
	</g>
</symbol>
<symbol  id="flash0.ai_x5F_1_x2F_Layer_1_x2F__x3C_Path_x3E__x5F_2_x5F_2" viewBox="0.047 -3.793 1.427 3.883">
	<g id="Layer_1_20_">
		<path style="fill-rule:evenodd;clip-rule:evenodd;fill:#4EAA95;" d="M1.45-0.55c0.1-0.767-0.117-1.633-0.65-2.6
			C0.267-4.083,0.017-4,0.05-2.9c0,1.1,0.2,1.933,0.6,2.5C1.083,0.3,1.35,0.25,1.45-0.55z"/>
	</g>
</symbol>
<symbol  id="flash0.ai_x5F_1_x2F_Layer_1_x2F__x3C_Path_x3E__x5F_3" viewBox="-0.006 -12.89 17.359 12.89">
	<g id="Layer_1_5_">
		<g>
			
				<linearGradient id="SVGID_9_" gradientUnits="userSpaceOnUse" x1="222.1812" y1="209.4941" x2="238.7123" y2="209.4941" gradientTransform="matrix(0.9996 0.0269 -0.0269 0.9996 -216.3877 -222.0073)">
				<stop  offset="0" style="stop-color:#E2EBE9"/>
				<stop  offset="0.0039" style="stop-color:#DDE5E3"/>
				<stop  offset="0.0353" style="stop-color:#B7B8B6"/>
				<stop  offset="0.0706" style="stop-color:#958F8D"/>
				<stop  offset="0.1059" style="stop-color:#776C69"/>
				<stop  offset="0.149" style="stop-color:#5E4E4B"/>
				<stop  offset="0.1922" style="stop-color:#493633"/>
				<stop  offset="0.2431" style="stop-color:#3A2320"/>
				<stop  offset="0.302" style="stop-color:#2E1613"/>
				<stop  offset="0.3765" style="stop-color:#280E0C"/>
				<stop  offset="0.5255" style="stop-color:#260C0A"/>
				<stop  offset="0.6118" style="stop-color:#290F0C"/>
				<stop  offset="0.6784" style="stop-color:#321916"/>
				<stop  offset="0.6784" style="stop-color:#321916;stop-opacity:0"/>
				<stop  offset="1" style="stop-color:#000000;stop-opacity:0"/>
			</linearGradient>
			<path style="fill-rule:evenodd;clip-rule:evenodd;fill:url(#SVGID_9_);" d="M10.4,0c3.2,0,5.233-0.033,6.1-0.1
				c0.133-0.7,0.2-1.133,0.2-1.3c0-0.267-0.083-0.75-0.25-1.45c-0.3-1.066-0.4-2.15-0.3-3.25c0.1-0.833,0.333-1.883,0.7-3.15
				c0.333-1.167,0.5-1.833,0.5-2c0.033-0.533-0.3-0.85-1-0.95l-4.65-0.3c-3.333-0.2-5.817-0.317-7.45-0.35
				C2.617-12.917,1.467-12.9,0.8-12.8c-0.4,1.033-0.65,2.35-0.75,3.95c-0.1,1.434-0.066,2.817,0.1,4.15
				c0.067,0.8,0.167,1.55,0.3,2.25C0.617-1.617,0.867-1.033,1.2-0.7c0.867,0.267,1.983,0.434,3.35,0.5L10.4,0z"/>
			
				<linearGradient id="SVGID_10_" gradientUnits="userSpaceOnUse" x1="222.1812" y1="209.4941" x2="238.7123" y2="209.4941" gradientTransform="matrix(0.9996 0.0269 -0.0269 0.9996 -216.3877 -222.0073)">
				<stop  offset="0" style="stop-color:#000000;stop-opacity:0"/>
				<stop  offset="0.6784" style="stop-color:#321916;stop-opacity:0"/>
				<stop  offset="0.6784" style="stop-color:#321916"/>
				<stop  offset="0.7373" style="stop-color:#412A27"/>
				<stop  offset="0.7922" style="stop-color:#56413E"/>
				<stop  offset="0.8431" style="stop-color:#725F5C"/>
				<stop  offset="0.8941" style="stop-color:#938481"/>
				<stop  offset="0.9451" style="stop-color:#BBB0AD"/>
				<stop  offset="0.9922" style="stop-color:#E8E2DE"/>
				<stop  offset="1" style="stop-color:#F0EBE7"/>
			</linearGradient>
			<path style="fill-rule:evenodd;clip-rule:evenodd;fill:url(#SVGID_10_);" d="M10.4,0c3.2,0,5.233-0.033,6.1-0.1
				c0.133-0.7,0.2-1.133,0.2-1.3c0-0.267-0.083-0.75-0.25-1.45c-0.3-1.066-0.4-2.15-0.3-3.25c0.1-0.833,0.333-1.883,0.7-3.15
				c0.333-1.167,0.5-1.833,0.5-2c0.033-0.533-0.3-0.85-1-0.95l-4.65-0.3c-3.333-0.2-5.817-0.317-7.45-0.35
				C2.617-12.917,1.467-12.9,0.8-12.8c-0.4,1.033-0.65,2.35-0.75,3.95c-0.1,1.434-0.066,2.817,0.1,4.15
				c0.067,0.8,0.167,1.55,0.3,2.25C0.617-1.617,0.867-1.033,1.2-0.7c0.867,0.267,1.983,0.434,3.35,0.5L10.4,0z"/>
		</g>
	</g>
</symbol>
<symbol  id="flash0.ai_x5F_1_x2F_Layer_1_x2F__x3C_Path_x3E__x5F_3_x5F_0" viewBox="0 -14.35 2.1 14.35">
	<g id="Layer_1_9_">
		<path style="fill-rule:evenodd;clip-rule:evenodd;fill:#68CFC7;" d="M0-14.35c0.2,2.967,0.483,5.567,0.85,7.8
			C1.217-4.283,1.633-2.1,2.1,0C2.033-1.833,1.9-3.8,1.7-5.9C1.267-10.133,0.7-12.95,0-14.35z"/>
	</g>
</symbol>
<symbol  id="flash0.ai_x5F_1_x2F_Layer_1_x2F__x3C_Path_x3E__x5F_3_x5F_1" viewBox="0 -12.25 0.93 12.25">
	<g id="Layer_1_13_">
		<path style="fill-rule:evenodd;clip-rule:evenodd;fill:#C2AA95;" d="M0-12.25L0.55-3.5C0.617-2.2,0.717-1.033,0.85,0
			c0.133-2.667,0.1-4.983-0.1-6.95C0.55-8.917,0.3-10.683,0-12.25z"/>
	</g>
</symbol>
<symbol  id="flash0.ai_x5F_1_x2F_Layer_1_x2F__x3C_Path_x3E__x5F_4" viewBox="0 -12.94 30.622 12.903">
	<g id="Layer_1_4_">
		
			<linearGradient id="SVGID_11_" gradientUnits="userSpaceOnUse" x1="220.0835" y1="207.3398" x2="244.4422" y2="207.3398" gradientTransform="matrix(0.9996 0.0266 -0.0266 0.9996 -214.3174 -219.8257)">
			<stop  offset="0" style="stop-color:#E2EBE9"/>
			<stop  offset="0.0039" style="stop-color:#DDE5E3"/>
			<stop  offset="0.0353" style="stop-color:#B7B8B6"/>
			<stop  offset="0.0706" style="stop-color:#958F8D"/>
			<stop  offset="0.1059" style="stop-color:#776C69"/>
			<stop  offset="0.149" style="stop-color:#5E4E4B"/>
			<stop  offset="0.1922" style="stop-color:#493633"/>
			<stop  offset="0.2431" style="stop-color:#3A2320"/>
			<stop  offset="0.302" style="stop-color:#2E1613"/>
			<stop  offset="0.3765" style="stop-color:#280E0C"/>
			<stop  offset="0.5255" style="stop-color:#260C0A"/>
			<stop  offset="0.5882" style="stop-color:#39211E"/>
			<stop  offset="0.7098" style="stop-color:#6A5754"/>
			<stop  offset="0.7098" style="stop-color:#6A5754;stop-opacity:0"/>
			<stop  offset="1" style="stop-color:#000000;stop-opacity:0"/>
		</linearGradient>
		<path style="fill-rule:evenodd;clip-rule:evenodd;fill:url(#SVGID_11_);" d="M22.8-9.6c1.133-0.333,3.7-1.017,7.7-2.05
			c0.567-0.167-0.833-0.283-4.2-0.35c-4.033-0.067-6.267-0.133-6.7-0.2c-0.733-0.1-1.667-0.167-2.8-0.2L14-12.5
			c-5.033-0.267-8-0.4-8.9-0.4c-1.934-0.067-3.317-0.05-4.15,0.05c-0.467,1-0.767,2.3-0.9,3.9C-0.05-7.517,0-6.117,0.2-4.75
			C0.433-3.283,0.55-2.533,0.55-2.5C0.783-1.633,1.1-1.05,1.5-0.75c1,0.267,2.317,0.433,3.95,0.5l7,0.2c2.033,0.033,3.966,0,5.8-0.1
			c0-0.033,0.05-0.983,0.15-2.85c0.1-1.467,0.383-2.7,0.85-3.7C19.917-8.133,21.1-9.1,22.8-9.6z"/>
		
			<linearGradient id="SVGID_12_" gradientUnits="userSpaceOnUse" x1="220.0835" y1="207.3398" x2="244.4422" y2="207.3398" gradientTransform="matrix(0.9996 0.0266 -0.0266 0.9996 -214.3174 -219.8257)">
			<stop  offset="0" style="stop-color:#000000;stop-opacity:0"/>
			<stop  offset="0.7098" style="stop-color:#6A5754;stop-opacity:0"/>
			<stop  offset="0.7098" style="stop-color:#6A5754"/>
			<stop  offset="0.8824" style="stop-color:#B8ADAA"/>
			<stop  offset="1" style="stop-color:#F0EBE7"/>
		</linearGradient>
		<path style="fill-rule:evenodd;clip-rule:evenodd;fill:url(#SVGID_12_);" d="M22.8-9.6c1.133-0.333,3.7-1.017,7.7-2.05
			c0.567-0.167-0.833-0.283-4.2-0.35c-4.033-0.067-6.267-0.133-6.7-0.2c-0.733-0.1-1.667-0.167-2.8-0.2L14-12.5
			c-5.033-0.267-8-0.4-8.9-0.4c-1.934-0.067-3.317-0.05-4.15,0.05c-0.467,1-0.767,2.3-0.9,3.9C-0.05-7.517,0-6.117,0.2-4.75
			C0.433-3.283,0.55-2.533,0.55-2.5C0.783-1.633,1.1-1.05,1.5-0.75c1,0.267,2.317,0.433,3.95,0.5l7,0.2c2.033,0.033,3.966,0,5.8-0.1
			c0-0.033,0.05-0.983,0.15-2.85c0.1-1.467,0.383-2.7,0.85-3.7C19.917-8.133,21.1-9.1,22.8-9.6z"/>
	</g>
</symbol>
<symbol  id="flash0.ai_x5F_1_x2F_Layer_1_x2F__x3C_Path_x3E__x5F_4_x5F_0" viewBox="0 -50.025 6.802 50.025">
	<g id="Layer_1_8_">
		<linearGradient id="SVGID_13_" gradientUnits="userSpaceOnUse" x1="-0.4126" y1="-25.0127" x2="7.0124" y2="-25.0127">
			<stop  offset="0" style="stop-color:#260C0A"/>
			<stop  offset="0.102" style="stop-color:#2B120F"/>
			<stop  offset="0.2314" style="stop-color:#39211F"/>
			<stop  offset="0.3765" style="stop-color:#503B39"/>
			<stop  offset="0.5294" style="stop-color:#71605D"/>
			<stop  offset="0.6941" style="stop-color:#9A8E8C"/>
			<stop  offset="0.8667" style="stop-color:#CCC6C5"/>
			<stop  offset="1" style="stop-color:#F9F8F7"/>
		</linearGradient>
		<path style="fill-rule:evenodd;clip-rule:evenodd;fill:url(#SVGID_13_);" d="M5.4,0c0.033-0.933-0.2-3.617-0.7-8.05
			c-0.467-4-0.55-7.05-0.25-9.15c0.1-0.7,0.6-3.216,1.5-7.55c0.6-2.833,0.883-5.35,0.85-7.55c0-1.034-0.133-2.517-0.4-4.45
			c-0.267-1.833-0.383-3.317-0.35-4.45c0.034-0.767,0.05-3.633,0.05-8.6c-2.267-0.034-3.95-0.034-5.05,0
			c-0.133,0-0.316-0.067-0.55-0.2c-0.1-0.067-0.15,0-0.15,0.2c-0.033,0.633,0.15,2.1,0.55,4.4c0.1,0.667,0.167,1.55,0.2,2.65
			c0.033,1.367,0.066,2.25,0.1,2.65c0.2,2.533,0.267,5.267,0.2,8.2c-0.033,2.066-0.3,5.3-0.8,9.7
			c-0.167,1.367-0.217,2.717-0.15,4.05c0.066,2.633,0.1,4.167,0.1,4.6L0.5-4.15C0.467-3.55,0.3-2.167,0,0H5.4z"/>
	</g>
</symbol>
<symbol  id="flash0.ai_x5F_1_x2F_Layer_1_x2F__x3C_Path_x3E__x5F_4_x5F_1" viewBox="-0.056 -49.867 6.361 49.867">
	<g id="Layer_1_12_">
		<linearGradient id="SVGID_14_" gradientUnits="userSpaceOnUse" x1="-3.2124" y1="-24.9331" x2="6.0126" y2="-24.9331">
			<stop  offset="0" style="stop-color:#260C0A"/>
			<stop  offset="0.102" style="stop-color:#2B120F"/>
			<stop  offset="0.2314" style="stop-color:#39211F"/>
			<stop  offset="0.3765" style="stop-color:#503B39"/>
			<stop  offset="0.5294" style="stop-color:#71605D"/>
			<stop  offset="0.6941" style="stop-color:#9A8E8C"/>
			<stop  offset="0.8667" style="stop-color:#CCC6C5"/>
			<stop  offset="1" style="stop-color:#F9F8F7"/>
		</linearGradient>
		<path style="fill-rule:evenodd;clip-rule:evenodd;fill:url(#SVGID_14_);" d="M0.9-12.4c-0.1,0.733-0.167,2.033-0.2,3.9
			C0.667-7.1,0.533-5.917,0.3-4.95C-0.067-3.517-0.15-1.867,0.05,0h5.7c-0.267-11.233-0.367-18.617-0.3-22.15
			c0.033-1.7,0.2-3.867,0.5-6.5c0.267-2.3,0.383-4.2,0.35-5.7c-0.033-1.667-0.117-4.483-0.25-8.45c0-2.767,0.083-5.1,0.25-7
			c0-0.067-0.733-0.083-2.2-0.05c-1.9,0.067-3.25,0.083-4.05,0.05c0.233,3.767,0.417,6.683,0.55,8.75c0.2,3.733,0.233,6.65,0.1,8.75
			c-0.167,3.033-0.1,6.316,0.2,9.85C1.233-19.05,1.233-15.7,0.9-12.4z"/>
	</g>
</symbol>
<symbol  id="flash0.ai_x5F_1_x2F_Layer_1_x2F__x3C_Path_x3E__x5F_7" viewBox="0 -1.568 2.429 1.558">
	<g id="Layer_1_3_">
		
			<linearGradient id="SVGID_15_" gradientUnits="userSpaceOnUse" x1="-932.335" y1="-1053.3823" x2="-930.4713" y2="-1053.3823" gradientTransform="matrix(0.9926 -0.1216 0.1216 0.9926 1053.9063 931.4941)">
			<stop  offset="0" style="stop-color:#060403"/>
			<stop  offset="1" style="stop-color:#835F40"/>
		</linearGradient>
		<path style="fill-rule:evenodd;clip-rule:evenodd;fill:url(#SVGID_15_);" d="M1.95-0.25C2.083-0.383,2.233-0.7,2.4-1.2
			c0.067-0.3,0.017-0.417-0.15-0.35c-0.233,0.133-0.4,0.216-0.5,0.25c-0.267,0.066-0.467,0.117-0.6,0.15
			c-0.267,0.066-0.417,0.2-0.45,0.4v0.05C0.667-0.6,0.433-0.4,0-0.1C0.033,0,0.267,0.017,0.7-0.05C0.967-0.083,1.383-0.15,1.95-0.25
			z"/>
	</g>
</symbol>
<symbol  id="flash0.ai_x5F_1_x2F_Layer_1_x2F__x3C_Path_x3E__x5F_8" viewBox="0 -3.816 5.05 3.788">
	<g id="Layer_1_2_">
		
			<linearGradient id="SVGID_16_" gradientUnits="userSpaceOnUse" x1="-902.2822" y1="-1016.8511" x2="-898.6075" y2="-1016.8511" gradientTransform="matrix(0.9931 -0.1175 0.1175 0.9931 1016.3579 902.0557)">
			<stop  offset="0" style="stop-color:#060403"/>
			<stop  offset="1" style="stop-color:#835F40"/>
		</linearGradient>
		<path style="fill-rule:evenodd;clip-rule:evenodd;fill:url(#SVGID_16_);" d="M2.6-0.3c0.9-0.067,1.55-0.167,1.95-0.3
			c0.233-0.233,0.4-0.617,0.5-1.15C4.917-2.583,4.817-3.1,4.75-3.3c-0.2-0.467-0.533-0.617-1-0.45L1.6-3.05
			C1.033-2.85,0.733-2.733,0.7-2.7C0.333-2.5,0.117-2.233,0.05-1.9L0-1.4c0,0.467,0.1,0.833,0.3,1.1c0.2,0.233,0.567,0.316,1.1,0.25
			C1.7-0.083,2.1-0.167,2.6-0.3z"/>
	</g>
</symbol>
<symbol  id="flash0.ai_x5F_1_x2F_Layer_1_x2F__x3C_Path_x3E__x5F_8_x5F_0" viewBox="-0.114 -2.01 6.657 2.042">
	<g id="Layer_1_19_">
		<path style="fill-rule:evenodd;clip-rule:evenodd;fill:#4EAA95;" d="M6.15-0.85C5.217-1.55,3.767-1.933,1.8-2
			c-1.833-0.067-2.35,0.217-1.55,0.85C1.05-0.483,2.283-0.1,3.95,0C6.35,0.133,7.083-0.15,6.15-0.85z"/>
	</g>
</symbol>
<symbol  id="flash0.ai_x5F_1_x2F_Layer_1_x2F__x3C_Path_x3E__x5F_9" viewBox="-0.064 -1.948 9.882 1.951">
	<g id="Layer_1_18_">
		<path style="fill-rule:evenodd;clip-rule:evenodd;fill:#4EAA95;" d="M5.95,0c3.566-0.033,4.667-0.4,3.3-1.1
			c-1.367-0.7-3.633-0.967-6.8-0.8C-0.317-1.733-0.8-1.367,1-0.8C2.767-0.233,4.417,0.033,5.95,0z"/>
	</g>
</symbol>
<g>
	
		<linearGradient id="SVGID_17_" gradientUnits="userSpaceOnUse" x1="-37.5898" y1="49.7754" x2="-31.714" y2="49.7754" gradientTransform="matrix(-0.017 -0.9999 0.9999 -0.017 3.318489e-005 3.610998e-004)">
		<stop  offset="0.0118" style="stop-color:#625AEF"/>
		<stop  offset="1" style="stop-color:#022B3E"/>
	</linearGradient>
	<path style="fill-rule:evenodd;clip-rule:evenodd;fill:url(#SVGID_17_);" d="M53.5,30.1c1.267,0.101,2,0.167,2.2,0.2
		c0.5,0.101,0.633,0.367,0.399,0.8c-0.1,0.233-0.333,0.584-0.699,1.051c-0.267,0.533-0.483,1.25-0.65,2.149
		c-0.1,0.5-0.25,1.233-0.45,2.2c-0.267-0.7-0.467-1.217-0.6-1.55c-0.167-0.566-0.434-0.967-0.8-1.2c-0.301-0.167-0.534-0.4-0.7-0.7
		c-0.233-0.467-0.45-0.666-0.65-0.6c-0.133,0.033-0.283,0.166-0.45,0.399c-0.166,0.233-0.283,0.384-0.35,0.45
		c-0.233-1.033-0.55-1.333-0.95-0.899c-0.2,0.233-0.383,0.6-0.55,1.1c-0.2,0.634-0.35,1.033-0.45,1.2
		c-0.1-0.167-0.217-0.584-0.35-1.25c-0.134-0.566-0.316-0.95-0.55-1.15C47.5,32,47.2,32.533,47,33.9
		c-0.033-0.034-0.167-0.4-0.4-1.101c-0.267-0.633-0.566-1.083-0.899-1.35l-1.3-0.65l1.1-0.6c0.634-0.233,1.8-0.351,3.5-0.351
		C50,29.884,51.5,29.967,53.5,30.1z"/>
	
		<linearGradient id="SVGID_18_" gradientUnits="userSpaceOnUse" x1="-35.8926" y1="25.2432" x2="-32.2668" y2="25.2432" gradientTransform="matrix(-0.0207 -0.9998 0.9998 -0.0207 5.547330e-005 -8.740257e-004)">
		<stop  offset="0.0118" style="stop-color:#86A5D9"/>
		<stop  offset="1" style="stop-color:#022B3E"/>
	</linearGradient>
	<path style="fill-rule:evenodd;clip-rule:evenodd;fill:url(#SVGID_18_);" d="M25.2,32.5c-0.167,0.167-0.3,0.366-0.4,0.6
		c-0.1-0.066-0.216-0.25-0.35-0.55c-0.1-0.233-0.25-0.383-0.45-0.45c-0.033,0-0.567-0.017-1.6-0.05
		c-0.9-0.033-1.333-0.166-1.3-0.399c0.6-0.134,1.967-0.284,4.1-0.45c0.167,0,0.466,0.017,0.9,0.05c0.367,0.033,0.667,0.017,0.9-0.05
		c2.867-0.2,4.067-0.2,3.6,0c-0.233,0.133-0.767,0.366-1.6,0.7c-0.433,0.166-0.683,0.316-0.75,0.449
		C28.05,32.95,27.967,33.3,28,33.4c-0.067-0.167-0.1-0.517-0.1-1.051c-0.4,0.301-0.633,0.7-0.7,1.2c0,0.334-0.117,0.9-0.35,1.7
		c-0.033-0.733-0.167-1.267-0.4-1.6c-0.167-0.634-0.367-1.051-0.6-1.25C25.683,32.233,25.467,32.267,25.2,32.5z"/>
	
		<linearGradient id="SVGID_19_" gradientUnits="userSpaceOnUse" x1="-38.4648" y1="7.1299" x2="-32.589" y2="7.1299" gradientTransform="matrix(-0.017 -0.9999 0.9999 -0.017 3.318489e-005 3.610998e-004)">
		<stop  offset="0.0118" style="stop-color:#625AEF"/>
		<stop  offset="1" style="stop-color:#022B3E"/>
	</linearGradient>
	<path style="fill-rule:evenodd;clip-rule:evenodd;fill:url(#SVGID_19_);" d="M10.8,31.65c1.2,0.1,1.9,0.166,2.1,0.199
		c0.5,0.101,0.633,0.367,0.4,0.801c-0.1,0.233-0.316,0.6-0.65,1.1c-0.267,0.533-0.483,1.233-0.65,2.1c-0.1,0.5-0.233,1.233-0.4,2.2
		c-0.267-0.7-0.467-1.217-0.6-1.55c-0.2-0.566-0.467-0.95-0.8-1.15c-0.367-0.3-0.6-0.55-0.7-0.75c-0.167-0.466-0.367-0.666-0.6-0.6
		c-0.066,0.033-0.333,0.333-0.8,0.9c-0.033-0.367-0.117-0.667-0.25-0.9c-0.2-0.3-0.417-0.3-0.65,0c-0.2,0.2-0.383,0.566-0.55,1.1
		C6.45,35.7,6.3,36.083,6.2,36.25C6.133,36.116,6.017,35.7,5.85,35c-0.1-0.566-0.267-0.934-0.5-1.1C4.983,33.6,4.7,34.116,4.5,35.45
		c-0.1-0.066-0.183-0.233-0.25-0.5c-0.067-0.3-0.117-0.5-0.15-0.601C3.8,33.684,3.5,33.233,3.2,33
		c-0.067-0.066-0.483-0.283-1.25-0.65L3,31.75c0.833-0.267,1.983-0.366,3.45-0.3C7.417,31.45,8.867,31.517,10.8,31.65z"/>
	<g>
		<g>
			
				<linearGradient id="SVGID_20_" gradientUnits="userSpaceOnUse" x1="9.3232" y1="-34.8857" x2="21.5749" y2="-34.8857" gradientTransform="matrix(0.0157 0.9999 -0.9999 0.0157 9.838305e-005 3.667641e-004)">
				<stop  offset="0" style="stop-color:#022B3E"/>
				<stop  offset="0.4784" style="stop-color:#74C3C5"/>
				<stop  offset="1" style="stop-color:#1F203E"/>
			</linearGradient>
			<path style="fill-rule:evenodd;clip-rule:evenodd;fill:url(#SVGID_20_);" d="M70.05,18.1c-0.033,0.633,0.033,1.55,0.2,2.75
				c0.033,0.6-0.033,1.5-0.2,2.7c-0.066,1.034-0.2,1.9-0.399,2.601c-0.034,0.166-0.117,0.533-0.25,1.1
				c-0.134,0.533-0.301,0.85-0.5,0.95c-0.233,0.133-2.167,0.217-5.801,0.25c-3.966,0.033-6.633,0.2-8,0.5
				C50.233,29.917,43.667,30.267,35.4,30c-3.734-0.134-8.867-0.017-15.4,0.35c-7.933,0.4-12.217,0.601-12.85,0.601
				c-3.233,0.066-4.933,0.083-5.1,0.05c-0.4-0.066-0.816-0.667-1.25-1.8c-0.267-0.733-0.433-1.783-0.5-3.15
				c-0.033-0.467-0.066-1.9-0.1-4.3c-0.034-0.4,0.05-0.767,0.25-1.1l0.3-0.35c1.067-0.867,6.717-1.333,16.95-1.4
				c14-0.1,21.217-0.167,21.649-0.2c3.567-0.2,9.7-0.75,18.4-1.65c7.1-0.633,10.983-0.667,11.65-0.1
				C69.634,17.15,69.85,17.533,70.05,18.1z"/>
			
				<use xlink:href="#flash0.ai_x5F_1_x2F_Layer_1_x2F__x3C_Path_x3E__x5F_8"  width="5.05" height="3.788" y="-3.816" transform="matrix(1 0 0 -1 65.0498 22.1499)" style="overflow:visible;opacity:0.6602;enable-background:new    ;"/>
			
				<use xlink:href="#flash0.ai_x5F_1_x2F_Layer_1_x2F__x3C_Path_x3E__x5F_7"  width="2.429" height="1.558" y="-1.568" transform="matrix(1 0 0 -1 67.6504 22.5)" style="overflow:visible;opacity:0.6602;enable-background:new    ;"/>
			
				<linearGradient id="SVGID_21_" gradientUnits="userSpaceOnUse" x1="7.7642" y1="-35.0127" x2="32.9423" y2="-35.0127" gradientTransform="matrix(0.0157 0.9999 -0.9999 0.0157 2.901219e-004 4.372317e-004)">
				<stop  offset="0" style="stop-color:#022B3E"/>
				<stop  offset="0.4784" style="stop-color:#74C3C5"/>
				<stop  offset="1" style="stop-color:#1F203E"/>
			</linearGradient>
			<path style="fill-rule:evenodd;clip-rule:evenodd;fill:url(#SVGID_21_);" d="M58.25,17.8c7.167-0.667,11.083-0.716,11.75-0.15
				c0.2,0.167,0.384,0.883,0.55,2.15l0.2,2.1c0.066,0.8-0.1,2.2-0.5,4.2c-0.033,0.5-0.184,1.233-0.45,2.2
				c-0.1,0.867-0.283,1.384-0.55,1.55c-0.233,0.134-2.167,0.217-5.8,0.25c-4,0.034-6.684,0.184-8.05,0.45
				c-4.7,1-11.25,1.367-19.65,1.101c-3.733-0.134-8.867-0.034-15.4,0.3c-8,0.434-12.3,0.649-12.9,0.649
				c-2,0.034-3.85,0.067-5.55,0.101c-0.7,0-1.083-0.184-1.15-0.55c-0.733-3.534-0.917-7.2-0.55-11c1.066-0.867,6.867-1.35,17.4-1.45
				c14.433-0.1,21.817-0.167,22.15-0.2C40.116,19.467,46.283,18.9,58.25,17.8z"/>
			
				<linearGradient id="SVGID_22_" gradientUnits="userSpaceOnUse" x1="28.4502" y1="-34.4971" x2="32.8008" y2="-34.4971" gradientTransform="matrix(0.0166 0.9999 -0.9999 0.0166 3.249627e-004 -2.305992e-004)">
				<stop  offset="0" style="stop-color:#022B3E"/>
				<stop  offset="0.4784" style="stop-color:#74C3C5"/>
				<stop  offset="1" style="stop-color:#1F203E"/>
			</linearGradient>
			<path style="fill-rule:evenodd;clip-rule:evenodd;fill:url(#SVGID_22_);" d="M45.85,31.2c1.2,0,2.9-0.217,5.101-0.65
				c0.533-0.066,2.283-0.283,5.25-0.649c2.133-0.267,3.899-0.467,5.3-0.601c0.833-0.066,2.116-0.033,3.85,0.101L67.2,29.55
				c2.133-0.133,2.7,0.017,1.7,0.45c-0.267,0.134-0.733,0.184-1.4,0.15c-0.9-0.034-1.366-0.051-1.4-0.051H62.45
				c-1.566,0.034-2.75,0.067-3.55,0.101c-1.334,0.033-2.5,0.149-3.5,0.35c-4.7,1-11.25,1.367-19.65,1.101
				c-3.733-0.134-8.867-0.034-15.4,0.3c-8,0.434-12.3,0.649-12.9,0.649L1.5,32.7c-0.4-0.066-0.683-0.233-0.85-0.5
				c0.2-0.101,0.4-0.15,0.6-0.15c0.567-0.1,1.783-0.184,3.65-0.25c0.934,0,2.317-0.083,4.15-0.25h6.85c1.8,0.033,4.4-0.116,7.8-0.45
				c2.4-0.233,6.4-0.283,12-0.149C39.533,31.116,42.917,31.2,45.85,31.2z"/>
			
				<use xlink:href="#flash0.ai_x5F_1_x2F_Layer_1_x2F__x3C_Path_x3E__x5F_4"  width="30.622" height="12.903" x="0" y="-12.94" transform="matrix(1 0 0 -1 1.5498 19.7002)" style="overflow:visible;opacity:0.4414;enable-background:new    ;"/>
			
				<use xlink:href="#flash0.ai_x5F_1_x2F_Layer_1_x2F__x3C_Path_x3E__x5F_3"  width="17.359" height="12.89" x="-0.006" y="-12.89" transform="matrix(1 0 0 -1 2.75 19.75)" style="overflow:visible;opacity:0.4414;enable-background:new    ;"/>
			
				<use xlink:href="#flash0.ai_x5F_1_x2F_Layer_1_x2F__x3C_Path_x3E__x5F_2"  width="19.736" height="13.84" x="-0.004" y="-13.85" transform="matrix(1 0 0 -1 49.75 17.3501)" style="overflow:visible;opacity:0.4414;enable-background:new    ;"/>
			
				<use xlink:href="#flash0.ai_x5F_1_x2F_Layer_1_x2F__x3C_Path_x3E__x5F_1"  width="16.272" height="13.672" x="0.027" y="-13.65" transform="matrix(1 0 0 -1 51.5498 17.2998)" style="overflow:visible;opacity:0.4414;enable-background:new    ;"/>
			<path style="fill-rule:evenodd;clip-rule:evenodd;fill:#A2D2C7;" d="M21.9,19.7c9.5,0.267,18.517-0.05,27.05-0.95
				c-2.267,0.367-5.101,0.683-8.5,0.95C33.683,20.233,27.5,20.233,21.9,19.7z"/>
		</g>
	</g>
	
		<linearGradient id="SVGID_23_" gradientUnits="userSpaceOnUse" x1="-68.2002" y1="-25" x2="-52.8002" y2="-25" gradientTransform="matrix(-1 0 0 -1 0 0)">
		<stop  offset="0" style="stop-color:#022B3E"/>
		<stop  offset="0.4784" style="stop-color:#74C3C5"/>
		<stop  offset="1" style="stop-color:#1F203E"/>
	</linearGradient>
	<path style="fill-rule:evenodd;clip-rule:evenodd;fill:url(#SVGID_23_);" d="M66.2,15.65c0,1,0.083,2.7,0.25,5.1
		c0.133,2.033,0.166,3.933,0.1,5.7c-0.066,1.666,0,3.434,0.2,5.3c0.233,2.267,0.366,4.233,0.4,5.9L67.4,49.9H54
		c-0.033-2.2,0.017-5.301,0.15-9.301c0.033-0.767,0.233-3.633,0.6-8.6c0.2-2.7,0.167-5-0.1-6.9c-0.267-2.066-0.417-4.266-0.45-6.6
		c0.033-2.6,0.05-4.6,0.05-6V0.1H67.4C66.634,7.833,66.233,13.017,66.2,15.65z"/>
	
		<use xlink:href="#flash0.ai_x5F_1_x2F_Layer_1_x2F__x3C_Clip_Group_0_x3E__x5F_1"  width="14.135" height="50.025" x="0.05" y="-50.025" transform="matrix(1 0 0 -1 53.9502 0.1001)" style="overflow:visible;"/>
	<linearGradient id="SVGID_24_" gradientUnits="userSpaceOnUse" x1="18.5728" y1="24.9497" x2="4.4092" y2="24.9497">
		<stop  offset="0" style="stop-color:#022B3E"/>
		<stop  offset="0.4784" style="stop-color:#74C3C5"/>
		<stop  offset="1" style="stop-color:#1F203E"/>
	</linearGradient>
	<path style="fill-rule:evenodd;clip-rule:evenodd;fill:url(#SVGID_24_);" d="M4.75,5.15c-0.133-1-0.233-1.733-0.3-2.2
		C4.35,1.983,4.433,1.033,4.7,0.1c4-0.133,8.45-0.133,13.35,0c0.1,3.833,0.15,8.9,0.15,15.2c0,0.2,0.1,2.65,0.3,7.35
		c0.133,3.267,0.083,5.75-0.15,7.45C17.883,33.134,17.767,39.733,18,49.9H4.7c0-2.967,0.1-9.684,0.3-20.15
		c0-0.833,0.1-2.816,0.3-5.95c0.167-2.566,0.217-4.667,0.15-6.3c-0.034-0.8-0.167-2.7-0.4-5.7C4.883,9.833,4.833,8.333,4.9,7.3
		C4.933,6.767,4.883,6.05,4.75,5.15z"/>
	<path style="fill-rule:evenodd;clip-rule:evenodd;fill:#4EAA95;" d="M5.55,22.55c0.133-1.667,0.167-3.783,0.1-6.35
		c-0.1-1.767-0.167-3.167-0.2-4.2c-0.1-1.867-0.117-3.5-0.05-4.9l0.65,8.5C6.083,17.067,5.917,19.383,5.55,22.55z"/>
	
		<use xlink:href="#flash0.ai_x5F_1_x2F_Layer_1_x2F__x3C_Clip_Group_0_x3E_"  width="14.167" height="50" x="-0.022" y="-50" transform="matrix(1 0 0 -1 4.4502 0)" style="overflow:visible;"/>
	
		<linearGradient id="SVGID_25_" gradientUnits="userSpaceOnUse" x1="-31.4883" y1="14.8706" x2="-21.4852" y2="14.8706" gradientTransform="matrix(0.025 -0.9997 0.9997 0.025 4.384499e-004 1.607053e-004)">
		<stop  offset="0" style="stop-color:#74C3C5"/>
		<stop  offset="1" style="stop-color:#1F203E"/>
	</linearGradient>
	<path style="fill-rule:evenodd;clip-rule:evenodd;fill:url(#SVGID_25_);" d="M13.5,21.65c0.5-2.033,1-1.883,1.5,0.45
		c0.533,2.267,0.433,4.216-0.3,5.85c-0.667,1.533-1.117,1.217-1.35-0.95C13.083,24.933,13.133,23.15,13.5,21.65z"/>
	
		<linearGradient id="SVGID_26_" gradientUnits="userSpaceOnUse" x1="-16.2568" y1="15.9487" x2="-10.255" y2="15.9487" gradientTransform="matrix(0.025 -0.9997 0.9997 0.025 -4.834123e-005 1.454931e-004)">
		<stop  offset="0" style="stop-color:#74C3C5"/>
		<stop  offset="1" style="stop-color:#1F203E"/>
	</linearGradient>
	<path style="fill-rule:evenodd;clip-rule:evenodd;fill:url(#SVGID_26_);" d="M15.5,10c0.367-0.533,0.667-0.183,0.9,1.05
		c0.233,1.2,0.1,2.284-0.4,3.25c-0.533,1.067-0.917,0.85-1.15-0.65C14.65,12.117,14.867,10.9,15.5,10z"/>
	
		<linearGradient id="SVGID_27_" gradientUnits="userSpaceOnUse" x1="-15.5566" y1="11.7422" x2="-3.178" y2="11.7422" gradientTransform="matrix(0.0242 -0.9997 0.9997 0.0242 4.616808e-004 9.534694e-005)">
		<stop  offset="0" style="stop-color:#022B3E"/>
		<stop  offset="0.4784" style="stop-color:#74C3C5"/>
		<stop  offset="1" style="stop-color:#1F203E"/>
	</linearGradient>
	<path style="fill-rule:evenodd;clip-rule:evenodd;fill:url(#SVGID_27_);" d="M10.8,2.45c1-1.567,1.717-0.934,2.15,1.9
		c0.433,2.833,0.167,5.167-0.8,7c-0.9,1.733-1.55,0.983-1.95-2.25C9.833,5.9,10.033,3.683,10.8,2.45z"/>
	
		<linearGradient id="SVGID_28_" gradientUnits="userSpaceOnUse" x1="-11.2627" y1="7.6245" x2="-6.9865" y2="7.6245" gradientTransform="matrix(0.0234 -0.9997 0.9997 0.0234 -4.943460e-004 -3.347546e-004)">
		<stop  offset="0" style="stop-color:#74C3C5"/>
		<stop  offset="1" style="stop-color:#1F203E"/>
	</linearGradient>
	<path style="fill-rule:evenodd;clip-rule:evenodd;fill:url(#SVGID_28_);" d="M6.9,6.85c0.267-0.533,0.6-0.467,1,0.2
		c0.4,0.667,0.4,1.483,0,2.45c-0.4,1-0.733,0.983-1-0.05C6.6,8.417,6.6,7.55,6.9,6.85z"/>
	
		<linearGradient id="SVGID_29_" gradientUnits="userSpaceOnUse" x1="-42.647" y1="10.7788" x2="-29.8685" y2="10.7788" gradientTransform="matrix(0.0235 -0.9997 0.9997 0.0235 1.706369e-004 -3.470518e-004)">
		<stop  offset="0" style="stop-color:#74C3C5"/>
		<stop  offset="1" style="stop-color:#1F203E"/>
	</linearGradient>
	<path style="fill-rule:evenodd;clip-rule:evenodd;fill:url(#SVGID_29_);" d="M9.2,31.15c1.5-2.2,2.316-1.617,2.45,1.75
		c0.133,3.399-0.333,5.833-1.4,7.3C9.317,41.467,8.7,40.6,8.4,37.6C8.067,34.6,8.333,32.45,9.2,31.15z"/>
	
		<linearGradient id="SVGID_30_" gradientUnits="userSpaceOnUse" x1="-50.4424" y1="14.8594" x2="-40.7898" y2="14.8594" gradientTransform="matrix(0.0233 -0.9997 0.9997 0.0233 2.028327e-004 1.989845e-004)">
		<stop  offset="0" style="stop-color:#74C3C5"/>
		<stop  offset="1" style="stop-color:#1F203E"/>
	</linearGradient>
	<path style="fill-rule:evenodd;clip-rule:evenodd;fill:url(#SVGID_30_);" d="M12.8,41.95c0.833-2.101,1.517-1.967,2.05,0.399
		c0.533,2.367,0.433,4.267-0.3,5.7c-0.633,1.3-1.2,0.9-1.7-1.2C12.35,44.783,12.333,43.15,12.8,41.95z"/>
	
		<use xlink:href="#flash0.ai_x5F_1_x2F_Layer_1_x2F__x3C_Path_x3E__x5F_17"  width="1.037" height="3.919" x="-0.03" y="-3.851" transform="matrix(1 0 0 -1 15.8999 34.1504)" style="overflow:visible;opacity:0.3516;enable-background:new    ;"/>
	
		<linearGradient id="SVGID_31_" gradientUnits="userSpaceOnUse" x1="-23.6909" y1="35.9834" x2="-19.7147" y2="35.9834" gradientTransform="matrix(0.0251 -0.9997 0.9997 0.0251 1.063850e-004 -3.070943e-004)">
		<stop  offset="0" style="stop-color:#74C3C5"/>
		<stop  offset="1" style="stop-color:#1F203E"/>
	</linearGradient>
	<path style="fill-rule:evenodd;clip-rule:evenodd;fill:url(#SVGID_31_);" d="M34.05,20.9c3-0.667,4.717-0.45,5.15,0.65
		c0.399,1.1-0.8,1.833-3.601,2.2c-2.533,0.333-3.866,0.033-4-0.9C31.5,21.95,32.317,21.3,34.05,20.9z"/>
	
		<linearGradient id="SVGID_32_" gradientUnits="userSpaceOnUse" x1="-21.1792" y1="45.8965" x2="-19.829" y2="45.8965" gradientTransform="matrix(0.0185 -0.9998 0.9998 0.0185 -1.939535e-004 3.526807e-004)">
		<stop  offset="0" style="stop-color:#74C3C5"/>
		<stop  offset="1" style="stop-color:#1F203E"/>
	</linearGradient>
	<path style="fill-rule:evenodd;clip-rule:evenodd;fill:url(#SVGID_32_);" d="M46.1,20.7c0.834-0.067,1.117,0.083,0.851,0.45
		s-0.884,0.567-1.851,0.6c-1,0.067-1.333-0.067-1-0.4C44.467,21.017,45.134,20.8,46.1,20.7z"/>
	
		<linearGradient id="SVGID_33_" gradientUnits="userSpaceOnUse" x1="-27.3462" y1="41.7578" x2="-23.3699" y2="41.7578" gradientTransform="matrix(0.0251 -0.9997 0.9997 0.0251 1.063850e-004 -3.070943e-004)">
		<stop  offset="0" style="stop-color:#74C3C5"/>
		<stop  offset="1" style="stop-color:#1F203E"/>
	</linearGradient>
	<path style="fill-rule:evenodd;clip-rule:evenodd;fill:url(#SVGID_33_);" d="M42.6,24.4c3.2,0.333,3.967,1.05,2.301,2.15
		c-1.667,1.101-3.817,1.434-6.45,1c-2.334-0.399-2.601-1.066-0.8-2C39.384,24.65,41.033,24.267,42.6,24.4z"/>
	
		<linearGradient id="SVGID_34_" gradientUnits="userSpaceOnUse" x1="-25.2661" y1="24.1001" x2="-23.3155" y2="24.1001" gradientTransform="matrix(0.0256 -0.9997 0.9997 0.0256 1.271162e-004 -9.237230e-005)">
		<stop  offset="0" style="stop-color:#74C3C5"/>
		<stop  offset="1" style="stop-color:#1F203E"/>
	</linearGradient>
	<path style="fill-rule:evenodd;clip-rule:evenodd;fill:url(#SVGID_34_);" d="M23.2,23.9c1-0.066,1.55,0.184,1.65,0.75
		c0.133,0.567-0.267,0.867-1.2,0.9c-0.933,0.033-1.45-0.217-1.55-0.75C21.967,24.267,22.333,23.967,23.2,23.9z"/>
	
		<linearGradient id="SVGID_35_" gradientUnits="userSpaceOnUse" x1="-23.4458" y1="3.9756" x2="-21.0953" y2="3.9756" gradientTransform="matrix(0.0213 -0.9998 0.9998 0.0213 5.390495e-006 -5.593710e-005)">
		<stop  offset="0" style="stop-color:#74C3C5"/>
		<stop  offset="1" style="stop-color:#1F203E"/>
	</linearGradient>
	<path style="fill-rule:evenodd;clip-rule:evenodd;fill:url(#SVGID_35_);" d="M3.4,21.2c0.7-0.2,1.167,0.017,1.4,0.65
		c0.2,0.6-0.233,1-1.3,1.2c-1.067,0.2-1.5-0.017-1.3-0.65C2.367,21.8,2.767,21.4,3.4,21.2z"/>
	
		<linearGradient id="SVGID_36_" gradientUnits="userSpaceOnUse" x1="-24.5991" y1="3.1582" x2="-23.4738" y2="3.1582" gradientTransform="matrix(0.0222 -0.9998 0.9998 0.0222 5.394779e-005 3.958941e-004)">
		<stop  offset="0" style="stop-color:#74C3C5"/>
		<stop  offset="1" style="stop-color:#1F203E"/>
	</linearGradient>
	<path style="fill-rule:evenodd;clip-rule:evenodd;fill:url(#SVGID_36_);" d="M2.4,23.5c0.467-0.033,0.783,0.1,0.95,0.4
		c0.2,0.3,0.017,0.483-0.55,0.55c-0.566,0.066-0.883-0.067-0.95-0.4C1.75,23.75,1.933,23.567,2.4,23.5z"/>
	
		<linearGradient id="SVGID_37_" gradientUnits="userSpaceOnUse" x1="-23.5869" y1="68.9766" x2="-20.536" y2="68.9766" gradientTransform="matrix(0.0246 -0.9997 0.9997 0.0246 -3.324635e-004 -1.910720e-004)">
		<stop  offset="0" style="stop-color:#74C3C5"/>
		<stop  offset="1" style="stop-color:#1F203E"/>
	</linearGradient>
	<path style="fill-rule:evenodd;clip-rule:evenodd;fill:url(#SVGID_37_);" d="M69.05,22.2c1.267,0,1.717,0.483,1.351,1.45
		c-0.367,0.934-1.233,1.283-2.601,1.05c-1.333-0.233-1.767-0.717-1.3-1.45C66.934,22.55,67.783,22.2,69.05,22.2z"/>
	
		<use xlink:href="#flash0.ai_x5F_1_x2F_Layer_1_x2F__x3C_Path_x3E__x5F_9"  width="9.882" height="1.951" x="-0.064" y="-1.948" transform="matrix(1 0 0 -1 25 24.8501)" style="overflow:visible;opacity:0.3516;enable-background:new    ;"/>
	
		<use xlink:href="#flash0.ai_x5F_1_x2F_Layer_1_x2F__x3C_Path_x3E__x5F_8_x5F_0"  width="6.657" height="2.042" x="-0.114" y="-2.01" transform="matrix(1 0 0 -1 46.9004 26.9502)" style="overflow:visible;opacity:0.3516;enable-background:new    ;"/>
	
		<linearGradient id="SVGID_38_" gradientUnits="userSpaceOnUse" x1="-10.5903" y1="63.0059" x2="0.3625" y2="63.0059" gradientTransform="matrix(0.0228 -0.9997 0.9997 0.0228 8.145347e-006 2.270620e-004)">
		<stop  offset="0" style="stop-color:#74C3C5"/>
		<stop  offset="1" style="stop-color:#1F203E"/>
	</linearGradient>
	<path style="fill-rule:evenodd;clip-rule:evenodd;fill:url(#SVGID_38_);" d="M62.05,2.75c0.467-0.9,0.934-1.25,1.4-1.05
		c0.434,0.233,0.75,0.85,0.95,1.85c0.533,2.534,0.149,4.917-1.15,7.15c-1.233,2.1-1.934,1.65-2.1-1.35
		C60.983,6.383,61.283,4.183,62.05,2.75z"/>
	
		<linearGradient id="SVGID_39_" gradientUnits="userSpaceOnUse" x1="-21.019" y1="62.7852" x2="-13.692" y2="62.7852" gradientTransform="matrix(0.0239 -0.9997 0.9997 0.0239 8.507445e-005 1.072716e-004)">
		<stop  offset="0" style="stop-color:#022B3E"/>
		<stop  offset="0.4784" style="stop-color:#74C3C5"/>
		<stop  offset="1" style="stop-color:#1F203E"/>
	</linearGradient>
	<path style="fill-rule:evenodd;clip-rule:evenodd;fill:url(#SVGID_39_);" d="M61.9,15.9c0.433-1.167,0.816-1.15,1.149,0.05
		c0.3,1.233,0.25,2.65-0.149,4.25c-0.4,1.633-0.784,1.617-1.15-0.05C61.384,18.483,61.434,17.067,61.9,15.9z"/>
	
		<linearGradient id="SVGID_40_" gradientUnits="userSpaceOnUse" x1="-9.5161" y1="57.7773" x2="-4.89" y2="57.7773" gradientTransform="matrix(0.0216 -0.9998 0.9998 0.0216 -2.795942e-004 1.750663e-004)">
		<stop  offset="0" style="stop-color:#74C3C5"/>
		<stop  offset="1" style="stop-color:#1F203E"/>
	</linearGradient>
	<path style="fill-rule:evenodd;clip-rule:evenodd;fill:url(#SVGID_40_);" d="M57.05,6.65c0.434-0.833,0.834-0.8,1.2,0.1
		c0.333,0.867,0.316,1.75-0.05,2.65c-0.367,0.9-0.75,0.867-1.15-0.1C56.65,8.367,56.65,7.483,57.05,6.65z"/>
	
		<linearGradient id="SVGID_41_" gradientUnits="userSpaceOnUse" x1="-40.6899" y1="59.5381" x2="-30.7374" y2="59.5381" gradientTransform="matrix(0.0226 -0.9997 0.9997 0.0226 -1.055934e-004 1.849718e-004)">
		<stop  offset="0" style="stop-color:#74C3C5"/>
		<stop  offset="1" style="stop-color:#1F203E"/>
	</linearGradient>
	<path style="fill-rule:evenodd;clip-rule:evenodd;fill:url(#SVGID_41_);" d="M57.65,32.5c0.533-0.934,1.05-1.233,1.55-0.9
		c0.434,0.267,0.767,0.934,1,2c0.6,2.733,0.283,5-0.95,6.801c-1.1,1.633-1.8,1-2.1-1.9C56.816,35.634,56.983,33.634,57.65,32.5z"/>
	
		<linearGradient id="SVGID_42_" gradientUnits="userSpaceOnUse" x1="-41.5723" y1="65.8184" x2="-35.9959" y2="65.8184" gradientTransform="matrix(0.0224 -0.9997 0.9997 0.0224 -2.574995e-004 3.111009e-004)">
		<stop  offset="0" style="stop-color:#74C3C5"/>
		<stop  offset="1" style="stop-color:#1F203E"/>
	</linearGradient>
	<path style="fill-rule:evenodd;clip-rule:evenodd;fill:url(#SVGID_42_);" d="M64.15,38.35c0.433-1.5,0.899-1.75,1.399-0.75
		c0.5,1.034,0.517,2.317,0.05,3.851c-0.466,1.467-0.899,1.583-1.3,0.35C63.9,40.6,63.85,39.45,64.15,38.35z"/>
	
		<use xlink:href="#flash0.ai_x5F_1_x2F_Layer_1_x2F__x3C_Path_x3E__x5F_2_x5F_2"  width="1.427" height="3.883" x="0.047" y="-3.793" transform="matrix(1 0 0 -1 64.9004 42.5996)" style="overflow:visible;opacity:0.3516;enable-background:new    ;"/>
	
		<use xlink:href="#flash0.ai_x5F_1_x2F_Layer_1_x2F__x3C_Path_x3E__x5F_1_x5F_1"  width="1.308" height="6.148" x="-0.025" y="-5.935" transform="matrix(1 0 0 -1 64.75 9.4502)" style="overflow:visible;opacity:0.3516;enable-background:new    ;"/>
	
		<linearGradient id="SVGID_43_" gradientUnits="userSpaceOnUse" x1="-46.2031" y1="63.6152" x2="-42.7523" y2="63.6152" gradientTransform="matrix(0.0217 -0.9998 0.9998 0.0217 -4.660804e-004 -4.087612e-004)">
		<stop  offset="0" style="stop-color:#74C3C5"/>
		<stop  offset="1" style="stop-color:#1F203E"/>
	</linearGradient>
	<path style="fill-rule:evenodd;clip-rule:evenodd;fill:url(#SVGID_43_);" d="M63.2,46.55c0,1-0.2,1.084-0.601,0.25
		c-0.433-0.833-0.6-1.616-0.5-2.35c0.134-0.667,0.351-0.767,0.65-0.3C63.083,44.616,63.233,45.417,63.2,46.55z"/>
</g>
</svg>
