<?xml version="1.0" encoding="iso-8859-1"?>
<!-- Generator: Adobe Illustrator 15.1.0, SVG Export Plug-In . SVG Version: 6.00 Build 0)  -->
<!DOCTYPE svg PUBLIC "-//W3C//DTD SVG 1.1//EN" "http://www.w3.org/Graphics/SVG/1.1/DTD/svg11.dtd">
<svg version="1.1" id="Layer_1" xmlns="http://www.w3.org/2000/svg" xmlns:xlink="http://www.w3.org/1999/xlink" x="0px" y="0px"
	 width="71.2px" height="55.85px" viewBox="0 0 71.2 55.85" style="enable-background:new 0 0 71.2 55.85;" xml:space="preserve">
<symbol  id="flash0.ai_x2F_Layer_1_x2F__x3C_Clip_Group_0_x3E_" viewBox="0.025 -52.75 14.175 52.75">
	<g id="Layer_1_30_">
	</g>
	<g>
		<defs>
			<path id="SVGID_1_" d="M14.1-46.65c0,2-0.184,3.917-0.55,5.75c-0.233,1.267-0.417,3.816-0.55,7.65c-0.2,5.1-0.333,8.067-0.4,8.9
				c-0.167,1.9-0.15,4.383,0.05,7.45c0.1,1.233,0.25,2.45,0.45,3.65c0.4,2.1,0.667,4.7,0.8,7.8c0.133,3.5,0.184,5.25,0.15,5.25H0.55
				v-5.2c0-0.9-0.05-2.2-0.15-3.9c-0.1-1.7-0.15-3.017-0.15-3.95c0-0.367,0.05-1.567,0.15-3.6c0.033-1.5,0.017-2.7-0.05-3.6
				c-0.067-0.633-0.083-1.433-0.05-2.4l0.05-3.85c0.066-0.566,0.066-0.983,0-1.25C0.183-28.55,0.1-28.9,0.1-29l0.15-0.95
				c0.067-0.433,0.017-1.5-0.15-3.2c-0.033-0.367-0.05-0.934-0.05-1.7c-0.033-0.467-0.033-0.933,0-1.4L0.3-38.3
				c0.2-1.167,0.25-2.017,0.15-2.55c-0.133-0.767-0.067-1.733,0.2-2.9c0.2-1.033,0.233-2.483,0.1-4.35
				c-0.167-2.2-0.233-3.667-0.2-4.4h13.5C14.117-49.8,14.133-47.85,14.1-46.65z"/>
		</defs>
		<clipPath id="SVGID_2_">
			<use xlink:href="#SVGID_1_"  style="overflow:visible;"/>
		</clipPath>
		<g id="Layer_3_1_" style="clip-path:url(#SVGID_2_);">
			<g>
				
					<use xlink:href="#flash0.ai_x2F_Layer_1_x2F__x3C_Path_x3E__x5F_8"  width="7.294" height="52.75" x="0.01" y="-52.75" transform="matrix(1 0 0 1 0.4502 0)" style="overflow:visible;opacity:0.4414;enable-background:new    ;"/>
				
					<use xlink:href="#flash0.ai_x2F_Layer_1_x2F__x3C_Path_x3E__x5F_7"  width="3.6" height="52.35" x="0.05" y="-52.35" transform="matrix(1 0 0 1 10.5498 -0.1499)" style="overflow:visible;opacity:0.25;enable-background:new    ;"/>
				<path style="fill-rule:evenodd;clip-rule:evenodd;fill:#4EAA95;" d="M0.4-15.1L0.7-2.35l0.25-3.6c0.033-0.767,0-2.066-0.1-3.9
					c-0.067-1.967-0.1-3.3-0.1-4c0.033-1.566,0.017-3.45-0.05-5.65C0.533-17.733,0.433-16.267,0.4-15.1z"/>
				<path style="fill-rule:evenodd;clip-rule:evenodd;fill:#4EAA95;" d="M0.55-22.3l0.05-0.6c0.033-0.833,0.066-2.033,0.1-3.6
					c0.066-1.1,0.167-1.917,0.3-2.45c0.133-0.5,0.1-1.466-0.1-2.9L0.65-33.7c-0.167-0.733-0.2-1.983-0.1-3.75
					c-0.2,1.133-0.283,1.883-0.25,2.25c0.167,1.633,0.25,2.867,0.25,3.7l-0.1,4.2C0.383-25.567,0.417-23.9,0.55-22.3z"/>
				<path style="fill-rule:evenodd;clip-rule:evenodd;fill:#4EAA95;" d="M0.7-39.05l0.25-0.8c0.167-0.667,0.283-1.316,0.35-1.95
					c0.133-1,0.1-3.267-0.1-6.8c-0.1,1.967-0.15,3.5-0.15,4.6C0.883-41.667,0.767-40.017,0.7-39.05z"/>
				
					<use xlink:href="#flash0.ai_x2F_Layer_1_x2F__x3C_Path_x3E__x5F_3_x5F_1"  width="1.6" height="13.65" y="-13.65" transform="matrix(1 0 0 1 5.25 -1.2998)" style="overflow:visible;opacity:0.3711;enable-background:new    ;"/>
				
					<use xlink:href="#flash0.ai_x2F_Layer_1_x2F__x3C_Path_x3E__x5F_2_x5F_1"  width="0.589" height="10.65" x="0.011" y="-10.65" transform="matrix(1 0 0 1 9.7998 -25.0498)" style="overflow:visible;opacity:0.3984;enable-background:new    ;"/>
				
					<use xlink:href="#flash0.ai_x2F_Layer_1_x2F__x3C_Path_x3E__x5F_1_x5F_1"  width="1.995" height="15.75" x="0.005" y="-15.75" transform="matrix(1 0 0 1 4.1499 -11.75)" style="overflow:visible;opacity:0.3984;enable-background:new    ;"/>
				
					<use xlink:href="#flash0.ai_x2F_Layer_1_x2F__x3C_Path_x3E__x5F_6"  width="1.486" height="18.25" x="0.053" y="-18.3" transform="matrix(1 0 0 1 7.0498 -31.75)" style="overflow:visible;opacity:0.3008;enable-background:new    ;"/>
			</g>
		</g>
	</g>
	<g id="Layer_4_1_">
	</g>
</symbol>
<symbol  id="flash0.ai_x2F_Layer_1_x2F__x3C_Clip_Group_0_x3E__x5F_0" viewBox="0.02 -52.75 14.98 52.75">
	<g id="Layer_1_31_">
	</g>
	<g>
		<defs>
			<path id="SVGID_3_" d="M14.2-48c-0.167,2.333-0.25,3.833-0.25,4.5c0,0.733,0.05,2.367,0.15,4.9c0.1,2.067,0.1,3.7,0,4.9
				c-0.267,3.067-0.467,5.317-0.6,6.75c-0.2,2.5-0.317,4.767-0.35,6.8c0,3.733,0.15,6.667,0.45,8.8L14-7.3
				c0.067,0.367,0.15,2.716,0.25,7.05H0.85c0-1.567-0.1-3.4-0.3-5.5c-0.233-2.467-0.2-4.733,0.1-6.8c0.167-1,0.267-2.25,0.3-3.75
				c0-1.5,0.083-2.733,0.25-3.7c0.367-2.2,0.3-5.4-0.2-9.6c-0.533-4.333-0.667-7.517-0.4-9.55c0.233-1.833,0.35-4.067,0.35-6.7
				c0-1.467-0.034-3.683-0.1-6.65H12.6l1.7-0.05C14.367-51.383,14.333-49.867,14.2-48z"/>
		</defs>
		<clipPath id="SVGID_4_">
			<use xlink:href="#SVGID_3_"  style="overflow:visible;"/>
		</clipPath>
		<g id="Layer_3_2_" style="clip-path:url(#SVGID_4_);">
			<g>
				
					<use xlink:href="#flash0.ai_x2F_Layer_1_x2F__x3C_Path_x3E__x5F_7_x5F_0"  width="6.467" height="52.75" x="-0.017" y="-52.75" transform="matrix(1 0 0 1 0.7998 0)" style="overflow:visible;opacity:0.4414;enable-background:new    ;"/>
				
					<use xlink:href="#flash0.ai_x2F_Layer_1_x2F__x3C_Path_x3E__x5F_6_x5F_0"  width="3.75" height="52.25" y="-52.3" transform="matrix(1 0 0 1 10.5 -0.2002)" style="overflow:visible;opacity:0.25;enable-background:new    ;"/>
				<path style="fill-rule:evenodd;clip-rule:evenodd;fill:#4EAA95;" d="M1.35-23.3l0.1-1.35c0.033-1.133-0.034-2.233-0.2-3.3
					c-0.3-2.233-0.45-4.4-0.45-6.5l0.1-6.75c-0.066,0.9-0.167,1.583-0.3,2.05c-0.1,0.3-0.15,0.85-0.15,1.65
					c0.033,1.067,0.05,1.917,0.05,2.55c0.167,2.333,0.25,4.35,0.25,6.05C0.75-27.733,0.95-25.867,1.35-23.3z"/>
				<path style="fill-rule:evenodd;clip-rule:evenodd;fill:#4EAA95;" d="M1.25-44.8c0.067,0.4,0.167-0.417,0.3-2.45
					S1.7-50.5,1.6-50.9C1.433-51.5,1.317-49.467,1.25-44.8z"/>
				
					<use xlink:href="#flash0.ai_x2F_Layer_1_x2F__x3C_Path_x3E__x5F_3_x5F_2"  width="3.109" height="22.3" x="0.02" y="-22.3" transform="matrix(1 0 0 1 0 -14.75)" style="overflow:visible;opacity:0.4297;enable-background:new    ;"/>
				
					<use xlink:href="#flash0.ai_x2F_Layer_1_x2F__x3C_Path_x3E__x5F_2_x5F_2"  width="2.589" height="19.7" x="0.011" y="-19.7" transform="matrix(1 0 0 1 12.3999 -13.3999)" style="overflow:visible;opacity:0.2617;enable-background:new    ;"/>
				
					<use xlink:href="#flash0.ai_x2F_Layer_1_x2F__x3C_Path_x3E__x5F_1_x5F_2"  width="0.955" height="15.4" x="-0.025" y="-15.4" transform="matrix(1 0 0 1 4.9502 -36)" style="overflow:visible;opacity:0.3984;enable-background:new    ;"/>
				
					<use xlink:href="#flash0.ai_x2F_Layer_1_x2F__x3C_Path_x3E__x5F_9"  width="1.334" height="14.318" x="0.023" y="-14.3" transform="matrix(1 0 0 1 7.5498 -7.3999)" style="overflow:visible;opacity:0.3984;enable-background:new    ;"/>
			</g>
		</g>
	</g>
	<g id="Layer_4_2_">
	</g>
</symbol>
<symbol  id="flash0.ai_x2F_Layer_1_x2F__x3C_Path_x3E_" viewBox="0 -0.945 27.25 0.945">
	<g id="Layer_1_6_">
		
			<linearGradient id="SVGID_5_" gradientUnits="userSpaceOnUse" x1="-258.5283" y1="-266.7827" x2="-231.3392" y2="-266.7827" gradientTransform="matrix(0.9995 -0.0322 0.0322 0.9995 266.9795 258.2979)">
			<stop  offset="0" style="stop-color:#B57F39"/>
			<stop  offset="1" style="stop-color:#B3A480"/>
		</linearGradient>
		<path style="fill-rule:evenodd;clip-rule:evenodd;fill:url(#SVGID_5_);" d="M0,0c2.4-0.167,5.317-0.317,8.75-0.45
			c6.933-0.233,13.1-0.216,18.5,0.05c-2.3-0.233-5.167-0.4-8.6-0.5C11.817-1.067,5.6-0.767,0,0z"/>
	</g>
</symbol>
<symbol  id="flash0.ai_x2F_Layer_1_x2F__x3C_Path_x3E__x5F_0" viewBox="0 -1.247 15.262 1.247">
	<g id="Layer_1_12_">
		
			<linearGradient id="SVGID_6_" gradientUnits="userSpaceOnUse" x1="-884.207" y1="-15333.4609" x2="-871.9518" y2="-15333.4609" gradientTransform="matrix(0.1136 -0.9935 0.9935 0.1136 15341.7578 867.4336)">
			<stop  offset="0.0196" style="stop-color:#260C0A"/>
			<stop  offset="0.0235" style="stop-color:#2A110E"/>
			<stop  offset="0.1216" style="stop-color:#615250"/>
			<stop  offset="0.2118" style="stop-color:#8F8987"/>
			<stop  offset="0.2941" style="stop-color:#B3B3B1"/>
			<stop  offset="0.3686" style="stop-color:#CDD2D0"/>
			<stop  offset="0.4353" style="stop-color:#DDE5E3"/>
			<stop  offset="0.4784" style="stop-color:#E2EBE9"/>
			<stop  offset="0.5294" style="stop-color:#DCE4E2"/>
			<stop  offset="0.6039" style="stop-color:#CACFCD"/>
			<stop  offset="0.6941" style="stop-color:#ADACAA"/>
			<stop  offset="0.8" style="stop-color:#857D7A"/>
			<stop  offset="0.9098" style="stop-color:#52403E"/>
			<stop  offset="1" style="stop-color:#260C0A"/>
		</linearGradient>
		<path style="fill-rule:evenodd;clip-rule:evenodd;fill:url(#SVGID_6_);" d="M0-0.5c3.633,0.233,6.467,0.367,8.5,0.4L14.85,0
			c0.867-0.033,0.367-0.283-1.5-0.75c-1.8-0.433-3.267-0.583-4.4-0.45C7.283-1,4.3-0.767,0-0.5z"/>
	</g>
</symbol>
<symbol  id="flash0.ai_x2F_Layer_1_x2F__x3C_Path_x3E__x5F_1" viewBox="-0.014 -11.708 16.164 11.673">
	<g id="Layer_1_5_">
		<g>
			
				<linearGradient id="SVGID_7_" gradientUnits="userSpaceOnUse" x1="-173.8438" y1="-183.4053" x2="-158.2904" y2="-183.4053" gradientTransform="matrix(0.9998 -0.0216 0.0216 0.9998 177.8818 173.9365)">
				<stop  offset="0" style="stop-color:#E2EBE9"/>
				<stop  offset="0.0039" style="stop-color:#DDE5E3"/>
				<stop  offset="0.0353" style="stop-color:#B7B8B6"/>
				<stop  offset="0.0706" style="stop-color:#958F8D"/>
				<stop  offset="0.1059" style="stop-color:#776C69"/>
				<stop  offset="0.149" style="stop-color:#5E4E4B"/>
				<stop  offset="0.1922" style="stop-color:#493633"/>
				<stop  offset="0.2431" style="stop-color:#3A2320"/>
				<stop  offset="0.302" style="stop-color:#2E1613"/>
				<stop  offset="0.3765" style="stop-color:#280E0C"/>
				<stop  offset="0.5255" style="stop-color:#260C0A"/>
				<stop  offset="0.6118" style="stop-color:#290F0C"/>
				<stop  offset="0.6784" style="stop-color:#321916"/>
				<stop  offset="0.6784" style="stop-color:#321916;stop-opacity:0"/>
				<stop  offset="1" style="stop-color:#000000;stop-opacity:0"/>
			</linearGradient>
			<path style="fill-rule:evenodd;clip-rule:evenodd;fill:url(#SVGID_7_);" d="M12.55-0.15C13.683-0.017,14.733,0,15.7-0.1
				c0.066-0.4,0.133-0.9,0.2-1.5c0.033-0.5-0.05-1.033-0.25-1.6c-0.5-1.6-0.467-3.533,0.1-5.8c0.267-1.033,0.4-1.65,0.4-1.85
				c-0.033-0.433-0.35-0.65-0.95-0.65c-2.034,0.167-3.55,0.25-4.55,0.25c-0.733,0-1.75-0.083-3.05-0.25
				c-1.2-0.167-2.217-0.233-3.05-0.2c-1.667,0.067-2.867,0.083-3.6,0.05c-0.4,1.033-0.684,2.267-0.85,3.7
				c-0.167,1.5-0.15,2.784,0.05,3.85c0.2,1.133,0.333,1.8,0.4,2c0.167,0.767,0.434,1.283,0.8,1.55c0.833,0.2,1.883,0.3,3.15,0.3
				l5.55-0.1C10.417-0.35,11.25-0.283,12.55-0.15z"/>
			
				<linearGradient id="SVGID_8_" gradientUnits="userSpaceOnUse" x1="-173.8438" y1="-183.4053" x2="-158.2904" y2="-183.4053" gradientTransform="matrix(0.9998 -0.0216 0.0216 0.9998 177.8818 173.9365)">
				<stop  offset="0" style="stop-color:#000000;stop-opacity:0"/>
				<stop  offset="0.6784" style="stop-color:#321916;stop-opacity:0"/>
				<stop  offset="0.6784" style="stop-color:#321916"/>
				<stop  offset="0.7373" style="stop-color:#412A27"/>
				<stop  offset="0.7922" style="stop-color:#56413E"/>
				<stop  offset="0.8431" style="stop-color:#725F5C"/>
				<stop  offset="0.8941" style="stop-color:#938481"/>
				<stop  offset="0.9451" style="stop-color:#BBB0AD"/>
				<stop  offset="0.9922" style="stop-color:#E8E2DE"/>
				<stop  offset="1" style="stop-color:#F0EBE7"/>
			</linearGradient>
			<path style="fill-rule:evenodd;clip-rule:evenodd;fill:url(#SVGID_8_);" d="M12.55-0.15C13.683-0.017,14.733,0,15.7-0.1
				c0.066-0.4,0.133-0.9,0.2-1.5c0.033-0.5-0.05-1.033-0.25-1.6c-0.5-1.6-0.467-3.533,0.1-5.8c0.267-1.033,0.4-1.65,0.4-1.85
				c-0.033-0.433-0.35-0.65-0.95-0.65c-2.034,0.167-3.55,0.25-4.55,0.25c-0.733,0-1.75-0.083-3.05-0.25
				c-1.2-0.167-2.217-0.233-3.05-0.2c-1.667,0.067-2.867,0.083-3.6,0.05c-0.4,1.033-0.684,2.267-0.85,3.7
				c-0.167,1.5-0.15,2.784,0.05,3.85c0.2,1.133,0.333,1.8,0.4,2c0.167,0.767,0.434,1.283,0.8,1.55c0.833,0.2,1.883,0.3,3.15,0.3
				l5.55-0.1C10.417-0.35,11.25-0.283,12.55-0.15z"/>
		</g>
	</g>
</symbol>
<symbol  id="flash0.ai_x2F_Layer_1_x2F__x3C_Path_x3E__x5F_10" viewBox="-0.077 -7.018 2.234 7.143">
	<g id="Layer_1_27_">
		<path style="fill-rule:evenodd;clip-rule:evenodd;fill:#4EAA95;" d="M1.9-1.25C2.3-3.05,2.233-4.7,1.7-6.2
			C1.233-7.5,0.767-7.25,0.3-5.45c-0.466,1.833-0.5,3.233-0.1,4.2C0.933,0.583,1.5,0.583,1.9-1.25z"/>
	</g>
</symbol>
<symbol  id="flash0.ai_x2F_Layer_1_x2F__x3C_Path_x3E__x5F_11" viewBox="-0.038 -4.427 1.282 4.485">
	<g id="Layer_1_26_">
		<path style="fill-rule:evenodd;clip-rule:evenodd;fill:#4EAA95;" d="M1.1-0.75c0.233-0.967,0.183-1.967-0.15-3
			c-0.3-1.033-0.567-0.883-0.8,0.45C-0.117-1.967-0.1-1.017,0.2-0.45C0.567,0.317,0.867,0.217,1.1-0.75z"/>
	</g>
</symbol>
<symbol  id="flash0.ai_x2F_Layer_1_x2F__x3C_Path_x3E__x5F_12" viewBox="-0.02 -2.92 7.488 2.896">
	<g id="Layer_1_29_">
		<path style="fill-rule:evenodd;clip-rule:evenodd;fill:#4EAA95;" d="M3.9-0.05C6.867-0.283,7.983-0.867,7.25-1.8
			C6.517-2.733,4.9-3.083,2.4-2.85C0.2-2.65-0.5-2.1,0.3-1.2C1.133-0.3,2.333,0.083,3.9-0.05z"/>
	</g>
</symbol>
<symbol  id="flash0.ai_x2F_Layer_1_x2F__x3C_Path_x3E__x5F_1_x5F_0" viewBox="0 -2.687 27.15 2.687">
	<g id="Layer_1_11_">
		
			<linearGradient id="SVGID_9_" gradientUnits="userSpaceOnUse" x1="591.4951" y1="548.5664" x2="618.7115" y2="548.5664" gradientTransform="matrix(0.9975 0.07 -0.07 0.9975 -551.6064 -591.1719)">
			<stop  offset="0" style="stop-color:#B57F39"/>
			<stop  offset="1" style="stop-color:#B3A480"/>
		</linearGradient>
		<path style="fill-rule:evenodd;clip-rule:evenodd;fill:url(#SVGID_9_);" d="M0-2.6C9.567-2.333,18.617-1.467,27.15,0
			c-2.267-0.533-5.1-1.05-8.5-1.55C11.85-2.517,5.633-2.867,0-2.6z"/>
	</g>
</symbol>
<symbol  id="flash0.ai_x2F_Layer_1_x2F__x3C_Path_x3E__x5F_1_x5F_1" viewBox="0.005 -15.75 1.995 15.75">
	<g id="Layer_1_17_">
		<path style="fill-rule:evenodd;clip-rule:evenodd;fill:#51AA95;" d="M2-15.75c-0.733,3.433-1.267,6.033-1.6,7.8
			C-0.2-4.85-0.117-2.2,0.65,0c-0.367-2.067-0.333-4.35,0.1-6.85C1.45-10.917,1.867-13.883,2-15.75z"/>
	</g>
</symbol>
<symbol  id="flash0.ai_x2F_Layer_1_x2F__x3C_Path_x3E__x5F_1_x5F_2" viewBox="-0.025 -15.4 0.955 15.4">
	<g id="Layer_1_23_">
		<path style="fill-rule:evenodd;clip-rule:evenodd;fill:#4EAA95;" d="M0-15.4c-0.033,1.566-0.033,2.717,0,3.45
			c0.033,0.6,0.133,1.534,0.3,2.8c0.167,1.1,0.25,2.033,0.25,2.8c0,0.333-0.066,0.917-0.2,1.75c-0.133,0.833-0.2,1.417-0.2,1.75
			L0.25,0c0.033-0.367,0.2-2.017,0.5-4.95c0.2-2,0.233-3.633,0.1-4.9S0.433-12.967,0-15.4z"/>
	</g>
</symbol>
<symbol  id="flash0.ai_x2F_Layer_1_x2F__x3C_Path_x3E__x5F_2" viewBox="-0.004 -11.75 19.616 11.713">
	<g id="Layer_1_4_">
		<g>
			
				<linearGradient id="SVGID_10_" gradientUnits="userSpaceOnUse" x1="-173.9941" y1="-183.6348" x2="-155.1149" y2="-183.6348" gradientTransform="matrix(0.9998 -0.0216 0.0216 0.9998 178.0786 174.127)">
				<stop  offset="0" style="stop-color:#E2EBE9"/>
				<stop  offset="0.0039" style="stop-color:#DDE5E3"/>
				<stop  offset="0.0353" style="stop-color:#B7B8B6"/>
				<stop  offset="0.0706" style="stop-color:#958F8D"/>
				<stop  offset="0.1059" style="stop-color:#776C69"/>
				<stop  offset="0.149" style="stop-color:#5E4E4B"/>
				<stop  offset="0.1922" style="stop-color:#493633"/>
				<stop  offset="0.2431" style="stop-color:#3A2320"/>
				<stop  offset="0.302" style="stop-color:#2E1613"/>
				<stop  offset="0.3765" style="stop-color:#280E0C"/>
				<stop  offset="0.5255" style="stop-color:#260C0A"/>
				<stop  offset="0.6118" style="stop-color:#290F0C"/>
				<stop  offset="0.6784" style="stop-color:#321916"/>
				<stop  offset="0.6784" style="stop-color:#321916;stop-opacity:0"/>
				<stop  offset="1" style="stop-color:#000000;stop-opacity:0"/>
			</linearGradient>
			<path style="fill-rule:evenodd;clip-rule:evenodd;fill:url(#SVGID_10_);" d="M18.55-0.15c0.2-0.9,0.017-2.05-0.55-3.45
				c-0.333-0.867-0.4-1.683-0.2-2.45c0.133-0.467,0.434-1.284,0.9-2.45c0.167-0.533,0.45-1.217,0.85-2.05
				c0.2-0.567-0.083-0.883-0.85-0.95c-0.667-0.033-1.567-0.017-2.7,0.05c-1.4,0.067-2.317,0.1-2.75,0.1
				c-0.833,0-1.983-0.05-3.45-0.15c-1.267-0.1-2.417-0.133-3.45-0.1c-1.9-0.066-3.667-0.117-5.3-0.15c-0.433,1-0.75,2.3-0.95,3.9
				c-0.167,1.633-0.133,3,0.1,4.1L0.65-1.7C0.85-1.1,1.1-0.683,1.4-0.45c1.167,0.133,2.633,0.2,4.4,0.2c1.5,0,3.667,0.067,6.5,0.2
				c0.434-0.034,1.35-0.034,2.75,0C16.217-0.017,17.383-0.05,18.55-0.15z"/>
			
				<linearGradient id="SVGID_11_" gradientUnits="userSpaceOnUse" x1="-173.9941" y1="-183.6348" x2="-155.1149" y2="-183.6348" gradientTransform="matrix(0.9998 -0.0216 0.0216 0.9998 178.0786 174.127)">
				<stop  offset="0" style="stop-color:#000000;stop-opacity:0"/>
				<stop  offset="0.6784" style="stop-color:#321916;stop-opacity:0"/>
				<stop  offset="0.6784" style="stop-color:#321916"/>
				<stop  offset="0.7373" style="stop-color:#412A27"/>
				<stop  offset="0.7922" style="stop-color:#56413E"/>
				<stop  offset="0.8431" style="stop-color:#725F5C"/>
				<stop  offset="0.8941" style="stop-color:#938481"/>
				<stop  offset="0.9451" style="stop-color:#BBB0AD"/>
				<stop  offset="0.9922" style="stop-color:#E8E2DE"/>
				<stop  offset="1" style="stop-color:#F0EBE7"/>
			</linearGradient>
			<path style="fill-rule:evenodd;clip-rule:evenodd;fill:url(#SVGID_11_);" d="M18.55-0.15c0.2-0.9,0.017-2.05-0.55-3.45
				c-0.333-0.867-0.4-1.683-0.2-2.45c0.133-0.467,0.434-1.284,0.9-2.45c0.167-0.533,0.45-1.217,0.85-2.05
				c0.2-0.567-0.083-0.883-0.85-0.95c-0.667-0.033-1.567-0.017-2.7,0.05c-1.4,0.067-2.317,0.1-2.75,0.1
				c-0.833,0-1.983-0.05-3.45-0.15c-1.267-0.1-2.417-0.133-3.45-0.1c-1.9-0.066-3.667-0.117-5.3-0.15c-0.433,1-0.75,2.3-0.95,3.9
				c-0.167,1.633-0.133,3,0.1,4.1L0.65-1.7C0.85-1.1,1.1-0.683,1.4-0.45c1.167,0.133,2.633,0.2,4.4,0.2c1.5,0,3.667,0.067,6.5,0.2
				c0.434-0.034,1.35-0.034,2.75,0C16.217-0.017,17.383-0.05,18.55-0.15z"/>
		</g>
	</g>
</symbol>
<symbol  id="flash0.ai_x2F_Layer_1_x2F__x3C_Path_x3E__x5F_20" viewBox="-0.108 -3.571 10.3 3.558">
	<g id="Layer_1_25_">
		<path style="fill-rule:evenodd;clip-rule:evenodd;fill:#4EAA95;" d="M6.35-0.05C9.917-0.383,11-1.133,9.6-2.3
			c-1.434-1.2-3.767-1.55-7-1.05c-2.934,0.434-3.483,1.133-1.65,2.1C2.717-0.283,4.517,0.117,6.35-0.05z"/>
	</g>
</symbol>
<symbol  id="flash0.ai_x2F_Layer_1_x2F__x3C_Path_x3E__x5F_2_x5F_0" viewBox="-0.005 -15.15 16.657 15.155">
	<g id="Layer_1_10_">
		<g>
			
				<linearGradient id="SVGID_12_" gradientUnits="userSpaceOnUse" x1="683.0952" y1="621.8721" x2="698.5957" y2="621.8721" gradientTransform="matrix(0.9968 0.0805 -0.0805 0.9968 -630.6514 -683.0439)">
				<stop  offset="0" style="stop-color:#E2EBE9"/>
				<stop  offset="0.0039" style="stop-color:#DDE5E3"/>
				<stop  offset="0.0353" style="stop-color:#B7B8B6"/>
				<stop  offset="0.0706" style="stop-color:#958F8D"/>
				<stop  offset="0.1059" style="stop-color:#776C69"/>
				<stop  offset="0.149" style="stop-color:#5E4E4B"/>
				<stop  offset="0.1922" style="stop-color:#493633"/>
				<stop  offset="0.2431" style="stop-color:#3A2320"/>
				<stop  offset="0.302" style="stop-color:#2E1613"/>
				<stop  offset="0.3765" style="stop-color:#280E0C"/>
				<stop  offset="0.5255" style="stop-color:#260C0A"/>
				<stop  offset="0.6118" style="stop-color:#290F0C"/>
				<stop  offset="0.6784" style="stop-color:#321916"/>
				<stop  offset="0.6784" style="stop-color:#321916;stop-opacity:0"/>
				<stop  offset="1" style="stop-color:#000000;stop-opacity:0"/>
			</linearGradient>
			<path style="fill-rule:evenodd;clip-rule:evenodd;fill:url(#SVGID_12_);" d="M15.05,0c0.233-1.067,0.367-1.65,0.4-1.75
				c0.066-0.567,0.033-1.183-0.1-1.85c-0.333-1.9-0.083-4.15,0.75-6.75c0.367-1.167,0.55-1.867,0.55-2.1
				c0.033-0.533-0.25-0.833-0.85-0.9c-2.066-0.033-3.583-0.1-4.55-0.2c-0.667-0.1-1.667-0.333-3-0.7c-1.167-0.3-2.167-0.483-3-0.55
				c-1.333-0.067-2.533-0.184-3.6-0.35c-0.5,1.167-0.9,2.566-1.2,4.2C0.117-9.217-0.033-7.717,0-6.45l0.2,2.4
				c0.1,0.867,0.316,1.5,0.65,1.9c0.633,0.233,1.667,0.467,3.1,0.7l5.5,0.5c0.4,0.034,1.233,0.217,2.5,0.55
				C13.083-0.1,14.117,0.033,15.05,0z"/>
			
				<linearGradient id="SVGID_13_" gradientUnits="userSpaceOnUse" x1="683.0952" y1="621.8721" x2="698.5957" y2="621.8721" gradientTransform="matrix(0.9968 0.0805 -0.0805 0.9968 -630.6514 -683.0439)">
				<stop  offset="0" style="stop-color:#000000;stop-opacity:0"/>
				<stop  offset="0.6784" style="stop-color:#321916;stop-opacity:0"/>
				<stop  offset="0.6784" style="stop-color:#321916"/>
				<stop  offset="0.7373" style="stop-color:#412A27"/>
				<stop  offset="0.7922" style="stop-color:#56413E"/>
				<stop  offset="0.8431" style="stop-color:#725F5C"/>
				<stop  offset="0.8941" style="stop-color:#938481"/>
				<stop  offset="0.9451" style="stop-color:#BBB0AD"/>
				<stop  offset="0.9922" style="stop-color:#E8E2DE"/>
				<stop  offset="1" style="stop-color:#F0EBE7"/>
			</linearGradient>
			<path style="fill-rule:evenodd;clip-rule:evenodd;fill:url(#SVGID_13_);" d="M15.05,0c0.233-1.067,0.367-1.65,0.4-1.75
				c0.066-0.567,0.033-1.183-0.1-1.85c-0.333-1.9-0.083-4.15,0.75-6.75c0.367-1.167,0.55-1.867,0.55-2.1
				c0.033-0.533-0.25-0.833-0.85-0.9c-2.066-0.033-3.583-0.1-4.55-0.2c-0.667-0.1-1.667-0.333-3-0.7c-1.167-0.3-2.167-0.483-3-0.55
				c-1.333-0.067-2.533-0.184-3.6-0.35c-0.5,1.167-0.9,2.566-1.2,4.2C0.117-9.217-0.033-7.717,0-6.45l0.2,2.4
				c0.1,0.867,0.316,1.5,0.65,1.9c0.633,0.233,1.667,0.467,3.1,0.7l5.5,0.5c0.4,0.034,1.233,0.217,2.5,0.55
				C13.083-0.1,14.117,0.033,15.05,0z"/>
		</g>
	</g>
</symbol>
<symbol  id="flash0.ai_x2F_Layer_1_x2F__x3C_Path_x3E__x5F_2_x5F_1" viewBox="0.011 -10.65 0.589 10.65">
	<g id="Layer_1_16_">
		<path style="fill-rule:evenodd;clip-rule:evenodd;fill:#51AA95;" d="M0.1-10.65C-0.067-6.25,0-2.7,0.3,0
			c0.2-2.667,0.3-4.417,0.3-5.25C0.567-6.217,0.4-8.017,0.1-10.65z"/>
	</g>
</symbol>
<symbol  id="flash0.ai_x2F_Layer_1_x2F__x3C_Path_x3E__x5F_2_x5F_2" viewBox="0.011 -19.7 2.589 19.7">
	<g id="Layer_1_22_">
		<linearGradient id="SVGID_14_" gradientUnits="userSpaceOnUse" x1="-14.5459" y1="-10.4302" x2="3.3291" y2="-9.8064">
			<stop  offset="0" style="stop-color:#260C0A"/>
			<stop  offset="0.0157" style="stop-color:#2C120E"/>
			<stop  offset="0.1804" style="stop-color:#674B3F"/>
			<stop  offset="0.3216" style="stop-color:#917462"/>
			<stop  offset="0.4314" style="stop-color:#AB8E78"/>
			<stop  offset="0.498" style="stop-color:#B59780"/>
			<stop  offset="0.5647" style="stop-color:#AD9079"/>
			<stop  offset="0.6667" style="stop-color:#987C68"/>
			<stop  offset="0.7922" style="stop-color:#745C4C"/>
			<stop  offset="0.9333" style="stop-color:#433024"/>
			<stop  offset="1" style="stop-color:#2A1910"/>
		</linearGradient>
		<path style="fill-rule:evenodd;clip-rule:evenodd;fill:url(#SVGID_14_);" d="M2.25-8.35c-0.2-1.2-0.3-3.3-0.3-6.3
			c0.033-0.567,0.017-1.4-0.05-2.5c0.033-0.267,0.083-0.7,0.15-1.3C2.117-18.983,2.1-19.4,2-19.7c-0.3,0.733-0.583,1.367-0.85,1.9
			c-0.9,1.667-1.267,3.65-1.1,5.95c0.1,1.1,0.367,2.567,0.8,4.4C1.383-5.283,1.7-3.817,1.8-3.05C1.967-1.983,2.083-0.967,2.15,0
			L2.6-3.9C2.567-4.233,2.517-4.983,2.45-6.15C2.417-7.05,2.35-7.783,2.25-8.35z"/>
	</g>
</symbol>
<symbol  id="flash0.ai_x2F_Layer_1_x2F__x3C_Path_x3E__x5F_3" viewBox="-0.037 -11.467 17.337 11.467">
	<g id="Layer_1_3_">
		<g>
			
				<linearGradient id="SVGID_15_" gradientUnits="userSpaceOnUse" x1="-174.2656" y1="-183.8438" x2="-157.6369" y2="-183.8438" gradientTransform="matrix(0.9998 -0.0216 0.0216 0.9998 178.3872 174.4219)">
				<stop  offset="0" style="stop-color:#E2EBE9"/>
				<stop  offset="0.0039" style="stop-color:#DDE5E3"/>
				<stop  offset="0.0353" style="stop-color:#B7B8B6"/>
				<stop  offset="0.0706" style="stop-color:#958F8D"/>
				<stop  offset="0.1059" style="stop-color:#776C69"/>
				<stop  offset="0.149" style="stop-color:#5E4E4B"/>
				<stop  offset="0.1922" style="stop-color:#493633"/>
				<stop  offset="0.2431" style="stop-color:#3A2320"/>
				<stop  offset="0.302" style="stop-color:#2E1613"/>
				<stop  offset="0.3765" style="stop-color:#280E0C"/>
				<stop  offset="0.5255" style="stop-color:#260C0A"/>
				<stop  offset="0.6118" style="stop-color:#290F0C"/>
				<stop  offset="0.6784" style="stop-color:#321916"/>
				<stop  offset="0.6784" style="stop-color:#321916;stop-opacity:0"/>
				<stop  offset="1" style="stop-color:#000000;stop-opacity:0"/>
			</linearGradient>
			<path style="fill-rule:evenodd;clip-rule:evenodd;fill:url(#SVGID_15_);" d="M10.8-0.15c2.733-0.067,4.784-0.184,6.15-0.35
				c0.1-0.633,0.15-1.033,0.15-1.2c-0.033-0.233-0.15-0.65-0.35-1.25c-0.567-1.633-0.533-3.566,0.1-5.8
				c0.3-1.067,0.45-1.683,0.45-1.85c0-0.467-0.35-0.733-1.05-0.8c-0.633-0.067-1.417-0.083-2.35-0.05
				c-1.033,0.034-1.816,0.05-2.35,0.05c-3.333-0.067-5.833-0.067-7.5,0c-0.833,0-1.4,0-1.7,0c-0.5,0.033-1.083,0.1-1.75,0.2
				c-0.733,2-0.833,4.45-0.3,7.35c0.167,1.033,0.3,1.7,0.4,2c0.233,0.8,0.517,1.317,0.85,1.55C2.483-0.1,3.6,0,4.9,0
				C6.9,0,8.867-0.05,10.8-0.15z"/>
			
				<linearGradient id="SVGID_16_" gradientUnits="userSpaceOnUse" x1="-174.2656" y1="-183.8438" x2="-157.6369" y2="-183.8438" gradientTransform="matrix(0.9998 -0.0216 0.0216 0.9998 178.3872 174.4219)">
				<stop  offset="0" style="stop-color:#000000;stop-opacity:0"/>
				<stop  offset="0.6784" style="stop-color:#321916;stop-opacity:0"/>
				<stop  offset="0.6784" style="stop-color:#321916"/>
				<stop  offset="0.7373" style="stop-color:#412A27"/>
				<stop  offset="0.7922" style="stop-color:#56413E"/>
				<stop  offset="0.8431" style="stop-color:#725F5C"/>
				<stop  offset="0.8941" style="stop-color:#938481"/>
				<stop  offset="0.9451" style="stop-color:#BBB0AD"/>
				<stop  offset="0.9922" style="stop-color:#E8E2DE"/>
				<stop  offset="1" style="stop-color:#F0EBE7"/>
			</linearGradient>
			<path style="fill-rule:evenodd;clip-rule:evenodd;fill:url(#SVGID_16_);" d="M10.8-0.15c2.733-0.067,4.784-0.184,6.15-0.35
				c0.1-0.633,0.15-1.033,0.15-1.2c-0.033-0.233-0.15-0.65-0.35-1.25c-0.567-1.633-0.533-3.566,0.1-5.8
				c0.3-1.067,0.45-1.683,0.45-1.85c0-0.467-0.35-0.733-1.05-0.8c-0.633-0.067-1.417-0.083-2.35-0.05
				c-1.033,0.034-1.816,0.05-2.35,0.05c-3.333-0.067-5.833-0.067-7.5,0c-0.833,0-1.4,0-1.7,0c-0.5,0.033-1.083,0.1-1.75,0.2
				c-0.733,2-0.833,4.45-0.3,7.35c0.167,1.033,0.3,1.7,0.4,2c0.233,0.8,0.517,1.317,0.85,1.55C2.483-0.1,3.6,0,4.9,0
				C6.9,0,8.867-0.05,10.8-0.15z"/>
		</g>
	</g>
</symbol>
<symbol  id="flash0.ai_x2F_Layer_1_x2F__x3C_Path_x3E__x5F_3_x5F_0" viewBox="-0.035 -15.5 20.138 15.508">
	<g id="Layer_1_9_">
		<g>
			
				<linearGradient id="SVGID_17_" gradientUnits="userSpaceOnUse" x1="686.5688" y1="624.5908" x2="705.4057" y2="624.5908" gradientTransform="matrix(0.9967 0.0809 -0.0809 0.9967 -633.6348 -686.5479)">
				<stop  offset="0" style="stop-color:#E2EBE9"/>
				<stop  offset="0.0039" style="stop-color:#DDE5E3"/>
				<stop  offset="0.0353" style="stop-color:#B7B8B6"/>
				<stop  offset="0.0706" style="stop-color:#958F8D"/>
				<stop  offset="0.1059" style="stop-color:#776C69"/>
				<stop  offset="0.149" style="stop-color:#5E4E4B"/>
				<stop  offset="0.1922" style="stop-color:#493633"/>
				<stop  offset="0.2431" style="stop-color:#3A2320"/>
				<stop  offset="0.302" style="stop-color:#2E1613"/>
				<stop  offset="0.3765" style="stop-color:#280E0C"/>
				<stop  offset="0.5255" style="stop-color:#260C0A"/>
				<stop  offset="0.6118" style="stop-color:#290F0C"/>
				<stop  offset="0.6784" style="stop-color:#321916"/>
				<stop  offset="0.6784" style="stop-color:#321916;stop-opacity:0"/>
				<stop  offset="1" style="stop-color:#000000;stop-opacity:0"/>
			</linearGradient>
			<path style="fill-rule:evenodd;clip-rule:evenodd;fill:url(#SVGID_17_);" d="M11.65-0.55c0.233,0,1.15,0.117,2.75,0.35
				c1.1,0.167,2.267,0.233,3.5,0.2c0.3-1.1,0.233-2.45-0.2-4.05c-0.267-1.067-0.25-2.034,0.05-2.9c0.167-0.533,0.55-1.433,1.15-2.7
				c0.233-0.6,0.6-1.367,1.1-2.3c0.267-0.667,0.017-1.066-0.75-1.2c-0.667-0.133-1.567-0.233-2.7-0.3
				c-1.433-0.066-2.35-0.117-2.75-0.15c-0.8-0.1-1.933-0.3-3.4-0.6c-1.267-0.267-2.417-0.433-3.45-0.5
				C6.483-14.733,4.733-15,1.7-15.5c-0.534,1.133-0.983,2.633-1.35,4.5C0.017-9.133-0.1-7.533,0-6.2c0.1,1.167,0.183,1.967,0.25,2.4
				c0.167,0.733,0.367,1.233,0.6,1.5C1.983-2,3.433-1.733,5.2-1.5C5.867-1.433,6.95-1.267,8.45-1
				C9.783-0.767,10.85-0.617,11.65-0.55z"/>
			
				<linearGradient id="SVGID_18_" gradientUnits="userSpaceOnUse" x1="686.5688" y1="624.5908" x2="705.4057" y2="624.5908" gradientTransform="matrix(0.9967 0.0809 -0.0809 0.9967 -633.6348 -686.5479)">
				<stop  offset="0" style="stop-color:#000000;stop-opacity:0"/>
				<stop  offset="0.6784" style="stop-color:#321916;stop-opacity:0"/>
				<stop  offset="0.6784" style="stop-color:#321916"/>
				<stop  offset="0.7373" style="stop-color:#412A27"/>
				<stop  offset="0.7922" style="stop-color:#56413E"/>
				<stop  offset="0.8431" style="stop-color:#725F5C"/>
				<stop  offset="0.8941" style="stop-color:#938481"/>
				<stop  offset="0.9451" style="stop-color:#BBB0AD"/>
				<stop  offset="0.9922" style="stop-color:#E8E2DE"/>
				<stop  offset="1" style="stop-color:#F0EBE7"/>
			</linearGradient>
			<path style="fill-rule:evenodd;clip-rule:evenodd;fill:url(#SVGID_18_);" d="M11.65-0.55c0.233,0,1.15,0.117,2.75,0.35
				c1.1,0.167,2.267,0.233,3.5,0.2c0.3-1.1,0.233-2.45-0.2-4.05c-0.267-1.067-0.25-2.034,0.05-2.9c0.167-0.533,0.55-1.433,1.15-2.7
				c0.233-0.6,0.6-1.367,1.1-2.3c0.267-0.667,0.017-1.066-0.75-1.2c-0.667-0.133-1.567-0.233-2.7-0.3
				c-1.433-0.066-2.35-0.117-2.75-0.15c-0.8-0.1-1.933-0.3-3.4-0.6c-1.267-0.267-2.417-0.433-3.45-0.5
				C6.483-14.733,4.733-15,1.7-15.5c-0.534,1.133-0.983,2.633-1.35,4.5C0.017-9.133-0.1-7.533,0-6.2c0.1,1.167,0.183,1.967,0.25,2.4
				c0.167,0.733,0.367,1.233,0.6,1.5C1.983-2,3.433-1.733,5.2-1.5C5.867-1.433,6.95-1.267,8.45-1
				C9.783-0.767,10.85-0.617,11.65-0.55z"/>
		</g>
	</g>
</symbol>
<symbol  id="flash0.ai_x2F_Layer_1_x2F__x3C_Path_x3E__x5F_3_x5F_1" viewBox="0 -13.65 1.6 13.65">
	<g id="Layer_1_15_">
		<linearGradient id="SVGID_19_" gradientUnits="userSpaceOnUse" x1="-5.1182" y1="-7.0474" x2="10.9068" y2="-6.4474">
			<stop  offset="0" style="stop-color:#260C0A"/>
			<stop  offset="0.0157" style="stop-color:#2C120E"/>
			<stop  offset="0.1804" style="stop-color:#674B3F"/>
			<stop  offset="0.3216" style="stop-color:#917462"/>
			<stop  offset="0.4314" style="stop-color:#AB8E78"/>
			<stop  offset="0.498" style="stop-color:#B59780"/>
			<stop  offset="0.5647" style="stop-color:#AD9079"/>
			<stop  offset="0.6667" style="stop-color:#987C68"/>
			<stop  offset="0.7922" style="stop-color:#745C4C"/>
			<stop  offset="0.9333" style="stop-color:#433024"/>
			<stop  offset="1" style="stop-color:#2A1910"/>
		</linearGradient>
		<path style="fill-rule:evenodd;clip-rule:evenodd;fill:url(#SVGID_19_);" d="M0.05-13.65c-0.066,3-0.066,5.333,0,7
			C0.183-3.717,0.7-1.5,1.6,0C1.333-0.933,1.167-2.2,1.1-3.8L0.85-8.45C0.717-9.85,0.45-11.583,0.05-13.65z"/>
	</g>
</symbol>
<symbol  id="flash0.ai_x2F_Layer_1_x2F__x3C_Path_x3E__x5F_3_x5F_2" viewBox="0.02 -22.3 3.109 22.3">
	<g id="Layer_1_21_">
		<path style="fill-rule:evenodd;clip-rule:evenodd;fill:#4EAA95;" d="M3-9.5c0.233-1.333,0.15-2.917-0.25-4.75
			c-0.067-0.267-0.467-1.6-1.2-4c-0.504-1.576-0.771-2.925-0.8-4.05v2.9c0.033,0.7,0.233,1.6,0.6,2.7c0.433,1.3,0.683,2.2,0.75,2.7
			c0.267,1.567,0.183,3.45-0.25,5.65c-0.133,0.567-0.45,1.567-0.95,3C0.467-4.083,0.2-3.067,0.1-2.3C-0.033-1.233,0-0.467,0.2,0
			c0.1-1.967,0.55-3.883,1.35-5.75c0.167-0.4,0.45-1,0.85-1.8C2.733-8.283,2.933-8.933,3-9.5z"/>
	</g>
</symbol>
<symbol  id="flash0.ai_x2F_Layer_1_x2F__x3C_Path_x3E__x5F_4" viewBox="0.044 -11.65 30.578 11.65">
	<g id="Layer_1_2_">
		
			<linearGradient id="SVGID_20_" gradientUnits="userSpaceOnUse" x1="-173.4912" y1="-183.0757" x2="-148.9856" y2="-183.0757" gradientTransform="matrix(0.9998 -0.0215 0.0215 0.9998 177.6421 173.709)">
			<stop  offset="0" style="stop-color:#E2EBE9"/>
			<stop  offset="0.0039" style="stop-color:#DDE5E3"/>
			<stop  offset="0.0353" style="stop-color:#B7B8B6"/>
			<stop  offset="0.0706" style="stop-color:#958F8D"/>
			<stop  offset="0.1059" style="stop-color:#776C69"/>
			<stop  offset="0.149" style="stop-color:#5E4E4B"/>
			<stop  offset="0.1922" style="stop-color:#493633"/>
			<stop  offset="0.2431" style="stop-color:#3A2320"/>
			<stop  offset="0.302" style="stop-color:#2E1613"/>
			<stop  offset="0.3765" style="stop-color:#280E0C"/>
			<stop  offset="0.5255" style="stop-color:#260C0A"/>
			<stop  offset="0.5882" style="stop-color:#39211E"/>
			<stop  offset="0.7098" style="stop-color:#6A5754"/>
			<stop  offset="0.7098" style="stop-color:#6A5754;stop-opacity:0"/>
			<stop  offset="1" style="stop-color:#000000;stop-opacity:0"/>
		</linearGradient>
		<path style="fill-rule:evenodd;clip-rule:evenodd;fill:url(#SVGID_20_);" d="M22.8-9.25c1.133-0.367,3.7-1.1,7.7-2.2
			c0.567-0.2-0.85-0.25-4.25-0.15c-4.067,0.133-6.317,0.184-6.75,0.15c-0.733-0.066-1.667-0.083-2.8-0.05
			c-1.267,0.033-2.217,0.05-2.85,0.05c-4.967,0-7.95,0.017-8.95,0.05s-1.683,0.05-2.05,0.05c-0.633,0.033-1.333,0.1-2.1,0.2
			c-0.433,0.933-0.667,2.133-0.7,3.6C0.017-6.25,0.117-5,0.35-3.8l0.45,2c0.3,0.733,0.65,1.25,1.05,1.55C2.75-0.083,4.083,0,5.85,0
			c0.066,0,2.4-0.05,7-0.15c2.867-0.133,4.816-0.25,5.85-0.35c0-0.067,0.017-0.917,0.05-2.55c0-1.367,0.217-2.5,0.65-3.4
			C20.033-7.783,21.167-8.717,22.8-9.25z"/>
		
			<linearGradient id="SVGID_21_" gradientUnits="userSpaceOnUse" x1="-173.4912" y1="-183.0757" x2="-148.9856" y2="-183.0757" gradientTransform="matrix(0.9998 -0.0215 0.0215 0.9998 177.6421 173.709)">
			<stop  offset="0" style="stop-color:#000000;stop-opacity:0"/>
			<stop  offset="0.7098" style="stop-color:#6A5754;stop-opacity:0"/>
			<stop  offset="0.7098" style="stop-color:#6A5754"/>
			<stop  offset="0.8824" style="stop-color:#B8ADAA"/>
			<stop  offset="1" style="stop-color:#F0EBE7"/>
		</linearGradient>
		<path style="fill-rule:evenodd;clip-rule:evenodd;fill:url(#SVGID_21_);" d="M22.8-9.25c1.133-0.367,3.7-1.1,7.7-2.2
			c0.567-0.2-0.85-0.25-4.25-0.15c-4.067,0.133-6.317,0.184-6.75,0.15c-0.733-0.066-1.667-0.083-2.8-0.05
			c-1.267,0.033-2.217,0.05-2.85,0.05c-4.967,0-7.95,0.017-8.95,0.05s-1.683,0.05-2.05,0.05c-0.633,0.033-1.333,0.1-2.1,0.2
			c-0.433,0.933-0.667,2.133-0.7,3.6C0.017-6.25,0.117-5,0.35-3.8l0.45,2c0.3,0.733,0.65,1.25,1.05,1.55C2.75-0.083,4.083,0,5.85,0
			c0.066,0,2.4-0.05,7-0.15c2.867-0.133,4.816-0.25,5.85-0.35c0-0.067,0.017-0.917,0.05-2.55c0-1.367,0.217-2.5,0.65-3.4
			C20.033-7.783,21.167-8.717,22.8-9.25z"/>
	</g>
</symbol>
<symbol  id="flash0.ai_x2F_Layer_1_x2F__x3C_Path_x3E__x5F_4_x5F_0" viewBox="-0.029 -14.325 17.731 14.331">
	<g id="Layer_1_8_">
		<g>
			
				<linearGradient id="SVGID_22_" gradientUnits="userSpaceOnUse" x1="685.6885" y1="624.5449" x2="702.3184" y2="624.5449" gradientTransform="matrix(0.9967 0.0808 -0.0808 0.9967 -632.9268 -685.7168)">
				<stop  offset="0" style="stop-color:#E2EBE9"/>
				<stop  offset="0.0039" style="stop-color:#DDE5E3"/>
				<stop  offset="0.0353" style="stop-color:#B7B8B6"/>
				<stop  offset="0.0706" style="stop-color:#958F8D"/>
				<stop  offset="0.1059" style="stop-color:#776C69"/>
				<stop  offset="0.149" style="stop-color:#5E4E4B"/>
				<stop  offset="0.1922" style="stop-color:#493633"/>
				<stop  offset="0.2431" style="stop-color:#3A2320"/>
				<stop  offset="0.302" style="stop-color:#2E1613"/>
				<stop  offset="0.3765" style="stop-color:#280E0C"/>
				<stop  offset="0.5255" style="stop-color:#260C0A"/>
				<stop  offset="0.6118" style="stop-color:#290F0C"/>
				<stop  offset="0.6784" style="stop-color:#321916"/>
				<stop  offset="0.6784" style="stop-color:#321916;stop-opacity:0"/>
				<stop  offset="1" style="stop-color:#000000;stop-opacity:0"/>
			</linearGradient>
			<path style="fill-rule:evenodd;clip-rule:evenodd;fill:url(#SVGID_22_);" d="M16.2,0c0.2-0.7,0.3-1.167,0.3-1.4
				c0-0.267-0.067-0.767-0.2-1.5c-0.4-1.934-0.15-4.184,0.75-6.75c0.4-1.2,0.617-1.9,0.65-2.1c0.033-0.5-0.284-0.833-0.95-1
				c-0.633-0.133-1.417-0.25-2.35-0.35c-1.533-0.167-2.316-0.25-2.35-0.25c-3.4-0.4-5.883-0.667-7.45-0.8
				c-0.833-0.1-1.417-0.15-1.75-0.15c-0.434-0.034-1.017-0.034-1.75,0c-0.434,1.066-0.75,2.433-0.95,4.1
				C-0.017-8.7-0.067-7.233,0-5.8l0.2,2.4c0.133,0.867,0.367,1.5,0.7,1.9c0.934,0.333,2.033,0.567,3.3,0.7
				c2.6,0.267,4.55,0.433,5.85,0.5C12.717-0.067,14.767,0.033,16.2,0z"/>
			
				<linearGradient id="SVGID_23_" gradientUnits="userSpaceOnUse" x1="685.6885" y1="624.5449" x2="702.3184" y2="624.5449" gradientTransform="matrix(0.9967 0.0808 -0.0808 0.9967 -632.9268 -685.7168)">
				<stop  offset="0" style="stop-color:#000000;stop-opacity:0"/>
				<stop  offset="0.6784" style="stop-color:#321916;stop-opacity:0"/>
				<stop  offset="0.6784" style="stop-color:#321916"/>
				<stop  offset="0.7373" style="stop-color:#412A27"/>
				<stop  offset="0.7922" style="stop-color:#56413E"/>
				<stop  offset="0.8431" style="stop-color:#725F5C"/>
				<stop  offset="0.8941" style="stop-color:#938481"/>
				<stop  offset="0.9451" style="stop-color:#BBB0AD"/>
				<stop  offset="0.9922" style="stop-color:#E8E2DE"/>
				<stop  offset="1" style="stop-color:#F0EBE7"/>
			</linearGradient>
			<path style="fill-rule:evenodd;clip-rule:evenodd;fill:url(#SVGID_23_);" d="M16.2,0c0.2-0.7,0.3-1.167,0.3-1.4
				c0-0.267-0.067-0.767-0.2-1.5c-0.4-1.934-0.15-4.184,0.75-6.75c0.4-1.2,0.617-1.9,0.65-2.1c0.033-0.5-0.284-0.833-0.95-1
				c-0.633-0.133-1.417-0.25-2.35-0.35c-1.533-0.167-2.316-0.25-2.35-0.25c-3.4-0.4-5.883-0.667-7.45-0.8
				c-0.833-0.1-1.417-0.15-1.75-0.15c-0.434-0.034-1.017-0.034-1.75,0c-0.434,1.066-0.75,2.433-0.95,4.1
				C-0.017-8.7-0.067-7.233,0-5.8l0.2,2.4c0.133,0.867,0.367,1.5,0.7,1.9c0.934,0.333,2.033,0.567,3.3,0.7
				c2.6,0.267,4.55,0.433,5.85,0.5C12.717-0.067,14.767,0.033,16.2,0z"/>
		</g>
	</g>
</symbol>
<symbol  id="flash0.ai_x2F_Layer_1_x2F__x3C_Path_x3E__x5F_5" viewBox="0.02 -14.475 31.002 14.475">
	<g id="Layer_1_7_">
		
			<linearGradient id="SVGID_24_" gradientUnits="userSpaceOnUse" x1="685.2642" y1="623.9268" x2="709.7689" y2="623.9268" gradientTransform="matrix(0.9967 0.0807 -0.0807 0.9967 -632.4668 -685.1772)">
			<stop  offset="0" style="stop-color:#E2EBE9"/>
			<stop  offset="0.0039" style="stop-color:#DDE5E3"/>
			<stop  offset="0.0353" style="stop-color:#B7B8B6"/>
			<stop  offset="0.0706" style="stop-color:#958F8D"/>
			<stop  offset="0.1059" style="stop-color:#776C69"/>
			<stop  offset="0.149" style="stop-color:#5E4E4B"/>
			<stop  offset="0.1922" style="stop-color:#493633"/>
			<stop  offset="0.2431" style="stop-color:#3A2320"/>
			<stop  offset="0.302" style="stop-color:#2E1613"/>
			<stop  offset="0.3765" style="stop-color:#280E0C"/>
			<stop  offset="0.5255" style="stop-color:#260C0A"/>
			<stop  offset="0.5882" style="stop-color:#39211E"/>
			<stop  offset="0.7098" style="stop-color:#6A5754"/>
			<stop  offset="0.7098" style="stop-color:#6A5754;stop-opacity:0"/>
			<stop  offset="1" style="stop-color:#000000;stop-opacity:0"/>
		</linearGradient>
		<path style="fill-rule:evenodd;clip-rule:evenodd;fill:url(#SVGID_24_);" d="M23-9.7c1.167-0.3,3.8-0.867,7.9-1.7
			c0.567-0.167-0.833-0.383-4.2-0.65c-4.167-0.333-6.417-0.534-6.75-0.6c-0.767-0.133-1.7-0.267-2.8-0.4
			c-1.233-0.1-2.167-0.184-2.8-0.25c-4.1-0.467-7.067-0.784-8.9-0.95c-1-0.1-1.684-0.167-2.05-0.2c-0.6-0.033-1.3-0.033-2.1,0
			c-0.533,1.067-0.9,2.434-1.1,4.1c-0.2,1.533-0.233,3-0.1,4.4c0.1,1.3,0.183,2.1,0.25,2.4c0.133,0.9,0.4,1.533,0.8,1.9
			c1.1,0.367,2.434,0.617,4,0.75c0.8,0.1,3.133,0.316,7,0.65C14.483-0.083,16.417,0,17.95,0c0.033-0.1,0.133-1.1,0.3-3
			c0.167-1.567,0.517-2.85,1.05-3.85C20.067-8.317,21.3-9.267,23-9.7z"/>
		
			<linearGradient id="SVGID_25_" gradientUnits="userSpaceOnUse" x1="685.2642" y1="623.9268" x2="709.7689" y2="623.9268" gradientTransform="matrix(0.9967 0.0807 -0.0807 0.9967 -632.4668 -685.1772)">
			<stop  offset="0" style="stop-color:#000000;stop-opacity:0"/>
			<stop  offset="0.7098" style="stop-color:#6A5754;stop-opacity:0"/>
			<stop  offset="0.7098" style="stop-color:#6A5754"/>
			<stop  offset="0.8824" style="stop-color:#B8ADAA"/>
			<stop  offset="1" style="stop-color:#F0EBE7"/>
		</linearGradient>
		<path style="fill-rule:evenodd;clip-rule:evenodd;fill:url(#SVGID_25_);" d="M23-9.7c1.167-0.3,3.8-0.867,7.9-1.7
			c0.567-0.167-0.833-0.383-4.2-0.65c-4.167-0.333-6.417-0.534-6.75-0.6c-0.767-0.133-1.7-0.267-2.8-0.4
			c-1.233-0.1-2.167-0.184-2.8-0.25c-4.1-0.467-7.067-0.784-8.9-0.95c-1-0.1-1.684-0.167-2.05-0.2c-0.6-0.033-1.3-0.033-2.1,0
			c-0.533,1.067-0.9,2.434-1.1,4.1c-0.2,1.533-0.233,3-0.1,4.4c0.1,1.3,0.183,2.1,0.25,2.4c0.133,0.9,0.4,1.533,0.8,1.9
			c1.1,0.367,2.434,0.617,4,0.75c0.8,0.1,3.133,0.316,7,0.65C14.483-0.083,16.417,0,17.95,0c0.033-0.1,0.133-1.1,0.3-3
			c0.167-1.567,0.517-2.85,1.05-3.85C20.067-8.317,21.3-9.267,23-9.7z"/>
	</g>
</symbol>
<symbol  id="flash0.ai_x2F_Layer_1_x2F__x3C_Path_x3E__x5F_6" viewBox="0.053 -18.3 1.486 18.25">
	<g id="Layer_1_18_">
		<path style="fill-rule:evenodd;clip-rule:evenodd;fill:#53DCC1;" d="M1.4-18.3c-0.133,2.033-0.267,3.517-0.4,4.45
			c-0.167,0.967-0.317,1.817-0.45,2.55C0.117-8.6-0.033-4.85,0.1-0.05c0.433-1.434,0.6-2.967,0.5-4.6c-0.1-1.8-0.1-2.967,0-3.5
			C1.467-12.717,1.733-16.1,1.4-18.3z"/>
	</g>
</symbol>
<symbol  id="flash0.ai_x2F_Layer_1_x2F__x3C_Path_x3E__x5F_6_x5F_0" viewBox="0 -52.3 3.75 52.25">
	<g id="Layer_1_20_">
		<path style="fill-rule:evenodd;clip-rule:evenodd;fill:#D4DDB4;" d="M0.5-46.45c-0.067,1.333,0,2.95,0.2,4.85
			c0.267,2.167,0.45,3.8,0.55,4.9c0.167,2.333,0.05,5.317-0.35,8.95c-0.533,4.8-0.833,7.8-0.9,9C0.4-6.583,0.6-0.35,0.6-0.05h3.15
			V-52.3H0.6C0.6-49.7,0.567-47.75,0.5-46.45z"/>
	</g>
</symbol>
<symbol  id="flash0.ai_x2F_Layer_1_x2F__x3C_Path_x3E__x5F_7" viewBox="0.05 -52.35 3.6 52.35">
	<g id="Layer_1_14_">
		<path style="fill-rule:evenodd;clip-rule:evenodd;fill:#D4DDB4;" d="M0.2-19.1c-0.2,4.067-0.2,6.967,0,8.7l0.7,6.9
			c0,0.133-0.017,1.3-0.05,3.5h2.8v-52.35H0.8c-0.1,3.1-0.117,5.4-0.05,6.9c0.067,1.867,0.333,4.6,0.8,8.2
			c0.067,0.467,0.067,1.117,0,1.95c-0.066,0.966-0.1,1.633-0.1,2c0,0.9-0.133,2.417-0.4,4.55C0.75-26.65,0.467-23.433,0.2-19.1z"/>
	</g>
</symbol>
<symbol  id="flash0.ai_x2F_Layer_1_x2F__x3C_Path_x3E__x5F_7_x5F_0" viewBox="-0.017 -52.75 6.467 52.75">
	<g id="Layer_1_19_">
		<linearGradient id="SVGID_26_" gradientUnits="userSpaceOnUse" x1="0.0498" y1="-26.375" x2="7.3498" y2="-26.375">
			<stop  offset="0" style="stop-color:#260C0A"/>
			<stop  offset="0.102" style="stop-color:#2B120F"/>
			<stop  offset="0.2314" style="stop-color:#39211F"/>
			<stop  offset="0.3765" style="stop-color:#503B39"/>
			<stop  offset="0.5294" style="stop-color:#71605D"/>
			<stop  offset="0.6941" style="stop-color:#9A8E8C"/>
			<stop  offset="0.8667" style="stop-color:#CCC6C5"/>
			<stop  offset="1" style="stop-color:#F9F8F7"/>
		</linearGradient>
		<path style="fill-rule:evenodd;clip-rule:evenodd;fill:url(#SVGID_26_);" d="M0.65-0.2L6.35,0c0.133-3.4-0.133-6.283-0.8-8.65
			C5.383-9.317,5.267-10.167,5.2-11.2c-0.067-0.633-0.15-1.75-0.25-3.35c-0.067-1.1-0.167-2.417-0.3-3.95
			c-0.066-1.233-0.033-2.55,0.1-3.95c0.4-3.966,0.6-7.933,0.6-11.9c0-1.066-0.1-2.617-0.3-4.65c-0.033-0.567,0.067-1.3,0.3-2.2
			c0.267-1.167,0.417-1.883,0.45-2.15c0.167-1.066,0.284-2.7,0.35-4.9c0.033-0.133,0.067-0.933,0.1-2.4c0.033-1.4,0.1-2.1,0.2-2.1
			L0.6-52.5c0.033,2.3-0.017,4.717-0.15,7.25c-0.167,2.9-0.3,5.217-0.4,6.95c-0.133,3.5-0.066,6.716,0.2,9.65
			c0.367,3.6,0.45,6.633,0.25,9.1c-0.3,3.533-0.383,6.35-0.25,8.45C0.45-4.967,0.583-1.333,0.65-0.2z"/>
	</g>
</symbol>
<symbol  id="flash0.ai_x2F_Layer_1_x2F__x3C_Path_x3E__x5F_8" viewBox="0.01 -52.75 7.294 52.75">
	<g id="Layer_1_13_">
		<linearGradient id="SVGID_27_" gradientUnits="userSpaceOnUse" x1="-1.4873" y1="-26.375" x2="7.9877" y2="-26.375">
			<stop  offset="0" style="stop-color:#260C0A"/>
			<stop  offset="0.102" style="stop-color:#2B120F"/>
			<stop  offset="0.2314" style="stop-color:#39211F"/>
			<stop  offset="0.3765" style="stop-color:#503B39"/>
			<stop  offset="0.5294" style="stop-color:#71605D"/>
			<stop  offset="0.6941" style="stop-color:#9A8E8C"/>
			<stop  offset="0.8667" style="stop-color:#CCC6C5"/>
			<stop  offset="1" style="stop-color:#F9F8F7"/>
		</linearGradient>
		<path style="fill-rule:evenodd;clip-rule:evenodd;fill:url(#SVGID_27_);" d="M0.7-0.2L6.6,0C6.567-0.467,6.65-2.1,6.85-4.9
			c0.233-3.5,0.383-6.9,0.45-10.2c0.034-1.433-0.15-4.517-0.55-9.25c-0.333-4.333-0.433-7.417-0.3-9.25
			c0.267-2.566,0.316-8.95,0.15-19.15L0.75-52.5C0.717-51,0.733-48.767,0.8-45.8c0.034,1.2-0.05,2.716-0.25,4.55
			c-0.3,2.567-0.466,4.1-0.5,4.6c-0.066,1.033-0.05,2.233,0.05,3.6c0.167,1.6,0.267,2.816,0.3,3.65c0.033,0.6-0.033,1.583-0.2,2.95
			c-0.167,1.267-0.217,2.25-0.15,2.95c0.133,1.267,0.217,2.2,0.25,2.8c0.067,1.067,0.05,2.017-0.05,2.85
			c-0.1,0.9-0.133,1.95-0.1,3.15c0.067,1.4,0.1,2.467,0.1,3.2C0.283-10.833,0.4-8.783,0.6-5.35C0.7-3.383,0.733-1.667,0.7-0.2z"/>
	</g>
</symbol>
<symbol  id="flash0.ai_x2F_Layer_1_x2F__x3C_Path_x3E__x5F_9" viewBox="0.023 -14.3 1.334 14.318">
	<g id="Layer_1_24_">
		<path style="fill-rule:evenodd;clip-rule:evenodd;fill:#4FAACF;" d="M1.25-14.3c-0.333,0.4-0.617,1.066-0.85,2
			c-0.467,1.867-0.5,4.15-0.1,6.85C0.567-3.783,0.75-2.567,0.85-1.8c0.2,1.333,0.333,1.933,0.4,1.8C1.483-0.467,1.333-3.25,0.8-8.35
			C0.5-10.917,0.65-12.9,1.25-14.3z"/>
	</g>
</symbol>
<symbol  id="flash0.ai_x2F_Layer_1_x2F__x3C_Path_x3E__x5F_9_x5F_0" viewBox="-0.092 -8.278 2.673 8.481">
	<g id="Layer_1_28_">
		<path style="fill-rule:evenodd;clip-rule:evenodd;fill:#4EAA95;" d="M2.3-1.65c0.5-2.167,0.333-4.067-0.5-5.7
			C1-8.917,0.433-8.5,0.1-6.1c-0.333,2.367-0.233,4.117,0.3,5.25C1.167,0.783,1.8,0.517,2.3-1.65z"/>
	</g>
</symbol>
<g>
	
		<linearGradient id="SVGID_28_" gradientUnits="userSpaceOnUse" x1="-55.8711" y1="36.166" x2="-47.1948" y2="36.166" gradientTransform="matrix(-0.0173 -0.9999 0.9999 -0.0173 1.835413e-004 1.158863e-004)">
		<stop  offset="0.0118" style="stop-color:#86A5D9"/>
		<stop  offset="1" style="stop-color:#022B3E"/>
	</linearGradient>
	<path style="fill-rule:evenodd;clip-rule:evenodd;fill:url(#SVGID_28_);" d="M35.75,49.25c-0.066-0.366-0.134-0.684-0.2-0.95
		C35.384,47.833,35.2,47.733,35,48c-0.133,0.167-0.2,0.467-0.2,0.9c-0.033,0.433-0.1,0.733-0.2,0.899
		c-0.133,0.233-0.25,0.167-0.35-0.2c-0.067-0.267-0.1-0.533-0.1-0.8c-0.066-0.666-0.25-1.133-0.55-1.399
		c-0.267-0.2-0.75-0.4-1.45-0.601c0.533-0.166,1.417-0.25,2.65-0.25c0.566-0.033,1.45-0.149,2.65-0.35
		c0.399-0.033,1.133-0.117,2.2-0.25c0.966-0.101,1.683-0.05,2.149,0.149c-1.5,0.434-2.6,0.851-3.3,1.25
		c-0.634,0.4-1.05,1.233-1.25,2.5c-0.167,0.9-0.283,2.267-0.35,4.101l-0.2,1.6c-0.2,0.7-0.384,0.15-0.55-1.649
		C35.983,51.6,35.85,50.05,35.75,49.25z"/>
	
		<linearGradient id="SVGID_29_" gradientUnits="userSpaceOnUse" x1="-50.4141" y1="47.9258" x2="-46.7883" y2="47.9258" gradientTransform="matrix(-0.0207 -0.9998 0.9998 -0.0207 2.093129e-004 6.347820e-004)">
		<stop  offset="0.0118" style="stop-color:#86A5D9"/>
		<stop  offset="1" style="stop-color:#022B3E"/>
	</linearGradient>
	<path style="fill-rule:evenodd;clip-rule:evenodd;fill:url(#SVGID_29_);" d="M49.3,49.3c-0.3-1.2-0.55-1.95-0.75-2.25
		S48,46.5,47.5,46.3c-0.667-0.267-1.066-0.45-1.2-0.55c0.167,0.1,0.884,0.033,2.15-0.2c0.3,0,0.8-0.083,1.5-0.25
		c0.633-0.166,1.133-0.233,1.5-0.2c-0.7,0.4-1.217,1-1.55,1.801C49.7,47.366,49.5,48.167,49.3,49.3z"/>
	
		<linearGradient id="SVGID_30_" gradientUnits="userSpaceOnUse" x1="-23.8354" y1="22.8213" x2="-19.2098" y2="22.8213" gradientTransform="matrix(-0.0162 -0.9999 0.9999 -0.0162 -1.756325e-004 -8.468851e-004)">
		<stop  offset="0.0118" style="stop-color:#68B389"/>
		<stop  offset="1" style="stop-color:#022B3E"/>
	</linearGradient>
	<path style="fill-rule:evenodd;clip-rule:evenodd;fill:url(#SVGID_30_);" d="M25.15,19.7c-0.233-0.434-0.483-0.534-0.75-0.3
		c-0.2,0.167-0.367,0.5-0.5,1c-0.167,0.633-0.283,1-0.35,1.1c-0.033-0.067-0.15-0.633-0.35-1.7c-0.3,0.3-0.6,0.9-0.9,1.8l-0.25,0.75
		c-0.167,0.6-0.233,0.933-0.2,1c-0.1-0.267-0.2-0.733-0.3-1.4c-0.066-0.633-0.183-1.117-0.35-1.45c-0.167-0.4-0.3-0.633-0.4-0.7
		c-0.233-0.267-0.683-0.55-1.35-0.85c0.333-0.567,1.5-0.883,3.5-0.95c1.367-0.033,2.65,0.017,3.85,0.15
		c-0.566,0.367-0.983,1.267-1.25,2.7C25.483,20.417,25.35,20.033,25.15,19.7z"/>
	
		<linearGradient id="SVGID_31_" gradientUnits="userSpaceOnUse" x1="-25.8872" y1="49.7236" x2="-20.0114" y2="49.7236" gradientTransform="matrix(-0.017 -0.9999 0.9999 -0.017 -2.093613e-005 6.362796e-004)">
		<stop  offset="0.0118" style="stop-color:#625AEF"/>
		<stop  offset="1" style="stop-color:#022B3E"/>
	</linearGradient>
	<path style="fill-rule:evenodd;clip-rule:evenodd;fill:url(#SVGID_31_);" d="M45.45,19.75l-1.3-0.65l1.1-0.65
		c0.833-0.267,2-0.367,3.5-0.3c1,0.033,2.5,0.117,4.5,0.25l2.2,0.15c0.5,0.133,0.633,0.417,0.399,0.85
		c-0.1,0.233-0.333,0.583-0.699,1.05c-0.267,0.533-0.483,1.233-0.65,2.1c-0.1,0.5-0.233,1.233-0.4,2.2
		c-0.1-0.167-0.3-0.683-0.6-1.55c-0.233-0.567-0.517-0.95-0.85-1.15c-0.367-0.3-0.601-0.55-0.7-0.75c-0.101-0.2-0.167-0.333-0.2-0.4
		c-0.134-0.167-0.267-0.217-0.4-0.15c-0.133,0.033-0.416,0.317-0.85,0.85c-0.033-0.367-0.116-0.667-0.25-0.9
		c-0.2-0.3-0.434-0.3-0.7,0c-0.2,0.233-0.383,0.6-0.55,1.1c-0.2,0.633-0.35,1.034-0.45,1.2c-0.066-0.133-0.184-0.55-0.35-1.25
		c-0.134-0.6-0.316-0.983-0.55-1.15c-0.367-0.3-0.65,0.217-0.851,1.55c-0.1-0.066-0.184-0.233-0.25-0.5
		c-0.1-0.367-0.166-0.566-0.2-0.6C46.05,20.383,45.75,19.95,45.45,19.75z"/>
	<g>
		<g>
			
				<linearGradient id="SVGID_32_" gradientUnits="userSpaceOnUse" x1="-2.1846" y1="-36.1885" x2="8.796" y2="-36.1885" gradientTransform="matrix(-0.0317 0.9995 -0.9995 -0.0317 8.831546e-004 1.993626e-004)">
				<stop  offset="0" style="stop-color:#022B3E"/>
				<stop  offset="0.4784" style="stop-color:#74C3C5"/>
				<stop  offset="1" style="stop-color:#1F203E"/>
			</linearGradient>
			<path style="fill-rule:evenodd;clip-rule:evenodd;fill:url(#SVGID_32_);" d="M68.25,11.95c-1.434,0.033-2.167,0.1-2.2,0.2
				c-0.033,0.2,1.417,0.5,4.351,0.9c0.033,0.034,0.05,0.15,0.05,0.35c0,0.267,0.05,0.517,0.149,0.75
				c-0.566,2.5-0.933,3.783-1.1,3.85c-0.233,0.133-2.184,0.117-5.85-0.05c-4-0.133-6.684-0.117-8.051,0.05
				c-5,0.667-11.616,0.667-19.85,0c-3.733-0.267-8.883-0.417-15.45-0.45c-7.966,0-12.3-0.017-13-0.05
				c-3.233-0.067-4.933-0.133-5.1-0.2c-0.4-0.1-0.784-0.667-1.15-1.7c-0.233-0.667-0.367-1.617-0.4-2.85
				c0-0.533,0.033-1.817,0.1-3.85c0-0.367,0.1-0.683,0.3-0.95l0.3-0.35c1.1-0.7,6.8-0.85,17.1-0.45C32.25,7.717,39.517,8,40.25,8
				c0.066,0,6.25-0.183,18.55-0.55c7.134-0.233,11.033-0.083,11.7,0.45c0.2,0.167,0.4,0.533,0.6,1.1
				c-0.1,1.033-0.316,2.083-0.649,3.15C70.45,11.983,69.717,11.917,68.25,11.95z"/>
			
				<linearGradient id="SVGID_33_" gradientUnits="userSpaceOnUse" x1="-3.6011" y1="-36.144" x2="18.9606" y2="-36.144" gradientTransform="matrix(-0.0324 0.9995 -0.9995 -0.0324 9.297170e-004 1.809001e-005)">
				<stop  offset="0" style="stop-color:#022B3E"/>
				<stop  offset="0.4784" style="stop-color:#74C3C5"/>
				<stop  offset="1" style="stop-color:#1F203E"/>
			</linearGradient>
			<path style="fill-rule:evenodd;clip-rule:evenodd;fill:url(#SVGID_33_);" d="M40.6,8.75c0.634,0,6.851-0.2,18.65-0.6
				c7.233-0.233,11.167-0.1,11.8,0.4C71.316,8.783,71.267,9.933,70.9,12c-0.167,0.933-0.25,2.383-0.25,4.35
				c-0.034,0.2-0.101,0.75-0.2,1.65c-0.167,0.867-0.4,1.367-0.7,1.5c-0.233,0.1-2.184,0.083-5.85-0.05
				c-3.967-0.167-6.65-0.15-8.051,0.05c-4.966,0.667-11.566,0.667-19.8,0c-3.767-0.3-8.933-0.45-15.5-0.45
				C12.517,19.05,8.2,19.033,7.6,19c-2.033-0.067-3.9-0.117-5.6-0.15c-0.733-0.067-1.117-0.267-1.15-0.6c-0.567-3.2-0.6-6.5-0.1-9.9
				c1.1-0.733,6.967-0.883,17.6-0.45C32.583,8.467,40,8.75,40.6,8.75z"/>
			
				<linearGradient id="SVGID_34_" gradientUnits="userSpaceOnUse" x1="11.3457" y1="-36.2192" x2="18.8499" y2="-36.2192" gradientTransform="matrix(-0.032 0.9995 -0.9995 -0.032 9.456649e-004 -8.657575e-006)">
				<stop  offset="0" style="stop-color:#022B3E"/>
				<stop  offset="0.4784" style="stop-color:#74C3C5"/>
				<stop  offset="1" style="stop-color:#1F203E"/>
			</linearGradient>
			<path style="fill-rule:evenodd;clip-rule:evenodd;fill:url(#SVGID_34_);" d="M70.15,18.1c0.199-0.5,0.333-0.95,0.399-1.35
				c0,1.333-0.233,2.233-0.7,2.7c-0.066,0.2-1.149,0.233-3.25,0.1L62.95,19.4c-1.566-0.066-2.75-0.1-3.55-0.1
				c-1.367,0-2.551,0.067-3.551,0.2c-4.966,0.667-11.566,0.667-19.8,0c-3.767-0.3-8.933-0.45-15.5-0.45
				C12.517,19.05,8.2,19.033,7.6,19l-5.05-0.1c-0.433,0-0.767-0.017-1-0.05c-0.367-0.1-0.617-0.283-0.75-0.55l0.6-0.1
				c0.8-0.067,2.017-0.067,3.65,0c0.934,0.033,2.317,0.017,4.15-0.05l6.9,0.3c1.767,0.133,4.4,0.133,7.9,0
				c2.467-0.133,6.483,0.017,12.05,0.45l10.15,0.7c1.233,0.066,2.95-0.05,5.149-0.35L56.7,18.9c2.1-0.133,3.866-0.217,5.3-0.25
				c0.533-0.033,1.184-0.017,1.95,0.05c0.399,0.066,1.033,0.133,1.899,0.2c0.2,0.033,0.767,0.1,1.7,0.2
				c0.9,0.066,1.601,0.017,2.101-0.15C69.783,18.917,69.95,18.633,70.15,18.1z"/>
			
				<use xlink:href="#flash0.ai_x2F_Layer_1_x2F__x3C_Path_x3E__x5F_4"  width="30.578" height="11.65" x="0.044" y="-11.65" transform="matrix(1 0 0 -1 1.8501 7.6001)" style="overflow:visible;opacity:0.4414;enable-background:new    ;"/>
			
				<use xlink:href="#flash0.ai_x2F_Layer_1_x2F__x3C_Path_x3E__x5F_3"  width="17.337" height="11.467" x="-0.037" y="-11.467" transform="matrix(1 0 0 -1 3.0498 7.6001)" style="overflow:visible;opacity:0.4414;enable-background:new    ;"/>
			
				<use xlink:href="#flash0.ai_x2F_Layer_1_x2F__x3C_Path_x3E__x5F_2"  width="19.616" height="11.713" x="-0.004" y="-11.75" transform="matrix(1 0 0 -1 49.9502 8.1001)" style="overflow:visible;opacity:0.4414;enable-background:new    ;"/>
			
				<use xlink:href="#flash0.ai_x2F_Layer_1_x2F__x3C_Path_x3E__x5F_1"  width="16.164" height="11.673" x="-0.014" y="-11.708" transform="matrix(1 0 0 -1 51.7998 8.0498)" style="overflow:visible;opacity:0.4414;enable-background:new    ;"/>
			
				<use xlink:href="#flash0.ai_x2F_Layer_1_x2F__x3C_Path_x3E_"  width="27.25" height="0.945" y="-0.945" transform="matrix(1 0 0 -1 22.6499 8.1001)" style="overflow:visible;enable-background:new    ;"/>
		</g>
	</g>
	<g>
		<g>
			
				<linearGradient id="SVGID_35_" gradientUnits="userSpaceOnUse" x1="24.7456" y1="-32.4795" x2="37.953" y2="-32.4795" gradientTransform="matrix(0.07 0.9975 -0.9975 0.07 -2.553985e-004 -2.283752e-004)">
				<stop  offset="0" style="stop-color:#022B3E"/>
				<stop  offset="0.4784" style="stop-color:#74C3C5"/>
				<stop  offset="1" style="stop-color:#1F203E"/>
			</linearGradient>
			<path style="fill-rule:evenodd;clip-rule:evenodd;fill:url(#SVGID_35_);" d="M69.35,41.25c-0.233,0.167-2.166,0.366-5.8,0.6
				c-3.967,0.267-6.633,0.584-8,0.95c-4.733,1.334-11.316,2.084-19.75,2.25c-3.767,0.101-8.9,0.517-15.4,1.25
				c-8.233,0.934-12.533,1.417-12.9,1.45c-3.267,0.233-4.983,0.333-5.15,0.3c-0.4-0.066-0.833-0.684-1.3-1.85
				c-0.3-0.733-0.533-1.834-0.7-3.3C0.317,42.533,0.2,41.033,0,38.4c-0.033-0.4,0.05-0.784,0.25-1.15l0.25-0.4
				c1.033-0.966,6.683-1.8,16.95-2.5c14.167-0.933,21.416-1.416,21.75-1.449c3.566-0.434,9.684-1.367,18.35-2.801
				c7.101-1.066,11-1.333,11.7-0.8c0.3,0.233,0.533,0.634,0.7,1.2c0.033,1.233-0.05,2.483-0.25,3.75c-0.033-0.2-0.767-0.2-2.2,0
				c-1.467,0.233-2.2,0.417-2.2,0.55c0,0.233,1.483,0.417,4.45,0.55c0.066,0.101,0.15,0.517,0.25,1.25
				C69.8,39.533,69.583,41.083,69.35,41.25z"/>
			
				<linearGradient id="SVGID_36_" gradientUnits="userSpaceOnUse" x1="23.0293" y1="-32.4873" x2="50.0961" y2="-32.4873" gradientTransform="matrix(0.07 0.9975 -0.9975 0.07 3.795475e-004 -2.051890e-004)">
				<stop  offset="0" style="stop-color:#022B3E"/>
				<stop  offset="0.4784" style="stop-color:#74C3C5"/>
				<stop  offset="1" style="stop-color:#1F203E"/>
			</linearGradient>
			<path style="fill-rule:evenodd;clip-rule:evenodd;fill:url(#SVGID_36_);" d="M58.1,30.85c7.167-1.1,11.101-1.366,11.801-0.8
				c0.333,0.233,0.399,1.566,0.199,4c-0.033,1.134,0.034,2.834,0.2,5.101c0,0.267,0,0.933,0,2c-0.033,1-0.2,1.6-0.5,1.8
				c-0.233,0.166-2.166,0.366-5.8,0.6c-4,0.267-6.684,0.584-8.05,0.95c-4.733,1.333-11.3,2.083-19.7,2.25
				c-3.767,0.1-8.917,0.517-15.45,1.25c-8.267,0.934-12.566,1.417-12.9,1.45C5.867,49.616,4,49.767,2.3,49.9
				c-0.7,0-1.1-0.2-1.2-0.601c-0.567-2.3-0.917-4.916-1.05-7.85L0,37.75c1.033-0.967,6.833-1.8,17.4-2.5
				c14.467-0.967,21.883-1.467,22.25-1.5C43.217,33.316,49.366,32.35,58.1,30.85z"/>
			
				<linearGradient id="SVGID_37_" gradientUnits="userSpaceOnUse" x1="40.4893" y1="-32.4473" x2="50.0132" y2="-32.4473" gradientTransform="matrix(0.0705 0.9975 -0.9975 0.0705 -3.558546e-004 1.889467e-005)">
				<stop  offset="0" style="stop-color:#022B3E"/>
				<stop  offset="0.4784" style="stop-color:#74C3C5"/>
				<stop  offset="1" style="stop-color:#1F203E"/>
			</linearGradient>
			<path style="fill-rule:evenodd;clip-rule:evenodd;fill:url(#SVGID_37_);" d="M46.4,45.7c0.733-0.033,1.583-0.167,2.55-0.4
				c0.533-0.1,1.366-0.283,2.5-0.55c1.166-0.2,2.916-0.55,5.25-1.05c2.1-0.4,3.866-0.7,5.3-0.9c0.866-0.1,2.15-0.149,3.85-0.149
				c0.2,0,0.767,0.017,1.7,0.05c0.934,0,1.634-0.134,2.101-0.4c0.233-0.133,0.449-1.017,0.649-2.649
				c0.101,1.533-0.033,2.6-0.399,3.199c-0.067,0.2-1.15,0.367-3.25,0.5L63,43.6c-3.333,0.2-5.684,0.5-7.05,0.9
				c-4.733,1.333-11.3,2.083-19.7,2.25c-3.767,0.1-8.917,0.517-15.45,1.25c-8.267,0.934-12.566,1.417-12.9,1.45l-5,0.399
				C2.333,49.884,2,49.9,1.9,49.9c-0.4-0.034-0.683-0.217-0.85-0.551l0.6-0.149c0.633-0.167,1.85-0.316,3.65-0.45
				c0.934-0.066,2.317-0.233,4.15-0.5l6.9-0.45c2.033-0.033,4.633-0.333,7.8-0.899c2.6-0.434,6.617-0.717,12.05-0.851
				C39.667,46.017,43.066,45.9,46.4,45.7z"/>
			
				<use xlink:href="#flash0.ai_x2F_Layer_1_x2F__x3C_Path_x3E__x5F_5"  width="31.002" height="14.475" x="0.02" y="-14.475" transform="matrix(1 0 0 -1 1.6499 35.25)" style="overflow:visible;opacity:0.4414;enable-background:new    ;"/>
			
				<use xlink:href="#flash0.ai_x2F_Layer_1_x2F__x3C_Path_x3E__x5F_4_x5F_0"  width="17.731" height="14.331" x="-0.029" y="-14.325" transform="matrix(1 0 0 -1 2.8501 35.2998)" style="overflow:visible;opacity:0.4414;enable-background:new    ;"/>
			
				<use xlink:href="#flash0.ai_x2F_Layer_1_x2F__x3C_Path_x3E__x5F_3_x5F_0"  width="20.138" height="15.508" x="-0.035" y="-15.5" transform="matrix(1 0 0 -1 49.4502 30)" style="overflow:visible;opacity:0.4414;enable-background:new    ;"/>
			
				<use xlink:href="#flash0.ai_x2F_Layer_1_x2F__x3C_Path_x3E__x5F_2_x5F_0"  width="16.657" height="15.155" x="-0.005" y="-15.15" transform="matrix(1 0 0 -1 51.25 29.9502)" style="overflow:visible;opacity:0.4414;enable-background:new    ;"/>
			
				<use xlink:href="#flash0.ai_x2F_Layer_1_x2F__x3C_Path_x3E__x5F_1_x5F_0"  width="27.15" height="2.687" y="-2.687" transform="matrix(1 0 0 -1 21.7002 32.4004)" style="overflow:visible;enable-background:new    ;"/>
			
				<use xlink:href="#flash0.ai_x2F_Layer_1_x2F__x3C_Path_x3E__x5F_0"  width="15.262" height="1.247" y="-1.247" transform="matrix(1 0 0 -1 36.25 38.0996)" style="overflow:visible;opacity:0.4414;enable-background:new    ;"/>
		</g>
	</g>
	<g>
		
			<linearGradient id="SVGID_38_" gradientUnits="userSpaceOnUse" x1="-18.125" y1="-26.3501" x2="-3.8652" y2="-26.3501" gradientTransform="matrix(-1 0 0 -1 0 0)">
			<stop  offset="0" style="stop-color:#022B3E"/>
			<stop  offset="0.4784" style="stop-color:#74C3C5"/>
			<stop  offset="1" style="stop-color:#1F203E"/>
		</linearGradient>
		<path style="fill-rule:evenodd;clip-rule:evenodd;fill:url(#SVGID_38_);" d="M17.05,24.05c0.167,1.1,0.25,2.55,0.25,4.351
			c0,2.399,0.017,3.833,0.05,4.3c0.033,0.666,0.017,1.899-0.05,3.7c-0.066,1.533-0.033,2.733,0.1,3.6c0.033,0.2,0.133,0.833,0.3,1.9
			c0.133,0.767,0.2,1.399,0.2,1.899c0,1.934,0.083,4.834,0.25,8.7H4.65c-0.033-0.634,0.033-1.833,0.2-3.6
			c0.133-1.534,0.117-2.733-0.05-3.601c-0.466-2.1-0.7-4.35-0.7-6.75c0-0.399-0.05-1.133-0.15-2.2c-0.067-0.933-0.067-1.683,0-2.25
			c0.133-1,0.233-1.767,0.3-2.3c0.1-0.899,0.133-1.666,0.1-2.3l-0.1-4.75c0-4.3-0.067-8.167-0.2-11.6c-0.033-0.6,0.05-2.9,0.25-6.9
			C4.467,2.217,4.583,0.2,4.65,0.2h13.5c0.033,0-0.017,1.75-0.15,5.25c-0.133,2.833-0.317,4.95-0.55,6.35
			c-0.1,0.567-0.267,2.2-0.5,4.9C16.65,19.3,16.683,21.75,17.05,24.05z"/>
		
			<use xlink:href="#flash0.ai_x2F_Layer_1_x2F__x3C_Clip_Group_0_x3E_"  width="14.175" height="52.75" x="0.025" y="-52.75" transform="matrix(1 0 0 -1 4.1001 0)" style="overflow:visible;"/>
	</g>
	<g>
		
			<linearGradient id="SVGID_39_" gradientUnits="userSpaceOnUse" x1="-67.6499" y1="-26.4497" x2="-53.7499" y2="-26.4497" gradientTransform="matrix(-1 0 0 -1 0 0)">
			<stop  offset="0" style="stop-color:#022B3E"/>
			<stop  offset="0.4784" style="stop-color:#74C3C5"/>
			<stop  offset="1" style="stop-color:#1F203E"/>
		</linearGradient>
		<path style="fill-rule:evenodd;clip-rule:evenodd;fill:url(#SVGID_39_);" d="M66.5,20.2c0.033,2.033,0.15,4.3,0.35,6.8
			c0.134,1.434,0.334,3.684,0.601,6.75c0.1,1.2,0.1,2.833,0,4.9c-0.101,2.533-0.15,4.166-0.15,4.899c0,0.667,0.084,2.167,0.25,4.5
			c0.134,1.867,0.167,3.384,0.101,4.55l-1.7-0.05c-0.634,0-4.55,0-11.75,0c0.066-2.967,0.1-5.184,0.1-6.649
			c0-2.634-0.116-4.867-0.35-6.7c-0.267-2.033-0.134-5.217,0.399-9.55c0.5-4.2,0.567-7.4,0.2-9.601c-0.166-0.966-0.25-2.2-0.25-3.7
			c-0.033-1.5-0.133-2.75-0.3-3.75c-0.3-2.067-0.333-4.333-0.1-6.8c0.199-2.1,0.3-3.933,0.3-5.5H67.6
			c0.034,0.2,0.017,1.35-0.05,3.45c-0.1,2.133-0.166,3.333-0.2,3.6L66.95,11.4C66.65,13.533,66.5,16.467,66.5,20.2z"/>
		
			<use xlink:href="#flash0.ai_x2F_Layer_1_x2F__x3C_Clip_Group_0_x3E__x5F_0"  width="14.98" height="52.75" x="0.02" y="-52.75" transform="matrix(1 0 0 -1 53.3496 0.0498)" style="overflow:visible;"/>
	</g>
	
		<linearGradient id="SVGID_40_" gradientUnits="userSpaceOnUse" x1="-47.0708" y1="17.1367" x2="-42.7291" y2="17.1367" gradientTransform="matrix(-0.2303 -0.9731 0.9731 -0.2303 1.375079e-004 3.470182e-004)">
		<stop  offset="0" style="stop-color:#74C3C5"/>
		<stop  offset="1" style="stop-color:#1F203E"/>
	</linearGradient>
	<path style="fill-rule:evenodd;clip-rule:evenodd;fill:url(#SVGID_40_);" d="M27.95,38c2.433-0.066,3.25,0.5,2.45,1.7
		c-0.8,1.2-2.4,1.75-4.8,1.649c-2.233-0.1-2.833-0.683-1.8-1.75C24.8,38.6,26.183,38.066,27.95,38z"/>
	
		<linearGradient id="SVGID_41_" gradientUnits="userSpaceOnUse" x1="-45.0688" y1="28.7705" x2="-42.6066" y2="28.7705" gradientTransform="matrix(-0.2234 -0.9747 0.9747 -0.2234 -2.189875e-004 6.569624e-004)">
		<stop  offset="0" style="stop-color:#74C3C5"/>
		<stop  offset="1" style="stop-color:#1F203E"/>
	</linearGradient>
	<path style="fill-rule:evenodd;clip-rule:evenodd;fill:url(#SVGID_41_);" d="M37.65,37.1c-1.9-0.033-2.483-0.35-1.75-0.949
		c0.733-0.567,1.666-0.867,2.8-0.9c1.033-0.066,1.467,0.233,1.3,0.9C39.8,36.816,39.017,37.134,37.65,37.1z"/>
	
		<linearGradient id="SVGID_42_" gradientUnits="userSpaceOnUse" x1="-48.1299" y1="36.8867" x2="-44.3822" y2="36.8867" gradientTransform="matrix(-0.2268 -0.9739 0.9739 -0.2268 1.215488e-004 7.560849e-004)">
		<stop  offset="0" style="stop-color:#74C3C5"/>
		<stop  offset="1" style="stop-color:#1F203E"/>
	</linearGradient>
	<path style="fill-rule:evenodd;clip-rule:evenodd;fill:url(#SVGID_42_);" d="M47.7,34.25c3-0.033,3.649,0.533,1.95,1.7
		c-1.7,1.166-3.717,1.616-6.051,1.35c-2.1-0.233-2.333-0.8-0.699-1.7C44.434,34.733,46.033,34.283,47.7,34.25z"/>
	
		<use xlink:href="#flash0.ai_x2F_Layer_1_x2F__x3C_Path_x3E__x5F_20"  width="10.3" height="3.558" x="-0.108" y="-3.571" transform="matrix(1 0 0 -1 39.3496 40.6504)" style="overflow:visible;opacity:0.3516;enable-background:new    ;"/>
	
		<linearGradient id="SVGID_43_" gradientUnits="userSpaceOnUse" x1="-44.0093" y1="12.957" x2="-39.9768" y2="12.957" gradientTransform="matrix(-0.2294 -0.9733 0.9733 -0.2294 4.301965e-005 -4.628897e-004)">
		<stop  offset="0" style="stop-color:#74C3C5"/>
		<stop  offset="1" style="stop-color:#1F203E"/>
	</linearGradient>
	<path style="fill-rule:evenodd;clip-rule:evenodd;fill:url(#SVGID_43_);" d="M21.85,35.95c2.267-0.101,3.3,0.366,3.1,1.399
		c-0.2,1.034-1.333,1.467-3.4,1.301c-1.867-0.167-2.6-0.65-2.2-1.45C19.75,36.434,20.583,36.017,21.85,35.95z"/>
	
		<linearGradient id="SVGID_44_" gradientUnits="userSpaceOnUse" x1="-13.1392" y1="57.7314" x2="0.2398" y2="57.7314" gradientTransform="matrix(0.0243 -0.9997 0.9997 0.0243 2.484769e-005 -3.771484e-004)">
		<stop  offset="0" style="stop-color:#74C3C5"/>
		<stop  offset="1" style="stop-color:#1F203E"/>
	</linearGradient>
	<path style="fill-rule:evenodd;clip-rule:evenodd;fill:url(#SVGID_44_);" d="M56.05,3.3c0.467-1.267,1-1.783,1.601-1.55
		c0.566,0.2,1.017,0.917,1.35,2.15c0.934,3.133,0.667,5.817-0.8,8.05c-1.2,1.8-1.983,1.117-2.351-2.05
		C55.483,6.9,55.55,4.7,56.05,3.3z"/>
	
		<linearGradient id="SVGID_45_" gradientUnits="userSpaceOnUse" x1="-3.6528" y1="60.5557" x2="0.0229" y2="60.5557" gradientTransform="matrix(0.0204 -0.9998 0.9998 0.0204 1.022555e-004 3.831387e-004)">
		<stop  offset="0" style="stop-color:#74C3C5"/>
		<stop  offset="1" style="stop-color:#1F203E"/>
	</linearGradient>
	<path style="fill-rule:evenodd;clip-rule:evenodd;fill:url(#SVGID_45_);" d="M59.95,1.8C60.25,1.133,60.6,1.083,61,1.65
		c0.4,0.567,0.4,1.283,0,2.15s-0.75,0.917-1.05,0.15C59.65,3.183,59.65,2.467,59.95,1.8z"/>
	
		<linearGradient id="SVGID_46_" gradientUnits="userSpaceOnUse" x1="-22.6396" y1="64.7471" x2="-13.4869" y2="64.7471" gradientTransform="matrix(0.0246 -0.9997 0.9997 0.0246 -4.176330e-004 2.794638e-004)">
		<stop  offset="0" style="stop-color:#74C3C5"/>
		<stop  offset="1" style="stop-color:#1F203E"/>
	</linearGradient>
	<path style="fill-rule:evenodd;clip-rule:evenodd;fill:url(#SVGID_46_);" d="M63.45,16.8c0.633-2.066,1.2-2.133,1.7-0.2
		c0.533,1.9,0.449,3.717-0.25,5.45c-0.634,1.6-1.15,1.45-1.551-0.45C62.983,19.733,63.017,18.133,63.45,16.8z"/>
	
		<linearGradient id="SVGID_47_" gradientUnits="userSpaceOnUse" x1="-8.0137" y1="65.1611" x2="-3.9125" y2="65.1611" gradientTransform="matrix(0.0244 -0.9997 0.9997 0.0244 0 -3.957823e-004)">
		<stop  offset="0" style="stop-color:#74C3C5"/>
		<stop  offset="1" style="stop-color:#1F203E"/>
	</linearGradient>
	<path style="fill-rule:evenodd;clip-rule:evenodd;fill:url(#SVGID_47_);" d="M64.9,5.9c0.3-0.566,0.517-0.467,0.649,0.3
		c0.134,0.733-0.033,1.517-0.5,2.35c-0.467,0.833-0.684,0.767-0.649-0.2C64.4,7.383,64.566,6.567,64.9,5.9z"/>
	
		<linearGradient id="SVGID_48_" gradientUnits="userSpaceOnUse" x1="-41.2119" y1="62.9395" x2="-26.0079" y2="62.9395" gradientTransform="matrix(0.023 -0.9997 0.9997 0.023 1.741797e-004 7.414073e-005)">
		<stop  offset="0" style="stop-color:#74C3C5"/>
		<stop  offset="1" style="stop-color:#1F203E"/>
	</linearGradient>
	<path style="fill-rule:evenodd;clip-rule:evenodd;fill:url(#SVGID_48_);" d="M61.1,28.85c1.233-2,2.15-1.233,2.75,2.301
		c0.567,3.533,0.184,6.399-1.149,8.6c-1.2,2.1-1.967,1.116-2.3-2.95C60.066,32.733,60.3,30.083,61.1,28.85z"/>
	
		<linearGradient id="SVGID_49_" gradientUnits="userSpaceOnUse" x1="-31.1758" y1="58.752" x2="-27.2495" y2="58.752" gradientTransform="matrix(0.0255 -0.9997 0.9997 0.0255 9.997189e-005 2.190992e-004)">
		<stop  offset="0" style="stop-color:#74C3C5"/>
		<stop  offset="1" style="stop-color:#1F203E"/>
	</linearGradient>
	<path style="fill-rule:evenodd;clip-rule:evenodd;fill:url(#SVGID_49_);" d="M57.7,29.2c0.267-0.601,0.517-0.533,0.75,0.2
		c0.233,0.767,0.149,1.533-0.25,2.3c-0.4,0.733-0.65,0.649-0.75-0.25C57.35,30.55,57.434,29.8,57.7,29.2z"/>
	
		<linearGradient id="SVGID_50_" gradientUnits="userSpaceOnUse" x1="-49.7695" y1="65.9443" x2="-41.6921" y2="65.9443" gradientTransform="matrix(0.0248 -0.9997 0.9997 0.0248 -4.883204e-004 1.742691e-004)">
		<stop  offset="0" style="stop-color:#74C3C5"/>
		<stop  offset="1" style="stop-color:#1F203E"/>
	</linearGradient>
	<path style="fill-rule:evenodd;clip-rule:evenodd;fill:url(#SVGID_50_);" d="M64.35,44.15c0.667-1.034,1.167-0.767,1.5,0.8
		c0.301,1.533,0.15,3.066-0.449,4.6C64.8,51.116,64.283,50.9,63.85,48.9C63.417,46.9,63.583,45.316,64.35,44.15z"/>
	
		<use xlink:href="#flash0.ai_x2F_Layer_1_x2F__x3C_Path_x3E__x5F_11"  width="1.282" height="4.485" x="-0.038" y="-4.427" transform="matrix(1 0 0 -1 61.75 42.7998)" style="overflow:visible;opacity:0.3516;enable-background:new    ;"/>
	
		<use xlink:href="#flash0.ai_x2F_Layer_1_x2F__x3C_Path_x3E__x5F_10"  width="2.234" height="7.143" x="-0.077" y="-7.018" transform="matrix(1 0 0 -1 56.3496 16)" style="overflow:visible;opacity:0.3516;enable-background:new    ;"/>
	
		<use xlink:href="#flash0.ai_x2F_Layer_1_x2F__x3C_Path_x3E__x5F_9_x5F_0"  width="2.673" height="8.481" x="-0.092" y="-8.278" transform="matrix(1 0 0 -1 11.1001 14.2002)" style="overflow:visible;opacity:0.3516;enable-background:new    ;"/>
	
		<linearGradient id="SVGID_51_" gradientUnits="userSpaceOnUse" x1="-11.1021" y1="14.8657" x2="-0.4991" y2="14.8657" gradientTransform="matrix(0.0236 -0.9997 0.9997 0.0236 4.128814e-004 -4.747435e-004)">
		<stop  offset="0" style="stop-color:#74C3C5"/>
		<stop  offset="1" style="stop-color:#1F203E"/>
	</linearGradient>
	<path style="fill-rule:evenodd;clip-rule:evenodd;fill:url(#SVGID_51_);" d="M13.4,2.25c0.667-1.867,1.417-1.55,2.25,0.95
		c0.833,2.466,0.867,4.533,0.1,6.2c-0.7,1.5-1.367,0.934-2-1.7C13.15,5.067,13.033,3.25,13.4,2.25z"/>
	
		<linearGradient id="SVGID_52_" gradientUnits="userSpaceOnUse" x1="-15.0923" y1="16.6929" x2="-11.166" y2="16.6929" gradientTransform="matrix(0.0255 -0.9997 0.9997 0.0255 9.997189e-005 2.190992e-004)">
		<stop  offset="0" style="stop-color:#74C3C5"/>
		<stop  offset="1" style="stop-color:#1F203E"/>
	</linearGradient>
	<path style="fill-rule:evenodd;clip-rule:evenodd;fill:url(#SVGID_52_);" d="M16.1,12.15c0.367-0.633,0.65-0.617,0.85,0.05
		c0.167,0.667,0.05,1.433-0.35,2.3c-0.4,0.833-0.684,0.817-0.85-0.05C15.617,13.55,15.733,12.783,16.1,12.15z"/>
	
		<linearGradient id="SVGID_53_" gradientUnits="userSpaceOnUse" x1="-40.2563" y1="9.3086" x2="-25.2273" y2="9.3086" gradientTransform="matrix(0.0233 -0.9997 0.9997 0.0233 -3.033504e-004 1.205504e-004)">
		<stop  offset="0" style="stop-color:#022B3E"/>
		<stop  offset="0.4784" style="stop-color:#74C3C5"/>
		<stop  offset="1" style="stop-color:#1F203E"/>
	</linearGradient>
	<path style="fill-rule:evenodd;clip-rule:evenodd;fill:url(#SVGID_53_);" d="M7.55,24.1c1.1-2.434,1.9-1.517,2.4,2.75
		c0.5,4.3,0.233,7.1-0.8,8.4c-0.9,1.134-1.517-0.167-1.85-3.9C6.933,27.683,7.017,25.267,7.55,24.1z"/>
	
		<linearGradient id="SVGID_54_" gradientUnits="userSpaceOnUse" x1="-47.0679" y1="14.9971" x2="-38.3656" y2="14.9971" gradientTransform="matrix(0.023 -0.9997 0.9997 0.023 4.512984e-004 -3.621355e-004)">
		<stop  offset="0" style="stop-color:#74C3C5"/>
		<stop  offset="1" style="stop-color:#1F203E"/>
	</linearGradient>
	<path style="fill-rule:evenodd;clip-rule:evenodd;fill:url(#SVGID_54_);" d="M13.2,37.95c0.667-1.867,1.233-1.917,1.7-0.15
		s0.367,3.517-0.3,5.25c-0.567,1.533-1.017,1.283-1.35-0.75C12.917,40.233,12.9,38.783,13.2,37.95z"/>
	
		<linearGradient id="SVGID_55_" gradientUnits="userSpaceOnUse" x1="-48.1836" y1="10.1094" x2="-41.9568" y2="10.1094" gradientTransform="matrix(0.0241 -0.9997 0.9997 0.0241 -6.895140e-005 -1.359209e-004)">
		<stop  offset="0" style="stop-color:#74C3C5"/>
		<stop  offset="1" style="stop-color:#1F203E"/>
	</linearGradient>
	<path style="fill-rule:evenodd;clip-rule:evenodd;fill:url(#SVGID_55_);" d="M8.4,43.3c0.434-1.366,0.833-1.333,1.2,0.101
		c0.333,1.399,0.267,2.649-0.2,3.75c-0.433,0.933-0.75,0.666-0.95-0.801C8.217,44.884,8.2,43.866,8.4,43.3z"/>
	
		<linearGradient id="SVGID_56_" gradientUnits="userSpaceOnUse" x1="-14.5703" y1="7.4395" x2="-4.4672" y2="7.4395" gradientTransform="matrix(0.0247 -0.9997 0.9997 0.0247 -3.170669e-004 -2.219155e-004)">
		<stop  offset="0" style="stop-color:#74C3C5"/>
		<stop  offset="1" style="stop-color:#1F203E"/>
	</linearGradient>
	<path style="fill-rule:evenodd;clip-rule:evenodd;fill:url(#SVGID_56_);" d="M6.2,6.1c1.1-1.934,1.85-1.567,2.25,1.1
		c0.367,2.667,0.117,4.617-0.75,5.85c-0.733,1.067-1.284,0.367-1.65-2.1C5.717,8.483,5.767,6.867,6.2,6.1z"/>
	
		<linearGradient id="SVGID_57_" gradientUnits="userSpaceOnUse" x1="-15.8516" y1="26.8955" x2="-9.4734" y2="26.8955" gradientTransform="matrix(0.0314 -0.9995 0.9995 0.0314 -1.732931e-004 -1.295507e-004)">
		<stop  offset="0" style="stop-color:#74C3C5"/>
		<stop  offset="1" style="stop-color:#1F203E"/>
	</linearGradient>
	<path style="fill-rule:evenodd;clip-rule:evenodd;fill:url(#SVGID_57_);" d="M26.6,10.6c3.267-0.067,4.6,0.617,4,2.05
		c-0.567,1.467-2.3,2.033-5.2,1.7c-2.667-0.3-3.617-1-2.85-2.1C23.317,11.183,24.667,10.633,26.6,10.6z"/>
	
		<linearGradient id="SVGID_58_" gradientUnits="userSpaceOnUse" x1="-23.0542" y1="30.4531" x2="-20.0767" y2="30.4531" gradientTransform="matrix(-0.2267 -0.974 0.974 -0.2267 3.525019e-004 -1.857281e-004)">
		<stop  offset="0" style="stop-color:#74C3C5"/>
		<stop  offset="1" style="stop-color:#1F203E"/>
	</linearGradient>
	<path style="fill-rule:evenodd;clip-rule:evenodd;fill:url(#SVGID_58_);" d="M34.45,13.05c1.434-0.033,2.083,0.317,1.95,1.05
		c-0.134,0.733-0.834,1.066-2.101,1c-1.2-0.033-1.733-0.367-1.6-1C32.8,13.433,33.383,13.083,34.45,13.05z"/>
	
		<use xlink:href="#flash0.ai_x2F_Layer_1_x2F__x3C_Path_x3E__x5F_12"  width="7.488" height="2.896" x="-0.02" y="-2.92" transform="matrix(1 0 0 -1 41.7002 10.2002)" style="overflow:visible;opacity:0.3516;enable-background:new    ;"/>
</g>
</svg>
