<?xml version="1.0" encoding="iso-8859-1"?>
<!-- Generator: Adobe Illustrator 15.1.0, SVG Export Plug-In . SVG Version: 6.00 Build 0)  -->
<!DOCTYPE svg PUBLIC "-//W3C//DTD SVG 1.1//EN" "http://www.w3.org/Graphics/SVG/1.1/DTD/svg11.dtd">
<svg version="1.1" id="Layer_4" xmlns="http://www.w3.org/2000/svg" xmlns:xlink="http://www.w3.org/1999/xlink" x="0px" y="0px"
	 width="130.9px" height="105.35px" viewBox="0 0 130.9 105.35" style="enable-background:new 0 0 130.9 105.35;"
	 xml:space="preserve">
<symbol  id="flash2.ai_x2F_Layer_4_x2F__x3C_Clip_Group_0_x3E_" viewBox="-0.056 -105.25 29.706 105.25">
	<g id="Layer_1_40_">
	</g>
	<g>
		<defs>
			<path id="SVGID_1_" d="M27-72c0.067,2.033,0.2,3.7,0.4,5c0.667,4.333,1.05,7.017,1.15,8.05c0.367,3.5,0.367,6.133,0,7.9
				c-0.133,0.733-0.183,1.75-0.15,3.05c0.033,1.4,0,2.417-0.1,3.05c-0.267,1.6-0.383,3.633-0.35,6.1c0.1,3.533,0.133,5.583,0.1,6.15
				L28-30.85c-0.033,2.067-0.033,4.767,0,8.1c0.067,4.2,0.1,6.9,0.1,8.1c0.033,3.533-0.383,6.217-1.25,8.05
				c-1.167,2.467-3.283,3.934-6.35,4.4c-3.333,0.5-6.467,0.667-9.4,0.5C7.067-1.967,4.167-2.883,2.4-4.45
				C0.667-6.017-0.117-8.467,0.05-11.8c0.067-1.367,0.55-4.05,1.45-8.05c0.8-3.5,1.35-7.667,1.65-12.5
				c0.067-1.133,0.217-2.95,0.45-5.45c0.167-2.233,0.083-4.017-0.25-5.35C2.917-44.917,2.9-47.2,3.3-50
				c0.5-3.567,0.75-5.833,0.75-6.8c0-1.7-0.316-4.95-0.95-9.75c-0.533-4.1-0.667-7.333-0.4-9.7c0.6-4.967,0.9-8.283,0.9-9.95
				c0-1.333-0.1-3.233-0.3-5.7c-0.167-2.5-0.267-4.4-0.3-5.7l0.05-7.4l24.75-0.05c0.067,0-0.017,2.483-0.25,7.45
				c-0.1,2.467-0.133,4.684-0.1,6.65c0,1.167-0.184,3.317-0.55,6.45c-0.333,2.7-0.433,4.867-0.3,6.5C26.767-76.4,26.9-74.4,27-72z"
				/>
		</defs>
		<clipPath id="SVGID_2_">
			<use xlink:href="#SVGID_1_"  style="overflow:visible;"/>
		</clipPath>
		<g id="Layer_3_1_" style="clip-path:url(#SVGID_2_);">
			<linearGradient id="SVGID_3_" gradientUnits="userSpaceOnUse" x1="28.8281" y1="-53.3901" x2="-0.1187" y2="-53.2901">
				<stop  offset="0" style="stop-color:#AE915E"/>
				<stop  offset="0.4784" style="stop-color:#856040"/>
				<stop  offset="1" style="stop-color:#704C2E"/>
			</linearGradient>
			<path style="fill-rule:evenodd;clip-rule:evenodd;fill:url(#SVGID_3_);" d="M28.1-14.65c0-1.2-0.033-3.9-0.1-8.1
				c-0.033-3.333-0.033-6.033,0-8.1l0.05-1.85c0.034-0.566,0-2.617-0.1-6.15c-0.034-2.467,0.083-4.5,0.35-6.1
				c0.1-0.633,0.133-1.65,0.1-3.05c-0.033-1.3,0.017-2.317,0.15-3.05c0.367-1.767,0.367-4.4,0-7.9c-0.1-1.033-0.483-3.716-1.15-8.05
				c-0.2-1.3-0.333-2.967-0.4-5c-0.1-2.4-0.233-4.4-0.4-6c-0.133-1.633-0.033-3.8,0.3-6.5c0.367-3.133,0.55-5.283,0.55-6.45
				c-0.034-1.966,0-4.183,0.1-6.65c0.233-4.967,0.317-7.45,0.25-7.45L3.05-105L3-97.6c0.033,1.3,0.133,3.2,0.3,5.7
				c0.2,2.467,0.3,4.367,0.3,5.7c0,1.667-0.3,4.983-0.9,9.95c-0.267,2.367-0.133,5.6,0.4,9.7c0.633,4.8,0.95,8.05,0.95,9.75
				c0,0.966-0.25,3.233-0.75,6.8c-0.4,2.8-0.383,5.083,0.05,6.85c0.333,1.333,0.417,3.117,0.25,5.35
				c-0.233,2.5-0.383,4.316-0.45,5.45c-0.3,4.833-0.85,9-1.65,12.5c-0.9,4-1.383,6.684-1.45,8.05C-0.117-8.467,0.667-6.017,2.4-4.45
				c1.767,1.567,4.667,2.483,8.7,2.75c2.933,0.167,6.066,0,9.4-0.5c3.067-0.466,5.183-1.933,6.35-4.4
				C27.717-8.433,28.133-11.117,28.1-14.65z"/>
			<g>
				<g>
					
						<use xlink:href="#flash2.ai_x2F_Layer_4_x2F__x3C_Path_x3E__x5F_10_x5F_0"  width="20.756" height="104.341" x="-0.056" y="-104.35" transform="matrix(1 0 0 1 0 -0.8999)" style="overflow:visible;opacity:0.4414;enable-background:new    ;"/>
					
						<use xlink:href="#flash2.ai_x2F_Layer_4_x2F__x3C_Path_x3E__x5F_9_x5F_0"  width="7.727" height="101.012" x="0.023" y="-101.012" transform="matrix(1 0 0 1 21.5 -4.1001)" style="overflow:visible;opacity:0.25;enable-background:new    ;"/>
					<linearGradient id="SVGID_4_" gradientUnits="userSpaceOnUse" x1="3.2876" y1="-89.6108" x2="4.6126" y2="-89.6108">
						<stop  offset="0" style="stop-color:#B78038"/>
						<stop  offset="1" style="stop-color:#B5A680"/>
					</linearGradient>
					<path style="fill-rule:evenodd;clip-rule:evenodd;fill:url(#SVGID_4_);" d="M4.1-96.6c-0.233-1.733-0.517-3.517-0.85-5.35
						c-0.067,2.367,0.033,5.483,0.3,9.35c0.4,4.767,0.55,7.95,0.45,9.55c-0.067,0.833-0.2,1.917-0.4,3.25
						c-0.167,1.1-0.25,1.833-0.25,2.2c0,0.833,0.233,0.083,0.7-2.25c0.434-2.267,0.617-4.133,0.55-5.6
						c-0.033-1.1-0.083-3.05-0.15-5.85C4.383-93.767,4.267-95.533,4.1-96.6z"/>
					<linearGradient id="SVGID_5_" gradientUnits="userSpaceOnUse" x1="3.8125" y1="-41.25" x2="4.6875" y2="-41.25">
						<stop  offset="0" style="stop-color:#B78038"/>
						<stop  offset="1" style="stop-color:#B5A680"/>
					</linearGradient>
					<path style="fill-rule:evenodd;clip-rule:evenodd;fill:url(#SVGID_5_);" d="M4.55-45.95C4.317-47.383,4.133-48.7,4-49.9
						c-0.1,0.333-0.117,1.417-0.05,3.25c0.066,2.066,0.05,3.5-0.05,4.3c-0.167,1.7-0.133,3.833,0.1,6.4l0.35,3.35l0.25-5.85
						C4.733-42.55,4.717-45.05,4.55-45.95z"/>
					
						<use xlink:href="#flash2.ai_x2F_Layer_4_x2F__x3C_Path_x3E__x5F_6_x5F_0"  width="10.297" height="104.5" x="0.005" y="-104.5" transform="matrix(1 0 0 1 3.25 -0.5498)" style="overflow:visible;opacity:0.3711;enable-background:new    ;"/>
					
						<use xlink:href="#flash2.ai_x2F_Layer_4_x2F__x3C_Compound_Path_x3E__x5F_1"  width="6.795" height="104.75" x="-0.029" y="-104.75" transform="matrix(1 0 0 1 15.25 0)" style="overflow:visible;opacity:0.3711;enable-background:new    ;"/>
					
						<use xlink:href="#flash2.ai_x2F_Layer_4_x2F__x3C_Path_x3E__x5F_5_x5F_0"  width="9.778" height="90.65" x="0.022" y="-90.65" transform="matrix(1 0 0 1 19.8501 -7.7998)" style="overflow:visible;opacity:0.3711;enable-background:new    ;"/>
					
						<use xlink:href="#flash2.ai_x2F_Layer_4_x2F__x3C_Path_x3E__x5F_4_x5F_0"  width="1.192" height="17.65" x="-0.017" y="-17.65" transform="matrix(1 0 0 1 11.5 -84.0498)" style="overflow:visible;opacity:0.3711;enable-background:new    ;"/>
					
						<use xlink:href="#flash2.ai_x2F_Layer_4_x2F__x3C_Path_x3E__x5F_3_x5F_0"  width="2.442" height="21.525" x="0.033" y="-21.6" transform="matrix(1 0 0 1 10.25 -4.75)" style="overflow:visible;opacity:0.3711;enable-background:new    ;"/>
					
						<use xlink:href="#flash2.ai_x2F_Layer_4_x2F__x3C_Path_x3E__x5F_2_x5F_0"  width="1.039" height="15.1" x="0.011" y="-15.15" transform="matrix(1 0 0 1 23.0498 -80.2002)" style="overflow:visible;opacity:0.3984;enable-background:new    ;"/>
					
						<use xlink:href="#flash2.ai_x2F_Layer_4_x2F__x3C_Path_x3E__x5F_1_x5F_0"  width="3.932" height="36.75" x="0.018" y="-36.75" transform="matrix(1 0 0 1 9.4502 -66.25)" style="overflow:visible;opacity:0.3984;enable-background:new    ;"/>
					
						<use xlink:href="#flash2.ai_x2F_Layer_4_x2F__x3C_Compound_Path_x3E_"  width="3.857" height="29" x="-0.01" y="-29" transform="matrix(1 0 0 1 6.8999 -45.2998)" style="overflow:visible;opacity:0.3711;enable-background:new    ;"/>
					
						<use xlink:href="#flash2.ai_x2F_Layer_4_x2F__x3C_Path_x3E__x5F_0"  width="2.441" height="35" x="-0.03" y="-35" transform="matrix(1 0 0 1 14.5498 -11.6499)" style="overflow:visible;opacity:0.3008;enable-background:new    ;"/>
				</g>
			</g>
		</g>
	</g>
	<g id="Layer_4_1_">
	</g>
</symbol>
<symbol  id="flash2.ai_x2F_Layer_4_x2F__x3C_Clip_Group_0_x3E__x5F_0" viewBox="0.032 -103.55 28.718 103.55">
	<g id="Layer_1_41_">
	</g>
	<g>
		<defs>
			<path id="SVGID_6_" d="M25.75-93.6l-0.8,5.6c-0.534,3.333-0.767,7.367-0.7,12.1c0.033,2.767,0.233,5.85,0.6,9.25
				c0.533,4,0.933,7.1,1.2,9.3c0.233,1.867,0.233,4.317,0,7.35c-0.3,3.767-0.45,6.217-0.45,7.35c0.033,3.167-0.117,6.867-0.45,11.1
				l-0.4,4.1c-0.533,4.867-0.7,9-0.5,12.4c0.233,2.833,0.383,4.95,0.45,6.35c0.1,2.467-0.05,3.967-0.45,4.5
				c-1.667,2.434-5.717,3.417-12.15,2.95C5.7-1.717,2.083-3.233,1.25-5.8c-0.133-2.567-0.067-5.5,0.2-8.8
				c0.133-1.767,0.433-4.617,0.9-8.55c0.267-1.934,0.3-4.25,0.1-6.95c-0.133-1.566-0.35-3.883-0.65-6.95
				c-0.066-1-0.117-3.117-0.15-6.35c0-2.6-0.15-4.717-0.45-6.35C0.733-52.517,0.967-56.9,1.9-62.9c0.9-5.767,1-10.15,0.3-13.15
				c-0.3-1.333-0.467-3.05-0.5-5.15c0-2.033-0.167-3.733-0.5-5.1c-0.6-2.667-0.667-5.784-0.2-9.35c0.233-1.7,0.367-3.5,0.4-5.4
				l0.1-2.15l24.7-0.05c0.033,0.267-0.017,1.85-0.15,4.75S25.817-93.967,25.75-93.6z"/>
		</defs>
		<clipPath id="SVGID_7_">
			<use xlink:href="#SVGID_6_"  style="overflow:visible;"/>
		</clipPath>
		<g id="Layer_3_2_" style="clip-path:url(#SVGID_7_);">
			<g>
				<g>
					
						<use xlink:href="#flash2.ai_x2F_Layer_4_x2F__x3C_Path_x3E__x5F_11"  width="20.306" height="102.778" x="-0.006" y="-102.8" transform="matrix(1 0 0 1 1.2002 -0.75)" style="overflow:visible;opacity:0.4414;enable-background:new    ;"/>
					
						<use xlink:href="#flash2.ai_x2F_Layer_4_x2F__x3C_Path_x3E__x5F_10_x5F_1"  width="7.148" height="100.006" x="-0.008" y="-100" transform="matrix(1 0 0 1 19.3501 -3.25)" style="overflow:visible;opacity:0.25;enable-background:new    ;"/>
					<linearGradient id="SVGID_8_" gradientUnits="userSpaceOnUse" x1="1.0752" y1="-90.5752" x2="2.3252" y2="-90.5752">
						<stop  offset="0" style="stop-color:#B78038"/>
						<stop  offset="1" style="stop-color:#B5A680"/>
					</linearGradient>
					<path style="fill-rule:evenodd;clip-rule:evenodd;fill:url(#SVGID_8_);" d="M1.9-91.05c-0.2-1.8-0.066-5.417,0.4-10.85
						c-0.267,1.7-0.517,3.217-0.75,4.55c-0.4,2.533-0.566,4.5-0.5,5.9c0.067,1.233,0.184,2.7,0.35,4.4
						c0.167,1.833,0.267,3.15,0.3,3.95c0.066,1.2,0.15,2.2,0.25,3l0.15,0.85v-4.9C2.1-87.617,2.033-89.917,1.9-91.05z"/>
					<linearGradient id="SVGID_9_" gradientUnits="userSpaceOnUse" x1="0.9375" y1="-59.2002" x2="2.7625" y2="-59.2002">
						<stop  offset="0" style="stop-color:#B78038"/>
						<stop  offset="1" style="stop-color:#B5A680"/>
					</linearGradient>
					<path style="fill-rule:evenodd;clip-rule:evenodd;fill:url(#SVGID_9_);" d="M1.75-46.9L1.6-56.2c0-3.233,0.267-6.2,0.8-8.9
						c0.467-2.367,0.517-4.5,0.15-6.4C2.217-70.1,1.967-69,1.8-68.2c-0.267,1.4-0.383,2.85-0.35,4.35c0,1.267-0.067,2.783-0.2,4.55
						c-0.133,1.8-0.2,3.066-0.2,3.8C1.017-53.867,1-52.717,1-52.05c-0.033,1.133,0.033,1.9,0.2,2.3c0.167,0.4,0.316,1,0.45,1.8
						L1.75-46.9z"/>
					
						<use xlink:href="#flash2.ai_x2F_Layer_4_x2F__x3C_Path_x3E__x5F_7_x5F_0"  width="7.606" height="103.4" x="-0.006" y="-103.4" transform="matrix(1 0 0 1 5.2002 0)" style="overflow:visible;opacity:0.4297;enable-background:new    ;"/>
					
						<use xlink:href="#flash2.ai_x2F_Layer_4_x2F__x3C_Path_x3E__x5F_6_x5F_1"  width="5.787" height="30.9" x="0.032" y="-30.9" transform="matrix(1 0 0 1 0 -52.3999)" style="overflow:visible;opacity:0.4297;enable-background:new    ;"/>
					
						<use xlink:href="#flash2.ai_x2F_Layer_4_x2F__x3C_Path_x3E__x5F_5_x5F_1"  width="14.283" height="91.791" x="0.016" y="-91.9" transform="matrix(1 0 0 1 11.2998 -5.1001)" style="overflow:visible;opacity:0.3594;enable-background:new    ;"/>
					
						<use xlink:href="#flash2.ai_x2F_Layer_4_x2F__x3C_Path_x3E__x5F_4_x5F_1"  width="3.55" height="27.05" y="-27.05" transform="matrix(1 0 0 1 15.75 -76.25)" style="overflow:visible;opacity:0.3594;enable-background:new    ;"/>
					
						<use xlink:href="#flash2.ai_x2F_Layer_4_x2F__x3C_Path_x3E__x5F_3_x5F_1"  width="4.632" height="27.1" x="0.018" y="-27.1" transform="matrix(1 0 0 1 24.1001 -35.3501)" style="overflow:visible;opacity:0.2617;enable-background:new    ;"/>
					
						<use xlink:href="#flash2.ai_x2F_Layer_4_x2F__x3C_Path_x3E__x5F_2_x5F_1"  width="5.261" height="26.45" x="-0.011" y="-26.45" transform="matrix(1 0 0 1 22.3999 -5.3501)" style="overflow:visible;opacity:0.2617;enable-background:new    ;"/>
					
						<use xlink:href="#flash2.ai_x2F_Layer_4_x2F__x3C_Path_x3E__x5F_1_x5F_1"  width="1.66" height="35.55" y="-35.55" transform="matrix(1 0 0 1 9.75 -8.3999)" style="overflow:visible;opacity:0.3984;enable-background:new    ;"/>
					
						<use xlink:href="#flash2.ai_x2F_Layer_4_x2F__x3C_Path_x3E__x5F_12"  width="2.34" height="19.689" x="-0.015" y="-19.689" transform="matrix(1 0 0 1 13.9502 -73.7002)" style="overflow:visible;opacity:0.3008;enable-background:new    ;"/>
				</g>
			</g>
		</g>
	</g>
	<g id="Layer_4_2_">
	</g>
</symbol>
<symbol  id="flash2.ai_x2F_Layer_4_x2F__x3C_Compound_Path_x3E_" viewBox="-0.01 -29 3.857 29">
	<g id="Layer_1_22_">
		<linearGradient id="SVGID_10_" gradientUnits="userSpaceOnUse" x1="-17.8438" y1="-15.1411" x2="24.8313" y2="-13.6911">
			<stop  offset="0" style="stop-color:#270D0A"/>
			<stop  offset="0.0157" style="stop-color:#2E1410"/>
			<stop  offset="0.1804" style="stop-color:#684D40"/>
			<stop  offset="0.3216" style="stop-color:#937663"/>
			<stop  offset="0.4314" style="stop-color:#AD9078"/>
			<stop  offset="0.498" style="stop-color:#B79980"/>
			<stop  offset="0.5647" style="stop-color:#AF927A"/>
			<stop  offset="0.6627" style="stop-color:#997E69"/>
			<stop  offset="0.7882" style="stop-color:#765E4C"/>
			<stop  offset="0.9333" style="stop-color:#453226"/>
			<stop  offset="1" style="stop-color:#2B1A11"/>
		</linearGradient>
		<path style="fill-rule:evenodd;clip-rule:evenodd;fill:url(#SVGID_10_);" d="M2.35-11.25c0.033,0.833-0.067,2.05-0.3,3.65
			c-0.233,1.633-0.333,2.867-0.3,3.7c0,0.1,0,0.767,0,2C1.75-1.067,1.833-0.433,2,0c0.033-0.7,0.367-3.05,1-7.05
			c0.433-2.6,0.7-4.6,0.8-6c0.133-2.267-0.017-4.233-0.45-5.9c-0.267-0.933-0.833-2.617-1.7-5.05c-0.8-2.1-1.333-3.767-1.6-5
			C0.017-27.667,0-26.667,0-26c-0.033,1.2,0.017,2.183,0.15,2.95c0.133,0.933,0.55,2.9,1.25,5.9
			C1.967-14.683,2.283-12.717,2.35-11.25z"/>
	</g>
</symbol>
<symbol  id="flash2.ai_x2F_Layer_4_x2F__x3C_Compound_Path_x3E__x5F_1" viewBox="-0.029 -104.75 6.795 104.75">
	<g id="Layer_1_16_">
		<linearGradient id="SVGID_11_" gradientUnits="userSpaceOnUse" x1="-18.9688" y1="-53.0942" x2="20.0812" y2="-51.7692">
			<stop  offset="0" style="stop-color:#270D0A"/>
			<stop  offset="0.0157" style="stop-color:#2E1410"/>
			<stop  offset="0.1804" style="stop-color:#684D40"/>
			<stop  offset="0.3216" style="stop-color:#937663"/>
			<stop  offset="0.4314" style="stop-color:#AD9078"/>
			<stop  offset="0.498" style="stop-color:#B79980"/>
			<stop  offset="0.5647" style="stop-color:#AF927A"/>
			<stop  offset="0.6627" style="stop-color:#997E69"/>
			<stop  offset="0.7882" style="stop-color:#765E4C"/>
			<stop  offset="0.9333" style="stop-color:#453226"/>
			<stop  offset="1" style="stop-color:#2B1A11"/>
		</linearGradient>
		<path style="fill-rule:evenodd;clip-rule:evenodd;fill:url(#SVGID_11_);" d="M2.05-65.55c-0.3-2.467-0.466-4.45-0.5-5.95
			c0-0.933,0.017-2.267,0.05-4c0.033-1.633,0.017-3.183-0.05-4.65c-0.033-1.233-0.133-2.983-0.3-5.25c-0.033-2,0.2-4.033,0.7-6.1
			C3.183-96.7,3.8-99,3.8-98.4c1.1,5.3,1.65,9.433,1.65,12.4c0,1.6-0.184,3.333-0.55,5.2c-0.5,2.4-0.833,4.45-1,6.15
			c-0.233,2.4-0.45,5.55-0.65,9.45l-0.2,5.15C2.717-61.083,2.383-62.917,2.05-65.55z M1.1-20c0,0.733,0.1,2.433,0.3,5.1
			c0.167,2.1,0.15,3.816-0.05,5.15c-0.5,2.133-0.867,3.767-1.1,4.9C-0.117-2.85,0-1.233,0.6,0c1.033-0.1,1.667-0.133,1.9-0.1
			C1.933-1.4,1.767-2.95,2-4.75c0.1-1.033,0.333-2.6,0.7-4.7c0.267-3.033,0.117-6.483-0.45-10.35c-0.2-1.6-0.2-3.534,0-5.8
			c0.1-1.267,0.3-3.183,0.6-5.75c0.133-1.566,0.4-3.683,0.8-6.35c0.434-3.033,0.717-5.133,0.85-6.3c0.333-2.9,0.4-7.417,0.2-13.55
			C4.533-63.483,4.65-68,5.05-71.1c0.333-2.433,0.767-5.033,1.3-7.8c0.333-2.167,0.467-4.533,0.4-7.1
			c-0.1-4.267-1.067-10.517-2.9-18.75c-0.3,1.533-0.517,2.917-0.65,4.15c-0.067,1-0.25,2.083-0.55,3.25
			c-0.566,2.033-1,3.633-1.3,4.8c-0.5,2.133-0.883,4.1-1.15,5.9c-0.267,2-0.3,5.083-0.1,9.25c0.133,3.5,0.383,6.933,0.75,10.3
			c0.767,5.667,1.316,9.917,1.65,12.75c0.567,5,0.683,9.267,0.35,12.8c-0.567,5.867-0.867,9.483-0.9,10.85
			c-0.034,1.167-0.167,2.95-0.4,5.35C1.283-22.983,1.133-21.2,1.1-20z"/>
	</g>
</symbol>
<symbol  id="flash2.ai_x2F_Layer_4_x2F__x3C_Path_x3E_" viewBox="0 -5.95 19.3 5.95">
	<g id="Layer_1_12_">
		
			<linearGradient id="SVGID_12_" gradientUnits="userSpaceOnUse" x1="65.8755" y1="-16351.4736" x2="89.0785" y2="-16351.4736" gradientTransform="matrix(-0.0118 -0.9999 0.9999 -0.0118 16361.0156 -108.2817)">
			<stop  offset="0.0196" style="stop-color:#270D0A"/>
			<stop  offset="0.0275" style="stop-color:#2C1310"/>
			<stop  offset="0.1216" style="stop-color:#635452"/>
			<stop  offset="0.2118" style="stop-color:#918B88"/>
			<stop  offset="0.2941" style="stop-color:#B5B5B3"/>
			<stop  offset="0.3686" style="stop-color:#CFD4D2"/>
			<stop  offset="0.4353" style="stop-color:#DEE6E4"/>
			<stop  offset="0.4784" style="stop-color:#E4EDEB"/>
			<stop  offset="0.5294" style="stop-color:#DEE5E3"/>
			<stop  offset="0.6039" style="stop-color:#CCD0CE"/>
			<stop  offset="0.6941" style="stop-color:#AFAEAC"/>
			<stop  offset="0.7961" style="stop-color:#877E7C"/>
			<stop  offset="0.9098" style="stop-color:#54423F"/>
			<stop  offset="1" style="stop-color:#270D0A"/>
		</linearGradient>
		<path style="fill-rule:evenodd;clip-rule:evenodd;fill:url(#SVGID_12_);" d="M0-5.95c0.567,0.667,1.383,1.367,2.45,2.1
			C4.617-2.35,7.05-1.4,9.75-1c4.3,0.667,7.483,1,9.55,1l-1.55-2.2c-2-0.033-4.15-0.2-6.45-0.5C6.733-3.367,3.767-4.433,2.4-5.9
			L0-5.95z"/>
	</g>
</symbol>
<symbol  id="flash2.ai_x2F_Layer_4_x2F__x3C_Path_x3E__x5F_0" viewBox="-0.03 -35 2.441 35">
	<g id="Layer_1_23_">
		<path style="fill-rule:evenodd;clip-rule:evenodd;fill:#C4AC96;" d="M0.6,0C0.8-5.033,0.933-8.217,1-9.55
			c0.133-1.833,0.367-3.75,0.7-5.75C2.533-20.533,2.633-27.1,2-35c-0.333,2.4-0.417,5.3-0.25,8.7c0.167,3.133,0.1,5.4-0.2,6.8
			C0.35-13.967-0.167-9.05,0-4.75C0.1-2.617,0.3-1.033,0.6,0z"/>
	</g>
</symbol>
<symbol  id="flash2.ai_x2F_Layer_4_x2F__x3C_Path_x3E__x5F_1" viewBox="0 -13.4 73.2 13.4">
	<g id="Layer_1_11_">
		
			<linearGradient id="SVGID_13_" gradientUnits="userSpaceOnUse" x1="73.5259" y1="-16324.1094" x2="95.7536" y2="-16324.1094" gradientTransform="matrix(-0.0117 -0.9999 0.9999 -0.0117 16360.6523 -107.9097)">
			<stop  offset="0.0196" style="stop-color:#270D0A"/>
			<stop  offset="0.0275" style="stop-color:#2C1310"/>
			<stop  offset="0.1216" style="stop-color:#635452"/>
			<stop  offset="0.2118" style="stop-color:#918B88"/>
			<stop  offset="0.2941" style="stop-color:#B5B5B3"/>
			<stop  offset="0.3686" style="stop-color:#CFD4D2"/>
			<stop  offset="0.4353" style="stop-color:#DEE6E4"/>
			<stop  offset="0.4784" style="stop-color:#E4EDEB"/>
			<stop  offset="0.5294" style="stop-color:#DEE5E3"/>
			<stop  offset="0.6039" style="stop-color:#CCD0CE"/>
			<stop  offset="0.6941" style="stop-color:#AFAEAC"/>
			<stop  offset="0.7961" style="stop-color:#877E7C"/>
			<stop  offset="0.9098" style="stop-color:#54423F"/>
			<stop  offset="1" style="stop-color:#270D0A"/>
		</linearGradient>
		<path style="fill-rule:evenodd;clip-rule:evenodd;fill:url(#SVGID_13_);" d="M48.15-3.85c-4.3,0.967-9.816,0.483-16.55-1.45
			c-3.033-0.9-7.517-1.3-13.45-1.2c-6.066,0.067-10.1,0.633-12.1,1.7L0-1.6L0.25,0c0.1-0.367,0.483-0.767,1.15-1.2
			c1.333-0.867,3.4-1.483,6.2-1.85c3.367-0.467,8-0.617,13.9-0.45c5.933,0.167,9.6,0.55,11,1.15c3.8,1.7,9.033,1.75,15.7,0.15
			c3.3-0.8,8.466-2.917,15.5-6.35c3.5-1.7,6.667-3.317,9.5-4.85L68-12.95c-2.433,1.333-5.083,2.717-7.95,4.15
			C54.283-5.967,50.317-4.317,48.15-3.85z"/>
	</g>
</symbol>
<symbol  id="flash2.ai_x2F_Layer_4_x2F__x3C_Path_x3E__x5F_10" viewBox="0 -6.607 128.7 6.557">
	<g id="Layer_1_2_">
		
			<linearGradient id="SVGID_14_" gradientUnits="userSpaceOnUse" x1="432.2075" y1="-16634.8867" x2="446.1819" y2="-16634.8867" gradientTransform="matrix(-0.0547 -0.9985 0.9985 -0.0547 16698.4863 -469.5093)">
			<stop  offset="0" style="stop-color:#AE915E"/>
			<stop  offset="1" style="stop-color:#856040"/>
		</linearGradient>
		<path style="fill-rule:evenodd;clip-rule:evenodd;fill:url(#SVGID_14_);" d="M123-5.45c1.7-0.2,3.017-0.133,3.95,0.2
			c0.2,0.067,0.5,0.683,0.9,1.85c0.367,1.066,0.65,2.05,0.85,2.95c-0.1-1.566-0.184-2.517-0.25-2.85
			c-0.233-1.367-0.633-2.383-1.2-3.05c-0.1-0.2-0.917-0.283-2.45-0.25c-0.433,0-1.617,0.067-3.55,0.2l-6.75,0.5
			c-3.233,0.267-5.4,0.417-6.5,0.45c-2.5,0.1-4.683,0.017-6.55-0.25c-8.7-1.167-20.867-0.833-36.5,1
			c-6.934,0.833-16.434,1.417-28.5,1.75c-15.233,0.467-23.2,0.717-23.9,0.75C11.517-2.133,9.967-2.05,7.9-1.95
			c-2.066,0.1-3.617,0.2-4.65,0.3c-1.1,0.1-1.7,0.167-1.8,0.2C0.75-1.283,0.267-0.9,0-0.3c0.367,0.133,0.733,0.2,1.1,0.2
			C2.4,0,4.667-0.05,7.9-0.25C8.7-0.283,9.983-0.3,11.75-0.3c1.667,0,2.95-0.034,3.85-0.1c7.033-0.5,11.25-0.833,12.65-1
			c3.433-0.4,8.267-0.533,14.5-0.4c5.1,0.133,12.5-0.4,22.2-1.6c8.333-1,14.583-1.667,18.75-2c1.333-0.133,2.917-0.117,4.75,0.05
			c2.933,0.267,4.517,0.4,4.75,0.4c0.566,0.034,3.833,0.2,9.8,0.5c3.933,0.2,7.2,0.3,9.8,0.3c1.3,0,3.667-0.25,7.1-0.75
			C120.267-4.967,121.3-5.15,123-5.45z"/>
	</g>
</symbol>
<symbol  id="flash2.ai_x2F_Layer_4_x2F__x3C_Path_x3E__x5F_10_x5F_0" viewBox="-0.056 -104.35 20.756 104.341">
	<g id="Layer_1_13_">
		<linearGradient id="SVGID_15_" gradientUnits="userSpaceOnUse" x1="-0.0127" y1="-52.1426" x2="17.4123" y2="-52.1926">
			<stop  offset="0" style="stop-color:#270D0A"/>
			<stop  offset="0.102" style="stop-color:#2C1210"/>
			<stop  offset="0.2314" style="stop-color:#3A221F"/>
			<stop  offset="0.3725" style="stop-color:#513C3A"/>
			<stop  offset="0.5294" style="stop-color:#72605E"/>
			<stop  offset="0.6941" style="stop-color:#9B8F8D"/>
			<stop  offset="0.8627" style="stop-color:#CDC7C5"/>
			<stop  offset="1" style="stop-color:#FBFAF9"/>
		</linearGradient>
		<path style="fill-rule:evenodd;clip-rule:evenodd;fill:url(#SVGID_15_);" d="M14.35-23.6c0.467-4.967,0.7-11.333,0.7-19.1
			c0.034-1.566,0.083-3.9,0.15-7c0-2.733-0.1-5.066-0.3-7c-0.3-2.833-0.483-7-0.55-12.5c-0.033-7.566-0.067-11.716-0.1-12.45
			c-0.167-5.033-0.117-9.717,0.15-14.05c0.333-5.4,0.5-8.283,0.5-8.65l-10.75,0.1c-0.233,2.8-0.316,4.983-0.25,6.55
			c0.167,3.167,0.3,5.617,0.4,7.35c0.133,3.1,0.15,5.767,0.05,8c-0.033,0.867-0.267,2.733-0.7,5.6c-0.333,2.467-0.467,4.35-0.4,5.65
			C3.317-70.2,3.567-68.167,4-65c0.4,3.067,0.633,5.117,0.7,6.15c0.1,1.4-0.067,3.45-0.5,6.15c-0.434,2.6-0.534,5.15-0.3,7.65
			C4.8-34.15,3.767-23.9,0.8-14.3c-1.233,3.9-1.133,7.15,0.3,9.75c1.533,2.733,4.35,4.233,8.45,4.5c1.633,0.1,3.5,0.017,5.6-0.25
			c0.7-0.067,2.55-0.35,5.55-0.85c-0.9,0.066-1.833-0.067-2.8-0.4C16.833-1.917,16.033-2.4,15.5-3c-0.567-0.7-1.083-1.6-1.55-2.7
			c-0.5-1.133-0.817-2.117-0.95-2.95c-0.267-1.967-0.183-4.467,0.25-7.5C13.483-17.817,13.85-20.3,14.35-23.6z"/>
	</g>
</symbol>
<symbol  id="flash2.ai_x2F_Layer_4_x2F__x3C_Path_x3E__x5F_10_x5F_1" viewBox="-0.008 -100 7.148 100.006">
	<g id="Layer_1_25_">
		<path style="fill-rule:evenodd;clip-rule:evenodd;fill:#C4AC96;" d="M1.05-14C0.483-11.2,0.367-8.983,0.7-7.35
			c0.4,1.633,0.683,2.833,0.85,3.6c0.3,1.4,0.4,2.65,0.3,3.75C4.017,0.1,5.367-1.1,5.9-3.6c0.133-0.7,0.2-2.783,0.2-6.25
			c0-1.367-0.017-3.367-0.05-6c0-2.3,0.133-4.283,0.4-5.95c0.4-2.5,0.6-5.55,0.6-9.15c-0.033-5.5-0.033-8.55,0-9.15
			c0.1-2.4,0.117-5.316,0.05-8.75c0-1.967-0.033-4.883-0.1-8.75L6.85-92.5c0.033-5,0.033-7.5,0-7.5H1
			C0.267-84.3-0.067-75.733,0-74.3c0.1,1.566,0.667,5.667,1.7,12.3c0.767,5.033,0.983,9.15,0.65,12.35c-0.6,4.733-1,8.267-1.2,10.6
			c-0.333,4.066-0.233,7.617,0.3,10.65c0.566,3.533,0.816,6.1,0.75,7.7C2.167-19.833,1.783-17.6,1.05-14z"/>
	</g>
</symbol>
<symbol  id="flash2.ai_x2F_Layer_4_x2F__x3C_Path_x3E__x5F_11" viewBox="-0.006 -102.8 20.306 102.778">
	<g id="Layer_1_24_">
		<linearGradient id="SVGID_16_" gradientUnits="userSpaceOnUse" x1="0.125" y1="-51.3682" x2="13.575" y2="-51.4182">
			<stop  offset="0" style="stop-color:#270D0A"/>
			<stop  offset="0.102" style="stop-color:#2C1210"/>
			<stop  offset="0.2314" style="stop-color:#3A221F"/>
			<stop  offset="0.3725" style="stop-color:#513C3A"/>
			<stop  offset="0.5294" style="stop-color:#72605E"/>
			<stop  offset="0.6941" style="stop-color:#9B8F8D"/>
			<stop  offset="0.8627" style="stop-color:#CDC7C5"/>
			<stop  offset="1" style="stop-color:#FBFAF9"/>
		</linearGradient>
		<path style="fill-rule:evenodd;clip-rule:evenodd;fill:url(#SVGID_16_);" d="M11.6-23.7c-0.067-1.367-0.017-3.5,0.15-6.4
			c0.133-2.767,0.15-4.9,0.05-6.4c-0.066-0.767-0.15-1.9-0.25-3.4c-0.1-1.333-0.25-2.467-0.45-3.4c-0.067-0.267-0.367-1.25-0.9-2.95
			c-0.367-1.2-0.534-2.183-0.5-2.95c0.033-0.566,0.133-1.633,0.3-3.2c0.133-1.333,0.2-2.4,0.2-3.2c0-5.233-0.367-10.683-1.1-16.35
			c-0.267-1.966-0.35-3.767-0.25-5.4c0-0.367,0.167-2.183,0.5-5.45c0.133-1.2,0.267-2.733,0.4-4.6c0.167-1.467,0.4-2.633,0.7-3.5
			c1.233-3.4,1.733-7.367,1.5-11.9l-10.6,0.3c-0.3,9.233-0.5,14.233-0.6,15c-0.3,3-0.15,6.867,0.45,11.6
			c0.367,3.4,0.25,7.566-0.35,12.5C0.317-59.233,0.2-54.817,0.5-50.15c0.5,5.933,0.833,10.383,1,13.35C2-31.933,2.233-28,2.2-25
			c0,4.1-0.317,8.05-0.95,11.85c-0.533,2.1-0.9,3.717-1.1,4.85c-0.333,2.1-0.133,3.683,0.6,4.75c0.633,0.933,1.9,1.7,3.8,2.3
			c1,0.333,2.517,0.683,4.55,1.05c1.6,0.267,3.483,0.233,5.65-0.1c1.233-0.2,3.083-0.567,5.55-1.1c-3.5-0.8-5.7-1.517-6.6-2.15
			c-0.833-0.567-1.367-1.434-1.6-2.6c-0.133-0.7-0.25-1.767-0.35-3.2c-0.2-1.767-0.267-4.15-0.2-7.15
			C11.65-20.1,11.667-22.5,11.6-23.7z"/>
	</g>
</symbol>
<symbol  id="flash2.ai_x2F_Layer_4_x2F__x3C_Path_x3E__x5F_12" viewBox="-0.015 -19.689 2.34 19.689">
	<g id="Layer_1_33_">
		<path style="fill-rule:evenodd;clip-rule:evenodd;fill:#C4AC96;" d="M2.25,0c-0.267-0.5-0.5-1.2-0.7-2.1
			C1.117-3.967,1.05-6,1.35-8.2c0.4-2.7,0.683-5.216,0.85-7.55c0.167-2.367,0.167-3.667,0-3.9c-0.133-0.233-0.367,0.566-0.7,2.4
			c-0.433,2.367-0.75,4.05-0.95,5.05C-0.25-8.467-0.2-5.317,0.7-2.75C1.133-1.45,1.65-0.533,2.25,0z"/>
	</g>
</symbol>
<symbol  id="flash2.ai_x2F_Layer_4_x2F__x3C_Path_x3E__x5F_13" viewBox="0.023 -1.918 3.488 1.923">
	<g id="Layer_1_39_">
		<path style="fill-rule:evenodd;clip-rule:evenodd;fill:#7D420A;" d="M2.8-0.7c0.367,0.2,0.5,0.35,0.4,0.45
			c-0.133,0.1-0.317,0.1-0.55,0c-0.4-0.1-0.833-0.333-1.3-0.7c-0.1-0.1,0-0.1,0.3,0c0.3,0.1,0.55,0.2,0.75,0.3
			c0.2,0.1,0.05,0.066-0.45-0.1c0.066,0.067,0.3,0.167,0.7,0.3C3.35-0.117,3.267-0.233,2.4-0.8C2.133-0.967,1.783-1.1,1.35-1.2
			c-0.434-0.1-0.567-0.066-0.4,0.1C1.15-0.9,1.5-0.667,2-0.4C2.533-0.1,2.933,0.033,3.2,0c0.3-0.033,0.383-0.15,0.25-0.35
			c-0.133-0.2-0.417-0.433-0.85-0.7c-1.567-0.833-2.417-1.067-2.55-0.7C-0.05-1.583,0.133-1.333,0.6-1
			c0.367,0.267,0.767,0.5,1.2,0.7C1.467-0.467,1.167-0.7,0.9-1C0.567-1.3,0.45-1.5,0.55-1.6C0.75-1.767,1.5-1.467,2.8-0.7z"/>
	</g>
</symbol>
<symbol  id="flash2.ai_x2F_Layer_4_x2F__x3C_Path_x3E__x5F_1_x5F_0" viewBox="0.018 -36.75 3.932 36.75">
	<g id="Layer_1_21_">
		<path style="fill-rule:evenodd;clip-rule:evenodd;fill:#C4AC96;" d="M3.95,0C3.617-3.833,2.7-9.933,1.2-18.3
			c-1.034-7.5-0.817-13.65,0.65-18.45c-1.967,5.767-2.35,12.7-1.15,20.8C1.333-11.583,2.417-6.267,3.95,0z"/>
	</g>
</symbol>
<symbol  id="flash2.ai_x2F_Layer_4_x2F__x3C_Path_x3E__x5F_1_x5F_1" viewBox="0 -35.55 1.66 35.55">
	<g id="Layer_1_32_">
		<path style="fill-rule:evenodd;clip-rule:evenodd;fill:#C4AC96;" d="M0.05,0c0.1-1.567,0.333-3.7,0.7-6.4
			c0.4-2.934,0.65-5.067,0.75-6.4c0.267-2.934,0.2-6.717-0.2-11.35c-0.633-7.133-0.966-10.934-1-11.4c0.034,0.8,0.034,1.9,0,3.3
			c-0.066,1.8-0.1,2.917-0.1,3.35c0,0.767,0.117,2.1,0.35,4C0.783-23,0.9-21.65,0.9-20.85c0.033,1.733-0.083,3.883-0.35,6.45
			C0.217-11.467,0.033-9.3,0-7.9C0.1-4.1,0.117-1.467,0.05,0z"/>
	</g>
</symbol>
<symbol  id="flash2.ai_x2F_Layer_4_x2F__x3C_Path_x3E__x5F_2" viewBox="0 -4.166 27.982 4.166">
	<g id="Layer_1_10_">
		
			<linearGradient id="SVGID_17_" gradientUnits="userSpaceOnUse" x1="77.1675" y1="-16347.666" x2="100.2455" y2="-16347.666" gradientTransform="matrix(-0.0118 -0.9999 0.9999 -0.0118 16361.5322 -108.8105)">
			<stop  offset="0.0196" style="stop-color:#270D0A"/>
			<stop  offset="0.0275" style="stop-color:#2C1310"/>
			<stop  offset="0.1216" style="stop-color:#635452"/>
			<stop  offset="0.2118" style="stop-color:#918B88"/>
			<stop  offset="0.2941" style="stop-color:#B5B5B3"/>
			<stop  offset="0.3686" style="stop-color:#CFD4D2"/>
			<stop  offset="0.4353" style="stop-color:#DEE6E4"/>
			<stop  offset="0.4784" style="stop-color:#E4EDEB"/>
			<stop  offset="0.5294" style="stop-color:#DEE5E3"/>
			<stop  offset="0.6039" style="stop-color:#CCD0CE"/>
			<stop  offset="0.6941" style="stop-color:#AFAEAC"/>
			<stop  offset="0.7961" style="stop-color:#877E7C"/>
			<stop  offset="0.9098" style="stop-color:#54423F"/>
			<stop  offset="1" style="stop-color:#270D0A"/>
		</linearGradient>
		<path style="fill-rule:evenodd;clip-rule:evenodd;fill:url(#SVGID_17_);" d="M0,0c6-0.433,11.217-0.933,15.65-1.5
			c4.7-0.633,8.567-1.117,11.6-1.45c1.567-0.267,0.617-0.6-2.85-1c-3.367-0.367-6.083-0.267-8.15,0.3C13.25-2.817,7.833-1.6,0,0z"/>
	</g>
</symbol>
<symbol  id="flash2.ai_x2F_Layer_4_x2F__x3C_Path_x3E__x5F_2_x5F_0" viewBox="0.011 -15.15 1.039 15.1">
	<g id="Layer_1_20_">
		<path style="fill-rule:evenodd;clip-rule:evenodd;fill:#C4AC96;" d="M0.15-0.05c0.567-3.8,0.867-6.367,0.9-7.7
			c0-1.2-0.183-3.667-0.55-7.4C0-11.317-0.117-6.283,0.15-0.05z"/>
	</g>
</symbol>
<symbol  id="flash2.ai_x2F_Layer_4_x2F__x3C_Path_x3E__x5F_2_x5F_1" viewBox="-0.011 -26.45 5.261 26.45">
	<g id="Layer_1_31_">
		
			<linearGradient id="SVGID_18_" gradientUnits="userSpaceOnUse" x1="-584.0488" y1="-610.396" x2="-550.1887" y2="-610.396" gradientTransform="matrix(0.9975 -0.071 0.071 0.9975 598.2749 556.3857)">
			<stop  offset="0" style="stop-color:#270D0A"/>
			<stop  offset="0.0157" style="stop-color:#2E1410"/>
			<stop  offset="0.1804" style="stop-color:#684D40"/>
			<stop  offset="0.3216" style="stop-color:#937663"/>
			<stop  offset="0.4314" style="stop-color:#AD9078"/>
			<stop  offset="0.498" style="stop-color:#B79980"/>
			<stop  offset="0.5647" style="stop-color:#AF927A"/>
			<stop  offset="0.6627" style="stop-color:#997E69"/>
			<stop  offset="0.7882" style="stop-color:#765E4C"/>
			<stop  offset="0.9333" style="stop-color:#453226"/>
			<stop  offset="1" style="stop-color:#2B1A11"/>
		</linearGradient>
		<path style="fill-rule:evenodd;clip-rule:evenodd;fill:url(#SVGID_18_);" d="M2.15-2.05C2.417-1.783,2.983-1.1,3.85,0
			c0.2-0.3,0.233-0.767,0.1-1.4C3.783-2.167,3.7-2.617,3.7-2.75l0.15-2.7c0-3.1,0.217-5.35,0.65-6.75
			c0.333-1.066,0.583-2.683,0.75-4.85l-2.1-9.4c0.733,4.567,0.934,7.417,0.6,8.55c-0.267,0.833-0.917,2.417-1.95,4.75
			c-0.933,2-1.5,3.583-1.7,4.75C-0.3-6,0.383-3.883,2.15-2.05z"/>
	</g>
</symbol>
<symbol  id="flash2.ai_x2F_Layer_4_x2F__x3C_Path_x3E__x5F_2_x5F_2" viewBox="0 -5.8 1.528 5.8">
	<g id="Layer_1_38_">
		<path style="fill-rule:evenodd;clip-rule:evenodd;fill:#270D0A;" d="M1.4,0c0.267-1.733,0.117-3.217-0.45-4.45
			C0.65-5.083,0.333-5.533,0-5.8C0.933-4.533,1.4-2.6,1.4,0z"/>
	</g>
</symbol>
<symbol  id="flash2.ai_x2F_Layer_4_x2F__x3C_Path_x3E__x5F_3" viewBox="0.024 -10.879 127.676 10.921">
	<g id="Layer_1_9_">
		
			<linearGradient id="SVGID_19_" gradientUnits="userSpaceOnUse" x1="86.6045" y1="-16301.7969" x2="104.832" y2="-16301.7969" gradientTransform="matrix(-0.0123 -0.9999 0.9999 -0.0123 16365.5684 -112.9521)">
			<stop  offset="0.0196" style="stop-color:#270D0A"/>
			<stop  offset="0.0275" style="stop-color:#2C1310"/>
			<stop  offset="0.1216" style="stop-color:#635452"/>
			<stop  offset="0.2118" style="stop-color:#918B88"/>
			<stop  offset="0.2941" style="stop-color:#B5B5B3"/>
			<stop  offset="0.3686" style="stop-color:#CFD4D2"/>
			<stop  offset="0.4353" style="stop-color:#DEE6E4"/>
			<stop  offset="0.4784" style="stop-color:#E4EDEB"/>
			<stop  offset="0.5294" style="stop-color:#DEE5E3"/>
			<stop  offset="0.6039" style="stop-color:#CCD0CE"/>
			<stop  offset="0.6941" style="stop-color:#AFAEAC"/>
			<stop  offset="0.7961" style="stop-color:#877E7C"/>
			<stop  offset="0.9098" style="stop-color:#54423F"/>
			<stop  offset="1" style="stop-color:#270D0A"/>
		</linearGradient>
		<path style="fill-rule:evenodd;clip-rule:evenodd;fill:url(#SVGID_19_);" d="M125.95-9.55c-2.133,0.3-4.184,0.55-6.15,0.75
			c-3.867,0.466-7.033,0.633-9.5,0.5c-6-0.867-11.133-1.534-15.4-2c-8.066-0.9-13.983-0.75-17.75,0.45
			c-4.333,1.4-11.017,2.833-20.05,4.3c-8.367,1.367-15.217,2.233-20.55,2.6c-3.367,0.233-10.566,0.367-21.6,0.4
			C5.35-2.483,0.433-2.367,0.2-2.2C-0.1-2-0.017-1.833,0.45-1.7c0.867,0.133,1.6,0.267,2.2,0.4C13.183-0.067,20.867,0.317,25.7-0.15
			c0.733-0.067,4.316-0.483,10.75-1.25c4.233-0.5,7.683-0.783,10.35-0.85c3.667-0.1,6.55-0.283,8.65-0.55
			c2.633-0.367,6.3-1.083,11-2.15c5.6-1.267,10.066-2.15,13.4-2.65c4.233-0.667,8.05-0.95,11.45-0.85c2.8,0.1,5.917,0.35,9.35,0.75
			c3.7,0.467,5.967,0.717,6.8,0.75c7.9,0.5,13.066,0.4,15.5-0.3c2.066-0.6,3.65-0.933,4.75-1c0-0.233-0.083-0.467-0.25-0.7
			C127.15-9.383,126.65-9.583,125.95-9.55z"/>
	</g>
</symbol>
<symbol  id="flash2.ai_x2F_Layer_4_x2F__x3C_Path_x3E__x5F_3_x5F_0" viewBox="0.033 -21.6 2.442 21.525">
	<g id="Layer_1_19_">
		
			<linearGradient id="SVGID_20_" gradientUnits="userSpaceOnUse" x1="269.1558" y1="260.1367" x2="304.5261" y2="260.1367" gradientTransform="matrix(0.9994 0.0339 -0.0339 0.9994 -271.4502 -280.4082)">
			<stop  offset="0" style="stop-color:#270D0A"/>
			<stop  offset="0.0157" style="stop-color:#2E1410"/>
			<stop  offset="0.1804" style="stop-color:#684D40"/>
			<stop  offset="0.3216" style="stop-color:#937663"/>
			<stop  offset="0.4314" style="stop-color:#AD9078"/>
			<stop  offset="0.498" style="stop-color:#B79980"/>
			<stop  offset="0.5647" style="stop-color:#AF927A"/>
			<stop  offset="0.6627" style="stop-color:#997E69"/>
			<stop  offset="0.7882" style="stop-color:#765E4C"/>
			<stop  offset="0.9333" style="stop-color:#453226"/>
			<stop  offset="1" style="stop-color:#2B1A11"/>
		</linearGradient>
		<path style="fill-rule:evenodd;clip-rule:evenodd;fill:url(#SVGID_20_);" d="M0.1-5.7c0.098,2.067,0.89,3.942,2.375,5.625
			C1.754-0.95,1.329-2.292,1.2-4.1C1.167-5.267,1.25-6.633,1.45-8.2c0.066-0.9,0.017-2.283-0.15-4.15c-0.167-1.833-0.2-3.2-0.1-4.1
			c0.066-0.5,0.2-1.2,0.4-2.1c0.162-0.909,0.162-1.926,0-3.05c0.045,0.407-0.072,1.091-0.35,2.05c-0.333,1.167-0.517,1.9-0.55,2.2
			c-0.133,1.833-0.267,3.2-0.4,4.1C0.033-11.583-0.033-9.067,0.1-5.7z"/>
	</g>
</symbol>
<symbol  id="flash2.ai_x2F_Layer_4_x2F__x3C_Path_x3E__x5F_3_x5F_1" viewBox="0.018 -27.1 4.632 27.1">
	<g id="Layer_1_30_">
		
			<linearGradient id="SVGID_21_" gradientUnits="userSpaceOnUse" x1="-579.8994" y1="-608.6655" x2="-548.7715" y2="-608.6655" gradientTransform="matrix(0.9975 -0.0708 0.0708 0.9975 596.2383 554.6221)">
			<stop  offset="0" style="stop-color:#270D0A"/>
			<stop  offset="0.0157" style="stop-color:#2E1410"/>
			<stop  offset="0.1804" style="stop-color:#684D40"/>
			<stop  offset="0.3216" style="stop-color:#937663"/>
			<stop  offset="0.4314" style="stop-color:#AD9078"/>
			<stop  offset="0.498" style="stop-color:#B79980"/>
			<stop  offset="0.5647" style="stop-color:#AF927A"/>
			<stop  offset="0.6627" style="stop-color:#997E69"/>
			<stop  offset="0.7882" style="stop-color:#765E4C"/>
			<stop  offset="0.9333" style="stop-color:#453226"/>
			<stop  offset="1" style="stop-color:#2B1A11"/>
		</linearGradient>
		<path style="fill-rule:evenodd;clip-rule:evenodd;fill:url(#SVGID_21_);" d="M0.1-10.8c-0.333,3.066,0.35,5.783,2.05,8.15
			C2.65-1.917,3.167-1.033,3.7,0c0.167-0.4,0.2-0.983,0.1-1.75l-0.3-1.8l0.1-7.75c0.033-1.633,0.183-3.067,0.45-4.3
			c0.3-1.367,0.5-3.417,0.6-6.15L3.9-27.1c-0.167,1.333-0.4,2.733-0.7,4.2c-0.2,1.1-0.767,3.117-1.7,6.05
			C0.7-14.317,0.233-12.3,0.1-10.8z"/>
	</g>
</symbol>
<symbol  id="flash2.ai_x2F_Layer_4_x2F__x3C_Path_x3E__x5F_3_x5F_2" viewBox="0 -5.161 3.75 5.161">
	<g id="Layer_1_37_">
		<path style="fill-rule:evenodd;clip-rule:evenodd;fill:#270D0A;" d="M3.75,0c-0.567-2.467-1.667-4.183-3.3-5.15
			C0.283-5.217,0.133-4.983,0-4.45C1.1-3.983,2.05-3.1,2.85-1.8C3.25-1.167,3.55-0.567,3.75,0z"/>
	</g>
</symbol>
<symbol  id="flash2.ai_x2F_Layer_4_x2F__x3C_Path_x3E__x5F_4" viewBox="0 -11.558 130.2 11.59">
	<g id="Layer_1_8_">
		
			<linearGradient id="SVGID_22_" gradientUnits="userSpaceOnUse" x1="85.4917" y1="-16297.4229" x2="117.321" y2="-16297.4229" gradientTransform="matrix(-0.0119 -0.9999 0.9999 -0.0119 16362.4229 -109.7246)">
			<stop  offset="0.0196" style="stop-color:#270D0A"/>
			<stop  offset="0.0275" style="stop-color:#2C1310"/>
			<stop  offset="0.1216" style="stop-color:#635452"/>
			<stop  offset="0.2118" style="stop-color:#918B88"/>
			<stop  offset="0.2941" style="stop-color:#B5B5B3"/>
			<stop  offset="0.3686" style="stop-color:#CFD4D2"/>
			<stop  offset="0.4353" style="stop-color:#DEE6E4"/>
			<stop  offset="0.4784" style="stop-color:#E4EDEB"/>
			<stop  offset="0.5294" style="stop-color:#DEE5E3"/>
			<stop  offset="0.6039" style="stop-color:#CCD0CE"/>
			<stop  offset="0.6941" style="stop-color:#AFAEAC"/>
			<stop  offset="0.7961" style="stop-color:#877E7C"/>
			<stop  offset="0.9098" style="stop-color:#54423F"/>
			<stop  offset="1" style="stop-color:#270D0A"/>
		</linearGradient>
		<path style="fill-rule:evenodd;clip-rule:evenodd;fill:url(#SVGID_22_);" d="M129.05-11.45c-0.066-0.367-3.767,0.2-11.1,1.7
			c-8.2,1.667-13.7,2.283-16.5,1.85c-3.434-0.533-7.034-0.617-10.8-0.25c-2.8,0.233-6,0.767-9.6,1.6c-2.5,0.533-5.316,0.867-8.45,1
			L68.65-5.5C57.55-5.7,50.233-5.767,46.7-5.7c-1.833,0.034-5.9,0.333-12.2,0.9C28.067-4.2,24-3.883,22.3-3.85
			c-3.533,0.067-10.966,0-22.3-0.2l0.35,3.5c1.733,0.533,6.417,0.7,14.05,0.5c8.767-0.233,15.45-1.067,20.05-2.5
			c4.4-1.367,9.7-2.034,15.9-2C54.017-4.517,59.9-4.283,68-3.85c5.467,0.133,10.083,0,13.85-0.4c2.167-0.233,5.017-0.667,8.55-1.3
			c2.2-0.333,7.15-0.233,14.85,0.3c8.6,0.567,13.6,0.833,15,0.8c4-0.133,7.317-0.05,9.95,0.25
			C129.933-6.767,129.55-9.183,129.05-11.45z"/>
	</g>
</symbol>
<symbol  id="flash2.ai_x2F_Layer_4_x2F__x3C_Path_x3E__x5F_4_x5F_0" viewBox="-0.017 -17.65 1.192 17.65">
	<g id="Layer_1_18_">
		
			<linearGradient id="SVGID_23_" gradientUnits="userSpaceOnUse" x1="269.9854" y1="256.9551" x2="285.0187" y2="256.9551" gradientTransform="matrix(0.9994 0.0333 -0.0333 0.9994 -266.2021 -274.8032)">
			<stop  offset="0" style="stop-color:#270D0A"/>
			<stop  offset="0.0157" style="stop-color:#2E1410"/>
			<stop  offset="0.1804" style="stop-color:#684D40"/>
			<stop  offset="0.3216" style="stop-color:#937663"/>
			<stop  offset="0.4314" style="stop-color:#AD9078"/>
			<stop  offset="0.498" style="stop-color:#B79980"/>
			<stop  offset="0.5647" style="stop-color:#AF927A"/>
			<stop  offset="0.6627" style="stop-color:#997E69"/>
			<stop  offset="0.7882" style="stop-color:#765E4C"/>
			<stop  offset="0.9333" style="stop-color:#453226"/>
			<stop  offset="1" style="stop-color:#2B1A11"/>
		</linearGradient>
		<path style="fill-rule:evenodd;clip-rule:evenodd;fill:url(#SVGID_23_);" d="M0.3,0c0.4-1.667,0.667-4.033,0.8-7.1
			c0.066-0.566,0-1.45-0.2-2.65c-0.2-1.2-0.283-2.067-0.25-2.6c0.067-0.5,0.2-1.2,0.4-2.1c0.167-0.966,0.167-2.033,0-3.2
			c-0.8,2.3-1.15,5.233-1.05,8.8C0.267-4.85,0.367-1.9,0.3,0z"/>
	</g>
</symbol>
<symbol  id="flash2.ai_x2F_Layer_4_x2F__x3C_Path_x3E__x5F_4_x5F_1" viewBox="0 -27.05 3.55 27.05">
	<g id="Layer_1_29_">
		<path style="fill-rule:evenodd;clip-rule:evenodd;fill:#C4AC96;" d="M3.35-20L2.8-22c-0.367-1.433-0.617-3.117-0.75-5.05H0
			c0.333,2.033,0.583,3.6,0.75,4.7c0.233,1.833,0.367,3.8,0.4,5.9c0,0.233-0.2,2.617-0.6,7.15C0.25-5.867,0.333-2.767,0.8,0
			C0.733-2.467,1.1-5.3,1.9-8.5c0.934-3.633,1.434-6,1.5-7.1c0.1-1.6,0.15-2.5,0.15-2.7C3.55-18.9,3.483-19.467,3.35-20z"/>
	</g>
</symbol>
<symbol  id="flash2.ai_x2F_Layer_4_x2F__x3C_Path_x3E__x5F_4_x5F_2" viewBox="0 -3.056 2.85 2.706">
	<g id="Layer_1_36_">
		<path style="fill-rule:evenodd;clip-rule:evenodd;fill:#270D0A;" d="M2.85-0.35c-0.374-1.174-0.94-1.975-1.7-2.4
			C0.75-2.983,0.367-3.083,0-3.05C1.067-2.583,1.883-1.933,2.45-1.1C2.626-0.835,2.76-0.585,2.85-0.35z"/>
	</g>
</symbol>
<symbol  id="flash2.ai_x2F_Layer_4_x2F__x3C_Path_x3E__x5F_5" viewBox="0 -2.95 50.15 2.95">
	<g id="Layer_1_7_">
		
			<linearGradient id="SVGID_24_" gradientUnits="userSpaceOnUse" x1="-438.5596" y1="-463.373" x2="-388.3565" y2="-463.373" gradientTransform="matrix(0.9985 -0.0554 0.0554 0.9985 463.5386 437.877)">
			<stop  offset="0" style="stop-color:#B78038"/>
			<stop  offset="1" style="stop-color:#B5A680"/>
		</linearGradient>
		<path style="fill-rule:evenodd;clip-rule:evenodd;fill:url(#SVGID_24_);" d="M0,0c4.4-0.5,9.783-0.983,16.15-1.45
			c12.733-0.9,24.067-1.2,34-0.9c-4.233-0.4-9.517-0.6-15.85-0.6C21.7-2.95,10.267-1.967,0,0z"/>
	</g>
</symbol>
<symbol  id="flash2.ai_x2F_Layer_4_x2F__x3C_Path_x3E__x5F_5_x5F_0" viewBox="0.022 -90.65 9.778 90.65">
	<g id="Layer_1_17_">
		
			<linearGradient id="SVGID_25_" gradientUnits="userSpaceOnUse" x1="256.8281" y1="224.4404" x2="296.7759" y2="224.4404" gradientTransform="matrix(0.9994 0.0338 -0.0338 0.9994 -270.4082 -279.2935)">
			<stop  offset="0" style="stop-color:#270D0A"/>
			<stop  offset="0.0157" style="stop-color:#2E1410"/>
			<stop  offset="0.1804" style="stop-color:#684D40"/>
			<stop  offset="0.3216" style="stop-color:#937663"/>
			<stop  offset="0.4314" style="stop-color:#AD9078"/>
			<stop  offset="0.498" style="stop-color:#B79980"/>
			<stop  offset="0.5647" style="stop-color:#AF927A"/>
			<stop  offset="0.6627" style="stop-color:#997E69"/>
			<stop  offset="0.7882" style="stop-color:#765E4C"/>
			<stop  offset="0.9333" style="stop-color:#453226"/>
			<stop  offset="1" style="stop-color:#2B1A11"/>
		</linearGradient>
		<path style="fill-rule:evenodd;clip-rule:evenodd;fill:url(#SVGID_25_);" d="M3.25-7.5C4.783-5.967,5.9-4.817,6.6-4.05
			C7.8-2.717,8.6-1.367,9,0C8.967-0.467,8.967-1.317,9-2.55C9.033-3.65,9-4.5,8.9-5.1C8.767-5.9,8.433-6.533,7.9-7
			C7.167-7.533,6.567-7.967,6.1-8.3c-2.6-1.833-3.983-4.534-4.15-8.1c-0.167-3.067,0.333-6.45,1.5-10.15
			c0.367-1.267,1.183-2.95,2.45-5.05c1.267-2.167,2.083-3.833,2.45-5c0.566-1.767,0.95-3.85,1.15-6.25
			c0.133-1.4,0.233-3.533,0.3-6.4c-0.566,1.167-1.083,2.817-1.55,4.95c-0.6,2.8-1,4.5-1.2,5.1c-0.3,1.067-0.867,2.4-1.7,4
			c-0.934,1.8-1.55,3.1-1.85,3.9c-0.033,0.066-0.217,0.767-0.55,2.1c-0.2,0.833-0.467,1.483-0.8,1.95
			c-0.467-0.833-0.633-2.25-0.5-4.25c0.033-0.7,0.2-2.15,0.5-4.35c1.3-10.667,2.167-18.833,2.6-24.5C5.417-70.117,5.8-76.3,5.9-78.9
			c0.167-4.4,0.25-8.317,0.25-11.75c-0.433,2.667-0.867,6.017-1.3,10.05c-0.167,1.533-0.467,5.25-0.9,11.15
			c-0.4,5.367-0.784,9.467-1.15,12.3c-0.333,2.533-0.683,6.133-1.05,10.8c-0.4,5.033-0.733,8.633-1,10.8
			C0.417-33.283,0.2-31.6,0.1-30.5c-0.167,1.867-0.067,3.55,0.3,5.05l0.3,1.65c0.033,3.8,0.066,6.65,0.1,8.55
			C0.867-11.917,1.683-9.333,3.25-7.5z"/>
	</g>
</symbol>
<symbol  id="flash2.ai_x2F_Layer_4_x2F__x3C_Path_x3E__x5F_5_x5F_1" viewBox="0.016 -91.9 14.283 91.791">
	<g id="Layer_1_28_">
		<path style="fill-rule:evenodd;clip-rule:evenodd;fill:#C4AC96;" d="M3.85-8.95c-0.1,1.5,0.033,2.567,0.4,3.2
			c0.7,0.867,1.333,1.85,1.9,2.95C6.25-2.633,6.533-1.833,7-0.4C7.167,0.133,7.317-0.067,7.45-1c0.1-1.067-0.034-2.067-0.4-3
			c-0.5-1.2-0.8-2.217-0.9-3.05c-0.3-3.4-0.117-6.833,0.55-10.3c0.466-2.267,1.133-5.483,2-9.65c0.667-3.6,0.983-6.867,0.95-9.8
			c-0.033-2.7,0.617-6.233,1.95-10.6c1.5-4.8,2.35-8.267,2.55-10.4l0.15-1.95c-0.566,1.833-1.383,4.117-2.45,6.85
			c-1.633,4.333-2.5,6.633-2.6,6.9c-0.767,2.1-1.267,4.55-1.5,7.35c-0.067,0.967-0.117,3.467-0.15,7.5c0,1.033-0.117,2.45-0.35,4.25
			c-0.233,1.967-0.367,3.383-0.4,4.25c-1-6.067-1.55-11.483-1.65-16.25c-0.034-2.067,0.15-4.517,0.55-7.35
			c0.1-0.733,0.433-2.783,1-6.15c0.367-2.233,1.183-5.633,2.45-10.2c0.133-0.5,0.25-1.217,0.35-2.15
			c0.133-0.967,0.25-1.667,0.35-2.1c0.2-1,0.267-2.783,0.2-5.35c-0.067-2.3-0.283-4.15-0.65-5.55c-0.3-0.933-0.383-2.067-0.25-3.4
			c0.133-1.9,0.2-3.033,0.2-3.4c-0.4,1.1-0.633,2.417-0.7,3.95c0,1.8,0,3.15,0,4.05c0.033,3.367-0.4,7.1-1.3,11.2
			c-0.367,1.434-0.65,2.533-0.85,3.3c-0.367,1.4-0.533,2.466-0.5,3.2c-0.233,2.233-0.683,1.733-1.35-1.5
			c-1.133-5.533-1.75-8.45-1.85-8.75c-0.8-2.5-1.2-4.95-1.2-7.35c0-1.466,0.067-3.933,0.2-7.4c0-0.333,0.2-1.533,0.6-3.6
			c0.3-1.733,0.35-3.216,0.15-4.45c-0.8,3.066-1.383,5.316-1.75,6.75c-0.667,2.6-0.934,4.9-0.8,6.9c0.333,5.567,1,10.367,2,14.4
			c0.233,0.833,0.417,2.067,0.55,3.7c0.167,1.7,0.35,2.95,0.55,3.75c0.934,3.833,1.184,7.133,0.75,9.9
			c-0.5,2.867-0.767,4.45-0.8,4.75C2.9-40.017,2.883-38.433,3.05-37l0.5,3.6c0.633,3.9,1,6.217,1.1,6.95
			c0.367,2.633,0.533,4.95,0.5,6.95c-0.033,1.267-0.233,3.017-0.6,5.25C4.15-11.75,3.917-9.983,3.85-8.95z"/>
	</g>
</symbol>
<symbol  id="flash2.ai_x2F_Layer_4_x2F__x3C_Path_x3E__x5F_5_x5F_2" viewBox="0 -1.392 2.55 1.392">
	<g id="Layer_1_35_">
		<path style="fill-rule:evenodd;clip-rule:evenodd;fill:#270D0A;" d="M0-1.35C1-1.283,1.85-0.833,2.55,0
			C2.45-0.3,2.267-0.567,2-0.8C1.467-1.3,0.8-1.483,0-1.35z"/>
	</g>
</symbol>
<symbol  id="flash2.ai_x2F_Layer_4_x2F__x3C_Path_x3E__x5F_6" viewBox="-0.01 -25.187 29.563 25.176">
	<g id="Layer_1_6_">
		<g>
			
				<linearGradient id="SVGID_26_" gradientUnits="userSpaceOnUse" x1="-356.0059" y1="-384.4072" x2="-327.2967" y2="-384.4072" gradientTransform="matrix(0.999 -0.0448 0.0448 0.999 373.1455 356.2441)">
				<stop  offset="0" style="stop-color:#E4EDEB"/>
				<stop  offset="0.0039" style="stop-color:#DEE6E4"/>
				<stop  offset="0.0353" style="stop-color:#B8B9B7"/>
				<stop  offset="0.0706" style="stop-color:#95908D"/>
				<stop  offset="0.1098" style="stop-color:#786C6A"/>
				<stop  offset="0.149" style="stop-color:#5E4F4C"/>
				<stop  offset="0.1922" style="stop-color:#4A3634"/>
				<stop  offset="0.2431" style="stop-color:#3A2421"/>
				<stop  offset="0.302" style="stop-color:#2F1714"/>
				<stop  offset="0.3765" style="stop-color:#290F0C"/>
				<stop  offset="0.5255" style="stop-color:#270D0A"/>
				<stop  offset="0.6118" style="stop-color:#2A100D"/>
				<stop  offset="0.6745" style="stop-color:#331A17"/>
				<stop  offset="0.6745" style="stop-color:#331A17;stop-opacity:0"/>
				<stop  offset="1" style="stop-color:#000000;stop-opacity:0"/>
			</linearGradient>
			<path style="fill-rule:evenodd;clip-rule:evenodd;fill:url(#SVGID_26_);" d="M23.4-0.2c2.1,0.267,4.017,0.25,5.75-0.05
				c0.233-1.867,0.35-2.983,0.35-3.35C29.533-4.667,29.367-5.8,29-7c-0.633-2.067-0.917-4.183-0.85-6.35
				c0.033-1.733,0.3-3.85,0.8-6.35c0.433-2.267,0.633-3.617,0.6-4.05c-0.066-1-0.65-1.467-1.75-1.4
				c-0.767,0.033-2.15,0.167-4.15,0.4c-1.8,0.2-3.2,0.317-4.2,0.35c-1.367,0.033-3.25-0.117-5.65-0.45c-2.233-0.3-4.1-0.4-5.6-0.3
				c-1.534,0.133-2.617,0.217-3.25,0.25c-1.034,0.066-2.184,0.1-3.45,0.1c-0.667,2.333-1.117,5.05-1.35,8.15
				c-0.267,3.3-0.2,6.1,0.2,8.4c0.367,2.333,0.633,3.8,0.8,4.4C1.583-2.217,2.1-1.1,2.7-0.5c1.333,0.3,3.283,0.45,5.85,0.45
				c2.267-0.067,5.667-0.233,10.2-0.5C19.483-0.617,21.033-0.5,23.4-0.2z"/>
			
				<linearGradient id="SVGID_27_" gradientUnits="userSpaceOnUse" x1="-356.0059" y1="-384.4072" x2="-327.2967" y2="-384.4072" gradientTransform="matrix(0.999 -0.0448 0.0448 0.999 373.1455 356.2441)">
				<stop  offset="0" style="stop-color:#000000;stop-opacity:0"/>
				<stop  offset="0.6745" style="stop-color:#331A17;stop-opacity:0"/>
				<stop  offset="0.6745" style="stop-color:#331A17"/>
				<stop  offset="0.7373" style="stop-color:#422B27"/>
				<stop  offset="0.7922" style="stop-color:#57423F"/>
				<stop  offset="0.8431" style="stop-color:#72605D"/>
				<stop  offset="0.8941" style="stop-color:#948582"/>
				<stop  offset="0.9451" style="stop-color:#BCB1AD"/>
				<stop  offset="0.9922" style="stop-color:#E9E3DF"/>
				<stop  offset="1" style="stop-color:#F2EDE9"/>
			</linearGradient>
			<path style="fill-rule:evenodd;clip-rule:evenodd;fill:url(#SVGID_27_);" d="M23.4-0.2c2.1,0.267,4.017,0.25,5.75-0.05
				c0.233-1.867,0.35-2.983,0.35-3.35C29.533-4.667,29.367-5.8,29-7c-0.633-2.067-0.917-4.183-0.85-6.35
				c0.033-1.733,0.3-3.85,0.8-6.35c0.433-2.267,0.633-3.617,0.6-4.05c-0.066-1-0.65-1.467-1.75-1.4
				c-0.767,0.033-2.15,0.167-4.15,0.4c-1.8,0.2-3.2,0.317-4.2,0.35c-1.367,0.033-3.25-0.117-5.65-0.45c-2.233-0.3-4.1-0.4-5.6-0.3
				c-1.534,0.133-2.617,0.217-3.25,0.25c-1.034,0.066-2.184,0.1-3.45,0.1c-0.667,2.333-1.117,5.05-1.35,8.15
				c-0.267,3.3-0.2,6.1,0.2,8.4c0.367,2.333,0.633,3.8,0.8,4.4C1.583-2.217,2.1-1.1,2.7-0.5c1.333,0.3,3.283,0.45,5.85,0.45
				c2.267-0.067,5.667-0.233,10.2-0.5C19.483-0.617,21.033-0.5,23.4-0.2z"/>
		</g>
	</g>
</symbol>
<symbol  id="flash2.ai_x2F_Layer_4_x2F__x3C_Path_x3E__x5F_6_x5F_0" viewBox="0.005 -104.5 10.297 104.5">
	<g id="Layer_1_15_">
		<path style="fill-rule:evenodd;clip-rule:evenodd;fill:#C4AC96;" d="M5.5-20.1c0.3-4.4,0.45-6.75,0.45-7.05
			C6.017-28.283,6-29.333,5.9-30.3c-0.066-1.367-0.267-3.083-0.6-5.15c-0.167-1.133-0.417-2.833-0.75-5.1
			C4.45-41.483,4.267-42.833,4-44.6c-0.233-1.566-0.283-2.917-0.15-4.05c0.433-3.1,0.65-5.25,0.65-6.45
			c-0.067-1.533-0.2-2.85-0.4-3.95c-0.167-0.833-0.467-2.1-0.9-3.8c-0.1-0.667-0.15-1.65-0.15-2.95
			c-0.267-2.267-0.417-3.534-0.45-3.8c-0.067-1.433,0.033-2.683,0.3-3.75c0.033-0.066,0.184-0.816,0.45-2.25
			c0.2-0.867,0.433-1.583,0.7-2.15c0.267,0.567,0.483,1.333,0.65,2.3l0.4,2.35c0.633,2.7,1.533,5.317,2.7,7.85
			c0.467,1.067,0.75,2.383,0.85,3.95c0.133,1.533-0.117,4-0.75,7.4c-0.3,1.033-0.467,1.833-0.5,2.4c0.133,1.167,0.2,2.033,0.2,2.6
			c0,0.6-0.067,1.25-0.2,1.95C7.233-46.183,7.1-45.567,7-45.1c-0.233,1.1-0.233,2.383,0,3.85c0.367,1.7,0.6,3,0.7,3.9
			c0.533,3.9,0.85,7.083,0.95,9.55c0.7-3.167,0.8-6.217,0.3-9.15c-0.6-3.367-0.883-5.2-0.85-5.5c0.033-0.2,0.217-1.35,0.55-3.45
			c0.1-0.567,0.133-1.217,0.1-1.95c-0.033-0.433-0.117-1.083-0.25-1.95c-0.1-1.067-0.133-1.883-0.1-2.45
			c0.033-0.733,0.217-1.5,0.55-2.3c0.933-2.3,1.383-4.083,1.35-5.35c0-0.967-0.2-2.283-0.6-3.95c-0.133-0.566-0.417-1.35-0.85-2.35
			c-0.467-1.033-0.767-1.8-0.9-2.3c-0.233-0.967-0.7-2.417-1.4-4.35c-0.367-1.233-0.65-3.1-0.85-5.6c-0.3-1.7-0.55-3.683-0.75-5.95
			c-0.067-0.833-0.083-1.9-0.05-3.2c0-0.7,0.017-1.75,0.05-3.15c0-3.367,0.083-7.167,0.25-11.4l0.05-2.35H3.3
			c0.1,4.267-0.017,7.617-0.35,10.05c-0.167,1.267-0.233,2.483-0.2,3.65c0,0.8,0.083,2.417,0.25,4.85
			c0.133,1.867-0.117,4.45-0.75,7.75c-0.667,3.567-1,6.15-1,7.75c0,1.367,0.15,2.983,0.45,4.85c0.433,2.133,0.733,3.733,0.9,4.8
			c0.2,0.966,0.433,2.533,0.7,4.7c0.2,1.667,0.167,3.4-0.1,5.2c-0.4,3.033-0.617,4.683-0.65,4.95c-0.167,1.833-0.183,3.5-0.05,5
			C3-37.517,3.35-34.9,3.55-33.1c0.333,3.1,0.217,5.717-0.35,7.85c-0.667,2.433-1.133,5.1-1.4,8c-0.733,3.367-1.25,6.067-1.55,8.1
			C-0.317-5.383,0.1-2.817,1.5-1.45c0.733,0.7,2.083,1.117,4.05,1.25c1.1,0.067,2.6,0.133,4.5,0.2C8.583-2,7.5-4.033,6.8-6.1
			c-0.733-2.033-1.183-4.316-1.35-6.85C5.283-14.883,5.3-17.267,5.5-20.1z"/>
	</g>
</symbol>
<symbol  id="flash2.ai_x2F_Layer_4_x2F__x3C_Path_x3E__x5F_6_x5F_1" viewBox="0.032 -30.9 5.787 30.9">
	<g id="Layer_1_27_">
		<path style="fill-rule:evenodd;clip-rule:evenodd;fill:#C4AC96;" d="M1.45,0C1.483-1.6,1.967-3.533,2.9-5.8
			c1.434-3.4,2.184-5.233,2.25-5.5c0.7-2.367,0.85-4.534,0.45-6.5c-0.167-0.8-0.55-1.7-1.15-2.7c-0.333-0.567-0.867-1.383-1.6-2.45
			c-1.467-2.633-2.3-5.283-2.5-7.95c-0.367,0.667-0.417,1.733-0.15,3.2c0.2,1.034,0.716,2.417,1.55,4.15
			c0.9,1.933,1.467,3.333,1.7,4.2c0.8,2.967,0.95,5.55,0.45,7.75c-0.133,0.667-0.583,1.883-1.35,3.65
			C1.917-6.417,1.567-5.167,1.5-4.2C1.467-3.733,1.45-2.333,1.45,0z"/>
	</g>
</symbol>
<symbol  id="flash2.ai_x2F_Layer_4_x2F__x3C_Path_x3E__x5F_6_x5F_2" viewBox="-0.049 -19.35 9.649 19.35">
	<g id="Layer_1_34_">
		
			<linearGradient id="SVGID_28_" gradientUnits="userSpaceOnUse" x1="5288.7324" y1="2997.5615" x2="5295.7041" y2="2997.5615" gradientTransform="matrix(0.8599 0.5104 -0.5104 0.8599 -3016.0176 -5288.6333)">
			<stop  offset="0" style="stop-color:#270D0A"/>
			<stop  offset="0.102" style="stop-color:#2C1210"/>
			<stop  offset="0.2314" style="stop-color:#3A221F"/>
			<stop  offset="0.3725" style="stop-color:#513C3A"/>
			<stop  offset="0.5294" style="stop-color:#72605E"/>
			<stop  offset="0.6941" style="stop-color:#9B8F8D"/>
			<stop  offset="0.8627" style="stop-color:#CDC7C5"/>
			<stop  offset="1" style="stop-color:#FBFAF9"/>
		</linearGradient>
		<path style="fill-rule:evenodd;clip-rule:evenodd;fill:url(#SVGID_28_);" d="M9.6-10.3c-0.2-2.1-0.317-3.217-0.35-3.35
			c-0.467-3.4-0.8-5.267-1-5.6c-0.233-0.4-0.683,0.4-1.35,2.4c-0.167,1.033-0.316,1.817-0.45,2.35c-0.267,0.967-0.817,1.9-1.65,2.8
			C2.633-9.3,1.233-7.083,0.6-5.05C-0.1-2.817-0.233-1.367,0.2-0.7C0.4-0.3,0.75-0.067,1.25,0C0.917-0.767,1.067-1.783,1.7-3.05
			l1.65-2.7c0.433-0.7,1.717-2.233,3.85-4.6c0.5-0.633,0.9-0.883,1.2-0.75C8.633-11.033,9.033-10.767,9.6-10.3z"/>
	</g>
</symbol>
<symbol  id="flash2.ai_x2F_Layer_4_x2F__x3C_Path_x3E__x5F_7" viewBox="-0.017 -25.425 35.898 25.415">
	<g id="Layer_1_5_">
		<g>
			
				<linearGradient id="SVGID_29_" gradientUnits="userSpaceOnUse" x1="-354.3301" y1="-382.71" x2="-319.4886" y2="-382.71" gradientTransform="matrix(0.999 -0.0446 0.0446 0.999 371.3027 354.5615)">
				<stop  offset="0" style="stop-color:#E4EDEB"/>
				<stop  offset="0.0039" style="stop-color:#DEE6E4"/>
				<stop  offset="0.0353" style="stop-color:#B8B9B7"/>
				<stop  offset="0.0706" style="stop-color:#95908D"/>
				<stop  offset="0.1098" style="stop-color:#786C6A"/>
				<stop  offset="0.149" style="stop-color:#5E4F4C"/>
				<stop  offset="0.1922" style="stop-color:#4A3634"/>
				<stop  offset="0.2431" style="stop-color:#3A2421"/>
				<stop  offset="0.302" style="stop-color:#2F1714"/>
				<stop  offset="0.3765" style="stop-color:#290F0C"/>
				<stop  offset="0.5255" style="stop-color:#270D0A"/>
				<stop  offset="0.6118" style="stop-color:#2A100D"/>
				<stop  offset="0.6745" style="stop-color:#331A17"/>
				<stop  offset="0.6745" style="stop-color:#331A17;stop-opacity:0"/>
				<stop  offset="1" style="stop-color:#000000;stop-opacity:0"/>
			</linearGradient>
			<path style="fill-rule:evenodd;clip-rule:evenodd;fill:url(#SVGID_29_);" d="M22.9-0.1c0.5-0.033,2.184-0.05,5.05-0.05
				c2.1,0,4.25-0.167,6.45-0.5c0.333-2.067-0.05-4.567-1.15-7.5c-0.667-1.9-0.833-3.684-0.5-5.35c0.2-1.033,0.7-2.817,1.5-5.35
				c0.3-1.133,0.817-2.633,1.55-4.5c0.3-1.3-0.233-1.983-1.6-2.05c-1.267-0.067-2.934,0-5,0.2c-2.633,0.233-4.317,0.367-5.05,0.4
				c-1.5,0.033-3.633-0.034-6.4-0.2c-2.333-0.167-4.467-0.183-6.4-0.05c-1.333,0.066-2.8,0.083-4.4,0.05
				c-2.034-0.067-3.8-0.1-5.3-0.1c-0.8,2.233-1.316,5.117-1.55,8.65C-0.133-12.883-0.017-9.9,0.45-7.5c0.333,2,0.633,3.467,0.9,4.4
				C1.583-2.3,1.767-1.783,1.9-1.55c0.2,0.4,0.5,0.767,0.9,1.1c1.934,0.267,4.617,0.367,8.05,0.3c1.1-0.033,3.117,0,6.05,0.1
				C19.367,0.017,21.367,0,22.9-0.1z"/>
			
				<linearGradient id="SVGID_30_" gradientUnits="userSpaceOnUse" x1="-354.3301" y1="-382.71" x2="-319.4886" y2="-382.71" gradientTransform="matrix(0.999 -0.0446 0.0446 0.999 371.3027 354.5615)">
				<stop  offset="0" style="stop-color:#000000;stop-opacity:0"/>
				<stop  offset="0.6745" style="stop-color:#331A17;stop-opacity:0"/>
				<stop  offset="0.6745" style="stop-color:#331A17"/>
				<stop  offset="0.7373" style="stop-color:#422B27"/>
				<stop  offset="0.7922" style="stop-color:#57423F"/>
				<stop  offset="0.8431" style="stop-color:#72605D"/>
				<stop  offset="0.8941" style="stop-color:#948582"/>
				<stop  offset="0.9451" style="stop-color:#BCB1AD"/>
				<stop  offset="0.9922" style="stop-color:#E9E3DF"/>
				<stop  offset="1" style="stop-color:#F2EDE9"/>
			</linearGradient>
			<path style="fill-rule:evenodd;clip-rule:evenodd;fill:url(#SVGID_30_);" d="M22.9-0.1c0.5-0.033,2.184-0.05,5.05-0.05
				c2.1,0,4.25-0.167,6.45-0.5c0.333-2.067-0.05-4.567-1.15-7.5c-0.667-1.9-0.833-3.684-0.5-5.35c0.2-1.033,0.7-2.817,1.5-5.35
				c0.3-1.133,0.817-2.633,1.55-4.5c0.3-1.3-0.233-1.983-1.6-2.05c-1.267-0.067-2.934,0-5,0.2c-2.633,0.233-4.317,0.367-5.05,0.4
				c-1.5,0.033-3.633-0.034-6.4-0.2c-2.333-0.167-4.467-0.183-6.4-0.05c-1.333,0.066-2.8,0.083-4.4,0.05
				c-2.034-0.067-3.8-0.1-5.3-0.1c-0.8,2.233-1.316,5.117-1.55,8.65C-0.133-12.883-0.017-9.9,0.45-7.5c0.333,2,0.633,3.467,0.9,4.4
				C1.583-2.3,1.767-1.783,1.9-1.55c0.2,0.4,0.5,0.767,0.9,1.1c1.934,0.267,4.617,0.367,8.05,0.3c1.1-0.033,3.117,0,6.05,0.1
				C19.367,0.017,21.367,0,22.9-0.1z"/>
		</g>
	</g>
</symbol>
<symbol  id="flash2.ai_x2F_Layer_4_x2F__x3C_Path_x3E__x5F_7_x5F_0" viewBox="-0.006 -103.4 7.606 103.4">
	<g id="Layer_1_26_">
		<path style="fill-rule:evenodd;clip-rule:evenodd;fill:#C4AC96;" d="M1.25-24.7c0.033,2.434-0.083,4.617-0.35,6.55
			c-0.566,4-0.867,6.5-0.9,7.5c-0.067,2.7,0.45,5.133,1.55,7.3C2.283-1.917,3.1-1.033,4-0.7C4.567-0.5,5.767-0.267,7.6,0
			C5.7-1.8,4.417-3.533,3.75-5.2c-0.6-1.533-0.883-3.617-0.85-6.25c0-1.1,0.067-3.55,0.2-7.35c0.066-3,0.066-5.434,0-7.3
			c-0.033-0.733,0.05-1.867,0.25-3.4c0.2-1.5,0.267-2.633,0.2-3.4c-0.033-0.567-0.183-1.4-0.45-2.5c-0.233-1.067-0.383-1.9-0.45-2.5
			c-0.4-5.367-0.316-9.367,0.25-12C4.2-56,4.833-61.45,4.8-66.25c-0.033-2.633-0.233-5.3-0.6-8c-0.167-1.133-0.583-3.567-1.25-7.3
			c-0.4-2.3-0.617-4.333-0.65-6.1c-0.033-1.033,0.034-2.8,0.2-5.3C2.667-95.617,2.833-99.1,3-103.4H0.3
			c0.434,4.367,0.467,8.117,0.1,11.25c-0.233,1.8-0.25,3.4-0.05,4.8c0.333,2.367,0.533,4.233,0.6,5.6
			C1.317-73.417,1.8-67.6,2.4-64.3c0.233,1.333,0.1,4.267-0.4,8.8c-0.633,5.233-1.067,8.883-1.3,10.95
			c-0.2,1.933-0.267,4.133-0.2,6.6c0.067,1.233,0.2,3.434,0.4,6.6C1.1-28.383,1.217-26.167,1.25-24.7z"/>
	</g>
</symbol>
<symbol  id="flash2.ai_x2F_Layer_4_x2F__x3C_Path_x3E__x5F_8" viewBox="0 -25.54 31.75 25.507">
	<g id="Layer_1_4_">
		<g>
			
				<linearGradient id="SVGID_31_" gradientUnits="userSpaceOnUse" x1="-353.9004" y1="-382.4985" x2="-323.1888" y2="-382.4985" gradientTransform="matrix(0.999 -0.0446 0.0446 0.999 370.9634 354.2529)">
				<stop  offset="0" style="stop-color:#E4EDEB"/>
				<stop  offset="0.0039" style="stop-color:#DEE6E4"/>
				<stop  offset="0.0353" style="stop-color:#B8B9B7"/>
				<stop  offset="0.0706" style="stop-color:#95908D"/>
				<stop  offset="0.1098" style="stop-color:#786C6A"/>
				<stop  offset="0.149" style="stop-color:#5E4F4C"/>
				<stop  offset="0.1922" style="stop-color:#4A3634"/>
				<stop  offset="0.2431" style="stop-color:#3A2421"/>
				<stop  offset="0.302" style="stop-color:#2F1714"/>
				<stop  offset="0.3765" style="stop-color:#290F0C"/>
				<stop  offset="0.5255" style="stop-color:#270D0A"/>
				<stop  offset="0.6118" style="stop-color:#2A100D"/>
				<stop  offset="0.6745" style="stop-color:#331A17"/>
				<stop  offset="0.6745" style="stop-color:#331A17;stop-opacity:0"/>
				<stop  offset="1" style="stop-color:#000000;stop-opacity:0"/>
			</linearGradient>
			<path style="fill-rule:evenodd;clip-rule:evenodd;fill:url(#SVGID_31_);" d="M31.45-1.7c0.2-1.4,0.283-2.283,0.25-2.65
				c-0.034-0.533-0.25-1.433-0.65-2.7c-0.667-2.067-0.966-4.184-0.9-6.35c0.033-1.733,0.317-3.85,0.85-6.35
				c0.5-2.367,0.75-3.717,0.75-4.05c-0.033-1-0.683-1.55-1.95-1.65c-1.133-0.1-2.583-0.117-4.35-0.05l-4.35,0.2
				c-6.9,0.133-11.5,0.283-13.8,0.45c-1.533,0.033-2.583,0.083-3.15,0.15c-0.867,0.067-1.933,0.233-3.2,0.5
				C0.317-22.1,0-19.483,0-16.35c0,2.8,0.233,5.517,0.7,8.15C1.033-6,1.3-4.533,1.5-3.8c0.4,1.633,0.95,2.75,1.65,3.35
				c1.567,0.333,3.633,0.467,6.2,0.4c2.367-0.034,5.983-0.217,10.85-0.55C25.133-0.9,28.883-1.267,31.45-1.7z"/>
			
				<linearGradient id="SVGID_32_" gradientUnits="userSpaceOnUse" x1="-353.9004" y1="-382.4985" x2="-323.1888" y2="-382.4985" gradientTransform="matrix(0.999 -0.0446 0.0446 0.999 370.9634 354.2529)">
				<stop  offset="0" style="stop-color:#000000;stop-opacity:0"/>
				<stop  offset="0.6745" style="stop-color:#331A17;stop-opacity:0"/>
				<stop  offset="0.6745" style="stop-color:#331A17"/>
				<stop  offset="0.7373" style="stop-color:#422B27"/>
				<stop  offset="0.7922" style="stop-color:#57423F"/>
				<stop  offset="0.8431" style="stop-color:#72605D"/>
				<stop  offset="0.8941" style="stop-color:#948582"/>
				<stop  offset="0.9451" style="stop-color:#BCB1AD"/>
				<stop  offset="0.9922" style="stop-color:#E9E3DF"/>
				<stop  offset="1" style="stop-color:#F2EDE9"/>
			</linearGradient>
			<path style="fill-rule:evenodd;clip-rule:evenodd;fill:url(#SVGID_32_);" d="M31.45-1.7c0.2-1.4,0.283-2.283,0.25-2.65
				c-0.034-0.533-0.25-1.433-0.65-2.7c-0.667-2.067-0.966-4.184-0.9-6.35c0.033-1.733,0.317-3.85,0.85-6.35
				c0.5-2.367,0.75-3.717,0.75-4.05c-0.033-1-0.683-1.55-1.95-1.65c-1.133-0.1-2.583-0.117-4.35-0.05l-4.35,0.2
				c-6.9,0.133-11.5,0.283-13.8,0.45c-1.533,0.033-2.583,0.083-3.15,0.15c-0.867,0.067-1.933,0.233-3.2,0.5
				C0.317-22.1,0-19.483,0-16.35c0,2.8,0.233,5.517,0.7,8.15C1.033-6,1.3-4.533,1.5-3.8c0.4,1.633,0.95,2.75,1.65,3.35
				c1.567,0.333,3.633,0.467,6.2,0.4c2.367-0.034,5.983-0.217,10.85-0.55C25.133-0.9,28.883-1.267,31.45-1.7z"/>
		</g>
	</g>
</symbol>
<symbol  id="flash2.ai_x2F_Layer_4_x2F__x3C_Path_x3E__x5F_9" viewBox="-0.003 -26.688 56.259 26.656">
	<g id="Layer_1_3_">
		
			<linearGradient id="SVGID_33_" gradientUnits="userSpaceOnUse" x1="-356.1582" y1="-385.1396" x2="-310.9284" y2="-385.1396" gradientTransform="matrix(0.999 -0.0449 0.0449 0.999 373.6514 356.7061)">
			<stop  offset="0" style="stop-color:#E4EDEB"/>
			<stop  offset="0.0039" style="stop-color:#DEE6E4"/>
			<stop  offset="0.0353" style="stop-color:#B8B9B7"/>
			<stop  offset="0.0706" style="stop-color:#95908D"/>
			<stop  offset="0.1098" style="stop-color:#786C6A"/>
			<stop  offset="0.149" style="stop-color:#5E4F4C"/>
			<stop  offset="0.1922" style="stop-color:#4A3634"/>
			<stop  offset="0.2431" style="stop-color:#3A2421"/>
			<stop  offset="0.302" style="stop-color:#2F1714"/>
			<stop  offset="0.3765" style="stop-color:#290F0C"/>
			<stop  offset="0.5255" style="stop-color:#270D0A"/>
			<stop  offset="0.5882" style="stop-color:#3A221F"/>
			<stop  offset="0.7098" style="stop-color:#6B5855"/>
			<stop  offset="0.7098" style="stop-color:#6B5855;stop-opacity:0"/>
			<stop  offset="1" style="stop-color:#000000;stop-opacity:0"/>
		</linearGradient>
		<path style="fill-rule:evenodd;clip-rule:evenodd;fill:url(#SVGID_33_);" d="M41.95-21.15c2.066-0.833,6.767-2.567,14.1-5.2
			c1-0.433-1.633-0.45-7.9-0.05c-7.5,0.467-11.633,0.683-12.4,0.65c-1.367-0.067-3.1-0.05-5.2,0.05c-2.3,0.133-4.033,0.217-5.2,0.25
			c-9.167,0.233-14.667,0.417-16.5,0.55c-1.833,0.1-3.1,0.167-3.8,0.2c-1.1,0.067-2.383,0.25-3.85,0.55
			c-0.767,2.1-1.167,4.733-1.2,7.9c-0.033,2.8,0.217,5.517,0.75,8.15c0.5,2.467,0.817,3.934,0.95,4.4
			c0.533,1.633,1.183,2.733,1.95,3.3c1.733,0.3,4.2,0.417,7.4,0.35c3.9-0.133,8.217-0.367,12.95-0.7l4.6-0.3
			c1.533-0.133,3.566-0.383,6.1-0.75c0-0.1-0.017-1.983-0.05-5.65c-0.033-2.933,0.333-5.4,1.1-7.4
			C36.85-17.817,38.917-19.917,41.95-21.15z"/>
		
			<linearGradient id="SVGID_34_" gradientUnits="userSpaceOnUse" x1="-356.1582" y1="-385.1396" x2="-310.9284" y2="-385.1396" gradientTransform="matrix(0.999 -0.0449 0.0449 0.999 373.6514 356.7061)">
			<stop  offset="0" style="stop-color:#000000;stop-opacity:0"/>
			<stop  offset="0.7098" style="stop-color:#6B5855;stop-opacity:0"/>
			<stop  offset="0.7098" style="stop-color:#6B5855"/>
			<stop  offset="0.8824" style="stop-color:#B9AEAB"/>
			<stop  offset="1" style="stop-color:#F2EDE9"/>
		</linearGradient>
		<path style="fill-rule:evenodd;clip-rule:evenodd;fill:url(#SVGID_34_);" d="M41.95-21.15c2.066-0.833,6.767-2.567,14.1-5.2
			c1-0.433-1.633-0.45-7.9-0.05c-7.5,0.467-11.633,0.683-12.4,0.65c-1.367-0.067-3.1-0.05-5.2,0.05c-2.3,0.133-4.033,0.217-5.2,0.25
			c-9.167,0.233-14.667,0.417-16.5,0.55c-1.833,0.1-3.1,0.167-3.8,0.2c-1.1,0.067-2.383,0.25-3.85,0.55
			c-0.767,2.1-1.167,4.733-1.2,7.9c-0.033,2.8,0.217,5.517,0.75,8.15c0.5,2.467,0.817,3.934,0.95,4.4
			c0.533,1.633,1.183,2.733,1.95,3.3c1.733,0.3,4.2,0.417,7.4,0.35c3.9-0.133,8.217-0.367,12.95-0.7l4.6-0.3
			c1.533-0.133,3.566-0.383,6.1-0.75c0-0.1-0.017-1.983-0.05-5.65c-0.033-2.933,0.333-5.4,1.1-7.4
			C36.85-17.817,38.917-19.917,41.95-21.15z"/>
	</g>
</symbol>
<symbol  id="flash2.ai_x2F_Layer_4_x2F__x3C_Path_x3E__x5F_9_x5F_0" viewBox="0.023 -101.012 7.727 101.012">
	<g id="Layer_1_14_">
		<path style="fill-rule:evenodd;clip-rule:evenodd;fill:#C4AC96;" d="M7.05-7c0.333-1.6,0.417-3.867,0.25-6.8
			c-0.2-3.667-0.283-5.934-0.25-6.8c0.1-2.867,0.217-7.483,0.35-13.85c0.1-6,0.217-10.617,0.35-13.85L6.6-100.95
			C5.733-100.983,4.867-101,4-101c-1.733-0.033-2.6,0-2.6,0.1l0.2,4.85c-0.033,0.5-0.117,1.15-0.25,1.95
			c-0.167,1-0.267,1.633-0.3,1.9L0.3-86.25c-0.4,2.933-0.367,7.05,0.1,12.35c0.434,5.8,0.95,10.367,1.55,13.7
			c0.533,2.967,0.783,5.117,0.75,6.45c0,0.5,0.066,1.45,0.2,2.85c0.133,1.167,0.15,2.083,0.05,2.75
			c-0.833,4.6-1.333,8.483-1.5,11.65C1.383-34.967,1.4-33.133,1.5-31c0.133,2.433,0.217,4.267,0.25,5.5
			c0.033,0.8-0.017,1.85-0.15,3.15c-0.2,1.533-0.3,2.583-0.3,3.15c0,1.034,0.3,3.184,0.9,6.45c0.533,2.733,0.617,4.883,0.25,6.45
			c-0.2,1.1-0.4,2-0.6,2.7C1.517-2.333,0.967-1.133,0.2,0c2.333-0.467,4.05-1.383,5.15-2.75C6.117-3.717,6.683-5.133,7.05-7z"/>
	</g>
</symbol>
<g>
	<g>
		<g>
			
				<radialGradient id="SVGID_35_" cx="59.5869" cy="78.9961" r="35.3006" gradientTransform="matrix(0.9964 0.0843 0.0312 -0.5202 -7.1866 119.9704)" gradientUnits="userSpaceOnUse">
				<stop  offset="0.4353" style="stop-color:#D7C8BA"/>
				<stop  offset="0.5882" style="stop-color:#CDC1B5"/>
				<stop  offset="0.8471" style="stop-color:#B3AEA8"/>
				<stop  offset="1" style="stop-color:#A0A09E"/>
			</radialGradient>
			<path style="fill-rule:evenodd;clip-rule:evenodd;fill:url(#SVGID_35_);" d="M81.3,71.65c2.467-0.034,4.5,0.333,6.101,1.1
				c-0.534,0.1-1.5,0.167-2.9,0.2c-1.233,0.033-2.2,0.133-2.9,0.3c-0.1,0.033-0.267,0.15-0.5,0.35
				c-0.199,0.167-0.433,0.25-0.699,0.25l-2.801,0.2c-0.866-0.066-1.449,0.117-1.75,0.55c-0.433,0.733-0.783,2.467-1.05,5.2
				c-0.033-0.434-0.1-1.899-0.2-4.399c-0.033-0.834-0.233-1.384-0.6-1.65c-0.267-0.167-0.75-0.25-1.45-0.25s-1.166,0.083-1.399,0.25
				c-0.101,0.066-0.25,0.316-0.45,0.75c-0.2,0.4-0.351,0.616-0.45,0.65c-0.333,0.133-0.517,0.116-0.55-0.051
				c-0.066-0.3-0.217-0.5-0.45-0.6c-0.533-0.233-1.017-0.35-1.45-0.35c-0.033,0-0.583,0.017-1.649,0.05l-0.2-0.55
				c-0.434,0.1-0.783,0.449-1.05,1.05c-0.433,0.934-0.667,1.434-0.7,1.5c-0.2-0.8-0.417-1.45-0.65-1.95
				c-0.267,0.5-0.383,1.366-0.35,2.6c0.033,0.667,0.083,1.584,0.15,2.75V86.9c-0.067-0.4-0.184-1.9-0.35-4.5
				c-0.133-1.834-0.367-3.284-0.7-4.351c-0.1,0.134-0.183,0.2-0.25,0.2c-0.066-0.9-0.15-1.616-0.25-2.15c-0.2-1-0.55-1.433-1.05-1.3
				C60.383,74.9,60.133,75.434,60,76.4c-0.067,0.533-0.133,1.233-0.2,2.1c-0.2-0.4-0.417-1.167-0.65-2.3
				c-0.2-1.033-0.45-1.767-0.75-2.2c-0.7,0.333-1.283,0.467-1.75,0.4c-0.267-0.067-0.8-0.317-1.6-0.75
				c-0.933-0.5-1.533-0.767-1.8-0.801c-0.433-0.1-1.05,0.017-1.85,0.351c-0.8,0.333-1.316,0.399-1.55,0.2
				c-0.9-0.7-1.367-1.067-1.4-1.101c-0.667-0.333-1.284-0.45-1.85-0.35c-0.633,0.1-1.083,0.483-1.35,1.149
				c-0.033-0.6-0.133-1.199-0.3-1.8c-0.434,0-1.083,0.101-1.95,0.3c0,0.334-0.133,0.733-0.4,1.2c-0.067-0.233-0.35-0.684-0.85-1.35
				c-0.033,0.2-0.167,0.5-0.4,0.899c-0.2-0.633-0.317-1.133-0.35-1.5c-0.933,0.101-2.383-0.25-4.35-1.05
				c-1.967-0.833-3.483-1.184-4.55-1.05c0.667-0.333,1.7-0.366,3.1-0.1c0.733,0.133,1.75,0.35,3.05,0.649
				c1,0.134,2.483,0.167,4.45,0.101c3.167-0.134,5.35-0.15,6.55-0.051l4.35,0.4c1.767,0.167,3.217,0.333,4.35,0.5
				c2.3,0.366,5.15,0.667,8.55,0.9c1.9,0.133,4.75,0.316,8.55,0.55L81.3,71.65z"/>
			
				<radialGradient id="SVGID_36_" cx="16.4028" cy="79.3379" r="17.4749" gradientTransform="matrix(0.9964 0.0844 0.0315 -0.52 -7.2913 120.4744)" gradientUnits="userSpaceOnUse">
				<stop  offset="0.4353" style="stop-color:#D7C8BA"/>
				<stop  offset="0.5882" style="stop-color:#CDC1B5"/>
				<stop  offset="0.8471" style="stop-color:#B3AEA8"/>
				<stop  offset="1" style="stop-color:#A0A09E"/>
			</radialGradient>
			<path style="fill-rule:evenodd;clip-rule:evenodd;fill:url(#SVGID_36_);" d="M22.95,66.95c2.167,0.2,3.633,0.816,4.4,1.85
				c0.967,1.267,0.85,2.117-0.35,2.55c-1.067,0.367-2.133,0.267-3.2-0.3c-0.933-0.5-1.533-0.767-1.8-0.8
				c-0.433-0.1-1.05,0.017-1.85,0.35c-0.767,0.334-1.283,0.4-1.55,0.2c-0.9-0.733-1.367-1.1-1.4-1.1
				c-0.667-0.334-1.284-0.45-1.85-0.351c-0.633,0.067-1.083,0.434-1.35,1.101c-0.2-1.9-1.117-2.134-2.75-0.7
				c-1.333,1.167-2.333,2.434-3,3.8c-1.367,2.733-2.142,5.325-2.325,7.775c0.053-1.093,0.178-2.451,0.375-4.075
				c0.3-2.333,0.45-4.066,0.45-5.2c-0.333,0.667-0.6,1.483-0.8,2.45c-0.1,0.533-0.267,1.35-0.5,2.45
				c0.167-1.334,0.267-2.417,0.3-3.25c0.133-1.533,0.033-2.5-0.3-2.9L4.8,71.4c-0.233-1.467-0.75-1.934-1.55-1.4
				c0.067-1.3-0.017-2.217-0.25-2.75c-0.333-0.833-1.05-1.2-2.15-1.1c0.667-0.334,1.7-0.367,3.1-0.101C4.683,66.184,5.7,66.4,7,66.7
				c1.267,0.133,2.75,0.166,4.45,0.1c3.167-0.133,5.35-0.149,6.55-0.05C18.867,66.85,20.517,66.917,22.95,66.95z"/>
			<g>
				
					<linearGradient id="SVGID_37_" gradientUnits="userSpaceOnUse" x1="25.0791" y1="-68.4253" x2="46.7182" y2="-68.4253" gradientTransform="matrix(-0.0557 0.9984 -0.9984 -0.0557 3.128760e-004 2.042204e-005)">
					<stop  offset="0" style="stop-color:#AE915E"/>
					<stop  offset="0.4784" style="stop-color:#856040"/>
					<stop  offset="1" style="stop-color:#3D2400"/>
				</linearGradient>
				<path style="fill-rule:evenodd;clip-rule:evenodd;fill:url(#SVGID_37_);" d="M116.5,70.15
					c-7.366-0.567-12.316-0.684-14.85-0.351c-8.9,1.2-21.067,0.867-36.5-1c-6.867-0.8-16.367-1.383-28.5-1.75
					C21.983,66.65,14.017,66.4,12.75,66.3c-6-0.366-9.15-0.6-9.45-0.7c-0.7-0.233-1.367-1.5-2-3.8c-0.433-1.5-0.633-3.583-0.6-6.25
					c0-1.233,0.1-4.05,0.3-8.45c0.033-0.767,0.25-1.45,0.65-2.05l0.55-0.7c2.1-1.533,12.6-1.583,31.5-0.15c25.833,2,39.2,3,40.1,3
					c6.601,0.133,18,0.017,34.2-0.35c13.167-0.133,20.35,0.4,21.55,1.6c0.467,0.466,0.816,1.283,1.05,2.45
					c-0.1,1.267-0.316,2.583-0.649,3.95c-0.334,1.4-0.533,2.367-0.601,2.9c0-0.4-1.35-0.6-4.05-0.6
					c-2.7,0.033-4.066,0.183-4.1,0.449c-0.033,0.233,1.184,0.634,3.649,1.2c2.767,0.601,4.217,0.934,4.351,1
					c0.066,0.066,0.083,0.316,0.05,0.75c0,0.566,0.066,1.117,0.2,1.65c-0.967,5.366-1.684,8.149-2.15,8.35
					C126.833,70.816,123.233,70.684,116.5,70.15z"/>
				
					<linearGradient id="SVGID_38_" gradientUnits="userSpaceOnUse" x1="23.082" y1="-68.458" x2="67.561" y2="-68.458" gradientTransform="matrix(-0.0555 0.9985 -0.9985 -0.0555 -2.802312e-004 1.926161e-004)">
					<stop  offset="0" style="stop-color:#AE915E"/>
					<stop  offset="0.4784" style="stop-color:#856040"/>
					<stop  offset="1" style="stop-color:#3D2400"/>
				</linearGradient>
				<path style="fill-rule:evenodd;clip-rule:evenodd;fill:url(#SVGID_38_);" d="M116.95,73.4
					c-7.334-0.534-12.283-0.634-14.851-0.301c-8.699,1.167-20.866,0.834-36.5-1c-6.933-0.833-16.433-1.416-28.5-1.75
					c-15.233-0.466-23.2-0.716-23.9-0.75C9.467,69.366,6.017,69.15,2.85,68.95C1.583,68.783,0.9,68.333,0.8,67.6
					C0.233,63.2,0.1,58.267,0.4,52.8l0.65-6.9c2.1-1.533,12.9-1.566,32.4-0.1c26.466,2.034,40.133,3.05,41,3.05
					c6.6,0.133,18.066-0.017,34.399-0.45c13.334-0.167,20.584,0.35,21.75,1.55c0.367,0.367,0.417,1.583,0.15,3.649
					c-0.066,0.601-0.267,1.884-0.6,3.851c-0.167,1.133-0.301,2.733-0.4,4.8c-0.1,2.3-0.2,3.884-0.3,4.75
					c-0.3,4.1-0.867,6.384-1.7,6.85C127.283,74.083,123.684,73.934,116.95,73.4z"/>
				
					<use xlink:href="#flash2.ai_x2F_Layer_4_x2F__x3C_Path_x3E__x5F_10"  width="128.7" height="6.557" y="-6.607" transform="matrix(1 0 0 -1 0.6499 67.4004)" style="overflow:visible;opacity:0.4805;enable-background:new    ;"/>
				
					<use xlink:href="#flash2.ai_x2F_Layer_4_x2F__x3C_Path_x3E__x5F_9"  width="56.259" height="26.656" x="-0.003" y="-26.688" transform="matrix(1 0 0 -1 2.7998 44.6001)" style="overflow:visible;opacity:0.4414;enable-background:new    ;"/>
				
					<use xlink:href="#flash2.ai_x2F_Layer_4_x2F__x3C_Path_x3E__x5F_8"  width="31.75" height="25.507" y="-25.54" transform="matrix(1 0 0 -1 5 44.6499)" style="overflow:visible;opacity:0.4414;enable-background:new    ;"/>
				
					<use xlink:href="#flash2.ai_x2F_Layer_4_x2F__x3C_Path_x3E__x5F_7"  width="35.898" height="25.415" x="-0.017" y="-25.425" transform="matrix(1 0 0 -1 91.5 48.5498)" style="overflow:visible;opacity:0.4414;enable-background:new    ;"/>
				
					<use xlink:href="#flash2.ai_x2F_Layer_4_x2F__x3C_Path_x3E__x5F_6"  width="29.563" height="25.176" x="-0.01" y="-25.187" transform="matrix(1 0 0 -1 94.8496 48.6001)" style="overflow:visible;opacity:0.4414;enable-background:new    ;"/>
				
					<use xlink:href="#flash2.ai_x2F_Layer_4_x2F__x3C_Path_x3E__x5F_5"  width="50.15" height="2.95" y="-2.95" transform="matrix(1 0 0 -1 41.3999 46.4502)" style="overflow:visible;enable-background:new    ;"/>
				
					<use xlink:href="#flash2.ai_x2F_Layer_4_x2F__x3C_Path_x3E__x5F_4"  width="130.2" height="11.59" y="-11.558" transform="matrix(1 0 0 -1 0.3501 49.0498)" style="overflow:visible;opacity:0.4414;enable-background:new    ;"/>
				
					<use xlink:href="#flash2.ai_x2F_Layer_4_x2F__x3C_Path_x3E__x5F_3"  width="127.676" height="10.921" x="0.024" y="-10.879" transform="matrix(1 0 0 -1 2.2998 55.4502)" style="overflow:visible;opacity:0.4414;enable-background:new    ;"/>
				
					<use xlink:href="#flash2.ai_x2F_Layer_4_x2F__x3C_Path_x3E__x5F_2"  width="27.982" height="4.166" y="-4.166" transform="matrix(1 0 0 -1 67.25 57)" style="overflow:visible;opacity:0.4414;enable-background:new    ;"/>
				
					<use xlink:href="#flash2.ai_x2F_Layer_4_x2F__x3C_Path_x3E__x5F_1"  width="73.2" height="13.4" y="-13.4" transform="matrix(1 0 0 -1 0 59.4004)" style="overflow:visible;opacity:0.2305;enable-background:new    ;"/>
				
					<use xlink:href="#flash2.ai_x2F_Layer_4_x2F__x3C_Path_x3E_"  width="19.3" height="5.95" y="-5.95" transform="matrix(1 0 0 -1 83.7998 67.7998)" style="overflow:visible;opacity:0.2305;enable-background:new    ;"/>
			</g>
		</g>
		
			<use xlink:href="#flash2.ai_x2F_Layer_4_x2F__x3C_Clip_Group_0_x3E_"  width="29.706" height="105.25" x="-0.056" y="-105.25" transform="matrix(1 0 0 -1 4.1001 0)" style="overflow:visible;"/>
		<g>
			<linearGradient id="SVGID_39_" gradientUnits="userSpaceOnUse" x1="123.1602" y1="54.0225" x2="97.6852" y2="53.9475">
				<stop  offset="0" style="stop-color:#AE915E"/>
				<stop  offset="0.4784" style="stop-color:#856040"/>
				<stop  offset="1" style="stop-color:#704C2E"/>
			</linearGradient>
			<path style="fill-rule:evenodd;clip-rule:evenodd;fill:url(#SVGID_39_);" d="M121.95,33.35c0.333,4.233,0.483,7.933,0.45,11.1
				c0,1.133,0.149,3.583,0.449,7.35c0.233,3.033,0.233,5.483,0,7.351c-0.267,2.199-0.666,5.3-1.199,9.3
				c-0.367,3.399-0.567,6.483-0.601,9.25c-0.066,4.733,0.167,8.767,0.7,12.1l0.8,5.601c0.066,0.366,0.167,2,0.3,4.899
				c0.134,2.9,0.184,4.483,0.15,4.75L98.3,105l-0.1-2.15c-0.033-1.899-0.167-3.699-0.4-5.399C97.333,93.884,97.4,90.767,98,88.1
				c0.333-1.366,0.5-3.066,0.5-5.1c0.033-2.1,0.2-3.816,0.5-5.15c0.7-3,0.6-7.383-0.3-13.149c-0.934-6-1.167-10.384-0.7-13.15
				c0.3-1.633,0.45-3.75,0.45-6.35c0.033-3.233,0.083-5.35,0.149-6.35c0.301-3.067,0.517-5.383,0.65-6.95
				c0.2-2.7,0.167-5.017-0.1-6.95c-0.467-3.934-0.767-6.784-0.9-8.55c-0.267-3.3-0.333-6.233-0.2-8.8
				c0.834-2.567,4.45-4.083,10.851-4.55c6.433-0.466,10.483,0.517,12.149,2.95c0.4,0.533,0.55,2.033,0.45,4.5
				c-0.066,1.4-0.217,3.517-0.45,6.35c-0.2,3.4-0.033,7.533,0.5,12.4L121.95,33.35z"/>
			
				<use xlink:href="#flash2.ai_x2F_Layer_4_x2F__x3C_Clip_Group_0_x3E__x5F_0"  width="28.718" height="103.55" x="0.032" y="-103.55" transform="matrix(1 0 0 -1 96.7998 1.7998)" style="overflow:visible;"/>
		</g>
	</g>
	<g>
		
			<linearGradient id="SVGID_40_" gradientUnits="userSpaceOnUse" x1="94.3184" y1="11.9893" x2="105.3823" y2="11.9893" gradientTransform="matrix(0.9921 0.1257 -0.1257 0.9921 2.726912e-004 -2.495795e-004)">
			<stop  offset="0" style="stop-color:#AE915E"/>
			<stop  offset="0.4784" style="stop-color:#856040"/>
			<stop  offset="1" style="stop-color:#704C2E"/>
		</linearGradient>
		<path style="fill-rule:evenodd;clip-rule:evenodd;fill:url(#SVGID_40_);" d="M102.4,21.4c0.566,2.167,0.666,4.6,0.3,7.3
			c-0.467,3.333-0.917,5.3-1.351,5.9c-0.433,0.633-0.983-0.067-1.649-2.1c-0.233-1.1-0.467-1.967-0.7-2.6
			c-0.366-1.133-0.967-2.15-1.8-3.05c-1.834-1.967-3.134-4.184-3.9-6.65c-0.666-2.133-0.833-3.534-0.5-4.2
			c0.134-0.233,0.65-0.55,1.55-0.95c0.967-0.433,1.75-0.65,2.351-0.65l0.149,0.2c0.134,0.233,0.301,0.633,0.5,1.2
			c0.267,0.8,0.917,1.633,1.95,2.5c1.033,0.9,1.767,1.117,2.2,0.65L102.4,21.4z"/>
		
			<use xlink:href="#flash2.ai_x2F_Layer_4_x2F__x3C_Path_x3E__x5F_6_x5F_2"  width="9.649" height="19.35" x="-0.049" y="-19.35" transform="matrix(1 0 0 -1 93.0996 15.0498)" style="overflow:visible;opacity:0.4297;enable-background:new    ;"/>
		
			<use xlink:href="#flash2.ai_x2F_Layer_4_x2F__x3C_Path_x3E__x5F_5_x5F_2"  width="2.55" height="1.392" y="-1.392" transform="matrix(1 0 0 -1 93.5 16.75)" style="overflow:visible;opacity:0.2891;enable-background:new    ;"/>
		
			<use xlink:href="#flash2.ai_x2F_Layer_4_x2F__x3C_Path_x3E__x5F_4_x5F_2"  width="2.85" height="2.706" y="-3.056" transform="matrix(1 0 0 -1 94.1504 17.25)" style="overflow:visible;opacity:0.2891;enable-background:new    ;"/>
		
			<use xlink:href="#flash2.ai_x2F_Layer_4_x2F__x3C_Path_x3E__x5F_3_x5F_2"  width="3.75" height="5.161" y="-5.161" transform="matrix(1 0 0 -1 94.6504 18.7002)" style="overflow:visible;opacity:0.2891;enable-background:new    ;"/>
		
			<use xlink:href="#flash2.ai_x2F_Layer_4_x2F__x3C_Path_x3E__x5F_2_x5F_2"  width="1.528" height="5.8" y="-5.8" transform="matrix(1 0 0 -1 98.6504 22.2002)" style="overflow:visible;opacity:0.2891;enable-background:new    ;"/>
		
			<linearGradient id="SVGID_41_" gradientUnits="userSpaceOnUse" x1="6.269" y1="95.5254" x2="10.9811" y2="95.5254" gradientTransform="matrix(0.2599 -0.9656 0.9656 0.2599 3.582239e-005 -8.457899e-005)">
			<stop  offset="0" style="stop-color:#B78038"/>
			<stop  offset="1" style="stop-color:#B5A680"/>
		</linearGradient>
		<path style="fill-rule:evenodd;clip-rule:evenodd;fill:url(#SVGID_41_);" d="M94.25,14.9c1.366-0.6,2.217-0.767,2.55-0.5
			c0.367,0.267,0.066,0.684-0.899,1.25c-1.767,1.033-2.834,1.333-3.2,0.9C92.333,16.083,92.85,15.533,94.25,14.9z"/>
		
			<use xlink:href="#flash2.ai_x2F_Layer_4_x2F__x3C_Path_x3E__x5F_13"  width="3.488" height="1.923" x="0.023" y="-1.918" transform="matrix(1 0 0 -1 92.9502 14.6001)" style="overflow:visible;opacity:0.2891;enable-background:new    ;"/>
	</g>
	<g>
		<g>
			
				<radialGradient id="SVGID_42_" cx="-10.4502" cy="-65.8501" r="25.1375" gradientTransform="matrix(-1 0 0 1.5147 0 165.5912)" gradientUnits="userSpaceOnUse">
				<stop  offset="0.0078" style="stop-color:#7E7B70"/>
				<stop  offset="0.4353" style="stop-color:#2B2B12"/>
				<stop  offset="1" style="stop-color:#242B26"/>
			</radialGradient>
			<path style="fill-rule:evenodd;clip-rule:evenodd;fill:url(#SVGID_42_);" d="M20.6,58.75c0.033,0.167,0.017,0.384-0.05,0.65
				c-0.066,0.233-0.066,0.433,0,0.6c0.034,0.1,0.184,0.283,0.45,0.55c0.167,0.2,0.217,0.4,0.15,0.601l0.15-0.101
				c0.067,0.101,0.067,0.3,0,0.601c-0.1,0.233-0.1,0.416,0,0.55c0.067,0.1,0.2,0.217,0.4,0.35c0.2,0.101,0.333,0.217,0.4,0.351
				c0.033,0.066,0.05,0.466,0.05,1.199c-0.033,0.334-0.1,0.817-0.2,1.45c-0.067,0.533-0.083,1-0.05,1.4
				c0.033,0.3,0.083,0.75,0.15,1.35c0.067,0.533,0.034,0.983-0.1,1.351c0-0.634-0.1-1.067-0.3-1.301
				c-0.167,0.267-0.267,0.567-0.3,0.9c0,0.634-0.033,1.033-0.1,1.2c0-0.233-0.017-0.417-0.05-0.55c0-0.2-0.067-0.367-0.2-0.5
				c-0.6,0.933-0.9,2.116-0.9,3.55c-0.167-0.467-0.283-1.05-0.35-1.75c-0.32,0.468-0.479,0.884-0.475,1.25
				c-0.083-0.274-0.225-0.274-0.425,0c-0.1,0.166-0.184,0.416-0.25,0.75c-0.067,0.366-0.133,0.616-0.2,0.75
				c-0.167,0.366-0.467,0.866-0.9,1.5c-0.2,0.366-0.3,0.866-0.3,1.5c-0.067,0.633-0.15,1.066-0.25,1.3l-0.1-1.2
				c-0.2,0.267-0.3,0.634-0.3,1.101c-0.033,0.866-0.083,1.566-0.15,2.1c-0.1-0.6-0.117-1.267-0.05-2c0.066-0.533,0-1-0.2-1.4
				c-0.367-0.8-0.717-1.333-1.05-1.6c0.066,0.434,0.017,0.75-0.15,0.95c0.033-0.367-0.083-0.767-0.35-1.2
				c-0.367-0.467-0.617-0.833-0.75-1.1c-1.067-1.934-1.6-3.551-1.6-4.851c0-2.333,0.117-3.916,0.35-4.75
				c0.133-0.566,0.2-1.3,0.2-2.2c0-1.133,0.017-1.866,0.05-2.199c0.066-0.9,0.25-1.617,0.55-2.15c0.3-0.4,0.517-0.717,0.65-0.95
				c0.267-0.366,0.383-0.7,0.35-1c0.033,0.066,0.05,0.3,0.05,0.7c0.767-0.967,1.333-1.7,1.7-2.2c0.2-0.5,0.35-0.866,0.45-1.1
				c0.066,0.133,0.1,0.45,0.1,0.95c0.367-0.467,0.533-1.217,0.5-2.25c-0.1-1.233-0.1-2,0-2.3l0.4,3.05c0,0.534,0.017,0.833,0.05,0.9
				c0.067,0.167,0.2,0.334,0.4,0.5c0.034,0.066,0.1,0.267,0.2,0.601c0.067,0.3,0.167,0.5,0.3,0.6c0.267-0.233,0.383-0.65,0.35-1.25
				c-0.066-0.767-0.05-1.25,0.05-1.45c0,0.067,0.1,1.184,0.3,3.351c0.033-0.367,0.117-0.634,0.25-0.801
				c0.133,0.367,0.133,0.917,0,1.65c0.033,0.233,0.2,0.566,0.5,1C20.333,58.217,20.533,58.55,20.6,58.75z"/>
			
				<radialGradient id="SVGID_43_" cx="-8.5122" cy="-65.5459" r="8.1461" gradientTransform="matrix(-0.9989 0.046 0.0997 1.3457 11.3833 153.5989)" gradientUnits="userSpaceOnUse">
				<stop  offset="0.4353" style="stop-color:#D7C8BA"/>
				<stop  offset="0.5647" style="stop-color:#CDC0B4"/>
				<stop  offset="0.7804" style="stop-color:#B3ABA4"/>
				<stop  offset="1" style="stop-color:#91918F"/>
			</radialGradient>
			<path style="fill-rule:evenodd;clip-rule:evenodd;fill:url(#SVGID_43_);" d="M20.3,61.3c-0.133,0.167-0.15,0.334-0.05,0.5
				c0.067,0.134,0.233,0.316,0.5,0.55c0.2,0.167,0.317,0.351,0.35,0.551c0.033,0.3-0.017,0.816-0.15,1.55c0,0.3-0.05,0.75-0.15,1.35
				c0,0.2,0.067,0.467,0.2,0.8c0.167,0.334,0.25,0.584,0.25,0.75c-0.133-0.267-0.267-0.35-0.4-0.25c-0.1,0.067-0.15,0.217-0.15,0.45
				c0,0.101,0.033,0.267,0.1,0.5c0,0.033-0.083,0.167-0.25,0.4L20.4,68.9c-0.066,0.066-0.183,0.166-0.35,0.3
				c-0.1,0.267-0.083,0.649,0.05,1.149c-0.067,0.034-0.25,0.101-0.55,0.2c-0.033,0.066-0.05,0.134-0.05,0.2
				c0.033,0.1,0.017,0.167-0.05,0.2c-0.1,0.133-0.35,0.35-0.75,0.649c-0.133,0.101-0.333,0.2-0.6,0.301
				c-0.167,0.1-0.283,0.25-0.35,0.449c-0.033,0.101,0,0.567,0.1,1.4c-0.233-0.033-0.367,0.033-0.4,0.2
				c0,0.066-0.017,0.217-0.05,0.45h-0.35c-0.066,0.233-0.1,0.6-0.1,1.1c0,0.467-0.05,0.816-0.15,1.05
				c-0.133-0.133-0.25-0.366-0.35-0.7c-0.133-0.333-0.25-0.55-0.35-0.649c-0.033-0.033-0.467-0.3-1.3-0.8
				c-0.433-0.134-0.667-0.233-0.7-0.301c-0.033-0.033,0-0.116,0.1-0.25c0.133-0.1,0.183-0.199,0.15-0.3c0-0.066-0.067-0.1-0.2-0.1
				h-0.2l-0.05-0.3c0.033-0.367-0.033-0.65-0.2-0.851c-0.133,0.3-0.483,0.45-1.05,0.45c0.333-0.5,0.5-0.816,0.5-0.95L12.6,72
				c0.133-0.333,0.2-0.6,0.2-0.8c-0.367-0.033-0.783-0.217-1.25-0.55c0.333-0.067,0.534-0.2,0.6-0.4
				c0.067-0.066-0.033-0.134-0.3-0.2c0.333-0.7,0.233-1.55-0.3-2.55c0.267-0.134,0.434-0.517,0.5-1.15
				c0.1-0.633,0.05-1.05-0.15-1.25l-0.35,0.2c0.367-0.6,0.567-1.017,0.6-1.25l-0.3,0.15c0.267-0.5,0.35-1.15,0.25-1.95
				c-0.1-0.566-0.15-0.866-0.15-0.9c0-0.033,0.133-0.183,0.4-0.449c0.133-0.167,0.117-0.334-0.05-0.5
				c0.067,0.066,0.333-0.567,0.8-1.9c-0.233-0.333-0.333-0.55-0.3-0.65c0.034-0.1,0.117-0.149,0.25-0.149
				c0.2-0.033,0.333-0.066,0.4-0.101c0.167-0.1,0.35-0.25,0.55-0.449c0.233-0.267,0.417-0.434,0.55-0.5
				c0.067-0.034,0.25-0.25,0.55-0.65c0-0.167,0.05-0.283,0.15-0.35c0.033-0.034,0.1-0.034,0.2,0h0.2
				c0.267-0.233,0.45-0.384,0.55-0.45c0.133-0.134,0.367-0.167,0.7-0.101c0.133-0.199,0.2-0.366,0.2-0.5
				c0.233,0.167,0.45,0.517,0.65,1.051c0.167,0.199,0.4,0.383,0.7,0.55c0.1,0.1,0.25,0.399,0.45,0.899
				c0.133,0.4,0.333,0.617,0.6,0.65c0,0.066-0.083,0.333-0.25,0.8c-0.1,0.3-0.083,0.584,0.05,0.851
				c0.034,0.066,0.25,0.283,0.65,0.649c0.2,0.167,0.233,0.384,0.1,0.65l0.4,0.05C20.45,60.884,20.4,61.066,20.3,61.3z"/>
		</g>
		<path style="fill-rule:evenodd;clip-rule:evenodd;fill:#2B3321;" d="M16.95,66.65c0-0.567,0.25-0.851,0.75-0.851
			s0.75,0.283,0.75,0.851c0,0.233-0.067,0.416-0.2,0.55c-0.167,0.166-0.35,0.25-0.55,0.25C17.2,67.45,16.95,67.184,16.95,66.65z"/>
		<path style="fill-rule:evenodd;clip-rule:evenodd;fill:#2B3321;" d="M13.6,70.1c0-0.366,0.083-0.683,0.25-0.949
			c0.2-0.267,0.433-0.4,0.7-0.4c0.267,0,0.5,0.134,0.7,0.4s0.3,0.583,0.3,0.949c0,0.367-0.1,0.667-0.3,0.9
			c-0.2,0.267-0.433,0.4-0.7,0.4c-0.267,0-0.5-0.134-0.7-0.4C13.683,70.767,13.6,70.467,13.6,70.1z"/>
		<path style="fill-rule:evenodd;clip-rule:evenodd;fill:#2B3321;" d="M16.3,58.35c0-0.333,0.15-0.5,0.45-0.5
			c0.333,0,0.5,0.167,0.5,0.5c0,0.334-0.167,0.5-0.5,0.5C16.45,58.85,16.3,58.684,16.3,58.35z"/>
	</g>
	<g>
		<g>
			
				<radialGradient id="SVGID_44_" cx="126.7998" cy="77.7998" r="29.7875" gradientTransform="matrix(1 0 0 1.9022 0 -70.1929)" gradientUnits="userSpaceOnUse">
				<stop  offset="0.0078" style="stop-color:#7E7B70"/>
				<stop  offset="0.4353" style="stop-color:#2B2B12"/>
				<stop  offset="1" style="stop-color:#242B26"/>
			</radialGradient>
			<path style="fill-rule:evenodd;clip-rule:evenodd;fill:url(#SVGID_44_);" d="M117.8,60.25c0.233-0.233,0.384-0.467,0.45-0.7
				c0.033-0.133,0.05-0.6,0.05-1.399l0.45-4.5c0.134,0.466,0.15,1.616,0.05,3.449c-0.066,1.534,0.134,2.634,0.601,3.301
				c-0.067-0.634-0.051-1.101,0.05-1.4l0.6,1.65c0.4,0.767,1.066,1.85,2,3.25c0-0.601,0.017-0.95,0.05-1.051
				c-0.033,0.434,0.101,0.95,0.4,1.551c0.167,0.333,0.434,0.8,0.8,1.399c0.3,0.667,0.517,1.717,0.65,3.15
				c0.033,0.366,0.05,1.467,0.05,3.3c0,1.366,0.083,2.45,0.25,3.25c0.233,1.267,0.35,3.634,0.35,7.1c0,2-0.616,4.417-1.85,7.25
				c-0.167,0.367-0.467,0.9-0.9,1.601c-0.333,0.633-0.483,1.233-0.449,1.8c-0.167-0.3-0.217-0.767-0.15-1.4
				c-0.2,0.2-0.616,0.983-1.25,2.351c-0.233,0.566-0.316,1.25-0.25,2.05c0.1,1.1,0.1,2.083,0,2.95
				c-0.066-0.634-0.116-1.667-0.15-3.101c-0.033-0.633-0.183-1.166-0.449-1.6c0.033,0.4,0.017,1-0.051,1.8
				c-0.133-0.366-0.233-1.017-0.3-1.95c-0.066-1.033-0.184-1.783-0.35-2.25c-0.533-0.966-0.9-1.699-1.101-2.199
				c-0.1-0.233-0.183-0.601-0.25-1.101c-0.066-0.533-0.166-0.916-0.3-1.149c-0.232-0.439-0.391-0.439-0.475,0
				c-0.007-0.53-0.198-1.146-0.575-1.851c-0.167,1.334-0.316,2.184-0.45,2.55c0.066-2.033-0.283-3.767-1.05-5.199
				c-0.1,0.166-0.2,0.666-0.3,1.5c-0.066-0.233-0.101-0.817-0.101-1.75c-0.033-0.5-0.149-0.967-0.35-1.4
				c-0.233,0.366-0.35,1.017-0.35,1.95c-0.134-0.533-0.184-1.2-0.15-2c0.1-0.867,0.167-1.533,0.2-2
				c0.033-0.566,0.017-1.267-0.05-2.101l-0.25-2.1c0-1,0.033-1.6,0.1-1.8s0.217-0.384,0.45-0.55c0.233-0.2,0.383-0.367,0.45-0.5
				c0.1-0.167,0.116-0.45,0.05-0.851c-0.066-0.399-0.066-0.684,0-0.85l0.149,0.149c-0.066-0.333,0-0.633,0.2-0.899
				c0.3-0.4,0.467-0.684,0.5-0.851c0.066-0.199,0.066-0.5,0-0.899c-0.066-0.4-0.083-0.717-0.05-0.95c0.066-0.3,0.3-0.8,0.7-1.5
				c0.366-0.667,0.566-1.15,0.6-1.45c-0.166-1.1-0.166-1.916,0-2.45c0.101,0.134,0.15,0.334,0.15,0.601
				c0.033,0.3,0.083,0.5,0.149,0.6c0.167-3,0.284-4.684,0.351-5.05c0.1,0.3,0.133,1.017,0.1,2.15
				c-0.066,0.933,0.066,1.566,0.4,1.899c0.133-0.133,0.233-0.416,0.3-0.85C117.6,60.733,117.7,60.417,117.8,60.25z"/>
			
				<radialGradient id="SVGID_45_" cx="123.3496" cy="76.5498" r="9.6664" gradientTransform="matrix(0.9983 0.0585 -0.099 1.6889 7.7906 -59.9522)" gradientUnits="userSpaceOnUse">
				<stop  offset="0.4353" style="stop-color:#D7C8BA"/>
				<stop  offset="0.5647" style="stop-color:#CDC0B4"/>
				<stop  offset="0.7804" style="stop-color:#B3ABA4"/>
				<stop  offset="1" style="stop-color:#91918F"/>
			</radialGradient>
			<path style="fill-rule:evenodd;clip-rule:evenodd;fill:url(#SVGID_45_);" d="M118.45,61.85c0.133-0.366,0.283-0.616,0.45-0.75
				c0,0.167,0.066,0.417,0.199,0.75c0.4-0.133,0.7-0.1,0.9,0.101c0.1,0.133,0.3,0.366,0.6,0.7c0.034,0,0.117-0.017,0.25-0.051
				c0.101-0.033,0.184-0.017,0.25,0.051c0.101,0.066,0.15,0.233,0.15,0.5c0.434,0.6,0.667,0.916,0.7,0.949
				c0.267,0.301,0.684,0.784,1.25,1.45c0.066,0.033,0.217,0.084,0.45,0.15c0.166,0.033,0.267,0.116,0.3,0.25
				c0.066,0.166-0.033,0.483-0.3,0.95c0,0.199,0.133,0.733,0.399,1.6c0.3,0.866,0.483,1.267,0.55,1.2
				c-0.233,0.233-0.25,0.483-0.05,0.75c0.101,0.166,0.25,0.399,0.45,0.7c0,0.033-0.05,0.483-0.15,1.35
				c-0.166,1.1-0.083,2.05,0.25,2.85l-0.3-0.149c0.033,0.366,0.267,0.983,0.7,1.85c-0.233-0.166-0.384-0.283-0.45-0.35
				c-0.2,0.267-0.267,0.883-0.2,1.85c0.101,1,0.301,1.584,0.601,1.75c-0.601,1.467-0.717,2.733-0.351,3.8
				c-0.267,0.034-0.383,0.134-0.35,0.301c0.066,0.3,0.3,0.483,0.7,0.55c-0.533,0.533-1.017,0.816-1.45,0.85
				c-0.033,0.3,0.033,0.7,0.2,1.2c-0.3-0.134-0.5-0.233-0.601-0.3c-0.033,0.233,0.15,0.7,0.551,1.399
				c-0.667,0-1.084-0.216-1.25-0.649c-0.101,0.166-0.167,0.366-0.2,0.6c0,0.334-0.017,0.55-0.05,0.65L122.6,89.1
				c0,0.034-0.083,0.067-0.25,0.101c-0.133,0-0.199,0.033-0.199,0.1c-0.034,0.134,0.017,0.283,0.149,0.45
				c0.134,0.167,0.184,0.283,0.15,0.35c-0.467,0.233-0.75,0.384-0.851,0.45c-0.866,0.566-1.366,0.967-1.5,1.2
				c-0.133,0.167-0.267,0.483-0.399,0.95c-0.167,0.5-0.316,0.85-0.45,1.05c-0.1-0.333-0.15-0.866-0.15-1.6
				c-0.033-0.733-0.083-1.267-0.149-1.601h-0.4c0-0.333-0.017-0.566-0.05-0.7c-0.066-0.233-0.233-0.333-0.5-0.3
				c0.066-0.434,0.116-0.767,0.15-1c0.033-0.434,0.017-0.783-0.051-1.05c-0.066-0.3-0.216-0.517-0.449-0.65
				c-0.267-0.166-0.483-0.316-0.65-0.449c-0.467-0.467-0.767-0.801-0.9-1c-0.033-0.034-0.05-0.117-0.05-0.25
				c0.033-0.134,0.017-0.25-0.05-0.351l-0.65-0.3c0.134-0.733,0.15-1.3,0.051-1.7c-0.233-0.166-0.384-0.316-0.45-0.45L114.8,81.7
				c-0.166-0.2-0.267-0.4-0.3-0.601c-0.033-0.1-0.033-0.216,0-0.35c0.066-0.2,0.1-0.333,0.1-0.4c0-0.333-0.05-0.566-0.149-0.699
				c-0.134-0.134-0.283,0-0.45,0.399c0.033-0.267,0.116-0.649,0.25-1.149c0.167-0.467,0.25-0.851,0.25-1.15
				c-0.1-0.9-0.15-1.583-0.15-2.05c-0.199-1.066-0.267-1.816-0.199-2.25c0.033-0.3,0.183-0.584,0.449-0.851
				c0.301-0.366,0.483-0.616,0.551-0.75c0.1-0.267,0.1-0.533,0-0.8c-0.167-0.333-0.25-0.6-0.25-0.8l0.449-0.1
				c-0.166-0.4-0.116-0.733,0.15-1c0.434-0.434,0.684-0.733,0.75-0.9c0.167-0.366,0.184-0.783,0.05-1.25
				c-0.166-0.733-0.25-1.134-0.25-1.2c0.3-0.033,0.533-0.35,0.7-0.95c0.233-0.767,0.4-1.216,0.5-1.35
				c0.233-0.267,0.517-0.566,0.85-0.9C118.2,62.467,118.316,62.217,118.45,61.85z"/>
		</g>
		<path style="fill-rule:evenodd;clip-rule:evenodd;fill:#2B3321;" d="M119.05,79c0,0.333-0.083,0.616-0.25,0.85
			c-0.2,0.233-0.416,0.351-0.649,0.351s-0.434-0.117-0.601-0.351c-0.166-0.233-0.25-0.517-0.25-0.85s0.084-0.634,0.25-0.9
			c0.167-0.233,0.367-0.35,0.601-0.35c0.267,0,0.483,0.116,0.649,0.35C118.967,78.366,119.05,78.667,119.05,79z"/>
		<path style="fill-rule:evenodd;clip-rule:evenodd;fill:#2B3321;" d="M121.1,85.5c-0.233-0.366-0.35-0.833-0.35-1.4
			c0-0.533,0.116-0.983,0.35-1.35c0.2-0.4,0.467-0.6,0.801-0.6c0.333,0,0.6,0.199,0.8,0.6c0.233,0.366,0.35,0.816,0.35,1.35
			c0,0.567-0.116,1.034-0.35,1.4c-0.2,0.4-0.467,0.6-0.8,0.6C121.566,86.1,121.3,85.9,121.1,85.5z"/>
		<path style="fill-rule:evenodd;clip-rule:evenodd;fill:#2B3321;" d="M119.85,66.65c0,0.5-0.183,0.75-0.55,0.75
			c-0.399,0-0.6-0.25-0.6-0.75s0.2-0.75,0.6-0.75C119.667,65.9,119.85,66.15,119.85,66.65z"/>
	</g>
</g>
</svg>
