<?xml version="1.0" encoding="iso-8859-1"?>
<!-- Generator: Adobe Illustrator 15.1.0, SVG Export Plug-In . SVG Version: 6.00 Build 0)  -->
<!DOCTYPE svg PUBLIC "-//W3C//DTD SVG 1.1//EN" "http://www.w3.org/Graphics/SVG/1.1/DTD/svg11.dtd">
<svg version="1.1" id="Layer_3" xmlns="http://www.w3.org/2000/svg" xmlns:xlink="http://www.w3.org/1999/xlink" x="0px" y="0px"
	 width="59.05px" height="55.7px" viewBox="0 0 59.05 55.7" style="enable-background:new 0 0 59.05 55.7;" xml:space="preserve">
<symbol  id="flash0.ai_x2F_Layer_3_x2F__x3C_Path_x3E_" viewBox="-0.062 -34 13.51 34">
	<g id="Layer_1_2_">
		<path style="fill-rule:evenodd;clip-rule:evenodd;fill:#147A54;" d="M4.65-14.9c1.867,1.967,2.967,3.217,3.3,3.75
			c0.7,1.133,1.183,2.467,1.45,4C9.633-5.683,9.617-4.433,9.35-3.4c-0.4,1.333-0.8,2.467-1.2,3.4c0.767-0.7,1.567-1.667,2.4-2.9
			c1.633-2.467,2.567-5.017,2.8-7.65c0.5-5.067-0.9-9.633-4.2-13.7C7.45-26.35,5.667-29.6,3.8-34l-1.45,2.3
			c-1,0.967-1.717,2.7-2.15,5.2c-0.5,2.8-0.284,5.05,0.65,6.75C1.617-18.35,2.883-16.733,4.65-14.9z"/>
	</g>
</symbol>
<symbol  id="flash0.ai_x2F_Layer_3_x2F__x3C_Path_x3E__x5F_0" viewBox="-0.028 -19.691 16.278 19.695">
	<g id="Layer_1_3_">
		<path style="fill-rule:evenodd;clip-rule:evenodd;fill:#005754;" d="M16.25-0.45C13.983-1.15,12.5-1.9,11.8-2.7
			c-0.7-0.767-1.083-1.367-1.15-1.8c-0.1-0.533,0.133-1.367,0.7-2.5c1.033-2.033,1.4-4.233,1.1-6.6
			c-0.267-2.033-1.35-3.583-3.25-4.65c-0.934-0.567-1.85-0.917-2.75-1.05C3.783-19.867,2.3-19.817,2-19.15
			c-0.067,1.667-0.5,3.367-1.3,5.1c-1.434,3.167-0.75,6.216,2.05,9.15C2.35-5.867,2.183-6.567,2.25-7c0-0.5,0.1-0.967,0.3-1.4
			C2.583-8.5,2.667-8.65,2.8-8.85c0.022-0.043,0.039-0.085,0.05-0.125C2.839-8.722,2.856-8.397,2.9-8c0,0.7,0.083,1.3,0.25,1.8
			C3.483-5.1,4.133-4.067,5.1-3.1c0.367,0.367,1.117,0.85,2.25,1.45C8.55-1.083,9.3-0.767,9.6-0.7c0.6,0.167,1.583,0.35,2.95,0.55
			L14.15,0C14.65,0.033,15.35-0.117,16.25-0.45z"/>
	</g>
</symbol>
<symbol  id="flash0.ai_x2F_Layer_3_x2F__x3C_Path_x3E__x5F_1" viewBox="0 -24.014 26.396 24.014">
	<g id="Layer_1_4_">
		<path style="fill-rule:evenodd;clip-rule:evenodd;fill:#005754;" d="M21.55-9.2c0.1,0.3,0.15,0.517,0.15,0.65
			c0.1,0.667,0.083,1.3-0.05,1.9c-0.066,0.7-0.533,1.6-1.4,2.7c2.2-1.433,3.817-3.083,4.85-4.95c1.2-2.1,1.566-4.333,1.1-6.7
			c-0.5-2.5-0.55-4.867-0.15-7.1C25.917-23.667,23.9-24.1,20-24c-1.3-0.033-2.7,0.183-4.2,0.65c-3,0.967-5.033,2.767-6.1,5.4
			c-1.2,3.1-1.434,6.133-0.7,9.1c0.4,1.633,0.45,2.8,0.15,3.5c-0.233,0.533-0.967,1.233-2.2,2.1C5.717-2.35,3.4-1.733,0-1.4
			c1.133,0.667,2.05,1.033,2.75,1.1c0.567,0.033,1.333,0.117,2.3,0.25c1.867,0.066,3.284,0.066,4.25,0
			c0.934-0.067,2.083-0.317,3.45-0.75c1.6-0.4,2.8-0.85,3.6-1.35c1.667-1.033,2.917-2.233,3.75-3.6c0.367-0.567,0.7-1.35,1-2.35
			c0.185-0.715,0.301-1.215,0.35-1.5C21.465-9.488,21.499-9.355,21.55-9.2z"/>
	</g>
</symbol>
<g>
	<g>
		
			<radialGradient id="SVGID_1_" cx="23.957" cy="17.2798" r="30.0379" gradientTransform="matrix(1 -0.0054 -0.0054 -1 0.1874 34.559)" gradientUnits="userSpaceOnUse">
			<stop  offset="0" style="stop-color:#91FFE1"/>
			<stop  offset="0.1373" style="stop-color:#7AE8C7"/>
			<stop  offset="0.4196" style="stop-color:#4EBE95"/>
			<stop  offset="0.6706" style="stop-color:#2F9F70"/>
			<stop  offset="0.8706" style="stop-color:#1B8C5A"/>
			<stop  offset="1" style="stop-color:#148552"/>
		</radialGradient>
		<path style="fill-rule:evenodd;clip-rule:evenodd;fill:url(#SVGID_1_);" d="M40.75,33.15c-0.833,1.066-2.55,3.55-5.15,7.449
			c-1.5,2.2-2.517,3.25-3.05,3.15c-0.733-0.167-1.434-0.533-2.1-1.1c-0.7-0.667-1.5-1.7-2.4-3.101c-3.5-5.5-3.933-9.8-1.3-12.9
			c1.133-1.333,2.983-3.05,5.55-5.15c2.033-1.9,3.117-3.817,3.25-5.75c-0.2-3.133-0.333-5.4-0.399-6.8
			c-0.101-2.4,0.483-4.233,1.75-5.5c1.3-1.3,2.733-2.267,4.3-2.9c0.767-0.3,1.416-0.483,1.95-0.55
			c-0.834,0.533-1.667,1.183-2.5,1.95C39.05,3.55,38.366,5,38.6,6.3c0.167,0.934,1,2.75,2.5,5.45s2.4,4.867,2.7,6.5
			c0.5,2.533,0.55,5.033,0.15,7.5C43.45,28.583,42.384,31.05,40.75,33.15z"/>
		
			<use xlink:href="#flash0.ai_x2F_Layer_3_x2F__x3C_Path_x3E_"  width="13.51" height="34" x="-0.062" y="-34" transform="matrix(1 0 0 -1 28.75 9.75)" style="overflow:visible;opacity:0.2383;enable-background:new    ;"/>
	</g>
	<g>
		
			<radialGradient id="SVGID_2_" cx="-52.6396" cy="13.835" r="77.8853" gradientTransform="matrix(-0.1983 -0.9801 -0.1817 0.0368 16.0736 -3.2528)" gradientUnits="userSpaceOnUse">
			<stop  offset="0" style="stop-color:#91FFE1"/>
			<stop  offset="0.149" style="stop-color:#74E4C4"/>
			<stop  offset="0.4275" style="stop-color:#42B792"/>
			<stop  offset="0.6745" style="stop-color:#1E966D"/>
			<stop  offset="0.8745" style="stop-color:#088257"/>
			<stop  offset="1" style="stop-color:#007B4F"/>
		</radialGradient>
		<path style="fill-rule:evenodd;clip-rule:evenodd;fill:url(#SVGID_2_);" d="M29.95,6.9c0.967,0.967,1.55,2.45,1.75,4.45
			c0.133,1.1,0.267,2.733,0.399,4.9l0.15,1.1c0.033-0.133,0.05-1,0.05-2.6c0.033-1.267,0.25-2.05,0.65-2.35
			c0.733-0.566,1.3-0.3,1.7,0.8c0.366,0.966,0.449,1.833,0.25,2.6c-0.233,0.934-0.867,2.284-1.9,4.05
			c-0.667,1.6-0.483,2.967,0.55,4.1c0.434,0.5,1.117,1.25,2.05,2.25c0.801,0.933,1.334,1.8,1.601,2.6
			c0.267,0.834,0.633,2.733,1.1,5.7c0.066,0.3,0.017,0.616-0.149,0.95c-0.2,0.366-0.267,1.017-0.2,1.95
			c0.033,1.333,0,2.149-0.101,2.449C37.583,40.417,36.934,40,35.9,38.6c-0.367-0.5-0.75-1.183-1.15-2.05
			c-0.566-1.233-0.9-1.95-1-2.149c-0.267-0.5-0.634-0.967-1.1-1.4c-0.101-0.066-0.584-0.434-1.45-1.1
			c-1.467-1.101-2.45-1.917-2.95-2.45c-1.033-1.134-1.533-2.267-1.5-3.4c0.033-0.7,0.3-1.6,0.8-2.7c0.567-1.333,0.9-2.233,1-2.7
			c0.7-2.767,0.75-5.7,0.15-8.8c-0.2-1.067-0.383-1.767-0.55-2.1C27.783,9.117,27.233,9,26.5,9.4c-0.467,0.434-0.817,0.75-1.05,0.95
			c-0.434,0.367-0.784,0.367-1.05,0c-0.3-0.467-0.183-1.2,0.35-2.2c0.433-0.9,0.883-1.517,1.35-1.85c0.633-0.433,1.3-0.583,2-0.45
			C28.767,5.983,29.384,6.333,29.95,6.9z"/>
		
			<radialGradient id="SVGID_3_" cx="-5.5493" cy="31.0146" r="47.5878" gradientTransform="matrix(0.824 -0.5666 -0.4308 -0.6265 30.9328 44.9859)" gradientUnits="userSpaceOnUse">
			<stop  offset="0" style="stop-color:#91FFE1"/>
			<stop  offset="0.149" style="stop-color:#74E4C4"/>
			<stop  offset="0.4275" style="stop-color:#42B792"/>
			<stop  offset="0.6745" style="stop-color:#1E966D"/>
			<stop  offset="0.8745" style="stop-color:#088257"/>
			<stop  offset="1" style="stop-color:#007B4F"/>
		</radialGradient>
		<path style="fill-rule:evenodd;clip-rule:evenodd;fill:url(#SVGID_3_);" d="M59.05,22.5c-0.066,0.433-0.25,0.933-0.55,1.5
			c-0.6,1.133-1.45,2.067-2.55,2.8c-0.767,0.534-1.816,1.133-3.15,1.8c-1,0.467-1.75,0.967-2.25,1.5c-0.934,1-1.483,1.801-1.649,2.4
			c-0.267,0.8-0.084,1.75,0.55,2.85c0.8,1.367,1.217,3.084,1.25,5.15c0.033,2.267-0.434,4.2-1.4,5.8c-1.399,2.2-3.6,4.167-6.6,5.9
			c-0.267,0.133-0.767-0.084-1.5-0.65c-0.9-0.733-1.9-1.083-3-1.05c-1.566,0.033-2.667-0.167-3.3-0.6
			c-1.267-0.967-2.101-3.134-2.5-6.5c-0.4-3.634,0.35-7,2.25-10.101c1.733-2.8,3.966-4.75,6.699-5.85c2.2-0.9,4.367-1.517,6.5-1.85
			c0.634-0.1,2.417-0.25,5.351-0.45c2.8-0.167,4.55-0.75,5.25-1.75L59.05,22.5z"/>
		
			<use xlink:href="#flash0.ai_x2F_Layer_3_x2F__x3C_Path_x3E__x5F_0"  width="16.278" height="19.695" x="-0.028" y="-19.691" transform="matrix(1 0 0 -1 35.0498 27.2002)" style="overflow:visible;opacity:0.2617;enable-background:new    ;"/>
	</g>
	<g>
		
			<radialGradient id="SVGID_4_" cx="55.1504" cy="43.9502" r="29.1668" gradientTransform="matrix(-0.9252 -0.3794 0.2673 -0.6519 94.4276 93.5262)" gradientUnits="userSpaceOnUse">
			<stop  offset="0" style="stop-color:#91FFE1"/>
			<stop  offset="0.1451" style="stop-color:#75E5CC"/>
			<stop  offset="0.4275" style="stop-color:#43B8A7"/>
			<stop  offset="0.6706" style="stop-color:#1E978C"/>
			<stop  offset="0.8706" style="stop-color:#08827B"/>
			<stop  offset="1" style="stop-color:#007B75"/>
		</radialGradient>
		<path style="fill-rule:evenodd;clip-rule:evenodd;fill:url(#SVGID_4_);" d="M41.55,47.65c0.867,0.333,1.351,0.916,1.45,1.75
			c0.2,1.199,0.384,1.933,0.55,2.199c0.3,0.467,0.917,0.884,1.851,1.25c0.749,0.33,1.407,0.514,1.975,0.551
			c-0.949-0.032-1.674-0.032-2.175,0c-0.9,0.033-1.634,0.149-2.2,0.35c0.134,0.1,0.566,0.333,1.3,0.7
			c-1.133-0.134-2.383-0.066-3.75,0.2c-1.566,0.399-2.8,0.666-3.7,0.8c-1.833,0.333-3.483,0.3-4.949-0.101
			c-0.967-0.3-1.733-0.416-2.301-0.35c-1.5,0-2.266,0.017-2.3,0.05c0.1-0.1,0.367-0.333,0.8-0.7c-0.767-0.233-1.633-0.133-2.6,0.301
			c0.267-0.434,0.883-0.934,1.85-1.5c-0.434-0.267-0.767-0.483-1-0.65c-0.4-0.3-0.617-0.6-0.65-0.9c-0.1-0.966,0.65-1.8,2.25-2.5
			c0.733-0.3,1.916-0.633,3.55-1c2.533-0.566,4.217-0.899,5.05-1C38.45,46.9,40.116,47.083,41.55,47.65z"/>
		
			<radialGradient id="SVGID_5_" cx="65.4004" cy="19.5" r="66.2818" gradientTransform="matrix(-0.9252 -0.3794 0.2673 -0.6518 120.6994 57.0222)" gradientUnits="userSpaceOnUse">
			<stop  offset="0" style="stop-color:#91FFE1"/>
			<stop  offset="0.1451" style="stop-color:#75E5CC"/>
			<stop  offset="0.4275" style="stop-color:#43B8A7"/>
			<stop  offset="0.6706" style="stop-color:#1E978C"/>
			<stop  offset="0.8706" style="stop-color:#08827B"/>
			<stop  offset="1" style="stop-color:#007B75"/>
		</radialGradient>
		<path style="fill-rule:evenodd;clip-rule:evenodd;fill:url(#SVGID_5_);" d="M9.05,23.8c4.133-0.466,6.65-0.716,7.55-0.75
			c3.1-0.1,6.316,0.167,9.65,0.8c4.167,0.833,7.917,2.883,11.25,6.15c3.7,3.634,5.884,7.934,6.55,12.9
			c0.634,4.533,0.05,7.683-1.75,9.449C41.4,53.25,39.767,53.9,37.4,54.3c-2.367,0.367-4.95,0.233-7.75-0.399
			c-3.234-0.767-5.734-2.051-7.5-3.851c-1.967-1.967-3.367-4.267-4.2-6.899c-0.8-2.534-0.883-4.767-0.25-6.7
			c0.5-1.634,0.45-2.95-0.15-3.95c-0.466-0.767-1.517-1.684-3.15-2.75c-0.867-0.566-2.066-1.05-3.6-1.45c-2.1-0.566-3.767-1.1-5-1.6
			c-1.767-0.733-3.267-1.784-4.5-3.15L0,21.75l1.15,1.05c0.633,0.567,1.483,0.934,2.55,1.1C5,24.1,6.783,24.067,9.05,23.8z"/>
		
			<use xlink:href="#flash0.ai_x2F_Layer_3_x2F__x3C_Path_x3E__x5F_1"  width="26.396" height="24.014" y="-24.014" transform="matrix(1 0 0 -1 12.5498 25.25)" style="overflow:visible;opacity:0.2617;enable-background:new    ;"/>
	</g>
</g>
</svg>
